<svg width="70" height="70" viewBox="0 0 70 70" fill="none" xmlns="http://www.w3.org/2000/svg">
<path d="M35 70C54.33 70 70 54.33 70 35C70 15.67 54.33 0 35 0C15.67 0 0 15.67 0 35C0 54.33 15.67 70 35 70Z" fill="#1F2432"/>
<path d="M44.4074 54.3381H22.4814V23.4609H39.6409L44.4074 28.2855V54.3381Z" stroke="#00DCE6" stroke-miterlimit="10"/>
<path d="M42 29.001H39V26.001" stroke="#00DCE6" stroke-miterlimit="10"/>
<path d="M22.9228 51.001H18V19.001H31" stroke="#00DCE6" stroke-miterlimit="10"/>
<path d="M31.6226 23.3914V15.7021H47.6226L52.6226 20.7507V43.7021H47.6226" stroke="#00DCE6" stroke-miterlimit="10"/>
<path d="M50.1978 21.4971H47.1978V18.4971" stroke="#00DCE6" stroke-miterlimit="10"/>
<path d="M26 33.001H35" stroke="#00DCE6" stroke-miterlimit="10"/>
<path d="M26 29.001H35" stroke="#00DCE6" stroke-miterlimit="10"/>
<path d="M32.5 49.001C35.5376 49.001 38 46.5385 38 43.501C38 40.4634 35.5376 38.001 32.5 38.001C29.4624 38.001 27 40.4634 27 43.501C27 46.5385 29.4624 49.001 32.5 49.001Z" stroke="#00DCE6" stroke-miterlimit="10"/>
<path d="M36 47.001L41 52.001" stroke="#00DCE6" stroke-miterlimit="10"/>
</svg>
