<svg width="70" height="70" viewBox="0 0 70 70" fill="none" xmlns="http://www.w3.org/2000/svg">
<path d="M35 70C54.33 70 70 54.33 70 35C70 15.67 54.33 0 35 0C15.67 0 0 15.67 0 35C0 54.33 15.67 70 35 70Z" fill="#1F2432"/>
<path d="M38.956 41.2486L40.2088 42.5083L42.4835 40.221L41.2308 38.9613C41.5934 38.3646 42.0549 37.3039 42.2198 36.6409H44V33.4254H42.2198C42.0549 32.7624 41.5934 31.6685 41.2308 31.105L42.4835 29.8453L40.2088 27.558L38.956 28.7845C38.3626 28.4199 37.3077 27.9558 36.6484 27.7901V26H33.4505V27.7901C32.7912 27.9558 31.6044 28.4199 31.044 28.7845L29.7912 27.5249L27.5165 29.8122L28.7692 31.0718C28.4066 31.6685 27.9451 32.7293 27.7802 33.3923H26V36.6077H27.7802C27.9451 37.2707 28.4066 38.3315 28.7692 38.9282L27.5165 40.1878L29.7912 42.4751L31.044 41.2155C31.6374 41.5801 32.6923 42.0442 33.3516 42.2099V44H36.5494V42.2099C37.2088 42.0442 38.3956 41.6133 38.956 41.2486Z" stroke="#00DCE6"/>
<path d="M18.5 22.6234V18.3437L22.5 15.6059L26.5001 18.3437V22.6234L22.5 25.3919L18.5 22.6234Z" stroke="#00DCE6"/>
<path d="M43.5 50.6234V46.3437L47.5 43.6059L51.5 46.3437V50.6234L47.5 53.3919L43.5 50.6234Z" stroke="#00DCE6"/>
<path d="M24.4346 24.0625L29.075 28.7029" stroke="#00DCE6"/>
<path d="M41.5625 40.833L45.9375 45.208" stroke="#00DCE6"/>
<path d="M51.5 22.6234V18.3437L47.5 15.6059L43.5 18.3437V22.6234L47.5 25.3919L51.5 22.6234Z" stroke="#00DCE6"/>
<path d="M26.5 50.6234V46.3437L22.5 43.6059L18.5 46.3437V50.6234L22.5 53.3919L26.5 50.6234Z" stroke="#00DCE6"/>
<path d="M46.0686 24.1836L41.4282 28.824" stroke="#00DCE6"/>
<path d="M28.9282 40.7832L24.2878 45.4236" stroke="#00DCE6"/>
<circle cx="35" cy="35" r="3.5" stroke="#00DCE6"/>
</svg>
