<svg width="70" height="70" viewBox="0 0 70 70" fill="none" xmlns="http://www.w3.org/2000/svg">
<path d="M35 70C54.33 70 70 54.33 70 35C70 15.67 54.33 0 35 0C15.67 0 0 15.67 0 35C0 54.33 15.67 70 35 70Z" fill="#1F2432"/>
<path d="M35 34.7297L33.7419 31.5405L31.9018 32.1892C31.3883 31.4324 30.7721 30.7928 30.0788 30.2703L30.695 28.3243L27.6653 27L26.7923 28.8288C25.9536 28.6847 25.0806 28.6757 24.2162 28.8288L23.3432 27L20.3135 28.3243L20.9297 30.2613C20.2108 30.8018 19.6032 31.4504 19.1068 32.1802L17.2581 31.5315L16 34.7207L17.7374 35.6396C17.6005 36.5225 17.5919 37.4414 17.7374 38.3514L16 39.2703L17.2581 42.4595L19.0982 41.8108C19.6117 42.5676 20.2279 43.2072 20.9212 43.7297L20.305 45.6757L23.3432 47L24.2162 45.1712C25.055 45.3153 25.9279 45.3243 26.7923 45.1712L27.6653 47L30.695 45.6757L30.0788 43.7387C30.7977 43.1982 31.4054 42.5495 31.9018 41.8198L33.7505 42.4685L35 39.2793L33.2626 38.3604C33.3995 37.4775 33.4081 36.5586 33.2626 35.6486L35 34.7297Z" stroke="#00DCE6" stroke-miterlimit="10"/>
<path d="M25.5 40.5C27.433 40.5 29 38.933 29 37C29 35.067 27.433 33.5 25.5 33.5C23.567 33.5 22 35.067 22 37C22 38.933 23.567 40.5 25.5 40.5Z" stroke="#00DCE6" stroke-miterlimit="10"/>
<path d="M54 43.9559L52.8102 41.0881L51.061 41.6678C50.5729 40.9864 49.9932 40.4068 49.3322 39.939L49.9119 38.1898L47.0441 37L46.2203 38.6475C45.4271 38.5153 44.6034 38.5051 43.7797 38.6475L42.9559 37L40.0881 38.1898L40.6678 39.939C39.9864 40.4271 39.4068 41.0068 38.939 41.6678L37.1898 41.0881L36 43.9559L37.6475 44.7797C37.5153 45.5729 37.5051 46.3966 37.6475 47.2203L36 48.0441L37.1898 50.9119L38.939 50.3322C39.4271 51.0136 40.0068 51.5932 40.6678 52.061L40.0881 53.8102L42.9559 55L43.7797 53.3525C44.5729 53.4847 45.3966 53.4949 46.2203 53.3525L47.0441 55L49.9119 53.8102L49.3322 52.061C50.0136 51.5729 50.5932 50.9932 51.061 50.3322L52.8102 50.9119L54 48.0441L52.3525 47.2203C52.4847 46.4271 52.4949 45.6034 52.3525 44.7797L54 43.9559Z" stroke="#00DCE6" stroke-miterlimit="10"/>
<path d="M48 46C48 47.6598 46.6598 49 45 49C43.3402 49 42 47.6598 42 46C42 44.3403 43.3402 43.0001 45 43.0001C46.6495 42.9897 48 44.3403 48 46Z" stroke="#00DCE6" stroke-miterlimit="10"/>
<path d="M22 25.2041V18.3672H45.4288L52.1636 25.1019V38.5" stroke="#00DCE6" stroke-miterlimit="10"/>
<path d="M50 26H44V20" stroke="#00DCE6" stroke-miterlimit="10"/>
<path d="M19 26V15H38" stroke="#00DCE6" stroke-miterlimit="10"/>
</svg>
