<svg width="70" height="70" viewBox="0 0 70 70" fill="none" xmlns="http://www.w3.org/2000/svg">
<path d="M35 70C54.33 70 70 54.33 70 35C70 15.67 54.33 0 35 0C15.67 0 0 15.67 0 35C0 54.33 15.67 70 35 70Z" fill="#1F2432"/>
<path d="M30.4447 48.8387H39.5553M30.4447 48.8387C30.4447 48.8387 30.0661 45.7618 28.9775 41.957M30.4447 48.8387L25 54L25.0434 45.828L28.9775 41.957M39.5553 48.8387L45 54L44.9566 45.828L40.9782 41.957M39.5553 48.8387C39.5553 48.8387 39.9445 45.8727 40.9782 41.957M40.9782 41.957C40.9782 41.957 43.5714 30.4912 43.5714 28.0351C43.5714 19.9649 34.7831 14 34.7831 14C34.7831 14 26.4286 19.614 26.4286 28.0351C26.4286 29.7895 28.9775 41.957 28.9775 41.957" stroke="#00DCE6"/>
<path d="M35 49L35 55" stroke="#00DCE6"/>
<path d="M32 52L32 55" stroke="#00DCE6"/>
<path d="M38 52L38 55" stroke="#00DCE6"/>
<path d="M20 37V55" stroke="#00DCE6"/>
<path d="M50 37V55" stroke="#00DCE6"/>
<circle cx="35" cy="24" r="3.5" stroke="#00DCE6"/>
</svg>
