<svg width="90" height="60" viewBox="0 0 90 60" fill="none" xmlns="http://www.w3.org/2000/svg">
<rect width="60" height="90" rx="30" transform="matrix(4.37114e-08 1 1 -4.37114e-08 0 0)" fill="#1F2432"/>
<path d="M62.3506 30.1138L62.3506 24.8467L54.3927 30.1138L54.3927 24.8467L46.492 30.1138L46.492 24.8467L38.5341 30.1138L38.5341 44.9991L62.3506 44.9991L62.3506 30.1138Z" stroke="#00DCE6"/>
<path d="M36.7022 20.0381L30.1756 20.0381" stroke="#00DCE6"/>
<path d="M37.4464 30.1143L36.3586 15L30.519 15L29.4312 30.1143" stroke="#00DCE6"/>
<path d="M45.6907 34.5215L42.8854 34.5215L42.8854 37.3268L45.6907 37.3268L45.6907 34.5215Z" stroke="#00DCE6"/>
<path d="M51.4158 34.5215L48.6105 34.5215L48.6105 37.3268L51.4158 37.3268L51.4158 34.5215Z" stroke="#00DCE6"/>
<path d="M57.1409 34.4648L54.3356 34.4648L54.3356 37.2702L57.1409 37.2701L57.1409 34.4648Z" stroke="#00DCE6"/>
<path d="M38.5342 30.1143L28 30.1143L28 44.9996L38.5342 44.9996L38.5342 30.1143Z" stroke="#00DCE6"/>
</svg>
