<svg width="90" height="60" viewBox="0 0 90 60" fill="none" xmlns="http://www.w3.org/2000/svg">
<rect width="60" height="90" rx="30" transform="matrix(4.37114e-08 1 1 -4.37114e-08 0 0)" fill="#1F2432"/>
<path d="M36.178 22.1758L36.178 31.4116L30.03 31.4116L30.03 22.1758" stroke="#00DCE6"/>
<path d="M48.4739 22.1758L48.4739 31.4116L42.3259 31.4116L42.3259 22.1758" stroke="#00DCE6"/>
<path d="M60.7698 22.1758L60.7698 31.4116L54.6218 31.4116L54.6218 22.1758" stroke="#00DCE6"/>
<path d="M62.8 31.4111L28 31.4111L28 43.3176L62.8 43.3176L62.8 31.4111Z" stroke="#00DCE6"/>
<path d="M51.8959 18.4473L38.9619 18.4473L38.9619 22.0085L51.8959 22.0085L51.8959 18.4473Z" stroke="#00DCE6"/>
<path d="M45.3999 16L45.3999 18.448" stroke="#00DCE6"/>
<path d="M51.2001 34.3604L39.6001 34.3604L39.6001 43.2623L51.2001 43.2623L51.2001 34.3604Z" stroke="#00DCE6"/>
<path d="M51.2 34.3604L45.458 34.3604L45.458 43.318L51.2 43.318L51.2 34.3604Z" stroke="#00DCE6"/>
<path d="M60.77 22.0088L30.03 22.0088L30.03 24.2899L60.77 24.2899L60.77 22.0088Z" stroke="#00DCE6"/>
<path d="M47.2559 37.7539L47.2559 40.4245" stroke="#00DCE6"/>
<path d="M43.7759 37.7539L43.7759 40.4245" stroke="#00DCE6"/>
<path d="M33.684 34.3604L30.668 34.3604L30.668 40.9812L33.684 40.9812L33.684 34.3604Z" stroke="#00DCE6"/>
<path d="M59.9579 34.3604L56.9419 34.3604L56.9419 40.9812L59.9579 40.9812L59.9579 34.3604Z" stroke="#00DCE6"/>
<path d="M40.4119 20.2285L49.9239 20.2285" stroke="#00DCE6"/>
</svg>
