<svg width="90" height="60" viewBox="0 0 90 60" fill="none" xmlns="http://www.w3.org/2000/svg">
<rect width="60" height="90" rx="30" transform="matrix(4.37114e-08 1 1 -4.37114e-08 0 0)" fill="#1F2432"/>
<path d="M43.3417 21.2197L57.213 21.3221C60.1643 21.3732 61.64 23.4202 61.64 25.4672C61.64 27.5142 60.0462 29.5611 57.1539 29.51L47.5916 29.4076C46.5882 29.4076 45.7028 29.7147 45.1125 30.3288C44.5813 30.8917 44.2862 31.6593 44.2862 32.4781C44.2862 33.9621 45.2896 35.5485 47.5326 35.5997L52.0186 35.6509C53.3762 35.6509 54.5568 36.1626 55.3831 36.9814C56.0915 37.749 56.4456 38.7214 56.4456 39.796C56.4456 41.843 54.8519 43.89 51.9596 43.8388L34.96 43.6853" stroke="#00DCE6" stroke-miterlimit="10"/>
<path d="M36.3295 36.4305C36.3295 34.131 34.4899 32.2402 32.1903 32.2402C29.8908 32.2402 28 34.0799 28 36.3794C28 37.0438 28.1533 37.657 28.4088 38.2702C28.8687 39.19 30.6573 41.7962 31.6793 43.227L32.0881 43.8402L32.4969 43.2781C33.57 41.8473 35.4097 39.2411 35.8696 38.3724C36.1762 37.7081 36.3295 37.0949 36.3295 36.4305Z" stroke="#00DCE6" stroke-miterlimit="10"/>
<path d="M32.1392 38.1171C33.2117 38.1171 34.0811 37.2477 34.0811 36.1752C34.0811 35.1028 33.2117 34.2334 32.1392 34.2334C31.0668 34.2334 30.1974 35.1028 30.1974 36.1752C30.1974 37.2477 31.0668 38.1171 32.1392 38.1171Z" stroke="#00DCE6" stroke-miterlimit="10"/>
<path d="M41.8764 19.7713C41.8764 17.7017 40.2207 16 38.1511 16C36.0815 16 34.3798 17.6557 34.3798 19.7253C34.3798 20.3232 34.5178 20.8751 34.7477 21.427C35.1617 22.2548 36.7713 24.6004 37.6912 25.8881L38.0591 26.44L38.427 25.9341C39.3928 24.6463 41.0485 22.3008 41.4624 21.5189C41.7384 20.9211 41.8764 20.3692 41.8764 19.7713Z" stroke="#00DCE6" stroke-miterlimit="10"/>
<path d="M38.1512 21.2883C39.1164 21.2883 39.8989 20.5058 39.8989 19.5406C39.8989 18.5754 39.1164 17.793 38.1512 17.793C37.186 17.793 36.4035 18.5754 36.4035 19.5406C36.4035 20.5058 37.186 21.2883 38.1512 21.2883Z" stroke="#00DCE6" stroke-miterlimit="10"/>
</svg>
