<svg width="90" height="60" viewBox="0 0 90 60" fill="none" xmlns="http://www.w3.org/2000/svg">
<rect width="60" height="90" rx="30" transform="matrix(4.37114e-08 1 1 -4.37114e-08 0 0)" fill="#1F2432"/>
<path d="M60.19 23.9L45.284 17L30.436 24.0002L30.436 42.5198L60.19 42.5198L60.19 23.9Z" stroke="#00DCE6" stroke-miterlimit="10"/>
<path d="M28 25L45.284 17L62.8 25" stroke="#00DCE6" stroke-miterlimit="10"/>
<path d="M50.62 37.0215L45.4 37.0215L45.4 42.4812L50.62 42.4812L50.62 37.0215Z" stroke="#00DCE6" stroke-miterlimit="10"/>
<path d="M45.4 37.0215L40.18 37.0215L40.18 42.4812L45.4 42.4812L45.4 37.0215Z" stroke="#00DCE6" stroke-miterlimit="10"/>
<path d="M40.18 37.0215L34.96 37.0215L34.96 42.4812L40.18 42.4812L40.18 37.0215Z" stroke="#00DCE6" stroke-miterlimit="10"/>
<path d="M55.84 37.0215L50.62 37.0215L50.62 42.4812L55.84 42.4812L55.84 37.0215Z" stroke="#00DCE6" stroke-miterlimit="10"/>
<path d="M55.84 37.0215L50.62 37.0215L50.62 42.4812L55.84 42.4812L55.84 37.0215Z" stroke="#00DCE6" stroke-miterlimit="10"/>
<path d="M42.79 31.5L37.57 31.5L37.57 36.9597L42.79 36.9597L42.79 31.5Z" stroke="#00DCE6" stroke-miterlimit="10"/>
<path d="M53.23 31.5L48.01 31.5L48.01 36.9597L53.23 36.9597L53.23 31.5Z" stroke="#00DCE6" stroke-miterlimit="10"/>
<path d="M48.01 31.5L42.79 31.5L42.79 36.9597L48.01 36.9597L48.01 31.5Z" stroke="#00DCE6" stroke-miterlimit="10"/>
<path d="M48.01 31.5L42.79 31.5L42.79 36.9597L48.01 36.9597L48.01 31.5Z" stroke="#00DCE6" stroke-miterlimit="10"/>
<path d="M40.18 31.5L40.18 33.3199" stroke="#00DCE6" stroke-miterlimit="10"/>
<path d="M37.57 37.0215L37.57 38.7807" stroke="#00DCE6" stroke-miterlimit="10"/>
<path d="M42.79 37.0215L42.79 38.7807" stroke="#00DCE6" stroke-miterlimit="10"/>
<path d="M48.01 37.0215L48.01 38.7807" stroke="#00DCE6" stroke-miterlimit="10"/>
<path d="M53.23 37.0215L53.23 38.7807" stroke="#00DCE6" stroke-miterlimit="10"/>
<path d="M45.4 31.5L45.4 33.3199" stroke="#00DCE6" stroke-miterlimit="10"/>
<path d="M48.01 26.2803L42.79 26.2803L42.79 31.5003L48.01 31.5003L48.01 26.2803Z" stroke="#00DCE6" stroke-miterlimit="10"/>
<path d="M45.4 26.2803L45.4 28.1002" stroke="#00DCE6" stroke-miterlimit="10"/>
<path d="M50.62 31.5L50.62 33.3199" stroke="#00DCE6" stroke-miterlimit="10"/>
</svg>
