<svg width="90" height="60" viewBox="0 0 90 60" fill="none" xmlns="http://www.w3.org/2000/svg">
<rect width="60" height="90" rx="30" transform="matrix(4.37114e-08 1 1 -4.37114e-08 0 0)" fill="#1F2432"/>
<path d="M55.608 21.5078L50.446 21.5078L50.446 30.3238L60.77 30.3238L60.77 29.1638L55.608 21.5078Z" stroke="#00DCE6" stroke-miterlimit="10"/>
<path d="M53.2881 36.9939C53.2881 38.6759 54.6801 40.0679 56.3621 40.0679C58.0441 40.0679 59.4361 38.6759 59.4361 36.9939C59.4361 35.3119 58.0441 33.9199 56.3621 33.9199C54.6801 33.9199 53.2881 35.3119 53.2881 36.9939Z" stroke="#00DCE6" stroke-miterlimit="10"/>
<path d="M54.5641 36.9943C54.5641 37.9803 55.3761 38.7923 56.3621 38.7923C57.3481 38.7923 58.1601 37.9803 58.1601 36.9943C58.1601 36.0083 57.3481 35.1963 56.3621 35.1963C55.3761 35.1963 54.5641 36.0083 54.5641 36.9943Z" stroke="#00DCE6" stroke-miterlimit="10"/>
<path d="M31.5381 36.9359C31.5381 38.6179 32.8721 40.0099 34.5541 40.0679C36.2361 40.0679 37.6281 38.7339 37.6861 37.0519C37.6861 35.3699 36.3521 33.9779 34.6701 33.9199C32.9301 33.9199 31.5381 35.2539 31.5381 36.9359Z" stroke="#00DCE6" stroke-miterlimit="10"/>
<path d="M49.054 20L56.536 20L62.8 29.164L62.8 36.182L59.32 36.182C58.972 34.906 57.754 33.978 56.362 33.978C54.97 33.978 53.81 34.906 53.404 36.182L49.054 36.182L37.512 36.182C37.164 34.906 36.004 33.978 34.612 33.978C33.22 33.978 32.002 34.906 31.654 36.182L28 36.182L28 20.058L49.054 20Z" stroke="#00DCE6" stroke-miterlimit="10"/>
<path d="M32.814 36.9939C32.814 37.9799 33.568 38.7919 34.554 38.7919C35.54 38.7919 36.352 38.0379 36.352 37.0519C36.352 36.0659 35.598 35.2539 34.612 35.2539C33.626 35.1959 32.814 36.0079 32.814 36.9939Z" stroke="#00DCE6" stroke-miterlimit="10"/>
<path d="M47.0241 22.9004L31.5381 22.9004" stroke="#00DCE6" stroke-miterlimit="10"/>
<path d="M47.0241 25.7998L31.5381 25.7998" stroke="#00DCE6" stroke-miterlimit="10"/>
<path d="M47.0241 28.7002L31.5381 28.7002" stroke="#00DCE6" stroke-miterlimit="10"/>
</svg>
