<svg width="90" height="60" viewBox="0 0 90 60" fill="none" xmlns="http://www.w3.org/2000/svg">
<rect width="60" height="90" rx="30" transform="matrix(4.37114e-08 1 1 -4.37114e-08 0 0)" fill="#1F2432"/>
<path d="M55.55 42.9403L29.74 42.9403L29.74 27.2803L35.54 27.2803" stroke="#00DCE6" stroke-miterlimit="10"/>
<path d="M55.26 27.2803L61.06 27.2803L61.06 42.9403L55.26 42.9403" stroke="#00DCE6" stroke-miterlimit="10"/>
<path d="M50.6199 41.7807L50.6199 30.1807" stroke="#00DCE6" stroke-miterlimit="10"/>
<path d="M40.18 41.7807L40.18 30.1807" stroke="#00DCE6" stroke-miterlimit="10"/>
<path d="M45.3999 30.1807L45.3999 40.0407" stroke="#00DCE6" stroke-miterlimit="10"/>
<path d="M29.972 39.5762L35.83 39.5762" stroke="#00DCE6" stroke-miterlimit="10"/>
<path d="M55.086 39.5762L61.002 39.5762" stroke="#00DCE6" stroke-miterlimit="10"/>
<path d="M29.8731 27.2805L28 27.2805L28 21.4805L34.38 21.4805" stroke="#00DCE6" stroke-miterlimit="10"/>
<path d="M56.42 21.4805L62.8 21.4805L62.8 27.2805L60.9687 27.2805" stroke="#00DCE6" stroke-miterlimit="10"/>
<path d="M35.83 39.5762L40.47 39.5762" stroke="#00DCE6" stroke-miterlimit="10"/>
<path d="M50.678 39.5762L55.086 39.5762" stroke="#00DCE6" stroke-miterlimit="10"/>
<path d="M51.78 41.7803L39.02 41.7803L39.02 42.9403L51.78 42.9403L51.78 41.7803Z" stroke="#00DCE6" stroke-miterlimit="10"/>
<path d="M51 40L40 40L40 42L51 42L51 40Z" stroke="#00DCE6" stroke-miterlimit="10"/>
<path d="M44 35.458L44 38.01" stroke="#00DCE6" stroke-miterlimit="10"/>
<path d="M46.9661 35.458L46.9661 38.01" stroke="#00DCE6" stroke-miterlimit="10"/>
<path d="M56.4199 18L34.3799 18L34.3799 27.28L56.4199 27.28L56.4199 18Z" stroke="#00DCE6" stroke-miterlimit="10"/>
<path d="M51.78 27.2803L39.6 27.2803L39.6 30.1803L51.78 30.1803L51.78 27.2803Z" stroke="#00DCE6" stroke-miterlimit="10"/>
<path d="M40.1799 21.4805C40.1799 23.0916 38.8841 24.3805 37.2799 24.3805C35.6756 24.3805 34.3799 23.0916 34.3799 21.4805" stroke="#00DCE6" stroke-miterlimit="10"/>
<path d="M45.3999 21.4805C45.3999 23.0916 44.2338 24.3805 42.7899 24.3805C41.3461 24.3805 40.1799 23.0916 40.1799 21.4805" stroke="#00DCE6" stroke-miterlimit="10"/>
<path d="M50.6199 21.4805C50.6199 23.0916 49.4537 24.3805 48.0099 24.3805C46.5661 24.3805 45.3999 23.0916 45.3999 21.4805" stroke="#00DCE6" stroke-miterlimit="10"/>
<path d="M56.4201 21.4805C56.4201 23.0916 55.1244 24.3805 53.5201 24.3805C51.9159 24.3805 50.6201 23.0916 50.6201 21.4805" stroke="#00DCE6" stroke-miterlimit="10"/>
</svg>
