<svg width="130" height="130" viewBox="0 0 130 130" fill="none" xmlns="http://www.w3.org/2000/svg">
<path fill-rule="evenodd" clip-rule="evenodd" d="M19.8612 0H130V110.139C116.2 122.49 97.9772 130 78 130C34.9218 130 0 95.0782 0 52C0 32.0228 7.51019 13.7997 19.8612 0Z" fill="#00DCE6" fill-opacity="0.1"/>
<path d="M41 52.8938C41 47.4242 42.1061 42.213 44.1172 37.4756C46.1139 32.7381 49.0156 28.4744 52.6069 24.8854C56.1981 21.3108 60.4645 18.4109 65.2049 16.4011C69.9453 14.3912 75.1598 13.2875 80.6328 13.2875V10L95.0121 18.2977L80.6328 26.5954V22.102C76.3808 22.102 72.4431 23.0263 68.7657 24.5911C65.0739 26.1559 61.7556 28.4098 58.9688 31.1948C56.182 33.9799 53.9267 37.3105 52.361 40.9856C50.7952 44.6751 49.9333 48.7091 49.9333 52.9584C49.9333 57.2078 50.7952 61.2561 52.361 64.9313C53.9267 68.6207 56.182 71.937 58.9688 74.722C61.7556 77.507 65.0883 79.7609 68.7657 81.3257C70.6906 82.144 72.716 82.7613 74.8133 83.1776M87.1832 22.8052C89.065 23.2072 90.875 23.7958 92.5987 24.5279C96.2762 26.0927 99.6088 28.3466 102.396 31.1317C105.182 33.9167 107.438 37.2329 109.003 40.9224C110.569 44.5975 111.431 48.6459 111.431 52.8952C111.431 57.1446 110.569 61.1786 109.003 64.8681C107.438 68.5432 105.182 71.8738 102.396 74.6588C99.6088 77.4439 96.2905 79.6978 92.5987 81.2626C88.9213 82.8274 84.8704 83.6887 80.6184 83.6887C80.4173 83.6887 80.3455 83.6887 80.1444 83.6887L80.1588 79.9563L65.7795 88.2541L80.1588 96.5518V92.5034H80.6328C86.1059 92.5034 91.3203 91.398 96.0607 89.3882C100.801 87.3784 105.068 84.4785 108.659 80.9038C112.25 77.3148 115.152 73.0511 117.148 68.3137C119.16 63.5762 120.266 58.365 120.266 52.8954" stroke="#00DCE6" stroke-miterlimit="22.9256"/>
<path d="M63.5397 48.1263C63.5397 48.8682 62.9392 49.4616 62.2044 49.4616C61.4626 49.4616 60.8691 48.8611 60.8691 48.1263C60.8691 47.3845 61.4697 46.7911 62.2044 46.7911C62.9392 46.784 63.5397 47.3845 63.5397 48.1263Z" stroke="#00DCE6" stroke-miterlimit="22.9256"/>
<path d="M101.35 48.1263C101.35 48.8682 100.75 49.4616 100.015 49.4616C99.2731 49.4616 98.6797 48.8611 98.6797 48.1263C98.6797 47.3845 99.2802 46.7911 100.015 46.7911C100.75 46.784 101.35 47.3845 101.35 48.1263Z" stroke="#00DCE6" stroke-miterlimit="22.9256"/>
<path d="M98.6729 48.127H93.854M68.3496 48.127H63.5391" stroke="#00DCE6" stroke-miterlimit="22.9256"/>
<path d="M100.504 56.7337C100.504 57.6027 101.21 58.3092 102.079 58.3092C102.948 58.3092 103.655 57.6027 103.655 56.7337C103.655 55.8647 102.948 55.1582 102.079 55.1582C101.21 55.1582 100.504 55.8647 100.504 56.7337Z" stroke="#00DCE6" stroke-miterlimit="22.9256"/>
<path d="M61.709 56.7314H68.6425M93.2675 56.7314H100.502" stroke="#00DCE6" stroke-miterlimit="22.9256"/>
<path d="M61.7095 56.7337C61.7095 57.6027 61.0031 58.3092 60.1341 58.3092C59.2651 58.3092 58.5586 57.6027 58.5586 56.7337C58.5586 55.8647 59.2651 55.1582 60.1341 55.1582C61.0031 55.1582 61.7095 55.8647 61.7095 56.7337Z" stroke="#00DCE6" stroke-miterlimit="22.9256"/>
<path d="M97.1543 70.3683C97.1543 69.4711 97.882 68.7363 98.7863 68.7363C99.6835 68.7363 100.418 69.464 100.418 70.3683C100.418 71.2656 99.6906 72.0003 98.7863 72.0003C97.882 72.0003 97.1543 71.2656 97.1543 70.3683Z" stroke="#00DCE6" stroke-miterlimit="22.9256"/>
<path d="M69.3901 32.9238L77.1827 32.9309V38.9438M64.918 70.2761L77.1827 70.2619V64.4482" stroke="#00DCE6" stroke-miterlimit="22.9256"/>
<path d="M69.3726 33.0672C69.5035 32.1755 68.8867 31.3465 67.9949 31.2156C67.1031 31.0847 66.2741 31.7015 66.1432 32.5933C66.0123 33.4851 66.6292 34.3141 67.5209 34.445C68.4127 34.5758 69.2417 33.959 69.3726 33.0672Z" stroke="#00DCE6" stroke-miterlimit="22.9256"/>
<path d="M95.9775 33.0926C96.1219 32.2029 95.5177 31.3646 94.628 31.2202C93.7383 31.0758 92.9 31.68 92.7556 32.5697C92.6112 33.4594 93.2154 34.2977 94.1051 34.4421C94.9948 34.5865 95.8331 33.9823 95.9775 33.0926Z" stroke="#00DCE6" stroke-miterlimit="22.9256"/>
<path d="M92.6813 32.9238L84.8887 32.9309V38.9438M97.1534 70.2761L84.8887 70.2619V64.4482" stroke="#00DCE6" stroke-miterlimit="22.9256"/>
<path d="M90.5536 61.0628C95.7681 55.8483 95.7681 47.3939 90.5536 42.1794C85.3391 36.9649 76.8847 36.9649 71.6702 42.1794C66.4557 47.3939 66.4557 55.8483 71.6702 61.0628C76.8847 66.2773 85.3391 66.2773 90.5536 61.0628Z" stroke="#00DCE6" stroke-miterlimit="22.9256"/>
<path d="M85.7442 56.2546C88.3031 53.6956 88.3031 49.5466 85.7442 46.9876C83.1852 44.4286 79.0362 44.4286 76.4772 46.9876C73.9182 49.5466 73.9182 53.6956 76.4772 56.2546C79.0362 58.8136 83.1852 58.8136 85.7442 56.2546Z" stroke="#00DCE6" stroke-miterlimit="22.9256"/>
<path d="M65.4967 70.2757C65.4967 71.1447 64.7902 71.8512 63.9212 71.8512C63.0522 71.8512 62.3457 71.1447 62.3457 70.2757C62.3457 69.4067 63.0522 68.7002 63.9212 68.7002C64.7972 68.7002 65.4967 69.4067 65.4967 70.2757Z" stroke="#00DCE6" stroke-miterlimit="22.9256"/>
</svg>
