<svg width="130" height="130" viewBox="0 0 130 130" fill="none" xmlns="http://www.w3.org/2000/svg">
<path fill-rule="evenodd" clip-rule="evenodd" d="M19.8612 0H130V110.139C116.2 122.49 97.9772 130 78 130C34.9218 130 0 95.0782 0 52C0 32.0228 7.51019 13.7997 19.8612 0Z" fill="#00DCE6" fill-opacity="0.1"/>
<path d="M81.1973 26.2529L81.1973 9.99807" stroke="#00DCE6"/>
<path d="M84.9764 15.041L81.1962 10.0007L77.416 15.041" stroke="#00DCE6"/>
<path d="M81.1973 79.2764L81.1973 95.5312" stroke="#00DCE6"/>
<path d="M84.9764 90.4883L81.1962 95.5285L77.416 90.4883" stroke="#00DCE6"/>
<path d="M103.576 64.501L118.161 71.6772" stroke="#00DCE6"/>
<path d="M111.969 72.8433L118.16 71.6766L115.307 66.0596" stroke="#00DCE6"/>
<path d="M59.1504 64.501L44.5654 71.6772" stroke="#00DCE6"/>
<path d="M50.7577 72.8433L44.5663 71.6766L47.4199 66.0596" stroke="#00DCE6"/>
<path d="M59.1504 41.5879L44.5654 34.4116" stroke="#00DCE6"/>
<path d="M50.7577 33.2456L44.5663 34.4122L47.4199 40.0293" stroke="#00DCE6"/>
<path d="M102.984 41.5869L117.569 34.4107" stroke="#00DCE6"/>
<path d="M111.377 33.2446L117.568 34.4113L114.715 40.0283" stroke="#00DCE6"/>
<path d="M52.9922 67.6265V38.1148L81.2028 19.3311L109.413 38.1148V67.6167L81.2028 86.6067L52.9922 67.6265Z" stroke="#00DCE6"/>
<path d="M94.2527 35.7451H68.1387V47.3513H94.2527V35.7451Z" stroke="#00DCE6"/>
<path d="M94.2527 47.3525V58.9588H68.1387V47.3525" stroke="#00DCE6"/>
<path d="M94.2527 58.958V70.5642H68.1387V58.958" stroke="#00DCE6"/>
<path d="M77.4149 41.5479H70.9238" stroke="#00DCE6"/>
<path d="M77.4149 53.1553H70.9238" stroke="#00DCE6"/>
<path d="M77.4149 64.7607H70.9238" stroke="#00DCE6"/>
</svg>
