<svg width="130" height="130" viewBox="0 0 130 130" fill="none" xmlns="http://www.w3.org/2000/svg">
<path fill-rule="evenodd" clip-rule="evenodd" d="M19.8612 0H130V110.139C116.2 122.49 97.9772 130 78 130C34.9218 130 0 95.0782 0 52C0 32.0228 7.51019 13.7997 19.8612 0Z" fill="#00DCE6" fill-opacity="0.1"/>
<path d="M113 46H56V51H113V46Z" stroke="#00DCE6"/>
<path d="M77 29V22H90.7705H92V29" stroke="#00DCE6"/>
<path d="M68 51H58V63H68V51Z" stroke="#00DCE6"/>
<path d="M82 51H73V63H82V51Z" stroke="#00DCE6"/>
<path d="M97 51H87V63H97V51Z" stroke="#00DCE6"/>
<path d="M111 51H101V63H111V51Z" stroke="#00DCE6"/>
<path d="M110.771 63H101.276H96.4013H86.9056H82.0944H72.5987H67.7242H58.2285H55V70H114V63H110.771Z" stroke="#00DCE6"/>
<path d="M84.7356 10H84.6094V16.7538H84.7356V10Z" stroke="#00DCE6"/>
<path d="M73.8563 84H49V70H120V84H95.0251" stroke="#00DCE6"/>
<path d="M61 46C61 42.1429 62.5798 38.5126 65.3445 35.563C69.5903 31.0252 76.6008 28 84.5 28C97.4349 28 108 36.0924 108 46" stroke="#00DCE6"/>
<path d="M78 22C78 20.9286 78.437 19.9202 79.2017 19.1008C80.376 17.8403 82.3151 17 84.5 17C88.0777 17 91 19.2479 91 22" stroke="#00DCE6"/>
<path d="M84.5 73C80.9706 73 77.8382 74.7647 75.9412 77.4118C74.7059 79.1324 74 81.25 74 83.5C74 84.2059 74.0882 84.9118 74.2206 85.5735C75.1912 90.3824 79.4265 94 84.5 94C90.3235 94 95 89.2794 95 83.5C95 77.7206 90.2794 73 84.5 73Z" stroke="#00DCE6"/>
<path d="M79 84.046L82.9692 88L91 80" stroke="#00DCE6"/>
</svg>
