<svg width="130" height="130" viewBox="0 0 130 130" fill="none" xmlns="http://www.w3.org/2000/svg">
<path fill-rule="evenodd" clip-rule="evenodd" d="M19.8612 0H130V110.139C116.2 122.49 97.9772 130 78 130C34.9218 130 0 95.0782 0 52C0 32.0228 7.51019 13.7997 19.8612 0Z" fill="#00DCE6" fill-opacity="0.1"/>
<path d="M51.6943 26.7309C53.4466 26.7309 54.8671 25.3103 54.8671 23.5581C54.8671 21.8058 53.4466 20.3853 51.6943 20.3853C49.942 20.3853 48.5215 21.8058 48.5215 23.5581C48.5215 25.3103 49.942 26.7309 51.6943 26.7309Z" stroke="#00DCE6"/>
<path d="M79.3427 91.5468C81.095 91.5468 82.5155 90.1263 82.5155 88.374C82.5155 86.6217 81.095 85.2012 79.3427 85.2012C77.5904 85.2012 76.1699 86.6217 76.1699 88.374C76.1699 90.1263 77.5904 91.5468 79.3427 91.5468Z" stroke="#00DCE6"/>
<path d="M64.4488 79.9435C65.0697 78.9327 65.5275 77.8449 65.8131 76.7254L68.9859 75.633C69.1491 74.3865 69.1581 73.131 69.0176 71.8936L65.8675 70.7514C65.5955 69.6183 65.1559 68.5305 64.5576 67.5016L66.0216 64.4874C65.6544 64.0069 65.2465 63.531 64.7933 63.0732C64.3491 62.629 63.8958 62.2075 63.4063 61.8268L60.3604 63.2409C59.3496 62.62 58.2663 62.1758 57.1423 61.8766L56.0499 58.7038C54.8125 58.5452 53.557 58.5361 52.3196 58.6766L51.1638 61.8313C50.0442 62.0987 48.9474 62.5339 47.9275 63.1367L44.9134 61.6727C44.4193 62.0443 43.9525 62.4568 43.4992 62.901C43.0459 63.3407 42.6335 63.7984 42.2527 64.288L43.6669 67.3339C43.0459 68.3446 42.5882 69.4324 42.3026 70.552L39.1298 71.6443C38.9712 72.8817 38.953 74.1327 39.1026 75.3747L42.2482 76.5259C42.5247 77.65 42.9508 78.7424 43.5536 79.7622L42.0896 82.7763C42.4612 83.2704 42.8692 83.7463 43.3179 84.1905C43.7576 84.6438 44.229 85.0608 44.7139 85.4415L47.7462 84.0319C48.757 84.6528 49.8493 85.1016 50.9644 85.3962L52.0612 88.5599C53.3032 88.7322 54.5587 88.7412 55.7961 88.6007L56.9519 85.446C58.076 85.1696 59.1593 84.739 60.1791 84.1361L63.2023 85.6047C63.6873 85.2285 64.1632 84.8205 64.6165 84.3763C65.0607 83.9322 65.4777 83.4608 65.8675 82.9803L64.4488 79.9435Z" stroke="#00DCE6"/>
<path d="M54.0553 81.8794C51.9249 81.8794 49.7901 81.059 48.181 79.4227C44.9992 76.1774 45.0445 70.9423 48.2762 67.7559C51.5261 64.5831 56.7521 64.6329 59.9385 67.8647C63.1204 71.1009 63.0751 76.327 59.8388 79.5134C58.2343 81.0907 56.1448 81.8794 54.0553 81.8794Z" stroke="#00DCE6"/>
<path d="M51.5579 60.3669C51.5579 60.3669 51.5216 60.2672 51.5035 60.2218C50.3703 57.0944 49.7539 53.7176 49.7539 50.2003C49.7539 42.4904 52.7182 35.4694 57.5635 30.2207" stroke="#00DCE6"/>
<path d="M100.714 70.3477C95.3382 76.0768 87.6962 79.6576 79.2203 79.6576C74.588 79.6576 70.2095 78.5879 66.3115 76.6842" stroke="#00DCE6"/>
<path d="M61.9336 26.3366C66.788 22.8148 72.7619 20.7344 79.2163 20.7344C95.4883 20.7344 108.678 33.9242 108.678 50.1961C108.678 55.3225 107.368 60.1406 105.066 64.3423" stroke="#00DCE6"/>
<path d="M109.924 72.9268C103.579 81.4888 93.734 87.2996 82.5068 88.2559" stroke="#00DCE6"/>
<path d="M54.0645 21.4504C60.7817 15.5671 69.584 12 79.2157 12C100.31 12 117.416 29.1014 117.416 50.2006C117.416 55.1955 116.455 59.9728 114.71 64.3467" stroke="#00DCE6"/>
<path d="M80.1295 32.1567C78.6745 34.2236 68.9522 38.4661 65.1357 38.4661C65.1357 45.3556 65.1357 47.5222 65.1357 53.4508C65.1357 60.4944 79.291 68.2043 80.1204 68.4264C80.9544 68.2043 95.1051 59.9596 95.1051 54.2395C95.1051 48.3108 95.1051 45.3511 95.1051 38.4661C90.9488 38.4661 81.589 34.2281 80.1295 32.1567Z" stroke="#00DCE6"/>
<path d="M73.9287 51.8148L78.2891 56.6103L88.8001 43.3706" stroke="#00DCE6"/>
</svg>
