<svg width="130" height="130" viewBox="0 0 130 130" fill="none" xmlns="http://www.w3.org/2000/svg">
<path fill-rule="evenodd" clip-rule="evenodd" d="M19.591 0H130V109.896C116.168 122.391 97.8376 130 77.7297 130C36.8539 130 3.32186 98.5577 0 58.5397V45.4603C1.44451 28.0585 8.60158 12.2783 19.591 0Z" fill="#00DCE6" fill-opacity="0.1"/>
<path d="M113 54.7121V45.2879H106.277C105.587 41.42 104.082 37.8437 101.918 34.7586L106.661 30.0158L99.9996 23.3544L95.2568 28.0972C92.1563 25.933 88.5801 24.4288 84.7275 23.7381V17H75.3033V23.7228C71.4354 24.4135 67.8591 25.9177 64.774 28.0819L60.0312 23.3391L53.3698 30.0005L58.1126 34.7433C55.9484 37.8437 54.4442 41.42 53.7535 45.2726H47V54.6968H53.7228C54.4135 58.5647 55.9177 62.141 58.0819 65.2261L53.3391 69.9689L60.0005 76.6303L64.7433 71.8875C67.8437 74.0517 71.42 75.5559 75.2726 76.2466V83.0001H84.6968V76.2773C88.5647 75.5866 92.141 74.0824 95.2261 71.9182L99.9689 76.661L106.63 69.9996L101.888 65.2568C104.052 62.1563 105.556 58.5801 106.247 54.7275H113V54.7121Z" stroke="#00DCE6"/>
<path d="M70.791 50.7677L76.9306 56.9072L89.2096 43.0933" stroke="#00DCE6"/>
<path d="M74.6434 31.0751C76.3625 30.5685 78.143 30.3076 80.0002 30.3076C90.9132 30.3076 99.6928 39.1332 99.6928 50.0002C99.6928 60.8672 90.8979 69.6928 80.0002 69.6928C69.1332 69.6928 60.3076 60.8672 60.3076 50.0002C60.3076 47.7439 60.7067 45.5797 61.3974 43.5383" stroke="#00DCE6"/>
<path d="M119.149 23.208V10.8506H106.792" stroke="#00DCE6"/>
<path d="M53.209 10.8506H40.8516V23.208" stroke="#00DCE6"/>
<path d="M106.792 89.1485H119.149V76.791" stroke="#00DCE6"/>
<path d="M40.8516 76.791V89.1485H53.209" stroke="#00DCE6"/>
</svg>
