<svg width="130" height="130" viewBox="0 0 130 130" fill="none" xmlns="http://www.w3.org/2000/svg">
<path fill-rule="evenodd" clip-rule="evenodd" d="M19.591 0H130V109.896C116.168 122.391 97.8376 130 77.7297 130C36.8539 130 3.32186 98.5577 0 58.5397V45.4603C1.44451 28.0585 8.60158 12.2783 19.591 0Z" fill="#00DCE6" fill-opacity="0.1"/>
<path d="M59.397 74.354H48.1445V85.5934" stroke="#00DCE6"/>
<path d="M115.804 34.0132C118.112 39.0886 119.331 44.5443 119.345 50.0001C119.371 60.0853 115.423 70.1837 107.699 77.9083C100.092 85.5148 90.0593 89.2394 80.0003 89.3443C69.0101 89.4493 60.9576 86.0919 53.7708 79.9804C52.4986 78.8919 48.1445 74.3542 48.1445 74.3542" stroke="#00DCE6"/>
<path d="M44.1964 65.9869C41.8882 60.9114 40.6685 55.4557 40.6554 50C40.6292 39.9147 44.5767 29.8164 52.3013 22.0918C59.9079 14.4852 69.9406 10.7606 79.9997 10.6557C90.9898 10.5508 99.0423 13.9082 106.229 20.0196C107.501 21.1082 111.855 25.6459 111.855 25.6459" stroke="#00DCE6"/>
<path d="M100.604 25.6461H111.856V14.4067" stroke="#00DCE6"/>
<path d="M88.6034 19.356C85.8947 18.6118 83.0519 18.21 80.105 18.21C62.498 18.21 48.21 32.4831 48.21 50.105C48.21 56.3561 50.0108 62.1903 53.1215 67.1167" stroke="#00DCE6"/>
<path d="M71.6064 80.8545C74.3152 81.5987 77.1579 82.0005 80.1049 82.0005C97.7119 82.0005 112 67.7274 112 50.1055C112 43.8544 110.199 38.0053 107.088 33.0938" stroke="#00DCE6"/>
<path d="M98.6649 48.1367C98.5011 47.6158 98.2481 47.1097 97.9505 46.6335L96.9681 45.16L100.942 44.1628C101.493 44.1628 101.939 43.7163 101.939 43.1656V41.1862C101.939 40.6355 101.493 40.189 100.942 40.189H95.971L93.9915 43.1656L91.0148 44.1628H79.1081H68.1986L65.2219 43.1656L63.2424 40.189H58.2862C57.7356 40.189 57.2891 40.6355 57.2891 41.1862V43.1656C57.2891 43.7163 57.7356 44.1628 58.2862 44.1628L62.2601 45.16L61.2778 46.6335C60.6229 47.6158 60.2806 48.7618 60.2806 49.9376V56.0695C60.2806 57.7067 61.6201 59.0462 63.2573 59.0462H79.1379H83.1117" stroke="#00DCE6"/>
<path d="M64.2246 42.1835C64.2246 42.1835 66.7399 36.7659 67.2013 36.2301C67.6627 35.6943 68.4961 35.2329 69.1808 35.2329C70.7286 35.2329 87.9041 35.2329 90.0175 35.2329C90.717 35.2329 91.5505 35.6794 91.997 36.2301C92.4584 36.7659 94.9737 42.1835 94.9737 42.1835" stroke="#00DCE6"/>
<path d="M63.2275 48.1362L63.7633 48.672C64.701 49.6097 65.9512 50.1306 67.2758 50.1306H70.1781" stroke="#00DCE6"/>
<path d="M61.248 58.0488V62.0227C61.248 62.5734 61.6945 63.0199 62.2452 63.0199H69.1958C69.7465 63.0199 70.193 62.5734 70.193 62.0227V59.046" stroke="#00DCE6"/>
<path d="M83.0667 54.0898H70.1777" stroke="#00DCE6"/>
<path d="M89.0206 57.0666C90.6646 57.0666 91.9973 55.7339 91.9973 54.09C91.9973 52.446 90.6646 51.1133 89.0206 51.1133C87.3766 51.1133 86.0439 52.446 86.0439 54.09C86.0439 55.7339 87.3766 57.0666 89.0206 57.0666Z" stroke="#00DCE6"/>
<path d="M97.9503 64.9993C96.3131 64.9993 94.9736 63.6597 94.9736 62.0226C94.9736 60.3854 96.3131 59.0459 97.9503 59.0459C99.5875 59.0459 100.927 60.3854 100.927 62.0226C100.927 63.6746 99.6024 64.9993 97.9503 64.9993Z" stroke="#00DCE6"/>
<path d="M88.0381 64.9995L98.9476 51.1133" stroke="#00DCE6"/>
</svg>
