<svg width="130" height="130" viewBox="0 0 130 130" fill="none" xmlns="http://www.w3.org/2000/svg">
<path fill-rule="evenodd" clip-rule="evenodd" d="M19.591 0H130V109.896C116.168 122.391 97.8376 130 77.7297 130C36.8539 130 3.32186 98.5577 0 58.5397V45.4603C1.44451 28.0585 8.60158 12.2783 19.591 0Z" fill="#00DCE6" fill-opacity="0.1"/>
<path d="M103.515 88.5758C101.839 86.6021 98.7513 86.7336 97.2721 88.8398L97.2697 88.8488C96.7713 89.559 95.6645 89.3775 95.416 88.5438L95.4094 88.5325C94.6862 86.0567 91.8102 84.9313 89.5969 86.2559C88.8499 86.7078 87.9078 86.091 88.023 85.2301L88.0278 85.2122C88.3749 82.6589 86.1992 80.4651 83.6386 80.7857C82.7731 80.8894 82.1677 79.9505 82.626 79.2104L82.6398 79.1949C83.9961 77.0079 82.9004 74.1255 80.4334 73.3781C79.5961 73.125 79.4286 72.0254 80.1492 71.5281L80.172 71.5151C82.3038 70.0632 82.4786 67.0034 80.525 65.3102C79.8686 64.7412 80.1563 63.6677 81.0182 63.5055L81.0475 63.5038C83.5878 63.0434 84.9909 60.3224 83.9023 57.9884L83.8957 57.9771C83.5293 57.1885 84.2332 56.3224 85.0825 56.5308L85.1094 56.538C87.6124 57.1512 90.0133 55.2344 89.9705 52.6629L89.9729 52.6539C89.955 51.7862 90.9554 51.2872 91.6507 51.8187L91.6662 51.8324C93.7097 53.4059 96.6812 52.6297 97.6884 50.2724L97.6932 50.2545C98.0329 49.4538 99.1523 49.4086 99.5643 50.171L99.5709 50.1823C100.794 52.4468 103.826 52.9525 105.719 51.2065L105.733 51.191C106.371 50.6046 107.409 51.0074 107.474 51.8782L107.472 51.8871C107.662 54.45 110.231 56.1452 112.669 55.3123L112.692 55.2992C113.517 55.0218 114.305 55.8178 114.01 56.6306L114.008 56.6395C113.131 59.0508 114.795 61.6445 117.36 61.8812L117.387 61.8884C118.252 61.9668 118.646 63.012 118.045 63.6372C116.259 65.4885 116.716 68.5258 118.97 69.7817L118.985 69.7955C119.748 70.2203 119.68 71.3337 118.87 71.6631C116.475 72.6226 115.652 75.5855 117.208 77.6514L117.223 77.6651C117.749 78.3621 117.232 79.3552 116.356 79.3216C113.77 79.2328 111.806 81.6023 112.393 84.1183L112.4 84.1297C112.596 84.9781 111.717 85.6725 110.934 85.29C108.608 84.1587 105.841 85.5364 105.348 88.0601L105.346 88.0691C105.162 88.9692 104.077 89.2442 103.515 88.5758Z" stroke="#00DCE6" stroke-miterlimit="10"/>
<path d="M99.324 82.5275C106.515 82.5275 112.345 76.7224 112.345 69.5614C112.345 62.4004 106.515 56.5952 99.324 56.5952C92.1326 56.5952 86.3027 62.4004 86.3027 69.5614C86.3027 76.7224 92.1326 82.5275 99.324 82.5275Z" stroke="#00DCE6" stroke-miterlimit="10"/>
<path d="M94.6729 69.5614L98.3932 73.2661L104.904 64.9307" stroke="#00DCE6" stroke-miterlimit="10"/>
<path d="M83 78.5H46V10H113.826V55.6993" stroke="#00DCE6" stroke-miterlimit="10"/>
<path d="M46 20.4346H113.826" stroke="#00DCE6" stroke-miterlimit="10"/>
<path d="M51.2178 15.2168H54.696" stroke="#00DCE6" stroke-miterlimit="10"/>
<path d="M56.4346 15.2168H59.9128" stroke="#00DCE6" stroke-miterlimit="10"/>
<path d="M72.0865 27.3916H52.9561V48.2612H72.0865V27.3916Z" stroke="#00DCE6" stroke-miterlimit="10"/>
<path d="M51.5332 57.0898H74.3893" stroke="#00DCE6" stroke-miterlimit="10"/>
<path d="M51.5332 64.3623H74.3893" stroke="#00DCE6" stroke-miterlimit="10"/>
<path d="M51.5332 70.5957H74.3893" stroke="#00DCE6" stroke-miterlimit="10"/>
<path d="M78.5449 29.1304H97.6754" stroke="#00DCE6" stroke-miterlimit="10"/>
<path d="M78.5449 34.2339H90.7188" stroke="#00DCE6" stroke-miterlimit="10"/>
<path d="M78.5449 39.4282H90.7188" stroke="#00DCE6" stroke-miterlimit="10"/>
<path d="M78.5449 44.623H90.7188" stroke="#00DCE6" stroke-miterlimit="10"/>
</svg>
