<svg width="130" height="130" viewBox="0 0 130 130" fill="none" xmlns="http://www.w3.org/2000/svg">
<path fill-rule="evenodd" clip-rule="evenodd" d="M19.591 0H130V109.896C116.168 122.391 97.8376 130 77.7297 130C36.8539 130 3.32186 98.5577 0 58.5397V45.4603C1.44451 28.0585 8.60158 12.2783 19.591 0Z" fill="#00DCE6" fill-opacity="0.1"/>
<path d="M40.2881 38.65V21.3608L54.6766 10.3564L69.0651 21.3608V38.6442L54.6766 49.7694L40.2881 38.65Z" stroke="#00DCE6"/>
<path d="M54.6758 32.1934V49.9257" stroke="#00DCE6"/>
<path d="M40.3623 21.4072L54.676 32.1928L68.9896 21.4072" stroke="#00DCE6"/>
<path d="M90.9355 38.65V21.3608L105.324 10.3564L119.713 21.3608V38.6442L105.324 49.7694L90.9355 38.65Z" stroke="#00DCE6"/>
<path d="M105.324 32.1934V49.9257" stroke="#00DCE6"/>
<path d="M91.0098 21.4072L105.323 32.1928L119.637 21.4072" stroke="#00DCE6"/>
<path d="M65.6113 78.363V61.0738L79.9998 50.0752L94.3883 61.0738V78.3572L79.9998 89.4824L65.6113 78.363Z" stroke="#00DCE6"/>
<path d="M80 71.9053V89.6376" stroke="#00DCE6"/>
<path d="M65.6865 61.1191L80.0002 71.9048L94.3139 61.1191" stroke="#00DCE6"/>
<path d="M46.6184 43.5938L40.5752 48.4858L65.3234 67.7664L65.6112 68.0024" stroke="#00DCE6"/>
<path d="M113.238 43.6523L119.425 48.4869L94.3887 68.4581" stroke="#00DCE6"/>
<path d="M69.0645 27.4788L79.4242 19.709L90.935 28.3421" stroke="#00DCE6"/>
</svg>
