<svg width="130" height="130" viewBox="0 0 130 130" fill="none" xmlns="http://www.w3.org/2000/svg">
<path fill-rule="evenodd" clip-rule="evenodd" d="M19.591 0H130V109.896C116.168 122.391 97.8376 130 77.7297 130C36.8539 130 3.32186 98.5577 0 58.5397V45.4603C1.44451 28.0585 8.60158 12.2783 19.591 0Z" fill="#00DCE6" fill-opacity="0.1"/>
<path d="M84.0555 19.1826C81.3903 18.4481 78.5944 18.0547 75.6941 18.0547C61.8846 18.0547 50.1524 27.0252 45.9717 39.4711" stroke="#00DCE6"/>
<path d="M67.333 79.8645C69.9982 80.5989 72.7941 80.9924 75.6945 80.9924C87.7271 80.9924 98.179 74.1858 103.444 64.1924" stroke="#00DCE6"/>
<path d="M54.9993 73.7012H43.8027V84.9405" stroke="#00DCE6"/>
<path d="M114.549 53.124C113.699 61.924 109.858 70.5011 103.13 77.2552C95.5523 84.8617 85.5578 88.5863 75.5371 88.6912C64.5888 88.7961 56.567 85.4388 49.4075 79.3273C48.1402 78.2388 43.8027 73.7011 43.8027 73.7011" stroke="#00DCE6"/>
<path d="M36.6562 44.2975C37.7406 35.9434 41.5294 27.8647 47.9312 21.4385C55.5087 13.8319 65.5033 10.1073 75.524 10.0024C86.4723 9.89747 94.4941 13.2548 101.654 19.3663C102.921 20.4548 107.258 24.9926 107.258 24.9926" stroke="#00DCE6"/>
<path d="M96.0625 24.9923H107.259V13.7529" stroke="#00DCE6"/>
<path d="M75.5245 61.0195H57.5604C55.8097 61.0195 54.3857 59.59 54.3857 57.8326V50.2129C54.3857 48.9539 54.7515 47.7211 55.457 46.6851L56.5022 45.1113L52.2692 44.049C51.6813 44.049 51.2109 43.5769 51.2109 42.9867V40.8621C51.2109 40.2719 51.6813 39.7998 52.2692 39.7998H57.5604L59.6769 42.9867L62.8517 44.049H75.5376" stroke="#00DCE6"/>
<path d="M57.5605 49.3467L59.677 51.4713H64.9552" stroke="#00DCE6"/>
<path d="M55.4443 59.957V64.2062C55.4443 64.7964 55.9147 65.2685 56.5026 65.2685H63.8972C64.4852 65.2685 64.9555 64.7964 64.9555 64.2062V63.1439" stroke="#00DCE6"/>
<path d="M75.5248 61.0195H93.4889C95.2395 61.0195 96.6636 59.59 96.6636 57.8326V50.2129C96.6636 48.9539 96.2978 47.7211 95.5923 46.6851L94.5471 45.1113L98.7801 44.049C99.368 44.049 99.8383 43.5769 99.8383 42.9867V40.8621C99.8383 40.2719 99.368 39.7998 98.7801 39.7998H93.4889L91.3724 42.9867L88.1976 44.049H75.5117" stroke="#00DCE6"/>
<path d="M75.5244 33.4258C75.5244 33.4258 66.4705 33.4258 64.955 33.4258C63.544 33.4258 62.3551 34.4225 61.7802 35.5504C61.4405 36.2192 58.6055 41.911 58.6055 41.911" stroke="#00DCE6"/>
<path d="M75.5244 33.4258C75.5244 33.4258 84.5783 33.4258 86.0938 33.4258C87.5048 33.4258 88.6937 34.4225 89.2686 35.5504C89.6083 36.2192 92.4433 41.911 92.4433 41.911" stroke="#00DCE6"/>
<path d="M93.5021 49.3467L91.3856 51.4713H86.1074" stroke="#00DCE6"/>
<path d="M95.6186 59.957V64.2062C95.6186 64.7964 95.1482 65.2685 94.5603 65.2685H87.1657C86.5778 65.2685 86.1074 64.7964 86.1074 64.2062V63.1439" stroke="#00DCE6"/>
<path d="M64.9551 56.7705H86.107" stroke="#00DCE6"/>
<path d="M108.129 48.8154C107.535 48.8154 107.05 48.3279 107.05 47.7321V45.5654C107.05 44.3304 110.611 42.3154 113.525 42.3154C116.439 42.3154 120 44.3304 120 45.5654V47.7321C120 48.3279 119.515 48.8154 118.921 48.8154H108.129Z" stroke="#00DCE6"/>
<path d="M113.525 42.3148C116.115 42.3148 117.842 40.2348 117.842 37.6673V36.1289C117.842 33.5614 116.126 31.4814 113.525 31.4814C110.935 31.4814 109.208 33.5614 109.208 36.1289V37.6781C109.208 40.2348 110.924 42.3148 113.525 42.3148Z" stroke="#00DCE6"/>
<path d="M31.0792 65.3467C30.4856 65.3467 30 64.8967 30 64.3467V62.3467C30 61.2067 33.5614 59.3467 36.4752 59.3467C39.3891 59.3467 42.9505 61.2067 42.9505 62.3467V64.3467C42.9505 64.8967 42.4648 65.3467 41.8713 65.3467H31.0792Z" stroke="#00DCE6"/>
<path d="M36.475 59.3467C39.1648 59.3467 40.9579 57.2347 40.9579 54.6277V53.0657C40.9579 50.4587 39.176 48.3467 36.475 48.3467C33.7853 48.3467 31.9922 50.4587 31.9922 53.0657V54.6387C31.9922 57.2347 33.7741 59.3467 36.475 59.3467Z" stroke="#00DCE6"/>
</svg>
