<svg width="130" height="130" viewBox="0 0 130 130" fill="none" xmlns="http://www.w3.org/2000/svg">
<path fill-rule="evenodd" clip-rule="evenodd" d="M19.591 0H130V109.896C116.168 122.391 97.8376 130 77.7297 130C36.8539 130 3.32186 98.5577 0 58.5397V45.4603C1.44451 28.0585 8.60158 12.2783 19.591 0Z" fill="#00DCE6" fill-opacity="0.1"/>
<path d="M120 38.2828C116.884 23.8155 101.505 12.8281 83 12.8281C64.4948 12.8281 49.1155 23.8155 46 38.2828C54.4646 34.6308 62.1099 34.8916 68.9097 39.2167C78.2719 34.2186 87.4932 34.1821 96.5684 39.2167C103.003 35.1264 110.45 34.3908 120 38.2828Z" stroke="#00DCE6"/>
<path d="M82.9994 10V12.8277C75.9491 19.1927 71.9255 28.6828 68.9092 39.2163" stroke="#00DCE6"/>
<path d="M83 12.8281C90.3374 19.5844 94.3661 28.7406 96.5684 39.2167" stroke="#00DCE6"/>
<path d="M83 35.5146L83 43.7156" stroke="#00DCE6"/>
<path d="M83.0581 84.1268H59.4057C57.1001 84.1268 55.2302 82.2573 55.2302 79.9524V69.962C55.2302 68.3137 55.7195 66.7056 56.631 65.332L58.0117 63.2616L52.4488 61.8679C51.678 61.8679 51.0547 61.2447 51.0547 60.4742V57.6935C51.0547 56.9229 51.678 56.2998 52.4488 56.2998H59.4057L62.1872 60.4742L66.3627 61.8679H83.0581" stroke="#00DCE6"/>
<path d="M59.4062 68.8232L62.1877 71.6106H69.1447" stroke="#00DCE6"/>
<path d="M56.624 82.7344V88.2957C56.624 89.0663 57.2473 89.6894 58.0181 89.6894H67.7565C68.5273 89.6894 69.1506 89.0663 69.1506 88.2957V86.902" stroke="#00DCE6"/>
<path d="M83.0576 84.1268H106.71C109.016 84.1268 110.885 82.2573 110.885 79.9524V69.962C110.885 68.3137 110.396 66.7056 109.485 65.332L108.104 63.2616L113.667 61.8679C114.438 61.8679 115.061 61.2447 115.061 60.4742V57.6935C115.061 56.9229 114.438 56.2998 113.667 56.2998H106.71L103.929 60.4742L99.753 61.8679H83.0576" stroke="#00DCE6"/>
<path d="M83.0579 47.9648C83.0579 47.9648 71.148 47.9648 69.144 47.9648C67.2875 47.9648 65.7258 49.2714 64.9685 50.7455C64.5194 51.63 60.793 59.0876 60.793 59.0876" stroke="#00DCE6"/>
<path d="M83.0576 47.9648C83.0576 47.9648 94.9676 47.9648 96.9716 47.9648C98.8281 47.9648 100.39 49.2714 101.147 50.7455C101.596 51.63 105.323 59.0876 105.323 59.0876" stroke="#00DCE6"/>
<path d="M106.71 68.8232L103.922 71.6106H96.9717" stroke="#00DCE6"/>
<path d="M109.491 82.7344V88.2957C109.491 89.0663 108.868 89.6894 108.097 89.6894H98.3589C97.5882 89.6894 96.9648 89.0663 96.9648 88.2957V86.902" stroke="#00DCE6"/>
<path d="M69.1445 78.5586H96.9724" stroke="#00DCE6"/>
</svg>
