<svg width="130" height="130" viewBox="0 0 130 130" fill="none" xmlns="http://www.w3.org/2000/svg">
<path fill-rule="evenodd" clip-rule="evenodd" d="M19.591 0H130V109.896C116.168 122.391 97.8376 130 77.7297 130C36.8539 130 3.32186 98.5577 0 58.5397V45.4603C1.44451 28.0585 8.60158 12.2783 19.591 0Z" fill="#00DCE6" fill-opacity="0.1"/>
<path d="M93.334 16.667H106.667V11.667L118.334 23.3337L106.667 35.0003V30.0003H101.667" stroke="#00DCE6" stroke-miterlimit="10"/>
<path d="M90 16.667H80" stroke="#00DCE6" stroke-miterlimit="10"/>
<path d="M85.0003 23.334H56.667" stroke="#00DCE6" stroke-miterlimit="10"/>
<path d="M66.667 84.3333H53.3337V89.3333L41.667 77.6667L53.3337 66V71H60.0003" stroke="#00DCE6" stroke-miterlimit="10"/>
<path d="M70 84.334H80" stroke="#00DCE6" stroke-miterlimit="10"/>
<path d="M75 77.667H103.333" stroke="#00DCE6" stroke-miterlimit="10"/>
<path d="M97.0295 27.9795H65.9707V73.0212H97.0295V27.9795Z" stroke="#00DCE6" stroke-miterlimit="10"/>
<path d="M97.0295 41.6875H65.9707" stroke="#00DCE6" stroke-miterlimit="10" stroke-linejoin="round"/>
<path d="M81.5 41.6875V73.0208" stroke="#00DCE6" stroke-miterlimit="10" stroke-linejoin="round"/>
<path d="M97.0295 57.3545H65.9707" stroke="#00DCE6" stroke-miterlimit="10" stroke-linejoin="round"/>
<path d="M69.8535 49.5215H77.6182" stroke="#00DCE6" stroke-miterlimit="10" stroke-linejoin="round"/>
<path d="M85.3828 63.2295H93.1475" stroke="#00DCE6" stroke-miterlimit="10" stroke-linejoin="round"/>
<path d="M85.3828 67.1465H93.1475" stroke="#00DCE6" stroke-miterlimit="10" stroke-linejoin="round"/>
<path d="M86.5176 52.2921L92.0111 46.75" stroke="#00DCE6" stroke-miterlimit="10" stroke-linejoin="round"/>
<path d="M86.5176 46.584L92.0111 52.1261" stroke="#00DCE6" stroke-miterlimit="10" stroke-linejoin="round"/>
<path d="M69.8535 65.1875H77.6182" stroke="#00DCE6" stroke-miterlimit="10" stroke-linejoin="round"/>
<path d="M73.7354 61.2715V69.1048" stroke="#00DCE6" stroke-miterlimit="10" stroke-linejoin="round"/>
<path d="M72.7646 46.584H74.7058" stroke="#00DCE6" stroke-miterlimit="10" stroke-linejoin="round"/>
<path d="M72.7646 52.459H74.7058" stroke="#00DCE6" stroke-miterlimit="10" stroke-linejoin="round"/>
<path d="M77.6174 30.917H70.8232L74.0659 34.1299L70.8232 37.7712H77.6174" stroke="#00DCE6"/>
</svg>
