<svg width="200" height="200" viewBox="0 0 200 200" fill="none" xmlns="http://www.w3.org/2000/svg">
<path fill-rule="evenodd" clip-rule="evenodd" d="M30.5557 0H200V169.444C178.77 188.446 150.734 200 120 200C53.7258 200 0 146.274 0 80C0 49.2658 11.5541 21.2303 30.5557 0Z" fill="#00DCE6" fill-opacity="0.1"/>
<path d="M98.8618 120.927L102.619 124.633L109.443 117.904L105.685 114.198C106.773 112.443 108.157 109.322 108.651 107.372H113.991V97.9127H108.651C108.157 95.9623 106.773 92.7441 105.685 91.0863L109.443 87.3806L102.619 80.6518L98.8618 84.26C97.0819 83.1873 93.9176 81.822 91.9399 81.3344V76.0684H82.348V81.3344C80.3703 81.822 76.8105 83.1873 75.1294 84.26L71.3718 80.5542L64.5487 87.2831L68.3063 90.9888C67.2186 92.7442 65.8342 95.8648 65.3398 97.8152H60V107.275H65.3398C65.8342 109.225 67.2186 112.346 68.3063 114.101L64.5487 117.807L71.3718 124.535L75.1294 120.83C76.9093 121.902 80.0737 123.268 82.0514 123.755V129.021H91.6432V123.755C93.6209 123.268 97.1808 122 98.8618 120.927Z" stroke="#00DCE6" stroke-width="4"/>
<circle cx="86.9959" cy="102.025" r="13.4978" stroke="#00DCE6" stroke-width="4"/>
<path d="M99.8477 49.4395H140.921" stroke="#00DCE6" stroke-width="2"/>
<path d="M99.8477 57.646H140.921" stroke="#00DCE6" stroke-width="2"/>
<path d="M99.8477 65.853H130.653" stroke="#00DCE6" stroke-width="2"/>
<path d="M133.439 100.018H145.761" stroke="#00DCE6" stroke-width="4"/>
<path d="M135.348 88.1083C135.348 88.1083 135.554 81.7479 139.456 77.8496C143.357 73.9513 172.314 45.0217 172.314 45.0217C174.163 43.1752 177.243 42.7648 178.886 44.4062C180.529 46.0476 180.324 49.3304 178.475 51.1769C178.475 51.1769 149.518 80.1065 145.617 84.0048C141.92 87.9031 135.348 88.1083 135.348 88.1083Z" stroke="#00DCE6" stroke-width="4"/>
<path d="M172.109 55.692L167.591 51.1782" stroke="#00DCE6" stroke-width="4"/>
<path d="M127.277 100.018H131.385" stroke="#00DCE6" stroke-width="4"/>
<path d="M157.86 37.3174H140.543V20" stroke="#00DCE6" stroke-width="2"/>
<path d="M86.8594 75.8487V20H141.409L157.861 37.7504V59.8301M106.341 114.38H157.861V72.3853" stroke="#00DCE6" stroke-width="2"/>
<line x1="114" y1="123" x2="158" y2="123" stroke="#00DCE6" stroke-width="2" stroke-dasharray="2 2"/>
</svg>
