<svg width="200" height="200" viewBox="0 0 200 200" fill="none" xmlns="http://www.w3.org/2000/svg">
<path fill-rule="evenodd" clip-rule="evenodd" d="M30.5557 0H200V169.444C178.77 188.446 150.734 200 120 200C53.7258 200 0 146.274 0 80C0 49.2658 11.5541 21.2303 30.5557 0Z" fill="#00DCE6" fill-opacity="0.1"/>
<path d="M106.977 44.636V29.5818L119.708 20L132.44 29.5818V44.631L119.708 54.3181L106.977 44.636Z" stroke="#00DCE6" stroke-width="4"/>
<path d="M119.709 39.1377V54.268" stroke="#00DCE6" stroke-width="4"/>
<path d="M106.977 29.6768L119.708 39.3562L132.44 29.6768" stroke="#00DCE6" stroke-width="4"/>
<path d="M60.8594 83.5488V86.2065C69.5916 97.2167 86.2968 97.2167 95.029 86.2065V83.5488H60.8594Z" stroke="#00DCE6" stroke-width="2"/>
<path d="M144.387 83.5488V86.2065C153.119 97.2167 169.824 97.2167 178.556 86.2065V83.5488H144.387Z" stroke="#00DCE6" stroke-width="2"/>
<path d="M95.0284 78.6123V74.8157L81.7402 34.951V33.0527" stroke="#00DCE6" stroke-width="2" stroke-dasharray="2 2"/>
<path d="M144.385 78.6142V74.8176L157.673 35.1428V33.0547" stroke="#00DCE6" stroke-width="2" stroke-dasharray="2 2"/>
<path d="M76.0459 29.2578L60.8594 74.8174V78.614" stroke="#00DCE6" stroke-width="2" stroke-dasharray="2 2"/>
<path d="M163.369 29.2578L178.556 74.8174V78.614" stroke="#00DCE6" stroke-width="2" stroke-dasharray="2 2"/>
<path d="M112.115 78.6123V48.2402" stroke="#00DCE6" stroke-width="2"/>
<path d="M127.301 78.6123V48.2402" stroke="#00DCE6" stroke-width="2"/>
<path d="M119.709 78.6123V48.2402" stroke="#00DCE6" stroke-width="2"/>
<path d="M131.357 29.2578H143.326H172.86" stroke="#00DCE6" stroke-width="4"/>
<path d="M106.81 29.2578C94.7959 29.2578 78.7463 29.2578 66.7325 29.2578" stroke="#00DCE6" stroke-width="4"/>
<path d="M129.525 120.66L132.634 123.726L138.278 118.159L135.17 115.093C136.07 113.641 137.215 111.06 137.624 109.446H142.041V101.62H137.624C137.215 100.007 136.07 97.3446 135.17 95.973L138.278 92.9073L132.634 87.3406L129.525 90.3257C128.053 89.4382 125.435 88.3088 123.799 87.9054V83.5488H115.863V87.9054C114.227 88.3088 111.282 89.4382 109.891 90.3257L106.783 87.26L101.138 92.8267L104.247 95.8924C103.347 97.3446 102.202 99.9262 101.793 101.54H97.375V109.365H101.793C102.202 110.979 103.347 113.561 104.247 115.013L101.138 118.078L106.783 123.645L109.891 120.579C111.364 121.467 113.982 122.596 115.618 123V127.356H123.553V123C125.189 122.596 128.134 121.548 129.525 120.66Z" stroke="#00DCE6" stroke-width="4"/>
<circle cx="119.708" cy="105.024" r="11.1666" stroke="#00DCE6" stroke-width="4"/>
</svg>
