<svg width="200" height="200" viewBox="0 0 200 200" fill="none" xmlns="http://www.w3.org/2000/svg">
<path fill-rule="evenodd" clip-rule="evenodd" d="M30.5557 0H200V169.444C178.77 188.446 150.734 200 120 200C53.7258 200 0 146.274 0 80C0 49.2658 11.5541 21.2303 30.5557 0Z" fill="#00DCE6" fill-opacity="0.1"/>
<path d="M78.8027 20V34.9355" stroke="#00DCE6" stroke-width="2"/>
<path d="M63.75 38.8301V53.7656" stroke="#00DCE6" stroke-width="2"/>
<path d="M63.75 38.8301V53.7656" stroke="#00DCE6" stroke-width="2"/>
<path d="M63.75 76.2656V91.2012" stroke="#00DCE6" stroke-width="2"/>
<path d="M78.75 95.0156V109.951" stroke="#00DCE6" stroke-width="2"/>
<path d="M78.75 57.5156V72.4512" stroke="#00DCE6" stroke-width="2"/>
<path d="M180 57.5156V72.4512" stroke="#00DCE6" stroke-width="2"/>
<path d="M165 38.8301V53.7656" stroke="#00DCE6" stroke-width="2"/>
<path d="M165 76.3301V91.2656" stroke="#00DCE6" stroke-width="2"/>
<path d="M150 95.0801V110.016" stroke="#00DCE6" stroke-width="2"/>
<path d="M172.5 95.0801V110.016" stroke="#00DCE6" stroke-width="2"/>
<path d="M157.5 81.5771L157.5 91.2012" stroke="#00DCE6" stroke-width="2"/>
<path d="M86.25 81.5762L86.25 91.2002" stroke="#00DCE6" stroke-width="2"/>
<path d="M180 95.0801V110.016" stroke="#00DCE6" stroke-width="2"/>
<path d="M86.25 20V34.9355" stroke="#00DCE6" stroke-width="2"/>
<path d="M180 20V34.9355" stroke="#00DCE6" stroke-width="2"/>
<path d="M93.75 20V27.0586" stroke="#00DCE6" stroke-width="2"/>
<path d="M155.625 20V32.3056" stroke="#00DCE6" stroke-width="2"/>
<path d="M101.062 20L101.062 22.4199" stroke="#00DCE6" stroke-width="2"/>
<path d="M147.188 20L147.187 22.4199" stroke="#00DCE6" stroke-width="2"/>
<path d="M102.879 34.303C102.83 34.3445 102.782 34.3841 102.735 34.4227C102.604 34.5308 102.481 34.6312 102.378 34.7435L102.747 35.0814C102.696 35.1367 102.661 35.1872 102.635 35.2392L102.591 35.3267L102.518 35.3912C102.256 35.621 101.998 35.8556 101.744 36.0948L101.401 35.7309C100.887 36.216 100.388 36.7198 99.9059 37.2413L100.273 37.5806C99.801 38.0916 99.3455 38.6199 98.908 39.1644L98.5182 38.8512C98.0753 39.4025 97.6504 39.9701 97.2449 40.553L97.6554 40.8385C97.2582 41.4095 96.8799 41.9954 96.5218 42.5953L96.0925 42.3389C95.7301 42.9459 95.3879 43.5669 95.0673 44.2009L95.5135 44.4266C95.1999 45.0467 94.9072 45.6794 94.6367 46.3237L94.1757 46.1301C93.9022 46.7813 93.651 47.4442 93.4232 48.1179L93.8968 48.2781C93.6745 48.9354 93.4749 49.6032 93.299 50.2804L92.815 50.1547C92.6378 50.8372 92.4843 51.5291 92.3557 52.2295L92.8475 52.3198C92.7224 53.001 92.6213 53.6903 92.5452 54.387L92.0481 54.3327C91.9717 55.0323 91.92 55.7391 91.8942 56.4524L92.3939 56.4705C92.3813 56.8174 92.375 57.1658 92.375 57.5156C92.375 57.8391 92.3803 58.1613 92.3907 58.4823L91.891 58.4986C91.9125 59.1562 91.9553 59.8087 92.019 60.4553L92.5166 60.4063C92.5799 61.0502 92.6642 61.6881 92.7687 62.3194L92.2754 62.4011C92.3828 63.0496 92.5112 63.6914 92.6598 64.3255L93.1466 64.2114C93.2939 64.8398 93.4614 65.4607 93.6485 66.0733L93.1703 66.2193C93.362 66.8471 93.5738 67.4662 93.805 68.076L94.2725 67.8988C94.5012 68.5018 94.7491 69.0956 95.0155 69.6794L94.5607 69.887C94.8328 70.4832 95.1239 71.0692 95.4333 71.644L95.8736 71.4071C96.1789 71.9745 96.5023 72.5309 96.8429 73.0756L96.419 73.3407C96.7662 73.896 97.1311 74.4392 97.5129 74.9696L97.9187 74.6776C98.2948 75.2001 98.6875 75.71 99.096 76.2064L98.7099 76.5241C99.1257 77.0295 99.5577 77.5211 100.005 77.9982L100.37 77.6563C100.81 78.1257 101.265 78.5808 101.734 79.0209L101.392 79.3856C101.87 79.8329 102.361 80.2649 102.866 80.6807L103.184 80.2946C103.681 80.7032 104.191 81.0958 104.713 81.4719L104.421 81.8777C104.951 82.2595 105.495 82.6244 106.05 82.9717L106.315 82.5477C106.86 82.8884 107.416 83.2117 107.984 83.5171L107.747 83.9574C108.321 84.2667 108.907 84.5578 109.504 84.83L109.711 84.3751C110.295 84.6415 110.889 84.8895 111.492 85.1181L111.315 85.5856C111.924 85.8168 112.544 86.0286 113.171 86.2203L113.317 85.7421C113.93 85.9292 114.551 86.0967 115.179 86.244L115.065 86.7308C115.699 86.8795 116.341 87.0078 116.99 87.1152L117.071 86.6219C117.703 86.7264 118.34 86.8107 118.984 86.8741L118.935 87.3717C119.582 87.4353 120.234 87.4782 120.892 87.4996L120.908 86.9999C121.229 87.0103 121.552 87.0156 121.875 87.0156C122.198 87.0156 122.521 87.0103 122.842 86.9999L122.858 87.4996C123.516 87.4782 124.168 87.4353 124.815 87.3717L124.766 86.8741C125.41 86.8107 126.047 86.7264 126.679 86.6219L126.76 87.1152C127.409 87.0078 128.051 86.8795 128.685 86.7308L128.571 86.244C129.199 86.0967 129.82 85.9292 130.433 85.7421L130.579 86.2203C131.206 86.0286 131.826 85.8168 132.435 85.5856L132.258 85.1181C132.861 84.8895 133.455 84.6415 134.039 84.3751L134.246 84.8299C134.843 84.5578 135.429 84.2667 136.003 83.9574L135.766 83.5171C136.334 83.2117 136.89 82.8884 137.435 82.5477L137.7 82.9716C138.255 82.6244 138.799 82.2595 139.329 81.8777L139.037 81.4719C139.559 81.0958 140.069 80.7032 140.566 80.2946L140.884 80.6807C141.389 80.2649 141.88 79.8329 142.358 79.3856L142.016 79.0209C142.485 78.5808 142.94 78.1257 143.38 77.6563L143.745 77.9982C144.192 77.5211 144.624 77.0295 145.04 76.5241L144.654 76.2064C145.063 75.71 145.455 75.2001 145.831 74.6776L146.237 74.9696C146.619 74.4392 146.984 73.896 147.331 73.3407L146.907 73.0756C147.248 72.5309 147.571 71.9745 147.876 71.4071L148.317 71.644C148.626 71.0692 148.917 70.4832 149.189 69.887L148.734 69.6794C149.001 69.0956 149.249 68.5018 149.477 67.8988L149.945 68.076C150.176 67.4662 150.388 66.8471 150.58 66.2193L150.101 66.0733C150.289 65.4607 150.456 64.8398 150.603 64.2114L151.09 64.3255C151.239 63.6913 151.367 63.0496 151.475 62.4011L150.981 62.3194C151.086 61.6881 151.17 61.0502 151.233 60.4063L151.731 60.4553C151.795 59.8087 151.838 59.1562 151.859 58.4986L151.359 58.4823C151.37 58.1613 151.375 57.8391 151.375 57.5156C151.375 57.1922 151.37 56.8699 151.359 56.5489L151.859 56.5326C151.838 55.875 151.795 55.2226 151.731 54.576L151.233 54.6249C151.17 53.9811 151.086 53.3431 150.981 52.7118L151.475 52.6302C151.367 51.9816 151.239 51.3399 151.09 50.7058L150.603 50.8199C150.456 50.1914 150.289 49.5705 150.101 48.9579L150.58 48.8119C150.388 48.1842 150.176 47.565 149.945 46.9552L149.477 47.1325C149.249 46.5294 149.001 45.9356 148.734 45.3519L149.189 45.1442C148.917 44.548 148.626 43.9621 148.317 43.3872L147.876 43.6242C147.571 43.0568 147.248 42.5004 146.907 41.9557L147.331 41.6906C146.984 41.1353 146.619 40.592 146.237 40.0616L145.831 40.3537C145.455 39.8312 145.063 39.3213 144.654 38.8248L145.04 38.5071C144.624 38.0018 144.192 37.5101 143.745 37.033L143.38 37.375C142.94 36.9056 142.485 36.4504 142.016 36.0104L142.358 35.6456C141.88 35.1983 141.389 34.7664 140.884 34.3505L140.566 34.7366C140.069 34.3281 139.559 33.9354 139.037 33.5593L139.329 33.1535C138.799 32.7718 138.255 32.4069 137.7 32.0596L137.435 32.4835C136.89 32.1429 136.334 31.8195 135.766 31.5142L136.003 31.0739C135.429 30.7646 134.843 30.4734 134.246 30.2013L134.039 30.6562C133.455 30.3897 132.861 30.1418 132.258 29.9132L132.435 29.4456C131.826 29.2144 131.206 29.0026 130.579 28.8109L130.433 29.2891C129.82 29.1021 129.199 28.9345 128.571 28.7872L128.685 28.3004C128.051 28.1518 127.409 28.0234 126.76 27.9161L126.679 28.4093C126.047 28.3048 125.41 28.2205 124.766 28.1572L124.815 27.6596C124.168 27.596 123.516 27.5531 122.858 27.5316L122.842 28.0314C122.521 28.0209 122.198 28.0156 121.875 28.0156C121.541 28.0156 121.209 28.0211 120.878 28.0318L120.862 27.5321C120.182 27.5542 119.508 27.5986 118.841 27.6644L118.89 28.162C118.225 28.2276 117.566 28.315 116.915 28.4234L116.833 27.9301C116.163 28.0416 115.501 28.175 114.847 28.3296L114.963 28.8161C114.313 28.9697 113.672 29.1445 113.041 29.3399L112.893 28.8622C112.245 29.0627 111.607 29.2845 110.98 29.5268L111.16 29.9932C110.539 30.2333 109.928 30.4939 109.329 30.7741L109.117 30.3212C108.503 30.6083 107.902 30.9158 107.313 31.2427L107.556 31.6798C106.975 32.003 106.406 32.3456 105.851 32.7068L105.578 32.2878C105.011 32.6572 104.459 33.0457 103.921 33.4525L104.223 33.8511C103.965 34.0466 103.711 34.2464 103.46 34.4503C103.371 34.5382 103.283 34.6154 103.202 34.6842L102.879 34.303Z" stroke="#00DCE6" stroke-dasharray="2 2"/>
<path d="M103.124 58.4512L103.157 58.321C106.257 50.7119 113.55 45.8262 121.688 45.8262C129.825 45.8262 137.118 50.7119 140.218 58.321L140.251 58.4512L140.218 58.5815C137.116 66.1996 130.001 71.0762 121.688 71.0762C113.55 71.0762 106.257 66.1905 103.157 58.5814L103.124 58.4512Z" stroke="#00DCE6" stroke-width="4"/>
<path d="M127.375 58.4531C127.375 61.4736 124.895 63.9531 121.875 63.9531C118.855 63.9531 116.375 61.4736 116.375 58.4531C116.375 55.4327 118.855 52.9531 121.875 52.9531C124.895 52.9531 127.375 55.4327 127.375 58.4531Z" stroke="#00DCE6" stroke-width="4"/>
<path d="M113.049 91.7801L113.023 91.7724L112.996 91.7655C97.7228 87.8585 86.375 74.0058 86.375 57.7031C86.375 49.7104 89.0397 42.2578 93.4692 36.4108L93.4692 36.4109L93.475 36.4031C94.5399 34.9832 95.7896 33.5544 97.0392 32.3048C98.0843 31.2598 99.3033 30.2146 100.512 29.3488C100.807 29.1516 101.103 28.9509 101.399 28.7499C102.296 28.1402 103.197 27.5279 104.117 27.0021L104.127 26.9966L104.136 26.991C109.273 23.98 115.487 22.2031 121.875 22.2031C129.868 22.2031 137.32 24.8678 143.167 29.2973L143.19 29.3143L143.213 29.3306C144.43 30.1999 145.658 31.2525 146.711 32.3048C153.301 38.8951 157.375 47.7717 157.375 57.7031C157.375 74.1993 146.021 88.0475 130.754 91.953L130.727 91.9599L130.701 91.9676C129.52 92.305 128.501 92.4774 127.217 92.6607L125.5 92.906V94.6406V98.3906V113.766V117.516V125.391C125.5 127.474 123.958 129.016 121.875 129.016C119.792 129.016 118.25 127.474 118.25 125.391V117.516V113.766V98.2031V94.4531V92.7185L116.533 92.4732C115.249 92.2899 114.23 92.1175 113.049 91.7801Z" stroke="#00DCE6" stroke-width="4"/>
<rect x="64.4688" y="20.9805" width="6.0618" height="13.0081" stroke="#00DCE6" stroke-width="2" stroke-linejoin="round"/>
<rect x="71.9688" y="39.793" width="6.0618" height="13.0081" stroke="#00DCE6" stroke-width="2" stroke-linejoin="round"/>
<rect x="173.219" y="39.793" width="6.0618" height="13.0081" stroke="#00DCE6" stroke-width="2" stroke-linejoin="round"/>
<rect x="165.719" y="58.5117" width="6.0618" height="13.0081" stroke="#00DCE6" stroke-width="2" stroke-linejoin="round"/>
<rect x="173.219" y="77.2305" width="6.0618" height="13.0081" stroke="#00DCE6" stroke-width="2" stroke-linejoin="round"/>
<rect x="158.219" y="95.9492" width="6.0618" height="13.0081" stroke="#00DCE6" stroke-width="2" stroke-linejoin="round"/>
<rect x="135.719" y="95.9492" width="6.0618" height="13.0081" stroke="#00DCE6" stroke-width="2" stroke-linejoin="round"/>
<rect x="101.969" y="95.9492" width="6.0618" height="13.0081" stroke="#00DCE6" stroke-width="2" stroke-linejoin="round"/>
<rect x="86.9688" y="95.9492" width="6.0618" height="13.0081" stroke="#00DCE6" stroke-width="2" stroke-linejoin="round"/>
<rect x="64.4688" y="95.9492" width="6.0618" height="13.0081" stroke="#00DCE6" stroke-width="2" stroke-linejoin="round"/>
<rect x="71.9688" y="77.2617" width="6.0618" height="13.0081" stroke="#00DCE6" stroke-width="2" stroke-linejoin="round"/>
<rect x="64.4688" y="58.5742" width="6.0618" height="13.0081" stroke="#00DCE6" stroke-width="2" stroke-linejoin="round"/>
<rect x="165.719" y="20.9805" width="6.0618" height="13.0081" stroke="#00DCE6" stroke-width="2" stroke-linejoin="round"/>
</svg>
