<svg width="200" height="200" viewBox="0 0 200 200" fill="none" xmlns="http://www.w3.org/2000/svg">
<path fill-rule="evenodd" clip-rule="evenodd" d="M30.5557 0H200V169.444C178.77 188.446 150.734 200 120 200C53.7258 200 0 146.274 0 80C0 49.2658 11.5541 21.2303 30.5557 0Z" fill="#00DCE6" fill-opacity="0.1"/>
<path d="M138.264 96.8194V91.746C138.264 87.0108 128.621 84.9814 123.884 84.9814C119.147 84.9814 109.504 87.0108 109.504 91.746V96.8194" stroke="#00DCE6" stroke-width="4"/>
<path d="M123.884 79.9078C127.437 79.9078 129.805 77.3711 129.805 74.158V72.2977C129.805 69.0846 127.437 66.5479 123.884 66.5479C120.331 66.5479 117.963 69.0846 117.963 72.2977V74.158C117.963 77.202 120.331 79.9078 123.884 79.9078Z" stroke="#00DCE6" stroke-width="4"/>
<path d="M98.5091 83.2898C94.9564 83.2898 92.5879 80.584 92.5879 77.3709V75.5106C92.5879 72.2974 94.9564 69.7607 98.5091 69.7607C102.062 69.7607 104.43 72.2974 104.43 75.5106V77.3709C104.43 80.584 102.062 83.2898 98.5091 83.2898Z" stroke="#00DCE6" stroke-width="2"/>
<path d="M149.261 83.2887C152.814 83.2887 155.182 80.752 155.182 77.5388V75.6786C155.182 72.4654 152.814 69.9287 149.261 69.9287C145.708 69.9287 143.34 72.4654 143.34 75.6786V77.5388C143.34 80.5829 145.708 83.2887 149.261 83.2887Z" stroke="#00DCE6" stroke-width="2"/>
<path d="M160.257 103.584V93.4367C160.257 90.5618 158.058 88.3633 155.182 88.3633H150.107L141.648 96.819H131.497C131.497 96.819 130.82 103.584 136.573 103.584C139.956 103.584 146.723 103.584 146.723 103.584L153.49 96.819" stroke="#00DCE6" stroke-width="2"/>
<path d="M87.5117 103.584V93.4367C87.5117 90.5618 89.711 88.3633 92.587 88.3633H97.6624L106.121 96.819H116.272C116.272 96.819 116.949 103.584 111.197 103.584C107.813 103.584 101.046 103.584 101.046 103.584L94.2788 96.819" stroke="#00DCE6" stroke-width="2"/>
<path d="M111.197 103.584H136.574" stroke="#00DCE6" stroke-width="2"/>
<path d="M116.054 65.2906C111.595 62.6814 108.658 57.7892 108.658 52.2447C108.658 43.8735 115.51 37.0244 123.884 37.0244C132.259 37.0244 139.11 43.8735 139.11 52.2447C139.11 58.3328 135.521 63.5512 130.41 65.9429" stroke="#00DCE6" stroke-width="4"/>
<line x1="114.729" y1="40.7" x2="135.516" y2="61.4283" stroke="#00DCE6" stroke-width="4"/>
<path d="M123.884 127.671L76.7695 97.5982V50.9449L123.885 21.1828L170.999 50.9449V97.5825L123.884 127.671Z" stroke="#00DCE6" stroke-width="2"/>
<line x1="181" y1="51.0938" x2="180.998" y2="98.1916" stroke="#00DCE6" stroke-width="2" stroke-dasharray="2 2"/>
<line x1="66.7715" y1="51.0938" x2="66.7692" y2="98.1916" stroke="#00DCE6" stroke-width="2" stroke-dasharray="2 2"/>
</svg>
