<svg width="200" height="200" viewBox="0 0 200 200" fill="none" xmlns="http://www.w3.org/2000/svg">
<path fill-rule="evenodd" clip-rule="evenodd" d="M30.5557 0H200V169.444C178.77 188.446 150.734 200 120 200C53.7258 200 0 146.274 0 80C0 49.2658 11.5541 21.2303 30.5557 0Z" fill="#00DCE6" fill-opacity="0.1"/>
<path d="M148 110.218V90.983L164.267 78.7402L180.535 90.983V110.212L164.267 122.589L148 110.218Z" stroke="#00DCE6" stroke-width="2"/>
<path d="M164.268 103.192V122.525" stroke="#00DCE6" stroke-width="2"/>
<path d="M148 91.1055L164.267 103.473L180.535 91.1055" stroke="#00DCE6" stroke-width="2"/>
<path d="M122.087 139.878C119.341 139.191 71.7422 111.24 71.7422 86.0389C71.7422 64.503 71.7422 63.6437 71.7422 38.9004" stroke="#00DCE6" stroke-width="2" stroke-dasharray="2 2"/>
<path d="M122.087 94.2467C133.462 94.2467 142.683 85.0153 142.683 73.6278C142.683 62.2402 133.462 53.0088 122.087 53.0088C110.713 53.0088 101.492 62.2402 101.492 73.6278C101.492 85.0153 110.713 94.2467 122.087 94.2467Z" stroke="#00DCE6" stroke-width="4"/>
<path d="M130.325 67.4412C128.471 64.9669 125.382 63.3174 122.087 63.3174C116.32 63.3174 111.789 67.8536 111.789 73.6269C111.789 79.4002 116.32 83.9363 122.087 83.9363C125.382 83.9363 128.471 82.2868 130.325 79.8126" stroke="#00DCE6" stroke-width="4"/>
<path d="M122.087 20C128.783 27.0864 153.461 38.961 164.174 38.961V79.2847M122.087 20C115.391 27.0864 90.713 38.961 80 38.961V84.161C80 105.229 119.791 128.595 122.087 129.169M122.087 20V52.4458M122.087 129.169C123.405 128.84 137.086 120.995 148.497 110.386M122.087 129.169V94.3846" stroke="#00DCE6" stroke-width="2"/>
</svg>
