<svg width="70" height="70" viewBox="0 0 70 70" fill="none" xmlns="http://www.w3.org/2000/svg">
<circle cx="35" cy="35" r="35" fill="#1F2432"/>
<path d="M25.6381 21.0356C25.1725 20.8088 24.4658 20.3838 23.6765 20.2231V19.6606C24.3223 19.3794 24.7529 18.6562 24.7529 17.8125V17.0089C24.7529 15.8839 23.9994 15 22.9588 15C21.9183 15 21.1648 15.8839 21.1648 17.0089V17.8125C21.1648 18.6562 21.5954 19.3794 22.2412 19.6606V20.2231C21.6224 20.3297 20.6412 20.7754 20.2061 21.0356" stroke="white" stroke-miterlimit="10"/>
<path d="M21.0415 26.1647C20.6388 25.717 19.2123 25.4656 18.9143 25.423V24.827C19.6807 24.529 20.1917 23.7627 20.1917 22.8687V22.0173C20.1917 20.8253 19.2975 19.8887 18.0627 19.8887C16.8279 19.8887 15.9337 20.8253 15.9337 22.0173V22.8687C15.9337 23.7627 16.4446 24.529 17.2111 24.827V25.423C15.5505 25.6785 14.2305 26.2745 14.2305 27.5516V32.9255H23.4649" stroke="white" stroke-miterlimit="10"/>
<path d="M24.5308 26.1647C24.9335 25.717 26.3599 25.4656 26.658 25.423V24.827C25.8915 24.529 25.3806 23.7627 25.3806 22.8687V22.0173C25.3806 20.8253 26.2748 19.8887 27.5096 19.8887C28.7444 19.8887 29.6386 20.8253 29.6386 22.0173V22.8687C29.6386 23.7627 29.1276 24.529 28.3612 24.827V25.423C30.0218 25.6785 31.3418 26.2745 31.3418 27.5516V32.9255H23.4654" stroke="white" stroke-miterlimit="10"/>
<path d="M27.5996 48.8747V39.4832L35.4154 33.5088L43.2313 39.4832V48.8716L35.4154 54.9148L27.5996 48.8747Z" stroke="white" stroke-miterlimit="10"/>
<path d="M35.415 45.3682V55.0004" stroke="white" stroke-miterlimit="10"/>
<path d="M27.6406 39.5088L35.4158 45.3675L43.191 39.5088" stroke="white" stroke-miterlimit="10"/>
<path d="M14 32.6465L27.4432 43.1197L27.5996 43.2479" stroke="white" stroke-miterlimit="10"/>
<path d="M54.4277 30.7529L56.831 32.6465L43.2314 43.4949" stroke="white" stroke-miterlimit="10"/>
<path d="M29.4756 21.2352L35.103 17.0146L42.2057 22.0615" stroke="white" stroke-miterlimit="10"/>
<path d="M45.2691 22.1772V19.8548C45.2691 18.5682 46.4143 17.5247 47.7009 17.5247C48.9876 17.5247 50.1328 18.5726 50.1328 19.8548V22.1772H52.7857V19.9875C52.7857 17.2373 50.4511 15 47.7009 15C44.9508 15 42.6162 17.2373 42.6162 19.9875V22.1772H45.2691Z" stroke="white" stroke-miterlimit="10"/>
<path d="M40.8477 23.062V31.4987C40.8477 31.985 41.2456 32.383 41.732 32.383H53.67C54.1564 32.383 54.5543 31.985 54.5543 31.4987V23.062C54.5543 22.5757 54.1564 22.1777 53.67 22.1777H41.732C41.2456 22.1777 40.8477 22.5757 40.8477 23.062Z" stroke="white" stroke-miterlimit="10"/>
<path d="M48.5801 29.2808V27.4405C49.0614 27.1614 49.389 26.6437 49.389 26.0451C49.389 25.0259 48.4467 24.2251 47.3829 24.4718C46.8086 24.6053 46.3435 25.0663 46.2019 25.6366C46.0159 26.401 46.3718 27.0927 46.9623 27.4365V29.2767C46.9623 29.7216 47.3263 30.0856 47.7712 30.0856C48.2202 30.0897 48.5801 29.7257 48.5801 29.2808Z" stroke="white" stroke-miterlimit="10"/>
</svg>
