<svg width="70" height="70" viewBox="0 0 70 70" fill="none" xmlns="http://www.w3.org/2000/svg">
<circle cx="35" cy="35" r="35" fill="#1F2432"/>
<g clip-path="url(#clip0)">
<path d="M36.3247 42.816L35.0997 39.866L33.308 40.466C32.808 39.766 32.208 39.1743 31.533 38.691L32.133 36.891L29.183 35.666L28.333 37.3577C27.5163 37.2243 26.6663 37.216 25.8247 37.3577L24.9747 35.666L22.0247 36.891L22.6247 38.6827C21.9247 39.1827 21.333 39.7827 20.8497 40.4577L19.0497 39.8577L17.833 42.816L19.5247 43.666C19.3913 44.4827 19.383 45.3327 19.5247 46.1743L17.833 47.0243L19.058 49.9744L20.8497 49.3743C21.3497 50.0743 21.9497 50.666 22.6247 51.1494L22.0247 52.9493L24.9747 54.166L25.8247 52.4744C26.6413 52.6077 27.4913 52.616 28.333 52.4744L29.183 54.166L32.133 52.941L31.533 51.1494C32.233 50.6494 32.8247 50.0493 33.308 49.3743L35.108 49.9744L36.333 47.0243L34.6413 46.1743C34.7747 45.3577 34.783 44.5077 34.6413 43.666L36.3247 42.816Z" stroke="white" stroke-miterlimit="10" stroke-linejoin="round"/>
<path d="M27.1999 48.0745C28.8797 48.0745 30.2415 46.7127 30.2415 45.0329C30.2415 43.353 28.8797 41.9912 27.1999 41.9912C25.52 41.9912 24.1582 43.353 24.1582 45.0329C24.1582 46.7127 25.52 48.0745 27.1999 48.0745Z" stroke="white" stroke-miterlimit="10" stroke-linejoin="round"/>
<path d="M22 34.1667V26.6667L26.1667 22.5H46.1667V54.1667H33.6667" stroke="white" stroke-miterlimit="10"/>
<path d="M29.5 19.166H49.5V51.666" stroke="white" stroke-miterlimit="10"/>
<path d="M32.833 15.833H52.833V48.333" stroke="white" stroke-miterlimit="10"/>
<path d="M23.666 28.3327H27.8327V24.166" stroke="white" stroke-miterlimit="10"/>
</g>
<defs>
<clipPath id="clip0">
<rect width="36.6667" height="40" fill="white" transform="translate(17 15)"/>
</clipPath>
</defs>
</svg>
