<svg width="70" height="70" viewBox="0 0 70 70" fill="none" xmlns="http://www.w3.org/2000/svg">
<circle cx="35" cy="35" r="35" fill="#1F2432"/>
<path d="M37.9521 16.8574C47.117 18.2004 54.1427 25.9012 54.1427 35.2C54.1427 38.5788 53.2151 41.7471 51.5932 44.4766" stroke="white"/>
<path d="M56.0056 43.1018L51.7066 44.316L50.5752 40.3477" stroke="white"/>
<path d="M18.3107 42.5718C14.9228 34.0387 18.2574 24.1083 26.5255 19.3852C29.5298 17.6686 32.8111 16.8546 36.0477 16.8574" stroke="white"/>
<path d="M31.2861 14L36.0481 17.0187L32.6682 20.6667" stroke="white"/>
<path d="M49.3806 46.8428C43.771 54.089 33.7087 56.2191 25.6775 51.4457C22.7594 49.7108 20.473 47.2808 18.9043 44.4766" stroke="white"/>
<path d="M17.9521 49.2385L18.6602 44.4766L23.6665 45.0542" stroke="white"/>
<path d="M27.041 40.3632V30.0485L35.6251 23.4834L44.2092 30.0485V40.3597L35.6251 46.997L27.041 40.3632Z" stroke="white"/>
<path d="M35.625 36.5098V47.0888" stroke="white"/>
<path d="M27.0859 30.0752L35.6254 36.5098L44.1649 30.0752" stroke="white"/>
</svg>
