<svg width="70" height="70" viewBox="0 0 70 70" fill="none" xmlns="http://www.w3.org/2000/svg">
<circle cx="35" cy="35" r="35" fill="#1F2432"/>
<path d="M15.9092 30.5353V22.2089L22.8387 16.9092L29.7682 22.2089V30.5326L22.8387 35.8905L15.9092 30.5353Z" stroke="white"/>
<path d="M22.8389 27.4258V35.9657" stroke="white"/>
<path d="M15.9453 22.2305L22.8388 27.4248L29.7322 22.2305" stroke="white"/>
<path d="M40.3008 30.5353V22.2089L47.2303 16.9092L54.1598 22.2089V30.5326L47.2303 35.8905L40.3008 30.5353Z" stroke="white"/>
<path d="M47.2305 27.4258V35.9657" stroke="white"/>
<path d="M40.3369 22.2305L47.2304 27.4248L54.1238 22.2305" stroke="white"/>
<path d="M28.1055 48.6605V40.334L35.035 35.0371L41.9645 40.334V48.6577L35.035 54.0156L28.1055 48.6605Z" stroke="white"/>
<path d="M35 46L35 54" stroke="white"/>
<path d="M28.1416 41.3564L35.0351 46.5508L41.9285 41.3564" stroke="white"/>
<path d="M44 33L38.5 37.5" stroke="white"/>
<path d="M26 33L31.5 37.5" stroke="white"/>
<path d="M30 26H40" stroke="white"/>
</svg>
