<svg width="70" height="70" viewBox="0 0 70 70" fill="none" xmlns="http://www.w3.org/2000/svg">
<circle cx="35" cy="35" r="35" fill="#1F2432"/>
<path d="M15.5 40.9761V27.928L26.4211 19.628L37.3421 27.928V40.9761L26.4211 49.3694L15.5 40.9761Z" stroke="white"/>
<path d="M26.4209 36.1113V49.0073" stroke="white"/>
<path d="M15.4961 27.9287L26.4206 36.1127L37.3451 27.9287" stroke="white"/>
<path d="M43.6504 23.3644V22.8644H43.1504V23.3644H43.6504ZM43.6504 45.6371H43.1504V46.1371H43.6504V45.6371ZM47.8392 34.5008C47.8392 36.3954 49.3751 37.9314 51.2698 37.9314V36.9314C49.9274 36.9314 48.8392 35.8432 48.8392 34.5008H47.8392ZM51.2698 37.9314C53.1645 37.9314 54.7004 36.3954 54.7004 34.5008H53.7004C53.7004 35.8432 52.6122 36.9314 51.2698 36.9314V37.9314ZM54.7004 34.5008C54.7004 32.6061 53.1645 31.0701 51.2698 31.0701V32.0701C52.6122 32.0701 53.7004 33.1584 53.7004 34.5008H54.7004ZM51.2698 31.0701C49.3751 31.0701 47.8392 32.6061 47.8392 34.5008H48.8392C48.8392 33.1584 49.9274 32.0701 51.2698 32.0701V31.0701ZM47.8392 45.051C47.8392 46.9457 49.3751 48.4816 51.2698 48.4816V47.4816C49.9274 47.4816 48.8392 46.3934 48.8392 45.051H47.8392ZM51.2698 48.4816C53.1645 48.4816 54.7004 46.9457 54.7004 45.051H53.7004C53.7004 46.3934 52.6122 47.4816 51.2698 47.4816V48.4816ZM54.7004 45.051C54.7004 43.1563 53.1645 41.6204 51.2698 41.6204V42.6204C52.6122 42.6204 53.7004 43.7086 53.7004 45.051H54.7004ZM51.2698 41.6204C49.3751 41.6204 47.8392 43.1563 47.8392 45.051H48.8392C48.8392 43.7086 49.9274 42.6204 51.2698 42.6204V41.6204ZM47.8393 22.7783C47.8393 24.673 49.3753 26.2089 51.2699 26.2089V25.2089C49.9276 25.2089 48.8393 24.1207 48.8393 22.7783H47.8393ZM51.2699 26.2089C53.1646 26.2089 54.7005 24.673 54.7005 22.7783H53.7005C53.7005 24.1207 52.6123 25.2089 51.2699 25.2089V26.2089ZM54.7005 22.7783C54.7005 20.8836 53.1646 19.3477 51.2699 19.3477V20.3477C52.6123 20.3477 53.7005 21.4359 53.7005 22.7783H54.7005ZM51.2699 19.3477C49.3753 19.3477 47.8393 20.8836 47.8393 22.7783H48.8393C48.8393 21.4359 49.9276 20.3477 51.2699 20.3477V19.3477ZM37.7891 35.0305H48.3392V34.0305H37.7891V35.0305ZM48.3393 22.8644H43.6504V23.8644H48.3393V22.8644ZM43.1504 23.3644V45.6371H44.1504V23.3644H43.1504ZM43.6504 46.1371H48.3393V45.1371H43.6504V46.1371Z" fill="white"/>
</svg>
