<svg width="200" height="200" viewBox="0 0 200 200" fill="none" xmlns="http://www.w3.org/2000/svg">
<path fill-rule="evenodd" clip-rule="evenodd" d="M30.5557 0H200V169.444C178.77 188.446 150.734 200 120 200C53.7258 200 0 146.274 0 80C0 49.2658 11.5541 21.2303 30.5557 0Z" fill="#00DCE6" fill-opacity="0.1"/>
<path d="M159.425 115C162.462 115 164.925 112.538 164.925 109.5C164.925 106.462 162.462 104 159.425 104C156.387 104 153.925 106.462 153.925 109.5C153.925 112.538 156.387 115 159.425 115Z" fill="#00DCE6"/>
<path d="M100.326 122.768C101.358 121.146 102.095 119.378 102.537 117.536L107.695 115.767C107.99 113.777 107.99 111.714 107.769 109.651L102.61 107.809C102.168 105.966 101.431 104.198 100.473 102.503L102.831 97.5658C102.242 96.7552 101.579 96.0183 100.842 95.2814C100.105 94.5445 99.368 93.8813 98.5575 93.2918L93.6202 95.5761C91.9991 94.5445 90.2305 93.8813 88.3883 93.3655L86.6197 88.2072C84.6301 87.9861 82.5668 87.9124 80.5772 88.1335L78.7349 93.2918C76.8927 93.7339 75.1241 94.3971 73.503 95.4288L68.5658 93.0707C67.7552 93.6602 67.0183 94.3234 66.2814 95.0603C65.5445 95.7972 64.8813 96.5341 64.2918 97.3447L66.5761 102.282C65.5445 103.903 64.8076 105.672 64.3654 107.514L59.2072 109.282C58.9861 111.272 58.9124 113.335 59.1335 115.325L64.2181 117.167C64.6602 119.009 65.3234 120.778 66.3551 122.399L63.997 127.336C64.5865 128.147 65.2497 128.884 65.9866 129.621C66.7235 130.358 67.4604 131.021 68.271 131.684L73.2082 129.4C74.8294 130.431 76.5979 131.168 78.4402 131.61L80.2087 136.769C82.1983 137.063 84.2617 137.063 86.2513 136.842L88.0935 131.684C89.9358 131.242 91.7043 130.505 93.3255 129.547L98.2627 131.905C99.0733 131.316 99.8102 130.652 100.547 129.916C101.284 129.179 101.947 128.442 102.61 127.631L100.326 122.768Z" stroke="#00DCE6" stroke-width="4"/>
<path d="M83.4516 125.936C79.9882 125.936 76.5247 124.609 73.8719 121.957C68.7136 116.651 68.7873 108.177 74.0193 103.018C79.325 97.8601 87.7993 97.9338 92.9575 103.166C98.1158 108.398 98.0421 116.946 92.8102 122.104C90.231 124.609 86.8413 125.936 83.4516 125.936Z" stroke="#00DCE6" stroke-width="4"/>
<path d="M77.9481 93C75.9829 87.7368 74.9248 82.0977 74.9248 76.1579C74.9248 63.3759 79.8376 51.7218 87.9248 43" stroke="#00DCE6" stroke-width="2"/>
<path d="M159.925 110C150.914 119.22 138.194 125 124.034 125C116.084 125 108.588 123.171 101.925 119.951" stroke="#00DCE6" stroke-width="2"/>
<path d="M91.9248 30.4407C101.058 23.8732 112.324 20 124.445 20C155.087 20 179.925 44.5021 179.925 74.7297C179.925 84.2443 177.45 93.1694 173.096 101" stroke="#00DCE6" stroke-width="2" stroke-dasharray="2 3"/>
<path d="M107.925 50H157.925" stroke="#00DCE6" stroke-width="4"/>
<path d="M107.925 61H157.925" stroke="#00DCE6" stroke-width="4"/>
<path d="M107.925 72H157.925" stroke="#00DCE6" stroke-width="4"/>
<path d="M107.925 83H157.925" stroke="#00DCE6" stroke-width="4"/>
<path d="M107.925 94H157.925" stroke="#00DCE6" stroke-width="4"/>
<path d="M101.925 50H96.9248" stroke="#00DCE6" stroke-width="4"/>
<path d="M101.925 61H96.9248" stroke="#00DCE6" stroke-width="4"/>
<path d="M101.925 72H96.9248" stroke="#00DCE6" stroke-width="4"/>
<path d="M101.925 83H96.9248" stroke="#00DCE6" stroke-width="4"/>
</svg>
