<svg width="200" height="200" viewBox="0 0 200 200" fill="none" xmlns="http://www.w3.org/2000/svg">
<path fill-rule="evenodd" clip-rule="evenodd" d="M30.5557 0H200V169.444C178.77 188.446 150.734 200 120 200C53.7258 200 0 146.274 0 80C0 49.2658 11.5541 21.2303 30.5557 0Z" fill="#00DCE6" fill-opacity="0.1"/>
<path d="M180 38.9247V20H161.061" stroke="#00DCE6" stroke-width="2"/>
<path d="M78.9391 20H60V38.9247" stroke="#00DCE6" stroke-width="2"/>
<path d="M161.061 139.909H180V120.984" stroke="#00DCE6" stroke-width="2"/>
<path d="M60 121.075V139.999H78.9391" stroke="#00DCE6" stroke-width="2"/>
<path d="M158.69 83.3346C155.902 81.107 151.613 79.7705 146.895 78.8794V75.7608C150.756 74.2015 153.329 70.1919 153.329 65.514V61.0588C153.329 54.8216 148.825 49.9209 142.606 49.9209C136.387 49.9209 131.884 54.8216 131.884 61.0588V65.514C131.884 70.1919 134.457 74.2015 138.317 75.7608V78.8794C129.954 80.216 123.306 83.3346 123.306 90.0173V117.304" stroke="#00DCE6" stroke-width="4" stroke-miterlimit="10"/>
<path d="M131.538 54.2867C129.231 53.2511 125.728 51.3101 121.816 50.5761V48.007C125.017 46.7225 127.151 43.4195 127.151 39.5659V35.8958C127.151 30.7578 123.416 26.7207 118.259 26.7207C113.102 26.7207 109.367 30.7578 109.367 35.8958V39.5659C109.367 43.4195 111.501 46.7225 114.702 48.007V50.5761C111.635 51.063 106.772 53.0986 104.615 54.2867" stroke="#00DCE6" stroke-width="2" stroke-miterlimit="10"/>
<path d="M109.231 82.6181C107.152 80.2857 99.7895 78.9761 98.251 78.7543V75.6492C102.207 74.0966 104.844 70.1043 104.844 65.4466V61.0107C104.844 54.8004 100.229 49.9209 93.8554 49.9209C87.4818 49.9209 82.8664 54.8004 82.8664 61.0107V65.4466C82.8664 70.1043 85.5038 74.0966 89.4598 75.6492V78.7543C80.8884 80.0851 74.0752 83.1902 74.0752 89.844V117.841H155.385" stroke="#00DCE6" stroke-width="4" stroke-miterlimit="10"/>
<path d="M90.998 93.834L100.443 103.236L119.334 82.0811" stroke="#00DCE6" stroke-width="4"/>
<path d="M140.229 93.834L149.675 103.236L168.566 82.0811" stroke="#00DCE6" stroke-width="4"/>
<path d="M72 125H155" stroke="#00DCE6" stroke-width="2" stroke-dasharray="2 2"/>
</svg>
