<svg width="200" height="200" viewBox="0 0 200 200" fill="none" xmlns="http://www.w3.org/2000/svg">
<path fill-rule="evenodd" clip-rule="evenodd" d="M30.5557 0H200V169.444C178.77 188.446 150.734 200 120 200C53.7258 200 0 146.274 0 80C0 49.2658 11.5541 21.2303 30.5557 0Z" fill="#00DCE6" fill-opacity="0.1"/>
<path d="M124.275 38.1045H66.1416V42.6087H124.275V38.1045Z" stroke="#00DCE6" stroke-width="2"/>
<path d="M123 60.5H66V65.0042H123V60.5Z" stroke="#00DCE6" stroke-width="2"/>
<path d="M74 25.9995H66V31.9995H74V25.9995Z" fill="#00DCE6"/>
<path d="M74 48.4995H66V54.4995H74V48.4995Z" fill="#00DCE6"/>
<path d="M74 71.0005H66V77.0005H74V71.0005Z" fill="#00DCE6"/>
<path d="M74 92.999H66V98.999H74V92.999Z" fill="#00DCE6"/>
<path d="M130.5 20H60V38H130.5V20Z" stroke="#00DCE6" stroke-width="2"/>
<path d="M130.5 42.5H60V60.5H130.5V42.5Z" stroke="#00DCE6" stroke-width="2"/>
<path d="M146.999 62.0005C158.856 71.9773 179.995 79.4143 179.995 79.4143C180.455 121.861 146.999 140 146.999 140C129.904 131.384 113.728 108.166 114.003 79.4143C114.003 79.4143 134.5 71.9773 146.999 62.0005Z" stroke="#00DCE6" stroke-width="4"/>
<path d="M132.729 95.3647H160.664V110.041C160.664 113.178 158.134 115.607 155.098 115.607H138.296C135.159 115.607 132.729 113.077 132.729 110.041V95.3647Z" stroke="#00DCE6" stroke-width="4"/>
<path d="M146.697 99.5151C147.81 99.5151 148.822 100.426 148.822 101.641V107.916C148.822 109.029 147.911 110.041 146.697 110.041C145.583 110.041 144.571 109.13 144.571 107.916V101.641C144.571 100.426 145.482 99.5151 146.697 99.5151Z" fill="#00DCE6"/>
<path d="M135.462 92.5301C135.462 85.85 140.017 80.5869 146.089 80.5869C152.162 80.5869 157.83 85.5464 157.83 92.5301" stroke="#00DCE6" stroke-width="4"/>
<path d="M114.946 83H60V65H130V71.75" stroke="#00DCE6" stroke-width="2"/>
<path d="M65.25 82.5V87.75" stroke="#00DCE6" stroke-width="2"/>
<path d="M114.75 87.5H60V105.5H118.5" stroke="#00DCE6" stroke-width="2"/>
<path d="M109 110C110.098 113.718 112.031 118.155 117.941 126.268C123.852 134.38 131.588 141.479 133 143" stroke="#00DCE6" stroke-width="2" stroke-dasharray="2 2"/>
<path d="M147 51.9999C146.5 51.4994 153.944 58.824 163 63.9996C173.5 70.0004 182.5 72.9999 182.5 72.9999" stroke="#00DCE6" stroke-width="2" stroke-dasharray="2 2"/>
</svg>
