<svg width="200" height="200" viewBox="0 0 200 200" fill="none" xmlns="http://www.w3.org/2000/svg">
<path fill-rule="evenodd" clip-rule="evenodd" d="M30.5557 0H200V169.444C178.77 188.446 150.734 200 120 200C53.7258 200 0 146.274 0 80C0 49.2658 11.5541 21.2303 30.5557 0Z" fill="#00DCE6" fill-opacity="0.1"/>
<path d="M88 139.675V117.852L113.542 106L122 111.358L130.458 106L156 116.716V140" stroke="#00DCE6" stroke-width="4" stroke-miterlimit="10"/>
<path d="M138 76.5389C138 84.8528 132.743 100 122 100C110.571 100 106 83.9417 106 76.5389C106 65.4917 110.343 59 122 59C134.114 59 138 65.6056 138 76.5389Z" stroke="#00DCE6" stroke-width="4" stroke-miterlimit="10"/>
<path d="M107 72.7068C108.703 72.4822 114.154 69 114.154 69C114.154 69 116.993 73.2685 123.238 73.8301C128.916 74.3918 138 73.3808 138 73.3808" stroke="#00DCE6" stroke-width="2" stroke-miterlimit="10"/>
<path d="M113 96V105" stroke="#00DCE6" stroke-width="2" stroke-miterlimit="10"/>
<path d="M131 96V105" stroke="#00DCE6" stroke-width="2" stroke-miterlimit="10"/>
<path d="M91.391 103C86.1393 96.4713 83 88.1965 83 79.1944C83 58.1002 100.237 41 121.5 41C142.763 41 160 58.1002 160 79.1944C160 88.1965 156.861 96.4713 151.609 103" stroke="#00DCE6" stroke-width="2" stroke-dasharray="2 2"/>
<path d="M62.2929 75.2929C61.9024 75.6834 61.9024 76.3166 62.2929 76.7071L68.6569 83.0711C69.0474 83.4616 69.6805 83.4616 70.0711 83.0711C70.4616 82.6805 70.4616 82.0474 70.0711 81.6569L64.4142 76L70.0711 70.3431C70.4616 69.9526 70.4616 69.3195 70.0711 68.9289C69.6805 68.5384 69.0474 68.5384 68.6569 68.9289L62.2929 75.2929ZM93 75H63V77H93V75Z" fill="#00DCE6"/>
<path d="M122.707 19.2929C122.317 18.9024 121.683 18.9024 121.293 19.2929L114.929 25.6569C114.538 26.0474 114.538 26.6805 114.929 27.0711C115.319 27.4616 115.953 27.4616 116.343 27.0711L122 21.4142L127.657 27.0711C128.047 27.4616 128.681 27.4616 129.071 27.0711C129.462 26.6805 129.462 26.0474 129.071 25.6569L122.707 19.2929ZM123 50L123 20L121 20L121 50L123 50Z" fill="#00DCE6"/>
<path d="M180.707 76.7071C181.098 76.3166 181.098 75.6834 180.707 75.2929L174.343 68.9289C173.953 68.5384 173.319 68.5384 172.929 68.9289C172.538 69.3195 172.538 69.9526 172.929 70.3431L178.586 76L172.929 81.6569C172.538 82.0474 172.538 82.6805 172.929 83.0711C173.319 83.4616 173.953 83.4616 174.343 83.0711L180.707 76.7071ZM150 77L180 77L180 75L150 75L150 77Z" fill="#00DCE6"/>
</svg>
