<svg width="200" height="200" viewBox="0 0 200 200" fill="none" xmlns="http://www.w3.org/2000/svg">
<path fill-rule="evenodd" clip-rule="evenodd" d="M30.5557 0H200V169.444C178.77 188.446 150.734 200 120 200C53.7258 200 0 146.274 0 80C0 49.2658 11.5541 21.2303 30.5557 0Z" fill="#00DCE6" fill-opacity="0.1"/>
<path d="M122 77.5V20H69.6L60 29.6L69.3 38.9H114.1" stroke="#00DCE6" stroke-width="4" stroke-miterlimit="10"/>
<path d="M122 84L121.5 133.5" stroke="#00DCE6" stroke-width="4"/>
<path d="M129 45.2002H169.1L180 36.4002L169.7 28.2002H122" stroke="#00DCE6" stroke-width="4" stroke-miterlimit="10"/>
<path d="M110.8 62.1998H84.8L75 54.4998L84.2 47.2998H121.7" stroke="#00DCE6" stroke-width="4" stroke-miterlimit="10"/>
<path d="M135.4 68.2998H158.7L169 60.0998L159.1 52.2998H122" stroke="#00DCE6" stroke-width="4" stroke-miterlimit="10"/>
<path d="M137 140H107V134H137V140Z" stroke="#00DCE6" stroke-width="4" stroke-miterlimit="10"/>
<path d="M109.328 80.8235C107.644 82.0617 106.161 83.4843 104.947 85.153L99.0637 84.7741C97.9903 86.6945 97.1158 88.7351 96.5015 90.8284L100.87 94.7614C100.574 96.7758 100.539 98.8429 100.826 100.895L96.4271 104.838C96.7312 105.857 97.0352 106.876 97.4708 107.954C97.9035 108.967 98.3362 109.98 98.8947 110.923L104.749 110.658C105.986 112.344 107.404 113.765 109.074 115.045L108.696 120.935C110.614 122.01 112.652 122.886 114.743 123.501L118.735 119.125C120.747 119.421 122.811 119.457 124.861 119.17L128.8 123.575C129.882 123.267 130.9 122.963 131.911 122.53C132.923 122.097 133.935 121.664 134.877 121.105L134.611 115.243C136.296 114.005 137.778 112.582 138.992 110.914L144.876 111.292C145.949 109.372 146.826 107.396 147.438 105.238L143.131 101.238C143.426 99.2234 143.462 97.1563 143.175 95.1038L147.574 91.1608C147.267 90.0775 146.963 89.0585 146.53 88.0454C146.097 87.0322 145.664 86.0191 145.106 85.0762L139.252 85.3414C138.015 83.6547 136.529 82.1729 134.927 80.9546L135.241 75.0667C133.319 73.9273 131.284 73.1159 129.193 72.5006L125.201 76.877C123.19 76.5809 121.125 76.5453 119.075 76.8318L115.136 72.4275C114.119 72.7318 113.037 73.039 112.025 73.4721C111.013 73.9052 110.004 74.4028 109.06 74.8974L109.328 80.8235Z" stroke="#00DCE6" stroke-width="2"/>
<path d="M127.614 84.3531C131.177 85.8388 134.138 88.6035 135.696 92.42C138.743 99.9903 135.109 108.588 127.534 111.698C119.956 114.743 111.35 111.114 108.303 103.544C105.259 96.0391 108.889 87.3757 116.467 84.3311C120.156 82.7804 124.186 82.9273 127.614 84.3531Z" stroke="#00DCE6" stroke-width="2"/>
<path d="M142.5 70.7563C142.5 70.7598 139.395 68.8301 142.5 70.7602C145.119 72.3878 147.542 74.4205 149.671 76.849C161.438 90.2697 160.031 110.745 146.529 122.584" stroke="#00DCE6" stroke-width="2" stroke-dasharray="2 3"/>
<path d="M101.476 70.7563C101.476 70.7598 104.582 68.8301 101.476 70.7602C98.8576 72.3878 96.4349 74.4205 94.3056 76.849C82.5385 90.2697 83.9453 110.745 97.448 122.584" stroke="#00DCE6" stroke-width="2" stroke-dasharray="2 3"/>
</svg>
