<?xml version="1.0" encoding="utf-8"?>
<!-- Generator: Adobe Illustrator 15.0.0, SVG Export Plug-In . SVG Version: 6.00 Build 0)  -->
<!DOCTYPE svg PUBLIC "-//W3C//DTD SVG 1.1//EN" "http://www.w3.org/Graphics/SVG/1.1/DTD/svg11.dtd">
<svg version="1.1" id="图层_1" xmlns="http://www.w3.org/2000/svg" xmlns:xlink="http://www.w3.org/1999/xlink" x="0px" y="0px"
	 width="1170px" height="340px" viewBox="0 0 1170 340" enable-background="new 0 0 1170 340" xml:space="preserve">
<path fill="#1F2432" d="M60,120c33.137,0,60-26.863,60-60S93.137,0,60,0S0,26.863,0,60S26.863,120,60,120z"/>
<path fill="none" stroke="#FFFFFF" stroke-miterlimit="10" d="M73,85.056H41v-44h25.043L73,47.931V85.056z"/>
<path fill="none" stroke="#FFFFFF" stroke-miterlimit="10" d="M70.05,48.777h-5v-5"/>
<path fill="none" stroke="#FFFFFF" stroke-miterlimit="10" d="M41.438,80.056H35v-44h17"/>
<path fill="none" stroke="#FFFFFF" stroke-miterlimit="10" d="M54.341,41V30h23.418l7.318,7.222v32.833h-7.318"/>
<path fill="none" stroke="#FFFFFF" stroke-miterlimit="10" d="M83.531,37.556h-5v-5"/>
<path fill="none" stroke="#FFFFFF" stroke-miterlimit="10" d="M47.022,55.333h13.173"/>
<path fill="none" stroke="#FFFFFF" stroke-miterlimit="10" d="M47.022,49.556h13.173"/>
<path fill="none" stroke="#FFFFFF" stroke-miterlimit="10" d="M56.536,77c4.446,0,8.05-3.557,8.05-7.944s-3.604-7.944-8.05-7.944
	c-4.446,0-8.05,3.557-8.05,7.944S52.09,77,56.536,77z"/>
<path fill="none" stroke="#FFFFFF" stroke-miterlimit="10" d="M63.123,74.111l7.318,7.222"/>
<path fill="#1F2432" d="M299,120c33.137,0,60-26.863,60-60S332.137,0,299,0c-33.137,0-60,26.863-60,60S265.863,120,299,120z"/>
<g>
	<defs>
		<rect id="SVGID_1_" x="272" y="32" width="54.373" height="55"/>
	</defs>
	<clipPath id="SVGID_2_">
		<use xlink:href="#SVGID_1_"  overflow="visible"/>
	</clipPath>
	<g clip-path="url(#SVGID_2_)">
		<path fill="none" stroke="#FFFFFF" stroke-miterlimit="10" d="M314.645,56.458v-7.526h-8.779v7.526"/>
		<path fill="none" stroke="#FFFFFF" stroke-miterlimit="10" d="M300.848,57.713V41.407h-8.78v33.865"/>
		<path fill="none" stroke="#FFFFFF" stroke-miterlimit="10" d="M287.051,75.272V32.627h-8.78v42.646"/>
		<path fill="none" stroke="#FFFFFF" stroke-miterlimit="10" d="M294.577,77.781H272"/>
		<path fill="none" stroke="#FFFFFF" stroke-miterlimit="10" d="M309.002,82.798c6.58,0,11.915-5.334,11.915-11.916
			c0-6.581-5.335-11.916-11.915-11.916c-6.581,0-11.916,5.335-11.916,11.916C297.086,77.463,302.421,82.798,309.002,82.798z"/>
		<path fill="none" stroke="#FFFFFF" stroke-miterlimit="10" d="M308.839,79.735c4.872,0,8.821-3.949,8.821-8.821
			s-3.949-8.821-8.821-8.821c-4.871,0-8.82,3.949-8.82,8.821S303.968,79.735,308.839,79.735z"/>
		<path fill="none" stroke="#FFFFFF" stroke-miterlimit="10" d="M318.032,78.659l7.901,7.902"/>
	</g>
</g>
<path fill="#1F2432" d="M538,120c33.137,0,60-26.863,60-60S571.137,0,538,0s-60,26.863-60,60S504.863,120,538,120z"/>
<path fill="none" stroke="#FFFFFF" d="M543.275,68.332l1.67,1.679l3.033-3.049l-1.671-1.68c0.483-0.795,1.1-2.21,1.318-3.094H550
	V57.9h-2.374c-0.219-0.884-0.835-2.342-1.318-3.094l1.671-1.68l-3.033-3.05l-1.67,1.636c-0.791-0.486-2.198-1.105-3.077-1.326V48
	h-4.265v2.387c-0.879,0.221-2.461,0.84-3.209,1.326l-1.67-1.68l-3.033,3.05l1.671,1.679c-0.483,0.796-1.1,2.21-1.318,3.094H526
	v4.287h2.374c0.219,0.884,0.835,2.298,1.318,3.094l-1.671,1.679l3.033,3.05l1.67-1.68c0.791,0.486,2.198,1.105,3.077,1.326V72h4.265
	v-2.387C540.945,69.393,542.527,68.818,543.275,68.332z"/>
<path fill="none" stroke="#FFFFFF" d="M513.5,42.649v-7.353l6.5-4.68l6.5,4.68v7.353l-6.5,4.732L513.5,42.649z"/>
<path fill="none" stroke="#FFFFFF" d="M549.5,83.649v-7.353l6.5-4.68l6.5,4.68v7.353l-6.5,4.732L549.5,83.649z"/>
<path fill="none" stroke="#FFFFFF" d="M523.511,45l6.364,6.364"/>
<path fill="none" stroke="#FFFFFF" d="M547,68l6,6"/>
<path fill="none" stroke="#FFFFFF" d="M562.5,42.649v-7.353l-6.5-4.68l-6.5,4.68v7.353l6.5,4.732L562.5,42.649z"/>
<path fill="none" stroke="#FFFFFF" d="M526.5,83.649v-7.353l-6.5-4.68l-6.5,4.68v7.353l6.5,4.732L526.5,83.649z"/>
<path fill="none" stroke="#FFFFFF" d="M553.18,45.166l-6.363,6.364"/>
<path fill="none" stroke="#FFFFFF" d="M529.673,67.932l-6.364,6.364"/>
<circle fill="none" stroke="#FFFFFF" cx="538" cy="60" r="4.5"/>
<path fill="#1F2432" d="M777,120c33.137,0,60-26.863,60-60S810.137,0,777,0s-60,26.863-60,60S743.863,120,777,120z"/>
<path fill="none" stroke="#FFFFFF" stroke-miterlimit="10" d="M781.501,58.805l-1.65-3.974l-2.413,0.808
	c-0.674-0.943-1.481-1.74-2.392-2.391l0.81-2.424l-3.975-1.65l-1.145,2.278c-1.101-0.179-2.245-0.19-3.378,0l-1.146-2.278
	l-3.974,1.65l0.808,2.414c-0.941,0.673-1.739,1.481-2.39,2.391l-2.425-0.808l-1.65,3.974l2.279,1.145
	c-0.181,1.1-0.191,2.245,0,3.378l-2.279,1.145l1.65,3.973l2.412-0.808c0.675,0.943,1.482,1.74,2.392,2.391l-0.808,2.424l3.984,1.65
	l1.146-2.278c1.1,0.179,2.245,0.19,3.378,0l1.145,2.278l3.975-1.65l-0.81-2.413c0.943-0.674,1.74-1.482,2.392-2.391l2.425,0.808
	l1.639-3.974l-2.279-1.145c0.181-1.1,0.191-2.245,0-3.379L781.501,58.805z"/>
<path fill="none" stroke="#FFFFFF" stroke-miterlimit="10" d="M769.199,65.887c2.262,0,4.097-1.834,4.097-4.097
	s-1.835-4.097-4.097-4.097c-2.264,0-4.098,1.834-4.098,4.097S766.936,65.887,769.199,65.887z"/>
<path fill="none" stroke="#FFFFFF" stroke-miterlimit="10" d="M800.899,74.811l-1.314-3.166l-1.93,0.64
	c-0.539-0.752-1.18-1.392-1.908-1.908l0.639-1.931l-3.165-1.313l-0.908,1.818c-0.877-0.146-1.785-0.157-2.694,0l-0.909-1.818
	l-3.165,1.313l0.639,1.931c-0.752,0.539-1.392,1.178-1.907,1.908l-1.931-0.64l-1.313,3.166l1.818,0.909
	c-0.146,0.875-0.157,1.785,0,2.694l-1.818,0.909l1.313,3.165l1.931-0.64c0.539,0.752,1.179,1.392,1.907,1.908l-0.639,1.931
	L788.709,87l0.909-1.819c0.876,0.146,1.785,0.157,2.694,0L793.221,87l3.165-1.313l-0.639-1.931c0.752-0.539,1.392-1.179,1.908-1.908
	l1.93,0.64l1.314-3.165l-1.819-0.909c0.146-0.875,0.158-1.785,0-2.694L800.899,74.811z"/>
<path fill="none" stroke="#FFFFFF" stroke-miterlimit="10" d="M794.366,77.202c0,1.807-1.459,3.266-3.268,3.266
	c-1.807,0-3.266-1.459-3.266-3.266c0-1.808,1.459-3.267,3.266-3.267C792.895,73.924,794.366,75.395,794.366,77.202z"/>
<path fill="none" stroke="#FFFFFF" stroke-miterlimit="10" d="M757.367,52.204V35.367h31.429l6.735,6.735v22.449"/>
<path fill="none" stroke="#FFFFFF" stroke-miterlimit="10" d="M793.287,44.347h-6.735v-6.735"/>
<path fill="none" stroke="#FFFFFF" stroke-miterlimit="10" d="M754,48.837V32h31.429"/>
<path fill="#1F2432" d="M1016,120c33.14,0,60-26.863,60-60s-26.86-60-60-60c-33.137,0-60,26.863-60,60S982.863,120,1016,120z"/>
<path fill="none" stroke="#FFFFFF" d="M1009.62,79.645h12.76 M1009.62,79.645c0,0-0.53-4.384-2.05-9.806 M1009.62,79.645L1002,87
	l0.06-11.645l5.511-5.516 M1022.38,79.645L1030,87l-0.061-11.645l-5.569-5.516 M1022.38,79.645c0,0,0.54-4.226,1.99-9.806
	 M1024.37,69.839c0,0,3.63-16.339,3.63-19.839c0-11.5-12.3-20-12.3-20s-11.7,8-11.7,20c0,2.5,3.57,19.839,3.57,19.839"/>
<path fill="none" stroke="#FFFFFF" d="M1016,79.5v10"/>
<path fill="none" stroke="#FFFFFF" d="M1010,84v5"/>
<path fill="none" stroke="#FFFFFF" d="M1022,84v5"/>
<path fill="none" stroke="#FFFFFF" d="M994,63v26"/>
<path fill="none" stroke="#FFFFFF" d="M1038,63v26"/>
<circle fill="none" stroke="#FFFFFF" cx="1016" cy="45" r="5.5"/>
<path fill="#00DCE6" d="M120,61h119v-2H120V61z"/>
<path fill="none" stroke="#00DCE6" stroke-width="2" d="M225,74l14-14l-14-14"/>
<path fill="#00DCE6" fill-opacity="0.2" d="M120,73.974c7.732,0,14-6.262,14-13.987S127.732,46,120,46s-14,6.262-14,13.987
	S112.268,73.974,120,73.974z"/>
<path fill="#00DCE6" d="M120,63.982c2.209,0,4-1.789,4-3.996s-1.791-3.996-4-3.996s-4,1.789-4,3.996S117.791,63.982,120,63.982z"/>
<path fill="#00DCE6" d="M359,61h119v-2H359V61z"/>
<path fill="none" stroke="#00DCE6" stroke-width="2" d="M464,74l14-14l-14-14"/>
<path fill="#00DCE6" fill-opacity="0.2" d="M359,73.974c7.732,0,14-6.262,14-13.987S366.732,46,359,46s-14,6.262-14,13.987
	S351.268,73.974,359,73.974z"/>
<path fill="#00DCE6" d="M359,63.982c2.209,0,4-1.789,4-3.996s-1.791-3.996-4-3.996s-4,1.789-4,3.996S356.791,63.982,359,63.982z"/>
<path fill="#00DCE6" d="M598,61h119v-2H598V61z"/>
<path fill="none" stroke="#00DCE6" stroke-width="2" d="M703,74l14-14l-14-14"/>
<path fill="#00DCE6" fill-opacity="0.2" d="M598,73.974c7.732,0,14-6.262,14-13.987S605.732,46,598,46s-14,6.262-14,13.987
	S590.268,73.974,598,73.974z"/>
<path fill="#00DCE6" d="M598,63.982c2.209,0,4-1.789,4-3.996s-1.791-3.996-4-3.996s-4,1.789-4,3.996S595.791,63.982,598,63.982z"/>
<path fill="#00DCE6" d="M837,61h119v-2H837V61z"/>
<path fill="none" stroke="#00DCE6" stroke-width="2" d="M942,74l14-14l-14-14"/>
<path fill="#00DCE6" fill-opacity="0.2" d="M837,73.974c7.732,0,14-6.262,14-13.987S844.732,46,837,46s-14,6.262-14,13.987
	S829.268,73.974,837,73.974z"/>
<path fill="#00DCE6" d="M837,63.982c2.209,0,4-1.789,4-3.996s-1.791-3.996-4-3.996s-4,1.789-4,3.996S834.791,63.982,837,63.982z"/>
<text transform="matrix(1 0 0 1 27.5 165.5)" font-family="'MicrosoftYaHeiLight'" font-size="14">需求分析</text>
<text transform="matrix(1 0 0 1 222 167.5)" font-family="'MicrosoftYaHeiLight'" font-size="14">分析市场契合度和竞争者</text>
<text transform="matrix(1 0 0 1 509.5 165.5)" font-family="'MicrosoftYaHeiLight'" font-size="14">准备用例</text>
<text transform="matrix(1 0 0 1 709.5 166.5)" font-family="'MicrosoftYaHeiLight'" font-size="14">实施区块链方案的技术概述</text>
<text transform="matrix(1 0 0 1 957.5 166.5)" font-family="'MicrosoftYaHeiLight'" font-size="14">项目试点/POC测试</text>
<text transform="matrix(1 0 0 1 28 220.5)"><tspan x="0" y="0" font-family="'MicrosoftYaHeiLight'" font-size="12">考察、分析、</tspan><tspan x="0" y="20.4" font-family="'MicrosoftYaHeiLight'" font-size="12">记录项目需求。</tspan></text>
<text transform="matrix(1 0 0 1 221 220.5)"><tspan x="0" y="0" font-family="'MicrosoftYaHeiLight'" font-size="12">对项目进行评估，</tspan><tspan x="0" y="20.4" font-family="'MicrosoftYaHeiLight'" font-size="12">确定市场或公司内部的需求程度，</tspan><tspan x="0" y="40.8" font-family="'MicrosoftYaHeiLight'" font-size="12">同时和同行业企业进行比较分析，</tspan><tspan x="0" y="61.2" font-family="'MicrosoftYaHeiLight'" font-size="12">找出该项目相对于竞争对手的优缺点。</tspan></text>
<text transform="matrix(1 0 0 1 469 220.5)"><tspan x="0" y="0" font-family="'MicrosoftYaHeiLight'" font-size="12">创建项目、行业或竞争对手的用例：</tspan><tspan x="0" y="20.4" font-family="'MicrosoftYaHeiLight'" font-size="12">创建不同的角色，</tspan><tspan x="0" y="40.8" font-family="'MicrosoftYaHeiLight'" font-size="12">并确定其功能、条件、描述活动和交互，</tspan><tspan x="0" y="61.2" font-family="'MicrosoftYaHeiLight'" font-size="12">并转移到项目的需求当中。</tspan></text>
<text transform="matrix(1 0 0 1 709.5 221.5)"><tspan x="0" y="0" font-family="'MicrosoftYaHeiLight'" font-size="12">由区块链专家评估、审查项目的需求，</tspan><tspan x="0" y="20.4" font-family="'MicrosoftYaHeiLight'" font-size="12">并做技术选型</tspan><tspan x="0" y="40.8" font-family="'MicrosoftYaHeiLight'" font-size="12">包括区块链平台、框架、其它工具等。</tspan></text>
<text transform="matrix(1 0 0 1 948.5 221.5)"><tspan x="0" y="0" font-family="'MicrosoftYaHeiLight'" font-size="12">对项目进行试点和概念的验证，</tspan><tspan x="0" y="20.4" font-family="'MicrosoftYaHeiLight'" font-size="12">让大型项目在正式运行之前</tspan><tspan x="0" y="40.8" font-family="'MicrosoftYaHeiLight'" font-size="12">识别、评估和演示区块链解决方案的成果。</tspan></text>
</svg>
