<?xml version="1.0" encoding="utf-8"?>
<!-- Generator: Adobe Illustrator 15.0.0, SVG Export Plug-In . SVG Version: 6.00 Build 0)  -->
<!DOCTYPE svg PUBLIC "-//W3C//DTD SVG 1.1//EN" "http://www.w3.org/Graphics/SVG/1.1/DTD/svg11.dtd">
<svg version="1.1" id="图层_1" xmlns="http://www.w3.org/2000/svg" xmlns:xlink="http://www.w3.org/1999/xlink" x="0px" y="0px"
	 width="940px" height="391px" viewBox="0 0 940 391" enable-background="new 0 0 940 391" xml:space="preserve">
<path fill="#1F2432" d="M60,120.922c33.137,0,60-26.863,60-60s-26.863-60-60-60s-60,26.863-60,60S26.863,120.922,60,120.922z"/>
<g>
	<defs>
		<rect id="SVGID_1_" x="33" y="29.922" width="54" height="57"/>
	</defs>
	<clipPath id="SVGID_2_">
		<use xlink:href="#SVGID_1_"  overflow="visible"/>
	</clipPath>
	<g clip-path="url(#SVGID_2_)">
		<path fill="none" stroke="#FFFFFF" stroke-miterlimit="10" d="M73,85.978H41v-44h25.043L73,48.853V85.978z"/>
		<path fill="none" stroke="#FFFFFF" stroke-miterlimit="10" d="M70.051,49.699h-5v-5"/>
		<path fill="none" stroke="#FFFFFF" stroke-miterlimit="10" d="M41.438,80.978H35v-44h17"/>
		<path fill="none" stroke="#FFFFFF" stroke-miterlimit="10" d="M54.342,41.922v-11H77.76l7.318,7.222v32.833H77.76"/>
		<path fill="none" stroke="#FFFFFF" stroke-miterlimit="10" d="M83.531,38.478h-5v-5"/>
		<path fill="none" stroke="#FFFFFF" stroke-miterlimit="10" d="M47.023,56.255h13.173"/>
		<path fill="none" stroke="#FFFFFF" stroke-miterlimit="10" d="M47.023,50.478h13.173"/>
		<path fill="none" stroke="#FFFFFF" stroke-miterlimit="10" d="M56.536,77.922c4.446,0,8.05-3.557,8.05-7.944
			s-3.604-7.944-8.05-7.944c-4.446,0-8.05,3.557-8.05,7.944S52.09,77.922,56.536,77.922z"/>
		<path fill="none" stroke="#FFFFFF" stroke-miterlimit="10" d="M63.123,75.033l7.318,7.222"/>
	</g>
</g>
<path fill="#1F2432" d="M253,120.922c33.137,0,60-26.863,60-60s-26.863-60-60-60s-60,26.863-60,60S219.863,120.922,253,120.922z"/>
<g>
	<defs>
		<rect id="SVGID_3_" x="226" y="32.922" width="54.373" height="55"/>
	</defs>
	<clipPath id="SVGID_4_">
		<use xlink:href="#SVGID_3_"  overflow="visible"/>
	</clipPath>
	<g clip-path="url(#SVGID_4_)">
		<path fill="none" stroke="#FFFFFF" stroke-miterlimit="10" d="M268.645,57.38v-7.525h-8.78v7.525"/>
		<path fill="none" stroke="#FFFFFF" stroke-miterlimit="10" d="M254.848,58.635V42.329h-8.78v33.865"/>
		<path fill="none" stroke="#FFFFFF" stroke-miterlimit="10" d="M241.051,76.194V33.549h-8.78v42.646"/>
		<path fill="none" stroke="#FFFFFF" stroke-miterlimit="10" d="M248.577,78.703H226"/>
		<path fill="none" stroke="#FFFFFF" stroke-miterlimit="10" d="M263.002,83.72c6.58,0,11.915-5.334,11.915-11.916
			c0-6.581-5.335-11.916-11.915-11.916c-6.581,0-11.916,5.335-11.916,11.916C251.086,78.385,256.421,83.72,263.002,83.72z"/>
		<path fill="none" stroke="#FFFFFF" stroke-miterlimit="10" d="M262.84,80.657c4.872,0,8.821-3.949,8.821-8.821
			s-3.949-8.821-8.821-8.821c-4.871,0-8.82,3.949-8.82,8.821S257.969,80.657,262.84,80.657z"/>
		<path fill="none" stroke="#FFFFFF" stroke-miterlimit="10" d="M272.031,79.581l7.902,7.902"/>
	</g>
</g>
<path fill="#1F2432" d="M446,120.922c33.137,0,60-26.863,60-60s-26.863-60-60-60s-60,26.863-60,60S412.863,120.922,446,120.922z"/>
<path fill="none" stroke="#FFFFFF" d="M451.275,69.253l1.67,1.68l3.032-3.05l-1.67-1.68c0.483-0.795,1.1-2.21,1.318-3.094H458
	v-4.288h-2.374c-0.219-0.884-0.835-2.342-1.318-3.094l1.67-1.68l-3.032-3.05l-1.67,1.636c-0.791-0.486-2.198-1.105-3.077-1.326
	v-2.387h-4.265v2.387c-0.879,0.221-2.461,0.84-3.209,1.326l-1.67-1.68l-3.032,3.05l1.67,1.68c-0.483,0.795-1.1,2.21-1.318,3.094H434
	v4.287h2.374c0.219,0.884,0.835,2.298,1.318,3.094l-1.67,1.68l3.032,3.05l1.67-1.68c0.791,0.486,2.198,1.105,3.077,1.326v2.387
	h4.265v-2.387C448.945,70.314,450.527,69.74,451.275,69.253z"/>
<path fill="none" stroke="#FFFFFF" d="M421.5,43.571v-7.353l6.5-4.68l6.5,4.68v7.353l-6.5,4.732L421.5,43.571z"/>
<path fill="none" stroke="#FFFFFF" d="M457.5,84.571v-7.353l6.5-4.68l6.5,4.68v7.353l-6.5,4.732L457.5,84.571z"/>
<path fill="none" stroke="#FFFFFF" d="M431.51,45.922l6.364,6.364"/>
<path fill="none" stroke="#FFFFFF" d="M455,68.922l6,6"/>
<path fill="none" stroke="#FFFFFF" d="M470.5,43.571v-7.353l-6.5-4.68l-6.5,4.68v7.353l6.5,4.732L470.5,43.571z"/>
<path fill="none" stroke="#FFFFFF" d="M434.5,84.571v-7.353l-6.5-4.68l-6.5,4.68v7.353l6.5,4.732L434.5,84.571z"/>
<path fill="none" stroke="#FFFFFF" d="M461.18,46.088l-6.363,6.364"/>
<path fill="none" stroke="#FFFFFF" d="M437.674,68.854l-6.364,6.364"/>
<circle fill="none" stroke="#FFFFFF" cx="446" cy="60.922" r="4.5"/>
<path fill="#1F2432" d="M638,120.922c33.137,0,60-26.863,60-60s-26.863-60-60-60s-60,26.863-60,60S604.863,120.922,638,120.922z"/>
<path fill="none" stroke="#FFFFFF" stroke-miterlimit="10" d="M642.501,59.727l-1.65-3.974l-2.413,0.808
	c-0.674-0.943-1.481-1.74-2.392-2.391l0.81-2.425l-3.975-1.65l-1.145,2.278c-1.101-0.179-2.245-0.19-3.378,0l-1.146-2.278
	l-3.974,1.65l0.808,2.414c-0.941,0.673-1.739,1.481-2.39,2.391l-2.425-0.808l-1.65,3.974l2.279,1.145
	c-0.181,1.1-0.191,2.245,0,3.378l-2.279,1.145l1.65,3.973l2.412-0.808c0.675,0.943,1.482,1.74,2.392,2.391l-0.808,2.425l3.984,1.65
	l1.146-2.278c1.1,0.179,2.245,0.191,3.378,0l1.145,2.278l3.975-1.65l-0.81-2.413c0.943-0.674,1.74-1.482,2.392-2.391l2.425,0.808
	l1.639-3.974l-2.279-1.145c0.181-1.1,0.191-2.245,0-3.379L642.501,59.727z"/>
<path fill="none" stroke="#FFFFFF" stroke-miterlimit="10" d="M630.199,66.809c2.262,0,4.097-1.834,4.097-4.097
	s-1.835-4.097-4.097-4.097c-2.264,0-4.098,1.834-4.098,4.097S627.936,66.809,630.199,66.809z"/>
<path fill="none" stroke="#FFFFFF" stroke-miterlimit="10" d="M661.899,75.732l-1.314-3.166l-1.93,0.64
	c-0.539-0.752-1.18-1.392-1.908-1.908l0.639-1.931l-3.165-1.313l-0.908,1.818c-0.877-0.146-1.785-0.157-2.694,0l-0.909-1.818
	l-3.165,1.313l0.639,1.931c-0.752,0.539-1.392,1.178-1.907,1.908l-1.931-0.64l-1.313,3.166l1.818,0.909
	c-0.146,0.875-0.157,1.785,0,2.694l-1.818,0.909l1.313,3.166l1.931-0.64c0.539,0.752,1.179,1.392,1.907,1.908l-0.639,1.931
	l3.165,1.313l0.909-1.818c0.876,0.146,1.785,0.157,2.694,0l0.908,1.818l3.165-1.313l-0.639-1.931
	c0.752-0.539,1.392-1.179,1.908-1.908l1.93,0.64l1.314-3.166l-1.819-0.909c0.146-0.875,0.158-1.785,0-2.694L661.899,75.732z"/>
<path fill="none" stroke="#FFFFFF" stroke-miterlimit="10" d="M655.367,78.124c0,1.807-1.46,3.266-3.268,3.266
	c-1.807,0-3.266-1.459-3.266-3.266s1.459-3.267,3.266-3.267C653.896,74.846,655.367,76.317,655.367,78.124z"/>
<path fill="none" stroke="#FFFFFF" stroke-miterlimit="10" d="M618.367,53.126V36.289h31.429l6.735,6.735v22.449"/>
<path fill="none" stroke="#FFFFFF" stroke-miterlimit="10" d="M654.286,45.269h-6.735v-6.735"/>
<path fill="none" stroke="#FFFFFF" stroke-miterlimit="10" d="M615,49.759V32.922h31.429"/>
<path fill="#1F2432" d="M831,120.922c33.137,0,60-26.863,60-60s-26.863-60-60-60s-60,26.863-60,60S797.863,120.922,831,120.922z"/>
<path fill="none" stroke="#FFFFFF" d="M824.623,80.567h12.754 M824.623,80.567c0,0-0.53-4.384-2.055-9.806 M824.623,80.567
	L817,87.922l0.061-11.645l5.508-5.516 M837.377,80.567L845,87.922l-0.061-11.645l-5.569-5.516 M837.377,80.567
	c0,0,0.545-4.227,1.993-9.806 M839.37,70.761c0,0,3.63-16.339,3.63-19.839c0-11.5-12.304-20-12.304-20s-11.696,8-11.696,20
	c0,2.5,3.568,19.839,3.568,19.839"/>
<path fill="none" stroke="#FFFFFF" d="M831,80.422v10"/>
<path fill="none" stroke="#FFFFFF" d="M825,84.922v5"/>
<path fill="none" stroke="#FFFFFF" d="M837,84.922v5"/>
<path fill="none" stroke="#FFFFFF" d="M809,63.922v26"/>
<path fill="none" stroke="#FFFFFF" d="M853,63.922v26"/>
<circle fill="none" stroke="#FFFFFF" cx="831" cy="45.922" r="5.5"/>
<path fill="#00DCE6" d="M122.449,62h71v-2h-71V62z"/>
<path fill="none" stroke="#00DCE6" stroke-width="2" d="M179,75l14-14l-14-14"/>
<path fill="#00DCE6" fill-opacity="0.2" d="M120,74.974c7.732,0,14-6.262,14-13.987S127.732,47,120,47s-14,6.262-14,13.987
	S112.268,74.974,120,74.974z"/>
<path fill="#00DCE6" d="M120,64.982c2.209,0,4-1.789,4-3.996s-1.791-3.996-4-3.996s-4,1.789-4,3.996S117.791,64.982,120,64.982z"/>
<path fill="#00DCE6" d="M314.449,62h72v-2h-72V62z"/>
<path fill="none" stroke="#00DCE6" stroke-width="2" d="M372,75l14-14l-14-14"/>
<path fill="#00DCE6" fill-opacity="0.2" d="M312,74.974c7.732,0,14-6.262,14-13.987S319.732,47,312,47c-7.732,0-14,6.262-14,13.987
	S304.268,74.974,312,74.974z"/>
<path fill="#00DCE6" d="M312,64.982c2.209,0,4-1.789,4-3.996s-1.791-3.996-4-3.996s-4,1.789-4,3.996S309.791,64.982,312,64.982z"/>
<path fill="#00DCE6" d="M507.449,62h71v-2h-71V62z"/>
<path fill="none" stroke="#00DCE6" stroke-width="2" d="M564,75l14-14l-14-14"/>
<path fill="#00DCE6" fill-opacity="0.2" d="M505,74.974c7.732,0,14-6.262,14-13.987S512.732,47,505,47s-14,6.262-14,13.987
	S497.268,74.974,505,74.974z"/>
<path fill="#00DCE6" d="M505,64.982c2.209,0,4-1.789,4-3.996s-1.791-3.996-4-3.996s-4,1.789-4,3.996S502.791,64.982,505,64.982z"/>
<path fill="#00DCE6" d="M699.449,62h72v-2h-72V62z"/>
<path fill="none" stroke="#00DCE6" stroke-width="2" d="M757,75l14-14l-14-14"/>
<path fill="#00DCE6" fill-opacity="0.2" d="M697,74.974c7.732,0,14-6.262,14-13.987S704.732,47,697,47s-14,6.262-14,13.987
	S689.268,74.974,697,74.974z"/>
<path fill="#00DCE6" d="M697,64.982c2.209,0,4-1.789,4-3.996s-1.791-3.996-4-3.996s-4,1.789-4,3.996S694.791,64.982,697,64.982z"/>
<text transform="matrix(1 0 0 1 26.5 166.4648)" font-family="'MicrosoftYaHeiLight'" font-size="14">需求分析</text>
<text transform="matrix(1 0 0 1 26.5 219.7803)"><tspan x="0" y="0" font-family="'MicrosoftYaHeiLight'" font-size="12">考察、分析、</tspan><tspan x="0" y="20.4" font-family="'MicrosoftYaHeiLight'" font-size="12">记录项目需求。</tspan></text>
<text transform="matrix(1 0 0 1 194 167)"><tspan x="0" y="0" font-family="'MicrosoftYaHeiLight'" font-size="14">分析市场契合度和</tspan><tspan x="0" y="16.8" font-family="'MicrosoftYaHeiLight'" font-size="14">竞争者</tspan></text>
<text transform="matrix(1 0 0 1 404.5 165)" font-family="'MicrosoftYaHeiLight'" font-size="14">准备用例</text>
<text transform="matrix(1 0 0 1 578.5 166)"><tspan x="0" y="0" font-family="'MicrosoftYaHeiLight'" font-size="14">实施区块链方案的</tspan><tspan x="0" y="16.8" font-family="'MicrosoftYaHeiLight'" font-size="14">技术概述</tspan></text>
<text transform="matrix(1 0 0 1 769.5 166)" font-family="'MicrosoftYaHeiLight'" font-size="14">项目试点/POC测试</text>
<text transform="matrix(1 0 0 1 194 220)"><tspan x="0" y="0" font-family="'MicrosoftYaHeiLight'" font-size="12">对项目进行评估，</tspan><tspan x="0" y="20.4" font-family="'MicrosoftYaHeiLight'" font-size="12">确定市场或公司内部的</tspan><tspan x="0" y="40.8" font-family="'MicrosoftYaHeiLight'" font-size="12">需求程度，同时和同行业企业</tspan><tspan x="0" y="61.2" font-family="'MicrosoftYaHeiLight'" font-size="12">进行比较分析，</tspan><tspan x="0" y="81.6" font-family="'MicrosoftYaHeiLight'" font-size="12">找出该项目相对于</tspan><tspan x="0" y="102" font-family="'MicrosoftYaHeiLight'" font-size="12">竞争对手的优缺点。</tspan></text>
<text transform="matrix(1 0 0 1 404 220)"><tspan x="0" y="0" font-family="'MicrosoftYaHeiLight'" font-size="12">创建项目、行业或竞争对手的</tspan><tspan x="0" y="20.4" font-family="'MicrosoftYaHeiLight'" font-size="12">用例：创建不同的角色，</tspan><tspan x="0" y="40.8" font-family="'MicrosoftYaHeiLight'" font-size="12">并确定其功能、条件、</tspan><tspan x="0" y="61.2" font-family="'MicrosoftYaHeiLight'" font-size="12">描述活动和交互，</tspan><tspan x="0" y="81.6" font-family="'MicrosoftYaHeiLight'" font-size="12">并转移到项目的需求当中。</tspan></text>
<text transform="matrix(1 0 0 1 578.5 221)"><tspan x="0" y="0" font-family="'MicrosoftYaHeiLight'" font-size="12">由区块链专家评估、审查</tspan><tspan x="0" y="20.4" font-family="'MicrosoftYaHeiLight'" font-size="12">项目的需求，做技术选型</tspan><tspan x="0" y="40.8" font-family="'MicrosoftYaHeiLight'" font-size="12">包括区块链平台、框架、</tspan><tspan x="0" y="61.2" font-family="'MicrosoftYaHeiLight'" font-size="12">其它工具等。</tspan></text>
<text transform="matrix(1 0 0 1 769.5 221)"><tspan x="0" y="0" font-family="'MicrosoftYaHeiLight'" font-size="12">对项目进行试点和</tspan><tspan x="0" y="20.4" font-family="'MicrosoftYaHeiLight'" font-size="12">概念的验证，</tspan><tspan x="0" y="40.8" font-family="'MicrosoftYaHeiLight'" font-size="12">让大型项目在正式运行之前</tspan><tspan x="0" y="61.2" font-family="'MicrosoftYaHeiLight'" font-size="12">识别、评估和</tspan><tspan x="0" y="81.6" font-family="'MicrosoftYaHeiLight'" font-size="12">演示区块链解决方案的成果。</tspan></text>
</svg>
