<svg width="88" height="88" viewBox="0 0 88 88" fill="none" xmlns="http://www.w3.org/2000/svg">
<rect width="86.2159" height="86.2159" fill="black" fill-opacity="0" transform="translate(1 1)"/>
<path fill-rule="evenodd" clip-rule="evenodd" d="M1 44C1 20.2518 20.2518 1 44 1C67.7482 1 87 20.2518 87 44C87 67.7482 67.7482 87 44 87C20.2518 87 1 67.7482 1 44Z" stroke="white"/>
<path d="M44.5 29.5C38.4 29.5 33.5 34.4 33.5 40.5C33.5 46.6 38.4 51.5 44.5 51.5C50.6 51.5 55.5 46.6 55.5 40.5C55.5 34.4 50.6 29.5 44.5 29.5ZM43.8 30.5V42.2L36.7 46.7C35.3 45 34.5 42.8 34.5 40.5C34.5 35.2 38.6 30.9 43.8 30.5ZM37.4 47.5L44.3 43.1L51.3 47.9C49.5 49.5 47.1 50.6 44.5 50.6C41.7 50.5 39.2 49.4 37.4 47.5ZM52 47.1L44.8 42.2V30.5C50.2 30.6 54.5 35.1 54.5 40.5C54.5 43 53.5 45.3 52 47.1Z" fill="white"/>
<path d="M63 40C62.7 40 62.5 40.2 62.5 40.5C62.5 43.8 61.6 47.1 59.8 50C59.7 50.2 59.7 50.5 60 50.7C60.1 50.8 60.2 50.8 60.3 50.8C60.5 50.8 60.6 50.7 60.7 50.6C62.6 47.6 63.5 44.2 63.5 40.6C63.5 40.2 63.3 40 63 40Z" fill="white"/>
<path d="M44.4 15L19 31.1V58.9L38.3 71H40.2L20.3 58.5L29.7 52.4C30.9 53.9 32.4 55.2 34 56.3C34.1 56.4 34.2 56.4 34.3 56.4C34.5 56.4 34.6 56.3 34.7 56.2C34.9 56 34.8 55.7 34.6 55.5C33.1 54.5 31.7 53.3 30.6 51.9L33.2 50.3C35.2 52.7 38 54.4 41.1 55.1V66C41.1 67.6 42.4 69 44.1 69C45.8 69 47.1 67.6 47.1 66V55.3C50.4 54.7 53.4 53.1 55.6 50.7L67.5 58.8L48.9 71H50.7L69 58.9V31.1L44.4 15ZM29.9 51.1C29 49.9 28.3 48.6 27.7 47.2C27.6 46.9 27.3 46.8 27 46.9C26.7 47 26.6 47.3 26.7 47.5C27.3 49 28.1 50.3 29 51.6L20 57.5V31.7L43.8 16.6V25.5C44 25.5 44.1 25.5 44.3 25.5H44.4C36.2 25.6 29.5 32.2 29.5 40.5C29.5 43.9 30.6 47 32.5 49.5L29.9 51.1ZM46.8 54.3L46 54.4V66C46 67.1 45.1 68 44 68C42.9 68 42 67.1 42 66V54.3L41.2 54.1C34.9 52.6 30.5 47 30.5 40.5C30.5 32.8 36.8 26.5 44.5 26.5C52.2 26.5 58.5 32.8 58.5 40.5C58.5 47.4 53.6 53.2 46.8 54.3ZM59.5 40.5C59.5 32.3 52.9 25.7 44.8 25.5V16.4L68 31.7V58L56.1 49.9C58.2 47.4 59.5 44.1 59.5 40.5Z" fill="white"/>
</svg>
