<svg width="88" height="88" viewBox="0 0 88 88" fill="none" xmlns="http://www.w3.org/2000/svg">
<rect width="86" height="86.2159" fill="black" fill-opacity="0" transform="translate(1 1)"/>
<path fill-rule="evenodd" clip-rule="evenodd" d="M1 44C1 20.2518 20.2518 1 44 1C67.7482 1 87 20.2518 87 44C87 67.7482 67.7482 87 44 87C20.2518 87 1 67.7482 1 44Z" stroke="white"/>
<path fill-rule="evenodd" clip-rule="evenodd" d="M45.7999 22.2C51.9999 22.8 57.3999 26.1001 60.7999 30.8999L49.7999 37.1001L53.1999 37.7L52.9999 38.7L47.4999 37.7L43.7999 30L40.1999 37.7L34.6999 38.7L34.4999 37.7L37.8999 37.1001L26.7999 30.6001C30.2999 25.8999 35.5999 22.6001 41.7999 22.1001V21.5C40.5999 20.7 39.6999 19.2 39.6999 17.5C39.6999 15 41.4999 13 43.6999 13C45.8999 13 47.6999 15 47.6999 17.5C47.6999 19.1001 46.8999 20.5 45.7999 21.3V22.2ZM44.135 28.4705L44.6999 29.6001L48.1999 36.7H48.3999L59.2999 30.5C56.5899 27.1523 52.9269 24.7576 48.8679 23.6704C48.3857 24.9036 46.6457 28.1274 44.135 28.4705ZM43.4546 28.4905L42.8999 29.6001L39.3999 36.7H39.1999L28.2999 30.3C30.9466 27.1084 34.5023 24.8257 38.4481 23.7351C39.0834 25.0449 40.8853 28.2932 43.4546 28.4905ZM39.417 23.4932C40.0609 24.8003 41.6294 27.5 43.5999 27.5C45.5049 27.5 47.11 24.9509 47.8308 23.4231C47.1297 23.2761 46.4185 23.168 45.6999 23.1001L44.7999 23V20.8L45.1999 20.5C46.1999 19.8 46.6999 18.7 46.6999 17.5C46.6999 15.6001 45.3999 14 43.6999 14C41.9999 14 40.6999 15.6001 40.6999 17.5C40.6999 18.8 41.2999 20 42.2999 20.6001L42.7999 20.8999V23L41.8999 23.1001C41.0608 23.1792 40.2317 23.311 39.417 23.4932Z" fill="white"/>
<path fill-rule="evenodd" clip-rule="evenodd" d="M23.6999 52.7002C21.2999 47.1001 21.4999 40.9001 23.8999 35.6001L30.7999 39.8L36.7999 45.7002L35.3999 54L40.6999 51.1001L40.5999 65.1001C34.6999 64.5 29.0999 61.4001 25.5999 56.2002L24.6999 56.7002C24.6999 58.2002 23.7999 59.7002 22.2999 60.5C21.4999 60.9001 20.6999 61.1001 19.8999 61.1001C18.3999 61.1001 17.0999 60.5 16.3999 59.2002C15.2999 57.3 16.1999 54.7002 18.3999 53.5C19.1999 53.1001 19.9999 52.9001 20.7999 52.9001C21.4999 52.9001 22.0999 53 22.6999 53.3L23.6999 52.7002ZM28.8548 58.4749C31.7474 61.3757 35.526 63.3083 39.5999 64L39.6999 52.9001L35.8999 54.9001L34.0999 55.8L34.3999 53.8L35.6999 46L30.1999 40.6001L24.2999 37.1001C22.7728 41.0383 22.5377 45.364 23.5945 49.4546C25.0165 49.3364 29.0652 49.1807 30.3999 51.6001C31.6972 53.8706 29.7074 57.1926 28.8548 58.4749ZM28.1619 57.7424C28.9723 56.511 30.4757 53.8267 29.4999 52.1001C28.4957 50.3235 25.2837 50.3367 23.874 50.4348C24.0813 51.0984 24.3232 51.7546 24.5999 52.4001L24.9999 53.2002L24.2999 53.5L22.7999 54.4001L22.2999 54.2002C21.8999 54 21.3999 53.9001 20.8999 53.9001C20.1999 53.9001 19.5999 54.1001 18.9999 54.4001C17.2999 55.3 16.5999 57.3 17.3999 58.7002C17.8999 59.6001 18.8999 60.1001 19.9999 60.1001C20.5999 60.1001 21.2999 60 21.8999 59.6001C22.9999 59 23.7999 57.9001 23.7999 56.7002V56.1001L24.2999 55.8L25.1999 55.3L25.9999 54.9001L26.4999 55.6001C27.0049 56.3577 27.561 57.0728 28.1619 57.7424Z" fill="white"/>
<path fill-rule="evenodd" clip-rule="evenodd" d="M63.6999 35.6001L56.7999 39.8L50.7999 45.7002L52.1999 54L46.7999 51.2002L46.9999 65.2002C52.7999 64.5 58.2999 61.5 61.8999 56.4001L62.4999 56.7002C62.5999 58.2002 63.3999 59.6001 64.8999 60.5C65.6999 60.9001 66.4999 61.1001 67.2999 61.1001C68.7999 61.1001 70.0999 60.4001 70.7999 59.2002C71.8999 57.3 70.9999 54.7002 68.7999 53.5C67.9999 53.1001 67.1999 52.9001 66.3999 52.9001C65.6999 52.9001 65.0999 53 64.4999 53.3L63.7999 52.9001C66.3999 47.2002 66.1999 41 63.6999 35.6001ZM60.9999 55.8C60.5218 56.4788 60.0056 57.1216 59.4554 57.7271C58.6494 56.4927 57.117 53.8391 58.0999 52.1001C59.1125 50.3086 62.37 50.3372 63.7608 50.4373C63.544 51.1343 63.2901 51.823 62.9999 52.5L62.5999 53.3L63.3999 53.7002L64.0999 54.1001L64.5999 54.4001L65.0999 54.2002C65.4999 54 65.9999 53.9001 66.4999 53.9001C67.0999 53.9001 67.7999 54.1001 68.3999 54.4001C70.0999 55.3 70.7999 57.3 69.9999 58.7002C69.4999 59.6001 68.4999 60.1001 67.3999 60.1001C66.7999 60.1001 66.0999 59.9001 65.4999 59.6001C64.3999 59 63.5999 57.8 63.5999 56.7002V56.1001L61.5999 55.1001L60.9999 55.8ZM63.2999 37.1001C64.8947 41.0872 65.0907 45.3923 64.0397 49.4575C62.6499 49.3391 58.5456 49.1609 57.1999 51.6001C55.9055 53.946 57.8835 57.2085 58.7393 58.4751C55.8128 61.3767 52.0587 63.2976 47.9999 64L47.8999 52.8L51.7999 54.8L53.5999 55.7002L53.2999 53.7002L51.8999 46L57.3999 40.6001L63.2999 37.1001Z" fill="white"/>
</svg>
