<svg width="88" height="88" viewBox="0 0 88 88" fill="none" xmlns="http://www.w3.org/2000/svg">
<rect width="86.2159" height="86" fill="black" fill-opacity="0" transform="translate(1 1)"/>
<path fill-rule="evenodd" clip-rule="evenodd" d="M44 87C67.7482 87 87 67.7482 87 44C87 20.2518 67.7482 1 44 1C20.2518 1 1 20.2518 1 44C1 67.7482 20.2518 87 44 87Z" stroke="white"/>
<path d="M27 24V25H63V62H64V24H27Z" fill="white"/>
<path d="M27 31H45.2034L19 57.3V58.7002L46.7998 31H58V42.2004L30.3 70H31.7L58 43.7969V62H59V30H27V31Z" fill="white"/>
<path d="M37.2038 58.1594L55.7298 39.6333L56.4369 40.3406L37.9109 58.8665L37.2038 58.1594Z" fill="white"/>
</svg>
