<svg width="65" height="65" viewBox="0 0 65 65" fill="none" xmlns="http://www.w3.org/2000/svg">
<path d="M55.0694 0H0V55.0694C6.89983 61.2449 16.0114 65 26 65C47.5391 65 65 47.5391 65 26C65 16.0114 61.2449 6.89983 55.0694 0Z" fill="#00DCE6" fill-opacity="0.1"/>
<path d="M6.65869 17.3941V10.1853L12.6551 5.62801L18.6515 10.1853V17.3941L12.6551 22.0025L6.65869 17.3941Z" stroke="#00DCE6"/>
<path d="M12.6549 14.7334V22.0688" stroke="#00DCE6"/>
<path d="M6.44104 10.0791L12.655 14.7343L18.869 10.0791" stroke="#00DCE6"/>
<path d="M33.8818 17.3941V10.1853L39.8783 5.62801L45.8747 10.1853V17.3941L39.8783 22.0025L33.8818 17.3941Z" stroke="#00DCE6"/>
<path d="M39.8781 14.7334V22.0688" stroke="#00DCE6"/>
<path d="M33.6642 10.0791L39.8782 14.7343L46.0921 10.0791" stroke="#00DCE6"/>
<path d="M9.40676 19.8486L5.07581 23.4062L18.0687 33.4602" stroke="#00DCE6"/>
<path d="M42.9714 19.8486L47.457 23.4062L34.4642 34.2336" stroke="#00DCE6"/>
<path d="M18.9968 13.5078L25.9573 7.93945L33.5364 13.8172" stroke="#00DCE6" stroke-dasharray="3 3"/>
<rect x="18.4139" y="20.6592" width="15.7051" height="26.8418" stroke="#00DCE6"/>
<path d="M18.0687 44.4434H34.4645" stroke="#00DCE6"/>
<rect x="25.0289" y="45.835" width="2.47483" height="0.309353" fill="#00DCE6"/>
<rect x="24.7198" y="21.7041" width="3.09354" height="0.309353" fill="#00DCE6"/>
</svg>
