<svg width="65" height="65" viewBox="0 0 65 65" fill="none" xmlns="http://www.w3.org/2000/svg">
<path fill-rule="evenodd" clip-rule="evenodd" d="M55.0694 0H0V55.0694C6.89983 61.2449 16.0114 65 26 65C47.5391 65 65 47.5391 65 26C65 16.0114 61.2449 6.89983 55.0694 0Z" fill="#00DCE6" fill-opacity="0.1"/>
<path d="M14.443 19.7002H33.1256" stroke="#00DCE6" stroke-miterlimit="10"/>
<path d="M14.443 15.8555H33.1256" stroke="#00DCE6" stroke-miterlimit="10"/>
<path d="M14.443 23.5479H33.1256" stroke="#00DCE6" stroke-miterlimit="10"/>
<path d="M14.443 27.4482H20.4874" stroke="#00DCE6" stroke-miterlimit="10"/>
<path d="M18.3735 43.4735H9.30005C9.30005 30.0846 9.30005 22.578 9.30005 9.18909L14.007 5H39.4001V16.6854V39.2844V43.4735H34.1036" stroke="#00DCE6" stroke-miterlimit="10"/>
<path d="M20.0278 47.7746H5C5 34.3857 5 26.8791 5 13.4902" stroke="#00DCE6" stroke-miterlimit="10"/>
<path d="M16.2559 7.33789V11.514H12.0798" stroke="#00DCE6" stroke-miterlimit="10"/>
<path d="M24.3288 47.7858L27.2237 48.0002L27.3845 45.7486C28.5103 45.6414 29.5825 45.2661 30.5474 44.6764L32.0485 46.3919L34.2465 44.5156L32.7454 42.8001C33.4423 41.9424 33.9248 40.9238 34.2465 39.798L36.498 39.9589L36.7125 37.064L34.4609 36.9031C34.3537 35.7774 33.9784 34.7052 33.3887 33.7402L35.1042 32.2392L33.2279 30.0412L31.5124 31.5423C30.6547 30.8453 29.6361 30.3629 28.5103 30.0412L28.6711 27.7896L25.7763 27.5752L25.5618 29.8268C24.436 29.934 23.3639 30.3092 22.3989 30.8989L20.8978 29.1835L18.7535 31.1134L20.2545 32.8289C19.5576 33.6866 19.0751 34.7052 18.7535 35.831L16.5019 35.6701L16.2875 38.565L18.5391 38.7259C18.6463 39.8516 19.0215 40.9238 19.6112 41.8888L17.8957 43.3898L19.7721 45.5878L21.4875 44.0867C22.3453 44.7837 23.3639 45.2661 24.4896 45.5878L24.3288 47.7858ZM21.3267 37.4392C21.5411 34.598 24.0072 32.4536 26.8484 32.6144C29.6897 32.7753 31.8341 35.2949 31.6732 38.1362C31.4588 40.9774 28.9928 43.1218 26.1515 42.961C23.2566 42.7465 21.1123 40.2805 21.3267 37.4392Z" stroke="#00DCE6" stroke-miterlimit="10"/>
</svg>
