<svg width="65" height="65" viewBox="0 0 65 65" fill="none" xmlns="http://www.w3.org/2000/svg">
<path d="M55.0694 0H0V55.0694C6.89983 61.2449 16.0114 65 26 65C47.5391 65 65 47.5391 65 26C65 16.0114 61.2449 6.89983 55.0694 0Z" fill="#00DCE6" fill-opacity="0.1"/>
<path d="M8.56379 15.3272C6.96019 15.3272 5.00024 16.395 5.00024 18.5306C5.00024 21.0221 5.00024 40.2662 5.00024 42.2239C5.00024 44.1815 6.42566 45.4272 8.56379 45.4272C11.0583 45.4272 36.0248 45.4272 37.9848 45.4272C39.9447 45.4272 41.192 44.1815 41.192 42.2239C41.192 40.6578 41.192 36.7045 41.192 35.1029M41.192 26.0098C41.192 24.2302 41.192 19.8119 41.192 18.5306C41.192 16.7509 40.1229 15.3272 37.9848 15.3272C35.8467 15.3271 28.3406 15.3272 28.3406 15.3272" stroke="#00DCE6"/>
<path d="M37.2503 45.4272C39.7587 45.4272 39.5795 45.4272 41.5504 45.4272C43.5212 45.4272 44.7754 43.8467 44.7754 41.886C44.7754 40.3174 44.7754 36.3456 44.7754 34.7413M44.7754 26.013C44.7754 24.2306 44.7754 19.819 44.7754 18.5356C44.7754 16.7532 43.7004 15.3272 41.5504 15.3272C39.4003 15.3271 35.9962 15.3272 35.1003 15.3272" stroke="#00DCE6"/>
<rect x="32.7335" y="26.3965" width="14.7667" height="8.31669" rx="4.15834" stroke="#00DCE6"/>
<circle cx="37.2504" cy="30.5552" r="2.00834" stroke="#00DCE6"/>
<path d="M14.7728 38.7812L14.7728 4.99975" stroke="#00DCE6"/>
<path d="M12.0037 7.76897L14.7726 5L17.5416 7.76897" stroke="#00DCE6"/>
<path d="M22.5256 5L22.5256 38.7815" stroke="#00DCE6"/>
<path d="M25.2947 36.0123L22.5257 38.7813L19.7567 36.0123" stroke="#00DCE6"/>
<path d="M12.0037 14.9697V25.4918" stroke="#00DCE6"/>
<path d="M25.2947 14.9697V25.4918" stroke="#00DCE6"/>
</svg>
