<svg width="65" height="65" viewBox="0 0 65 65" fill="none" xmlns="http://www.w3.org/2000/svg">
<path d="M55.2045 0H0V54.9479C6.91579 61.1956 16.0812 65 26.1351 65C46.573 65 63.3391 49.2789 65 29.2698V22.7302C64.2777 14.0293 60.6992 6.13916 55.2045 0Z" fill="#00DCE6" fill-opacity="0.1"/>
<path d="M27.5243 8.07129C37.3766 9.51501 44.9294 17.7935 44.9294 27.7899C44.9294 31.4221 43.9322 34.828 42.1886 37.7623" stroke="#00DCE6"/>
<path d="M46.9314 36.2859L42.3099 37.5913L41.0936 33.3252" stroke="#00DCE6"/>
<path d="M6.40907 35.7147C2.76693 26.5414 6.35175 15.8661 15.2401 10.7887C18.4697 8.94335 21.9972 8.06826 25.4766 8.0713" stroke="#00DCE6"/>
<path d="M20.3575 5L25.4767 8.24519L21.8433 12.1668" stroke="#00DCE6"/>
<path d="M39.8101 40.3054C33.7796 48.0952 22.9625 50.3851 14.3289 45.2536C11.1919 43.3886 8.73396 40.7763 7.04761 37.7617" stroke="#00DCE6"/>
<path d="M6.02393 42.8809L6.78506 37.7617L12.1669 38.3827" stroke="#00DCE6"/>
<path d="M15.7941 33.3403V22.2519L25.0221 15.1943L34.2501 22.2519V33.3366L25.0221 40.4718L15.7941 33.3403Z" stroke="#00DCE6"/>
<path d="M25.0222 29.1973V40.5699" stroke="#00DCE6"/>
<path d="M15.842 22.2803L25.0221 29.1976L34.2021 22.2803" stroke="#00DCE6"/>
</svg>
