<svg width="65" height="65" viewBox="0 0 65 65" fill="none" xmlns="http://www.w3.org/2000/svg">
<path d="M55.2045 0H0V54.9479C6.91579 61.1956 16.0812 65 26.1351 65C46.573 65 63.3391 49.2789 65 29.2698V22.7302C64.2777 14.0293 60.6992 6.13916 55.2045 0Z" fill="#00DCE6" fill-opacity="0.1"/>
<path d="M17.511 11.4883C17.0105 11.2446 16.2508 10.7877 15.4022 10.6149V10.0102C16.0965 9.7079 16.5594 8.93045 16.5594 8.02342V7.15959C16.5594 5.95022 15.7494 5 14.6308 5C13.5122 5 12.7022 5.95022 12.7022 7.15959V8.02342C12.7022 8.93045 13.1651 9.7079 13.8594 10.0102V10.6149C13.1941 10.7295 12.1393 11.2087 11.6715 11.4883" stroke="#00DCE6" stroke-miterlimit="10"/>
<path d="M12.57 17.0026C12.1371 16.5214 10.6036 16.2511 10.2832 16.2054V15.5646C11.1071 15.2443 11.6564 14.4205 11.6564 13.4594V12.5441C11.6564 11.2627 10.6952 10.2559 9.36772 10.2559C8.04027 10.2559 7.07901 11.2627 7.07901 12.5441V13.4594C7.07901 14.4205 7.6283 15.2443 8.45224 15.5646V16.2054C6.66705 16.48 5.24805 17.1207 5.24805 18.4936V24.2706H15.1752" stroke="#00DCE6" stroke-miterlimit="10"/>
<path d="M16.3205 17.0026C16.7534 16.5214 18.2869 16.2511 18.6073 16.2054V15.5646C17.7834 15.2443 17.2341 14.4205 17.2341 13.4594V12.5441C17.2341 11.2627 18.1953 10.2559 19.5228 10.2559C20.8502 10.2559 21.8115 11.2627 21.8115 12.5441V13.4594C21.8115 14.4205 21.2622 15.2443 20.4383 15.5646V16.2054C22.2235 16.48 23.6425 17.1207 23.6425 18.4936V24.2706H15.1752" stroke="#00DCE6" stroke-miterlimit="10"/>
<path d="M19.6198 41.4161V31.3201L28.0219 24.8975L36.424 31.3201V41.4127L28.0219 47.9092L19.6198 41.4161Z" stroke="#00DCE6"/>
<path d="M28.0217 37.6465V48.0013" stroke="#00DCE6"/>
<path d="M19.6635 31.3457L28.0219 37.6439L36.3803 31.3457" stroke="#00DCE6"/>
<path d="M5 23.9688L19.4517 35.2276L19.6197 35.3654" stroke="#00DCE6"/>
<path d="M48.46 21.9346L51.0437 23.9702L36.424 35.6323" stroke="#00DCE6"/>
<path d="M21.6362 11.7041L27.6858 7.16699L35.3212 12.5925" stroke="#00DCE6"/>
<path d="M38.6147 12.7156V10.219C38.6147 8.83581 39.8458 7.71406 41.229 7.71406C42.6121 7.71406 43.8432 8.84056 43.8432 10.219V12.7156H46.6951V10.3616C46.6951 7.40511 44.1854 5 41.229 5C38.2725 5 35.7628 7.40511 35.7628 10.3616V12.7156H38.6147Z" stroke="#00DCE6" stroke-miterlimit="10"/>
<path d="M33.8616 13.6655V22.735C33.8616 23.2578 34.2894 23.6856 34.8122 23.6856H47.6458C48.1686 23.6856 48.5964 23.2578 48.5964 22.735V13.6655C48.5964 13.1426 48.1686 12.7148 47.6458 12.7148H34.8122C34.2894 12.7148 33.8616 13.1426 33.8616 13.6655Z" stroke="#00DCE6" stroke-miterlimit="10"/>
<path d="M42.1737 20.3509V18.3726C42.6911 18.0726 43.0433 17.5161 43.0433 16.8726C43.0433 15.7769 42.0303 14.916 40.8867 15.1812C40.2693 15.3247 39.7693 15.8204 39.6171 16.4334C39.4171 17.2552 39.7998 17.9987 40.4346 18.3683V20.3466C40.4346 20.8249 40.8259 21.2162 41.3041 21.2162C41.7868 21.2205 42.1737 20.8292 42.1737 20.3509Z" stroke="#00DCE6" stroke-miterlimit="10"/>
</svg>
