<svg width="331" height="107" viewBox="0 0 331 107" fill="none" xmlns="http://www.w3.org/2000/svg">
<circle cx="290.683" cy="40.125" r="40.125" fill="white"/>
<path d="M278.003 36.8439C277.907 36.8449 277.815 36.8822 277.748 36.9477C277.68 37.0133 277.642 37.1017 277.642 37.194V44.3127C277.084 44.436 276.513 44.4978 275.94 44.4969C274.664 44.4969 274.202 44.0401 274.202 42.7003V37.194C274.204 37.149 274.197 37.104 274.18 37.0618C274.164 37.0196 274.139 36.981 274.106 36.9484C274.074 36.9157 274.035 36.8896 273.992 36.8717C273.949 36.8537 273.903 36.8443 273.856 36.8439H271.906V42.7151C271.906 45.4705 273.419 46.3666 275.871 46.3666C277.245 46.3375 278.609 46.1408 279.931 45.7812V36.8439H278.003ZM307.792 46.2607C307.888 46.2596 307.979 46.2223 308.047 46.1568C308.114 46.0913 308.152 46.0029 308.152 45.9107V38.7275C308.71 38.605 309.281 38.5435 309.854 38.5441C311.131 38.5441 311.593 39.0008 311.593 40.3406V45.9106C311.591 45.9556 311.598 46.0005 311.614 46.0427C311.631 46.0849 311.656 46.1235 311.688 46.1562C311.72 46.1889 311.759 46.215 311.802 46.2329C311.845 46.2508 311.891 46.2602 311.938 46.2606H313.889V40.3257C313.889 37.5696 312.376 36.6743 309.924 36.6743C308.55 36.7038 307.186 36.9005 305.864 37.2597V46.2604L307.792 46.2607ZM300.014 36.6865C297.489 36.6865 295.895 38.0025 295.895 40.8176V42.2294C295.895 45.3482 297.619 46.3605 299.486 46.3605C300.406 46.3605 301.351 45.7432 301.661 45.3481V45.9312C301.664 46.0175 301.702 46.0993 301.765 46.1601C301.829 46.2209 301.915 46.2562 302.005 46.2589H303.95V37.2255C302.667 36.8886 301.344 36.7075 300.014 36.6865ZM301.661 43.973C301.239 44.3143 300.91 44.5352 300.014 44.563C298.734 44.563 298.183 43.8119 298.183 42.2085V40.9034C298.183 39.0572 298.891 38.5499 300.014 38.5499C300.565 38.5368 301.117 38.5747 301.661 38.6628V43.973ZM319.611 36.6865C317.086 36.6865 315.493 38.0025 315.493 40.8176V42.2294C315.493 45.3482 317.216 46.3605 319.083 46.3605C320.003 46.3605 320.949 45.7432 321.258 45.3481V45.9312C321.262 46.0175 321.299 46.0994 321.363 46.1602C321.427 46.221 321.512 46.2563 321.602 46.2589H323.548V37.2255C322.264 36.8886 320.942 36.7075 319.611 36.6865ZM321.258 43.973C320.836 44.3143 320.506 44.5352 319.611 44.563C318.331 44.563 317.781 43.8119 317.781 42.2085V40.9034C317.781 39.0572 318.488 38.5499 319.611 38.5499C320.162 38.5368 320.714 38.5746 321.258 38.6628V43.973ZM260.367 46.259H262.421C262.512 46.2541 262.597 46.2173 262.661 46.1557C262.725 46.0941 262.763 46.0121 262.768 45.9252V40.714H266.559C266.841 40.7103 267.113 40.8125 267.318 40.9989C267.523 41.1853 267.645 41.4412 267.657 41.7122V45.9252C267.658 46.0123 267.694 46.0955 267.758 46.1576C267.821 46.2198 267.907 46.2561 267.998 46.259H270.054V33.8833H267.997C267.91 33.8848 267.827 33.9176 267.764 33.9752C267.701 34.0328 267.663 34.1111 267.656 34.1945V38.8429H263.711C263.465 38.8431 263.229 38.751 263.053 38.5864C262.877 38.4218 262.775 38.1975 262.768 37.9615V34.1945C262.761 34.1105 262.721 34.0321 262.657 33.9746C262.593 33.9171 262.509 33.8845 262.421 33.8833H260.367V46.259ZM290.795 36.6782C289.882 36.6838 288.989 36.9329 288.214 37.3975C287.511 36.8889 286.551 36.6782 285.364 36.6782C284.163 36.6872 282.974 36.8966 281.848 37.2971V46.2615H283.791C283.837 46.2608 283.882 46.2515 283.924 46.2339C283.967 46.2163 284.005 46.1909 284.037 46.1592C284.069 46.1274 284.095 46.0898 284.112 46.0486C284.129 46.0075 284.137 45.9635 284.136 45.9192L284.136 45.9107V38.7067C284.502 38.6034 284.881 38.5487 285.262 38.5441C286.606 38.5441 286.932 39.0622 286.932 40.3414V45.9106C286.932 46.0009 286.968 46.0879 287.032 46.1533C287.097 46.2187 287.186 46.2575 287.28 46.2614H288.88C288.927 46.262 288.974 46.2532 289.018 46.2356C289.062 46.2179 289.101 46.1918 289.133 46.1589C289.166 46.126 289.191 46.0869 289.207 46.0442C289.224 46.0014 289.23 45.956 289.227 45.9106V38.9851C289.607 38.6922 290.081 38.5361 290.567 38.5439C291.605 38.5439 292.025 38.9923 292.025 40.2144V45.9105C292.024 46.0007 292.059 46.0879 292.123 46.1535C292.188 46.2191 292.276 46.2578 292.37 46.2613H294.31V39.9129C294.31 37.5062 292.748 36.6782 290.795 36.6782Z" fill="#00DCE6" fill-opacity="0.3"/>
<circle cx="231.833" cy="82.9251" r="24.075" fill="white"/>
<path d="M235.627 86.7768C236.225 86.0593 237.301 85.9397 238.019 86.5376L239.071 87.3986C239.788 87.9966 239.908 89.0728 239.31 89.7903L233.427 96.9654C232.829 97.6829 231.752 97.8025 231.035 97.2046L229.983 96.3436C229.265 95.7456 229.145 94.6694 229.743 93.9519L235.627 86.7768Z" fill="#00DCE6" fill-opacity="0.3"/>
<path d="M228.643 101.008C229.845 101.008 230.82 100.033 230.82 98.8312C230.82 97.6292 229.845 96.6548 228.643 96.6548C227.441 96.6548 226.467 97.6292 226.467 98.8312C226.467 100.033 227.441 101.008 228.643 101.008Z" fill="#00DCE6" fill-opacity="0.3"/>
<path d="M235.891 83.26C236.823 82.9013 237.876 83.3796 238.235 84.3124L238.761 85.6517C239.119 86.5845 238.641 87.6368 237.708 87.9956L228.5 91.4874C227.568 91.8462 226.515 91.3679 226.156 90.4351L225.63 89.0957C225.272 88.163 225.75 87.1106 226.683 86.7758L235.891 83.26Z" fill="#00DCE6" fill-opacity="0.3"/>
<path d="M223.095 92.9465C224.363 92.9465 225.391 91.9186 225.391 90.6505C225.391 89.3825 224.363 88.3545 223.095 88.3545C221.827 88.3545 220.799 89.3825 220.799 90.6505C220.799 91.9186 221.827 92.9465 223.095 92.9465Z" fill="#00DCE6" fill-opacity="0.3"/>
<path d="M238.498 82.9263C239.478 83.2611 240.005 84.3374 239.67 85.318L239.167 86.753C238.833 87.7336 237.756 88.2598 236.752 87.9249L227.018 84.5766C226.037 84.2417 225.511 83.1655 225.846 82.161L226.348 80.7259C226.683 79.7453 227.759 79.2192 228.764 79.554L238.498 82.9263Z" fill="#00DCE6" fill-opacity="0.3"/>
<path d="M223.262 82.6872C224.596 82.6872 225.678 81.6057 225.678 80.2716C225.678 78.9375 224.596 77.856 223.262 77.856C221.928 77.856 220.847 78.9375 220.847 80.2716C220.847 81.6057 221.928 82.6872 223.262 82.6872Z" fill="#00DCE6" fill-opacity="0.3"/>
<path d="M240.889 84.4811C241.559 85.4617 241.319 86.801 240.339 87.4707L238.928 88.4513C237.947 89.121 236.608 88.8818 235.938 87.9012L229.313 78.2388C228.643 77.2582 228.883 75.9188 229.863 75.2492L231.274 74.2686C232.255 73.5989 233.594 73.8381 234.264 74.8187L240.889 84.4811Z" fill="#00DCE6" fill-opacity="0.3"/>
<path d="M228.787 74.5078C230.293 74.5078 231.513 73.287 231.513 71.7812C231.513 70.2754 230.293 69.0547 228.787 69.0547C227.281 69.0547 226.06 70.2754 226.06 71.7812C226.06 73.287 227.281 74.5078 228.787 74.5078Z" fill="#00DCE6" fill-opacity="0.3"/>
<path d="M242.085 87.2306C242.085 88.5461 241.009 89.6223 239.694 89.6223H237.78C236.465 89.6223 235.388 88.5461 235.388 87.2306V74.2198C235.388 72.9044 236.465 71.8281 237.78 71.8281H239.694C241.009 71.8281 242.085 72.9044 242.085 74.2198V87.2306Z" fill="#00DCE6" fill-opacity="0.3"/>
<path d="M238.976 70.9914C240.667 70.9914 242.038 69.6208 242.038 67.93C242.038 66.2393 240.667 64.8687 238.976 64.8687C237.285 64.8687 235.915 66.2393 235.915 67.93C235.915 69.6208 237.285 70.9914 238.976 70.9914Z" fill="#00DCE6" fill-opacity="0.3"/>
<circle cx="103.433" cy="82.9251" r="24.075" fill="white"/>
<path d="M112.173 81.5117C112.336 80.2783 112.371 77.9727 110.788 76.3895C109.324 74.926 107.288 74.926 106.805 74.926H106.801C104.004 74.926 100.858 76.3785 98.4277 78.8103C96.3375 80.8996 94.9514 83.5367 94.62 86.0485C94.458 87.2819 94.4221 89.5876 96.0052 91.1707C97.2146 92.3792 98.841 92.6342 99.9924 92.6342C102.215 92.6342 104.635 91.7257 106.754 90.1463L103.738 87.1319H109.764C111.068 85.3812 111.924 83.4106 112.173 81.5117Z" fill="#00DCE6" fill-opacity="0.3"/>
<path d="M114.915 92.2835L112.802 90.1693C115.933 86.2538 117.137 81.555 116.198 77.7122C116.195 77.7026 116.194 77.6923 116.196 77.6823C116.198 77.6724 116.202 77.6631 116.208 77.6552C116.215 77.6474 116.223 77.6414 116.233 77.6376C116.242 77.6339 116.252 77.6326 116.262 77.6339C116.272 77.6354 116.281 77.639 116.289 77.6444C116.297 77.6498 116.303 77.6569 116.308 77.6652C117.2 79.5273 117.7 81.6139 117.7 83.8155C117.705 86.864 116.728 89.8331 114.915 92.2835Z" fill="#00DCE6" fill-opacity="0.3"/>
<path d="M90.4799 89.7602C90.4651 89.7551 90.453 89.7443 90.446 89.7302C89.625 87.928 89.1667 85.9252 89.1667 83.8165C89.1667 75.9376 95.5542 69.5498 103.433 69.5498C105.47 69.547 107.484 69.9821 109.338 70.8255C109.363 70.8366 109.38 70.8614 109.377 70.889C109.374 70.9054 109.365 70.92 109.352 70.9299C109.339 70.9397 109.322 70.9439 109.306 70.9415C108.502 70.7583 107.663 70.6654 106.8 70.6654C102.998 70.6654 98.7793 72.4326 95.4143 75.7977C91.2882 79.9249 89.567 85.3324 90.5574 89.686C90.5612 89.6999 90.5601 89.7146 90.5542 89.7277C90.5483 89.7409 90.5381 89.7515 90.5252 89.7578C90.511 89.7645 90.4947 89.7654 90.4799 89.7602Z" fill="#00DCE6" fill-opacity="0.3"/>
<path d="M111.903 95.297C109.452 97.111 106.482 98.0879 103.433 98.0831C101.302 98.0859 99.1987 97.6096 97.2772 96.6896C97.2579 96.6804 97.2441 96.6592 97.2441 96.6344C97.244 96.6266 97.2454 96.6189 97.2482 96.6117C97.2511 96.6046 97.2553 96.598 97.2607 96.5924C97.2661 96.5869 97.2725 96.5824 97.2796 96.5794C97.2867 96.5763 97.2943 96.5747 97.3021 96.5745C98.1826 96.7893 99.086 96.8962 99.9924 96.893C103.218 96.893 106.742 95.6228 109.791 93.1837L111.903 95.297Z" fill="#00DCE6" fill-opacity="0.3"/>
<circle cx="205.975" cy="27.6417" r="27.6417" fill="white"/>
<path fill-rule="evenodd" clip-rule="evenodd" d="M202.515 46.4658C201.714 46.2786 200.968 45.5894 200.68 44.8092C199.832 44.6694 199.111 43.962 198.802 43.0283C198.811 43.0283 198.816 43.0283 198.825 43.0307L201.755 43.3626C202.9 42.9346 204.542 41.6159 205.45 38.3574C206.092 36.0514 206.185 32.5748 206.185 28.6064V13.2102L204.361 12.804L207.824 10.9436V30.1416C207.824 33.5737 207.69 36.6114 206.97 39.0518C206.525 40.8166 204.654 44.4182 201.412 44.8502L203.7 45.1238C205.779 44.6103 207.484 42.7219 208.43 40.2888C209.51 37.458 209.687 33.6756 209.687 29.2131V11.3604L207.824 10.9436L211.344 9.05499V30.0024C211.344 35.2533 210.79 38.8989 209.645 41.4655C208.85 43.1979 206.64 46.5049 203.264 46.5353L205.883 46.8498C207.899 46.5013 210.017 44.8147 211.278 42.2023C212.626 39.4125 213.245 35.2742 213.245 29.2131V9.47815L211.344 9.05499L214.919 7.1333V29.3766C214.919 37.7092 213.652 43.8816 209.666 46.6524C208.4 47.5026 207.069 48.2137 205.442 48.1454C204.244 48.0939 203.147 47.5393 202.515 46.4658Z" fill="#00DCE6" fill-opacity="0.3"/>
<path fill-rule="evenodd" clip-rule="evenodd" d="M199.353 43.0741H199.345H199.394C199.41 43.0741 199.421 43.0741 199.438 43.0702C199.455 43.0702 199.47 43.0702 199.487 43.0696C199.504 43.0696 199.519 43.0696 199.535 43.0659C199.552 43.0659 199.568 43.0647 199.584 43.0647C199.604 43.0602 199.62 43.0602 199.641 43.059C199.655 43.0577 199.673 43.0541 199.685 43.0517C199.709 43.048 199.729 43.0471 199.752 43.0423C199.767 43.0417 199.78 43.0386 199.796 43.0374C199.822 43.035 199.845 43.028 199.868 43.0244C199.881 43.0232 199.894 43.0198 199.908 43.0174C199.937 43.0101 199.961 43.0068 199.987 43.0019C200.004 42.9983 200.017 42.9925 200.034 42.9889C200.059 42.9831 200.088 42.9777 200.116 42.9701C200.13 42.9645 200.145 42.9601 200.159 42.957C200.191 42.9485 200.217 42.9416 200.248 42.9309C200.26 42.9249 200.276 42.9203 200.293 42.9143C200.322 42.9061 200.354 42.8954 200.382 42.8845C200.396 42.8788 200.41 42.8709 200.426 42.8657C200.455 42.8575 200.488 42.8433 200.519 42.829C200.536 42.8244 200.552 42.8171 200.566 42.8075C200.597 42.7957 200.63 42.7793 200.664 42.765C200.676 42.7589 200.693 42.7495 200.709 42.7432C200.74 42.7259 200.773 42.708 200.808 42.6904C200.824 42.6844 200.839 42.6751 200.852 42.6631C200.886 42.6488 200.922 42.6264 200.954 42.6085C200.969 42.5979 200.983 42.5897 200.999 42.58C201.033 42.5575 201.071 42.5375 201.105 42.5151C201.118 42.5041 201.134 42.4914 201.15 42.4805C201.186 42.4571 201.221 42.4318 201.254 42.4046C201.271 42.3942 201.288 42.3823 201.303 42.3691C201.336 42.3418 201.371 42.317 201.408 42.2882C201.424 42.2745 201.44 42.2602 201.453 42.246C201.49 42.2175 201.526 42.189 201.558 42.1583C201.575 42.1416 201.592 42.125 201.607 42.1098C201.645 42.0782 201.677 42.047 201.712 42.0136C201.731 41.996 201.749 41.9771 201.765 41.9569C201.801 41.922 201.831 41.8899 201.865 41.8538C201.887 41.8325 201.907 41.8083 201.925 41.7861C201.957 41.7518 201.989 41.7164 202.018 41.6772C202.038 41.6572 202.056 41.6332 202.077 41.6062C202.109 41.5671 202.141 41.5313 202.172 41.4882C202.191 41.4634 202.21 41.4379 202.228 41.413C202.262 41.3672 202.292 41.3266 202.324 41.285C202.343 41.2571 202.365 41.2258 202.382 41.1973C202.413 41.1512 202.439 41.1084 202.471 41.0623C202.492 41.0314 202.514 40.9947 202.535 40.9625C202.563 40.9152 202.592 40.8727 202.62 40.823C202.641 40.7872 202.661 40.7529 202.679 40.7174C202.708 40.6665 202.737 40.6155 202.767 40.567C202.788 40.5254 202.805 40.4863 202.824 40.4508C202.852 40.3974 202.881 40.3452 202.907 40.2885C202.93 40.2457 202.95 40.1984 202.972 40.1544C202.996 40.102 203.023 40.0492 203.047 39.9946C203.07 39.9436 203.092 39.892 203.114 39.8386C203.136 39.7862 203.16 39.734 203.184 39.6782C203.204 39.626 203.223 39.5757 203.246 39.5189C203.267 39.4589 203.292 39.4034 203.315 39.3418C203.333 39.2908 203.354 39.2338 203.372 39.1783C203.395 39.1137 203.423 39.0515 203.443 38.9856C203.469 38.9104 203.492 38.8297 203.517 38.7527C203.532 38.7041 203.549 38.658 203.565 38.6083C203.604 38.4778 203.643 38.3441 203.682 38.2076C204.224 36.2501 204.361 32.2866 204.361 29.6505V12.8037L196.167 17.2028V34.5635C196.167 41.1861 197.354 42.7708 198.825 43.0304C198.816 43.028 198.811 43.028 198.802 43.028L199.353 43.0741Z" fill="#00DCE6" fill-opacity="0.3"/>
<circle cx="41.0167" cy="40.125" r="40.125" fill="white"/>
<path fill-rule="evenodd" clip-rule="evenodd" d="M22.2505 49.8513C21.906 49.3401 21.3894 49.1057 20.7435 49.1057L19.9253 49.3188L19.2795 49.9151V49.2338H17.665V55.2829H19.4517V53.323C19.7746 53.685 20.1406 53.8554 20.6142 53.8554C21.2171 53.8554 21.6905 53.6853 22.0782 53.323C22.5519 52.8969 22.7671 52.3009 22.7671 51.4699C22.7669 50.8096 22.5731 50.2349 22.2505 49.8513ZM20.9587 51.5127C20.9587 52.194 20.7217 52.5135 20.1835 52.5135C19.7099 52.5135 19.4517 52.1515 19.4517 51.4702L19.6454 50.7245C19.7746 50.5544 19.9681 50.4475 20.1406 50.4475C20.6787 50.4475 20.9587 50.8096 20.9587 51.5127ZM28.4289 51.0443C28.4289 49.745 27.8478 49.1057 26.6637 49.1057C26.1255 49.1057 25.6734 49.3401 25.3074 49.8088V47.5724H23.4775V53.7491H25.3074V51.4702C25.3074 50.8734 25.5226 50.5544 25.9533 50.5544C26.427 50.5544 26.6422 50.8309 26.6422 51.3633V53.7491H28.4289V51.0443ZM33.768 49.6381C33.445 49.2763 32.7992 49.1057 31.8088 49.1057C30.1941 49.1057 29.3545 49.5956 29.3545 50.6182H31.0767C31.1197 50.3412 31.2919 50.1921 31.7011 50.1921C32.0885 50.1921 32.2607 50.3409 32.2607 50.5969L31.7656 50.9164L30.6893 51.0866C29.5697 51.2567 29.0318 51.7254 29.0318 52.5135C29.0318 52.9396 29.2255 53.2804 29.5485 53.5356C29.8284 53.7488 30.2158 53.8552 30.6895 53.8552C31.3784 53.8552 31.9383 53.685 32.4117 53.2802L32.4765 53.7488H34.3494V53.685L34.0697 53.067V51.0225C34.0694 50.3412 33.9617 49.8726 33.768 49.6381ZM32.261 51.7682C32.3472 52.5138 32.0888 52.8546 31.5074 52.8546C31.1197 52.8546 30.9045 52.7482 30.9045 52.5138C30.9045 52.2586 31.0552 52.0877 31.3781 52.0026L32.261 51.7682ZM35.1028 49.2338V53.7491H36.8682V52.194C36.8682 51.2995 37.2124 50.8734 37.966 50.8734L38.375 50.9164V49.1269L38.1597 49.1057C37.4709 49.1057 36.9757 49.4464 36.7175 50.1708H36.6745V49.2338H35.1028ZM39.0423 53.7491H40.8505V51.5127C40.8505 50.8734 41.066 50.5544 41.4537 50.5544C41.7116 50.5544 41.8409 50.6182 41.9274 50.7245L42.0348 51.4702V53.7491H43.8645V51.5127C43.8645 50.8734 44.08 50.5544 44.5107 50.5544L44.9628 50.7245L45.0703 51.4702V53.7491H46.9V51.0866C46.9 49.766 46.3403 49.1054 45.1563 49.1054C44.5107 49.1054 43.9935 49.3824 43.6066 49.9574C43.3481 49.3824 42.8529 49.1054 42.0993 49.1054C41.7764 49.1054 41.4967 49.2117 41.1952 49.3824L40.6571 49.9148V49.2335H39.0423V53.7491ZM52.2176 49.6381C51.8952 49.2763 51.249 49.1057 50.2802 49.1057C48.601 49.1057 47.7614 49.5956 47.7614 50.6182H49.5266C49.5695 50.3412 49.742 50.1921 50.1292 50.1921C50.5384 50.1921 50.7539 50.3409 50.7539 50.5969C50.7539 50.7671 50.5599 50.8734 50.2372 50.9164L49.1391 51.0866C48.0198 51.2567 47.4814 51.7254 47.4814 52.5135C47.4814 52.9396 47.6539 53.2804 48.0201 53.5356C48.2995 53.7488 48.6657 53.8552 49.1394 53.8552C49.807 53.8552 50.3452 53.685 50.8186 53.2802L50.9261 53.7488H52.7563V53.685C52.6053 53.5356 52.5408 53.323 52.5408 53.067V51.0225C52.5405 50.3412 52.4331 49.8726 52.2176 49.6381ZM50.7539 51.7682C50.7753 52.5138 50.5384 52.8546 49.9572 52.8546C49.5695 52.8546 49.3761 52.7482 49.3761 52.5138C49.3761 52.2586 49.5266 52.0877 49.8498 52.0026L50.7539 51.7682ZM57.5564 49.5318C57.1693 49.234 56.5879 49.1057 55.9207 49.1057C55.1671 49.1057 54.543 49.3188 54.091 49.7662C53.6169 50.1923 53.3589 50.8096 53.3589 51.5552C53.3589 52.3009 53.6169 52.8546 54.091 53.2804C54.5432 53.6853 55.1671 53.8554 55.9207 53.8554C57.449 53.8554 58.2886 53.2592 58.461 52.0023H56.6308C56.5879 52.4285 56.3514 52.6416 55.9207 52.6416C55.4041 52.6416 55.1671 52.3009 55.1671 51.5552C55.1671 50.7245 55.4041 50.2984 55.9207 50.2984C56.1357 50.2984 56.2652 50.3835 56.3729 50.4898L56.5879 50.9372H58.4175C58.396 50.3412 58.0948 49.8513 57.5564 49.5318ZM60.7214 49.2338H58.8917L60.3985 53.3658V53.8557C60.334 53.9625 60.14 54.0051 59.8603 54.0051L59.4944 53.9625V55.2406L60.291 55.2831C61.0441 55.2831 61.5828 55.1338 61.8622 54.857L62.5513 53.4296L64.0151 49.2338H62.2929L61.5183 52.0026L60.7214 49.2338ZM27.5248 36.1342H32.6914C32.4762 34.0042 31.6581 32.3853 30.2586 31.2138C28.8163 30.0423 26.8572 29.4248 24.3383 29.4248C21.9702 29.4248 20.0328 30.213 18.4826 31.7465C16.8681 33.3441 16.05 35.4314 16.05 38.0513C16.05 40.7138 16.8466 42.8439 18.3751 44.4197C19.9896 45.9748 22.1425 46.7629 24.8765 46.7629C27.0724 46.7629 28.9023 46.1449 30.3233 44.9527C31.7656 43.6959 32.5837 42.0345 32.8419 39.9469H27.5678C27.3096 41.8213 26.4267 42.7376 24.8123 42.7376C23.5205 42.7376 22.6164 42.2899 22.1212 41.3529C21.712 40.65 21.4968 39.6277 21.4968 38.243C21.4968 36.6669 21.7983 35.4954 22.3364 34.686C22.8746 33.8766 23.5852 33.4507 24.5538 33.4507C25.4149 33.4507 26.1041 33.6849 26.6422 34.1536C27.1371 34.6219 27.4171 35.2822 27.5248 36.1342ZM44.2952 29.8507L41.3027 40.8202L38.375 29.8507H32.8851L38.5472 46.3368H44.0373L49.8065 29.8507H44.2952ZM52.3686 30.7454C50.9903 31.6612 50.3232 32.9821 50.3232 34.6857C50.3232 36.0702 50.8183 37.1991 51.7869 38.0513C52.5405 38.6689 53.6601 39.2016 55.0809 39.6274L58.3958 40.4794C59.3649 40.7989 59.86 41.2248 59.86 41.7575C59.86 42.141 59.6446 42.4178 59.2569 42.6307L57.5997 42.9502C57.018 42.9502 56.5231 42.8226 56.0494 42.5241C55.5973 42.2471 55.2958 41.8213 55.1883 41.2248H49.957C50 42.7801 50.7106 44.1004 52.0454 45.1228C53.4446 46.2305 55.1883 46.7629 57.3197 46.7629C59.6876 46.7629 61.5395 46.2943 62.9173 45.336C64.381 44.3346 65.0917 42.929 65.0917 41.0756C65.0917 39.6912 64.5965 38.6263 63.5844 37.8169C62.8743 37.1994 61.7977 36.7092 60.334 36.2833L57.0185 35.4314C56.0285 35.1119 55.5118 34.6857 55.5118 34.1536C55.5118 33.5145 56.0929 33.195 57.277 33.195L58.6333 33.5145C59.1069 33.77 59.3869 34.1108 59.4729 34.6435H64.6397C64.4243 33.0459 63.7786 31.8106 62.6588 30.9161C61.41 29.9362 59.7093 29.4251 57.5355 29.4251C55.3826 29.4248 53.6601 29.8507 52.3686 30.7454Z" fill="#00DCE6" fill-opacity="0.3"/>
<circle cx="127.508" cy="28.5333" r="28.5333" fill="white"/>
<path d="M123.076 26.4589C122.68 26.5784 122.288 26.7112 121.902 26.8539C121.355 23.6186 121.675 20.2976 122.831 17.2236C123.988 14.1495 125.94 11.4303 128.492 9.33838V11.4025C126.557 13.2549 125.084 15.528 124.19 18.0416C123.296 20.5553 123.005 23.2406 123.34 25.8848L123.076 26.4589ZM140.576 40.9744C136.599 40.9742 132.744 39.6157 129.662 37.1282C129.255 36.803 128.865 36.46 128.492 36.0994C126.369 34.0609 124.805 31.521 123.947 28.7189L123.015 30.7731C123.995 33.1675 125.461 35.3373 127.322 37.1481C127.698 37.5131 128.088 37.8638 128.492 38.2001C131.881 41.0052 136.158 42.5416 140.576 42.5408C142.833 42.5432 145.071 42.1395 147.182 41.3494L145.359 40.3173C143.801 40.7617 142.187 40.9852 140.566 40.9811" fill="#00DCE6" fill-opacity="0.3"/>
<path d="M126.397 37.1454C126.772 37.5109 127.161 37.8631 127.567 38.1953C124.178 41.0032 119.903 42.5413 115.487 42.5407C113.227 42.5463 110.986 42.1444 108.872 41.3547L110.695 40.3215C113.377 41.0881 116.206 41.1994 118.94 40.6457C121.675 40.092 124.233 38.8899 126.397 37.1421V37.1454ZM134.412 23.7934C134.409 21.0336 133.794 18.3082 132.61 15.8103C131.426 13.3124 129.703 11.103 127.563 9.33838V11.4048C130.044 13.7842 131.752 16.8437 132.468 20.1912C133.184 23.5388 132.877 27.0222 131.584 30.1953C130.674 32.4296 129.305 34.4514 127.563 36.1322C127.938 36.4932 128.328 36.8376 128.733 37.1654C130.254 35.6839 131.515 33.9601 132.462 32.0658C133.742 29.4927 134.41 26.6625 134.412 23.7934Z" fill="#00DCE6" fill-opacity="0.3"/>
<path d="M147.183 41.2635L145.314 40.247C144.628 37.6573 143.312 35.2574 141.471 33.2413C139.631 31.2251 137.318 29.6492 134.719 28.6409L137.309 33.9488C138.483 36.3347 139.177 36.8904 140.379 37.0734C140.513 37.0995 140.513 37.7859 140.379 37.8088H133.102C132.968 37.7826 132.968 37.0963 133.102 37.0734C134.517 36.9198 135.021 36.1844 134.132 34.3574L133.04 32.1054C133.87 30.5003 134.449 28.788 134.757 27.0231C137.956 28.1545 140.788 30.0652 142.968 32.5641C145.149 35.063 146.602 38.0627 147.183 41.2635ZM133.342 25.804C133.166 27.3358 132.768 28.837 132.161 30.2653L130.866 27.5951C129.929 27.4473 128.982 27.3719 128.032 27.3695C126.62 27.3628 125.212 27.5253 123.842 27.8533L123.375 28.8338L122.421 30.8471L121.171 33.4618C119.917 36.1027 120.528 36.8642 121.971 37.1192C122.105 37.1714 122.077 37.7728 121.943 37.8055H116.022C115.888 37.7794 115.861 37.1714 115.995 37.1192C117.025 36.7629 117.836 36.204 119.306 33.1971L121.548 28.5233C118.9 29.5194 116.539 31.1005 114.66 33.1361C112.781 35.1717 111.437 37.6035 110.74 40.2307L108.872 41.2471C109.451 38.0452 110.901 35.0435 113.078 32.541C115.255 30.0384 118.083 28.1224 121.28 26.9839C121.675 26.8433 122.074 26.7126 122.482 26.5949L122.754 26.0295L127.686 15.7798C127.946 15.7043 128.225 15.7043 128.486 15.7798L133.342 25.804ZM130.069 25.9543L127.383 20.4177L124.67 26.1275C125.781 25.9448 126.905 25.8519 128.032 25.8497C128.713 25.8519 129.393 25.8879 130.069 25.9576" fill="#00DCE6" fill-opacity="0.3"/>
<circle cx="167.633" cy="79.3585" r="27.6417" fill="white"/>
<path d="M175.095 85.7705C174.539 87.919 174.002 90.125 173.465 92.3886C175.862 93.9424 178.203 95.4578 180.543 96.7623C178.74 93.3669 176.956 89.6454 175.095 85.7705Z" stroke="#00DCE6" stroke-opacity="0.3" stroke-width="0.75" stroke-miterlimit="10" stroke-linecap="square" stroke-linejoin="round"/>
<path d="M175.095 85.7705C177.244 87.3051 179.335 88.8398 181.387 90.2785C181.1 92.3694 180.831 94.5371 180.543 96.7623C178.74 93.3669 176.956 89.6454 175.095 85.7705Z" stroke="#00DCE6" stroke-opacity="0.3" stroke-width="0.75" stroke-miterlimit="10" stroke-linecap="square" stroke-linejoin="round"/>
<path d="M175.095 85.7705C174.539 87.919 174.002 90.125 173.465 92.3886C171.067 90.854 168.631 89.281 166.175 87.8806C169.129 86.9407 172.122 86.1925 175.095 85.7705Z" stroke="#00DCE6" stroke-opacity="0.3" stroke-width="0.75" stroke-miterlimit="10" stroke-linecap="square" stroke-linejoin="round"/>
<path d="M175.095 85.7708C172.966 84.2362 170.76 82.7399 168.554 81.3779C167.748 83.5072 166.943 85.6941 166.175 87.8809C169.129 86.941 172.122 86.1928 175.095 85.7708Z" stroke="#00DCE6" stroke-opacity="0.3" stroke-width="0.75" stroke-miterlimit="10" stroke-linecap="square" stroke-linejoin="round"/>
<path d="M177.532 76.9844C177.167 78.2121 176.803 79.4781 176.438 80.8018C178.356 82.3364 180.217 83.9286 182.04 85.444C180.563 82.7776 179.066 79.9193 177.532 76.9844Z" stroke="#00DCE6" stroke-opacity="0.3" stroke-width="0.75" stroke-miterlimit="10" stroke-linecap="square" stroke-linejoin="round"/>
<path d="M177.531 76.9844C179.258 78.5382 180.927 80.1495 182.538 81.7225C182.366 82.9119 182.212 84.1588 182.039 85.4248C180.562 82.7776 179.066 79.9193 177.531 76.9844Z" stroke="#00DCE6" stroke-opacity="0.3" stroke-width="0.75" stroke-miterlimit="10" stroke-linecap="square" stroke-linejoin="round"/>
<path d="M175.095 85.7703C175.536 84.063 175.978 82.3941 176.438 80.7827C178.356 82.3173 180.217 83.9095 182.039 85.425C179.795 85.2907 177.455 85.425 175.095 85.7703Z" stroke="#00DCE6" stroke-opacity="0.3" stroke-width="0.75" stroke-miterlimit="10" stroke-linecap="square" stroke-linejoin="round"/>
<path d="M175.095 85.7706C177.244 87.3052 179.335 88.8399 181.387 90.2786C181.617 88.6097 181.828 86.9983 182.039 85.4253C179.795 85.291 177.455 85.4253 175.095 85.7706Z" stroke="#00DCE6" stroke-opacity="0.3" stroke-width="0.75" stroke-miterlimit="10" stroke-linecap="square" stroke-linejoin="round"/>
<path d="M177.531 76.9854C177.838 75.9687 178.145 74.9712 178.433 74.0312C179.987 75.6042 181.483 77.2156 182.941 78.827C181.234 78.0021 179.411 77.3882 177.531 76.9854Z" stroke="#00DCE6" stroke-opacity="0.3" stroke-width="0.75" stroke-miterlimit="10" stroke-linecap="square" stroke-linejoin="round"/>
<path d="M177.531 76.9844C179.258 78.5382 180.927 80.1495 182.538 81.7225C182.672 80.725 182.807 79.7659 182.922 78.8259C181.234 78.0011 179.411 77.3872 177.531 76.9844Z" stroke="#00DCE6" stroke-opacity="0.3" stroke-width="0.75" stroke-miterlimit="10" stroke-linecap="square" stroke-linejoin="round"/>
<path d="M177.531 76.9854C177.838 75.9687 178.145 74.9712 178.433 74.0313C176.879 72.4583 175.268 70.9428 173.599 69.5425C174.942 72.0362 176.246 74.53 177.531 76.9854Z" stroke="#00DCE6" stroke-opacity="0.3" stroke-width="0.75" stroke-miterlimit="10" stroke-linecap="square" stroke-linejoin="round"/>
<path d="M177.531 76.9854C175.805 75.4316 174.021 73.9162 172.199 72.535C172.659 71.4991 173.139 70.5016 173.599 69.5425C174.942 72.0362 176.246 74.53 177.531 76.9854Z" stroke="#00DCE6" stroke-opacity="0.3" stroke-width="0.75" stroke-miterlimit="10" stroke-linecap="square" stroke-linejoin="round"/>
<path d="M161.936 77.9058C160.9 80.0734 159.902 82.2603 158.905 84.3896C161.264 85.272 163.72 86.4805 166.175 87.8808C164.775 84.4663 163.355 81.1093 161.936 77.9058Z" stroke="#00DCE6" stroke-opacity="0.3" stroke-width="0.75" stroke-miterlimit="10" stroke-linecap="square" stroke-linejoin="round"/>
<path d="M161.936 77.9058C164.123 78.8265 166.348 80.0351 168.554 81.3779C167.748 83.5071 166.942 85.694 166.175 87.8808C164.775 84.4663 163.355 81.1093 161.936 77.9058Z" stroke="#00DCE6" stroke-opacity="0.3" stroke-width="0.75" stroke-miterlimit="10" stroke-linecap="square" stroke-linejoin="round"/>
<path d="M161.936 77.9053C160.9 80.0729 159.902 82.2598 158.905 84.3891C156.545 83.5067 154.301 82.9887 152.325 83.0079C155.145 80.7443 158.444 79.0179 161.936 77.9053Z" stroke="#00DCE6" stroke-opacity="0.3" stroke-width="0.75" stroke-miterlimit="10" stroke-linecap="square" stroke-linejoin="round"/>
<path d="M161.936 77.9057C159.749 76.985 157.639 76.3327 155.682 76.1025C154.512 78.4428 153.419 80.764 152.345 83.0084C155.145 80.7448 158.445 79.0183 161.936 77.9057Z" stroke="#00DCE6" stroke-opacity="0.3" stroke-width="0.75" stroke-miterlimit="10" stroke-linecap="square" stroke-linejoin="round"/>
<path d="M166.655 68.7935C165.926 70.0787 165.197 71.4215 164.487 72.7835C162.473 71.786 160.478 71.0187 158.579 70.5583C161.111 69.484 163.854 68.8894 166.655 68.7935Z" stroke="#00DCE6" stroke-opacity="0.3" stroke-width="0.75" stroke-miterlimit="10" stroke-linecap="square" stroke-linejoin="round"/>
<path d="M166.655 68.7933C164.794 67.7191 162.933 66.8366 161.111 66.2036C160.228 67.6231 159.384 69.081 158.56 70.5581C161.111 69.4839 163.854 68.8892 166.655 68.7933Z" stroke="#00DCE6" stroke-opacity="0.3" stroke-width="0.75" stroke-miterlimit="10" stroke-linecap="square" stroke-linejoin="round"/>
<path d="M161.936 77.9056C162.761 76.1792 163.605 74.4719 164.487 72.7838C162.473 71.7863 160.478 71.019 158.579 70.5586C159.672 72.8797 160.804 75.3543 161.936 77.9056Z" stroke="#00DCE6" stroke-opacity="0.3" stroke-width="0.75" stroke-miterlimit="10" stroke-linecap="square" stroke-linejoin="round"/>
<path d="M161.936 77.9056C159.749 76.9848 157.639 76.3326 155.682 76.1024C156.603 74.2417 157.562 72.381 158.579 70.5586C159.672 72.8797 160.804 75.3543 161.936 77.9056Z" stroke="#00DCE6" stroke-opacity="0.3" stroke-width="0.75" stroke-miterlimit="10" stroke-linecap="square" stroke-linejoin="round"/>
<path d="M166.655 68.7941C167.269 67.7199 167.882 66.684 168.515 65.6865C170.242 66.8183 171.949 68.1227 173.599 69.5423C171.316 68.9476 168.976 68.6982 166.655 68.7941Z" stroke="#00DCE6" stroke-opacity="0.3" stroke-width="0.75" stroke-miterlimit="10" stroke-linecap="square" stroke-linejoin="round"/>
<path d="M166.655 68.7935C168.515 69.8677 170.376 71.1338 172.199 72.5149C172.659 71.4791 173.139 70.4816 173.599 69.5224C171.316 68.9469 168.976 68.6976 166.655 68.7935Z" stroke="#00DCE6" stroke-opacity="0.3" stroke-width="0.75" stroke-miterlimit="10" stroke-linecap="square" stroke-linejoin="round"/>
<path d="M166.655 68.7936C167.269 67.7194 167.883 66.6835 168.516 65.686C166.789 64.5542 165.063 63.5759 163.355 62.8086C164.449 64.7269 165.561 66.7411 166.655 68.7936Z" stroke="#00DCE6" stroke-opacity="0.3" stroke-width="0.75" stroke-miterlimit="10" stroke-linecap="square" stroke-linejoin="round"/>
<path d="M166.655 68.7936C164.794 67.7194 162.933 66.837 161.111 66.204C161.84 65.0338 162.588 63.8828 163.355 62.8086C164.449 64.7269 165.561 66.7411 166.655 68.7936Z" stroke="#00DCE6" stroke-opacity="0.3" stroke-width="0.75" stroke-miterlimit="10" stroke-linecap="square" stroke-linejoin="round"/>
</svg>
