<svg width="370" height="120" viewBox="0 0 370 120" fill="none" xmlns="http://www.w3.org/2000/svg">
<circle cx="325" cy="45" r="45" fill="white"/>
<path d="M310.779 41.3203C310.671 41.3214 310.568 41.3633 310.493 41.4368C310.417 41.5103 310.374 41.6095 310.374 41.7129V49.6965C309.748 49.8348 309.108 49.9041 308.466 49.9031C307.034 49.9031 306.516 49.3908 306.516 47.8882V41.7129C306.518 41.6624 306.51 41.612 306.492 41.5647C306.473 41.5174 306.445 41.4741 306.409 41.4375C306.373 41.4008 306.329 41.3716 306.281 41.3514C306.233 41.3313 306.181 41.3207 306.129 41.3203H303.941V47.9048C303.941 50.995 305.638 52 308.388 52C309.928 51.9674 311.458 51.7467 312.941 51.3434V41.3203H310.779ZM344.187 51.8811C344.295 51.88 344.397 51.8382 344.473 51.7647C344.549 51.6912 344.591 51.592 344.591 51.4887V43.4327C345.217 43.2954 345.857 43.2264 346.499 43.2271C347.932 43.2271 348.45 43.7392 348.45 45.2418V51.4885C348.447 51.539 348.456 51.5894 348.474 51.6367C348.492 51.6841 348.52 51.7274 348.557 51.764C348.593 51.8007 348.636 51.8299 348.684 51.85C348.733 51.8701 348.785 51.8807 348.837 51.881H351.025V45.2251C351.025 42.1342 349.328 41.1301 346.578 41.1301C345.037 41.1632 343.507 41.3838 342.025 41.7867V51.8809L344.187 51.8811ZM335.464 41.1437C332.632 41.1437 330.845 42.6197 330.845 45.7767V47.3602C330.845 50.8579 332.778 51.9932 334.872 51.9932C335.904 51.9932 336.963 51.3008 337.311 50.8577V51.5116C337.315 51.6084 337.357 51.7002 337.428 51.7684C337.5 51.8366 337.596 51.8762 337.697 51.8791H339.879V41.7483C338.439 41.3704 336.956 41.1673 335.464 41.1437ZM337.311 49.3156C336.838 49.6983 336.469 49.946 335.464 49.9772C334.028 49.9772 333.411 49.1349 333.411 47.3367V45.873C333.411 43.8025 334.205 43.2335 335.464 43.2335C336.082 43.2189 336.701 43.2613 337.311 43.3602V49.3156ZM357.442 41.1437C354.61 41.1437 352.823 42.6197 352.823 45.7767V47.3602C352.823 50.8579 354.756 51.9932 356.85 51.9932C357.882 51.9932 358.942 51.3008 359.289 50.8577V51.5116C359.293 51.6084 359.335 51.7003 359.407 51.7685C359.478 51.8367 359.574 51.8763 359.675 51.8791H361.858V41.7483C360.418 41.3704 358.935 41.1673 357.442 41.1437ZM359.29 49.3156C358.816 49.6983 358.446 49.946 357.442 49.9772C356.006 49.9772 355.39 49.1349 355.39 47.3367V45.873C355.39 43.8025 356.183 43.2335 357.442 43.2335C358.061 43.2189 358.679 43.2613 359.29 43.3602V49.3156ZM291 51.8793H293.304C293.406 51.8738 293.501 51.8326 293.573 51.7635C293.645 51.6944 293.687 51.6023 293.693 51.5049V45.6606H297.944C298.261 45.6564 298.566 45.771 298.796 45.9801C299.026 46.1891 299.162 46.4761 299.176 46.7801V51.5049C299.177 51.6026 299.218 51.6959 299.289 51.7656C299.36 51.8353 299.456 51.876 299.558 51.8793H301.865V38H299.558C299.46 38.0017 299.367 38.0385 299.296 38.1031C299.225 38.1677 299.182 38.2554 299.175 38.349V43.5622H294.75C294.475 43.5623 294.21 43.4591 294.013 43.2745C293.815 43.0899 293.7 42.8384 293.693 42.5736V38.349C293.685 38.2548 293.64 38.1669 293.569 38.1024C293.497 38.0379 293.402 38.0014 293.304 38H291V51.8793ZM325.125 41.1344C324.102 41.1408 323.1 41.4201 322.231 41.9412C321.442 41.3707 320.365 41.1344 319.034 41.1344C317.688 41.1446 316.354 41.3794 315.091 41.8286V51.8821H317.27C317.322 51.8814 317.373 51.8708 317.42 51.8511C317.467 51.8315 317.51 51.803 317.546 51.7673C317.582 51.7317 317.611 51.6896 317.63 51.6434C317.649 51.5972 317.658 51.5479 317.657 51.4982L317.657 51.4887V43.4094C318.068 43.2936 318.492 43.2323 318.92 43.2271C320.427 43.2271 320.793 43.8081 320.793 45.2428V51.4885C320.793 51.5898 320.833 51.6874 320.905 51.7608C320.978 51.8341 321.077 51.8776 321.183 51.882H322.978C323.031 51.8827 323.083 51.8728 323.132 51.853C323.181 51.8332 323.225 51.804 323.262 51.767C323.298 51.7301 323.327 51.6863 323.345 51.6383C323.363 51.5904 323.37 51.5394 323.367 51.4885V43.7217C323.793 43.3932 324.324 43.2181 324.87 43.2268C326.034 43.2268 326.505 43.7297 326.505 45.1002V51.4884C326.503 51.5896 326.543 51.6875 326.615 51.761C326.687 51.8346 326.787 51.878 326.892 51.8819H329.067V44.7622C329.067 42.0631 327.315 41.1344 325.125 41.1344Z" fill="#00DCE6" fill-opacity="0.3"/>
<circle cx="259" cy="93" r="27" fill="white"/>
<path d="M263.255 97.3196C263.925 96.515 265.132 96.3809 265.937 97.0514L267.117 98.017C267.922 98.6876 268.056 99.8946 267.385 100.699L260.787 108.746C260.116 109.551 258.909 109.685 258.105 109.014L256.924 108.049C256.12 107.378 255.986 106.171 256.656 105.366L263.255 97.3196Z" fill="#00DCE6" fill-opacity="0.3"/>
<path d="M255.422 113.28C256.77 113.28 257.863 112.187 257.863 110.839C257.863 109.491 256.77 108.398 255.422 108.398C254.074 108.398 252.981 109.491 252.981 110.839C252.981 112.187 254.074 113.28 255.422 113.28Z" fill="#00DCE6" fill-opacity="0.3"/>
<path d="M263.55 93.3761C264.596 92.9737 265.777 93.5102 266.179 94.5563L266.769 96.0584C267.171 97.1044 266.635 98.2846 265.589 98.687L255.262 102.603C254.216 103.005 253.036 102.469 252.633 101.423L252.043 99.9208C251.641 98.8747 252.177 97.6945 253.224 97.319L263.55 93.3761Z" fill="#00DCE6" fill-opacity="0.3"/>
<path d="M249.2 104.239C250.622 104.239 251.775 103.086 251.775 101.664C251.775 100.242 250.622 99.0894 249.2 99.0894C247.778 99.0894 246.625 100.242 246.625 101.664C246.625 103.086 247.778 104.239 249.2 104.239Z" fill="#00DCE6" fill-opacity="0.3"/>
<path d="M266.474 93.0016C267.574 93.3771 268.164 94.5841 267.788 95.6839L267.225 97.2932C266.85 98.393 265.642 98.9831 264.516 98.6075L253.599 94.8524C252.499 94.4768 251.909 93.2698 252.285 92.1433L252.848 90.5339C253.224 89.4342 254.431 88.8441 255.557 89.2196L266.474 93.0016Z" fill="#00DCE6" fill-opacity="0.3"/>
<path d="M249.388 92.7331C250.884 92.7331 252.097 91.5202 252.097 90.024C252.097 88.5278 250.884 87.3149 249.388 87.3149C247.891 87.3149 246.678 88.5278 246.678 90.024C246.678 91.5202 247.891 92.7331 249.388 92.7331Z" fill="#00DCE6" fill-opacity="0.3"/>
<path d="M269.156 94.745C269.907 95.8447 269.639 97.3468 268.539 98.0978L266.956 99.1975C265.856 99.9486 264.354 99.6803 263.603 98.5806L256.173 87.7442C255.422 86.6445 255.691 85.1424 256.79 84.3914L258.373 83.2916C259.473 82.5406 260.975 82.8088 261.726 83.9086L269.156 94.745Z" fill="#00DCE6" fill-opacity="0.3"/>
<path d="M255.583 83.5599C257.272 83.5599 258.641 82.1909 258.641 80.5021C258.641 78.8134 257.272 77.4443 255.583 77.4443C253.894 77.4443 252.525 78.8134 252.525 80.5021C252.525 82.1909 253.894 83.5599 255.583 83.5599Z" fill="#00DCE6" fill-opacity="0.3"/>
<path d="M270.497 97.829C270.497 99.3043 269.29 100.511 267.815 100.511H265.669C264.194 100.511 262.987 99.3043 262.987 97.829V83.2375C262.987 81.7622 264.194 80.5552 265.669 80.5552H267.815C269.29 80.5552 270.497 81.7622 270.497 83.2375V97.829Z" fill="#00DCE6" fill-opacity="0.3"/>
<path d="M267.011 79.6166C268.907 79.6166 270.444 78.0795 270.444 76.1833C270.444 74.2871 268.907 72.75 267.011 72.75C265.115 72.75 263.577 74.2871 263.577 76.1833C263.577 78.0795 265.115 79.6166 267.011 79.6166Z" fill="#00DCE6" fill-opacity="0.3"/>
<circle cx="115" cy="93" r="27" fill="white"/>
<path d="M124.801 91.4152C124.984 90.032 125.023 87.4462 123.248 85.6707C121.607 84.0293 119.323 84.0294 118.781 84.0294H118.776C115.64 84.0294 112.111 85.6583 109.386 88.3856C107.042 90.7288 105.488 93.6862 105.116 96.5032C104.934 97.8864 104.894 100.472 106.669 102.248C108.026 103.603 109.85 103.889 111.141 103.889C113.634 103.889 116.348 102.87 118.724 101.099L115.342 97.7182H122.1C123.563 95.7548 124.522 93.5448 124.801 91.4152Z" fill="#00DCE6" fill-opacity="0.3"/>
<path d="M127.876 103.496L125.506 101.125C129.018 96.7334 130.368 91.4637 129.315 87.1541C129.312 87.1433 129.311 87.1318 129.313 87.1206C129.315 87.1094 129.32 87.099 129.327 87.0902C129.334 87.0814 129.344 87.0747 129.354 87.0705C129.365 87.0663 129.376 87.0649 129.388 87.0663C129.398 87.0679 129.409 87.0719 129.417 87.078C129.426 87.0841 129.434 87.0921 129.439 87.1014C130.439 89.1897 131 91.5298 131 93.999C131.005 97.4178 129.91 100.748 127.876 103.496Z" fill="#00DCE6" fill-opacity="0.3"/>
<path d="M100.473 100.666C100.456 100.66 100.443 100.648 100.435 100.632C99.514 98.6111 99 96.3649 99 94C99 85.1639 106.164 78 114.999 78C117.284 77.9969 119.543 78.4848 121.622 79.4307C121.65 79.4431 121.67 79.471 121.666 79.5019C121.663 79.5203 121.653 79.5367 121.638 79.5477C121.623 79.5588 121.604 79.5635 121.586 79.5608C120.685 79.3554 119.744 79.2511 118.775 79.2511C114.511 79.2511 109.781 81.233 106.007 85.007C101.379 89.6356 99.449 95.7001 100.56 100.583C100.564 100.598 100.563 100.615 100.556 100.629C100.55 100.644 100.538 100.656 100.524 100.663C100.508 100.671 100.489 100.672 100.473 100.666Z" fill="#00DCE6" fill-opacity="0.3"/>
<path d="M124.499 106.875C121.75 108.91 118.419 110.005 114.999 110C112.61 110.003 110.251 109.469 108.096 108.437C108.074 108.427 108.059 108.403 108.059 108.375C108.059 108.367 108.06 108.358 108.063 108.35C108.067 108.342 108.071 108.334 108.077 108.328C108.083 108.322 108.091 108.317 108.099 108.314C108.107 108.31 108.115 108.308 108.124 108.308C109.111 108.549 110.125 108.669 111.141 108.665C114.759 108.665 118.71 107.241 122.13 104.505L124.499 106.875Z" fill="#00DCE6" fill-opacity="0.3"/>
<circle cx="230" cy="31" r="31" fill="white"/>
<path fill-rule="evenodd" clip-rule="evenodd" d="M226.119 52.1112C225.221 51.9013 224.385 51.1284 224.061 50.2534C223.111 50.0966 222.302 49.3032 221.955 48.2561C221.965 48.2561 221.971 48.2561 221.981 48.2588L225.267 48.631C226.552 48.151 228.393 46.6721 229.412 43.0177C230.132 40.4315 230.235 36.5325 230.235 32.082V14.8152L228.189 14.3597L232.074 12.2732V33.8038C232.074 37.6528 231.923 41.0595 231.116 43.7964C230.617 45.7757 228.519 49.8149 224.883 50.2993L227.449 50.6062C229.78 50.0302 231.692 47.9125 232.753 45.1838C233.964 42.009 234.163 37.7671 234.163 32.7624V12.7407L232.074 12.2732L236.021 10.1552V33.6476C236.021 39.5364 235.4 43.625 234.116 46.5034C233.224 48.4463 230.746 52.1551 226.959 52.1891L229.897 52.5419C232.157 52.151 234.533 50.2595 235.947 47.3297C237.46 44.2009 238.154 39.5599 238.154 32.7624V10.6297L236.021 10.1552L240.03 8V32.9458C240.03 42.2907 238.61 49.2131 234.139 52.3204C232.719 53.274 231.227 54.0715 229.402 53.9949C228.059 53.9371 226.828 53.3152 226.119 52.1112Z" fill="#00DCE6" fill-opacity="0.3"/>
<path fill-rule="evenodd" clip-rule="evenodd" d="M222.574 48.3075H222.564H222.62C222.638 48.3075 222.65 48.3075 222.669 48.3031C222.688 48.3031 222.705 48.3031 222.724 48.3024C222.743 48.3024 222.76 48.3024 222.778 48.2983C222.797 48.2983 222.815 48.2969 222.833 48.2969C222.855 48.2918 222.873 48.2918 222.896 48.2905C222.912 48.2891 222.932 48.285 222.946 48.2823C222.973 48.2782 222.995 48.2772 223.021 48.2718C223.038 48.2711 223.052 48.2677 223.07 48.2663C223.1 48.2636 223.125 48.2558 223.151 48.2517C223.166 48.2503 223.18 48.2466 223.196 48.2439C223.228 48.2357 223.255 48.232 223.285 48.2265C223.304 48.2224 223.318 48.216 223.338 48.2119C223.365 48.2054 223.397 48.1993 223.429 48.1908C223.445 48.1845 223.461 48.1796 223.478 48.1762C223.513 48.1667 223.543 48.1588 223.577 48.1469C223.59 48.1401 223.608 48.135 223.628 48.1282C223.66 48.119 223.696 48.1071 223.728 48.0949C223.744 48.0884 223.759 48.0796 223.777 48.0738C223.809 48.0646 223.847 48.0486 223.881 48.0326C223.9 48.0274 223.918 48.0193 223.934 48.0085C223.968 47.9952 224.006 47.9768 224.044 47.9608C224.058 47.954 224.077 47.9435 224.095 47.9363C224.129 47.9169 224.166 47.8969 224.205 47.8771C224.223 47.8705 224.24 47.86 224.254 47.8465C224.292 47.8305 224.333 47.8054 224.369 47.7853C224.386 47.7734 224.402 47.7642 224.42 47.7533C224.457 47.7281 224.5 47.7057 224.538 47.6805C224.553 47.6683 224.571 47.654 224.589 47.6417C224.629 47.6156 224.668 47.5872 224.705 47.5567C224.725 47.5449 224.743 47.5316 224.761 47.5169C224.797 47.4863 224.837 47.4584 224.878 47.426C224.896 47.4107 224.914 47.3947 224.929 47.3788C224.971 47.3468 225.01 47.3148 225.046 47.2804C225.066 47.2617 225.084 47.243 225.101 47.226C225.144 47.1906 225.18 47.1556 225.219 47.1182C225.24 47.0984 225.26 47.0772 225.279 47.0545C225.319 47.0154 225.352 46.9794 225.39 46.9389C225.415 46.9151 225.438 46.8878 225.458 46.863C225.494 46.8246 225.529 46.7848 225.562 46.7409C225.585 46.7184 225.605 46.6915 225.629 46.6613C225.665 46.6174 225.7 46.5772 225.735 46.5289C225.756 46.501 225.778 46.4725 225.798 46.4446C225.836 46.3932 225.869 46.3476 225.905 46.301C225.927 46.2697 225.951 46.2347 225.971 46.2027C226.005 46.151 226.035 46.103 226.07 46.0513C226.094 46.0166 226.118 45.9754 226.142 45.9394C226.174 45.8863 226.205 45.8387 226.237 45.7829C226.261 45.7427 226.283 45.7043 226.303 45.6645C226.336 45.6073 226.369 45.5502 226.403 45.4958C226.425 45.4491 226.444 45.4053 226.466 45.3655C226.498 45.3056 226.531 45.2471 226.559 45.1834C226.586 45.1355 226.607 45.0824 226.632 45.0331C226.659 44.9742 226.69 44.915 226.717 44.8538C226.742 44.7966 226.767 44.7388 226.791 44.6789C226.816 44.6201 226.843 44.5616 226.87 44.499C226.893 44.4405 226.914 44.384 226.94 44.3204C226.963 44.253 226.991 44.1907 227.017 44.1217C227.037 44.0645 227.061 44.0006 227.081 43.9383C227.107 43.8659 227.138 43.7961 227.16 43.7223C227.189 43.6379 227.215 43.5474 227.244 43.461C227.26 43.4066 227.28 43.3549 227.297 43.2991C227.341 43.1528 227.385 43.0028 227.429 42.8497C228.036 40.6544 228.189 36.2093 228.189 33.253V14.3594L219 19.2929V38.7629C219 46.1901 220.332 47.9673 221.981 48.2585C221.971 48.2558 221.965 48.2558 221.955 48.2558L222.574 48.3075Z" fill="#00DCE6" fill-opacity="0.3"/>
<circle cx="45" cy="45" r="45" fill="white"/>
<path fill-rule="evenodd" clip-rule="evenodd" d="M23.9538 55.9082C23.5675 55.3349 22.9881 55.072 22.2637 55.072L21.3462 55.3111L20.6218 55.9798V55.2157H18.8112V61.9997H20.815V59.8017C21.1772 60.2077 21.5875 60.3988 22.1188 60.3988C22.7949 60.3988 23.3258 60.208 23.7606 59.8017C24.2919 59.3238 24.5332 58.6554 24.5332 57.7235C24.5329 56.9829 24.3157 56.3384 23.9538 55.9082ZM22.5051 57.7715C22.5051 58.5356 22.2393 58.8939 21.6358 58.8939C21.1045 58.8939 20.815 58.4879 20.815 57.7238L21.0322 56.8875C21.1772 56.6967 21.3941 56.5769 21.5875 56.5769C22.1911 56.5769 22.5051 56.9829 22.5051 57.7715ZM30.8829 57.2462C30.8829 55.789 30.2311 55.072 28.9032 55.072C28.2997 55.072 27.7926 55.3349 27.3822 55.8605V53.3524H25.3299V60.2796H27.3822V57.7238C27.3822 57.0545 27.6235 56.6967 28.1065 56.6967C28.6378 56.6967 28.8791 57.0068 28.8791 57.6039V60.2796H30.8829V57.2462ZM36.8707 55.6691C36.5085 55.2634 35.7841 55.072 34.6734 55.072C32.8625 55.072 31.9209 55.6214 31.9209 56.7683H33.8524C33.9006 56.4576 34.0937 56.2904 34.5526 56.2904C34.9871 56.2904 35.1803 56.4574 35.1803 56.7444L34.6249 57.1028L33.4179 57.2936C32.1623 57.4844 31.559 58.01 31.559 58.8939C31.559 59.3718 31.7763 59.754 32.1385 60.0402C32.4524 60.2793 32.8869 60.3985 33.4182 60.3985C34.1907 60.3985 34.8187 60.2077 35.3496 59.7537L35.4222 60.2793H37.5227V60.2077L37.209 59.5146V57.2217C37.2087 56.4576 37.0879 55.9321 36.8707 55.6691ZM35.1806 58.058C35.2773 58.8942 34.9874 59.2764 34.3354 59.2764C33.9006 59.2764 33.6592 59.1571 33.6592 58.8942C33.6592 58.608 33.8283 58.4163 34.1904 58.3209L35.1806 58.058ZM38.3676 55.2157V60.2796H40.3475V58.5356C40.3475 57.5324 40.7335 57.0545 41.5787 57.0545L42.0373 57.1028V55.0958L41.796 55.072C41.0234 55.072 40.4681 55.4542 40.1785 56.2665H40.1303V55.2157H38.3676ZM42.7858 60.2796H44.8137V57.7715C44.8137 57.0545 45.0553 56.6967 45.4901 56.6967C45.7794 56.6967 45.9243 56.7683 46.0213 56.8875L46.1419 57.7238V60.2796H48.1939V57.7715C48.1939 57.0545 48.4355 56.6967 48.9185 56.6967L49.4256 56.8875L49.5462 57.7238V60.2796H51.5981V57.2936C51.5981 55.8125 50.9705 55.0717 49.6426 55.0717C48.9185 55.0717 48.3385 55.3823 47.9046 56.0272C47.6147 55.3823 47.0594 55.0717 46.2142 55.0717C45.852 55.0717 45.5383 55.1909 45.2003 55.3823L44.5967 55.9795V55.2154H42.7858V60.2796ZM57.5618 55.6691C57.2002 55.2634 56.4755 55.072 55.389 55.072C53.5058 55.072 52.5641 55.6214 52.5641 56.7683H54.5438C54.592 56.4576 54.7855 56.2904 55.2197 56.2904C55.6786 56.2904 55.9202 56.4574 55.9202 56.7444C55.9202 56.9352 55.7027 57.0545 55.3408 57.1028L54.1093 57.2936C52.854 57.4844 52.2502 58.01 52.2502 58.8939C52.2502 59.3718 52.4436 59.754 52.8543 60.0402C53.1677 60.2793 53.5784 60.3985 54.1096 60.3985C54.8584 60.3985 55.4619 60.2077 55.9928 59.7537L56.1134 60.2793H58.1659V60.2077C57.9966 60.0402 57.9243 59.8017 57.9243 59.5146V57.2217C57.924 56.4576 57.8034 55.9321 57.5618 55.6691ZM55.9202 58.058C55.9443 58.8942 55.6786 59.2764 55.0268 59.2764C54.592 59.2764 54.3751 59.1571 54.3751 58.8942C54.3751 58.608 54.5438 58.4163 54.9063 58.3209L55.9202 58.058ZM63.5493 55.5499C63.1151 55.216 62.463 55.072 61.7148 55.072C60.8697 55.072 60.1697 55.3111 59.6629 55.8128C59.1311 56.2907 58.8418 56.9829 58.8418 57.8192C58.8418 58.6554 59.1311 59.2764 59.6629 59.754C60.17 60.208 60.8697 60.3988 61.7148 60.3988C63.4287 60.3988 64.3704 59.7301 64.5638 58.3206H62.5112C62.463 58.7985 62.1979 59.0376 61.7148 59.0376C61.1354 59.0376 60.8697 58.6554 60.8697 57.8192C60.8697 56.8875 61.1354 56.4097 61.7148 56.4097C61.9559 56.4097 62.1011 56.5051 62.222 56.6243L62.463 57.126H64.515C64.4909 56.4576 64.1531 55.9082 63.5493 55.5499ZM67.0988 55.2157H65.0468L66.7366 59.8497V60.3991C66.6643 60.5189 66.4467 60.5666 66.1331 60.5666L65.7227 60.5189V61.9523L66.6161 62C67.4607 62 68.0648 61.8325 68.3782 61.5221L69.1511 59.9212L70.7926 55.2157H68.8612L67.9925 58.3209L67.0988 55.2157ZM29.8689 40.5246H35.6633C35.4219 38.1357 34.5044 36.3202 32.9349 35.0064C31.3174 33.6925 29.1202 33 26.2953 33C23.6395 33 21.4667 33.8839 19.7281 35.6038C17.9175 37.3955 17 39.7363 17 42.6746C17 45.6606 17.8934 48.0494 19.6076 49.8167C21.4182 51.5607 23.8327 52.4446 26.8989 52.4446C29.3615 52.4446 31.4138 51.7515 33.0075 50.4144C34.6249 49.0049 35.5424 47.1417 35.832 44.8005H29.9172C29.6276 46.9026 28.6375 47.9302 26.8268 47.9302C25.3781 47.9302 24.3642 47.4282 23.8089 46.3773C23.35 45.589 23.1086 44.4425 23.1086 42.8896C23.1086 41.122 23.4467 39.8082 24.0502 38.9004C24.6538 37.9926 25.4507 37.515 26.537 37.515C27.5027 37.515 28.2756 37.7777 28.8791 38.3033C29.4341 38.8286 29.7481 39.5691 29.8689 40.5246ZM48.6769 33.4776L45.3208 45.7798L42.0373 33.4776H35.8805L42.2305 51.9668H48.3876L54.8578 33.4776H48.6769ZM57.7311 34.4811C56.1854 35.5081 55.4372 36.9894 55.4372 38.9001C55.4372 40.4527 55.9925 41.7188 57.0788 42.6746C57.924 43.3672 59.1796 43.9646 60.7729 44.4422L64.4906 45.3977C65.5774 45.756 66.1328 46.2336 66.1328 46.831C66.1328 47.2612 65.8911 47.5716 65.4563 47.8103L63.5978 48.1687C62.9454 48.1687 62.3904 48.0256 61.8592 47.6908C61.3521 47.3802 61.014 46.9026 60.8935 46.2336H55.0265C55.0747 47.9779 55.8717 49.4587 57.3686 50.6052C58.9379 51.8475 60.8935 52.4446 63.2838 52.4446C65.9393 52.4446 68.0163 51.9191 69.5614 50.8443C71.203 49.7213 72 48.1448 72 46.0663C72 44.5137 71.4447 43.3195 70.3096 42.4117C69.5132 41.7191 68.3059 41.1694 66.6643 40.6918L62.946 39.7363C61.8357 39.378 61.2562 38.9001 61.2562 38.3033C61.2562 37.5866 61.908 37.2282 63.2359 37.2282L64.7569 37.5866C65.2882 37.8731 65.6021 38.2553 65.6986 38.8527H71.4932C71.2515 37.061 70.5275 35.6756 69.2716 34.6725C67.8711 33.5736 65.9637 33.0003 63.5258 33.0003C61.1113 33 59.1796 33.4776 57.7311 34.4811Z" fill="#00DCE6" fill-opacity="0.3"/>
<circle cx="142" cy="32" r="32" fill="white"/>
<path d="M137.029 29.6733C136.585 29.8073 136.145 29.9561 135.713 30.1162C135.099 26.4879 135.458 22.7634 136.755 19.3159C138.052 15.8683 140.241 12.8188 143.104 10.4727V12.7876C140.933 14.8651 139.281 17.4143 138.278 20.2333C137.276 23.0524 136.949 26.0639 137.326 29.0294L137.029 29.6733ZM156.655 45.9523C152.195 45.952 147.872 44.4285 144.416 41.6388C143.959 41.2741 143.522 40.8895 143.104 40.485C140.723 38.1988 138.969 35.3504 138.006 32.2078L136.961 34.5116C138.06 37.1969 139.704 39.6303 141.792 41.6611C142.213 42.0705 142.65 42.4638 143.104 42.8409C146.904 45.9868 151.701 47.7099 156.655 47.709C159.186 47.7117 161.697 47.259 164.064 46.3729L162.02 45.2154C160.272 45.7138 158.462 45.9644 156.644 45.9598" fill="#00DCE6" fill-opacity="0.3"/>
<path d="M140.754 41.6586C141.175 42.0685 141.61 42.4634 142.065 42.836C138.265 45.9851 133.47 47.71 128.518 47.7094C125.984 47.7157 123.47 47.2649 121.099 46.3793L123.144 45.2206C126.151 46.0803 129.324 46.2051 132.391 45.5841C135.458 44.9632 138.327 43.615 140.754 41.6549V41.6586ZM149.743 26.6844C149.739 23.5893 149.049 20.5328 147.721 17.7314C146.394 14.93 144.462 12.4521 142.061 10.4731V12.7906C144.843 15.4592 146.759 18.8903 147.562 22.6446C148.366 26.3989 148.02 30.3055 146.571 33.8641C145.55 36.3698 144.014 38.6373 142.061 40.5223C142.482 40.9271 142.919 41.3134 143.373 41.681C145.079 40.0195 146.493 38.0863 147.556 35.9618C148.991 33.0761 149.74 29.9021 149.743 26.6844Z" fill="#00DCE6" fill-opacity="0.3"/>
<path d="M164.064 46.2767L161.969 45.1367C161.2 42.2323 159.724 39.5409 157.659 37.2798C155.595 35.0187 153.001 33.2514 150.087 32.1206L152.991 38.0733C154.308 40.7491 155.086 41.3722 156.434 41.5775C156.585 41.6068 156.585 42.3766 156.434 42.4022H148.273C148.122 42.3729 148.122 41.6032 148.273 41.5775C149.86 41.4052 150.426 40.5805 149.428 38.5315L148.203 36.006C149.135 34.2058 149.783 32.2854 150.129 30.3061C153.717 31.575 156.893 33.7178 159.338 36.5203C161.783 39.3228 163.413 42.687 164.064 46.2767ZM148.542 28.9389C148.345 30.6568 147.899 32.3405 147.217 33.9423L145.765 30.9476C144.715 30.7819 143.652 30.6973 142.588 30.6947C141.004 30.6871 139.425 30.8694 137.889 31.2372L137.365 32.3368L136.294 34.5948L134.892 37.5271C133.486 40.4889 134.172 41.3429 135.79 41.6288C135.94 41.6875 135.909 42.3619 135.759 42.3986H129.118C128.968 42.3692 128.937 41.6875 129.088 41.6288C130.243 41.2293 131.152 40.6025 132.801 37.2302L135.316 31.9886C132.346 33.1057 129.698 34.8789 127.591 37.1619C125.483 39.4448 123.976 42.172 123.195 45.1184L121.099 46.2583C121.748 42.6674 123.375 39.301 125.816 36.4944C128.258 33.6878 131.429 31.5391 135.015 30.2622C135.458 30.1045 135.905 29.9579 136.363 29.826L136.668 29.1918L142.199 17.6969C142.491 17.6121 142.804 17.6121 143.096 17.6969L148.542 28.9389ZM144.872 29.1075L141.86 22.8982L138.817 29.3018C140.062 29.0969 141.324 28.9927 142.588 28.9902C143.351 28.9926 144.113 29.033 144.872 29.1112" fill="#00DCE6" fill-opacity="0.3"/>
<circle cx="187" cy="89" r="31" fill="white"/>
<path d="M195.368 96.1914C194.745 98.6009 194.142 101.075 193.54 103.614C196.229 105.356 198.854 107.056 201.478 108.519C199.456 104.711 197.455 100.537 195.368 96.1914Z" stroke="#00DCE6" stroke-opacity="0.3" stroke-width="0.75" stroke-miterlimit="10" stroke-linecap="square" stroke-linejoin="round"/>
<path d="M195.369 96.1914C197.778 97.9125 200.123 99.6336 202.425 101.247C202.102 103.592 201.801 106.023 201.478 108.519C199.456 104.711 197.455 100.537 195.369 96.1914Z" stroke="#00DCE6" stroke-opacity="0.3" stroke-width="0.75" stroke-miterlimit="10" stroke-linecap="square" stroke-linejoin="round"/>
<path d="M195.369 96.1914C194.745 98.6009 194.142 101.075 193.54 103.614C190.851 101.892 188.119 100.128 185.365 98.5579C188.678 97.5037 192.034 96.6647 195.369 96.1914Z" stroke="#00DCE6" stroke-opacity="0.3" stroke-width="0.75" stroke-miterlimit="10" stroke-linecap="square" stroke-linejoin="round"/>
<path d="M195.369 96.1917C192.981 94.4706 190.507 92.7926 188.033 91.2651C187.129 93.6531 186.226 96.1057 185.365 98.5582C188.678 97.504 192.034 96.665 195.369 96.1917Z" stroke="#00DCE6" stroke-opacity="0.3" stroke-width="0.75" stroke-miterlimit="10" stroke-linecap="square" stroke-linejoin="round"/>
<path d="M198.101 86.3379C197.692 87.7148 197.284 89.1346 196.875 90.6191C199.026 92.3401 201.113 94.1258 203.157 95.8253C201.5 92.835 199.822 89.6294 198.101 86.3379Z" stroke="#00DCE6" stroke-opacity="0.3" stroke-width="0.75" stroke-miterlimit="10" stroke-linecap="square" stroke-linejoin="round"/>
<path d="M198.101 86.3379C200.037 88.0805 201.909 89.8876 203.716 91.6517C203.522 92.9855 203.35 94.3839 203.156 95.8038C201.5 92.835 199.822 89.6294 198.101 86.3379Z" stroke="#00DCE6" stroke-opacity="0.3" stroke-width="0.75" stroke-miterlimit="10" stroke-linecap="square" stroke-linejoin="round"/>
<path d="M195.369 96.1912C195.863 94.2765 196.358 92.4048 196.875 90.5977C199.026 92.3187 201.113 94.1043 203.157 95.8039C200.639 95.6533 198.015 95.8039 195.369 96.1912Z" stroke="#00DCE6" stroke-opacity="0.3" stroke-width="0.75" stroke-miterlimit="10" stroke-linecap="square" stroke-linejoin="round"/>
<path d="M195.369 96.1918C197.778 97.9129 200.123 99.634 202.425 101.247C202.683 99.3758 202.92 97.5687 203.157 95.8046C200.639 95.654 198.015 95.8046 195.369 96.1918Z" stroke="#00DCE6" stroke-opacity="0.3" stroke-width="0.75" stroke-miterlimit="10" stroke-linecap="square" stroke-linejoin="round"/>
<path d="M198.101 86.3389C198.445 85.1987 198.789 84.08 199.112 83.0259C200.855 84.79 202.533 86.5971 204.168 88.4042C202.253 87.4792 200.209 86.7907 198.101 86.3389Z" stroke="#00DCE6" stroke-opacity="0.3" stroke-width="0.75" stroke-miterlimit="10" stroke-linecap="square" stroke-linejoin="round"/>
<path d="M198.101 86.3379C200.037 88.0805 201.909 89.8876 203.716 91.6517C203.866 90.533 204.017 89.4573 204.146 88.4032C202.253 87.4781 200.209 86.7897 198.101 86.3379Z" stroke="#00DCE6" stroke-opacity="0.3" stroke-width="0.75" stroke-miterlimit="10" stroke-linecap="square" stroke-linejoin="round"/>
<path d="M198.101 86.3389C198.445 85.1987 198.789 84.08 199.112 83.0258C197.369 81.2617 195.562 79.5622 193.69 77.9917C195.196 80.7884 196.659 83.5852 198.101 86.3389Z" stroke="#00DCE6" stroke-opacity="0.3" stroke-width="0.75" stroke-miterlimit="10" stroke-linecap="square" stroke-linejoin="round"/>
<path d="M198.101 86.3389C196.165 84.5963 194.164 82.8968 192.12 81.3478C192.636 80.1861 193.174 79.0674 193.691 77.9917C195.197 80.7884 196.659 83.5852 198.101 86.3389Z" stroke="#00DCE6" stroke-opacity="0.3" stroke-width="0.75" stroke-miterlimit="10" stroke-linecap="square" stroke-linejoin="round"/>
<path d="M180.61 87.3711C179.449 89.8021 178.33 92.2546 177.211 94.6426C179.857 95.6323 182.611 96.9876 185.365 98.5581C183.794 94.7287 182.202 90.9638 180.61 87.3711Z" stroke="#00DCE6" stroke-opacity="0.3" stroke-width="0.75" stroke-miterlimit="10" stroke-linecap="square" stroke-linejoin="round"/>
<path d="M180.61 87.3711C183.063 88.4037 185.558 89.7591 188.032 91.265C187.129 93.653 186.225 96.1056 185.365 98.5581C183.794 94.7287 182.202 90.9638 180.61 87.3711Z" stroke="#00DCE6" stroke-opacity="0.3" stroke-width="0.75" stroke-miterlimit="10" stroke-linecap="square" stroke-linejoin="round"/>
<path d="M180.61 87.3711C179.449 89.8021 178.33 92.2546 177.211 94.6426C174.565 93.653 172.048 93.0722 169.832 93.0937C172.995 90.5551 176.695 88.6189 180.61 87.3711Z" stroke="#00DCE6" stroke-opacity="0.3" stroke-width="0.75" stroke-miterlimit="10" stroke-linecap="square" stroke-linejoin="round"/>
<path d="M180.611 87.3714C178.158 86.3387 175.792 85.6073 173.598 85.3491C172.285 87.9738 171.059 90.5769 169.854 93.094C172.995 90.5554 176.696 88.6192 180.611 87.3714Z" stroke="#00DCE6" stroke-opacity="0.3" stroke-width="0.75" stroke-miterlimit="10" stroke-linecap="square" stroke-linejoin="round"/>
<path d="M185.903 77.1519C185.085 78.5933 184.268 80.0992 183.472 81.6267C181.213 80.508 178.975 79.6474 176.845 79.1311C179.685 77.9263 182.762 77.2594 185.903 77.1519Z" stroke="#00DCE6" stroke-opacity="0.3" stroke-width="0.75" stroke-miterlimit="10" stroke-linecap="square" stroke-linejoin="round"/>
<path d="M185.903 77.1519C183.816 75.9471 181.729 74.9575 179.685 74.2476C178.696 75.8396 177.749 77.4746 176.824 79.1311C179.685 77.9264 182.762 77.2594 185.903 77.1519Z" stroke="#00DCE6" stroke-opacity="0.3" stroke-width="0.75" stroke-miterlimit="10" stroke-linecap="square" stroke-linejoin="round"/>
<path d="M180.61 87.371C181.535 85.4348 182.482 83.5201 183.472 81.6269C181.213 80.5082 178.975 79.6477 176.845 79.1313C178.072 81.7345 179.341 84.5097 180.61 87.371Z" stroke="#00DCE6" stroke-opacity="0.3" stroke-width="0.75" stroke-miterlimit="10" stroke-linecap="square" stroke-linejoin="round"/>
<path d="M180.61 87.371C178.158 86.3384 175.791 85.6069 173.597 85.3487C174.63 83.2619 175.705 81.1751 176.845 79.1313C178.072 81.7345 179.341 84.5097 180.61 87.371Z" stroke="#00DCE6" stroke-opacity="0.3" stroke-width="0.75" stroke-miterlimit="10" stroke-linecap="square" stroke-linejoin="round"/>
<path d="M185.903 77.1527C186.591 75.9479 187.279 74.7862 187.989 73.6675C189.926 74.9368 191.84 76.3997 193.69 77.9917C191.13 77.3248 188.506 77.0451 185.903 77.1527Z" stroke="#00DCE6" stroke-opacity="0.3" stroke-width="0.75" stroke-miterlimit="10" stroke-linecap="square" stroke-linejoin="round"/>
<path d="M185.903 77.1519C187.989 78.3566 190.076 79.7765 192.12 81.3255C192.636 80.1637 193.174 79.045 193.69 77.9694C191.13 77.324 188.506 77.0443 185.903 77.1519Z" stroke="#00DCE6" stroke-opacity="0.3" stroke-width="0.75" stroke-miterlimit="10" stroke-linecap="square" stroke-linejoin="round"/>
<path d="M185.903 77.1521C186.591 75.9474 187.28 74.7857 187.99 73.667C186.053 72.3977 184.117 71.3005 182.202 70.4399C183.429 72.5913 184.676 74.8502 185.903 77.1521Z" stroke="#00DCE6" stroke-opacity="0.3" stroke-width="0.75" stroke-miterlimit="10" stroke-linecap="square" stroke-linejoin="round"/>
<path d="M185.903 77.1521C183.816 75.9474 181.729 74.9578 179.685 74.2478C180.503 72.9355 181.342 71.6447 182.202 70.4399C183.429 72.5913 184.676 74.8502 185.903 77.1521Z" stroke="#00DCE6" stroke-opacity="0.3" stroke-width="0.75" stroke-miterlimit="10" stroke-linecap="square" stroke-linejoin="round"/>
</svg>
