<svg width="60" height="60" viewBox="0 0 60 60" fill="none" xmlns="http://www.w3.org/2000/svg">
<g opacity="0.5">
<path d="M40.347 15.9852C40.7405 15.951 41.1525 15.9302 41.57 15.9302C42.0451 15.9302 42.4965 15.9395 42.9107 15.9563L31.6211 0H28.3864L23.1965 7.40933C23.3068 7.65275 23.3835 7.91417 23.4232 8.1898C23.546 9.04201 23.2876 9.82252 23.0013 10.3901C22.7758 10.837 22.4883 11.1652 22.2179 11.4049C22.2413 11.5038 22.2666 11.6089 22.2934 11.7199C22.3304 11.8726 22.3702 12.035 22.4124 12.2058L28.8235 3.053V21.7579C29.3403 20.765 30.131 19.9697 30.9412 19.3517V2.69124L40.347 15.9852Z" fill="#818592"/>
<path fill-rule="evenodd" clip-rule="evenodd" d="M25.1979 40.0504L17.0549 43.5446L8.35556 33.1226L8.37559 33.1159L17.1165 36.2279L17.6585 35.0459C17.7418 34.8643 17.8487 34.6123 17.971 34.3075L11.6032 32.0403L19.6024 29.3747C19.7889 28.6338 19.9061 28.0102 19.9248 27.5922C19.9329 27.4101 19.9378 27.2309 19.9395 27.0535L9.59849 30.4996L17.6582 18.9932L18.5658 19.5883C18.4916 19.3169 18.4143 19.0358 18.3341 18.744C17.9941 17.5085 17.6969 16.4887 17.4262 15.6473L16.9649 16.3059L7.2231 9.91822L5.05882 12.4687V32.0124L0 33.6982V35.907L5.05882 34.2212V47.392L7.01679 49.8801L16.2801 45.9053L28.045 60H31.9665L43.8598 45.894L53.0827 49.871L55.0588 47.6126V34.3523L60 35.9864V33.7793L55.0588 32.1452V12.5673L52.8324 9.96143L43.6701 15.9986C43.6938 16.0003 43.7172 16.0021 43.7405 16.0039C44.2718 16.0444 44.8986 16.1119 45.3432 16.2588L46.226 16.5505L53.1765 11.9707V30.4657L48.8756 24.387L48.1582 25.5943L47.6496 26.3065L50.7793 30.7299L45.5904 29.0139C45.1311 29.5733 44.6281 30.1676 44.119 30.7344L48.462 32.1707L40.8855 34.7071C40.3096 35.6346 39.9318 36.3979 39.8189 36.7337C39.7333 36.9883 39.6066 37.2074 39.4721 37.3901L51.7344 33.285L43.0933 43.5337L35.0704 40.0742C34.2712 40.427 33.4423 40.769 32.6768 41.0719L41.8382 45.0223L30.9412 57.9467V41.7338L30.2405 41.9897L28.8235 41.4448V57.6438L18.3014 45.0379L27.6906 41.0091L25.1979 40.0504ZM6.94118 11.966L15.8932 17.8359L6.94118 30.6162V11.966ZM6.94118 47.8844V34.717L15.0336 44.4119L6.94118 47.8844ZM53.1765 47.8816L45.1149 44.4054L53.1765 34.844V47.8816Z" fill="#818592"/>
<path d="M25.26 21.745L28.2217 23.687C28.115 24.1373 27.9528 24.6255 27.748 25.1163H27.6876C27.5849 25.1163 27.4922 25.1208 27.4236 25.1249C27.3844 25.1272 27.3289 25.131 27.2892 25.1337L27.2501 25.1364C27.1737 25.1413 27.1365 25.1423 27.1151 25.142C26.911 25.021 26.5542 24.6421 26.0855 23.6918C25.802 23.1169 25.5387 22.4675 25.26 21.745Z" fill="#818592"/>
<path fill-rule="evenodd" clip-rule="evenodd" d="M21.804 27.6744C21.7104 29.7674 20.0196 34.4011 19.3717 35.814L30.2565 40C32.7186 39.1009 37.7204 37.0716 38.0314 36.1468C38.4202 34.9909 40.1314 32.1227 41.6864 30.5814C42.9304 29.3484 45.2879 26.5139 46.195 25.358C45.8063 25.2295 44.7955 24.9726 43.8626 24.9726C42.6963 24.9726 42.8037 24.0996 43.8626 23.8372C44.5754 23.6606 46.195 24.0698 46.9725 24.3023L47.75 22.907C47.8796 22.907 47.8891 22.8328 46.9725 22.6607C45.8063 22.4419 45.2158 22.0924 44.3922 21.5048C43.0981 20.5814 44.0973 18.9223 44.7452 18.0233C44.3564 17.8948 43.1237 17.7907 41.5687 17.7907C40.0137 17.7907 38.5457 18.1274 38.157 18.2558C38.0877 18.4275 38.005 18.5988 37.9172 18.7806C37.6768 19.2787 37.3984 19.8555 37.2539 20.7342C37.1142 21.5841 36.0877 21.5048 36.0877 20.7342C36.0877 20.2226 36.3702 19.4391 36.5404 18.9671C36.5753 18.8703 36.6055 18.7865 36.6275 18.7209C34.661 19.2157 30.6275 20.8504 30.157 23.6047C29.826 25.5417 28.6242 27.907 27.4511 29.0698C26.6736 29.8404 25.9217 28.9555 26.6275 28.2558C26.9385 27.9476 27.2976 27.4905 27.6864 26.9767C27.6078 26.9767 27.5246 26.9825 27.4365 26.9885C27.0884 27.0124 26.6645 27.0414 26.157 26.7442C24.8552 25.9818 24.0536 23.8708 23.1987 21.6196C23.1265 21.4294 23.0538 21.238 22.9805 21.0465C22.0553 18.6304 20.1492 11.1012 20.1492 10.7159C20.1492 10.5397 20.3119 10.444 20.5256 10.3184C20.7792 10.1693 21.1045 9.97808 21.3154 9.55996C21.7042 8.78933 21.7042 8.0187 20.9267 7.63338C20.2989 7.32227 19.9246 7.76475 19.5991 8.14953C19.5215 8.24132 19.4466 8.32981 19.3717 8.40401C19.1774 8.59667 19.0802 9.07832 18.983 9.55996C18.8858 10.0416 18.7886 10.5233 18.5942 10.7159C18.2055 11.1012 17.8168 9.94528 18.5942 8.40401C19.2162 7.171 19.6309 6.34899 19.7605 6.09211C19.5013 4.29397 18.7497 0.697674 17.8168 0.697674C16.8838 0.697674 17.428 4.29397 17.8168 6.09211C17.5576 5.96367 16.8838 5.78386 16.2618 6.09211C15.6398 6.40037 15.4843 6.73431 15.4843 6.86275C15.2251 6.60587 14.6291 6.24624 14.3181 6.86275C14.0071 7.47925 14.0393 7.90698 14.0393 7.90698C13.6503 7.55206 13.2656 7.18436 12.8878 6.8232C11.7803 5.76451 10.7316 4.76202 9.80402 4.30233C8.24904 3.53169 7.95491 5.23256 9.45111 6.51163C10.2652 7.20755 12.5803 8.47785 14.5085 9.53582C15.5392 10.1013 16.4593 10.6062 16.9805 10.9302C18.1026 11.6279 18.884 13.6575 20.1492 18.2558C21.3154 22.4943 21.9341 24.7674 21.804 27.6744ZM38.5099 20.4651C38.5099 20 38.9805 19.6512 39.5688 19.3023C39.6864 19.186 40.1335 19.3023 40.2746 19.5349C40.5353 19.9643 40.2825 20.14 39.9904 20.3431C39.887 20.4149 39.7786 20.4902 39.6864 20.5814C39.5791 20.6874 39.5154 20.7719 39.4653 20.8382C39.3506 20.9902 39.3081 21.0465 38.9805 21.0465C38.5099 21.0465 38.5099 20.9302 38.5099 20.4651Z" fill="#818592"/>
<path d="M44.9805 20.1163C44.9805 19.592 45.3903 19.013 45.6722 18.6145C45.7218 18.5444 45.7675 18.4799 45.8063 18.4223C46.0654 18.4223 46.4005 18.4533 47.3335 19.0698C48.3893 19.7674 48.4162 21.2304 48.157 21.7442C47.8978 21.7442 47.1067 21.678 46.5099 21.5048C45.7324 21.2791 44.9805 20.8869 44.9805 20.1163Z" fill="#818592"/>
</g>
</svg>
