<svg width="60" height="60" viewBox="0 0 60 60" fill="none" xmlns="http://www.w3.org/2000/svg">
<g opacity="0.5">
<path fill-rule="evenodd" clip-rule="evenodd" d="M16.4483 9.89483C15.4511 9.41972 15.0279 8.2262 15.503 7.22903L18.3251 1.30621C18.8002 0.309044 19.9937 -0.114162 20.9909 0.360954L22.1468 0.911698C23.1439 1.38681 23.5671 2.58033 23.092 3.5775L20.27 9.50032C19.7949 10.4975 18.6013 10.9207 17.6042 10.4456L16.4483 9.89483ZM27.8767 3.64171C26.8795 3.1666 25.686 3.5898 25.2109 4.58697L24.6601 5.74285C24.185 6.74001 24.6082 7.93353 25.6054 8.40865L37.3545 14.0067C38.3516 14.4818 39.5452 14.0586 40.0203 13.0615L40.571 11.9056C41.0461 10.9084 40.6229 9.71488 39.6258 9.23977L27.8767 3.64171ZM34.5066 21.0987C33.5095 20.6236 32.316 21.0468 31.8408 22.0439L31.2901 23.1998C30.815 24.197 31.2382 25.3905 32.2354 25.8656L43.4548 31.2113C44.452 31.6864 45.6455 31.2632 46.1206 30.266L46.6713 29.1102C47.1465 28.113 46.7233 26.9195 45.7261 26.4444L34.5066 21.0987ZM13.6019 28.9513C14.077 27.9542 15.2705 27.531 16.2677 28.0061L28.0168 33.6041C29.014 34.0792 29.4372 35.2728 28.962 36.2699L28.4113 37.4258C27.9362 38.423 26.7427 38.8462 25.7455 38.3711L13.9964 32.773C12.9992 32.2979 12.576 31.1044 13.0511 30.1072L13.6019 28.9513ZM21.6286 25.7453C21.1535 26.7425 21.5767 27.936 22.5739 28.4111L23.7298 28.9618C24.7269 29.437 25.9205 29.0137 26.3956 28.0166L31.9936 16.2675C32.4688 15.2703 32.0456 14.0768 31.0484 13.6017L29.8925 13.051C28.8953 12.5758 27.7018 12.999 27.2267 13.9962L21.6286 25.7453ZM4.83946 34.2592C3.8423 33.7841 3.4191 32.5906 3.89421 31.5934L9.49228 19.8443C9.96739 18.8472 11.1609 18.4239 12.1581 18.8991L13.314 19.4498C14.3111 19.9249 14.7343 21.1184 14.2592 22.1156L8.66116 33.8647C8.18604 34.8619 6.99252 35.2851 5.99536 34.8099L4.83946 34.2592ZM28.5362 43.9842C28.061 44.9814 28.4842 46.1749 29.4814 46.65L30.6373 47.2008C31.6345 47.6759 32.828 47.2527 33.3031 46.2555L38.9012 34.5065C39.3763 33.5093 38.9531 32.3158 37.9559 31.8407L36.8 31.2899C35.8029 30.8148 34.6093 31.238 34.1342 32.2352L28.5362 43.9842ZM46.9383 40.0199C45.9411 39.5448 45.5179 38.3513 45.993 37.3541L51.5911 25.605C52.0662 24.6079 53.2597 24.1847 54.2569 24.6598L55.4128 25.2105C56.4099 25.6856 56.8331 26.8792 56.358 27.8763L50.76 39.6254C50.2848 40.6226 49.0913 41.0458 48.0942 40.5707L46.9383 40.0199ZM23.1752 46.2451C22.1781 45.7699 20.9845 46.1931 20.5094 47.1903L19.9587 48.3462C19.4836 49.3434 19.9068 50.5369 20.9039 51.012L32.1234 56.3577C33.1205 56.8328 34.3141 56.4096 34.7892 55.4124L35.3399 54.2565C35.815 53.2594 35.3918 52.0659 34.3947 51.5907L23.1752 46.2451ZM12.773 12.9588C13.2481 11.9616 14.4417 11.5384 15.4388 12.0135L21.3617 14.8355C22.3588 15.3107 22.782 16.5042 22.3069 17.5013L21.7562 18.6572C21.2811 19.6544 20.0875 20.0776 19.0904 19.6025L13.1675 16.7804C12.1704 16.3053 11.7472 15.1118 12.2223 14.1146L12.773 12.9588ZM52.7705 15.5029C51.7734 15.0278 50.5799 15.451 50.1047 16.4482L49.554 17.604C49.0789 18.6012 49.5021 19.7947 50.4992 20.2698L56.4221 23.0919C57.4192 23.567 58.6128 23.1438 59.0879 22.1466L59.6386 20.9907C60.1137 19.9936 59.6905 18.8001 58.6934 18.3249L52.7705 15.5029ZM0.911942 37.8528C1.38706 36.8556 2.58058 36.4324 3.57775 36.9075L9.50058 39.7295C10.4978 40.2047 10.921 41.3982 10.4458 42.3953L9.89509 43.5512C9.41998 44.5484 8.22645 44.9716 7.22929 44.4965L1.30645 41.6744C0.309285 41.1993 -0.113918 40.0058 0.3612 39.0086L0.911942 37.8528ZM12.5433 44.813C12.0681 45.8102 12.4913 47.0037 13.4885 47.4788L14.6444 48.0296C15.6416 48.5047 16.8351 48.0815 17.3102 47.0843L20.1322 41.1615C20.6074 40.1643 20.1841 38.9708 19.187 38.4957L18.0311 37.945C17.0339 37.4698 15.8404 37.8931 15.3653 38.8902L12.5433 44.813ZM37.8531 59.0877C36.8559 58.6126 36.4327 57.419 36.9078 56.4219L39.7299 50.499C40.205 49.5019 41.3985 49.0787 42.3957 49.5538L43.5515 50.1045C44.5487 50.5797 44.9719 51.7732 44.4968 52.7703L41.6748 58.6932C41.1996 59.6903 40.0061 60.1135 39.009 59.6384L37.8531 59.0877ZM40.3972 19.0902C39.9221 20.0874 40.3453 21.2809 41.3425 21.756L42.4984 22.3068C43.4956 22.7819 44.6891 22.3587 45.1642 21.3615L47.9862 15.4387C48.4613 14.4415 48.0381 13.248 47.041 12.7729L45.8851 12.2221C44.8879 11.747 43.6944 12.1702 43.2193 13.1674L40.3972 19.0902ZM41.1617 39.8673C40.1646 39.3922 38.971 39.8154 38.4959 40.8125L37.9452 41.9684C37.4701 42.9656 37.8933 44.1591 38.8904 44.6342L44.8133 47.4563C45.8104 47.9314 47.004 47.5082 47.4791 46.511L48.0298 45.3551C48.5049 44.358 48.0817 43.1644 47.0846 42.6893L41.1617 39.8673Z" fill="#818592"/>
</g>
</svg>
