<svg width="63" height="60" viewBox="0 0 63 60" fill="none" xmlns="http://www.w3.org/2000/svg">
<g opacity="0.5">
<path d="M21.3669 2.53676L16.9687 0L12.5704 2.53676V7.61029L16.9687 10.1471L21.3669 7.61029V2.53676Z" fill="#818592"/>
<path d="M11.9766 4.85294L9.68189 3.52941L7.38714 4.85294V7.5L9.68189 8.82353L11.9766 7.5V4.85294Z" fill="#818592"/>
<path d="M39.3171 17.6471L22.489 7.94118L5.66086 17.6471V37.0588L22.489 46.7647L39.3171 37.0588V17.6471Z" fill="#818592"/>
<path d="M11.8562 41.3603L5.92809 37.9412L0 41.3603V48.1985L5.92809 51.6176L11.8562 48.1985V41.3603Z" fill="#818592"/>
<path d="M31.5423 42.7941L39.0002 47.0956V55.6985L31.5423 60L24.0843 55.6985V47.0956L31.5423 42.7941Z" fill="#818592"/>
<path d="M61.7575 37.2794L52.961 32.2059L44.1645 37.2794V47.4265L52.961 52.5L61.7575 47.4265V37.2794Z" fill="#818592"/>
<path d="M43.6869 48.5294L47.5115 50.7353V55.1471L43.6869 57.3529L39.8623 55.1471V50.7353L43.6869 48.5294Z" fill="#818592"/>
<path d="M48.8659 13.125L45.2326 11.0294L41.5992 13.125V17.3162L45.2326 19.4118L48.8659 17.3162V13.125Z" fill="#818592"/>
<path d="M56.0524 26.0294L59.112 27.7941V31.3235L56.0524 33.0882L52.9927 31.3235V27.7941L56.0524 26.0294Z" fill="#818592"/>
<path d="M61.0856 24.375L59.3645 23.3824L57.6435 24.375V26.3603L59.3645 27.3529L61.0856 26.3603V24.375Z" fill="#818592"/>
<path d="M39.0498 11.9118L41.1534 13.125V15.5515L39.0498 16.7647L36.9463 15.5515V13.125L39.0498 11.9118Z" fill="#818592"/>
<path d="M62.2351 24.2647L63 24.7059V25.5882L62.2351 26.0294L61.4702 25.5882V24.7059L62.2351 24.2647Z" fill="#818592"/>
<path d="M8.65073 8.49265L7.69458 7.94118L6.73844 8.49265V9.59559L7.69458 10.1471L8.65073 9.59559V8.49265Z" fill="#818592"/>
<path d="M22.2682 53.3824L23.6068 54.1544V55.6985L22.2682 56.4706L20.9296 55.6985V54.1544L22.2682 53.3824Z" fill="#818592"/>
</g>
</svg>
