<svg width="63" height="60" viewBox="0 0 63 60" fill="none" xmlns="http://www.w3.org/2000/svg">
<g opacity="0.5">
<path d="M63 24.9858L57.5515 23.7991L61.2307 19.5091C58.0269 16.3264 51.1474 15.4915 44.0779 17.7914C43.0716 18.1182 42.0848 18.5027 41.1225 18.9428C41.2408 17.9005 41.2999 16.8523 41.2994 15.8034C41.2994 8.36046 38.3801 2.06708 34.3672 0L31.4293 4.82921L28.6188 0.00743365C24.6127 2.08222 21.7006 8.36922 21.7006 15.8034C21.7001 16.8523 21.7589 17.9007 21.8772 18.9428C20.9149 18.5027 19.9282 18.1182 18.9219 17.7914C11.8523 15.4915 4.97281 16.3264 1.76905 19.5091L5.44822 23.7993L0 24.9855C0.732863 29.4412 5.80484 34.1571 12.8659 36.4546C13.8563 36.7773 14.864 37.0438 15.8844 37.2526C15.1828 38.0211 14.5251 38.8286 13.9143 39.6712C9.54499 45.6925 8.21236 52.5022 10.2455 56.5363L15.4572 54.3585L14.9004 59.9136C19.3591 60.5927 25.4058 57.2199 29.7698 51.2056C30.3982 50.3406 30.9759 49.4399 31.5001 48.508C32.0242 49.44 32.6019 50.3408 33.2302 51.2059C37.5945 57.2199 43.6409 60.5927 48.0996 59.9139L47.5428 54.3585L52.7548 56.5363C54.7876 52.502 53.4547 45.6928 49.0857 39.6712C48.4749 38.8286 47.8172 38.0211 47.1156 37.2526C48.136 37.0437 49.1437 36.7771 50.1341 36.4543C57.1954 34.1571 62.2671 29.4412 63 24.9855V24.9858Z" fill="#818592"/>
<path fill-rule="evenodd" clip-rule="evenodd" d="M47.0796 37.4648L31.4997 48.7554L15.9194 37.4648L21.877 19.1899H41.1221L47.0796 37.4648Z" stroke="white"/>
<path d="M22.1675 38.3164L31.411 39.1336M31.411 39.1336L40.6548 38.3164L31.411 39.1336Z" stroke="white"/>
<path d="M31.411 43.6608L26.0747 36.049M40.6548 38.3171L31.411 43.6608L22.1675 38.3171V27.6299L31.411 22.2861L40.6548 27.6299V38.3171ZM40.6545 27.6025L31.411 26.7936L40.6545 27.6025ZM22.1675 27.6299L31.411 26.7936L22.1675 27.6299ZM40.6548 27.6299L36.7479 36.049L40.6548 27.6299ZM31.411 43.6608L36.7479 36.049L31.411 43.6608ZM22.1675 27.6299L26.0747 36.049L22.1675 27.6299Z" stroke="white"/>
<path fill-rule="evenodd" clip-rule="evenodd" d="M36.7467 36.0494L31.4098 26.7939L26.0732 36.0494H36.7467Z" stroke="white"/>
<path d="M31.411 39.0637V43.6598M26.0744 29.808L31.411 39.0637L36.7479 29.808H26.0744ZM22.1675 27.6289L26.0747 29.8078L22.1675 27.6289ZM36.7479 29.808L40.6548 27.6289L36.7479 29.808Z" stroke="white"/>
<path d="M31.4111 44.3049C31.7668 44.3049 32.0552 44.0162 32.0552 43.66C32.0552 43.3039 31.7668 43.0151 31.4111 43.0151C31.0554 43.0151 30.7671 43.3039 30.7671 43.66C30.7671 44.0162 31.0554 44.3049 31.4111 44.3049Z" fill="white" stroke="white"/>
<path d="M22.166 28.2722C22.5217 28.2722 22.8101 27.9834 22.8101 27.6273C22.8101 27.2711 22.5217 26.9824 22.166 26.9824C21.8103 26.9824 21.522 27.2711 21.522 27.6273C21.522 27.9834 21.8103 28.2722 22.166 28.2722Z" fill="white" stroke="white"/>
<path d="M26.0747 36.695C26.4304 36.695 26.7187 36.4063 26.7187 36.0501C26.7187 35.694 26.4304 35.4053 26.0747 35.4053C25.719 35.4053 25.4307 35.694 25.4307 36.0501C25.4307 36.4063 25.719 36.695 26.0747 36.695Z" fill="white" stroke="white"/>
<path d="M36.7485 36.695C37.1042 36.695 37.3926 36.4063 37.3926 36.0501C37.3926 35.694 37.1042 35.4053 36.7485 35.4053C36.3928 35.4053 36.1045 35.694 36.1045 36.0501C36.1045 36.4063 36.3928 36.695 36.7485 36.695Z" fill="white" stroke="white"/>
<path d="M31.4111 27.4392C31.7668 27.4392 32.0552 27.1504 32.0552 26.7943C32.0552 26.4381 31.7668 26.1494 31.4111 26.1494C31.0554 26.1494 30.7671 26.4381 30.7671 26.7943C30.7671 27.1504 31.0554 27.4392 31.4111 27.4392Z" fill="white" stroke="white"/>
<path d="M40.6548 28.2775C41.0105 28.2775 41.2988 27.9888 41.2988 27.6327C41.2988 27.2765 41.0105 26.9878 40.6548 26.9878C40.2991 26.9878 40.0107 27.2765 40.0107 27.6327C40.0107 27.9888 40.2991 28.2775 40.6548 28.2775Z" fill="white" stroke="white"/>
<path d="M41.1221 19.1763L31.4103 22.2865M40.6541 38.3174L36.7472 29.8093L40.6541 38.3174ZM31.4103 22.2865L36.7472 29.809L31.4103 22.2865ZM22.1668 38.3174L26.074 29.8093L22.1668 38.3174ZM31.4103 22.2865L26.074 29.809L31.4103 22.2865ZM31.4103 43.6611L23.7052 43.063L31.4103 43.6611ZM39.1141 43.1925L31.4103 43.6611L39.1141 43.1925ZM18.8798 28.4067L22.1668 27.6302L18.8798 28.4067ZM44.1193 28.4067L40.6538 27.6302L44.1193 28.4067ZM22.1668 38.3174L15.9194 37.4513L22.1668 38.3174ZM40.6541 38.3174L47.0796 37.4513L40.6541 38.3174ZM21.877 19.1763L31.4103 22.2865L21.877 19.1763Z" stroke="white"/>
<path d="M31.4996 48.7563L47.5425 54.3592M31.4996 19.1909L31.4288 4.82959L31.4996 19.1909ZM18.8797 28.407L5.44824 23.7995L18.8797 28.407ZM15.4567 54.3589L23.7049 43.0632L15.4567 54.3589ZM47.5425 54.3589L39.1141 43.1928L47.5425 54.3589ZM57.551 23.7995L44.1192 28.407L57.551 23.7995ZM47.0796 37.4659L57.551 23.7995L47.0796 37.4659ZM41.122 19.1909L57.551 23.7997L41.122 19.1909ZM21.877 19.1909L31.4288 4.82959L21.877 19.1909ZM41.122 19.1909L31.4288 4.82959L41.122 19.1909ZM15.8839 37.2533L5.44824 23.7995L15.8839 37.2533ZM21.877 19.1909L5.44824 23.7997L21.877 19.1909ZM15.8839 37.2533L15.4567 54.3592L15.8839 37.2533ZM31.4996 48.7563L15.4567 54.3592L31.4996 48.7563ZM47.0796 37.4659L47.5425 54.3589L47.0796 37.4659Z" stroke="white"/>
</g>
</svg>
