<svg width="330" height="705" viewBox="0 0 330 705" fill="none" xmlns="http://www.w3.org/2000/svg">
<g clip-path="url(#clip0)">
<path d="M250.495 76.3465C271.624 76.3465 288.723 59.2475 288.723 38.1188C288.614 17.099 271.515 0 250.495 0C229.475 0 212.267 17.099 212.267 38.2277C212.267 59.2475 229.366 76.3465 250.495 76.3465Z" fill="#1F2432"/>
<path d="M250.495 180.03C271.624 180.03 288.723 162.931 288.723 141.802C288.723 120.673 271.624 103.574 250.495 103.574C229.366 103.574 212.267 120.673 212.267 141.802C212.267 162.931 229.366 180.03 250.495 180.03Z" fill="#1F2432"/>
<path d="M250.495 283.604C271.624 283.604 288.723 266.505 288.723 245.376C288.723 224.247 271.624 207.148 250.495 207.148C229.366 207.148 212.267 224.247 212.267 245.376C212.267 266.505 229.366 283.604 250.495 283.604Z" fill="#1F2432"/>
<path d="M250.495 387.287C271.624 387.287 288.723 370.188 288.723 349.06C288.723 327.931 271.624 310.832 250.495 310.832C229.366 310.832 212.267 327.931 212.267 349.06C212.267 370.188 229.366 387.287 250.495 387.287Z" fill="#1F2432"/>
<path d="M250.495 490.97C271.624 490.97 288.723 473.871 288.723 452.742C288.723 431.614 271.624 414.515 250.495 414.515C229.366 414.515 212.267 431.614 212.267 452.742C212.267 473.871 229.366 490.97 250.495 490.97Z" fill="#1F2432"/>
<path d="M239.604 75.2573C239.604 81.2474 244.505 86.1484 250.495 86.1484C256.485 86.1484 261.386 81.2474 261.386 75.2573C261.386 69.2672 256.485 64.3662 250.495 64.3662C244.396 64.3662 239.604 69.2672 239.604 75.2573Z" fill="#00DCE6" fill-opacity="0.2"/>
<path d="M246.139 75.2578C246.139 77.6538 248.099 79.6142 250.495 79.6142C252.891 79.6142 254.852 77.6538 254.852 75.2578C254.852 72.8618 252.891 70.9014 250.495 70.9014C248.099 70.9014 246.139 72.8618 246.139 75.2578Z" fill="#00DCE6"/>
<path d="M239.604 92.6836L250.495 103.575L261.386 92.6836" stroke="#00DCE6" stroke-width="2"/>
<path d="M250.495 71.7725C250.495 86.3665 250.495 89.0893 250.495 103.574" stroke="#00DCE6" stroke-width="2" stroke-miterlimit="16"/>
<path d="M239.604 178.941C239.604 184.931 244.505 189.832 250.495 189.832C256.485 189.832 261.386 184.931 261.386 178.941C261.386 172.951 256.485 168.05 250.495 168.05C244.396 168.05 239.604 172.842 239.604 178.941Z" fill="#00DCE6" fill-opacity="0.2"/>
<path d="M246.139 178.94C246.139 181.336 248.099 183.297 250.495 183.297C252.891 183.297 254.852 181.336 254.852 178.94C254.852 176.544 252.891 174.584 250.495 174.584C248.099 174.584 246.139 176.544 246.139 178.94Z" fill="#00DCE6"/>
<path d="M239.604 196.366L250.495 207.257L261.386 196.366" stroke="#00DCE6" stroke-width="2"/>
<path d="M250.495 175.455C250.495 190.049 250.495 192.772 250.495 207.257" stroke="#00DCE6" stroke-width="2" stroke-miterlimit="16"/>
<path d="M239.604 282.515C239.604 288.505 244.505 293.406 250.495 293.406C256.485 293.406 261.386 288.505 261.386 282.515C261.386 276.525 256.485 271.624 250.495 271.624C244.396 271.624 239.604 276.525 239.604 282.515Z" fill="#00DCE6" fill-opacity="0.2"/>
<path d="M246.139 282.515C246.139 284.911 248.099 286.871 250.495 286.871C252.891 286.871 254.852 284.911 254.852 282.515C254.852 280.119 252.891 278.158 250.495 278.158C248.099 278.158 246.139 280.119 246.139 282.515Z" fill="#00DCE6"/>
<path d="M239.604 299.94L250.495 310.832L261.386 299.94" stroke="#00DCE6" stroke-width="2"/>
<path d="M250.495 279.139C250.495 293.733 250.495 296.456 250.495 310.941" stroke="#00DCE6" stroke-width="2" stroke-miterlimit="16"/>
<path d="M239.604 386.198C239.604 392.188 244.505 397.089 250.495 397.089C256.485 397.089 261.386 392.188 261.386 386.198C261.386 380.208 256.485 375.307 250.495 375.307C244.396 375.307 239.604 380.208 239.604 386.198Z" fill="#00DCE6" fill-opacity="0.2"/>
<path d="M246.139 386.198C246.139 388.594 248.099 390.555 250.495 390.555C252.891 390.555 254.852 388.594 254.852 386.198C254.852 383.802 252.891 381.842 250.495 381.842C248.099 381.842 246.139 383.802 246.139 386.198Z" fill="#00DCE6"/>
<path d="M239.604 403.624L250.495 414.515L261.386 403.624" stroke="#00DCE6" stroke-width="2"/>
<path d="M250.495 382.713C250.495 397.307 250.495 400.03 250.495 414.515" stroke="#00DCE6" stroke-width="2" stroke-miterlimit="16"/>
<path d="M152.584 76.347C173.713 76.347 190.812 59.248 190.812 38.1193C190.812 16.9906 173.713 -0.108398 152.584 -0.108398C131.455 -0.108398 114.356 17.0995 114.356 38.2282C114.356 59.248 131.455 76.347 152.584 76.347Z" fill="#1F2432"/>
<path d="M152.584 180.03C173.713 180.03 190.812 162.931 190.812 141.802C190.812 120.673 173.713 103.574 152.584 103.574C131.455 103.574 114.356 120.782 114.356 141.802C114.356 162.822 131.455 180.03 152.584 180.03Z" fill="#1F2432"/>
<path d="M152.584 283.604C173.713 283.604 190.812 266.505 190.812 245.376C190.812 224.247 173.713 207.148 152.584 207.148C131.455 207.148 114.356 224.356 114.356 245.485C114.356 266.614 131.455 283.604 152.584 283.604Z" fill="#1F2432"/>
<path d="M152.584 387.287C173.713 387.287 190.812 370.188 190.812 349.06C190.812 327.931 173.713 310.832 152.584 310.832C131.455 310.832 114.356 328.04 114.356 349.169C114.356 370.297 131.455 387.287 152.584 387.287Z" fill="#1F2432"/>
<path d="M152.584 490.97C173.713 490.97 190.812 473.871 190.812 452.742C190.812 431.614 173.713 414.515 152.584 414.515C131.455 414.515 114.356 431.723 114.356 452.742C114.356 473.762 131.455 490.97 152.584 490.97Z" fill="#1F2432"/>
<path d="M141.693 75.2573C141.693 81.2474 146.594 86.1484 152.584 86.1484C158.574 86.1484 163.475 81.2474 163.475 75.2573C163.475 69.2672 158.574 64.3662 152.584 64.3662C146.594 64.3662 141.693 69.2672 141.693 75.2573Z" fill="#00DCE6" fill-opacity="0.2"/>
<path d="M148.228 75.2578C148.228 77.6538 150.188 79.6142 152.584 79.6142C154.98 79.6142 156.94 77.6538 156.94 75.2578C156.94 72.8618 154.98 70.9014 152.584 70.9014C150.188 70.9014 148.228 72.8618 148.228 75.2578Z" fill="#00DCE6"/>
<path d="M141.693 92.6836L152.584 103.575L163.475 92.6836" stroke="#00DCE6" stroke-width="2"/>
<path d="M152.584 71.7725C152.584 86.3665 152.584 89.0893 152.584 103.574" stroke="#00DCE6" stroke-width="2" stroke-miterlimit="16"/>
<path d="M141.693 178.941C141.693 184.931 146.594 189.832 152.584 189.832C158.574 189.832 163.475 184.931 163.475 178.941C163.475 172.951 158.574 168.05 152.584 168.05C146.594 168.05 141.693 172.842 141.693 178.941Z" fill="#00DCE6" fill-opacity="0.2"/>
<path d="M148.228 178.94C148.228 181.336 150.188 183.297 152.584 183.297C154.98 183.297 156.94 181.336 156.94 178.94C156.94 176.544 154.98 174.584 152.584 174.584C150.188 174.584 148.228 176.544 148.228 178.94Z" fill="#00DCE6"/>
<path d="M141.693 196.366L152.584 207.257L163.475 196.366" stroke="#00DCE6" stroke-width="2"/>
<path d="M152.584 175.455C152.584 190.049 152.584 192.772 152.584 207.257" stroke="#00DCE6" stroke-width="2" stroke-miterlimit="16"/>
<path d="M141.693 282.515C141.693 288.505 146.594 293.406 152.584 293.406C158.574 293.406 163.475 288.505 163.475 282.515C163.475 276.525 158.574 271.624 152.584 271.624C146.594 271.624 141.693 276.525 141.693 282.515Z" fill="#00DCE6" fill-opacity="0.2"/>
<path d="M148.228 282.515C148.228 284.911 150.188 286.871 152.584 286.871C154.98 286.871 156.94 284.911 156.94 282.515C156.94 280.119 154.98 278.158 152.584 278.158C150.188 278.158 148.228 280.119 148.228 282.515Z" fill="#00DCE6"/>
<path d="M141.693 299.94L152.584 310.832L163.475 299.94" stroke="#00DCE6" stroke-width="2"/>
<path d="M152.584 279.139C152.584 293.733 152.584 296.456 152.584 310.941" stroke="#00DCE6" stroke-width="2" stroke-miterlimit="16"/>
<path d="M141.693 386.198C141.693 392.188 146.594 397.089 152.584 397.089C158.574 397.089 163.475 392.188 163.475 386.198C163.475 380.208 158.574 375.307 152.584 375.307C146.594 375.307 141.693 380.208 141.693 386.198Z" fill="#00DCE6" fill-opacity="0.2"/>
<path d="M148.228 386.198C148.228 388.594 150.188 390.555 152.584 390.555C154.98 390.555 156.94 388.594 156.94 386.198C156.94 383.802 154.98 381.842 152.584 381.842C150.188 381.842 148.228 383.802 148.228 386.198Z" fill="#00DCE6"/>
<path d="M141.693 403.624L152.584 414.515L163.475 403.624" stroke="#00DCE6" stroke-width="2"/>
<path d="M152.584 382.713C152.584 397.307 152.584 400.03 152.584 414.515" stroke="#00DCE6" stroke-width="2" stroke-miterlimit="16"/>
<path d="M71.1187 60.0097H22.1088C10.1286 60.0097 0.32666 50.2077 0.32666 38.2275C0.32666 26.2473 10.1286 16.4453 22.1088 16.4453H71.1187C83.0989 16.4453 92.9009 26.2473 92.9009 38.2275C92.9009 50.2077 83.0989 60.0097 71.1187 60.0097Z" fill="#00DCE6"/>
<path d="M297.109 664.574C298.743 664.574 300.159 665.881 300.159 667.624C300.159 669.366 298.852 670.673 297.109 670.673C295.366 670.673 294.06 669.366 294.06 667.624C294.06 665.881 295.366 664.574 297.109 664.574Z" fill="#00DCE6"/>
<path d="M297.109 37.1387C298.743 37.1387 300.159 38.4456 300.159 40.1882C300.159 41.8218 298.852 43.2377 297.109 43.2377C295.366 43.2377 294.06 41.9308 294.06 40.1882C294.06 38.4456 295.366 37.1387 297.109 37.1387Z" fill="#00DCE6"/>
<path d="M297.109 138.861C298.743 138.861 300.159 140.168 300.159 141.911C300.159 143.653 298.852 144.96 297.109 144.96C295.366 144.96 294.06 143.653 294.06 141.911C294.06 140.168 295.366 138.861 297.109 138.861Z" fill="#00DCE6"/>
<path d="M34.2754 38.8042H31.1816V42H29.5703V34.1797H34.6621V35.4849H31.1816V37.5044H34.2754V38.8042ZM38.6797 42C38.6081 41.8604 38.5562 41.6867 38.5239 41.479C38.1479 41.8979 37.6592 42.1074 37.0576 42.1074C36.4883 42.1074 36.0156 41.9427 35.6396 41.6133C35.2673 41.2839 35.0811 40.8685 35.0811 40.3672C35.0811 39.7513 35.3084 39.2786 35.7632 38.9492C36.2215 38.6198 36.8822 38.4533 37.7451 38.4497H38.4595V38.1167C38.4595 37.8481 38.3896 37.6333 38.25 37.4722C38.1139 37.311 37.8973 37.2305 37.6001 37.2305C37.3387 37.2305 37.1328 37.2931 36.9824 37.4185C36.8356 37.5438 36.7622 37.7157 36.7622 37.9341H35.21C35.21 37.5975 35.3138 37.286 35.5215 36.9995C35.7292 36.7131 36.0228 36.4893 36.4023 36.3281C36.7819 36.1634 37.208 36.0811 37.6807 36.0811C38.3968 36.0811 38.9644 36.2619 39.3833 36.6235C39.8058 36.9816 40.0171 37.4865 40.0171 38.1382V40.6572C40.0207 41.2087 40.0977 41.6258 40.248 41.9087V42H38.6797ZM37.396 40.9204C37.6252 40.9204 37.8364 40.8703 38.0298 40.77C38.2231 40.6662 38.3664 40.5283 38.4595 40.3564V39.3574H37.8794C37.1024 39.3574 36.6888 39.626 36.6387 40.1631L36.6333 40.2544C36.6333 40.4478 36.7013 40.6071 36.8374 40.7324C36.9735 40.8577 37.1597 40.9204 37.396 40.9204ZM44.4751 37.644C44.2638 37.6154 44.0776 37.6011 43.9165 37.6011C43.3293 37.6011 42.9443 37.7998 42.7617 38.1973V42H41.2095V36.1885H42.6758L42.7188 36.8813C43.0303 36.3478 43.4618 36.0811 44.0132 36.0811C44.1851 36.0811 44.3462 36.1043 44.4966 36.1509L44.4751 37.644ZM46.6826 36.1885L46.731 36.8384C47.1427 36.3335 47.6995 36.0811 48.4014 36.0811C49.1497 36.0811 49.6636 36.3765 49.9429 36.9673C50.3511 36.3765 50.9329 36.0811 51.6885 36.0811C52.3187 36.0811 52.7878 36.2655 53.0957 36.6343C53.4036 36.9995 53.5576 37.5509 53.5576 38.2886V42H52V38.2939C52 37.9645 51.9355 37.7246 51.8066 37.5742C51.6777 37.4202 51.4504 37.3433 51.1245 37.3433C50.659 37.3433 50.3368 37.5653 50.1577 38.0093L50.1631 42H48.6108V38.2993C48.6108 37.9627 48.5446 37.7192 48.4121 37.5688C48.2796 37.4185 48.054 37.3433 47.7354 37.3433C47.2949 37.3433 46.9762 37.5259 46.7793 37.8911V42H45.2271V36.1885H46.6826ZM57.4302 42.1074C56.578 42.1074 55.8833 41.846 55.3462 41.3232C54.8127 40.8005 54.5459 40.104 54.5459 39.2339V39.0835C54.5459 38.4998 54.6587 37.9788 54.8843 37.5205C55.1099 37.0586 55.4285 36.7041 55.8403 36.457C56.2557 36.2064 56.7284 36.0811 57.2583 36.0811C58.0532 36.0811 58.6781 36.3317 59.1328 36.833C59.5911 37.3343 59.8203 38.0451 59.8203 38.9653V39.5991H56.1196C56.1698 39.9787 56.3201 40.283 56.5708 40.5122C56.825 40.7414 57.1455 40.856 57.5322 40.856C58.1302 40.856 58.5975 40.6393 58.9341 40.2061L59.6968 41.0601C59.464 41.3895 59.1489 41.6473 58.7515 41.8335C58.354 42.0161 57.9136 42.1074 57.4302 42.1074ZM57.2529 37.3379C56.945 37.3379 56.6943 37.4417 56.501 37.6494C56.3112 37.8571 56.1895 38.1543 56.1357 38.541H58.2949V38.4175C58.2878 38.0737 58.1947 37.8088 58.0156 37.6226C57.8366 37.4328 57.5824 37.3379 57.2529 37.3379ZM63.9722 37.644C63.7609 37.6154 63.5747 37.6011 63.4136 37.6011C62.8263 37.6011 62.4414 37.7998 62.2588 38.1973V42H60.7065V36.1885H62.1729L62.2158 36.8813C62.5273 36.3478 62.9588 36.0811 63.5103 36.0811C63.6821 36.0811 63.8433 36.1043 63.9937 36.1509L63.9722 37.644Z" fill="white"/>
<path d="M71.1187 162.931H22.1088C10.1286 162.931 0.32666 153.129 0.32666 141.148C0.32666 129.168 10.1286 119.366 22.1088 119.366H71.1187C83.0989 119.366 92.9009 129.168 92.9009 141.148C92.9009 153.129 83.0989 162.931 71.1187 162.931Z" fill="#00DCE6"/>
<path d="M23.6138 142.245V145H22.0024V137.18H25.0532C25.6405 137.18 26.1561 137.287 26.6001 137.502C27.0477 137.717 27.3914 138.023 27.6313 138.42C27.8713 138.814 27.9912 139.264 27.9912 139.769C27.9912 140.535 27.728 141.14 27.2017 141.584C26.6789 142.024 25.9538 142.245 25.0264 142.245H23.6138ZM23.6138 140.939H25.0532C25.4793 140.939 25.8034 140.839 26.0254 140.639C26.251 140.438 26.3638 140.152 26.3638 139.779C26.3638 139.396 26.251 139.086 26.0254 138.85C25.7998 138.614 25.4883 138.492 25.0908 138.485H23.6138V140.939ZM32.2666 140.644C32.0553 140.615 31.8691 140.601 31.708 140.601C31.1208 140.601 30.7358 140.8 30.5532 141.197V145H29.001V139.188H30.4673L30.5103 139.881C30.8218 139.348 31.2533 139.081 31.8047 139.081C31.9766 139.081 32.1377 139.104 32.2881 139.151L32.2666 140.644ZM32.5835 142.041C32.5835 141.464 32.6945 140.95 32.9165 140.499C33.1385 140.048 33.4572 139.699 33.8726 139.452C34.2915 139.205 34.7767 139.081 35.3281 139.081C36.1123 139.081 36.7515 139.321 37.2456 139.801C37.7433 140.281 38.0208 140.932 38.0781 141.756L38.0889 142.153C38.0889 143.045 37.84 143.761 37.3423 144.302C36.8446 144.839 36.1768 145.107 35.3389 145.107C34.501 145.107 33.8314 144.839 33.3301 144.302C32.8324 143.765 32.5835 143.034 32.5835 142.11V142.041ZM34.1357 142.153C34.1357 142.705 34.2396 143.127 34.4473 143.421C34.6549 143.711 34.9521 143.856 35.3389 143.856C35.7148 143.856 36.0085 143.713 36.2197 143.426C36.431 143.136 36.5366 142.674 36.5366 142.041C36.5366 141.5 36.431 141.081 36.2197 140.784C36.0085 140.486 35.7113 140.338 35.3281 140.338C34.9486 140.338 34.6549 140.486 34.4473 140.784C34.2396 141.077 34.1357 141.534 34.1357 142.153ZM41.4619 143.856C41.7484 143.856 41.9811 143.777 42.1602 143.62C42.3392 143.462 42.4323 143.253 42.4395 142.991H43.895C43.8914 143.385 43.784 143.747 43.5728 144.076C43.3615 144.402 43.0715 144.656 42.7026 144.839C42.3374 145.018 41.9328 145.107 41.4888 145.107C40.658 145.107 40.0028 144.844 39.5229 144.318C39.0431 143.788 38.8032 143.057 38.8032 142.126V142.024C38.8032 141.129 39.0413 140.415 39.5176 139.881C39.9938 139.348 40.6473 139.081 41.478 139.081C42.2049 139.081 42.7868 139.289 43.2236 139.704C43.6641 140.116 43.8879 140.666 43.895 141.353H42.4395C42.4323 141.052 42.3392 140.809 42.1602 140.623C41.9811 140.433 41.7448 140.338 41.4512 140.338C41.0895 140.338 40.8156 140.47 40.6294 140.735C40.4468 140.997 40.3555 141.423 40.3555 142.014V142.175C40.3555 142.773 40.4468 143.202 40.6294 143.464C40.812 143.725 41.0895 143.856 41.4619 143.856ZM47.4561 145.107C46.6038 145.107 45.9092 144.846 45.3721 144.323C44.8385 143.8 44.5718 143.104 44.5718 142.234V142.083C44.5718 141.5 44.6846 140.979 44.9102 140.521C45.1357 140.059 45.4544 139.704 45.8662 139.457C46.2816 139.206 46.7542 139.081 47.2842 139.081C48.0791 139.081 48.7039 139.332 49.1587 139.833C49.617 140.334 49.8462 141.045 49.8462 141.965V142.599H46.1455C46.1956 142.979 46.346 143.283 46.5967 143.512C46.8509 143.741 47.1714 143.856 47.5581 143.856C48.1561 143.856 48.6234 143.639 48.96 143.206L49.7227 144.06C49.4899 144.389 49.1748 144.647 48.7773 144.833C48.3799 145.016 47.9395 145.107 47.4561 145.107ZM47.2788 140.338C46.9709 140.338 46.7202 140.442 46.5269 140.649C46.3371 140.857 46.2153 141.154 46.1616 141.541H48.3208V141.417C48.3136 141.074 48.2205 140.809 48.0415 140.623C47.8625 140.433 47.6082 140.338 47.2788 140.338ZM53.8799 143.394C53.8799 143.204 53.785 143.056 53.5952 142.948C53.409 142.837 53.1082 142.739 52.6929 142.653C51.3107 142.363 50.6196 141.776 50.6196 140.891C50.6196 140.375 50.8327 139.946 51.2588 139.602C51.6885 139.255 52.2489 139.081 52.9399 139.081C53.6776 139.081 54.2666 139.255 54.707 139.602C55.151 139.949 55.373 140.401 55.373 140.956H53.8208C53.8208 140.734 53.7492 140.551 53.606 140.408C53.4627 140.261 53.2389 140.188 52.9346 140.188C52.6732 140.188 52.4709 140.247 52.3276 140.365C52.1844 140.483 52.1128 140.633 52.1128 140.816C52.1128 140.988 52.1934 141.127 52.3545 141.235C52.5192 141.339 52.7949 141.43 53.1816 141.509C53.5684 141.584 53.8942 141.67 54.1592 141.767C54.9792 142.067 55.3892 142.588 55.3892 143.33C55.3892 143.86 55.1618 144.289 54.707 144.619C54.2523 144.944 53.665 145.107 52.9453 145.107C52.4583 145.107 52.0251 145.021 51.6455 144.85C51.2695 144.674 50.9741 144.436 50.7593 144.135C50.5444 143.831 50.437 143.503 50.437 143.152H51.9087C51.923 143.428 52.0251 143.639 52.2148 143.786C52.4046 143.933 52.6589 144.006 52.9775 144.006C53.2747 144.006 53.4985 143.951 53.6489 143.84C53.8029 143.725 53.8799 143.577 53.8799 143.394ZM59.541 143.394C59.541 143.204 59.4461 143.056 59.2563 142.948C59.0701 142.837 58.7694 142.739 58.354 142.653C56.9718 142.363 56.2808 141.776 56.2808 140.891C56.2808 140.375 56.4938 139.946 56.9199 139.602C57.3496 139.255 57.91 139.081 58.6011 139.081C59.3387 139.081 59.9277 139.255 60.3682 139.602C60.8122 139.949 61.0342 140.401 61.0342 140.956H59.4819C59.4819 140.734 59.4103 140.551 59.2671 140.408C59.1239 140.261 58.9001 140.188 58.5957 140.188C58.3343 140.188 58.132 140.247 57.9888 140.365C57.8455 140.483 57.7739 140.633 57.7739 140.816C57.7739 140.988 57.8545 141.127 58.0156 141.235C58.1803 141.339 58.4561 141.43 58.8428 141.509C59.2295 141.584 59.5553 141.67 59.8203 141.767C60.6403 142.067 61.0503 142.588 61.0503 143.33C61.0503 143.86 60.8229 144.289 60.3682 144.619C59.9134 144.944 59.3262 145.107 58.6064 145.107C58.1195 145.107 57.6862 145.021 57.3066 144.85C56.9307 144.674 56.6353 144.436 56.4204 144.135C56.2056 143.831 56.0981 143.503 56.0981 143.152H57.5698C57.5841 143.428 57.6862 143.639 57.876 143.786C58.0658 143.933 58.32 144.006 58.6387 144.006C58.9359 144.006 59.1597 143.951 59.3101 143.84C59.464 143.725 59.541 143.577 59.541 143.394ZM61.813 142.041C61.813 141.464 61.924 140.95 62.146 140.499C62.368 140.048 62.6867 139.699 63.1021 139.452C63.521 139.205 64.0062 139.081 64.5576 139.081C65.3418 139.081 65.981 139.321 66.4751 139.801C66.9728 140.281 67.2503 140.932 67.3076 141.756L67.3184 142.153C67.3184 143.045 67.0695 143.761 66.5718 144.302C66.0741 144.839 65.4062 145.107 64.5684 145.107C63.7305 145.107 63.0609 144.839 62.5596 144.302C62.0618 143.765 61.813 143.034 61.813 142.11V142.041ZM63.3652 142.153C63.3652 142.705 63.4691 143.127 63.6768 143.421C63.8844 143.711 64.1816 143.856 64.5684 143.856C64.9443 143.856 65.238 143.713 65.4492 143.426C65.6605 143.136 65.7661 142.674 65.7661 142.041C65.7661 141.5 65.6605 141.081 65.4492 140.784C65.238 140.486 64.9408 140.338 64.5576 140.338C64.1781 140.338 63.8844 140.486 63.6768 140.784C63.4691 141.077 63.3652 141.534 63.3652 142.153ZM71.54 140.644C71.3288 140.615 71.1426 140.601 70.9814 140.601C70.3942 140.601 70.0093 140.8 69.8267 141.197V145H68.2744V139.188H69.7407L69.7837 139.881C70.0952 139.348 70.5267 139.081 71.0781 139.081C71.25 139.081 71.4111 139.104 71.5615 139.151L71.54 140.644Z" fill="white"/>
<path d="M71.1187 265.634H22.1088C10.1286 265.634 0.32666 255.832 0.32666 243.852C0.32666 231.871 10.1286 222.069 22.1088 222.069H71.1187C83.0989 222.069 92.9009 231.871 92.9009 243.852C92.9009 255.832 83.0989 265.634 71.1187 265.634Z" fill="#00DCE6"/>
<path d="M20.9282 248V240.18H23.3345C24.022 240.18 24.6361 240.335 25.1768 240.647C25.721 240.955 26.1453 241.395 26.4497 241.968C26.7541 242.538 26.9062 243.186 26.9062 243.913V244.272C26.9062 244.999 26.7559 245.646 26.4551 246.211C26.1579 246.777 25.7371 247.216 25.1929 247.527C24.6486 247.839 24.0345 247.996 23.3506 248H20.9282ZM22.5396 241.485V246.706H23.3184C23.9486 246.706 24.4302 246.5 24.7632 246.088C25.0962 245.676 25.2663 245.087 25.2734 244.321V243.907C25.2734 243.112 25.1087 242.511 24.7793 242.103C24.4499 241.691 23.9683 241.485 23.3345 241.485H22.5396ZM29.6187 248H28.061V242.188H29.6187V248ZM27.9697 240.685C27.9697 240.452 28.0467 240.26 28.2007 240.11C28.3582 239.959 28.5713 239.884 28.8398 239.884C29.1048 239.884 29.3161 239.959 29.4736 240.11C29.6312 240.26 29.71 240.452 29.71 240.685C29.71 240.921 29.6294 241.114 29.4683 241.265C29.3107 241.415 29.1012 241.49 28.8398 241.49C28.5785 241.49 28.3672 241.415 28.2061 241.265C28.0485 241.114 27.9697 240.921 27.9697 240.685ZM34.0498 246.394C34.0498 246.204 33.9549 246.056 33.7651 245.948C33.5789 245.837 33.2782 245.739 32.8628 245.653C31.4806 245.363 30.7896 244.776 30.7896 243.891C30.7896 243.375 31.0026 242.946 31.4287 242.602C31.8584 242.255 32.4188 242.081 33.1099 242.081C33.8475 242.081 34.4365 242.255 34.877 242.602C35.321 242.949 35.543 243.401 35.543 243.956H33.9907C33.9907 243.734 33.9191 243.551 33.7759 243.408C33.6326 243.261 33.4089 243.188 33.1045 243.188C32.8431 243.188 32.6408 243.247 32.4976 243.365C32.3543 243.483 32.2827 243.633 32.2827 243.816C32.2827 243.988 32.3633 244.127 32.5244 244.235C32.6891 244.339 32.9648 244.43 33.3516 244.509C33.7383 244.584 34.0641 244.67 34.3291 244.767C35.1491 245.067 35.5591 245.588 35.5591 246.33C35.5591 246.86 35.3317 247.289 34.877 247.619C34.4222 247.944 33.835 248.107 33.1152 248.107C32.6283 248.107 32.195 248.021 31.8154 247.85C31.4395 247.674 31.144 247.436 30.9292 247.135C30.7144 246.831 30.6069 246.503 30.6069 246.152H32.0786C32.0929 246.428 32.195 246.639 32.3848 246.786C32.5745 246.933 32.8288 247.006 33.1475 247.006C33.4447 247.006 33.6685 246.951 33.8188 246.84C33.9728 246.725 34.0498 246.577 34.0498 246.394ZM38.4219 240.76V242.188H39.4155V243.327H38.4219V246.228C38.4219 246.442 38.4631 246.596 38.5454 246.689C38.6278 246.783 38.7853 246.829 39.0181 246.829C39.1899 246.829 39.3421 246.817 39.4746 246.792V247.968C39.1702 248.061 38.8569 248.107 38.5347 248.107C37.4461 248.107 36.8911 247.558 36.8696 246.458V243.327H36.021V242.188H36.8696V240.76H38.4219ZM43.5459 243.644C43.3346 243.615 43.1484 243.601 42.9873 243.601C42.4001 243.601 42.0151 243.8 41.8325 244.197V248H40.2803V242.188H41.7466L41.7896 242.881C42.1011 242.348 42.5326 242.081 43.084 242.081C43.2559 242.081 43.417 242.104 43.5674 242.151L43.5459 243.644ZM45.936 248H44.3784V242.188H45.936V248ZM44.2871 240.685C44.2871 240.452 44.3641 240.26 44.5181 240.11C44.6756 239.959 44.8887 239.884 45.1572 239.884C45.4222 239.884 45.6335 239.959 45.791 240.11C45.9486 240.26 46.0273 240.452 46.0273 240.685C46.0273 240.921 45.9468 241.114 45.7856 241.265C45.6281 241.415 45.4186 241.49 45.1572 241.49C44.8958 241.49 44.6846 241.415 44.5234 241.265C44.3659 241.114 44.2871 240.921 44.2871 240.685ZM52.4565 245.148C52.4565 246.079 52.2578 246.806 51.8604 247.329C51.4629 247.848 50.9079 248.107 50.1953 248.107C49.5651 248.107 49.062 247.866 48.686 247.382L48.6162 248H47.2197V239.75H48.772V242.709C49.13 242.291 49.6009 242.081 50.1846 242.081C50.8936 242.081 51.4486 242.342 51.8496 242.865C52.2542 243.384 52.4565 244.117 52.4565 245.062V245.148ZM50.9043 245.035C50.9043 244.448 50.8112 244.02 50.625 243.751C50.4388 243.479 50.1613 243.343 49.7925 243.343C49.2983 243.343 48.9582 243.546 48.772 243.95V246.244C48.9618 246.652 49.3055 246.856 49.8032 246.856C50.3045 246.856 50.634 246.609 50.7915 246.115C50.8667 245.878 50.9043 245.519 50.9043 245.035ZM56.8984 247.409C56.5153 247.875 55.9854 248.107 55.3086 248.107C54.6855 248.107 54.2093 247.928 53.8799 247.57C53.554 247.212 53.3875 246.688 53.3804 245.997V242.188H54.9326V245.943C54.9326 246.548 55.2083 246.851 55.7598 246.851C56.2861 246.851 56.6478 246.668 56.8447 246.303V242.188H58.4023V248H56.9414L56.8984 247.409ZM61.4316 240.76V242.188H62.4253V243.327H61.4316V246.228C61.4316 246.442 61.4728 246.596 61.5552 246.689C61.6375 246.783 61.7951 246.829 62.0278 246.829C62.1997 246.829 62.3519 246.817 62.4844 246.792V247.968C62.18 248.061 61.8667 248.107 61.5444 248.107C60.4559 248.107 59.9009 247.558 59.8794 246.458V243.327H59.0308V242.188H59.8794V240.76H61.4316ZM62.8872 245.041C62.8872 244.464 62.9982 243.95 63.2202 243.499C63.4422 243.048 63.7609 242.699 64.1763 242.452C64.5952 242.205 65.0804 242.081 65.6318 242.081C66.416 242.081 67.0552 242.321 67.5493 242.801C68.047 243.281 68.3245 243.932 68.3818 244.756L68.3926 245.153C68.3926 246.045 68.1437 246.761 67.646 247.302C67.1483 247.839 66.4805 248.107 65.6426 248.107C64.8047 248.107 64.1351 247.839 63.6338 247.302C63.1361 246.765 62.8872 246.034 62.8872 245.11V245.041ZM64.4395 245.153C64.4395 245.705 64.5433 246.127 64.751 246.421C64.9587 246.711 65.2559 246.856 65.6426 246.856C66.0186 246.856 66.3122 246.713 66.5234 246.426C66.7347 246.136 66.8403 245.674 66.8403 245.041C66.8403 244.5 66.7347 244.081 66.5234 243.784C66.3122 243.486 66.015 243.338 65.6318 243.338C65.2523 243.338 64.9587 243.486 64.751 243.784C64.5433 244.077 64.4395 244.534 64.4395 245.153ZM72.6143 243.644C72.403 243.615 72.2168 243.601 72.0557 243.601C71.4684 243.601 71.0835 243.8 70.9009 244.197V248H69.3486V242.188H70.8149L70.8579 242.881C71.1694 242.348 71.6009 242.081 72.1523 242.081C72.3242 242.081 72.4854 242.104 72.6357 242.151L72.6143 243.644Z" fill="white"/>
<path d="M71.1187 371.931H22.1088C10.1286 371.931 0.32666 362.129 0.32666 350.148C0.32666 338.168 10.1286 328.366 22.1088 328.366H71.1187C83.0989 328.366 92.9009 338.168 92.9009 350.148C92.9009 362.129 83.0989 371.931 71.1187 371.931Z" fill="#00DCE6"/>
<path d="M30.8916 351.137H29.6079V354H27.9966V346.18H30.9023C31.8262 346.18 32.5387 346.386 33.04 346.797C33.5413 347.209 33.792 347.791 33.792 348.543C33.792 349.076 33.6756 349.522 33.4429 349.88C33.2137 350.235 32.8646 350.518 32.3955 350.729L34.0874 353.925V354H32.3579L30.8916 351.137ZM29.6079 349.832H30.9077C31.3123 349.832 31.6257 349.73 31.8477 349.526C32.0697 349.318 32.1807 349.034 32.1807 348.672C32.1807 348.303 32.075 348.013 31.8638 347.802C31.6561 347.59 31.3356 347.485 30.9023 347.485H29.6079V349.832ZM37.5947 354.107C36.7425 354.107 36.0479 353.846 35.5107 353.323C34.9772 352.8 34.7104 352.104 34.7104 351.234V351.083C34.7104 350.5 34.8232 349.979 35.0488 349.521C35.2744 349.059 35.5931 348.704 36.0049 348.457C36.4202 348.206 36.8929 348.081 37.4229 348.081C38.2178 348.081 38.8426 348.332 39.2974 348.833C39.7557 349.334 39.9849 350.045 39.9849 350.965V351.599H36.2842C36.3343 351.979 36.4847 352.283 36.7354 352.512C36.9896 352.741 37.3101 352.856 37.6968 352.856C38.2948 352.856 38.762 352.639 39.0986 352.206L39.8613 353.06C39.6286 353.389 39.3135 353.647 38.916 353.833C38.5186 354.016 38.0781 354.107 37.5947 354.107ZM37.4175 349.338C37.1095 349.338 36.8589 349.442 36.6655 349.649C36.4757 349.857 36.354 350.154 36.3003 350.541H38.4595V350.417C38.4523 350.074 38.3592 349.809 38.1802 349.623C38.0011 349.433 37.7469 349.338 37.4175 349.338ZM42.7295 346.76V348.188H43.7231V349.327H42.7295V352.228C42.7295 352.442 42.7707 352.596 42.853 352.689C42.9354 352.783 43.0929 352.829 43.3257 352.829C43.4976 352.829 43.6497 352.817 43.7822 352.792V353.968C43.4779 354.061 43.1646 354.107 42.8423 354.107C41.7537 354.107 41.1987 353.558 41.1772 352.458V349.327H40.3286V348.188H41.1772V346.76H42.7295ZM47.9556 354C47.884 353.86 47.832 353.687 47.7998 353.479C47.4238 353.898 46.9351 354.107 46.3335 354.107C45.7642 354.107 45.2915 353.943 44.9155 353.613C44.5431 353.284 44.3569 352.868 44.3569 352.367C44.3569 351.751 44.5843 351.279 45.0391 350.949C45.4974 350.62 46.158 350.453 47.021 350.45H47.7354V350.117C47.7354 349.848 47.6655 349.633 47.5259 349.472C47.3898 349.311 47.1732 349.23 46.876 349.23C46.6146 349.23 46.4087 349.293 46.2583 349.418C46.1115 349.544 46.0381 349.716 46.0381 349.934H44.4858C44.4858 349.597 44.5897 349.286 44.7974 349C45.005 348.713 45.2987 348.489 45.6782 348.328C46.0578 348.163 46.4839 348.081 46.9565 348.081C47.6727 348.081 48.2402 348.262 48.6592 348.624C49.0817 348.982 49.293 349.486 49.293 350.138V352.657C49.2965 353.209 49.3735 353.626 49.5239 353.909V354H47.9556ZM46.6719 352.92C46.901 352.92 47.1123 352.87 47.3057 352.77C47.499 352.666 47.6423 352.528 47.7354 352.356V351.357H47.1553C46.3783 351.357 45.9647 351.626 45.9146 352.163L45.9092 352.254C45.9092 352.448 45.9772 352.607 46.1133 352.732C46.2493 352.858 46.4355 352.92 46.6719 352.92ZM52.1235 354H50.5659V348.188H52.1235V354ZM50.4746 346.685C50.4746 346.452 50.5516 346.26 50.7056 346.11C50.8631 345.959 51.0762 345.884 51.3447 345.884C51.6097 345.884 51.821 345.959 51.9785 346.11C52.1361 346.26 52.2148 346.452 52.2148 346.685C52.2148 346.921 52.1343 347.114 51.9731 347.265C51.8156 347.415 51.6061 347.49 51.3447 347.49C51.0833 347.49 50.8721 347.415 50.7109 347.265C50.5534 347.114 50.4746 346.921 50.4746 346.685ZM55.0454 354H53.4878V345.75H55.0454V354ZM59.0039 354.107C58.1517 354.107 57.457 353.846 56.9199 353.323C56.3864 352.8 56.1196 352.104 56.1196 351.234V351.083C56.1196 350.5 56.2324 349.979 56.458 349.521C56.6836 349.059 57.0023 348.704 57.4141 348.457C57.8294 348.206 58.3021 348.081 58.832 348.081C59.627 348.081 60.2518 348.332 60.7065 348.833C61.1649 349.334 61.394 350.045 61.394 350.965V351.599H57.6934C57.7435 351.979 57.8939 352.283 58.1445 352.512C58.3988 352.741 58.7192 352.856 59.106 352.856C59.7039 352.856 60.1712 352.639 60.5078 352.206L61.2705 353.06C61.0378 353.389 60.7227 353.647 60.3252 353.833C59.9277 354.016 59.4873 354.107 59.0039 354.107ZM58.8267 349.338C58.5187 349.338 58.2681 349.442 58.0747 349.649C57.8849 349.857 57.7632 350.154 57.7095 350.541H59.8687V350.417C59.8615 350.074 59.7684 349.809 59.5894 349.623C59.4103 349.433 59.1561 349.338 58.8267 349.338ZM65.5459 349.644C65.3346 349.615 65.1484 349.601 64.9873 349.601C64.4001 349.601 64.0151 349.8 63.8325 350.197V354H62.2803V348.188H63.7466L63.7896 348.881C64.1011 348.348 64.5326 348.081 65.084 348.081C65.2559 348.081 65.417 348.104 65.5674 348.151L65.5459 349.644Z" fill="white"/>
<path d="M71.1187 473.545H22.1088C10.1286 473.545 0.32666 463.743 0.32666 451.763C0.32666 439.782 10.1286 429.98 22.1088 429.98H71.1187C83.0989 429.98 92.9009 439.782 92.9009 451.763C92.9009 463.743 83.0989 473.545 71.1187 473.545Z" fill="#00DCE6"/>
<path d="M29.1943 452.395C29.1335 453.236 28.8219 453.899 28.2598 454.382C27.7012 454.866 26.9635 455.107 26.0469 455.107C25.0443 455.107 24.2547 454.771 23.6782 454.098C23.1053 453.421 22.8188 452.493 22.8188 451.315V450.837C22.8188 450.085 22.9513 449.423 23.2163 448.85C23.4813 448.277 23.859 447.839 24.3496 447.534C24.8438 447.226 25.4167 447.072 26.0684 447.072C26.9707 447.072 27.6976 447.314 28.249 447.797C28.8005 448.281 29.1191 448.959 29.2051 449.833H27.5938C27.5544 449.328 27.4129 448.963 27.1694 448.737C26.9295 448.508 26.5625 448.394 26.0684 448.394C25.5312 448.394 25.1284 448.587 24.8599 448.974C24.5949 449.357 24.4588 449.953 24.4517 450.762V451.353C24.4517 452.198 24.5788 452.816 24.833 453.206C25.0908 453.596 25.4954 453.792 26.0469 453.792C26.5446 453.792 26.9152 453.679 27.1587 453.453C27.4058 453.224 27.5472 452.871 27.583 452.395H29.1943ZM33.6309 454.409C33.2477 454.875 32.7178 455.107 32.041 455.107C31.418 455.107 30.9417 454.928 30.6123 454.57C30.2865 454.212 30.12 453.688 30.1128 452.997V449.188H31.665V452.943C31.665 453.548 31.9408 453.851 32.4922 453.851C33.0186 453.851 33.3802 453.668 33.5771 453.303V449.188H35.1348V455H33.6738L33.6309 454.409ZM39.4531 453.394C39.4531 453.204 39.3582 453.056 39.1685 452.948C38.9823 452.837 38.6815 452.739 38.2661 452.653C36.884 452.363 36.1929 451.776 36.1929 450.891C36.1929 450.375 36.4059 449.946 36.832 449.602C37.2617 449.255 37.8221 449.081 38.5132 449.081C39.2508 449.081 39.8398 449.255 40.2803 449.602C40.7243 449.949 40.9463 450.401 40.9463 450.956H39.394C39.394 450.734 39.3224 450.551 39.1792 450.408C39.036 450.261 38.8122 450.188 38.5078 450.188C38.2464 450.188 38.0441 450.247 37.9009 450.365C37.7576 450.483 37.686 450.633 37.686 450.816C37.686 450.988 37.7666 451.127 37.9277 451.235C38.0924 451.339 38.3682 451.43 38.7549 451.509C39.1416 451.584 39.4674 451.67 39.7324 451.767C40.5524 452.067 40.9624 452.588 40.9624 453.33C40.9624 453.86 40.735 454.289 40.2803 454.619C39.8255 454.944 39.2383 455.107 38.5186 455.107C38.0316 455.107 37.5983 455.021 37.2188 454.85C36.8428 454.674 36.5474 454.436 36.3325 454.135C36.1177 453.831 36.0103 453.503 36.0103 453.152H37.4819C37.4963 453.428 37.5983 453.639 37.7881 453.786C37.9779 453.933 38.2321 454.006 38.5508 454.006C38.848 454.006 39.0718 453.951 39.2222 453.84C39.3761 453.725 39.4531 453.577 39.4531 453.394ZM43.8252 447.76V449.188H44.8188V450.327H43.8252V453.228C43.8252 453.442 43.8664 453.596 43.9487 453.689C44.0311 453.783 44.1886 453.829 44.4214 453.829C44.5933 453.829 44.7454 453.817 44.8779 453.792V454.968C44.5736 455.061 44.2603 455.107 43.938 455.107C42.8494 455.107 42.2944 454.558 42.2729 453.458V450.327H41.4243V449.188H42.2729V447.76H43.8252ZM45.2808 452.041C45.2808 451.464 45.3918 450.95 45.6138 450.499C45.8358 450.048 46.1545 449.699 46.5698 449.452C46.9888 449.205 47.474 449.081 48.0254 449.081C48.8096 449.081 49.4487 449.321 49.9429 449.801C50.4406 450.281 50.7181 450.932 50.7754 451.756L50.7861 452.153C50.7861 453.045 50.5373 453.761 50.0396 454.302C49.5418 454.839 48.874 455.107 48.0361 455.107C47.1982 455.107 46.5286 454.839 46.0273 454.302C45.5296 453.765 45.2808 453.034 45.2808 452.11V452.041ZM46.833 452.153C46.833 452.705 46.9368 453.127 47.1445 453.421C47.3522 453.711 47.6494 453.856 48.0361 453.856C48.4121 453.856 48.7057 453.713 48.917 453.426C49.1283 453.136 49.2339 452.674 49.2339 452.041C49.2339 451.5 49.1283 451.081 48.917 450.784C48.7057 450.486 48.4085 450.338 48.0254 450.338C47.6458 450.338 47.3522 450.486 47.1445 450.784C46.9368 451.077 46.833 451.534 46.833 452.153ZM53.1978 449.188L53.2461 449.838C53.6579 449.333 54.2147 449.081 54.9165 449.081C55.6649 449.081 56.1787 449.376 56.458 449.967C56.8662 449.376 57.4481 449.081 58.2036 449.081C58.8338 449.081 59.3029 449.265 59.6108 449.634C59.9188 450 60.0728 450.551 60.0728 451.289V455H58.5151V451.294C58.5151 450.965 58.4507 450.725 58.3218 450.574C58.1929 450.42 57.9655 450.343 57.6396 450.343C57.1742 450.343 56.8519 450.565 56.6729 451.009L56.6782 455H55.126V451.299C55.126 450.963 55.0597 450.719 54.9272 450.569C54.7948 450.418 54.5692 450.343 54.2505 450.343C53.8101 450.343 53.4914 450.526 53.2944 450.891V455H51.7422V449.188H53.1978ZM63.9453 455.107C63.0931 455.107 62.3984 454.846 61.8613 454.323C61.3278 453.8 61.061 453.104 61.061 452.234V452.083C61.061 451.5 61.1738 450.979 61.3994 450.521C61.625 450.059 61.9437 449.704 62.3555 449.457C62.7708 449.206 63.2435 449.081 63.7734 449.081C64.5684 449.081 65.1932 449.332 65.6479 449.833C66.1063 450.334 66.3354 451.045 66.3354 451.965V452.599H62.6348C62.6849 452.979 62.8353 453.283 63.0859 453.512C63.3402 453.741 63.6606 453.856 64.0474 453.856C64.6453 453.856 65.1126 453.639 65.4492 453.206L66.2119 454.06C65.9792 454.389 65.6641 454.647 65.2666 454.833C64.8691 455.016 64.4287 455.107 63.9453 455.107ZM63.7681 450.338C63.4601 450.338 63.2095 450.442 63.0161 450.649C62.8263 450.857 62.7046 451.154 62.6509 451.541H64.8101V451.417C64.8029 451.074 64.7098 450.809 64.5308 450.623C64.3517 450.433 64.0975 450.338 63.7681 450.338ZM70.4873 450.644C70.276 450.615 70.0898 450.601 69.9287 450.601C69.3415 450.601 68.9565 450.8 68.7739 451.197V455H67.2217V449.188H68.688L68.731 449.881C69.0425 449.348 69.474 449.081 70.0254 449.081C70.1973 449.081 70.3584 449.104 70.5088 449.151L70.4873 450.644Z" fill="white"/>
<path d="M244.396 20.8018H233.832V31.3661H244.396V20.8018ZM241.129 28.0988H237.099V24.0691H241.129V28.0988ZM267.158 20.8018H256.594V31.3661H267.158V20.8018ZM263.891 28.0988H259.861V24.0691H263.891V28.0988ZM233.832 54.1285H244.396V43.5641H233.832V54.1285ZM237.099 46.8315H241.129V50.9701H237.099V46.8315ZM267.158 54.1285V43.5641H256.594V54.1285H267.158ZM259.861 46.8315H263.891V50.9701H259.861V46.8315Z" stroke="white" stroke-miterlimit="10"/>
<path d="M263.891 37.9008V35.5047H256.594V39.5344H262.257M241.129 37.9008V35.5047H237.099V39.5344H239.495L241.129 37.9008ZM252.456 22.4354V20.8018H248.426V24.0691H250.822L252.456 22.4354ZM252.456 37.9008V35.5047V32.0196V28.0988H248.426V33.7622V35.3958H244.396V39.4255H250.931L252.456 37.9008ZM252.456 49.2275V43.5641H248.426V50.8612H250.822L252.456 49.2275Z" stroke="white" stroke-miterlimit="10"/>
<path d="M244.396 125.029H233.832V135.594H244.396V125.029ZM241.129 132.326H237.099V128.297H241.129V132.326ZM267.158 125.029H256.594V135.594H267.158V125.029ZM263.891 132.326H259.861V128.297H263.891V132.326ZM233.832 158.356H244.396V147.792H233.832V158.356ZM237.099 151.059H241.129V155.198H237.099V151.059ZM267.158 158.356V147.792H256.594V158.356H267.158ZM259.861 151.059H263.891V155.198H259.861V151.059Z" stroke="white" stroke-miterlimit="10"/>
<path d="M263.891 142.128V139.732H256.594V143.762H262.257M241.129 142.128V139.732H237.099V143.762H239.495L241.129 142.128ZM252.456 126.663V125.029H248.426V128.297H250.822L252.456 126.663ZM252.456 142.128V139.732V136.247V132.326H248.426V137.99V139.623H244.396V143.653H250.931L252.456 142.128ZM252.456 153.455V147.792H248.426V155.089H250.822L252.456 153.455Z" stroke="white" stroke-miterlimit="10"/>
<path d="M244.396 228.495H233.832V239.059H244.396V228.495ZM241.129 235.792H237.099V231.762H241.129V235.792ZM267.158 228.495H256.594V239.059H267.158V228.495ZM263.891 235.792H259.861V231.762H263.891V235.792ZM233.832 261.822H244.396V251.257H233.832V261.822ZM237.099 254.525H241.129V258.663H237.099V254.525ZM267.158 261.822V251.257H256.594V261.822H267.158ZM259.861 254.525H263.891V258.663H259.861V254.525Z" stroke="white" stroke-miterlimit="10"/>
<path d="M263.891 245.594V243.198H256.594V247.228H262.257M241.129 245.594V243.198H237.099V247.228H239.495L241.129 245.594ZM252.456 230.129V228.495H248.426V231.762H250.822L252.456 230.129ZM252.456 245.594V243.198V239.713V235.792H248.426V241.456V243.089H244.396V247.119H250.931L252.456 245.594ZM252.456 256.921V251.258H248.426V258.555H250.822L252.456 256.921Z" stroke="white" stroke-miterlimit="10"/>
<path d="M244.396 332.505H233.832V343.069H244.396V332.505ZM241.129 339.802H237.099V335.772H241.129V339.802ZM267.158 332.505H256.594V343.069H267.158V332.505ZM263.891 339.802H259.861V335.772H263.891V339.802ZM233.832 365.832H244.396V355.267H233.832V365.832ZM237.099 358.426H241.129V362.564H237.099V358.426ZM267.158 365.832V355.267H256.594V365.832H267.158ZM259.861 358.426H263.891V362.564H259.861V358.426Z" stroke="white" stroke-miterlimit="10"/>
<path d="M263.891 349.495V347.099H256.594V351.129H262.257M241.129 349.495V347.099H237.099V351.129H239.495L241.129 349.495ZM252.456 334.03V332.396H248.426V335.664H250.822L252.456 334.03ZM252.456 349.495V347.099V343.614V339.802H248.426V345.466V347.099H244.396V351.129H250.931L252.456 349.495ZM252.456 360.931V355.268H248.426V362.565H250.822L252.456 360.931Z" stroke="white" stroke-miterlimit="10"/>
<path d="M244.396 436.079H233.832V446.643H244.396V436.079ZM241.129 443.376H237.099V439.346H241.129V443.376ZM267.158 436.079H256.594V446.643H267.158V436.079ZM263.891 443.376H259.861V439.346H263.891V443.376ZM233.832 469.406H244.396V458.841H233.832V469.406ZM237.099 462.109H241.129V466.247H237.099V462.109ZM267.158 469.406V458.841H256.594V469.406H267.158ZM259.861 462.109H263.891V466.247H259.861V462.109Z" stroke="white" stroke-miterlimit="10"/>
<path d="M263.891 453.178V450.782H256.594V454.812H262.257M241.129 453.178V450.782H237.099V454.812H239.495L241.129 453.178ZM252.456 437.713V436.079H248.426V439.346H250.822L252.456 437.713ZM252.456 453.178V450.782V447.297V443.376H248.426V449.039V450.673H244.396V454.703H250.931L252.456 453.178ZM252.456 464.505V458.841H248.426V466.139H250.822L252.456 464.505Z" stroke="white" stroke-miterlimit="10"/>
<path d="M251.802 695.179H151.168C135.812 695.179 123.287 682.218 123.287 666.317C123.287 650.416 135.812 637.456 151.168 637.456H251.802C267.158 637.456 279.683 650.416 279.683 666.317C279.683 682.218 267.267 695.179 251.802 695.179Z" fill="#00DCE6"/>
<path d="M151.277 704.436C130.911 704.436 114.465 687.337 114.465 666.317C114.465 645.297 131.02 628.198 151.277 628.198H251.911C272.277 628.198 288.723 645.297 288.723 666.317C288.723 687.337 272.168 704.436 251.911 704.436H151.277Z" fill="#00DCE6" fill-opacity="0.2"/>
<path d="M142.564 674.158V658.257L156.505 649L170.446 658.257V674.267" stroke="white"/>
<path d="M142.564 674.159L156.505 683.525L170.446 674.159L156.505 664.901L142.564 674.159Z" stroke="white" stroke-linejoin="round"/>
<path d="M170.337 658.258L156.396 667.515L142.456 658.258" stroke="white"/>
<path d="M156.505 649V665.01" stroke="white"/>
<path d="M156.505 667.624V683.634" stroke="white"/>
<path d="M188.847 672V662.198H192.169C193.32 662.198 194.193 662.427 194.788 662.884C195.383 663.338 195.68 664.004 195.68 664.884C195.68 665.364 195.561 665.788 195.322 666.156C195.083 666.52 194.751 666.787 194.325 666.957C194.812 667.083 195.194 667.337 195.472 667.718C195.754 668.1 195.895 668.566 195.895 669.119C195.895 670.061 195.604 670.775 195.022 671.259C194.44 671.744 193.611 671.991 192.534 672H188.847ZM190.801 667.732V670.377H192.475C192.936 670.377 193.294 670.265 193.55 670.041C193.811 669.812 193.941 669.498 193.941 669.098C193.941 668.201 193.492 667.745 192.593 667.732H190.801ZM190.801 666.304H192.247C193.233 666.286 193.726 665.88 193.726 665.086C193.726 664.642 193.6 664.323 193.348 664.13C193.101 663.932 192.708 663.834 192.169 663.834H190.801V666.304ZM199.231 672H197.341V661.659H199.231V672ZM200.494 668.29C200.494 667.568 200.629 666.924 200.898 666.358C201.167 665.793 201.554 665.355 202.058 665.045C202.566 664.736 203.154 664.581 203.823 664.581C204.774 664.581 205.549 664.882 206.149 665.483C206.752 666.084 207.089 666.901 207.158 667.934L207.171 668.432C207.171 669.549 206.87 670.447 206.266 671.125C205.662 671.798 204.852 672.135 203.836 672.135C202.82 672.135 202.008 671.798 201.4 671.125C200.796 670.452 200.494 669.536 200.494 668.378V668.29ZM202.377 668.432C202.377 669.123 202.503 669.653 202.755 670.021C203.007 670.384 203.367 670.566 203.836 670.566C204.292 670.566 204.648 670.386 204.904 670.027C205.161 669.664 205.289 669.085 205.289 668.29C205.289 667.613 205.161 667.088 204.904 666.715C204.648 666.343 204.288 666.156 203.823 666.156C203.363 666.156 203.007 666.343 202.755 666.715C202.503 667.083 202.377 667.655 202.377 668.432ZM211.262 670.566C211.61 670.566 211.892 670.467 212.109 670.27C212.326 670.072 212.439 669.81 212.448 669.482H214.213C214.209 669.976 214.079 670.429 213.822 670.842C213.566 671.25 213.214 671.569 212.767 671.798C212.324 672.022 211.833 672.135 211.295 672.135C210.287 672.135 209.493 671.805 208.911 671.145C208.329 670.481 208.038 669.565 208.038 668.398V668.27C208.038 667.148 208.327 666.253 208.904 665.584C209.482 664.915 210.274 664.581 211.282 664.581C212.164 664.581 212.869 664.841 213.399 665.362C213.933 665.878 214.205 666.567 214.213 667.429H212.448C212.439 667.052 212.326 666.747 212.109 666.513C211.892 666.275 211.605 666.156 211.249 666.156C210.811 666.156 210.478 666.322 210.253 666.654C210.031 666.982 209.92 667.516 209.92 668.257V668.459C209.92 669.208 210.031 669.747 210.253 670.075C210.474 670.402 210.811 670.566 211.262 670.566ZM217.848 669.078L217.171 669.778V672H215.288V661.659H217.171V667.388L217.536 666.904L219.34 664.716H221.6L219.053 667.752L221.822 672H219.659L217.848 669.078ZM225.216 670.566C225.563 670.566 225.846 670.467 226.063 670.27C226.28 670.072 226.393 669.81 226.401 669.482H228.167C228.162 669.976 228.032 670.429 227.776 670.842C227.52 671.25 227.168 671.569 226.721 671.798C226.278 672.022 225.787 672.135 225.248 672.135C224.241 672.135 223.446 671.805 222.864 671.145C222.282 670.481 221.991 669.565 221.991 668.398V668.27C221.991 667.148 222.28 666.253 222.858 665.584C223.435 664.915 224.228 664.581 225.235 664.581C226.117 664.581 226.823 664.841 227.353 665.362C227.887 665.878 228.158 666.567 228.167 667.429H226.401C226.393 667.052 226.28 666.747 226.063 666.513C225.846 666.275 225.559 666.156 225.203 666.156C224.764 666.156 224.432 666.322 224.206 666.654C223.985 666.982 223.874 667.516 223.874 668.257V668.459C223.874 669.208 223.985 669.747 224.206 670.075C224.428 670.402 224.764 670.566 225.216 670.566ZM231.079 665.51C231.578 664.891 232.206 664.581 232.961 664.581C234.49 664.581 235.265 665.499 235.287 667.334V672H233.404V667.388C233.404 666.971 233.317 666.663 233.144 666.466C232.97 666.264 232.681 666.163 232.277 666.163C231.726 666.163 231.326 666.383 231.079 666.823V672H229.196V661.659H231.079V665.51ZM240.791 672C240.705 671.825 240.642 671.607 240.603 671.347C240.147 671.872 239.554 672.135 238.824 672.135C238.134 672.135 237.56 671.928 237.104 671.515C236.653 671.102 236.427 670.582 236.427 669.953C236.427 669.181 236.703 668.589 237.254 668.176C237.81 667.763 238.611 667.554 239.658 667.55H240.524V667.132C240.524 666.796 240.44 666.527 240.27 666.325C240.105 666.123 239.843 666.022 239.482 666.022C239.165 666.022 238.915 666.1 238.733 666.257C238.555 666.414 238.466 666.63 238.466 666.904H236.583C236.583 666.482 236.709 666.091 236.961 665.732C237.213 665.373 237.569 665.093 238.029 664.891C238.49 664.684 239.007 664.581 239.58 664.581C240.448 664.581 241.137 664.808 241.645 665.261C242.157 665.71 242.413 666.343 242.413 667.159V670.317C242.418 671.008 242.511 671.531 242.694 671.886V672H240.791ZM239.235 670.647C239.512 670.647 239.769 670.584 240.003 670.458C240.238 670.328 240.411 670.155 240.524 669.94V668.688H239.821C238.878 668.688 238.377 669.024 238.316 669.698L238.31 669.812C238.31 670.054 238.392 670.254 238.557 670.411C238.722 670.568 238.948 670.647 239.235 670.647ZM245.846 672H243.957V664.716H245.846V672ZM243.847 662.831C243.847 662.539 243.94 662.299 244.127 662.11C244.318 661.922 244.576 661.827 244.902 661.827C245.223 661.827 245.48 661.922 245.671 662.11C245.862 662.299 245.957 662.539 245.957 662.831C245.957 663.127 245.86 663.369 245.664 663.558C245.473 663.746 245.219 663.84 244.902 663.84C244.585 663.84 244.329 663.746 244.133 663.558C243.942 663.369 243.847 663.127 243.847 662.831ZM249.136 664.716L249.195 665.557C249.699 664.906 250.374 664.581 251.221 664.581C251.968 664.581 252.524 664.808 252.888 665.261C253.253 665.714 253.44 666.392 253.449 667.294V672H251.566V667.341C251.566 666.928 251.479 666.63 251.305 666.446C251.132 666.257 250.843 666.163 250.439 666.163C249.909 666.163 249.512 666.396 249.247 666.863V672H247.364V664.716H249.136Z" fill="white"/>
<path d="M294.06 40.1885H319.109V667.515H294.06" stroke="#00DCE6" stroke-miterlimit="10"/>
<path d="M297.109 141.802H319.109" stroke="#00DCE6" stroke-miterlimit="10"/>
<path d="M297.109 241.673C298.743 241.673 300.159 242.98 300.159 244.722C300.159 246.465 298.852 247.772 297.109 247.772C295.366 247.772 294.06 246.465 294.06 244.722C294.06 242.98 295.366 241.673 297.109 241.673Z" fill="#00DCE6"/>
<path d="M297.109 244.723H319.109" stroke="#00DCE6" stroke-miterlimit="10"/>
<path d="M297.109 347.099C298.743 347.099 300.159 348.406 300.159 350.148C300.159 351.891 298.852 353.198 297.109 353.198C295.366 353.198 294.06 351.891 294.06 350.148C294.06 348.406 295.366 347.099 297.109 347.099Z" fill="#00DCE6"/>
<path d="M297.109 350.148H319.109" stroke="#00DCE6" stroke-miterlimit="10"/>
<path d="M297.109 450.782C298.743 450.782 300.159 452.089 300.159 453.832C300.159 455.465 298.852 456.881 297.109 456.881C295.366 456.881 294.06 455.574 294.06 453.832C294.06 452.089 295.366 450.782 297.109 450.782Z" fill="#00DCE6"/>
<path d="M297.109 453.832H319.109" stroke="#00DCE6" stroke-miterlimit="10"/>
<path d="M152.802 30.8223V33.7629C152.802 34.7431 151.931 35.1787 150.951 35.3965L147.357 36.3767C145.723 36.8124 144.416 38.5549 144.307 39.753V51.5153H138.317" stroke="white" stroke-miterlimit="10"/>
<path d="M160.099 30.8223V33.7629C160.099 34.7431 160.97 35.1787 161.951 35.3965L165.545 36.3767C167.178 36.8124 168.485 38.0104 168.594 39.2084V56.3074" stroke="white" stroke-miterlimit="10"/>
<path d="M162.495 21.7822C162.495 21.7822 162.495 27.5545 162.495 27.7723C162.495 30.0595 159.446 31.1486 158.901 31.3664C158.357 31.5842 157.485 32.0198 156.505 32.0198C155.525 32.0198 154.654 31.6931 154.109 31.3664C153.565 31.1486 150.515 30.0595 150.515 27.7723C150.515 27.4456 150.515 21.7822 150.515 21.7822" stroke="white" stroke-miterlimit="10"/>
<path d="M167.614 21.7822H146.159" stroke="white" stroke-miterlimit="10" stroke-linejoin="round"/>
<path d="M157.594 14.9209H155.416C152.366 14.9209 149.97 17.3169 149.97 20.3664V21.4556H163.04V20.3664C163.04 17.4258 160.535 14.9209 157.594 14.9209Z" stroke="white" stroke-miterlimit="10" stroke-linejoin="round"/>
<path d="M133.96 26.0303V33.2184H142.891V26.0303" stroke="white" stroke-miterlimit="10"/>
<path d="M136.901 26.0303V33.2184H139.841V26.0303" stroke="white" stroke-miterlimit="10"/>
<path d="M138.426 56.3079V33.2188" stroke="white" stroke-miterlimit="10"/>
<path d="M148.555 42.2578V56.3073" stroke="white" stroke-miterlimit="10"/>
<path d="M164.02 42.2578V56.3073" stroke="white" stroke-miterlimit="10"/>
<path d="M148.555 44.3271H164.02" stroke="white" stroke-miterlimit="10"/>
<path d="M151.168 35.7227V43.9999" stroke="white" stroke-miterlimit="10"/>
<path d="M161.406 35.7227V43.9999" stroke="white" stroke-miterlimit="10"/>
<path d="M159.99 47.7031H152.475V53.4754H159.99V47.7031Z" stroke="white" stroke-miterlimit="10"/>
<path d="M165.871 232.96H158.03V246.465H173.822V244.722L165.871 232.96Z" stroke="white" stroke-miterlimit="10"/>
<path d="M162.386 256.593C162.386 259.207 164.564 261.277 167.069 261.277C169.683 261.277 171.753 259.098 171.753 256.593C171.753 253.979 169.574 251.91 167.069 251.91C164.456 251.91 162.386 253.979 162.386 256.593Z" stroke="white" stroke-miterlimit="10"/>
<path d="M164.347 256.594C164.347 258.119 165.545 259.317 167.069 259.317C168.594 259.317 169.792 258.119 169.792 256.594C169.792 255.069 168.594 253.871 167.069 253.871C165.545 253.871 164.347 255.069 164.347 256.594Z" stroke="white" stroke-miterlimit="10"/>
<path d="M134.178 256.484C134.178 259.098 136.248 261.168 138.752 261.277C141.366 261.277 143.436 259.207 143.545 256.702C143.545 254.088 141.475 252.019 138.97 251.91C136.356 251.91 134.178 253.979 134.178 256.484Z" stroke="white" stroke-miterlimit="10"/>
<path d="M155.852 230.673H167.287L176.871 244.722V255.396H171.535C170.99 253.435 169.139 252.019 167.07 252.019C164.891 252.019 163.149 253.435 162.604 255.396H155.961H143.327C142.782 253.435 141.04 252.019 138.862 252.019C136.683 252.019 134.832 253.435 134.396 255.396H128.842V230.782L155.852 230.673Z" stroke="white" stroke-miterlimit="10"/>
<path d="M136.139 256.593C136.139 258.118 137.337 259.316 138.753 259.316C140.168 259.316 141.475 258.118 141.475 256.702C141.475 255.178 140.277 253.98 138.861 253.98C137.337 253.871 136.139 255.069 136.139 256.593Z" stroke="white" stroke-miterlimit="10"/>
<path d="M152.802 235.029H132.872" stroke="white" stroke-miterlimit="10"/>
<path d="M152.802 239.494H132.872" stroke="white" stroke-miterlimit="10"/>
<path d="M152.802 243.96H132.872" stroke="white" stroke-miterlimit="10"/>
<path d="M158.357 131.674V136.248C158.357 137.446 157.703 138.644 156.723 139.189L152.584 141.476" stroke="white" stroke-miterlimit="10"/>
<path d="M158.357 140.387V141.585C158.357 142.783 157.703 143.981 156.723 144.525L152.584 146.812V142.674" stroke="white" stroke-miterlimit="10"/>
<path d="M158.357 145.723V146.921C158.357 148.119 157.703 149.317 156.723 149.861L152.584 152.148V148.119" stroke="white" stroke-miterlimit="10"/>
<path d="M146.703 131.674V136.248C146.703 137.446 147.357 138.644 148.337 139.189L152.475 141.476" stroke="white" stroke-miterlimit="10"/>
<path d="M146.703 140.387V141.585C146.703 142.783 147.357 143.981 148.337 144.525L152.475 146.812V142.674" stroke="white" stroke-miterlimit="10"/>
<path d="M146.703 145.723V146.921C146.703 148.119 147.357 149.317 148.337 149.861L152.475 152.148V148.119" stroke="white" stroke-miterlimit="10"/>
<path d="M150.188 137.555C150.188 140.06 152.476 141.693 152.476 141.693C152.476 141.693 154.763 140.06 154.763 137.555C154.763 135.05 152.476 133.416 152.476 133.416C152.476 133.416 150.188 135.05 150.188 137.555Z" stroke="white" stroke-miterlimit="10"/>
<path d="M152.584 128.188V133.416" stroke="white" stroke-miterlimit="10"/>
<path d="M152.584 141.585V154.545" stroke="white" stroke-miterlimit="10"/>
<path d="M149.644 129.931V133.416" stroke="white" stroke-miterlimit="10"/>
<path d="M155.416 129.931V133.416" stroke="white" stroke-miterlimit="10"/>
<path d="M163.911 122.743V118.06H141.257V122.743C139.624 126.772 136.574 131.129 136.574 137.881V159.555C136.574 160.644 137.446 161.406 138.426 161.406H166.743C167.832 161.406 168.594 160.535 168.594 159.555V137.881C168.594 131.129 165.545 126.772 163.911 122.743Z" stroke="white" stroke-miterlimit="10"/>
<path d="M147.792 121.763H157.267" stroke="white" stroke-miterlimit="10"/>
<path d="M147.792 347.426V350.693H147.03L144.634 353.089L140.604 354.941C138.426 355.485 136.574 357.119 136.574 358.644V368.228" stroke="white" stroke-miterlimit="10"/>
<path d="M147.792 350.584L152.584 354.614" stroke="white" stroke-miterlimit="10"/>
<path d="M152.584 354.614L148.555 357.881L144.525 353.089" stroke="white" stroke-miterlimit="10"/>
<path d="M157.376 347.426V350.693H158.138L160.534 353.089L164.564 354.941C166.742 355.485 168.594 357.119 168.594 358.644V368.228" stroke="white" stroke-miterlimit="10"/>
<path d="M157.376 350.584L152.584 354.614" stroke="white" stroke-miterlimit="10"/>
<path d="M152.584 354.614L156.614 357.881L160.643 353.089" stroke="white" stroke-miterlimit="10"/>
<path d="M154.98 356.247L154.218 360.277H150.95L150.188 356.247" stroke="white" stroke-miterlimit="10"/>
<path d="M154.98 367.465L154.218 360.277H150.95L150.188 367.465" stroke="white" stroke-miterlimit="10"/>
<path d="M161.951 337.188V331.743C161.951 326.842 160.644 325.861 155.416 325.861H142.238V329.564C142.238 331.307 143.545 333.267 146.594 333.267C149.644 333.267 155.416 333.267 156.832 333.267C159.01 333.267 159.772 335.228 159.772 336.97C159.772 337.188 159.772 337.079 159.772 337.733H161.951V340.564C161.951 341 161.733 341.544 161.297 341.762L159.772 342.743C159.772 342.743 159.772 343.614 159.772 343.941C159.772 346.772 156.069 347.97 155.416 348.297C154.763 348.624 153.673 349.059 152.475 349.059C151.277 349.059 150.188 348.624 149.535 348.297C148.881 347.97 145.178 346.772 145.178 343.941C145.178 343.614 145.178 342.743 145.178 342.743L143.654 341.762C143.218 341.544 143 341 143 340.564V337.624H145.178C145.178 337.079 145.178 336.535 145.178 336.208C145.178 334.901 145.723 334.03 146.594 333.267" stroke="white" stroke-miterlimit="10"/>
<path d="M143 331.742C142.673 332.069 142.238 332.613 142.238 333.92C142.238 334.465 142.238 335.118 142.238 335.336C142.238 336.534 143.109 337.297 143.654 337.514" stroke="white" stroke-miterlimit="10"/>
<path d="M149.861 473.218V449.476L155.307 454.921C156.178 455.793 157.921 456.337 158.792 455.357L159.772 454.377C159.772 454.377 156.396 449.258 155.307 447.624C154.109 445.991 151.822 442.179 148.01 442.179H141.802C139.297 442.179 136.03 444.901 136.03 448.278V454.812C136.03 456.664 138.208 458.733 140.059 458.733" stroke="white" stroke-miterlimit="10" stroke-linejoin="round"/>
<path d="M139.733 448.604V473.218" stroke="white" stroke-miterlimit="10" stroke-linejoin="round"/>
<path d="M145.287 458.624V473.218" stroke="white" stroke-miterlimit="10" stroke-linejoin="round"/>
<path d="M145.287 439.456C147.466 439.456 148.99 437.931 148.99 435.753V433.901C148.99 431.723 147.466 430.198 145.287 430.198C143.109 430.198 141.584 431.723 141.584 433.901V435.753C141.584 437.931 143.109 439.456 145.287 439.456Z" stroke="white" stroke-miterlimit="10" stroke-linejoin="round"/>
<path d="M151.713 472.347H170.881V458.624H151.713" stroke="white" stroke-miterlimit="10" stroke-linejoin="round"/>
<path d="M157.163 462.289H163.589V458.586H157.163V462.289Z" stroke="white" stroke-miterlimit="10" stroke-linejoin="round"/>
<path d="M168.159 468.644H166.307" stroke="white" stroke-miterlimit="10" stroke-linejoin="round"/>
<path d="M165.436 468.644H163.584" stroke="white" stroke-miterlimit="10" stroke-linejoin="round"/>
<path d="M250.495 595.089C271.624 595.089 288.723 577.99 288.723 556.861C288.723 535.733 271.624 518.634 250.495 518.634C229.366 518.634 212.267 535.733 212.267 556.861C212.267 577.99 229.366 595.089 250.495 595.089Z" fill="#1F2432"/>
<path d="M239.604 490.317C239.604 496.307 244.505 501.208 250.495 501.208C256.485 501.208 261.386 496.307 261.386 490.317C261.386 484.327 256.485 479.426 250.495 479.426C244.396 479.426 239.604 484.327 239.604 490.317Z" fill="#00DCE6" fill-opacity="0.2"/>
<path d="M246.139 490.316C246.139 492.712 248.099 494.673 250.495 494.673C252.891 494.673 254.852 492.712 254.852 490.316C254.852 487.92 252.891 485.96 250.495 485.96C248.099 485.96 246.139 487.92 246.139 490.316Z" fill="#00DCE6"/>
<path d="M239.604 507.742L250.495 518.633L261.386 507.742" stroke="#00DCE6" stroke-width="2"/>
<path d="M250.495 486.832C250.495 501.426 250.495 504.149 250.495 518.634" stroke="#00DCE6" stroke-width="2" stroke-miterlimit="16"/>
<path d="M152.584 595.089C173.713 595.089 190.812 577.99 190.812 556.861C190.812 535.733 173.713 518.634 152.584 518.634C131.455 518.634 114.356 535.842 114.356 556.861C114.356 577.881 131.455 595.089 152.584 595.089Z" fill="#1F2432"/>
<path d="M141.693 490.317C141.693 496.307 146.594 501.208 152.584 501.208C158.574 501.208 163.475 496.307 163.475 490.317C163.475 484.327 158.574 479.426 152.584 479.426C146.594 479.426 141.693 484.327 141.693 490.317Z" fill="#00DCE6" fill-opacity="0.2"/>
<path d="M148.228 490.316C148.228 492.712 150.188 494.673 152.584 494.673C154.98 494.673 156.94 492.712 156.94 490.316C156.94 487.92 154.98 485.96 152.584 485.96C150.188 485.96 148.228 487.92 148.228 490.316Z" fill="#00DCE6"/>
<path d="M141.693 507.742L152.584 518.633L163.475 507.742" stroke="#00DCE6" stroke-width="2"/>
<path d="M152.584 486.832C152.584 501.426 152.584 504.149 152.584 518.634" stroke="#00DCE6" stroke-width="2" stroke-miterlimit="16"/>
<path d="M71.1187 577.663H22.1088C10.1286 577.663 0.32666 567.861 0.32666 555.881C0.32666 543.901 10.1286 534.099 22.1088 534.099H71.1187C83.0989 534.099 92.9009 543.901 92.9009 555.881C92.9009 567.861 83.0989 577.663 71.1187 577.663Z" fill="#00DCE6"/>
<path d="M26.0791 557.137H24.7954V560H23.1841V552.18H26.0898C27.0137 552.18 27.7262 552.386 28.2275 552.797C28.7288 553.209 28.9795 553.791 28.9795 554.543C28.9795 555.076 28.8631 555.522 28.6304 555.88C28.4012 556.235 28.0521 556.518 27.583 556.729L29.2749 559.925V560H27.5454L26.0791 557.137ZM24.7954 555.832H26.0952C26.4998 555.832 26.8132 555.73 27.0352 555.526C27.2572 555.318 27.3682 555.034 27.3682 554.672C27.3682 554.303 27.2625 554.013 27.0513 553.802C26.8436 553.59 26.5231 553.485 26.0898 553.485H24.7954V555.832ZM32.7822 560.107C31.93 560.107 31.2354 559.846 30.6982 559.323C30.1647 558.8 29.8979 558.104 29.8979 557.234V557.083C29.8979 556.5 30.0107 555.979 30.2363 555.521C30.4619 555.059 30.7806 554.704 31.1924 554.457C31.6077 554.206 32.0804 554.081 32.6104 554.081C33.4053 554.081 34.0301 554.332 34.4849 554.833C34.9432 555.334 35.1724 556.045 35.1724 556.965V557.599H31.4717C31.5218 557.979 31.6722 558.283 31.9229 558.512C32.1771 558.741 32.4976 558.856 32.8843 558.856C33.4823 558.856 33.9495 558.639 34.2861 558.206L35.0488 559.06C34.8161 559.389 34.501 559.647 34.1035 559.833C33.7061 560.016 33.2656 560.107 32.7822 560.107ZM32.605 555.338C32.297 555.338 32.0464 555.442 31.853 555.649C31.6632 555.857 31.5415 556.154 31.4878 556.541H33.647V556.417C33.6398 556.074 33.5467 555.809 33.3677 555.623C33.1886 555.433 32.9344 555.338 32.605 555.338ZM35.833 557.051C35.833 556.16 36.0443 555.442 36.4668 554.897C36.8929 554.353 37.4658 554.081 38.1855 554.081C38.8229 554.081 39.3188 554.299 39.6733 554.736L39.7378 554.188H41.145V559.807C41.145 560.315 41.0286 560.757 40.7959 561.133C40.5667 561.509 40.2427 561.796 39.8237 561.993C39.4048 562.19 38.9142 562.288 38.3521 562.288C37.9259 562.288 37.5106 562.202 37.106 562.03C36.7013 561.862 36.3952 561.644 36.1875 561.375L36.875 560.43C37.2617 560.863 37.7308 561.08 38.2822 561.08C38.694 561.08 39.0145 560.969 39.2437 560.747C39.4728 560.528 39.5874 560.217 39.5874 559.812V559.5C39.2293 559.905 38.7585 560.107 38.1748 560.107C37.4766 560.107 36.9108 559.835 36.4775 559.291C36.0479 558.743 35.833 558.018 35.833 557.116V557.051ZM37.3853 557.164C37.3853 557.69 37.4909 558.104 37.7021 558.405C37.9134 558.702 38.2035 558.851 38.5723 558.851C39.0449 558.851 39.3833 558.673 39.5874 558.319V555.875C39.3797 555.521 39.0449 555.343 38.583 555.343C38.2106 555.343 37.917 555.495 37.7021 555.8C37.4909 556.104 37.3853 556.559 37.3853 557.164ZM45.8232 559.409C45.4401 559.875 44.9102 560.107 44.2334 560.107C43.6104 560.107 43.1341 559.928 42.8047 559.57C42.4788 559.212 42.3123 558.688 42.3052 557.997V554.188H43.8574V557.943C43.8574 558.548 44.1331 558.851 44.6846 558.851C45.2109 558.851 45.5726 558.668 45.7695 558.303V554.188H47.3271V560H45.8662L45.8232 559.409ZM50.1362 560H48.5786V551.75H50.1362V560ZM54.7876 560C54.716 559.86 54.6641 559.687 54.6318 559.479C54.2559 559.898 53.7671 560.107 53.1655 560.107C52.5962 560.107 52.1235 559.943 51.7476 559.613C51.3752 559.284 51.189 558.868 51.189 558.367C51.189 557.751 51.4163 557.279 51.8711 556.949C52.3294 556.62 52.9901 556.453 53.853 556.45H54.5674V556.117C54.5674 555.848 54.4976 555.633 54.3579 555.472C54.2218 555.311 54.0052 555.23 53.708 555.23C53.4466 555.23 53.2407 555.293 53.0903 555.418C52.9435 555.544 52.8701 555.716 52.8701 555.934H51.3179C51.3179 555.597 51.4217 555.286 51.6294 555C51.8371 554.713 52.1307 554.489 52.5103 554.328C52.8898 554.163 53.3159 554.081 53.7886 554.081C54.5047 554.081 55.0723 554.262 55.4912 554.624C55.9137 554.982 56.125 555.486 56.125 556.138V558.657C56.1286 559.209 56.2056 559.626 56.356 559.909V560H54.7876ZM53.5039 558.92C53.7331 558.92 53.9443 558.87 54.1377 558.77C54.3311 558.666 54.4743 558.528 54.5674 558.356V557.357H53.9873C53.2103 557.357 52.7967 557.626 52.7466 558.163L52.7412 558.254C52.7412 558.448 52.8092 558.607 52.9453 558.732C53.0814 558.858 53.2676 558.92 53.5039 558.92ZM59.1758 552.76V554.188H60.1694V555.327H59.1758V558.228C59.1758 558.442 59.217 558.596 59.2993 558.689C59.3817 558.783 59.5392 558.829 59.772 558.829C59.9438 558.829 60.096 558.817 60.2285 558.792V559.968C59.9242 560.061 59.6108 560.107 59.2886 560.107C58.2 560.107 57.645 559.558 57.6235 558.458V555.327H56.7749V554.188H57.6235V552.76H59.1758ZM60.6313 557.041C60.6313 556.464 60.7424 555.95 60.9644 555.499C61.1864 555.048 61.505 554.699 61.9204 554.452C62.3394 554.205 62.8245 554.081 63.376 554.081C64.1602 554.081 64.7993 554.321 65.2935 554.801C65.7912 555.281 66.0687 555.932 66.126 556.756L66.1367 557.153C66.1367 558.045 65.8879 558.761 65.3901 559.302C64.8924 559.839 64.2246 560.107 63.3867 560.107C62.5488 560.107 61.8792 559.839 61.3779 559.302C60.8802 558.765 60.6313 558.034 60.6313 557.11V557.041ZM62.1836 557.153C62.1836 557.705 62.2874 558.127 62.4951 558.421C62.7028 558.711 63 558.856 63.3867 558.856C63.7627 558.856 64.0563 558.713 64.2676 558.426C64.4788 558.136 64.5845 557.674 64.5845 557.041C64.5845 556.5 64.4788 556.081 64.2676 555.784C64.0563 555.486 63.7591 555.338 63.376 555.338C62.9964 555.338 62.7028 555.486 62.4951 555.784C62.2874 556.077 62.1836 556.534 62.1836 557.153ZM70.3584 555.644C70.1471 555.615 69.9609 555.601 69.7998 555.601C69.2126 555.601 68.8276 555.8 68.645 556.197V560H67.0928V554.188H68.5591L68.6021 554.881C68.9136 554.348 69.3451 554.081 69.8965 554.081C70.0684 554.081 70.2295 554.104 70.3799 554.151L70.3584 555.644Z" fill="white"/>
<path d="M244.396 540.198H233.832V550.763H244.396V540.198ZM241.129 547.495H237.099V543.466H241.129V547.495ZM267.158 540.198H256.594V550.763H267.158V540.198ZM263.891 547.495H259.861V543.466H263.891V547.495ZM233.832 573.525H244.396V562.961H233.832V573.525ZM237.099 566.228H241.129V570.367H237.099V566.228ZM267.158 573.525V562.961H256.594V573.525H267.158ZM259.861 566.228H263.891V570.367H259.861V566.228Z" stroke="white" stroke-miterlimit="10"/>
<path d="M263.891 557.297V554.901H256.594V558.931H262.257M241.129 557.297V554.901H237.099V558.931H239.495L241.129 557.297ZM252.456 541.832V540.198H248.426V543.466H250.822L252.456 541.832ZM252.456 557.297V554.901V551.416V547.495H248.426V553.159V554.792H244.396V558.822H250.931L252.456 557.297ZM252.456 568.624V562.961H248.426V570.258H250.822L252.456 568.624Z" stroke="white" stroke-miterlimit="10"/>
<path d="M297.109 554.901C298.743 554.901 300.159 556.208 300.159 557.951C300.159 559.584 298.852 561 297.109 561C295.366 561 294.06 559.693 294.06 557.951C294.06 556.208 295.366 554.901 297.109 554.901Z" fill="#00DCE6"/>
<path d="M297.109 557.95H319.109" stroke="#00DCE6" stroke-miterlimit="10"/>
<path d="M151.536 537.438H151.464L132.358 547.497V550.049H151.464H151.536H170.642V547.497L151.536 537.438Z" stroke="white" stroke-miterlimit="10"/>
<path d="M139.084 551.943V567.981" stroke="white" stroke-miterlimit="10"/>
<path d="M147.099 551.943V567.981" stroke="white" stroke-miterlimit="10"/>
<path d="M170.642 570.241H132.358" stroke="white" stroke-miterlimit="10"/>
<path d="M170.642 575.636H132.358" stroke="white" stroke-miterlimit="10"/>
<path d="M155.758 551.943V567.981" stroke="white" stroke-miterlimit="10"/>
<path d="M163.844 551.943V567.981" stroke="white" stroke-miterlimit="10"/>
</g>
<defs>
<clipPath id="clip0">
<rect width="330" height="705" fill="white"/>
</clipPath>
</defs>
</svg>
