<svg width="670" height="395" viewBox="0 0 670 395" fill="none" xmlns="http://www.w3.org/2000/svg">
<g clip-path="url(#clip0)">
<path d="M424.885 383.395H422.143V391H421.023V383.395H418.287V382.469H424.885V383.395ZM428.025 391.117C427.166 391.117 426.467 390.836 425.928 390.273C425.389 389.707 425.119 388.951 425.119 388.006V387.807C425.119 387.178 425.238 386.617 425.477 386.125C425.719 385.629 426.055 385.242 426.484 384.965C426.918 384.684 427.387 384.543 427.891 384.543C428.715 384.543 429.355 384.814 429.812 385.357C430.27 385.9 430.498 386.678 430.498 387.689V388.141H426.203C426.219 388.766 426.4 389.271 426.748 389.658C427.1 390.041 427.545 390.232 428.084 390.232C428.467 390.232 428.791 390.154 429.057 389.998C429.322 389.842 429.555 389.635 429.754 389.377L430.416 389.893C429.885 390.709 429.088 391.117 428.025 391.117ZM427.891 385.434C427.453 385.434 427.086 385.594 426.789 385.914C426.492 386.23 426.309 386.676 426.238 387.25H429.414V387.168C429.383 386.617 429.234 386.191 428.969 385.891C428.703 385.586 428.344 385.434 427.891 385.434ZM435.672 391C435.609 390.875 435.559 390.652 435.52 390.332C435.016 390.855 434.414 391.117 433.715 391.117C433.09 391.117 432.576 390.941 432.174 390.59C431.775 390.234 431.576 389.785 431.576 389.242C431.576 388.582 431.826 388.07 432.326 387.707C432.83 387.34 433.537 387.156 434.447 387.156H435.502V386.658C435.502 386.279 435.389 385.979 435.162 385.756C434.936 385.529 434.602 385.416 434.16 385.416C433.773 385.416 433.449 385.514 433.188 385.709C432.926 385.904 432.795 386.141 432.795 386.418H431.705C431.705 386.102 431.816 385.797 432.039 385.504C432.266 385.207 432.57 384.973 432.953 384.801C433.34 384.629 433.764 384.543 434.225 384.543C434.955 384.543 435.527 384.727 435.941 385.094C436.355 385.457 436.57 385.959 436.586 386.6V389.518C436.586 390.1 436.66 390.562 436.809 390.906V391H435.672ZM433.873 390.174C434.213 390.174 434.535 390.086 434.84 389.91C435.145 389.734 435.365 389.506 435.502 389.225V387.924H434.652C433.324 387.924 432.66 388.312 432.66 389.09C432.66 389.43 432.773 389.695 433 389.887C433.227 390.078 433.518 390.174 433.873 390.174ZM440.828 390.232C441.215 390.232 441.553 390.115 441.842 389.881C442.131 389.646 442.291 389.354 442.322 389.002H443.348C443.328 389.365 443.203 389.711 442.973 390.039C442.742 390.367 442.434 390.629 442.047 390.824C441.664 391.02 441.258 391.117 440.828 391.117C439.965 391.117 439.277 390.83 438.766 390.256C438.258 389.678 438.004 388.889 438.004 387.889V387.707C438.004 387.09 438.117 386.541 438.344 386.061C438.57 385.58 438.895 385.207 439.316 384.941C439.742 384.676 440.244 384.543 440.822 384.543C441.533 384.543 442.123 384.756 442.592 385.182C443.064 385.607 443.316 386.16 443.348 386.84H442.322C442.291 386.43 442.135 386.094 441.854 385.832C441.576 385.566 441.232 385.434 440.822 385.434C440.271 385.434 439.844 385.633 439.539 386.031C439.238 386.426 439.088 386.998 439.088 387.748V387.953C439.088 388.684 439.238 389.246 439.539 389.641C439.84 390.035 440.27 390.232 440.828 390.232ZM445.65 385.428C446.131 384.838 446.756 384.543 447.525 384.543C448.865 384.543 449.541 385.299 449.553 386.811V391H448.469V386.805C448.465 386.348 448.359 386.01 448.152 385.791C447.949 385.572 447.631 385.463 447.197 385.463C446.846 385.463 446.537 385.557 446.271 385.744C446.006 385.932 445.799 386.178 445.65 386.482V391H444.566V382H445.65V385.428ZM453.807 391.117C452.947 391.117 452.248 390.836 451.709 390.273C451.17 389.707 450.9 388.951 450.9 388.006V387.807C450.9 387.178 451.02 386.617 451.258 386.125C451.5 385.629 451.836 385.242 452.266 384.965C452.699 384.684 453.168 384.543 453.672 384.543C454.496 384.543 455.137 384.814 455.594 385.357C456.051 385.9 456.279 386.678 456.279 387.689V388.141H451.984C452 388.766 452.182 389.271 452.529 389.658C452.881 390.041 453.326 390.232 453.865 390.232C454.248 390.232 454.572 390.154 454.838 389.998C455.104 389.842 455.336 389.635 455.535 389.377L456.197 389.893C455.666 390.709 454.869 391.117 453.807 391.117ZM453.672 385.434C453.234 385.434 452.867 385.594 452.57 385.914C452.273 386.23 452.09 386.676 452.02 387.25H455.195V387.168C455.164 386.617 455.016 386.191 454.75 385.891C454.484 385.586 454.125 385.434 453.672 385.434ZM460.604 385.633C460.439 385.605 460.262 385.592 460.07 385.592C459.359 385.592 458.877 385.895 458.623 386.5V391H457.539V384.66H458.594L458.611 385.393C458.967 384.826 459.471 384.543 460.123 384.543C460.334 384.543 460.494 384.57 460.604 384.625V385.633ZM465.297 389.318C465.297 389.025 465.186 388.799 464.963 388.639C464.744 388.475 464.359 388.334 463.809 388.217C463.262 388.1 462.826 387.959 462.502 387.795C462.182 387.631 461.943 387.436 461.787 387.209C461.635 386.982 461.559 386.713 461.559 386.4C461.559 385.881 461.777 385.441 462.215 385.082C462.656 384.723 463.219 384.543 463.902 384.543C464.621 384.543 465.203 384.729 465.648 385.1C466.098 385.471 466.322 385.945 466.322 386.523H465.232C465.232 386.227 465.105 385.971 464.852 385.756C464.602 385.541 464.285 385.434 463.902 385.434C463.508 385.434 463.199 385.52 462.977 385.691C462.754 385.863 462.643 386.088 462.643 386.365C462.643 386.627 462.746 386.824 462.953 386.957C463.16 387.09 463.533 387.217 464.072 387.338C464.615 387.459 465.055 387.604 465.391 387.771C465.727 387.939 465.975 388.143 466.135 388.381C466.299 388.615 466.381 388.902 466.381 389.242C466.381 389.809 466.154 390.264 465.701 390.607C465.248 390.947 464.66 391.117 463.938 391.117C463.43 391.117 462.98 391.027 462.59 390.848C462.199 390.668 461.893 390.418 461.67 390.098C461.451 389.773 461.342 389.424 461.342 389.049H462.426C462.445 389.412 462.59 389.701 462.859 389.916C463.133 390.127 463.492 390.232 463.938 390.232C464.348 390.232 464.676 390.15 464.922 389.986C465.172 389.818 465.297 389.596 465.297 389.318Z" fill="#1F2432"/>
<path d="M443.034 372.639C468.917 372.639 490.015 351.639 490.015 325.635C490.015 299.739 469.026 278.631 443.034 278.631C417.151 278.631 396.053 299.63 396.053 325.635C396.053 351.639 417.042 372.639 443.034 372.639Z" fill="#1F2432"/>
<path d="M456.519 343.805L451.734 336.624L460.108 331.184L463.262 336.08C463.153 336.407 462.065 337.059 461.63 337.495C460.978 337.168 459.999 337.277 459.782 337.277C459.455 337.277 458.585 338.583 458.477 338.8C458.368 338.8 457.28 339.562 457.28 339.888C457.389 341.303 458.477 342.609 459.238 342.282C461.304 341.629 465.219 339.562 467.177 337.386C468.156 336.298 468.373 334.992 467.394 333.795L462.935 326.505C461.63 324.656 457.172 323.785 454.997 323.785C452.93 323.785 448.254 324.873 446.949 326.505C445.753 328.029 443.251 331.51 442.273 332.381L439.336 330.749C438.901 329.878 439.554 329.552 439.445 328.79C439.445 328.464 437.052 326.396 436.726 326.396C435.204 326.07 433.79 328.79 434.334 329.878C434.769 330.749 435.421 331.619 435.747 331.946C440.859 338.039 440.968 338.583 442.708 338.692C444.448 338.8 447.71 335.536 448.145 334.775V344.349" stroke="#00DCE6" stroke-miterlimit="10"/>
<path d="M455.432 310.62C457.824 310.62 459.89 312.035 459.89 316.169C459.89 320.195 457.933 321.718 455.432 321.718C453.039 321.718 450.973 320.304 450.973 316.169C451.081 312.143 453.039 310.62 455.432 310.62Z" stroke="#00DCE6" stroke-miterlimit="10"/>
<path d="M436.291 313.558V326.832" stroke="#00DCE6" stroke-miterlimit="10"/>
<path d="M448.036 342.282H418.021V304.2H467.068V333.469" stroke="#00DCE6" stroke-miterlimit="10"/>
<path d="M20.5332 386.752H16.8359V389.775H21.1309V390.695H15.7109V382.164H21.0723V383.09H16.8359V385.832H20.5332V386.752ZM23.3809 384.355L23.4102 385.059C23.875 384.512 24.502 384.238 25.291 384.238C26.1777 384.238 26.7812 384.578 27.1016 385.258C27.3125 384.953 27.5859 384.707 27.9219 384.52C28.2617 384.332 28.6621 384.238 29.123 384.238C30.5137 384.238 31.2207 384.975 31.2441 386.447V390.695H30.1602V386.512C30.1602 386.059 30.0566 385.721 29.8496 385.498C29.6426 385.271 29.2949 385.158 28.8066 385.158C28.4043 385.158 28.0703 385.279 27.8047 385.521C27.5391 385.76 27.3848 386.082 27.3418 386.488V390.695H26.252V386.541C26.252 385.619 25.8008 385.158 24.8984 385.158C24.1875 385.158 23.7012 385.461 23.4395 386.066V390.695H22.3555V384.355H23.3809ZM38.2402 387.596C38.2402 388.561 38.0195 389.338 37.5781 389.928C37.1367 390.518 36.5391 390.812 35.7852 390.812C35.0156 390.812 34.4102 390.568 33.9688 390.08V393.133H32.8848V384.355H33.875L33.9277 385.059C34.3691 384.512 34.9824 384.238 35.7676 384.238C36.5293 384.238 37.1309 384.525 37.5723 385.1C38.0176 385.674 38.2402 386.473 38.2402 387.496V387.596ZM37.1562 387.473C37.1562 386.758 37.0039 386.193 36.6992 385.779C36.3945 385.365 35.9766 385.158 35.4453 385.158C34.7891 385.158 34.2969 385.449 33.9688 386.031V389.061C34.293 389.639 34.7891 389.928 35.457 389.928C35.9766 389.928 36.3887 389.723 36.6934 389.312C37.002 388.898 37.1562 388.285 37.1562 387.473ZM40.8008 390.695H39.7168V381.695H40.8008V390.695ZM42.2539 387.467C42.2539 386.846 42.375 386.287 42.6172 385.791C42.8633 385.295 43.2031 384.912 43.6367 384.643C44.0742 384.373 44.5723 384.238 45.1309 384.238C45.9941 384.238 46.6914 384.537 47.2227 385.135C47.7578 385.732 48.0254 386.527 48.0254 387.52V387.596C48.0254 388.213 47.9062 388.768 47.668 389.26C47.4336 389.748 47.0957 390.129 46.6543 390.402C46.2168 390.676 45.7129 390.812 45.1426 390.812C44.2832 390.812 43.5859 390.514 43.0508 389.916C42.5195 389.318 42.2539 388.527 42.2539 387.543V387.467ZM43.3438 387.596C43.3438 388.299 43.5059 388.863 43.8301 389.289C44.1582 389.715 44.5957 389.928 45.1426 389.928C45.6934 389.928 46.1309 389.713 46.4551 389.283C46.7793 388.85 46.9414 388.244 46.9414 387.467C46.9414 386.771 46.7754 386.209 46.4434 385.779C46.1152 385.346 45.6777 385.129 45.1309 385.129C44.5957 385.129 44.1641 385.342 43.8359 385.768C43.5078 386.193 43.3438 386.803 43.3438 387.596ZM51.3652 389.107L52.8418 384.355H54.002L51.4531 391.674C51.0586 392.729 50.4316 393.256 49.5723 393.256L49.3672 393.238L48.9629 393.162V392.283L49.2559 392.307C49.623 392.307 49.9082 392.232 50.1113 392.084C50.3184 391.936 50.4883 391.664 50.6211 391.27L50.8613 390.625L48.5996 384.355H49.7832L51.3652 389.107ZM57.5234 390.812C56.6641 390.812 55.9648 390.531 55.4258 389.969C54.8867 389.402 54.6172 388.646 54.6172 387.701V387.502C54.6172 386.873 54.7363 386.312 54.9746 385.82C55.2168 385.324 55.5527 384.938 55.9824 384.66C56.416 384.379 56.8848 384.238 57.3887 384.238C58.2129 384.238 58.8535 384.51 59.3105 385.053C59.7676 385.596 59.9961 386.373 59.9961 387.385V387.836H55.7012C55.7168 388.461 55.8984 388.967 56.2461 389.354C56.5977 389.736 57.043 389.928 57.582 389.928C57.9648 389.928 58.2891 389.85 58.5547 389.693C58.8203 389.537 59.0527 389.33 59.252 389.072L59.9141 389.588C59.3828 390.404 58.5859 390.812 57.5234 390.812ZM57.3887 385.129C56.9512 385.129 56.584 385.289 56.2871 385.609C55.9902 385.926 55.8066 386.371 55.7363 386.945H58.9121V386.863C58.8809 386.312 58.7324 385.887 58.4668 385.586C58.2012 385.281 57.8418 385.129 57.3887 385.129ZM64.3203 385.328C64.1562 385.301 63.9785 385.287 63.7871 385.287C63.0762 385.287 62.5938 385.59 62.3398 386.195V390.695H61.2559V384.355H62.3105L62.3281 385.088C62.6836 384.521 63.1875 384.238 63.8398 384.238C64.0508 384.238 64.2109 384.266 64.3203 384.32V385.328ZM69.0137 389.014C69.0137 388.721 68.9023 388.494 68.6797 388.334C68.4609 388.17 68.0762 388.029 67.5254 387.912C66.9785 387.795 66.543 387.654 66.2188 387.49C65.8984 387.326 65.6602 387.131 65.5039 386.904C65.3516 386.678 65.2754 386.408 65.2754 386.096C65.2754 385.576 65.4941 385.137 65.9316 384.777C66.373 384.418 66.9355 384.238 67.6191 384.238C68.3379 384.238 68.9199 384.424 69.3652 384.795C69.8145 385.166 70.0391 385.641 70.0391 386.219H68.9492C68.9492 385.922 68.8223 385.666 68.5684 385.451C68.3184 385.236 68.002 385.129 67.6191 385.129C67.2246 385.129 66.916 385.215 66.6934 385.387C66.4707 385.559 66.3594 385.783 66.3594 386.061C66.3594 386.322 66.4629 386.52 66.6699 386.652C66.877 386.785 67.25 386.912 67.7891 387.033C68.332 387.154 68.7715 387.299 69.1074 387.467C69.4434 387.635 69.6914 387.838 69.8516 388.076C70.0156 388.311 70.0977 388.598 70.0977 388.938C70.0977 389.504 69.8711 389.959 69.418 390.303C68.9648 390.643 68.377 390.812 67.6543 390.812C67.1465 390.812 66.6973 390.723 66.3066 390.543C65.916 390.363 65.6094 390.113 65.3867 389.793C65.168 389.469 65.0586 389.119 65.0586 388.744H66.1426C66.1621 389.107 66.3066 389.396 66.5762 389.611C66.8496 389.822 67.209 389.928 67.6543 389.928C68.0645 389.928 68.3926 389.846 68.6387 389.682C68.8887 389.514 69.0137 389.291 69.0137 389.014Z" fill="#1F2432"/>
<path d="M47.0669 372.639C72.95 372.639 94.0479 351.639 94.0479 325.635C94.0479 299.739 73.0587 278.631 47.0669 278.631C21.0751 278.631 0.0859375 299.848 0.0859375 325.744C0.0859375 351.639 21.0751 372.639 47.0669 372.639Z" fill="#1F2432"/>
<path d="M67.2945 331.184V323.458C67.2945 319.977 64.902 318.671 62.5094 318.671H54.788C52.2867 318.671 50.0029 320.085 50.0029 323.458V331.184" fill="#1F2432"/>
<path d="M67.2945 331.184V323.458C67.2945 319.977 64.902 318.671 62.5094 318.671H54.788C52.2867 318.671 50.0029 320.085 50.0029 323.458V331.184" stroke="#00DCE6" stroke-miterlimit="10" stroke-linejoin="round"/>
<path d="M63.3799 330.313V323.567" stroke="#00DCE6" stroke-miterlimit="10" stroke-linejoin="round"/>
<path d="M53.8096 323.567V330.313" stroke="#00DCE6" stroke-miterlimit="10" stroke-linejoin="round"/>
<path d="M23.9023 331.184H28.6874" stroke="#00DCE6" stroke-miterlimit="10" stroke-linejoin="round"/>
<path d="M46.0879 331.184H70.1222" stroke="#00DCE6" stroke-miterlimit="10" stroke-linejoin="round"/>
<path d="M58.5947 314.862C60.8785 314.862 62.401 313.339 62.401 311.054V309.095C62.401 306.81 60.7697 305.287 58.5947 305.287C56.3109 305.287 54.7883 306.81 54.7883 309.095V311.054C54.6796 313.23 56.3109 314.862 58.5947 314.862Z" fill="#1F2432" stroke="#00DCE6" stroke-miterlimit="10" stroke-linejoin="round"/>
<path d="M42.1728 335.101C44.2391 334.774 45.9791 334.23 45.9791 331.293V322.588C45.9791 319.106 43.5866 317.801 41.194 317.801H33.4726C30.9713 317.801 28.6875 319.215 28.6875 322.588V331.293C28.6875 334.23 30.4275 334.774 32.4938 335.101" fill="#1F2432"/>
<path d="M42.1728 335.101C44.2391 334.774 45.9791 334.23 45.9791 331.293V322.588C45.9791 319.106 43.5866 317.801 41.194 317.801H33.4726C30.9713 317.801 28.6875 319.215 28.6875 322.588V331.293C28.6875 334.23 30.4275 334.774 32.4938 335.101" stroke="#00DCE6" stroke-miterlimit="10" stroke-linejoin="round"/>
<path d="M42.2815 322.588H32.6025V339.018H42.2815V322.588Z" fill="#1F2432" stroke="#00DCE6" stroke-miterlimit="10" stroke-linejoin="round"/>
<path d="M37.3874 313.883C39.6712 313.883 41.1937 312.36 41.1937 310.075V308.117C41.1937 305.832 39.5624 304.309 37.3874 304.309C35.1036 304.309 33.5811 305.832 33.5811 308.117V310.075C33.5811 312.36 35.1036 313.883 37.3874 313.883Z" fill="#1F2432" stroke="#00DCE6" stroke-miterlimit="10" stroke-linejoin="round"/>
<path d="M68.1641 333.143V346.634" stroke="#00DCE6" stroke-miterlimit="10" stroke-linejoin="round"/>
<path d="M25.8604 333.143V346.634" stroke="#00DCE6" stroke-miterlimit="10" stroke-linejoin="round"/>
<path d="M37.3877 338.909V345.655" stroke="#00DCE6" stroke-miterlimit="10" stroke-linejoin="round"/>
<path d="M31.624 345.654H43.1518" stroke="#00DCE6" stroke-miterlimit="10" stroke-linejoin="round"/>
<path d="M158.22 388.541H154.645L153.843 390.768H152.682L155.94 382.236H156.925L160.188 390.768H159.034L158.22 388.541ZM154.985 387.615H157.886L156.432 383.625L154.985 387.615ZM163.71 390C164.096 390 164.434 389.883 164.723 389.648C165.012 389.414 165.173 389.121 165.204 388.77H166.229C166.21 389.133 166.085 389.479 165.854 389.807C165.624 390.135 165.315 390.396 164.929 390.592C164.546 390.787 164.139 390.885 163.71 390.885C162.846 390.885 162.159 390.598 161.647 390.023C161.139 389.445 160.886 388.656 160.886 387.656V387.475C160.886 386.857 160.999 386.309 161.225 385.828C161.452 385.348 161.776 384.975 162.198 384.709C162.624 384.443 163.126 384.311 163.704 384.311C164.415 384.311 165.005 384.523 165.473 384.949C165.946 385.375 166.198 385.928 166.229 386.607H165.204C165.173 386.197 165.016 385.861 164.735 385.6C164.458 385.334 164.114 385.201 163.704 385.201C163.153 385.201 162.725 385.4 162.421 385.799C162.12 386.193 161.97 386.766 161.97 387.516V387.721C161.97 388.451 162.12 389.014 162.421 389.408C162.721 389.803 163.151 390 163.71 390ZM169.991 390C170.378 390 170.716 389.883 171.005 389.648C171.294 389.414 171.454 389.121 171.485 388.77H172.511C172.491 389.133 172.366 389.479 172.136 389.807C171.905 390.135 171.596 390.396 171.21 390.592C170.827 390.787 170.421 390.885 169.991 390.885C169.128 390.885 168.44 390.598 167.929 390.023C167.421 389.445 167.167 388.656 167.167 387.656V387.475C167.167 386.857 167.28 386.309 167.507 385.828C167.733 385.348 168.057 384.975 168.479 384.709C168.905 384.443 169.407 384.311 169.985 384.311C170.696 384.311 171.286 384.523 171.755 384.949C172.227 385.375 172.479 385.928 172.511 386.607H171.485C171.454 386.197 171.298 385.861 171.016 385.6C170.739 385.334 170.395 385.201 169.985 385.201C169.434 385.201 169.007 385.4 168.702 385.799C168.401 386.193 168.251 386.766 168.251 387.516V387.721C168.251 388.451 168.401 389.014 168.702 389.408C169.003 389.803 169.432 390 169.991 390ZM176.794 385.4C176.63 385.373 176.452 385.359 176.261 385.359C175.55 385.359 175.067 385.662 174.813 386.268V390.768H173.729V384.428H174.784L174.802 385.16C175.157 384.594 175.661 384.311 176.313 384.311C176.524 384.311 176.684 384.338 176.794 384.393V385.4ZM180.309 390.885C179.45 390.885 178.751 390.604 178.212 390.041C177.673 389.475 177.403 388.719 177.403 387.773V387.574C177.403 386.945 177.522 386.385 177.761 385.893C178.003 385.396 178.339 385.01 178.768 384.732C179.202 384.451 179.671 384.311 180.175 384.311C180.999 384.311 181.639 384.582 182.096 385.125C182.554 385.668 182.782 386.445 182.782 387.457V387.908H178.487C178.503 388.533 178.684 389.039 179.032 389.426C179.384 389.809 179.829 390 180.368 390C180.751 390 181.075 389.922 181.341 389.766C181.606 389.609 181.839 389.402 182.038 389.145L182.7 389.66C182.169 390.477 181.372 390.885 180.309 390.885ZM180.175 385.201C179.737 385.201 179.37 385.361 179.073 385.682C178.776 385.998 178.593 386.443 178.522 387.018H181.698V386.936C181.667 386.385 181.518 385.959 181.253 385.658C180.987 385.354 180.628 385.201 180.175 385.201ZM183.778 387.545C183.778 386.572 184.009 385.791 184.47 385.201C184.93 384.607 185.534 384.311 186.28 384.311C187.022 384.311 187.61 384.564 188.044 385.072V381.768H189.128V390.768H188.132L188.079 390.088C187.645 390.619 187.042 390.885 186.268 390.885C185.534 390.885 184.934 390.584 184.47 389.982C184.009 389.381 183.778 388.596 183.778 387.627V387.545ZM184.862 387.668C184.862 388.387 185.011 388.949 185.307 389.355C185.604 389.762 186.014 389.965 186.538 389.965C187.225 389.965 187.727 389.656 188.044 389.039V386.127C187.72 385.529 187.221 385.23 186.55 385.23C186.018 385.23 185.604 385.436 185.307 385.846C185.011 386.256 184.862 386.863 184.862 387.668ZM191.993 390.768H190.909V384.428H191.993V390.768ZM190.821 382.746C190.821 382.57 190.874 382.422 190.979 382.301C191.089 382.18 191.249 382.119 191.46 382.119C191.671 382.119 191.831 382.18 191.94 382.301C192.05 382.422 192.104 382.57 192.104 382.746C192.104 382.922 192.05 383.068 191.94 383.186C191.831 383.303 191.671 383.361 191.46 383.361C191.249 383.361 191.089 383.303 190.979 383.186C190.874 383.068 190.821 382.922 190.821 382.746ZM195.204 382.893V384.428H196.387V385.266H195.204V389.197C195.204 389.451 195.257 389.643 195.362 389.771C195.468 389.896 195.647 389.959 195.901 389.959C196.026 389.959 196.198 389.936 196.417 389.889V390.768C196.132 390.846 195.854 390.885 195.585 390.885C195.1 390.885 194.735 390.738 194.489 390.445C194.243 390.152 194.12 389.736 194.12 389.197V385.266H192.966V384.428H194.12V382.893H195.204ZM197.255 387.539C197.255 386.918 197.376 386.359 197.618 385.863C197.864 385.367 198.204 384.984 198.637 384.715C199.075 384.445 199.573 384.311 200.132 384.311C200.995 384.311 201.692 384.609 202.223 385.207C202.759 385.805 203.026 386.6 203.026 387.592V387.668C203.026 388.285 202.907 388.84 202.669 389.332C202.434 389.82 202.096 390.201 201.655 390.475C201.218 390.748 200.714 390.885 200.143 390.885C199.284 390.885 198.587 390.586 198.052 389.988C197.52 389.391 197.255 388.6 197.255 387.615V387.539ZM198.345 387.668C198.345 388.371 198.507 388.936 198.831 389.361C199.159 389.787 199.596 390 200.143 390C200.694 390 201.132 389.785 201.456 389.355C201.78 388.922 201.942 388.316 201.942 387.539C201.942 386.844 201.776 386.281 201.444 385.852C201.116 385.418 200.679 385.201 200.132 385.201C199.596 385.201 199.165 385.414 198.837 385.84C198.509 386.266 198.345 386.875 198.345 387.668ZM207.45 385.4C207.286 385.373 207.108 385.359 206.917 385.359C206.206 385.359 205.723 385.662 205.47 386.268V390.768H204.386V384.428H205.44L205.458 385.16C205.813 384.594 206.317 384.311 206.97 384.311C207.18 384.311 207.341 384.338 207.45 384.393V385.4ZM212.143 389.086C212.143 388.793 212.032 388.566 211.809 388.406C211.591 388.242 211.206 388.102 210.655 387.984C210.108 387.867 209.673 387.727 209.348 387.562C209.028 387.398 208.79 387.203 208.634 386.977C208.481 386.75 208.405 386.48 208.405 386.168C208.405 385.648 208.624 385.209 209.061 384.85C209.503 384.49 210.065 384.311 210.749 384.311C211.468 384.311 212.05 384.496 212.495 384.867C212.944 385.238 213.169 385.713 213.169 386.291H212.079C212.079 385.994 211.952 385.738 211.698 385.523C211.448 385.309 211.132 385.201 210.749 385.201C210.354 385.201 210.046 385.287 209.823 385.459C209.6 385.631 209.489 385.855 209.489 386.133C209.489 386.395 209.593 386.592 209.8 386.725C210.007 386.857 210.38 386.984 210.919 387.105C211.462 387.227 211.901 387.371 212.237 387.539C212.573 387.707 212.821 387.91 212.981 388.148C213.145 388.383 213.227 388.67 213.227 389.01C213.227 389.576 213.001 390.031 212.548 390.375C212.095 390.715 211.507 390.885 210.784 390.885C210.276 390.885 209.827 390.795 209.436 390.615C209.046 390.436 208.739 390.186 208.516 389.865C208.298 389.541 208.188 389.191 208.188 388.816H209.272C209.292 389.18 209.436 389.469 209.706 389.684C209.979 389.895 210.339 390 210.784 390C211.194 390 211.522 389.918 211.768 389.754C212.018 389.586 212.143 389.363 212.143 389.086ZM214.604 392.467L213.989 392.045C214.356 391.533 214.548 391.006 214.563 390.463V389.484H215.624V390.334C215.624 390.729 215.526 391.123 215.331 391.518C215.139 391.912 214.897 392.229 214.604 392.467ZM222.063 389.297L223.634 384.428H224.741L222.468 390.768H221.641L219.345 384.428H220.452L222.063 389.297ZM229.604 390.768C229.542 390.643 229.491 390.42 229.452 390.1C228.948 390.623 228.346 390.885 227.647 390.885C227.022 390.885 226.509 390.709 226.106 390.357C225.708 390.002 225.509 389.553 225.509 389.01C225.509 388.35 225.759 387.838 226.259 387.475C226.762 387.107 227.47 386.924 228.38 386.924H229.434V386.426C229.434 386.047 229.321 385.746 229.095 385.523C228.868 385.297 228.534 385.184 228.093 385.184C227.706 385.184 227.382 385.281 227.12 385.477C226.858 385.672 226.727 385.908 226.727 386.186H225.637C225.637 385.869 225.749 385.564 225.971 385.271C226.198 384.975 226.503 384.74 226.886 384.568C227.272 384.396 227.696 384.311 228.157 384.311C228.887 384.311 229.46 384.494 229.874 384.861C230.288 385.225 230.503 385.727 230.518 386.367V389.285C230.518 389.867 230.593 390.33 230.741 390.674V390.768H229.604ZM227.805 389.941C228.145 389.941 228.468 389.854 228.772 389.678C229.077 389.502 229.298 389.273 229.434 388.992V387.691H228.585C227.257 387.691 226.593 388.08 226.593 388.857C226.593 389.197 226.706 389.463 226.932 389.654C227.159 389.846 227.45 389.941 227.805 389.941ZM233.395 390.768H232.311V381.768H233.395V390.768ZM236.313 390.768H235.229V384.428H236.313V390.768ZM235.141 382.746C235.141 382.57 235.194 382.422 235.3 382.301C235.409 382.18 235.569 382.119 235.78 382.119C235.991 382.119 236.151 382.18 236.261 382.301C236.37 382.422 236.425 382.57 236.425 382.746C236.425 382.922 236.37 383.068 236.261 383.186C236.151 383.303 235.991 383.361 235.78 383.361C235.569 383.361 235.409 383.303 235.3 383.186C235.194 383.068 235.141 382.922 235.141 382.746ZM237.79 387.545C237.79 386.572 238.02 385.791 238.481 385.201C238.942 384.607 239.546 384.311 240.292 384.311C241.034 384.311 241.622 384.564 242.055 385.072V381.768H243.139V390.768H242.143L242.091 390.088C241.657 390.619 241.054 390.885 240.28 390.885C239.546 390.885 238.946 390.584 238.481 389.982C238.02 389.381 237.79 388.596 237.79 387.627V387.545ZM238.874 387.668C238.874 388.387 239.022 388.949 239.319 389.355C239.616 389.762 240.026 389.965 240.55 389.965C241.237 389.965 241.739 389.656 242.055 389.039V386.127C241.731 385.529 241.233 385.23 240.561 385.23C240.03 385.23 239.616 385.436 239.319 385.846C239.022 386.256 238.874 386.863 238.874 387.668ZM248.741 390.768C248.679 390.643 248.628 390.42 248.589 390.1C248.085 390.623 247.483 390.885 246.784 390.885C246.159 390.885 245.645 390.709 245.243 390.357C244.845 390.002 244.645 389.553 244.645 389.01C244.645 388.35 244.895 387.838 245.395 387.475C245.899 387.107 246.606 386.924 247.516 386.924H248.571V386.426C248.571 386.047 248.458 385.746 248.231 385.523C248.005 385.297 247.671 385.184 247.229 385.184C246.843 385.184 246.518 385.281 246.257 385.477C245.995 385.672 245.864 385.908 245.864 386.186H244.774C244.774 385.869 244.886 385.564 245.108 385.271C245.335 384.975 245.639 384.74 246.022 384.568C246.409 384.396 246.833 384.311 247.294 384.311C248.024 384.311 248.596 384.494 249.011 384.861C249.425 385.225 249.639 385.727 249.655 386.367V389.285C249.655 389.867 249.729 390.33 249.878 390.674V390.768H248.741ZM246.942 389.941C247.282 389.941 247.604 389.854 247.909 389.678C248.214 389.502 248.434 389.273 248.571 388.992V387.691H247.721C246.393 387.691 245.729 388.08 245.729 388.857C245.729 389.197 245.843 389.463 246.069 389.654C246.296 389.846 246.587 389.941 246.942 389.941ZM252.825 382.893V384.428H254.009V385.266H252.825V389.197C252.825 389.451 252.878 389.643 252.983 389.771C253.089 389.896 253.268 389.959 253.522 389.959C253.647 389.959 253.819 389.936 254.038 389.889V390.768C253.753 390.846 253.475 390.885 253.206 390.885C252.721 390.885 252.356 390.738 252.11 390.445C251.864 390.152 251.741 389.736 251.741 389.197V385.266H250.587V384.428H251.741V382.893H252.825ZM254.876 387.539C254.876 386.918 254.997 386.359 255.239 385.863C255.485 385.367 255.825 384.984 256.259 384.715C256.696 384.445 257.194 384.311 257.753 384.311C258.616 384.311 259.313 384.609 259.845 385.207C260.38 385.805 260.647 386.6 260.647 387.592V387.668C260.647 388.285 260.528 388.84 260.29 389.332C260.055 389.82 259.718 390.201 259.276 390.475C258.839 390.748 258.335 390.885 257.764 390.885C256.905 390.885 256.208 390.586 255.673 389.988C255.141 389.391 254.876 388.6 254.876 387.615V387.539ZM255.966 387.668C255.966 388.371 256.128 388.936 256.452 389.361C256.78 389.787 257.218 390 257.764 390C258.315 390 258.753 389.785 259.077 389.355C259.401 388.922 259.563 388.316 259.563 387.539C259.563 386.844 259.397 386.281 259.065 385.852C258.737 385.418 258.3 385.201 257.753 385.201C257.218 385.201 256.786 385.414 256.458 385.84C256.13 386.266 255.966 386.875 255.966 387.668ZM265.071 385.4C264.907 385.373 264.729 385.359 264.538 385.359C263.827 385.359 263.345 385.662 263.091 386.268V390.768H262.007V384.428H263.061L263.079 385.16C263.434 384.594 263.938 384.311 264.591 384.311C264.802 384.311 264.962 384.338 265.071 384.393V385.4ZM269.764 389.086C269.764 388.793 269.653 388.566 269.43 388.406C269.212 388.242 268.827 388.102 268.276 387.984C267.729 387.867 267.294 387.727 266.97 387.562C266.649 387.398 266.411 387.203 266.255 386.977C266.102 386.75 266.026 386.48 266.026 386.168C266.026 385.648 266.245 385.209 266.682 384.85C267.124 384.49 267.686 384.311 268.37 384.311C269.089 384.311 269.671 384.496 270.116 384.867C270.565 385.238 270.79 385.713 270.79 386.291H269.7C269.7 385.994 269.573 385.738 269.319 385.523C269.069 385.309 268.753 385.201 268.37 385.201C267.975 385.201 267.667 385.287 267.444 385.459C267.221 385.631 267.11 385.855 267.11 386.133C267.11 386.395 267.214 386.592 267.421 386.725C267.628 386.857 268.001 386.984 268.54 387.105C269.083 387.227 269.522 387.371 269.858 387.539C270.194 387.707 270.442 387.91 270.602 388.148C270.766 388.383 270.848 388.67 270.848 389.01C270.848 389.576 270.622 390.031 270.169 390.375C269.716 390.715 269.128 390.885 268.405 390.885C267.897 390.885 267.448 390.795 267.057 390.615C266.667 390.436 266.36 390.186 266.137 389.865C265.919 389.541 265.809 389.191 265.809 388.816H266.893C266.913 389.18 267.057 389.469 267.327 389.684C267.6 389.895 267.96 390 268.405 390C268.815 390 269.143 389.918 269.389 389.754C269.639 389.586 269.764 389.363 269.764 389.086ZM275.009 388.477C275.009 388.066 275.122 387.689 275.348 387.346C275.579 387.002 276.016 386.602 276.661 386.145C276.282 385.684 276.028 385.312 275.899 385.031C275.77 384.75 275.706 384.471 275.706 384.193C275.706 383.545 275.897 383.037 276.28 382.67C276.663 382.303 277.182 382.119 277.839 382.119C278.425 382.119 278.909 382.291 279.292 382.635C279.675 382.975 279.866 383.404 279.866 383.924C279.866 384.268 279.778 384.586 279.602 384.879C279.43 385.168 279.128 385.473 278.694 385.793L278.067 386.256L279.966 388.523C280.231 388.016 280.364 387.451 280.364 386.83H281.343C281.343 387.826 281.102 388.652 280.622 389.309L281.841 390.768H280.54L279.971 390.094C279.682 390.352 279.343 390.549 278.952 390.686C278.565 390.818 278.171 390.885 277.768 390.885C276.936 390.885 276.268 390.664 275.764 390.223C275.261 389.781 275.009 389.199 275.009 388.477ZM277.768 390C278.343 390 278.868 389.781 279.345 389.344L277.264 386.854L277.071 386.994C276.419 387.475 276.093 387.969 276.093 388.477C276.093 388.938 276.241 389.307 276.538 389.584C276.839 389.861 277.249 390 277.768 390ZM276.79 384.158C276.79 384.533 277.02 385.002 277.481 385.564L278.173 385.078C278.438 384.891 278.62 384.713 278.718 384.545C278.815 384.373 278.864 384.166 278.864 383.924C278.864 383.662 278.766 383.445 278.571 383.273C278.376 383.098 278.13 383.01 277.833 383.01C277.512 383.01 277.259 383.119 277.071 383.338C276.884 383.553 276.79 383.826 276.79 384.158ZM287.149 382.893V384.428H288.333V385.266H287.149V389.197C287.149 389.451 287.202 389.643 287.307 389.771C287.413 389.896 287.593 389.959 287.846 389.959C287.971 389.959 288.143 389.936 288.362 389.889V390.768C288.077 390.846 287.8 390.885 287.53 390.885C287.046 390.885 286.68 390.738 286.434 390.445C286.188 390.152 286.065 389.736 286.065 389.197V385.266H284.911V384.428H286.065V382.893H287.149ZM292.235 390.885C291.376 390.885 290.677 390.604 290.137 390.041C289.598 389.475 289.329 388.719 289.329 387.773V387.574C289.329 386.945 289.448 386.385 289.686 385.893C289.929 385.396 290.264 385.01 290.694 384.732C291.128 384.451 291.596 384.311 292.1 384.311C292.925 384.311 293.565 384.582 294.022 385.125C294.479 385.668 294.708 386.445 294.708 387.457V387.908H290.413C290.429 388.533 290.61 389.039 290.958 389.426C291.309 389.809 291.755 390 292.294 390C292.677 390 293.001 389.922 293.266 389.766C293.532 389.609 293.764 389.402 293.964 389.145L294.626 389.66C294.095 390.477 293.298 390.885 292.235 390.885ZM292.1 385.201C291.663 385.201 291.296 385.361 290.999 385.682C290.702 385.998 290.518 386.443 290.448 387.018H293.624V386.936C293.593 386.385 293.444 385.959 293.179 385.658C292.913 385.354 292.554 385.201 292.1 385.201ZM299.659 389.086C299.659 388.793 299.548 388.566 299.325 388.406C299.106 388.242 298.721 388.102 298.171 387.984C297.624 387.867 297.188 387.727 296.864 387.562C296.544 387.398 296.305 387.203 296.149 386.977C295.997 386.75 295.921 386.48 295.921 386.168C295.921 385.648 296.139 385.209 296.577 384.85C297.018 384.49 297.581 384.311 298.264 384.311C298.983 384.311 299.565 384.496 300.011 384.867C300.46 385.238 300.684 385.713 300.684 386.291H299.595C299.595 385.994 299.468 385.738 299.214 385.523C298.964 385.309 298.647 385.201 298.264 385.201C297.87 385.201 297.561 385.287 297.339 385.459C297.116 385.631 297.005 385.855 297.005 386.133C297.005 386.395 297.108 386.592 297.315 386.725C297.522 386.857 297.895 386.984 298.434 387.105C298.977 387.227 299.417 387.371 299.753 387.539C300.089 387.707 300.337 387.91 300.497 388.148C300.661 388.383 300.743 388.67 300.743 389.01C300.743 389.576 300.516 390.031 300.063 390.375C299.61 390.715 299.022 390.885 298.3 390.885C297.792 390.885 297.343 390.795 296.952 390.615C296.561 390.436 296.255 390.186 296.032 389.865C295.813 389.541 295.704 389.191 295.704 388.816H296.788C296.807 389.18 296.952 389.469 297.221 389.684C297.495 389.895 297.854 390 298.3 390C298.71 390 299.038 389.918 299.284 389.754C299.534 389.586 299.659 389.363 299.659 389.086ZM303.626 382.893V384.428H304.809V385.266H303.626V389.197C303.626 389.451 303.679 389.643 303.784 389.771C303.889 389.896 304.069 389.959 304.323 389.959C304.448 389.959 304.62 389.936 304.839 389.889V390.768C304.554 390.846 304.276 390.885 304.007 390.885C303.522 390.885 303.157 390.738 302.911 390.445C302.665 390.152 302.542 389.736 302.542 389.197V385.266H301.387V384.428H302.542V382.893H303.626ZM308.712 390.885C307.852 390.885 307.153 390.604 306.614 390.041C306.075 389.475 305.805 388.719 305.805 387.773V387.574C305.805 386.945 305.925 386.385 306.163 385.893C306.405 385.396 306.741 385.01 307.171 384.732C307.604 384.451 308.073 384.311 308.577 384.311C309.401 384.311 310.042 384.582 310.499 385.125C310.956 385.668 311.184 386.445 311.184 387.457V387.908H306.889C306.905 388.533 307.087 389.039 307.434 389.426C307.786 389.809 308.231 390 308.77 390C309.153 390 309.477 389.922 309.743 389.766C310.009 389.609 310.241 389.402 310.44 389.145L311.102 389.66C310.571 390.477 309.774 390.885 308.712 390.885ZM308.577 385.201C308.139 385.201 307.772 385.361 307.475 385.682C307.179 385.998 306.995 386.443 306.925 387.018H310.1V386.936C310.069 386.385 309.921 385.959 309.655 385.658C309.389 385.354 309.03 385.201 308.577 385.201ZM315.509 385.4C315.345 385.373 315.167 385.359 314.975 385.359C314.264 385.359 313.782 385.662 313.528 386.268V390.768H312.444V384.428H313.499L313.516 385.16C313.872 384.594 314.376 384.311 315.028 384.311C315.239 384.311 315.399 384.338 315.509 384.393V385.4ZM320.202 389.086C320.202 388.793 320.091 388.566 319.868 388.406C319.649 388.242 319.264 388.102 318.714 387.984C318.167 387.867 317.731 387.727 317.407 387.562C317.087 387.398 316.848 387.203 316.692 386.977C316.54 386.75 316.464 386.48 316.464 386.168C316.464 385.648 316.682 385.209 317.12 384.85C317.561 384.49 318.124 384.311 318.807 384.311C319.526 384.311 320.108 384.496 320.554 384.867C321.003 385.238 321.227 385.713 321.227 386.291H320.137C320.137 385.994 320.011 385.738 319.757 385.523C319.507 385.309 319.19 385.201 318.807 385.201C318.413 385.201 318.104 385.287 317.882 385.459C317.659 385.631 317.548 385.855 317.548 386.133C317.548 386.395 317.651 386.592 317.858 386.725C318.065 386.857 318.438 386.984 318.977 387.105C319.52 387.227 319.96 387.371 320.296 387.539C320.632 387.707 320.88 387.91 321.04 388.148C321.204 388.383 321.286 388.67 321.286 389.01C321.286 389.576 321.059 390.031 320.606 390.375C320.153 390.715 319.565 390.885 318.843 390.885C318.335 390.885 317.886 390.795 317.495 390.615C317.104 390.436 316.798 390.186 316.575 389.865C316.356 389.541 316.247 389.191 316.247 388.816H317.331C317.35 389.18 317.495 389.469 317.764 389.684C318.038 389.895 318.397 390 318.843 390C319.253 390 319.581 389.918 319.827 389.754C320.077 389.586 320.202 389.363 320.202 389.086Z" fill="#1F2432"/>
<path d="M237.383 372.639C263.266 372.639 284.364 351.639 284.364 325.635C284.364 299.739 263.375 278.631 237.383 278.631C211.392 278.631 190.402 299.63 190.402 325.635C190.511 351.639 211.5 372.639 237.383 372.639Z" fill="#1F2432"/>
<path d="M237.492 304.2L237.383 304.309L215.415 315.625V318.563H237.383H237.492H259.46V315.625L237.492 304.2Z" fill="#1F2432" stroke="#00DCE6" stroke-miterlimit="10"/>
<path d="M223.137 320.738V338.8" stroke="#00DCE6" stroke-miterlimit="10"/>
<path d="M232.38 320.738V338.8" stroke="#00DCE6" stroke-miterlimit="10"/>
<path d="M259.46 341.412H215.415" stroke="#00DCE6" stroke-miterlimit="10"/>
<path d="M259.46 347.505H215.415" stroke="#00DCE6" stroke-miterlimit="10"/>
<path d="M242.386 320.738V338.8" stroke="#00DCE6" stroke-miterlimit="10"/>
<path d="M251.63 320.738V338.8" stroke="#00DCE6" stroke-miterlimit="10"/>
<path d="M217.373 106.9H214.631V114.506H213.512V106.9H210.775V105.975H217.373V106.9ZM220.514 114.623C219.654 114.623 218.955 114.342 218.416 113.779C217.877 113.213 217.607 112.457 217.607 111.512V111.312C217.607 110.684 217.727 110.123 217.965 109.631C218.207 109.135 218.543 108.748 218.973 108.471C219.406 108.189 219.875 108.049 220.379 108.049C221.203 108.049 221.844 108.32 222.301 108.863C222.758 109.406 222.986 110.184 222.986 111.195V111.646H218.691C218.707 112.271 218.889 112.777 219.236 113.164C219.588 113.547 220.033 113.738 220.572 113.738C220.955 113.738 221.279 113.66 221.545 113.504C221.811 113.348 222.043 113.141 222.242 112.883L222.904 113.398C222.373 114.215 221.576 114.623 220.514 114.623ZM220.379 108.939C219.941 108.939 219.574 109.1 219.277 109.42C218.98 109.736 218.797 110.182 218.727 110.756H221.902V110.674C221.871 110.123 221.723 109.697 221.457 109.396C221.191 109.092 220.832 108.939 220.379 108.939ZM228.16 114.506C228.098 114.381 228.047 114.158 228.008 113.838C227.504 114.361 226.902 114.623 226.203 114.623C225.578 114.623 225.064 114.447 224.662 114.096C224.264 113.74 224.064 113.291 224.064 112.748C224.064 112.088 224.314 111.576 224.814 111.213C225.318 110.846 226.025 110.662 226.936 110.662H227.99V110.164C227.99 109.785 227.877 109.484 227.65 109.262C227.424 109.035 227.09 108.922 226.648 108.922C226.262 108.922 225.938 109.02 225.676 109.215C225.414 109.41 225.283 109.646 225.283 109.924H224.193C224.193 109.607 224.305 109.303 224.527 109.01C224.754 108.713 225.059 108.479 225.441 108.307C225.828 108.135 226.252 108.049 226.713 108.049C227.443 108.049 228.016 108.232 228.43 108.6C228.844 108.963 229.059 109.465 229.074 110.105V113.023C229.074 113.605 229.148 114.068 229.297 114.412V114.506H228.16ZM226.361 113.68C226.701 113.68 227.023 113.592 227.328 113.416C227.633 113.24 227.854 113.012 227.99 112.73V111.43H227.141C225.812 111.43 225.148 111.818 225.148 112.596C225.148 112.936 225.262 113.201 225.488 113.393C225.715 113.584 226.006 113.68 226.361 113.68ZM233.316 113.738C233.703 113.738 234.041 113.621 234.33 113.387C234.619 113.152 234.779 112.859 234.811 112.508H235.836C235.816 112.871 235.691 113.217 235.461 113.545C235.23 113.873 234.922 114.135 234.535 114.33C234.152 114.525 233.746 114.623 233.316 114.623C232.453 114.623 231.766 114.336 231.254 113.762C230.746 113.184 230.492 112.395 230.492 111.395V111.213C230.492 110.596 230.605 110.047 230.832 109.566C231.059 109.086 231.383 108.713 231.805 108.447C232.23 108.182 232.732 108.049 233.311 108.049C234.021 108.049 234.611 108.262 235.08 108.688C235.553 109.113 235.805 109.666 235.836 110.346H234.811C234.779 109.936 234.623 109.6 234.342 109.338C234.064 109.072 233.721 108.939 233.311 108.939C232.76 108.939 232.332 109.139 232.027 109.537C231.727 109.932 231.576 110.504 231.576 111.254V111.459C231.576 112.189 231.727 112.752 232.027 113.146C232.328 113.541 232.758 113.738 233.316 113.738ZM238.139 108.934C238.619 108.344 239.244 108.049 240.014 108.049C241.354 108.049 242.029 108.805 242.041 110.316V114.506H240.957V110.311C240.953 109.854 240.848 109.516 240.641 109.297C240.438 109.078 240.119 108.969 239.686 108.969C239.334 108.969 239.025 109.062 238.76 109.25C238.494 109.438 238.287 109.684 238.139 109.988V114.506H237.055V105.506H238.139V108.934ZM246.295 114.623C245.436 114.623 244.736 114.342 244.197 113.779C243.658 113.213 243.389 112.457 243.389 111.512V111.312C243.389 110.684 243.508 110.123 243.746 109.631C243.988 109.135 244.324 108.748 244.754 108.471C245.188 108.189 245.656 108.049 246.16 108.049C246.984 108.049 247.625 108.32 248.082 108.863C248.539 109.406 248.768 110.184 248.768 111.195V111.646H244.473C244.488 112.271 244.67 112.777 245.018 113.164C245.369 113.547 245.814 113.738 246.354 113.738C246.736 113.738 247.061 113.66 247.326 113.504C247.592 113.348 247.824 113.141 248.023 112.883L248.686 113.398C248.154 114.215 247.357 114.623 246.295 114.623ZM246.16 108.939C245.723 108.939 245.355 109.1 245.059 109.42C244.762 109.736 244.578 110.182 244.508 110.756H247.684V110.674C247.652 110.123 247.504 109.697 247.238 109.396C246.973 109.092 246.613 108.939 246.16 108.939ZM253.092 109.139C252.928 109.111 252.75 109.098 252.559 109.098C251.848 109.098 251.365 109.4 251.111 110.006V114.506H250.027V108.166H251.082L251.1 108.898C251.455 108.332 251.959 108.049 252.611 108.049C252.822 108.049 252.982 108.076 253.092 108.131V109.139ZM257.785 112.824C257.785 112.531 257.674 112.305 257.451 112.145C257.232 111.98 256.848 111.84 256.297 111.723C255.75 111.605 255.314 111.465 254.99 111.301C254.67 111.137 254.432 110.941 254.275 110.715C254.123 110.488 254.047 110.219 254.047 109.906C254.047 109.387 254.266 108.947 254.703 108.588C255.145 108.229 255.707 108.049 256.391 108.049C257.109 108.049 257.691 108.234 258.137 108.605C258.586 108.977 258.811 109.451 258.811 110.029H257.721C257.721 109.732 257.594 109.477 257.34 109.262C257.09 109.047 256.773 108.939 256.391 108.939C255.996 108.939 255.688 109.025 255.465 109.197C255.242 109.369 255.131 109.594 255.131 109.871C255.131 110.133 255.234 110.33 255.441 110.463C255.648 110.596 256.021 110.723 256.561 110.844C257.104 110.965 257.543 111.109 257.879 111.277C258.215 111.445 258.463 111.648 258.623 111.887C258.787 112.121 258.869 112.408 258.869 112.748C258.869 113.314 258.643 113.77 258.189 114.113C257.736 114.453 257.148 114.623 256.426 114.623C255.918 114.623 255.469 114.533 255.078 114.354C254.688 114.174 254.381 113.924 254.158 113.604C253.939 113.279 253.83 112.93 253.83 112.555H254.914C254.934 112.918 255.078 113.207 255.348 113.422C255.621 113.633 255.98 113.738 256.426 113.738C256.836 113.738 257.164 113.656 257.41 113.492C257.66 113.324 257.785 113.102 257.785 112.824Z" fill="#1F2432"/>
<path d="M237.383 94.8319C263.266 94.8319 284.364 73.8324 284.364 47.8279C284.364 21.8233 263.375 0.932617 237.383 0.932617C211.391 0.932617 190.511 21.9321 190.511 47.8279C190.511 73.7236 211.5 94.8319 237.383 94.8319Z" fill="#1F2432"/>
<path d="M250.977 65.9988L246.192 58.8176L254.566 53.3773L257.72 58.2736C257.611 58.6 256.523 59.2528 256.088 59.688C255.436 59.3616 254.457 59.4704 254.24 59.4704C253.913 59.4704 253.043 60.7761 252.935 60.9937C252.826 60.9937 251.738 61.7553 251.738 62.0818C251.847 63.4962 252.935 64.8019 253.696 64.4755C255.762 63.8227 259.677 61.7553 261.635 59.5792C262.614 58.4912 262.831 57.1855 261.852 55.9886L257.394 48.6987C256.088 46.849 251.63 45.9785 249.455 45.9785C247.388 45.9785 242.712 47.0666 241.407 48.6987C240.211 50.2219 237.709 53.7037 236.731 54.5742L233.794 52.9421C233.359 52.0716 234.012 51.7452 233.903 50.9836C233.903 50.6572 231.51 48.5899 231.184 48.5899C229.662 48.2634 228.248 50.9836 228.792 52.0716C229.227 52.9421 229.879 53.8125 230.205 54.1389C235.317 60.2321 235.426 60.7761 237.166 60.8849C238.906 60.9937 242.168 57.7295 242.603 56.9679V66.5428" stroke="#00DCE6" stroke-miterlimit="10"/>
<path d="M249.889 32.8135C252.282 32.8135 254.348 34.2279 254.348 38.3626C254.348 42.3884 252.391 43.9117 249.889 43.9117C247.497 43.9117 245.431 42.4972 245.431 38.3626C245.431 34.2279 247.388 32.8135 249.889 32.8135Z" stroke="#00DCE6" stroke-miterlimit="10"/>
<path d="M230.749 35.751V49.0253" stroke="#00DCE6" stroke-miterlimit="10"/>
<path d="M242.494 64.4755H212.479V26.3936H261.417V55.5535" stroke="#00DCE6" stroke-miterlimit="10"/>
<path d="M597.812 110.562H594.115V113.586H598.41V114.506H592.99V105.975H598.352V106.9H594.115V109.643H597.812V110.562ZM600.66 108.166L600.689 108.869C601.154 108.322 601.781 108.049 602.57 108.049C603.457 108.049 604.061 108.389 604.381 109.068C604.592 108.764 604.865 108.518 605.201 108.33C605.541 108.143 605.941 108.049 606.402 108.049C607.793 108.049 608.5 108.785 608.523 110.258V114.506H607.439V110.322C607.439 109.869 607.336 109.531 607.129 109.309C606.922 109.082 606.574 108.969 606.086 108.969C605.684 108.969 605.35 109.09 605.084 109.332C604.818 109.57 604.664 109.893 604.621 110.299V114.506H603.531V110.352C603.531 109.43 603.08 108.969 602.178 108.969C601.467 108.969 600.98 109.271 600.719 109.877V114.506H599.635V108.166H600.66ZM615.52 111.406C615.52 112.371 615.299 113.148 614.857 113.738C614.416 114.328 613.818 114.623 613.064 114.623C612.295 114.623 611.689 114.379 611.248 113.891V116.943H610.164V108.166H611.154L611.207 108.869C611.648 108.322 612.262 108.049 613.047 108.049C613.809 108.049 614.41 108.336 614.852 108.91C615.297 109.484 615.52 110.283 615.52 111.307V111.406ZM614.436 111.283C614.436 110.568 614.283 110.004 613.979 109.59C613.674 109.176 613.256 108.969 612.725 108.969C612.068 108.969 611.576 109.26 611.248 109.842V112.871C611.572 113.449 612.068 113.738 612.736 113.738C613.256 113.738 613.668 113.533 613.973 113.123C614.281 112.709 614.436 112.096 614.436 111.283ZM618.08 114.506H616.996V105.506H618.08V114.506ZM619.533 111.277C619.533 110.656 619.654 110.098 619.896 109.602C620.143 109.105 620.482 108.723 620.916 108.453C621.354 108.184 621.852 108.049 622.41 108.049C623.273 108.049 623.971 108.348 624.502 108.945C625.037 109.543 625.305 110.338 625.305 111.33V111.406C625.305 112.023 625.186 112.578 624.947 113.07C624.713 113.559 624.375 113.939 623.934 114.213C623.496 114.486 622.992 114.623 622.422 114.623C621.562 114.623 620.865 114.324 620.33 113.727C619.799 113.129 619.533 112.338 619.533 111.354V111.277ZM620.623 111.406C620.623 112.109 620.785 112.674 621.109 113.1C621.438 113.525 621.875 113.738 622.422 113.738C622.973 113.738 623.41 113.523 623.734 113.094C624.059 112.66 624.221 112.055 624.221 111.277C624.221 110.582 624.055 110.02 623.723 109.59C623.395 109.156 622.957 108.939 622.41 108.939C621.875 108.939 621.443 109.152 621.115 109.578C620.787 110.004 620.623 110.613 620.623 111.406ZM628.645 112.918L630.121 108.166H631.281L628.732 115.484C628.338 116.539 627.711 117.066 626.852 117.066L626.646 117.049L626.242 116.973V116.094L626.535 116.117C626.902 116.117 627.188 116.043 627.391 115.895C627.598 115.746 627.768 115.475 627.9 115.08L628.141 114.436L625.879 108.166H627.062L628.645 112.918ZM634.803 114.623C633.943 114.623 633.244 114.342 632.705 113.779C632.166 113.213 631.896 112.457 631.896 111.512V111.312C631.896 110.684 632.016 110.123 632.254 109.631C632.496 109.135 632.832 108.748 633.262 108.471C633.695 108.189 634.164 108.049 634.668 108.049C635.492 108.049 636.133 108.32 636.59 108.863C637.047 109.406 637.275 110.184 637.275 111.195V111.646H632.98C632.996 112.271 633.178 112.777 633.525 113.164C633.877 113.547 634.322 113.738 634.861 113.738C635.244 113.738 635.568 113.66 635.834 113.504C636.1 113.348 636.332 113.141 636.531 112.883L637.193 113.398C636.662 114.215 635.865 114.623 634.803 114.623ZM634.668 108.939C634.23 108.939 633.863 109.1 633.566 109.42C633.27 109.736 633.086 110.182 633.016 110.756H636.191V110.674C636.16 110.123 636.012 109.697 635.746 109.396C635.48 109.092 635.121 108.939 634.668 108.939ZM641.6 109.139C641.436 109.111 641.258 109.098 641.066 109.098C640.355 109.098 639.873 109.4 639.619 110.006V114.506H638.535V108.166H639.59L639.607 108.898C639.963 108.332 640.467 108.049 641.119 108.049C641.33 108.049 641.49 108.076 641.6 108.131V109.139ZM646.293 112.824C646.293 112.531 646.182 112.305 645.959 112.145C645.74 111.98 645.355 111.84 644.805 111.723C644.258 111.605 643.822 111.465 643.498 111.301C643.178 111.137 642.939 110.941 642.783 110.715C642.631 110.488 642.555 110.219 642.555 109.906C642.555 109.387 642.773 108.947 643.211 108.588C643.652 108.229 644.215 108.049 644.898 108.049C645.617 108.049 646.199 108.234 646.645 108.605C647.094 108.977 647.318 109.451 647.318 110.029H646.229C646.229 109.732 646.102 109.477 645.848 109.262C645.598 109.047 645.281 108.939 644.898 108.939C644.504 108.939 644.195 109.025 643.973 109.197C643.75 109.369 643.639 109.594 643.639 109.871C643.639 110.133 643.742 110.33 643.949 110.463C644.156 110.596 644.529 110.723 645.068 110.844C645.611 110.965 646.051 111.109 646.387 111.277C646.723 111.445 646.971 111.648 647.131 111.887C647.295 112.121 647.377 112.408 647.377 112.748C647.377 113.314 647.15 113.77 646.697 114.113C646.244 114.453 645.656 114.623 644.934 114.623C644.426 114.623 643.977 114.533 643.586 114.354C643.195 114.174 642.889 113.924 642.666 113.604C642.447 113.279 642.338 112.93 642.338 112.555H643.422C643.441 112.918 643.586 113.207 643.855 113.422C644.129 113.633 644.488 113.738 644.934 113.738C645.344 113.738 645.672 113.656 645.918 113.492C646.168 113.324 646.293 113.102 646.293 112.824Z" fill="#1F2432"/>
<path d="M622.584 94.8319C648.467 94.8319 669.565 73.8324 669.565 47.8279C669.565 21.8233 648.576 0.932617 622.584 0.932617C596.701 0.932617 575.604 21.9321 575.604 47.9367C575.604 73.9412 596.701 94.8319 622.584 94.8319Z" fill="#1F2432"/>
<path d="M642.813 53.3769V45.6517C642.813 42.1699 640.421 40.8643 638.028 40.8643H630.307C627.805 40.8643 625.521 42.2787 625.521 45.6517V53.3769" fill="#1F2432"/>
<path d="M642.813 53.3769V45.6517C642.813 42.1699 640.421 40.8643 638.028 40.8643H630.307C627.805 40.8643 625.521 42.2787 625.521 45.6517V53.3769" stroke="#00DCE6" stroke-miterlimit="10" stroke-linejoin="round"/>
<path d="M639.006 52.3983V45.6523" stroke="#00DCE6" stroke-miterlimit="10" stroke-linejoin="round"/>
<path d="M629.327 45.6523V52.3983" stroke="#00DCE6" stroke-miterlimit="10" stroke-linejoin="round"/>
<path d="M599.529 53.377H604.314" stroke="#00DCE6" stroke-miterlimit="10" stroke-linejoin="round"/>
<path d="M621.715 53.377H645.749" stroke="#00DCE6" stroke-miterlimit="10" stroke-linejoin="round"/>
<path d="M634.222 36.947C636.505 36.947 638.028 35.4237 638.028 33.1388V31.1803C638.028 28.8953 636.397 27.3721 634.222 27.3721C631.938 27.3721 630.415 28.8953 630.415 31.1803V33.1388C630.307 35.4237 631.938 36.947 634.222 36.947Z" fill="#1F2432" stroke="#00DCE6" stroke-miterlimit="10" stroke-linejoin="round"/>
<path d="M617.8 57.1858C619.866 56.8594 621.606 56.3154 621.606 53.3776V44.6732C621.606 41.1914 619.213 39.8857 616.821 39.8857H609.1C606.598 39.8857 604.314 41.3002 604.314 44.6732V53.3776C604.314 56.3154 606.054 56.8594 608.121 57.1858" fill="#1F2432"/>
<path d="M617.8 57.1858C619.866 56.8594 621.606 56.3154 621.606 53.3776V44.6732C621.606 41.1914 619.213 39.8857 616.821 39.8857H609.1C606.598 39.8857 604.314 41.3002 604.314 44.6732V53.3776C604.314 56.3154 606.054 56.8594 608.121 57.1858" stroke="#00DCE6" stroke-miterlimit="10" stroke-linejoin="round"/>
<path d="M617.908 44.6729H608.229V61.1025H617.908V44.6729Z" fill="#1F2432" stroke="#00DCE6" stroke-miterlimit="10" stroke-linejoin="round"/>
<path d="M613.015 35.9684C615.298 35.9684 616.821 34.4452 616.821 32.1603V30.2018C616.821 27.9168 615.19 26.3936 613.015 26.3936C610.731 26.3936 609.208 27.9168 609.208 30.2018V32.1603C609.1 34.4452 610.731 35.9684 613.015 35.9684Z" fill="#1F2432" stroke="#00DCE6" stroke-miterlimit="10" stroke-linejoin="round"/>
<path d="M643.791 55.2275V68.7195" stroke="#00DCE6" stroke-miterlimit="10" stroke-linejoin="round"/>
<path d="M601.486 55.2275V68.7195" stroke="#00DCE6" stroke-miterlimit="10" stroke-linejoin="round"/>
<path d="M613.015 61.1025V67.8485" stroke="#00DCE6" stroke-miterlimit="10" stroke-linejoin="round"/>
<path d="M607.251 67.8486H618.779" stroke="#00DCE6" stroke-miterlimit="10" stroke-linejoin="round"/>
<path d="M361.523 112.279H357.949L357.146 114.506H355.986L359.244 105.975H360.228L363.492 114.506H362.338L361.523 112.279ZM358.289 111.354H361.189L359.736 107.363L358.289 111.354ZM367.013 113.738C367.4 113.738 367.738 113.621 368.027 113.387C368.316 113.152 368.476 112.859 368.508 112.508H369.533C369.513 112.871 369.388 113.217 369.158 113.545C368.928 113.873 368.619 114.135 368.232 114.33C367.849 114.525 367.443 114.623 367.013 114.623C366.15 114.623 365.463 114.336 364.951 113.762C364.443 113.184 364.189 112.395 364.189 111.395V111.213C364.189 110.596 364.303 110.047 364.529 109.566C364.756 109.086 365.08 108.713 365.502 108.447C365.928 108.182 366.429 108.049 367.008 108.049C367.719 108.049 368.308 108.262 368.777 108.688C369.25 109.113 369.502 109.666 369.533 110.346H368.508C368.476 109.936 368.32 109.6 368.039 109.338C367.762 109.072 367.418 108.939 367.008 108.939C366.457 108.939 366.029 109.139 365.724 109.537C365.424 109.932 365.273 110.504 365.273 111.254V111.459C365.273 112.189 365.424 112.752 365.724 113.146C366.025 113.541 366.455 113.738 367.013 113.738ZM373.295 113.738C373.681 113.738 374.019 113.621 374.308 113.387C374.597 113.152 374.758 112.859 374.789 112.508H375.814C375.795 112.871 375.67 113.217 375.439 113.545C375.209 113.873 374.9 114.135 374.513 114.33C374.131 114.525 373.724 114.623 373.295 114.623C372.431 114.623 371.744 114.336 371.232 113.762C370.724 113.184 370.471 112.395 370.471 111.395V111.213C370.471 110.596 370.584 110.047 370.81 109.566C371.037 109.086 371.361 108.713 371.783 108.447C372.209 108.182 372.711 108.049 373.289 108.049C374 108.049 374.59 108.262 375.058 108.688C375.531 109.113 375.783 109.666 375.814 110.346H374.789C374.758 109.936 374.601 109.6 374.32 109.338C374.043 109.072 373.699 108.939 373.289 108.939C372.738 108.939 372.31 109.139 372.006 109.537C371.705 109.932 371.554 110.504 371.554 111.254V111.459C371.554 112.189 371.705 112.752 372.006 113.146C372.306 113.541 372.736 113.738 373.295 113.738ZM380.097 109.139C379.933 109.111 379.756 109.098 379.564 109.098C378.853 109.098 378.371 109.4 378.117 110.006V114.506H377.033V108.166H378.088L378.105 108.898C378.461 108.332 378.965 108.049 379.617 108.049C379.828 108.049 379.988 108.076 380.097 108.131V109.139ZM383.613 114.623C382.754 114.623 382.054 114.342 381.515 113.779C380.976 113.213 380.707 112.457 380.707 111.512V111.312C380.707 110.684 380.826 110.123 381.064 109.631C381.306 109.135 381.642 108.748 382.072 108.471C382.506 108.189 382.974 108.049 383.478 108.049C384.303 108.049 384.943 108.32 385.4 108.863C385.857 109.406 386.086 110.184 386.086 111.195V111.646H381.791C381.806 112.271 381.988 112.777 382.336 113.164C382.687 113.547 383.133 113.738 383.672 113.738C384.054 113.738 384.379 113.66 384.644 113.504C384.91 113.348 385.142 113.141 385.342 112.883L386.004 113.398C385.472 114.215 384.676 114.623 383.613 114.623ZM383.478 108.939C383.041 108.939 382.674 109.1 382.377 109.42C382.08 109.736 381.896 110.182 381.826 110.756H385.002V110.674C384.971 110.123 384.822 109.697 384.556 109.396C384.291 109.092 383.931 108.939 383.478 108.939ZM387.082 111.283C387.082 110.311 387.312 109.529 387.773 108.939C388.234 108.346 388.838 108.049 389.584 108.049C390.326 108.049 390.914 108.303 391.347 108.811V105.506H392.431V114.506H391.435L391.383 113.826C390.949 114.357 390.346 114.623 389.572 114.623C388.838 114.623 388.238 114.322 387.773 113.721C387.312 113.119 387.082 112.334 387.082 111.365V111.283ZM388.166 111.406C388.166 112.125 388.314 112.688 388.611 113.094C388.908 113.5 389.318 113.703 389.842 113.703C390.529 113.703 391.031 113.395 391.347 112.777V109.865C391.023 109.268 390.525 108.969 389.853 108.969C389.322 108.969 388.908 109.174 388.611 109.584C388.314 109.994 388.166 110.602 388.166 111.406ZM395.297 114.506H394.213V108.166H395.297V114.506ZM394.125 106.484C394.125 106.309 394.178 106.16 394.283 106.039C394.392 105.918 394.553 105.857 394.763 105.857C394.974 105.857 395.135 105.918 395.244 106.039C395.353 106.16 395.408 106.309 395.408 106.484C395.408 106.66 395.353 106.807 395.244 106.924C395.135 107.041 394.974 107.1 394.763 107.1C394.553 107.1 394.392 107.041 394.283 106.924C394.178 106.807 394.125 106.66 394.125 106.484ZM398.508 106.631V108.166H399.691V109.004H398.508V112.936C398.508 113.189 398.56 113.381 398.666 113.51C398.771 113.635 398.951 113.697 399.205 113.697C399.33 113.697 399.502 113.674 399.721 113.627V114.506C399.435 114.584 399.158 114.623 398.888 114.623C398.404 114.623 398.039 114.477 397.793 114.184C397.547 113.891 397.424 113.475 397.424 112.936V109.004H396.269V108.166H397.424V106.631H398.508ZM400.558 111.277C400.558 110.656 400.679 110.098 400.922 109.602C401.168 109.105 401.508 108.723 401.941 108.453C402.379 108.184 402.877 108.049 403.435 108.049C404.299 108.049 404.996 108.348 405.527 108.945C406.062 109.543 406.33 110.338 406.33 111.33V111.406C406.33 112.023 406.211 112.578 405.972 113.07C405.738 113.559 405.4 113.939 404.959 114.213C404.521 114.486 404.017 114.623 403.447 114.623C402.588 114.623 401.89 114.324 401.355 113.727C400.824 113.129 400.558 112.338 400.558 111.354V111.277ZM401.648 111.406C401.648 112.109 401.81 112.674 402.135 113.1C402.463 113.525 402.9 113.738 403.447 113.738C403.998 113.738 404.435 113.523 404.76 113.094C405.084 112.66 405.246 112.055 405.246 111.277C405.246 110.582 405.08 110.02 404.748 109.59C404.42 109.156 403.982 108.939 403.435 108.939C402.9 108.939 402.469 109.152 402.14 109.578C401.812 110.004 401.648 110.613 401.648 111.406ZM410.754 109.139C410.59 109.111 410.412 109.098 410.221 109.098C409.51 109.098 409.027 109.4 408.773 110.006V114.506H407.689V108.166H408.744L408.762 108.898C409.117 108.332 409.621 108.049 410.273 108.049C410.484 108.049 410.644 108.076 410.754 108.131V109.139ZM415.447 112.824C415.447 112.531 415.336 112.305 415.113 112.145C414.894 111.98 414.51 111.84 413.959 111.723C413.412 111.605 412.976 111.465 412.652 111.301C412.332 111.137 412.094 110.941 411.937 110.715C411.785 110.488 411.709 110.219 411.709 109.906C411.709 109.387 411.928 108.947 412.365 108.588C412.806 108.229 413.369 108.049 414.053 108.049C414.771 108.049 415.353 108.234 415.799 108.605C416.248 108.977 416.472 109.451 416.472 110.029H415.383C415.383 109.732 415.256 109.477 415.002 109.262C414.752 109.047 414.435 108.939 414.053 108.939C413.658 108.939 413.349 109.025 413.127 109.197C412.904 109.369 412.793 109.594 412.793 109.871C412.793 110.133 412.896 110.33 413.103 110.463C413.31 110.596 413.683 110.723 414.222 110.844C414.765 110.965 415.205 111.109 415.541 111.277C415.877 111.445 416.125 111.648 416.285 111.887C416.449 112.121 416.531 112.408 416.531 112.748C416.531 113.314 416.304 113.77 415.851 114.113C415.398 114.453 414.81 114.623 414.088 114.623C413.58 114.623 413.131 114.533 412.74 114.354C412.349 114.174 412.043 113.924 411.82 113.604C411.601 113.279 411.492 112.93 411.492 112.555H412.576C412.596 112.918 412.74 113.207 413.01 113.422C413.283 113.633 413.642 113.738 414.088 113.738C414.498 113.738 414.826 113.656 415.072 113.492C415.322 113.324 415.447 113.102 415.447 112.824ZM417.908 116.205L417.293 115.783C417.66 115.271 417.851 114.744 417.867 114.201V113.223H418.928V114.072C418.928 114.467 418.83 114.861 418.635 115.256C418.443 115.65 418.201 115.967 417.908 116.205ZM425.367 113.035L426.937 108.166H428.045L425.771 114.506H424.945L422.648 108.166H423.756L425.367 113.035ZM432.908 114.506C432.846 114.381 432.795 114.158 432.756 113.838C432.252 114.361 431.65 114.623 430.951 114.623C430.326 114.623 429.812 114.447 429.41 114.096C429.012 113.74 428.812 113.291 428.812 112.748C428.812 112.088 429.062 111.576 429.562 111.213C430.066 110.846 430.773 110.662 431.683 110.662H432.738V110.164C432.738 109.785 432.625 109.484 432.398 109.262C432.172 109.035 431.838 108.922 431.396 108.922C431.01 108.922 430.685 109.02 430.424 109.215C430.162 109.41 430.031 109.646 430.031 109.924H428.941C428.941 109.607 429.053 109.303 429.275 109.01C429.502 108.713 429.806 108.479 430.189 108.307C430.576 108.135 431 108.049 431.461 108.049C432.191 108.049 432.763 108.232 433.178 108.6C433.592 108.963 433.806 109.465 433.822 110.105V113.023C433.822 113.605 433.896 114.068 434.045 114.412V114.506H432.908ZM431.109 113.68C431.449 113.68 431.771 113.592 432.076 113.416C432.381 113.24 432.601 113.012 432.738 112.73V111.43H431.888C430.56 111.43 429.896 111.818 429.896 112.596C429.896 112.936 430.01 113.201 430.236 113.393C430.463 113.584 430.754 113.68 431.109 113.68ZM436.699 114.506H435.615V105.506H436.699V114.506ZM439.617 114.506H438.533V108.166H439.617V114.506ZM438.445 106.484C438.445 106.309 438.498 106.16 438.603 106.039C438.713 105.918 438.873 105.857 439.084 105.857C439.295 105.857 439.455 105.918 439.564 106.039C439.674 106.16 439.728 106.309 439.728 106.484C439.728 106.66 439.674 106.807 439.564 106.924C439.455 107.041 439.295 107.1 439.084 107.1C438.873 107.1 438.713 107.041 438.603 106.924C438.498 106.807 438.445 106.66 438.445 106.484ZM441.094 111.283C441.094 110.311 441.324 109.529 441.785 108.939C442.246 108.346 442.849 108.049 443.596 108.049C444.338 108.049 444.926 108.303 445.359 108.811V105.506H446.443V114.506H445.447L445.394 113.826C444.961 114.357 444.357 114.623 443.584 114.623C442.849 114.623 442.25 114.322 441.785 113.721C441.324 113.119 441.094 112.334 441.094 111.365V111.283ZM442.178 111.406C442.178 112.125 442.326 112.688 442.623 113.094C442.92 113.5 443.33 113.703 443.853 113.703C444.541 113.703 445.043 113.395 445.359 112.777V109.865C445.035 109.268 444.537 108.969 443.865 108.969C443.334 108.969 442.92 109.174 442.623 109.584C442.326 109.994 442.178 110.602 442.178 111.406ZM452.045 114.506C451.982 114.381 451.931 114.158 451.892 113.838C451.388 114.361 450.787 114.623 450.088 114.623C449.463 114.623 448.949 114.447 448.547 114.096C448.148 113.74 447.949 113.291 447.949 112.748C447.949 112.088 448.199 111.576 448.699 111.213C449.203 110.846 449.91 110.662 450.82 110.662H451.875V110.164C451.875 109.785 451.762 109.484 451.535 109.262C451.308 109.035 450.974 108.922 450.533 108.922C450.146 108.922 449.822 109.02 449.56 109.215C449.299 109.41 449.168 109.646 449.168 109.924H448.078C448.078 109.607 448.189 109.303 448.412 109.01C448.638 108.713 448.943 108.479 449.326 108.307C449.713 108.135 450.137 108.049 450.597 108.049C451.328 108.049 451.9 108.232 452.314 108.6C452.728 108.963 452.943 109.465 452.959 110.105V113.023C452.959 113.605 453.033 114.068 453.181 114.412V114.506H452.045ZM450.246 113.68C450.586 113.68 450.908 113.592 451.213 113.416C451.517 113.24 451.738 113.012 451.875 112.73V111.43H451.025C449.697 111.43 449.033 111.818 449.033 112.596C449.033 112.936 449.146 113.201 449.373 113.393C449.599 113.584 449.89 113.68 450.246 113.68ZM456.129 106.631V108.166H457.312V109.004H456.129V112.936C456.129 113.189 456.181 113.381 456.287 113.51C456.392 113.635 456.572 113.697 456.826 113.697C456.951 113.697 457.123 113.674 457.342 113.627V114.506C457.056 114.584 456.779 114.623 456.51 114.623C456.025 114.623 455.66 114.477 455.414 114.184C455.168 113.891 455.045 113.475 455.045 112.936V109.004H453.89V108.166H455.045V106.631H456.129ZM458.179 111.277C458.179 110.656 458.301 110.098 458.543 109.602C458.789 109.105 459.129 108.723 459.562 108.453C460 108.184 460.498 108.049 461.056 108.049C461.92 108.049 462.617 108.348 463.148 108.945C463.683 109.543 463.951 110.338 463.951 111.33V111.406C463.951 112.023 463.832 112.578 463.594 113.07C463.359 113.559 463.021 113.939 462.58 114.213C462.142 114.486 461.638 114.623 461.068 114.623C460.209 114.623 459.512 114.324 458.976 113.727C458.445 113.129 458.179 112.338 458.179 111.354V111.277ZM459.269 111.406C459.269 112.109 459.431 112.674 459.756 113.1C460.084 113.525 460.521 113.738 461.068 113.738C461.619 113.738 462.056 113.523 462.381 113.094C462.705 112.66 462.867 112.055 462.867 111.277C462.867 110.582 462.701 110.02 462.369 109.59C462.041 109.156 461.603 108.939 461.056 108.939C460.521 108.939 460.09 109.152 459.762 109.578C459.433 110.004 459.269 110.613 459.269 111.406ZM468.375 109.139C468.211 109.111 468.033 109.098 467.842 109.098C467.131 109.098 466.648 109.4 466.394 110.006V114.506H465.31V108.166H466.365L466.383 108.898C466.738 108.332 467.242 108.049 467.894 108.049C468.105 108.049 468.265 108.076 468.375 108.131V109.139ZM473.068 112.824C473.068 112.531 472.957 112.305 472.734 112.145C472.515 111.98 472.131 111.84 471.58 111.723C471.033 111.605 470.597 111.465 470.273 111.301C469.953 111.137 469.715 110.941 469.558 110.715C469.406 110.488 469.33 110.219 469.33 109.906C469.33 109.387 469.549 108.947 469.986 108.588C470.428 108.229 470.99 108.049 471.674 108.049C472.392 108.049 472.974 108.234 473.42 108.605C473.869 108.977 474.094 109.451 474.094 110.029H473.004C473.004 109.732 472.877 109.477 472.623 109.262C472.373 109.047 472.056 108.939 471.674 108.939C471.279 108.939 470.971 109.025 470.748 109.197C470.525 109.369 470.414 109.594 470.414 109.871C470.414 110.133 470.517 110.33 470.724 110.463C470.931 110.596 471.304 110.723 471.844 110.844C472.387 110.965 472.826 111.109 473.162 111.277C473.498 111.445 473.746 111.648 473.906 111.887C474.07 112.121 474.152 112.408 474.152 112.748C474.152 113.314 473.926 113.77 473.472 114.113C473.019 114.453 472.431 114.623 471.709 114.623C471.201 114.623 470.752 114.533 470.361 114.354C469.971 114.174 469.664 113.924 469.441 113.604C469.222 113.279 469.113 112.93 469.113 112.555H470.197C470.217 112.918 470.361 113.207 470.631 113.422C470.904 113.633 471.263 113.738 471.709 113.738C472.119 113.738 472.447 113.656 472.693 113.492C472.943 113.324 473.068 113.102 473.068 112.824ZM478.312 112.215C478.312 111.805 478.426 111.428 478.652 111.084C478.883 110.74 479.32 110.34 479.965 109.883C479.586 109.422 479.332 109.051 479.203 108.77C479.074 108.488 479.01 108.209 479.01 107.932C479.01 107.283 479.201 106.775 479.584 106.408C479.967 106.041 480.486 105.857 481.142 105.857C481.728 105.857 482.213 106.029 482.596 106.373C482.978 106.713 483.17 107.143 483.17 107.662C483.17 108.006 483.082 108.324 482.906 108.617C482.734 108.906 482.431 109.211 481.998 109.531L481.371 109.994L483.269 112.262C483.535 111.754 483.668 111.189 483.668 110.568H484.646C484.646 111.564 484.406 112.391 483.926 113.047L485.144 114.506H483.844L483.275 113.832C482.986 114.09 482.646 114.287 482.256 114.424C481.869 114.557 481.474 114.623 481.072 114.623C480.24 114.623 479.572 114.402 479.068 113.961C478.564 113.52 478.312 112.938 478.312 112.215ZM481.072 113.738C481.646 113.738 482.172 113.52 482.648 113.082L480.568 110.592L480.375 110.732C479.722 111.213 479.396 111.707 479.396 112.215C479.396 112.676 479.545 113.045 479.842 113.322C480.142 113.6 480.553 113.738 481.072 113.738ZM480.094 107.896C480.094 108.271 480.324 108.74 480.785 109.303L481.476 108.816C481.742 108.629 481.924 108.451 482.021 108.283C482.119 108.111 482.168 107.904 482.168 107.662C482.168 107.4 482.07 107.184 481.875 107.012C481.679 106.836 481.433 106.748 481.137 106.748C480.816 106.748 480.562 106.857 480.375 107.076C480.187 107.291 480.094 107.564 480.094 107.896ZM490.453 106.631V108.166H491.637V109.004H490.453V112.936C490.453 113.189 490.506 113.381 490.611 113.51C490.717 113.635 490.896 113.697 491.15 113.697C491.275 113.697 491.447 113.674 491.666 113.627V114.506C491.381 114.584 491.103 114.623 490.834 114.623C490.349 114.623 489.984 114.477 489.738 114.184C489.492 113.891 489.369 113.475 489.369 112.936V109.004H488.215V108.166H489.369V106.631H490.453ZM495.539 114.623C494.679 114.623 493.98 114.342 493.441 113.779C492.902 113.213 492.633 112.457 492.633 111.512V111.312C492.633 110.684 492.752 110.123 492.99 109.631C493.232 109.135 493.568 108.748 493.998 108.471C494.431 108.189 494.9 108.049 495.404 108.049C496.228 108.049 496.869 108.32 497.326 108.863C497.783 109.406 498.012 110.184 498.012 111.195V111.646H493.717C493.732 112.271 493.914 112.777 494.262 113.164C494.613 113.547 495.058 113.738 495.597 113.738C495.98 113.738 496.304 113.66 496.57 113.504C496.836 113.348 497.068 113.141 497.267 112.883L497.929 113.398C497.398 114.215 496.601 114.623 495.539 114.623ZM495.404 108.939C494.967 108.939 494.599 109.1 494.303 109.42C494.006 109.736 493.822 110.182 493.752 110.756H496.928V110.674C496.896 110.123 496.748 109.697 496.482 109.396C496.217 109.092 495.857 108.939 495.404 108.939ZM502.963 112.824C502.963 112.531 502.851 112.305 502.629 112.145C502.41 111.98 502.025 111.84 501.474 111.723C500.928 111.605 500.492 111.465 500.168 111.301C499.847 111.137 499.609 110.941 499.453 110.715C499.301 110.488 499.224 110.219 499.224 109.906C499.224 109.387 499.443 108.947 499.881 108.588C500.322 108.229 500.885 108.049 501.568 108.049C502.287 108.049 502.869 108.234 503.314 108.605C503.763 108.977 503.988 109.451 503.988 110.029H502.898C502.898 109.732 502.771 109.477 502.517 109.262C502.267 109.047 501.951 108.939 501.568 108.939C501.174 108.939 500.865 109.025 500.642 109.197C500.42 109.369 500.308 109.594 500.308 109.871C500.308 110.133 500.412 110.33 500.619 110.463C500.826 110.596 501.199 110.723 501.738 110.844C502.281 110.965 502.721 111.109 503.056 111.277C503.392 111.445 503.64 111.648 503.801 111.887C503.965 112.121 504.047 112.408 504.047 112.748C504.047 113.314 503.82 113.77 503.367 114.113C502.914 114.453 502.326 114.623 501.603 114.623C501.096 114.623 500.646 114.533 500.256 114.354C499.865 114.174 499.558 113.924 499.336 113.604C499.117 113.279 499.008 112.93 499.008 112.555H500.092C500.111 112.918 500.256 113.207 500.525 113.422C500.799 113.633 501.158 113.738 501.603 113.738C502.013 113.738 502.342 113.656 502.588 113.492C502.838 113.324 502.963 113.102 502.963 112.824ZM506.929 106.631V108.166H508.113V109.004H506.929V112.936C506.929 113.189 506.982 113.381 507.088 113.51C507.193 113.635 507.373 113.697 507.627 113.697C507.752 113.697 507.924 113.674 508.142 113.627V114.506C507.857 114.584 507.58 114.623 507.31 114.623C506.826 114.623 506.461 114.477 506.215 114.184C505.969 113.891 505.846 113.475 505.846 112.936V109.004H504.691V108.166H505.846V106.631H506.929ZM512.015 114.623C511.156 114.623 510.457 114.342 509.918 113.779C509.379 113.213 509.109 112.457 509.109 111.512V111.312C509.109 110.684 509.228 110.123 509.467 109.631C509.709 109.135 510.045 108.748 510.474 108.471C510.908 108.189 511.377 108.049 511.881 108.049C512.705 108.049 513.346 108.32 513.803 108.863C514.26 109.406 514.488 110.184 514.488 111.195V111.646H510.193C510.209 112.271 510.39 112.777 510.738 113.164C511.09 113.547 511.535 113.738 512.074 113.738C512.457 113.738 512.781 113.66 513.047 113.504C513.312 113.348 513.545 113.141 513.744 112.883L514.406 113.398C513.875 114.215 513.078 114.623 512.015 114.623ZM511.881 108.939C511.443 108.939 511.076 109.1 510.779 109.42C510.482 109.736 510.299 110.182 510.228 110.756H513.404V110.674C513.373 110.123 513.224 109.697 512.959 109.396C512.693 109.092 512.334 108.939 511.881 108.939ZM518.812 109.139C518.648 109.111 518.471 109.098 518.279 109.098C517.568 109.098 517.086 109.4 516.832 110.006V114.506H515.748V108.166H516.803L516.82 108.898C517.176 108.332 517.679 108.049 518.332 108.049C518.543 108.049 518.703 108.076 518.812 108.131V109.139ZM523.506 112.824C523.506 112.531 523.394 112.305 523.172 112.145C522.953 111.98 522.568 111.84 522.017 111.723C521.471 111.605 521.035 111.465 520.711 111.301C520.39 111.137 520.152 110.941 519.996 110.715C519.844 110.488 519.767 110.219 519.767 109.906C519.767 109.387 519.986 108.947 520.424 108.588C520.865 108.229 521.428 108.049 522.111 108.049C522.83 108.049 523.412 108.234 523.857 108.605C524.306 108.977 524.531 109.451 524.531 110.029H523.441C523.441 109.732 523.314 109.477 523.06 109.262C522.81 109.047 522.494 108.939 522.111 108.939C521.717 108.939 521.408 109.025 521.185 109.197C520.963 109.369 520.851 109.594 520.851 109.871C520.851 110.133 520.955 110.33 521.162 110.463C521.369 110.596 521.742 110.723 522.281 110.844C522.824 110.965 523.263 111.109 523.599 111.277C523.935 111.445 524.183 111.648 524.344 111.887C524.508 112.121 524.59 112.408 524.59 112.748C524.59 113.314 524.363 113.77 523.91 114.113C523.457 114.453 522.869 114.623 522.146 114.623C521.638 114.623 521.189 114.533 520.799 114.354C520.408 114.174 520.101 113.924 519.879 113.604C519.66 113.279 519.551 112.93 519.551 112.555H520.635C520.654 112.918 520.799 113.207 521.068 113.422C521.342 113.633 521.701 113.738 522.146 113.738C522.556 113.738 522.885 113.656 523.131 113.492C523.381 113.324 523.506 113.102 523.506 112.824Z" fill="#1F2432"/>
<path d="M440.568 94.8319C466.451 94.8319 487.549 73.8324 487.549 47.8279C487.549 21.8233 466.451 0.932617 440.568 0.932617C414.685 0.932617 393.587 21.9321 393.587 47.9367C393.587 73.9412 414.576 94.8319 440.568 94.8319Z" fill="#1F2432"/>
<path d="M440.568 26.3936L418.491 37.8181V40.6471H440.568H462.536V37.8181L440.568 26.3936Z" fill="#1F2432" stroke="#00DCE6" stroke-miterlimit="10"/>
<path d="M426.321 42.8232V60.885" stroke="#00DCE6" stroke-miterlimit="10"/>
<path d="M435.457 42.8232V60.885" stroke="#00DCE6" stroke-miterlimit="10"/>
<path d="M462.645 63.4961H418.491" stroke="#00DCE6" stroke-miterlimit="10"/>
<path d="M462.645 69.6982H418.491" stroke="#00DCE6" stroke-miterlimit="10"/>
<path d="M445.462 42.8232V60.885" stroke="#00DCE6" stroke-miterlimit="10"/>
<path d="M454.706 42.8232V60.885" stroke="#00DCE6" stroke-miterlimit="10"/>
<path d="M47.0669 94.8319C72.95 94.8319 93.9391 73.8324 93.9391 47.8279C93.9391 21.8233 72.95 0.932617 47.0669 0.932617C21.1839 0.932617 0.0859375 21.9321 0.0859375 47.8279C0.0859375 73.7236 21.0751 94.8319 47.0669 94.8319Z" fill="#1F2432"/>
<path d="M41.1938 48.4814V51.8544H40.3238L37.8225 54.357L33.5812 56.3155C31.2974 56.8595 29.3398 58.6004 29.3398 60.2325V70.3514" fill="#1F2432"/>
<path d="M41.1938 48.4814V51.8544H40.3238L37.8225 54.357L33.5812 56.3155C31.2974 56.8595 29.3398 58.6004 29.3398 60.2325V70.3514" stroke="#00DCE6" stroke-miterlimit="10"/>
<path d="M54.7874 34.01V35.7508L56.5275 36.6213V39.9943C56.5275 40.5383 56.2012 41.0823 55.7662 41.4087L54.7874 42.6056C54.7874 42.6056 54.7874 43.9113 54.7874 44.3465C54.7874 47.6107 50.4373 49.0251 49.6761 49.4604C48.9148 49.8956 47.6098 50.3308 46.3047 50.3308C44.9997 50.3308 43.6947 49.8956 42.9334 49.4604C42.1722 49.1339 37.8221 47.6107 37.8221 44.3465C37.8221 43.9113 37.8221 42.6056 37.8221 42.6056L36.8433 41.4087C36.4083 41.0823 36.082 40.5383 36.082 39.9943V36.6213L37.8221 35.7508V34.01C37.8221 29.7665 41.1934 26.3936 45.4347 26.3936H47.1748C51.3073 26.3936 54.7874 29.7665 54.7874 34.01Z" fill="#1F2432" stroke="#00DCE6" stroke-miterlimit="10"/>
<path d="M41.1943 51.8545L46.1969 56.0979" stroke="#00DCE6" stroke-miterlimit="10"/>
<path d="M46.1966 56.0979L41.9552 59.4709L37.7139 54.4658" fill="#1F2432"/>
<path d="M46.1966 56.0979L41.9552 59.4709L37.7139 54.4658" stroke="#00DCE6" stroke-miterlimit="10"/>
<path d="M51.3076 48.4814V51.8544H52.1776L54.6789 54.357L58.9203 56.3155C61.2041 56.8595 63.1616 58.6004 63.1616 60.2325V70.3514" fill="#1F2432"/>
<path d="M51.3076 48.4814V51.8544H52.1776L54.6789 54.357L58.9203 56.3155C61.2041 56.8595 63.1616 58.6004 63.1616 60.2325V70.3514" stroke="#00DCE6" stroke-miterlimit="10"/>
<path d="M51.3076 51.8545L46.1963 56.0979" stroke="#00DCE6" stroke-miterlimit="10"/>
<path d="M46.1963 56.0979L50.5464 59.4709L54.7877 54.4658" fill="#1F2432"/>
<path d="M46.1963 56.0979L50.5464 59.4709L54.7877 54.4658" stroke="#00DCE6" stroke-miterlimit="10"/>
<path d="M48.8067 57.8389L47.9367 62.0823H44.5653L43.6953 57.8389" fill="#1F2432"/>
<path d="M48.8067 57.8389L47.9367 62.0823H44.5653L43.6953 57.8389" stroke="#00DCE6" stroke-miterlimit="10"/>
<path d="M48.8067 69.6984L47.9367 62.082H44.5653L43.6953 69.6984" fill="#1F2432"/>
<path d="M48.8067 69.6984L47.9367 62.082H44.5653L43.6953 69.6984" stroke="#00DCE6" stroke-miterlimit="10"/>
<path d="M27.2324 111.197C26.2676 110.92 25.5645 110.58 25.123 110.178C24.6855 109.771 24.4668 109.271 24.4668 108.678C24.4668 108.006 24.7344 107.451 25.2695 107.014C25.8086 106.572 26.5078 106.352 27.3672 106.352C27.9531 106.352 28.4746 106.465 28.9316 106.691C29.3926 106.918 29.748 107.23 29.998 107.629C30.252 108.027 30.3789 108.463 30.3789 108.936H29.248C29.248 108.42 29.084 108.016 28.7559 107.723C28.4277 107.426 27.9648 107.277 27.3672 107.277C26.8125 107.277 26.3789 107.4 26.0664 107.646C25.7578 107.889 25.6035 108.227 25.6035 108.66C25.6035 109.008 25.75 109.303 26.043 109.545C26.3398 109.783 26.8418 110.002 27.5488 110.201C28.2598 110.4 28.8145 110.621 29.2129 110.863C29.6152 111.102 29.9121 111.381 30.1035 111.701C30.2988 112.021 30.3965 112.398 30.3965 112.832C30.3965 113.523 30.127 114.078 29.5879 114.496C29.0488 114.91 28.3281 115.117 27.4258 115.117C26.8398 115.117 26.293 115.006 25.7852 114.783C25.2773 114.557 24.8848 114.248 24.6074 113.857C24.334 113.467 24.1973 113.023 24.1973 112.527H25.3281C25.3281 113.043 25.5176 113.451 25.8965 113.752C26.2793 114.049 26.7891 114.197 27.4258 114.197C28.0195 114.197 28.4746 114.076 28.791 113.834C29.1074 113.592 29.2656 113.262 29.2656 112.844C29.2656 112.426 29.1191 112.104 28.8262 111.877C28.5332 111.646 28.002 111.42 27.2324 111.197ZM33.1445 107.125V108.66H34.3281V109.498H33.1445V113.43C33.1445 113.684 33.1973 113.875 33.3027 114.004C33.4082 114.129 33.5879 114.191 33.8418 114.191C33.9668 114.191 34.1387 114.168 34.3574 114.121V115C34.0723 115.078 33.7949 115.117 33.5254 115.117C33.041 115.117 32.6758 114.971 32.4297 114.678C32.1836 114.385 32.0605 113.969 32.0605 113.43V109.498H30.9062V108.66H32.0605V107.125H33.1445ZM39.5137 114.373C39.0918 114.869 38.4727 115.117 37.6562 115.117C36.9805 115.117 36.4648 114.922 36.1094 114.531C35.7578 114.137 35.5801 113.555 35.5762 112.785V108.66H36.6602V112.756C36.6602 113.717 37.0508 114.197 37.832 114.197C38.6602 114.197 39.2109 113.889 39.4844 113.271V108.66H40.5684V115H39.5371L39.5137 114.373ZM41.957 111.777C41.957 110.805 42.1875 110.023 42.6484 109.434C43.1094 108.84 43.7129 108.543 44.459 108.543C45.2012 108.543 45.7891 108.797 46.2227 109.305V106H47.3066V115H46.3105L46.2578 114.32C45.8242 114.852 45.2207 115.117 44.4473 115.117C43.7129 115.117 43.1133 114.816 42.6484 114.215C42.1875 113.613 41.957 112.828 41.957 111.859V111.777ZM43.041 111.9C43.041 112.619 43.1895 113.182 43.4863 113.588C43.7832 113.994 44.1934 114.197 44.7168 114.197C45.4043 114.197 45.9062 113.889 46.2227 113.271V110.359C45.8984 109.762 45.4004 109.463 44.7285 109.463C44.1973 109.463 43.7832 109.668 43.4863 110.078C43.1895 110.488 43.041 111.096 43.041 111.9ZM51.625 115.117C50.7656 115.117 50.0664 114.836 49.5273 114.273C48.9883 113.707 48.7188 112.951 48.7188 112.006V111.807C48.7188 111.178 48.8379 110.617 49.0762 110.125C49.3184 109.629 49.6543 109.242 50.084 108.965C50.5176 108.684 50.9863 108.543 51.4902 108.543C52.3145 108.543 52.9551 108.814 53.4121 109.357C53.8691 109.9 54.0977 110.678 54.0977 111.689V112.141H49.8027C49.8184 112.766 50 113.271 50.3477 113.658C50.6992 114.041 51.1445 114.232 51.6836 114.232C52.0664 114.232 52.3906 114.154 52.6562 113.998C52.9219 113.842 53.1543 113.635 53.3535 113.377L54.0156 113.893C53.4844 114.709 52.6875 115.117 51.625 115.117ZM51.4902 109.434C51.0527 109.434 50.6855 109.594 50.3887 109.914C50.0918 110.23 49.9082 110.676 49.8379 111.25H53.0137V111.168C52.9824 110.617 52.834 110.191 52.5684 109.891C52.3027 109.586 51.9434 109.434 51.4902 109.434ZM56.3828 108.66L56.418 109.457C56.9023 108.848 57.5352 108.543 58.3164 108.543C59.6562 108.543 60.332 109.299 60.3438 110.811V115H59.2598V110.805C59.2559 110.348 59.1504 110.01 58.9434 109.791C58.7402 109.572 58.4219 109.463 57.9883 109.463C57.6367 109.463 57.3281 109.557 57.0625 109.744C56.7969 109.932 56.5898 110.178 56.4414 110.482V115H55.3574V108.66H56.3828ZM63.4492 107.125V108.66H64.6328V109.498H63.4492V113.43C63.4492 113.684 63.502 113.875 63.6074 114.004C63.7129 114.129 63.8926 114.191 64.1465 114.191C64.2715 114.191 64.4434 114.168 64.6621 114.121V115C64.377 115.078 64.0996 115.117 63.8301 115.117C63.3457 115.117 62.9805 114.971 62.7344 114.678C62.4883 114.385 62.3652 113.969 62.3652 113.43V109.498H61.2109V108.66H62.3652V107.125H63.4492ZM69.5957 113.318C69.5957 113.025 69.4844 112.799 69.2617 112.639C69.043 112.475 68.6582 112.334 68.1074 112.217C67.5605 112.1 67.125 111.959 66.8008 111.795C66.4805 111.631 66.2422 111.436 66.0859 111.209C65.9336 110.982 65.8574 110.713 65.8574 110.4C65.8574 109.881 66.0762 109.441 66.5137 109.082C66.9551 108.723 67.5176 108.543 68.2012 108.543C68.9199 108.543 69.502 108.729 69.9473 109.1C70.3965 109.471 70.6211 109.945 70.6211 110.523H69.5312C69.5312 110.227 69.4043 109.971 69.1504 109.756C68.9004 109.541 68.584 109.434 68.2012 109.434C67.8066 109.434 67.498 109.52 67.2754 109.691C67.0527 109.863 66.9414 110.088 66.9414 110.365C66.9414 110.627 67.0449 110.824 67.252 110.957C67.459 111.09 67.832 111.217 68.3711 111.338C68.9141 111.459 69.3535 111.604 69.6895 111.771C70.0254 111.939 70.2734 112.143 70.4336 112.381C70.5977 112.615 70.6797 112.902 70.6797 113.242C70.6797 113.809 70.4531 114.264 70 114.607C69.5469 114.947 68.959 115.117 68.2363 115.117C67.7285 115.117 67.2793 115.027 66.8887 114.848C66.498 114.668 66.1914 114.418 65.9688 114.098C65.75 113.773 65.6406 113.424 65.6406 113.049H66.7246C66.7441 113.412 66.8887 113.701 67.1582 113.916C67.4316 114.127 67.791 114.232 68.2363 114.232C68.6465 114.232 68.9746 114.15 69.2207 113.986C69.4707 113.818 69.5957 113.596 69.5957 113.318Z" fill="#1F2432"/>
<path d="M602.232 385.197C601.268 384.92 600.564 384.58 600.123 384.178C599.686 383.771 599.467 383.271 599.467 382.678C599.467 382.006 599.734 381.451 600.27 381.014C600.809 380.572 601.508 380.352 602.367 380.352C602.953 380.352 603.475 380.465 603.932 380.691C604.393 380.918 604.748 381.23 604.998 381.629C605.252 382.027 605.379 382.463 605.379 382.936H604.248C604.248 382.42 604.084 382.016 603.756 381.723C603.428 381.426 602.965 381.277 602.367 381.277C601.812 381.277 601.379 381.4 601.066 381.646C600.758 381.889 600.604 382.227 600.604 382.66C600.604 383.008 600.75 383.303 601.043 383.545C601.34 383.783 601.842 384.002 602.549 384.201C603.26 384.4 603.814 384.621 604.213 384.863C604.615 385.102 604.912 385.381 605.104 385.701C605.299 386.021 605.396 386.398 605.396 386.832C605.396 387.523 605.127 388.078 604.588 388.496C604.049 388.91 603.328 389.117 602.426 389.117C601.84 389.117 601.293 389.006 600.785 388.783C600.277 388.557 599.885 388.248 599.607 387.857C599.334 387.467 599.197 387.023 599.197 386.527H600.328C600.328 387.043 600.518 387.451 600.896 387.752C601.279 388.049 601.789 388.197 602.426 388.197C603.02 388.197 603.475 388.076 603.791 387.834C604.107 387.592 604.266 387.262 604.266 386.844C604.266 386.426 604.119 386.104 603.826 385.877C603.533 385.646 603.002 385.42 602.232 385.197ZM608.145 381.125V382.66H609.328V383.498H608.145V387.43C608.145 387.684 608.197 387.875 608.303 388.004C608.408 388.129 608.588 388.191 608.842 388.191C608.967 388.191 609.139 388.168 609.357 388.121V389C609.072 389.078 608.795 389.117 608.525 389.117C608.041 389.117 607.676 388.971 607.43 388.678C607.184 388.385 607.061 387.969 607.061 387.43V383.498H605.906V382.66H607.061V381.125H608.145ZM614.514 388.373C614.092 388.869 613.473 389.117 612.656 389.117C611.98 389.117 611.465 388.922 611.109 388.531C610.758 388.137 610.58 387.555 610.576 386.785V382.66H611.66V386.756C611.66 387.717 612.051 388.197 612.832 388.197C613.66 388.197 614.211 387.889 614.484 387.271V382.66H615.568V389H614.537L614.514 388.373ZM616.957 385.777C616.957 384.805 617.188 384.023 617.648 383.434C618.109 382.84 618.713 382.543 619.459 382.543C620.201 382.543 620.789 382.797 621.223 383.305V380H622.307V389H621.311L621.258 388.32C620.824 388.852 620.221 389.117 619.447 389.117C618.713 389.117 618.113 388.816 617.648 388.215C617.188 387.613 616.957 386.828 616.957 385.859V385.777ZM618.041 385.9C618.041 386.619 618.189 387.182 618.486 387.588C618.783 387.994 619.193 388.197 619.717 388.197C620.404 388.197 620.906 387.889 621.223 387.271V384.359C620.898 383.762 620.4 383.463 619.729 383.463C619.197 383.463 618.783 383.668 618.486 384.078C618.189 384.488 618.041 385.096 618.041 385.9ZM626.625 389.117C625.766 389.117 625.066 388.836 624.527 388.273C623.988 387.707 623.719 386.951 623.719 386.006V385.807C623.719 385.178 623.838 384.617 624.076 384.125C624.318 383.629 624.654 383.242 625.084 382.965C625.518 382.684 625.986 382.543 626.49 382.543C627.314 382.543 627.955 382.814 628.412 383.357C628.869 383.9 629.098 384.678 629.098 385.689V386.141H624.803C624.818 386.766 625 387.271 625.348 387.658C625.699 388.041 626.145 388.232 626.684 388.232C627.066 388.232 627.391 388.154 627.656 387.998C627.922 387.842 628.154 387.635 628.354 387.377L629.016 387.893C628.484 388.709 627.688 389.117 626.625 389.117ZM626.49 383.434C626.053 383.434 625.686 383.594 625.389 383.914C625.092 384.23 624.908 384.676 624.838 385.25H628.014V385.168C627.982 384.617 627.834 384.191 627.568 383.891C627.303 383.586 626.943 383.434 626.49 383.434ZM631.383 382.66L631.418 383.457C631.902 382.848 632.535 382.543 633.316 382.543C634.656 382.543 635.332 383.299 635.344 384.811V389H634.26V384.805C634.256 384.348 634.15 384.01 633.943 383.791C633.74 383.572 633.422 383.463 632.988 383.463C632.637 383.463 632.328 383.557 632.062 383.744C631.797 383.932 631.59 384.178 631.441 384.482V389H630.357V382.66H631.383ZM638.449 381.125V382.66H639.633V383.498H638.449V387.43C638.449 387.684 638.502 387.875 638.607 388.004C638.713 388.129 638.893 388.191 639.146 388.191C639.271 388.191 639.443 388.168 639.662 388.121V389C639.377 389.078 639.1 389.117 638.83 389.117C638.346 389.117 637.98 388.971 637.734 388.678C637.488 388.385 637.365 387.969 637.365 387.43V383.498H636.211V382.66H637.365V381.125H638.449ZM644.596 387.318C644.596 387.025 644.484 386.799 644.262 386.639C644.043 386.475 643.658 386.334 643.107 386.217C642.561 386.1 642.125 385.959 641.801 385.795C641.48 385.631 641.242 385.436 641.086 385.209C640.934 384.982 640.857 384.713 640.857 384.4C640.857 383.881 641.076 383.441 641.514 383.082C641.955 382.723 642.518 382.543 643.201 382.543C643.92 382.543 644.502 382.729 644.947 383.1C645.396 383.471 645.621 383.945 645.621 384.523H644.531C644.531 384.227 644.404 383.971 644.15 383.756C643.9 383.541 643.584 383.434 643.201 383.434C642.807 383.434 642.498 383.52 642.275 383.691C642.053 383.863 641.941 384.088 641.941 384.365C641.941 384.627 642.045 384.824 642.252 384.957C642.459 385.09 642.832 385.217 643.371 385.338C643.914 385.459 644.354 385.604 644.689 385.771C645.025 385.939 645.273 386.143 645.434 386.381C645.598 386.615 645.68 386.902 645.68 387.242C645.68 387.809 645.453 388.264 645 388.607C644.547 388.947 643.959 389.117 643.236 389.117C642.729 389.117 642.279 389.027 641.889 388.848C641.498 388.668 641.191 388.418 640.969 388.098C640.75 387.773 640.641 387.424 640.641 387.049H641.725C641.744 387.412 641.889 387.701 642.158 387.916C642.432 388.127 642.791 388.232 643.236 388.232C643.646 388.232 643.975 388.15 644.221 387.986C644.471 387.818 644.596 387.596 644.596 387.318Z" fill="#1F2432"/>
<path d="M621.714 372.639C647.597 372.639 668.695 351.639 668.695 325.635C668.695 299.739 647.706 278.631 621.714 278.631C595.723 278.631 574.733 299.63 574.733 325.635C574.733 351.639 595.723 372.639 621.714 372.639Z" fill="#1F2432"/>
<path d="M615.841 326.288V329.661H614.971L612.47 332.164L608.229 334.122C605.945 334.666 603.987 336.407 603.987 338.039V348.158" fill="#1F2432"/>
<path d="M615.841 326.288V329.661H614.971L612.47 332.164L608.229 334.122C605.945 334.666 603.987 336.407 603.987 338.039V348.158" stroke="#00DCE6" stroke-miterlimit="10"/>
<path d="M629.436 311.926V313.666L631.176 314.537V317.91C631.176 318.454 630.85 318.998 630.415 319.324L629.436 320.521C629.436 320.521 629.436 321.827 629.436 322.262C629.436 325.526 625.086 326.941 624.325 327.376C623.563 327.811 622.258 328.246 620.953 328.246C619.648 328.246 618.343 327.811 617.582 327.376C616.821 326.941 612.47 325.526 612.47 322.262C612.47 321.827 612.47 320.521 612.47 320.521L611.492 319.324C611.057 318.998 610.73 318.454 610.73 317.91V314.537L612.47 313.666V311.926C612.47 307.682 615.842 304.309 620.083 304.309H621.823C625.956 304.2 629.436 307.682 629.436 311.926Z" fill="#1F2432" stroke="#00DCE6" stroke-miterlimit="10"/>
<path d="M615.842 329.77L620.844 334.013" stroke="#00DCE6" stroke-miterlimit="10"/>
<path d="M620.844 334.013L616.603 337.386L612.361 332.272" fill="#1F2432"/>
<path d="M620.844 334.013L616.603 337.386L612.361 332.272" stroke="#00DCE6" stroke-miterlimit="10"/>
<path d="M625.955 326.288V329.661H626.825L629.326 332.164L633.568 334.122C635.852 334.666 637.809 336.407 637.809 338.039V348.158" fill="#1F2432"/>
<path d="M625.955 326.288V329.661H626.825L629.326 332.164L633.568 334.122C635.852 334.666 637.809 336.407 637.809 338.039V348.158" stroke="#00DCE6" stroke-miterlimit="10"/>
<path d="M625.955 329.77L620.844 334.013" stroke="#00DCE6" stroke-miterlimit="10"/>
<path d="M620.844 334.013L625.085 337.386L629.435 332.272" fill="#1F2432"/>
<path d="M620.844 334.013L625.085 337.386L629.435 332.272" stroke="#00DCE6" stroke-miterlimit="10"/>
<path d="M623.454 335.646L622.584 339.889H619.213L618.343 335.646" fill="#1F2432"/>
<path d="M623.454 335.646L622.584 339.889H619.213L618.343 335.646" stroke="#00DCE6" stroke-miterlimit="10"/>
<path d="M623.454 347.505L622.584 339.889H619.213L618.343 347.505" fill="#1F2432"/>
<path d="M623.454 347.505L622.584 339.889H619.213L618.343 347.505" stroke="#00DCE6" stroke-miterlimit="10"/>
<path d="M383.711 227.273H285.634C270.705 227.273 258.391 215.055 258.391 200C258.391 184.946 270.596 172.728 285.634 172.728H383.711C398.641 172.728 410.955 184.946 410.955 200C410.955 215.055 398.75 227.273 383.711 227.273Z" fill="#00DCE6"/>
<g opacity="0.3">
<path opacity="0.3" d="M285.634 236C265.801 236 249.673 219.855 249.673 200C249.673 180.145 265.801 164 285.634 164H383.711C403.545 164 419.673 180.145 419.673 200C419.673 219.855 403.545 236 383.711 236H285.634Z" fill="#00DCE6"/>
</g>
<path d="M277.134 207.419V192.364L290.756 183.637L304.377 192.364V207.528" stroke="white"/>
<path d="M277.134 207.419L290.756 216.255L304.377 207.419L290.756 198.691L277.134 207.419Z" stroke="white" stroke-linejoin="round"/>
<path d="M304.269 192.364L290.647 201.092L277.025 192.364" stroke="white"/>
<path d="M290.757 183.637V198.8" stroke="white"/>
<path d="M290.757 201.2V216.364" stroke="white"/>
<path d="M323.054 205V195.758H326.291C327.412 195.758 328.263 195.974 328.843 196.405C329.423 196.833 329.712 197.461 329.712 198.291C329.712 198.743 329.596 199.143 329.363 199.49C329.131 199.833 328.807 200.085 328.392 200.246C328.866 200.364 329.238 200.603 329.509 200.963C329.784 201.323 329.922 201.763 329.922 202.283C329.922 203.172 329.638 203.845 329.071 204.302C328.504 204.759 327.696 204.992 326.646 205H323.054ZM324.958 200.976V203.47H326.589C327.038 203.47 327.387 203.364 327.637 203.153C327.891 202.937 328.018 202.641 328.018 202.264C328.018 201.418 327.58 200.988 326.704 200.976H324.958ZM324.958 199.63H326.367C327.328 199.613 327.808 199.23 327.808 198.481C327.808 198.062 327.685 197.762 327.44 197.58C327.199 197.393 326.816 197.3 326.291 197.3H324.958V199.63ZM333.172 205H331.331V195.25H333.172V205ZM334.403 201.502C334.403 200.821 334.535 200.214 334.797 199.681C335.059 199.147 335.436 198.735 335.927 198.443C336.422 198.151 336.995 198.005 337.647 198.005C338.574 198.005 339.329 198.288 339.913 198.855C340.501 199.423 340.829 200.193 340.897 201.166L340.91 201.636C340.91 202.689 340.616 203.536 340.027 204.175C339.439 204.81 338.65 205.127 337.66 205.127C336.669 205.127 335.878 204.81 335.286 204.175C334.697 203.54 334.403 202.677 334.403 201.585V201.502ZM336.238 201.636C336.238 202.287 336.361 202.787 336.606 203.134C336.851 203.477 337.203 203.648 337.66 203.648C338.104 203.648 338.451 203.479 338.701 203.14C338.95 202.797 339.075 202.251 339.075 201.502C339.075 200.863 338.95 200.368 338.701 200.017C338.451 199.666 338.1 199.49 337.647 199.49C337.198 199.49 336.851 199.666 336.606 200.017C336.361 200.364 336.238 200.904 336.238 201.636ZM344.896 203.648C345.235 203.648 345.51 203.555 345.721 203.369C345.933 203.182 346.043 202.935 346.051 202.626H347.771C347.767 203.091 347.64 203.519 347.391 203.908C347.141 204.293 346.798 204.594 346.362 204.81C345.931 205.021 345.452 205.127 344.928 205.127C343.946 205.127 343.172 204.816 342.604 204.194C342.037 203.568 341.754 202.704 341.754 201.604V201.483C341.754 200.425 342.035 199.581 342.598 198.951C343.161 198.32 343.933 198.005 344.915 198.005C345.774 198.005 346.462 198.25 346.978 198.741C347.499 199.228 347.763 199.877 347.771 200.69H346.051C346.043 200.334 345.933 200.047 345.721 199.827C345.51 199.602 345.23 199.49 344.883 199.49C344.456 199.49 344.132 199.647 343.912 199.96C343.696 200.269 343.588 200.772 343.588 201.471V201.661C343.588 202.368 343.696 202.876 343.912 203.185C344.128 203.493 344.456 203.648 344.896 203.648ZM351.313 202.245L350.653 202.905V205H348.819V195.25H350.653V200.652L351.009 200.195L352.767 198.132H354.97L352.488 200.995L355.186 205H353.078L351.313 202.245ZM358.493 203.648C358.831 203.648 359.106 203.555 359.318 203.369C359.529 203.182 359.639 202.935 359.648 202.626H361.368C361.364 203.091 361.237 203.519 360.987 203.908C360.738 204.293 360.395 204.594 359.959 204.81C359.527 205.021 359.049 205.127 358.524 205.127C357.543 205.127 356.768 204.816 356.201 204.194C355.634 203.568 355.351 202.704 355.351 201.604V201.483C355.351 200.425 355.632 199.581 356.195 198.951C356.758 198.32 357.53 198.005 358.512 198.005C359.371 198.005 360.058 198.25 360.575 198.741C361.095 199.228 361.36 199.877 361.368 200.69H359.648C359.639 200.334 359.529 200.047 359.318 199.827C359.106 199.602 358.827 199.49 358.48 199.49C358.053 199.49 357.729 199.647 357.509 199.96C357.293 200.269 357.185 200.772 357.185 201.471V201.661C357.185 202.368 357.293 202.876 357.509 203.185C357.725 203.493 358.053 203.648 358.493 203.648ZM364.206 198.881C364.692 198.297 365.304 198.005 366.04 198.005C367.53 198.005 368.285 198.87 368.306 200.601V205H366.472V200.652C366.472 200.258 366.387 199.968 366.218 199.782C366.049 199.592 365.767 199.497 365.374 199.497C364.836 199.497 364.447 199.704 364.206 200.119V205H362.371V195.25H364.206V198.881ZM373.67 205C373.585 204.835 373.524 204.63 373.486 204.384C373.042 204.879 372.464 205.127 371.753 205.127C371.08 205.127 370.521 204.932 370.077 204.543C369.637 204.154 369.417 203.663 369.417 203.07C369.417 202.342 369.686 201.784 370.223 201.395C370.765 201.005 371.546 200.808 372.565 200.804H373.41V200.411C373.41 200.093 373.327 199.839 373.162 199.649C373.001 199.458 372.745 199.363 372.394 199.363C372.085 199.363 371.842 199.437 371.664 199.585C371.491 199.734 371.404 199.937 371.404 200.195H369.569C369.569 199.797 369.692 199.429 369.938 199.09C370.183 198.752 370.53 198.487 370.979 198.297C371.427 198.102 371.931 198.005 372.489 198.005C373.336 198.005 374.006 198.219 374.501 198.646C375.001 199.069 375.25 199.666 375.25 200.436V203.413C375.255 204.065 375.346 204.558 375.523 204.892V205H373.67ZM372.153 203.724C372.424 203.724 372.673 203.665 372.902 203.546C373.13 203.424 373.3 203.261 373.41 203.058V201.877H372.724C371.806 201.877 371.317 202.194 371.258 202.829L371.251 202.937C371.251 203.166 371.332 203.354 371.493 203.502C371.653 203.65 371.874 203.724 372.153 203.724ZM378.596 205H376.755V198.132H378.596V205ZM376.647 196.354C376.647 196.079 376.738 195.853 376.92 195.675C377.106 195.498 377.358 195.409 377.675 195.409C377.988 195.409 378.238 195.498 378.424 195.675C378.611 195.853 378.704 196.079 378.704 196.354C378.704 196.634 378.608 196.862 378.418 197.04C378.232 197.218 377.984 197.307 377.675 197.307C377.366 197.307 377.117 197.218 376.926 197.04C376.74 196.862 376.647 196.634 376.647 196.354ZM381.801 198.132L381.858 198.925C382.349 198.312 383.007 198.005 383.833 198.005C384.56 198.005 385.102 198.219 385.458 198.646C385.813 199.073 385.995 199.712 386.003 200.563V205H384.169V200.607C384.169 200.218 384.084 199.937 383.915 199.763C383.746 199.585 383.464 199.497 383.071 199.497C382.555 199.497 382.167 199.717 381.909 200.157V205H380.075V198.132H381.801Z" fill="white"/>
<path d="M310.574 148.173L317.534 155.245L324.603 148.282" stroke="#00DCE6"/>
<path d="M239.341 134.464L232.38 127.392L225.312 134.355" stroke="#00DCE6"/>
<path d="M232.381 127.282V140.665H317.425V155.354" stroke="#00DCE6" stroke-miterlimit="10"/>
<path d="M310.574 252.191L317.426 245.119L324.494 251.974" stroke="#00DCE6"/>
<path d="M52.722 266.01L45.8707 273.082L38.8018 266.227" stroke="#00DCE6"/>
<path d="M239.232 266.118L232.38 273.191L225.312 266.336" stroke="#00DCE6"/>
<path d="M46.0879 273.191V222.27H223.137" stroke="#00DCE6" stroke-miterlimit="10"/>
<path d="M216.177 185.277L223.246 178.422L216.394 171.35" stroke="#00DCE6"/>
<path d="M52.722 134.572L45.8707 127.5L38.8018 134.355" stroke="#00DCE6"/>
<path d="M46.0879 127.392V178.313H223.137" stroke="#00DCE6" stroke-miterlimit="10"/>
<path d="M232.381 273.191V259.808H317.425V245.119" stroke="#00DCE6" stroke-miterlimit="10"/>
<path d="M362.231 148.282L355.379 155.355L348.311 148.5" stroke="#00DCE6"/>
<path d="M614.645 134.464L621.496 127.392L628.565 134.246" stroke="#00DCE6"/>
<path d="M433.572 134.464L440.424 127.392L447.493 134.246" stroke="#00DCE6"/>
<path d="M621.388 127.282V178.203H444.23" stroke="#00DCE6" stroke-miterlimit="10"/>
<path d="M440.533 127.282V140.665H355.488V155.354" stroke="#00DCE6" stroke-miterlimit="10"/>
<path d="M451.299 215.306L444.23 222.16L451.082 229.233" stroke="#00DCE6"/>
<path d="M362.231 252.191L355.379 245.119L348.311 251.974" stroke="#00DCE6"/>
<path d="M614.428 266.01L621.279 273.082L628.348 266.227" stroke="#00DCE6"/>
<path d="M433.572 266.01L440.424 273.082L447.493 266.227" stroke="#00DCE6"/>
<path d="M621.388 273.191V222.27H444.23" stroke="#00DCE6" stroke-miterlimit="10"/>
<path d="M440.533 273.191V259.808H355.488V245.119" stroke="#00DCE6" stroke-miterlimit="10"/>
</g>
<defs>
<clipPath id="clip0">
<rect width="670" height="395" fill="white"/>
</clipPath>
</defs>
</svg>
