<svg width="476" height="396" viewBox="0 0 476 396" fill="none" xmlns="http://www.w3.org/2000/svg">
<g clip-path="url(#clip0)">
<path d="M155.854 100.365H153.111V107.971H151.992V100.365H149.256V99.4395H155.854V100.365ZM158.994 108.088C158.135 108.088 157.436 107.807 156.896 107.244C156.357 106.678 156.088 105.922 156.088 104.977V104.777C156.088 104.148 156.207 103.588 156.445 103.096C156.688 102.6 157.023 102.213 157.453 101.936C157.887 101.654 158.355 101.514 158.859 101.514C159.684 101.514 160.324 101.785 160.781 102.328C161.238 102.871 161.467 103.648 161.467 104.66V105.111H157.172C157.188 105.736 157.369 106.242 157.717 106.629C158.068 107.012 158.514 107.203 159.053 107.203C159.436 107.203 159.76 107.125 160.025 106.969C160.291 106.812 160.523 106.605 160.723 106.348L161.385 106.863C160.854 107.68 160.057 108.088 158.994 108.088ZM158.859 102.404C158.422 102.404 158.055 102.564 157.758 102.885C157.461 103.201 157.277 103.646 157.207 104.221H160.383V104.139C160.352 103.588 160.203 103.162 159.938 102.861C159.672 102.557 159.312 102.404 158.859 102.404ZM166.641 107.971C166.578 107.846 166.527 107.623 166.488 107.303C165.984 107.826 165.383 108.088 164.684 108.088C164.059 108.088 163.545 107.912 163.143 107.561C162.744 107.205 162.545 106.756 162.545 106.213C162.545 105.553 162.795 105.041 163.295 104.678C163.799 104.311 164.506 104.127 165.416 104.127H166.471V103.629C166.471 103.25 166.357 102.949 166.131 102.727C165.904 102.5 165.57 102.387 165.129 102.387C164.742 102.387 164.418 102.484 164.156 102.68C163.895 102.875 163.764 103.111 163.764 103.389H162.674C162.674 103.072 162.785 102.768 163.008 102.475C163.234 102.178 163.539 101.943 163.922 101.771C164.309 101.6 164.732 101.514 165.193 101.514C165.924 101.514 166.496 101.697 166.91 102.064C167.324 102.428 167.539 102.93 167.555 103.57V106.488C167.555 107.07 167.629 107.533 167.777 107.877V107.971H166.641ZM164.842 107.145C165.182 107.145 165.504 107.057 165.809 106.881C166.113 106.705 166.334 106.477 166.471 106.195V104.895H165.621C164.293 104.895 163.629 105.283 163.629 106.061C163.629 106.4 163.742 106.666 163.969 106.857C164.195 107.049 164.486 107.145 164.842 107.145ZM171.797 107.203C172.184 107.203 172.521 107.086 172.811 106.852C173.1 106.617 173.26 106.324 173.291 105.973H174.316C174.297 106.336 174.172 106.682 173.941 107.01C173.711 107.338 173.402 107.6 173.016 107.795C172.633 107.99 172.227 108.088 171.797 108.088C170.934 108.088 170.246 107.801 169.734 107.227C169.227 106.648 168.973 105.859 168.973 104.859V104.678C168.973 104.061 169.086 103.512 169.312 103.031C169.539 102.551 169.863 102.178 170.285 101.912C170.711 101.646 171.213 101.514 171.791 101.514C172.502 101.514 173.092 101.727 173.561 102.152C174.033 102.578 174.285 103.131 174.316 103.811H173.291C173.26 103.4 173.104 103.064 172.822 102.803C172.545 102.537 172.201 102.404 171.791 102.404C171.24 102.404 170.812 102.604 170.508 103.002C170.207 103.396 170.057 103.969 170.057 104.719V104.924C170.057 105.654 170.207 106.217 170.508 106.611C170.809 107.006 171.238 107.203 171.797 107.203ZM176.619 102.398C177.1 101.809 177.725 101.514 178.494 101.514C179.834 101.514 180.51 102.27 180.521 103.781V107.971H179.438V103.775C179.434 103.318 179.328 102.98 179.121 102.762C178.918 102.543 178.6 102.434 178.166 102.434C177.814 102.434 177.506 102.527 177.24 102.715C176.975 102.902 176.768 103.148 176.619 103.453V107.971H175.535V98.9707H176.619V102.398ZM184.775 108.088C183.916 108.088 183.217 107.807 182.678 107.244C182.139 106.678 181.869 105.922 181.869 104.977V104.777C181.869 104.148 181.988 103.588 182.227 103.096C182.469 102.6 182.805 102.213 183.234 101.936C183.668 101.654 184.137 101.514 184.641 101.514C185.465 101.514 186.105 101.785 186.562 102.328C187.02 102.871 187.248 103.648 187.248 104.66V105.111H182.953C182.969 105.736 183.15 106.242 183.498 106.629C183.85 107.012 184.295 107.203 184.834 107.203C185.217 107.203 185.541 107.125 185.807 106.969C186.072 106.812 186.305 106.605 186.504 106.348L187.166 106.863C186.635 107.68 185.838 108.088 184.775 108.088ZM184.641 102.404C184.203 102.404 183.836 102.564 183.539 102.885C183.242 103.201 183.059 103.646 182.988 104.221H186.164V104.139C186.133 103.588 185.984 103.162 185.719 102.861C185.453 102.557 185.094 102.404 184.641 102.404ZM191.572 102.604C191.408 102.576 191.23 102.562 191.039 102.562C190.328 102.562 189.846 102.865 189.592 103.471V107.971H188.508V101.631H189.562L189.58 102.363C189.936 101.797 190.439 101.514 191.092 101.514C191.303 101.514 191.463 101.541 191.572 101.596V102.604ZM196.266 106.289C196.266 105.996 196.154 105.77 195.932 105.609C195.713 105.445 195.328 105.305 194.777 105.188C194.23 105.07 193.795 104.93 193.471 104.766C193.15 104.602 192.912 104.406 192.756 104.18C192.604 103.953 192.527 103.684 192.527 103.371C192.527 102.852 192.746 102.412 193.184 102.053C193.625 101.693 194.188 101.514 194.871 101.514C195.59 101.514 196.172 101.699 196.617 102.07C197.066 102.441 197.291 102.916 197.291 103.494H196.201C196.201 103.197 196.074 102.941 195.82 102.727C195.57 102.512 195.254 102.404 194.871 102.404C194.477 102.404 194.168 102.49 193.945 102.662C193.723 102.834 193.611 103.059 193.611 103.336C193.611 103.598 193.715 103.795 193.922 103.928C194.129 104.061 194.502 104.188 195.041 104.309C195.584 104.43 196.023 104.574 196.359 104.742C196.695 104.91 196.943 105.113 197.104 105.352C197.268 105.586 197.35 105.873 197.35 106.213C197.35 106.779 197.123 107.234 196.67 107.578C196.217 107.918 195.629 108.088 194.906 108.088C194.398 108.088 193.949 107.998 193.559 107.818C193.168 107.639 192.861 107.389 192.639 107.068C192.42 106.744 192.311 106.395 192.311 106.02H193.395C193.414 106.383 193.559 106.672 193.828 106.887C194.102 107.098 194.461 107.203 194.906 107.203C195.316 107.203 195.645 107.121 195.891 106.957C196.141 106.789 196.266 106.566 196.266 106.289Z" fill="#1F2432"/>
<path d="M173.7 88.9992C197.5 88.9992 216.9 69.6992 216.9 45.7992C216.9 21.8992 197.6 2.69922 173.7 2.69922C149.8 2.69922 130.6 21.9992 130.6 45.7992C130.6 69.5992 149.9 88.9992 173.7 88.9992Z" fill="#1F2432"/>
<path d="M186.2 62.4996L181.8 55.8996L189.5 50.8996L192.4 55.3996C192.3 55.6996 191.3 56.2996 190.9 56.6996C190.3 56.3996 189.4 56.4996 189.2 56.4996C188.9 56.4996 188.1 57.6996 188 57.8996C187.9 57.8996 186.9 58.5996 186.9 58.8996C187 60.1996 188 61.3996 188.7 61.0996C190.6 60.4996 194.2 58.5996 196 56.5996C196.9 55.5996 197.1 54.3996 196.2 53.2996L192.1 46.5996C190.9 44.8996 186.8 44.0996 184.8 44.0996C182.9 44.0996 178.6 45.0996 177.4 46.5996C176.3 47.9996 174 51.1996 173.1 51.9996L170.4 50.4996C170 49.6996 170.6 49.3996 170.5 48.6996C170.5 48.3996 168.3 46.4996 168 46.4996C166.6 46.1996 165.3 48.6996 165.8 49.6996C166.2 50.4996 166.8 51.2996 167.1 51.5996C171.8 57.1996 171.9 57.6996 173.5 57.7996C175.1 57.8996 178.1 54.8996 178.5 54.1996V62.9996" stroke="#00DCE6" stroke-miterlimit="10"/>
<path d="M185.2 32C187.4 32 189.3 33.3 189.3 37.1C189.3 40.8 187.5 42.2 185.2 42.2C183 42.2 181.1 40.9 181.1 37.1C181.1 33.3 182.9 32 185.2 32Z" stroke="#00DCE6" stroke-miterlimit="10"/>
<path d="M167.6 34.6992V46.8992" stroke="#00DCE6" stroke-miterlimit="10"/>
<path d="M178.4 61.0996H150.8V26.0996H195.8V52.8996" stroke="#00DCE6" stroke-miterlimit="10"/>
<path d="M294.888 370.779H292.146V378.385H291.026V370.779H288.29V369.854H294.888V370.779ZM298.028 378.502C297.169 378.502 296.47 378.221 295.931 377.658C295.392 377.092 295.122 376.336 295.122 375.391V375.191C295.122 374.562 295.241 374.002 295.479 373.51C295.722 373.014 296.058 372.627 296.487 372.35C296.921 372.068 297.39 371.928 297.894 371.928C298.718 371.928 299.358 372.199 299.815 372.742C300.272 373.285 300.501 374.062 300.501 375.074V375.525H296.206C296.222 376.15 296.403 376.656 296.751 377.043C297.103 377.426 297.548 377.617 298.087 377.617C298.47 377.617 298.794 377.539 299.06 377.383C299.325 377.227 299.558 377.02 299.757 376.762L300.419 377.277C299.888 378.094 299.091 378.502 298.028 378.502ZM297.894 372.818C297.456 372.818 297.089 372.979 296.792 373.299C296.495 373.615 296.312 374.061 296.241 374.635H299.417V374.553C299.386 374.002 299.237 373.576 298.972 373.275C298.706 372.971 298.347 372.818 297.894 372.818ZM305.675 378.385C305.612 378.26 305.562 378.037 305.522 377.717C305.019 378.24 304.417 378.502 303.718 378.502C303.093 378.502 302.579 378.326 302.177 377.975C301.778 377.619 301.579 377.17 301.579 376.627C301.579 375.967 301.829 375.455 302.329 375.092C302.833 374.725 303.54 374.541 304.45 374.541H305.505V374.043C305.505 373.664 305.392 373.363 305.165 373.141C304.938 372.914 304.604 372.801 304.163 372.801C303.776 372.801 303.452 372.898 303.19 373.094C302.929 373.289 302.798 373.525 302.798 373.803H301.708C301.708 373.486 301.819 373.182 302.042 372.889C302.269 372.592 302.573 372.357 302.956 372.186C303.343 372.014 303.767 371.928 304.228 371.928C304.958 371.928 305.53 372.111 305.944 372.479C306.358 372.842 306.573 373.344 306.589 373.984V376.902C306.589 377.484 306.663 377.947 306.812 378.291V378.385H305.675ZM303.876 377.559C304.216 377.559 304.538 377.471 304.843 377.295C305.147 377.119 305.368 376.891 305.505 376.609V375.309H304.655C303.327 375.309 302.663 375.697 302.663 376.475C302.663 376.814 302.776 377.08 303.003 377.271C303.229 377.463 303.521 377.559 303.876 377.559ZM310.831 377.617C311.218 377.617 311.556 377.5 311.845 377.266C312.134 377.031 312.294 376.738 312.325 376.387H313.351C313.331 376.75 313.206 377.096 312.976 377.424C312.745 377.752 312.437 378.014 312.05 378.209C311.667 378.404 311.261 378.502 310.831 378.502C309.968 378.502 309.28 378.215 308.769 377.641C308.261 377.062 308.007 376.273 308.007 375.273V375.092C308.007 374.475 308.12 373.926 308.347 373.445C308.573 372.965 308.897 372.592 309.319 372.326C309.745 372.061 310.247 371.928 310.825 371.928C311.536 371.928 312.126 372.141 312.595 372.566C313.067 372.992 313.319 373.545 313.351 374.225H312.325C312.294 373.814 312.138 373.479 311.856 373.217C311.579 372.951 311.235 372.818 310.825 372.818C310.274 372.818 309.847 373.018 309.542 373.416C309.241 373.811 309.091 374.383 309.091 375.133V375.338C309.091 376.068 309.241 376.631 309.542 377.025C309.843 377.42 310.272 377.617 310.831 377.617ZM315.653 372.812C316.134 372.223 316.759 371.928 317.528 371.928C318.868 371.928 319.544 372.684 319.556 374.195V378.385H318.472V374.189C318.468 373.732 318.362 373.395 318.155 373.176C317.952 372.957 317.634 372.848 317.2 372.848C316.849 372.848 316.54 372.941 316.274 373.129C316.009 373.316 315.802 373.562 315.653 373.867V378.385H314.569V369.385H315.653V372.812ZM323.81 378.502C322.95 378.502 322.251 378.221 321.712 377.658C321.173 377.092 320.903 376.336 320.903 375.391V375.191C320.903 374.562 321.022 374.002 321.261 373.51C321.503 373.014 321.839 372.627 322.269 372.35C322.702 372.068 323.171 371.928 323.675 371.928C324.499 371.928 325.14 372.199 325.597 372.742C326.054 373.285 326.282 374.062 326.282 375.074V375.525H321.987C322.003 376.15 322.185 376.656 322.532 377.043C322.884 377.426 323.329 377.617 323.868 377.617C324.251 377.617 324.575 377.539 324.841 377.383C325.106 377.227 325.339 377.02 325.538 376.762L326.2 377.277C325.669 378.094 324.872 378.502 323.81 378.502ZM323.675 372.818C323.237 372.818 322.87 372.979 322.573 373.299C322.276 373.615 322.093 374.061 322.022 374.635H325.198V374.553C325.167 374.002 325.019 373.576 324.753 373.275C324.487 372.971 324.128 372.818 323.675 372.818ZM330.606 373.018C330.442 372.99 330.265 372.977 330.073 372.977C329.362 372.977 328.88 373.279 328.626 373.885V378.385H327.542V372.045H328.597L328.614 372.777C328.97 372.211 329.474 371.928 330.126 371.928C330.337 371.928 330.497 371.955 330.606 372.01V373.018ZM335.3 376.703C335.3 376.41 335.188 376.184 334.966 376.023C334.747 375.859 334.362 375.719 333.812 375.602C333.265 375.484 332.829 375.344 332.505 375.18C332.185 375.016 331.946 374.82 331.79 374.594C331.638 374.367 331.562 374.098 331.562 373.785C331.562 373.266 331.78 372.826 332.218 372.467C332.659 372.107 333.222 371.928 333.905 371.928C334.624 371.928 335.206 372.113 335.651 372.484C336.101 372.855 336.325 373.33 336.325 373.908H335.235C335.235 373.611 335.108 373.355 334.854 373.141C334.604 372.926 334.288 372.818 333.905 372.818C333.511 372.818 333.202 372.904 332.979 373.076C332.757 373.248 332.646 373.473 332.646 373.75C332.646 374.012 332.749 374.209 332.956 374.342C333.163 374.475 333.536 374.602 334.075 374.723C334.618 374.844 335.058 374.988 335.394 375.156C335.729 375.324 335.978 375.527 336.138 375.766C336.302 376 336.384 376.287 336.384 376.627C336.384 377.193 336.157 377.648 335.704 377.992C335.251 378.332 334.663 378.502 333.94 378.502C333.433 378.502 332.983 378.412 332.593 378.232C332.202 378.053 331.896 377.803 331.673 377.482C331.454 377.158 331.345 376.809 331.345 376.434H332.429C332.448 376.797 332.593 377.086 332.862 377.301C333.136 377.512 333.495 377.617 333.94 377.617C334.351 377.617 334.679 377.535 334.925 377.371C335.175 377.203 335.3 376.98 335.3 376.703Z" fill="#1F2432"/>
<path d="M312.8 360.9C336.6 360.9 356 341.6 356 317.7C356 293.9 336.7 274.5 312.8 274.5C289 274.5 269.6 293.8 269.6 317.7C269.6 341.6 288.9 360.9 312.8 360.9Z" fill="#1F2432"/>
<path d="M325.2 334.4L320.8 327.8L328.5 322.8L331.4 327.3C331.3 327.6 330.3 328.2 329.9 328.6C329.3 328.3 328.4 328.4 328.2 328.4C327.9 328.4 327.1 329.6 327 329.8C326.9 329.8 325.9 330.5 325.9 330.8C326 332.1 327 333.3 327.7 333C329.6 332.4 333.2 330.5 335 328.5C335.9 327.5 336.1 326.3 335.2 325.2L331.1 318.5C329.9 316.8 325.8 316 323.8 316C321.9 316 317.6 317 316.4 318.5C315.3 319.9 313 323.1 312.1 323.9L309.4 322.4C309 321.6 309.6 321.3 309.5 320.6C309.5 320.3 307.3 318.4 307 318.4C305.6 318.1 304.3 320.6 304.8 321.6C305.2 322.4 305.8 323.2 306.1 323.5C310.8 329.1 310.9 329.6 312.5 329.7C314.1 329.8 317.1 326.8 317.5 326.1V334.9" stroke="#00DCE6" stroke-miterlimit="10"/>
<path d="M324.2 303.9C326.4 303.9 328.3 305.2 328.3 309C328.3 312.7 326.5 314.1 324.2 314.1C322 314.1 320.1 312.8 320.1 309C320.2 305.3 322 303.9 324.2 303.9Z" stroke="#00DCE6" stroke-miterlimit="10"/>
<path d="M306.6 306.6V318.8" stroke="#00DCE6" stroke-miterlimit="10"/>
<path d="M317.4 333H289.8V298H334.9V324.9" stroke="#00DCE6" stroke-miterlimit="10"/>
<path d="M409.051 104.027H405.354V107.051H409.648V107.971H404.229V99.4395H409.59V100.365H405.354V103.107H409.051V104.027ZM411.898 101.631L411.928 102.334C412.393 101.787 413.02 101.514 413.809 101.514C414.695 101.514 415.299 101.854 415.619 102.533C415.83 102.229 416.104 101.982 416.439 101.795C416.779 101.607 417.18 101.514 417.641 101.514C419.031 101.514 419.738 102.25 419.762 103.723V107.971H418.678V103.787C418.678 103.334 418.574 102.996 418.367 102.773C418.16 102.547 417.812 102.434 417.324 102.434C416.922 102.434 416.588 102.555 416.322 102.797C416.057 103.035 415.902 103.357 415.859 103.764V107.971H414.77V103.816C414.77 102.895 414.318 102.434 413.416 102.434C412.705 102.434 412.219 102.736 411.957 103.342V107.971H410.873V101.631H411.898ZM426.758 104.871C426.758 105.836 426.537 106.613 426.096 107.203C425.654 107.793 425.057 108.088 424.303 108.088C423.533 108.088 422.928 107.844 422.486 107.355V110.408H421.402V101.631H422.393L422.445 102.334C422.887 101.787 423.5 101.514 424.285 101.514C425.047 101.514 425.648 101.801 426.09 102.375C426.535 102.949 426.758 103.748 426.758 104.771V104.871ZM425.674 104.748C425.674 104.033 425.521 103.469 425.217 103.055C424.912 102.641 424.494 102.434 423.963 102.434C423.307 102.434 422.814 102.725 422.486 103.307V106.336C422.811 106.914 423.307 107.203 423.975 107.203C424.494 107.203 424.906 106.998 425.211 106.588C425.52 106.174 425.674 105.561 425.674 104.748ZM429.318 107.971H428.234V98.9707H429.318V107.971ZM430.771 104.742C430.771 104.121 430.893 103.562 431.135 103.066C431.381 102.57 431.721 102.188 432.154 101.918C432.592 101.648 433.09 101.514 433.648 101.514C434.512 101.514 435.209 101.812 435.74 102.41C436.275 103.008 436.543 103.803 436.543 104.795V104.871C436.543 105.488 436.424 106.043 436.186 106.535C435.951 107.023 435.613 107.404 435.172 107.678C434.734 107.951 434.23 108.088 433.66 108.088C432.801 108.088 432.104 107.789 431.568 107.191C431.037 106.594 430.771 105.803 430.771 104.818V104.742ZM431.861 104.871C431.861 105.574 432.023 106.139 432.348 106.564C432.676 106.99 433.113 107.203 433.66 107.203C434.211 107.203 434.648 106.988 434.973 106.559C435.297 106.125 435.459 105.52 435.459 104.742C435.459 104.047 435.293 103.484 434.961 103.055C434.633 102.621 434.195 102.404 433.648 102.404C433.113 102.404 432.682 102.617 432.354 103.043C432.025 103.469 431.861 104.078 431.861 104.871ZM439.883 106.383L441.359 101.631H442.52L439.971 108.949C439.576 110.004 438.949 110.531 438.09 110.531L437.885 110.514L437.48 110.438V109.559L437.773 109.582C438.141 109.582 438.426 109.508 438.629 109.359C438.836 109.211 439.006 108.939 439.139 108.545L439.379 107.9L437.117 101.631H438.301L439.883 106.383ZM446.041 108.088C445.182 108.088 444.482 107.807 443.943 107.244C443.404 106.678 443.135 105.922 443.135 104.977V104.777C443.135 104.148 443.254 103.588 443.492 103.096C443.734 102.6 444.07 102.213 444.5 101.936C444.934 101.654 445.402 101.514 445.906 101.514C446.73 101.514 447.371 101.785 447.828 102.328C448.285 102.871 448.514 103.648 448.514 104.66V105.111H444.219C444.234 105.736 444.416 106.242 444.764 106.629C445.115 107.012 445.561 107.203 446.1 107.203C446.482 107.203 446.807 107.125 447.072 106.969C447.338 106.812 447.57 106.605 447.77 106.348L448.432 106.863C447.9 107.68 447.104 108.088 446.041 108.088ZM445.906 102.404C445.469 102.404 445.102 102.564 444.805 102.885C444.508 103.201 444.324 103.646 444.254 104.221H447.43V104.139C447.398 103.588 447.25 103.162 446.984 102.861C446.719 102.557 446.359 102.404 445.906 102.404ZM452.838 102.604C452.674 102.576 452.496 102.562 452.305 102.562C451.594 102.562 451.111 102.865 450.857 103.471V107.971H449.773V101.631H450.828L450.846 102.363C451.201 101.797 451.705 101.514 452.357 101.514C452.568 101.514 452.729 101.541 452.838 101.596V102.604ZM457.531 106.289C457.531 105.996 457.42 105.77 457.197 105.609C456.979 105.445 456.594 105.305 456.043 105.188C455.496 105.07 455.061 104.93 454.736 104.766C454.416 104.602 454.178 104.406 454.021 104.18C453.869 103.953 453.793 103.684 453.793 103.371C453.793 102.852 454.012 102.412 454.449 102.053C454.891 101.693 455.453 101.514 456.137 101.514C456.855 101.514 457.438 101.699 457.883 102.07C458.332 102.441 458.557 102.916 458.557 103.494H457.467C457.467 103.197 457.34 102.941 457.086 102.727C456.836 102.512 456.52 102.404 456.137 102.404C455.742 102.404 455.434 102.49 455.211 102.662C454.988 102.834 454.877 103.059 454.877 103.336C454.877 103.598 454.98 103.795 455.188 103.928C455.395 104.061 455.768 104.188 456.307 104.309C456.85 104.43 457.289 104.574 457.625 104.742C457.961 104.91 458.209 105.113 458.369 105.352C458.533 105.586 458.615 105.873 458.615 106.213C458.615 106.779 458.389 107.234 457.936 107.578C457.482 107.918 456.895 108.088 456.172 108.088C455.664 108.088 455.215 107.998 454.824 107.818C454.434 107.639 454.127 107.389 453.904 107.068C453.686 106.744 453.576 106.395 453.576 106.02H454.66C454.68 106.383 454.824 106.672 455.094 106.887C455.367 107.098 455.727 107.203 456.172 107.203C456.582 107.203 456.91 107.121 457.156 106.957C457.406 106.789 457.531 106.566 457.531 106.289Z" fill="#1F2432"/>
<path d="M432.9 88.9992C456.7 88.9992 476.1 69.6992 476.1 45.7992C476.1 21.8992 456.8 2.69922 432.9 2.69922C409.1 2.69922 389.7 21.9992 389.7 45.8992C389.7 69.7992 409.1 88.9992 432.9 88.9992Z" fill="#1F2432"/>
<path d="M451.501 50.9004V43.8004C451.501 40.6004 449.301 39.4004 447.101 39.4004H440.001C437.701 39.4004 435.601 40.7004 435.601 43.8004V50.9004" fill="#1F2432"/>
<path d="M451.501 50.9004V43.8004C451.501 40.6004 449.301 39.4004 447.101 39.4004H440.001C437.701 39.4004 435.601 40.7004 435.601 43.8004V50.9004" stroke="#00DCE6" stroke-miterlimit="10" stroke-linejoin="round"/>
<path d="M448 49.9988V43.7988" stroke="#00DCE6" stroke-miterlimit="10" stroke-linejoin="round"/>
<path d="M439.101 43.7988V49.9988" stroke="#00DCE6" stroke-miterlimit="10" stroke-linejoin="round"/>
<path d="M411.7 50.9004H416.1" stroke="#00DCE6" stroke-miterlimit="10" stroke-linejoin="round"/>
<path d="M432.101 50.9004H454.201" stroke="#00DCE6" stroke-miterlimit="10" stroke-linejoin="round"/>
<path d="M443.6 35.8C445.7 35.8 447.1 34.4 447.1 32.3V30.5C447.1 28.4 445.6 27 443.6 27C441.5 27 440.1 28.4 440.1 30.5V32.3C440 34.4 441.5 35.8 443.6 35.8Z" fill="#1F2432" stroke="#00DCE6" stroke-miterlimit="10" stroke-linejoin="round"/>
<path d="M428.501 54.4C430.401 54.1 432.001 53.6 432.001 50.9V42.9C432.001 39.7 429.801 38.5 427.601 38.5H420.501C418.201 38.5 416.101 39.8 416.101 42.9V50.9C416.101 53.6 417.701 54.1 419.601 54.4" fill="#1F2432"/>
<path d="M428.501 54.4C430.401 54.1 432.001 53.6 432.001 50.9V42.9C432.001 39.7 429.801 38.5 427.601 38.5H420.501C418.201 38.5 416.101 39.8 416.101 42.9V50.9C416.101 53.6 417.701 54.1 419.601 54.4" stroke="#00DCE6" stroke-miterlimit="10" stroke-linejoin="round"/>
<path d="M428.6 42.9004H419.7V58.0004H428.6V42.9004Z" fill="#1F2432" stroke="#00DCE6" stroke-miterlimit="10" stroke-linejoin="round"/>
<path d="M424.1 34.8996C426.2 34.8996 427.6 33.4996 427.6 31.3996V29.5996C427.6 27.4996 426.1 26.0996 424.1 26.0996C422 26.0996 420.6 27.4996 420.6 29.5996V31.3996C420.5 33.4996 422 34.8996 424.1 34.8996Z" fill="#1F2432" stroke="#00DCE6" stroke-miterlimit="10" stroke-linejoin="round"/>
<path d="M452.4 52.5996V64.9996" stroke="#00DCE6" stroke-miterlimit="10" stroke-linejoin="round"/>
<path d="M413.5 52.5996V64.9996" stroke="#00DCE6" stroke-miterlimit="10" stroke-linejoin="round"/>
<path d="M424.101 58V64.2" stroke="#00DCE6" stroke-miterlimit="10" stroke-linejoin="round"/>
<path d="M418.8 64.1992H429.4" stroke="#00DCE6" stroke-miterlimit="10" stroke-linejoin="round"/>
<path d="M19.7695 374.441H16.0723V377.465H20.3672V378.385H14.9473V369.854H20.3086V370.779H16.0723V373.521H19.7695V374.441ZM22.6172 372.045L22.6465 372.748C23.1113 372.201 23.7383 371.928 24.5273 371.928C25.4141 371.928 26.0176 372.268 26.3379 372.947C26.5488 372.643 26.8223 372.396 27.1582 372.209C27.498 372.021 27.8984 371.928 28.3594 371.928C29.75 371.928 30.457 372.664 30.4805 374.137V378.385H29.3965V374.201C29.3965 373.748 29.293 373.41 29.0859 373.188C28.8789 372.961 28.5312 372.848 28.043 372.848C27.6406 372.848 27.3066 372.969 27.041 373.211C26.7754 373.449 26.6211 373.771 26.5781 374.178V378.385H25.4883V374.23C25.4883 373.309 25.0371 372.848 24.1348 372.848C23.4238 372.848 22.9375 373.15 22.6758 373.756V378.385H21.5918V372.045H22.6172ZM37.4766 375.285C37.4766 376.25 37.2559 377.027 36.8145 377.617C36.373 378.207 35.7754 378.502 35.0215 378.502C34.252 378.502 33.6465 378.258 33.2051 377.77V380.822H32.1211V372.045H33.1113L33.1641 372.748C33.6055 372.201 34.2188 371.928 35.0039 371.928C35.7656 371.928 36.3672 372.215 36.8086 372.789C37.2539 373.363 37.4766 374.162 37.4766 375.186V375.285ZM36.3926 375.162C36.3926 374.447 36.2402 373.883 35.9355 373.469C35.6309 373.055 35.2129 372.848 34.6816 372.848C34.0254 372.848 33.5332 373.139 33.2051 373.721V376.75C33.5293 377.328 34.0254 377.617 34.6934 377.617C35.2129 377.617 35.625 377.412 35.9297 377.002C36.2383 376.588 36.3926 375.975 36.3926 375.162ZM40.0371 378.385H38.9531V369.385H40.0371V378.385ZM41.4902 375.156C41.4902 374.535 41.6113 373.977 41.8535 373.48C42.0996 372.984 42.4395 372.602 42.873 372.332C43.3105 372.062 43.8086 371.928 44.3672 371.928C45.2305 371.928 45.9277 372.227 46.459 372.824C46.9941 373.422 47.2617 374.217 47.2617 375.209V375.285C47.2617 375.902 47.1426 376.457 46.9043 376.949C46.6699 377.438 46.332 377.818 45.8906 378.092C45.4531 378.365 44.9492 378.502 44.3789 378.502C43.5195 378.502 42.8223 378.203 42.2871 377.605C41.7559 377.008 41.4902 376.217 41.4902 375.232V375.156ZM42.5801 375.285C42.5801 375.988 42.7422 376.553 43.0664 376.979C43.3945 377.404 43.832 377.617 44.3789 377.617C44.9297 377.617 45.3672 377.402 45.6914 376.973C46.0156 376.539 46.1777 375.934 46.1777 375.156C46.1777 374.461 46.0117 373.898 45.6797 373.469C45.3516 373.035 44.9141 372.818 44.3672 372.818C43.832 372.818 43.4004 373.031 43.0723 373.457C42.7441 373.883 42.5801 374.492 42.5801 375.285ZM50.6016 376.797L52.0781 372.045H53.2383L50.6895 379.363C50.2949 380.418 49.668 380.945 48.8086 380.945L48.6035 380.928L48.1992 380.852V379.973L48.4922 379.996C48.8594 379.996 49.1445 379.922 49.3477 379.773C49.5547 379.625 49.7246 379.354 49.8574 378.959L50.0977 378.314L47.8359 372.045H49.0195L50.6016 376.797ZM56.7598 378.502C55.9004 378.502 55.2012 378.221 54.6621 377.658C54.123 377.092 53.8535 376.336 53.8535 375.391V375.191C53.8535 374.562 53.9727 374.002 54.2109 373.51C54.4531 373.014 54.7891 372.627 55.2188 372.35C55.6523 372.068 56.1211 371.928 56.625 371.928C57.4492 371.928 58.0898 372.199 58.5469 372.742C59.0039 373.285 59.2324 374.062 59.2324 375.074V375.525H54.9375C54.9531 376.15 55.1348 376.656 55.4824 377.043C55.834 377.426 56.2793 377.617 56.8184 377.617C57.2012 377.617 57.5254 377.539 57.791 377.383C58.0566 377.227 58.2891 377.02 58.4883 376.762L59.1504 377.277C58.6191 378.094 57.8223 378.502 56.7598 378.502ZM56.625 372.818C56.1875 372.818 55.8203 372.979 55.5234 373.299C55.2266 373.615 55.043 374.061 54.9727 374.635H58.1484V374.553C58.1172 374.002 57.9688 373.576 57.7031 373.275C57.4375 372.971 57.0781 372.818 56.625 372.818ZM63.5566 373.018C63.3926 372.99 63.2148 372.977 63.0234 372.977C62.3125 372.977 61.8301 373.279 61.5762 373.885V378.385H60.4922V372.045H61.5469L61.5645 372.777C61.9199 372.211 62.4238 371.928 63.0762 371.928C63.2871 371.928 63.4473 371.955 63.5566 372.01V373.018ZM68.25 376.703C68.25 376.41 68.1387 376.184 67.916 376.023C67.6973 375.859 67.3125 375.719 66.7617 375.602C66.2148 375.484 65.7793 375.344 65.4551 375.18C65.1348 375.016 64.8965 374.82 64.7402 374.594C64.5879 374.367 64.5117 374.098 64.5117 373.785C64.5117 373.266 64.7305 372.826 65.168 372.467C65.6094 372.107 66.1719 371.928 66.8555 371.928C67.5742 371.928 68.1562 372.113 68.6016 372.484C69.0508 372.855 69.2754 373.33 69.2754 373.908H68.1855C68.1855 373.611 68.0586 373.355 67.8047 373.141C67.5547 372.926 67.2383 372.818 66.8555 372.818C66.4609 372.818 66.1523 372.904 65.9297 373.076C65.707 373.248 65.5957 373.473 65.5957 373.75C65.5957 374.012 65.6992 374.209 65.9062 374.342C66.1133 374.475 66.4863 374.602 67.0254 374.723C67.5684 374.844 68.0078 374.988 68.3438 375.156C68.6797 375.324 68.9277 375.527 69.0879 375.766C69.252 376 69.334 376.287 69.334 376.627C69.334 377.193 69.1074 377.648 68.6543 377.992C68.2012 378.332 67.6133 378.502 66.8906 378.502C66.3828 378.502 65.9336 378.412 65.543 378.232C65.1523 378.053 64.8457 377.803 64.623 377.482C64.4043 377.158 64.2949 376.809 64.2949 376.434H65.3789C65.3984 376.797 65.543 377.086 65.8125 377.301C66.0859 377.512 66.4453 377.617 66.8906 377.617C67.3008 377.617 67.6289 377.535 67.875 377.371C68.125 377.203 68.25 376.98 68.25 376.703Z" fill="#1F2432"/>
<path d="M43.7 360.9C67.5 360.9 86.9 341.6 86.9 317.7C86.9 293.9 67.6 274.5 43.7 274.5C19.8 274.5 0.5 294 0.5 317.8C0.5 341.6 19.8 360.9 43.7 360.9Z" fill="#1F2432"/>
<path d="M62.3004 322.799V315.699C62.3004 312.499 60.1004 311.299 57.9004 311.299H50.8004C48.5004 311.299 46.4004 312.599 46.4004 315.699V322.799" fill="#1F2432"/>
<path d="M62.3004 322.799V315.699C62.3004 312.499 60.1004 311.299 57.9004 311.299H50.8004C48.5004 311.299 46.4004 312.599 46.4004 315.699V322.799" stroke="#00DCE6" stroke-miterlimit="10" stroke-linejoin="round"/>
<path d="M58.7002 321.999V315.799" stroke="#00DCE6" stroke-miterlimit="10" stroke-linejoin="round"/>
<path d="M49.9004 315.799V321.999" stroke="#00DCE6" stroke-miterlimit="10" stroke-linejoin="round"/>
<path d="M22.4004 322.799H26.8004" stroke="#00DCE6" stroke-miterlimit="10" stroke-linejoin="round"/>
<path d="M42.8008 322.799H64.9008" stroke="#00DCE6" stroke-miterlimit="10" stroke-linejoin="round"/>
<path d="M54.3006 307.8C56.4006 307.8 57.8006 306.4 57.8006 304.3V302.5C57.8006 300.4 56.3006 299 54.3006 299C52.2006 299 50.8006 300.4 50.8006 302.5V304.3C50.7006 306.3 52.2006 307.8 54.3006 307.8Z" fill="#1F2432" stroke="#00DCE6" stroke-miterlimit="10" stroke-linejoin="round"/>
<path d="M39.2008 326.4C41.1008 326.1 42.7008 325.6 42.7008 322.9V314.9C42.7008 311.7 40.5008 310.5 38.3008 310.5H31.2008C28.9008 310.5 26.8008 311.8 26.8008 314.9V322.9C26.8008 325.6 28.4008 326.1 30.3008 326.4" fill="#1F2432"/>
<path d="M39.2008 326.4C41.1008 326.1 42.7008 325.6 42.7008 322.9V314.9C42.7008 311.7 40.5008 310.5 38.3008 310.5H31.2008C28.9008 310.5 26.8008 311.8 26.8008 314.9V322.9C26.8008 325.6 28.4008 326.1 30.3008 326.4" stroke="#00DCE6" stroke-miterlimit="10" stroke-linejoin="round"/>
<path d="M39.3004 314.9H30.4004V330H39.3004V314.9Z" fill="#1F2432" stroke="#00DCE6" stroke-miterlimit="10" stroke-linejoin="round"/>
<path d="M34.8008 306.9C36.9008 306.9 38.3008 305.5 38.3008 303.4V301.6C38.3008 299.5 36.8008 298.1 34.8008 298.1C32.7008 298.1 31.3008 299.5 31.3008 301.6V303.4C31.3008 305.5 32.7008 306.9 34.8008 306.9Z" fill="#1F2432" stroke="#00DCE6" stroke-miterlimit="10" stroke-linejoin="round"/>
<path d="M63.1006 324.6V337" stroke="#00DCE6" stroke-miterlimit="10" stroke-linejoin="round"/>
<path d="M24.2002 324.6V337" stroke="#00DCE6" stroke-miterlimit="10" stroke-linejoin="round"/>
<path d="M34.8008 329.9V336.1" stroke="#00DCE6" stroke-miterlimit="10" stroke-linejoin="round"/>
<path d="M29.5 336.1H40.1" stroke="#00DCE6" stroke-miterlimit="10" stroke-linejoin="round"/>
<path d="M285.721 105.744H282.146L281.344 107.971H280.184L283.441 99.4395H284.426L287.689 107.971H286.535L285.721 105.744ZM282.486 104.818H285.387L283.934 100.828L282.486 104.818ZM291.211 107.203C291.598 107.203 291.936 107.086 292.225 106.852C292.514 106.617 292.674 106.324 292.705 105.973H293.73C293.711 106.336 293.586 106.682 293.355 107.01C293.125 107.338 292.816 107.6 292.43 107.795C292.047 107.99 291.641 108.088 291.211 108.088C290.348 108.088 289.66 107.801 289.148 107.227C288.641 106.648 288.387 105.859 288.387 104.859V104.678C288.387 104.061 288.5 103.512 288.727 103.031C288.953 102.551 289.277 102.178 289.699 101.912C290.125 101.646 290.627 101.514 291.205 101.514C291.916 101.514 292.506 101.727 292.975 102.152C293.447 102.578 293.699 103.131 293.73 103.811H292.705C292.674 103.4 292.518 103.064 292.236 102.803C291.959 102.537 291.615 102.404 291.205 102.404C290.654 102.404 290.227 102.604 289.922 103.002C289.621 103.396 289.471 103.969 289.471 104.719V104.924C289.471 105.654 289.621 106.217 289.922 106.611C290.223 107.006 290.652 107.203 291.211 107.203ZM297.492 107.203C297.879 107.203 298.217 107.086 298.506 106.852C298.795 106.617 298.955 106.324 298.986 105.973H300.012C299.992 106.336 299.867 106.682 299.637 107.01C299.406 107.338 299.098 107.6 298.711 107.795C298.328 107.99 297.922 108.088 297.492 108.088C296.629 108.088 295.941 107.801 295.43 107.227C294.922 106.648 294.668 105.859 294.668 104.859V104.678C294.668 104.061 294.781 103.512 295.008 103.031C295.234 102.551 295.559 102.178 295.98 101.912C296.406 101.646 296.908 101.514 297.486 101.514C298.197 101.514 298.787 101.727 299.256 102.152C299.729 102.578 299.98 103.131 300.012 103.811H298.986C298.955 103.4 298.799 103.064 298.518 102.803C298.24 102.537 297.896 102.404 297.486 102.404C296.936 102.404 296.508 102.604 296.203 103.002C295.902 103.396 295.752 103.969 295.752 104.719V104.924C295.752 105.654 295.902 106.217 296.203 106.611C296.504 107.006 296.934 107.203 297.492 107.203ZM304.295 102.604C304.131 102.576 303.953 102.562 303.762 102.562C303.051 102.562 302.568 102.865 302.314 103.471V107.971H301.23V101.631H302.285L302.303 102.363C302.658 101.797 303.162 101.514 303.814 101.514C304.025 101.514 304.186 101.541 304.295 101.596V102.604ZM307.811 108.088C306.951 108.088 306.252 107.807 305.713 107.244C305.174 106.678 304.904 105.922 304.904 104.977V104.777C304.904 104.148 305.023 103.588 305.262 103.096C305.504 102.6 305.84 102.213 306.27 101.936C306.703 101.654 307.172 101.514 307.676 101.514C308.5 101.514 309.141 101.785 309.598 102.328C310.055 102.871 310.283 103.648 310.283 104.66V105.111H305.988C306.004 105.736 306.186 106.242 306.533 106.629C306.885 107.012 307.33 107.203 307.869 107.203C308.252 107.203 308.576 107.125 308.842 106.969C309.107 106.812 309.34 106.605 309.539 106.348L310.201 106.863C309.67 107.68 308.873 108.088 307.811 108.088ZM307.676 102.404C307.238 102.404 306.871 102.564 306.574 102.885C306.277 103.201 306.094 103.646 306.023 104.221H309.199V104.139C309.168 103.588 309.02 103.162 308.754 102.861C308.488 102.557 308.129 102.404 307.676 102.404ZM311.279 104.748C311.279 103.775 311.51 102.994 311.971 102.404C312.432 101.811 313.035 101.514 313.781 101.514C314.523 101.514 315.111 101.768 315.545 102.275V98.9707H316.629V107.971H315.633L315.58 107.291C315.146 107.822 314.543 108.088 313.77 108.088C313.035 108.088 312.436 107.787 311.971 107.186C311.51 106.584 311.279 105.799 311.279 104.83V104.748ZM312.363 104.871C312.363 105.59 312.512 106.152 312.809 106.559C313.105 106.965 313.516 107.168 314.039 107.168C314.727 107.168 315.229 106.859 315.545 106.242V103.33C315.221 102.732 314.723 102.434 314.051 102.434C313.52 102.434 313.105 102.639 312.809 103.049C312.512 103.459 312.363 104.066 312.363 104.871ZM319.494 107.971H318.41V101.631H319.494V107.971ZM318.322 99.9492C318.322 99.7734 318.375 99.625 318.48 99.5039C318.59 99.3828 318.75 99.3223 318.961 99.3223C319.172 99.3223 319.332 99.3828 319.441 99.5039C319.551 99.625 319.605 99.7734 319.605 99.9492C319.605 100.125 319.551 100.271 319.441 100.389C319.332 100.506 319.172 100.564 318.961 100.564C318.75 100.564 318.59 100.506 318.48 100.389C318.375 100.271 318.322 100.125 318.322 99.9492ZM322.705 100.096V101.631H323.889V102.469H322.705V106.4C322.705 106.654 322.758 106.846 322.863 106.975C322.969 107.1 323.148 107.162 323.402 107.162C323.527 107.162 323.699 107.139 323.918 107.092V107.971C323.633 108.049 323.355 108.088 323.086 108.088C322.602 108.088 322.236 107.941 321.99 107.648C321.744 107.355 321.621 106.939 321.621 106.4V102.469H320.467V101.631H321.621V100.096H322.705ZM324.756 104.742C324.756 104.121 324.877 103.562 325.119 103.066C325.365 102.57 325.705 102.188 326.139 101.918C326.576 101.648 327.074 101.514 327.633 101.514C328.496 101.514 329.193 101.812 329.725 102.41C330.26 103.008 330.527 103.803 330.527 104.795V104.871C330.527 105.488 330.408 106.043 330.17 106.535C329.936 107.023 329.598 107.404 329.156 107.678C328.719 107.951 328.215 108.088 327.645 108.088C326.785 108.088 326.088 107.789 325.553 107.191C325.021 106.594 324.756 105.803 324.756 104.818V104.742ZM325.846 104.871C325.846 105.574 326.008 106.139 326.332 106.564C326.66 106.99 327.098 107.203 327.645 107.203C328.195 107.203 328.633 106.988 328.957 106.559C329.281 106.125 329.443 105.52 329.443 104.742C329.443 104.047 329.277 103.484 328.945 103.055C328.617 102.621 328.18 102.404 327.633 102.404C327.098 102.404 326.666 102.617 326.338 103.043C326.01 103.469 325.846 104.078 325.846 104.871ZM334.951 102.604C334.787 102.576 334.609 102.562 334.418 102.562C333.707 102.562 333.225 102.865 332.971 103.471V107.971H331.887V101.631H332.941L332.959 102.363C333.314 101.797 333.818 101.514 334.471 101.514C334.682 101.514 334.842 101.541 334.951 101.596V102.604ZM339.645 106.289C339.645 105.996 339.533 105.77 339.311 105.609C339.092 105.445 338.707 105.305 338.156 105.188C337.609 105.07 337.174 104.93 336.85 104.766C336.529 104.602 336.291 104.406 336.135 104.18C335.982 103.953 335.906 103.684 335.906 103.371C335.906 102.852 336.125 102.412 336.562 102.053C337.004 101.693 337.566 101.514 338.25 101.514C338.969 101.514 339.551 101.699 339.996 102.07C340.445 102.441 340.67 102.916 340.67 103.494H339.58C339.58 103.197 339.453 102.941 339.199 102.727C338.949 102.512 338.633 102.404 338.25 102.404C337.855 102.404 337.547 102.49 337.324 102.662C337.102 102.834 336.99 103.059 336.99 103.336C336.99 103.598 337.094 103.795 337.301 103.928C337.508 104.061 337.881 104.188 338.42 104.309C338.963 104.43 339.402 104.574 339.738 104.742C340.074 104.91 340.322 105.113 340.482 105.352C340.646 105.586 340.729 105.873 340.729 106.213C340.729 106.779 340.502 107.234 340.049 107.578C339.596 107.918 339.008 108.088 338.285 108.088C337.777 108.088 337.328 107.998 336.938 107.818C336.547 107.639 336.24 107.389 336.018 107.068C335.799 106.744 335.689 106.395 335.689 106.02H336.773C336.793 106.383 336.938 106.672 337.207 106.887C337.48 107.098 337.84 107.203 338.285 107.203C338.695 107.203 339.023 107.121 339.27 106.957C339.52 106.789 339.645 106.566 339.645 106.289ZM342.105 109.67L341.49 109.248C341.857 108.736 342.049 108.209 342.064 107.666V106.688H343.125V107.537C343.125 107.932 343.027 108.326 342.832 108.721C342.641 109.115 342.398 109.432 342.105 109.67Z" fill="#1F2432"/>
<path d="M260.932 120.9L262.502 116.031H263.609L261.336 122.371H260.51L258.213 116.031H259.32L260.932 120.9ZM268.473 122.371C268.41 122.246 268.359 122.023 268.32 121.703C267.816 122.227 267.215 122.488 266.516 122.488C265.891 122.488 265.377 122.312 264.975 121.961C264.576 121.605 264.377 121.156 264.377 120.613C264.377 119.953 264.627 119.441 265.127 119.078C265.631 118.711 266.338 118.527 267.248 118.527H268.303V118.029C268.303 117.65 268.189 117.35 267.963 117.127C267.736 116.9 267.402 116.787 266.961 116.787C266.574 116.787 266.25 116.885 265.988 117.08C265.727 117.275 265.596 117.512 265.596 117.789H264.506C264.506 117.473 264.617 117.168 264.84 116.875C265.066 116.578 265.371 116.344 265.754 116.172C266.141 116 266.564 115.914 267.025 115.914C267.756 115.914 268.328 116.098 268.742 116.465C269.156 116.828 269.371 117.33 269.387 117.971V120.889C269.387 121.471 269.461 121.934 269.609 122.277V122.371H268.473ZM266.674 121.545C267.014 121.545 267.336 121.457 267.641 121.281C267.945 121.105 268.166 120.877 268.303 120.596V119.295H267.453C266.125 119.295 265.461 119.684 265.461 120.461C265.461 120.801 265.574 121.066 265.801 121.258C266.027 121.449 266.318 121.545 266.674 121.545ZM272.264 122.371H271.18V113.371H272.264V122.371ZM275.182 122.371H274.098V116.031H275.182V122.371ZM274.01 114.35C274.01 114.174 274.062 114.025 274.168 113.904C274.277 113.783 274.438 113.723 274.648 113.723C274.859 113.723 275.02 113.783 275.129 113.904C275.238 114.025 275.293 114.174 275.293 114.35C275.293 114.525 275.238 114.672 275.129 114.789C275.02 114.906 274.859 114.965 274.648 114.965C274.438 114.965 274.277 114.906 274.168 114.789C274.062 114.672 274.01 114.525 274.01 114.35ZM276.658 119.148C276.658 118.176 276.889 117.395 277.35 116.805C277.811 116.211 278.414 115.914 279.16 115.914C279.902 115.914 280.49 116.168 280.924 116.676V113.371H282.008V122.371H281.012L280.959 121.691C280.525 122.223 279.922 122.488 279.148 122.488C278.414 122.488 277.814 122.188 277.35 121.586C276.889 120.984 276.658 120.199 276.658 119.23V119.148ZM277.742 119.271C277.742 119.99 277.891 120.553 278.188 120.959C278.484 121.365 278.895 121.568 279.418 121.568C280.105 121.568 280.607 121.26 280.924 120.643V117.73C280.6 117.133 280.102 116.834 279.43 116.834C278.898 116.834 278.484 117.039 278.188 117.449C277.891 117.859 277.742 118.467 277.742 119.271ZM287.609 122.371C287.547 122.246 287.496 122.023 287.457 121.703C286.953 122.227 286.352 122.488 285.652 122.488C285.027 122.488 284.514 122.312 284.111 121.961C283.713 121.605 283.514 121.156 283.514 120.613C283.514 119.953 283.764 119.441 284.264 119.078C284.768 118.711 285.475 118.527 286.385 118.527H287.439V118.029C287.439 117.65 287.326 117.35 287.1 117.127C286.873 116.9 286.539 116.787 286.098 116.787C285.711 116.787 285.387 116.885 285.125 117.08C284.863 117.275 284.732 117.512 284.732 117.789H283.643C283.643 117.473 283.754 117.168 283.977 116.875C284.203 116.578 284.508 116.344 284.891 116.172C285.277 116 285.701 115.914 286.162 115.914C286.893 115.914 287.465 116.098 287.879 116.465C288.293 116.828 288.508 117.33 288.523 117.971V120.889C288.523 121.471 288.598 121.934 288.746 122.277V122.371H287.609ZM285.811 121.545C286.15 121.545 286.473 121.457 286.777 121.281C287.082 121.105 287.303 120.877 287.439 120.596V119.295H286.59C285.262 119.295 284.598 119.684 284.598 120.461C284.598 120.801 284.711 121.066 284.938 121.258C285.164 121.449 285.455 121.545 285.811 121.545ZM291.693 114.496V116.031H292.877V116.869H291.693V120.801C291.693 121.055 291.746 121.246 291.852 121.375C291.957 121.5 292.137 121.562 292.391 121.562C292.516 121.562 292.688 121.539 292.906 121.492V122.371C292.621 122.449 292.344 122.488 292.074 122.488C291.59 122.488 291.225 122.342 290.979 122.049C290.732 121.756 290.609 121.34 290.609 120.801V116.869H289.455V116.031H290.609V114.496H291.693ZM293.744 119.143C293.744 118.521 293.865 117.963 294.107 117.467C294.354 116.971 294.693 116.588 295.127 116.318C295.564 116.049 296.062 115.914 296.621 115.914C297.484 115.914 298.182 116.213 298.713 116.811C299.248 117.408 299.516 118.203 299.516 119.195V119.271C299.516 119.889 299.396 120.443 299.158 120.936C298.924 121.424 298.586 121.805 298.145 122.078C297.707 122.352 297.203 122.488 296.633 122.488C295.773 122.488 295.076 122.189 294.541 121.592C294.01 120.994 293.744 120.203 293.744 119.219V119.143ZM294.834 119.271C294.834 119.975 294.996 120.539 295.32 120.965C295.648 121.391 296.086 121.604 296.633 121.604C297.184 121.604 297.621 121.389 297.945 120.959C298.27 120.525 298.432 119.92 298.432 119.143C298.432 118.447 298.266 117.885 297.934 117.455C297.605 117.021 297.168 116.805 296.621 116.805C296.086 116.805 295.654 117.018 295.326 117.443C294.998 117.869 294.834 118.479 294.834 119.271ZM303.939 117.004C303.775 116.977 303.598 116.963 303.406 116.963C302.695 116.963 302.213 117.266 301.959 117.871V122.371H300.875V116.031H301.93L301.947 116.764C302.303 116.197 302.807 115.914 303.459 115.914C303.67 115.914 303.83 115.941 303.939 115.996V117.004ZM308.633 120.689C308.633 120.396 308.521 120.17 308.299 120.01C308.08 119.846 307.695 119.705 307.145 119.588C306.598 119.471 306.162 119.33 305.838 119.166C305.518 119.002 305.279 118.807 305.123 118.58C304.971 118.354 304.895 118.084 304.895 117.771C304.895 117.252 305.113 116.812 305.551 116.453C305.992 116.094 306.555 115.914 307.238 115.914C307.957 115.914 308.539 116.1 308.984 116.471C309.434 116.842 309.658 117.316 309.658 117.895H308.568C308.568 117.598 308.441 117.342 308.188 117.127C307.938 116.912 307.621 116.805 307.238 116.805C306.844 116.805 306.535 116.891 306.312 117.062C306.09 117.234 305.979 117.459 305.979 117.736C305.979 117.998 306.082 118.195 306.289 118.328C306.496 118.461 306.869 118.588 307.408 118.709C307.951 118.83 308.391 118.975 308.727 119.143C309.062 119.311 309.311 119.514 309.471 119.752C309.635 119.986 309.717 120.273 309.717 120.613C309.717 121.18 309.49 121.635 309.037 121.979C308.584 122.318 307.996 122.488 307.273 122.488C306.766 122.488 306.316 122.398 305.926 122.219C305.535 122.039 305.229 121.789 305.006 121.469C304.787 121.145 304.678 120.795 304.678 120.42H305.762C305.781 120.783 305.926 121.072 306.195 121.287C306.469 121.498 306.828 121.604 307.273 121.604C307.684 121.604 308.012 121.521 308.258 121.357C308.508 121.189 308.633 120.967 308.633 120.689ZM313.877 120.08C313.877 119.67 313.99 119.293 314.217 118.949C314.447 118.605 314.885 118.205 315.529 117.748C315.15 117.287 314.896 116.916 314.768 116.635C314.639 116.354 314.574 116.074 314.574 115.797C314.574 115.148 314.766 114.641 315.148 114.273C315.531 113.906 316.051 113.723 316.707 113.723C317.293 113.723 317.777 113.895 318.16 114.238C318.543 114.578 318.734 115.008 318.734 115.527C318.734 115.871 318.646 116.189 318.471 116.482C318.299 116.771 317.996 117.076 317.562 117.396L316.936 117.859L318.834 120.127C319.1 119.619 319.232 119.055 319.232 118.434H320.211C320.211 119.43 319.971 120.256 319.49 120.912L320.709 122.371H319.408L318.84 121.697C318.551 121.955 318.211 122.152 317.82 122.289C317.434 122.422 317.039 122.488 316.637 122.488C315.805 122.488 315.137 122.268 314.633 121.826C314.129 121.385 313.877 120.803 313.877 120.08ZM316.637 121.604C317.211 121.604 317.736 121.385 318.213 120.947L316.133 118.457L315.939 118.598C315.287 119.078 314.961 119.572 314.961 120.08C314.961 120.541 315.109 120.91 315.406 121.188C315.707 121.465 316.117 121.604 316.637 121.604ZM315.658 115.762C315.658 116.137 315.889 116.605 316.35 117.168L317.041 116.682C317.307 116.494 317.488 116.316 317.586 116.148C317.684 115.977 317.732 115.77 317.732 115.527C317.732 115.266 317.635 115.049 317.439 114.877C317.244 114.701 316.998 114.613 316.701 114.613C316.381 114.613 316.127 114.723 315.939 114.941C315.752 115.156 315.658 115.43 315.658 115.762ZM326.018 114.496V116.031H327.201V116.869H326.018V120.801C326.018 121.055 326.07 121.246 326.176 121.375C326.281 121.5 326.461 121.562 326.715 121.562C326.84 121.562 327.012 121.539 327.23 121.492V122.371C326.945 122.449 326.668 122.488 326.398 122.488C325.914 122.488 325.549 122.342 325.303 122.049C325.057 121.756 324.934 121.34 324.934 120.801V116.869H323.779V116.031H324.934V114.496H326.018ZM331.104 122.488C330.244 122.488 329.545 122.207 329.006 121.645C328.467 121.078 328.197 120.322 328.197 119.377V119.178C328.197 118.549 328.316 117.988 328.555 117.496C328.797 117 329.133 116.613 329.562 116.336C329.996 116.055 330.465 115.914 330.969 115.914C331.793 115.914 332.434 116.186 332.891 116.729C333.348 117.271 333.576 118.049 333.576 119.061V119.512H329.281C329.297 120.137 329.479 120.643 329.826 121.029C330.178 121.412 330.623 121.604 331.162 121.604C331.545 121.604 331.869 121.525 332.135 121.369C332.4 121.213 332.633 121.006 332.832 120.748L333.494 121.264C332.963 122.08 332.166 122.488 331.104 122.488ZM330.969 116.805C330.531 116.805 330.164 116.965 329.867 117.285C329.57 117.602 329.387 118.047 329.316 118.621H332.492V118.539C332.461 117.988 332.312 117.562 332.047 117.262C331.781 116.957 331.422 116.805 330.969 116.805ZM338.527 120.689C338.527 120.396 338.416 120.17 338.193 120.01C337.975 119.846 337.59 119.705 337.039 119.588C336.492 119.471 336.057 119.33 335.732 119.166C335.412 119.002 335.174 118.807 335.018 118.58C334.865 118.354 334.789 118.084 334.789 117.771C334.789 117.252 335.008 116.812 335.445 116.453C335.887 116.094 336.449 115.914 337.133 115.914C337.852 115.914 338.434 116.1 338.879 116.471C339.328 116.842 339.553 117.316 339.553 117.895H338.463C338.463 117.598 338.336 117.342 338.082 117.127C337.832 116.912 337.516 116.805 337.133 116.805C336.738 116.805 336.43 116.891 336.207 117.062C335.984 117.234 335.873 117.459 335.873 117.736C335.873 117.998 335.977 118.195 336.184 118.328C336.391 118.461 336.764 118.588 337.303 118.709C337.846 118.83 338.285 118.975 338.621 119.143C338.957 119.311 339.205 119.514 339.365 119.752C339.529 119.986 339.611 120.273 339.611 120.613C339.611 121.18 339.385 121.635 338.932 121.979C338.479 122.318 337.891 122.488 337.168 122.488C336.66 122.488 336.211 122.398 335.82 122.219C335.43 122.039 335.123 121.789 334.9 121.469C334.682 121.145 334.572 120.795 334.572 120.42H335.656C335.676 120.783 335.82 121.072 336.09 121.287C336.363 121.498 336.723 121.604 337.168 121.604C337.578 121.604 337.906 121.521 338.152 121.357C338.402 121.189 338.527 120.967 338.527 120.689ZM342.494 114.496V116.031H343.678V116.869H342.494V120.801C342.494 121.055 342.547 121.246 342.652 121.375C342.758 121.5 342.938 121.562 343.191 121.562C343.316 121.562 343.488 121.539 343.707 121.492V122.371C343.422 122.449 343.145 122.488 342.875 122.488C342.391 122.488 342.025 122.342 341.779 122.049C341.533 121.756 341.41 121.34 341.41 120.801V116.869H340.256V116.031H341.41V114.496H342.494ZM347.58 122.488C346.721 122.488 346.021 122.207 345.482 121.645C344.943 121.078 344.674 120.322 344.674 119.377V119.178C344.674 118.549 344.793 117.988 345.031 117.496C345.273 117 345.609 116.613 346.039 116.336C346.473 116.055 346.941 115.914 347.445 115.914C348.27 115.914 348.91 116.186 349.367 116.729C349.824 117.271 350.053 118.049 350.053 119.061V119.512H345.758C345.773 120.137 345.955 120.643 346.303 121.029C346.654 121.412 347.1 121.604 347.639 121.604C348.021 121.604 348.346 121.525 348.611 121.369C348.877 121.213 349.109 121.006 349.309 120.748L349.971 121.264C349.439 122.08 348.643 122.488 347.58 122.488ZM347.445 116.805C347.008 116.805 346.641 116.965 346.344 117.285C346.047 117.602 345.863 118.047 345.793 118.621H348.969V118.539C348.938 117.988 348.789 117.562 348.523 117.262C348.258 116.957 347.898 116.805 347.445 116.805ZM354.377 117.004C354.213 116.977 354.035 116.963 353.844 116.963C353.133 116.963 352.65 117.266 352.396 117.871V122.371H351.312V116.031H352.367L352.385 116.764C352.74 116.197 353.244 115.914 353.896 115.914C354.107 115.914 354.268 115.941 354.377 115.996V117.004ZM359.07 120.689C359.07 120.396 358.959 120.17 358.736 120.01C358.518 119.846 358.133 119.705 357.582 119.588C357.035 119.471 356.6 119.33 356.275 119.166C355.955 119.002 355.717 118.807 355.561 118.58C355.408 118.354 355.332 118.084 355.332 117.771C355.332 117.252 355.551 116.812 355.988 116.453C356.43 116.094 356.992 115.914 357.676 115.914C358.395 115.914 358.977 116.1 359.422 116.471C359.871 116.842 360.096 117.316 360.096 117.895H359.006C359.006 117.598 358.879 117.342 358.625 117.127C358.375 116.912 358.059 116.805 357.676 116.805C357.281 116.805 356.973 116.891 356.75 117.062C356.527 117.234 356.416 117.459 356.416 117.736C356.416 117.998 356.52 118.195 356.727 118.328C356.934 118.461 357.307 118.588 357.846 118.709C358.389 118.83 358.828 118.975 359.164 119.143C359.5 119.311 359.748 119.514 359.908 119.752C360.072 119.986 360.154 120.273 360.154 120.613C360.154 121.18 359.928 121.635 359.475 121.979C359.021 122.318 358.434 122.488 357.711 122.488C357.203 122.488 356.754 122.398 356.363 122.219C355.973 122.039 355.666 121.789 355.443 121.469C355.225 121.145 355.115 120.795 355.115 120.42H356.199C356.219 120.783 356.363 121.072 356.633 121.287C356.906 121.498 357.266 121.604 357.711 121.604C358.121 121.604 358.449 121.521 358.695 121.357C358.945 121.189 359.07 120.967 359.07 120.689Z" fill="#1F2432"/>
<path d="M312.8 88.9992C336.6 88.9992 356 69.6992 356 45.7992C356 21.8992 336.6 2.69922 312.8 2.69922C289 2.69922 269.6 21.9992 269.6 45.8992C269.6 69.7992 288.9 88.9992 312.8 88.9992Z" fill="#1F2432"/>
<path d="M312.8 26.0996L292.5 36.5996V39.1996H312.8H333V36.5996L312.8 26.0996Z" fill="#1F2432" stroke="#00DCE6" stroke-miterlimit="10"/>
<path d="M299.7 41.1992V57.7992" stroke="#00DCE6" stroke-miterlimit="10"/>
<path d="M308.1 41.1992V57.7992" stroke="#00DCE6" stroke-miterlimit="10"/>
<path d="M333.1 60.1992H292.5" stroke="#00DCE6" stroke-miterlimit="10"/>
<path d="M333.1 65.9004H292.5" stroke="#00DCE6" stroke-miterlimit="10"/>
<path d="M317.3 41.1992V57.7992" stroke="#00DCE6" stroke-miterlimit="10"/>
<path d="M325.8 41.1992V57.7992" stroke="#00DCE6" stroke-miterlimit="10"/>
<path d="M146.687 376.158H143.112L142.31 378.385H141.149L144.407 369.854H145.392L148.655 378.385H147.501L146.687 376.158ZM143.452 375.232H146.353L144.899 371.242L143.452 375.232ZM152.177 377.617C152.563 377.617 152.901 377.5 153.19 377.266C153.479 377.031 153.64 376.738 153.671 376.387H154.696C154.677 376.75 154.552 377.096 154.321 377.424C154.091 377.752 153.782 378.014 153.396 378.209C153.013 378.404 152.606 378.502 152.177 378.502C151.313 378.502 150.626 378.215 150.114 377.641C149.606 377.062 149.353 376.273 149.353 375.273V375.092C149.353 374.475 149.466 373.926 149.692 373.445C149.919 372.965 150.243 372.592 150.665 372.326C151.091 372.061 151.593 371.928 152.171 371.928C152.882 371.928 153.472 372.141 153.94 372.566C154.413 372.992 154.665 373.545 154.696 374.225H153.671C153.64 373.814 153.483 373.479 153.202 373.217C152.925 372.951 152.581 372.818 152.171 372.818C151.62 372.818 151.192 373.018 150.888 373.416C150.587 373.811 150.437 374.383 150.437 375.133V375.338C150.437 376.068 150.587 376.631 150.888 377.025C151.188 377.42 151.618 377.617 152.177 377.617ZM158.458 377.617C158.845 377.617 159.183 377.5 159.472 377.266C159.761 377.031 159.921 376.738 159.952 376.387H160.978C160.958 376.75 160.833 377.096 160.603 377.424C160.372 377.752 160.063 378.014 159.677 378.209C159.294 378.404 158.888 378.502 158.458 378.502C157.595 378.502 156.907 378.215 156.396 377.641C155.888 377.062 155.634 376.273 155.634 375.273V375.092C155.634 374.475 155.747 373.926 155.974 373.445C156.2 372.965 156.524 372.592 156.946 372.326C157.372 372.061 157.874 371.928 158.452 371.928C159.163 371.928 159.753 372.141 160.222 372.566C160.694 372.992 160.946 373.545 160.978 374.225H159.952C159.921 373.814 159.765 373.479 159.483 373.217C159.206 372.951 158.862 372.818 158.452 372.818C157.901 372.818 157.474 373.018 157.169 373.416C156.868 373.811 156.718 374.383 156.718 375.133V375.338C156.718 376.068 156.868 376.631 157.169 377.025C157.47 377.42 157.899 377.617 158.458 377.617ZM165.261 373.018C165.097 372.99 164.919 372.977 164.728 372.977C164.017 372.977 163.534 373.279 163.28 373.885V378.385H162.196V372.045H163.251L163.269 372.777C163.624 372.211 164.128 371.928 164.78 371.928C164.991 371.928 165.151 371.955 165.261 372.01V373.018ZM168.776 378.502C167.917 378.502 167.218 378.221 166.679 377.658C166.14 377.092 165.87 376.336 165.87 375.391V375.191C165.87 374.562 165.989 374.002 166.228 373.51C166.47 373.014 166.806 372.627 167.235 372.35C167.669 372.068 168.138 371.928 168.642 371.928C169.466 371.928 170.106 372.199 170.563 372.742C171.021 373.285 171.249 374.062 171.249 375.074V375.525H166.954C166.97 376.15 167.151 376.656 167.499 377.043C167.851 377.426 168.296 377.617 168.835 377.617C169.218 377.617 169.542 377.539 169.808 377.383C170.073 377.227 170.306 377.02 170.505 376.762L171.167 377.277C170.636 378.094 169.839 378.502 168.776 378.502ZM168.642 372.818C168.204 372.818 167.837 372.979 167.54 373.299C167.243 373.615 167.06 374.061 166.989 374.635H170.165V374.553C170.134 374.002 169.985 373.576 169.72 373.275C169.454 372.971 169.095 372.818 168.642 372.818ZM172.245 375.162C172.245 374.189 172.476 373.408 172.937 372.818C173.397 372.225 174.001 371.928 174.747 371.928C175.489 371.928 176.077 372.182 176.511 372.689V369.385H177.595V378.385H176.599L176.546 377.705C176.112 378.236 175.509 378.502 174.735 378.502C174.001 378.502 173.401 378.201 172.937 377.6C172.476 376.998 172.245 376.213 172.245 375.244V375.162ZM173.329 375.285C173.329 376.004 173.478 376.566 173.774 376.973C174.071 377.379 174.481 377.582 175.005 377.582C175.692 377.582 176.194 377.273 176.511 376.656V373.744C176.187 373.146 175.688 372.848 175.017 372.848C174.485 372.848 174.071 373.053 173.774 373.463C173.478 373.873 173.329 374.48 173.329 375.285ZM180.46 378.385H179.376V372.045H180.46V378.385ZM179.288 370.363C179.288 370.188 179.341 370.039 179.446 369.918C179.556 369.797 179.716 369.736 179.927 369.736C180.138 369.736 180.298 369.797 180.407 369.918C180.517 370.039 180.571 370.188 180.571 370.363C180.571 370.539 180.517 370.686 180.407 370.803C180.298 370.92 180.138 370.979 179.927 370.979C179.716 370.979 179.556 370.92 179.446 370.803C179.341 370.686 179.288 370.539 179.288 370.363ZM183.671 370.51V372.045H184.854V372.883H183.671V376.814C183.671 377.068 183.724 377.26 183.829 377.389C183.935 377.514 184.114 377.576 184.368 377.576C184.493 377.576 184.665 377.553 184.884 377.506V378.385C184.599 378.463 184.321 378.502 184.052 378.502C183.567 378.502 183.202 378.355 182.956 378.062C182.71 377.77 182.587 377.354 182.587 376.814V372.883H181.433V372.045H182.587V370.51H183.671ZM185.722 375.156C185.722 374.535 185.843 373.977 186.085 373.48C186.331 372.984 186.671 372.602 187.104 372.332C187.542 372.062 188.04 371.928 188.599 371.928C189.462 371.928 190.159 372.227 190.69 372.824C191.226 373.422 191.493 374.217 191.493 375.209V375.285C191.493 375.902 191.374 376.457 191.136 376.949C190.901 377.438 190.563 377.818 190.122 378.092C189.685 378.365 189.181 378.502 188.61 378.502C187.751 378.502 187.054 378.203 186.519 377.605C185.987 377.008 185.722 376.217 185.722 375.232V375.156ZM186.812 375.285C186.812 375.988 186.974 376.553 187.298 376.979C187.626 377.404 188.063 377.617 188.61 377.617C189.161 377.617 189.599 377.402 189.923 376.973C190.247 376.539 190.409 375.934 190.409 375.156C190.409 374.461 190.243 373.898 189.911 373.469C189.583 373.035 189.146 372.818 188.599 372.818C188.063 372.818 187.632 373.031 187.304 373.457C186.976 373.883 186.812 374.492 186.812 375.285ZM195.917 373.018C195.753 372.99 195.575 372.977 195.384 372.977C194.673 372.977 194.19 373.279 193.937 373.885V378.385H192.853V372.045H193.907L193.925 372.777C194.28 372.211 194.784 371.928 195.437 371.928C195.647 371.928 195.808 371.955 195.917 372.01V373.018ZM200.61 376.703C200.61 376.41 200.499 376.184 200.276 376.023C200.058 375.859 199.673 375.719 199.122 375.602C198.575 375.484 198.14 375.344 197.815 375.18C197.495 375.016 197.257 374.82 197.101 374.594C196.948 374.367 196.872 374.098 196.872 373.785C196.872 373.266 197.091 372.826 197.528 372.467C197.97 372.107 198.532 371.928 199.216 371.928C199.935 371.928 200.517 372.113 200.962 372.484C201.411 372.855 201.636 373.33 201.636 373.908H200.546C200.546 373.611 200.419 373.355 200.165 373.141C199.915 372.926 199.599 372.818 199.216 372.818C198.821 372.818 198.513 372.904 198.29 373.076C198.067 373.248 197.956 373.473 197.956 373.75C197.956 374.012 198.06 374.209 198.267 374.342C198.474 374.475 198.847 374.602 199.386 374.723C199.929 374.844 200.368 374.988 200.704 375.156C201.04 375.324 201.288 375.527 201.448 375.766C201.612 376 201.694 376.287 201.694 376.627C201.694 377.193 201.468 377.648 201.015 377.992C200.562 378.332 199.974 378.502 199.251 378.502C198.743 378.502 198.294 378.412 197.903 378.232C197.513 378.053 197.206 377.803 196.983 377.482C196.765 377.158 196.655 376.809 196.655 376.434H197.739C197.759 376.797 197.903 377.086 198.173 377.301C198.446 377.512 198.806 377.617 199.251 377.617C199.661 377.617 199.989 377.535 200.235 377.371C200.485 377.203 200.61 376.98 200.61 376.703ZM203.071 380.084L202.456 379.662C202.823 379.15 203.015 378.623 203.03 378.08V377.102H204.091V377.951C204.091 378.346 203.993 378.74 203.798 379.135C203.606 379.529 203.364 379.846 203.071 380.084Z" fill="#1F2432"/>
<path d="M121.897 391.314L123.468 386.445H124.575L122.302 392.785H121.476L119.179 386.445H120.286L121.897 391.314ZM129.438 392.785C129.376 392.66 129.325 392.438 129.286 392.117C128.782 392.641 128.181 392.902 127.481 392.902C126.856 392.902 126.343 392.727 125.94 392.375C125.542 392.02 125.343 391.57 125.343 391.027C125.343 390.367 125.593 389.855 126.093 389.492C126.597 389.125 127.304 388.941 128.214 388.941H129.269V388.443C129.269 388.064 129.155 387.764 128.929 387.541C128.702 387.314 128.368 387.201 127.927 387.201C127.54 387.201 127.216 387.299 126.954 387.494C126.692 387.689 126.562 387.926 126.562 388.203H125.472C125.472 387.887 125.583 387.582 125.806 387.289C126.032 386.992 126.337 386.758 126.72 386.586C127.106 386.414 127.53 386.328 127.991 386.328C128.722 386.328 129.294 386.512 129.708 386.879C130.122 387.242 130.337 387.744 130.353 388.385V391.303C130.353 391.885 130.427 392.348 130.575 392.691V392.785H129.438ZM127.64 391.959C127.979 391.959 128.302 391.871 128.606 391.695C128.911 391.52 129.132 391.291 129.269 391.01V389.709H128.419C127.091 389.709 126.427 390.098 126.427 390.875C126.427 391.215 126.54 391.48 126.767 391.672C126.993 391.863 127.284 391.959 127.64 391.959ZM133.229 392.785H132.146V383.785H133.229V392.785ZM136.147 392.785H135.063V386.445H136.147V392.785ZM134.976 384.764C134.976 384.588 135.028 384.439 135.134 384.318C135.243 384.197 135.403 384.137 135.614 384.137C135.825 384.137 135.985 384.197 136.095 384.318C136.204 384.439 136.259 384.588 136.259 384.764C136.259 384.939 136.204 385.086 136.095 385.203C135.985 385.32 135.825 385.379 135.614 385.379C135.403 385.379 135.243 385.32 135.134 385.203C135.028 385.086 134.976 384.939 134.976 384.764ZM137.624 389.562C137.624 388.59 137.854 387.809 138.315 387.219C138.776 386.625 139.38 386.328 140.126 386.328C140.868 386.328 141.456 386.582 141.89 387.09V383.785H142.974V392.785H141.978L141.925 392.105C141.491 392.637 140.888 392.902 140.114 392.902C139.38 392.902 138.78 392.602 138.315 392C137.854 391.398 137.624 390.613 137.624 389.645V389.562ZM138.708 389.686C138.708 390.404 138.856 390.967 139.153 391.373C139.45 391.779 139.86 391.982 140.384 391.982C141.071 391.982 141.573 391.674 141.89 391.057V388.145C141.565 387.547 141.067 387.248 140.396 387.248C139.864 387.248 139.45 387.453 139.153 387.863C138.856 388.273 138.708 388.881 138.708 389.686ZM148.575 392.785C148.513 392.66 148.462 392.438 148.423 392.117C147.919 392.641 147.317 392.902 146.618 392.902C145.993 392.902 145.479 392.727 145.077 392.375C144.679 392.02 144.479 391.57 144.479 391.027C144.479 390.367 144.729 389.855 145.229 389.492C145.733 389.125 146.44 388.941 147.351 388.941H148.405V388.443C148.405 388.064 148.292 387.764 148.065 387.541C147.839 387.314 147.505 387.201 147.063 387.201C146.677 387.201 146.353 387.299 146.091 387.494C145.829 387.689 145.698 387.926 145.698 388.203H144.608C144.608 387.887 144.72 387.582 144.942 387.289C145.169 386.992 145.474 386.758 145.856 386.586C146.243 386.414 146.667 386.328 147.128 386.328C147.858 386.328 148.431 386.512 148.845 386.879C149.259 387.242 149.474 387.744 149.489 388.385V391.303C149.489 391.885 149.563 392.348 149.712 392.691V392.785H148.575ZM146.776 391.959C147.116 391.959 147.438 391.871 147.743 391.695C148.048 391.52 148.269 391.291 148.405 391.01V389.709H147.556C146.228 389.709 145.563 390.098 145.563 390.875C145.563 391.215 145.677 391.48 145.903 391.672C146.13 391.863 146.421 391.959 146.776 391.959ZM152.659 384.91V386.445H153.843V387.283H152.659V391.215C152.659 391.469 152.712 391.66 152.817 391.789C152.923 391.914 153.103 391.977 153.356 391.977C153.481 391.977 153.653 391.953 153.872 391.906V392.785C153.587 392.863 153.31 392.902 153.04 392.902C152.556 392.902 152.19 392.756 151.944 392.463C151.698 392.17 151.575 391.754 151.575 391.215V387.283H150.421V386.445H151.575V384.91H152.659ZM154.71 389.557C154.71 388.936 154.831 388.377 155.073 387.881C155.319 387.385 155.659 387.002 156.093 386.732C156.53 386.463 157.028 386.328 157.587 386.328C158.45 386.328 159.147 386.627 159.679 387.225C160.214 387.822 160.481 388.617 160.481 389.609V389.686C160.481 390.303 160.362 390.857 160.124 391.35C159.89 391.838 159.552 392.219 159.11 392.492C158.673 392.766 158.169 392.902 157.599 392.902C156.739 392.902 156.042 392.604 155.507 392.006C154.976 391.408 154.71 390.617 154.71 389.633V389.557ZM155.8 389.686C155.8 390.389 155.962 390.953 156.286 391.379C156.614 391.805 157.052 392.018 157.599 392.018C158.149 392.018 158.587 391.803 158.911 391.373C159.235 390.939 159.397 390.334 159.397 389.557C159.397 388.861 159.231 388.299 158.899 387.869C158.571 387.436 158.134 387.219 157.587 387.219C157.052 387.219 156.62 387.432 156.292 387.857C155.964 388.283 155.8 388.893 155.8 389.686ZM164.905 387.418C164.741 387.391 164.563 387.377 164.372 387.377C163.661 387.377 163.179 387.68 162.925 388.285V392.785H161.841V386.445H162.896L162.913 387.178C163.269 386.611 163.772 386.328 164.425 386.328C164.636 386.328 164.796 386.355 164.905 386.41V387.418ZM169.599 391.104C169.599 390.811 169.487 390.584 169.265 390.424C169.046 390.26 168.661 390.119 168.11 390.002C167.563 389.885 167.128 389.744 166.804 389.58C166.483 389.416 166.245 389.221 166.089 388.994C165.937 388.768 165.86 388.498 165.86 388.186C165.86 387.666 166.079 387.227 166.517 386.867C166.958 386.508 167.521 386.328 168.204 386.328C168.923 386.328 169.505 386.514 169.95 386.885C170.399 387.256 170.624 387.73 170.624 388.309H169.534C169.534 388.012 169.407 387.756 169.153 387.541C168.903 387.326 168.587 387.219 168.204 387.219C167.81 387.219 167.501 387.305 167.278 387.477C167.056 387.648 166.944 387.873 166.944 388.15C166.944 388.412 167.048 388.609 167.255 388.742C167.462 388.875 167.835 389.002 168.374 389.123C168.917 389.244 169.356 389.389 169.692 389.557C170.028 389.725 170.276 389.928 170.437 390.166C170.601 390.4 170.683 390.688 170.683 391.027C170.683 391.594 170.456 392.049 170.003 392.393C169.55 392.732 168.962 392.902 168.239 392.902C167.731 392.902 167.282 392.812 166.892 392.633C166.501 392.453 166.194 392.203 165.972 391.883C165.753 391.559 165.644 391.209 165.644 390.834H166.728C166.747 391.197 166.892 391.486 167.161 391.701C167.435 391.912 167.794 392.018 168.239 392.018C168.649 392.018 168.978 391.936 169.224 391.771C169.474 391.604 169.599 391.381 169.599 391.104ZM174.843 390.494C174.843 390.084 174.956 389.707 175.183 389.363C175.413 389.02 175.851 388.619 176.495 388.162C176.116 387.701 175.862 387.33 175.733 387.049C175.604 386.768 175.54 386.488 175.54 386.211C175.54 385.562 175.731 385.055 176.114 384.688C176.497 384.32 177.017 384.137 177.673 384.137C178.259 384.137 178.743 384.309 179.126 384.652C179.509 384.992 179.7 385.422 179.7 385.941C179.7 386.285 179.612 386.604 179.437 386.896C179.265 387.186 178.962 387.49 178.528 387.811L177.901 388.273L179.8 390.541C180.065 390.033 180.198 389.469 180.198 388.848H181.177C181.177 389.844 180.937 390.67 180.456 391.326L181.675 392.785H180.374L179.806 392.111C179.517 392.369 179.177 392.566 178.786 392.703C178.399 392.836 178.005 392.902 177.603 392.902C176.771 392.902 176.103 392.682 175.599 392.24C175.095 391.799 174.843 391.217 174.843 390.494ZM177.603 392.018C178.177 392.018 178.702 391.799 179.179 391.361L177.099 388.871L176.905 389.012C176.253 389.492 175.927 389.986 175.927 390.494C175.927 390.955 176.075 391.324 176.372 391.602C176.673 391.879 177.083 392.018 177.603 392.018ZM176.624 386.176C176.624 386.551 176.854 387.02 177.315 387.582L178.007 387.096C178.272 386.908 178.454 386.73 178.552 386.562C178.649 386.391 178.698 386.184 178.698 385.941C178.698 385.68 178.601 385.463 178.405 385.291C178.21 385.115 177.964 385.027 177.667 385.027C177.347 385.027 177.093 385.137 176.905 385.355C176.718 385.57 176.624 385.844 176.624 386.176ZM186.983 384.91V386.445H188.167V387.283H186.983V391.215C186.983 391.469 187.036 391.66 187.142 391.789C187.247 391.914 187.427 391.977 187.681 391.977C187.806 391.977 187.978 391.953 188.196 391.906V392.785C187.911 392.863 187.634 392.902 187.364 392.902C186.88 392.902 186.515 392.756 186.269 392.463C186.022 392.17 185.899 391.754 185.899 391.215V387.283H184.745V386.445H185.899V384.91H186.983ZM192.069 392.902C191.21 392.902 190.511 392.621 189.972 392.059C189.433 391.492 189.163 390.736 189.163 389.791V389.592C189.163 388.963 189.282 388.402 189.521 387.91C189.763 387.414 190.099 387.027 190.528 386.75C190.962 386.469 191.431 386.328 191.935 386.328C192.759 386.328 193.399 386.6 193.856 387.143C194.313 387.686 194.542 388.463 194.542 389.475V389.926H190.247C190.263 390.551 190.444 391.057 190.792 391.443C191.144 391.826 191.589 392.018 192.128 392.018C192.511 392.018 192.835 391.939 193.101 391.783C193.366 391.627 193.599 391.42 193.798 391.162L194.46 391.678C193.929 392.494 193.132 392.902 192.069 392.902ZM191.935 387.219C191.497 387.219 191.13 387.379 190.833 387.699C190.536 388.016 190.353 388.461 190.282 389.035H193.458V388.953C193.427 388.402 193.278 387.977 193.013 387.676C192.747 387.371 192.388 387.219 191.935 387.219ZM199.493 391.104C199.493 390.811 199.382 390.584 199.159 390.424C198.94 390.26 198.556 390.119 198.005 390.002C197.458 389.885 197.022 389.744 196.698 389.58C196.378 389.416 196.14 389.221 195.983 388.994C195.831 388.768 195.755 388.498 195.755 388.186C195.755 387.666 195.974 387.227 196.411 386.867C196.853 386.508 197.415 386.328 198.099 386.328C198.817 386.328 199.399 386.514 199.845 386.885C200.294 387.256 200.519 387.73 200.519 388.309H199.429C199.429 388.012 199.302 387.756 199.048 387.541C198.798 387.326 198.481 387.219 198.099 387.219C197.704 387.219 197.396 387.305 197.173 387.477C196.95 387.648 196.839 387.873 196.839 388.15C196.839 388.412 196.942 388.609 197.149 388.742C197.356 388.875 197.729 389.002 198.269 389.123C198.812 389.244 199.251 389.389 199.587 389.557C199.923 389.725 200.171 389.928 200.331 390.166C200.495 390.4 200.577 390.688 200.577 391.027C200.577 391.594 200.351 392.049 199.897 392.393C199.444 392.732 198.856 392.902 198.134 392.902C197.626 392.902 197.177 392.812 196.786 392.633C196.396 392.453 196.089 392.203 195.866 391.883C195.647 391.559 195.538 391.209 195.538 390.834H196.622C196.642 391.197 196.786 391.486 197.056 391.701C197.329 391.912 197.688 392.018 198.134 392.018C198.544 392.018 198.872 391.936 199.118 391.771C199.368 391.604 199.493 391.381 199.493 391.104ZM203.46 384.91V386.445H204.644V387.283H203.46V391.215C203.46 391.469 203.513 391.66 203.618 391.789C203.724 391.914 203.903 391.977 204.157 391.977C204.282 391.977 204.454 391.953 204.673 391.906V392.785C204.388 392.863 204.11 392.902 203.841 392.902C203.356 392.902 202.991 392.756 202.745 392.463C202.499 392.17 202.376 391.754 202.376 391.215V387.283H201.222V386.445H202.376V384.91H203.46ZM208.546 392.902C207.687 392.902 206.987 392.621 206.448 392.059C205.909 391.492 205.64 390.736 205.64 389.791V389.592C205.64 388.963 205.759 388.402 205.997 387.91C206.239 387.414 206.575 387.027 207.005 386.75C207.438 386.469 207.907 386.328 208.411 386.328C209.235 386.328 209.876 386.6 210.333 387.143C210.79 387.686 211.019 388.463 211.019 389.475V389.926H206.724C206.739 390.551 206.921 391.057 207.269 391.443C207.62 391.826 208.065 392.018 208.604 392.018C208.987 392.018 209.312 391.939 209.577 391.783C209.843 391.627 210.075 391.42 210.274 391.162L210.937 391.678C210.405 392.494 209.608 392.902 208.546 392.902ZM208.411 387.219C207.974 387.219 207.606 387.379 207.31 387.699C207.013 388.016 206.829 388.461 206.759 389.035H209.935V388.953C209.903 388.402 209.755 387.977 209.489 387.676C209.224 387.371 208.864 387.219 208.411 387.219ZM215.343 387.418C215.179 387.391 215.001 387.377 214.81 387.377C214.099 387.377 213.616 387.68 213.362 388.285V392.785H212.278V386.445H213.333L213.351 387.178C213.706 386.611 214.21 386.328 214.862 386.328C215.073 386.328 215.233 386.355 215.343 386.41V387.418ZM220.036 391.104C220.036 390.811 219.925 390.584 219.702 390.424C219.483 390.26 219.099 390.119 218.548 390.002C218.001 389.885 217.565 389.744 217.241 389.58C216.921 389.416 216.683 389.221 216.526 388.994C216.374 388.768 216.298 388.498 216.298 388.186C216.298 387.666 216.517 387.227 216.954 386.867C217.396 386.508 217.958 386.328 218.642 386.328C219.36 386.328 219.942 386.514 220.388 386.885C220.837 387.256 221.062 387.73 221.062 388.309H219.972C219.972 388.012 219.845 387.756 219.591 387.541C219.341 387.326 219.024 387.219 218.642 387.219C218.247 387.219 217.938 387.305 217.716 387.477C217.493 387.648 217.382 387.873 217.382 388.15C217.382 388.412 217.485 388.609 217.692 388.742C217.899 388.875 218.272 389.002 218.812 389.123C219.354 389.244 219.794 389.389 220.13 389.557C220.466 389.725 220.714 389.928 220.874 390.166C221.038 390.4 221.12 390.688 221.12 391.027C221.12 391.594 220.894 392.049 220.44 392.393C219.987 392.732 219.399 392.902 218.677 392.902C218.169 392.902 217.72 392.812 217.329 392.633C216.938 392.453 216.632 392.203 216.409 391.883C216.19 391.559 216.081 391.209 216.081 390.834H217.165C217.185 391.197 217.329 391.486 217.599 391.701C217.872 391.912 218.231 392.018 218.677 392.018C219.087 392.018 219.415 391.936 219.661 391.771C219.911 391.604 220.036 391.381 220.036 391.104Z" fill="#1F2432"/>
<path d="M173.7 360.9C197.5 360.9 216.9 341.6 216.9 317.7C216.9 293.9 197.6 274.5 173.7 274.5C149.8 274.5 130.5 293.8 130.5 317.7C130.6 341.6 149.9 360.9 173.7 360.9Z" fill="#1F2432"/>
<path d="M173.8 298L173.7 298.1L153.5 308.5V311.2H173.7H173.8H194V308.5L173.8 298Z" fill="#1F2432" stroke="#00DCE6" stroke-miterlimit="10"/>
<path d="M160.6 313.199V329.799" stroke="#00DCE6" stroke-miterlimit="10"/>
<path d="M169.1 313.199V329.799" stroke="#00DCE6" stroke-miterlimit="10"/>
<path d="M194 332.199H153.5" stroke="#00DCE6" stroke-miterlimit="10"/>
<path d="M194 337.801H153.5" stroke="#00DCE6" stroke-miterlimit="10"/>
<path d="M178.3 313.199V329.799" stroke="#00DCE6" stroke-miterlimit="10"/>
<path d="M186.8 313.199V329.799" stroke="#00DCE6" stroke-miterlimit="10"/>
<path d="M25.3018 104.168C24.3369 103.891 23.6338 103.551 23.1924 103.148C22.7549 102.742 22.5361 102.242 22.5361 101.648C22.5361 100.977 22.8037 100.422 23.3389 99.9844C23.8779 99.543 24.5771 99.3223 25.4365 99.3223C26.0225 99.3223 26.5439 99.4355 27.001 99.6621C27.4619 99.8887 27.8174 100.201 28.0674 100.6C28.3213 100.998 28.4482 101.434 28.4482 101.906H27.3174C27.3174 101.391 27.1533 100.986 26.8252 100.693C26.4971 100.396 26.0342 100.248 25.4365 100.248C24.8818 100.248 24.4482 100.371 24.1357 100.617C23.8271 100.859 23.6729 101.197 23.6729 101.631C23.6729 101.979 23.8193 102.273 24.1123 102.516C24.4092 102.754 24.9111 102.973 25.6182 103.172C26.3291 103.371 26.8838 103.592 27.2822 103.834C27.6846 104.072 27.9814 104.352 28.1729 104.672C28.3682 104.992 28.4658 105.369 28.4658 105.803C28.4658 106.494 28.1963 107.049 27.6572 107.467C27.1182 107.881 26.3975 108.088 25.4951 108.088C24.9092 108.088 24.3623 107.977 23.8545 107.754C23.3467 107.527 22.9541 107.219 22.6768 106.828C22.4033 106.438 22.2666 105.994 22.2666 105.498H23.3975C23.3975 106.014 23.5869 106.422 23.9658 106.723C24.3486 107.02 24.8584 107.168 25.4951 107.168C26.0889 107.168 26.5439 107.047 26.8604 106.805C27.1768 106.562 27.335 106.232 27.335 105.814C27.335 105.396 27.1885 105.074 26.8955 104.848C26.6025 104.617 26.0713 104.391 25.3018 104.168ZM31.2139 100.096V101.631H32.3975V102.469H31.2139V106.4C31.2139 106.654 31.2666 106.846 31.3721 106.975C31.4775 107.1 31.6572 107.162 31.9111 107.162C32.0361 107.162 32.208 107.139 32.4268 107.092V107.971C32.1416 108.049 31.8643 108.088 31.5947 108.088C31.1104 108.088 30.7451 107.941 30.499 107.648C30.2529 107.355 30.1299 106.939 30.1299 106.4V102.469H28.9756V101.631H30.1299V100.096H31.2139ZM37.583 107.344C37.1611 107.84 36.542 108.088 35.7256 108.088C35.0498 108.088 34.5342 107.893 34.1787 107.502C33.8271 107.107 33.6494 106.525 33.6455 105.756V101.631H34.7295V105.727C34.7295 106.688 35.1201 107.168 35.9014 107.168C36.7295 107.168 37.2803 106.859 37.5537 106.242V101.631H38.6377V107.971H37.6064L37.583 107.344ZM40.0264 104.748C40.0264 103.775 40.2568 102.994 40.7178 102.404C41.1787 101.811 41.7822 101.514 42.5283 101.514C43.2705 101.514 43.8584 101.768 44.292 102.275V98.9707H45.376V107.971H44.3799L44.3271 107.291C43.8936 107.822 43.29 108.088 42.5166 108.088C41.7822 108.088 41.1826 107.787 40.7178 107.186C40.2568 106.584 40.0264 105.799 40.0264 104.83V104.748ZM41.1104 104.871C41.1104 105.59 41.2588 106.152 41.5557 106.559C41.8525 106.965 42.2627 107.168 42.7861 107.168C43.4736 107.168 43.9756 106.859 44.292 106.242V103.33C43.9678 102.732 43.4697 102.434 42.7979 102.434C42.2666 102.434 41.8525 102.639 41.5557 103.049C41.2588 103.459 41.1104 104.066 41.1104 104.871ZM49.6943 108.088C48.835 108.088 48.1357 107.807 47.5967 107.244C47.0576 106.678 46.7881 105.922 46.7881 104.977V104.777C46.7881 104.148 46.9072 103.588 47.1455 103.096C47.3877 102.6 47.7236 102.213 48.1533 101.936C48.5869 101.654 49.0557 101.514 49.5596 101.514C50.3838 101.514 51.0244 101.785 51.4814 102.328C51.9385 102.871 52.167 103.648 52.167 104.66V105.111H47.8721C47.8877 105.736 48.0693 106.242 48.417 106.629C48.7686 107.012 49.2139 107.203 49.7529 107.203C50.1357 107.203 50.46 107.125 50.7256 106.969C50.9912 106.812 51.2236 106.605 51.4229 106.348L52.085 106.863C51.5537 107.68 50.7568 108.088 49.6943 108.088ZM49.5596 102.404C49.1221 102.404 48.7549 102.564 48.458 102.885C48.1611 103.201 47.9775 103.646 47.9072 104.221H51.083V104.139C51.0518 103.588 50.9033 103.162 50.6377 102.861C50.3721 102.557 50.0127 102.404 49.5596 102.404ZM54.4521 101.631L54.4873 102.428C54.9717 101.818 55.6045 101.514 56.3857 101.514C57.7256 101.514 58.4014 102.27 58.4131 103.781V107.971H57.3291V103.775C57.3252 103.318 57.2197 102.98 57.0127 102.762C56.8096 102.543 56.4912 102.434 56.0576 102.434C55.7061 102.434 55.3975 102.527 55.1318 102.715C54.8662 102.902 54.6592 103.148 54.5107 103.453V107.971H53.4268V101.631H54.4521ZM61.5186 100.096V101.631H62.7021V102.469H61.5186V106.4C61.5186 106.654 61.5713 106.846 61.6768 106.975C61.7822 107.1 61.9619 107.162 62.2158 107.162C62.3408 107.162 62.5127 107.139 62.7314 107.092V107.971C62.4463 108.049 62.1689 108.088 61.8994 108.088C61.415 108.088 61.0498 107.941 60.8037 107.648C60.5576 107.355 60.4346 106.939 60.4346 106.4V102.469H59.2803V101.631H60.4346V100.096H61.5186Z" fill="#1F2432"/>
<path d="M43.7 88.9992C67.5 88.9992 86.8 69.6992 86.8 45.7992C86.8 21.8992 67.5 2.69922 43.7 2.69922C19.9 2.69922 0.5 21.9992 0.5 45.7992C0.5 69.5992 19.8 88.9992 43.7 88.9992Z" fill="#1F2432"/>
<path d="M38.3004 46.4004V49.5004H37.5004L35.2004 51.8004L31.3004 53.6004C29.2004 54.1004 27.4004 55.7004 27.4004 57.2004V66.5004" fill="#1F2432"/>
<path d="M38.3004 46.4004V49.5004H37.5004L35.2004 51.8004L31.3004 53.6004C29.2004 54.1004 27.4004 55.7004 27.4004 57.2004V66.5004" stroke="#00DCE6" stroke-miterlimit="10"/>
<path d="M50.8006 33.0996V34.6996L52.4006 35.4996V38.5996C52.4006 39.0996 52.1006 39.5996 51.7006 39.8996L50.8006 40.9996C50.8006 40.9996 50.8006 42.1996 50.8006 42.5996C50.8006 45.5996 46.8006 46.8996 46.1006 47.2996C45.4006 47.6996 44.2006 48.0996 43.0006 48.0996C41.8006 48.0996 40.6006 47.6996 39.9006 47.2996C39.2006 46.9996 35.2006 45.5996 35.2006 42.5996C35.2006 42.1996 35.2006 40.9996 35.2006 40.9996L34.3006 39.8996C33.9006 39.5996 33.6006 39.0996 33.6006 38.5996V35.4996L35.2006 34.6996V33.0996C35.2006 29.1996 38.3006 26.0996 42.2006 26.0996H43.8006C47.6006 26.0996 50.8006 29.1996 50.8006 33.0996Z" fill="#1F2432" stroke="#00DCE6" stroke-miterlimit="10"/>
<path d="M38.3008 49.5L42.9008 53.4" stroke="#00DCE6" stroke-miterlimit="10"/>
<path d="M42.9006 53.4004L39.0006 56.5004L35.1006 51.9004" fill="#1F2432"/>
<path d="M42.9006 53.4004L39.0006 56.5004L35.1006 51.9004" stroke="#00DCE6" stroke-miterlimit="10"/>
<path d="M47.6006 46.4004V49.5004H48.4006L50.7006 51.8004L54.6006 53.6004C56.7006 54.1004 58.5006 55.7004 58.5006 57.2004V66.5004" fill="#1F2432"/>
<path d="M47.6006 46.4004V49.5004H48.4006L50.7006 51.8004L54.6006 53.6004C56.7006 54.1004 58.5006 55.7004 58.5006 57.2004V66.5004" stroke="#00DCE6" stroke-miterlimit="10"/>
<path d="M47.6004 49.5L42.9004 53.4" stroke="#00DCE6" stroke-miterlimit="10"/>
<path d="M42.9004 53.4004L46.9004 56.5004L50.8004 51.9004" fill="#1F2432"/>
<path d="M42.9004 53.4004L46.9004 56.5004L50.8004 51.9004" stroke="#00DCE6" stroke-miterlimit="10"/>
<path d="M45.3006 55L44.5006 58.9H41.4006L40.6006 55" fill="#1F2432"/>
<path d="M45.3006 55L44.5006 58.9H41.4006L40.6006 55" stroke="#00DCE6" stroke-miterlimit="10"/>
<path d="M45.3006 65.9004L44.5006 58.9004H41.4006L40.6006 65.9004" fill="#1F2432"/>
<path d="M45.3006 65.9004L44.5006 58.9004H41.4006L40.6006 65.9004" stroke="#00DCE6" stroke-miterlimit="10"/>
<path d="M413.698 374.582C412.733 374.305 412.03 373.965 411.589 373.562C411.151 373.156 410.933 372.656 410.933 372.062C410.933 371.391 411.2 370.836 411.735 370.398C412.274 369.957 412.974 369.736 413.833 369.736C414.419 369.736 414.94 369.85 415.397 370.076C415.858 370.303 416.214 370.615 416.464 371.014C416.718 371.412 416.845 371.848 416.845 372.32H415.714C415.714 371.805 415.55 371.4 415.222 371.107C414.894 370.811 414.431 370.662 413.833 370.662C413.278 370.662 412.845 370.785 412.532 371.031C412.224 371.273 412.069 371.611 412.069 372.045C412.069 372.393 412.216 372.688 412.509 372.93C412.806 373.168 413.308 373.387 414.015 373.586C414.726 373.785 415.28 374.006 415.679 374.248C416.081 374.486 416.378 374.766 416.569 375.086C416.765 375.406 416.862 375.783 416.862 376.217C416.862 376.908 416.593 377.463 416.054 377.881C415.515 378.295 414.794 378.502 413.892 378.502C413.306 378.502 412.759 378.391 412.251 378.168C411.743 377.941 411.351 377.633 411.073 377.242C410.8 376.852 410.663 376.408 410.663 375.912H411.794C411.794 376.428 411.983 376.836 412.362 377.137C412.745 377.434 413.255 377.582 413.892 377.582C414.485 377.582 414.94 377.461 415.257 377.219C415.573 376.977 415.731 376.646 415.731 376.229C415.731 375.811 415.585 375.488 415.292 375.262C414.999 375.031 414.468 374.805 413.698 374.582ZM419.61 370.51V372.045H420.794V372.883H419.61V376.814C419.61 377.068 419.663 377.26 419.769 377.389C419.874 377.514 420.054 377.576 420.308 377.576C420.433 377.576 420.604 377.553 420.823 377.506V378.385C420.538 378.463 420.261 378.502 419.991 378.502C419.507 378.502 419.142 378.355 418.896 378.062C418.649 377.77 418.526 377.354 418.526 376.814V372.883H417.372V372.045H418.526V370.51H419.61ZM425.979 377.758C425.558 378.254 424.938 378.502 424.122 378.502C423.446 378.502 422.931 378.307 422.575 377.916C422.224 377.521 422.046 376.939 422.042 376.17V372.045H423.126V376.141C423.126 377.102 423.517 377.582 424.298 377.582C425.126 377.582 425.677 377.273 425.95 376.656V372.045H427.034V378.385H426.003L425.979 377.758ZM428.423 375.162C428.423 374.189 428.653 373.408 429.114 372.818C429.575 372.225 430.179 371.928 430.925 371.928C431.667 371.928 432.255 372.182 432.688 372.689V369.385H433.772V378.385H432.776L432.724 377.705C432.29 378.236 431.687 378.502 430.913 378.502C430.179 378.502 429.579 378.201 429.114 377.6C428.653 376.998 428.423 376.213 428.423 375.244V375.162ZM429.507 375.285C429.507 376.004 429.655 376.566 429.952 376.973C430.249 377.379 430.659 377.582 431.183 377.582C431.87 377.582 432.372 377.273 432.688 376.656V373.744C432.364 373.146 431.866 372.848 431.194 372.848C430.663 372.848 430.249 373.053 429.952 373.463C429.655 373.873 429.507 374.48 429.507 375.285ZM438.091 378.502C437.231 378.502 436.532 378.221 435.993 377.658C435.454 377.092 435.185 376.336 435.185 375.391V375.191C435.185 374.562 435.304 374.002 435.542 373.51C435.784 373.014 436.12 372.627 436.55 372.35C436.983 372.068 437.452 371.928 437.956 371.928C438.78 371.928 439.421 372.199 439.878 372.742C440.335 373.285 440.563 374.062 440.563 375.074V375.525H436.269C436.284 376.15 436.466 376.656 436.813 377.043C437.165 377.426 437.61 377.617 438.149 377.617C438.532 377.617 438.856 377.539 439.122 377.383C439.388 377.227 439.62 377.02 439.819 376.762L440.481 377.277C439.95 378.094 439.153 378.502 438.091 378.502ZM437.956 372.818C437.519 372.818 437.151 372.979 436.854 373.299C436.558 373.615 436.374 374.061 436.304 374.635H439.479V374.553C439.448 374.002 439.3 373.576 439.034 373.275C438.769 372.971 438.409 372.818 437.956 372.818ZM442.849 372.045L442.884 372.842C443.368 372.232 444.001 371.928 444.782 371.928C446.122 371.928 446.798 372.684 446.81 374.195V378.385H445.726V374.189C445.722 373.732 445.616 373.395 445.409 373.176C445.206 372.957 444.888 372.848 444.454 372.848C444.103 372.848 443.794 372.941 443.528 373.129C443.263 373.316 443.056 373.562 442.907 373.867V378.385H441.823V372.045H442.849ZM449.915 370.51V372.045H451.099V372.883H449.915V376.814C449.915 377.068 449.968 377.26 450.073 377.389C450.179 377.514 450.358 377.576 450.612 377.576C450.737 377.576 450.909 377.553 451.128 377.506V378.385C450.843 378.463 450.565 378.502 450.296 378.502C449.812 378.502 449.446 378.355 449.2 378.062C448.954 377.77 448.831 377.354 448.831 376.814V372.883H447.677V372.045H448.831V370.51H449.915Z" fill="#1F2432"/>
<path d="M432.1 360.9C455.9 360.9 475.3 341.6 475.3 317.7C475.3 293.9 456 274.5 432.1 274.5C408.2 274.5 388.9 293.8 388.9 317.7C388.9 341.6 408.2 360.9 432.1 360.9Z" fill="#1F2432"/>
<path d="M426.701 318.301V321.401H425.901L423.601 323.701L419.701 325.501C417.601 326.001 415.801 327.601 415.801 329.101V338.401" fill="#1F2432"/>
<path d="M426.701 318.301V321.401H425.901L423.601 323.701L419.701 325.501C417.601 326.001 415.801 327.601 415.801 329.101V338.401" stroke="#00DCE6" stroke-miterlimit="10"/>
<path d="M439.201 305.1V306.7L440.801 307.5V310.6C440.801 311.1 440.501 311.6 440.101 311.9L439.201 313C439.201 313 439.201 314.2 439.201 314.6C439.201 317.6 435.201 318.9 434.501 319.3C433.801 319.7 432.601 320.1 431.401 320.1C430.201 320.1 429.001 319.7 428.301 319.3C427.601 318.9 423.601 317.6 423.601 314.6C423.601 314.2 423.601 313 423.601 313L422.701 311.9C422.301 311.6 422.001 311.1 422.001 310.6V307.5L423.601 306.7V305.1C423.601 301.2 426.701 298.1 430.601 298.1H432.201C436.001 298 439.201 301.2 439.201 305.1Z" fill="#1F2432" stroke="#00DCE6" stroke-miterlimit="10"/>
<path d="M426.701 321.5L431.301 325.4" stroke="#00DCE6" stroke-miterlimit="10"/>
<path d="M431.301 325.401L427.401 328.501L423.501 323.801" fill="#1F2432"/>
<path d="M431.301 325.401L427.401 328.501L423.501 323.801" stroke="#00DCE6" stroke-miterlimit="10"/>
<path d="M436.001 318.301V321.401H436.801L439.101 323.701L443.001 325.501C445.101 326.001 446.901 327.601 446.901 329.101V338.401" fill="#1F2432"/>
<path d="M436.001 318.301V321.401H436.801L439.101 323.701L443.001 325.501C445.101 326.001 446.901 327.601 446.901 329.101V338.401" stroke="#00DCE6" stroke-miterlimit="10"/>
<path d="M436.001 321.5L431.301 325.4" stroke="#00DCE6" stroke-miterlimit="10"/>
<path d="M431.301 325.401L435.201 328.501L439.201 323.801" fill="#1F2432"/>
<path d="M431.301 325.401L435.201 328.501L439.201 323.801" stroke="#00DCE6" stroke-miterlimit="10"/>
<path d="M433.701 326.9L432.901 330.8H429.801L429.001 326.9" fill="#1F2432"/>
<path d="M433.701 326.9L432.901 330.8H429.801L429.001 326.9" stroke="#00DCE6" stroke-miterlimit="10"/>
<path d="M433.701 337.801L432.901 330.801H429.801L429.001 337.801" fill="#1F2432"/>
<path d="M433.701 337.801L432.901 330.801H429.801L429.001 337.801" stroke="#00DCE6" stroke-miterlimit="10"/>
<path d="M283 228H193C179.3 228 168 216.8 168 203C168 189.2 179.2 178 193 178H283C296.7 178 308 189.2 308 203C308 216.8 296.8 228 283 228Z" fill="#00DCE6"/>
<g opacity="0.3">
<path opacity="0.3" d="M193 236C174.8 236 160 221.2 160 203C160 184.8 174.8 170 193 170H283C301.2 170 316 184.8 316 203C316 221.2 301.2 236 283 236H193Z" fill="#00DCE6"/>
</g>
<path d="M185.199 209.8V196L197.699 188L210.199 196V209.9" stroke="white"/>
<path d="M185.199 209.801L197.699 217.901L210.199 209.801L197.699 201.801L185.199 209.801Z" stroke="white" stroke-linejoin="round"/>
<path d="M210.1 196L197.6 204L185.1 196" stroke="white"/>
<path d="M197.699 188V201.9" stroke="white"/>
<path d="M197.699 204.1V218" stroke="white"/>
<path d="M227.406 208V198.758H230.644C231.765 198.758 232.616 198.974 233.195 199.405C233.775 199.833 234.065 200.461 234.065 201.291C234.065 201.743 233.949 202.143 233.716 202.49C233.483 202.833 233.159 203.085 232.745 203.246C233.219 203.364 233.591 203.603 233.862 203.963C234.137 204.323 234.274 204.763 234.274 205.283C234.274 206.172 233.991 206.845 233.424 207.302C232.857 207.759 232.049 207.992 230.999 208H227.406ZM229.311 203.976V206.47H230.942C231.39 206.47 231.74 206.364 231.989 206.153C232.243 205.937 232.37 205.641 232.37 205.264C232.37 204.418 231.932 203.988 231.056 203.976H229.311ZM229.311 202.63H230.72C231.68 202.613 232.161 202.23 232.161 201.481C232.161 201.062 232.038 200.762 231.792 200.58C231.551 200.393 231.168 200.3 230.644 200.3H229.311V202.63ZM237.524 208H235.684V198.25H237.524V208ZM238.756 204.502C238.756 203.821 238.887 203.214 239.149 202.681C239.412 202.147 239.788 201.735 240.279 201.443C240.774 201.151 241.348 201.005 242 201.005C242.926 201.005 243.682 201.288 244.266 201.855C244.854 202.423 245.182 203.193 245.25 204.166L245.262 204.636C245.262 205.689 244.968 206.536 244.38 207.175C243.792 207.81 243.002 208.127 242.012 208.127C241.022 208.127 240.231 207.81 239.638 207.175C239.05 206.54 238.756 205.677 238.756 204.585V204.502ZM240.59 204.636C240.59 205.287 240.713 205.787 240.958 206.134C241.204 206.477 241.555 206.648 242.012 206.648C242.457 206.648 242.804 206.479 243.053 206.14C243.303 205.797 243.428 205.251 243.428 204.502C243.428 203.863 243.303 203.368 243.053 203.017C242.804 202.666 242.452 202.49 242 202.49C241.551 202.49 241.204 202.666 240.958 203.017C240.713 203.364 240.59 203.904 240.59 204.636ZM249.249 206.648C249.587 206.648 249.862 206.555 250.074 206.369C250.285 206.182 250.395 205.935 250.404 205.626H252.124C252.12 206.091 251.993 206.519 251.743 206.908C251.493 207.293 251.151 207.594 250.715 207.81C250.283 208.021 249.805 208.127 249.28 208.127C248.299 208.127 247.524 207.816 246.957 207.194C246.39 206.568 246.106 205.704 246.106 204.604V204.483C246.106 203.425 246.388 202.581 246.951 201.951C247.514 201.32 248.286 201.005 249.268 201.005C250.127 201.005 250.814 201.25 251.331 201.741C251.851 202.228 252.116 202.877 252.124 203.69H250.404C250.395 203.334 250.285 203.047 250.074 202.827C249.862 202.602 249.583 202.49 249.236 202.49C248.808 202.49 248.485 202.647 248.265 202.96C248.049 203.269 247.941 203.772 247.941 204.471V204.661C247.941 205.368 248.049 205.876 248.265 206.185C248.48 206.493 248.808 206.648 249.249 206.648ZM255.666 205.245L255.006 205.905V208H253.171V198.25H255.006V203.652L255.361 203.195L257.12 201.132H259.322L256.84 203.995L259.538 208H257.431L255.666 205.245ZM262.845 206.648C263.184 206.648 263.459 206.555 263.67 206.369C263.882 206.182 263.992 205.935 264 205.626H265.721C265.716 206.091 265.59 206.519 265.34 206.908C265.09 207.293 264.747 207.594 264.312 207.81C263.88 208.021 263.402 208.127 262.877 208.127C261.895 208.127 261.121 207.816 260.554 207.194C259.987 206.568 259.703 205.704 259.703 204.604V204.483C259.703 203.425 259.985 202.581 260.547 201.951C261.11 201.32 261.882 201.005 262.864 201.005C263.723 201.005 264.411 201.25 264.927 201.741C265.448 202.228 265.712 202.877 265.721 203.69H264C263.992 203.334 263.882 203.047 263.67 202.827C263.459 202.602 263.18 202.49 262.833 202.49C262.405 202.49 262.081 202.647 261.861 202.96C261.646 203.269 261.538 203.772 261.538 204.471V204.661C261.538 205.368 261.646 205.876 261.861 206.185C262.077 206.493 262.405 206.648 262.845 206.648ZM268.558 201.881C269.045 201.297 269.656 201.005 270.393 201.005C271.882 201.005 272.638 201.87 272.659 203.601V208H270.824V203.652C270.824 203.258 270.74 202.968 270.57 202.782C270.401 202.592 270.12 202.497 269.726 202.497C269.189 202.497 268.799 202.704 268.558 203.119V208H266.724V198.25H268.558V201.881ZM278.022 208C277.938 207.835 277.876 207.63 277.838 207.384C277.394 207.879 276.816 208.127 276.105 208.127C275.433 208.127 274.874 207.932 274.43 207.543C273.99 207.154 273.77 206.663 273.77 206.07C273.77 205.342 274.038 204.784 274.576 204.395C275.117 204.005 275.898 203.808 276.918 203.804H277.762V203.411C277.762 203.093 277.68 202.839 277.515 202.649C277.354 202.458 277.098 202.363 276.747 202.363C276.438 202.363 276.194 202.437 276.017 202.585C275.843 202.734 275.756 202.937 275.756 203.195H273.922C273.922 202.797 274.045 202.429 274.29 202.09C274.535 201.752 274.882 201.487 275.331 201.297C275.78 201.102 276.283 201.005 276.842 201.005C277.688 201.005 278.359 201.219 278.854 201.646C279.353 202.069 279.603 202.666 279.603 203.436V206.413C279.607 207.065 279.698 207.558 279.876 207.892V208H278.022ZM276.505 206.724C276.776 206.724 277.026 206.665 277.254 206.546C277.483 206.424 277.652 206.261 277.762 206.058V204.877H277.077C276.158 204.877 275.67 205.194 275.61 205.829L275.604 205.937C275.604 206.166 275.684 206.354 275.845 206.502C276.006 206.65 276.226 206.724 276.505 206.724ZM282.948 208H281.107V201.132H282.948V208ZM281 199.354C281 199.079 281.09 198.853 281.272 198.675C281.459 198.498 281.71 198.409 282.028 198.409C282.341 198.409 282.591 198.498 282.777 198.675C282.963 198.853 283.056 199.079 283.056 199.354C283.056 199.634 282.961 199.862 282.771 200.04C282.584 200.218 282.337 200.307 282.028 200.307C281.719 200.307 281.469 200.218 281.279 200.04C281.093 199.862 281 199.634 281 199.354ZM286.154 201.132L286.211 201.925C286.702 201.312 287.36 201.005 288.185 201.005C288.913 201.005 289.455 201.219 289.81 201.646C290.166 202.073 290.347 202.712 290.356 203.563V208H288.521V203.607C288.521 203.218 288.437 202.937 288.268 202.763C288.098 202.585 287.817 202.497 287.423 202.497C286.907 202.497 286.52 202.717 286.262 203.157V208H284.427V201.132H286.154Z" fill="white"/>
<path d="M216 154.6L222.4 161.1L228.9 154.7" stroke="#00DCE6"/>
<path d="M175.5 142L169.1 135.5L162.6 141.9" stroke="#00DCE6"/>
<path d="M169.1 135.4V147.7H222.3V161.2" stroke="#00DCE6" stroke-miterlimit="10"/>
<path d="M129.2 216.301L135.7 222.601L129.4 229.101" stroke="#00DCE6"/>
<path d="M216 250.199L222.3 243.699L228.8 249.999" stroke="#00DCE6"/>
<path d="M48.8996 262.9L42.5996 269.4L36.0996 263.1" stroke="#00DCE6"/>
<path d="M175.4 263L169.1 269.5L162.6 263.2" stroke="#00DCE6"/>
<path d="M42.7998 269.499V222.699H135.6" stroke="#00DCE6" stroke-miterlimit="10"/>
<path d="M129.199 188.7L135.699 182.4L129.399 175.9" stroke="#00DCE6"/>
<path d="M48.8996 142.1L42.5996 135.6L36.0996 141.9" stroke="#00DCE6"/>
<path d="M42.7998 135.5V182.3H135.6" stroke="#00DCE6" stroke-miterlimit="10"/>
<path d="M169.1 269.499V257.199H222.3V243.699" stroke="#00DCE6" stroke-miterlimit="10"/>
<path d="M345.4 188.601L338.9 182.301L345.2 175.801" stroke="#00DCE6"/>
<path d="M263.5 154.699L257.2 161.199L250.7 154.899" stroke="#00DCE6"/>
<path d="M425.6 142L431.9 135.5L438.4 141.8" stroke="#00DCE6"/>
<path d="M304.1 142L310.4 135.5L316.9 141.8" stroke="#00DCE6"/>
<path d="M431.8 135.4V182.2H338.9" stroke="#00DCE6" stroke-miterlimit="10"/>
<path d="M310.5 135.4V147.7H257.3V161.2" stroke="#00DCE6" stroke-miterlimit="10"/>
<path d="M345.4 216.301L338.9 222.601L345.2 229.101" stroke="#00DCE6"/>
<path d="M263.5 250.199L257.2 243.699L250.7 249.999" stroke="#00DCE6"/>
<path d="M425.4 262.9L431.7 269.4L438.2 263.1" stroke="#00DCE6"/>
<path d="M304.1 262.9L310.4 269.4L316.9 263.1" stroke="#00DCE6"/>
<path d="M431.8 269.499V222.699H338.9" stroke="#00DCE6" stroke-miterlimit="10"/>
<path d="M310.5 269.499V257.199H257.3V243.699" stroke="#00DCE6" stroke-miterlimit="10"/>
</g>
<defs>
<clipPath id="clip0">
<rect width="476" height="396" fill="white"/>
</clipPath>
</defs>
</svg>
