<svg width="330" height="346" viewBox="0 0 330 346" fill="none" xmlns="http://www.w3.org/2000/svg">
<g clip-path="url(#clip0)">
<path d="M194.25 326.224H191.964V332.562H191.032V326.224H188.751V325.452H194.25V326.224ZM196.867 332.659C196.151 332.659 195.568 332.425 195.119 331.956C194.669 331.484 194.445 330.854 194.445 330.066V329.9C194.445 329.376 194.544 328.909 194.743 328.499C194.944 328.086 195.224 327.763 195.583 327.532C195.944 327.298 196.334 327.181 196.754 327.181C197.441 327.181 197.975 327.407 198.356 327.859C198.737 328.312 198.927 328.96 198.927 329.803V330.179H195.348C195.361 330.7 195.513 331.121 195.802 331.443C196.095 331.762 196.466 331.922 196.916 331.922C197.235 331.922 197.505 331.857 197.726 331.727C197.947 331.596 198.141 331.424 198.307 331.209L198.859 331.639C198.416 332.319 197.752 332.659 196.867 332.659ZM196.754 327.923C196.39 327.923 196.084 328.056 195.836 328.323C195.589 328.587 195.436 328.958 195.377 329.437H198.024V329.368C197.998 328.909 197.874 328.554 197.653 328.304C197.431 328.05 197.132 327.923 196.754 327.923ZM203.239 332.562C203.187 332.457 203.144 332.272 203.112 332.005C202.692 332.441 202.191 332.659 201.608 332.659C201.087 332.659 200.659 332.513 200.324 332.22C199.992 331.924 199.826 331.549 199.826 331.097C199.826 330.547 200.034 330.12 200.451 329.817C200.871 329.511 201.46 329.358 202.218 329.358H203.097V328.943C203.097 328.628 203.003 328.377 202.814 328.191C202.625 328.003 202.347 327.908 201.979 327.908C201.657 327.908 201.387 327.99 201.168 328.152C200.95 328.315 200.841 328.512 200.841 328.743H199.933C199.933 328.479 200.026 328.226 200.211 327.981C200.4 327.734 200.654 327.539 200.973 327.396C201.295 327.252 201.649 327.181 202.033 327.181C202.641 327.181 203.118 327.334 203.463 327.64C203.808 327.942 203.987 328.361 204 328.895V331.326C204 331.811 204.062 332.197 204.186 332.483V332.562H203.239ZM201.74 331.873C202.023 331.873 202.292 331.8 202.545 331.653C202.799 331.507 202.983 331.316 203.097 331.082V329.998H202.389C201.282 329.998 200.729 330.322 200.729 330.97C200.729 331.253 200.823 331.474 201.012 331.634C201.201 331.793 201.444 331.873 201.74 331.873ZM207.536 331.922C207.858 331.922 208.139 331.824 208.38 331.629C208.621 331.434 208.755 331.189 208.781 330.896H209.635C209.619 331.199 209.515 331.487 209.323 331.761C209.131 332.034 208.874 332.252 208.551 332.415C208.232 332.578 207.894 332.659 207.536 332.659C206.816 332.659 206.243 332.42 205.817 331.941C205.394 331.46 205.182 330.802 205.182 329.969V329.817C205.182 329.303 205.277 328.846 205.465 328.445C205.654 328.045 205.924 327.734 206.276 327.513C206.631 327.291 207.049 327.181 207.531 327.181C208.123 327.181 208.615 327.358 209.005 327.713C209.399 328.068 209.609 328.528 209.635 329.095H208.781C208.755 328.753 208.625 328.473 208.39 328.255C208.159 328.034 207.873 327.923 207.531 327.923C207.072 327.923 206.715 328.089 206.461 328.421C206.211 328.75 206.085 329.227 206.085 329.852V330.022C206.085 330.631 206.211 331.1 206.461 331.429C206.712 331.757 207.07 331.922 207.536 331.922ZM211.554 327.918C211.955 327.426 212.475 327.181 213.117 327.181C214.233 327.181 214.796 327.811 214.806 329.07V332.562H213.903V329.065C213.9 328.685 213.812 328.403 213.639 328.221C213.47 328.038 213.205 327.947 212.843 327.947C212.55 327.947 212.293 328.025 212.072 328.182C211.85 328.338 211.678 328.543 211.554 328.797V332.562H210.651V325.062H211.554V327.918ZM218.351 332.659C217.635 332.659 217.052 332.425 216.603 331.956C216.154 331.484 215.929 330.854 215.929 330.066V329.9C215.929 329.376 216.028 328.909 216.227 328.499C216.429 328.086 216.709 327.763 217.067 327.532C217.428 327.298 217.819 327.181 218.239 327.181C218.926 327.181 219.459 327.407 219.84 327.859C220.221 328.312 220.412 328.96 220.412 329.803V330.179H216.833C216.846 330.7 216.997 331.121 217.287 331.443C217.58 331.762 217.951 331.922 218.4 331.922C218.719 331.922 218.989 331.857 219.21 331.727C219.432 331.596 219.625 331.424 219.792 331.209L220.343 331.639C219.901 332.319 219.236 332.659 218.351 332.659ZM218.239 327.923C217.874 327.923 217.568 328.056 217.321 328.323C217.073 328.587 216.92 328.958 216.862 329.437H219.508V329.368C219.482 328.909 219.359 328.554 219.137 328.304C218.916 328.05 218.616 327.923 218.239 327.923ZM224.015 328.089C223.878 328.066 223.73 328.055 223.571 328.055C222.978 328.055 222.576 328.307 222.365 328.812V332.562H221.461V327.278H222.34L222.355 327.889C222.651 327.417 223.071 327.181 223.615 327.181C223.791 327.181 223.924 327.203 224.015 327.249V328.089ZM227.926 331.16C227.926 330.916 227.833 330.727 227.648 330.594C227.466 330.457 227.145 330.34 226.686 330.242C226.23 330.145 225.867 330.027 225.597 329.891C225.33 329.754 225.132 329.591 225.001 329.402C224.875 329.214 224.811 328.989 224.811 328.729C224.811 328.296 224.993 327.929 225.358 327.63C225.726 327.33 226.194 327.181 226.764 327.181C227.363 327.181 227.848 327.335 228.219 327.645C228.594 327.954 228.781 328.349 228.781 328.831H227.873C227.873 328.584 227.767 328.37 227.555 328.191C227.347 328.012 227.083 327.923 226.764 327.923C226.435 327.923 226.178 327.994 225.993 328.138C225.807 328.281 225.714 328.468 225.714 328.699C225.714 328.917 225.801 329.082 225.973 329.192C226.146 329.303 226.457 329.409 226.906 329.51C227.358 329.611 227.724 329.731 228.004 329.871C228.284 330.011 228.491 330.18 228.625 330.379C228.761 330.574 228.83 330.813 228.83 331.097C228.83 331.569 228.641 331.948 228.263 332.234C227.886 332.518 227.396 332.659 226.793 332.659C226.37 332.659 225.996 332.584 225.67 332.435C225.345 332.285 225.089 332.076 224.904 331.81C224.722 331.539 224.63 331.248 224.63 330.936H225.534C225.55 331.238 225.67 331.479 225.895 331.658C226.123 331.834 226.422 331.922 226.793 331.922C227.135 331.922 227.409 331.854 227.614 331.717C227.822 331.577 227.926 331.391 227.926 331.16Z" fill="#1F2432"/>
<path d="M209 317.2C226.9 317.2 241.4 302.7 241.4 284.8C241.4 266.9 227 252.5 209 252.5C191 252.5 176.7 267 176.7 284.8C176.7 302.6 191.2 317.2 209 317.2Z" fill="#1F2432"/>
<path d="M218.4 297.3L215.1 292.4L220.9 288.6L223.1 292C223 292.2 222.3 292.7 222 293C221.5 292.8 220.9 292.9 220.7 292.9C220.5 292.9 219.9 293.8 219.8 294C219.7 294 219 294.5 219 294.8C219.1 295.8 219.8 296.7 220.3 296.4C221.7 295.9 224.4 294.5 225.8 293C226.5 292.2 226.6 291.4 225.9 290.5L222.8 285.5C221.9 284.2 218.8 283.6 217.3 283.6C215.9 283.6 212.7 284.4 211.8 285.5C211 286.5 209.2 288.9 208.6 289.5L206.6 288.4C206.3 287.8 206.7 287.6 206.7 287.1C206.7 286.9 205.1 285.4 204.8 285.4C203.8 285.2 202.8 287.1 203.2 287.8C203.5 288.4 204 289 204.2 289.2C207.7 293.4 207.8 293.8 209 293.8C210.2 293.9 212.5 291.6 212.8 291.1V297.7" stroke="#00DCE6" stroke-miterlimit="10"/>
<path d="M217.7 274.5C219.4 274.5 220.8 275.5 220.8 278.3C220.8 281.1 219.4 282.1 217.7 282.1C216.1 282.1 214.6 281.1 214.6 278.3C214.6 275.4 215.9 274.5 217.7 274.5Z" stroke="#00DCE6" stroke-miterlimit="10"/>
<path d="M204.5 276.5V285.6" stroke="#00DCE6" stroke-miterlimit="10"/>
<path d="M212.6 296.3H191.9V270H225.6V290.1" stroke="#00DCE6" stroke-miterlimit="10"/>
<path d="M279.92 329.392C279.116 329.16 278.53 328.877 278.162 328.542C277.798 328.203 277.615 327.787 277.615 327.292C277.615 326.732 277.838 326.27 278.284 325.905C278.733 325.537 279.316 325.354 280.032 325.354C280.521 325.354 280.955 325.448 281.336 325.637C281.72 325.826 282.016 326.086 282.225 326.418C282.436 326.75 282.542 327.113 282.542 327.507H281.6C281.6 327.077 281.463 326.74 281.189 326.496C280.916 326.249 280.53 326.125 280.032 326.125C279.57 326.125 279.209 326.228 278.948 326.433C278.691 326.634 278.562 326.916 278.562 327.277C278.562 327.567 278.685 327.813 278.929 328.015C279.176 328.213 279.594 328.396 280.184 328.562C280.776 328.728 281.238 328.911 281.57 329.113C281.906 329.312 282.153 329.545 282.312 329.812C282.475 330.078 282.557 330.393 282.557 330.754C282.557 331.33 282.332 331.792 281.883 332.141C281.434 332.486 280.833 332.658 280.081 332.658C279.593 332.658 279.137 332.565 278.714 332.38C278.291 332.191 277.964 331.934 277.732 331.608C277.505 331.283 277.391 330.913 277.391 330.5H278.333C278.333 330.93 278.491 331.27 278.807 331.521C279.126 331.768 279.55 331.892 280.081 331.892C280.576 331.892 280.955 331.791 281.219 331.589C281.482 331.387 281.614 331.112 281.614 330.764C281.614 330.415 281.492 330.147 281.248 329.958C281.004 329.766 280.561 329.577 279.92 329.392ZM284.847 325.998V327.277H285.833V327.976H284.847V331.252C284.847 331.464 284.891 331.623 284.979 331.73C285.066 331.835 285.216 331.887 285.428 331.887C285.532 331.887 285.675 331.867 285.857 331.828V332.561C285.62 332.626 285.389 332.658 285.164 332.658C284.76 332.658 284.456 332.536 284.251 332.292C284.046 332.048 283.943 331.701 283.943 331.252V327.976H282.981V327.277H283.943V325.998H284.847ZM290.154 332.038C289.803 332.451 289.287 332.658 288.606 332.658C288.043 332.658 287.614 332.495 287.317 332.17C287.024 331.841 286.876 331.356 286.873 330.715V327.277H287.776V330.69C287.776 331.491 288.102 331.892 288.753 331.892C289.443 331.892 289.902 331.634 290.13 331.12V327.277H291.033V332.561H290.174L290.154 332.038ZM292.19 329.875C292.19 329.064 292.382 328.413 292.767 327.922C293.151 327.427 293.654 327.18 294.275 327.18C294.894 327.18 295.384 327.391 295.745 327.814V325.061H296.648V332.561H295.818L295.774 331.994C295.413 332.437 294.91 332.658 294.266 332.658C293.654 332.658 293.154 332.408 292.767 331.906C292.382 331.405 292.19 330.751 292.19 329.943V329.875ZM293.094 329.978C293.094 330.576 293.217 331.045 293.465 331.384C293.712 331.722 294.054 331.892 294.49 331.892C295.063 331.892 295.481 331.634 295.745 331.12V328.693C295.475 328.195 295.06 327.946 294.5 327.946C294.057 327.946 293.712 328.117 293.465 328.459C293.217 328.801 293.094 329.307 293.094 329.978ZM300.247 332.658C299.531 332.658 298.948 332.424 298.499 331.955C298.05 331.483 297.825 330.853 297.825 330.065V329.899C297.825 329.375 297.924 328.908 298.123 328.498C298.325 328.085 298.605 327.762 298.963 327.531C299.324 327.297 299.715 327.18 300.135 327.18C300.822 327.18 301.355 327.406 301.736 327.858C302.117 328.311 302.308 328.959 302.308 329.802V330.178H298.729C298.742 330.699 298.893 331.12 299.183 331.442C299.476 331.761 299.847 331.921 300.296 331.921C300.615 331.921 300.885 331.856 301.106 331.726C301.328 331.595 301.521 331.423 301.688 331.208L302.239 331.638C301.797 332.318 301.132 332.658 300.247 332.658ZM300.135 327.922C299.77 327.922 299.464 328.055 299.217 328.322C298.969 328.586 298.816 328.957 298.758 329.436H301.404V329.367C301.378 328.908 301.255 328.553 301.033 328.303C300.812 328.049 300.512 327.922 300.135 327.922ZM304.212 327.277L304.241 327.941C304.645 327.434 305.172 327.18 305.823 327.18C306.94 327.18 307.503 327.81 307.513 329.069V332.561H306.609V329.064C306.606 328.684 306.518 328.402 306.346 328.22C306.176 328.037 305.911 327.946 305.55 327.946C305.257 327.946 305 328.024 304.778 328.181C304.557 328.337 304.384 328.542 304.261 328.796V332.561H303.357V327.277H304.212ZM310.101 325.998V327.277H311.087V327.976H310.101V331.252C310.101 331.464 310.145 331.623 310.232 331.73C310.32 331.835 310.47 331.887 310.682 331.887C310.786 331.887 310.929 331.867 311.111 331.828V332.561C310.874 332.626 310.643 332.658 310.418 332.658C310.014 332.658 309.71 332.536 309.505 332.292C309.3 332.048 309.197 331.701 309.197 331.252V327.976H308.235V327.277H309.197V325.998H310.101ZM315.223 331.159C315.223 330.915 315.13 330.726 314.944 330.593C314.762 330.456 314.441 330.339 313.982 330.241C313.527 330.144 313.164 330.026 312.894 329.89C312.627 329.753 312.428 329.59 312.298 329.401C312.171 329.213 312.107 328.988 312.107 328.728C312.107 328.295 312.29 327.928 312.654 327.629C313.022 327.329 313.491 327.18 314.061 327.18C314.66 327.18 315.145 327.334 315.516 327.644C315.89 327.953 316.077 328.348 316.077 328.83H315.169C315.169 328.583 315.063 328.369 314.852 328.19C314.643 328.011 314.38 327.922 314.061 327.922C313.732 327.922 313.475 327.993 313.289 328.137C313.104 328.28 313.011 328.467 313.011 328.698C313.011 328.916 313.097 329.081 313.27 329.191C313.442 329.302 313.753 329.408 314.202 329.509C314.655 329.61 315.021 329.73 315.301 329.87C315.581 330.01 315.787 330.179 315.921 330.378C316.058 330.573 316.126 330.812 316.126 331.096C316.126 331.568 315.937 331.947 315.56 332.233C315.182 332.517 314.692 332.658 314.09 332.658C313.667 332.658 313.292 332.583 312.967 332.434C312.641 332.284 312.386 332.076 312.2 331.809C312.018 331.538 311.927 331.247 311.927 330.935H312.83C312.846 331.237 312.967 331.478 313.191 331.657C313.419 331.833 313.719 331.921 314.09 331.921C314.432 331.921 314.705 331.853 314.91 331.716C315.118 331.576 315.223 331.39 315.223 331.159Z" fill="#1F2432"/>
<path d="M296.9 317.2C314.7 317.2 329.2 302.7 329.2 284.8C329.2 266.9 314.7 252.5 296.9 252.5C279 252.5 264.5 267 264.5 284.8C264.5 302.6 278.9 317.2 296.9 317.2Z" fill="#1F2432"/>
<path d="M292.8 285.3V287.6H292.2L290.5 289.3L287.6 290.7C286 291.1 284.7 292.3 284.7 293.4V300.4" fill="#1F2432"/>
<path d="M292.8 285.3V287.6H292.2L290.5 289.3L287.6 290.7C286 291.1 284.7 292.3 284.7 293.4V300.4" stroke="#00DCE6" stroke-miterlimit="10"/>
<path d="M302.2 275.3V276.5L303.4 277.1V279.4C303.4 279.8 303.2 280.2 302.9 280.4L302.2 281.2C302.2 281.2 302.2 282.1 302.2 282.4C302.2 284.7 299.2 285.6 298.7 285.9C298.2 286.2 297.3 286.5 296.4 286.5C295.5 286.5 294.6 286.2 294.1 285.9C293.6 285.7 290.6 284.6 290.6 282.4C290.6 282.1 290.6 281.2 290.6 281.2L289.9 280.4C289.6 280.2 289.4 279.8 289.4 279.4V277.1L290.6 276.5V275.3C290.6 272.4 292.9 270 295.9 270H297.1C299.8 270 302.2 272.4 302.2 275.3Z" fill="#1F2432" stroke="#00DCE6" stroke-miterlimit="10"/>
<path d="M292.8 287.6L296.3 290.5" stroke="#00DCE6" stroke-miterlimit="10"/>
<path d="M296.3 290.5L293.3 292.8L290.4 289.4" fill="#1F2432"/>
<path d="M296.3 290.5L293.3 292.8L290.4 289.4" stroke="#00DCE6" stroke-miterlimit="10"/>
<path d="M299.8 285.3V287.6H300.4L302.1 289.3L305 290.7C306.6 291.1 307.9 292.3 307.9 293.4V300.4" fill="#1F2432"/>
<path d="M299.8 285.3V287.6H300.4L302.1 289.3L305 290.7C306.6 291.1 307.9 292.3 307.9 293.4V300.4" stroke="#00DCE6" stroke-miterlimit="10"/>
<path d="M299.8 287.6L296.3 290.5" stroke="#00DCE6" stroke-miterlimit="10"/>
<path d="M296.3 290.5L299.3 292.8L302.2 289.4" fill="#1F2432"/>
<path d="M296.3 290.5L299.3 292.8L302.2 289.4" stroke="#00DCE6" stroke-miterlimit="10"/>
<path d="M298.1 291.7L297.5 294.6H295.1L294.5 291.7" fill="#1F2432"/>
<path d="M298.1 291.7L297.5 294.6H295.1L294.5 291.7" stroke="#00DCE6" stroke-miterlimit="10"/>
<path d="M298.1 299.9L297.5 294.6H295.1L294.5 299.9" fill="#1F2432"/>
<path d="M298.1 299.9L297.5 294.6H295.1L294.5 299.9" stroke="#00DCE6" stroke-miterlimit="10"/>
<path d="M104.36 74.2236H102.074V80.5615H101.142V74.2236H98.8616V73.4521H104.36V74.2236ZM106.977 80.6592C106.261 80.6592 105.678 80.4248 105.229 79.9561C104.78 79.484 104.555 78.8542 104.555 78.0664V77.9004C104.555 77.3763 104.654 76.9092 104.853 76.499C105.055 76.0856 105.335 75.7633 105.693 75.5322C106.054 75.2979 106.445 75.1807 106.865 75.1807C107.551 75.1807 108.085 75.4069 108.466 75.8594C108.847 76.3118 109.037 76.9596 109.037 77.8027V78.1787H105.458C105.471 78.6995 105.623 79.1211 105.912 79.4434C106.205 79.7624 106.576 79.9219 107.026 79.9219C107.345 79.9219 107.615 79.8568 107.836 79.7266C108.058 79.5964 108.251 79.4238 108.417 79.209L108.969 79.6387C108.526 80.319 107.862 80.6592 106.977 80.6592ZM106.865 75.9229C106.5 75.9229 106.194 76.0563 105.947 76.3232C105.699 76.5869 105.546 76.958 105.488 77.4365H108.134V77.3682C108.108 76.9092 107.984 76.5544 107.763 76.3037C107.542 76.0498 107.242 75.9229 106.865 75.9229ZM113.349 80.5615C113.297 80.4574 113.254 80.2718 113.222 80.0049C112.802 80.4411 112.301 80.6592 111.718 80.6592C111.197 80.6592 110.769 80.5127 110.434 80.2197C110.102 79.9235 109.936 79.5492 109.936 79.0967C109.936 78.5465 110.144 78.1201 110.561 77.8174C110.981 77.5114 111.57 77.3584 112.328 77.3584H113.207V76.9434C113.207 76.6276 113.113 76.377 112.924 76.1914C112.735 76.0026 112.457 75.9082 112.089 75.9082C111.767 75.9082 111.497 75.9896 111.279 76.1523C111.06 76.3151 110.951 76.512 110.951 76.7432H110.043C110.043 76.4795 110.136 76.2256 110.322 75.9814C110.51 75.734 110.764 75.5387 111.083 75.3955C111.406 75.2523 111.759 75.1807 112.143 75.1807C112.752 75.1807 113.228 75.3337 113.573 75.6396C113.919 75.9424 114.098 76.3607 114.111 76.8945V79.3262C114.111 79.8112 114.172 80.1969 114.296 80.4834V80.5615H113.349ZM111.85 79.873C112.133 79.873 112.402 79.7998 112.656 79.6533C112.909 79.5068 113.093 79.3164 113.207 79.082V77.998H112.499C111.392 77.998 110.839 78.3219 110.839 78.9697C110.839 79.2529 110.934 79.4743 111.122 79.6338C111.311 79.7933 111.554 79.873 111.85 79.873ZM117.646 79.9219C117.968 79.9219 118.25 79.8242 118.49 79.6289C118.731 79.4336 118.865 79.1895 118.891 78.8965H119.745C119.729 79.1992 119.625 79.4873 119.433 79.7607C119.241 80.0342 118.984 80.2523 118.661 80.415C118.342 80.5778 118.004 80.6592 117.646 80.6592C116.926 80.6592 116.353 80.4199 115.927 79.9414C115.504 79.4596 115.292 78.8021 115.292 77.9688V77.8174C115.292 77.3031 115.387 76.8457 115.575 76.4453C115.764 76.0449 116.034 75.734 116.386 75.5127C116.741 75.2913 117.159 75.1807 117.641 75.1807C118.233 75.1807 118.725 75.3581 119.115 75.7129C119.509 76.0677 119.719 76.5283 119.745 77.0947H118.891C118.865 76.7529 118.735 76.473 118.5 76.2549C118.269 76.0335 117.983 75.9229 117.641 75.9229C117.182 75.9229 116.825 76.0889 116.572 76.4209C116.321 76.7497 116.196 77.2266 116.196 77.8516V78.0225C116.196 78.6312 116.321 79.0999 116.572 79.4287C116.822 79.7575 117.18 79.9219 117.646 79.9219ZM121.664 75.918C122.065 75.4264 122.586 75.1807 123.227 75.1807C124.343 75.1807 124.906 75.8105 124.916 77.0703V80.5615H124.013V77.0654C124.01 76.6846 123.922 76.403 123.749 76.2207C123.58 76.0384 123.315 75.9473 122.953 75.9473C122.66 75.9473 122.403 76.0254 122.182 76.1816C121.961 76.3379 121.788 76.543 121.664 76.7969V80.5615H120.761V73.0615H121.664V75.918ZM128.461 80.6592C127.745 80.6592 127.162 80.4248 126.713 79.9561C126.264 79.484 126.039 78.8542 126.039 78.0664V77.9004C126.039 77.3763 126.139 76.9092 126.337 76.499C126.539 76.0856 126.819 75.7633 127.177 75.5322C127.538 75.2979 127.929 75.1807 128.349 75.1807C129.036 75.1807 129.57 75.4069 129.95 75.8594C130.331 76.3118 130.522 76.9596 130.522 77.8027V78.1787H126.943C126.956 78.6995 127.107 79.1211 127.397 79.4434C127.69 79.7624 128.061 79.9219 128.51 79.9219C128.829 79.9219 129.099 79.8568 129.321 79.7266C129.542 79.5964 129.736 79.4238 129.902 79.209L130.453 79.6387C130.011 80.319 129.347 80.6592 128.461 80.6592ZM128.349 75.9229C127.984 75.9229 127.678 76.0563 127.431 76.3232C127.184 76.5869 127.031 76.958 126.972 77.4365H129.618V77.3682C129.592 76.9092 129.469 76.5544 129.247 76.3037C129.026 76.0498 128.726 75.9229 128.349 75.9229ZM134.125 76.0889C133.989 76.0661 133.84 76.0547 133.681 76.0547C133.088 76.0547 132.686 76.307 132.475 76.8115V80.5615H131.572V75.2783H132.45L132.465 75.8887C132.761 75.4167 133.181 75.1807 133.725 75.1807C133.901 75.1807 134.034 75.2035 134.125 75.249V76.0889ZM138.036 79.1602C138.036 78.916 137.944 78.7272 137.758 78.5938C137.576 78.457 137.255 78.3398 136.796 78.2422C136.34 78.1445 135.977 78.0273 135.707 77.8906C135.44 77.7539 135.242 77.5911 135.112 77.4023C134.985 77.2135 134.921 76.9889 134.921 76.7285C134.921 76.2956 135.103 75.9294 135.468 75.6299C135.836 75.3304 136.305 75.1807 136.874 75.1807C137.473 75.1807 137.958 75.3353 138.329 75.6445C138.704 75.9538 138.891 76.3493 138.891 76.8311H137.983C137.983 76.5837 137.877 76.3704 137.665 76.1914C137.457 76.0124 137.193 75.9229 136.874 75.9229C136.545 75.9229 136.288 75.9945 136.103 76.1377C135.917 76.2809 135.824 76.4681 135.824 76.6992C135.824 76.9173 135.911 77.0817 136.083 77.1924C136.256 77.3031 136.567 77.4089 137.016 77.5098C137.468 77.6107 137.835 77.7311 138.115 77.8711C138.394 78.0111 138.601 78.1803 138.735 78.3789C138.871 78.5742 138.94 78.8135 138.94 79.0967C138.94 79.5687 138.751 79.9479 138.373 80.2344C137.996 80.5176 137.506 80.6592 136.904 80.6592C136.48 80.6592 136.106 80.5843 135.781 80.4346C135.455 80.2848 135.199 80.0765 135.014 79.8096C134.832 79.5394 134.74 79.248 134.74 78.9355H135.644C135.66 79.2383 135.781 79.4792 136.005 79.6582C136.233 79.834 136.532 79.9219 136.904 79.9219C137.245 79.9219 137.519 79.8535 137.724 79.7168C137.932 79.5768 138.036 79.3913 138.036 79.1602Z" fill="#1F2432"/>
<path d="M119.2 65.2C137.1 65.2 151.6 50.7 151.6 32.8C151.6 14.9 137.1 0.5 119.2 0.5C101.3 0.5 86.8 15 86.8 32.8C86.8 50.6 101.3 65.2 119.2 65.2Z" fill="#1F2432"/>
<path d="M128.5 45.3L125.2 40.4L131 36.6L133.2 40C133.1 40.2 132.4 40.7 132.1 41C131.7 40.8 131 40.8 130.8 40.8C130.6 40.8 130 41.7 129.9 41.9C129.8 41.9 129.1 42.4 129.1 42.7C129.2 43.7 129.9 44.6 130.5 44.3C131.9 43.9 134.6 42.4 136 40.9C136.7 40.1 136.8 39.3 136.1 38.4L133 33.4C132.1 32.1 129 31.5 127.5 31.5C126.1 31.5 122.9 32.2 122 33.4C121.2 34.5 119.5 36.9 118.8 37.5L116.8 36.4C116.5 35.8 117 35.6 116.9 35.1C116.9 34.9 115.3 33.4 115 33.4C114 33.2 113 35.1 113.4 35.8C113.7 36.4 114.2 37 114.4 37.2C117.9 41.4 118 41.8 119.2 41.9C120.4 42 122.7 39.7 123 39.2V45.8" stroke="#00DCE6" stroke-miterlimit="10"/>
<path d="M127.8 22.5C129.4 22.5 130.9 23.5 130.9 26.3C130.9 29.1 129.6 30.1 127.8 30.1C126.1 30.1 124.7 29.1 124.7 26.3C124.7 23.4 126.1 22.5 127.8 22.5Z" stroke="#00DCE6" stroke-miterlimit="10"/>
<path d="M114.6 24.5V33.6" stroke="#00DCE6" stroke-miterlimit="10"/>
<path d="M122.7 44.3H102V18H135.7V38.1" stroke="#00DCE6" stroke-miterlimit="10"/>
<path d="M278.012 77.2754H274.931V79.7949H278.51V80.5615H273.993V73.4521H278.461V74.2236H274.931V76.5088H278.012V77.2754ZM280.385 75.2783L280.409 75.8643C280.797 75.4085 281.319 75.1807 281.977 75.1807C282.716 75.1807 283.219 75.4639 283.486 76.0303C283.661 75.7764 283.889 75.5713 284.169 75.415C284.452 75.2588 284.786 75.1807 285.17 75.1807C286.329 75.1807 286.918 75.7943 286.938 77.0215V80.5615H286.034V77.0752C286.034 76.6976 285.948 76.416 285.776 76.2305C285.603 76.0417 285.313 75.9473 284.906 75.9473C284.571 75.9473 284.293 76.0482 284.072 76.25C283.85 76.4486 283.722 76.7171 283.686 77.0557V80.5615H282.778V77.0996C282.778 76.3314 282.402 75.9473 281.65 75.9473C281.057 75.9473 280.652 76.1995 280.434 76.7041V80.5615H279.531V75.2783H280.385ZM292.768 77.9785C292.768 78.7826 292.584 79.4303 292.216 79.9219C291.848 80.4134 291.35 80.6592 290.722 80.6592C290.081 80.6592 289.576 80.4557 289.208 80.0488V82.5928H288.305V75.2783H289.13L289.174 75.8643C289.542 75.4085 290.053 75.1807 290.707 75.1807C291.342 75.1807 291.843 75.4199 292.211 75.8984C292.582 76.377 292.768 77.0426 292.768 77.8955V77.9785ZM291.865 77.876C291.865 77.2803 291.738 76.8099 291.484 76.4648C291.23 76.1198 290.881 75.9473 290.439 75.9473C289.892 75.9473 289.482 76.1898 289.208 76.6748V79.1992C289.478 79.681 289.892 79.9219 290.448 79.9219C290.881 79.9219 291.225 79.751 291.479 79.4092C291.736 79.0641 291.865 78.5531 291.865 77.876ZM294.902 80.5615H293.998V73.0615H294.902V80.5615ZM296.113 77.8711C296.113 77.3535 296.213 76.888 296.415 76.4746C296.62 76.0612 296.904 75.7422 297.265 75.5176C297.629 75.293 298.045 75.1807 298.51 75.1807C299.229 75.1807 299.81 75.4297 300.253 75.9277C300.699 76.4258 300.922 77.0882 300.922 77.915V77.9785C300.922 78.4928 300.823 78.9551 300.624 79.3652C300.429 79.7721 300.147 80.0895 299.78 80.3174C299.415 80.5452 298.995 80.6592 298.52 80.6592C297.804 80.6592 297.223 80.4102 296.777 79.9121C296.334 79.4141 296.113 78.7549 296.113 77.9346V77.8711ZM297.021 77.9785C297.021 78.5645 297.156 79.0348 297.426 79.3896C297.699 79.7445 298.064 79.9219 298.52 79.9219C298.979 79.9219 299.343 79.7428 299.614 79.3848C299.884 79.0234 300.019 78.5189 300.019 77.8711C300.019 77.2917 299.88 76.8229 299.604 76.4648C299.33 76.1035 298.966 75.9229 298.51 75.9229C298.064 75.9229 297.704 76.1003 297.431 76.4551C297.157 76.8099 297.021 77.3177 297.021 77.9785ZM303.705 79.2383L304.936 75.2783H305.903L303.779 81.377C303.45 82.2559 302.927 82.6953 302.211 82.6953L302.04 82.6807L301.703 82.6172V81.8848L301.948 81.9043C302.253 81.9043 302.491 81.8424 302.66 81.7188C302.833 81.5951 302.975 81.3688 303.085 81.04L303.285 80.5029L301.401 75.2783H302.387L303.705 79.2383ZM308.837 80.6592C308.121 80.6592 307.538 80.4248 307.089 79.9561C306.64 79.484 306.415 78.8542 306.415 78.0664V77.9004C306.415 77.3763 306.515 76.9092 306.713 76.499C306.915 76.0856 307.195 75.7633 307.553 75.5322C307.914 75.2979 308.305 75.1807 308.725 75.1807C309.412 75.1807 309.946 75.4069 310.326 75.8594C310.707 76.3118 310.898 76.9596 310.898 77.8027V78.1787H307.319C307.332 78.6995 307.483 79.1211 307.773 79.4434C308.066 79.7624 308.437 79.9219 308.886 79.9219C309.205 79.9219 309.475 79.8568 309.697 79.7266C309.918 79.5964 310.112 79.4238 310.278 79.209L310.829 79.6387C310.387 80.319 309.723 80.6592 308.837 80.6592ZM308.725 75.9229C308.36 75.9229 308.054 76.0563 307.807 76.3232C307.559 76.5869 307.406 76.958 307.348 77.4365H309.994V77.3682C309.968 76.9092 309.845 76.5544 309.623 76.3037C309.402 76.0498 309.102 75.9229 308.725 75.9229ZM314.501 76.0889C314.365 76.0661 314.216 76.0547 314.057 76.0547C313.464 76.0547 313.062 76.307 312.851 76.8115V80.5615H311.948V75.2783H312.826L312.841 75.8887C313.137 75.4167 313.557 75.1807 314.101 75.1807C314.277 75.1807 314.41 75.2035 314.501 75.249V76.0889ZM318.412 79.1602C318.412 78.916 318.32 78.7272 318.134 78.5938C317.952 78.457 317.631 78.3398 317.172 78.2422C316.716 78.1445 316.353 78.0273 316.083 77.8906C315.816 77.7539 315.618 77.5911 315.488 77.4023C315.361 77.2135 315.297 76.9889 315.297 76.7285C315.297 76.2956 315.479 75.9294 315.844 75.6299C316.212 75.3304 316.681 75.1807 317.25 75.1807C317.849 75.1807 318.334 75.3353 318.705 75.6445C319.08 75.9538 319.267 76.3493 319.267 76.8311H318.359C318.359 76.5837 318.253 76.3704 318.041 76.1914C317.833 76.0124 317.569 75.9229 317.25 75.9229C316.921 75.9229 316.664 75.9945 316.479 76.1377C316.293 76.2809 316.2 76.4681 316.2 76.6992C316.2 76.9173 316.287 77.0817 316.459 77.1924C316.632 77.3031 316.943 77.4089 317.392 77.5098C317.844 77.6107 318.211 77.7311 318.49 77.8711C318.77 78.0111 318.977 78.1803 319.111 78.3789C319.247 78.5742 319.316 78.8135 319.316 79.0967C319.316 79.5687 319.127 79.9479 318.749 80.2344C318.372 80.5176 317.882 80.6592 317.28 80.6592C316.856 80.6592 316.482 80.5843 316.156 80.4346C315.831 80.2848 315.575 80.0765 315.39 79.8096C315.208 79.5394 315.116 79.248 315.116 78.9355H316.02C316.036 79.2383 316.156 79.4792 316.381 79.6582C316.609 79.834 316.908 79.9219 317.28 79.9219C317.621 79.9219 317.895 79.8535 318.1 79.7168C318.308 79.5768 318.412 79.3913 318.412 79.1602Z" fill="#1F2432"/>
<path d="M296.8 65.2C314.6 65.2 329.2 50.7 329.2 32.8C329.2 14.9 314.7 0.5 296.8 0.5C278.9 0.5 264.4 15 264.4 32.9C264.4 50.8 279 65.2 296.8 65.2Z" fill="#1F2432"/>
<path d="M310.8 36.6V31.3C310.8 28.9 309.1 28 307.5 28H302.2C300.5 28 298.9 29 298.9 31.3V36.6" fill="#1F2432"/>
<path d="M310.8 36.6V31.3C310.8 28.9 309.1 28 307.5 28H302.2C300.5 28 298.9 29 298.9 31.3V36.6" stroke="#00DCE6" stroke-miterlimit="10" stroke-linejoin="round"/>
<path d="M308.1 35.9998V31.2998" stroke="#00DCE6" stroke-miterlimit="10" stroke-linejoin="round"/>
<path d="M301.5 31.2998V35.9998" stroke="#00DCE6" stroke-miterlimit="10" stroke-linejoin="round"/>
<path d="M280.9 36.5996H284.2" stroke="#00DCE6" stroke-miterlimit="10" stroke-linejoin="round"/>
<path d="M296.2 36.5996H312.8" stroke="#00DCE6" stroke-miterlimit="10" stroke-linejoin="round"/>
<path d="M304.8 25.2992C306.4 25.2992 307.4 24.1992 307.4 22.6992V21.2992C307.4 19.6992 306.3 18.6992 304.8 18.6992C303.2 18.6992 302.2 19.6992 302.2 21.2992V22.6992C302.1 24.2992 303.3 25.2992 304.8 25.2992Z" fill="#1F2432" stroke="#00DCE6" stroke-miterlimit="10" stroke-linejoin="round"/>
<path d="M293.5 39.2994C294.9 39.0994 296.1 38.6994 296.1 36.6994V30.6994C296.1 28.2994 294.4 27.3994 292.8 27.3994H287.5C285.8 27.3994 284.2 28.3994 284.2 30.6994V36.6994C284.2 38.6994 285.4 39.0994 286.8 39.2994" fill="#1F2432"/>
<path d="M293.5 39.2994C294.9 39.0994 296.1 38.6994 296.1 36.6994V30.6994C296.1 28.2994 294.4 27.3994 292.8 27.3994H287.5C285.8 27.3994 284.2 28.3994 284.2 30.6994V36.6994C284.2 38.6994 285.4 39.0994 286.8 39.2994" stroke="#00DCE6" stroke-miterlimit="10" stroke-linejoin="round"/>
<path d="M293.6 30.5996H286.9V41.8996H293.6V30.5996Z" fill="#1F2432" stroke="#00DCE6" stroke-miterlimit="10" stroke-linejoin="round"/>
<path d="M290.2 24.5996C291.8 24.5996 292.8 23.4996 292.8 21.9996V20.6996C292.8 19.0996 291.7 18.0996 290.2 18.0996C288.6 18.0996 287.6 19.0996 287.6 20.6996V21.9996C287.5 23.5996 288.6 24.5996 290.2 24.5996Z" fill="#1F2432" stroke="#00DCE6" stroke-miterlimit="10" stroke-linejoin="round"/>
<path d="M311.4 37.8994V47.1994" stroke="#00DCE6" stroke-miterlimit="10" stroke-linejoin="round"/>
<path d="M282.3 37.8994V47.1994" stroke="#00DCE6" stroke-miterlimit="10" stroke-linejoin="round"/>
<path d="M290.2 42V46.6" stroke="#00DCE6" stroke-miterlimit="10" stroke-linejoin="round"/>
<path d="M286.2 46.5996H294.2" stroke="#00DCE6" stroke-miterlimit="10" stroke-linejoin="round"/>
<path d="M186.993 78.7051H184.015L183.346 80.5605H182.379L185.094 73.4512H185.914L188.634 80.5605H187.672L186.993 78.7051ZM184.298 77.9336H186.715L185.504 74.6084L184.298 77.9336ZM191.569 79.9209C191.891 79.9209 192.172 79.8232 192.413 79.6279C192.654 79.4326 192.788 79.1885 192.814 78.8955H193.668C193.652 79.1982 193.548 79.4863 193.356 79.7598C193.164 80.0332 192.906 80.2513 192.584 80.4141C192.265 80.5768 191.927 80.6582 191.569 80.6582C190.849 80.6582 190.276 80.4189 189.85 79.9404C189.427 79.4587 189.215 78.8011 189.215 77.9678V77.8164C189.215 77.3021 189.309 76.8447 189.498 76.4443C189.687 76.0439 189.957 75.7331 190.309 75.5117C190.664 75.2904 191.082 75.1797 191.564 75.1797C192.156 75.1797 192.648 75.3571 193.038 75.7119C193.432 76.0667 193.642 76.5273 193.668 77.0938H192.814C192.788 76.752 192.657 76.472 192.423 76.2539C192.192 76.0326 191.906 75.9219 191.564 75.9219C191.105 75.9219 190.748 76.0879 190.494 76.4199C190.244 76.7487 190.118 77.2256 190.118 77.8506V78.0215C190.118 78.6302 190.244 79.099 190.494 79.4277C190.745 79.7565 191.103 79.9209 191.569 79.9209ZM196.803 79.9209C197.125 79.9209 197.407 79.8232 197.648 79.6279C197.889 79.4326 198.022 79.1885 198.048 78.8955H198.903C198.886 79.1982 198.782 79.4863 198.59 79.7598C198.398 80.0332 198.141 80.2513 197.819 80.4141C197.5 80.5768 197.161 80.6582 196.803 80.6582C196.084 80.6582 195.511 80.4189 195.084 79.9404C194.661 79.4587 194.449 78.8011 194.449 77.9678V77.8164C194.449 77.3021 194.544 76.8447 194.733 76.4443C194.921 76.0439 195.192 75.7331 195.543 75.5117C195.898 75.2904 196.316 75.1797 196.798 75.1797C197.391 75.1797 197.882 75.3571 198.273 75.7119C198.667 76.0667 198.877 76.5273 198.903 77.0938H198.048C198.022 76.752 197.892 76.472 197.657 76.2539C197.426 76.0326 197.14 75.9219 196.798 75.9219C196.339 75.9219 195.983 76.0879 195.729 76.4199C195.478 76.7487 195.353 77.2256 195.353 77.8506V78.0215C195.353 78.6302 195.478 79.099 195.729 79.4277C195.979 79.7565 196.337 79.9209 196.803 79.9209ZM202.472 76.0879C202.335 76.0651 202.187 76.0537 202.028 76.0537C201.435 76.0537 201.033 76.306 200.822 76.8105V80.5605H199.918V75.2773H200.797L200.812 75.8877C201.108 75.4157 201.528 75.1797 202.072 75.1797C202.247 75.1797 202.381 75.2025 202.472 75.248V76.0879ZM205.402 80.6582C204.685 80.6582 204.103 80.4238 203.654 79.9551C203.204 79.4831 202.98 78.8532 202.98 78.0654V77.8994C202.98 77.3753 203.079 76.9082 203.278 76.498C203.479 76.0846 203.759 75.7624 204.117 75.5312C204.479 75.2969 204.869 75.1797 205.289 75.1797C205.976 75.1797 206.51 75.4059 206.891 75.8584C207.272 76.3109 207.462 76.9587 207.462 77.8018V78.1777H203.883C203.896 78.6986 204.047 79.1201 204.337 79.4424C204.63 79.7614 205.001 79.9209 205.45 79.9209C205.769 79.9209 206.04 79.8558 206.261 79.7256C206.482 79.5954 206.676 79.4229 206.842 79.208L207.394 79.6377C206.951 80.318 206.287 80.6582 205.402 80.6582ZM205.289 75.9219C204.925 75.9219 204.619 76.0553 204.371 76.3223C204.124 76.5859 203.971 76.957 203.912 77.4355H206.559V77.3672C206.533 76.9082 206.409 76.5534 206.188 76.3027C205.966 76.0488 205.667 75.9219 205.289 75.9219ZM208.292 77.875C208.292 77.0645 208.484 76.4134 208.868 75.9219C209.253 75.4271 209.755 75.1797 210.377 75.1797C210.996 75.1797 211.486 75.3913 211.847 75.8145V73.0605H212.75V80.5605H211.92L211.876 79.9941C211.515 80.4368 211.012 80.6582 210.367 80.6582C209.755 80.6582 209.256 80.4076 208.868 79.9062C208.484 79.4049 208.292 78.7507 208.292 77.9434V77.875ZM209.196 77.9775C209.196 78.5765 209.319 79.0452 209.567 79.3838C209.814 79.7223 210.156 79.8916 210.592 79.8916C211.165 79.8916 211.583 79.6344 211.847 79.1201V76.6934C211.577 76.1953 211.162 75.9463 210.602 75.9463C210.159 75.9463 209.814 76.1172 209.567 76.459C209.319 76.8008 209.196 77.307 209.196 77.9775ZM215.138 80.5605H214.235V75.2773H215.138V80.5605ZM214.161 73.876C214.161 73.7295 214.205 73.6058 214.293 73.5049C214.384 73.404 214.518 73.3535 214.694 73.3535C214.869 73.3535 215.003 73.404 215.094 73.5049C215.185 73.6058 215.231 73.7295 215.231 73.876C215.231 74.0225 215.185 74.1445 215.094 74.2422C215.003 74.3398 214.869 74.3887 214.694 74.3887C214.518 74.3887 214.384 74.3398 214.293 74.2422C214.205 74.1445 214.161 74.0225 214.161 73.876ZM217.814 73.998V75.2773H218.8V75.9756H217.814V79.252C217.814 79.4635 217.858 79.623 217.946 79.7305C218.033 79.8346 218.183 79.8867 218.395 79.8867C218.499 79.8867 218.642 79.8672 218.824 79.8281V80.5605C218.587 80.6257 218.356 80.6582 218.131 80.6582C217.727 80.6582 217.423 80.5361 217.218 80.292C217.013 80.0479 216.91 79.7012 216.91 79.252V75.9756H215.948V75.2773H216.91V73.998H217.814ZM219.523 77.8701C219.523 77.3525 219.624 76.887 219.825 76.4736C220.031 76.0602 220.314 75.7412 220.675 75.5166C221.04 75.292 221.455 75.1797 221.92 75.1797C222.64 75.1797 223.221 75.4287 223.663 75.9268C224.109 76.4248 224.332 77.0872 224.332 77.9141V77.9775C224.332 78.4919 224.233 78.9541 224.034 79.3643C223.839 79.7712 223.558 80.0885 223.19 80.3164C222.825 80.5443 222.405 80.6582 221.93 80.6582C221.214 80.6582 220.633 80.4092 220.187 79.9111C219.744 79.4131 219.523 78.7539 219.523 77.9336V77.8701ZM220.431 77.9775C220.431 78.5635 220.566 79.0339 220.836 79.3887C221.11 79.7435 221.474 79.9209 221.93 79.9209C222.389 79.9209 222.753 79.7419 223.024 79.3838C223.294 79.0225 223.429 78.5179 223.429 77.8701C223.429 77.2907 223.291 76.8219 223.014 76.4639C222.74 76.1025 222.376 75.9219 221.92 75.9219C221.474 75.9219 221.115 76.0993 220.841 76.4541C220.568 76.8089 220.431 77.3167 220.431 77.9775ZM228.019 76.0879C227.882 76.0651 227.734 76.0537 227.574 76.0537C226.982 76.0537 226.58 76.306 226.368 76.8105V80.5605H225.465V75.2773H226.344L226.359 75.8877C226.655 75.4157 227.075 75.1797 227.618 75.1797C227.794 75.1797 227.928 75.2025 228.019 75.248V76.0879ZM231.93 79.1592C231.93 78.915 231.837 78.7262 231.652 78.5928C231.469 78.4561 231.149 78.3389 230.69 78.2412C230.234 78.1436 229.871 78.0264 229.601 77.8896C229.334 77.7529 229.135 77.5902 229.005 77.4014C228.878 77.2126 228.815 76.988 228.815 76.7275C228.815 76.2946 228.997 75.9284 229.362 75.6289C229.729 75.3294 230.198 75.1797 230.768 75.1797C231.367 75.1797 231.852 75.3343 232.223 75.6436C232.597 75.9528 232.784 76.3483 232.784 76.8301H231.876C231.876 76.5827 231.77 76.3695 231.559 76.1904C231.351 76.0114 231.087 75.9219 230.768 75.9219C230.439 75.9219 230.182 75.9935 229.996 76.1367C229.811 76.2799 229.718 76.4671 229.718 76.6982C229.718 76.9163 229.804 77.0807 229.977 77.1914C230.149 77.3021 230.46 77.4079 230.909 77.5088C231.362 77.6097 231.728 77.7301 232.008 77.8701C232.288 78.0101 232.495 78.1794 232.628 78.3779C232.765 78.5732 232.833 78.8125 232.833 79.0957C232.833 79.5677 232.644 79.9469 232.267 80.2334C231.889 80.5166 231.399 80.6582 230.797 80.6582C230.374 80.6582 230 80.5833 229.674 80.4336C229.349 80.2839 229.093 80.0755 228.907 79.8086C228.725 79.5384 228.634 79.2471 228.634 78.9346H229.537C229.554 79.2373 229.674 79.4782 229.899 79.6572C230.127 79.833 230.426 79.9209 230.797 79.9209C231.139 79.9209 231.412 79.8525 231.617 79.7158C231.826 79.5758 231.93 79.3903 231.93 79.1592ZM233.981 81.9766L233.468 81.625C233.774 81.1986 233.934 80.7591 233.947 80.3066V79.4912H234.83V80.1992C234.83 80.528 234.749 80.8568 234.586 81.1855C234.427 81.5143 234.225 81.778 233.981 81.9766Z" fill="#1F2432"/>
<path d="M166.432 92.4854L167.74 88.4277H168.663L166.769 93.7109H166.08L164.166 88.4277H165.089L166.432 92.4854ZM172.716 93.7109C172.664 93.6068 172.622 93.4212 172.589 93.1543C172.169 93.5905 171.668 93.8086 171.085 93.8086C170.564 93.8086 170.136 93.6621 169.801 93.3691C169.469 93.0729 169.303 92.6986 169.303 92.2461C169.303 91.696 169.511 91.2695 169.928 90.9668C170.348 90.6608 170.937 90.5078 171.696 90.5078H172.574V90.0928C172.574 89.777 172.48 89.5264 172.291 89.3408C172.102 89.152 171.824 89.0576 171.456 89.0576C171.134 89.0576 170.864 89.139 170.646 89.3018C170.428 89.4645 170.319 89.6615 170.319 89.8926H169.41C169.41 89.6289 169.503 89.375 169.689 89.1309C169.878 88.8835 170.131 88.6882 170.45 88.5449C170.773 88.4017 171.126 88.3301 171.51 88.3301C172.119 88.3301 172.596 88.4831 172.941 88.7891C173.286 89.0918 173.465 89.5101 173.478 90.0439V92.4756C173.478 92.9606 173.54 93.3464 173.663 93.6328V93.7109H172.716ZM171.217 93.0225C171.5 93.0225 171.769 92.9492 172.023 92.8027C172.277 92.6562 172.461 92.4658 172.574 92.2314V91.1475H171.866C170.76 91.1475 170.206 91.4714 170.206 92.1191C170.206 92.4023 170.301 92.6237 170.49 92.7832C170.678 92.9427 170.921 93.0225 171.217 93.0225ZM175.875 93.7109H174.972V86.2109H175.875V93.7109ZM178.307 93.7109H177.404V88.4277H178.307V93.7109ZM177.33 87.0264C177.33 86.8799 177.374 86.7562 177.462 86.6553C177.553 86.5544 177.687 86.5039 177.863 86.5039C178.038 86.5039 178.172 86.5544 178.263 86.6553C178.354 86.7562 178.4 86.8799 178.4 87.0264C178.4 87.1729 178.354 87.2949 178.263 87.3926C178.172 87.4902 178.038 87.5391 177.863 87.5391C177.687 87.5391 177.553 87.4902 177.462 87.3926C177.374 87.2949 177.33 87.1729 177.33 87.0264ZM179.537 91.0254C179.537 90.2148 179.729 89.5638 180.114 89.0723C180.498 88.5775 181.001 88.3301 181.622 88.3301C182.241 88.3301 182.731 88.5417 183.092 88.9648V86.2109H183.995V93.7109H183.165L183.121 93.1445C182.76 93.5872 182.257 93.8086 181.613 93.8086C181.001 93.8086 180.501 93.5579 180.114 93.0566C179.729 92.5553 179.537 91.901 179.537 91.0938V91.0254ZM180.441 91.1279C180.441 91.7269 180.564 92.1956 180.812 92.5342C181.059 92.8727 181.401 93.042 181.837 93.042C182.41 93.042 182.828 92.7848 183.092 92.2705V89.8438C182.822 89.3457 182.407 89.0967 181.847 89.0967C181.404 89.0967 181.059 89.2676 180.812 89.6094C180.564 89.9512 180.441 90.4574 180.441 91.1279ZM188.663 93.7109C188.611 93.6068 188.569 93.4212 188.536 93.1543C188.116 93.5905 187.615 93.8086 187.032 93.8086C186.512 93.8086 186.084 93.6621 185.748 93.3691C185.416 93.0729 185.25 92.6986 185.25 92.2461C185.25 91.696 185.459 91.2695 185.875 90.9668C186.295 90.6608 186.884 90.5078 187.643 90.5078H188.522V90.0928C188.522 89.777 188.427 89.5264 188.239 89.3408C188.05 89.152 187.771 89.0576 187.404 89.0576C187.081 89.0576 186.811 89.139 186.593 89.3018C186.375 89.4645 186.266 89.6615 186.266 89.8926H185.358C185.358 89.6289 185.45 89.375 185.636 89.1309C185.825 88.8835 186.079 88.6882 186.398 88.5449C186.72 88.4017 187.073 88.3301 187.457 88.3301C188.066 88.3301 188.543 88.4831 188.888 88.7891C189.233 89.0918 189.412 89.5101 189.425 90.0439V92.4756C189.425 92.9606 189.487 93.3464 189.611 93.6328V93.7109H188.663ZM187.164 93.0225C187.448 93.0225 187.716 92.9492 187.97 92.8027C188.224 92.6562 188.408 92.4658 188.522 92.2314V91.1475H187.814C186.707 91.1475 186.154 91.4714 186.154 92.1191C186.154 92.4023 186.248 92.6237 186.437 92.7832C186.626 92.9427 186.868 93.0225 187.164 93.0225ZM192.067 87.1484V88.4277H193.053V89.126H192.067V92.4023C192.067 92.6139 192.111 92.7734 192.198 92.8809C192.286 92.985 192.436 93.0371 192.648 93.0371C192.752 93.0371 192.895 93.0176 193.077 92.9785V93.7109C192.84 93.776 192.609 93.8086 192.384 93.8086C191.98 93.8086 191.676 93.6865 191.471 93.4424C191.266 93.1982 191.163 92.8516 191.163 92.4023V89.126H190.201V88.4277H191.163V87.1484H192.067ZM193.776 91.0205C193.776 90.5029 193.877 90.0374 194.078 89.624C194.283 89.2106 194.567 88.8916 194.928 88.667C195.293 88.4424 195.708 88.3301 196.173 88.3301C196.892 88.3301 197.474 88.5791 197.916 89.0771C198.362 89.5752 198.585 90.2376 198.585 91.0645V91.1279C198.585 91.6423 198.486 92.1045 198.287 92.5146C198.092 92.9215 197.81 93.2389 197.443 93.4668C197.078 93.6947 196.658 93.8086 196.183 93.8086C195.467 93.8086 194.886 93.5596 194.44 93.0615C193.997 92.5635 193.776 91.9043 193.776 91.084V91.0205ZM194.684 91.1279C194.684 91.7139 194.819 92.1842 195.089 92.5391C195.363 92.8939 195.727 93.0713 196.183 93.0713C196.642 93.0713 197.006 92.8923 197.277 92.5342C197.547 92.1729 197.682 91.6683 197.682 91.0205C197.682 90.4411 197.544 89.9723 197.267 89.6143C196.993 89.2529 196.629 89.0723 196.173 89.0723C195.727 89.0723 195.367 89.2497 195.094 89.6045C194.821 89.9593 194.684 90.4671 194.684 91.1279ZM202.272 89.2383C202.135 89.2155 201.987 89.2041 201.827 89.2041C201.235 89.2041 200.833 89.4564 200.621 89.9609V93.7109H199.718V88.4277H200.597L200.612 89.0381C200.908 88.5661 201.328 88.3301 201.871 88.3301C202.047 88.3301 202.181 88.3529 202.272 88.3984V89.2383ZM206.183 92.3096C206.183 92.0654 206.09 91.8766 205.905 91.7432C205.722 91.6064 205.402 91.4893 204.943 91.3916C204.487 91.2939 204.124 91.1768 203.854 91.04C203.587 90.9033 203.388 90.7406 203.258 90.5518C203.131 90.363 203.068 90.1383 203.068 89.8779C203.068 89.445 203.25 89.0788 203.615 88.7793C203.982 88.4798 204.451 88.3301 205.021 88.3301C205.62 88.3301 206.105 88.4847 206.476 88.7939C206.85 89.1032 207.037 89.4987 207.037 89.9805H206.129C206.129 89.7331 206.023 89.5199 205.812 89.3408C205.603 89.1618 205.34 89.0723 205.021 89.0723C204.692 89.0723 204.435 89.1439 204.249 89.2871C204.064 89.4303 203.971 89.6175 203.971 89.8486C203.971 90.0667 204.057 90.2311 204.23 90.3418C204.402 90.4525 204.713 90.5583 205.162 90.6592C205.615 90.7601 205.981 90.8805 206.261 91.0205C206.541 91.1605 206.748 91.3298 206.881 91.5283C207.018 91.7236 207.086 91.9629 207.086 92.2461C207.086 92.7181 206.897 93.0973 206.52 93.3838C206.142 93.667 205.652 93.8086 205.05 93.8086C204.627 93.8086 204.253 93.7337 203.927 93.584C203.601 93.4342 203.346 93.2259 203.16 92.959C202.978 92.6888 202.887 92.3975 202.887 92.085H203.79C203.807 92.3877 203.927 92.6286 204.152 92.8076C204.379 92.9834 204.679 93.0713 205.05 93.0713C205.392 93.0713 205.665 93.0029 205.87 92.8662C206.079 92.7262 206.183 92.5407 206.183 92.3096ZM210.553 91.8018C210.553 91.46 210.647 91.1458 210.836 90.8594C211.028 90.5729 211.393 90.2393 211.93 89.8584C211.614 89.4743 211.403 89.165 211.295 88.9307C211.188 88.6963 211.134 88.4635 211.134 88.2324C211.134 87.6921 211.294 87.2689 211.613 86.9629C211.932 86.6569 212.365 86.5039 212.911 86.5039C213.4 86.5039 213.803 86.6471 214.122 86.9336C214.441 87.2168 214.601 87.5749 214.601 88.0078C214.601 88.2943 214.528 88.5596 214.381 88.8037C214.238 89.0446 213.986 89.2985 213.624 89.5654L213.102 89.9512L214.684 91.8408C214.905 91.4176 215.016 90.9473 215.016 90.4297H215.831C215.831 91.2598 215.631 91.9482 215.231 92.4951L216.246 93.7109H215.162L214.689 93.1494C214.448 93.3643 214.165 93.5286 213.839 93.6426C213.517 93.7533 213.188 93.8086 212.853 93.8086C212.159 93.8086 211.603 93.6247 211.183 93.2568C210.763 92.889 210.553 92.404 210.553 91.8018ZM212.853 93.0713C213.331 93.0713 213.769 92.889 214.166 92.5244L212.433 90.4492L212.272 90.5664C211.728 90.9668 211.456 91.3786 211.456 91.8018C211.456 92.1859 211.58 92.4935 211.827 92.7246C212.078 92.9557 212.42 93.0713 212.853 93.0713ZM212.037 88.2031C212.037 88.5156 212.229 88.9062 212.614 89.375L213.19 88.9697C213.411 88.8135 213.562 88.6654 213.644 88.5254C213.725 88.3822 213.766 88.2096 213.766 88.0078C213.766 87.7897 213.684 87.609 213.522 87.4658C213.359 87.3193 213.154 87.2461 212.906 87.2461C212.64 87.2461 212.428 87.3372 212.272 87.5195C212.115 87.6986 212.037 87.9264 212.037 88.2031ZM220.67 87.1484V88.4277H221.656V89.126H220.67V92.4023C220.67 92.6139 220.714 92.7734 220.802 92.8809C220.89 92.985 221.04 93.0371 221.251 93.0371C221.355 93.0371 221.499 93.0176 221.681 92.9785V93.7109C221.443 93.776 221.212 93.8086 220.988 93.8086C220.584 93.8086 220.28 93.6865 220.074 93.4424C219.869 93.1982 219.767 92.8516 219.767 92.4023V89.126H218.805V88.4277H219.767V87.1484H220.67ZM224.908 93.8086C224.192 93.8086 223.61 93.5742 223.16 93.1055C222.711 92.6335 222.487 92.0036 222.487 91.2158V91.0498C222.487 90.5257 222.586 90.0586 222.784 89.6484C222.986 89.235 223.266 88.9128 223.624 88.6816C223.986 88.4473 224.376 88.3301 224.796 88.3301C225.483 88.3301 226.017 88.5563 226.398 89.0088C226.779 89.4613 226.969 90.109 226.969 90.9521V91.3281H223.39C223.403 91.849 223.554 92.2705 223.844 92.5928C224.137 92.9118 224.508 93.0713 224.957 93.0713C225.276 93.0713 225.546 93.0062 225.768 92.876C225.989 92.7458 226.183 92.5732 226.349 92.3584L226.901 92.7881C226.458 93.4684 225.794 93.8086 224.908 93.8086ZM224.796 89.0723C224.432 89.0723 224.126 89.2057 223.878 89.4727C223.631 89.7363 223.478 90.1074 223.419 90.5859H226.066V90.5176C226.04 90.0586 225.916 89.7038 225.695 89.4531C225.473 89.1992 225.174 89.0723 224.796 89.0723ZM231.095 92.3096C231.095 92.0654 231.002 91.8766 230.817 91.7432C230.634 91.6064 230.314 91.4893 229.855 91.3916C229.399 91.2939 229.036 91.1768 228.766 91.04C228.499 90.9033 228.3 90.7406 228.17 90.5518C228.043 90.363 227.98 90.1383 227.98 89.8779C227.98 89.445 228.162 89.0788 228.527 88.7793C228.894 88.4798 229.363 88.3301 229.933 88.3301C230.532 88.3301 231.017 88.4847 231.388 88.7939C231.762 89.1032 231.949 89.4987 231.949 89.9805H231.041C231.041 89.7331 230.935 89.5199 230.724 89.3408C230.516 89.1618 230.252 89.0723 229.933 89.0723C229.604 89.0723 229.347 89.1439 229.161 89.2871C228.976 89.4303 228.883 89.6175 228.883 89.8486C228.883 90.0667 228.969 90.2311 229.142 90.3418C229.314 90.4525 229.625 90.5583 230.074 90.6592C230.527 90.7601 230.893 90.8805 231.173 91.0205C231.453 91.1605 231.66 91.3298 231.793 91.5283C231.93 91.7236 231.998 91.9629 231.998 92.2461C231.998 92.7181 231.809 93.0973 231.432 93.3838C231.054 93.667 230.564 93.8086 229.962 93.8086C229.539 93.8086 229.165 93.7337 228.839 93.584C228.514 93.4342 228.258 93.2259 228.073 92.959C227.89 92.6888 227.799 92.3975 227.799 92.085H228.702C228.719 92.3877 228.839 92.6286 229.064 92.8076C229.292 92.9834 229.591 93.0713 229.962 93.0713C230.304 93.0713 230.577 93.0029 230.782 92.8662C230.991 92.7262 231.095 92.5407 231.095 92.3096ZM234.401 87.1484V88.4277H235.387V89.126H234.401V92.4023C234.401 92.6139 234.445 92.7734 234.532 92.8809C234.62 92.985 234.77 93.0371 234.982 93.0371C235.086 93.0371 235.229 93.0176 235.411 92.9785V93.7109C235.174 93.776 234.943 93.8086 234.718 93.8086C234.314 93.8086 234.01 93.6865 233.805 93.4424C233.6 93.1982 233.497 92.8516 233.497 92.4023V89.126H232.535V88.4277H233.497V87.1484H234.401ZM238.639 93.8086C237.923 93.8086 237.34 93.5742 236.891 93.1055C236.442 92.6335 236.217 92.0036 236.217 91.2158V91.0498C236.217 90.5257 236.316 90.0586 236.515 89.6484C236.717 89.235 236.997 88.9128 237.355 88.6816C237.716 88.4473 238.107 88.3301 238.527 88.3301C239.213 88.3301 239.747 88.5563 240.128 89.0088C240.509 89.4613 240.699 90.109 240.699 90.9521V91.3281H237.12C237.133 91.849 237.285 92.2705 237.574 92.5928C237.867 92.9118 238.239 93.0713 238.688 93.0713C239.007 93.0713 239.277 93.0062 239.498 92.876C239.72 92.7458 239.913 92.5732 240.079 92.3584L240.631 92.7881C240.188 93.4684 239.524 93.8086 238.639 93.8086ZM238.527 89.0723C238.162 89.0723 237.856 89.2057 237.609 89.4727C237.361 89.7363 237.208 90.1074 237.15 90.5859H239.796V90.5176C239.77 90.0586 239.646 89.7038 239.425 89.4531C239.204 89.1992 238.904 89.0723 238.527 89.0723ZM244.303 89.2383C244.166 89.2155 244.018 89.2041 243.859 89.2041C243.266 89.2041 242.864 89.4564 242.653 89.9609V93.7109H241.749V88.4277H242.628L242.643 89.0381C242.939 88.5661 243.359 88.3301 243.903 88.3301C244.078 88.3301 244.212 88.3529 244.303 88.3984V89.2383ZM248.214 92.3096C248.214 92.0654 248.121 91.8766 247.936 91.7432C247.753 91.6064 247.433 91.4893 246.974 91.3916C246.518 91.2939 246.155 91.1768 245.885 91.04C245.618 90.9033 245.42 90.7406 245.289 90.5518C245.162 90.363 245.099 90.1383 245.099 89.8779C245.099 89.445 245.281 89.0788 245.646 88.7793C246.014 88.4798 246.482 88.3301 247.052 88.3301C247.651 88.3301 248.136 88.4847 248.507 88.7939C248.881 89.1032 249.069 89.4987 249.069 89.9805H248.16C248.16 89.7331 248.055 89.5199 247.843 89.3408C247.635 89.1618 247.371 89.0723 247.052 89.0723C246.723 89.0723 246.466 89.1439 246.281 89.2871C246.095 89.4303 246.002 89.6175 246.002 89.8486C246.002 90.0667 246.088 90.2311 246.261 90.3418C246.434 90.4525 246.744 90.5583 247.194 90.6592C247.646 90.7601 248.012 90.8805 248.292 91.0205C248.572 91.1605 248.779 91.3298 248.912 91.5283C249.049 91.7236 249.117 91.9629 249.117 92.2461C249.117 92.7181 248.929 93.0973 248.551 93.3838C248.173 93.667 247.684 93.8086 247.081 93.8086C246.658 93.8086 246.284 93.7337 245.958 93.584C245.633 93.4342 245.377 93.2259 245.192 92.959C245.009 92.6888 244.918 92.3975 244.918 92.085H245.822C245.838 92.3877 245.958 92.6286 246.183 92.8076C246.411 92.9834 246.71 93.0713 247.081 93.0713C247.423 93.0713 247.697 93.0029 247.902 92.8662C248.11 92.7262 248.214 92.5407 248.214 92.3096Z" fill="#1F2432"/>
<path d="M209.1 65.2C226.9 65.2 241.5 50.7 241.5 32.8C241.5 14.9 226.9 0.5 209.1 0.5C191.3 0.5 176.7 15 176.7 32.9C176.7 50.8 191.2 65.2 209.1 65.2Z" fill="#1F2432"/>
<path d="M209.1 18L193.9 25.9V27.9H209.1H224.2V25.9L209.1 18Z" fill="#1F2432" stroke="#00DCE6" stroke-miterlimit="10"/>
<path d="M199.3 29.4004V41.8004" stroke="#00DCE6" stroke-miterlimit="10"/>
<path d="M205.6 29.4004V41.8004" stroke="#00DCE6" stroke-miterlimit="10"/>
<path d="M224.3 43.5996H193.9" stroke="#00DCE6" stroke-miterlimit="10"/>
<path d="M224.3 47.9004H193.9" stroke="#00DCE6" stroke-miterlimit="10"/>
<path d="M212.5 29.4004V41.8004" stroke="#00DCE6" stroke-miterlimit="10"/>
<path d="M218.8 29.4004V41.8004" stroke="#00DCE6" stroke-miterlimit="10"/>
<path d="M14.9199 77.3916C14.1159 77.1605 13.5299 76.8773 13.1621 76.542C12.7975 76.2035 12.6152 75.7868 12.6152 75.292C12.6152 74.7321 12.8382 74.2699 13.2842 73.9053C13.7334 73.5374 14.3161 73.3535 15.0322 73.3535C15.5205 73.3535 15.9551 73.4479 16.3359 73.6367C16.7201 73.8255 17.0163 74.0859 17.2246 74.418C17.4362 74.75 17.542 75.113 17.542 75.5068H16.5996C16.5996 75.0771 16.4629 74.7402 16.1895 74.4961C15.916 74.2487 15.5303 74.125 15.0322 74.125C14.57 74.125 14.2087 74.2275 13.9482 74.4326C13.6911 74.6344 13.5625 74.916 13.5625 75.2773C13.5625 75.5671 13.6846 75.8128 13.9287 76.0146C14.1761 76.2132 14.5944 76.3955 15.1836 76.5615C15.776 76.7275 16.2383 76.9115 16.5703 77.1133C16.9056 77.3118 17.153 77.5446 17.3125 77.8115C17.4753 78.0785 17.5566 78.3926 17.5566 78.7539C17.5566 79.3301 17.332 79.7923 16.8828 80.1406C16.4336 80.4857 15.833 80.6582 15.0811 80.6582C14.5928 80.6582 14.137 80.5654 13.7139 80.3799C13.2907 80.1911 12.9635 79.9339 12.7324 79.6084C12.5046 79.2829 12.3906 78.9134 12.3906 78.5H13.333C13.333 78.9297 13.4909 79.2699 13.8066 79.5205C14.1257 79.7679 14.5505 79.8916 15.0811 79.8916C15.5758 79.8916 15.9551 79.7907 16.2188 79.5889C16.4824 79.387 16.6143 79.112 16.6143 78.7637C16.6143 78.4154 16.4922 78.1468 16.248 77.958C16.0039 77.766 15.5612 77.5771 14.9199 77.3916ZM19.8467 73.998V75.2773H20.833V75.9756H19.8467V79.252C19.8467 79.4635 19.8906 79.623 19.9785 79.7305C20.0664 79.8346 20.2161 79.8867 20.4277 79.8867C20.5319 79.8867 20.6751 79.8672 20.8574 79.8281V80.5605C20.6198 80.6257 20.3887 80.6582 20.1641 80.6582C19.7604 80.6582 19.4561 80.5361 19.251 80.292C19.0459 80.0479 18.9434 79.7012 18.9434 79.252V75.9756H17.9814V75.2773H18.9434V73.998H19.8467ZM25.1543 80.0381C24.8027 80.4515 24.2868 80.6582 23.6064 80.6582C23.0433 80.6582 22.6136 80.4954 22.3174 80.1699C22.0244 79.8411 21.8763 79.3561 21.873 78.7148V75.2773H22.7764V78.6904C22.7764 79.4912 23.1019 79.8916 23.7529 79.8916C24.443 79.8916 24.902 79.6344 25.1299 79.1201V75.2773H26.0332V80.5605H25.1738L25.1543 80.0381ZM27.1904 77.875C27.1904 77.0645 27.3825 76.4134 27.7666 75.9219C28.1507 75.4271 28.6536 75.1797 29.2754 75.1797C29.8939 75.1797 30.3838 75.3913 30.7451 75.8145V73.0605H31.6484V80.5605H30.8184L30.7744 79.9941C30.4131 80.4368 29.9102 80.6582 29.2656 80.6582C28.6536 80.6582 28.154 80.4076 27.7666 79.9062C27.3825 79.4049 27.1904 78.7507 27.1904 77.9434V77.875ZM28.0938 77.9775C28.0938 78.5765 28.2174 79.0452 28.4648 79.3838C28.7122 79.7223 29.054 79.8916 29.4902 79.8916C30.0632 79.8916 30.4814 79.6344 30.7451 79.1201V76.6934C30.4749 76.1953 30.0599 75.9463 29.5 75.9463C29.0573 75.9463 28.7122 76.1172 28.4648 76.459C28.2174 76.8008 28.0938 77.307 28.0938 77.9775ZM35.2471 80.6582C34.5309 80.6582 33.9482 80.4238 33.499 79.9551C33.0498 79.4831 32.8252 78.8532 32.8252 78.0654V77.8994C32.8252 77.3753 32.9245 76.9082 33.123 76.498C33.3249 76.0846 33.6048 75.7624 33.9629 75.5312C34.3242 75.2969 34.7148 75.1797 35.1348 75.1797C35.8216 75.1797 36.3555 75.4059 36.7363 75.8584C37.1172 76.3109 37.3076 76.9587 37.3076 77.8018V78.1777H33.7285C33.7415 78.6986 33.8929 79.1201 34.1826 79.4424C34.4756 79.7614 34.8467 79.9209 35.2959 79.9209C35.6149 79.9209 35.8851 79.8558 36.1064 79.7256C36.3278 79.5954 36.5215 79.4229 36.6875 79.208L37.2393 79.6377C36.7965 80.318 36.1325 80.6582 35.2471 80.6582ZM35.1348 75.9219C34.7702 75.9219 34.4642 76.0553 34.2168 76.3223C33.9694 76.5859 33.8164 76.957 33.7578 77.4355H36.4043V77.3672C36.3783 76.9082 36.2546 76.5534 36.0332 76.3027C35.8118 76.0488 35.5124 75.9219 35.1348 75.9219ZM39.2119 75.2773L39.2412 75.9414C39.6449 75.4336 40.1722 75.1797 40.8232 75.1797C41.9398 75.1797 42.5029 75.8096 42.5127 77.0693V80.5605H41.6094V77.0645C41.6061 76.6836 41.5182 76.402 41.3457 76.2197C41.1764 76.0374 40.9111 75.9463 40.5498 75.9463C40.2568 75.9463 39.9997 76.0244 39.7783 76.1807C39.557 76.3369 39.3844 76.542 39.2607 76.7959V80.5605H38.3574V75.2773H39.2119ZM45.1006 73.998V75.2773H46.0869V75.9756H45.1006V79.252C45.1006 79.4635 45.1445 79.623 45.2324 79.7305C45.3203 79.8346 45.4701 79.8867 45.6816 79.8867C45.7858 79.8867 45.929 79.8672 46.1113 79.8281V80.5605C45.8737 80.6257 45.6426 80.6582 45.418 80.6582C45.0143 80.6582 44.71 80.5361 44.5049 80.292C44.2998 80.0479 44.1973 79.7012 44.1973 79.252V75.9756H43.2354V75.2773H44.1973V73.998H45.1006ZM50.2227 79.1592C50.2227 78.915 50.1299 78.7262 49.9443 78.5928C49.762 78.4561 49.4414 78.3389 48.9824 78.2412C48.5267 78.1436 48.1637 78.0264 47.8936 77.8896C47.6266 77.7529 47.4281 77.5902 47.2979 77.4014C47.1709 77.2126 47.1074 76.988 47.1074 76.7275C47.1074 76.2946 47.2897 75.9284 47.6543 75.6289C48.0221 75.3294 48.4909 75.1797 49.0605 75.1797C49.6595 75.1797 50.1445 75.3343 50.5156 75.6436C50.89 75.9528 51.0771 76.3483 51.0771 76.8301H50.1689C50.1689 76.5827 50.0632 76.3695 49.8516 76.1904C49.6432 76.0114 49.3796 75.9219 49.0605 75.9219C48.7318 75.9219 48.4746 75.9935 48.2891 76.1367C48.1035 76.2799 48.0107 76.4671 48.0107 76.6982C48.0107 76.9163 48.097 77.0807 48.2695 77.1914C48.4421 77.3021 48.7529 77.4079 49.2021 77.5088C49.6546 77.6097 50.0208 77.7301 50.3008 77.8701C50.5807 78.0101 50.7874 78.1794 50.9209 78.3779C51.0576 78.5732 51.126 78.8125 51.126 79.0957C51.126 79.5677 50.9372 79.9469 50.5596 80.2334C50.182 80.5166 49.6921 80.6582 49.0898 80.6582C48.6667 80.6582 48.2923 80.5833 47.9668 80.4336C47.6413 80.2839 47.3857 80.0755 47.2002 79.8086C47.0179 79.5384 46.9268 79.2471 46.9268 78.9346H47.8301C47.8464 79.2373 47.9668 79.4782 48.1914 79.6572C48.4193 79.833 48.7188 79.9209 49.0898 79.9209C49.4316 79.9209 49.7051 79.8525 49.9102 79.7158C50.1185 79.5758 50.2227 79.3903 50.2227 79.1592Z" fill="#1F2432"/>
<path d="M32.9 65.2C50.7 65.2 65.2 50.7 65.2 32.8C65.2 14.9 50.7 0.5 32.9 0.5C15.1 0.5 0.5 15 0.5 32.8C0.5 50.6 15 65.2 32.9 65.2Z" fill="#1F2432"/>
<path d="M28.7999 33.2998V35.5998H28.2L26.5 37.2998L23.6 38.6998C22 39.0998 20.7 40.2998 20.7 41.3998V48.3998" fill="#1F2432"/>
<path d="M28.7999 33.2998V35.5998H28.2L26.5 37.2998L23.6 38.6998C22 39.0998 20.7 40.2998 20.7 41.3998V48.3998" stroke="#00DCE6" stroke-miterlimit="10"/>
<path d="M38.1999 23.3V24.5L39.3999 25.1V27.4C39.3999 27.8 39.1999 28.2 38.8999 28.4L38.1999 29.2C38.1999 29.2 38.1999 30.1 38.1999 30.4C38.1999 32.7 35.1999 33.6 34.6999 33.9C34.1999 34.2 33.2999 34.5 32.3999 34.5C31.4999 34.5 30.5999 34.2 30.0999 33.9C29.5999 33.7 26.5999 32.6 26.5999 30.4C26.5999 30.1 26.5999 29.2 26.5999 29.2L25.8999 28.4C25.5999 28.2 25.3999 27.8 25.3999 27.4V25.1L26.5999 24.5V23.3C26.5999 20.4 28.8999 18 31.8999 18H32.9999C35.7999 18 38.1999 20.4 38.1999 23.3Z" fill="#1F2432" stroke="#00DCE6" stroke-miterlimit="10"/>
<path d="M28.8 35.5996L32.3 38.4996" stroke="#00DCE6" stroke-miterlimit="10"/>
<path d="M32.2999 38.5004L29.3999 40.8004L26.3999 37.4004" fill="#1F2432"/>
<path d="M32.2999 38.5004L29.3999 40.8004L26.3999 37.4004" stroke="#00DCE6" stroke-miterlimit="10"/>
<path d="M35.8 33.2998V35.5998H36.4001L38.1 37.2998L41 38.6998C42.6 39.0998 43.9001 40.2998 43.9001 41.3998V48.3998" fill="#1F2432"/>
<path d="M35.8 33.2998V35.5998H36.4001L38.1 37.2998L41 38.6998C42.6 39.0998 43.9001 40.2998 43.9001 41.3998V48.3998" stroke="#00DCE6" stroke-miterlimit="10"/>
<path d="M35.8 35.5996L32.3 38.4996" stroke="#00DCE6" stroke-miterlimit="10"/>
<path d="M32.3 38.5004L35.3 40.8004L38.2001 37.4004" fill="#1F2432"/>
<path d="M32.3 38.5004L35.3 40.8004L38.2001 37.4004" stroke="#00DCE6" stroke-miterlimit="10"/>
<path d="M34.0999 39.7002L33.4999 42.6002H31.1999L30.5999 39.7002" fill="#1F2432"/>
<path d="M34.0999 39.7002L33.4999 42.6002H31.1999L30.5999 39.7002" stroke="#00DCE6" stroke-miterlimit="10"/>
<path d="M34.0999 47.8996L33.4999 42.5996H31.1999L30.5999 47.8996" fill="#1F2432"/>
<path d="M34.0999 47.8996L33.4999 42.5996H31.1999L30.5999 47.8996" stroke="#00DCE6" stroke-miterlimit="10"/>
<path d="M14.5764 329.275H11.4954V331.795H15.0745V332.562H10.5579V325.452H15.0256V326.224H11.4954V328.509H14.5764V329.275ZM16.9495 327.278L16.9739 327.864C17.3612 327.409 17.8837 327.181 18.5413 327.181C19.2802 327.181 19.7831 327.464 20.05 328.03C20.2258 327.776 20.4537 327.571 20.7336 327.415C21.0168 327.259 21.3505 327.181 21.7346 327.181C22.8935 327.181 23.4827 327.794 23.5022 329.021V332.562H22.5989V329.075C22.5989 328.698 22.5126 328.416 22.3401 328.23C22.1676 328.042 21.8778 327.947 21.4709 327.947C21.1357 327.947 20.8573 328.048 20.636 328.25C20.4146 328.449 20.2861 328.717 20.2502 329.056V332.562H19.342V329.1C19.342 328.331 18.9661 327.947 18.2141 327.947C17.6217 327.947 17.2164 328.2 16.9983 328.704V332.562H16.095V327.278H16.9495ZM29.3323 329.979C29.3323 330.783 29.1484 331.43 28.7805 331.922C28.4127 332.413 27.9146 332.659 27.2864 332.659C26.6451 332.659 26.1405 332.456 25.7727 332.049V334.593H24.8694V327.278H25.6946L25.7385 327.864C26.1064 327.409 26.6174 327.181 27.2717 327.181C27.9065 327.181 28.4078 327.42 28.7756 327.898C29.1467 328.377 29.3323 329.043 29.3323 329.896V329.979ZM28.429 329.876C28.429 329.28 28.302 328.81 28.0481 328.465C27.7942 328.12 27.4459 327.947 27.0032 327.947C26.4563 327.947 26.0461 328.19 25.7727 328.675V331.199C26.0429 331.681 26.4563 331.922 27.0129 331.922C27.4459 331.922 27.7893 331.751 28.0432 331.409C28.3004 331.064 28.429 330.553 28.429 329.876ZM31.4661 332.562H30.5627V325.062H31.4661V332.562ZM32.677 329.871C32.677 329.354 32.7779 328.888 32.9797 328.475C33.1848 328.061 33.468 327.742 33.8293 327.518C34.1939 327.293 34.609 327.181 35.0745 327.181C35.7939 327.181 36.3749 327.43 36.8176 327.928C37.2636 328.426 37.4866 329.088 37.4866 329.915V329.979C37.4866 330.493 37.3873 330.955 37.1887 331.365C36.9934 331.772 36.7118 332.09 36.344 332.317C35.9794 332.545 35.5595 332.659 35.0842 332.659C34.3681 332.659 33.787 332.41 33.3411 331.912C32.8984 331.414 32.677 330.755 32.677 329.935V329.871ZM33.5852 329.979C33.5852 330.564 33.7203 331.035 33.9905 331.39C34.2639 331.744 34.6285 331.922 35.0842 331.922C35.5432 331.922 35.9078 331.743 36.178 331.385C36.4482 331.023 36.5833 330.519 36.5833 329.871C36.5833 329.292 36.4449 328.823 36.1682 328.465C35.8948 328.104 35.5302 327.923 35.0745 327.923C34.6285 327.923 34.2688 328.1 33.9954 328.455C33.7219 328.81 33.5852 329.318 33.5852 329.979ZM40.2698 331.238L41.5002 327.278H42.467L40.343 333.377C40.0142 334.256 39.4918 334.695 38.7756 334.695L38.6047 334.681L38.2678 334.617V333.885L38.512 333.904C38.818 333.904 39.0556 333.842 39.2249 333.719C39.3974 333.595 39.539 333.369 39.6497 333.04L39.8499 332.503L37.9651 327.278H38.9514L40.2698 331.238ZM45.4016 332.659C44.6855 332.659 44.1028 332.425 43.6536 331.956C43.2043 331.484 42.9797 330.854 42.9797 330.066V329.9C42.9797 329.376 43.079 328.909 43.2776 328.499C43.4794 328.086 43.7594 327.763 44.1174 327.532C44.4788 327.298 44.8694 327.181 45.2893 327.181C45.9762 327.181 46.51 327.407 46.8909 327.859C47.2717 328.312 47.4622 328.96 47.4622 329.803V330.179H43.8831C43.8961 330.7 44.0474 331.121 44.3372 331.443C44.6301 331.762 45.0012 331.922 45.4504 331.922C45.7694 331.922 46.0396 331.857 46.261 331.727C46.4823 331.596 46.676 331.424 46.842 331.209L47.3938 331.639C46.9511 332.319 46.287 332.659 45.4016 332.659ZM45.2893 327.923C44.9247 327.923 44.6187 328.056 44.3713 328.323C44.1239 328.587 43.9709 328.958 43.9124 329.437H46.5588V329.368C46.5328 328.909 46.4091 328.554 46.1877 328.304C45.9664 328.05 45.6669 327.923 45.2893 327.923ZM51.0657 328.089C50.929 328.066 50.7808 328.055 50.6213 328.055C50.0289 328.055 49.6269 328.307 49.4153 328.812V332.562H48.512V327.278H49.3909L49.4055 327.889C49.7017 327.417 50.1217 327.181 50.6653 327.181C50.8411 327.181 50.9745 327.203 51.0657 327.249V328.089ZM54.9768 331.16C54.9768 330.916 54.884 330.727 54.6985 330.594C54.5162 330.457 54.1956 330.34 53.7366 330.242C53.2808 330.145 52.9179 330.027 52.6477 329.891C52.3808 329.754 52.1822 329.591 52.052 329.402C51.925 329.214 51.8616 328.989 51.8616 328.729C51.8616 328.296 52.0439 327.929 52.4084 327.63C52.7763 327.33 53.245 327.181 53.8147 327.181C54.4137 327.181 54.8987 327.335 55.2698 327.645C55.6441 327.954 55.8313 328.349 55.8313 328.831H54.9231C54.9231 328.584 54.8173 328.37 54.6057 328.191C54.3974 328.012 54.1337 327.923 53.8147 327.923C53.4859 327.923 53.2288 327.994 53.0432 328.138C52.8577 328.281 52.7649 328.468 52.7649 328.699C52.7649 328.917 52.8512 329.082 53.0237 329.192C53.1962 329.303 53.5071 329.409 53.9563 329.51C54.4088 329.611 54.775 329.731 55.0549 329.871C55.3349 330.011 55.5416 330.18 55.675 330.379C55.8118 330.574 55.8801 330.813 55.8801 331.097C55.8801 331.569 55.6913 331.948 55.3137 332.234C54.9361 332.518 54.4462 332.659 53.844 332.659C53.4208 332.659 53.0465 332.584 52.7209 332.435C52.3954 332.285 52.1399 332.076 51.9543 331.81C51.7721 331.539 51.6809 331.248 51.6809 330.936H52.5842C52.6005 331.238 52.7209 331.479 52.9456 331.658C53.1734 331.834 53.4729 331.922 53.844 331.922C54.1858 331.922 54.4592 331.854 54.6643 331.717C54.8726 331.577 54.9768 331.391 54.9768 331.16Z" fill="#1F2432"/>
<path d="M33.4 317.2C51.2 317.2 65.8 302.7 65.8 284.8C65.8 266.9 51.3 252.5 33.4 252.5C15.5 252.5 1 267 1 284.9C1 302.8 15.5 317.2 33.4 317.2Z" fill="#1F2432"/>
<path d="M47.2999 288.6V283.3C47.2999 280.9 45.5999 280 43.9999 280H38.6999C36.9999 280 35.3999 281 35.3999 283.3V288.6" fill="#1F2432"/>
<path d="M47.2999 288.6V283.3C47.2999 280.9 45.5999 280 43.9999 280H38.6999C36.9999 280 35.3999 281 35.3999 283.3V288.6" stroke="#00DCE6" stroke-miterlimit="10" stroke-linejoin="round"/>
<path d="M44.7 288V283.3" stroke="#00DCE6" stroke-miterlimit="10" stroke-linejoin="round"/>
<path d="M38 283.3V288" stroke="#00DCE6" stroke-miterlimit="10" stroke-linejoin="round"/>
<path d="M17.5 288.6H20.8" stroke="#00DCE6" stroke-miterlimit="10" stroke-linejoin="round"/>
<path d="M32.8 288.6H49.4001" stroke="#00DCE6" stroke-miterlimit="10" stroke-linejoin="round"/>
<path d="M41.4 277.3C43 277.3 44 276.3 44 274.7V273.3C44 271.7 42.9 270.7 41.4 270.7C39.8 270.7 38.8 271.8 38.8 273.3V274.7C38.7 276.3 39.8 277.3 41.4 277.3Z" fill="#1F2432" stroke="#00DCE6" stroke-miterlimit="10" stroke-linejoin="round"/>
<path d="M30.1 291.3C31.5 291.1 32.7001 290.7 32.7001 288.7V282.7C32.7001 280.3 31 279.4 29.4 279.4H24.1C22.4 279.4 20.8 280.4 20.8 282.7V288.7C20.8 290.7 22 291.1 23.4 291.3" fill="#1F2432"/>
<path d="M30.1 291.3C31.5 291.1 32.7001 290.7 32.7001 288.7V282.7C32.7001 280.3 31 279.4 29.4 279.4H24.1C22.4 279.4 20.8 280.4 20.8 282.7V288.7C20.8 290.7 22 291.1 23.4 291.3" stroke="#00DCE6" stroke-miterlimit="10" stroke-linejoin="round"/>
<path d="M30.2 282.6H23.5V293.9H30.2V282.6Z" fill="#1F2432" stroke="#00DCE6" stroke-miterlimit="10" stroke-linejoin="round"/>
<path d="M26.7999 276.6C28.3999 276.6 29.3999 275.5 29.3999 274V272.6C29.3999 271 28.2999 270 26.7999 270C25.1999 270 24.1999 271 24.1999 272.6V274C24.0999 275.6 25.1999 276.6 26.7999 276.6Z" fill="#1F2432" stroke="#00DCE6" stroke-miterlimit="10" stroke-linejoin="round"/>
<path d="M48 289.9V299.2" stroke="#00DCE6" stroke-miterlimit="10" stroke-linejoin="round"/>
<path d="M18.8 289.9V299.2" stroke="#00DCE6" stroke-miterlimit="10" stroke-linejoin="round"/>
<path d="M26.8 294V298.6" stroke="#00DCE6" stroke-miterlimit="10" stroke-linejoin="round"/>
<path d="M22.8 298.6H30.8" stroke="#00DCE6" stroke-miterlimit="10" stroke-linejoin="round"/>
<path d="M99.144 330.705H96.1655L95.4966 332.561H94.5298L97.2446 325.451H98.0649L100.785 332.561H99.8228L99.144 330.705ZM96.4487 329.934H98.8657L97.6548 326.608L96.4487 329.934ZM103.719 331.921C104.042 331.921 104.323 331.823 104.564 331.628C104.805 331.433 104.938 331.188 104.964 330.896H105.819C105.803 331.198 105.698 331.486 105.506 331.76C105.314 332.033 105.057 332.251 104.735 332.414C104.416 332.577 104.077 332.658 103.719 332.658C103 332.658 102.427 332.419 102 331.94C101.577 331.459 101.366 330.801 101.366 329.968V329.816C101.366 329.302 101.46 328.845 101.649 328.444C101.838 328.044 102.108 327.733 102.459 327.512C102.814 327.29 103.233 327.18 103.714 327.18C104.307 327.18 104.798 327.357 105.189 327.712C105.583 328.067 105.793 328.527 105.819 329.094H104.964C104.938 328.752 104.808 328.472 104.574 328.254C104.343 328.033 104.056 327.922 103.714 327.922C103.255 327.922 102.899 328.088 102.645 328.42C102.394 328.749 102.269 329.226 102.269 329.851V330.021C102.269 330.63 102.394 331.099 102.645 331.428C102.896 331.757 103.254 331.921 103.719 331.921ZM108.954 331.921C109.276 331.921 109.557 331.823 109.798 331.628C110.039 331.433 110.173 331.188 110.199 330.896H111.053C111.037 331.198 110.933 331.486 110.741 331.76C110.549 332.033 110.292 332.251 109.969 332.414C109.65 332.577 109.312 332.658 108.954 332.658C108.234 332.658 107.661 332.419 107.235 331.94C106.812 331.459 106.6 330.801 106.6 329.968V329.816C106.6 329.302 106.694 328.845 106.883 328.444C107.072 328.044 107.342 327.733 107.694 327.512C108.049 327.29 108.467 327.18 108.949 327.18C109.541 327.18 110.033 327.357 110.423 327.712C110.817 328.067 111.027 328.527 111.053 329.094H110.199C110.173 328.752 110.042 328.472 109.808 328.254C109.577 328.033 109.291 327.922 108.949 327.922C108.49 327.922 108.133 328.088 107.879 328.42C107.629 328.749 107.503 329.226 107.503 329.851V330.021C107.503 330.63 107.629 331.099 107.879 331.428C108.13 331.757 108.488 331.921 108.954 331.921ZM114.623 328.088C114.486 328.065 114.338 328.054 114.178 328.054C113.586 328.054 113.184 328.306 112.972 328.811V332.561H112.069V327.277H112.948L112.962 327.888C113.259 327.416 113.679 327.18 114.222 327.18C114.398 327.18 114.531 327.202 114.623 327.248V328.088ZM117.552 332.658C116.836 332.658 116.253 332.424 115.804 331.955C115.355 331.483 115.13 330.853 115.13 330.065V329.899C115.13 329.375 115.23 328.908 115.428 328.498C115.63 328.085 115.91 327.762 116.268 327.531C116.629 327.297 117.02 327.18 117.44 327.18C118.127 327.18 118.661 327.406 119.042 327.858C119.422 328.311 119.613 328.959 119.613 329.802V330.178H116.034C116.047 330.699 116.198 331.12 116.488 331.442C116.781 331.761 117.152 331.921 117.601 331.921C117.92 331.921 118.19 331.856 118.412 331.726C118.633 331.595 118.827 331.423 118.993 331.208L119.544 331.638C119.102 332.318 118.438 332.658 117.552 332.658ZM117.44 327.922C117.075 327.922 116.769 328.055 116.522 328.322C116.275 328.586 116.122 328.957 116.063 329.436H118.709V329.367C118.683 328.908 118.56 328.553 118.338 328.303C118.117 328.049 117.818 327.922 117.44 327.922ZM120.443 329.875C120.443 329.064 120.635 328.413 121.019 327.922C121.403 327.427 121.906 327.18 122.528 327.18C123.146 327.18 123.636 327.391 123.998 327.814V325.061H124.901V332.561H124.071L124.027 331.994C123.666 332.437 123.163 332.658 122.518 332.658C121.906 332.658 121.406 332.408 121.019 331.906C120.635 331.405 120.443 330.751 120.443 329.943V329.875ZM121.346 329.978C121.346 330.576 121.47 331.045 121.717 331.384C121.965 331.722 122.306 331.892 122.743 331.892C123.316 331.892 123.734 331.634 123.998 331.12V328.693C123.727 328.195 123.312 327.946 122.752 327.946C122.31 327.946 121.965 328.117 121.717 328.459C121.47 328.801 121.346 329.307 121.346 329.978ZM127.289 332.561H126.385V327.277H127.289V332.561ZM126.312 325.876C126.312 325.729 126.356 325.606 126.444 325.505C126.535 325.404 126.668 325.354 126.844 325.354C127.02 325.354 127.153 325.404 127.245 325.505C127.336 325.606 127.381 325.729 127.381 325.876C127.381 326.022 127.336 326.145 127.245 326.242C127.153 326.34 127.02 326.389 126.844 326.389C126.668 326.389 126.535 326.34 126.444 326.242C126.356 326.145 126.312 326.022 126.312 325.876ZM129.964 325.998V327.277H130.951V327.976H129.964V331.252C129.964 331.464 130.008 331.623 130.096 331.73C130.184 331.835 130.334 331.887 130.545 331.887C130.65 331.887 130.793 331.867 130.975 331.828V332.561C130.737 332.626 130.506 332.658 130.282 332.658C129.878 332.658 129.574 332.536 129.369 332.292C129.164 332.048 129.061 331.701 129.061 331.252V327.976H128.099V327.277H129.061V325.998H129.964ZM131.673 329.87C131.673 329.353 131.774 328.887 131.976 328.474C132.181 328.06 132.464 327.741 132.826 327.517C133.19 327.292 133.605 327.18 134.071 327.18C134.79 327.18 135.371 327.429 135.814 327.927C136.26 328.425 136.483 329.087 136.483 329.914V329.978C136.483 330.492 136.384 330.954 136.185 331.364C135.99 331.771 135.708 332.089 135.34 332.316C134.976 332.544 134.556 332.658 134.081 332.658C133.364 332.658 132.783 332.409 132.337 331.911C131.895 331.413 131.673 330.754 131.673 329.934V329.87ZM132.582 329.978C132.582 330.563 132.717 331.034 132.987 331.389C133.26 331.743 133.625 331.921 134.081 331.921C134.54 331.921 134.904 331.742 135.174 331.384C135.444 331.022 135.58 330.518 135.58 329.87C135.58 329.291 135.441 328.822 135.165 328.464C134.891 328.103 134.527 327.922 134.071 327.922C133.625 327.922 133.265 328.099 132.992 328.454C132.718 328.809 132.582 329.317 132.582 329.978ZM140.169 328.088C140.033 328.065 139.885 328.054 139.725 328.054C139.133 328.054 138.731 328.306 138.519 328.811V332.561H137.616V327.277H138.495L138.509 327.888C138.806 327.416 139.225 327.18 139.769 327.18C139.945 327.18 140.078 327.202 140.169 327.248V328.088ZM144.081 331.159C144.081 330.915 143.988 330.726 143.802 330.593C143.62 330.456 143.299 330.339 142.84 330.241C142.385 330.144 142.022 330.026 141.751 329.89C141.485 329.753 141.286 329.59 141.156 329.401C141.029 329.213 140.965 328.988 140.965 328.728C140.965 328.295 141.148 327.928 141.512 327.629C141.88 327.329 142.349 327.18 142.918 327.18C143.517 327.18 144.002 327.334 144.374 327.644C144.748 327.953 144.935 328.348 144.935 328.83H144.027C144.027 328.583 143.921 328.369 143.709 328.19C143.501 328.011 143.237 327.922 142.918 327.922C142.59 327.922 142.333 327.993 142.147 328.137C141.961 328.28 141.869 328.467 141.869 328.698C141.869 328.916 141.955 329.081 142.127 329.191C142.3 329.302 142.611 329.408 143.06 329.509C143.513 329.61 143.879 329.73 144.159 329.87C144.439 330.01 144.645 330.179 144.779 330.378C144.916 330.573 144.984 330.812 144.984 331.096C144.984 331.568 144.795 331.947 144.417 332.233C144.04 332.517 143.55 332.658 142.948 332.658C142.525 332.658 142.15 332.583 141.825 332.434C141.499 332.284 141.244 332.076 141.058 331.809C140.876 331.538 140.785 331.247 140.785 330.935H141.688C141.704 331.237 141.825 331.478 142.049 331.657C142.277 331.833 142.577 331.921 142.948 331.921C143.29 331.921 143.563 331.853 143.768 331.716C143.976 331.576 144.081 331.39 144.081 331.159ZM146.131 333.977L145.619 333.625C145.925 333.199 146.084 332.759 146.097 332.307V331.491H146.981V332.199C146.981 332.528 146.9 332.857 146.737 333.186C146.577 333.514 146.375 333.778 146.131 333.977Z" fill="#1F2432"/>
<path d="M78.5825 344.485L79.8911 340.428H80.814L78.9194 345.711H78.231L76.3169 340.428H77.2397L78.5825 344.485ZM84.8667 345.711C84.8146 345.607 84.7723 345.421 84.7397 345.154C84.3198 345.59 83.8185 345.809 83.2358 345.809C82.715 345.809 82.2869 345.662 81.9517 345.369C81.6196 345.073 81.4536 344.699 81.4536 344.246C81.4536 343.696 81.6619 343.27 82.0786 342.967C82.4985 342.661 83.0877 342.508 83.8462 342.508H84.7251V342.093C84.7251 341.777 84.6307 341.526 84.4419 341.341C84.2531 341.152 83.9748 341.058 83.6069 341.058C83.2847 341.058 83.0145 341.139 82.7964 341.302C82.5783 341.465 82.4692 341.661 82.4692 341.893H81.561C81.561 341.629 81.6538 341.375 81.8394 341.131C82.0282 340.883 82.2821 340.688 82.6011 340.545C82.9233 340.402 83.2765 340.33 83.6606 340.33C84.2694 340.33 84.7463 340.483 85.0913 340.789C85.4364 341.092 85.6154 341.51 85.6284 342.044V344.476C85.6284 344.961 85.6903 345.346 85.814 345.633V345.711H84.8667ZM83.3677 345.022C83.6509 345.022 83.9194 344.949 84.1733 344.803C84.4272 344.656 84.6112 344.466 84.7251 344.231V343.147H84.0171C82.9103 343.147 82.3569 343.471 82.3569 344.119C82.3569 344.402 82.4513 344.624 82.6401 344.783C82.8289 344.943 83.0715 345.022 83.3677 345.022ZM88.0259 345.711H87.1226V338.211H88.0259V345.711ZM90.4575 345.711H89.5542V340.428H90.4575V345.711ZM89.481 339.026C89.481 338.88 89.5249 338.756 89.6128 338.655C89.7039 338.554 89.8374 338.504 90.0132 338.504C90.189 338.504 90.3224 338.554 90.4136 338.655C90.5047 338.756 90.5503 338.88 90.5503 339.026C90.5503 339.173 90.5047 339.295 90.4136 339.393C90.3224 339.49 90.189 339.539 90.0132 339.539C89.8374 339.539 89.7039 339.49 89.6128 339.393C89.5249 339.295 89.481 339.173 89.481 339.026ZM91.688 343.025C91.688 342.215 91.88 341.564 92.2642 341.072C92.6483 340.577 93.1512 340.33 93.7729 340.33C94.3914 340.33 94.8813 340.542 95.2427 340.965V338.211H96.146V345.711H95.3159L95.272 345.145C94.9106 345.587 94.4077 345.809 93.7632 345.809C93.1512 345.809 92.6515 345.558 92.2642 345.057C91.88 344.555 91.688 343.901 91.688 343.094V343.025ZM92.5913 343.128C92.5913 343.727 92.715 344.196 92.9624 344.534C93.2098 344.873 93.5516 345.042 93.9878 345.042C94.5607 345.042 94.979 344.785 95.2427 344.271V341.844C94.9725 341.346 94.5575 341.097 93.9976 341.097C93.5549 341.097 93.2098 341.268 92.9624 341.609C92.715 341.951 92.5913 342.457 92.5913 343.128ZM100.814 345.711C100.762 345.607 100.72 345.421 100.687 345.154C100.267 345.59 99.7658 345.809 99.1831 345.809C98.6623 345.809 98.2342 345.662 97.8989 345.369C97.5669 345.073 97.4009 344.699 97.4009 344.246C97.4009 343.696 97.6092 343.27 98.0259 342.967C98.4458 342.661 99.035 342.508 99.7935 342.508H100.672V342.093C100.672 341.777 100.578 341.526 100.389 341.341C100.2 341.152 99.922 341.058 99.5542 341.058C99.2319 341.058 98.9618 341.139 98.7437 341.302C98.5256 341.465 98.4165 341.661 98.4165 341.893H97.5083C97.5083 341.629 97.6011 341.375 97.7866 341.131C97.9754 340.883 98.2293 340.688 98.5483 340.545C98.8706 340.402 99.2238 340.33 99.6079 340.33C100.217 340.33 100.694 340.483 101.039 340.789C101.384 341.092 101.563 341.51 101.576 342.044V344.476C101.576 344.961 101.638 345.346 101.761 345.633V345.711H100.814ZM99.3149 345.022C99.5981 345.022 99.8667 344.949 100.121 344.803C100.375 344.656 100.558 344.466 100.672 344.231V343.147H99.9644C98.8576 343.147 98.3042 343.471 98.3042 344.119C98.3042 344.402 98.3986 344.624 98.5874 344.783C98.7762 344.943 99.0187 345.022 99.3149 345.022ZM104.217 339.148V340.428H105.204V341.126H104.217V344.402C104.217 344.614 104.261 344.773 104.349 344.881C104.437 344.985 104.587 345.037 104.798 345.037C104.903 345.037 105.046 345.018 105.228 344.979V345.711C104.99 345.776 104.759 345.809 104.535 345.809C104.131 345.809 103.827 345.687 103.622 345.442C103.417 345.198 103.314 344.852 103.314 344.402V341.126H102.352V340.428H103.314V339.148H104.217ZM105.926 343.021C105.926 342.503 106.027 342.037 106.229 341.624C106.434 341.211 106.717 340.892 107.079 340.667C107.443 340.442 107.858 340.33 108.324 340.33C109.043 340.33 109.624 340.579 110.067 341.077C110.513 341.575 110.736 342.238 110.736 343.064V343.128C110.736 343.642 110.637 344.104 110.438 344.515C110.243 344.922 109.961 345.239 109.593 345.467C109.229 345.695 108.809 345.809 108.333 345.809C107.617 345.809 107.036 345.56 106.59 345.062C106.148 344.563 105.926 343.904 105.926 343.084V343.021ZM106.834 343.128C106.834 343.714 106.97 344.184 107.24 344.539C107.513 344.894 107.878 345.071 108.333 345.071C108.792 345.071 109.157 344.892 109.427 344.534C109.697 344.173 109.833 343.668 109.833 343.021C109.833 342.441 109.694 341.972 109.417 341.614C109.144 341.253 108.779 341.072 108.324 341.072C107.878 341.072 107.518 341.25 107.245 341.604C106.971 341.959 106.834 342.467 106.834 343.128ZM114.422 341.238C114.286 341.215 114.138 341.204 113.978 341.204C113.386 341.204 112.984 341.456 112.772 341.961V345.711H111.869V340.428H112.748L112.762 341.038C113.058 340.566 113.478 340.33 114.022 340.33C114.198 340.33 114.331 340.353 114.422 340.398V341.238ZM118.333 344.31C118.333 344.065 118.241 343.877 118.055 343.743C117.873 343.606 117.552 343.489 117.093 343.392C116.638 343.294 116.275 343.177 116.004 343.04C115.737 342.903 115.539 342.741 115.409 342.552C115.282 342.363 115.218 342.138 115.218 341.878C115.218 341.445 115.401 341.079 115.765 340.779C116.133 340.48 116.602 340.33 117.171 340.33C117.77 340.33 118.255 340.485 118.626 340.794C119.001 341.103 119.188 341.499 119.188 341.98H118.28C118.28 341.733 118.174 341.52 117.962 341.341C117.754 341.162 117.49 341.072 117.171 341.072C116.843 341.072 116.585 341.144 116.4 341.287C116.214 341.43 116.122 341.618 116.122 341.849C116.122 342.067 116.208 342.231 116.38 342.342C116.553 342.452 116.864 342.558 117.313 342.659C117.765 342.76 118.132 342.881 118.412 343.021C118.692 343.16 118.898 343.33 119.032 343.528C119.168 343.724 119.237 343.963 119.237 344.246C119.237 344.718 119.048 345.097 118.67 345.384C118.293 345.667 117.803 345.809 117.201 345.809C116.778 345.809 116.403 345.734 116.078 345.584C115.752 345.434 115.497 345.226 115.311 344.959C115.129 344.689 115.038 344.397 115.038 344.085H115.941C115.957 344.388 116.078 344.629 116.302 344.808C116.53 344.983 116.83 345.071 117.201 345.071C117.542 345.071 117.816 345.003 118.021 344.866C118.229 344.726 118.333 344.541 118.333 344.31ZM122.704 343.802C122.704 343.46 122.798 343.146 122.987 342.859C123.179 342.573 123.543 342.239 124.081 341.858C123.765 341.474 123.553 341.165 123.446 340.931C123.338 340.696 123.285 340.464 123.285 340.232C123.285 339.692 123.444 339.269 123.763 338.963C124.082 338.657 124.515 338.504 125.062 338.504C125.55 338.504 125.954 338.647 126.273 338.934C126.592 339.217 126.751 339.575 126.751 340.008C126.751 340.294 126.678 340.56 126.532 340.804C126.389 341.045 126.136 341.299 125.775 341.565L125.252 341.951L126.834 343.841C127.056 343.418 127.167 342.947 127.167 342.43H127.982C127.982 343.26 127.782 343.948 127.381 344.495L128.397 345.711H127.313L126.839 345.149C126.598 345.364 126.315 345.529 125.99 345.643C125.667 345.753 125.339 345.809 125.003 345.809C124.31 345.809 123.753 345.625 123.333 345.257C122.914 344.889 122.704 344.404 122.704 343.802ZM125.003 345.071C125.482 345.071 125.92 344.889 126.317 344.524L124.583 342.449L124.422 342.566C123.879 342.967 123.607 343.379 123.607 343.802C123.607 344.186 123.731 344.493 123.978 344.725C124.229 344.956 124.57 345.071 125.003 345.071ZM124.188 340.203C124.188 340.516 124.38 340.906 124.764 341.375L125.34 340.97C125.562 340.813 125.713 340.665 125.794 340.525C125.876 340.382 125.917 340.21 125.917 340.008C125.917 339.79 125.835 339.609 125.672 339.466C125.51 339.319 125.305 339.246 125.057 339.246C124.79 339.246 124.579 339.337 124.422 339.52C124.266 339.699 124.188 339.926 124.188 340.203ZM132.821 339.148V340.428H133.807V341.126H132.821V344.402C132.821 344.614 132.865 344.773 132.953 344.881C133.041 344.985 133.19 345.037 133.402 345.037C133.506 345.037 133.649 345.018 133.832 344.979V345.711C133.594 345.776 133.363 345.809 133.138 345.809C132.735 345.809 132.43 345.687 132.225 345.442C132.02 345.198 131.917 344.852 131.917 344.402V341.126H130.956V340.428H131.917V339.148H132.821ZM137.059 345.809C136.343 345.809 135.76 345.574 135.311 345.105C134.862 344.633 134.637 344.004 134.637 343.216V343.05C134.637 342.526 134.736 342.059 134.935 341.648C135.137 341.235 135.417 340.913 135.775 340.682C136.136 340.447 136.527 340.33 136.947 340.33C137.634 340.33 138.167 340.556 138.548 341.009C138.929 341.461 139.12 342.109 139.12 342.952V343.328H135.541C135.554 343.849 135.705 344.271 135.995 344.593C136.288 344.912 136.659 345.071 137.108 345.071C137.427 345.071 137.697 345.006 137.918 344.876C138.14 344.746 138.333 344.573 138.5 344.358L139.051 344.788C138.609 345.468 137.944 345.809 137.059 345.809ZM136.947 341.072C136.582 341.072 136.276 341.206 136.029 341.473C135.781 341.736 135.628 342.107 135.57 342.586H138.216V342.518C138.19 342.059 138.067 341.704 137.845 341.453C137.624 341.199 137.324 341.072 136.947 341.072ZM143.246 344.31C143.246 344.065 143.153 343.877 142.967 343.743C142.785 343.606 142.464 343.489 142.005 343.392C141.55 343.294 141.187 343.177 140.917 343.04C140.65 342.903 140.451 342.741 140.321 342.552C140.194 342.363 140.13 342.138 140.13 341.878C140.13 341.445 140.313 341.079 140.677 340.779C141.045 340.48 141.514 340.33 142.083 340.33C142.682 340.33 143.167 340.485 143.539 340.794C143.913 341.103 144.1 341.499 144.1 341.98H143.192C143.192 341.733 143.086 341.52 142.875 341.341C142.666 341.162 142.403 341.072 142.083 341.072C141.755 341.072 141.498 341.144 141.312 341.287C141.126 341.43 141.034 341.618 141.034 341.849C141.034 342.067 141.12 342.231 141.292 342.342C141.465 342.452 141.776 342.558 142.225 342.659C142.678 342.76 143.044 342.881 143.324 343.021C143.604 343.16 143.81 343.33 143.944 343.528C144.081 343.724 144.149 343.963 144.149 344.246C144.149 344.718 143.96 345.097 143.583 345.384C143.205 345.667 142.715 345.809 142.113 345.809C141.69 345.809 141.315 345.734 140.99 345.584C140.664 345.434 140.409 345.226 140.223 344.959C140.041 344.689 139.95 344.397 139.95 344.085H140.853C140.869 344.388 140.99 344.629 141.214 344.808C141.442 344.983 141.742 345.071 142.113 345.071C142.455 345.071 142.728 345.003 142.933 344.866C143.141 344.726 143.246 344.541 143.246 344.31ZM146.551 339.148V340.428H147.538V341.126H146.551V344.402C146.551 344.614 146.595 344.773 146.683 344.881C146.771 344.985 146.921 345.037 147.132 345.037C147.236 345.037 147.38 345.018 147.562 344.979V345.711C147.324 345.776 147.093 345.809 146.869 345.809C146.465 345.809 146.161 345.687 145.956 345.442C145.75 345.198 145.648 344.852 145.648 344.402V341.126H144.686V340.428H145.648V339.148H146.551ZM150.79 345.809C150.073 345.809 149.491 345.574 149.042 345.105C148.592 344.633 148.368 344.004 148.368 343.216V343.05C148.368 342.526 148.467 342.059 148.666 341.648C148.867 341.235 149.147 340.913 149.505 340.682C149.867 340.447 150.257 340.33 150.677 340.33C151.364 340.33 151.898 340.556 152.279 341.009C152.66 341.461 152.85 342.109 152.85 342.952V343.328H149.271C149.284 343.849 149.435 344.271 149.725 344.593C150.018 344.912 150.389 345.071 150.838 345.071C151.157 345.071 151.428 345.006 151.649 344.876C151.87 344.746 152.064 344.573 152.23 344.358L152.782 344.788C152.339 345.468 151.675 345.809 150.79 345.809ZM150.677 341.072C150.313 341.072 150.007 341.206 149.759 341.473C149.512 341.736 149.359 342.107 149.3 342.586H151.947V342.518C151.921 342.059 151.797 341.704 151.576 341.453C151.354 341.199 151.055 341.072 150.677 341.072ZM156.454 341.238C156.317 341.215 156.169 341.204 156.009 341.204C155.417 341.204 155.015 341.456 154.803 341.961V345.711H153.9V340.428H154.779L154.793 341.038C155.09 340.566 155.51 340.33 156.053 340.33C156.229 340.33 156.362 340.353 156.454 340.398V341.238ZM160.365 344.31C160.365 344.065 160.272 343.877 160.086 343.743C159.904 343.606 159.583 343.489 159.125 343.392C158.669 343.294 158.306 343.177 158.036 343.04C157.769 342.903 157.57 342.741 157.44 342.552C157.313 342.363 157.25 342.138 157.25 341.878C157.25 341.445 157.432 341.079 157.796 340.779C158.164 340.48 158.633 340.33 159.203 340.33C159.802 340.33 160.287 340.485 160.658 340.794C161.032 341.103 161.219 341.499 161.219 341.98H160.311C160.311 341.733 160.205 341.52 159.994 341.341C159.785 341.162 159.522 341.072 159.203 341.072C158.874 341.072 158.617 341.144 158.431 341.287C158.246 341.43 158.153 341.618 158.153 341.849C158.153 342.067 158.239 342.231 158.412 342.342C158.584 342.452 158.895 342.558 159.344 342.659C159.797 342.76 160.163 342.881 160.443 343.021C160.723 343.16 160.93 343.33 161.063 343.528C161.2 343.724 161.268 343.963 161.268 344.246C161.268 344.718 161.079 345.097 160.702 345.384C160.324 345.667 159.834 345.809 159.232 345.809C158.809 345.809 158.434 345.734 158.109 345.584C157.783 345.434 157.528 345.226 157.342 344.959C157.16 344.689 157.069 344.397 157.069 344.085H157.972C157.988 344.388 158.109 344.629 158.333 344.808C158.561 344.983 158.861 345.071 159.232 345.071C159.574 345.071 159.847 345.003 160.052 344.866C160.261 344.726 160.365 344.541 160.365 344.31Z" fill="#1F2432"/>
<path d="M121.2 317.2C139 317.2 153.6 302.7 153.6 284.8C153.6 266.9 139.1 252.5 121.2 252.5C103.4 252.5 88.8 267 88.8 284.9C88.8 302.8 103.3 317.2 121.2 317.2Z" fill="#1F2432"/>
<path d="M121.2 270L106 277.9V279.9H121.2H136.4V277.9L121.2 270Z" fill="#1F2432" stroke="#00DCE6" stroke-miterlimit="10"/>
<path d="M111.4 281.4V293.8" stroke="#00DCE6" stroke-miterlimit="10"/>
<path d="M117.7 281.4V293.8" stroke="#00DCE6" stroke-miterlimit="10"/>
<path d="M136.5 295.6H106" stroke="#00DCE6" stroke-miterlimit="10"/>
<path d="M136.5 299.9H106" stroke="#00DCE6" stroke-miterlimit="10"/>
<path d="M124.6 281.4V293.8" stroke="#00DCE6" stroke-miterlimit="10"/>
<path d="M131 281.4V293.8" stroke="#00DCE6" stroke-miterlimit="10"/>
<path d="M190 126.7L183.7 133.2L177.2 126.9" stroke="#00DCE6"/>
<path d="M291.1 112L297.4 105.4L303.9 111.8" stroke="#00DCE6"/>
<path d="M204.6 112L210.9 105.4L217.4 111.8" stroke="#00DCE6"/>
<path d="M297.3 105.4V154.2H245.4" stroke="#00DCE6" stroke-miterlimit="10"/>
<path d="M211 105.4V119.7H183.8V133.2" stroke="#00DCE6" stroke-miterlimit="10"/>
<path d="M77.2 147.801L83.5 154.301L77 160.601" stroke="#00DCE6"/>
<path d="M153.7 126.9L147.2 133.2L140.9 126.7" stroke="#00DCE6"/>
<path d="M27 111.8L33.5 105.4L39.8 112" stroke="#00DCE6"/>
<path d="M113.5 111.8L120 105.4L126.3 112" stroke="#00DCE6"/>
<path d="M83.5001 154.2H33.6001V105.4" stroke="#00DCE6" stroke-miterlimit="10"/>
<path d="M147.1 133.2V119.7H119.9V105.4" stroke="#00DCE6" stroke-miterlimit="10"/>
<path d="M140.9 222.4L147.2 215.9L153.7 222.2" stroke="#00DCE6"/>
<path d="M39.8 237.101L33.5 243.701L27 237.301" stroke="#00DCE6"/>
<path d="M126.3 237.101L120 243.701L113.5 237.301" stroke="#00DCE6"/>
<path d="M33.6001 243.7V194.9H85.5001" stroke="#00DCE6" stroke-miterlimit="10"/>
<path d="M119.9 243.7V229.4H147.1V215.9" stroke="#00DCE6" stroke-miterlimit="10"/>
<path d="M253.7 201.3L247.4 194.8L253.9 188.5" stroke="#00DCE6"/>
<path d="M177.2 222.2L183.7 215.9L190 222.4" stroke="#00DCE6"/>
<path d="M303.9 237.3L297.4 243.7L291.1 237.1" stroke="#00DCE6"/>
<path d="M217.4 237.3L210.9 243.7L204.6 237.1" stroke="#00DCE6"/>
<path d="M247.4 194.9H297.3V243.7" stroke="#00DCE6" stroke-miterlimit="10"/>
<path d="M183.8 215.9V229.4H211V243.7" stroke="#00DCE6" stroke-miterlimit="10"/>
<path d="M118.4 208.7C99.7001 208.7 84.6001 193 84.6001 173.7C84.6001 154.4 99.8001 138.7 118.4 138.7H210.7C229.4 138.7 244.5 154.4 244.5 173.7C244.5 193 229.3 208.7 210.7 208.7H118.4Z" fill="#00DCE6" fill-opacity="0.2"/>
<path d="M210.7 200.2H118.4C104.3 200.2 92.8 188.3 92.8 173.7C92.8 159.1 104.3 147.2 118.4 147.2H210.7C224.8 147.2 236.3 159.1 236.3 173.7C236.3 188.3 224.8 200.2 210.7 200.2Z" fill="#00DCE6"/>
<path d="M110.4 180.9V166.3L123.2 157.8L136 166.3V181" stroke="white"/>
<path d="M110.4 180.899L123.2 189.499L136 180.899L123.2 172.399L110.4 180.899Z" stroke="white" stroke-linejoin="round"/>
<path d="M135.9 166.3L123.1 174.8L110.3 166.3" stroke="white"/>
<path d="M123.2 157.8V172.5" stroke="white"/>
<path d="M123.2 174.899V189.599" stroke="white"/>
<path d="M153.657 177.937V168.134H156.978C158.128 168.134 159 168.363 159.595 168.821C160.189 169.274 160.487 169.941 160.487 170.82C160.487 171.301 160.367 171.725 160.129 172.093C159.89 172.456 159.558 172.723 159.132 172.894C159.619 173.02 160 173.273 160.278 173.655C160.56 174.036 160.701 174.503 160.701 175.055C160.701 175.998 160.411 176.711 159.829 177.196C159.247 177.681 158.418 177.928 157.342 177.937H153.657ZM155.61 173.668V176.314H157.284C157.744 176.314 158.102 176.202 158.358 175.977C158.618 175.749 158.748 175.434 158.748 175.035C158.748 174.137 158.299 173.682 157.401 173.668H155.61ZM155.61 172.241H157.056C158.041 172.223 158.534 171.817 158.534 171.022C158.534 170.578 158.408 170.259 158.156 170.066C157.909 169.869 157.516 169.77 156.978 169.77H155.61V172.241ZM164.035 177.937H162.147V167.596H164.035V177.937ZM165.298 174.227C165.298 173.504 165.432 172.86 165.701 172.295C165.97 171.729 166.357 171.292 166.86 170.982C167.368 170.672 167.956 170.517 168.624 170.517C169.575 170.517 170.35 170.818 170.948 171.42C171.552 172.021 171.888 172.838 171.958 173.87L171.971 174.368C171.971 175.486 171.669 176.384 171.066 177.061C170.462 177.735 169.653 178.071 168.637 178.071C167.622 178.071 166.81 177.735 166.203 177.061C165.599 176.388 165.298 175.472 165.298 174.315V174.227ZM167.179 174.368C167.179 175.06 167.305 175.589 167.557 175.957C167.808 176.321 168.169 176.503 168.637 176.503C169.093 176.503 169.449 176.323 169.705 175.964C169.961 175.6 170.089 175.021 170.089 174.227C170.089 173.549 169.961 173.024 169.705 172.652C169.449 172.279 169.089 172.093 168.624 172.093C168.164 172.093 167.808 172.279 167.557 172.652C167.305 173.02 167.179 173.592 167.179 174.368ZM176.059 176.503C176.406 176.503 176.688 176.404 176.905 176.206C177.122 176.009 177.235 175.746 177.244 175.419H179.008C179.004 175.912 178.874 176.366 178.617 176.779C178.361 177.187 178.01 177.506 177.563 177.735C177.12 177.959 176.63 178.071 176.092 178.071C175.085 178.071 174.29 177.741 173.709 177.082C173.127 176.417 172.836 175.502 172.836 174.335V174.207C172.836 173.085 173.125 172.189 173.702 171.521C174.28 170.852 175.072 170.517 176.079 170.517C176.96 170.517 177.665 170.778 178.194 171.298C178.728 171.815 178.999 172.503 179.008 173.365H177.244C177.235 172.988 177.122 172.683 176.905 172.45C176.688 172.212 176.402 172.093 176.046 172.093C175.608 172.093 175.276 172.259 175.05 172.591C174.829 172.919 174.718 173.453 174.718 174.193V174.395C174.718 175.145 174.829 175.683 175.05 176.011C175.271 176.339 175.608 176.503 176.059 176.503ZM182.641 175.015L181.964 175.715V177.937H180.082V167.596H181.964V173.325L182.328 172.84L184.132 170.652H186.391L183.845 173.688L186.612 177.937H184.451L182.641 175.015ZM190.004 176.503C190.351 176.503 190.633 176.404 190.85 176.206C191.067 176.009 191.18 175.746 191.189 175.419H192.953C192.949 175.912 192.818 176.366 192.562 176.779C192.306 177.187 191.955 177.506 191.508 177.735C191.065 177.959 190.575 178.071 190.036 178.071C189.029 178.071 188.235 177.741 187.654 177.082C187.072 176.417 186.781 175.502 186.781 174.335V174.207C186.781 173.085 187.07 172.189 187.647 171.521C188.224 170.852 189.016 170.517 190.023 170.517C190.904 170.517 191.61 170.778 192.139 171.298C192.673 171.815 192.944 172.503 192.953 173.365H191.189C191.18 172.988 191.067 172.683 190.85 172.45C190.633 172.212 190.347 172.093 189.991 172.093C189.552 172.093 189.22 172.259 188.995 172.591C188.773 172.919 188.663 173.453 188.663 174.193V174.395C188.663 175.145 188.773 175.683 188.995 176.011C189.216 176.339 189.552 176.503 190.004 176.503ZM195.863 171.447C196.362 170.827 196.989 170.517 197.744 170.517C199.272 170.517 200.047 171.435 200.069 173.271V177.937H198.187V173.325C198.187 172.907 198.1 172.6 197.927 172.403C197.753 172.201 197.465 172.1 197.061 172.1C196.51 172.1 196.11 172.319 195.863 172.759V177.937H193.982V167.596H195.863V171.447ZM205.57 177.937C205.483 177.761 205.42 177.544 205.381 177.283C204.925 177.809 204.333 178.071 203.604 178.071C202.914 178.071 202.341 177.865 201.885 177.452C201.434 177.039 201.208 176.518 201.208 175.89C201.208 175.118 201.483 174.525 202.035 174.113C202.59 173.7 203.391 173.491 204.437 173.486H205.303V173.069C205.303 172.732 205.218 172.463 205.049 172.261C204.884 172.059 204.621 171.958 204.261 171.958C203.944 171.958 203.695 172.037 203.513 172.194C203.335 172.351 203.246 172.566 203.246 172.84H201.364C201.364 172.418 201.49 172.028 201.742 171.669C201.993 171.31 202.349 171.029 202.809 170.827C203.269 170.621 203.786 170.517 204.359 170.517C205.227 170.517 205.915 170.744 206.423 171.197C206.935 171.646 207.191 172.279 207.191 173.096V176.253C207.195 176.945 207.288 177.468 207.471 177.822V177.937H205.57ZM204.014 176.583C204.292 176.583 204.548 176.52 204.782 176.395C205.016 176.265 205.19 176.092 205.303 175.876V174.624H204.6C203.658 174.624 203.157 174.961 203.096 175.634L203.089 175.749C203.089 175.991 203.172 176.191 203.337 176.348C203.502 176.505 203.727 176.583 204.014 176.583ZM210.622 177.937H208.734V170.652H210.622V177.937ZM208.623 168.767C208.623 168.475 208.716 168.235 208.903 168.047C209.094 167.858 209.352 167.764 209.678 167.764C209.999 167.764 210.255 167.858 210.446 168.047C210.637 168.235 210.732 168.475 210.732 168.767C210.732 169.063 210.635 169.306 210.439 169.494C210.248 169.683 209.995 169.777 209.678 169.777C209.361 169.777 209.105 169.683 208.909 169.494C208.719 169.306 208.623 169.063 208.623 168.767ZM213.909 170.652L213.968 171.494C214.471 170.843 215.146 170.517 215.993 170.517C216.739 170.517 217.295 170.744 217.659 171.197C218.024 171.651 218.21 172.328 218.219 173.231V177.937H216.338V173.278C216.338 172.865 216.251 172.566 216.077 172.382C215.904 172.194 215.615 172.1 215.211 172.1C214.682 172.1 214.285 172.333 214.02 172.8V177.937H212.139V170.652H213.909Z" fill="white"/>
</g>
<defs>
<clipPath id="clip0">
<rect width="330" height="346" fill="white"/>
</clipPath>
</defs>
</svg>
