<svg width="540" height="321" viewBox="0 0 540 321" fill="none" xmlns="http://www.w3.org/2000/svg">
<path d="M343.455 306.669H341.17V313.007H340.237V306.669H337.957V305.897H343.455V306.669ZM346.072 313.104C345.356 313.104 344.773 312.87 344.324 312.401C343.875 311.929 343.65 311.299 343.65 310.512V310.346C343.65 309.822 343.75 309.354 343.948 308.944C344.15 308.531 344.43 308.209 344.788 307.978C345.149 307.743 345.54 307.626 345.96 307.626C346.647 307.626 347.181 307.852 347.562 308.305C347.942 308.757 348.133 309.405 348.133 310.248V310.624H344.554C344.567 311.145 344.718 311.566 345.008 311.889C345.301 312.208 345.672 312.367 346.121 312.367C346.44 312.367 346.71 312.302 346.932 312.172C347.153 312.042 347.347 311.869 347.513 311.654L348.064 312.084C347.622 312.764 346.958 313.104 346.072 313.104ZM345.96 308.368C345.595 308.368 345.289 308.502 345.042 308.769C344.795 309.032 344.642 309.403 344.583 309.882H347.229V309.813C347.203 309.354 347.08 309 346.858 308.749C346.637 308.495 346.338 308.368 345.96 308.368ZM352.444 313.007C352.392 312.903 352.35 312.717 352.317 312.45C351.897 312.886 351.396 313.104 350.813 313.104C350.293 313.104 349.865 312.958 349.529 312.665C349.197 312.369 349.031 311.994 349.031 311.542C349.031 310.992 349.24 310.565 349.656 310.263C350.076 309.957 350.665 309.804 351.424 309.804H352.303V309.389C352.303 309.073 352.208 308.822 352.02 308.637C351.831 308.448 351.552 308.354 351.185 308.354C350.862 308.354 350.592 308.435 350.374 308.598C350.156 308.76 350.047 308.957 350.047 309.188H349.139C349.139 308.925 349.231 308.671 349.417 308.427C349.606 308.179 349.86 307.984 350.179 307.841C350.501 307.698 350.854 307.626 351.238 307.626C351.847 307.626 352.324 307.779 352.669 308.085C353.014 308.388 353.193 308.806 353.206 309.34V311.771C353.206 312.257 353.268 312.642 353.392 312.929V313.007H352.444ZM350.945 312.318C351.229 312.318 351.497 312.245 351.751 312.099C352.005 311.952 352.189 311.762 352.303 311.527V310.443H351.595C350.488 310.443 349.935 310.767 349.935 311.415C349.935 311.698 350.029 311.92 350.218 312.079C350.407 312.239 350.649 312.318 350.945 312.318ZM356.741 312.367C357.063 312.367 357.345 312.27 357.586 312.074C357.827 311.879 357.96 311.635 357.986 311.342H358.841C358.825 311.645 358.72 311.933 358.528 312.206C358.336 312.479 358.079 312.698 357.757 312.86C357.438 313.023 357.099 313.104 356.741 313.104C356.022 313.104 355.449 312.865 355.022 312.387C354.599 311.905 354.388 311.247 354.388 310.414V310.263C354.388 309.748 354.482 309.291 354.671 308.891C354.86 308.49 355.13 308.179 355.481 307.958C355.836 307.737 356.255 307.626 356.736 307.626C357.329 307.626 357.82 307.803 358.211 308.158C358.605 308.513 358.815 308.974 358.841 309.54H357.986C357.96 309.198 357.83 308.918 357.596 308.7C357.365 308.479 357.078 308.368 356.736 308.368C356.277 308.368 355.921 308.534 355.667 308.866C355.416 309.195 355.291 309.672 355.291 310.297V310.468C355.291 311.076 355.416 311.545 355.667 311.874C355.918 312.203 356.276 312.367 356.741 312.367ZM360.76 308.363C361.16 307.872 361.681 307.626 362.322 307.626C363.439 307.626 364.002 308.256 364.012 309.516V313.007H363.108V309.511C363.105 309.13 363.017 308.848 362.845 308.666C362.675 308.484 362.41 308.393 362.049 308.393C361.756 308.393 361.499 308.471 361.277 308.627C361.056 308.783 360.883 308.988 360.76 309.242V313.007H359.856V305.507H360.76V308.363ZM367.557 313.104C366.84 313.104 366.258 312.87 365.809 312.401C365.359 311.929 365.135 311.299 365.135 310.512V310.346C365.135 309.822 365.234 309.354 365.433 308.944C365.634 308.531 365.914 308.209 366.272 307.978C366.634 307.743 367.024 307.626 367.444 307.626C368.131 307.626 368.665 307.852 369.046 308.305C369.427 308.757 369.617 309.405 369.617 310.248V310.624H366.038C366.051 311.145 366.202 311.566 366.492 311.889C366.785 312.208 367.156 312.367 367.605 312.367C367.924 312.367 368.195 312.302 368.416 312.172C368.637 312.042 368.831 311.869 368.997 311.654L369.549 312.084C369.106 312.764 368.442 313.104 367.557 313.104ZM367.444 308.368C367.08 308.368 366.774 308.502 366.526 308.769C366.279 309.032 366.126 309.403 366.067 309.882H368.714V309.813C368.688 309.354 368.564 309 368.343 308.749C368.121 308.495 367.822 308.368 367.444 308.368ZM373.221 308.534C373.084 308.511 372.936 308.5 372.776 308.5C372.184 308.5 371.782 308.752 371.57 309.257V313.007H370.667V307.724H371.546L371.561 308.334C371.857 307.862 372.277 307.626 372.82 307.626C372.996 307.626 373.13 307.649 373.221 307.694V308.534ZM377.132 311.605C377.132 311.361 377.039 311.173 376.854 311.039C376.671 310.902 376.351 310.785 375.892 310.688C375.436 310.59 375.073 310.473 374.803 310.336C374.536 310.199 374.337 310.036 374.207 309.848C374.08 309.659 374.017 309.434 374.017 309.174C374.017 308.741 374.199 308.375 374.563 308.075C374.931 307.776 375.4 307.626 375.97 307.626C376.569 307.626 377.054 307.781 377.425 308.09C377.799 308.399 377.986 308.795 377.986 309.276H377.078C377.078 309.029 376.972 308.816 376.761 308.637C376.552 308.458 376.289 308.368 375.97 308.368C375.641 308.368 375.384 308.44 375.198 308.583C375.013 308.726 374.92 308.913 374.92 309.145C374.92 309.363 375.006 309.527 375.179 309.638C375.351 309.748 375.662 309.854 376.111 309.955C376.564 310.056 376.93 310.176 377.21 310.316C377.49 310.456 377.697 310.626 377.83 310.824C377.967 311.02 378.035 311.259 378.035 311.542C378.035 312.014 377.846 312.393 377.469 312.68C377.091 312.963 376.601 313.104 375.999 313.104C375.576 313.104 375.201 313.03 374.876 312.88C374.55 312.73 374.295 312.522 374.109 312.255C373.927 311.985 373.836 311.693 373.836 311.381H374.739C374.756 311.684 374.876 311.924 375.101 312.104C375.328 312.279 375.628 312.367 375.999 312.367C376.341 312.367 376.614 312.299 376.819 312.162C377.028 312.022 377.132 311.837 377.132 311.605Z" fill="#1F2432"/>
<path d="M357.848 298.26C378.661 298.26 395.625 281.41 395.625 260.544C395.625 239.765 378.748 222.827 357.848 222.827C337.036 222.827 320.071 239.677 320.071 260.544C320.071 281.41 336.949 298.26 357.848 298.26Z" fill="#1F2432"/>
<path d="M368.692 275.124L364.844 269.362L371.577 264.996L374.113 268.925C374.026 269.187 373.151 269.711 372.801 270.06C372.277 269.798 371.49 269.886 371.315 269.886C371.053 269.886 370.353 270.933 370.266 271.108C370.178 271.108 369.304 271.719 369.304 271.981C369.391 273.116 370.266 274.164 370.878 273.902C372.539 273.378 375.687 271.719 377.261 269.973C378.048 269.1 378.223 268.052 377.436 267.092L373.851 261.242C372.802 259.758 369.216 259.06 367.467 259.06C365.806 259.06 362.046 259.933 360.996 261.242C360.034 262.465 358.023 265.258 357.236 265.957L354.875 264.647C354.525 263.949 355.05 263.687 354.962 263.076C354.962 262.814 353.039 261.155 352.776 261.155C351.552 260.893 350.415 263.076 350.852 263.949C351.202 264.647 351.727 265.346 351.989 265.608C356.099 270.497 356.187 270.933 357.586 271.021C358.985 271.108 361.608 268.489 361.958 267.878V275.56" stroke="#00DCE6" stroke-miterlimit="10"/>
<path d="M367.817 248.495C369.741 248.495 371.402 249.63 371.402 252.948C371.402 256.178 369.828 257.4 367.817 257.4C365.893 257.4 364.231 256.265 364.231 252.948C364.319 249.717 365.893 248.495 367.817 248.495Z" stroke="#00DCE6" stroke-miterlimit="10"/>
<path d="M352.427 250.854V261.505" stroke="#00DCE6" stroke-miterlimit="10"/>
<path d="M361.871 273.901H337.735V243.344H377.174V266.829" stroke="#00DCE6" stroke-miterlimit="10"/>
<path d="M18.2881 309.721H15.207V312.24H18.7861V313.007H14.2695V305.897H18.7373V306.669H15.207V308.954H18.2881V309.721ZM20.6611 307.724L20.6855 308.31C21.0729 307.854 21.5954 307.626 22.2529 307.626C22.9919 307.626 23.4948 307.909 23.7617 308.476C23.9375 308.222 24.1654 308.017 24.4453 307.86C24.7285 307.704 25.0622 307.626 25.4463 307.626C26.6051 307.626 27.1943 308.24 27.2139 309.467V313.007H26.3105V309.521C26.3105 309.143 26.2243 308.861 26.0518 308.676C25.8792 308.487 25.5895 308.393 25.1826 308.393C24.8473 308.393 24.569 308.493 24.3477 308.695C24.1263 308.894 23.9977 309.162 23.9619 309.501V313.007H23.0537V309.545C23.0537 308.777 22.6777 308.393 21.9258 308.393C21.3333 308.393 20.9281 308.645 20.71 309.149V313.007H19.8066V307.724H20.6611ZM33.0439 310.424C33.0439 311.228 32.86 311.876 32.4922 312.367C32.1243 312.859 31.6263 313.104 30.998 313.104C30.3568 313.104 29.8522 312.901 29.4844 312.494V315.038H28.5811V307.724H29.4062L29.4502 308.31C29.818 307.854 30.3291 307.626 30.9834 307.626C31.6182 307.626 32.1195 307.865 32.4873 308.344C32.8584 308.822 33.0439 309.488 33.0439 310.341V310.424ZM32.1406 310.321C32.1406 309.726 32.0137 309.255 31.7598 308.91C31.5059 308.565 31.1576 308.393 30.7148 308.393C30.168 308.393 29.7578 308.635 29.4844 309.12V311.645C29.7546 312.126 30.168 312.367 30.7246 312.367C31.1576 312.367 31.501 312.196 31.7549 311.854C32.012 311.509 32.1406 310.998 32.1406 310.321ZM35.1777 313.007H34.2744V305.507H35.1777V313.007ZM36.3887 310.316C36.3887 309.799 36.4896 309.333 36.6914 308.92C36.8965 308.507 37.1797 308.188 37.541 307.963C37.9056 307.738 38.3206 307.626 38.7861 307.626C39.5055 307.626 40.0866 307.875 40.5293 308.373C40.9753 308.871 41.1982 309.534 41.1982 310.36V310.424C41.1982 310.938 41.099 311.4 40.9004 311.811C40.7051 312.217 40.4235 312.535 40.0557 312.763C39.6911 312.991 39.2712 313.104 38.7959 313.104C38.0798 313.104 37.4987 312.855 37.0527 312.357C36.61 311.859 36.3887 311.2 36.3887 310.38V310.316ZM37.2969 310.424C37.2969 311.01 37.432 311.48 37.7021 311.835C37.9756 312.19 38.3402 312.367 38.7959 312.367C39.2549 312.367 39.6195 312.188 39.8896 311.83C40.1598 311.469 40.2949 310.964 40.2949 310.316C40.2949 309.737 40.1566 309.268 39.8799 308.91C39.6064 308.549 39.2419 308.368 38.7861 308.368C38.3402 308.368 37.9805 308.546 37.707 308.9C37.4336 309.255 37.2969 309.763 37.2969 310.424ZM43.9814 311.684L45.2119 307.724H46.1787L44.0547 313.822C43.7259 314.701 43.2035 315.141 42.4873 315.141L42.3164 315.126L41.9795 315.062V314.33L42.2236 314.35C42.5296 314.35 42.7673 314.288 42.9365 314.164C43.109 314.04 43.2507 313.814 43.3613 313.485L43.5615 312.948L41.6768 307.724H42.6631L43.9814 311.684ZM49.1133 313.104C48.3971 313.104 47.8145 312.87 47.3652 312.401C46.916 311.929 46.6914 311.299 46.6914 310.512V310.346C46.6914 309.822 46.7907 309.354 46.9893 308.944C47.1911 308.531 47.471 308.209 47.8291 307.978C48.1904 307.743 48.5811 307.626 49.001 307.626C49.6878 307.626 50.2217 307.852 50.6025 308.305C50.9834 308.757 51.1738 309.405 51.1738 310.248V310.624H47.5947C47.6077 311.145 47.7591 311.566 48.0488 311.889C48.3418 312.208 48.7129 312.367 49.1621 312.367C49.4811 312.367 49.7513 312.302 49.9727 312.172C50.194 312.042 50.3877 311.869 50.5537 311.654L51.1055 312.084C50.6628 312.764 49.9987 313.104 49.1133 313.104ZM49.001 308.368C48.6364 308.368 48.3304 308.502 48.083 308.769C47.8356 309.032 47.6826 309.403 47.624 309.882H50.2705V309.813C50.2445 309.354 50.1208 309 49.8994 308.749C49.6781 308.495 49.3786 308.368 49.001 308.368ZM54.7773 308.534C54.6406 308.511 54.4925 308.5 54.333 308.5C53.7406 308.5 53.3385 308.752 53.127 309.257V313.007H52.2236V307.724H53.1025L53.1172 308.334C53.4134 307.862 53.8333 307.626 54.377 307.626C54.5527 307.626 54.6862 307.649 54.7773 307.694V308.534ZM58.6885 311.605C58.6885 311.361 58.5957 311.173 58.4102 311.039C58.2279 310.902 57.9072 310.785 57.4482 310.688C56.9925 310.59 56.6296 310.473 56.3594 310.336C56.0924 310.199 55.8939 310.036 55.7637 309.848C55.6367 309.659 55.5732 309.434 55.5732 309.174C55.5732 308.741 55.7555 308.375 56.1201 308.075C56.488 307.776 56.9567 307.626 57.5264 307.626C58.1253 307.626 58.6104 307.781 58.9814 308.09C59.3558 308.399 59.543 308.795 59.543 309.276H58.6348C58.6348 309.029 58.529 308.816 58.3174 308.637C58.109 308.458 57.8454 308.368 57.5264 308.368C57.1976 308.368 56.9404 308.44 56.7549 308.583C56.5693 308.726 56.4766 308.913 56.4766 309.145C56.4766 309.363 56.5628 309.527 56.7354 309.638C56.9079 309.748 57.2188 309.854 57.668 309.955C58.1204 310.056 58.4867 310.176 58.7666 310.316C59.0465 310.456 59.2533 310.626 59.3867 310.824C59.5234 311.02 59.5918 311.259 59.5918 311.542C59.5918 312.014 59.403 312.393 59.0254 312.68C58.6478 312.963 58.1579 313.104 57.5557 313.104C57.1325 313.104 56.7581 313.03 56.4326 312.88C56.1071 312.73 55.8516 312.522 55.666 312.255C55.4837 311.985 55.3926 311.693 55.3926 311.381H56.2959C56.3122 311.684 56.4326 311.924 56.6572 312.104C56.8851 312.279 57.1846 312.367 57.5557 312.367C57.8975 312.367 58.1709 312.299 58.376 312.162C58.5843 312.022 58.6885 311.837 58.6885 311.605Z" fill="#1F2432"/>
<path d="M39.4547 298.26C60.2671 298.26 77.2318 281.41 77.2318 260.544C77.2318 239.765 60.3545 222.827 39.4547 222.827C18.555 222.827 1.67773 239.852 1.67773 260.631C1.67773 281.41 18.555 298.26 39.4547 298.26Z" fill="#1F2432"/>
<path d="M55.7195 264.996V258.798C55.7195 256.004 53.7956 254.956 51.8718 254.956H45.6631C43.6518 254.956 41.8154 256.091 41.8154 258.798V264.996" stroke="#00DCE6" stroke-miterlimit="10" stroke-linejoin="round"/>
<path d="M52.5713 264.298V258.885" stroke="#00DCE6" stroke-miterlimit="10" stroke-linejoin="round"/>
<path d="M44.876 258.885V264.298" stroke="#00DCE6" stroke-miterlimit="10" stroke-linejoin="round"/>
<path d="M20.8281 264.996H24.6764" stroke="#00DCE6" stroke-miterlimit="10" stroke-linejoin="round"/>
<path d="M38.667 264.996H57.9927" stroke="#00DCE6" stroke-miterlimit="10" stroke-linejoin="round"/>
<path d="M48.7244 251.901C50.5611 251.901 51.7856 250.678 51.7856 248.845V247.274C51.7856 245.44 50.4737 244.218 48.7244 244.218C46.8878 244.218 45.6633 245.44 45.6633 247.274V248.845C45.5758 250.591 46.8878 251.901 48.7244 251.901Z" stroke="#00DCE6" stroke-miterlimit="10" stroke-linejoin="round"/>
<path d="M35.5202 268.14C37.1816 267.878 38.5808 267.441 38.5808 265.084V258.099C38.5808 255.305 36.657 254.258 34.7331 254.258H28.5244C26.5131 254.258 24.6768 255.393 24.6768 258.099V265.084C24.6768 267.441 26.0759 267.878 27.7374 268.14" stroke="#00DCE6" stroke-miterlimit="10" stroke-linejoin="round"/>
<path d="M35.607 258.1H27.8242V271.283H35.607V258.1Z" stroke="#00DCE6" stroke-miterlimit="10" stroke-linejoin="round"/>
<path d="M31.6725 251.115C33.5091 251.115 34.7336 249.892 34.7336 248.059V246.487C34.7336 244.654 33.4217 243.432 31.6725 243.432C29.8358 243.432 28.6113 244.654 28.6113 246.487V248.059C28.6113 249.892 29.8358 251.115 31.6725 251.115Z" stroke="#00DCE6" stroke-miterlimit="10" stroke-linejoin="round"/>
<path d="M56.4189 266.568V277.394" stroke="#00DCE6" stroke-miterlimit="10" stroke-linejoin="round"/>
<path d="M22.4023 266.568V277.394" stroke="#00DCE6" stroke-miterlimit="10" stroke-linejoin="round"/>
<path d="M31.6719 271.195V276.608" stroke="#00DCE6" stroke-miterlimit="10" stroke-linejoin="round"/>
<path d="M27.0371 276.608H36.3065" stroke="#00DCE6" stroke-miterlimit="10" stroke-linejoin="round"/>
<path d="M126.522 311.151H123.543L122.874 313.007H121.908L124.622 305.897H125.443L128.163 313.007H127.201L126.522 311.151ZM123.827 310.38H126.244L125.033 307.055L123.827 310.38ZM131.097 312.367C131.419 312.367 131.701 312.27 131.942 312.074C132.183 311.879 132.316 311.635 132.342 311.342H133.197C133.18 311.645 133.076 311.933 132.884 312.206C132.692 312.479 132.435 312.698 132.113 312.86C131.794 313.023 131.455 313.104 131.097 313.104C130.378 313.104 129.805 312.865 129.378 312.387C128.955 311.905 128.744 311.247 128.744 310.414V310.263C128.744 309.748 128.838 309.291 129.027 308.891C129.216 308.49 129.486 308.179 129.837 307.958C130.192 307.737 130.61 307.626 131.092 307.626C131.685 307.626 132.176 307.803 132.567 308.158C132.961 308.513 133.171 308.974 133.197 309.54H132.342C132.316 309.198 132.186 308.918 131.952 308.7C131.72 308.479 131.434 308.368 131.092 308.368C130.633 308.368 130.277 308.534 130.023 308.866C129.772 309.195 129.647 309.672 129.647 310.297V310.468C129.647 311.076 129.772 311.545 130.023 311.874C130.274 312.203 130.632 312.367 131.097 312.367ZM136.331 312.367C136.654 312.367 136.935 312.27 137.176 312.074C137.417 311.879 137.551 311.635 137.577 311.342H138.431C138.415 311.645 138.311 311.933 138.119 312.206C137.927 312.479 137.669 312.698 137.347 312.86C137.028 313.023 136.69 313.104 136.331 313.104C135.612 313.104 135.039 312.865 134.613 312.387C134.19 311.905 133.978 311.247 133.978 310.414V310.263C133.978 309.748 134.072 309.291 134.261 308.891C134.45 308.49 134.72 308.179 135.072 307.958C135.427 307.737 135.845 307.626 136.327 307.626C136.919 307.626 137.411 307.803 137.801 308.158C138.195 308.513 138.405 308.974 138.431 309.54H137.577C137.551 309.198 137.42 308.918 137.186 308.7C136.955 308.479 136.668 308.368 136.327 308.368C135.868 308.368 135.511 308.534 135.257 308.866C135.007 309.195 134.881 309.672 134.881 310.297V310.468C134.881 311.076 135.007 311.545 135.257 311.874C135.508 312.203 135.866 312.367 136.331 312.367ZM142 308.534C141.864 308.511 141.716 308.5 141.556 308.5C140.964 308.5 140.562 308.752 140.35 309.257V313.007H139.447V307.724H140.326L140.34 308.334C140.636 307.862 141.056 307.626 141.6 307.626C141.776 307.626 141.909 307.649 142 307.694V308.534ZM144.93 313.104C144.214 313.104 143.631 312.87 143.182 312.401C142.733 311.929 142.508 311.299 142.508 310.512V310.346C142.508 309.822 142.607 309.354 142.806 308.944C143.008 308.531 143.288 308.209 143.646 307.978C144.007 307.743 144.398 307.626 144.818 307.626C145.505 307.626 146.038 307.852 146.419 308.305C146.8 308.757 146.991 309.405 146.991 310.248V310.624H143.412C143.425 311.145 143.576 311.566 143.866 311.889C144.159 312.208 144.53 312.367 144.979 312.367C145.298 312.367 145.568 312.302 145.789 312.172C146.011 312.042 146.204 311.869 146.371 311.654L146.922 312.084C146.48 312.764 145.816 313.104 144.93 313.104ZM144.818 308.368C144.453 308.368 144.147 308.502 143.9 308.769C143.652 309.032 143.499 309.403 143.441 309.882H146.087V309.813C146.061 309.354 145.938 309 145.716 308.749C145.495 308.495 145.195 308.368 144.818 308.368ZM147.821 310.321C147.821 309.511 148.013 308.86 148.397 308.368C148.781 307.873 149.284 307.626 149.906 307.626C150.524 307.626 151.014 307.838 151.375 308.261V305.507H152.279V313.007H151.449L151.405 312.44C151.043 312.883 150.54 313.104 149.896 313.104C149.284 313.104 148.784 312.854 148.397 312.353C148.013 311.851 147.821 311.197 147.821 310.39V310.321ZM148.724 310.424C148.724 311.023 148.848 311.492 149.095 311.83C149.343 312.169 149.684 312.338 150.121 312.338C150.693 312.338 151.112 312.081 151.375 311.566V309.14C151.105 308.642 150.69 308.393 150.13 308.393C149.688 308.393 149.343 308.563 149.095 308.905C148.848 309.247 148.724 309.753 148.724 310.424ZM154.666 313.007H153.763V307.724H154.666V313.007ZM153.69 306.322C153.69 306.176 153.734 306.052 153.822 305.951C153.913 305.85 154.046 305.8 154.222 305.8C154.398 305.8 154.531 305.85 154.622 305.951C154.714 306.052 154.759 306.176 154.759 306.322C154.759 306.469 154.714 306.591 154.622 306.688C154.531 306.786 154.398 306.835 154.222 306.835C154.046 306.835 153.913 306.786 153.822 306.688C153.734 306.591 153.69 306.469 153.69 306.322ZM157.342 306.444V307.724H158.329V308.422H157.342V311.698C157.342 311.91 157.386 312.069 157.474 312.177C157.562 312.281 157.712 312.333 157.923 312.333C158.027 312.333 158.171 312.313 158.353 312.274V313.007C158.115 313.072 157.884 313.104 157.66 313.104C157.256 313.104 156.952 312.982 156.746 312.738C156.541 312.494 156.439 312.147 156.439 311.698V308.422H155.477V307.724H156.439V306.444H157.342ZM159.051 310.316C159.051 309.799 159.152 309.333 159.354 308.92C159.559 308.507 159.842 308.188 160.204 307.963C160.568 307.738 160.983 307.626 161.449 307.626C162.168 307.626 162.749 307.875 163.192 308.373C163.638 308.871 163.861 309.534 163.861 310.36V310.424C163.861 310.938 163.761 311.4 163.563 311.811C163.368 312.217 163.086 312.535 162.718 312.763C162.354 312.991 161.934 313.104 161.458 313.104C160.742 313.104 160.161 312.855 159.715 312.357C159.273 311.859 159.051 311.2 159.051 310.38V310.316ZM159.959 310.424C159.959 311.01 160.094 311.48 160.365 311.835C160.638 312.19 161.003 312.367 161.458 312.367C161.917 312.367 162.282 312.188 162.552 311.83C162.822 311.469 162.957 310.964 162.957 310.316C162.957 309.737 162.819 309.268 162.542 308.91C162.269 308.549 161.904 308.368 161.449 308.368C161.003 308.368 160.643 308.546 160.37 308.9C160.096 309.255 159.959 309.763 159.959 310.424ZM167.547 308.534C167.411 308.511 167.262 308.5 167.103 308.5C166.51 308.5 166.108 308.752 165.897 309.257V313.007H164.994V307.724H165.872L165.887 308.334C166.183 307.862 166.603 307.626 167.147 307.626C167.323 307.626 167.456 307.649 167.547 307.694V308.534ZM171.458 311.605C171.458 311.361 171.366 311.173 171.18 311.039C170.998 310.902 170.677 310.785 170.218 310.688C169.762 310.59 169.399 310.473 169.129 310.336C168.862 310.199 168.664 310.036 168.534 309.848C168.407 309.659 168.343 309.434 168.343 309.174C168.343 308.741 168.525 308.375 168.89 308.075C169.258 307.776 169.727 307.626 170.296 307.626C170.895 307.626 171.38 307.781 171.751 308.09C172.126 308.399 172.313 308.795 172.313 309.276H171.405C171.405 309.029 171.299 308.816 171.087 308.637C170.879 308.458 170.615 308.368 170.296 308.368C169.968 308.368 169.71 308.44 169.525 308.583C169.339 308.726 169.246 308.913 169.246 309.145C169.246 309.363 169.333 309.527 169.505 309.638C169.678 309.748 169.989 309.854 170.438 309.955C170.89 310.056 171.257 310.176 171.537 310.316C171.816 310.456 172.023 310.626 172.157 310.824C172.293 311.02 172.362 311.259 172.362 311.542C172.362 312.014 172.173 312.393 171.795 312.68C171.418 312.963 170.928 313.104 170.326 313.104C169.902 313.104 169.528 313.03 169.203 312.88C168.877 312.73 168.621 312.522 168.436 312.255C168.254 311.985 168.163 311.693 168.163 311.381H169.066C169.082 311.684 169.203 311.924 169.427 312.104C169.655 312.279 169.954 312.367 170.326 312.367C170.667 312.367 170.941 312.299 171.146 312.162C171.354 312.022 171.458 311.837 171.458 311.605ZM173.509 314.423L172.996 314.071C173.302 313.645 173.462 313.205 173.475 312.753V311.938H174.359V312.646C174.359 312.974 174.277 313.303 174.115 313.632C173.955 313.961 173.753 314.224 173.509 314.423ZM179.725 311.781L181.034 307.724H181.956L180.062 313.007H179.373L177.459 307.724H178.382L179.725 311.781ZM186.009 313.007C185.957 312.903 185.915 312.717 185.882 312.45C185.462 312.886 184.961 313.104 184.378 313.104C183.857 313.104 183.429 312.958 183.094 312.665C182.762 312.369 182.596 311.994 182.596 311.542C182.596 310.992 182.804 310.565 183.221 310.263C183.641 309.957 184.23 309.804 184.989 309.804H185.868V309.389C185.868 309.073 185.773 308.822 185.584 308.637C185.396 308.448 185.117 308.354 184.749 308.354C184.427 308.354 184.157 308.435 183.939 308.598C183.721 308.76 183.612 308.957 183.612 309.188H182.704C182.704 308.925 182.796 308.671 182.982 308.427C183.171 308.179 183.425 307.984 183.744 307.841C184.066 307.698 184.419 307.626 184.803 307.626C185.412 307.626 185.889 307.779 186.234 308.085C186.579 308.388 186.758 308.806 186.771 309.34V311.771C186.771 312.257 186.833 312.642 186.956 312.929V313.007H186.009ZM184.51 312.318C184.793 312.318 185.062 312.245 185.316 312.099C185.57 311.952 185.754 311.762 185.868 311.527V310.443H185.16C184.053 310.443 183.499 310.767 183.499 311.415C183.499 311.698 183.594 311.92 183.783 312.079C183.971 312.239 184.214 312.318 184.51 312.318ZM189.168 313.007H188.265V305.507H189.168V313.007ZM191.6 313.007H190.697V307.724H191.6V313.007ZM190.623 306.322C190.623 306.176 190.667 306.052 190.755 305.951C190.846 305.85 190.98 305.8 191.156 305.8C191.331 305.8 191.465 305.85 191.556 305.951C191.647 306.052 191.693 306.176 191.693 306.322C191.693 306.469 191.647 306.591 191.556 306.688C191.465 306.786 191.331 306.835 191.156 306.835C190.98 306.835 190.846 306.786 190.755 306.688C190.667 306.591 190.623 306.469 190.623 306.322ZM192.83 310.321C192.83 309.511 193.023 308.86 193.407 308.368C193.791 307.873 194.294 307.626 194.915 307.626C195.534 307.626 196.024 307.838 196.385 308.261V305.507H197.288V313.007H196.458L196.414 312.44C196.053 312.883 195.55 313.104 194.906 313.104C194.294 313.104 193.794 312.854 193.407 312.353C193.023 311.851 192.83 311.197 192.83 310.39V310.321ZM193.734 310.424C193.734 311.023 193.857 311.492 194.105 311.83C194.352 312.169 194.694 312.338 195.13 312.338C195.703 312.338 196.121 312.081 196.385 311.566V309.14C196.115 308.642 195.7 308.393 195.14 308.393C194.697 308.393 194.352 308.563 194.105 308.905C193.857 309.247 193.734 309.753 193.734 310.424ZM201.956 313.007C201.904 312.903 201.862 312.717 201.829 312.45C201.41 312.886 200.908 313.104 200.326 313.104C199.805 313.104 199.377 312.958 199.041 312.665C198.709 312.369 198.543 311.994 198.543 311.542C198.543 310.992 198.752 310.565 199.168 310.263C199.588 309.957 200.177 309.804 200.936 309.804H201.815V309.389C201.815 309.073 201.72 308.822 201.532 308.637C201.343 308.448 201.065 308.354 200.697 308.354C200.374 308.354 200.104 308.435 199.886 308.598C199.668 308.76 199.559 308.957 199.559 309.188H198.651C198.651 308.925 198.744 308.671 198.929 308.427C199.118 308.179 199.372 307.984 199.691 307.841C200.013 307.698 200.366 307.626 200.75 307.626C201.359 307.626 201.836 307.779 202.181 308.085C202.526 308.388 202.705 308.806 202.718 309.34V311.771C202.718 312.257 202.78 312.642 202.904 312.929V313.007H201.956ZM200.457 312.318C200.741 312.318 201.009 312.245 201.263 312.099C201.517 311.952 201.701 311.762 201.815 311.527V310.443H201.107C200 310.443 199.447 310.767 199.447 311.415C199.447 311.698 199.541 311.92 199.73 312.079C199.919 312.239 200.161 312.318 200.457 312.318ZM205.36 306.444V307.724H206.346V308.422H205.36V311.698C205.36 311.91 205.404 312.069 205.492 312.177C205.579 312.281 205.729 312.333 205.941 312.333C206.045 312.333 206.188 312.313 206.371 312.274V313.007C206.133 313.072 205.902 313.104 205.677 313.104C205.274 313.104 204.969 312.982 204.764 312.738C204.559 312.494 204.456 312.147 204.456 311.698V308.422H203.495V307.724H204.456V306.444H205.36ZM207.069 310.316C207.069 309.799 207.17 309.333 207.371 308.92C207.577 308.507 207.86 308.188 208.221 307.963C208.586 307.738 209.001 307.626 209.466 307.626C210.186 307.626 210.767 307.875 211.209 308.373C211.655 308.871 211.878 309.534 211.878 310.36V310.424C211.878 310.938 211.779 311.4 211.58 311.811C211.385 312.217 211.104 312.535 210.736 312.763C210.371 312.991 209.951 313.104 209.476 313.104C208.76 313.104 208.179 312.855 207.733 312.357C207.29 311.859 207.069 311.2 207.069 310.38V310.316ZM207.977 310.424C207.977 311.01 208.112 311.48 208.382 311.835C208.656 312.19 209.02 312.367 209.476 312.367C209.935 312.367 210.3 312.188 210.57 311.83C210.84 311.469 210.975 310.964 210.975 310.316C210.975 309.737 210.837 309.268 210.56 308.91C210.287 308.549 209.922 308.368 209.466 308.368C209.02 308.368 208.661 308.546 208.387 308.9C208.114 309.255 207.977 309.763 207.977 310.424ZM215.565 308.534C215.428 308.511 215.28 308.5 215.121 308.5C214.528 308.5 214.126 308.752 213.914 309.257V313.007H213.011V307.724H213.89L213.905 308.334C214.201 307.862 214.621 307.626 215.164 307.626C215.34 307.626 215.474 307.649 215.565 307.694V308.534ZM219.476 311.605C219.476 311.361 219.383 311.173 219.198 311.039C219.015 310.902 218.695 310.785 218.236 310.688C217.78 310.59 217.417 310.473 217.147 310.336C216.88 310.199 216.681 310.036 216.551 309.848C216.424 309.659 216.361 309.434 216.361 309.174C216.361 308.741 216.543 308.375 216.908 308.075C217.275 307.776 217.744 307.626 218.314 307.626C218.913 307.626 219.398 307.781 219.769 308.09C220.143 308.399 220.33 308.795 220.33 309.276H219.422C219.422 309.029 219.316 308.816 219.105 308.637C218.897 308.458 218.633 308.368 218.314 308.368C217.985 308.368 217.728 308.44 217.542 308.583C217.357 308.726 217.264 308.913 217.264 309.145C217.264 309.363 217.35 309.527 217.523 309.638C217.695 309.748 218.006 309.854 218.455 309.955C218.908 310.056 219.274 310.176 219.554 310.316C219.834 310.456 220.041 310.626 220.174 310.824C220.311 311.02 220.379 311.259 220.379 311.542C220.379 312.014 220.191 312.393 219.813 312.68C219.435 312.963 218.945 313.104 218.343 313.104C217.92 313.104 217.546 313.03 217.22 312.88C216.895 312.73 216.639 312.522 216.454 312.255C216.271 311.985 216.18 311.693 216.18 311.381H217.083C217.1 311.684 217.22 311.924 217.445 312.104C217.673 312.279 217.972 312.367 218.343 312.367C218.685 312.367 218.958 312.299 219.163 312.162C219.372 312.022 219.476 311.837 219.476 311.605ZM223.846 311.098C223.846 310.756 223.941 310.442 224.129 310.155C224.321 309.869 224.686 309.535 225.223 309.154C224.907 308.77 224.696 308.461 224.588 308.227C224.481 307.992 224.427 307.759 224.427 307.528C224.427 306.988 224.587 306.565 224.906 306.259C225.225 305.953 225.658 305.8 226.204 305.8C226.693 305.8 227.096 305.943 227.415 306.229C227.734 306.513 227.894 306.871 227.894 307.304C227.894 307.59 227.821 307.855 227.674 308.1C227.531 308.34 227.279 308.594 226.917 308.861L226.395 309.247L227.977 311.137C228.198 310.714 228.309 310.243 228.309 309.726H229.124C229.124 310.556 228.924 311.244 228.524 311.791L229.539 313.007H228.455L227.982 312.445C227.741 312.66 227.458 312.825 227.132 312.938C226.81 313.049 226.481 313.104 226.146 313.104C225.453 313.104 224.896 312.921 224.476 312.553C224.056 312.185 223.846 311.7 223.846 311.098ZM226.146 312.367C226.624 312.367 227.062 312.185 227.459 311.82L225.726 309.745L225.565 309.862C225.021 310.263 224.749 310.674 224.749 311.098C224.749 311.482 224.873 311.789 225.121 312.021C225.371 312.252 225.713 312.367 226.146 312.367ZM225.33 307.499C225.33 307.812 225.523 308.202 225.907 308.671L226.483 308.266C226.704 308.109 226.856 307.961 226.937 307.821C227.018 307.678 227.059 307.506 227.059 307.304C227.059 307.086 226.978 306.905 226.815 306.762C226.652 306.615 226.447 306.542 226.2 306.542C225.933 306.542 225.721 306.633 225.565 306.815C225.409 306.994 225.33 307.222 225.33 307.499ZM233.963 306.444V307.724H234.95V308.422H233.963V311.698C233.963 311.91 234.007 312.069 234.095 312.177C234.183 312.281 234.333 312.333 234.544 312.333C234.649 312.333 234.792 312.313 234.974 312.274V313.007C234.736 313.072 234.505 313.104 234.281 313.104C233.877 313.104 233.573 312.982 233.368 312.738C233.163 312.494 233.06 312.147 233.06 311.698V308.422H232.098V307.724H233.06V306.444H233.963ZM238.202 313.104C237.485 313.104 236.903 312.87 236.454 312.401C236.004 311.929 235.78 311.299 235.78 310.512V310.346C235.78 309.822 235.879 309.354 236.078 308.944C236.279 308.531 236.559 308.209 236.917 307.978C237.279 307.743 237.669 307.626 238.089 307.626C238.776 307.626 239.31 307.852 239.691 308.305C240.072 308.757 240.262 309.405 240.262 310.248V310.624H236.683C236.696 311.145 236.847 311.566 237.137 311.889C237.43 312.208 237.801 312.367 238.25 312.367C238.569 312.367 238.84 312.302 239.061 312.172C239.282 312.042 239.476 311.869 239.642 311.654L240.194 312.084C239.751 312.764 239.087 313.104 238.202 313.104ZM238.089 308.368C237.725 308.368 237.419 308.502 237.171 308.769C236.924 309.032 236.771 309.403 236.712 309.882H239.359V309.813C239.333 309.354 239.209 309 238.988 308.749C238.766 308.495 238.467 308.368 238.089 308.368ZM244.388 311.605C244.388 311.361 244.295 311.173 244.11 311.039C243.927 310.902 243.607 310.785 243.148 310.688C242.692 310.59 242.329 310.473 242.059 310.336C241.792 310.199 241.593 310.036 241.463 309.848C241.336 309.659 241.273 309.434 241.273 309.174C241.273 308.741 241.455 308.375 241.82 308.075C242.188 307.776 242.656 307.626 243.226 307.626C243.825 307.626 244.31 307.781 244.681 308.09C245.055 308.399 245.243 308.795 245.243 309.276H244.334C244.334 309.029 244.229 308.816 244.017 308.637C243.809 308.458 243.545 308.368 243.226 308.368C242.897 308.368 242.64 308.44 242.454 308.583C242.269 308.726 242.176 308.913 242.176 309.145C242.176 309.363 242.262 309.527 242.435 309.638C242.607 309.748 242.918 309.854 243.368 309.955C243.82 310.056 244.186 310.176 244.466 310.316C244.746 310.456 244.953 310.626 245.086 310.824C245.223 311.02 245.291 311.259 245.291 311.542C245.291 312.014 245.103 312.393 244.725 312.68C244.347 312.963 243.857 313.104 243.255 313.104C242.832 313.104 242.458 313.03 242.132 312.88C241.807 312.73 241.551 312.522 241.366 312.255C241.183 311.985 241.092 311.693 241.092 311.381H241.996C242.012 311.684 242.132 311.924 242.357 312.104C242.585 312.279 242.884 312.367 243.255 312.367C243.597 312.367 243.871 312.299 244.076 312.162C244.284 312.022 244.388 311.837 244.388 311.605ZM247.694 306.444V307.724H248.68V308.422H247.694V311.698C247.694 311.91 247.738 312.069 247.826 312.177C247.913 312.281 248.063 312.333 248.275 312.333C248.379 312.333 248.522 312.313 248.704 312.274V313.007C248.467 313.072 248.236 313.104 248.011 313.104C247.607 313.104 247.303 312.982 247.098 312.738C246.893 312.494 246.79 312.147 246.79 311.698V308.422H245.829V307.724H246.79V306.444H247.694ZM251.932 313.104C251.216 313.104 250.633 312.87 250.184 312.401C249.735 311.929 249.51 311.299 249.51 310.512V310.346C249.51 309.822 249.609 309.354 249.808 308.944C250.01 308.531 250.29 308.209 250.648 307.978C251.009 307.743 251.4 307.626 251.82 307.626C252.507 307.626 253.04 307.852 253.421 308.305C253.802 308.757 253.993 309.405 253.993 310.248V310.624H250.413C250.427 311.145 250.578 311.566 250.868 311.889C251.161 312.208 251.532 312.367 251.981 312.367C252.3 312.367 252.57 312.302 252.791 312.172C253.013 312.042 253.206 311.869 253.372 311.654L253.924 312.084C253.482 312.764 252.817 313.104 251.932 313.104ZM251.82 308.368C251.455 308.368 251.149 308.502 250.902 308.769C250.654 309.032 250.501 309.403 250.443 309.882H253.089V309.813C253.063 309.354 252.94 309 252.718 308.749C252.497 308.495 252.197 308.368 251.82 308.368ZM257.596 308.534C257.459 308.511 257.311 308.5 257.152 308.5C256.559 308.5 256.157 308.752 255.946 309.257V313.007H255.042V307.724H255.921L255.936 308.334C256.232 307.862 256.652 307.626 257.196 307.626C257.371 307.626 257.505 307.649 257.596 307.694V308.534ZM261.507 311.605C261.507 311.361 261.414 311.173 261.229 311.039C261.047 310.902 260.726 310.785 260.267 310.688C259.811 310.59 259.448 310.473 259.178 310.336C258.911 310.199 258.713 310.036 258.582 309.848C258.455 309.659 258.392 309.434 258.392 309.174C258.392 308.741 258.574 308.375 258.939 308.075C259.307 307.776 259.775 307.626 260.345 307.626C260.944 307.626 261.429 307.781 261.8 308.09C262.175 308.399 262.362 308.795 262.362 309.276H261.454C261.454 309.029 261.348 308.816 261.136 308.637C260.928 308.458 260.664 308.368 260.345 308.368C260.016 308.368 259.759 308.44 259.574 308.583C259.388 308.726 259.295 308.913 259.295 309.145C259.295 309.363 259.382 309.527 259.554 309.638C259.727 309.748 260.038 309.854 260.487 309.955C260.939 310.056 261.305 310.176 261.585 310.316C261.865 310.456 262.072 310.626 262.205 310.824C262.342 311.02 262.411 311.259 262.411 311.542C262.411 312.014 262.222 312.393 261.844 312.68C261.467 312.963 260.977 313.104 260.374 313.104C259.951 313.104 259.577 313.03 259.251 312.88C258.926 312.73 258.67 312.522 258.485 312.255C258.302 311.985 258.211 311.693 258.211 311.381H259.115C259.131 311.684 259.251 311.924 259.476 312.104C259.704 312.279 260.003 312.367 260.374 312.367C260.716 312.367 260.99 312.299 261.195 312.162C261.403 312.022 261.507 311.837 261.507 311.605Z" fill="#1F2432"/>
<path d="M192.487 298.26C213.299 298.26 230.264 281.41 230.264 260.544C230.264 239.765 213.387 222.827 192.487 222.827C171.587 222.827 154.71 239.677 154.71 260.544C154.797 281.41 171.675 298.26 192.487 298.26Z" fill="#1F2432"/>
<path d="M192.575 243.344L192.487 243.431L174.823 252.511V254.868H192.487H192.575H210.239V252.511L192.575 243.344Z" stroke="#00DCE6" stroke-miterlimit="10"/>
<path d="M181.032 256.614V271.107" stroke="#00DCE6" stroke-miterlimit="10"/>
<path d="M188.465 256.614V271.107" stroke="#00DCE6" stroke-miterlimit="10"/>
<path d="M210.239 273.203H174.823" stroke="#00DCE6" stroke-miterlimit="10"/>
<path d="M210.239 278.092H174.823" stroke="#00DCE6" stroke-miterlimit="10"/>
<path d="M196.51 256.614V271.107" stroke="#00DCE6" stroke-miterlimit="10"/>
<path d="M203.943 256.614V271.107" stroke="#00DCE6" stroke-miterlimit="10"/>
<path d="M176.597 85.7578H174.312V92.0957H173.379V85.7578H171.099V84.9863H176.597V85.7578ZM179.214 92.1934C178.498 92.1934 177.915 91.959 177.466 91.4902C177.017 91.0182 176.792 90.3883 176.792 89.6006V89.4346C176.792 88.9105 176.891 88.4434 177.09 88.0332C177.292 87.6198 177.572 87.2975 177.93 87.0664C178.291 86.832 178.682 86.7148 179.102 86.7148C179.788 86.7148 180.322 86.9411 180.703 87.3936C181.084 87.846 181.274 88.4938 181.274 89.3369V89.7129H177.695C177.708 90.2337 177.86 90.6553 178.149 90.9775C178.442 91.2965 178.813 91.4561 179.263 91.4561C179.582 91.4561 179.852 91.391 180.073 91.2607C180.295 91.1305 180.488 90.958 180.654 90.7432L181.206 91.1729C180.763 91.8532 180.099 92.1934 179.214 92.1934ZM179.102 87.457C178.737 87.457 178.431 87.5905 178.184 87.8574C177.936 88.1211 177.783 88.4922 177.725 88.9707H180.371V88.9023C180.345 88.4434 180.221 88.0885 180 87.8379C179.779 87.584 179.479 87.457 179.102 87.457ZM185.586 92.0957C185.534 91.9915 185.492 91.806 185.459 91.5391C185.039 91.9753 184.538 92.1934 183.955 92.1934C183.434 92.1934 183.006 92.0469 182.671 91.7539C182.339 91.4577 182.173 91.0833 182.173 90.6309C182.173 90.0807 182.381 89.6543 182.798 89.3516C183.218 89.0456 183.807 88.8926 184.565 88.8926H185.444V88.4775C185.444 88.1618 185.35 87.9111 185.161 87.7256C184.972 87.5368 184.694 87.4424 184.326 87.4424C184.004 87.4424 183.734 87.5238 183.516 87.6865C183.298 87.8493 183.188 88.0462 183.188 88.2773H182.28C182.28 88.0137 182.373 87.7598 182.559 87.5156C182.747 87.2682 183.001 87.0729 183.32 86.9297C183.643 86.7865 183.996 86.7148 184.38 86.7148C184.989 86.7148 185.465 86.8678 185.811 87.1738C186.156 87.4766 186.335 87.8949 186.348 88.4287V90.8604C186.348 91.3454 186.41 91.7311 186.533 92.0176V92.0957H185.586ZM184.087 91.4072C184.37 91.4072 184.639 91.334 184.893 91.1875C185.146 91.041 185.33 90.8506 185.444 90.6162V89.5322H184.736C183.63 89.5322 183.076 89.8561 183.076 90.5039C183.076 90.7871 183.171 91.0085 183.359 91.168C183.548 91.3275 183.791 91.4072 184.087 91.4072ZM189.883 91.4561C190.205 91.4561 190.487 91.3584 190.728 91.1631C190.968 90.9678 191.102 90.7236 191.128 90.4307H191.982C191.966 90.7334 191.862 91.0215 191.67 91.2949C191.478 91.5684 191.221 91.7865 190.898 91.9492C190.579 92.112 190.241 92.1934 189.883 92.1934C189.163 92.1934 188.59 91.9541 188.164 91.4756C187.741 90.9938 187.529 90.3363 187.529 89.5029V89.3516C187.529 88.8372 187.624 88.3799 187.812 87.9795C188.001 87.5791 188.271 87.2682 188.623 87.0469C188.978 86.8255 189.396 86.7148 189.878 86.7148C190.47 86.7148 190.962 86.8923 191.353 87.2471C191.746 87.6019 191.956 88.0625 191.982 88.6289H191.128C191.102 88.2871 190.972 88.0072 190.737 87.7891C190.506 87.5677 190.22 87.457 189.878 87.457C189.419 87.457 189.062 87.623 188.809 87.9551C188.558 88.2839 188.433 88.7607 188.433 89.3857V89.5566C188.433 90.1654 188.558 90.6341 188.809 90.9629C189.059 91.2917 189.417 91.4561 189.883 91.4561ZM193.901 87.4521C194.302 86.9606 194.823 86.7148 195.464 86.7148C196.58 86.7148 197.144 87.3447 197.153 88.6045V92.0957H196.25V88.5996C196.247 88.2188 196.159 87.9372 195.986 87.7549C195.817 87.5726 195.552 87.4814 195.19 87.4814C194.897 87.4814 194.64 87.5596 194.419 87.7158C194.198 87.8721 194.025 88.0771 193.901 88.3311V92.0957H192.998V84.5957H193.901V87.4521ZM200.698 92.1934C199.982 92.1934 199.399 91.959 198.95 91.4902C198.501 91.0182 198.276 90.3883 198.276 89.6006V89.4346C198.276 88.9105 198.376 88.4434 198.574 88.0332C198.776 87.6198 199.056 87.2975 199.414 87.0664C199.775 86.832 200.166 86.7148 200.586 86.7148C201.273 86.7148 201.807 86.9411 202.188 87.3936C202.568 87.846 202.759 88.4938 202.759 89.3369V89.7129H199.18C199.193 90.2337 199.344 90.6553 199.634 90.9775C199.927 91.2965 200.298 91.4561 200.747 91.4561C201.066 91.4561 201.336 91.391 201.558 91.2607C201.779 91.1305 201.973 90.958 202.139 90.7432L202.69 91.1729C202.248 91.8532 201.584 92.1934 200.698 92.1934ZM200.586 87.457C200.221 87.457 199.915 87.5905 199.668 87.8574C199.421 88.1211 199.268 88.4922 199.209 88.9707H201.855V88.9023C201.829 88.4434 201.706 88.0885 201.484 87.8379C201.263 87.584 200.964 87.457 200.586 87.457ZM206.362 87.623C206.226 87.6003 206.077 87.5889 205.918 87.5889C205.326 87.5889 204.924 87.8411 204.712 88.3457V92.0957H203.809V86.8125H204.688L204.702 87.4229C204.998 86.9508 205.418 86.7148 205.962 86.7148C206.138 86.7148 206.271 86.7376 206.362 86.7832V87.623ZM210.273 90.6943C210.273 90.4502 210.181 90.2614 209.995 90.1279C209.813 89.9912 209.492 89.874 209.033 89.7764C208.577 89.6787 208.215 89.5615 207.944 89.4248C207.677 89.2881 207.479 89.1253 207.349 88.9365C207.222 88.7477 207.158 88.5231 207.158 88.2627C207.158 87.8298 207.34 87.4635 207.705 87.1641C208.073 86.8646 208.542 86.7148 209.111 86.7148C209.71 86.7148 210.195 86.8695 210.566 87.1787C210.941 87.488 211.128 87.8835 211.128 88.3652H210.22C210.22 88.1178 210.114 87.9046 209.902 87.7256C209.694 87.5465 209.43 87.457 209.111 87.457C208.783 87.457 208.525 87.5286 208.34 87.6719C208.154 87.8151 208.062 88.0023 208.062 88.2334C208.062 88.4515 208.148 88.6159 208.32 88.7266C208.493 88.8372 208.804 88.943 209.253 89.0439C209.705 89.1449 210.072 89.2653 210.352 89.4053C210.632 89.5452 210.838 89.7145 210.972 89.9131C211.108 90.1084 211.177 90.3477 211.177 90.6309C211.177 91.1029 210.988 91.4821 210.61 91.7686C210.233 92.0518 209.743 92.1934 209.141 92.1934C208.717 92.1934 208.343 92.1185 208.018 91.9688C207.692 91.819 207.437 91.6107 207.251 91.3438C207.069 91.0736 206.978 90.7822 206.978 90.4697H207.881C207.897 90.7725 208.018 91.0133 208.242 91.1924C208.47 91.3682 208.77 91.4561 209.141 91.4561C209.482 91.4561 209.756 91.3877 209.961 91.251C210.169 91.111 210.273 90.9255 210.273 90.6943Z" fill="#1F2432"/>
<path d="M192.486 75.3458C213.299 75.3458 230.263 58.4956 230.263 37.6292C230.263 16.7629 213.386 0 192.486 0C171.587 0 154.797 16.8502 154.797 37.6292C154.797 58.4083 171.674 75.3458 192.486 75.3458Z" fill="#1F2432"/>
<path d="M203.417 52.2109L199.569 46.4487L206.303 42.0834L208.839 46.0122C208.751 46.2741 207.877 46.7979 207.527 47.1472C207.002 46.8852 206.215 46.9725 206.041 46.9725C205.778 46.9725 205.079 48.0202 204.991 48.1948C204.904 48.1948 204.029 48.806 204.029 49.0679C204.117 50.2029 204.991 51.2506 205.603 50.9887C207.265 50.4648 210.413 48.806 211.987 47.0598C212.774 46.1868 212.949 45.1391 212.162 44.1787L208.576 38.3292C207.527 36.8449 203.942 36.1465 202.193 36.1465C200.531 36.1465 196.771 37.0196 195.722 38.3292C194.76 39.5515 192.749 42.3453 191.962 43.0437L189.6 41.7341C189.251 41.0357 189.775 40.7738 189.688 40.1626C189.688 39.9007 187.764 38.2419 187.502 38.2419C186.278 37.9799 185.141 40.1626 185.578 41.0357C185.928 41.7341 186.452 42.4326 186.715 42.6945C190.825 47.5837 190.912 48.0202 192.311 48.1075C193.711 48.1948 196.334 45.5756 196.684 44.9645V52.6475" fill="#1F2432"/>
<path d="M203.417 52.2109L199.569 46.4487L206.303 42.0834L208.839 46.0122C208.751 46.2741 207.877 46.7979 207.527 47.1472C207.002 46.8852 206.215 46.9725 206.041 46.9725C205.778 46.9725 205.079 48.0202 204.991 48.1948C204.904 48.1948 204.029 48.806 204.029 49.0679C204.117 50.2029 204.991 51.2506 205.603 50.9887C207.265 50.4648 210.413 48.806 211.987 47.0598C212.774 46.1868 212.949 45.1391 212.162 44.1787L208.576 38.3292C207.527 36.8449 203.942 36.1465 202.193 36.1465C200.531 36.1465 196.771 37.0196 195.722 38.3292C194.76 39.5515 192.749 42.3453 191.962 43.0437L189.6 41.7341C189.251 41.0357 189.775 40.7738 189.688 40.1626C189.688 39.9007 187.764 38.2419 187.502 38.2419C186.278 37.9799 185.141 40.1626 185.578 41.0357C185.928 41.7341 186.452 42.4326 186.715 42.6945C190.825 47.5837 190.912 48.0202 192.311 48.1075C193.711 48.1948 196.334 45.5756 196.684 44.9645V52.6475" stroke="#00DCE6" stroke-miterlimit="10"/>
<path d="M202.542 25.582C204.466 25.582 206.128 26.717 206.128 30.0347C206.128 33.265 204.554 34.4873 202.542 34.4873C200.619 34.4873 198.957 33.3523 198.957 30.0347C198.957 26.717 200.531 25.582 202.542 25.582Z" fill="#1F2432" stroke="#00DCE6" stroke-miterlimit="10"/>
<path d="M187.152 27.9404V38.5919" stroke="#00DCE6" stroke-miterlimit="10"/>
<path d="M196.596 50.988H172.461V20.4307H211.812V43.8289" stroke="#00DCE6" stroke-miterlimit="10"/>
<path d="M482.474 88.8096H479.393V91.3291H482.972V92.0957H478.455V84.9863H482.923V85.7578H479.393V88.043H482.474V88.8096ZM484.847 86.8125L484.871 87.3984C485.258 86.9427 485.781 86.7148 486.438 86.7148C487.177 86.7148 487.68 86.998 487.947 87.5645C488.123 87.3105 488.351 87.1055 488.631 86.9492C488.914 86.793 489.248 86.7148 489.632 86.7148C490.791 86.7148 491.38 87.3285 491.399 88.5557V92.0957H490.496V88.6094C490.496 88.2318 490.41 87.9502 490.237 87.7646C490.065 87.5758 489.775 87.4814 489.368 87.4814C489.033 87.4814 488.755 87.5824 488.533 87.7842C488.312 87.9827 488.183 88.2513 488.147 88.5898V92.0957H487.239V88.6338C487.239 87.8656 486.863 87.4814 486.111 87.4814C485.519 87.4814 485.114 87.7337 484.896 88.2383V92.0957H483.992V86.8125H484.847ZM497.229 89.5127C497.229 90.3167 497.046 90.9645 496.678 91.4561C496.31 91.9476 495.812 92.1934 495.184 92.1934C494.542 92.1934 494.038 91.9899 493.67 91.583V94.127H492.767V86.8125H493.592L493.636 87.3984C494.004 86.9427 494.515 86.7148 495.169 86.7148C495.804 86.7148 496.305 86.9541 496.673 87.4326C497.044 87.9111 497.229 88.5768 497.229 89.4297V89.5127ZM496.326 89.4102C496.326 88.8145 496.199 88.3441 495.945 87.999C495.691 87.654 495.343 87.4814 494.9 87.4814C494.354 87.4814 493.943 87.724 493.67 88.209V90.7334C493.94 91.2152 494.354 91.4561 494.91 91.4561C495.343 91.4561 495.687 91.2852 495.94 90.9434C496.198 90.5983 496.326 90.0872 496.326 89.4102ZM499.363 92.0957H498.46V84.5957H499.363V92.0957ZM500.574 89.4053C500.574 88.8877 500.675 88.4222 500.877 88.0088C501.082 87.5954 501.365 87.2764 501.727 87.0518C502.091 86.8271 502.506 86.7148 502.972 86.7148C503.691 86.7148 504.272 86.9639 504.715 87.4619C505.161 87.96 505.384 88.6224 505.384 89.4492V89.5127C505.384 90.027 505.285 90.4893 505.086 90.8994C504.891 91.3063 504.609 91.6237 504.241 91.8516C503.877 92.0794 503.457 92.1934 502.981 92.1934C502.265 92.1934 501.684 91.9443 501.238 91.4463C500.796 90.9482 500.574 90.2891 500.574 89.4688V89.4053ZM501.482 89.5127C501.482 90.0986 501.618 90.569 501.888 90.9238C502.161 91.2786 502.526 91.4561 502.981 91.4561C503.44 91.4561 503.805 91.277 504.075 90.9189C504.345 90.5576 504.48 90.0531 504.48 89.4053C504.48 88.8258 504.342 88.3571 504.065 87.999C503.792 87.6377 503.427 87.457 502.972 87.457C502.526 87.457 502.166 87.6344 501.893 87.9893C501.619 88.3441 501.482 88.8519 501.482 89.5127ZM508.167 90.7725L509.397 86.8125H510.364L508.24 92.9111C507.911 93.79 507.389 94.2295 506.673 94.2295L506.502 94.2148L506.165 94.1514V93.4189L506.409 93.4385C506.715 93.4385 506.953 93.3766 507.122 93.2529C507.295 93.1292 507.436 92.903 507.547 92.5742L507.747 92.0371L505.862 86.8125H506.849L508.167 90.7725ZM513.299 92.1934C512.583 92.1934 512 91.959 511.551 91.4902C511.102 91.0182 510.877 90.3883 510.877 89.6006V89.4346C510.877 88.9105 510.976 88.4434 511.175 88.0332C511.377 87.6198 511.657 87.2975 512.015 87.0664C512.376 86.832 512.767 86.7148 513.187 86.7148C513.873 86.7148 514.407 86.9411 514.788 87.3936C515.169 87.846 515.359 88.4938 515.359 89.3369V89.7129H511.78C511.793 90.2337 511.945 90.6553 512.234 90.9775C512.527 91.2965 512.898 91.4561 513.348 91.4561C513.667 91.4561 513.937 91.391 514.158 91.2607C514.38 91.1305 514.573 90.958 514.739 90.7432L515.291 91.1729C514.848 91.8532 514.184 92.1934 513.299 92.1934ZM513.187 87.457C512.822 87.457 512.516 87.5905 512.269 87.8574C512.021 88.1211 511.868 88.4922 511.81 88.9707H514.456V88.9023C514.43 88.4434 514.306 88.0885 514.085 87.8379C513.864 87.584 513.564 87.457 513.187 87.457ZM518.963 87.623C518.826 87.6003 518.678 87.5889 518.519 87.5889C517.926 87.5889 517.524 87.8411 517.312 88.3457V92.0957H516.409V86.8125H517.288L517.303 87.4229C517.599 86.9508 518.019 86.7148 518.562 86.7148C518.738 86.7148 518.872 86.7376 518.963 86.7832V87.623ZM522.874 90.6943C522.874 90.4502 522.781 90.2614 522.596 90.1279C522.413 89.9912 522.093 89.874 521.634 89.7764C521.178 89.6787 520.815 89.5615 520.545 89.4248C520.278 89.2881 520.079 89.1253 519.949 88.9365C519.822 88.7477 519.759 88.5231 519.759 88.2627C519.759 87.8298 519.941 87.4635 520.306 87.1641C520.674 86.8646 521.142 86.7148 521.712 86.7148C522.311 86.7148 522.796 86.8695 523.167 87.1787C523.541 87.488 523.729 87.8835 523.729 88.3652H522.82C522.82 88.1178 522.715 87.9046 522.503 87.7256C522.295 87.5465 522.031 87.457 521.712 87.457C521.383 87.457 521.126 87.5286 520.94 87.6719C520.755 87.8151 520.662 88.0023 520.662 88.2334C520.662 88.4515 520.748 88.6159 520.921 88.7266C521.093 88.8372 521.404 88.943 521.854 89.0439C522.306 89.1449 522.672 89.2653 522.952 89.4053C523.232 89.5452 523.439 89.7145 523.572 89.9131C523.709 90.1084 523.777 90.3477 523.777 90.6309C523.777 91.1029 523.589 91.4821 523.211 91.7686C522.833 92.0518 522.343 92.1934 521.741 92.1934C521.318 92.1934 520.944 92.1185 520.618 91.9688C520.293 91.819 520.037 91.6107 519.852 91.3438C519.669 91.0736 519.578 90.7822 519.578 90.4697H520.481C520.498 90.7725 520.618 91.0133 520.843 91.1924C521.071 91.3682 521.37 91.4561 521.741 91.4561C522.083 91.4561 522.356 91.3877 522.562 91.251C522.77 91.111 522.874 90.9255 522.874 90.6943Z" fill="#1F2432"/>
<path d="M502.223 75.3458C523.036 75.3458 540 58.4956 540 37.6292C540 16.7629 523.123 0 502.223 0C481.411 0 464.446 16.8502 464.446 37.7165C464.446 58.5829 481.411 75.3458 502.223 75.3458Z" fill="#1F2432"/>
<path d="M518.488 42.0823V35.8835C518.488 33.0897 516.564 32.042 514.64 32.042H508.432C506.42 32.042 504.584 33.177 504.584 35.8835V42.0823" fill="#1F2432"/>
<path d="M518.488 42.0823V35.8835C518.488 33.0897 516.564 32.042 514.64 32.042H508.432C506.42 32.042 504.584 33.177 504.584 35.8835V42.0823" stroke="#00DCE6" stroke-miterlimit="10" stroke-linejoin="round"/>
<path d="M515.428 41.2968V35.8838" stroke="#00DCE6" stroke-miterlimit="10" stroke-linejoin="round"/>
<path d="M507.646 35.8838V41.2968" stroke="#00DCE6" stroke-miterlimit="10" stroke-linejoin="round"/>
<path d="M483.685 42.083H487.533" stroke="#00DCE6" stroke-miterlimit="10" stroke-linejoin="round"/>
<path d="M501.523 42.083H520.849" stroke="#00DCE6" stroke-miterlimit="10" stroke-linejoin="round"/>
<path d="M511.581 28.8988C513.417 28.8988 514.642 27.6765 514.642 25.8431V24.2716C514.642 22.4381 513.33 21.2158 511.581 21.2158C509.744 21.2158 508.52 22.4381 508.52 24.2716V25.8431C508.432 27.6765 509.744 28.8988 511.581 28.8988Z" fill="#1F2432" stroke="#00DCE6" stroke-miterlimit="10" stroke-linejoin="round"/>
<path d="M498.377 45.1386C500.038 44.8767 501.437 44.4402 501.437 42.0829V35.0983C501.437 32.3045 499.513 31.2568 497.59 31.2568H491.381C489.37 31.2568 487.533 32.3918 487.533 35.0983V42.0829C487.533 44.4402 488.932 44.8767 490.594 45.1386" fill="#1F2432"/>
<path d="M498.377 45.1386C500.038 44.8767 501.437 44.4402 501.437 42.0829V35.0983C501.437 32.3045 499.513 31.2568 497.59 31.2568H491.381C489.37 31.2568 487.533 32.3918 487.533 35.0983V42.0829C487.533 44.4402 488.932 44.8767 490.594 45.1386" stroke="#00DCE6" stroke-miterlimit="10" stroke-linejoin="round"/>
<path d="M498.463 35.0986H490.681V48.282H498.463V35.0986Z" fill="#1F2432" stroke="#00DCE6" stroke-miterlimit="10" stroke-linejoin="round"/>
<path d="M494.528 28.1137C496.365 28.1137 497.589 26.8914 497.589 25.0579V23.4864C497.589 21.653 496.277 20.4307 494.528 20.4307C492.691 20.4307 491.467 21.653 491.467 23.4864V25.0579C491.38 26.8914 492.691 28.1137 494.528 28.1137Z" fill="#1F2432" stroke="#00DCE6" stroke-miterlimit="10" stroke-linejoin="round"/>
<path d="M519.275 43.5674V54.3934" stroke="#00DCE6" stroke-miterlimit="10" stroke-linejoin="round"/>
<path d="M485.259 43.5674V54.3934" stroke="#00DCE6" stroke-miterlimit="10" stroke-linejoin="round"/>
<path d="M494.528 48.2812V53.6943" stroke="#00DCE6" stroke-miterlimit="10" stroke-linejoin="round"/>
<path d="M489.894 53.6943H499.163" stroke="#00DCE6" stroke-miterlimit="10" stroke-linejoin="round"/>
<path d="M289.997 90.2402H287.018L286.349 92.0957H285.382L288.097 84.9863H288.917L291.637 92.0957H290.675L289.997 90.2402ZM287.301 89.4688H289.718L288.507 86.1436L287.301 89.4688ZM294.572 91.4561C294.894 91.4561 295.176 91.3584 295.416 91.1631C295.657 90.9678 295.791 90.7236 295.817 90.4307H296.671C296.655 90.7334 296.551 91.0215 296.359 91.2949C296.167 91.5684 295.91 91.7865 295.587 91.9492C295.268 92.112 294.93 92.1934 294.572 92.1934C293.852 92.1934 293.279 91.9541 292.853 91.4756C292.43 90.9938 292.218 90.3363 292.218 89.5029V89.3516C292.218 88.8372 292.313 88.3799 292.501 87.9795C292.69 87.5791 292.96 87.2682 293.312 87.0469C293.667 86.8255 294.085 86.7148 294.567 86.7148C295.159 86.7148 295.651 86.8923 296.041 87.2471C296.435 87.6019 296.645 88.0625 296.671 88.6289H295.817C295.791 88.2871 295.661 88.0072 295.426 87.7891C295.195 87.5677 294.909 87.457 294.567 87.457C294.108 87.457 293.751 87.623 293.497 87.9551C293.247 88.2839 293.122 88.7607 293.122 89.3857V89.5566C293.122 90.1654 293.247 90.6341 293.497 90.9629C293.748 91.2917 294.106 91.4561 294.572 91.4561ZM299.806 91.4561C300.128 91.4561 300.41 91.3584 300.651 91.1631C300.892 90.9678 301.025 90.7236 301.051 90.4307H301.906C301.889 90.7334 301.785 91.0215 301.593 91.2949C301.401 91.5684 301.144 91.7865 300.822 91.9492C300.503 92.112 300.164 92.1934 299.806 92.1934C299.087 92.1934 298.514 91.9541 298.087 91.4756C297.664 90.9938 297.453 90.3363 297.453 89.5029V89.3516C297.453 88.8372 297.547 88.3799 297.736 87.9795C297.925 87.5791 298.195 87.2682 298.546 87.0469C298.901 86.8255 299.319 86.7148 299.801 86.7148C300.394 86.7148 300.885 86.8923 301.276 87.2471C301.67 87.6019 301.88 88.0625 301.906 88.6289H301.051C301.025 88.2871 300.895 88.0072 300.661 87.7891C300.429 87.5677 300.143 87.457 299.801 87.457C299.342 87.457 298.986 87.623 298.732 87.9551C298.481 88.2839 298.356 88.7607 298.356 89.3857V89.5566C298.356 90.1654 298.481 90.6341 298.732 90.9629C298.983 91.2917 299.341 91.4561 299.806 91.4561ZM305.475 87.623C305.338 87.6003 305.19 87.5889 305.031 87.5889C304.438 87.5889 304.036 87.8411 303.825 88.3457V92.0957H302.921V86.8125H303.8L303.815 87.4229C304.111 86.9508 304.531 86.7148 305.075 86.7148C305.25 86.7148 305.384 86.7376 305.475 86.7832V87.623ZM308.405 92.1934C307.689 92.1934 307.106 91.959 306.657 91.4902C306.207 91.0182 305.983 90.3883 305.983 89.6006V89.4346C305.983 88.9105 306.082 88.4434 306.281 88.0332C306.483 87.6198 306.762 87.2975 307.121 87.0664C307.482 86.832 307.872 86.7148 308.292 86.7148C308.979 86.7148 309.513 86.9411 309.894 87.3936C310.275 87.846 310.465 88.4938 310.465 89.3369V89.7129H306.886C306.899 90.2337 307.051 90.6553 307.34 90.9775C307.633 91.2965 308.004 91.4561 308.454 91.4561C308.773 91.4561 309.043 91.391 309.264 91.2607C309.485 91.1305 309.679 90.958 309.845 90.7432L310.397 91.1729C309.954 91.8532 309.29 92.1934 308.405 92.1934ZM308.292 87.457C307.928 87.457 307.622 87.5905 307.374 87.8574C307.127 88.1211 306.974 88.4922 306.915 88.9707H309.562V88.9023C309.536 88.4434 309.412 88.0885 309.191 87.8379C308.969 87.584 308.67 87.457 308.292 87.457ZM311.295 89.4102C311.295 88.5996 311.487 87.9486 311.872 87.457C312.256 86.9622 312.759 86.7148 313.38 86.7148C313.999 86.7148 314.489 86.9264 314.85 87.3496V84.5957H315.753V92.0957H314.923L314.879 91.5293C314.518 91.972 314.015 92.1934 313.371 92.1934C312.759 92.1934 312.259 91.9427 311.872 91.4414C311.487 90.9401 311.295 90.2858 311.295 89.4785V89.4102ZM312.199 89.5127C312.199 90.1117 312.322 90.5804 312.57 90.9189C312.817 91.2575 313.159 91.4268 313.595 91.4268C314.168 91.4268 314.586 91.1696 314.85 90.6553V88.2285C314.58 87.7305 314.165 87.4814 313.605 87.4814C313.162 87.4814 312.817 87.6523 312.57 87.9941C312.322 88.3359 312.199 88.8421 312.199 89.5127ZM318.141 92.0957H317.238V86.8125H318.141V92.0957ZM317.164 85.4111C317.164 85.2646 317.208 85.141 317.296 85.04C317.387 84.9391 317.521 84.8887 317.697 84.8887C317.872 84.8887 318.006 84.9391 318.097 85.04C318.188 85.141 318.234 85.2646 318.234 85.4111C318.234 85.5576 318.188 85.6797 318.097 85.7773C318.006 85.875 317.872 85.9238 317.697 85.9238C317.521 85.9238 317.387 85.875 317.296 85.7773C317.208 85.6797 317.164 85.5576 317.164 85.4111ZM320.817 85.5332V86.8125H321.803V87.5107H320.817V90.7871C320.817 90.9987 320.861 91.1582 320.949 91.2656C321.037 91.3698 321.186 91.4219 321.398 91.4219C321.502 91.4219 321.645 91.4023 321.828 91.3633V92.0957C321.59 92.1608 321.359 92.1934 321.134 92.1934C320.731 92.1934 320.426 92.0713 320.221 91.8271C320.016 91.583 319.913 91.2363 319.913 90.7871V87.5107H318.952V86.8125H319.913V85.5332H320.817ZM322.526 89.4053C322.526 88.8877 322.627 88.4222 322.829 88.0088C323.034 87.5954 323.317 87.2764 323.678 87.0518C324.043 86.8271 324.458 86.7148 324.923 86.7148C325.643 86.7148 326.224 86.9639 326.666 87.4619C327.112 87.96 327.335 88.6224 327.335 89.4492V89.5127C327.335 90.027 327.236 90.4893 327.038 90.8994C326.842 91.3063 326.561 91.6237 326.193 91.8516C325.828 92.0794 325.408 92.1934 324.933 92.1934C324.217 92.1934 323.636 91.9443 323.19 91.4463C322.747 90.9482 322.526 90.2891 322.526 89.4688V89.4053ZM323.434 89.5127C323.434 90.0986 323.569 90.569 323.839 90.9238C324.113 91.2786 324.477 91.4561 324.933 91.4561C325.392 91.4561 325.757 91.277 326.027 90.9189C326.297 90.5576 326.432 90.0531 326.432 89.4053C326.432 88.8258 326.294 88.3571 326.017 87.999C325.744 87.6377 325.379 87.457 324.923 87.457C324.477 87.457 324.118 87.6344 323.844 87.9893C323.571 88.3441 323.434 88.8519 323.434 89.5127ZM331.022 87.623C330.885 87.6003 330.737 87.5889 330.578 87.5889C329.985 87.5889 329.583 87.8411 329.372 88.3457V92.0957H328.468V86.8125H329.347L329.362 87.4229C329.658 86.9508 330.078 86.7148 330.622 86.7148C330.797 86.7148 330.931 86.7376 331.022 86.7832V87.623ZM334.933 90.6943C334.933 90.4502 334.84 90.2614 334.655 90.1279C334.472 89.9912 334.152 89.874 333.693 89.7764C333.237 89.6787 332.874 89.5615 332.604 89.4248C332.337 89.2881 332.138 89.1253 332.008 88.9365C331.881 88.7477 331.818 88.5231 331.818 88.2627C331.818 87.8298 332 87.4635 332.365 87.1641C332.733 86.8646 333.201 86.7148 333.771 86.7148C334.37 86.7148 334.855 86.8695 335.226 87.1787C335.6 87.488 335.788 87.8835 335.788 88.3652H334.879C334.879 88.1178 334.774 87.9046 334.562 87.7256C334.354 87.5465 334.09 87.457 333.771 87.457C333.442 87.457 333.185 87.5286 332.999 87.6719C332.814 87.8151 332.721 88.0023 332.721 88.2334C332.721 88.4515 332.807 88.6159 332.98 88.7266C333.152 88.8372 333.463 88.943 333.913 89.0439C334.365 89.1449 334.731 89.2653 335.011 89.4053C335.291 89.5452 335.498 89.7145 335.631 89.9131C335.768 90.1084 335.836 90.3477 335.836 90.6309C335.836 91.1029 335.648 91.4821 335.27 91.7686C334.892 92.0518 334.402 92.1934 333.8 92.1934C333.377 92.1934 333.003 92.1185 332.677 91.9688C332.352 91.819 332.096 91.6107 331.911 91.3438C331.728 91.0736 331.637 90.7822 331.637 90.4697H332.54C332.557 90.7725 332.677 91.0133 332.902 91.1924C333.13 91.3682 333.429 91.4561 333.8 91.4561C334.142 91.4561 334.415 91.3877 334.621 91.251C334.829 91.111 334.933 90.9255 334.933 90.6943ZM336.984 93.5117L336.471 93.1602C336.777 92.7337 336.937 92.2943 336.95 91.8418V91.0264H337.833V91.7344C337.833 92.0632 337.752 92.3919 337.589 92.7207C337.43 93.0495 337.228 93.3132 336.984 93.5117ZM343.2 90.8701L344.508 86.8125H345.431L343.537 92.0957H342.848L340.934 86.8125H341.857L343.2 90.8701ZM349.484 92.0957C349.432 91.9915 349.389 91.806 349.357 91.5391C348.937 91.9753 348.436 92.1934 347.853 92.1934C347.332 92.1934 346.904 92.0469 346.569 91.7539C346.237 91.4577 346.071 91.0833 346.071 90.6309C346.071 90.0807 346.279 89.6543 346.696 89.3516C347.116 89.0456 347.705 88.8926 348.463 88.8926H349.342V88.4775C349.342 88.1618 349.248 87.9111 349.059 87.7256C348.87 87.5368 348.592 87.4424 348.224 87.4424C347.902 87.4424 347.632 87.5238 347.413 87.6865C347.195 87.8493 347.086 88.0462 347.086 88.2773H346.178C346.178 88.0137 346.271 87.7598 346.456 87.5156C346.645 87.2682 346.899 87.0729 347.218 86.9297C347.54 86.7865 347.894 86.7148 348.278 86.7148C348.886 86.7148 349.363 86.8678 349.708 87.1738C350.053 87.4766 350.233 87.8949 350.246 88.4287V90.8604C350.246 91.3454 350.307 91.7311 350.431 92.0176V92.0957H349.484ZM347.985 91.4072C348.268 91.4072 348.537 91.334 348.79 91.1875C349.044 91.041 349.228 90.8506 349.342 90.6162V89.5322H348.634C347.527 89.5322 346.974 89.8561 346.974 90.5039C346.974 90.7871 347.068 91.0085 347.257 91.168C347.446 91.3275 347.689 91.4072 347.985 91.4072ZM352.643 92.0957H351.74V84.5957H352.643V92.0957ZM355.075 92.0957H354.171V86.8125H355.075V92.0957ZM354.098 85.4111C354.098 85.2646 354.142 85.141 354.23 85.04C354.321 84.9391 354.455 84.8887 354.63 84.8887C354.806 84.8887 354.94 84.9391 355.031 85.04C355.122 85.141 355.167 85.2646 355.167 85.4111C355.167 85.5576 355.122 85.6797 355.031 85.7773C354.94 85.875 354.806 85.9238 354.63 85.9238C354.455 85.9238 354.321 85.875 354.23 85.7773C354.142 85.6797 354.098 85.5576 354.098 85.4111ZM356.305 89.4102C356.305 88.5996 356.497 87.9486 356.881 87.457C357.265 86.9622 357.768 86.7148 358.39 86.7148C359.009 86.7148 359.498 86.9264 359.86 87.3496V84.5957H360.763V92.0957H359.933L359.889 91.5293C359.528 91.972 359.025 92.1934 358.38 92.1934C357.768 92.1934 357.269 91.9427 356.881 91.4414C356.497 90.9401 356.305 90.2858 356.305 89.4785V89.4102ZM357.208 89.5127C357.208 90.1117 357.332 90.5804 357.58 90.9189C357.827 91.2575 358.169 91.4268 358.605 91.4268C359.178 91.4268 359.596 91.1696 359.86 90.6553V88.2285C359.59 87.7305 359.175 87.4814 358.615 87.4814C358.172 87.4814 357.827 87.6523 357.58 87.9941C357.332 88.3359 357.208 88.8421 357.208 89.5127ZM365.431 92.0957C365.379 91.9915 365.337 91.806 365.304 91.5391C364.884 91.9753 364.383 92.1934 363.8 92.1934C363.279 92.1934 362.851 92.0469 362.516 91.7539C362.184 91.4577 362.018 91.0833 362.018 90.6309C362.018 90.0807 362.226 89.6543 362.643 89.3516C363.063 89.0456 363.652 88.8926 364.411 88.8926H365.289V88.4775C365.289 88.1618 365.195 87.9111 365.006 87.7256C364.817 87.5368 364.539 87.4424 364.171 87.4424C363.849 87.4424 363.579 87.5238 363.361 87.6865C363.143 87.8493 363.034 88.0462 363.034 88.2773H362.125C362.125 88.0137 362.218 87.7598 362.404 87.5156C362.593 87.2682 362.846 87.0729 363.165 86.9297C363.488 86.7865 363.841 86.7148 364.225 86.7148C364.834 86.7148 365.311 86.8678 365.656 87.1738C366.001 87.4766 366.18 87.8949 366.193 88.4287V90.8604C366.193 91.3454 366.255 91.7311 366.378 92.0176V92.0957H365.431ZM363.932 91.4072C364.215 91.4072 364.484 91.334 364.738 91.1875C364.992 91.041 365.176 90.8506 365.289 90.6162V89.5322H364.581C363.475 89.5322 362.921 89.8561 362.921 90.5039C362.921 90.7871 363.016 91.0085 363.205 91.168C363.393 91.3275 363.636 91.4072 363.932 91.4072ZM368.834 85.5332V86.8125H369.821V87.5107H368.834V90.7871C368.834 90.9987 368.878 91.1582 368.966 91.2656C369.054 91.3698 369.204 91.4219 369.415 91.4219C369.52 91.4219 369.663 91.4023 369.845 91.3633V92.0957C369.608 92.1608 369.376 92.1934 369.152 92.1934C368.748 92.1934 368.444 92.0713 368.239 91.8271C368.034 91.583 367.931 91.2363 367.931 90.7871V87.5107H366.969V86.8125H367.931V85.5332H368.834ZM370.543 89.4053C370.543 88.8877 370.644 88.4222 370.846 88.0088C371.051 87.5954 371.334 87.2764 371.696 87.0518C372.06 86.8271 372.475 86.7148 372.941 86.7148C373.66 86.7148 374.241 86.9639 374.684 87.4619C375.13 87.96 375.353 88.6224 375.353 89.4492V89.5127C375.353 90.027 375.254 90.4893 375.055 90.8994C374.86 91.3063 374.578 91.6237 374.21 91.8516C373.846 92.0794 373.426 92.1934 372.951 92.1934C372.234 92.1934 371.653 91.9443 371.207 91.4463C370.765 90.9482 370.543 90.2891 370.543 89.4688V89.4053ZM371.452 89.5127C371.452 90.0986 371.587 90.569 371.857 90.9238C372.13 91.2786 372.495 91.4561 372.951 91.4561C373.41 91.4561 373.774 91.277 374.044 90.9189C374.315 90.5576 374.45 90.0531 374.45 89.4053C374.45 88.8258 374.311 88.3571 374.035 87.999C373.761 87.6377 373.397 87.457 372.941 87.457C372.495 87.457 372.135 87.6344 371.862 87.9893C371.588 88.3441 371.452 88.8519 371.452 89.5127ZM379.039 87.623C378.903 87.6003 378.755 87.5889 378.595 87.5889C378.003 87.5889 377.601 87.8411 377.389 88.3457V92.0957H376.486V86.8125H377.365L377.379 87.4229C377.676 86.9508 378.095 86.7148 378.639 86.7148C378.815 86.7148 378.948 86.7376 379.039 86.7832V87.623ZM382.951 90.6943C382.951 90.4502 382.858 90.2614 382.672 90.1279C382.49 89.9912 382.169 89.874 381.71 89.7764C381.255 89.6787 380.892 89.5615 380.622 89.4248C380.355 89.2881 380.156 89.1253 380.026 88.9365C379.899 88.7477 379.835 88.5231 379.835 88.2627C379.835 87.8298 380.018 87.4635 380.382 87.1641C380.75 86.8646 381.219 86.7148 381.788 86.7148C382.387 86.7148 382.872 86.8695 383.244 87.1787C383.618 87.488 383.805 87.8835 383.805 88.3652H382.897C382.897 88.1178 382.791 87.9046 382.58 87.7256C382.371 87.5465 382.108 87.457 381.788 87.457C381.46 87.457 381.203 87.5286 381.017 87.6719C380.831 87.8151 380.739 88.0023 380.739 88.2334C380.739 88.4515 380.825 88.6159 380.997 88.7266C381.17 88.8372 381.481 88.943 381.93 89.0439C382.383 89.1449 382.749 89.2653 383.029 89.4053C383.309 89.5452 383.515 89.7145 383.649 89.9131C383.786 90.1084 383.854 90.3477 383.854 90.6309C383.854 91.1029 383.665 91.4821 383.288 91.7686C382.91 92.0518 382.42 92.1934 381.818 92.1934C381.395 92.1934 381.02 92.1185 380.695 91.9688C380.369 91.819 380.114 91.6107 379.928 91.3438C379.746 91.0736 379.655 90.7822 379.655 90.4697H380.558C380.574 90.7725 380.695 91.0133 380.919 91.1924C381.147 91.3682 381.447 91.4561 381.818 91.4561C382.16 91.4561 382.433 91.3877 382.638 91.251C382.846 91.111 382.951 90.9255 382.951 90.6943ZM387.321 90.1865C387.321 89.8447 387.415 89.5306 387.604 89.2441C387.796 88.9577 388.161 88.624 388.698 88.2432C388.382 87.859 388.17 87.5498 388.063 87.3154C387.955 87.0811 387.902 86.8483 387.902 86.6172C387.902 86.0768 388.061 85.6536 388.38 85.3477C388.699 85.0417 389.132 84.8887 389.679 84.8887C390.167 84.8887 390.571 85.0319 390.89 85.3184C391.209 85.6016 391.369 85.9596 391.369 86.3926C391.369 86.679 391.295 86.9443 391.149 87.1885C391.006 87.4294 390.753 87.6833 390.392 87.9502L389.87 88.3359L391.452 90.2256C391.673 89.8024 391.784 89.332 391.784 88.8145H392.599C392.599 89.6445 392.399 90.333 391.998 90.8799L393.014 92.0957H391.93L391.456 91.5342C391.216 91.749 390.932 91.9134 390.607 92.0273C390.285 92.138 389.956 92.1934 389.621 92.1934C388.927 92.1934 388.371 92.0094 387.951 91.6416C387.531 91.2738 387.321 90.7887 387.321 90.1865ZM389.621 91.4561C390.099 91.4561 390.537 91.2738 390.934 90.9092L389.201 88.834L389.039 88.9512C388.496 89.3516 388.224 89.7633 388.224 90.1865C388.224 90.5706 388.348 90.8783 388.595 91.1094C388.846 91.3405 389.188 91.4561 389.621 91.4561ZM388.805 86.5879C388.805 86.9004 388.997 87.291 389.381 87.7598L389.957 87.3545C390.179 87.1982 390.33 87.0501 390.412 86.9102C390.493 86.7669 390.534 86.5944 390.534 86.3926C390.534 86.1745 390.452 85.9938 390.289 85.8506C390.127 85.7041 389.922 85.6309 389.674 85.6309C389.407 85.6309 389.196 85.722 389.039 85.9043C388.883 86.0833 388.805 86.3112 388.805 86.5879ZM397.438 85.5332V86.8125H398.424V87.5107H397.438V90.7871C397.438 90.9987 397.482 91.1582 397.57 91.2656C397.658 91.3698 397.807 91.4219 398.019 91.4219C398.123 91.4219 398.266 91.4023 398.449 91.3633V92.0957C398.211 92.1608 397.98 92.1934 397.755 92.1934C397.352 92.1934 397.047 92.0713 396.842 91.8271C396.637 91.583 396.535 91.2363 396.535 90.7871V87.5107H395.573V86.8125H396.535V85.5332H397.438ZM401.676 92.1934C400.96 92.1934 400.377 91.959 399.928 91.4902C399.479 91.0182 399.254 90.3883 399.254 89.6006V89.4346C399.254 88.9105 399.354 88.4434 399.552 88.0332C399.754 87.6198 400.034 87.2975 400.392 87.0664C400.753 86.832 401.144 86.7148 401.564 86.7148C402.251 86.7148 402.785 86.9411 403.165 87.3936C403.546 87.846 403.737 88.4938 403.737 89.3369V89.7129H400.158C400.171 90.2337 400.322 90.6553 400.612 90.9775C400.905 91.2965 401.276 91.4561 401.725 91.4561C402.044 91.4561 402.314 91.391 402.536 91.2607C402.757 91.1305 402.951 90.958 403.117 90.7432L403.668 91.1729C403.226 91.8532 402.562 92.1934 401.676 92.1934ZM401.564 87.457C401.199 87.457 400.893 87.5905 400.646 87.8574C400.399 88.1211 400.246 88.4922 400.187 88.9707H402.833V88.9023C402.807 88.4434 402.684 88.0885 402.462 87.8379C402.241 87.584 401.941 87.457 401.564 87.457ZM407.863 90.6943C407.863 90.4502 407.77 90.2614 407.584 90.1279C407.402 89.9912 407.081 89.874 406.622 89.7764C406.167 89.6787 405.804 89.5615 405.534 89.4248C405.267 89.2881 405.068 89.1253 404.938 88.9365C404.811 88.7477 404.747 88.5231 404.747 88.2627C404.747 87.8298 404.93 87.4635 405.294 87.1641C405.662 86.8646 406.131 86.7148 406.701 86.7148C407.3 86.7148 407.785 86.8695 408.156 87.1787C408.53 87.488 408.717 87.8835 408.717 88.3652H407.809C407.809 88.1178 407.703 87.9046 407.492 87.7256C407.283 87.5465 407.02 87.457 406.701 87.457C406.372 87.457 406.115 87.5286 405.929 87.6719C405.744 87.8151 405.651 88.0023 405.651 88.2334C405.651 88.4515 405.737 88.6159 405.91 88.7266C406.082 88.8372 406.393 88.943 406.842 89.0439C407.295 89.1449 407.661 89.2653 407.941 89.4053C408.221 89.5452 408.427 89.7145 408.561 89.9131C408.698 90.1084 408.766 90.3477 408.766 90.6309C408.766 91.1029 408.577 91.4821 408.2 91.7686C407.822 92.0518 407.332 92.1934 406.73 92.1934C406.307 92.1934 405.932 92.1185 405.607 91.9688C405.281 91.819 405.026 91.6107 404.84 91.3438C404.658 91.0736 404.567 90.7822 404.567 90.4697H405.47C405.486 90.7725 405.607 91.0133 405.831 91.1924C406.059 91.3682 406.359 91.4561 406.73 91.4561C407.072 91.4561 407.345 91.3877 407.55 91.251C407.759 91.111 407.863 90.9255 407.863 90.6943ZM411.168 85.5332V86.8125H412.155V87.5107H411.168V90.7871C411.168 90.9987 411.212 91.1582 411.3 91.2656C411.388 91.3698 411.538 91.4219 411.749 91.4219C411.854 91.4219 411.997 91.4023 412.179 91.3633V92.0957C411.941 92.1608 411.71 92.1934 411.486 92.1934C411.082 92.1934 410.778 92.0713 410.573 91.8271C410.368 91.583 410.265 91.2363 410.265 90.7871V87.5107H409.303V86.8125H410.265V85.5332H411.168ZM415.407 92.1934C414.691 92.1934 414.108 91.959 413.659 91.4902C413.209 91.0182 412.985 90.3883 412.985 89.6006V89.4346C412.985 88.9105 413.084 88.4434 413.283 88.0332C413.484 87.6198 413.764 87.2975 414.122 87.0664C414.484 86.832 414.874 86.7148 415.294 86.7148C415.981 86.7148 416.515 86.9411 416.896 87.3936C417.277 87.846 417.467 88.4938 417.467 89.3369V89.7129H413.888C413.901 90.2337 414.052 90.6553 414.342 90.9775C414.635 91.2965 415.006 91.4561 415.455 91.4561C415.775 91.4561 416.045 91.391 416.266 91.2607C416.487 91.1305 416.681 90.958 416.847 90.7432L417.399 91.1729C416.956 91.8532 416.292 92.1934 415.407 92.1934ZM415.294 87.457C414.93 87.457 414.624 87.5905 414.376 87.8574C414.129 88.1211 413.976 88.4922 413.917 88.9707H416.564V88.9023C416.538 88.4434 416.414 88.0885 416.193 87.8379C415.971 87.584 415.672 87.457 415.294 87.457ZM421.071 87.623C420.934 87.6003 420.786 87.5889 420.626 87.5889C420.034 87.5889 419.632 87.8411 419.42 88.3457V92.0957H418.517V86.8125H419.396L419.411 87.4229C419.707 86.9508 420.127 86.7148 420.67 86.7148C420.846 86.7148 420.98 86.7376 421.071 86.7832V87.623ZM424.982 90.6943C424.982 90.4502 424.889 90.2614 424.704 90.1279C424.521 89.9912 424.201 89.874 423.742 89.7764C423.286 89.6787 422.923 89.5615 422.653 89.4248C422.386 89.2881 422.187 89.1253 422.057 88.9365C421.93 88.7477 421.867 88.5231 421.867 88.2627C421.867 87.8298 422.049 87.4635 422.413 87.1641C422.781 86.8646 423.25 86.7148 423.82 86.7148C424.419 86.7148 424.904 86.8695 425.275 87.1787C425.649 87.488 425.836 87.8835 425.836 88.3652H424.928C424.928 88.1178 424.822 87.9046 424.611 87.7256C424.402 87.5465 424.139 87.457 423.82 87.457C423.491 87.457 423.234 87.5286 423.048 87.6719C422.863 87.8151 422.77 88.0023 422.77 88.2334C422.77 88.4515 422.856 88.6159 423.029 88.7266C423.201 88.8372 423.512 88.943 423.961 89.0439C424.414 89.1449 424.78 89.2653 425.06 89.4053C425.34 89.5452 425.547 89.7145 425.68 89.9131C425.817 90.1084 425.885 90.3477 425.885 90.6309C425.885 91.1029 425.696 91.4821 425.319 91.7686C424.941 92.0518 424.451 92.1934 423.849 92.1934C423.426 92.1934 423.052 92.1185 422.726 91.9688C422.4 91.819 422.145 91.6107 421.959 91.3438C421.777 91.0736 421.686 90.7822 421.686 90.4697H422.589C422.606 90.7725 422.726 91.0133 422.951 91.1924C423.178 91.3682 423.478 91.4561 423.849 91.4561C424.191 91.4561 424.464 91.3877 424.669 91.251C424.878 91.111 424.982 90.9255 424.982 90.6943Z" fill="#1F2432"/>
<path d="M355.866 75.3458C376.678 75.3458 393.643 58.4956 393.643 37.6292C393.643 16.7629 376.678 0 355.866 0C335.054 0 318.089 16.8502 318.089 37.7165C318.089 58.5829 334.966 75.3458 355.866 75.3458Z" fill="#1F2432"/>
<path d="M355.866 20.4307L338.114 29.5979V31.8679H355.866H373.53V29.5979L355.866 20.4307Z" fill="#1F2432" stroke="#00DCE6" stroke-miterlimit="10"/>
<path d="M344.41 33.6143V48.1072" stroke="#00DCE6" stroke-miterlimit="10"/>
<path d="M351.756 33.6143V48.1072" stroke="#00DCE6" stroke-miterlimit="10"/>
<path d="M373.618 50.2021H338.114" stroke="#00DCE6" stroke-miterlimit="10"/>
<path d="M373.618 55.1787H338.114" stroke="#00DCE6" stroke-miterlimit="10"/>
<path d="M359.801 33.6143V48.1072" stroke="#00DCE6" stroke-miterlimit="10"/>
<path d="M367.234 33.6143V48.1072" stroke="#00DCE6" stroke-miterlimit="10"/>
<path d="M39.4547 75.3458C60.2671 75.3458 77.1443 58.4956 77.1443 37.6292C77.1443 16.7629 60.2671 0 39.4547 0C18.6424 0 1.67773 16.8502 1.67773 37.6292C1.67773 58.4083 18.555 75.3458 39.4547 75.3458Z" fill="#1F2432"/>
<path d="M34.7329 38.1543V40.8608H34.0333L32.022 42.8689L28.6116 44.4404C26.7752 44.8769 25.2012 46.2738 25.2012 47.5834V55.703" fill="#1F2432"/>
<path d="M34.7329 38.1543V40.8608H34.0333L32.022 42.8689L28.6116 44.4404C26.7752 44.8769 25.2012 46.2738 25.2012 47.5834V55.703" stroke="#00DCE6" stroke-miterlimit="10"/>
<path d="M45.6649 26.5421V27.9391L47.064 28.6375V31.344C47.064 31.7805 46.8017 32.2171 46.4519 32.479L45.6649 33.4394C45.6649 33.4394 45.6649 34.4871 45.6649 34.8363C45.6649 37.4555 42.167 38.5905 41.5549 38.9397C40.9427 39.2889 39.8934 39.6382 38.844 39.6382C37.7947 39.6382 36.7453 39.2889 36.1332 38.9397C35.521 38.6778 32.0232 37.4555 32.0232 34.8363C32.0232 34.4871 32.0232 33.4394 32.0232 33.4394L31.2362 32.479C30.8864 32.2171 30.624 31.7805 30.624 31.344V28.6375L32.0232 27.9391V26.5421C32.0232 23.1372 34.734 20.4307 38.1444 20.4307H39.5436C42.8666 20.4307 45.6649 23.1372 45.6649 26.5421Z" fill="#1F2432" stroke="#00DCE6" stroke-miterlimit="10"/>
<path d="M34.7324 40.8604L38.7556 44.2653" stroke="#00DCE6" stroke-miterlimit="10"/>
<path d="M38.7554 44.2657L35.345 46.9722L31.9346 42.9561" fill="#1F2432"/>
<path d="M38.7554 44.2657L35.345 46.9722L31.9346 42.9561" stroke="#00DCE6" stroke-miterlimit="10"/>
<path d="M42.8652 38.1543V40.8608H43.5648L45.5761 42.8689L48.9865 44.4404C50.8229 44.8769 52.3969 46.2738 52.3969 47.5834V55.703" fill="#1F2432"/>
<path d="M42.8652 38.1543V40.8608H43.5648L45.5761 42.8689L48.9865 44.4404C50.8229 44.8769 52.3969 46.2738 52.3969 47.5834V55.703" stroke="#00DCE6" stroke-miterlimit="10"/>
<path d="M42.8665 40.8604L38.7559 44.2653" stroke="#00DCE6" stroke-miterlimit="10"/>
<path d="M38.7559 44.2657L42.2537 46.9722L45.6642 42.9561" fill="#1F2432"/>
<path d="M38.7559 44.2657L42.2537 46.9722L45.6642 42.9561" stroke="#00DCE6" stroke-miterlimit="10"/>
<path d="M40.8548 45.6621L40.1551 49.0671H37.4438L36.7441 45.6621" fill="#1F2432"/>
<path d="M40.8548 45.6621L40.1551 49.0671H37.4438L36.7441 45.6621" stroke="#00DCE6" stroke-miterlimit="10"/>
<path d="M40.8548 55.1789L40.1551 49.0674H37.4438L36.7441 55.1789" fill="#1F2432"/>
<path d="M40.8548 55.1789L40.1551 49.0674H37.4438L36.7441 55.1789" stroke="#00DCE6" stroke-miterlimit="10"/>
<path d="M20.6738 88.9268C19.8698 88.6956 19.2839 88.4124 18.916 88.0771C18.5514 87.7386 18.3691 87.3219 18.3691 86.8271C18.3691 86.2673 18.5921 85.805 19.0381 85.4404C19.4873 85.0726 20.07 84.8887 20.7861 84.8887C21.2744 84.8887 21.709 84.9831 22.0898 85.1719C22.474 85.3607 22.7702 85.6211 22.9785 85.9531C23.1901 86.2852 23.2959 86.6481 23.2959 87.042H22.3535C22.3535 86.6123 22.2168 86.2754 21.9434 86.0312C21.6699 85.7839 21.2842 85.6602 20.7861 85.6602C20.3239 85.6602 19.9626 85.7627 19.7021 85.9678C19.445 86.1696 19.3164 86.4512 19.3164 86.8125C19.3164 87.1022 19.4385 87.348 19.6826 87.5498C19.93 87.7484 20.3483 87.9307 20.9375 88.0967C21.5299 88.2627 21.9922 88.4466 22.3242 88.6484C22.6595 88.847 22.9069 89.0798 23.0664 89.3467C23.2292 89.6136 23.3105 89.9277 23.3105 90.2891C23.3105 90.8652 23.0859 91.3275 22.6367 91.6758C22.1875 92.0208 21.5869 92.1934 20.835 92.1934C20.3467 92.1934 19.8909 92.1006 19.4678 91.915C19.0446 91.7262 18.7174 91.4691 18.4863 91.1436C18.2585 90.818 18.1445 90.4486 18.1445 90.0352H19.0869C19.0869 90.4648 19.2448 90.805 19.5605 91.0557C19.8796 91.3031 20.3044 91.4268 20.835 91.4268C21.3297 91.4268 21.709 91.3258 21.9727 91.124C22.2363 90.9222 22.3682 90.6471 22.3682 90.2988C22.3682 89.9505 22.2461 89.682 22.0019 89.4932C21.7578 89.3011 21.3151 89.1123 20.6738 88.9268ZM25.6006 85.5332V86.8125H26.5869V87.5107H25.6006V90.7871C25.6006 90.9987 25.6445 91.1582 25.7324 91.2656C25.8203 91.3698 25.97 91.4219 26.1816 91.4219C26.2858 91.4219 26.429 91.4023 26.6113 91.3633V92.0957C26.3737 92.1608 26.1426 92.1934 25.918 92.1934C25.5143 92.1934 25.21 92.0713 25.0049 91.8271C24.7998 91.583 24.6973 91.2363 24.6973 90.7871V87.5107H23.7353V86.8125H24.6973V85.5332H25.6006ZM30.9082 91.5732C30.5566 91.9867 30.0407 92.1934 29.3603 92.1934C28.7972 92.1934 28.3675 92.0306 28.0713 91.7051C27.7783 91.3763 27.6302 90.8913 27.6269 90.25V86.8125H28.5303V90.2256C28.5303 91.0264 28.8558 91.4268 29.5068 91.4268C30.1969 91.4268 30.6559 91.1696 30.8838 90.6553V86.8125H31.7871V92.0957H30.9277L30.9082 91.5732ZM32.9443 89.4102C32.9443 88.5996 33.1364 87.9486 33.5205 87.457C33.9046 86.9622 34.4075 86.7148 35.0293 86.7148C35.6478 86.7148 36.1377 86.9264 36.499 87.3496V84.5957H37.4023V92.0957H36.5723L36.5283 91.5293C36.167 91.972 35.6641 92.1934 35.0195 92.1934C34.4075 92.1934 33.9079 91.9427 33.5205 91.4414C33.1364 90.9401 32.9443 90.2858 32.9443 89.4785V89.4102ZM33.8477 89.5127C33.8477 90.1117 33.9714 90.5804 34.2187 90.9189C34.4661 91.2575 34.8079 91.4268 35.2441 91.4268C35.8171 91.4268 36.2353 91.1696 36.499 90.6553V88.2285C36.2288 87.7305 35.8138 87.4814 35.2539 87.4814C34.8112 87.4814 34.4661 87.6523 34.2187 87.9941C33.9714 88.3359 33.8477 88.8421 33.8477 89.5127ZM41.001 92.1934C40.2848 92.1934 39.7021 91.959 39.2529 91.4902C38.8037 91.0182 38.5791 90.3883 38.5791 89.6006V89.4346C38.5791 88.9105 38.6784 88.4434 38.8769 88.0332C39.0788 87.6198 39.3587 87.2975 39.7168 87.0664C40.0781 86.832 40.4687 86.7148 40.8887 86.7148C41.5755 86.7148 42.1094 86.9411 42.4902 87.3936C42.8711 87.846 43.0615 88.4938 43.0615 89.3369V89.7129H39.4824C39.4954 90.2337 39.6468 90.6553 39.9365 90.9775C40.2295 91.2965 40.6006 91.4561 41.0498 91.4561C41.3688 91.4561 41.639 91.391 41.8603 91.2607C42.0817 91.1305 42.2754 90.958 42.4414 90.7432L42.9932 91.1729C42.5505 91.8532 41.8864 92.1934 41.001 92.1934ZM40.8887 87.457C40.5241 87.457 40.2181 87.5905 39.9707 87.8574C39.7233 88.1211 39.5703 88.4922 39.5117 88.9707H42.1582V88.9023C42.1322 88.4434 42.0085 88.0885 41.7871 87.8379C41.5658 87.584 41.2663 87.457 40.8887 87.457ZM44.9658 86.8125L44.9951 87.4766C45.3988 86.9688 45.9261 86.7148 46.5771 86.7148C47.6937 86.7148 48.2568 87.3447 48.2666 88.6045V92.0957H47.3633V88.5996C47.36 88.2188 47.2721 87.9372 47.0996 87.7549C46.9303 87.5726 46.665 87.4814 46.3037 87.4814C46.0107 87.4814 45.7536 87.5596 45.5322 87.7158C45.3109 87.8721 45.1383 88.0771 45.0146 88.3311V92.0957H44.1113V86.8125H44.9658ZM50.8545 85.5332V86.8125H51.8408V87.5107H50.8545V90.7871C50.8545 90.9987 50.8984 91.1582 50.9863 91.2656C51.0742 91.3698 51.224 91.4219 51.4355 91.4219C51.5397 91.4219 51.6829 91.4023 51.8652 91.3633V92.0957C51.6276 92.1608 51.3965 92.1934 51.1719 92.1934C50.7682 92.1934 50.4639 92.0713 50.2588 91.8271C50.0537 91.583 49.9512 91.2363 49.9512 90.7871V87.5107H48.9893V86.8125H49.9512V85.5332H50.8545ZM55.9766 90.6943C55.9766 90.4502 55.8838 90.2614 55.6982 90.1279C55.5159 89.9912 55.1953 89.874 54.7363 89.7764C54.2806 89.6787 53.9176 89.5615 53.6475 89.4248C53.3805 89.2881 53.182 89.1253 53.0518 88.9365C52.9248 88.7477 52.8613 88.5231 52.8613 88.2627C52.8613 87.8298 53.0436 87.4635 53.4082 87.1641C53.776 86.8646 54.2448 86.7148 54.8144 86.7148C55.4134 86.7148 55.8984 86.8695 56.2695 87.1787C56.6439 87.488 56.8311 87.8835 56.8311 88.3652H55.9228C55.9228 88.1178 55.8171 87.9046 55.6055 87.7256C55.3971 87.5465 55.1335 87.457 54.8144 87.457C54.4857 87.457 54.2285 87.5286 54.043 87.6719C53.8574 87.8151 53.7646 88.0023 53.7646 88.2334C53.7646 88.4515 53.8509 88.6159 54.0234 88.7266C54.196 88.8372 54.5068 88.943 54.9561 89.0439C55.4085 89.1449 55.7747 89.2653 56.0547 89.4053C56.3346 89.5452 56.5413 89.7145 56.6748 89.9131C56.8115 90.1084 56.8799 90.3477 56.8799 90.6309C56.8799 91.1029 56.6911 91.4821 56.3135 91.7686C55.9359 92.0518 55.446 92.1934 54.8437 92.1934C54.4206 92.1934 54.0462 92.1185 53.7207 91.9688C53.3952 91.819 53.1396 91.6107 52.9541 91.3438C52.7718 91.0736 52.6807 90.7822 52.6807 90.4697H53.584C53.6003 90.7725 53.7207 91.0133 53.9453 91.1924C54.1732 91.3682 54.4727 91.4561 54.8437 91.4561C55.1855 91.4561 55.459 91.3877 55.6641 91.251C55.8724 91.111 55.9766 90.9255 55.9766 90.6943Z" fill="#1F2432"/>
<path d="M501.523 298.26C522.335 298.26 539.3 281.41 539.3 260.544C539.3 239.765 522.423 222.827 501.523 222.827C480.623 222.827 463.746 239.677 463.746 260.544C463.746 281.41 480.623 298.26 501.523 298.26Z" fill="#1F2432"/>
<path d="M496.801 261.067V263.774H496.102L494.09 265.782L490.68 267.353C488.844 267.79 487.27 269.187 487.27 270.497V278.616" stroke="#00DCE6" stroke-miterlimit="10"/>
<path d="M507.733 249.543V250.94L509.132 251.638V254.345C509.132 254.782 508.87 255.218 508.52 255.48L507.733 256.44C507.733 256.44 507.733 257.488 507.733 257.837C507.733 260.456 504.235 261.591 503.623 261.941C503.011 262.29 501.962 262.639 500.912 262.639C499.863 262.639 498.814 262.29 498.202 261.941C497.589 261.591 494.092 260.456 494.092 257.837C494.092 257.488 494.092 256.44 494.092 256.44L493.305 255.48C492.955 255.218 492.692 254.782 492.692 254.345V251.638L494.092 250.94V249.543C494.092 246.138 496.802 243.432 500.213 243.432H501.612C504.935 243.344 507.733 246.138 507.733 249.543Z" stroke="#00DCE6" stroke-miterlimit="10"/>
<path d="M496.801 263.861L500.824 267.266" stroke="#00DCE6" stroke-miterlimit="10"/>
<path d="M500.824 267.266L497.413 269.973L494.003 265.869" stroke="#00DCE6" stroke-miterlimit="10"/>
<path d="M504.934 261.067V263.774H505.633L507.644 265.782L511.055 267.353C512.891 267.79 514.465 269.187 514.465 270.497V278.616" stroke="#00DCE6" stroke-miterlimit="10"/>
<path d="M504.935 263.861L500.824 267.266" stroke="#00DCE6" stroke-miterlimit="10"/>
<path d="M500.824 267.266L504.235 269.973L507.732 265.869" stroke="#00DCE6" stroke-miterlimit="10"/>
<path d="M502.923 268.576L502.223 271.981H499.512L498.812 268.576" stroke="#00DCE6" stroke-miterlimit="10"/>
<path d="M502.923 278.092L502.223 271.98H499.512L498.812 278.092" stroke="#00DCE6" stroke-miterlimit="10"/>
<path d="M484.457 309.838C483.653 309.607 483.067 309.324 482.699 308.988C482.335 308.65 482.152 308.233 482.152 307.738C482.152 307.178 482.375 306.716 482.821 306.352C483.271 305.984 483.853 305.8 484.569 305.8C485.058 305.8 485.492 305.894 485.873 306.083C486.257 306.272 486.553 306.532 486.762 306.864C486.973 307.196 487.079 307.559 487.079 307.953H486.137C486.137 307.523 486 307.187 485.727 306.942C485.453 306.695 485.067 306.571 484.569 306.571C484.107 306.571 483.746 306.674 483.485 306.879C483.228 307.081 483.1 307.362 483.1 307.724C483.1 308.013 483.222 308.259 483.466 308.461C483.713 308.66 484.132 308.842 484.721 309.008C485.313 309.174 485.775 309.358 486.107 309.56C486.443 309.758 486.69 309.991 486.85 310.258C487.012 310.525 487.094 310.839 487.094 311.2C487.094 311.776 486.869 312.239 486.42 312.587C485.971 312.932 485.37 313.104 484.618 313.104C484.13 313.104 483.674 313.012 483.251 312.826C482.828 312.637 482.501 312.38 482.27 312.055C482.042 311.729 481.928 311.36 481.928 310.946H482.87C482.87 311.376 483.028 311.716 483.344 311.967C483.663 312.214 484.088 312.338 484.618 312.338C485.113 312.338 485.492 312.237 485.756 312.035C486.02 311.833 486.151 311.558 486.151 311.21C486.151 310.862 486.029 310.593 485.785 310.404C485.541 310.212 485.098 310.023 484.457 309.838ZM489.384 306.444V307.724H490.37V308.422H489.384V311.698C489.384 311.91 489.428 312.069 489.516 312.177C489.604 312.281 489.753 312.333 489.965 312.333C490.069 312.333 490.212 312.313 490.395 312.274V313.007C490.157 313.072 489.926 313.104 489.701 313.104C489.298 313.104 488.993 312.982 488.788 312.738C488.583 312.494 488.48 312.147 488.48 311.698V308.422H487.519V307.724H488.48V306.444H489.384ZM494.691 312.484C494.34 312.898 493.824 313.104 493.144 313.104C492.58 313.104 492.151 312.942 491.854 312.616C491.562 312.287 491.413 311.802 491.41 311.161V307.724H492.313V311.137C492.313 311.938 492.639 312.338 493.29 312.338C493.98 312.338 494.439 312.081 494.667 311.566V307.724H495.57V313.007H494.711L494.691 312.484ZM496.728 310.321C496.728 309.511 496.92 308.86 497.304 308.368C497.688 307.873 498.191 307.626 498.812 307.626C499.431 307.626 499.921 307.838 500.282 308.261V305.507H501.186V313.007H500.355L500.312 312.44C499.95 312.883 499.447 313.104 498.803 313.104C498.191 313.104 497.691 312.854 497.304 312.353C496.92 311.851 496.728 311.197 496.728 310.39V310.321ZM497.631 310.424C497.631 311.023 497.755 311.492 498.002 311.83C498.249 312.169 498.591 312.338 499.027 312.338C499.6 312.338 500.019 312.081 500.282 311.566V309.14C500.012 308.642 499.597 308.393 499.037 308.393C498.594 308.393 498.249 308.563 498.002 308.905C497.755 309.247 497.631 309.753 497.631 310.424ZM504.784 313.104C504.068 313.104 503.485 312.87 503.036 312.401C502.587 311.929 502.362 311.299 502.362 310.512V310.346C502.362 309.822 502.462 309.354 502.66 308.944C502.862 308.531 503.142 308.209 503.5 307.978C503.861 307.743 504.252 307.626 504.672 307.626C505.359 307.626 505.893 307.852 506.273 308.305C506.654 308.757 506.845 309.405 506.845 310.248V310.624H503.266C503.279 311.145 503.43 311.566 503.72 311.889C504.013 312.208 504.384 312.367 504.833 312.367C505.152 312.367 505.422 312.302 505.644 312.172C505.865 312.042 506.059 311.869 506.225 311.654L506.776 312.084C506.334 312.764 505.67 313.104 504.784 313.104ZM504.672 308.368C504.307 308.368 504.001 308.502 503.754 308.769C503.507 309.032 503.354 309.403 503.295 309.882H505.941V309.813C505.915 309.354 505.792 309 505.57 308.749C505.349 308.495 505.049 308.368 504.672 308.368ZM508.749 307.724L508.778 308.388C509.182 307.88 509.709 307.626 510.36 307.626C511.477 307.626 512.04 308.256 512.05 309.516V313.007H511.146V309.511C511.143 309.13 511.055 308.848 510.883 308.666C510.714 308.484 510.448 308.393 510.087 308.393C509.794 308.393 509.537 308.471 509.315 308.627C509.094 308.783 508.922 308.988 508.798 309.242V313.007H507.895V307.724H508.749ZM514.638 306.444V307.724H515.624V308.422H514.638V311.698C514.638 311.91 514.682 312.069 514.77 312.177C514.857 312.281 515.007 312.333 515.219 312.333C515.323 312.333 515.466 312.313 515.648 312.274V313.007C515.411 313.072 515.18 313.104 514.955 313.104C514.551 313.104 514.247 312.982 514.042 312.738C513.837 312.494 513.734 312.147 513.734 311.698V308.422H512.772V307.724H513.734V306.444H514.638ZM519.76 311.605C519.76 311.361 519.667 311.173 519.481 311.039C519.299 310.902 518.979 310.785 518.52 310.688C518.064 310.59 517.701 310.473 517.431 310.336C517.164 310.199 516.965 310.036 516.835 309.848C516.708 309.659 516.645 309.434 516.645 309.174C516.645 308.741 516.827 308.375 517.191 308.075C517.559 307.776 518.028 307.626 518.598 307.626C519.197 307.626 519.682 307.781 520.053 308.09C520.427 308.399 520.614 308.795 520.614 309.276H519.706C519.706 309.029 519.6 308.816 519.389 308.637C519.18 308.458 518.917 308.368 518.598 308.368C518.269 308.368 518.012 308.44 517.826 308.583C517.641 308.726 517.548 308.913 517.548 309.145C517.548 309.363 517.634 309.527 517.807 309.638C517.979 309.748 518.29 309.854 518.739 309.955C519.192 310.056 519.558 310.176 519.838 310.316C520.118 310.456 520.325 310.626 520.458 310.824C520.595 311.02 520.663 311.259 520.663 311.542C520.663 312.014 520.474 312.393 520.097 312.68C519.719 312.963 519.229 313.104 518.627 313.104C518.204 313.104 517.829 313.03 517.504 312.88C517.178 312.73 516.923 312.522 516.737 312.255C516.555 311.985 516.464 311.693 516.464 311.381H517.367C517.383 311.684 517.504 311.924 517.729 312.104C517.956 312.279 518.256 312.367 518.627 312.367C518.969 312.367 519.242 312.299 519.447 312.162C519.656 312.022 519.76 311.837 519.76 311.605Z" fill="#1F2432"/>
<path d="M309.543 182.541H230.37C218.318 182.541 208.378 172.702 208.378 160.58C208.378 148.458 218.23 138.619 230.37 138.619H309.543C321.594 138.619 331.535 148.458 331.535 160.58C331.535 172.702 321.682 182.541 309.543 182.541Z" fill="#00DCE6"/>
<g opacity="0.3">
<path opacity="0.3" d="M230.37 189.569C214.359 189.569 201.34 176.568 201.34 160.58C201.34 144.593 214.359 131.592 230.37 131.592H309.542C325.552 131.592 338.572 144.593 338.572 160.58C338.572 176.568 325.552 189.569 309.542 189.569H230.37Z" fill="#00DCE6"/>
</g>
<path d="M223.507 166.553V154.431L234.503 147.403L245.499 154.431V166.641" stroke="white"/>
<path d="M223.508 166.553L234.504 173.668L245.5 166.553L234.504 159.525L223.508 166.553Z" stroke="white" stroke-linejoin="round"/>
<path d="M245.412 154.431L234.416 161.458L223.42 154.431" stroke="white"/>
<path d="M234.504 147.403V159.614" stroke="white"/>
<path d="M234.504 161.546V173.756" stroke="white"/>
<path d="M260.608 165.211V157.391H263.348C264.297 157.391 265.016 157.573 265.507 157.938C265.997 158.3 266.243 158.832 266.243 159.534C266.243 159.917 266.144 160.255 265.947 160.549C265.75 160.839 265.476 161.052 265.125 161.188C265.527 161.288 265.842 161.491 266.071 161.795C266.304 162.099 266.42 162.472 266.42 162.912C266.42 163.664 266.18 164.233 265.7 164.62C265.22 165.007 264.536 165.204 263.648 165.211H260.608ZM262.22 161.806V163.917H263.6C263.98 163.917 264.275 163.827 264.486 163.648C264.701 163.465 264.809 163.215 264.809 162.896C264.809 162.18 264.438 161.816 263.697 161.806H262.22ZM262.22 160.667H263.412C264.225 160.653 264.631 160.329 264.631 159.695C264.631 159.34 264.528 159.086 264.32 158.932C264.116 158.775 263.792 158.696 263.348 158.696H262.22V160.667ZM269.17 165.211H267.612V156.961H269.17V165.211ZM270.212 162.251C270.212 161.675 270.323 161.161 270.545 160.71C270.767 160.259 271.086 159.91 271.501 159.663C271.92 159.416 272.405 159.292 272.957 159.292C273.741 159.292 274.38 159.532 274.874 160.012C275.372 160.492 275.649 161.143 275.707 161.967L275.717 162.364C275.717 163.256 275.468 163.972 274.971 164.513C274.473 165.05 273.805 165.318 272.967 165.318C272.129 165.318 271.46 165.05 270.958 164.513C270.461 163.976 270.212 163.245 270.212 162.321V162.251ZM271.764 162.364C271.764 162.916 271.868 163.338 272.076 163.632C272.283 163.922 272.581 164.067 272.967 164.067C273.343 164.067 273.637 163.924 273.848 163.637C274.059 163.347 274.165 162.885 274.165 162.251C274.165 161.711 274.059 161.292 273.848 160.995C273.637 160.697 273.34 160.549 272.957 160.549C272.577 160.549 272.283 160.697 272.076 160.995C271.868 161.288 271.764 161.745 271.764 162.364ZM279.09 164.067C279.377 164.067 279.61 163.988 279.789 163.831C279.968 163.673 280.061 163.464 280.068 163.202H281.523C281.52 163.596 281.412 163.958 281.201 164.287C280.99 164.613 280.7 164.867 280.331 165.05C279.966 165.229 279.561 165.318 279.117 165.318C278.286 165.318 277.631 165.055 277.151 164.529C276.672 163.999 276.432 163.268 276.432 162.337V162.235C276.432 161.34 276.67 160.626 277.146 160.092C277.622 159.559 278.276 159.292 279.106 159.292C279.833 159.292 280.415 159.5 280.852 159.915C281.292 160.327 281.516 160.876 281.523 161.564H280.068C280.061 161.263 279.968 161.02 279.789 160.833C279.61 160.644 279.373 160.549 279.08 160.549C278.718 160.549 278.444 160.681 278.258 160.946C278.075 161.208 277.984 161.634 277.984 162.225V162.386C277.984 162.984 278.075 163.413 278.258 163.675C278.44 163.936 278.718 164.067 279.09 164.067ZM284.521 162.88L283.962 163.438V165.211H282.41V156.961H283.962V161.532L284.263 161.145L285.75 159.399H287.614L285.514 161.822L287.797 165.211H286.014L284.521 162.88ZM290.595 164.067C290.882 164.067 291.114 163.988 291.293 163.831C291.472 163.673 291.566 163.464 291.573 163.202H293.028C293.025 163.596 292.917 163.958 292.706 164.287C292.495 164.613 292.205 164.867 291.836 165.05C291.471 165.229 291.066 165.318 290.622 165.318C289.791 165.318 289.136 165.055 288.656 164.529C288.176 163.999 287.937 163.268 287.937 162.337V162.235C287.937 161.34 288.175 160.626 288.651 160.092C289.127 159.559 289.781 159.292 290.611 159.292C291.338 159.292 291.92 159.5 292.357 159.915C292.797 160.327 293.021 160.876 293.028 161.564H291.573C291.566 161.263 291.472 161.02 291.293 160.833C291.114 160.644 290.878 160.549 290.584 160.549C290.223 160.549 289.949 160.681 289.763 160.946C289.58 161.208 289.489 161.634 289.489 162.225V162.386C289.489 162.984 289.58 163.413 289.763 163.675C289.945 163.936 290.223 164.067 290.595 164.067ZM295.429 160.033C295.841 159.539 296.358 159.292 296.981 159.292C298.242 159.292 298.881 160.024 298.899 161.489V165.211H297.347V161.532C297.347 161.199 297.275 160.953 297.132 160.796C296.989 160.635 296.75 160.554 296.417 160.554C295.963 160.554 295.633 160.73 295.429 161.081V165.211H293.877V156.961H295.429V160.033ZM303.438 165.211C303.366 165.071 303.314 164.898 303.282 164.69C302.906 165.109 302.417 165.318 301.815 165.318C301.246 165.318 300.773 165.154 300.397 164.824C300.025 164.495 299.839 164.079 299.839 163.578C299.839 162.962 300.066 162.49 300.521 162.16C300.979 161.831 301.64 161.664 302.503 161.661H303.217V161.328C303.217 161.059 303.147 160.844 303.008 160.683C302.872 160.522 302.655 160.441 302.358 160.441C302.097 160.441 301.891 160.504 301.74 160.629C301.593 160.755 301.52 160.927 301.52 161.145H299.968C299.968 160.808 300.072 160.497 300.279 160.21C300.487 159.924 300.781 159.7 301.16 159.539C301.54 159.374 301.966 159.292 302.438 159.292C303.155 159.292 303.722 159.473 304.141 159.834C304.564 160.193 304.775 160.697 304.775 161.349V163.868C304.778 164.42 304.855 164.837 305.006 165.12V165.211H303.438ZM302.154 164.131C302.383 164.131 302.594 164.081 302.788 163.981C302.981 163.877 303.124 163.739 303.217 163.567V162.568H302.637C301.86 162.568 301.447 162.837 301.396 163.374L301.391 163.465C301.391 163.659 301.459 163.818 301.595 163.943C301.731 164.069 301.917 164.131 302.154 164.131ZM307.605 165.211H306.048V159.399H307.605V165.211ZM305.957 157.896C305.957 157.663 306.034 157.471 306.188 157.321C306.345 157.17 306.558 157.095 306.827 157.095C307.092 157.095 307.303 157.17 307.46 157.321C307.618 157.471 307.697 157.663 307.697 157.896C307.697 158.132 307.616 158.325 307.455 158.476C307.298 158.626 307.088 158.701 306.827 158.701C306.565 158.701 306.354 158.626 306.193 158.476C306.035 158.325 305.957 158.132 305.957 157.896ZM310.318 159.399L310.366 160.071C310.782 159.552 311.338 159.292 312.037 159.292C312.653 159.292 313.111 159.473 313.412 159.834C313.712 160.196 313.866 160.737 313.874 161.457V165.211H312.321V161.494C312.321 161.165 312.25 160.927 312.106 160.78C311.963 160.629 311.725 160.554 311.392 160.554C310.955 160.554 310.628 160.74 310.409 161.113V165.211H308.857V159.399H310.318Z" fill="white"/>
<path d="M251.338 118.146L256.934 123.821L262.618 118.234" stroke="#00DCE6"/>
<path d="M194.06 107.146L188.463 101.471L182.779 107.058" stroke="#00DCE6"/>
<path d="M188.464 101.384V112.123H256.847V123.909" stroke="#00DCE6" stroke-miterlimit="10"/>
<path d="M251.338 201.611L256.847 195.937L262.531 201.437" stroke="#00DCE6"/>
<path d="M44.0018 212.699L38.4926 218.374L32.8086 212.874" stroke="#00DCE6"/>
<path d="M193.972 212.787L188.463 218.462L182.779 212.962" stroke="#00DCE6"/>
<path d="M38.667 218.462V177.603H181.03" stroke="#00DCE6" stroke-miterlimit="10"/>
<path d="M175.435 147.918L181.12 142.418L175.609 136.743" stroke="#00DCE6"/>
<path d="M44.0018 107.233L38.4926 101.558L32.8086 107.058" stroke="#00DCE6"/>
<path d="M38.6689 101.471V142.33H181.032" stroke="#00DCE6" stroke-miterlimit="10"/>
<path d="M188.464 218.462V207.723H256.847V195.937" stroke="#00DCE6" stroke-miterlimit="10"/>
<path d="M292.876 118.233L287.367 123.908L281.683 118.408" stroke="#00DCE6"/>
<path d="M495.839 107.146L501.348 101.471L507.032 106.971" stroke="#00DCE6"/>
<path d="M350.24 107.146L355.749 101.471L361.433 106.971" stroke="#00DCE6"/>
<path d="M501.261 101.384V142.243H358.811" stroke="#00DCE6" stroke-miterlimit="10"/>
<path d="M355.838 101.384V112.123H287.454V123.909" stroke="#00DCE6" stroke-miterlimit="10"/>
<path d="M364.495 172.015L358.811 177.515L364.321 183.19" stroke="#00DCE6"/>
<path d="M292.876 201.611L287.367 195.937L281.683 201.437" stroke="#00DCE6"/>
<path d="M495.664 212.699L501.173 218.374L506.857 212.874" stroke="#00DCE6"/>
<path d="M350.24 212.699L355.749 218.374L361.433 212.874" stroke="#00DCE6"/>
<path d="M501.261 218.462V177.603H358.811" stroke="#00DCE6" stroke-miterlimit="10"/>
<path d="M355.838 218.462V207.723H287.454V195.937" stroke="#00DCE6" stroke-miterlimit="10"/>
</svg>
