<?xml version="1.0" encoding="utf-8"?>
<!-- Generator: Adobe Illustrator 15.0.0, SVG Export Plug-In . SVG Version: 6.00 Build 0)  -->
<!DOCTYPE svg PUBLIC "-//W3C//DTD SVG 1.1//EN" "http://www.w3.org/Graphics/SVG/1.1/DTD/svg11.dtd">
<svg version="1.1" id="图层_1" xmlns="http://www.w3.org/2000/svg" xmlns:xlink="http://www.w3.org/1999/xlink" x="0px" y="0px"
	 width="1171px" height="578px" viewBox="0 0 1171 578" enable-background="new 0 0 1171 578" xml:space="preserve">
<g>
	<defs>
		<rect id="SVGID_1_" width="1171" height="578"/>
	</defs>
	<clipPath id="SVGID_2_">
		<use xlink:href="#SVGID_1_"  overflow="visible"/>
	</clipPath>
	<g clip-path="url(#SVGID_2_)">
		<path fill="none" stroke="#00DCE6" stroke-width="2" stroke-miterlimit="10" d="M926.6,336.3H756.1v81.8h-15.8"/>
		<path fill="none" stroke="#00DCE6" stroke-width="2" stroke-linejoin="round" stroke-miterlimit="10" d="M718.9,299.5H731.1v-7.9
			V171.9h184.2"/>
		<path fill="none" stroke="#00DCE6" stroke-width="2" stroke-linejoin="round" stroke-miterlimit="10" d="M656.6,502.5H916.9"/>
		<path fill="#00DCE6" fill-opacity="0.2" d="M719.6,309.3c-5.5,0-9.899-4.399-9.899-9.899s4.399-9.9,9.899-9.9s9.9,4.4,9.9,9.9
			S725,309.3,719.6,309.3z"/>
		<path fill="#00DCE6" d="M719.6,303.4c-2.199,0-3.899-1.801-3.899-3.9s1.8-3.9,3.899-3.9c2.2,0,3.9,1.801,3.9,3.9
			S721.8,303.4,719.6,303.4z"/>
		<path fill="#00DCE6" fill-opacity="0.2" d="M740.3,427.9c-5.5,0-9.899-4.4-9.899-9.9s4.399-9.9,9.899-9.9s9.9,4.4,9.9,9.9
			S745.7,427.9,740.3,427.9z"/>
		<path fill="#00DCE6" d="M740.3,422c-2.2,0-3.899-1.8-3.899-3.9c0-2.1,1.8-3.899,3.899-3.899c2.2,0,3.9,1.8,3.9,3.899
			C744.2,420.2,742.5,422,740.3,422z"/>
		<path fill="#00DCE6" fill-opacity="0.2" d="M666.6,512c-5.5,0-9.899-4.4-9.899-9.9s4.399-9.899,9.899-9.899s9.9,4.399,9.9,9.899
			S672,512,666.6,512z"/>
		<path fill="#00DCE6" d="M666.6,506.1c-2.199,0-3.899-1.8-3.899-3.899c0-2.101,1.8-3.9,3.899-3.9c2.2,0,3.9,1.8,3.9,3.9
			C670.5,504.3,668.8,506.1,666.6,506.1z"/>
		<path fill="none" stroke="#00DCE6" stroke-width="2" stroke-miterlimit="10" d="M429.5,418.1h-15.8v-81.8H243.2"/>
		<path fill="none" stroke="#00DCE6" stroke-width="2" stroke-linejoin="round" stroke-miterlimit="10" d="M254.5,171.9h181.8v119.7
			v7.9H448.4"/>
		<path fill="none" stroke="#00DCE6" stroke-width="2" stroke-linejoin="round" stroke-miterlimit="10" d="M252.9,502.5h260.3"/>
		<path fill="none" stroke="#00DCE6" stroke-width="0.75" stroke-miterlimit="10" stroke-dasharray="1,1" d="M705.9,409.7
			L528.7,499.6L682.6,300.8l-43.399,196l-54.3-243.9l-56.2,243.7l-43.8-195.8L639,496.6L461.7,409.7"/>
		<path fill="none" stroke="#00DCE6" stroke-width="0.75" stroke-miterlimit="10" stroke-dasharray="1,1" d="M695.3,406.3
			L584.9,263.2L470.8,406.3"/>
		<path fill="#00DCE6" d="M691.6,317.7c10.601,0,19.2-8.601,19.2-19.2c0-10.6-8.6-19.2-19.2-19.2c-10.6,0-19.199,8.6-19.199,19.2
			C672.4,309.1,681.1,317.7,691.6,317.7z"/>
		<path fill="#00DCE6" d="M476,326.6c15.5,0,28-12.5,28-28c0-15.5-12.5-28-28-28s-28,12.5-28,28C448,314.1,460.5,326.6,476,326.6z"
			/>
		<path fill="#00DCE6" d="M713.2,434.4c10.6,0,19.2-8.601,19.2-19.2c0-10.601-8.601-19.2-19.2-19.2c-10.601,0-19.2,8.6-19.2,19.2
			C694,425.8,702.6,434.4,713.2,434.4z"/>
		<path fill="#00DCE6" d="M641.5,516.5c10.6,0,19.2-8.6,19.2-19.2c0-10.6-8.601-19.2-19.2-19.2s-19.2,8.601-19.2,19.2
			C622.3,507.9,630.9,516.5,641.5,516.5z"/>
		<path fill="#00DCE6" d="M526.3,516.5c10.601,0,19.2-8.6,19.2-19.2c0-10.6-8.6-19.2-19.2-19.2c-10.6,0-19.2,8.601-19.2,19.2
			C507.1,507.9,515.7,516.5,526.3,516.5z"/>
		<path fill="#00DCE6" d="M456.9,434.4c10.6,0,19.199-8.601,19.199-19.2c0-10.601-8.6-19.2-19.199-19.2
			c-10.601,0-19.2,8.6-19.2,19.2C437.7,425.8,446.3,434.4,456.9,434.4z"/>
		<path fill="#00DCE6" d="M584,262.5c10.6,0,19.2-8.6,19.2-19.2c0-10.6-8.601-19.2-19.2-19.2s-19.2,8.6-19.2,19.2
			C564.8,254,573.4,262.5,584,262.5z"/>
		<path fill="none" stroke="#00DCE6" stroke-width="2" stroke-linejoin="round" stroke-miterlimit="10" d="M585,509.3
			c73.344,0,132.8-59.456,132.8-132.8c0-73.343-59.456-132.8-132.8-132.8c-73.343,0-132.8,59.457-132.8,132.8
			C452.2,449.844,511.657,509.3,585,509.3z"/>
		
			<path fill="none" stroke="#00DCE6" stroke-width="0.75" stroke-linejoin="round" stroke-miterlimit="10" stroke-dasharray="1,1" d="
			M585,489.8c62.574,0,113.3-50.726,113.3-113.3S647.574,263.2,585,263.2s-113.3,50.726-113.3,113.3S522.426,489.8,585,489.8z"/>
		<path fill="none" stroke="#00DCE6" stroke-width="2" stroke-linejoin="round" stroke-miterlimit="10" d="M583.9,227.5V116.2"/>
		<path fill="none" stroke="#FFFFFF" stroke-miterlimit="10" d="M492,288h-33.1v20.2H492V288z"/>
		<path fill="none" stroke="#FFFFFF" stroke-miterlimit="10" d="M473.2,312.8v-4.7"/>
		<path fill="none" stroke="#FFFFFF" stroke-miterlimit="10" d="M477.9,308.1v4.7"/>
		<path fill="none" stroke="#FFFFFF" stroke-miterlimit="10" d="M468.5,312.8h13.9"/>
		<path fill="#00DCE6" d="M456.9,443.4c15.5,0,28-12.5,28-28s-12.5-28-28-28s-28,12.5-28,28C428.8,430.8,441.4,443.4,456.9,443.4z"
			/>
		<path fill="none" stroke="#FFFFFF" stroke-miterlimit="10" d="M472.9,404.7H439.8v20.2H472.9V404.7z"/>
		<path fill="none" stroke="#FFFFFF" stroke-miterlimit="10" d="M454,429.5v-4.6"/>
		<path fill="none" stroke="#FFFFFF" stroke-miterlimit="10" d="M458.7,424.9v4.6"/>
		<path fill="none" stroke="#FFFFFF" stroke-miterlimit="10" d="M449.3,429.5h14"/>
		<path fill="#00DCE6" d="M713.2,443.4c15.5,0,28-12.5,28-28s-12.5-28-28-28s-28,12.5-28,28C685,430.8,697.6,443.4,713.2,443.4z"/>
		<path fill="none" stroke="#FFFFFF" stroke-miterlimit="10" d="M729.2,404.7H696.1v20.2H729.2V404.7z"/>
		<path fill="none" stroke="#FFFFFF" stroke-miterlimit="10" d="M710.3,429.5v-4.6"/>
		<path fill="none" stroke="#FFFFFF" stroke-miterlimit="10" d="M715,424.9v4.6"/>
		<path fill="none" stroke="#FFFFFF" stroke-miterlimit="10" d="M705.6,429.5h13.9"/>
		<path fill="#00DCE6" d="M691.6,326.6c15.5,0,28-12.5,28-28c0-15.5-12.5-28-28-28s-28,12.5-28,28
			C663.6,314.1,676.1,326.6,691.6,326.6z"/>
		<path fill="none" stroke="#FFFFFF" stroke-miterlimit="10" d="M707.7,288H674.6v20.2H707.7V288z"/>
		<path fill="none" stroke="#FFFFFF" stroke-miterlimit="10" d="M688.8,312.8v-4.7"/>
		<path fill="none" stroke="#FFFFFF" stroke-miterlimit="10" d="M693.5,308.1v4.7"/>
		<path fill="none" stroke="#FFFFFF" stroke-miterlimit="10" d="M684.1,312.8H698"/>
		<path fill="#00DCE6" d="M638.6,527.4c15.5,0,28-12.5,28-28s-12.5-28-28-28s-28,12.5-28,28S623,527.4,638.6,527.4z"/>
		<path fill="none" stroke="#FFFFFF" stroke-miterlimit="10" d="M654.6,489.3h-33.1v20.2h33.1V489.3z"/>
		<path fill="none" stroke="#FFFFFF" stroke-miterlimit="10" d="M635.7,514.2v-4.7"/>
		<path fill="none" stroke="#FFFFFF" stroke-miterlimit="10" d="M640.4,509.5v4.7"/>
		<path fill="none" stroke="#FFFFFF" stroke-miterlimit="10" d="M631.1,514.2h14"/>
		<path fill="#00DCE6" d="M532.7,528c15.5,0,28-12.5,28-28s-12.5-28-28-28s-28,12.5-28,28C504.6,515.5,517.2,528,532.7,528z"/>
		<path fill="none" stroke="#FFFFFF" stroke-miterlimit="10" d="M548.6,489.3h-33.1v20.2h33.1V489.3z"/>
		<path fill="none" stroke="#FFFFFF" stroke-miterlimit="10" d="M529.9,514.2v-4.7"/>
		<path fill="none" stroke="#FFFFFF" stroke-miterlimit="10" d="M534.4,509.5v4.7"/>
		<path fill="none" stroke="#FFFFFF" stroke-miterlimit="10" d="M525.2,514.2H539.1"/>
		<path fill="#00DCE6" d="M585,271.6c15.5,0,28-12.5,28-28s-12.5-28-28-28s-28,12.5-28,28S569.5,271.6,585,271.6z"/>
		<path fill="none" stroke="#FFFFFF" stroke-miterlimit="10" d="M601,233.1h-33.1v20.2H601V233.1z"/>
		<path fill="none" stroke="#FFFFFF" stroke-miterlimit="10" d="M582.1,257.9v-4.6"/>
		<path fill="none" stroke="#FFFFFF" stroke-miterlimit="10" d="M586.8,253.3v4.6"/>
		<path fill="none" stroke="#FFFFFF" stroke-miterlimit="10" d="M577.4,257.9h14.1"/>
		<path fill="#FFFFFF" d="M583.1,443c35.181,0,63.7-28.519,63.7-63.7c0-35.18-28.52-63.7-63.7-63.7S519.4,344.12,519.4,379.3
			C519.4,414.481,547.919,443,583.1,443z"/>
		<path fill="#F5F5F5" d="M582.9,450c38.604,0,69.899-31.295,69.899-69.9c0-38.604-31.295-69.899-69.899-69.899
			c-38.605,0-69.9,31.295-69.9,69.899C513,418.705,544.295,450,582.9,450z"/>
		<path opacity="0.2" fill="#00DCE6" enable-background="new    " d="M582.9,450c38.604,0,69.899-31.295,69.899-69.9
			c0-38.604-31.295-69.899-69.899-69.899c-38.605,0-69.9,31.295-69.9,69.899C513,418.705,544.295,450,582.9,450z"/>
		<path fill="none" stroke="#00DCE6" stroke-miterlimit="10" d="M570.5,340.8c2.375,0,4.3-1.925,4.3-4.3s-1.925-4.3-4.3-4.3
			s-4.3,1.925-4.3,4.3S568.125,340.8,570.5,340.8z"/>
		<path fill="none" stroke="#00DCE6" stroke-miterlimit="10" d="M595.6,340.8c2.375,0,4.301-1.925,4.301-4.3s-1.926-4.3-4.301-4.3
			s-4.3,1.925-4.3,4.3S593.225,340.8,595.6,340.8z"/>
		<path fill="none" stroke="#00DCE6" stroke-miterlimit="10" d="M570.5,384.3c2.375,0,4.3-1.925,4.3-4.3s-1.925-4.3-4.3-4.3
			s-4.3,1.925-4.3,4.3S568.125,384.3,570.5,384.3z"/>
		<path fill="none" stroke="#00DCE6" stroke-miterlimit="10" d="M557.7,362.8c2.375,0,4.3-1.925,4.3-4.3s-1.925-4.3-4.3-4.3
			s-4.3,1.925-4.3,4.3S555.325,362.8,557.7,362.8z"/>
		<path fill="none" stroke="#00DCE6" stroke-miterlimit="10" d="M608.5,362.8c2.375,0,4.3-1.925,4.3-4.3s-1.925-4.3-4.3-4.3
			s-4.3,1.925-4.3,4.3S606.125,362.8,608.5,362.8z"/>
		<path fill="none" stroke="#00DCE6" stroke-miterlimit="10" d="M583,362.8c2.375,0,4.3-1.925,4.3-4.3s-1.925-4.3-4.3-4.3
			s-4.3,1.925-4.3,4.3S580.625,362.8,583,362.8z"/>
		<path fill="none" stroke="#00DCE6" stroke-miterlimit="10" d="M595.6,384.3c2.375,0,4.301-1.925,4.301-4.3s-1.926-4.3-4.301-4.3
			s-4.3,1.925-4.3,4.3S593.225,384.3,595.6,384.3z"/>
		<path fill="none" stroke="#00DCE6" stroke-miterlimit="10" d="M559.9,354.8l8.399-14.6"/>
		<path fill="none" stroke="#00DCE6" stroke-miterlimit="10" d="M575,336.5h16.5"/>
		<path fill="none" stroke="#00DCE6" stroke-miterlimit="10" d="M598.1,340.5l8.2,14.3"/>
		<path fill="none" stroke="#00DCE6" stroke-miterlimit="10" d="M606.3,362.3l-8.2,14.101"/>
		<path fill="none" stroke="#00DCE6" stroke-miterlimit="10" d="M590.9,380.4H574.8"/>
		<path fill="none" stroke="#00DCE6" stroke-miterlimit="10" d="M560,362.3l7.9,13.8"/>
		<path fill="none" stroke="#00DCE6" stroke-miterlimit="10" d="M581.5,362.3l-8.6,14.101"/>
		<path fill="none" stroke="#00DCE6" stroke-miterlimit="10" d="M585.2,354.8l8.8-14.3"/>
		<path fill="none" stroke="#00DCE6" stroke-miterlimit="10" d="M572.3,340.4l8.3,14.699"/>
		<path fill="none" stroke="#00DCE6" stroke-miterlimit="10" d="M585.5,362.1l7.8,14.301"/>
		<path fill="none" stroke="#00DCE6" stroke-miterlimit="10" d="M578.9,358.5H562"/>
		<path fill="none" stroke="#00DCE6" stroke-miterlimit="10" d="M604.5,358.5h-16.7"/>
		<path fill="#353A47" d="M627.5,44.5c0-24.5-19.9-44.4-44.4-44.4C558.6,0,538.7,19.9,538.7,44.5v57.3
			c0,24.5,19.899,44.4,44.399,44.4s44.4-19.9,44.4-44.4V44.5z"/>
		<path fill="#1F2432" d="M583.1,146.1c24.5,0,44.4-19.9,44.4-44.4c0-24.5-19.9-44.4-44.4-44.4S538.7,77.2,538.7,101.7
			C538.7,126.2,558.6,146.1,583.1,146.1z"/>
		<path fill="none" stroke="#00DCE6" stroke-miterlimit="10" d="M583.1,18.4c1.382,0,2.5-1.119,2.5-2.5s-1.118-2.5-2.5-2.5
			c-1.381,0-2.5,1.119-2.5,2.5S581.719,18.4,583.1,18.4z"/>
		<path fill="none" stroke="#00DCE6" stroke-miterlimit="10" d="M596.2,25.9c1.381,0,2.5-1.119,2.5-2.5s-1.119-2.5-2.5-2.5
			s-2.5,1.119-2.5,2.5S594.819,25.9,596.2,25.9z"/>
		<path fill="none" stroke="#00DCE6" stroke-miterlimit="10" d="M570.2,40.9c1.381,0,2.5-1.119,2.5-2.5s-1.119-2.5-2.5-2.5
			s-2.5,1.119-2.5,2.5S568.819,40.9,570.2,40.9z"/>
		<path fill="none" stroke="#00DCE6" stroke-miterlimit="10" d="M570,26c1.381,0,2.5-1.119,2.5-2.5S571.381,21,570,21
			s-2.5,1.119-2.5,2.5S568.619,26,570,26z"/>
		<path fill="none" stroke="#00DCE6" stroke-miterlimit="10" d="M596.3,41.1c1.381,0,2.5-1.119,2.5-2.5s-1.119-2.5-2.5-2.5
			s-2.5,1.119-2.5,2.5S594.919,41.1,596.3,41.1z"/>
		<path fill="none" stroke="#00DCE6" stroke-miterlimit="10" d="M583.1,33.5c1.382,0,2.5-1.119,2.5-2.5s-1.118-2.5-2.5-2.5
			c-1.381,0-2.5,1.119-2.5,2.5S581.719,33.5,583.1,33.5z"/>
		<path fill="none" stroke="#00DCE6" stroke-miterlimit="10" d="M583.3,48.4c1.381,0,2.5-1.119,2.5-2.5s-1.119-2.5-2.5-2.5
			s-2.5,1.119-2.5,2.5S581.919,48.4,583.3,48.4z"/>
		<path fill="none" stroke="#00DCE6" stroke-miterlimit="10" d="M572.2,22.2l8.7-5"/>
		<path fill="none" stroke="#00DCE6" stroke-miterlimit="10" d="M585.5,17.3l8.5,4.8"/>
		<path fill="none" stroke="#00DCE6" stroke-miterlimit="10" d="M596.2,26.1V36"/>
		<path fill="none" stroke="#00DCE6" stroke-miterlimit="10" d="M594.1,39.8l-8.5,5"/>
		<path fill="none" stroke="#00DCE6" stroke-miterlimit="10" d="M580.7,44.7l-8.5-4.8"/>
		<path fill="none" stroke="#00DCE6" stroke-miterlimit="10" d="M570.1,26.1l-0.1,9.5"/>
		<path fill="none" stroke="#00DCE6" stroke-miterlimit="10" d="M585.3,29.7l8.8-4.8"/>
		<path fill="none" stroke="#00DCE6" stroke-miterlimit="10" d="M580.9,29.8l-8.7-5"/>
		<path fill="none" stroke="#00DCE6" stroke-miterlimit="10" d="M583.1,33.4v10.1"/>
		<path fill="#353A47" d="M255.4,152.3c0-24.5-19.9-44.4-44.4-44.4s-44.4,19.9-44.4,44.4v57.3c0,24.5,19.9,44.4,44.4,44.4
			s44.4-19.9,44.4-44.4V152.3z"/>
		<path fill="#1F2432" d="M211,253.9c24.5,0,44.4-19.9,44.4-44.4s-19.9-44.4-44.4-44.4s-44.4,19.9-44.4,44.4S186.4,253.9,211,253.9z
			"/>
		<path fill="#353A47" d="M255.4,312c0-24.5-19.9-44.4-44.4-44.4s-44.4,19.9-44.4,44.4v57.3c0,24.5,19.9,44.4,44.4,44.4
			s44.4-19.9,44.4-44.4V312z"/>
		<path fill="#1F2432" d="M211,413.6c24.5,0,44.4-19.899,44.4-44.399s-19.9-44.4-44.4-44.4s-44.4,19.9-44.4,44.4
			S186.5,413.6,211,413.6z"/>
		<path fill="#353A47" d="M255.5,474.1c0-24.5-19.9-44.399-44.4-44.399S166.7,449.6,166.7,474.1V532.4
			c0,24.5,19.9,44.399,44.4,44.399s44.4-19.899,44.4-44.399V474.1z"/>
		<path fill="#1F2432" d="M211.1,576.7c24.5,0,44.4-19.9,44.4-44.4S235.6,487.9,211.1,487.9S166.7,507.8,166.7,532.3
			S186.5,576.7,211.1,576.7z"/>
		<path fill="#F5F5F5" stroke="#00DCE6" stroke-width="2" stroke-linejoin="round" stroke-miterlimit="10" d="M360,190.4h-56.1
			c-10.2,0-18.5-8.3-18.5-18.5c0-10.2,8.3-18.5,18.5-18.5H360c10.2,0,18.5,8.3,18.5,18.5C378.5,182,370.2,190.4,360,190.4z"/>
		<path fill="#F5F5F5" stroke="#00DCE6" stroke-width="2" stroke-linejoin="round" stroke-miterlimit="10" d="M360,354.8h-56.1
			c-10.2,0-18.5-8.3-18.5-18.5s8.3-18.5,18.5-18.5H360c10.2,0,18.5,8.3,18.5,18.5S370.2,354.8,360,354.8z"/>
		<path fill="#F5F5F5" stroke="#00DCE6" stroke-width="2" stroke-linejoin="round" stroke-miterlimit="10" d="M360,520.6h-56.1
			c-10.2,0-18.5-8.3-18.5-18.5c0-10.199,8.3-18.5,18.5-18.5H360c10.2,0,18.5,8.301,18.5,18.5C378.5,512.3,370.2,520.6,360,520.6z"/>
		<path fill="#F5F5F5" stroke="#00DCE6" stroke-width="2" stroke-linejoin="round" stroke-miterlimit="10" d="M865,190.4h-56.1
			c-10.2,0-18.5-8.3-18.5-18.5c0-10.2,8.3-18.5,18.5-18.5H865c10.2,0,18.5,8.3,18.5,18.5C883.5,182,875.2,190.4,865,190.4z"/>
		<path fill="#F5F5F5" stroke="#00DCE6" stroke-width="2" stroke-linejoin="round" stroke-miterlimit="10" d="M612,190.4h-56.1
			c-10.2,0-18.5-8.3-18.5-18.5c0-10.2,8.3-18.5,18.5-18.5H612c10.2,0,18.5,8.3,18.5,18.5C630.5,182,622.1,190.4,612,190.4z"/>
		<path fill="#F5F5F5" stroke="#00DCE6" stroke-width="2" stroke-linejoin="round" stroke-miterlimit="10" d="M865,354.8h-56.1
			c-10.2,0-18.5-8.3-18.5-18.5s8.3-18.5,18.5-18.5H865c10.2,0,18.5,8.3,18.5,18.5S875.2,354.8,865,354.8z"/>
		<path fill="#F5F5F5" stroke="#00DCE6" stroke-width="2" stroke-linejoin="round" stroke-miterlimit="10" d="M865,522h-56.1
			c-10.2,0-18.5-8.3-18.5-18.5s8.3-18.5,18.5-18.5H865c10.2,0,18.5,8.3,18.5,18.5S875.2,522,865,522z"/>
		<path fill="#353A47" d="M1002.8,152.3c0-24.5-19.899-44.4-44.399-44.4S914,127.8,914,152.3v57.3c0,24.5,19.9,44.4,44.4,44.4
			s44.399-19.9,44.399-44.4V152.3z"/>
		<path fill="#1F2432" d="M958.4,253.9c24.5,0,44.399-19.9,44.399-44.4S982.9,165.1,958.4,165.1S914,185,914,209.5
			S933.9,253.9,958.4,253.9z"/>
		<path fill="none" stroke="#00DCE6" stroke-miterlimit="10" d="M958.5,136.3c2.1,0,3.5-1.4,3.5-3.1v-1c0-1.7-1.4-3.1-3.5-3.1
			s-3.5,1.4-3.5,3.1v1C955,134.9,956.4,136.3,958.5,136.3z"/>
		<path fill="none" stroke="#00DCE6" stroke-miterlimit="10" d="M965.5,148.2v-5.4c0-3.5-4.6-4.2-7-4.2s-7,0.7-7,4.2v5.4"/>
		<path fill="none" stroke="#00DCE6" stroke-miterlimit="10" d="M958.3,154c8.229,0,14.9-6.671,14.9-14.9s-6.671-14.9-14.9-14.9
			c-8.229,0-14.899,6.671-14.899,14.9S950.071,154,958.3,154z"/>
		<path fill="none" stroke="#00DCE6" stroke-miterlimit="10" d="M972.1,152.8c7.601-7.6,7.601-19.8,0-27.4"/>
		<path fill="none" stroke="#00DCE6" stroke-miterlimit="10" d="M944.6,125.4c-7.6,7.6-7.6,19.8,0,27.4"/>
		<path fill="#353A47" d="M1002.8,312c0-24.5-19.899-44.4-44.399-44.4S914,287.5,914,312v57.3c0,24.5,19.9,44.4,44.4,44.4
			s44.399-19.9,44.399-44.4V312z"/>
		<path fill="#1F2432" d="M958.4,413.6c24.5,0,44.399-19.899,44.399-44.399S982.9,324.8,958.4,324.8S914,344.7,914,369.2
			S933.9,413.6,958.4,413.6z"/>
		<path fill="#353A47" d="M1002.8,475.1c0-24.5-19.899-44.399-44.399-44.399S914,450.6,914,475.1V533.4
			c0,24.5,19.9,44.399,44.4,44.399S1002.8,557.9,1002.8,533.4V475.1z"/>
		<path fill="#1F2432" d="M958.4,577.7c24.5,0,44.399-19.9,44.399-44.4S982.9,488.9,958.4,488.9S914,508.8,914,533.3
			S933.9,577.7,958.4,577.7z"/>
		<path fill="none" stroke="#00DCE6" stroke-miterlimit="10" d="M976.9,293.7l-1.801-4.4c-0.5-0.2-0.8-0.4-1.199-0.6l-2.2,0.7
			c-0.4-0.1-0.7-0.2-1.101-0.3c-0.8-1-1.699-1.9-2.699-2.7c-0.101-0.4-0.2-0.7-0.301-1.1l0.7-2.2c-0.2-0.5-0.399-0.8-0.6-1.2
			l-4.4-1.8c-0.5,0.2-0.8,0.3-1.3,0.5l-1,2c-0.4,0.2-0.7,0.3-1,0.5c-1.2-0.2-2.5-0.2-3.8,0c-0.4-0.2-0.7-0.3-1-0.5l-1-2
			c-0.5-0.2-0.8-0.3-1.3-0.5l-4.4,1.8c-0.2,0.5-0.4,0.8-0.6,1.2l0.699,2.2c-0.1,0.4-0.199,0.7-0.3,1.1c-1,0.8-1.899,1.7-2.7,2.7
			c-0.399,0.1-0.699,0.2-1.1,0.3l-2.2-0.7c-0.5,0.2-0.8,0.4-1.2,0.6l-1.8,4.4c0.2,0.5,0.3,0.8,0.5,1.3l2,1c0.2,0.4,0.3,0.7,0.5,1
			c-0.2,1.2-0.2,2.5,0,3.8c-0.2,0.4-0.3,0.7-0.5,1l-2,1c-0.2,0.5-0.3,0.8-0.5,1.3l1.8,4.4c0.5,0.2,0.801,0.4,1.2,0.6l2.2-0.699
			c0.4,0.1,0.7,0.199,1.1,0.3c0.801,1,1.7,1.899,2.7,2.7c0.101,0.399,0.2,0.699,0.3,1.1l-0.699,2.2c0.199,0.5,0.399,0.8,0.6,1.2
			l4.4,1.8c0.5-0.2,0.8-0.3,1.3-0.5l1-2c0.399-0.2,0.7-0.3,1-0.5c1.2,0.2,2.5,0.2,3.8,0c0.4,0.2,0.7,0.3,1,0.5l1,2
			c0.5,0.2,0.8,0.3,1.3,0.5l4.4-1.8c0.2-0.5,0.399-0.801,0.6-1.2l-0.7-2.2c0.101-0.4,0.2-0.7,0.301-1.1c1-0.801,1.899-1.7,2.699-2.7
			c0.4-0.101,0.7-0.2,1.101-0.3l2.2,0.699c0.5-0.199,0.8-0.399,1.199-0.6l1.801-4.4c-0.2-0.5-0.301-0.8-0.5-1.3l-2-1
			c-0.2-0.399-0.301-0.7-0.5-1c0.199-1.2,0.199-2.5,0-3.8c0.199-0.4,0.3-0.7,0.5-1l2-1C976.6,294.5,976.7,294.2,976.9,293.7z"/>
		<path fill="none" stroke="#00DCE6" stroke-miterlimit="10" d="M958.1,310.6c6.518,0,11.801-5.238,11.801-11.699
			c0-6.463-5.283-11.7-11.801-11.7c-6.517,0-11.8,5.237-11.8,11.7C946.3,305.361,951.583,310.6,958.1,310.6z"/>
		<path fill="none" stroke="#00DCE6" stroke-miterlimit="10" d="M963.9,293.8l-5.801,5.9l-3.399-3.4"/>
		<path fill="none" stroke="#00DCE6" stroke-miterlimit="10" d="M972.2,457.1c2.153,0,3.899-1.746,3.899-3.899
			c0-2.154-1.746-3.9-3.899-3.9c-2.154,0-3.9,1.746-3.9,3.9C968.3,455.354,970.046,457.1,972.2,457.1z"/>
		<path fill="none" stroke="#00DCE6" stroke-miterlimit="10" d="M945.1,457.1c2.154,0,3.9-1.746,3.9-3.899
			c0-2.154-1.746-3.9-3.9-3.9c-2.153,0-3.899,1.746-3.899,3.9C941.2,455.354,942.946,457.1,945.1,457.1z"/>
		<path fill="none" stroke="#00DCE6" stroke-miterlimit="10" d="M958.4,481.2c2.153,0,3.899-1.746,3.899-3.9
			c0-2.153-1.746-3.899-3.899-3.899c-2.154,0-3.9,1.746-3.9,3.899C954.5,479.454,956.246,481.2,958.4,481.2z"/>
		<path fill="none" stroke="#00DCE6" stroke-miterlimit="10" stroke-dasharray="5,5" d="M970.2,450.3c-2.9-3-7-4.899-11.5-4.899
			c-4.4,0-8.4,1.8-11.3,4.699"/>
		<path fill="none" stroke="#00DCE6" stroke-miterlimit="10" stroke-dasharray="5,5" d="M962.2,477c7.1-1.6,12.399-8,12.399-15.6
			c0-1.601-0.199-3.2-0.699-4.601"/>
		<path fill="none" stroke="#00DCE6" stroke-miterlimit="10" stroke-dasharray="5,5" d="M943.3,457.1
			c-0.399,1.4-0.6,2.801-0.6,4.301c0,7.399,5,13.6,11.8,15.399"/>
		<path fill="none" stroke="#00DCE6" stroke-miterlimit="10" d="M215.7,155l4.3-1.9l-1.5-3.3c1.5-1.1,2.8-2.4,3.7-4l3.4,1.3l1.6-4.4
			l-3.4-1.3c0.3-1.8,0.3-3.6-0.2-5.4l3.3-1.5l-1.9-4.3l-3.3,1.5c-1.1-1.5-2.4-2.8-4-3.7l1.3-3.4l-4.4-1.6l-1.3,3.4
			c-1.8-0.3-3.6-0.3-5.4,0.2l-1.5-3.3l-4.3,1.9l1.5,3.3c-1.5,1.1-2.8,2.4-3.7,4l-3.4-1.3l-1.6,4.4l3.4,1.3c-0.3,1.8-0.3,3.6,0.2,5.4
			l-3.3,1.5l1.9,4.3l3.3-1.5c1.1,1.5,2.4,2.8,4,3.7l-1.3,3.4l4.4,1.6l1.3-3.4c1.8,0.3,3.6,0.3,5.4-0.2L215.7,155z"/>
		<path fill="none" stroke="#00DCE6" stroke-miterlimit="10" d="M211,146.8c4.252,0,7.7-3.447,7.7-7.7s-3.448-7.7-7.7-7.7
			c-4.253,0-7.7,3.447-7.7,7.7S206.747,146.8,211,146.8z"/>
		<path fill="none" stroke="#00DCE6" stroke-miterlimit="10" d="M211.1,144.5c3,0,5.4-2.5,5.4-5.5"/>
		<path fill="none" stroke="#00DCE6" stroke-miterlimit="10" d="M211,133.6c-3,0-5.4,2.5-5.4,5.5"/>
		<path fill="none" stroke="#00DCE6" stroke-miterlimit="10" d="M211,444.5c1.5,2.1,11.4,6.5,15.5,6.5c0,7.1,0,9.4,0,15.5
			c0,7.3-14.6,15.5-15.5,15.5s-15.5-8.2-15.5-15.5c0-6.1,0-8.4,0-15.5C199.5,451.1,209.5,446.7,211,444.5z"/>
		<path fill="none" stroke="#00DCE6" stroke-miterlimit="10" d="M211,448.2c1.2,1.7,9.1,5.2,12.4,5.2c0,5.699,0,7.5,0,12.399
			c0,5.8-11.7,12.4-12.4,12.4s-12.4-6.601-12.4-12.4c0-4.899,0-6.7,0-12.399C201.8,453.5,209.8,450,211,448.2z"/>
		<path fill="none" stroke="#00DCE6" stroke-miterlimit="10" d="M217.5,456.7l-8.1,8.1l-3.2-3.1l-2.5,2.399l5.6,5.7l10.7-10.6
			L217.5,456.7z"/>
		<path fill="none" stroke="#00DCE6" stroke-miterlimit="10" d="M219.7,317.1h-17.5c-2.6,0-4.7-2.1-4.7-4.699V297h26.9v15.5
			C224.4,315,222.3,317.1,219.7,317.1z"/>
		<path fill="none" stroke="#00DCE6" stroke-miterlimit="10" d="M202.9,287.5c0-3.7,3.6-6.7,8.1-6.7s8.1,3,8.1,6.7v9.4H203v-9.4
			H202.9z"/>
		<path fill="none" stroke="#00DCE6" stroke-miterlimit="10" d="M204.3,304.7c1.3-1.3,3.4-1.3,4.8,0c0.3,0.3,0.6,0.8,0.8,1.2h7.6
			l1.2,1.199l-0.3,1.5h-1.8L216,308h-0.6l-0.6,0.6h-0.6l-0.6-0.6H213l-0.6,0.6h-2.6c-0.2,0.301-0.4,0.601-0.6,0.9
			c-1.3,1.3-3.4,1.3-4.8,0S203,306,204.3,304.7z"/>
		<path fill="none" stroke="#00DCE6" stroke-miterlimit="10" d="M206.5,307.7c0.331,0,0.6-0.269,0.6-0.601s-0.269-0.6-0.6-0.6
			s-0.6,0.268-0.6,0.6S206.169,307.7,206.5,307.7z"/>
		<path fill="#00DCE6" fill-opacity="0.2" d="M448,309.3c5.5,0,9.9-4.399,9.9-9.899s-4.4-9.9-9.9-9.9s-9.9,4.4-9.9,9.9
			S442.6,309.3,448,309.3z"/>
		<path fill="#00DCE6" d="M448,303.4c2.2,0,3.9-1.801,3.9-3.9s-1.801-3.9-3.9-3.9c-2.2,0-3.9,1.801-3.9,3.9S445.8,303.4,448,303.4z"
			/>
		<path fill="#00DCE6" fill-opacity="0.2" d="M584,225.5c5.5,0,9.9-4.4,9.9-9.9s-4.4-9.9-9.9-9.9s-9.9,4.4-9.9,9.9
			S578.6,225.5,584,225.5z"/>
		<path fill="#00DCE6" d="M584,219.6c2.2,0,3.9-1.8,3.9-3.9c0-2.1-1.801-3.9-3.9-3.9c-2.2,0-3.9,1.8-3.9,3.9
			C580.1,217.8,581.8,219.6,584,219.6z"/>
		<path fill="#00DCE6" fill-opacity="0.2" d="M429.5,427.9c5.5,0,9.9-4.4,9.9-9.9s-4.4-9.9-9.9-9.9s-9.9,4.4-9.9,9.9
			S424,427.9,429.5,427.9z"/>
		<path fill="#00DCE6" d="M429.5,422c2.2,0,3.9-1.8,3.9-3.9c0-2.1-1.801-3.899-3.9-3.899c-2.2,0-3.9,1.8-3.9,3.899
			C425.6,420.2,427.3,422,429.5,422z"/>
		<path fill="#00DCE6" fill-opacity="0.2" d="M504.7,512c5.5,0,9.899-4.4,9.899-9.9S510.2,492.2,504.7,492.2s-9.9,4.399-9.9,9.899
			S499.3,512,504.7,512z"/>
		<path fill="#00DCE6" d="M504.7,506.1c2.2,0,3.899-1.8,3.899-3.899c0-2.101-1.8-3.9-3.899-3.9c-2.2,0-3.9,1.8-3.9,3.9
			C500.8,504.3,502.5,506.1,504.7,506.1z"/>
		<text transform="matrix(1 0 0 1 308 176.5)" font-family="'MicrosoftYaHei-Bold'" font-size="13">供应商A</text>
		<text transform="matrix(1 0 0 1 813 175.5)" font-family="'MicrosoftYaHei-Bold'" font-size="13">供应商B</text>
		<text transform="matrix(1 0 0 1 308 339.5)" font-family="'MicrosoftYaHei-Bold'" font-size="13">贸易商A</text>
		<text transform="matrix(1 0 0 1 814 339.5)" font-family="'MicrosoftYaHei-Bold'" font-size="13">贸易商B</text>
		<text transform="matrix(1 0 0 1 314 506.5)" font-family="'MicrosoftYaHei-Bold'" font-size="13">银行A</text>
		<text transform="matrix(1 0 0 1 820 506.5)" font-family="'MicrosoftYaHei-Bold'" font-size="13">银行B</text>
		<text transform="matrix(1 0 0 1 570 174.8999)" font-family="'MicrosoftYaHei-Bold'" font-size="13">公司</text>
		<text transform="matrix(1 0 0 1 556 410.5)"><tspan x="0" y="0" font-family="'MicrosoftYaHei-Bold'" font-size="14">去中心化</tspan><tspan x="14" y="16.8" font-family="'MicrosoftYaHei-Bold'" font-size="14">账本</tspan></text>
		<text transform="matrix(1 0 0 1 553 106.5)" fill="#FFFFFF" font-family="'MicrosoftYaHei-Bold'" font-size="15">去中心化</text>
		<text transform="matrix(1 0 0 1 640 62.5)"><tspan x="0" y="0" font-family="'MicrosoftYaHeiLight'" font-size="12">网络中的每一个</tspan><tspan x="0" y="14.4" font-family="'MicrosoftYaHeiLight'" font-size="12">成员，都拥有完整</tspan><tspan x="0" y="28.8" font-family="'MicrosoftYaHeiLight'" font-size="12">的去中心化的账本</tspan></text>
		<text transform="matrix(1 0 0 1 184 214.5)" fill="#FFFFFF" font-family="'MicrosoftYaHei-Bold'" font-size="15">可编程的</text>
		<text transform="matrix(1 0 0 1 199 375.5)" fill="#FFFFFF" font-family="'MicrosoftYaHei-Bold'" font-size="15">安全</text>
		<text transform="matrix(1 0 0 1 184 537.5)" fill="#FFFFFF" font-family="'MicrosoftYaHei-Bold'" font-size="15">无法篡改</text>
		<text transform="matrix(1 0 0 1 943 214.5)" fill="#FFFFFF" font-family="'MicrosoftYaHei-Bold'" font-size="15">匿名</text>
		<text transform="matrix(1 0 0 1 936 375.5)" fill="#FFFFFF" font-family="'MicrosoftYaHei-Bold'" font-size="15">时间戳</text>
		<text transform="matrix(1 0 0 1 943 537.5)" fill="#FFFFFF" font-family="'MicrosoftYaHei-Bold'" font-size="15">共识</text>
		<text transform="matrix(1 0 0 1 66 160.5)"><tspan x="0" y="0" font-family="'MicrosoftYaHeiLight'" font-size="12">区块链平台是</tspan><tspan x="0" y="14.4" font-family="'MicrosoftYaHeiLight'" font-size="12">可编程的</tspan><tspan x="0" y="28.8" font-family="'MicrosoftYaHeiLight'" font-size="12">(智能合约)</tspan></text>
		<text transform="matrix(1 0 0 1 66 326.6719)"><tspan x="0" y="0" font-family="'MicrosoftYaHeiLight'" font-size="12">所有的记录</tspan><tspan x="0" y="14.4" font-family="'MicrosoftYaHeiLight'" font-size="12">都经过单独</tspan><tspan x="0" y="28.8" font-family="'MicrosoftYaHeiLight'" font-size="12">的加密</tspan></text>
		<text transform="matrix(1 0 0 1 66 471.5)"><tspan x="0" y="0" font-family="'MicrosoftYaHeiLight'" font-size="12">任何经过网络</tspan><tspan x="0" y="14.4" font-family="'MicrosoftYaHeiLight'" font-size="12">中的成员验证</tspan><tspan x="0" y="28.8" font-family="'MicrosoftYaHeiLight'" font-size="12">通过后并打包</tspan><tspan x="0" y="43.2" font-family="'MicrosoftYaHeiLight'" font-size="12">进区块的记录</tspan><tspan x="0" y="57.6" font-family="'MicrosoftYaHeiLight'" font-size="12">都是无法篡改</tspan><tspan x="0" y="72" font-family="'MicrosoftYaHeiLight'" font-size="12">的</tspan></text>
		<text transform="matrix(1 0 0 1 1054 167.8999)"><tspan x="0" y="0" font-family="'MicrosoftYaHeiLight'" font-size="12">参与者的身份</tspan><tspan x="0" y="14.4" font-family="'MicrosoftYaHeiLight'" font-size="12">可以是匿名</tspan></text>
		<text transform="matrix(1 0 0 1 1054 324.6719)"><tspan x="0" y="0" font-family="'MicrosoftYaHeiLight'" font-size="12">交易（事务）的</tspan><tspan x="0" y="14.4" font-family="'MicrosoftYaHeiLight'" font-size="12">时间戳记录在一</tspan><tspan x="0" y="28.8" font-family="'MicrosoftYaHeiLight'" font-size="12">个区块中</tspan></text>
		<text transform="matrix(1 0 0 1 1053 492.5)"><tspan x="0" y="0" font-family="'MicrosoftYaHeiLight'" font-size="12">所有的网络参与者</tspan><tspan x="0" y="14.4" font-family="'MicrosoftYaHeiLight'" font-size="12">都同意每一次事务</tspan><tspan x="0" y="28.8" font-family="'MicrosoftYaHeiLight'" font-size="12">的有效性</tspan></text>
	</g>
</g>
</svg>
