<svg width="326" height="203" viewBox="0 0 326 203" fill="none" xmlns="http://www.w3.org/2000/svg">
<path d="M236.1 135.7L167.2 153.8L284 87.7002L96.6001 137L305.7 22.7002L49.4001 88.4002L27.8 23.3002" stroke="#00DCE6" stroke-width="0.5" stroke-miterlimit="10" stroke-dasharray="1 1"/>
<path d="M97.5 135.7L166.4 153.8L49.6 87.7002L236.9 137L27.8 22.7002L284.1 88.4002L305.7 23.3002" stroke="#00DCE6" stroke-width="0.5" stroke-miterlimit="10" stroke-dasharray="1 1"/>
<path d="M27.8 49.0998C23.1 49.0998 19.4 45.3998 19.4 40.6998C19.4 35.9998 23.1 32.2998 27.8 32.2998C32.5 32.2998 36.2 35.9998 36.2 40.6998C36.2 45.3998 32.4 49.0998 27.8 49.0998Z" fill="#00DCE6" fill-opacity="0.2"/>
<path d="M27.8 44.1C25.9 44.1 24.5 42.6 24.5 40.8C24.5 39 26 37.5 27.8 37.5C29.7 37.5 31.1 39 31.1 40.8C31.2 42.5 29.7 44.1 27.8 44.1Z" fill="#00DCE6"/>
<path d="M28.4 40.7C37.4 40.7 44.7 33.4 44.7 24.4C44.7 15.4 37.4 8 28.4 8C19.4 8 12 15.3 12 24.4C12 33.5 19.3 40.7 28.4 40.7Z" fill="#00DCE6"/>
<path d="M49.5 113.199C44.8 113.199 41.1 109.499 41.1 104.799C41.1 100.099 44.8 96.3994 49.5 96.3994C54.2 96.3994 57.9 100.099 57.9 104.799C57.9 109.399 54.1 113.199 49.5 113.199Z" fill="#00DCE6" fill-opacity="0.2"/>
<path d="M49.5 108.2C47.6 108.2 46.2 106.7 46.2 104.9C46.2 103.1 47.7 101.6 49.5 101.6C51.4 101.6 52.7999 103.1 52.7999 104.9C52.7999 106.6 51.4 108.2 49.5 108.2Z" fill="#00DCE6"/>
<path d="M50 104.8C59 104.8 66.3 97.4996 66.3 88.4996C66.3 79.4996 59 72.0996 50 72.0996C41 72.0996 33.7 79.3996 33.7 88.3996C33.7 97.3996 41 104.8 50 104.8Z" fill="#00DCE6"/>
<path d="M96.9 161.2C92.2 161.2 88.5 157.5 88.5 152.8C88.5 148.1 92.2 144.4 96.9 144.4C101.6 144.4 105.3 148.1 105.3 152.8C105.3 157.5 101.5 161.2 96.9 161.2Z" fill="#00DCE6" fill-opacity="0.2"/>
<path d="M96.9 156.201C95 156.201 93.6 154.701 93.6 152.901C93.6 151.101 95.1 149.601 96.9 149.601C98.8 149.601 100.2 151.101 100.2 152.901C100.2 154.701 98.8 156.201 96.9 156.201Z" fill="#00DCE6"/>
<path d="M97.4 152.8C106.4 152.8 113.7 145.5 113.7 136.5C113.7 127.5 106.4 120.2 97.4 120.2C88.4 120.2 81.1 127.5 81.1 136.5C81.1 145.5 88.4 152.8 97.4 152.8Z" fill="#00DCE6"/>
<path d="M297.3 40.6998C297.3 35.9998 301 32.2998 305.7 32.2998C310.4 32.2998 314.1 35.9998 314.1 40.6998C314.1 45.3998 310.4 49.0998 305.7 49.0998C301.1 49.0998 297.3 45.2998 297.3 40.6998Z" fill="#00DCE6" fill-opacity="0.2"/>
<path d="M302.4 40.8C302.4 39 303.8 37.5 305.7 37.5C307.5 37.5 309 39 309 40.8C309 42.6 307.6 44.1 305.7 44.1C303.8 44.1 302.4 42.5 302.4 40.8Z" fill="#00DCE6"/>
<path d="M321.5 24.3996C321.5 15.3996 314.2 8.09961 305.2 8.09961C296.2 8.09961 288.9 15.3996 288.9 24.3996C288.9 33.3996 296.2 40.6996 305.2 40.6996C314.2 40.6996 321.5 33.3996 321.5 24.3996Z" fill="#00DCE6"/>
<path d="M275.6 104.799C275.6 100.099 279.3 96.3994 284 96.3994C288.7 96.3994 292.4 100.099 292.4 104.799C292.4 109.499 288.7 113.199 284 113.199C279.5 113.199 275.6 109.399 275.6 104.799Z" fill="#00DCE6" fill-opacity="0.2"/>
<path d="M280.7 104.799C280.7 102.999 282.1 101.499 284 101.499C285.8 101.499 287.3 102.999 287.3 104.799C287.3 106.599 285.9 108.099 284 108.099C282.2 108.199 280.7 106.599 280.7 104.799Z" fill="#00DCE6"/>
<path d="M299.9 88.3996C299.9 79.3996 292.6 72.0996 283.6 72.0996C274.6 72.0996 267.3 79.3996 267.3 88.3996C267.3 97.3996 274.6 104.7 283.6 104.7C292.5 104.8 299.9 97.4996 299.9 88.3996Z" fill="#00DCE6"/>
<path d="M228.2 152.8C228.2 148.1 231.9 144.4 236.6 144.4C241.3 144.4 245 148.1 245 152.8C245 157.5 241.3 161.2 236.6 161.2C232 161.2 228.2 157.5 228.2 152.8Z" fill="#00DCE6" fill-opacity="0.2"/>
<path d="M233.3 152.901C233.3 151.101 234.7 149.601 236.6 149.601C238.4 149.601 239.9 151.101 239.9 152.901C239.9 154.701 238.5 156.201 236.6 156.201C234.7 156.201 233.3 154.701 233.3 152.901Z" fill="#00DCE6"/>
<path d="M252.4 136.5C252.4 127.5 245.1 120.2 236.1 120.2C227.1 120.2 219.8 127.5 219.8 136.5C219.8 145.5 227.1 152.8 236.1 152.8C245.1 152.8 252.4 145.5 252.4 136.5Z" fill="#00DCE6"/>
<path d="M166.6 178.1C161.9 178.1 158.2 174.4 158.2 169.7C158.2 165 161.9 161.3 166.6 161.3C171.3 161.3 175 165 175 169.7C175 174.3 171.2 178.1 166.6 178.1Z" fill="#00DCE6" fill-opacity="0.2"/>
<path d="M166.6 173.1C164.7 173.1 163.3 171.6 163.3 169.8C163.3 168 164.8 166.5 166.6 166.5C168.5 166.5 169.9 168 169.9 169.8C169.9 171.5 168.5 173.1 166.6 173.1Z" fill="#00DCE6"/>
<path d="M167.1 169.7C176.1 169.7 183.4 162.4 183.4 153.4C183.4 144.4 176.1 137.1 167.1 137.1C158.1 137.1 150.8 144.4 150.8 153.4C150.8 162.3 158.1 169.7 167.1 169.7Z" fill="#00DCE6"/>
<path d="M305.4 17.4004C305.4 94.0004 243.3 156 166.8 156C90.3 156 28.1 94.0004 28.1 17.4004" stroke="#00DCE6" stroke-width="2" stroke-miterlimit="10" stroke-linejoin="round"/>
<path d="M165.1 113.2C194.979 113.2 219.2 88.9786 219.2 59.1C219.2 29.2214 194.979 5 165.1 5C135.221 5 111 29.2214 111 59.1C111 88.9786 135.221 113.2 165.1 113.2Z" fill="white"/>
<path d="M165.1 119.2C197.906 119.2 224.5 92.6061 224.5 59.8004C224.5 26.9947 197.906 0.400391 165.1 0.400391C132.294 0.400391 105.7 26.9947 105.7 59.8004C105.7 92.6061 132.294 119.2 165.1 119.2Z" fill="#F5F5F5"/>
<path opacity="0.2" d="M165.1 119.2C197.906 119.2 224.5 92.6061 224.5 59.8004C224.5 26.9947 197.906 0.400391 165.1 0.400391C132.294 0.400391 105.7 26.9947 105.7 59.8004C105.7 92.6061 132.294 119.2 165.1 119.2Z" fill="#00DCE6"/>
<path d="M129.237 86.2373V77.7771H131.84C132.584 77.7771 133.248 77.9457 133.833 78.2827C134.422 78.6158 134.881 79.0923 135.21 79.7121C135.539 80.328 135.704 81.0291 135.704 81.8155V82.2048C135.704 82.9911 135.541 83.6903 135.216 84.3024C134.894 84.9144 134.439 85.389 133.85 85.726C133.262 86.063 132.597 86.2334 131.857 86.2373H129.237ZM130.98 79.1891V84.837H131.823C132.504 84.837 133.025 84.6142 133.386 84.1688C133.746 83.7233 133.93 83.0861 133.938 82.2571V81.8097C133.938 80.9497 133.759 80.2989 133.403 79.8573C133.047 79.4118 132.526 79.1891 131.84 79.1891H130.98ZM138.83 86.2373H137.087V77.7771H138.83V86.2373ZM144.838 84.0177C144.838 83.6884 144.722 83.4366 144.49 83.2623C144.257 83.0841 143.839 82.8982 143.234 82.7045C142.63 82.5069 142.152 82.3132 141.799 82.1234C140.839 81.6044 140.358 80.9052 140.358 80.0258C140.358 79.5687 140.486 79.162 140.742 78.8056C141.001 78.4454 141.371 78.1645 141.852 77.9631C142.336 77.7617 142.878 77.6609 143.478 77.6609C144.083 77.6609 144.621 77.7713 145.094 77.9921C145.566 78.2091 145.932 78.517 146.192 78.916C146.455 79.315 146.587 79.7682 146.587 80.2757H144.844C144.844 79.8883 144.722 79.5881 144.478 79.375C144.234 79.1581 143.891 79.0497 143.449 79.0497C143.023 79.0497 142.692 79.1407 142.456 79.3228C142.22 79.5009 142.101 79.7372 142.101 80.0316C142.101 80.3067 142.239 80.5372 142.514 80.7231C142.793 80.909 143.201 81.0833 143.74 81.246C144.732 81.5443 145.454 81.9143 145.907 82.3559C146.36 82.7975 146.587 83.3475 146.587 84.0061C146.587 84.7382 146.31 85.3134 145.756 85.7318C145.202 86.1463 144.457 86.3535 143.519 86.3535C142.868 86.3535 142.276 86.2354 141.741 85.9991C141.207 85.7589 140.798 85.4316 140.515 85.0171C140.236 84.6026 140.097 84.1223 140.097 83.5761H141.846C141.846 84.5096 142.404 84.9764 143.519 84.9764C143.934 84.9764 144.257 84.8931 144.49 84.7266C144.722 84.5561 144.838 84.3198 144.838 84.0177ZM154.141 79.1891H151.549V86.2373H149.806V79.1891H147.25V77.7771H154.141V79.1891ZM158.272 83.1403H156.883V86.2373H155.14V77.7771H158.284C159.283 77.7771 160.054 77.9999 160.596 78.4454C161.139 78.8908 161.41 79.5203 161.41 80.3338C161.41 80.911 161.284 81.3932 161.032 81.7806C160.784 82.1641 160.407 82.4701 159.899 82.6987L161.729 86.156V86.2373H159.858L158.272 83.1403ZM156.883 81.7283H158.29C158.727 81.7283 159.066 81.6179 159.306 81.3971C159.547 81.1724 159.667 80.8645 159.667 80.4732C159.667 80.0743 159.552 79.7605 159.324 79.5319C159.099 79.3034 158.752 79.1891 158.284 79.1891H156.883V81.7283ZM164.594 86.2373H162.851V77.7771H164.594V86.2373ZM166.215 86.2373V77.7771H169.179C170.205 77.7771 170.984 77.9747 171.514 78.3698C172.045 78.7611 172.31 79.3363 172.31 80.0956C172.31 80.51 172.204 80.8761 171.991 81.1938C171.778 81.5075 171.481 81.738 171.102 81.8852C171.536 81.9937 171.877 82.2125 172.124 82.5418C172.376 82.8711 172.502 83.2739 172.502 83.7504C172.502 84.5639 172.243 85.1798 171.724 85.5981C171.204 86.0165 170.465 86.2296 169.504 86.2373H166.215ZM167.958 82.5534V84.837H169.452C169.862 84.837 170.182 84.7401 170.41 84.5464C170.643 84.3489 170.759 84.0777 170.759 83.733C170.759 82.9582 170.358 82.565 169.556 82.5534H167.958ZM167.958 81.3216H169.248C170.128 81.3061 170.567 80.9555 170.567 80.2699C170.567 79.8864 170.455 79.6113 170.23 79.4448C170.009 79.2743 169.659 79.1891 169.179 79.1891H167.958V81.3216ZM180.219 77.7771V83.3495C180.219 84.2753 179.928 85.0074 179.347 85.5458C178.77 86.0843 177.98 86.3535 176.976 86.3535C175.988 86.3535 175.204 86.092 174.623 85.5691C174.042 85.0461 173.746 84.3276 173.734 83.4134V77.7771H175.477V83.3611C175.477 83.915 175.609 84.3198 175.872 84.5755C176.14 84.8273 176.508 84.9532 176.976 84.9532C177.956 84.9532 178.454 84.438 178.47 83.4076V77.7771H180.219ZM188.016 79.1891H185.425V86.2373H183.682V79.1891H181.125V77.7771H188.016V79.1891ZM194.106 82.5708H190.759V84.837H194.687V86.2373H189.016V77.7771H194.675V79.1891H190.759V81.2054H194.106V82.5708ZM195.709 86.2373V77.7771H198.313C199.056 77.7771 199.721 77.9457 200.306 78.2827C200.894 78.6158 201.353 79.0923 201.683 79.7121C202.012 80.328 202.177 81.0291 202.177 81.8155V82.2048C202.177 82.9911 202.014 83.6903 201.689 84.3024C201.367 84.9144 200.912 85.389 200.323 85.726C199.734 86.063 199.07 86.2334 198.33 86.2373H195.709ZM197.453 79.1891V84.837H198.295C198.977 84.837 199.498 84.6142 199.858 84.1688C200.218 83.7233 200.402 83.0861 200.41 82.2571V81.8097C200.41 80.9497 200.232 80.2989 199.876 79.8573C199.519 79.4118 198.998 79.1891 198.313 79.1891H197.453Z" fill="#1F2432"/>
<path d="M145.774 99.5391H149.475V100.939H144.031V92.4793H145.774V99.5391ZM155.571 97.273H152.224V99.5391H156.152V100.939H150.48V92.4793H156.14V93.8913H152.224V95.9075H155.571V97.273ZM157.174 100.939V92.4793H159.777C160.521 92.4793 161.185 92.6478 161.77 92.9848C162.359 93.318 162.818 93.7944 163.147 94.4142C163.477 95.0301 163.641 95.7313 163.641 96.5176V96.9069C163.641 97.6933 163.479 98.3925 163.153 99.0045C162.832 99.6166 162.377 100.091 161.788 100.428C161.199 100.765 160.535 100.936 159.795 100.939H157.174ZM158.917 93.8913V99.5391H159.76C160.442 99.5391 160.963 99.3164 161.323 98.8709C161.683 98.4254 161.867 97.7882 161.875 96.9592V96.5118C161.875 95.6519 161.697 95.0011 161.34 94.5595C160.984 94.114 160.463 93.8913 159.777 93.8913H158.917ZM171.608 99.8703C171.294 100.246 170.85 100.539 170.277 100.748C169.704 100.953 169.068 101.056 168.371 101.056C167.639 101.056 166.996 100.897 166.442 100.579C165.892 100.258 165.466 99.7928 165.164 99.1847C164.865 98.5765 164.712 97.8618 164.705 97.0406V96.4653C164.705 95.6209 164.846 94.8907 165.129 94.2748C165.416 93.655 165.826 93.1824 166.361 92.857C166.899 92.5277 167.529 92.3631 168.249 92.3631C169.252 92.3631 170.037 92.6033 170.602 93.0836C171.168 93.5601 171.503 94.2554 171.608 95.1696H169.911C169.833 94.6854 169.661 94.3309 169.394 94.1063C169.13 93.8816 168.766 93.7692 168.301 93.7692C167.709 93.7692 167.257 93.992 166.948 94.4375C166.638 94.8829 166.481 95.5453 166.477 96.4247V96.965C166.477 97.8521 166.645 98.5223 166.982 98.9755C167.319 99.4287 167.813 99.6553 168.464 99.6553C169.119 99.6553 169.586 99.5159 169.864 99.237V97.7785H168.278V96.4944H171.608V99.8703ZM178.115 97.273H174.769V99.5391H178.696V100.939H173.025V92.4793H178.685V93.8913H174.769V95.9075H178.115V97.273ZM182.851 97.8424H181.462V100.939H179.719V92.4793H182.863C183.862 92.4793 184.633 92.702 185.175 93.1475C185.718 93.593 185.989 94.2225 185.989 95.0359C185.989 95.6131 185.863 96.0954 185.611 96.4828C185.363 96.8663 184.985 97.1723 184.478 97.4008L186.308 100.858V100.939H184.437L182.851 97.8424ZM181.462 96.4305H182.868C183.306 96.4305 183.645 96.3201 183.885 96.0993C184.125 95.8746 184.246 95.5666 184.246 95.1754C184.246 94.7764 184.131 94.4626 183.903 94.2341C183.678 94.0055 183.331 93.8913 182.863 93.8913H181.462V96.4305Z" fill="#1F2432"/>
<path d="M154.4 26.4C156.444 26.4 158.1 24.7435 158.1 22.7C158.1 20.6565 156.444 19 154.4 19C152.357 19 150.7 20.6565 150.7 22.7C150.7 24.7435 152.357 26.4 154.4 26.4Z" stroke="#00DCE6" stroke-miterlimit="10"/>
<path d="M175.8 26.4C177.844 26.4 179.5 24.7435 179.5 22.7C179.5 20.6565 177.844 19 175.8 19C173.757 19 172.1 20.6565 172.1 22.7C172.1 24.7435 173.757 26.4 175.8 26.4Z" stroke="#00DCE6" stroke-miterlimit="10"/>
<path d="M154.4 63.4C156.444 63.4 158.1 61.7435 158.1 59.7C158.1 57.6565 156.444 56 154.4 56C152.357 56 150.7 57.6565 150.7 59.7C150.7 61.7435 152.357 63.4 154.4 63.4Z" stroke="#00DCE6" stroke-miterlimit="10"/>
<path d="M143.6 45.1002C145.643 45.1002 147.3 43.4436 147.3 41.4002C147.3 39.3567 145.643 37.7002 143.6 37.7002C141.557 37.7002 139.9 39.3567 139.9 41.4002C139.9 43.4436 141.557 45.1002 143.6 45.1002Z" stroke="#00DCE6" stroke-miterlimit="10"/>
<path d="M186.7 45.1002C188.743 45.1002 190.4 43.4436 190.4 41.4002C190.4 39.3567 188.743 37.7002 186.7 37.7002C184.657 37.7002 183 39.3567 183 41.4002C183 43.4436 184.657 45.1002 186.7 45.1002Z" stroke="#00DCE6" stroke-miterlimit="10"/>
<path d="M165.1 45.1002C167.143 45.1002 168.8 43.4436 168.8 41.4002C168.8 39.3567 167.143 37.7002 165.1 37.7002C163.057 37.7002 161.4 39.3567 161.4 41.4002C161.4 43.4436 163.057 45.1002 165.1 45.1002Z" stroke="#00DCE6" stroke-miterlimit="10"/>
<path d="M175.8 63.4C177.844 63.4 179.5 61.7435 179.5 59.7C179.5 57.6565 177.844 56 175.8 56C173.757 56 172.1 57.6565 172.1 59.7C172.1 61.7435 173.757 63.4 175.8 63.4Z" stroke="#00DCE6" stroke-miterlimit="10"/>
<path d="M145.4 38.2998L152.6 25.7998" stroke="#00DCE6" stroke-miterlimit="10"/>
<path d="M158.3 22.7002H172.3" stroke="#00DCE6" stroke-miterlimit="10"/>
<path d="M177.9 26.0996L184.9 38.2996" stroke="#00DCE6" stroke-miterlimit="10"/>
<path d="M184.9 44.5996L177.9 56.5996" stroke="#00DCE6" stroke-miterlimit="10"/>
<path d="M171.8 60H158.1" stroke="#00DCE6" stroke-miterlimit="10"/>
<path d="M145.5 44.5996L152.2 56.3996" stroke="#00DCE6" stroke-miterlimit="10"/>
<path d="M163.8 44.5996L156.5 56.5996" stroke="#00DCE6" stroke-miterlimit="10"/>
<path d="M166.9 38.2996L174.4 26.0996" stroke="#00DCE6" stroke-miterlimit="10"/>
<path d="M156 26L163 38.5" stroke="#00DCE6" stroke-miterlimit="10"/>
<path d="M167.2 44.5L173.8 56.6" stroke="#00DCE6" stroke-miterlimit="10"/>
<path d="M161.6 41.4004H147.2" stroke="#00DCE6" stroke-miterlimit="10"/>
<path d="M183.3 41.4004H169.1" stroke="#00DCE6" stroke-miterlimit="10"/>
<path d="M176.8 147.9H157.4V159.7H176.8V147.9Z" stroke="white" stroke-miterlimit="10"/>
<path d="M165.8 162.401V159.601" stroke="white" stroke-miterlimit="10"/>
<path d="M168.5 159.601V162.401" stroke="white" stroke-miterlimit="10"/>
<path d="M163 162.4H171.2" stroke="white" stroke-miterlimit="10"/>
<path d="M107.1 129.9H87.7V141.7H107.1V129.9Z" stroke="white" stroke-miterlimit="10"/>
<path d="M96 144.4V141.7" stroke="white" stroke-miterlimit="10"/>
<path d="M98.7 141.7V144.4" stroke="white" stroke-miterlimit="10"/>
<path d="M93.2 144.4H101.4" stroke="white" stroke-miterlimit="10"/>
<path d="M59.2001 81.7998H39.8V93.5998H59.2001V81.7998Z" stroke="white" stroke-miterlimit="10"/>
<path d="M48.1 96.2996V93.5996" stroke="white" stroke-miterlimit="10"/>
<path d="M50.9 93.5996V96.2996" stroke="white" stroke-miterlimit="10"/>
<path d="M45.4 96.2998H53.5" stroke="white" stroke-miterlimit="10"/>
<path d="M37.8 17.4004H18.4V29.2004H37.8V17.4004Z" stroke="white" stroke-miterlimit="10"/>
<path d="M26.8 32.0002V29.2002" stroke="white" stroke-miterlimit="10"/>
<path d="M29.5 29.2002V32.0002" stroke="white" stroke-miterlimit="10"/>
<path d="M24 32H32.2" stroke="white" stroke-miterlimit="10"/>
<path d="M245.8 129.7H226.4V141.5H245.8V129.7Z" stroke="white" stroke-miterlimit="10"/>
<path d="M234.7 144.3V141.5" stroke="white" stroke-miterlimit="10"/>
<path d="M237.5 141.5V144.3" stroke="white" stroke-miterlimit="10"/>
<path d="M232 144.3H240.1" stroke="white" stroke-miterlimit="10"/>
<path d="M293.7 81.2002H274.3V93.0002H293.7V81.2002Z" stroke="white" stroke-miterlimit="10"/>
<path d="M282.7 95.7V93" stroke="white" stroke-miterlimit="10"/>
<path d="M285.4 93V95.7" stroke="white" stroke-miterlimit="10"/>
<path d="M279.9 95.7002H288.1" stroke="white" stroke-miterlimit="10"/>
<path d="M315.4 17.4004H296V29.2004H315.4V17.4004Z" stroke="white" stroke-miterlimit="10"/>
<path d="M304.3 32.0002V29.2002" stroke="white" stroke-miterlimit="10"/>
<path d="M307.1 29.2002V32.0002" stroke="white" stroke-miterlimit="10"/>
<path d="M301.6 32H309.7" stroke="white" stroke-miterlimit="10"/>
<path d="M27.4 40.7002V184" stroke="#00DCE6" stroke-miterlimit="10" stroke-linejoin="round"/>
<path d="M49.5 104.8V184" stroke="#00DCE6" stroke-miterlimit="10" stroke-linejoin="round"/>
<path d="M96.9 152.8V184" stroke="#00DCE6" stroke-miterlimit="10" stroke-linejoin="round"/>
<path d="M166.6 169.7V184" stroke="#00DCE6" stroke-miterlimit="10" stroke-linejoin="round"/>
<path d="M236.6 152.8V184" stroke="#00DCE6" stroke-miterlimit="10" stroke-linejoin="round"/>
<path d="M284 104.8V184" stroke="#00DCE6" stroke-miterlimit="10" stroke-linejoin="round"/>
<path d="M305.7 40.7002V184" stroke="#00DCE6" stroke-miterlimit="10" stroke-linejoin="round"/>
<path d="M1 203V184L325 184V203" stroke="#00DCE6" stroke-width="2" stroke-miterlimit="10" stroke-linejoin="round"/>
<path d="M175.075 201.084C174.626 201.084 174.261 201.447 174.261 201.896C174.261 202.345 174.626 202.709 175.075 202.709C175.524 202.709 175.888 202.345 175.888 201.896C175.888 201.447 175.524 201.084 175.075 201.084Z" fill="#00DCE6"/>
<path d="M170.465 201.084C170.016 201.084 169.652 201.447 169.652 201.896C169.652 202.345 170.016 202.709 170.465 202.709C170.915 202.709 171.279 202.345 171.279 201.896C171.279 201.447 170.915 201.084 170.465 201.084Z" fill="#00DCE6"/>
<path d="M165.72 201.084C165.271 201.084 164.907 201.447 164.907 201.896C164.907 202.345 165.271 202.709 165.72 202.709C166.17 202.709 166.534 202.345 166.534 201.896C166.534 201.447 166.17 201.084 165.72 201.084Z" fill="#00DCE6"/>
<path d="M160.975 201.084C160.526 201.084 160.162 201.447 160.162 201.896C160.162 202.345 160.526 202.709 160.975 202.709C161.425 202.709 161.789 202.345 161.789 201.896C161.789 201.447 161.425 201.084 160.975 201.084Z" fill="#00DCE6"/>
<path d="M156.366 201.084C155.917 201.084 155.552 201.447 155.552 201.896C155.552 202.345 155.917 202.709 156.366 202.709C156.815 202.709 157.179 202.345 157.179 201.896C157.179 201.447 156.815 201.084 156.366 201.084Z" fill="#00DCE6"/>
<path d="M151.621 201.084C151.171 201.084 150.807 201.447 150.807 201.896C150.807 202.345 151.171 202.709 151.621 202.709C152.07 202.709 152.434 202.345 152.434 201.896C152.434 201.447 152.07 201.084 151.621 201.084Z" fill="#00DCE6"/>
<path d="M147.011 201.084C146.562 201.084 146.198 201.447 146.198 201.896C146.198 202.345 146.562 202.709 147.011 202.709C147.461 202.709 147.825 202.345 147.825 201.896C147.825 201.447 147.461 201.084 147.011 201.084Z" fill="#00DCE6"/>
<path d="M142.266 201.084C141.817 201.084 141.453 201.447 141.453 201.896C141.453 202.345 141.817 202.709 142.266 202.709C142.716 202.709 143.08 202.345 143.08 201.896C143.08 201.447 142.716 201.084 142.266 201.084Z" fill="#00DCE6"/>
<path d="M137.657 201.084C137.208 201.084 136.843 201.447 136.843 201.896C136.843 202.345 137.208 202.709 137.657 202.709C138.106 202.709 138.47 202.345 138.47 201.896C138.47 201.447 138.106 201.084 137.657 201.084Z" fill="#00DCE6"/>
<path d="M175.075 196.481C174.626 196.481 174.261 196.844 174.261 197.293C174.261 197.742 174.626 198.105 175.075 198.105C175.524 198.105 175.888 197.742 175.888 197.293C175.888 196.844 175.524 196.481 175.075 196.481Z" fill="#00DCE6"/>
<path d="M170.465 196.481C170.016 196.481 169.652 196.844 169.652 197.293C169.652 197.742 170.016 198.105 170.465 198.105C170.914 198.105 171.279 197.742 171.279 197.293C171.279 196.844 170.914 196.481 170.465 196.481Z" fill="#00DCE6"/>
<path d="M165.72 196.481C165.271 196.481 164.907 196.844 164.907 197.293C164.907 197.742 165.271 198.105 165.72 198.105C166.169 198.105 166.534 197.742 166.534 197.293C166.534 196.844 166.169 196.481 165.72 196.481Z" fill="#00DCE6"/>
<path d="M160.975 196.481C160.526 196.481 160.162 196.844 160.162 197.293C160.162 197.742 160.526 198.105 160.975 198.105C161.424 198.105 161.789 197.742 161.789 197.293C161.789 196.844 161.424 196.481 160.975 196.481Z" fill="#00DCE6"/>
<path d="M156.366 196.481C155.917 196.481 155.552 196.844 155.552 197.293C155.552 197.742 155.917 198.105 156.366 198.105C156.815 198.105 157.179 197.742 157.179 197.293C157.179 196.844 156.815 196.481 156.366 196.481Z" fill="#00DCE6"/>
<path d="M151.621 196.481C151.171 196.481 150.807 196.844 150.807 197.293C150.807 197.742 151.171 198.105 151.621 198.105C152.07 198.105 152.434 197.742 152.434 197.293C152.434 196.844 152.07 196.481 151.621 196.481Z" fill="#00DCE6"/>
<path d="M147.011 196.481C146.562 196.481 146.198 196.844 146.198 197.293C146.198 197.742 146.562 198.105 147.011 198.105C147.461 198.105 147.825 197.742 147.825 197.293C147.825 196.844 147.461 196.481 147.011 196.481Z" fill="#00DCE6"/>
<path d="M142.266 196.481C141.817 196.481 141.453 196.844 141.453 197.293C141.453 197.742 141.817 198.105 142.266 198.105C142.716 198.105 143.08 197.742 143.08 197.293C143.08 196.844 142.716 196.481 142.266 196.481Z" fill="#00DCE6"/>
<path d="M137.657 196.481C137.208 196.481 136.843 196.844 136.843 197.293C136.843 197.742 137.208 198.105 137.657 198.105C138.106 198.105 138.47 197.742 138.47 197.293C138.47 196.844 138.106 196.481 137.657 196.481Z" fill="#00DCE6"/>
<path d="M175.075 191.74C174.626 191.74 174.261 192.104 174.261 192.552C174.261 193.001 174.626 193.365 175.075 193.365C175.524 193.365 175.888 193.001 175.888 192.552C175.888 192.104 175.524 191.74 175.075 191.74Z" fill="#00DCE6"/>
<path d="M170.465 191.74C170.016 191.74 169.652 192.104 169.652 192.552C169.652 193.001 170.016 193.365 170.465 193.365C170.914 193.365 171.279 193.001 171.279 192.552C171.279 192.104 170.914 191.74 170.465 191.74Z" fill="#00DCE6"/>
<path d="M165.72 191.74C165.271 191.74 164.907 192.104 164.907 192.552C164.907 193.001 165.271 193.365 165.72 193.365C166.169 193.365 166.534 193.001 166.534 192.552C166.534 192.104 166.169 191.74 165.72 191.74Z" fill="#00DCE6"/>
<path d="M160.975 191.74C160.526 191.74 160.162 192.104 160.162 192.552C160.162 193.001 160.526 193.365 160.975 193.365C161.424 193.365 161.789 193.001 161.789 192.552C161.789 192.104 161.424 191.74 160.975 191.74Z" fill="#00DCE6"/>
<path d="M156.366 191.74C155.917 191.74 155.552 192.104 155.552 192.552C155.552 193.001 155.917 193.365 156.366 193.365C156.815 193.365 157.179 193.001 157.179 192.552C157.179 192.104 156.815 191.74 156.366 191.74Z" fill="#00DCE6"/>
<path d="M151.621 191.74C151.171 191.74 150.807 192.104 150.807 192.552C150.807 193.001 151.171 193.365 151.621 193.365C152.07 193.365 152.434 193.001 152.434 192.552C152.434 192.104 152.07 191.74 151.621 191.74Z" fill="#00DCE6"/>
<path d="M147.011 191.74C146.562 191.74 146.198 192.104 146.198 192.552C146.198 193.001 146.562 193.365 147.011 193.365C147.461 193.365 147.825 193.001 147.825 192.552C147.825 192.104 147.461 191.74 147.011 191.74Z" fill="#00DCE6"/>
<path d="M142.266 191.74C141.817 191.74 141.453 192.104 141.453 192.552C141.453 193.001 141.817 193.365 142.266 193.365C142.716 193.365 143.08 193.001 143.08 192.552C143.08 192.104 142.716 191.74 142.266 191.74Z" fill="#00DCE6"/>
<path d="M137.657 191.74C137.208 191.74 136.843 192.104 136.843 192.552C136.843 193.001 137.208 193.365 137.657 193.365C138.106 193.365 138.47 193.001 138.47 192.552C138.47 192.104 138.106 191.74 137.657 191.74Z" fill="#00DCE6"/>
<path d="M175.075 187C174.626 187 174.261 187.364 174.261 187.812C174.261 188.261 174.626 188.625 175.075 188.625C175.524 188.625 175.888 188.261 175.888 187.812C175.888 187.364 175.524 187 175.075 187Z" fill="#00DCE6"/>
<path d="M170.465 187C170.016 187 169.652 187.364 169.652 187.812C169.652 188.261 170.016 188.625 170.465 188.625C170.914 188.625 171.279 188.261 171.279 187.812C171.279 187.364 170.914 187 170.465 187Z" fill="#00DCE6"/>
<path d="M165.72 187C165.271 187 164.907 187.364 164.907 187.812C164.907 188.261 165.271 188.625 165.72 188.625C166.169 188.625 166.534 188.261 166.534 187.812C166.534 187.364 166.169 187 165.72 187Z" fill="#00DCE6"/>
<path d="M160.975 187C160.526 187 160.162 187.364 160.162 187.812C160.162 188.261 160.526 188.625 160.975 188.625C161.424 188.625 161.789 188.261 161.789 187.812C161.789 187.364 161.424 187 160.975 187Z" fill="#00DCE6"/>
<path d="M156.366 187C155.917 187 155.552 187.364 155.552 187.812C155.552 188.261 155.917 188.625 156.366 188.625C156.815 188.625 157.179 188.261 157.179 187.812C157.179 187.364 156.815 187 156.366 187Z" fill="#00DCE6"/>
<path d="M151.621 187C151.171 187 150.807 187.364 150.807 187.812C150.807 188.261 151.171 188.625 151.621 188.625C152.07 188.625 152.434 188.261 152.434 187.812C152.434 187.364 152.07 187 151.621 187Z" fill="#00DCE6"/>
<path d="M147.011 187C146.562 187 146.198 187.364 146.198 187.812C146.198 188.261 146.562 188.625 147.011 188.625C147.461 188.625 147.825 188.261 147.825 187.812C147.825 187.364 147.461 187 147.011 187Z" fill="#00DCE6"/>
<path d="M142.266 187C141.817 187 141.453 187.364 141.453 187.812C141.453 188.261 141.817 188.625 142.266 188.625C142.716 188.625 143.08 188.261 143.08 187.812C143.08 187.364 142.716 187 142.266 187Z" fill="#00DCE6"/>
<path d="M137.657 187C137.208 187 136.843 187.364 136.843 187.812C136.843 188.261 137.208 188.625 137.657 188.625C138.106 188.625 138.47 188.261 138.47 187.812C138.47 187.364 138.106 187 137.657 187Z" fill="#00DCE6"/>
<path d="M132.912 201.084C132.463 201.084 132.098 201.447 132.098 201.896C132.098 202.345 132.463 202.709 132.912 202.709C133.361 202.709 133.725 202.345 133.725 201.896C133.725 201.447 133.361 201.084 132.912 201.084Z" fill="#00DCE6"/>
<path d="M128.302 201.084C127.853 201.084 127.489 201.447 127.489 201.896C127.489 202.345 127.853 202.709 128.302 202.709C128.752 202.709 129.116 202.345 129.116 201.896C129.116 201.447 128.752 201.084 128.302 201.084Z" fill="#00DCE6"/>
<path d="M123.557 201.084C123.108 201.084 122.744 201.447 122.744 201.896C122.744 202.345 123.108 202.709 123.557 202.709C124.007 202.709 124.371 202.345 124.371 201.896C124.371 201.447 124.007 201.084 123.557 201.084Z" fill="#00DCE6"/>
<path d="M118.948 201.084C118.499 201.084 118.134 201.447 118.134 201.896C118.134 202.345 118.499 202.709 118.948 202.709C119.397 202.709 119.761 202.345 119.761 201.896C119.761 201.447 119.397 201.084 118.948 201.084Z" fill="#00DCE6"/>
<path d="M114.203 201.084C113.754 201.084 113.389 201.447 113.389 201.896C113.389 202.345 113.754 202.709 114.203 202.709C114.652 202.709 115.016 202.345 115.016 201.896C115.016 201.447 114.652 201.084 114.203 201.084Z" fill="#00DCE6"/>
<path d="M109.593 201.084C109.144 201.084 108.78 201.447 108.78 201.896C108.78 202.345 109.144 202.709 109.593 202.709C110.043 202.709 110.407 202.345 110.407 201.896C110.407 201.447 110.043 201.084 109.593 201.084Z" fill="#00DCE6"/>
<path d="M104.848 201.084C104.399 201.084 104.035 201.447 104.035 201.896C104.035 202.345 104.399 202.709 104.848 202.709C105.298 202.709 105.662 202.345 105.662 201.896C105.662 201.447 105.298 201.084 104.848 201.084Z" fill="#00DCE6"/>
<path d="M100.239 201.084C99.7897 201.084 99.4255 201.447 99.4255 201.896C99.4255 202.345 99.7897 202.709 100.239 202.709C100.688 202.709 101.052 202.345 101.052 201.896C101.052 201.447 100.688 201.084 100.239 201.084Z" fill="#00DCE6"/>
<path d="M95.4939 201.084C95.0447 201.084 94.6805 201.447 94.6805 201.896C94.6805 202.345 95.0447 202.709 95.4939 202.709C95.9432 202.709 96.3073 202.345 96.3073 201.896C96.3073 201.447 95.9432 201.084 95.4939 201.084Z" fill="#00DCE6"/>
<path d="M90.7489 201.084C90.2996 201.084 89.9354 201.447 89.9354 201.896C89.9354 202.345 90.2996 202.709 90.7489 202.709C91.1981 202.709 91.5623 202.345 91.5623 201.896C91.5623 201.447 91.1981 201.084 90.7489 201.084Z" fill="#00DCE6"/>
<path d="M86.1394 201.084C85.6902 201.084 85.326 201.447 85.326 201.896C85.326 202.345 85.6902 202.709 86.1394 202.709C86.5887 202.709 86.9529 202.345 86.9529 201.896C86.9529 201.447 86.5887 201.084 86.1394 201.084Z" fill="#00DCE6"/>
<path d="M81.3944 201.084C80.9451 201.084 80.581 201.447 80.581 201.896C80.581 202.345 80.9451 202.709 81.3944 202.709C81.8436 202.709 82.2078 202.345 82.2078 201.896C82.2078 201.447 81.8436 201.084 81.3944 201.084Z" fill="#00DCE6"/>
<path d="M76.7849 201.084C76.3357 201.084 75.9715 201.447 75.9715 201.896C75.9715 202.345 76.3357 202.709 76.7849 202.709C77.2342 202.709 77.5984 202.345 77.5984 201.896C77.5984 201.447 77.2342 201.084 76.7849 201.084Z" fill="#00DCE6"/>
<path d="M72.0399 201.084C71.5907 201.084 71.2265 201.447 71.2265 201.896C71.2265 202.345 71.5907 202.709 72.0399 202.709C72.4892 202.709 72.8533 202.345 72.8533 201.896C72.8533 201.447 72.4892 201.084 72.0399 201.084Z" fill="#00DCE6"/>
<path d="M67.4305 201.084C66.9813 201.084 66.6171 201.447 66.6171 201.896C66.6171 202.345 66.9813 202.709 67.4305 202.709C67.8797 202.709 68.2439 202.345 68.2439 201.896C68.2439 201.447 67.8797 201.084 67.4305 201.084Z" fill="#00DCE6"/>
<path d="M62.6855 201.084C62.2362 201.084 61.8721 201.447 61.8721 201.896C61.8721 202.345 62.2362 202.709 62.6855 202.709C63.1347 202.709 63.4989 202.345 63.4989 201.896C63.4989 201.447 63.1347 201.084 62.6855 201.084Z" fill="#00DCE6"/>
<path d="M58.076 201.084C57.6267 201.084 57.2625 201.447 57.2625 201.896C57.2625 202.345 57.6267 202.709 58.076 202.709C58.5252 202.709 58.8894 202.345 58.8894 201.896C58.8894 201.447 58.5252 201.084 58.076 201.084Z" fill="#00DCE6"/>
<path d="M53.3309 201.084C52.8817 201.084 52.5175 201.447 52.5175 201.896C52.5175 202.345 52.8817 202.709 53.3309 202.709C53.7802 202.709 54.1444 202.345 54.1444 201.896C54.1444 201.447 53.7802 201.084 53.3309 201.084Z" fill="#00DCE6"/>
<path d="M48.7215 201.084C48.2723 201.084 47.9081 201.447 47.9081 201.896C47.9081 202.345 48.2723 202.709 48.7215 202.709C49.1708 202.709 49.5349 202.345 49.5349 201.896C49.5349 201.447 49.1708 201.084 48.7215 201.084Z" fill="#00DCE6"/>
<path d="M43.9765 201.084C43.5273 201.084 43.1631 201.447 43.1631 201.896C43.1631 202.345 43.5273 202.709 43.9765 202.709C44.4258 202.709 44.7899 202.345 44.7899 201.896C44.7899 201.447 44.4258 201.084 43.9765 201.084Z" fill="#00DCE6"/>
<path d="M39.2315 201.084C38.7822 201.084 38.418 201.447 38.418 201.896C38.418 202.345 38.7822 202.709 39.2315 202.709C39.6807 202.709 40.0449 202.345 40.0449 201.896C40.0449 201.447 39.6807 201.084 39.2315 201.084Z" fill="#00DCE6"/>
<path d="M34.622 201.084C34.1728 201.084 33.8086 201.447 33.8086 201.896C33.8086 202.345 34.1728 202.709 34.622 202.709C35.0713 202.709 35.4355 202.345 35.4355 201.896C35.4355 201.447 35.0713 201.084 34.622 201.084Z" fill="#00DCE6"/>
<path d="M132.912 196.481C132.463 196.481 132.098 196.844 132.098 197.293C132.098 197.742 132.463 198.105 132.912 198.105C133.361 198.105 133.725 197.742 133.725 197.293C133.725 196.844 133.361 196.481 132.912 196.481Z" fill="#00DCE6"/>
<path d="M128.302 196.481C127.853 196.481 127.489 196.844 127.489 197.293C127.489 197.742 127.853 198.105 128.302 198.105C128.752 198.105 129.116 197.742 129.116 197.293C129.116 196.844 128.752 196.481 128.302 196.481Z" fill="#00DCE6"/>
<path d="M123.557 196.481C123.108 196.481 122.744 196.844 122.744 197.293C122.744 197.742 123.108 198.105 123.557 198.105C124.007 198.105 124.371 197.742 124.371 197.293C124.371 196.844 124.007 196.481 123.557 196.481Z" fill="#00DCE6"/>
<path d="M118.948 196.481C118.499 196.481 118.134 196.844 118.134 197.293C118.134 197.742 118.499 198.105 118.948 198.105C119.397 198.105 119.761 197.742 119.761 197.293C119.761 196.844 119.397 196.481 118.948 196.481Z" fill="#00DCE6"/>
<path d="M114.203 196.481C113.754 196.481 113.389 196.844 113.389 197.293C113.389 197.742 113.754 198.105 114.203 198.105C114.652 198.105 115.016 197.742 115.016 197.293C115.016 196.844 114.652 196.481 114.203 196.481Z" fill="#00DCE6"/>
<path d="M109.593 196.481C109.144 196.481 108.78 196.844 108.78 197.293C108.78 197.742 109.144 198.105 109.593 198.105C110.043 198.105 110.407 197.742 110.407 197.293C110.407 196.844 110.043 196.481 109.593 196.481Z" fill="#00DCE6"/>
<path d="M104.848 196.481C104.399 196.481 104.035 196.844 104.035 197.293C104.035 197.742 104.399 198.105 104.848 198.105C105.298 198.105 105.662 197.742 105.662 197.293C105.662 196.844 105.298 196.481 104.848 196.481Z" fill="#00DCE6"/>
<path d="M100.239 196.481C99.7897 196.481 99.4255 196.844 99.4255 197.293C99.4255 197.742 99.7897 198.105 100.239 198.105C100.688 198.105 101.052 197.742 101.052 197.293C101.052 196.844 100.688 196.481 100.239 196.481Z" fill="#00DCE6"/>
<path d="M95.4939 196.481C95.0447 196.481 94.6805 196.844 94.6805 197.293C94.6805 197.742 95.0447 198.105 95.4939 198.105C95.9432 198.105 96.3073 197.742 96.3073 197.293C96.3073 196.844 95.9432 196.481 95.4939 196.481Z" fill="#00DCE6"/>
<path d="M90.7489 196.481C90.2996 196.481 89.9354 196.844 89.9354 197.293C89.9354 197.742 90.2996 198.105 90.7489 198.105C91.1981 198.105 91.5623 197.742 91.5623 197.293C91.5623 196.844 91.1981 196.481 90.7489 196.481Z" fill="#00DCE6"/>
<path d="M86.1394 196.481C85.6902 196.481 85.326 196.844 85.326 197.293C85.326 197.742 85.6902 198.105 86.1394 198.105C86.5887 198.105 86.9529 197.742 86.9529 197.293C86.9529 196.844 86.5887 196.481 86.1394 196.481Z" fill="#00DCE6"/>
<path d="M81.3944 196.481C80.9451 196.481 80.581 196.844 80.581 197.293C80.581 197.742 80.9451 198.105 81.3944 198.105C81.8436 198.105 82.2078 197.742 82.2078 197.293C82.2078 196.844 81.8436 196.481 81.3944 196.481Z" fill="#00DCE6"/>
<path d="M76.785 196.481C76.3357 196.481 75.9715 196.844 75.9715 197.293C75.9715 197.742 76.3357 198.105 76.785 198.105C77.2342 198.105 77.5984 197.742 77.5984 197.293C77.5984 196.844 77.2342 196.481 76.785 196.481Z" fill="#00DCE6"/>
<path d="M72.0399 196.481C71.5907 196.481 71.2265 196.844 71.2265 197.293C71.2265 197.742 71.5907 198.105 72.0399 198.105C72.4892 198.105 72.8533 197.742 72.8533 197.293C72.8533 196.844 72.4892 196.481 72.0399 196.481Z" fill="#00DCE6"/>
<path d="M67.4304 196.481C66.9812 196.481 66.617 196.844 66.617 197.293C66.617 197.742 66.9812 198.105 67.4304 198.105C67.8797 198.105 68.2439 197.742 68.2439 197.293C68.2439 196.844 67.8797 196.481 67.4304 196.481Z" fill="#00DCE6"/>
<path d="M62.6855 196.481C62.2362 196.481 61.872 196.844 61.872 197.293C61.872 197.742 62.2362 198.105 62.6855 198.105C63.1347 198.105 63.4989 197.742 63.4989 197.293C63.4989 196.844 63.1347 196.481 62.6855 196.481Z" fill="#00DCE6"/>
<path d="M58.076 196.48C57.6267 196.48 57.2625 196.844 57.2625 197.293C57.2625 197.742 57.6267 198.105 58.076 198.105C58.5252 198.105 58.8894 197.742 58.8894 197.293C58.8894 196.844 58.5252 196.48 58.076 196.48Z" fill="#00DCE6"/>
<path d="M53.3309 196.48C52.8817 196.48 52.5175 196.844 52.5175 197.293C52.5175 197.742 52.8817 198.105 53.3309 198.105C53.7802 198.105 54.1444 197.742 54.1444 197.293C54.1444 196.844 53.7802 196.48 53.3309 196.48Z" fill="#00DCE6"/>
<path d="M48.7215 196.48C48.2723 196.48 47.9081 196.844 47.9081 197.293C47.9081 197.742 48.2723 198.105 48.7215 198.105C49.1708 198.105 49.5349 197.742 49.5349 197.293C49.5349 196.844 49.1708 196.48 48.7215 196.48Z" fill="#00DCE6"/>
<path d="M43.9765 196.48C43.5273 196.48 43.1631 196.844 43.1631 197.293C43.1631 197.742 43.5273 198.105 43.9765 198.105C44.4258 198.105 44.7899 197.742 44.7899 197.293C44.7899 196.844 44.4258 196.48 43.9765 196.48Z" fill="#00DCE6"/>
<path d="M39.2315 196.48C38.7822 196.48 38.418 196.844 38.418 197.293C38.418 197.742 38.7822 198.105 39.2315 198.105C39.6807 198.105 40.0449 197.742 40.0449 197.293C40.0449 196.844 39.6807 196.48 39.2315 196.48Z" fill="#00DCE6"/>
<path d="M34.622 196.48C34.1728 196.48 33.8086 196.844 33.8086 197.293C33.8086 197.742 34.1728 198.105 34.622 198.105C35.0713 198.105 35.4355 197.742 35.4355 197.293C35.4355 196.844 35.0713 196.48 34.622 196.48Z" fill="#00DCE6"/>
<path d="M132.912 191.74C132.463 191.74 132.098 192.104 132.098 192.552C132.098 193.001 132.463 193.365 132.912 193.365C133.361 193.365 133.725 193.001 133.725 192.552C133.725 192.104 133.361 191.74 132.912 191.74Z" fill="#00DCE6"/>
<path d="M128.302 191.74C127.853 191.74 127.489 192.104 127.489 192.552C127.489 193.001 127.853 193.365 128.302 193.365C128.752 193.365 129.116 193.001 129.116 192.552C129.116 192.104 128.752 191.74 128.302 191.74Z" fill="#00DCE6"/>
<path d="M123.557 191.74C123.108 191.74 122.744 192.104 122.744 192.552C122.744 193.001 123.108 193.365 123.557 193.365C124.007 193.365 124.371 193.001 124.371 192.552C124.371 192.104 124.007 191.74 123.557 191.74Z" fill="#00DCE6"/>
<path d="M118.948 191.74C118.499 191.74 118.134 192.104 118.134 192.552C118.134 193.001 118.499 193.365 118.948 193.365C119.397 193.365 119.761 193.001 119.761 192.552C119.761 192.104 119.397 191.74 118.948 191.74Z" fill="#00DCE6"/>
<path d="M114.203 191.74C113.754 191.74 113.389 192.104 113.389 192.552C113.389 193.001 113.754 193.365 114.203 193.365C114.652 193.365 115.016 193.001 115.016 192.552C115.016 192.104 114.652 191.74 114.203 191.74Z" fill="#00DCE6"/>
<path d="M109.593 191.74C109.144 191.74 108.78 192.104 108.78 192.552C108.78 193.001 109.144 193.365 109.593 193.365C110.043 193.365 110.407 193.001 110.407 192.552C110.407 192.104 110.043 191.74 109.593 191.74Z" fill="#00DCE6"/>
<path d="M104.848 191.74C104.399 191.74 104.035 192.104 104.035 192.552C104.035 193.001 104.399 193.365 104.848 193.365C105.298 193.365 105.662 193.001 105.662 192.552C105.662 192.104 105.298 191.74 104.848 191.74Z" fill="#00DCE6"/>
<path d="M100.239 191.74C99.7897 191.74 99.4255 192.104 99.4255 192.552C99.4255 193.001 99.7897 193.365 100.239 193.365C100.688 193.365 101.052 193.001 101.052 192.552C101.052 192.104 100.688 191.74 100.239 191.74Z" fill="#00DCE6"/>
<path d="M95.4939 191.74C95.0447 191.74 94.6805 192.104 94.6805 192.552C94.6805 193.001 95.0447 193.365 95.4939 193.365C95.9432 193.365 96.3073 193.001 96.3073 192.552C96.3073 192.104 95.9432 191.74 95.4939 191.74Z" fill="#00DCE6"/>
<path d="M90.7489 191.74C90.2996 191.74 89.9354 192.104 89.9354 192.552C89.9354 193.001 90.2996 193.365 90.7489 193.365C91.1981 193.365 91.5623 193.001 91.5623 192.552C91.5623 192.104 91.1981 191.74 90.7489 191.74Z" fill="#00DCE6"/>
<path d="M86.1394 191.74C85.6902 191.74 85.326 192.104 85.326 192.552C85.326 193.001 85.6902 193.365 86.1394 193.365C86.5887 193.365 86.9529 193.001 86.9529 192.552C86.9529 192.104 86.5887 191.74 86.1394 191.74Z" fill="#00DCE6"/>
<path d="M81.3944 191.74C80.9451 191.74 80.581 192.104 80.581 192.552C80.581 193.001 80.9451 193.365 81.3944 193.365C81.8436 193.365 82.2078 193.001 82.2078 192.552C82.2078 192.104 81.8436 191.74 81.3944 191.74Z" fill="#00DCE6"/>
<path d="M76.785 191.74C76.3357 191.74 75.9715 192.104 75.9715 192.552C75.9715 193.001 76.3357 193.365 76.785 193.365C77.2342 193.365 77.5984 193.001 77.5984 192.552C77.5984 192.104 77.2342 191.74 76.785 191.74Z" fill="#00DCE6"/>
<path d="M72.0399 191.74C71.5907 191.74 71.2265 192.104 71.2265 192.552C71.2265 193.001 71.5907 193.365 72.0399 193.365C72.4892 193.365 72.8533 193.001 72.8533 192.552C72.8533 192.104 72.4892 191.74 72.0399 191.74Z" fill="#00DCE6"/>
<path d="M67.4304 191.74C66.9812 191.74 66.617 192.104 66.617 192.552C66.617 193.001 66.9812 193.365 67.4304 193.365C67.8797 193.365 68.2439 193.001 68.2439 192.552C68.2439 192.104 67.8797 191.74 67.4304 191.74Z" fill="#00DCE6"/>
<path d="M62.6855 191.74C62.2362 191.74 61.872 192.104 61.872 192.552C61.872 193.001 62.2362 193.365 62.6855 193.365C63.1347 193.365 63.4989 193.001 63.4989 192.552C63.4989 192.104 63.1347 191.74 62.6855 191.74Z" fill="#00DCE6"/>
<path d="M58.076 191.74C57.6267 191.74 57.2625 192.104 57.2625 192.552C57.2625 193.001 57.6267 193.365 58.076 193.365C58.5252 193.365 58.8894 193.001 58.8894 192.552C58.8894 192.104 58.5252 191.74 58.076 191.74Z" fill="#00DCE6"/>
<path d="M53.3309 191.74C52.8817 191.74 52.5175 192.104 52.5175 192.552C52.5175 193.001 52.8817 193.365 53.3309 193.365C53.7802 193.365 54.1444 193.001 54.1444 192.552C54.1444 192.104 53.7802 191.74 53.3309 191.74Z" fill="#00DCE6"/>
<path d="M48.7215 191.74C48.2723 191.74 47.9081 192.104 47.9081 192.552C47.9081 193.001 48.2723 193.365 48.7215 193.365C49.1708 193.365 49.5349 193.001 49.5349 192.552C49.5349 192.104 49.1708 191.74 48.7215 191.74Z" fill="#00DCE6"/>
<path d="M43.9765 191.74C43.5273 191.74 43.1631 192.104 43.1631 192.552C43.1631 193.001 43.5273 193.365 43.9765 193.365C44.4258 193.365 44.7899 193.001 44.7899 192.552C44.7899 192.104 44.4258 191.74 43.9765 191.74Z" fill="#00DCE6"/>
<path d="M39.2315 191.74C38.7822 191.74 38.418 192.104 38.418 192.552C38.418 193.001 38.7822 193.365 39.2315 193.365C39.6807 193.365 40.0449 193.001 40.0449 192.552C40.0449 192.104 39.6807 191.74 39.2315 191.74Z" fill="#00DCE6"/>
<path d="M34.622 191.74C34.1728 191.74 33.8086 192.104 33.8086 192.552C33.8086 193.001 34.1728 193.365 34.622 193.365C35.0713 193.365 35.4355 193.001 35.4355 192.552C35.4355 192.104 35.0713 191.74 34.622 191.74Z" fill="#00DCE6"/>
<path d="M132.912 187C132.463 187 132.098 187.364 132.098 187.812C132.098 188.261 132.463 188.625 132.912 188.625C133.361 188.625 133.725 188.261 133.725 187.812C133.725 187.364 133.361 187 132.912 187Z" fill="#00DCE6"/>
<path d="M128.302 187C127.853 187 127.489 187.364 127.489 187.812C127.489 188.261 127.853 188.625 128.302 188.625C128.752 188.625 129.116 188.261 129.116 187.812C129.116 187.364 128.752 187 128.302 187Z" fill="#00DCE6"/>
<path d="M123.557 187C123.108 187 122.744 187.364 122.744 187.812C122.744 188.261 123.108 188.625 123.557 188.625C124.007 188.625 124.371 188.261 124.371 187.812C124.371 187.364 124.007 187 123.557 187Z" fill="#00DCE6"/>
<path d="M118.948 187C118.499 187 118.134 187.364 118.134 187.812C118.134 188.261 118.499 188.625 118.948 188.625C119.397 188.625 119.761 188.261 119.761 187.812C119.761 187.364 119.397 187 118.948 187Z" fill="#00DCE6"/>
<path d="M114.203 187C113.754 187 113.389 187.364 113.389 187.812C113.389 188.261 113.754 188.625 114.203 188.625C114.652 188.625 115.016 188.261 115.016 187.812C115.016 187.364 114.652 187 114.203 187Z" fill="#00DCE6"/>
<path d="M109.593 187C109.144 187 108.78 187.364 108.78 187.812C108.78 188.261 109.144 188.625 109.593 188.625C110.043 188.625 110.407 188.261 110.407 187.812C110.407 187.364 110.043 187 109.593 187Z" fill="#00DCE6"/>
<path d="M104.848 187C104.399 187 104.035 187.364 104.035 187.812C104.035 188.261 104.399 188.625 104.848 188.625C105.298 188.625 105.662 188.261 105.662 187.812C105.662 187.364 105.298 187 104.848 187Z" fill="#00DCE6"/>
<path d="M100.239 187C99.7897 187 99.4255 187.364 99.4255 187.812C99.4255 188.261 99.7897 188.625 100.239 188.625C100.688 188.625 101.052 188.261 101.052 187.812C101.052 187.364 100.688 187 100.239 187Z" fill="#00DCE6"/>
<path d="M95.4939 187C95.0447 187 94.6805 187.364 94.6805 187.812C94.6805 188.261 95.0447 188.625 95.4939 188.625C95.9432 188.625 96.3073 188.261 96.3073 187.812C96.3073 187.364 95.9432 187 95.4939 187Z" fill="#00DCE6"/>
<path d="M90.7489 187C90.2996 187 89.9354 187.364 89.9354 187.812C89.9354 188.261 90.2996 188.625 90.7489 188.625C91.1981 188.625 91.5623 188.261 91.5623 187.812C91.5623 187.364 91.1981 187 90.7489 187Z" fill="#00DCE6"/>
<path d="M86.1394 187C85.6902 187 85.326 187.364 85.326 187.812C85.326 188.261 85.6902 188.625 86.1394 188.625C86.5887 188.625 86.9529 188.261 86.9529 187.812C86.9529 187.364 86.5887 187 86.1394 187Z" fill="#00DCE6"/>
<path d="M81.3944 187C80.9451 187 80.581 187.364 80.581 187.812C80.581 188.261 80.9451 188.625 81.3944 188.625C81.8436 188.625 82.2078 188.261 82.2078 187.812C82.2078 187.364 81.8436 187 81.3944 187Z" fill="#00DCE6"/>
<path d="M76.785 187C76.3357 187 75.9715 187.364 75.9715 187.812C75.9715 188.261 76.3357 188.625 76.785 188.625C77.2342 188.625 77.5984 188.261 77.5984 187.812C77.5984 187.364 77.2342 187 76.785 187Z" fill="#00DCE6"/>
<path d="M72.0399 187C71.5907 187 71.2265 187.364 71.2265 187.812C71.2265 188.261 71.5907 188.625 72.0399 188.625C72.4892 188.625 72.8533 188.261 72.8533 187.812C72.8533 187.364 72.4892 187 72.0399 187Z" fill="#00DCE6"/>
<path d="M67.4304 187C66.9812 187 66.617 187.364 66.617 187.812C66.617 188.261 66.9812 188.625 67.4304 188.625C67.8797 188.625 68.2439 188.261 68.2439 187.812C68.2439 187.364 67.8797 187 67.4304 187Z" fill="#00DCE6"/>
<path d="M62.6855 187C62.2362 187 61.872 187.364 61.872 187.812C61.872 188.261 62.2362 188.625 62.6855 188.625C63.1347 188.625 63.4989 188.261 63.4989 187.812C63.4989 187.364 63.1347 187 62.6855 187Z" fill="#00DCE6"/>
<path d="M58.076 187C57.6267 187 57.2625 187.364 57.2625 187.812C57.2625 188.261 57.6267 188.625 58.076 188.625C58.5252 188.625 58.8894 188.261 58.8894 187.812C58.8894 187.364 58.5252 187 58.076 187Z" fill="#00DCE6"/>
<path d="M53.3309 187C52.8817 187 52.5175 187.364 52.5175 187.812C52.5175 188.261 52.8817 188.625 53.3309 188.625C53.7802 188.625 54.1444 188.261 54.1444 187.812C54.1444 187.364 53.7802 187 53.3309 187Z" fill="#00DCE6"/>
<path d="M48.7215 187C48.2723 187 47.9081 187.364 47.9081 187.812C47.9081 188.261 48.2723 188.625 48.7215 188.625C49.1708 188.625 49.5349 188.261 49.5349 187.812C49.5349 187.364 49.1708 187 48.7215 187Z" fill="#00DCE6"/>
<path d="M43.9765 187C43.5273 187 43.1631 187.364 43.1631 187.812C43.1631 188.261 43.5273 188.625 43.9765 188.625C44.4258 188.625 44.7899 188.261 44.7899 187.812C44.7899 187.364 44.4258 187 43.9765 187Z" fill="#00DCE6"/>
<path d="M39.2315 187C38.7822 187 38.418 187.364 38.418 187.812C38.418 188.261 38.7822 188.625 39.2315 188.625C39.6807 188.625 40.0449 188.261 40.0449 187.812C40.0449 187.364 39.6807 187 39.2315 187Z" fill="#00DCE6"/>
<path d="M34.622 187C34.1728 187 33.8086 187.364 33.8086 187.812C33.8086 188.261 34.1728 188.625 34.622 188.625C35.0713 188.625 35.4355 188.261 35.4355 187.812C35.4355 187.364 35.0713 187 34.622 187Z" fill="#00DCE6"/>
<path d="M30.0126 201.084C29.5633 201.084 29.1991 201.447 29.1991 201.896C29.1991 202.345 29.5633 202.709 30.0126 202.709C30.4618 202.709 30.826 202.345 30.826 201.896C30.826 201.447 30.4618 201.084 30.0126 201.084Z" fill="#00DCE6"/>
<path d="M25.2675 201.084C24.8183 201.084 24.4541 201.447 24.4541 201.896C24.4541 202.345 24.8183 202.709 25.2675 202.709C25.7168 202.709 26.081 202.345 26.081 201.896C26.081 201.447 25.7168 201.084 25.2675 201.084Z" fill="#00DCE6"/>
<path d="M20.5225 201.084C20.0733 201.084 19.7091 201.447 19.7091 201.896C19.7091 202.345 20.0733 202.709 20.5225 202.709C20.9718 202.709 21.3359 202.345 21.3359 201.896C21.3359 201.447 20.9718 201.084 20.5225 201.084Z" fill="#00DCE6"/>
<path d="M15.9131 201.084C15.4639 201.084 15.0997 201.447 15.0997 201.896C15.0997 202.345 15.4639 202.709 15.9131 202.709C16.3624 202.709 16.7266 202.345 16.7266 201.896C16.7266 201.447 16.3624 201.084 15.9131 201.084Z" fill="#00DCE6"/>
<path d="M11.1681 201.084C10.7188 201.084 10.3547 201.447 10.3547 201.896C10.3547 202.345 10.7188 202.709 11.1681 202.709C11.6173 202.709 11.9815 202.345 11.9815 201.896C11.9815 201.447 11.6173 201.084 11.1681 201.084Z" fill="#00DCE6"/>
<path d="M6.55856 201.084C6.10931 201.084 5.74513 201.447 5.74513 201.896C5.74513 202.345 6.10931 202.709 6.55856 202.709C7.00781 202.709 7.37201 202.345 7.37201 201.896C7.37201 201.447 7.00781 201.084 6.55856 201.084Z" fill="#00DCE6"/>
<path d="M30.0126 196.48C29.5633 196.48 29.1991 196.844 29.1991 197.293C29.1991 197.742 29.5633 198.105 30.0126 198.105C30.4618 198.105 30.826 197.742 30.826 197.293C30.826 196.844 30.4618 196.48 30.0126 196.48Z" fill="#00DCE6"/>
<path d="M25.2675 196.48C24.8183 196.48 24.4541 196.844 24.4541 197.293C24.4541 197.742 24.8183 198.105 25.2675 198.105C25.7168 198.105 26.081 197.742 26.081 197.293C26.081 196.844 25.7168 196.48 25.2675 196.48Z" fill="#00DCE6"/>
<path d="M20.5225 196.48C20.0733 196.48 19.7091 196.844 19.7091 197.293C19.7091 197.742 20.0733 198.105 20.5225 198.105C20.9718 198.105 21.3359 197.742 21.3359 197.293C21.3359 196.844 20.9718 196.48 20.5225 196.48Z" fill="#00DCE6"/>
<path d="M15.9131 196.48C15.4638 196.48 15.0996 196.844 15.0996 197.293C15.0996 197.742 15.4638 198.105 15.9131 198.105C16.3623 198.105 16.7265 197.742 16.7265 197.293C16.7265 196.844 16.3623 196.48 15.9131 196.48Z" fill="#00DCE6"/>
<path d="M11.168 196.48C10.7188 196.48 10.3546 196.844 10.3546 197.293C10.3546 197.742 10.7188 198.105 11.168 198.105C11.6173 198.105 11.9815 197.742 11.9815 197.293C11.9815 196.844 11.6173 196.48 11.168 196.48Z" fill="#00DCE6"/>
<path d="M6.55856 196.48C6.10931 196.48 5.74513 196.844 5.74513 197.293C5.74513 197.742 6.10931 198.105 6.55856 198.105C7.00781 198.105 7.37201 197.742 7.37201 197.293C7.37201 196.844 7.00781 196.48 6.55856 196.48Z" fill="#00DCE6"/>
<path d="M30.0126 191.74C29.5633 191.74 29.1991 192.104 29.1991 192.552C29.1991 193.001 29.5633 193.365 30.0126 193.365C30.4618 193.365 30.826 193.001 30.826 192.552C30.826 192.104 30.4618 191.74 30.0126 191.74Z" fill="#00DCE6"/>
<path d="M25.2675 191.74C24.8183 191.74 24.4541 192.104 24.4541 192.552C24.4541 193.001 24.8183 193.365 25.2675 193.365C25.7168 193.365 26.081 193.001 26.081 192.552C26.081 192.104 25.7168 191.74 25.2675 191.74Z" fill="#00DCE6"/>
<path d="M20.5225 191.74C20.0733 191.74 19.7091 192.104 19.7091 192.552C19.7091 193.001 20.0733 193.365 20.5225 193.365C20.9718 193.365 21.3359 193.001 21.3359 192.552C21.3359 192.104 20.9718 191.74 20.5225 191.74Z" fill="#00DCE6"/>
<path d="M15.9131 191.74C15.4638 191.74 15.0996 192.104 15.0996 192.552C15.0996 193.001 15.4638 193.365 15.9131 193.365C16.3623 193.365 16.7265 193.001 16.7265 192.552C16.7265 192.104 16.3623 191.74 15.9131 191.74Z" fill="#00DCE6"/>
<path d="M11.168 191.74C10.7188 191.74 10.3546 192.104 10.3546 192.552C10.3546 193.001 10.7188 193.365 11.168 193.365C11.6173 193.365 11.9815 193.001 11.9815 192.552C11.9815 192.104 11.6173 191.74 11.168 191.74Z" fill="#00DCE6"/>
<path d="M6.55856 191.74C6.10931 191.74 5.74513 192.104 5.74513 192.552C5.74513 193.001 6.10931 193.365 6.55856 193.365C7.00781 193.365 7.37201 193.001 7.37201 192.552C7.37201 192.104 7.00781 191.74 6.55856 191.74Z" fill="#00DCE6"/>
<path d="M30.0126 187C29.5633 187 29.1991 187.364 29.1991 187.812C29.1991 188.261 29.5633 188.625 30.0126 188.625C30.4618 188.625 30.826 188.261 30.826 187.812C30.826 187.364 30.4618 187 30.0126 187Z" fill="#00DCE6"/>
<path d="M25.2675 187C24.8183 187 24.4541 187.364 24.4541 187.812C24.4541 188.261 24.8183 188.625 25.2675 188.625C25.7168 188.625 26.081 188.261 26.081 187.812C26.081 187.364 25.7168 187 25.2675 187Z" fill="#00DCE6"/>
<path d="M20.5225 187C20.0733 187 19.7091 187.364 19.7091 187.812C19.7091 188.261 20.0733 188.625 20.5225 188.625C20.9718 188.625 21.3359 188.261 21.3359 187.812C21.3359 187.364 20.9718 187 20.5225 187Z" fill="#00DCE6"/>
<path d="M15.9131 187C15.4638 187 15.0996 187.364 15.0996 187.812C15.0996 188.261 15.4638 188.625 15.9131 188.625C16.3623 188.625 16.7265 188.261 16.7265 187.812C16.7265 187.364 16.3623 187 15.9131 187Z" fill="#00DCE6"/>
<path d="M11.168 187C10.7188 187 10.3546 187.364 10.3546 187.812C10.3546 188.261 10.7188 188.625 11.168 188.625C11.6173 188.625 11.9815 188.261 11.9815 187.812C11.9815 187.364 11.6173 187 11.168 187Z" fill="#00DCE6"/>
<path d="M6.55856 187C6.10931 187 5.74513 187.364 5.74513 187.812C5.74513 188.261 6.10931 188.625 6.55856 188.625C7.00781 188.625 7.37201 188.261 7.37201 187.812C7.37201 187.364 7.00781 187 6.55856 187Z" fill="#00DCE6"/>
<path d="M320.266 201.084C319.817 201.084 319.453 201.447 319.453 201.896C319.453 202.345 319.817 202.709 320.266 202.709C320.715 202.709 321.08 202.345 321.08 201.896C321.08 201.447 320.715 201.084 320.266 201.084Z" fill="#00DCE6"/>
<path d="M315.657 201.084C315.207 201.084 314.843 201.447 314.843 201.896C314.843 202.345 315.207 202.709 315.657 202.709C316.106 202.709 316.47 202.345 316.47 201.896C316.47 201.447 316.106 201.084 315.657 201.084Z" fill="#00DCE6"/>
<path d="M320.266 196.481C319.817 196.481 319.453 196.844 319.453 197.293C319.453 197.742 319.817 198.105 320.266 198.105C320.715 198.105 321.08 197.742 321.08 197.293C321.08 196.844 320.715 196.481 320.266 196.481Z" fill="#00DCE6"/>
<path d="M315.657 196.481C315.207 196.481 314.843 196.844 314.843 197.293C314.843 197.742 315.207 198.105 315.657 198.105C316.106 198.105 316.47 197.742 316.47 197.293C316.47 196.844 316.106 196.481 315.657 196.481Z" fill="#00DCE6"/>
<path d="M320.266 191.74C319.817 191.74 319.453 192.104 319.453 192.552C319.453 193.001 319.817 193.365 320.266 193.365C320.715 193.365 321.08 193.001 321.08 192.552C321.08 192.104 320.715 191.74 320.266 191.74Z" fill="#00DCE6"/>
<path d="M315.657 191.74C315.207 191.74 314.843 192.104 314.843 192.552C314.843 193.001 315.207 193.365 315.657 193.365C316.106 193.365 316.47 193.001 316.47 192.552C316.47 192.104 316.106 191.74 315.657 191.74Z" fill="#00DCE6"/>
<path d="M320.266 187C319.817 187 319.453 187.364 319.453 187.812C319.453 188.261 319.817 188.625 320.266 188.625C320.715 188.625 321.08 188.261 321.08 187.812C321.08 187.364 320.715 187 320.266 187Z" fill="#00DCE6"/>
<path d="M315.657 187C315.207 187 314.843 187.364 314.843 187.812C314.843 188.261 315.207 188.625 315.657 188.625C316.106 188.625 316.47 188.261 316.47 187.812C316.47 187.364 316.106 187 315.657 187Z" fill="#00DCE6"/>
<path d="M310.912 201.084C310.462 201.084 310.098 201.447 310.098 201.896C310.098 202.345 310.462 202.709 310.912 202.709C311.361 202.709 311.725 202.345 311.725 201.896C311.725 201.447 311.361 201.084 310.912 201.084Z" fill="#00DCE6"/>
<path d="M306.302 201.084C305.853 201.084 305.489 201.447 305.489 201.896C305.489 202.345 305.853 202.709 306.302 202.709C306.751 202.709 307.116 202.345 307.116 201.896C307.116 201.447 306.751 201.084 306.302 201.084Z" fill="#00DCE6"/>
<path d="M301.557 201.084C301.108 201.084 300.744 201.447 300.744 201.896C300.744 202.345 301.108 202.709 301.557 202.709C302.006 202.709 302.371 202.345 302.371 201.896C302.371 201.447 302.006 201.084 301.557 201.084Z" fill="#00DCE6"/>
<path d="M296.948 201.084C296.499 201.084 296.134 201.447 296.134 201.896C296.134 202.345 296.499 202.709 296.948 202.709C297.397 202.709 297.761 202.345 297.761 201.896C297.761 201.447 297.397 201.084 296.948 201.084Z" fill="#00DCE6"/>
<path d="M292.203 201.084C291.753 201.084 291.389 201.447 291.389 201.896C291.389 202.345 291.753 202.709 292.203 202.709C292.652 202.709 293.016 202.345 293.016 201.896C293.016 201.447 292.652 201.084 292.203 201.084Z" fill="#00DCE6"/>
<path d="M287.593 201.084C287.144 201.084 286.78 201.447 286.78 201.896C286.78 202.345 287.144 202.709 287.593 202.709C288.042 202.709 288.407 202.345 288.407 201.896C288.407 201.447 288.042 201.084 287.593 201.084Z" fill="#00DCE6"/>
<path d="M282.848 201.084C282.399 201.084 282.035 201.447 282.035 201.896C282.035 202.345 282.399 202.709 282.848 202.709C283.297 202.709 283.662 202.345 283.662 201.896C283.662 201.447 283.297 201.084 282.848 201.084Z" fill="#00DCE6"/>
<path d="M278.239 201.084C277.79 201.084 277.425 201.447 277.425 201.896C277.425 202.345 277.79 202.709 278.239 202.709C278.688 202.709 279.052 202.345 279.052 201.896C279.052 201.447 278.688 201.084 278.239 201.084Z" fill="#00DCE6"/>
<path d="M273.494 201.084C273.045 201.084 272.68 201.447 272.68 201.896C272.68 202.345 273.045 202.709 273.494 202.709C273.943 202.709 274.307 202.345 274.307 201.896C274.307 201.447 273.943 201.084 273.494 201.084Z" fill="#00DCE6"/>
<path d="M268.749 201.084C268.299 201.084 267.935 201.447 267.935 201.896C267.935 202.345 268.299 202.709 268.749 202.709C269.198 202.709 269.562 202.345 269.562 201.896C269.562 201.447 269.198 201.084 268.749 201.084Z" fill="#00DCE6"/>
<path d="M264.139 201.084C263.69 201.084 263.326 201.447 263.326 201.896C263.326 202.345 263.69 202.709 264.139 202.709C264.589 202.709 264.953 202.345 264.953 201.896C264.953 201.447 264.589 201.084 264.139 201.084Z" fill="#00DCE6"/>
<path d="M259.394 201.084C258.945 201.084 258.581 201.447 258.581 201.896C258.581 202.345 258.945 202.709 259.394 202.709C259.843 202.709 260.208 202.345 260.208 201.896C260.208 201.447 259.843 201.084 259.394 201.084Z" fill="#00DCE6"/>
<path d="M254.785 201.084C254.336 201.084 253.971 201.447 253.971 201.896C253.971 202.345 254.336 202.709 254.785 202.709C255.234 202.709 255.598 202.345 255.598 201.896C255.598 201.447 255.234 201.084 254.785 201.084Z" fill="#00DCE6"/>
<path d="M250.04 201.084C249.591 201.084 249.226 201.447 249.226 201.896C249.226 202.345 249.591 202.709 250.04 202.709C250.489 202.709 250.853 202.345 250.853 201.896C250.853 201.447 250.489 201.084 250.04 201.084Z" fill="#00DCE6"/>
<path d="M245.43 201.084C244.981 201.084 244.617 201.447 244.617 201.896C244.617 202.345 244.981 202.709 245.43 202.709C245.88 202.709 246.244 202.345 246.244 201.896C246.244 201.447 245.88 201.084 245.43 201.084Z" fill="#00DCE6"/>
<path d="M240.685 201.084C240.236 201.084 239.872 201.447 239.872 201.896C239.872 202.345 240.236 202.709 240.685 202.709C241.135 202.709 241.499 202.345 241.499 201.896C241.499 201.447 241.135 201.084 240.685 201.084Z" fill="#00DCE6"/>
<path d="M236.076 201.084C235.627 201.084 235.262 201.447 235.262 201.896C235.262 202.345 235.627 202.709 236.076 202.709C236.525 202.709 236.889 202.345 236.889 201.896C236.889 201.447 236.525 201.084 236.076 201.084Z" fill="#00DCE6"/>
<path d="M231.331 201.084C230.882 201.084 230.517 201.447 230.517 201.896C230.517 202.345 230.882 202.709 231.331 202.709C231.78 202.709 232.144 202.345 232.144 201.896C232.144 201.447 231.78 201.084 231.331 201.084Z" fill="#00DCE6"/>
<path d="M226.721 201.084C226.272 201.084 225.908 201.447 225.908 201.896C225.908 202.345 226.272 202.709 226.721 202.709C227.171 202.709 227.535 202.345 227.535 201.896C227.535 201.447 227.171 201.084 226.721 201.084Z" fill="#00DCE6"/>
<path d="M221.976 201.084C221.527 201.084 221.163 201.447 221.163 201.896C221.163 202.345 221.527 202.709 221.976 202.709C222.426 202.709 222.79 202.345 222.79 201.896C222.79 201.447 222.426 201.084 221.976 201.084Z" fill="#00DCE6"/>
<path d="M217.231 201.084C216.782 201.084 216.418 201.447 216.418 201.896C216.418 202.345 216.782 202.709 217.231 202.709C217.681 202.709 218.045 202.345 218.045 201.896C218.045 201.447 217.681 201.084 217.231 201.084Z" fill="#00DCE6"/>
<path d="M212.622 201.084C212.173 201.084 211.808 201.447 211.808 201.896C211.808 202.345 212.173 202.709 212.622 202.709C213.071 202.709 213.435 202.345 213.435 201.896C213.435 201.447 213.071 201.084 212.622 201.084Z" fill="#00DCE6"/>
<path d="M310.912 196.481C310.462 196.481 310.098 196.844 310.098 197.293C310.098 197.742 310.462 198.105 310.912 198.105C311.361 198.105 311.725 197.742 311.725 197.293C311.725 196.844 311.361 196.481 310.912 196.481Z" fill="#00DCE6"/>
<path d="M306.302 196.481C305.853 196.481 305.489 196.844 305.489 197.293C305.489 197.742 305.853 198.105 306.302 198.105C306.751 198.105 307.116 197.742 307.116 197.293C307.116 196.844 306.751 196.481 306.302 196.481Z" fill="#00DCE6"/>
<path d="M301.557 196.481C301.108 196.481 300.744 196.844 300.744 197.293C300.744 197.742 301.108 198.105 301.557 198.105C302.006 198.105 302.371 197.742 302.371 197.293C302.371 196.844 302.006 196.481 301.557 196.481Z" fill="#00DCE6"/>
<path d="M296.948 196.481C296.498 196.481 296.134 196.844 296.134 197.293C296.134 197.742 296.498 198.105 296.948 198.105C297.397 198.105 297.761 197.742 297.761 197.293C297.761 196.844 297.397 196.481 296.948 196.481Z" fill="#00DCE6"/>
<path d="M292.203 196.481C291.753 196.481 291.389 196.844 291.389 197.293C291.389 197.742 291.753 198.105 292.203 198.105C292.652 198.105 293.016 197.742 293.016 197.293C293.016 196.844 292.652 196.481 292.203 196.481Z" fill="#00DCE6"/>
<path d="M287.593 196.481C287.144 196.481 286.78 196.844 286.78 197.293C286.78 197.742 287.144 198.105 287.593 198.105C288.042 198.105 288.407 197.742 288.407 197.293C288.407 196.844 288.042 196.481 287.593 196.481Z" fill="#00DCE6"/>
<path d="M282.848 196.481C282.399 196.481 282.035 196.844 282.035 197.293C282.035 197.742 282.399 198.105 282.848 198.105C283.297 198.105 283.662 197.742 283.662 197.293C283.662 196.844 283.297 196.481 282.848 196.481Z" fill="#00DCE6"/>
<path d="M278.239 196.481C277.79 196.481 277.425 196.844 277.425 197.293C277.425 197.742 277.79 198.105 278.239 198.105C278.688 198.105 279.052 197.742 279.052 197.293C279.052 196.844 278.688 196.481 278.239 196.481Z" fill="#00DCE6"/>
<path d="M273.494 196.481C273.045 196.481 272.68 196.844 272.68 197.293C272.68 197.742 273.045 198.105 273.494 198.105C273.943 198.105 274.307 197.742 274.307 197.293C274.307 196.844 273.943 196.481 273.494 196.481Z" fill="#00DCE6"/>
<path d="M268.749 196.481C268.299 196.481 267.935 196.844 267.935 197.293C267.935 197.742 268.299 198.105 268.749 198.105C269.198 198.105 269.562 197.742 269.562 197.293C269.562 196.844 269.198 196.481 268.749 196.481Z" fill="#00DCE6"/>
<path d="M264.139 196.481C263.69 196.481 263.326 196.844 263.326 197.293C263.326 197.742 263.69 198.105 264.139 198.105C264.589 198.105 264.953 197.742 264.953 197.293C264.953 196.844 264.589 196.481 264.139 196.481Z" fill="#00DCE6"/>
<path d="M259.394 196.481C258.945 196.481 258.581 196.844 258.581 197.293C258.581 197.742 258.945 198.105 259.394 198.105C259.843 198.105 260.208 197.742 260.208 197.293C260.208 196.844 259.843 196.481 259.394 196.481Z" fill="#00DCE6"/>
<path d="M254.785 196.481C254.336 196.481 253.971 196.844 253.971 197.293C253.971 197.742 254.336 198.105 254.785 198.105C255.234 198.105 255.598 197.742 255.598 197.293C255.598 196.844 255.234 196.481 254.785 196.481Z" fill="#00DCE6"/>
<path d="M250.04 196.481C249.591 196.481 249.226 196.844 249.226 197.293C249.226 197.742 249.591 198.105 250.04 198.105C250.489 198.105 250.853 197.742 250.853 197.293C250.853 196.844 250.489 196.481 250.04 196.481Z" fill="#00DCE6"/>
<path d="M245.43 196.481C244.981 196.481 244.617 196.844 244.617 197.293C244.617 197.742 244.981 198.105 245.43 198.105C245.88 198.105 246.244 197.742 246.244 197.293C246.244 196.844 245.88 196.481 245.43 196.481Z" fill="#00DCE6"/>
<path d="M240.685 196.481C240.236 196.481 239.872 196.844 239.872 197.293C239.872 197.742 240.236 198.105 240.685 198.105C241.135 198.105 241.499 197.742 241.499 197.293C241.499 196.844 241.135 196.481 240.685 196.481Z" fill="#00DCE6"/>
<path d="M236.076 196.48C235.627 196.48 235.262 196.844 235.262 197.293C235.262 197.742 235.627 198.105 236.076 198.105C236.525 198.105 236.889 197.742 236.889 197.293C236.889 196.844 236.525 196.48 236.076 196.48Z" fill="#00DCE6"/>
<path d="M231.331 196.48C230.882 196.48 230.517 196.844 230.517 197.293C230.517 197.742 230.882 198.105 231.331 198.105C231.78 198.105 232.144 197.742 232.144 197.293C232.144 196.844 231.78 196.48 231.331 196.48Z" fill="#00DCE6"/>
<path d="M226.721 196.48C226.272 196.48 225.908 196.844 225.908 197.293C225.908 197.742 226.272 198.105 226.721 198.105C227.171 198.105 227.535 197.742 227.535 197.293C227.535 196.844 227.171 196.48 226.721 196.48Z" fill="#00DCE6"/>
<path d="M221.976 196.48C221.527 196.48 221.163 196.844 221.163 197.293C221.163 197.742 221.527 198.105 221.976 198.105C222.426 198.105 222.79 197.742 222.79 197.293C222.79 196.844 222.426 196.48 221.976 196.48Z" fill="#00DCE6"/>
<path d="M217.231 196.48C216.782 196.48 216.418 196.844 216.418 197.293C216.418 197.742 216.782 198.105 217.231 198.105C217.681 198.105 218.045 197.742 218.045 197.293C218.045 196.844 217.681 196.48 217.231 196.48Z" fill="#00DCE6"/>
<path d="M212.622 196.48C212.173 196.48 211.808 196.844 211.808 197.293C211.808 197.742 212.173 198.105 212.622 198.105C213.071 198.105 213.435 197.742 213.435 197.293C213.435 196.844 213.071 196.48 212.622 196.48Z" fill="#00DCE6"/>
<path d="M310.912 191.74C310.462 191.74 310.098 192.104 310.098 192.552C310.098 193.001 310.462 193.365 310.912 193.365C311.361 193.365 311.725 193.001 311.725 192.552C311.725 192.104 311.361 191.74 310.912 191.74Z" fill="#00DCE6"/>
<path d="M306.302 191.74C305.853 191.74 305.489 192.104 305.489 192.552C305.489 193.001 305.853 193.365 306.302 193.365C306.751 193.365 307.116 193.001 307.116 192.552C307.116 192.104 306.751 191.74 306.302 191.74Z" fill="#00DCE6"/>
<path d="M301.557 191.74C301.108 191.74 300.744 192.104 300.744 192.552C300.744 193.001 301.108 193.365 301.557 193.365C302.006 193.365 302.371 193.001 302.371 192.552C302.371 192.104 302.006 191.74 301.557 191.74Z" fill="#00DCE6"/>
<path d="M296.948 191.74C296.498 191.74 296.134 192.104 296.134 192.552C296.134 193.001 296.498 193.365 296.948 193.365C297.397 193.365 297.761 193.001 297.761 192.552C297.761 192.104 297.397 191.74 296.948 191.74Z" fill="#00DCE6"/>
<path d="M292.203 191.74C291.753 191.74 291.389 192.104 291.389 192.552C291.389 193.001 291.753 193.365 292.203 193.365C292.652 193.365 293.016 193.001 293.016 192.552C293.016 192.104 292.652 191.74 292.203 191.74Z" fill="#00DCE6"/>
<path d="M287.593 191.74C287.144 191.74 286.78 192.104 286.78 192.552C286.78 193.001 287.144 193.365 287.593 193.365C288.042 193.365 288.407 193.001 288.407 192.552C288.407 192.104 288.042 191.74 287.593 191.74Z" fill="#00DCE6"/>
<path d="M282.848 191.74C282.399 191.74 282.035 192.104 282.035 192.552C282.035 193.001 282.399 193.365 282.848 193.365C283.297 193.365 283.662 193.001 283.662 192.552C283.662 192.104 283.297 191.74 282.848 191.74Z" fill="#00DCE6"/>
<path d="M278.239 191.74C277.79 191.74 277.425 192.104 277.425 192.552C277.425 193.001 277.79 193.365 278.239 193.365C278.688 193.365 279.052 193.001 279.052 192.552C279.052 192.104 278.688 191.74 278.239 191.74Z" fill="#00DCE6"/>
<path d="M273.494 191.74C273.045 191.74 272.68 192.104 272.68 192.552C272.68 193.001 273.045 193.365 273.494 193.365C273.943 193.365 274.307 193.001 274.307 192.552C274.307 192.104 273.943 191.74 273.494 191.74Z" fill="#00DCE6"/>
<path d="M268.749 191.74C268.299 191.74 267.935 192.104 267.935 192.552C267.935 193.001 268.299 193.365 268.749 193.365C269.198 193.365 269.562 193.001 269.562 192.552C269.562 192.104 269.198 191.74 268.749 191.74Z" fill="#00DCE6"/>
<path d="M264.139 191.74C263.69 191.74 263.326 192.104 263.326 192.552C263.326 193.001 263.69 193.365 264.139 193.365C264.589 193.365 264.953 193.001 264.953 192.552C264.953 192.104 264.589 191.74 264.139 191.74Z" fill="#00DCE6"/>
<path d="M259.394 191.74C258.945 191.74 258.581 192.104 258.581 192.552C258.581 193.001 258.945 193.365 259.394 193.365C259.843 193.365 260.208 193.001 260.208 192.552C260.208 192.104 259.843 191.74 259.394 191.74Z" fill="#00DCE6"/>
<path d="M254.785 191.74C254.336 191.74 253.971 192.104 253.971 192.552C253.971 193.001 254.336 193.365 254.785 193.365C255.234 193.365 255.598 193.001 255.598 192.552C255.598 192.104 255.234 191.74 254.785 191.74Z" fill="#00DCE6"/>
<path d="M250.04 191.74C249.591 191.74 249.226 192.104 249.226 192.552C249.226 193.001 249.591 193.365 250.04 193.365C250.489 193.365 250.853 193.001 250.853 192.552C250.853 192.104 250.489 191.74 250.04 191.74Z" fill="#00DCE6"/>
<path d="M245.43 191.74C244.981 191.74 244.617 192.104 244.617 192.552C244.617 193.001 244.981 193.365 245.43 193.365C245.88 193.365 246.244 193.001 246.244 192.552C246.244 192.104 245.88 191.74 245.43 191.74Z" fill="#00DCE6"/>
<path d="M240.685 191.74C240.236 191.74 239.872 192.104 239.872 192.552C239.872 193.001 240.236 193.365 240.685 193.365C241.135 193.365 241.499 193.001 241.499 192.552C241.499 192.104 241.135 191.74 240.685 191.74Z" fill="#00DCE6"/>
<path d="M236.076 191.74C235.627 191.74 235.262 192.104 235.262 192.552C235.262 193.001 235.627 193.365 236.076 193.365C236.525 193.365 236.889 193.001 236.889 192.552C236.889 192.104 236.525 191.74 236.076 191.74Z" fill="#00DCE6"/>
<path d="M231.331 191.74C230.882 191.74 230.517 192.104 230.517 192.552C230.517 193.001 230.882 193.365 231.331 193.365C231.78 193.365 232.144 193.001 232.144 192.552C232.144 192.104 231.78 191.74 231.331 191.74Z" fill="#00DCE6"/>
<path d="M226.721 191.74C226.272 191.74 225.908 192.104 225.908 192.552C225.908 193.001 226.272 193.365 226.721 193.365C227.171 193.365 227.535 193.001 227.535 192.552C227.535 192.104 227.171 191.74 226.721 191.74Z" fill="#00DCE6"/>
<path d="M221.976 191.74C221.527 191.74 221.163 192.104 221.163 192.552C221.163 193.001 221.527 193.365 221.976 193.365C222.426 193.365 222.79 193.001 222.79 192.552C222.79 192.104 222.426 191.74 221.976 191.74Z" fill="#00DCE6"/>
<path d="M217.231 191.74C216.782 191.74 216.418 192.104 216.418 192.552C216.418 193.001 216.782 193.365 217.231 193.365C217.681 193.365 218.045 193.001 218.045 192.552C218.045 192.104 217.681 191.74 217.231 191.74Z" fill="#00DCE6"/>
<path d="M212.622 191.74C212.173 191.74 211.808 192.104 211.808 192.552C211.808 193.001 212.173 193.365 212.622 193.365C213.071 193.365 213.435 193.001 213.435 192.552C213.435 192.104 213.071 191.74 212.622 191.74Z" fill="#00DCE6"/>
<path d="M310.912 187C310.462 187 310.098 187.364 310.098 187.812C310.098 188.261 310.462 188.625 310.912 188.625C311.361 188.625 311.725 188.261 311.725 187.812C311.725 187.364 311.361 187 310.912 187Z" fill="#00DCE6"/>
<path d="M306.302 187C305.853 187 305.489 187.364 305.489 187.812C305.489 188.261 305.853 188.625 306.302 188.625C306.751 188.625 307.116 188.261 307.116 187.812C307.116 187.364 306.751 187 306.302 187Z" fill="#00DCE6"/>
<path d="M301.557 187C301.108 187 300.744 187.364 300.744 187.812C300.744 188.261 301.108 188.625 301.557 188.625C302.006 188.625 302.371 188.261 302.371 187.812C302.371 187.364 302.006 187 301.557 187Z" fill="#00DCE6"/>
<path d="M296.948 187C296.498 187 296.134 187.364 296.134 187.812C296.134 188.261 296.498 188.625 296.948 188.625C297.397 188.625 297.761 188.261 297.761 187.812C297.761 187.364 297.397 187 296.948 187Z" fill="#00DCE6"/>
<path d="M292.203 187C291.753 187 291.389 187.364 291.389 187.812C291.389 188.261 291.753 188.625 292.203 188.625C292.652 188.625 293.016 188.261 293.016 187.812C293.016 187.364 292.652 187 292.203 187Z" fill="#00DCE6"/>
<path d="M287.593 187C287.144 187 286.78 187.364 286.78 187.812C286.78 188.261 287.144 188.625 287.593 188.625C288.042 188.625 288.407 188.261 288.407 187.812C288.407 187.364 288.042 187 287.593 187Z" fill="#00DCE6"/>
<path d="M282.848 187C282.399 187 282.035 187.364 282.035 187.812C282.035 188.261 282.399 188.625 282.848 188.625C283.297 188.625 283.662 188.261 283.662 187.812C283.662 187.364 283.297 187 282.848 187Z" fill="#00DCE6"/>
<path d="M278.239 187C277.79 187 277.425 187.364 277.425 187.812C277.425 188.261 277.79 188.625 278.239 188.625C278.688 188.625 279.052 188.261 279.052 187.812C279.052 187.364 278.688 187 278.239 187Z" fill="#00DCE6"/>
<path d="M273.494 187C273.045 187 272.68 187.364 272.68 187.812C272.68 188.261 273.045 188.625 273.494 188.625C273.943 188.625 274.307 188.261 274.307 187.812C274.307 187.364 273.943 187 273.494 187Z" fill="#00DCE6"/>
<path d="M268.749 187C268.299 187 267.935 187.364 267.935 187.812C267.935 188.261 268.299 188.625 268.749 188.625C269.198 188.625 269.562 188.261 269.562 187.812C269.562 187.364 269.198 187 268.749 187Z" fill="#00DCE6"/>
<path d="M264.139 187C263.69 187 263.326 187.364 263.326 187.812C263.326 188.261 263.69 188.625 264.139 188.625C264.589 188.625 264.953 188.261 264.953 187.812C264.953 187.364 264.589 187 264.139 187Z" fill="#00DCE6"/>
<path d="M259.394 187C258.945 187 258.581 187.364 258.581 187.812C258.581 188.261 258.945 188.625 259.394 188.625C259.843 188.625 260.208 188.261 260.208 187.812C260.208 187.364 259.843 187 259.394 187Z" fill="#00DCE6"/>
<path d="M254.785 187C254.336 187 253.971 187.364 253.971 187.812C253.971 188.261 254.336 188.625 254.785 188.625C255.234 188.625 255.598 188.261 255.598 187.812C255.598 187.364 255.234 187 254.785 187Z" fill="#00DCE6"/>
<path d="M250.04 187C249.591 187 249.226 187.364 249.226 187.812C249.226 188.261 249.591 188.625 250.04 188.625C250.489 188.625 250.853 188.261 250.853 187.812C250.853 187.364 250.489 187 250.04 187Z" fill="#00DCE6"/>
<path d="M245.43 187C244.981 187 244.617 187.364 244.617 187.812C244.617 188.261 244.981 188.625 245.43 188.625C245.88 188.625 246.244 188.261 246.244 187.812C246.244 187.364 245.88 187 245.43 187Z" fill="#00DCE6"/>
<path d="M240.685 187C240.236 187 239.872 187.364 239.872 187.812C239.872 188.261 240.236 188.625 240.685 188.625C241.135 188.625 241.499 188.261 241.499 187.812C241.499 187.364 241.135 187 240.685 187Z" fill="#00DCE6"/>
<path d="M236.076 187C235.627 187 235.262 187.364 235.262 187.812C235.262 188.261 235.627 188.625 236.076 188.625C236.525 188.625 236.889 188.261 236.889 187.812C236.889 187.364 236.525 187 236.076 187Z" fill="#00DCE6"/>
<path d="M231.331 187C230.882 187 230.517 187.364 230.517 187.812C230.517 188.261 230.882 188.625 231.331 188.625C231.78 188.625 232.144 188.261 232.144 187.812C232.144 187.364 231.78 187 231.331 187Z" fill="#00DCE6"/>
<path d="M226.721 187C226.272 187 225.908 187.364 225.908 187.812C225.908 188.261 226.272 188.625 226.721 188.625C227.171 188.625 227.535 188.261 227.535 187.812C227.535 187.364 227.171 187 226.721 187Z" fill="#00DCE6"/>
<path d="M221.976 187C221.527 187 221.163 187.364 221.163 187.812C221.163 188.261 221.527 188.625 221.976 188.625C222.426 188.625 222.79 188.261 222.79 187.812C222.79 187.364 222.426 187 221.976 187Z" fill="#00DCE6"/>
<path d="M217.231 187C216.782 187 216.418 187.364 216.418 187.812C216.418 188.261 216.782 188.625 217.231 188.625C217.681 188.625 218.045 188.261 218.045 187.812C218.045 187.364 217.681 187 217.231 187Z" fill="#00DCE6"/>
<path d="M212.622 187C212.173 187 211.808 187.364 211.808 187.812C211.808 188.261 212.173 188.625 212.622 188.625C213.071 188.625 213.435 188.261 213.435 187.812C213.435 187.364 213.071 187 212.622 187Z" fill="#00DCE6"/>
<path d="M208.012 201.084C207.563 201.084 207.199 201.447 207.199 201.896C207.199 202.345 207.563 202.709 208.012 202.709C208.462 202.709 208.826 202.345 208.826 201.896C208.826 201.447 208.462 201.084 208.012 201.084Z" fill="#00DCE6"/>
<path d="M203.267 201.084C202.818 201.084 202.454 201.447 202.454 201.896C202.454 202.345 202.818 202.709 203.267 202.709C203.717 202.709 204.081 202.345 204.081 201.896C204.081 201.447 203.717 201.084 203.267 201.084Z" fill="#00DCE6"/>
<path d="M198.522 201.084C198.073 201.084 197.709 201.447 197.709 201.896C197.709 202.345 198.073 202.709 198.522 202.709C198.972 202.709 199.336 202.345 199.336 201.896C199.336 201.447 198.972 201.084 198.522 201.084Z" fill="#00DCE6"/>
<path d="M193.913 201.084C193.464 201.084 193.1 201.447 193.1 201.896C193.1 202.345 193.464 202.709 193.913 202.709C194.362 202.709 194.726 202.345 194.726 201.896C194.726 201.447 194.362 201.084 193.913 201.084Z" fill="#00DCE6"/>
<path d="M189.168 201.084C188.719 201.084 188.355 201.447 188.355 201.896C188.355 202.345 188.719 202.709 189.168 202.709C189.617 202.709 189.981 202.345 189.981 201.896C189.981 201.447 189.617 201.084 189.168 201.084Z" fill="#00DCE6"/>
<path d="M184.558 201.084C184.109 201.084 183.745 201.447 183.745 201.896C183.745 202.345 184.109 202.709 184.558 202.709C185.008 202.709 185.372 202.345 185.372 201.896C185.372 201.447 185.008 201.084 184.558 201.084Z" fill="#00DCE6"/>
<path d="M179.813 201.084C179.364 201.084 179 201.447 179 201.896C179 202.345 179.364 202.709 179.813 202.709C180.263 202.709 180.627 202.345 180.627 201.896C180.627 201.447 180.263 201.084 179.813 201.084Z" fill="#00DCE6"/>
<path d="M208.012 196.48C207.563 196.48 207.199 196.844 207.199 197.293C207.199 197.742 207.563 198.105 208.012 198.105C208.462 198.105 208.826 197.742 208.826 197.293C208.826 196.844 208.462 196.48 208.012 196.48Z" fill="#00DCE6"/>
<path d="M203.267 196.48C202.818 196.48 202.454 196.844 202.454 197.293C202.454 197.742 202.818 198.105 203.267 198.105C203.717 198.105 204.081 197.742 204.081 197.293C204.081 196.844 203.717 196.48 203.267 196.48Z" fill="#00DCE6"/>
<path d="M198.522 196.48C198.073 196.48 197.709 196.844 197.709 197.293C197.709 197.742 198.073 198.105 198.522 198.105C198.972 198.105 199.336 197.742 199.336 197.293C199.336 196.844 198.972 196.48 198.522 196.48Z" fill="#00DCE6"/>
<path d="M193.913 196.48C193.464 196.48 193.1 196.844 193.1 197.293C193.1 197.742 193.464 198.105 193.913 198.105C194.362 198.105 194.726 197.742 194.726 197.293C194.726 196.844 194.362 196.48 193.913 196.48Z" fill="#00DCE6"/>
<path d="M189.168 196.48C188.719 196.48 188.354 196.844 188.354 197.293C188.354 197.742 188.719 198.105 189.168 198.105C189.617 198.105 189.981 197.742 189.981 197.293C189.981 196.844 189.617 196.48 189.168 196.48Z" fill="#00DCE6"/>
<path d="M184.558 196.48C184.109 196.48 183.745 196.844 183.745 197.293C183.745 197.742 184.109 198.105 184.558 198.105C185.008 198.105 185.372 197.742 185.372 197.293C185.372 196.844 185.008 196.48 184.558 196.48Z" fill="#00DCE6"/>
<path d="M179.813 196.48C179.364 196.48 179 196.844 179 197.293C179 197.742 179.364 198.105 179.813 198.105C180.263 198.105 180.627 197.742 180.627 197.293C180.627 196.844 180.263 196.48 179.813 196.48Z" fill="#00DCE6"/>
<path d="M208.012 191.74C207.563 191.74 207.199 192.104 207.199 192.552C207.199 193.001 207.563 193.365 208.012 193.365C208.462 193.365 208.826 193.001 208.826 192.552C208.826 192.104 208.462 191.74 208.012 191.74Z" fill="#00DCE6"/>
<path d="M203.267 191.74C202.818 191.74 202.454 192.104 202.454 192.552C202.454 193.001 202.818 193.365 203.267 193.365C203.717 193.365 204.081 193.001 204.081 192.552C204.081 192.104 203.717 191.74 203.267 191.74Z" fill="#00DCE6"/>
<path d="M198.522 191.74C198.073 191.74 197.709 192.104 197.709 192.552C197.709 193.001 198.073 193.365 198.522 193.365C198.972 193.365 199.336 193.001 199.336 192.552C199.336 192.104 198.972 191.74 198.522 191.74Z" fill="#00DCE6"/>
<path d="M193.913 191.74C193.464 191.74 193.1 192.104 193.1 192.552C193.1 193.001 193.464 193.365 193.913 193.365C194.362 193.365 194.726 193.001 194.726 192.552C194.726 192.104 194.362 191.74 193.913 191.74Z" fill="#00DCE6"/>
<path d="M189.168 191.74C188.719 191.74 188.354 192.104 188.354 192.552C188.354 193.001 188.719 193.365 189.168 193.365C189.617 193.365 189.981 193.001 189.981 192.552C189.981 192.104 189.617 191.74 189.168 191.74Z" fill="#00DCE6"/>
<path d="M184.558 191.74C184.109 191.74 183.745 192.104 183.745 192.552C183.745 193.001 184.109 193.365 184.558 193.365C185.008 193.365 185.372 193.001 185.372 192.552C185.372 192.104 185.008 191.74 184.558 191.74Z" fill="#00DCE6"/>
<path d="M179.813 191.74C179.364 191.74 179 192.104 179 192.552C179 193.001 179.364 193.365 179.813 193.365C180.263 193.365 180.627 193.001 180.627 192.552C180.627 192.104 180.263 191.74 179.813 191.74Z" fill="#00DCE6"/>
<path d="M208.012 187C207.563 187 207.199 187.364 207.199 187.812C207.199 188.261 207.563 188.625 208.012 188.625C208.462 188.625 208.826 188.261 208.826 187.812C208.826 187.364 208.462 187 208.012 187Z" fill="#00DCE6"/>
<path d="M203.267 187C202.818 187 202.454 187.364 202.454 187.812C202.454 188.261 202.818 188.625 203.267 188.625C203.717 188.625 204.081 188.261 204.081 187.812C204.081 187.364 203.717 187 203.267 187Z" fill="#00DCE6"/>
<path d="M198.522 187C198.073 187 197.709 187.364 197.709 187.812C197.709 188.261 198.073 188.625 198.522 188.625C198.972 188.625 199.336 188.261 199.336 187.812C199.336 187.364 198.972 187 198.522 187Z" fill="#00DCE6"/>
<path d="M193.913 187C193.464 187 193.1 187.364 193.1 187.812C193.1 188.261 193.464 188.625 193.913 188.625C194.362 188.625 194.726 188.261 194.726 187.812C194.726 187.364 194.362 187 193.913 187Z" fill="#00DCE6"/>
<path d="M189.168 187C188.719 187 188.354 187.364 188.354 187.812C188.354 188.261 188.719 188.625 189.168 188.625C189.617 188.625 189.981 188.261 189.981 187.812C189.981 187.364 189.617 187 189.168 187Z" fill="#00DCE6"/>
<path d="M184.558 187C184.109 187 183.745 187.364 183.745 187.812C183.745 188.261 184.109 188.625 184.558 188.625C185.008 188.625 185.372 188.261 185.372 187.812C185.372 187.364 185.008 187 184.558 187Z" fill="#00DCE6"/>
<path d="M179.813 187C179.364 187 179 187.364 179 187.812C179 188.261 179.364 188.625 179.813 188.625C180.263 188.625 180.627 188.261 180.627 187.812C180.627 187.364 180.263 187 179.813 187Z" fill="#00DCE6"/>
</svg>
