<svg width="70" height="70" viewBox="0 0 70 70" fill="none" xmlns="http://www.w3.org/2000/svg">
<circle cx="35" cy="35" r="35" fill="#00DCE6" fill-opacity="0.1"/>
<g clip-path="url(#clip0)">
<path d="M35.4009 53C34.0132 53 32.8238 52.3967 31.8326 51.5922C30.8414 50.5866 30.2467 49.3799 30.2467 47.9721C30.2467 46.5642 30.8414 45.3575 31.8326 44.352C33.022 43.1453 35.0044 42.5419 36.5903 42.9441C38.3745 41.5363 42.9339 37.514 42.9339 37.514L43.3304 37.1117L45.9075 39.7263L45.7093 40.1285C45.1145 41.1341 44.1234 42.3408 43.1322 43.5475C42.141 44.7542 41.1498 45.9609 40.5551 46.9665C40.9515 48.5754 40.3568 50.3855 39.1674 51.5922C37.978 52.5978 36.7885 53 35.4009 53ZM35.4009 43.7486C34.4097 43.7486 33.2203 44.1508 32.4273 44.9553C31.6344 45.7598 31.2379 46.7654 31.2379 47.9721C31.2379 49.1788 31.6344 50.1844 32.4273 50.9888C34.0132 52.5978 36.5903 52.5978 38.3745 50.9888C39.3656 49.9832 39.7621 48.5754 39.5639 47.1676V46.9665L39.7621 46.7654C40.5551 45.5587 41.5463 44.352 42.5374 42.9441C43.3304 41.7374 44.3216 40.7318 44.7181 39.9274L43.3304 38.5196C42.141 39.5251 38.5727 42.743 37.185 43.9497H36.7885H36.5903C36.1938 43.7486 35.7974 43.7486 35.4009 43.7486ZM52.6476 41.3352C51.0617 41.3352 49.674 40.3296 49.0793 38.9218C47.0969 33.6927 41.348 30.2737 35.0044 30.2737C28.6608 30.2737 23.1101 33.6927 20.9295 38.9218C20.1366 40.933 17.9559 41.7374 15.9736 40.933C14.9824 40.5307 14.3877 39.7263 13.9912 38.9218C13.5947 37.9162 13.5947 36.9106 13.9912 36.1061C17.163 28.0615 25.6872 22.6313 35.0044 22.6313C44.5198 22.6313 52.8458 28.0615 56.0176 36.1061C56.4141 37.1117 56.4141 38.1173 56.0176 38.9218C55.6212 39.9274 54.8282 40.5307 53.837 40.933C53.6388 41.3352 53.0441 41.3352 52.6476 41.3352ZM47.8899 34.8994C48.8811 35.905 49.4758 37.3128 50.0705 38.5196C50.6652 39.9274 52.2511 40.7318 53.6388 40.1285C54.4317 39.9274 54.8282 39.324 55.2247 38.5196C55.4229 37.9162 55.6211 37.1117 55.2247 36.3073C52.2511 28.6648 44.1234 23.4358 35.0044 23.4358C26.0837 23.6369 17.9559 28.6648 14.9824 36.3073C14.7841 36.9106 14.7841 37.7151 14.9824 38.5196C15.1806 39.1229 15.7753 39.7263 16.5683 40.1285C17.9559 40.7318 19.5419 39.9274 20.1366 38.5196C20.533 37.7151 20.9295 36.9106 21.326 36.1061L19.1454 34.2961L19.7401 33.4916L21.9207 35.3017C23.3084 33.4916 25.0925 32.0838 27.2731 31.0782L26.0837 28.4637L26.8767 28.0615L28.0661 30.676C30.0485 29.8715 32.2291 29.2682 34.6079 29.2682V26.2514H35.5991V29.2682C37.5815 29.2682 39.5639 29.6704 41.5463 30.4749L42.7357 28.0615L43.7269 28.4637L42.5374 30.8771C44.3216 31.6816 45.9075 32.8883 47.2952 34.095L49.2775 32.2849L49.8722 33.0894L47.8899 34.8994ZM57.2071 29.4693C52.0529 22.2291 43.9251 18.0056 35.2026 18.0056C26.6784 18.0056 18.9471 21.8268 13.793 28.4637L13 27.8603C18.3524 21.0223 26.4802 17 35.2026 17C44.3216 17 52.8458 21.4246 58.1982 28.8659L57.2071 29.4693Z" fill="#00DCE6"/>
</g>
<defs>
<clipPath id="clip0">
<rect width="45" height="36" fill="white" transform="translate(13 17)"/>
</clipPath>
</defs>
</svg>
