<svg width="330" height="640" viewBox="0 0 330 640" fill="none" xmlns="http://www.w3.org/2000/svg">
<g clip-path="url(#clip0)">
<path d="M258.323 78.7324C280.112 78.7324 297.745 61.099 297.745 39.31C297.633 17.6334 280 0 258.323 0C236.646 0 218.901 17.6334 218.901 39.4223C218.901 61.099 236.534 78.7324 258.323 78.7324Z" fill="#1F2432"/>
<path d="M258.323 191.271C280.112 191.271 297.745 173.638 297.745 151.849C297.745 130.06 280.112 112.427 258.323 112.427C236.534 112.427 218.901 130.06 218.901 151.849C218.901 173.638 236.534 191.271 258.323 191.271Z" fill="#1F2432"/>
<path d="M258.323 303.698C280.112 303.698 297.745 286.065 297.745 264.276C297.745 242.487 280.112 224.854 258.323 224.854C236.534 224.854 218.901 242.487 218.901 264.276C218.901 286.065 236.534 303.698 258.323 303.698Z" fill="#1F2432"/>
<path d="M258.323 416.236C280.112 416.236 297.745 398.603 297.745 376.814C297.745 355.025 280.112 337.392 258.323 337.392C236.534 337.392 218.901 355.025 218.901 376.814C218.901 398.603 236.534 416.236 258.323 416.236Z" fill="#1F2432"/>
<path d="M258.323 528.776C280.112 528.776 297.745 511.143 297.745 489.354C297.745 467.565 280.112 449.932 258.323 449.932C236.534 449.932 218.901 467.565 218.901 489.354C218.901 511.143 236.534 528.776 258.323 528.776Z" fill="#1F2432"/>
<path d="M247.092 77.6094C247.092 83.7867 252.146 88.8408 258.323 88.8408C264.5 88.8408 269.554 83.7867 269.554 77.6094C269.554 71.4321 264.5 66.3779 258.323 66.3779C252.033 66.3779 247.092 71.4321 247.092 77.6094Z" fill="#00DCE6" fill-opacity="0.2"/>
<path d="M253.831 77.6098C253.831 80.0807 255.852 82.1023 258.323 82.1023C260.794 82.1023 262.816 80.0807 262.816 77.6098C262.816 75.1388 260.794 73.1172 258.323 73.1172C255.852 73.1172 253.831 75.1388 253.831 77.6098Z" fill="#00DCE6"/>
<path d="M247.092 101.195L258.323 112.427L269.554 101.195" stroke="#00DCE6" stroke-width="2"/>
<path d="M258.323 74.0156C258.323 89.0657 258.323 97.4893 258.323 112.427" stroke="#00DCE6" stroke-width="2" stroke-miterlimit="16"/>
<path d="M247.092 190.148C247.092 196.326 252.146 201.38 258.323 201.38C264.5 201.38 269.554 196.326 269.554 190.148C269.554 183.971 264.5 178.917 258.323 178.917C252.033 178.917 247.092 183.859 247.092 190.148Z" fill="#00DCE6" fill-opacity="0.2"/>
<path d="M253.831 190.148C253.831 192.619 255.852 194.64 258.323 194.64C260.794 194.64 262.816 192.619 262.816 190.148C262.816 187.677 260.794 185.655 258.323 185.655C255.852 185.655 253.831 187.677 253.831 190.148Z" fill="#00DCE6"/>
<path d="M247.092 213.734L258.323 224.966L269.554 213.734" stroke="#00DCE6" stroke-width="2"/>
<path d="M258.323 186.555C258.323 201.605 258.323 210.028 258.323 224.966" stroke="#00DCE6" stroke-width="2" stroke-miterlimit="16"/>
<path d="M247.092 302.574C247.092 308.752 252.146 313.806 258.323 313.806C264.5 313.806 269.554 308.752 269.554 302.574C269.554 296.397 264.5 291.343 258.323 291.343C252.033 291.343 247.092 296.397 247.092 302.574Z" fill="#00DCE6" fill-opacity="0.2"/>
<path d="M253.831 302.576C253.831 305.046 255.852 307.068 258.323 307.068C260.794 307.068 262.816 305.046 262.816 302.576C262.816 300.105 260.794 298.083 258.323 298.083C255.852 298.083 253.831 300.105 253.831 302.576Z" fill="#00DCE6"/>
<path d="M247.092 326.161L258.323 337.393L269.554 326.161" stroke="#00DCE6" stroke-width="2"/>
<path d="M258.323 299.093C258.323 314.143 258.323 322.566 258.323 337.504" stroke="#00DCE6" stroke-width="2" stroke-miterlimit="16"/>
<path d="M247.092 415.114C247.092 421.292 252.146 426.346 258.323 426.346C264.5 426.346 269.554 421.292 269.554 415.114C269.554 408.937 264.5 403.883 258.323 403.883C252.033 403.883 247.092 408.937 247.092 415.114Z" fill="#00DCE6" fill-opacity="0.2"/>
<path d="M253.831 415.114C253.831 417.585 255.852 419.606 258.323 419.606C260.794 419.606 262.816 417.585 262.816 415.114C262.816 412.643 260.794 410.621 258.323 410.621C255.852 410.621 253.831 412.643 253.831 415.114Z" fill="#00DCE6"/>
<path d="M247.092 438.7L258.323 449.932L269.554 438.7" stroke="#00DCE6" stroke-width="2"/>
<path d="M258.323 411.521C258.323 426.571 258.323 434.994 258.323 449.932" stroke="#00DCE6" stroke-width="2" stroke-miterlimit="16"/>
<path d="M164.353 78.7334C186.142 78.7334 203.775 61.1 203.775 39.311C203.775 17.522 186.142 -0.111328 164.353 -0.111328C142.564 -0.111328 124.93 17.6343 124.93 39.4233C124.93 61.1 142.564 78.7334 164.353 78.7334Z" fill="#1F2432"/>
<path d="M164.353 191.271C186.142 191.271 203.775 173.638 203.775 151.849C203.775 130.06 186.142 112.427 164.353 112.427C142.564 112.427 124.93 130.172 124.93 151.849C124.93 173.526 142.564 191.271 164.353 191.271Z" fill="#1F2432"/>
<path d="M164.353 303.698C186.142 303.698 203.775 286.065 203.775 264.276C203.775 242.487 186.142 224.854 164.353 224.854C142.564 224.854 124.93 242.599 124.93 264.388C124.93 286.177 142.564 303.698 164.353 303.698Z" fill="#1F2432"/>
<path d="M164.353 416.236C186.142 416.236 203.775 398.603 203.775 376.814C203.775 355.025 186.142 337.392 164.353 337.392C142.564 337.392 124.93 355.137 124.93 376.926C124.93 398.715 142.564 416.236 164.353 416.236Z" fill="#1F2432"/>
<path d="M164.353 528.776C186.142 528.776 203.775 511.143 203.775 489.354C203.775 467.565 186.142 449.932 164.353 449.932C142.564 449.932 124.93 467.677 124.93 489.354C124.93 511.031 142.564 528.776 164.353 528.776Z" fill="#1F2432"/>
<path d="M153.121 77.6094C153.121 83.7867 158.175 88.8408 164.353 88.8408C170.53 88.8408 175.584 83.7867 175.584 77.6094C175.584 71.4321 170.53 66.3779 164.353 66.3779C158.175 66.3779 153.121 71.4321 153.121 77.6094Z" fill="#00DCE6" fill-opacity="0.2"/>
<path d="M159.86 77.6098C159.86 80.0807 161.882 82.1023 164.352 82.1023C166.823 82.1023 168.845 80.0807 168.845 77.6098C168.845 75.1388 166.823 73.1172 164.352 73.1172C161.882 73.1172 159.86 75.1388 159.86 77.6098Z" fill="#00DCE6"/>
<path d="M153.121 101.195L164.353 112.427L175.584 101.195" stroke="#00DCE6" stroke-width="2"/>
<path d="M164.352 74.0156C164.352 89.0657 164.352 97.4893 164.352 112.427" stroke="#00DCE6" stroke-width="2" stroke-miterlimit="16"/>
<path d="M153.121 190.148C153.121 196.326 158.175 201.38 164.353 201.38C170.53 201.38 175.584 196.326 175.584 190.148C175.584 183.971 170.53 178.917 164.353 178.917C158.175 178.917 153.121 183.859 153.121 190.148Z" fill="#00DCE6" fill-opacity="0.2"/>
<path d="M159.86 190.148C159.86 192.619 161.882 194.64 164.352 194.64C166.823 194.64 168.845 192.619 168.845 190.148C168.845 187.677 166.823 185.655 164.352 185.655C161.882 185.655 159.86 187.677 159.86 190.148Z" fill="#00DCE6"/>
<path d="M153.121 213.734L164.353 224.966L175.584 213.734" stroke="#00DCE6" stroke-width="2"/>
<path d="M164.352 186.555C164.352 201.605 164.352 210.028 164.352 224.966" stroke="#00DCE6" stroke-width="2" stroke-miterlimit="16"/>
<path d="M153 302.231C153 308.409 158.054 313.463 164.231 313.463C170.409 313.463 175.463 308.409 175.463 302.231C175.463 296.054 170.409 291 164.231 291C158.054 291 153 296.054 153 302.231Z" fill="#00DCE6" fill-opacity="0.2"/>
<path d="M159.86 302.576C159.86 305.046 161.882 307.068 164.352 307.068C166.823 307.068 168.845 305.046 168.845 302.576C168.845 300.105 166.823 298.083 164.352 298.083C161.882 298.083 159.86 300.105 159.86 302.576Z" fill="#00DCE6"/>
<path d="M153.121 326.161L164.353 337.393L175.584 326.161" stroke="#00DCE6" stroke-width="2"/>
<path d="M164.352 299.093C164.352 314.143 164.352 322.566 164.352 337.504" stroke="#00DCE6" stroke-width="2" stroke-miterlimit="16"/>
<path d="M153.121 415.114C153.121 421.292 158.175 426.346 164.353 426.346C170.53 426.346 175.584 421.292 175.584 415.114C175.584 408.937 170.53 403.883 164.353 403.883C158.175 403.883 153.121 408.937 153.121 415.114Z" fill="#00DCE6" fill-opacity="0.2"/>
<path d="M159.86 415.114C159.86 417.585 161.882 419.606 164.352 419.606C166.823 419.606 168.845 417.585 168.845 415.114C168.845 412.643 166.823 410.621 164.352 410.621C161.882 410.621 159.86 412.643 159.86 415.114Z" fill="#00DCE6"/>
<path d="M153.121 438.7L164.353 449.932L175.584 438.7" stroke="#00DCE6" stroke-width="2"/>
<path d="M164 411.521C164 426.571 164 434.994 164 449.932" stroke="#00DCE6" stroke-width="2" stroke-miterlimit="16"/>
<path d="M81.9746 61H22.6994C10.4001 61 0.337036 51.1 0.337036 39C0.337036 26.9 10.4001 17 22.6994 17H81.9746C94.274 17 104.337 26.9 104.337 39C104.337 51.1 94.274 61 81.9746 61Z" fill="#00DCE6"/>
<path d="M306.394 599.871C308.078 599.871 309.538 601.219 309.538 603.016C309.538 604.813 308.191 606.161 306.394 606.161C304.597 606.161 303.249 604.813 303.249 603.016C303.249 601.219 304.597 599.871 306.394 599.871Z" fill="#00DCE6"/>
<path d="M306.394 38.2988C308.078 38.2988 309.538 39.6466 309.538 41.4436C309.538 43.1283 308.191 44.5884 306.394 44.5884C304.597 44.5884 303.249 43.2407 303.249 41.4436C303.249 39.6466 304.597 38.2988 306.394 38.2988Z" fill="#00DCE6"/>
<path d="M306.394 148.816C308.078 148.816 309.538 150.164 309.538 151.961C309.538 153.758 308.191 155.106 306.394 155.106C304.597 155.106 303.249 153.758 303.249 151.961C303.249 150.164 304.597 148.816 306.394 148.816Z" fill="#00DCE6"/>
<path d="M33.0977 40.7617C33.0977 40.4297 32.9805 40.1758 32.7461 40C32.5117 39.8203 32.0898 39.6328 31.4805 39.4375C30.8711 39.2383 30.3887 39.043 30.0332 38.8516C29.0645 38.3281 28.5801 37.623 28.5801 36.7363C28.5801 36.2754 28.709 35.8652 28.9668 35.5059C29.2285 35.1426 29.6016 34.8594 30.0859 34.6562C30.5742 34.4531 31.1211 34.3516 31.7266 34.3516C32.3359 34.3516 32.8789 34.4629 33.3555 34.6855C33.832 34.9043 34.2012 35.2148 34.4629 35.6172C34.7285 36.0195 34.8613 36.4766 34.8613 36.9883H33.1035C33.1035 36.5977 32.9805 36.2949 32.7344 36.0801C32.4883 35.8613 32.1426 35.752 31.6973 35.752C31.2676 35.752 30.9336 35.8438 30.6953 36.0273C30.457 36.207 30.3379 36.4453 30.3379 36.7422C30.3379 37.0195 30.4766 37.252 30.7539 37.4395C31.0352 37.627 31.4473 37.8027 31.9902 37.9668C32.9902 38.2676 33.7188 38.6406 34.1758 39.0859C34.6328 39.5312 34.8613 40.0859 34.8613 40.75C34.8613 41.4883 34.582 42.0684 34.0234 42.4902C33.4648 42.9082 32.7129 43.1172 31.7676 43.1172C31.1113 43.1172 30.5137 42.998 29.9746 42.7598C29.4355 42.5176 29.0234 42.1875 28.7383 41.7695C28.457 41.3516 28.3164 40.8672 28.3164 40.3164H30.0801C30.0801 41.2578 30.6426 41.7285 31.7676 41.7285C32.1855 41.7285 32.5117 41.6445 32.7461 41.4766C32.9805 41.3047 33.0977 41.0664 33.0977 40.7617ZM35.6816 39.7715C35.6816 39.1426 35.8027 38.582 36.0449 38.0898C36.2871 37.5977 36.6348 37.2168 37.0879 36.9473C37.5449 36.6777 38.0742 36.543 38.6758 36.543C39.5312 36.543 40.2285 36.8047 40.7676 37.3281C41.3105 37.8516 41.6133 38.5625 41.6758 39.4609L41.6875 39.8945C41.6875 40.8672 41.416 41.6484 40.873 42.2383C40.3301 42.8242 39.6016 43.1172 38.6875 43.1172C37.7734 43.1172 37.043 42.8242 36.4961 42.2383C35.9531 41.6523 35.6816 40.8555 35.6816 39.8477V39.7715ZM37.375 39.8945C37.375 40.4961 37.4883 40.957 37.7148 41.2773C37.9414 41.5938 38.2656 41.752 38.6875 41.752C39.0977 41.752 39.418 41.5957 39.6484 41.2832C39.8789 40.9668 39.9941 40.4629 39.9941 39.7715C39.9941 39.1816 39.8789 38.7246 39.6484 38.4004C39.418 38.0762 39.0938 37.9141 38.6758 37.9141C38.2617 37.9141 37.9414 38.0762 37.7148 38.4004C37.4883 38.7207 37.375 39.2188 37.375 39.8945ZM46.5273 42.3555C46.1094 42.8633 45.5312 43.1172 44.793 43.1172C44.1133 43.1172 43.5938 42.9219 43.2344 42.5312C42.8789 42.1406 42.6973 41.5684 42.6895 40.8145V36.6602H44.3828V40.7559C44.3828 41.416 44.6836 41.7461 45.2852 41.7461C45.8594 41.7461 46.2539 41.5469 46.4688 41.1484V36.6602H48.168V43H46.5742L46.5273 42.3555ZM53.0078 38.248C52.7773 38.2168 52.5742 38.2012 52.3984 38.2012C51.7578 38.2012 51.3379 38.418 51.1387 38.8516V43H49.4453V36.6602H51.0449L51.0918 37.416C51.4316 36.834 51.9023 36.543 52.5039 36.543C52.6914 36.543 52.8672 36.5684 53.0312 36.6191L53.0078 38.248ZM56.3477 41.752C56.6602 41.752 56.9141 41.666 57.1094 41.4941C57.3047 41.3223 57.4062 41.0938 57.4141 40.8086H59.002C58.998 41.2383 58.8809 41.6328 58.6504 41.9922C58.4199 42.3477 58.1035 42.625 57.7012 42.8242C57.3027 43.0195 56.8613 43.1172 56.377 43.1172C55.4707 43.1172 54.7559 42.8301 54.2324 42.2559C53.709 41.6777 53.4473 40.8809 53.4473 39.8652V39.7539C53.4473 38.7773 53.707 37.998 54.2266 37.416C54.7461 36.834 55.459 36.543 56.3652 36.543C57.1582 36.543 57.793 36.7695 58.2695 37.2227C58.75 37.6719 58.9941 38.2715 59.002 39.0215H57.4141C57.4062 38.6934 57.3047 38.4277 57.1094 38.2246C56.9141 38.0176 56.6562 37.9141 56.3359 37.9141C55.9414 37.9141 55.6426 38.0586 55.4395 38.3477C55.2402 38.6328 55.1406 39.0977 55.1406 39.7422V39.918C55.1406 40.5703 55.2402 41.0391 55.4395 41.3242C55.6387 41.6094 55.9414 41.752 56.3477 41.752ZM61.7559 43H60.0566V36.6602H61.7559V43ZM59.957 35.0195C59.957 34.7656 60.041 34.5566 60.209 34.3926C60.3809 34.2285 60.6133 34.1465 60.9062 34.1465C61.1953 34.1465 61.4258 34.2285 61.5977 34.3926C61.7695 34.5566 61.8555 34.7656 61.8555 35.0195C61.8555 35.2773 61.7676 35.4883 61.5918 35.6523C61.4199 35.8164 61.1914 35.8984 60.9062 35.8984C60.6211 35.8984 60.3906 35.8164 60.2148 35.6523C60.043 35.4883 59.957 35.2773 59.957 35.0195ZM64.7148 36.6602L64.7676 37.3926C65.2207 36.8262 65.8281 36.543 66.5898 36.543C67.2617 36.543 67.7617 36.7402 68.0898 37.1348C68.418 37.5293 68.5859 38.1191 68.5938 38.9043V43H66.9004V38.9453C66.9004 38.5859 66.8223 38.3262 66.666 38.166C66.5098 38.002 66.25 37.9199 65.8867 37.9199C65.4102 37.9199 65.0527 38.123 64.8145 38.5293V43H63.1211V36.6602H64.7148ZM69.6367 39.7832C69.6367 38.8105 69.8672 38.0273 70.3281 37.4336C70.793 36.8398 71.418 36.543 72.2031 36.543C72.8984 36.543 73.4395 36.7812 73.8262 37.2578L73.8965 36.6602H75.4316V42.7891C75.4316 43.3438 75.3047 43.8262 75.0508 44.2363C74.8008 44.6465 74.4473 44.959 73.9902 45.1738C73.5332 45.3887 72.998 45.4961 72.3848 45.4961C71.9199 45.4961 71.4668 45.4023 71.0254 45.2148C70.584 45.0312 70.25 44.793 70.0234 44.5L70.7734 43.4688C71.1953 43.9414 71.707 44.1777 72.3086 44.1777C72.7578 44.1777 73.1074 44.0566 73.3574 43.8145C73.6074 43.5762 73.7324 43.2363 73.7324 42.7949V42.4551C73.3418 42.8965 72.8281 43.1172 72.1914 43.1172C71.4297 43.1172 70.8125 42.8203 70.3398 42.2266C69.8711 41.6289 69.6367 40.8379 69.6367 39.8535V39.7832ZM71.3301 39.9062C71.3301 40.4805 71.4453 40.9316 71.6758 41.2598C71.9062 41.584 72.2227 41.7461 72.625 41.7461C73.1406 41.7461 73.5098 41.5527 73.7324 41.166V38.5C73.5059 38.1133 73.1406 37.9199 72.6367 37.9199C72.2305 37.9199 71.9102 38.0859 71.6758 38.418C71.4453 38.75 71.3301 39.2461 71.3301 39.9062Z" fill="white"/>
<path d="M81.9746 173H22.6994C10.4001 173 0.337036 163.1 0.337036 151C0.337036 138.9 10.4001 129 22.6994 129H81.9746C94.274 129 104.337 138.9 104.337 151C104.337 163.1 94.274 173 81.9746 173Z" fill="#00DCE6"/>
<path d="M15.4082 146.469L17.5996 152.656L19.7793 146.469H22.0879V155H20.3242V152.668L20.5 148.643L18.1973 155H16.9902L14.6934 148.648L14.8691 152.668V155H13.1113V146.469H15.4082ZM27.1855 155C27.1074 154.848 27.0508 154.658 27.0156 154.432C26.6055 154.889 26.0723 155.117 25.416 155.117C24.7949 155.117 24.2793 154.938 23.8691 154.578C23.4629 154.219 23.2598 153.766 23.2598 153.219C23.2598 152.547 23.5078 152.031 24.0039 151.672C24.5039 151.312 25.2246 151.131 26.166 151.127H26.9453V150.764C26.9453 150.471 26.8691 150.236 26.7168 150.061C26.5684 149.885 26.332 149.797 26.0078 149.797C25.7227 149.797 25.498 149.865 25.334 150.002C25.1738 150.139 25.0938 150.326 25.0938 150.564H23.4004C23.4004 150.197 23.5137 149.857 23.7402 149.545C23.9668 149.232 24.2871 148.988 24.7012 148.812C25.1152 148.633 25.5801 148.543 26.0957 148.543C26.877 148.543 27.4961 148.74 27.9531 149.135C28.4141 149.525 28.6445 150.076 28.6445 150.787V153.535C28.6484 154.137 28.7324 154.592 28.8965 154.9V155H27.1855ZM25.7852 153.822C26.0352 153.822 26.2656 153.768 26.4766 153.658C26.6875 153.545 26.8438 153.395 26.9453 153.207V152.117H26.3125C25.4648 152.117 25.0137 152.41 24.959 152.996L24.9531 153.096C24.9531 153.307 25.0273 153.48 25.1758 153.617C25.3242 153.754 25.5273 153.822 25.7852 153.822ZM31.5039 148.66L31.5566 149.393C32.0098 148.826 32.6172 148.543 33.3789 148.543C34.0508 148.543 34.5508 148.74 34.8789 149.135C35.207 149.529 35.375 150.119 35.3828 150.904V155H33.6895V150.945C33.6895 150.586 33.6113 150.326 33.4551 150.166C33.2988 150.002 33.0391 149.92 32.6758 149.92C32.1992 149.92 31.8418 150.123 31.6035 150.529V155H29.9102V148.66H31.5039ZM40.4688 154.355C40.0508 154.863 39.4727 155.117 38.7344 155.117C38.0547 155.117 37.5352 154.922 37.1758 154.531C36.8203 154.141 36.6387 153.568 36.6309 152.814V148.66H38.3242V152.756C38.3242 153.416 38.625 153.746 39.2266 153.746C39.8008 153.746 40.1953 153.547 40.4102 153.148V148.66H42.1094V155H40.5156L40.4688 154.355ZM43.8496 155V149.902H42.9062V148.66H43.8496V148.121C43.8496 147.41 44.0527 146.859 44.459 146.469C44.8691 146.074 45.4414 145.877 46.1758 145.877C46.4102 145.877 46.6973 145.916 47.0371 145.994L47.0195 147.307C46.8789 147.271 46.707 147.254 46.5039 147.254C45.8672 147.254 45.5488 147.553 45.5488 148.15V148.66H46.8086V149.902H45.5488V155H43.8496ZM51.3613 155C51.2832 154.848 51.2266 154.658 51.1914 154.432C50.7812 154.889 50.248 155.117 49.5918 155.117C48.9707 155.117 48.4551 154.938 48.0449 154.578C47.6387 154.219 47.4355 153.766 47.4355 153.219C47.4355 152.547 47.6836 152.031 48.1797 151.672C48.6797 151.312 49.4004 151.131 50.3418 151.127H51.1211V150.764C51.1211 150.471 51.0449 150.236 50.8926 150.061C50.7441 149.885 50.5078 149.797 50.1836 149.797C49.8984 149.797 49.6738 149.865 49.5098 150.002C49.3496 150.139 49.2695 150.326 49.2695 150.564H47.5762C47.5762 150.197 47.6895 149.857 47.916 149.545C48.1426 149.232 48.4629 148.988 48.877 148.812C49.291 148.633 49.7559 148.543 50.2715 148.543C51.0527 148.543 51.6719 148.74 52.1289 149.135C52.5898 149.525 52.8203 150.076 52.8203 150.787V153.535C52.8242 154.137 52.9082 154.592 53.0723 154.9V155H51.3613ZM49.9609 153.822C50.2109 153.822 50.4414 153.768 50.6523 153.658C50.8633 153.545 51.0195 153.395 51.1211 153.207V152.117H50.4883C49.6406 152.117 49.1895 152.41 49.1348 152.996L49.1289 153.096C49.1289 153.307 49.2031 153.48 49.3516 153.617C49.5 153.754 49.7031 153.822 49.9609 153.822ZM56.7578 153.752C57.0703 153.752 57.3242 153.666 57.5195 153.494C57.7148 153.322 57.8164 153.094 57.8242 152.809H59.4121C59.4082 153.238 59.291 153.633 59.0605 153.992C58.8301 154.348 58.5137 154.625 58.1113 154.824C57.7129 155.02 57.2715 155.117 56.7871 155.117C55.8809 155.117 55.166 154.83 54.6426 154.256C54.1191 153.678 53.8574 152.881 53.8574 151.865V151.754C53.8574 150.777 54.1172 149.998 54.6367 149.416C55.1562 148.834 55.8691 148.543 56.7754 148.543C57.5684 148.543 58.2031 148.77 58.6797 149.223C59.1602 149.672 59.4043 150.271 59.4121 151.021H57.8242C57.8164 150.693 57.7148 150.428 57.5195 150.225C57.3242 150.018 57.0664 149.914 56.7461 149.914C56.3516 149.914 56.0527 150.059 55.8496 150.348C55.6504 150.633 55.5508 151.098 55.5508 151.742V151.918C55.5508 152.57 55.6504 153.039 55.8496 153.324C56.0488 153.609 56.3516 153.752 56.7578 153.752ZM62.4062 147.102V148.66H63.4902V149.902H62.4062V153.066C62.4062 153.301 62.4512 153.469 62.541 153.57C62.6309 153.672 62.8027 153.723 63.0566 153.723C63.2441 153.723 63.4102 153.709 63.5547 153.682V154.965C63.2227 155.066 62.8809 155.117 62.5293 155.117C61.3418 155.117 60.7363 154.518 60.7129 153.318V149.902H59.7871V148.66H60.7129V147.102H62.4062ZM68.2305 154.355C67.8125 154.863 67.2344 155.117 66.4961 155.117C65.8164 155.117 65.2969 154.922 64.9375 154.531C64.582 154.141 64.4004 153.568 64.3926 152.814V148.66H66.0859V152.756C66.0859 153.416 66.3867 153.746 66.9883 153.746C67.5625 153.746 67.957 153.547 68.1719 153.148V148.66H69.8711V155H68.2773L68.2305 154.355ZM74.7109 150.248C74.4805 150.217 74.2773 150.201 74.1016 150.201C73.4609 150.201 73.041 150.418 72.8418 150.852V155H71.1484V148.66H72.748L72.7949 149.416C73.1348 148.834 73.6055 148.543 74.207 148.543C74.3945 148.543 74.5703 148.568 74.7344 148.619L74.7109 150.248ZM77.3184 155H75.6191V148.66H77.3184V155ZM75.5195 147.02C75.5195 146.766 75.6035 146.557 75.7715 146.393C75.9434 146.229 76.1758 146.146 76.4688 146.146C76.7578 146.146 76.9883 146.229 77.1602 146.393C77.332 146.557 77.418 146.766 77.418 147.02C77.418 147.277 77.3301 147.488 77.1543 147.652C76.9824 147.816 76.7539 147.898 76.4688 147.898C76.1836 147.898 75.9531 147.816 75.7773 147.652C75.6055 147.488 75.5195 147.277 75.5195 147.02ZM80.2773 148.66L80.3301 149.393C80.7832 148.826 81.3906 148.543 82.1523 148.543C82.8242 148.543 83.3242 148.74 83.6523 149.135C83.9805 149.529 84.1484 150.119 84.1562 150.904V155H82.4629V150.945C82.4629 150.586 82.3848 150.326 82.2285 150.166C82.0723 150.002 81.8125 149.92 81.4492 149.92C80.9727 149.92 80.6152 150.123 80.377 150.529V155H78.6836V148.66H80.2773ZM85.1992 151.783C85.1992 150.811 85.4297 150.027 85.8906 149.434C86.3555 148.84 86.9805 148.543 87.7656 148.543C88.4609 148.543 89.002 148.781 89.3887 149.258L89.459 148.66H90.9941V154.789C90.9941 155.344 90.8672 155.826 90.6133 156.236C90.3633 156.646 90.0098 156.959 89.5527 157.174C89.0957 157.389 88.5605 157.496 87.9473 157.496C87.4824 157.496 87.0293 157.402 86.5879 157.215C86.1465 157.031 85.8125 156.793 85.5859 156.5L86.3359 155.469C86.7578 155.941 87.2695 156.178 87.8711 156.178C88.3203 156.178 88.6699 156.057 88.9199 155.814C89.1699 155.576 89.2949 155.236 89.2949 154.795V154.455C88.9043 154.896 88.3906 155.117 87.7539 155.117C86.9922 155.117 86.375 154.82 85.9023 154.227C85.4336 153.629 85.1992 152.838 85.1992 151.854V151.783ZM86.8926 151.906C86.8926 152.48 87.0078 152.932 87.2383 153.26C87.4688 153.584 87.7852 153.746 88.1875 153.746C88.7031 153.746 89.0723 153.553 89.2949 153.166V150.5C89.0684 150.113 88.7031 149.92 88.1992 149.92C87.793 149.92 87.4727 150.086 87.2383 150.418C87.0078 150.75 86.8926 151.246 86.8926 151.906Z" fill="white"/>
<path d="M81.9746 284.24H22.6994C10.4001 284.24 0.337036 274.34 0.337036 262.24C0.337036 250.14 10.4001 240.24 22.6994 240.24H81.9746C94.274 240.24 104.337 250.14 104.337 262.24C104.337 274.34 94.274 284.24 81.9746 284.24Z" fill="#00DCE6"/>
<path d="M81.9746 400H22.6994C10.4001 400 0.337036 390.1 0.337036 378C0.337036 365.9 10.4001 356 22.6994 356H81.9746C94.274 356 104.337 365.9 104.337 378C104.337 390.1 94.274 400 81.9746 400Z" fill="#00DCE6"/>
<path d="M81.9746 511H22.6994C10.4001 511 0.337036 501.1 0.337036 489C0.337036 476.9 10.4001 467 22.6994 467H81.9746C94.274 467 104.337 476.9 104.337 489C104.337 501.1 94.274 511 81.9746 511Z" fill="#00DCE6"/>
<path d="M29.9277 264.588H33.6602V266H28.1699V257.469H29.9277V264.588ZM34.2988 262.771C34.2988 262.143 34.4199 261.582 34.6621 261.09C34.9043 260.598 35.252 260.217 35.7051 259.947C36.1621 259.678 36.6914 259.543 37.293 259.543C38.1484 259.543 38.8457 259.805 39.3848 260.328C39.9277 260.852 40.2305 261.562 40.293 262.461L40.3047 262.895C40.3047 263.867 40.0332 264.648 39.4902 265.238C38.9473 265.824 38.2188 266.117 37.3047 266.117C36.3906 266.117 35.6602 265.824 35.1133 265.238C34.5703 264.652 34.2988 263.855 34.2988 262.848V262.771ZM35.9922 262.895C35.9922 263.496 36.1055 263.957 36.332 264.277C36.5586 264.594 36.8828 264.752 37.3047 264.752C37.7148 264.752 38.0352 264.596 38.2656 264.283C38.4961 263.967 38.6113 263.463 38.6113 262.771C38.6113 262.182 38.4961 261.725 38.2656 261.4C38.0352 261.076 37.7109 260.914 37.293 260.914C36.8789 260.914 36.5586 261.076 36.332 261.4C36.1055 261.721 35.9922 262.219 35.9922 262.895ZM41.1016 262.783C41.1016 261.811 41.332 261.027 41.793 260.434C42.2578 259.84 42.8828 259.543 43.668 259.543C44.3633 259.543 44.9043 259.781 45.291 260.258L45.3613 259.66H46.8965V265.789C46.8965 266.344 46.7695 266.826 46.5156 267.236C46.2656 267.646 45.9121 267.959 45.4551 268.174C44.998 268.389 44.4629 268.496 43.8496 268.496C43.3848 268.496 42.9316 268.402 42.4902 268.215C42.0488 268.031 41.7148 267.793 41.4883 267.5L42.2383 266.469C42.6602 266.941 43.1719 267.178 43.7734 267.178C44.2227 267.178 44.5723 267.057 44.8223 266.814C45.0723 266.576 45.1973 266.236 45.1973 265.795V265.455C44.8066 265.896 44.293 266.117 43.6562 266.117C42.8945 266.117 42.2773 265.82 41.8047 265.227C41.3359 264.629 41.1016 263.838 41.1016 262.854V262.783ZM42.7949 262.906C42.7949 263.48 42.9102 263.932 43.1406 264.26C43.3711 264.584 43.6875 264.746 44.0898 264.746C44.6055 264.746 44.9746 264.553 45.1973 264.166V261.5C44.9707 261.113 44.6055 260.92 44.1016 260.92C43.6953 260.92 43.375 261.086 43.1406 261.418C42.9102 261.75 42.7949 262.246 42.7949 262.906ZM49.9902 266H48.291V259.66H49.9902V266ZM48.1914 258.02C48.1914 257.766 48.2754 257.557 48.4434 257.393C48.6152 257.229 48.8477 257.146 49.1406 257.146C49.4297 257.146 49.6602 257.229 49.832 257.393C50.0039 257.557 50.0898 257.766 50.0898 258.02C50.0898 258.277 50.002 258.488 49.8262 258.652C49.6543 258.816 49.4258 258.898 49.1406 258.898C48.8555 258.898 48.625 258.816 48.4492 258.652C48.2773 258.488 48.1914 258.277 48.1914 258.02ZM54.8242 264.248C54.8242 264.041 54.7207 263.879 54.5137 263.762C54.3105 263.641 53.9824 263.533 53.5293 263.439C52.0215 263.123 51.2676 262.482 51.2676 261.518C51.2676 260.955 51.5 260.486 51.9648 260.111C52.4336 259.732 53.0449 259.543 53.7988 259.543C54.6035 259.543 55.2461 259.732 55.7266 260.111C56.2109 260.49 56.4531 260.982 56.4531 261.588H54.7598C54.7598 261.346 54.6816 261.146 54.5254 260.99C54.3691 260.83 54.125 260.75 53.793 260.75C53.5078 260.75 53.2871 260.814 53.1309 260.943C52.9746 261.072 52.8965 261.236 52.8965 261.436C52.8965 261.623 52.9844 261.775 53.1602 261.893C53.3398 262.006 53.6406 262.105 54.0625 262.191C54.4844 262.273 54.8398 262.367 55.1289 262.473C56.0234 262.801 56.4707 263.369 56.4707 264.178C56.4707 264.756 56.2227 265.225 55.7266 265.584C55.2305 265.939 54.5898 266.117 53.8047 266.117C53.2734 266.117 52.8008 266.023 52.3867 265.836C51.9766 265.645 51.6543 265.385 51.4199 265.057C51.1855 264.725 51.0684 264.367 51.0684 263.984H52.6738C52.6895 264.285 52.8008 264.516 53.0078 264.676C53.2148 264.836 53.4922 264.916 53.8398 264.916C54.1641 264.916 54.4082 264.855 54.5723 264.734C54.7402 264.609 54.8242 264.447 54.8242 264.248ZM59.5938 258.102V259.66H60.6777V260.902H59.5938V264.066C59.5938 264.301 59.6387 264.469 59.7285 264.57C59.8184 264.672 59.9902 264.723 60.2441 264.723C60.4316 264.723 60.5977 264.709 60.7422 264.682V265.965C60.4102 266.066 60.0684 266.117 59.7168 266.117C58.5293 266.117 57.9238 265.518 57.9004 264.318V260.902H56.9746V259.66H57.9004V258.102H59.5938ZM63.4082 266H61.709V259.66H63.4082V266ZM61.6094 258.02C61.6094 257.766 61.6934 257.557 61.8613 257.393C62.0332 257.229 62.2656 257.146 62.5586 257.146C62.8477 257.146 63.0781 257.229 63.25 257.393C63.4219 257.557 63.5078 257.766 63.5078 258.02C63.5078 258.277 63.4199 258.488 63.2441 258.652C63.0723 258.816 62.8438 258.898 62.5586 258.898C62.2734 258.898 62.043 258.816 61.8672 258.652C61.6953 258.488 61.6094 258.277 61.6094 258.02ZM67.4453 264.752C67.7578 264.752 68.0117 264.666 68.207 264.494C68.4023 264.322 68.5039 264.094 68.5117 263.809H70.0996C70.0957 264.238 69.9785 264.633 69.748 264.992C69.5176 265.348 69.2012 265.625 68.7988 265.824C68.4004 266.02 67.959 266.117 67.4746 266.117C66.5684 266.117 65.8535 265.83 65.3301 265.256C64.8066 264.678 64.5449 263.881 64.5449 262.865V262.754C64.5449 261.777 64.8047 260.998 65.3242 260.416C65.8438 259.834 66.5566 259.543 67.4629 259.543C68.2559 259.543 68.8906 259.77 69.3672 260.223C69.8477 260.672 70.0918 261.271 70.0996 262.021H68.5117C68.5039 261.693 68.4023 261.428 68.207 261.225C68.0117 261.018 67.7539 260.914 67.4336 260.914C67.0391 260.914 66.7402 261.059 66.5371 261.348C66.3379 261.633 66.2383 262.098 66.2383 262.742V262.918C66.2383 263.57 66.3379 264.039 66.5371 264.324C66.7363 264.609 67.0391 264.752 67.4453 264.752ZM74.5 264.248C74.5 264.041 74.3965 263.879 74.1895 263.762C73.9863 263.641 73.6582 263.533 73.2051 263.439C71.6973 263.123 70.9434 262.482 70.9434 261.518C70.9434 260.955 71.1758 260.486 71.6406 260.111C72.1094 259.732 72.7207 259.543 73.4746 259.543C74.2793 259.543 74.9219 259.732 75.4023 260.111C75.8867 260.49 76.1289 260.982 76.1289 261.588H74.4355C74.4355 261.346 74.3574 261.146 74.2012 260.99C74.0449 260.83 73.8008 260.75 73.4688 260.75C73.1836 260.75 72.9629 260.814 72.8066 260.943C72.6504 261.072 72.5723 261.236 72.5723 261.436C72.5723 261.623 72.6602 261.775 72.8359 261.893C73.0156 262.006 73.3164 262.105 73.7383 262.191C74.1602 262.273 74.5156 262.367 74.8047 262.473C75.6992 262.801 76.1465 263.369 76.1465 264.178C76.1465 264.756 75.8984 265.225 75.4023 265.584C74.9062 265.939 74.2656 266.117 73.4805 266.117C72.9492 266.117 72.4766 266.023 72.0625 265.836C71.6523 265.645 71.3301 265.385 71.0957 265.057C70.8613 264.725 70.7441 264.367 70.7441 263.984H72.3496C72.3652 264.285 72.4766 264.516 72.6836 264.676C72.8906 264.836 73.168 264.916 73.5156 264.916C73.8398 264.916 74.084 264.855 74.248 264.734C74.416 264.609 74.5 264.447 74.5 264.248Z" fill="white"/>
<path d="M29.1191 379.994V383H27.3613V374.469H30.6895C31.3301 374.469 31.8926 374.586 32.377 374.82C32.8652 375.055 33.2402 375.389 33.502 375.822C33.7637 376.252 33.8945 376.742 33.8945 377.293C33.8945 378.129 33.6074 378.789 33.0332 379.273C32.4629 379.754 31.6719 379.994 30.6602 379.994H29.1191ZM29.1191 378.57H30.6895C31.1543 378.57 31.5078 378.461 31.75 378.242C31.9961 378.023 32.1191 377.711 32.1191 377.305C32.1191 376.887 31.9961 376.549 31.75 376.291C31.5039 376.033 31.1641 375.9 30.7305 375.893H29.1191V378.57ZM38.793 382.355C38.375 382.863 37.7969 383.117 37.0586 383.117C36.3789 383.117 35.8594 382.922 35.5 382.531C35.1445 382.141 34.9629 381.568 34.9551 380.814V376.66H36.6484V380.756C36.6484 381.416 36.9492 381.746 37.5508 381.746C38.125 381.746 38.5195 381.547 38.7344 381.148V376.66H40.4336V383H38.8398L38.793 382.355ZM45.2734 378.248C45.043 378.217 44.8398 378.201 44.6641 378.201C44.0234 378.201 43.6035 378.418 43.4043 378.852V383H41.7109V376.66H43.3105L43.3574 377.416C43.6973 376.834 44.168 376.543 44.7695 376.543C44.957 376.543 45.1328 376.568 45.2969 376.619L45.2734 378.248ZM48.6133 381.752C48.9258 381.752 49.1797 381.666 49.375 381.494C49.5703 381.322 49.6719 381.094 49.6797 380.809H51.2676C51.2637 381.238 51.1465 381.633 50.916 381.992C50.6855 382.348 50.3691 382.625 49.9668 382.824C49.5684 383.02 49.127 383.117 48.6426 383.117C47.7363 383.117 47.0215 382.83 46.498 382.256C45.9746 381.678 45.7129 380.881 45.7129 379.865V379.754C45.7129 378.777 45.9727 377.998 46.4922 377.416C47.0117 376.834 47.7246 376.543 48.6309 376.543C49.4238 376.543 50.0586 376.77 50.5352 377.223C51.0156 377.672 51.2598 378.271 51.2676 379.021H49.6797C49.6719 378.693 49.5703 378.428 49.375 378.225C49.1797 378.018 48.9219 377.914 48.6016 377.914C48.207 377.914 47.9082 378.059 47.7051 378.348C47.5059 378.633 47.4062 379.098 47.4062 379.742V379.918C47.4062 380.57 47.5059 381.039 47.7051 381.324C47.9043 381.609 48.207 381.752 48.6133 381.752ZM53.8867 377.352C54.3359 376.812 54.9004 376.543 55.5801 376.543C56.9551 376.543 57.6523 377.342 57.6719 378.939V383H55.9785V378.986C55.9785 378.623 55.9004 378.355 55.7441 378.184C55.5879 378.008 55.3281 377.92 54.9648 377.92C54.4688 377.92 54.1094 378.111 53.8867 378.494V383H52.1934V374H53.8867V377.352ZM62.623 383C62.5449 382.848 62.4883 382.658 62.4531 382.432C62.043 382.889 61.5098 383.117 60.8535 383.117C60.2324 383.117 59.7168 382.938 59.3066 382.578C58.9004 382.219 58.6973 381.766 58.6973 381.219C58.6973 380.547 58.9453 380.031 59.4414 379.672C59.9414 379.312 60.6621 379.131 61.6035 379.127H62.3828V378.764C62.3828 378.471 62.3066 378.236 62.1543 378.061C62.0059 377.885 61.7695 377.797 61.4453 377.797C61.1602 377.797 60.9355 377.865 60.7715 378.002C60.6113 378.139 60.5312 378.326 60.5312 378.564H58.8379C58.8379 378.197 58.9512 377.857 59.1777 377.545C59.4043 377.232 59.7246 376.988 60.1387 376.812C60.5527 376.633 61.0176 376.543 61.5332 376.543C62.3145 376.543 62.9336 376.74 63.3906 377.135C63.8516 377.525 64.082 378.076 64.082 378.787V381.535C64.0859 382.137 64.1699 382.592 64.334 382.9V383H62.623ZM61.2227 381.822C61.4727 381.822 61.7031 381.768 61.9141 381.658C62.125 381.545 62.2812 381.395 62.3828 381.207V380.117H61.75C60.9023 380.117 60.4512 380.41 60.3965 380.996L60.3906 381.096C60.3906 381.307 60.4648 381.48 60.6133 381.617C60.7617 381.754 60.9648 381.822 61.2227 381.822ZM68.8164 381.248C68.8164 381.041 68.7129 380.879 68.5059 380.762C68.3027 380.641 67.9746 380.533 67.5215 380.439C66.0137 380.123 65.2598 379.482 65.2598 378.518C65.2598 377.955 65.4922 377.486 65.957 377.111C66.4258 376.732 67.0371 376.543 67.791 376.543C68.5957 376.543 69.2383 376.732 69.7188 377.111C70.2031 377.49 70.4453 377.982 70.4453 378.588H68.752C68.752 378.346 68.6738 378.146 68.5176 377.99C68.3613 377.83 68.1172 377.75 67.7852 377.75C67.5 377.75 67.2793 377.814 67.123 377.943C66.9668 378.072 66.8887 378.236 66.8887 378.436C66.8887 378.623 66.9766 378.775 67.1523 378.893C67.332 379.006 67.6328 379.105 68.0547 379.191C68.4766 379.273 68.832 379.367 69.1211 379.473C70.0156 379.801 70.4629 380.369 70.4629 381.178C70.4629 381.756 70.2148 382.225 69.7188 382.584C69.2227 382.939 68.582 383.117 67.7969 383.117C67.2656 383.117 66.793 383.023 66.3789 382.836C65.9688 382.645 65.6465 382.385 65.4121 382.057C65.1777 381.725 65.0605 381.367 65.0605 380.984H66.666C66.6816 381.285 66.793 381.516 67 381.676C67.207 381.836 67.4844 381.916 67.832 381.916C68.1562 381.916 68.4004 381.855 68.5645 381.734C68.7324 381.609 68.8164 381.447 68.8164 381.248ZM74.4766 383.117C73.5469 383.117 72.7891 382.832 72.2031 382.262C71.6211 381.691 71.3301 380.932 71.3301 379.982V379.818C71.3301 379.182 71.4531 378.613 71.6992 378.113C71.9453 377.609 72.293 377.223 72.7422 376.953C73.1953 376.68 73.7109 376.543 74.2891 376.543C75.1562 376.543 75.8379 376.816 76.334 377.363C76.834 377.91 77.084 378.686 77.084 379.689V380.381H73.0469C73.1016 380.795 73.2656 381.127 73.5391 381.377C73.8164 381.627 74.166 381.752 74.5879 381.752C75.2402 381.752 75.75 381.516 76.1172 381.043L76.9492 381.975C76.6953 382.334 76.3516 382.615 75.918 382.818C75.4844 383.018 75.0039 383.117 74.4766 383.117ZM74.2832 377.914C73.9473 377.914 73.6738 378.027 73.4629 378.254C73.2559 378.48 73.123 378.805 73.0645 379.227H75.4199V379.092C75.4121 378.717 75.3105 378.428 75.1152 378.225C74.9199 378.018 74.6426 377.914 74.2832 377.914Z" fill="white"/>
<path d="M15.7773 489.994V493H14.0195V484.469H17.3477C17.9883 484.469 18.5508 484.586 19.0352 484.82C19.5234 485.055 19.8984 485.389 20.1602 485.822C20.4219 486.252 20.5527 486.742 20.5527 487.293C20.5527 488.129 20.2656 488.789 19.6914 489.273C19.1211 489.754 18.3301 489.994 17.3184 489.994H15.7773ZM15.7773 488.57H17.3477C17.8125 488.57 18.166 488.461 18.4082 488.242C18.6543 488.023 18.7773 487.711 18.7773 487.305C18.7773 486.887 18.6543 486.549 18.4082 486.291C18.1621 486.033 17.8223 485.9 17.3887 485.893H15.7773V488.57ZM21.3086 489.771C21.3086 489.143 21.4297 488.582 21.6719 488.09C21.9141 487.598 22.2617 487.217 22.7148 486.947C23.1719 486.678 23.7012 486.543 24.3027 486.543C25.1582 486.543 25.8555 486.805 26.3945 487.328C26.9375 487.852 27.2402 488.562 27.3027 489.461L27.3145 489.895C27.3145 490.867 27.043 491.648 26.5 492.238C25.957 492.824 25.2285 493.117 24.3145 493.117C23.4004 493.117 22.6699 492.824 22.123 492.238C21.5801 491.652 21.3086 490.855 21.3086 489.848V489.771ZM23.002 489.895C23.002 490.496 23.1152 490.957 23.3418 491.277C23.5684 491.594 23.8926 491.752 24.3145 491.752C24.7246 491.752 25.0449 491.596 25.2754 491.283C25.5059 490.967 25.6211 490.463 25.6211 489.771C25.6211 489.182 25.5059 488.725 25.2754 488.4C25.0449 488.076 24.7207 487.914 24.3027 487.914C23.8887 487.914 23.5684 488.076 23.3418 488.4C23.1152 488.721 23.002 489.219 23.002 489.895ZM31.791 491.248C31.791 491.041 31.6875 490.879 31.4805 490.762C31.2773 490.641 30.9492 490.533 30.4961 490.439C28.9883 490.123 28.2344 489.482 28.2344 488.518C28.2344 487.955 28.4668 487.486 28.9316 487.111C29.4004 486.732 30.0117 486.543 30.7656 486.543C31.5703 486.543 32.2129 486.732 32.6934 487.111C33.1777 487.49 33.4199 487.982 33.4199 488.588H31.7266C31.7266 488.346 31.6484 488.146 31.4922 487.99C31.3359 487.83 31.0918 487.75 30.7598 487.75C30.4746 487.75 30.2539 487.814 30.0977 487.943C29.9414 488.072 29.8633 488.236 29.8633 488.436C29.8633 488.623 29.9512 488.775 30.127 488.893C30.3066 489.006 30.6074 489.105 31.0293 489.191C31.4512 489.273 31.8066 489.367 32.0957 489.473C32.9902 489.801 33.4375 490.369 33.4375 491.178C33.4375 491.756 33.1895 492.225 32.6934 492.584C32.1973 492.939 31.5566 493.117 30.7715 493.117C30.2402 493.117 29.7676 493.023 29.3535 492.836C28.9434 492.645 28.6211 492.385 28.3867 492.057C28.1523 491.725 28.0352 491.367 28.0352 490.984H29.6406C29.6562 491.285 29.7676 491.516 29.9746 491.676C30.1816 491.836 30.459 491.916 30.8066 491.916C31.1309 491.916 31.375 491.855 31.5391 491.734C31.707 491.609 31.791 491.447 31.791 491.248ZM36.5605 485.102V486.66H37.6445V487.902H36.5605V491.066C36.5605 491.301 36.6055 491.469 36.6953 491.57C36.7852 491.672 36.957 491.723 37.2109 491.723C37.3984 491.723 37.5645 491.709 37.709 491.682V492.965C37.377 493.066 37.0352 493.117 36.6836 493.117C35.4961 493.117 34.8906 492.518 34.8672 491.318V487.902H33.9414V486.66H34.8672V485.102H36.5605ZM47.2832 489.889C47.2832 490.865 47.0605 491.648 46.6152 492.238C46.1738 492.824 45.5762 493.117 44.8223 493.117C44.1816 493.117 43.6641 492.895 43.2695 492.449V495.438H41.5762V486.66H43.1465L43.2051 487.281C43.6152 486.789 44.1504 486.543 44.8105 486.543C45.5918 486.543 46.1992 486.832 46.6328 487.41C47.0664 487.988 47.2832 488.785 47.2832 489.801V489.889ZM45.5898 489.766C45.5898 489.176 45.4844 488.721 45.2734 488.4C45.0664 488.08 44.7637 487.92 44.3652 487.92C43.834 487.92 43.4688 488.123 43.2695 488.529V491.125C43.4766 491.543 43.8457 491.752 44.377 491.752C45.1855 491.752 45.5898 491.09 45.5898 489.766ZM52.1348 492.355C51.7168 492.863 51.1387 493.117 50.4004 493.117C49.7207 493.117 49.2012 492.922 48.8418 492.531C48.4863 492.141 48.3047 491.568 48.2969 490.814V486.66H49.9902V490.756C49.9902 491.416 50.291 491.746 50.8926 491.746C51.4668 491.746 51.8613 491.547 52.0762 491.148V486.66H53.7754V493H52.1816L52.1348 492.355ZM58.6152 488.248C58.3848 488.217 58.1816 488.201 58.0059 488.201C57.3652 488.201 56.9453 488.418 56.7461 488.852V493H55.0527V486.66H56.6523L56.6992 487.416C57.0391 486.834 57.5098 486.543 58.1113 486.543C58.2988 486.543 58.4746 486.568 58.6387 486.619L58.6152 488.248ZM61.9551 491.752C62.2676 491.752 62.5215 491.666 62.7168 491.494C62.9121 491.322 63.0137 491.094 63.0215 490.809H64.6094C64.6055 491.238 64.4883 491.633 64.2578 491.992C64.0273 492.348 63.7109 492.625 63.3086 492.824C62.9102 493.02 62.4688 493.117 61.9844 493.117C61.0781 493.117 60.3633 492.83 59.8398 492.256C59.3164 491.678 59.0547 490.881 59.0547 489.865V489.754C59.0547 488.777 59.3145 487.998 59.834 487.416C60.3535 486.834 61.0664 486.543 61.9727 486.543C62.7656 486.543 63.4004 486.77 63.877 487.223C64.3574 487.672 64.6016 488.271 64.6094 489.021H63.0215C63.0137 488.693 62.9121 488.428 62.7168 488.225C62.5215 488.018 62.2637 487.914 61.9434 487.914C61.5488 487.914 61.25 488.059 61.0469 488.348C60.8477 488.633 60.748 489.098 60.748 489.742V489.918C60.748 490.57 60.8477 491.039 61.0469 491.324C61.2461 491.609 61.5488 491.752 61.9551 491.752ZM67.2285 487.352C67.6777 486.812 68.2422 486.543 68.9219 486.543C70.2969 486.543 70.9941 487.342 71.0137 488.939V493H69.3203V488.986C69.3203 488.623 69.2422 488.355 69.0859 488.184C68.9297 488.008 68.6699 487.92 68.3066 487.92C67.8105 487.92 67.4512 488.111 67.2285 488.494V493H65.5352V484H67.2285V487.352ZM75.9648 493C75.8867 492.848 75.8301 492.658 75.7949 492.432C75.3848 492.889 74.8516 493.117 74.1953 493.117C73.5742 493.117 73.0586 492.938 72.6484 492.578C72.2422 492.219 72.0391 491.766 72.0391 491.219C72.0391 490.547 72.2871 490.031 72.7832 489.672C73.2832 489.312 74.0039 489.131 74.9453 489.127H75.7246V488.764C75.7246 488.471 75.6484 488.236 75.4961 488.061C75.3477 487.885 75.1113 487.797 74.7871 487.797C74.502 487.797 74.2773 487.865 74.1133 488.002C73.9531 488.139 73.873 488.326 73.873 488.564H72.1797C72.1797 488.197 72.293 487.857 72.5195 487.545C72.7461 487.232 73.0664 486.988 73.4805 486.812C73.8945 486.633 74.3594 486.543 74.875 486.543C75.6562 486.543 76.2754 486.74 76.7324 487.135C77.1934 487.525 77.4238 488.076 77.4238 488.787V491.535C77.4277 492.137 77.5117 492.592 77.6758 492.9V493H75.9648ZM74.5645 491.822C74.8145 491.822 75.0449 491.768 75.2559 491.658C75.4668 491.545 75.623 491.395 75.7246 491.207V490.117H75.0918C74.2441 490.117 73.793 490.41 73.7383 490.996L73.7324 491.096C73.7324 491.307 73.8066 491.48 73.9551 491.617C74.1035 491.754 74.3066 491.822 74.5645 491.822ZM82.1582 491.248C82.1582 491.041 82.0547 490.879 81.8477 490.762C81.6445 490.641 81.3164 490.533 80.8633 490.439C79.3555 490.123 78.6016 489.482 78.6016 488.518C78.6016 487.955 78.834 487.486 79.2988 487.111C79.7676 486.732 80.3789 486.543 81.1328 486.543C81.9375 486.543 82.5801 486.732 83.0605 487.111C83.5449 487.49 83.7871 487.982 83.7871 488.588H82.0938C82.0938 488.346 82.0156 488.146 81.8594 487.99C81.7031 487.83 81.459 487.75 81.127 487.75C80.8418 487.75 80.6211 487.814 80.4648 487.943C80.3086 488.072 80.2305 488.236 80.2305 488.436C80.2305 488.623 80.3184 488.775 80.4941 488.893C80.6738 489.006 80.9746 489.105 81.3965 489.191C81.8184 489.273 82.1738 489.367 82.4629 489.473C83.3574 489.801 83.8047 490.369 83.8047 491.178C83.8047 491.756 83.5566 492.225 83.0605 492.584C82.5645 492.939 81.9238 493.117 81.1387 493.117C80.6074 493.117 80.1348 493.023 79.7207 492.836C79.3105 492.645 78.9883 492.385 78.7539 492.057C78.5195 491.725 78.4023 491.367 78.4023 490.984H80.0078C80.0234 491.285 80.1348 491.516 80.3418 491.676C80.5488 491.836 80.8262 491.916 81.1738 491.916C81.498 491.916 81.7422 491.855 81.9062 491.734C82.0742 491.609 82.1582 491.447 82.1582 491.248ZM87.8184 493.117C86.8887 493.117 86.1309 492.832 85.5449 492.262C84.9629 491.691 84.6719 490.932 84.6719 489.982V489.818C84.6719 489.182 84.7949 488.613 85.041 488.113C85.2871 487.609 85.6348 487.223 86.084 486.953C86.5371 486.68 87.0527 486.543 87.6309 486.543C88.498 486.543 89.1797 486.816 89.6758 487.363C90.1758 487.91 90.4258 488.686 90.4258 489.689V490.381H86.3887C86.4434 490.795 86.6074 491.127 86.8809 491.377C87.1582 491.627 87.5078 491.752 87.9297 491.752C88.582 491.752 89.0918 491.516 89.459 491.043L90.291 491.975C90.0371 492.334 89.6934 492.615 89.2598 492.818C88.8262 493.018 88.3457 493.117 87.8184 493.117ZM87.625 487.914C87.2891 487.914 87.0156 488.027 86.8047 488.254C86.5977 488.48 86.4648 488.805 86.4062 489.227H88.7617V489.092C88.7539 488.717 88.6523 488.428 88.457 488.225C88.2617 488.018 87.9844 487.914 87.625 487.914Z" fill="white"/>
<path d="M173.787 488.568L178.953 500.474V504.742C178.953 506.651 177.381 508.111 175.584 508.111H153.346C151.436 508.111 149.976 506.539 149.976 504.742V500.474L155.143 488.568" stroke="white" stroke-miterlimit="10" stroke-linecap="round"/>
<path d="M171.99 488.568H173.674L178.841 478.347V473.967C178.841 472.058 177.268 470.598 175.471 470.598H153.233C151.324 470.598 149.864 472.17 149.864 473.967V478.235L155.03 488.456H156.715" stroke="white" stroke-miterlimit="10" stroke-linecap="round"/>
<path d="M160.421 495.307C159.635 494.409 159.186 493.286 159.186 491.938C159.186 489.13 161.432 486.771 164.352 486.771C167.16 486.771 169.519 489.018 169.519 491.938C169.519 493.173 169.069 494.297 168.283 495.195" stroke="white" stroke-miterlimit="10" stroke-linecap="round"/>
<path d="M163.454 486.771L161.769 484.3L164.352 482.503L166.935 484.3L165.251 486.771" stroke="white" stroke-miterlimit="10" stroke-linecap="round"/>
<path d="M173.001 497.778C171.428 496.317 168.059 495.307 164.352 495.307C160.646 495.307 157.164 496.317 155.704 497.778" stroke="white" stroke-miterlimit="10" stroke-linecap="round"/>
<path d="M149.864 500.586H178.841" stroke="white" stroke-miterlimit="10" stroke-linecap="round"/>
<path d="M149.864 478.235H178.841" stroke="white" stroke-miterlimit="10" stroke-linecap="round"/>
<path d="M163.678 158.069L158.512 147.736L159.523 143.58" stroke="white" stroke-miterlimit="10" stroke-linejoin="round"/>
<path d="M175.022 145.151L168.845 147.735H163.678H158.512L152.335 145.151" stroke="white" stroke-miterlimit="10"/>
<path d="M172.439 142.119L167.834 143.579H163.678H159.523L154.918 142.119" stroke="white" stroke-miterlimit="10"/>
<path d="M163.678 158.069L168.845 147.736L167.834 143.58" stroke="white" stroke-miterlimit="10" stroke-linejoin="round"/>
<path d="M172.439 142.119L167.834 139.985H163.678H159.523L154.918 142.119L152.335 145.152L163.678 158.068L175.022 145.152L172.439 142.119Z" stroke="white" stroke-miterlimit="10"/>
<path d="M163.342 164.245C172.522 164.245 179.964 156.803 179.964 147.623C179.964 138.442 172.522 131 163.342 131C154.161 131 146.719 138.442 146.719 147.623C146.719 156.803 154.161 164.245 163.342 164.245Z" stroke="white" stroke-miterlimit="10"/>
<path d="M174.011 160.09L181.199 170.198L181.087 170.31L177.942 172.444L177.83 172.557L171.877 163.909L170.754 162.448" stroke="white" stroke-miterlimit="10"/>
<path d="M164.352 57.8821L154.918 39.1256L156.827 31.6006" stroke="white" stroke-miterlimit="10" stroke-linejoin="round"/>
<path d="M185.018 34.4092L173.674 39.1264H164.352H154.918L143.687 34.4092" stroke="white" stroke-miterlimit="10"/>
<path d="M180.301 28.793L171.877 31.6008H164.352H156.827L148.404 28.793" stroke="white" stroke-miterlimit="10"/>
<path d="M164.352 57.8821L173.674 39.1256L171.877 31.6006" stroke="white" stroke-miterlimit="10" stroke-linejoin="round"/>
<path d="M180.301 28.7933L171.877 25.0869H164.352H156.827L148.404 28.7933L143.687 34.409L164.352 57.8827L185.018 34.409L180.301 28.7933Z" stroke="white" stroke-miterlimit="10"/>
<path d="M164.465 22.8403V17" stroke="white" stroke-miterlimit="10"/>
<path d="M160.871 22.5034L157.501 17.4492" stroke="white" stroke-miterlimit="10"/>
<path d="M168.059 22.5034L171.316 17.4492" stroke="white" stroke-miterlimit="10"/>
<path d="M184.007 250.964L169.182 260.511" stroke="white" stroke-miterlimit="10"/>
<path d="M169.182 260.51V280.614" stroke="white" stroke-miterlimit="10"/>
<path d="M177.044 255.344L154.356 248.381" stroke="white" stroke-miterlimit="10"/>
<path d="M169.182 260.51L146.607 253.547" stroke="white" stroke-miterlimit="10"/>
<path d="M165.7 274.437V276.234" stroke="white" stroke-miterlimit="10"/>
<path d="M162.219 273.651V275.336" stroke="white" stroke-miterlimit="10"/>
<path d="M165.7 270.955V272.64" stroke="white" stroke-miterlimit="10"/>
<path d="M162.219 270.058V271.742" stroke="white" stroke-miterlimit="10"/>
<path d="M161.32 244L146.607 253.547V273.651L169.182 280.614L184.007 270.955V250.963L161.32 244Z" stroke="white" stroke-miterlimit="10"/>
<path d="M164.352 369.274L159.972 360.514L160.871 357.032" stroke="white" stroke-miterlimit="10" stroke-linejoin="round"/>
<path d="M173.899 358.38L168.733 360.514H164.352H159.972L154.806 358.38" stroke="white" stroke-miterlimit="10"/>
<path d="M171.765 355.685L167.834 357.032H164.352H160.871L156.94 355.685" stroke="white" stroke-miterlimit="10"/>
<path d="M164.352 369.274L168.733 360.514L167.834 357.032" stroke="white" stroke-miterlimit="10" stroke-linejoin="round"/>
<path d="M171.765 355.685L167.834 354H164.352H160.871L156.94 355.685L154.806 358.38L164.352 369.275L173.899 358.38L171.765 355.685Z" stroke="white" stroke-miterlimit="10"/>
<path d="M161.208 366.018C155.817 367.59 151.436 372.644 151.436 378.484C151.436 385.56 157.164 391.401 164.352 391.401C171.428 391.401 177.269 385.673 177.269 378.484C177.269 372.532 173.001 367.59 167.61 366.13" stroke="white" stroke-miterlimit="10"/>
<path d="M158.4 362.423C151.886 364.894 147.281 371.071 147.281 378.371C147.281 387.806 154.918 395.443 164.353 395.443C173.787 395.443 181.424 387.806 181.424 378.371C181.424 371.183 176.932 365.006 170.53 362.535" stroke="white" stroke-miterlimit="10"/>
<path d="M252.033 21.4521H241.139V32.3466H252.033V21.4521ZM248.664 28.9772H244.508V24.8216H248.664V28.9772ZM275.507 21.4521H264.613V32.3466H275.507V21.4521ZM272.138 28.9772H267.982V24.8216H272.138V28.9772ZM241.139 55.8203H252.033V44.9258H241.139V55.8203ZM244.508 48.2953H248.664V52.5632H244.508V48.2953ZM275.507 55.8203V44.9258H264.613V55.8203H275.507ZM267.982 48.2953H272.138V52.5632H267.982V48.2953Z" stroke="white" stroke-miterlimit="10"/>
<path d="M272.138 39.0855V36.6146H264.613V40.7702H270.453M248.664 39.0855V36.6146H244.508V40.7702H246.979L248.664 39.0855ZM260.345 23.1369V21.4521H256.189V24.8216H258.66L260.345 23.1369ZM260.345 39.0855V36.6146V33.0205V28.9772H256.189V34.8176V36.5023H252.033V40.6579H258.772L260.345 39.0855ZM260.345 50.7662V44.9258H256.189V52.4509H258.66L260.345 50.7662Z" stroke="white" stroke-miterlimit="10"/>
<path d="M252.033 134.553H241.139V145.447H252.033V134.553ZM248.664 142.078H244.508V137.922H248.664V142.078ZM275.507 134.553H264.613V145.447H275.507V134.553ZM272.138 142.078H267.982V137.922H272.138V142.078ZM241.139 168.921H252.033V158.026H241.139V168.921ZM244.508 161.396H248.664V165.664H244.508V161.396ZM275.507 168.921V158.026H264.613V168.921H275.507ZM267.982 161.396H272.138V165.664H267.982V161.396Z" stroke="white" stroke-miterlimit="10"/>
<path d="M272.138 152.186V149.715H264.613V153.871H270.453M248.664 152.186V149.715H244.508V153.871H246.979L248.664 152.186ZM260.345 136.237V134.553H256.189V137.922H258.66L260.345 136.237ZM260.345 152.186V149.715V146.121V142.078H256.189V147.918V149.603H252.033V153.758H258.772L260.345 152.186ZM260.345 163.867V158.026H256.189V165.551H258.66L260.345 163.867Z" stroke="white" stroke-miterlimit="10"/>
<path d="M252.033 246.866H241.139V257.761H252.033V246.866ZM248.664 254.391H244.508V250.236H248.664V254.391ZM275.507 246.866H264.613V257.761H275.507V246.866ZM272.138 254.391H267.982V250.236H272.138V254.391ZM241.139 281.234H252.033V270.34H241.139V281.234ZM244.508 273.709H248.664V277.977H244.508V273.709ZM275.507 281.234V270.34H264.613V281.234H275.507ZM267.982 273.709H272.138V277.977H267.982V273.709Z" stroke="white" stroke-miterlimit="10"/>
<path d="M272.138 264.5V262.029H264.613V266.184H270.453M248.664 264.5V262.029H244.508V266.184H246.979L248.664 264.5ZM260.345 248.551V246.866H256.189V250.236H258.66L260.345 248.551ZM260.345 264.5V262.029V258.435V254.391H256.189V260.232V261.916H252.033V266.072H258.772L260.345 264.5ZM260.345 276.18V270.34H256.189V277.865H258.66L260.345 276.18Z" stroke="white" stroke-miterlimit="10"/>
<path d="M252.033 359.742H241.139V370.637H252.033V359.742ZM248.664 367.267H244.508V363.112H248.664V367.267ZM275.507 359.742H264.613V370.637H275.507V359.742ZM272.138 367.267H267.982V363.112H272.138V367.267ZM241.139 394.11H252.033V383.216H241.139V394.11ZM244.508 386.473H248.664V390.741H244.508V386.473ZM275.507 394.11V383.216H264.613V394.11H275.507ZM267.982 386.473H272.138V390.741H267.982V386.473Z" stroke="white" stroke-miterlimit="10"/>
<path d="M272.138 377.263V374.792H264.613V378.948H270.453M248.664 377.263V374.792H244.508V378.948H246.979L248.664 377.263ZM260.345 361.315V359.63H256.189V362.999H258.66L260.345 361.315ZM260.345 377.263V374.792V371.198V367.267H256.189V373.108V374.792H252.033V378.948H258.772L260.345 377.263ZM260.345 389.056V383.216H256.189V390.741H258.66L260.345 389.056Z" stroke="white" stroke-miterlimit="10"/>
<path d="M252.033 472.17H241.139V483.064H252.033V472.17ZM248.664 479.695H244.508V475.539H248.664V479.695ZM275.507 472.17H264.613V483.064H275.507V472.17ZM272.138 479.695H267.982V475.539H272.138V479.695ZM241.139 506.538H252.033V495.644H241.139V506.538ZM244.508 499.013H248.664V503.281H244.508V499.013ZM275.507 506.538V495.644H264.613V506.538H275.507ZM267.982 499.013H272.138V503.281H267.982V499.013Z" stroke="white" stroke-miterlimit="10"/>
<path d="M272.138 489.803V487.332H264.613V491.488H270.453M248.664 489.803V487.332H244.508V491.488H246.979L248.664 489.803ZM260.345 473.855V472.17H256.189V475.539H258.66L260.345 473.855ZM260.345 489.803V487.332V483.738V479.695H256.189V485.535V487.22H252.033V491.376H258.772L260.345 489.803ZM260.345 501.484V495.644H256.189V503.169H258.66L260.345 501.484Z" stroke="white" stroke-miterlimit="10"/>
<path d="M156.005 639.854C135.002 639.854 118.042 622.221 118.042 600.544C118.042 578.868 135.114 561.234 156.005 561.234H259.671C280.674 561.234 297.633 578.868 297.633 600.544C297.633 622.221 280.561 639.854 259.671 639.854H156.005Z" fill="#00DCE6" fill-opacity="0.2"/>
<path d="M259.671 630.308H156.005C140.168 630.308 127.252 616.942 127.252 600.545C127.252 584.147 140.168 570.781 156.005 570.781H259.671C275.507 570.781 288.423 584.147 288.423 600.545C288.423 616.942 275.619 630.308 259.671 630.308Z" fill="#00DCE6"/>
<path d="M147.02 608.631V592.233L161.396 582.687L175.772 592.233V608.743" stroke="white"/>
<path d="M147.02 608.632L161.396 618.291L175.772 608.632L161.396 599.085L147.02 608.632Z" stroke="white" stroke-linejoin="round"/>
<path d="M175.66 592.233L161.283 601.78L146.907 592.233" stroke="white"/>
<path d="M161.396 582.687V599.197" stroke="white"/>
<path d="M161.396 601.893V618.403" stroke="white"/>
<path d="M194.921 605V594.336H198.533C199.784 594.336 200.733 594.585 201.38 595.083C202.027 595.576 202.35 596.301 202.35 597.258C202.35 597.781 202.22 598.242 201.961 598.643C201.701 599.038 201.34 599.329 200.877 599.514C201.406 599.651 201.821 599.927 202.124 600.342C202.431 600.757 202.584 601.265 202.584 601.865C202.584 602.891 202.268 603.667 201.635 604.194C201.002 604.722 200.1 604.99 198.929 605H194.921ZM197.045 600.356V603.235H198.866C199.366 603.235 199.756 603.113 200.034 602.869C200.318 602.62 200.459 602.278 200.459 601.843C200.459 600.867 199.971 600.371 198.993 600.356H197.045ZM197.045 598.804H198.618C199.69 598.784 200.226 598.342 200.226 597.478C200.226 596.995 200.089 596.648 199.815 596.438C199.546 596.223 199.118 596.116 198.533 596.116H197.045V598.804ZM206.21 605H204.156V593.75H206.21V605ZM207.584 600.964C207.584 600.178 207.731 599.478 208.023 598.862C208.316 598.247 208.736 597.771 209.284 597.434C209.837 597.097 210.476 596.929 211.203 596.929C212.237 596.929 213.08 597.256 213.732 597.91C214.388 598.564 214.754 599.453 214.83 600.576L214.844 601.118C214.844 602.334 214.516 603.311 213.859 604.048C213.203 604.78 212.322 605.146 211.218 605.146C210.113 605.146 209.23 604.78 208.569 604.048C207.912 603.315 207.584 602.319 207.584 601.06V600.964ZM209.631 601.118C209.631 601.87 209.768 602.446 210.042 602.847C210.316 603.242 210.708 603.44 211.218 603.44C211.713 603.44 212.101 603.245 212.379 602.854C212.658 602.458 212.797 601.829 212.797 600.964C212.797 600.227 212.658 599.656 212.379 599.25C212.101 598.845 211.709 598.643 211.203 598.643C210.703 598.643 210.316 598.845 210.042 599.25C209.768 599.651 209.631 600.273 209.631 601.118ZM219.292 603.44C219.669 603.44 219.976 603.333 220.212 603.118C220.448 602.903 220.571 602.617 220.581 602.261H222.5C222.495 602.798 222.354 603.291 222.075 603.74C221.797 604.185 221.414 604.531 220.928 604.78C220.446 605.024 219.913 605.146 219.327 605.146C218.232 605.146 217.368 604.788 216.735 604.07C216.102 603.347 215.786 602.351 215.786 601.082V600.942C215.786 599.722 216.1 598.748 216.728 598.02C217.356 597.292 218.217 596.929 219.313 596.929C220.271 596.929 221.039 597.212 221.615 597.778C222.196 598.34 222.491 599.089 222.5 600.027H220.581C220.571 599.617 220.448 599.285 220.212 599.031C219.976 598.772 219.665 598.643 219.278 598.643C218.801 598.643 218.439 598.823 218.194 599.185C217.953 599.541 217.833 600.122 217.833 600.928V601.147C217.833 601.963 217.953 602.549 218.194 602.905C218.435 603.262 218.801 603.44 219.292 603.44ZM226.452 601.821L225.716 602.583V605H223.669V593.75H225.716V599.983L226.112 599.456L228.074 597.075H230.532L227.762 600.378L230.772 605H228.421L226.452 601.821ZM234.462 603.44C234.84 603.44 235.147 603.333 235.383 603.118C235.619 602.903 235.742 602.617 235.751 602.261H237.671C237.666 602.798 237.524 603.291 237.246 603.74C236.967 604.185 236.585 604.531 236.098 604.78C235.617 605.024 235.083 605.146 234.498 605.146C233.402 605.146 232.538 604.788 231.906 604.07C231.273 603.347 230.957 602.351 230.957 601.082V600.942C230.957 599.722 231.271 598.748 231.899 598.02C232.527 597.292 233.388 596.929 234.484 596.929C235.442 596.929 236.209 597.212 236.786 597.778C237.366 598.34 237.661 599.089 237.671 600.027H235.751C235.742 599.617 235.619 599.285 235.383 599.031C235.147 598.772 234.835 598.643 234.448 598.643C233.971 598.643 233.61 598.823 233.365 599.185C233.124 599.541 233.003 600.122 233.003 600.928V601.147C233.003 601.963 233.124 602.549 233.365 602.905C233.605 603.262 233.971 603.44 234.462 603.44ZM240.837 597.939C241.38 597.266 242.062 596.929 242.884 596.929C244.546 596.929 245.388 597.927 245.412 599.924V605H243.365V599.983C243.365 599.529 243.271 599.194 243.082 598.979C242.893 598.76 242.579 598.65 242.14 598.65C241.54 598.65 241.106 598.889 240.837 599.368V605H238.79V593.75H240.837V597.939ZM251.397 605C251.302 604.81 251.234 604.573 251.191 604.29C250.696 604.861 250.051 605.146 249.258 605.146C248.507 605.146 247.884 604.922 247.388 604.473C246.897 604.023 246.651 603.457 246.651 602.773C246.651 601.934 246.951 601.289 247.551 600.84C248.155 600.391 249.026 600.164 250.164 600.159H251.106V599.705C251.106 599.338 251.014 599.045 250.83 598.826C250.651 598.606 250.365 598.496 249.973 598.496C249.628 598.496 249.357 598.582 249.159 598.752C248.965 598.923 248.868 599.158 248.868 599.456H246.821C246.821 598.997 246.958 598.572 247.232 598.181C247.506 597.791 247.893 597.485 248.394 597.266C248.894 597.041 249.456 596.929 250.079 596.929C251.024 596.929 251.772 597.175 252.325 597.668C252.882 598.157 253.16 598.845 253.16 599.734V603.169C253.165 603.921 253.267 604.49 253.465 604.875V605H251.397ZM249.704 603.528C250.006 603.528 250.285 603.459 250.54 603.323C250.795 603.181 250.984 602.993 251.106 602.759V601.396H250.341C249.317 601.396 248.771 601.763 248.705 602.495L248.698 602.62C248.698 602.883 248.788 603.101 248.967 603.271C249.147 603.442 249.392 603.528 249.704 603.528ZM256.893 605H254.839V597.075H256.893V605ZM254.718 595.024C254.718 594.707 254.82 594.446 255.023 594.241C255.231 594.036 255.512 593.933 255.866 593.933C256.215 593.933 256.494 594.036 256.702 594.241C256.909 594.446 257.013 594.707 257.013 595.024C257.013 595.347 256.907 595.61 256.694 595.815C256.487 596.021 256.21 596.123 255.866 596.123C255.521 596.123 255.243 596.021 255.03 595.815C254.822 595.61 254.718 595.347 254.718 595.024ZM260.469 597.075L260.533 597.991C261.081 597.283 261.815 596.929 262.736 596.929C263.548 596.929 264.152 597.175 264.549 597.668C264.946 598.162 265.149 598.899 265.158 599.88V605H263.111V599.932C263.111 599.482 263.017 599.158 262.828 598.958C262.639 598.752 262.325 598.65 261.886 598.65C261.31 598.65 260.878 598.904 260.59 599.412V605H258.543V597.075H260.469Z" fill="white"/>
<path d="M303.249 41.4443H329.081V602.904H303.249" stroke="#00DCE6" stroke-miterlimit="10"/>
<path d="M306.394 151.849H329.081" stroke="#00DCE6" stroke-miterlimit="10"/>
<path d="M306.394 260.457C308.078 260.457 309.538 261.805 309.538 263.602C309.538 265.399 308.191 266.747 306.394 266.747C304.597 266.747 303.249 265.399 303.249 263.602C303.249 261.805 304.597 260.457 306.394 260.457Z" fill="#00DCE6"/>
<path d="M306.394 263.603H329.081" stroke="#00DCE6" stroke-miterlimit="10"/>
<path d="M306.394 374.793C308.078 374.793 309.538 376.141 309.538 377.938C309.538 379.735 308.191 381.083 306.394 381.083C304.597 381.083 303.249 379.735 303.249 377.938C303.249 376.141 304.597 374.793 306.394 374.793Z" fill="#00DCE6"/>
<path d="M306.394 377.938H329.081" stroke="#00DCE6" stroke-miterlimit="10"/>
<path d="M306.394 487.332C308.078 487.332 309.538 488.68 309.538 490.477C309.538 492.162 308.191 493.622 306.394 493.622C304.597 493.622 303.249 492.274 303.249 490.477C303.249 488.68 304.597 487.332 306.394 487.332Z" fill="#00DCE6"/>
<path d="M306.394 490.478H329.081" stroke="#00DCE6" stroke-miterlimit="10"/>
</g>
<defs>
<clipPath id="clip0">
<rect width="330" height="640" fill="white"/>
</clipPath>
</defs>
</svg>
