<?xml version="1.0" encoding="utf-8"?>
<!-- Generator: Adobe Illustrator 15.0.0, SVG Export Plug-In . SVG Version: 6.00 Build 0)  -->
<!DOCTYPE svg PUBLIC "-//W3C//DTD SVG 1.1//EN" "http://www.w3.org/Graphics/SVG/1.1/DTD/svg11.dtd">
<svg version="1.1" id="图层_1" xmlns="http://www.w3.org/2000/svg" xmlns:xlink="http://www.w3.org/1999/xlink" x="0px" y="0px"
	 width="1170px" height="227px" viewBox="0 0 1170 227" enable-background="new 0 0 1170 227" xml:space="preserve">
<path fill="#00DCE6" fill-opacity="0.1" d="M31.593,0H1138.41C1155.89,0,1170,14.111,1170,31.593
	c0,17.481-14.11,31.593-31.59,31.593H31.593C14.112,63.187,0,49.075,0,31.593C0,14.111,14.112,0,31.593,0z"/>
<path fill="#1F2432" d="M53.708,196.932c25.591,0,46.336-20.748,46.336-46.338c0-25.591-20.746-46.337-46.336-46.337
	S7.372,125.003,7.372,150.594C7.372,176.184,28.118,196.932,53.708,196.932z"/>
<path fill="#00DCE6" fill-opacity="0.2" d="M100.046,161.125c5.792,0,10.531-4.739,10.531-10.531s-4.739-10.531-10.531-10.531
	s-10.531,4.739-10.531,10.531S94.253,161.125,100.046,161.125z"/>
<path fill="#00DCE6" d="M100.045,154.807c2.317,0,4.213-1.896,4.213-4.213c0-2.316-1.896-4.212-4.213-4.212
	c-2.316,0-4.212,1.896-4.212,4.212C95.833,152.911,97.729,154.807,100.045,154.807z"/>
<path fill="#1F2432" d="M230.631,196.932c25.59,0,46.336-20.748,46.336-46.338c0-25.591-20.746-46.337-46.336-46.337
	c-25.591,0-46.337,20.746-46.337,46.337C184.294,176.184,205.04,196.932,230.631,196.932z"/>
<path fill="#00DCE6" fill-opacity="0.2" d="M276.967,161.125c5.792,0,10.531-4.739,10.531-10.531s-4.739-10.531-10.531-10.531
	s-10.531,4.739-10.531,10.531S271.175,161.125,276.967,161.125z"/>
<path fill="#00DCE6" d="M276.967,154.807c2.317,0,4.213-1.896,4.213-4.213c0-2.316-1.896-4.212-4.213-4.212
	c-2.317,0-4.212,1.896-4.212,4.212C272.755,152.911,274.65,154.807,276.967,154.807z"/>
<path fill="none" stroke="#00DCE6" stroke-miterlimit="16" stroke-dasharray="1,1" d="M407.552,89.514V35.806"/>
<path fill="none" stroke="#00DCE6" stroke-miterlimit="16" stroke-dasharray="1,1" d="M229.577,89.514V35.806"/>
<path fill="none" stroke="#00DCE6" stroke-miterlimit="16" stroke-dasharray="1,1" d="M585.527,89.514V35.806"/>
<path fill="none" stroke="#00DCE6" stroke-miterlimit="16" stroke-dasharray="1,1" d="M759.289,89.514V35.806"/>
<path fill="none" stroke="#00DCE6" stroke-miterlimit="16" stroke-dasharray="1,1" d="M938.317,89.514V35.806"/>
<path fill="none" stroke="#00DCE6" stroke-miterlimit="16" stroke-dasharray="1,1" d="M1115.24,89.514V35.806"/>
<path fill="#00DCE6" d="M229.578,85.302c2.316,0,4.212,1.896,4.212,4.212c0,2.317-1.896,4.213-4.212,4.213
	c-2.317,0-4.213-1.896-4.213-4.213S227.261,85.302,229.578,85.302z"/>
<path fill="#00DCE6" d="M407.552,85.302c2.317,0,4.213,1.896,4.213,4.212c0,2.317-1.896,4.213-4.213,4.213
	c-2.314,0-4.212-1.896-4.212-4.213S405.235,85.302,407.552,85.302z"/>
<path fill="#00DCE6" d="M585.527,85.302c2.314,0,4.212,1.896,4.212,4.212c0,2.317-1.896,4.213-4.212,4.213
	c-2.317,0-4.213-1.896-4.213-4.213S583.21,85.302,585.527,85.302z"/>
<path fill="#00DCE6" d="M759.29,85.302c2.315,0,4.212,1.896,4.212,4.212c0,2.317-1.896,4.213-4.212,4.213
	c-2.317,0-4.213-1.896-4.213-4.213S756.973,85.302,759.29,85.302z"/>
<path fill="#00DCE6" d="M938.317,85.302c2.314,0,4.212,1.896,4.212,4.212c0,2.317-1.896,4.213-4.212,4.213
	c-2.317,0-4.214-1.896-4.214-4.213S936,85.302,938.317,85.302z"/>
<path fill="#00DCE6" d="M1115.24,85.302c2.318,0,4.21,1.896,4.21,4.212c0,2.317-1.892,4.213-4.21,4.213
	c-2.32,0-4.21-1.896-4.21-4.213S1112.92,85.302,1115.24,85.302z"/>
<path fill="#00DCE6" fill-opacity="0.2" d="M406.499,63.187c17.482,0,31.594-14.112,31.594-31.593
	C438.093,14.111,423.981,0,406.499,0c-17.481,0-31.593,14.111-31.593,31.593C374.906,49.075,389.018,63.187,406.499,63.187z"/>
<path fill="#00DCE6" d="M406.499,54.761c12.743,0,23.169-10.32,23.169-23.168c0-12.848-10.426-23.168-23.169-23.168
	c-12.742,0-23.168,10.32-23.168,23.168C383.331,44.441,393.757,54.761,406.499,54.761z"/>
<path fill="none" stroke="#FFFFFF" d="M393.861,38.333V24.748l12.216-7.898l12.216,7.898v13.585"/>
<path fill="none" stroke="#FFFFFF" stroke-linejoin="round" d="M393.861,38.333l12.216,8.004l12.216-8.004l-12.216-7.898
	L393.861,38.333z"/>
<path fill="none" stroke="#FFFFFF" d="M418.293,24.643l-12.216,8.003l-12.216-8.003"/>
<path fill="none" stroke="#FFFFFF" d="M406.078,16.85v13.585"/>
<path fill="none" stroke="#FFFFFF" d="M406.078,32.751v13.585"/>
<path fill="#00DCE6" fill-opacity="0.2" d="M584.474,63.187c17.482,0,31.596-14.112,31.596-31.593
	C616.067,14.111,601.956,0,584.474,0c-17.479,0-31.593,14.111-31.593,31.593C552.881,49.075,566.992,63.187,584.474,63.187z"/>
<path fill="#00DCE6" d="M584.474,54.761c12.743,0,23.168-10.32,23.168-23.168c0-12.848-10.425-23.168-23.168-23.168
	c-12.848,0-23.168,10.32-23.168,23.168C561.306,44.441,571.731,54.761,584.474,54.761z"/>
<path fill="none" stroke="#FFFFFF" d="M571.837,38.333V24.748l12.216-7.898l12.216,7.898v13.585"/>
<path fill="none" stroke="#FFFFFF" stroke-linejoin="round" d="M571.837,38.333l12.216,8.004l12.216-8.004l-12.216-7.898
	L571.837,38.333z"/>
<path fill="none" stroke="#FFFFFF" d="M596.269,24.643l-12.216,8.003l-12.216-8.003"/>
<path fill="none" stroke="#FFFFFF" d="M584.053,16.85v13.585"/>
<path fill="none" stroke="#FFFFFF" d="M584.053,32.751v13.585"/>
<path fill="#00DCE6" fill-opacity="0.2" d="M759.289,63.187c17.482,0,31.594-14.112,31.594-31.593
	C790.883,14.111,776.771,0,759.289,0c-17.481,0-31.593,14.111-31.593,31.593C727.696,49.075,741.808,63.187,759.289,63.187z"/>
<path fill="#00DCE6" d="M759.289,54.761c12.848,0,23.169-10.32,23.169-23.168c0-12.848-10.321-23.168-23.169-23.168
	c-12.847,0-23.168,10.32-23.168,23.168C736.121,44.441,746.547,54.761,759.289,54.761z"/>
<path fill="none" stroke="#FFFFFF" d="M746.652,38.333V24.748l12.216-7.898l12.216,7.898v13.585"/>
<path fill="none" stroke="#FFFFFF" stroke-linejoin="round" d="M746.652,38.333l12.216,8.004l12.216-8.004l-12.216-7.898
	L746.652,38.333z"/>
<path fill="none" stroke="#FFFFFF" d="M771.084,24.643l-12.216,8.003l-12.216-8.003"/>
<path fill="none" stroke="#FFFFFF" d="M758.868,16.85v13.585"/>
<path fill="none" stroke="#FFFFFF" d="M758.868,32.751v13.585"/>
<path fill="#00DCE6" fill-opacity="0.2" d="M938.317,63.187c17.479,0,31.593-14.112,31.593-31.593
	C969.91,14.111,955.798,0,938.317,0c-17.482,0-31.596,14.111-31.596,31.593C906.724,49.075,920.835,63.187,938.317,63.187z"/>
<path fill="#00DCE6" d="M938.317,54.761c12.848,0,23.168-10.32,23.168-23.168c0-12.848-10.32-23.168-23.168-23.168
	c-12.851,0-23.169,10.32-23.169,23.168C915.148,44.441,925.574,54.761,938.317,54.761z"/>
<path fill="none" stroke="#FFFFFF" d="M925.68,38.333V24.748l12.217-7.898l12.218,7.898v13.585"/>
<path fill="none" stroke="#FFFFFF" stroke-linejoin="round" d="M925.68,38.333l12.217,8.004l12.218-8.004l-12.218-7.898
	L925.68,38.333z"/>
<path fill="none" stroke="#FFFFFF" d="M950.112,24.643l-12.216,8.003l-12.219-8.003"/>
<path fill="none" stroke="#FFFFFF" d="M937.896,16.85v13.585"/>
<path fill="none" stroke="#FFFFFF" d="M937.896,32.751v13.585"/>
<path fill="#00DCE6" fill-opacity="0.2" d="M1115.24,63.187c17.479,0,31.59-14.112,31.59-31.593c0-17.482-14.11-31.593-31.59-31.593
	c-17.48,0-31.59,14.111-31.59,31.593C1083.65,49.075,1097.76,63.187,1115.24,63.187z"/>
<path fill="#00DCE6" d="M1115.24,54.761c12.85,0,23.17-10.32,23.17-23.168c0-12.848-10.32-23.168-23.17-23.168
	c-12.853,0-23.17,10.32-23.17,23.168C1092.07,44.441,1102.5,54.761,1115.24,54.761z"/>
<path fill="none" stroke="#FFFFFF" d="M1102.6,38.333V24.748l12.223-7.898l12.21,7.898v13.585"/>
<path fill="none" stroke="#FFFFFF" stroke-linejoin="round" d="M1102.6,38.333l12.223,8.004l12.21-8.004l-12.21-7.898L1102.6,38.333
	z"/>
<path fill="none" stroke="#FFFFFF" d="M1127.03,24.643l-12.21,7.898l-12.221-7.898"/>
<path fill="none" stroke="#FFFFFF" d="M1114.82,16.85v13.585"/>
<path fill="none" stroke="#FFFFFF" d="M1114.82,32.751v13.585"/>
<path fill="#00DCE6" fill-opacity="0.2" d="M229.578,63.187c17.481,0,31.593-14.112,31.593-31.593
	C261.171,14.111,247.059,0,229.578,0c-17.482,0-31.594,14.111-31.594,31.593C197.984,49.075,212.096,63.187,229.578,63.187z"/>
<path fill="#00DCE6" d="M229.577,54.761c12.743,0,23.169-10.32,23.169-23.168c0-12.848-10.426-23.168-23.169-23.168
	c-12.742,0-23.168,10.32-23.168,23.168C206.409,44.441,216.835,54.761,229.577,54.761z"/>
<path fill="none" stroke="#FFFFFF" d="M216.94,38.333V24.748l12.216-7.898l12.216,7.898v13.585"/>
<path fill="none" stroke="#FFFFFF" stroke-linejoin="round" d="M216.94,38.333l12.216,8.004l12.216-8.004l-12.216-7.898
	L216.94,38.333z"/>
<path fill="none" stroke="#FFFFFF" d="M241.372,24.643l-12.216,8.003l-12.216-8.003"/>
<path fill="none" stroke="#FFFFFF" d="M229.156,16.85v13.585"/>
<path fill="none" stroke="#FFFFFF" d="M229.156,32.751v13.585"/>
<path fill="none" stroke="#00DCE6" stroke-miterlimit="16" stroke-dasharray="1,1" d="M55.078,89.514V35.806"/>
<path fill="#00DCE6" d="M55.078,85.302c2.317,0,4.212,1.896,4.212,4.212c0,2.317-1.896,4.213-4.212,4.213s-4.212-1.896-4.212-4.213
	C50.865,87.197,52.761,85.302,55.078,85.302z"/>
<path fill="#00DCE6" fill-opacity="0.2" d="M55.078,63.187c17.481,0,31.593-14.112,31.593-31.593C86.671,14.111,72.559,0,55.078,0
	S23.484,14.111,23.484,31.593C23.484,49.075,37.701,63.187,55.078,63.187z"/>
<path fill="#00DCE6" d="M55.078,54.761c12.743,0,23.168-10.32,23.168-23.168c0-12.848-10.425-23.168-23.168-23.168
	c-12.743,0-23.168,10.32-23.168,23.168C31.909,44.441,42.335,54.761,55.078,54.761z"/>
<path fill="none" stroke="#FFFFFF" d="M42.44,38.333V24.748l12.216-7.898l12.216,7.898v13.585"/>
<path fill="none" stroke="#FFFFFF" stroke-linejoin="round" d="M42.44,38.333l12.216,8.004l12.216-8.004l-12.216-7.898L42.44,38.333
	z"/>
<path fill="none" stroke="#FFFFFF" d="M66.873,24.643l-12.216,8.003L42.44,24.748"/>
<path fill="none" stroke="#FFFFFF" d="M54.656,16.85v13.585"/>
<path fill="none" stroke="#FFFFFF" d="M54.656,32.751v13.585"/>
<path fill="#1F2432" d="M406.499,196.932c25.59,0,46.336-20.748,46.336-46.338c0-25.591-20.746-46.337-46.336-46.337
	c-25.591,0-46.337,20.746-46.337,46.337C360.162,176.184,380.908,196.932,406.499,196.932z"/>
<path fill="#00DCE6" fill-opacity="0.2" d="M452.836,161.125c5.792,0,10.531-4.739,10.531-10.531s-4.739-10.531-10.531-10.531
	s-10.531,4.739-10.531,10.531S447.044,161.125,452.836,161.125z"/>
<path fill="#00DCE6" d="M452.835,154.807c2.317,0,4.213-1.896,4.213-4.213c0-2.316-1.896-4.212-4.213-4.212
	c-2.316,0-4.212,1.896-4.212,4.212C448.623,152.911,450.519,154.807,452.835,154.807z"/>
<path fill="#1F2432" d="M584.473,196.932c25.594,0,46.337-20.748,46.337-46.338c0-25.591-20.743-46.337-46.337-46.337
	c-25.59,0-46.336,20.746-46.336,46.337C538.137,176.184,558.883,196.932,584.473,196.932z"/>
<path fill="#00DCE6" fill-opacity="0.2" d="M630.81,161.125c5.792,0,10.531-4.739,10.531-10.531s-4.739-10.531-10.531-10.531
	s-10.528,4.739-10.528,10.531S625.018,161.125,630.81,161.125z"/>
<path fill="#00DCE6" d="M630.81,154.807c2.317,0,4.216-1.896,4.216-4.213c0-2.316-1.896-4.212-4.216-4.212
	c-2.314,0-4.212,1.896-4.212,4.212C626.598,152.911,628.493,154.807,630.81,154.807z"/>
<path fill="#1F2432" d="M759.289,196.932c25.59,0,46.336-20.748,46.336-46.338c0-25.591-20.746-46.337-46.336-46.337
	c-25.591,0-46.337,20.746-46.337,46.337C712.952,176.184,733.698,196.932,759.289,196.932z"/>
<path fill="#00DCE6" fill-opacity="0.2" d="M805.626,161.125c5.792,0,10.531-4.739,10.531-10.531s-4.739-10.531-10.531-10.531
	s-10.531,4.739-10.531,10.531S799.834,161.125,805.626,161.125z"/>
<path fill="#00DCE6" d="M805.626,154.807c2.316,0,4.212-1.896,4.212-4.213c0-2.316-1.896-4.212-4.212-4.212
	c-2.317,0-4.213,1.896-4.213,4.212C801.413,152.911,803.309,154.807,805.626,154.807z"/>
<path fill="#1F2432" d="M938.317,196.932c25.591,0,46.337-20.748,46.337-46.338c0-25.591-20.746-46.337-46.337-46.337
	c-25.593,0-46.337,20.746-46.337,46.337C891.98,176.184,912.727,196.932,938.317,196.932z"/>
<path fill="#00DCE6" fill-opacity="0.2" d="M984.654,161.125c5.792,0,10.528-4.739,10.528-10.531s-4.736-10.531-10.528-10.531
	s-10.531,4.739-10.531,10.531S978.862,161.125,984.654,161.125z"/>
<path fill="#00DCE6" d="M984.654,154.807c2.314,0,4.212-1.896,4.212-4.213c0-2.316-1.896-4.212-4.212-4.212
	c-2.317,0-4.213,1.896-4.213,4.212C980.441,152.911,982.337,154.807,984.654,154.807z"/>
<path fill="#1F2432" d="M1115.24,196.932c25.59,0,46.34-20.748,46.34-46.338c0-25.591-20.75-46.337-46.34-46.337
	s-46.34,20.746-46.34,46.337C1068.9,176.184,1089.65,196.932,1115.24,196.932z"/>
<path fill="none" stroke="#00DCE6" stroke-width="2" d="M173.763,161.125l10.531-10.531l-10.531-10.531"/>
<path fill="none" stroke="#00DCE6" stroke-width="2" stroke-miterlimit="16" d="M100.045,150.594c20.535,0,63.713,0,84.248,0"/>
<path fill="none" stroke="#00DCE6" stroke-width="2" d="M349.631,161.125l10.531-10.531l-10.531-10.531"/>
<path fill="none" stroke="#00DCE6" stroke-width="2" stroke-miterlimit="16" d="M275.914,150.594c20.536,0,63.713,0,84.248,0"/>
<path fill="none" stroke="#00DCE6" stroke-width="2" d="M527.606,161.125l10.529-10.531l-10.529-10.531"/>
<path fill="none" stroke="#00DCE6" stroke-width="2" stroke-miterlimit="16" d="M453.889,150.594c20.535,0,63.713,0,84.248,0"/>
<path fill="none" stroke="#00DCE6" stroke-width="2" d="M703.475,161.125l10.531-10.531l-10.531-10.531"/>
<path fill="none" stroke="#00DCE6" stroke-width="2" stroke-miterlimit="16" d="M629.758,150.594c20.535,0,63.713,0,84.248,0"/>
<path fill="none" stroke="#00DCE6" stroke-width="2" d="M881.449,161.125l10.531-10.531l-10.531-10.531"/>
<path fill="none" stroke="#00DCE6" stroke-width="2" stroke-miterlimit="16" d="M807.732,150.594c20.533,0,63.713,0,84.249,0"/>
<path fill="none" stroke="#00DCE6" stroke-width="2" d="M1058.37,161.125l10.53-10.531l-10.53-10.531"/>
<path fill="none" stroke="#00DCE6" stroke-width="2" stroke-miterlimit="16" d="M984.653,150.594c20.537,0,63.717,0,84.247,0"/>
<path fill="none" stroke="#00DCE6" d="M38.439,135.956v15.375H28.224v-15.375"/>
<path fill="none" stroke="#00DCE6" d="M58.764,135.956v15.375H48.549v-15.375"/>
<path fill="none" stroke="#00DCE6" d="M79.193,135.956v15.375H68.979v-15.375"/>
<path fill="none" stroke="#00DCE6" d="M82.563,151.227h-57.71v19.797h57.71V151.227z"/>
<path fill="none" stroke="#00DCE6" d="M64.45,129.743H43.072v5.897h21.483v-5.897H64.45z"/>
<path fill="none" stroke="#00DCE6" d="M53.709,125.635v4.108"/>
<path fill="none" stroke="#00DCE6" d="M63.292,156.176H44.125v14.743h19.272v-14.743H63.292z"/>
<path fill="none" stroke="#00DCE6" d="M63.292,156.176h-9.583v14.848h9.583V156.176z"/>
<path fill="none" stroke="#00DCE6" d="M79.194,135.641h-50.97v3.791H79.3v-3.791H79.194z"/>
<path fill="none" stroke="#00DCE6" d="M56.763,161.757v4.423"/>
<path fill="none" stroke="#00DCE6" d="M50.971,161.757v4.423"/>
<path fill="none" stroke="#00DCE6" d="M34.226,156.176h-5.055v10.952h5.055V156.176z"/>
<path fill="none" stroke="#00DCE6" d="M77.824,156.176H72.77v10.952h5.055L77.824,156.176L77.824,156.176z"/>
<path fill="none" stroke="#00DCE6" d="M45.389,132.691h15.796"/>
<path fill="none" stroke="#00DCE6" d="M248.849,171.445h-36.648c-4.318,0-7.793-3.478-7.793-7.793c0-4.317,3.475-7.793,7.793-7.793
	h36.648c4.318,0,7.793,3.476,7.793,7.793C256.642,167.969,253.167,171.445,248.849,171.445z"/>
<path fill="none" stroke="#00DCE6" d="M212.833,168.076c2.443,0,4.423-1.981,4.423-4.424c0-2.443-1.98-4.424-4.423-4.424
	s-4.423,1.979-4.423,4.424C208.41,166.095,210.39,168.076,212.833,168.076z"/>
<path fill="none" stroke="#00DCE6" d="M224.628,168.076c2.443,0,4.423-1.981,4.423-4.424c0-2.443-1.98-4.424-4.423-4.424
	s-4.423,1.979-4.423,4.424C220.205,166.095,222.185,168.076,224.628,168.076z"/>
<path fill="none" stroke="#00DCE6" d="M236.423,168.076c2.443,0,4.423-1.981,4.423-4.424c0-2.443-1.98-4.424-4.423-4.424
	c-2.443,0-4.423,1.979-4.423,4.424C232,166.095,233.98,168.076,236.423,168.076z"/>
<path fill="none" stroke="#00DCE6" d="M248.217,168.076c2.443,0,4.423-1.981,4.423-4.424c0-2.443-1.98-4.424-4.423-4.424
	c-2.443,0-4.423,1.979-4.423,4.424C243.794,166.095,245.774,168.076,248.217,168.076z"/>
<path fill="none" stroke="#00DCE6" d="M214.729,155.859v-26.116h31.698v26.116"/>
<path fill="none" stroke="#00DCE6" d="M221.574,142.801v2.949h11.058v4.002l6.95-6.951l-6.95-6.949v4h-11.058V142.801z"/>
<path fill="none" stroke="#00DCE6" stroke-miterlimit="10" d="M424.507,163.021c2.271,0,4.107-1.84,4.107-4.108
	s-1.839-4.106-4.107-4.106c-2.268,0-4.105,1.838-4.105,4.106S422.238,163.021,424.507,163.021z"/>
<path fill="none" stroke="#00DCE6" stroke-linecap="round" stroke-miterlimit="10" d="M425.139,140.906
	c2.908,0,5.268-2.358,5.268-5.266c0-2.908-2.357-5.268-5.268-5.268c-2.905,0-5.266,2.355-5.266,5.268
	C419.873,138.548,422.231,140.906,425.139,140.906z"/>
<path fill="none" stroke="#00DCE6" stroke-miterlimit="10" d="M392.913,175.658c2.908,0,5.265-2.357,5.265-5.266
	c0-2.91-2.354-5.268-5.265-5.268s-5.266,2.355-5.266,5.268C387.647,173.301,390.005,175.658,392.913,175.658z"/>
<path fill="none" stroke="#00DCE6" stroke-miterlimit="10" d="M403.76,131.428c1.92,0,3.479-1.556,3.479-3.476
	c0-1.919-1.559-3.476-3.479-3.476c-1.919,0-3.475,1.557-3.475,3.476C400.285,129.872,401.841,131.428,403.76,131.428z"/>
<path fill="none" stroke="#00DCE6" stroke-miterlimit="10" d="M404.076,131.639l0.843,6.528"/>
<path fill="none" stroke="#00DCE6" stroke-linecap="round" stroke-miterlimit="10" d="M409.868,172.077
	c1.396,0,2.528-1.132,2.528-2.527c0-1.395-1.135-2.528-2.528-2.528c-1.396,0-2.527,1.135-2.527,2.528
	C407.341,170.945,408.472,172.077,409.868,172.077z"/>
<path fill="none" stroke="#00DCE6" stroke-linecap="round" stroke-miterlimit="10" d="M409.552,166.707l-1.053-4.529"/>
<path fill="none" stroke="#00DCE6" stroke-linecap="round" stroke-miterlimit="10" d="M421.031,139.432l-4.739,4.213"/>
<path fill="none" stroke="#00DCE6" stroke-miterlimit="10" d="M417.346,155.229l3.267,1.687"/>
<path fill="none" stroke="#00DCE6" stroke-linecap="round" stroke-miterlimit="10" d="M385.436,152.7
	c2.271,0,4.107-1.839,4.107-4.107c0-2.268-1.839-4.106-4.107-4.106c-2.268,0-4.104,1.841-4.104,4.106
	C381.329,150.861,383.168,152.7,385.436,152.7z"/>
<path fill="none" stroke="#00DCE6" stroke-linecap="round" stroke-miterlimit="10" d="M393.44,149.33l-3.688-0.316"/>
<path fill="none" stroke="#00DCE6" stroke-linecap="round" stroke-miterlimit="10" d="M406.182,162.178
	c6.633,0,12.008-5.375,12.008-12.005c0-6.631-5.375-12.006-12.008-12.006c-6.63,0-12.005,5.375-12.005,12.006
	C394.177,156.803,399.552,162.178,406.182,162.178z"/>
<path fill="none" stroke="#00DCE6" stroke-miterlimit="10" d="M399.653,160.493l-3.688,5.687"/>
<path fill="none" stroke="#00DCE6" stroke-miterlimit="10" d="M403.76,153.438v1.791h-0.421l-1.369,1.369l-2.314,1.053
	c-0.632,0.211-1.267,0.526-1.688,0.947"/>
<path fill="none" stroke="#00DCE6" stroke-miterlimit="10" d="M411.131,145.645v0.947l0.948,0.422v1.791
	c0,0.315-0.105,0.631-0.421,0.736l-0.527,0.632c0,0,0,0.737,0,0.948c0,1.79-2.313,2.527-2.738,2.738
	c-0.421,0.209-1.053,0.421-1.79,0.421c-0.734,0-1.474-0.212-1.79-0.421c-0.421-0.211-2.735-0.948-2.735-2.738
	c0-0.211,0-0.948,0-0.948l-0.527-0.632c-0.21-0.211-0.421-0.421-0.421-0.736v-1.791l0.948-0.422v-0.947
	c0-2.314,1.895-4.105,4.104-4.105h0.948C409.236,141.432,411.131,143.328,411.131,145.645z"/>
<path fill="none" stroke="#00DCE6" stroke-miterlimit="10" d="M403.76,155.229l2.738,2.316"/>
<path fill="none" stroke="#00DCE6" stroke-miterlimit="10" d="M406.498,157.544l-2.317,1.791l-2.211-2.737"/>
<path fill="none" stroke="#00DCE6" stroke-miterlimit="10" d="M409.236,153.438v1.791h0.422l1.369,1.369l2.313,1.053
	c0.527,0.104,1.055,0.42,1.478,0.736"/>
<path fill="none" stroke="#00DCE6" stroke-miterlimit="10" d="M409.236,155.229l-2.738,2.316"/>
<path fill="none" stroke="#00DCE6" stroke-miterlimit="10" d="M406.498,157.544l2.317,1.791l2.314-2.737"/>
<path fill="none" stroke="#00DCE6" stroke-miterlimit="10" d="M600.27,138.167h-8.003v13.586h15.901v-1.791L600.27,138.167z"/>
<path fill="none" stroke="#00DCE6" stroke-miterlimit="10" d="M596.689,162.073c0,2.633,2.104,4.739,4.736,4.739
	c2.633,0,4.739-2.106,4.739-4.739c0-2.634-2.106-4.739-4.739-4.739C598.796,157.334,596.689,159.439,596.689,162.073z"/>
<path fill="none" stroke="#00DCE6" stroke-miterlimit="10" d="M598.585,162.073c0,1.474,1.264,2.737,2.738,2.737
	c1.474,0,2.735-1.266,2.735-2.737c0-1.474-1.264-2.738-2.735-2.738C599.849,159.335,598.585,160.6,598.585,162.073z"/>
<path fill="none" stroke="#00DCE6" stroke-miterlimit="10" d="M563.096,161.968c0,2.632,2.106,4.739,4.633,4.845
	c2.636,0,4.739-2.104,4.848-4.635c0-2.632-2.107-4.738-4.634-4.844C565.202,157.334,563.096,159.335,563.096,161.968z"/>
<path fill="none" stroke="#00DCE6" stroke-miterlimit="10" d="M590.16,135.852h11.585l9.688,14.11v10.847h-5.37
	c-0.524-2-2.423-3.369-4.526-3.369c-2.106,0-3.896,1.477-4.528,3.369h-6.74H572.47c-0.523-2-2.314-3.369-4.423-3.369
	c-2.104,0-4.002,1.477-4.527,3.369h-5.688v-24.853L590.16,135.852z"/>
<path fill="none" stroke="#00DCE6" stroke-miterlimit="10" d="M565.097,162.073c0,1.474,1.158,2.737,2.632,2.737
	c1.478,0,2.739-1.158,2.739-2.635c0-1.474-1.159-2.736-2.633-2.736C566.36,159.335,565.097,160.6,565.097,162.073z"/>
<path fill="none" stroke="#00DCE6" stroke-miterlimit="10" d="M587.001,140.273h-23.905"/>
<path fill="none" stroke="#00DCE6" stroke-miterlimit="10" d="M587.001,144.802h-23.905"/>
<path fill="none" stroke="#00DCE6" stroke-miterlimit="10" d="M587.001,149.225h-23.905"/>
<path fill="none" stroke="#00DCE6" stroke-miterlimit="10" d="M954.429,170.814h-41.913v-25.381h9.372"/>
<path fill="none" stroke="#00DCE6" stroke-miterlimit="10" d="M953.902,145.434h9.373v25.381h-9.373"/>
<path fill="none" stroke="#00DCE6" stroke-miterlimit="10" d="M946.426,168.918v-18.85"/>
<path fill="none" stroke="#00DCE6" stroke-miterlimit="10" d="M929.471,168.918v-18.85"/>
<path fill="none" stroke="#00DCE6" stroke-miterlimit="10" d="M937.896,150.173v16.007"/>
<path fill="none" stroke="#00DCE6" stroke-miterlimit="10" d="M912.831,165.338h9.478"/>
<path fill="none" stroke="#00DCE6" stroke-miterlimit="10" d="M953.586,165.338h9.583"/>
<path fill="none" stroke="#00DCE6" stroke-miterlimit="10" d="M912.726,145.434h-3.054v-9.373h10.32"/>
<path fill="none" stroke="#00DCE6" stroke-miterlimit="10" d="M955.798,135.956h10.32v9.373h-2.948"/>
<path fill="none" stroke="#00DCE6" stroke-miterlimit="10" d="M922.414,165.338h7.582"/>
<path fill="none" stroke="#00DCE6" stroke-miterlimit="10" d="M946.426,165.338h7.161"/>
<path fill="none" stroke="#00DCE6" stroke-miterlimit="10" d="M948.216,168.918H927.47v1.896h20.746V168.918L948.216,168.918z"/>
<path fill="none" stroke="#00DCE6" stroke-miterlimit="10" d="M946.426,167.128h-16.955v1.896h16.955V167.128z"/>
<path fill="none" stroke="#00DCE6" stroke-miterlimit="10" d="M935.895,158.703v4.107"/>
<path fill="none" stroke="#00DCE6" stroke-miterlimit="10" d="M940.423,158.703v4.107"/>
<path fill="none" stroke="#00DCE6" stroke-miterlimit="10" d="M955.798,130.375h-35.806v15.059h35.806V130.375z"/>
<path fill="none" stroke="#00DCE6" stroke-miterlimit="10" d="M948.215,145.434h-19.798v4.739h19.798V145.434z"/>
<path fill="none" stroke="#00DCE6" stroke-miterlimit="10" d="M929.47,135.956c0,2.633-2.104,4.739-4.736,4.739
	c-2.636,0-4.739-2.106-4.739-4.739"/>
<path fill="none" stroke="#00DCE6" stroke-miterlimit="10" d="M937.896,135.956c0,2.633-1.896,4.739-4.216,4.739
	c-2.314,0-4.212-2.106-4.212-4.739"/>
<path fill="none" stroke="#00DCE6" stroke-miterlimit="10" d="M946.425,135.956c0,2.633-1.896,4.739-4.213,4.739
	c-2.315,0-4.212-2.106-4.212-4.739"/>
<path fill="none" stroke="#00DCE6" stroke-miterlimit="10" d="M955.798,135.956c0,2.633-2.104,4.739-4.739,4.739
	c-2.632,0-4.736-2.106-4.736-4.739"/>
<path fill="none" stroke="#00DCE6" stroke-miterlimit="10" d="M754.445,150.91v3.265H753.6l-2.422,2.423l-4.104,1.896
	c-2.211,0.525-4.002,2.212-4.002,3.791v9.688"/>
<path fill="none" stroke="#00DCE6" stroke-miterlimit="10" d="M754.445,154.175l4.845,4.001"/>
<path fill="none" stroke="#00DCE6" stroke-miterlimit="10" d="M759.29,158.176l-4.002,3.266l-4.107-4.844"/>
<path fill="none" stroke="#00DCE6" stroke-miterlimit="10" d="M764.134,150.91v3.265h0.842l2.423,2.423l4.107,1.896
	c2.211,0.525,4.001,2.212,4.001,3.791v9.688"/>
<path fill="none" stroke="#00DCE6" stroke-miterlimit="10" d="M764.133,154.175l-4.844,4.001"/>
<path fill="none" stroke="#00DCE6" stroke-miterlimit="10" d="M759.289,158.176l4.002,3.266l4.107-4.844"/>
<path fill="none" stroke="#00DCE6" stroke-miterlimit="10" d="M761.711,159.861l-0.842,4.002h-3.159l-0.843-4.002"/>
<path fill="none" stroke="#00DCE6" stroke-miterlimit="10" d="M761.711,171.129l-0.842-7.266h-3.159l-0.843,7.266"/>
<path fill="none" stroke="#00DCE6" stroke-miterlimit="10" d="M768.767,140.695v-5.479c0-4.947-1.366-5.896-6.635-5.896h-13.269
	v3.687c0,1.685,1.369,3.687,4.423,3.687s8.952,0,10.321,0c2.211,0,2.946,2,2.946,3.688c0,0.211,0,0.104,0,0.737h2.211v2.843
	c0,0.525-0.211,0.948-0.632,1.266l-1.579,1.053c0,0,0,0.844,0,1.16c0,2.842-3.792,4.104-4.424,4.422
	c-0.631,0.314-1.79,0.736-2.948,0.736c-1.156,0-2.314-0.422-2.946-0.736c-0.634-0.315-4.423-1.58-4.423-4.422c0-0.316,0-1.16,0-1.16
	l-1.58-1.053c-0.424-0.315-0.635-0.736-0.635-1.266v-2.843h2.215c0-0.526,0-1.056,0-1.476c0-1.265,0.524-2.213,1.474-2.949"/>
<path fill="none" stroke="#00DCE6" stroke-miterlimit="10" d="M749.6,135.113c-0.313,0.316-0.734,0.843-0.734,2.212
	c0,0.526,0,1.264,0,1.474c0,1.264,0.843,2.001,1.475,2.212"/>
<path fill="none" stroke="#00DCE6" stroke-linejoin="round" stroke-miterlimit="10" d="M1111.24,173.236v-26.223l6,6.002
	c1.05,1.053,2.84,1.476,3.79,0.525l1.159-1.159c0,0-3.689-5.687-4.949-7.477c-1.37-1.79-3.79-6.003-8-6.003h-6.853
	c-2.84,0-6.317,2.947-6.317,6.738v7.162c0,2,2.42,4.211,4.43,4.211"/>
<path fill="none" stroke="#00DCE6" stroke-linejoin="round" stroke-miterlimit="10" d="M1100.18,146.066v27.17"/>
<path fill="none" stroke="#00DCE6" stroke-linejoin="round" stroke-miterlimit="10" d="M1106.18,157.123v16.113"/>
<path fill="none" stroke="#00DCE6" stroke-linejoin="round" stroke-miterlimit="10" d="M1106.18,135.956c2.32,0,4-1.685,4-4.002
	v-2.001c0-2.422-1.68-4.002-4-4.002c-2.317,0-4,1.685-4,4.002v2.001C1102.18,134.271,1103.86,135.956,1106.18,135.956z"/>
<path fill="none" stroke="#00DCE6" stroke-linejoin="round" stroke-miterlimit="10" d="M1113.24,172.184h21.17v-15.061h-21.17"/>
<path fill="none" stroke="#00DCE6" stroke-linejoin="round" stroke-miterlimit="10" d="M1119.29,161.089h7.05v-4.002h-7.05V161.089z
	"/>
<path fill="none" stroke="#00DCE6" stroke-linejoin="round" stroke-miterlimit="10" d="M1131.35,168.182h-2"/>
<path fill="none" stroke="#00DCE6" stroke-linejoin="round" stroke-miterlimit="10" d="M1128.3,168.182h-2"/>
<text transform="matrix(1 0 0 1 31.5 222)" font-family="'MicrosoftYaHei'" font-size="13">供货商</text>
<text transform="matrix(1 0 0 1 210.5 222)" font-family="'MicrosoftYaHeiLight'" font-size="13">制造商</text>
<text transform="matrix(1 0 0 1 388.5 221)" font-family="'MicrosoftYaHeiLight'" font-size="13">配送方</text>
<text transform="matrix(1 0 0 1 553.5 221)" font-family="'MicrosoftYaHeiLight'" font-size="13">第三方物流</text>
<text transform="matrix(1 0 0 1 740.5 222)" font-family="'MicrosoftYaHeiLight'" font-size="13">零售商</text>
<text transform="matrix(1 0 0 1 926.5 221)" font-family="'MicrosoftYaHeiLight'" font-size="13">商店</text>
<text transform="matrix(1 0 0 1 1104.5 221)" font-family="'MicrosoftYaHeiLight'" font-size="13">顾客</text>
</svg>
