<?xml version="1.0" encoding="utf-8"?>
<!-- Generator: Adobe Illustrator 15.0.0, SVG Export Plug-In . SVG Version: 6.00 Build 0)  -->
<!DOCTYPE svg PUBLIC "-//W3C//DTD SVG 1.1//EN" "http://www.w3.org/Graphics/SVG/1.1/DTD/svg11.dtd">
<svg version="1.1" id="图层_1" xmlns="http://www.w3.org/2000/svg" xmlns:xlink="http://www.w3.org/1999/xlink" x="0px" y="0px"
	 width="940px" height="183px" viewBox="0 0 940 183" enable-background="new 0 0 940 183" xml:space="preserve">
<g>
	<defs>
		<rect id="SVGID_1_" x="0.401" y="0.455" width="939.197" height="182.09"/>
	</defs>
	<clipPath id="SVGID_2_">
		<use xlink:href="#SVGID_1_"  overflow="visible"/>
	</clipPath>
	<g clip-path="url(#SVGID_2_)">
		<path fill="#00DCE6" fill-opacity="0.1" d="M25.762,0.455h888.475c14.033,0,25.361,11.328,25.361,25.361
			c0,14.033-11.328,25.361-25.361,25.361H25.762c-14.033,0-25.361-11.328-25.361-25.361C0.401,11.783,11.729,0.455,25.762,0.455z"/>
		<path fill="#1F2432" d="M43.514,158.537c20.542,0,37.196-16.652,37.196-37.197c0-20.541-16.654-37.195-37.196-37.195
			c-20.542,0-37.196,16.654-37.196,37.195C6.318,141.885,22.972,158.537,43.514,158.537z"/>
		<path fill="#00DCE6" fill-opacity="0.2" d="M80.71,129.795c4.649,0,8.454-3.803,8.454-8.453c0-4.648-3.804-8.453-8.454-8.453
			s-8.454,3.805-8.454,8.453C72.257,125.992,76.061,129.795,80.71,129.795z"/>
		<path fill="#00DCE6" d="M80.71,124.723c1.86,0,3.381-1.521,3.381-3.383c0-1.857-1.521-3.381-3.381-3.381s-3.381,1.523-3.381,3.381
			C77.329,123.201,78.851,124.723,80.71,124.723z"/>
		<path fill="#1F2432" d="M185.534,158.537c20.543,0,37.196-16.652,37.196-37.197c0-20.541-16.653-37.195-37.196-37.195
			c-20.542,0-37.195,16.654-37.195,37.195C148.339,141.885,164.992,158.537,185.534,158.537z"/>
		<path fill="#00DCE6" fill-opacity="0.2" d="M222.731,129.795c4.649,0,8.453-3.803,8.453-8.453c0-4.648-3.804-8.453-8.453-8.453
			c-4.65,0-8.454,3.805-8.454,8.453C214.277,125.992,218.082,129.795,222.731,129.795z"/>
		<path fill="#00DCE6" d="M222.731,124.723c1.859,0,3.381-1.521,3.381-3.383c0-1.857-1.522-3.381-3.381-3.381
			c-1.86,0-3.382,1.523-3.382,3.381C219.35,123.201,220.872,124.723,222.731,124.723z"/>
		<path fill="none" stroke="#00DCE6" stroke-miterlimit="16" stroke-dasharray="1,1" d="M327.556,72.31V29.197"/>
		<path fill="none" stroke="#00DCE6" stroke-miterlimit="16" stroke-dasharray="1,1" d="M184.689,72.31V29.197"/>
		<path fill="none" stroke="#00DCE6" stroke-miterlimit="16" stroke-dasharray="1,1" d="M470.423,72.31V29.197"/>
		<path fill="none" stroke="#00DCE6" stroke-miterlimit="16" stroke-dasharray="1,1" d="M609.907,72.31V29.197"/>
		<path fill="none" stroke="#00DCE6" stroke-miterlimit="16" stroke-dasharray="1,1" d="M753.618,72.31V29.197"/>
		<path fill="none" stroke="#00DCE6" stroke-miterlimit="16" stroke-dasharray="1,1" d="M895.64,72.31V29.197"/>
		<path fill="#00DCE6" d="M184.69,68.929c1.859,0,3.381,1.521,3.381,3.381s-1.522,3.381-3.381,3.381
			c-1.86,0-3.382-1.521-3.382-3.381S182.831,68.929,184.69,68.929z"/>
		<path fill="#00DCE6" d="M327.557,68.929c1.859,0,3.381,1.521,3.381,3.381s-1.521,3.381-3.381,3.381
			c-1.86,0-3.382-1.521-3.382-3.381S325.696,68.929,327.557,68.929z"/>
		<path fill="#00DCE6" d="M470.423,68.929c1.859,0,3.382,1.521,3.382,3.381s-1.522,3.381-3.382,3.381
			c-1.86,0-3.382-1.521-3.382-3.381S468.563,68.929,470.423,68.929z"/>
		<path fill="#00DCE6" d="M609.906,68.929c1.86,0,3.382,1.521,3.382,3.381s-1.521,3.381-3.382,3.381
			c-1.858,0-3.381-1.521-3.381-3.381S608.048,68.929,609.906,68.929z"/>
		<path fill="#00DCE6" d="M753.618,68.929c1.86,0,3.382,1.521,3.382,3.381s-1.521,3.381-3.382,3.381
			c-1.858,0-3.381-1.521-3.381-3.381S751.76,68.929,753.618,68.929z"/>
		<path fill="#00DCE6" d="M895.64,68.929c1.859,0,3.381,1.521,3.381,3.381s-1.521,3.381-3.381,3.381
			c-1.86,0-3.382-1.521-3.382-3.381S893.779,68.929,895.64,68.929z"/>
		<path fill="#00DCE6" fill-opacity="0.2" d="M326.71,51.176c14.033,0,25.361-11.328,25.361-25.361
			c0-14.033-11.328-25.361-25.361-25.361c-14.032,0-25.36,11.328-25.36,25.361C301.35,39.849,312.678,51.176,326.71,51.176z"/>
		<path fill="#00DCE6" d="M326.71,44.413c10.229,0,18.599-8.285,18.599-18.598c0-10.313-8.369-18.598-18.599-18.598
			c-10.229,0-18.598,8.285-18.598,18.598C308.112,36.128,316.481,44.413,326.71,44.413z"/>
		<path fill="none" stroke="#FFFFFF" d="M316.566,31.226V20.32l9.806-6.34l9.807,6.34v10.905"/>
		<path fill="none" stroke="#FFFFFF" stroke-linejoin="round" d="M316.566,31.226l9.806,6.425l9.807-6.425l-9.807-6.34
			L316.566,31.226z"/>
		<path fill="none" stroke="#FFFFFF" d="M336.179,20.236l-9.807,6.425l-9.806-6.425"/>
		<path fill="none" stroke="#FFFFFF" d="M326.372,13.98v10.905"/>
		<path fill="none" stroke="#FFFFFF" d="M326.372,26.746v10.905"/>
		<path fill="#00DCE6" fill-opacity="0.2" d="M469.576,51.176c14.033,0,25.361-11.328,25.361-25.361
			c0-14.033-11.328-25.361-25.361-25.361s-25.36,11.328-25.36,25.361C444.216,39.849,455.543,51.176,469.576,51.176z"/>
		<path fill="#00DCE6" d="M469.576,44.413c10.229,0,18.599-8.285,18.599-18.598c0-10.313-8.369-18.598-18.599-18.598
			c-10.313,0-18.598,8.285-18.598,18.598C450.979,36.128,459.348,44.413,469.576,44.413z"/>
		<path fill="none" stroke="#FFFFFF" d="M459.433,31.226V20.32l9.806-6.34l9.807,6.34v10.905"/>
		<path fill="none" stroke="#FFFFFF" stroke-linejoin="round" d="M459.433,31.226l9.806,6.425l9.807-6.425l-9.807-6.34
			L459.433,31.226z"/>
		<path fill="none" stroke="#FFFFFF" d="M479.045,20.236l-9.807,6.425l-9.806-6.425"/>
		<path fill="none" stroke="#FFFFFF" d="M469.238,13.98v10.905"/>
		<path fill="none" stroke="#FFFFFF" d="M469.238,26.746v10.905"/>
		<path fill="#00DCE6" fill-opacity="0.2" d="M609.906,51.176c14.033,0,25.361-11.328,25.361-25.361
			c0-14.033-11.328-25.361-25.361-25.361s-25.36,11.328-25.36,25.361C584.546,39.849,595.873,51.176,609.906,51.176z"/>
		<path fill="#00DCE6" d="M609.906,44.413c10.314,0,18.599-8.285,18.599-18.598c0-10.313-8.284-18.598-18.599-18.598
			c-10.313,0-18.598,8.285-18.598,18.598C591.309,36.128,599.678,44.413,609.906,44.413z"/>
		<path fill="none" stroke="#FFFFFF" d="M599.763,31.226V20.32l9.807-6.34l9.806,6.34v10.905"/>
		<path fill="none" stroke="#FFFFFF" stroke-linejoin="round" d="M599.763,31.226l9.807,6.425l9.806-6.425l-9.806-6.34
			L599.763,31.226z"/>
		<path fill="none" stroke="#FFFFFF" d="M619.375,20.236l-9.806,6.425l-9.807-6.425"/>
		<path fill="none" stroke="#FFFFFF" d="M609.568,13.98v10.905"/>
		<path fill="none" stroke="#FFFFFF" d="M609.568,26.746v10.905"/>
		<path fill="#00DCE6" fill-opacity="0.2" d="M753.618,51.176c14.033,0,25.361-11.328,25.361-25.361
			c0-14.033-11.328-25.361-25.361-25.361s-25.36,11.328-25.36,25.361C728.258,39.849,739.585,51.176,753.618,51.176z"/>
		<path fill="#00DCE6" d="M753.618,44.413c10.314,0,18.599-8.285,18.599-18.598c0-10.313-8.284-18.598-18.599-18.598
			c-10.313,0-18.598,8.285-18.598,18.598C735.021,36.128,743.39,44.413,753.618,44.413z"/>
		<path fill="none" stroke="#FFFFFF" d="M743.474,31.226V20.32l9.806-6.34l9.807,6.34v10.905"/>
		<path fill="none" stroke="#FFFFFF" stroke-linejoin="round" d="M743.474,31.226l9.806,6.425l9.807-6.425l-9.807-6.34
			L743.474,31.226z"/>
		<path fill="none" stroke="#FFFFFF" d="M763.086,20.236l-9.807,6.425l-9.806-6.425"/>
		<path fill="none" stroke="#FFFFFF" d="M753.28,13.98v10.905"/>
		<path fill="none" stroke="#FFFFFF" d="M753.28,26.746v10.905"/>
		<path fill="#00DCE6" fill-opacity="0.2" d="M895.64,51.176c14.033,0,25.36-11.328,25.36-25.361
			c0-14.033-11.327-25.361-25.36-25.361s-25.361,11.328-25.361,25.361C870.278,39.849,881.606,51.176,895.64,51.176z"/>
		<path fill="#00DCE6" d="M895.64,44.413c10.313,0,18.598-8.285,18.598-18.598c0-10.313-8.285-18.598-18.598-18.598
			c-10.314,0-18.599,8.285-18.599,18.598C877.041,36.128,885.41,44.413,895.64,44.413z"/>
		<path fill="none" stroke="#FFFFFF" d="M885.495,31.226V20.32l9.807-6.34l9.806,6.34v10.905"/>
		<path fill="none" stroke="#FFFFFF" stroke-linejoin="round" d="M885.495,31.226l9.807,6.425l9.806-6.425l-9.806-6.34
			L885.495,31.226z"/>
		<path fill="none" stroke="#FFFFFF" d="M905.107,20.236l-9.806,6.34l-9.807-6.34"/>
		<path fill="none" stroke="#FFFFFF" d="M895.301,13.98v10.905"/>
		<path fill="none" stroke="#FFFFFF" d="M895.301,26.746v10.905"/>
		<path fill="#00DCE6" fill-opacity="0.2" d="M184.69,51.176c14.033,0,25.36-11.328,25.36-25.361
			c0-14.033-11.327-25.361-25.36-25.361c-14.033,0-25.361,11.328-25.361,25.361C159.33,39.849,170.657,51.176,184.69,51.176z"/>
		<path fill="#00DCE6" d="M184.689,44.413c10.229,0,18.598-8.285,18.598-18.598c0-10.313-8.369-18.598-18.598-18.598
			c-10.228,0-18.598,8.285-18.598,18.598C166.091,36.128,174.461,44.413,184.689,44.413z"/>
		<path fill="none" stroke="#FFFFFF" d="M174.545,31.226V20.32l9.806-6.34l9.806,6.34v10.905"/>
		<path fill="none" stroke="#FFFFFF" stroke-linejoin="round" d="M174.545,31.226l9.806,6.425l9.806-6.425l-9.806-6.34
			L174.545,31.226z"/>
		<path fill="none" stroke="#FFFFFF" d="M194.157,20.236l-9.806,6.425l-9.806-6.425"/>
		<path fill="none" stroke="#FFFFFF" d="M184.352,13.98v10.905"/>
		<path fill="none" stroke="#FFFFFF" d="M184.352,26.746v10.905"/>
		<path fill="none" stroke="#00DCE6" stroke-miterlimit="16" stroke-dasharray="1,1" d="M44.613,72.31V29.197"/>
		<path fill="#00DCE6" d="M44.613,68.929c1.86,0,3.381,1.521,3.381,3.381s-1.521,3.381-3.381,3.381s-3.381-1.521-3.381-3.381
			S42.753,68.929,44.613,68.929z"/>
		<path fill="#00DCE6" fill-opacity="0.2" d="M44.613,51.176c14.033,0,25.361-11.328,25.361-25.361
			c0-14.033-11.328-25.361-25.361-25.361S19.252,11.783,19.252,25.815C19.252,39.849,30.665,51.176,44.613,51.176z"/>
		<path fill="#00DCE6" d="M44.614,44.413c10.229,0,18.598-8.285,18.598-18.598c0-10.313-8.369-18.598-18.598-18.598
			c-10.229,0-18.598,8.285-18.598,18.598C26.016,36.128,34.385,44.413,44.614,44.413z"/>
		<path fill="none" stroke="#FFFFFF" d="M34.469,31.226V20.32l9.806-6.34l9.806,6.34v10.905"/>
		<path fill="none" stroke="#FFFFFF" stroke-linejoin="round" d="M34.469,31.226l9.806,6.425l9.806-6.425l-9.806-6.34L34.469,31.226
			z"/>
		<path fill="none" stroke="#FFFFFF" d="M54.081,20.236l-9.806,6.425l-9.806-6.34"/>
		<path fill="none" stroke="#FFFFFF" d="M44.275,13.98v10.905"/>
		<path fill="none" stroke="#FFFFFF" d="M44.275,26.746v10.905"/>
		<path fill="#1F2432" d="M326.71,158.537c20.542,0,37.196-16.652,37.196-37.197c0-20.541-16.654-37.195-37.196-37.195
			c-20.542,0-37.196,16.654-37.196,37.195C289.514,141.885,306.168,158.537,326.71,158.537z"/>
		<path fill="#00DCE6" fill-opacity="0.2" d="M363.906,129.795c4.65,0,8.454-3.803,8.454-8.453c0-4.648-3.804-8.453-8.454-8.453
			c-4.648,0-8.453,3.805-8.453,8.453C355.453,125.992,359.258,129.795,363.906,129.795z"/>
		<path fill="#00DCE6" d="M363.906,124.723c1.86,0,3.382-1.521,3.382-3.383c0-1.857-1.521-3.381-3.382-3.381
			c-1.858,0-3.381,1.523-3.381,3.381C360.525,123.201,362.048,124.723,363.906,124.723z"/>
		<path fill="#1F2432" d="M469.576,158.537c20.543,0,37.196-16.652,37.196-37.197c0-20.541-16.653-37.195-37.196-37.195
			c-20.542,0-37.196,16.654-37.196,37.195C432.38,141.885,449.034,158.537,469.576,158.537z"/>
		<path fill="#00DCE6" fill-opacity="0.2" d="M506.773,129.795c4.649,0,8.453-3.803,8.453-8.453c0-4.648-3.804-8.453-8.453-8.453
			c-4.65,0-8.454,3.805-8.454,8.453C498.319,125.992,502.123,129.795,506.773,129.795z"/>
		<path fill="#00DCE6" d="M506.773,124.723c1.859,0,3.381-1.521,3.381-3.383c0-1.857-1.521-3.381-3.381-3.381
			c-1.86,0-3.382,1.523-3.382,3.381C503.392,123.201,504.913,124.723,506.773,124.723z"/>
		<path fill="#1F2432" d="M609.906,158.537c20.543,0,37.196-16.652,37.196-37.197c0-20.541-16.653-37.195-37.196-37.195
			c-20.542,0-37.195,16.654-37.195,37.195C572.711,141.885,589.364,158.537,609.906,158.537z"/>
		<path fill="#00DCE6" fill-opacity="0.2" d="M647.104,129.795c4.648,0,8.453-3.803,8.453-8.453c0-4.648-3.805-8.453-8.453-8.453
			c-4.65,0-8.454,3.805-8.454,8.453C638.649,125.992,642.453,129.795,647.104,129.795z"/>
		<path fill="#00DCE6" d="M647.104,124.723c1.86,0,3.381-1.521,3.381-3.383c0-1.857-1.521-3.381-3.381-3.381
			s-3.382,1.523-3.382,3.381C643.722,123.201,645.243,124.723,647.104,124.723z"/>
		<path fill="#1F2432" d="M753.618,158.537c20.543,0,37.196-16.652,37.196-37.197c0-20.541-16.653-37.195-37.196-37.195
			c-20.542,0-37.195,16.654-37.195,37.195C716.423,141.885,733.076,158.537,753.618,158.537z"/>
		<path fill="#00DCE6" fill-opacity="0.2" d="M790.814,129.795c4.649,0,8.453-3.803,8.453-8.453c0-4.648-3.804-8.453-8.453-8.453
			c-4.65,0-8.454,3.805-8.454,8.453C782.36,125.992,786.164,129.795,790.814,129.795z"/>
		<path fill="#00DCE6" d="M790.814,124.723c1.858,0,3.381-1.521,3.381-3.383c0-1.857-1.522-3.381-3.381-3.381
			c-1.86,0-3.382,1.523-3.382,3.381C787.433,123.201,788.954,124.723,790.814,124.723z"/>
		<path fill="#1F2432" d="M895.64,158.537c20.542,0,37.195-16.652,37.195-37.197c0-20.541-16.653-37.195-37.195-37.195
			s-37.196,16.654-37.196,37.195C858.443,141.885,875.098,158.537,895.64,158.537z"/>
		<path fill="none" stroke="#00DCE6" stroke-width="2" d="M139.885,129.795l8.454-8.453l-8.454-8.453"/>
		<path fill="none" stroke="#00DCE6" stroke-width="2" stroke-miterlimit="16" d="M80.71,121.342c16.484,0,51.145,0,67.629,0"/>
		<path fill="none" stroke="#00DCE6" stroke-width="2" d="M281.062,129.795l8.454-8.453l-8.454-8.453"/>
		<path fill="none" stroke="#00DCE6" stroke-width="2" stroke-miterlimit="16" d="M221.885,121.342c16.485,0,51.145,0,67.629,0"/>
		<path fill="none" stroke="#00DCE6" stroke-width="2" d="M423.927,129.795l8.453-8.453l-8.453-8.453"/>
		<path fill="none" stroke="#00DCE6" stroke-width="2" stroke-miterlimit="16" d="M364.752,121.342c16.484,0,51.145,0,67.63,0"/>
		<path fill="none" stroke="#00DCE6" stroke-width="2" d="M565.103,129.795l8.454-8.453l-8.454-8.453"/>
		<path fill="none" stroke="#00DCE6" stroke-width="2" stroke-miterlimit="16" d="M505.928,121.342c16.484,0,51.145,0,67.629,0"/>
		<path fill="none" stroke="#00DCE6" stroke-width="2" d="M707.969,129.795l8.454-8.453l-8.454-8.453"/>
		<path fill="none" stroke="#00DCE6" stroke-width="2" stroke-miterlimit="16" d="M648.794,121.342c16.484,0,51.145,0,67.629,0"/>
		<path fill="none" stroke="#00DCE6" stroke-width="2" d="M849.989,129.795l8.454-8.453l-8.454-8.453"/>
		<path fill="none" stroke="#00DCE6" stroke-width="2" stroke-miterlimit="16" d="M790.814,121.342c16.485,0,51.145,0,67.629,0"/>
		<path fill="none" stroke="#00DCE6" d="M31.257,109.59v12.344h-8.2V109.59"/>
		<path fill="none" stroke="#00DCE6" d="M47.572,109.59v12.344h-8.2V109.59"/>
		<path fill="none" stroke="#00DCE6" d="M63.973,109.59v12.344h-8.2V109.59"/>
		<path fill="none" stroke="#00DCE6" d="M66.677,121.85H20.352v15.891h46.326V121.85z"/>
		<path fill="none" stroke="#00DCE6" d="M52.137,104.604H34.977v4.732h17.246v-4.732H52.137z"/>
		<path fill="none" stroke="#00DCE6" d="M43.515,101.307v3.297"/>
		<path fill="none" stroke="#00DCE6" d="M51.207,125.822H35.821v11.834h15.47v-11.834H51.207z"/>
		<path fill="none" stroke="#00DCE6" d="M51.208,125.822h-7.693v11.92h7.693V125.822z"/>
		<path fill="none" stroke="#00DCE6" d="M63.972,109.338H23.057v3.043h41v-3.043H63.972z"/>
		<path fill="none" stroke="#00DCE6" d="M45.966,130.303v3.551"/>
		<path fill="none" stroke="#00DCE6" d="M41.316,130.303v3.551"/>
		<path fill="none" stroke="#00DCE6" d="M27.875,125.822h-4.058v8.791h4.058V125.822z"/>
		<path fill="none" stroke="#00DCE6" d="M62.873,125.822h-4.058v8.791h4.058V125.822z"/>
		<path fill="none" stroke="#00DCE6" d="M36.836,106.971h12.681"/>
		<path fill="none" stroke="#00DCE6" d="M200.16,138.08h-29.418c-3.466,0-6.256-2.791-6.256-6.256c0-3.467,2.79-6.256,6.256-6.256
			h29.418c3.466,0,6.256,2.789,6.256,6.256C206.417,135.289,203.626,138.08,200.16,138.08z"/>
		<path fill="none" stroke="#00DCE6" d="M171.249,135.373c1.961,0,3.551-1.588,3.551-3.549s-1.59-3.551-3.551-3.551
			c-1.96,0-3.55,1.59-3.55,3.551S169.289,135.373,171.249,135.373z"/>
		<path fill="none" stroke="#00DCE6" d="M180.717,135.373c1.961,0,3.551-1.588,3.551-3.549s-1.59-3.551-3.551-3.551
			s-3.55,1.59-3.55,3.551S178.756,135.373,180.717,135.373z"/>
		<path fill="none" stroke="#00DCE6" d="M190.186,135.373c1.961,0,3.55-1.588,3.55-3.549s-1.589-3.551-3.55-3.551
			s-3.551,1.59-3.551,3.551S188.225,135.373,190.186,135.373z"/>
		<path fill="none" stroke="#00DCE6" d="M199.653,135.373c1.961,0,3.55-1.588,3.55-3.549s-1.589-3.551-3.55-3.551
			s-3.551,1.59-3.551,3.551S197.692,135.373,199.653,135.373z"/>
		<path fill="none" stroke="#00DCE6" d="M172.771,125.568v-20.965h25.446v20.965"/>
		<path fill="none" stroke="#00DCE6" d="M178.265,115.086v2.367h8.877v3.213l5.579-5.58l-5.579-5.58v3.213h-8.877V115.086z"/>
		<path fill="none" stroke="#00DCE6" stroke-miterlimit="10" d="M341.167,131.316c1.82,0,3.297-1.477,3.297-3.297
			s-1.477-3.295-3.297-3.295s-3.297,1.475-3.297,3.295S339.347,131.316,341.167,131.316z"/>
		<path fill="none" stroke="#00DCE6" stroke-linecap="round" stroke-miterlimit="10" d="M341.675,113.564
			c2.334,0,4.227-1.893,4.227-4.227s-1.893-4.227-4.227-4.227c-2.336,0-4.228,1.893-4.228,4.227S339.339,113.564,341.675,113.564z"
			/>
		<path fill="none" stroke="#00DCE6" stroke-miterlimit="10" d="M315.807,141.461c2.334,0,4.226-1.893,4.226-4.227
			s-1.892-4.227-4.226-4.227c-2.335,0-4.228,1.893-4.228,4.227S313.472,141.461,315.807,141.461z"/>
		<path fill="none" stroke="#00DCE6" stroke-miterlimit="10" d="M324.514,105.955c1.541,0,2.79-1.248,2.79-2.789
			s-1.249-2.789-2.79-2.789s-2.79,1.248-2.79,2.789S322.973,105.955,324.514,105.955z"/>
		<path fill="none" stroke="#00DCE6" stroke-miterlimit="10" d="M324.767,106.125l0.677,5.24"/>
		<path fill="none" stroke="#00DCE6" stroke-linecap="round" stroke-miterlimit="10" d="M329.416,138.586
			c1.121,0,2.029-0.906,2.029-2.027s-0.908-2.029-2.029-2.029c-1.12,0-2.028,0.908-2.028,2.029S328.296,138.586,329.416,138.586z"/>
		<path fill="none" stroke="#00DCE6" stroke-linecap="round" stroke-miterlimit="10" d="M329.162,134.275l-0.845-3.635"/>
		<path fill="none" stroke="#00DCE6" stroke-linecap="round" stroke-miterlimit="10" d="M338.377,112.381l-3.804,3.381"/>
		<path fill="none" stroke="#00DCE6" stroke-miterlimit="10" d="M335.418,125.061l2.62,1.354"/>
		<path fill="none" stroke="#00DCE6" stroke-linecap="round" stroke-miterlimit="10" d="M309.804,123.031
			c1.82,0,3.297-1.475,3.297-3.297c0-1.82-1.477-3.297-3.297-3.297s-3.297,1.477-3.297,3.297
			C306.507,121.557,307.983,123.031,309.804,123.031z"/>
		<path fill="none" stroke="#00DCE6" stroke-linecap="round" stroke-miterlimit="10" d="M316.229,120.328l-2.959-0.254"/>
		<path fill="none" stroke="#00DCE6" stroke-linecap="round" stroke-miterlimit="10" d="M326.457,130.641
			c5.323,0,9.638-4.314,9.638-9.639c0-5.32-4.314-9.637-9.638-9.637c-5.321,0-9.637,4.316-9.637,9.637
			C316.82,126.326,321.136,130.641,326.457,130.641z"/>
		<path fill="none" stroke="#00DCE6" stroke-miterlimit="10" d="M321.217,129.287l-2.959,4.566"/>
		<path fill="none" stroke="#00DCE6" stroke-miterlimit="10" d="M324.513,123.623v1.438h-0.338l-1.1,1.1l-1.859,0.844
			c-0.508,0.17-1.015,0.424-1.353,0.762"/>
		<path fill="none" stroke="#00DCE6" stroke-miterlimit="10" d="M330.431,117.369v0.76l0.761,0.34v1.436
			c0,0.254-0.085,0.508-0.338,0.592l-0.423,0.508c0,0,0,0.592,0,0.76c0,1.438-1.86,2.029-2.198,2.197
			c-0.338,0.17-0.845,0.34-1.438,0.34c-0.592,0-1.184-0.17-1.437-0.34c-0.338-0.168-2.198-0.76-2.198-2.197c0-0.168,0-0.76,0-0.76
			l-0.423-0.508c-0.169-0.17-0.338-0.338-0.338-0.592v-1.436l0.761-0.34v-0.76c0-1.859,1.522-3.297,3.297-3.297h0.762
			C328.908,113.986,330.431,115.51,330.431,117.369z"/>
		<path fill="none" stroke="#00DCE6" stroke-miterlimit="10" d="M324.513,125.061l2.197,1.859"/>
		<path fill="none" stroke="#00DCE6" stroke-miterlimit="10" d="M326.71,126.92l-1.859,1.438l-1.775-2.197"/>
		<path fill="none" stroke="#00DCE6" stroke-miterlimit="10" d="M328.908,123.623v1.438h0.338l1.1,1.1l1.859,0.844
			c0.422,0.086,0.846,0.34,1.184,0.594"/>
		<path fill="none" stroke="#00DCE6" stroke-miterlimit="10" d="M328.909,125.061l-2.198,1.859"/>
		<path fill="none" stroke="#00DCE6" stroke-miterlimit="10" d="M326.711,126.92l1.859,1.438l1.86-2.197"/>
		<path fill="none" stroke="#00DCE6" stroke-miterlimit="10" d="M482.258,111.365h-6.425v10.906h12.766v-1.438L482.258,111.365z"/>
		<path fill="none" stroke="#00DCE6" stroke-miterlimit="10" d="M479.384,130.557c0,2.111,1.69,3.803,3.805,3.803
			c2.113,0,3.804-1.691,3.804-3.803c0-2.113-1.69-3.805-3.804-3.805C481.074,126.752,479.384,128.443,479.384,130.557z"/>
		<path fill="none" stroke="#00DCE6" stroke-miterlimit="10" d="M480.905,130.557c0,1.184,1.014,2.197,2.198,2.197
			c1.183,0,2.198-1.014,2.198-2.197s-1.016-2.199-2.198-2.199C481.919,128.357,480.905,129.373,480.905,130.557z"/>
		<path fill="none" stroke="#00DCE6" stroke-miterlimit="10" d="M452.416,130.471c0,2.113,1.69,3.805,3.72,3.889
			c2.113,0,3.804-1.691,3.889-3.719c0-2.113-1.691-3.805-3.72-3.889C454.106,126.752,452.416,128.357,452.416,130.471z"/>
		<path fill="none" stroke="#00DCE6" stroke-miterlimit="10" d="M474.143,109.506h9.299l7.777,11.328v8.707h-4.312
			c-0.423-1.605-1.945-2.705-3.635-2.705c-1.691,0-3.128,1.184-3.635,2.705h-5.411H459.94c-0.423-1.605-1.86-2.705-3.551-2.705
			c-1.691,0-3.212,1.184-3.636,2.705h-4.564V109.59L474.143,109.506z"/>
		<path fill="none" stroke="#00DCE6" stroke-miterlimit="10" d="M454.022,130.557c0,1.182,0.93,2.197,2.113,2.197
			s2.197-0.93,2.197-2.113s-0.929-2.199-2.112-2.199C455.037,128.357,454.022,129.371,454.022,130.557z"/>
		<path fill="none" stroke="#00DCE6" stroke-miterlimit="10" d="M471.605,113.059h-19.189"/>
		<path fill="none" stroke="#00DCE6" stroke-miterlimit="10" d="M471.605,116.691h-19.189"/>
		<path fill="none" stroke="#00DCE6" stroke-miterlimit="10" d="M471.605,120.242h-19.189"/>
		<path fill="none" stroke="#00DCE6" stroke-miterlimit="10" d="M766.553,137.572h-33.646v-20.373h7.524"/>
		<path fill="none" stroke="#00DCE6" stroke-miterlimit="10" d="M766.13,117.199h7.523v20.373h-7.523"/>
		<path fill="none" stroke="#00DCE6" stroke-miterlimit="10" d="M760.128,136.053V120.92"/>
		<path fill="none" stroke="#00DCE6" stroke-miterlimit="10" d="M746.518,136.053V120.92"/>
		<path fill="none" stroke="#00DCE6" stroke-miterlimit="10" d="M753.28,121.004v12.85"/>
		<path fill="none" stroke="#00DCE6" stroke-miterlimit="10" d="M733.161,133.178h7.608"/>
		<path fill="none" stroke="#00DCE6" stroke-miterlimit="10" d="M765.877,133.178h7.692"/>
		<path fill="none" stroke="#00DCE6" stroke-miterlimit="10" d="M733.076,117.199h-2.451v-7.521h8.284"/>
		<path fill="none" stroke="#00DCE6" stroke-miterlimit="10" d="M767.651,109.592h8.285v7.523h-2.367"/>
		<path fill="none" stroke="#00DCE6" stroke-miterlimit="10" d="M740.854,133.178h6.087"/>
		<path fill="none" stroke="#00DCE6" stroke-miterlimit="10" d="M760.128,133.178h5.748"/>
		<path fill="none" stroke="#00DCE6" stroke-miterlimit="10" d="M761.564,136.053h-16.653v1.52h16.653V136.053z"/>
		<path fill="none" stroke="#00DCE6" stroke-miterlimit="10" d="M760.128,134.613h-13.61v1.523h13.61V134.613z"/>
		<path fill="none" stroke="#00DCE6" stroke-miterlimit="10" d="M751.675,127.852v3.297"/>
		<path fill="none" stroke="#00DCE6" stroke-miterlimit="10" d="M755.31,127.852v3.297"/>
		<path fill="none" stroke="#00DCE6" stroke-miterlimit="10" d="M767.651,105.111h-28.742v12.088h28.742V105.111z"/>
		<path fill="none" stroke="#00DCE6" stroke-miterlimit="10" d="M761.565,117.199h-15.893v3.805h15.893V117.199z"/>
		<path fill="none" stroke="#00DCE6" stroke-miterlimit="10" d="M746.518,109.592c0,2.113-1.691,3.805-3.804,3.805
			c-2.113,0-3.805-1.691-3.805-3.805"/>
		<path fill="none" stroke="#00DCE6" stroke-miterlimit="10" d="M753.28,109.592c0,2.113-1.521,3.805-3.381,3.805
			c-1.86,0-3.382-1.691-3.382-3.805"/>
		<path fill="none" stroke="#00DCE6" stroke-miterlimit="10" d="M760.128,109.592c0,2.113-1.521,3.805-3.382,3.805
			c-1.858,0-3.381-1.691-3.381-3.805"/>
		<path fill="none" stroke="#00DCE6" stroke-miterlimit="10" d="M767.652,109.592c0,2.113-1.691,3.805-3.804,3.805
			c-2.114,0-3.805-1.691-3.805-3.805"/>
		<path fill="none" stroke="#00DCE6" stroke-miterlimit="10" d="M606.019,121.596v2.619h-0.676l-1.944,1.945l-3.297,1.521
			c-1.776,0.424-3.213,1.775-3.213,3.045v7.775"/>
		<path fill="none" stroke="#00DCE6" stroke-miterlimit="10" d="M606.019,124.217l3.889,3.213"/>
		<path fill="none" stroke="#00DCE6" stroke-miterlimit="10" d="M609.907,127.428l-3.212,2.621l-3.297-3.889"/>
		<path fill="none" stroke="#00DCE6" stroke-miterlimit="10" d="M613.796,121.596v2.619h0.677l1.943,1.945l3.298,1.521
			c1.774,0.424,3.212,1.775,3.212,3.045v7.775"/>
		<path fill="none" stroke="#00DCE6" stroke-miterlimit="10" d="M613.796,124.217l-3.889,3.213"/>
		<path fill="none" stroke="#00DCE6" stroke-miterlimit="10" d="M609.907,127.428l3.212,2.621l3.297-3.889"/>
		<path fill="none" stroke="#00DCE6" stroke-miterlimit="10" d="M611.852,128.781l-0.676,3.213h-2.536l-0.676-3.213"/>
		<path fill="none" stroke="#00DCE6" stroke-miterlimit="10" d="M611.852,137.826l-0.676-5.832h-2.536l-0.676,5.832"/>
		<path fill="none" stroke="#00DCE6" stroke-miterlimit="10" d="M617.516,113.395V109c0-3.975-1.1-4.734-5.326-4.734h-10.651v2.959
			c0,1.352,1.1,2.959,3.551,2.959s7.186,0,8.284,0c1.775,0,2.367,1.605,2.367,2.959c0,0.168,0,0.084,0,0.592h1.775v2.281
			c0,0.424-0.169,0.762-0.507,1.016l-1.269,0.844c0,0,0,0.678,0,0.932c0,2.281-3.043,3.297-3.551,3.549
			c-0.507,0.254-1.438,0.592-2.367,0.592s-1.86-0.338-2.367-0.592c-0.507-0.252-3.55-1.268-3.55-3.549c0-0.254,0-0.932,0-0.932
			l-1.268-0.844c-0.338-0.254-0.508-0.592-0.508-1.016v-2.281h1.775c0-0.424,0-0.846,0-1.186c0-1.014,0.422-1.773,1.184-2.365"/>
		<path fill="none" stroke="#00DCE6" stroke-miterlimit="10" d="M602.13,108.914c-0.254,0.254-0.592,0.676-0.592,1.775
			c0,0.424,0,1.016,0,1.184c0,1.016,0.676,1.607,1.184,1.775"/>
		<path fill="none" stroke="#00DCE6" stroke-linejoin="round" stroke-miterlimit="10" d="M892.428,139.518v-21.049l4.817,4.818
			c0.847,0.844,2.283,1.184,3.044,0.422l0.931-0.93c0,0-2.959-4.564-3.975-6.002c-1.099-1.438-3.043-4.818-6.424-4.818h-5.495
			c-2.283,0-5.071,2.367-5.071,5.41v5.748c0,1.607,1.943,3.381,3.55,3.381"/>
		<path fill="none" stroke="#00DCE6" stroke-linejoin="round" stroke-miterlimit="10" d="M883.551,117.707v21.811"/>
		<path fill="none" stroke="#00DCE6" stroke-linejoin="round" stroke-miterlimit="10" d="M888.369,126.582v12.936"/>
		<path fill="none" stroke="#00DCE6" stroke-linejoin="round" stroke-miterlimit="10" d="M888.369,109.59
			c1.86,0,3.213-1.352,3.213-3.211v-1.605c0-1.945-1.353-3.213-3.213-3.213c-1.859,0-3.212,1.352-3.212,3.213v1.605
			C885.157,108.238,886.51,109.59,888.369,109.59z"/>
		<path fill="none" stroke="#00DCE6" stroke-linejoin="round" stroke-miterlimit="10" d="M894.033,138.672h16.992v-12.09h-16.992"/>
		<path fill="none" stroke="#00DCE6" stroke-linejoin="round" stroke-miterlimit="10" d="M898.89,129.768h5.663v-3.213h-5.663
			V129.768z"/>
		<path fill="none" stroke="#00DCE6" stroke-linejoin="round" stroke-miterlimit="10" d="M908.574,135.459h-1.606"/>
		<path fill="none" stroke="#00DCE6" stroke-linejoin="round" stroke-miterlimit="10" d="M906.121,135.459h-1.605"/>
		<text transform="matrix(1 0 0 1 24.5 177)" font-family="'MicrosoftYaHeiLight'" font-size="13">供货商</text>
		<text transform="matrix(1 0 0 1 166.5 177)" font-family="'MicrosoftYaHeiLight'" font-size="13">制造商</text>
		<text transform="matrix(1 0 0 1 309.5 177)" font-family="'MicrosoftYaHeiLight'" font-size="13">配送方</text>
		<text transform="matrix(1 0 0 1 438.5 177)" font-family="'MicrosoftYaHeiLight'" font-size="13">第三方物流</text>
		<text transform="matrix(1 0 0 1 591.5 177)" font-family="'MicrosoftYaHeiLight'" font-size="13">零售商</text>
		<text transform="matrix(1 0 0 1 740.5 177)" font-family="'MicrosoftYaHeiLight'" font-size="13">商店</text>
		<text transform="matrix(1 0 0 1 884.5 177)" font-family="'MicrosoftYaHeiLight'" font-size="13">顾客</text>
		<rect x="347.5" y="-97" fill="none" width="8" height="80"/>
	</g>
</g>
</svg>
