<svg width="940" height="183" viewBox="0 0 940 183" fill="none" xmlns="http://www.w3.org/2000/svg">
<g clip-path="url(#clip0)">
<path d="M25.3609 0H913.836C927.869 0 939.197 11.3279 939.197 25.3609C939.197 39.3939 927.869 50.7217 913.836 50.7217H25.3609C11.3279 50.7217 0 39.3939 0 25.3609C0 11.3279 11.3279 0 25.3609 0Z" fill="#00DCE6" fill-opacity="0.1"/>
<path d="M43.1129 158.082C63.6552 158.082 80.3089 141.429 80.3089 120.886C80.3089 100.344 63.6552 83.6904 43.1129 83.6904C22.5706 83.6904 5.91699 100.344 5.91699 120.886C5.91699 141.429 22.5706 158.082 43.1129 158.082Z" fill="#1F2432"/>
<path d="M80.3091 129.341C84.9586 129.341 88.7627 125.537 88.7627 120.887C88.7627 116.238 84.9586 112.434 80.3091 112.434C75.6596 112.434 71.8555 116.238 71.8555 120.887C71.8555 125.537 75.6596 129.341 80.3091 129.341Z" fill="#00DCE6" fill-opacity="0.2"/>
<path d="M80.3092 124.268C82.169 124.268 83.6906 122.746 83.6906 120.886C83.6906 119.027 82.169 117.505 80.3092 117.505C78.4494 117.505 76.9277 119.027 76.9277 120.886C76.9277 122.746 78.4494 124.268 80.3092 124.268Z" fill="#00DCE6"/>
<path d="M185.133 158.082C205.676 158.082 222.329 141.429 222.329 120.886C222.329 100.344 205.676 83.6904 185.133 83.6904C164.591 83.6904 147.938 100.344 147.938 120.886C147.938 141.429 164.591 158.082 185.133 158.082Z" fill="#1F2432"/>
<path d="M222.33 129.341C226.979 129.341 230.783 125.537 230.783 120.887C230.783 116.238 226.979 112.434 222.33 112.434C217.68 112.434 213.876 116.238 213.876 120.887C213.876 125.537 217.68 129.341 222.33 129.341Z" fill="#00DCE6" fill-opacity="0.2"/>
<path d="M222.33 124.268C224.189 124.268 225.711 122.746 225.711 120.886C225.711 119.027 224.189 117.505 222.33 117.505C220.47 117.505 218.948 119.027 218.948 120.886C218.948 122.746 220.47 124.268 222.33 124.268Z" fill="#00DCE6"/>
<path d="M327.154 71.8557V28.7422" stroke="#00DCE6" stroke-miterlimit="16" stroke-dasharray="1 1"/>
<path d="M184.288 71.8557V28.7422" stroke="#00DCE6" stroke-miterlimit="16" stroke-dasharray="1 1"/>
<path d="M470.021 71.8557V28.7422" stroke="#00DCE6" stroke-miterlimit="16" stroke-dasharray="1 1"/>
<path d="M609.506 71.8557V28.7422" stroke="#00DCE6" stroke-miterlimit="16" stroke-dasharray="1 1"/>
<path d="M753.217 71.8557V28.7422" stroke="#00DCE6" stroke-miterlimit="16" stroke-dasharray="1 1"/>
<path d="M895.238 71.8557V28.7422" stroke="#00DCE6" stroke-miterlimit="16" stroke-dasharray="1 1"/>
<path d="M184.289 68.4746C186.148 68.4746 187.67 69.9963 187.67 71.8561C187.67 73.7159 186.148 75.2375 184.289 75.2375C182.429 75.2375 180.907 73.7159 180.907 71.8561C180.907 69.9963 182.429 68.4746 184.289 68.4746Z" fill="#00DCE6"/>
<path d="M327.155 68.4746C329.015 68.4746 330.536 69.9963 330.536 71.8561C330.536 73.7159 329.015 75.2375 327.155 75.2375C325.295 75.2375 323.773 73.7159 323.773 71.8561C323.773 69.9963 325.295 68.4746 327.155 68.4746Z" fill="#00DCE6"/>
<path d="M470.021 68.4746C471.881 68.4746 473.403 69.9963 473.403 71.8561C473.403 73.7159 471.881 75.2375 470.021 75.2375C468.161 75.2375 466.64 73.7159 466.64 71.8561C466.64 69.9963 468.161 68.4746 470.021 68.4746Z" fill="#00DCE6"/>
<path d="M609.505 68.4746C611.365 68.4746 612.887 69.9963 612.887 71.8561C612.887 73.7159 611.365 75.2375 609.505 75.2375C607.646 75.2375 606.124 73.7159 606.124 71.8561C606.124 69.9963 607.646 68.4746 609.505 68.4746Z" fill="#00DCE6"/>
<path d="M753.217 68.4746C755.077 68.4746 756.599 69.9963 756.599 71.8561C756.599 73.7159 755.077 75.2375 753.217 75.2375C751.358 75.2375 749.836 73.7159 749.836 71.8561C749.836 69.9963 751.358 68.4746 753.217 68.4746Z" fill="#00DCE6"/>
<path d="M895.238 68.4746C897.098 68.4746 898.619 69.9963 898.619 71.8561C898.619 73.7159 897.098 75.2375 895.238 75.2375C893.378 75.2375 891.856 73.7159 891.856 71.8561C891.856 69.9963 893.378 68.4746 895.238 68.4746Z" fill="#00DCE6"/>
<path d="M326.309 50.7217C340.342 50.7217 351.67 39.3939 351.67 25.3609C351.67 11.3279 340.342 0 326.309 0C312.276 0 300.948 11.3279 300.948 25.3609C300.948 39.3939 312.276 50.7217 326.309 50.7217Z" fill="#00DCE6" fill-opacity="0.2"/>
<path d="M326.309 43.9586C336.538 43.9586 344.907 35.6741 344.907 25.3607C344.907 15.0472 336.538 6.7627 326.309 6.7627C316.08 6.7627 307.711 15.0472 307.711 25.3607C307.711 35.6741 316.08 43.9586 326.309 43.9586Z" fill="#00DCE6"/>
<path d="M316.165 30.7708V19.8656L325.971 13.5254L335.777 19.8656V30.7708" stroke="white"/>
<path d="M316.165 30.7709L325.971 37.1956L335.777 30.7709L325.971 24.4307L316.165 30.7709Z" stroke="white" stroke-linejoin="round"/>
<path d="M335.777 19.7812L325.971 26.206L316.165 19.7812" stroke="white"/>
<path d="M325.971 13.5254V24.4306" stroke="white"/>
<path d="M325.971 26.291V37.1962" stroke="white"/>
<path d="M469.175 50.7217C483.208 50.7217 494.536 39.3939 494.536 25.3609C494.536 11.3279 483.208 0 469.175 0C455.142 0 443.814 11.3279 443.814 25.3609C443.814 39.3939 455.142 50.7217 469.175 50.7217Z" fill="#00DCE6" fill-opacity="0.2"/>
<path d="M469.175 43.9586C479.404 43.9586 487.773 35.6741 487.773 25.3607C487.773 15.0472 479.404 6.7627 469.175 6.7627C458.862 6.7627 450.577 15.0472 450.577 25.3607C450.577 35.6741 458.946 43.9586 469.175 43.9586Z" fill="#00DCE6"/>
<path d="M459.031 30.7708V19.8656L468.837 13.5254L478.644 19.8656V30.7708" stroke="white"/>
<path d="M459.031 30.7709L468.837 37.1956L478.644 30.7709L468.837 24.4307L459.031 30.7709Z" stroke="white" stroke-linejoin="round"/>
<path d="M478.644 19.7812L468.837 26.206L459.031 19.7812" stroke="white"/>
<path d="M468.837 13.5254V24.4306" stroke="white"/>
<path d="M468.837 26.291V37.1962" stroke="white"/>
<path d="M609.505 50.7217C623.538 50.7217 634.866 39.3939 634.866 25.3609C634.866 11.3279 623.538 0 609.505 0C595.472 0 584.145 11.3279 584.145 25.3609C584.145 39.3939 595.472 50.7217 609.505 50.7217Z" fill="#00DCE6" fill-opacity="0.2"/>
<path d="M609.505 43.9586C619.819 43.9586 628.103 35.6741 628.103 25.3607C628.103 15.0472 619.819 6.7627 609.505 6.7627C599.192 6.7627 590.907 15.0472 590.907 25.3607C590.907 35.6741 599.276 43.9586 609.505 43.9586Z" fill="#00DCE6"/>
<path d="M599.361 30.7708V19.8656L609.168 13.5254L618.974 19.8656V30.7708" stroke="white"/>
<path d="M599.361 30.7709L609.168 37.1956L618.974 30.7709L609.168 24.4307L599.361 30.7709Z" stroke="white" stroke-linejoin="round"/>
<path d="M618.974 19.7812L609.168 26.206L599.361 19.7812" stroke="white"/>
<path d="M609.167 13.5254V24.4306" stroke="white"/>
<path d="M609.167 26.291V37.1962" stroke="white"/>
<path d="M753.217 50.7217C767.25 50.7217 778.578 39.3939 778.578 25.3609C778.578 11.3279 767.25 0 753.217 0C739.184 0 727.856 11.3279 727.856 25.3609C727.856 39.3939 739.184 50.7217 753.217 50.7217Z" fill="#00DCE6" fill-opacity="0.2"/>
<path d="M753.217 43.9586C763.531 43.9586 771.815 35.6741 771.815 25.3607C771.815 15.0472 763.531 6.7627 753.217 6.7627C742.904 6.7627 734.619 15.0472 734.619 25.3607C734.619 35.6741 742.988 43.9586 753.217 43.9586Z" fill="#00DCE6"/>
<path d="M743.072 30.7708V19.8656L752.878 13.5254L762.685 19.8656V30.7708" stroke="white"/>
<path d="M743.072 30.7709L752.878 37.1956L762.685 30.7709L752.878 24.4307L743.072 30.7709Z" stroke="white" stroke-linejoin="round"/>
<path d="M762.685 19.7812L752.878 26.206L743.072 19.7812" stroke="white"/>
<path d="M752.879 13.5254V24.4306" stroke="white"/>
<path d="M752.879 26.291V37.1962" stroke="white"/>
<path d="M895.238 50.7217C909.271 50.7217 920.599 39.3939 920.599 25.3609C920.599 11.3279 909.271 0 895.238 0C881.205 0 869.877 11.3279 869.877 25.3609C869.877 39.3939 881.205 50.7217 895.238 50.7217Z" fill="#00DCE6" fill-opacity="0.2"/>
<path d="M895.238 43.9586C905.551 43.9586 913.836 35.6741 913.836 25.3607C913.836 15.0472 905.551 6.7627 895.238 6.7627C884.924 6.7627 876.64 15.0472 876.64 25.3607C876.64 35.6741 885.009 43.9586 895.238 43.9586Z" fill="#00DCE6"/>
<path d="M885.094 30.7708V19.8656L894.9 13.5254L904.706 19.8656V30.7708" stroke="white"/>
<path d="M885.094 30.7709L894.9 37.1956L904.706 30.7709L894.9 24.4307L885.094 30.7709Z" stroke="white" stroke-linejoin="round"/>
<path d="M904.706 19.7812L894.9 26.1215L885.094 19.7812" stroke="white"/>
<path d="M894.899 13.5254V24.4306" stroke="white"/>
<path d="M894.899 26.291V37.1962" stroke="white"/>
<path d="M184.289 50.7217C198.322 50.7217 209.649 39.3939 209.649 25.3609C209.649 11.3279 198.322 0 184.289 0C170.256 0 158.928 11.3279 158.928 25.3609C158.928 39.3939 170.256 50.7217 184.289 50.7217Z" fill="#00DCE6" fill-opacity="0.2"/>
<path d="M184.288 43.9586C194.517 43.9586 202.886 35.6741 202.886 25.3607C202.886 15.0472 194.517 6.7627 184.288 6.7627C174.06 6.7627 165.69 15.0472 165.69 25.3607C165.69 35.6741 174.06 43.9586 184.288 43.9586Z" fill="#00DCE6"/>
<path d="M174.144 30.7708V19.8656L183.95 13.5254L193.756 19.8656V30.7708" stroke="white"/>
<path d="M174.144 30.7709L183.95 37.1956L193.756 30.7709L183.95 24.4307L174.144 30.7709Z" stroke="white" stroke-linejoin="round"/>
<path d="M193.756 19.7812L183.95 26.206L174.144 19.7812" stroke="white"/>
<path d="M183.95 13.5254V24.4306" stroke="white"/>
<path d="M183.95 26.291V37.1962" stroke="white"/>
<path d="M44.2119 71.8557V28.7422" stroke="#00DCE6" stroke-miterlimit="16" stroke-dasharray="1 1"/>
<path d="M44.2115 68.4746C46.0713 68.4746 47.593 69.9963 47.593 71.8561C47.593 73.7159 46.0713 75.2375 44.2115 75.2375C42.3517 75.2375 40.8301 73.7159 40.8301 71.8561C40.8301 69.9963 42.3517 68.4746 44.2115 68.4746Z" fill="#00DCE6"/>
<path d="M44.2115 50.7217C58.2445 50.7217 69.5723 39.3939 69.5723 25.3609C69.5723 11.3279 58.2445 0 44.2115 0C30.1784 0 18.8506 11.3279 18.8506 25.3609C18.8506 39.3939 30.263 50.7217 44.2115 50.7217Z" fill="#00DCE6" fill-opacity="0.2"/>
<path d="M44.2122 43.9586C54.4411 43.9586 62.8102 35.6741 62.8102 25.3607C62.8102 15.0472 54.4411 6.7627 44.2122 6.7627C33.9833 6.7627 25.6143 15.0472 25.6143 25.3607C25.6143 35.6741 33.9833 43.9586 44.2122 43.9586Z" fill="#00DCE6"/>
<path d="M34.0674 30.7708V19.8656L43.8736 13.5254L53.6798 19.8656V30.7708" stroke="white"/>
<path d="M34.0674 30.7709L43.8736 37.1956L53.6798 30.7709L43.8736 24.4307L34.0674 30.7709Z" stroke="white" stroke-linejoin="round"/>
<path d="M53.6798 19.7812L43.8736 26.206L34.0674 19.8658" stroke="white"/>
<path d="M43.874 13.5254V24.4306" stroke="white"/>
<path d="M43.874 26.291V37.1962" stroke="white"/>
<path d="M326.309 158.082C346.851 158.082 363.505 141.429 363.505 120.886C363.505 100.344 346.851 83.6904 326.309 83.6904C305.767 83.6904 289.113 100.344 289.113 120.886C289.113 141.429 305.767 158.082 326.309 158.082Z" fill="#1F2432"/>
<path d="M363.505 129.341C368.155 129.341 371.959 125.537 371.959 120.887C371.959 116.238 368.155 112.434 363.505 112.434C358.856 112.434 355.052 116.238 355.052 120.887C355.052 125.537 358.856 129.341 363.505 129.341Z" fill="#00DCE6" fill-opacity="0.2"/>
<path d="M363.505 124.268C365.365 124.268 366.887 122.746 366.887 120.886C366.887 119.027 365.365 117.505 363.505 117.505C361.646 117.505 360.124 119.027 360.124 120.886C360.124 122.746 361.646 124.268 363.505 124.268Z" fill="#00DCE6"/>
<path d="M469.175 158.082C489.718 158.082 506.371 141.429 506.371 120.886C506.371 100.344 489.718 83.6904 469.175 83.6904C448.633 83.6904 431.979 100.344 431.979 120.886C431.979 141.429 448.633 158.082 469.175 158.082Z" fill="#1F2432"/>
<path d="M506.372 129.341C511.021 129.341 514.825 125.537 514.825 120.887C514.825 116.238 511.021 112.434 506.372 112.434C501.722 112.434 497.918 116.238 497.918 120.887C497.918 125.537 501.722 129.341 506.372 129.341Z" fill="#00DCE6" fill-opacity="0.2"/>
<path d="M506.372 124.268C508.231 124.268 509.753 122.746 509.753 120.886C509.753 119.027 508.231 117.505 506.372 117.505C504.512 117.505 502.99 119.027 502.99 120.886C502.99 122.746 504.512 124.268 506.372 124.268Z" fill="#00DCE6"/>
<path d="M609.505 158.082C630.048 158.082 646.701 141.429 646.701 120.886C646.701 100.344 630.048 83.6904 609.505 83.6904C588.963 83.6904 572.31 100.344 572.31 120.886C572.31 141.429 588.963 158.082 609.505 158.082Z" fill="#1F2432"/>
<path d="M646.702 129.341C651.351 129.341 655.155 125.537 655.155 120.887C655.155 116.238 651.351 112.434 646.702 112.434C642.052 112.434 638.248 116.238 638.248 120.887C638.248 125.537 642.052 129.341 646.702 129.341Z" fill="#00DCE6" fill-opacity="0.2"/>
<path d="M646.702 124.268C648.562 124.268 650.083 122.746 650.083 120.886C650.083 119.027 648.562 117.505 646.702 117.505C644.842 117.505 643.32 119.027 643.32 120.886C643.32 122.746 644.842 124.268 646.702 124.268Z" fill="#00DCE6"/>
<path d="M753.217 158.082C773.76 158.082 790.413 141.429 790.413 120.886C790.413 100.344 773.76 83.6904 753.217 83.6904C732.675 83.6904 716.021 100.344 716.021 120.886C716.021 141.429 732.675 158.082 753.217 158.082Z" fill="#1F2432"/>
<path d="M790.413 129.341C795.062 129.341 798.866 125.537 798.866 120.887C798.866 116.238 795.062 112.434 790.413 112.434C785.763 112.434 781.959 116.238 781.959 120.887C781.959 125.537 785.763 129.341 790.413 129.341Z" fill="#00DCE6" fill-opacity="0.2"/>
<path d="M790.413 124.268C792.272 124.268 793.794 122.746 793.794 120.886C793.794 119.027 792.272 117.505 790.413 117.505C788.553 117.505 787.031 119.027 787.031 120.886C787.031 122.746 788.553 124.268 790.413 124.268Z" fill="#00DCE6"/>
<path d="M895.238 158.082C915.78 158.082 932.434 141.429 932.434 120.886C932.434 100.344 915.78 83.6904 895.238 83.6904C874.696 83.6904 858.042 100.344 858.042 120.886C858.042 141.429 874.696 158.082 895.238 158.082Z" fill="#1F2432"/>
<path d="M139.484 129.341L147.938 120.887L139.484 112.434" stroke="#00DCE6" stroke-width="2"/>
<path d="M80.3086 120.887C96.7932 120.887 131.453 120.887 147.938 120.887" stroke="#00DCE6" stroke-width="2" stroke-miterlimit="16"/>
<path d="M280.66 129.341L289.114 120.887L280.66 112.434" stroke="#00DCE6" stroke-width="2"/>
<path d="M221.484 120.887C237.969 120.887 272.629 120.887 289.113 120.887" stroke="#00DCE6" stroke-width="2" stroke-miterlimit="16"/>
<path d="M423.525 129.341L431.979 120.887L423.525 112.434" stroke="#00DCE6" stroke-width="2"/>
<path d="M364.351 120.887C380.835 120.887 415.495 120.887 431.98 120.887" stroke="#00DCE6" stroke-width="2" stroke-miterlimit="16"/>
<path d="M564.701 129.341L573.155 120.887L564.701 112.434" stroke="#00DCE6" stroke-width="2"/>
<path d="M505.526 120.887C522.011 120.887 556.671 120.887 573.155 120.887" stroke="#00DCE6" stroke-width="2" stroke-miterlimit="16"/>
<path d="M707.567 129.341L716.021 120.887L707.567 112.434" stroke="#00DCE6" stroke-width="2"/>
<path d="M648.393 120.887C664.877 120.887 699.537 120.887 716.022 120.887" stroke="#00DCE6" stroke-width="2" stroke-miterlimit="16"/>
<path d="M849.588 129.341L858.042 120.887L849.588 112.434" stroke="#00DCE6" stroke-width="2"/>
<path d="M790.413 120.887C806.898 120.887 841.558 120.887 858.042 120.887" stroke="#00DCE6" stroke-width="2" stroke-miterlimit="16"/>
<path d="M18.3799 175.247C17.1738 174.9 16.2949 174.475 15.7432 173.972C15.1963 173.464 14.9229 172.839 14.9229 172.097C14.9229 171.257 15.2573 170.564 15.9263 170.017C16.6001 169.465 17.4741 169.189 18.5483 169.189C19.2808 169.189 19.9326 169.331 20.5039 169.614C21.0801 169.897 21.5244 170.288 21.8369 170.786C22.1543 171.284 22.313 171.829 22.313 172.419H20.8994C20.8994 171.775 20.6943 171.27 20.2842 170.903C19.874 170.532 19.2954 170.347 18.5483 170.347C17.855 170.347 17.313 170.5 16.9224 170.808C16.5366 171.111 16.3438 171.533 16.3438 172.075C16.3438 172.51 16.5269 172.878 16.8931 173.181C17.2642 173.479 17.8916 173.752 18.7754 174.001C19.6641 174.25 20.3574 174.526 20.8555 174.829C21.3584 175.127 21.7295 175.476 21.9688 175.876C22.2129 176.277 22.335 176.748 22.335 177.29C22.335 178.154 21.998 178.848 21.3242 179.37C20.6504 179.888 19.7495 180.146 18.6216 180.146C17.8892 180.146 17.2056 180.007 16.5708 179.729C15.936 179.446 15.4453 179.06 15.0986 178.572C14.7568 178.083 14.5859 177.529 14.5859 176.909H15.9995C15.9995 177.554 16.2363 178.064 16.71 178.44C17.1885 178.811 17.8257 178.997 18.6216 178.997C19.3638 178.997 19.9326 178.845 20.3281 178.542C20.7236 178.24 20.9214 177.827 20.9214 177.305C20.9214 176.782 20.7383 176.379 20.3721 176.096C20.0059 175.808 19.3418 175.525 18.3799 175.247ZM28.8242 179.216C28.2969 179.836 27.5229 180.146 26.5024 180.146C25.6577 180.146 25.0132 179.902 24.5688 179.414C24.1294 178.921 23.9072 178.193 23.9023 177.231V172.075H25.2573V177.195C25.2573 178.396 25.7456 178.997 26.7222 178.997C27.7573 178.997 28.4458 178.611 28.7876 177.839V172.075H30.1426V180H28.8535L28.8242 179.216ZM38.9023 176.125C38.9023 177.332 38.6265 178.303 38.0747 179.041C37.5229 179.778 36.7759 180.146 35.8335 180.146C34.8716 180.146 34.1147 179.841 33.563 179.231V183.047H32.208V172.075H33.4458L33.5117 172.954C34.0635 172.271 34.8301 171.929 35.8115 171.929C36.7637 171.929 37.5156 172.288 38.0674 173.005C38.624 173.723 38.9023 174.722 38.9023 176.001V176.125ZM37.5474 175.972C37.5474 175.078 37.3569 174.373 36.9761 173.855C36.5952 173.337 36.0728 173.079 35.4087 173.079C34.5884 173.079 33.9731 173.442 33.563 174.17V177.957C33.9683 178.679 34.5884 179.041 35.4233 179.041C36.0728 179.041 36.5879 178.784 36.9688 178.271C37.3545 177.754 37.5474 176.987 37.5474 175.972ZM47.3252 176.125C47.3252 177.332 47.0493 178.303 46.4976 179.041C45.9458 179.778 45.1987 180.146 44.2563 180.146C43.2944 180.146 42.5376 179.841 41.9858 179.231V183.047H40.6309V172.075H41.8687L41.9346 172.954C42.4863 172.271 43.2529 171.929 44.2344 171.929C45.1865 171.929 45.9385 172.288 46.4902 173.005C47.0469 173.723 47.3252 174.722 47.3252 176.001V176.125ZM45.9702 175.972C45.9702 175.078 45.7798 174.373 45.3989 173.855C45.0181 173.337 44.4956 173.079 43.8315 173.079C43.0112 173.079 42.396 173.442 41.9858 174.17V177.957C42.3911 178.679 43.0112 179.041 43.8462 179.041C44.4956 179.041 45.0107 178.784 45.3916 178.271C45.7773 177.754 45.9702 176.987 45.9702 175.972ZM50.5259 180H49.1709V168.75H50.5259V180ZM54.1733 180H52.8184V172.075H54.1733V180ZM52.7085 169.973C52.7085 169.753 52.7744 169.568 52.9062 169.417C53.043 169.265 53.2432 169.189 53.5068 169.189C53.7705 169.189 53.9707 169.265 54.1074 169.417C54.2441 169.568 54.3125 169.753 54.3125 169.973C54.3125 170.193 54.2441 170.376 54.1074 170.522C53.9707 170.669 53.7705 170.742 53.5068 170.742C53.2432 170.742 53.043 170.669 52.9062 170.522C52.7744 170.376 52.7085 170.193 52.7085 169.973ZM59.6372 180.146C58.563 180.146 57.689 179.795 57.0151 179.092C56.3413 178.384 56.0044 177.439 56.0044 176.257V176.008C56.0044 175.222 56.1533 174.521 56.4512 173.906C56.7539 173.286 57.1738 172.803 57.7109 172.456C58.2529 172.104 58.8389 171.929 59.4688 171.929C60.499 171.929 61.2998 172.268 61.8711 172.947C62.4424 173.625 62.728 174.597 62.728 175.862V176.426H57.3594C57.3789 177.207 57.606 177.839 58.0405 178.323C58.48 178.801 59.0366 179.041 59.7104 179.041C60.189 179.041 60.5942 178.943 60.9263 178.748C61.2583 178.552 61.5488 178.293 61.7979 177.971L62.6255 178.616C61.9614 179.636 60.9653 180.146 59.6372 180.146ZM59.4688 173.042C58.9219 173.042 58.4629 173.242 58.0918 173.643C57.7207 174.038 57.4912 174.595 57.4033 175.312H61.373V175.21C61.334 174.521 61.1484 173.989 60.8164 173.613C60.4844 173.232 60.0352 173.042 59.4688 173.042ZM68.1333 173.291C67.9282 173.257 67.7061 173.24 67.4668 173.24C66.5781 173.24 65.9751 173.618 65.6577 174.375V180H64.3027V172.075H65.6211L65.6431 172.991C66.0874 172.283 66.7173 171.929 67.5327 171.929C67.7964 171.929 67.9966 171.963 68.1333 172.031V173.291Z" fill="#1F2432"/>
<path d="M157.351 175.825V180H155.945V169.336H159.878C161.045 169.336 161.958 169.634 162.617 170.229C163.281 170.825 163.613 171.614 163.613 172.595C163.613 173.63 163.289 174.429 162.639 174.99C161.995 175.547 161.069 175.825 159.863 175.825H157.351ZM157.351 174.675H159.878C160.63 174.675 161.206 174.5 161.606 174.148C162.007 173.792 162.207 173.279 162.207 172.61C162.207 171.975 162.007 171.467 161.606 171.086C161.206 170.706 160.657 170.508 159.958 170.493H157.351V174.675ZM169.026 173.291C168.821 173.257 168.599 173.24 168.359 173.24C167.471 173.24 166.868 173.618 166.55 174.375V180H165.195V172.075H166.514L166.536 172.991C166.98 172.283 167.61 171.929 168.425 171.929C168.689 171.929 168.889 171.963 169.026 172.031V173.291ZM169.773 175.964C169.773 175.188 169.924 174.49 170.227 173.87C170.535 173.25 170.959 172.771 171.501 172.434C172.048 172.097 172.671 171.929 173.369 171.929C174.448 171.929 175.32 172.302 175.984 173.049C176.653 173.796 176.987 174.79 176.987 176.03V176.125C176.987 176.897 176.838 177.59 176.541 178.206C176.248 178.816 175.825 179.292 175.273 179.634C174.727 179.976 174.097 180.146 173.384 180.146C172.31 180.146 171.438 179.773 170.769 179.026C170.105 178.279 169.773 177.29 169.773 176.06V175.964ZM171.135 176.125C171.135 177.004 171.338 177.71 171.743 178.242C172.153 178.774 172.7 179.041 173.384 179.041C174.072 179.041 174.619 178.772 175.024 178.235C175.43 177.693 175.632 176.936 175.632 175.964C175.632 175.095 175.425 174.392 175.01 173.855C174.6 173.313 174.053 173.042 173.369 173.042C172.7 173.042 172.161 173.308 171.75 173.84C171.34 174.373 171.135 175.134 171.135 176.125ZM178.357 175.972C178.357 174.756 178.645 173.779 179.221 173.042C179.797 172.3 180.552 171.929 181.484 171.929C182.412 171.929 183.147 172.246 183.689 172.881V168.75H185.044V180H183.799L183.733 179.15C183.191 179.814 182.437 180.146 181.47 180.146C180.552 180.146 179.802 179.771 179.221 179.019C178.645 178.267 178.357 177.285 178.357 176.074V175.972ZM179.712 176.125C179.712 177.024 179.897 177.727 180.269 178.235C180.64 178.743 181.152 178.997 181.807 178.997C182.666 178.997 183.293 178.611 183.689 177.839V174.199C183.284 173.452 182.661 173.079 181.821 173.079C181.157 173.079 180.64 173.335 180.269 173.848C179.897 174.36 179.712 175.12 179.712 176.125ZM192.046 179.216C191.519 179.836 190.745 180.146 189.724 180.146C188.879 180.146 188.235 179.902 187.791 179.414C187.351 178.921 187.129 178.193 187.124 177.231V172.075H188.479V177.195C188.479 178.396 188.967 178.997 189.944 178.997C190.979 178.997 191.667 178.611 192.009 177.839V172.075H193.364V180H192.075L192.046 179.216ZM198.608 179.041C199.092 179.041 199.514 178.894 199.875 178.601C200.237 178.308 200.437 177.942 200.476 177.502H201.758C201.733 177.957 201.577 178.389 201.289 178.799C201.001 179.209 200.615 179.536 200.132 179.78C199.653 180.024 199.146 180.146 198.608 180.146C197.529 180.146 196.67 179.788 196.03 179.07C195.396 178.347 195.078 177.361 195.078 176.111V175.884C195.078 175.112 195.22 174.426 195.503 173.826C195.786 173.225 196.191 172.759 196.719 172.427C197.251 172.095 197.878 171.929 198.601 171.929C199.49 171.929 200.227 172.195 200.813 172.727C201.404 173.259 201.719 173.95 201.758 174.8H200.476C200.437 174.287 200.242 173.867 199.89 173.54C199.543 173.208 199.114 173.042 198.601 173.042C197.913 173.042 197.378 173.291 196.997 173.789C196.621 174.282 196.433 174.998 196.433 175.935V176.191C196.433 177.104 196.621 177.808 196.997 178.301C197.373 178.794 197.91 179.041 198.608 179.041ZM206.57 180.146C205.496 180.146 204.622 179.795 203.948 179.092C203.274 178.384 202.937 177.439 202.937 176.257V176.008C202.937 175.222 203.086 174.521 203.384 173.906C203.687 173.286 204.106 172.803 204.644 172.456C205.186 172.104 205.771 171.929 206.401 171.929C207.432 171.929 208.232 172.268 208.804 172.947C209.375 173.625 209.661 174.597 209.661 175.862V176.426H204.292C204.312 177.207 204.539 177.839 204.973 178.323C205.413 178.801 205.969 179.041 206.643 179.041C207.122 179.041 207.527 178.943 207.859 178.748C208.191 178.552 208.481 178.293 208.73 177.971L209.558 178.616C208.894 179.636 207.898 180.146 206.57 180.146ZM206.401 173.042C205.854 173.042 205.396 173.242 205.024 173.643C204.653 174.038 204.424 174.595 204.336 175.312H208.306V175.21C208.267 174.521 208.081 173.989 207.749 173.613C207.417 173.232 206.968 173.042 206.401 173.042ZM215.066 173.291C214.861 173.257 214.639 173.24 214.399 173.24C213.511 173.24 212.908 173.618 212.59 174.375V180H211.235V172.075H212.554L212.576 172.991C213.02 172.283 213.65 171.929 214.465 171.929C214.729 171.929 214.929 171.963 215.066 172.031V173.291Z" fill="#1F2432"/>
<path d="M290.238 180V169.336H293.248C294.176 169.336 294.996 169.541 295.709 169.951C296.422 170.361 296.971 170.945 297.357 171.702C297.748 172.458 297.945 173.328 297.95 174.309V174.99C297.95 175.996 297.755 176.877 297.364 177.634C296.979 178.391 296.424 178.972 295.702 179.377C294.984 179.783 294.146 179.99 293.189 180H290.238ZM291.644 170.493V178.85H293.124C294.208 178.85 295.05 178.513 295.65 177.839C296.256 177.166 296.559 176.206 296.559 174.961V174.338C296.559 173.127 296.273 172.188 295.702 171.519C295.135 170.845 294.33 170.503 293.285 170.493H291.644ZM301.341 180H299.986V172.075H301.341V180ZM299.876 169.973C299.876 169.753 299.942 169.568 300.074 169.417C300.211 169.265 300.411 169.189 300.675 169.189C300.938 169.189 301.139 169.265 301.275 169.417C301.412 169.568 301.48 169.753 301.48 169.973C301.48 170.193 301.412 170.376 301.275 170.522C301.139 170.669 300.938 170.742 300.675 170.742C300.411 170.742 300.211 170.669 300.074 170.522C299.942 170.376 299.876 170.193 299.876 169.973ZM308.131 177.898C308.131 177.532 307.992 177.249 307.713 177.048C307.44 176.843 306.959 176.667 306.271 176.521C305.587 176.375 305.042 176.199 304.637 175.994C304.237 175.789 303.939 175.544 303.744 175.261C303.553 174.978 303.458 174.641 303.458 174.25C303.458 173.601 303.731 173.052 304.278 172.603C304.83 172.153 305.533 171.929 306.388 171.929C307.286 171.929 308.014 172.161 308.57 172.625C309.132 173.088 309.413 173.682 309.413 174.404H308.05C308.05 174.033 307.892 173.713 307.574 173.445C307.262 173.176 306.866 173.042 306.388 173.042C305.895 173.042 305.509 173.149 305.23 173.364C304.952 173.579 304.813 173.86 304.813 174.207C304.813 174.534 304.942 174.78 305.201 174.946C305.46 175.112 305.926 175.271 306.6 175.422C307.279 175.574 307.828 175.754 308.248 175.964C308.668 176.174 308.978 176.428 309.178 176.726C309.383 177.019 309.486 177.378 309.486 177.803C309.486 178.511 309.203 179.08 308.636 179.509C308.07 179.934 307.335 180.146 306.432 180.146C305.797 180.146 305.235 180.034 304.747 179.81C304.259 179.585 303.875 179.272 303.597 178.872C303.324 178.467 303.187 178.03 303.187 177.561H304.542C304.566 178.015 304.747 178.376 305.084 178.645C305.426 178.909 305.875 179.041 306.432 179.041C306.944 179.041 307.354 178.938 307.662 178.733C307.975 178.523 308.131 178.245 308.131 177.898ZM313.089 170.156V172.075H314.569V173.123H313.089V178.037C313.089 178.354 313.155 178.594 313.287 178.755C313.419 178.911 313.644 178.989 313.961 178.989C314.117 178.989 314.332 178.96 314.605 178.901V180C314.249 180.098 313.902 180.146 313.565 180.146C312.96 180.146 312.503 179.963 312.196 179.597C311.888 179.231 311.734 178.711 311.734 178.037V173.123H310.292V172.075H311.734V170.156H313.089ZM319.989 173.291C319.784 173.257 319.562 173.24 319.322 173.24C318.434 173.24 317.831 173.618 317.513 174.375V180H316.158V172.075H317.477L317.499 172.991C317.943 172.283 318.573 171.929 319.388 171.929C319.652 171.929 319.852 171.963 319.989 172.031V173.291ZM322.713 180H321.358V172.075H322.713V180ZM321.249 169.973C321.249 169.753 321.314 169.568 321.446 169.417C321.583 169.265 321.783 169.189 322.047 169.189C322.311 169.189 322.511 169.265 322.647 169.417C322.784 169.568 322.853 169.753 322.853 169.973C322.853 170.193 322.784 170.376 322.647 170.522C322.511 170.669 322.311 170.742 322.047 170.742C321.783 170.742 321.583 170.669 321.446 170.522C321.314 170.376 321.249 170.193 321.249 169.973ZM331.598 176.125C331.598 177.336 331.319 178.311 330.763 179.048C330.206 179.78 329.459 180.146 328.521 180.146C327.521 180.146 326.747 179.792 326.2 179.084L326.134 180H324.889V168.75H326.244V172.947C326.791 172.268 327.545 171.929 328.507 171.929C329.469 171.929 330.223 172.292 330.77 173.02C331.322 173.748 331.598 174.744 331.598 176.008V176.125ZM330.243 175.972C330.243 175.049 330.064 174.336 329.708 173.833C329.352 173.33 328.839 173.079 328.17 173.079C327.276 173.079 326.634 173.494 326.244 174.324V177.751C326.659 178.582 327.306 178.997 328.185 178.997C328.834 178.997 329.339 178.745 329.701 178.242C330.062 177.739 330.243 176.982 330.243 175.972ZM338.204 179.216C337.677 179.836 336.903 180.146 335.882 180.146C335.038 180.146 334.393 179.902 333.949 179.414C333.509 178.921 333.287 178.193 333.282 177.231V172.075H334.637V177.195C334.637 178.396 335.125 178.997 336.102 178.997C337.137 178.997 337.826 178.611 338.167 177.839V172.075H339.522V180H338.233L338.204 179.216ZM343.426 170.156V172.075H344.906V173.123H343.426V178.037C343.426 178.354 343.492 178.594 343.624 178.755C343.756 178.911 343.98 178.989 344.298 178.989C344.454 178.989 344.669 178.96 344.942 178.901V180C344.586 180.098 344.239 180.146 343.902 180.146C343.297 180.146 342.84 179.963 342.533 179.597C342.225 179.231 342.071 178.711 342.071 178.037V173.123H340.628V172.075H342.071V170.156H343.426ZM345.99 175.964C345.99 175.188 346.141 174.49 346.444 173.87C346.751 173.25 347.176 172.771 347.718 172.434C348.265 172.097 348.888 171.929 349.586 171.929C350.665 171.929 351.537 172.302 352.201 173.049C352.87 173.796 353.204 174.79 353.204 176.03V176.125C353.204 176.897 353.055 177.59 352.757 178.206C352.464 178.816 352.042 179.292 351.49 179.634C350.943 179.976 350.313 180.146 349.601 180.146C348.526 180.146 347.655 179.773 346.986 179.026C346.322 178.279 345.99 177.29 345.99 176.06V175.964ZM347.352 176.125C347.352 177.004 347.555 177.71 347.96 178.242C348.37 178.774 348.917 179.041 349.601 179.041C350.289 179.041 350.836 178.772 351.241 178.235C351.646 177.693 351.849 176.936 351.849 175.964C351.849 175.095 351.642 174.392 351.227 173.855C350.816 173.313 350.27 173.042 349.586 173.042C348.917 173.042 348.377 173.308 347.967 173.84C347.557 174.373 347.352 175.134 347.352 176.125ZM358.734 173.291C358.529 173.257 358.307 173.24 358.067 173.24C357.179 173.24 356.576 173.618 356.258 174.375V180H354.903V172.075H356.222L356.244 172.991C356.688 172.283 357.318 171.929 358.133 171.929C358.397 171.929 358.597 171.963 358.734 172.031V173.291Z" fill="#1F2432"/>
<path d="M588.851 175.686H586.346V180H584.933V169.336H588.463C589.664 169.336 590.587 169.609 591.231 170.156C591.881 170.703 592.206 171.499 592.206 172.544C592.206 173.208 592.025 173.787 591.664 174.28C591.307 174.773 590.809 175.142 590.169 175.386L592.674 179.912V180H591.166L588.851 175.686ZM586.346 174.536H588.507C589.205 174.536 589.759 174.355 590.169 173.994C590.584 173.633 590.792 173.149 590.792 172.544C590.792 171.885 590.594 171.379 590.199 171.028C589.808 170.676 589.242 170.498 588.5 170.493H586.346V174.536ZM597.259 180.146C596.185 180.146 595.311 179.795 594.637 179.092C593.963 178.384 593.626 177.439 593.626 176.257V176.008C593.626 175.222 593.775 174.521 594.073 173.906C594.376 173.286 594.796 172.803 595.333 172.456C595.875 172.104 596.461 171.929 597.091 171.929C598.121 171.929 598.922 172.268 599.493 172.947C600.064 173.625 600.35 174.597 600.35 175.862V176.426H594.981C595.001 177.207 595.228 177.839 595.663 178.323C596.102 178.801 596.659 179.041 597.333 179.041C597.811 179.041 598.216 178.943 598.548 178.748C598.88 178.552 599.171 178.293 599.42 177.971L600.248 178.616C599.583 179.636 598.587 180.146 597.259 180.146ZM597.091 173.042C596.544 173.042 596.085 173.242 595.714 173.643C595.343 174.038 595.113 174.595 595.025 175.312H598.995V175.21C598.956 174.521 598.771 173.989 598.438 173.613C598.106 173.232 597.657 173.042 597.091 173.042ZM603.763 170.156V172.075H605.243V173.123H603.763V178.037C603.763 178.354 603.829 178.594 603.961 178.755C604.093 178.911 604.317 178.989 604.635 178.989C604.791 178.989 605.006 178.96 605.279 178.901V180C604.923 180.098 604.576 180.146 604.239 180.146C603.634 180.146 603.177 179.963 602.87 179.597C602.562 179.231 602.408 178.711 602.408 178.037V173.123H600.965V172.075H602.408V170.156H603.763ZM611.725 180C611.646 179.844 611.583 179.565 611.534 179.165C610.904 179.819 610.152 180.146 609.278 180.146C608.497 180.146 607.855 179.927 607.352 179.487C606.854 179.043 606.605 178.481 606.605 177.803C606.605 176.978 606.917 176.338 607.542 175.884C608.172 175.425 609.056 175.195 610.194 175.195H611.512V174.573C611.512 174.099 611.371 173.723 611.087 173.445C610.804 173.162 610.387 173.02 609.835 173.02C609.352 173.02 608.946 173.142 608.619 173.386C608.292 173.63 608.128 173.926 608.128 174.272H606.766C606.766 173.877 606.905 173.496 607.184 173.13C607.467 172.759 607.848 172.466 608.326 172.251C608.81 172.036 609.339 171.929 609.916 171.929C610.829 171.929 611.544 172.158 612.062 172.617C612.579 173.071 612.848 173.699 612.867 174.5V178.147C612.867 178.875 612.96 179.453 613.146 179.883V180H611.725ZM609.476 178.967C609.901 178.967 610.304 178.857 610.685 178.638C611.065 178.418 611.341 178.132 611.512 177.781V176.155H610.45C608.79 176.155 607.96 176.641 607.96 177.612C607.96 178.037 608.102 178.369 608.385 178.608C608.668 178.848 609.032 178.967 609.476 178.967ZM616.463 180H615.108V172.075H616.463V180ZM614.999 169.973C614.999 169.753 615.064 169.568 615.196 169.417C615.333 169.265 615.533 169.189 615.797 169.189C616.061 169.189 616.261 169.265 616.397 169.417C616.534 169.568 616.603 169.753 616.603 169.973C616.603 170.193 616.534 170.376 616.397 170.522C616.261 170.669 616.061 170.742 615.797 170.742C615.533 170.742 615.333 170.669 615.196 170.522C615.064 170.376 614.999 170.193 614.999 169.973ZM620.111 180H618.756V168.75H620.111V180ZM625.575 180.146C624.5 180.146 623.626 179.795 622.953 179.092C622.279 178.384 621.942 177.439 621.942 176.257V176.008C621.942 175.222 622.091 174.521 622.389 173.906C622.691 173.286 623.111 172.803 623.648 172.456C624.19 172.104 624.776 171.929 625.406 171.929C626.437 171.929 627.237 172.268 627.809 172.947C628.38 173.625 628.666 174.597 628.666 175.862V176.426H623.297C623.316 177.207 623.543 177.839 623.978 178.323C624.417 178.801 624.974 179.041 625.648 179.041C626.126 179.041 626.532 178.943 626.864 178.748C627.196 178.552 627.486 178.293 627.735 177.971L628.563 178.616C627.899 179.636 626.903 180.146 625.575 180.146ZM625.406 173.042C624.859 173.042 624.4 173.242 624.029 173.643C623.658 174.038 623.429 174.595 623.341 175.312H627.311V175.21C627.271 174.521 627.086 173.989 626.754 173.613C626.422 173.232 625.973 173.042 625.406 173.042ZM634.071 173.291C633.866 173.257 633.644 173.24 633.404 173.24C632.516 173.24 631.913 173.618 631.595 174.375V180H630.24V172.075H631.559L631.581 172.991C632.025 172.283 632.655 171.929 633.47 171.929C633.734 171.929 633.934 171.963 634.071 172.031V173.291Z" fill="#1F2432"/>
<path d="M739.824 175.247C738.618 174.9 737.739 174.475 737.187 173.972C736.64 173.464 736.367 172.839 736.367 172.097C736.367 171.257 736.701 170.564 737.37 170.017C738.044 169.465 738.918 169.189 739.992 169.189C740.725 169.189 741.376 169.331 741.948 169.614C742.524 169.897 742.968 170.288 743.281 170.786C743.598 171.284 743.757 171.829 743.757 172.419H742.343C742.343 171.775 742.138 171.27 741.728 170.903C741.318 170.532 740.739 170.347 739.992 170.347C739.299 170.347 738.757 170.5 738.366 170.808C737.98 171.111 737.788 171.533 737.788 172.075C737.788 172.51 737.971 172.878 738.337 173.181C738.708 173.479 739.335 173.752 740.219 174.001C741.108 174.25 741.801 174.526 742.299 174.829C742.802 175.127 743.173 175.476 743.413 175.876C743.657 176.277 743.779 176.748 743.779 177.29C743.779 178.154 743.442 178.848 742.768 179.37C742.094 179.888 741.193 180.146 740.065 180.146C739.333 180.146 738.649 180.007 738.015 179.729C737.38 179.446 736.889 179.06 736.542 178.572C736.201 178.083 736.03 177.529 736.03 176.909H737.443C737.443 177.554 737.68 178.064 738.154 178.44C738.632 178.811 739.27 178.997 740.065 178.997C740.808 178.997 741.376 178.845 741.772 178.542C742.167 178.24 742.365 177.827 742.365 177.305C742.365 176.782 742.182 176.379 741.816 176.096C741.45 175.808 740.786 175.525 739.824 175.247ZM747.214 170.156V172.075H748.693V173.123H747.214V178.037C747.214 178.354 747.28 178.594 747.412 178.755C747.543 178.911 747.768 178.989 748.085 178.989C748.242 178.989 748.457 178.96 748.73 178.901V180C748.374 180.098 748.027 180.146 747.69 180.146C747.084 180.146 746.628 179.963 746.32 179.597C746.013 179.231 745.859 178.711 745.859 178.037V173.123H744.416V172.075H745.859V170.156H747.214ZM749.777 175.964C749.777 175.188 749.929 174.49 750.231 173.87C750.539 173.25 750.964 172.771 751.506 172.434C752.053 172.097 752.675 171.929 753.374 171.929C754.453 171.929 755.324 172.302 755.988 173.049C756.657 173.796 756.992 174.79 756.992 176.03V176.125C756.992 176.897 756.843 177.59 756.545 178.206C756.252 178.816 755.83 179.292 755.278 179.634C754.731 179.976 754.101 180.146 753.388 180.146C752.314 180.146 751.442 179.773 750.773 179.026C750.109 178.279 749.777 177.29 749.777 176.06V175.964ZM751.14 176.125C751.14 177.004 751.342 177.71 751.748 178.242C752.158 178.774 752.705 179.041 753.388 179.041C754.077 179.041 754.624 178.772 755.029 178.235C755.434 177.693 755.637 176.936 755.637 175.964C755.637 175.095 755.429 174.392 755.014 173.855C754.604 173.313 754.057 173.042 753.374 173.042C752.705 173.042 752.165 173.308 751.755 173.84C751.345 174.373 751.14 175.134 751.14 176.125ZM762.521 173.291C762.316 173.257 762.094 173.24 761.855 173.24C760.966 173.24 760.363 173.618 760.046 174.375V180H758.691V172.075H760.009L760.031 172.991C760.476 172.283 761.105 171.929 761.921 171.929C762.185 171.929 762.385 171.963 762.521 172.031V173.291ZM766.916 180.146C765.842 180.146 764.968 179.795 764.294 179.092C763.62 178.384 763.283 177.439 763.283 176.257V176.008C763.283 175.222 763.432 174.521 763.73 173.906C764.033 173.286 764.453 172.803 764.99 172.456C765.532 172.104 766.118 171.929 766.748 171.929C767.778 171.929 768.579 172.268 769.15 172.947C769.721 173.625 770.007 174.597 770.007 175.862V176.426H764.638C764.658 177.207 764.885 177.839 765.319 178.323C765.759 178.801 766.315 179.041 766.989 179.041C767.468 179.041 767.873 178.943 768.205 178.748C768.537 178.552 768.828 178.293 769.077 177.971L769.904 178.616C769.24 179.636 768.244 180.146 766.916 180.146ZM766.748 173.042C766.201 173.042 765.742 173.242 765.371 173.643C765 174.038 764.77 174.595 764.682 175.312H768.652V175.21C768.613 174.521 768.427 173.989 768.095 173.613C767.763 173.232 767.314 173.042 766.748 173.042Z" fill="#1F2432"/>
<path d="M871.938 176.616C871.806 177.744 871.389 178.616 870.686 179.231C869.987 179.841 869.057 180.146 867.895 180.146C866.635 180.146 865.625 179.695 864.863 178.792C864.106 177.888 863.728 176.68 863.728 175.166V174.141C863.728 173.149 863.903 172.278 864.255 171.526C864.611 170.774 865.114 170.198 865.764 169.797C866.413 169.392 867.165 169.189 868.02 169.189C869.152 169.189 870.061 169.507 870.744 170.142C871.428 170.771 871.826 171.646 871.938 172.764H870.524C870.402 171.914 870.136 171.299 869.726 170.918C869.321 170.537 868.752 170.347 868.02 170.347C867.121 170.347 866.416 170.679 865.903 171.343C865.395 172.007 865.141 172.952 865.141 174.177V175.21C865.141 176.367 865.383 177.288 865.866 177.971C866.35 178.655 867.026 178.997 867.895 178.997C868.676 178.997 869.274 178.821 869.689 178.469C870.109 178.113 870.388 177.495 870.524 176.616H871.938ZM878.544 179.216C878.017 179.836 877.243 180.146 876.223 180.146C875.378 180.146 874.733 179.902 874.289 179.414C873.85 178.921 873.627 178.193 873.623 177.231V172.075H874.978V177.195C874.978 178.396 875.466 178.997 876.442 178.997C877.478 178.997 878.166 178.611 878.508 177.839V172.075H879.863V180H878.574L878.544 179.216ZM886.542 177.898C886.542 177.532 886.403 177.249 886.125 177.048C885.852 176.843 885.371 176.667 884.682 176.521C883.999 176.375 883.454 176.199 883.049 175.994C882.648 175.789 882.351 175.544 882.155 175.261C881.965 174.978 881.87 174.641 881.87 174.25C881.87 173.601 882.143 173.052 882.69 172.603C883.242 172.153 883.945 171.929 884.799 171.929C885.698 171.929 886.425 172.161 886.982 172.625C887.543 173.088 887.824 173.682 887.824 174.404H886.462C886.462 174.033 886.303 173.713 885.986 173.445C885.673 173.176 885.278 173.042 884.799 173.042C884.306 173.042 883.92 173.149 883.642 173.364C883.364 173.579 883.225 173.86 883.225 174.207C883.225 174.534 883.354 174.78 883.613 174.946C883.872 175.112 884.338 175.271 885.012 175.422C885.69 175.574 886.24 175.754 886.66 175.964C887.08 176.174 887.39 176.428 887.59 176.726C887.795 177.019 887.897 177.378 887.897 177.803C887.897 178.511 887.614 179.08 887.048 179.509C886.481 179.934 885.747 180.146 884.843 180.146C884.208 180.146 883.647 180.034 883.159 179.81C882.67 179.585 882.287 179.272 882.009 178.872C881.735 178.467 881.599 178.03 881.599 177.561H882.954C882.978 178.015 883.159 178.376 883.496 178.645C883.837 178.909 884.287 179.041 884.843 179.041C885.356 179.041 885.766 178.938 886.074 178.733C886.386 178.523 886.542 178.245 886.542 177.898ZM891.501 170.156V172.075H892.98V173.123H891.501V178.037C891.501 178.354 891.567 178.594 891.699 178.755C891.831 178.911 892.055 178.989 892.373 178.989C892.529 178.989 892.744 178.96 893.017 178.901V180C892.661 180.098 892.314 180.146 891.977 180.146C891.372 180.146 890.915 179.963 890.607 179.597C890.3 179.231 890.146 178.711 890.146 178.037V173.123H888.703V172.075H890.146V170.156H891.501ZM894.064 175.964C894.064 175.188 894.216 174.49 894.519 173.87C894.826 173.25 895.251 172.771 895.793 172.434C896.34 172.097 896.962 171.929 897.661 171.929C898.74 171.929 899.611 172.302 900.275 173.049C900.944 173.796 901.279 174.79 901.279 176.03V176.125C901.279 176.897 901.13 177.59 900.832 178.206C900.539 178.816 900.117 179.292 899.565 179.634C899.018 179.976 898.388 180.146 897.675 180.146C896.601 180.146 895.729 179.773 895.061 179.026C894.396 178.279 894.064 177.29 894.064 176.06V175.964ZM895.427 176.125C895.427 177.004 895.629 177.71 896.035 178.242C896.445 178.774 896.992 179.041 897.675 179.041C898.364 179.041 898.911 178.772 899.316 178.235C899.721 177.693 899.924 176.936 899.924 175.964C899.924 175.095 899.716 174.392 899.301 173.855C898.891 173.313 898.344 173.042 897.661 173.042C896.992 173.042 896.452 173.308 896.042 173.84C895.632 174.373 895.427 175.134 895.427 176.125ZM904.252 172.075L904.289 172.954C904.87 172.271 905.654 171.929 906.64 171.929C907.749 171.929 908.503 172.354 908.903 173.203C909.167 172.822 909.509 172.515 909.929 172.28C910.354 172.046 910.854 171.929 911.43 171.929C913.168 171.929 914.052 172.849 914.082 174.69V180H912.727V174.771C912.727 174.204 912.597 173.782 912.338 173.503C912.08 173.22 911.645 173.079 911.035 173.079C910.532 173.079 910.114 173.23 909.782 173.533C909.45 173.831 909.257 174.233 909.204 174.741V180H907.841V174.807C907.841 173.655 907.277 173.079 906.149 173.079C905.261 173.079 904.653 173.457 904.326 174.214V180H902.971V172.075H904.252ZM919.421 180.146C918.347 180.146 917.473 179.795 916.799 179.092C916.125 178.384 915.788 177.439 915.788 176.257V176.008C915.788 175.222 915.937 174.521 916.235 173.906C916.538 173.286 916.958 172.803 917.495 172.456C918.037 172.104 918.623 171.929 919.252 171.929C920.283 171.929 921.083 172.268 921.655 172.947C922.226 173.625 922.512 174.597 922.512 175.862V176.426H917.143C917.163 177.207 917.39 177.839 917.824 178.323C918.264 178.801 918.82 179.041 919.494 179.041C919.973 179.041 920.378 178.943 920.71 178.748C921.042 178.552 921.333 178.293 921.582 177.971L922.409 178.616C921.745 179.636 920.749 180.146 919.421 180.146ZM919.252 173.042C918.706 173.042 918.247 173.242 917.875 173.643C917.504 174.038 917.275 174.595 917.187 175.312H921.157V175.21C921.118 174.521 920.932 173.989 920.6 173.613C920.268 173.232 919.819 173.042 919.252 173.042ZM927.917 173.291C927.712 173.257 927.49 173.24 927.25 173.24C926.362 173.24 925.759 173.618 925.441 174.375V180H924.086V172.075H925.405L925.427 172.991C925.871 172.283 926.501 171.929 927.316 171.929C927.58 171.929 927.78 171.963 927.917 172.031V173.291Z" fill="#1F2432"/>
<path d="M30.8553 109.136V121.478H22.6553V109.136" stroke="#00DCE6"/>
<path d="M47.1707 109.136V121.478H38.9707V109.136" stroke="#00DCE6"/>
<path d="M63.5711 109.136V121.478H55.3711V109.136" stroke="#00DCE6"/>
<path d="M66.276 121.394H19.9502V137.286H66.276V121.394Z" stroke="#00DCE6"/>
<path d="M51.736 104.148H34.5752V108.882H51.8206V104.148H51.736Z" stroke="#00DCE6"/>
<path d="M43.1133 100.852V104.148" stroke="#00DCE6"/>
<path d="M50.8055 125.367H35.4199V137.202H50.89V125.367H50.8055Z" stroke="#00DCE6"/>
<path d="M50.8061 125.367H43.1133V137.287H50.8061V125.367Z" stroke="#00DCE6"/>
<path d="M63.5708 108.883H22.6553V111.926H63.6553V108.883H63.5708Z" stroke="#00DCE6"/>
<path d="M45.5645 129.848V133.398" stroke="#00DCE6"/>
<path d="M40.915 129.848V133.398" stroke="#00DCE6"/>
<path d="M27.4738 125.367H23.416V134.159H27.4738V125.367Z" stroke="#00DCE6"/>
<path d="M62.4718 125.367H58.4141V134.159H62.4718V125.367Z" stroke="#00DCE6"/>
<path d="M36.4346 106.516H49.115" stroke="#00DCE6"/>
<path d="M199.759 137.625H170.341C166.875 137.625 164.085 134.835 164.085 131.369C164.085 127.903 166.875 125.113 170.341 125.113H199.759C203.225 125.113 206.015 127.903 206.015 131.369C206.015 134.835 203.225 137.625 199.759 137.625Z" stroke="#00DCE6"/>
<path d="M170.847 134.919C172.808 134.919 174.398 133.33 174.398 131.369C174.398 129.408 172.808 127.818 170.847 127.818C168.887 127.818 167.297 129.408 167.297 131.369C167.297 133.33 168.887 134.919 170.847 134.919Z" stroke="#00DCE6"/>
<path d="M180.316 134.919C182.277 134.919 183.867 133.33 183.867 131.369C183.867 129.408 182.277 127.818 180.316 127.818C178.355 127.818 176.766 129.408 176.766 131.369C176.766 133.33 178.355 134.919 180.316 134.919Z" stroke="#00DCE6"/>
<path d="M189.784 134.919C191.745 134.919 193.334 133.33 193.334 131.369C193.334 129.408 191.745 127.818 189.784 127.818C187.823 127.818 186.233 129.408 186.233 131.369C186.233 133.33 187.823 134.919 189.784 134.919Z" stroke="#00DCE6"/>
<path d="M199.252 134.919C201.213 134.919 202.802 133.33 202.802 131.369C202.802 129.408 201.213 127.818 199.252 127.818C197.291 127.818 195.701 129.408 195.701 131.369C195.701 133.33 197.291 134.919 199.252 134.919Z" stroke="#00DCE6"/>
<path d="M172.369 125.113V104.148H197.815V125.113" stroke="#00DCE6"/>
<path d="M177.864 114.631V116.998H186.741V120.211L192.32 114.631L186.741 109.052V112.264H177.864V114.631Z" stroke="#00DCE6"/>
<path d="M340.766 130.862C342.586 130.862 344.063 129.386 344.063 127.565C344.063 125.745 342.586 124.269 340.766 124.269C338.945 124.269 337.469 125.745 337.469 127.565C337.469 129.386 338.945 130.862 340.766 130.862Z" stroke="#00DCE6" stroke-miterlimit="10"/>
<path d="M341.273 113.11C343.607 113.11 345.5 111.217 345.5 108.883C345.5 106.549 343.607 104.656 341.273 104.656C338.938 104.656 337.046 106.549 337.046 108.883C337.046 111.217 338.938 113.11 341.273 113.11Z" stroke="#00DCE6" stroke-miterlimit="10" stroke-linecap="round"/>
<path d="M315.405 141.006C317.739 141.006 319.631 139.114 319.631 136.78C319.631 134.445 317.739 132.553 315.405 132.553C313.07 132.553 311.178 134.445 311.178 136.78C311.178 139.114 313.07 141.006 315.405 141.006Z" stroke="#00DCE6" stroke-miterlimit="10"/>
<path d="M324.112 105.501C325.653 105.501 326.902 104.252 326.902 102.712C326.902 101.171 325.653 99.9219 324.112 99.9219C322.571 99.9219 321.322 101.171 321.322 102.712C321.322 104.252 322.571 105.501 324.112 105.501Z" stroke="#00DCE6" stroke-miterlimit="10"/>
<path d="M324.365 105.67L325.042 110.911" stroke="#00DCE6" stroke-miterlimit="10"/>
<path d="M329.015 138.132C330.136 138.132 331.044 137.224 331.044 136.103C331.044 134.983 330.136 134.074 329.015 134.074C327.895 134.074 326.986 134.983 326.986 136.103C326.986 137.224 327.895 138.132 329.015 138.132Z" stroke="#00DCE6" stroke-miterlimit="10" stroke-linecap="round"/>
<path d="M328.761 133.821L327.916 130.186" stroke="#00DCE6" stroke-miterlimit="10" stroke-linecap="round"/>
<path d="M337.976 111.926L334.172 115.307" stroke="#00DCE6" stroke-miterlimit="10" stroke-linecap="round"/>
<path d="M335.017 124.606L337.637 125.959" stroke="#00DCE6" stroke-miterlimit="10"/>
<path d="M309.402 122.577C311.223 122.577 312.699 121.101 312.699 119.28C312.699 117.459 311.223 115.983 309.402 115.983C307.582 115.983 306.105 117.459 306.105 119.28C306.105 121.101 307.582 122.577 309.402 122.577Z" stroke="#00DCE6" stroke-miterlimit="10" stroke-linecap="round"/>
<path d="M315.827 119.873L312.868 119.619" stroke="#00DCE6" stroke-miterlimit="10" stroke-linecap="round"/>
<path d="M326.056 130.185C331.379 130.185 335.693 125.871 335.693 120.548C335.693 115.226 331.379 110.911 326.056 110.911C320.734 110.911 316.419 115.226 316.419 120.548C316.419 125.871 320.734 130.185 326.056 130.185Z" stroke="#00DCE6" stroke-miterlimit="10" stroke-linecap="round"/>
<path d="M320.815 128.833L317.856 133.398" stroke="#00DCE6" stroke-miterlimit="10"/>
<path d="M324.111 123.169V124.606H323.773L322.674 125.705L320.814 126.55C320.307 126.719 319.8 126.973 319.462 127.311" stroke="#00DCE6" stroke-miterlimit="10"/>
<path d="M330.029 116.914V117.674L330.79 118.013V119.45C330.79 119.703 330.705 119.957 330.452 120.041L330.029 120.549C330.029 120.549 330.029 121.14 330.029 121.309C330.029 122.747 328.169 123.338 327.831 123.507C327.493 123.676 326.986 123.846 326.394 123.846C325.802 123.846 325.21 123.676 324.957 123.507C324.619 123.338 322.759 122.747 322.759 121.309C322.759 121.14 322.759 120.549 322.759 120.549L322.336 120.041C322.167 119.872 321.998 119.703 321.998 119.45V118.013L322.759 117.674V116.914C322.759 115.054 324.281 113.617 326.056 113.617H326.817C328.507 113.532 330.029 115.054 330.029 116.914Z" stroke="#00DCE6" stroke-miterlimit="10"/>
<path d="M324.111 124.606L326.309 126.466" stroke="#00DCE6" stroke-miterlimit="10"/>
<path d="M326.309 126.466L324.449 127.903L322.674 125.705" stroke="#00DCE6" stroke-miterlimit="10"/>
<path d="M328.507 123.169V124.606H328.845L329.944 125.705L331.804 126.55C332.226 126.635 332.649 126.889 332.987 127.142" stroke="#00DCE6" stroke-miterlimit="10"/>
<path d="M328.508 124.606L326.31 126.466" stroke="#00DCE6" stroke-miterlimit="10"/>
<path d="M326.31 126.466L328.169 127.903L330.029 125.705" stroke="#00DCE6" stroke-miterlimit="10"/>
<path d="M481.856 110.911H475.432V121.816H488.197V120.379L481.856 110.911Z" stroke="#00DCE6" stroke-miterlimit="10"/>
<path d="M478.982 130.101C478.982 132.214 480.673 133.905 482.787 133.905C484.9 133.905 486.591 132.214 486.591 130.101C486.591 127.988 484.9 126.297 482.787 126.297C480.673 126.297 478.982 127.988 478.982 130.101Z" stroke="#00DCE6" stroke-miterlimit="10"/>
<path d="M480.504 130.101C480.504 131.285 481.518 132.299 482.702 132.299C483.885 132.299 484.9 131.285 484.9 130.101C484.9 128.918 483.885 127.903 482.702 127.903C481.518 127.903 480.504 128.918 480.504 130.101Z" stroke="#00DCE6" stroke-miterlimit="10"/>
<path d="M452.015 130.016C452.015 132.13 453.705 133.821 455.734 133.905C457.848 133.905 459.538 132.214 459.623 130.186C459.623 128.072 457.932 126.381 455.903 126.297C453.705 126.297 452.015 127.903 452.015 130.016Z" stroke="#00DCE6" stroke-miterlimit="10"/>
<path d="M473.741 109.052H483.04L490.817 120.38V129.087H486.506C486.083 127.481 484.561 126.382 482.871 126.382C481.18 126.382 479.743 127.565 479.236 129.087H473.825H459.539C459.116 127.481 457.679 126.382 455.988 126.382C454.297 126.382 452.776 127.565 452.353 129.087H447.788V109.136L473.741 109.052Z" stroke="#00DCE6" stroke-miterlimit="10"/>
<path d="M453.621 130.101C453.621 131.284 454.551 132.299 455.734 132.299C456.918 132.299 457.932 131.369 457.932 130.185C457.932 129.002 457.003 127.987 455.819 127.987C454.636 127.903 453.621 128.917 453.621 130.101Z" stroke="#00DCE6" stroke-miterlimit="10"/>
<path d="M471.204 112.603H452.015" stroke="#00DCE6" stroke-miterlimit="10"/>
<path d="M471.204 116.237H452.015" stroke="#00DCE6" stroke-miterlimit="10"/>
<path d="M471.204 119.788H452.015" stroke="#00DCE6" stroke-miterlimit="10"/>
<path d="M766.151 137.118H732.506V116.745H740.03" stroke="#00DCE6" stroke-miterlimit="10"/>
<path d="M765.729 116.745H773.252V137.118H765.729" stroke="#00DCE6" stroke-miterlimit="10"/>
<path d="M759.727 135.597V120.465" stroke="#00DCE6" stroke-miterlimit="10"/>
<path d="M746.116 135.597V120.465" stroke="#00DCE6" stroke-miterlimit="10"/>
<path d="M752.879 120.549V133.398" stroke="#00DCE6" stroke-miterlimit="10"/>
<path d="M732.76 132.723H740.368" stroke="#00DCE6" stroke-miterlimit="10"/>
<path d="M765.476 132.723H773.168" stroke="#00DCE6" stroke-miterlimit="10"/>
<path d="M732.675 116.745H730.224V109.222H738.508" stroke="#00DCE6" stroke-miterlimit="10"/>
<path d="M767.25 109.137H775.535V116.66H773.168" stroke="#00DCE6" stroke-miterlimit="10"/>
<path d="M740.452 132.723H746.539" stroke="#00DCE6" stroke-miterlimit="10"/>
<path d="M759.727 132.723H765.475" stroke="#00DCE6" stroke-miterlimit="10"/>
<path d="M761.163 135.597H744.51V137.118H761.163V135.597Z" stroke="#00DCE6" stroke-miterlimit="10"/>
<path d="M759.727 134.159H746.116V135.681H759.727V134.159Z" stroke="#00DCE6" stroke-miterlimit="10"/>
<path d="M751.273 127.396V130.693" stroke="#00DCE6" stroke-miterlimit="10"/>
<path d="M754.908 127.396V130.693" stroke="#00DCE6" stroke-miterlimit="10"/>
<path d="M767.25 104.656H738.508V116.745H767.25V104.656Z" stroke="#00DCE6" stroke-miterlimit="10"/>
<path d="M761.164 116.745H745.271V120.549H761.164V116.745Z" stroke="#00DCE6" stroke-miterlimit="10"/>
<path d="M746.116 109.137C746.116 111.25 744.425 112.941 742.312 112.941C740.199 112.941 738.508 111.25 738.508 109.137" stroke="#00DCE6" stroke-miterlimit="10"/>
<path d="M752.879 109.137C752.879 111.25 751.357 112.941 749.498 112.941C747.638 112.941 746.116 111.25 746.116 109.137" stroke="#00DCE6" stroke-miterlimit="10"/>
<path d="M759.727 109.137C759.727 111.25 758.205 112.941 756.345 112.941C754.486 112.941 752.964 111.25 752.964 109.137" stroke="#00DCE6" stroke-miterlimit="10"/>
<path d="M767.251 109.137C767.251 111.25 765.56 112.941 763.447 112.941C761.333 112.941 759.643 111.25 759.643 109.137" stroke="#00DCE6" stroke-miterlimit="10"/>
<path d="M605.617 121.141V123.761H604.941L602.997 125.706L599.7 127.227C597.924 127.65 596.487 129.002 596.487 130.271V138.048" stroke="#00DCE6" stroke-miterlimit="10"/>
<path d="M605.617 123.762L609.506 126.974" stroke="#00DCE6" stroke-miterlimit="10"/>
<path d="M609.506 126.973L606.294 129.594L602.997 125.705" stroke="#00DCE6" stroke-miterlimit="10"/>
<path d="M613.395 121.141V123.761H614.071L616.015 125.706L619.312 127.227C621.087 127.65 622.524 129.002 622.524 130.271V138.048" stroke="#00DCE6" stroke-miterlimit="10"/>
<path d="M613.395 123.762L609.506 126.974" stroke="#00DCE6" stroke-miterlimit="10"/>
<path d="M609.506 126.973L612.718 129.594L616.015 125.705" stroke="#00DCE6" stroke-miterlimit="10"/>
<path d="M611.45 128.326L610.774 131.539H608.238L607.562 128.326" stroke="#00DCE6" stroke-miterlimit="10"/>
<path d="M611.45 137.372L610.774 131.539H608.238L607.562 137.372" stroke="#00DCE6" stroke-miterlimit="10"/>
<path d="M617.114 112.94V108.545C617.114 104.571 616.015 103.811 611.788 103.811H601.137V106.769C601.137 108.122 602.236 109.728 604.687 109.728C607.139 109.728 611.873 109.728 612.972 109.728C614.747 109.728 615.339 111.334 615.339 112.687C615.339 112.856 615.339 112.771 615.339 113.279H617.114V115.561C617.114 115.984 616.945 116.322 616.607 116.576L615.339 117.421C615.339 117.421 615.339 118.097 615.339 118.351C615.339 120.633 612.296 121.648 611.788 121.901C611.281 122.155 610.351 122.493 609.421 122.493C608.491 122.493 607.561 122.155 607.054 121.901C606.547 121.648 603.504 120.633 603.504 118.351C603.504 118.097 603.504 117.421 603.504 117.421L602.236 116.576C601.898 116.322 601.728 115.984 601.728 115.561V113.279H603.504C603.504 112.856 603.504 112.433 603.504 112.095C603.504 111.081 603.926 110.32 604.687 109.728" stroke="#00DCE6" stroke-miterlimit="10"/>
<path d="M601.728 108.46C601.475 108.714 601.137 109.136 601.137 110.235C601.137 110.658 601.137 111.25 601.137 111.419C601.137 112.433 601.813 113.025 602.32 113.194" stroke="#00DCE6" stroke-miterlimit="10"/>
<path d="M892.026 139.063V118.013L896.844 122.832C897.69 123.677 899.127 124.015 899.888 123.254L900.818 122.325C900.818 122.325 897.859 117.76 896.844 116.322C895.745 114.885 893.801 111.504 890.42 111.504H884.925C882.642 111.504 879.853 113.871 879.853 116.914V122.663C879.853 124.269 881.797 126.044 883.403 126.044" stroke="#00DCE6" stroke-miterlimit="10" stroke-linejoin="round"/>
<path d="M883.149 117.252V139.062" stroke="#00DCE6" stroke-miterlimit="10" stroke-linejoin="round"/>
<path d="M887.968 126.128V139.062" stroke="#00DCE6" stroke-miterlimit="10" stroke-linejoin="round"/>
<path d="M887.968 109.136C889.828 109.136 891.181 107.784 891.181 105.924V104.318C891.181 102.374 889.828 101.105 887.968 101.105C886.108 101.105 884.756 102.458 884.756 104.318V105.924C884.756 107.784 886.108 109.136 887.968 109.136Z" stroke="#00DCE6" stroke-miterlimit="10" stroke-linejoin="round"/>
<path d="M893.632 138.217H910.624V126.128H893.632" stroke="#00DCE6" stroke-miterlimit="10" stroke-linejoin="round"/>
<path d="M898.488 129.312H904.151V126.099H898.488V129.312Z" stroke="#00DCE6" stroke-miterlimit="10" stroke-linejoin="round"/>
<path d="M908.173 135.005H906.566" stroke="#00DCE6" stroke-miterlimit="10" stroke-linejoin="round"/>
<path d="M905.72 135.005H904.114" stroke="#00DCE6" stroke-miterlimit="10" stroke-linejoin="round"/>
<path d="M457.856 173.009H458.875C459.514 172.999 460.017 172.831 460.383 172.503C460.75 172.176 460.933 171.734 460.933 171.178C460.933 169.928 460.31 169.303 459.065 169.303C458.479 169.303 458.01 169.471 457.659 169.808C457.312 170.14 457.139 170.582 457.139 171.134H455.784C455.784 170.289 456.091 169.588 456.707 169.032C457.327 168.47 458.113 168.189 459.065 168.189C460.071 168.189 460.859 168.456 461.431 168.988C462.002 169.52 462.288 170.26 462.288 171.207C462.288 171.671 462.136 172.12 461.833 172.555C461.536 172.989 461.128 173.314 460.61 173.529C461.196 173.714 461.648 174.022 461.965 174.452C462.288 174.881 462.449 175.406 462.449 176.026C462.449 176.983 462.136 177.743 461.511 178.304C460.886 178.866 460.073 179.146 459.072 179.146C458.071 179.146 457.256 178.875 456.626 178.333C456.001 177.792 455.688 177.076 455.688 176.188H457.051C457.051 176.749 457.234 177.198 457.6 177.535C457.966 177.872 458.457 178.041 459.072 178.041C459.727 178.041 460.227 177.87 460.574 177.528C460.92 177.186 461.094 176.695 461.094 176.056C461.094 175.436 460.903 174.959 460.522 174.627C460.142 174.295 459.592 174.125 458.875 174.115H457.856V173.009ZM466.067 174.825V179H464.661V168.336H468.594C469.761 168.336 470.674 168.634 471.333 169.229C471.997 169.825 472.329 170.614 472.329 171.595C472.329 172.63 472.004 173.429 471.355 173.99C470.71 174.547 469.785 174.825 468.579 174.825H466.067ZM466.067 173.675H468.594C469.346 173.675 469.922 173.5 470.322 173.148C470.723 172.792 470.923 172.279 470.923 171.61C470.923 170.975 470.723 170.467 470.322 170.086C469.922 169.706 469.373 169.508 468.674 169.493H466.067V173.675ZM475.537 177.85H480.591V179H474.124V168.336H475.537V177.85Z" fill="#1F2432"/>
</g>
<defs>
<clipPath id="clip0">
<rect width="939.197" height="182.091" fill="white"/>
</clipPath>
</defs>
</svg>
