<?xml version="1.0" encoding="utf-8"?>
<!-- Generator: Adobe Illustrator 15.0.0, SVG Export Plug-In . SVG Version: 6.00 Build 0)  -->
<!DOCTYPE svg PUBLIC "-//W3C//DTD SVG 1.1//EN" "http://www.w3.org/Graphics/SVG/1.1/DTD/svg11.dtd">
<svg version="1.1" id="图层_1" xmlns="http://www.w3.org/2000/svg" xmlns:xlink="http://www.w3.org/1999/xlink" x="0px" y="0px"
	 width="724px" height="196px" viewBox="0 0 724 196" enable-background="new 0 0 724 196" xml:space="preserve">
<g>
	<defs>
		<rect id="SVGID_1_" width="724" height="196"/>
	</defs>
	<clipPath id="SVGID_2_">
		<use xlink:href="#SVGID_1_"  overflow="visible"/>
	</clipPath>
	<g clip-path="url(#SVGID_2_)">
		<path fill="#00DCE6" fill-opacity="0.1" d="M26.1,0.801h671.7c14.5,0,26.2,11.7,26.2,26.2s-11.7,26.1-26.1,26.1H26.1
			c-14.4,0-26.1-11.7-26.1-26.1C0,12.501,11.7,0.801,26.1,0.801z"/>
		<path fill="#1F2432" d="M44,157.799c23.1,0,41.8-18.699,41.8-41.8c0-23.1-18.7-41.8-41.8-41.8c-23.1,0-41.8,18.7-41.8,41.8
			C2.2,139.1,20.9,157.799,44,157.799z"/>
		<path fill="#1F2432" d="M30.2,102.799v13.9H21v-13.9"/>
		<path fill="none" stroke="#00DCE6" d="M30.2,102.799v13.9H21v-13.9"/>
		<path fill="#1F2432" d="M48.601,102.799v13.9h-9.2v-13.9"/>
		<path fill="none" stroke="#00DCE6" d="M48.601,102.799v13.9h-9.2v-13.9"/>
		<path fill="#1F2432" d="M67,102.799v13.9h-9.2v-13.9"/>
		<path fill="none" stroke="#00DCE6" d="M67,102.799v13.9h-9.2v-13.9"/>
		<path fill="#1F2432" stroke="#00DCE6" d="M70,116.498H18v17.9h52V116.498z"/>
		<path fill="#1F2432" stroke="#00DCE6" d="M53.7,97.199H34.4v5.3h19.4L53.7,97.199z"/>
		<path fill="#1F2432" d="M44,93.398v3.7V93.398z"/>
		<path fill="none" stroke="#00DCE6" d="M44,93.398v3.7"/>
		<path fill="#1F2432" stroke="#00DCE6" d="M52.601,120.998H35.4v13.3h17.4L52.601,120.998z"/>
		<path fill="#1F2432" stroke="#00DCE6" d="M52.6,120.998H44v13.4h8.6V120.998z"/>
		<path fill="#1F2432" stroke="#00DCE6" d="M67,102.498H21v3.4h46.1L67,102.498z"/>
		<path fill="#1F2432" d="M46.8,125.998v4V125.998z"/>
		<path fill="none" stroke="#00DCE6" d="M46.8,125.998v4"/>
		<path fill="#1F2432" d="M41.5,125.998v4V125.998z"/>
		<path fill="none" stroke="#00DCE6" d="M41.5,125.998v4"/>
		<path fill="#1F2432" stroke="#00DCE6" d="M26.4,120.998h-4.6v9.9h4.6V120.998z"/>
		<path fill="#1F2432" stroke="#00DCE6" d="M65.8,120.998h-4.6v9.9h4.6V120.998z"/>
		<path fill="#1F2432" d="M36.5,99.799h14.3H36.5z"/>
		<path fill="none" stroke="#00DCE6" d="M36.5,99.799h14.3"/>
		<path fill="#1F2432" d="M150.4,157.799c23.1,0,41.8-18.699,41.8-41.8c0-23.1-18.7-41.8-41.8-41.8s-41.8,18.7-41.8,41.8
			C108.6,139.1,127.4,157.799,150.4,157.799z"/>
		<path fill="#1F2432" stroke="#00DCE6" d="M166.9,134.799h-33.1c-3.9,0-7-3.1-7-7s3.1-7,7-7h33.1c3.9,0,7,3.1,7,7
			C173.9,131.6,170.8,134.799,166.9,134.799z"/>
		<path fill="#1F2432" stroke="#00DCE6" d="M134.399,131.699c2.21,0,4-1.791,4-4s-1.79-4-4-4c-2.209,0-4,1.791-4,4
			S132.19,131.699,134.399,131.699z"/>
		<path fill="#1F2432" stroke="#00DCE6" d="M145,131.699c2.209,0,4-1.791,4-4s-1.791-4-4-4s-4,1.791-4,4
			S142.791,131.699,145,131.699z"/>
		<path fill="#1F2432" stroke="#00DCE6" d="M155.7,131.699c2.209,0,4-1.791,4-4s-1.791-4-4-4s-4,1.791-4,4
			S153.491,131.699,155.7,131.699z"/>
		<path fill="#1F2432" stroke="#00DCE6" d="M166.3,131.699c2.209,0,4-1.791,4-4s-1.791-4-4-4s-4,1.791-4,4
			S164.091,131.699,166.3,131.699z"/>
		<path fill="#1F2432" d="M136.1,120.699v-23.5h28.6v23.5"/>
		<path fill="none" stroke="#00DCE6" d="M136.1,120.699v-23.5h28.6v23.5"/>
		<path fill="#1F2432" stroke="#00DCE6" d="M142.3,108.898v2.701h10v3.6l6.2-6.301l-6.2-6.199v3.6h-10V108.898z"/>
		<path fill="#1F2432" d="M256.9,157.799c23.1,0,41.8-18.699,41.8-41.8c0-23.1-18.7-41.8-41.8-41.8s-41.8,18.7-41.8,41.8
			C215.1,139.1,233.8,157.799,256.9,157.799z"/>
		<path fill="#1F2432" stroke="#00DCE6" stroke-miterlimit="10" d="M273.099,127.199c2.044,0,3.7-1.657,3.7-3.7
			c0-2.044-1.656-3.7-3.7-3.7c-2.043,0-3.7,1.656-3.7,3.7C269.399,125.542,271.056,127.199,273.099,127.199z"/>
		<path fill="#1F2432" stroke="#00DCE6" stroke-linecap="round" stroke-miterlimit="10" d="M273.699,107.299
			c2.651,0,4.8-2.148,4.8-4.8s-2.149-4.8-4.8-4.8c-2.651,0-4.8,2.148-4.8,4.8S271.048,107.299,273.699,107.299z"/>
		<path fill="#1F2432" stroke="#00DCE6" stroke-miterlimit="10" d="M244.599,138.598c2.651,0,4.8-2.148,4.8-4.8s-2.149-4.8-4.8-4.8
			s-4.8,2.148-4.8,4.8S241.948,138.598,244.599,138.598z"/>
		<path fill="#1F2432" stroke="#00DCE6" stroke-miterlimit="10" d="M254.399,98.599c1.712,0,3.1-1.388,3.1-3.1
			c0-1.712-1.388-3.1-3.1-3.1s-3.1,1.388-3.1,3.1C251.299,97.21,252.687,98.599,254.399,98.599z"/>
		<path fill="none" stroke="#00DCE6" stroke-miterlimit="10" d="M254.699,98.898l0.8,5.899"/>
		<path fill="#1F2432" stroke="#00DCE6" stroke-linecap="round" stroke-miterlimit="10" d="M259.9,135.398
			c1.27,0,2.3-1.029,2.3-2.299c0-1.271-1.03-2.301-2.3-2.301c-1.271,0-2.3,1.03-2.3,2.301
			C257.6,134.369,258.629,135.398,259.9,135.398z"/>
		<path fill="none" stroke="#00DCE6" stroke-linecap="round" stroke-miterlimit="10" d="M259.599,130.498l-0.9-4.1"/>
		<path fill="none" stroke="#00DCE6" stroke-linecap="round" stroke-miterlimit="10" d="M269.999,105.898l-4.3,3.8"/>
		<path fill="none" stroke="#00DCE6" stroke-miterlimit="10" d="M266.699,120.098l2.9,1.601"/>
		<path fill="#1F2432" stroke="#00DCE6" stroke-linecap="round" stroke-miterlimit="10" d="M237.899,117.898
			c2.044,0,3.7-1.657,3.7-3.7s-1.656-3.7-3.7-3.7c-2.043,0-3.7,1.657-3.7,3.7S235.856,117.898,237.899,117.898z"/>
		<path fill="none" stroke="#00DCE6" stroke-linecap="round" stroke-miterlimit="10" d="M245.099,114.798l-3.3-0.3"/>
		<path fill="#1F2432" stroke="#00DCE6" stroke-linecap="round" stroke-miterlimit="10" d="M256.599,126.398
			c5.965,0,10.8-4.836,10.8-10.799c0-5.966-4.835-10.801-10.8-10.801c-5.965,0-10.8,4.835-10.8,10.801
			C245.799,121.563,250.634,126.398,256.599,126.398z"/>
		<path fill="none" stroke="#00DCE6" stroke-miterlimit="10" d="M250.699,124.898l-3.3,5.1"/>
		<path fill="#1F2432" d="M254.399,118.5v1.6h-0.4l-1.2,1.2l-2.1,0.9c-0.6,0.2-1.1,0.5-1.5,0.899"/>
		<path fill="none" stroke="#00DCE6" stroke-miterlimit="10" d="M254.399,118.5v1.6h-0.4l-1.2,1.2l-2.1,0.9
			c-0.6,0.2-1.1,0.5-1.5,0.899"/>
		<path fill="#1F2432" stroke="#00DCE6" stroke-miterlimit="10" d="M261.099,111.499v0.899l0.9,0.4v1.6c0,0.301-0.1,0.601-0.4,0.701
			l-0.5,0.6c0,0,0,0.699,0,0.9c0,1.6-2.1,2.299-2.5,2.5c-0.4,0.199-1,0.399-1.6,0.399s-1.3-0.2-1.6-0.399
			c-0.4-0.201-2.5-0.9-2.5-2.5c0-0.201,0-0.9,0-0.9l-0.5-0.6c-0.2-0.201-0.4-0.4-0.4-0.701v-1.6l0.9-0.4v-0.899
			c0-2.101,1.7-3.7,3.7-3.7h0.9C259.399,107.699,261.099,109.398,261.099,111.499z"/>
		<path fill="none" stroke="#00DCE6" stroke-miterlimit="10" d="M254.399,120.1l2.5,2.101"/>
		<path fill="#1F2432" d="M256.899,122.198l-2.1,1.6l-2-2.399"/>
		<path fill="none" stroke="#00DCE6" stroke-miterlimit="10" d="M256.899,122.198l-2.1,1.6l-2-2.399"/>
		<path fill="#1F2432" d="M259.399,118.5v1.6h0.4l1.2,1.2l2.1,0.9c0.5,0.1,1,0.399,1.3,0.7"/>
		<path fill="none" stroke="#00DCE6" stroke-miterlimit="10" d="M259.399,118.5v1.6h0.4l1.2,1.2l2.1,0.9c0.5,0.1,1,0.399,1.3,0.7"/>
		<path fill="none" stroke="#00DCE6" stroke-miterlimit="10" d="M259.399,120.1l-2.5,2.101"/>
		<path fill="#1F2432" d="M256.899,122.198l2.1,1.6l2.1-2.399"/>
		<path fill="none" stroke="#00DCE6" stroke-miterlimit="10" d="M256.899,122.198l2.1,1.6l2.1-2.399"/>
		<path fill="#1F2432" d="M363.3,157.799c23.101,0,41.8-18.699,41.8-41.8c0-23.1-18.699-41.8-41.8-41.8c-23.1,0-41.8,18.7-41.8,41.8
			C321.5,139.1,340.3,157.799,363.3,157.799z"/>
		<path fill="#1F2432" stroke="#00DCE6" stroke-miterlimit="10" d="M377.6,104.799H370.4v12.2h14.3v-1.601L377.6,104.799z"/>
		<path fill="#1F2432" stroke="#00DCE6" stroke-miterlimit="10" d="M374.4,126.3c0,2.4,1.899,4.3,4.3,4.3c2.399,0,4.3-1.899,4.3-4.3
			c0-2.399-1.9-4.3-4.3-4.3C376.3,122,374.4,123.9,374.4,126.3z"/>
		<path fill="#1F2432" stroke="#00DCE6" stroke-miterlimit="10" d="M376.101,126.299c0,1.301,1.101,2.5,2.5,2.5
			c1.301,0,2.5-1.1,2.5-2.5s-1.1-2.5-2.5-2.5C377.201,123.799,376.101,124.999,376.101,126.299z"/>
		<path fill="#1F2432" stroke="#00DCE6" stroke-miterlimit="10" d="M344.101,126.2c0,2.399,1.9,4.3,4.2,4.399
			c2.4,0,4.3-1.899,4.4-4.199c0-2.4-1.9-4.301-4.2-4.4C346.001,122,344.101,123.8,344.101,126.2z"/>
		<path fill="#1F2432" stroke="#00DCE6" stroke-miterlimit="10" d="M368.5,102.699h10.4l8.699,12.699v9.801h-4.8
			c-0.5-1.801-2.2-3-4.1-3c-1.9,0-3.5,1.3-4.101,3h-6.1h-16.1c-0.5-1.801-2.101-3-4-3c-1.9,0-3.601,1.3-4.101,3h-5.1v-22.4
			L368.5,102.699z"/>
		<path fill="#1F2432" stroke="#00DCE6" stroke-miterlimit="10" d="M345.9,126.298c0,1.3,1,2.5,2.399,2.5c1.3,0,2.5-1,2.5-2.399
			c0-1.4-1-2.5-2.399-2.5C347,123.798,345.9,124.998,345.9,126.298z"/>
		<path fill="#1F2432" d="M365.6,106.699H344H365.6z"/>
		<path fill="none" stroke="#00DCE6" stroke-miterlimit="10" d="M365.6,106.699H344"/>
		<path fill="#1F2432" d="M365.6,110.699H344H365.6z"/>
		<path fill="none" stroke="#00DCE6" stroke-miterlimit="10" d="M365.6,110.699H344"/>
		<path fill="#1F2432" d="M365.6,114.699H344H365.6z"/>
		<path fill="none" stroke="#00DCE6" stroke-miterlimit="10" d="M365.6,114.699H344"/>
		<path fill="#1F2432" d="M576.2,157.799c23.1,0,41.8-18.699,41.8-41.8c0-23.1-18.7-41.8-41.8-41.8c-23.101,0-41.8,18.7-41.8,41.8
			C534.4,139.1,553.1,157.799,576.2,157.799z"/>
		<path fill="#1F2432" d="M590.801,134.199h-37.8v-22.9h8.5"/>
		<path fill="none" stroke="#00DCE6" stroke-miterlimit="10" d="M590.801,134.199h-37.8v-22.9h8.5"/>
		<path fill="#1F2432" d="M590.301,111.299h8.5v22.9h-8.5"/>
		<path fill="none" stroke="#00DCE6" stroke-miterlimit="10" d="M590.301,111.299h8.5v22.9h-8.5"/>
		<path fill="#1F2432" d="M583.501,132.5v-17V132.5z"/>
		<path fill="none" stroke="#00DCE6" stroke-miterlimit="10" d="M583.501,132.5v-17"/>
		<path fill="#1F2432" d="M568.201,132.5v-17V132.5z"/>
		<path fill="none" stroke="#00DCE6" stroke-miterlimit="10" d="M568.201,132.5v-17"/>
		<path fill="#1F2432" d="M575.801,115.6V130V115.6z"/>
		<path fill="none" stroke="#00DCE6" stroke-miterlimit="10" d="M575.801,115.6V130"/>
		<path fill="#1F2432" d="M553.201,129.299h8.5H553.201z"/>
		<path fill="none" stroke="#00DCE6" stroke-miterlimit="10" d="M553.201,129.299h8.5"/>
		<path fill="#1F2432" d="M590.001,129.299h8.6H590.001z"/>
		<path fill="none" stroke="#00DCE6" stroke-miterlimit="10" d="M590.001,129.299h8.6"/>
		<path fill="#1F2432" d="M553.101,111.299h-2.8v-8.5h9.3"/>
		<path fill="none" stroke="#00DCE6" stroke-miterlimit="10" d="M553.101,111.299h-2.8v-8.5h9.3"/>
		<path fill="#1F2432" d="M592.001,102.799h9.3v8.5h-2.7"/>
		<path fill="none" stroke="#00DCE6" stroke-miterlimit="10" d="M592.001,102.799h9.3v8.5h-2.7"/>
		<path fill="#1F2432" d="M561.9,129.299h6.8H561.9z"/>
		<path fill="none" stroke="#00DCE6" stroke-miterlimit="10" d="M561.9,129.299h6.8"/>
		<path fill="#1F2432" d="M583.501,129.299h6.5H583.501z"/>
		<path fill="none" stroke="#00DCE6" stroke-miterlimit="10" d="M583.501,129.299h6.5"/>
		<path fill="#1F2432" stroke="#00DCE6" stroke-miterlimit="10" d="M585.201,132.5h-18.7v1.7h18.7V132.5z"/>
		<path fill="#1F2432" stroke="#00DCE6" stroke-miterlimit="10" d="M583.501,130.898h-15.3v1.699h15.3V130.898z"/>
		<path fill="#1F2432" d="M574.001,123.299v3.7V123.299z"/>
		<path fill="none" stroke="#00DCE6" stroke-miterlimit="10" d="M574.001,123.299v3.7"/>
		<path fill="#1F2432" d="M578.101,123.299v3.7V123.299z"/>
		<path fill="none" stroke="#00DCE6" stroke-miterlimit="10" d="M578.101,123.299v3.7"/>
		<path fill="#1F2432" stroke="#00DCE6" stroke-miterlimit="10" d="M592.001,97.699h-32.3v13.6h32.3V97.699z"/>
		<path fill="#1F2432" stroke="#00DCE6" stroke-miterlimit="10" d="M585.201,111.299h-17.9v4.301h17.9V111.299z"/>
		<path fill="#1F2432" d="M568.201,102.799c0,2.4-1.9,4.301-4.3,4.301c-2.4,0-4.301-1.9-4.301-4.301"/>
		<path fill="none" stroke="#00DCE6" stroke-miterlimit="10" d="M568.201,102.799c0,2.4-1.9,4.301-4.3,4.301
			c-2.4,0-4.301-1.9-4.301-4.301"/>
		<path fill="#1F2432" d="M575.801,102.799c0,2.4-1.7,4.301-3.8,4.301s-3.8-1.9-3.8-4.301"/>
		<path fill="none" stroke="#00DCE6" stroke-miterlimit="10" d="M575.801,102.799c0,2.4-1.7,4.301-3.8,4.301s-3.8-1.9-3.8-4.301"/>
		<path fill="#1F2432" d="M583.5,102.799c0,2.4-1.7,4.301-3.8,4.301c-2.101,0-3.8-1.9-3.8-4.301"/>
		<path fill="none" stroke="#00DCE6" stroke-miterlimit="10" d="M583.5,102.799c0,2.4-1.7,4.301-3.8,4.301
			c-2.101,0-3.8-1.9-3.8-4.301"/>
		<path fill="#1F2432" d="M592,102.799c0,2.4-1.9,4.301-4.3,4.301c-2.4,0-4.3-1.9-4.3-4.301"/>
		<path fill="none" stroke="#00DCE6" stroke-miterlimit="10" d="M592,102.799c0,2.4-1.9,4.301-4.3,4.301c-2.4,0-4.3-1.9-4.3-4.301"
			/>
		<path fill="#1F2432" d="M469.8,157.799c23.101,0,41.8-18.699,41.8-41.8c0-23.1-18.699-41.8-41.8-41.8c-23.1,0-41.8,18.7-41.8,41.8
			C428,139.1,446.7,157.799,469.8,157.799z"/>
		<path fill="#1F2432" d="M465.4,116.199v2.9H464.6l-2.199,2.199l-3.7,1.7c-2,0.5-3.601,2-3.601,3.399v8.701"/>
		<path fill="none" stroke="#00DCE6" stroke-miterlimit="10" d="M465.4,116.199v2.9H464.6l-2.199,2.199l-3.7,1.7
			c-2,0.5-3.601,2-3.601,3.399v8.701"/>
		<path fill="none" stroke="#00DCE6" stroke-miterlimit="10" d="M465.399,119.199l4.399,3.6"/>
		<path fill="#1F2432" d="M469.8,122.798l-3.6,2.9l-3.7-4.3"/>
		<path fill="none" stroke="#00DCE6" stroke-miterlimit="10" d="M469.8,122.798l-3.6,2.9l-3.7-4.3"/>
		<path fill="#1F2432" d="M474.199,116.199v2.9h0.8l2.2,2.199l3.7,1.7c2,0.5,3.6,2,3.6,3.399v8.701"/>
		<path fill="none" stroke="#00DCE6" stroke-miterlimit="10" d="M474.199,116.199v2.9h0.8l2.2,2.199l3.7,1.7c2,0.5,3.6,2,3.6,3.399
			v8.701"/>
		<path fill="none" stroke="#00DCE6" stroke-miterlimit="10" d="M474.2,119.199l-4.4,3.6"/>
		<path fill="#1F2432" d="M469.8,122.798l3.601,2.9l3.699-4.3"/>
		<path fill="none" stroke="#00DCE6" stroke-miterlimit="10" d="M469.8,122.798l3.601,2.9l3.699-4.3"/>
		<path fill="#1F2432" d="M472,124.299l-0.8,3.6h-2.8l-0.801-3.6"/>
		<path fill="none" stroke="#00DCE6" stroke-miterlimit="10" d="M472,124.299l-0.8,3.6h-2.8l-0.801-3.6"/>
		<path fill="#1F2432" d="M472,134.498l-0.8-6.6h-2.8l-0.801,6.6"/>
		<path fill="none" stroke="#00DCE6" stroke-miterlimit="10" d="M472,134.498l-0.8-6.6h-2.8l-0.801,6.6"/>
		<path fill="#1F2432" d="M478.3,106.999V102.1c0-4.501-1.2-5.301-6-5.301h-12v3.301c0,1.5,1.2,3.299,4,3.299s8.101,0,9.3,0
			c2,0,2.7,1.801,2.7,3.301c0,0.199,0,0.1,0,0.699h2v2.601c0,0.5-0.2,0.899-0.6,1.101l-1.4,0.899c0,0,0,0.8,0,1
			c0,2.601-3.399,3.7-4,4c-0.6,0.3-1.6,0.7-2.7,0.7c-1.1,0-2.1-0.4-2.699-0.7c-0.601-0.3-4-1.399-4-4c0-0.3,0-1,0-1l-1.4-0.899
			c-0.4-0.301-0.6-0.701-0.6-1.101v-2.601h2c0-0.5,0-1,0-1.299c0-1.101,0.5-2,1.3-2.701"/>
		<path fill="none" stroke="#00DCE6" stroke-miterlimit="10" d="M478.3,106.999V102.1c0-4.501-1.2-5.301-6-5.301h-12v3.301
			c0,1.5,1.2,3.299,4,3.299s8.101,0,9.3,0c2,0,2.7,1.801,2.7,3.301c0,0.199,0,0.1,0,0.699h2v2.601c0,0.5-0.2,0.899-0.6,1.101
			l-1.4,0.899c0,0,0,0.8,0,1c0,2.601-3.399,3.7-4,4c-0.6,0.3-1.6,0.7-2.7,0.7c-1.1,0-2.1-0.4-2.699-0.7c-0.601-0.3-4-1.399-4-4
			c0-0.3,0-1,0-1l-1.4-0.899c-0.4-0.301-0.6-0.701-0.6-1.101v-2.601h2c0-0.5,0-1,0-1.299c0-1.101,0.5-2,1.3-2.701"/>
		<path fill="#1F2432" d="M461,101.998c-0.3,0.3-0.7,0.8-0.7,2c0,0.5,0,1.1,0,1.3c0,1.101,0.8,1.8,1.3,2"/>
		<path fill="none" stroke="#00DCE6" stroke-miterlimit="10" d="M461,101.998c-0.3,0.3-0.7,0.8-0.7,2c0,0.5,0,1.1,0,1.3
			c0,1.101,0.8,1.8,1.3,2"/>
		<path fill="#1F2432" d="M682.7,157.799c23.1,0,41.8-18.699,41.8-41.8c0-23.1-18.7-41.8-41.8-41.8c-23.101,0-41.8,18.7-41.8,41.8
			C640.9,139.1,659.6,157.799,682.7,157.799z"/>
		<path fill="#1F2432" d="M679.101,136.398v-23.7l5.4,5.399c0.9,0.9,2.6,1.301,3.4,0.5l1-1c0,0-3.301-5.1-4.5-6.699
			c-1.2-1.601-3.4-5.4-7.2-5.4h-6.2c-2.6,0-5.7,2.7-5.7,6.1v6.5c0,1.801,2.2,3.801,4,3.801"/>
		<path fill="none" stroke="#00DCE6" stroke-linejoin="round" stroke-miterlimit="10" d="M679.101,136.398v-23.7l5.4,5.399
			c0.9,0.9,2.6,1.301,3.4,0.5l1-1c0,0-3.301-5.1-4.5-6.699c-1.2-1.601-3.4-5.4-7.2-5.4h-6.2c-2.6,0-5.7,2.7-5.7,6.1v6.5
			c0,1.801,2.2,3.801,4,3.801"/>
		<path fill="none" stroke="#00DCE6" stroke-linejoin="round" stroke-miterlimit="10" d="M669.101,111.898v24.5"/>
		<path fill="none" stroke="#00DCE6" stroke-linejoin="round" stroke-miterlimit="10" d="M674.501,121.898v14.5"/>
		<path fill="#1F2432" stroke="#00DCE6" stroke-linejoin="round" stroke-miterlimit="10" d="M674.5,102.799c2.1,0,3.6-1.5,3.6-3.6
			v-1.8c0-2.2-1.5-3.6-3.6-3.6s-3.6,1.5-3.6,3.6v1.8C670.9,101.199,672.4,102.799,674.5,102.799z"/>
		<path fill="#1F2432" d="M680.9,135.398H700v-13.5h-19.1"/>
		<path fill="none" stroke="#00DCE6" stroke-linejoin="round" stroke-miterlimit="10" d="M680.9,135.398H700v-13.5h-19.1"/>
		<path fill="#1F2432" stroke="#00DCE6" stroke-linejoin="round" stroke-miterlimit="10" d="M692.701,121.799h-6.4v3.6h6.4V121.799z
			"/>
		<path fill="none" stroke="#00DCE6" stroke-linejoin="round" stroke-miterlimit="10" d="M697.2,131.799h-1.8"/>
		<path fill="none" stroke="#00DCE6" stroke-linejoin="round" stroke-miterlimit="10" d="M694.501,131.799h-1.8"/>
		<path fill="none" stroke="#00DCE6" stroke-miterlimit="16" stroke-dasharray="1,1" d="M44.1,74.4V30"/>
		<path fill="#00DCE6" d="M44.1,71c1.9,0,3.5,1.6,3.5,3.5S46,78,44.1,78s-3.5-1.6-3.5-3.5S42.2,71,44.1,71z"/>
		<path fill="#00DCE6" fill-opacity="0.2" d="M44.1,52.7c14.5,0,26.1-11.7,26.1-26.1c0-14.4-11.6-26.2-26.1-26.2S18,12.101,18,26.5
			S29.7,52.7,44.1,52.7z"/>
		<path fill="#00DCE6" d="M44.101,45.7c10.5,0,19.2-8.5,19.2-19.2c0-10.7-8.7-19.1-19.2-19.1s-19.2,8.5-19.2,19.2
			C24.9,37.3,33.601,45.7,44.101,45.7z"/>
		<path fill="none" stroke="#FFFFFF" d="M33.6,32.101V20.9l10.1-6.5l10.1,6.5v11.2"/>
		<path fill="none" stroke="#FFFFFF" stroke-linejoin="round" d="M33.6,32.1l10.1,6.6l10.1-6.6l-10.1-6.5L33.6,32.1z"/>
		<path fill="none" stroke="#FFFFFF" d="M53.9,20.801l-10.1,6.6l-10.1-6.5"/>
		<path fill="none" stroke="#FFFFFF" d="M43.7,14.301v11.2"/>
		<path fill="none" stroke="#FFFFFF" d="M43.7,27.5v11.2"/>
		<path fill="none" stroke="#00DCE6" stroke-miterlimit="16" stroke-dasharray="1,1" d="M151.1,74.4V30"/>
		<path fill="#00DCE6" d="M151.1,71c1.9,0,3.5,1.6,3.5,3.5S153,78,151.1,78s-3.5-1.6-3.5-3.5S149.2,71,151.1,71z"/>
		<path fill="#00DCE6" fill-opacity="0.2" d="M151.1,52.7c14.5,0,26.1-11.7,26.1-26.1c0-14.4-11.6-26.2-26.1-26.2
			S125,12.101,125,26.5S136.8,52.7,151.1,52.7z"/>
		<path fill="#00DCE6" d="M151.1,45.701c10.5,0,19.2-8.5,19.2-19.2c0-10.7-8.6-19.2-19.2-19.2s-19.2,8.5-19.2,19.2
			C131.9,37.201,140.6,45.701,151.1,45.701z"/>
		<path fill="none" stroke="#FFFFFF" d="M140.7,32.101V20.9l10.1-6.5l10.1,6.5v11.2"/>
		<path fill="none" stroke="#FFFFFF" stroke-linejoin="round" d="M140.7,32.1l10.1,6.6l10.1-6.6l-10.1-6.5L140.7,32.1z"/>
		<path fill="none" stroke="#FFFFFF" d="M160.9,20.801l-10.1,6.6l-10.1-6.5"/>
		<path fill="none" stroke="#FFFFFF" d="M150.8,14.301v11.2"/>
		<path fill="none" stroke="#FFFFFF" d="M150.8,27.5v11.2"/>
		<path fill="none" stroke="#00DCE6" stroke-miterlimit="16" stroke-dasharray="1,1" d="M257.2,74.4V30"/>
		<path fill="#00DCE6" d="M257.2,71c1.9,0,3.5,1.6,3.5,3.5s-1.6,3.5-3.5,3.5c-1.9,0-3.5-1.6-3.5-3.5S255.3,71,257.2,71z"/>
		<path fill="#00DCE6" fill-opacity="0.2" d="M257.2,52.7c14.5,0,26.1-11.7,26.1-26.1c0-14.4-11.7-26.2-26.1-26.2
			c-14.4,0-26.2,11.7-26.2,26.1S242.8,52.7,257.2,52.7z"/>
		<path fill="#00DCE6" d="M257.2,45.701c10.5,0,19.2-8.5,19.2-19.2c0-10.7-8.6-19.2-19.2-19.2c-10.6,0-19.2,8.6-19.2,19.2
			C238,37.101,246.6,45.701,257.2,45.701z"/>
		<path fill="none" stroke="#FFFFFF" d="M246.7,32.101V20.9l10.1-6.5l10.1,6.5v11.2"/>
		<path fill="none" stroke="#FFFFFF" stroke-linejoin="round" d="M246.7,32.1l10.1,6.6l10.1-6.6l-10.1-6.5L246.7,32.1z"/>
		<path fill="none" stroke="#FFFFFF" d="M266.9,20.801l-10.1,6.6l-10.1-6.5"/>
		<path fill="none" stroke="#FFFFFF" d="M256.8,14.301v11.2"/>
		<path fill="none" stroke="#FFFFFF" d="M256.8,27.5v11.2"/>
		<path fill="none" stroke="#00DCE6" stroke-miterlimit="16" stroke-dasharray="1,1" d="M365.8,74.4V30"/>
		<path fill="#00DCE6" d="M365.8,71c1.9,0,3.5,1.6,3.5,3.5s-1.6,3.5-3.5,3.5c-1.899,0-3.5-1.6-3.5-3.5S363.9,71,365.8,71z"/>
		<path fill="#00DCE6" fill-opacity="0.2" d="M365.8,52.7c14.5,0,26.101-11.7,26.101-26.1c0-14.4-11.7-26.2-26.101-26.2
			c-14.399,0-26.1,11.7-26.1,26.1S351.4,52.7,365.8,52.7z"/>
		<path fill="#00DCE6" d="M365.801,45.701c10.5,0,19.2-8.5,19.2-19.2c0-10.7-8.6-19.2-19.2-19.2c-10.6,0-19.2,8.5-19.2,19.2
			C346.601,37.201,355.201,45.701,365.801,45.701z"/>
		<path fill="none" stroke="#FFFFFF" d="M355.3,32.101V20.9l10.101-6.5l10.1,6.5v11.2"/>
		<path fill="none" stroke="#FFFFFF" stroke-linejoin="round" d="M355.3,32.1l10.101,6.6l10.1-6.6l-10.1-6.5L355.3,32.1z"/>
		<path fill="none" stroke="#FFFFFF" d="M375.5,20.801l-10.1,6.6l-10.101-6.5"/>
		<path fill="none" stroke="#FFFFFF" d="M365.4,14.301v11.2"/>
		<path fill="none" stroke="#FFFFFF" d="M365.4,27.5v11.2"/>
		<path fill="none" stroke="#00DCE6" stroke-miterlimit="16" stroke-dasharray="1,1" d="M471.2,74.4V30"/>
		<path fill="#00DCE6" d="M471.2,71c1.899,0,3.5,1.6,3.5,3.5S473.1,78,471.2,78c-1.9,0-3.5-1.6-3.5-3.5S469.3,71,471.2,71z"/>
		<path fill="#00DCE6" fill-opacity="0.2" d="M471.2,52.7c14.5,0,26.1-11.7,26.1-26.1c0-14.4-11.7-26.2-26.1-26.2
			c-14.4,0-26.2,11.7-26.2,26.1S456.8,52.7,471.2,52.7z"/>
		<path fill="#00DCE6" d="M471.2,45.701c10.5,0,19.2-8.5,19.2-19.2c0-10.7-8.601-19.2-19.2-19.2c-10.601,0-19.2,8.6-19.2,19.2
			C452,37.101,460.6,45.701,471.2,45.701z"/>
		<path fill="none" stroke="#FFFFFF" d="M460.7,32.101V20.9l10.1-6.5l10.101,6.5v11.2"/>
		<path fill="none" stroke="#FFFFFF" stroke-linejoin="round" d="M460.7,32.1l10.1,6.6l10.101-6.6L470.8,25.6L460.7,32.1z"/>
		<path fill="none" stroke="#FFFFFF" d="M480.9,20.801l-10.101,6.6l-10.1-6.5"/>
		<path fill="none" stroke="#FFFFFF" d="M470.8,14.301v11.2"/>
		<path fill="none" stroke="#FFFFFF" d="M470.8,27.5v11.2"/>
		<path fill="none" stroke="#00DCE6" stroke-miterlimit="16" stroke-dasharray="1,1" d="M575.699,74.4V30"/>
		<path fill="#00DCE6" d="M575.699,71c1.899,0,3.5,1.6,3.5,3.5s-1.601,3.5-3.5,3.5c-1.9,0-3.5-1.6-3.5-3.5S573.699,71,575.699,71z"
			/>
		<path fill="#00DCE6" fill-opacity="0.2" d="M575.7,52.7c14.5,0,26.1-11.7,26.1-26.1c0-14.4-11.7-26.2-26.1-26.2
			c-14.5,0-26.101,11.7-26.101,26.1S561.3,52.7,575.7,52.7z"/>
		<path fill="#00DCE6" d="M575.7,45.701c10.5,0,19.2-8.5,19.2-19.2c0-10.7-8.601-19.2-19.2-19.2c-10.5,0-19.2,8.5-19.2,19.2
			C556.5,37.201,565.1,45.701,575.7,45.701z"/>
		<path fill="none" stroke="#FFFFFF" d="M565.199,32.101V20.9l10.1-6.5l10.101,6.5v11.2"/>
		<path fill="none" stroke="#FFFFFF" stroke-linejoin="round" d="M565.199,32.1l10.1,6.6l10.101-6.6l-10.101-6.5L565.199,32.1z"/>
		<path fill="none" stroke="#FFFFFF" d="M585.399,20.801l-10.101,6.6l-10.1-6.5"/>
		<path fill="none" stroke="#FFFFFF" d="M575.3,14.301v11.2"/>
		<path fill="none" stroke="#FFFFFF" d="M575.3,27.5v11.2"/>
		<path fill="none" stroke="#00DCE6" stroke-miterlimit="16" stroke-dasharray="1,1" d="M680.899,74.4V30"/>
		<path fill="#00DCE6" d="M680.899,71c1.899,0,3.5,1.6,3.5,3.5s-1.601,3.5-3.5,3.5c-1.9,0-3.5-1.6-3.5-3.5S678.999,71,680.899,71z"
			/>
		<path fill="#00DCE6" fill-opacity="0.2" d="M680.9,52.7c14.5,0,26.1-11.7,26.1-26.1c0-14.4-11.7-26.2-26.1-26.2
			c-14.5,0-26.101,11.7-26.101,26.1S666.5,52.7,680.9,52.7z"/>
		<path fill="#00DCE6" d="M680.9,45.701c10.5,0,19.199-8.5,19.199-19.2c0-10.7-8.6-19.2-19.199-19.2c-10.5,0-19.2,8.5-19.2,19.2
			C661.7,37.201,670.3,45.701,680.9,45.701z"/>
		<path fill="none" stroke="#FFFFFF" d="M670.399,32.101V20.9l10.1-6.5l10.1,6.5v11.2"/>
		<path fill="none" stroke="#FFFFFF" stroke-linejoin="round" d="M670.399,32.1l10.1,6.6l10.1-6.6l-10.1-6.5L670.399,32.1z"/>
		<path fill="none" stroke="#FFFFFF" d="M690.599,20.801l-10.1,6.6l-10.1-6.5"/>
		<path fill="none" stroke="#FFFFFF" d="M680.5,14.301v11.2"/>
		<path fill="none" stroke="#FFFFFF" d="M680.5,27.5v11.2"/>
		<path fill="#00DCE6" fill-opacity="0.2" d="M85.9,121.8c4.5,0,8.2-3.7,8.2-8.2s-3.7-8.199-8.2-8.199s-8.2,3.699-8.2,8.199
			S81.4,121.8,85.9,121.8z"/>
		<path fill="#00DCE6" d="M85.9,116.801c1.8,0,3.3-1.5,3.3-3.3s-1.5-3.3-3.3-3.3c-1.8,0-3.3,1.5-3.3,3.3
			S84.101,116.801,85.9,116.801z"/>
		<path fill="none" stroke="#00DCE6" d="M100.4,121.8l8.2-8.2l-8.2-8.199"/>
		<path fill="none" stroke="#00DCE6" stroke-miterlimit="16" d="M85.9,113.5c16.1,0,6.7,0,22.7,0"/>
		<path fill="#00DCE6" fill-opacity="0.2" d="M192.4,121.8c4.5,0,8.2-3.7,8.2-8.2s-3.7-8.199-8.2-8.199s-8.2,3.699-8.2,8.199
			C184.1,118.1,187.8,121.8,192.4,121.8z"/>
		<path fill="#00DCE6" d="M192.401,116.801c1.8,0,3.3-1.5,3.3-3.3s-1.5-3.3-3.3-3.3c-1.8,0-3.3,1.5-3.3,3.3
			S190.601,116.801,192.401,116.801z"/>
		<path fill="none" stroke="#00DCE6" d="M206.9,121.8l8.2-8.2l-8.2-8.199"/>
		<path fill="none" stroke="#00DCE6" stroke-miterlimit="16" d="M192.4,113.5c16.1,0,6.7,0,22.7,0"/>
		<path fill="#00DCE6" fill-opacity="0.2" d="M298.8,121.8c4.5,0,8.2-3.7,8.2-8.2s-3.7-8.199-8.2-8.199s-8.2,3.699-8.2,8.199
			S294.3,121.8,298.8,121.8z"/>
		<path fill="#00DCE6" d="M298.8,116.801c1.8,0,3.3-1.5,3.3-3.3s-1.5-3.3-3.3-3.3c-1.8,0-3.3,1.5-3.3,3.3S297,116.801,298.8,116.801
			z"/>
		<path fill="none" stroke="#00DCE6" d="M313.3,121.8l8.2-8.2l-8.2-8.199"/>
		<path fill="none" stroke="#00DCE6" stroke-miterlimit="16" d="M298.8,113.5c16.101,0,6.7,0,22.7,0"/>
		<path fill="#00DCE6" fill-opacity="0.2" d="M405.3,121.8c4.5,0,8.2-3.7,8.2-8.2s-3.7-8.199-8.2-8.199s-8.2,3.699-8.2,8.199
			C397,118.1,400.7,121.8,405.3,121.8z"/>
		<path fill="#00DCE6" d="M405.3,116.801c1.8,0,3.3-1.5,3.3-3.3s-1.5-3.3-3.3-3.3s-3.3,1.5-3.3,3.3S403.5,116.801,405.3,116.801z"/>
		<path fill="none" stroke="#00DCE6" d="M419.699,121.8l8.2-8.2l-8.2-8.199"/>
		<path fill="none" stroke="#00DCE6" stroke-miterlimit="16" d="M405.3,113.5c16.101,0,6.7,0,22.7,0"/>
		<path fill="#00DCE6" fill-opacity="0.2" d="M511.7,121.8c4.5,0,8.2-3.7,8.2-8.2s-3.7-8.199-8.2-8.199s-8.2,3.699-8.2,8.199
			S507.2,121.8,511.7,121.8z"/>
		<path fill="#00DCE6" d="M511.7,116.801c1.8,0,3.3-1.5,3.3-3.3s-1.5-3.3-3.3-3.3s-3.3,1.5-3.3,3.3S509.9,116.801,511.7,116.801z"/>
		<path fill="none" stroke="#00DCE6" d="M526.2,121.8l8.2-8.2l-8.2-8.199"/>
		<path fill="none" stroke="#00DCE6" stroke-miterlimit="16" d="M511.7,113.5c16.1,0,6.7,0,22.7,0"/>
		<path fill="#00DCE6" fill-opacity="0.2" d="M618.2,121.8c4.5,0,8.2-3.7,8.2-8.2s-3.7-8.199-8.2-8.199S610,109.1,610,113.6
			C609.9,118.1,613.6,121.8,618.2,121.8z"/>
		<path fill="#00DCE6" d="M618.2,116.801c1.8,0,3.3-1.5,3.3-3.3s-1.5-3.3-3.3-3.3s-3.3,1.5-3.3,3.3S616.3,116.801,618.2,116.801z"/>
		<path fill="none" stroke="#00DCE6" d="M632.6,121.8l8.2-8.2l-8.2-8.199"/>
		<path fill="none" stroke="#00DCE6" stroke-miterlimit="16" d="M618.2,113.5c16.1,0,6.7,0,22.7,0"/>
		<text transform="matrix(1 0 0 1 26.5 182.5)" font-family="'MicrosoftYaHeiLight'" font-size="13">供货商</text>
		<text transform="matrix(1 0 0 1 133.5 182.5)" font-family="'MicrosoftYaHeiLight'" font-size="13">制造商</text>
		<text transform="matrix(1 0 0 1 240.5 182.5)" font-family="'MicrosoftYaHeiLight'" font-size="13">配送方</text>
		<text transform="matrix(1 0 0 1 332.5 182.5)" font-family="'MicrosoftYaHeiLight'" font-size="13">第三方物流</text>
		<text transform="matrix(1 0 0 1 455.5 182.5)" font-family="'MicrosoftYaHeiLight'" font-size="13">零售商</text>
		<text transform="matrix(1 0 0 1 565.5 182.5)" font-family="'MicrosoftYaHeiLight'" font-size="13">商店</text>
		<text transform="matrix(1 0 0 1 672.5 182.5)" font-family="'MicrosoftYaHeiLight'" font-size="13">顾客</text>
	</g>
</g>
</svg>
