<svg width="1170" height="227" viewBox="0 0 1170 227" fill="none" xmlns="http://www.w3.org/2000/svg">
<path d="M31.5932 0H1138.41C1155.89 0 1170 14.1116 1170 31.5932C1170 49.0747 1155.89 63.1863 1138.41 63.1863H31.5932C14.1116 63.1863 0 49.0747 0 31.5932C0 14.1116 14.1116 0 31.5932 0Z" fill="#00DCE6" fill-opacity="0.1"/>
<path d="M53.7087 196.931C79.2992 196.931 100.045 176.184 100.045 150.594C100.045 125.003 79.2992 104.257 53.7087 104.257C28.1182 104.257 7.37207 125.003 7.37207 150.594C7.37207 176.184 28.1182 196.931 53.7087 196.931Z" fill="#1F2432"/>
<path d="M100.046 161.125C105.838 161.125 110.577 156.386 110.577 150.594C110.577 144.802 105.838 140.063 100.046 140.063C94.2536 140.063 89.5146 144.802 89.5146 150.594C89.5146 156.386 94.2536 161.125 100.046 161.125Z" fill="#00DCE6" fill-opacity="0.2"/>
<path d="M100.045 154.806C102.362 154.806 104.258 152.911 104.258 150.594C104.258 148.277 102.362 146.382 100.045 146.382C97.7286 146.382 95.833 148.277 95.833 150.594C95.833 152.911 97.7286 154.806 100.045 154.806Z" fill="#00DCE6"/>
<path d="M230.631 196.931C256.221 196.931 276.967 176.184 276.967 150.594C276.967 125.003 256.221 104.257 230.631 104.257C205.04 104.257 184.294 125.003 184.294 150.594C184.294 176.184 205.04 196.931 230.631 196.931Z" fill="#1F2432"/>
<path d="M276.967 161.125C282.759 161.125 287.498 156.386 287.498 150.594C287.498 144.802 282.759 140.063 276.967 140.063C271.175 140.063 266.436 144.802 266.436 150.594C266.436 156.386 271.175 161.125 276.967 161.125Z" fill="#00DCE6" fill-opacity="0.2"/>
<path d="M276.967 154.806C279.284 154.806 281.18 152.911 281.18 150.594C281.18 148.277 279.284 146.382 276.967 146.382C274.65 146.382 272.755 148.277 272.755 150.594C272.755 152.911 274.65 154.806 276.967 154.806Z" fill="#00DCE6"/>
<path d="M407.552 89.514V35.8057" stroke="#00DCE6" stroke-miterlimit="16" stroke-dasharray="1 1"/>
<path d="M229.577 89.514V35.8057" stroke="#00DCE6" stroke-miterlimit="16" stroke-dasharray="1 1"/>
<path d="M585.527 89.514V35.8057" stroke="#00DCE6" stroke-miterlimit="16" stroke-dasharray="1 1"/>
<path d="M759.289 89.514V35.8057" stroke="#00DCE6" stroke-miterlimit="16" stroke-dasharray="1 1"/>
<path d="M938.317 89.514V35.8057" stroke="#00DCE6" stroke-miterlimit="16" stroke-dasharray="1 1"/>
<path d="M1115.24 89.514V35.8057" stroke="#00DCE6" stroke-miterlimit="16" stroke-dasharray="1 1"/>
<path d="M229.578 85.3015C231.894 85.3015 233.79 87.1971 233.79 89.5139C233.79 91.8308 231.894 93.7264 229.578 93.7264C227.261 93.7264 225.365 91.8308 225.365 89.5139C225.365 87.1971 227.261 85.3015 229.578 85.3015Z" fill="#00DCE6"/>
<path d="M407.552 85.3015C409.869 85.3015 411.765 87.1971 411.765 89.5139C411.765 91.8308 409.869 93.7264 407.552 93.7264C405.235 93.7264 403.34 91.8308 403.34 89.5139C403.34 87.1971 405.235 85.3015 407.552 85.3015Z" fill="#00DCE6"/>
<path d="M585.527 85.3015C587.844 85.3015 589.739 87.1971 589.739 89.5139C589.739 91.8308 587.844 93.7264 585.527 93.7264C583.21 93.7264 581.314 91.8308 581.314 89.5139C581.314 87.1971 583.21 85.3015 585.527 85.3015Z" fill="#00DCE6"/>
<path d="M759.29 85.3015C761.606 85.3015 763.502 87.1971 763.502 89.5139C763.502 91.8308 761.606 93.7264 759.29 93.7264C756.973 93.7264 755.077 91.8308 755.077 89.5139C755.077 87.1971 756.973 85.3015 759.29 85.3015Z" fill="#00DCE6"/>
<path d="M938.317 85.3015C940.634 85.3015 942.529 87.1971 942.529 89.5139C942.529 91.8308 940.634 93.7264 938.317 93.7264C936 93.7264 934.104 91.8308 934.104 89.5139C934.104 87.1971 936 85.3015 938.317 85.3015Z" fill="#00DCE6"/>
<path d="M1115.24 85.3015C1117.56 85.3015 1119.45 87.1971 1119.45 89.5139C1119.45 91.8308 1117.56 93.7264 1115.24 93.7264C1112.92 93.7264 1111.03 91.8308 1111.03 89.5139C1111.03 87.1971 1112.92 85.3015 1115.24 85.3015Z" fill="#00DCE6"/>
<path d="M406.499 63.1863C423.981 63.1863 438.093 49.0747 438.093 31.5932C438.093 14.1116 423.981 0 406.499 0C389.018 0 374.906 14.1116 374.906 31.5932C374.906 49.0747 389.018 63.1863 406.499 63.1863Z" fill="#00DCE6" fill-opacity="0.2"/>
<path d="M406.499 54.7614C419.242 54.7614 429.668 44.441 429.668 31.5931C429.668 18.7452 419.242 8.4248 406.499 8.4248C393.757 8.4248 383.331 18.7452 383.331 31.5931C383.331 44.441 393.757 54.7614 406.499 54.7614Z" fill="#00DCE6"/>
<path d="M393.861 38.333V24.7479L406.077 16.8496L418.293 24.7479V38.333" stroke="white"/>
<path d="M393.861 38.3331L406.077 46.3367L418.293 38.3331L406.077 30.4348L393.861 38.3331Z" stroke="white" stroke-linejoin="round"/>
<path d="M418.293 24.6426L406.077 32.6462L393.861 24.6426" stroke="white"/>
<path d="M406.078 16.8496V30.4347" stroke="white"/>
<path d="M406.078 32.7515V46.3365" stroke="white"/>
<path d="M584.474 63.1863C601.956 63.1863 616.067 49.0747 616.067 31.5932C616.067 14.1116 601.956 0 584.474 0C566.992 0 552.881 14.1116 552.881 31.5932C552.881 49.0747 566.992 63.1863 584.474 63.1863Z" fill="#00DCE6" fill-opacity="0.2"/>
<path d="M584.474 54.7614C597.217 54.7614 607.642 44.441 607.642 31.5931C607.642 18.7452 597.217 8.4248 584.474 8.4248C571.626 8.4248 561.306 18.7452 561.306 31.5931C561.306 44.441 571.731 54.7614 584.474 54.7614Z" fill="#00DCE6"/>
<path d="M571.837 38.333V24.7479L584.053 16.8496L596.269 24.7479V38.333" stroke="white"/>
<path d="M571.837 38.3331L584.053 46.3367L596.269 38.3331L584.053 30.4348L571.837 38.3331Z" stroke="white" stroke-linejoin="round"/>
<path d="M596.269 24.6426L584.053 32.6462L571.837 24.6426" stroke="white"/>
<path d="M584.053 16.8496V30.4347" stroke="white"/>
<path d="M584.053 32.7515V46.3365" stroke="white"/>
<path d="M759.289 63.1863C776.771 63.1863 790.883 49.0747 790.883 31.5932C790.883 14.1116 776.771 0 759.289 0C741.808 0 727.696 14.1116 727.696 31.5932C727.696 49.0747 741.808 63.1863 759.289 63.1863Z" fill="#00DCE6" fill-opacity="0.2"/>
<path d="M759.289 54.7614C772.137 54.7614 782.458 44.441 782.458 31.5931C782.458 18.7452 772.137 8.4248 759.289 8.4248C746.442 8.4248 736.121 18.7452 736.121 31.5931C736.121 44.441 746.547 54.7614 759.289 54.7614Z" fill="#00DCE6"/>
<path d="M746.652 38.333V24.7479L758.868 16.8496L771.084 24.7479V38.333" stroke="white"/>
<path d="M746.652 38.3331L758.868 46.3367L771.084 38.3331L758.868 30.4348L746.652 38.3331Z" stroke="white" stroke-linejoin="round"/>
<path d="M771.084 24.6426L758.868 32.6462L746.652 24.6426" stroke="white"/>
<path d="M758.868 16.8496V30.4347" stroke="white"/>
<path d="M758.868 32.7515V46.3365" stroke="white"/>
<path d="M938.317 63.1863C955.798 63.1863 969.91 49.0747 969.91 31.5932C969.91 14.1116 955.798 0 938.317 0C920.835 0 906.724 14.1116 906.724 31.5932C906.724 49.0747 920.835 63.1863 938.317 63.1863Z" fill="#00DCE6" fill-opacity="0.2"/>
<path d="M938.317 54.7614C951.165 54.7614 961.485 44.441 961.485 31.5931C961.485 18.7452 951.165 8.4248 938.317 8.4248C925.469 8.4248 915.148 18.7452 915.148 31.5931C915.148 44.441 925.574 54.7614 938.317 54.7614Z" fill="#00DCE6"/>
<path d="M925.68 38.333V24.7479L937.896 16.8496L950.112 24.7479V38.333" stroke="white"/>
<path d="M925.68 38.3331L937.896 46.3367L950.112 38.3331L937.896 30.4348L925.68 38.3331Z" stroke="white" stroke-linejoin="round"/>
<path d="M950.112 24.6426L937.896 32.6462L925.68 24.6426" stroke="white"/>
<path d="M937.896 16.8496V30.4347" stroke="white"/>
<path d="M937.896 32.7515V46.3365" stroke="white"/>
<path d="M1115.24 63.1863C1132.72 63.1863 1146.83 49.0747 1146.83 31.5932C1146.83 14.1116 1132.72 0 1115.24 0C1097.76 0 1083.65 14.1116 1083.65 31.5932C1083.65 49.0747 1097.76 63.1863 1115.24 63.1863Z" fill="#00DCE6" fill-opacity="0.2"/>
<path d="M1115.24 54.7614C1128.09 54.7614 1138.41 44.441 1138.41 31.5931C1138.41 18.7452 1128.09 8.4248 1115.24 8.4248C1102.39 8.4248 1092.07 18.7452 1092.07 31.5931C1092.07 44.441 1102.5 54.7614 1115.24 54.7614Z" fill="#00DCE6"/>
<path d="M1102.6 38.333V24.7479L1114.82 16.8496L1127.03 24.7479V38.333" stroke="white"/>
<path d="M1102.6 38.3331L1114.82 46.3367L1127.03 38.3331L1114.82 30.4348L1102.6 38.3331Z" stroke="white" stroke-linejoin="round"/>
<path d="M1127.03 24.6426L1114.82 32.5409L1102.6 24.6426" stroke="white"/>
<path d="M1114.82 16.8496V30.4347" stroke="white"/>
<path d="M1114.82 32.7515V46.3365" stroke="white"/>
<path d="M229.578 63.1863C247.059 63.1863 261.171 49.0747 261.171 31.5932C261.171 14.1116 247.059 0 229.578 0C212.096 0 197.984 14.1116 197.984 31.5932C197.984 49.0747 212.096 63.1863 229.578 63.1863Z" fill="#00DCE6" fill-opacity="0.2"/>
<path d="M229.577 54.7614C242.32 54.7614 252.746 44.441 252.746 31.5931C252.746 18.7452 242.32 8.4248 229.577 8.4248C216.835 8.4248 206.409 18.7452 206.409 31.5931C206.409 44.441 216.835 54.7614 229.577 54.7614Z" fill="#00DCE6"/>
<path d="M216.94 38.333V24.7479L229.156 16.8496L241.372 24.7479V38.333" stroke="white"/>
<path d="M216.94 38.3331L229.156 46.3367L241.372 38.3331L229.156 30.4348L216.94 38.3331Z" stroke="white" stroke-linejoin="round"/>
<path d="M241.372 24.6426L229.156 32.6462L216.94 24.6426" stroke="white"/>
<path d="M229.156 16.8496V30.4347" stroke="white"/>
<path d="M229.156 32.7515V46.3365" stroke="white"/>
<path d="M55.0781 89.514V35.8057" stroke="#00DCE6" stroke-miterlimit="16" stroke-dasharray="1 1"/>
<path d="M55.0777 85.3015C57.3945 85.3015 59.2901 87.1971 59.2901 89.5139C59.2901 91.8308 57.3945 93.7264 55.0777 93.7264C52.7608 93.7264 50.8652 91.8308 50.8652 89.5139C50.8652 87.1971 52.7608 85.3015 55.0777 85.3015Z" fill="#00DCE6"/>
<path d="M55.0775 63.1863C72.5591 63.1863 86.6707 49.0747 86.6707 31.5932C86.6707 14.1116 72.5591 0 55.0775 0C37.596 0 23.4844 14.1116 23.4844 31.5932C23.4844 49.0747 37.7013 63.1863 55.0775 63.1863Z" fill="#00DCE6" fill-opacity="0.2"/>
<path d="M55.0775 54.7614C67.8201 54.7614 78.2458 44.441 78.2458 31.5931C78.2458 18.7452 67.8201 8.4248 55.0775 8.4248C42.3349 8.4248 31.9092 18.7452 31.9092 31.5931C31.9092 44.441 42.3349 54.7614 55.0775 54.7614Z" fill="#00DCE6"/>
<path d="M42.4404 38.333V24.7479L54.6565 16.8496L66.8725 24.7479V38.333" stroke="white"/>
<path d="M42.4404 38.3331L54.6565 46.3367L66.8725 38.3331L54.6565 30.4348L42.4404 38.3331Z" stroke="white" stroke-linejoin="round"/>
<path d="M66.8725 24.6426L54.6565 32.6462L42.4404 24.7479" stroke="white"/>
<path d="M54.6562 16.8496V30.4347" stroke="white"/>
<path d="M54.6562 32.7515V46.3365" stroke="white"/>
<path d="M406.499 196.931C432.089 196.931 452.835 176.184 452.835 150.594C452.835 125.003 432.089 104.257 406.499 104.257C380.908 104.257 360.162 125.003 360.162 150.594C360.162 176.184 380.908 196.931 406.499 196.931Z" fill="#1F2432"/>
<path d="M452.836 161.125C458.628 161.125 463.367 156.386 463.367 150.594C463.367 144.802 458.628 140.063 452.836 140.063C447.044 140.063 442.305 144.802 442.305 150.594C442.305 156.386 447.044 161.125 452.836 161.125Z" fill="#00DCE6" fill-opacity="0.2"/>
<path d="M452.835 154.806C455.152 154.806 457.048 152.911 457.048 150.594C457.048 148.277 455.152 146.382 452.835 146.382C450.519 146.382 448.623 148.277 448.623 150.594C448.623 152.911 450.519 154.806 452.835 154.806Z" fill="#00DCE6"/>
<path d="M584.473 196.931C610.064 196.931 630.81 176.184 630.81 150.594C630.81 125.003 610.064 104.257 584.473 104.257C558.883 104.257 538.137 125.003 538.137 150.594C538.137 176.184 558.883 196.931 584.473 196.931Z" fill="#1F2432"/>
<path d="M630.81 161.125C636.602 161.125 641.341 156.386 641.341 150.594C641.341 144.802 636.602 140.063 630.81 140.063C625.018 140.063 620.279 144.802 620.279 150.594C620.279 156.386 625.018 161.125 630.81 161.125Z" fill="#00DCE6" fill-opacity="0.2"/>
<path d="M630.81 154.806C633.127 154.806 635.023 152.911 635.023 150.594C635.023 148.277 633.127 146.382 630.81 146.382C628.493 146.382 626.598 148.277 626.598 150.594C626.598 152.911 628.493 154.806 630.81 154.806Z" fill="#00DCE6"/>
<path d="M759.289 196.931C784.879 196.931 805.625 176.184 805.625 150.594C805.625 125.003 784.879 104.257 759.289 104.257C733.698 104.257 712.952 125.003 712.952 150.594C712.952 176.184 733.698 196.931 759.289 196.931Z" fill="#1F2432"/>
<path d="M805.626 161.125C811.418 161.125 816.157 156.386 816.157 150.594C816.157 144.802 811.418 140.063 805.626 140.063C799.834 140.063 795.095 144.802 795.095 150.594C795.095 156.386 799.834 161.125 805.626 161.125Z" fill="#00DCE6" fill-opacity="0.2"/>
<path d="M805.626 154.806C807.942 154.806 809.838 152.911 809.838 150.594C809.838 148.277 807.942 146.382 805.626 146.382C803.309 146.382 801.413 148.277 801.413 150.594C801.413 152.911 803.309 154.806 805.626 154.806Z" fill="#00DCE6"/>
<path d="M938.317 196.931C963.908 196.931 984.654 176.184 984.654 150.594C984.654 125.003 963.908 104.257 938.317 104.257C912.727 104.257 891.98 125.003 891.98 150.594C891.98 176.184 912.727 196.931 938.317 196.931Z" fill="#1F2432"/>
<path d="M984.654 161.125C990.446 161.125 995.185 156.386 995.185 150.594C995.185 144.802 990.446 140.063 984.654 140.063C978.862 140.063 974.123 144.802 974.123 150.594C974.123 156.386 978.862 161.125 984.654 161.125Z" fill="#00DCE6" fill-opacity="0.2"/>
<path d="M984.654 154.806C986.971 154.806 988.866 152.911 988.866 150.594C988.866 148.277 986.971 146.382 984.654 146.382C982.337 146.382 980.441 148.277 980.441 150.594C980.441 152.911 982.337 154.806 984.654 154.806Z" fill="#00DCE6"/>
<path d="M1115.24 196.931C1140.83 196.931 1161.58 176.184 1161.58 150.594C1161.58 125.003 1140.83 104.257 1115.24 104.257C1089.65 104.257 1068.9 125.003 1068.9 150.594C1068.9 176.184 1089.65 196.931 1115.24 196.931Z" fill="#1F2432"/>
<path d="M173.763 161.125L184.294 150.594L173.763 140.063" stroke="#00DCE6" stroke-width="2"/>
<path d="M100.045 150.594C120.58 150.594 163.758 150.594 184.293 150.594" stroke="#00DCE6" stroke-width="2" stroke-miterlimit="16"/>
<path d="M349.631 161.125L360.162 150.594L349.631 140.063" stroke="#00DCE6" stroke-width="2"/>
<path d="M275.914 150.594C296.45 150.594 339.627 150.594 360.162 150.594" stroke="#00DCE6" stroke-width="2" stroke-miterlimit="16"/>
<path d="M527.606 161.125L538.138 150.594L527.606 140.063" stroke="#00DCE6" stroke-width="2"/>
<path d="M453.889 150.594C474.424 150.594 517.602 150.594 538.137 150.594" stroke="#00DCE6" stroke-width="2" stroke-miterlimit="16"/>
<path d="M703.475 161.125L714.006 150.594L703.475 140.063" stroke="#00DCE6" stroke-width="2"/>
<path d="M629.758 150.594C650.293 150.594 693.471 150.594 714.006 150.594" stroke="#00DCE6" stroke-width="2" stroke-miterlimit="16"/>
<path d="M881.449 161.125L891.98 150.594L881.449 140.063" stroke="#00DCE6" stroke-width="2"/>
<path d="M807.732 150.594C828.268 150.594 871.445 150.594 891.981 150.594" stroke="#00DCE6" stroke-width="2" stroke-miterlimit="16"/>
<path d="M1058.37 161.125L1068.9 150.594L1058.37 140.063" stroke="#00DCE6" stroke-width="2"/>
<path d="M984.653 150.594C1005.19 150.594 1048.37 150.594 1068.9 150.594" stroke="#00DCE6" stroke-width="2" stroke-miterlimit="16"/>
<path d="M28.832 215.757C27.626 215.41 26.7471 214.986 26.1953 214.483C25.6484 213.975 25.375 213.35 25.375 212.608C25.375 211.768 25.7095 211.074 26.3784 210.528C27.0522 209.976 27.9263 209.7 29.0005 209.7C29.7329 209.7 30.3848 209.842 30.9561 210.125C31.5322 210.408 31.9766 210.799 32.2891 211.297C32.6064 211.795 32.7651 212.339 32.7651 212.93H31.3516C31.3516 212.285 31.1465 211.78 30.7363 211.414C30.3262 211.043 29.7476 210.857 29.0005 210.857C28.3071 210.857 27.7651 211.011 27.3745 211.319C26.9888 211.621 26.7959 212.044 26.7959 212.586C26.7959 213.02 26.979 213.389 27.3452 213.692C27.7163 213.99 28.3438 214.263 29.2275 214.512C30.1162 214.761 30.8096 215.037 31.3076 215.34C31.8105 215.637 32.1816 215.987 32.4209 216.387C32.665 216.787 32.7871 217.259 32.7871 217.801C32.7871 218.665 32.4502 219.358 31.7764 219.881C31.1025 220.398 30.2017 220.657 29.0737 220.657C28.3413 220.657 27.6577 220.518 27.0229 220.24C26.3882 219.956 25.8975 219.571 25.5508 219.082C25.209 218.594 25.0381 218.04 25.0381 217.42H26.4517C26.4517 218.064 26.6885 218.574 27.1621 218.95C27.6406 219.322 28.2778 219.507 29.0737 219.507C29.8159 219.507 30.3848 219.356 30.7803 219.053C31.1758 218.75 31.3735 218.338 31.3735 217.815C31.3735 217.293 31.1904 216.89 30.8242 216.607C30.458 216.319 29.7939 216.035 28.832 215.757ZM39.2764 219.727C38.749 220.347 37.9751 220.657 36.9546 220.657C36.1099 220.657 35.4653 220.413 35.021 219.925C34.5815 219.431 34.3594 218.704 34.3545 217.742V212.586H35.7095V217.705C35.7095 218.906 36.1978 219.507 37.1743 219.507C38.2095 219.507 38.8979 219.121 39.2397 218.35V212.586H40.5947V220.51H39.3057L39.2764 219.727ZM49.3545 216.636C49.3545 217.842 49.0786 218.814 48.5269 219.551C47.9751 220.288 47.228 220.657 46.2856 220.657C45.3237 220.657 44.5669 220.352 44.0151 219.741V223.557H42.6602V212.586H43.8979L43.9639 213.465C44.5156 212.781 45.2822 212.439 46.2637 212.439C47.2158 212.439 47.9678 212.798 48.5195 213.516C49.0762 214.234 49.3545 215.232 49.3545 216.511V216.636ZM47.9995 216.482C47.9995 215.589 47.8091 214.883 47.4282 214.365C47.0474 213.848 46.5249 213.589 45.8608 213.589C45.0405 213.589 44.4253 213.953 44.0151 214.68V218.467C44.4204 219.19 45.0405 219.551 45.8755 219.551C46.5249 219.551 47.04 219.295 47.4209 218.782C47.8066 218.264 47.9995 217.498 47.9995 216.482ZM57.7773 216.636C57.7773 217.842 57.5015 218.814 56.9497 219.551C56.3979 220.288 55.6509 220.657 54.7085 220.657C53.7466 220.657 52.9897 220.352 52.438 219.741V223.557H51.083V212.586H52.3208L52.3867 213.465C52.9385 212.781 53.7051 212.439 54.6865 212.439C55.6387 212.439 56.3906 212.798 56.9424 213.516C57.499 214.234 57.7773 215.232 57.7773 216.511V216.636ZM56.4224 216.482C56.4224 215.589 56.2319 214.883 55.8511 214.365C55.4702 213.848 54.9478 213.589 54.2837 213.589C53.4634 213.589 52.8481 213.953 52.438 214.68V218.467C52.8433 219.19 53.4634 219.551 54.2983 219.551C54.9478 219.551 55.4629 219.295 55.8438 218.782C56.2295 218.264 56.4224 217.498 56.4224 216.482ZM60.978 220.51H59.623V209.26H60.978V220.51ZM64.6255 220.51H63.2705V212.586H64.6255V220.51ZM63.1606 210.484C63.1606 210.264 63.2266 210.078 63.3584 209.927C63.4951 209.776 63.6953 209.7 63.959 209.7C64.2227 209.7 64.4229 209.776 64.5596 209.927C64.6963 210.078 64.7646 210.264 64.7646 210.484C64.7646 210.703 64.6963 210.886 64.5596 211.033C64.4229 211.179 64.2227 211.253 63.959 211.253C63.6953 211.253 63.4951 211.179 63.3584 211.033C63.2266 210.886 63.1606 210.703 63.1606 210.484ZM70.0894 220.657C69.0151 220.657 68.1411 220.305 67.4673 219.602C66.7935 218.894 66.4565 217.949 66.4565 216.768V216.519C66.4565 215.733 66.6055 215.032 66.9033 214.417C67.2061 213.797 67.626 213.313 68.1631 212.967C68.7051 212.615 69.291 212.439 69.9209 212.439C70.9512 212.439 71.752 212.779 72.3232 213.457C72.8945 214.136 73.1802 215.108 73.1802 216.372V216.936H67.8115C67.8311 217.718 68.0581 218.35 68.4927 218.833C68.9321 219.312 69.4888 219.551 70.1626 219.551C70.6411 219.551 71.0464 219.453 71.3784 219.258C71.7104 219.063 72.001 218.804 72.25 218.482L73.0776 219.126C72.4136 220.147 71.4175 220.657 70.0894 220.657ZM69.9209 213.552C69.374 213.552 68.915 213.753 68.5439 214.153C68.1729 214.549 67.9434 215.105 67.8555 215.823H71.8252V215.72C71.7861 215.032 71.6006 214.5 71.2686 214.124C70.9365 213.743 70.4873 213.552 69.9209 213.552ZM78.5854 213.802C78.3804 213.767 78.1582 213.75 77.9189 213.75C77.0303 213.75 76.4272 214.129 76.1099 214.885V220.51H74.7549V212.586H76.0732L76.0952 213.501C76.5396 212.793 77.1694 212.439 77.9849 212.439C78.2485 212.439 78.4487 212.473 78.5854 212.542V213.802Z" fill="#1F2432"/>
<path d="M200.963 216.336V220.51H199.557V209.846H203.49C204.657 209.846 205.57 210.144 206.229 210.74C206.894 211.336 207.226 212.124 207.226 213.106C207.226 214.141 206.901 214.939 206.251 215.501C205.607 216.057 204.682 216.336 203.476 216.336H200.963ZM200.963 215.186H203.49C204.242 215.186 204.818 215.01 205.219 214.658C205.619 214.302 205.819 213.789 205.819 213.12C205.819 212.486 205.619 211.978 205.219 211.597C204.818 211.216 204.269 211.018 203.571 211.004H200.963V215.186ZM212.638 213.802C212.433 213.767 212.211 213.75 211.972 213.75C211.083 213.75 210.48 214.129 210.163 214.885V220.51H208.808V212.586H210.126L210.148 213.501C210.592 212.793 211.222 212.439 212.038 212.439C212.301 212.439 212.501 212.473 212.638 212.542V213.802ZM213.385 216.475C213.385 215.698 213.537 215 213.839 214.38C214.147 213.76 214.572 213.281 215.114 212.945C215.661 212.608 216.283 212.439 216.981 212.439C218.061 212.439 218.932 212.813 219.596 213.56C220.265 214.307 220.6 215.301 220.6 216.541V216.636C220.6 217.407 220.451 218.101 220.153 218.716C219.86 219.326 219.438 219.802 218.886 220.144C218.339 220.486 217.709 220.657 216.996 220.657C215.922 220.657 215.05 220.283 214.381 219.536C213.717 218.789 213.385 217.801 213.385 216.57V216.475ZM214.748 216.636C214.748 217.515 214.95 218.22 215.355 218.753C215.766 219.285 216.312 219.551 216.996 219.551C217.685 219.551 218.231 219.282 218.637 218.745C219.042 218.203 219.245 217.447 219.245 216.475C219.245 215.606 219.037 214.903 218.622 214.365C218.212 213.823 217.665 213.552 216.981 213.552C216.312 213.552 215.773 213.819 215.363 214.351C214.953 214.883 214.748 215.645 214.748 216.636ZM221.969 216.482C221.969 215.266 222.257 214.29 222.833 213.552C223.41 212.81 224.164 212.439 225.097 212.439C226.024 212.439 226.759 212.757 227.301 213.391V209.26H228.656V220.51H227.411L227.345 219.661C226.803 220.325 226.049 220.657 225.082 220.657C224.164 220.657 223.415 220.281 222.833 219.529C222.257 218.777 221.969 217.796 221.969 216.585V216.482ZM223.324 216.636C223.324 217.534 223.51 218.238 223.881 218.745C224.252 219.253 224.765 219.507 225.419 219.507C226.278 219.507 226.906 219.121 227.301 218.35V214.71C226.896 213.963 226.273 213.589 225.434 213.589C224.77 213.589 224.252 213.845 223.881 214.358C223.51 214.871 223.324 215.63 223.324 216.636ZM235.658 219.727C235.131 220.347 234.357 220.657 233.336 220.657C232.492 220.657 231.847 220.413 231.403 219.925C230.963 219.431 230.741 218.704 230.736 217.742V212.586H232.091V217.705C232.091 218.906 232.58 219.507 233.556 219.507C234.591 219.507 235.28 219.121 235.622 218.35V212.586H236.977V220.51H235.688L235.658 219.727ZM242.221 219.551C242.704 219.551 243.126 219.405 243.488 219.112C243.849 218.819 244.049 218.452 244.088 218.013H245.37C245.346 218.467 245.189 218.899 244.901 219.309C244.613 219.719 244.228 220.047 243.744 220.291C243.266 220.535 242.758 220.657 242.221 220.657C241.142 220.657 240.282 220.298 239.643 219.58C239.008 218.858 238.69 217.871 238.69 216.621V216.394C238.69 215.623 238.832 214.937 239.115 214.336C239.398 213.736 239.804 213.269 240.331 212.937C240.863 212.605 241.491 212.439 242.213 212.439C243.102 212.439 243.839 212.705 244.425 213.238C245.016 213.77 245.331 214.461 245.37 215.31H244.088C244.049 214.798 243.854 214.378 243.502 214.051C243.156 213.719 242.726 213.552 242.213 213.552C241.525 213.552 240.99 213.802 240.609 214.3C240.233 214.793 240.045 215.508 240.045 216.446V216.702C240.045 217.615 240.233 218.318 240.609 218.811C240.985 219.304 241.522 219.551 242.221 219.551ZM250.182 220.657C249.108 220.657 248.234 220.305 247.56 219.602C246.886 218.894 246.549 217.949 246.549 216.768V216.519C246.549 215.733 246.698 215.032 246.996 214.417C247.299 213.797 247.719 213.313 248.256 212.967C248.798 212.615 249.384 212.439 250.014 212.439C251.044 212.439 251.845 212.779 252.416 213.457C252.987 214.136 253.273 215.108 253.273 216.372V216.936H247.904C247.924 217.718 248.151 218.35 248.585 218.833C249.025 219.312 249.582 219.551 250.255 219.551C250.734 219.551 251.139 219.453 251.471 219.258C251.803 219.063 252.094 218.804 252.343 218.482L253.17 219.126C252.506 220.147 251.51 220.657 250.182 220.657ZM250.014 213.552C249.467 213.552 249.008 213.753 248.637 214.153C248.266 214.549 248.036 215.105 247.948 215.823H251.918V215.72C251.879 215.032 251.693 214.5 251.361 214.124C251.029 213.743 250.58 213.552 250.014 213.552ZM258.678 213.802C258.473 213.767 258.251 213.75 258.012 213.75C257.123 213.75 256.52 214.129 256.203 214.885V220.51H254.848V212.586H256.166L256.188 213.501C256.632 212.793 257.262 212.439 258.078 212.439C258.341 212.439 258.542 212.473 258.678 212.542V213.802Z" fill="#1F2432"/>
<path d="M371.134 220.51V209.846H374.145C375.072 209.846 375.893 210.052 376.605 210.462C377.318 210.872 377.868 211.455 378.253 212.212C378.644 212.969 378.842 213.838 378.847 214.82V215.501C378.847 216.507 378.651 217.388 378.261 218.145C377.875 218.902 377.321 219.483 376.598 219.888C375.88 220.293 375.043 220.501 374.086 220.51H371.134ZM372.541 211.004V219.361H374.02C375.104 219.361 375.946 219.024 376.547 218.35C377.152 217.676 377.455 216.717 377.455 215.471V214.849C377.455 213.638 377.169 212.698 376.598 212.029C376.032 211.355 375.226 211.013 374.181 211.004H372.541ZM382.238 220.51H380.883V212.586H382.238V220.51ZM380.773 210.484C380.773 210.264 380.839 210.078 380.971 209.927C381.107 209.776 381.308 209.7 381.571 209.7C381.835 209.7 382.035 209.776 382.172 209.927C382.309 210.078 382.377 210.264 382.377 210.484C382.377 210.703 382.309 210.886 382.172 211.033C382.035 211.179 381.835 211.253 381.571 211.253C381.308 211.253 381.107 211.179 380.971 211.033C380.839 210.886 380.773 210.703 380.773 210.484ZM389.027 218.408C389.027 218.042 388.888 217.759 388.61 217.559C388.336 217.354 387.855 217.178 387.167 217.031C386.483 216.885 385.939 216.709 385.534 216.504C385.133 216.299 384.835 216.055 384.64 215.772C384.45 215.489 384.354 215.152 384.354 214.761C384.354 214.112 384.628 213.562 385.175 213.113C385.727 212.664 386.43 212.439 387.284 212.439C388.183 212.439 388.91 212.671 389.467 213.135C390.028 213.599 390.309 214.192 390.309 214.915H388.947C388.947 214.544 388.788 214.224 388.471 213.955C388.158 213.687 387.763 213.552 387.284 213.552C386.791 213.552 386.405 213.66 386.127 213.875C385.849 214.09 385.709 214.37 385.709 214.717C385.709 215.044 385.839 215.291 386.098 215.457C386.356 215.623 386.823 215.781 387.497 215.933C388.175 216.084 388.725 216.265 389.145 216.475C389.564 216.685 389.875 216.939 390.075 217.237C390.28 217.53 390.382 217.888 390.382 218.313C390.382 219.021 390.099 219.59 389.533 220.02C388.966 220.445 388.231 220.657 387.328 220.657C386.693 220.657 386.132 220.545 385.644 220.32C385.155 220.095 384.772 219.783 384.494 219.383C384.22 218.977 384.083 218.54 384.083 218.072H385.438C385.463 218.526 385.644 218.887 385.98 219.156C386.322 219.419 386.771 219.551 387.328 219.551C387.841 219.551 388.251 219.448 388.559 219.243C388.871 219.033 389.027 218.755 389.027 218.408ZM393.986 210.667V212.586H395.465V213.633H393.986V218.548C393.986 218.865 394.052 219.104 394.184 219.265C394.315 219.422 394.54 219.5 394.857 219.5C395.014 219.5 395.229 219.47 395.502 219.412V220.51C395.146 220.608 394.799 220.657 394.462 220.657C393.856 220.657 393.4 220.474 393.092 220.108C392.785 219.741 392.631 219.221 392.631 218.548V213.633H391.188V212.586H392.631V210.667H393.986ZM400.885 213.802C400.68 213.767 400.458 213.75 400.219 213.75C399.33 213.75 398.727 214.129 398.41 214.885V220.51H397.055V212.586H398.373L398.395 213.501C398.839 212.793 399.469 212.439 400.285 212.439C400.548 212.439 400.749 212.473 400.885 212.542V213.802ZM403.61 220.51H402.255V212.586H403.61V220.51ZM402.145 210.484C402.145 210.264 402.211 210.078 402.343 209.927C402.479 209.776 402.68 209.7 402.943 209.7C403.207 209.7 403.407 209.776 403.544 209.927C403.681 210.078 403.749 210.264 403.749 210.484C403.749 210.703 403.681 210.886 403.544 211.033C403.407 211.179 403.207 211.253 402.943 211.253C402.68 211.253 402.479 211.179 402.343 211.033C402.211 210.886 402.145 210.703 402.145 210.484ZM412.494 216.636C412.494 217.847 412.216 218.821 411.659 219.558C411.103 220.291 410.355 220.657 409.418 220.657C408.417 220.657 407.643 220.303 407.096 219.595L407.03 220.51H405.785V209.26H407.14V213.457C407.687 212.779 408.441 212.439 409.403 212.439C410.365 212.439 411.12 212.803 411.667 213.531C412.218 214.258 412.494 215.254 412.494 216.519V216.636ZM411.139 216.482C411.139 215.559 410.961 214.846 410.604 214.344C410.248 213.841 409.735 213.589 409.066 213.589C408.173 213.589 407.531 214.004 407.14 214.834V218.262C407.555 219.092 408.202 219.507 409.081 219.507C409.73 219.507 410.236 219.256 410.597 218.753C410.958 218.25 411.139 217.493 411.139 216.482ZM419.101 219.727C418.573 220.347 417.799 220.657 416.779 220.657C415.934 220.657 415.29 220.413 414.845 219.925C414.406 219.431 414.184 218.704 414.179 217.742V212.586H415.534V217.705C415.534 218.906 416.022 219.507 416.999 219.507C418.034 219.507 418.722 219.121 419.064 218.35V212.586H420.419V220.51H419.13L419.101 219.727ZM424.323 210.667V212.586H425.802V213.633H424.323V218.548C424.323 218.865 424.389 219.104 424.521 219.265C424.652 219.422 424.877 219.5 425.194 219.5C425.351 219.5 425.565 219.47 425.839 219.412V220.51C425.482 220.608 425.136 220.657 424.799 220.657C424.193 220.657 423.737 220.474 423.429 220.108C423.122 219.741 422.968 219.221 422.968 218.548V213.633H421.525V212.586H422.968V210.667H424.323ZM426.886 216.475C426.886 215.698 427.038 215 427.34 214.38C427.648 213.76 428.073 213.281 428.615 212.945C429.162 212.608 429.784 212.439 430.482 212.439C431.562 212.439 432.433 212.813 433.097 213.56C433.766 214.307 434.101 215.301 434.101 216.541V216.636C434.101 217.407 433.952 218.101 433.654 218.716C433.361 219.326 432.938 219.802 432.387 220.144C431.84 220.486 431.21 220.657 430.497 220.657C429.423 220.657 428.551 220.283 427.882 219.536C427.218 218.789 426.886 217.801 426.886 216.57V216.475ZM428.249 216.636C428.249 217.515 428.451 218.22 428.856 218.753C429.267 219.285 429.813 219.551 430.497 219.551C431.186 219.551 431.732 219.282 432.138 218.745C432.543 218.203 432.746 217.447 432.746 216.475C432.746 215.606 432.538 214.903 432.123 214.365C431.713 213.823 431.166 213.552 430.482 213.552C429.813 213.552 429.274 213.819 428.864 214.351C428.454 214.883 428.249 215.645 428.249 216.636ZM439.63 213.802C439.425 213.767 439.203 213.75 438.964 213.75C438.075 213.75 437.472 214.129 437.155 214.885V220.51H435.8V212.586H437.118L437.14 213.501C437.584 212.793 438.214 212.439 439.03 212.439C439.293 212.439 439.494 212.473 439.63 212.542V213.802Z" fill="#1F2432"/>
<path d="M574.612 214.519H575.63C576.27 214.51 576.773 214.341 577.139 214.014C577.505 213.687 577.688 213.245 577.688 212.688C577.688 211.438 577.066 210.813 575.821 210.813C575.235 210.813 574.766 210.982 574.415 211.319C574.068 211.651 573.895 212.093 573.895 212.644H572.54C572.54 211.8 572.847 211.099 573.462 210.542C574.083 209.981 574.869 209.7 575.821 209.7C576.827 209.7 577.615 209.966 578.187 210.498C578.758 211.031 579.043 211.77 579.043 212.718C579.043 213.181 578.892 213.631 578.589 214.065C578.292 214.5 577.884 214.824 577.366 215.039C577.952 215.225 578.404 215.532 578.721 215.962C579.043 216.392 579.205 216.917 579.205 217.537C579.205 218.494 578.892 219.253 578.267 219.815C577.642 220.376 576.829 220.657 575.828 220.657C574.827 220.657 574.012 220.386 573.382 219.844C572.757 219.302 572.444 218.587 572.444 217.698H573.807C573.807 218.26 573.99 218.709 574.356 219.046C574.722 219.383 575.213 219.551 575.828 219.551C576.482 219.551 576.983 219.38 577.33 219.038C577.676 218.697 577.85 218.206 577.85 217.566C577.85 216.946 577.659 216.47 577.278 216.138C576.897 215.806 576.348 215.635 575.63 215.625H574.612V214.519ZM582.823 216.336V220.51H581.417V209.846H585.35C586.517 209.846 587.43 210.144 588.089 210.74C588.753 211.336 589.085 212.124 589.085 213.106C589.085 214.141 588.76 214.939 588.111 215.501C587.466 216.057 586.541 216.336 585.335 216.336H582.823ZM582.823 215.186H585.35C586.102 215.186 586.678 215.01 587.078 214.658C587.479 214.302 587.679 213.789 587.679 213.12C587.679 212.486 587.479 211.978 587.078 211.597C586.678 211.216 586.128 211.018 585.43 211.004H582.823V215.186ZM592.293 219.361H597.347V220.51H590.879V209.846H592.293V219.361Z" fill="#1F2432"/>
<path d="M736.678 216.197H734.173V220.51H732.76V209.846H736.29C737.491 209.846 738.414 210.12 739.059 210.667C739.708 211.214 740.033 212.01 740.033 213.054C740.033 213.719 739.852 214.297 739.491 214.79C739.134 215.283 738.636 215.652 737.997 215.896L740.501 220.423V220.51H738.993L736.678 216.197ZM734.173 215.047H736.334C737.032 215.047 737.586 214.866 737.997 214.505C738.412 214.143 738.619 213.66 738.619 213.054C738.619 212.395 738.421 211.89 738.026 211.538C737.635 211.187 737.069 211.009 736.327 211.004H734.173V215.047ZM745.086 220.657C744.012 220.657 743.138 220.305 742.464 219.602C741.791 218.894 741.454 217.949 741.454 216.768V216.519C741.454 215.733 741.603 215.032 741.9 214.417C742.203 213.797 742.623 213.313 743.16 212.967C743.702 212.615 744.288 212.439 744.918 212.439C745.948 212.439 746.749 212.779 747.32 213.457C747.892 214.136 748.177 215.108 748.177 216.372V216.936H742.809C742.828 217.718 743.055 218.35 743.49 218.833C743.929 219.312 744.486 219.551 745.16 219.551C745.638 219.551 746.043 219.453 746.375 219.258C746.708 219.063 746.998 218.804 747.247 218.482L748.075 219.126C747.411 220.147 746.415 220.657 745.086 220.657ZM744.918 213.552C744.371 213.552 743.912 213.753 743.541 214.153C743.17 214.549 742.94 215.105 742.853 215.823H746.822V215.72C746.783 215.032 746.598 214.5 746.266 214.124C745.934 213.743 745.484 213.552 744.918 213.552ZM751.59 210.667V212.586H753.07V213.633H751.59V218.548C751.59 218.865 751.656 219.104 751.788 219.265C751.92 219.422 752.145 219.5 752.462 219.5C752.618 219.5 752.833 219.47 753.106 219.412V220.51C752.75 220.608 752.403 220.657 752.066 220.657C751.461 220.657 751.004 220.474 750.697 220.108C750.389 219.741 750.235 219.221 750.235 218.548V213.633H748.792V212.586H750.235V210.667H751.59ZM759.552 220.51C759.474 220.354 759.41 220.076 759.361 219.676C758.731 220.33 757.979 220.657 757.105 220.657C756.324 220.657 755.682 220.437 755.179 219.998C754.681 219.553 754.432 218.992 754.432 218.313C754.432 217.488 754.745 216.848 755.37 216.394C756 215.935 756.883 215.706 758.021 215.706H759.339V215.083C759.339 214.61 759.198 214.234 758.915 213.955C758.631 213.672 758.214 213.531 757.662 213.531C757.179 213.531 756.773 213.653 756.446 213.897C756.119 214.141 755.956 214.436 755.956 214.783H754.593C754.593 214.387 754.732 214.007 755.011 213.64C755.294 213.269 755.675 212.976 756.153 212.761C756.637 212.547 757.167 212.439 757.743 212.439C758.656 212.439 759.371 212.669 759.889 213.128C760.406 213.582 760.675 214.209 760.694 215.01V218.657C760.694 219.385 760.787 219.964 760.973 220.393V220.51H759.552ZM757.303 219.478C757.728 219.478 758.131 219.368 758.512 219.148C758.893 218.928 759.168 218.643 759.339 218.291V216.665H758.277C756.617 216.665 755.787 217.151 755.787 218.123C755.787 218.548 755.929 218.88 756.212 219.119C756.495 219.358 756.859 219.478 757.303 219.478ZM764.291 220.51H762.936V212.586H764.291V220.51ZM762.826 210.484C762.826 210.264 762.892 210.078 763.023 209.927C763.16 209.776 763.36 209.7 763.624 209.7C763.888 209.7 764.088 209.776 764.225 209.927C764.361 210.078 764.43 210.264 764.43 210.484C764.43 210.703 764.361 210.886 764.225 211.033C764.088 211.179 763.888 211.253 763.624 211.253C763.36 211.253 763.16 211.179 763.023 211.033C762.892 210.886 762.826 210.703 762.826 210.484ZM767.938 220.51H766.583V209.26H767.938V220.51ZM773.402 220.657C772.328 220.657 771.454 220.305 770.78 219.602C770.106 218.894 769.769 217.949 769.769 216.768V216.519C769.769 215.733 769.918 215.032 770.216 214.417C770.519 213.797 770.938 213.313 771.476 212.967C772.018 212.615 772.604 212.439 773.233 212.439C774.264 212.439 775.064 212.779 775.636 213.457C776.207 214.136 776.493 215.108 776.493 216.372V216.936H771.124C771.144 217.718 771.371 218.35 771.805 218.833C772.245 219.312 772.801 219.551 773.475 219.551C773.954 219.551 774.359 219.453 774.691 219.258C775.023 219.063 775.313 218.804 775.562 218.482L776.39 219.126C775.726 220.147 774.73 220.657 773.402 220.657ZM773.233 213.552C772.687 213.552 772.228 213.753 771.856 214.153C771.485 214.549 771.256 215.105 771.168 215.823H775.138V215.72C775.099 215.032 774.913 214.5 774.581 214.124C774.249 213.743 773.8 213.552 773.233 213.552ZM781.898 213.802C781.693 213.767 781.471 213.75 781.231 213.75C780.343 213.75 779.74 214.129 779.422 214.885V220.51H778.067V212.586H779.386L779.408 213.501C779.852 212.793 780.482 212.439 781.297 212.439C781.561 212.439 781.761 212.473 781.898 212.542V213.802Z" fill="#1F2432"/>
<path d="M923.256 215.757C922.05 215.41 921.171 214.986 920.619 214.483C920.072 213.975 919.799 213.35 919.799 212.608C919.799 211.768 920.133 211.074 920.802 210.528C921.476 209.976 922.35 209.7 923.424 209.7C924.157 209.7 924.809 209.842 925.38 210.125C925.956 210.408 926.4 210.799 926.713 211.297C927.03 211.795 927.189 212.339 927.189 212.93H925.775C925.775 212.285 925.57 211.78 925.16 211.414C924.75 211.043 924.171 210.857 923.424 210.857C922.731 210.857 922.189 211.011 921.798 211.319C921.413 211.621 921.22 212.044 921.22 212.586C921.22 213.02 921.403 213.389 921.769 213.692C922.14 213.99 922.768 214.263 923.651 214.512C924.54 214.761 925.233 215.037 925.731 215.34C926.234 215.637 926.605 215.987 926.845 216.387C927.089 216.787 927.211 217.259 927.211 217.801C927.211 218.665 926.874 219.358 926.2 219.881C925.526 220.398 924.625 220.657 923.498 220.657C922.765 220.657 922.082 220.518 921.447 220.24C920.812 219.956 920.321 219.571 919.975 219.082C919.633 218.594 919.462 218.04 919.462 217.42H920.875C920.875 218.064 921.112 218.574 921.586 218.95C922.064 219.322 922.702 219.507 923.498 219.507C924.24 219.507 924.809 219.356 925.204 219.053C925.6 218.75 925.797 218.338 925.797 217.815C925.797 217.293 925.614 216.89 925.248 216.607C924.882 216.319 924.218 216.035 923.256 215.757ZM930.646 210.667V212.586H932.125V213.633H930.646V218.548C930.646 218.865 930.712 219.104 930.844 219.265C930.976 219.422 931.2 219.5 931.518 219.5C931.674 219.5 931.889 219.47 932.162 219.412V220.51C931.806 220.608 931.459 220.657 931.122 220.657C930.517 220.657 930.06 220.474 929.752 220.108C929.445 219.741 929.291 219.221 929.291 218.548V213.633H927.848V212.586H929.291V210.667H930.646ZM933.209 216.475C933.209 215.698 933.361 215 933.664 214.38C933.971 213.76 934.396 213.281 934.938 212.945C935.485 212.608 936.107 212.439 936.806 212.439C937.885 212.439 938.756 212.813 939.42 213.56C940.089 214.307 940.424 215.301 940.424 216.541V216.636C940.424 217.407 940.275 218.101 939.977 218.716C939.684 219.326 939.262 219.802 938.71 220.144C938.163 220.486 937.533 220.657 936.82 220.657C935.746 220.657 934.875 220.283 934.206 219.536C933.542 218.789 933.209 217.801 933.209 216.57V216.475ZM934.572 216.636C934.572 217.515 934.774 218.22 935.18 218.753C935.59 219.285 936.137 219.551 936.82 219.551C937.509 219.551 938.056 219.282 938.461 218.745C938.866 218.203 939.069 217.447 939.069 216.475C939.069 215.606 938.861 214.903 938.446 214.365C938.036 213.823 937.489 213.552 936.806 213.552C936.137 213.552 935.597 213.819 935.187 214.351C934.777 214.883 934.572 215.645 934.572 216.636ZM945.954 213.802C945.749 213.767 945.526 213.75 945.287 213.75C944.398 213.75 943.795 214.129 943.478 214.885V220.51H942.123V212.586H943.441L943.463 213.501C943.908 212.793 944.538 212.439 945.353 212.439C945.617 212.439 945.817 212.473 945.954 212.542V213.802ZM950.348 220.657C949.274 220.657 948.4 220.305 947.726 219.602C947.052 218.894 946.715 217.949 946.715 216.768V216.519C946.715 215.733 946.864 215.032 947.162 214.417C947.465 213.797 947.885 213.313 948.422 212.967C948.964 212.615 949.55 212.439 950.18 212.439C951.21 212.439 952.011 212.779 952.582 213.457C953.153 214.136 953.439 215.108 953.439 216.372V216.936H948.07C948.09 217.718 948.317 218.35 948.751 218.833C949.191 219.312 949.748 219.551 950.421 219.551C950.9 219.551 951.305 219.453 951.637 219.258C951.969 219.063 952.26 218.804 952.509 218.482L953.336 219.126C952.672 220.147 951.676 220.657 950.348 220.657ZM950.18 213.552C949.633 213.552 949.174 213.753 948.803 214.153C948.432 214.549 948.202 215.105 948.114 215.823H952.084V215.72C952.045 215.032 951.859 214.5 951.527 214.124C951.195 213.743 950.746 213.552 950.18 213.552Z" fill="#1F2432"/>
<path d="M1089.69 217.127C1089.56 218.255 1089.14 219.126 1088.44 219.741C1087.74 220.352 1086.81 220.657 1085.65 220.657C1084.39 220.657 1083.38 220.205 1082.62 219.302C1081.86 218.399 1081.48 217.19 1081.48 215.677V214.651C1081.48 213.66 1081.66 212.788 1082.01 212.036C1082.37 211.284 1082.87 210.708 1083.52 210.308C1084.17 209.903 1084.92 209.7 1085.77 209.7C1086.91 209.7 1087.82 210.017 1088.5 210.652C1089.18 211.282 1089.58 212.156 1089.69 213.274H1088.28C1088.16 212.425 1087.89 211.809 1087.48 211.428C1087.08 211.048 1086.51 210.857 1085.77 210.857C1084.88 210.857 1084.17 211.189 1083.66 211.853C1083.15 212.517 1082.9 213.462 1082.9 214.688V215.72C1082.9 216.878 1083.14 217.798 1083.62 218.482C1084.1 219.165 1084.78 219.507 1085.65 219.507C1086.43 219.507 1087.03 219.331 1087.44 218.98C1087.86 218.623 1088.14 218.006 1088.28 217.127H1089.69ZM1096.3 219.727C1095.77 220.347 1095 220.657 1093.98 220.657C1093.13 220.657 1092.49 220.413 1092.04 219.925C1091.6 219.431 1091.38 218.704 1091.38 217.742V212.586H1092.73V217.705C1092.73 218.906 1093.22 219.507 1094.2 219.507C1095.23 219.507 1095.92 219.121 1096.26 218.35V212.586H1097.62V220.51H1096.33L1096.3 219.727ZM1104.3 218.408C1104.3 218.042 1104.16 217.759 1103.88 217.559C1103.61 217.354 1103.13 217.178 1102.44 217.031C1101.75 216.885 1101.21 216.709 1100.8 216.504C1100.4 216.299 1100.11 216.055 1099.91 215.772C1099.72 215.489 1099.62 215.152 1099.62 214.761C1099.62 214.112 1099.9 213.562 1100.45 213.113C1101 212.664 1101.7 212.439 1102.55 212.439C1103.45 212.439 1104.18 212.671 1104.74 213.135C1105.3 213.599 1105.58 214.192 1105.58 214.915H1104.22C1104.22 214.544 1104.06 214.224 1103.74 213.955C1103.43 213.687 1103.03 213.552 1102.55 213.552C1102.06 213.552 1101.68 213.66 1101.4 213.875C1101.12 214.09 1100.98 214.37 1100.98 214.717C1100.98 215.044 1101.11 215.291 1101.37 215.457C1101.63 215.623 1102.09 215.781 1102.77 215.933C1103.45 216.084 1104 216.265 1104.42 216.475C1104.83 216.685 1105.15 216.939 1105.35 217.237C1105.55 217.53 1105.65 217.888 1105.65 218.313C1105.65 219.021 1105.37 219.59 1104.8 220.02C1104.24 220.445 1103.5 220.657 1102.6 220.657C1101.96 220.657 1101.4 220.545 1100.91 220.32C1100.43 220.095 1100.04 219.783 1099.76 219.383C1099.49 218.977 1099.35 218.54 1099.35 218.072H1100.71C1100.73 218.526 1100.91 218.887 1101.25 219.156C1101.59 219.419 1102.04 219.551 1102.6 219.551C1103.11 219.551 1103.52 219.448 1103.83 219.243C1104.14 219.033 1104.3 218.755 1104.3 218.408ZM1109.26 210.667V212.586H1110.74V213.633H1109.26V218.548C1109.26 218.865 1109.32 219.104 1109.45 219.265C1109.59 219.422 1109.81 219.5 1110.13 219.5C1110.28 219.5 1110.5 219.47 1110.77 219.412V220.51C1110.42 220.608 1110.07 220.657 1109.73 220.657C1109.13 220.657 1108.67 220.474 1108.36 220.108C1108.06 219.741 1107.9 219.221 1107.9 218.548V213.633H1106.46V212.586H1107.9V210.667H1109.26ZM1111.82 216.475C1111.82 215.698 1111.97 215 1112.27 214.38C1112.58 213.76 1113.01 213.281 1113.55 212.945C1114.1 212.608 1114.72 212.439 1115.42 212.439C1116.5 212.439 1117.37 212.813 1118.03 213.56C1118.7 214.307 1119.03 215.301 1119.03 216.541V216.636C1119.03 217.407 1118.89 218.101 1118.59 218.716C1118.29 219.326 1117.87 219.802 1117.32 220.144C1116.77 220.486 1116.14 220.657 1115.43 220.657C1114.36 220.657 1113.48 220.283 1112.82 219.536C1112.15 218.789 1111.82 217.801 1111.82 216.57V216.475ZM1113.18 216.636C1113.18 217.515 1113.38 218.22 1113.79 218.753C1114.2 219.285 1114.75 219.551 1115.43 219.551C1116.12 219.551 1116.67 219.282 1117.07 218.745C1117.48 218.203 1117.68 217.447 1117.68 216.475C1117.68 215.606 1117.47 214.903 1117.06 214.365C1116.65 213.823 1116.1 213.552 1115.42 213.552C1114.75 213.552 1114.21 213.819 1113.8 214.351C1113.39 214.883 1113.18 215.645 1113.18 216.636ZM1122.01 212.586L1122.04 213.465C1122.63 212.781 1123.41 212.439 1124.4 212.439C1125.5 212.439 1126.26 212.864 1126.66 213.714C1126.92 213.333 1127.26 213.025 1127.68 212.791C1128.11 212.556 1128.61 212.439 1129.19 212.439C1130.92 212.439 1131.81 213.36 1131.84 215.2V220.51H1130.48V215.281C1130.48 214.715 1130.35 214.292 1130.09 214.014C1129.83 213.731 1129.4 213.589 1128.79 213.589C1128.29 213.589 1127.87 213.74 1127.54 214.043C1127.21 214.341 1127.01 214.744 1126.96 215.252V220.51H1125.6V215.318C1125.6 214.165 1125.03 213.589 1123.9 213.589C1123.02 213.589 1122.41 213.968 1122.08 214.724V220.51H1120.73V212.586H1122.01ZM1137.18 220.657C1136.1 220.657 1135.23 220.305 1134.55 219.602C1133.88 218.894 1133.54 217.949 1133.54 216.768V216.519C1133.54 215.733 1133.69 215.032 1133.99 214.417C1134.29 213.797 1134.71 213.313 1135.25 212.967C1135.79 212.615 1136.38 212.439 1137.01 212.439C1138.04 212.439 1138.84 212.779 1139.41 213.457C1139.98 214.136 1140.27 215.108 1140.27 216.372V216.936H1134.9C1134.92 217.718 1135.15 218.35 1135.58 218.833C1136.02 219.312 1136.58 219.551 1137.25 219.551C1137.73 219.551 1138.13 219.453 1138.47 219.258C1138.8 219.063 1139.09 218.804 1139.34 218.482L1140.16 219.126C1139.5 220.147 1138.5 220.657 1137.18 220.657ZM1137.01 213.552C1136.46 213.552 1136 213.753 1135.63 214.153C1135.26 214.549 1135.03 215.105 1134.94 215.823H1138.91V215.72C1138.87 215.032 1138.69 214.5 1138.36 214.124C1138.02 213.743 1137.57 213.552 1137.01 213.552ZM1145.67 213.802C1145.47 213.767 1145.25 213.75 1145.01 213.75C1144.12 213.75 1143.51 214.129 1143.2 214.885V220.51H1141.84V212.586H1143.16L1143.18 213.501C1143.63 212.793 1144.26 212.439 1145.07 212.439C1145.34 212.439 1145.54 212.473 1145.67 212.542V213.802Z" fill="#1F2432"/>
<path d="M38.4388 135.956V151.331H28.2236V135.956" stroke="#00DCE6"/>
<path d="M58.764 135.956V151.331H48.5488V135.956" stroke="#00DCE6"/>
<path d="M79.1936 135.956V151.331H68.9785V135.956" stroke="#00DCE6"/>
<path d="M82.5637 151.226H24.8535V171.024H82.5637V151.226Z" stroke="#00DCE6"/>
<path d="M64.4503 129.743H43.0723V135.64H64.5556V129.743H64.4503Z" stroke="#00DCE6"/>
<path d="M53.709 125.635V129.743" stroke="#00DCE6"/>
<path d="M63.2915 156.176H44.125V170.919H63.3968V156.176H63.2915Z" stroke="#00DCE6"/>
<path d="M63.2922 156.176H53.709V171.024H63.2922V156.176Z" stroke="#00DCE6"/>
<path d="M79.1939 135.64H28.2236V139.431H79.2992V135.64H79.1939Z" stroke="#00DCE6"/>
<path d="M56.7627 161.757V166.18" stroke="#00DCE6"/>
<path d="M50.9707 161.757V166.18" stroke="#00DCE6"/>
<path d="M34.2258 156.176H29.1709V167.128H34.2258V156.176Z" stroke="#00DCE6"/>
<path d="M77.8244 156.176H72.7695V167.128H77.8244V156.176Z" stroke="#00DCE6"/>
<path d="M45.3887 132.691H61.1852" stroke="#00DCE6"/>
<path d="M248.849 171.446H212.201C207.883 171.446 204.408 167.97 204.408 163.653C204.408 159.335 207.883 155.86 212.201 155.86H248.849C253.167 155.86 256.642 159.335 256.642 163.653C256.642 167.97 253.167 171.446 248.849 171.446Z" stroke="#00DCE6"/>
<path d="M212.833 168.076C215.276 168.076 217.256 166.095 217.256 163.653C217.256 161.21 215.276 159.229 212.833 159.229C210.39 159.229 208.41 161.21 208.41 163.653C208.41 166.095 210.39 168.076 212.833 168.076Z" stroke="#00DCE6"/>
<path d="M224.628 168.076C227.071 168.076 229.051 166.095 229.051 163.653C229.051 161.21 227.071 159.229 224.628 159.229C222.185 159.229 220.205 161.21 220.205 163.653C220.205 166.095 222.185 168.076 224.628 168.076Z" stroke="#00DCE6"/>
<path d="M236.423 168.076C238.866 168.076 240.846 166.095 240.846 163.653C240.846 161.21 238.866 159.229 236.423 159.229C233.98 159.229 232 161.21 232 163.653C232 166.095 233.98 168.076 236.423 168.076Z" stroke="#00DCE6"/>
<path d="M248.217 168.076C250.66 168.076 252.64 166.095 252.64 163.653C252.64 161.21 250.66 159.229 248.217 159.229C245.774 159.229 243.794 161.21 243.794 163.653C243.794 166.095 245.774 168.076 248.217 168.076Z" stroke="#00DCE6"/>
<path d="M214.729 155.86V129.743H246.427V155.86" stroke="#00DCE6"/>
<path d="M221.574 142.801V145.75H232.632V149.752L239.582 142.801L232.632 135.851V139.852H221.574V142.801Z" stroke="#00DCE6"/>
<path d="M424.507 163.021C426.775 163.021 428.614 161.182 428.614 158.913C428.614 156.645 426.775 154.806 424.507 154.806C422.238 154.806 420.399 156.645 420.399 158.913C420.399 161.182 422.238 163.021 424.507 163.021Z" stroke="#00DCE6" stroke-miterlimit="10"/>
<path d="M425.139 140.906C428.047 140.906 430.404 138.548 430.404 135.64C430.404 132.732 428.047 130.375 425.139 130.375C422.231 130.375 419.873 132.732 419.873 135.64C419.873 138.548 422.231 140.906 425.139 140.906Z" stroke="#00DCE6" stroke-miterlimit="10" stroke-linecap="round"/>
<path d="M392.913 175.658C395.821 175.658 398.178 173.301 398.178 170.392C398.178 167.484 395.821 165.127 392.913 165.127C390.005 165.127 387.647 167.484 387.647 170.392C387.647 173.301 390.005 175.658 392.913 175.658Z" stroke="#00DCE6" stroke-miterlimit="10"/>
<path d="M403.76 131.428C405.68 131.428 407.236 129.872 407.236 127.952C407.236 126.033 405.68 124.477 403.76 124.477C401.841 124.477 400.285 126.033 400.285 127.952C400.285 129.872 401.841 131.428 403.76 131.428Z" stroke="#00DCE6" stroke-miterlimit="10"/>
<path d="M404.076 131.638L404.919 138.167" stroke="#00DCE6" stroke-miterlimit="10"/>
<path d="M409.868 172.077C411.264 172.077 412.396 170.946 412.396 169.55C412.396 168.154 411.264 167.022 409.868 167.022C408.472 167.022 407.341 168.154 407.341 169.55C407.341 170.946 408.472 172.077 409.868 172.077Z" stroke="#00DCE6" stroke-miterlimit="10" stroke-linecap="round"/>
<path d="M409.552 166.707L408.499 162.178" stroke="#00DCE6" stroke-miterlimit="10" stroke-linecap="round"/>
<path d="M421.031 139.431L416.292 143.644" stroke="#00DCE6" stroke-miterlimit="10" stroke-linecap="round"/>
<path d="M417.346 155.228L420.61 156.913" stroke="#00DCE6" stroke-miterlimit="10"/>
<path d="M385.436 152.7C387.704 152.7 389.543 150.861 389.543 148.593C389.543 146.325 387.704 144.486 385.436 144.486C383.168 144.486 381.329 146.325 381.329 148.593C381.329 150.861 383.168 152.7 385.436 152.7Z" stroke="#00DCE6" stroke-miterlimit="10" stroke-linecap="round"/>
<path d="M393.44 149.33L389.754 149.014" stroke="#00DCE6" stroke-miterlimit="10" stroke-linecap="round"/>
<path d="M406.182 162.178C412.813 162.178 418.188 156.803 418.188 150.173C418.188 143.542 412.813 138.167 406.182 138.167C399.552 138.167 394.177 143.542 394.177 150.173C394.177 156.803 399.552 162.178 406.182 162.178Z" stroke="#00DCE6" stroke-miterlimit="10" stroke-linecap="round"/>
<path d="M399.653 160.493L395.967 166.18" stroke="#00DCE6" stroke-miterlimit="10"/>
<path d="M403.76 153.438V155.228H403.339L401.97 156.597L399.653 157.65C399.021 157.861 398.389 158.177 397.968 158.598" stroke="#00DCE6" stroke-miterlimit="10"/>
<path d="M411.131 145.645V146.592L412.079 147.014V148.804C412.079 149.12 411.974 149.436 411.658 149.541L411.131 150.173C411.131 150.173 411.131 150.91 411.131 151.121C411.131 152.911 408.815 153.648 408.393 153.859C407.972 154.069 407.34 154.28 406.603 154.28C405.866 154.28 405.129 154.069 404.813 153.859C404.392 153.648 402.075 152.911 402.075 151.121C402.075 150.91 402.075 150.173 402.075 150.173L401.548 149.541C401.338 149.33 401.127 149.12 401.127 148.804V147.014L402.075 146.592V145.645C402.075 143.328 403.97 141.537 406.182 141.537H407.13C409.236 141.432 411.131 143.328 411.131 145.645Z" stroke="#00DCE6" stroke-miterlimit="10"/>
<path d="M403.76 155.228L406.498 157.545" stroke="#00DCE6" stroke-miterlimit="10"/>
<path d="M406.498 157.544L404.181 159.335L401.97 156.597" stroke="#00DCE6" stroke-miterlimit="10"/>
<path d="M409.236 153.438V155.228H409.658L411.027 156.597L413.343 157.65C413.87 157.755 414.397 158.071 414.818 158.387" stroke="#00DCE6" stroke-miterlimit="10"/>
<path d="M409.236 155.228L406.498 157.545" stroke="#00DCE6" stroke-miterlimit="10"/>
<path d="M406.498 157.544L408.815 159.335L411.132 156.597" stroke="#00DCE6" stroke-miterlimit="10"/>
<path d="M600.27 138.167H592.267V151.753H608.168V149.962L600.27 138.167Z" stroke="#00DCE6" stroke-miterlimit="10"/>
<path d="M596.689 162.073C596.689 164.706 598.796 166.812 601.428 166.812C604.061 166.812 606.167 164.706 606.167 162.073C606.167 159.44 604.061 157.334 601.428 157.334C598.796 157.334 596.689 159.44 596.689 162.073Z" stroke="#00DCE6" stroke-miterlimit="10"/>
<path d="M598.585 162.073C598.585 163.547 599.849 164.811 601.323 164.811C602.797 164.811 604.061 163.547 604.061 162.073C604.061 160.599 602.797 159.335 601.323 159.335C599.849 159.335 598.585 160.599 598.585 162.073Z" stroke="#00DCE6" stroke-miterlimit="10"/>
<path d="M563.096 161.968C563.096 164.6 565.202 166.707 567.729 166.812C570.362 166.812 572.468 164.706 572.574 162.178C572.574 159.546 570.467 157.439 567.94 157.334C565.202 157.334 563.096 159.335 563.096 161.968Z" stroke="#00DCE6" stroke-miterlimit="10"/>
<path d="M590.16 135.851H601.745L611.433 149.962V160.809H606.062C605.536 158.808 603.64 157.439 601.534 157.439C599.428 157.439 597.638 158.914 597.006 160.809H590.266H572.468C571.942 158.808 570.151 157.439 568.045 157.439C565.939 157.439 564.043 158.914 563.517 160.809H557.83V135.956L590.16 135.851Z" stroke="#00DCE6" stroke-miterlimit="10"/>
<path d="M565.097 162.073C565.097 163.547 566.255 164.811 567.729 164.811C569.204 164.811 570.468 163.653 570.468 162.178C570.468 160.704 569.309 159.44 567.835 159.44C566.36 159.335 565.097 160.599 565.097 162.073Z" stroke="#00DCE6" stroke-miterlimit="10"/>
<path d="M587.001 140.274H563.096" stroke="#00DCE6" stroke-miterlimit="10"/>
<path d="M587.001 144.802H563.096" stroke="#00DCE6" stroke-miterlimit="10"/>
<path d="M587.001 149.225H563.096" stroke="#00DCE6" stroke-miterlimit="10"/>
<path d="M954.429 170.814H912.516V145.434H921.888" stroke="#00DCE6" stroke-miterlimit="10"/>
<path d="M953.902 145.434H963.275V170.814H953.902" stroke="#00DCE6" stroke-miterlimit="10"/>
<path d="M946.426 168.918V150.068" stroke="#00DCE6" stroke-miterlimit="10"/>
<path d="M929.471 168.918V150.068" stroke="#00DCE6" stroke-miterlimit="10"/>
<path d="M937.896 150.173V166.18" stroke="#00DCE6" stroke-miterlimit="10"/>
<path d="M912.831 165.338H922.309" stroke="#00DCE6" stroke-miterlimit="10"/>
<path d="M953.586 165.338H963.169" stroke="#00DCE6" stroke-miterlimit="10"/>
<path d="M912.726 145.434H909.672V136.061H919.992" stroke="#00DCE6" stroke-miterlimit="10"/>
<path d="M955.798 135.956H966.118V145.329H963.17" stroke="#00DCE6" stroke-miterlimit="10"/>
<path d="M922.414 165.338H929.996" stroke="#00DCE6" stroke-miterlimit="10"/>
<path d="M946.426 165.338H953.587" stroke="#00DCE6" stroke-miterlimit="10"/>
<path d="M948.216 168.918H927.47V170.814H948.216V168.918Z" stroke="#00DCE6" stroke-miterlimit="10"/>
<path d="M946.426 167.128H929.471V169.024H946.426V167.128Z" stroke="#00DCE6" stroke-miterlimit="10"/>
<path d="M935.895 158.703V162.81" stroke="#00DCE6" stroke-miterlimit="10"/>
<path d="M940.423 158.703V162.81" stroke="#00DCE6" stroke-miterlimit="10"/>
<path d="M955.798 130.375H919.992V145.434H955.798V130.375Z" stroke="#00DCE6" stroke-miterlimit="10"/>
<path d="M948.215 145.434H928.417V150.173H948.215V145.434Z" stroke="#00DCE6" stroke-miterlimit="10"/>
<path d="M929.47 135.956C929.47 138.589 927.364 140.695 924.731 140.695C922.098 140.695 919.992 138.589 919.992 135.956" stroke="#00DCE6" stroke-miterlimit="10"/>
<path d="M937.896 135.956C937.896 138.589 936 140.695 933.683 140.695C931.366 140.695 929.471 138.589 929.471 135.956" stroke="#00DCE6" stroke-miterlimit="10"/>
<path d="M946.425 135.956C946.425 138.589 944.529 140.695 942.212 140.695C939.896 140.695 938 138.589 938 135.956" stroke="#00DCE6" stroke-miterlimit="10"/>
<path d="M955.798 135.956C955.798 138.589 953.692 140.695 951.059 140.695C948.427 140.695 946.32 138.589 946.32 135.956" stroke="#00DCE6" stroke-miterlimit="10"/>
<path d="M754.445 150.91V154.175H753.602L751.18 156.597L747.073 158.492C744.862 159.019 743.071 160.704 743.071 162.283V171.972" stroke="#00DCE6" stroke-miterlimit="10"/>
<path d="M754.445 154.175L759.29 158.176" stroke="#00DCE6" stroke-miterlimit="10"/>
<path d="M759.29 158.176L755.288 161.441L751.181 156.597" stroke="#00DCE6" stroke-miterlimit="10"/>
<path d="M764.134 150.91V154.175H764.976L767.398 156.597L771.506 158.492C773.717 159.019 775.507 160.704 775.507 162.283V171.972" stroke="#00DCE6" stroke-miterlimit="10"/>
<path d="M764.133 154.175L759.289 158.176" stroke="#00DCE6" stroke-miterlimit="10"/>
<path d="M759.289 158.176L763.291 161.441L767.398 156.597" stroke="#00DCE6" stroke-miterlimit="10"/>
<path d="M761.711 159.861L760.869 163.863H757.71L756.867 159.861" stroke="#00DCE6" stroke-miterlimit="10"/>
<path d="M761.711 171.129L760.869 163.863H757.71L756.867 171.129" stroke="#00DCE6" stroke-miterlimit="10"/>
<path d="M768.767 140.695V135.219C768.767 130.269 767.398 129.321 762.132 129.321H748.863V133.007C748.863 134.692 750.232 136.693 753.286 136.693C756.34 136.693 762.238 136.693 763.607 136.693C765.818 136.693 766.556 138.694 766.556 140.379C766.556 140.59 766.556 140.484 766.556 141.116H768.767V143.959C768.767 144.486 768.556 144.907 768.135 145.223L766.556 146.276C766.556 146.276 766.556 147.119 766.556 147.435C766.556 150.278 762.764 151.542 762.132 151.858C761.501 152.174 760.342 152.595 759.184 152.595C758.025 152.595 756.867 152.174 756.235 151.858C755.603 151.542 751.812 150.278 751.812 147.435C751.812 147.119 751.812 146.276 751.812 146.276L750.232 145.223C749.811 144.907 749.6 144.486 749.6 143.959V141.116H751.812C751.812 140.59 751.812 140.063 751.812 139.642C751.812 138.378 752.339 137.43 753.286 136.693" stroke="#00DCE6" stroke-miterlimit="10"/>
<path d="M749.6 135.113C749.285 135.429 748.863 135.956 748.863 137.325C748.863 137.851 748.863 138.589 748.863 138.799C748.863 140.063 749.706 140.8 750.338 141.011" stroke="#00DCE6" stroke-miterlimit="10"/>
<path d="M1111.24 173.236V147.013L1117.24 153.016C1118.29 154.069 1120.08 154.491 1121.03 153.543L1122.19 152.384C1122.19 152.384 1118.5 146.698 1117.24 144.907C1115.87 143.117 1113.45 138.905 1109.24 138.905H1102.39C1099.55 138.905 1096.07 141.853 1096.07 145.644V152.806C1096.07 154.806 1098.49 157.018 1100.5 157.018" stroke="#00DCE6" stroke-miterlimit="10" stroke-linejoin="round"/>
<path d="M1100.18 146.066V173.236" stroke="#00DCE6" stroke-miterlimit="10" stroke-linejoin="round"/>
<path d="M1106.18 157.123V173.236" stroke="#00DCE6" stroke-miterlimit="10" stroke-linejoin="round"/>
<path d="M1106.18 135.956C1108.5 135.956 1110.18 134.271 1110.18 131.954V129.953C1110.18 127.531 1108.5 125.951 1106.18 125.951C1103.86 125.951 1102.18 127.636 1102.18 129.953V131.954C1102.18 134.271 1103.86 135.956 1106.18 135.956Z" stroke="#00DCE6" stroke-miterlimit="10" stroke-linejoin="round"/>
<path d="M1113.24 172.183H1134.41V157.123H1113.24" stroke="#00DCE6" stroke-miterlimit="10" stroke-linejoin="round"/>
<path d="M1119.29 161.089H1126.34V157.087H1119.29V161.089Z" stroke="#00DCE6" stroke-miterlimit="10" stroke-linejoin="round"/>
<path d="M1131.35 168.181H1129.35" stroke="#00DCE6" stroke-miterlimit="10" stroke-linejoin="round"/>
<path d="M1128.3 168.181H1126.3" stroke="#00DCE6" stroke-miterlimit="10" stroke-linejoin="round"/>
</svg>
