<?xml version="1.0" encoding="utf-8"?>
<!-- Generator: Adobe Illustrator 15.0.0, SVG Export Plug-In . SVG Version: 6.00 Build 0)  -->
<!DOCTYPE svg PUBLIC "-//W3C//DTD SVG 1.1//EN" "http://www.w3.org/Graphics/SVG/1.1/DTD/svg11.dtd">
<svg version="1.1" id="图层_1" xmlns="http://www.w3.org/2000/svg" xmlns:xlink="http://www.w3.org/1999/xlink" x="0px" y="0px"
	 width="330px" height="825px" viewBox="0 0 330 825" enable-background="new 0 0 330 825" xml:space="preserve">
<path fill="#00DCE6" fill-opacity="0.1" d="M13.992,769.711V41.213c0-20.122,16.364-36.364,36.364-36.364
	c20.122,0,36.364,16.364,36.364,36.364v728.498c0,20.121-16.364,36.364-36.364,36.364S13.992,789.832,13.992,769.711z"/>
<path fill="#00DCE6" fill-opacity="0.2" d="M50.477,77.577c20.122,0,36.364-16.364,36.364-36.364S70.478,4.849,50.477,4.849
	c-20.122,0-36.364,16.364-36.364,36.364S30.355,77.577,50.477,77.577z"/>
<path fill="#00DCE6" d="M50.477,67.88c14.788,0,26.667-12,26.667-26.667s-12-26.667-26.667-26.667s-26.667,12-26.667,26.667
	S35.689,67.88,50.477,67.88z"/>
<path fill="none" stroke="#FFFFFF" d="M35.81,48.971V33.213l14.182-8.97l14.061,9.091v15.637"/>
<path fill="none" stroke="#FFFFFF" stroke-linejoin="round" d="M35.81,48.971l14.182,9.212l14.061-9.212L49.992,39.88L35.81,48.971z
	"/>
<path fill="none" stroke="#FFFFFF" d="M64.053,33.213l-14.061,9.212L35.81,33.213"/>
<path fill="none" stroke="#FFFFFF" d="M49.992,24.243v15.758"/>
<path fill="none" stroke="#FFFFFF" d="M49.992,42.546v15.758"/>
<path fill="#00DCE6" fill-opacity="0.2" d="M50.477,199.033c20.122,0,36.364-16.364,36.364-36.364s-16.364-36.485-36.364-36.485
	c-20.122,0-36.364,16.364-36.364,36.485C14.113,182.791,30.355,199.033,50.477,199.033z"/>
<path fill="#00DCE6" d="M50.477,189.336c14.788,0,26.667-12,26.667-26.667s-12-26.667-26.667-26.667s-26.667,12-26.667,26.667
	S35.689,189.336,50.477,189.336z"/>
<path fill="none" stroke="#FFFFFF" d="M35.81,170.306v-15.637l14.061-9.091l14.061,9.091v15.637"/>
<path fill="none" stroke="#FFFFFF" stroke-linejoin="round" d="M35.81,170.427l14.061,9.212l14.061-9.212l-14.061-9.091
	L35.81,170.427z"/>
<path fill="none" stroke="#FFFFFF" d="M64.053,154.669l-14.061,9.091l-14.182-9.091"/>
<path fill="none" stroke="#FFFFFF" d="M49.992,145.578v15.758"/>
<path fill="none" stroke="#FFFFFF" d="M49.992,163.882v15.758"/>
<path fill="#00DCE6" fill-opacity="0.2" d="M50.477,320.49c20.122,0,36.364-16.364,36.364-36.364s-16.364-36.364-36.364-36.364
	c-20.122,0-36.364,16.364-36.364,36.364S30.355,320.49,50.477,320.49z"/>
<path fill="#00DCE6" d="M50.477,310.793c14.788,0,26.667-12,26.667-26.667s-12-26.667-26.667-26.667s-26.667,12-26.667,26.667
	S35.689,310.793,50.477,310.793z"/>
<path fill="none" stroke="#FFFFFF" d="M35.81,291.763v-15.637l14.061-9.091l14.061,9.091v15.637"/>
<path fill="none" stroke="#FFFFFF" stroke-linejoin="round" d="M35.81,291.763l14.061,9.212l14.061-9.212l-14.061-9.091
	L35.81,291.763z"/>
<path fill="none" stroke="#FFFFFF" d="M64.053,276.126l-14.061,9.091l-14.182-9.091"/>
<path fill="none" stroke="#FFFFFF" d="M49.992,267.035v15.758"/>
<path fill="none" stroke="#FFFFFF" d="M49.992,285.339v15.758"/>
<path fill="#00DCE6" fill-opacity="0.2" d="M50.478,441.826c20.121,0,36.364-16.364,36.364-36.364
	c0-20.122-16.364-36.485-36.364-36.485c-20.122,0-36.365,16.363-36.365,36.485C13.992,425.584,30.355,441.826,50.478,441.826z"/>
<path fill="#00DCE6" d="M50.477,432.129c14.788,0,26.667-12,26.667-26.667c0-14.788-12-26.667-26.667-26.667
	s-26.667,12-26.667,26.667C23.689,420.25,35.689,432.129,50.477,432.129z"/>
<path fill="none" stroke="#FFFFFF" d="M35.81,413.22v-15.637l14.061-9.091l14.061,9.091v15.637"/>
<path fill="none" stroke="#FFFFFF" stroke-linejoin="round" d="M35.81,413.22l14.061,9.212l14.061-9.212l-14.061-9.091L35.81,413.22
	z"/>
<path fill="none" stroke="#FFFFFF" d="M64.053,397.462l-14.061,9.091l-14.182-9.091"/>
<path fill="none" stroke="#FFFFFF" d="M49.992,388.492v15.758"/>
<path fill="none" stroke="#FFFFFF" d="M49.992,406.795v15.758"/>
<path fill="#00DCE6" fill-opacity="0.2" d="M50.478,563.282c20.121,0,36.364-16.363,36.364-36.364
	c0-20.121-16.364-36.485-36.364-36.485c-20.122,0-36.365,16.364-36.365,36.485C13.992,547.04,30.355,563.282,50.478,563.282z"/>
<path fill="#00DCE6" d="M50.477,553.585c14.788,0,26.667-12,26.667-26.667c0-14.788-12-26.667-26.667-26.667
	s-26.667,12-26.667,26.667C23.689,541.585,35.689,553.585,50.477,553.585z"/>
<path fill="none" stroke="#FFFFFF" d="M35.81,534.555v-15.637l14.061-9.091l14.061,9.091v15.637"/>
<path fill="none" stroke="#FFFFFF" stroke-linejoin="round" d="M35.81,534.676l14.061,9.212l14.061-9.212l-14.061-9.091
	L35.81,534.676z"/>
<path fill="none" stroke="#FFFFFF" d="M64.053,518.918l-14.061,9.091l-14.182-9.091"/>
<path fill="none" stroke="#FFFFFF" d="M49.992,509.827v15.758"/>
<path fill="none" stroke="#FFFFFF" d="M49.992,528.131v15.758"/>
<path fill="#00DCE6" fill-opacity="0.2" d="M50.477,684.739c20.122,0,36.364-16.364,36.364-36.364s-16.364-36.364-36.364-36.364
	c-20.122,0-36.364,16.364-36.364,36.364S30.355,684.739,50.477,684.739z"/>
<path fill="#00DCE6" d="M50.477,675.042c14.788,0,26.667-12,26.667-26.667c0-14.788-12-26.667-26.667-26.667
	s-26.667,12-26.667,26.667C23.689,663.042,35.689,675.042,50.477,675.042z"/>
<path fill="none" stroke="#FFFFFF" d="M35.81,656.012v-15.637l14.061-9.091l14.061,9.091v15.637"/>
<path fill="none" stroke="#FFFFFF" stroke-linejoin="round" d="M35.81,656.012l14.061,9.212l14.061-9.212l-14.061-9.091
	L35.81,656.012z"/>
<path fill="none" stroke="#FFFFFF" d="M64.053,640.375l-14.061,9.091l-14.182-9.091"/>
<path fill="none" stroke="#FFFFFF" d="M49.992,631.284v15.758"/>
<path fill="none" stroke="#FFFFFF" d="M49.992,649.587v15.758"/>
<path fill="#00DCE6" fill-opacity="0.2" d="M50.477,806.075c20.122,0,36.364-16.364,36.364-36.364s-16.364-36.364-36.364-36.364
	c-20.122,0-36.364,16.364-36.364,36.364S30.355,806.075,50.477,806.075z"/>
<path fill="#00DCE6" d="M50.477,796.378c14.788,0,26.667-12,26.667-26.667s-12-26.667-26.667-26.667s-26.667,12-26.667,26.667
	S35.689,796.378,50.477,796.378z"/>
<path fill="none" stroke="#FFFFFF" d="M35.81,777.468v-15.637l14.061-9.091l14.061,9.091v15.637"/>
<path fill="none" stroke="#FFFFFF" stroke-linejoin="round" d="M35.81,777.468l14.061,9.212l14.061-9.212l-14.061-9.091
	L35.81,777.468z"/>
<path fill="none" stroke="#FFFFFF" d="M64.053,761.711l-14.061,9.212l-14.182-9.212"/>
<path fill="none" stroke="#FFFFFF" d="M49.992,752.74v15.758"/>
<path fill="none" stroke="#FFFFFF" d="M49.992,771.044v15.758"/>
<path fill="none" stroke="#00DCE6" stroke-miterlimit="16" stroke-dasharray="1,1" d="M118.479,41.213H77.145"/>
<path fill="#00DCE6" d="M113.509,41.213c0-2.667,2.182-4.849,4.848-4.849c2.667,0,4.849,2.182,4.849,4.849
	c0,2.667-2.182,4.849-4.849,4.849C115.691,46.062,113.509,43.879,113.509,41.213z"/>
<path fill="none" stroke="#00DCE6" stroke-miterlimit="16" stroke-dasharray="1,1" d="M118.479,162.67H77.145"/>
<path fill="#00DCE6" d="M113.509,162.67c0-2.667,2.182-4.849,4.848-4.849c2.667,0,4.849,2.182,4.849,4.849s-2.182,4.848-4.849,4.848
	C115.691,167.518,113.509,165.337,113.509,162.67z"/>
<path fill="none" stroke="#00DCE6" stroke-miterlimit="16" stroke-dasharray="1,1" d="M118.479,284.005H77.145"/>
<path fill="#00DCE6" d="M113.509,284.005c0-2.667,2.182-4.849,4.848-4.849c2.667,0,4.849,2.182,4.849,4.849
	s-2.182,4.848-4.849,4.848C115.691,288.853,113.509,286.672,113.509,284.005z"/>
<path fill="none" stroke="#00DCE6" stroke-miterlimit="16" stroke-dasharray="1,1" d="M118.479,407.886H77.145"/>
<path fill="#00DCE6" d="M113.509,407.886c0-2.667,2.182-4.849,4.848-4.849c2.667,0,4.849,2.182,4.849,4.849
	c0,2.666-2.182,4.849-4.849,4.849C115.691,412.734,113.509,410.552,113.509,407.886z"/>
<path fill="none" stroke="#00DCE6" stroke-miterlimit="16" stroke-dasharray="1,1" d="M118.479,529.343H77.145"/>
<path fill="#00DCE6" d="M113.509,529.343c0-2.667,2.182-4.849,4.848-4.849c2.667,0,4.849,2.182,4.849,4.849
	c0,2.666-2.182,4.849-4.849,4.849C115.691,534.191,113.509,532.009,113.509,529.343z"/>
<path fill="none" stroke="#00DCE6" stroke-miterlimit="16" stroke-dasharray="1,1" d="M118.479,650.678H77.145"/>
<path fill="#00DCE6" d="M113.509,650.679c0-2.667,2.182-4.849,4.848-4.849c2.667,0,4.849,2.182,4.849,4.849
	c0,2.666-2.182,4.849-4.849,4.849C115.691,655.527,113.509,653.345,113.509,650.679z"/>
<path fill="none" stroke="#00DCE6" stroke-miterlimit="16" stroke-dasharray="1,1" d="M118.479,772.135H77.145"/>
<path fill="#00DCE6" d="M113.509,772.135c0-2.667,2.182-4.849,4.848-4.849c2.667,0,4.849,2.182,4.849,4.849
	c0,2.666-2.182,4.849-4.849,4.849C115.691,776.983,113.509,774.801,113.509,772.135z"/>
<path fill="#1F2432" d="M186.116,84.971c23.516,0,42.546-19.031,42.546-42.546C228.662,19.031,209.632,0,186.116,0
	C162.6,0,143.57,19.031,143.57,42.546C143.57,65.94,162.6,84.971,186.116,84.971z"/>
<path fill="#1F2432" d="M186.116,206.427c23.516,0,42.546-19.03,42.546-42.546c0-23.515-19.03-42.546-42.546-42.546
	c-23.516,0-42.546,19.031-42.546,42.546C143.57,187.397,162.6,206.427,186.116,206.427z"/>
<path fill="#1F2432" d="M186.116,327.763c23.516,0,42.546-19.03,42.546-42.546c0-23.515-19.03-42.546-42.546-42.546
	c-23.516,0-42.546,19.031-42.546,42.546C143.57,308.733,162.6,327.763,186.116,327.763z"/>
<path fill="#1F2432" d="M186.116,449.22c23.516,0,42.546-19.029,42.546-42.546c0-23.515-19.03-42.546-42.546-42.546
	c-23.516,0-42.546,19.031-42.546,42.546C143.57,430.19,162.6,449.22,186.116,449.22z"/>
<path fill="#1F2432" d="M186.116,570.676c23.516,0,42.546-19.029,42.546-42.546c0-23.515-19.03-42.546-42.546-42.546
	c-23.516,0-42.546,19.031-42.546,42.546C143.57,551.646,162.6,570.676,186.116,570.676z"/>
<path fill="#1F2432" d="M184.904,692.012c23.515,0,42.546-19.029,42.546-42.546c0-23.515-19.031-42.546-42.546-42.546
	c-23.516,0-42.546,19.031-42.546,42.546C142.358,672.982,161.388,692.012,184.904,692.012z"/>
<path fill="#1F2432" d="M184.904,813.469c23.515,0,42.546-19.029,42.546-42.546c0-23.516-19.031-42.425-42.546-42.425
	c-23.516,0-42.546,19.031-42.546,42.546C142.358,794.56,161.388,813.469,184.904,813.469z"/>
<path fill="#00DCE6" fill-opacity="0.2" d="M173.995,83.759c0,6.667,5.454,12.121,12.121,12.121s12.122-5.455,12.122-12.121
	c0-6.667-5.455-12.122-12.122-12.122S173.995,77.092,173.995,83.759z"/>
<path fill="#00DCE6" d="M181.268,83.759c0,2.667,2.182,4.849,4.849,4.849s4.849-2.182,4.849-4.849c0-2.667-2.182-4.849-4.849-4.849
	S181.268,81.092,181.268,83.759z"/>
<path fill="none" stroke="#00DCE6" stroke-width="2" d="M173.995,109.214l12.121,12.121l12.122-12.121"/>
<path fill="none" stroke="#00DCE6" stroke-width="2" stroke-miterlimit="16" d="M186.116,79.88c0,16.243,0,25.334,0,41.455"/>
<path fill="#00DCE6" fill-opacity="0.2" d="M173.995,205.216c0,6.667,5.454,12.122,12.121,12.122s12.122-5.455,12.122-12.122
	s-5.455-12.121-12.122-12.121S173.995,198.428,173.995,205.216z"/>
<path fill="#00DCE6" d="M181.268,205.216c0,2.666,2.182,4.848,4.849,4.848s4.849-2.182,4.849-4.848c0-2.667-2.182-4.849-4.849-4.849
	S181.268,202.549,181.268,205.216z"/>
<path fill="none" stroke="#00DCE6" stroke-width="2" d="M173.995,230.671l12.121,12.121l12.122-12.121"/>
<path fill="none" stroke="#00DCE6" stroke-width="2" stroke-miterlimit="16" d="M186.116,201.337c0,16.243,0,25.334,0,41.455"/>
<path fill="#00DCE6" fill-opacity="0.2" d="M173.995,326.551c0,6.667,5.454,12.121,12.121,12.121s12.122-5.454,12.122-12.121
	s-5.455-12.121-12.122-12.121S173.995,319.884,173.995,326.551z"/>
<path fill="#00DCE6" d="M181.268,326.552c0,2.666,2.182,4.848,4.849,4.848s4.849-2.182,4.849-4.848c0-2.667-2.182-4.849-4.849-4.849
	S181.268,323.885,181.268,326.552z"/>
<path fill="none" stroke="#00DCE6" stroke-width="2" d="M173.995,352.006l12.121,12.121l12.122-12.121"/>
<path fill="none" stroke="#00DCE6" stroke-width="2" stroke-miterlimit="16" d="M186.116,322.794c0,16.243,0,25.334,0,41.455"/>
<path fill="#00DCE6" fill-opacity="0.2" d="M173.995,448.008c0,6.667,5.454,12.122,12.121,12.122s12.122-5.455,12.122-12.122
	s-5.455-12.121-12.122-12.121S173.995,441.341,173.995,448.008z"/>
<path fill="#00DCE6" d="M181.268,448.008c0,2.666,2.182,4.849,4.849,4.849s4.849-2.183,4.849-4.849c0-2.667-2.182-4.849-4.849-4.849
	S181.268,445.341,181.268,448.008z"/>
<path fill="none" stroke="#00DCE6" stroke-width="2" d="M173.995,473.463l12.121,12.121l12.122-12.121"/>
<path fill="none" stroke="#00DCE6" stroke-width="2" stroke-miterlimit="16" d="M186.116,444.129c0,16.243,0,25.334,0,41.455"/>
<path fill="#00DCE6" fill-opacity="0.2" d="M173.995,569.464c0,6.667,5.454,12.122,12.121,12.122s12.122-5.455,12.122-12.122
	s-5.455-12.121-12.122-12.121S173.995,562.676,173.995,569.464z"/>
<path fill="#00DCE6" d="M181.268,569.465c0,2.667,2.182,4.848,4.849,4.848s4.849-2.181,4.849-4.848s-2.182-4.849-4.849-4.849
	S181.268,566.798,181.268,569.465z"/>
<path fill="none" stroke="#00DCE6" stroke-width="2" d="M173.995,594.92l12.121,12.121l12.122-12.121"/>
<path fill="none" stroke="#00DCE6" stroke-width="2" stroke-miterlimit="16" d="M186.116,565.586c0,16.243,0,25.334,0,41.455"/>
<path fill="#00DCE6" fill-opacity="0.2" d="M173.995,690.8c0,6.667,5.454,12.122,12.121,12.122s12.122-5.455,12.122-12.122
	s-5.455-12.121-12.122-12.121S173.995,684.133,173.995,690.8z"/>
<path fill="#00DCE6" d="M181.268,690.8c0,2.667,2.182,4.849,4.849,4.849s4.849-2.182,4.849-4.849s-2.182-4.849-4.849-4.849
	S181.268,688.133,181.268,690.8z"/>
<path fill="none" stroke="#00DCE6" stroke-width="2" d="M173.995,716.255l12.121,12.121l12.122-12.121"/>
<path fill="none" stroke="#00DCE6" stroke-width="2" stroke-miterlimit="16" d="M186.116,687.042c0,16.243,0,25.334,0,41.455"/>
<path fill="#00DCE6" fill-opacity="0.2" d="M173.995,812.257c0,6.667,5.454,12.122,12.121,12.122s12.122-5.455,12.122-12.122
	s-5.455-12.121-12.122-12.121S173.995,805.59,173.995,812.257z"/>
<path fill="#00DCE6" d="M181.268,812.257c0,2.666,2.182,4.849,4.849,4.849s4.849-2.183,4.849-4.849c0-2.667-2.182-4.849-4.849-4.849
	S181.268,809.59,181.268,812.257z"/>
<path fill="none" stroke="#00DCE6" d="M172.782,27.03v13.455h-8.97V27.03"/>
<path fill="none" stroke="#00DCE6" d="M190.48,27.03v13.455h-8.971V27.03"/>
<path fill="none" stroke="#00DCE6" d="M208.419,27.03v13.455h-8.97V27.03"/>
<path fill="none" stroke="#00DCE6" d="M211.328,40.364h-50.425v17.333h50.425V40.364z"/>
<path fill="none" stroke="#00DCE6" d="M195.57,21.576h-18.666v5.091h18.787L195.57,21.576z"/>
<path fill="none" stroke="#00DCE6" d="M186.116,17.939v3.637"/>
<path fill="none" stroke="#00DCE6" d="M194.48,44.728h-16.729v12.849h16.85L194.48,44.728z"/>
<path fill="none" stroke="#00DCE6" d="M194.48,44.728h-8.364v12.97h8.364V44.728z"/>
<path fill="none" stroke="#00DCE6" d="M208.419,26.667h-44.607v3.273h44.729L208.419,26.667z"/>
<path fill="none" stroke="#00DCE6" d="M188.783,49.576v3.879"/>
<path fill="none" stroke="#00DCE6" d="M183.691,49.576v3.879"/>
<path fill="none" stroke="#00DCE6" d="M169.025,44.728h-4.364v9.576h4.364V44.728z"/>
<path fill="none" stroke="#00DCE6" d="M207.207,44.728h-4.363v9.576h4.363V44.728z"/>
<path fill="none" stroke="#00DCE6" d="M178.843,24.121h13.818"/>
<path fill="none" stroke="#00DCE6" d="M202.723,182.184h-32c-3.759,0-6.789-3.03-6.789-6.788c0-3.757,3.03-6.788,6.789-6.788h32
	c3.758,0,6.787,3.031,6.787,6.788C209.51,179.154,206.48,182.184,202.723,182.184z"/>
<path fill="none" stroke="#00DCE6" d="M171.207,179.154c2.143,0,3.879-1.736,3.879-3.879c0-2.142-1.736-3.879-3.879-3.879
	s-3.879,1.737-3.879,3.879C167.328,177.418,169.064,179.154,171.207,179.154z"/>
<path fill="none" stroke="#00DCE6" d="M181.51,179.154c2.143,0,3.879-1.736,3.879-3.879c0-2.142-1.736-3.879-3.879-3.879
	c-2.142,0-3.879,1.737-3.879,3.879C177.631,177.418,179.368,179.154,181.51,179.154z"/>
<path fill="none" stroke="#00DCE6" d="M191.813,179.154c2.143,0,3.879-1.736,3.879-3.879c0-2.142-1.736-3.879-3.879-3.879
	c-2.142,0-3.879,1.737-3.879,3.879C187.934,177.418,189.671,179.154,191.813,179.154z"/>
<path fill="none" stroke="#00DCE6" d="M202.238,179.154c2.142,0,3.878-1.736,3.878-3.879c0-2.142-1.736-3.879-3.878-3.879
	c-2.143,0-3.879,1.737-3.879,3.879C198.359,177.418,200.096,179.154,202.238,179.154z"/>
<path fill="none" stroke="#00DCE6" d="M172.904,168.488v-22.789h27.758v22.789"/>
<path fill="none" stroke="#00DCE6" d="M178.843,157.093v2.545h9.697v3.516l6.062-6.061l-6.062-6.061v3.515h-9.697V157.093z"/>
<path fill="none" stroke="#00DCE6" stroke-miterlimit="10" d="M201.874,293.581c2.008,0,3.636-1.629,3.636-3.637
	c0-2.008-1.628-3.636-3.636-3.636s-3.636,1.628-3.636,3.636C198.238,291.952,199.866,293.581,201.874,293.581z"/>
<path fill="none" stroke="#00DCE6" stroke-linecap="round" stroke-miterlimit="10" d="M202.359,274.186
	c2.543,0,4.605-2.062,4.605-4.606s-2.063-4.606-4.605-4.606c-2.545,0-4.606,2.062-4.606,4.606S199.814,274.186,202.359,274.186z"/>
<path fill="none" stroke="#00DCE6" stroke-miterlimit="10" d="M174.236,304.49c2.545,0,4.606-2.063,4.606-4.607
	c0-2.543-2.062-4.606-4.606-4.606c-2.543,0-4.605,2.063-4.605,4.606C169.631,302.427,171.693,304.49,174.236,304.49z"/>
<path fill="none" stroke="#00DCE6" stroke-miterlimit="10" d="M183.691,265.822c1.675,0,3.031-1.356,3.031-3.03
	s-1.356-3.03-3.031-3.03c-1.674,0-3.029,1.356-3.029,3.03S182.018,265.822,183.691,265.822z"/>
<path fill="none" stroke="#00DCE6" stroke-miterlimit="10" d="M183.934,266.064l0.729,5.698"/>
<path fill="none" stroke="#00DCE6" stroke-linecap="round" stroke-miterlimit="10" d="M189.025,301.338
	c1.205,0,2.182-0.977,2.182-2.182c0-1.205-0.977-2.181-2.182-2.181s-2.182,0.976-2.182,2.181
	C186.844,300.361,187.82,301.338,189.025,301.338z"/>
<path fill="none" stroke="#00DCE6" stroke-linecap="round" stroke-miterlimit="10" d="M188.783,296.733l-0.971-4.001"/>
<path fill="none" stroke="#00DCE6" stroke-linecap="round" stroke-miterlimit="10" d="M198.723,272.853l-4.121,3.636"/>
<path fill="none" stroke="#00DCE6" stroke-miterlimit="10" d="M195.57,286.671l2.789,1.454"/>
<path fill="none" stroke="#00DCE6" stroke-linecap="round" stroke-miterlimit="10" d="M167.691,284.49
	c2.009,0,3.637-1.628,3.637-3.637c0-2.008-1.628-3.636-3.637-3.636c-2.008,0-3.636,1.628-3.636,3.636
	C164.055,282.862,165.684,284.49,167.691,284.49z"/>
<path fill="none" stroke="#00DCE6" stroke-linecap="round" stroke-miterlimit="10" d="M174.602,281.459l-3.152-0.242"/>
<path fill="none" stroke="#00DCE6" stroke-linecap="round" stroke-miterlimit="10" d="M185.752,292.732
	c5.825,0,10.546-4.722,10.546-10.546c0-5.824-4.721-10.545-10.546-10.545c-5.824,0-10.545,4.721-10.545,10.545
	C175.207,288.01,179.928,292.732,185.752,292.732z"/>
<path fill="none" stroke="#00DCE6" stroke-miterlimit="10" d="M180.055,291.277l-3.15,4.97"/>
<path fill="none" stroke="#00DCE6" stroke-miterlimit="10" d="M183.691,285.096v1.576h-0.363l-1.212,1.212l-2.062,0.969
	c-0.605,0.243-1.091,0.485-1.453,0.849"/>
<path fill="none" stroke="#00DCE6" stroke-miterlimit="10" d="M190.116,278.308v0.848l0.849,0.364v1.575
	c0,0.243-0.122,0.607-0.363,0.607l-0.485,0.606c0,0,0,0.606,0,0.848c0,1.576-2.06,2.182-2.425,2.424
	c-0.363,0.243-0.969,0.364-1.575,0.364s-1.333-0.242-1.576-0.364c-0.363-0.242-2.424-0.848-2.424-2.424c0-0.242,0-0.848,0-0.848
	l-0.485-0.606c-0.242-0.243-0.363-0.364-0.363-0.607v-1.575l0.849-0.364v-0.848c0-2.061,1.696-3.637,3.636-3.637h0.85
	C188.419,274.55,190.116,276.247,190.116,278.308z"/>
<path fill="none" stroke="#00DCE6" stroke-miterlimit="10" d="M183.691,286.672l2.425,2.061"/>
<path fill="none" stroke="#00DCE6" stroke-miterlimit="10" d="M186.116,288.732l-2.062,1.576l-1.938-2.424"/>
<path fill="none" stroke="#00DCE6" stroke-miterlimit="10" d="M188.419,285.096v1.576h0.364l1.212,1.212l2.062,0.969
	c0.483,0.122,0.969,0.364,1.332,0.606"/>
<path fill="none" stroke="#00DCE6" stroke-miterlimit="10" d="M188.419,286.672l-2.303,2.061"/>
<path fill="none" stroke="#00DCE6" stroke-miterlimit="10" d="M186.116,288.732l1.94,1.576l2.06-2.424"/>
<path fill="none" stroke="#00DCE6" stroke-miterlimit="10" d="M201.025,395.158h-7.03v11.879h13.94v-1.576L201.025,395.158z"/>
<path fill="none" stroke="#00DCE6" stroke-miterlimit="10" d="M197.995,416.007c0,2.303,1.817,4.121,4.121,4.121
	c2.303,0,4.12-1.818,4.12-4.121s-1.817-4.121-4.12-4.121C199.813,411.886,197.995,413.704,197.995,416.007z"/>
<path fill="none" stroke="#00DCE6" stroke-miterlimit="10" d="M199.57,416.007c0,1.334,1.092,2.425,2.425,2.425
	s2.424-1.091,2.424-2.425c0-1.333-1.091-2.424-2.424-2.424S199.57,414.795,199.57,416.007z"/>
<path fill="none" stroke="#00DCE6" stroke-miterlimit="10" d="M168.54,415.886c0,2.304,1.817,4.121,4,4.242
	c2.303,0,4.121-1.818,4.242-4c0-2.303-1.818-4.121-4-4.242C170.357,411.886,168.54,413.583,168.54,415.886z"/>
<path fill="none" stroke="#00DCE6" stroke-miterlimit="10" d="M192.177,393.098h10.183l8.484,12.364v9.454h-4.728
	c-0.485-1.697-2.06-2.909-4-2.909c-1.939,0-3.394,1.333-4,2.909h-5.939h-15.516c-0.485-1.697-2.06-2.909-3.879-2.909
	c-1.818,0-3.515,1.333-4,2.909h-4.97v-21.697L192.177,393.098z"/>
<path fill="none" stroke="#00DCE6" stroke-miterlimit="10" d="M170.357,416.007c0,1.333,0.971,2.424,2.304,2.424
	c1.334,0,2.425-0.97,2.425-2.303s-0.97-2.424-2.304-2.424C171.449,413.582,170.357,414.795,170.357,416.007z"/>
<path fill="none" stroke="#00DCE6" stroke-miterlimit="10" d="M189.51,396.977h-20.97"/>
<path fill="none" stroke="#00DCE6" stroke-miterlimit="10" d="M189.51,400.977h-20.97"/>
<path fill="none" stroke="#00DCE6" stroke-miterlimit="10" d="M189.51,404.734h-20.97"/>
<path fill="none" stroke="#00DCE6" stroke-miterlimit="10" d="M200.54,664.618h-36.606v-22.183h8.242"/>
<path fill="none" stroke="#00DCE6" stroke-miterlimit="10" d="M200.055,642.436h8.243v22.183h-8.243"/>
<path fill="none" stroke="#00DCE6" stroke-miterlimit="10" d="M193.51,663.043v-16.485"/>
<path fill="none" stroke="#00DCE6" stroke-miterlimit="10" d="M178.723,663.043v-16.485"/>
<path fill="none" stroke="#00DCE6" stroke-miterlimit="10" d="M186.116,646.679v13.939"/>
<path fill="none" stroke="#00DCE6" stroke-miterlimit="10" d="M164.176,659.891h8.243"/>
<path fill="none" stroke="#00DCE6" stroke-miterlimit="10" d="M199.813,659.891h8.364"/>
<path fill="none" stroke="#00DCE6" stroke-miterlimit="10" d="M164.055,642.436h-2.667v-8.242h8.969"/>
<path fill="none" stroke="#00DCE6" stroke-miterlimit="10" d="M201.752,634.193h8.971v8.242h-2.546"/>
<path fill="none" stroke="#00DCE6" stroke-miterlimit="10" d="M172.54,659.891h6.667"/>
<path fill="none" stroke="#00DCE6" stroke-miterlimit="10" d="M193.51,659.891h6.303"/>
<path fill="none" stroke="#00DCE6" stroke-miterlimit="10" d="M195.086,663.042h-18.182v1.697h18.182V663.042z"/>
<path fill="none" stroke="#00DCE6" stroke-miterlimit="10" d="M193.51,661.467h-14.787v1.697h14.787V661.467z"/>
<path fill="none" stroke="#00DCE6" stroke-miterlimit="10" d="M184.298,654.072v3.637"/>
<path fill="none" stroke="#00DCE6" stroke-miterlimit="10" d="M188.298,654.072v3.637"/>
<path fill="none" stroke="#00DCE6" stroke-miterlimit="10" d="M201.753,629.345h-31.274v13.091h31.274V629.345z"/>
<path fill="none" stroke="#00DCE6" stroke-miterlimit="10" d="M195.086,642.436h-17.334v4.121h17.334V642.436z"/>
<path fill="none" stroke="#00DCE6" stroke-miterlimit="10" d="M178.723,634.193c0,2.303-1.818,4.122-4.121,4.122
	c-2.305,0-4.123-1.819-4.123-4.122"/>
<path fill="none" stroke="#00DCE6" stroke-miterlimit="10" d="M186.116,634.193c0,2.303-1.697,4.122-3.638,4.122
	c-2.06,0-3.636-1.819-3.636-4.122"/>
<path fill="none" stroke="#00DCE6" stroke-miterlimit="10" d="M193.51,634.193c0,2.303-1.697,4.122-3.637,4.122
	s-3.637-1.819-3.637-4.122"/>
<path fill="none" stroke="#00DCE6" stroke-miterlimit="10" d="M201.753,634.193c0,2.303-1.819,4.122-4.122,4.122
	s-4.121-1.819-4.121-4.122"/>
<path fill="none" stroke="#00DCE6" stroke-miterlimit="10" d="M181.995,527.039v2.909h-0.728l-2.061,2.061l-3.637,1.697
	c-1.939,0.485-3.516,1.938-3.516,3.272v8.485"/>
<path fill="none" stroke="#00DCE6" stroke-miterlimit="10" d="M181.995,529.948l4.241,3.515"/>
<path fill="none" stroke="#00DCE6" stroke-miterlimit="10" d="M186.236,533.463l-3.514,2.788l-3.637-4.242"/>
<path fill="none" stroke="#00DCE6" stroke-miterlimit="10" d="M190.48,527.039v2.909h0.727l2.061,2.061l3.637,1.697
	c1.939,0.485,3.515,1.938,3.515,3.272v8.485"/>
<path fill="none" stroke="#00DCE6" stroke-miterlimit="10" d="M190.48,529.948l-4.244,3.515"/>
<path fill="none" stroke="#00DCE6" stroke-miterlimit="10" d="M186.236,533.463l3.395,2.788l3.637-4.242"/>
<path fill="none" stroke="#00DCE6" stroke-miterlimit="10" d="M188.298,534.918l-0.728,3.515h-2.787l-0.729-3.515"/>
<path fill="none" stroke="#00DCE6" stroke-miterlimit="10" d="M188.298,544.737l-0.728-6.304h-2.787l-0.729,6.304"/>
<path fill="none" stroke="#00DCE6" stroke-miterlimit="10" d="M194.48,518.191v-4.85c0-4.364-1.213-5.212-5.819-5.212h-11.636v3.273
	c0,1.454,1.211,3.271,3.879,3.271c2.666,0,7.879,0,8.97,0c1.938,0,2.545,1.697,2.545,3.273c0,0.243,0,0.121,0,0.605h1.94v2.546
	c0,0.485-0.243,0.849-0.607,1.092l-1.333,0.969c0,0,0,0.728,0,0.97c0,2.546-3.272,3.637-3.879,3.879s-1.576,0.606-2.545,0.606
	c-0.97,0-2.062-0.364-2.546-0.606c-0.485-0.242-3.879-1.333-3.879-3.879c0-0.242,0-0.97,0-0.97l-1.334-0.969
	c-0.363-0.243-0.605-0.606-0.605-1.092v-2.546h1.939c0-0.484,0-0.969,0-1.333c0-1.091,0.484-1.938,1.334-2.546"/>
<path fill="none" stroke="#00DCE6" stroke-miterlimit="10" d="M177.752,513.221c-0.242,0.242-0.605,0.728-0.605,1.939
	c0,0.484,0,1.091,0,1.333c0,1.091,0.727,1.697,1.332,1.939"/>
<path fill="none" stroke="#00DCE6" stroke-linejoin="round" stroke-miterlimit="10" d="M181.995,788.62v-22.909l5.212,5.212
	c0.97,0.97,2.546,1.334,3.273,0.485l0.97-0.971c0,0-3.273-4.969-4.364-6.545c-1.212-1.575-3.273-5.212-7.031-5.212h-5.938
	c-2.546,0-5.576,2.545-5.576,5.939v6.303c0,1.697,2.062,3.637,3.879,3.637"/>
<path fill="none" stroke="#00DCE6" stroke-linejoin="round" stroke-miterlimit="10" d="M172.298,764.862v23.758"/>
<path fill="none" stroke="#00DCE6" stroke-linejoin="round" stroke-miterlimit="10" d="M177.631,774.56v14.061"/>
<path fill="none" stroke="#00DCE6" stroke-linejoin="round" stroke-miterlimit="10" d="M177.631,756.014
	c2.061,0,3.516-1.455,3.516-3.516v-1.697c0-2.06-1.455-3.515-3.516-3.515s-3.515,1.455-3.515,3.515v1.697
	C174.116,754.559,175.57,756.014,177.631,756.014z"/>
<path fill="none" stroke="#00DCE6" stroke-linejoin="round" stroke-miterlimit="10" d="M183.813,787.651h18.426V774.56h-18.426"/>
<path fill="none" stroke="#00DCE6" stroke-linejoin="round" stroke-miterlimit="10" d="M195.207,774.56h-6.182v3.516h6.182V774.56z"
	/>
<path fill="none" stroke="#00DCE6" stroke-linejoin="round" stroke-miterlimit="10" d="M199.57,784.257h-1.696"/>
<path fill="none" stroke="#00DCE6" stroke-linejoin="round" stroke-miterlimit="10" d="M196.904,784.257h-1.697"/>
<text transform="matrix(1 0 0 1 249.5 48)" font-family="'MicrosoftYaHeiLight'" font-size="13">供货商</text>
<text transform="matrix(1 0 0 1 249.5 167)" font-family="'MicrosoftYaHeiLight'" font-size="13">制造商</text>
<text transform="matrix(1 0 0 1 249.5 289)" font-family="'MicrosoftYaHeiLight'" font-size="13">配送方</text>
<text transform="matrix(1 0 0 1 249.5 410)" font-family="'MicrosoftYaHeiLight'" font-size="13">第三方物流</text>
<text transform="matrix(1 0 0 1 249.5 532)" font-family="'MicrosoftYaHeiLight'" font-size="13">零售商</text>
<text transform="matrix(1 0 0 1 249.5 652)" font-family="'MicrosoftYaHeiLight'" font-size="13">商店</text>
<text transform="matrix(1 0 0 1 249.5 775)" font-family="'MicrosoftYaHeiLight'" font-size="13">顾客</text>
</svg>
