<svg width="724" height="196" viewBox="0 0 724 196" fill="none" xmlns="http://www.w3.org/2000/svg">
<g clip-path="url(#clip0)">
<path d="M26.1 0.800781H697.8C712.3 0.800781 724 12.5008 724 27.0008C724 41.5008 712.3 53.1008 697.9 53.1008H26.1C11.7 53.1008 0 41.4008 0 27.0008C0 12.5008 11.7 0.800781 26.1 0.800781Z" fill="#00DCE6" fill-opacity="0.1"/>
<path d="M23.7188 175.15C22.6735 174.849 21.9118 174.481 21.4336 174.045C20.9596 173.605 20.7227 173.064 20.7227 172.42C20.7227 171.693 21.0125 171.092 21.5923 170.618C22.1763 170.139 22.9338 169.9 23.8647 169.9C24.4995 169.9 25.0645 170.023 25.5596 170.269C26.0589 170.514 26.444 170.853 26.7148 171.284C26.9899 171.716 27.1274 172.188 27.1274 172.7H25.9023C25.9023 172.141 25.7246 171.703 25.3691 171.386C25.0137 171.064 24.5122 170.903 23.8647 170.903C23.2638 170.903 22.7941 171.037 22.4556 171.303C22.1213 171.566 21.9541 171.932 21.9541 172.401C21.9541 172.778 22.1128 173.097 22.4302 173.36C22.7518 173.618 23.2956 173.855 24.0615 174.071C24.8317 174.287 25.4326 174.526 25.8643 174.788C26.3001 175.046 26.6217 175.349 26.8291 175.696C27.0407 176.043 27.1465 176.451 27.1465 176.921C27.1465 177.67 26.8545 178.271 26.2705 178.724C25.6865 179.172 24.9058 179.396 23.9282 179.396C23.2935 179.396 22.701 179.276 22.1509 179.035C21.6007 178.789 21.1755 178.455 20.875 178.032C20.5788 177.609 20.4307 177.128 20.4307 176.591H21.6558C21.6558 177.149 21.861 177.592 22.2715 177.917C22.6862 178.239 23.2384 178.4 23.9282 178.4C24.5715 178.4 25.0645 178.269 25.4072 178.006C25.75 177.744 25.9214 177.386 25.9214 176.934C25.9214 176.481 25.7627 176.132 25.4453 175.886C25.1279 175.637 24.5524 175.391 23.7188 175.15ZM32.7705 178.59C32.3135 179.128 31.6427 179.396 30.7583 179.396C30.0262 179.396 29.4676 179.185 29.0825 178.762C28.7017 178.334 28.5091 177.704 28.5049 176.87V172.401H29.6792V176.838C29.6792 177.879 30.1024 178.4 30.9487 178.4C31.8459 178.4 32.4425 178.066 32.7388 177.397V172.401H33.9131V179.27H32.7959L32.7705 178.59ZM41.5049 175.912C41.5049 176.957 41.2658 177.799 40.7876 178.438C40.3094 179.077 39.6619 179.396 38.8452 179.396C38.0116 179.396 37.3556 179.132 36.8774 178.603V181.91H35.7031V172.401H36.7759L36.833 173.163C37.3112 172.571 37.9756 172.274 38.8262 172.274C39.6514 172.274 40.3031 172.585 40.7812 173.208C41.2637 173.83 41.5049 174.695 41.5049 175.804V175.912ZM40.3306 175.778C40.3306 175.004 40.1655 174.392 39.8354 173.944C39.5054 173.495 39.0526 173.271 38.4771 173.271C37.7661 173.271 37.2329 173.586 36.8774 174.217V177.499C37.2287 178.125 37.7661 178.438 38.4897 178.438C39.0526 178.438 39.499 178.216 39.8291 177.771C40.1634 177.323 40.3306 176.659 40.3306 175.778ZM48.8047 175.912C48.8047 176.957 48.5656 177.799 48.0874 178.438C47.6092 179.077 46.9618 179.396 46.145 179.396C45.3114 179.396 44.6554 179.132 44.1772 178.603V181.91H43.0029V172.401H44.0757L44.1328 173.163C44.611 172.571 45.2754 172.274 46.126 172.274C46.9512 172.274 47.6029 172.585 48.0811 173.208C48.5635 173.83 48.8047 174.695 48.8047 175.804V175.912ZM47.6304 175.778C47.6304 175.004 47.4653 174.392 47.1353 173.944C46.8052 173.495 46.3524 173.271 45.7769 173.271C45.0659 173.271 44.5327 173.586 44.1772 174.217V177.499C44.5285 178.125 45.0659 178.438 45.7896 178.438C46.3524 178.438 46.7988 178.216 47.1289 177.771C47.4632 177.323 47.6304 176.659 47.6304 175.778ZM51.5786 179.27H50.4043V169.52H51.5786V179.27ZM54.7397 179.27H53.5654V172.401H54.7397V179.27ZM53.4702 170.58C53.4702 170.389 53.5273 170.228 53.6416 170.097C53.7601 169.966 53.9336 169.9 54.1621 169.9C54.3906 169.9 54.5641 169.966 54.6826 170.097C54.8011 170.228 54.8604 170.389 54.8604 170.58C54.8604 170.77 54.8011 170.929 54.6826 171.056C54.5641 171.183 54.3906 171.246 54.1621 171.246C53.9336 171.246 53.7601 171.183 53.6416 171.056C53.5273 170.929 53.4702 170.77 53.4702 170.58ZM59.4751 179.396C58.5441 179.396 57.7866 179.092 57.2026 178.482C56.6187 177.869 56.3267 177.05 56.3267 176.026V175.81C56.3267 175.129 56.4557 174.521 56.7139 173.988C56.9762 173.451 57.3402 173.032 57.8057 172.731C58.2754 172.427 58.7832 172.274 59.3291 172.274C60.222 172.274 60.916 172.569 61.4111 173.157C61.9062 173.745 62.1538 174.587 62.1538 175.683V176.172H57.501C57.5179 176.849 57.7147 177.397 58.0913 177.816C58.4722 178.231 58.9546 178.438 59.5386 178.438C59.9533 178.438 60.3045 178.353 60.5923 178.184C60.88 178.015 61.1318 177.791 61.3477 177.511L62.0649 178.07C61.4894 178.954 60.6261 179.396 59.4751 179.396ZM59.3291 173.239C58.8551 173.239 58.4574 173.413 58.1357 173.76C57.8141 174.103 57.6152 174.585 57.5391 175.207H60.9795V175.118C60.9456 174.521 60.7848 174.06 60.4971 173.734C60.2093 173.404 59.82 173.239 59.3291 173.239ZM66.8384 173.455C66.6606 173.425 66.4681 173.411 66.2607 173.411C65.4906 173.411 64.9679 173.739 64.6929 174.395V179.27H63.5186V172.401H64.6611L64.6802 173.195C65.0653 172.581 65.6112 172.274 66.3179 172.274C66.5464 172.274 66.7199 172.304 66.8384 172.363V173.455Z" fill="#1F2432"/>
<path d="M44.0002 157.799C67.1002 157.799 85.8002 139.099 85.8002 115.999C85.8002 92.8992 67.1002 74.1992 44.0002 74.1992C20.9002 74.1992 2.2002 92.8992 2.2002 115.999C2.2002 139.099 20.9002 157.799 44.0002 157.799Z" fill="#1F2432"/>
<path d="M30.2 102.799V116.699H21V102.799" fill="#1F2432"/>
<path d="M30.2 102.799V116.699H21V102.799" stroke="#00DCE6"/>
<path d="M48.6004 102.799V116.699H39.4004V102.799" fill="#1F2432"/>
<path d="M48.6004 102.799V116.699H39.4004V102.799" stroke="#00DCE6"/>
<path d="M66.9998 102.799V116.699H57.7998V102.799" fill="#1F2432"/>
<path d="M66.9998 102.799V116.699H57.7998V102.799" stroke="#00DCE6"/>
<path d="M70 116.498H18V134.398H70V116.498Z" fill="#1F2432" stroke="#00DCE6"/>
<path d="M53.7004 97.1992H34.4004V102.499H53.8004L53.7004 97.1992Z" fill="#1F2432" stroke="#00DCE6"/>
<path d="M44 93.3984V97.0984V93.3984Z" fill="#1F2432"/>
<path d="M44 93.3984V97.0984" stroke="#00DCE6"/>
<path d="M52.6004 120.998H35.4004V134.298H52.8004L52.6004 120.998Z" fill="#1F2432" stroke="#00DCE6"/>
<path d="M52.6 120.998H44V134.398H52.6V120.998Z" fill="#1F2432" stroke="#00DCE6"/>
<path d="M67 102.498H21V105.898H67.1L67 102.498Z" fill="#1F2432" stroke="#00DCE6"/>
<path d="M46.7998 125.998V129.998V125.998Z" fill="#1F2432"/>
<path d="M46.7998 125.998V129.998" stroke="#00DCE6"/>
<path d="M41.5 125.998V129.998V125.998Z" fill="#1F2432"/>
<path d="M41.5 125.998V129.998" stroke="#00DCE6"/>
<path d="M26.3998 120.998H21.7998V130.898H26.3998V120.998Z" fill="#1F2432" stroke="#00DCE6"/>
<path d="M65.8002 120.998H61.2002V130.898H65.8002V120.998Z" fill="#1F2432" stroke="#00DCE6"/>
<path d="M36.5 99.7988H50.8H36.5Z" fill="#1F2432"/>
<path d="M36.5 99.7988H50.8" stroke="#00DCE6"/>
<path d="M126.147 175.651V179.27H124.928V170.027H128.337C129.348 170.027 130.14 170.285 130.711 170.802C131.286 171.318 131.574 172.001 131.574 172.852C131.574 173.749 131.293 174.441 130.73 174.928C130.171 175.41 129.369 175.651 128.324 175.651H126.147ZM126.147 174.655H128.337C128.989 174.655 129.488 174.502 129.835 174.198C130.182 173.889 130.355 173.444 130.355 172.865C130.355 172.315 130.182 171.875 129.835 171.544C129.488 171.214 129.012 171.043 128.407 171.03H126.147V174.655ZM136.265 173.455C136.087 173.425 135.895 173.411 135.688 173.411C134.917 173.411 134.395 173.739 134.12 174.395V179.27H132.945V172.401H134.088L134.107 173.195C134.492 172.581 135.038 172.274 135.745 172.274C135.973 172.274 136.147 172.304 136.265 172.363V173.455ZM136.913 175.772C136.913 175.099 137.044 174.494 137.306 173.957C137.573 173.419 137.941 173.004 138.411 172.712C138.885 172.42 139.424 172.274 140.029 172.274C140.965 172.274 141.72 172.598 142.295 173.246C142.875 173.893 143.165 174.754 143.165 175.829V175.912C143.165 176.58 143.036 177.181 142.778 177.714C142.524 178.243 142.158 178.656 141.68 178.952C141.206 179.248 140.66 179.396 140.042 179.396C139.111 179.396 138.356 179.073 137.776 178.425C137.2 177.778 136.913 176.921 136.913 175.854V175.772ZM138.093 175.912C138.093 176.673 138.269 177.285 138.62 177.746C138.976 178.207 139.45 178.438 140.042 178.438C140.639 178.438 141.113 178.205 141.464 177.74C141.815 177.27 141.991 176.614 141.991 175.772C141.991 175.019 141.811 174.409 141.451 173.944C141.096 173.474 140.622 173.239 140.029 173.239C139.45 173.239 138.982 173.47 138.626 173.931C138.271 174.392 138.093 175.053 138.093 175.912ZM144.352 175.778C144.352 174.725 144.602 173.878 145.101 173.239C145.6 172.596 146.254 172.274 147.062 172.274C147.867 172.274 148.503 172.549 148.973 173.1V169.52H150.147V179.27H149.068L149.011 178.533C148.542 179.109 147.888 179.396 147.05 179.396C146.254 179.396 145.605 179.071 145.101 178.419C144.602 177.767 144.352 176.917 144.352 175.867V175.778ZM145.526 175.912C145.526 176.69 145.687 177.3 146.009 177.74C146.33 178.18 146.775 178.4 147.342 178.4C148.087 178.4 148.63 178.066 148.973 177.397V174.242C148.622 173.595 148.082 173.271 147.354 173.271C146.779 173.271 146.33 173.493 146.009 173.938C145.687 174.382 145.526 175.04 145.526 175.912ZM156.216 178.59C155.759 179.128 155.088 179.396 154.204 179.396C153.472 179.396 152.913 179.185 152.528 178.762C152.147 178.334 151.954 177.704 151.95 176.87V172.401H153.125V176.838C153.125 177.879 153.548 178.4 154.394 178.4C155.291 178.4 155.888 178.066 156.184 177.397V172.401H157.358V179.27H156.241L156.216 178.59ZM161.903 178.438C162.322 178.438 162.688 178.311 163.001 178.057C163.315 177.803 163.488 177.486 163.522 177.105H164.633C164.612 177.499 164.476 177.873 164.227 178.229C163.977 178.584 163.643 178.868 163.224 179.079C162.809 179.291 162.369 179.396 161.903 179.396C160.968 179.396 160.223 179.085 159.669 178.463C159.119 177.837 158.844 176.982 158.844 175.899V175.702C158.844 175.034 158.966 174.439 159.212 173.918C159.457 173.398 159.809 172.994 160.266 172.706C160.727 172.418 161.271 172.274 161.897 172.274C162.667 172.274 163.306 172.505 163.814 172.966C164.326 173.428 164.599 174.026 164.633 174.763H163.522C163.488 174.318 163.319 173.954 163.014 173.671C162.714 173.383 162.341 173.239 161.897 173.239C161.3 173.239 160.837 173.455 160.507 173.887C160.181 174.314 160.018 174.934 160.018 175.747V175.969C160.018 176.76 160.181 177.369 160.507 177.797C160.833 178.224 161.298 178.438 161.903 178.438ZM168.803 179.396C167.872 179.396 167.115 179.092 166.531 178.482C165.947 177.869 165.655 177.05 165.655 176.026V175.81C165.655 175.129 165.784 174.521 166.042 173.988C166.304 173.451 166.668 173.032 167.134 172.731C167.604 172.427 168.111 172.274 168.657 172.274C169.55 172.274 170.244 172.569 170.739 173.157C171.234 173.745 171.482 174.587 171.482 175.683V176.172H166.829C166.846 176.849 167.043 177.397 167.419 177.816C167.8 178.231 168.283 178.438 168.867 178.438C169.281 178.438 169.633 178.353 169.92 178.184C170.208 178.015 170.46 177.791 170.676 177.511L171.393 178.07C170.818 178.954 169.954 179.396 168.803 179.396ZM168.657 173.239C168.183 173.239 167.785 173.413 167.464 173.76C167.142 174.103 166.943 174.585 166.867 175.207H170.308V175.118C170.274 174.521 170.113 174.06 169.825 173.734C169.537 173.404 169.148 173.239 168.657 173.239ZM176.167 173.455C175.989 173.425 175.796 173.411 175.589 173.411C174.819 173.411 174.296 173.739 174.021 174.395V179.27H172.847V172.401H173.989L174.008 173.195C174.393 172.581 174.939 172.274 175.646 172.274C175.875 172.274 176.048 172.304 176.167 172.363V173.455Z" fill="#1F2432"/>
<path d="M150.4 157.799C173.5 157.799 192.2 139.099 192.2 115.999C192.2 92.8992 173.5 74.1992 150.4 74.1992C127.3 74.1992 108.6 92.8992 108.6 115.999C108.6 139.099 127.4 157.799 150.4 157.799Z" fill="#1F2432"/>
<path d="M166.9 134.799H133.8C129.9 134.799 126.8 131.699 126.8 127.799C126.8 123.899 129.9 120.799 133.8 120.799H166.9C170.8 120.799 173.9 123.899 173.9 127.799C173.9 131.599 170.8 134.799 166.9 134.799Z" fill="#1F2432" stroke="#00DCE6"/>
<path d="M134.399 131.699C136.609 131.699 138.399 129.908 138.399 127.699C138.399 125.49 136.609 123.699 134.399 123.699C132.19 123.699 130.399 125.49 130.399 127.699C130.399 129.908 132.19 131.699 134.399 131.699Z" fill="#1F2432" stroke="#00DCE6"/>
<path d="M145 131.699C147.209 131.699 149 129.908 149 127.699C149 125.49 147.209 123.699 145 123.699C142.791 123.699 141 125.49 141 127.699C141 129.908 142.791 131.699 145 131.699Z" fill="#1F2432" stroke="#00DCE6"/>
<path d="M155.7 131.699C157.909 131.699 159.7 129.908 159.7 127.699C159.7 125.49 157.909 123.699 155.7 123.699C153.491 123.699 151.7 125.49 151.7 127.699C151.7 129.908 153.491 131.699 155.7 131.699Z" fill="#1F2432" stroke="#00DCE6"/>
<path d="M166.3 131.699C168.509 131.699 170.3 129.908 170.3 127.699C170.3 125.49 168.509 123.699 166.3 123.699C164.091 123.699 162.3 125.49 162.3 127.699C162.3 129.908 164.091 131.699 166.3 131.699Z" fill="#1F2432" stroke="#00DCE6"/>
<path d="M136.1 120.699V97.1992H164.7V120.699" fill="#1F2432"/>
<path d="M136.1 120.699V97.1992H164.7V120.699" stroke="#00DCE6"/>
<path d="M142.3 108.899V111.599H152.3V115.199L158.5 108.899L152.3 102.699V106.299H142.3V108.899Z" fill="#1F2432" stroke="#00DCE6"/>
<path d="M226.976 179.27V170.027H229.585C230.389 170.027 231.1 170.205 231.718 170.561C232.336 170.916 232.812 171.422 233.146 172.078C233.485 172.734 233.656 173.487 233.66 174.337V174.928C233.66 175.799 233.491 176.563 233.152 177.219C232.818 177.875 232.338 178.379 231.711 178.73C231.089 179.081 230.364 179.261 229.534 179.27H226.976ZM228.195 171.03V178.273H229.477C230.417 178.273 231.146 177.981 231.667 177.397C232.192 176.813 232.454 175.981 232.454 174.902V174.363C232.454 173.313 232.207 172.499 231.711 171.919C231.221 171.335 230.522 171.039 229.617 171.03H228.195ZM236.599 179.27H235.425V172.401H236.599V179.27ZM235.33 170.58C235.33 170.389 235.387 170.228 235.501 170.097C235.619 169.966 235.793 169.9 236.021 169.9C236.25 169.9 236.424 169.966 236.542 170.097C236.66 170.228 236.72 170.389 236.72 170.58C236.72 170.77 236.66 170.929 236.542 171.056C236.424 171.183 236.25 171.246 236.021 171.246C235.793 171.246 235.619 171.183 235.501 171.056C235.387 170.929 235.33 170.77 235.33 170.58ZM242.483 177.448C242.483 177.13 242.363 176.885 242.122 176.711C241.885 176.534 241.468 176.381 240.871 176.254C240.279 176.127 239.807 175.975 239.456 175.797C239.109 175.62 238.85 175.408 238.681 175.163C238.516 174.917 238.434 174.625 238.434 174.287C238.434 173.724 238.671 173.248 239.145 172.858C239.623 172.469 240.232 172.274 240.973 172.274C241.751 172.274 242.382 172.475 242.864 172.877C243.351 173.279 243.594 173.794 243.594 174.42H242.414C242.414 174.098 242.276 173.821 242.001 173.588C241.73 173.356 241.387 173.239 240.973 173.239C240.545 173.239 240.211 173.332 239.97 173.519C239.729 173.705 239.608 173.948 239.608 174.249C239.608 174.532 239.72 174.746 239.944 174.89C240.169 175.034 240.573 175.171 241.157 175.302C241.745 175.433 242.221 175.59 242.585 175.772C242.949 175.954 243.218 176.174 243.391 176.432C243.569 176.686 243.658 176.997 243.658 177.365C243.658 177.979 243.412 178.472 242.921 178.844C242.431 179.212 241.794 179.396 241.011 179.396C240.461 179.396 239.974 179.299 239.551 179.104C239.128 178.91 238.795 178.639 238.554 178.292C238.317 177.941 238.199 177.562 238.199 177.156H239.373C239.394 177.549 239.551 177.862 239.843 178.095C240.139 178.324 240.528 178.438 241.011 178.438C241.455 178.438 241.811 178.349 242.077 178.171C242.348 177.989 242.483 177.748 242.483 177.448ZM246.781 170.738V172.401H248.063V173.309H246.781V177.568C246.781 177.843 246.838 178.051 246.952 178.19C247.066 178.326 247.261 178.394 247.536 178.394C247.672 178.394 247.858 178.368 248.095 178.317V179.27C247.786 179.354 247.485 179.396 247.193 179.396C246.669 179.396 246.273 179.238 246.006 178.92C245.74 178.603 245.606 178.152 245.606 177.568V173.309H244.356V172.401H245.606V170.738H246.781ZM252.76 173.455C252.583 173.425 252.39 173.411 252.183 173.411C251.412 173.411 250.89 173.739 250.615 174.395V179.27H249.44V172.401H250.583L250.602 173.195C250.987 172.581 251.533 172.274 252.24 172.274C252.468 172.274 252.642 172.304 252.76 172.363V173.455ZM255.122 179.27H253.947V172.401H255.122V179.27ZM253.852 170.58C253.852 170.389 253.909 170.228 254.023 170.097C254.142 169.966 254.315 169.9 254.544 169.9C254.772 169.9 254.946 169.966 255.064 170.097C255.183 170.228 255.242 170.389 255.242 170.58C255.242 170.77 255.183 170.929 255.064 171.056C254.946 171.183 254.772 171.246 254.544 171.246C254.315 171.246 254.142 171.183 254.023 171.056C253.909 170.929 253.852 170.77 253.852 170.58ZM262.821 175.912C262.821 176.961 262.58 177.805 262.098 178.444C261.615 179.079 260.968 179.396 260.155 179.396C259.288 179.396 258.617 179.09 258.143 178.476L258.086 179.27H257.007V169.52H258.181V173.157C258.655 172.569 259.309 172.274 260.143 172.274C260.976 172.274 261.63 172.59 262.104 173.22C262.582 173.851 262.821 174.714 262.821 175.81V175.912ZM261.647 175.778C261.647 174.979 261.493 174.361 261.184 173.925C260.875 173.489 260.43 173.271 259.851 173.271C259.076 173.271 258.52 173.631 258.181 174.35V177.321C258.541 178.04 259.102 178.4 259.863 178.4C260.426 178.4 260.864 178.182 261.177 177.746C261.49 177.31 261.647 176.654 261.647 175.778ZM268.547 178.59C268.09 179.128 267.419 179.396 266.535 179.396C265.803 179.396 265.244 179.185 264.859 178.762C264.478 178.334 264.285 177.704 264.281 176.87V172.401H265.456V176.838C265.456 177.879 265.879 178.4 266.725 178.4C267.622 178.4 268.219 178.066 268.515 177.397V172.401H269.689V179.27H268.572L268.547 178.59ZM273.073 170.738V172.401H274.355V173.309H273.073V177.568C273.073 177.843 273.13 178.051 273.244 178.19C273.358 178.326 273.553 178.394 273.828 178.394C273.964 178.394 274.15 178.368 274.387 178.317V179.27C274.078 179.354 273.777 179.396 273.485 179.396C272.961 179.396 272.565 179.238 272.298 178.92C272.032 178.603 271.898 178.152 271.898 177.568V173.309H270.648V172.401H271.898V170.738H273.073ZM275.294 175.772C275.294 175.099 275.426 174.494 275.688 173.957C275.955 173.419 276.323 173.004 276.792 172.712C277.266 172.42 277.806 172.274 278.411 172.274C279.346 172.274 280.102 172.598 280.677 173.246C281.257 173.893 281.547 174.754 281.547 175.829V175.912C281.547 176.58 281.418 177.181 281.16 177.714C280.906 178.243 280.54 178.656 280.062 178.952C279.588 179.248 279.042 179.396 278.424 179.396C277.493 179.396 276.737 179.073 276.158 178.425C275.582 177.778 275.294 176.921 275.294 175.854V175.772ZM276.475 175.912C276.475 176.673 276.651 177.285 277.002 177.746C277.357 178.207 277.831 178.438 278.424 178.438C279.021 178.438 279.494 178.205 279.846 177.74C280.197 177.27 280.373 176.614 280.373 175.772C280.373 175.019 280.193 174.409 279.833 173.944C279.478 173.474 279.004 173.239 278.411 173.239C277.831 173.239 277.364 173.47 277.008 173.931C276.653 174.392 276.475 175.053 276.475 175.912ZM286.339 173.455C286.162 173.425 285.969 173.411 285.762 173.411C284.992 173.411 284.469 173.739 284.194 174.395V179.27H283.02V172.401H284.162L284.181 173.195C284.566 172.581 285.112 172.274 285.819 172.274C286.047 172.274 286.221 172.304 286.339 172.363V173.455Z" fill="#1F2432"/>
<path d="M256.9 157.799C280 157.799 298.7 139.099 298.7 115.999C298.7 92.8992 280 74.1992 256.9 74.1992C233.8 74.1992 215.1 92.8992 215.1 115.999C215.1 139.099 233.8 157.799 256.9 157.799Z" fill="#1F2432"/>
<path d="M273.099 127.199C275.143 127.199 276.799 125.542 276.799 123.499C276.799 121.455 275.143 119.799 273.099 119.799C271.056 119.799 269.399 121.455 269.399 123.499C269.399 125.542 271.056 127.199 273.099 127.199Z" fill="#1F2432" stroke="#00DCE6" stroke-miterlimit="10"/>
<path d="M273.699 107.299C276.35 107.299 278.499 105.15 278.499 102.499C278.499 99.8483 276.35 97.6992 273.699 97.6992C271.048 97.6992 268.899 99.8483 268.899 102.499C268.899 105.15 271.048 107.299 273.699 107.299Z" fill="#1F2432" stroke="#00DCE6" stroke-miterlimit="10" stroke-linecap="round"/>
<path d="M244.599 138.598C247.25 138.598 249.399 136.449 249.399 133.798C249.399 131.147 247.25 128.998 244.599 128.998C241.948 128.998 239.799 131.147 239.799 133.798C239.799 136.449 241.948 138.598 244.599 138.598Z" fill="#1F2432" stroke="#00DCE6" stroke-miterlimit="10"/>
<path d="M254.399 98.5984C256.111 98.5984 257.499 97.2105 257.499 95.4984C257.499 93.7864 256.111 92.3984 254.399 92.3984C252.687 92.3984 251.299 93.7864 251.299 95.4984C251.299 97.2105 252.687 98.5984 254.399 98.5984Z" fill="#1F2432" stroke="#00DCE6" stroke-miterlimit="10"/>
<path d="M254.699 98.8984L255.499 104.798" stroke="#00DCE6" stroke-miterlimit="10"/>
<path d="M259.9 135.399C261.17 135.399 262.2 134.369 262.2 133.099C262.2 131.829 261.17 130.799 259.9 130.799C258.629 130.799 257.6 131.829 257.6 133.099C257.6 134.369 258.629 135.399 259.9 135.399Z" fill="#1F2432" stroke="#00DCE6" stroke-miterlimit="10" stroke-linecap="round"/>
<path d="M259.599 130.498L258.699 126.398" stroke="#00DCE6" stroke-miterlimit="10" stroke-linecap="round"/>
<path d="M269.999 105.898L265.699 109.698" stroke="#00DCE6" stroke-miterlimit="10" stroke-linecap="round"/>
<path d="M266.699 120.098L269.599 121.698" stroke="#00DCE6" stroke-miterlimit="10"/>
<path d="M237.899 117.898C239.943 117.898 241.599 116.241 241.599 114.198C241.599 112.155 239.943 110.498 237.899 110.498C235.856 110.498 234.199 112.155 234.199 114.198C234.199 116.241 235.856 117.898 237.899 117.898Z" fill="#1F2432" stroke="#00DCE6" stroke-miterlimit="10" stroke-linecap="round"/>
<path d="M245.099 114.798L241.799 114.498" stroke="#00DCE6" stroke-miterlimit="10" stroke-linecap="round"/>
<path d="M256.599 126.399C262.564 126.399 267.399 121.563 267.399 115.599C267.399 109.634 262.564 104.799 256.599 104.799C250.634 104.799 245.799 109.634 245.799 115.599C245.799 121.563 250.634 126.399 256.599 126.399Z" fill="#1F2432" stroke="#00DCE6" stroke-miterlimit="10" stroke-linecap="round"/>
<path d="M250.699 124.898L247.399 129.998" stroke="#00DCE6" stroke-miterlimit="10"/>
<path d="M254.399 118.5V120.1H253.999L252.799 121.3L250.699 122.2C250.099 122.4 249.599 122.7 249.199 123.1" fill="#1F2432"/>
<path d="M254.399 118.5V120.1H253.999L252.799 121.3L250.699 122.2C250.099 122.4 249.599 122.7 249.199 123.1" stroke="#00DCE6" stroke-miterlimit="10"/>
<path d="M261.099 111.499V112.399L261.999 112.799V114.399C261.999 114.699 261.899 114.999 261.599 115.099L261.099 115.699C261.099 115.699 261.099 116.399 261.099 116.599C261.099 118.199 258.999 118.899 258.599 119.099C258.199 119.299 257.599 119.499 256.999 119.499C256.399 119.499 255.699 119.299 255.399 119.099C254.999 118.899 252.899 118.199 252.899 116.599C252.899 116.399 252.899 115.699 252.899 115.699L252.399 115.099C252.199 114.899 251.999 114.699 251.999 114.399V112.799L252.899 112.399V111.499C252.899 109.399 254.599 107.799 256.599 107.799H257.499C259.399 107.699 261.099 109.399 261.099 111.499Z" fill="#1F2432" stroke="#00DCE6" stroke-miterlimit="10"/>
<path d="M254.399 120.1L256.899 122.2" stroke="#00DCE6" stroke-miterlimit="10"/>
<path d="M256.899 122.198L254.799 123.798L252.799 121.398" fill="#1F2432"/>
<path d="M256.899 122.198L254.799 123.798L252.799 121.398" stroke="#00DCE6" stroke-miterlimit="10"/>
<path d="M259.399 118.5V120.1H259.799L260.999 121.3L263.099 122.2C263.599 122.3 264.099 122.6 264.399 122.9" fill="#1F2432"/>
<path d="M259.399 118.5V120.1H259.799L260.999 121.3L263.099 122.2C263.599 122.3 264.099 122.6 264.399 122.9" stroke="#00DCE6" stroke-miterlimit="10"/>
<path d="M259.399 120.1L256.899 122.2" stroke="#00DCE6" stroke-miterlimit="10"/>
<path d="M256.899 122.198L258.999 123.798L261.099 121.398" fill="#1F2432"/>
<path d="M256.899 122.198L258.999 123.798L261.099 121.398" stroke="#00DCE6" stroke-miterlimit="10"/>
<path d="M354.479 174.077H355.362C355.916 174.069 356.352 173.923 356.669 173.639C356.987 173.356 357.146 172.973 357.146 172.49C357.146 171.407 356.606 170.865 355.527 170.865C355.019 170.865 354.613 171.011 354.308 171.303C354.008 171.591 353.857 171.974 353.857 172.452H352.683C352.683 171.72 352.95 171.113 353.483 170.63C354.02 170.144 354.702 169.9 355.527 169.9C356.399 169.9 357.082 170.131 357.577 170.592C358.072 171.054 358.32 171.695 358.32 172.516C358.32 172.918 358.189 173.307 357.926 173.684C357.668 174.06 357.315 174.342 356.866 174.528C357.374 174.689 357.765 174.955 358.041 175.328C358.32 175.7 358.459 176.155 358.459 176.692C358.459 177.522 358.189 178.18 357.647 178.667C357.105 179.153 356.401 179.396 355.533 179.396C354.666 179.396 353.959 179.162 353.413 178.692C352.871 178.222 352.601 177.602 352.601 176.832H353.781C353.781 177.319 353.94 177.708 354.257 178C354.575 178.292 355 178.438 355.533 178.438C356.1 178.438 356.534 178.29 356.834 177.994C357.135 177.697 357.285 177.272 357.285 176.718C357.285 176.18 357.12 175.768 356.79 175.48C356.46 175.192 355.984 175.044 355.362 175.036H354.479V174.077ZM361.595 175.651V179.27H360.376V170.027H363.785C364.797 170.027 365.588 170.285 366.159 170.802C366.735 171.318 367.022 172.001 367.022 172.852C367.022 173.749 366.741 174.441 366.178 174.928C365.62 175.41 364.818 175.651 363.772 175.651H361.595ZM361.595 174.655H363.785C364.437 174.655 364.936 174.502 365.283 174.198C365.63 173.889 365.804 173.444 365.804 172.865C365.804 172.315 365.63 171.875 365.283 171.544C364.936 171.214 364.46 171.043 363.855 171.03H361.595V174.655ZM369.803 178.273H374.183V179.27H368.578V170.027H369.803V178.273Z" fill="#1F2432"/>
<path d="M363.3 157.799C386.4 157.799 405.1 139.099 405.1 115.999C405.1 92.8992 386.4 74.1992 363.3 74.1992C340.2 74.1992 321.5 92.8992 321.5 115.999C321.5 139.099 340.3 157.799 363.3 157.799Z" fill="#1F2432"/>
<path d="M377.6 104.799H370.4V116.999H384.7V115.399L377.6 104.799Z" fill="#1F2432" stroke="#00DCE6" stroke-miterlimit="10"/>
<path d="M374.4 126.3C374.4 128.7 376.3 130.6 378.7 130.6C381.1 130.6 383 128.7 383 126.3C383 123.9 381.1 122 378.7 122C376.3 122 374.4 123.9 374.4 126.3Z" fill="#1F2432" stroke="#00DCE6" stroke-miterlimit="10"/>
<path d="M376.101 126.299C376.101 127.599 377.201 128.799 378.601 128.799C379.901 128.799 381.101 127.699 381.101 126.299C381.101 124.899 380.001 123.799 378.601 123.799C377.201 123.799 376.101 124.999 376.101 126.299Z" fill="#1F2432" stroke="#00DCE6" stroke-miterlimit="10"/>
<path d="M344.101 126.2C344.101 128.6 346.001 130.5 348.301 130.6C350.701 130.6 352.601 128.7 352.701 126.4C352.701 124 350.801 122.1 348.501 122C346.001 122 344.101 123.8 344.101 126.2Z" fill="#1F2432" stroke="#00DCE6" stroke-miterlimit="10"/>
<path d="M368.5 102.699H378.9L387.6 115.399V125.199H382.8C382.3 123.399 380.6 122.199 378.7 122.199C376.8 122.199 375.2 123.499 374.6 125.199H368.5H352.4C351.9 123.399 350.3 122.199 348.4 122.199C346.5 122.199 344.8 123.499 344.3 125.199H339.2V102.799L368.5 102.699Z" fill="#1F2432" stroke="#00DCE6" stroke-miterlimit="10"/>
<path d="M345.9 126.298C345.9 127.598 346.9 128.798 348.3 128.798C349.6 128.798 350.8 127.798 350.8 126.398C350.8 124.998 349.8 123.898 348.4 123.898C347 123.798 345.9 124.998 345.9 126.298Z" fill="#1F2432" stroke="#00DCE6" stroke-miterlimit="10"/>
<path d="M365.6 106.699H344H365.6Z" fill="#1F2432"/>
<path d="M365.6 106.699H344" stroke="#00DCE6" stroke-miterlimit="10"/>
<path d="M365.6 110.699H344H365.6Z" fill="#1F2432"/>
<path d="M365.6 110.699H344" stroke="#00DCE6" stroke-miterlimit="10"/>
<path d="M365.6 114.699H344H365.6Z" fill="#1F2432"/>
<path d="M365.6 114.699H344" stroke="#00DCE6" stroke-miterlimit="10"/>
<path d="M564.366 175.15C563.321 174.849 562.559 174.481 562.081 174.045C561.607 173.605 561.37 173.064 561.37 172.42C561.37 171.693 561.66 171.092 562.24 170.618C562.824 170.139 563.581 169.9 564.512 169.9C565.147 169.9 565.712 170.023 566.207 170.269C566.706 170.514 567.091 170.853 567.362 171.284C567.637 171.716 567.775 172.188 567.775 172.7H566.55C566.55 172.141 566.372 171.703 566.017 171.386C565.661 171.064 565.16 170.903 564.512 170.903C563.911 170.903 563.442 171.037 563.103 171.303C562.769 171.566 562.602 171.932 562.602 172.401C562.602 172.778 562.76 173.097 563.078 173.36C563.399 173.618 563.943 173.855 564.709 174.071C565.479 174.287 566.08 174.526 566.512 174.788C566.948 175.046 567.269 175.349 567.477 175.696C567.688 176.043 567.794 176.451 567.794 176.921C567.794 177.67 567.502 178.271 566.918 178.724C566.334 179.172 565.553 179.396 564.576 179.396C563.941 179.396 563.348 179.276 562.798 179.035C562.248 178.789 561.823 178.455 561.522 178.032C561.226 177.609 561.078 177.128 561.078 176.591H562.303C562.303 177.149 562.508 177.592 562.919 177.917C563.334 178.239 563.886 178.4 564.576 178.4C565.219 178.4 565.712 178.269 566.055 178.006C566.397 177.744 566.569 177.386 566.569 176.934C566.569 176.481 566.41 176.132 566.093 175.886C565.775 175.637 565.2 175.391 564.366 175.15ZM570.771 170.738V172.401H572.053V173.309H570.771V177.568C570.771 177.843 570.828 178.051 570.942 178.19C571.057 178.326 571.251 178.394 571.526 178.394C571.662 178.394 571.848 178.368 572.085 178.317V179.27C571.776 179.354 571.476 179.396 571.184 179.396C570.659 179.396 570.263 179.238 569.997 178.92C569.73 178.603 569.597 178.152 569.597 177.568V173.309H568.346V172.401H569.597V170.738H570.771ZM572.993 175.772C572.993 175.099 573.124 174.494 573.386 173.957C573.653 173.419 574.021 173.004 574.491 172.712C574.965 172.42 575.504 172.274 576.109 172.274C577.045 172.274 577.8 172.598 578.375 173.246C578.955 173.893 579.245 174.754 579.245 175.829V175.912C579.245 176.58 579.116 177.181 578.858 177.714C578.604 178.243 578.238 178.656 577.76 178.952C577.286 179.248 576.74 179.396 576.122 179.396C575.191 179.396 574.436 179.073 573.856 178.425C573.28 177.778 572.993 176.921 572.993 175.854V175.772ZM574.173 175.912C574.173 176.673 574.349 177.285 574.7 177.746C575.056 178.207 575.53 178.438 576.122 178.438C576.719 178.438 577.193 178.205 577.544 177.74C577.895 177.27 578.071 176.614 578.071 175.772C578.071 175.019 577.891 174.409 577.531 173.944C577.176 173.474 576.702 173.239 576.109 173.239C575.53 173.239 575.062 173.47 574.707 173.931C574.351 174.392 574.173 175.053 574.173 175.912ZM584.038 173.455C583.86 173.425 583.667 173.411 583.46 173.411C582.69 173.411 582.167 173.739 581.892 174.395V179.27H580.718V172.401H581.86L581.879 173.195C582.264 172.581 582.81 172.274 583.517 172.274C583.746 172.274 583.919 172.304 584.038 172.363V173.455ZM587.846 179.396C586.915 179.396 586.158 179.092 585.574 178.482C584.99 177.869 584.698 177.05 584.698 176.026V175.81C584.698 175.129 584.827 174.521 585.085 173.988C585.347 173.451 585.711 173.032 586.177 172.731C586.646 172.427 587.154 172.274 587.7 172.274C588.593 172.274 589.287 172.569 589.782 173.157C590.277 173.745 590.525 174.587 590.525 175.683V176.172H585.872C585.889 176.849 586.086 177.397 586.462 177.816C586.843 178.231 587.326 178.438 587.91 178.438C588.324 178.438 588.676 178.353 588.963 178.184C589.251 178.015 589.503 177.791 589.719 177.511L590.436 178.07C589.861 178.954 588.997 179.396 587.846 179.396ZM587.7 173.239C587.226 173.239 586.828 173.413 586.507 173.76C586.185 174.103 585.986 174.585 585.91 175.207H589.351V175.118C589.317 174.521 589.156 174.06 588.868 173.734C588.58 173.404 588.191 173.239 587.7 173.239Z" fill="#1F2432"/>
<path d="M576.2 157.799C599.3 157.799 618 139.099 618 115.999C618 92.8992 599.3 74.1992 576.2 74.1992C553.1 74.1992 534.4 92.8992 534.4 115.999C534.4 139.099 553.1 157.799 576.2 157.799Z" fill="#1F2432"/>
<path d="M590.801 134.199H553.001V111.299H561.501" fill="#1F2432"/>
<path d="M590.801 134.199H553.001V111.299H561.501" stroke="#00DCE6" stroke-miterlimit="10"/>
<path d="M590.301 111.299H598.801V134.199H590.301" fill="#1F2432"/>
<path d="M590.301 111.299H598.801V134.199H590.301" stroke="#00DCE6" stroke-miterlimit="10"/>
<path d="M583.501 132.5V115.5V132.5Z" fill="#1F2432"/>
<path d="M583.501 132.5V115.5" stroke="#00DCE6" stroke-miterlimit="10"/>
<path d="M568.201 132.5V115.5V132.5Z" fill="#1F2432"/>
<path d="M568.201 132.5V115.5" stroke="#00DCE6" stroke-miterlimit="10"/>
<path d="M575.801 115.6V130V115.6Z" fill="#1F2432"/>
<path d="M575.801 115.6V130" stroke="#00DCE6" stroke-miterlimit="10"/>
<path d="M553.201 129.299H561.701H553.201Z" fill="#1F2432"/>
<path d="M553.201 129.299H561.701" stroke="#00DCE6" stroke-miterlimit="10"/>
<path d="M590.001 129.299H598.601H590.001Z" fill="#1F2432"/>
<path d="M590.001 129.299H598.601" stroke="#00DCE6" stroke-miterlimit="10"/>
<path d="M553.101 111.299H550.301V102.799H559.601" fill="#1F2432"/>
<path d="M553.101 111.299H550.301V102.799H559.601" stroke="#00DCE6" stroke-miterlimit="10"/>
<path d="M592.001 102.799H601.301V111.299H598.601" fill="#1F2432"/>
<path d="M592.001 102.799H601.301V111.299H598.601" stroke="#00DCE6" stroke-miterlimit="10"/>
<path d="M561.9 129.299H568.7H561.9Z" fill="#1F2432"/>
<path d="M561.9 129.299H568.7" stroke="#00DCE6" stroke-miterlimit="10"/>
<path d="M583.501 129.299H590.001H583.501Z" fill="#1F2432"/>
<path d="M583.501 129.299H590.001" stroke="#00DCE6" stroke-miterlimit="10"/>
<path d="M585.201 132.5H566.501V134.2H585.201V132.5Z" fill="#1F2432" stroke="#00DCE6" stroke-miterlimit="10"/>
<path d="M583.501 130.898H568.201V132.598H583.501V130.898Z" fill="#1F2432" stroke="#00DCE6" stroke-miterlimit="10"/>
<path d="M574.001 123.299V126.999V123.299Z" fill="#1F2432"/>
<path d="M574.001 123.299V126.999" stroke="#00DCE6" stroke-miterlimit="10"/>
<path d="M578.101 123.299V126.999V123.299Z" fill="#1F2432"/>
<path d="M578.101 123.299V126.999" stroke="#00DCE6" stroke-miterlimit="10"/>
<path d="M592.001 97.6992H559.701V111.299H592.001V97.6992Z" fill="#1F2432" stroke="#00DCE6" stroke-miterlimit="10"/>
<path d="M585.201 111.299H567.301V115.599H585.201V111.299Z" fill="#1F2432" stroke="#00DCE6" stroke-miterlimit="10"/>
<path d="M568.201 102.799C568.201 105.199 566.301 107.099 563.901 107.099C561.501 107.099 559.601 105.199 559.601 102.799" fill="#1F2432"/>
<path d="M568.201 102.799C568.201 105.199 566.301 107.099 563.901 107.099C561.501 107.099 559.601 105.199 559.601 102.799" stroke="#00DCE6" stroke-miterlimit="10"/>
<path d="M575.801 102.799C575.801 105.199 574.101 107.099 572.001 107.099C569.901 107.099 568.201 105.199 568.201 102.799" fill="#1F2432"/>
<path d="M575.801 102.799C575.801 105.199 574.101 107.099 572.001 107.099C569.901 107.099 568.201 105.199 568.201 102.799" stroke="#00DCE6" stroke-miterlimit="10"/>
<path d="M583.5 102.799C583.5 105.199 581.8 107.099 579.7 107.099C577.6 107.099 575.9 105.199 575.9 102.799" fill="#1F2432"/>
<path d="M583.5 102.799C583.5 105.199 581.8 107.099 579.7 107.099C577.6 107.099 575.9 105.199 575.9 102.799" stroke="#00DCE6" stroke-miterlimit="10"/>
<path d="M592 102.799C592 105.199 590.1 107.099 587.7 107.099C585.3 107.099 583.4 105.199 583.4 102.799" fill="#1F2432"/>
<path d="M592 102.799C592 105.199 590.1 107.099 587.7 107.099C585.3 107.099 583.4 105.199 583.4 102.799" stroke="#00DCE6" stroke-miterlimit="10"/>
<path d="M451.741 175.531H449.57V179.27H448.345V170.027H451.404C452.445 170.027 453.245 170.264 453.804 170.738C454.367 171.212 454.648 171.902 454.648 172.808C454.648 173.383 454.491 173.885 454.178 174.312C453.869 174.739 453.438 175.059 452.883 175.271L455.054 179.193V179.27H453.747L451.741 175.531ZM449.57 174.534H451.442C452.048 174.534 452.528 174.378 452.883 174.064C453.243 173.751 453.423 173.332 453.423 172.808C453.423 172.236 453.251 171.798 452.909 171.494C452.57 171.189 452.079 171.035 451.436 171.03H449.57V174.534ZM459.028 179.396C458.097 179.396 457.339 179.092 456.755 178.482C456.171 177.869 455.879 177.05 455.879 176.026V175.81C455.879 175.129 456.008 174.521 456.267 173.988C456.529 173.451 456.893 173.032 457.358 172.731C457.828 172.427 458.336 172.274 458.882 172.274C459.775 172.274 460.469 172.569 460.964 173.157C461.459 173.745 461.707 174.587 461.707 175.683V176.172H457.054C457.071 176.849 457.267 177.397 457.644 177.816C458.025 178.231 458.507 178.438 459.091 178.438C459.506 178.438 459.857 178.353 460.145 178.184C460.433 178.015 460.685 177.791 460.9 177.511L461.618 178.07C461.042 178.954 460.179 179.396 459.028 179.396ZM458.882 173.239C458.408 173.239 458.01 173.413 457.688 173.76C457.367 174.103 457.168 174.585 457.092 175.207H460.532V175.118C460.498 174.521 460.338 174.06 460.05 173.734C459.762 173.404 459.373 173.239 458.882 173.239ZM464.665 170.738V172.401H465.947V173.309H464.665V177.568C464.665 177.843 464.722 178.051 464.836 178.19C464.95 178.326 465.145 178.394 465.42 178.394C465.555 178.394 465.742 178.368 465.979 178.317V179.27C465.67 179.354 465.369 179.396 465.077 179.396C464.552 179.396 464.157 179.238 463.89 178.92C463.624 178.603 463.49 178.152 463.49 177.568V173.309H462.24V172.401H463.49V170.738H464.665ZM471.564 179.27C471.497 179.134 471.442 178.893 471.399 178.546C470.854 179.113 470.202 179.396 469.444 179.396C468.767 179.396 468.211 179.206 467.775 178.825C467.343 178.44 467.127 177.953 467.127 177.365C467.127 176.65 467.398 176.096 467.94 175.702C468.486 175.304 469.252 175.105 470.238 175.105H471.38V174.566C471.38 174.155 471.258 173.83 471.012 173.588C470.767 173.343 470.405 173.22 469.927 173.22C469.508 173.22 469.157 173.326 468.873 173.538C468.59 173.749 468.448 174.005 468.448 174.306H467.267C467.267 173.963 467.388 173.633 467.629 173.315C467.874 172.994 468.204 172.74 468.619 172.554C469.038 172.368 469.497 172.274 469.997 172.274C470.788 172.274 471.408 172.473 471.856 172.871C472.305 173.265 472.538 173.808 472.555 174.502V177.664C472.555 178.294 472.635 178.796 472.796 179.168V179.27H471.564ZM469.616 178.375C469.984 178.375 470.333 178.279 470.663 178.089C470.993 177.898 471.232 177.651 471.38 177.346V175.937H470.46C469.021 175.937 468.302 176.358 468.302 177.2C468.302 177.568 468.424 177.856 468.67 178.063C468.915 178.271 469.231 178.375 469.616 178.375ZM475.671 179.27H474.497V172.401H475.671V179.27ZM474.402 170.58C474.402 170.389 474.459 170.228 474.573 170.097C474.692 169.966 474.865 169.9 475.094 169.9C475.322 169.9 475.496 169.966 475.614 170.097C475.733 170.228 475.792 170.389 475.792 170.58C475.792 170.77 475.733 170.929 475.614 171.056C475.496 171.183 475.322 171.246 475.094 171.246C474.865 171.246 474.692 171.183 474.573 171.056C474.459 170.929 474.402 170.77 474.402 170.58ZM478.833 179.27H477.658V169.52H478.833V179.27ZM483.568 179.396C482.637 179.396 481.879 179.092 481.295 178.482C480.711 177.869 480.419 177.05 480.419 176.026V175.81C480.419 175.129 480.549 174.521 480.807 173.988C481.069 173.451 481.433 173.032 481.898 172.731C482.368 172.427 482.876 172.274 483.422 172.274C484.315 172.274 485.009 172.569 485.504 173.157C485.999 173.745 486.247 174.587 486.247 175.683V176.172H481.594C481.611 176.849 481.807 177.397 482.184 177.816C482.565 178.231 483.047 178.438 483.631 178.438C484.046 178.438 484.397 178.353 484.685 178.184C484.973 178.015 485.225 177.791 485.44 177.511L486.158 178.07C485.582 178.954 484.719 179.396 483.568 179.396ZM483.422 173.239C482.948 173.239 482.55 173.413 482.229 173.76C481.907 174.103 481.708 174.585 481.632 175.207H485.072V175.118C485.038 174.521 484.878 174.06 484.59 173.734C484.302 173.404 483.913 173.239 483.422 173.239ZM490.931 173.455C490.753 173.425 490.561 173.411 490.354 173.411C489.583 173.411 489.061 173.739 488.786 174.395V179.27H487.611V172.401H488.754L488.773 173.195C489.158 172.581 489.704 172.274 490.411 172.274C490.639 172.274 490.813 172.304 490.931 172.363V173.455Z" fill="#1F2432"/>
<path d="M469.8 157.799C492.9 157.799 511.6 139.099 511.6 115.999C511.6 92.8992 492.9 74.1992 469.8 74.1992C446.7 74.1992 428 92.8992 428 115.999C428 139.099 446.7 157.799 469.8 157.799Z" fill="#1F2432"/>
<path d="M465.4 116.199V119.099H464.6L462.4 121.299L458.7 122.999C456.7 123.499 455.1 124.999 455.1 126.399V135.099" fill="#1F2432"/>
<path d="M465.4 116.199V119.099H464.6L462.4 121.299L458.7 122.999C456.7 123.499 455.1 124.999 455.1 126.399V135.099" stroke="#00DCE6" stroke-miterlimit="10"/>
<path d="M465.399 119.199L469.799 122.799" stroke="#00DCE6" stroke-miterlimit="10"/>
<path d="M469.8 122.798L466.2 125.698L462.5 121.398" fill="#1F2432"/>
<path d="M469.8 122.798L466.2 125.698L462.5 121.398" stroke="#00DCE6" stroke-miterlimit="10"/>
<path d="M474.199 116.199V119.099H474.999L477.199 121.299L480.899 122.999C482.899 123.499 484.499 124.999 484.499 126.399V135.099" fill="#1F2432"/>
<path d="M474.199 116.199V119.099H474.999L477.199 121.299L480.899 122.999C482.899 123.499 484.499 124.999 484.499 126.399V135.099" stroke="#00DCE6" stroke-miterlimit="10"/>
<path d="M474.2 119.199L469.8 122.799" stroke="#00DCE6" stroke-miterlimit="10"/>
<path d="M469.8 122.798L473.4 125.698L477.1 121.398" fill="#1F2432"/>
<path d="M469.8 122.798L473.4 125.698L477.1 121.398" stroke="#00DCE6" stroke-miterlimit="10"/>
<path d="M472 124.299L471.2 127.899H468.4L467.6 124.299" fill="#1F2432"/>
<path d="M472 124.299L471.2 127.899H468.4L467.6 124.299" stroke="#00DCE6" stroke-miterlimit="10"/>
<path d="M472 134.498L471.2 127.898H468.4L467.6 134.498" fill="#1F2432"/>
<path d="M472 134.498L471.2 127.898H468.4L467.6 134.498" stroke="#00DCE6" stroke-miterlimit="10"/>
<path d="M478.3 106.999V102.099C478.3 97.5988 477.1 96.7988 472.3 96.7988H460.3V100.099C460.3 101.599 461.5 103.399 464.3 103.399C467.1 103.399 472.4 103.399 473.6 103.399C475.6 103.399 476.3 105.199 476.3 106.699C476.3 106.899 476.3 106.799 476.3 107.399H478.3V109.999C478.3 110.499 478.1 110.899 477.7 111.099L476.3 111.999C476.3 111.999 476.3 112.799 476.3 112.999C476.3 115.599 472.9 116.699 472.3 116.999C471.7 117.299 470.7 117.699 469.6 117.699C468.5 117.699 467.5 117.299 466.9 116.999C466.3 116.699 462.9 115.599 462.9 112.999C462.9 112.699 462.9 111.999 462.9 111.999L461.5 111.099C461.1 110.799 460.9 110.399 460.9 109.999V107.399H462.9C462.9 106.899 462.9 106.399 462.9 106.099C462.9 104.999 463.4 104.099 464.2 103.399" fill="#1F2432"/>
<path d="M478.3 106.999V102.099C478.3 97.5988 477.1 96.7988 472.3 96.7988H460.3V100.099C460.3 101.599 461.5 103.399 464.3 103.399C467.1 103.399 472.4 103.399 473.6 103.399C475.6 103.399 476.3 105.199 476.3 106.699C476.3 106.899 476.3 106.799 476.3 107.399H478.3V109.999C478.3 110.499 478.1 110.899 477.7 111.099L476.3 111.999C476.3 111.999 476.3 112.799 476.3 112.999C476.3 115.599 472.9 116.699 472.3 116.999C471.7 117.299 470.7 117.699 469.6 117.699C468.5 117.699 467.5 117.299 466.9 116.999C466.3 116.699 462.9 115.599 462.9 112.999C462.9 112.699 462.9 111.999 462.9 111.999L461.5 111.099C461.1 110.799 460.9 110.399 460.9 109.999V107.399H462.9C462.9 106.899 462.9 106.399 462.9 106.099C462.9 104.999 463.4 104.099 464.2 103.399" stroke="#00DCE6" stroke-miterlimit="10"/>
<path d="M461 101.998C460.7 102.298 460.3 102.798 460.3 103.998C460.3 104.498 460.3 105.098 460.3 105.298C460.3 106.398 461.1 107.098 461.6 107.298" fill="#1F2432"/>
<path d="M461 101.998C460.7 102.298 460.3 102.798 460.3 103.998C460.3 104.498 460.3 105.098 460.3 105.298C460.3 106.398 461.1 107.098 461.6 107.298" stroke="#00DCE6" stroke-miterlimit="10"/>
<path d="M662.05 176.337C661.936 177.314 661.574 178.07 660.964 178.603C660.359 179.132 659.553 179.396 658.546 179.396C657.454 179.396 656.578 179.005 655.918 178.222C655.262 177.439 654.934 176.392 654.934 175.08V174.191C654.934 173.332 655.086 172.577 655.391 171.925C655.7 171.274 656.136 170.774 656.699 170.427C657.262 170.076 657.913 169.9 658.654 169.9C659.636 169.9 660.423 170.175 661.015 170.726C661.608 171.271 661.952 172.029 662.05 172.998H660.825C660.719 172.262 660.488 171.729 660.133 171.398C659.782 171.068 659.289 170.903 658.654 170.903C657.875 170.903 657.264 171.191 656.819 171.767C656.379 172.342 656.159 173.161 656.159 174.223V175.118C656.159 176.121 656.369 176.919 656.788 177.511C657.207 178.104 657.793 178.4 658.546 178.4C659.223 178.4 659.741 178.248 660.101 177.943C660.465 177.634 660.706 177.099 660.825 176.337H662.05ZM667.775 178.59C667.318 179.128 666.648 179.396 665.763 179.396C665.031 179.396 664.472 179.185 664.087 178.762C663.707 178.334 663.514 177.704 663.51 176.87V172.401H664.684V176.838C664.684 177.879 665.107 178.4 665.954 178.4C666.851 178.4 667.447 178.066 667.744 177.397V172.401H668.918V179.27H667.801L667.775 178.59ZM674.707 177.448C674.707 177.13 674.586 176.885 674.345 176.711C674.108 176.534 673.691 176.381 673.095 176.254C672.502 176.127 672.03 175.975 671.679 175.797C671.332 175.62 671.074 175.408 670.905 175.163C670.74 174.917 670.657 174.625 670.657 174.287C670.657 173.724 670.894 173.248 671.368 172.858C671.846 172.469 672.456 172.274 673.196 172.274C673.975 172.274 674.605 172.475 675.088 172.877C675.575 173.279 675.818 173.794 675.818 174.42H674.637C674.637 174.098 674.5 173.821 674.225 173.588C673.954 173.356 673.611 173.239 673.196 173.239C672.769 173.239 672.435 173.332 672.193 173.519C671.952 173.705 671.832 173.948 671.832 174.249C671.832 174.532 671.944 174.746 672.168 174.89C672.392 175.034 672.796 175.171 673.38 175.302C673.969 175.433 674.445 175.59 674.809 175.772C675.173 175.954 675.441 176.174 675.615 176.432C675.792 176.686 675.881 176.997 675.881 177.365C675.881 177.979 675.636 178.472 675.145 178.844C674.654 179.212 674.017 179.396 673.234 179.396C672.684 179.396 672.198 179.299 671.774 179.104C671.351 178.91 671.019 178.639 670.778 178.292C670.541 177.941 670.422 177.562 670.422 177.156H671.597C671.618 177.549 671.774 177.862 672.066 178.095C672.363 178.324 672.752 178.438 673.234 178.438C673.679 178.438 674.034 178.349 674.301 178.171C674.572 177.989 674.707 177.748 674.707 177.448ZM679.004 170.738V172.401H680.287V173.309H679.004V177.568C679.004 177.843 679.062 178.051 679.176 178.19C679.29 178.326 679.485 178.394 679.76 178.394C679.895 178.394 680.081 178.368 680.318 178.317V179.27C680.009 179.354 679.709 179.396 679.417 179.396C678.892 179.396 678.497 179.238 678.23 178.92C677.963 178.603 677.83 178.152 677.83 177.568V173.309H676.58V172.401H677.83V170.738H679.004ZM681.226 175.772C681.226 175.099 681.357 174.494 681.62 173.957C681.886 173.419 682.254 173.004 682.724 172.712C683.198 172.42 683.738 172.274 684.343 172.274C685.278 172.274 686.033 172.598 686.609 173.246C687.189 173.893 687.479 174.754 687.479 175.829V175.912C687.479 176.58 687.349 177.181 687.091 177.714C686.837 178.243 686.471 178.656 685.993 178.952C685.519 179.248 684.973 179.396 684.355 179.396C683.424 179.396 682.669 179.073 682.089 178.425C681.514 177.778 681.226 176.921 681.226 175.854V175.772ZM682.407 175.912C682.407 176.673 682.582 177.285 682.934 177.746C683.289 178.207 683.763 178.438 684.355 178.438C684.952 178.438 685.426 178.205 685.777 177.74C686.129 177.27 686.304 176.614 686.304 175.772C686.304 175.019 686.124 174.409 685.765 173.944C685.409 173.474 684.935 173.239 684.343 173.239C683.763 173.239 683.295 173.47 682.94 173.931C682.584 174.392 682.407 175.053 682.407 175.912ZM690.056 172.401L690.087 173.163C690.591 172.571 691.27 172.274 692.125 172.274C693.086 172.274 693.739 172.643 694.086 173.379C694.315 173.049 694.611 172.782 694.975 172.579C695.343 172.376 695.777 172.274 696.276 172.274C697.783 172.274 698.549 173.072 698.574 174.667V179.27H697.4V174.737C697.4 174.246 697.288 173.88 697.063 173.639C696.839 173.394 696.463 173.271 695.934 173.271C695.498 173.271 695.136 173.402 694.848 173.665C694.56 173.923 694.393 174.272 694.347 174.712V179.27H693.166V174.769C693.166 173.77 692.677 173.271 691.7 173.271C690.93 173.271 690.403 173.599 690.119 174.255V179.27H688.945V172.401H690.056ZM703.202 179.396C702.271 179.396 701.513 179.092 700.929 178.482C700.345 177.869 700.053 177.05 700.053 176.026V175.81C700.053 175.129 700.182 174.521 700.44 173.988C700.703 173.451 701.067 173.032 701.532 172.731C702.002 172.427 702.51 172.274 703.056 172.274C703.949 172.274 704.643 172.569 705.138 173.157C705.633 173.745 705.88 174.587 705.88 175.683V176.172H701.228C701.244 176.849 701.441 177.397 701.818 177.816C702.199 178.231 702.681 178.438 703.265 178.438C703.68 178.438 704.031 178.353 704.319 178.184C704.607 178.015 704.858 177.791 705.074 177.511L705.792 178.07C705.216 178.954 704.353 179.396 703.202 179.396ZM703.056 173.239C702.582 173.239 702.184 173.413 701.862 173.76C701.541 174.103 701.342 174.585 701.266 175.207H704.706V175.118C704.672 174.521 704.511 174.06 704.224 173.734C703.936 173.404 703.547 173.239 703.056 173.239ZM710.565 173.455C710.387 173.425 710.195 173.411 709.987 173.411C709.217 173.411 708.694 173.739 708.419 174.395V179.27H707.245V172.401H708.388L708.407 173.195C708.792 172.581 709.338 172.274 710.044 172.274C710.273 172.274 710.446 172.304 710.565 172.363V173.455Z" fill="#1F2432"/>
<path d="M682.7 157.799C705.8 157.799 724.5 139.099 724.5 115.999C724.5 92.8992 705.8 74.1992 682.7 74.1992C659.6 74.1992 640.9 92.8992 640.9 115.999C640.9 139.099 659.6 157.799 682.7 157.799Z" fill="#1F2432"/>
<path d="M679.101 136.398V112.698L684.501 118.098C685.401 118.998 687.101 119.398 687.901 118.598L688.901 117.598C688.901 117.598 685.601 112.498 684.401 110.898C683.201 109.298 681.001 105.498 677.201 105.498H671.001C668.401 105.498 665.301 108.198 665.301 111.598V118.098C665.301 119.898 667.501 121.898 669.301 121.898" fill="#1F2432"/>
<path d="M679.101 136.398V112.698L684.501 118.098C685.401 118.998 687.101 119.398 687.901 118.598L688.901 117.598C688.901 117.598 685.601 112.498 684.401 110.898C683.201 109.298 681.001 105.498 677.201 105.498H671.001C668.401 105.498 665.301 108.198 665.301 111.598V118.098C665.301 119.898 667.501 121.898 669.301 121.898" stroke="#00DCE6" stroke-miterlimit="10" stroke-linejoin="round"/>
<path d="M669.101 111.898V136.398" stroke="#00DCE6" stroke-miterlimit="10" stroke-linejoin="round"/>
<path d="M674.501 121.898V136.398" stroke="#00DCE6" stroke-miterlimit="10" stroke-linejoin="round"/>
<path d="M674.5 102.799C676.6 102.799 678.1 101.299 678.1 99.1988V97.3988C678.1 95.1988 676.6 93.7988 674.5 93.7988C672.4 93.7988 670.9 95.2988 670.9 97.3988V99.1988C670.9 101.199 672.4 102.799 674.5 102.799Z" fill="#1F2432" stroke="#00DCE6" stroke-miterlimit="10" stroke-linejoin="round"/>
<path d="M680.9 135.398H700V121.898H680.9" fill="#1F2432"/>
<path d="M680.9 135.398H700V121.898H680.9" stroke="#00DCE6" stroke-miterlimit="10" stroke-linejoin="round"/>
<path d="M692.701 121.799H686.301V125.399H692.701V121.799Z" fill="#1F2432" stroke="#00DCE6" stroke-miterlimit="10" stroke-linejoin="round"/>
<path d="M697.2 131.799H695.4" stroke="#00DCE6" stroke-miterlimit="10" stroke-linejoin="round"/>
<path d="M694.501 131.799H692.701" stroke="#00DCE6" stroke-miterlimit="10" stroke-linejoin="round"/>
<path d="M44.0996 74.4V30" stroke="#00DCE6" stroke-miterlimit="16" stroke-dasharray="1 1"/>
<path d="M44.0996 71C45.9996 71 47.5996 72.6 47.5996 74.5C47.5996 76.4 45.9996 78 44.0996 78C42.1996 78 40.5996 76.4 40.5996 74.5C40.5996 72.6 42.1996 71 44.0996 71Z" fill="#00DCE6"/>
<path d="M44.1 52.7004C58.6 52.7004 70.2 41.0004 70.2 26.6004C70.2 12.2004 58.6 0.400391 44.1 0.400391C29.6 0.400391 18 12.1004 18 26.5004C18 40.9004 29.7 52.7004 44.1 52.7004Z" fill="#00DCE6" fill-opacity="0.2"/>
<path d="M44.1004 45.7004C54.6004 45.7004 63.3004 37.2004 63.3004 26.5004C63.3004 15.8004 54.6004 7.40039 44.1004 7.40039C33.6004 7.40039 24.9004 15.9004 24.9004 26.6004C24.9004 37.3004 33.6004 45.7004 44.1004 45.7004Z" fill="#00DCE6"/>
<path d="M33.5996 32.1004V20.9004L43.6996 14.4004L53.7996 20.9004V32.1004" stroke="white"/>
<path d="M33.5996 32.0996L43.6996 38.6996L53.7996 32.0996L43.6996 25.5996L33.5996 32.0996Z" stroke="white" stroke-linejoin="round"/>
<path d="M53.9002 20.8008L43.8002 27.4008L33.7002 20.9008" stroke="white"/>
<path d="M43.7002 14.3008V25.5008" stroke="white"/>
<path d="M43.7002 27.5V38.7" stroke="white"/>
<path d="M151.1 74.4V30" stroke="#00DCE6" stroke-miterlimit="16" stroke-dasharray="1 1"/>
<path d="M151.1 71C153 71 154.6 72.6 154.6 74.5C154.6 76.4 153 78 151.1 78C149.2 78 147.6 76.4 147.6 74.5C147.6 72.6 149.2 71 151.1 71Z" fill="#00DCE6"/>
<path d="M151.1 52.7004C165.6 52.7004 177.2 41.0004 177.2 26.6004C177.2 12.2004 165.6 0.400391 151.1 0.400391C136.6 0.400391 125 12.1004 125 26.5004C125 40.9004 136.8 52.7004 151.1 52.7004Z" fill="#00DCE6" fill-opacity="0.2"/>
<path d="M151.1 45.7008C161.6 45.7008 170.3 37.2008 170.3 26.5008C170.3 15.8008 161.7 7.30078 151.1 7.30078C140.5 7.30078 131.9 15.8008 131.9 26.5008C131.9 37.2008 140.6 45.7008 151.1 45.7008Z" fill="#00DCE6"/>
<path d="M140.7 32.1004V20.9004L150.8 14.4004L160.9 20.9004V32.1004" stroke="white"/>
<path d="M140.7 32.0996L150.8 38.6996L160.9 32.0996L150.8 25.5996L140.7 32.0996Z" stroke="white" stroke-linejoin="round"/>
<path d="M160.9 20.8008L150.8 27.4008L140.7 20.9008" stroke="white"/>
<path d="M150.8 14.3008V25.5008" stroke="white"/>
<path d="M150.8 27.5V38.7" stroke="white"/>
<path d="M257.2 74.4V30" stroke="#00DCE6" stroke-miterlimit="16" stroke-dasharray="1 1"/>
<path d="M257.2 71C259.1 71 260.7 72.6 260.7 74.5C260.7 76.4 259.1 78 257.2 78C255.3 78 253.7 76.4 253.7 74.5C253.7 72.6 255.3 71 257.2 71Z" fill="#00DCE6"/>
<path d="M257.2 52.7004C271.7 52.7004 283.3 41.0004 283.3 26.6004C283.3 12.2004 271.6 0.400391 257.2 0.400391C242.8 0.400391 231 12.1004 231 26.5004C231 40.9004 242.8 52.7004 257.2 52.7004Z" fill="#00DCE6" fill-opacity="0.2"/>
<path d="M257.2 45.7008C267.7 45.7008 276.4 37.2008 276.4 26.5008C276.4 15.8008 267.8 7.30078 257.2 7.30078C246.6 7.30078 238 15.9008 238 26.5008C238 37.1008 246.6 45.7008 257.2 45.7008Z" fill="#00DCE6"/>
<path d="M246.7 32.1004V20.9004L256.8 14.4004L266.9 20.9004V32.1004" stroke="white"/>
<path d="M246.7 32.0996L256.8 38.6996L266.9 32.0996L256.8 25.5996L246.7 32.0996Z" stroke="white" stroke-linejoin="round"/>
<path d="M266.9 20.8008L256.8 27.4008L246.7 20.9008" stroke="white"/>
<path d="M256.8 14.3008V25.5008" stroke="white"/>
<path d="M256.8 27.5V38.7" stroke="white"/>
<path d="M365.8 74.4V30" stroke="#00DCE6" stroke-miterlimit="16" stroke-dasharray="1 1"/>
<path d="M365.8 71C367.7 71 369.3 72.6 369.3 74.5C369.3 76.4 367.7 78 365.8 78C363.9 78 362.3 76.4 362.3 74.5C362.3 72.6 363.9 71 365.8 71Z" fill="#00DCE6"/>
<path d="M365.8 52.7004C380.3 52.7004 391.9 41.0004 391.9 26.6004C391.9 12.2004 380.2 0.400391 365.8 0.400391C351.4 0.400391 339.7 12.1004 339.7 26.5004C339.7 40.9004 351.4 52.7004 365.8 52.7004Z" fill="#00DCE6" fill-opacity="0.2"/>
<path d="M365.801 45.7008C376.301 45.7008 385.001 37.2008 385.001 26.5008C385.001 15.8008 376.401 7.30078 365.801 7.30078C355.201 7.30078 346.601 15.8008 346.601 26.5008C346.601 37.2008 355.201 45.7008 365.801 45.7008Z" fill="#00DCE6"/>
<path d="M355.3 32.1004V20.9004L365.4 14.4004L375.5 20.9004V32.1004" stroke="white"/>
<path d="M355.3 32.0996L365.4 38.6996L375.5 32.0996L365.4 25.5996L355.3 32.0996Z" stroke="white" stroke-linejoin="round"/>
<path d="M375.5 20.8008L365.4 27.4008L355.3 20.9008" stroke="white"/>
<path d="M365.4 14.3008V25.5008" stroke="white"/>
<path d="M365.4 27.5V38.7" stroke="white"/>
<path d="M471.2 74.4V30" stroke="#00DCE6" stroke-miterlimit="16" stroke-dasharray="1 1"/>
<path d="M471.2 71C473.1 71 474.7 72.6 474.7 74.5C474.7 76.4 473.1 78 471.2 78C469.3 78 467.7 76.4 467.7 74.5C467.7 72.6 469.3 71 471.2 71Z" fill="#00DCE6"/>
<path d="M471.2 52.7004C485.7 52.7004 497.3 41.0004 497.3 26.6004C497.3 12.2004 485.6 0.400391 471.2 0.400391C456.8 0.400391 445 12.1004 445 26.5004C445 40.9004 456.8 52.7004 471.2 52.7004Z" fill="#00DCE6" fill-opacity="0.2"/>
<path d="M471.2 45.7008C481.7 45.7008 490.4 37.2008 490.4 26.5008C490.4 15.8008 481.8 7.30078 471.2 7.30078C460.6 7.30078 452 15.9008 452 26.5008C452 37.1008 460.6 45.7008 471.2 45.7008Z" fill="#00DCE6"/>
<path d="M460.7 32.1004V20.9004L470.8 14.4004L480.9 20.9004V32.1004" stroke="white"/>
<path d="M460.7 32.0996L470.8 38.6996L480.9 32.0996L470.8 25.5996L460.7 32.0996Z" stroke="white" stroke-linejoin="round"/>
<path d="M480.9 20.8008L470.8 27.4008L460.7 20.9008" stroke="white"/>
<path d="M470.8 14.3008V25.5008" stroke="white"/>
<path d="M470.8 27.5V38.7" stroke="white"/>
<path d="M575.699 74.4V30" stroke="#00DCE6" stroke-miterlimit="16" stroke-dasharray="1 1"/>
<path d="M575.699 71C577.599 71 579.199 72.6 579.199 74.5C579.199 76.4 577.599 78 575.699 78C573.799 78 572.199 76.4 572.199 74.5C572.199 72.6 573.699 71 575.699 71Z" fill="#00DCE6"/>
<path d="M575.7 52.7004C590.2 52.7004 601.8 41.0004 601.8 26.6004C601.8 12.2004 590.1 0.400391 575.7 0.400391C561.2 0.400391 549.6 12.1004 549.6 26.5004C549.6 40.9004 561.3 52.7004 575.7 52.7004Z" fill="#00DCE6" fill-opacity="0.2"/>
<path d="M575.7 45.7008C586.2 45.7008 594.9 37.2008 594.9 26.5008C594.9 15.8008 586.3 7.30078 575.7 7.30078C565.2 7.30078 556.5 15.8008 556.5 26.5008C556.5 37.2008 565.1 45.7008 575.7 45.7008Z" fill="#00DCE6"/>
<path d="M565.199 32.1004V20.9004L575.299 14.4004L585.399 20.9004V32.1004" stroke="white"/>
<path d="M565.199 32.0996L575.299 38.6996L585.399 32.0996L575.299 25.5996L565.199 32.0996Z" stroke="white" stroke-linejoin="round"/>
<path d="M585.399 20.8008L575.299 27.4008L565.199 20.9008" stroke="white"/>
<path d="M575.3 14.3008V25.5008" stroke="white"/>
<path d="M575.3 27.5V38.7" stroke="white"/>
<path d="M680.899 74.4V30" stroke="#00DCE6" stroke-miterlimit="16" stroke-dasharray="1 1"/>
<path d="M680.899 71C682.799 71 684.399 72.6 684.399 74.5C684.399 76.4 682.799 78 680.899 78C678.999 78 677.399 76.4 677.399 74.5C677.399 72.6 678.999 71 680.899 71Z" fill="#00DCE6"/>
<path d="M680.9 52.7004C695.4 52.7004 707 41.0004 707 26.6004C707 12.2004 695.3 0.400391 680.9 0.400391C666.4 0.400391 654.8 12.1004 654.8 26.5004C654.8 40.9004 666.5 52.7004 680.9 52.7004Z" fill="#00DCE6" fill-opacity="0.2"/>
<path d="M680.9 45.7008C691.4 45.7008 700.1 37.2008 700.1 26.5008C700.1 15.8008 691.5 7.30078 680.9 7.30078C670.4 7.30078 661.7 15.8008 661.7 26.5008C661.7 37.2008 670.3 45.7008 680.9 45.7008Z" fill="#00DCE6"/>
<path d="M670.399 32.1004V20.9004L680.499 14.4004L690.599 20.9004V32.1004" stroke="white"/>
<path d="M670.399 32.0996L680.499 38.6996L690.599 32.0996L680.499 25.5996L670.399 32.0996Z" stroke="white" stroke-linejoin="round"/>
<path d="M690.599 20.8008L680.499 27.4008L670.399 20.9008" stroke="white"/>
<path d="M680.5 14.3008V25.5008" stroke="white"/>
<path d="M680.5 27.5V38.7" stroke="white"/>
<path d="M85.9002 121.8C90.4002 121.8 94.1002 118.1 94.1002 113.6C94.1002 109.1 90.4002 105.4 85.9002 105.4C81.4002 105.4 77.7002 109.1 77.7002 113.6C77.7002 118.1 81.4002 121.8 85.9002 121.8Z" fill="#00DCE6" fill-opacity="0.2"/>
<path d="M85.9006 116.801C87.7006 116.801 89.2006 115.301 89.2006 113.501C89.2006 111.701 87.7006 110.201 85.9006 110.201C84.1006 110.201 82.6006 111.701 82.6006 113.501C82.6006 115.301 84.1006 116.801 85.9006 116.801Z" fill="#00DCE6"/>
<path d="M100.4 121.8L108.6 113.6L100.4 105.4" stroke="#00DCE6"/>
<path d="M85.9004 113.5C102 113.5 92.6004 113.5 108.6 113.5" stroke="#00DCE6" stroke-miterlimit="16"/>
<path d="M192.4 121.8C196.9 121.8 200.6 118.1 200.6 113.6C200.6 109.1 196.9 105.4 192.4 105.4C187.9 105.4 184.2 109.1 184.2 113.6C184.1 118.1 187.8 121.8 192.4 121.8Z" fill="#00DCE6" fill-opacity="0.2"/>
<path d="M192.401 116.801C194.201 116.801 195.701 115.301 195.701 113.501C195.701 111.701 194.201 110.201 192.401 110.201C190.601 110.201 189.101 111.701 189.101 113.501C189.101 115.301 190.601 116.801 192.401 116.801Z" fill="#00DCE6"/>
<path d="M206.9 121.8L215.1 113.6L206.9 105.4" stroke="#00DCE6"/>
<path d="M192.4 113.5C208.5 113.5 199.1 113.5 215.1 113.5" stroke="#00DCE6" stroke-miterlimit="16"/>
<path d="M298.8 121.8C303.3 121.8 307 118.1 307 113.6C307 109.1 303.3 105.4 298.8 105.4C294.3 105.4 290.6 109.1 290.6 113.6C290.6 118.1 294.3 121.8 298.8 121.8Z" fill="#00DCE6" fill-opacity="0.2"/>
<path d="M298.8 116.801C300.6 116.801 302.1 115.301 302.1 113.501C302.1 111.701 300.6 110.201 298.8 110.201C297 110.201 295.5 111.701 295.5 113.501C295.5 115.301 297 116.801 298.8 116.801Z" fill="#00DCE6"/>
<path d="M313.3 121.8L321.5 113.6L313.3 105.4" stroke="#00DCE6"/>
<path d="M298.8 113.5C314.9 113.5 305.5 113.5 321.5 113.5" stroke="#00DCE6" stroke-miterlimit="16"/>
<path d="M405.3 121.8C409.8 121.8 413.5 118.1 413.5 113.6C413.5 109.1 409.8 105.4 405.3 105.4C400.8 105.4 397.1 109.1 397.1 113.6C397 118.1 400.7 121.8 405.3 121.8Z" fill="#00DCE6" fill-opacity="0.2"/>
<path d="M405.3 116.801C407.1 116.801 408.6 115.301 408.6 113.501C408.6 111.701 407.1 110.201 405.3 110.201C403.5 110.201 402 111.701 402 113.501C402 115.301 403.5 116.801 405.3 116.801Z" fill="#00DCE6"/>
<path d="M419.699 121.8L427.899 113.6L419.699 105.4" stroke="#00DCE6"/>
<path d="M405.3 113.5C421.4 113.5 412 113.5 428 113.5" stroke="#00DCE6" stroke-miterlimit="16"/>
<path d="M511.7 121.8C516.2 121.8 519.9 118.1 519.9 113.6C519.9 109.1 516.2 105.4 511.7 105.4C507.2 105.4 503.5 109.1 503.5 113.6C503.5 118.1 507.2 121.8 511.7 121.8Z" fill="#00DCE6" fill-opacity="0.2"/>
<path d="M511.7 116.801C513.5 116.801 515 115.301 515 113.501C515 111.701 513.5 110.201 511.7 110.201C509.9 110.201 508.4 111.701 508.4 113.501C508.4 115.301 509.9 116.801 511.7 116.801Z" fill="#00DCE6"/>
<path d="M526.2 121.8L534.4 113.6L526.2 105.4" stroke="#00DCE6"/>
<path d="M511.7 113.5C527.8 113.5 518.4 113.5 534.4 113.5" stroke="#00DCE6" stroke-miterlimit="16"/>
<path d="M618.2 121.8C622.7 121.8 626.4 118.1 626.4 113.6C626.4 109.1 622.7 105.4 618.2 105.4C613.7 105.4 610 109.1 610 113.6C609.9 118.1 613.6 121.8 618.2 121.8Z" fill="#00DCE6" fill-opacity="0.2"/>
<path d="M618.2 116.801C620 116.801 621.5 115.301 621.5 113.501C621.5 111.701 620 110.201 618.2 110.201C616.4 110.201 614.9 111.701 614.9 113.501C614.9 115.301 616.3 116.801 618.2 116.801Z" fill="#00DCE6"/>
<path d="M632.6 121.8L640.8 113.6L632.6 105.4" stroke="#00DCE6"/>
<path d="M618.2 113.5C634.3 113.5 624.9 113.5 640.9 113.5" stroke="#00DCE6" stroke-miterlimit="16"/>
</g>
<defs>
<clipPath id="clip0">
<rect width="724" height="196" fill="white"/>
</clipPath>
</defs>
</svg>
