<svg width="330" height="825" viewBox="0 0 330 825" fill="none" xmlns="http://www.w3.org/2000/svg">
<path d="M13.9917 769.711V41.2129C13.9917 21.0913 30.3556 4.84863 50.356 4.84863C70.4776 4.84863 86.7203 21.2126 86.7203 41.2129V769.711C86.7203 789.832 70.3563 806.075 50.356 806.075C30.3556 806.075 13.9917 789.832 13.9917 769.711Z" fill="#00DCE6" fill-opacity="0.1"/>
<path d="M50.4771 77.5772C70.5986 77.5772 86.8414 61.2133 86.8414 41.2129C86.8414 21.2126 70.4774 4.84863 50.4771 4.84863C30.3555 4.84863 14.1128 21.2126 14.1128 41.2129C14.1128 61.2133 30.3555 77.5772 50.4771 77.5772Z" fill="#00DCE6" fill-opacity="0.2"/>
<path d="M50.4772 67.8802C65.2653 67.8802 77.1443 55.88 77.1443 41.213C77.1443 26.5461 65.1441 14.5459 50.4772 14.5459C35.8103 14.5459 23.8101 26.5461 23.8101 41.213C23.8101 55.88 35.6891 67.8802 50.4772 67.8802Z" fill="#00DCE6"/>
<path d="M35.8103 48.9709V33.213L49.9924 24.2432L64.0532 33.3342V48.9709" stroke="white"/>
<path d="M35.8103 48.971L49.9924 58.1832L64.0532 48.971L49.9924 39.8799L35.8103 48.971Z" stroke="white" stroke-linejoin="round"/>
<path d="M64.0532 33.2129L49.9924 42.4252L35.8103 33.2129" stroke="white"/>
<path d="M49.9924 24.2432V40.001" stroke="white"/>
<path d="M49.9924 42.5459V58.3038" stroke="white"/>
<path d="M50.4771 199.033C70.5986 199.033 86.8414 182.669 86.8414 162.669C86.8414 142.669 70.4774 126.184 50.4771 126.184C30.3555 126.184 14.1128 142.548 14.1128 162.669C14.1128 182.791 30.3555 199.033 50.4771 199.033Z" fill="#00DCE6" fill-opacity="0.2"/>
<path d="M50.4772 189.336C65.2653 189.336 77.1443 177.336 77.1443 162.669C77.1443 148.002 65.1441 136.002 50.4772 136.002C35.8103 136.002 23.8101 148.002 23.8101 162.669C23.8101 177.336 35.6891 189.336 50.4772 189.336Z" fill="#00DCE6"/>
<path d="M35.8103 170.306V154.669L49.8712 145.578L63.932 154.669V170.306" stroke="white"/>
<path d="M35.8103 170.427L49.8712 179.639L63.932 170.427L49.8712 161.336L35.8103 170.427Z" stroke="white" stroke-linejoin="round"/>
<path d="M64.0532 154.669L49.9924 163.76L35.8103 154.669" stroke="white"/>
<path d="M49.9924 145.578V161.336" stroke="white"/>
<path d="M49.9924 163.882V179.64" stroke="white"/>
<path d="M50.4771 320.49C70.5986 320.49 86.8414 304.126 86.8414 284.126C86.8414 264.126 70.4774 247.762 50.4771 247.762C30.3555 247.762 14.1128 264.126 14.1128 284.126C14.1128 304.126 30.3555 320.49 50.4771 320.49Z" fill="#00DCE6" fill-opacity="0.2"/>
<path d="M50.4772 310.793C65.2653 310.793 77.1443 298.793 77.1443 284.126C77.1443 269.459 65.1441 257.459 50.4772 257.459C35.8103 257.459 23.8101 269.459 23.8101 284.126C23.8101 298.793 35.6891 310.793 50.4772 310.793Z" fill="#00DCE6"/>
<path d="M35.8103 291.763V276.126L49.8712 267.035L63.932 276.126V291.763" stroke="white"/>
<path d="M35.8103 291.763L49.8712 300.975L63.932 291.763L49.8712 282.672L35.8103 291.763Z" stroke="white" stroke-linejoin="round"/>
<path d="M64.0532 276.126L49.9924 285.217L35.8103 276.126" stroke="white"/>
<path d="M49.9924 267.035V282.793" stroke="white"/>
<path d="M49.9924 285.339V301.097" stroke="white"/>
<path d="M50.4773 441.826C70.5988 441.826 86.8415 425.462 86.8415 405.462C86.8415 385.34 70.4776 368.977 50.4773 368.977C30.3557 368.977 14.113 385.34 14.113 405.462C13.9918 425.584 30.3557 441.826 50.4773 441.826Z" fill="#00DCE6" fill-opacity="0.2"/>
<path d="M50.4771 432.129C65.2653 432.129 77.1443 420.129 77.1443 405.462C77.1443 390.674 65.1441 378.795 50.4771 378.795C35.8102 378.795 23.81 390.795 23.81 405.462C23.6888 420.25 35.689 432.129 50.4771 432.129Z" fill="#00DCE6"/>
<path d="M35.8103 413.22V397.583L49.8712 388.492L63.932 397.583V413.22" stroke="white"/>
<path d="M35.8103 413.22L49.8712 422.432L63.932 413.22L49.8712 404.129L35.8103 413.22Z" stroke="white" stroke-linejoin="round"/>
<path d="M64.0532 397.462L49.9924 406.553L35.8103 397.462" stroke="white"/>
<path d="M49.9924 388.492V404.25" stroke="white"/>
<path d="M49.9924 406.795V422.553" stroke="white"/>
<path d="M50.4773 563.282C70.5988 563.282 86.8415 546.919 86.8415 526.918C86.8415 506.797 70.4776 490.433 50.4773 490.433C30.3557 490.433 14.113 506.797 14.113 526.918C13.9918 547.04 30.3557 563.282 50.4773 563.282Z" fill="#00DCE6" fill-opacity="0.2"/>
<path d="M50.4771 553.585C65.2653 553.585 77.1443 541.585 77.1443 526.918C77.1443 512.13 65.1441 500.251 50.4771 500.251C35.8102 500.251 23.81 512.251 23.81 526.918C23.6888 541.585 35.689 553.585 50.4771 553.585Z" fill="#00DCE6"/>
<path d="M35.8103 534.555V518.918L49.8712 509.827L63.932 518.918V534.555" stroke="white"/>
<path d="M35.8103 534.676L49.8712 543.888L63.932 534.676L49.8712 525.585L35.8103 534.676Z" stroke="white" stroke-linejoin="round"/>
<path d="M64.0532 518.918L49.9924 528.009L35.8103 518.918" stroke="white"/>
<path d="M49.9924 509.827V525.585" stroke="white"/>
<path d="M49.9924 528.131V543.889" stroke="white"/>
<path d="M50.4771 684.739C70.5986 684.739 86.8414 668.375 86.8414 648.375C86.8414 628.375 70.4774 612.011 50.4771 612.011C30.3555 612.011 14.1128 628.375 14.1128 648.375C14.1128 668.375 30.3555 684.739 50.4771 684.739Z" fill="#00DCE6" fill-opacity="0.2"/>
<path d="M50.4771 675.042C65.2653 675.042 77.1443 663.042 77.1443 648.375C77.1443 633.587 65.1441 621.708 50.4771 621.708C35.8102 621.708 23.81 633.708 23.81 648.375C23.6888 663.042 35.689 675.042 50.4771 675.042Z" fill="#00DCE6"/>
<path d="M35.8103 656.012V640.375L49.8712 631.284L63.932 640.375V656.012" stroke="white"/>
<path d="M35.8103 656.012L49.8712 665.224L63.932 656.012L49.8712 646.921L35.8103 656.012Z" stroke="white" stroke-linejoin="round"/>
<path d="M64.0532 640.375L49.9924 649.466L35.8103 640.375" stroke="white"/>
<path d="M49.9924 631.284V647.042" stroke="white"/>
<path d="M49.9924 649.587V665.345" stroke="white"/>
<path d="M50.4771 806.075C70.5986 806.075 86.8414 789.711 86.8414 769.711C86.8414 749.711 70.4774 733.347 50.4771 733.347C30.3555 733.347 14.1128 749.711 14.1128 769.711C14.1128 789.711 30.3555 806.075 50.4771 806.075Z" fill="#00DCE6" fill-opacity="0.2"/>
<path d="M50.4772 796.378C65.2653 796.378 77.1443 784.378 77.1443 769.711C77.1443 755.044 65.1441 743.044 50.4772 743.044C35.8103 743.044 23.8101 755.044 23.8101 769.711C23.8101 784.378 35.6891 796.378 50.4772 796.378Z" fill="#00DCE6"/>
<path d="M35.8103 777.468V761.831L49.8712 752.74L63.932 761.831V777.468" stroke="white"/>
<path d="M35.8103 777.468L49.8712 786.68L63.932 777.468L49.8712 768.377L35.8103 777.468Z" stroke="white" stroke-linejoin="round"/>
<path d="M64.0532 761.711L49.9924 770.923L35.8103 761.711" stroke="white"/>
<path d="M49.9924 752.74V768.498" stroke="white"/>
<path d="M49.9924 771.044V786.802" stroke="white"/>
<path d="M118.479 41.2129H77.1445" stroke="#00DCE6" stroke-miterlimit="16" stroke-dasharray="1 1"/>
<path d="M113.509 41.2128C113.509 38.5461 115.691 36.3643 118.357 36.3643C121.024 36.3643 123.206 38.5461 123.206 41.2128C123.206 43.8795 121.024 46.0614 118.357 46.0614C115.691 46.0614 113.509 43.8795 113.509 41.2128Z" fill="#00DCE6"/>
<path d="M118.479 162.67H77.1445" stroke="#00DCE6" stroke-miterlimit="16" stroke-dasharray="1 1"/>
<path d="M113.509 162.67C113.509 160.003 115.691 157.821 118.357 157.821C121.024 157.821 123.206 160.003 123.206 162.67C123.206 165.337 121.024 167.518 118.357 167.518C115.691 167.518 113.509 165.337 113.509 162.67Z" fill="#00DCE6"/>
<path d="M118.479 284.005H77.1445" stroke="#00DCE6" stroke-miterlimit="16" stroke-dasharray="1 1"/>
<path d="M113.509 284.005C113.509 281.338 115.691 279.156 118.357 279.156C121.024 279.156 123.206 281.338 123.206 284.005C123.206 286.672 121.024 288.853 118.357 288.853C115.691 288.853 113.509 286.672 113.509 284.005Z" fill="#00DCE6"/>
<path d="M118.479 407.886H77.1445" stroke="#00DCE6" stroke-miterlimit="16" stroke-dasharray="1 1"/>
<path d="M113.509 407.886C113.509 405.219 115.691 403.037 118.357 403.037C121.024 403.037 123.206 405.219 123.206 407.886C123.206 410.552 121.024 412.734 118.357 412.734C115.691 412.734 113.509 410.552 113.509 407.886Z" fill="#00DCE6"/>
<path d="M118.479 529.343H77.1445" stroke="#00DCE6" stroke-miterlimit="16" stroke-dasharray="1 1"/>
<path d="M113.509 529.343C113.509 526.676 115.691 524.494 118.357 524.494C121.024 524.494 123.206 526.676 123.206 529.343C123.206 532.009 121.024 534.191 118.357 534.191C115.691 534.191 113.509 532.009 113.509 529.343Z" fill="#00DCE6"/>
<path d="M118.479 650.678H77.1445" stroke="#00DCE6" stroke-miterlimit="16" stroke-dasharray="1 1"/>
<path d="M113.509 650.679C113.509 648.012 115.691 645.83 118.357 645.83C121.024 645.83 123.206 648.012 123.206 650.679C123.206 653.345 121.024 655.527 118.357 655.527C115.691 655.527 113.509 653.345 113.509 650.679Z" fill="#00DCE6"/>
<path d="M118.479 772.135H77.1445" stroke="#00DCE6" stroke-miterlimit="16" stroke-dasharray="1 1"/>
<path d="M113.509 772.135C113.509 769.468 115.691 767.286 118.357 767.286C121.024 767.286 123.206 769.468 123.206 772.135C123.206 774.801 121.024 776.983 118.357 776.983C115.691 776.983 113.509 774.801 113.509 772.135Z" fill="#00DCE6"/>
<path d="M253.291 43.8252C253.291 43.3877 253.136 43.0505 252.826 42.8135C252.52 42.5765 251.967 42.3372 251.165 42.0957C250.362 41.8542 249.724 41.5853 249.25 41.2891C248.344 40.7194 247.89 39.9766 247.89 39.0605C247.89 38.2585 248.216 37.5977 248.868 37.0781C249.524 36.5586 250.374 36.2988 251.417 36.2988C252.11 36.2988 252.728 36.4264 253.27 36.6816C253.812 36.9368 254.238 37.3014 254.548 37.7754C254.858 38.2448 255.013 38.7666 255.013 39.3408H253.291C253.291 38.8213 253.126 38.4157 252.798 38.124C252.475 37.8278 252.01 37.6797 251.404 37.6797C250.839 37.6797 250.399 37.8005 250.084 38.042C249.775 38.2835 249.62 38.6208 249.62 39.0537C249.62 39.4183 249.788 39.7236 250.125 39.9697C250.463 40.2113 251.019 40.4482 251.793 40.6807C252.568 40.9085 253.19 41.1706 253.66 41.4668C254.129 41.7585 254.473 42.0957 254.692 42.4785C254.911 42.8568 255.02 43.3011 255.02 43.8115C255.02 44.641 254.701 45.3018 254.063 45.7939C253.43 46.2816 252.568 46.5254 251.479 46.5254C250.759 46.5254 250.096 46.3932 249.49 46.1289C248.888 45.86 248.419 45.4909 248.082 45.0215C247.749 44.5521 247.583 44.0052 247.583 43.3809H249.312C249.312 43.946 249.499 44.3835 249.873 44.6934C250.246 45.0033 250.782 45.1582 251.479 45.1582C252.081 45.1582 252.532 45.0374 252.833 44.7959C253.138 44.5498 253.291 44.2262 253.291 43.8252ZM260.858 45.6641C260.37 46.2383 259.678 46.5254 258.78 46.5254C257.978 46.5254 257.369 46.2907 256.955 45.8213C256.544 45.3519 256.339 44.6729 256.339 43.7842V38.9922H258V43.7637C258 44.7025 258.39 45.1719 259.169 45.1719C259.976 45.1719 260.521 44.8825 260.803 44.3037V38.9922H262.464V46.3887H260.899L260.858 45.6641ZM270.633 42.7656C270.633 43.9095 270.374 44.8232 269.854 45.5068C269.334 46.1859 268.637 46.5254 267.762 46.5254C266.951 46.5254 266.302 46.2588 265.814 45.7256V49.2324H264.153V38.9922H265.684L265.752 39.7441C266.24 39.1517 266.903 38.8555 267.742 38.8555C268.644 38.8555 269.35 39.1927 269.861 39.8672C270.376 40.5371 270.633 41.4691 270.633 42.6631V42.7656ZM268.979 42.6221C268.979 41.8838 268.831 41.2982 268.535 40.8652C268.243 40.4323 267.824 40.2158 267.277 40.2158C266.598 40.2158 266.11 40.4961 265.814 41.0566V44.3379C266.115 44.9121 266.607 45.1992 267.291 45.1992C267.819 45.1992 268.232 44.9873 268.528 44.5635C268.829 44.1351 268.979 43.488 268.979 42.6221ZM278.522 42.7656C278.522 43.9095 278.262 44.8232 277.743 45.5068C277.223 46.1859 276.526 46.5254 275.651 46.5254C274.84 46.5254 274.19 46.2588 273.703 45.7256V49.2324H272.042V38.9922H273.573L273.641 39.7441C274.129 39.1517 274.792 38.8555 275.63 38.8555C276.533 38.8555 277.239 39.1927 277.75 39.8672C278.264 40.5371 278.522 41.4691 278.522 42.6631V42.7656ZM276.868 42.6221C276.868 41.8838 276.72 41.2982 276.423 40.8652C276.132 40.4323 275.712 40.2158 275.166 40.2158C274.486 40.2158 273.999 40.4961 273.703 41.0566V44.3379C274.003 44.9121 274.496 45.1992 275.179 45.1992C275.708 45.1992 276.12 44.9873 276.417 44.5635C276.717 44.1351 276.868 43.488 276.868 42.6221ZM281.701 46.3887H280.04V35.8887H281.701V46.3887ZM285.283 46.3887H283.622V38.9922H285.283V46.3887ZM283.519 37.0713C283.519 36.8161 283.599 36.6042 283.758 36.4355C283.922 36.2669 284.155 36.1826 284.456 36.1826C284.756 36.1826 284.989 36.2669 285.153 36.4355C285.317 36.6042 285.399 36.8161 285.399 37.0713C285.399 37.3219 285.317 37.5316 285.153 37.7002C284.989 37.8643 284.756 37.9463 284.456 37.9463C284.155 37.9463 283.922 37.8643 283.758 37.7002C283.599 37.5316 283.519 37.3219 283.519 37.0713ZM290.355 46.5254C289.302 46.5254 288.448 46.195 287.792 45.5342C287.14 44.8688 286.814 43.9847 286.814 42.8818V42.6768C286.814 41.9385 286.955 41.2799 287.238 40.7012C287.525 40.1178 287.926 39.6644 288.441 39.3408C288.956 39.0173 289.53 38.8555 290.164 38.8555C291.171 38.8555 291.948 39.1768 292.495 39.8193C293.046 40.4619 293.322 41.3711 293.322 42.5469V43.2168H288.489C288.539 43.8275 288.742 44.3105 289.097 44.666C289.457 45.0215 289.908 45.1992 290.451 45.1992C291.212 45.1992 291.832 44.8916 292.31 44.2764L293.206 45.1309C292.909 45.5729 292.513 45.917 292.016 46.1631C291.524 46.4046 290.97 46.5254 290.355 46.5254ZM290.157 40.1885C289.701 40.1885 289.332 40.348 289.049 40.667C288.771 40.986 288.594 41.4303 288.516 42H291.681V41.877C291.645 41.321 291.497 40.9017 291.237 40.6191C290.977 40.332 290.617 40.1885 290.157 40.1885ZM298.49 40.5098C298.271 40.4733 298.045 40.4551 297.813 40.4551C297.052 40.4551 296.539 40.7467 296.275 41.3301V46.3887H294.614V38.9922H296.2L296.241 39.8193C296.642 39.1768 297.198 38.8555 297.909 38.8555C298.146 38.8555 298.342 38.8874 298.497 38.9512L298.49 40.5098Z" fill="#1F2432"/>
<path d="M249.741 164.248V167.946H248.012V157.993H251.819C252.931 157.993 253.813 158.283 254.465 158.861C255.121 159.44 255.449 160.206 255.449 161.158C255.449 162.133 255.128 162.892 254.485 163.435C253.847 163.977 252.952 164.248 251.799 164.248H249.741ZM249.741 162.86H251.819C252.435 162.86 252.904 162.717 253.228 162.43C253.551 162.138 253.713 161.719 253.713 161.172C253.713 160.634 253.549 160.206 253.221 159.887C252.893 159.563 252.441 159.397 251.867 159.388H249.741V162.86ZM260.679 162.067C260.46 162.031 260.234 162.013 260.002 162.013C259.241 162.013 258.728 162.304 258.464 162.888V167.946H256.803V160.55H258.389L258.43 161.377C258.831 160.734 259.387 160.413 260.098 160.413C260.335 160.413 260.531 160.445 260.686 160.509L260.679 162.067ZM261.171 164.18C261.171 163.455 261.314 162.803 261.602 162.225C261.889 161.641 262.292 161.195 262.812 160.885C263.331 160.57 263.928 160.413 264.603 160.413C265.601 160.413 266.41 160.734 267.029 161.377C267.654 162.02 267.991 162.872 268.041 163.934L268.048 164.323C268.048 165.052 267.907 165.704 267.624 166.278C267.346 166.853 266.945 167.297 266.421 167.611C265.901 167.926 265.3 168.083 264.616 168.083C263.573 168.083 262.736 167.737 262.107 167.044C261.483 166.347 261.171 165.419 261.171 164.262V164.18ZM262.832 164.323C262.832 165.084 262.989 165.681 263.304 166.114C263.618 166.543 264.056 166.757 264.616 166.757C265.177 166.757 265.612 166.538 265.922 166.101C266.236 165.663 266.394 165.023 266.394 164.18C266.394 163.432 266.232 162.84 265.908 162.402C265.589 161.965 265.154 161.746 264.603 161.746C264.06 161.746 263.63 161.963 263.311 162.396C262.992 162.824 262.832 163.466 262.832 164.323ZM269.142 164.193C269.142 163.054 269.406 162.14 269.935 161.452C270.463 160.759 271.172 160.413 272.061 160.413C272.844 160.413 273.478 160.687 273.961 161.233V157.446H275.622V167.946H274.118L274.036 167.181C273.539 167.782 272.876 168.083 272.047 168.083C271.181 168.083 270.479 167.734 269.941 167.037C269.408 166.34 269.142 165.392 269.142 164.193ZM270.803 164.337C270.803 165.089 270.946 165.677 271.233 166.101C271.525 166.52 271.938 166.729 272.471 166.729C273.15 166.729 273.646 166.426 273.961 165.82V162.662C273.656 162.07 273.163 161.773 272.484 161.773C271.947 161.773 271.532 161.988 271.24 162.416C270.949 162.84 270.803 163.48 270.803 164.337ZM281.836 167.222C281.348 167.796 280.656 168.083 279.758 168.083C278.956 168.083 278.347 167.848 277.933 167.379C277.522 166.91 277.317 166.23 277.317 165.342V160.55H278.979V165.321C278.979 166.26 279.368 166.729 280.147 166.729C280.954 166.729 281.499 166.44 281.781 165.861V160.55H283.442V167.946H281.877L281.836 167.222ZM288.173 166.757C288.588 166.757 288.932 166.636 289.205 166.395C289.479 166.153 289.624 165.854 289.643 165.499H291.208C291.19 165.959 291.046 166.39 290.777 166.791C290.508 167.188 290.144 167.502 289.684 167.734C289.223 167.967 288.727 168.083 288.193 168.083C287.159 168.083 286.339 167.748 285.732 167.078C285.126 166.408 284.823 165.483 284.823 164.303V164.132C284.823 163.006 285.124 162.106 285.726 161.432C286.327 160.753 287.147 160.413 288.187 160.413C289.066 160.413 289.782 160.671 290.333 161.186C290.889 161.696 291.181 162.368 291.208 163.202H289.643C289.624 162.778 289.479 162.43 289.205 162.156C288.936 161.883 288.592 161.746 288.173 161.746C287.635 161.746 287.22 161.942 286.929 162.334C286.637 162.721 286.489 163.312 286.484 164.104V164.371C286.484 165.173 286.628 165.772 286.915 166.169C287.207 166.561 287.626 166.757 288.173 166.757ZM295.72 168.083C294.667 168.083 293.812 167.753 293.156 167.092C292.505 166.426 292.179 165.542 292.179 164.439V164.234C292.179 163.496 292.32 162.838 292.603 162.259C292.89 161.675 293.291 161.222 293.806 160.898C294.321 160.575 294.895 160.413 295.528 160.413C296.535 160.413 297.312 160.734 297.859 161.377C298.411 162.02 298.687 162.929 298.687 164.104V164.774H293.854C293.904 165.385 294.106 165.868 294.462 166.224C294.822 166.579 295.273 166.757 295.815 166.757C296.576 166.757 297.196 166.449 297.675 165.834L298.57 166.688C298.274 167.131 297.878 167.475 297.381 167.721C296.889 167.962 296.335 168.083 295.72 168.083ZM295.521 161.746C295.066 161.746 294.697 161.906 294.414 162.225C294.136 162.544 293.958 162.988 293.881 163.558H297.046V163.435C297.009 162.879 296.861 162.459 296.602 162.177C296.342 161.89 295.982 161.746 295.521 161.746ZM303.854 162.067C303.636 162.031 303.41 162.013 303.178 162.013C302.417 162.013 301.904 162.304 301.64 162.888V167.946H299.979V160.55H301.564L301.605 161.377C302.007 160.734 302.562 160.413 303.273 160.413C303.51 160.413 303.706 160.445 303.861 160.509L303.854 162.067Z" fill="#1F2432"/>
<path d="M248.088 289.503V279.55H251.028C251.907 279.55 252.687 279.746 253.366 280.138C254.049 280.53 254.578 281.086 254.952 281.806C255.325 282.526 255.512 283.351 255.512 284.28V284.779C255.512 285.723 255.323 286.552 254.945 287.268C254.571 287.983 254.036 288.535 253.338 288.922C252.646 289.309 251.85 289.503 250.953 289.503H248.088ZM249.818 280.944V288.122H250.946C251.853 288.122 252.548 287.84 253.031 287.274C253.518 286.705 253.767 285.889 253.776 284.827V284.273C253.776 283.193 253.541 282.368 253.072 281.799C252.602 281.229 251.921 280.944 251.028 280.944H249.818ZM258.841 289.503H257.18V282.106H258.841V289.503ZM257.078 280.186C257.078 279.93 257.157 279.718 257.317 279.55C257.481 279.381 257.713 279.297 258.014 279.297C258.315 279.297 258.547 279.381 258.711 279.55C258.875 279.718 258.958 279.93 258.958 280.186C258.958 280.436 258.875 280.646 258.711 280.814C258.547 280.979 258.315 281.061 258.014 281.061C257.713 281.061 257.481 280.979 257.317 280.814C257.157 280.646 257.078 280.436 257.078 280.186ZM264.802 287.493C264.802 287.197 264.679 286.971 264.433 286.816C264.192 286.661 263.788 286.525 263.223 286.406C262.658 286.288 262.186 286.137 261.808 285.955C260.979 285.554 260.564 284.973 260.564 284.212C260.564 283.574 260.833 283.041 261.371 282.612C261.908 282.184 262.592 281.97 263.421 281.97C264.306 281.97 265.019 282.188 265.561 282.626C266.108 283.063 266.381 283.631 266.381 284.328H264.72C264.72 284.009 264.602 283.745 264.365 283.535C264.128 283.321 263.813 283.214 263.421 283.214C263.057 283.214 262.758 283.298 262.526 283.467C262.298 283.635 262.184 283.861 262.184 284.144C262.184 284.399 262.291 284.597 262.505 284.738C262.72 284.88 263.153 285.023 263.804 285.169C264.456 285.31 264.966 285.481 265.335 285.682C265.709 285.878 265.985 286.115 266.163 286.393C266.345 286.671 266.436 287.008 266.436 287.404C266.436 288.07 266.16 288.61 265.609 289.024C265.057 289.435 264.335 289.64 263.442 289.64C262.836 289.64 262.296 289.53 261.822 289.312C261.348 289.093 260.979 288.792 260.714 288.409C260.45 288.026 260.318 287.614 260.318 287.172H261.931C261.954 287.564 262.102 287.867 262.375 288.081C262.649 288.291 263.011 288.396 263.462 288.396C263.9 288.396 264.233 288.313 264.46 288.149C264.688 287.981 264.802 287.762 264.802 287.493ZM269.97 280.309V282.106H271.276V283.337H269.97V287.466C269.97 287.748 270.025 287.953 270.134 288.081C270.248 288.204 270.449 288.266 270.736 288.266C270.927 288.266 271.121 288.243 271.317 288.197V289.482C270.939 289.587 270.574 289.64 270.223 289.64C268.947 289.64 268.309 288.936 268.309 287.527V283.337H267.092V282.106H268.309V280.309H269.97ZM276.423 283.624C276.205 283.588 275.979 283.569 275.747 283.569C274.986 283.569 274.473 283.861 274.208 284.444V289.503H272.547V282.106H274.133L274.174 282.934C274.575 282.291 275.131 281.97 275.842 281.97C276.079 281.97 276.275 282.002 276.43 282.065L276.423 283.624ZM279.24 289.503H277.579V282.106H279.24V289.503ZM277.476 280.186C277.476 279.93 277.556 279.718 277.715 279.55C277.879 279.381 278.112 279.297 278.413 279.297C278.713 279.297 278.946 279.381 279.11 279.55C279.274 279.718 279.356 279.93 279.356 280.186C279.356 280.436 279.274 280.646 279.11 280.814C278.946 280.979 278.713 281.061 278.413 281.061C278.112 281.061 277.879 280.979 277.715 280.814C277.556 280.646 277.476 280.436 277.476 280.186ZM287.545 285.88C287.545 287.028 287.288 287.942 286.773 288.621C286.263 289.3 285.558 289.64 284.661 289.64C283.795 289.64 283.12 289.327 282.637 288.703L282.555 289.503H281.051V279.003H282.712V282.817C283.191 282.252 283.836 281.97 284.647 281.97C285.549 281.97 286.258 282.305 286.773 282.975C287.288 283.645 287.545 284.581 287.545 285.784V285.88ZM285.884 285.736C285.884 284.934 285.743 284.333 285.46 283.932C285.178 283.531 284.768 283.33 284.23 283.33C283.51 283.33 283.004 283.645 282.712 284.273V287.322C283.009 287.965 283.519 288.286 284.244 288.286C284.763 288.286 285.164 288.092 285.447 287.705C285.729 287.318 285.875 286.732 285.884 285.948V285.736ZM293.424 288.778C292.937 289.353 292.244 289.64 291.346 289.64C290.544 289.64 289.936 289.405 289.521 288.936C289.111 288.466 288.906 287.787 288.906 286.898V282.106H290.567V286.878C290.567 287.817 290.957 288.286 291.736 288.286C292.542 288.286 293.087 287.997 293.37 287.418V282.106H295.031V289.503H293.465L293.424 288.778ZM298.804 280.309V282.106H300.11V283.337H298.804V287.466C298.804 287.748 298.859 287.953 298.968 288.081C299.082 288.204 299.283 288.266 299.57 288.266C299.761 288.266 299.955 288.243 300.151 288.197V289.482C299.773 289.587 299.408 289.64 299.057 289.64C297.781 289.64 297.143 288.936 297.143 287.527V283.337H295.926V282.106H297.143V280.309H298.804ZM300.869 285.736C300.869 285.012 301.012 284.36 301.299 283.781C301.586 283.198 301.99 282.751 302.509 282.441C303.029 282.127 303.626 281.97 304.3 281.97C305.298 281.97 306.107 282.291 306.727 282.934C307.351 283.576 307.689 284.428 307.739 285.49L307.746 285.88C307.746 286.609 307.604 287.261 307.322 287.835C307.044 288.409 306.643 288.854 306.119 289.168C305.599 289.482 304.998 289.64 304.314 289.64C303.27 289.64 302.434 289.293 301.805 288.601C301.181 287.903 300.869 286.976 300.869 285.818V285.736ZM302.53 285.88C302.53 286.641 302.687 287.238 303.001 287.671C303.316 288.099 303.753 288.313 304.314 288.313C304.875 288.313 305.31 288.095 305.62 287.657C305.934 287.22 306.091 286.579 306.091 285.736C306.091 284.989 305.93 284.396 305.606 283.959C305.287 283.521 304.852 283.303 304.3 283.303C303.758 283.303 303.327 283.519 303.008 283.952C302.689 284.381 302.53 285.023 302.53 285.88ZM313.023 283.624C312.804 283.588 312.579 283.569 312.346 283.569C311.585 283.569 311.072 283.861 310.808 284.444V289.503H309.147V282.106H310.733L310.774 282.934C311.175 282.291 311.731 281.97 312.442 281.97C312.679 281.97 312.875 282.002 313.03 282.065L313.023 283.624Z" fill="#1F2432"/>
<path d="M249.742 405.325H250.754C251.264 405.321 251.668 405.188 251.964 404.929C252.265 404.669 252.415 404.293 252.415 403.801C252.415 403.327 252.29 402.96 252.039 402.7C251.793 402.436 251.415 402.304 250.904 402.304C250.458 402.304 250.091 402.434 249.804 402.693C249.517 402.949 249.373 403.284 249.373 403.698H247.712C247.712 403.188 247.846 402.723 248.115 402.304C248.389 401.884 248.767 401.559 249.25 401.326C249.738 401.089 250.282 400.971 250.884 400.971C251.877 400.971 252.657 401.221 253.222 401.723C253.791 402.219 254.076 402.912 254.076 403.801C254.076 404.247 253.933 404.669 253.646 405.065C253.363 405.457 252.996 405.754 252.545 405.954C253.092 406.141 253.507 406.435 253.789 406.836C254.076 407.237 254.22 407.715 254.22 408.271C254.22 409.165 253.912 409.876 253.297 410.404C252.686 410.933 251.882 411.197 250.884 411.197C249.927 411.197 249.143 410.942 248.532 410.432C247.922 409.921 247.616 409.242 247.616 408.395H249.277C249.277 408.832 249.423 409.188 249.715 409.461C250.011 409.734 250.408 409.871 250.904 409.871C251.419 409.871 251.825 409.734 252.121 409.461C252.417 409.188 252.565 408.791 252.565 408.271C252.565 407.747 252.41 407.344 252.101 407.062C251.791 406.779 251.33 406.638 250.72 406.638H249.742V405.325ZM257.774 407.362V411.061H256.045V401.107H259.853C260.965 401.107 261.846 401.397 262.498 401.976C263.154 402.554 263.482 403.32 263.482 404.272C263.482 405.248 263.161 406.007 262.519 406.549C261.881 407.091 260.985 407.362 259.832 407.362H257.774ZM257.774 405.975H259.853C260.468 405.975 260.937 405.831 261.261 405.544C261.584 405.252 261.746 404.833 261.746 404.286C261.746 403.748 261.582 403.32 261.254 403.001C260.926 402.677 260.475 402.511 259.9 402.502H257.774V405.975ZM266.729 409.68H271.248V411.061H265V401.107H266.729V409.68Z" fill="#1F2432"/>
<path d="M253.217 651.611C253.217 651.174 253.062 650.837 252.752 650.6C252.447 650.363 251.893 650.123 251.091 649.882C250.289 649.64 249.651 649.371 249.177 649.075C248.27 648.506 247.817 647.763 247.817 646.847C247.817 646.045 248.142 645.384 248.794 644.864C249.45 644.345 250.3 644.085 251.344 644.085C252.037 644.085 252.654 644.213 253.197 644.468C253.739 644.723 254.165 645.088 254.475 645.562C254.785 646.031 254.94 646.553 254.94 647.127H253.217C253.217 646.607 253.053 646.202 252.725 645.91C252.401 645.614 251.936 645.466 251.33 645.466C250.765 645.466 250.325 645.587 250.011 645.828C249.701 646.07 249.546 646.407 249.546 646.84C249.546 647.204 249.715 647.51 250.052 647.756C250.389 647.997 250.945 648.234 251.72 648.467C252.495 648.695 253.117 648.957 253.586 649.253C254.056 649.545 254.4 649.882 254.618 650.265C254.837 650.643 254.947 651.087 254.947 651.598C254.947 652.427 254.628 653.088 253.99 653.58C253.356 654.068 252.495 654.312 251.406 654.312C250.685 654.312 250.022 654.179 249.416 653.915C248.815 653.646 248.345 653.277 248.008 652.808C247.675 652.338 247.509 651.791 247.509 651.167H249.239C249.239 651.732 249.425 652.17 249.799 652.479C250.173 652.789 250.708 652.944 251.406 652.944C252.007 652.944 252.458 652.824 252.759 652.582C253.064 652.336 253.217 652.012 253.217 651.611ZM258.385 644.98V646.778H259.691V648.009H258.385V652.138C258.385 652.42 258.44 652.625 258.549 652.753C258.663 652.876 258.864 652.938 259.151 652.938C259.342 652.938 259.536 652.915 259.732 652.869V654.154C259.353 654.259 258.989 654.312 258.638 654.312C257.362 654.312 256.724 653.607 256.724 652.199V648.009H255.507V646.778H256.724V644.98H258.385ZM260.449 650.408C260.449 649.684 260.593 649.032 260.88 648.453C261.167 647.87 261.571 647.423 262.09 647.113C262.61 646.799 263.207 646.642 263.881 646.642C264.879 646.642 265.688 646.963 266.308 647.605C266.932 648.248 267.269 649.1 267.32 650.162L267.326 650.552C267.326 651.281 267.185 651.933 266.903 652.507C266.625 653.081 266.224 653.525 265.699 653.84C265.18 654.154 264.578 654.312 263.895 654.312C262.851 654.312 262.015 653.965 261.386 653.272C260.762 652.575 260.449 651.648 260.449 650.49V650.408ZM262.111 650.552C262.111 651.313 262.268 651.91 262.582 652.343C262.897 652.771 263.334 652.985 263.895 652.985C264.455 652.985 264.891 652.767 265.2 652.329C265.515 651.892 265.672 651.251 265.672 650.408C265.672 649.661 265.51 649.068 265.187 648.631C264.868 648.193 264.433 647.975 263.881 647.975C263.339 647.975 262.908 648.191 262.589 648.624C262.27 649.052 262.111 649.695 262.111 650.552ZM272.604 648.296C272.385 648.259 272.159 648.241 271.927 648.241C271.166 648.241 270.653 648.533 270.389 649.116V654.175H268.728V646.778H270.314L270.355 647.605C270.756 646.963 271.312 646.642 272.023 646.642C272.26 646.642 272.456 646.674 272.611 646.737L272.604 648.296ZM276.774 654.312C275.721 654.312 274.866 653.981 274.21 653.32C273.559 652.655 273.233 651.771 273.233 650.668V650.463C273.233 649.725 273.374 649.066 273.656 648.487C273.944 647.904 274.345 647.451 274.86 647.127C275.375 646.803 275.949 646.642 276.582 646.642C277.589 646.642 278.366 646.963 278.913 647.605C279.465 648.248 279.74 649.157 279.74 650.333V651.003H274.907C274.958 651.614 275.16 652.097 275.516 652.452C275.876 652.808 276.327 652.985 276.869 652.985C277.63 652.985 278.25 652.678 278.729 652.062L279.624 652.917C279.328 653.359 278.932 653.703 278.435 653.949C277.943 654.191 277.389 654.312 276.774 654.312ZM276.575 647.975C276.12 647.975 275.751 648.134 275.468 648.453C275.19 648.772 275.012 649.216 274.935 649.786H278.1V649.663C278.063 649.107 277.915 648.688 277.656 648.405C277.396 648.118 277.036 647.975 276.575 647.975Z" fill="#1F2432"/>
<path d="M251.746 528.783H249.818V532.618H248.089V522.665H251.589C252.737 522.665 253.624 522.923 254.248 523.438C254.872 523.952 255.185 524.698 255.185 525.673C255.185 526.338 255.023 526.896 254.699 527.348C254.38 527.794 253.934 528.138 253.359 528.38L255.595 532.529V532.618H253.742L251.746 528.783ZM249.818 527.396H251.596C252.179 527.396 252.635 527.25 252.963 526.958C253.291 526.662 253.455 526.258 253.455 525.748C253.455 525.215 253.302 524.802 252.997 524.511C252.696 524.219 252.245 524.069 251.644 524.06H249.818V527.396ZM259.922 532.755C258.869 532.755 258.015 532.424 257.358 531.764C256.707 531.098 256.381 530.214 256.381 529.111V528.906C256.381 528.168 256.522 527.509 256.805 526.931C257.092 526.347 257.493 525.894 258.008 525.57C258.523 525.247 259.097 525.085 259.73 525.085C260.738 525.085 261.515 525.406 262.062 526.049C262.613 526.691 262.889 527.601 262.889 528.776V529.446H258.056C258.106 530.057 258.309 530.54 258.664 530.896C259.024 531.251 259.475 531.429 260.018 531.429C260.779 531.429 261.398 531.121 261.877 530.506L262.772 531.36C262.476 531.802 262.08 532.146 261.583 532.393C261.091 532.634 260.537 532.755 259.922 532.755ZM259.724 526.418C259.268 526.418 258.899 526.577 258.616 526.896C258.338 527.215 258.16 527.66 258.083 528.229H261.248V528.106C261.212 527.55 261.063 527.131 260.804 526.849C260.544 526.562 260.184 526.418 259.724 526.418ZM266.266 523.424V525.222H267.571V526.452H266.266V530.581C266.266 530.864 266.32 531.069 266.43 531.196C266.544 531.319 266.744 531.381 267.031 531.381C267.223 531.381 267.416 531.358 267.612 531.312V532.598C267.234 532.702 266.869 532.755 266.519 532.755C265.243 532.755 264.604 532.051 264.604 530.643V526.452H263.388V525.222H264.604V523.424H266.266ZM273.266 532.618C273.193 532.477 273.129 532.247 273.074 531.928C272.546 532.479 271.898 532.755 271.133 532.755C270.39 532.755 269.784 532.543 269.314 532.119C268.845 531.695 268.61 531.171 268.61 530.547C268.61 529.758 268.902 529.155 269.485 528.735C270.073 528.312 270.912 528.1 272.001 528.1H273.02V527.614C273.02 527.231 272.912 526.926 272.698 526.698C272.484 526.466 272.158 526.35 271.721 526.35C271.342 526.35 271.033 526.445 270.791 526.637C270.549 526.824 270.429 527.063 270.429 527.354H268.768C268.768 526.949 268.902 526.571 269.171 526.22C269.44 525.864 269.804 525.586 270.265 525.386C270.729 525.185 271.247 525.085 271.816 525.085C272.682 525.085 273.373 525.304 273.888 525.741C274.403 526.174 274.667 526.785 274.681 527.573V530.909C274.681 531.575 274.774 532.105 274.961 532.502V532.618H273.266ZM271.44 531.422C271.769 531.422 272.076 531.342 272.363 531.183C272.655 531.023 272.874 530.809 273.02 530.54V529.146H272.124C271.509 529.146 271.046 529.253 270.736 529.467C270.426 529.681 270.271 529.984 270.271 530.376C270.271 530.695 270.376 530.95 270.586 531.142C270.8 531.328 271.085 531.422 271.44 531.422ZM278.188 532.618H276.526V525.222H278.188V532.618ZM276.424 523.301C276.424 523.046 276.504 522.834 276.663 522.665C276.827 522.496 277.06 522.412 277.36 522.412C277.661 522.412 277.894 522.496 278.058 522.665C278.222 522.834 278.304 523.046 278.304 523.301C278.304 523.551 278.222 523.761 278.058 523.93C277.894 524.094 277.661 524.176 277.36 524.176C277.06 524.176 276.827 524.094 276.663 523.93C276.504 523.761 276.424 523.551 276.424 523.301ZM281.77 532.618H280.108V522.118H281.77V532.618ZM286.842 532.755C285.789 532.755 284.935 532.424 284.278 531.764C283.627 531.098 283.301 530.214 283.301 529.111V528.906C283.301 528.168 283.442 527.509 283.725 526.931C284.012 526.347 284.413 525.894 284.928 525.57C285.443 525.247 286.017 525.085 286.65 525.085C287.658 525.085 288.435 525.406 288.981 526.049C289.533 526.691 289.809 527.601 289.809 528.776V529.446H284.976C285.026 530.057 285.229 530.54 285.584 530.896C285.944 531.251 286.395 531.429 286.938 531.429C287.699 531.429 288.318 531.121 288.797 530.506L289.692 531.36C289.396 531.802 289 532.146 288.503 532.393C288.011 532.634 287.457 532.755 286.842 532.755ZM286.644 526.418C286.188 526.418 285.819 526.577 285.536 526.896C285.258 527.215 285.08 527.66 285.003 528.229H288.168V528.106C288.132 527.55 287.983 527.131 287.724 526.849C287.464 526.562 287.104 526.418 286.644 526.418ZM294.977 526.739C294.758 526.703 294.532 526.685 294.3 526.685C293.539 526.685 293.026 526.976 292.762 527.56V532.618H291.101V525.222H292.687L292.728 526.049C293.129 525.406 293.685 525.085 294.396 525.085C294.632 525.085 294.828 525.117 294.983 525.181L294.977 526.739Z" fill="#1F2432"/>
<path d="M255.683 772.491C255.582 773.553 255.19 774.382 254.507 774.979C253.823 775.572 252.914 775.868 251.779 775.868C250.986 775.868 250.287 775.681 249.681 775.308C249.079 774.929 248.614 774.394 248.286 773.701C247.958 773.008 247.787 772.204 247.773 771.288V770.358C247.773 769.42 247.94 768.592 248.272 767.877C248.605 767.161 249.081 766.61 249.701 766.223C250.326 765.835 251.046 765.642 251.861 765.642C252.96 765.642 253.844 765.94 254.514 766.537C255.184 767.134 255.573 767.977 255.683 769.066H253.96C253.878 768.351 253.668 767.836 253.331 767.521C252.998 767.202 252.508 767.043 251.861 767.043C251.109 767.043 250.531 767.319 250.125 767.87C249.724 768.417 249.519 769.221 249.51 770.283V771.165C249.51 772.241 249.701 773.061 250.084 773.626C250.471 774.191 251.036 774.474 251.779 774.474C252.458 774.474 252.969 774.321 253.311 774.016C253.652 773.71 253.869 773.202 253.96 772.491H255.683ZM261.555 775.007C261.067 775.581 260.374 775.868 259.477 775.868C258.674 775.868 258.066 775.633 257.651 775.164C257.241 774.695 257.036 774.016 257.036 773.127V768.335H258.697V773.106C258.697 774.045 259.087 774.515 259.866 774.515C260.673 774.515 261.217 774.225 261.5 773.646V768.335H263.161V775.731H261.596L261.555 775.007ZM268.999 773.722C268.999 773.425 268.876 773.2 268.63 773.045C268.388 772.89 267.985 772.753 267.42 772.635C266.855 772.516 266.383 772.366 266.005 772.184C265.175 771.783 264.761 771.201 264.761 770.44C264.761 769.802 265.03 769.269 265.567 768.841C266.105 768.412 266.789 768.198 267.618 768.198C268.502 768.198 269.215 768.417 269.758 768.854C270.305 769.292 270.578 769.859 270.578 770.557H268.917C268.917 770.238 268.799 769.973 268.562 769.764C268.325 769.549 268.01 769.442 267.618 769.442C267.254 769.442 266.955 769.527 266.723 769.695C266.495 769.864 266.381 770.09 266.381 770.372C266.381 770.627 266.488 770.826 266.702 770.967C266.916 771.108 267.349 771.252 268.001 771.397C268.653 771.539 269.163 771.71 269.532 771.91C269.906 772.106 270.182 772.343 270.359 772.621C270.542 772.899 270.633 773.236 270.633 773.633C270.633 774.298 270.357 774.838 269.806 775.253C269.254 775.663 268.532 775.868 267.639 775.868C267.033 775.868 266.493 775.759 266.019 775.54C265.545 775.321 265.175 775.021 264.911 774.638C264.647 774.255 264.515 773.842 264.515 773.4H266.128C266.151 773.792 266.299 774.095 266.572 774.31C266.846 774.519 267.208 774.624 267.659 774.624C268.097 774.624 268.429 774.542 268.657 774.378C268.885 774.209 268.999 773.991 268.999 773.722ZM274.167 766.537V768.335H275.473V769.565H274.167V773.694C274.167 773.977 274.222 774.182 274.331 774.31C274.445 774.433 274.646 774.494 274.933 774.494C275.124 774.494 275.318 774.471 275.514 774.426V775.711C275.135 775.816 274.771 775.868 274.42 775.868C273.144 775.868 272.506 775.164 272.506 773.756V769.565H271.289V768.335H272.506V766.537H274.167ZM276.231 771.965C276.231 771.24 276.375 770.589 276.662 770.01C276.949 769.426 277.353 768.98 277.872 768.67C278.392 768.355 278.989 768.198 279.663 768.198C280.661 768.198 281.47 768.52 282.09 769.162C282.714 769.805 283.051 770.657 283.102 771.719L283.108 772.108C283.108 772.838 282.967 773.489 282.685 774.063C282.407 774.638 282.006 775.082 281.481 775.396C280.962 775.711 280.36 775.868 279.677 775.868C278.633 775.868 277.797 775.522 277.168 774.829C276.544 774.132 276.231 773.204 276.231 772.047V771.965ZM277.893 772.108C277.893 772.869 278.05 773.466 278.364 773.899C278.679 774.328 279.116 774.542 279.677 774.542C280.237 774.542 280.673 774.323 280.982 773.886C281.297 773.448 281.454 772.808 281.454 771.965C281.454 771.217 281.292 770.625 280.969 770.188C280.65 769.75 280.215 769.531 279.663 769.531C279.121 769.531 278.69 769.748 278.371 770.181C278.052 770.609 277.893 771.252 277.893 772.108ZM286.075 768.335L286.123 769.107C286.643 768.501 287.354 768.198 288.256 768.198C289.245 768.198 289.922 768.576 290.286 769.333C290.824 768.576 291.58 768.198 292.556 768.198C293.371 768.198 293.978 768.424 294.374 768.875C294.775 769.326 294.98 769.992 294.989 770.871V775.731H293.328V770.919C293.328 770.45 293.226 770.105 293.021 769.887C292.815 769.668 292.476 769.559 292.002 769.559C291.624 769.559 291.314 769.661 291.072 769.866C290.835 770.067 290.669 770.331 290.573 770.659L290.58 775.731H288.919V770.864C288.896 769.994 288.452 769.559 287.586 769.559C286.921 769.559 286.449 769.83 286.171 770.372V775.731H284.51V768.335H286.075ZM299.952 775.868C298.899 775.868 298.045 775.538 297.389 774.877C296.737 774.212 296.411 773.327 296.411 772.225V772.02C296.411 771.281 296.552 770.623 296.835 770.044C297.122 769.461 297.523 769.007 298.038 768.684C298.553 768.36 299.127 768.198 299.761 768.198C300.768 768.198 301.545 768.52 302.092 769.162C302.643 769.805 302.919 770.714 302.919 771.89V772.56H298.086C298.136 773.17 298.339 773.653 298.694 774.009C299.054 774.364 299.506 774.542 300.048 774.542C300.809 774.542 301.429 774.234 301.907 773.619L302.803 774.474C302.507 774.916 302.11 775.26 301.613 775.506C301.121 775.747 300.567 775.868 299.952 775.868ZM299.754 769.531C299.298 769.531 298.929 769.691 298.646 770.01C298.368 770.329 298.191 770.773 298.113 771.343H301.278V771.22C301.242 770.664 301.094 770.244 300.834 769.962C300.574 769.675 300.214 769.531 299.754 769.531ZM308.087 769.853C307.868 769.816 307.643 769.798 307.41 769.798C306.649 769.798 306.136 770.09 305.872 770.673V775.731H304.211V768.335H305.797L305.838 769.162C306.239 768.52 306.795 768.198 307.506 768.198C307.743 768.198 307.939 768.23 308.094 768.294L308.087 769.853Z" fill="#1F2432"/>
<path d="M186.116 84.9712C209.632 84.9712 228.662 65.9406 228.662 42.425C228.662 19.0306 209.632 0 186.116 0C162.6 0 143.57 19.0306 143.57 42.5462C143.57 65.9406 162.6 84.9712 186.116 84.9712Z" fill="#1F2432"/>
<path d="M186.116 206.427C209.632 206.427 228.662 187.397 228.662 163.881C228.662 140.366 209.632 121.335 186.116 121.335C162.6 121.335 143.57 140.366 143.57 163.881C143.57 187.397 162.6 206.427 186.116 206.427Z" fill="#1F2432"/>
<path d="M186.116 327.763C209.632 327.763 228.662 308.733 228.662 285.217C228.662 261.702 209.632 242.671 186.116 242.671C162.6 242.671 143.57 261.702 143.57 285.217C143.57 308.733 162.6 327.763 186.116 327.763Z" fill="#1F2432"/>
<path d="M186.116 449.22C209.632 449.22 228.662 430.19 228.662 406.674C228.662 383.159 209.632 364.128 186.116 364.128C162.6 364.128 143.57 383.159 143.57 406.674C143.57 430.19 162.6 449.22 186.116 449.22Z" fill="#1F2432"/>
<path d="M186.116 570.676C209.632 570.676 228.662 551.646 228.662 528.13C228.662 504.615 209.632 485.584 186.116 485.584C162.6 485.584 143.57 504.615 143.57 528.13C143.57 551.646 162.6 570.676 186.116 570.676Z" fill="#1F2432"/>
<path d="M184.904 692.012C208.419 692.012 227.45 672.982 227.45 649.466C227.45 625.951 208.419 606.92 184.904 606.92C161.388 606.92 142.358 625.951 142.358 649.466C142.358 672.982 161.388 692.012 184.904 692.012Z" fill="#1F2432"/>
<path d="M184.904 813.469C208.419 813.469 227.45 794.439 227.45 770.923C227.45 747.407 208.419 728.498 184.904 728.498C161.388 728.498 142.358 747.529 142.358 771.044C142.358 794.56 161.388 813.469 184.904 813.469Z" fill="#1F2432"/>
<path d="M173.995 83.7591C173.995 90.4259 179.449 95.8805 186.116 95.8805C192.783 95.8805 198.238 90.4259 198.238 83.7591C198.238 77.0923 192.783 71.6377 186.116 71.6377C179.449 71.6377 173.995 77.0923 173.995 83.7591Z" fill="#00DCE6" fill-opacity="0.2"/>
<path d="M181.268 83.7587C181.268 86.4254 183.449 88.6073 186.116 88.6073C188.783 88.6073 190.965 86.4254 190.965 83.7587C190.965 81.092 188.783 78.9102 186.116 78.9102C183.449 78.9102 181.268 81.092 181.268 83.7587Z" fill="#00DCE6"/>
<path d="M173.995 109.214L186.116 121.335L198.238 109.214" stroke="#00DCE6" stroke-width="2"/>
<path d="M186.116 79.8799C186.116 96.1226 186.116 105.214 186.116 121.335" stroke="#00DCE6" stroke-width="2" stroke-miterlimit="16"/>
<path d="M173.995 205.216C173.995 211.883 179.449 217.338 186.116 217.338C192.783 217.338 198.238 211.883 198.238 205.216C198.238 198.549 192.783 193.095 186.116 193.095C179.449 193.095 173.995 198.428 173.995 205.216Z" fill="#00DCE6" fill-opacity="0.2"/>
<path d="M181.268 205.216C181.268 207.882 183.449 210.064 186.116 210.064C188.783 210.064 190.965 207.882 190.965 205.216C190.965 202.549 188.783 200.367 186.116 200.367C183.449 200.367 181.268 202.549 181.268 205.216Z" fill="#00DCE6"/>
<path d="M173.995 230.671L186.116 242.792L198.238 230.671" stroke="#00DCE6" stroke-width="2"/>
<path d="M186.116 201.337C186.116 217.58 186.116 226.671 186.116 242.792" stroke="#00DCE6" stroke-width="2" stroke-miterlimit="16"/>
<path d="M173.995 326.551C173.995 333.218 179.449 338.672 186.116 338.672C192.783 338.672 198.238 333.218 198.238 326.551C198.238 319.884 192.783 314.43 186.116 314.43C179.449 314.43 173.995 319.884 173.995 326.551Z" fill="#00DCE6" fill-opacity="0.2"/>
<path d="M181.268 326.552C181.268 329.218 183.449 331.4 186.116 331.4C188.783 331.4 190.965 329.218 190.965 326.552C190.965 323.885 188.783 321.703 186.116 321.703C183.449 321.703 181.268 323.885 181.268 326.552Z" fill="#00DCE6"/>
<path d="M173.995 352.006L186.116 364.127L198.238 352.006" stroke="#00DCE6" stroke-width="2"/>
<path d="M186.116 322.794C186.116 339.037 186.116 348.128 186.116 364.249" stroke="#00DCE6" stroke-width="2" stroke-miterlimit="16"/>
<path d="M173.995 448.008C173.995 454.675 179.449 460.13 186.116 460.13C192.783 460.13 198.238 454.675 198.238 448.008C198.238 441.341 192.783 435.887 186.116 435.887C179.449 435.887 173.995 441.341 173.995 448.008Z" fill="#00DCE6" fill-opacity="0.2"/>
<path d="M181.268 448.008C181.268 450.674 183.449 452.856 186.116 452.856C188.783 452.856 190.965 450.674 190.965 448.008C190.965 445.341 188.783 443.159 186.116 443.159C183.449 443.159 181.268 445.341 181.268 448.008Z" fill="#00DCE6"/>
<path d="M173.995 473.463L186.116 485.584L198.238 473.463" stroke="#00DCE6" stroke-width="2"/>
<path d="M186.116 444.129C186.116 460.372 186.116 469.463 186.116 485.584" stroke="#00DCE6" stroke-width="2" stroke-miterlimit="16"/>
<path d="M173.995 569.464C173.995 576.131 179.449 581.586 186.116 581.586C192.783 581.586 198.238 576.131 198.238 569.464C198.238 562.797 192.783 557.343 186.116 557.343C179.449 557.343 173.995 562.676 173.995 569.464Z" fill="#00DCE6" fill-opacity="0.2"/>
<path d="M181.268 569.465C181.268 572.132 183.449 574.313 186.116 574.313C188.783 574.313 190.965 572.132 190.965 569.465C190.965 566.798 188.783 564.616 186.116 564.616C183.449 564.616 181.268 566.798 181.268 569.465Z" fill="#00DCE6"/>
<path d="M173.995 594.92L186.116 607.041L198.238 594.92" stroke="#00DCE6" stroke-width="2"/>
<path d="M186.116 565.586C186.116 581.829 186.116 590.92 186.116 607.041" stroke="#00DCE6" stroke-width="2" stroke-miterlimit="16"/>
<path d="M173.995 690.8C173.995 697.467 179.449 702.922 186.116 702.922C192.783 702.922 198.238 697.467 198.238 690.8C198.238 684.133 192.783 678.679 186.116 678.679C179.449 678.679 173.995 684.133 173.995 690.8Z" fill="#00DCE6" fill-opacity="0.2"/>
<path d="M181.268 690.8C181.268 693.467 183.449 695.648 186.116 695.648C188.783 695.648 190.965 693.467 190.965 690.8C190.965 688.133 188.783 685.951 186.116 685.951C183.449 685.951 181.268 688.133 181.268 690.8Z" fill="#00DCE6"/>
<path d="M173.995 716.255L186.116 728.376L198.238 716.255" stroke="#00DCE6" stroke-width="2"/>
<path d="M186.116 687.042C186.116 703.285 186.116 712.376 186.116 728.497" stroke="#00DCE6" stroke-width="2" stroke-miterlimit="16"/>
<path d="M173.995 812.257C173.995 818.924 179.449 824.379 186.116 824.379C192.783 824.379 198.238 818.924 198.238 812.257C198.238 805.59 192.783 800.136 186.116 800.136C179.449 800.136 173.995 805.59 173.995 812.257Z" fill="#00DCE6" fill-opacity="0.2"/>
<path d="M181.268 812.257C181.268 814.923 183.449 817.105 186.116 817.105C188.783 817.105 190.965 814.923 190.965 812.257C190.965 809.59 188.783 807.408 186.116 807.408C183.449 807.408 181.268 809.59 181.268 812.257Z" fill="#00DCE6"/>
<path d="M172.782 27.0303V40.4851H163.812V27.0303" stroke="#00DCE6"/>
<path d="M190.48 27.0303V40.4851H181.51V27.0303" stroke="#00DCE6"/>
<path d="M208.419 27.0303V40.4851H199.449V27.0303" stroke="#00DCE6"/>
<path d="M211.328 40.3643H160.903V57.6979H211.328V40.3643Z" stroke="#00DCE6"/>
<path d="M195.571 21.5762H176.904V26.6672H195.692L195.571 21.5762Z" stroke="#00DCE6"/>
<path d="M186.116 17.9395V21.5759" stroke="#00DCE6"/>
<path d="M194.48 44.7275H177.752V57.5762H194.601L194.48 44.7275Z" stroke="#00DCE6"/>
<path d="M194.48 44.7275H186.116V57.6975H194.48V44.7275Z" stroke="#00DCE6"/>
<path d="M208.419 26.667H163.812V29.9398H208.541L208.419 26.667Z" stroke="#00DCE6"/>
<path d="M188.783 49.5762V53.455" stroke="#00DCE6"/>
<path d="M183.692 49.5762V53.455" stroke="#00DCE6"/>
<path d="M169.025 44.7275H164.661V54.3035H169.025V44.7275Z" stroke="#00DCE6"/>
<path d="M207.207 44.7275H202.844V54.3035H207.207V44.7275Z" stroke="#00DCE6"/>
<path d="M178.843 24.1211H192.661" stroke="#00DCE6"/>
<path d="M202.722 182.184H170.722C166.964 182.184 163.934 179.154 163.934 175.396C163.934 171.639 166.964 168.608 170.722 168.608H202.722C206.48 168.608 209.51 171.639 209.51 175.396C209.51 179.154 206.48 182.184 202.722 182.184Z" stroke="#00DCE6"/>
<path d="M171.207 179.154C173.349 179.154 175.086 177.418 175.086 175.275C175.086 173.133 173.349 171.396 171.207 171.396C169.065 171.396 167.328 173.133 167.328 175.275C167.328 177.418 169.065 179.154 171.207 179.154Z" stroke="#00DCE6"/>
<path d="M181.51 179.154C183.652 179.154 185.389 177.418 185.389 175.275C185.389 173.133 183.652 171.396 181.51 171.396C179.368 171.396 177.631 173.133 177.631 175.275C177.631 177.418 179.368 179.154 181.51 179.154Z" stroke="#00DCE6"/>
<path d="M191.813 179.154C193.955 179.154 195.692 177.418 195.692 175.275C195.692 173.133 193.955 171.396 191.813 171.396C189.671 171.396 187.934 173.133 187.934 175.275C187.934 177.418 189.671 179.154 191.813 179.154Z" stroke="#00DCE6"/>
<path d="M202.238 179.154C204.38 179.154 206.116 177.418 206.116 175.275C206.116 173.133 204.38 171.396 202.238 171.396C200.095 171.396 198.359 173.133 198.359 175.275C198.359 177.418 200.095 179.154 202.238 179.154Z" stroke="#00DCE6"/>
<path d="M172.904 168.488V145.699H200.662V168.488" stroke="#00DCE6"/>
<path d="M178.843 157.093V159.638H188.54V163.154L194.601 157.093L188.54 151.032V154.547H178.843V157.093Z" stroke="#00DCE6"/>
<path d="M201.874 293.581C203.882 293.581 205.51 291.952 205.51 289.944C205.51 287.936 203.882 286.308 201.874 286.308C199.866 286.308 198.238 287.936 198.238 289.944C198.238 291.952 199.866 293.581 201.874 293.581Z" stroke="#00DCE6" stroke-miterlimit="10"/>
<path d="M202.359 274.186C204.903 274.186 206.965 272.124 206.965 269.58C206.965 267.036 204.903 264.974 202.359 264.974C199.815 264.974 197.753 267.036 197.753 269.58C197.753 272.124 199.815 274.186 202.359 274.186Z" stroke="#00DCE6" stroke-miterlimit="10" stroke-linecap="round"/>
<path d="M174.237 304.49C176.781 304.49 178.843 302.427 178.843 299.883C178.843 297.34 176.781 295.277 174.237 295.277C171.693 295.277 169.631 297.34 169.631 299.883C169.631 302.427 171.693 304.49 174.237 304.49Z" stroke="#00DCE6" stroke-miterlimit="10"/>
<path d="M183.692 265.822C185.366 265.822 186.722 264.466 186.722 262.792C186.722 261.118 185.366 259.762 183.692 259.762C182.018 259.762 180.662 261.118 180.662 262.792C180.662 264.466 182.018 265.822 183.692 265.822Z" stroke="#00DCE6" stroke-miterlimit="10"/>
<path d="M183.934 266.064L184.662 271.762" stroke="#00DCE6" stroke-miterlimit="10"/>
<path d="M189.025 301.338C190.23 301.338 191.207 300.361 191.207 299.156C191.207 297.951 190.23 296.975 189.025 296.975C187.82 296.975 186.844 297.951 186.844 299.156C186.844 300.361 187.82 301.338 189.025 301.338Z" stroke="#00DCE6" stroke-miterlimit="10" stroke-linecap="round"/>
<path d="M188.783 296.733L187.813 292.732" stroke="#00DCE6" stroke-miterlimit="10" stroke-linecap="round"/>
<path d="M198.722 272.853L194.601 276.489" stroke="#00DCE6" stroke-miterlimit="10" stroke-linecap="round"/>
<path d="M195.571 286.671L198.359 288.125" stroke="#00DCE6" stroke-miterlimit="10"/>
<path d="M167.692 284.49C169.7 284.49 171.328 282.862 171.328 280.853C171.328 278.845 169.7 277.217 167.692 277.217C165.683 277.217 164.055 278.845 164.055 280.853C164.055 282.862 165.683 284.49 167.692 284.49Z" stroke="#00DCE6" stroke-miterlimit="10" stroke-linecap="round"/>
<path d="M174.601 281.459L171.449 281.217" stroke="#00DCE6" stroke-miterlimit="10" stroke-linecap="round"/>
<path d="M185.752 292.732C191.577 292.732 196.298 288.01 196.298 282.186C196.298 276.362 191.577 271.641 185.752 271.641C179.928 271.641 175.207 276.362 175.207 282.186C175.207 288.01 179.928 292.732 185.752 292.732Z" stroke="#00DCE6" stroke-miterlimit="10" stroke-linecap="round"/>
<path d="M180.055 291.277L176.904 296.247" stroke="#00DCE6" stroke-miterlimit="10"/>
<path d="M183.692 285.096V286.672H183.328L182.116 287.884L180.055 288.853C179.449 289.096 178.964 289.338 178.601 289.702" stroke="#00DCE6" stroke-miterlimit="10"/>
<path d="M190.116 278.308V279.156L190.965 279.52V281.095C190.965 281.338 190.843 281.702 190.601 281.702L190.116 282.308C190.116 282.308 190.116 282.914 190.116 283.156C190.116 284.732 188.056 285.338 187.692 285.58C187.328 285.823 186.722 285.944 186.116 285.944C185.51 285.944 184.783 285.702 184.54 285.58C184.177 285.338 182.116 284.732 182.116 283.156C182.116 282.914 182.116 282.308 182.116 282.308L181.631 281.702C181.389 281.459 181.268 281.338 181.268 281.095V279.52L182.116 279.156V278.308C182.116 276.247 183.813 274.671 185.752 274.671H186.601C188.419 274.55 190.116 276.247 190.116 278.308Z" stroke="#00DCE6" stroke-miterlimit="10"/>
<path d="M183.692 286.672L186.116 288.733" stroke="#00DCE6" stroke-miterlimit="10"/>
<path d="M186.116 288.732L184.055 290.308L182.116 287.884" stroke="#00DCE6" stroke-miterlimit="10"/>
<path d="M188.419 285.096V286.672H188.783L189.995 287.884L192.056 288.853C192.54 288.975 193.025 289.217 193.389 289.459" stroke="#00DCE6" stroke-miterlimit="10"/>
<path d="M188.419 286.672L186.116 288.733" stroke="#00DCE6" stroke-miterlimit="10"/>
<path d="M186.116 288.732L188.056 290.308L190.116 287.884" stroke="#00DCE6" stroke-miterlimit="10"/>
<path d="M201.025 395.158H193.995V407.037H207.935V405.461L201.025 395.158Z" stroke="#00DCE6" stroke-miterlimit="10"/>
<path d="M197.995 416.007C197.995 418.31 199.813 420.128 202.116 420.128C204.419 420.128 206.237 418.31 206.237 416.007C206.237 413.704 204.419 411.886 202.116 411.886C199.813 411.886 197.995 413.704 197.995 416.007Z" stroke="#00DCE6" stroke-miterlimit="10"/>
<path d="M199.571 416.007C199.571 417.341 200.662 418.432 201.995 418.432C203.328 418.432 204.419 417.341 204.419 416.007C204.419 414.674 203.328 413.583 201.995 413.583C200.662 413.583 199.571 414.795 199.571 416.007Z" stroke="#00DCE6" stroke-miterlimit="10"/>
<path d="M168.54 415.886C168.54 418.189 170.358 420.007 172.54 420.128C174.843 420.128 176.661 418.31 176.782 416.128C176.782 413.825 174.964 412.007 172.782 411.886C170.358 411.886 168.54 413.583 168.54 415.886Z" stroke="#00DCE6" stroke-miterlimit="10"/>
<path d="M192.177 393.098H202.359L210.844 405.462V414.916H206.116C205.631 413.219 204.056 412.007 202.116 412.007C200.177 412.007 198.722 413.34 198.116 414.916H192.177H176.661C176.176 413.219 174.601 412.007 172.782 412.007C170.964 412.007 169.267 413.34 168.782 414.916H163.812V393.219L192.177 393.098Z" stroke="#00DCE6" stroke-miterlimit="10"/>
<path d="M170.358 416.007C170.358 417.34 171.328 418.431 172.661 418.431C173.995 418.431 175.086 417.461 175.086 416.128C175.086 414.795 174.116 413.704 172.782 413.704C171.449 413.582 170.358 414.795 170.358 416.007Z" stroke="#00DCE6" stroke-miterlimit="10"/>
<path d="M189.51 396.977H168.54" stroke="#00DCE6" stroke-miterlimit="10"/>
<path d="M189.51 400.977H168.54" stroke="#00DCE6" stroke-miterlimit="10"/>
<path d="M189.51 404.734H168.54" stroke="#00DCE6" stroke-miterlimit="10"/>
<path d="M200.54 664.618H163.934V642.436H172.176" stroke="#00DCE6" stroke-miterlimit="10"/>
<path d="M200.055 642.436H208.298V664.618H200.055" stroke="#00DCE6" stroke-miterlimit="10"/>
<path d="M193.51 663.043V646.558" stroke="#00DCE6" stroke-miterlimit="10"/>
<path d="M178.722 663.043V646.558" stroke="#00DCE6" stroke-miterlimit="10"/>
<path d="M186.116 646.679V660.618" stroke="#00DCE6" stroke-miterlimit="10"/>
<path d="M164.176 659.891H172.419" stroke="#00DCE6" stroke-miterlimit="10"/>
<path d="M199.813 659.891H208.177" stroke="#00DCE6" stroke-miterlimit="10"/>
<path d="M164.055 642.436H161.388V634.193H170.358" stroke="#00DCE6" stroke-miterlimit="10"/>
<path d="M201.752 634.193H210.722V642.436H208.177" stroke="#00DCE6" stroke-miterlimit="10"/>
<path d="M172.54 659.891H179.207" stroke="#00DCE6" stroke-miterlimit="10"/>
<path d="M193.51 659.891H199.813" stroke="#00DCE6" stroke-miterlimit="10"/>
<path d="M195.086 663.042H176.904V664.739H195.086V663.042Z" stroke="#00DCE6" stroke-miterlimit="10"/>
<path d="M193.51 661.467H178.722V663.164H193.51V661.467Z" stroke="#00DCE6" stroke-miterlimit="10"/>
<path d="M184.298 654.072V657.709" stroke="#00DCE6" stroke-miterlimit="10"/>
<path d="M188.298 654.072V657.709" stroke="#00DCE6" stroke-miterlimit="10"/>
<path d="M201.753 629.345H170.479V642.436H201.753V629.345Z" stroke="#00DCE6" stroke-miterlimit="10"/>
<path d="M195.086 642.436H177.752V646.557H195.086V642.436Z" stroke="#00DCE6" stroke-miterlimit="10"/>
<path d="M178.722 634.193C178.722 636.496 176.904 638.315 174.601 638.315C172.297 638.315 170.479 636.496 170.479 634.193" stroke="#00DCE6" stroke-miterlimit="10"/>
<path d="M186.116 634.193C186.116 636.496 184.419 638.315 182.479 638.315C180.419 638.315 178.843 636.496 178.843 634.193" stroke="#00DCE6" stroke-miterlimit="10"/>
<path d="M193.51 634.193C193.51 636.496 191.813 638.315 189.873 638.315C187.934 638.315 186.237 636.496 186.237 634.193" stroke="#00DCE6" stroke-miterlimit="10"/>
<path d="M201.753 634.193C201.753 636.496 199.934 638.315 197.631 638.315C195.328 638.315 193.51 636.496 193.51 634.193" stroke="#00DCE6" stroke-miterlimit="10"/>
<path d="M181.995 527.039V529.948H181.267L179.207 532.009L175.57 533.706C173.631 534.191 172.055 535.645 172.055 536.979V545.464" stroke="#00DCE6" stroke-miterlimit="10"/>
<path d="M181.995 529.948L186.237 533.463" stroke="#00DCE6" stroke-miterlimit="10"/>
<path d="M186.237 533.463L182.722 536.251L179.086 532.009" stroke="#00DCE6" stroke-miterlimit="10"/>
<path d="M190.48 527.039V529.948H191.207L193.268 532.009L196.904 533.706C198.844 534.191 200.419 535.645 200.419 536.979V545.464" stroke="#00DCE6" stroke-miterlimit="10"/>
<path d="M190.48 529.948L186.237 533.463" stroke="#00DCE6" stroke-miterlimit="10"/>
<path d="M186.237 533.463L189.631 536.251L193.268 532.009" stroke="#00DCE6" stroke-miterlimit="10"/>
<path d="M188.298 534.918L187.571 538.433H184.783L184.055 534.918" stroke="#00DCE6" stroke-miterlimit="10"/>
<path d="M188.298 544.737L187.571 538.434H184.783L184.055 544.737" stroke="#00DCE6" stroke-miterlimit="10"/>
<path d="M194.48 518.191V513.342C194.48 508.978 193.268 508.13 188.661 508.13H177.025V511.403C177.025 512.857 178.237 514.675 180.904 514.675C183.57 514.675 188.783 514.675 189.874 514.675C191.813 514.675 192.419 516.372 192.419 517.948C192.419 518.191 192.419 518.069 192.419 518.554H194.359V521.1C194.359 521.585 194.116 521.948 193.752 522.191L192.419 523.16C192.419 523.16 192.419 523.888 192.419 524.13C192.419 526.676 189.146 527.767 188.54 528.009C187.934 528.251 186.964 528.615 185.995 528.615C185.025 528.615 183.934 528.251 183.449 528.009C182.964 527.767 179.57 526.676 179.57 524.13C179.57 523.888 179.57 523.16 179.57 523.16L178.237 522.191C177.873 521.948 177.631 521.585 177.631 521.1V518.554H179.57C179.57 518.069 179.57 517.585 179.57 517.221C179.57 516.13 180.055 515.282 180.904 514.675" stroke="#00DCE6" stroke-miterlimit="10"/>
<path d="M177.752 513.221C177.51 513.463 177.146 513.948 177.146 515.16C177.146 515.645 177.146 516.251 177.146 516.493C177.146 517.584 177.873 518.19 178.479 518.433" stroke="#00DCE6" stroke-miterlimit="10"/>
<path d="M181.995 788.62V765.711L187.207 770.923C188.177 771.893 189.753 772.257 190.48 771.408L191.45 770.438C191.45 770.438 188.177 765.469 187.086 763.893C185.874 762.317 183.813 758.681 180.055 758.681H174.116C171.57 758.681 168.54 761.226 168.54 764.62V770.923C168.54 772.62 170.601 774.56 172.419 774.56" stroke="#00DCE6" stroke-miterlimit="10" stroke-linejoin="round"/>
<path d="M172.298 764.862V788.62" stroke="#00DCE6" stroke-miterlimit="10" stroke-linejoin="round"/>
<path d="M177.631 774.56V788.62" stroke="#00DCE6" stroke-miterlimit="10" stroke-linejoin="round"/>
<path d="M177.631 756.014C179.692 756.014 181.146 754.559 181.146 752.498V750.801C181.146 748.741 179.692 747.286 177.631 747.286C175.571 747.286 174.116 748.741 174.116 750.801V752.498C174.116 754.559 175.571 756.014 177.631 756.014Z" stroke="#00DCE6" stroke-miterlimit="10" stroke-linejoin="round"/>
<path d="M183.813 787.651H202.238V774.56H183.813" stroke="#00DCE6" stroke-miterlimit="10" stroke-linejoin="round"/>
<path d="M195.207 774.56H189.025V778.075H195.207V774.56Z" stroke="#00DCE6" stroke-miterlimit="10" stroke-linejoin="round"/>
<path d="M199.571 784.257H197.874" stroke="#00DCE6" stroke-miterlimit="10" stroke-linejoin="round"/>
<path d="M196.904 784.257H195.207" stroke="#00DCE6" stroke-miterlimit="10" stroke-linejoin="round"/>
</svg>
