<svg width="130" height="130" viewBox="0 0 130 130" fill="none" xmlns="http://www.w3.org/2000/svg">
<path fill-rule="evenodd" clip-rule="evenodd" d="M19.8612 0H130V110.139C116.2 122.49 97.9772 130 78 130C34.9218 130 0 95.0782 0 52C0 32.0228 7.51019 13.7997 19.8612 0Z" fill="#00DCE6" fill-opacity="0.1"/>
<path d="M71.125 36.5635C71.125 28.935 77.3091 22.751 84.9375 22.751C88.5826 22.751 91.8979 24.1629 94.3663 26.4697M63.6875 37.0947H96.625" stroke="#00DCE6"/>
<path d="M84.9375 10L84.9375 22.75" stroke="#00DCE6"/>
<path d="M69 37.626V47.1885" stroke="#00DCE6"/>
<path d="M100.875 40.8115L100.875 48.249" stroke="#00DCE6"/>
<rect x="63.125" y="47.6875" width="43.625" height="28.75" stroke="#00DCE6"/>
<path d="M63.1562 57.2812H52V76.4063H63.6875" stroke="#00DCE6"/>
<path d="M106.719 57.2812H117.875V76.4063H106.188" stroke="#00DCE6"/>
<path d="M72.1875 53.5625V76.9375M72.1875 53.5625V76.9375" stroke="#00DCE6"/>
<path d="M80.6875 53.5625V76.9375M80.6875 53.5625V76.9375" stroke="#00DCE6"/>
<path d="M89.1875 53.5625V76.9375M89.1875 53.5625V76.9375" stroke="#00DCE6"/>
<path d="M97.6875 53.5625V76.9375M97.6875 53.5625V76.9375" stroke="#00DCE6"/>
<circle cx="105.656" cy="29.6553" r="11.7188" stroke="#00DCE6"/>
<path d="M120 29.6572C120 37.5791 113.578 44.001 105.656 44.001" stroke="#00DCE6"/>
<path d="M98.75 28.5947L104.377 34.4385L112.563 25.9385" stroke="#00DCE6"/>
<path d="M84.9375 14.25V10H96.0938L93.9688 12.125L96.0938 14.25H84.9375Z" stroke="#00DCE6"/>
<path d="M71.125 40.8115H100.875" stroke="#00DCE6"/>
<path d="M52 60.999H63.1562" stroke="#00DCE6"/>
<path d="M106.188 60.999H117.344" stroke="#00DCE6"/>
</svg>
