<svg width="130" height="130" viewBox="0 0 130 130" fill="none" xmlns="http://www.w3.org/2000/svg">
<path fill-rule="evenodd" clip-rule="evenodd" d="M19.8612 0H130V110.139C116.2 122.49 97.9772 130 78 130C34.9218 130 0 95.0782 0 52C0 32.0228 7.51019 13.7997 19.8612 0Z" fill="#00DCE6" fill-opacity="0.1"/>
<g clip-path="url(#clip0)">
<path d="M70.8242 51.2786C73.0051 50.2743 75.3007 49.2699 77.5964 48.4665C79.892 47.5625 82.3025 46.7591 84.8277 46.056C93.666 43.5452 103.078 42.1387 107.095 42.1387" stroke="#00DCE6" stroke-miterlimit="10"/>
<path d="M112.835 46.0557C102.519 46.1225 92.7624 47.7029 83.5654 50.6485" stroke="#00DCE6" stroke-miterlimit="10"/>
<path d="M62.1006 42.0391H107.095" stroke="#00DCE6" stroke-miterlimit="10"/>
<path d="M57.7393 46.0557H84.5984" stroke="#00DCE6" stroke-miterlimit="10"/>
<path d="M57.7393 50.0732H73.2349" stroke="#00DCE6" stroke-miterlimit="10"/>
<path d="M84.7129 42.0384V41.7371C84.7129 38.0211 86.4346 34.5058 89.3042 31.8945" stroke="#00DCE6" stroke-miterlimit="10"/>
<path d="M97.8583 30.1802C100.727 27.67 101.599 24.3633 99.8062 22.7944C98.0132 21.2255 94.2341 21.9886 91.3653 24.4988C88.4965 27.009 87.6244 30.3158 89.4174 31.8846C91.2104 33.4535 94.9895 32.6904 97.8583 30.1802Z" stroke="#00DCE6" stroke-miterlimit="10"/>
<path d="M84.7134 42.0384V41.7371C84.7134 38.0211 82.9916 34.5058 80.1221 31.8945" stroke="#00DCE6" stroke-miterlimit="10"/>
<path d="M80.0846 31.9282C81.8776 30.3594 81.0055 27.0526 78.1367 24.5424C75.2679 22.0322 71.4887 21.2691 69.6957 22.838C67.9027 24.4069 68.7748 27.7136 71.6436 30.2238C74.5124 32.734 78.2916 33.4971 80.0846 31.9282Z" stroke="#00DCE6" stroke-miterlimit="10"/>
<path d="M84.7134 23.9601C87.2491 23.9601 89.3047 21.0823 89.3047 17.5323C89.3047 13.9823 87.2491 11.1045 84.7134 11.1045C82.1777 11.1045 80.1221 13.9823 80.1221 17.5323C80.1221 21.0823 82.1777 23.9601 84.7134 23.9601Z" stroke="#00DCE6" stroke-miterlimit="10"/>
<path d="M84.7129 23.96V42.0382" stroke="#00DCE6" stroke-miterlimit="10"/>
<path d="M107.096 32.999V42.0382" stroke="#00DCE6" stroke-miterlimit="10"/>
<path d="M101.356 36.0127V42.0388" stroke="#00DCE6" stroke-miterlimit="10"/>
<path d="M69.2178 32.999V42.0382" stroke="#00DCE6" stroke-miterlimit="10"/>
<path d="M63.4785 36.0127V42.0388" stroke="#00DCE6" stroke-miterlimit="10"/>
<path d="M74.957 38.0215V42.0389" stroke="#00DCE6" stroke-miterlimit="10"/>
<path d="M95.6172 38.0215V42.0389" stroke="#00DCE6" stroke-miterlimit="10"/>
</g>
<path d="M62.3304 42.1396L52 47.6636L84.713 64.7375L118 47.6636L107.096 42.1396" stroke="#00DCE6" stroke-linejoin="bevel"/>
<path d="M52 47.6631V76.287L84.713 93.3609L118 76.287V47.6631" stroke="#00DCE6"/>
<path d="M84.7129 64.2354L84.7129 93.3614" stroke="#00DCE6"/>
<path d="M97.3389 80.8066V67.7501L102.504 58.7109L107.095 62.7283V76.287L97.3389 80.8066Z" stroke="#00DCE6"/>
<path d="M102.824 64.7522C103.762 64.8675 104.465 65.8176 104.281 66.9633C104.098 68.109 103.123 68.853 102.185 68.7378C101.246 68.6225 100.543 67.6723 100.727 66.5266C100.911 65.381 101.886 64.6369 102.824 64.7522Z" stroke="#00DCE6"/>
<path d="M102.504 65.2408V55.6995L83.9092 50.6777" stroke="#00DCE6"/>
<defs>
<clipPath id="clip0">
<rect width="55.0957" height="47.1039" fill="white" transform="translate(57.7393 10)"/>
</clipPath>
</defs>
</svg>
