<svg width="70" height="70" viewBox="0 0 70 70" fill="none" xmlns="http://www.w3.org/2000/svg">
<circle cx="35" cy="35" r="35" fill="#1F2432"/>
<path d="M38.786 36.5456L38.786 36.5455L38.7837 36.5477C38.0767 37.221 37.0229 37.6011 35.6017 37.7051L35.4858 37.7135V37.8297V39.8774H34.5443V37.8648V37.7445L34.4241 37.7399C33.5262 37.7053 32.6633 37.5327 31.8349 37.2221L31.835 37.222L31.8306 37.2205C31.0436 36.9582 30.4481 36.6035 29.9814 36.1877L30.5707 34.95C31.0146 35.3318 31.5501 35.6504 32.2027 35.8792C32.9168 36.1645 33.6294 36.3065 34.408 36.3773L34.5443 36.3896V36.2528V31.8723V31.7738L34.4485 31.7508C33.5784 31.5419 32.8486 31.2986 32.2592 31.0558C31.6845 30.8192 31.211 30.4475 30.838 29.9728C30.4728 29.5079 30.269 28.9057 30.269 28.1226C30.269 27.1754 30.6056 26.3671 31.3166 25.69C32.0243 25.0159 33.0439 24.6365 34.4287 24.5327L34.5443 24.524V24.408V22.3953H35.4858V24.408V24.5269L35.6046 24.5328C36.2968 24.5675 36.9872 24.6712 37.6767 24.8779C38.2987 25.0744 38.8502 25.2991 39.3088 25.6078L38.7441 26.8561C37.7461 26.2614 36.6818 25.9289 35.5836 25.8602L35.4508 25.8519V25.985V30.4005V30.4999L35.5477 30.5223C36.4535 30.7313 37.2177 30.9747 37.806 31.2169C38.384 31.4549 38.8582 31.7938 39.2656 32.269C39.6627 32.7323 39.8663 33.3321 39.8663 34.1151C39.8663 35.0954 39.4962 35.903 38.786 36.5456ZM34.3514 30.2057L34.5093 30.2487V30.0851V26.02V25.8776L34.3681 25.8961C33.5458 26.0033 32.9256 26.2552 32.482 26.6249L32.4817 26.6245L32.4736 26.6325C32.0688 27.0373 31.8413 27.4884 31.8413 28.0876C31.8413 28.6501 32.0685 29.1107 32.5248 29.4162C32.9638 29.7446 33.5765 29.9943 34.3514 30.2057ZM35.6061 32.0664L35.4508 32.0276V32.1877V36.2528V36.3937L35.5907 36.3769C36.4757 36.2707 37.1352 36.0563 37.5832 35.683C38.033 35.3081 38.259 34.817 38.259 34.2202C38.259 33.6227 38.0314 33.1594 37.5356 32.8534C37.1003 32.5636 36.456 32.2789 35.6061 32.0664Z" fill="white" stroke="#1F2432" stroke-width="0.25" stroke-miterlimit="10"/>
<path d="M45.0771 17V36.2779H50.5854L34.7927 52L19 36.2779H24.5083V17" stroke="white" stroke-miterlimit="10"/>
</svg>
