<svg width="70" height="70" viewBox="0 0 70 70" fill="none" xmlns="http://www.w3.org/2000/svg">
<circle cx="35" cy="35" r="35" fill="#1F2432"/>
<path d="M20.8335 19.5H41.6668V17L45.8335 21.1667L41.6668 25.3333V22.8333H26.6668" stroke="white" stroke-miterlimit="10"/>
<path d="M44.1665 34.5H49.9998V32L54.1665 36.1667L49.9998 40.3333V37.8333H44.9998" stroke="white" stroke-miterlimit="10"/>
<path d="M40 46.1667H44.1667V43.6667L48.3333 47.8333L44.1667 52V49.5H27.5" stroke="white" stroke-miterlimit="10"/>
<path d="M15 44.5H25" stroke="white" stroke-miterlimit="10"/>
<path d="M32.5 38.6667C33.8807 38.6667 35 37.5474 35 36.1667C35 34.7859 33.8807 33.6667 32.5 33.6667C31.1193 33.6667 30 34.7859 30 36.1667C30 37.5474 31.1193 38.6667 32.5 38.6667Z" stroke="white" stroke-miterlimit="10"/>
<path d="M42.3565 33.9391L41.3132 31.2232L38.724 31.9907C38.2465 31.2782 37.659 30.6682 36.9924 30.1699L37.894 27.6216L35.2365 26.4391L33.9474 28.8149C33.1315 28.6532 32.284 28.6249 31.4357 28.7474L30.2724 26.3099L27.5565 27.3532L28.3241 29.9424C27.6116 30.4199 27.0015 31.0074 26.5032 31.6741L23.9549 30.7724L22.7724 33.4299L25.1482 34.7191C24.9865 35.5349 24.959 36.3824 25.0807 37.2307L22.644 38.3941L23.6874 41.1099L26.2766 40.3424C26.7532 41.0541 27.3415 41.6649 28.0074 42.1632L27.1057 44.7116L29.7632 45.8941L31.0524 43.5182C31.8682 43.6799 32.7157 43.7082 33.564 43.5857L34.7274 46.0232L37.4432 44.9799L36.6757 42.3907C37.3874 41.9132 37.9982 41.3257 38.4966 40.6591L41.0449 41.5607L42.2274 38.9032L39.8515 37.6141C40.0132 36.7982 40.0416 35.9507 39.9191 35.1024L42.3565 33.9391Z" stroke="white" stroke-miterlimit="10"/>
<path d="M25 27H17.5" stroke="white" stroke-miterlimit="10"/>
</svg>
