<svg width="72" height="60" viewBox="0 0 72 60" fill="none" xmlns="http://www.w3.org/2000/svg">
<rect width="60" height="72" rx="30" transform="matrix(4.37114e-08 1 1 -4.37114e-08 0 0)" fill="#1F2432"/>
<path d="M32.5693 14.9542C33.1089 14.9542 33.5464 14.5168 33.5464 13.9771C33.5464 13.4375 33.1089 13 32.5693 13C32.0296 13 31.5921 13.4375 31.5921 13.9771C31.5921 14.5168 32.0296 14.9542 32.5693 14.9542Z" stroke="#00DCE6" stroke-miterlimit="10"/>
<path d="M44.6945 16.6857C45.2342 16.6857 45.6716 16.2482 45.6716 15.7086C45.6716 15.1689 45.2342 14.7314 44.6945 14.7314C44.1549 14.7314 43.7174 15.1689 43.7174 15.7086C43.7174 16.2482 44.1549 16.6857 44.6945 16.6857Z" stroke="#00DCE6" stroke-miterlimit="10"/>
<path d="M52.0228 26.546C52.5625 26.546 52.9999 26.1086 52.9999 25.5689C52.9999 25.0293 52.5625 24.5918 52.0228 24.5918C51.4832 24.5918 51.0457 25.0293 51.0457 25.5689C51.0457 26.1086 51.4832 26.546 52.0228 26.546Z" stroke="#00DCE6" stroke-miterlimit="10"/>
<path d="M50.2906 38.672C50.8303 38.672 51.2678 38.2345 51.2678 37.6949C51.2678 37.1552 50.8303 36.7178 50.2906 36.7178C49.751 36.7178 49.3135 37.1552 49.3135 37.6949C49.3135 38.2345 49.751 38.672 50.2906 38.672Z" stroke="#00DCE6" stroke-miterlimit="10"/>
<path d="M40.4307 46.0001C40.9703 46.0001 41.4078 45.5627 41.4078 45.023C41.4078 44.4834 40.9703 44.0459 40.4307 44.0459C39.891 44.0459 39.4536 44.4834 39.4536 45.023C39.4536 45.5627 39.891 46.0001 40.4307 46.0001Z" stroke="#00DCE6" stroke-miterlimit="10"/>
<path d="M28.3054 44.2238C28.8451 44.2238 29.2826 43.7863 29.2826 43.2467C29.2826 42.707 28.8451 42.2695 28.3054 42.2695C27.7658 42.2695 27.3283 42.707 27.3283 43.2467C27.3283 43.7863 27.7658 44.2238 28.3054 44.2238Z" stroke="#00DCE6" stroke-miterlimit="10"/>
<path d="M20.9771 34.4083C21.5168 34.4083 21.9542 33.9709 21.9542 33.4312C21.9542 32.8916 21.5168 32.4541 20.9771 32.4541C20.4375 32.4541 20 32.8916 20 33.4312C20 33.9709 20.4375 34.4083 20.9771 34.4083Z" stroke="#00DCE6" stroke-miterlimit="10"/>
<path d="M22.7537 22.2823C23.2933 22.2823 23.7308 21.8449 23.7308 21.3052C23.7308 20.7656 23.2933 20.3281 22.7537 20.3281C22.2141 20.3281 21.7766 20.7656 21.7766 21.3052C21.7766 21.8449 22.2141 22.2823 22.7537 22.2823Z" stroke="#00DCE6" stroke-miterlimit="10"/>
<path d="M35.5005 13.5332H35.5449C37.6768 13.4 39.7643 13.7109 41.6741 14.3771" stroke="#00DCE6" stroke-miterlimit="10"/>
<path d="M47.0929 17.4861C47.1071 17.4787 47.1373 17.5305 47.0929 17.4861ZM47.0929 17.4861C48.7362 18.9518 49.9798 20.6395 50.8681 22.4605" stroke="#00DCE6" stroke-miterlimit="10"/>
<path d="M52.4669 28.501V28.5454C52.6001 30.6773 52.2892 32.7648 51.623 34.6746" stroke="#00DCE6" stroke-miterlimit="10"/>
<path d="M48.4697 40.0928C47.004 41.7361 45.3162 42.9797 43.4952 43.868" stroke="#00DCE6" stroke-miterlimit="10"/>
<path d="M37.4994 45.4669H37.455C35.3231 45.6002 33.2356 45.2893 31.3258 44.623" stroke="#00DCE6" stroke-miterlimit="10"/>
<path d="M25.907 41.4695C25.907 41.4695 25.907 41.4251 25.907 41.4695C24.2637 40.0039 23.0201 38.3161 22.1318 36.4951" stroke="#00DCE6" stroke-miterlimit="10"/>
<path d="M20.533 30.4549V30.4105C20.3998 28.2786 20.7107 26.1911 21.3769 24.2812" stroke="#00DCE6" stroke-miterlimit="10"/>
<path d="M24.5302 18.9071C24.5302 18.9071 24.5302 18.8627 24.5302 18.9071C25.9958 17.2637 27.6836 16.0201 29.5046 15.1318" stroke="#00DCE6" stroke-miterlimit="10"/>
<path d="M33.0136 15.7539L34.2572 20.4174" stroke="#00DCE6" stroke-miterlimit="10"/>
<path d="M43.7618 17.3086L41.319 21.4835" stroke="#00DCE6" stroke-miterlimit="10"/>
<path d="M50.2463 26.0137L45.5828 27.2129" stroke="#00DCE6" stroke-miterlimit="10"/>
<path d="M48.6918 36.7172L44.5168 34.2744" stroke="#00DCE6" stroke-miterlimit="10"/>
<path d="M39.9866 43.2016L38.7874 38.5381" stroke="#00DCE6" stroke-miterlimit="10"/>
<path d="M29.2382 41.6471L31.681 37.5166" stroke="#00DCE6" stroke-miterlimit="10"/>
<path d="M22.7538 32.9423L27.4617 31.7432" stroke="#00DCE6" stroke-miterlimit="10"/>
<path d="M24.3527 22.2383L28.4832 24.6811" stroke="#00DCE6" stroke-miterlimit="10"/>
<path d="M36.0876 36.7188C40.0744 36.7188 43.3064 33.4868 43.3064 29.5C43.3064 25.5132 40.0744 22.2812 36.0876 22.2812C32.1008 22.2812 28.8689 25.5132 28.8689 29.5C28.8689 33.4868 32.1008 36.7188 36.0876 36.7188Z" stroke="#00DCE6" stroke-miterlimit="10"/>
<path d="M30.9314 29.5H41.2439" stroke="#00DCE6" stroke-miterlimit="10"/>
<path d="M36.0876 24.3438V34.6562" stroke="#00DCE6" stroke-miterlimit="10"/>
</svg>
