<svg width="19" height="34" viewBox="0 0 19 34" fill="none" xmlns="http://www.w3.org/2000/svg">
<path d="M7.13653 15.2311C4.16226 14.3176 2 11.549 2 8.27525C2 4.25724 5.25724 1 9.27525 1C13.2933 1 16.5505 4.25724 16.5505 8.27525C16.5505 11.549 14.3882 14.3176 11.414 15.2311" stroke="#00DCE6"/>
<path d="M9.5 9C10.8807 9 12 7.88071 12 6.5C12 5.11929 10.8807 4 9.5 4C8.11929 4 7 5.11929 7 6.5C7 7.88071 8.11929 9 9.5 9Z" stroke="#00DCE6"/>
<path d="M11.3875 14.7695V18.0003L15.0001 20V22M7.1632 14.7695V18.5H3.00011V22M11.3875 20.0003V22.5003L15.0001 25M9.50011 24.5L11.3875 26L10.0001 28L12.0001 29.5L9.50011 33L7.1632 31.0003V25.8685V21.7366" stroke="#00DCE6"/>
<circle cx="2.5" cy="23.5" r="1.5" stroke="#00DCE6"/>
<circle cx="16.5" cy="25.5" r="1.5" stroke="#00DCE6"/>
</svg>
