<svg width="130" height="130" viewBox="0 0 130 130" fill="none" xmlns="http://www.w3.org/2000/svg">
<path fill-rule="evenodd" clip-rule="evenodd" d="M19.8612 0H130V110.139C116.2 122.49 97.9772 130 78 130C34.9218 130 0 95.0782 0 52C0 32.0228 7.51019 13.7997 19.8612 0Z" fill="#00DCE6" fill-opacity="0.1"/>
<path d="M43.5146 33.2706V19.4336L55.101 10.628L66.6873 19.4336V33.2706L55.101 42.1751L43.5146 33.2706Z" stroke="#00DCE6"/>
<path d="M55.1006 28.1084V41.7556" stroke="#00DCE6"/>
<path d="M43.54 19.4482L55.1009 28.109L66.6617 19.4482" stroke="#00DCE6"/>
<path d="M94.1621 33.2706V19.4336L105.748 10.628L117.335 19.4336V33.2706L105.748 42.1751L94.1621 33.2706Z" stroke="#00DCE6"/>
<path d="M105.748 28.1084V41.7556" stroke="#00DCE6"/>
<path d="M94.1875 19.4482L105.748 28.109L117.309 19.4482" stroke="#00DCE6"/>
<path d="M49.0576 37.626L41 44.2447L65.1727 62.9497" stroke="#00DCE6"/>
<path d="M111.503 37.626L119.849 44.2447L95.676 64.3886" stroke="#00DCE6"/>
<path d="M66.8994 25.8275L79.8491 15.4678L93.9498 26.403" stroke="#00DCE6" stroke-dasharray="3 3"/>
<rect x="65.3848" y="38.7012" width="30.0791" height="50.7986" stroke="#00DCE6"/>
<path d="M65.1729 83.3809H95.6764" stroke="#00DCE6"/>
<rect x="78.1221" y="85.9717" width="4.60432" height="0.57554" fill="#00DCE6"/>
<rect x="77.5469" y="41.0791" width="5.7554" height="0.57554" fill="#00DCE6"/>
</svg>
