<svg width="130" height="130" viewBox="0 0 130 130" fill="none" xmlns="http://www.w3.org/2000/svg">
<path fill-rule="evenodd" clip-rule="evenodd" d="M19.8612 0H130V110.139C116.2 122.49 97.9772 130 78 130C34.9218 130 0 95.0782 0 52C0 32.0228 7.51019 13.7997 19.8612 0Z" fill="#00DCE6" fill-opacity="0.1"/>
<path d="M73.5684 37.3516H108.327" stroke="#00DCE6" stroke-miterlimit="10"/>
<path d="M73.5684 30.1943H108.327" stroke="#00DCE6" stroke-miterlimit="10"/>
<path d="M73.5684 44.5078H108.327" stroke="#00DCE6" stroke-miterlimit="10"/>
<path d="M73.5684 51.7666H84.8137" stroke="#00DCE6" stroke-miterlimit="10"/>
<path d="M80.8809 81.5786H64C64 56.669 64 42.7032 64 17.7937L72.7572 10H120V31.7402V73.7849V81.5786H110.146" stroke="#00DCE6" stroke-miterlimit="10"/>
<path d="M83.9587 89.5788H56C56 64.6693 56 50.7035 56 25.7939" stroke="#00DCE6" stroke-miterlimit="10"/>
<path d="M76.9414 14.3496V22.1191H69.1719" stroke="#00DCE6" stroke-miterlimit="10"/>
<path d="M91.9606 89.601L97.3465 90L97.6457 85.811C99.7402 85.6115 101.735 84.9134 103.53 83.8163L106.323 87.0079L110.412 83.5171L107.619 80.3255C108.916 78.7297 109.814 76.8346 110.412 74.7402L114.601 75.0394L115 69.6535L110.811 69.3543C110.612 67.2598 109.913 65.2651 108.816 63.4698L112.008 60.6772L108.517 56.5879L105.325 59.3806C103.73 58.084 101.835 57.1864 99.7402 56.5879L100.039 52.399L94.6535 52L94.2546 56.189C92.1601 56.3885 90.1654 57.0866 88.3701 58.1837L85.5774 54.9921L81.5879 58.5827L84.3806 61.7743C83.084 63.3701 82.1864 65.2651 81.5879 67.3596L77.399 67.0604L77 72.4462L81.189 72.7454C81.3885 74.8399 82.0866 76.8346 83.1837 78.6299L79.9921 81.4226L83.4829 85.5118L86.6745 82.7192C88.2703 84.0157 90.1654 84.9134 92.2598 85.5118L91.9606 89.601ZM86.3753 70.3517C86.7743 65.0656 91.3622 61.0761 96.6483 61.3753C101.934 61.6745 105.924 66.3622 105.625 71.6483C105.226 76.9344 100.638 80.9239 95.3517 80.6247C89.9659 80.2257 85.9764 75.6378 86.3753 70.3517Z" stroke="#00DCE6" stroke-miterlimit="10"/>
</svg>
