<svg width="130" height="130" viewBox="0 0 130 130" fill="none" xmlns="http://www.w3.org/2000/svg">
<path fill-rule="evenodd" clip-rule="evenodd" d="M19.8612 0H130V110.139C116.2 122.49 97.9772 130 78 130C34.9218 130 0 95.0782 0 52C0 32.0228 7.51019 13.7997 19.8612 0Z" fill="#00DCE6" fill-opacity="0.1"/>
<path d="M48.7883 32.6475C45.8926 32.6475 42.3535 34.5757 42.3535 38.4319C42.3535 42.9309 42.3535 77.6805 42.3535 81.2154C42.3535 84.7503 44.9274 86.9998 48.7883 86.9998C53.2926 86.9998 98.3753 86.9998 101.914 86.9998C105.454 86.9998 107.706 84.7503 107.706 81.2154C107.706 78.3875 107.706 71.2491 107.706 68.3569M107.706 51.9374C107.706 48.7239 107.706 40.7457 107.706 38.4319C107.706 35.2184 105.775 32.6476 101.914 32.6475C98.0536 32.6474 84.4998 32.6475 84.4998 32.6475" stroke="#00DCE6"/>
<path d="M100.588 86.9998C105.118 86.9998 104.794 86.9998 108.353 86.9998C111.912 86.9998 114.176 84.1459 114.176 80.6054C114.176 77.773 114.176 70.6009 114.176 67.7041M114.176 51.9432C114.176 48.7246 114.176 40.7585 114.176 38.4411C114.176 35.2225 112.235 32.6476 108.353 32.6475C104.471 32.6474 98.3237 32.6475 96.7061 32.6475" stroke="#00DCE6"/>
<rect x="92.0293" y="52.2344" width="27.4703" height="15.8233" rx="5.5" stroke="#00DCE6"/>
<circle cx="100.588" cy="60.1465" r="4.02936" stroke="#00DCE6"/>
<path d="M60 75L60 14" stroke="#00DCE6"/>
<path d="M55 19L60 14L65 19" stroke="#00DCE6"/>
<path d="M74 14L74 75" stroke="#00DCE6"/>
<path d="M79 70L74 75L69 70" stroke="#00DCE6"/>
<path d="M55 32V51" stroke="#00DCE6"/>
<path d="M79 32V51" stroke="#00DCE6"/>
</svg>
