<svg width="130" height="130" viewBox="0 0 130 130" fill="none" xmlns="http://www.w3.org/2000/svg">
<path fill-rule="evenodd" clip-rule="evenodd" d="M19.591 0H130V109.896C116.168 122.391 97.8376 130 77.7297 130C36.8539 130 3.32186 98.5577 0 58.5397V45.4603C1.44451 28.0585 8.60158 12.2783 19.591 0Z" fill="#00DCE6" fill-opacity="0.1"/>
<path d="M87.5605 15.1221C103.99 17.5296 116.585 31.3346 116.585 48.0044C116.585 54.0614 114.922 59.7411 112.014 64.6343" stroke="#00DCE6"/>
<path d="M119.923 62.1697L112.217 64.3465L110.188 57.2324" stroke="#00DCE6"/>
<path d="M52.3497 61.2196C46.2762 45.9225 52.2541 28.1205 67.0762 19.6536C72.4618 16.5763 78.3442 15.117 84.1463 15.1221" stroke="#00DCE6"/>
<path d="M75.6094 10L84.146 15.4116L78.0869 21.9512" stroke="#00DCE6"/>
<path d="M108.048 68.8756C97.9919 81.8658 79.9535 85.6843 65.5563 77.1272C60.325 74.0171 56.2262 69.6608 53.4141 64.6338" stroke="#00DCE6"/>
<path d="M51.707 73.1704L52.9763 64.6338L61.9509 65.6693" stroke="#00DCE6"/>
<path d="M68 57.2599V38.7691L83.3885 27L98.777 38.7691V57.2538L83.3885 69.1521L68 57.2599Z" stroke="#00DCE6"/>
<path d="M83.3887 50.3535V69.3183" stroke="#00DCE6"/>
<path d="M68.0801 38.8174L83.3885 50.3526L98.697 38.8174" stroke="#00DCE6"/>
</svg>
