<svg width="130" height="130" viewBox="0 0 130 130" fill="none" xmlns="http://www.w3.org/2000/svg">
<path fill-rule="evenodd" clip-rule="evenodd" d="M19.591 0H130V109.896C116.168 122.391 97.8376 130 77.7297 130C36.8539 130 3.32186 98.5577 0 58.5397V45.4603C1.44451 28.0585 8.60158 12.2783 19.591 0Z" fill="#00DCE6" fill-opacity="0.1"/>
<path d="M63 21.1111C62.1429 20.6937 60.842 19.9113 59.3888 19.6155V18.58C60.5778 18.0622 61.3704 16.7308 61.3704 15.1776V13.6983C61.3704 11.6272 59.9833 10 58.0677 10C56.1522 10 54.765 11.6272 54.765 13.6983V15.1776C54.765 16.7308 55.5577 18.0622 56.7466 18.58V19.6155C55.6074 19.8117 53.8012 20.6322 53 21.1111" stroke="#00DCE6" stroke-miterlimit="10"/>
<path d="M54.5387 30.5537C53.7973 29.7296 51.1713 29.2668 50.6226 29.1884V28.0912C52.0336 27.5426 52.9742 26.1319 52.9742 24.4861V22.9186C52.9742 20.7242 51.3281 19 49.0549 19C46.7816 19 45.1355 20.7242 45.1355 22.9186V24.4861C45.1355 26.1319 46.0761 27.5426 47.4871 28.0912V29.1884C44.43 29.6586 42 30.7559 42 33.107V43H59" stroke="#00DCE6" stroke-miterlimit="10"/>
<path d="M60.9613 30.5537C61.7027 29.7296 64.3287 29.2668 64.8774 29.1884V28.0912C63.4664 27.5426 62.5258 26.1319 62.5258 24.4861V22.9186C62.5258 20.7242 64.1719 19 66.4451 19C68.7184 19 70.3645 20.7242 70.3645 22.9186V24.4861C70.3645 26.1319 69.4239 27.5426 68.0129 28.0912V29.1884C71.07 29.6586 73.5 30.7559 73.5 33.107V43H59" stroke="#00DCE6" stroke-miterlimit="10"/>
<path d="M66.6113 72.362V55.0728L80.9998 44.0742L95.3883 55.0728V72.3562L80.9998 83.4814L66.6113 72.362Z" stroke="#00DCE6"/>
<path d="M81 65.9053V83.6376" stroke="#00DCE6"/>
<path d="M66.6855 55.1191L80.9992 65.9048L95.3129 55.1191" stroke="#00DCE6"/>
<path d="M41.5752 42.4863L66.3234 61.7669L66.6112 62.0029" stroke="#00DCE6"/>
<path d="M116 39L120.425 42.4859L95.3887 62.4571" stroke="#00DCE6"/>
<path d="M70.0645 21.4788L80.4242 13.709L93.4998 23" stroke="#00DCE6"/>
<path d="M99.1397 23.2128V18.9374C99.1397 16.5688 101.248 14.6478 103.617 14.6478C105.985 14.6478 108.093 16.5769 108.093 18.9374V23.2128H112.977V19.1816C112.977 14.1187 108.679 10 103.617 10C98.5536 10 94.2559 14.1187 94.2559 19.1816V23.2128H99.1397Z" stroke="#00DCE6" stroke-miterlimit="10"/>
<path d="M91 24.8408V40.3722C91 41.2675 91.7326 42.0001 92.6279 42.0001H114.605C115.501 42.0001 116.233 41.2675 116.233 40.3722V24.8408C116.233 23.9455 115.501 23.2129 114.605 23.2129H92.6279C91.7326 23.2129 91 23.9455 91 24.8408Z" stroke="#00DCE6" stroke-miterlimit="10"/>
<path d="M105.235 36.2895V32.9016C106.121 32.3879 106.724 31.4348 106.724 30.3328C106.724 28.4565 104.989 26.9822 103.031 27.4364C101.974 27.6821 101.118 28.531 100.857 29.5808C100.514 30.9881 101.17 32.2613 102.257 32.8942V36.282C102.257 37.1011 102.927 37.7712 103.746 37.7712C104.572 37.7786 105.235 37.1085 105.235 36.2895Z" stroke="#00DCE6" stroke-miterlimit="10"/>
</svg>
