<svg width="724" height="206" viewBox="0 0 724 206" fill="none" xmlns="http://www.w3.org/2000/svg">
<path d="M159.692 78C164.11 78 167.692 74.4183 167.692 70C167.692 65.5817 164.11 62 159.692 62C155.274 62 151.692 65.5817 151.692 70C151.692 74.4183 155.274 78 159.692 78Z" fill="#00DCE6" fill-opacity="0.2"/>
<path d="M159.692 73.9924C161.901 73.9924 163.692 72.2032 163.692 69.9962C163.692 67.7892 161.901 66 159.692 66C157.483 66 155.692 67.7892 155.692 69.9962C155.692 72.2032 157.483 73.9924 159.692 73.9924Z" fill="#00DCE6"/>
<path d="M159.692 123L159.692 70.3848" stroke="#00DCE6" stroke-miterlimit="16" stroke-dasharray="1 1"/>
<path d="M284.924 78C289.343 78 292.924 74.4183 292.924 70C292.924 65.5817 289.343 62 284.924 62C280.506 62 276.924 65.5817 276.924 70C276.924 74.4183 280.506 78 284.924 78Z" fill="#00DCE6" fill-opacity="0.2"/>
<path d="M284.924 73.9924C287.133 73.9924 288.924 72.2032 288.924 69.9962C288.924 67.7892 287.133 66 284.924 66C282.715 66 280.924 67.7892 280.924 69.9962C280.924 72.2032 282.715 73.9924 284.924 73.9924Z" fill="#00DCE6"/>
<path d="M284.924 123L284.924 70.3848" stroke="#00DCE6" stroke-miterlimit="16" stroke-dasharray="1 1"/>
<path d="M411.135 78C415.554 78 419.135 74.4183 419.135 70C419.135 65.5817 415.554 62 411.135 62C406.717 62 403.135 65.5817 403.135 70C403.135 74.4183 406.717 78 411.135 78Z" fill="#00DCE6" fill-opacity="0.2"/>
<path d="M411.135 73.9924C413.344 73.9924 415.135 72.2032 415.135 69.9962C415.135 67.7892 413.344 66 411.135 66C408.926 66 407.135 67.7892 407.135 69.9962C407.135 72.2032 408.926 73.9924 411.135 73.9924Z" fill="#00DCE6"/>
<path d="M411.135 123L411.135 70.3848" stroke="#00DCE6" stroke-miterlimit="16" stroke-dasharray="1 1"/>
<path d="M537.346 78C541.764 78 545.346 74.4183 545.346 70C545.346 65.5817 541.764 62 537.346 62C532.927 62 529.346 65.5817 529.346 70C529.346 74.4183 532.927 78 537.346 78Z" fill="#00DCE6" fill-opacity="0.2"/>
<path d="M537.346 73.9924C539.555 73.9924 541.346 72.2032 541.346 69.9962C541.346 67.7892 539.555 66 537.346 66C535.137 66 533.346 67.7892 533.346 69.9962C533.346 72.2032 535.137 73.9924 537.346 73.9924Z" fill="#00DCE6"/>
<path d="M537.346 123L537.346 70.3848" stroke="#00DCE6" stroke-miterlimit="16" stroke-dasharray="1 1"/>
<path d="M35 98C51.5685 98 65 84.5685 65 68C65 51.4315 51.5685 38 35 38C18.4315 38 5 51.4315 5 68C5 84.5685 18.4315 98 35 98Z" fill="#00DCE6" fill-opacity="0.2"/>
<path d="M35 93C48.8071 93 60 81.8071 60 68C60 54.1929 48.8071 43 35 43C21.1929 43 10 54.1929 10 68C10 81.8071 21.1929 93 35 93Z" fill="#00DCE6"/>
<path d="M24 81V55H45V81H24Z" stroke="white"/>
<path d="M24 62H45" stroke="white"/>
<path d="M24 68H45" stroke="white"/>
<path d="M24 74H45" stroke="white"/>
<rect x="26" y="58" width="2" height="2" fill="white"/>
<rect x="26" y="64" width="2" height="2" fill="white"/>
<rect x="26" y="70" width="2" height="2" fill="white"/>
<rect x="26" y="76" width="2" height="2" fill="white"/>
<path d="M661 98C677.569 98 691 84.5685 691 68C691 51.4315 677.569 38 661 38C644.431 38 631 51.4315 631 68C631 84.5685 644.431 98 661 98Z" fill="#00DCE6" fill-opacity="0.2"/>
<path d="M661 93C674.807 93 686 81.8071 686 68C686 54.1929 674.807 43 661 43C647.193 43 636 54.1929 636 68C636 81.8071 647.193 93 661 93Z" fill="#00DCE6"/>
<path d="M650 82V54H672V82H650Z" stroke="white"/>
<path d="M660.333 69.6667L660.333 73H663.667V69.6667H667V66.3333L663.667 66.3333V63H660.333L660.333 66.3333L657 66.3333V69.6667H660.333Z" stroke="white"/>
<path d="M654 82L654 54" stroke="white"/>
<path d="M35 163C48.8071 163 60 151.807 60 138C60 124.193 48.8071 113 35 113C21.1929 113 10 124.193 10 138C10 151.807 21.1929 163 35 163Z" fill="#353A47"/>
<path d="M32 143L38 143" stroke="white"/>
<path d="M32 132L38 132" stroke="white"/>
<path d="M35 140L35 146" stroke="white"/>
<path d="M32.0462 136.286V126H38.5077V136.286L46.0548 148.474C46.4673 149.14 45.9881 150 45.2046 150H24.8576C24.0611 150 23.5843 149.114 24.0228 148.449L32.0462 136.286Z" stroke="white"/>
<path d="M159.016 163C172.823 163 184.016 151.807 184.016 138C184.016 124.193 172.823 113 159.016 113C145.209 113 134.016 124.193 134.016 138C134.016 151.807 145.209 163 159.016 163Z" fill="#353A47"/>
<path d="M162.016 147L162.016 130" stroke="white"/>
<path d="M149.016 147L149.016 130" stroke="white"/>
<path d="M157.016 147L157.016 130" stroke="white"/>
<path d="M166.016 147L166.016 130" stroke="white"/>
<path d="M164.016 147L164.016 130" stroke="white"/>
<path d="M168.016 147L168.016 130" stroke="white"/>
<path d="M172.016 130V147" stroke="white" stroke-width="1.5"/>
<path d="M170.016 130V147" stroke="white" stroke-width="1.5"/>
<path d="M160.016 130V147" stroke="white" stroke-width="1.5"/>
<path d="M154.016 130V147" stroke="white" stroke-width="1.5"/>
<path d="M151.016 130V147" stroke="white" stroke-width="1.5"/>
<path d="M146.016 130V147" stroke="white" stroke-width="1.5"/>
<path d="M284.6 163C298.407 163 309.6 151.807 309.6 138C309.6 124.193 298.407 113 284.6 113C270.792 113 259.6 124.193 259.6 138C259.6 151.807 270.792 163 284.6 163Z" fill="#353A47"/>
<path d="M277.6 138.612C277.6 136.63 276.053 135 274.121 135C272.189 135 270.6 136.586 270.6 138.568C270.6 139.141 270.728 139.67 270.943 140.198C271.33 140.991 272.833 143.238 273.692 144.471L274.035 145L274.379 144.515C275.281 143.282 276.827 141.035 277.213 140.286C277.471 139.714 277.6 139.185 277.6 138.612Z" stroke="white"/>
<path d="M274.1 138C273.823 138 273.6 138.224 273.6 138.5C273.6 138.776 273.823 139 274.1 139C274.376 139 274.6 138.776 274.6 138.5C274.6 138.224 274.376 138 274.1 138Z" stroke="white"/>
<path d="M298.6 138.612C298.6 136.63 297.053 135 295.121 135C293.189 135 291.6 136.586 291.6 138.568C291.6 139.141 291.728 139.67 291.943 140.198C292.33 140.991 293.833 143.238 294.692 144.471L295.035 145L295.379 144.515C296.281 143.282 297.827 141.035 298.213 140.286C298.471 139.714 298.6 139.185 298.6 138.612Z" stroke="white"/>
<path d="M295.1 138C294.823 138 294.6 138.224 294.6 138.5C294.6 138.776 294.823 139 295.1 139C295.376 139 295.6 138.776 295.6 138.5C295.6 138.224 295.376 138 295.1 138Z" stroke="white"/>
<path d="M292.6 133.947C292.6 129.586 289.066 126 284.649 126C280.232 126 276.6 129.489 276.6 133.85C276.6 135.11 276.894 136.273 277.385 137.436C278.269 139.181 281.703 144.123 283.668 146.837L284.452 148L285.237 146.934C287.3 144.22 290.833 139.278 291.716 137.63C292.305 136.37 292.6 135.207 292.6 133.947Z" stroke="white"/>
<path d="M284.6 131C282.942 131 281.6 132.343 281.6 134C281.6 135.657 282.942 137 284.6 137C286.256 137 287.6 135.657 287.6 134C287.6 132.343 286.256 131 284.6 131Z" stroke="white"/>
<path d="M410.845 163C424.652 163 435.845 151.807 435.845 138C435.845 124.193 424.652 113 410.845 113C397.038 113 385.845 124.193 385.845 138C385.845 151.807 397.038 163 410.845 163Z" fill="#353A47"/>
<path d="M414.684 135.29H419.017L421.814 139.129H423.459V145.162H421.265" stroke="white"/>
<path d="M405.926 145H414.459V129H398.459V145H401.659" stroke="white"/>
<path d="M403.459 136.703L408.866 136.703" stroke="white"/>
<path d="M406.163 134L406.163 139.406" stroke="white"/>
<path d="M421.266 145.164C421.266 146.37 420.279 147.357 419.072 147.357C417.866 147.357 416.878 146.37 416.878 145.164C416.878 143.957 417.866 142.97 419.072 142.97C420.279 142.97 421.266 143.957 421.266 145.164Z" stroke="white"/>
<path d="M405.91 145.164C405.91 146.37 404.922 147.357 403.716 147.357C402.509 147.357 401.522 146.37 401.522 145.164C401.522 143.957 402.509 142.97 403.716 142.97C404.922 142.97 405.91 143.957 405.91 145.164Z" stroke="white"/>
<path d="M414.684 145.163H416.878" stroke="white"/>
<path d="M414.449 139.131H421.814" stroke="white"/>
<path d="M536.39 163C550.197 163 561.39 151.807 561.39 138C561.39 124.193 550.197 113 536.39 113C522.583 113 511.39 124.193 511.39 138C511.39 151.807 522.583 163 536.39 163Z" fill="#353A47"/>
<circle cx="536.39" cy="138" r="15" stroke="white"/>
<path d="M533.723 140.667L533.723 146H539.056V140.667H544.39V135.333L539.056 135.333V130H533.723L533.723 135.333L528.39 135.333V140.667H533.723Z" stroke="white"/>
<path d="M661 163C674.807 163 686 151.807 686 138C686 124.193 674.807 113 661 113C647.193 113 636 124.193 636 138C636 151.807 647.193 163 661 163Z" fill="#353A47"/>
<path d="M666.9 134C666.12 133.4 664.92 133.04 663.6 132.8V131.96C664.68 131.54 665.4 130.46 665.4 129.2V128C665.4 126.32 664.14 125 662.4 125C660.66 125 659.4 126.32 659.4 128V129.2C659.4 130.46 660.12 131.54 661.2 131.96V132.8C658.86 133.16 657 134 657 135.8V138.2" stroke="white"/>
<path d="M655.8 134.84C655.44 134.72 655.02 134.66 654.6 134.6V133.76C655.68 133.34 656.4 132.26 656.4 131V129.8C656.4 128.12 655.14 126.8 653.4 126.8C651.66 126.8 650.4 128.12 650.4 129.8V131C650.4 132.26 651.12 133.34 652.2 133.76V134.6C649.86 134.96 648 135.8 648 137.6V144.2" stroke="white"/>
<path d="M675 143V140.6C675 139.16 673.92 139.1 672 138.8V137.6C672.9 137.24 673.2 136.82 673.2 135.8V134.6C673.2 133.22 672.24 132.2 670.8 132.2C669.36 132.2 668.4 133.22 668.4 134.6V135.8C668.4 136.82 668.7 137.24 669.6 137.6V138.8C668.76 138.92 668.4 139.1 667.8 139.4" stroke="white"/>
<path d="M664.2 141.8V136.4H660V141.8H654.6V146H660V151.4H664.2V146H669.6V141.8H664.2Z" stroke="white"/>
<path d="M16.5293 10.3887C16.5293 10.0013 16.3926 9.70508 16.1191 9.5C15.8457 9.29036 15.3535 9.07161 14.6426 8.84375C13.9316 8.61133 13.3688 8.38346 12.9541 8.16016C11.8239 7.54948 11.2588 6.72689 11.2588 5.69238C11.2588 5.15462 11.4092 4.67611 11.71 4.25684C12.0153 3.83301 12.4505 3.5026 13.0156 3.26562C13.5853 3.02865 14.2233 2.91016 14.9297 2.91016C15.6406 2.91016 16.2741 3.04004 16.8301 3.2998C17.3861 3.55501 17.8167 3.91732 18.1221 4.38672C18.432 4.85612 18.5869 5.38932 18.5869 5.98633H16.5361C16.5361 5.5306 16.3926 5.17741 16.1055 4.92676C15.8184 4.67155 15.415 4.54395 14.8955 4.54395C14.3942 4.54395 14.0046 4.65104 13.7266 4.86523C13.4486 5.07487 13.3096 5.35286 13.3096 5.69922C13.3096 6.02279 13.4714 6.29395 13.7949 6.5127C14.123 6.73145 14.6038 6.93652 15.2373 7.12793C16.404 7.47884 17.2539 7.91406 17.7871 8.43359C18.3203 8.95312 18.5869 9.60026 18.5869 10.375C18.5869 11.2363 18.2611 11.9131 17.6094 12.4053C16.9577 12.8929 16.0804 13.1367 14.9775 13.1367C14.2119 13.1367 13.5146 12.9977 12.8857 12.7197C12.2568 12.4372 11.776 12.0521 11.4434 11.5645C11.1152 11.0768 10.9512 10.5117 10.9512 9.86914H13.0088C13.0088 10.9674 13.665 11.5166 14.9775 11.5166C15.4652 11.5166 15.8457 11.4186 16.1191 11.2227C16.3926 11.0221 16.5293 10.7441 16.5293 10.3887ZM22.2168 3.78516V5.60352H23.4814V7.05273H22.2168V10.7441C22.2168 11.0176 22.2692 11.2135 22.374 11.332C22.4788 11.4505 22.6794 11.5098 22.9756 11.5098C23.1943 11.5098 23.388 11.4938 23.5566 11.4619V12.959C23.1693 13.0775 22.7705 13.1367 22.3604 13.1367C20.9749 13.1367 20.2686 12.4372 20.2412 11.0381V7.05273H19.1611V5.60352H20.2412V3.78516H22.2168ZM24.0693 9.2334C24.0693 8.49967 24.2106 7.8457 24.4932 7.27148C24.7757 6.69727 25.1813 6.25293 25.71 5.93848C26.2432 5.62402 26.8607 5.4668 27.5625 5.4668C28.5605 5.4668 29.374 5.77214 30.0029 6.38281C30.6364 6.99349 30.9896 7.82292 31.0625 8.87109L31.0762 9.37695C31.0762 10.5117 30.7594 11.4232 30.126 12.1113C29.4925 12.7949 28.6426 13.1367 27.5762 13.1367C26.5098 13.1367 25.6576 12.7949 25.0195 12.1113C24.3861 11.4277 24.0693 10.498 24.0693 9.32227V9.2334ZM26.0449 9.37695C26.0449 10.0788 26.1771 10.6165 26.4414 10.9902C26.7057 11.3594 27.084 11.5439 27.5762 11.5439C28.0547 11.5439 28.4284 11.3617 28.6973 10.9971C28.9661 10.6279 29.1006 10.04 29.1006 9.2334C29.1006 8.54525 28.9661 8.01204 28.6973 7.63379C28.4284 7.25553 28.0501 7.06641 27.5625 7.06641C27.0794 7.06641 26.7057 7.25553 26.4414 7.63379C26.1771 8.00749 26.0449 8.58854 26.0449 9.37695ZM36.4492 7.45605C36.1803 7.4196 35.9434 7.40137 35.7383 7.40137C34.9909 7.40137 34.501 7.6543 34.2686 8.16016V13H32.293V5.60352H34.1592L34.2139 6.48535C34.6104 5.80632 35.1595 5.4668 35.8613 5.4668C36.0801 5.4668 36.2852 5.49642 36.4766 5.55566L36.4492 7.45605ZM41.4873 13C41.3962 12.8223 41.3301 12.6012 41.2891 12.3369C40.8105 12.8701 40.1885 13.1367 39.4229 13.1367C38.6982 13.1367 38.0967 12.9271 37.6182 12.5078C37.1442 12.0885 36.9072 11.5599 36.9072 10.9219C36.9072 10.138 37.1966 9.53646 37.7754 9.11719C38.3587 8.69792 39.1995 8.486 40.2979 8.48145H41.207V8.05762C41.207 7.71582 41.1182 7.44238 40.9404 7.2373C40.7673 7.03223 40.4915 6.92969 40.1133 6.92969C39.7806 6.92969 39.5186 7.00944 39.3271 7.16895C39.1403 7.32845 39.0469 7.5472 39.0469 7.8252H37.0713C37.0713 7.39681 37.2035 7.00033 37.4678 6.63574C37.7321 6.27116 38.1058 5.98633 38.5889 5.78125C39.0719 5.57161 39.6143 5.4668 40.2158 5.4668C41.1273 5.4668 41.8496 5.69694 42.3828 6.15723C42.9206 6.61296 43.1895 7.25553 43.1895 8.08496V11.291C43.194 11.9928 43.292 12.5238 43.4834 12.8838V13H41.4873ZM39.8535 11.626C40.1452 11.626 40.4141 11.5622 40.6602 11.4346C40.9062 11.3024 41.0885 11.127 41.207 10.9082V9.63672H40.4688C39.4798 9.63672 38.9535 9.97852 38.8896 10.6621L38.8828 10.7783C38.8828 11.0244 38.9694 11.2272 39.1426 11.3867C39.3158 11.5462 39.5527 11.626 39.8535 11.626ZM44.4199 9.24707C44.4199 8.1123 44.6888 7.19857 45.2266 6.50586C45.7689 5.81315 46.498 5.4668 47.4141 5.4668C48.2253 5.4668 48.8564 5.74479 49.3076 6.30078L49.3896 5.60352H51.1807V12.7539C51.1807 13.401 51.0326 13.9639 50.7363 14.4424C50.4447 14.9209 50.0322 15.2855 49.499 15.5361C48.9658 15.7868 48.3415 15.9121 47.626 15.9121C47.0837 15.9121 46.555 15.8027 46.04 15.584C45.5251 15.3698 45.1354 15.0918 44.8711 14.75L45.7461 13.5469C46.2383 14.0983 46.8353 14.374 47.5371 14.374C48.0612 14.374 48.4691 14.2327 48.7607 13.9502C49.0524 13.6722 49.1982 13.2757 49.1982 12.7607V12.3643C48.7425 12.8792 48.1432 13.1367 47.4004 13.1367C46.5117 13.1367 45.7917 12.7904 45.2402 12.0977C44.6934 11.4004 44.4199 10.4775 44.4199 9.3291V9.24707ZM46.3955 9.39062C46.3955 10.0605 46.5299 10.5869 46.7988 10.9697C47.0677 11.348 47.4368 11.5371 47.9062 11.5371C48.5078 11.5371 48.9385 11.3115 49.1982 10.8604V7.75C48.9339 7.29883 48.5078 7.07324 47.9199 7.07324C47.446 7.07324 47.0723 7.26693 46.7988 7.6543C46.5299 8.04167 46.3955 8.62044 46.3955 9.39062ZM56.1094 13.1367C55.0247 13.1367 54.1406 12.804 53.457 12.1387C52.778 11.4733 52.4385 10.5869 52.4385 9.47949V9.28809C52.4385 8.54525 52.582 7.88216 52.8691 7.29883C53.1562 6.71094 53.5618 6.25977 54.0859 5.94531C54.6146 5.6263 55.2161 5.4668 55.8906 5.4668C56.9023 5.4668 57.6976 5.78581 58.2764 6.42383C58.8597 7.06185 59.1514 7.96647 59.1514 9.1377V9.94434H54.4414C54.5052 10.4274 54.6966 10.8148 55.0156 11.1064C55.3392 11.3981 55.7471 11.5439 56.2393 11.5439C57.0003 11.5439 57.5951 11.2682 58.0234 10.7168L58.9941 11.8037C58.6979 12.223 58.2969 12.5511 57.791 12.7881C57.2852 13.0205 56.7246 13.1367 56.1094 13.1367ZM55.8838 7.06641C55.4919 7.06641 55.1729 7.19857 54.9268 7.46289C54.6852 7.72721 54.5303 8.10547 54.4619 8.59766H57.21V8.44043C57.2008 8.00293 57.0824 7.66569 56.8545 7.42871C56.6266 7.18717 56.3031 7.06641 55.8838 7.06641ZM17.4111 26.3887C17.4111 26.0013 17.2744 25.7051 17.001 25.5C16.7275 25.2904 16.2354 25.0716 15.5244 24.8438C14.8135 24.6113 14.2507 24.3835 13.8359 24.1602C12.7057 23.5495 12.1406 22.7269 12.1406 21.6924C12.1406 21.1546 12.291 20.6761 12.5918 20.2568C12.8971 19.833 13.3324 19.5026 13.8975 19.2656C14.4671 19.0286 15.1051 18.9102 15.8115 18.9102C16.5225 18.9102 17.1559 19.04 17.7119 19.2998C18.2679 19.555 18.6986 19.9173 19.0039 20.3867C19.3138 20.8561 19.4688 21.3893 19.4688 21.9863H17.418C17.418 21.5306 17.2744 21.1774 16.9873 20.9268C16.7002 20.6715 16.2969 20.5439 15.7773 20.5439C15.276 20.5439 14.8864 20.651 14.6084 20.8652C14.3304 21.0749 14.1914 21.3529 14.1914 21.6992C14.1914 22.0228 14.3532 22.2939 14.6768 22.5127C15.0049 22.7314 15.4857 22.9365 16.1191 23.1279C17.2858 23.4788 18.1357 23.9141 18.6689 24.4336C19.2021 24.9531 19.4688 25.6003 19.4688 26.375C19.4688 27.2363 19.1429 27.9131 18.4912 28.4053C17.8395 28.8929 16.9622 29.1367 15.8594 29.1367C15.0938 29.1367 14.3965 28.9977 13.7676 28.7197C13.1387 28.4372 12.6579 28.0521 12.3252 27.5645C11.9971 27.0768 11.833 26.5117 11.833 25.8691H13.8906C13.8906 26.9674 14.5469 27.5166 15.8594 27.5166C16.347 27.5166 16.7275 27.4186 17.001 27.2227C17.2744 27.0221 17.4111 26.7441 17.4111 26.3887ZM23.4951 26.2041L24.8623 21.6035H26.9814L24.0078 30.1484L23.8438 30.5381C23.4017 31.5042 22.6725 31.9873 21.6562 31.9873C21.3691 31.9873 21.0775 31.944 20.7812 31.8574V30.3604L21.082 30.3672C21.4557 30.3672 21.7337 30.3102 21.916 30.1963C22.1029 30.0824 22.2487 29.8932 22.3535 29.6289L22.5859 29.0205L19.9951 21.6035H22.1211L23.4951 26.2041ZM31.7666 26.9561C31.7666 26.7145 31.6458 26.5254 31.4043 26.3887C31.1673 26.2474 30.7845 26.1221 30.2559 26.0127C28.4967 25.6436 27.6172 24.8962 27.6172 23.7705C27.6172 23.1143 27.8883 22.5674 28.4307 22.1299C28.9775 21.6878 29.6908 21.4668 30.5703 21.4668C31.5091 21.4668 32.2588 21.6878 32.8193 22.1299C33.3844 22.5719 33.667 23.1462 33.667 23.8525H31.6914C31.6914 23.57 31.6003 23.3376 31.418 23.1553C31.2357 22.9684 30.9508 22.875 30.5635 22.875C30.2308 22.875 29.9733 22.9502 29.791 23.1006C29.6087 23.251 29.5176 23.4424 29.5176 23.6748C29.5176 23.8936 29.6201 24.0713 29.8252 24.208C30.0348 24.3402 30.3857 24.4564 30.8779 24.5566C31.3701 24.6523 31.7848 24.7617 32.1221 24.8848C33.1657 25.2676 33.6875 25.9307 33.6875 26.874C33.6875 27.5485 33.3981 28.0954 32.8193 28.5146C32.2406 28.9294 31.4932 29.1367 30.5771 29.1367C29.9574 29.1367 29.4059 29.0273 28.9229 28.8086C28.4443 28.5853 28.0684 28.2822 27.7949 27.8994C27.5215 27.512 27.3848 27.0951 27.3848 26.6484H29.2578C29.276 26.9993 29.4059 27.2682 29.6475 27.4551C29.889 27.6419 30.2126 27.7354 30.6182 27.7354C30.9964 27.7354 31.2812 27.6647 31.4727 27.5234C31.6686 27.3776 31.7666 27.1885 31.7666 26.9561ZM37.3311 19.7852V21.6035H38.5957V23.0527H37.3311V26.7441C37.3311 27.0176 37.3835 27.2135 37.4883 27.332C37.5931 27.4505 37.7936 27.5098 38.0898 27.5098C38.3086 27.5098 38.5023 27.4938 38.6709 27.4619V28.959C38.2835 29.0775 37.8848 29.1367 37.4746 29.1367C36.0892 29.1367 35.3828 28.4372 35.3555 27.0381V23.0527H34.2754V21.6035H35.3555V19.7852H37.3311ZM43.1006 29.1367C42.016 29.1367 41.1318 28.804 40.4482 28.1387C39.7692 27.4733 39.4297 26.5869 39.4297 25.4795V25.2881C39.4297 24.5452 39.5732 23.8822 39.8604 23.2988C40.1475 22.7109 40.5531 22.2598 41.0771 21.9453C41.6058 21.6263 42.2074 21.4668 42.8818 21.4668C43.8936 21.4668 44.6888 21.7858 45.2676 22.4238C45.8509 23.0618 46.1426 23.9665 46.1426 25.1377V25.9443H41.4326C41.4964 26.4274 41.6878 26.8148 42.0068 27.1064C42.3304 27.3981 42.7383 27.5439 43.2305 27.5439C43.9915 27.5439 44.5863 27.2682 45.0146 26.7168L45.9854 27.8037C45.6891 28.223 45.2881 28.5511 44.7822 28.7881C44.2764 29.0205 43.7158 29.1367 43.1006 29.1367ZM42.875 23.0664C42.4831 23.0664 42.1641 23.1986 41.918 23.4629C41.6764 23.7272 41.5215 24.1055 41.4531 24.5977H44.2012V24.4404C44.1921 24.0029 44.0736 23.6657 43.8457 23.4287C43.6178 23.1872 43.2943 23.0664 42.875 23.0664ZM49.123 21.6035L49.1846 22.4307C49.7087 21.7881 50.4173 21.4668 51.3105 21.4668C52.263 21.4668 52.917 21.8428 53.2725 22.5947C53.792 21.8428 54.5326 21.4668 55.4941 21.4668C56.2962 21.4668 56.8932 21.7015 57.2852 22.1709C57.6771 22.6357 57.873 23.3376 57.873 24.2764V29H55.8906V24.2832C55.8906 23.8639 55.8086 23.5586 55.6445 23.3672C55.4805 23.1712 55.1911 23.0732 54.7764 23.0732C54.1839 23.0732 53.7738 23.3558 53.5459 23.9209L53.5527 29H51.5771V24.29C51.5771 23.8617 51.4928 23.5518 51.3242 23.3604C51.1556 23.1689 50.8685 23.0732 50.4629 23.0732C49.9023 23.0732 49.4967 23.3057 49.2461 23.7705V29H47.2705V21.6035H49.123Z" fill="#1F2432"/>
<path d="M607.516 13H605.465L601.473 6.45117V13H599.422V3.04688H601.473L605.472 9.60938V3.04688H607.516V13ZM613.463 13C613.372 12.8223 613.306 12.6012 613.265 12.3369C612.786 12.8701 612.164 13.1367 611.398 13.1367C610.674 13.1367 610.072 12.9271 609.594 12.5078C609.12 12.0885 608.883 11.5599 608.883 10.9219C608.883 10.138 609.172 9.53646 609.751 9.11719C610.334 8.69792 611.175 8.486 612.273 8.48145H613.183V8.05762C613.183 7.71582 613.094 7.44238 612.916 7.2373C612.743 7.03223 612.467 6.92969 612.089 6.92969C611.756 6.92969 611.494 7.00944 611.303 7.16895C611.116 7.32845 611.022 7.5472 611.022 7.8252H609.047C609.047 7.39681 609.179 7.00033 609.443 6.63574C609.708 6.27116 610.081 5.98633 610.564 5.78125C611.048 5.57161 611.59 5.4668 612.191 5.4668C613.103 5.4668 613.825 5.69694 614.358 6.15723C614.896 6.61296 615.165 7.25553 615.165 8.08496V11.291C615.17 11.9928 615.268 12.5238 615.459 12.8838V13H613.463ZM611.829 11.626C612.121 11.626 612.39 11.5622 612.636 11.4346C612.882 11.3024 613.064 11.127 613.183 10.9082V9.63672H612.444C611.455 9.63672 610.929 9.97852 610.865 10.6621L610.858 10.7783C610.858 11.0244 610.945 11.2272 611.118 11.3867C611.291 11.5462 611.528 11.626 611.829 11.626ZM619.048 3.78516V5.60352H620.312V7.05273H619.048V10.7441C619.048 11.0176 619.1 11.2135 619.205 11.332C619.31 11.4505 619.51 11.5098 619.807 11.5098C620.025 11.5098 620.219 11.4938 620.388 11.4619V12.959C620 13.0775 619.602 13.1367 619.191 13.1367C617.806 13.1367 617.1 12.4372 617.072 11.0381V7.05273H615.992V5.60352H617.072V3.78516H619.048ZM623.498 13H621.516V5.60352H623.498V13ZM621.399 3.68945C621.399 3.39323 621.497 3.14941 621.693 2.95801C621.894 2.7666 622.165 2.6709 622.507 2.6709C622.844 2.6709 623.113 2.7666 623.313 2.95801C623.514 3.14941 623.614 3.39323 623.614 3.68945C623.614 3.99023 623.512 4.23633 623.307 4.42773C623.106 4.61914 622.84 4.71484 622.507 4.71484C622.174 4.71484 621.905 4.61914 621.7 4.42773C621.5 4.23633 621.399 3.99023 621.399 3.68945ZM624.824 9.2334C624.824 8.49967 624.965 7.8457 625.248 7.27148C625.531 6.69727 625.936 6.25293 626.465 5.93848C626.998 5.62402 627.616 5.4668 628.317 5.4668C629.315 5.4668 630.129 5.77214 630.758 6.38281C631.391 6.99349 631.744 7.82292 631.817 8.87109L631.831 9.37695C631.831 10.5117 631.514 11.4232 630.881 12.1113C630.247 12.7949 629.397 13.1367 628.331 13.1367C627.265 13.1367 626.412 12.7949 625.774 12.1113C625.141 11.4277 624.824 10.498 624.824 9.32227V9.2334ZM626.8 9.37695C626.8 10.0788 626.932 10.6165 627.196 10.9902C627.461 11.3594 627.839 11.5439 628.331 11.5439C628.81 11.5439 629.183 11.3617 629.452 10.9971C629.721 10.6279 629.855 10.04 629.855 9.2334C629.855 8.54525 629.721 8.01204 629.452 7.63379C629.183 7.25553 628.805 7.06641 628.317 7.06641C627.834 7.06641 627.461 7.25553 627.196 7.63379C626.932 8.00749 626.8 8.58854 626.8 9.37695ZM634.866 5.60352L634.928 6.45801C635.456 5.7972 636.165 5.4668 637.054 5.4668C637.838 5.4668 638.421 5.69694 638.804 6.15723C639.187 6.61751 639.382 7.30566 639.392 8.22168V13H637.416V8.26953C637.416 7.85026 637.325 7.5472 637.143 7.36035C636.96 7.16895 636.657 7.07324 636.233 7.07324C635.677 7.07324 635.26 7.31022 634.982 7.78418V13H633.007V5.60352H634.866ZM645.182 13C645.09 12.8223 645.024 12.6012 644.983 12.3369C644.505 12.8701 643.883 13.1367 643.117 13.1367C642.393 13.1367 641.791 12.9271 641.312 12.5078C640.839 12.0885 640.602 11.5599 640.602 10.9219C640.602 10.138 640.891 9.53646 641.47 9.11719C642.053 8.69792 642.894 8.486 643.992 8.48145H644.901V8.05762C644.901 7.71582 644.812 7.44238 644.635 7.2373C644.462 7.03223 644.186 6.92969 643.808 6.92969C643.475 6.92969 643.213 7.00944 643.021 7.16895C642.835 7.32845 642.741 7.5472 642.741 7.8252H640.766C640.766 7.39681 640.898 7.00033 641.162 6.63574C641.426 6.27116 641.8 5.98633 642.283 5.78125C642.766 5.57161 643.309 5.4668 643.91 5.4668C644.822 5.4668 645.544 5.69694 646.077 6.15723C646.615 6.61296 646.884 7.25553 646.884 8.08496V11.291C646.888 11.9928 646.986 12.5238 647.178 12.8838V13H645.182ZM643.548 11.626C643.84 11.626 644.108 11.5622 644.354 11.4346C644.601 11.3024 644.783 11.127 644.901 10.9082V9.63672H644.163C643.174 9.63672 642.648 9.97852 642.584 10.6621L642.577 10.7783C642.577 11.0244 642.664 11.2272 642.837 11.3867C643.01 11.5462 643.247 11.626 643.548 11.626ZM650.486 13H648.504V2.5H650.486V13ZM663.837 13H661.786V8.73438H657.787V13H655.736V3.04688H657.787V7.08008H661.786V3.04688H663.837V13ZM668.909 13.1367C667.825 13.1367 666.94 12.804 666.257 12.1387C665.578 11.4733 665.238 10.5869 665.238 9.47949V9.28809C665.238 8.54525 665.382 7.88216 665.669 7.29883C665.956 6.71094 666.362 6.25977 666.886 5.94531C667.414 5.6263 668.016 5.4668 668.69 5.4668C669.702 5.4668 670.497 5.78581 671.076 6.42383C671.66 7.06185 671.951 7.96647 671.951 9.1377V9.94434H667.241C667.305 10.4274 667.496 10.8148 667.815 11.1064C668.139 11.3981 668.547 11.5439 669.039 11.5439C669.8 11.5439 670.395 11.2682 670.823 10.7168L671.794 11.8037C671.498 12.223 671.097 12.5511 670.591 12.7881C670.085 13.0205 669.524 13.1367 668.909 13.1367ZM668.684 7.06641C668.292 7.06641 667.973 7.19857 667.727 7.46289C667.485 7.72721 667.33 8.10547 667.262 8.59766H670.01V8.44043C670.001 8.00293 669.882 7.66569 669.654 7.42871C669.426 7.18717 669.103 7.06641 668.684 7.06641ZM677.365 13C677.274 12.8223 677.208 12.6012 677.167 12.3369C676.688 12.8701 676.066 13.1367 675.301 13.1367C674.576 13.1367 673.975 12.9271 673.496 12.5078C673.022 12.0885 672.785 11.5599 672.785 10.9219C672.785 10.138 673.075 9.53646 673.653 9.11719C674.237 8.69792 675.077 8.486 676.176 8.48145H677.085V8.05762C677.085 7.71582 676.996 7.44238 676.818 7.2373C676.645 7.03223 676.369 6.92969 675.991 6.92969C675.659 6.92969 675.396 7.00944 675.205 7.16895C675.018 7.32845 674.925 7.5472 674.925 7.8252H672.949C672.949 7.39681 673.081 7.00033 673.346 6.63574C673.61 6.27116 673.984 5.98633 674.467 5.78125C674.95 5.57161 675.492 5.4668 676.094 5.4668C677.005 5.4668 677.728 5.69694 678.261 6.15723C678.799 6.61296 679.067 7.25553 679.067 8.08496V11.291C679.072 11.9928 679.17 12.5238 679.361 12.8838V13H677.365ZM675.731 11.626C676.023 11.626 676.292 11.5622 676.538 11.4346C676.784 11.3024 676.966 11.127 677.085 10.9082V9.63672H676.347C675.358 9.63672 674.831 9.97852 674.768 10.6621L674.761 10.7783C674.761 11.0244 674.847 11.2272 675.021 11.3867C675.194 11.5462 675.431 11.626 675.731 11.626ZM682.67 13H680.688V2.5H682.67V13ZM686.669 3.78516V5.60352H687.934V7.05273H686.669V10.7441C686.669 11.0176 686.721 11.2135 686.826 11.332C686.931 11.4505 687.132 11.5098 687.428 11.5098C687.646 11.5098 687.84 11.4938 688.009 11.4619V12.959C687.621 13.0775 687.223 13.1367 686.812 13.1367C685.427 13.1367 684.721 12.4372 684.693 11.0381V7.05273H683.613V5.60352H684.693V3.78516H686.669ZM690.962 6.41016C691.486 5.78125 692.145 5.4668 692.938 5.4668C694.542 5.4668 695.355 6.39876 695.378 8.2627V13H693.402V8.31738C693.402 7.89355 693.311 7.58138 693.129 7.38086C692.947 7.17578 692.644 7.07324 692.22 7.07324C691.641 7.07324 691.222 7.29655 690.962 7.74316V13H688.986V2.5H690.962V6.41016ZM699.944 11.5439C700.309 11.5439 700.605 11.4437 700.833 11.2432C701.061 11.0426 701.179 10.776 701.188 10.4434H703.041C703.036 10.9447 702.9 11.4049 702.631 11.8242C702.362 12.2389 701.993 12.5625 701.523 12.7949C701.059 13.0228 700.544 13.1367 699.979 13.1367C698.921 13.1367 698.087 12.8018 697.477 12.1318C696.866 11.4574 696.561 10.5277 696.561 9.34277V9.21289C696.561 8.07357 696.864 7.16439 697.47 6.48535C698.076 5.80632 698.908 5.4668 699.965 5.4668C700.89 5.4668 701.631 5.73112 702.187 6.25977C702.747 6.78385 703.032 7.4834 703.041 8.3584H701.188C701.179 7.97559 701.061 7.66569 700.833 7.42871C700.605 7.18717 700.304 7.06641 699.931 7.06641C699.47 7.06641 699.122 7.23503 698.885 7.57227C698.652 7.90495 698.536 8.44727 698.536 9.19922V9.4043C698.536 10.1654 698.652 10.7122 698.885 11.0449C699.117 11.3776 699.47 11.5439 699.944 11.5439ZM708.455 13C708.364 12.8223 708.298 12.6012 708.257 12.3369C707.778 12.8701 707.156 13.1367 706.391 13.1367C705.666 13.1367 705.064 12.9271 704.586 12.5078C704.112 12.0885 703.875 11.5599 703.875 10.9219C703.875 10.138 704.164 9.53646 704.743 9.11719C705.326 8.69792 706.167 8.486 707.266 8.48145H708.175V8.05762C708.175 7.71582 708.086 7.44238 707.908 7.2373C707.735 7.03223 707.459 6.92969 707.081 6.92969C706.748 6.92969 706.486 7.00944 706.295 7.16895C706.108 7.32845 706.015 7.5472 706.015 7.8252H704.039C704.039 7.39681 704.171 7.00033 704.436 6.63574C704.7 6.27116 705.074 5.98633 705.557 5.78125C706.04 5.57161 706.582 5.4668 707.184 5.4668C708.095 5.4668 708.817 5.69694 709.351 6.15723C709.888 6.61296 710.157 7.25553 710.157 8.08496V11.291C710.162 11.9928 710.26 12.5238 710.451 12.8838V13H708.455ZM706.821 11.626C707.113 11.626 707.382 11.5622 707.628 11.4346C707.874 11.3024 708.056 11.127 708.175 10.9082V9.63672H707.437C706.448 9.63672 705.921 9.97852 705.857 10.6621L705.851 10.7783C705.851 11.0244 705.937 11.2272 706.11 11.3867C706.284 11.5462 706.521 11.626 706.821 11.626ZM715.831 7.45605C715.562 7.4196 715.325 7.40137 715.12 7.40137C714.373 7.40137 713.883 7.6543 713.65 8.16016V13H711.675V5.60352H713.541L713.596 6.48535C713.992 5.80632 714.541 5.4668 715.243 5.4668C715.462 5.4668 715.667 5.49642 715.858 5.55566L715.831 7.45605ZM720.056 13.1367C718.971 13.1367 718.087 12.804 717.403 12.1387C716.724 11.4733 716.385 10.5869 716.385 9.47949V9.28809C716.385 8.54525 716.528 7.88216 716.815 7.29883C717.103 6.71094 717.508 6.25977 718.032 5.94531C718.561 5.6263 719.162 5.4668 719.837 5.4668C720.849 5.4668 721.644 5.78581 722.223 6.42383C722.806 7.06185 723.098 7.96647 723.098 9.1377V9.94434H718.388C718.451 10.4274 718.643 10.8148 718.962 11.1064C719.285 11.3981 719.693 11.5439 720.186 11.5439C720.947 11.5439 721.541 11.2682 721.97 10.7168L722.94 11.8037C722.644 12.223 722.243 12.5511 721.737 12.7881C721.231 13.0205 720.671 13.1367 720.056 13.1367ZM719.83 7.06641C719.438 7.06641 719.119 7.19857 718.873 7.46289C718.632 7.72721 718.477 8.10547 718.408 8.59766H721.156V8.44043C721.147 8.00293 721.029 7.66569 720.801 7.42871C720.573 7.18717 720.249 7.06641 719.83 7.06641ZM638.571 26.3887C638.571 26.0013 638.435 25.7051 638.161 25.5C637.888 25.2904 637.396 25.0716 636.685 24.8438C635.974 24.6113 635.411 24.3835 634.996 24.1602C633.866 23.5495 633.301 22.7269 633.301 21.6924C633.301 21.1546 633.451 20.6761 633.752 20.2568C634.057 19.833 634.493 19.5026 635.058 19.2656C635.627 19.0286 636.265 18.9102 636.972 18.9102C637.683 18.9102 638.316 19.04 638.872 19.2998C639.428 19.555 639.859 19.9173 640.164 20.3867C640.474 20.8561 640.629 21.3893 640.629 21.9863H638.578C638.578 21.5306 638.435 21.1774 638.147 20.9268C637.86 20.6715 637.457 20.5439 636.938 20.5439C636.436 20.5439 636.047 20.651 635.769 20.8652C635.491 21.0749 635.352 21.3529 635.352 21.6992C635.352 22.0228 635.513 22.2939 635.837 22.5127C636.165 22.7314 636.646 22.9365 637.279 23.1279C638.446 23.4788 639.296 23.9141 639.829 24.4336C640.362 24.9531 640.629 25.6003 640.629 26.375C640.629 27.2363 640.303 27.9131 639.651 28.4053C639 28.8929 638.122 29.1367 637.02 29.1367C636.254 29.1367 635.557 28.9977 634.928 28.7197C634.299 28.4372 633.818 28.0521 633.485 27.5645C633.157 27.0768 632.993 26.5117 632.993 25.8691H635.051C635.051 26.9674 635.707 27.5166 637.02 27.5166C637.507 27.5166 637.888 27.4186 638.161 27.2227C638.435 27.0221 638.571 26.7441 638.571 26.3887ZM644.259 19.7852V21.6035H645.523V23.0527H644.259V26.7441C644.259 27.0176 644.311 27.2135 644.416 27.332C644.521 27.4505 644.721 27.5098 645.018 27.5098C645.236 27.5098 645.43 27.4938 645.599 27.4619V28.959C645.211 29.0775 644.812 29.1367 644.402 29.1367C643.017 29.1367 642.311 28.4372 642.283 27.0381V23.0527H641.203V21.6035H642.283V19.7852H644.259ZM650.91 29C650.819 28.8223 650.753 28.6012 650.712 28.3369C650.233 28.8701 649.611 29.1367 648.846 29.1367C648.121 29.1367 647.52 28.9271 647.041 28.5078C646.567 28.0885 646.33 27.5599 646.33 26.9219C646.33 26.138 646.619 25.5365 647.198 25.1172C647.782 24.6979 648.622 24.486 649.721 24.4814H650.63V24.0576C650.63 23.7158 650.541 23.4424 650.363 23.2373C650.19 23.0322 649.914 22.9297 649.536 22.9297C649.203 22.9297 648.941 23.0094 648.75 23.1689C648.563 23.3285 648.47 23.5472 648.47 23.8252H646.494C646.494 23.3968 646.626 23.0003 646.891 22.6357C647.155 22.2712 647.529 21.9863 648.012 21.7812C648.495 21.5716 649.037 21.4668 649.639 21.4668C650.55 21.4668 651.272 21.6969 651.806 22.1572C652.343 22.613 652.612 23.2555 652.612 24.085V27.291C652.617 27.9928 652.715 28.5238 652.906 28.8838V29H650.91ZM649.276 27.626C649.568 27.626 649.837 27.5622 650.083 27.4346C650.329 27.3024 650.511 27.127 650.63 26.9082V25.6367H649.892C648.903 25.6367 648.376 25.9785 648.312 26.6621L648.306 26.7783C648.306 27.0244 648.392 27.2272 648.565 27.3867C648.739 27.5462 648.976 27.626 649.276 27.626ZM655.948 21.6035L656.01 22.458C656.538 21.7972 657.247 21.4668 658.136 21.4668C658.92 21.4668 659.503 21.6969 659.886 22.1572C660.269 22.6175 660.465 23.3057 660.474 24.2217V29H658.498V24.2695C658.498 23.8503 658.407 23.5472 658.225 23.3604C658.042 23.1689 657.739 23.0732 657.315 23.0732C656.759 23.0732 656.342 23.3102 656.064 23.7842V29H654.089V21.6035H655.948ZM661.67 25.2471C661.67 24.0941 661.927 23.1758 662.442 22.4922C662.962 21.8086 663.671 21.4668 664.568 21.4668C665.288 21.4668 665.883 21.7357 666.353 22.2734V18.5H668.335V29H666.551L666.455 28.2139C665.963 28.8291 665.329 29.1367 664.555 29.1367C663.684 29.1367 662.985 28.7949 662.456 28.1113C661.932 27.4232 661.67 26.4684 661.67 25.2471ZM663.646 25.3906C663.646 26.0833 663.766 26.6143 664.008 26.9834C664.249 27.3525 664.6 27.5371 665.061 27.5371C665.671 27.5371 666.102 27.2796 666.353 26.7646V23.8457C666.106 23.3307 665.68 23.0732 665.074 23.0732C664.122 23.0732 663.646 23.8457 663.646 25.3906ZM674.152 29C674.061 28.8223 673.995 28.6012 673.954 28.3369C673.476 28.8701 672.854 29.1367 672.088 29.1367C671.363 29.1367 670.762 28.9271 670.283 28.5078C669.809 28.0885 669.572 27.5599 669.572 26.9219C669.572 26.138 669.862 25.5365 670.44 25.1172C671.024 24.6979 671.865 24.486 672.963 24.4814H673.872V24.0576C673.872 23.7158 673.783 23.4424 673.605 23.2373C673.432 23.0322 673.157 22.9297 672.778 22.9297C672.446 22.9297 672.184 23.0094 671.992 23.1689C671.805 23.3285 671.712 23.5472 671.712 23.8252H669.736C669.736 23.3968 669.868 23.0003 670.133 22.6357C670.397 22.2712 670.771 21.9863 671.254 21.7812C671.737 21.5716 672.279 21.4668 672.881 21.4668C673.792 21.4668 674.515 21.6969 675.048 22.1572C675.586 22.613 675.854 23.2555 675.854 24.085V27.291C675.859 27.9928 675.957 28.5238 676.148 28.8838V29H674.152ZM672.519 27.626C672.81 27.626 673.079 27.5622 673.325 27.4346C673.571 27.3024 673.754 27.127 673.872 26.9082V25.6367H673.134C672.145 25.6367 671.618 25.9785 671.555 26.6621L671.548 26.7783C671.548 27.0244 671.634 27.2272 671.808 27.3867C671.981 27.5462 672.218 27.626 672.519 27.626ZM681.528 23.4561C681.259 23.4196 681.022 23.4014 680.817 23.4014C680.07 23.4014 679.58 23.6543 679.348 24.1602V29H677.372V21.6035H679.238L679.293 22.4854C679.689 21.8063 680.239 21.4668 680.94 21.4668C681.159 21.4668 681.364 21.4964 681.556 21.5557L681.528 23.4561ZM682.041 25.2471C682.041 24.0941 682.299 23.1758 682.813 22.4922C683.333 21.8086 684.042 21.4668 684.939 21.4668C685.66 21.4668 686.254 21.7357 686.724 22.2734V18.5H688.706V29H686.922L686.826 28.2139C686.334 28.8291 685.701 29.1367 684.926 29.1367C684.055 29.1367 683.356 28.7949 682.827 28.1113C682.303 27.4232 682.041 26.4684 682.041 25.2471ZM684.017 25.3906C684.017 26.0833 684.137 26.6143 684.379 26.9834C684.62 27.3525 684.971 27.5371 685.432 27.5371C686.042 27.5371 686.473 27.2796 686.724 26.7646V23.8457C686.478 23.3307 686.051 23.0732 685.445 23.0732C684.493 23.0732 684.017 23.8457 684.017 25.3906Z" fill="#1F2432"/>
<path d="M3.47461 184.927H8.19141V186H2.15527V176.047H3.47461V184.927ZM14.0566 186C13.9837 185.854 13.9245 185.594 13.8789 185.221C13.291 185.831 12.5892 186.137 11.7734 186.137C11.0443 186.137 10.445 185.932 9.97559 185.521C9.51074 185.107 9.27832 184.583 9.27832 183.949C9.27832 183.179 9.56999 182.582 10.1533 182.158C10.7412 181.73 11.5661 181.516 12.6279 181.516H13.8584V180.935C13.8584 180.493 13.7262 180.142 13.4619 179.882C13.1976 179.618 12.8079 179.485 12.293 179.485C11.8418 179.485 11.4635 179.599 11.1582 179.827C10.8529 180.055 10.7002 180.331 10.7002 180.654H9.42871C9.42871 180.285 9.55859 179.93 9.81836 179.588C10.0827 179.242 10.4382 178.968 10.8848 178.768C11.3359 178.567 11.8304 178.467 12.3682 178.467C13.2204 178.467 13.888 178.681 14.3711 179.109C14.8542 179.533 15.1048 180.119 15.123 180.866V184.271C15.123 184.95 15.2096 185.49 15.3828 185.891V186H14.0566ZM11.958 185.036C12.3545 185.036 12.7305 184.934 13.0859 184.729C13.4414 184.523 13.6989 184.257 13.8584 183.929V182.411H12.8672C11.3177 182.411 10.543 182.865 10.543 183.771C10.543 184.168 10.6751 184.478 10.9395 184.701C11.2038 184.924 11.5433 185.036 11.958 185.036ZM23.3672 182.384C23.3672 183.514 23.1074 184.423 22.5879 185.111C22.0684 185.795 21.3711 186.137 20.4961 186.137C19.5618 186.137 18.8395 185.806 18.3291 185.146L18.2676 186H17.1055V175.5H18.3701V179.417C18.8805 178.784 19.5846 178.467 20.4824 178.467C21.3802 178.467 22.0843 178.806 22.5947 179.485C23.1097 180.164 23.3672 181.094 23.3672 182.274V182.384ZM22.1025 182.24C22.1025 181.379 21.9362 180.714 21.6035 180.244C21.2708 179.775 20.7923 179.54 20.168 179.54C19.334 179.54 18.7347 179.927 18.3701 180.702V183.901C18.7575 184.676 19.3613 185.063 20.1816 185.063C20.7878 185.063 21.2594 184.829 21.5967 184.359C21.9339 183.89 22.1025 183.184 22.1025 182.24ZM24.6318 182.233C24.6318 181.509 24.7731 180.857 25.0557 180.278C25.3428 179.7 25.7393 179.253 26.2451 178.938C26.7555 178.624 27.3366 178.467 27.9883 178.467C28.9954 178.467 29.8089 178.815 30.4287 179.513C31.0531 180.21 31.3652 181.137 31.3652 182.295V182.384C31.3652 183.104 31.2262 183.751 30.9482 184.325C30.6748 184.895 30.2806 185.339 29.7656 185.658C29.2552 185.977 28.6673 186.137 28.002 186.137C26.9993 186.137 26.1859 185.788 25.5615 185.091C24.9417 184.394 24.6318 183.471 24.6318 182.322V182.233ZM25.9033 182.384C25.9033 183.204 26.0924 183.863 26.4707 184.359C26.8535 184.856 27.3639 185.104 28.002 185.104C28.6445 185.104 29.1549 184.854 29.5332 184.353C29.9115 183.847 30.1006 183.14 30.1006 182.233C30.1006 181.422 29.9069 180.766 29.5195 180.265C29.1367 179.759 28.6263 179.506 27.9883 179.506C27.3639 179.506 26.8604 179.754 26.4775 180.251C26.0947 180.748 25.9033 181.459 25.9033 182.384ZM36.5264 179.738C36.335 179.706 36.1276 179.69 35.9043 179.69C35.0749 179.69 34.512 180.044 34.2158 180.75V186H32.9512V178.604H34.1816L34.2021 179.458C34.6169 178.797 35.2048 178.467 35.9658 178.467C36.2119 178.467 36.3988 178.499 36.5264 178.562V179.738ZM41.9883 186C41.9154 185.854 41.8561 185.594 41.8105 185.221C41.2227 185.831 40.5208 186.137 39.7051 186.137C38.9759 186.137 38.3766 185.932 37.9072 185.521C37.4424 185.107 37.21 184.583 37.21 183.949C37.21 183.179 37.5016 182.582 38.085 182.158C38.6729 181.73 39.4977 181.516 40.5596 181.516H41.79V180.935C41.79 180.493 41.6579 180.142 41.3936 179.882C41.1292 179.618 40.7396 179.485 40.2246 179.485C39.7734 179.485 39.3952 179.599 39.0898 179.827C38.7845 180.055 38.6318 180.331 38.6318 180.654H37.3604C37.3604 180.285 37.4902 179.93 37.75 179.588C38.0143 179.242 38.3698 178.968 38.8164 178.768C39.2676 178.567 39.762 178.467 40.2998 178.467C41.152 178.467 41.8197 178.681 42.3027 179.109C42.7858 179.533 43.0365 180.119 43.0547 180.866V184.271C43.0547 184.95 43.1413 185.49 43.3145 185.891V186H41.9883ZM39.8896 185.036C40.2861 185.036 40.6621 184.934 41.0176 184.729C41.373 184.523 41.6305 184.257 41.79 183.929V182.411H40.7988C39.2493 182.411 38.4746 182.865 38.4746 183.771C38.4746 184.168 38.6068 184.478 38.8711 184.701C39.1354 184.924 39.4749 185.036 39.8896 185.036ZM46.7529 176.812V178.604H48.1338V179.581H46.7529V184.168C46.7529 184.464 46.8145 184.688 46.9375 184.838C47.0605 184.984 47.2702 185.057 47.5664 185.057C47.7122 185.057 47.9128 185.029 48.168 184.975V186C47.8353 186.091 47.5117 186.137 47.1973 186.137C46.6322 186.137 46.2061 185.966 45.9189 185.624C45.6318 185.282 45.4883 184.797 45.4883 184.168V179.581H44.1416V178.604H45.4883V176.812H46.7529ZM49.1455 182.233C49.1455 181.509 49.2868 180.857 49.5693 180.278C49.8564 179.7 50.2529 179.253 50.7588 178.938C51.2692 178.624 51.8503 178.467 52.502 178.467C53.5091 178.467 54.3226 178.815 54.9424 179.513C55.5667 180.21 55.8789 181.137 55.8789 182.295V182.384C55.8789 183.104 55.7399 183.751 55.4619 184.325C55.1885 184.895 54.7943 185.339 54.2793 185.658C53.7689 185.977 53.181 186.137 52.5156 186.137C51.513 186.137 50.6995 185.788 50.0752 185.091C49.4554 184.394 49.1455 183.471 49.1455 182.322V182.233ZM50.417 182.384C50.417 183.204 50.6061 183.863 50.9844 184.359C51.3672 184.856 51.8776 185.104 52.5156 185.104C53.1582 185.104 53.6686 184.854 54.0469 184.353C54.4251 183.847 54.6143 183.14 54.6143 182.233C54.6143 181.422 54.4206 180.766 54.0332 180.265C53.6504 179.759 53.14 179.506 52.502 179.506C51.8776 179.506 51.374 179.754 50.9912 180.251C50.6084 180.748 50.417 181.459 50.417 182.384ZM61.04 179.738C60.8486 179.706 60.6413 179.69 60.418 179.69C59.5885 179.69 59.0257 180.044 58.7295 180.75V186H57.4648V178.604H58.6953L58.7158 179.458C59.1305 178.797 59.7184 178.467 60.4795 178.467C60.7256 178.467 60.9124 178.499 61.04 178.562V179.738ZM64.752 184.147L66.4746 178.604H67.8281L64.8545 187.142C64.3942 188.372 63.6628 188.987 62.6602 188.987L62.4209 188.967L61.9492 188.878V187.853L62.291 187.88C62.7194 187.88 63.0521 187.793 63.2891 187.62C63.5306 187.447 63.7288 187.13 63.8838 186.67L64.1641 185.918L61.5254 178.604H62.9062L64.752 184.147Z" fill="#1F2432"/>
<path d="M152.149 182.842C152.026 183.895 151.637 184.708 150.98 185.282C150.329 185.852 149.461 186.137 148.376 186.137C147.2 186.137 146.257 185.715 145.546 184.872C144.839 184.029 144.486 182.901 144.486 181.488V180.531C144.486 179.606 144.65 178.793 144.978 178.091C145.311 177.389 145.78 176.851 146.387 176.478C146.993 176.099 147.695 175.91 148.492 175.91C149.549 175.91 150.397 176.206 151.035 176.799C151.673 177.387 152.044 178.202 152.149 179.246H150.83C150.716 178.453 150.468 177.879 150.085 177.523C149.707 177.168 149.176 176.99 148.492 176.99C147.654 176.99 146.995 177.3 146.516 177.92C146.043 178.54 145.806 179.422 145.806 180.565V181.529C145.806 182.609 146.031 183.468 146.482 184.106C146.933 184.744 147.565 185.063 148.376 185.063C149.105 185.063 149.663 184.899 150.051 184.571C150.443 184.239 150.702 183.662 150.83 182.842H152.149ZM153.414 182.233C153.414 181.509 153.555 180.857 153.838 180.278C154.125 179.7 154.521 179.253 155.027 178.938C155.538 178.624 156.119 178.467 156.77 178.467C157.778 178.467 158.591 178.815 159.211 179.513C159.835 180.21 160.147 181.137 160.147 182.295V182.384C160.147 183.104 160.008 183.751 159.73 184.325C159.457 184.895 159.063 185.339 158.548 185.658C158.037 185.977 157.449 186.137 156.784 186.137C155.781 186.137 154.968 185.788 154.344 185.091C153.724 184.394 153.414 183.471 153.414 182.322V182.233ZM154.685 182.384C154.685 183.204 154.875 183.863 155.253 184.359C155.636 184.856 156.146 185.104 156.784 185.104C157.427 185.104 157.937 184.854 158.315 184.353C158.694 183.847 158.883 183.14 158.883 182.233C158.883 181.422 158.689 180.766 158.302 180.265C157.919 179.759 157.408 179.506 156.77 179.506C156.146 179.506 155.642 179.754 155.26 180.251C154.877 180.748 154.685 181.459 154.685 182.384ZM161.426 182.24C161.426 181.105 161.695 180.194 162.232 179.506C162.77 178.813 163.474 178.467 164.345 178.467C165.211 178.467 165.896 178.763 166.402 179.355V175.5H167.667V186H166.505L166.443 185.207C165.937 185.827 165.233 186.137 164.331 186.137C163.474 186.137 162.775 185.786 162.232 185.084C161.695 184.382 161.426 183.466 161.426 182.336V182.24ZM162.69 182.384C162.69 183.222 162.863 183.879 163.21 184.353C163.556 184.826 164.035 185.063 164.645 185.063C165.447 185.063 166.033 184.703 166.402 183.983V180.586C166.024 179.889 165.443 179.54 164.659 179.54C164.039 179.54 163.556 179.779 163.21 180.258C162.863 180.736 162.69 181.445 162.69 182.384ZM172.705 186.137C171.702 186.137 170.887 185.809 170.258 185.152C169.629 184.492 169.314 183.61 169.314 182.507V182.274C169.314 181.541 169.453 180.887 169.731 180.312C170.014 179.734 170.406 179.283 170.907 178.959C171.413 178.631 171.96 178.467 172.548 178.467C173.509 178.467 174.257 178.784 174.79 179.417C175.323 180.05 175.59 180.957 175.59 182.138V182.664H170.579C170.597 183.393 170.809 183.983 171.215 184.435C171.625 184.881 172.144 185.104 172.773 185.104C173.22 185.104 173.598 185.013 173.908 184.831C174.218 184.649 174.489 184.407 174.722 184.106L175.494 184.708C174.874 185.66 173.945 186.137 172.705 186.137ZM172.548 179.506C172.037 179.506 171.609 179.693 171.263 180.066C170.916 180.436 170.702 180.955 170.62 181.625H174.325V181.529C174.289 180.887 174.115 180.39 173.806 180.039C173.496 179.684 173.076 179.506 172.548 179.506Z" fill="#1F2432"/>
<path d="M258.916 184.927H263.633V186H257.597V176.047H258.916V184.927ZM264.597 182.233C264.597 181.509 264.738 180.857 265.021 180.278C265.308 179.7 265.704 179.253 266.21 178.938C266.721 178.624 267.302 178.467 267.953 178.467C268.961 178.467 269.774 178.815 270.394 179.513C271.018 180.21 271.33 181.137 271.33 182.295V182.384C271.33 183.104 271.191 183.751 270.913 184.325C270.64 184.895 270.246 185.339 269.731 185.658C269.22 185.977 268.632 186.137 267.967 186.137C266.964 186.137 266.151 185.788 265.527 185.091C264.907 184.394 264.597 183.471 264.597 182.322V182.233ZM265.868 182.384C265.868 183.204 266.058 183.863 266.436 184.359C266.819 184.856 267.329 185.104 267.967 185.104C268.61 185.104 269.12 184.854 269.498 184.353C269.877 183.847 270.066 183.14 270.066 182.233C270.066 181.422 269.872 180.766 269.485 180.265C269.102 179.759 268.591 179.506 267.953 179.506C267.329 179.506 266.825 179.754 266.443 180.251C266.06 180.748 265.868 181.459 265.868 182.384ZM272.616 182.24C272.616 181.087 272.882 180.171 273.415 179.492C273.949 178.809 274.655 178.467 275.534 178.467C276.437 178.467 277.141 178.786 277.647 179.424L277.708 178.604H278.864V185.822C278.864 186.779 278.579 187.534 278.009 188.085C277.444 188.636 276.683 188.912 275.726 188.912C275.193 188.912 274.671 188.798 274.16 188.57C273.65 188.342 273.26 188.03 272.992 187.634L273.648 186.875C274.19 187.545 274.853 187.88 275.637 187.88C276.252 187.88 276.731 187.707 277.073 187.36C277.419 187.014 277.592 186.526 277.592 185.897V185.262C277.086 185.845 276.396 186.137 275.521 186.137C274.655 186.137 273.953 185.788 273.415 185.091C272.882 184.394 272.616 183.443 272.616 182.24ZM273.887 182.384C273.887 183.218 274.058 183.874 274.4 184.353C274.742 184.826 275.22 185.063 275.835 185.063C276.633 185.063 277.218 184.701 277.592 183.977V180.6C277.205 179.893 276.624 179.54 275.849 179.54C275.234 179.54 274.753 179.779 274.407 180.258C274.06 180.736 273.887 181.445 273.887 182.384ZM282.152 186H280.887V178.604H282.152V186ZM280.784 176.642C280.784 176.437 280.846 176.263 280.969 176.122C281.097 175.981 281.284 175.91 281.53 175.91C281.776 175.91 281.963 175.981 282.09 176.122C282.218 176.263 282.282 176.437 282.282 176.642C282.282 176.847 282.218 177.018 282.09 177.154C281.963 177.291 281.776 177.359 281.53 177.359C281.284 177.359 281.097 177.291 280.969 177.154C280.846 177.018 280.784 176.847 280.784 176.642ZM288.489 184.038C288.489 183.696 288.359 183.432 288.099 183.245C287.844 183.054 287.395 182.89 286.752 182.753C286.114 182.616 285.606 182.452 285.228 182.261C284.854 182.069 284.576 181.841 284.394 181.577C284.216 181.313 284.127 180.998 284.127 180.634C284.127 180.028 284.382 179.515 284.893 179.096C285.408 178.676 286.064 178.467 286.862 178.467C287.7 178.467 288.379 178.683 288.899 179.116C289.423 179.549 289.685 180.103 289.685 180.777H288.413C288.413 180.431 288.265 180.132 287.969 179.882C287.677 179.631 287.308 179.506 286.862 179.506C286.401 179.506 286.041 179.606 285.782 179.807C285.522 180.007 285.392 180.269 285.392 180.593C285.392 180.898 285.513 181.128 285.754 181.283C285.996 181.438 286.431 181.586 287.06 181.728C287.693 181.869 288.206 182.037 288.598 182.233C288.99 182.429 289.279 182.666 289.466 182.944C289.658 183.218 289.753 183.553 289.753 183.949C289.753 184.61 289.489 185.141 288.96 185.542C288.432 185.938 287.746 186.137 286.903 186.137C286.31 186.137 285.786 186.032 285.33 185.822C284.875 185.613 284.517 185.321 284.257 184.947C284.002 184.569 283.874 184.161 283.874 183.724H285.139C285.162 184.147 285.33 184.485 285.645 184.735C285.964 184.981 286.383 185.104 286.903 185.104C287.381 185.104 287.764 185.009 288.051 184.817C288.343 184.621 288.489 184.362 288.489 184.038ZM293.117 176.812V178.604H294.497V179.581H293.117V184.168C293.117 184.464 293.178 184.688 293.301 184.838C293.424 184.984 293.634 185.057 293.93 185.057C294.076 185.057 294.276 185.029 294.532 184.975V186C294.199 186.091 293.875 186.137 293.561 186.137C292.996 186.137 292.57 185.966 292.283 185.624C291.995 185.282 291.852 184.797 291.852 184.168V179.581H290.505V178.604H291.852V176.812H293.117ZM297.355 186H296.09V178.604H297.355V186ZM295.988 176.642C295.988 176.437 296.049 176.263 296.172 176.122C296.3 175.981 296.487 175.91 296.733 175.91C296.979 175.91 297.166 175.981 297.293 176.122C297.421 176.263 297.485 176.437 297.485 176.642C297.485 176.847 297.421 177.018 297.293 177.154C297.166 177.291 296.979 177.359 296.733 177.359C296.487 177.359 296.3 177.291 296.172 177.154C296.049 177.018 295.988 176.847 295.988 176.642ZM302.352 185.104C302.803 185.104 303.197 184.968 303.534 184.694C303.872 184.421 304.059 184.079 304.095 183.669H305.291C305.269 184.093 305.123 184.496 304.854 184.879C304.585 185.262 304.225 185.567 303.774 185.795C303.327 186.023 302.853 186.137 302.352 186.137C301.345 186.137 300.543 185.802 299.946 185.132C299.353 184.457 299.057 183.537 299.057 182.37V182.158C299.057 181.438 299.189 180.798 299.453 180.237C299.718 179.677 300.096 179.242 300.588 178.932C301.085 178.622 301.671 178.467 302.345 178.467C303.174 178.467 303.863 178.715 304.409 179.212C304.961 179.709 305.255 180.354 305.291 181.146H304.095C304.059 180.668 303.876 180.276 303.548 179.971C303.225 179.661 302.824 179.506 302.345 179.506C301.702 179.506 301.203 179.738 300.848 180.203C300.497 180.663 300.322 181.331 300.322 182.206V182.445C300.322 183.298 300.497 183.954 300.848 184.414C301.199 184.874 301.7 185.104 302.352 185.104ZM311.02 184.038C311.02 183.696 310.89 183.432 310.63 183.245C310.375 183.054 309.926 182.89 309.284 182.753C308.645 182.616 308.137 182.452 307.759 182.261C307.385 182.069 307.107 181.841 306.925 181.577C306.747 181.313 306.659 180.998 306.659 180.634C306.659 180.028 306.914 179.515 307.424 179.096C307.939 178.676 308.595 178.467 309.393 178.467C310.231 178.467 310.91 178.683 311.43 179.116C311.954 179.549 312.216 180.103 312.216 180.777H310.945C310.945 180.431 310.797 180.132 310.5 179.882C310.209 179.631 309.839 179.506 309.393 179.506C308.933 179.506 308.573 179.606 308.313 179.807C308.053 180.007 307.923 180.269 307.923 180.593C307.923 180.898 308.044 181.128 308.285 181.283C308.527 181.438 308.962 181.586 309.591 181.728C310.225 181.869 310.737 182.037 311.129 182.233C311.521 182.429 311.811 182.666 311.997 182.944C312.189 183.218 312.284 183.553 312.284 183.949C312.284 184.61 312.02 185.141 311.492 185.542C310.963 185.938 310.277 186.137 309.434 186.137C308.841 186.137 308.317 186.032 307.862 185.822C307.406 185.613 307.048 185.321 306.788 184.947C306.533 184.569 306.406 184.161 306.406 183.724H307.67C307.693 184.147 307.862 184.485 308.176 184.735C308.495 184.981 308.914 185.104 309.434 185.104C309.912 185.104 310.295 185.009 310.582 184.817C310.874 184.621 311.02 184.362 311.02 184.038ZM272.677 198.842C272.554 199.895 272.164 200.708 271.508 201.282C270.856 201.852 269.988 202.137 268.904 202.137C267.728 202.137 266.784 201.715 266.074 200.872C265.367 200.029 265.014 198.901 265.014 197.488V196.531C265.014 195.606 265.178 194.793 265.506 194.091C265.839 193.389 266.308 192.851 266.914 192.478C267.52 192.099 268.222 191.91 269.02 191.91C270.077 191.91 270.925 192.206 271.563 192.799C272.201 193.387 272.572 194.202 272.677 195.246H271.358C271.244 194.453 270.995 193.879 270.613 193.523C270.234 193.168 269.703 192.99 269.02 192.99C268.181 192.99 267.523 193.3 267.044 193.92C266.57 194.54 266.333 195.422 266.333 196.565V197.529C266.333 198.609 266.559 199.468 267.01 200.106C267.461 200.744 268.092 201.063 268.904 201.063C269.633 201.063 270.191 200.899 270.578 200.571C270.97 200.239 271.23 199.662 271.358 198.842H272.677ZM277.346 202.137C276.343 202.137 275.528 201.809 274.899 201.152C274.27 200.492 273.955 199.61 273.955 198.507V198.274C273.955 197.541 274.094 196.887 274.372 196.312C274.655 195.734 275.047 195.283 275.548 194.959C276.054 194.631 276.601 194.467 277.189 194.467C278.15 194.467 278.898 194.784 279.431 195.417C279.964 196.05 280.231 196.957 280.231 198.138V198.664H275.22C275.238 199.393 275.45 199.983 275.856 200.435C276.266 200.881 276.785 201.104 277.414 201.104C277.861 201.104 278.239 201.013 278.549 200.831C278.859 200.649 279.13 200.407 279.363 200.106L280.135 200.708C279.515 201.66 278.586 202.137 277.346 202.137ZM277.189 195.506C276.678 195.506 276.25 195.693 275.904 196.066C275.557 196.436 275.343 196.955 275.261 197.625H278.966V197.529C278.93 196.887 278.756 196.39 278.447 196.039C278.137 195.684 277.717 195.506 277.189 195.506ZM282.897 194.604L282.938 195.533C283.503 194.822 284.241 194.467 285.153 194.467C286.716 194.467 287.504 195.349 287.518 197.112V202H286.253V197.105C286.249 196.572 286.126 196.178 285.884 195.923C285.647 195.668 285.276 195.54 284.77 195.54C284.36 195.54 284 195.649 283.69 195.868C283.38 196.087 283.138 196.374 282.965 196.729V202H281.7V194.604H282.897ZM291.141 192.812V194.604H292.522V195.581H291.141V200.168C291.141 200.464 291.202 200.688 291.325 200.838C291.449 200.984 291.658 201.057 291.954 201.057C292.1 201.057 292.301 201.029 292.556 200.975V202C292.223 202.091 291.9 202.137 291.585 202.137C291.02 202.137 290.594 201.966 290.307 201.624C290.02 201.282 289.876 200.797 289.876 200.168V195.581H288.53V194.604H289.876V192.812H291.141ZM297.075 202.137C296.072 202.137 295.256 201.809 294.627 201.152C293.998 200.492 293.684 199.61 293.684 198.507V198.274C293.684 197.541 293.823 196.887 294.101 196.312C294.383 195.734 294.775 195.283 295.277 194.959C295.783 194.631 296.329 194.467 296.917 194.467C297.879 194.467 298.626 194.784 299.159 195.417C299.693 196.05 299.959 196.957 299.959 198.138V198.664H294.949C294.967 199.393 295.179 199.983 295.584 200.435C295.994 200.881 296.514 201.104 297.143 201.104C297.589 201.104 297.968 201.013 298.278 200.831C298.588 200.649 298.859 200.407 299.091 200.106L299.864 200.708C299.244 201.66 298.314 202.137 297.075 202.137ZM296.917 195.506C296.407 195.506 295.978 195.693 295.632 196.066C295.286 196.436 295.072 196.955 294.99 197.625H298.695V197.529C298.658 196.887 298.485 196.39 298.175 196.039C297.865 195.684 297.446 195.506 296.917 195.506ZM305.004 195.738C304.813 195.706 304.605 195.69 304.382 195.69C303.553 195.69 302.99 196.044 302.694 196.75V202H301.429V194.604H302.659L302.68 195.458C303.095 194.797 303.683 194.467 304.444 194.467C304.69 194.467 304.877 194.499 305.004 194.562V195.738Z" fill="#1F2432"/>
<path d="M379.271 186V176.047H382.081C382.947 176.047 383.712 176.238 384.378 176.621C385.043 177.004 385.556 177.549 385.916 178.255C386.28 178.961 386.465 179.772 386.469 180.688V181.324C386.469 182.263 386.287 183.086 385.923 183.792C385.563 184.498 385.045 185.041 384.371 185.419C383.701 185.797 382.919 185.991 382.026 186H379.271ZM380.584 177.127V184.927H381.965C382.976 184.927 383.762 184.612 384.323 183.983C384.888 183.354 385.171 182.459 385.171 181.297V180.716C385.171 179.586 384.904 178.708 384.371 178.084C383.842 177.455 383.09 177.136 382.115 177.127H380.584ZM389.635 186H388.37V178.604H389.635V186ZM388.267 176.642C388.267 176.437 388.329 176.263 388.452 176.122C388.58 175.981 388.766 175.91 389.012 175.91C389.259 175.91 389.445 175.981 389.573 176.122C389.701 176.263 389.764 176.437 389.764 176.642C389.764 176.847 389.701 177.018 389.573 177.154C389.445 177.291 389.259 177.359 389.012 177.359C388.766 177.359 388.58 177.291 388.452 177.154C388.329 177.018 388.267 176.847 388.267 176.642ZM395.971 184.038C395.971 183.696 395.842 183.432 395.582 183.245C395.327 183.054 394.878 182.89 394.235 182.753C393.597 182.616 393.089 182.452 392.711 182.261C392.337 182.069 392.059 181.841 391.877 181.577C391.699 181.313 391.61 180.998 391.61 180.634C391.61 180.028 391.865 179.515 392.376 179.096C392.891 178.676 393.547 178.467 394.344 178.467C395.183 178.467 395.862 178.683 396.382 179.116C396.906 179.549 397.168 180.103 397.168 180.777H395.896C395.896 180.431 395.748 180.132 395.452 179.882C395.16 179.631 394.791 179.506 394.344 179.506C393.884 179.506 393.524 179.606 393.264 179.807C393.005 180.007 392.875 180.269 392.875 180.593C392.875 180.898 392.996 181.128 393.237 181.283C393.479 181.438 393.914 181.586 394.543 181.728C395.176 181.869 395.689 182.037 396.081 182.233C396.473 182.429 396.762 182.666 396.949 182.944C397.14 183.218 397.236 183.553 397.236 183.949C397.236 184.61 396.972 185.141 396.443 185.542C395.914 185.938 395.229 186.137 394.385 186.137C393.793 186.137 393.269 186.032 392.813 185.822C392.358 185.613 392 185.321 391.74 184.947C391.485 184.569 391.357 184.161 391.357 183.724H392.622C392.645 184.147 392.813 184.485 393.128 184.735C393.447 184.981 393.866 185.104 394.385 185.104C394.864 185.104 395.247 185.009 395.534 184.817C395.826 184.621 395.971 184.362 395.971 184.038ZM400.599 176.812V178.604H401.98V179.581H400.599V184.168C400.599 184.464 400.661 184.688 400.784 184.838C400.907 184.984 401.117 185.057 401.413 185.057C401.559 185.057 401.759 185.029 402.014 184.975V186C401.682 186.091 401.358 186.137 401.044 186.137C400.479 186.137 400.052 185.966 399.765 185.624C399.478 185.282 399.335 184.797 399.335 184.168V179.581H397.988V178.604H399.335V176.812H400.599ZM407.039 179.738C406.847 179.706 406.64 179.69 406.417 179.69C405.587 179.69 405.024 180.044 404.728 180.75V186H403.464V178.604H404.694L404.715 179.458C405.129 178.797 405.717 178.467 406.478 178.467C406.724 178.467 406.911 178.499 407.039 178.562V179.738ZM409.582 186H408.317V178.604H409.582V186ZM408.215 176.642C408.215 176.437 408.276 176.263 408.399 176.122C408.527 175.981 408.714 175.91 408.96 175.91C409.206 175.91 409.393 175.981 409.52 176.122C409.648 176.263 409.712 176.437 409.712 176.642C409.712 176.847 409.648 177.018 409.52 177.154C409.393 177.291 409.206 177.359 408.96 177.359C408.714 177.359 408.527 177.291 408.399 177.154C408.276 177.018 408.215 176.847 408.215 176.642ZM417.874 182.384C417.874 183.514 417.614 184.423 417.094 185.111C416.575 185.795 415.878 186.137 415.003 186.137C414.068 186.137 413.346 185.806 412.836 185.146L412.774 186H411.612V175.5H412.877V179.417C413.387 178.784 414.091 178.467 414.989 178.467C415.887 178.467 416.591 178.806 417.101 179.485C417.616 180.164 417.874 181.094 417.874 182.274V182.384ZM416.609 182.24C416.609 181.379 416.443 180.714 416.11 180.244C415.777 179.775 415.299 179.54 414.675 179.54C413.841 179.54 413.241 179.927 412.877 180.702V183.901C413.264 184.676 413.868 185.063 414.688 185.063C415.294 185.063 415.766 184.829 416.103 184.359C416.441 183.89 416.609 183.184 416.609 182.24ZM424.04 185.269C423.548 185.847 422.825 186.137 421.873 186.137C421.084 186.137 420.483 185.909 420.068 185.453C419.658 184.993 419.451 184.314 419.446 183.416V178.604H420.711V183.382C420.711 184.503 421.166 185.063 422.078 185.063C423.044 185.063 423.687 184.703 424.006 183.983V178.604H425.27V186H424.067L424.04 185.269ZM428.914 176.812V178.604H430.295V179.581H428.914V184.168C428.914 184.464 428.975 184.688 429.098 184.838C429.221 184.984 429.431 185.057 429.727 185.057C429.873 185.057 430.074 185.029 430.329 184.975V186C429.996 186.091 429.673 186.137 429.358 186.137C428.793 186.137 428.367 185.966 428.08 185.624C427.793 185.282 427.649 184.797 427.649 184.168V179.581H426.302V178.604H427.649V176.812H428.914ZM431.306 182.233C431.306 181.509 431.448 180.857 431.73 180.278C432.017 179.7 432.414 179.253 432.92 178.938C433.43 178.624 434.011 178.467 434.663 178.467C435.67 178.467 436.483 178.815 437.103 179.513C437.728 180.21 438.04 181.137 438.04 182.295V182.384C438.04 183.104 437.901 183.751 437.623 184.325C437.349 184.895 436.955 185.339 436.44 185.658C435.93 185.977 435.342 186.137 434.677 186.137C433.674 186.137 432.86 185.788 432.236 185.091C431.616 184.394 431.306 183.471 431.306 182.322V182.233ZM432.578 182.384C432.578 183.204 432.767 183.863 433.145 184.359C433.528 184.856 434.038 185.104 434.677 185.104C435.319 185.104 435.83 184.854 436.208 184.353C436.586 183.847 436.775 183.14 436.775 182.233C436.775 181.422 436.581 180.766 436.194 180.265C435.811 179.759 435.301 179.506 434.663 179.506C434.038 179.506 433.535 179.754 433.152 180.251C432.769 180.748 432.578 181.459 432.578 182.384ZM443.201 179.738C443.01 179.706 442.802 179.69 442.579 179.69C441.749 179.69 441.187 180.044 440.89 180.75V186H439.626V178.604H440.856L440.877 179.458C441.291 178.797 441.879 178.467 442.64 178.467C442.886 178.467 443.073 178.499 443.201 178.562V179.738Z" fill="#1F2432"/>
<path d="M505.13 182.104V186H503.817V176.047H507.488C508.577 176.047 509.429 176.325 510.045 176.881C510.664 177.437 510.974 178.173 510.974 179.089C510.974 180.055 510.671 180.8 510.065 181.324C509.464 181.844 508.6 182.104 507.474 182.104H505.13ZM505.13 181.03H507.488C508.19 181.03 508.728 180.866 509.101 180.538C509.475 180.205 509.662 179.727 509.662 179.103C509.662 178.51 509.475 178.036 509.101 177.681C508.728 177.325 508.215 177.141 507.563 177.127H505.13V181.03ZM513.716 179.499C514.276 178.811 515.005 178.467 515.903 178.467C517.466 178.467 518.255 179.349 518.268 181.112V186H517.004V181.105C516.999 180.572 516.876 180.178 516.635 179.923C516.398 179.668 516.026 179.54 515.52 179.54C515.11 179.54 514.75 179.649 514.44 179.868C514.13 180.087 513.889 180.374 513.716 180.729V186H512.451V175.5H513.716V179.499ZM524.728 186C524.655 185.854 524.596 185.594 524.551 185.221C523.963 185.831 523.261 186.137 522.445 186.137C521.716 186.137 521.117 185.932 520.647 185.521C520.182 185.107 519.95 184.583 519.95 183.949C519.95 183.179 520.242 182.582 520.825 182.158C521.413 181.73 522.238 181.516 523.3 181.516H524.53V180.935C524.53 180.493 524.398 180.142 524.134 179.882C523.869 179.618 523.48 179.485 522.965 179.485C522.513 179.485 522.135 179.599 521.83 179.827C521.524 180.055 521.372 180.331 521.372 180.654H520.1C520.1 180.285 520.23 179.93 520.49 179.588C520.754 179.242 521.11 178.968 521.556 178.768C522.008 178.567 522.502 178.467 523.04 178.467C523.892 178.467 524.56 178.681 525.043 179.109C525.526 179.533 525.776 180.119 525.795 180.866V184.271C525.795 184.95 525.881 185.49 526.054 185.891V186H524.728ZM522.63 185.036C523.026 185.036 523.402 184.934 523.758 184.729C524.113 184.523 524.371 184.257 524.53 183.929V182.411H523.539C521.989 182.411 521.215 182.865 521.215 183.771C521.215 184.168 521.347 184.478 521.611 184.701C521.875 184.924 522.215 185.036 522.63 185.036ZM531.352 179.738C531.161 179.706 530.954 179.69 530.73 179.69C529.901 179.69 529.338 180.044 529.042 180.75V186H527.777V178.604H529.008L529.028 179.458C529.443 178.797 530.031 178.467 530.792 178.467C531.038 178.467 531.225 178.499 531.352 178.562V179.738ZM533.711 178.604L533.745 179.424C534.287 178.786 535.019 178.467 535.939 178.467C536.974 178.467 537.678 178.863 538.052 179.656C538.298 179.301 538.617 179.014 539.009 178.795C539.405 178.576 539.872 178.467 540.41 178.467C542.032 178.467 542.857 179.326 542.885 181.044V186H541.62V181.119C541.62 180.59 541.499 180.196 541.258 179.937C541.016 179.672 540.61 179.54 540.041 179.54C539.571 179.54 539.182 179.681 538.872 179.964C538.562 180.242 538.382 180.618 538.332 181.092V186H537.06V181.153C537.06 180.078 536.534 179.54 535.481 179.54C534.652 179.54 534.084 179.893 533.779 180.6V186H532.514V178.604H533.711ZM549.365 186C549.292 185.854 549.233 185.594 549.187 185.221C548.599 185.831 547.898 186.137 547.082 186.137C546.353 186.137 545.753 185.932 545.284 185.521C544.819 185.107 544.587 184.583 544.587 183.949C544.587 183.179 544.878 182.582 545.462 182.158C546.05 181.73 546.874 181.516 547.936 181.516H549.167V180.935C549.167 180.493 549.035 180.142 548.77 179.882C548.506 179.618 548.116 179.485 547.601 179.485C547.15 179.485 546.772 179.599 546.467 179.827C546.161 180.055 546.009 180.331 546.009 180.654H544.737C544.737 180.285 544.867 179.93 545.127 179.588C545.391 179.242 545.747 178.968 546.193 178.768C546.644 178.567 547.139 178.467 547.677 178.467C548.529 178.467 549.196 178.681 549.679 179.109C550.163 179.533 550.413 180.119 550.431 180.866V184.271C550.431 184.95 550.518 185.49 550.691 185.891V186H549.365ZM547.266 185.036C547.663 185.036 548.039 184.934 548.394 184.729C548.75 184.523 549.007 184.257 549.167 183.929V182.411H548.176C546.626 182.411 545.851 182.865 545.851 183.771C545.851 184.168 545.983 184.478 546.248 184.701C546.512 184.924 546.852 185.036 547.266 185.036ZM555.381 185.104C555.832 185.104 556.226 184.968 556.563 184.694C556.9 184.421 557.087 184.079 557.124 183.669H558.32C558.297 184.093 558.151 184.496 557.883 184.879C557.614 185.262 557.254 185.567 556.802 185.795C556.356 186.023 555.882 186.137 555.381 186.137C554.373 186.137 553.571 185.802 552.974 185.132C552.382 184.457 552.086 183.537 552.086 182.37V182.158C552.086 181.438 552.218 180.798 552.482 180.237C552.747 179.677 553.125 179.242 553.617 178.932C554.114 178.622 554.699 178.467 555.374 178.467C556.203 178.467 556.891 178.715 557.438 179.212C557.99 179.709 558.284 180.354 558.32 181.146H557.124C557.087 180.668 556.905 180.276 556.577 179.971C556.253 179.661 555.852 179.506 555.374 179.506C554.731 179.506 554.232 179.738 553.877 180.203C553.526 180.663 553.35 181.331 553.35 182.206V182.445C553.35 183.298 553.526 183.954 553.877 184.414C554.228 184.874 554.729 185.104 555.381 185.104ZM562.162 184.147L563.885 178.604H565.238L562.264 187.142C561.804 188.372 561.073 188.987 560.07 188.987L559.831 188.967L559.359 188.878V187.853L559.701 187.88C560.129 187.88 560.462 187.793 560.699 187.62C560.941 187.447 561.139 187.13 561.294 186.67L561.574 185.918L558.935 178.604H560.316L562.162 184.147ZM566.626 186.854H565.539L569.695 176.047H570.775L566.626 186.854ZM507.618 198.24C507.618 197.105 507.887 196.194 508.425 195.506C508.962 194.813 509.666 194.467 510.537 194.467C511.403 194.467 512.089 194.763 512.594 195.355V191.5H513.859V202H512.697L512.635 201.207C512.13 201.827 511.426 202.137 510.523 202.137C509.666 202.137 508.967 201.786 508.425 201.084C507.887 200.382 507.618 199.466 507.618 198.336V198.24ZM508.883 198.384C508.883 199.222 509.056 199.879 509.402 200.353C509.748 200.826 510.227 201.063 510.838 201.063C511.64 201.063 512.225 200.703 512.594 199.983V196.586C512.216 195.889 511.635 195.54 510.851 195.54C510.232 195.54 509.748 195.779 509.402 196.258C509.056 196.736 508.883 197.445 508.883 198.384ZM519.403 195.738C519.212 195.706 519.004 195.69 518.781 195.69C517.952 195.69 517.389 196.044 517.093 196.75V202H515.828V194.604H517.058L517.079 195.458C517.494 194.797 518.081 194.467 518.843 194.467C519.089 194.467 519.275 194.499 519.403 194.562V195.738ZM525.138 201.269C524.646 201.847 523.924 202.137 522.971 202.137C522.183 202.137 521.581 201.909 521.167 201.453C520.757 200.993 520.549 200.314 520.545 199.416V194.604H521.809V199.382C521.809 200.503 522.265 201.063 523.177 201.063C524.143 201.063 524.785 200.703 525.104 199.983V194.604H526.369V202H525.166L525.138 201.269ZM527.996 198.24C527.996 197.087 528.262 196.171 528.796 195.492C529.329 194.809 530.035 194.467 530.915 194.467C531.817 194.467 532.521 194.786 533.027 195.424L533.089 194.604H534.244V201.822C534.244 202.779 533.959 203.534 533.389 204.085C532.824 204.636 532.063 204.912 531.106 204.912C530.573 204.912 530.051 204.798 529.541 204.57C529.03 204.342 528.641 204.03 528.372 203.634L529.028 202.875C529.57 203.545 530.233 203.88 531.017 203.88C531.633 203.88 532.111 203.707 532.453 203.36C532.799 203.014 532.972 202.526 532.972 201.897V201.262C532.467 201.845 531.776 202.137 530.901 202.137C530.035 202.137 529.333 201.788 528.796 201.091C528.262 200.394 527.996 199.443 527.996 198.24ZM529.267 198.384C529.267 199.218 529.438 199.874 529.78 200.353C530.122 200.826 530.6 201.063 531.216 201.063C532.013 201.063 532.599 200.701 532.972 199.977V196.6C532.585 195.893 532.004 195.54 531.229 195.54C530.614 195.54 530.133 195.779 529.787 196.258C529.441 196.736 529.267 197.445 529.267 198.384ZM540.465 200.038C540.465 199.696 540.335 199.432 540.075 199.245C539.82 199.054 539.371 198.89 538.728 198.753C538.09 198.616 537.582 198.452 537.204 198.261C536.83 198.069 536.552 197.841 536.37 197.577C536.192 197.313 536.103 196.998 536.103 196.634C536.103 196.028 536.358 195.515 536.869 195.096C537.384 194.676 538.04 194.467 538.838 194.467C539.676 194.467 540.355 194.683 540.875 195.116C541.399 195.549 541.661 196.103 541.661 196.777H540.389C540.389 196.431 540.241 196.132 539.945 195.882C539.653 195.631 539.284 195.506 538.838 195.506C538.377 195.506 538.017 195.606 537.758 195.807C537.498 196.007 537.368 196.269 537.368 196.593C537.368 196.898 537.489 197.128 537.73 197.283C537.972 197.438 538.407 197.586 539.036 197.728C539.669 197.869 540.182 198.037 540.574 198.233C540.966 198.429 541.255 198.666 541.442 198.944C541.634 199.218 541.729 199.553 541.729 199.949C541.729 200.61 541.465 201.141 540.936 201.542C540.408 201.938 539.722 202.137 538.879 202.137C538.286 202.137 537.762 202.032 537.306 201.822C536.851 201.613 536.493 201.321 536.233 200.947C535.978 200.569 535.85 200.161 535.85 199.724H537.115C537.138 200.147 537.306 200.485 537.621 200.735C537.94 200.981 538.359 201.104 538.879 201.104C539.357 201.104 539.74 201.009 540.027 200.817C540.319 200.621 540.465 200.362 540.465 200.038ZM545.093 192.812V194.604H546.473V195.581H545.093V200.168C545.093 200.464 545.154 200.688 545.277 200.838C545.4 200.984 545.61 201.057 545.906 201.057C546.052 201.057 546.252 201.029 546.508 200.975V202C546.175 202.091 545.851 202.137 545.537 202.137C544.972 202.137 544.546 201.966 544.259 201.624C543.971 201.282 543.828 200.797 543.828 200.168V195.581H542.481V194.604H543.828V192.812H545.093ZM547.485 198.233C547.485 197.509 547.626 196.857 547.909 196.278C548.196 195.7 548.593 195.253 549.098 194.938C549.609 194.624 550.19 194.467 550.842 194.467C551.849 194.467 552.662 194.815 553.282 195.513C553.906 196.21 554.219 197.137 554.219 198.295V198.384C554.219 199.104 554.08 199.751 553.802 200.325C553.528 200.895 553.134 201.339 552.619 201.658C552.108 201.977 551.521 202.137 550.855 202.137C549.853 202.137 549.039 201.788 548.415 201.091C547.795 200.394 547.485 199.471 547.485 198.322V198.233ZM548.757 198.384C548.757 199.204 548.946 199.863 549.324 200.359C549.707 200.856 550.217 201.104 550.855 201.104C551.498 201.104 552.008 200.854 552.386 200.353C552.765 199.847 552.954 199.14 552.954 198.233C552.954 197.422 552.76 196.766 552.373 196.265C551.99 195.759 551.48 195.506 550.842 195.506C550.217 195.506 549.714 195.754 549.331 196.251C548.948 196.748 548.757 197.459 548.757 198.384ZM559.38 195.738C559.188 195.706 558.981 195.69 558.758 195.69C557.928 195.69 557.365 196.044 557.069 196.75V202H555.804V194.604H557.035L557.055 195.458C557.47 194.797 558.058 194.467 558.819 194.467C559.065 194.467 559.252 194.499 559.38 194.562V195.738ZM563.481 202.137C562.479 202.137 561.663 201.809 561.034 201.152C560.405 200.492 560.091 199.61 560.091 198.507V198.274C560.091 197.541 560.23 196.887 560.508 196.312C560.79 195.734 561.182 195.283 561.683 194.959C562.189 194.631 562.736 194.467 563.324 194.467C564.286 194.467 565.033 194.784 565.566 195.417C566.099 196.05 566.366 196.957 566.366 198.138V198.664H561.355C561.373 199.393 561.585 199.983 561.991 200.435C562.401 200.881 562.921 201.104 563.55 201.104C563.996 201.104 564.374 201.013 564.684 200.831C564.994 200.649 565.265 200.407 565.498 200.106L566.27 200.708C565.65 201.66 564.721 202.137 563.481 202.137ZM563.324 195.506C562.814 195.506 562.385 195.693 562.039 196.066C561.692 196.436 561.478 196.955 561.396 197.625H565.101V197.529C565.065 196.887 564.892 196.39 564.582 196.039C564.272 195.684 563.853 195.506 563.324 195.506Z" fill="#1F2432"/>
<path d="M640.929 182.104V186H639.616V176.047H643.287C644.376 176.047 645.229 176.325 645.844 176.881C646.464 177.437 646.773 178.173 646.773 179.089C646.773 180.055 646.47 180.8 645.864 181.324C645.263 181.844 644.399 182.104 643.273 182.104H640.929ZM640.929 181.03H643.287C643.989 181.03 644.527 180.866 644.9 180.538C645.274 180.205 645.461 179.727 645.461 179.103C645.461 178.51 645.274 178.036 644.9 177.681C644.527 177.325 644.014 177.141 643.362 177.127H640.929V181.03ZM652.734 186C652.661 185.854 652.602 185.594 652.557 185.221C651.969 185.831 651.267 186.137 650.451 186.137C649.722 186.137 649.123 185.932 648.653 185.521C648.188 185.107 647.956 184.583 647.956 183.949C647.956 183.179 648.248 182.582 648.831 182.158C649.419 181.73 650.244 181.516 651.306 181.516H652.536V180.935C652.536 180.493 652.404 180.142 652.14 179.882C651.875 179.618 651.486 179.485 650.971 179.485C650.52 179.485 650.141 179.599 649.836 179.827C649.531 180.055 649.378 180.331 649.378 180.654H648.106C648.106 180.285 648.236 179.93 648.496 179.588C648.76 179.242 649.116 178.968 649.562 178.768C650.014 178.567 650.508 178.467 651.046 178.467C651.898 178.467 652.566 178.681 653.049 179.109C653.532 179.533 653.783 180.119 653.801 180.866V184.271C653.801 184.95 653.887 185.49 654.061 185.891V186H652.734ZM650.636 185.036C651.032 185.036 651.408 184.934 651.764 184.729C652.119 184.523 652.377 184.257 652.536 183.929V182.411H651.545C649.995 182.411 649.221 182.865 649.221 183.771C649.221 184.168 649.353 184.478 649.617 184.701C649.882 184.924 650.221 185.036 650.636 185.036ZM657.499 176.812V178.604H658.88V179.581H657.499V184.168C657.499 184.464 657.561 184.688 657.684 184.838C657.807 184.984 658.016 185.057 658.312 185.057C658.458 185.057 658.659 185.029 658.914 184.975V186C658.581 186.091 658.258 186.137 657.943 186.137C657.378 186.137 656.952 185.966 656.665 185.624C656.378 185.282 656.234 184.797 656.234 184.168V179.581H654.888V178.604H656.234V176.812H657.499ZM661.737 186H660.473V178.604H661.737V186ZM660.37 176.642C660.37 176.437 660.432 176.263 660.555 176.122C660.682 175.981 660.869 175.91 661.115 175.91C661.361 175.91 661.548 175.981 661.676 176.122C661.803 176.263 661.867 176.437 661.867 176.642C661.867 176.847 661.803 177.018 661.676 177.154C661.548 177.291 661.361 177.359 661.115 177.359C660.869 177.359 660.682 177.291 660.555 177.154C660.432 177.018 660.37 176.847 660.37 176.642ZM666.837 186.137C665.834 186.137 665.019 185.809 664.39 185.152C663.761 184.492 663.446 183.61 663.446 182.507V182.274C663.446 181.541 663.585 180.887 663.863 180.312C664.146 179.734 664.538 179.283 665.039 178.959C665.545 178.631 666.092 178.467 666.68 178.467C667.641 178.467 668.389 178.784 668.922 179.417C669.455 180.05 669.722 180.957 669.722 182.138V182.664H664.711C664.729 183.393 664.941 183.983 665.347 184.435C665.757 184.881 666.276 185.104 666.905 185.104C667.352 185.104 667.73 185.013 668.04 184.831C668.35 184.649 668.621 184.407 668.854 184.106L669.626 184.708C669.006 185.66 668.076 186.137 666.837 186.137ZM666.68 179.506C666.169 179.506 665.741 179.693 665.395 180.066C665.048 180.436 664.834 180.955 664.752 181.625H668.457V181.529C668.421 180.887 668.247 180.39 667.938 180.039C667.628 179.684 667.208 179.506 666.68 179.506ZM672.388 178.604L672.429 179.533C672.994 178.822 673.732 178.467 674.644 178.467C676.207 178.467 676.995 179.349 677.009 181.112V186H675.744V181.105C675.74 180.572 675.617 180.178 675.375 179.923C675.138 179.668 674.767 179.54 674.261 179.54C673.851 179.54 673.491 179.649 673.181 179.868C672.871 180.087 672.629 180.374 672.456 180.729V186H671.191V178.604H672.388ZM680.632 176.812V178.604H682.013V179.581H680.632V184.168C680.632 184.464 680.693 184.688 680.816 184.838C680.939 184.984 681.149 185.057 681.445 185.057C681.591 185.057 681.792 185.029 682.047 184.975V186C681.714 186.091 681.391 186.137 681.076 186.137C680.511 186.137 680.085 185.966 679.798 185.624C679.511 185.282 679.367 184.797 679.367 184.168V179.581H678.021V178.604H679.367V176.812H680.632Z" fill="#1F2432"/>
<path d="M622.595 80L632.595 70L622.595 60" stroke="#00DCE6" stroke-width="2"/>
<path d="M73.5947 80L63.5947 70L73.5947 60" stroke="#00DCE6" stroke-width="2"/>
<path d="M63.5947 70C285.966 70 410.64 70 633.011 70" stroke="#00DCE6" stroke-width="2" stroke-miterlimit="16"/>
<path d="M58.7026 139H135.016" stroke="#00DCE6" stroke-miterlimit="16"/>
<path d="M135.854 146C139.72 146 142.854 142.866 142.854 139C142.854 135.134 139.72 132 135.854 132C131.988 132 128.854 135.134 128.854 139C128.854 142.866 131.988 146 135.854 146Z" fill="#00DCE6" fill-opacity="0.2"/>
<path d="M135.854 142C137.511 142 138.854 140.657 138.854 139C138.854 137.343 137.511 136 135.854 136C134.197 136 132.854 137.343 132.854 139C132.854 140.657 134.197 142 135.854 142Z" fill="#00DCE6"/>
<path d="M58.854 146C62.72 146 65.854 142.866 65.854 139C65.854 135.134 62.72 132 58.854 132C54.988 132 51.854 135.134 51.854 139C51.854 142.866 54.988 146 58.854 146Z" fill="#00DCE6" fill-opacity="0.2"/>
<path d="M58.854 142C60.5109 142 61.854 140.657 61.854 139C61.854 137.343 60.5109 136 58.854 136C57.1971 136 55.854 137.343 55.854 139C55.854 140.657 57.1971 142 58.854 142Z" fill="#00DCE6"/>
<path d="M183.935 139H260.249" stroke="#00DCE6" stroke-miterlimit="16"/>
<path d="M261.086 146C264.952 146 268.086 142.866 268.086 139C268.086 135.134 264.952 132 261.086 132C257.22 132 254.086 135.134 254.086 139C254.086 142.866 257.22 146 261.086 146Z" fill="#00DCE6" fill-opacity="0.2"/>
<path d="M261.086 142C262.743 142 264.086 140.657 264.086 139C264.086 137.343 262.743 136 261.086 136C259.43 136 258.086 137.343 258.086 139C258.086 140.657 259.43 142 261.086 142Z" fill="#00DCE6"/>
<path d="M184.086 146C187.952 146 191.086 142.866 191.086 139C191.086 135.134 187.952 132 184.086 132C180.22 132 177.086 135.134 177.086 139C177.086 142.866 180.22 146 184.086 146Z" fill="#00DCE6" fill-opacity="0.2"/>
<path d="M184.086 142C185.743 142 187.086 140.657 187.086 139C187.086 137.343 185.743 136 184.086 136C182.43 136 181.086 137.343 181.086 139C181.086 140.657 182.43 142 184.086 142Z" fill="#00DCE6"/>
<path d="M309.167 139H385.481" stroke="#00DCE6" stroke-miterlimit="16"/>
<path d="M386.319 146C390.185 146 393.319 142.866 393.319 139C393.319 135.134 390.185 132 386.319 132C382.453 132 379.319 135.134 379.319 139C379.319 142.866 382.453 146 386.319 146Z" fill="#00DCE6" fill-opacity="0.2"/>
<path d="M386.319 142C387.976 142 389.319 140.657 389.319 139C389.319 137.343 387.976 136 386.319 136C384.662 136 383.319 137.343 383.319 139C383.319 140.657 384.662 142 386.319 142Z" fill="#00DCE6"/>
<path d="M309.319 146C313.185 146 316.319 142.866 316.319 139C316.319 135.134 313.185 132 309.319 132C305.453 132 302.319 135.134 302.319 139C302.319 142.866 305.453 146 309.319 146Z" fill="#00DCE6" fill-opacity="0.2"/>
<path d="M309.319 142C310.976 142 312.319 140.657 312.319 139C312.319 137.343 310.976 136 309.319 136C307.662 136 306.319 137.343 306.319 139C306.319 140.657 307.662 142 309.319 142Z" fill="#00DCE6"/>
<path d="M435.378 139H511.692" stroke="#00DCE6" stroke-miterlimit="16"/>
<path d="M512.53 146C516.396 146 519.53 142.866 519.53 139C519.53 135.134 516.396 132 512.53 132C508.664 132 505.53 135.134 505.53 139C505.53 142.866 508.664 146 512.53 146Z" fill="#00DCE6" fill-opacity="0.2"/>
<path d="M512.53 142C514.187 142 515.53 140.657 515.53 139C515.53 137.343 514.187 136 512.53 136C510.873 136 509.53 137.343 509.53 139C509.53 140.657 510.873 142 512.53 142Z" fill="#00DCE6"/>
<path d="M435.53 146C439.396 146 442.53 142.866 442.53 139C442.53 135.134 439.396 132 435.53 132C431.664 132 428.53 135.134 428.53 139C428.53 142.866 431.664 146 435.53 146Z" fill="#00DCE6" fill-opacity="0.2"/>
<path d="M435.53 142C437.187 142 438.53 140.657 438.53 139C438.53 137.343 437.187 136 435.53 136C433.873 136 432.53 137.343 432.53 139C432.53 140.657 433.873 142 435.53 142Z" fill="#00DCE6"/>
<path d="M560.611 139H636.924" stroke="#00DCE6" stroke-miterlimit="16"/>
<path d="M637.762 146C641.628 146 644.762 142.866 644.762 139C644.762 135.134 641.628 132 637.762 132C633.896 132 630.762 135.134 630.762 139C630.762 142.866 633.896 146 637.762 146Z" fill="#00DCE6" fill-opacity="0.2"/>
<path d="M637.762 142C639.419 142 640.762 140.657 640.762 139C640.762 137.343 639.419 136 637.762 136C636.105 136 634.762 137.343 634.762 139C634.762 140.657 636.105 142 637.762 142Z" fill="#00DCE6"/>
<path d="M560.762 146C564.628 146 567.762 142.866 567.762 139C567.762 135.134 564.628 132 560.762 132C556.896 132 553.762 135.134 553.762 139C553.762 142.866 556.896 146 560.762 146Z" fill="#00DCE6" fill-opacity="0.2"/>
<path d="M560.762 142C562.419 142 563.762 140.657 563.762 139C563.762 137.343 562.419 136 560.762 136C559.105 136 557.762 137.343 557.762 139C557.762 140.657 559.105 142 560.762 142Z" fill="#00DCE6"/>
<path d="M314.176 17V7.04688H317.662C318.87 7.04688 319.786 7.2793 320.41 7.74414C321.035 8.20443 321.347 8.88118 321.347 9.77441C321.347 10.262 321.221 10.6927 320.971 11.0664C320.72 11.4355 320.371 11.7067 319.925 11.8799C320.435 12.0075 320.836 12.265 321.128 12.6523C321.424 13.0397 321.572 13.5137 321.572 14.0742C321.572 15.0312 321.267 15.7559 320.656 16.248C320.046 16.7402 319.175 16.9909 318.045 17H314.176ZM316.227 12.666V15.3525H317.983C318.466 15.3525 318.842 15.2386 319.111 15.0107C319.385 14.7783 319.521 14.4593 319.521 14.0537C319.521 13.1423 319.05 12.6797 318.106 12.666H316.227ZM316.227 11.2168H317.744C318.779 11.1986 319.296 10.7861 319.296 9.97949C319.296 9.52832 319.164 9.20475 318.899 9.00879C318.64 8.80827 318.227 8.70801 317.662 8.70801H316.227V11.2168ZM325.072 17H323.09V6.5H325.072V17ZM326.398 13.2334C326.398 12.4997 326.54 11.8457 326.822 11.2715C327.105 10.6973 327.51 10.2529 328.039 9.93848C328.572 9.62402 329.19 9.4668 329.892 9.4668C330.89 9.4668 331.703 9.77214 332.332 10.3828C332.965 10.9935 333.319 11.8229 333.392 12.8711L333.405 13.377C333.405 14.5117 333.089 15.4232 332.455 16.1113C331.822 16.7949 330.972 17.1367 329.905 17.1367C328.839 17.1367 327.987 16.7949 327.349 16.1113C326.715 15.4277 326.398 14.498 326.398 13.3223V13.2334ZM328.374 13.377C328.374 14.0788 328.506 14.6165 328.771 14.9902C329.035 15.3594 329.413 15.5439 329.905 15.5439C330.384 15.5439 330.757 15.3617 331.026 14.9971C331.295 14.6279 331.43 14.04 331.43 13.2334C331.43 12.5452 331.295 12.012 331.026 11.6338C330.757 11.2555 330.379 11.0664 329.892 11.0664C329.409 11.0664 329.035 11.2555 328.771 11.6338C328.506 12.0075 328.374 12.5885 328.374 13.377ZM337.698 15.5439C338.063 15.5439 338.359 15.4437 338.587 15.2432C338.815 15.0426 338.933 14.776 338.942 14.4434H340.795C340.79 14.9447 340.654 15.4049 340.385 15.8242C340.116 16.2389 339.747 16.5625 339.277 16.7949C338.812 17.0228 338.298 17.1367 337.732 17.1367C336.675 17.1367 335.841 16.8018 335.23 16.1318C334.62 15.4574 334.314 14.5277 334.314 13.3428V13.2129C334.314 12.0736 334.618 11.1644 335.224 10.4854C335.83 9.80632 336.661 9.4668 337.719 9.4668C338.644 9.4668 339.384 9.73112 339.94 10.2598C340.501 10.7839 340.786 11.4834 340.795 12.3584H338.942C338.933 11.9756 338.815 11.6657 338.587 11.4287C338.359 11.1872 338.058 11.0664 337.685 11.0664C337.224 11.0664 336.876 11.235 336.639 11.5723C336.406 11.9049 336.29 12.4473 336.29 13.1992V13.4043C336.29 14.1654 336.406 14.7122 336.639 15.0449C336.871 15.3776 337.224 15.5439 337.698 15.5439ZM344.609 14.0332L343.898 14.7441V17H341.923V6.5H343.898V12.3174L344.281 11.8252L346.175 9.60352H348.547L345.874 12.6865L348.779 17H346.51L344.609 14.0332ZM352.341 15.5439C352.705 15.5439 353.002 15.4437 353.229 15.2432C353.457 15.0426 353.576 14.776 353.585 14.4434H355.438C355.433 14.9447 355.296 15.4049 355.027 15.8242C354.758 16.2389 354.389 16.5625 353.92 16.7949C353.455 17.0228 352.94 17.1367 352.375 17.1367C351.318 17.1367 350.484 16.8018 349.873 16.1318C349.262 15.4574 348.957 14.5277 348.957 13.3428V13.2129C348.957 12.0736 349.26 11.1644 349.866 10.4854C350.472 9.80632 351.304 9.4668 352.361 9.4668C353.286 9.4668 354.027 9.73112 354.583 10.2598C355.144 10.7839 355.428 11.4834 355.438 12.3584H353.585C353.576 11.9756 353.457 11.6657 353.229 11.4287C353.002 11.1872 352.701 11.0664 352.327 11.0664C351.867 11.0664 351.518 11.235 351.281 11.5723C351.049 11.9049 350.933 12.4473 350.933 13.1992V13.4043C350.933 14.1654 351.049 14.7122 351.281 15.0449C351.514 15.3776 351.867 15.5439 352.341 15.5439ZM358.493 10.4102C359.017 9.78125 359.676 9.4668 360.469 9.4668C362.073 9.4668 362.886 10.3988 362.909 12.2627V17H360.934V12.3174C360.934 11.8936 360.842 11.5814 360.66 11.3809C360.478 11.1758 360.175 11.0732 359.751 11.0732C359.172 11.0732 358.753 11.2965 358.493 11.7432V17H356.518V6.5H358.493V10.4102ZM368.686 17C368.594 16.8223 368.528 16.6012 368.487 16.3369C368.009 16.8701 367.387 17.1367 366.621 17.1367C365.896 17.1367 365.295 16.9271 364.816 16.5078C364.342 16.0885 364.105 15.5599 364.105 14.9219C364.105 14.138 364.395 13.5365 364.974 13.1172C365.557 12.6979 366.398 12.486 367.496 12.4814H368.405V12.0576C368.405 11.7158 368.316 11.4424 368.139 11.2373C367.965 11.0322 367.69 10.9297 367.312 10.9297C366.979 10.9297 366.717 11.0094 366.525 11.1689C366.339 11.3285 366.245 11.5472 366.245 11.8252H364.27C364.27 11.3968 364.402 11.0003 364.666 10.6357C364.93 10.2712 365.304 9.98633 365.787 9.78125C366.27 9.57161 366.812 9.4668 367.414 9.4668C368.326 9.4668 369.048 9.69694 369.581 10.1572C370.119 10.613 370.388 11.2555 370.388 12.085V15.291C370.392 15.9928 370.49 16.5238 370.682 16.8838V17H368.686ZM367.052 15.626C367.343 15.626 367.612 15.5622 367.858 15.4346C368.104 15.3024 368.287 15.127 368.405 14.9082V13.6367H367.667C366.678 13.6367 366.152 13.9785 366.088 14.6621L366.081 14.7783C366.081 15.0244 366.168 15.2272 366.341 15.3867C366.514 15.5462 366.751 15.626 367.052 15.626ZM373.99 17H372.008V9.60352H373.99V17ZM371.892 7.68945C371.892 7.39323 371.99 7.14941 372.186 6.95801C372.386 6.7666 372.657 6.6709 372.999 6.6709C373.336 6.6709 373.605 6.7666 373.806 6.95801C374.006 7.14941 374.106 7.39323 374.106 7.68945C374.106 7.99023 374.004 8.23633 373.799 8.42773C373.598 8.61914 373.332 8.71484 372.999 8.71484C372.666 8.71484 372.397 8.61914 372.192 8.42773C371.992 8.23633 371.892 7.99023 371.892 7.68945ZM377.442 9.60352L377.504 10.458C378.033 9.7972 378.741 9.4668 379.63 9.4668C380.414 9.4668 380.997 9.69694 381.38 10.1572C381.763 10.6175 381.959 11.3057 381.968 12.2217V17H379.992V12.2695C379.992 11.8503 379.901 11.5472 379.719 11.3604C379.536 11.1689 379.233 11.0732 378.81 11.0732C378.254 11.0732 377.837 11.3102 377.559 11.7842V17H375.583V9.60352H377.442ZM311.913 23.7852V25.6035H313.178V27.0527H311.913V30.7441C311.913 31.0176 311.965 31.2135 312.07 31.332C312.175 31.4505 312.376 31.5098 312.672 31.5098C312.891 31.5098 313.084 31.4938 313.253 31.4619V32.959C312.866 33.0775 312.467 33.1367 312.057 33.1367C310.671 33.1367 309.965 32.4372 309.938 31.0381V27.0527H308.857V25.6035H309.938V23.7852H311.913ZM318.435 27.4561C318.166 27.4196 317.929 27.4014 317.724 27.4014C316.976 27.4014 316.486 27.6543 316.254 28.1602V33H314.278V25.6035H316.145L316.199 26.4854C316.596 25.8063 317.145 25.4668 317.847 25.4668C318.065 25.4668 318.271 25.4964 318.462 25.5557L318.435 27.4561ZM323.473 33C323.382 32.8223 323.315 32.6012 323.274 32.3369C322.796 32.8701 322.174 33.1367 321.408 33.1367C320.684 33.1367 320.082 32.9271 319.604 32.5078C319.13 32.0885 318.893 31.5599 318.893 30.9219C318.893 30.138 319.182 29.5365 319.761 29.1172C320.344 28.6979 321.185 28.486 322.283 28.4814H323.192V28.0576C323.192 27.7158 323.104 27.4424 322.926 27.2373C322.753 27.0322 322.477 26.9297 322.099 26.9297C321.766 26.9297 321.504 27.0094 321.312 27.1689C321.126 27.3285 321.032 27.5472 321.032 27.8252H319.057C319.057 27.3968 319.189 27.0003 319.453 26.6357C319.717 26.2712 320.091 25.9863 320.574 25.7812C321.057 25.5716 321.6 25.4668 322.201 25.4668C323.113 25.4668 323.835 25.6969 324.368 26.1572C324.906 26.613 325.175 27.2555 325.175 28.085V31.291C325.179 31.9928 325.277 32.5238 325.469 32.8838V33H323.473ZM321.839 31.626C322.131 31.626 322.399 31.5622 322.646 31.4346C322.892 31.3024 323.074 31.127 323.192 30.9082V29.6367H322.454C321.465 29.6367 320.939 29.9785 320.875 30.6621L320.868 30.7783C320.868 31.0244 320.955 31.2272 321.128 31.3867C321.301 31.5462 321.538 31.626 321.839 31.626ZM328.511 25.6035L328.572 26.458C329.101 25.7972 329.81 25.4668 330.698 25.4668C331.482 25.4668 332.065 25.6969 332.448 26.1572C332.831 26.6175 333.027 27.3057 333.036 28.2217V33H331.061V28.2695C331.061 27.8503 330.969 27.5472 330.787 27.3604C330.605 27.1689 330.302 27.0732 329.878 27.0732C329.322 27.0732 328.905 27.3102 328.627 27.7842V33H326.651V25.6035H328.511ZM338.546 30.9561C338.546 30.7145 338.425 30.5254 338.184 30.3887C337.947 30.2474 337.564 30.1221 337.035 30.0127C335.276 29.6436 334.396 28.8962 334.396 27.7705C334.396 27.1143 334.668 26.5674 335.21 26.1299C335.757 25.6878 336.47 25.4668 337.35 25.4668C338.288 25.4668 339.038 25.6878 339.599 26.1299C340.164 26.5719 340.446 27.1462 340.446 27.8525H338.471C338.471 27.57 338.38 27.3376 338.197 27.1553C338.015 26.9684 337.73 26.875 337.343 26.875C337.01 26.875 336.753 26.9502 336.57 27.1006C336.388 27.251 336.297 27.4424 336.297 27.6748C336.297 27.8936 336.399 28.0713 336.604 28.208C336.814 28.3402 337.165 28.4564 337.657 28.5566C338.149 28.6523 338.564 28.7617 338.901 28.8848C339.945 29.2676 340.467 29.9307 340.467 30.874C340.467 31.5485 340.177 32.0954 339.599 32.5146C339.02 32.9294 338.272 33.1367 337.356 33.1367C336.737 33.1367 336.185 33.0273 335.702 32.8086C335.224 32.5853 334.848 32.2822 334.574 31.8994C334.301 31.512 334.164 31.0951 334.164 30.6484H336.037C336.055 30.9993 336.185 31.2682 336.427 31.4551C336.668 31.6419 336.992 31.7354 337.397 31.7354C337.776 31.7354 338.061 31.6647 338.252 31.5234C338.448 31.3776 338.546 31.1885 338.546 30.9561ZM346.031 33C345.94 32.8223 345.874 32.6012 345.833 32.3369C345.354 32.8701 344.732 33.1367 343.967 33.1367C343.242 33.1367 342.641 32.9271 342.162 32.5078C341.688 32.0885 341.451 31.5599 341.451 30.9219C341.451 30.138 341.741 29.5365 342.319 29.1172C342.903 28.6979 343.743 28.486 344.842 28.4814H345.751V28.0576C345.751 27.7158 345.662 27.4424 345.484 27.2373C345.311 27.0322 345.035 26.9297 344.657 26.9297C344.325 26.9297 344.062 27.0094 343.871 27.1689C343.684 27.3285 343.591 27.5472 343.591 27.8252H341.615C341.615 27.3968 341.747 27.0003 342.012 26.6357C342.276 26.2712 342.65 25.9863 343.133 25.7812C343.616 25.5716 344.158 25.4668 344.76 25.4668C345.671 25.4668 346.394 25.6969 346.927 26.1572C347.465 26.613 347.733 27.2555 347.733 28.085V31.291C347.738 31.9928 347.836 32.5238 348.027 32.8838V33H346.031ZM344.397 31.626C344.689 31.626 344.958 31.5622 345.204 31.4346C345.45 31.3024 345.632 31.127 345.751 30.9082V29.6367H345.013C344.024 29.6367 343.497 29.9785 343.434 30.6621L343.427 30.7783C343.427 31.0244 343.513 31.2272 343.687 31.3867C343.86 31.5462 344.097 31.626 344.397 31.626ZM352.327 31.5439C352.692 31.5439 352.988 31.4437 353.216 31.2432C353.444 31.0426 353.562 30.776 353.571 30.4434H355.424C355.419 30.9447 355.283 31.4049 355.014 31.8242C354.745 32.2389 354.376 32.5625 353.906 32.7949C353.441 33.0228 352.926 33.1367 352.361 33.1367C351.304 33.1367 350.47 32.8018 349.859 32.1318C349.249 31.4574 348.943 30.5277 348.943 29.3428V29.2129C348.943 28.0736 349.246 27.1644 349.853 26.4854C350.459 25.8063 351.29 25.4668 352.348 25.4668C353.273 25.4668 354.013 25.7311 354.569 26.2598C355.13 26.7839 355.415 27.4834 355.424 28.3584H353.571C353.562 27.9756 353.444 27.6657 353.216 27.4287C352.988 27.1872 352.687 27.0664 352.313 27.0664C351.853 27.0664 351.505 27.235 351.268 27.5723C351.035 27.9049 350.919 28.4473 350.919 29.1992V29.4043C350.919 30.1654 351.035 30.7122 351.268 31.0449C351.5 31.3776 351.853 31.5439 352.327 31.5439ZM358.917 23.7852V25.6035H360.182V27.0527H358.917V30.7441C358.917 31.0176 358.969 31.2135 359.074 31.332C359.179 31.4505 359.38 31.5098 359.676 31.5098C359.895 31.5098 360.088 31.4938 360.257 31.4619V32.959C359.869 33.0775 359.471 33.1367 359.061 33.1367C357.675 33.1367 356.969 32.4372 356.941 31.0381V27.0527H355.861V25.6035H356.941V23.7852H358.917ZM363.367 33H361.385V25.6035H363.367V33ZM361.269 23.6895C361.269 23.3932 361.367 23.1494 361.562 22.958C361.763 22.7666 362.034 22.6709 362.376 22.6709C362.713 22.6709 362.982 22.7666 363.183 22.958C363.383 23.1494 363.483 23.3932 363.483 23.6895C363.483 23.9902 363.381 24.2363 363.176 24.4277C362.975 24.6191 362.709 24.7148 362.376 24.7148C362.043 24.7148 361.774 24.6191 361.569 24.4277C361.369 24.2363 361.269 23.9902 361.269 23.6895ZM364.693 29.2334C364.693 28.4997 364.835 27.8457 365.117 27.2715C365.4 26.6973 365.805 26.2529 366.334 25.9385C366.867 25.624 367.485 25.4668 368.187 25.4668C369.185 25.4668 369.998 25.7721 370.627 26.3828C371.26 26.9935 371.614 27.8229 371.687 28.8711L371.7 29.377C371.7 30.5117 371.383 31.4232 370.75 32.1113C370.117 32.7949 369.267 33.1367 368.2 33.1367C367.134 33.1367 366.282 32.7949 365.644 32.1113C365.01 31.4277 364.693 30.498 364.693 29.3223V29.2334ZM366.669 29.377C366.669 30.0788 366.801 30.6165 367.065 30.9902C367.33 31.3594 367.708 31.5439 368.2 31.5439C368.679 31.5439 369.052 31.3617 369.321 30.9971C369.59 30.6279 369.725 30.04 369.725 29.2334C369.725 28.5452 369.59 28.012 369.321 27.6338C369.052 27.2555 368.674 27.0664 368.187 27.0664C367.703 27.0664 367.33 27.2555 367.065 27.6338C366.801 28.0075 366.669 28.5885 366.669 29.377ZM374.735 25.6035L374.797 26.458C375.326 25.7972 376.034 25.4668 376.923 25.4668C377.707 25.4668 378.29 25.6969 378.673 26.1572C379.056 26.6175 379.252 27.3057 379.261 28.2217V33H377.285V28.2695C377.285 27.8503 377.194 27.5472 377.012 27.3604C376.829 27.1689 376.526 27.0732 376.103 27.0732C375.547 27.0732 375.13 27.3102 374.852 27.7842V33H372.876V25.6035H374.735ZM384.771 30.9561C384.771 30.7145 384.65 30.5254 384.408 30.3887C384.171 30.2474 383.788 30.1221 383.26 30.0127C381.501 29.6436 380.621 28.8962 380.621 27.7705C380.621 27.1143 380.892 26.5674 381.435 26.1299C381.981 25.6878 382.695 25.4668 383.574 25.4668C384.513 25.4668 385.263 25.6878 385.823 26.1299C386.388 26.5719 386.671 27.1462 386.671 27.8525H384.695C384.695 27.57 384.604 27.3376 384.422 27.1553C384.24 26.9684 383.955 26.875 383.567 26.875C383.235 26.875 382.977 26.9502 382.795 27.1006C382.613 27.251 382.521 27.4424 382.521 27.6748C382.521 27.8936 382.624 28.0713 382.829 28.208C383.039 28.3402 383.39 28.4564 383.882 28.5566C384.374 28.6523 384.789 28.7617 385.126 28.8848C386.17 29.2676 386.691 29.9307 386.691 30.874C386.691 31.5485 386.402 32.0954 385.823 32.5146C385.244 32.9294 384.497 33.1367 383.581 33.1367C382.961 33.1367 382.41 33.0273 381.927 32.8086C381.448 32.5853 381.072 32.2822 380.799 31.8994C380.525 31.512 380.389 31.0951 380.389 30.6484H382.262C382.28 30.9993 382.41 31.2682 382.651 31.4551C382.893 31.6419 383.216 31.7354 383.622 31.7354C384 31.7354 384.285 31.6647 384.477 31.5234C384.673 31.3776 384.771 31.1885 384.771 30.9561Z" fill="#1F2432"/>
</svg>
