<svg width="740" height="206" viewBox="0 0 740 206" fill="none" xmlns="http://www.w3.org/2000/svg">
<path d="M163 78C167.418 78 171 74.4183 171 70C171 65.5817 167.418 62 163 62C158.582 62 155 65.5817 155 70C155 74.4183 158.582 78 163 78Z" fill="#00DCE6" fill-opacity="0.2"/>
<path d="M163 73.9924C165.209 73.9924 167 72.2032 167 69.9962C167 67.7892 165.209 66 163 66C160.791 66 159 67.7892 159 69.9962C159 72.2032 160.791 73.9924 163 73.9924Z" fill="#00DCE6"/>
<path d="M163 123L163 70.3848" stroke="#00DCE6" stroke-miterlimit="16" stroke-dasharray="1 1"/>
<path d="M291 78C295.418 78 299 74.4183 299 70C299 65.5817 295.418 62 291 62C286.582 62 283 65.5817 283 70C283 74.4183 286.582 78 291 78Z" fill="#00DCE6" fill-opacity="0.2"/>
<path d="M291 73.9924C293.209 73.9924 295 72.2032 295 69.9962C295 67.7892 293.209 66 291 66C288.791 66 287 67.7892 287 69.9962C287 72.2032 288.791 73.9924 291 73.9924Z" fill="#00DCE6"/>
<path d="M291 123L291 70.3848" stroke="#00DCE6" stroke-miterlimit="16" stroke-dasharray="1 1"/>
<path d="M420 78C424.418 78 428 74.4183 428 70C428 65.5817 424.418 62 420 62C415.582 62 412 65.5817 412 70C412 74.4183 415.582 78 420 78Z" fill="#00DCE6" fill-opacity="0.2"/>
<path d="M420 73.9924C422.209 73.9924 424 72.2032 424 69.9962C424 67.7892 422.209 66 420 66C417.791 66 416 67.7892 416 69.9962C416 72.2032 417.791 73.9924 420 73.9924Z" fill="#00DCE6"/>
<path d="M420 123L420 70.3848" stroke="#00DCE6" stroke-miterlimit="16" stroke-dasharray="1 1"/>
<path d="M549 78C553.418 78 557 74.4183 557 70C557 65.5817 553.418 62 549 62C544.582 62 541 65.5817 541 70C541 74.4183 544.582 78 549 78Z" fill="#00DCE6" fill-opacity="0.2"/>
<path d="M549 73.9924C551.209 73.9924 553 72.2032 553 69.9962C553 67.7892 551.209 66 549 66C546.791 66 545 67.7892 545 69.9962C545 72.2032 546.791 73.9924 549 73.9924Z" fill="#00DCE6"/>
<path d="M549 123L549 70.3848" stroke="#00DCE6" stroke-miterlimit="16" stroke-dasharray="1 1"/>
<path d="M35 98C51.5685 98 65 84.5685 65 68C65 51.4315 51.5685 38 35 38C18.4315 38 5 51.4315 5 68C5 84.5685 18.4315 98 35 98Z" fill="#00DCE6" fill-opacity="0.2"/>
<path d="M35 93C48.8071 93 60 81.8071 60 68C60 54.1929 48.8071 43 35 43C21.1929 43 10 54.1929 10 68C10 81.8071 21.1929 93 35 93Z" fill="#00DCE6"/>
<path d="M24 81V55H45V81H24Z" stroke="white"/>
<path d="M24 62H45" stroke="white"/>
<path d="M24 68H45" stroke="white"/>
<path d="M24 74H45" stroke="white"/>
<rect x="26" y="58" width="2" height="2" fill="white"/>
<rect x="26" y="64" width="2" height="2" fill="white"/>
<rect x="26" y="70" width="2" height="2" fill="white"/>
<rect x="26" y="76" width="2" height="2" fill="white"/>
<path d="M677 98C693.569 98 707 84.5685 707 68C707 51.4315 693.569 38 677 38C660.431 38 647 51.4315 647 68C647 84.5685 660.431 98 677 98Z" fill="#00DCE6" fill-opacity="0.2"/>
<path d="M677 93C690.807 93 702 81.8071 702 68C702 54.1929 690.807 43 677 43C663.193 43 652 54.1929 652 68C652 81.8071 663.193 93 677 93Z" fill="#00DCE6"/>
<path d="M666 82V54H688V82H666Z" stroke="white"/>
<path d="M676.333 69.6667L676.333 73H679.667V69.6667H683V66.3333L679.667 66.3333V63H676.333L676.333 66.3333L673 66.3333V69.6667H676.333Z" stroke="white"/>
<path d="M670 82L670 54" stroke="white"/>
<path d="M35 163C48.8071 163 60 151.807 60 138C60 124.193 48.8071 113 35 113C21.1929 113 10 124.193 10 138C10 151.807 21.1929 163 35 163Z" fill="#353A47"/>
<path d="M32 143L38 143" stroke="white"/>
<path d="M32 132L38 132" stroke="white"/>
<path d="M35 140L35 146" stroke="white"/>
<path d="M32.0462 136.286V126H38.5077V136.286L46.0548 148.474C46.4673 149.14 45.9881 150 45.2046 150H24.8576C24.0611 150 23.5843 149.114 24.0228 148.449L32.0462 136.286Z" stroke="white"/>
<path d="M163 163C176.807 163 188 151.807 188 138C188 124.193 176.807 113 163 113C149.193 113 138 124.193 138 138C138 151.807 149.193 163 163 163Z" fill="#353A47"/>
<path d="M166 147L166 130" stroke="white"/>
<path d="M153 147L153 130" stroke="white"/>
<path d="M161 147L161 130" stroke="white"/>
<path d="M170 147L170 130" stroke="white"/>
<path d="M168 147L168 130" stroke="white"/>
<path d="M172 147L172 130" stroke="white"/>
<path d="M176 130V147" stroke="white" stroke-width="1.5"/>
<path d="M174 130V147" stroke="white" stroke-width="1.5"/>
<path d="M164 130V147" stroke="white" stroke-width="1.5"/>
<path d="M158 130V147" stroke="white" stroke-width="1.5"/>
<path d="M155 130V147" stroke="white" stroke-width="1.5"/>
<path d="M150 130V147" stroke="white" stroke-width="1.5"/>
<path d="M291.351 163C305.158 163 316.351 151.807 316.351 138C316.351 124.193 305.158 113 291.351 113C277.544 113 266.351 124.193 266.351 138C266.351 151.807 277.544 163 291.351 163Z" fill="#353A47"/>
<path d="M284.351 138.612C284.351 136.63 282.805 135 280.873 135C278.94 135 277.351 136.586 277.351 138.568C277.351 139.141 277.48 139.67 277.695 140.198C278.081 140.991 279.584 143.238 280.443 144.471L280.786 145L281.13 144.515C282.032 143.282 283.578 141.035 283.965 140.286C284.222 139.714 284.351 139.185 284.351 138.612Z" stroke="white"/>
<path d="M280.851 138C280.575 138 280.351 138.224 280.351 138.5C280.351 138.776 280.575 139 280.851 139C281.127 139 281.351 138.776 281.351 138.5C281.351 138.224 281.127 138 280.851 138Z" stroke="white"/>
<path d="M305.351 138.612C305.351 136.63 303.805 135 301.873 135C299.94 135 298.351 136.586 298.351 138.568C298.351 139.141 298.48 139.67 298.695 140.198C299.081 140.991 300.584 143.238 301.443 144.471L301.786 145L302.13 144.515C303.032 143.282 304.578 141.035 304.965 140.286C305.222 139.714 305.351 139.185 305.351 138.612Z" stroke="white"/>
<path d="M301.851 138C301.575 138 301.351 138.224 301.351 138.5C301.351 138.776 301.575 139 301.851 139C302.127 139 302.351 138.776 302.351 138.5C302.351 138.224 302.127 138 301.851 138Z" stroke="white"/>
<path d="M299.351 133.947C299.351 129.586 295.817 126 291.401 126C286.983 126 283.351 129.489 283.351 133.85C283.351 135.11 283.645 136.273 284.137 137.436C285.02 139.181 288.455 144.123 290.419 146.837L291.203 148L291.989 146.934C294.051 144.22 297.584 139.278 298.468 137.63C299.057 136.37 299.351 135.207 299.351 133.947Z" stroke="white"/>
<path d="M291.351 131C289.693 131 288.351 132.343 288.351 134C288.351 135.657 289.693 137 291.351 137C293.008 137 294.351 135.657 294.351 134C294.351 132.343 293.008 131 291.351 131Z" stroke="white"/>
<path d="M420.386 163C434.193 163 445.386 151.807 445.386 138C445.386 124.193 434.193 113 420.386 113C406.579 113 395.386 124.193 395.386 138C395.386 151.807 406.579 163 420.386 163Z" fill="#353A47"/>
<path d="M424.225 135.29H428.557L431.355 139.129H433V145.162H430.806" stroke="white"/>
<path d="M415.467 145H424V129H408V145H411.2" stroke="white"/>
<path d="M413 136.703L418.406 136.703" stroke="white"/>
<path d="M415.703 134L415.703 139.406" stroke="white"/>
<path d="M430.806 145.164C430.806 146.37 429.819 147.357 428.613 147.357C427.406 147.357 426.419 146.37 426.419 145.164C426.419 143.957 427.406 142.97 428.613 142.97C429.819 142.97 430.806 143.957 430.806 145.164Z" stroke="white"/>
<path d="M415.45 145.164C415.45 146.37 414.463 147.357 413.256 147.357C412.049 147.357 411.062 146.37 411.062 145.164C411.062 143.957 412.049 142.97 413.256 142.97C414.463 142.97 415.45 143.957 415.45 145.164Z" stroke="white"/>
<path d="M424.225 145.163H426.419" stroke="white"/>
<path d="M423.99 139.131H431.355" stroke="white"/>
<path d="M548.719 163C562.526 163 573.719 151.807 573.719 138C573.719 124.193 562.526 113 548.719 113C534.912 113 523.719 124.193 523.719 138C523.719 151.807 534.912 163 548.719 163Z" fill="#353A47"/>
<circle cx="548.719" cy="138" r="15" stroke="white"/>
<path d="M546.053 140.667L546.053 146H551.386V140.667H556.719V135.333L551.386 135.333V130H546.053L546.053 135.333L540.719 135.333V140.667H546.053Z" stroke="white"/>
<path d="M677 163C690.807 163 702 151.807 702 138C702 124.193 690.807 113 677 113C663.193 113 652 124.193 652 138C652 151.807 663.193 163 677 163Z" fill="#353A47"/>
<path d="M682.9 134C682.12 133.4 680.92 133.04 679.6 132.8V131.96C680.68 131.54 681.4 130.46 681.4 129.2V128C681.4 126.32 680.14 125 678.4 125C676.66 125 675.4 126.32 675.4 128V129.2C675.4 130.46 676.12 131.54 677.2 131.96V132.8C674.86 133.16 673 134 673 135.8V138.2" stroke="white"/>
<path d="M671.8 134.84C671.44 134.72 671.02 134.66 670.6 134.6V133.76C671.68 133.34 672.4 132.26 672.4 131V129.8C672.4 128.12 671.14 126.8 669.4 126.8C667.66 126.8 666.4 128.12 666.4 129.8V131C666.4 132.26 667.12 133.34 668.2 133.76V134.6C665.86 134.96 664 135.8 664 137.6V144.2" stroke="white"/>
<path d="M691 143V140.6C691 139.16 689.92 139.1 688 138.8V137.6C688.9 137.24 689.2 136.82 689.2 135.8V134.6C689.2 133.22 688.24 132.2 686.8 132.2C685.36 132.2 684.4 133.22 684.4 134.6V135.8C684.4 136.82 684.7 137.24 685.6 137.6V138.8C684.76 138.92 684.4 139.1 683.8 139.4" stroke="white"/>
<path d="M680.2 141.8V136.4H676V141.8H670.6V146H676V151.4H680.2V146H685.6V141.8H680.2Z" stroke="white"/>
<path d="M16.5293 10.3887C16.5293 10.0013 16.3926 9.70508 16.1191 9.5C15.8457 9.29036 15.3535 9.07161 14.6426 8.84375C13.9316 8.61133 13.3688 8.38346 12.9541 8.16016C11.8239 7.54948 11.2588 6.72689 11.2588 5.69238C11.2588 5.15462 11.4092 4.67611 11.71 4.25684C12.0153 3.83301 12.4505 3.5026 13.0156 3.26562C13.5853 3.02865 14.2233 2.91016 14.9297 2.91016C15.6406 2.91016 16.2741 3.04004 16.8301 3.2998C17.3861 3.55501 17.8167 3.91732 18.1221 4.38672C18.432 4.85612 18.5869 5.38932 18.5869 5.98633H16.5361C16.5361 5.5306 16.3926 5.17741 16.1055 4.92676C15.8184 4.67155 15.415 4.54395 14.8955 4.54395C14.3942 4.54395 14.0046 4.65104 13.7266 4.86523C13.4486 5.07487 13.3096 5.35286 13.3096 5.69922C13.3096 6.02279 13.4714 6.29395 13.7949 6.5127C14.123 6.73145 14.6038 6.93652 15.2373 7.12793C16.404 7.47884 17.2539 7.91406 17.7871 8.43359C18.3203 8.95312 18.5869 9.60026 18.5869 10.375C18.5869 11.2363 18.2611 11.9131 17.6094 12.4053C16.9577 12.8929 16.0804 13.1367 14.9775 13.1367C14.2119 13.1367 13.5146 12.9977 12.8857 12.7197C12.2568 12.4372 11.776 12.0521 11.4434 11.5645C11.1152 11.0768 10.9512 10.5117 10.9512 9.86914H13.0088C13.0088 10.9674 13.665 11.5166 14.9775 11.5166C15.4652 11.5166 15.8457 11.4186 16.1191 11.2227C16.3926 11.0221 16.5293 10.7441 16.5293 10.3887ZM22.2168 3.78516V5.60352H23.4814V7.05273H22.2168V10.7441C22.2168 11.0176 22.2692 11.2135 22.374 11.332C22.4788 11.4505 22.6794 11.5098 22.9756 11.5098C23.1943 11.5098 23.388 11.4938 23.5566 11.4619V12.959C23.1693 13.0775 22.7705 13.1367 22.3604 13.1367C20.9749 13.1367 20.2686 12.4372 20.2412 11.0381V7.05273H19.1611V5.60352H20.2412V3.78516H22.2168ZM24.0693 9.2334C24.0693 8.49967 24.2106 7.8457 24.4932 7.27148C24.7757 6.69727 25.1813 6.25293 25.71 5.93848C26.2432 5.62402 26.8607 5.4668 27.5625 5.4668C28.5605 5.4668 29.374 5.77214 30.0029 6.38281C30.6364 6.99349 30.9896 7.82292 31.0625 8.87109L31.0762 9.37695C31.0762 10.5117 30.7594 11.4232 30.126 12.1113C29.4925 12.7949 28.6426 13.1367 27.5762 13.1367C26.5098 13.1367 25.6576 12.7949 25.0195 12.1113C24.3861 11.4277 24.0693 10.498 24.0693 9.32227V9.2334ZM26.0449 9.37695C26.0449 10.0788 26.1771 10.6165 26.4414 10.9902C26.7057 11.3594 27.084 11.5439 27.5762 11.5439C28.0547 11.5439 28.4284 11.3617 28.6973 10.9971C28.9661 10.6279 29.1006 10.04 29.1006 9.2334C29.1006 8.54525 28.9661 8.01204 28.6973 7.63379C28.4284 7.25553 28.0501 7.06641 27.5625 7.06641C27.0794 7.06641 26.7057 7.25553 26.4414 7.63379C26.1771 8.00749 26.0449 8.58854 26.0449 9.37695ZM36.4492 7.45605C36.1803 7.4196 35.9434 7.40137 35.7383 7.40137C34.9909 7.40137 34.501 7.6543 34.2686 8.16016V13H32.293V5.60352H34.1592L34.2139 6.48535C34.6104 5.80632 35.1595 5.4668 35.8613 5.4668C36.0801 5.4668 36.2852 5.49642 36.4766 5.55566L36.4492 7.45605ZM41.4873 13C41.3962 12.8223 41.3301 12.6012 41.2891 12.3369C40.8105 12.8701 40.1885 13.1367 39.4229 13.1367C38.6982 13.1367 38.0967 12.9271 37.6182 12.5078C37.1442 12.0885 36.9072 11.5599 36.9072 10.9219C36.9072 10.138 37.1966 9.53646 37.7754 9.11719C38.3587 8.69792 39.1995 8.486 40.2979 8.48145H41.207V8.05762C41.207 7.71582 41.1182 7.44238 40.9404 7.2373C40.7673 7.03223 40.4915 6.92969 40.1133 6.92969C39.7806 6.92969 39.5186 7.00944 39.3271 7.16895C39.1403 7.32845 39.0469 7.5472 39.0469 7.8252H37.0713C37.0713 7.39681 37.2035 7.00033 37.4678 6.63574C37.7321 6.27116 38.1058 5.98633 38.5889 5.78125C39.0719 5.57161 39.6143 5.4668 40.2158 5.4668C41.1273 5.4668 41.8496 5.69694 42.3828 6.15723C42.9206 6.61296 43.1895 7.25553 43.1895 8.08496V11.291C43.194 11.9928 43.292 12.5238 43.4834 12.8838V13H41.4873ZM39.8535 11.626C40.1452 11.626 40.4141 11.5622 40.6602 11.4346C40.9062 11.3024 41.0885 11.127 41.207 10.9082V9.63672H40.4688C39.4798 9.63672 38.9535 9.97852 38.8896 10.6621L38.8828 10.7783C38.8828 11.0244 38.9694 11.2272 39.1426 11.3867C39.3158 11.5462 39.5527 11.626 39.8535 11.626ZM44.4199 9.24707C44.4199 8.1123 44.6888 7.19857 45.2266 6.50586C45.7689 5.81315 46.498 5.4668 47.4141 5.4668C48.2253 5.4668 48.8564 5.74479 49.3076 6.30078L49.3896 5.60352H51.1807V12.7539C51.1807 13.401 51.0326 13.9639 50.7363 14.4424C50.4447 14.9209 50.0322 15.2855 49.499 15.5361C48.9658 15.7868 48.3415 15.9121 47.626 15.9121C47.0837 15.9121 46.555 15.8027 46.04 15.584C45.5251 15.3698 45.1354 15.0918 44.8711 14.75L45.7461 13.5469C46.2383 14.0983 46.8353 14.374 47.5371 14.374C48.0612 14.374 48.4691 14.2327 48.7607 13.9502C49.0524 13.6722 49.1982 13.2757 49.1982 12.7607V12.3643C48.7425 12.8792 48.1432 13.1367 47.4004 13.1367C46.5117 13.1367 45.7917 12.7904 45.2402 12.0977C44.6934 11.4004 44.4199 10.4775 44.4199 9.3291V9.24707ZM46.3955 9.39062C46.3955 10.0605 46.5299 10.5869 46.7988 10.9697C47.0677 11.348 47.4368 11.5371 47.9062 11.5371C48.5078 11.5371 48.9385 11.3115 49.1982 10.8604V7.75C48.9339 7.29883 48.5078 7.07324 47.9199 7.07324C47.446 7.07324 47.0723 7.26693 46.7988 7.6543C46.5299 8.04167 46.3955 8.62044 46.3955 9.39062ZM56.1094 13.1367C55.0247 13.1367 54.1406 12.804 53.457 12.1387C52.778 11.4733 52.4385 10.5869 52.4385 9.47949V9.28809C52.4385 8.54525 52.582 7.88216 52.8691 7.29883C53.1562 6.71094 53.5618 6.25977 54.0859 5.94531C54.6146 5.6263 55.2161 5.4668 55.8906 5.4668C56.9023 5.4668 57.6976 5.78581 58.2764 6.42383C58.8597 7.06185 59.1514 7.96647 59.1514 9.1377V9.94434H54.4414C54.5052 10.4274 54.6966 10.8148 55.0156 11.1064C55.3392 11.3981 55.7471 11.5439 56.2393 11.5439C57.0003 11.5439 57.5951 11.2682 58.0234 10.7168L58.9941 11.8037C58.6979 12.223 58.2969 12.5511 57.791 12.7881C57.2852 13.0205 56.7246 13.1367 56.1094 13.1367ZM55.8838 7.06641C55.4919 7.06641 55.1729 7.19857 54.9268 7.46289C54.6852 7.72721 54.5303 8.10547 54.4619 8.59766H57.21V8.44043C57.2008 8.00293 57.0824 7.66569 56.8545 7.42871C56.6266 7.18717 56.3031 7.06641 55.8838 7.06641ZM16.8301 26.9561C16.8301 26.7145 16.7093 26.5254 16.4678 26.3887C16.2308 26.2474 15.848 26.1221 15.3193 26.0127C13.5602 25.6436 12.6807 24.8962 12.6807 23.7705C12.6807 23.1143 12.9518 22.5674 13.4941 22.1299C14.041 21.6878 14.7542 21.4668 15.6338 21.4668C16.5726 21.4668 17.3223 21.6878 17.8828 22.1299C18.4479 22.5719 18.7305 23.1462 18.7305 23.8525H16.7549C16.7549 23.57 16.6637 23.3376 16.4814 23.1553C16.2992 22.9684 16.0143 22.875 15.627 22.875C15.2943 22.875 15.0368 22.9502 14.8545 23.1006C14.6722 23.251 14.5811 23.4424 14.5811 23.6748C14.5811 23.8936 14.6836 24.0713 14.8887 24.208C15.0983 24.3402 15.4492 24.4564 15.9414 24.5566C16.4336 24.6523 16.8483 24.7617 17.1855 24.8848C18.2292 25.2676 18.751 25.9307 18.751 26.874C18.751 27.5485 18.4616 28.0954 17.8828 28.5146C17.304 28.9294 16.5566 29.1367 15.6406 29.1367C15.0208 29.1367 14.4694 29.0273 13.9863 28.8086C13.5078 28.5853 13.1318 28.2822 12.8584 27.8994C12.585 27.512 12.4482 27.0951 12.4482 26.6484H14.3213C14.3395 26.9993 14.4694 27.2682 14.7109 27.4551C14.9525 27.6419 15.276 27.7354 15.6816 27.7354C16.0599 27.7354 16.3447 27.6647 16.5361 27.5234C16.7321 27.3776 16.8301 27.1885 16.8301 26.9561ZM22.791 26.2041L24.1582 21.6035H26.2773L23.3037 30.1484L23.1396 30.5381C22.6976 31.5042 21.9684 31.9873 20.9521 31.9873C20.665 31.9873 20.3734 31.944 20.0771 31.8574V30.3604L20.3779 30.3672C20.7516 30.3672 21.0296 30.3102 21.2119 30.1963C21.3988 30.0824 21.5446 29.8932 21.6494 29.6289L21.8818 29.0205L19.291 21.6035H21.417L22.791 26.2041ZM31.0625 26.9561C31.0625 26.7145 30.9417 26.5254 30.7002 26.3887C30.4632 26.2474 30.0804 26.1221 29.5518 26.0127C27.7926 25.6436 26.9131 24.8962 26.9131 23.7705C26.9131 23.1143 27.1842 22.5674 27.7266 22.1299C28.2734 21.6878 28.9867 21.4668 29.8662 21.4668C30.805 21.4668 31.5547 21.6878 32.1152 22.1299C32.6803 22.5719 32.9629 23.1462 32.9629 23.8525H30.9873C30.9873 23.57 30.8962 23.3376 30.7139 23.1553C30.5316 22.9684 30.2467 22.875 29.8594 22.875C29.5267 22.875 29.2692 22.9502 29.0869 23.1006C28.9046 23.251 28.8135 23.4424 28.8135 23.6748C28.8135 23.8936 28.916 24.0713 29.1211 24.208C29.3307 24.3402 29.6816 24.4564 30.1738 24.5566C30.666 24.6523 31.0807 24.7617 31.418 24.8848C32.4616 25.2676 32.9834 25.9307 32.9834 26.874C32.9834 27.5485 32.694 28.0954 32.1152 28.5146C31.5365 28.9294 30.7891 29.1367 29.873 29.1367C29.2533 29.1367 28.7018 29.0273 28.2188 28.8086C27.7402 28.5853 27.3643 28.2822 27.0908 27.8994C26.8174 27.512 26.6807 27.0951 26.6807 26.6484H28.5537C28.5719 26.9993 28.7018 27.2682 28.9434 27.4551C29.1849 27.6419 29.5085 27.7354 29.9141 27.7354C30.2923 27.7354 30.5771 27.6647 30.7686 27.5234C30.9645 27.3776 31.0625 27.1885 31.0625 26.9561ZM36.627 19.7852V21.6035H37.8916V23.0527H36.627V26.7441C36.627 27.0176 36.6794 27.2135 36.7842 27.332C36.889 27.4505 37.0895 27.5098 37.3857 27.5098C37.6045 27.5098 37.7982 27.4938 37.9668 27.4619V28.959C37.5794 29.0775 37.1807 29.1367 36.7705 29.1367C35.3851 29.1367 34.6787 28.4372 34.6514 27.0381V23.0527H33.5713V21.6035H34.6514V19.7852H36.627ZM42.3965 29.1367C41.3118 29.1367 40.4277 28.804 39.7441 28.1387C39.0651 27.4733 38.7256 26.5869 38.7256 25.4795V25.2881C38.7256 24.5452 38.8691 23.8822 39.1562 23.2988C39.4434 22.7109 39.849 22.2598 40.373 21.9453C40.9017 21.6263 41.5033 21.4668 42.1777 21.4668C43.1895 21.4668 43.9847 21.7858 44.5635 22.4238C45.1468 23.0618 45.4385 23.9665 45.4385 25.1377V25.9443H40.7285C40.7923 26.4274 40.9837 26.8148 41.3027 27.1064C41.6263 27.3981 42.0342 27.5439 42.5264 27.5439C43.2874 27.5439 43.8822 27.2682 44.3105 26.7168L45.2812 27.8037C44.985 28.223 44.584 28.5511 44.0781 28.7881C43.5723 29.0205 43.0117 29.1367 42.3965 29.1367ZM42.1709 23.0664C41.779 23.0664 41.46 23.1986 41.2139 23.4629C40.9723 23.7272 40.8174 24.1055 40.749 24.5977H43.4971V24.4404C43.488 24.0029 43.3695 23.6657 43.1416 23.4287C42.9137 23.1872 42.5902 23.0664 42.1709 23.0664ZM48.4189 21.6035L48.4805 22.4307C49.0046 21.7881 49.7132 21.4668 50.6064 21.4668C51.5589 21.4668 52.2129 21.8428 52.5684 22.5947C53.0879 21.8428 53.8285 21.4668 54.79 21.4668C55.5921 21.4668 56.1891 21.7015 56.5811 22.1709C56.973 22.6357 57.1689 23.3376 57.1689 24.2764V29H55.1865V24.2832C55.1865 23.8639 55.1045 23.5586 54.9404 23.3672C54.7764 23.1712 54.487 23.0732 54.0723 23.0732C53.4798 23.0732 53.0697 23.3558 52.8418 23.9209L52.8486 29H50.873V24.29C50.873 23.8617 50.7887 23.5518 50.6201 23.3604C50.4515 23.1689 50.1644 23.0732 49.7588 23.0732C49.1982 23.0732 48.7926 23.3057 48.542 23.7705V29H46.5664V21.6035H48.4189Z" fill="#1F2432"/>
<path d="M624.548 13H622.497L618.505 6.45117V13H616.454V3.04688H618.505L622.504 9.60938V3.04688H624.548V13ZM630.495 13C630.404 12.8223 630.338 12.6012 630.297 12.3369C629.818 12.8701 629.196 13.1367 628.431 13.1367C627.706 13.1367 627.104 12.9271 626.626 12.5078C626.152 12.0885 625.915 11.5599 625.915 10.9219C625.915 10.138 626.204 9.53646 626.783 9.11719C627.367 8.69792 628.207 8.486 629.306 8.48145H630.215V8.05762C630.215 7.71582 630.126 7.44238 629.948 7.2373C629.775 7.03223 629.499 6.92969 629.121 6.92969C628.788 6.92969 628.526 7.00944 628.335 7.16895C628.148 7.32845 628.055 7.5472 628.055 7.8252H626.079C626.079 7.39681 626.211 7.00033 626.476 6.63574C626.74 6.27116 627.114 5.98633 627.597 5.78125C628.08 5.57161 628.622 5.4668 629.224 5.4668C630.135 5.4668 630.857 5.69694 631.391 6.15723C631.928 6.61296 632.197 7.25553 632.197 8.08496V11.291C632.202 11.9928 632.3 12.5238 632.491 12.8838V13H630.495ZM628.861 11.626C629.153 11.626 629.422 11.5622 629.668 11.4346C629.914 11.3024 630.096 11.127 630.215 10.9082V9.63672H629.477C628.488 9.63672 627.961 9.97852 627.897 10.6621L627.891 10.7783C627.891 11.0244 627.977 11.2272 628.15 11.3867C628.324 11.5462 628.561 11.626 628.861 11.626ZM636.08 3.78516V5.60352H637.345V7.05273H636.08V10.7441C636.08 11.0176 636.132 11.2135 636.237 11.332C636.342 11.4505 636.543 11.5098 636.839 11.5098C637.058 11.5098 637.251 11.4938 637.42 11.4619V12.959C637.033 13.0775 636.634 13.1367 636.224 13.1367C634.838 13.1367 634.132 12.4372 634.104 11.0381V7.05273H633.024V5.60352H634.104V3.78516H636.08ZM640.53 13H638.548V5.60352H640.53V13ZM638.432 3.68945C638.432 3.39323 638.53 3.14941 638.726 2.95801C638.926 2.7666 639.197 2.6709 639.539 2.6709C639.876 2.6709 640.145 2.7666 640.346 2.95801C640.546 3.14941 640.646 3.39323 640.646 3.68945C640.646 3.99023 640.544 4.23633 640.339 4.42773C640.138 4.61914 639.872 4.71484 639.539 4.71484C639.206 4.71484 638.938 4.61914 638.732 4.42773C638.532 4.23633 638.432 3.99023 638.432 3.68945ZM641.856 9.2334C641.856 8.49967 641.998 7.8457 642.28 7.27148C642.563 6.69727 642.968 6.25293 643.497 5.93848C644.03 5.62402 644.648 5.4668 645.35 5.4668C646.348 5.4668 647.161 5.77214 647.79 6.38281C648.424 6.99349 648.777 7.82292 648.85 8.87109L648.863 9.37695C648.863 10.5117 648.547 11.4232 647.913 12.1113C647.28 12.7949 646.43 13.1367 645.363 13.1367C644.297 13.1367 643.445 12.7949 642.807 12.1113C642.173 11.4277 641.856 10.498 641.856 9.32227V9.2334ZM643.832 9.37695C643.832 10.0788 643.964 10.6165 644.229 10.9902C644.493 11.3594 644.871 11.5439 645.363 11.5439C645.842 11.5439 646.215 11.3617 646.484 10.9971C646.753 10.6279 646.888 10.04 646.888 9.2334C646.888 8.54525 646.753 8.01204 646.484 7.63379C646.215 7.25553 645.837 7.06641 645.35 7.06641C644.867 7.06641 644.493 7.25553 644.229 7.63379C643.964 8.00749 643.832 8.58854 643.832 9.37695ZM651.898 5.60352L651.96 6.45801C652.489 5.7972 653.197 5.4668 654.086 5.4668C654.87 5.4668 655.453 5.69694 655.836 6.15723C656.219 6.61751 656.415 7.30566 656.424 8.22168V13H654.448V8.26953C654.448 7.85026 654.357 7.5472 654.175 7.36035C653.993 7.16895 653.689 7.07324 653.266 7.07324C652.71 7.07324 652.293 7.31022 652.015 7.78418V13H650.039V5.60352H651.898ZM662.214 13C662.123 12.8223 662.057 12.6012 662.016 12.3369C661.537 12.8701 660.915 13.1367 660.149 13.1367C659.425 13.1367 658.823 12.9271 658.345 12.5078C657.871 12.0885 657.634 11.5599 657.634 10.9219C657.634 10.138 657.923 9.53646 658.502 9.11719C659.085 8.69792 659.926 8.486 661.024 8.48145H661.934V8.05762C661.934 7.71582 661.845 7.44238 661.667 7.2373C661.494 7.03223 661.218 6.92969 660.84 6.92969C660.507 6.92969 660.245 7.00944 660.054 7.16895C659.867 7.32845 659.773 7.5472 659.773 7.8252H657.798C657.798 7.39681 657.93 7.00033 658.194 6.63574C658.459 6.27116 658.832 5.98633 659.315 5.78125C659.799 5.57161 660.341 5.4668 660.942 5.4668C661.854 5.4668 662.576 5.69694 663.109 6.15723C663.647 6.61296 663.916 7.25553 663.916 8.08496V11.291C663.921 11.9928 664.019 12.5238 664.21 12.8838V13H662.214ZM660.58 11.626C660.872 11.626 661.141 11.5622 661.387 11.4346C661.633 11.3024 661.815 11.127 661.934 10.9082V9.63672H661.195C660.206 9.63672 659.68 9.97852 659.616 10.6621L659.609 10.7783C659.609 11.0244 659.696 11.2272 659.869 11.3867C660.042 11.5462 660.279 11.626 660.58 11.626ZM667.519 13H665.536V2.5H667.519V13ZM674.566 6.41016C675.09 5.78125 675.749 5.4668 676.542 5.4668C678.146 5.4668 678.96 6.39876 678.982 8.2627V13H677.007V8.31738C677.007 7.89355 676.916 7.58138 676.733 7.38086C676.551 7.17578 676.248 7.07324 675.824 7.07324C675.245 7.07324 674.826 7.29655 674.566 7.74316V13H672.591V2.5H674.566V6.41016ZM683.877 13.1367C682.792 13.1367 681.908 12.804 681.225 12.1387C680.546 11.4733 680.206 10.5869 680.206 9.47949V9.28809C680.206 8.54525 680.35 7.88216 680.637 7.29883C680.924 6.71094 681.329 6.25977 681.854 5.94531C682.382 5.6263 682.984 5.4668 683.658 5.4668C684.67 5.4668 685.465 5.78581 686.044 6.42383C686.627 7.06185 686.919 7.96647 686.919 9.1377V9.94434H682.209C682.273 10.4274 682.464 10.8148 682.783 11.1064C683.107 11.3981 683.515 11.5439 684.007 11.5439C684.768 11.5439 685.363 11.2682 685.791 10.7168L686.762 11.8037C686.465 12.223 686.064 12.5511 685.559 12.7881C685.053 13.0205 684.492 13.1367 683.877 13.1367ZM683.651 7.06641C683.259 7.06641 682.94 7.19857 682.694 7.46289C682.453 7.72721 682.298 8.10547 682.229 8.59766H684.978V8.44043C684.968 8.00293 684.85 7.66569 684.622 7.42871C684.394 7.18717 684.071 7.06641 683.651 7.06641ZM692.333 13C692.242 12.8223 692.176 12.6012 692.135 12.3369C691.656 12.8701 691.034 13.1367 690.269 13.1367C689.544 13.1367 688.942 12.9271 688.464 12.5078C687.99 12.0885 687.753 11.5599 687.753 10.9219C687.753 10.138 688.042 9.53646 688.621 9.11719C689.204 8.69792 690.045 8.486 691.144 8.48145H692.053V8.05762C692.053 7.71582 691.964 7.44238 691.786 7.2373C691.613 7.03223 691.337 6.92969 690.959 6.92969C690.626 6.92969 690.364 7.00944 690.173 7.16895C689.986 7.32845 689.893 7.5472 689.893 7.8252H687.917C687.917 7.39681 688.049 7.00033 688.313 6.63574C688.578 6.27116 688.951 5.98633 689.435 5.78125C689.918 5.57161 690.46 5.4668 691.062 5.4668C691.973 5.4668 692.695 5.69694 693.229 6.15723C693.766 6.61296 694.035 7.25553 694.035 8.08496V11.291C694.04 11.9928 694.138 12.5238 694.329 12.8838V13H692.333ZM690.699 11.626C690.991 11.626 691.26 11.5622 691.506 11.4346C691.752 11.3024 691.934 11.127 692.053 10.9082V9.63672H691.314C690.326 9.63672 689.799 9.97852 689.735 10.6621L689.729 10.7783C689.729 11.0244 689.815 11.2272 689.988 11.3867C690.161 11.5462 690.398 11.626 690.699 11.626ZM697.638 13H695.655V2.5H697.638V13ZM701.637 3.78516V5.60352H702.901V7.05273H701.637V10.7441C701.637 11.0176 701.689 11.2135 701.794 11.332C701.899 11.4505 702.099 11.5098 702.396 11.5098C702.614 11.5098 702.808 11.4938 702.977 11.4619V12.959C702.589 13.0775 702.19 13.1367 701.78 13.1367C700.395 13.1367 699.688 12.4372 699.661 11.0381V7.05273H698.581V5.60352H699.661V3.78516H701.637ZM705.93 6.41016C706.454 5.78125 707.112 5.4668 707.905 5.4668C709.509 5.4668 710.323 6.39876 710.346 8.2627V13H708.37V8.31738C708.37 7.89355 708.279 7.58138 708.097 7.38086C707.914 7.17578 707.611 7.07324 707.188 7.07324C706.609 7.07324 706.189 7.29655 705.93 7.74316V13H703.954V2.5H705.93V6.41016ZM714.912 11.5439C715.277 11.5439 715.573 11.4437 715.801 11.2432C716.029 11.0426 716.147 10.776 716.156 10.4434H718.009C718.004 10.9447 717.868 11.4049 717.599 11.8242C717.33 12.2389 716.961 12.5625 716.491 12.7949C716.026 13.0228 715.511 13.1367 714.946 13.1367C713.889 13.1367 713.055 12.8018 712.444 12.1318C711.834 11.4574 711.528 10.5277 711.528 9.34277V9.21289C711.528 8.07357 711.831 7.16439 712.438 6.48535C713.044 5.80632 713.875 5.4668 714.933 5.4668C715.858 5.4668 716.598 5.73112 717.154 6.25977C717.715 6.78385 718 7.4834 718.009 8.3584H716.156C716.147 7.97559 716.029 7.66569 715.801 7.42871C715.573 7.18717 715.272 7.06641 714.898 7.06641C714.438 7.06641 714.09 7.23503 713.853 7.57227C713.62 7.90495 713.504 8.44727 713.504 9.19922V9.4043C713.504 10.1654 713.62 10.7122 713.853 11.0449C714.085 11.3776 714.438 11.5439 714.912 11.5439ZM723.423 13C723.332 12.8223 723.266 12.6012 723.225 12.3369C722.746 12.8701 722.124 13.1367 721.358 13.1367C720.634 13.1367 720.032 12.9271 719.554 12.5078C719.08 12.0885 718.843 11.5599 718.843 10.9219C718.843 10.138 719.132 9.53646 719.711 9.11719C720.294 8.69792 721.135 8.486 722.233 8.48145H723.143V8.05762C723.143 7.71582 723.054 7.44238 722.876 7.2373C722.703 7.03223 722.427 6.92969 722.049 6.92969C721.716 6.92969 721.454 7.00944 721.263 7.16895C721.076 7.32845 720.982 7.5472 720.982 7.8252H719.007C719.007 7.39681 719.139 7.00033 719.403 6.63574C719.668 6.27116 720.041 5.98633 720.524 5.78125C721.007 5.57161 721.55 5.4668 722.151 5.4668C723.063 5.4668 723.785 5.69694 724.318 6.15723C724.856 6.61296 725.125 7.25553 725.125 8.08496V11.291C725.13 11.9928 725.228 12.5238 725.419 12.8838V13H723.423ZM721.789 11.626C722.081 11.626 722.35 11.5622 722.596 11.4346C722.842 11.3024 723.024 11.127 723.143 10.9082V9.63672H722.404C721.415 9.63672 720.889 9.97852 720.825 10.6621L720.818 10.7783C720.818 11.0244 720.905 11.2272 721.078 11.3867C721.251 11.5462 721.488 11.626 721.789 11.626ZM730.799 7.45605C730.53 7.4196 730.293 7.40137 730.088 7.40137C729.34 7.40137 728.851 7.6543 728.618 8.16016V13H726.643V5.60352H728.509L728.563 6.48535C728.96 5.80632 729.509 5.4668 730.211 5.4668C730.43 5.4668 730.635 5.49642 730.826 5.55566L730.799 7.45605ZM735.023 13.1367C733.939 13.1367 733.055 12.804 732.371 12.1387C731.692 11.4733 731.353 10.5869 731.353 9.47949V9.28809C731.353 8.54525 731.496 7.88216 731.783 7.29883C732.07 6.71094 732.476 6.25977 733 5.94531C733.529 5.6263 734.13 5.4668 734.805 5.4668C735.816 5.4668 736.612 5.78581 737.19 6.42383C737.774 7.06185 738.065 7.96647 738.065 9.1377V9.94434H733.355C733.419 10.4274 733.611 10.8148 733.93 11.1064C734.253 11.3981 734.661 11.5439 735.153 11.5439C735.914 11.5439 736.509 11.2682 736.938 10.7168L737.908 11.8037C737.612 12.223 737.211 12.5511 736.705 12.7881C736.199 13.0205 735.639 13.1367 735.023 13.1367ZM734.798 7.06641C734.406 7.06641 734.087 7.19857 733.841 7.46289C733.599 7.72721 733.444 8.10547 733.376 8.59766H736.124V8.44043C736.115 8.00293 735.996 7.66569 735.769 7.42871C735.541 7.18717 735.217 7.06641 734.798 7.06641ZM653.99 26.9561C653.99 26.7145 653.869 26.5254 653.628 26.3887C653.391 26.2474 653.008 26.1221 652.479 26.0127C650.72 25.6436 649.841 24.8962 649.841 23.7705C649.841 23.1143 650.112 22.5674 650.654 22.1299C651.201 21.6878 651.914 21.4668 652.794 21.4668C653.733 21.4668 654.482 21.6878 655.043 22.1299C655.608 22.5719 655.891 23.1462 655.891 23.8525H653.915C653.915 23.57 653.824 23.3376 653.642 23.1553C653.459 22.9684 653.174 22.875 652.787 22.875C652.454 22.875 652.197 22.9502 652.015 23.1006C651.832 23.251 651.741 23.4424 651.741 23.6748C651.741 23.8936 651.844 24.0713 652.049 24.208C652.258 24.3402 652.609 24.4564 653.102 24.5566C653.594 24.6523 654.008 24.7617 654.346 24.8848C655.389 25.2676 655.911 25.9307 655.911 26.874C655.911 27.5485 655.622 28.0954 655.043 28.5146C654.464 28.9294 653.717 29.1367 652.801 29.1367C652.181 29.1367 651.63 29.0273 651.146 28.8086C650.668 28.5853 650.292 28.2822 650.019 27.8994C649.745 27.512 649.608 27.0951 649.608 26.6484H651.481C651.5 26.9993 651.63 27.2682 651.871 27.4551C652.113 27.6419 652.436 27.7354 652.842 27.7354C653.22 27.7354 653.505 27.6647 653.696 27.5234C653.892 27.3776 653.99 27.1885 653.99 26.9561ZM659.555 19.7852V21.6035H660.819V23.0527H659.555V26.7441C659.555 27.0176 659.607 27.2135 659.712 27.332C659.817 27.4505 660.017 27.5098 660.313 27.5098C660.532 27.5098 660.726 27.4938 660.895 27.4619V28.959C660.507 29.0775 660.108 29.1367 659.698 29.1367C658.313 29.1367 657.606 28.4372 657.579 27.0381V23.0527H656.499V21.6035H657.579V19.7852H659.555ZM666.206 29C666.115 28.8223 666.049 28.6012 666.008 28.3369C665.529 28.8701 664.907 29.1367 664.142 29.1367C663.417 29.1367 662.815 28.9271 662.337 28.5078C661.863 28.0885 661.626 27.5599 661.626 26.9219C661.626 26.138 661.915 25.5365 662.494 25.1172C663.077 24.6979 663.918 24.486 665.017 24.4814H665.926V24.0576C665.926 23.7158 665.837 23.4424 665.659 23.2373C665.486 23.0322 665.21 22.9297 664.832 22.9297C664.499 22.9297 664.237 23.0094 664.046 23.1689C663.859 23.3285 663.766 23.5472 663.766 23.8252H661.79C661.79 23.3968 661.922 23.0003 662.187 22.6357C662.451 22.2712 662.825 21.9863 663.308 21.7812C663.791 21.5716 664.333 21.4668 664.935 21.4668C665.846 21.4668 666.568 21.6969 667.102 22.1572C667.639 22.613 667.908 23.2555 667.908 24.085V27.291C667.913 27.9928 668.011 28.5238 668.202 28.8838V29H666.206ZM664.572 27.626C664.864 27.626 665.133 27.5622 665.379 27.4346C665.625 27.3024 665.807 27.127 665.926 26.9082V25.6367H665.188C664.199 25.6367 663.672 25.9785 663.608 26.6621L663.602 26.7783C663.602 27.0244 663.688 27.2272 663.861 27.3867C664.035 27.5462 664.271 27.626 664.572 27.626ZM671.244 21.6035L671.306 22.458C671.834 21.7972 672.543 21.4668 673.432 21.4668C674.215 21.4668 674.799 21.6969 675.182 22.1572C675.564 22.6175 675.76 23.3057 675.77 24.2217V29H673.794V24.2695C673.794 23.8503 673.703 23.5472 673.521 23.3604C673.338 23.1689 673.035 23.0732 672.611 23.0732C672.055 23.0732 671.638 23.3102 671.36 23.7842V29H669.385V21.6035H671.244ZM676.966 25.2471C676.966 24.0941 677.223 23.1758 677.738 22.4922C678.258 21.8086 678.966 21.4668 679.864 21.4668C680.584 21.4668 681.179 21.7357 681.648 22.2734V18.5H683.631V29H681.847L681.751 28.2139C681.259 28.8291 680.625 29.1367 679.851 29.1367C678.98 29.1367 678.281 28.7949 677.752 28.1113C677.228 27.4232 676.966 26.4684 676.966 25.2471ZM678.941 25.3906C678.941 26.0833 679.062 26.6143 679.304 26.9834C679.545 27.3525 679.896 27.5371 680.356 27.5371C680.967 27.5371 681.398 27.2796 681.648 26.7646V23.8457C681.402 23.3307 680.976 23.0732 680.37 23.0732C679.418 23.0732 678.941 23.8457 678.941 25.3906ZM689.448 29C689.357 28.8223 689.291 28.6012 689.25 28.3369C688.771 28.8701 688.149 29.1367 687.384 29.1367C686.659 29.1367 686.058 28.9271 685.579 28.5078C685.105 28.0885 684.868 27.5599 684.868 26.9219C684.868 26.138 685.158 25.5365 685.736 25.1172C686.32 24.6979 687.16 24.486 688.259 24.4814H689.168V24.0576C689.168 23.7158 689.079 23.4424 688.901 23.2373C688.728 23.0322 688.452 22.9297 688.074 22.9297C687.742 22.9297 687.479 23.0094 687.288 23.1689C687.101 23.3285 687.008 23.5472 687.008 23.8252H685.032C685.032 23.3968 685.164 23.0003 685.429 22.6357C685.693 22.2712 686.067 21.9863 686.55 21.7812C687.033 21.5716 687.575 21.4668 688.177 21.4668C689.088 21.4668 689.811 21.6969 690.344 22.1572C690.882 22.613 691.15 23.2555 691.15 24.085V27.291C691.155 27.9928 691.253 28.5238 691.444 28.8838V29H689.448ZM687.814 27.626C688.106 27.626 688.375 27.5622 688.621 27.4346C688.867 27.3024 689.049 27.127 689.168 26.9082V25.6367H688.43C687.441 25.6367 686.914 25.9785 686.851 26.6621L686.844 26.7783C686.844 27.0244 686.93 27.2272 687.104 27.3867C687.277 27.5462 687.514 27.626 687.814 27.626ZM696.824 23.4561C696.555 23.4196 696.318 23.4014 696.113 23.4014C695.366 23.4014 694.876 23.6543 694.644 24.1602V29H692.668V21.6035H694.534L694.589 22.4854C694.985 21.8063 695.535 21.4668 696.236 21.4668C696.455 21.4668 696.66 21.4964 696.852 21.5557L696.824 23.4561ZM697.337 25.2471C697.337 24.0941 697.594 23.1758 698.109 22.4922C698.629 21.8086 699.338 21.4668 700.235 21.4668C700.955 21.4668 701.55 21.7357 702.02 22.2734V18.5H704.002V29H702.218L702.122 28.2139C701.63 28.8291 700.996 29.1367 700.222 29.1367C699.351 29.1367 698.652 28.7949 698.123 28.1113C697.599 27.4232 697.337 26.4684 697.337 25.2471ZM699.312 25.3906C699.312 26.0833 699.433 26.6143 699.675 26.9834C699.916 27.3525 700.267 27.5371 700.728 27.5371C701.338 27.5371 701.769 27.2796 702.02 26.7646V23.8457C701.773 23.3307 701.347 23.0732 700.741 23.0732C699.789 23.0732 699.312 23.8457 699.312 25.3906Z" fill="#1F2432"/>
<path d="M3.47461 184.927H8.19141V186H2.15527V176.047H3.47461V184.927ZM14.0566 186C13.9837 185.854 13.9245 185.594 13.8789 185.221C13.291 185.831 12.5892 186.137 11.7734 186.137C11.0443 186.137 10.445 185.932 9.97559 185.521C9.51074 185.107 9.27832 184.583 9.27832 183.949C9.27832 183.179 9.56999 182.582 10.1533 182.158C10.7412 181.73 11.5661 181.516 12.6279 181.516H13.8584V180.935C13.8584 180.493 13.7262 180.142 13.4619 179.882C13.1976 179.618 12.8079 179.485 12.293 179.485C11.8418 179.485 11.4635 179.599 11.1582 179.827C10.8529 180.055 10.7002 180.331 10.7002 180.654H9.42871C9.42871 180.285 9.55859 179.93 9.81836 179.588C10.0827 179.242 10.4382 178.968 10.8848 178.768C11.3359 178.567 11.8304 178.467 12.3682 178.467C13.2204 178.467 13.888 178.681 14.3711 179.109C14.8542 179.533 15.1048 180.119 15.123 180.866V184.271C15.123 184.95 15.2096 185.49 15.3828 185.891V186H14.0566ZM11.958 185.036C12.3545 185.036 12.7305 184.934 13.0859 184.729C13.4414 184.523 13.6989 184.257 13.8584 183.929V182.411H12.8672C11.3177 182.411 10.543 182.865 10.543 183.771C10.543 184.168 10.6751 184.478 10.9395 184.701C11.2038 184.924 11.5433 185.036 11.958 185.036ZM23.3672 182.384C23.3672 183.514 23.1074 184.423 22.5879 185.111C22.0684 185.795 21.3711 186.137 20.4961 186.137C19.5618 186.137 18.8395 185.806 18.3291 185.146L18.2676 186H17.1055V175.5H18.3701V179.417C18.8805 178.784 19.5846 178.467 20.4824 178.467C21.3802 178.467 22.0843 178.806 22.5947 179.485C23.1097 180.164 23.3672 181.094 23.3672 182.274V182.384ZM22.1025 182.24C22.1025 181.379 21.9362 180.714 21.6035 180.244C21.2708 179.775 20.7923 179.54 20.168 179.54C19.334 179.54 18.7347 179.927 18.3701 180.702V183.901C18.7575 184.676 19.3613 185.063 20.1816 185.063C20.7878 185.063 21.2594 184.829 21.5967 184.359C21.9339 183.89 22.1025 183.184 22.1025 182.24ZM24.6318 182.233C24.6318 181.509 24.7731 180.857 25.0557 180.278C25.3428 179.7 25.7393 179.253 26.2451 178.938C26.7555 178.624 27.3366 178.467 27.9883 178.467C28.9954 178.467 29.8089 178.815 30.4287 179.513C31.0531 180.21 31.3652 181.137 31.3652 182.295V182.384C31.3652 183.104 31.2262 183.751 30.9482 184.325C30.6748 184.895 30.2806 185.339 29.7656 185.658C29.2552 185.977 28.6673 186.137 28.002 186.137C26.9993 186.137 26.1859 185.788 25.5615 185.091C24.9417 184.394 24.6318 183.471 24.6318 182.322V182.233ZM25.9033 182.384C25.9033 183.204 26.0924 183.863 26.4707 184.359C26.8535 184.856 27.3639 185.104 28.002 185.104C28.6445 185.104 29.1549 184.854 29.5332 184.353C29.9115 183.847 30.1006 183.14 30.1006 182.233C30.1006 181.422 29.9069 180.766 29.5195 180.265C29.1367 179.759 28.6263 179.506 27.9883 179.506C27.3639 179.506 26.8604 179.754 26.4775 180.251C26.0947 180.748 25.9033 181.459 25.9033 182.384ZM36.5264 179.738C36.335 179.706 36.1276 179.69 35.9043 179.69C35.0749 179.69 34.512 180.044 34.2158 180.75V186H32.9512V178.604H34.1816L34.2021 179.458C34.6169 178.797 35.2048 178.467 35.9658 178.467C36.2119 178.467 36.3988 178.499 36.5264 178.562V179.738ZM41.9883 186C41.9154 185.854 41.8561 185.594 41.8105 185.221C41.2227 185.831 40.5208 186.137 39.7051 186.137C38.9759 186.137 38.3766 185.932 37.9072 185.521C37.4424 185.107 37.21 184.583 37.21 183.949C37.21 183.179 37.5016 182.582 38.085 182.158C38.6729 181.73 39.4977 181.516 40.5596 181.516H41.79V180.935C41.79 180.493 41.6579 180.142 41.3936 179.882C41.1292 179.618 40.7396 179.485 40.2246 179.485C39.7734 179.485 39.3952 179.599 39.0898 179.827C38.7845 180.055 38.6318 180.331 38.6318 180.654H37.3604C37.3604 180.285 37.4902 179.93 37.75 179.588C38.0143 179.242 38.3698 178.968 38.8164 178.768C39.2676 178.567 39.762 178.467 40.2998 178.467C41.152 178.467 41.8197 178.681 42.3027 179.109C42.7858 179.533 43.0365 180.119 43.0547 180.866V184.271C43.0547 184.95 43.1413 185.49 43.3145 185.891V186H41.9883ZM39.8896 185.036C40.2861 185.036 40.6621 184.934 41.0176 184.729C41.373 184.523 41.6305 184.257 41.79 183.929V182.411H40.7988C39.2493 182.411 38.4746 182.865 38.4746 183.771C38.4746 184.168 38.6068 184.478 38.8711 184.701C39.1354 184.924 39.4749 185.036 39.8896 185.036ZM46.7529 176.812V178.604H48.1338V179.581H46.7529V184.168C46.7529 184.464 46.8145 184.688 46.9375 184.838C47.0605 184.984 47.2702 185.057 47.5664 185.057C47.7122 185.057 47.9128 185.029 48.168 184.975V186C47.8353 186.091 47.5117 186.137 47.1973 186.137C46.6322 186.137 46.2061 185.966 45.9189 185.624C45.6318 185.282 45.4883 184.797 45.4883 184.168V179.581H44.1416V178.604H45.4883V176.812H46.7529ZM49.1455 182.233C49.1455 181.509 49.2868 180.857 49.5693 180.278C49.8564 179.7 50.2529 179.253 50.7588 178.938C51.2692 178.624 51.8503 178.467 52.502 178.467C53.5091 178.467 54.3226 178.815 54.9424 179.513C55.5667 180.21 55.8789 181.137 55.8789 182.295V182.384C55.8789 183.104 55.7399 183.751 55.4619 184.325C55.1885 184.895 54.7943 185.339 54.2793 185.658C53.7689 185.977 53.181 186.137 52.5156 186.137C51.513 186.137 50.6995 185.788 50.0752 185.091C49.4554 184.394 49.1455 183.471 49.1455 182.322V182.233ZM50.417 182.384C50.417 183.204 50.6061 183.863 50.9844 184.359C51.3672 184.856 51.8776 185.104 52.5156 185.104C53.1582 185.104 53.6686 184.854 54.0469 184.353C54.4251 183.847 54.6143 183.14 54.6143 182.233C54.6143 181.422 54.4206 180.766 54.0332 180.265C53.6504 179.759 53.14 179.506 52.502 179.506C51.8776 179.506 51.374 179.754 50.9912 180.251C50.6084 180.748 50.417 181.459 50.417 182.384ZM61.04 179.738C60.8486 179.706 60.6413 179.69 60.418 179.69C59.5885 179.69 59.0257 180.044 58.7295 180.75V186H57.4648V178.604H58.6953L58.7158 179.458C59.1305 178.797 59.7184 178.467 60.4795 178.467C60.7256 178.467 60.9124 178.499 61.04 178.562V179.738ZM64.752 184.147L66.4746 178.604H67.8281L64.8545 187.142C64.3942 188.372 63.6628 188.987 62.6602 188.987L62.4209 188.967L61.9492 188.878V187.853L62.291 187.88C62.7194 187.88 63.0521 187.793 63.2891 187.62C63.5306 187.447 63.7288 187.13 63.8838 186.67L64.1641 185.918L61.5254 178.604H62.9062L64.752 184.147Z" fill="#1F2432"/>
<path d="M155.683 182.842C155.56 183.895 155.17 184.708 154.514 185.282C153.862 185.852 152.994 186.137 151.909 186.137C150.734 186.137 149.79 185.715 149.079 184.872C148.373 184.029 148.02 182.901 148.02 181.488V180.531C148.02 179.606 148.184 178.793 148.512 178.091C148.845 177.389 149.314 176.851 149.92 176.478C150.526 176.099 151.228 175.91 152.026 175.91C153.083 175.91 153.93 176.206 154.569 176.799C155.207 177.387 155.578 178.202 155.683 179.246H154.363C154.25 178.453 154.001 177.879 153.618 177.523C153.24 177.168 152.709 176.99 152.026 176.99C151.187 176.99 150.528 177.3 150.05 177.92C149.576 178.54 149.339 179.422 149.339 180.565V181.529C149.339 182.609 149.565 183.468 150.016 184.106C150.467 184.744 151.098 185.063 151.909 185.063C152.639 185.063 153.197 184.899 153.584 184.571C153.976 184.239 154.236 183.662 154.363 182.842H155.683ZM156.947 182.233C156.947 181.509 157.089 180.857 157.371 180.278C157.658 179.7 158.055 179.253 158.561 178.938C159.071 178.624 159.652 178.467 160.304 178.467C161.311 178.467 162.125 178.815 162.744 179.513C163.369 180.21 163.681 181.137 163.681 182.295V182.384C163.681 183.104 163.542 183.751 163.264 184.325C162.99 184.895 162.596 185.339 162.081 185.658C161.571 185.977 160.983 186.137 160.318 186.137C159.315 186.137 158.501 185.788 157.877 185.091C157.257 184.394 156.947 183.471 156.947 182.322V182.233ZM158.219 182.384C158.219 183.204 158.408 183.863 158.786 184.359C159.169 184.856 159.68 185.104 160.318 185.104C160.96 185.104 161.471 184.854 161.849 184.353C162.227 183.847 162.416 183.14 162.416 182.233C162.416 181.422 162.222 180.766 161.835 180.265C161.452 179.759 160.942 179.506 160.304 179.506C159.68 179.506 159.176 179.754 158.793 180.251C158.41 180.748 158.219 181.459 158.219 182.384ZM164.959 182.24C164.959 181.105 165.228 180.194 165.766 179.506C166.304 178.813 167.008 178.467 167.878 178.467C168.744 178.467 169.43 178.763 169.936 179.355V175.5H171.2V186H170.038L169.977 185.207C169.471 185.827 168.767 186.137 167.864 186.137C167.008 186.137 166.308 185.786 165.766 185.084C165.228 184.382 164.959 183.466 164.959 182.336V182.24ZM166.224 182.384C166.224 183.222 166.397 183.879 166.743 184.353C167.09 184.826 167.568 185.063 168.179 185.063C168.981 185.063 169.567 184.703 169.936 183.983V180.586C169.557 179.889 168.976 179.54 168.193 179.54C167.573 179.54 167.09 179.779 166.743 180.258C166.397 180.736 166.224 181.445 166.224 182.384ZM176.238 186.137C175.236 186.137 174.42 185.809 173.791 185.152C173.162 184.492 172.848 183.61 172.848 182.507V182.274C172.848 181.541 172.987 180.887 173.265 180.312C173.547 179.734 173.939 179.283 174.441 178.959C174.946 178.631 175.493 178.467 176.081 178.467C177.043 178.467 177.79 178.784 178.323 179.417C178.857 180.05 179.123 180.957 179.123 182.138V182.664H174.112C174.131 183.393 174.343 183.983 174.748 184.435C175.158 184.881 175.678 185.104 176.307 185.104C176.753 185.104 177.132 185.013 177.442 184.831C177.751 184.649 178.023 184.407 178.255 184.106L179.028 184.708C178.408 185.66 177.478 186.137 176.238 186.137ZM176.081 179.506C175.571 179.506 175.142 179.693 174.796 180.066C174.45 180.436 174.236 180.955 174.153 181.625H177.859V181.529C177.822 180.887 177.649 180.39 177.339 180.039C177.029 179.684 176.61 179.506 176.081 179.506Z" fill="#1F2432"/>
<path d="M265.208 184.927H269.925V186H263.889V176.047H265.208V184.927ZM270.889 182.233C270.889 181.509 271.03 180.857 271.312 180.278C271.6 179.7 271.996 179.253 272.502 178.938C273.012 178.624 273.593 178.467 274.245 178.467C275.252 178.467 276.066 178.815 276.686 179.513C277.31 180.21 277.622 181.137 277.622 182.295V182.384C277.622 183.104 277.483 183.751 277.205 184.325C276.932 184.895 276.537 185.339 276.022 185.658C275.512 185.977 274.924 186.137 274.259 186.137C273.256 186.137 272.443 185.788 271.818 185.091C271.199 184.394 270.889 183.471 270.889 182.322V182.233ZM272.16 182.384C272.16 183.204 272.349 183.863 272.728 184.359C273.11 184.856 273.621 185.104 274.259 185.104C274.901 185.104 275.412 184.854 275.79 184.353C276.168 183.847 276.357 183.14 276.357 182.233C276.357 181.422 276.164 180.766 275.776 180.265C275.394 179.759 274.883 179.506 274.245 179.506C273.621 179.506 273.117 179.754 272.734 180.251C272.352 180.748 272.16 181.459 272.16 182.384ZM278.907 182.24C278.907 181.087 279.174 180.171 279.707 179.492C280.24 178.809 280.947 178.467 281.826 178.467C282.729 178.467 283.433 178.786 283.938 179.424L284 178.604H285.155V185.822C285.155 186.779 284.87 187.534 284.301 188.085C283.736 188.636 282.975 188.912 282.018 188.912C281.484 188.912 280.963 188.798 280.452 188.57C279.942 188.342 279.552 188.03 279.283 187.634L279.939 186.875C280.482 187.545 281.145 187.88 281.929 187.88C282.544 187.88 283.022 187.707 283.364 187.36C283.711 187.014 283.884 186.526 283.884 185.897V185.262C283.378 185.845 282.688 186.137 281.812 186.137C280.947 186.137 280.245 185.788 279.707 185.091C279.174 184.394 278.907 183.443 278.907 182.24ZM280.179 182.384C280.179 183.218 280.35 183.874 280.691 184.353C281.033 184.826 281.512 185.063 282.127 185.063C282.924 185.063 283.51 184.701 283.884 183.977V180.6C283.496 179.893 282.915 179.54 282.141 179.54C281.525 179.54 281.045 179.779 280.698 180.258C280.352 180.736 280.179 181.445 280.179 182.384ZM288.443 186H287.179V178.604H288.443V186ZM287.076 176.642C287.076 176.437 287.138 176.263 287.261 176.122C287.388 175.981 287.575 175.91 287.821 175.91C288.067 175.91 288.254 175.981 288.382 176.122C288.509 176.263 288.573 176.437 288.573 176.642C288.573 176.847 288.509 177.018 288.382 177.154C288.254 177.291 288.067 177.359 287.821 177.359C287.575 177.359 287.388 177.291 287.261 177.154C287.138 177.018 287.076 176.847 287.076 176.642ZM294.78 184.038C294.78 183.696 294.65 183.432 294.391 183.245C294.135 183.054 293.687 182.89 293.044 182.753C292.406 182.616 291.898 182.452 291.52 182.261C291.146 182.069 290.868 181.841 290.686 181.577C290.508 181.313 290.419 180.998 290.419 180.634C290.419 180.028 290.674 179.515 291.185 179.096C291.7 178.676 292.356 178.467 293.153 178.467C293.992 178.467 294.671 178.683 295.19 179.116C295.715 179.549 295.977 180.103 295.977 180.777H294.705C294.705 180.431 294.557 180.132 294.261 179.882C293.969 179.631 293.6 179.506 293.153 179.506C292.693 179.506 292.333 179.606 292.073 179.807C291.813 180.007 291.684 180.269 291.684 180.593C291.684 180.898 291.804 181.128 292.046 181.283C292.287 181.438 292.723 181.586 293.352 181.728C293.985 181.869 294.498 182.037 294.89 182.233C295.282 182.429 295.571 182.666 295.758 182.944C295.949 183.218 296.045 183.553 296.045 183.949C296.045 184.61 295.781 185.141 295.252 185.542C294.723 185.938 294.037 186.137 293.194 186.137C292.602 186.137 292.078 186.032 291.622 185.822C291.166 185.613 290.809 185.321 290.549 184.947C290.294 184.569 290.166 184.161 290.166 183.724H291.431C291.453 184.147 291.622 184.485 291.937 184.735C292.256 184.981 292.675 185.104 293.194 185.104C293.673 185.104 294.056 185.009 294.343 184.817C294.634 184.621 294.78 184.362 294.78 184.038ZM299.408 176.812V178.604H300.789V179.581H299.408V184.168C299.408 184.464 299.47 184.688 299.593 184.838C299.716 184.984 299.925 185.057 300.222 185.057C300.368 185.057 300.568 185.029 300.823 184.975V186C300.491 186.091 300.167 186.137 299.853 186.137C299.287 186.137 298.861 185.966 298.574 185.624C298.287 185.282 298.144 184.797 298.144 184.168V179.581H296.797V178.604H298.144V176.812H299.408ZM303.646 186H302.382V178.604H303.646V186ZM302.279 176.642C302.279 176.437 302.341 176.263 302.464 176.122C302.591 175.981 302.778 175.91 303.024 175.91C303.271 175.91 303.457 175.981 303.585 176.122C303.713 176.263 303.776 176.437 303.776 176.642C303.776 176.847 303.713 177.018 303.585 177.154C303.457 177.291 303.271 177.359 303.024 177.359C302.778 177.359 302.591 177.291 302.464 177.154C302.341 177.018 302.279 176.847 302.279 176.642ZM308.644 185.104C309.095 185.104 309.489 184.968 309.826 184.694C310.163 184.421 310.35 184.079 310.387 183.669H311.583C311.56 184.093 311.414 184.496 311.146 184.879C310.877 185.262 310.517 185.567 310.065 185.795C309.619 186.023 309.145 186.137 308.644 186.137C307.636 186.137 306.834 185.802 306.237 185.132C305.645 184.457 305.349 183.537 305.349 182.37V182.158C305.349 181.438 305.481 180.798 305.745 180.237C306.009 179.677 306.388 179.242 306.88 178.932C307.377 178.622 307.962 178.467 308.637 178.467C309.466 178.467 310.154 178.715 310.701 179.212C311.253 179.709 311.547 180.354 311.583 181.146H310.387C310.35 180.668 310.168 180.276 309.84 179.971C309.516 179.661 309.115 179.506 308.637 179.506C307.994 179.506 307.495 179.738 307.14 180.203C306.789 180.663 306.613 181.331 306.613 182.206V182.445C306.613 183.298 306.789 183.954 307.14 184.414C307.491 184.874 307.992 185.104 308.644 185.104ZM317.312 184.038C317.312 183.696 317.182 183.432 316.922 183.245C316.667 183.054 316.218 182.89 315.575 182.753C314.937 182.616 314.429 182.452 314.051 182.261C313.677 182.069 313.399 181.841 313.217 181.577C313.039 181.313 312.95 180.998 312.95 180.634C312.95 180.028 313.205 179.515 313.716 179.096C314.231 178.676 314.887 178.467 315.685 178.467C316.523 178.467 317.202 178.683 317.722 179.116C318.246 179.549 318.508 180.103 318.508 180.777H317.236C317.236 180.431 317.088 180.132 316.792 179.882C316.5 179.631 316.131 179.506 315.685 179.506C315.224 179.506 314.864 179.606 314.604 179.807C314.345 180.007 314.215 180.269 314.215 180.593C314.215 180.898 314.336 181.128 314.577 181.283C314.819 181.438 315.254 181.586 315.883 181.728C316.516 181.869 317.029 182.037 317.421 182.233C317.813 182.429 318.102 182.666 318.289 182.944C318.48 183.218 318.576 183.553 318.576 183.949C318.576 184.61 318.312 185.141 317.783 185.542C317.255 185.938 316.569 186.137 315.726 186.137C315.133 186.137 314.609 186.032 314.153 185.822C313.698 185.613 313.34 185.321 313.08 184.947C312.825 184.569 312.697 184.161 312.697 183.724H313.962C313.985 184.147 314.153 184.485 314.468 184.735C314.787 184.981 315.206 185.104 315.726 185.104C316.204 185.104 316.587 185.009 316.874 184.817C317.166 184.621 317.312 184.362 317.312 184.038ZM275.312 201.104C275.763 201.104 276.157 200.968 276.494 200.694C276.831 200.421 277.018 200.079 277.055 199.669H278.251C278.228 200.093 278.082 200.496 277.813 200.879C277.545 201.262 277.185 201.567 276.733 201.795C276.287 202.023 275.813 202.137 275.312 202.137C274.304 202.137 273.502 201.802 272.905 201.132C272.313 200.457 272.017 199.537 272.017 198.37V198.158C272.017 197.438 272.149 196.798 272.413 196.237C272.677 195.677 273.056 195.242 273.548 194.932C274.045 194.622 274.63 194.467 275.305 194.467C276.134 194.467 276.822 194.715 277.369 195.212C277.921 195.709 278.215 196.354 278.251 197.146H277.055C277.018 196.668 276.836 196.276 276.508 195.971C276.184 195.661 275.783 195.506 275.305 195.506C274.662 195.506 274.163 195.738 273.808 196.203C273.457 196.663 273.281 197.331 273.281 198.206V198.445C273.281 199.298 273.457 199.954 273.808 200.414C274.159 200.874 274.66 201.104 275.312 201.104ZM282.742 202.137C281.74 202.137 280.924 201.809 280.295 201.152C279.666 200.492 279.352 199.61 279.352 198.507V198.274C279.352 197.541 279.491 196.887 279.769 196.312C280.051 195.734 280.443 195.283 280.944 194.959C281.45 194.631 281.997 194.467 282.585 194.467C283.547 194.467 284.294 194.784 284.827 195.417C285.36 196.05 285.627 196.957 285.627 198.138V198.664H280.616C280.634 199.393 280.846 199.983 281.252 200.435C281.662 200.881 282.182 201.104 282.811 201.104C283.257 201.104 283.635 201.013 283.945 200.831C284.255 200.649 284.526 200.407 284.759 200.106L285.531 200.708C284.911 201.66 283.982 202.137 282.742 202.137ZM282.585 195.506C282.075 195.506 281.646 195.693 281.3 196.066C280.953 196.436 280.739 196.955 280.657 197.625H284.362V197.529C284.326 196.887 284.153 196.39 283.843 196.039C283.533 195.684 283.114 195.506 282.585 195.506ZM288.293 194.604L288.334 195.533C288.899 194.822 289.637 194.467 290.549 194.467C292.112 194.467 292.9 195.349 292.914 197.112V202H291.649V197.105C291.645 196.572 291.522 196.178 291.28 195.923C291.043 195.668 290.672 195.54 290.166 195.54C289.756 195.54 289.396 195.649 289.086 195.868C288.776 196.087 288.535 196.374 288.361 196.729V202H287.097V194.604H288.293ZM296.537 192.812V194.604H297.918V195.581H296.537V200.168C296.537 200.464 296.599 200.688 296.722 200.838C296.845 200.984 297.054 201.057 297.351 201.057C297.496 201.057 297.697 201.029 297.952 200.975V202C297.619 202.091 297.296 202.137 296.981 202.137C296.416 202.137 295.99 201.966 295.703 201.624C295.416 201.282 295.272 200.797 295.272 200.168V195.581H293.926V194.604H295.272V192.812H296.537ZM302.471 202.137C301.468 202.137 300.652 201.809 300.023 201.152C299.395 200.492 299.08 199.61 299.08 198.507V198.274C299.08 197.541 299.219 196.887 299.497 196.312C299.78 195.734 300.172 195.283 300.673 194.959C301.179 194.631 301.726 194.467 302.313 194.467C303.275 194.467 304.022 194.784 304.556 195.417C305.089 196.05 305.355 196.957 305.355 198.138V198.664H300.345C300.363 199.393 300.575 199.983 300.98 200.435C301.391 200.881 301.91 201.104 302.539 201.104C302.986 201.104 303.364 201.013 303.674 200.831C303.984 200.649 304.255 200.407 304.487 200.106L305.26 200.708C304.64 201.66 303.71 202.137 302.471 202.137ZM302.313 195.506C301.803 195.506 301.375 195.693 301.028 196.066C300.682 196.436 300.468 196.955 300.386 197.625H304.091V197.529C304.054 196.887 303.881 196.39 303.571 196.039C303.261 195.684 302.842 195.506 302.313 195.506ZM310.4 195.738C310.209 195.706 310.002 195.69 309.778 195.69C308.949 195.69 308.386 196.044 308.09 196.75V202H306.825V194.604H308.056L308.076 195.458C308.491 194.797 309.079 194.467 309.84 194.467C310.086 194.467 310.273 194.499 310.4 194.562V195.738Z" fill="#1F2432"/>
<path d="M388.349 186V176.047H391.159C392.024 176.047 392.79 176.238 393.455 176.621C394.121 177.004 394.633 177.549 394.993 178.255C395.358 178.961 395.543 179.772 395.547 180.688V181.324C395.547 182.263 395.365 183.086 395 183.792C394.64 184.498 394.123 185.041 393.449 185.419C392.779 185.797 391.997 185.991 391.104 186H388.349ZM389.661 177.127V184.927H391.042C392.054 184.927 392.84 184.612 393.401 183.983C393.966 183.354 394.248 182.459 394.248 181.297V180.716C394.248 179.586 393.982 178.708 393.449 178.084C392.92 177.455 392.168 177.136 391.193 177.127H389.661ZM398.712 186H397.448V178.604H398.712V186ZM397.345 176.642C397.345 176.437 397.407 176.263 397.53 176.122C397.657 175.981 397.844 175.91 398.09 175.91C398.336 175.91 398.523 175.981 398.651 176.122C398.778 176.263 398.842 176.437 398.842 176.642C398.842 176.847 398.778 177.018 398.651 177.154C398.523 177.291 398.336 177.359 398.09 177.359C397.844 177.359 397.657 177.291 397.53 177.154C397.407 177.018 397.345 176.847 397.345 176.642ZM405.049 184.038C405.049 183.696 404.919 183.432 404.659 183.245C404.404 183.054 403.955 182.89 403.313 182.753C402.675 182.616 402.167 182.452 401.788 182.261C401.415 182.069 401.137 181.841 400.954 181.577C400.777 181.313 400.688 180.998 400.688 180.634C400.688 180.028 400.943 179.515 401.453 179.096C401.968 178.676 402.625 178.467 403.422 178.467C404.261 178.467 404.94 178.683 405.459 179.116C405.983 179.549 406.245 180.103 406.245 180.777H404.974C404.974 180.431 404.826 180.132 404.53 179.882C404.238 179.631 403.869 179.506 403.422 179.506C402.962 179.506 402.602 179.606 402.342 179.807C402.082 180.007 401.952 180.269 401.952 180.593C401.952 180.898 402.073 181.128 402.315 181.283C402.556 181.438 402.992 181.586 403.62 181.728C404.254 181.869 404.767 182.037 405.159 182.233C405.55 182.429 405.84 182.666 406.027 182.944C406.218 183.218 406.314 183.553 406.314 183.949C406.314 184.61 406.049 185.141 405.521 185.542C404.992 185.938 404.306 186.137 403.463 186.137C402.871 186.137 402.347 186.032 401.891 185.822C401.435 185.613 401.077 185.321 400.818 184.947C400.562 184.569 400.435 184.161 400.435 183.724H401.7C401.722 184.147 401.891 184.485 402.205 184.735C402.524 184.981 402.944 185.104 403.463 185.104C403.942 185.104 404.325 185.009 404.612 184.817C404.903 184.621 405.049 184.362 405.049 184.038ZM409.677 176.812V178.604H411.058V179.581H409.677V184.168C409.677 184.464 409.739 184.688 409.862 184.838C409.985 184.984 410.194 185.057 410.491 185.057C410.636 185.057 410.837 185.029 411.092 184.975V186C410.759 186.091 410.436 186.137 410.121 186.137C409.556 186.137 409.13 185.966 408.843 185.624C408.556 185.282 408.412 184.797 408.412 184.168V179.581H407.066V178.604H408.412V176.812H409.677ZM416.117 179.738C415.925 179.706 415.718 179.69 415.494 179.69C414.665 179.69 414.102 180.044 413.806 180.75V186H412.541V178.604H413.772L413.792 179.458C414.207 178.797 414.795 178.467 415.556 178.467C415.802 178.467 415.989 178.499 416.117 178.562V179.738ZM418.659 186H417.395V178.604H418.659V186ZM417.292 176.642C417.292 176.437 417.354 176.263 417.477 176.122C417.604 175.981 417.791 175.91 418.037 175.91C418.284 175.91 418.47 175.981 418.598 176.122C418.726 176.263 418.789 176.437 418.789 176.642C418.789 176.847 418.726 177.018 418.598 177.154C418.47 177.291 418.284 177.359 418.037 177.359C417.791 177.359 417.604 177.291 417.477 177.154C417.354 177.018 417.292 176.847 417.292 176.642ZM426.951 182.384C426.951 183.514 426.692 184.423 426.172 185.111C425.653 185.795 424.955 186.137 424.08 186.137C423.146 186.137 422.424 185.806 421.913 185.146L421.852 186H420.69V175.5H421.954V179.417C422.465 178.784 423.169 178.467 424.067 178.467C424.964 178.467 425.669 178.806 426.179 179.485C426.694 180.164 426.951 181.094 426.951 182.274V182.384ZM425.687 182.24C425.687 181.379 425.52 180.714 425.188 180.244C424.855 179.775 424.377 179.54 423.752 179.54C422.918 179.54 422.319 179.927 421.954 180.702V183.901C422.342 184.676 422.946 185.063 423.766 185.063C424.372 185.063 424.844 184.829 425.181 184.359C425.518 183.89 425.687 183.184 425.687 182.24ZM433.117 185.269C432.625 185.847 431.903 186.137 430.951 186.137C430.162 186.137 429.561 185.909 429.146 185.453C428.736 184.993 428.528 184.314 428.524 183.416V178.604H429.788V183.382C429.788 184.503 430.244 185.063 431.156 185.063C432.122 185.063 432.764 184.703 433.083 183.983V178.604H434.348V186H433.145L433.117 185.269ZM437.992 176.812V178.604H439.372V179.581H437.992V184.168C437.992 184.464 438.053 184.688 438.176 184.838C438.299 184.984 438.509 185.057 438.805 185.057C438.951 185.057 439.151 185.029 439.407 184.975V186C439.074 186.091 438.75 186.137 438.436 186.137C437.871 186.137 437.445 185.966 437.158 185.624C436.87 185.282 436.727 184.797 436.727 184.168V179.581H435.38V178.604H436.727V176.812H437.992ZM440.384 182.233C440.384 181.509 440.525 180.857 440.808 180.278C441.095 179.7 441.492 179.253 441.997 178.938C442.508 178.624 443.089 178.467 443.741 178.467C444.748 178.467 445.561 178.815 446.181 179.513C446.805 180.21 447.117 181.137 447.117 182.295V182.384C447.117 183.104 446.978 183.751 446.701 184.325C446.427 184.895 446.033 185.339 445.518 185.658C445.007 185.977 444.42 186.137 443.754 186.137C442.752 186.137 441.938 185.788 441.314 185.091C440.694 184.394 440.384 183.471 440.384 182.322V182.233ZM441.656 182.384C441.656 183.204 441.845 183.863 442.223 184.359C442.606 184.856 443.116 185.104 443.754 185.104C444.397 185.104 444.907 184.854 445.285 184.353C445.664 183.847 445.853 183.14 445.853 182.233C445.853 181.422 445.659 180.766 445.272 180.265C444.889 179.759 444.379 179.506 443.741 179.506C443.116 179.506 442.613 179.754 442.23 180.251C441.847 180.748 441.656 181.459 441.656 182.384ZM452.279 179.738C452.087 179.706 451.88 179.69 451.657 179.69C450.827 179.69 450.264 180.044 449.968 180.75V186H448.703V178.604H449.934L449.954 179.458C450.369 178.797 450.957 178.467 451.718 178.467C451.964 178.467 452.151 178.499 452.279 178.562V179.738Z" fill="#1F2432"/>
<path d="M516.996 182.104V186H515.683V176.047H519.354C520.443 176.047 521.295 176.325 521.911 176.881C522.53 177.437 522.84 178.173 522.84 179.089C522.84 180.055 522.537 180.8 521.931 181.324C521.33 181.844 520.466 182.104 519.34 182.104H516.996ZM516.996 181.03H519.354C520.056 181.03 520.594 180.866 520.967 180.538C521.341 180.205 521.528 179.727 521.528 179.103C521.528 178.51 521.341 178.036 520.967 177.681C520.594 177.325 520.081 177.141 519.429 177.127H516.996V181.03ZM525.581 179.499C526.142 178.811 526.871 178.467 527.769 178.467C529.332 178.467 530.121 179.349 530.134 181.112V186H528.87V181.105C528.865 180.572 528.742 180.178 528.5 179.923C528.263 179.668 527.892 179.54 527.386 179.54C526.976 179.54 526.616 179.649 526.306 179.868C525.996 180.087 525.755 180.374 525.581 180.729V186H524.317V175.5H525.581V179.499ZM536.594 186C536.521 185.854 536.462 185.594 536.416 185.221C535.829 185.831 535.127 186.137 534.311 186.137C533.582 186.137 532.983 185.932 532.513 185.521C532.048 185.107 531.816 184.583 531.816 183.949C531.816 183.179 532.108 182.582 532.691 182.158C533.279 181.73 534.104 181.516 535.165 181.516H536.396V180.935C536.396 180.493 536.264 180.142 535.999 179.882C535.735 179.618 535.345 179.485 534.831 179.485C534.379 179.485 534.001 179.599 533.696 179.827C533.39 180.055 533.238 180.331 533.238 180.654H531.966C531.966 180.285 532.096 179.93 532.356 179.588C532.62 179.242 532.976 178.968 533.422 178.768C533.873 178.567 534.368 178.467 534.906 178.467C535.758 178.467 536.426 178.681 536.909 179.109C537.392 179.533 537.642 180.119 537.661 180.866V184.271C537.661 184.95 537.747 185.49 537.92 185.891V186H536.594ZM534.496 185.036C534.892 185.036 535.268 184.934 535.623 184.729C535.979 184.523 536.236 184.257 536.396 183.929V182.411H535.405C533.855 182.411 533.081 182.865 533.081 183.771C533.081 184.168 533.213 184.478 533.477 184.701C533.741 184.924 534.081 185.036 534.496 185.036ZM543.218 179.738C543.027 179.706 542.819 179.69 542.596 179.69C541.767 179.69 541.204 180.044 540.908 180.75V186H539.643V178.604H540.873L540.894 179.458C541.309 178.797 541.897 178.467 542.658 178.467C542.904 178.467 543.091 178.499 543.218 178.562V179.738ZM545.577 178.604L545.611 179.424C546.153 178.786 546.885 178.467 547.805 178.467C548.84 178.467 549.544 178.863 549.917 179.656C550.164 179.301 550.483 179.014 550.874 178.795C551.271 178.576 551.738 178.467 552.276 178.467C553.898 178.467 554.723 179.326 554.75 181.044V186H553.486V181.119C553.486 180.59 553.365 180.196 553.123 179.937C552.882 179.672 552.476 179.54 551.907 179.54C551.437 179.54 551.048 179.681 550.738 179.964C550.428 180.242 550.248 180.618 550.198 181.092V186H548.926V181.153C548.926 180.078 548.4 179.54 547.347 179.54C546.518 179.54 545.95 179.893 545.645 180.6V186H544.38V178.604H545.577ZM561.231 186C561.158 185.854 561.099 185.594 561.053 185.221C560.465 185.831 559.763 186.137 558.948 186.137C558.219 186.137 557.619 185.932 557.15 185.521C556.685 185.107 556.453 184.583 556.453 183.949C556.453 183.179 556.744 182.582 557.328 182.158C557.915 181.73 558.74 181.516 559.802 181.516H561.033V180.935C561.033 180.493 560.9 180.142 560.636 179.882C560.372 179.618 559.982 179.485 559.467 179.485C559.016 179.485 558.638 179.599 558.332 179.827C558.027 180.055 557.874 180.331 557.874 180.654H556.603C556.603 180.285 556.733 179.93 556.993 179.588C557.257 179.242 557.612 178.968 558.059 178.768C558.51 178.567 559.005 178.467 559.542 178.467C560.395 178.467 561.062 178.681 561.545 179.109C562.028 179.533 562.279 180.119 562.297 180.866V184.271C562.297 184.95 562.384 185.49 562.557 185.891V186H561.231ZM559.132 185.036C559.529 185.036 559.905 184.934 560.26 184.729C560.616 184.523 560.873 184.257 561.033 183.929V182.411H560.041C558.492 182.411 557.717 182.865 557.717 183.771C557.717 184.168 557.849 184.478 558.114 184.701C558.378 184.924 558.718 185.036 559.132 185.036ZM567.247 185.104C567.698 185.104 568.092 184.968 568.429 184.694C568.766 184.421 568.953 184.079 568.99 183.669H570.186C570.163 184.093 570.017 184.496 569.748 184.879C569.48 185.262 569.12 185.567 568.668 185.795C568.222 186.023 567.748 186.137 567.247 186.137C566.239 186.137 565.437 185.802 564.84 185.132C564.248 184.457 563.952 183.537 563.952 182.37V182.158C563.952 181.438 564.084 180.798 564.348 180.237C564.612 179.677 564.991 179.242 565.483 178.932C565.98 178.622 566.565 178.467 567.24 178.467C568.069 178.467 568.757 178.715 569.304 179.212C569.856 179.709 570.15 180.354 570.186 181.146H568.99C568.953 180.668 568.771 180.276 568.443 179.971C568.119 179.661 567.718 179.506 567.24 179.506C566.597 179.506 566.098 179.738 565.743 180.203C565.392 180.663 565.216 181.331 565.216 182.206V182.445C565.216 183.298 565.392 183.954 565.743 184.414C566.094 184.874 566.595 185.104 567.247 185.104ZM574.028 184.147L575.75 178.604H577.104L574.13 187.142C573.67 188.372 572.939 188.987 571.936 188.987L571.697 188.967L571.225 188.878V187.853L571.567 187.88C571.995 187.88 572.328 187.793 572.565 187.62C572.806 187.447 573.005 187.13 573.16 186.67L573.44 185.918L570.801 178.604H572.182L574.028 184.147ZM578.492 186.854H577.405L581.561 176.047H582.641L578.492 186.854ZM519.484 198.24C519.484 197.105 519.753 196.194 520.29 195.506C520.828 194.813 521.532 194.467 522.403 194.467C523.269 194.467 523.955 194.763 524.46 195.355V191.5H525.725V202H524.563L524.501 201.207C523.996 201.827 523.291 202.137 522.389 202.137C521.532 202.137 520.833 201.786 520.29 201.084C519.753 200.382 519.484 199.466 519.484 198.336V198.24ZM520.748 198.384C520.748 199.222 520.922 199.879 521.268 200.353C521.614 200.826 522.093 201.063 522.704 201.063C523.506 201.063 524.091 200.703 524.46 199.983V196.586C524.082 195.889 523.501 195.54 522.717 195.54C522.097 195.54 521.614 195.779 521.268 196.258C520.922 196.736 520.748 197.445 520.748 198.384ZM531.269 195.738C531.078 195.706 530.87 195.69 530.647 195.69C529.817 195.69 529.255 196.044 528.958 196.75V202H527.694V194.604H528.924L528.945 195.458C529.359 194.797 529.947 194.467 530.708 194.467C530.955 194.467 531.141 194.499 531.269 194.562V195.738ZM537.004 201.269C536.512 201.847 535.79 202.137 534.837 202.137C534.049 202.137 533.447 201.909 533.033 201.453C532.622 200.993 532.415 200.314 532.411 199.416V194.604H533.675V199.382C533.675 200.503 534.131 201.063 535.042 201.063C536.009 201.063 536.651 200.703 536.97 199.983V194.604H538.235V202H537.032L537.004 201.269ZM539.862 198.24C539.862 197.087 540.128 196.171 540.662 195.492C541.195 194.809 541.901 194.467 542.781 194.467C543.683 194.467 544.387 194.786 544.893 195.424L544.955 194.604H546.11V201.822C546.11 202.779 545.825 203.534 545.255 204.085C544.69 204.636 543.929 204.912 542.972 204.912C542.439 204.912 541.917 204.798 541.407 204.57C540.896 204.342 540.507 204.03 540.238 203.634L540.894 202.875C541.436 203.545 542.099 203.88 542.883 203.88C543.498 203.88 543.977 203.707 544.319 203.36C544.665 203.014 544.838 202.526 544.838 201.897V201.262C544.332 201.845 543.642 202.137 542.767 202.137C541.901 202.137 541.199 201.788 540.662 201.091C540.128 200.394 539.862 199.443 539.862 198.24ZM541.133 198.384C541.133 199.218 541.304 199.874 541.646 200.353C541.988 200.826 542.466 201.063 543.081 201.063C543.879 201.063 544.465 200.701 544.838 199.977V196.6C544.451 195.893 543.87 195.54 543.095 195.54C542.48 195.54 541.999 195.779 541.653 196.258C541.306 196.736 541.133 197.445 541.133 198.384ZM552.331 200.038C552.331 199.696 552.201 199.432 551.941 199.245C551.686 199.054 551.237 198.89 550.594 198.753C549.956 198.616 549.448 198.452 549.07 198.261C548.696 198.069 548.418 197.841 548.236 197.577C548.058 197.313 547.969 196.998 547.969 196.634C547.969 196.028 548.224 195.515 548.735 195.096C549.25 194.676 549.906 194.467 550.704 194.467C551.542 194.467 552.221 194.683 552.741 195.116C553.265 195.549 553.527 196.103 553.527 196.777H552.255C552.255 196.431 552.107 196.132 551.811 195.882C551.519 195.631 551.15 195.506 550.704 195.506C550.243 195.506 549.883 195.606 549.623 195.807C549.364 196.007 549.234 196.269 549.234 196.593C549.234 196.898 549.355 197.128 549.596 197.283C549.838 197.438 550.273 197.586 550.902 197.728C551.535 197.869 552.048 198.037 552.44 198.233C552.832 198.429 553.121 198.666 553.308 198.944C553.499 199.218 553.595 199.553 553.595 199.949C553.595 200.61 553.331 201.141 552.802 201.542C552.274 201.938 551.588 202.137 550.745 202.137C550.152 202.137 549.628 202.032 549.172 201.822C548.717 201.613 548.359 201.321 548.099 200.947C547.844 200.569 547.716 200.161 547.716 199.724H548.981C549.004 200.147 549.172 200.485 549.487 200.735C549.806 200.981 550.225 201.104 550.745 201.104C551.223 201.104 551.606 201.009 551.893 200.817C552.185 200.621 552.331 200.362 552.331 200.038ZM556.958 192.812V194.604H558.339V195.581H556.958V200.168C556.958 200.464 557.02 200.688 557.143 200.838C557.266 200.984 557.476 201.057 557.772 201.057C557.918 201.057 558.118 201.029 558.373 200.975V202C558.041 202.091 557.717 202.137 557.403 202.137C556.838 202.137 556.412 201.966 556.124 201.624C555.837 201.282 555.694 200.797 555.694 200.168V195.581H554.347V194.604H555.694V192.812H556.958ZM559.351 198.233C559.351 197.509 559.492 196.857 559.775 196.278C560.062 195.7 560.458 195.253 560.964 194.938C561.475 194.624 562.056 194.467 562.707 194.467C563.715 194.467 564.528 194.815 565.148 195.513C565.772 196.21 566.084 197.137 566.084 198.295V198.384C566.084 199.104 565.945 199.751 565.667 200.325C565.394 200.895 565 201.339 564.485 201.658C563.974 201.977 563.386 202.137 562.721 202.137C561.719 202.137 560.905 201.788 560.281 201.091C559.661 200.394 559.351 199.471 559.351 198.322V198.233ZM560.622 198.384C560.622 199.204 560.812 199.863 561.19 200.359C561.573 200.856 562.083 201.104 562.721 201.104C563.364 201.104 563.874 200.854 564.252 200.353C564.631 199.847 564.82 199.14 564.82 198.233C564.82 197.422 564.626 196.766 564.239 196.265C563.856 195.759 563.345 195.506 562.707 195.506C562.083 195.506 561.58 195.754 561.197 196.251C560.814 196.748 560.622 197.459 560.622 198.384ZM571.246 195.738C571.054 195.706 570.847 195.69 570.623 195.69C569.794 195.69 569.231 196.044 568.935 196.75V202H567.67V194.604H568.901L568.921 195.458C569.336 194.797 569.924 194.467 570.685 194.467C570.931 194.467 571.118 194.499 571.246 194.562V195.738ZM575.347 202.137C574.345 202.137 573.529 201.809 572.9 201.152C572.271 200.492 571.956 199.61 571.956 198.507V198.274C571.956 197.541 572.095 196.887 572.373 196.312C572.656 195.734 573.048 195.283 573.549 194.959C574.055 194.631 574.602 194.467 575.19 194.467C576.151 194.467 576.899 194.784 577.432 195.417C577.965 196.05 578.232 196.957 578.232 198.138V198.664H573.221C573.239 199.393 573.451 199.983 573.857 200.435C574.267 200.881 574.787 201.104 575.415 201.104C575.862 201.104 576.24 201.013 576.55 200.831C576.86 200.649 577.131 200.407 577.364 200.106L578.136 200.708C577.516 201.66 576.587 202.137 575.347 202.137ZM575.19 195.506C574.679 195.506 574.251 195.693 573.905 196.066C573.558 196.436 573.344 196.955 573.262 197.625H576.967V197.529C576.931 196.887 576.758 196.39 576.448 196.039C576.138 195.684 575.719 195.506 575.19 195.506Z" fill="#1F2432"/>
<path d="M656.929 182.104V186H655.616V176.047H659.287C660.376 176.047 661.229 176.325 661.844 176.881C662.464 177.437 662.773 178.173 662.773 179.089C662.773 180.055 662.47 180.8 661.864 181.324C661.263 181.844 660.399 182.104 659.273 182.104H656.929ZM656.929 181.03H659.287C659.989 181.03 660.527 180.866 660.9 180.538C661.274 180.205 661.461 179.727 661.461 179.103C661.461 178.51 661.274 178.036 660.9 177.681C660.527 177.325 660.014 177.141 659.362 177.127H656.929V181.03ZM668.734 186C668.661 185.854 668.602 185.594 668.557 185.221C667.969 185.831 667.267 186.137 666.451 186.137C665.722 186.137 665.123 185.932 664.653 185.521C664.188 185.107 663.956 184.583 663.956 183.949C663.956 183.179 664.248 182.582 664.831 182.158C665.419 181.73 666.244 181.516 667.306 181.516H668.536V180.935C668.536 180.493 668.404 180.142 668.14 179.882C667.875 179.618 667.486 179.485 666.971 179.485C666.52 179.485 666.141 179.599 665.836 179.827C665.531 180.055 665.378 180.331 665.378 180.654H664.106C664.106 180.285 664.236 179.93 664.496 179.588C664.76 179.242 665.116 178.968 665.562 178.768C666.014 178.567 666.508 178.467 667.046 178.467C667.898 178.467 668.566 178.681 669.049 179.109C669.532 179.533 669.783 180.119 669.801 180.866V184.271C669.801 184.95 669.887 185.49 670.061 185.891V186H668.734ZM666.636 185.036C667.032 185.036 667.408 184.934 667.764 184.729C668.119 184.523 668.377 184.257 668.536 183.929V182.411H667.545C665.995 182.411 665.221 182.865 665.221 183.771C665.221 184.168 665.353 184.478 665.617 184.701C665.882 184.924 666.221 185.036 666.636 185.036ZM673.499 176.812V178.604H674.88V179.581H673.499V184.168C673.499 184.464 673.561 184.688 673.684 184.838C673.807 184.984 674.016 185.057 674.312 185.057C674.458 185.057 674.659 185.029 674.914 184.975V186C674.581 186.091 674.258 186.137 673.943 186.137C673.378 186.137 672.952 185.966 672.665 185.624C672.378 185.282 672.234 184.797 672.234 184.168V179.581H670.888V178.604H672.234V176.812H673.499ZM677.737 186H676.473V178.604H677.737V186ZM676.37 176.642C676.37 176.437 676.432 176.263 676.555 176.122C676.682 175.981 676.869 175.91 677.115 175.91C677.361 175.91 677.548 175.981 677.676 176.122C677.803 176.263 677.867 176.437 677.867 176.642C677.867 176.847 677.803 177.018 677.676 177.154C677.548 177.291 677.361 177.359 677.115 177.359C676.869 177.359 676.682 177.291 676.555 177.154C676.432 177.018 676.37 176.847 676.37 176.642ZM682.837 186.137C681.834 186.137 681.019 185.809 680.39 185.152C679.761 184.492 679.446 183.61 679.446 182.507V182.274C679.446 181.541 679.585 180.887 679.863 180.312C680.146 179.734 680.538 179.283 681.039 178.959C681.545 178.631 682.092 178.467 682.68 178.467C683.641 178.467 684.389 178.784 684.922 179.417C685.455 180.05 685.722 180.957 685.722 182.138V182.664H680.711C680.729 183.393 680.941 183.983 681.347 184.435C681.757 184.881 682.276 185.104 682.905 185.104C683.352 185.104 683.73 185.013 684.04 184.831C684.35 184.649 684.621 184.407 684.854 184.106L685.626 184.708C685.006 185.66 684.076 186.137 682.837 186.137ZM682.68 179.506C682.169 179.506 681.741 179.693 681.395 180.066C681.048 180.436 680.834 180.955 680.752 181.625H684.457V181.529C684.421 180.887 684.247 180.39 683.938 180.039C683.628 179.684 683.208 179.506 682.68 179.506ZM688.388 178.604L688.429 179.533C688.994 178.822 689.732 178.467 690.644 178.467C692.207 178.467 692.995 179.349 693.009 181.112V186H691.744V181.105C691.74 180.572 691.617 180.178 691.375 179.923C691.138 179.668 690.767 179.54 690.261 179.54C689.851 179.54 689.491 179.649 689.181 179.868C688.871 180.087 688.629 180.374 688.456 180.729V186H687.191V178.604H688.388ZM696.632 176.812V178.604H698.013V179.581H696.632V184.168C696.632 184.464 696.693 184.688 696.816 184.838C696.939 184.984 697.149 185.057 697.445 185.057C697.591 185.057 697.792 185.029 698.047 184.975V186C697.714 186.091 697.391 186.137 697.076 186.137C696.511 186.137 696.085 185.966 695.798 185.624C695.511 185.282 695.367 184.797 695.367 184.168V179.581H694.021V178.604H695.367V176.812H696.632Z" fill="#1F2432"/>
<path d="M637 80L647 70L637 60" stroke="#00DCE6" stroke-width="2"/>
<path d="M75 80L65 70L75 60" stroke="#00DCE6" stroke-width="2"/>
<path d="M65 70C292.285 70 419.715 70 647 70" stroke="#00DCE6" stroke-width="2" stroke-miterlimit="16"/>
<path d="M60 139H138" stroke="#00DCE6" stroke-miterlimit="16"/>
<path d="M139 146C142.866 146 146 142.866 146 139C146 135.134 142.866 132 139 132C135.134 132 132 135.134 132 139C132 142.866 135.134 146 139 146Z" fill="#00DCE6" fill-opacity="0.2"/>
<path d="M139 142C140.657 142 142 140.657 142 139C142 137.343 140.657 136 139 136C137.343 136 136 137.343 136 139C136 140.657 137.343 142 139 142Z" fill="#00DCE6"/>
<path d="M60 146C63.866 146 67 142.866 67 139C67 135.134 63.866 132 60 132C56.134 132 53 135.134 53 139C53 142.866 56.134 146 60 146Z" fill="#00DCE6" fill-opacity="0.2"/>
<path d="M60 142C61.6569 142 63 140.657 63 139C63 137.343 61.6569 136 60 136C58.3431 136 57 137.343 57 139C57 140.657 58.3431 142 60 142Z" fill="#00DCE6"/>
<path d="M188 139H266" stroke="#00DCE6" stroke-miterlimit="16"/>
<path d="M267 146C270.866 146 274 142.866 274 139C274 135.134 270.866 132 267 132C263.134 132 260 135.134 260 139C260 142.866 263.134 146 267 146Z" fill="#00DCE6" fill-opacity="0.2"/>
<path d="M267 142C268.657 142 270 140.657 270 139C270 137.343 268.657 136 267 136C265.343 136 264 137.343 264 139C264 140.657 265.343 142 267 142Z" fill="#00DCE6"/>
<path d="M188 146C191.866 146 195 142.866 195 139C195 135.134 191.866 132 188 132C184.134 132 181 135.134 181 139C181 142.866 184.134 146 188 146Z" fill="#00DCE6" fill-opacity="0.2"/>
<path d="M188 142C189.657 142 191 140.657 191 139C191 137.343 189.657 136 188 136C186.343 136 185 137.343 185 139C185 140.657 186.343 142 188 142Z" fill="#00DCE6"/>
<path d="M316 139H394" stroke="#00DCE6" stroke-miterlimit="16"/>
<path d="M395 146C398.866 146 402 142.866 402 139C402 135.134 398.866 132 395 132C391.134 132 388 135.134 388 139C388 142.866 391.134 146 395 146Z" fill="#00DCE6" fill-opacity="0.2"/>
<path d="M395 142C396.657 142 398 140.657 398 139C398 137.343 396.657 136 395 136C393.343 136 392 137.343 392 139C392 140.657 393.343 142 395 142Z" fill="#00DCE6"/>
<path d="M316 146C319.866 146 323 142.866 323 139C323 135.134 319.866 132 316 132C312.134 132 309 135.134 309 139C309 142.866 312.134 146 316 146Z" fill="#00DCE6" fill-opacity="0.2"/>
<path d="M316 142C317.657 142 319 140.657 319 139C319 137.343 317.657 136 316 136C314.343 136 313 137.343 313 139C313 140.657 314.343 142 316 142Z" fill="#00DCE6"/>
<path d="M445 139H523" stroke="#00DCE6" stroke-miterlimit="16"/>
<path d="M524 146C527.866 146 531 142.866 531 139C531 135.134 527.866 132 524 132C520.134 132 517 135.134 517 139C517 142.866 520.134 146 524 146Z" fill="#00DCE6" fill-opacity="0.2"/>
<path d="M524 142C525.657 142 527 140.657 527 139C527 137.343 525.657 136 524 136C522.343 136 521 137.343 521 139C521 140.657 522.343 142 524 142Z" fill="#00DCE6"/>
<path d="M445 146C448.866 146 452 142.866 452 139C452 135.134 448.866 132 445 132C441.134 132 438 135.134 438 139C438 142.866 441.134 146 445 146Z" fill="#00DCE6" fill-opacity="0.2"/>
<path d="M445 142C446.657 142 448 140.657 448 139C448 137.343 446.657 136 445 136C443.343 136 442 137.343 442 139C442 140.657 443.343 142 445 142Z" fill="#00DCE6"/>
<path d="M573 139H651" stroke="#00DCE6" stroke-miterlimit="16"/>
<path d="M652 146C655.866 146 659 142.866 659 139C659 135.134 655.866 132 652 132C648.134 132 645 135.134 645 139C645 142.866 648.134 146 652 146Z" fill="#00DCE6" fill-opacity="0.2"/>
<path d="M652 142C653.657 142 655 140.657 655 139C655 137.343 653.657 136 652 136C650.343 136 649 137.343 649 139C649 140.657 650.343 142 652 142Z" fill="#00DCE6"/>
<path d="M573 146C576.866 146 580 142.866 580 139C580 135.134 576.866 132 573 132C569.134 132 566 135.134 566 139C566 142.866 569.134 146 573 146Z" fill="#00DCE6" fill-opacity="0.2"/>
<path d="M573 142C574.657 142 576 140.657 576 139C576 137.343 574.657 136 573 136C571.343 136 570 137.343 570 139C570 140.657 571.343 142 573 142Z" fill="#00DCE6"/>
<path d="M322.176 17V7.04688H325.662C326.87 7.04688 327.786 7.2793 328.41 7.74414C329.035 8.20443 329.347 8.88118 329.347 9.77441C329.347 10.262 329.221 10.6927 328.971 11.0664C328.72 11.4355 328.371 11.7067 327.925 11.8799C328.435 12.0075 328.836 12.265 329.128 12.6523C329.424 13.0397 329.572 13.5137 329.572 14.0742C329.572 15.0312 329.267 15.7559 328.656 16.248C328.046 16.7402 327.175 16.9909 326.045 17H322.176ZM324.227 12.666V15.3525H325.983C326.466 15.3525 326.842 15.2386 327.111 15.0107C327.385 14.7783 327.521 14.4593 327.521 14.0537C327.521 13.1423 327.05 12.6797 326.106 12.666H324.227ZM324.227 11.2168H325.744C326.779 11.1986 327.296 10.7861 327.296 9.97949C327.296 9.52832 327.164 9.20475 326.899 9.00879C326.64 8.80827 326.227 8.70801 325.662 8.70801H324.227V11.2168ZM333.072 17H331.09V6.5H333.072V17ZM334.398 13.2334C334.398 12.4997 334.54 11.8457 334.822 11.2715C335.105 10.6973 335.51 10.2529 336.039 9.93848C336.572 9.62402 337.19 9.4668 337.892 9.4668C338.89 9.4668 339.703 9.77214 340.332 10.3828C340.965 10.9935 341.319 11.8229 341.392 12.8711L341.405 13.377C341.405 14.5117 341.089 15.4232 340.455 16.1113C339.822 16.7949 338.972 17.1367 337.905 17.1367C336.839 17.1367 335.987 16.7949 335.349 16.1113C334.715 15.4277 334.398 14.498 334.398 13.3223V13.2334ZM336.374 13.377C336.374 14.0788 336.506 14.6165 336.771 14.9902C337.035 15.3594 337.413 15.5439 337.905 15.5439C338.384 15.5439 338.757 15.3617 339.026 14.9971C339.295 14.6279 339.43 14.04 339.43 13.2334C339.43 12.5452 339.295 12.012 339.026 11.6338C338.757 11.2555 338.379 11.0664 337.892 11.0664C337.409 11.0664 337.035 11.2555 336.771 11.6338C336.506 12.0075 336.374 12.5885 336.374 13.377ZM345.698 15.5439C346.063 15.5439 346.359 15.4437 346.587 15.2432C346.815 15.0426 346.933 14.776 346.942 14.4434H348.795C348.79 14.9447 348.654 15.4049 348.385 15.8242C348.116 16.2389 347.747 16.5625 347.277 16.7949C346.812 17.0228 346.298 17.1367 345.732 17.1367C344.675 17.1367 343.841 16.8018 343.23 16.1318C342.62 15.4574 342.314 14.5277 342.314 13.3428V13.2129C342.314 12.0736 342.618 11.1644 343.224 10.4854C343.83 9.80632 344.661 9.4668 345.719 9.4668C346.644 9.4668 347.384 9.73112 347.94 10.2598C348.501 10.7839 348.786 11.4834 348.795 12.3584H346.942C346.933 11.9756 346.815 11.6657 346.587 11.4287C346.359 11.1872 346.058 11.0664 345.685 11.0664C345.224 11.0664 344.876 11.235 344.639 11.5723C344.406 11.9049 344.29 12.4473 344.29 13.1992V13.4043C344.29 14.1654 344.406 14.7122 344.639 15.0449C344.871 15.3776 345.224 15.5439 345.698 15.5439ZM352.609 14.0332L351.898 14.7441V17H349.923V6.5H351.898V12.3174L352.281 11.8252L354.175 9.60352H356.547L353.874 12.6865L356.779 17H354.51L352.609 14.0332ZM360.341 15.5439C360.705 15.5439 361.002 15.4437 361.229 15.2432C361.457 15.0426 361.576 14.776 361.585 14.4434H363.438C363.433 14.9447 363.296 15.4049 363.027 15.8242C362.758 16.2389 362.389 16.5625 361.92 16.7949C361.455 17.0228 360.94 17.1367 360.375 17.1367C359.318 17.1367 358.484 16.8018 357.873 16.1318C357.262 15.4574 356.957 14.5277 356.957 13.3428V13.2129C356.957 12.0736 357.26 11.1644 357.866 10.4854C358.472 9.80632 359.304 9.4668 360.361 9.4668C361.286 9.4668 362.027 9.73112 362.583 10.2598C363.144 10.7839 363.428 11.4834 363.438 12.3584H361.585C361.576 11.9756 361.457 11.6657 361.229 11.4287C361.002 11.1872 360.701 11.0664 360.327 11.0664C359.867 11.0664 359.518 11.235 359.281 11.5723C359.049 11.9049 358.933 12.4473 358.933 13.1992V13.4043C358.933 14.1654 359.049 14.7122 359.281 15.0449C359.514 15.3776 359.867 15.5439 360.341 15.5439ZM366.493 10.4102C367.017 9.78125 367.676 9.4668 368.469 9.4668C370.073 9.4668 370.886 10.3988 370.909 12.2627V17H368.934V12.3174C368.934 11.8936 368.842 11.5814 368.66 11.3809C368.478 11.1758 368.175 11.0732 367.751 11.0732C367.172 11.0732 366.753 11.2965 366.493 11.7432V17H364.518V6.5H366.493V10.4102ZM376.686 17C376.594 16.8223 376.528 16.6012 376.487 16.3369C376.009 16.8701 375.387 17.1367 374.621 17.1367C373.896 17.1367 373.295 16.9271 372.816 16.5078C372.342 16.0885 372.105 15.5599 372.105 14.9219C372.105 14.138 372.395 13.5365 372.974 13.1172C373.557 12.6979 374.398 12.486 375.496 12.4814H376.405V12.0576C376.405 11.7158 376.316 11.4424 376.139 11.2373C375.965 11.0322 375.69 10.9297 375.312 10.9297C374.979 10.9297 374.717 11.0094 374.525 11.1689C374.339 11.3285 374.245 11.5472 374.245 11.8252H372.27C372.27 11.3968 372.402 11.0003 372.666 10.6357C372.93 10.2712 373.304 9.98633 373.787 9.78125C374.27 9.57161 374.812 9.4668 375.414 9.4668C376.326 9.4668 377.048 9.69694 377.581 10.1572C378.119 10.613 378.388 11.2555 378.388 12.085V15.291C378.392 15.9928 378.49 16.5238 378.682 16.8838V17H376.686ZM375.052 15.626C375.343 15.626 375.612 15.5622 375.858 15.4346C376.104 15.3024 376.287 15.127 376.405 14.9082V13.6367H375.667C374.678 13.6367 374.152 13.9785 374.088 14.6621L374.081 14.7783C374.081 15.0244 374.168 15.2272 374.341 15.3867C374.514 15.5462 374.751 15.626 375.052 15.626ZM381.99 17H380.008V9.60352H381.99V17ZM379.892 7.68945C379.892 7.39323 379.99 7.14941 380.186 6.95801C380.386 6.7666 380.657 6.6709 380.999 6.6709C381.336 6.6709 381.605 6.7666 381.806 6.95801C382.006 7.14941 382.106 7.39323 382.106 7.68945C382.106 7.99023 382.004 8.23633 381.799 8.42773C381.598 8.61914 381.332 8.71484 380.999 8.71484C380.666 8.71484 380.397 8.61914 380.192 8.42773C379.992 8.23633 379.892 7.99023 379.892 7.68945ZM385.442 9.60352L385.504 10.458C386.033 9.7972 386.741 9.4668 387.63 9.4668C388.414 9.4668 388.997 9.69694 389.38 10.1572C389.763 10.6175 389.959 11.3057 389.968 12.2217V17H387.992V12.2695C387.992 11.8503 387.901 11.5472 387.719 11.3604C387.536 11.1689 387.233 11.0732 386.81 11.0732C386.254 11.0732 385.837 11.3102 385.559 11.7842V17H383.583V9.60352H385.442ZM319.913 23.7852V25.6035H321.178V27.0527H319.913V30.7441C319.913 31.0176 319.965 31.2135 320.07 31.332C320.175 31.4505 320.376 31.5098 320.672 31.5098C320.891 31.5098 321.084 31.4938 321.253 31.4619V32.959C320.866 33.0775 320.467 33.1367 320.057 33.1367C318.671 33.1367 317.965 32.4372 317.938 31.0381V27.0527H316.857V25.6035H317.938V23.7852H319.913ZM326.435 27.4561C326.166 27.4196 325.929 27.4014 325.724 27.4014C324.976 27.4014 324.486 27.6543 324.254 28.1602V33H322.278V25.6035H324.145L324.199 26.4854C324.596 25.8063 325.145 25.4668 325.847 25.4668C326.065 25.4668 326.271 25.4964 326.462 25.5557L326.435 27.4561ZM331.473 33C331.382 32.8223 331.315 32.6012 331.274 32.3369C330.796 32.8701 330.174 33.1367 329.408 33.1367C328.684 33.1367 328.082 32.9271 327.604 32.5078C327.13 32.0885 326.893 31.5599 326.893 30.9219C326.893 30.138 327.182 29.5365 327.761 29.1172C328.344 28.6979 329.185 28.486 330.283 28.4814H331.192V28.0576C331.192 27.7158 331.104 27.4424 330.926 27.2373C330.753 27.0322 330.477 26.9297 330.099 26.9297C329.766 26.9297 329.504 27.0094 329.312 27.1689C329.126 27.3285 329.032 27.5472 329.032 27.8252H327.057C327.057 27.3968 327.189 27.0003 327.453 26.6357C327.717 26.2712 328.091 25.9863 328.574 25.7812C329.057 25.5716 329.6 25.4668 330.201 25.4668C331.113 25.4668 331.835 25.6969 332.368 26.1572C332.906 26.613 333.175 27.2555 333.175 28.085V31.291C333.179 31.9928 333.277 32.5238 333.469 32.8838V33H331.473ZM329.839 31.626C330.131 31.626 330.399 31.5622 330.646 31.4346C330.892 31.3024 331.074 31.127 331.192 30.9082V29.6367H330.454C329.465 29.6367 328.939 29.9785 328.875 30.6621L328.868 30.7783C328.868 31.0244 328.955 31.2272 329.128 31.3867C329.301 31.5462 329.538 31.626 329.839 31.626ZM336.511 25.6035L336.572 26.458C337.101 25.7972 337.81 25.4668 338.698 25.4668C339.482 25.4668 340.065 25.6969 340.448 26.1572C340.831 26.6175 341.027 27.3057 341.036 28.2217V33H339.061V28.2695C339.061 27.8503 338.969 27.5472 338.787 27.3604C338.605 27.1689 338.302 27.0732 337.878 27.0732C337.322 27.0732 336.905 27.3102 336.627 27.7842V33H334.651V25.6035H336.511ZM346.546 30.9561C346.546 30.7145 346.425 30.5254 346.184 30.3887C345.947 30.2474 345.564 30.1221 345.035 30.0127C343.276 29.6436 342.396 28.8962 342.396 27.7705C342.396 27.1143 342.668 26.5674 343.21 26.1299C343.757 25.6878 344.47 25.4668 345.35 25.4668C346.288 25.4668 347.038 25.6878 347.599 26.1299C348.164 26.5719 348.446 27.1462 348.446 27.8525H346.471C346.471 27.57 346.38 27.3376 346.197 27.1553C346.015 26.9684 345.73 26.875 345.343 26.875C345.01 26.875 344.753 26.9502 344.57 27.1006C344.388 27.251 344.297 27.4424 344.297 27.6748C344.297 27.8936 344.399 28.0713 344.604 28.208C344.814 28.3402 345.165 28.4564 345.657 28.5566C346.149 28.6523 346.564 28.7617 346.901 28.8848C347.945 29.2676 348.467 29.9307 348.467 30.874C348.467 31.5485 348.177 32.0954 347.599 32.5146C347.02 32.9294 346.272 33.1367 345.356 33.1367C344.737 33.1367 344.185 33.0273 343.702 32.8086C343.224 32.5853 342.848 32.2822 342.574 31.8994C342.301 31.512 342.164 31.0951 342.164 30.6484H344.037C344.055 30.9993 344.185 31.2682 344.427 31.4551C344.668 31.6419 344.992 31.7354 345.397 31.7354C345.776 31.7354 346.061 31.6647 346.252 31.5234C346.448 31.3776 346.546 31.1885 346.546 30.9561ZM354.031 33C353.94 32.8223 353.874 32.6012 353.833 32.3369C353.354 32.8701 352.732 33.1367 351.967 33.1367C351.242 33.1367 350.641 32.9271 350.162 32.5078C349.688 32.0885 349.451 31.5599 349.451 30.9219C349.451 30.138 349.741 29.5365 350.319 29.1172C350.903 28.6979 351.743 28.486 352.842 28.4814H353.751V28.0576C353.751 27.7158 353.662 27.4424 353.484 27.2373C353.311 27.0322 353.035 26.9297 352.657 26.9297C352.325 26.9297 352.062 27.0094 351.871 27.1689C351.684 27.3285 351.591 27.5472 351.591 27.8252H349.615C349.615 27.3968 349.747 27.0003 350.012 26.6357C350.276 26.2712 350.65 25.9863 351.133 25.7812C351.616 25.5716 352.158 25.4668 352.76 25.4668C353.671 25.4668 354.394 25.6969 354.927 26.1572C355.465 26.613 355.733 27.2555 355.733 28.085V31.291C355.738 31.9928 355.836 32.5238 356.027 32.8838V33H354.031ZM352.397 31.626C352.689 31.626 352.958 31.5622 353.204 31.4346C353.45 31.3024 353.632 31.127 353.751 30.9082V29.6367H353.013C352.024 29.6367 351.497 29.9785 351.434 30.6621L351.427 30.7783C351.427 31.0244 351.513 31.2272 351.687 31.3867C351.86 31.5462 352.097 31.626 352.397 31.626ZM360.327 31.5439C360.692 31.5439 360.988 31.4437 361.216 31.2432C361.444 31.0426 361.562 30.776 361.571 30.4434H363.424C363.419 30.9447 363.283 31.4049 363.014 31.8242C362.745 32.2389 362.376 32.5625 361.906 32.7949C361.441 33.0228 360.926 33.1367 360.361 33.1367C359.304 33.1367 358.47 32.8018 357.859 32.1318C357.249 31.4574 356.943 30.5277 356.943 29.3428V29.2129C356.943 28.0736 357.246 27.1644 357.853 26.4854C358.459 25.8063 359.29 25.4668 360.348 25.4668C361.273 25.4668 362.013 25.7311 362.569 26.2598C363.13 26.7839 363.415 27.4834 363.424 28.3584H361.571C361.562 27.9756 361.444 27.6657 361.216 27.4287C360.988 27.1872 360.687 27.0664 360.313 27.0664C359.853 27.0664 359.505 27.235 359.268 27.5723C359.035 27.9049 358.919 28.4473 358.919 29.1992V29.4043C358.919 30.1654 359.035 30.7122 359.268 31.0449C359.5 31.3776 359.853 31.5439 360.327 31.5439ZM366.917 23.7852V25.6035H368.182V27.0527H366.917V30.7441C366.917 31.0176 366.969 31.2135 367.074 31.332C367.179 31.4505 367.38 31.5098 367.676 31.5098C367.895 31.5098 368.088 31.4938 368.257 31.4619V32.959C367.869 33.0775 367.471 33.1367 367.061 33.1367C365.675 33.1367 364.969 32.4372 364.941 31.0381V27.0527H363.861V25.6035H364.941V23.7852H366.917ZM371.367 33H369.385V25.6035H371.367V33ZM369.269 23.6895C369.269 23.3932 369.367 23.1494 369.562 22.958C369.763 22.7666 370.034 22.6709 370.376 22.6709C370.713 22.6709 370.982 22.7666 371.183 22.958C371.383 23.1494 371.483 23.3932 371.483 23.6895C371.483 23.9902 371.381 24.2363 371.176 24.4277C370.975 24.6191 370.709 24.7148 370.376 24.7148C370.043 24.7148 369.774 24.6191 369.569 24.4277C369.369 24.2363 369.269 23.9902 369.269 23.6895ZM372.693 29.2334C372.693 28.4997 372.835 27.8457 373.117 27.2715C373.4 26.6973 373.805 26.2529 374.334 25.9385C374.867 25.624 375.485 25.4668 376.187 25.4668C377.185 25.4668 377.998 25.7721 378.627 26.3828C379.26 26.9935 379.614 27.8229 379.687 28.8711L379.7 29.377C379.7 30.5117 379.383 31.4232 378.75 32.1113C378.117 32.7949 377.267 33.1367 376.2 33.1367C375.134 33.1367 374.282 32.7949 373.644 32.1113C373.01 31.4277 372.693 30.498 372.693 29.3223V29.2334ZM374.669 29.377C374.669 30.0788 374.801 30.6165 375.065 30.9902C375.33 31.3594 375.708 31.5439 376.2 31.5439C376.679 31.5439 377.052 31.3617 377.321 30.9971C377.59 30.6279 377.725 30.04 377.725 29.2334C377.725 28.5452 377.59 28.012 377.321 27.6338C377.052 27.2555 376.674 27.0664 376.187 27.0664C375.703 27.0664 375.33 27.2555 375.065 27.6338C374.801 28.0075 374.669 28.5885 374.669 29.377ZM382.735 25.6035L382.797 26.458C383.326 25.7972 384.034 25.4668 384.923 25.4668C385.707 25.4668 386.29 25.6969 386.673 26.1572C387.056 26.6175 387.252 27.3057 387.261 28.2217V33H385.285V28.2695C385.285 27.8503 385.194 27.5472 385.012 27.3604C384.829 27.1689 384.526 27.0732 384.103 27.0732C383.547 27.0732 383.13 27.3102 382.852 27.7842V33H380.876V25.6035H382.735ZM392.771 30.9561C392.771 30.7145 392.65 30.5254 392.408 30.3887C392.171 30.2474 391.788 30.1221 391.26 30.0127C389.501 29.6436 388.621 28.8962 388.621 27.7705C388.621 27.1143 388.892 26.5674 389.435 26.1299C389.981 25.6878 390.695 25.4668 391.574 25.4668C392.513 25.4668 393.263 25.6878 393.823 26.1299C394.388 26.5719 394.671 27.1462 394.671 27.8525H392.695C392.695 27.57 392.604 27.3376 392.422 27.1553C392.24 26.9684 391.955 26.875 391.567 26.875C391.235 26.875 390.977 26.9502 390.795 27.1006C390.613 27.251 390.521 27.4424 390.521 27.6748C390.521 27.8936 390.624 28.0713 390.829 28.208C391.039 28.3402 391.39 28.4564 391.882 28.5566C392.374 28.6523 392.789 28.7617 393.126 28.8848C394.17 29.2676 394.691 29.9307 394.691 30.874C394.691 31.5485 394.402 32.0954 393.823 32.5146C393.244 32.9294 392.497 33.1367 391.581 33.1367C390.961 33.1367 390.41 33.0273 389.927 32.8086C389.448 32.5853 389.072 32.2822 388.799 31.8994C388.525 31.512 388.389 31.0951 388.389 30.6484H390.262C390.28 30.9993 390.41 31.2682 390.651 31.4551C390.893 31.6419 391.216 31.7354 391.622 31.7354C392 31.7354 392.285 31.6647 392.477 31.5234C392.673 31.3776 392.771 31.1885 392.771 30.9561Z" fill="#1F2432"/>
</svg>
