<?xml version="1.0" encoding="utf-8"?>
<!-- Generator: Adobe Illustrator 15.0.0, SVG Export Plug-In . SVG Version: 6.00 Build 0)  -->
<!DOCTYPE svg PUBLIC "-//W3C//DTD SVG 1.1//EN" "http://www.w3.org/Graphics/SVG/1.1/DTD/svg11.dtd">
<svg version="1.1" id="图层_1" xmlns="http://www.w3.org/2000/svg" xmlns:xlink="http://www.w3.org/1999/xlink" x="0px" y="0px"
	 width="724px" height="206px" viewBox="0 0 724 206" enable-background="new 0 0 724 206" xml:space="preserve">
<path fill="#00DCE6" fill-opacity="0.2" d="M159.692,78c4.418,0,8-3.582,8-8s-3.582-8-8-8s-8,3.582-8,8S155.274,78,159.692,78z"/>
<path fill="#00DCE6" d="M159.692,73.992c2.209,0,4-1.789,4-3.996s-1.791-3.996-4-3.996s-4,1.789-4,3.996
	S157.483,73.992,159.692,73.992z"/>
<path fill="none" stroke="#00DCE6" stroke-miterlimit="16" stroke-dasharray="1,1" d="M159.692,123V70.385"/>
<path fill="#00DCE6" fill-opacity="0.2" d="M284.924,78c4.419,0,8-3.582,8-8s-3.581-8-8-8c-4.418,0-8,3.582-8,8
	S280.506,78,284.924,78z"/>
<path fill="#00DCE6" d="M284.924,73.992c2.209,0,4-1.789,4-3.996s-1.791-3.996-4-3.996s-4,1.789-4,3.996
	S282.715,73.992,284.924,73.992z"/>
<path fill="none" stroke="#00DCE6" stroke-miterlimit="16" stroke-dasharray="1,1" d="M284.924,123V70.385"/>
<path fill="#00DCE6" fill-opacity="0.2" d="M411.135,78c4.419,0,8-3.582,8-8s-3.581-8-8-8c-4.418,0-8,3.582-8,8
	S406.717,78,411.135,78z"/>
<path fill="#00DCE6" d="M411.135,73.992c2.209,0,4-1.789,4-3.996s-1.791-3.996-4-3.996s-4,1.789-4,3.996
	S408.926,73.992,411.135,73.992z"/>
<path fill="none" stroke="#00DCE6" stroke-miterlimit="16" stroke-dasharray="1,1" d="M411.135,123V70.385"/>
<path fill="#00DCE6" fill-opacity="0.2" d="M537.346,78c4.418,0,8-3.582,8-8s-3.582-8-8-8c-4.419,0-8,3.582-8,8
	S532.927,78,537.346,78z"/>
<path fill="#00DCE6" d="M537.346,73.992c2.209,0,4-1.789,4-3.996s-1.791-3.996-4-3.996s-4,1.789-4,3.996
	S535.137,73.992,537.346,73.992z"/>
<path fill="none" stroke="#00DCE6" stroke-miterlimit="16" stroke-dasharray="1,1" d="M537.346,123V70.385"/>
<path fill="#00DCE6" fill-opacity="0.2" d="M35,98c16.568,0,30-13.432,30-30S51.568,38,35,38S5,51.432,5,68S18.432,98,35,98z"/>
<path fill="#00DCE6" d="M35,93c13.807,0,25-11.193,25-25S48.807,43,35,43S10,54.193,10,68S21.193,93,35,93z"/>
<path fill="none" stroke="#FFFFFF" d="M24,81V55h21v26H24z"/>
<path fill="none" stroke="#FFFFFF" d="M24,62h21"/>
<path fill="none" stroke="#FFFFFF" d="M24,68h21"/>
<path fill="none" stroke="#FFFFFF" d="M24,74h21"/>
<rect x="26" y="58" fill="#FFFFFF" width="2" height="2"/>
<rect x="26" y="64" fill="#FFFFFF" width="2" height="2"/>
<rect x="26" y="70" fill="#FFFFFF" width="2" height="2"/>
<rect x="26" y="76" fill="#FFFFFF" width="2" height="2"/>
<path fill="#00DCE6" fill-opacity="0.2" d="M661,98c16.569,0,30-13.432,30-30s-13.431-30-30-30s-30,13.432-30,30S644.431,98,661,98z
	"/>
<path fill="#00DCE6" d="M661,93c13.807,0,25-11.193,25-25s-11.193-25-25-25s-25,11.193-25,25S647.193,93,661,93z"/>
<path fill="none" stroke="#FFFFFF" d="M650,82V54h22v28H650z"/>
<path fill="none" stroke="#FFFFFF" d="M660.333,69.667V73h3.334v-3.333H667v-3.333h-3.333V63h-3.334v3.333H657v3.333H660.333z"/>
<path fill="none" stroke="#FFFFFF" d="M654,82V54"/>
<path fill="#353A47" d="M35,163c13.807,0,25-11.193,25-25s-11.193-25-25-25s-25,11.193-25,25S21.193,163,35,163z"/>
<path fill="none" stroke="#FFFFFF" d="M32,143h6"/>
<path fill="none" stroke="#FFFFFF" d="M32,132h6"/>
<path fill="none" stroke="#FFFFFF" d="M35,140v6"/>
<path fill="none" stroke="#FFFFFF" d="M32.046,136.286V126h6.461v10.286l7.547,12.188c0.413,0.666-0.066,1.525-0.85,1.525H24.857
	c-0.796,0-1.273-0.886-0.834-1.551L32.046,136.286z"/>
<path fill="#353A47" d="M159.016,163c13.807,0,25-11.193,25-25s-11.193-25-25-25s-25,11.193-25,25S145.209,163,159.016,163z"/>
<path fill="none" stroke="#FFFFFF" d="M162.016,147v-17"/>
<path fill="none" stroke="#FFFFFF" d="M149.016,147v-17"/>
<path fill="none" stroke="#FFFFFF" d="M157.016,147v-17"/>
<path fill="none" stroke="#FFFFFF" d="M166.016,147v-17"/>
<path fill="none" stroke="#FFFFFF" d="M164.016,147v-17"/>
<path fill="none" stroke="#FFFFFF" d="M168.016,147v-17"/>
<path fill="none" stroke="#FFFFFF" stroke-width="1.5" d="M172.016,130v17"/>
<path fill="none" stroke="#FFFFFF" stroke-width="1.5" d="M170.016,130v17"/>
<path fill="none" stroke="#FFFFFF" stroke-width="1.5" d="M160.016,130v17"/>
<path fill="none" stroke="#FFFFFF" stroke-width="1.5" d="M154.016,130v17"/>
<path fill="none" stroke="#FFFFFF" stroke-width="1.5" d="M151.016,130v17"/>
<path fill="none" stroke="#FFFFFF" stroke-width="1.5" d="M146.016,130v17"/>
<path fill="#353A47" d="M284.6,163c13.807,0,25-11.193,25-25s-11.192-25-25-25c-13.808,0-25,11.193-25,25S270.792,163,284.6,163z"/>
<path fill="none" stroke="#FFFFFF" d="M277.6,138.611c0-1.981-1.547-3.611-3.479-3.611s-3.521,1.586-3.521,3.568
	c0,0.572,0.128,1.102,0.343,1.63c0.387,0.793,1.89,3.04,2.749,4.272l0.343,0.529l0.344-0.484c0.902-1.233,2.448-3.48,2.834-4.229
	C277.471,139.714,277.6,139.186,277.6,138.611z"/>
<path fill="none" stroke="#FFFFFF" d="M274.1,138c-0.277,0-0.5,0.225-0.5,0.5s0.223,0.5,0.5,0.5c0.276,0,0.5-0.225,0.5-0.5
	S274.376,138,274.1,138z"/>
<path fill="none" stroke="#FFFFFF" d="M298.6,138.611c0-1.981-1.547-3.611-3.479-3.611s-3.521,1.586-3.521,3.568
	c0,0.572,0.128,1.102,0.343,1.63c0.387,0.793,1.89,3.04,2.749,4.272l0.343,0.529l0.344-0.484c0.902-1.233,2.448-3.48,2.834-4.229
	C298.471,139.714,298.6,139.186,298.6,138.611z"/>
<path fill="none" stroke="#FFFFFF" d="M295.1,138c-0.277,0-0.5,0.225-0.5,0.5s0.223,0.5,0.5,0.5c0.276,0,0.5-0.225,0.5-0.5
	S295.376,138,295.1,138z"/>
<path fill="none" stroke="#FFFFFF" d="M292.6,133.947c0-4.361-3.534-7.947-7.951-7.947s-8.049,3.489-8.049,7.85
	c0,1.26,0.294,2.424,0.785,3.586c0.884,1.746,4.318,6.688,6.283,9.401l0.784,1.163l0.785-1.066c2.063-2.714,5.596-7.656,6.479-9.304
	C292.305,136.37,292.6,135.207,292.6,133.947z"/>
<path fill="none" stroke="#FFFFFF" d="M284.6,131c-1.658,0-3,1.343-3,3s1.342,3,3,3c1.656,0,3-1.343,3-3S286.256,131,284.6,131z"/>
<path fill="#353A47" d="M410.845,163c13.808,0,25-11.193,25-25s-11.192-25-25-25c-13.807,0-25,11.193-25,25S397.038,163,410.845,163
	z"/>
<path fill="none" stroke="#FFFFFF" d="M414.684,135.29h4.333l2.798,3.839h1.645v6.033h-2.194"/>
<path fill="none" stroke="#FFFFFF" d="M405.926,145h8.533v-16h-16v16h3.2"/>
<path fill="none" stroke="#FFFFFF" d="M403.459,136.703h5.407"/>
<path fill="none" stroke="#FFFFFF" d="M406.163,134v5.406"/>
<path fill="none" stroke="#FFFFFF" d="M421.266,145.164c0,1.206-0.986,2.193-2.193,2.193c-1.206,0-2.194-0.987-2.194-2.193
	c0-1.207,0.988-2.194,2.194-2.194C420.279,142.97,421.266,143.957,421.266,145.164z"/>
<path fill="none" stroke="#FFFFFF" d="M405.91,145.164c0,1.206-0.988,2.193-2.194,2.193c-1.207,0-2.193-0.987-2.193-2.193
	c0-1.207,0.986-2.194,2.193-2.194C404.922,142.97,405.91,143.957,405.91,145.164z"/>
<path fill="none" stroke="#FFFFFF" d="M414.684,145.163h2.194"/>
<path fill="none" stroke="#FFFFFF" d="M414.449,139.131h7.365"/>
<path fill="#353A47" d="M536.39,163c13.808,0,25-11.193,25-25s-11.192-25-25-25c-13.807,0-25,11.193-25,25S522.583,163,536.39,163z"
	/>
<circle fill="none" stroke="#FFFFFF" cx="536.39" cy="138" r="15"/>
<path fill="none" stroke="#FFFFFF" d="M533.723,140.667V146h5.333v-5.333h5.334v-5.334h-5.334V130h-5.333v5.333h-5.333v5.334
	H533.723z"/>
<path fill="#353A47" d="M661,163c13.807,0,25-11.193,25-25s-11.193-25-25-25s-25,11.193-25,25S647.193,163,661,163z"/>
<path fill="none" stroke="#FFFFFF" d="M666.9,134c-0.78-0.6-1.98-0.96-3.301-1.2v-0.84c1.08-0.42,1.801-1.5,1.801-2.76V128
	c0-1.68-1.261-3-3-3c-1.74,0-3,1.32-3,3v1.2c0,1.26,0.72,2.34,1.8,2.76v0.84c-2.34,0.36-4.2,1.2-4.2,3v2.4"/>
<path fill="none" stroke="#FFFFFF" d="M655.8,134.84c-0.359-0.12-0.78-0.18-1.2-0.24v-0.84c1.08-0.42,1.801-1.5,1.801-2.76v-1.2
	c0-1.68-1.261-3-3-3c-1.74,0-3,1.32-3,3v1.2c0,1.26,0.72,2.34,1.8,2.76v0.84c-2.34,0.36-4.2,1.2-4.2,3v6.601"/>
<path fill="none" stroke="#FFFFFF" d="M675,143v-2.4c0-1.439-1.08-1.5-3-1.8v-1.2c0.9-0.359,1.2-0.779,1.2-1.8v-1.2
	c0-1.38-0.96-2.399-2.4-2.399c-1.439,0-2.399,1.02-2.399,2.399v1.2c0,1.021,0.3,1.44,1.199,1.8v1.2c-0.84,0.12-1.199,0.3-1.8,0.601"
	/>
<path fill="none" stroke="#FFFFFF" d="M664.2,141.8V136.4H660v5.399h-5.4v4.2h5.4v5.4h4.2V146h5.399v-4.2H664.2z"/>
<path fill="none" stroke="#00DCE6" stroke-width="2" d="M622.595,80l10-10l-10-10"/>
<path fill="none" stroke="#00DCE6" stroke-width="2" d="M73.595,80l-10-10l10-10"/>
<path fill="none" stroke="#00DCE6" stroke-width="2" stroke-miterlimit="16" d="M63.595,70c222.371,0,347.045,0,569.416,0"/>
<path fill="none" stroke="#00DCE6" stroke-miterlimit="16" d="M58.703,139h76.313"/>
<path fill="#00DCE6" fill-opacity="0.2" d="M135.854,146c3.866,0,7-3.134,7-7s-3.134-7-7-7s-7,3.134-7,7S131.988,146,135.854,146z"
	/>
<path fill="#00DCE6" d="M135.854,142c1.657,0,3-1.343,3-3s-1.343-3-3-3s-3,1.343-3,3S134.197,142,135.854,142z"/>
<path fill="#00DCE6" fill-opacity="0.2" d="M58.854,146c3.866,0,7-3.134,7-7s-3.134-7-7-7s-7,3.134-7,7S54.988,146,58.854,146z"/>
<path fill="#00DCE6" d="M58.854,142c1.657,0,3-1.343,3-3s-1.343-3-3-3s-3,1.343-3,3S57.197,142,58.854,142z"/>
<path fill="none" stroke="#00DCE6" stroke-miterlimit="16" d="M183.935,139h76.314"/>
<path fill="#00DCE6" fill-opacity="0.2" d="M261.086,146c3.866,0,7-3.134,7-7s-3.134-7-7-7c-3.866,0-7,3.134-7,7
	S257.22,146,261.086,146z"/>
<path fill="#00DCE6" d="M261.086,142c1.657,0,3-1.343,3-3s-1.343-3-3-3c-1.656,0-3,1.343-3,3S259.43,142,261.086,142z"/>
<path fill="#00DCE6" fill-opacity="0.2" d="M184.086,146c3.866,0,7-3.134,7-7s-3.134-7-7-7c-3.866,0-7,3.134-7,7
	S180.22,146,184.086,146z"/>
<path fill="#00DCE6" d="M184.086,142c1.657,0,3-1.343,3-3s-1.343-3-3-3c-1.656,0-3,1.343-3,3S182.43,142,184.086,142z"/>
<path fill="none" stroke="#00DCE6" stroke-miterlimit="16" d="M309.167,139h76.314"/>
<path fill="#00DCE6" fill-opacity="0.2" d="M386.319,146c3.865,0,7-3.134,7-7s-3.135-7-7-7c-3.866,0-7,3.134-7,7
	S382.453,146,386.319,146z"/>
<path fill="#00DCE6" d="M386.319,142c1.656,0,3-1.343,3-3s-1.344-3-3-3c-1.657,0-3,1.343-3,3S384.662,142,386.319,142z"/>
<path fill="#00DCE6" fill-opacity="0.2" d="M309.319,146c3.865,0,7-3.134,7-7s-3.135-7-7-7c-3.866,0-7,3.134-7,7
	S305.453,146,309.319,146z"/>
<path fill="#00DCE6" d="M309.319,142c1.656,0,3-1.343,3-3s-1.344-3-3-3c-1.657,0-3,1.343-3,3S307.662,142,309.319,142z"/>
<path fill="none" stroke="#00DCE6" stroke-miterlimit="16" d="M435.378,139h76.314"/>
<path fill="#00DCE6" fill-opacity="0.2" d="M512.53,146c3.866,0,7-3.134,7-7s-3.134-7-7-7s-7,3.134-7,7S508.664,146,512.53,146z"/>
<path fill="#00DCE6" d="M512.53,142c1.657,0,3-1.343,3-3s-1.343-3-3-3s-3,1.343-3,3S510.873,142,512.53,142z"/>
<path fill="#00DCE6" fill-opacity="0.2" d="M435.53,146c3.866,0,7-3.134,7-7s-3.134-7-7-7s-7,3.134-7,7S431.664,146,435.53,146z"/>
<path fill="#00DCE6" d="M435.53,142c1.657,0,3-1.343,3-3s-1.343-3-3-3s-3,1.343-3,3S433.873,142,435.53,142z"/>
<path fill="none" stroke="#00DCE6" stroke-miterlimit="16" d="M560.611,139h76.313"/>
<path fill="#00DCE6" fill-opacity="0.2" d="M637.762,146c3.866,0,7-3.134,7-7s-3.134-7-7-7c-3.865,0-7,3.134-7,7
	S633.896,146,637.762,146z"/>
<path fill="#00DCE6" d="M637.762,142c1.657,0,3-1.343,3-3s-1.343-3-3-3c-1.656,0-3,1.343-3,3S636.105,142,637.762,142z"/>
<path fill="#00DCE6" fill-opacity="0.2" d="M560.762,146c3.866,0,7-3.134,7-7s-3.134-7-7-7c-3.865,0-7,3.134-7,7
	S556.896,146,560.762,146z"/>
<path fill="#00DCE6" d="M560.762,142c1.657,0,3-1.343,3-3s-1.343-3-3-3c-1.656,0-3,1.343-3,3S559.105,142,560.762,142z"/>
<text transform="matrix(1 0 0 1 9 28.5)" font-family="'MicrosoftYaHeiLight'" font-size="12">存储系统</text>
<text transform="matrix(1 0 0 1 325.6001 29)" font-family="'MicrosoftYaHeiLight'" font-size="12">区块链事务</text>
<text transform="matrix(1 0 0 1 637.5 20.5)"><tspan x="0" y="0" font-family="'MicrosoftYaHeiLight'" font-size="12">国家医疗</tspan><tspan x="0" y="14.4" font-family="'MicrosoftYaHeiLight'" font-size="12">保健标准</tspan></text>
<text transform="matrix(1 0 0 1 13.5 184.5)" font-family="'MicrosoftYaHeiLight'" font-size="13">实验室</text>
<text transform="matrix(1 0 0 1 146.0161 184.5)" font-family="'MicrosoftYaHeiLight'" font-size="13">编码</text>
<text transform="matrix(1 0 0 1 259.0859 184.5)" font-family="'MicrosoftYaHeiLight'" font-size="13">物流中心</text>
<text transform="matrix(1 0 0 1 391.459 184.5)" font-family="'MicrosoftYaHeiLight'" font-size="13">经销商</text>
<text transform="matrix(1 0 0 1 505.3896 184.5)" font-family="'MicrosoftYaHeiLight'" font-size="13">药房、药店</text>
<text transform="matrix(1 0 0 1 648 184.5)" font-family="'MicrosoftYaHeiLight'" font-size="13">患者</text>
</svg>
