<?xml version="1.0" encoding="utf-8"?>
<!-- Generator: Adobe Illustrator 15.0.0, SVG Export Plug-In . SVG Version: 6.00 Build 0)  -->
<!DOCTYPE svg PUBLIC "-//W3C//DTD SVG 1.1//EN" "http://www.w3.org/Graphics/SVG/1.1/DTD/svg11.dtd">
<svg version="1.1" id="图层_1" xmlns="http://www.w3.org/2000/svg" xmlns:xlink="http://www.w3.org/1999/xlink" x="0px" y="0px"
	 width="273px" height="399px" viewBox="0 0 273 399" enable-background="new 0 0 273 399" xml:space="preserve">
<path fill="#00DCE6" fill-opacity="0.2" d="M112.489,98.784c0,4.248-3.443,7.692-7.691,7.692s-7.692-3.444-7.692-7.692
	s3.444-7.691,7.692-7.691S112.489,94.536,112.489,98.784z"/>
<path fill="#00DCE6" d="M108.636,98.785c0,2.124-1.72,3.846-3.842,3.846s-3.842-1.722-3.842-3.846s1.72-3.846,3.842-3.846
	S108.636,96.661,108.636,98.785z"/>
<path fill="none" stroke="#00DCE6" stroke-width="0.9614" stroke-miterlimit="16" stroke-dasharray="0.96,0.96" d="M155.754,98.785
	h-50.587"/>
<path fill="#00DCE6" fill-opacity="0.2" d="M112.489,166.889c0,4.248-3.443,7.691-7.691,7.691s-7.692-3.443-7.692-7.691
	c0-4.248,3.444-7.692,7.692-7.692S112.489,162.641,112.489,166.889z"/>
<path fill="#00DCE6" d="M108.636,166.889c0,2.124-1.72,3.846-3.842,3.846s-3.842-1.722-3.842-3.846s1.72-3.846,3.842-3.846
	S108.636,164.765,108.636,166.889z"/>
<path fill="none" stroke="#00DCE6" stroke-width="0.9614" stroke-miterlimit="16" stroke-dasharray="0.96,0.96" d="M155.754,166.889
	h-50.587"/>
<path fill="#00DCE6" fill-opacity="0.2" d="M112.489,235.518c0,4.248-3.443,7.691-7.691,7.691s-7.692-3.443-7.692-7.691
	s3.444-7.691,7.692-7.691S112.489,231.27,112.489,235.518z"/>
<path fill="#00DCE6" d="M108.636,235.518c0,2.125-1.72,3.846-3.842,3.846s-3.842-1.721-3.842-3.846c0-2.123,1.72-3.846,3.842-3.846
	S108.636,233.395,108.636,235.518z"/>
<path fill="none" stroke="#00DCE6" stroke-width="0.9614" stroke-miterlimit="16" stroke-dasharray="0.96,0.96" d="M155.754,235.518
	h-50.587"/>
<path fill="#00DCE6" fill-opacity="0.2" d="M112.489,303.184c0,4.248-3.443,7.691-7.691,7.691s-7.692-3.443-7.692-7.691
	s3.444-7.691,7.692-7.691S112.489,298.936,112.489,303.184z"/>
<path fill="#00DCE6" d="M108.636,303.184c0,2.125-1.72,3.846-3.842,3.846s-3.842-1.721-3.842-3.846c0-2.123,1.72-3.846,3.842-3.846
	S108.636,301.061,108.636,303.184z"/>
<path fill="none" stroke="#00DCE6" stroke-width="0.9614" stroke-miterlimit="16" stroke-dasharray="0.96,0.96" d="M155.754,303.184
	h-50.587"/>
<path fill="#00DCE6" fill-opacity="0.2" d="M104.317,5.288c15.93,0,28.843,12.914,28.843,28.843s-12.913,28.843-28.843,28.843
	c-15.93,0-28.843-12.914-28.843-28.843S88.387,5.288,104.317,5.288z"/>
<path fill="#00DCE6" d="M104.317,10.095c13.275,0,24.036,10.761,24.036,24.036s-10.761,24.036-24.036,24.036
	S80.281,47.406,80.281,34.131S91.042,10.095,104.317,10.095z"/>
<path fill="none" stroke="#FFFFFF" stroke-width="0.9614" d="M93.741,21.632V46.63h20.19V21.632H93.741z"/>
<path fill="none" stroke="#FFFFFF" stroke-width="0.9614" d="M93.741,39.9h20.19"/>
<path fill="none" stroke="#FFFFFF" stroke-width="0.9614" d="M93.741,34.131h20.19"/>
<path fill="none" stroke="#FFFFFF" stroke-width="0.9614" d="M93.741,28.362h20.19"/>
<rect x="95.664" y="41.823" fill="#FFFFFF" width="1.923" height="1.923"/>
<rect x="95.664" y="36.055" fill="#FFFFFF" width="1.923" height="1.923"/>
<rect x="95.664" y="30.285" fill="#FFFFFF" width="1.923" height="1.923"/>
<rect x="95.664" y="24.517" fill="#FFFFFF" width="1.923" height="1.923"/>
<path fill="#00DCE6" fill-opacity="0.2" d="M105.052,341.313c15.93,0,28.843,12.914,28.843,28.845
	c0,15.929-12.913,28.843-28.843,28.843c-15.93,0-28.843-12.914-28.843-28.843C76.208,354.227,89.122,341.313,105.052,341.313z"/>
<path fill="#00DCE6" d="M105.052,346.12c13.275,0,24.036,10.761,24.036,24.036s-10.761,24.035-24.036,24.035
	c-13.274,0-24.036-10.76-24.036-24.035S91.777,346.12,105.052,346.12z"/>
<path fill="none" stroke="#FFFFFF" stroke-width="0.9614" d="M94.476,356.697v26.92h21.152v-26.92H94.476z"/>
<path fill="none" stroke="#FFFFFF" stroke-width="0.9614" d="M104.411,368.555v-3.205h3.205v3.205h3.205v3.204h-3.205v3.205h-3.205
	v-3.205h-3.205v-3.204H104.411z"/>
<path fill="none" stroke="#FFFFFF" stroke-width="0.9614" d="M98.322,356.695v26.922"/>
<path fill="#353A47" d="M167.555,55.764c-13.275,0-24.037-10.761-24.037-24.036s10.762-24.036,24.037-24.036
	c13.273,0,24.035,10.761,24.035,24.036S180.828,55.764,167.555,55.764z"/>
<path fill="none" stroke="#FFFFFF" stroke-width="0.9614" d="M170.438,36.535h-5.769"/>
<path fill="none" stroke="#FFFFFF" stroke-width="0.9614" d="M170.438,25.959h-5.769"/>
<path fill="none" stroke="#FFFFFF" stroke-width="0.9614" d="M167.555,33.65v5.769"/>
<path fill="none" stroke="#FFFFFF" stroke-width="0.9614" d="M170.393,30.08V20.19h-6.211v9.889l-7.221,11.659
	c-0.412,0.666,0.066,1.526,0.852,1.526h19.42c0.797,0,1.274-0.886,0.836-1.551L170.393,30.08z"/>
<path fill="#353A47" d="M167.712,123.064c-13.274,0-24.036-10.761-24.036-24.036c0-13.275,10.762-24.036,24.036-24.036
	s24.036,10.761,24.036,24.036C191.748,112.303,180.986,123.064,167.712,123.064z"/>
<path fill="none" stroke="#FFFFFF" stroke-width="0.9614" d="M164.828,107.681V91.336"/>
<path fill="none" stroke="#FFFFFF" stroke-width="0.9614" d="M177.327,107.681V91.336"/>
<path fill="none" stroke="#FFFFFF" stroke-width="0.9614" d="M169.635,107.681V91.336"/>
<path fill="none" stroke="#FFFFFF" stroke-width="0.9614" d="M160.982,107.681V91.336"/>
<path fill="none" stroke="#FFFFFF" stroke-width="0.9614" d="M162.904,107.681V91.336"/>
<path fill="none" stroke="#FFFFFF" stroke-width="0.9614" d="M159.059,107.681V91.336"/>
<path fill="none" stroke="#FFFFFF" stroke-width="1.4422" d="M155.213,91.336v16.345"/>
<path fill="none" stroke="#FFFFFF" stroke-width="1.4422" d="M157.137,91.336v16.345"/>
<path fill="none" stroke="#FFFFFF" stroke-width="1.4422" d="M166.751,91.336v16.345"/>
<path fill="none" stroke="#FFFFFF" stroke-width="1.4422" d="M172.52,91.336v16.345"/>
<path fill="none" stroke="#FFFFFF" stroke-width="1.4422" d="M175.404,91.336v16.345"/>
<path fill="none" stroke="#FFFFFF" stroke-width="1.4422" d="M180.211,91.336v16.345"/>
<path fill="#353A47" d="M167.292,191.085c-13.274,0-24.036-10.761-24.036-24.036c0-13.275,10.762-24.036,24.036-24.036
	s24.036,10.761,24.036,24.036C191.328,180.324,180.566,191.085,167.292,191.085z"/>
<path fill="none" stroke="#FFFFFF" stroke-width="0.9614" d="M174.021,167.638c0-1.906,1.486-3.473,3.345-3.473
	s3.386,1.525,3.386,3.431c0,0.55-0.124,1.059-0.33,1.567c-0.372,0.762-1.816,2.922-2.643,4.108l-0.33,0.508l-0.33-0.465
	c-0.868-1.186-2.354-3.346-2.727-4.066C174.146,168.697,174.021,168.189,174.021,167.638z"/>
<path fill="none" stroke="#FFFFFF" stroke-width="0.9614" d="M177.387,167.049c0.266,0,0.481,0.216,0.481,0.481
	c0,0.266-0.216,0.48-0.481,0.48s-0.48-0.215-0.48-0.48C176.906,167.265,177.121,167.049,177.387,167.049z"/>
<path fill="none" stroke="#FFFFFF" stroke-width="0.9614" d="M153.831,167.638c0-1.906,1.487-3.473,3.345-3.473
	c1.858,0,3.387,1.525,3.387,3.431c0,0.55-0.125,1.059-0.332,1.567c-0.371,0.762-1.815,2.922-2.642,4.108l-0.33,0.508l-0.331-0.465
	c-0.867-1.186-2.353-3.346-2.725-4.066C153.955,168.697,153.831,168.189,153.831,167.638z"/>
<path fill="none" stroke="#FFFFFF" stroke-width="0.9614" d="M157.197,167.049c0.265,0,0.479,0.216,0.479,0.481
	c0,0.266-0.215,0.48-0.479,0.48c-0.266,0-0.481-0.215-0.481-0.48C156.716,167.265,156.932,167.049,157.197,167.049z"/>
<path fill="none" stroke="#FFFFFF" stroke-width="0.9614" d="M159.6,163.152c0-4.193,3.398-7.64,7.645-7.64
	c4.247,0,7.738,3.354,7.738,7.547c0,1.212-0.282,2.33-0.754,3.448c-0.85,1.677-4.152,6.429-6.041,9.038l-0.754,1.119l-0.756-1.025
	c-1.982-2.609-5.379-7.362-6.228-8.946C159.883,165.482,159.6,164.364,159.6,163.152z"/>
<path fill="none" stroke="#FFFFFF" stroke-width="0.9614" d="M167.292,160.319c1.593,0,2.884,1.292,2.884,2.885
	c0,1.593-1.291,2.884-2.884,2.884s-2.885-1.291-2.885-2.884C164.407,161.611,165.699,160.319,167.292,160.319z"/>
<path fill="#353A47" d="M167.135,258.629c-13.275,0-24.035-10.761-24.035-24.036c0-13.274,10.76-24.036,24.035-24.036
	s24.036,10.762,24.036,24.036C191.171,247.868,180.41,258.629,167.135,258.629z"/>
<path fill="none" stroke="#FFFFFF" stroke-width="0.9614" d="M163.443,231.986h-4.166l-2.688,3.691h-1.582v5.801h2.109"/>
<path fill="none" stroke="#FFFFFF" stroke-width="0.9614" d="M171.863,241.323h-8.203v-15.384h15.383v15.384h-3.077"/>
<path fill="none" stroke="#FFFFFF" stroke-width="0.9614" d="M174.236,233.346h-5.198"/>
<path fill="none" stroke="#FFFFFF" stroke-width="0.9614" d="M171.637,230.747v5.198"/>
<path fill="none" stroke="#FFFFFF" stroke-width="0.9614" d="M157.116,241.48c0,1.16,0.948,2.109,2.108,2.109
	s2.109-0.949,2.109-2.109s-0.949-2.109-2.109-2.109S157.116,240.32,157.116,241.48z"/>
<path fill="none" stroke="#FFFFFF" stroke-width="0.9614" d="M171.88,241.48c0,1.16,0.949,2.109,2.11,2.109
	c1.16,0,2.109-0.949,2.109-2.109s-0.949-2.109-2.109-2.109C172.829,239.371,171.88,240.32,171.88,241.48z"/>
<path fill="none" stroke="#FFFFFF" stroke-width="0.9614" d="M163.443,241.479h-2.108"/>
<path fill="none" stroke="#FFFFFF" stroke-width="0.9614" d="M163.67,235.68h-7.081"/>
<path fill="#353A47" d="M167.409,326.893c-13.275,0-24.036-10.763-24.036-24.037s10.761-24.037,24.036-24.037
	c13.274,0,24.036,10.763,24.036,24.037S180.684,326.893,167.409,326.893z"/>
<circle fill="none" stroke="#FFFFFF" stroke-width="0.9614" cx="167.409" cy="302.855" r="14.422"/>
<path fill="none" stroke="#FFFFFF" stroke-width="0.9614" d="M169.973,305.419v5.128h-5.127v-5.128h-5.129v-5.127h5.129v-5.128
	h5.127v5.128h5.129v5.127H169.973z"/>
<path fill="#353A47" d="M167.292,394.191c-13.274,0-24.037-10.76-24.037-24.035s10.763-24.036,24.037-24.036
	s24.036,10.761,24.036,24.036S180.566,394.191,167.292,394.191z"/>
<path fill="none" stroke="#FFFFFF" stroke-width="0.9614" d="M161.619,366.311c0.75-0.578,1.904-0.924,3.173-1.153v-0.808
	c-1.039-0.404-1.731-1.442-1.731-2.654v-1.153c0-1.616,1.213-2.885,2.885-2.885c1.673,0,2.885,1.269,2.885,2.885v1.153
	c0,1.212-0.691,2.25-1.73,2.654v0.808c2.25,0.346,4.037,1.153,4.037,2.884v2.307"/>
<path fill="none" stroke="#FFFFFF" stroke-width="0.9614" d="M172.291,367.118c0.346-0.116,0.75-0.173,1.154-0.231v-0.808
	c-1.038-0.403-1.731-1.442-1.731-2.653v-1.154c0-1.614,1.212-2.883,2.886-2.883c1.672,0,2.883,1.269,2.883,2.883v1.154
	c0,1.211-0.691,2.25-1.73,2.653v0.808c2.25,0.346,4.038,1.154,4.038,2.885v6.346"/>
<path fill="none" stroke="#FFFFFF" stroke-width="0.9614" d="M153.831,374.964v-2.308c0-1.385,1.039-1.442,2.885-1.73v-1.154
	c-0.866-0.346-1.153-0.75-1.153-1.73v-1.152c0-1.328,0.922-2.309,2.307-2.309s2.308,0.98,2.308,2.309v1.152
	c0,0.98-0.288,1.385-1.153,1.73v1.154c0.808,0.115,1.153,0.288,1.73,0.576"/>
<path fill="none" stroke="#FFFFFF" stroke-width="0.9614" d="M164.215,373.811v-5.192h4.038v5.192h5.192v4.037h-5.192v5.192h-4.038
	v-5.192h-5.191v-4.037H164.215z"/>
<path fill="none" stroke="#00DCE6" stroke-width="1.9229" d="M114.412,332.406l-9.614,9.615l-9.615-9.615"/>
<path fill="none" stroke="#00DCE6" stroke-width="1.9229" d="M114.412,73.07l-9.615-9.614l-9.614,9.614"/>
<path fill="none" stroke="#00DCE6" stroke-width="1.9229" stroke-miterlimit="16" d="M104.797,63.455c0,108.51,0,169.348,0,277.857"
	/>
<path fill="none" stroke="#00DCE6" stroke-width="0.9614" stroke-miterlimit="16" d="M167.292,55.765v19.229"/>
<path fill="#00DCE6" fill-opacity="0.2" d="M173.061,74.993c0,3.186-2.582,5.769-5.769,5.769s-5.769-2.583-5.769-5.769
	c0-3.186,2.582-5.769,5.769-5.769S173.061,71.808,173.061,74.993z"/>
<path fill="#00DCE6" d="M169.764,74.994c0,1.366-1.106,2.473-2.473,2.473c-1.365,0-2.473-1.107-2.473-2.473
	c0-1.365,1.107-2.472,2.473-2.472C168.657,72.521,169.764,73.628,169.764,74.994z"/>
<path fill="#00DCE6" fill-opacity="0.2" d="M173.061,55.765c0,3.186-2.582,5.769-5.769,5.769s-5.769-2.583-5.769-5.769
	s2.582-5.769,5.769-5.769S173.061,52.579,173.061,55.765z"/>
<path fill="#00DCE6" d="M169.764,55.765c0,1.366-1.106,2.473-2.473,2.473c-1.365,0-2.473-1.107-2.473-2.473
	c0-1.365,1.107-2.472,2.473-2.472C168.657,53.293,169.764,54.4,169.764,55.765z"/>
<path fill="none" stroke="#00DCE6" stroke-width="0.9614" stroke-miterlimit="16" d="M167.292,123.066v19.229"/>
<path fill="#00DCE6" fill-opacity="0.2" d="M173.061,142.295c0,3.186-2.582,5.769-5.769,5.769s-5.769-2.583-5.769-5.769
	s2.582-5.769,5.769-5.769S173.061,139.109,173.061,142.295z"/>
<path fill="#00DCE6" d="M169.764,142.296c0,1.365-1.106,2.472-2.473,2.472c-1.365,0-2.473-1.107-2.473-2.472
	c0-1.366,1.107-2.473,2.473-2.473C168.657,139.823,169.764,140.93,169.764,142.296z"/>
<path fill="#00DCE6" fill-opacity="0.2" d="M173.061,123.066c0,3.186-2.582,5.768-5.769,5.768s-5.769-2.582-5.769-5.768
	s2.582-5.769,5.769-5.769S173.061,119.88,173.061,123.066z"/>
<path fill="#00DCE6" d="M169.764,123.066c0,1.365-1.106,2.472-2.473,2.472c-1.365,0-2.473-1.107-2.473-2.472
	c0-1.365,1.107-2.472,2.473-2.472C168.657,120.594,169.764,121.701,169.764,123.066z"/>
<path fill="none" stroke="#00DCE6" stroke-width="0.9614" stroke-miterlimit="16" d="M167.292,191.329v19.229"/>
<path fill="#00DCE6" fill-opacity="0.2" d="M173.061,210.559c0,3.186-2.582,5.769-5.769,5.769s-5.769-2.583-5.769-5.769
	c0-3.187,2.582-5.77,5.769-5.77S173.061,207.372,173.061,210.559z"/>
<path fill="#00DCE6" d="M169.764,210.557c0,1.366-1.106,2.474-2.473,2.474c-1.365,0-2.473-1.107-2.473-2.474
	c0-1.365,1.107-2.472,2.473-2.472C168.657,208.085,169.764,209.191,169.764,210.557z"/>
<path fill="#00DCE6" fill-opacity="0.2" d="M173.061,191.328c0,3.186-2.582,5.769-5.769,5.769s-5.769-2.583-5.769-5.769
	s2.582-5.768,5.769-5.768S173.061,188.142,173.061,191.328z"/>
<path fill="#00DCE6" d="M169.764,191.329c0,1.365-1.106,2.472-2.473,2.472c-1.365,0-2.473-1.107-2.473-2.472
	c0-1.366,1.107-2.473,2.473-2.473C168.657,188.856,169.764,189.963,169.764,191.329z"/>
<path fill="none" stroke="#00DCE6" stroke-width="0.9614" stroke-miterlimit="16" d="M167.292,259.591v19.229"/>
<path fill="#00DCE6" fill-opacity="0.2" d="M173.061,278.82c0,3.186-2.582,5.769-5.769,5.769s-5.769-2.583-5.769-5.769
	s2.582-5.769,5.769-5.769S173.061,275.635,173.061,278.82z"/>
<path fill="#00DCE6" d="M169.764,278.82c0,1.365-1.106,2.472-2.473,2.472c-1.365,0-2.473-1.106-2.473-2.472s1.107-2.473,2.473-2.473
	C168.657,276.348,169.764,277.455,169.764,278.82z"/>
<path fill="#00DCE6" fill-opacity="0.2" d="M173.061,259.591c0,3.187-2.582,5.769-5.769,5.769s-5.769-2.582-5.769-5.769
	c0-3.186,2.582-5.769,5.769-5.769S173.061,256.405,173.061,259.591z"/>
<path fill="#00DCE6" d="M169.764,259.591c0,1.366-1.106,2.474-2.473,2.474c-1.365,0-2.473-1.107-2.473-2.474
	c0-1.364,1.107-2.472,2.473-2.472C168.657,257.119,169.764,258.227,169.764,259.591z"/>
<path fill="none" stroke="#00DCE6" stroke-width="0.9614" stroke-miterlimit="16" d="M167.292,326.891v19.229"/>
<path fill="#00DCE6" fill-opacity="0.2" d="M173.061,346.12c0,3.187-2.582,5.769-5.769,5.769s-5.769-2.582-5.769-5.769
	s2.582-5.769,5.769-5.769S173.061,342.934,173.061,346.12z"/>
<path fill="#00DCE6" d="M169.764,346.121c0,1.365-1.106,2.472-2.473,2.472c-1.365,0-2.473-1.106-2.473-2.472
	c0-1.366,1.107-2.473,2.473-2.473C168.657,343.648,169.764,344.755,169.764,346.121z"/>
<path fill="#00DCE6" fill-opacity="0.2" d="M173.061,326.893c0,3.186-2.582,5.769-5.769,5.769s-5.769-2.583-5.769-5.769
	c0-3.187,2.582-5.77,5.769-5.77S173.061,323.706,173.061,326.893z"/>
<path fill="#00DCE6" d="M169.764,326.891c0,1.366-1.106,2.474-2.473,2.474c-1.365,0-2.473-1.107-2.473-2.474
	c0-1.365,1.107-2.472,2.473-2.472C168.657,324.419,169.764,325.525,169.764,326.891z"/>
<text transform="matrix(1 0 0 1 12.5 38.8232)" font-family="'MicrosoftYaHeiLight'" font-size="12">存储系统</text>
<text transform="matrix(1 0 0 1 7.5 199.8008)" font-family="'MicrosoftYaHeiLight'" font-size="12">区块链事务</text>
<text transform="matrix(1 0 0 1 12.5 368.2773)"><tspan x="0" y="0" font-family="'MicrosoftYaHeiLight'" font-size="12">国家医疗</tspan><tspan x="0" y="14.4" font-family="'MicrosoftYaHeiLight'" font-size="12">保健标准</tspan></text>
<text transform="matrix(1 0 0 1 208 35.0547)" font-family="'MicrosoftYaHeiLight'" font-size="13">实验室</text>
<text transform="matrix(1 0 0 1 207.5156 101.5088)" font-family="'MicrosoftYaHeiLight'" font-size="13">编码</text>
<text transform="matrix(1 0 0 1 207.5859 171.0107)" font-family="'MicrosoftYaHeiLight'" font-size="13">物流中心</text>
<text transform="matrix(1 0 0 1 207.5156 239.5898)" font-family="'MicrosoftYaHeiLight'" font-size="13">经销商</text>
<text transform="matrix(1 0 0 1 206.8896 308.0293)" font-family="'MicrosoftYaHeiLight'" font-size="13">药房、药店</text>
<text transform="matrix(1 0 0 1 207.5 376.04)" font-family="'MicrosoftYaHeiLight'" font-size="13">患者</text>
</svg>
