<?xml version="1.0" encoding="utf-8"?>
<!-- Generator: Adobe Illustrator 15.0.0, SVG Export Plug-In . SVG Version: 6.00 Build 0)  -->
<!DOCTYPE svg PUBLIC "-//W3C//DTD SVG 1.1//EN" "http://www.w3.org/Graphics/SVG/1.1/DTD/svg11.dtd">
<svg version="1.1" id="图层_1" xmlns="http://www.w3.org/2000/svg" xmlns:xlink="http://www.w3.org/1999/xlink" x="0px" y="0px"
	 width="740px" height="206px" viewBox="0 0 740 206" enable-background="new 0 0 740 206" xml:space="preserve">
<path fill="#00DCE6" fill-opacity="0.2" d="M163,78c4.418,0,8-3.582,8-8s-3.582-8-8-8s-8,3.582-8,8S158.582,78,163,78z"/>
<path fill="#00DCE6" d="M163,73.992c2.209,0,4-1.789,4-3.996S165.209,66,163,66s-4,1.789-4,3.996S160.791,73.992,163,73.992z"/>
<path fill="none" stroke="#00DCE6" stroke-miterlimit="16" stroke-dasharray="1,1" d="M163,123V70.385"/>
<path fill="#00DCE6" fill-opacity="0.2" d="M291,78c4.418,0,8-3.582,8-8s-3.582-8-8-8s-8,3.582-8,8S286.582,78,291,78z"/>
<path fill="#00DCE6" d="M291,73.992c2.209,0,4-1.789,4-3.996S293.209,66,291,66s-4,1.789-4,3.996S288.791,73.992,291,73.992z"/>
<path fill="none" stroke="#00DCE6" stroke-miterlimit="16" stroke-dasharray="1,1" d="M291,123V70.385"/>
<path fill="#00DCE6" fill-opacity="0.2" d="M420,78c4.418,0,8-3.582,8-8s-3.582-8-8-8s-8,3.582-8,8S415.582,78,420,78z"/>
<path fill="#00DCE6" d="M420,73.992c2.209,0,4-1.789,4-3.996S422.209,66,420,66s-4,1.789-4,3.996S417.791,73.992,420,73.992z"/>
<path fill="none" stroke="#00DCE6" stroke-miterlimit="16" stroke-dasharray="1,1" d="M420,123V70.385"/>
<path fill="#00DCE6" fill-opacity="0.2" d="M549,78c4.418,0,8-3.582,8-8s-3.582-8-8-8s-8,3.582-8,8S544.582,78,549,78z"/>
<path fill="#00DCE6" d="M549,73.992c2.209,0,4-1.789,4-3.996S551.209,66,549,66s-4,1.789-4,3.996S546.791,73.992,549,73.992z"/>
<path fill="none" stroke="#00DCE6" stroke-miterlimit="16" stroke-dasharray="1,1" d="M549,123V70.385"/>
<path fill="#00DCE6" fill-opacity="0.2" d="M35,98c16.568,0,30-13.432,30-30S51.568,38,35,38S5,51.432,5,68S18.432,98,35,98z"/>
<path fill="#00DCE6" d="M35,93c13.807,0,25-11.193,25-25S48.807,43,35,43S10,54.193,10,68S21.193,93,35,93z"/>
<path fill="none" stroke="#FFFFFF" d="M24,81V55h21v26H24z"/>
<path fill="none" stroke="#FFFFFF" d="M24,62h21"/>
<path fill="none" stroke="#FFFFFF" d="M24,68h21"/>
<path fill="none" stroke="#FFFFFF" d="M24,74h21"/>
<rect x="26" y="58" fill="#FFFFFF" width="2" height="2"/>
<rect x="26" y="64" fill="#FFFFFF" width="2" height="2"/>
<rect x="26" y="70" fill="#FFFFFF" width="2" height="2"/>
<rect x="26" y="76" fill="#FFFFFF" width="2" height="2"/>
<path fill="#00DCE6" fill-opacity="0.2" d="M677,98c16.569,0,30-13.432,30-30s-13.431-30-30-30s-30,13.432-30,30S660.431,98,677,98z
	"/>
<path fill="#00DCE6" d="M677,93c13.807,0,25-11.193,25-25s-11.193-25-25-25s-25,11.193-25,25S663.193,93,677,93z"/>
<path fill="none" stroke="#FFFFFF" d="M666,82V54h22v28H666z"/>
<path fill="none" stroke="#FFFFFF" d="M676.333,69.667V73h3.334v-3.333H683v-3.333h-3.333V63h-3.334v3.333H673v3.333H676.333z"/>
<path fill="none" stroke="#FFFFFF" d="M670,82V54"/>
<path fill="#353A47" d="M35,163c13.807,0,25-11.193,25-25s-11.193-25-25-25s-25,11.193-25,25S21.193,163,35,163z"/>
<path fill="none" stroke="#FFFFFF" d="M32,143h6"/>
<path fill="none" stroke="#FFFFFF" d="M32,132h6"/>
<path fill="none" stroke="#FFFFFF" d="M35,140v6"/>
<path fill="none" stroke="#FFFFFF" d="M32.046,136.286V126h6.461v10.286l7.547,12.188c0.413,0.666-0.066,1.525-0.85,1.525H24.857
	c-0.796,0-1.273-0.886-0.834-1.551L32.046,136.286z"/>
<path fill="#353A47" d="M163,163c13.807,0,25-11.193,25-25s-11.193-25-25-25s-25,11.193-25,25S149.193,163,163,163z"/>
<path fill="none" stroke="#FFFFFF" d="M166,147v-17"/>
<path fill="none" stroke="#FFFFFF" d="M153,147v-17"/>
<path fill="none" stroke="#FFFFFF" d="M161,147v-17"/>
<path fill="none" stroke="#FFFFFF" d="M170,147v-17"/>
<path fill="none" stroke="#FFFFFF" d="M168,147v-17"/>
<path fill="none" stroke="#FFFFFF" d="M172,147v-17"/>
<path fill="none" stroke="#FFFFFF" stroke-width="1.5" d="M176,130v17"/>
<path fill="none" stroke="#FFFFFF" stroke-width="1.5" d="M174,130v17"/>
<path fill="none" stroke="#FFFFFF" stroke-width="1.5" d="M164,130v17"/>
<path fill="none" stroke="#FFFFFF" stroke-width="1.5" d="M158,130v17"/>
<path fill="none" stroke="#FFFFFF" stroke-width="1.5" d="M155,130v17"/>
<path fill="none" stroke="#FFFFFF" stroke-width="1.5" d="M150,130v17"/>
<path fill="#353A47" d="M291.351,163c13.807,0,25-11.193,25-25s-11.192-25-25-25s-25,11.193-25,25S277.544,163,291.351,163z"/>
<path fill="none" stroke="#FFFFFF" d="M284.351,138.611c0-1.981-1.546-3.611-3.478-3.611c-1.933,0-3.522,1.586-3.522,3.568
	c0,0.572,0.129,1.102,0.344,1.63c0.386,0.793,1.889,3.04,2.748,4.272l0.343,0.529l0.344-0.484c0.902-1.233,2.448-3.48,2.835-4.229
	C284.222,139.714,284.351,139.186,284.351,138.611z"/>
<path fill="none" stroke="#FFFFFF" d="M280.851,138c-0.276,0-0.5,0.225-0.5,0.5s0.224,0.5,0.5,0.5s0.5-0.225,0.5-0.5
	S281.127,138,280.851,138z"/>
<path fill="none" stroke="#FFFFFF" d="M305.351,138.611c0-1.981-1.546-3.611-3.478-3.611c-1.933,0-3.522,1.586-3.522,3.568
	c0,0.572,0.129,1.102,0.344,1.63c0.386,0.793,1.889,3.04,2.748,4.272l0.343,0.529l0.344-0.484c0.902-1.233,2.448-3.48,2.835-4.229
	C305.222,139.714,305.351,139.186,305.351,138.611z"/>
<path fill="none" stroke="#FFFFFF" d="M301.851,138c-0.276,0-0.5,0.225-0.5,0.5s0.224,0.5,0.5,0.5s0.5-0.225,0.5-0.5
	S302.127,138,301.851,138z"/>
<path fill="none" stroke="#FFFFFF" d="M299.351,133.947c0-4.361-3.534-7.947-7.95-7.947c-4.418,0-8.05,3.489-8.05,7.85
	c0,1.26,0.294,2.424,0.786,3.586c0.883,1.746,4.318,6.688,6.282,9.401l0.784,1.163l0.786-1.066c2.062-2.714,5.595-7.656,6.479-9.304
	C299.057,136.37,299.351,135.207,299.351,133.947z"/>
<path fill="none" stroke="#FFFFFF" d="M291.351,131c-1.658,0-3,1.343-3,3s1.342,3,3,3c1.657,0,3-1.343,3-3S293.008,131,291.351,131z
	"/>
<path fill="#353A47" d="M420.386,163c13.808,0,25-11.193,25-25s-11.192-25-25-25c-13.807,0-25,11.193-25,25S406.579,163,420.386,163
	z"/>
<path fill="none" stroke="#FFFFFF" d="M424.225,135.29h4.332l2.799,3.839H433v6.033h-2.194"/>
<path fill="none" stroke="#FFFFFF" d="M415.467,145H424v-16h-16v16h3.2"/>
<path fill="none" stroke="#FFFFFF" d="M413,136.703h5.406"/>
<path fill="none" stroke="#FFFFFF" d="M415.703,134v5.406"/>
<path fill="none" stroke="#FFFFFF" d="M430.806,145.164c0,1.206-0.986,2.193-2.192,2.193c-1.207,0-2.194-0.987-2.194-2.193
	c0-1.207,0.987-2.194,2.194-2.194C429.819,142.97,430.806,143.957,430.806,145.164z"/>
<path fill="none" stroke="#FFFFFF" d="M415.45,145.164c0,1.206-0.987,2.193-2.194,2.193s-2.193-0.987-2.193-2.193
	c0-1.207,0.986-2.194,2.193-2.194S415.45,143.957,415.45,145.164z"/>
<path fill="none" stroke="#FFFFFF" d="M424.225,145.163h2.194"/>
<path fill="none" stroke="#FFFFFF" d="M423.99,139.131h7.365"/>
<path fill="#353A47" d="M548.719,163c13.808,0,25-11.193,25-25s-11.192-25-25-25c-13.807,0-25,11.193-25,25S534.912,163,548.719,163
	z"/>
<circle fill="none" stroke="#FFFFFF" cx="548.719" cy="138" r="15"/>
<path fill="none" stroke="#FFFFFF" d="M546.053,140.667V146h5.333v-5.333h5.333v-5.334h-5.333V130h-5.333v5.333h-5.334v5.334
	H546.053z"/>
<path fill="#353A47" d="M677,163c13.807,0,25-11.193,25-25s-11.193-25-25-25s-25,11.193-25,25S663.193,163,677,163z"/>
<path fill="none" stroke="#FFFFFF" d="M682.9,134c-0.78-0.6-1.98-0.96-3.301-1.2v-0.84c1.08-0.42,1.801-1.5,1.801-2.76V128
	c0-1.68-1.261-3-3-3c-1.74,0-3,1.32-3,3v1.2c0,1.26,0.72,2.34,1.8,2.76v0.84c-2.34,0.36-4.2,1.2-4.2,3v2.4"/>
<path fill="none" stroke="#FFFFFF" d="M671.8,134.84c-0.359-0.12-0.78-0.18-1.2-0.24v-0.84c1.08-0.42,1.801-1.5,1.801-2.76v-1.2
	c0-1.68-1.261-3-3-3c-1.74,0-3,1.32-3,3v1.2c0,1.26,0.72,2.34,1.8,2.76v0.84c-2.34,0.36-4.2,1.2-4.2,3v6.601"/>
<path fill="none" stroke="#FFFFFF" d="M691,143v-2.4c0-1.439-1.08-1.5-3-1.8v-1.2c0.9-0.359,1.2-0.779,1.2-1.8v-1.2
	c0-1.38-0.96-2.399-2.4-2.399c-1.439,0-2.399,1.02-2.399,2.399v1.2c0,1.021,0.3,1.44,1.199,1.8v1.2c-0.84,0.12-1.199,0.3-1.8,0.601"
	/>
<path fill="none" stroke="#FFFFFF" d="M680.2,141.8V136.4H676v5.399h-5.4v4.2h5.4v5.4h4.2V146h5.399v-4.2H680.2z"/>
<path fill="none" stroke="#00DCE6" stroke-width="2" d="M637,80l10-10l-10-10"/>
<path fill="none" stroke="#00DCE6" stroke-width="2" d="M75,80L65,70l10-10"/>
<path fill="none" stroke="#00DCE6" stroke-width="2" stroke-miterlimit="16" d="M65,70c227.285,0,354.715,0,582,0"/>
<path fill="none" stroke="#00DCE6" stroke-miterlimit="16" d="M60,139h78"/>
<path fill="#00DCE6" fill-opacity="0.2" d="M139,146c3.866,0,7-3.134,7-7s-3.134-7-7-7s-7,3.134-7,7S135.134,146,139,146z"/>
<path fill="#00DCE6" d="M139,142c1.657,0,3-1.343,3-3s-1.343-3-3-3s-3,1.343-3,3S137.343,142,139,142z"/>
<path fill="#00DCE6" fill-opacity="0.2" d="M60,146c3.866,0,7-3.134,7-7s-3.134-7-7-7s-7,3.134-7,7S56.134,146,60,146z"/>
<path fill="#00DCE6" d="M60,142c1.657,0,3-1.343,3-3s-1.343-3-3-3s-3,1.343-3,3S58.343,142,60,142z"/>
<path fill="none" stroke="#00DCE6" stroke-miterlimit="16" d="M188,139h78"/>
<path fill="#00DCE6" fill-opacity="0.2" d="M267,146c3.866,0,7-3.134,7-7s-3.134-7-7-7s-7,3.134-7,7S263.134,146,267,146z"/>
<path fill="#00DCE6" d="M267,142c1.657,0,3-1.343,3-3s-1.343-3-3-3s-3,1.343-3,3S265.343,142,267,142z"/>
<path fill="#00DCE6" fill-opacity="0.2" d="M188,146c3.866,0,7-3.134,7-7s-3.134-7-7-7s-7,3.134-7,7S184.134,146,188,146z"/>
<path fill="#00DCE6" d="M188,142c1.657,0,3-1.343,3-3s-1.343-3-3-3s-3,1.343-3,3S186.343,142,188,142z"/>
<path fill="none" stroke="#00DCE6" stroke-miterlimit="16" d="M316,139h78"/>
<path fill="#00DCE6" fill-opacity="0.2" d="M395,146c3.866,0,7-3.134,7-7s-3.134-7-7-7s-7,3.134-7,7S391.134,146,395,146z"/>
<path fill="#00DCE6" d="M395,142c1.657,0,3-1.343,3-3s-1.343-3-3-3s-3,1.343-3,3S393.343,142,395,142z"/>
<path fill="#00DCE6" fill-opacity="0.2" d="M316,146c3.866,0,7-3.134,7-7s-3.134-7-7-7s-7,3.134-7,7S312.134,146,316,146z"/>
<path fill="#00DCE6" d="M316,142c1.657,0,3-1.343,3-3s-1.343-3-3-3s-3,1.343-3,3S314.343,142,316,142z"/>
<path fill="none" stroke="#00DCE6" stroke-miterlimit="16" d="M445,139h78"/>
<path fill="#00DCE6" fill-opacity="0.2" d="M524,146c3.866,0,7-3.134,7-7s-3.134-7-7-7s-7,3.134-7,7S520.134,146,524,146z"/>
<path fill="#00DCE6" d="M524,142c1.657,0,3-1.343,3-3s-1.343-3-3-3s-3,1.343-3,3S522.343,142,524,142z"/>
<path fill="#00DCE6" fill-opacity="0.2" d="M445,146c3.866,0,7-3.134,7-7s-3.134-7-7-7s-7,3.134-7,7S441.134,146,445,146z"/>
<path fill="#00DCE6" d="M445,142c1.657,0,3-1.343,3-3s-1.343-3-3-3s-3,1.343-3,3S443.343,142,445,142z"/>
<path fill="none" stroke="#00DCE6" stroke-miterlimit="16" d="M573,139h78"/>
<path fill="#00DCE6" fill-opacity="0.2" d="M652,146c3.866,0,7-3.134,7-7s-3.134-7-7-7s-7,3.134-7,7S648.134,146,652,146z"/>
<path fill="#00DCE6" d="M652,142c1.657,0,3-1.343,3-3s-1.343-3-3-3s-3,1.343-3,3S650.343,142,652,142z"/>
<path fill="#00DCE6" fill-opacity="0.2" d="M573,146c3.866,0,7-3.134,7-7s-3.134-7-7-7s-7,3.134-7,7S569.134,146,573,146z"/>
<path fill="#00DCE6" d="M573,142c1.657,0,3-1.343,3-3s-1.343-3-3-3s-3,1.343-3,3S571.343,142,573,142z"/>
<text transform="matrix(1 0 0 1 10.5 27.5)" font-family="'MicrosoftYaHeiLight'" font-size="12">存储系统</text>
<text transform="matrix(1 0 0 1 340.5 28.5)" font-family="'MicrosoftYaHeiLight'" font-size="12">区块链事务</text>
<text transform="matrix(1 0 0 1 653.5 19.5)"><tspan x="0" y="0" font-family="'MicrosoftYaHeiLight'" font-size="12">国家医疗</tspan><tspan x="0" y="14.4" font-family="'MicrosoftYaHeiLight'" font-size="12">保健标准</tspan></text>
<text transform="matrix(1 0 0 1 15.5 182.5)" font-family="'MicrosoftYaHeiLight'" font-size="13">实验室</text>
<text transform="matrix(1 0 0 1 149.5 183.5)" font-family="'MicrosoftYaHeiLight'" font-size="13">编码</text>
<text transform="matrix(1 0 0 1 264.5 183.5)" font-family="'MicrosoftYaHeiLight'" font-size="13">物流中心</text>
<text transform="matrix(1 0 0 1 399.5 182.5)" font-family="'MicrosoftYaHeiLight'" font-size="13">经销商</text>
<text transform="matrix(1 0 0 1 516.5 182.5)" font-family="'MicrosoftYaHeiLight'" font-size="13">药房、药店</text>
<text transform="matrix(1 0 0 1 665.5 183.5)" font-family="'MicrosoftYaHeiLight'" font-size="13">患者</text>
</svg>
