<svg width="130" height="130" viewBox="0 0 130 130" fill="none" xmlns="http://www.w3.org/2000/svg">
<path fill-rule="evenodd" clip-rule="evenodd" d="M19.8612 0H130V110.139C116.2 122.49 97.9772 130 78 130C34.9218 130 0 95.0782 0 52C0 32.0228 7.51019 13.7997 19.8612 0Z" fill="#00DCE6" fill-opacity="0.1"/>
<path d="M112.956 55.0344C112.956 53.9927 112.956 53.0378 112.869 51.996C111.656 39.7556 101.435 30.6404 89.3939 30.7272C88.7009 30.7272 88.0079 30.7272 87.2283 30.814C86.8818 30.814 86.5353 30.9008 86.2754 30.9008" stroke="#00DCE6" stroke-miterlimit="10"/>
<path d="M66.1788 51.6484C66.0055 53.211 66.0055 54.8605 66.1788 56.5967C67.3049 68.7503 77.5265 77.8655 89.394 77.8655" stroke="#00DCE6" stroke-miterlimit="10"/>
<path d="M114.775 42.358C111.57 35.5867 105.853 30.4648 98.9229 27.9473" stroke="#00DCE6" stroke-miterlimit="10"/>
<path d="M62.6279 61.8057C64.6203 69.0978 69.4712 75.0878 75.7948 78.6471" stroke="#00DCE6" stroke-miterlimit="10"/>
<path d="M67.1326 47.0469C66.6994 48.5227 66.3529 50.0853 66.1797 51.6479" stroke="#00DCE6" stroke-miterlimit="10"/>
<path d="M89.4004 78.3655V60.2744L104.7 48.7598L120 60.2744V78.3595L104.7 90.0006L89.4004 78.3655Z" stroke="#00DCE6"/>
<path d="M104.701 71.7588V89.9412" stroke="#00DCE6"/>
<path d="M89.4004 60.3877L104.7 72.0197L120 60.3877" stroke="#00DCE6"/>
<path d="M71.805 25.3331C70.87 31.7219 71.04 37.8552 71.295 44.244M88.38 41.0922H71.125M68.15 41.0922H52M55.23 45.181H57.61M63.305 45.0106H65.685M60.84 49.355H63.22M69.255 50.2921H71.635M76.14 46.4588H78.52M83.96 49.0143H86.34M70.785 33.9367C64.325 36.1515 63.645 35.896 60.755 31.1256C59.14 28.3998 57.015 26.6961 57.015 26.6961C61.01 25.3331 66.195 27.0368 68.915 30.2738C69.34 30.7849 70.275 32.1479 70.785 33.9367ZM71.465 34.9589C73.25 28.1442 78.435 25.9294 85.235 27.8035C85.235 27.8035 80.985 33.0849 79.2 34.7886C76.99 36.9182 74.525 36.7478 71.465 34.9589ZM71.465 25.6739C70.53 25.4183 70.105 24.3961 70.02 24.2257C68.915 21.3295 69.085 18.1777 71.21 15.537C74.695 11.2778 76.65 10 76.65 10C76.65 10 77.415 15.8777 77.33 18.0925C77.415 20.9887 75.29 23.1183 71.465 25.6739Z" stroke="#00DCE6" stroke-miterlimit="22.9256"/>
</svg>
