<svg width="130" height="130" viewBox="0 0 130 130" fill="none" xmlns="http://www.w3.org/2000/svg">
<path fill-rule="evenodd" clip-rule="evenodd" d="M19.8612 0H130V110.139C116.2 122.49 97.9772 130 78 130C34.9218 130 0 95.0782 0 52C0 32.0228 7.51019 13.7997 19.8612 0Z" fill="#00DCE6" fill-opacity="0.1"/>
<path d="M75.6292 30.1651C70.2915 30.1651 65.9645 25.8473 65.9645 20.521C65.9645 15.1948 70.2915 10.877 75.6292 10.877C80.9669 10.877 85.2939 15.1948 85.2939 20.521C85.2939 25.8473 80.9669 30.1651 75.6292 30.1651Z" stroke="#00DCE6" stroke-miterlimit="10"/>
<path d="M75.63 26.6581C72.2333 26.6581 69.4797 23.9104 69.4797 20.5209C69.4797 17.1315 72.2333 14.3838 75.63 14.3838C79.0267 14.3838 81.7803 17.1315 81.7803 20.5209C81.7803 23.9104 79.0267 26.6581 75.63 26.6581Z" stroke="#00DCE6" stroke-miterlimit="10"/>
<path d="M75.6298 23.151C74.1741 23.151 72.9939 21.9734 72.9939 20.5208C72.9939 19.0682 74.1741 17.8906 75.6298 17.8906C77.0855 17.8906 78.2656 19.0682 78.2656 20.5208C78.2656 21.9734 77.0855 23.151 75.6298 23.151Z" stroke="#00DCE6" stroke-miterlimit="10"/>
<path d="M48.3928 24.0275C46.4518 24.0275 44.8783 22.4574 44.8783 20.5206C44.8783 18.5838 46.4518 17.0137 48.3928 17.0137C50.3338 17.0137 51.9072 18.5838 51.9072 20.5206C51.9072 22.4574 50.3338 24.0275 48.3928 24.0275Z" stroke="#00DCE6" stroke-miterlimit="10"/>
<path d="M68.6003 10.877H75.6292C80.9887 10.877 85.2939 15.1729 85.2939 20.521C85.2939 25.8691 80.9887 30.1651 75.6292 30.1651H68.6003C63.2408 30.1651 58.9356 25.8691 58.9356 20.521C58.9356 15.1729 63.2408 10.877 68.6003 10.877Z" stroke="#00DCE6" stroke-miterlimit="10"/>
<path d="M48.393 17.0137H51.9074C53.8404 17.0137 55.4219 18.5918 55.4219 20.5206C55.4219 22.4494 53.8404 24.0275 51.9074 24.0275H48.393C46.46 24.0275 44.8785 22.4494 44.8785 20.5206C44.8785 18.5918 46.46 17.0137 48.393 17.0137Z" stroke="#00DCE6" stroke-miterlimit="10"/>
<path d="M58.9355 19.6436H55.4211" stroke="#00DCE6" stroke-miterlimit="10"/>
<path d="M60.6934 26.6582H43.9997" stroke="#00DCE6" stroke-miterlimit="10"/>
<path d="M68.6006 30.165H46.6353" stroke="#00DCE6" stroke-miterlimit="10"/>
<path d="M59.8145 33.6719H49.2711" stroke="#00DCE6" stroke-miterlimit="10"/>
<path d="M75.1904 33.6719H62.4506" stroke="#00DCE6" stroke-miterlimit="10"/>
<path d="M54.543 37.1787H51.9071" stroke="#00DCE6" stroke-miterlimit="10"/>
<path d="M75.6299 37.1787H57.179" stroke="#00DCE6" stroke-miterlimit="10"/>
<path d="M74.751 30.1641C77.9785 30.1639 81.923 30.1644 86.2267 34.6065C90.5305 39.0485 89.8129 45.7064 89.8129 46.8168M87.3026 44.231L89.8129 46.822L92.3232 44.231" stroke="#00DCE6"/>
<path d="M44 33C43.9999 36.2276 44.0004 40.172 48.4424 44.4758C52.8844 48.7795 59.5423 48.0619 60.6528 48.0619M58.0669 45.5516L60.6579 48.0619L58.0669 50.5722" stroke="#00DCE6"/>
<path d="M109.895 73.4993C112.529 73.4993 114.667 71.3641 114.667 68.7389C114.667 66.1138 112.529 63.9785 109.895 63.9785C107.262 63.9785 105.124 66.1138 105.124 68.7389C105.124 71.3641 107.262 73.4993 109.895 73.4993Z" stroke="#00DCE6"/>
<path d="M74.7508 73.4993C77.3842 73.4993 79.5225 71.3641 79.5225 68.7389C79.5225 66.1138 77.3842 63.9785 74.7508 63.9785C72.1174 63.9785 69.9791 66.1138 69.9791 68.7389C69.9791 71.3641 72.1174 73.4993 74.7508 73.4993Z" stroke="#00DCE6"/>
<path d="M74.7509 70.8698C75.93 70.8698 76.8867 69.9136 76.8867 68.7396C76.8867 67.5656 75.93 66.6094 74.7509 66.6094C73.5718 66.6094 72.615 67.5656 72.615 68.7396C72.615 69.9136 73.5718 70.8698 74.7509 70.8698Z" stroke="#00DCE6"/>
<path d="M109.895 70.8698C111.075 70.8698 112.031 69.9136 112.031 68.7396C112.031 67.5656 111.075 66.6094 109.895 66.6094C108.716 66.6094 107.76 67.5656 107.76 68.7396C107.76 69.9136 108.716 70.8698 109.895 70.8698Z" stroke="#00DCE6"/>
<path d="M111.653 44.0762H105.475V52.8079H109.105H109.263L109.393 52.8989L113.129 55.5258H116.573C116.579 55.5258 116.593 55.5241 116.612 55.5179L116.611 55.5147C116.23 53.6966 115.048 50.9643 113.925 48.6019C113.368 47.4295 112.832 46.3626 112.428 45.5647C112.382 45.4719 112.336 45.3825 112.293 45.297C112.151 45.0161 112.03 44.7762 111.937 44.589C111.876 44.467 111.825 44.3637 111.788 44.2838L111.787 44.282C111.769 44.2432 111.743 44.1868 111.721 44.1303C111.708 44.1096 111.694 44.0946 111.683 44.0861C111.676 44.0813 111.672 44.0793 111.669 44.0783C111.667 44.0776 111.662 44.0762 111.653 44.0762Z" stroke="#00DCE6"/>
<path d="M86.6735 62.2246V69.1152H96.2168V62.2246H86.6735Z" stroke="#00DCE6"/>
<path d="M64.7081 41.1836V59.4717H96.2168V41.1836H64.7081Z" stroke="#00DCE6"/>
<path d="M87.0519 62.165H64.208V69.6173H69.1575" stroke="#00DCE6"/>
<path d="M80.0234 69.1797H105.064" stroke="#00DCE6"/>
<path d="M93.6416 62.1638H99.3526V44.1907L101.988 41.5605H113.41L115.168 43.314L120 55.5883V69.1777H114.728" stroke="#00DCE6"/>
</svg>
