<svg width="130" height="130" viewBox="0 0 130 130" fill="none" xmlns="http://www.w3.org/2000/svg">
<path fill-rule="evenodd" clip-rule="evenodd" d="M19.8612 0H130V110.139C116.2 122.49 97.9772 130 78 130C34.9218 130 0 95.0782 0 52C0 32.0228 7.51019 13.7997 19.8612 0Z" fill="#00DCE6" fill-opacity="0.1"/>
<path d="M65.3727 24.594L71.9064 18.0315L68.6215 14.8402L69.605 13.8543L84.8882 13.3797L84.9331 28.66L83.9047 29.7236L80.6198 26.5323L61.542 45.3739" stroke="#00DCE6" stroke-miterlimit="10"/>
<path d="M64.4014 25.2248L44.7638 44.3309" stroke="#00DCE6" stroke-miterlimit="10" stroke-dasharray="2 2"/>
<path d="M95.7354 58.9712L105.668 49.3432L102.353 46.1228L103.346 45.1279L118.768 44.649L118.813 60.0685L117.776 61.1417L114.461 57.9213L87.8834 84.5" stroke="#00DCE6" stroke-miterlimit="10"/>
<path d="M94.681 59.895L85.3725 69.2031" stroke="#00DCE6" stroke-miterlimit="10" stroke-dasharray="2 2"/>
<circle cx="73.0847" cy="57.6618" r="16.6277" stroke="#00DCE6"/>
<circle cx="73.0845" cy="57.6607" r="13.6489" stroke="#00DCE6"/>
<path d="M68.5508 48.457V62.6804C68.5508 63.574 68.9231 64.3932 69.5933 64.9889L73.0189 67.8187" stroke="#00DCE6" stroke-miterlimit="10"/>
<path d="M77.4866 48.457V62.6804C77.4866 63.574 77.1143 64.3932 76.4441 64.9889L73.0186 67.8187" stroke="#00DCE6" stroke-miterlimit="10"/>
<path d="M77.4866 60.3711L73.0186 64.0945" stroke="#00DCE6" stroke-miterlimit="10"/>
<path d="M77.4866 52.9238L73.0186 56.6472" stroke="#00DCE6" stroke-miterlimit="10"/>
<path d="M68.5508 60.3711L73.0189 64.0945" stroke="#00DCE6" stroke-miterlimit="10"/>
<path d="M77.4866 56.6475L73.0186 60.3709" stroke="#00DCE6" stroke-miterlimit="10"/>
<path d="M68.5508 56.6475L73.0189 60.3709" stroke="#00DCE6" stroke-miterlimit="10"/>
<path d="M68.5508 52.9238L73.0189 56.6472" stroke="#00DCE6" stroke-miterlimit="10"/>
<path d="M73.0186 71.1683V55.9023" stroke="#00DCE6" stroke-miterlimit="10"/>
<path d="M71.5293 55.1577V49.2003L73.0187 47.7109L74.508 49.2003V55.1577" stroke="#00DCE6" stroke-miterlimit="10"/>
<path d="M74.5078 49.2005V43.5098" stroke="#00DCE6" stroke-miterlimit="10"/>
<path d="M71.5293 49.2005V43.5098" stroke="#00DCE6" stroke-miterlimit="10"/>
</svg>
