<svg width="130" height="130" viewBox="0 0 130 130" fill="none" xmlns="http://www.w3.org/2000/svg">
<path fill-rule="evenodd" clip-rule="evenodd" d="M19.8612 0H130V110.139C116.2 122.49 97.9772 130 78 130C34.9218 130 0 95.0782 0 52C0 32.0228 7.51019 13.7997 19.8612 0Z" fill="#00DCE6" fill-opacity="0.1"/>
<g clip-path="url(#clip0)">
<path d="M85.5896 30.1938V18.0776C85.5896 17.9473 77.8636 11.3681 77.0845 10.6515C76.7599 10.3258 76.4352 10.3258 76.1106 10.6515C75.3315 11.3029 67.6055 17.8821 67.6055 18.0776V50.7131H75.7211M77.2143 50.7131C77.2143 45.8927 77.2143 41.0723 77.2143 36.1867L98.3798 26.0247L119.545 36.1867C119.545 41.0071 119.545 45.8276 119.545 50.7131H77.2143Z" stroke="#00DCE6" stroke-miterlimit="22.9256"/>
<path d="M97.6006 33.5816C97.7304 32.6697 98.5095 31.9531 99.4834 31.9531C100.457 31.9531 101.236 32.6697 101.366 33.5816" stroke="#00DCE6" stroke-miterlimit="22.9256"/>
<path d="M102.665 33.5816C102.795 32.6697 103.574 31.9531 104.548 31.9531C105.522 31.9531 106.301 32.6697 106.431 33.5816" stroke="#00DCE6" stroke-miterlimit="22.9256"/>
<path d="M93.3804 46.7402H89.6797" stroke="#00DCE6" stroke-miterlimit="22.9256"/>
<path fill-rule="evenodd" clip-rule="evenodd" d="M96.7566 45.0469H86.3037V50.7141H96.7566V45.0469Z" stroke="#00DCE6" stroke-miterlimit="22.9256"/>
<path d="M93.3804 41.0732H89.6797" stroke="#00DCE6" stroke-miterlimit="22.9256"/>
<path fill-rule="evenodd" clip-rule="evenodd" d="M96.7566 39.3789H86.3037V45.0462H96.7566V39.3789Z" stroke="#00DCE6" stroke-miterlimit="22.9256"/>
<path d="M103.768 46.7402H100.067" stroke="#00DCE6" stroke-miterlimit="22.9256"/>
<path fill-rule="evenodd" clip-rule="evenodd" d="M107.145 45.0469H96.7568V50.7141H107.145V45.0469Z" stroke="#00DCE6" stroke-miterlimit="22.9256"/>
<path d="M103.768 41.0732H100.067" stroke="#00DCE6" stroke-miterlimit="22.9256"/>
<path fill-rule="evenodd" clip-rule="evenodd" d="M107.145 39.3789H96.7568V45.0462H107.145V39.3789Z" stroke="#00DCE6" stroke-miterlimit="22.9256"/>
<path d="M103.768 35.4053H100.067" stroke="#00DCE6" stroke-miterlimit="22.9256"/>
<path fill-rule="evenodd" clip-rule="evenodd" d="M107.145 33.7119H96.7568V39.3792H107.145V33.7119Z" stroke="#00DCE6" stroke-miterlimit="22.9256"/>
<path d="M91.5625 39.0533C91.6923 38.1414 92.4714 37.4248 93.4453 37.4248C94.4192 37.4248 95.1983 38.1414 95.3281 39.0533" stroke="#00DCE6" stroke-miterlimit="22.9256"/>
<path d="M47.0245 48.4336C46.8947 49.2153 46.7648 49.997 46.8298 50.453C47.0245 51.9512 48.2581 53.3192 49.7514 53.71C52.2835 54.166 53.3222 52.6026 54.2312 50.5832" stroke="#00DCE6" stroke-miterlimit="22.9256"/>
<path d="M56.6338 66.7599H65.3337L67.6061 58.4219" stroke="#00DCE6" stroke-miterlimit="22.9256"/>
<path d="M52.8027 68.3242H70.2675" stroke="#00DCE6" stroke-miterlimit="22.9256"/>
<path d="M38.4541 62.5039L38.4996 74C38.4996 75.5 38.9996 76.4669 40.9996 76.4669L50.7898 76.5321" stroke="#00DCE6" stroke-miterlimit="22.9256"/>
<path d="M52.8943 83.7394V74.6197C52.8943 74.2289 52.6996 74.0335 52.2451 74.0335H43.8437C41.7661 74.0335 41.0519 72.3398 41.1817 70.5159C41.3116 67.9754 41.3116 61.6567 42.5452 58.074C44.0384 53.8398 48.2585 54.2307 50.3361 55.794C51.6996 56.9014 53.063 59.1162 54.1018 60.5493C54.1667 60.6145 54.2966 60.6796 54.4264 60.7447L61.4383 62.3733C62.0875 62.5035 62.4122 63.4155 62.4771 63.9366C62.542 64.1972 62.542 64.6532 62.3472 64.8486C62.0875 65.1743 61.7629 65.3046 61.3734 65.3046L53.9719 65.1743C53.4525 65.1092 53.063 64.9789 52.6734 64.7183L48.1287 61.4613" stroke="#00DCE6" stroke-miterlimit="22.9256"/>
<path d="M49.3621 62.7637L48.4531 68.1704L48.8427 68.8218L54.8807 69.9943C56.5038 70.32 56.7635 71.4274 56.6336 72.4697V83.5" stroke="#00DCE6" stroke-miterlimit="22.9256"/>
<path d="M42.999 46.3486L58.8407 51.1039" stroke="#00DCE6" stroke-miterlimit="22.9256"/>
<path d="M55.0754 49.9966C55.0105 48.9544 55.7247 45.567 54.7508 44.8505C54.4911 44.6551 53.3225 44.2642 52.1538 43.9385C50.9852 43.6128 49.8165 43.2871 49.4919 43.2871C48.3232 43.3523 47.0897 46.5442 46.4404 47.391" stroke="#00DCE6" stroke-miterlimit="22.9256"/>
<path d="M62.2168 68.5V83.5439H98.3799V69.9946V50.7129" stroke="#00DCE6" stroke-miterlimit="22.9256" stroke-dasharray="2 2"/>
<path d="M75.2666 50.6475V69.6686H98.3798" stroke="#00DCE6" stroke-miterlimit="22.9256" stroke-dasharray="2 2"/>
</g>
<defs>
<clipPath id="clip0">
<rect width="82" height="74" fill="white" transform="translate(38 10)"/>
</clipPath>
</defs>
</svg>
