<svg width="130" height="130" viewBox="0 0 130 130" fill="none" xmlns="http://www.w3.org/2000/svg">
<path fill-rule="evenodd" clip-rule="evenodd" d="M19.8612 0H130V110.139C116.2 122.49 97.9772 130 78 130C34.9218 130 0 95.0782 0 52C0 32.0228 7.51019 13.7997 19.8612 0Z" fill="#00DCE6" fill-opacity="0.1"/>
<path d="M118.079 61.2128H114.095M103.922 56.2498V46.4675C103.922 46.4675 103.851 44.6693 105.558 44.6693H106.981M103.993 54.3077L99.0134 53.5165L96.9503 41.0729H79.4496L77.6711 58.2637M74.8254 60.2777C77.1731 58.3357 80.2321 57.1129 83.5046 57.1129C90.761 57.1129 96.6657 62.7952 97.0926 70.0599H103.282C104.847 66.6793 108.191 64.3057 112.174 64.3057C114.451 64.3057 116.514 65.0969 118.15 66.3916L118.079 60.8532C118.079 58.4795 115.234 55.5305 112.672 55.3147L105.345 54.5954M72.9046 67.7582H70.1301L68.9207 64.8092H56.5208L51.3275 69.7003M72.9046 71.4266H67.3556L66.1462 68.4775H58.3705M58.3705 68.4775L54.6711 72.1459M58.3705 68.4775H58.6053M58.6053 68.4775C58.5341 73.1529 60.7395 78.979 65.5771 79.986C63.9408 76.6054 63.8697 72.0739 64.5099 68.4775H58.6053ZM68.7073 30.7153C65.4348 24.4575 65.4348 17.1209 68.7073 10.8631M74.6831 25.3926C73.3315 22.2278 73.2603 19.2787 74.6831 16.1139M71.6952 28.0539C69.3476 23.3067 69.3476 18.1998 71.6952 13.4525M95.0295 44.1658L96.3812 53.7323H86.2791V44.1658H95.0295ZM81.3704 44.1658L80.161 53.7323H84.1449V44.1658H81.3704ZM83.5046 59.7023C89.6228 59.7023 94.5315 64.7373 94.5315 70.8512C94.5315 76.965 89.5516 82 83.5046 82C77.3865 82 72.4778 76.965 72.4778 70.8512C72.4778 64.7373 77.3865 59.7023 83.5046 59.7023ZM83.5046 66.2478C85.9946 66.2478 88.0576 68.3337 88.0576 70.8512C88.0576 73.3686 85.9946 75.4546 83.5046 75.4546C81.0147 75.4546 78.9516 73.3686 78.9516 70.8512C78.9516 68.3337 81.0147 66.2478 83.5046 66.2478ZM112.174 66.1758C116.514 66.1758 120 69.7003 120 74.0879C120 78.4755 116.514 82 112.174 82C107.835 82 104.349 78.4755 104.349 74.0879C104.349 69.7003 107.835 66.1758 112.174 66.1758ZM112.174 70.8512C113.953 70.8512 115.376 72.2897 115.376 74.0879C115.376 75.8861 113.953 77.3247 112.174 77.3247C110.396 77.3247 108.973 75.8861 108.973 74.0879C108.973 72.2897 110.396 70.8512 112.174 70.8512ZM49.6913 69.269C52.8215 69.269 55.3826 71.8584 55.3826 75.0233C55.3826 78.1881 52.8215 80.7775 49.6913 80.7775C46.5611 80.7775 44 78.1881 44 75.0233C44 71.8584 46.5611 69.269 49.6913 69.269ZM49.6913 72.4339C51.1141 72.4339 52.2523 73.5847 52.2523 75.0233C52.2523 76.4618 51.1141 77.6127 49.6913 77.6127C48.2685 77.6127 47.1302 76.4618 47.1302 75.0233C47.1302 73.5847 48.2685 72.4339 49.6913 72.4339ZM87.5597 14.6753C90.8322 14.6753 93.5355 17.4086 93.5355 20.7892C93.5355 24.1698 90.8322 26.9031 87.5597 26.9031C84.2872 26.9031 81.5838 24.1698 81.5838 20.7892C81.5838 17.4086 84.216 14.6753 87.5597 14.6753ZM88.9113 35.8222L95.5986 27.5504C97.2348 25.3926 98.0885 23.5944 98.0885 20.7173C98.0885 14.8192 93.3932 10 87.5597 10C81.7261 10.0719 77.0308 14.8911 77.0308 20.7892C77.0308 23.5944 77.8845 25.4645 79.5207 27.6224L86.208 35.8222C87.1328 36.9011 87.9865 36.8292 88.9113 35.8222Z" stroke="#00DCE6" stroke-miterlimit="22.9256"/>
</svg>
