<svg width="130" height="130" viewBox="0 0 130 130" fill="none" xmlns="http://www.w3.org/2000/svg">
<path fill-rule="evenodd" clip-rule="evenodd" d="M19.8612 0H130V110.139C116.2 122.49 97.9772 130 78 130C34.9218 130 0 95.0782 0 52C0 32.0228 7.51019 13.7997 19.8612 0Z" fill="#00DCE6" fill-opacity="0.1"/>
<path d="M45.6251 73V48.0865C45.6251 42.3462 47.2433 36.9285 50.0268 32.0912M61.9371 19.4497C61.9371 19.4497 68.2807 13.1935 80.6442 13.1935C100.581 13.1935 116.311 28.4793 116.311 48.0865V73M61.6782 23.4486C62.196 22.9971 62.7139 22.6746 63.2317 22.2231L60.1247 18.2888C59.8658 18.0308 59.6068 18.0308 59.4126 18.2243C55.3346 21.2556 51.5156 24.674 48.6027 29.1888C48.4732 29.3823 48.538 29.5758 48.6674 29.7048L53.1338 32.3492C53.4575 31.8977 53.7811 31.4462 54.1048 30.9947M95.2085 60.8104C98.7039 60.8104 101.487 58.23 101.487 54.7471H88.9297C88.9297 58.23 91.7131 60.8104 95.2085 60.8104ZM95.2085 60.8104V39.0647M73.5238 37.122L73.8475 38.7989M73.5238 37.122L73.977 36.219L75.7247 35.8965L77.5371 34.2841L80.9678 35.703M73.5238 37.122L67.344 37.251M73.8475 38.7989L74.5595 39.5084L76.3073 39.1859M73.8475 38.7989L67.7908 41.5723M75.66 35.8965L76.3073 39.1859M76.3073 39.1859L78.5728 40.0243L81.2915 37.509M81.2915 37.509L80.9678 35.703M81.2915 37.509L84.7222 36.929M80.9678 35.703L84.528 34.9936M58.3122 33.4456L60.3836 38.1539M63.167 31.3172L65.2384 36.0255M79.738 27.7054C80.8384 30.2208 81.9388 34.6066 82.5861 37.251L84.7222 48.0865M79.738 27.7054C79.738 27.7054 81.5504 24.3513 79.2201 21.7714C77.6344 20.0158 74.5595 19.4497 74.5595 19.4497C74.5595 19.4497 74.0256 21.3204 74.5595 23.4486C75.2231 26.0932 77.8608 27.1249 79.738 27.7054ZM42.0002 73H120M41.0068 30.9616C41.8483 29.0267 42.8193 27.2208 43.9197 25.4793C46.962 20.642 51.04 16.6432 55.7653 13.4829C57.7072 12.1929 59.7139 11.032 61.7853 10M67.344 37.251C67.8893 37.9503 68.216 38.8246 68.216 39.7664C68.216 40.4115 68.0627 41.025 67.7908 41.5723M67.344 37.251C66.5822 36.2739 65.3937 35.6385 64.0732 35.6385C61.8077 35.6385 59.9305 37.509 59.9305 39.7664C59.9305 42.0238 61.8077 43.8942 64.0732 43.8942C65.6913 43.8942 67.1113 42.9401 67.7908 41.5723M68.2807 54.7471H72.9413C72.9413 58.23 75.7247 61.0034 79.2201 61.0034C82.7156 61.0034 85.499 58.23 85.499 54.7471H106.018V73H68.2807V54.7471ZM95.338 39.1214C94.9496 38.9924 94.6907 38.5409 94.6907 38.4764C94.1728 37.1865 93.7197 33.5746 94.6907 32.4137C96.2442 30.5432 98.9629 28.8663 98.9629 28.8663C98.9629 28.8663 100.581 31.3817 99.9338 34.2841C99.4733 36.3491 97.0857 38.0249 95.338 39.1214ZM95.338 43.2492C96.1147 40.2178 99.6102 37.509 104.141 39.1214C104.141 39.1214 103.17 42.088 100.581 43.2492C97.9919 44.4104 96.6973 44.0877 95.338 43.2492ZM95.0143 42.7977C92.1662 44.6679 90.4901 43.8942 89.2533 41.7655C88.5413 40.5401 86.9878 39.1859 86.9878 39.1859C88.8002 38.5409 91.1952 38.5412 92.8135 39.5084C94.4317 40.4756 94.8201 42.0238 95.0143 42.7977ZM81.162 31.1237C84.0749 31.3172 85.499 31.6397 86.9878 29.7048C88.4765 27.7699 88.9297 24.9962 88.9297 24.9962C87.1172 24.8672 83.1039 24.3513 81.5504 29.3823C81.3562 29.7048 81.162 30.3498 81.162 31.1237ZM80.9678 31.6397C79.479 29.0598 76.3073 27.9634 72.9413 30.4785C72.9413 30.4785 76.7604 31.8977 77.6666 32.4137C78.8965 33.0586 79.8674 32.7362 80.9678 31.6397ZM64.0732 41.0563C64.7853 41.0563 65.3678 40.4758 65.3678 39.7664C65.3678 39.0569 64.7853 38.4764 64.0732 38.4764C63.3612 38.4764 62.7786 39.0569 62.7786 39.7664C62.7786 40.4758 63.3612 41.0563 64.0732 41.0563ZM58.7653 33.2521C61.6782 33.2521 64.0085 30.9302 64.0085 28.0279C64.0085 25.1255 61.6135 22.8036 58.7653 22.8036C55.8525 22.8036 53.5222 25.19 53.5222 28.0279C53.5222 30.8657 55.8525 33.2521 58.7653 33.2521ZM58.7653 29.7693C59.7363 29.7693 60.5778 28.9953 60.5778 27.9634C60.5778 26.9959 59.801 26.1574 58.7653 26.1574C57.7944 26.1574 56.9529 26.9314 56.9529 27.9634C56.9529 28.9953 57.7944 29.7693 58.7653 29.7693Z" stroke="#00DCE6" stroke-miterlimit="22.9256"/>
<path d="M41.5 78.5H120" stroke="#00DCE6"/>
</svg>
