<svg width="200" height="200" viewBox="0 0 200 200" fill="none" xmlns="http://www.w3.org/2000/svg">
<path fill-rule="evenodd" clip-rule="evenodd" d="M30.5557 0H200V169.444C178.77 188.446 150.734 200 120 200C53.7258 200 0 146.274 0 80C0 49.2658 11.5541 21.2303 30.5557 0Z" fill="#E6FBFC"/>
<path d="M77.8081 43.0064C80.5449 43.0064 82.7635 40.7878 82.7635 38.051C82.7635 35.3143 80.5449 33.0957 77.8081 33.0957C75.0714 33.0957 72.8528 35.3143 72.8528 38.051C72.8528 40.7878 75.0714 43.0064 77.8081 43.0064Z" fill="#00DCE6"/>
<path d="M154.063 115.841C156.8 115.841 159.018 113.623 159.018 110.886C159.018 108.149 156.8 105.931 154.063 105.931C151.326 105.931 149.107 108.149 149.107 110.886C149.107 113.623 151.326 115.841 154.063 115.841Z" fill="#00DCE6"/>
<path d="M97.7002 126.328C98.6912 124.77 99.3991 123.071 99.8239 121.301L104.779 119.602C105.062 117.691 105.062 115.709 104.85 113.727L99.8947 111.957C99.4699 110.187 98.762 108.488 97.8418 106.86L100.107 102.117C99.5407 101.338 98.9036 100.631 98.1957 99.9226C97.4878 99.2147 96.7799 98.5776 96.0012 98.0113L91.2582 100.206C89.7008 99.2147 88.0019 98.5776 86.2321 98.0821L84.5331 93.1268C82.6218 92.9144 80.6396 92.8436 78.7283 93.056L76.9585 98.0113C75.1888 98.436 73.4898 99.0732 71.9324 100.064L67.1894 97.7989C66.4107 98.3653 65.7028 99.0024 64.9949 99.7103C64.287 100.418 63.6499 101.126 63.0836 101.905L65.2781 106.648C64.287 108.205 63.5791 109.904 63.1544 111.674L58.199 113.373C57.9866 115.284 57.9159 117.266 58.1282 119.178L63.0128 120.947C63.4375 122.717 64.0746 124.416 65.0657 125.974L62.8004 130.717C63.3667 131.495 64.0038 132.203 64.7118 132.911C65.4197 133.619 66.1276 134.256 66.9063 134.893L71.6492 132.699C73.2066 133.69 74.9056 134.398 76.6754 134.822L78.3743 139.778C80.2857 140.061 82.2678 140.061 84.1792 139.849L85.9489 134.893C87.7187 134.468 89.4177 133.761 90.9751 132.84L95.718 135.106C96.4967 134.539 97.2046 133.902 97.9125 133.194C98.6205 132.486 99.2576 131.778 99.8947 131L97.7002 126.328Z" stroke="#00DCE6" stroke-width="2"/>
<path d="M81.4892 129.371C78.1621 129.371 74.8349 128.097 72.2865 125.548C67.3311 120.452 67.4019 112.311 72.428 107.355C77.525 102.4 85.6659 102.471 90.6212 107.497C95.5766 112.523 95.5058 120.735 90.4796 125.69C88.002 128.097 84.7456 129.371 81.4892 129.371Z" stroke="#00DCE6" stroke-width="4"/>
<path d="M107.823 60.2087C105.912 61.4829 104.213 62.9695 102.797 64.7393L96.3552 64.0314C95.0809 66.0843 94.0191 68.2788 93.2404 70.5441L97.8418 75.0747C97.417 77.2692 97.2754 79.5345 97.4878 81.7998L92.4617 85.9057C92.7448 87.0383 93.028 88.171 93.4527 89.3744C93.8775 90.5071 94.3022 91.6397 94.8686 92.7016H101.31C102.585 94.6129 104.071 96.2411 105.841 97.7277L105.133 104.17C107.186 105.444 109.381 106.506 111.646 107.284L116.247 102.683C118.442 103.108 120.707 103.249 122.972 103.037L127.078 108.063C128.282 107.78 129.414 107.497 130.547 107.072C131.68 106.647 132.812 106.223 133.874 105.656V99.2143C135.786 97.9401 137.484 96.4535 138.9 94.6837L145.342 95.3916C146.616 93.3387 147.678 91.215 148.457 88.8789L143.926 84.2775C144.351 82.083 144.493 79.8177 144.28 77.5524L149.307 73.4465C149.023 72.2431 148.74 71.1104 148.315 69.9778C147.891 68.8451 147.466 67.7125 146.9 66.6506H140.458C139.183 64.7393 137.626 63.0403 135.927 61.6245L136.564 55.1825C134.511 53.8375 132.317 52.8465 130.051 52.0678L125.45 56.6692C123.256 56.2444 120.99 56.1028 118.725 56.3152L114.619 51.2891C113.486 51.5722 112.283 51.8554 111.15 52.2801C110.018 52.7049 108.885 53.2004 107.823 53.6959V60.2087Z" stroke="#00DCE6" stroke-width="2"/>
<path d="M127.503 65.3062C131.255 67.076 134.299 70.1908 135.785 74.3674C138.688 82.6499 134.37 91.7111 126.087 94.6843C117.805 97.5867 108.743 93.2685 105.841 84.986C102.938 76.7743 107.257 67.6423 115.539 64.7399C119.574 63.2533 123.893 63.6072 127.503 65.3062Z" stroke="#00DCE6" stroke-width="4"/>
<path d="M77.5958 95.5338C75.7552 90.5784 74.7642 85.2691 74.7642 79.6767C74.7642 67.6423 79.3655 56.6697 86.9401 48.458" stroke="#00DCE6" stroke-width="2"/>
<path d="M154.333 111.107C145.909 120.027 134.016 125.619 120.778 125.619C113.345 125.619 106.337 123.85 100.107 120.735" stroke="#00DCE6" stroke-width="2"/>
<path d="M93.8066 42.3698C101.381 36.8482 110.726 33.5918 120.778 33.5918C146.192 33.5918 166.792 54.1919 166.792 79.6057C166.792 87.605 164.739 95.1088 161.129 101.692" stroke="#00DCE6" stroke-width="2" stroke-dasharray="2 3"/>
<path d="M168.774 115.143C157.872 129.796 140.458 139.282 120.849 139.282" stroke="#00DCE6" stroke-width="2" stroke-dasharray="2 3"/>
<path d="M77.8789 38.264C88.7099 27.0083 103.93 20 120.778 20C153.696 20 180.454 46.6881 180.454 79.6765C180.454 87.4634 178.968 94.9672 176.207 101.763" stroke="#00DCE6" stroke-width="2"/>
</svg>
