<svg width="200" height="200" viewBox="0 0 200 200" fill="none" xmlns="http://www.w3.org/2000/svg">
<path fill-rule="evenodd" clip-rule="evenodd" d="M30.5557 0H200V169.444C178.77 188.446 150.734 200 120 200C53.7258 200 0 146.274 0 80C0 49.2658 11.5541 21.2303 30.5557 0Z" fill="#E6FBFC"/>
<path d="M136 40.9004H66.8999V46.1004H136V40.9004Z" stroke="#00DCE6" stroke-width="2"/>
<path d="M136 67.0996H66.8999V72.2996H136V67.0996Z" stroke="#00DCE6" stroke-width="2"/>
<path d="M136 93.2998H66.8999V98.4998H136V93.2998Z" stroke="#00DCE6" stroke-width="2"/>
<path d="M75.2999 26.2998H66.8999V34.6998H75.2999V26.2998Z" fill="#00DCE6"/>
<path d="M75.2999 52.5H66.8999V60.9H75.2999V52.5Z" fill="#00DCE6"/>
<path d="M75.2999 78.5996H66.8999V86.9996H75.2999V78.5996Z" fill="#00DCE6"/>
<path d="M75.2999 104.8H66.8999V113.2H75.2999V104.8Z" fill="#00DCE6"/>
<path d="M143.4 20H59.6001V40.9H143.4V20Z" stroke="#00DCE6" stroke-width="2"/>
<path d="M143.4 46.2002H59.6001V67.1002H143.4V46.2002Z" stroke="#00DCE6" stroke-width="2"/>
<path d="M143.4 72.4004H59.6001V93.3004H143.4V72.4004Z" stroke="#00DCE6" stroke-width="2"/>
<path d="M143.4 98.5H59.6001V119.4H143.4V98.5Z" stroke="#00DCE6" stroke-width="2"/>
<path d="M46 67.0996V134.1H93.1" stroke="#00DCE6" stroke-width="2" stroke-miterlimit="16" stroke-dasharray="2 3"/>
<path d="M164.3 67.6002C167.9 71.6002 173.8 73.8002 180 73.2002C180.5 120 144.1 140 144.1 140C125.5 130.5 107.9 104.9 108.2 73.2002C108.2 73.2002 119.1 72.5002 124.5 66.6002C129.3 61.4002 136.5 58.7002 143.9 58.7002H144.7C152.4 58.7002 159.4 62.2002 164.3 67.6002Z" fill="#E6FBFC" stroke="#00DCE6" stroke-width="2"/>
<path d="M174.996 77.3066C175.427 117.026 144 134 144 134" stroke="#00DCE6" stroke-width="2" stroke-dasharray="2 3"/>
<path d="M128.2 90.7871H159V106.968C159 110.428 156.21 113.106 152.862 113.106H134.338C130.878 113.106 128.2 110.316 128.2 106.968V90.7871Z" stroke="#00DCE6" stroke-width="4"/>
<path d="M143.6 95.3623C144.828 95.3623 145.944 96.3667 145.944 97.7058V104.625C145.944 105.852 144.939 106.968 143.6 106.968C142.373 106.968 141.257 105.964 141.257 104.625V97.7058C141.257 96.3667 142.261 95.3623 143.6 95.3623Z" fill="#00DCE6"/>
<path d="M131.213 87.6622C131.213 80.297 136.235 74.4941 142.931 74.4941C149.626 74.4941 155.876 79.9623 155.876 87.6622" stroke="#00DCE6" stroke-width="4"/>
<path d="M142.819 79.1816C148.064 79.1816 151.3 83.9802 151.3 87.6628" stroke="#00DCE6" stroke-width="2"/>
</svg>
