<svg xmlns="http://www.w3.org/2000/svg" width="470" height="270" viewBox="0 0 470 270" fill="none">
<path fill-rule="evenodd" clip-rule="evenodd" d="M460.18 218.532L430.975 98.9464L438.764 97.0523L469.8 224.133L406.954 241.849L404.775 234.15L460.18 218.532Z" fill="white" fill-opacity="0.15"/>
<path fill-rule="evenodd" clip-rule="evenodd" d="M0.315186 53.0015L371.081 -43.124L434.802 203.182L372.703 219.282L393.66 299.932L274.672 244.698L64.0357 299.308L0.315186 53.0015ZM277.835 219.108L100.621 265.008L175.471 155.465L231.966 183.773L267.634 131.572L386.185 190.973L342.819 202.094L357.387 256.71L277.835 219.108ZM223.96 152.837L334.402 -8.80091L49.0279 65.186L223.96 152.837ZM357.379 0.224346L281.339 111.511L401.782 171.86L357.379 0.224346ZM77.719 255.874L153.764 144.591L33.3174 84.2413L77.719 255.874Z" fill="white" fill-opacity="0.15"/>
</svg>