<svg width="102" height="80" viewBox="0 0 102 80" fill="none" xmlns="http://www.w3.org/2000/svg">
<path d="M102 80H40C17.9086 80 0 62.0914 0 40C0 17.9086 17.9086 0 40 0H102V80Z" fill="#1F2432"/>
<path d="M61.0001 17C51.4914 17 43.3304 22.7702 39.8277 31H38.7447C42.305 22.2045 50.928 16 61.0001 16C70.5301 16 78.7627 21.5545 82.6372 29.6028L83.0024 25.9502L83.9975 26.0497L83.4426 31.5984L77.9019 30.4903L78.098 29.5097L81.8412 30.2583C78.1737 22.4256 70.2205 17 61.0001 17Z" fill="white"/>
<path d="M61.0001 63C70.1188 63 77.9981 57.6935 81.7183 50H82.8239C79.0319 58.2621 70.6861 64 61.0001 64C51.8631 64 43.9187 58.8941 39.8644 51.38L39.4974 55.0497L38.5023 54.9502L39.0572 49.4016L44.5979 50.5097L44.4018 51.4903L40.6572 50.7414C44.5148 58.0323 52.1773 63 61.0001 63Z" fill="white"/>
<path fill-rule="evenodd" clip-rule="evenodd" d="M55 29L71 40L55 50.5V29ZM56 30.901L69.2068 39.9807L56 48.6476V30.901Z" fill="white"/>
</svg>
