<svg width="90" height="70" viewBox="0 0 90 70" fill="none" xmlns="http://www.w3.org/2000/svg">
<path d="M0 70H54.7059C74.1983 70 90 54.33 90 35C90 15.67 74.1983 0 54.7059 0H0V70Z" fill="#1F2432"/>
<path d="M37.4978 12C27.9891 12 19.8281 17.7702 16.3253 26H15.2423C18.8026 17.2045 27.4256 11 37.4978 11C47.0277 11 55.2604 16.5545 59.1348 24.6028L59.5001 20.9502L60.4951 21.0497L59.9402 26.5984L54.3995 25.4903L54.5956 24.5097L58.3389 25.2583C54.6713 17.4256 46.7182 12 37.4978 12Z" fill="white"/>
<path d="M37.4978 58C46.6164 58 54.4957 52.6935 58.2159 45H59.3216C55.5296 53.2621 47.1837 59 37.4978 59C28.3608 59 20.4163 53.8941 16.362 46.38L15.995 50.0497L15 49.9502L15.5549 44.4016L21.0956 45.5097L20.8995 46.4903L17.1548 45.7414C21.0125 53.0323 28.675 58 37.4978 58Z" fill="white"/>
<path fill-rule="evenodd" clip-rule="evenodd" d="M31.4977 24L47.4977 35L31.4977 45.5V24ZM32.4977 25.901L45.7045 34.9807L32.4977 43.6476V25.901Z" fill="white"/>
</svg>
