<svg width="90" height="70" viewBox="0 0 90 70" fill="none" xmlns="http://www.w3.org/2000/svg">
<path d="M0 70H54.7059C74.1983 70 90 54.33 90 35C90 15.67 74.1983 0 54.7059 0H0V70Z" fill="#1F2432"/>
<path fill-rule="evenodd" clip-rule="evenodd" d="M52.8382 45.8169L52.8311 45.809C52.5024 45.4493 51.8447 45.0287 50.7192 44.6031C49.5171 44.1484 48.4662 43.6941 47.5717 43.2387L47.5627 43.2341C46.6431 42.7543 45.8339 42.2008 45.1447 41.5687L45.138 41.5625L45.1313 41.5562C44.4308 40.8896 43.88 40.1084 43.4816 39.2198L43.4768 39.2091C43.0748 38.2832 42.8916 37.223 42.8916 36.0563C42.8916 33.9873 43.5586 32.2186 44.9333 30.8363C46.0948 29.6686 47.5654 28.9411 49.2948 28.6207V25H53.8886V28.707C55.6289 29.1134 57.0695 29.9766 58.1552 31.3186C59.4127 32.8619 60 34.8239 60 37.1157V38.1157H53.3151V37.1157C53.3151 35.9232 53.0638 35.2269 52.7399 34.8427L52.7341 34.8357L52.7284 34.8287C52.403 34.4282 51.984 34.2203 51.3647 34.2203C50.6776 34.2203 50.2818 34.4117 50.0302 34.6759L50.0227 34.6837C49.7647 34.949 49.5765 35.3665 49.5765 36.0726C49.5765 36.6955 49.7495 37.0934 50.0143 37.3717C50.3351 37.7089 51.0465 38.1547 52.3066 38.6658C53.6241 39.1957 54.7293 39.7072 55.6109 40.2019C56.513 40.697 57.2954 41.274 57.9453 41.939C58.6096 42.6077 59.1203 43.381 59.4725 44.2527C59.8339 45.1362 60 46.133 60 47.2208C60 49.2929 59.3487 51.0591 57.9907 52.4244C56.8347 53.5867 55.3329 54.3044 53.5481 54.6255V58H48.9706V54.6388C46.9736 54.2765 45.3181 53.442 44.0774 52.0841L44.0717 52.0779C42.6607 50.5072 42 48.4623 42 46.0473V45.0473H48.6849V46.0473C48.6849 47.1903 48.9514 47.915 49.3416 48.3672C49.7234 48.7879 50.3031 49.0568 51.2351 49.0568C52.0059 49.0568 52.4922 48.8585 52.8126 48.5699C53.1272 48.2765 53.3151 47.8744 53.3151 47.2534C53.3151 46.5554 53.1257 46.1185 52.8455 45.8245L52.8382 45.8169ZM48.5927 49.03C47.9875 48.3346 47.6849 47.3403 47.6849 46.0473H43C43 46.0477 43 46.0481 43 46.0485C43 46.3919 43.0145 46.7248 43.0433 47.0473C43.2012 48.8161 43.792 50.2702 44.8156 51.4096C46.0368 52.7461 47.7552 53.5338 49.9706 53.7729V57H52.5481V53.7566C54.5583 53.5501 56.1361 52.871 57.2817 51.7192C58.4272 50.5675 59 49.068 59 47.2208C59 46.232 58.8487 45.3682 58.5461 44.6293C58.2435 43.8796 57.8058 43.2168 57.233 42.6409C56.6602 42.0542 55.9578 41.5326 55.1256 41.0762C54.2935 40.609 53.229 40.1146 51.9321 39.5931C50.6461 39.0715 49.7653 38.5608 49.2898 38.061C48.8143 37.5612 48.5765 36.8984 48.5765 36.0726C48.5765 35.1816 48.8197 34.4862 49.306 33.9863C49.7923 33.4756 50.4786 33.2203 51.3647 33.2203C52.2617 33.2203 52.975 33.5463 53.5046 34.1982C54.0449 34.8393 54.3151 35.8118 54.3151 37.1157H59C59 36.7719 58.9858 36.4386 58.9573 36.1157C58.8104 34.4484 58.2843 33.0595 57.3789 31.949C56.2982 30.6125 54.8014 29.8084 52.8886 29.5368V26H50.2948V29.4879C48.3604 29.6835 46.8095 30.368 45.6424 31.5415C44.4752 32.715 43.8916 34.2199 43.8916 36.0563C43.8916 37.1211 44.0591 38.0393 44.3941 38.8107C44.74 39.5822 45.2155 40.2559 45.8207 40.8318C46.4367 41.3968 47.1716 41.902 48.0253 42.3475C48.8791 42.7822 49.895 43.2222 51.0729 43.6677C52.2509 44.1132 53.0831 44.6022 53.5694 45.1346C54.0665 45.6562 54.3151 46.3624 54.3151 47.2534C54.3151 48.1118 54.0395 48.7964 53.4883 49.307C52.9372 49.8069 52.1861 50.0568 51.2351 50.0568C50.0895 50.0568 49.2087 49.7145 48.5927 49.03Z" fill="white"/>
<path fill-rule="evenodd" clip-rule="evenodd" d="M22 43H16V57H22V43ZM15 42V58H23V42H15Z" fill="white"/>
<path fill-rule="evenodd" clip-rule="evenodd" d="M22 43H16V57H22V43ZM15 42V58H23V42H15Z" fill="white"/>
<path fill-rule="evenodd" clip-rule="evenodd" d="M34 27H28V57H34V27ZM27 26V58H35V26H27Z" fill="white"/>
<path fill-rule="evenodd" clip-rule="evenodd" d="M34 27H28V57H34V27ZM27 26V58H35V26H27Z" fill="white"/>
<path fill-rule="evenodd" clip-rule="evenodd" d="M40 13H46V31.2076C46.3095 30.9395 46.6429 30.7017 47 30.4942V13V12H46H40H39V13V57V58H40H46H47V57V52.9934C46.6454 52.8296 46.3121 52.6423 46 52.4315V57H40V13ZM46 46.0473H47V41.7464C46.6394 41.5085 46.306 41.2569 46 40.9916V46.0473Z" fill="white"/>
<path fill-rule="evenodd" clip-rule="evenodd" d="M40 13H46V31.2076C46.3095 30.9395 46.6429 30.7017 47 30.4942V13V12H46H40H39V13V57V58H40H46H47V57V52.9934C46.6454 52.8296 46.3121 52.6423 46 52.4315V57H40V13ZM46 46.0473H47V41.7464C46.6394 41.5085 46.306 41.2569 46 40.9916V46.0473Z" fill="white"/>
</svg>
