<svg width="102" height="80" viewBox="0 0 102 80" fill="none" xmlns="http://www.w3.org/2000/svg">
<path d="M102 80H40C17.9086 80 0 62.0914 0 40C0 17.9086 17.9086 0 40 0H102V80Z" fill="#1F2432"/>
<path fill-rule="evenodd" clip-rule="evenodd" d="M40.4878 20.8076C36.6752 24.6202 35.7258 30.2118 37.6396 34.9104C37.2214 36.6452 36.9999 38.4566 36.9999 40.3197C36.9999 42.1002 37.2022 43.8334 37.5851 45.4976C35.7443 50.1678 36.7119 55.6886 40.4878 59.4645C44.145 63.1216 49.439 64.1443 54.0117 62.5324C55.921 63.0459 57.9285 63.3197 59.9999 63.3197C61.9962 63.3197 63.933 63.0654 65.7799 62.5874C70.3158 64.1203 75.5298 63.0793 79.1446 59.4645C82.7594 55.8497 83.8004 50.6357 82.2675 46.0998C82.7456 44.2529 82.9999 42.316 82.9999 40.3197C82.9999 38.2483 82.7261 36.2407 82.2126 34.3314C83.8244 29.7588 82.8018 24.4648 79.1446 20.8076C75.3687 17.0317 69.848 16.0642 65.1778 17.9049C63.5136 17.522 61.7804 17.3197 59.9999 17.3197C58.1368 17.3197 56.3254 17.5413 54.5906 17.9594C49.892 16.0456 44.3004 16.995 40.4878 20.8076ZM41.1949 21.5147C44.3645 18.3452 48.866 17.3193 52.8977 18.4372C45.9077 20.7043 40.3845 26.2275 38.1174 33.2175C36.9995 29.1858 38.0253 24.6843 41.1949 21.5147ZM52.274 61.9899C45.5249 59.5835 40.2302 54.1137 38.0638 47.2545C37.0339 51.2345 38.0776 55.6401 41.1949 58.7574C44.2019 61.7644 48.4078 62.8419 52.274 61.9899ZM65.7719 61.5235L65.8206 61.5415C73.2922 59.4969 79.177 53.6121 81.2216 46.1406L81.2036 46.0917L81.2465 46.0488C81.3115 45.8074 81.3724 45.5644 81.4292 45.3197H73.0807C71.6617 49.0297 68.7099 51.9815 64.9999 53.4005V61.7491C65.2445 61.6922 65.4876 61.6313 65.729 61.5663L65.7719 61.5235ZM78.4375 58.7574C75.4901 61.7048 71.3909 62.7984 67.5887 62.0383C74.1865 59.7331 79.4132 54.5064 81.7185 47.9087C82.4785 51.7108 81.3849 55.81 78.4375 58.7574ZM66.9347 18.3836C73.7939 20.55 79.2637 25.8447 81.6701 32.5937C82.522 28.7275 81.4445 24.5217 78.4375 21.5147C75.3202 18.3975 70.9146 17.3538 66.9347 18.3836ZM81.9999 40.3197C81.9999 41.6857 81.8754 43.0226 81.6372 44.3197H73.4202C73.7974 43.0523 73.9999 41.7097 73.9999 40.3197C73.9999 38.9298 73.7974 37.5871 73.4202 36.3197H81.6372C81.8754 37.6168 81.9999 38.9537 81.9999 40.3197ZM81.4292 35.3197C79.5386 27.1846 73.1351 20.7811 65 18.8904V27.239C68.7099 28.658 71.6617 31.6098 73.0807 35.3197H81.4292ZM59.9999 62.3197C61.3659 62.3197 62.7028 62.1952 63.9999 61.957V53.74C62.7325 54.1172 61.3899 54.3197 59.9999 54.3197C58.61 54.3197 57.2673 54.1172 55.9999 53.74V61.957C57.297 62.1952 58.6339 62.3197 59.9999 62.3197ZM54.9999 61.7491C46.8648 59.8584 40.4612 53.4548 38.5706 45.3197H46.9192C48.3381 49.0297 51.29 51.9815 54.9999 53.4005V61.7491ZM46.5797 44.3197H38.3627C38.1244 43.0226 37.9999 41.6857 37.9999 40.3197C37.9999 38.9537 38.1244 37.6168 38.3627 36.3197H46.5797C46.2025 37.5871 45.9999 38.9298 45.9999 40.3197C45.9999 41.7097 46.2025 43.0523 46.5797 44.3197ZM46.9192 35.3197H38.5706C40.4612 27.1846 46.8648 20.781 55 18.8904V27.239C51.29 28.6579 48.3381 31.6098 46.9192 35.3197ZM64 18.6825C62.7029 18.4442 61.3659 18.3197 59.9999 18.3197C58.6339 18.3197 57.2971 18.4442 56 18.6825V26.8995C57.2674 26.5223 58.61 26.3197 59.9999 26.3197C61.3899 26.3197 62.7325 26.5223 64 26.8995V18.6825ZM72.9999 40.3197C72.9999 47.4994 67.1796 53.3197 59.9999 53.3197C52.8202 53.3197 46.9999 47.4994 46.9999 40.3197C46.9999 33.14 52.8202 27.3197 59.9999 27.3197C67.1796 27.3197 72.9999 33.14 72.9999 40.3197Z" fill="white"/>
</svg>
