<svg width="90" height="70" viewBox="0 0 90 70" fill="none" xmlns="http://www.w3.org/2000/svg">
<path d="M0 70H54.7059C74.1983 70 90 54.33 90 35C90 15.67 74.1983 0 54.7059 0H0V70Z" fill="#1F2432"/>
<path fill-rule="evenodd" clip-rule="evenodd" d="M18.8076 15.8076C14.995 19.6202 14.0456 25.2118 15.9594 29.9104C15.5413 31.6452 15.3197 33.4566 15.3197 35.3197C15.3197 37.1002 15.522 38.8334 15.9049 40.4976C14.0642 45.1678 15.0317 50.6886 18.8076 54.4645C22.4648 58.1216 27.7589 59.1443 32.3315 57.5324C34.2408 58.0459 36.2483 58.3197 38.3197 58.3197C40.316 58.3197 42.2529 58.0654 44.0997 57.5874C48.6356 59.1203 53.8496 58.0793 57.4644 54.4645C61.0792 50.8497 62.1202 45.6357 60.5874 41.0998C61.0654 39.2529 61.3197 37.316 61.3197 35.3197C61.3197 33.2483 61.0459 31.2407 60.5324 29.3314C62.1443 24.7588 61.1216 19.4648 57.4644 15.8076C53.6885 12.0317 48.1678 11.0642 43.4976 12.9049C41.8334 12.522 40.1002 12.3197 38.3197 12.3197C36.4566 12.3197 34.6452 12.5413 32.9104 12.9594C28.2118 11.0456 22.6202 11.995 18.8076 15.8076ZM19.5147 16.5147C22.6843 13.3452 27.1858 12.3193 31.2175 13.4372C24.2275 15.7043 18.7043 21.2275 16.4372 28.2175C15.3193 24.1858 16.3452 19.6843 19.5147 16.5147ZM30.5938 56.9899C23.8448 54.5835 18.55 49.1137 16.3836 42.2545C15.3538 46.2345 16.3975 50.6401 19.5147 53.7574C22.5217 56.7644 26.7276 57.8419 30.5938 56.9899ZM44.0917 56.5235L44.1405 56.5415C51.612 54.4969 57.4968 48.6121 59.5415 41.1406L59.5235 41.0917L59.5663 41.0488C59.6313 40.8074 59.6922 40.5644 59.7491 40.3197H51.4005C49.9815 44.0297 47.0297 46.9815 43.3197 48.4005V56.7491C43.5644 56.6922 43.8074 56.6313 44.0489 56.5663L44.0917 56.5235ZM56.7573 53.7574C53.8099 56.7048 49.7107 57.7984 45.9086 57.0383C52.5064 54.7331 57.7331 49.5064 60.0383 42.9087C60.7984 46.7108 59.7047 50.81 56.7573 53.7574ZM45.2545 13.3836C52.1137 15.55 57.5835 20.8447 59.9899 27.5937C60.8418 23.7275 59.7643 19.5217 56.7573 16.5147C53.6401 13.3975 49.2345 12.3538 45.2545 13.3836ZM60.3197 35.3197C60.3197 36.6857 60.1952 38.0226 59.957 39.3197H51.74C52.1172 38.0523 52.3197 36.7097 52.3197 35.3197C52.3197 33.9298 52.1172 32.5871 51.74 31.3197H59.957C60.1952 32.6168 60.3197 33.9537 60.3197 35.3197ZM59.7491 30.3197C57.8584 22.1846 51.4549 15.7811 43.3198 13.8904V22.239C47.0297 23.658 49.9815 26.6098 51.4005 30.3197H59.7491ZM38.3197 57.3197C39.6857 57.3197 41.0226 57.1952 42.3197 56.957V48.74C41.0523 49.1172 39.7097 49.3197 38.3197 49.3197C36.9298 49.3197 35.5872 49.1172 34.3197 48.74V56.957C35.6168 57.1952 36.9537 57.3197 38.3197 57.3197ZM33.3197 56.7491C25.1846 54.8584 18.781 48.4548 16.8904 40.3197H25.239C26.6579 44.0297 29.6098 46.9815 33.3197 48.4005V56.7491ZM24.8995 39.3197H16.6825C16.4442 38.0226 16.3197 36.6857 16.3197 35.3197C16.3197 33.9537 16.4442 32.6168 16.6825 31.3197H24.8995C24.5223 32.5871 24.3197 33.9298 24.3197 35.3197C24.3197 36.7097 24.5223 38.0523 24.8995 39.3197ZM25.239 30.3197H16.8904C18.781 22.1846 25.1847 15.781 33.3198 13.8904V22.239C29.6098 23.6579 26.6579 26.6098 25.239 30.3197ZM42.3198 13.6825C41.0227 13.4442 39.6857 13.3197 38.3197 13.3197C36.9538 13.3197 35.6169 13.4442 34.3198 13.6825V21.8995C35.5872 21.5223 36.9298 21.3197 38.3197 21.3197C39.7097 21.3197 41.0524 21.5223 42.3198 21.8995V13.6825ZM51.3197 35.3197C51.3197 42.4994 45.4994 48.3197 38.3197 48.3197C31.14 48.3197 25.3197 42.4994 25.3197 35.3197C25.3197 28.14 31.14 22.3197 38.3197 22.3197C45.4994 22.3197 51.3197 28.14 51.3197 35.3197Z" fill="white"/>
</svg>
