<svg width="232" height="232" viewBox="0 0 232 232" fill="none" xmlns="http://www.w3.org/2000/svg">
<circle cx="62" cy="62" r="62" fill="#00DCE6" fill-opacity="0.2"/>
<circle cx="170" cy="62" r="62" fill="#00DCE6" fill-opacity="0.2"/>
<circle cx="170" cy="170" r="62" fill="#00DCE6" fill-opacity="0.2"/>
<circle cx="62" cy="170" r="62" fill="#00DCE6" fill-opacity="0.2"/>
<path fill-rule="evenodd" clip-rule="evenodd" d="M130 170C130 147.909 147.909 130 170 130C192.091 130 210 147.909 210 170C210 192.091 192.091 210 170 210C147.909 210 130 192.091 130 170Z" stroke="white"/>
<path d="M170.5 155.5C164.4 155.5 159.5 160.4 159.5 166.5C159.5 172.6 164.4 177.5 170.5 177.5C176.6 177.5 181.5 172.6 181.5 166.5C181.5 160.4 176.6 155.5 170.5 155.5ZM169.8 156.5V168.2L162.7 172.7C161.3 171 160.5 168.8 160.5 166.5C160.5 161.2 164.6 156.9 169.8 156.5ZM163.4 173.5L170.3 169.1L177.3 173.9C175.5 175.5 173.1 176.6 170.5 176.6C167.7 176.5 165.2 175.4 163.4 173.5ZM178 173.1L170.8 168.2V156.5C176.2 156.6 180.5 161.1 180.5 166.5C180.5 169 179.5 171.3 178 173.1Z" fill="white"/>
<path d="M189 166C188.7 166 188.5 166.2 188.5 166.5C188.5 169.8 187.6 173.1 185.8 176C185.7 176.2 185.7 176.5 186 176.7C186.1 176.8 186.2 176.8 186.3 176.8C186.5 176.8 186.6 176.7 186.7 176.6C188.6 173.6 189.5 170.2 189.5 166.6C189.5 166.2 189.3 166 189 166Z" fill="white"/>
<path d="M170.4 141L145 157.1V184.9L164.3 197H166.2L146.3 184.5L155.7 178.4C156.9 179.9 158.4 181.2 160 182.3C160.1 182.4 160.2 182.4 160.3 182.4C160.5 182.4 160.6 182.3 160.7 182.2C160.9 182 160.8 181.7 160.6 181.5C159.1 180.5 157.7 179.3 156.6 177.9L159.2 176.3C161.2 178.7 164 180.4 167.1 181.1V192C167.1 193.6 168.4 195 170.1 195C171.8 195 173.1 193.6 173.1 192V181.3C176.4 180.7 179.4 179.1 181.6 176.7L193.5 184.8L174.9 197H176.7L195 184.9V157.1L170.4 141ZM155.9 177.1C155 175.9 154.3 174.6 153.7 173.2C153.6 172.9 153.3 172.8 153 172.9C152.7 173 152.6 173.3 152.7 173.5C153.3 175 154.1 176.3 155 177.6L146 183.5V157.7L169.8 142.6V151.5C170 151.5 170.1 151.5 170.3 151.5H170.4C162.2 151.6 155.5 158.2 155.5 166.5C155.5 169.9 156.6 173 158.5 175.5L155.9 177.1ZM172.8 180.3L172 180.4V192C172 193.1 171.1 194 170 194C168.9 194 168 193.1 168 192V180.3L167.2 180.1C160.9 178.6 156.5 173 156.5 166.5C156.5 158.8 162.8 152.5 170.5 152.5C178.2 152.5 184.5 158.8 184.5 166.5C184.5 173.4 179.6 179.2 172.8 180.3ZM185.5 166.5C185.5 158.3 178.9 151.7 170.8 151.5V142.4L194 157.7V184L182.1 175.9C184.2 173.4 185.5 170.1 185.5 166.5Z" fill="white"/>
<path d="M208.108 210.216C209.272 210.216 210.216 209.272 210.216 208.108C210.216 206.944 209.272 206 208.108 206C206.944 206 206 206.944 206 208.108C206 209.272 206.944 210.216 208.108 210.216Z" fill="white"/>
<path fill-rule="evenodd" clip-rule="evenodd" d="M22 170C22 147.909 39.9086 130 62 130C84.0914 130 102 147.909 102 170C102 192.091 84.0914 210 62 210C39.9086 210 22 192.091 22 170Z" stroke="white"/>
<path fill-rule="evenodd" clip-rule="evenodd" d="M63.7992 148.2C69.9992 148.8 75.3992 152.1 78.7992 156.9L67.7992 163.1L71.1992 163.7L70.9992 164.7L65.4992 163.7L61.7992 156L58.1992 163.7L52.6992 164.7L52.4992 163.7L55.8992 163.1L44.7992 156.6C48.2992 151.9 53.5992 148.6 59.7992 148.1V147.5C58.5992 146.7 57.6992 145.2 57.6992 143.5C57.6992 141 59.4992 139 61.6992 139C63.8992 139 65.6992 141 65.6992 143.5C65.6992 145.1 64.8992 146.5 63.7992 147.3V148.2ZM62.1343 154.47L62.6992 155.6L66.1992 162.7H66.3992L77.2992 156.5C74.5891 153.152 70.9261 150.758 66.8672 149.67C66.385 150.904 64.645 154.127 62.1343 154.47ZM61.4539 154.49L60.8992 155.6L57.3992 162.7H57.1992L46.2992 156.3C48.9459 153.108 52.5016 150.826 56.4474 149.735C57.0827 151.045 58.8845 154.293 61.4539 154.49ZM57.4162 149.493C58.0602 150.8 59.6286 153.5 61.5992 153.5C63.5042 153.5 65.1092 150.951 65.8301 149.423C65.129 149.276 64.4177 149.168 63.6992 149.1L62.7992 149V146.8L63.1992 146.5C64.1992 145.8 64.6992 144.7 64.6992 143.5C64.6992 141.6 63.3992 140 61.6992 140C59.9992 140 58.6992 141.6 58.6992 143.5C58.6992 144.8 59.2992 146 60.2992 146.6L60.7992 146.9V149L59.8992 149.1C59.06 149.179 58.2309 149.311 57.4162 149.493Z" fill="white"/>
<path fill-rule="evenodd" clip-rule="evenodd" d="M41.6992 178.7C39.2992 173.1 39.4992 166.9 41.8992 161.6L48.7992 165.8L54.7992 171.7L53.3992 180L58.6992 177.1L58.5992 191.1C52.6992 190.5 47.0992 187.4 43.5992 182.2L42.6992 182.7C42.6992 184.2 41.7992 185.7 40.2992 186.5C39.4992 186.9 38.6992 187.1 37.8992 187.1C36.3992 187.1 35.0992 186.5 34.3992 185.2C33.2992 183.3 34.1992 180.7 36.3992 179.5C37.1992 179.1 37.9992 178.9 38.7992 178.9C39.4992 178.9 40.0992 179 40.6992 179.3L41.6992 178.7ZM46.854 184.475C49.7467 187.376 53.5252 189.308 57.5992 190L57.6992 178.9L53.8992 180.9L52.0992 181.8L52.3992 179.8L53.6992 172L48.1992 166.6L42.2992 163.1C40.7721 167.038 40.5369 171.364 41.5938 175.455C43.0157 175.336 47.0644 175.181 48.3992 177.6C49.6965 179.871 47.7066 183.193 46.854 184.475ZM46.1611 183.742C46.9716 182.511 48.475 179.827 47.4992 178.1C46.495 176.323 43.283 176.337 41.8733 176.435C42.0805 177.098 42.3225 177.755 42.5992 178.4L42.9992 179.2L42.2992 179.5L40.7992 180.4L40.2992 180.2C39.8992 180 39.3992 179.9 38.8992 179.9C38.1992 179.9 37.5992 180.1 36.9992 180.4C35.2992 181.3 34.5992 183.3 35.3992 184.7C35.8992 185.6 36.8992 186.1 37.9992 186.1C38.5992 186.1 39.2992 186 39.8992 185.6C40.9992 185 41.7992 183.9 41.7992 182.7V182.1L42.2992 181.8L43.1992 181.3L43.9992 180.9L44.4992 181.6C45.0042 182.358 45.5603 183.073 46.1611 183.742Z" fill="white"/>
<path fill-rule="evenodd" clip-rule="evenodd" d="M81.6992 161.6L74.7992 165.8L68.7992 171.7L70.1992 180L64.7992 177.2L64.9992 191.2C70.7992 190.5 76.2992 187.5 79.8992 182.4L80.4992 182.7C80.5992 184.2 81.3992 185.6 82.8992 186.5C83.6992 186.9 84.4992 187.1 85.2992 187.1C86.7992 187.1 88.0992 186.4 88.7992 185.2C89.8992 183.3 88.9992 180.7 86.7992 179.5C85.9992 179.1 85.1992 178.9 84.3992 178.9C83.6992 178.9 83.0992 179 82.4992 179.3L81.7992 178.9C84.3992 173.2 84.1992 167 81.6992 161.6ZM78.9992 181.8C78.521 182.479 78.0049 183.122 77.4547 183.727C76.6486 182.493 75.1163 179.839 76.0992 178.1C77.1118 176.309 80.3693 176.337 81.7601 176.437C81.5432 177.134 81.2893 177.823 80.9992 178.5L80.5992 179.3L81.3992 179.7L82.0992 180.1L82.5992 180.4L83.0992 180.2C83.4992 180 83.9992 179.9 84.4992 179.9C85.0992 179.9 85.7992 180.1 86.3992 180.4C88.0992 181.3 88.7992 183.3 87.9992 184.7C87.4992 185.6 86.4992 186.1 85.3992 186.1C84.7992 186.1 84.0992 185.9 83.4992 185.6C82.3992 185 81.5992 183.8 81.5992 182.7V182.1L79.5992 181.1L78.9992 181.8ZM81.2992 163.1C82.894 167.087 83.0899 171.392 82.039 175.458C80.6491 175.339 76.5448 175.161 75.1992 177.6C73.9047 179.946 75.8828 183.208 76.7385 184.475C73.8121 187.377 70.0579 189.298 65.9992 190L65.8992 178.8L69.7992 180.8L71.5992 181.7L71.2992 179.7L69.8992 172L75.3992 166.6L81.2992 163.1Z" fill="white"/>
<path d="M24.1079 210.216C25.2721 210.216 26.2159 209.272 26.2159 208.108C26.2159 206.944 25.2721 206 24.1079 206C22.9438 206 22 206.944 22 208.108C22 209.272 22.9438 210.216 24.1079 210.216Z" fill="white"/>
<path fill-rule="evenodd" clip-rule="evenodd" d="M170 102C192.091 102 210 84.0914 210 62C210 39.9086 192.091 22 170 22C147.909 22 130 39.9086 130 62C130 84.0914 147.909 102 170 102Z" stroke="white"/>
<path d="M208.108 26.2159C209.272 26.2159 210.216 25.2721 210.216 24.1079C210.216 22.9438 209.272 22 208.108 22C206.944 22 206 22.9438 206 24.1079C206 25.2721 206.944 26.2159 208.108 26.2159Z" fill="white"/>
<path d="M153 42V43H189V80H190V42H153Z" fill="white"/>
<path d="M153 49H171.203L145 75.3V76.7002L172.8 49H184V60.2004L156.3 88H157.7L184 61.7969V80H185V48H153V49Z" fill="white"/>
<path d="M163.204 76.1594L181.73 57.6333L182.437 58.3406L163.911 76.8665L163.204 76.1594Z" fill="white"/>
<path fill-rule="evenodd" clip-rule="evenodd" d="M62 102C84.0914 102 102 84.0914 102 62C102 39.9086 84.0914 22 62 22C39.9086 22 22 39.9086 22 62C22 84.0914 39.9086 102 62 102Z" stroke="white"/>
<path d="M24.1079 26.2159C25.2721 26.2159 26.2159 25.2721 26.2159 24.1079C26.2159 22.9438 25.2721 22 24.1079 22C22.9438 22 22 22.9438 22 24.1079C22 25.2721 22.9438 26.2159 24.1079 26.2159Z" fill="white"/>
<path d="M87 67V79.6L80 75.6V56.6L63 45.4V37.5L76 46V44.8L62.5 36L48 45.2V46.4L62 37.6V45.3L44 56.6V75.8L37 79.6V67H36V81L47.2 88H49.1L37.3 80.6L44.5 76.7L62.5 88L79.8 76.6L86.8 80.6L75.6 88H77.4L88 81V67H87ZM45 57.1L62 46.4V64.2L45 75.2V57.1ZM62.5 86.8L45.4 76.1L62.5 65.1L78.9 76L62.5 86.8ZM79 74.9L63 64.2V46.6L79 57.1V74.9Z" fill="white"/>
<path d="M93.1079 95.2159C94.2721 95.2159 95.2159 94.2721 95.2159 93.1079C95.2159 91.9438 94.2721 91 93.1079 91C91.9438 91 91 91.9438 91 93.1079C91 94.2721 91.9438 95.2159 93.1079 95.2159Z" fill="white"/>
<path d="M104.534 95.2159C105.698 95.2159 106.642 94.2721 106.642 93.1079C106.642 91.9438 105.698 91 104.534 91C103.37 91 102.426 91.9438 102.426 93.1079C102.426 94.2721 103.37 95.2159 104.534 95.2159Z" fill="white"/>
<path d="M116.001 95.2159C117.165 95.2159 118.108 94.2721 118.108 93.1079C118.108 91.9438 117.165 91 116.001 91C114.836 91 113.893 91.9438 113.893 93.1079C113.893 94.2721 114.836 95.2159 116.001 95.2159Z" fill="white"/>
<path d="M127.424 95.2159C128.589 95.2159 129.532 94.2721 129.532 93.1079C129.532 91.9438 128.589 91 127.424 91C126.26 91 125.316 91.9438 125.316 93.1079C125.316 94.2721 126.26 95.2159 127.424 95.2159Z" fill="white"/>
<path d="M138.891 95.2159C140.055 95.2159 140.999 94.2721 140.999 93.1079C140.999 91.9438 140.055 91 138.891 91C137.727 91 136.783 91.9438 136.783 93.1079C136.783 94.2721 137.727 95.2159 138.891 95.2159Z" fill="white"/>
<path d="M93.1079 106.642C94.2721 106.642 95.2159 105.698 95.2159 104.534C95.2159 103.37 94.2721 102.426 93.1079 102.426C91.9438 102.426 91 103.37 91 104.534C91 105.698 91.9438 106.642 93.1079 106.642Z" fill="white"/>
<path d="M104.534 106.642C105.698 106.642 106.642 105.698 106.642 104.534C106.642 103.37 105.698 102.426 104.534 102.426C103.37 102.426 102.426 103.37 102.426 104.534C102.426 105.698 103.37 106.642 104.534 106.642Z" fill="white"/>
<path d="M116.001 106.642C117.165 106.642 118.108 105.698 118.108 104.534C118.108 103.37 117.165 102.426 116.001 102.426C114.836 102.426 113.893 103.37 113.893 104.534C113.893 105.698 114.836 106.642 116.001 106.642Z" fill="white"/>
<path d="M127.424 106.642C128.589 106.642 129.532 105.698 129.532 104.534C129.532 103.37 128.589 102.426 127.424 102.426C126.26 102.426 125.316 103.37 125.316 104.534C125.316 105.698 126.26 106.642 127.424 106.642Z" fill="white"/>
<path d="M138.891 106.642C140.055 106.642 140.999 105.698 140.999 104.534C140.999 103.37 140.055 102.426 138.891 102.426C137.727 102.426 136.783 103.37 136.783 104.534C136.783 105.698 137.727 106.642 138.891 106.642Z" fill="white"/>
<path d="M93.1079 118.108C94.2721 118.108 95.2159 117.165 95.2159 116.001C95.2159 114.836 94.2721 113.893 93.1079 113.893C91.9438 113.893 91 114.836 91 116.001C91 117.165 91.9438 118.108 93.1079 118.108Z" fill="white"/>
<path d="M104.534 118.108C105.698 118.108 106.642 117.165 106.642 116.001C106.642 114.836 105.698 113.893 104.534 113.893C103.37 113.893 102.426 114.836 102.426 116.001C102.426 117.165 103.37 118.108 104.534 118.108Z" fill="white"/>
<path d="M116.001 118.108C117.165 118.108 118.108 117.165 118.108 116.001C118.108 114.836 117.165 113.893 116.001 113.893C114.836 113.893 113.893 114.836 113.893 116.001C113.893 117.165 114.836 118.108 116.001 118.108Z" fill="white"/>
<path d="M127.424 118.108C128.589 118.108 129.532 117.165 129.532 116.001C129.532 114.836 128.589 113.893 127.424 113.893C126.26 113.893 125.316 114.836 125.316 116.001C125.316 117.165 126.26 118.108 127.424 118.108Z" fill="white"/>
<path d="M138.891 118.108C140.055 118.108 140.999 117.165 140.999 116.001C140.999 114.836 140.055 113.893 138.891 113.893C137.727 113.893 136.783 114.836 136.783 116.001C136.783 117.165 137.727 118.108 138.891 118.108Z" fill="white"/>
<path d="M93.1079 129.532C94.2721 129.532 95.2159 128.589 95.2159 127.424C95.2159 126.26 94.2721 125.316 93.1079 125.316C91.9438 125.316 91 126.26 91 127.424C91 128.589 91.9438 129.532 93.1079 129.532Z" fill="white"/>
<path d="M104.534 129.532C105.698 129.532 106.642 128.589 106.642 127.424C106.642 126.26 105.698 125.316 104.534 125.316C103.37 125.316 102.426 126.26 102.426 127.424C102.426 128.589 103.37 129.532 104.534 129.532Z" fill="white"/>
<path d="M116.001 129.532C117.165 129.532 118.108 128.589 118.108 127.424C118.108 126.26 117.165 125.316 116.001 125.316C114.836 125.316 113.893 126.26 113.893 127.424C113.893 128.589 114.836 129.532 116.001 129.532Z" fill="white"/>
<path d="M127.424 129.532C128.589 129.532 129.532 128.589 129.532 127.424C129.532 126.26 128.589 125.316 127.424 125.316C126.26 125.316 125.316 126.26 125.316 127.424C125.316 128.589 126.26 129.532 127.424 129.532Z" fill="white"/>
<path d="M138.891 129.532C140.055 129.532 140.999 128.589 140.999 127.424C140.999 126.26 140.055 125.316 138.891 125.316C137.727 125.316 136.783 126.26 136.783 127.424C136.783 128.589 137.727 129.532 138.891 129.532Z" fill="white"/>
<path d="M93.1079 140.999C94.2721 140.999 95.2159 140.055 95.2159 138.891C95.2159 137.727 94.2721 136.783 93.1079 136.783C91.9438 136.783 91 137.727 91 138.891C91 140.055 91.9438 140.999 93.1079 140.999Z" fill="white"/>
<path d="M104.534 140.999C105.698 140.999 106.642 140.055 106.642 138.891C106.642 137.727 105.698 136.783 104.534 136.783C103.37 136.783 102.426 137.727 102.426 138.891C102.426 140.055 103.37 140.999 104.534 140.999Z" fill="white"/>
<path d="M116.001 140.999C117.165 140.999 118.108 140.055 118.108 138.891C118.108 137.727 117.165 136.783 116.001 136.783C114.836 136.783 113.893 137.727 113.893 138.891C113.893 140.055 114.836 140.999 116.001 140.999Z" fill="white"/>
<path d="M127.424 140.999C128.589 140.999 129.532 140.055 129.532 138.891C129.532 137.727 128.589 136.783 127.424 136.783C126.26 136.783 125.316 137.727 125.316 138.891C125.316 140.055 126.26 140.999 127.424 140.999Z" fill="white"/>
<path d="M138.891 140.999C140.055 140.999 140.999 140.055 140.999 138.891C140.999 137.727 140.055 136.783 138.891 136.783C137.727 136.783 136.783 137.727 136.783 138.891C136.783 140.055 137.727 140.999 138.891 140.999Z" fill="white"/>
</svg>
