<svg width="14" height="4" viewBox="0 0 14 4" fill="none" xmlns="http://www.w3.org/2000/svg">
<path d="M12.4213 0.75C12.4213 1.02614 12.6451 1.25 12.9213 1.25C13.1974 1.25 13.4213 1.02614 13.4213 0.75C13.4213 0.473858 13.1974 0.25 12.9213 0.25C12.6451 0.25 12.4213 0.473858 12.4213 0.75Z" fill="#00DCE6"/>
<path fill-rule="evenodd" clip-rule="evenodd" d="M12.1713 0.75C12.1713 1.16421 12.5071 1.5 12.9213 1.5C13.3355 1.5 13.6713 1.16421 13.6713 0.75C13.6713 0.335786 13.3355 0 12.9213 0C12.5071 0 12.1713 0.335786 12.1713 0.75ZM12.9213 1.25C12.6451 1.25 12.4213 1.02614 12.4213 0.75C12.4213 0.473858 12.6451 0.25 12.9213 0.25C13.1974 0.25 13.4213 0.473858 13.4213 0.75C13.4213 1.02614 13.1974 1.25 12.9213 1.25Z" fill="#00DCE6"/>
<path d="M8.42128 0.75C8.42128 1.02614 8.64514 1.25 8.92128 1.25C9.19742 1.25 9.42128 1.02614 9.42128 0.75C9.42128 0.473858 9.19742 0.25 8.92128 0.25C8.64514 0.25 8.42128 0.473858 8.42128 0.75Z" fill="#00DCE6"/>
<path fill-rule="evenodd" clip-rule="evenodd" d="M8.17128 0.75C8.17128 1.16421 8.50707 1.5 8.92128 1.5C9.33549 1.5 9.67128 1.16421 9.67128 0.75C9.67128 0.335786 9.33549 0 8.92128 0C8.50707 0 8.17128 0.335786 8.17128 0.75ZM8.92128 1.25C8.64514 1.25 8.42128 1.02614 8.42128 0.75C8.42128 0.473858 8.64514 0.25 8.92128 0.25C9.19742 0.25 9.42128 0.473858 9.42128 0.75C9.42128 1.02614 9.19742 1.25 8.92128 1.25Z" fill="#00DCE6"/>
<path d="M4.42128 0.75C4.42128 1.02614 4.64514 1.25 4.92128 1.25C5.19742 1.25 5.42128 1.02614 5.42128 0.75C5.42128 0.473858 5.19742 0.25 4.92128 0.25C4.64514 0.25 4.42128 0.473858 4.42128 0.75Z" fill="#00DCE6"/>
<path fill-rule="evenodd" clip-rule="evenodd" d="M4.17128 0.75C4.17128 1.16421 4.50707 1.5 4.92128 1.5C5.33549 1.5 5.67128 1.16421 5.67128 0.75C5.67128 0.335786 5.33549 0 4.92128 0C4.50707 0 4.17128 0.335786 4.17128 0.75ZM4.92128 1.25C4.64514 1.25 4.42128 1.02614 4.42128 0.75C4.42128 0.473858 4.64514 0.25 4.92128 0.25C5.19742 0.25 5.42128 0.473858 5.42128 0.75C5.42128 1.02614 5.19742 1.25 4.92128 1.25Z" fill="#00DCE6"/>
<path d="M0.42128 0.75C0.42128 1.02614 0.645138 1.25 0.92128 1.25C1.19742 1.25 1.42128 1.02614 1.42128 0.75C1.42128 0.473858 1.19742 0.25 0.92128 0.25C0.645138 0.25 0.42128 0.473858 0.42128 0.75Z" fill="#00DCE6"/>
<path fill-rule="evenodd" clip-rule="evenodd" d="M0.17128 0.75C0.17128 1.16421 0.507066 1.5 0.92128 1.5C1.33549 1.5 1.67128 1.16421 1.67128 0.75C1.67128 0.335786 1.33549 0 0.92128 0C0.507066 0 0.17128 0.335786 0.17128 0.75ZM0.92128 1.25C0.645138 1.25 0.42128 1.02614 0.42128 0.75C0.42128 0.473858 0.645138 0.25 0.92128 0.25C1.19742 0.25 1.42128 0.473858 1.42128 0.75C1.42128 1.02614 1.19742 1.25 0.92128 1.25Z" fill="#00DCE6"/>
</svg>
