<svg width="2" height="160" viewBox="0 0 2 160" fill="none" xmlns="http://www.w3.org/2000/svg">
<path d="M0 -4.37114e-08L-4.37114e-08 1L2 1L2 4.37114e-08L0 -4.37114e-08ZM-1.31134e-07 3L-2.18557e-07 5L2 5L2 3L-1.31134e-07 3ZM-3.0598e-07 7L-3.93402e-07 9L2 9L2 7L-3.0598e-07 7ZM-4.80825e-07 11L-5.68248e-07 13L2 13L2 11L-4.80825e-07 11ZM-6.55671e-07 15L-7.43094e-07 17L2 17L2 15L-6.55671e-07 15ZM-8.30516e-07 19L-9.17939e-07 21L2 21L2 19L-8.30516e-07 19ZM-1.00536e-06 23L-1.09278e-06 25L2 25L2 23L-1.00536e-06 23ZM-1.18021e-06 27L-1.26763e-06 29L2 29L2 27L-1.18021e-06 27ZM-1.35505e-06 31L-1.44248e-06 33L2 33L2 31L-1.35505e-06 31ZM-1.5299e-06 35L-1.61732e-06 37L2 37L2 35L-1.5299e-06 35ZM-1.70474e-06 39L-1.79217e-06 41L2 41L2 39L-1.70474e-06 39ZM-1.87959e-06 43L-1.96701e-06 45L2 45L2 43L-1.87959e-06 43ZM-2.05444e-06 47L-2.14186e-06 49L2 49L2 47L-2.05444e-06 47ZM-2.22928e-06 51L-2.3167e-06 53L2 53L2 51L-2.22928e-06 51ZM-2.40413e-06 55L-2.49155e-06 57L2 57L2 55L-2.40413e-06 55ZM-2.57897e-06 59L-2.66639e-06 61L2 61L2 59L-2.57897e-06 59ZM-2.75382e-06 63L-2.84124e-06 65L2 65L2 63L-2.75382e-06 63ZM-2.92866e-06 67L-3.01609e-06 69L2 69L2 67L-2.92866e-06 67ZM-3.10351e-06 71L-3.19093e-06 73L2 73L2 71L-3.10351e-06 71ZM-3.27835e-06 75L-3.36578e-06 77L2 77L2 75L-3.27835e-06 75ZM-3.4532e-06 79L-3.54062e-06 81L2 81L2 79L-3.4532e-06 79ZM-3.62805e-06 83L-3.71547e-06 85L2 85L2 83L-3.62805e-06 83ZM-3.80289e-06 87L-3.89031e-06 89L2 89L2 87L-3.80289e-06 87ZM-3.97774e-06 91L-4.06516e-06 93L2 93L2 91L-3.97774e-06 91ZM-4.15258e-06 95L-4.24e-06 97L2 97L2 95L-4.15258e-06 95ZM-4.32743e-06 99L-4.41485e-06 101L2 101L2 99L-4.32743e-06 99ZM-4.50227e-06 103L-4.5897e-06 105L2 105L2 103L-4.50227e-06 103ZM-4.67712e-06 107L-4.76454e-06 109L2 109L2 107L-4.67712e-06 107ZM-4.85196e-06 111L-4.93939e-06 113L2 113L2 111L-4.85196e-06 111ZM-5.02681e-06 115L-5.11423e-06 117L1.99999 117L1.99999 115L-5.02681e-06 115ZM-5.20166e-06 119L-5.28908e-06 121L1.99999 121L1.99999 119L-5.20166e-06 119ZM-5.3765e-06 123L-5.46392e-06 125L1.99999 125L1.99999 123L-5.3765e-06 123ZM-5.55135e-06 127L-5.63877e-06 129L1.99999 129L1.99999 127L-5.55135e-06 127ZM-5.72619e-06 131L-5.81362e-06 133L1.99999 133L1.99999 131L-5.72619e-06 131ZM-5.90104e-06 135L-5.98846e-06 137L1.99999 137L1.99999 135L-5.90104e-06 135ZM-6.07588e-06 139L-6.16331e-06 141L1.99999 141L1.99999 139L-6.07588e-06 139ZM-6.25073e-06 143L-6.33815e-06 145L1.99999 145L1.99999 143L-6.25073e-06 143ZM-6.42557e-06 147L-6.513e-06 149L1.99999 149L1.99999 147L-6.42557e-06 147ZM-6.60042e-06 151L-6.68784e-06 153L1.99999 153L1.99999 151L-6.60042e-06 151ZM-6.77527e-06 155L-6.86269e-06 157L1.99999 157L1.99999 155L-6.77527e-06 155ZM-6.95011e-06 159L-6.99382e-06 160L1.99999 160L1.99999 159L-6.95011e-06 159Z" fill="#00DCE6"/>
</svg>
