<svg width="200" height="200" viewBox="0 0 200 200" fill="none" xmlns="http://www.w3.org/2000/svg">
<path fill-rule="evenodd" clip-rule="evenodd" d="M30.5557 0H200V169.444C178.77 188.446 150.734 200 120 200C53.7258 200 0 146.274 0 80C0 49.2658 11.5541 21.2303 30.5557 0Z" fill="#E6FBFC"/>
<path d="M104.5 112.705L116.364 124.5L139.5 101.5" stroke="#00DCE6" stroke-width="4"/>
<path d="M93.5 90.5H149.5V130.5C149.5 135.471 145.471 139.5 140.5 139.5H102.5C97.5294 139.5 93.5 135.471 93.5 130.5V90.5Z" stroke="#00DCE6" stroke-width="2"/>
<path d="M88 98C86.5 98 86.4 98 82 98C74.5 98 59.9999 91 60 78.5C60.0001 66 68.5 58.5 76 58.5C75.6667 56.6667 76 51 80.5 47.5C85 44 90 45 92.5 46.5C92.5 36.5 103 20 121.5 20C140 20 151 35.5 151 43.5C164.5 43.5 180 52.9999 180 71C180 89 167 98 155 98" stroke="#00DCE6" stroke-width="2"/>
<path d="M100.5 89C100.5 77 109 67.5 120.5 67.5C132 67.5 142.5 76.5 142.5 89" stroke="#00DCE6" stroke-width="4"/>
<path d="M120.5 74.5C129.5 74.5 135 82.5 135 88.5" stroke="#00DCE6" stroke-width="2"/>
<path fill-rule="evenodd" clip-rule="evenodd" d="M155 104V101H157V104H155ZM155 110V107H157V110H155ZM155 116V113H157V116H155ZM155 122V119H157V122H155ZM155 128V125H157V128H155ZM155 134V131H157V134H155ZM155 140V137H157V140H155Z" fill="#00DCE6"/>
<path fill-rule="evenodd" clip-rule="evenodd" d="M86 104V101H88V104H86ZM86 110V107H88V110H86ZM86 116V113H88V116H86ZM86 122V119H88V122H86ZM86 128V125H88V128H86ZM86 134V131H88V134H86ZM86 140V137H88V140H86Z" fill="#00DCE6"/>
</svg>
