<svg width="200" height="200" viewBox="0 0 200 200" fill="none" xmlns="http://www.w3.org/2000/svg">
<path fill-rule="evenodd" clip-rule="evenodd" d="M30.5557 0H200V169.444C178.77 188.446 150.734 200 120 200C53.7258 200 0 146.274 0 80C0 49.2658 11.5541 21.2303 30.5557 0Z" fill="#E6FBFC"/>
<path d="M69.9448 55C65.4696 55 60 57.98 60 63.9397C60 70.8927 60 124.597 60 130.06C60 135.524 63.9779 139 69.9448 139C76.9061 139 146.58 139 152.05 139C157.519 139 161 135.524 161 130.06C161 125.69 161 114.658 161 110.188M161 84.8121C161 79.8457 161 67.5156 161 63.9397C161 58.9733 158.017 55.0001 152.05 55C146.083 54.9999 127.635 55 125.149 55" stroke="#00DCE6" stroke-width="2"/>
<path d="M150 139C157 139 156.5 139 162 139C167.5 139 171 134.589 171 129.118C171 124.74 171 113.656 171 109.179M171 84.821C171 79.8467 171 67.5355 171 63.9539C171 58.9796 168 55.0001 162 55C156 54.9999 146.5 55 144 55" stroke="#00DCE6" stroke-width="2"/>
<path d="M81 45.5L109 20L137.5 45.5" stroke="#00DCE6" stroke-width="4"/>
<rect x="137" y="85.5" width="42" height="24" rx="5" stroke="#00DCE6" stroke-width="2"/>
<circle cx="150" cy="97.5" r="7" fill="#00DCE6"/>
<path d="M124.5 33.5V87.5M94 33.5V87.5" stroke="#00DCE6" stroke-width="4"/>
</svg>
