<svg width="200" height="200" viewBox="0 0 200 200" fill="none" xmlns="http://www.w3.org/2000/svg">
<path fill-rule="evenodd" clip-rule="evenodd" d="M30.5557 0H200V169.444C178.77 188.446 150.734 200 120 200C53.7258 200 0 146.274 0 80C0 49.2658 11.5541 21.2303 30.5557 0Z" fill="#E6FBFC"/>
<path d="M79 20L83.2658 33.1287H97.0701L85.9022 41.2426L90.1679 54.3713L79 46.2574L67.8321 54.3713L72.0978 41.2426L60.9299 33.1287H74.7342L79 20Z" stroke="#00DCE6" stroke-width="2"/>
<path d="M120 20L124.266 33.1287H138.07L126.902 41.2426L131.168 54.3713L120 46.2574L108.832 54.3713L113.098 41.2426L101.93 33.1287H115.734L120 20Z" stroke="#00DCE6" stroke-width="2"/>
<path d="M161 20L165.266 33.1287H179.07L167.902 41.2426L172.168 54.3713L161 46.2574L149.832 54.3713L154.098 41.2426L142.93 33.1287H156.734L161 20Z" stroke="#00DCE6" stroke-width="2"/>
<path d="M98.0701 49L102.336 62.1287H110.57V67C110.57 67 109.57 65 106.57 65C103.57 65 101.57 66.5 101.57 69.5C101.57 73.5 101.57 78 101.57 78L98.0701 75.2574L86.9022 83.3713L91.1679 70.2426L80 62.1287H93.8043L98.0701 49Z" stroke="#00DCE6" stroke-width="2"/>
<path d="M142 49L146.266 62.1287H160.07L148.902 70.2426L153.168 83.3713L142 75.2574L130.832 83.3713L135.098 70.2426L123.93 62.1287H137.734L142 49Z" stroke="#00DCE6" stroke-width="2"/>
<path d="M91.6038 113.241C93.6037 117.241 98.5 125.5 104 129V135H132C132 133 131.604 128.241 133.604 125.241C137.27 119.741 136 103.496 136 99.9997C136 95.4997 131.5 90.9997 126 90.9997H111.104V68.8407C111.104 62.9996 102 62.7407 102 68.8407V109C99.4999 106 93.1039 98.7407 89.1038 92.2407C86.0268 87.2407 79.1039 92.2407 81.6039 97.2407C83.6039 101.241 88.4258 106.885 91.6038 113.241Z" stroke="#00DCE6" stroke-width="3"/>
<path d="M112.104 78.199C115.095 76.2329 117.07 72.8471 117.07 69C117.07 62.9249 112.145 58 106.07 58C99.9949 58 95.0701 62.9249 95.0701 69C95.0701 73.0855 97.2973 76.6508 100.604 78.5479V69.841C100.604 66.1431 103.522 64.1072 106.317 64.0042C107.722 63.9525 109.174 64.3761 110.286 65.3686C111.414 66.3764 112.104 67.8922 112.104 69.8411V78.199Z" fill="#00DCE6"/>
<path fill-rule="evenodd" clip-rule="evenodd" d="M131 138L134.125 138L134.125 140L131 140L131 138ZM125 138L128.125 138L128.125 140L125 140L125 138ZM119 138L122.125 138L122.125 140L119 140L119 138ZM112.875 138L116 138L116 140L112.875 140L112.875 138ZM106.875 138L110 138L110 140L106.875 140L106.875 138ZM101 138L104.125 138L104.125 140L101 140L101 138Z" fill="#00DCE6"/>
</svg>
