<svg width="200" height="200" viewBox="0 0 200 200" fill="none" xmlns="http://www.w3.org/2000/svg">
<path fill-rule="evenodd" clip-rule="evenodd" d="M30.5557 0H200V169.444C178.77 188.446 150.734 200 120 200C53.7258 200 0 146.274 0 80C0 49.2658 11.5541 21.2303 30.5557 0Z" fill="#E6FBFC"/>
<path d="M82 113H104V139H82V113Z" stroke="#00DCE6" stroke-width="2"/>
<circle cx="116" cy="72" r="27" stroke="#00DCE6" stroke-width="2"/>
<path fill-rule="evenodd" clip-rule="evenodd" d="M118 108.947V138V140H120H140H142V138V110.314L140 108.314V138H120V108.786C119.338 108.857 118.672 108.911 118 108.947ZM120 99.7164V73H140V86.4303C140.769 85.1538 141.439 83.811 142 82.4123V73V71H140H120H118V73V99.9297C118.674 99.8821 119.34 99.8108 120 99.7164Z" fill="#00DCE6"/>
<path d="M145.145 91.3863L144.236 92.7505L145.395 93.9098L174.836 123.351C177.179 125.694 177.179 129.493 174.836 131.836C172.493 134.179 168.694 134.179 166.351 131.836L136.689 102.175L135.576 101.061L134.232 101.883C128.923 105.129 122.683 107 116 107C96.67 107 81 91.33 81 72C81 52.67 96.67 37 116 37C135.33 37 151 52.67 151 72C151 79.1734 148.844 85.8373 145.145 91.3863Z" stroke="#00DCE6" stroke-width="4"/>
<path d="M145.977 91.941L145.523 92.6231L146.102 93.2027L155.293 102.393L157 104.1V101.686V21H179V139H157V124.314V123.899L156.707 123.606L135.982 102.882L135.425 102.325L134.754 102.736C129.292 106.075 122.873 108 116 108C96.1177 108 80 91.8823 80 72C80 52.1177 96.1177 36 116 36C135.882 36 152 52.1177 152 72C152 79.3769 149.782 86.2327 145.977 91.941Z" stroke="#00DCE6" stroke-width="2"/>
<circle cx="118" cy="87" r="7" fill="#00DCE6"/>
</svg>
