<svg width="200" height="200" viewBox="0 0 200 200" fill="none" xmlns="http://www.w3.org/2000/svg">
<path fill-rule="evenodd" clip-rule="evenodd" d="M30.5557 0H200V169.444C178.77 188.446 150.734 200 120 200C53.7258 200 0 146.274 0 80C0 49.2658 11.5541 21.2303 30.5557 0Z" fill="#E6FBFC"/>
<path d="M77 96.9507V34.4529H101.246H101.527L101.767 34.3063L123.269 21.1718L144.77 34.3063L145.01 34.4529H145.291H169V96.9507C169 106.111 161.733 114.322 152.08 121.507C144.543 127.118 135.785 131.939 128.441 135.982C126.612 136.988 124.872 137.946 123.259 138.856C122.037 138.191 120.73 137.491 119.358 136.756C111.853 132.736 102.417 127.68 94.3194 121.706C89.4367 118.105 85.0897 114.203 81.9703 110.039C78.8531 105.879 77 101.511 77 96.9507Z" stroke="#00DCE6" stroke-width="2"/>
<path d="M84 94.4081V41.435H104.486H104.767L105.007 41.2886L123.229 30.1714L141.451 41.2886L141.69 41.435H141.971H162V94.4081C162 102.115 155.873 109.054 147.66 115.16C141.255 119.923 133.814 124.014 127.564 127.45C126.034 128.291 124.574 129.093 123.219 129.857C122.198 129.302 121.109 128.719 119.968 128.109C113.58 124.691 105.561 120.4 98.6789 115.329C94.5295 112.272 90.8426 108.966 88.1999 105.443C85.5594 101.924 84 98.2418 84 94.4081Z" stroke="#00DCE6" stroke-width="2"/>
<path d="M103 73H143V94C143 98.4183 139.418 102 135 102H111C106.582 102 103 98.4183 103 94V73Z" stroke="#00DCE6" stroke-width="4"/>
<rect x="120" y="79" width="6" height="15" rx="3" fill="#00DCE6"/>
<path d="M107 69C107 59.5116 113.476 52 122.238 52C131 52 139 59.1163 139 69" stroke="#00DCE6" stroke-width="4"/>
<path d="M122 58C128.828 58 133 64.2857 133 69" stroke="#00DCE6" stroke-width="2"/>
<path d="M150 26L147 26V24H150V26Z" fill="#00DCE6"/>
<path d="M156 26L153 26V24H156V26Z" fill="#00DCE6"/>
<path d="M159 26L162 26V24H159V26Z" fill="#00DCE6"/>
<path d="M168 26L165 26V24H168V26Z" fill="#00DCE6"/>
<path d="M171 26L174 26V24H171V26Z" fill="#00DCE6"/>
<path d="M180 26L177 26V24H180V26Z" fill="#00DCE6"/>
<path d="M178 32V29H180V32H178Z" fill="#00DCE6"/>
<path d="M178 38V35H180V38H178Z" fill="#00DCE6"/>
<path d="M178 41V44H180V41H178Z" fill="#00DCE6"/>
<path d="M178 50V47H180V50H178Z" fill="#00DCE6"/>
<path d="M178 53V56H180V53H178Z" fill="#00DCE6"/>
<path d="M178 62V59H180V62H178Z" fill="#00DCE6"/>
<path d="M178 65V68H180V65H178Z" fill="#00DCE6"/>
<path d="M178 74V71H180V74H178Z" fill="#00DCE6"/>
<path d="M178 77V80H180V77H178Z" fill="#00DCE6"/>
<path d="M178 86V83H180V86H178Z" fill="#00DCE6"/>
<path d="M178 89V92H180V89H178Z" fill="#00DCE6"/>
<path d="M178 98V95H180V98H178Z" fill="#00DCE6"/>
</svg>
