<svg width="50" height="50" viewBox="0 0 50 50" fill="none" xmlns="http://www.w3.org/2000/svg">
<path d="M2.10791 4.21582C3.27222 4.21582 4.21582 3.27222 4.21582 2.10791C4.21582 0.943848 3.27222 0 2.10791 0C0.943848 0 0 0.943848 0 2.10791C0 3.27222 0.943848 4.21582 2.10791 4.21582Z" fill="white"/>
<path d="M13.533 4.21582C14.6973 4.21582 15.6409 3.27222 15.6409 2.10791C15.6409 0.943848 14.6973 0 13.533 0C12.3689 0 11.425 0.943848 11.425 2.10791C11.425 3.27222 12.3689 4.21582 13.533 4.21582Z" fill="white"/>
<path d="M27.1079 2.10791C27.1079 3.27222 26.1643 4.21582 25 4.21582C23.8359 4.21582 22.8921 3.27222 22.8921 2.10791C22.8921 0.943848 23.8359 0 25 0C26.1643 0 27.1079 0.943848 27.1079 2.10791Z" fill="white"/>
<path d="M36.4248 4.21582C37.5891 4.21582 38.5327 3.27222 38.5327 2.10791C38.5327 0.943848 37.5891 0 36.4248 0C35.2607 0 34.3169 0.943848 34.3169 2.10791C34.3169 3.27222 35.2607 4.21582 36.4248 4.21582Z" fill="white"/>
<path d="M50 2.10791C50 3.27222 49.0564 4.21582 47.8921 4.21582C46.728 4.21582 45.7842 3.27222 45.7842 2.10791C45.7842 0.943848 46.728 0 47.8921 0C49.0564 0 50 0.943848 50 2.10791Z" fill="white"/>
<path d="M2.10791 15.6416C3.27222 15.6416 4.21582 14.698 4.21582 13.5337C4.21582 12.3696 3.27222 11.4258 2.10791 11.4258C0.943848 11.4258 0 12.3696 0 13.5337C0 14.698 0.943848 15.6416 2.10791 15.6416Z" fill="white"/>
<path d="M15.6409 13.5337C15.6409 14.698 14.6973 15.6416 13.533 15.6416C12.3689 15.6416 11.425 14.698 11.425 13.5337C11.425 12.3696 12.3689 11.4258 13.533 11.4258C14.6973 11.4258 15.6409 12.3696 15.6409 13.5337Z" fill="white"/>
<path d="M25 15.6416C26.1643 15.6416 27.1079 14.698 27.1079 13.5337C27.1079 12.3696 26.1643 11.4258 25 11.4258C23.8359 11.4258 22.8921 12.3696 22.8921 13.5337C22.8921 14.698 23.8359 15.6416 25 15.6416Z" fill="white"/>
<path d="M38.5327 13.5337C38.5327 14.698 37.5891 15.6416 36.4248 15.6416C35.2607 15.6416 34.3169 14.698 34.3169 13.5337C34.3169 12.3696 35.2607 11.4258 36.4248 11.4258C37.5891 11.4258 38.5327 12.3696 38.5327 13.5337Z" fill="white"/>
<path d="M47.8921 15.6416C49.0564 15.6416 50 14.698 50 13.5337C50 12.3696 49.0564 11.4258 47.8921 11.4258C46.728 11.4258 45.7842 12.3696 45.7842 13.5337C45.7842 14.698 46.728 15.6416 47.8921 15.6416Z" fill="white"/>
<path d="M4.21582 25.001C4.21582 26.1653 3.27222 27.1089 2.10791 27.1089C0.943848 27.1089 0 26.1653 0 25.001C0 23.8369 0.943848 22.8931 2.10791 22.8931C3.27222 22.8931 4.21582 23.8369 4.21582 25.001Z" fill="white"/>
<path d="M13.533 27.1089C14.6973 27.1089 15.6409 26.1653 15.6409 25.001C15.6409 23.8369 14.6973 22.8931 13.533 22.8931C12.3689 22.8931 11.425 23.8369 11.425 25.001C11.425 26.1653 12.3689 27.1089 13.533 27.1089Z" fill="white"/>
<path d="M27.1079 25.001C27.1079 26.1653 26.1643 27.1089 25 27.1089C23.8359 27.1089 22.8921 26.1653 22.8921 25.001C22.8921 23.8369 23.8359 22.8931 25 22.8931C26.1643 22.8931 27.1079 23.8369 27.1079 25.001Z" fill="white"/>
<path d="M36.4248 27.1089C37.5891 27.1089 38.5327 26.1653 38.5327 25.001C38.5327 23.8369 37.5891 22.8931 36.4248 22.8931C35.2607 22.8931 34.3169 23.8369 34.3169 25.001C34.3169 26.1653 35.2607 27.1089 36.4248 27.1089Z" fill="white"/>
<path d="M50 25.001C50 26.1653 49.0564 27.1089 47.8921 27.1089C46.728 27.1089 45.7842 26.1653 45.7842 25.001C45.7842 23.8369 46.728 22.8931 47.8921 22.8931C49.0564 22.8931 50 23.8369 50 25.001Z" fill="white"/>
<path d="M2.10791 38.5322C3.27222 38.5322 4.21582 37.5886 4.21582 36.4243C4.21582 35.2603 3.27222 34.3164 2.10791 34.3164C0.943848 34.3164 0 35.2603 0 36.4243C0 37.5886 0.943848 38.5322 2.10791 38.5322Z" fill="white"/>
<path d="M15.6409 36.4243C15.6409 37.5886 14.6973 38.5322 13.533 38.5322C12.3689 38.5322 11.425 37.5886 11.425 36.4243C11.425 35.2603 12.3689 34.3164 13.533 34.3164C14.6973 34.3164 15.6409 35.2603 15.6409 36.4243Z" fill="white"/>
<path d="M25 38.5322C26.1643 38.5322 27.1079 37.5886 27.1079 36.4243C27.1079 35.2603 26.1643 34.3164 25 34.3164C23.8359 34.3164 22.8921 35.2603 22.8921 36.4243C22.8921 37.5886 23.8359 38.5322 25 38.5322Z" fill="white"/>
<path d="M38.5327 36.4243C38.5327 37.5886 37.5891 38.5322 36.4248 38.5322C35.2607 38.5322 34.3169 37.5886 34.3169 36.4243C34.3169 35.2603 35.2607 34.3164 36.4248 34.3164C37.5891 34.3164 38.5327 35.2603 38.5327 36.4243Z" fill="white"/>
<path d="M47.8921 38.5322C49.0564 38.5322 50 37.5886 50 36.4243C50 35.2603 49.0564 34.3164 47.8921 34.3164C46.728 34.3164 45.7842 35.2603 45.7842 36.4243C45.7842 37.5886 46.728 38.5322 47.8921 38.5322Z" fill="white"/>
<path d="M4.21582 47.8916C4.21582 49.0559 3.27222 49.9995 2.10791 49.9995C0.943848 49.9995 0 49.0559 0 47.8916C0 46.7275 0.943848 45.7837 2.10791 45.7837C3.27222 45.7837 4.21582 46.7275 4.21582 47.8916Z" fill="white"/>
<path d="M13.533 49.9995C14.6973 49.9995 15.6409 49.0559 15.6409 47.8916C15.6409 46.7275 14.6973 45.7837 13.533 45.7837C12.3689 45.7837 11.425 46.7275 11.425 47.8916C11.425 49.0559 12.3689 49.9995 13.533 49.9995Z" fill="white"/>
<path d="M27.1079 47.8916C27.1079 49.0559 26.1643 49.9995 25 49.9995C23.8359 49.9995 22.8921 49.0559 22.8921 47.8916C22.8921 46.7275 23.8359 45.7837 25 45.7837C26.1643 45.7837 27.1079 46.7275 27.1079 47.8916Z" fill="white"/>
<path d="M36.4248 49.9995C37.5891 49.9995 38.5327 49.0559 38.5327 47.8916C38.5327 46.7275 37.5891 45.7837 36.4248 45.7837C35.2607 45.7837 34.3169 46.7275 34.3169 47.8916C34.3169 49.0559 35.2607 49.9995 36.4248 49.9995Z" fill="white"/>
<path d="M50 47.8916C50 49.0559 49.0564 49.9995 47.8921 49.9995C46.728 49.9995 45.7842 49.0559 45.7842 47.8916C45.7842 46.7275 46.728 45.7837 47.8921 45.7837C49.0564 45.7837 50 46.7275 50 47.8916Z" fill="white"/>
</svg>
