<svg width="70" height="70" viewBox="0 0 70 70" fill="none" xmlns="http://www.w3.org/2000/svg">
<circle cx="35" cy="35" r="35" fill="#00DCE6" fill-opacity="0.1"/>
<path fill-rule="evenodd" clip-rule="evenodd" d="M25.2282 16V17.16V20.16H42.7282V21.16H24.7282H24.2282V20.66V18.3199L16.4564 25.66L24.2282 33V30.16V29.66H24.7282H38.7282V30.66H25.2282V34.16V35.3199L24.3849 34.5235L15.3849 26.0235L15 25.66L15.3849 25.2965L24.3849 16.7965L25.2282 16ZM30.7282 26.16H27.7282V25.16H30.7282V26.16ZM35.7282 26.16H32.7282V25.16H35.7282V26.16ZM40.7282 26.16H37.7282V25.16H40.7282V26.16ZM44.7283 25.66C44.7283 23.0057 46.9293 21.66 48.7283 21.66C50.5272 21.66 52.7283 23.0057 52.7283 25.66V25.6717V25.6834V25.6951V25.7068V25.7185V25.7301V25.7418V25.7534V25.765V25.7766V25.7882V25.7998V25.8114V25.8229V25.8345V25.846V25.8575V25.8691V25.8806V25.892V25.9035V25.915V25.9264V25.9379V25.9493V25.9607V25.9721V25.9835V25.9949V26.0062V26.0176V26.0289V26.0402V26.0515V26.0628V26.0741V26.0854V26.0967V26.1079V26.1191V26.1304V26.1416V26.1528V26.1639V26.1751V26.1862V26.1974V26.2085V26.2196V26.2307V26.2418V26.2529V26.2639V26.275V26.286V26.297V26.308V26.319V26.33V26.3409V26.3519V26.3628V26.3737V26.3846V26.3955V26.4064V26.4172V26.4281V26.4389V26.4497V26.4605V26.4713V26.4821V26.4929V26.5036V26.5143V26.525V26.5357V26.5464V26.5571V26.5677V26.5784V26.589V26.5996V26.6102V26.6208V26.6313V26.6419V26.6524V26.6629V26.6734V26.6839V26.6944V26.7048V26.7153V26.7257V26.7361V26.7465V26.7569V26.7672V26.7776V26.7879V26.7982V26.8085V26.8188V26.829V26.8393V26.8495V26.8597V26.8699V26.8801V26.8903V26.9004V26.9106V26.9207V26.9308V26.9409V26.9509V26.961V26.971V26.981V26.991V27.001V27.011V27.0209V27.0308V27.0407V27.0506V27.0605V27.0704V27.0802V27.0901V27.0999V27.1097V27.1194V27.1292V27.1389V27.1487V27.1584V27.168V27.1777V27.1874V27.197V27.2066V27.2162V27.2258V27.2354V27.2449V27.2544V27.2639V27.2734V27.2829V27.2924V27.3018V27.3112V27.3206V27.33V27.3393V27.3487V27.358V27.3673V27.3766V27.3859V27.3951V27.4044V27.4136V27.4228V27.4319V27.4411V27.4502V27.4594V27.4685V27.4775V27.4866V27.4956V27.5047V27.5137V27.5226V27.5316V27.5405V27.5495V27.5584V27.5673V27.5761V27.585V27.5938V27.6026V27.6114V27.6202V27.6289V27.6376V27.6463V27.655V27.6637V27.6723V27.681V27.6896V27.6982V27.7067V27.7153V27.7238V27.7323V27.7408V27.7493V27.7577V27.7661V27.7745V27.7829V27.7913V27.7996V27.8079V27.8162V27.8245V27.8328V27.841V27.8492V27.8574V27.8656V27.8737V27.8819V27.89V27.8981V27.9061V27.9142V27.9222V27.9302V27.9382V27.9461V27.9541V27.962V27.9699V27.9777V27.9856V27.9934V28.0012V28.009V28.0168V28.0245V28.0322V28.0399V28.0476V28.0553V28.0629V28.0705V28.0781V28.0856V28.0932V28.1007V28.1082V28.1157V28.1231V28.1305V28.1379V28.1453V28.1527V28.16V28.1673V28.1746V28.1819V28.1891V28.1964V28.2036V28.2107V28.2179V28.225V28.2321V28.2392V28.2462V28.2533V28.2603V28.2673V28.2742V28.2812V28.2881V28.295V28.3019V28.3087V28.3155V28.3223V28.3291V28.3359V28.3426V28.3493V28.356V28.3626V28.3692V28.3759V28.3824V28.389V28.3955V28.402V28.4085V28.415V28.4214V28.4278V28.4342V28.4406V28.4469V28.4532V28.4595V28.4658V28.472V28.4782V28.4844V28.4906V28.4967V28.5028V28.5089V28.5149V28.521V28.527V28.533V28.5389V28.5449V28.5508V28.5567V28.5625V28.5684V28.5742V28.5799V28.5857V28.5914V28.5971V28.6028V28.6085V28.6141V28.6197V28.6253V28.6308V28.6363V28.6418V28.6473V28.6527V28.6581V28.6635V28.6689V28.6742V28.6795V28.6848V28.6901V28.6953V28.7005V28.7057V28.7108V28.716V28.7211V28.7261V28.7312V28.7362V28.7412V28.7461V28.7511V28.756V28.7609V28.7657V28.7705V28.7753V28.7801V28.7849V28.7896V28.7943V28.7989V28.8036V28.8082V28.8127V28.8173V28.8218V28.8263V28.8308V28.8352V28.8396V28.844V28.8484V28.8527V28.857V28.8613V28.8655V28.8697V28.8739V28.8781V28.8822V28.8863V28.8904V28.8944V28.8984V28.9024V28.9064V28.9103V28.9142V28.918V28.9219V28.9257V28.9295V28.9332V28.937V28.9407V28.9443V28.948V28.9516V28.9552V28.9587V28.9622V28.9657V28.9692V28.9726V28.976V28.9794V28.9827V28.986V28.9893V28.9926V28.9958V28.999V29.0022V29.0053V29.0084V29.0115V29.0145V29.0175V29.0205V29.0235V29.0264V29.0293V29.0322V29.035V29.0378V29.0406V29.0433V29.046V29.0487V29.0514V29.054V29.0566V29.0591V29.0616V29.0641V29.0666V29.069V29.0714V29.0738V29.0762V29.0785V29.0807V29.083V29.0852V29.0874V29.0895V29.0917V29.0938V29.0958V29.0978V29.0998V29.1018V29.1037V29.1056V29.1075V29.1093V29.1111V29.1129V29.1146V29.1164V29.118V29.1197V29.1213V29.1229V29.1244V29.1259V29.1274V29.1289V29.1303V29.1317V29.133V29.1344V29.1356V29.1369V29.1381V29.1393V29.1405V29.1416V29.1427V29.1437V29.1448V29.1458V29.1467V29.1477V29.1485V29.1494V29.1502V29.151V29.1518V29.1525V29.1532V29.1539V29.1545V29.1551V29.1557V29.1562V29.1567V29.1571V29.1576V29.158V29.1583V29.1586V29.1589V29.1592V29.1594V29.1596V29.1597V29.1599V29.16V29.16L53.2283 29.16H44.7283V29.1561V29.1522V29.1482V29.1443V29.1403V29.1363V29.1324V29.1284V29.1243V29.1203V29.1163V29.1122V29.1081V29.1041V29.1V29.0959V29.0917V29.0876V29.0835V29.0793V29.0751V29.071V29.0668V29.0626V29.0583V29.0541V29.0499V29.0456V29.0413V29.037V29.0327V29.0284V29.0241V29.0198V29.0154V29.0111V29.0067V29.0023V28.9979V28.9935V28.9891V28.9846V28.9802V28.9757V28.9712V28.9668V28.9623V28.9577V28.9532V28.9487V28.9441V28.9396V28.935V28.9304V28.9258V28.9212V28.9166V28.9119V28.9073V28.9026V28.8979V28.8933V28.8886V28.8838V28.8791V28.8744V28.8696V28.8649V28.8601V28.8553V28.8505V28.8457V28.8409V28.836V28.8312V28.8263V28.8215V28.8166V28.8117V28.8068V28.8019V28.7969V28.792V28.787V28.782V28.7771V28.7721V28.7671V28.762V28.757V28.752V28.7469V28.7418V28.7368V28.7317V28.7266V28.7215V28.7163V28.7112V28.706V28.7009V28.6957V28.6905V28.6853V28.6801V28.6749V28.6696V28.6644V28.6591V28.6538V28.6486V28.6433V28.638V28.6326V28.6273V28.622V28.6166V28.6112V28.6059V28.6005V28.5951V28.5896V28.5842V28.5788V28.5733V28.5679V28.5624V28.5569V28.5514V28.5459V28.5404V28.5348V28.5293V28.5237V28.5182V28.5126V28.507V28.5014V28.4958V28.4901V28.4845V28.4788V28.4732V28.4675V28.4618V28.4561V28.4504V28.4447V28.4389V28.4332V28.4274V28.4217V28.4159V28.4101V28.4043V28.3985V28.3927V28.3868V28.381V28.3751V28.3692V28.3633V28.3575V28.3515V28.3456V28.3397V28.3338V28.3278V28.3218V28.3159V28.3099V28.3039V28.2979V28.2918V28.2858V28.2798V28.2737V28.2676V28.2616V28.2555V28.2494V28.2433V28.2371V28.231V28.2248V28.2187V28.2125V28.2063V28.2001V28.1939V28.1877V28.1815V28.1753V28.169V28.1628V28.1565V28.1502V28.1439V28.1376V28.1313V28.125V28.1186V28.1123V28.1059V28.0995V28.0932V28.0868V28.0804V28.0739V28.0675V28.0611V28.0546V28.0482V28.0417V28.0352V28.0287V28.0222V28.0157V28.0092V28.0026V27.9961V27.9895V27.983V27.9764V27.9698V27.9632V27.9566V27.9499V27.9433V27.9367V27.93V27.9233V27.9166V27.91V27.9033V27.8965V27.8898V27.8831V27.8763V27.8696V27.8628V27.856V27.8492V27.8425V27.8356V27.8288V27.822V27.8151V27.8083V27.8014V27.7946V27.7877V27.7808V27.7739V27.7669V27.76V27.7531V27.7461V27.7392V27.7322V27.7252V27.7182V27.7112V27.7042V27.6972V27.6902V27.6831V27.676V27.669V27.6619V27.6548V27.6477V27.6406V27.6335V27.6264V27.6192V27.6121V27.6049V27.5977V27.5906V27.5834V27.5762V27.5689V27.5617V27.5545V27.5472V27.54V27.5327V27.5254V27.5182V27.5109V27.5036V27.4962V27.4889V27.4816V27.4742V27.4669V27.4595V27.4521V27.4447V27.4373V27.4299V27.4225V27.4151V27.4076V27.4002V27.3927V27.3852V27.3778V27.3703V27.3628V27.3553V27.3477V27.3402V27.3327V27.3251V27.3175V27.31V27.3024V27.2948V27.2872V27.2796V27.2719V27.2643V27.2567V27.249V27.2413V27.2337V27.226V27.2183V27.2106V27.2029V27.1951V27.1874V27.1797V27.1719V27.1642V27.1564V27.1486V27.1408V27.133V27.1252V27.1174V27.1095V27.1017V27.0938V27.086V27.0781V27.0702V27.0623V27.0544V27.0465V27.0386V27.0306V27.0227V27.0147V27.0068V26.9988V26.9908V26.9828V26.9748V26.9668V26.9588V26.9508V26.9427V26.9347V26.9266V26.9186V26.9105V26.9024V26.8943V26.8862V26.8781V26.8699V26.8618V26.8537V26.8455V26.8373V26.8292V26.821V26.8128V26.8046V26.7964V26.7881V26.7799V26.7717V26.7634V26.7552V26.7469V26.7386V26.7303V26.722V26.7137V26.7054V26.6971V26.6887V26.6804V26.672V26.6637V26.6553V26.6469V26.6385V26.6301V26.6217V26.6133V26.6048V26.5964V26.588V26.5795V26.571V26.5626V26.5541V26.5456V26.5371V26.5286V26.52V26.5115V26.503V26.4944V26.4858V26.4773V26.4687V26.4601V26.4515V26.4429V26.4343V26.4257V26.417V26.4084V26.3997V26.3911V26.3824V26.3737V26.365V26.3563V26.3476V26.3389V26.3302V26.3215V26.3127V26.304V26.2952V26.2864V26.2776V26.2689V26.2601V26.2513V26.2424V26.2336V26.2248V26.2159V26.2071V26.1982V26.1894V26.1805V26.1716V26.1627V26.1538V26.1449V26.136V26.127V26.1181V26.1091V26.1002V26.0912V26.0822V26.0733V26.0643V26.0553V26.0463V26.0372V26.0282V26.0192V26.0101V26.0011V25.992V25.9829V25.9739V25.9648V25.9557V25.9466V25.9375V25.9283V25.9192V25.9101V25.9009V25.8917V25.8826V25.8734V25.8642V25.855V25.8458V25.8366V25.8274V25.8182V25.8089V25.7997V25.7904V25.7812V25.7719V25.7626V25.7533V25.7441V25.7347V25.7254V25.7161V25.7068V25.6975V25.6881V25.6788V25.6694V25.66ZM54.7283 29.16H53.2283L53.7283 29.16V29.16V29.1599V29.1597V29.1596V29.1594V29.1592V29.1589V29.1586V29.1583V29.158V29.1576V29.1571V29.1567V29.1562V29.1557V29.1551V29.1545V29.1539V29.1532V29.1525V29.1518V29.151V29.1502V29.1494V29.1485V29.1477V29.1467V29.1458V29.1448V29.1437V29.1427V29.1416V29.1405V29.1393V29.1381V29.1369V29.1356V29.1344V29.133V29.1317V29.1303V29.1289V29.1274V29.1259V29.1244V29.1229V29.1213V29.1197V29.118V29.1164V29.1146V29.1129V29.1111V29.1093V29.1075V29.1056V29.1037V29.1018V29.0998V29.0978V29.0958V29.0938V29.0917V29.0895V29.0874V29.0852V29.083V29.0807V29.0785V29.0762V29.0738V29.0714V29.069V29.0666V29.0641V29.0616V29.0591V29.0566V29.054V29.0514V29.0487V29.046V29.0433V29.0406V29.0378V29.035V29.0322V29.0293V29.0264V29.0235V29.0205V29.0175V29.0145V29.0115V29.0084V29.0053V29.0022V28.999V28.9958V28.9926V28.9893V28.986V28.9827V28.9794V28.976V28.9726V28.9692V28.9657V28.9622V28.9587V28.9552V28.9516V28.948V28.9443V28.9407V28.937V28.9332V28.9295V28.9257V28.9219V28.918V28.9142V28.9103V28.9064V28.9024V28.8984V28.8944V28.8904V28.8863V28.8822V28.8781V28.8739V28.8697V28.8655V28.8613V28.857V28.8527V28.8484V28.844V28.8396V28.8352V28.8308V28.8263V28.8218V28.8173V28.8127V28.8082V28.8036V28.7989V28.7943V28.7896V28.7849V28.7801V28.7753V28.7705V28.7657V28.7609V28.756V28.7511V28.7461V28.7412V28.7362V28.7312V28.7261V28.7211V28.716V28.7108V28.7057V28.7005V28.6953V28.6901V28.6848V28.6795V28.6742V28.6689V28.6635V28.6581V28.6527V28.6473V28.6418V28.6363V28.6308V28.6253V28.6197V28.6141V28.6085V28.6028V28.5971V28.5914V28.5857V28.5799V28.5742V28.5684V28.5625V28.5567V28.5508V28.5449V28.5389V28.533V28.527V28.521V28.5149V28.5089V28.5028V28.4967V28.4906V28.4844V28.4782V28.472V28.4658V28.4595V28.4532V28.4469V28.4406V28.4342V28.4278V28.4214V28.415V28.4085V28.402V28.3955V28.389V28.3824V28.3759V28.3692V28.3626V28.356V28.3493V28.3426V28.3359V28.3291V28.3223V28.3155V28.3087V28.3019V28.295V28.2881V28.2812V28.2742V28.2673V28.2603V28.2533V28.2462V28.2392V28.2321V28.225V28.2179V28.2107V28.2036V28.1964V28.1891V28.1819V28.1746V28.1673V28.16V28.1527V28.1453V28.1379V28.1305V28.1231V28.1157V28.1082V28.1007V28.0932V28.0856V28.0781V28.0705V28.0629V28.0553V28.0476V28.0399V28.0322V28.0245V28.0168V28.009V28.0012V27.9934V27.9856V27.9777V27.9699V27.962V27.9541V27.9461V27.9382V27.9302V27.9222V27.9142V27.9061V27.8981V27.89V27.8819V27.8737V27.8656V27.8574V27.8492V27.841V27.8328V27.8245V27.8162V27.8079V27.7996V27.7913V27.7829V27.7745V27.7661V27.7577V27.7493V27.7408V27.7323V27.7238V27.7153V27.7067V27.6982V27.6896V27.681V27.6723V27.6637V27.655V27.6463V27.6376V27.6289V27.6202V27.6114V27.6026V27.5938V27.585V27.5761V27.5673V27.5584V27.5495V27.5405V27.5316V27.5226V27.5137V27.5047V27.4956V27.4866V27.4775V27.4685V27.4594V27.4502V27.4411V27.4319V27.4228V27.4136V27.4044V27.3951V27.3859V27.3766V27.3673V27.358V27.3487V27.3393V27.33V27.3206V27.3112V27.3018V27.2924V27.2829V27.2734V27.2639V27.2544V27.2449V27.2354V27.2258V27.2162V27.2066V27.197V27.1874V27.1777V27.168V27.1584V27.1487V27.1389V27.1292V27.1194V27.1097V27.0999V27.0901V27.0802V27.0704V27.0605V27.0506V27.0407V27.0308V27.0209V27.011V27.001V26.991V26.981V26.971V26.961V26.9509V26.9409V26.9308V26.9207V26.9106V26.9004V26.8903V26.8801V26.8699V26.8597V26.8495V26.8393V26.829V26.8188V26.8085V26.7982V26.7879V26.7776V26.7672V26.7569V26.7465V26.7361V26.7257V26.7153V26.7048V26.6944V26.6839V26.6734V26.6629V26.6524V26.6419V26.6313V26.6208V26.6102V26.5996V26.589V26.5784V26.5677V26.5571V26.5464V26.5357V26.525V26.5143V26.5036V26.4929V26.4821V26.4713V26.4605V26.4497V26.4389V26.4281V26.4172V26.4064V26.3955V26.3846V26.3737V26.3628V26.3519V26.3409V26.33V26.319V26.308V26.297V26.286V26.275V26.2639V26.2529V26.2418V26.2307V26.2196V26.2085V26.1974V26.1862V26.1751V26.1639V26.1528V26.1416V26.1304V26.1191V26.1079V26.0967V26.0854V26.0741V26.0628V26.0515V26.0402V26.0289V26.0176V26.0062V25.9949V25.9835V25.9721V25.9607V25.9493V25.9379V25.9264V25.915V25.9035V25.892V25.8806V25.8691V25.8575V25.846V25.8345V25.8229V25.8114V25.7998V25.7882V25.7766V25.765V25.7534V25.7418V25.7301V25.7185V25.7068V25.6951V25.6834V25.6717V25.66C53.7283 22.3143 50.9293 20.66 48.7283 20.66C46.5272 20.66 43.7283 22.3143 43.7283 25.66V25.6694V25.6788V25.6881V25.6975V25.7068V25.7161V25.7254V25.7347V25.7441V25.7533V25.7626V25.7719V25.7812V25.7904V25.7997V25.8089V25.8182V25.8274V25.8366V25.8458V25.855V25.8642V25.8734V25.8826V25.8917V25.9009V25.9101V25.9192V25.9283V25.9375V25.9466V25.9557V25.9648V25.9739V25.9829V25.992V26.0011V26.0101V26.0192V26.0282V26.0372V26.0463V26.0553V26.0643V26.0733V26.0822V26.0912V26.1002V26.1091V26.1181V26.127V26.136V26.1449V26.1538V26.1627V26.1716V26.1805V26.1894V26.1982V26.2071V26.2159V26.2248V26.2336V26.2424V26.2513V26.2601V26.2689V26.2776V26.2864V26.2952V26.304V26.3127V26.3215V26.3302V26.3389V26.3476V26.3563V26.365V26.3737V26.3824V26.3911V26.3997V26.4084V26.417V26.4257V26.4343V26.4429V26.4515V26.4601V26.4687V26.4773V26.4858V26.4944V26.503V26.5115V26.52V26.5286V26.5371V26.5456V26.5541V26.5626V26.571V26.5795V26.588V26.5964V26.6048V26.6133V26.6217V26.6301V26.6385V26.6469V26.6553V26.6637V26.672V26.6804V26.6887V26.6971V26.7054V26.7137V26.722V26.7303V26.7386V26.7469V26.7552V26.7634V26.7717V26.7799V26.7881V26.7964V26.8046V26.8128V26.821V26.8292V26.8373V26.8455V26.8537V26.8618V26.8699V26.8781V26.8862V26.8943V26.9024V26.9105V26.9186V26.9266V26.9347V26.9427V26.9508V26.9588V26.9668V26.9748V26.9828V26.9908V26.9988V27.0068V27.0147V27.0227V27.0306V27.0386V27.0465V27.0544V27.0623V27.0702V27.0781V27.086V27.0938V27.1017V27.1095V27.1174V27.1252V27.133V27.1408V27.1486V27.1564V27.1642V27.1719V27.1797V27.1874V27.1951V27.2029V27.2106V27.2183V27.226V27.2337V27.2413V27.249V27.2567V27.2643V27.2719V27.2796V27.2872V27.2948V27.3024V27.31V27.3175V27.3251V27.3327V27.3402V27.3477V27.3553V27.3628V27.3703V27.3778V27.3852V27.3927V27.4002V27.4076V27.4151V27.4225V27.4299V27.4373V27.4447V27.4521V27.4595V27.4669V27.4742V27.4816V27.4889V27.4962V27.5036V27.5109V27.5182V27.5254V27.5327V27.54V27.5472V27.5545V27.5617V27.5689V27.5762V27.5834V27.5906V27.5977V27.6049V27.6121V27.6192V27.6264V27.6335V27.6406V27.6477V27.6548V27.6619V27.669V27.676V27.6831V27.6902V27.6972V27.7042V27.7112V27.7182V27.7252V27.7322V27.7392V27.7461V27.7531V27.76V27.7669V27.7739V27.7808V27.7877V27.7946V27.8014V27.8083V27.8151V27.822V27.8288V27.8356V27.8425V27.8492V27.856V27.8628V27.8696V27.8763V27.8831V27.8898V27.8965V27.9033V27.91V27.9166V27.9233V27.93V27.9367V27.9433V27.9499V27.9566V27.9632V27.9698V27.9764V27.983V27.9895V27.9961V28.0026V28.0092V28.0157V28.0222V28.0287V28.0352V28.0417V28.0482V28.0546V28.0611V28.0675V28.0739V28.0804V28.0868V28.0932V28.0995V28.1059V28.1123V28.1186V28.125V28.1313V28.1376V28.1439V28.1502V28.1565V28.1628V28.169V28.1753V28.1815V28.1877V28.1939V28.2001V28.2063V28.2125V28.2187V28.2248V28.231V28.2371V28.2433V28.2494V28.2555V28.2616V28.2676V28.2737V28.2798V28.2858V28.2918V28.2979V28.3039V28.3099V28.3159V28.3218V28.3278V28.3338V28.3397V28.3456V28.3515V28.3575V28.3633V28.3692V28.3751V28.381V28.3868V28.3927V28.3985V28.4043V28.4101V28.4159V28.4217V28.4274V28.4332V28.4389V28.4447V28.4504V28.4561V28.4618V28.4675V28.4732V28.4788V28.4845V28.4901V28.4958V28.5014V28.507V28.5126V28.5182V28.5237V28.5293V28.5348V28.5404V28.5459V28.5514V28.5569V28.5624V28.5679V28.5733V28.5788V28.5842V28.5896V28.5951V28.6005V28.6059V28.6112V28.6166V28.622V28.6273V28.6326V28.638V28.6433V28.6486V28.6538V28.6591V28.6644V28.6696V28.6749V28.6801V28.6853V28.6905V28.6957V28.7009V28.706V28.7112V28.7163V28.7215V28.7266V28.7317V28.7368V28.7418V28.7469V28.752V28.757V28.762V28.7671V28.7721V28.7771V28.782V28.787V28.792V28.7969V28.8019V28.8068V28.8117V28.8166V28.8215V28.8263V28.8312V28.836V28.8409V28.8457V28.8505V28.8553V28.8601V28.8649V28.8696V28.8744V28.8791V28.8838V28.8886V28.8933V28.8979V28.9026V28.9073V28.9119V28.9166V28.9212V28.9258V28.9304V28.935V28.9396V28.9441V28.9487V28.9532V28.9577V28.9623V28.9668V28.9712V28.9757V28.9802V28.9846V28.9891V28.9935V28.9979V29.0023V29.0067V29.0111V29.0154V29.0198V29.0241V29.0284V29.0327V29.037V29.0413V29.0456V29.0499V29.0541V29.0583V29.0626V29.0668V29.071V29.0751V29.0793V29.0835V29.0876V29.0917V29.0959V29.1V29.1041V29.1081V29.1122V29.1163V29.1203V29.1243V29.1284V29.1324V29.1363V29.1403V29.1443V29.1482V29.1522V29.1561V29.16H42.7283H41.7283V30.16V40.16V41.16H42.7283H54.7283H55.7283V40.16V30.16V29.16H54.7283ZM48.2283 36.097C47.3657 35.875 46.7283 35.0919 46.7283 34.16C46.7283 33.0554 47.6237 32.16 48.7283 32.16C49.8328 32.16 50.7283 33.0554 50.7283 34.16C50.7283 35.0919 50.0909 35.875 49.2283 36.097V38.16H48.2283V36.097ZM54.7283 30.16H42.7283V40.16H54.7283V30.16ZM48.7283 35.16C49.2806 35.16 49.7283 34.7123 49.7283 34.16C49.7283 33.6077 49.2806 33.16 48.7283 33.16C48.176 33.16 47.7283 33.6077 47.7283 34.16C47.7283 34.7123 48.176 35.16 48.7283 35.16ZM33.2283 53.16V54.3199L34.0716 53.5235L43.0716 45.0235L43.4565 44.66L43.0716 44.2965L34.0716 35.7965L33.2283 35V36.16V39.66L19.7283 39.66V40.66L33.7283 40.66H34.2283V40.16V37.3199L42.0001 44.66L34.2283 52V49.66V49.16H33.7283L15.7283 49.16L15.7283 50.16L33.2283 50.16V53.16ZM30.7283 44.16H27.7283V45.16H30.7283V44.16ZM25.7283 44.16H22.7283L22.7283 45.16H25.7283V44.16ZM20.7283 44.16H17.7283V45.16H20.7283L20.7283 44.16Z" fill="#00DCE6"/>
</svg>
