<svg width="70" height="70" viewBox="0 0 70 70" fill="none" xmlns="http://www.w3.org/2000/svg">
<circle cx="35" cy="35" r="35" fill="#00DCE6" fill-opacity="0.1"/>
<path d="M27 20.5H42" stroke="#00DCE6"/>
<path d="M27 48.5H42" stroke="#00DCE6"/>
<path d="M20.5 42L20.5 27" stroke="#00DCE6"/>
<path d="M48.5 42L48.5 27" stroke="#00DCE6"/>
<path d="M31.5 28C29.9 28.8 28.1667 29 27.5 29V35C27.5 39 32 42 34.5 43.5C37 42 41.5 39 41.5 35V29C40.8333 29 39.1 28.8 37.5 28C35.9 27.2 35 26.5 34.5 26C34 26.5 33.1 27.2 31.5 28Z" stroke="#00DCE6"/>
<path d="M34.5 26V43" stroke="#00DCE6"/>
<path fill-rule="evenodd" clip-rule="evenodd" d="M18 18H24V24H18V18ZM17 17H18H24H25V18V24V25H24H18H17V24V18V17ZM45 18H51V24H45V18ZM44 17H45H51H52V18V24V25H51H45H44V24V18V17ZM24 45H18V51H24V45ZM18 44H17V45V51V52H18H24H25V51V45V44H24H18ZM45 45H51V51H45V45ZM44 44H45H51H52V45V51V52H51H45H44V51V45V44Z" fill="#00DCE6"/>
</svg>
