<svg width="70" height="70" viewBox="0 0 70 70" fill="none" xmlns="http://www.w3.org/2000/svg">
<circle cx="35" cy="35" r="35" fill="#00DCE6" fill-opacity="0.1"/>
<path fill-rule="evenodd" clip-rule="evenodd" d="M19 18.8354V17H20V18.8354H22V20H20V22H19V20H17V18.8354H19ZM32 45V51H44V45V37.5H32V42H31V37.5H18V51H31V45H32ZM18.4142 36.5H31V30.5H24.4142L18.4142 36.5ZM24 29.5H30H31V28.5V24L37.5 17H51H51.2929H52V17.7071V18V44L45 52H44.5H44H32H31.5H31H18H17V51V36.5L24 29.5ZM45 50.4814L51 43.6243V30.3307L45 37.1879V45V50.4814ZM45 35.6693L51 28.8121V18.7071L45 24.7071V35.6693ZM44.2929 24L50.2929 18H37.9361L32 24.3927V29.5V30.5V36.5H44V25H36V24H44.2929ZM35 24H34V25H35V24ZM31 43V44H32V43H31Z" fill="#00DCE6"/>
</svg>
