<svg width="769" height="104" viewBox="0 0 769 104" fill="none" xmlns="http://www.w3.org/2000/svg">
<path d="M760.866 105C717.718 -38.3663 584.549 -142.625 426.665 -142.625C268.781 -142.625 135.611 -38.3663 92.4632 105H0C44.6545 -65.1926 200.027 -191 384.5 -191C568.974 -191 724.345 -65.1926 769 105H760.866Z" fill="#00DCE6" fill-opacity="0.07"/>
<path d="M727.955 105C686.201 -9.00847 576.896 -91.0962 448.802 -91.0962C320.551 -91.0962 211.135 -9.4557 170.005 105H252.68C291.797 15.801 381.233 -46.9281 484.642 -46.9281C588.051 -46.9281 677.486 15.801 716.604 105H727.955Z" fill="#00DCE6" fill-opacity="0.07"/>
<path d="M678.69 105C643.766 45.5677 578.982 5.6535 505.725 5.6535C431.763 5.6535 367.216 45.5677 332.527 105H420.758C449.21 71.8955 491.411 50.8731 538.402 50.8731C585.393 50.8731 627.595 71.8955 656.047 105H678.69Z" fill="#00DCE6" fill-opacity="0.07"/>
</svg>
