<svg width="320" height="73" viewBox="0 0 320 73" fill="none" xmlns="http://www.w3.org/2000/svg">
<path d="M316.615 115C298.66 55.4255 243.245 12.1016 177.546 12.1016C111.846 12.1016 56.4312 55.4255 38.4762 115H0C18.5819 44.2781 83.236 -8 160 -8C236.764 -8 301.418 44.2781 320 115H316.615Z" fill="#00DCE6" fill-opacity="0.07"/>
<path d="M302.92 115C285.545 67.6249 240.061 33.5141 186.758 33.5141C133.389 33.5141 87.8586 67.439 70.7435 115H105.146C121.424 77.9342 158.641 51.8677 201.671 51.8677C244.702 51.8677 281.919 77.9342 298.197 115H302.92Z" fill="#00DCE6" fill-opacity="0.07"/>
<path d="M282.42 115C267.887 90.3035 240.929 73.7175 210.445 73.7175C179.667 73.7175 152.808 90.3035 138.373 115H175.088C186.927 101.244 204.489 92.5081 224.043 92.5081C243.597 92.5081 261.158 101.244 272.997 115H282.42Z" fill="#00DCE6" fill-opacity="0.07"/>
</svg>
