<svg width="162" height="30" viewBox="0 0 162 30" fill="none" xmlns="http://www.w3.org/2000/svg">
<path fill-rule="evenodd" clip-rule="evenodd" d="M12.0397 15.0001C12.0397 10.8223 15.4283 7.44037 19.6143 7.44037C23.7604 7.44037 27.1889 10.8223 27.1889 15.0001C27.1889 19.1778 23.8003 22.5597 19.6143 22.5597C15.4283 22.5597 12.0397 19.1778 12.0397 15.0001ZM14.9898 15.0001C14.9898 18.2229 17.621 20.8488 20.8502 20.8488C24.0793 20.8488 26.7105 18.2229 26.7105 15.0001C26.7105 11.7773 24.0793 9.15125 20.8502 9.15125C17.621 9.15125 14.9898 11.7773 14.9898 15.0001Z" fill="white"/>
<path fill-rule="evenodd" clip-rule="evenodd" d="M17.4615 3.77985C11.2822 3.77985 6.25903 8.79312 6.25903 15C6.25903 21.1671 11.2822 26.2202 17.4615 26.2202C23.6408 26.2202 28.7038 21.2069 28.7038 15C28.6639 8.83289 23.6408 3.77985 17.4615 3.77985ZM18.817 24.5491C13.5147 24.5491 9.24902 20.252 9.24902 15C9.24902 9.74802 13.5546 5.45093 18.817 5.45093C24.0793 5.45093 28.3849 9.74802 28.3849 15C28.3849 20.252 24.1192 24.5491 18.817 24.5491Z" fill="white"/>
<path fill-rule="evenodd" clip-rule="evenodd" d="M15.0296 0C6.73743 0 0 6.72415 0 15C0 23.2758 6.73743 30 15.0296 30C23.3218 30 30.0593 23.2758 30.0593 15C30.0593 6.72415 23.3218 0 15.0296 0ZM16.6243 28.1698C9.32874 28.1698 3.42853 22.2812 3.42853 15C3.42853 7.71884 9.32874 1.83023 16.6243 1.83023C23.9198 1.83023 29.8201 7.71884 29.8201 15C29.8201 22.2812 23.9198 28.1698 16.6243 28.1698Z" fill="white"/>
<path fill-rule="evenodd" clip-rule="evenodd" d="M39.5475 20.053C38.6705 19.5358 37.9529 18.8594 37.4745 17.9841C36.9562 17.1088 36.717 16.114 36.717 15C36.717 13.8859 36.9562 12.8912 37.4745 12.0159C37.9927 11.1406 38.6705 10.4244 39.5475 9.94696C40.4246 9.46948 41.4212 9.19098 42.5375 9.19098C43.6538 9.19098 44.6504 9.42972 45.5275 9.94696C46.4045 10.4244 47.1221 11.1406 47.6005 12.0159C48.1188 12.8912 48.358 13.8859 48.358 15C48.358 16.114 48.1188 17.1088 47.6005 17.9841C47.0823 18.8594 46.4045 19.5756 45.5275 20.053C44.6504 20.5703 43.6538 20.809 42.5375 20.809C41.4212 20.809 40.4246 20.5703 39.5475 20.053ZM44.7302 18.8594C45.368 18.5013 45.8863 17.9841 46.2451 17.2679C46.6039 16.5915 46.8032 15.7957 46.8032 14.9602C46.8032 14.0849 46.6039 13.3289 46.2451 12.6525C45.8863 11.9761 45.368 11.4589 44.7302 11.061C44.0923 10.7029 43.3348 10.504 42.5375 10.504C41.7402 10.504 40.9827 10.7029 40.3448 11.061C39.707 11.4191 39.1887 11.9363 38.8299 12.6525C38.4711 13.3289 38.2718 14.1247 38.2718 14.9602C38.2718 15.8355 38.4711 16.5915 38.8299 17.2679C39.1887 17.9443 39.707 18.4615 40.3448 18.8594C40.9827 19.2175 41.7402 19.4164 42.5375 19.4164C43.3747 19.4164 44.0923 19.2573 44.7302 18.8594Z" fill="white"/>
<path fill-rule="evenodd" clip-rule="evenodd" d="M61.6733 11.9761C61.1949 11.061 60.5172 10.3846 59.6401 9.90717C58.7631 9.42972 57.8063 9.15118 56.69 9.19098C55.7332 9.19098 54.8562 9.38992 54.0987 9.78781C53.3412 10.1857 52.7433 10.7825 52.2649 11.5385V9.27057H50.7898V24.9867H52.3446V18.6207C52.823 19.3369 53.421 19.8939 54.1784 20.2918C54.9359 20.6499 55.7731 20.8488 56.69 20.8488C57.8063 20.8488 58.7631 20.6101 59.6401 20.1326C60.5172 19.6154 61.1949 18.939 61.6733 18.0637C62.1916 17.1485 62.4308 16.1538 62.4308 15C62.4308 13.886 62.1517 12.8515 61.6733 11.9761ZM60.3577 17.2679C59.9591 17.9841 59.4408 18.5013 58.8029 18.8594C58.1651 19.2573 57.4076 19.4164 56.6103 19.4164C55.813 19.4164 55.0555 19.2175 54.4176 18.8594C53.7798 18.4615 53.2615 17.9443 52.9027 17.2679C52.5439 16.5915 52.3446 15.8355 52.3446 14.9602C52.3446 14.0849 52.5439 13.3289 52.9027 12.6525C53.2615 11.9761 53.7798 11.4191 54.4176 11.061C55.0555 10.7029 55.813 10.504 56.6103 10.504C57.4076 10.504 58.1252 10.6631 58.8029 11.061C59.4807 11.4589 59.9989 11.9761 60.3577 12.6525C60.7165 13.3289 60.9159 14.0849 60.9159 14.9602C60.9159 15.7957 60.7165 16.5915 60.3577 17.2679Z" fill="white"/>
<path fill-rule="evenodd" clip-rule="evenodd" d="M75.6664 15.4377H66.0985C66.1783 16.6313 66.6566 17.5862 67.454 18.3024C68.2912 19.0186 69.3277 19.4165 70.6034 19.4165C71.321 19.4165 71.9589 19.2971 72.5569 19.0186C73.1549 18.7799 73.6731 18.382 74.1117 17.9046L74.9887 18.8993C74.4705 19.4961 73.8326 19.9735 73.0751 20.2918C72.3177 20.6101 71.4805 20.7693 70.5635 20.7693C69.3676 20.7693 68.331 20.5305 67.454 20.0133C66.537 19.4961 65.8195 18.8197 65.341 17.9443C64.8228 17.069 64.5836 16.0743 64.5836 14.9603C64.5836 13.8462 64.8228 12.8515 65.3012 11.9762C65.7796 11.1009 66.4573 10.3847 67.2945 9.90723C68.1317 9.42975 69.0885 9.15125 70.1649 9.15125C71.2413 9.15125 72.1582 9.38998 73.0353 9.90723C73.8725 10.3847 74.5502 11.1009 75.0286 11.9762C75.507 12.8515 75.7462 13.8462 75.7462 15.0001L75.6664 15.4377ZM67.3344 11.5385C66.5769 12.2547 66.1783 13.1698 66.0587 14.2839H74.1914C74.0718 13.1698 73.6731 12.2547 72.9156 11.5385C72.1582 10.8223 71.2413 10.4642 70.125 10.4642C69.0088 10.504 68.0918 10.8621 67.3344 11.5385Z" fill="white"/>
<path d="M89.0615 14.0849C89.0615 12.4536 88.623 11.26 87.7858 10.4244C86.9088 9.5889 85.7925 9.15125 84.3573 9.19104C83.4005 9.19104 82.5234 9.35019 81.766 9.74805C81.0085 10.1459 80.4504 10.703 80.0119 11.3794V9.2706H78.5368V20.6897H80.0916V14.7215C80.0916 13.4483 80.4504 12.4138 81.168 11.6977C81.8856 10.9417 82.8424 10.5836 84.0782 10.5836C85.1945 10.5836 86.0317 10.9019 86.6297 11.4987C87.2277 12.0956 87.5067 13.0107 87.5067 14.2043V20.6897H89.0615V14.0849Z" fill="white"/>
<path fill-rule="evenodd" clip-rule="evenodd" d="M110.191 15.4377H100.623C100.702 16.6313 101.181 17.5862 101.978 18.3024C102.815 19.0186 103.852 19.4165 105.128 19.4165C105.845 19.4165 106.483 19.2971 107.081 19.0186C107.679 18.7799 108.197 18.382 108.636 17.9046L109.513 18.8993C108.995 19.4961 108.357 19.9735 107.599 20.2918C106.842 20.6101 106.005 20.7693 105.088 20.7693C103.892 20.7693 102.855 20.5305 101.978 20.0133C101.061 19.4961 100.344 18.8197 99.8653 17.9443C99.347 17.069 99.1078 16.0743 99.1078 14.9603C99.1078 13.8462 99.347 12.8515 99.8254 11.9762C100.304 11.1009 100.982 10.3847 101.819 9.90723C102.656 9.42975 103.613 9.15125 104.689 9.15125C105.766 9.15125 106.682 9.38998 107.559 9.90723C108.397 10.3847 109.074 11.1009 109.553 11.9762C110.031 12.8515 110.27 13.8462 110.27 15.0001L110.191 15.4377ZM101.898 11.5385C101.141 12.2547 100.742 13.1698 100.623 14.2839H108.755C108.636 13.1698 108.237 12.2547 107.48 11.5385C106.722 10.8223 105.805 10.4642 104.689 10.4642C103.573 10.504 102.656 10.8621 101.898 11.5385Z" fill="white"/>
<path fill-rule="evenodd" clip-rule="evenodd" d="M123.945 20.6897V4.57562H122.39V11.3395C121.911 10.6234 121.314 10.0663 120.556 9.66846C119.799 9.31036 118.961 9.11142 118.044 9.11142C116.968 9.11142 116.011 9.35016 115.134 9.82761C114.297 10.3448 113.579 11.0212 113.101 11.8966C112.583 12.7719 112.344 13.8064 112.344 14.9204C112.344 16.0345 112.623 17.069 113.101 17.9443C113.579 18.8196 114.257 19.5358 115.134 20.0133C116.011 20.5305 116.968 20.7693 118.044 20.7693C119.001 20.7693 119.878 20.5703 120.636 20.1725C121.393 19.7746 121.991 19.1777 122.47 18.4218V20.6897H123.945ZM121.872 17.2679C121.513 17.9841 120.995 18.5013 120.357 18.8594C119.719 19.2573 119.001 19.4165 118.204 19.4165C117.407 19.4165 116.649 19.2175 116.011 18.8594C115.373 18.4616 114.855 17.9443 114.496 17.2679C114.138 16.5916 113.938 15.8356 113.938 14.9602C113.938 14.1247 114.138 13.3289 114.496 12.6526C114.855 11.9364 115.373 11.4191 116.011 11.061C116.649 10.7029 117.407 10.504 118.204 10.504C119.001 10.504 119.719 10.7029 120.357 11.061C120.995 11.4589 121.513 11.9762 121.872 12.6526C122.23 13.3289 122.43 14.0849 122.43 14.9602C122.43 15.7958 122.23 16.5916 121.872 17.2679Z" fill="white"/>
<path fill-rule="evenodd" clip-rule="evenodd" d="M138.416 19.2971C138.416 21.2467 137.938 22.679 136.981 23.5942C136.024 24.5093 134.589 24.9868 132.675 24.9868C131.599 24.9868 130.602 24.8276 129.646 24.5093C128.689 24.191 127.931 23.7533 127.333 23.1963L128.131 22.0027C128.689 22.4801 129.367 22.878 130.164 23.1565C130.961 23.435 131.798 23.5544 132.675 23.5544C134.111 23.5544 135.187 23.2361 135.865 22.5597C136.542 21.8833 136.901 20.8488 136.901 19.4165V17.9443C136.423 18.6605 135.785 19.2175 135.028 19.6154C134.27 19.9735 133.393 20.1724 132.436 20.1724C131.36 20.1724 130.403 19.9337 129.486 19.4562C128.609 18.9788 127.931 18.3422 127.413 17.4669C126.895 16.6313 126.656 15.6764 126.656 14.6021C126.656 13.5279 126.895 12.573 127.413 11.7374C127.931 10.9019 128.609 10.2255 129.486 9.78781C130.363 9.31036 131.32 9.11142 132.436 9.11142C133.393 9.11142 134.27 9.31036 135.067 9.70822C135.865 10.1061 136.503 10.6631 136.981 11.4191V9.23077H138.416V19.2971ZM134.788 18.3422C135.466 17.9841 135.984 17.5067 136.343 16.8701C136.702 16.2334 136.901 15.5172 136.901 14.6817C136.901 13.886 136.702 13.13 136.343 12.5332C135.984 11.8966 135.466 11.4191 134.788 11.061C134.111 10.7029 133.393 10.5438 132.516 10.5438C131.679 10.5438 130.961 10.7029 130.283 11.061C129.606 11.4191 129.087 11.8966 128.729 12.5332C128.37 13.1698 128.171 13.886 128.171 14.7215C128.171 15.5172 128.37 16.2732 128.729 16.9098C129.087 17.5464 129.606 18.0637 130.283 18.382C130.961 18.7401 131.679 18.8992 132.516 18.8992C133.353 18.8992 134.111 18.7003 134.788 18.3422Z" fill="white"/>
<path fill-rule="evenodd" clip-rule="evenodd" d="M142.841 15.4377H152.409L152.489 15.0001C152.489 13.8462 152.25 12.8515 151.771 11.9762C151.293 11.1009 150.615 10.3847 149.778 9.90723C148.901 9.38998 147.984 9.15125 146.908 9.15125C145.831 9.15125 144.874 9.42975 144.037 9.90723C143.2 10.3847 142.522 11.1009 142.044 11.9762C141.566 12.8515 141.326 13.8462 141.326 14.9603C141.326 16.0743 141.566 17.069 142.084 17.9443C142.562 18.8197 143.28 19.4961 144.197 20.0133C145.074 20.5305 146.11 20.7693 147.306 20.7693C148.223 20.7693 149.06 20.6101 149.818 20.2918C150.575 19.9735 151.213 19.4961 151.731 18.8993L150.854 17.9046C150.416 18.382 149.898 18.7799 149.3 19.0186C148.702 19.2971 148.064 19.4165 147.346 19.4165C146.07 19.4165 145.034 19.0186 144.197 18.3024C143.399 17.5862 142.921 16.6313 142.841 15.4377ZM142.801 14.2839C142.921 13.1698 143.32 12.2547 144.077 11.5385C144.835 10.8621 145.752 10.504 146.868 10.4642C147.984 10.4642 148.901 10.8223 149.658 11.5385C150.416 12.2547 150.815 13.1698 150.934 14.2839H142.801Z" fill="white"/>
<path d="M158.349 9.74805C159.067 9.35019 159.944 9.15125 161.02 9.15125V10.6632L160.662 10.6234C159.466 10.6234 158.509 10.9815 157.831 11.7375C157.153 12.4934 156.795 13.5279 156.795 14.8409V20.6897H155.24V9.2706H156.715V11.4987C157.074 10.7428 157.632 10.1459 158.349 9.74805Z" fill="white"/>
<path d="M94.4833 4.53583V16.7109C94.4833 18.1035 95.5996 19.2573 97.0348 19.2175V20.7693C94.7624 20.7693 92.9286 18.9788 92.9286 16.7109V4.53583H94.4833Z" fill="white"/>
</svg>
