<svg xmlns="http://www.w3.org/2000/svg" width="235" height="40" viewBox="0 0 235 40">
  <g id="组_2" data-name="组 2" transform="translate(1244 -503)">
    <g id="组_1" data-name="组 1">
      <rect id="矩形_3" data-name="矩形 3" width="40" height="40" transform="translate(-1244 503)" fill="rgba(0,0,0,0)"/>
      <path id="路径_11" data-name="路径 11" d="M20,40A20,20,0,1,0,0,20,20,20,0,0,0,20,40Zm2-3A17,17,0,1,0,5,20,17,17,0,0,0,22,37Z" transform="translate(-1244 503)" fill="#fff" fill-rule="evenodd" opacity="0.5"/>
      <path id="路径_12" data-name="路径 12" d="M23.129,34A14,14,0,1,0,9,20.129,14,14,0,0,0,23.129,34Zm1.477-2.514A11.5,11.5,0,1,0,13,20.093,11.5,11.5,0,0,0,24.606,31.486Z" transform="translate(-1244 503)" fill="#fff" fill-rule="evenodd" opacity="0.75"/>
      <path id="路径_13" data-name="路径 13" d="M25.5,28.5A8.5,8.5,0,1,0,17,20,8.5,8.5,0,0,0,25.5,28.5Zm1-2A6.5,6.5,0,1,0,20,20a6.5,6.5,0,0,0,6.5,6.5Z" transform="translate(-1244 503)" fill="#fff" fill-rule="evenodd"/>
    </g>
    <text id="zhehan.tech" transform="translate(-1195 534)" fill="#fff" font-size="29" font-family="MicrosoftJhengHeiUIRegular, Microsoft JhengHei UI" letter-spacing="0.07em"><tspan x="0" y="0">zhehan.tech</tspan></text>
  </g>
</svg>
