<svg width="214" height="40" viewBox="0 0 214 40" fill="none" xmlns="http://www.w3.org/2000/svg">
<rect width="214" height="40" fill="black" fill-opacity="0"/>
<rect width="165.202" height="27.1798" fill="black" fill-opacity="0" transform="translate(48.7979 6.02832)"/>
<path d="M52.5597 26.6508C51.394 25.9634 50.4403 25.0644 49.8045 23.9011C49.1158 22.7378 48.7979 21.4158 48.7979 19.9352C48.7979 18.4546 49.1158 17.1326 49.8045 15.9692C50.4933 14.8059 51.394 13.8541 52.5597 13.2195C53.7253 12.585 55.0499 12.2148 56.5334 12.2148C58.017 12.2148 59.3415 12.5321 60.5072 13.2195C61.6728 13.8541 62.6265 14.8059 63.2623 15.9692C63.9511 17.1326 64.269 18.4546 64.269 19.9352C64.269 21.4158 63.9511 22.7378 63.2623 23.9011C62.5735 25.0644 61.6728 26.0162 60.5072 26.6508C59.3415 27.3382 58.017 27.6555 56.5334 27.6555C55.0499 27.6555 53.7253 27.3382 52.5597 26.6508ZM59.4475 25.0644C60.2953 24.5885 60.984 23.9011 61.4609 22.9493C61.9377 22.0503 62.2027 20.9927 62.2027 19.8823C62.2027 18.719 61.9377 17.7143 61.4609 16.8153C60.984 15.9164 60.2953 15.2289 59.4475 14.7002C58.5998 14.2242 57.5931 13.9598 56.5334 13.9598C55.4738 13.9598 54.4671 14.2242 53.6193 14.7002C52.7716 15.1761 52.0828 15.8635 51.606 16.8153C51.1291 17.7143 50.8642 18.7718 50.8642 19.8823C50.8642 21.0456 51.1291 22.0503 51.606 22.9493C52.0828 23.8482 52.7716 24.5356 53.6193 25.0644C54.4671 25.5403 55.4738 25.8047 56.5334 25.8047C57.6461 25.8047 58.5998 25.5932 59.4475 25.0644Z" fill="#00DCE6"/>
<path d="M79.2633 13.1668C80.4289 13.8013 81.3296 14.7003 81.9654 15.9165C82.6012 17.0798 82.9721 18.4547 82.9721 19.9353C82.9721 21.4688 82.6542 22.7907 81.9654 24.007C81.3296 25.1703 80.4289 26.0692 79.2633 26.7567C78.0977 27.3912 76.8261 27.7085 75.3425 27.7085C74.1239 27.7085 73.0112 27.4441 72.0046 26.9682C70.9979 26.4394 70.2031 25.6991 69.5673 24.7473V33.2079H67.501V12.3207H69.4614V15.3348C70.0972 14.3301 70.8919 13.5369 71.8986 13.0081C72.9053 12.4794 74.0709 12.215 75.3425 12.215C76.8261 12.1621 78.0977 12.5322 79.2633 13.1668ZM78.1506 25.0645C78.9984 24.5886 79.6872 23.9012 80.217 22.9494C80.6938 22.0504 80.9588 20.9929 80.9588 19.8824C80.9588 18.7191 80.6938 17.7144 80.217 16.8154C79.7401 15.9165 79.0514 15.2291 78.1506 14.7003C77.2499 14.1715 76.2962 13.96 75.2366 13.96C74.1769 13.96 73.1702 14.2244 72.3225 14.7003C71.4747 15.1762 70.7859 15.9165 70.3091 16.8154C69.8322 17.7144 69.5673 18.7191 69.5673 19.8824C69.5673 21.0457 69.8322 22.0504 70.3091 22.9494C70.7859 23.8483 71.4747 24.5358 72.3225 25.0645C73.1702 25.5405 74.1769 25.8048 75.2366 25.8048C76.2962 25.8048 77.3029 25.5933 78.1506 25.0645Z" fill="#00DCE6"/>
<path d="M100.562 20.517H87.8464C87.9523 22.1034 88.5881 23.3724 89.6478 24.3243C90.7605 25.2761 92.138 25.8049 93.8335 25.8049C94.7872 25.8049 95.6349 25.6462 96.4297 25.2761C97.2244 24.9588 97.9132 24.43 98.496 23.7955L99.6617 25.1175C98.9729 25.9106 98.1252 26.5452 97.1185 26.9682C96.1118 27.3912 94.9991 27.6028 93.7805 27.6028C92.191 27.6028 90.8134 27.2855 89.6478 26.5981C88.4292 25.9106 87.4755 25.0117 86.8397 23.8484C86.1509 22.685 85.833 21.363 85.833 19.8824C85.833 18.4018 86.1509 17.0799 86.7867 15.9165C87.4225 14.7532 88.3232 13.8014 89.4359 13.1668C90.5485 12.5323 91.8201 12.1621 93.2507 12.1621C94.6812 12.1621 95.8999 12.4794 97.0655 13.1668C98.1781 13.8014 99.0789 14.7532 99.7147 15.9165C100.35 17.0799 100.668 18.4018 100.668 19.9353L100.562 20.517ZM89.4889 15.3348C88.4822 16.2867 87.9523 17.5029 87.7934 18.9835H98.602C98.4431 17.5029 97.9132 16.2867 96.9065 15.3348C95.8999 14.383 94.6812 13.9071 93.1977 13.9071C91.7142 13.96 90.4955 14.4359 89.4889 15.3348Z" fill="#00DCE6"/>
<path d="M116.67 13.8545C117.782 14.9649 118.365 16.5513 118.365 18.7193V27.4972H116.299V18.878C116.299 17.2916 115.928 16.0754 115.133 15.2822C114.338 14.489 113.226 14.066 111.742 14.066C110.1 14.066 108.828 14.5419 107.874 15.5466C106.921 16.4984 106.444 17.8733 106.444 19.5654V27.4972H104.377V12.321H106.338V15.1236C106.921 14.2246 107.662 13.4843 108.669 12.9555C109.676 12.4267 110.841 12.2152 112.113 12.2152C114.02 12.1623 115.504 12.744 116.67 13.8545Z" fill="#00DCE6"/>
<path d="M146.446 20.517H133.73C133.836 22.1034 134.472 23.3724 135.532 24.3243C136.644 25.2761 138.022 25.8049 139.717 25.8049C140.671 25.8049 141.519 25.6462 142.313 25.2761C143.108 24.9588 143.797 24.43 144.38 23.7955L145.545 25.1175C144.857 25.9106 144.009 26.5452 143.002 26.9682C141.996 27.3912 140.883 27.6028 139.664 27.6028C138.075 27.6028 136.697 27.2855 135.532 26.5981C134.313 25.9106 133.359 25.0117 132.723 23.8484C132.035 22.685 131.717 21.363 131.717 19.8824C131.717 18.4018 132.035 17.0799 132.67 15.9165C133.306 14.7532 134.207 13.8014 135.32 13.1668C136.432 12.5323 137.704 12.1621 139.134 12.1621C140.565 12.1621 141.784 12.4794 142.949 13.1668C144.062 13.8014 144.963 14.7532 145.598 15.9165C146.234 17.0799 146.552 18.4018 146.552 19.9353L146.446 20.517ZM135.426 15.3348C134.419 16.2867 133.889 17.5029 133.73 18.9835H144.539C144.38 17.5029 143.85 16.2867 142.843 15.3348C141.837 14.383 140.618 13.9071 139.134 13.9071C137.651 13.96 136.432 14.4359 135.426 15.3348Z" fill="#00DCE6"/>
<path d="M164.725 6.08105V27.497H162.765V24.4829C162.129 25.4876 161.334 26.2808 160.328 26.8096C159.321 27.3384 158.155 27.6028 156.884 27.6028C155.453 27.6028 154.182 27.2855 153.016 26.5981C151.85 25.9635 150.95 25.0117 150.314 23.8484C149.678 22.685 149.307 21.3102 149.307 19.8296C149.307 18.349 149.625 16.9741 150.314 15.8108C150.95 14.6474 151.903 13.7485 153.016 13.0611C154.182 12.4265 155.453 12.1093 156.884 12.1093C158.102 12.1093 159.215 12.3736 160.222 12.8496C161.228 13.3783 162.023 14.1187 162.659 15.0705V6.08105H164.725ZM159.957 25.0646C160.805 24.5887 161.493 23.9013 161.97 22.9494C162.447 22.0505 162.712 20.9929 162.712 19.8825C162.712 18.7191 162.447 17.7144 161.97 16.8155C161.493 15.9165 160.805 15.2291 159.957 14.7003C159.109 14.2244 158.155 13.96 157.096 13.96C156.036 13.96 155.029 14.2244 154.182 14.7003C153.334 15.1762 152.645 15.8637 152.168 16.8155C151.691 17.7144 151.426 18.772 151.426 19.8825C151.426 21.0458 151.691 22.0505 152.168 22.9494C152.645 23.8484 153.334 24.5358 154.182 25.0646C155.029 25.5405 156.036 25.8049 157.096 25.8049C158.155 25.8049 159.109 25.5934 159.957 25.0646Z" fill="#00DCE6"/>
<path d="M183.959 12.3209V25.6464C183.959 28.2375 183.323 30.1411 182.051 31.3573C180.78 32.5735 178.872 33.2081 176.329 33.2081C174.899 33.2081 173.574 32.9966 172.302 32.5735C171.031 32.1505 170.024 31.5688 169.229 30.8285L170.289 29.2422C171.031 29.8767 171.931 30.4055 172.991 30.7756C174.051 31.1458 175.163 31.3044 176.329 31.3044C178.237 31.3044 179.667 30.8814 180.568 29.9825C181.468 29.0835 181.945 27.7087 181.945 25.805V23.8485C181.31 24.8003 180.462 25.5406 179.455 26.0694C178.448 26.5453 177.283 26.8097 176.011 26.8097C174.581 26.8097 173.309 26.4924 172.09 25.8579C170.925 25.2234 170.024 24.3773 169.335 23.214C168.647 22.1035 168.329 20.8344 168.329 19.4067C168.329 17.9789 168.647 16.7098 169.335 15.5994C170.024 14.4889 170.925 13.59 172.09 13.0083C173.256 12.3738 174.528 12.1094 176.011 12.1094C177.283 12.1094 178.448 12.3738 179.508 12.9026C180.568 13.4313 181.416 14.1717 182.051 15.1764V12.268H183.959V12.3209ZM179.137 24.3773C180.038 23.9014 180.727 23.2668 181.204 22.4208C181.68 21.5747 181.945 20.6229 181.945 19.5124C181.945 18.4548 181.68 17.4501 181.204 16.657C180.727 15.8109 180.038 15.1764 179.137 14.7004C178.237 14.2245 177.283 14.013 176.117 14.013C175.005 14.013 174.051 14.2245 173.15 14.7004C172.249 15.1764 171.561 15.8109 171.084 16.657C170.607 17.503 170.342 18.4548 170.342 19.5653C170.342 20.6229 170.607 21.6276 171.084 22.4736C171.561 23.3197 172.249 24.0071 173.15 24.4302C174.051 24.9061 175.005 25.1176 176.117 25.1176C177.23 25.1176 178.237 24.8532 179.137 24.3773Z" fill="#00DCE6"/>
<path d="M202.556 20.517H189.84C189.946 22.1034 190.581 23.3724 191.641 24.3243C192.754 25.2761 194.131 25.8049 195.827 25.8049C196.78 25.8049 197.628 25.6462 198.423 25.2761C199.218 24.9588 199.906 24.43 200.489 23.7955L201.655 25.1175C200.966 25.9106 200.118 26.5452 199.112 26.9682C198.105 27.3912 196.992 27.6028 195.774 27.6028C194.184 27.6028 192.807 27.2855 191.641 26.5981C190.422 25.9106 189.469 25.0117 188.833 23.8484C188.144 22.685 187.826 21.363 187.826 19.8824C187.826 18.4018 188.144 17.0799 188.78 15.9165C189.416 14.7532 190.316 13.8014 191.429 13.1668C192.542 12.5323 193.813 12.1621 195.244 12.1621C196.674 12.1621 197.893 12.4794 199.059 13.1668C200.171 13.8014 201.072 14.7532 201.708 15.9165C202.344 17.0799 202.662 18.4018 202.662 19.9353L202.556 20.517ZM191.482 15.3348C190.475 16.2867 189.946 17.5029 189.787 18.9835H200.595C200.436 17.5029 199.906 16.2867 198.9 15.3348C197.893 14.383 196.674 13.9071 195.191 13.9071C193.707 13.96 192.489 14.4359 191.482 15.3348Z" fill="#00DCE6"/>
<path d="M210.45 12.9553C211.404 12.4265 212.569 12.1621 214 12.1621V14.1715L213.523 14.1186C211.934 14.1186 210.662 14.5945 209.761 15.5992C208.861 16.6039 208.384 17.9788 208.384 19.7238V27.497H206.317V12.3207H208.278V15.282C208.755 14.2773 209.496 13.4841 210.45 12.9553Z" fill="#00DCE6"/>
<path d="M125.571 22.2093V6.02832H123.504V22.2093C123.504 25.2234 125.942 27.6029 128.962 27.6029V25.5406C127.054 25.5935 125.571 24.06 125.571 22.2093Z" fill="#00DCE6"/>
<rect width="40" height="40" fill="black" fill-opacity="0"/>
<path opacity="0.5" fill-rule="evenodd" clip-rule="evenodd" d="M20 40C31.0459 40 40 31.0459 40 20C40 8.9541 31.0459 0 20 0C8.9541 0 0 8.9541 0 20C0 31.0459 8.9541 40 20 40ZM22 37C31.3887 37 39 29.3887 39 20C39 10.6113 31.3887 3 22 3C12.6113 3 5 10.6113 5 20C5 29.3887 12.6113 37 22 37Z" fill="#00DCE6"/>
<path opacity="0.75" fill-rule="evenodd" clip-rule="evenodd" d="M23.1288 34.0001C30.8603 33.9288 37.0702 27.6036 36.999 19.8721C36.9282 12.1397 30.6025 5.92975 22.871 6.00104C15.1391 6.07233 8.92913 12.3975 9.00042 20.129C9.07171 27.8614 15.3969 34.0714 23.1288 34.0001ZM24.6059 31.4864C30.9565 31.4278 36.0575 26.2315 35.9994 19.8809C35.9409 13.5294 30.7451 8.42877 24.394 8.48737C18.0429 8.54499 12.9418 13.7413 13.0004 20.0928C13.0585 26.4434 18.2548 31.544 24.6059 31.4864Z" fill="#00DCE6"/>
<path fill-rule="evenodd" clip-rule="evenodd" d="M25.5 28.5C30.1943 28.5 34 24.6943 34 20C34 15.3057 30.1943 11.5 25.5 11.5C20.8057 11.5 17 15.3057 17 20C17 24.6943 20.8057 28.5 25.5 28.5ZM26.5 26.5C30.0898 26.5 33 23.5898 33 20C33 16.4102 30.0898 13.5 26.5 13.5C22.9102 13.5 20 16.4102 20 20C20 23.5898 22.9102 26.5 26.5 26.5Z" fill="#00DCE6"/>
</svg>
