<svg xmlns="http://www.w3.org/2000/svg" width="236" height="42" viewBox="0 0 236 42">
  <g id="组_4" data-name="组 4" transform="translate(-180 -577)">
    <g id="组_2" data-name="组 2" transform="translate(0 85)">
      <rect id="矩形_1" data-name="矩形 1" width="214" height="40" transform="translate(180 492)" fill="rgba(0,0,0,0)"/>
      <rect id="矩形_3" data-name="矩形 3" width="40" height="40" transform="translate(180 494)" fill="rgba(0,0,0,0)"/>
      <path id="路径_11" data-name="路径 11" d="M20,40A20,20,0,1,0,0,20,20,20,0,0,0,20,40Zm2-3A17,17,0,1,0,5,20,17,17,0,0,0,22,37Z" transform="translate(180 494)" fill="#00dce6" fill-rule="evenodd" opacity="0.5"/>
      <path id="路径_12" data-name="路径 12" d="M23.129,34A14,14,0,1,0,9,20.129,14,14,0,0,0,23.129,34Zm1.477-2.514A11.5,11.5,0,1,0,13,20.093,11.5,11.5,0,0,0,24.606,31.486Z" transform="translate(180 494)" fill="#00dce6" fill-rule="evenodd" opacity="0.75"/>
      <path id="路径_13" data-name="路径 13" d="M25.5,28.5A8.5,8.5,0,1,0,17,20,8.5,8.5,0,0,0,25.5,28.5Zm1-2A6.5,6.5,0,1,0,20,20,6.5,6.5,0,0,0,26.5,26.5Z" transform="translate(180 494)" fill="#00dce6" fill-rule="evenodd"/>
    </g>
    <text id="zhehan.tech" transform="translate(229 609)" fill="#00dce6" font-size="29" font-family="MicrosoftJhengHeiUIRegular, Microsoft JhengHei UI" letter-spacing="0.074em"><tspan x="0" y="0">zhehan.tech</tspan></text>
  </g>
</svg>
