<svg width="50" height="38" viewBox="0 0 50 38" fill="none" xmlns="http://www.w3.org/2000/svg">
<path d="M17.9603 15.3852C19.8255 16.2955 21.2696 17.6307 22.2924 19.3908C23.3153 21.0901 23.8267 23.1232 23.8267 25.4902C23.8267 29.0103 22.7136 31.8324 20.4874 33.9566C18.2611 36.0808 15.4031 37.1429 11.9134 37.1429C8.42359 37.1429 5.56558 36.0808 3.33935 33.9566C1.11312 31.8324 0 29.0103 0 25.4902C0 23.9122 0.21059 22.3343 0.631769 20.7563C1.05295 19.1783 2.01564 16.781 3.51986 13.5644L9.83755 0H22.4729L17.9603 15.3852ZM44.1336 15.3852C45.9988 16.2955 47.4428 17.6307 48.4657 19.3908C49.4886 21.0901 50 23.1232 50 25.4902C50 29.0103 48.8869 31.8324 46.6606 33.9566C44.4344 36.0808 41.5764 37.1429 38.0866 37.1429C34.5969 37.1429 31.7389 36.0808 29.5126 33.9566C27.2864 31.8324 26.1733 29.0103 26.1733 25.4902C26.1733 23.9122 26.3839 22.3343 26.8051 20.7563C27.2262 19.1783 28.1889 16.781 29.6931 13.5644L36.0108 0H48.6462L44.1336 15.3852Z" fill="#00DCE6" fill-opacity="0.2"/>
</svg>
