<svg width="26" height="16" viewBox="0 0 26 16" fill="none" xmlns="http://www.w3.org/2000/svg">
<path d="M25.537 13.1607C25.537 12.9598 25.4365 12.7338 25.2859 12.5831L13.5838 0.881138C13.4332 0.730467 13.2072 0.630021 13.0063 0.630021C12.8054 0.630021 12.5794 0.730467 12.4287 0.881138L0.726702 12.5831C0.576032 12.7338 0.475586 12.9598 0.475586 13.1607C0.475586 13.3616 0.576032 13.5876 0.726702 13.7383L1.98228 14.9939C2.13295 15.1445 2.35896 15.245 2.55985 15.245C2.76074 15.245 2.98675 15.1445 3.13742 14.9939L13.0063 5.125L22.8751 14.9939C23.0258 15.1445 23.2518 15.245 23.4527 15.245C23.6787 15.245 23.8796 15.1445 24.0303 14.9939L25.2859 13.7383C25.4365 13.5876 25.537 13.3616 25.537 13.1607Z" fill="white"/>
</svg>
