<svg width="200" height="200" viewBox="0 0 200 200" fill="none" xmlns="http://www.w3.org/2000/svg">
<rect width="200" height="200" fill="white"/>
<mask id="mask0" mask-type="alpha" maskUnits="userSpaceOnUse" x="0" y="0" width="200" height="200">
<rect width="200" height="200" fill="#C4C4C4"/>
</mask>
<g mask="url(#mask0)">
<circle cx="120" cy="80" r="120" fill="#00DCE6" fill-opacity="0.1"/>
<path d="M115.469 32.929L116.399 32.7048L116.808 31.8406L121.39 22.1611C124.126 21.9463 126.874 21.9463 129.61 22.1611L134.192 31.8406L134.601 32.7048L135.531 32.929C139.861 33.9737 144.002 35.6887 147.802 38.0121L148.618 38.5108L149.519 38.189L159.603 34.5848C161.689 36.3675 163.633 38.3106 165.415 40.3968L161.811 50.4816L161.489 51.3819L161.988 52.1976C164.311 55.9987 166.026 60.1393 167.071 64.469L167.295 65.3984L168.159 65.8076L177.839 70.3906C178.054 73.1259 178.054 75.8742 177.839 78.6098L168.159 83.1924L167.295 83.6015L167.071 84.531C166.026 88.8612 164.311 93.0017 161.988 96.8023L161.489 97.6181L161.811 98.5184L165.415 108.603C163.632 110.689 161.689 112.633 159.603 114.415L149.519 110.811L148.618 110.49L147.803 110.988C144.002 113.311 139.861 115.026 135.531 116.071L134.601 116.296L134.192 117.16L129.61 126.839C126.874 127.054 124.126 127.054 121.39 126.839L116.808 117.16L116.399 116.296L115.469 116.071C111.139 115.026 106.998 113.311 103.198 110.988L102.382 110.49L101.482 110.811L91.3967 114.415C89.3106 112.633 87.3675 110.69 85.5851 108.603L89.1889 98.5184L89.5107 97.6181L89.0121 96.8023C86.6891 93.0019 84.9741 88.8613 83.9289 84.5308L83.7046 83.6015L82.8406 83.1924L73.1611 78.6098C72.9463 75.8742 72.9463 73.1259 73.1611 70.3906L82.8406 65.8076L83.7046 65.3985L83.9289 64.4692C84.9741 60.1392 86.6891 55.9986 89.0121 52.1976L89.5107 51.3819L89.1889 50.4816L85.5851 40.3968C87.3675 38.3106 89.3106 36.3675 91.3968 34.5848L101.482 38.189L102.382 38.5108L103.198 38.012C106.999 35.6887 111.139 33.9737 115.469 32.929Z" stroke="#00DCE6" stroke-width="4"/>
<path d="M152 74C152 88.9446 140.103 101 125.5 101C110.897 101 99 88.9446 99 74C99 59.0554 110.897 47 125.5 47C140.103 47 152 59.0554 152 74Z" stroke="#00DCE6" stroke-width="4"/>
<path d="M120.992 139.595C101.327 138.211 83.2709 128.081 72.023 112.164" stroke="#00DCE6" stroke-width="2"/>
</g>
</svg>
