<svg width="330" height="86" viewBox="0 0 330 86" fill="none" xmlns="http://www.w3.org/2000/svg">
<path d="M330 9.78418H31.1321V72.0483H330V9.78418Z" fill="white"/>
<circle opacity="0.1" cx="53.3692" cy="40.9158" r="36.469" fill="#00DCE6"/>
<ellipse opacity="0.2" cx="43.5851" cy="40.9158" rx="37.3585" ry="36.469" fill="#00DCE6"/>
<circle cx="36.0243" cy="40.471" r="36.0243" fill="#00DCE6"/>
<path d="M19.0313 44.3479C19.0313 45.5006 18.6042 46.4826 17.7502 47.2938C16.9103 48.0908 15.6861 48.5747 14.0776 48.7455V51.1364H12.3267V48.7668C11.2734 48.6957 10.277 48.5035 9.33747 48.1904C8.39799 47.8773 7.65067 47.4789 7.09551 46.995L8.05635 44.8389C8.58304 45.2658 9.2236 45.6287 9.97803 45.9276C10.7325 46.2122 11.5154 46.3901 12.3267 46.4613V42.1917C11.3161 41.9498 10.4691 41.6865 9.78586 41.4019C9.11684 41.103 8.55457 40.6761 8.09906 40.121C7.64355 39.5517 7.41579 38.8046 7.41579 37.8795C7.41579 36.7267 7.83572 35.7447 8.67556 34.9335C9.51541 34.1223 10.7325 33.6384 12.3267 33.4819V31.0696H14.0776V33.4392C14.8748 33.4819 15.6505 33.6171 16.405 33.8448C17.1736 34.0725 17.8427 34.3714 18.4121 34.7414L17.5366 36.8975C16.4548 36.2713 15.3018 35.8871 14.0776 35.7447V40.057C15.1025 40.2989 15.9495 40.5622 16.6185 40.8468C17.3018 41.1315 17.8711 41.5584 18.3267 42.1277C18.7964 42.6827 19.0313 43.4228 19.0313 44.3479ZM10.1702 37.7514C10.1702 38.2211 10.3553 38.5982 10.7254 38.8828C11.0955 39.1675 11.6293 39.4094 12.3267 39.6087V35.8088C11.6008 35.9226 11.0599 36.1503 10.704 36.4919C10.3481 36.8335 10.1702 37.2533 10.1702 37.7514ZM14.0776 46.4186C14.832 46.3047 15.3872 46.0841 15.7431 45.7568C16.1132 45.4295 16.2982 45.0239 16.2982 44.54C16.2982 44.0561 16.1061 43.6718 15.7217 43.3872C15.3374 43.0883 14.7893 42.8393 14.0776 42.64V46.4186ZM25.6747 33.6313V48.5747H22.899V35.9582H19.7389V33.6313H25.6747ZM33.8068 33.6313V48.5747H31.0311V35.9582H27.871V33.6313H33.8068ZM48.0456 33.6313V35.4886L42.2379 48.5747H39.2699L44.8855 35.9796H39.0137V38.5199H36.4301V33.6313H48.0456ZM56.371 44.8847C56.371 46.0892 56.1139 47.0297 55.5995 47.7061C55.0852 48.3778 54.367 48.7137 53.4449 48.7137C52.6294 48.7137 51.9783 48.401 51.4918 47.7756L51.4014 48.5747H49.5943V37.9009H51.603V41.7298C52.0664 41.1878 52.6757 40.9168 53.431 40.9168C54.3484 40.9168 55.0667 41.255 55.5856 41.9313C56.1092 42.6031 56.371 43.5505 56.371 44.7735V44.8847ZM54.3623 44.7388C54.3623 43.979 54.2419 43.4254 54.0009 43.078C53.76 42.7259 53.4009 42.5498 52.9236 42.5498C52.2841 42.5498 51.8439 42.8116 51.603 43.3351V46.3023C51.8486 46.8305 52.2934 47.0945 52.9375 47.0945C53.5862 47.0945 54.0125 46.7749 54.2164 46.1356C54.3137 45.8298 54.3623 45.3642 54.3623 44.7388ZM59.464 41.0558L59.5266 41.9244C60.0641 41.2526 60.7846 40.9168 61.6882 40.9168C62.4852 40.9168 63.0783 41.1507 63.4675 41.6186C63.8567 42.0865 64.056 42.7861 64.0653 43.7173V48.5747H62.0566V43.7659C62.0566 43.3397 61.9639 43.0316 61.7785 42.8417C61.5932 42.6471 61.2851 42.5498 60.8541 42.5498C60.2888 42.5498 59.8648 42.7907 59.5822 43.2725V48.5747H57.5735V41.0558H59.464Z" fill="white"/>
<path d="M113.721 48.7241C112.539 48.7241 111.479 48.4751 110.539 47.977C109.6 47.4789 108.867 46.7886 108.34 45.9062C107.813 45.0096 107.55 43.9992 107.55 42.8749C107.55 41.7506 107.813 40.7472 108.34 39.8648C108.867 38.9825 109.593 38.2922 110.518 37.7941C111.457 37.296 112.525 37.0469 113.721 37.0469C114.845 37.0469 115.827 37.2747 116.667 37.7301C117.521 38.1855 118.162 38.8402 118.589 39.6941L116.539 40.8895C116.212 40.363 115.799 39.9716 115.301 39.7154C114.817 39.445 114.283 39.3098 113.699 39.3098C112.703 39.3098 111.877 39.6371 111.222 40.2918C110.568 40.9322 110.24 41.7933 110.24 42.8749C110.24 43.9565 110.561 44.8246 111.201 45.4793C111.856 46.1197 112.689 46.4399 113.699 46.4399C114.283 46.4399 114.817 46.3118 115.301 46.0557C115.799 45.7853 116.212 45.3868 116.539 44.8602L118.589 46.0557C118.148 46.9096 117.5 47.5714 116.646 48.041C115.806 48.4964 114.831 48.7241 113.721 48.7241ZM125.854 48.7241C124.701 48.7241 123.662 48.4751 122.736 47.977C121.811 47.4789 121.085 46.7886 120.558 45.9062C120.046 45.0096 119.79 43.9992 119.79 42.8749C119.79 41.7506 120.046 40.7472 120.558 39.8648C121.085 38.9825 121.811 38.2922 122.736 37.7941C123.662 37.296 124.701 37.0469 125.854 37.0469C127.021 37.0469 128.067 37.296 128.992 37.7941C129.918 38.2922 130.637 38.9825 131.149 39.8648C131.676 40.7472 131.939 41.7506 131.939 42.8749C131.939 43.9992 131.676 45.0096 131.149 45.9062C130.637 46.7886 129.918 47.4789 128.992 47.977C128.067 48.4751 127.021 48.7241 125.854 48.7241ZM125.854 46.4399C126.836 46.4399 127.647 46.1126 128.288 45.4579C128.928 44.8033 129.249 43.9423 129.249 42.8749C129.249 41.8075 128.928 40.9465 128.288 40.2918C127.647 39.6371 126.836 39.3098 125.854 39.3098C124.872 39.3098 124.06 39.6371 123.42 40.2918C122.793 40.9465 122.48 41.8075 122.48 42.8749C122.48 43.9423 122.793 44.8033 123.42 45.4579C124.06 46.1126 124.872 46.4399 125.854 46.4399ZM140.961 37.0469C142.399 37.0469 143.552 37.4668 144.42 38.3065C145.288 39.1461 145.722 40.3914 145.722 42.0423V48.5747H143.053V42.3839C143.053 41.3876 142.819 40.6405 142.349 40.1424C141.879 39.63 141.21 39.3738 140.342 39.3738C139.36 39.3738 138.584 39.6727 138.014 40.2704C137.445 40.854 137.16 41.7007 137.16 42.8108V48.5747H134.491V37.175H137.032V38.648C137.473 38.1214 138.029 37.723 138.698 37.4525C139.367 37.1821 140.121 37.0469 140.961 37.0469ZM152.631 48.7241C151.706 48.7241 150.802 48.6032 149.92 48.3612C149.037 48.1193 148.332 47.8133 147.806 47.4433L148.831 45.4152C149.343 45.7568 149.955 46.0343 150.667 46.2478C151.393 46.4471 152.105 46.5467 152.802 46.5467C154.396 46.5467 155.194 46.1268 155.194 45.2872C155.194 44.8887 154.987 44.6111 154.574 44.4546C154.176 44.298 153.528 44.1486 152.631 44.0063C151.692 43.864 150.923 43.7003 150.325 43.5153C149.742 43.3303 149.229 43.0101 148.788 42.5547C148.361 42.085 148.147 41.4375 148.147 40.612C148.147 39.5304 148.596 38.6694 149.493 38.0289C150.404 37.3743 151.628 37.0469 153.165 37.0469C153.948 37.0469 154.731 37.1395 155.514 37.3245C156.297 37.4952 156.937 37.7301 157.435 38.0289L156.411 40.057C155.443 39.4877 154.354 39.2031 153.144 39.2031C152.361 39.2031 151.763 39.324 151.35 39.566C150.952 39.7937 150.752 40.0997 150.752 40.4839C150.752 40.9109 150.966 41.2169 151.393 41.4019C151.834 41.5727 152.51 41.7363 153.421 41.8929C154.332 42.0352 155.08 42.1989 155.663 42.3839C156.247 42.5689 156.745 42.882 157.158 43.3232C157.585 43.7644 157.798 44.3906 157.798 45.2018C157.798 46.2692 157.336 47.1231 156.411 47.7635C155.485 48.4039 154.226 48.7241 152.631 48.7241ZM171.136 37.175V48.5747H168.595V47.1231C168.168 47.6354 167.634 48.0339 166.994 48.3185C166.353 48.5889 165.663 48.7241 164.923 48.7241C163.399 48.7241 162.197 48.3043 161.314 47.4646C160.446 46.6107 160.012 45.3512 160.012 43.6861V37.175H162.681V43.3232C162.681 44.3479 162.908 45.1164 163.364 45.6287C163.834 46.1268 164.495 46.3759 165.35 46.3759C166.303 46.3759 167.058 46.0841 167.613 45.5006C168.182 44.9029 168.467 44.049 168.467 42.9389V37.175H171.136ZM189.022 37.0469C190.459 37.0469 191.598 37.4668 192.438 38.3065C193.278 39.1319 193.698 40.3772 193.698 42.0423V48.5747H191.029V42.3839C191.029 41.3876 190.808 40.6405 190.367 40.1424C189.926 39.63 189.292 39.3738 188.467 39.3738C187.57 39.3738 186.851 39.6727 186.31 40.2704C185.769 40.854 185.499 41.6936 185.499 42.7895V48.5747H182.83V42.3839C182.83 41.3876 182.609 40.6405 182.168 40.1424C181.726 39.63 181.093 39.3738 180.267 39.3738C179.356 39.3738 178.63 39.6656 178.09 40.2491C177.563 40.8326 177.299 41.6794 177.299 42.7895V48.5747H174.63V37.175H177.171V38.6267C177.598 38.1143 178.132 37.723 178.773 37.4525C179.413 37.1821 180.125 37.0469 180.908 37.0469C181.762 37.0469 182.516 37.2106 183.171 37.5379C183.84 37.851 184.367 38.3207 184.751 38.9469C185.221 38.3492 185.826 37.8866 186.566 37.5593C187.306 37.2177 188.125 37.0469 189.022 37.0469ZM207.931 42.9389C207.931 43.1239 207.917 43.3872 207.889 43.7288H198.942C199.099 44.5685 199.504 45.2373 200.159 45.7355C200.828 46.2193 201.654 46.4613 202.636 46.4613C203.889 46.4613 204.921 46.0486 205.732 45.2231L207.163 46.8669C206.65 47.4789 206.003 47.9414 205.22 48.2545C204.437 48.5676 203.554 48.7241 202.572 48.7241C201.319 48.7241 200.216 48.4751 199.262 47.977C198.309 47.4789 197.569 46.7886 197.042 45.9062C196.529 45.0096 196.273 43.9992 196.273 42.8749C196.273 41.7648 196.522 40.7686 197.021 39.8862C197.533 38.9896 198.238 38.2922 199.134 37.7941C200.031 37.296 201.042 37.0469 202.166 37.0469C203.277 37.0469 204.266 37.296 205.134 37.7941C206.017 38.278 206.7 38.9682 207.184 39.8648C207.682 40.7472 207.931 41.7719 207.931 42.9389ZM202.166 39.1817C201.312 39.1817 200.586 39.4379 199.988 39.9502C199.405 40.4483 199.049 41.1172 198.921 41.9569H205.391C205.277 41.1315 204.928 40.4626 204.344 39.9502C203.761 39.4379 203.035 39.1817 202.166 39.1817ZM213.036 38.8402C213.805 37.6447 215.157 37.0469 217.093 37.0469V39.5873C216.865 39.5446 216.659 39.5233 216.474 39.5233C215.435 39.5233 214.623 39.8293 214.04 40.4412C213.456 41.039 213.164 41.9071 213.164 43.0457V48.5747H210.495V37.175H213.036V38.8402ZM227.903 38.8402C228.672 37.6447 230.024 37.0469 231.96 37.0469V39.5873C231.732 39.5446 231.526 39.5233 231.341 39.5233C230.302 39.5233 229.49 39.8293 228.907 40.4412C228.323 41.039 228.031 41.9071 228.031 43.0457V48.5747H225.362V37.175H227.903V38.8402ZM244.839 42.9389C244.839 43.1239 244.824 43.3872 244.796 43.7288H235.849C236.006 44.5685 236.412 45.2373 237.067 45.7355C237.736 46.2193 238.561 46.4613 239.543 46.4613C240.796 46.4613 241.828 46.0486 242.639 45.2231L244.07 46.8669C243.558 47.4789 242.91 47.9414 242.127 48.2545C241.344 48.5676 240.461 48.7241 239.479 48.7241C238.227 48.7241 237.123 48.4751 236.17 47.977C235.216 47.4789 234.476 46.7886 233.949 45.9062C233.437 45.0096 233.18 43.9992 233.18 42.8749C233.18 41.7648 233.43 40.7686 233.928 39.8862C234.44 38.9896 235.145 38.2922 236.042 37.7941C236.938 37.296 237.949 37.0469 239.074 37.0469C240.184 37.0469 241.173 37.296 242.042 37.7941C242.924 38.278 243.607 38.9682 244.091 39.8648C244.59 40.7472 244.839 41.7719 244.839 42.9389ZM239.074 39.1817C238.22 39.1817 237.494 39.4379 236.896 39.9502C236.312 40.4483 235.956 41.1172 235.828 41.9569H242.298C242.184 41.1315 241.835 40.4626 241.251 39.9502C240.668 39.4379 239.942 39.1817 239.074 39.1817ZM264.98 37.175L260.774 48.5747H258.211L255.265 40.7187L252.276 48.5747H249.713L245.528 37.175H248.048L251.059 45.586L254.197 37.175H256.439L259.514 45.6287L262.61 37.175H264.98ZM270.816 37.0469C272.496 37.0469 273.777 37.4525 274.66 38.2638C275.557 39.0607 276.005 40.2704 276.005 41.8929V48.5747H273.485V47.1871C273.158 47.6852 272.688 48.0695 272.076 48.3399C271.478 48.5961 270.752 48.7241 269.898 48.7241C269.044 48.7241 268.297 48.5818 267.656 48.2972C267.016 47.9983 266.518 47.5927 266.162 47.0804C265.82 46.5538 265.649 45.9632 265.649 45.3085C265.649 44.2838 266.027 43.4655 266.781 42.8535C267.55 42.2273 268.752 41.9142 270.389 41.9142H273.336V41.7434C273.336 40.9465 273.094 40.3345 272.61 39.9075C272.14 39.4806 271.436 39.2671 270.496 39.2671C269.856 39.2671 269.222 39.3667 268.596 39.566C267.984 39.7652 267.464 40.0427 267.037 40.3985L265.991 38.4559C266.589 38.0005 267.308 37.6518 268.147 37.4099C268.987 37.1679 269.877 37.0469 270.816 37.0469ZM270.453 46.7815C271.123 46.7815 271.713 46.6321 272.226 46.3332C272.752 46.0201 273.122 45.5789 273.336 45.0096V43.6861H270.582C269.044 43.6861 268.276 44.1913 268.276 45.2018C268.276 45.6857 268.468 46.0699 268.852 46.3545C269.236 46.6392 269.77 46.7815 270.453 46.7815ZM281.971 38.8402C282.74 37.6447 284.092 37.0469 286.028 37.0469V39.5873C285.8 39.5446 285.594 39.5233 285.409 39.5233C284.37 39.5233 283.558 39.8293 282.975 40.4412C282.391 41.039 282.099 41.9071 282.099 43.0457V48.5747H279.43V37.175H281.971V38.8402ZM299.355 32.7347V48.5747H296.793V47.1017C296.352 47.6425 295.804 48.0481 295.149 48.3185C294.508 48.5889 293.796 48.7241 293.014 48.7241C291.917 48.7241 290.928 48.4822 290.046 47.9983C289.177 47.5144 288.494 46.8313 287.996 45.9489C287.498 45.0523 287.248 44.0276 287.248 42.8749C287.248 41.7221 287.498 40.7045 287.996 39.8221C288.494 38.9398 289.177 38.2566 290.046 37.7728C290.928 37.2889 291.917 37.0469 293.014 37.0469C293.768 37.0469 294.458 37.175 295.085 37.4312C295.711 37.6874 296.245 38.0716 296.686 38.584V32.7347H299.355ZM293.334 46.4399C293.974 46.4399 294.551 46.2976 295.063 46.013C295.576 45.7141 295.981 45.2943 296.28 44.7535C296.579 44.2127 296.729 43.5865 296.729 42.8749C296.729 42.1633 296.579 41.5371 296.28 40.9963C295.981 40.4555 295.576 40.0427 295.063 39.7581C294.551 39.4592 293.974 39.3098 293.334 39.3098C292.693 39.3098 292.117 39.4592 291.604 39.7581C291.092 40.0427 290.686 40.4555 290.387 40.9963C290.088 41.5371 289.939 42.1633 289.939 42.8749C289.939 43.5865 290.088 44.2127 290.387 44.7535C290.686 45.2943 291.092 45.7141 291.604 46.013C292.117 46.2976 292.693 46.4399 293.334 46.4399ZM306.37 48.7241C305.444 48.7241 304.541 48.6032 303.658 48.3612C302.775 48.1193 302.071 47.8133 301.544 47.4433L302.569 45.4152C303.081 45.7568 303.694 46.0343 304.405 46.2478C305.131 46.4471 305.843 46.5467 306.541 46.5467C308.135 46.5467 308.932 46.1268 308.932 45.2872C308.932 44.8887 308.726 44.6111 308.313 44.4546C307.914 44.298 307.266 44.1486 306.37 44.0063C305.43 43.864 304.662 43.7003 304.064 43.5153C303.48 43.3303 302.968 43.0101 302.526 42.5547C302.099 42.085 301.886 41.4375 301.886 40.612C301.886 39.5304 302.334 38.6694 303.231 38.0289C304.142 37.3743 305.366 37.0469 306.903 37.0469C307.686 37.0469 308.469 37.1395 309.252 37.3245C310.035 37.4952 310.676 37.7301 311.174 38.0289L310.149 40.057C309.181 39.4877 308.092 39.2031 306.882 39.2031C306.099 39.2031 305.501 39.324 305.089 39.566C304.69 39.7937 304.491 40.0997 304.491 40.4839C304.491 40.9109 304.704 41.2169 305.131 41.4019C305.573 41.5727 306.249 41.7363 307.16 41.8929C308.071 42.0352 308.818 42.1989 309.402 42.3839C309.985 42.5689 310.484 42.882 310.896 43.3232C311.323 43.7644 311.537 44.3906 311.537 45.2018C311.537 46.2692 311.074 47.1231 310.149 47.7635C309.224 48.4039 307.964 48.7241 306.37 48.7241Z" fill="#00DCE6"/>
</svg>
