<svg width="371" height="102" viewBox="0 0 371 102" fill="none" xmlns="http://www.w3.org/2000/svg">
<path d="M371 16H35V86H371V16Z" fill="white"/>
<circle opacity="0.1" cx="60" cy="51" r="41" fill="#00DCE6"/>
<ellipse opacity="0.2" cx="49" cy="51" rx="42" ry="41" fill="#00DCE6"/>
<circle cx="40.5" cy="50.5" r="40.5" fill="#00DCE6"/>
<path d="M0 101H371" stroke="#353A47"/>
<path d="M0 1H371" stroke="#353A47"/>
<path d="M21.3956 54.248C21.3956 50.912 18.491 50.072 15.8265 49.424V44.576C17.0987 44.72 18.443 45.128 19.7153 45.872L20.6995 43.448C19.4032 42.608 17.6028 42.08 15.8265 41.984V39.32H13.8581V42.032C10.1133 42.392 8.33699 44.528 8.33699 46.976C8.33699 50.312 11.1936 51.176 13.8581 51.824V56.624C12.0337 56.456 10.2334 55.76 9.05713 54.8L7.97691 57.224C9.22516 58.304 11.5056 59.072 13.8581 59.216V61.88H15.8265V59.192C19.5952 58.808 21.3956 56.696 21.3956 54.248ZM11.4336 46.832C11.4336 45.776 12.1537 44.912 13.8581 44.648V48.92C12.4658 48.512 11.4336 47.984 11.4336 46.832ZM15.8265 56.576V52.328C17.2668 52.736 18.323 53.288 18.323 54.464C18.323 55.496 17.5788 56.312 15.8265 56.576ZM22.1911 42.2V44.816H25.7438V59H28.8645V42.2H22.1911ZM31.3336 42.2V44.816H34.8863V59H38.0069V42.2H31.3336ZM40.9561 42.2V47.696H43.8607V44.84H50.462L44.1488 59H47.4854L54.0147 44.288V42.2H40.9561ZM63.3746 54.8516C63.3746 56.2057 63.0854 57.263 62.5072 58.0234C61.929 58.7786 61.1215 59.1562 60.0848 59.1562C59.168 59.1562 58.4361 58.8047 57.8891 58.1016L57.7875 59H55.7558V47H58.0141V51.3047C58.535 50.6953 59.2201 50.3906 60.0692 50.3906C61.1007 50.3906 61.9081 50.7708 62.4916 51.5312C63.0802 52.2865 63.3746 53.3516 63.3746 54.7266V54.8516ZM61.1163 54.6875C61.1163 53.8333 60.9808 53.2109 60.71 52.8203C60.4391 52.4245 60.0353 52.2266 59.4988 52.2266C58.7799 52.2266 58.285 52.5208 58.0141 53.1094V56.4453C58.2902 57.0391 58.7903 57.3359 59.5144 57.3359C60.2437 57.3359 60.723 56.9766 60.9522 56.2578C61.0616 55.9141 61.1163 55.3906 61.1163 54.6875ZM66.8518 50.5469L66.9221 51.5234C67.5264 50.7682 68.3365 50.3906 69.3523 50.3906C70.2483 50.3906 70.9151 50.6536 71.3527 51.1797C71.7903 51.7057 72.0143 52.4922 72.0247 53.5391V59H69.7665V53.5938C69.7665 53.1146 69.6623 52.7682 69.4539 52.5547C69.2455 52.3359 68.8991 52.2266 68.4146 52.2266C67.7791 52.2266 67.3024 52.4974 66.9847 53.0391V59H64.7264V50.5469H66.8518Z" fill="white"/>
<path d="M127.85 59.168C130.346 59.168 132.338 58.088 133.323 56.168L131.018 54.824C130.25 56.048 129.098 56.6 127.826 56.6C125.617 56.6 123.937 55.088 123.937 52.592C123.937 50.12 125.617 48.584 127.826 48.584C129.098 48.584 130.25 49.136 131.018 50.36L133.323 49.016C132.338 47.072 130.346 46.04 127.85 46.04C123.793 46.04 120.912 48.752 120.912 52.592C120.912 56.432 123.793 59.168 127.85 59.168ZM141.49 59.168C145.475 59.168 148.331 56.432 148.331 52.592C148.331 48.752 145.475 46.04 141.49 46.04C137.553 46.04 134.673 48.752 134.673 52.592C134.673 56.432 137.553 59.168 141.49 59.168ZM141.49 56.6C139.33 56.6 137.697 55.04 137.697 52.592C137.697 50.144 139.33 48.584 141.49 48.584C143.675 48.584 145.307 50.144 145.307 52.592C145.307 55.04 143.675 56.6 141.49 56.6ZM158.474 46.04C156.602 46.04 155.042 46.664 154.057 47.84V46.184H151.201V59H154.201V52.52C154.201 49.952 155.642 48.656 157.778 48.656C159.699 48.656 160.827 49.76 160.827 52.04V59H163.827V51.656C163.827 47.792 161.547 46.04 158.474 46.04ZM171.595 59.168C175.195 59.168 177.404 57.608 177.404 55.208C177.404 50.192 169.482 52.496 169.482 49.904C169.482 49.064 170.346 48.464 172.171 48.464C173.395 48.464 174.619 48.704 175.843 49.424L176.996 47.144C175.843 46.448 173.899 46.04 172.195 46.04C168.738 46.04 166.554 47.624 166.554 50.048C166.554 55.16 174.475 52.856 174.475 55.304C174.475 56.192 173.683 56.72 171.787 56.72C170.178 56.72 168.45 56.192 167.322 55.448L166.169 57.728C167.322 58.544 169.458 59.168 171.595 59.168ZM189.398 46.184V52.664C189.398 55.232 187.981 56.528 185.893 56.528C183.997 56.528 182.892 55.424 182.892 53.096V46.184H179.892V53.504C179.892 57.368 182.124 59.168 185.413 59.168C187.069 59.168 188.582 58.544 189.542 57.368V59H192.398V46.184H189.398ZM212.506 46.04C210.466 46.04 208.737 46.856 207.705 48.176C206.817 46.736 205.257 46.04 203.384 46.04C201.632 46.04 200.144 46.664 199.184 47.816V46.184H196.327V59H199.328V52.496C199.328 49.952 200.672 48.656 202.664 48.656C204.489 48.656 205.545 49.76 205.545 52.04V59H208.545V52.496C208.545 49.952 209.914 48.656 211.882 48.656C213.706 48.656 214.763 49.76 214.763 52.04V59H217.763V51.656C217.763 47.792 215.603 46.04 212.506 46.04ZM233.765 52.664C233.765 48.656 231.029 46.04 227.284 46.04C223.467 46.04 220.659 48.776 220.659 52.592C220.659 56.408 223.443 59.168 227.74 59.168C229.949 59.168 231.749 58.448 232.901 57.08L231.293 55.232C230.381 56.168 229.252 56.624 227.812 56.624C225.58 56.624 224.019 55.424 223.659 53.552H233.717C233.741 53.264 233.765 52.904 233.765 52.664ZM227.284 48.44C229.252 48.44 230.669 49.712 230.909 51.56H223.635C223.923 49.688 225.34 48.44 227.284 48.44ZM239.504 48.056V46.184H236.648V59H239.648V52.784C239.648 50.168 241.088 48.824 243.369 48.824C243.585 48.824 243.801 48.848 244.065 48.896V46.04C241.929 46.04 240.368 46.712 239.504 48.056ZM256.218 48.056V46.184H253.362V59H256.362V52.784C256.362 50.168 257.803 48.824 260.083 48.824C260.299 48.824 260.515 48.848 260.779 48.896V46.04C258.643 46.04 257.083 46.712 256.218 48.056ZM275.258 52.664C275.258 48.656 272.521 46.04 268.777 46.04C264.96 46.04 262.151 48.776 262.151 52.592C262.151 56.408 264.936 59.168 269.233 59.168C271.441 59.168 273.242 58.448 274.394 57.08L272.785 55.232C271.873 56.168 270.745 56.624 269.305 56.624C267.072 56.624 265.512 55.424 265.152 53.552H275.21C275.234 53.264 275.258 52.904 275.258 52.664ZM268.777 48.44C270.745 48.44 272.161 49.712 272.401 51.56H265.128C265.416 49.688 266.832 48.44 268.777 48.44ZM295.237 46.184L291.757 55.688L288.3 46.184H285.779L282.251 55.64L278.866 46.184H276.033L280.738 59H283.619L286.98 50.168L290.292 59H293.173L297.902 46.184H295.237ZM304.463 46.04C302.399 46.04 300.407 46.568 299.038 47.624L300.215 49.808C301.175 49.016 302.663 48.536 304.103 48.536C306.24 48.536 307.296 49.568 307.296 51.32V51.512H303.983C300.095 51.512 298.654 53.192 298.654 55.328C298.654 57.56 300.503 59.168 303.431 59.168C305.352 59.168 306.744 58.544 307.464 57.44V59H310.297V51.488C310.297 47.792 308.16 46.04 304.463 46.04ZM304.055 56.984C302.519 56.984 301.607 56.288 301.607 55.208C301.607 54.272 302.159 53.504 304.199 53.504H307.296V54.992C306.792 56.312 305.52 56.984 304.055 56.984ZM317.004 48.056V46.184H314.147V59H317.148V52.784C317.148 50.168 318.588 48.824 320.869 48.824C321.085 48.824 321.301 48.848 321.565 48.896V46.04C319.429 46.04 317.868 46.712 317.004 48.056ZM333.547 41.192V47.768C332.539 46.592 331.075 46.04 329.418 46.04C325.698 46.04 322.937 48.608 322.937 52.592C322.937 56.576 325.698 59.168 329.418 59.168C331.171 59.168 332.659 58.568 333.667 57.344V59H336.548V41.192H333.547ZM329.778 56.6C327.618 56.6 325.962 55.04 325.962 52.592C325.962 50.144 327.618 48.584 329.778 48.584C331.939 48.584 333.595 50.144 333.595 52.592C333.595 55.04 331.939 56.6 329.778 56.6ZM344.434 59.168C348.035 59.168 350.243 57.608 350.243 55.208C350.243 50.192 342.321 52.496 342.321 49.904C342.321 49.064 343.186 48.464 345.01 48.464C346.234 48.464 347.458 48.704 348.683 49.424L349.835 47.144C348.683 46.448 346.738 46.04 345.034 46.04C341.577 46.04 339.393 47.624 339.393 50.048C339.393 55.16 347.314 52.856 347.314 55.304C347.314 56.192 346.522 56.72 344.626 56.72C343.018 56.72 341.289 56.192 340.161 55.448L339.009 57.728C340.161 58.544 342.297 59.168 344.434 59.168Z" fill="#00DCE6"/>
</svg>
