<svg width="50" height="50" viewBox="0 0 50 50" fill="none" xmlns="http://www.w3.org/2000/svg">
<circle cx="25" cy="25" r="25" fill="#1F2432"/>
<path d="M25.6 14.7998C26.7045 14.7998 27.6 13.9044 27.6 12.7998C27.6 11.6952 26.7045 10.7998 25.6 10.7998C24.4954 10.7998 23.6 11.6952 23.6 12.7998C23.6 13.9044 24.4954 14.7998 25.6 14.7998Z" stroke="#00DCE6" stroke-miterlimit="10"/>
<path d="M36.2 20.8994C37.3045 20.8994 38.2 20.004 38.2 18.8994C38.2 17.7948 37.3045 16.8994 36.2 16.8994C35.0954 16.8994 34.2 17.7948 34.2 18.8994C34.2 20.004 35.0954 20.8994 36.2 20.8994Z" stroke="#00DCE6" stroke-miterlimit="10"/>
<path d="M15.2 33C16.3045 33 17.2 32.1046 17.2 31C17.2 29.8954 16.3045 29 15.2 29C14.0954 29 13.2 29.8954 13.2 31C13.2 32.1046 14.0954 33 15.2 33Z" stroke="#00DCE6" stroke-miterlimit="10"/>
<path d="M15 21C16.1046 21 17 20.1046 17 19C17 17.8954 16.1046 17 15 17C13.8954 17 13 17.8954 13 19C13 20.1046 13.8954 21 15 21Z" stroke="#00DCE6" stroke-miterlimit="10"/>
<path d="M36.2 33.2002C37.3045 33.2002 38.2 32.3048 38.2 31.2002C38.2 30.0956 37.3045 29.2002 36.2 29.2002C35.0954 29.2002 34.2 30.0956 34.2 31.2002C34.2 32.3048 35.0954 33.2002 36.2 33.2002Z" stroke="#00DCE6" stroke-miterlimit="10"/>
<path d="M25.6 27C26.7045 27 27.6 26.1046 27.6 25C27.6 23.8954 26.7045 23 25.6 23C24.4954 23 23.6 23.8954 23.6 25C23.6 26.1046 24.4954 27 25.6 27Z" stroke="#00DCE6" stroke-miterlimit="10"/>
<path d="M25.8 39.0996C26.9046 39.0996 27.8 38.2042 27.8 37.0996C27.8 35.995 26.9046 35.0996 25.8 35.0996C24.6955 35.0996 23.8 35.995 23.8 37.0996C23.8 38.2042 24.6955 39.0996 25.8 39.0996Z" stroke="#00DCE6" stroke-miterlimit="10"/>
<path d="M16.8 17.8994L23.8 13.8994" stroke="#00DCE6" stroke-miterlimit="10"/>
<path d="M27.5 14L34.4 17.9" stroke="#00DCE6" stroke-miterlimit="10"/>
<path d="M36.2 21.0996V29.0996" stroke="#00DCE6" stroke-miterlimit="10"/>
<path d="M34.5 32.0996L27.6 36.1996" stroke="#00DCE6" stroke-miterlimit="10"/>
<path d="M23.7001 36.1002L16.8 32.2002" stroke="#00DCE6" stroke-miterlimit="10"/>
<path d="M15.1 21.0996L15 28.7996" stroke="#00DCE6" stroke-miterlimit="10"/>
<path d="M27.4 23.9996L34.5 20.0996" stroke="#00DCE6" stroke-miterlimit="10"/>
<path d="M23.8 24.1L16.8 20" stroke="#00DCE6" stroke-miterlimit="10"/>
<path d="M25.6 27V35.1" stroke="#00DCE6" stroke-miterlimit="10"/>
</svg>
