<svg width="50" height="50" viewBox="0 0 50 50" fill="none" xmlns="http://www.w3.org/2000/svg">
<circle cx="25" cy="25" r="25" fill="#1F2432"/>
<path d="M25.775 22.7004C27.475 22.7004 28.575 21.6004 28.575 20.2004V19.4004C28.575 18.0004 27.475 16.9004 25.775 16.9004C24.075 16.9004 22.975 18.0004 22.975 19.4004V20.2004C22.975 21.6004 24.075 22.7004 25.775 22.7004Z" stroke="#00DCE6" stroke-miterlimit="10"/>
<path d="M31.375 32.3006V28.0006C31.375 25.2006 27.675 24.6006 25.675 24.6006C23.675 24.6006 19.975 25.2006 19.975 28.0006V32.4006" stroke="#00DCE6" stroke-miterlimit="10"/>
<path d="M25.575 37C32.2024 37 37.575 31.6274 37.575 25C37.575 18.3726 32.2024 13 25.575 13C18.9475 13 13.575 18.3726 13.575 25C13.575 31.6274 18.9475 37 25.575 37Z" stroke="#00DCE6" stroke-miterlimit="10"/>
<path d="M36.775 36.1C42.875 30 42.875 20.1 36.775 14" stroke="#00DCE6" stroke-miterlimit="10"/>
<path d="M14.575 13.9004C8.475 20.0004 8.475 29.9004 14.575 36.0004" stroke="#00DCE6" stroke-miterlimit="10"/>
</svg>
