<svg width="50" height="50" viewBox="0 0 50 50" fill="none" xmlns="http://www.w3.org/2000/svg">
<circle cx="25" cy="25" r="25" fill="#1F2432"/>
<path d="M40.5 21.1L39 17.5C38.6 17.3 38.4 17.2 38 17L36.2 17.6C35.9 17.5 35.6 17.4 35.3 17.4C34.7 16.6 33.9 15.9 33.1 15.2C33 14.9 32.9 14.6 32.9 14.3L33.5 12.5C33.3 12.1 33.2 11.9 33 11.5L29.4 10C29 10.2 28.8 10.2 28.4 10.4L27.6 12C27.3 12.2 27 12.2 26.8 12.4C25.8 12.2 24.8 12.2 23.7 12.4C23.4 12.2 23.1 12.2 22.9 12L22.1 10.4C21.7 10.2 21.5 10.2 21.1 10L17.5 11.5C17.3 11.9 17.2 12.1 17 12.5L17.6 14.3C17.5 14.6 17.4 14.9 17.4 15.2C16.6 15.8 15.9 16.6 15.2 17.4C14.9 17.5 14.6 17.6 14.3 17.6L12.5 17C12.1 17.2 11.9 17.3 11.5 17.5L10 21.1C10.2 21.5 10.2 21.7 10.4 22.1L12 22.9C12.2 23.2 12.2 23.5 12.4 23.7C12.2 24.7 12.2 25.7 12.4 26.8C12.2 27.1 12.2 27.4 12 27.6L10.4 28.4C10.2 28.8 10.2 29 10 29.4L11.5 33C11.9 33.2 12.1 33.3 12.5 33.5L14.3 32.9C14.6 33 14.9 33.1 15.2 33.1C15.8 33.9 16.6 34.6 17.4 35.3C17.5 35.6 17.6 35.9 17.6 36.2L17 38C17.2 38.4 17.3 38.6 17.5 39L21.1 40.5C21.5 40.3 21.7 40.3 22.1 40.1L22.9 38.5C23.2 38.3 23.5 38.3 23.7 38.1C24.7 38.3 25.7 38.3 26.8 38.1C27.1 38.3 27.4 38.3 27.6 38.5L28.4 40.1C28.8 40.3 29 40.3 29.4 40.5L33 39C33.2 38.6 33.3 38.4 33.5 38L32.9 36.2C33 35.9 33.1 35.6 33.1 35.3C33.9 34.7 34.6 33.9 35.3 33.1C35.6 33 35.9 32.9 36.2 32.9L38 33.5C38.4 33.3 38.6 33.2 39 33L40.5 29.4C40.3 29 40.3 28.8 40.1 28.4L38.5 27.6C38.3 27.3 38.3 27 38.1 26.8C38.3 25.8 38.3 24.8 38.1 23.7C38.3 23.4 38.3 23.1 38.5 22.9L40.1 22.1C40.3 21.7 40.4 21.5 40.5 21.1Z" stroke="#00DCE6" stroke-miterlimit="10"/>
<path d="M25.4 34.7004C30.6467 34.7004 34.9 30.4919 34.9 25.3004C34.9 20.1089 30.6467 15.9004 25.4 15.9004C20.1533 15.9004 15.9 20.1089 15.9 25.3004C15.9 30.4919 20.1533 34.7004 25.4 34.7004Z" stroke="#00DCE6" stroke-miterlimit="10"/>
<path d="M30 21.0996L25.4 25.8996L22.6 23.1996" stroke="#00DCE6" stroke-miterlimit="10"/>
</svg>
