<svg width="50" height="50" viewBox="0 0 50 50" fill="none" xmlns="http://www.w3.org/2000/svg">
<circle cx="25" cy="25" r="25" fill="#1F2432"/>
<path d="M36 21.4002C37.7121 21.4002 39.1 20.0123 39.1 18.3002C39.1 16.5881 37.7121 15.2002 36 15.2002C34.2879 15.2002 32.9 16.5881 32.9 18.3002C32.9 20.0123 34.2879 21.4002 36 21.4002Z" stroke="#00DCE6" stroke-miterlimit="10"/>
<path d="M14.1 21.4002C15.8121 21.4002 17.2 20.0123 17.2 18.3002C17.2 16.5881 15.8121 15.2002 14.1 15.2002C12.3879 15.2002 11 16.5881 11 18.3002C11 20.0123 12.3879 21.4002 14.1 21.4002Z" stroke="#00DCE6" stroke-miterlimit="10"/>
<path d="M24.9001 40.9002C26.6121 40.9002 28.0001 39.5123 28.0001 37.8002C28.0001 36.0881 26.6121 34.7002 24.9001 34.7002C23.188 34.7002 21.8 36.0881 21.8 37.8002C21.8 39.5123 23.188 40.9002 24.9001 40.9002Z" stroke="#00DCE6" stroke-miterlimit="10"/>
<path d="M34.4 16C32.1 13.6 28.7 12 25.1 12C21.5 12 18.3 13.5 16 15.8" stroke="#00DCE6" stroke-miterlimit="10" stroke-dasharray="5 5"/>
<path d="M27.9 37.5002C33.6 36.2002 37.9 31.0002 37.9 24.9002C37.9 23.6002 37.7 22.3002 37.3 21.2002" stroke="#00DCE6" stroke-miterlimit="10" stroke-dasharray="5 5"/>
<path d="M12.7 21.4004C12.4 22.5004 12.2 23.7004 12.2 24.9004C12.2 30.9004 16.2 35.9004 21.7 37.3004" stroke="#00DCE6" stroke-miterlimit="10" stroke-dasharray="5 5"/>
</svg>
