<svg width="50" height="50" viewBox="0 0 50 50" fill="none" xmlns="http://www.w3.org/2000/svg">
<circle cx="25" cy="25" r="25" fill="#1F2432"/>
<path d="M25.5 10C26.7 11.7 34.7 15.2 38 15.2C38 20.9 38 22.8 38 27.7C38 33.6 26.2 40.2 25.5 40.2C24.8 40.2 13 33.6 13 27.7C13 22.8 13 20.9 13 15.2C16.2 15.3 24.3 11.7 25.5 10Z" stroke="#00DCE6" stroke-miterlimit="10"/>
<path d="M25.5 13C26.5 14.4 32.8 17.2 35.5 17.2C35.5 21.8 35.5 23.3 35.5 27.2C35.5 31.9 26.1 37.2 25.5 37.2C24.9 37.2 15.5 31.9 15.5 27.2C15.5 23.2 15.5 21.8 15.5 17.2C18 17.2 24.5 14.4 25.5 13Z" stroke="#00DCE6" stroke-miterlimit="10"/>
<path d="M30.7 19.7998L24.2 26.3998L21.6 23.8998L19.6 25.7998L24.1 30.3998L32.7 21.7998L30.7 19.7998Z" stroke="#00DCE6" stroke-miterlimit="10"/>
</svg>
