<svg width="50" height="50" viewBox="0 0 50 50" fill="none" xmlns="http://www.w3.org/2000/svg">
<circle cx="25" cy="25" r="25" fill="#1F2432"/>
<path d="M31.9 38.2996H17.8C15.7 38.2996 14 36.5996 14 34.4996V22.0996H35.7V34.5996C35.7 36.5996 34 38.2996 31.9 38.2996Z" stroke="#00DCE6" stroke-miterlimit="10"/>
<path d="M18.4 14.4C18.4 11.4 21.3 9 24.9 9C28.5 9 31.4 11.4 31.4 14.4V22H18.4V14.4Z" stroke="#00DCE6" stroke-miterlimit="10"/>
<path d="M19.5 28.2002C20.5 27.2002 22.2 27.2002 23.4 28.2002C23.6 28.4002 23.9 28.8002 24 29.2002H30.1L31.1 30.2002L30.9 31.4002H29.4L28.9 30.9002H28.4L27.9 31.4002H27.4L26.9 30.9002H26.4L25.9 31.4002H23.8C23.6 31.6002 23.5 31.9002 23.3 32.1002C22.3 33.1002 20.6 33.1002 19.4 32.1002C18.2 31.1002 18.4 29.3002 19.5 28.2002Z" stroke="#00DCE6" stroke-miterlimit="10"/>
<path d="M21.3 30.7002C21.5762 30.7002 21.8 30.4763 21.8 30.2002C21.8 29.9241 21.5762 29.7002 21.3 29.7002C21.0239 29.7002 20.8 29.9241 20.8 30.2002C20.8 30.4763 21.0239 30.7002 21.3 30.7002Z" stroke="#00DCE6" stroke-miterlimit="10"/>
</svg>
