<svg width="50" height="50" viewBox="0 0 50 50" fill="none" xmlns="http://www.w3.org/2000/svg">
<circle cx="25" cy="25" r="25" fill="#1F2432"/>
<path d="M29.7 38.2L33.4 36.6L32.1 33.8C33.4 32.9 34.5 31.8 35.2 30.4L38.1 31.5L39.5 27.8L36.6 26.7C36.9 25.2 36.9 23.6 36.4 22.1L39.2 20.8L37.6 17.1L34.8 18.4C33.9 17.1 32.8 16 31.4 15.3L32.5 12.4L28.8 11L27.7 13.9C26.2 13.6 24.6 13.6 23.1 14.1L21.8 11.3L18.1 12.9L19.4 15.7C18.1 16.6 17 17.7 16.3 19.1L13.4 18L12 21.7L14.9 22.8C14.6 24.3 14.6 25.9 15.1 27.4L12.3 28.7L13.9 32.4L16.7 31.1C17.6 32.4 18.7 33.5 20.1 34.2L19 37.1L22.7 38.5L23.8 35.6C25.3 35.9 26.9 35.9 28.4 35.4L29.7 38.2Z" stroke="#00DCE6" stroke-miterlimit="10"/>
<path d="M25.7 31.2002C29.2898 31.2002 32.2 28.29 32.2 24.7002C32.2 21.1103 29.2898 18.2002 25.7 18.2002C22.1101 18.2002 19.2 21.1103 19.2 24.7002C19.2 28.29 22.1101 31.2002 25.7 31.2002Z" stroke="#00DCE6" stroke-miterlimit="10"/>
<path d="M25.8 29.2996C28.3 29.2996 30.4 27.1996 30.4 24.5996" stroke="#00DCE6" stroke-miterlimit="10"/>
<path d="M25.7 20C23.1 20 21.1 22.1 21.1 24.7" stroke="#00DCE6" stroke-miterlimit="10"/>
</svg>
