<svg width="330" height="145" viewBox="0 0 330 145" fill="none" xmlns="http://www.w3.org/2000/svg">
<path d="M164.4 4.37114e-08L164.4 20L166.4 20L166.4 -4.37114e-08L164.4 4.37114e-08Z" fill="#00DCE6"/>
<path d="M111 95L111 145L113 145L113 95L111 95Z" fill="#00DCE6"/>
<path d="M217 95L217 145L219 145L219 95L217 95Z" fill="#00DCE6"/>
<path d="M218 35L218 20C176.604 20 153.396 20 112 20L112 35" stroke="#00DCE6" stroke-width="2"/>
<path d="M218 95C234.569 95 248 81.5685 248 65C248 48.4315 234.569 35 218 35C201.431 35 188 48.4315 188 65C188 81.5685 201.431 95 218 95Z" fill="#00DCE6" fill-opacity="0.2"/>
<path d="M218 87C230.15 87 240 77.1503 240 65C240 52.8497 230.15 43 218 43C205.85 43 196 52.8497 196 65C196 77.1503 205.85 87 218 87Z" fill="#00DCE6"/>
<path d="M224.264 59.0251C223.361 57.219 220.953 55.8644 218.244 55.7139C214.632 55.7139 211.621 57.3695 211.621 60.2292C211.621 63.0889 214.03 64.4435 218.394 66.0991C222.308 67.4537 224.415 68.9588 224.264 71.8185C224.264 74.6783 221.254 76.1834 217.642 76.1834C214.782 76.1834 212.223 74.5277 211.471 72.4206" stroke="white"/>
<path d="M217.943 81V76.1836" stroke="white"/>
<path d="M217.943 55.7147V49.8447" stroke="white"/>
<path d="M112 95C128.569 95 142 81.5685 142 65C142 48.4315 128.569 35 112 35C95.4315 35 82 48.4315 82 65C82 81.5685 95.4315 95 112 95Z" fill="#00DCE6" fill-opacity="0.2"/>
<path d="M112 87C124.15 87 134 77.1503 134 65C134 52.8497 124.15 43 112 43C99.8497 43 90 52.8497 90 65C90 77.1503 99.8497 87 112 87Z" fill="#00DCE6"/>
<path d="M110.137 63.2311C107.162 62.3176 105 59.549 105 56.2752C105 52.2572 108.257 49 112.275 49C116.293 49 119.55 52.2572 119.55 56.2752C119.55 59.549 117.388 62.3176 114.414 63.2311" stroke="white"/>
<path d="M112.5 57C113.881 57 115 55.8807 115 54.5C115 53.1193 113.881 52 112.5 52C111.119 52 110 53.1193 110 54.5C110 55.8807 111.119 57 112.5 57Z" stroke="white"/>
<path d="M114.388 62.7695V66.0003L118 68V70M110.163 62.7695V66.5H106V70M114.388 68.0003V70.5003L118 73M112.5 72.5L114.388 74L113 76L115 77.5L112.5 81L110.163 79.0003V73.8685V69.7366" stroke="white"/>
<circle cx="105.5" cy="71.5" r="1.5" stroke="white"/>
<circle cx="119.5" cy="73.5" r="1.5" stroke="white"/>
<path d="M261.802 60.0469L264.358 67.2656L266.901 60.0469H269.595V70H267.537V67.2793L267.742 62.583L265.056 70H263.647L260.968 62.5898L261.173 67.2793V70H259.122V60.0469H261.802ZM270.948 66.2334C270.948 65.4997 271.09 64.8457 271.372 64.2715C271.655 63.6973 272.06 63.2529 272.589 62.9385C273.122 62.624 273.74 62.4668 274.441 62.4668C275.439 62.4668 276.253 62.7721 276.882 63.3828C277.515 63.9935 277.868 64.8229 277.941 65.8711L277.955 66.377C277.955 67.5117 277.638 68.4232 277.005 69.1113C276.371 69.7949 275.521 70.1367 274.455 70.1367C273.389 70.1367 272.536 69.7949 271.898 69.1113C271.265 68.4277 270.948 67.498 270.948 66.3223V66.2334ZM272.924 66.377C272.924 67.0788 273.056 67.6165 273.32 67.9902C273.585 68.3594 273.963 68.5439 274.455 68.5439C274.934 68.5439 275.307 68.3617 275.576 67.9971C275.845 67.6279 275.979 67.04 275.979 66.2334C275.979 65.5452 275.845 65.012 275.576 64.6338C275.307 64.2555 274.929 64.0664 274.441 64.0664C273.958 64.0664 273.585 64.2555 273.32 64.6338C273.056 65.0075 272.924 65.5885 272.924 66.377ZM280.99 62.6035L281.052 63.458C281.58 62.7972 282.289 62.4668 283.178 62.4668C283.962 62.4668 284.545 62.6969 284.928 63.1572C285.311 63.6175 285.507 64.3057 285.516 65.2217V70H283.54V65.2695C283.54 64.8503 283.449 64.5472 283.267 64.3604C283.084 64.1689 282.781 64.0732 282.357 64.0732C281.801 64.0732 281.384 64.3102 281.106 64.7842V70H279.131V62.6035H280.99ZM290.424 70.1367C289.339 70.1367 288.455 69.804 287.771 69.1387C287.092 68.4733 286.753 67.5869 286.753 66.4795V66.2881C286.753 65.5452 286.896 64.8822 287.184 64.2988C287.471 63.7109 287.876 63.2598 288.4 62.9453C288.929 62.6263 289.531 62.4668 290.205 62.4668C291.217 62.4668 292.012 62.7858 292.591 63.4238C293.174 64.0618 293.466 64.9665 293.466 66.1377V66.9443H288.756C288.82 67.4274 289.011 67.8148 289.33 68.1064C289.654 68.3981 290.062 68.5439 290.554 68.5439C291.315 68.5439 291.91 68.2682 292.338 67.7168L293.309 68.8037C293.012 69.223 292.611 69.5511 292.105 69.7881C291.6 70.0205 291.039 70.1367 290.424 70.1367ZM290.198 64.0664C289.806 64.0664 289.487 64.1986 289.241 64.4629C289 64.7272 288.845 65.1055 288.776 65.5977H291.524V65.4404C291.515 65.0029 291.397 64.6657 291.169 64.4287C290.941 64.1872 290.618 64.0664 290.198 64.0664ZM297.26 67.2041L298.627 62.6035H300.746L297.772 71.1484L297.608 71.5381C297.166 72.5042 296.437 72.9873 295.421 72.9873C295.134 72.9873 294.842 72.944 294.546 72.8574V71.3604L294.847 71.3672C295.22 71.3672 295.498 71.3102 295.681 71.1963C295.868 71.0824 296.013 70.8932 296.118 70.6289L296.351 70.0205L293.76 62.6035H295.886L297.26 67.2041Z" fill="#1F2432"/>
<path d="M11.5566 58.9492H7.96094L7.27734 61H5.09668L8.80176 51.0469H10.7021L14.4277 61H12.2471L11.5566 58.9492ZM8.51465 57.2881H11.0029L9.75195 53.5625L8.51465 57.2881ZM21.5576 57.3701C21.5576 58.5094 21.2979 59.4232 20.7783 60.1113C20.2633 60.7949 19.5661 61.1367 18.6865 61.1367C17.9391 61.1367 17.3353 60.877 16.875 60.3574V63.8438H14.8994V53.6035H16.7314L16.7998 54.3281C17.2783 53.7539 17.9027 53.4668 18.6729 53.4668C19.5843 53.4668 20.293 53.804 20.7988 54.4785C21.3047 55.153 21.5576 56.0827 21.5576 57.2676V57.3701ZM19.582 57.2266C19.582 56.5384 19.459 56.0075 19.2129 55.6338C18.9714 55.2601 18.6182 55.0732 18.1533 55.0732C17.5335 55.0732 17.1074 55.3102 16.875 55.7842V58.8125C17.1165 59.3001 17.5472 59.5439 18.167 59.5439C19.1104 59.5439 19.582 58.7715 19.582 57.2266ZM27.0742 61C26.9831 60.8223 26.917 60.6012 26.876 60.3369C26.3975 60.8701 25.7754 61.1367 25.0098 61.1367C24.2852 61.1367 23.6836 60.9271 23.2051 60.5078C22.7311 60.0885 22.4941 59.5599 22.4941 58.9219C22.4941 58.138 22.7835 57.5365 23.3623 57.1172C23.9456 56.6979 24.7865 56.486 25.8848 56.4814H26.7939V56.0576C26.7939 55.7158 26.7051 55.4424 26.5273 55.2373C26.3542 55.0322 26.0785 54.9297 25.7002 54.9297C25.3675 54.9297 25.1055 55.0094 24.9141 55.1689C24.7272 55.3285 24.6338 55.5472 24.6338 55.8252H22.6582C22.6582 55.3968 22.7904 55.0003 23.0547 54.6357C23.319 54.2712 23.6927 53.9863 24.1758 53.7812C24.6589 53.5716 25.2012 53.4668 25.8027 53.4668C26.7142 53.4668 27.4365 53.6969 27.9697 54.1572C28.5075 54.613 28.7764 55.2555 28.7764 56.085V59.291C28.7809 59.9928 28.8789 60.5238 29.0703 60.8838V61H27.0742ZM25.4404 59.626C25.7321 59.626 26.001 59.5622 26.2471 59.4346C26.4932 59.3024 26.6755 59.127 26.7939 58.9082V57.6367H26.0557C25.0667 57.6367 24.5404 57.9785 24.4766 58.6621L24.4697 58.7783C24.4697 59.0244 24.5563 59.2272 24.7295 59.3867C24.9027 59.5462 25.1396 59.626 25.4404 59.626ZM34.4502 55.4561C34.1813 55.4196 33.9443 55.4014 33.7393 55.4014C32.9919 55.4014 32.502 55.6543 32.2695 56.1602V61H30.2939V53.6035H32.1602L32.2148 54.4854C32.6113 53.8063 33.1605 53.4668 33.8623 53.4668C34.0811 53.4668 34.2861 53.4964 34.4775 53.5557L34.4502 55.4561ZM38.1143 51.7852V53.6035H39.3789V55.0527H38.1143V58.7441C38.1143 59.0176 38.1667 59.2135 38.2715 59.332C38.3763 59.4505 38.5768 59.5098 38.873 59.5098C39.0918 59.5098 39.2855 59.4938 39.4541 59.4619V60.959C39.0667 61.0775 38.668 61.1367 38.2578 61.1367C36.8724 61.1367 36.166 60.4372 36.1387 59.0381V55.0527H35.0586V53.6035H36.1387V51.7852H38.1143ZM42.332 53.6035L42.3936 54.4307C42.9176 53.7881 43.6263 53.4668 44.5195 53.4668C45.472 53.4668 46.126 53.8428 46.4814 54.5947C47.001 53.8428 47.7415 53.4668 48.7031 53.4668C49.5052 53.4668 50.1022 53.7015 50.4941 54.1709C50.8861 54.6357 51.082 55.3376 51.082 56.2764V61H49.0996V56.2832C49.0996 55.8639 49.0176 55.5586 48.8535 55.3672C48.6895 55.1712 48.4001 55.0732 47.9854 55.0732C47.3929 55.0732 46.9827 55.3558 46.7549 55.9209L46.7617 61H44.7861V56.29C44.7861 55.8617 44.7018 55.5518 44.5332 55.3604C44.3646 55.1689 44.0775 55.0732 43.6719 55.0732C43.1113 55.0732 42.7057 55.3057 42.4551 55.7705V61H40.4795V53.6035H42.332ZM56.0107 61.1367C54.9261 61.1367 54.042 60.804 53.3584 60.1387C52.6794 59.4733 52.3398 58.5869 52.3398 57.4795V57.2881C52.3398 56.5452 52.4834 55.8822 52.7705 55.2988C53.0576 54.7109 53.4632 54.2598 53.9873 53.9453C54.516 53.6263 55.1175 53.4668 55.792 53.4668C56.8037 53.4668 57.599 53.7858 58.1777 54.4238C58.7611 55.0618 59.0527 55.9665 59.0527 57.1377V57.9443H54.3428C54.4066 58.4274 54.598 58.8148 54.917 59.1064C55.2406 59.3981 55.6484 59.5439 56.1406 59.5439C56.9017 59.5439 57.4964 59.2682 57.9248 58.7168L58.8955 59.8037C58.5993 60.223 58.1982 60.5511 57.6924 60.7881C57.1865 61.0205 56.626 61.1367 56.0107 61.1367ZM55.7852 55.0664C55.3932 55.0664 55.0742 55.1986 54.8281 55.4629C54.5866 55.7272 54.4316 56.1055 54.3633 56.5977H57.1113V56.4404C57.1022 56.0029 56.9837 55.6657 56.7559 55.4287C56.528 55.1872 56.2044 55.0664 55.7852 55.0664ZM61.999 53.6035L62.0605 54.458C62.5892 53.7972 63.2979 53.4668 64.1865 53.4668C64.9704 53.4668 65.5537 53.6969 65.9365 54.1572C66.3193 54.6175 66.5153 55.3057 66.5244 56.2217V61H64.5488V56.2695C64.5488 55.8503 64.4577 55.5472 64.2754 55.3604C64.0931 55.1689 63.79 55.0732 63.3662 55.0732C62.8102 55.0732 62.3932 55.3102 62.1152 55.7842V61H60.1396V53.6035H61.999ZM70.3936 51.7852V53.6035H71.6582V55.0527H70.3936V58.7441C70.3936 59.0176 70.446 59.2135 70.5508 59.332C70.6556 59.4505 70.8561 59.5098 71.1523 59.5098C71.3711 59.5098 71.5648 59.4938 71.7334 59.4619V60.959C71.346 61.0775 70.9473 61.1367 70.5371 61.1367C69.1517 61.1367 68.4453 60.4372 68.418 59.0381V55.0527H67.3379V53.6035H68.418V51.7852H70.3936ZM45.5859 75.0078L44.5195 76.1562V79H42.4688V69.0469H44.5195V73.5586L45.4219 72.3213L47.958 69.0469H50.4805L46.9463 73.4697L50.583 79H48.1426L45.5859 75.0078ZM54.4521 79.1367C53.3675 79.1367 52.4834 78.804 51.7998 78.1387C51.1208 77.4733 50.7812 76.5869 50.7812 75.4795V75.2881C50.7812 74.5452 50.9248 73.8822 51.2119 73.2988C51.499 72.7109 51.9046 72.2598 52.4287 71.9453C52.9574 71.6263 53.5589 71.4668 54.2334 71.4668C55.2451 71.4668 56.0404 71.7858 56.6191 72.4238C57.2025 73.0618 57.4941 73.9665 57.4941 75.1377V75.9443H52.7842C52.848 76.4274 53.0394 76.8148 53.3584 77.1064C53.682 77.3981 54.0898 77.5439 54.582 77.5439C55.3431 77.5439 55.9378 77.2682 56.3662 76.7168L57.3369 77.8037C57.0407 78.223 56.6396 78.5511 56.1338 78.7881C55.6279 79.0205 55.0674 79.1367 54.4521 79.1367ZM54.2266 73.0664C53.8346 73.0664 53.5156 73.1986 53.2695 73.4629C53.028 73.7272 52.873 74.1055 52.8047 74.5977H55.5527V74.4404C55.5436 74.0029 55.4251 73.6657 55.1973 73.4287C54.9694 73.1872 54.6458 73.0664 54.2266 73.0664ZM61.2881 76.2041L62.6553 71.6035H64.7744L61.8008 80.1484L61.6367 80.5381C61.1947 81.5042 60.4655 81.9873 59.4492 81.9873C59.1621 81.9873 58.8704 81.944 58.5742 81.8574V80.3604L58.875 80.3672C59.2487 80.3672 59.5267 80.3102 59.709 80.1963C59.8958 80.0824 60.0417 79.8932 60.1465 79.6289L60.3789 79.0205L57.7881 71.6035H59.9141L61.2881 76.2041ZM69.5596 76.9561C69.5596 76.7145 69.4388 76.5254 69.1973 76.3887C68.9603 76.2474 68.5775 76.1221 68.0488 76.0127C66.2897 75.6436 65.4102 74.8962 65.4102 73.7705C65.4102 73.1143 65.6813 72.5674 66.2236 72.1299C66.7705 71.6878 67.4837 71.4668 68.3633 71.4668C69.3021 71.4668 70.0518 71.6878 70.6123 72.1299C71.1774 72.5719 71.46 73.1462 71.46 73.8525H69.4844C69.4844 73.57 69.3932 73.3376 69.2109 73.1553C69.0286 72.9684 68.7438 72.875 68.3564 72.875C68.0238 72.875 67.7663 72.9502 67.584 73.1006C67.4017 73.251 67.3105 73.4424 67.3105 73.6748C67.3105 73.8936 67.4131 74.0713 67.6182 74.208C67.8278 74.3402 68.1787 74.4564 68.6709 74.5566C69.1631 74.6523 69.5778 74.7617 69.915 74.8848C70.9587 75.2676 71.4805 75.9307 71.4805 76.874C71.4805 77.5485 71.1911 78.0954 70.6123 78.5146C70.0335 78.9294 69.2861 79.1367 68.3701 79.1367C67.7503 79.1367 67.1989 79.0273 66.7158 78.8086C66.2373 78.5853 65.8613 78.2822 65.5879 77.8994C65.3145 77.512 65.1777 77.0951 65.1777 76.6484H67.0508C67.069 76.9993 67.1989 77.2682 67.4404 77.4551C67.682 77.6419 68.0055 77.7354 68.4111 77.7354C68.7894 77.7354 69.0742 77.6647 69.2656 77.5234C69.4616 77.3776 69.5596 77.1885 69.5596 76.9561Z" fill="#1F2432"/>
<path d="M208 115L218 125L228 115" stroke="#00DCE6" stroke-width="2"/>
<path d="M102 125L112 115L122 125" stroke="#00DCE6" stroke-width="2"/>
</svg>
