<svg width="330" height="145" viewBox="0 0 330 145" fill="none" xmlns="http://www.w3.org/2000/svg">
<path d="M164.4 145L164.4 125L166.4 125L166.4 145L164.4 145Z" fill="#00DCE6"/>
<path d="M111 1.09278e-07L111 50L113 50L113 -1.09278e-07L111 1.09278e-07Z" fill="#00DCE6"/>
<path d="M217 1.09278e-07L217 50L219 50L219 -1.09278e-07L217 1.09278e-07Z" fill="#00DCE6"/>
<path d="M218 110L218 125C176.604 125 153.396 125 112 125L112 110" stroke="#00DCE6" stroke-width="2"/>
<path d="M112 110C128.569 110 142 96.5685 142 80C142 63.4315 128.569 50 112 50C95.4315 50 82 63.4315 82 80C82 96.5685 95.4315 110 112 110Z" fill="#00DCE6" fill-opacity="0.2"/>
<path d="M112 102C124.15 102 134 92.1503 134 80C134 67.8497 124.15 58 112 58C99.8497 58 90 67.8497 90 80C90 92.1503 99.8497 102 112 102Z" fill="#00DCE6"/>
<path d="M118.264 74.0251C117.361 72.219 114.953 70.8644 112.244 70.7139C108.632 70.7139 105.621 72.3695 105.621 75.2292C105.621 78.0889 108.03 79.4435 112.394 81.0991C116.308 82.4537 118.415 83.9588 118.264 86.8185C118.264 89.6783 115.254 91.1834 111.642 91.1834C108.782 91.1834 106.223 89.5277 105.471 87.4206" stroke="white"/>
<path d="M111.943 96V91.1836" stroke="white"/>
<path d="M111.943 70.7147V64.8447" stroke="white"/>
<path d="M218 110C234.569 110 248 96.5685 248 80C248 63.4315 234.569 50 218 50C201.431 50 188 63.4315 188 80C188 96.5685 201.431 110 218 110Z" fill="#00DCE6" fill-opacity="0.2"/>
<path d="M218 102C230.15 102 240 92.1503 240 80C240 67.8497 230.15 58 218 58C205.85 58 196 67.8497 196 80C196 92.1503 205.85 102 218 102Z" fill="#00DCE6"/>
<path d="M216.137 78.2311C213.162 77.3176 211 74.549 211 71.2752C211 67.2572 214.257 64 218.275 64C222.293 64 225.55 67.2572 225.55 71.2752C225.55 74.549 223.388 77.3176 220.414 78.2311" stroke="white"/>
<path d="M218.5 72C219.881 72 221 70.8807 221 69.5C221 68.1193 219.881 67 218.5 67C217.119 67 216 68.1193 216 69.5C216 70.8807 217.119 72 218.5 72Z" stroke="white"/>
<path d="M220.388 77.7695V81.0003L224 83V85M216.163 77.7695V81.5H212V85M220.388 83.0003V85.5003L224 88M218.5 87.5L220.388 89L219 91L221 92.5L218.5 96L216.163 94.0003V88.8685V84.7366" stroke="white"/>
<circle cx="211.5" cy="86.5" r="1.5" stroke="white"/>
<circle cx="225.5" cy="88.5" r="1.5" stroke="white"/>
<path d="M32.8018 75.0469L35.3584 82.2656L37.9014 75.0469H40.5947V85H38.5371V82.2793L38.7422 77.583L36.0557 85H34.6475L31.9678 77.5898L32.1729 82.2793V85H30.1221V75.0469H32.8018ZM41.9482 81.2334C41.9482 80.4997 42.0895 79.8457 42.3721 79.2715C42.6546 78.6973 43.0602 78.2529 43.5889 77.9385C44.1221 77.624 44.7396 77.4668 45.4414 77.4668C46.4395 77.4668 47.2529 77.7721 47.8818 78.3828C48.5153 78.9935 48.8685 79.8229 48.9414 80.8711L48.9551 81.377C48.9551 82.5117 48.6383 83.4232 48.0049 84.1113C47.3714 84.7949 46.5215 85.1367 45.4551 85.1367C44.3887 85.1367 43.5365 84.7949 42.8984 84.1113C42.265 83.4277 41.9482 82.498 41.9482 81.3223V81.2334ZM43.9238 81.377C43.9238 82.0788 44.056 82.6165 44.3203 82.9902C44.5846 83.3594 44.9629 83.5439 45.4551 83.5439C45.9336 83.5439 46.3073 83.3617 46.5762 82.9971C46.8451 82.6279 46.9795 82.04 46.9795 81.2334C46.9795 80.5452 46.8451 80.012 46.5762 79.6338C46.3073 79.2555 45.929 79.0664 45.4414 79.0664C44.9583 79.0664 44.5846 79.2555 44.3203 79.6338C44.056 80.0075 43.9238 80.5885 43.9238 81.377ZM51.9902 77.6035L52.0518 78.458C52.5804 77.7972 53.2891 77.4668 54.1777 77.4668C54.9616 77.4668 55.5449 77.6969 55.9277 78.1572C56.3105 78.6175 56.5065 79.3057 56.5156 80.2217V85H54.54V80.2695C54.54 79.8503 54.4489 79.5472 54.2666 79.3604C54.0843 79.1689 53.7812 79.0732 53.3574 79.0732C52.8014 79.0732 52.3844 79.3102 52.1064 79.7842V85H50.1309V77.6035H51.9902ZM61.4238 85.1367C60.3392 85.1367 59.4551 84.804 58.7715 84.1387C58.0924 83.4733 57.7529 82.5869 57.7529 81.4795V81.2881C57.7529 80.5452 57.8965 79.8822 58.1836 79.2988C58.4707 78.7109 58.8763 78.2598 59.4004 77.9453C59.929 77.6263 60.5306 77.4668 61.2051 77.4668C62.2168 77.4668 63.012 77.7858 63.5908 78.4238C64.1742 79.0618 64.4658 79.9665 64.4658 81.1377V81.9443H59.7559C59.8197 82.4274 60.0111 82.8148 60.3301 83.1064C60.6536 83.3981 61.0615 83.5439 61.5537 83.5439C62.3148 83.5439 62.9095 83.2682 63.3379 82.7168L64.3086 83.8037C64.0124 84.223 63.6113 84.5511 63.1055 84.7881C62.5996 85.0205 62.0391 85.1367 61.4238 85.1367ZM61.1982 79.0664C60.8063 79.0664 60.4873 79.1986 60.2412 79.4629C59.9997 79.7272 59.8447 80.1055 59.7764 80.5977H62.5244V80.4404C62.5153 80.0029 62.3968 79.6657 62.1689 79.4287C61.9411 79.1872 61.6175 79.0664 61.1982 79.0664ZM68.2598 82.2041L69.627 77.6035H71.7461L68.7725 86.1484L68.6084 86.5381C68.1663 87.5042 67.4372 87.9873 66.4209 87.9873C66.1338 87.9873 65.8421 87.944 65.5459 87.8574V86.3604L65.8467 86.3672C66.2204 86.3672 66.4984 86.3102 66.6807 86.1963C66.8675 86.0824 67.0133 85.8932 67.1182 85.6289L67.3506 85.0205L64.7598 77.6035H66.8857L68.2598 82.2041Z" fill="#1F2432"/>
<path d="M264.508 74.9492H260.912L260.229 77H258.048L261.753 67.0469H263.653L267.379 77H265.198L264.508 74.9492ZM261.466 73.2881H263.954L262.703 69.5625L261.466 73.2881ZM274.509 73.3701C274.509 74.5094 274.249 75.4232 273.729 76.1113C273.215 76.7949 272.517 77.1367 271.638 77.1367C270.89 77.1367 270.286 76.877 269.826 76.3574V79.8438H267.851V69.6035H269.683L269.751 70.3281C270.229 69.7539 270.854 69.4668 271.624 69.4668C272.535 69.4668 273.244 69.804 273.75 70.4785C274.256 71.153 274.509 72.0827 274.509 73.2676V73.3701ZM272.533 73.2266C272.533 72.5384 272.41 72.0075 272.164 71.6338C271.923 71.2601 271.569 71.0732 271.104 71.0732C270.485 71.0732 270.059 71.3102 269.826 71.7842V74.8125C270.068 75.3001 270.498 75.5439 271.118 75.5439C272.062 75.5439 272.533 74.7715 272.533 73.2266ZM280.025 77C279.934 76.8223 279.868 76.6012 279.827 76.3369C279.349 76.8701 278.727 77.1367 277.961 77.1367C277.236 77.1367 276.635 76.9271 276.156 76.5078C275.682 76.0885 275.445 75.5599 275.445 74.9219C275.445 74.138 275.735 73.5365 276.313 73.1172C276.897 72.6979 277.738 72.486 278.836 72.4814H279.745V72.0576C279.745 71.7158 279.656 71.4424 279.479 71.2373C279.305 71.0322 279.03 70.9297 278.651 70.9297C278.319 70.9297 278.057 71.0094 277.865 71.1689C277.678 71.3285 277.585 71.5472 277.585 71.8252H275.609C275.609 71.3968 275.742 71.0003 276.006 70.6357C276.27 70.2712 276.644 69.9863 277.127 69.7812C277.61 69.5716 278.152 69.4668 278.754 69.4668C279.665 69.4668 280.388 69.6969 280.921 70.1572C281.459 70.613 281.728 71.2555 281.728 72.085V75.291C281.732 75.9928 281.83 76.5238 282.021 76.8838V77H280.025ZM278.392 75.626C278.683 75.626 278.952 75.5622 279.198 75.4346C279.444 75.3024 279.627 75.127 279.745 74.9082V73.6367H279.007C278.018 73.6367 277.492 73.9785 277.428 74.6621L277.421 74.7783C277.421 75.0244 277.507 75.2272 277.681 75.3867C277.854 75.5462 278.091 75.626 278.392 75.626ZM287.401 71.4561C287.132 71.4196 286.896 71.4014 286.69 71.4014C285.943 71.4014 285.453 71.6543 285.221 72.1602V77H283.245V69.6035H285.111L285.166 70.4854C285.562 69.8063 286.112 69.4668 286.813 69.4668C287.032 69.4668 287.237 69.4964 287.429 69.5557L287.401 71.4561ZM291.065 67.7852V69.6035H292.33V71.0527H291.065V74.7441C291.065 75.0176 291.118 75.2135 291.223 75.332C291.327 75.4505 291.528 75.5098 291.824 75.5098C292.043 75.5098 292.237 75.4938 292.405 75.4619V76.959C292.018 77.0775 291.619 77.1367 291.209 77.1367C289.824 77.1367 289.117 76.4372 289.09 75.0381V71.0527H288.01V69.6035H289.09V67.7852H291.065ZM295.283 69.6035L295.345 70.4307C295.869 69.7881 296.577 69.4668 297.471 69.4668C298.423 69.4668 299.077 69.8428 299.433 70.5947C299.952 69.8428 300.693 69.4668 301.654 69.4668C302.456 69.4668 303.053 69.7015 303.445 70.1709C303.837 70.6357 304.033 71.3376 304.033 72.2764V77H302.051V72.2832C302.051 71.8639 301.969 71.5586 301.805 71.3672C301.641 71.1712 301.351 71.0732 300.937 71.0732C300.344 71.0732 299.934 71.3558 299.706 71.9209L299.713 77H297.737V72.29C297.737 71.8617 297.653 71.5518 297.484 71.3604C297.316 71.1689 297.029 71.0732 296.623 71.0732C296.062 71.0732 295.657 71.3057 295.406 71.7705V77H293.431V69.6035H295.283ZM308.962 77.1367C307.877 77.1367 306.993 76.804 306.31 76.1387C305.631 75.4733 305.291 74.5869 305.291 73.4795V73.2881C305.291 72.5452 305.435 71.8822 305.722 71.2988C306.009 70.7109 306.414 70.2598 306.938 69.9453C307.467 69.6263 308.069 69.4668 308.743 69.4668C309.755 69.4668 310.55 69.7858 311.129 70.4238C311.712 71.0618 312.004 71.9665 312.004 73.1377V73.9443H307.294C307.358 74.4274 307.549 74.8148 307.868 75.1064C308.192 75.3981 308.6 75.5439 309.092 75.5439C309.853 75.5439 310.448 75.2682 310.876 74.7168L311.847 75.8037C311.55 76.223 311.149 76.5511 310.644 76.7881C310.138 77.0205 309.577 77.1367 308.962 77.1367ZM308.736 71.0664C308.344 71.0664 308.025 71.1986 307.779 71.4629C307.538 71.7272 307.383 72.1055 307.314 72.5977H310.062V72.4404C310.053 72.0029 309.935 71.6657 309.707 71.4287C309.479 71.1872 309.156 71.0664 308.736 71.0664ZM314.95 69.6035L315.012 70.458C315.54 69.7972 316.249 69.4668 317.138 69.4668C317.922 69.4668 318.505 69.6969 318.888 70.1572C319.271 70.6175 319.466 71.3057 319.476 72.2217V77H317.5V72.2695C317.5 71.8503 317.409 71.5472 317.227 71.3604C317.044 71.1689 316.741 71.0732 316.317 71.0732C315.761 71.0732 315.344 71.3102 315.066 71.7842V77H313.091V69.6035H314.95ZM323.345 67.7852V69.6035H324.609V71.0527H323.345V74.7441C323.345 75.0176 323.397 75.2135 323.502 75.332C323.607 75.4505 323.807 75.5098 324.104 75.5098C324.322 75.5098 324.516 75.4938 324.685 75.4619V76.959C324.297 77.0775 323.898 77.1367 323.488 77.1367C322.103 77.1367 321.396 76.4372 321.369 75.0381V71.0527H320.289V69.6035H321.369V67.7852H323.345ZM262.006 91.0078L260.939 92.1562V95H258.889V85.0469H260.939V89.5586L261.842 88.3213L264.378 85.0469H266.9L263.366 89.4697L267.003 95H264.562L262.006 91.0078ZM270.872 95.1367C269.787 95.1367 268.903 94.804 268.22 94.1387C267.541 93.4733 267.201 92.5869 267.201 91.4795V91.2881C267.201 90.5452 267.345 89.8822 267.632 89.2988C267.919 88.7109 268.325 88.2598 268.849 87.9453C269.377 87.6263 269.979 87.4668 270.653 87.4668C271.665 87.4668 272.46 87.7858 273.039 88.4238C273.622 89.0618 273.914 89.9665 273.914 91.1377V91.9443H269.204C269.268 92.4274 269.459 92.8148 269.778 93.1064C270.102 93.3981 270.51 93.5439 271.002 93.5439C271.763 93.5439 272.358 93.2682 272.786 92.7168L273.757 93.8037C273.461 94.223 273.06 94.5511 272.554 94.7881C272.048 95.0205 271.487 95.1367 270.872 95.1367ZM270.646 89.0664C270.255 89.0664 269.936 89.1986 269.689 89.4629C269.448 89.7272 269.293 90.1055 269.225 90.5977H271.973V90.4404C271.964 90.0029 271.845 89.6657 271.617 89.4287C271.389 89.1872 271.066 89.0664 270.646 89.0664ZM277.708 92.2041L279.075 87.6035H281.194L278.221 96.1484L278.057 96.5381C277.615 97.5042 276.885 97.9873 275.869 97.9873C275.582 97.9873 275.29 97.944 274.994 97.8574V96.3604L275.295 96.3672C275.669 96.3672 275.947 96.3102 276.129 96.1963C276.316 96.0824 276.462 95.8932 276.566 95.6289L276.799 95.0205L274.208 87.6035H276.334L277.708 92.2041ZM285.979 92.9561C285.979 92.7145 285.859 92.5254 285.617 92.3887C285.38 92.2474 284.997 92.1221 284.469 92.0127C282.71 91.6436 281.83 90.8962 281.83 89.7705C281.83 89.1143 282.101 88.5674 282.644 88.1299C283.19 87.6878 283.904 87.4668 284.783 87.4668C285.722 87.4668 286.472 87.6878 287.032 88.1299C287.597 88.5719 287.88 89.1462 287.88 89.8525H285.904C285.904 89.57 285.813 89.3376 285.631 89.1553C285.449 88.9684 285.164 88.875 284.776 88.875C284.444 88.875 284.186 88.9502 284.004 89.1006C283.822 89.251 283.73 89.4424 283.73 89.6748C283.73 89.8936 283.833 90.0713 284.038 90.208C284.248 90.3402 284.599 90.4564 285.091 90.5566C285.583 90.6523 285.998 90.7617 286.335 90.8848C287.379 91.2676 287.9 91.9307 287.9 92.874C287.9 93.5485 287.611 94.0954 287.032 94.5146C286.453 94.9294 285.706 95.1367 284.79 95.1367C284.17 95.1367 283.619 95.0273 283.136 94.8086C282.657 94.5853 282.281 94.2822 282.008 93.8994C281.734 93.512 281.598 93.0951 281.598 92.6484H283.471C283.489 92.9993 283.619 93.2682 283.86 93.4551C284.102 93.6419 284.425 93.7354 284.831 93.7354C285.209 93.7354 285.494 93.6647 285.686 93.5234C285.882 93.3776 285.979 93.1885 285.979 92.9561Z" fill="#1F2432"/>
<path d="M228 30L218 20L208 30" stroke="#00DCE6" stroke-width="2"/>
<path d="M102 20L112 30L122 20" stroke="#00DCE6" stroke-width="2"/>
</svg>
