<svg xmlns="http://www.w3.org/2000/svg" xmlns:xlink="http://www.w3.org/1999/xlink" width="332" height="400" fill="none"><path d="M165.4 0v20h2V0h-2z" fill="#00DCE6"/><path d="M1 20h330v379H1z" stroke="#00DCE6" stroke-miterlimit="16"/><path d="M1 280h330v119H1z" fill="#00DCE6" fill-opacity=".1"/><g fill="#1F2432"><path d="M35.475 335.927h4.717V337h-6.036v-9.953h1.32v8.88zM46.057 337c-.073-.146-.132-.406-.178-.78-.588.6-1.3.916-2.105.916-.73 0-1.328-.205-1.798-.616s-.697-.938-.697-1.572c0-.77.292-1.367.875-1.8s1.413-.642 2.475-.642h1.23v-.58c0-.442-.132-.793-.397-1.053s-.654-.397-1.17-.397c-.45 0-.83.114-1.135.342s-.458.504-.458.827h-1.27c0-.37.13-.724.4-1.066a2.78 2.78 0 0 1 1.066-.82c.446-.2.946-.3 1.483-.3.852 0 1.52.214 2.003.642s.734 1 .752 1.757v3.405c0 .68.087 1.22.26 1.62v.1h-1.326zm-2.1-.964a2.22 2.22 0 0 0 1.128-.307c.355-.205.613-.472.773-.8v-1.518h-1c-1.55 0-2.324.454-2.324 1.36 0 .397.132.707.397.93s.604.335 1.018.335zm11.696-.78l1.422-5.653h1.265L56.188 337h-1.025l-1.798-5.605-1.75 5.605H50.6l-2.147-7.396H49.7l1.456 5.537 1.723-5.537h1.02l1.757 5.653zm6.398-.1l1.723-5.543h1.354l-2.974 8.538c-.46 1.23-1.192 1.845-2.194 1.845l-.24-.02-.472-.1v-1.025l.342.027c.428 0 .76-.087.998-.26s.44-.5.595-.95l.28-.752-2.64-7.314h1.38l1.846 5.543zm7.185 2c-1.003 0-1.818-.328-2.447-.985s-.943-1.542-.943-2.645v-.233c0-.733.14-1.387.417-1.962s.674-1.03 1.176-1.353a2.99 2.99 0 0 1 1.64-.492c.962 0 1.7.317 2.242.95s.8 1.54.8 2.72v.526h-5c.018.73.23 1.32.636 1.77.4.446.93.67 1.56.67.447 0 .825-.1 1.135-.273a2.88 2.88 0 0 0 .814-.725l.772.602c-.62.952-1.55 1.43-2.8 1.43zm-.157-6.63c-.5 0-.94.187-1.285.56s-.56.9-.643 1.56h3.705v-.096c-.036-.642-.2-1.14-.52-1.5s-.73-.533-1.258-.533zm8.087.232a3.78 3.78 0 0 0-.622-.048c-.83 0-1.392.354-1.7 1.06V337H73.6v-7.396h1.23l.02.854c.415-.66 1.003-1 1.764-1 .246 0 .433.032.56.095v1.176zm5.476 4.3c0-.342-.13-.606-.4-.793s-.704-.355-1.347-.492-1.146-.3-1.524-.492-.652-.42-.834-.684-.267-.58-.267-.943c0-.606.255-1.12.766-1.538s1.17-.63 1.97-.63c.84 0 1.518.216 2.037.65s.786.987.786 1.66h-1.27c0-.346-.148-.645-.444-.895s-.66-.376-1.107-.376c-.46 0-.82.1-1.08.3s-.4.462-.4.786c0 .305.12.535.362.7s.677.303 1.306.445 1.146.3 1.538.505.68.433.868.7.287.6.287 1.005a1.9 1.9 0 0 1-.793 1.593c-.53.396-1.215.595-2.058.595-.592 0-1.117-.105-1.572-.315a2.59 2.59 0 0 1-1.073-.875c-.26-.375-.383-.786-.383-1.223h1.265a1.31 1.31 0 0 0 .506 1c.306.24.738.37 1.258.37.48 0 .86-.095 1.148-.287s.438-.455.438-.78zm-44.837 17.936h-2.338V357h-1.32v-9.953h3.295c1.12 0 1.982.255 2.584.765s.9 1.254.9 2.23c0 .62-.17 1.16-.506 1.62s-.798.804-1.395 1.032l2.338 4.225v.08h-1.408l-2.16-4.026zm-2.338-1.074h2.017c.652 0 1.17-.168 1.552-.505s.58-.8.58-1.354c0-.615-.185-1.087-.554-1.415s-.893-.494-1.586-.5h-2v3.773zm10.186 5.237c-1.003 0-1.818-.328-2.447-.985s-.943-1.542-.943-2.645v-.233c0-.733.14-1.387.417-1.962s.675-1.03 1.176-1.353 1.053-.492 1.64-.492c.962 0 1.7.317 2.242.95s.8 1.54.8 2.72v.526h-5c.018.73.23 1.32.636 1.77.4.446.93.67 1.56.67.447 0 .825-.1 1.135-.273s.58-.424.813-.725l.773.602c-.62.952-1.55 1.43-2.8 1.43zm-.157-6.63c-.5 0-.94.187-1.285.56s-.56.9-.643 1.56h3.705v-.096c-.036-.642-.2-1.14-.52-1.5s-.73-.533-1.258-.533zM54.574 357c-.073-.146-.132-.406-.178-.78-.588.6-1.3.916-2.106.916-.73 0-1.328-.205-1.798-.616s-.697-.938-.697-1.572c0-.77.292-1.367.875-1.8s1.413-.642 2.475-.642h1.23v-.58c0-.442-.132-.793-.396-1.053s-.654-.397-1.17-.397c-.45 0-.83.114-1.135.342s-.458.504-.458.827h-1.27c0-.37.13-.724.4-1.066a2.7 2.7 0 0 1 1.066-.82c.45-.2.946-.3 1.483-.3.852 0 1.52.214 2.003.642s.734 1 .752 1.757v3.405c0 .68.087 1.22.26 1.62v.1h-1.326zm-2.1-.964c.397 0 .772-.102 1.128-.307s.613-.472.773-.8v-1.518h-1c-1.55 0-2.324.454-2.324 1.36 0 .397.132.707.397.93s.604.335 1.02.335zm6.522.964H57.73v-10.5h1.265V357zm8.572.137c-1.003 0-1.818-.328-2.447-.985s-.943-1.542-.943-2.645v-.233c0-.733.14-1.387.417-1.962a3.29 3.29 0 0 1 1.176-1.353 2.96 2.96 0 0 1 1.64-.492c.962 0 1.7.317 2.242.95s.8 1.54.8 2.72v.526h-5c.018.73.23 1.32.636 1.77.4.446.93.67 1.56.67.447 0 .825-.1 1.135-.273s.58-.424.813-.725l.773.602c-.62.952-1.55 1.43-2.8 1.43zm-.157-6.63c-.5 0-.94.187-1.285.56s-.56.9-.643 1.56H69.2v-.096c-.036-.642-.2-1.14-.52-1.5s-.73-.533-1.258-.533zm8.818 4.532c0-.342-.13-.606-.4-.793s-.704-.355-1.347-.492-1.146-.3-1.524-.492-.652-.42-.834-.684a1.65 1.65 0 0 1-.267-.943c0-.606.255-1.12.766-1.538s1.17-.63 1.97-.63c.84 0 1.518.216 2.037.65s.786.987.786 1.66h-1.272c0-.346-.148-.645-.444-.895s-.66-.376-1.107-.376c-.46 0-.82.1-1.08.3s-.4.462-.4.786c0 .305.12.535.362.7s.677.303 1.306.445 1.146.3 1.538.505.68.433.868.7.287.6.287 1.005a1.9 1.9 0 0 1-.793 1.593c-.53.396-1.215.595-2.058.595-.592 0-1.116-.105-1.572-.315s-.814-.5-1.073-.875a2.11 2.11 0 0 1-.383-1.223h1.265a1.31 1.31 0 0 0 .506 1c.306.24.738.37 1.258.37.48 0 .86-.095 1.15-.287s.438-.455.438-.78zm4.628-7.226v1.792h1.38v.977h-1.38v4.587c0 .296.06.52.185.67s.333.22.63.22c.146 0 .346-.028.602-.082V357c-.333.1-.656.137-.97.137-.565 0-1-.17-1.278-.513s-.43-.827-.43-1.456v-4.587H78.25v-.977h1.347v-1.792h1.265zM88.3 357c-.073-.146-.132-.406-.178-.78-.588.6-1.3.916-2.105.916-.73 0-1.328-.205-1.798-.616s-.697-.938-.697-1.572c0-.77.292-1.367.875-1.8s1.413-.642 2.475-.642h1.23v-.58c0-.442-.132-.793-.397-1.053s-.654-.397-1.17-.397c-.45 0-.83.114-1.135.342s-.458.504-.458.827h-1.27c0-.37.13-.724.4-1.066a2.78 2.78 0 0 1 1.066-.82c.446-.2.946-.3 1.483-.3.852 0 1.52.214 2.003.642s.734 1 .752 1.757v3.405c0 .68.087 1.22.26 1.62v.1H88.3zm-2.1-.964a2.22 2.22 0 0 0 1.128-.307 1.86 1.86 0 0 0 .772-.8v-1.518h-1c-1.55 0-2.324.454-2.324 1.36 0 .397.132.707.396.93s.604.335 1.02.335zm6.863-8.224v1.792h1.38v.977h-1.38v4.587c0 .296.06.52.185.67s.333.22.63.22c.146 0 .346-.028.602-.082V357c-.333.1-.656.137-.97.137-.565 0-1-.17-1.278-.513s-.43-.827-.43-1.456v-4.587h-1.347v-.977h1.347v-1.792h1.265zm5.934 9.325c-1.003 0-1.818-.328-2.447-.985s-.943-1.542-.943-2.645v-.233c0-.733.14-1.387.417-1.962s.674-1.03 1.176-1.353a2.99 2.99 0 0 1 1.64-.492c.962 0 1.7.317 2.242.95s.8 1.54.8 2.72v.526h-5c.018.73.23 1.32.636 1.77.4.446.93.67 1.56.67.447 0 .825-.1 1.134-.273s.58-.424.814-.725l.772.602c-.62.952-1.55 1.43-2.8 1.43zm-.157-6.63c-.5 0-.94.187-1.285.56s-.56.9-.643 1.56h3.705v-.096c-.036-.642-.2-1.14-.52-1.5s-.73-.533-1.258-.533zm14.246 2.878c0 1.13-.26 2.04-.78 2.727a2.49 2.49 0 0 1-2.092 1.026c-.934 0-1.656-.33-2.167-1l-.06.854h-1.163v-10.5h1.265v3.917c.5-.633 1.215-.95 2.112-.95s1.602.34 2.113 1.018.772 1.6.772 2.8v.1zm-1.264-.144c0-.86-.167-1.526-.5-1.996s-.8-.704-1.435-.704c-.834 0-1.433.387-1.798 1.162v3.2c.387.775 1 1.162 1.812 1.162a1.64 1.64 0 0 0 1.415-.704c.337-.47.506-1.175.506-2.12zm6.44-2.502c-.2-.032-.4-.048-.622-.048-.83 0-1.392.354-1.7 1.06V357h-1.264v-7.396h1.23l.02.854c.414-.66 1.002-1 1.763-1 .247 0 .433.032.56.095v1.176zm.697 2.495c0-.724.142-1.376.424-1.955a3.18 3.18 0 0 1 1.2-1.34c.516-.315 1.1-.47 1.743-.47 1.007 0 1.82.348 2.44 1.046s.937 1.624.937 2.782v.1c0 .72-.14 1.367-.417 1.94s-.668 1.014-1.183 1.333c-.5.32-1.098.48-1.764.48-1.002 0-1.816-.35-2.44-1.046s-.93-1.62-.93-2.77v-.1zm1.272.15c0 .82.2 1.48.567 1.975a1.83 1.83 0 0 0 1.53.745 1.82 1.82 0 0 0 1.532-.75c.378-.506.567-1.213.567-2.12 0-.8-.194-1.467-.58-1.968a1.82 1.82 0 0 0-1.531-.759 1.81 1.81 0 0 0-1.51.745c-.382.497-.574 1.208-.574 2.133zm9.112.2l-.793.827v2.6h-1.265v-10.5h1.265v6.35l.677-.814 2.304-2.433h1.538l-2.878 3.1 3.213 4.307H131.9l-2.577-3.425zm7.964 3.562c-1.003 0-1.818-.328-2.447-.985s-.944-1.542-.944-2.645v-.233c0-.733.14-1.387.417-1.962s.675-1.03 1.176-1.353a2.96 2.96 0 0 1 1.641-.492c.96 0 1.7.317 2.242.95s.8 1.54.8 2.72v.526h-5c.018.73.23 1.32.636 1.77.4.446.93.67 1.558.67.447 0 .825-.1 1.135-.273s.58-.424.813-.725l.773.602c-.62.952-1.55 1.43-2.8 1.43zm-.157-6.63a1.68 1.68 0 0 0-1.285.56c-.347.37-.56.9-.643 1.56h3.705v-.096c-.036-.642-.2-1.14-.52-1.5s-.73-.533-1.257-.533zm8.087.232c-.192-.032-.4-.048-.622-.048-.83 0-1.393.354-1.7 1.06V357h-1.265v-7.396h1.23l.02.854c.415-.66 1.003-1 1.764-1 .246 0 .433.032.56.095v1.176zm5.475 4.3a.92.92 0 0 0-.389-.793c-.256-.2-.705-.355-1.347-.492s-1.146-.3-1.525-.492c-.373-.192-.65-.42-.834-.684-.177-.264-.266-.58-.266-.943 0-.606.255-1.12.765-1.538s1.172-.63 1.97-.63c.84 0 1.518.216 2.037.65s.786.987.786 1.66h-1.27c0-.346-.148-.645-.444-.895s-.66-.376-1.108-.376c-.46 0-.82.1-1.08.3s-.4.462-.4.786a.79.79 0 0 0 .363.7c.243.165.677.303 1.305.445.634.14 1.147.3 1.54.505s.68.433.868.7.287.6.287 1.005a1.9 1.9 0 0 1-.793 1.593c-.53.396-1.215.595-2.058.595-.592 0-1.116-.105-1.572-.315s-.814-.5-1.073-.875a2.11 2.11 0 0 1-.383-1.223h1.265a1.32 1.32 0 0 0 .505 1.011c.32.246.74.37 1.258.37.48 0 .862-.095 1.15-.287a.9.9 0 0 0 .437-.78zM41.805 377h-1.32l-5-7.67V377h-1.32v-9.953h1.32l5.024 7.704v-7.704h1.306V377zm1.798-3.767c0-.724.14-1.376.424-1.955s.684-1.025 1.2-1.34 1.1-.47 1.743-.47c1.007 0 1.82.348 2.44 1.046s.937 1.624.937 2.782v.1c0 .72-.14 1.367-.417 1.94s-.668 1.014-1.183 1.333-1.098.48-1.764.48c-1.003 0-1.816-.35-2.44-1.046s-.93-1.62-.93-2.77v-.1zm1.272.15c0 .82.2 1.48.567 1.975a1.83 1.83 0 0 0 1.53.745 1.82 1.82 0 0 0 1.53-.75c.378-.506.567-1.213.567-2.12 0-.8-.194-1.467-.58-1.968a1.82 1.82 0 0 0-1.531-.759 1.81 1.81 0 0 0-1.51.745c-.382.497-.574 1.208-.574 2.133zm8.764-5.572v1.792h1.38v.977h-1.38v4.587c0 .296.06.52.185.67s.333.22.63.22c.146 0 .346-.028.602-.082V377c-.333.1-.656.137-.97.137-.565 0-1-.17-1.278-.513s-.43-.827-.43-1.456v-4.587H51.03v-.977h1.347v-1.792h1.265zm7.43 9.19c-.073-.146-.132-.406-.178-.78-.588.6-1.3.916-2.105.916-.73 0-1.33-.205-1.798-.616s-.697-.938-.697-1.572c0-.77.292-1.367.875-1.8s1.413-.642 2.475-.642h1.23v-.58c0-.442-.132-.793-.397-1.053s-.654-.397-1.17-.397c-.45 0-.83.114-1.135.342s-.458.504-.458.827h-1.27c0-.37.13-.724.4-1.066a2.78 2.78 0 0 1 1.066-.82c.446-.2.946-.3 1.483-.3.852 0 1.52.214 2.003.642s.734 1 .752 1.757v3.405c0 .68.087 1.22.26 1.62v.1H61.08zm-2.1-.964c.396 0 .772-.102 1.128-.307s.613-.472.772-.8v-1.53h-1c-1.55 0-2.324.454-2.324 1.36 0 .397.132.707.397.93s.604.335 1.02.335zm8.723-5.298a3.78 3.78 0 0 0-.622-.048c-.83 0-1.392.354-1.7 1.06V377h-1.265v-7.396h1.23l.02.854c.415-.66 1.003-1 1.764-1 .246 0 .433.032.56.095v1.176zM70.235 377H68.97v-7.396h1.265V377zm-1.367-9.358c0-.205.06-.38.184-.52s.314-.212.56-.212.433.07.56.212a.75.75 0 0 1 .19.52.72.72 0 0 1-.191.512c-.128.137-.314.205-.56.205s-.433-.068-.56-.205-.184-.307-.184-.512zm6.467 9.495c-1.003 0-1.818-.328-2.447-.985s-.943-1.542-.943-2.645v-.233c0-.733.14-1.387.417-1.962a3.29 3.29 0 0 1 1.176-1.353 2.96 2.96 0 0 1 1.64-.492c.962 0 1.7.317 2.242.95s.8 1.54.8 2.72v.526h-5c.018.73.23 1.32.636 1.77.4.446.93.67 1.56.67.447 0 .825-.1 1.135-.273a2.88 2.88 0 0 0 .814-.725l.772.602c-.62.952-1.55 1.43-2.8 1.43zm-.157-6.63c-.5 0-.94.187-1.285.56s-.56.9-.643 1.56h3.705v-.096c-.037-.642-.2-1.14-.52-1.5s-.73-.533-1.258-.533zm8.818 4.532c0-.342-.13-.606-.4-.793s-.704-.355-1.347-.492-1.146-.3-1.524-.492-.652-.42-.834-.684-.267-.58-.267-.943c0-.606.255-1.12.766-1.538s1.17-.63 1.97-.63c.84 0 1.518.216 2.037.65s.786.987.786 1.66H83.92c0-.346-.148-.645-.444-.895s-.66-.376-1.108-.376c-.46 0-.82.1-1.08.3s-.4.462-.4.786c0 .305.12.535.362.7s.677.303 1.306.445 1.146.3 1.538.505.68.433.868.7.287.6.287 1.005a1.9 1.9 0 0 1-.793 1.593c-.53.396-1.215.595-2.058.595-.593 0-1.117-.105-1.572-.315s-.814-.5-1.073-.875a2.11 2.11 0 0 1-.383-1.223h1.265a1.31 1.31 0 0 0 .506 1c.306.24.738.37 1.258.37.478 0 .86-.095 1.148-.287s.438-.455.438-.78zM25.6 333.288h-3.336v-1.032H25.6v1.032zm0 20h-3.336v-1.032H25.6v1.032zm0 20h-3.336v-1.032H25.6v1.032zm9.868-329.184V48h-1.312v-9.953h3.67c1.1 0 1.94.278 2.557.834s.93 1.292.93 2.208c0 .966-.303 1.7-.9 2.235s-1.465.78-2.6.78h-2.345zm0-1.073h2.358c.702 0 1.24-.164 1.613-.492s.56-.8.56-1.436c0-.592-.187-1.066-.56-1.422s-.886-.54-1.538-.554h-2.434v3.903zm10.897-1.292a3.79 3.79 0 0 0-.622-.048c-.83 0-1.392.353-1.688 1.06V48H42.8v-7.397h1.23l.02.855c.415-.66 1.003-1 1.764-1 .246 0 .433.032.56.096v1.176zm.697 2.495c0-.725.14-1.376.424-1.955a3.2 3.2 0 0 1 1.19-1.34c.506-.315 1.092-.472 1.743-.472 1.007 0 1.82.35 2.44 1.046s.936 1.625.936 2.782v.1c0 .72-.14 1.367-.417 1.94s-.668 1.014-1.183 1.333-1.098.478-1.764.478c-1.003 0-1.816-.35-2.44-1.046s-.93-1.62-.93-2.77v-.1zm1.27.15c0 .82.2 1.48.567 1.976s.893.745 1.53.745 1.153-.25 1.53-.752.567-1.212.567-2.12c0-.8-.194-1.467-.58-1.97a1.82 1.82 0 0 0-1.531-.759 1.81 1.81 0 0 0-1.51.745c-.382.497-.574 1.208-.574 2.133zm13.296 0c0 1.126-.258 2.032-.773 2.72s-1.212 1.032-2.092 1.032c-.898 0-1.604-.285-2.12-.854v3.562H55.38v-10.24h1.155l.062.82c.515-.638 1.23-.957 2.146-.957.9 0 1.6.335 2.105 1.005s.78 1.602.78 2.796v.116zm-1.265-.144c0-.834-.178-1.492-.533-1.976s-.843-.725-1.463-.725c-.766 0-1.34.34-1.723 1.02v3.534a1.86 1.86 0 0 0 1.736 1.012 1.7 1.7 0 0 0 1.442-.718c.36-.483.54-1.198.54-2.146zm5.947 3.896c-1.003 0-1.818-.328-2.447-.984s-.943-1.543-.943-2.645v-.232c0-.734.14-1.388.417-1.962s.675-1.03 1.176-1.353a2.99 2.99 0 0 1 1.64-.492c.962 0 1.7.317 2.242.95s.8 1.54.8 2.72v.526h-5c.018.73.23 1.32.636 1.77s.93.67 1.56.67c.447 0 .825-.1 1.135-.273a2.85 2.85 0 0 0 .814-.725l.772.602c-.62.953-1.55 1.43-2.8 1.43zm-.157-6.63a1.68 1.68 0 0 0-1.285.561c-.346.37-.56.9-.642 1.56h3.705v-.096c-.036-.643-.2-1.14-.52-1.5s-.73-.533-1.258-.533zm8.087.232a3.79 3.79 0 0 0-.622-.048c-.83 0-1.392.353-1.688 1.06V48h-1.265v-7.397h1.23l.02.855c.415-.66 1.003-1 1.764-1 .246 0 .433.032.56.096v1.176zm3.227-2.926v1.8h1.38v.978h-1.38v4.587c0 .296.062.52.184.67s.333.22.63.22a3.06 3.06 0 0 0 .602-.082V48a3.72 3.72 0 0 1-.97.137c-.565 0-1-.17-1.278-.513s-.43-.827-.43-1.456V41.58h-1.347v-.978h1.347v-1.8h1.265zm5.284 7.335l1.723-5.544h1.354l-2.974 8.538c-.46 1.23-1.192 1.846-2.194 1.846l-.24-.02-.472-.1v-1.025l.342.027c.428 0 .76-.087.998-.26s.44-.5.595-.95l.28-.752-2.64-7.315h1.38l1.846 5.544zm12-.1c0-.342-.13-.606-.4-.793s-.704-.355-1.347-.492-1.146-.3-1.525-.492-.652-.42-.834-.684-.267-.58-.267-.943c0-.606.255-1.12.766-1.538s1.17-.63 1.97-.63c.84 0 1.518.217 2.037.65a2.07 2.07 0 0 1 .786 1.66h-1.272c0-.346-.148-.645-.444-.895s-.66-.376-1.108-.376c-.46 0-.82.1-1.08.3s-.4.463-.4.786a.79.79 0 0 0 .362.7c.242.164.677.303 1.306.444s1.146.3 1.538.506.68.433.868.7.287.608.287 1.005a1.9 1.9 0 0 1-.793 1.593c-.53.396-1.215.595-2.058.595-.592 0-1.117-.105-1.572-.314s-.814-.5-1.073-.875a2.11 2.11 0 0 1-.383-1.224h1.265c.023.424.2.76.506 1.012s.738.37 1.258.37c.48 0 .86-.096 1.148-.287s.438-.456.438-.78zm5.982 2.1c-1.003 0-1.82-.328-2.448-.984s-.943-1.543-.943-2.645v-.232c0-.734.14-1.388.417-1.962s.674-1.03 1.176-1.353a2.99 2.99 0 0 1 1.64-.492c.962 0 1.7.317 2.243.95s.8 1.54.8 2.72v.526h-5c.018.73.23 1.32.636 1.77s.93.67 1.56.67c.447 0 .825-.1 1.135-.273s.58-.424.813-.725l.773.602c-.62.953-1.55 1.43-2.8 1.43zm-.158-6.63a1.68 1.68 0 0 0-1.285.561c-.346.37-.56.9-.642 1.56h3.705v-.096c-.037-.643-.2-1.14-.52-1.5s-.73-.533-1.258-.533zm9.08 6.494c-.073-.146-.133-.406-.178-.78a2.84 2.84 0 0 1-2.106.916c-.73 0-1.328-.205-1.798-.615a2.02 2.02 0 0 1-.697-1.572c0-.77.292-1.367.875-1.8s1.413-.643 2.475-.643h1.23v-.58c0-.442-.132-.793-.396-1.053s-.654-.396-1.17-.396c-.45 0-.83.114-1.135.342s-.458.504-.458.827h-1.27c0-.37.13-.725.4-1.066s.62-.62 1.067-.82a3.6 3.6 0 0 1 1.483-.3c.852 0 1.52.214 2.003.643s.734 1 .752 1.757v3.404c0 .68.087 1.22.26 1.62V48h-1.326zm-2.1-.964c.396 0 .772-.102 1.128-.308s.613-.472.772-.8V44.4h-1c-1.55 0-2.324.454-2.324 1.36 0 .396.132.706.396.93s.604.335 1.02.335zm8.723-5.298a3.8 3.8 0 0 0-.623-.048c-.83 0-1.392.353-1.688 1.06V48h-1.265v-7.397h1.23l.02.855c.415-.66 1.003-1 1.764-1 .246 0 .433.032.56.096v1.176zm4 5.366a1.82 1.82 0 0 0 1.182-.41c.337-.273.524-.615.56-1.025h1.196c-.023.424-.17.827-.437 1.2a2.96 2.96 0 0 1-1.08.916 3.08 3.08 0 0 1-1.421.342c-1.008 0-1.8-.335-2.407-1.005s-.888-1.595-.888-2.762v-.212c0-.72.132-1.36.396-1.92s.643-.996 1.135-1.306 1.082-.465 1.757-.465c.83 0 1.517.248 2.064.745s.846 1.142.882 1.935h-1.196a1.73 1.73 0 0 0-.547-1.176c-.327-.306-.725-.465-1.203-.465-.643 0-1.142.232-1.497.697s-.527 1.128-.527 2.003v.24c0 .852.176 1.508.527 1.97s.852.7 1.504.7zm5.626-5.605c.56-.688 1.3-1.032 2.187-1.032 1.563 0 2.352.882 2.365 2.645V48h-1.264v-4.895c-.005-.533-.128-.927-.37-1.183-.236-.255-.608-.383-1.114-.383a1.85 1.85 0 0 0-1.08.328c-.3.218-.55.506-.724.86V48h-1.265V37.5h1.265v4zm16.167 2.885c0 1.126-.258 2.032-.773 2.72s-1.212 1.032-2.092 1.032c-.897 0-1.604-.285-2.12-.854v3.562h-1.265v-10.24h1.156l.06.82c.515-.638 1.23-.957 2.147-.957.888 0 1.6.335 2.105 1.005s.78 1.602.78 2.796v.116zm-1.265-.144c0-.834-.178-1.492-.533-1.976s-.843-.725-1.463-.725c-.766 0-1.34.34-1.723 1.02v3.534c.378.675.957 1.012 1.736 1.012a1.7 1.7 0 0 0 1.443-.718c.36-.483.54-1.198.54-2.146zm6.453-2.502a3.79 3.79 0 0 0-.622-.048c-.83 0-1.392.353-1.7 1.06V48h-1.264v-7.397h1.23l.02.855c.415-.66 1.002-1 1.763-1 .247 0 .433.032.56.096v1.176zm.697 2.495c0-.725.142-1.376.424-1.955s.684-1.025 1.2-1.34a3.26 3.26 0 0 1 1.743-.472c1.007 0 1.82.35 2.44 1.046s.937 1.625.937 2.782v.1c0 .72-.14 1.367-.417 1.94s-.668 1.014-1.183 1.333-1.098.478-1.764.478c-1.002 0-1.816-.35-2.44-1.046s-.93-1.62-.93-2.77v-.1zm1.272.15c0 .82.2 1.48.567 1.976.383.497.893.745 1.53.745s1.153-.25 1.532-.752.567-1.212.567-2.12c0-.8-.194-1.467-.58-1.97a1.82 1.82 0 0 0-1.531-.759 1.81 1.81 0 0 0-1.51.745c-.382.497-.574 1.208-.574 2.133zm10.014 2.72a1.82 1.82 0 0 0 1.183-.41c.337-.273.524-.615.56-1.025h1.196c-.023.424-.17.827-.438 1.2a2.97 2.97 0 0 1-1.08.916 3.08 3.08 0 0 1-1.422.342c-1.007 0-1.8-.335-2.406-1.005s-.888-1.595-.888-2.762v-.212c0-.72.132-1.36.396-1.92s.643-.996 1.135-1.306 1.082-.465 1.757-.465c.83 0 1.517.248 2.064.745s.845 1.142.882 1.935h-1.196a1.73 1.73 0 0 0-.547-1.176c-.327-.306-.725-.465-1.203-.465-.643 0-1.142.232-1.497.697s-.527 1.128-.527 2.003v.24c0 .852.176 1.508.527 1.97s.852.7 1.503.7zm7.43 1.032c-1.003 0-1.818-.328-2.447-.984s-.944-1.543-.944-2.645v-.232c0-.734.14-1.388.417-1.962.283-.58.675-1.03 1.176-1.353a2.96 2.96 0 0 1 1.641-.492c.96 0 1.7.317 2.242.95s.8 1.54.8 2.72v.526h-5c.018.73.23 1.32.636 1.77s.93.67 1.558.67c.447 0 .825-.1 1.135-.273a2.86 2.86 0 0 0 .814-.725l.772.602c-.62.953-1.55 1.43-2.8 1.43zm-.157-6.63a1.68 1.68 0 0 0-1.285.561c-.347.37-.56.9-.643 1.56h3.705v-.096c-.036-.643-.2-1.14-.52-1.5s-.73-.533-1.258-.533zm8.818 4.532a.92.92 0 0 0-.389-.793c-.256-.2-.705-.355-1.347-.492s-1.146-.3-1.525-.492c-.373-.2-.65-.42-.834-.684-.177-.264-.266-.58-.266-.943 0-.606.255-1.12.766-1.538s1.17-.63 1.968-.63c.84 0 1.518.217 2.037.65a2.06 2.06 0 0 1 .787 1.661h-1.272c0-.346-.148-.645-.444-.895s-.66-.376-1.108-.376c-.46 0-.82.1-1.08.3s-.4.463-.4.786a.79.79 0 0 0 .362.7c.242.164.677.303 1.306.444s1.146.3 1.538.506.68.433.868.7.287.608.287 1.005a1.9 1.9 0 0 1-.793 1.593c-.53.396-1.215.595-2.058.595-.592 0-1.116-.105-1.572-.314s-.813-.5-1.073-.875-.383-.786-.383-1.224h1.265a1.32 1.32 0 0 0 .505 1.012c.32.246.74.37 1.258.37.48 0 .862-.096 1.15-.287a.9.9 0 0 0 .437-.78zm7.22 0c0-.342-.13-.606-.4-.793-.255-.2-.704-.355-1.346-.492s-1.147-.3-1.525-.492-.65-.42-.834-.684c-.177-.264-.266-.58-.266-.943 0-.606.255-1.12.765-1.538s1.17-.63 1.97-.63c.84 0 1.518.217 2.037.65a2.07 2.07 0 0 1 .786 1.66h-1.27c0-.346-.148-.645-.445-.895-.3-.25-.66-.376-1.107-.376-.46 0-.82.1-1.08.3s-.4.463-.4.786a.79.79 0 0 0 .363.7c.243.164.676.303 1.305.444s1.146.3 1.538.506.682.433.87.7.287.608.287 1.005a1.9 1.9 0 0 1-.793 1.593c-.53.396-1.215.595-2.058.595-.592 0-1.117-.105-1.572-.314s-.814-.5-1.073-.875a2.14 2.14 0 0 1-.383-1.224h1.264c.023.424.192.76.506 1.012s.74.37 1.258.37c.48 0 .86-.096 1.148-.287.292-.196.438-.456.438-.78zm8.1-7.226v1.8h1.38v.978h-1.38v4.587c0 .296.06.52.184.67s.333.22.63.22a3.07 3.07 0 0 0 .602-.082v1.025c-.333.1-.657.137-.97.137-.565 0-1-.17-1.278-.513s-.43-.827-.43-1.456V41.58h-1.347v-.978h1.347v-1.8h1.265zm4.128 2.687a2.7 2.7 0 0 1 2.188-1.032c1.563 0 2.352.882 2.365 2.645V48h-1.264v-4.895c-.005-.533-.128-.927-.37-1.183s-.608-.383-1.114-.383a1.85 1.85 0 0 0-1.08.328c-.3.218-.55.506-.725.86V48h-1.264V37.5h1.264v4zm10.022.24a3.79 3.79 0 0 0-.622-.048c-.83 0-1.392.353-1.7 1.06V48h-1.264v-7.397h1.23l.02.855c.414-.66 1.002-1 1.763-1 .246 0 .433.032.56.096v1.176zm.697 2.495c0-.725.14-1.376.424-1.955a3.2 3.2 0 0 1 1.19-1.34c.5-.314 1.092-.472 1.744-.472 1.007 0 1.82.35 2.44 1.046s.937 1.625.937 2.782v.1c0 .72-.14 1.367-.417 1.94s-.668 1.014-1.183 1.333-1.098.478-1.764.478c-1.002 0-1.816-.35-2.44-1.046s-.93-1.62-.93-2.77v-.1zm1.272.15c0 .82.2 1.48.567 1.976s.893.745 1.53.745c.643 0 1.153-.25 1.532-.752s.567-1.212.567-2.12c0-.8-.194-1.467-.58-1.97a1.82 1.82 0 0 0-1.531-.759 1.81 1.81 0 0 0-1.51.745c-.382.497-.574 1.208-.574 2.133zm11.614 2.885c-.492.58-1.215.868-2.167.868-.788 0-1.4-.228-1.805-.684s-.617-1.14-.622-2.037v-4.812h1.265v4.778c0 1.12.456 1.682 1.367 1.682.966 0 1.6-.36 1.928-1.08v-5.38h1.264V48h-1.203l-.027-.73zm2.857-3.028c0-1.153.267-2.07.8-2.748s1.24-1.025 2.12-1.025c.903 0 1.607.32 2.113.957l.06-.82h1.155v7.22c0 .957-.284 1.7-.854 2.263-.565.55-1.326.827-2.283.827a3.81 3.81 0 0 1-1.566-.342c-.5-.228-.9-.54-1.17-.937l.657-.76c.542.67 1.205 1.005 2 1.005.615 0 1.094-.173 1.435-.52.347-.346.52-.834.52-1.463v-.636c-.506.583-1.196.875-2.07.875-.866 0-1.568-.35-2.106-1.046s-.8-1.647-.8-2.85zm1.272.144c0 .834.17 1.5.513 1.97s.82.7 1.435.7c.798 0 1.383-.362 1.757-1.087V42.6c-.387-.706-.968-1.06-1.743-1.06-.615 0-1.096.24-1.443.718s-.52 1.187-.52 2.126zm8.155-2.885a2.7 2.7 0 0 1 2.188-1.032c1.563 0 2.35.882 2.365 2.645V48h-1.265v-4.895c-.004-.533-.127-.927-.37-1.183s-.608-.383-1.114-.383a1.85 1.85 0 0 0-1.08.328c-.3.218-.552.506-.725.86V48h-1.265V37.5h1.265v4zM40.22 64.384c0 1.13-.26 2.04-.78 2.728a2.49 2.49 0 0 1-2.092 1.025c-.934 0-1.657-.33-2.167-1l-.06.853h-1.162V57.5h1.265v3.917c.5-.634 1.215-.95 2.112-.95s1.602.34 2.112 1.02.773 1.6.773 2.8v.1zm-1.265-.144c0-.86-.166-1.527-.5-1.996s-.8-.704-1.436-.704c-.834 0-1.433.387-1.798 1.162v3.2c.387.775 1 1.162 1.812 1.162.606 0 1.078-.235 1.415-.704s.506-1.176.506-2.12zM43.192 68h-1.265V57.5h1.265V68zm1.695-3.767c0-.725.14-1.376.424-1.955a3.2 3.2 0 0 1 1.19-1.34c.506-.315 1.1-.472 1.743-.472 1.007 0 1.82.35 2.44 1.046s.936 1.625.936 2.782v.1c0 .72-.14 1.367-.417 1.94s-.668 1.014-1.183 1.333a3.27 3.27 0 0 1-1.764.48c-1.003 0-1.816-.35-2.44-1.046s-.93-1.62-.93-2.77v-.1zm1.27.15c0 .82.2 1.48.567 1.976s.893.745 1.53.745 1.153-.25 1.53-.752.567-1.212.567-2.12c0-.8-.194-1.467-.58-1.97a1.82 1.82 0 0 0-1.531-.759 1.81 1.81 0 0 0-1.51.745c-.382.497-.574 1.208-.574 2.133zm10.015 2.72a1.82 1.82 0 0 0 1.183-.41c.337-.273.524-.615.56-1.025h1.196a2.25 2.25 0 0 1-.437 1.2 2.96 2.96 0 0 1-1.08.916 3.09 3.09 0 0 1-1.422.342c-1.007 0-1.8-.335-2.406-1.005s-.9-1.595-.9-2.762v-.212c0-.72.132-1.36.396-1.92s.643-.996 1.135-1.306 1.082-.465 1.757-.465c.83 0 1.518.248 2.064.745s.845 1.142.882 1.935h-1.196c-.037-.48-.22-.87-.547-1.176s-.725-.465-1.203-.465c-.643 0-1.142.232-1.497.697s-.526 1.128-.526 2.003v.24c0 .852.175 1.508.526 1.97s.852.7 1.504.7zm6.426-2.53l-.793.827V68H60.54V57.5h1.265v6.35l.677-.813 2.304-2.434h1.538l-2.878 3.1L66.66 68h-1.483L62.6 64.575zm7.86 2.53a1.82 1.82 0 0 0 1.183-.41c.337-.273.524-.615.56-1.025h1.2a2.25 2.25 0 0 1-.437 1.2 2.96 2.96 0 0 1-1.08.916 3.09 3.09 0 0 1-1.422.342c-1.007 0-1.8-.335-2.406-1.005s-.9-1.595-.9-2.762v-.212c0-.72.132-1.36.397-1.92s.643-.996 1.135-1.306 1.082-.465 1.757-.465c.83 0 1.518.248 2.065.745s.845 1.142.882 1.935h-1.196c-.037-.48-.22-.87-.547-1.176s-.725-.465-1.203-.465c-.643 0-1.142.232-1.497.697s-.526 1.128-.526 2.003v.24c0 .852.175 1.508.526 1.97s.852.7 1.504.7zm5.626-5.605a2.7 2.7 0 0 1 2.188-1.032c1.563 0 2.352.882 2.365 2.645V68h-1.265v-4.895c-.005-.533-.128-.927-.37-1.183s-.608-.383-1.114-.383a1.85 1.85 0 0 0-1.08.328c-.3.218-.55.506-.725.86V68h-1.265V57.5h1.265v4zM87.1 68c-.073-.146-.132-.406-.178-.78a2.82 2.82 0 0 1-2.105.916c-.73 0-1.328-.205-1.798-.615s-.697-.94-.697-1.572c0-.77.292-1.367.875-1.8s1.413-.643 2.475-.643h1.23v-.58c0-.442-.132-.793-.396-1.053s-.654-.396-1.17-.396c-.45 0-.83.114-1.135.342s-.458.504-.458.827H82.47c0-.37.13-.725.4-1.066s.62-.62 1.066-.82a3.6 3.6 0 0 1 1.483-.3c.852 0 1.52.214 2.003.643s.734 1 .752 1.757v3.404c0 .68.087 1.22.26 1.62V68H87.1zm-2.1-.964c.396 0 .772-.103 1.128-.308a1.86 1.86 0 0 0 .772-.8V64.4h-1c-1.55 0-2.324.453-2.324 1.36 0 .397.132.706.397.93s.604.335 1.02.335zm6.52.964h-1.265v-7.397h1.265V68zm-1.367-9.358a.77.77 0 0 1 .184-.52c.122-.142.315-.212.56-.212s.433.07.56.212a.75.75 0 0 1 .19.52c0 .206-.064.376-.2.513s-.314.205-.56.205-.433-.068-.56-.205a.72.72 0 0 1-.184-.513zm4.594 1.962l.04.93c.565-.7 1.303-1.066 2.215-1.066 1.563 0 2.35.882 2.365 2.645V68h-1.265v-4.895c-.005-.533-.128-.927-.37-1.183s-.608-.383-1.114-.383a1.85 1.85 0 0 0-1.08.328c-.3.218-.55.506-.725.86V68h-1.265v-7.397h1.196zm9.16 3.685h-3.336v-1.032h3.336v1.032zm4.307 3.85c-1.003 0-1.82-.328-2.447-.984s-.944-1.543-.944-2.645v-.232c0-.734.14-1.388.417-1.962s.675-1.03 1.176-1.353a2.96 2.96 0 0 1 1.641-.492c.96 0 1.7.317 2.242.95s.8 1.54.8 2.72v.526h-5c.018.73.23 1.32.636 1.77s.93.67 1.558.67c.447 0 .825-.1 1.135-.273s.58-.424.813-.725l.773.602c-.62.953-1.55 1.43-2.8 1.43zm-.157-6.63c-.5 0-.94.187-1.286.56s-.56.9-.642 1.56h3.705v-.096c-.037-.643-.2-1.14-.52-1.5s-.73-.533-1.257-.533zm5.708-.902l.04.93a2.69 2.69 0 0 1 2.214-1.066c1.564 0 2.352.882 2.366 2.645V68h-1.265v-4.895c-.005-.533-.128-.927-.37-1.183s-.608-.383-1.114-.383a1.82 1.82 0 0 0-1.08.328 2.33 2.33 0 0 0-.725.86v5.273h-1.265v-7.397h1.197zM124.86 68c-.073-.146-.132-.406-.177-.78a2.84 2.84 0 0 1-2.106.916c-.73 0-1.328-.205-1.798-.615s-.697-.94-.697-1.572c0-.77.292-1.367.875-1.8.588-.428 1.413-.643 2.475-.643h1.23v-.58c0-.442-.132-.793-.396-1.053s-.654-.396-1.17-.396c-.452 0-.83.114-1.135.342s-.458.504-.458.827h-1.272c0-.37.13-.725.4-1.066s.62-.62 1.066-.82a3.62 3.62 0 0 1 1.484-.3c.852 0 1.52.214 2.003.643s.734 1 .752 1.757v3.404c0 .68.086 1.22.26 1.62V68h-1.327zm-2.098-.964c.396 0 .772-.103 1.128-.308s.613-.472.772-.8V64.4h-1c-1.55 0-2.324.453-2.324 1.36 0 .397.132.706.396.93s.604.335 1.02.335zm11.4-2.652c0 1.13-.26 2.04-.78 2.728a2.49 2.49 0 0 1-2.092 1.025c-.934 0-1.657-.33-2.167-1l-.062.855h-1.17V57.5h1.265v3.917c.5-.634 1.214-.95 2.112-.95s1.602.34 2.112 1.02.773 1.6.773 2.8v.1zm-1.265-.144c0-.86-.166-1.527-.5-1.996s-.8-.704-1.435-.704c-.834 0-1.434.387-1.798 1.162v3.2c.387.775 1 1.162 1.8 1.162.606 0 1.078-.235 1.415-.704s.506-1.176.506-2.12zm4.24 3.76h-1.265V57.5h1.265V68zm5.1.137c-1.002 0-1.818-.328-2.447-.984s-.944-1.543-.944-2.645v-.232c0-.734.14-1.388.417-1.962.283-.58.675-1.03 1.176-1.353a2.96 2.96 0 0 1 1.641-.492c.96 0 1.7.317 2.242.95s.8 1.54.8 2.72v.526h-5c.018.73.23 1.32.636 1.77s.93.67 1.558.67c.447 0 .825-.1 1.135-.273a2.86 2.86 0 0 0 .814-.725l.772.602c-.62.953-1.55 1.43-2.8 1.43zm-.157-6.63a1.68 1.68 0 0 0-1.285.561c-.347.37-.56.9-.643 1.56h3.705v-.096c-.036-.643-.2-1.14-.52-1.5s-.73-.533-1.258-.533zm4.204 2.734c0-1.135.27-2.046.807-2.734s1.24-1.04 2.112-1.04c.866 0 1.552.296 2.058.9V57.5h1.264V68h-1.162l-.06-.793c-.506.62-1.2.93-2.113.93-.857 0-1.556-.35-2.098-1.053s-.807-1.618-.807-2.748v-.096zm1.265.144c0 .84.173 1.495.52 1.97s.825.7 1.436.7c.802 0 1.387-.36 1.757-1.08v-3.398c-.38-.697-.96-1.046-1.744-1.046-.62 0-1.102.24-1.45.718s-.52 1.187-.52 2.126zm14.724 1.654a.92.92 0 0 0-.389-.793c-.256-.2-.704-.355-1.347-.492-.638-.137-1.146-.3-1.524-.492s-.652-.42-.834-.684-.267-.58-.267-.943c0-.606.255-1.12.766-1.538s1.17-.63 1.968-.63c.84 0 1.518.217 2.037.65a2.06 2.06 0 0 1 .787 1.661h-1.272c0-.346-.148-.645-.444-.895s-.66-.376-1.108-.376c-.46 0-.82.1-1.08.3s-.4.463-.4.786a.79.79 0 0 0 .362.7c.242.164.677.303 1.306.444s1.146.3 1.538.506.68.433.868.7.287.608.287 1.005a1.9 1.9 0 0 1-.793 1.593c-.53.397-1.215.595-2.058.595-.592 0-1.116-.105-1.572-.314s-.813-.5-1.073-.875-.383-.786-.383-1.224h1.265c.022.424.2.76.506 1.012s.738.37 1.257.37c.48 0 .862-.096 1.15-.287a.9.9 0 0 0 .437-.78zm5.332.1l1.723-5.544h1.353l-2.973 8.538c-.46 1.23-1.192 1.846-2.195 1.846l-.24-.02-.47-.1v-1.025l.34.027c.43 0 .76-.087.998-.26s.44-.5.595-.95l.28-.752-2.638-7.315h1.38l1.845 5.544zm8.518-.1c0-.342-.13-.606-.4-.793s-.704-.355-1.346-.492-1.147-.3-1.525-.492-.652-.42-.834-.684-.266-.58-.266-.943c0-.606.255-1.12.765-1.538.515-.42 1.17-.63 1.97-.63.838 0 1.517.217 2.037.65s.786.987.786 1.66h-1.27c0-.346-.148-.645-.445-.895-.3-.25-.66-.376-1.107-.376-.46 0-.82.1-1.08.3s-.4.463-.4.786a.79.79 0 0 0 .362.7c.242.164.677.303 1.306.444.634.14 1.146.3 1.538.506s.682.433.868.7c.192.273.288.608.288 1.005a1.9 1.9 0 0 1-.793 1.593c-.53.397-1.215.595-2.058.595-.593 0-1.117-.105-1.572-.314s-.814-.5-1.074-.875-.382-.786-.382-1.224h1.264c.023.424.192.76.506 1.012s.738.37 1.258.37c.478 0 .86-.096 1.148-.287s.438-.456.438-.78zm4.628-7.226v1.8h1.38v.978h-1.38v4.587c0 .296.06.52.184.67s.333.22.63.22a3.06 3.06 0 0 0 .602-.082V68a3.67 3.67 0 0 1-.971.137c-.565 0-1-.17-1.278-.513s-.43-.827-.43-1.456V61.58h-1.347v-.978h1.347v-1.8h1.265zm5.933 9.324c-1.002 0-1.818-.328-2.447-.984s-.943-1.543-.943-2.645v-.232c0-.734.14-1.388.417-1.962s.674-1.03 1.176-1.353a2.99 2.99 0 0 1 1.64-.492c.962 0 1.7.317 2.242.95s.8 1.54.8 2.72v.526h-5c.02.73.23 1.32.636 1.77s.93.67 1.56.67c.446 0 .825-.1 1.135-.273s.58-.424.813-.725l.772.602c-.62.953-1.55 1.43-2.8 1.43zm-.157-6.63a1.68 1.68 0 0 0-1.285.561c-.346.37-.56.9-.643 1.56h3.705v-.096c-.036-.643-.2-1.14-.52-1.5s-.73-.533-1.258-.533zm5.7-.902l.035.82c.542-.638 1.273-.957 2.194-.957 1.034 0 1.738.397 2.112 1.2a2.81 2.81 0 0 1 .957-.861c.397-.22.864-.328 1.402-.328 1.622 0 2.447.86 2.474 2.577V68h-1.264v-4.88c0-.53-.12-.923-.363-1.183s-.647-.397-1.217-.397c-.47 0-.86.14-1.17.424s-.5.654-.54 1.128V68h-1.27v-4.847c0-1.075-.526-1.613-1.58-1.613-.83 0-1.397.353-1.702 1.06V68h-1.265v-7.397h1.196zM35.47 94.105V98h-1.312v-9.953h3.67c1.1 0 1.94.278 2.557.834s.93 1.292.93 2.208c0 .966-.303 1.7-.9 2.235s-1.465.78-2.6.78H35.47zm0-1.073h2.358c.702 0 1.24-.164 1.613-.492s.56-.8.56-1.436c0-.592-.187-1.066-.56-1.422s-.886-.54-1.538-.554h-2.434v3.903zm10.897-1.292a3.79 3.79 0 0 0-.622-.048c-.83 0-1.392.353-1.688 1.06V98H42.8v-7.397h1.23l.02.855c.415-.66 1.003-1 1.764-1 .246 0 .433.032.56.096v1.176zm4.102 6.398c-1.003 0-1.818-.328-2.447-.984s-.943-1.543-.943-2.645v-.232c0-.734.14-1.388.417-1.962s.675-1.03 1.176-1.353a2.99 2.99 0 0 1 1.64-.492c.962 0 1.7.317 2.242.95s.8 1.54.8 2.72v.526h-5c.018.73.23 1.32.636 1.77s.93.67 1.56.67c.447 0 .825-.1 1.135-.273a2.85 2.85 0 0 0 .813-.725l.773.602c-.62.953-1.55 1.43-2.8 1.43zm-.157-6.63a1.68 1.68 0 0 0-1.285.561c-.346.37-.56.9-.643 1.56h3.705v-.096c-.036-.643-.2-1.14-.52-1.5s-.73-.533-1.258-.533zm7.144 2.782H54.12v-1.032h3.336V94.3zm2.61 3.7H58.8V87.5h1.265V98zm5.1.137c-1.003 0-1.818-.328-2.447-.984s-.943-1.543-.943-2.645v-.232c0-.734.14-1.388.417-1.962s.674-1.03 1.176-1.353a2.99 2.99 0 0 1 1.64-.492c.962 0 1.7.317 2.242.95s.8 1.54.8 2.72v.526h-5c.018.73.23 1.32.636 1.77s.93.67 1.558.67c.447 0 .825-.1 1.135-.273a2.85 2.85 0 0 0 .813-.725l.772.602c-.62.953-1.55 1.43-2.8 1.43zm-.157-6.63a1.68 1.68 0 0 0-1.285.561c-.346.37-.56.9-.643 1.56h3.705v-.096c-.036-.643-.2-1.14-.52-1.5s-.73-.533-1.258-.533zM74.084 98c-.073-.146-.132-.406-.178-.78-.588.6-1.3.916-2.105.916-.73 0-1.328-.205-1.798-.615s-.697-.94-.697-1.572c0-.77.292-1.367.875-1.8s1.413-.643 2.475-.643h1.23v-.58c0-.442-.132-.793-.396-1.053s-.654-.396-1.17-.396c-.45 0-.83.114-1.135.342s-.458.504-.458.827h-1.27c0-.37.13-.725.4-1.066a2.7 2.7 0 0 1 1.066-.82c.45-.2.946-.3 1.483-.3.852 0 1.52.214 2.003.643s.734 1 .752 1.757v3.404c0 .68.087 1.22.26 1.62V98h-1.326zm-2.1-.964c.396 0 .772-.103 1.128-.308a1.86 1.86 0 0 0 .772-.8V94.4h-1c-1.55 0-2.324.453-2.324 1.36 0 .397.132.706.397.93s.604.335 1.02.335zm9.454-.998c0-.342-.13-.606-.4-.793s-.704-.355-1.347-.492-1.146-.3-1.524-.492-.652-.42-.834-.684a1.65 1.65 0 0 1-.267-.943c0-.606.255-1.12.766-1.538s1.17-.63 1.97-.63c.838 0 1.518.216 2.037.65s.786.987.786 1.66h-1.27c0-.346-.148-.645-.444-.895s-.66-.376-1.107-.376c-.46 0-.82.1-1.08.3s-.4.463-.4.786c0 .305.12.535.362.7s.677.303 1.306.444 1.146.3 1.538.506.68.433.868.7.287.608.287 1.005a1.9 1.9 0 0 1-.793 1.593c-.53.397-1.215.595-2.058.595-.592 0-1.117-.105-1.572-.314s-.813-.5-1.073-.875-.383-.786-.383-1.224H78.1c.023.424.2.76.506 1.012s.738.37 1.258.37c.478 0 .86-.096 1.148-.287s.438-.456.438-.78zm5.98 2.1c-1.003 0-1.818-.328-2.447-.984s-.943-1.543-.943-2.645v-.232c0-.734.14-1.388.417-1.962s.674-1.03 1.176-1.353a2.99 2.99 0 0 1 1.64-.492c.962 0 1.7.317 2.242.95s.8 1.54.8 2.72v.526h-5c.018.73.23 1.32.636 1.77s.93.67 1.56.67c.447 0 .825-.1 1.135-.273a2.85 2.85 0 0 0 .814-.725l.772.602c-.62.953-1.55 1.43-2.8 1.43zm-.157-6.63a1.68 1.68 0 0 0-1.285.561c-.346.37-.56.9-.643 1.56h3.705v-.096c-.036-.643-.2-1.14-.52-1.5s-.73-.533-1.258-.533zm4.765 7.35H90.94l4.156-10.808h1.08l-4.15 10.808zm11.765-4.47c0 1.126-.258 2.033-.772 2.72s-1.213 1.032-2.092 1.032c-.898 0-1.605-.285-2.12-.855v3.562h-1.265v-10.24H98.7l.062.82c.515-.638 1.23-.957 2.146-.957.9 0 1.6.335 2.106 1.005s.78 1.602.78 2.796v.116zm-1.265-.144c0-.834-.177-1.493-.533-1.976s-.843-.725-1.463-.725c-.765 0-1.34.34-1.722 1.02v3.534a1.86 1.86 0 0 0 1.736 1.012 1.7 1.7 0 0 0 1.442-.718c.36-.483.54-1.2.54-2.147zm7.445 3.028c-.493.58-1.215.868-2.167.868-.8 0-1.4-.228-1.805-.684s-.618-1.14-.622-2.037v-4.812h1.265v4.778c0 1.12.455 1.682 1.367 1.682.966 0 1.608-.36 1.927-1.08v-5.38h1.265V98H110l-.027-.73zm6.733-5.53a3.79 3.79 0 0 0-.622-.048c-.83 0-1.392.353-1.688 1.06V98h-1.265v-7.397h1.23l.02.855c.415-.66 1.002-1 1.764-1 .246 0 .432.032.56.096v1.176zm4 5.366c.45 0 .845-.137 1.183-.4a1.44 1.44 0 0 0 .56-1.025h1.197c-.023.424-.17.827-.438 1.2a2.97 2.97 0 0 1-1.08.916 3.09 3.09 0 0 1-1.422.342c-1.007 0-1.8-.335-2.406-1.005s-.9-1.595-.9-2.762v-.212c0-.72.132-1.36.397-1.92s.642-.996 1.134-1.306 1.083-.465 1.757-.465c.83 0 1.518.248 2.065.745s.845 1.142.882 1.935h-1.197c-.036-.478-.22-.87-.547-1.176a1.71 1.71 0 0 0-1.203-.465c-.642 0-1.14.232-1.497.697-.35.46-.526 1.128-.526 2.003v.24c0 .852.175 1.508.526 1.97s.852.7 1.504.7zm5.626-5.606a2.7 2.7 0 0 1 2.188-1.032c1.563 0 2.35.882 2.365 2.645V98h-1.265v-4.894c-.004-.533-.127-.927-.37-1.183s-.608-.383-1.114-.383a1.85 1.85 0 0 0-1.08.328c-.3.218-.552.506-.725.86V98h-1.265V87.5h1.265v4zm11.013 6.5c-.073-.146-.132-.406-.178-.78a2.82 2.82 0 0 1-2.105.916c-.73 0-1.33-.205-1.798-.615a2 2 0 0 1-.698-1.572c0-.77.292-1.367.875-1.8s1.413-.643 2.475-.643h1.23v-.58c0-.442-.133-.793-.397-1.053s-.654-.396-1.17-.396c-.45 0-.83.114-1.135.342s-.458.504-.458.827h-1.27c0-.37.13-.725.4-1.066s.62-.62 1.067-.82.946-.3 1.483-.3c.852 0 1.52.214 2.003.643s.734 1 .752 1.757v3.404c0 .68.087 1.22.26 1.62V98h-1.326zm-2.1-.964a2.22 2.22 0 0 0 1.128-.308c.356-.205.613-.472.773-.8V94.4h-.992c-1.55 0-2.324.453-2.324 1.36 0 .397.132.706.397.93s.603.335 1.018.335zm9.454-.998a.92.92 0 0 0-.389-.793c-.256-.2-.705-.355-1.347-.492s-1.146-.3-1.525-.492c-.373-.2-.65-.42-.834-.684-.177-.264-.266-.58-.266-.943 0-.606.255-1.12.766-1.538s1.17-.63 1.968-.63c.84 0 1.518.216 2.037.65a2.06 2.06 0 0 1 .787 1.661h-1.272c0-.346-.148-.645-.444-.895s-.66-.376-1.108-.376c-.46 0-.82.1-1.08.3s-.4.463-.4.786c0 .305.12.535.362.7s.677.303 1.306.444 1.146.3 1.538.506.68.433.868.7.287.608.287 1.005a1.9 1.9 0 0 1-.793 1.593c-.53.397-1.215.595-2.058.595-.592 0-1.116-.105-1.572-.314s-.813-.5-1.073-.875c-.255-.378-.383-.786-.383-1.224h1.265a1.32 1.32 0 0 0 .505 1.012c.32.246.74.37 1.258.37.48 0 .862-.096 1.15-.287a.9.9 0 0 0 .437-.78zm5.982 2.1c-1.003 0-1.82-.328-2.448-.984s-.943-1.543-.943-2.645v-.232c0-.734.14-1.388.417-1.962.283-.58.675-1.03 1.176-1.353a2.99 2.99 0 0 1 1.64-.492c.962 0 1.7.317 2.243.95s.8 1.54.8 2.72v.526h-5c.018.73.23 1.32.635 1.77s.93.67 1.56.67c.447 0 .825-.1 1.135-.273s.58-.424.813-.725l.773.602c-.62.953-1.55 1.43-2.8 1.43zm-.158-6.63a1.68 1.68 0 0 0-1.285.561c-.346.37-.56.9-.642 1.56h3.705v-.096c-.037-.643-.2-1.14-.52-1.5s-.73-.533-1.258-.533zm7.677 2.734c0-1.135.27-2.046.807-2.734s1.242-1.04 2.112-1.04 1.552.296 2.058.9V87.5h1.264V98h-1.162l-.06-.793c-.506.62-1.2.93-2.113.93-.856 0-1.556-.35-2.098-1.053s-.807-1.618-.807-2.748v-.096zm1.265.144c0 .84.173 1.495.52 1.97s.825.7 1.436.7a1.84 1.84 0 0 0 1.757-1.08V92.6c-.378-.697-.96-1.046-1.743-1.046-.62 0-1.103.24-1.45.718s-.52 1.187-.52 2.126zm11.512 2.885c-.493.58-1.215.868-2.167.868-.8 0-1.4-.228-1.805-.684s-.618-1.14-.622-2.037v-4.812h1.264v4.778c0 1.12.456 1.682 1.368 1.682.966 0 1.608-.36 1.927-1.08v-5.38h1.265V98h-1.203l-.027-.73zm6.227.868c-1.003 0-1.818-.328-2.447-.984s-.944-1.543-.944-2.645v-.232c0-.734.14-1.388.417-1.962.283-.58.675-1.03 1.176-1.353a2.96 2.96 0 0 1 1.641-.492c.96 0 1.7.317 2.242.95s.8 1.54.8 2.72v.526h-5c.018.73.23 1.32.636 1.77s.93.67 1.558.67c.447 0 .825-.1 1.135-.273a2.86 2.86 0 0 0 .814-.725l.772.602c-.62.953-1.55 1.43-2.8 1.43zm-.157-6.63a1.68 1.68 0 0 0-1.285.561c-.347.37-.56.9-.643 1.56h3.705v-.096c-.036-.643-.2-1.14-.52-1.5s-.73-.533-1.258-.533zm7.677 2.734c0-1.135.27-2.046.806-2.734s1.242-1.04 2.113-1.04c.865 0 1.55.296 2.057.9V87.5h1.265V98H189.8l-.062-.793c-.506.62-1.2.93-2.112.93-.857 0-1.556-.35-2.1-1.053-.537-.702-.806-1.618-.806-2.748v-.096zm1.264.144c0 .84.173 1.495.52 1.97s.825.7 1.435.7a1.84 1.84 0 0 0 1.757-1.08V92.59c-.378-.697-.96-1.046-1.743-1.046-.62 0-1.103.24-1.45.718s-.52 1.187-.52 2.126zm8.32 3.616h-1.265v-7.397h1.265V98zm-1.368-9.358c0-.205.062-.378.185-.52s.314-.212.56-.212.432.07.56.212.192.314.192.52a.72.72 0 0 1-.192.513c-.128.137-.314.205-.56.205s-.433-.068-.56-.205-.185-.308-.185-.513zM197.712 98h-1.265V87.5h1.265V98zm3.404 0h-1.264v-7.397h1.264V98zm-1.367-9.358c0-.205.062-.378.185-.52s.314-.212.56-.212.433.07.56.212a.75.75 0 0 1 .191.519c0 .205-.064.376-.2.513s-.315.205-.56.205-.433-.068-.56-.205a.72.72 0 0 1-.185-.513zm3.097 5.6c0-1.153.266-2.07.8-2.748a2.55 2.55 0 0 1 2.119-1.025c.902 0 1.606.32 2.112.957l.06-.82h1.156v7.22c0 .957-.285 1.7-.855 2.263s-1.326.827-2.283.827a3.8 3.8 0 0 1-1.565-.342c-.5-.228-.9-.54-1.17-.936l.656-.76c.542.67 1.205 1.005 2 1.005.615 0 1.094-.173 1.436-.52s.52-.834.52-1.463v-.636c-.506.583-1.196.875-2.07.875a2.53 2.53 0 0 1-2.105-1.046c-.534-.697-.8-1.647-.8-2.85zm1.27.144c0 .834.17 1.5.513 1.97s.82.7 1.435.7c.798 0 1.384-.362 1.757-1.087V92.6c-.387-.706-.968-1.06-1.743-1.06-.615 0-1.096.24-1.442.718s-.52 1.187-.52 2.126zm9.96 3.753c-1.002 0-1.818-.328-2.447-.984s-.943-1.543-.943-2.645v-.232c0-.734.14-1.388.417-1.962a3.28 3.28 0 0 1 1.175-1.353 2.96 2.96 0 0 1 1.641-.492c.962 0 1.7.317 2.242.95s.8 1.54.8 2.72v.526h-5c.018.73.23 1.32.636 1.77s.93.67 1.56.67c.446 0 .824-.1 1.134-.273a2.86 2.86 0 0 0 .814-.725l.772.602c-.62.953-1.55 1.43-2.8 1.43zm-.157-6.63a1.68 1.68 0 0 0-1.285.561c-.347.37-.56.9-.643 1.56h3.705v-.096c-.036-.643-.2-1.14-.52-1.5s-.73-.533-1.258-.533zm5.708-.902l.04.93a2.69 2.69 0 0 1 2.215-1.066c1.563 0 2.35.882 2.365 2.645V98h-1.265v-4.894c-.004-.533-.127-.927-.37-1.183s-.608-.383-1.114-.383a1.85 1.85 0 0 0-1.08.328c-.3.218-.552.506-.725.86V98h-1.264v-7.397h1.196zm9.495 6.5c.45 0 .845-.137 1.183-.4a1.44 1.44 0 0 0 .56-1.025h1.196c-.022.424-.168.827-.437 1.2s-.63.688-1.08.916a3.09 3.09 0 0 1-1.422.342c-1.007 0-1.8-.335-2.406-1.005s-.9-1.595-.9-2.762v-.212c0-.72.132-1.36.397-1.92s.642-.996 1.134-1.306 1.083-.465 1.757-.465c.83 0 1.518.248 2.065.745s.845 1.142.88 1.935h-1.196c-.036-.478-.22-.87-.547-1.176a1.71 1.71 0 0 0-1.203-.465c-.642 0-1.14.232-1.497.697s-.526 1.128-.526 2.003v.24c0 .852.175 1.508.526 1.97s.852.7 1.504.7zm7.43 1.032c-1.003 0-1.82-.328-2.448-.984s-.943-1.543-.943-2.645v-.232c0-.734.14-1.388.417-1.962s.675-1.03 1.176-1.353a2.99 2.99 0 0 1 1.64-.492c.962 0 1.7.317 2.243.95s.8 1.54.8 2.72v.526h-5c.018.73.23 1.32.635 1.77s.93.67 1.56.67c.447 0 .825-.1 1.135-.273s.58-.424.813-.725l.773.602c-.62.953-1.55 1.43-2.8 1.43zm-.158-6.63a1.68 1.68 0 0 0-1.285.561c-.346.37-.56.9-.642 1.56h3.705v-.096c-.037-.643-.2-1.14-.52-1.5s-.73-.533-1.258-.533zm9.7-2.693v1.8h1.38v.978h-1.38v4.587c0 .296.06.52.184.67s.333.22.63.22a3.06 3.06 0 0 0 .602-.082v1.02c-.333.1-.657.137-.97.137-.565 0-1-.17-1.278-.513s-.43-.827-.43-1.456V91.58h-1.347v-.978h1.347v-1.8h1.265zm4.13 2.686c.56-.688 1.3-1.032 2.187-1.032 1.563 0 2.352.882 2.365 2.645V98h-1.264v-4.894c-.005-.533-.128-.927-.37-1.183s-.6-.383-1.115-.383a1.85 1.85 0 0 0-1.08.328 2.23 2.23 0 0 0-.724.86V98h-1.265V87.5h1.265v4zm10.02.24a3.79 3.79 0 0 0-.622-.048c-.83 0-1.392.353-1.688 1.06V98h-1.265v-7.397h1.23l.02.855c.415-.66 1.002-1 1.764-1 .246 0 .432.032.56.096v1.176zm.697 2.495c0-.725.142-1.376.424-1.955s.684-1.025 1.2-1.34a3.26 3.26 0 0 1 1.743-.472c1.007 0 1.82.35 2.44 1.046s.937 1.625.937 2.782v.1c0 .72-.14 1.367-.417 1.94s-.668 1.014-1.183 1.333c-.5.32-1.098.48-1.764.48-1.002 0-1.816-.35-2.44-1.046s-.93-1.62-.93-2.77v-.1zm1.272.15c0 .82.2 1.48.567 1.976s.893.745 1.53.745 1.153-.25 1.532-.752.567-1.212.567-2.12c0-.8-.194-1.467-.58-1.97a1.82 1.82 0 0 0-1.531-.759 1.81 1.81 0 0 0-1.51.745c-.382.497-.574 1.208-.574 2.133zm11.614 2.885c-.492.58-1.214.868-2.167.868-.788 0-1.4-.228-1.805-.684s-.617-1.14-.622-2.037v-4.812h1.265v4.778c0 1.12.456 1.682 1.367 1.682.966 0 1.6-.36 1.928-1.08v-5.38h1.265V98h-1.204l-.027-.73zm2.858-3.028c0-1.153.266-2.07.8-2.748a2.57 2.57 0 0 1 2.12-1.025c.903 0 1.607.32 2.113.957l.06-.82h1.156v7.22c0 .957-.285 1.7-.855 2.263s-1.326.827-2.283.827c-.533 0-1.055-.114-1.566-.342s-.9-.54-1.17-.936l.657-.76c.542.67 1.205 1.005 2 1.005.615 0 1.094-.173 1.436-.52s.52-.834.52-1.463v-.636c-.506.583-1.196.875-2.07.875-.866 0-1.568-.35-2.106-1.046s-.8-1.647-.8-2.85zm1.27.144c0 .834.17 1.5.513 1.97s.82.7 1.435.7c.798 0 1.383-.362 1.757-1.087V92.6c-.387-.706-.968-1.06-1.743-1.06-.615 0-1.096.24-1.442.718s-.52 1.187-.52 2.126zm8.155-2.885a2.7 2.7 0 0 1 2.188-1.032c1.563 0 2.35.882 2.365 2.645V98h-1.265v-4.894c-.004-.533-.127-.927-.37-1.183s-.608-.383-1.114-.383a1.85 1.85 0 0 0-1.08.328c-.3.218-.552.506-.725.86V98h-1.264V87.5h1.264v4zm-247.85 24.54c0-.342-.13-.606-.4-.793s-.704-.355-1.347-.492-1.146-.3-1.524-.492-.652-.42-.834-.684a1.65 1.65 0 0 1-.267-.943c0-.606.255-1.12.766-1.538s1.17-.63 1.97-.63c.84 0 1.518.216 2.037.65s.786.987.786 1.66H38.2c0-.346-.148-.645-.444-.895s-.66-.376-1.107-.376c-.46 0-.82.1-1.08.3s-.4.462-.4.786c0 .305.12.535.362.7s.677.303 1.306.445 1.146.3 1.538.505.68.433.868.7.287.6.287 1.005a1.9 1.9 0 0 1-.793 1.593c-.53.396-1.215.595-2.058.595-.592 0-1.117-.105-1.572-.315a2.59 2.59 0 0 1-1.073-.875c-.26-.375-.383-.786-.383-1.223h1.265c.023.423.2.76.506 1s.738.37 1.258.37c.478 0 .86-.095 1.148-.287s.438-.455.438-.78zm4.102-5.434l.034.82c.542-.638 1.274-.957 2.194-.957 1.035 0 1.74.396 2.112 1.2.246-.355.565-.642.957-.86s.864-.328 1.4-.328c1.622 0 2.447.86 2.475 2.577V118H50.27v-4.88c0-.53-.12-.923-.362-1.182-.242-.265-.647-.397-1.217-.397-.47 0-.86.14-1.17.424a1.66 1.66 0 0 0-.54 1.128V118h-1.272v-4.847c0-1.075-.526-1.613-1.58-1.613-.83 0-1.397.353-1.702 1.06v5.4H41.17v-7.396h1.196zM58.02 118c-.073-.146-.132-.406-.178-.78-.588.6-1.3.916-2.105.916-.73 0-1.328-.205-1.798-.616s-.697-.938-.697-1.572c0-.77.292-1.367.875-1.8s1.413-.642 2.475-.642h1.23v-.58c0-.442-.132-.793-.397-1.053s-.654-.397-1.17-.397c-.45 0-.83.114-1.135.342s-.458.504-.458.827H53.4c0-.37.13-.724.4-1.066a2.78 2.78 0 0 1 1.067-.82c.447-.2.946-.3 1.483-.3.852 0 1.52.214 2.003.642s.734 1 .752 1.757v3.405c0 .68.087 1.22.26 1.62v.1H58.02zm-2.1-.964c.396 0 .772-.102 1.128-.307s.613-.472.773-.8v-1.518h-1c-1.55 0-2.324.454-2.324 1.36 0 .397.132.707.396.93s.604.335 1.02.335zm8.723-5.298a3.78 3.78 0 0 0-.622-.048c-.83 0-1.392.354-1.7 1.06V118h-1.265v-7.396h1.23l.02.854c.415-.66 1.003-1 1.764-1 .246 0 .433.032.56.095v1.176zm3.226-2.926v1.792h1.38v.977h-1.38v4.587c0 .296.062.52.185.67s.333.22.63.22c.146 0 .346-.028.602-.082V118a3.72 3.72 0 0 1-.97.137c-.565 0-1-.17-1.278-.513s-.43-.827-.43-1.456v-4.587H65.26v-.977h1.347v-1.792h1.265zM75.58 118h-1.265v-7.396h1.265V118zm-1.367-9.358c0-.205.062-.38.184-.52s.315-.212.56-.212.433.07.56.212a.75.75 0 0 1 .19.52.72.72 0 0 1-.191.512c-.128.137-.314.205-.56.205s-.433-.068-.56-.205-.184-.307-.184-.512zm3.1 5.598c0-1.135.27-2.046.807-2.734s1.242-1.04 2.112-1.04 1.552.296 2.058.888V107.5h1.265V118h-1.162l-.062-.793c-.506.62-1.2.93-2.112.93-.857 0-1.556-.35-2.1-1.053s-.807-1.618-.807-2.748v-.096zm1.265.144c0 .838.173 1.495.52 1.97s.825.7 1.435.7c.802 0 1.388-.36 1.757-1.08v-3.397c-.378-.697-.96-1.046-1.743-1.046-.62 0-1.103.24-1.45.718s-.52 1.187-.52 2.126zm10.015 3.753c-1.003 0-1.818-.328-2.447-.985s-.943-1.542-.943-2.645v-.233c0-.733.14-1.387.417-1.962s.675-1.03 1.176-1.353a2.99 2.99 0 0 1 1.64-.492c.962 0 1.7.317 2.242.95s.8 1.54.8 2.72v.526h-5c.018.73.23 1.32.636 1.77.4.446.93.67 1.56.67.447 0 .825-.1 1.135-.273a2.87 2.87 0 0 0 .813-.725l.773.602c-.62.952-1.55 1.43-2.8 1.43zm-.157-6.63c-.5 0-.94.187-1.285.56s-.56.9-.643 1.56h3.705v-.096c-.036-.642-.2-1.14-.52-1.5s-.73-.533-1.258-.533zm5.708-.902l.04.93a2.69 2.69 0 0 1 2.215-1.066c1.563 0 2.352.882 2.365 2.645V118H97.5v-4.895c-.005-.533-.128-.927-.37-1.182s-.608-.383-1.114-.383a1.85 1.85 0 0 0-1.08.328c-.3.218-.552.506-.725.86V118h-1.265v-7.396h1.196zm8.244-1.792v1.792h1.38v.977h-1.38v4.587c0 .296.06.52.184.67s.333.22.63.22c.146 0 .347-.028.602-.082V118a3.72 3.72 0 0 1-.97.137c-.565 0-1-.17-1.278-.513s-.43-.827-.43-1.456v-4.587H99.78v-.977h1.346v-1.792h1.265zm4.238 9.188h-1.264v-7.396h1.264V118zm-1.367-9.358c0-.205.062-.38.185-.52s.314-.212.56-.212.433.07.56.212a.75.75 0 0 1 .191.52c0 .205-.064.376-.2.512s-.315.205-.56.205-.433-.068-.56-.205-.185-.307-.185-.512zm3.82 9.358v-6.42h-1.17v-.977h1.17v-.63c0-.825.235-1.468.704-1.928.474-.46 1.142-.7 2.003-.7.5 0 1.156.14 1.935.417l-.212 1.067c-.57-.228-1.112-.342-1.627-.342-.542 0-.934.123-1.176.37s-.355.606-.355 1.094v.643h1.5v.977h-1.5V118h-1.272zm5.27 0h-1.272v-7.396h1.272V118zm5.127.137c-1.003 0-1.82-.328-2.447-.985s-.944-1.542-.944-2.645v-.233c0-.733.14-1.387.417-1.962s.675-1.03 1.176-1.353a2.96 2.96 0 0 1 1.641-.492c.96 0 1.7.317 2.242.95s.8 1.54.8 2.72v.526h-5c.018.73.23 1.32.636 1.77.4.446.93.67 1.558.67.447 0 .825-.1 1.135-.273s.58-.424.813-.725l.773.602c-.62.952-1.55 1.43-2.8 1.43zm-.157-6.63c-.5 0-.94.187-1.286.56s-.56.9-.642 1.56h3.705v-.096c-.037-.642-.2-1.14-.52-1.5s-.73-.533-1.257-.533zm8.086.232c-.2-.032-.398-.048-.622-.048-.83 0-1.392.354-1.688 1.06V118h-1.265v-7.396h1.23l.02.854c.415-.66 1.003-1 1.764-1 .246 0 .433.032.56.095v1.176zm5.476 4.3c0-.342-.13-.606-.4-.793s-.704-.355-1.346-.492-1.146-.3-1.525-.492c-.373-.192-.65-.42-.834-.684-.177-.264-.266-.58-.266-.943 0-.606.255-1.12.765-1.538.515-.42 1.172-.63 1.97-.63.84 0 1.518.216 2.037.65.524.433.786.987.786 1.66h-1.27c0-.346-.148-.645-.444-.895s-.66-.376-1.108-.376c-.46 0-.82.1-1.08.3s-.4.462-.4.786a.79.79 0 0 0 .363.7c.243.165.676.303 1.305.445s1.146.3 1.538.505.682.433.87.7.287.6.287 1.005a1.9 1.9 0 0 1-.793 1.593c-.53.396-1.215.595-2.058.595-.592 0-1.116-.105-1.572-.315s-.814-.5-1.073-.875a2.14 2.14 0 0 1-.383-1.223h1.264c.023.423.192.76.506 1 .32.246.74.37 1.258.37.48 0 .86-.095 1.15-.287s.437-.455.437-.78zm10.95 1.962c-.073-.146-.132-.406-.178-.78-.587.6-1.3.916-2.105.916-.73 0-1.328-.205-1.798-.616a2.01 2.01 0 0 1-.697-1.572c0-.77.292-1.367.875-1.8s1.413-.642 2.475-.642h1.23v-.58c0-.442-.132-.793-.397-1.053s-.653-.397-1.168-.397c-.452 0-.83.114-1.135.342s-.458.504-.458.827h-1.272c0-.37.13-.724.4-1.066a2.7 2.7 0 0 1 1.066-.82 3.62 3.62 0 0 1 1.484-.3c.852 0 1.52.214 2.003.642s.733 1 .752 1.757v3.405c0 .68.086 1.22.26 1.62v.1h-1.326zm-2.098-.964c.396 0 .772-.102 1.128-.307s.612-.472.772-.8v-1.518h-1c-1.55 0-2.324.454-2.324 1.36 0 .397.132.707.396.93s.604.335 1.02.335zm6.343-6.432l.04.93c.565-.7 1.304-1.066 2.215-1.066 1.563 0 2.352.882 2.365 2.645V118h-1.264v-4.895c-.005-.533-.128-.927-.37-1.182s-.6-.383-1.115-.383a1.85 1.85 0 0 0-1.08.328 2.23 2.23 0 0 0-.724.861V118h-1.265v-7.396h1.196zm6.22 3.636c0-1.135.27-2.046.807-2.734s1.242-1.04 2.112-1.04 1.552.296 2.058.888V107.5h1.264V118h-1.162l-.06-.793c-.506.62-1.2.93-2.113.93-.856 0-1.556-.35-2.098-1.053s-.807-1.618-.807-2.748v-.096zm1.265.144c0 .838.173 1.495.52 1.97a1.68 1.68 0 0 0 1.436.71c.802 0 1.387-.36 1.757-1.08v-3.397c-.38-.697-.96-1.046-1.744-1.046a1.69 1.69 0 0 0-1.45.718c-.348.478-.52 1.187-.52 2.126zm12.133-5.572v1.792h1.38v.977h-1.38v4.587c0 .296.062.52.185.67s.333.22.63.22a3.11 3.11 0 0 0 .602-.082v1.022a3.68 3.68 0 0 1-.971.137c-.565 0-1-.17-1.28-.513s-.43-.827-.43-1.456v-4.587h-1.347v-.977h1.347v-1.792h1.264zm4.24 9.188h-1.265v-7.396h1.265V118zm-1.367-9.358c0-.205.06-.38.184-.52s.315-.212.56-.212.433.07.56.212.192.315.192.52-.064.376-.192.512-.314.205-.56.205-.433-.068-.56-.205-.184-.307-.184-.512zm5.113.17v1.792h1.38v.977h-1.38v4.587c0 .296.06.52.184.67s.333.22.63.22a3.1 3.1 0 0 0 .602-.082V118a3.72 3.72 0 0 1-.97.137c-.565 0-1-.17-1.278-.513s-.43-.827-.43-1.456v-4.587h-1.346v-.977h1.346v-1.792h1.265zM179.9 118h-1.265v-10.5h1.265V118zm5.1.137c-1.003 0-1.82-.328-2.448-.985s-.943-1.542-.943-2.645v-.233c0-.733.14-1.387.417-1.962s.675-1.03 1.176-1.353a2.96 2.96 0 0 1 1.641-.492c.96 0 1.708.317 2.242.95s.8 1.54.8 2.72v.526h-5c.018.73.23 1.32.636 1.77.4.446.93.67 1.558.67.447 0 .825-.1 1.135-.273a2.87 2.87 0 0 0 .813-.725l.773.602c-.62.952-1.55 1.43-2.8 1.43zm-.157-6.63c-.5 0-.94.187-1.286.56s-.56.9-.642 1.56h3.705v-.096c-.037-.642-.2-1.14-.52-1.5s-.73-.533-1.257-.533zm11.56.232c-.2-.032-.4-.048-.622-.048-.83 0-1.392.354-1.688 1.06V118h-1.265v-7.396h1.23l.02.854c.415-.66 1.002-1 1.764-1 .246 0 .432.032.56.095v1.176zm4.102 6.4c-1.003 0-1.82-.328-2.448-.985s-.943-1.542-.943-2.645v-.233c0-.733.14-1.387.417-1.962.283-.578.674-1.03 1.176-1.353a2.96 2.96 0 0 1 1.64-.492c.962 0 1.7.317 2.243.95s.8 1.54.8 2.72v.526h-5c.018.73.23 1.32.635 1.77.4.446.93.67 1.56.67.447 0 .825-.1 1.135-.273s.58-.424.813-.725l.773.602c-.62.952-1.55 1.43-2.8 1.43zm-.158-6.63a1.7 1.7 0 0 0-1.285.56c-.347.373-.56.9-.642 1.56h3.705v-.096c-.037-.642-.2-1.14-.52-1.5s-.73-.533-1.258-.533zm4.2 2.734c0-1.153.267-2.07.8-2.748s1.24-1.025 2.12-1.025c.903 0 1.607.32 2.113.957l.06-.82h1.155v7.218c0 .957-.284 1.712-.854 2.263-.565.55-1.326.827-2.283.827-.533 0-1.055-.114-1.566-.342s-.9-.54-1.17-.936l.657-.76c.542.67 1.205 1.005 2 1.005.615 0 1.094-.173 1.435-.52.347-.346.52-.834.52-1.463v-.635c-.506.583-1.196.875-2.07.875-.866 0-1.568-.35-2.106-1.046-.533-.697-.8-1.648-.8-2.85zm1.272.144c0 .834.17 1.5.513 1.97s.82.7 1.435.7c.798 0 1.383-.362 1.757-1.086v-3.37c-.387-.707-.97-1.06-1.743-1.06a1.68 1.68 0 0 0-1.443.718c-.346.478-.52 1.187-.52 2.126zm8.264 3.616h-1.264v-7.396h1.264V118zm-1.367-9.358c0-.205.062-.38.185-.52s.314-.212.56-.212.433.07.56.212a.75.75 0 0 1 .19.52c0 .205-.063.376-.2.512s-.314.205-.56.205-.433-.068-.56-.205a.72.72 0 0 1-.185-.512zm7.704 7.396c0-.342-.13-.606-.4-.793s-.704-.355-1.347-.492-1.146-.3-1.524-.492-.652-.42-.834-.684-.267-.58-.267-.943c0-.606.255-1.12.766-1.538s1.17-.63 1.968-.63c.84 0 1.518.216 2.038.65a2.07 2.07 0 0 1 .786 1.66h-1.272c0-.346-.148-.645-.444-.895s-.66-.376-1.108-.376c-.46 0-.82.1-1.08.3s-.4.462-.4.786c0 .305.12.535.362.7s.677.303 1.306.445 1.146.3 1.538.505.68.433.868.7.287.6.287 1.005a1.9 1.9 0 0 1-.793 1.593c-.53.396-1.214.595-2.058.595-.592 0-1.116-.105-1.572-.315s-.813-.5-1.073-.875-.383-.786-.383-1.223h1.265a1.32 1.32 0 0 0 .506 1.011c.32.246.738.37 1.257.37.48 0 .862-.095 1.15-.287s.437-.455.437-.78zm4.628-7.226v1.792h1.38v.977h-1.38v4.587c0 .296.062.52.185.67s.333.22.63.22c.146 0 .346-.028.6-.082V118c-.332.1-.656.137-.97.137-.565 0-.992-.17-1.28-.513s-.43-.827-.43-1.456v-4.587h-1.347v-.977h1.347v-1.792h1.264zm6.44 2.926a3.77 3.77 0 0 0-.622-.048c-.83 0-1.393.354-1.7 1.06V118h-1.264v-7.396h1.23l.02.854c.414-.66 1.002-1 1.763-1 .246 0 .433.032.56.095v1.176zm3.712 4.4l1.722-5.543h1.354l-2.974 8.538c-.46 1.23-1.2 1.845-2.194 1.845l-.24-.02-.472-.1v-1.025l.342.027c.428 0 .76-.087.998-.26s.44-.5.595-.95l.28-.752-2.64-7.314h1.38l1.846 5.543zM37.806 143.974h-2.338V148h-1.32v-9.953h3.295c1.12 0 1.982.255 2.584.765s.9 1.254.9 2.23c0 .62-.17 1.16-.506 1.62s-.798.804-1.395 1.032l2.338 4.225v.08h-1.408l-2.16-4.026zm-2.338-1.074h2.017c.652 0 1.17-.168 1.552-.505s.58-.8.58-1.354c0-.615-.185-1.087-.554-1.415s-.893-.494-1.586-.5h-2v3.773zm10.186 5.237c-1.003 0-1.818-.328-2.447-.985s-.943-1.542-.943-2.645v-.233c0-.733.14-1.387.417-1.962s.675-1.03 1.176-1.353a2.99 2.99 0 0 1 1.64-.492c.962 0 1.7.317 2.242.95s.8 1.54.8 2.72v.526h-5c.018.73.23 1.32.636 1.77.4.446.93.67 1.56.67.447 0 .825-.1 1.135-.273s.58-.424.813-.725l.773.602c-.62.952-1.55 1.43-2.8 1.43zm-.157-6.63c-.5 0-.94.187-1.285.56s-.56.9-.643 1.56h3.705v-.096c-.036-.642-.2-1.14-.52-1.5s-.73-.533-1.258-.533zm6.856 4.778l1.832-5.68h1.292L52.824 148h-.964l-2.68-7.396h1.292l1.88 5.68zM58.067 148h-1.265v-7.396h1.265V148zm-1.367-9.358c0-.205.06-.38.185-.52s.314-.212.56-.212.433.07.56.212a.75.75 0 0 1 .19.52.72.72 0 0 1-.191.512c-.128.137-.314.205-.56.205s-.433-.068-.56-.205-.185-.307-.185-.512zm6.467 9.495c-1.003 0-1.818-.328-2.447-.985s-.943-1.542-.943-2.645v-.233c0-.733.14-1.387.417-1.962s.674-1.03 1.176-1.353a2.96 2.96 0 0 1 1.641-.492c.962 0 1.7.317 2.242.95s.8 1.54.8 2.72v.526h-5c.018.73.23 1.32.636 1.77.4.446.93.67 1.56.67.447 0 .825-.1 1.135-.273a2.88 2.88 0 0 0 .814-.725l.773.602c-.62.952-1.55 1.43-2.8 1.43zm-.157-6.63a1.68 1.68 0 0 0-1.285.56c-.345.373-.56.9-.643 1.56h3.705v-.096c-.036-.642-.2-1.14-.52-1.5s-.73-.533-1.258-.533zm11.06 4.75l1.422-5.653h1.265L74.604 148H73.58l-1.798-5.605L70.03 148h-1.025l-2.147-7.396h1.258l1.456 5.537 1.723-5.537h1.02l1.757 5.653zM86.088 148c-.073-.146-.132-.406-.178-.78-.588.6-1.3.916-2.106.916-.73 0-1.328-.205-1.798-.616s-.697-.938-.697-1.572c0-.77.292-1.367.875-1.8s1.413-.642 2.475-.642h1.23v-.58c0-.442-.132-.793-.396-1.053s-.654-.397-1.17-.397c-.45 0-.83.114-1.135.342s-.458.504-.458.827h-1.27c0-.37.13-.724.4-1.066a2.78 2.78 0 0 1 1.066-.82 3.6 3.6 0 0 1 1.483-.3c.852 0 1.52.214 2.003.642s.734 1 .752 1.757v3.405c0 .68.087 1.22.26 1.62v.1h-1.326zm-2.1-.964c.396 0 .772-.102 1.128-.307s.613-.472.772-.8v-1.518h-1c-1.55 0-2.324.454-2.324 1.36 0 .397.132.707.396.93s.604.335 1.02.335zm6.344-6.432l.04.93a2.69 2.69 0 0 1 2.215-1.066c1.563 0 2.352.882 2.365 2.645V148H93.7v-4.895c-.005-.533-.128-.927-.37-1.182s-.608-.383-1.114-.383a1.85 1.85 0 0 0-1.08.328 2.23 2.23 0 0 0-.725.861v5.27h-1.265v-7.396h1.196zm6.22 3.636c0-1.135.27-2.046.807-2.734s1.242-1.04 2.112-1.04 1.55.296 2.057.888V137.5h1.265V148h-1.162l-.062-.793c-.506.62-1.2.93-2.112.93-.857 0-1.556-.35-2.1-1.053s-.807-1.618-.807-2.748v-.096zm1.265.144c0 .838.173 1.495.52 1.97s.825.7 1.435.7a1.84 1.84 0 0 0 1.757-1.08v-3.397c-.378-.697-.96-1.046-1.743-1.046-.62 0-1.103.24-1.45.718s-.52 1.187-.52 2.126zm14.725 1.654c0-.342-.13-.606-.4-.793s-.704-.355-1.346-.492-1.147-.3-1.525-.492-.65-.42-.834-.684c-.177-.264-.266-.58-.266-.943 0-.606.255-1.12.765-1.538s1.17-.63 1.97-.63c.84 0 1.518.216 2.037.65s.786.987.786 1.66h-1.27c0-.346-.148-.645-.445-.895-.3-.25-.66-.376-1.107-.376-.46 0-.82.1-1.08.3s-.4.462-.4.786a.79.79 0 0 0 .363.7c.243.165.676.303 1.305.445s1.146.3 1.538.505.682.433.87.7.287.6.287 1.005a1.9 1.9 0 0 1-.793 1.593c-.53.396-1.215.595-2.058.595-.592 0-1.117-.105-1.572-.315s-.814-.5-1.073-.875a2.14 2.14 0 0 1-.383-1.223h1.264c.023.423.192.76.506 1 .32.246.74.37 1.258.37.48 0 .86-.095 1.148-.287s.438-.455.438-.78zM116.83 148h-1.265v-7.396h1.265V148zm-1.367-9.358c0-.205.06-.38.184-.52s.315-.212.56-.212.433.07.56.212a.75.75 0 0 1 .191.52c0 .205-.064.376-.2.512s-.315.205-.56.205-.433-.068-.56-.205-.184-.307-.184-.512zm3.097 5.598c0-1.153.266-2.07.8-2.748a2.57 2.57 0 0 1 2.12-1.025c.902 0 1.606.32 2.112.957l.06-.82h1.156v7.218c0 .957-.285 1.712-.855 2.263s-1.326.827-2.283.827a3.8 3.8 0 0 1-1.565-.342c-.5-.228-.9-.54-1.17-.936l.656-.76c.542.67 1.205 1.005 2 1.005.615 0 1.094-.173 1.436-.52s.52-.834.52-1.463v-.635c-.506.583-1.196.875-2.07.875-.866 0-1.568-.35-2.106-1.046s-.8-1.648-.8-2.85zm1.27.144c0 .834.17 1.5.513 1.97s.82.7 1.435.7c.798 0 1.383-.362 1.757-1.086V142.6c-.387-.707-.968-1.06-1.743-1.06-.615 0-1.096.24-1.442.718s-.52 1.187-.52 2.126zm8.087-3.78l.04.93a2.69 2.69 0 0 1 2.215-1.066c1.563 0 2.35.882 2.365 2.645V148h-1.265v-4.895c-.004-.533-.127-.927-.37-1.182s-.608-.383-1.114-.383a1.85 1.85 0 0 0-1.08.328 2.24 2.24 0 0 0-.725.861V148h-1.264v-7.396h1.196zM135.82 148h-1.264v-7.396h1.264V148zm-1.367-9.358c0-.205.062-.38.185-.52s.314-.212.56-.212.433.07.56.212a.75.75 0 0 1 .191.52c0 .205-.064.376-.2.512s-.315.205-.56.205-.433-.068-.56-.205-.185-.307-.185-.512zm4.594 1.962l.04.93a2.69 2.69 0 0 1 2.215-1.066c1.563 0 2.35.882 2.365 2.645V148h-1.265v-4.895c-.004-.533-.127-.927-.37-1.182-.237-.255-.608-.383-1.114-.383a1.85 1.85 0 0 0-1.08.328 2.23 2.23 0 0 0-.725.861V148h-1.264v-7.396h1.196zm6.227 3.636c0-1.153.267-2.07.8-2.748s1.24-1.025 2.12-1.025c.903 0 1.607.32 2.113.957l.06-.82h1.155v7.218c0 .957-.284 1.712-.854 2.263s-1.326.827-2.283.827c-.533 0-1.055-.114-1.566-.342s-.9-.54-1.17-.936l.657-.76c.542.67 1.205 1.005 2 1.005.615 0 1.094-.173 1.435-.52.347-.346.52-.834.52-1.463v-.635c-.506.583-1.196.875-2.07.875-.866 0-1.568-.35-2.106-1.046s-.8-1.648-.8-2.85zm1.272.144c0 .834.17 1.5.513 1.97s.82.7 1.435.7c.798 0 1.383-.362 1.757-1.086V142.6c-.387-.707-.968-1.06-1.743-1.06a1.68 1.68 0 0 0-1.443.718c-.346.478-.52 1.187-.52 2.126zm10.028-.15c0-.724.142-1.376.424-1.955s.684-1.025 1.2-1.34 1.1-.47 1.743-.47c1.007 0 1.82.348 2.44 1.046s.937 1.624.937 2.782v.1c0 .72-.14 1.367-.417 1.94s-.668 1.014-1.183 1.333c-.5.32-1.098.48-1.764.48-1.002 0-1.816-.35-2.44-1.046s-.93-1.62-.93-2.77v-.1zm1.272.15c0 .82.2 1.48.567 1.975a1.83 1.83 0 0 0 1.53.745c.637 0 1.153-.25 1.532-.75s.567-1.213.567-2.12c0-.8-.194-1.467-.58-1.968a1.82 1.82 0 0 0-1.531-.759 1.81 1.81 0 0 0-1.51.745c-.382.497-.574 1.208-.574 2.133zm7.67 3.616v-6.42h-1.17v-.977h1.17v-.76c0-.793.212-1.406.635-1.84s1.024-.65 1.798-.65c.292 0 .58.04.868.117l-.068 1.025c-.214-.04-.442-.06-.684-.06-.4 0-.726.12-.95.362s-.335.58-.335 1.025v.78h1.58v.977h-1.58V148h-1.264zm12.024-1.962c0-.342-.13-.606-.4-.793s-.704-.355-1.346-.492-1.146-.3-1.525-.492c-.373-.192-.65-.42-.834-.684-.177-.264-.266-.58-.266-.943 0-.606.255-1.12.765-1.538s1.172-.63 1.97-.63c.84 0 1.518.216 2.037.65s.786.987.786 1.66h-1.27c0-.346-.148-.645-.444-.895s-.66-.376-1.108-.376c-.46 0-.82.1-1.08.3s-.4.462-.4.786a.79.79 0 0 0 .363.7c.243.165.676.303 1.305.445s1.147.3 1.538.505.682.433.87.7.287.6.287 1.005a1.9 1.9 0 0 1-.793 1.593c-.53.396-1.215.595-2.058.595-.592 0-1.116-.105-1.572-.315s-.814-.5-1.073-.875a2.14 2.14 0 0 1-.383-1.223h1.264c.023.423.192.76.506 1 .32.246.74.37 1.258.37.48 0 .86-.095 1.15-.287s.437-.455.437-.78zm4.102-5.434l.034.82c.542-.638 1.274-.957 2.194-.957 1.035 0 1.74.396 2.112 1.2a2.82 2.82 0 0 1 .957-.86c.397-.22.864-.328 1.402-.328 1.622 0 2.447.86 2.474 2.577V148h-1.264v-4.88c0-.53-.12-.923-.362-1.182-.242-.265-.648-.397-1.217-.397-.47 0-.86.14-1.17.424a1.66 1.66 0 0 0-.54 1.128V148H185v-4.847c0-1.075-.526-1.613-1.58-1.613-.83 0-1.397.353-1.702 1.06v5.4h-1.265v-7.396h1.197zM197.295 148c-.073-.146-.132-.406-.178-.78-.588.6-1.3.916-2.105.916-.73 0-1.33-.205-1.798-.616a2.01 2.01 0 0 1-.697-1.572c0-.77.3-1.367.875-1.8s1.412-.642 2.474-.642h1.23v-.58c0-.442-.132-.793-.397-1.053s-.654-.397-1.17-.397c-.45 0-.83.114-1.135.342s-.458.504-.458.827h-1.27c0-.37.13-.724.4-1.066a2.78 2.78 0 0 1 1.066-.82 3.6 3.6 0 0 1 1.483-.3c.853 0 1.52.214 2.003.642s.734 1 .752 1.757v3.405c0 .68.087 1.22.26 1.62v.1h-1.326zm-2.1-.964a2.22 2.22 0 0 0 1.128-.307c.356-.206.613-.472.773-.8v-1.518h-.992c-1.55 0-2.324.454-2.324 1.36 0 .397.132.707.397.93s.604.335 1.018.335zm8.723-5.298c-.2-.032-.4-.048-.622-.048-.83 0-1.392.354-1.7 1.06V148h-1.264v-7.396h1.23l.02.854c.414-.66 1.002-1 1.763-1 .246 0 .433.032.56.095v1.176zm3.227-2.926v1.792h1.38v.977h-1.38v4.587c0 .296.06.52.184.67s.333.22.63.22c.146 0 .346-.028.602-.082V148a3.68 3.68 0 0 1-.971.137c-.565 0-1-.17-1.278-.513s-.43-.827-.43-1.456v-4.587h-1.347v-.977h1.347v-1.792h1.265zm9.303 8.292a1.82 1.82 0 0 0 1.183-.41 1.44 1.44 0 0 0 .56-1.025h1.197c-.023.424-.17.827-.438 1.2a2.97 2.97 0 0 1-1.08.916 3.09 3.09 0 0 1-1.422.342c-1.007 0-1.8-.335-2.406-1.005-.592-.675-.9-1.595-.9-2.762v-.212c0-.72.132-1.36.397-1.92s.642-.995 1.135-1.305 1.082-.465 1.756-.465c.83 0 1.518.248 2.065.745s.845 1.142.882 1.934H218.2a1.72 1.72 0 0 0-.546-1.175 1.7 1.7 0 0 0-1.204-.465c-.642 0-1.14.232-1.497.697s-.526 1.128-.526 2.003v.24c0 .853.175 1.5.526 1.97s.853.7 1.504.7zm4.027-2.87c0-.724.14-1.376.423-1.955.288-.578.684-1.025 1.2-1.34s1.1-.47 1.743-.47c1.007 0 1.82.348 2.44 1.046s.937 1.624.937 2.782v.1c0 .72-.14 1.367-.417 1.94a3.11 3.11 0 0 1-1.183 1.333c-.5.32-1.098.48-1.763.48-1.003 0-1.816-.35-2.44-1.046s-.93-1.62-.93-2.77v-.1zm1.27.15c0 .82.2 1.48.567 1.975.383.497.894.745 1.532.745a1.82 1.82 0 0 0 1.53-.75c.377-.5.567-1.213.567-2.12 0-.8-.193-1.467-.58-1.968a1.82 1.82 0 0 0-1.531-.759 1.81 1.81 0 0 0-1.51.745c-.382.497-.574 1.208-.574 2.133zm8.244-3.78l.04.93c.565-.7 1.304-1.066 2.215-1.066 1.563 0 2.352.882 2.365 2.645V148h-1.264v-4.895c-.005-.533-.128-.927-.37-1.182s-.6-.383-1.115-.383a1.85 1.85 0 0 0-1.08.328 2.23 2.23 0 0 0-.724.861V148h-1.265v-7.396h1.196zm8.244-1.792v1.792h1.38v.977h-1.38v4.587c0 .296.062.52.185.67s.333.22.63.22c.146 0 .346-.028.6-.082V148c-.332.1-.656.137-.97.137-.565 0-.992-.17-1.28-.513s-.43-.827-.43-1.456v-4.587h-1.347v-.977h1.347v-1.792h1.264zm6.44 2.926c-.192-.032-.4-.048-.622-.048-.83 0-1.393.354-1.7 1.06V148h-1.26v-7.396h1.23l.02.854c.414-.66 1.002-1 1.763-1 .246 0 .433.032.56.095v1.176zm5.462 6.262c-.073-.146-.132-.406-.178-.78-.588.6-1.3.916-2.105.916-.73 0-1.33-.205-1.798-.616s-.698-.938-.698-1.572c0-.77.292-1.367.875-1.8s1.413-.642 2.475-.642h1.23v-.58c0-.442-.132-.793-.396-1.053s-.654-.397-1.17-.397c-.45 0-.83.114-1.135.342s-.458.504-.458.827h-1.27c0-.37.13-.724.4-1.066s.62-.62 1.067-.82a3.6 3.6 0 0 1 1.483-.301c.852 0 1.52.214 2.003.642s.734 1 .752 1.757v3.405c0 .68.087 1.22.26 1.62v.1h-1.326zm-2.1-.964a2.22 2.22 0 0 0 1.128-.307c.355-.206.613-.472.772-.8v-1.518h-1c-1.55 0-2.324.454-2.324 1.36 0 .397.132.707.397.93s.603.335 1.018.335zm8.114.068c.452 0 .846-.136 1.183-.4s.524-.615.56-1.025h1.196c-.023.424-.17.827-.438 1.2a2.97 2.97 0 0 1-1.08.916 3.08 3.08 0 0 1-1.422.342c-1.007 0-1.8-.335-2.406-1.005s-.9-1.595-.9-2.762v-.212c0-.72.133-1.36.397-1.92s.642-.995 1.135-1.305 1.082-.465 1.757-.465c.83 0 1.517.248 2.064.745s.845 1.142.882 1.934h-1.196c-.037-.478-.22-.87-.547-1.175s-.725-.465-1.203-.465c-.643 0-1.142.232-1.498.697-.35.46-.526 1.128-.526 2.003v.24c0 .853.176 1.5.526 1.97s.853.7 1.504.7zm6.077-8.292v1.792h1.38v.977h-1.38v4.587c0 .296.062.52.185.67s.333.22.63.22c.146 0 .346-.028.602-.082V148a3.68 3.68 0 0 1-.971.137c-.565 0-1-.17-1.278-.513s-.43-.827-.43-1.456v-4.587h-1.347v-.977h1.347v-1.792h1.264zm7.17 7.226c0-.342-.13-.606-.4-.793s-.704-.355-1.347-.492c-.638-.137-1.146-.3-1.524-.492s-.652-.42-.834-.684-.267-.58-.267-.943c0-.606.255-1.12.766-1.538s1.17-.63 1.968-.63c.84 0 1.518.216 2.038.65a2.07 2.07 0 0 1 .786 1.66h-1.272c0-.346-.148-.645-.444-.895s-.66-.376-1.108-.376c-.46 0-.82.1-1.08.3s-.4.462-.4.786c0 .305.12.535.362.7s.677.303 1.306.445 1.146.3 1.538.505.68.433.868.7.287.6.287 1.005a1.9 1.9 0 0 1-.793 1.593c-.53.396-1.214.595-2.058.595-.592 0-1.116-.105-1.572-.315s-.813-.5-1.073-.875-.383-.786-.383-1.223h1.265a1.32 1.32 0 0 0 .506 1.011c.32.246.738.37 1.257.37.48 0 .862-.095 1.15-.287s.437-.455.437-.78zM39.78 173.4h-4.313v3.528h5V178h-6.323v-9.953H40.4v1.08h-4.942v3.2h4.313v1.073zm4.614-.095l1.64-2.7h1.477l-2.42 3.657 2.495 3.74h-1.463l-1.7-2.77-1.7 2.77h-1.47l2.495-3.74-2.42-3.657h1.463l1.62 2.7zm7.397 4.833c-1.003 0-1.818-.328-2.447-.985s-.943-1.542-.943-2.645v-.233c0-.733.14-1.387.417-1.962s.674-1.03 1.176-1.353a2.96 2.96 0 0 1 1.641-.492c.962 0 1.7.317 2.242.95s.8 1.54.8 2.72v.526h-5c.018.73.23 1.32.636 1.77.4.446.93.67 1.56.67.447 0 .825-.1 1.135-.273s.58-.424.813-.725l.773.602c-.62.952-1.55 1.43-2.8 1.43zm-.157-6.63a1.68 1.68 0 0 0-1.285.56c-.345.373-.56.9-.643 1.56h3.705v-.096c-.036-.642-.2-1.14-.52-1.5s-.73-.533-1.258-.533zm7.48 5.598a1.87 1.87 0 0 0 1.183-.4 1.44 1.44 0 0 0 .56-1.025h1.196c-.023.424-.17.827-.437 1.2a2.96 2.96 0 0 1-1.08.916c-.45.228-.92.342-1.422.342-1.007 0-1.8-.335-2.406-1.005s-.9-1.595-.9-2.762v-.212c0-.72.132-1.36.396-1.92a3.03 3.03 0 0 1 1.135-1.305c.497-.3 1.082-.465 1.757-.465.83 0 1.518.248 2.065.745s.845 1.142.882 1.934h-1.196c-.036-.478-.22-.87-.547-1.175a1.67 1.67 0 0 0-1.203-.465c-.642 0-1.142.232-1.497.697s-.526 1.128-.526 2.003v.24c0 .853.175 1.5.526 1.97s.852.7 1.504.7zm8.928.165c-.492.578-1.215.868-2.167.868-.788 0-1.4-.228-1.805-.684s-.617-1.14-.622-2.037v-4.812h1.265v4.778c0 1.12.456 1.68 1.367 1.68.966 0 1.6-.36 1.928-1.08v-5.38h1.265V178H68.07l-.027-.73zm4.874-8.457v1.792h1.38v.977h-1.38v4.587c0 .296.062.52.185.67s.333.22.63.22a3.11 3.11 0 0 0 .602-.082V178a3.72 3.72 0 0 1-.97.137c-.565 0-1-.17-1.278-.513s-.43-.827-.43-1.456v-4.587h-1.347v-.977h1.347v-1.792h1.265zM77.153 178H75.9v-7.396h1.265V178zm-1.367-9.358c0-.205.062-.38.185-.52s.315-.212.56-.212.433.07.56.212a.75.75 0 0 1 .19.52.72.72 0 0 1-.191.512c-.128.137-.315.205-.56.205s-.433-.068-.56-.205-.185-.307-.185-.512zm3.063 5.6c0-.724.14-1.376.424-1.955a3.2 3.2 0 0 1 1.19-1.34c.506-.315 1.1-.47 1.743-.47 1.007 0 1.82.348 2.44 1.046s.936 1.624.936 2.782v.1c0 .72-.14 1.367-.417 1.94s-.668 1.014-1.183 1.333a3.27 3.27 0 0 1-1.764.48c-1.003 0-1.816-.35-2.44-1.046s-.93-1.62-.93-2.77v-.1zm1.27.15c0 .82.2 1.48.567 1.975a1.83 1.83 0 0 0 1.53.745 1.82 1.82 0 0 0 1.53-.75c.377-.5.567-1.213.567-2.12 0-.8-.194-1.467-.58-1.968a1.82 1.82 0 0 0-1.531-.759 1.81 1.81 0 0 0-1.51.745c-.382.497-.574 1.208-.574 2.133zm8.244-3.78l.04.93a2.69 2.69 0 0 1 2.215-1.066c1.563 0 2.352.882 2.365 2.645V178H91.72v-4.895c-.005-.533-.128-.927-.37-1.182s-.608-.383-1.114-.383a1.85 1.85 0 0 0-1.08.328c-.3.218-.55.506-.725.86V178h-1.265v-7.396h1.196zm9.666 3.63c0-.724.14-1.376.424-1.955s.684-1.025 1.2-1.34 1.1-.47 1.743-.47c1.007 0 1.82.348 2.44 1.046s.937 1.624.937 2.782v.1c0 .72-.14 1.367-.417 1.94s-.668 1.014-1.183 1.333a3.27 3.27 0 0 1-1.764.48c-1.002 0-1.816-.35-2.44-1.046s-.93-1.62-.93-2.77v-.1zm1.272.15c0 .82.2 1.48.567 1.975a1.83 1.83 0 0 0 1.53.745c.637 0 1.153-.25 1.532-.75s.567-1.213.567-2.12c0-.8-.194-1.467-.58-1.968a1.82 1.82 0 0 0-1.531-.759 1.81 1.81 0 0 0-1.51.745c-.382.497-.574 1.208-.574 2.133zm7.67 3.616v-6.42h-1.17v-.977h1.17v-.76c0-.793.212-1.406.635-1.84s1.024-.65 1.798-.65c.292 0 .58.04.868.117l-.068 1.025c-.214-.04-.442-.06-.684-.06-.4 0-.726.12-.95.362s-.335.58-.335 1.025v.78h1.58v.977h-1.58V178h-1.264zm12.024-1.962c0-.342-.13-.606-.4-.793-.255-.2-.704-.355-1.346-.492s-1.146-.3-1.525-.492c-.373-.192-.65-.42-.834-.684-.177-.264-.266-.58-.266-.943 0-.606.255-1.12.765-1.538s1.172-.63 1.97-.63c.84 0 1.518.216 2.037.65s.786.987.786 1.66h-1.27c0-.346-.148-.645-.444-.895s-.66-.376-1.108-.376c-.46 0-.82.1-1.08.3s-.4.462-.4.786a.79.79 0 0 0 .363.7c.243.165.676.303 1.305.445.634.14 1.147.3 1.538.505s.682.433.87.7.287.6.287 1.005a1.9 1.9 0 0 1-.793 1.593c-.53.396-1.215.595-2.058.595-.592 0-1.116-.105-1.572-.315s-.814-.5-1.073-.875a2.14 2.14 0 0 1-.383-1.223h1.264c.023.423.192.76.506 1s.74.37 1.258.37c.48 0 .86-.095 1.15-.287s.437-.455.437-.78zm4.102-5.434l.034.82c.542-.638 1.274-.957 2.194-.957 1.035 0 1.74.396 2.112 1.2a2.83 2.83 0 0 1 .958-.861c.396-.22.863-.328 1.4-.328 1.622 0 2.447.86 2.474 2.577V178h-1.264v-4.88c0-.53-.12-.923-.362-1.182-.242-.265-.648-.397-1.217-.397-.47 0-.86.14-1.17.424a1.66 1.66 0 0 0-.54 1.128V178h-1.272v-4.847c0-1.075-.526-1.613-1.58-1.613-.83 0-1.397.353-1.702 1.06v5.4H121.9v-7.396h1.197zM138.752 178c-.073-.146-.132-.406-.178-.78-.588.6-1.3.916-2.105.916-.73 0-1.33-.205-1.798-.616a2.01 2.01 0 0 1-.697-1.572c0-.77.3-1.367.875-1.8s1.412-.642 2.474-.642h1.23v-.58c0-.442-.132-.793-.397-1.053s-.654-.397-1.17-.397c-.45 0-.83.114-1.134.342s-.458.504-.458.827h-1.272c0-.37.13-.724.4-1.066a2.78 2.78 0 0 1 1.066-.82 3.6 3.6 0 0 1 1.483-.3c.853 0 1.52.214 2.003.642s.734 1 .752 1.757v3.405c0 .68.087 1.22.26 1.62v.1h-1.326zm-2.1-.964a2.22 2.22 0 0 0 1.128-.307c.356-.206.613-.472.773-.8v-1.518h-.992c-1.55 0-2.324.454-2.324 1.36 0 .397.132.707.397.93s.604.335 1.018.335zm8.723-5.298c-.2-.032-.4-.048-.622-.048-.83 0-1.392.354-1.7 1.06V178H141.8v-7.396h1.23l.02.854c.414-.66 1.002-1 1.763-1 .247 0 .433.032.56.095v1.176zm3.227-2.926v1.792h1.38v.977h-1.38v4.587c0 .296.06.52.184.67s.333.22.63.22c.146 0 .346-.028.602-.082V178a3.68 3.68 0 0 1-.971.137c-.565 0-1-.17-1.278-.513s-.43-.827-.43-1.456v-4.587h-1.347v-.977h1.347v-1.792h1.265zm9.303 8.292a1.82 1.82 0 0 0 1.183-.41 1.44 1.44 0 0 0 .56-1.025h1.197c-.023.424-.17.827-.438 1.2a2.97 2.97 0 0 1-1.08.916 3.08 3.08 0 0 1-1.422.342c-1.007 0-1.8-.335-2.406-1.005-.592-.675-.9-1.595-.9-2.762v-.212c0-.72.132-1.36.397-1.92s.642-.995 1.135-1.305 1.082-.465 1.756-.465c.83 0 1.518.248 2.065.745s.845 1.142.882 1.934h-1.197a1.72 1.72 0 0 0-.546-1.175 1.7 1.7 0 0 0-1.204-.465c-.642 0-1.14.232-1.497.697-.35.46-.526 1.128-.526 2.003v.24c0 .853.175 1.5.526 1.97s.853.7 1.504.7zm4.027-2.87c0-.724.14-1.376.423-1.955.288-.578.684-1.025 1.2-1.34s1.1-.47 1.743-.47c1.007 0 1.82.348 2.44 1.046s.937 1.624.937 2.782v.1c0 .72-.14 1.367-.417 1.94a3.11 3.11 0 0 1-1.183 1.333c-.5.32-1.098.48-1.763.48-1.003 0-1.816-.35-2.44-1.046s-.93-1.62-.93-2.77v-.1zm1.27.15c0 .82.2 1.48.567 1.975.383.497.894.745 1.532.745a1.82 1.82 0 0 0 1.53-.75c.377-.5.567-1.213.567-2.12 0-.8-.193-1.467-.58-1.968a1.82 1.82 0 0 0-1.531-.759 1.81 1.81 0 0 0-1.51.745c-.382.497-.574 1.208-.574 2.133zm8.244-3.78l.04.93c.565-.7 1.304-1.066 2.215-1.066 1.563 0 2.352.882 2.365 2.645V178h-1.264v-4.895c-.005-.533-.128-.927-.37-1.182s-.6-.383-1.115-.383a1.85 1.85 0 0 0-1.08.328 2.23 2.23 0 0 0-.724.861V178h-1.265v-7.396h1.196zm8.244-1.792v1.792h1.38v.977h-1.38v4.587c0 .296.062.52.185.67s.333.22.63.22c.146 0 .346-.028.6-.082V178c-.332.1-.656.137-.97.137-.565 0-1-.17-1.28-.513s-.43-.827-.43-1.456v-4.587h-1.347v-.977h1.347v-1.792h1.264zm6.44 2.926c-.192-.032-.4-.048-.622-.048-.83 0-1.392.354-1.7 1.06V178h-1.264v-7.396h1.23l.02.854c.414-.66 1.002-1 1.763-1 .246 0 .433.032.56.095v1.176zm5.462 6.262c-.073-.146-.132-.406-.178-.78-.588.6-1.3.916-2.105.916-.73 0-1.33-.205-1.798-.616s-.698-.938-.698-1.572c0-.77.292-1.367.875-1.8s1.413-.642 2.475-.642h1.23v-.58c0-.442-.133-.793-.397-1.053s-.654-.397-1.17-.397c-.45 0-.83.114-1.135.342s-.458.504-.458.827h-1.27c0-.37.13-.724.4-1.066.265-.346.62-.62 1.067-.82s.946-.3 1.483-.3c.852 0 1.52.214 2.003.642s.734 1 .752 1.757v3.405c0 .68.087 1.22.26 1.62v.1h-1.326zm-2.1-.964a2.22 2.22 0 0 0 1.128-.307c.356-.206.613-.472.773-.8v-1.518h-.992c-1.55 0-2.324.454-2.324 1.36 0 .397.132.707.397.93s.603.335 1.018.335zm8.114.068c.452 0 .846-.136 1.183-.4s.524-.615.56-1.025h1.196c-.023.424-.17.827-.438 1.2a2.97 2.97 0 0 1-1.08.916 3.08 3.08 0 0 1-1.422.342c-1.007 0-1.8-.335-2.406-1.005s-.9-1.595-.9-2.762v-.212c0-.72.133-1.36.397-1.92a3.03 3.03 0 0 1 1.135-1.305c.492-.3 1.082-.465 1.757-.465.83 0 1.517.248 2.064.745s.845 1.142.882 1.934h-1.196c-.037-.478-.22-.87-.547-1.175s-.725-.465-1.203-.465c-.643 0-1.142.232-1.498.697-.35.46-.526 1.128-.526 2.003v.24c0 .853.176 1.5.526 1.97s.853.7 1.504.7zm6.078-8.292v1.792h1.38v.977h-1.38v4.587c0 .296.06.52.184.67s.333.22.63.22c.146 0 .346-.028.602-.082V178a3.68 3.68 0 0 1-.971.137c-.565 0-1-.17-1.278-.513s-.43-.827-.43-1.456v-4.587h-1.347v-.977h1.347v-1.792h1.265zm7.17 7.226c0-.342-.13-.606-.4-.793s-.704-.355-1.347-.492-1.146-.3-1.524-.492-.652-.42-.834-.684-.267-.58-.267-.943c0-.606.255-1.12.766-1.538s1.17-.63 1.968-.63c.84 0 1.518.216 2.038.65a2.07 2.07 0 0 1 .786 1.66h-1.272c0-.346-.148-.645-.444-.895s-.66-.376-1.108-.376c-.46 0-.82.1-1.08.3s-.4.462-.4.786c0 .305.12.535.362.7s.677.303 1.306.445 1.146.3 1.538.505.68.433.868.7.287.6.287 1.005a1.9 1.9 0 0 1-.793 1.593c-.53.396-1.214.595-2.058.595-.592 0-1.116-.105-1.572-.315s-.813-.5-1.073-.875-.383-.786-.383-1.223h1.265a1.32 1.32 0 0 0 .506 1.011c.32.246.738.37 1.257.37.48 0 .862-.095 1.15-.287s.437-.455.437-.78zM39.65 205.402h-4.17L34.545 208H33.2l3.8-9.953h1.148l3.8 9.953H40.6l-.95-2.598zm-3.774-1.08h3.384l-1.695-4.655-1.7 4.655zm11.696 2.947c-.492.578-1.215.868-2.167.868-.788 0-1.4-.228-1.805-.684s-.617-1.14-.622-2.037v-4.812h1.265v4.778c0 1.12.456 1.68 1.367 1.68.966 0 1.6-.36 1.928-1.08v-5.38h1.265V208H47.6l-.027-.73zm4.874-8.457v1.792h1.38v.977h-1.38v4.587c0 .296.062.52.185.67s.333.22.63.22c.146 0 .346-.028.602-.082V208a3.72 3.72 0 0 1-.97.137c-.565 0-1-.17-1.278-.513s-.43-.827-.43-1.456v-4.587h-1.347v-.977h1.347v-1.792h1.265zm2.393 5.42c0-.724.14-1.376.424-1.955a3.2 3.2 0 0 1 1.19-1.34c.506-.315 1.092-.47 1.743-.47 1.007 0 1.82.348 2.44 1.046s.936 1.624.936 2.782v.1c0 .72-.14 1.367-.417 1.94s-.668 1.014-1.183 1.333a3.27 3.27 0 0 1-1.764.48c-1.003 0-1.816-.35-2.44-1.046s-.93-1.62-.93-2.77v-.1zm1.27.15c0 .82.2 1.48.567 1.975a1.83 1.83 0 0 0 1.53.745 1.82 1.82 0 0 0 1.53-.75c.377-.5.567-1.213.567-2.12 0-.8-.194-1.467-.58-1.968a1.82 1.82 0 0 0-1.531-.759 1.81 1.81 0 0 0-1.51.745c-.382.497-.574 1.208-.574 2.133zm8.237-3.78l.034.82c.542-.638 1.274-.957 2.194-.957 1.034 0 1.74.396 2.112 1.2.246-.355.565-.642.957-.86s.864-.328 1.4-.328c1.622 0 2.447.86 2.475 2.577V208H72.26v-4.88c0-.53-.12-.923-.362-1.182-.242-.265-.647-.397-1.217-.397-.47 0-.86.14-1.17.424a1.66 1.66 0 0 0-.54 1.128v4.907H67.7v-4.847c0-1.075-.526-1.613-1.58-1.613-.83 0-1.397.353-1.702 1.06v5.4h-1.265v-7.396h1.196zM80.004 208c-.073-.146-.132-.406-.178-.78-.588.6-1.3.916-2.106.916-.73 0-1.328-.205-1.798-.616s-.697-.938-.697-1.572c0-.77.292-1.367.875-1.8s1.413-.642 2.475-.642h1.23v-.58c0-.442-.132-.793-.397-1.053s-.654-.397-1.17-.397c-.45 0-.83.114-1.135.342s-.458.504-.458.827h-1.27c0-.37.13-.724.4-1.066a2.78 2.78 0 0 1 1.066-.82 3.6 3.6 0 0 1 1.483-.3c.852 0 1.52.214 2.003.642s.734 1 .752 1.757v3.405c0 .68.087 1.22.26 1.62v.1h-1.326zm-2.1-.964c.397 0 .772-.102 1.128-.307s.613-.472.773-.8v-1.518h-1c-1.55 0-2.324.454-2.324 1.36 0 .397.132.707.397.93s.604.335 1.02.335zm6.863-8.224v1.792h1.38v.977h-1.38v4.587c0 .296.06.52.184.67s.333.22.63.22c.146 0 .346-.028.602-.082V208a3.72 3.72 0 0 1-.97.137c-.565 0-1-.17-1.278-.513s-.43-.827-.43-1.456v-4.587h-1.347v-.977h1.347v-1.792h1.265zm5.933 9.325c-1.003 0-1.818-.328-2.447-.985s-.943-1.542-.943-2.645v-.233c0-.733.14-1.387.417-1.962a3.29 3.29 0 0 1 1.176-1.353c.506-.328 1.053-.492 1.64-.492.962 0 1.7.317 2.242.95s.8 1.54.8 2.72v.526h-5c.018.73.23 1.32.636 1.77.4.446.93.67 1.56.67.447 0 .825-.1 1.135-.273a2.88 2.88 0 0 0 .814-.725l.772.602c-.62.952-1.55 1.43-2.8 1.43zm-.157-6.63c-.5 0-.94.187-1.285.56s-.56.9-.643 1.56h3.705v-.096c-.037-.642-.2-1.14-.52-1.5s-.73-.533-1.258-.533zm4.204 2.734c0-1.135.27-2.046.807-2.734s1.242-1.04 2.112-1.04 1.552.296 2.058.888V197.5H101V208h-1.162l-.062-.793c-.506.62-1.2.93-2.112.93-.857 0-1.556-.35-2.1-1.053s-.807-1.618-.807-2.748v-.096zm1.265.144c0 .838.173 1.495.52 1.97s.825.7 1.436.7c.802 0 1.388-.36 1.757-1.08v-3.397c-.378-.697-.96-1.046-1.743-1.046-.62 0-1.103.24-1.45.718s-.52 1.187-.52 2.126zm16.666 0c0 1.125-.258 2.032-.773 2.72a2.47 2.47 0 0 1-2.092 1.033c-.897 0-1.604-.285-2.12-.855v3.562h-1.264v-10.24h1.155l.06.82c.515-.638 1.23-.957 2.147-.957.9 0 1.6.335 2.105 1.005s.78 1.602.78 2.796v.116zm-1.265-.144c0-.834-.178-1.492-.533-1.975s-.843-.725-1.463-.725c-.766 0-1.34.34-1.723 1.02v3.534a1.86 1.86 0 0 0 1.737 1.011 1.7 1.7 0 0 0 1.442-.717c.36-.483.54-1.2.54-2.147zm7.444 3.76c-.073-.146-.132-.406-.177-.78-.588.6-1.3.916-2.106.916-.73 0-1.328-.205-1.798-.616a2.01 2.01 0 0 1-.697-1.572c0-.77.292-1.367.875-1.8s1.413-.642 2.475-.642h1.23v-.58c0-.442-.132-.793-.396-1.053s-.654-.397-1.17-.397c-.45 0-.83.114-1.135.342s-.458.504-.458.827h-1.272c0-.37.13-.724.4-1.066a2.78 2.78 0 0 1 1.067-.82 3.6 3.6 0 0 1 1.483-.301c.852 0 1.52.214 2.003.642s.734 1 .752 1.757v3.405c0 .68.086 1.22.26 1.62v.1h-1.327zm-2.098-.964c.396 0 .772-.102 1.128-.307s.613-.472.772-.8v-1.518h-1c-1.55 0-2.324.454-2.324 1.36 0 .397.132.707.396.93s.604.335 1.02.335zm7.458-.9l1.722-5.543h1.354l-2.974 8.538c-.46 1.23-1.2 1.845-2.194 1.845l-.24-.02-.472-.1v-1.025l.342.027c.428 0 .76-.087.998-.26s.44-.5.595-.95l.28-.752-2.64-7.314h1.38l1.846 5.543zm5.4-5.543l.034.82c.543-.638 1.274-.957 2.195-.957 1.034 0 1.738.396 2.112 1.2.246-.355.565-.642.957-.86s.864-.328 1.4-.328c1.623 0 2.448.86 2.475 2.577V208h-1.265v-4.88c0-.53-.12-.923-.362-1.182-.242-.265-.647-.397-1.217-.397-.47 0-.86.14-1.17.424a1.66 1.66 0 0 0-.54 1.128V208h-1.27v-4.847c0-1.075-.527-1.613-1.58-1.613-.83 0-1.397.353-1.702 1.06v5.4h-1.265v-7.396h1.196zm14.157 7.533c-1.002 0-1.818-.328-2.447-.985s-.943-1.542-.943-2.645v-.233c0-.733.14-1.387.417-1.962a3.28 3.28 0 0 1 1.176-1.353c.505-.328 1.052-.492 1.64-.492.962 0 1.7.317 2.242.95s.8 1.54.8 2.72v.526h-5c.02.73.23 1.32.636 1.77.4.446.93.67 1.56.67.446 0 .825-.1 1.134-.273a2.84 2.84 0 0 0 .814-.725l.772.602c-.62.952-1.55 1.43-2.8 1.43zm-.157-6.63c-.5 0-.94.187-1.285.56s-.56.9-.643 1.56h3.705v-.096c-.036-.642-.2-1.14-.52-1.5s-.73-.533-1.258-.533zm5.708-.902l.04.93c.565-.7 1.304-1.066 2.215-1.066 1.563 0 2.352.882 2.365 2.645V208h-1.264v-4.895c-.005-.533-.128-.927-.37-1.182s-.608-.383-1.114-.383a1.85 1.85 0 0 0-1.08.328 2.23 2.23 0 0 0-.724.861V208h-1.265v-7.396h1.196zm8.244-1.792v1.792h1.38v.977h-1.38v4.587c0 .296.062.52.185.67s.333.22.63.22c.146 0 .346-.028.6-.082V208c-.332.1-.656.137-.97.137-.565 0-.992-.17-1.28-.513s-.43-.827-.43-1.456v-4.587h-1.347v-.977h1.347v-1.792h1.264zm7.17 7.226a.92.92 0 0 0-.389-.793c-.256-.2-.705-.355-1.347-.492s-1.146-.3-1.525-.492c-.373-.192-.65-.42-.834-.684-.177-.264-.266-.58-.266-.943 0-.606.255-1.12.765-1.538s1.172-.63 1.97-.63c.84 0 1.518.216 2.037.65.524.433.786.987.786 1.66h-1.27c0-.346-.148-.645-.444-.895s-.66-.376-1.108-.376c-.46 0-.82.1-1.08.3s-.4.462-.4.786c0 .305.12.535.362.7s.677.303 1.305.445c.634.14 1.147.3 1.54.505s.68.433.868.7.287.6.287 1.005a1.9 1.9 0 0 1-.793 1.593c-.53.396-1.215.595-2.058.595-.592 0-1.116-.105-1.572-.315s-.813-.5-1.073-.875-.383-.786-.383-1.223h1.265a1.32 1.32 0 0 0 .505 1.011c.32.246.74.37 1.258.37.48 0 .862-.095 1.15-.287s.437-.455.437-.78zM175.69 208c-.073-.146-.132-.406-.177-.78-.588.6-1.3.916-2.106.916-.73 0-1.328-.205-1.798-.616a2.01 2.01 0 0 1-.697-1.572c0-.77.292-1.367.875-1.8s1.413-.642 2.475-.642h1.23v-.58c0-.442-.132-.793-.396-1.053s-.654-.397-1.17-.397c-.45 0-.83.114-1.135.342s-.458.504-.458.827h-1.272c0-.37.13-.724.4-1.066a2.7 2.7 0 0 1 1.066-.82 3.62 3.62 0 0 1 1.484-.3c.852 0 1.52.214 2.003.642s.734 1 .752 1.757v3.405c0 .68.086 1.22.26 1.62v.1h-1.327zm-2.098-.964c.396 0 .772-.102 1.128-.307s.613-.472.772-.8v-1.518h-1c-1.55 0-2.324.454-2.324 1.36 0 .397.132.707.396.93s.604.335 1.02.335zm6.343-6.432l.04.93c.566-.7 1.304-1.066 2.215-1.066 1.563 0 2.352.882 2.366 2.645V208H183.3v-4.895c-.005-.533-.128-.927-.37-1.182s-.6-.383-1.114-.383c-.4 0-.77.1-1.08.328s-.55.506-.724.86V208h-1.265v-7.396h1.196zm6.22 3.636c0-1.135.27-2.046.807-2.734s1.242-1.04 2.112-1.04 1.552.296 2.058.888V197.5h1.264V208h-1.162l-.06-.793c-.506.62-1.2.93-2.113.93-.856 0-1.556-.35-2.098-1.053s-.807-1.618-.807-2.748v-.096zm1.265.144c0 .838.173 1.495.52 1.97a1.68 1.68 0 0 0 1.436.71 1.84 1.84 0 0 0 1.757-1.08v-3.397c-.38-.697-.96-1.046-1.743-1.046-.62 0-1.103.24-1.45.718s-.52 1.187-.52 2.126zm13.385 2.72c.45 0 .845-.136 1.182-.4s.524-.615.56-1.025h1.196c-.023.424-.17.827-.437 1.2a2.96 2.96 0 0 1-1.08.916 3.08 3.08 0 0 1-1.421.342c-1.008 0-1.8-.335-2.407-1.005-.592-.675-.888-1.595-.888-2.762v-.212c0-.72.132-1.36.396-1.92a3.03 3.03 0 0 1 1.135-1.305c.497-.3 1.082-.465 1.757-.465.83 0 1.517.248 2.064.745s.846 1.142.882 1.934h-1.196c-.037-.478-.22-.87-.547-1.175s-.725-.465-1.203-.465c-.643 0-1.142.232-1.497.697s-.527 1.128-.527 2.003v.24c0 .853.176 1.5.527 1.97s.852.7 1.504.7zm8.927.896c-.073-.146-.132-.406-.177-.78-.588.6-1.3.916-2.106.916-.73 0-1.328-.205-1.798-.616a2.01 2.01 0 0 1-.697-1.572c0-.77.292-1.367.875-1.8s1.413-.642 2.475-.642h1.23v-.58c0-.442-.132-.793-.396-1.053s-.654-.397-1.17-.397c-.452 0-.83.114-1.135.342s-.458.504-.458.827h-1.272c0-.37.13-.724.4-1.066a2.7 2.7 0 0 1 1.066-.82 3.62 3.62 0 0 1 1.484-.3c.852 0 1.52.214 2.003.642s.734 1 .752 1.757v3.405c0 .68.086 1.22.26 1.62v.1h-1.326zm-2.098-.964c.396 0 .772-.102 1.128-.307s.613-.472.772-.8v-1.518h-1c-1.55 0-2.324.454-2.324 1.36 0 .397.132.707.396.93s.604.335 1.02.335zm9.454-.998c0-.342-.13-.606-.4-.793s-.704-.355-1.347-.492c-.638-.137-1.146-.3-1.524-.492s-.652-.42-.834-.684-.267-.58-.267-.943c0-.606.256-1.12.766-1.538s1.17-.63 1.97-.63c.838 0 1.517.216 2.037.65a2.07 2.07 0 0 1 .786 1.66h-1.27c0-.346-.15-.645-.445-.895s-.66-.376-1.107-.376c-.46 0-.82.1-1.08.3s-.4.462-.4.786c0 .305.12.535.362.7s.677.303 1.306.445 1.146.3 1.538.505.68.433.868.7.287.6.287 1.005a1.9 1.9 0 0 1-.793 1.593c-.528.396-1.214.595-2.057.595-.593 0-1.117-.105-1.572-.315s-.814-.5-1.074-.875a2.1 2.1 0 0 1-.382-1.223h1.264c.023.423.192.76.506 1 .32.246.738.37 1.258.37.478 0 .86-.095 1.148-.287s.438-.455.438-.78zm4.177-4.54c.56-.688 1.3-1.032 2.187-1.032 1.563 0 2.352.882 2.365 2.645V208h-1.264v-4.895c-.005-.533-.128-.927-.37-1.182s-.6-.383-1.115-.383a1.85 1.85 0 0 0-1.08.328 2.23 2.23 0 0 0-.724.861V208h-1.265v-10.5h1.265v4zm14.54-2.926c-.566-.1-1.02-.136-1.368-.136-.9 0-1.367.478-1.367 1.435v.732h1.58v.977h-1.58V208h-1.27v-6.42h-1.17v-.977h1.17v-.807c.004-.8.225-1.392.663-1.812s1.06-.63 1.866-.63c.46 0 1.372.14 2.734.417V208H235.8v-9.427zm3 5.66c0-.724.14-1.376.423-1.955s.684-1.025 1.2-1.34 1.1-.47 1.743-.47c1.007 0 1.82.348 2.44 1.046.625.697.937 1.624.937 2.782v.1c0 .72-.14 1.367-.417 1.94a3.11 3.11 0 0 1-1.183 1.333c-.5.32-1.098.48-1.763.48-1.003 0-1.816-.35-2.44-1.046s-.93-1.62-.93-2.77v-.1zm1.27.15c0 .82.2 1.48.567 1.975.383.497.894.745 1.532.745a1.82 1.82 0 0 0 1.53-.75c.377-.5.567-1.213.567-2.12 0-.8-.193-1.467-.58-1.968a1.82 1.82 0 0 0-1.531-.759 1.81 1.81 0 0 0-1.51.745c-.382.497-.574 1.208-.574 2.133zm13.597 1.873l1.422-5.653h1.264L254.2 208h-1.025l-1.798-5.605-1.75 5.605h-1.026l-2.146-7.396h1.258l1.456 5.537 1.722-5.537h1.02l1.757 5.653zM35.14 220.603l.034.82c.542-.638 1.274-.957 2.194-.957 1.035 0 1.74.396 2.112 1.2.246-.355.565-.642.957-.86s.864-.328 1.4-.328c1.622 0 2.447.86 2.475 2.577V228h-1.265v-4.88c0-.53-.12-.923-.362-1.182-.242-.265-.647-.397-1.217-.397-.47 0-.86.14-1.17.424a1.66 1.66 0 0 0-.54 1.128v4.907h-1.272v-4.847c0-1.075-.526-1.613-1.58-1.613-.83 0-1.397.353-1.702 1.06v5.4H33.95v-7.396h1.196zM50.8 228c-.073-.146-.132-.406-.178-.78-.588.6-1.3.916-2.105.916-.73 0-1.328-.205-1.798-.616s-.697-.938-.697-1.572c0-.77.292-1.367.875-1.8s1.413-.642 2.475-.642h1.23v-.58c0-.442-.132-.793-.396-1.053s-.654-.397-1.17-.397c-.45 0-.83.114-1.135.342s-.458.504-.458.827h-1.27c0-.37.13-.724.4-1.066a2.78 2.78 0 0 1 1.066-.82 3.6 3.6 0 0 1 1.483-.3c.852 0 1.52.214 2.003.642s.734 1 .752 1.757v3.405c0 .68.087 1.22.26 1.62v.1H50.8zm-2.1-.964c.396 0 .773-.102 1.128-.307s.613-.472.772-.8v-1.518h-1c-1.55 0-2.324.454-2.324 1.36 0 .397.132.707.396.93s.604.335 1.02.335zm6.344-6.432l.04.93a2.69 2.69 0 0 1 2.215-1.066c1.563 0 2.352.882 2.365 2.645V228H58.4v-4.895c-.005-.533-.128-.927-.37-1.182s-.608-.383-1.114-.383a1.85 1.85 0 0 0-1.08.328 2.23 2.23 0 0 0-.725.861v5.27h-1.26v-7.396h1.196zM66.14 228c-.073-.146-.132-.406-.178-.78-.588.6-1.3.916-2.106.916-.73 0-1.328-.205-1.798-.616s-.697-.938-.697-1.572c0-.77.292-1.367.875-1.8s1.413-.642 2.475-.642h1.23v-.58c0-.442-.132-.793-.397-1.053s-.654-.397-1.17-.397c-.45 0-.83.114-1.135.342s-.458.504-.458.827h-1.27c0-.37.13-.724.4-1.066s.62-.62 1.067-.82.946-.3 1.483-.3c.852 0 1.52.214 2.003.642s.734 1 .752 1.757v3.405c0 .68.087 1.22.26 1.62v.1H66.14zm-2.1-.964c.397 0 .772-.102 1.128-.307s.613-.472.773-.8v-1.518h-1c-1.55 0-2.324.454-2.324 1.36 0 .397.132.707.396.93s.604.335 1.02.335zm4.847-2.796c0-1.153.267-2.07.8-2.748s1.24-1.025 2.12-1.025c.902 0 1.607.32 2.112.957l.06-.82h1.155v7.218c0 .957-.285 1.712-.855 2.263s-1.326.827-2.283.827a3.8 3.8 0 0 1-1.565-.342c-.5-.228-.9-.54-1.17-.936l.656-.76c.542.67 1.205 1.005 2 1.005.615 0 1.094-.173 1.435-.52s.52-.834.52-1.463v-.635c-.506.583-1.196.875-2.07.875-.866 0-1.568-.35-2.105-1.046s-.8-1.648-.8-2.85zm1.272.144c0 .834.17 1.5.513 1.97s.82.7 1.436.7c.797 0 1.383-.362 1.757-1.086V222.6c-.387-.707-.968-1.06-1.743-1.06-.615 0-1.096.24-1.442.718s-.52 1.187-.52 2.126zm9.96 3.753c-1.003 0-1.818-.328-2.447-.985s-.943-1.542-.943-2.645v-.233c0-.733.14-1.387.417-1.962s.674-1.03 1.176-1.353 1.053-.492 1.64-.492c.962 0 1.7.317 2.242.95s.8 1.54.8 2.72v.526h-5c.018.73.23 1.32.636 1.77.4.446.93.67 1.56.67.447 0 .825-.1 1.135-.273a2.88 2.88 0 0 0 .814-.725l.772.602c-.62.952-1.55 1.43-2.8 1.43zm-.157-6.63c-.5 0-.94.187-1.285.56s-.56.9-.642 1.56h3.705v-.096c-.036-.642-.2-1.14-.52-1.5s-.73-.533-1.258-.533zm5.7-.902l.034.82c.542-.638 1.274-.957 2.194-.957 1.034 0 1.74.396 2.112 1.2.246-.355.565-.642.957-.86s.864-.328 1.4-.328c1.622 0 2.447.86 2.475 2.577V228H93.57v-4.88c0-.53-.12-.923-.362-1.182-.242-.265-.647-.397-1.217-.397-.47 0-.86.14-1.17.424a1.66 1.66 0 0 0-.54 1.128V228h-1.272v-4.847c0-1.075-.526-1.613-1.58-1.613-.83 0-1.397.353-1.702 1.06v5.4H84.46v-7.396h1.196zm14.157 7.533c-1.003 0-1.818-.328-2.447-.985s-.943-1.542-.943-2.645v-.233c0-.733.14-1.387.417-1.962s.674-1.03 1.176-1.353a2.96 2.96 0 0 1 1.641-.492c.962 0 1.7.317 2.242.95s.8 1.54.8 2.72v.526h-5c.018.73.23 1.32.636 1.77.4.446.93.67 1.558.67.446 0 .825-.1 1.134-.273s.58-.424.814-.725l.772.602c-.62.952-1.55 1.43-2.8 1.43zm-.157-6.63a1.68 1.68 0 0 0-1.285.56c-.345.373-.56.9-.643 1.56h3.705v-.096c-.036-.642-.2-1.14-.52-1.5s-.73-.533-1.258-.533zm5.708-.902l.04.93a2.69 2.69 0 0 1 2.215-1.066c1.563 0 2.35.882 2.365 2.645V228h-1.264v-4.895c-.005-.533-.128-.927-.37-1.182s-.608-.383-1.114-.383a1.85 1.85 0 0 0-1.08.328 2.24 2.24 0 0 0-.725.861V228h-1.264v-7.396h1.196zm8.244-1.792v1.792h1.38v.977h-1.38v4.587c0 .296.062.52.185.67s.332.22.63.22c.146 0 .346-.028.6-.082V228c-.332.1-.656.137-.97.137-.566 0-.992-.17-1.28-.513s-.43-.827-.43-1.456v-4.587h-1.347v-.977h1.347v-1.792h1.264zm-75.8 35.162h-2.338V258h-1.32v-9.953h3.295c1.12 0 1.982.255 2.584.765s.9 1.254.9 2.23c0 .62-.17 1.16-.506 1.62s-.798.804-1.395 1.032l2.338 4.225v.08h-1.408l-2.16-4.026zm-2.338-1.074h2.017c.652 0 1.17-.168 1.552-.505s.58-.8.58-1.354c0-.615-.185-1.087-.554-1.415s-.893-.494-1.586-.5h-2v3.773zm10.186 5.237c-1.003 0-1.818-.328-2.447-.985s-.943-1.542-.943-2.645v-.233c0-.733.14-1.387.417-1.962s.675-1.03 1.176-1.353a2.99 2.99 0 0 1 1.64-.492c.962 0 1.7.317 2.242.95s.8 1.54.8 2.72v.526h-5c.018.73.23 1.32.636 1.77.4.446.93.67 1.56.67.447 0 .825-.1 1.135-.273s.58-.424.813-.725l.773.602c-.62.952-1.55 1.43-2.8 1.43zm-.157-6.63c-.5 0-.94.187-1.285.56s-.56.9-.643 1.56h3.705v-.096c-.036-.642-.2-1.14-.52-1.5s-.73-.533-1.258-.533zm9.07 6.49c-.073-.146-.132-.406-.178-.78-.588.6-1.3.916-2.106.916-.73 0-1.328-.205-1.798-.616s-.697-.938-.697-1.572c0-.77.292-1.367.875-1.8s1.413-.642 2.475-.642h1.23v-.58c0-.442-.132-.793-.396-1.053s-.654-.397-1.17-.397c-.45 0-.83.114-1.135.342s-.458.504-.458.827h-1.27c0-.37.13-.724.4-1.066a2.7 2.7 0 0 1 1.066-.82c.45-.2.946-.3 1.483-.3.852 0 1.52.214 2.003.642s.734 1 .752 1.757v3.405c0 .68.087 1.22.26 1.62v.1h-1.326zm-2.1-.964c.397 0 .772-.102 1.128-.307s.613-.472.773-.8v-1.518h-1c-1.55 0-2.324.454-2.324 1.36 0 .397.132.707.397.93s.604.335 1.02.335zm6.522.964H57.73v-10.5h1.265V258zm4.662-3.712h-3.336v-1.032h3.336v1.032zm2.953-5.476v1.792h1.38v.977h-1.38v4.587c0 .296.06.52.185.67s.333.22.63.22c.146 0 .346-.028.602-.082V258a3.72 3.72 0 0 1-.97.137c-.565 0-1-.17-1.278-.513s-.43-.827-.43-1.456v-4.587H64v-.977h1.347v-1.792h1.265zM70.85 258h-1.265v-7.396h1.265V258zm-1.367-9.358c0-.205.06-.38.185-.52s.314-.212.56-.212.433.07.56.212a.75.75 0 0 1 .19.52.72.72 0 0 1-.191.512c-.128.137-.315.205-.56.205s-.433-.068-.56-.205-.185-.307-.185-.512zm4.587 1.962l.034.82c.542-.638 1.274-.957 2.194-.957 1.034 0 1.74.396 2.112 1.2a2.8 2.8 0 0 1 .957-.86c.392-.218.864-.328 1.4-.328 1.622 0 2.447.86 2.475 2.577V258H81.98v-4.88c0-.53-.12-.923-.362-1.182-.242-.265-.647-.397-1.217-.397-.47 0-.86.14-1.17.424a1.66 1.66 0 0 0-.54 1.128v4.907h-1.27v-4.847c0-1.075-.526-1.613-1.58-1.613-.83 0-1.397.353-1.702 1.06v5.4h-1.265v-7.396h1.196zm14.157 7.533c-1.003 0-1.818-.328-2.447-.985s-.943-1.542-.943-2.645v-.233c0-.733.14-1.387.417-1.962a3.29 3.29 0 0 1 1.176-1.353c.506-.328 1.053-.492 1.64-.492.962 0 1.7.317 2.242.95s.8 1.54.8 2.72v.526h-5c.018.73.23 1.32.636 1.77.4.446.93.67 1.56.67.447 0 .825-.1 1.135-.273s.58-.424.813-.725l.772.602c-.62.952-1.55 1.43-2.8 1.43zm-.157-6.63c-.5 0-.94.187-1.285.56s-.56.9-.643 1.56h3.705v-.096c-.037-.642-.2-1.14-.52-1.5s-.73-.533-1.258-.533zm7.677 2.734c0-1.135.27-2.046.807-2.734s1.242-1.04 2.112-1.04 1.552.296 2.058.888V247.5h1.264V258h-1.162l-.06-.793c-.506.62-1.2.93-2.113.93-.857 0-1.556-.35-2.1-1.053s-.807-1.618-.807-2.748v-.096zm1.265.144c0 .838.173 1.495.52 1.97s.825.7 1.436.7c.802 0 1.387-.36 1.757-1.08v-3.397c-.38-.697-.96-1.046-1.743-1.046-.62 0-1.103.24-1.45.718s-.52 1.187-.52 2.126zm11.5 3.616c-.072-.146-.132-.406-.177-.78-.588.6-1.3.916-2.106.916-.73 0-1.328-.205-1.798-.616-.464-.414-.697-.938-.697-1.572 0-.77.292-1.367.875-1.8s1.413-.642 2.475-.642h1.23v-.58c0-.442-.132-.793-.396-1.053s-.654-.397-1.17-.397c-.45 0-.83.114-1.135.342s-.458.504-.458.827h-1.27c0-.37.13-.724.4-1.066s.62-.62 1.067-.82a3.6 3.6 0 0 1 1.483-.301c.852 0 1.52.214 2.003.642s.734 1 .752 1.757v3.405c0 .68.086 1.22.26 1.62v.1h-1.327zm-2.098-.964c.396 0 .772-.102 1.128-.307s.613-.472.772-.8v-1.518h-1c-1.55 0-2.324.454-2.324 1.36 0 .397.132.707.396.93s.604.335 1.02.335zm6.863-8.224v1.792h1.38v.977h-1.38v4.587c0 .296.062.52.185.67s.332.22.63.22c.145 0 .346-.028.6-.082V258a3.72 3.72 0 0 1-.97.137c-.565 0-1-.17-1.278-.513s-.43-.827-.43-1.456v-4.587h-1.346v-.977h1.346v-1.792h1.265zm7.43 9.188c-.073-.146-.132-.406-.178-.78-.588.6-1.3.916-2.105.916-.73 0-1.33-.205-1.798-.616s-.698-.938-.698-1.572c0-.77.292-1.367.875-1.8.588-.428 1.413-.642 2.475-.642h1.23v-.58c0-.442-.133-.793-.397-1.053s-.654-.397-1.17-.397c-.45 0-.83.114-1.135.342s-.458.504-.458.827h-1.27c0-.37.13-.724.4-1.066.265-.346.62-.62 1.067-.82s.946-.3 1.483-.3c.852 0 1.52.214 2.003.642s.734 1 .752 1.757v3.405c0 .68.087 1.22.26 1.62v.1h-1.326zm-2.1-.964a2.22 2.22 0 0 0 1.128-.307c.356-.206.613-.472.773-.8v-1.518h-.992c-1.55 0-2.324.454-2.324 1.36 0 .397.132.707.397.93s.603.335 1.018.335zm13.187.964c-.073-.146-.133-.406-.178-.78-.588.6-1.3.916-2.106.916-.73 0-1.328-.205-1.797-.616s-.698-.938-.698-1.572c0-.77.292-1.367.875-1.8s1.413-.642 2.475-.642h1.23v-.58c0-.442-.132-.793-.396-1.053s-.654-.397-1.17-.397c-.45 0-.83.114-1.135.342s-.458.504-.458.827h-1.27c0-.37.13-.724.4-1.066s.62-.62 1.067-.82a3.6 3.6 0 0 1 1.483-.301c.852 0 1.52.214 2.003.642s.734 1 .752 1.757v3.405c0 .68.087 1.22.26 1.62v.1h-1.326zm-2.1-.964c.396 0 .772-.102 1.128-.307s.613-.472.772-.8v-1.518h-1c-1.55 0-2.324.454-2.324 1.36 0 .397.132.707.396.93s.604.335 1.02.335zm6.344-6.432l.04.93a2.69 2.69 0 0 1 2.215-1.066c1.563 0 2.35.882 2.365 2.645V258h-1.265v-4.895c-.004-.533-.127-.927-.37-1.182-.237-.255-.608-.383-1.114-.383a1.85 1.85 0 0 0-1.08.328 2.23 2.23 0 0 0-.725.861V258h-1.265v-7.396h1.197zM147.146 258c-.072-.146-.132-.406-.177-.78-.588.6-1.3.916-2.106.916-.73 0-1.328-.205-1.798-.616-.464-.414-.697-.938-.697-1.572 0-.77.292-1.367.875-1.8s1.413-.642 2.475-.642h1.23v-.58c0-.442-.132-.793-.396-1.053s-.654-.397-1.17-.397c-.45 0-.83.114-1.135.342s-.458.504-.458.827h-1.27c0-.37.13-.724.4-1.066.265-.346.62-.62 1.067-.82a3.6 3.6 0 0 1 1.483-.301c.852 0 1.52.214 2.003.642s.734 1 .752 1.757v3.405c0 .68.086 1.22.26 1.62v.1h-1.327zm-2.098-.964c.396 0 .772-.102 1.128-.307s.613-.472.772-.8v-1.518h-1c-1.55 0-2.324.454-2.324 1.36 0 .397.132.707.396.93s.604.335 1.02.335zm6.52.964h-1.264v-10.5h1.264V258zm4.45-1.853l1.722-5.543h1.354l-2.974 8.538c-.46 1.23-1.192 1.845-2.194 1.845l-.24-.02-.47-.1v-1.025l.342.027c.428 0 .76-.087.998-.26s.44-.5.594-.95l.28-.752-2.64-7.314h1.38l1.846 5.543zm5.926-7.335v1.792h1.38v.977h-1.38v4.587c0 .296.062.52.185.67s.333.22.63.22c.146 0 .346-.028.6-.082V258c-.332.1-.656.137-.97.137-.565 0-.992-.17-1.28-.513s-.43-.827-.43-1.456v-4.587h-1.347v-.977h1.347v-1.792h1.264zm4.24 9.188h-1.265v-7.396h1.265V258zm-1.368-9.358c0-.205.062-.38.185-.52s.314-.212.56-.212.433.07.56.212a.75.75 0 0 1 .19.52.72.72 0 0 1-.19.512c-.127.136-.314.205-.56.205s-.432-.068-.56-.205-.185-.307-.185-.512zm6.365 8.462c.45 0 .845-.136 1.182-.4s.524-.615.56-1.025h1.196c-.023.424-.17.827-.437 1.2a2.96 2.96 0 0 1-1.08.916c-.45.228-.92.342-1.422.342-1.008 0-1.8-.335-2.407-1.005s-.888-1.595-.888-2.762v-.212c0-.72.132-1.36.396-1.92a3.03 3.03 0 0 1 1.135-1.305c.492-.3 1.082-.465 1.757-.465.83 0 1.517.248 2.064.745s.846 1.142.882 1.934h-1.196c-.037-.478-.22-.87-.547-1.175s-.725-.465-1.203-.465c-.643 0-1.142.232-1.497.697s-.527 1.128-.527 2.003v.24c0 .853.176 1.5.527 1.97s.852.7 1.504.7zm8.668-1.066c0-.342-.13-.606-.4-.793s-.704-.355-1.347-.492-1.146-.3-1.524-.492-.652-.42-.834-.684-.267-.58-.267-.943c0-.606.255-1.12.766-1.538s1.17-.63 1.97-.63c.838 0 1.517.216 2.037.65a2.07 2.07 0 0 1 .786 1.66h-1.272c0-.346-.148-.645-.444-.895s-.66-.376-1.107-.376c-.46 0-.82.1-1.08.3s-.4.462-.4.786c0 .305.12.535.362.7s.677.303 1.306.445 1.146.3 1.538.505.68.433.868.7.287.6.287 1.005a1.9 1.9 0 0 1-.793 1.593c-.528.396-1.214.595-2.057.595-.593 0-1.117-.105-1.573-.315a2.59 2.59 0 0 1-1.073-.875c-.255-.378-.383-.786-.383-1.223h1.265a1.32 1.32 0 0 0 .506 1.011c.32.246.738.37 1.258.37.478 0 .86-.095 1.148-.287s.438-.455.438-.78z"/><use xlink:href="#B"/><use xlink:href="#B" y="50"/><use xlink:href="#B" y="100"/><use xlink:href="#B" y="130"/><use xlink:href="#B" y="160"/><use xlink:href="#B" y="210"/></g><g stroke-miterlimit="10" stroke="#00DCE6"><path d="M267.7 307.364c0 6.828-4.983 13.103-11.135 13.103s-11.072-6.275-11.072-13.103S250.486 295 256.637 295s11.073 5.536 11.073 12.364z"/><g stroke-linecap="round"><path d="M279.15 346.795v5.782a2.89 2.89 0 0 1-2.891 2.891h-39.37a2.89 2.89 0 0 1-2.891-2.891v-8.366c0-10.334 8.427-18.762 18.762-18.762h7.628a21.16 21.16 0 0 1 2.829.185"/><path d="M243.842 343.657v11.872m25.468-11.872v11.872"/></g><path d="M291.526 338.09a13.6 13.6 0 0 0 0-19.225 13.6 13.6 0 0 0-19.226 0c-5.31 5.31-5.31 13.916 0 19.225a13.6 13.6 0 0 0 19.226 0z"/><g stroke-linecap="round"><path d="M287.21 323.174l-10.58 10.58"/><path d="M276.63 323.174l10.58 10.58"/></g></g><path d="M31.266 310h-2.344l-4.562-7.484V310h-2.344v-11.375h2.344l4.57 7.5v-7.5h2.336V310zm1.547-4.305c0-.838.16-1.586.484-2.242a3.55 3.55 0 0 1 1.391-1.523c.61-.36 1.315-.54 2.117-.54 1.14 0 2.07.35 2.79 1.047.724.697 1.128 1.645 1.21 2.843l.016.578c0 1.297-.362 2.34-1.086 3.125s-1.695 1.172-2.914 1.172-2.193-.4-2.922-1.172c-.724-.78-1.086-1.843-1.086-3.187v-.102zm2.258.164c0 .802.15 1.417.453 1.844s.734.633 1.297.633c.547 0 .974-.208 1.28-.625.307-.422.46-1.094.46-2.016 0-.786-.154-1.396-.46-1.828s-.74-.648-1.297-.648a1.47 1.47 0 0 0-1.281.648c-.302.427-.453 1.09-.453 1.992zm13.242-4.312l.07.945c.6-.734 1.41-1.1 2.43-1.1 1.09 0 1.836.43 2.242 1.29.594-.86 1.44-1.29 2.54-1.29.917 0 1.6.268 2.047.804s.672 1.334.672 2.407V310h-2.266v-5.39c0-.48-.094-.828-.28-1.047s-.518-.335-.992-.335c-.677 0-1.146.322-1.406.968l.008 5.805h-2.258v-5.383c0-.49-.096-.844-.29-1.062s-.52-.328-.984-.328c-.64 0-1.104.265-1.39.796V310h-2.258v-8.453h2.117zM62.438 310h-2.266v-8.453h2.266V310zm-2.398-10.64c0-.338.112-.617.336-.836.23-.218.54-.328.93-.328.385 0 .693.1.922.328s.344.498.344.836c0 .344-.117.625-.352.844-.23.22-.534.328-.914.328s-.687-.11-.922-.328c-.23-.22-.344-.5-.344-.844zm3.914 6.352c0-1.318.294-2.367.883-3.15.594-.78 1.404-1.17 2.43-1.17.823 0 1.503.307 2.04.92V298h2.266v12h-2.04l-.11-.898c-.562.703-1.286 1.054-2.172 1.054-.995 0-1.794-.4-2.398-1.172-.6-.786-.9-1.877-.9-3.273zm2.258.164c0 .792.138 1.398.414 1.82s.677.633 1.203.633c.698 0 1.2-.294 1.477-.883v-3.336c-.28-.588-.768-.882-1.46-.882-1.09 0-1.633.882-1.633 2.648zm6.758-.164c0-1.318.294-2.367.883-3.15.594-.78 1.404-1.17 2.43-1.17.823 0 1.503.307 2.04.92V298h2.266v12h-2.04l-.11-.898c-.562.703-1.287 1.054-2.172 1.054-.995 0-1.794-.4-2.398-1.172-.6-.786-.898-1.877-.898-3.273zm2.258.164c0 .792.138 1.398.414 1.82s.677.633 1.203.633c.698 0 1.2-.294 1.477-.883v-3.336c-.28-.588-.768-.882-1.46-.882-1.09 0-1.633.882-1.633 2.648zM84.72 310h-2.266v-12h2.266v12zm5.758.156c-1.24 0-2.25-.38-3.03-1.14-.776-.76-1.164-1.774-1.164-3.04v-.22c0-.85.164-1.607.492-2.274s.792-1.187 1.39-1.546c.604-.365 1.292-.547 2.063-.547 1.156 0 2.065.364 2.727 1.093.667.73 1 1.763 1 3.102v.922H88.57c.073.552.292.995.656 1.328.37.333.836.5 1.398.5.87 0 1.55-.315 2.04-.945l1.11 1.242a3.42 3.42 0 0 1-1.375 1.125c-.578.265-1.22.398-1.922.398zm-.258-6.937c-.448 0-.813.15-1.094.453-.276.302-.453.734-.53 1.297h3.14v-.18c-.01-.5-.146-.885-.406-1.156s-.63-.414-1.11-.414zm7.14-1.672l.07.945c.6-.734 1.41-1.1 2.43-1.1 1.09 0 1.836.43 2.243 1.29.593-.86 1.44-1.29 2.54-1.29.916 0 1.6.268 2.047.804s.67 1.334.67 2.407V310h-2.265v-5.39c0-.48-.094-.828-.282-1.047s-.518-.335-.992-.335c-.677 0-1.146.322-1.406.968l.008 5.805h-2.258v-5.383c0-.49-.096-.844-.29-1.062s-.52-.328-.984-.328c-.64 0-1.104.265-1.39.796V310h-2.258v-8.453h2.117zm15.633 8.61c-1.24 0-2.25-.38-3.03-1.14-.776-.76-1.164-1.774-1.164-3.04v-.22c0-.85.164-1.607.492-2.274s.792-1.187 1.39-1.546c.604-.365 1.29-.547 2.062-.547 1.156 0 2.065.364 2.727 1.093s1 1.763 1 3.102v.922h-5.383c.073.552.292.995.656 1.328.37.333.836.5 1.4.5.87 0 1.55-.315 2.04-.945l1.11 1.242c-.338.48-.797.854-1.375 1.125-.578.265-1.22.398-1.922.398zm-.258-6.937c-.448 0-.812.15-1.093.453s-.453.734-.532 1.297h3.14v-.18c-.01-.5-.146-.885-.406-1.156s-.63-.414-1.1-.414zm7.102-1.672l.07.976c.604-.755 1.414-1.132 2.43-1.132.896 0 1.562.263 2 .79s.66 1.312.672 2.36V310h-2.258v-5.406c0-.48-.104-.826-.312-1.04-.21-.22-.555-.328-1.04-.328-.635 0-1.112.27-1.43.812V310h-2.258v-8.453h2.125z" fill="#1F2432"/><defs ><path id="B" d="M24.59 44.288h-3.336v-1.032h3.336v1.032z"/></defs></svg>