<svg width="330" height="94" viewBox="0 0 330 94" fill="none" xmlns="http://www.w3.org/2000/svg">
<path d="M330 0H0V63H330V0Z" fill="#00DCE6"/>
<path d="M134.055 23.0881V26.2289H137.438V40H141.353V23.0881H134.055ZM159.781 33.2594H157.026V30.0945H153.329V33.2594H148.786L156.18 23.0881H152.072L144.098 33.8151V36.4485H153.208V40H157.026V36.4485H159.781V33.2594ZM169.095 29.3938C167.331 29.3938 165.905 29.9012 164.914 30.8918C165.035 27.6543 166.848 25.9873 169.675 25.9873C170.811 25.9873 171.898 26.2048 172.84 26.8329L174.29 23.9579C173.106 23.2089 171.366 22.7982 169.578 22.7982C164.479 22.7982 160.951 26.0598 160.951 31.9065C160.951 37.3666 163.851 40.2899 168.515 40.2899C172.091 40.2899 174.919 38.1155 174.919 34.6607C174.919 31.4716 172.357 29.3938 169.095 29.3938ZM168.297 37.3666C166.413 37.3666 165.325 36.3036 165.325 34.854C165.325 33.3802 166.533 32.3172 168.249 32.3172C169.989 32.3172 171.125 33.3077 171.125 34.854C171.125 36.4002 169.965 37.3666 168.297 37.3666ZM179.78 32.2205C182.245 32.2205 183.961 30.4327 183.961 27.5577C183.961 24.6827 182.245 22.8949 179.78 22.8949C177.315 22.8949 175.576 24.7068 175.576 27.5577C175.576 30.4086 177.315 32.2205 179.78 32.2205ZM178.306 40H181.182L192.732 23.0881H189.857L178.306 40ZM179.78 30.2394C178.741 30.2394 178.016 29.3455 178.016 27.5577C178.016 25.7699 178.741 24.876 179.78 24.876C180.843 24.876 181.544 25.7457 181.544 27.5577C181.544 29.3697 180.843 30.2394 179.78 30.2394ZM191.258 40.1933C193.723 40.1933 195.463 38.3813 195.463 35.5304C195.463 32.6796 193.723 30.8676 191.258 30.8676C188.818 30.8676 187.078 32.6796 187.078 35.5304C187.078 38.3813 188.818 40.1933 191.258 40.1933ZM191.258 38.2122C190.219 38.2122 189.494 37.3424 189.494 35.5304C189.494 33.7185 190.219 32.8487 191.258 32.8487C192.322 32.8487 193.022 33.7426 193.022 35.5304C193.022 37.3183 192.322 38.2122 191.258 38.2122Z" fill="white"/>
<path d="M329.911 76.1849H0V75.124L329.911 75.2918V76.1849Z" fill="#1F2432"/>
<path d="M1 75.1245H0V80.6506H1V75.1245Z" fill="#1F2432"/>
<path d="M66.6954 75.292H65.8037V80.6508H66.6954V75.292Z" fill="#1F2432"/>
<path d="M132.499 75.292H131.607V80.6508H132.499V75.292Z" fill="#1F2432"/>
<path d="M198.303 75.292H197.412V80.6508H198.303V75.292Z" fill="#1F2432"/>
<path d="M264.107 75.292H263.215V80.6508H264.107V75.292Z" fill="#1F2432"/>
<path d="M329.911 75.292H329.019V80.6508H329.911V75.292Z" fill="#1F2432"/>
<path d="M4.45825 90.3862C4.45825 91.2793 4.27992 91.9938 3.8341 92.4404C3.38827 92.8869 2.94245 93.1549 2.22913 93.1549C1.51581 93.1549 0.980816 92.8869 0.624156 92.4404C0.267495 91.9938 0 91.2793 0 90.3862V88.8678C0 87.9747 0.17833 87.2602 0.624156 86.8136C0.980816 86.3671 1.51581 86.0991 2.22913 86.0991C2.94245 86.0991 3.47744 86.3671 3.8341 86.8136C4.19076 87.2602 4.45825 87.9747 4.45825 88.8678V90.3862ZM3.92326 88.6892C3.92326 87.9747 3.74493 87.4388 3.47744 87.0816C3.20994 86.7243 2.76412 86.5457 2.22913 86.5457C1.69414 86.5457 1.24831 86.7243 0.980816 87.0816C0.713321 87.4388 0.534991 87.9747 0.534991 88.6892V90.3862C0.534991 91.1007 0.713321 91.6366 0.980816 91.9938C1.24831 92.3511 1.69414 92.619 2.22913 92.619C2.76412 92.619 3.12078 92.4404 3.47744 91.9938C3.74493 91.6366 3.92326 91.0114 3.92326 90.2969V88.6892Z" fill="#1F2432"/>
<path d="M323.134 86.9031C323.134 86.4565 323.313 86.0992 323.58 85.742C323.848 85.3847 324.204 85.2954 324.65 85.2954C325.096 85.2954 325.453 85.474 325.72 85.742C325.988 86.0099 326.166 86.4565 326.166 86.9031V87.3496C326.166 87.7962 325.988 88.1534 325.72 88.4214C325.453 88.6893 325.096 88.8679 324.65 88.8679C324.204 88.8679 323.848 88.6893 323.58 88.4214C323.313 88.1534 323.134 87.7069 323.134 87.3496V86.9031ZM323.58 87.2603C323.58 87.5283 323.669 87.7962 323.848 88.0641C324.026 88.3321 324.293 88.4214 324.561 88.4214C324.828 88.4214 325.096 88.3321 325.274 88.0641C325.453 87.7962 325.542 87.6176 325.542 87.2603V86.9031C325.542 86.6351 325.453 86.3672 325.274 86.0992C325.096 85.8313 324.828 85.742 324.561 85.742C324.293 85.742 324.026 85.8313 323.848 86.0992C323.669 86.3672 323.58 86.5458 323.58 86.9031V87.2603ZM324.918 92.4405L324.561 92.1726L328.306 86.1885L328.663 86.4565L324.918 92.4405ZM326.968 91.1901C326.968 90.7435 327.147 90.3863 327.414 90.1183C327.682 89.8504 328.038 89.6718 328.484 89.6718C328.93 89.6718 329.287 89.8504 329.554 90.1183C329.822 90.3863 330 90.8328 330 91.1901V91.6367C330 92.0832 329.822 92.4405 329.554 92.7084C329.287 92.9764 328.93 93.155 328.484 93.155C328.038 93.155 327.682 92.9764 327.414 92.7084C327.147 92.4405 326.968 91.9939 326.968 91.6367V91.1901ZM327.414 91.5474C327.414 91.8153 327.503 92.0832 327.682 92.3512C327.86 92.6191 328.128 92.7084 328.395 92.7084C328.663 92.7084 328.93 92.6191 329.108 92.3512C329.287 92.0832 329.376 91.9046 329.376 91.5474V91.1008C329.376 90.7435 329.287 90.4756 329.108 90.297C328.93 90.1183 328.663 89.9397 328.395 89.9397C328.128 89.9397 327.86 90.029 327.682 90.297C327.503 90.5649 327.414 90.7435 327.414 91.1008V91.5474Z" fill="#1F2432"/>
<path d="M65.5367 93.0655H61.1676V92.619L63.4859 90.0289C63.9317 89.5823 64.1992 89.1357 64.3775 88.8678C64.5559 88.5105 64.645 88.2426 64.645 87.9747C64.645 87.5281 64.5559 87.1708 64.2884 86.9029C64.0209 86.635 63.6642 86.5456 63.2184 86.5456C62.6834 86.5456 62.3267 86.7243 61.9701 86.9922C61.7026 87.2602 61.5242 87.7067 61.5242 88.1533H60.9893C60.9893 87.5281 61.1676 87.0815 61.5242 86.635C61.8809 86.1884 62.4159 86.0098 63.1292 86.0098C63.7534 86.0098 64.1992 86.1884 64.5559 86.5456C64.9125 86.9029 65.0909 87.3495 65.0909 87.9747C65.0909 88.3319 65.0017 88.7785 64.7342 89.1357C64.4667 89.493 64.1992 89.9396 63.7534 90.4754L61.7917 92.619H65.3583V93.0655H65.5367Z" fill="#1F2432"/>
<path d="M71.0647 90.3876C71.0647 91.2808 70.8864 91.9953 70.4405 92.4418C70.0839 92.8884 69.5489 93.1564 68.8356 93.1564C68.1223 93.1564 67.5873 92.8884 67.2306 92.4418C66.8739 91.9953 66.6064 91.2808 66.6064 90.3876V88.8693C66.6064 87.9762 66.7848 87.2617 67.2306 86.8151C67.6764 86.3685 68.1223 86.1006 68.8356 86.1006C69.5489 86.1006 70.0839 86.3685 70.4405 86.8151C70.7972 87.2617 71.0647 87.9762 71.0647 88.8693V90.3876ZM70.4405 88.6907C70.4405 87.9762 70.2622 87.4403 69.9947 87.083C69.7272 86.7258 69.2814 86.5472 68.7464 86.5472C68.2114 86.5472 67.7656 86.7258 67.4981 87.083C67.2306 87.4403 67.0523 87.9762 67.0523 88.6907V90.3876C67.0523 91.1021 67.2306 91.638 67.4981 91.9953C67.7656 92.3525 68.2114 92.6205 68.7464 92.6205C69.2814 92.6205 69.6381 92.4418 69.9947 91.9953C70.2622 91.638 70.4405 91.0128 70.4405 90.2983V88.6907Z" fill="#1F2432"/>
<path d="M130.448 90.8327H131.518V91.2793H130.448V93.0655H129.913V91.2793H126.614V90.922L129.824 86.0098H130.448V90.8327ZM127.328 90.8327H129.913V86.9029L129.646 87.4388L127.328 90.8327Z" fill="#1F2432"/>
<path d="M136.779 90.3876C136.779 91.2808 136.601 91.9953 136.155 92.4418C135.798 92.8884 135.263 93.1564 134.55 93.1564C133.837 93.1564 133.302 92.8884 132.945 92.4418C132.588 91.9953 132.321 91.2808 132.321 90.3876V88.8693C132.321 87.9762 132.499 87.2617 132.945 86.8151C133.391 86.3685 133.837 86.1006 134.55 86.1006C135.263 86.1006 135.798 86.3685 136.155 86.8151C136.512 87.2617 136.779 87.9762 136.779 88.8693V90.3876ZM136.244 88.6907C136.244 87.9762 136.066 87.4403 135.798 87.083C135.531 86.7258 135.085 86.5472 134.55 86.5472C134.015 86.5472 133.569 86.7258 133.302 87.083C133.034 87.4403 132.856 87.9762 132.856 88.6907V90.3876C132.856 91.1021 133.034 91.638 133.302 91.9953C133.569 92.3525 134.015 92.6205 134.55 92.6205C135.085 92.6205 135.442 92.4418 135.798 91.9953C136.066 91.638 136.244 91.0128 136.244 90.2983V88.6907Z" fill="#1F2432"/>
<path d="M195.45 86.0098C195.717 86.0098 195.896 86.0098 196.163 86.0991C196.431 86.1884 196.609 86.1884 196.787 86.367L196.609 86.8136C196.431 86.7243 196.252 86.635 196.074 86.5456C195.896 86.4563 195.717 86.4563 195.45 86.4563C194.915 86.4563 194.469 86.635 194.202 87.0815C193.845 87.5281 193.667 87.9747 193.667 88.6892V89.3144C193.845 89.0464 194.112 88.8678 194.38 88.6892C194.647 88.5105 195.004 88.4212 195.361 88.4212C195.985 88.4212 196.52 88.5999 196.877 89.0464C197.233 89.493 197.412 90.0289 197.412 90.7434C197.412 91.4579 197.233 91.9938 196.787 92.4403C196.431 92.8869 195.896 93.1548 195.272 93.1548C194.647 93.1548 194.112 92.8869 193.667 92.4403C193.221 91.9938 193.042 91.2793 193.042 90.4754V88.6892C193.042 87.8853 193.31 87.2602 193.756 86.7243C194.202 86.2777 194.737 86.0098 195.45 86.0098ZM195.182 88.9571C194.826 88.9571 194.469 89.0464 194.202 89.225C193.934 89.4037 193.756 89.6716 193.577 90.0289V90.5648C193.577 91.1899 193.756 91.7258 194.023 92.1724C194.291 92.619 194.737 92.7083 195.182 92.7083C195.628 92.7083 195.985 92.5296 196.342 92.1724C196.609 91.8151 196.787 91.3686 196.787 90.8327C196.787 90.2968 196.609 89.8502 196.342 89.493C196.074 89.1357 195.717 88.9571 195.182 88.9571Z" fill="#1F2432"/>
<path d="M202.85 90.3876C202.85 91.2808 202.672 91.9953 202.226 92.4418C201.87 92.8884 201.335 93.1564 200.621 93.1564C199.908 93.1564 199.373 92.8884 199.016 92.4418C198.66 91.9953 198.392 91.2808 198.392 90.3876V88.8693C198.392 87.9762 198.57 87.2617 199.016 86.8151C199.462 86.3685 199.908 86.1006 200.621 86.1006C201.335 86.1006 201.87 86.3685 202.226 86.8151C202.583 87.2617 202.85 87.9762 202.85 88.8693V90.3876ZM202.226 88.6907C202.226 87.9762 202.048 87.4403 201.78 87.083C201.513 86.7258 201.067 86.5472 200.532 86.5472C199.997 86.5472 199.551 86.7258 199.284 87.083C199.016 87.4403 198.838 87.9762 198.838 88.6907V90.3876C198.838 91.1021 199.016 91.638 199.284 91.9953C199.551 92.3525 199.997 92.6205 200.532 92.6205C201.067 92.6205 201.424 92.4418 201.78 91.9953C202.048 91.638 202.226 91.0128 202.226 90.2983V88.6907Z" fill="#1F2432"/>
<path d="M262.859 87.8848C262.859 88.2421 262.77 88.5993 262.502 88.8673C262.324 89.1352 261.967 89.3138 261.611 89.4925C262.056 89.5818 262.413 89.8497 262.591 90.1177C262.77 90.3856 262.948 90.7428 262.948 91.1894C262.948 91.8146 262.77 92.2612 262.324 92.6184C261.878 92.9757 261.343 93.1543 260.719 93.1543C260.006 93.1543 259.471 92.9757 259.114 92.6184C258.668 92.2612 258.49 91.8146 258.49 91.1894C258.49 90.7428 258.579 90.3856 258.846 90.1177C259.114 89.8497 259.471 89.5818 259.827 89.4925C259.471 89.4031 259.203 89.1352 258.936 88.8673C258.757 88.5993 258.579 88.2421 258.579 87.8848C258.579 87.2596 258.757 86.8131 259.114 86.4558C259.471 86.0985 260.006 85.9199 260.63 85.9199C261.254 85.9199 261.7 86.0985 262.146 86.4558C262.681 86.8131 262.859 87.3489 262.859 87.8848ZM262.502 91.2787C262.502 90.8322 262.324 90.4749 262.056 90.207C261.7 89.939 261.343 89.7604 260.897 89.7604C260.451 89.7604 260.006 89.939 259.738 90.207C259.381 90.4749 259.292 90.8322 259.292 91.2787C259.292 91.7253 259.471 92.0825 259.738 92.3505C260.006 92.6184 260.451 92.7077 260.986 92.7077C261.432 92.7077 261.878 92.6184 262.146 92.3505C262.324 92.0825 262.502 91.7253 262.502 91.2787ZM262.324 87.8848C262.324 87.4382 262.146 87.1703 261.878 86.9024C261.611 86.6344 261.254 86.5451 260.808 86.5451C260.362 86.5451 260.006 86.6344 259.738 86.9024C259.471 87.1703 259.292 87.5276 259.292 87.8848C259.292 88.3314 259.471 88.5993 259.738 88.8673C260.006 89.1352 260.362 89.2245 260.808 89.2245C261.254 89.2245 261.611 89.1352 261.878 88.8673C262.146 88.6886 262.324 88.3314 262.324 87.8848Z" fill="#1F2432"/>
<path d="M268.566 90.3862C268.566 91.2793 268.387 91.9938 267.942 92.4404C267.585 92.8869 267.05 93.1549 266.337 93.1549C265.623 93.1549 265.088 92.8869 264.732 92.4404C264.375 91.9938 264.107 91.2793 264.107 90.3862V88.8678C264.107 87.9747 264.286 87.2602 264.732 86.8136C265.177 86.3671 265.623 86.0991 266.337 86.0991C267.05 86.0991 267.585 86.3671 267.942 86.8136C268.298 87.2602 268.566 87.9747 268.566 88.8678V90.3862ZM268.031 88.6892C268.031 87.9747 267.852 87.4388 267.585 87.0816C267.317 86.7243 266.872 86.5457 266.337 86.5457C265.802 86.5457 265.356 86.7243 265.088 87.0816C264.821 87.4388 264.642 87.9747 264.642 88.6892V90.3862C264.642 91.1007 264.821 91.6366 265.088 91.9938C265.356 92.3511 265.802 92.619 266.337 92.619C266.872 92.619 267.228 92.4404 267.585 91.9938C267.852 91.6366 268.031 91.0114 268.031 90.2969V88.6892Z" fill="#1F2432"/>
<path d="M307.263 93.1548H306.728V86.7243L304.945 86.9029V86.4563L307.263 86.0098V93.1548Z" fill="#1F2432"/>
<path d="M314.575 90.3876C314.575 91.2808 314.397 91.9953 313.951 92.4418C313.594 92.8884 313.059 93.1564 312.346 93.1564C311.633 93.1564 311.098 92.8884 310.741 92.4418C310.384 91.9953 310.117 91.2808 310.117 90.3876V88.8693C310.117 87.9762 310.295 87.2617 310.741 86.8151C311.187 86.3685 311.633 86.1006 312.346 86.1006C313.059 86.1006 313.594 86.3685 313.951 86.8151C314.307 87.2617 314.575 87.9762 314.575 88.8693V90.3876ZM313.951 88.6907C313.951 87.9762 313.772 87.4403 313.505 87.083C313.237 86.7258 312.792 86.5472 312.257 86.5472C311.722 86.5472 311.276 86.7258 311.008 87.083C310.741 87.4403 310.563 87.9762 310.563 88.6907V90.3876C310.563 91.1021 310.741 91.638 311.008 91.9953C311.276 92.3525 311.722 92.6205 312.257 92.6205C312.792 92.6205 313.148 92.4418 313.505 91.9953C313.772 91.638 313.951 91.0128 313.951 90.2983V88.6907Z" fill="#1F2432"/>
<path d="M320.281 90.3876C320.281 91.2808 320.103 91.9953 319.657 92.4418C319.3 92.8884 318.765 93.1564 318.052 93.1564C317.339 93.1564 316.804 92.8884 316.447 92.4418C316.09 91.9953 315.823 91.2808 315.823 90.3876V88.8693C315.823 87.9762 316.001 87.2617 316.447 86.8151C316.893 86.3685 317.339 86.1006 318.052 86.1006C318.765 86.1006 319.3 86.3685 319.657 86.8151C320.014 87.2617 320.281 87.9762 320.281 88.8693V90.3876ZM319.746 88.6907C319.746 87.9762 319.568 87.4403 319.3 87.083C319.033 86.7258 318.587 86.5472 318.052 86.5472C317.517 86.5472 317.071 86.7258 316.804 87.083C316.536 87.4403 316.358 87.9762 316.358 88.6907V90.3876C316.358 91.1021 316.536 91.638 316.804 91.9953C317.071 92.3525 317.517 92.6205 318.052 92.6205C318.587 92.6205 318.944 92.4418 319.3 91.9953C319.568 91.638 319.746 91.0128 319.746 90.2983V88.6907Z" fill="#1F2432"/>
<g opacity="0.2" clip-path="url(#clip0)">
<path d="M150.8 61.5C136.6 61.5 125 50 125 35.8C125 21.6 136.6 10 150.8 10V-6C127.7 -6 109 12.7 109 35.8C109 58.8 127.7 77.6 150.8 77.6C173.9 77.6 192.6 58.9 192.6 35.8H176.6C176.5 50 165 61.5 150.8 61.5Z" fill="white"/>
<path d="M202.5 1.3999L195.4 8.4999L203 16.0999H163.4C152.7 16.0999 144 24.7999 144 35.3999V51.0999H154V35.3999C154 30.1999 158.2 25.9999 163.4 25.9999H203.5L196.3 33.1999L203.4 40.2999L222.4 21.2999L202.5 1.3999Z" fill="white"/>
</g>
<defs>
<clipPath id="clip0">
<rect width="113" height="63" fill="white" transform="translate(109)"/>
</clipPath>
</defs>
</svg>
