<svg width="371" height="120" viewBox="0 0 371 120" fill="none" xmlns="http://www.w3.org/2000/svg">
<path d="M370 16H1V86H370V16Z" fill="#00DCE6"/>
<g opacity="0.2" clip-path="url(#clip0)">
<path d="M170.8 80.5C156.6 80.5 145 69 145 54.8C145 40.6 156.6 29 170.8 29V13C147.7 13 129 31.7 129 54.8C129 77.8 147.7 96.6 170.8 96.6C193.9 96.6 212.6 77.9 212.6 54.8H196.6C196.5 69 185 80.5 170.8 80.5Z" fill="white"/>
<path d="M222.5 20.3999L215.4 27.4999L223 35.0999H183.4C172.7 35.0999 164 43.7999 164 54.3999V70.0999H174V54.3999C174 49.1999 178.2 44.9999 183.4 44.9999H223.5L216.3 52.1999L223.4 59.2999L242.4 40.2999L222.5 20.3999Z" fill="white"/>
</g>
<path d="M154.055 42.0881V45.2289H157.438V59H161.353V42.0881H154.055ZM179.781 52.2594H177.026V49.0945H173.329V52.2594H168.786L176.18 42.0881H172.072L164.098 52.8151V55.4485H173.208V59H177.026V55.4485H179.781V52.2594ZM189.095 48.3938C187.331 48.3938 185.905 48.9012 184.914 49.8918C185.035 46.6543 186.848 44.9873 189.675 44.9873C190.811 44.9873 191.898 45.2048 192.84 45.8329L194.29 42.9579C193.106 42.2089 191.366 41.7982 189.578 41.7982C184.479 41.7982 180.951 45.0598 180.951 50.9065C180.951 56.3666 183.851 59.2899 188.515 59.2899C192.091 59.2899 194.919 57.1155 194.919 53.6607C194.919 50.4716 192.357 48.3938 189.095 48.3938ZM188.297 56.3666C186.413 56.3666 185.325 55.3036 185.325 53.854C185.325 52.3802 186.533 51.3172 188.249 51.3172C189.989 51.3172 191.125 52.3077 191.125 53.854C191.125 55.4002 189.965 56.3666 188.297 56.3666ZM199.78 51.2205C202.245 51.2205 203.961 49.4327 203.961 46.5577C203.961 43.6827 202.245 41.8949 199.78 41.8949C197.315 41.8949 195.576 43.7068 195.576 46.5577C195.576 49.4086 197.315 51.2205 199.78 51.2205ZM198.306 59H201.182L212.732 42.0881H209.857L198.306 59ZM199.78 49.2394C198.741 49.2394 198.016 48.3455 198.016 46.5577C198.016 44.7699 198.741 43.876 199.78 43.876C200.843 43.876 201.544 44.7457 201.544 46.5577C201.544 48.3697 200.843 49.2394 199.78 49.2394ZM211.258 59.1933C213.723 59.1933 215.463 57.3813 215.463 54.5304C215.463 51.6796 213.723 49.8676 211.258 49.8676C208.818 49.8676 207.078 51.6796 207.078 54.5304C207.078 57.3813 208.818 59.1933 211.258 59.1933ZM211.258 57.2122C210.219 57.2122 209.494 56.3424 209.494 54.5304C209.494 52.7185 210.219 51.8487 211.258 51.8487C212.322 51.8487 213.022 52.7426 213.022 54.5304C213.022 56.3183 212.322 57.2122 211.258 57.2122Z" fill="white"/>
<path d="M370 101H0V0H370V1H1V100H370V101Z" fill="#1F2432"/>
<path d="M1 100H0V106H1V100Z" fill="#1F2432"/>
<path d="M74.7998 100H73.7998V106H74.7998V100Z" fill="#1F2432"/>
<path d="M148.6 100H147.6V106H148.6V100Z" fill="#1F2432"/>
<path d="M222.4 100H221.4V106H222.4V100Z" fill="#1F2432"/>
<path d="M296.2 100H295.2V106H296.2V100Z" fill="#1F2432"/>
<path d="M370 100H369V106H370V100Z" fill="#1F2432"/>
<path d="M5 116.9C5 117.9 4.8 118.7 4.3 119.2C3.8 119.7 3.3 120 2.5 120C1.7 120 1.1 119.7 0.7 119.2C0.3 118.7 0 117.9 0 116.9V115.2C0 114.2 0.2 113.4 0.7 112.9C1.1 112.4 1.7 112.1 2.5 112.1C3.3 112.1 3.9 112.4 4.3 112.9C4.7 113.4 5 114.2 5 115.2V116.9ZM4.4 115C4.4 114.2 4.2 113.6 3.9 113.2C3.6 112.8 3.1 112.6 2.5 112.6C1.9 112.6 1.4 112.8 1.1 113.2C0.8 113.6 0.6 114.2 0.6 115V116.9C0.6 117.7 0.8 118.3 1.1 118.7C1.4 119.1 1.9 119.4 2.5 119.4C3.1 119.4 3.5 119.2 3.9 118.7C4.2 118.3 4.4 117.6 4.4 116.8V115Z" fill="#1F2432"/>
<path d="M362.4 113C362.4 112.5 362.6 112.1 362.9 111.7C363.2 111.3 363.6 111.2 364.1 111.2C364.6 111.2 365 111.4 365.3 111.7C365.6 112 365.8 112.5 365.8 113V113.5C365.8 114 365.6 114.4 365.3 114.7C365 115 364.6 115.2 364.1 115.2C363.6 115.2 363.2 115 362.9 114.7C362.6 114.4 362.4 113.9 362.4 113.5V113ZM362.9 113.4C362.9 113.7 363 114 363.2 114.3C363.4 114.6 363.7 114.7 364 114.7C364.3 114.7 364.6 114.6 364.8 114.3C365 114 365.1 113.8 365.1 113.4V113C365.1 112.7 365 112.4 364.8 112.1C364.6 111.8 364.3 111.7 364 111.7C363.7 111.7 363.4 111.8 363.2 112.1C363 112.4 362.9 112.6 362.9 113V113.4ZM364.4 119.2L364 118.9L368.2 112.2L368.6 112.5L364.4 119.2ZM366.7 117.8C366.7 117.3 366.9 116.9 367.2 116.6C367.5 116.3 367.9 116.1 368.4 116.1C368.9 116.1 369.3 116.3 369.6 116.6C369.9 116.9 370.1 117.4 370.1 117.8V118.3C370.1 118.8 369.9 119.2 369.6 119.5C369.3 119.8 368.9 120 368.4 120C367.9 120 367.5 119.8 367.2 119.5C366.9 119.2 366.7 118.7 366.7 118.3V117.8ZM367.2 118.2C367.2 118.5 367.3 118.8 367.5 119.1C367.7 119.4 368 119.5 368.3 119.5C368.6 119.5 368.9 119.4 369.1 119.1C369.3 118.8 369.4 118.6 369.4 118.2V117.7C369.4 117.3 369.3 117 369.1 116.8C368.9 116.6 368.6 116.4 368.3 116.4C368 116.4 367.7 116.5 367.5 116.8C367.3 117.1 367.2 117.3 367.2 117.7V118.2Z" fill="#1F2432"/>
<path d="M73.5004 119.9H68.6004V119.4L71.2004 116.5C71.7004 116 72.0004 115.5 72.2004 115.2C72.4004 114.8 72.5004 114.5 72.5004 114.2C72.5004 113.7 72.4004 113.3 72.1004 113C71.8004 112.7 71.4004 112.6 70.9004 112.6C70.3004 112.6 69.9004 112.8 69.5004 113.1C69.2004 113.4 69.0004 113.9 69.0004 114.4H68.4004C68.4004 113.7 68.6004 113.2 69.0004 112.7C69.4004 112.2 70.0004 112 70.8004 112C71.5004 112 72.0004 112.2 72.4004 112.6C72.8004 113 73.0004 113.5 73.0004 114.2C73.0004 114.6 72.9004 115.1 72.6004 115.5C72.3004 115.9 72.0004 116.4 71.5004 117L69.3004 119.4H73.3004V119.9H73.5004Z" fill="#1F2432"/>
<path d="M79.7002 116.9C79.7002 117.9 79.5002 118.7 79.0002 119.2C78.6002 119.7 78.0002 120 77.2002 120C76.4002 120 75.8002 119.7 75.4002 119.2C75.0002 118.7 74.7002 117.9 74.7002 116.9V115.2C74.7002 114.2 74.9002 113.4 75.4002 112.9C75.9002 112.4 76.4002 112.1 77.2002 112.1C78.0002 112.1 78.6002 112.4 79.0002 112.9C79.4002 113.4 79.7002 114.2 79.7002 115.2V116.9ZM79.0002 115C79.0002 114.2 78.8002 113.6 78.5002 113.2C78.2002 112.8 77.7002 112.6 77.1002 112.6C76.5002 112.6 76.0002 112.8 75.7002 113.2C75.4002 113.6 75.2002 114.2 75.2002 115V116.9C75.2002 117.7 75.4002 118.3 75.7002 118.7C76.0002 119.1 76.5002 119.4 77.1002 119.4C77.7002 119.4 78.1002 119.2 78.5002 118.7C78.8002 118.3 79.0002 117.6 79.0002 116.8V115Z" fill="#1F2432"/>
<path d="M146.3 117.4H147.5V117.9H146.3V119.9H145.7V117.9H142V117.5L145.6 112H146.3V117.4ZM142.8 117.4H145.7V113L145.4 113.6L142.8 117.4Z" fill="#1F2432"/>
<path d="M153.4 116.9C153.4 117.9 153.2 118.7 152.7 119.2C152.3 119.7 151.7 120 150.9 120C150.1 120 149.5 119.7 149.1 119.2C148.7 118.7 148.4 117.9 148.4 116.9V115.2C148.4 114.2 148.6 113.4 149.1 112.9C149.6 112.4 150.1 112.1 150.9 112.1C151.7 112.1 152.3 112.4 152.7 112.9C153.1 113.4 153.4 114.2 153.4 115.2V116.9ZM152.8 115C152.8 114.2 152.6 113.6 152.3 113.2C152 112.8 151.5 112.6 150.9 112.6C150.3 112.6 149.8 112.8 149.5 113.2C149.2 113.6 149 114.2 149 115V116.9C149 117.7 149.2 118.3 149.5 118.7C149.8 119.1 150.3 119.4 150.9 119.4C151.5 119.4 151.9 119.2 152.3 118.7C152.6 118.3 152.8 117.6 152.8 116.8V115Z" fill="#1F2432"/>
<path d="M219.2 112C219.5 112 219.7 112 220 112.1C220.3 112.2 220.5 112.2 220.7 112.4L220.5 112.9C220.3 112.8 220.1 112.7 219.9 112.6C219.7 112.5 219.5 112.5 219.2 112.5C218.6 112.5 218.1 112.7 217.8 113.2C217.4 113.7 217.2 114.2 217.2 115V115.7C217.4 115.4 217.7 115.2 218 115C218.3 114.8 218.7 114.7 219.1 114.7C219.8 114.7 220.4 114.9 220.8 115.4C221.2 115.9 221.4 116.5 221.4 117.3C221.4 118.1 221.2 118.7 220.7 119.2C220.3 119.7 219.7 120 219 120C218.3 120 217.7 119.7 217.2 119.2C216.7 118.7 216.5 117.9 216.5 117V115C216.5 114.1 216.8 113.4 217.3 112.8C217.8 112.3 218.4 112 219.2 112ZM218.9 115.3C218.5 115.3 218.1 115.4 217.8 115.6C217.5 115.8 217.3 116.1 217.1 116.5V117.1C217.1 117.8 217.3 118.4 217.6 118.9C217.9 119.4 218.4 119.5 218.9 119.5C219.4 119.5 219.8 119.3 220.2 118.9C220.5 118.5 220.7 118 220.7 117.4C220.7 116.8 220.5 116.3 220.2 115.9C219.9 115.5 219.5 115.3 218.9 115.3Z" fill="#1F2432"/>
<path d="M227.5 116.9C227.5 117.9 227.3 118.7 226.8 119.2C226.4 119.7 225.8 120 225 120C224.2 120 223.6 119.7 223.2 119.2C222.8 118.7 222.5 117.9 222.5 116.9V115.2C222.5 114.2 222.7 113.4 223.2 112.9C223.7 112.4 224.2 112.1 225 112.1C225.8 112.1 226.4 112.4 226.8 112.9C227.2 113.4 227.5 114.2 227.5 115.2V116.9ZM226.8 115C226.8 114.2 226.6 113.6 226.3 113.2C226 112.8 225.5 112.6 224.9 112.6C224.3 112.6 223.8 112.8 223.5 113.2C223.2 113.6 223 114.2 223 115V116.9C223 117.7 223.2 118.3 223.5 118.7C223.8 119.1 224.3 119.4 224.9 119.4C225.5 119.4 225.9 119.2 226.3 118.7C226.6 118.3 226.8 117.6 226.8 116.8V115Z" fill="#1F2432"/>
<path d="M294.8 114.1C294.8 114.5 294.7 114.9 294.4 115.2C294.2 115.5 293.8 115.7 293.4 115.9C293.9 116 294.3 116.3 294.5 116.6C294.7 116.9 294.9 117.3 294.9 117.8C294.9 118.5 294.7 119 294.2 119.4C293.7 119.8 293.1 120 292.4 120C291.6 120 291 119.8 290.6 119.4C290.1 119 289.9 118.5 289.9 117.8C289.9 117.3 290 116.9 290.3 116.6C290.6 116.3 291 116 291.4 115.9C291 115.8 290.7 115.5 290.4 115.2C290.2 114.9 290 114.5 290 114.1C290 113.4 290.2 112.9 290.6 112.5C291 112.1 291.6 111.9 292.3 111.9C293 111.9 293.5 112.1 294 112.5C294.6 112.9 294.8 113.5 294.8 114.1ZM294.4 117.9C294.4 117.4 294.2 117 293.9 116.7C293.5 116.4 293.1 116.2 292.6 116.2C292.1 116.2 291.6 116.4 291.3 116.7C290.9 117 290.8 117.4 290.8 117.9C290.8 118.4 291 118.8 291.3 119.1C291.6 119.4 292.1 119.5 292.7 119.5C293.2 119.5 293.7 119.4 294 119.1C294.2 118.8 294.4 118.4 294.4 117.9ZM294.2 114.1C294.2 113.6 294 113.3 293.7 113C293.4 112.7 293 112.6 292.5 112.6C292 112.6 291.6 112.7 291.3 113C291 113.3 290.8 113.7 290.8 114.1C290.8 114.6 291 114.9 291.3 115.2C291.6 115.5 292 115.6 292.5 115.6C293 115.6 293.4 115.5 293.7 115.2C294 115 294.2 114.6 294.2 114.1Z" fill="#1F2432"/>
<path d="M301.2 116.9C301.2 117.9 301 118.7 300.5 119.2C300.1 119.7 299.5 120 298.7 120C297.9 120 297.3 119.7 296.9 119.2C296.5 118.7 296.2 117.9 296.2 116.9V115.2C296.2 114.2 296.4 113.4 296.9 112.9C297.4 112.4 297.9 112.1 298.7 112.1C299.5 112.1 300.1 112.4 300.5 112.9C300.9 113.4 301.2 114.2 301.2 115.2V116.9ZM300.6 115C300.6 114.2 300.4 113.6 300.1 113.2C299.8 112.8 299.3 112.6 298.7 112.6C298.1 112.6 297.6 112.8 297.3 113.2C297 113.6 296.8 114.2 296.8 115V116.9C296.8 117.7 297 118.3 297.3 118.7C297.6 119.1 298.1 119.4 298.7 119.4C299.3 119.4 299.7 119.2 300.1 118.7C300.4 118.3 300.6 117.6 300.6 116.8V115Z" fill="#1F2432"/>
<path d="M344.6 120H344V112.8L342 113V112.5L344.6 112V120Z" fill="#1F2432"/>
<path d="M352.8 116.9C352.8 117.9 352.6 118.7 352.1 119.2C351.7 119.7 351.1 120 350.3 120C349.5 120 348.9 119.7 348.5 119.2C348.1 118.7 347.8 117.9 347.8 116.9V115.2C347.8 114.2 348 113.4 348.5 112.9C349 112.4 349.5 112.1 350.3 112.1C351.1 112.1 351.7 112.4 352.1 112.9C352.5 113.4 352.8 114.2 352.8 115.2V116.9ZM352.1 115C352.1 114.2 351.9 113.6 351.6 113.2C351.3 112.8 350.8 112.6 350.2 112.6C349.6 112.6 349.1 112.8 348.8 113.2C348.5 113.6 348.3 114.2 348.3 115V116.9C348.3 117.7 348.5 118.3 348.8 118.7C349.1 119.1 349.6 119.4 350.2 119.4C350.8 119.4 351.2 119.2 351.6 118.7C351.9 118.3 352.1 117.6 352.1 116.8V115Z" fill="#1F2432"/>
<path d="M359.2 116.9C359.2 117.9 359 118.7 358.5 119.2C358.1 119.7 357.5 120 356.7 120C355.9 120 355.3 119.7 354.9 119.2C354.5 118.7 354.2 117.9 354.2 116.9V115.2C354.2 114.2 354.4 113.4 354.9 112.9C355.4 112.4 355.9 112.1 356.7 112.1C357.5 112.1 358.1 112.4 358.5 112.9C358.9 113.4 359.2 114.2 359.2 115.2V116.9ZM358.6 115C358.6 114.2 358.4 113.6 358.1 113.2C357.8 112.8 357.3 112.6 356.7 112.6C356.1 112.6 355.6 112.8 355.3 113.2C355 113.6 354.8 114.2 354.8 115V116.9C354.8 117.7 355 118.3 355.3 118.7C355.6 119.1 356.1 119.4 356.7 119.4C357.3 119.4 357.7 119.2 358.1 118.7C358.4 118.3 358.6 117.6 358.6 116.8V115Z" fill="#1F2432"/>
<defs>
<clipPath id="clip0">
<rect width="113" height="70" fill="white" transform="translate(129 16)"/>
</clipPath>
</defs>
</svg>
