<?xml version="1.0" encoding="utf-8"?>
<!-- Generator: Adobe Illustrator 15.0.0, SVG Export Plug-In . SVG Version: 6.00 Build 0)  -->
<!DOCTYPE svg PUBLIC "-//W3C//DTD SVG 1.1//EN" "http://www.w3.org/Graphics/SVG/1.1/DTD/svg11.dtd">
<svg version="1.1" id="图层_1" xmlns="http://www.w3.org/2000/svg" xmlns:xlink="http://www.w3.org/1999/xlink" x="0px" y="0px"
	 width="620px" height="346px" viewBox="0 0 620 346" enable-background="new 0 0 620 346" xml:space="preserve">
<g opacity="0.9">
	<path fill="#1F2432" d="M258,8c32.585,0,59,26.316,59,58.779v158.442L258,248l-59-22.779V66.779C199,34.316,225.415,8,258,8z"/>
	<path fill="#1F2432" d="M472,66.779C472,34.316,445.585,8,413,8s-59,26.316-59,58.779v158.442L413,248l59-22.779V66.779z"/>
	<path fill="#1F2432" d="M620,66.779C620,34.316,593.585,8,561,8s-59,26.316-59,58.779v158.442L561,248l59-22.779V66.779z"/>
</g>
<path fill="#1F2432" d="M317,225c0,32.585-26.415,59-59,59s-59-26.415-59-59s26.415-59,59-59S317,192.415,317,225z"/>
<path fill="#1F2432" d="M472,225c0,32.585-26.415,59-59,59s-59-26.415-59-59s26.415-59,59-59S472,192.415,472,225z"/>
<path fill="#1F2432" d="M561,284c32.585,0,59-26.415,59-59s-26.415-59-59-59s-59,26.415-59,59S528.415,284,561,284z"/>
<path fill="#1F2432" d="M90,299c0,24.854-20.147,45-45,45S0,323.854,0,299s20.147-45,45-45S90,274.146,90,299z"/>
<path fill="#1F2432" d="M90,177c0,24.854-20.147,45-45,45S0,201.854,0,177c0-24.853,20.147-45,45-45S90,152.147,90,177z"/>
<path fill="#1F2432" d="M90,53c0,24.853-20.147,45-45,45S0,77.853,0,53S20.147,8,45,8S90,28.147,90,53z"/>
<path fill="#00DCE6" d="M543.982,97.455l-0.266-0.424l-0.234,0.147v0.277H543.982z M561.513,86.515l0.266-0.424l-0.266-0.165
	l-0.264,0.165L561.513,86.515z M579.045,97.455h0.5v-0.277l-0.236-0.147L579.045,97.455z M561.513,127.547l-0.268,0.422l0.268,0.17
	l0.269-0.17L561.513,127.547z M543.981,116.412l-0.265-0.424l-0.674,0.421l0.67,0.426L543.981,116.412z M579.044,116.412
	l0.269,0.423l0.671-0.426l-0.675-0.421L579.044,116.412z M561.513,108.459l-0.267,0.423l0.267,0.168l0.267-0.168L561.513,108.459z
	 M543.982,59.939l-0.266-0.424l-0.234,0.146v0.277H543.982z M561.513,49l0.266-0.424l-0.266-0.165l-0.264,0.165L561.513,49z
	 M579.045,59.939h0.5v-0.277l-0.236-0.146L579.045,59.939z M561.513,90.032l-0.268,0.422l0.268,0.17l0.269-0.17L561.513,90.032z
	 M543.981,78.897l-0.265-0.424l-0.674,0.42l0.67,0.426L543.981,78.897z M579.044,78.897l0.269,0.422l0.671-0.426l-0.675-0.42
	L579.044,78.897z M561.513,70.944l-0.267,0.423l0.267,0.168l0.267-0.168L561.513,70.944z M516.517,79.283l-0.265-0.424l-0.235,0.146
	v0.277H516.517z M534.048,68.344l0.265-0.424l-0.265-0.165l-0.265,0.165L534.048,68.344z M551.579,79.283h0.5v-0.277l-0.235-0.146
	L551.579,79.283z M534.048,109.376l-0.268,0.422l0.268,0.17l0.269-0.17L534.048,109.376z M516.517,98.241l-0.265-0.424l-0.674,0.42
	l0.671,0.426L516.517,98.241z M551.579,98.241l0.269,0.422l0.67-0.426l-0.674-0.42L551.579,98.241z M534.048,90.288l-0.266,0.423
	l0.266,0.168l0.268-0.168L534.048,90.288z M570.864,79.283l-0.266-0.424l-0.234,0.146v0.277H570.864z M588.395,68.344l0.266-0.424
	l-0.266-0.165l-0.265,0.165L588.395,68.344z M605.926,79.283h0.5v-0.277l-0.234-0.146L605.926,79.283z M588.395,109.376
	l-0.268,0.422l0.268,0.17l0.269-0.17L588.395,109.376z M570.864,98.241l-0.266-0.424l-0.674,0.42l0.671,0.426L570.864,98.241z
	 M605.926,98.241l0.269,0.422l0.671-0.426l-0.674-0.42L605.926,98.241z M588.395,90.288l-0.266,0.423l0.266,0.168l0.267-0.168
	L588.395,90.288z M544.482,116.38V97.455h-1v18.925H544.482z M544.247,97.879l17.531-10.94l-0.529-0.848L543.717,97.03
	L544.247,97.879z M561.249,86.939l17.531,10.94l0.528-0.849l-17.53-10.939L561.249,86.939z M578.545,97.455v18.925h1V97.455H578.545
	z M561.781,127.125L544.25,115.99l-0.537,0.845l17.532,11.134L561.781,127.125z M544.246,116.837l17.531-10.94l-0.529-0.848
	l-17.531,10.939L544.246,116.837z M561.248,105.897l17.531,10.94l0.529-0.849l-17.531-10.939L561.248,105.897z M578.776,115.99
	l-17.531,11.135l0.536,0.844l17.531-11.134L578.776,115.99z M578.778,96.999l-17.532,11.037l0.533,0.846l17.53-11.037
	L578.778,96.999z M561.779,108.036l-17.531-11.037l-0.533,0.846l17.531,11.037L561.779,108.036z M561.013,86.515v18.958h1V86.515
	L561.013,86.515z M561.012,108.589l0.001,18.958h1l-0.001-18.958H561.012z M544.482,78.865V59.939h-1v18.926H544.482z
	 M544.247,60.364l17.531-10.939l-0.529-0.849l-17.532,10.94L544.247,60.364z M561.249,49.424l17.531,10.939l0.528-0.848
	l-17.53-10.94L561.249,49.424z M578.545,59.939v18.926h1V59.939H578.545z M561.781,89.61L544.25,78.476l-0.537,0.844l17.532,11.135
	L561.781,89.61z M544.246,79.322l17.531-10.94l-0.529-0.848l-17.531,10.939L544.246,79.322z M561.248,68.382l17.531,10.94
	l0.529-0.849l-17.531-10.939L561.248,68.382z M578.776,78.476L561.245,89.61l0.536,0.844l17.531-11.135L578.776,78.476z
	 M578.778,59.484l-17.532,11.037l0.533,0.846l17.53-11.037L578.778,59.484z M561.779,70.521l-17.531-11.037l-0.533,0.846
	l17.531,11.037L561.779,70.521z M561.013,49v18.958l1,0V49H561.013z M561.012,71.074l0.001,18.958h1l-0.001-18.958H561.012z
	 M517.017,98.208V79.283h-1v18.925H517.017z M516.781,79.708l17.531-10.939l-0.529-0.849l-17.531,10.94L516.781,79.708z
	 M533.783,68.768l17.531,10.939l0.529-0.848l-17.531-10.94L533.783,68.768z M551.079,79.283v18.925h1V79.283H551.079z
	 M534.316,108.954l-17.531-11.135l-0.536,0.844l17.531,11.135L534.316,108.954z M516.782,98.666l17.53-10.94l-0.529-0.848
	l-17.531,10.939L516.782,98.666z M533.783,87.726l17.532,10.94l0.528-0.849l-17.531-10.939L533.783,87.726z M551.311,97.819
	l-17.53,11.135l0.536,0.844l17.531-11.135L551.311,97.819z M551.313,78.828l-17.53,11.037l0.533,0.846l17.53-11.037L551.313,78.828z
	 M534.315,89.865l-17.532-11.037l-0.532,0.846l17.531,11.037L534.315,89.865z M533.548,68.344v18.958h1V68.344H533.548z
	 M533.549,90.418l-0.001,18.958h1l0.001-18.958H533.549z M571.364,98.209V79.283h-1v18.926H571.364z M571.129,79.708l17.531-10.939
	l-0.53-0.849l-17.531,10.94L571.129,79.708z M588.13,68.768l17.532,10.939l0.529-0.848l-17.531-10.94L588.13,68.768z
	 M605.426,79.283v18.926h1V79.283H605.426z M588.663,108.954l-17.531-11.135l-0.536,0.844l17.531,11.135L588.663,108.954z
	 M571.128,98.666l17.532-10.94l-0.53-0.848l-17.531,10.939L571.128,98.666z M588.13,87.726l17.532,10.94l0.529-0.849L588.66,86.877
	L588.13,87.726z M605.658,97.819l-17.531,11.135l0.536,0.844l17.531-11.135L605.658,97.819z M605.66,78.828l-17.531,11.037
	l0.532,0.846l17.532-11.037L605.66,78.828z M588.661,89.865L571.13,78.828l-0.533,0.846l17.532,11.037L588.661,89.865z
	 M587.895,68.344v18.958h1V68.344H587.895z M587.895,90.418v18.958h1V90.418H587.895z"/>
<path fill="#00DCE6" d="M413.221,48.406l32.787,21.069v35.955l0.419,0.269l-33.206,21.718l-33.206-21.718l0.419-0.269V69.475
	L413.221,48.406z M445.008,70.606v34.181l-26.477-17.015L445.008,70.606z M444.538,69.719l-30.817-19.804v34.766l3.887,2.498
	L444.538,69.719z M381.904,69.719l30.816-19.803v34.766l-3.886,2.497L381.904,69.719z M381.434,70.606l26.479,17.166l-26.479,17.015
	V70.606z M408.832,88.37l-26.979,17.336l30.868,20.189V90.891L408.832,88.37z M413.721,90.891v35.005l30.868-20.19L417.61,88.37
	L413.721,90.891z M416.688,87.776l-3.467-2.227l-3.465,2.227l3.465,2.247L416.688,87.776z"/>
<path fill="#00DCE6" d="M500,144l0.707,0.707l0.707-0.707l-0.707-0.707L500,144z M464,145h35v-2h-35V145z M499.293,143.293l-12,12
	l1.414,1.414l12-12L499.293,143.293z M500.707,143.293l-12-12l-1.414,1.414l12,12L500.707,143.293z"/>
<circle fill="#00DCE6" fill-opacity="0.2" cx="465" cy="144" r="11"/>
<circle fill="#00DCE6" cx="465" cy="144" r="4"/>
<path fill="#00DCE6" d="M258.221,47.406l32.787,21.069v35.955l0.419,0.269l-33.206,21.718l-33.206-21.718l0.419-0.269V68.475
	L258.221,47.406z M290.008,69.606v34.181l-26.477-17.015L290.008,69.606z M289.538,68.719l-30.817-19.803v34.766l3.886,2.497
	L289.538,68.719z M226.904,68.719l30.817-19.804v34.766l-3.886,2.498L226.904,68.719z M226.434,69.606l26.478,17.166l-26.478,17.015
	V69.606z M253.832,87.37l-26.979,17.336l30.868,20.19V89.891L253.832,87.37z M258.721,89.891v35.004l30.868-20.189L262.61,87.37
	L258.721,89.891z M261.687,86.776l-3.466-2.227l-3.465,2.227l3.465,2.247L261.687,86.776z"/>
<path fill="#00DCE6" d="M124.701,262.509c0-0.471-0.381-0.852-0.851-0.852c-0.469,0-0.85,0.381-0.85,0.852
	c0,0.47,0.381,0.853,0.85,0.853C124.32,263.361,124.701,262.979,124.701,262.509z"/>
<path fill="#00DCE6" d="M124.701,257.537c0-0.471-0.381-0.852-0.851-0.852c-0.469,0-0.85,0.381-0.85,0.852s0.381,0.854,0.85,0.854
	C124.32,258.391,124.701,258.008,124.701,257.537z"/>
<path fill="#00DCE6" d="M124.701,252.709c0-0.471-0.381-0.852-0.851-0.852c-0.469,0-0.85,0.381-0.85,0.852s0.381,0.852,0.85,0.852
	C124.32,253.561,124.701,253.18,124.701,252.709z"/>
<path fill="#00DCE6" d="M124.701,247.738c0-0.471-0.381-0.853-0.851-0.853c-0.469,0-0.85,0.382-0.85,0.853
	c0,0.47,0.381,0.852,0.85,0.852C124.32,248.59,124.701,248.208,124.701,247.738z"/>
<path fill="#00DCE6" d="M124.701,242.909c0-0.472-0.381-0.853-0.851-0.853c-0.469,0-0.85,0.381-0.85,0.853
	c0,0.47,0.381,0.852,0.85,0.852C124.32,243.761,124.701,243.379,124.701,242.909z"/>
<path fill="#00DCE6" d="M124.701,237.938c0-0.471-0.381-0.852-0.851-0.852c-0.469,0-0.85,0.381-0.85,0.852
	c0,0.472,0.381,0.853,0.85,0.853C124.32,238.79,124.701,238.409,124.701,237.938z"/>
<path fill="#00DCE6" d="M124.701,232.967c0-0.471-0.381-0.852-0.851-0.852c-0.469,0-0.85,0.381-0.85,0.852s0.381,0.852,0.85,0.852
	C124.32,233.818,124.701,233.438,124.701,232.967z"/>
<path fill="#00DCE6" d="M124.701,228.139c0-0.472-0.381-0.853-0.851-0.853c-0.469,0-0.85,0.381-0.85,0.853
	c0,0.471,0.381,0.852,0.85,0.852C124.32,228.99,124.701,228.609,124.701,228.139z"/>
<path fill="#00DCE6" d="M124.701,223.167c0-0.472-0.381-0.853-0.851-0.853c-0.469,0-0.85,0.381-0.85,0.853s0.381,0.853,0.85,0.853
	C124.32,224.02,124.701,223.639,124.701,223.167z"/>
<path fill="#00DCE6" d="M124.701,218.338c0-0.47-0.381-0.852-0.851-0.852c-0.469,0-0.85,0.382-0.85,0.852
	c0,0.471,0.381,0.852,0.85,0.852C124.32,219.189,124.701,218.809,124.701,218.338z"/>
<path fill="#00DCE6" d="M124.701,213.368c0-0.472-0.381-0.853-0.851-0.853c-0.469,0-0.85,0.381-0.85,0.853
	c0,0.47,0.381,0.852,0.85,0.852C124.32,214.22,124.701,213.838,124.701,213.368z"/>
<path fill="#00DCE6" d="M124.701,208.538c0-0.47-0.381-0.853-0.851-0.853c-0.469,0-0.85,0.383-0.85,0.853
	c0,0.471,0.381,0.853,0.85,0.853C124.32,209.391,124.701,209.009,124.701,208.538z"/>
<path fill="#00DCE6" d="M129.662,262.509c0-0.471-0.381-0.852-0.85-0.852c-0.47,0-0.851,0.381-0.851,0.852
	c0,0.47,0.381,0.853,0.851,0.853C129.281,263.361,129.662,262.979,129.662,262.509z"/>
<path fill="#00DCE6" d="M129.662,257.537c0-0.471-0.381-0.852-0.85-0.852c-0.47,0-0.851,0.381-0.851,0.852s0.381,0.854,0.851,0.854
	C129.281,258.391,129.662,258.008,129.662,257.537z"/>
<path fill="#00DCE6" d="M129.662,252.709c0-0.471-0.381-0.852-0.85-0.852c-0.47,0-0.851,0.381-0.851,0.852s0.381,0.852,0.851,0.852
	C129.281,253.561,129.662,253.18,129.662,252.709z"/>
<path fill="#00DCE6" d="M129.662,247.738c0-0.471-0.381-0.853-0.85-0.853c-0.47,0-0.851,0.382-0.851,0.853
	c0,0.47,0.381,0.852,0.851,0.852C129.281,248.59,129.662,248.208,129.662,247.738z"/>
<path fill="#00DCE6" d="M129.662,242.909c0-0.472-0.381-0.853-0.85-0.853c-0.47,0-0.851,0.381-0.851,0.853
	c0,0.47,0.381,0.852,0.851,0.852C129.281,243.761,129.662,243.379,129.662,242.909z"/>
<path fill="#00DCE6" d="M129.662,237.938c0-0.471-0.381-0.852-0.85-0.852c-0.47,0-0.851,0.381-0.851,0.852
	c0,0.472,0.381,0.853,0.851,0.853C129.281,238.79,129.662,238.409,129.662,237.938z"/>
<path fill="#00DCE6" d="M129.662,232.967c0-0.471-0.381-0.852-0.85-0.852c-0.47,0-0.851,0.381-0.851,0.852s0.381,0.852,0.851,0.852
	C129.281,233.818,129.662,233.438,129.662,232.967z"/>
<path fill="#00DCE6" d="M129.662,228.139c0-0.472-0.381-0.853-0.85-0.853c-0.47,0-0.851,0.381-0.851,0.853
	c0,0.471,0.381,0.852,0.851,0.852C129.281,228.99,129.662,228.609,129.662,228.139z"/>
<path fill="#00DCE6" d="M129.662,223.167c0-0.472-0.381-0.853-0.85-0.853c-0.47,0-0.851,0.381-0.851,0.853s0.381,0.853,0.851,0.853
	C129.281,224.02,129.662,223.639,129.662,223.167z"/>
<path fill="#00DCE6" d="M129.662,218.338c0-0.47-0.381-0.852-0.85-0.852c-0.47,0-0.851,0.382-0.851,0.852
	c0,0.471,0.381,0.852,0.851,0.852C129.281,219.189,129.662,218.809,129.662,218.338z"/>
<path fill="#00DCE6" d="M129.662,213.368c0-0.472-0.381-0.853-0.85-0.853c-0.47,0-0.851,0.381-0.851,0.853
	c0,0.47,0.381,0.852,0.851,0.852C129.281,214.22,129.662,213.838,129.662,213.368z"/>
<path fill="#00DCE6" d="M129.662,208.538c0-0.47-0.381-0.853-0.85-0.853c-0.47,0-0.851,0.383-0.851,0.853
	c0,0.471,0.381,0.853,0.851,0.853C129.281,209.391,129.662,209.009,129.662,208.538z"/>
<path fill="#00DCE6" d="M134.622,262.509c0-0.471-0.381-0.852-0.85-0.852c-0.47,0-0.851,0.381-0.851,0.852
	c0,0.47,0.381,0.853,0.851,0.853C134.241,263.361,134.622,262.979,134.622,262.509z"/>
<path fill="#00DCE6" d="M134.622,257.537c0-0.471-0.381-0.852-0.85-0.852c-0.47,0-0.851,0.381-0.851,0.852s0.381,0.854,0.851,0.854
	C134.241,258.391,134.622,258.008,134.622,257.537z"/>
<path fill="#00DCE6" d="M134.622,252.709c0-0.471-0.381-0.852-0.85-0.852c-0.47,0-0.851,0.381-0.851,0.852s0.381,0.852,0.851,0.852
	C134.241,253.561,134.622,253.18,134.622,252.709z"/>
<path fill="#00DCE6" d="M134.622,247.738c0-0.471-0.381-0.853-0.85-0.853c-0.47,0-0.851,0.382-0.851,0.853
	c0,0.47,0.381,0.852,0.851,0.852C134.241,248.59,134.622,248.208,134.622,247.738z"/>
<path fill="#00DCE6" d="M134.622,242.909c0-0.472-0.381-0.853-0.85-0.853c-0.47,0-0.851,0.381-0.851,0.853
	c0,0.47,0.381,0.852,0.851,0.852C134.241,243.761,134.622,243.379,134.622,242.909z"/>
<path fill="#00DCE6" d="M134.622,237.938c0-0.471-0.381-0.852-0.85-0.852c-0.47,0-0.851,0.381-0.851,0.852
	c0,0.472,0.381,0.853,0.851,0.853C134.241,238.79,134.622,238.409,134.622,237.938z"/>
<path fill="#00DCE6" d="M134.622,232.967c0-0.471-0.381-0.852-0.85-0.852c-0.47,0-0.851,0.381-0.851,0.852s0.381,0.852,0.851,0.852
	C134.241,233.818,134.622,233.438,134.622,232.967z"/>
<path fill="#00DCE6" d="M134.622,228.139c0-0.472-0.381-0.853-0.85-0.853c-0.47,0-0.851,0.381-0.851,0.853
	c0,0.471,0.381,0.852,0.851,0.852C134.241,228.99,134.622,228.609,134.622,228.139z"/>
<path fill="#00DCE6" d="M134.622,223.167c0-0.472-0.381-0.853-0.85-0.853c-0.47,0-0.851,0.381-0.851,0.853s0.381,0.853,0.851,0.853
	C134.241,224.02,134.622,223.639,134.622,223.167z"/>
<path fill="#00DCE6" d="M134.622,218.338c0-0.47-0.381-0.852-0.85-0.852c-0.47,0-0.851,0.382-0.851,0.852
	c0,0.471,0.381,0.852,0.851,0.852C134.241,219.189,134.622,218.809,134.622,218.338z"/>
<path fill="#00DCE6" d="M134.622,213.368c0-0.472-0.381-0.853-0.85-0.853c-0.47,0-0.851,0.381-0.851,0.853
	c0,0.47,0.381,0.852,0.851,0.852C134.241,214.22,134.622,213.838,134.622,213.368z"/>
<path fill="#00DCE6" d="M134.622,208.538c0-0.47-0.381-0.853-0.85-0.853c-0.47,0-0.851,0.383-0.851,0.853
	c0,0.471,0.381,0.853,0.851,0.853C134.241,209.391,134.622,209.009,134.622,208.538z"/>
<path fill="#00DCE6" d="M139.441,262.509c0-0.471-0.381-0.852-0.85-0.852c-0.47,0-0.851,0.381-0.851,0.852
	c0,0.47,0.381,0.853,0.851,0.853C139.06,263.361,139.441,262.979,139.441,262.509z"/>
<path fill="#00DCE6" d="M139.441,257.537c0-0.471-0.381-0.852-0.85-0.852c-0.47,0-0.851,0.381-0.851,0.852s0.381,0.854,0.851,0.854
	C139.06,258.391,139.441,258.008,139.441,257.537z"/>
<path fill="#00DCE6" d="M139.441,252.709c0-0.471-0.381-0.852-0.85-0.852c-0.47,0-0.851,0.381-0.851,0.852s0.381,0.852,0.851,0.852
	C139.06,253.561,139.441,253.18,139.441,252.709z"/>
<path fill="#00DCE6" d="M139.441,247.738c0-0.471-0.381-0.853-0.85-0.853c-0.47,0-0.851,0.382-0.851,0.853
	c0,0.47,0.381,0.852,0.851,0.852C139.06,248.59,139.441,248.208,139.441,247.738z"/>
<path fill="#00DCE6" d="M139.441,242.909c0-0.472-0.381-0.853-0.85-0.853c-0.47,0-0.851,0.381-0.851,0.853
	c0,0.47,0.381,0.852,0.851,0.852C139.06,243.761,139.441,243.379,139.441,242.909z"/>
<path fill="#00DCE6" d="M139.441,237.938c0-0.471-0.381-0.852-0.85-0.852c-0.47,0-0.851,0.381-0.851,0.852
	c0,0.472,0.381,0.853,0.851,0.853C139.06,238.79,139.441,238.409,139.441,237.938z"/>
<path fill="#00DCE6" d="M139.441,232.967c0-0.471-0.381-0.852-0.85-0.852c-0.47,0-0.851,0.381-0.851,0.852s0.381,0.852,0.851,0.852
	C139.06,233.818,139.441,233.438,139.441,232.967z"/>
<path fill="#00DCE6" d="M139.441,228.139c0-0.472-0.381-0.853-0.85-0.853c-0.47,0-0.851,0.381-0.851,0.853
	c0,0.471,0.381,0.852,0.851,0.852C139.06,228.99,139.441,228.609,139.441,228.139z"/>
<path fill="#00DCE6" d="M139.441,223.167c0-0.472-0.381-0.853-0.85-0.853c-0.47,0-0.851,0.381-0.851,0.853s0.381,0.853,0.851,0.853
	C139.06,224.02,139.441,223.639,139.441,223.167z"/>
<path fill="#00DCE6" d="M139.441,218.338c0-0.47-0.381-0.852-0.85-0.852c-0.47,0-0.851,0.382-0.851,0.852
	c0,0.471,0.381,0.852,0.851,0.852C139.06,219.189,139.441,218.809,139.441,218.338z"/>
<path fill="#00DCE6" d="M139.441,213.368c0-0.472-0.381-0.853-0.85-0.853c-0.47,0-0.851,0.381-0.851,0.853
	c0,0.47,0.381,0.852,0.851,0.852C139.06,214.22,139.441,213.838,139.441,213.368z"/>
<path fill="#00DCE6" d="M139.441,208.538c0-0.47-0.381-0.853-0.85-0.853c-0.47,0-0.851,0.383-0.851,0.853
	c0,0.471,0.381,0.853,0.851,0.853C139.06,209.391,139.441,209.009,139.441,208.538z"/>
<path fill="#00DCE6" d="M144.402,262.509c0-0.471-0.381-0.852-0.85-0.852c-0.47,0-0.851,0.381-0.851,0.852
	c0,0.47,0.381,0.853,0.851,0.853C144.021,263.361,144.402,262.979,144.402,262.509z"/>
<path fill="#00DCE6" d="M144.402,257.537c0-0.471-0.381-0.852-0.85-0.852c-0.47,0-0.851,0.381-0.851,0.852s0.381,0.854,0.851,0.854
	C144.021,258.391,144.402,258.008,144.402,257.537z"/>
<path fill="#00DCE6" d="M144.402,252.709c0-0.471-0.381-0.852-0.85-0.852c-0.47,0-0.851,0.381-0.851,0.852s0.381,0.852,0.851,0.852
	C144.021,253.561,144.402,253.18,144.402,252.709z"/>
<path fill="#00DCE6" d="M144.402,247.738c0-0.471-0.381-0.853-0.85-0.853c-0.47,0-0.851,0.382-0.851,0.853
	c0,0.47,0.381,0.852,0.851,0.852C144.021,248.59,144.402,248.208,144.402,247.738z"/>
<path fill="#00DCE6" d="M144.402,242.909c0-0.472-0.381-0.853-0.85-0.853c-0.47,0-0.851,0.381-0.851,0.853
	c0,0.47,0.381,0.852,0.851,0.852C144.021,243.761,144.402,243.379,144.402,242.909z"/>
<path fill="#00DCE6" d="M144.402,237.938c0-0.471-0.381-0.852-0.85-0.852c-0.47,0-0.851,0.381-0.851,0.852
	c0,0.472,0.381,0.853,0.851,0.853C144.021,238.79,144.402,238.409,144.402,237.938z"/>
<path fill="#00DCE6" d="M144.402,232.967c0-0.471-0.381-0.852-0.85-0.852c-0.47,0-0.851,0.381-0.851,0.852s0.381,0.852,0.851,0.852
	C144.021,233.818,144.402,233.438,144.402,232.967z"/>
<path fill="#00DCE6" d="M144.402,228.139c0-0.472-0.381-0.853-0.85-0.853c-0.47,0-0.851,0.381-0.851,0.853
	c0,0.471,0.381,0.852,0.851,0.852C144.021,228.99,144.402,228.609,144.402,228.139z"/>
<path fill="#00DCE6" d="M144.402,223.167c0-0.472-0.381-0.853-0.85-0.853c-0.47,0-0.851,0.381-0.851,0.853s0.381,0.853,0.851,0.853
	C144.021,224.02,144.402,223.639,144.402,223.167z"/>
<path fill="#00DCE6" d="M144.402,218.338c0-0.47-0.381-0.852-0.85-0.852c-0.47,0-0.851,0.382-0.851,0.852
	c0,0.471,0.381,0.852,0.851,0.852C144.021,219.189,144.402,218.809,144.402,218.338z"/>
<path fill="#00DCE6" d="M144.402,213.368c0-0.472-0.381-0.853-0.85-0.853c-0.47,0-0.851,0.381-0.851,0.853
	c0,0.47,0.381,0.852,0.851,0.852C144.021,214.22,144.402,213.838,144.402,213.368z"/>
<path fill="#00DCE6" d="M144.402,208.538c0-0.47-0.381-0.853-0.85-0.853c-0.47,0-0.851,0.383-0.851,0.853
	c0,0.471,0.381,0.853,0.851,0.853C144.021,209.391,144.402,209.009,144.402,208.538z"/>
<path fill="#00DCE6" d="M149.221,262.509c0-0.471-0.38-0.852-0.85-0.852c-0.47,0-0.85,0.381-0.85,0.852
	c0,0.47,0.38,0.853,0.85,0.853C148.841,263.361,149.221,262.979,149.221,262.509z"/>
<path fill="#00DCE6" d="M149.221,257.537c0-0.471-0.38-0.852-0.85-0.852c-0.47,0-0.85,0.381-0.85,0.852s0.38,0.854,0.85,0.854
	C148.841,258.391,149.221,258.008,149.221,257.537z"/>
<path fill="#00DCE6" d="M149.221,252.709c0-0.471-0.38-0.852-0.85-0.852c-0.47,0-0.85,0.381-0.85,0.852s0.38,0.852,0.85,0.852
	C148.841,253.561,149.221,253.18,149.221,252.709z"/>
<path fill="#00DCE6" d="M149.221,247.738c0-0.471-0.38-0.853-0.85-0.853c-0.47,0-0.85,0.382-0.85,0.853
	c0,0.47,0.38,0.852,0.85,0.852C148.841,248.59,149.221,248.208,149.221,247.738z"/>
<path fill="#00DCE6" d="M149.221,242.909c0-0.472-0.38-0.853-0.85-0.853c-0.47,0-0.85,0.381-0.85,0.853
	c0,0.47,0.38,0.852,0.85,0.852C148.841,243.761,149.221,243.379,149.221,242.909z"/>
<path fill="#00DCE6" d="M149.221,237.938c0-0.471-0.38-0.852-0.85-0.852c-0.47,0-0.85,0.381-0.85,0.852
	c0,0.472,0.38,0.853,0.85,0.853C148.841,238.79,149.221,238.409,149.221,237.938z"/>
<path fill="#00DCE6" d="M149.221,232.967c0-0.471-0.38-0.852-0.85-0.852c-0.47,0-0.85,0.381-0.85,0.852s0.38,0.852,0.85,0.852
	C148.841,233.818,149.221,233.438,149.221,232.967z"/>
<path fill="#00DCE6" d="M149.221,228.139c0-0.472-0.38-0.853-0.85-0.853c-0.47,0-0.85,0.381-0.85,0.853
	c0,0.471,0.38,0.852,0.85,0.852C148.841,228.99,149.221,228.609,149.221,228.139z"/>
<path fill="#00DCE6" d="M149.221,223.167c0-0.472-0.38-0.853-0.85-0.853c-0.47,0-0.85,0.381-0.85,0.853s0.38,0.853,0.85,0.853
	C148.841,224.02,149.221,223.639,149.221,223.167z"/>
<path fill="#00DCE6" d="M149.221,218.338c0-0.47-0.38-0.852-0.85-0.852c-0.47,0-0.85,0.382-0.85,0.852
	c0,0.471,0.38,0.852,0.85,0.852C148.841,219.189,149.221,218.809,149.221,218.338z"/>
<path fill="#00DCE6" d="M149.221,213.368c0-0.472-0.38-0.853-0.85-0.853c-0.47,0-0.85,0.381-0.85,0.853
	c0,0.47,0.38,0.852,0.85,0.852C148.841,214.22,149.221,213.838,149.221,213.368z"/>
<path fill="#00DCE6" d="M149.221,208.538c0-0.47-0.38-0.853-0.85-0.853c-0.47,0-0.85,0.383-0.85,0.853
	c0,0.471,0.38,0.853,0.85,0.853C148.841,209.391,149.221,209.009,149.221,208.538z"/>
<path fill="#00DCE6" d="M154.182,262.509c0-0.471-0.381-0.852-0.85-0.852c-0.47,0-0.851,0.381-0.851,0.852
	c0,0.47,0.381,0.853,0.851,0.853C153.801,263.361,154.182,262.979,154.182,262.509z"/>
<path fill="#00DCE6" d="M154.182,257.537c0-0.471-0.381-0.852-0.85-0.852c-0.47,0-0.851,0.381-0.851,0.852s0.381,0.854,0.851,0.854
	C153.801,258.391,154.182,258.008,154.182,257.537z"/>
<path fill="#00DCE6" d="M154.182,252.709c0-0.471-0.381-0.852-0.85-0.852c-0.47,0-0.851,0.381-0.851,0.852s0.381,0.852,0.851,0.852
	C153.801,253.561,154.182,253.18,154.182,252.709z"/>
<path fill="#00DCE6" d="M154.182,247.738c0-0.471-0.381-0.853-0.85-0.853c-0.47,0-0.851,0.382-0.851,0.853
	c0,0.47,0.381,0.852,0.851,0.852C153.801,248.59,154.182,248.208,154.182,247.738z"/>
<path fill="#00DCE6" d="M154.182,242.909c0-0.472-0.381-0.853-0.85-0.853c-0.47,0-0.851,0.381-0.851,0.853
	c0,0.47,0.381,0.852,0.851,0.852C153.801,243.761,154.182,243.379,154.182,242.909z"/>
<path fill="#00DCE6" d="M154.182,237.938c0-0.471-0.381-0.852-0.85-0.852c-0.47,0-0.851,0.381-0.851,0.852
	c0,0.472,0.381,0.853,0.851,0.853C153.801,238.79,154.182,238.409,154.182,237.938z"/>
<path fill="#00DCE6" d="M154.182,232.967c0-0.471-0.381-0.852-0.85-0.852c-0.47,0-0.851,0.381-0.851,0.852s0.381,0.852,0.851,0.852
	C153.801,233.818,154.182,233.438,154.182,232.967z"/>
<path fill="#00DCE6" d="M154.182,228.139c0-0.472-0.381-0.853-0.85-0.853c-0.47,0-0.851,0.381-0.851,0.853
	c0,0.471,0.381,0.852,0.851,0.852C153.801,228.99,154.182,228.609,154.182,228.139z"/>
<path fill="#00DCE6" d="M154.182,223.167c0-0.472-0.381-0.853-0.85-0.853c-0.47,0-0.851,0.381-0.851,0.853s0.381,0.853,0.851,0.853
	C153.801,224.02,154.182,223.639,154.182,223.167z"/>
<path fill="#00DCE6" d="M154.182,218.338c0-0.47-0.381-0.852-0.85-0.852c-0.47,0-0.851,0.382-0.851,0.852
	c0,0.471,0.381,0.852,0.851,0.852C153.801,219.189,154.182,218.809,154.182,218.338z"/>
<path fill="#00DCE6" d="M154.182,213.368c0-0.472-0.381-0.853-0.85-0.853c-0.47,0-0.851,0.381-0.851,0.853
	c0,0.47,0.381,0.852,0.851,0.852C153.801,214.22,154.182,213.838,154.182,213.368z"/>
<path fill="#00DCE6" d="M154.182,208.538c0-0.47-0.381-0.853-0.85-0.853c-0.47,0-0.851,0.383-0.851,0.853
	c0,0.471,0.381,0.853,0.851,0.853C153.801,209.391,154.182,209.009,154.182,208.538z"/>
<path fill="#00DCE6" d="M159,262.509c0-0.471-0.381-0.852-0.85-0.852c-0.47,0-0.851,0.381-0.851,0.852
	c0,0.47,0.381,0.853,0.851,0.853C158.619,263.361,159,262.979,159,262.509z"/>
<path fill="#00DCE6" d="M159,257.537c0-0.471-0.381-0.852-0.85-0.852c-0.47,0-0.851,0.381-0.851,0.852s0.381,0.854,0.851,0.854
	C158.619,258.391,159,258.008,159,257.537z"/>
<path fill="#00DCE6" d="M159,252.709c0-0.471-0.381-0.852-0.85-0.852c-0.47,0-0.851,0.381-0.851,0.852s0.381,0.852,0.851,0.852
	C158.619,253.561,159,253.18,159,252.709z"/>
<path fill="#00DCE6" d="M159,247.738c0-0.471-0.381-0.853-0.85-0.853c-0.47,0-0.851,0.382-0.851,0.853
	c0,0.47,0.381,0.852,0.851,0.852C158.619,248.59,159,248.208,159,247.738z"/>
<path fill="#00DCE6" d="M159,242.909c0-0.472-0.381-0.853-0.85-0.853c-0.47,0-0.851,0.381-0.851,0.853
	c0,0.47,0.381,0.852,0.851,0.852C158.619,243.761,159,243.379,159,242.909z"/>
<path fill="#00DCE6" d="M159,237.938c0-0.471-0.381-0.852-0.85-0.852c-0.47,0-0.851,0.381-0.851,0.852
	c0,0.472,0.381,0.853,0.851,0.853C158.619,238.79,159,238.409,159,237.938z"/>
<path fill="#00DCE6" d="M159,232.967c0-0.471-0.381-0.852-0.85-0.852c-0.47,0-0.851,0.381-0.851,0.852s0.381,0.852,0.851,0.852
	C158.619,233.818,159,233.438,159,232.967z"/>
<path fill="#00DCE6" d="M159,228.139c0-0.472-0.381-0.853-0.85-0.853c-0.47,0-0.851,0.381-0.851,0.853
	c0,0.471,0.381,0.852,0.851,0.852C158.619,228.99,159,228.609,159,228.139z"/>
<path fill="#00DCE6" d="M159,223.167c0-0.472-0.381-0.853-0.85-0.853c-0.47,0-0.851,0.381-0.851,0.853s0.381,0.853,0.851,0.853
	C158.619,224.02,159,223.639,159,223.167z"/>
<path fill="#00DCE6" d="M159,218.338c0-0.47-0.381-0.852-0.85-0.852c-0.47,0-0.851,0.382-0.851,0.852
	c0,0.471,0.381,0.852,0.851,0.852C158.619,219.189,159,218.809,159,218.338z"/>
<path fill="#00DCE6" d="M159,213.368c0-0.472-0.381-0.853-0.85-0.853c-0.47,0-0.851,0.381-0.851,0.853
	c0,0.47,0.381,0.852,0.851,0.852C158.619,214.22,159,213.838,159,213.368z"/>
<path fill="#00DCE6" d="M159,208.538c0-0.47-0.381-0.853-0.85-0.853c-0.47,0-0.851,0.383-0.851,0.853
	c0,0.471,0.381,0.853,0.851,0.853C158.619,209.391,159,209.009,159,208.538z"/>
<path fill="#00DCE6" d="M124.701,203.568c0-0.471-0.381-0.854-0.851-0.854c-0.469,0-0.85,0.383-0.85,0.854
	c0,0.47,0.381,0.852,0.85,0.852C124.32,204.42,124.701,204.038,124.701,203.568z"/>
<path fill="#00DCE6" d="M124.701,198.739c0-0.472-0.381-0.853-0.851-0.853c-0.469,0-0.85,0.381-0.85,0.853
	c0,0.47,0.381,0.852,0.85,0.852C124.32,199.591,124.701,199.209,124.701,198.739z"/>
<path fill="#00DCE6" d="M124.701,193.768c0-0.471-0.381-0.853-0.851-0.853c-0.469,0-0.85,0.382-0.85,0.853s0.381,0.853,0.85,0.853
	C124.32,194.62,124.701,194.238,124.701,193.768z"/>
<path fill="#00DCE6" d="M124.701,188.939c0-0.472-0.381-0.854-0.851-0.854c-0.469,0-0.85,0.382-0.85,0.854
	c0,0.47,0.381,0.852,0.85,0.852C124.32,189.791,124.701,189.409,124.701,188.939z"/>
<path fill="#00DCE6" d="M124.701,183.968c0-0.471-0.381-0.852-0.851-0.852c-0.469,0-0.85,0.381-0.85,0.852
	c0,0.47,0.381,0.853,0.85,0.853C124.32,184.82,124.701,184.438,124.701,183.968z"/>
<path fill="#00DCE6" d="M124.701,179.139c0-0.471-0.381-0.852-0.851-0.852c-0.469,0-0.85,0.381-0.85,0.852s0.381,0.853,0.85,0.853
	C124.32,179.991,124.701,179.609,124.701,179.139z"/>
<path fill="#00DCE6" d="M124.701,174.168c0-0.471-0.381-0.852-0.851-0.852c-0.469,0-0.85,0.381-0.85,0.852s0.381,0.852,0.85,0.852
	C124.32,175.02,124.701,174.639,124.701,174.168z"/>
<path fill="#00DCE6" d="M124.701,169.339c0-0.471-0.381-0.852-0.851-0.852c-0.469,0-0.85,0.381-0.85,0.852
	c0,0.471,0.381,0.852,0.85,0.852C124.32,170.191,124.701,169.81,124.701,169.339z"/>
<path fill="#00DCE6" d="M124.701,164.368c0-0.471-0.381-0.852-0.851-0.852c-0.469,0-0.85,0.381-0.85,0.852
	c0,0.471,0.381,0.852,0.85,0.852C124.32,165.22,124.701,164.839,124.701,164.368z"/>
<path fill="#00DCE6" d="M124.701,159.397c0-0.471-0.381-0.852-0.851-0.852c-0.469,0-0.85,0.381-0.85,0.852s0.381,0.852,0.85,0.852
	C124.32,160.249,124.701,159.868,124.701,159.397z"/>
<path fill="#00DCE6" d="M124.701,154.568c0-0.47-0.381-0.852-0.851-0.852c-0.469,0-0.85,0.382-0.85,0.852
	c0,0.471,0.381,0.852,0.85,0.852C124.32,155.42,124.701,155.039,124.701,154.568z"/>
<path fill="#00DCE6" d="M124.701,149.598c0-0.471-0.381-0.853-0.851-0.853c-0.469,0-0.85,0.382-0.85,0.853
	c0,0.47,0.381,0.852,0.85,0.852C124.32,150.45,124.701,150.068,124.701,149.598z"/>
<path fill="#00DCE6" d="M124.701,144.768c0-0.47-0.381-0.852-0.851-0.852c-0.469,0-0.85,0.382-0.85,0.852
	c0,0.471,0.381,0.852,0.85,0.852C124.32,145.62,124.701,145.239,124.701,144.768z"/>
<path fill="#00DCE6" d="M124.701,139.798c0-0.471-0.381-0.852-0.851-0.852c-0.469,0-0.85,0.381-0.85,0.852
	c0,0.47,0.381,0.852,0.85,0.852C124.32,140.65,124.701,140.268,124.701,139.798z"/>
<path fill="#00DCE6" d="M124.701,134.968c0-0.471-0.381-0.852-0.851-0.852c-0.469,0-0.85,0.381-0.85,0.852
	c0,0.471,0.381,0.852,0.85,0.852C124.32,135.82,124.701,135.439,124.701,134.968z"/>
<path fill="#00DCE6" d="M124.701,129.998c0-0.471-0.381-0.852-0.851-0.852c-0.469,0-0.85,0.381-0.85,0.852
	c0,0.47,0.381,0.852,0.85,0.852C124.32,130.85,124.701,130.468,124.701,129.998z"/>
<path fill="#00DCE6" d="M124.701,125.168c0-0.47-0.381-0.852-0.851-0.852c-0.469,0-0.85,0.382-0.85,0.852
	c0,0.471,0.381,0.853,0.85,0.853C124.32,126.021,124.701,125.639,124.701,125.168z"/>
<path fill="#00DCE6" d="M124.701,120.198c0-0.471-0.381-0.854-0.851-0.854c-0.469,0-0.85,0.382-0.85,0.854
	c0,0.47,0.381,0.852,0.85,0.852C124.32,121.05,124.701,120.668,124.701,120.198z"/>
<path fill="#00DCE6" d="M124.701,115.369c0-0.471-0.381-0.852-0.851-0.852c-0.469,0-0.85,0.381-0.85,0.852
	c0,0.47,0.381,0.852,0.85,0.852C124.32,116.221,124.701,115.839,124.701,115.369z"/>
<path fill="#00DCE6" d="M124.701,110.398c0-0.471-0.381-0.852-0.851-0.852c-0.469,0-0.85,0.381-0.85,0.852
	c0,0.47,0.381,0.852,0.85,0.852C124.32,111.25,124.701,110.868,124.701,110.398z"/>
<path fill="#00DCE6" d="M124.701,105.427c0-0.471-0.381-0.852-0.851-0.852c-0.469,0-0.85,0.381-0.85,0.852
	c0,0.471,0.381,0.852,0.85,0.852C124.32,106.279,124.701,105.898,124.701,105.427z"/>
<path fill="#00DCE6" d="M124.701,100.598c0-0.471-0.381-0.853-0.851-0.853c-0.469,0-0.85,0.381-0.85,0.853
	c0,0.47,0.381,0.852,0.85,0.852C124.32,101.45,124.701,101.068,124.701,100.598z"/>
<path fill="#00DCE6" d="M129.662,203.566c0-0.469-0.381-0.852-0.85-0.852c-0.47,0-0.851,0.383-0.851,0.852
	c0,0.472,0.381,0.853,0.851,0.853C129.281,204.419,129.662,204.038,129.662,203.566z"/>
<path fill="#00DCE6" d="M129.662,198.739c0-0.472-0.381-0.853-0.85-0.853c-0.47,0-0.851,0.381-0.851,0.853
	c0,0.47,0.381,0.852,0.851,0.852C129.281,199.591,129.662,199.209,129.662,198.739z"/>
<path fill="#00DCE6" d="M129.662,193.768c0-0.471-0.381-0.853-0.85-0.853c-0.47,0-0.851,0.382-0.851,0.853s0.381,0.853,0.851,0.853
	C129.281,194.62,129.662,194.238,129.662,193.768z"/>
<path fill="#00DCE6" d="M129.662,188.939c0-0.472-0.381-0.854-0.85-0.854c-0.47,0-0.851,0.382-0.851,0.854
	c0,0.47,0.381,0.852,0.851,0.852C129.281,189.791,129.662,189.409,129.662,188.939z"/>
<path fill="#00DCE6" d="M129.662,183.968c0-0.471-0.381-0.852-0.85-0.852c-0.47,0-0.851,0.381-0.851,0.852
	c0,0.47,0.381,0.853,0.851,0.853C129.281,184.82,129.662,184.438,129.662,183.968z"/>
<path fill="#00DCE6" d="M129.662,179.139c0-0.471-0.381-0.852-0.85-0.852c-0.47,0-0.851,0.381-0.851,0.852s0.381,0.853,0.851,0.853
	C129.281,179.991,129.662,179.609,129.662,179.139z"/>
<path fill="#00DCE6" d="M129.662,174.168c0-0.471-0.381-0.852-0.85-0.852c-0.47,0-0.851,0.381-0.851,0.852s0.381,0.852,0.851,0.852
	C129.281,175.02,129.662,174.639,129.662,174.168z"/>
<path fill="#00DCE6" d="M129.662,169.339c0-0.471-0.381-0.852-0.85-0.852c-0.47,0-0.851,0.381-0.851,0.852
	c0,0.471,0.381,0.852,0.851,0.852C129.281,170.191,129.662,169.81,129.662,169.339z"/>
<path fill="#00DCE6" d="M129.662,164.368c0-0.471-0.381-0.852-0.85-0.852c-0.47,0-0.851,0.381-0.851,0.852
	c0,0.471,0.381,0.852,0.851,0.852C129.281,165.22,129.662,164.839,129.662,164.368z"/>
<path fill="#00DCE6" d="M129.662,159.397c0-0.471-0.381-0.852-0.85-0.852c-0.47,0-0.851,0.381-0.851,0.852s0.381,0.852,0.851,0.852
	C129.281,160.249,129.662,159.868,129.662,159.397z"/>
<path fill="#00DCE6" d="M129.662,154.568c0-0.47-0.381-0.852-0.85-0.852c-0.47,0-0.851,0.382-0.851,0.852
	c0,0.471,0.381,0.852,0.851,0.852C129.281,155.42,129.662,155.039,129.662,154.568z"/>
<path fill="#00DCE6" d="M129.662,149.598c0-0.471-0.381-0.853-0.85-0.853c-0.47,0-0.851,0.382-0.851,0.853
	c0,0.47,0.381,0.852,0.851,0.852C129.281,150.45,129.662,150.068,129.662,149.598z"/>
<path fill="#00DCE6" d="M129.662,144.768c0-0.47-0.381-0.852-0.85-0.852c-0.47,0-0.851,0.382-0.851,0.852
	c0,0.471,0.381,0.852,0.851,0.852C129.281,145.62,129.662,145.239,129.662,144.768z"/>
<path fill="#00DCE6" d="M129.662,139.798c0-0.471-0.381-0.852-0.85-0.852c-0.47,0-0.851,0.381-0.851,0.852
	c0,0.47,0.381,0.852,0.851,0.852C129.281,140.65,129.662,140.268,129.662,139.798z"/>
<path fill="#00DCE6" d="M129.662,134.968c0-0.471-0.381-0.852-0.85-0.852c-0.47,0-0.851,0.381-0.851,0.852
	c0,0.471,0.381,0.852,0.851,0.852C129.281,135.82,129.662,135.439,129.662,134.968z"/>
<path fill="#00DCE6" d="M129.662,129.998c0-0.471-0.381-0.852-0.85-0.852c-0.47,0-0.851,0.381-0.851,0.852
	c0,0.47,0.381,0.852,0.851,0.852C129.281,130.85,129.662,130.468,129.662,129.998z"/>
<path fill="#00DCE6" d="M129.662,125.168c0-0.47-0.381-0.852-0.85-0.852c-0.47,0-0.851,0.382-0.851,0.852
	c0,0.471,0.381,0.853,0.851,0.853C129.281,126.021,129.662,125.639,129.662,125.168z"/>
<path fill="#00DCE6" d="M129.662,120.198c0-0.471-0.381-0.854-0.85-0.854c-0.47,0-0.851,0.382-0.851,0.854
	c0,0.47,0.381,0.852,0.851,0.852C129.281,121.05,129.662,120.668,129.662,120.198z"/>
<path fill="#00DCE6" d="M129.662,115.369c0-0.471-0.381-0.852-0.85-0.852c-0.47,0-0.851,0.381-0.851,0.852
	c0,0.47,0.381,0.852,0.851,0.852C129.281,116.221,129.662,115.839,129.662,115.369z"/>
<path fill="#00DCE6" d="M129.662,110.398c0-0.471-0.381-0.852-0.85-0.852c-0.47,0-0.851,0.381-0.851,0.852
	c0,0.47,0.381,0.852,0.851,0.852C129.281,111.25,129.662,110.868,129.662,110.398z"/>
<path fill="#00DCE6" d="M129.662,105.427c0-0.471-0.381-0.852-0.85-0.852c-0.47,0-0.851,0.381-0.851,0.852
	c0,0.471,0.381,0.852,0.851,0.852C129.281,106.279,129.662,105.898,129.662,105.427z"/>
<path fill="#00DCE6" d="M129.662,100.598c0-0.471-0.381-0.852-0.85-0.852c-0.47,0-0.851,0.381-0.851,0.852
	c0,0.471,0.381,0.852,0.851,0.852C129.281,101.45,129.662,101.069,129.662,100.598z"/>
<path fill="#00DCE6" d="M134.622,203.566c0-0.469-0.381-0.852-0.85-0.852c-0.47,0-0.851,0.383-0.851,0.852
	c0,0.472,0.381,0.853,0.851,0.853C134.241,204.419,134.622,204.038,134.622,203.566z"/>
<path fill="#00DCE6" d="M134.622,198.739c0-0.472-0.381-0.853-0.85-0.853c-0.47,0-0.851,0.381-0.851,0.853
	c0,0.47,0.381,0.852,0.851,0.852C134.241,199.591,134.622,199.209,134.622,198.739z"/>
<path fill="#00DCE6" d="M134.622,193.768c0-0.471-0.381-0.853-0.85-0.853c-0.47,0-0.851,0.382-0.851,0.853s0.381,0.853,0.851,0.853
	C134.241,194.62,134.622,194.238,134.622,193.768z"/>
<path fill="#00DCE6" d="M134.622,188.939c0-0.472-0.381-0.854-0.85-0.854c-0.47,0-0.851,0.382-0.851,0.854
	c0,0.47,0.381,0.852,0.851,0.852C134.241,189.791,134.622,189.409,134.622,188.939z"/>
<path fill="#00DCE6" d="M134.622,183.968c0-0.471-0.381-0.852-0.85-0.852c-0.47,0-0.851,0.381-0.851,0.852
	c0,0.47,0.381,0.853,0.851,0.853C134.241,184.82,134.622,184.438,134.622,183.968z"/>
<path fill="#00DCE6" d="M134.622,179.139c0-0.471-0.381-0.852-0.85-0.852c-0.47,0-0.851,0.381-0.851,0.852s0.381,0.853,0.851,0.853
	C134.241,179.991,134.622,179.609,134.622,179.139z"/>
<path fill="#00DCE6" d="M134.622,174.168c0-0.471-0.381-0.852-0.85-0.852c-0.47,0-0.851,0.381-0.851,0.852s0.381,0.852,0.851,0.852
	C134.241,175.02,134.622,174.639,134.622,174.168z"/>
<path fill="#00DCE6" d="M134.622,169.339c0-0.471-0.381-0.852-0.85-0.852c-0.47,0-0.851,0.381-0.851,0.852
	c0,0.471,0.381,0.852,0.851,0.852C134.241,170.191,134.622,169.81,134.622,169.339z"/>
<path fill="#00DCE6" d="M134.622,164.368c0-0.471-0.381-0.852-0.85-0.852c-0.47,0-0.851,0.381-0.851,0.852
	c0,0.471,0.381,0.852,0.851,0.852C134.241,165.22,134.622,164.839,134.622,164.368z"/>
<path fill="#00DCE6" d="M134.622,159.397c0-0.471-0.381-0.852-0.85-0.852c-0.47,0-0.851,0.381-0.851,0.852s0.381,0.852,0.851,0.852
	C134.241,160.249,134.622,159.868,134.622,159.397z"/>
<path fill="#00DCE6" d="M134.622,154.568c0-0.47-0.381-0.852-0.85-0.852c-0.47,0-0.851,0.382-0.851,0.852
	c0,0.471,0.381,0.852,0.851,0.852C134.241,155.42,134.622,155.039,134.622,154.568z"/>
<path fill="#00DCE6" d="M134.622,149.598c0-0.471-0.381-0.853-0.85-0.853c-0.47,0-0.851,0.382-0.851,0.853
	c0,0.47,0.381,0.852,0.851,0.852C134.241,150.45,134.622,150.068,134.622,149.598z"/>
<path fill="#00DCE6" d="M134.622,144.768c0-0.47-0.381-0.852-0.85-0.852c-0.47,0-0.851,0.382-0.851,0.852
	c0,0.471,0.381,0.852,0.851,0.852C134.241,145.62,134.622,145.239,134.622,144.768z"/>
<path fill="#00DCE6" d="M134.622,139.798c0-0.471-0.381-0.852-0.85-0.852c-0.47,0-0.851,0.381-0.851,0.852
	c0,0.47,0.381,0.852,0.851,0.852C134.241,140.65,134.622,140.268,134.622,139.798z"/>
<path fill="#00DCE6" d="M134.622,134.968c0-0.471-0.381-0.852-0.85-0.852c-0.47,0-0.851,0.381-0.851,0.852
	c0,0.471,0.381,0.852,0.851,0.852C134.241,135.82,134.622,135.439,134.622,134.968z"/>
<path fill="#00DCE6" d="M134.622,129.998c0-0.471-0.381-0.852-0.85-0.852c-0.47,0-0.851,0.381-0.851,0.852
	c0,0.47,0.381,0.852,0.851,0.852C134.241,130.85,134.622,130.468,134.622,129.998z"/>
<path fill="#00DCE6" d="M134.622,125.168c0-0.47-0.381-0.852-0.85-0.852c-0.47,0-0.851,0.382-0.851,0.852
	c0,0.471,0.381,0.853,0.851,0.853C134.241,126.021,134.622,125.639,134.622,125.168z"/>
<path fill="#00DCE6" d="M134.622,120.198c0-0.471-0.381-0.854-0.85-0.854c-0.47,0-0.851,0.382-0.851,0.854
	c0,0.47,0.381,0.852,0.851,0.852C134.241,121.05,134.622,120.668,134.622,120.198z"/>
<path fill="#00DCE6" d="M134.622,115.369c0-0.471-0.381-0.852-0.85-0.852c-0.47,0-0.851,0.381-0.851,0.852
	c0,0.47,0.381,0.852,0.851,0.852C134.241,116.221,134.622,115.839,134.622,115.369z"/>
<path fill="#00DCE6" d="M134.622,110.398c0-0.471-0.381-0.852-0.85-0.852c-0.47,0-0.851,0.381-0.851,0.852
	c0,0.47,0.381,0.852,0.851,0.852C134.241,111.25,134.622,110.868,134.622,110.398z"/>
<path fill="#00DCE6" d="M134.622,105.427c0-0.471-0.381-0.852-0.85-0.852c-0.47,0-0.851,0.381-0.851,0.852
	c0,0.471,0.381,0.852,0.851,0.852C134.241,106.279,134.622,105.898,134.622,105.427z"/>
<path fill="#00DCE6" d="M134.622,100.598c0-0.471-0.381-0.852-0.85-0.852c-0.47,0-0.851,0.381-0.851,0.852
	c0,0.471,0.381,0.852,0.851,0.852C134.241,101.45,134.622,101.069,134.622,100.598z"/>
<path fill="#00DCE6" d="M139.441,203.566c0-0.469-0.381-0.852-0.85-0.852c-0.47,0-0.851,0.383-0.851,0.852
	c0,0.472,0.381,0.853,0.851,0.853C139.06,204.419,139.441,204.038,139.441,203.566z"/>
<path fill="#00DCE6" d="M139.441,198.739c0-0.472-0.381-0.853-0.85-0.853c-0.47,0-0.851,0.381-0.851,0.853
	c0,0.47,0.381,0.852,0.851,0.852C139.06,199.591,139.441,199.209,139.441,198.739z"/>
<path fill="#00DCE6" d="M139.441,193.768c0-0.471-0.381-0.853-0.85-0.853c-0.47,0-0.851,0.382-0.851,0.853s0.381,0.853,0.851,0.853
	C139.06,194.62,139.441,194.238,139.441,193.768z"/>
<path fill="#00DCE6" d="M139.441,188.939c0-0.472-0.381-0.854-0.85-0.854c-0.47,0-0.851,0.382-0.851,0.854
	c0,0.47,0.381,0.852,0.851,0.852C139.06,189.791,139.441,189.409,139.441,188.939z"/>
<path fill="#00DCE6" d="M139.441,183.968c0-0.471-0.381-0.852-0.85-0.852c-0.47,0-0.851,0.381-0.851,0.852
	c0,0.47,0.381,0.853,0.851,0.853C139.06,184.82,139.441,184.438,139.441,183.968z"/>
<path fill="#00DCE6" d="M139.441,179.139c0-0.471-0.381-0.852-0.85-0.852c-0.47,0-0.851,0.381-0.851,0.852s0.381,0.853,0.851,0.853
	C139.06,179.991,139.441,179.609,139.441,179.139z"/>
<path fill="#00DCE6" d="M139.441,174.168c0-0.471-0.381-0.852-0.85-0.852c-0.47,0-0.851,0.381-0.851,0.852s0.381,0.852,0.851,0.852
	C139.06,175.02,139.441,174.639,139.441,174.168z"/>
<path fill="#00DCE6" d="M139.441,169.339c0-0.471-0.381-0.852-0.85-0.852c-0.47,0-0.851,0.381-0.851,0.852
	c0,0.471,0.381,0.852,0.851,0.852C139.06,170.191,139.441,169.81,139.441,169.339z"/>
<path fill="#00DCE6" d="M139.441,164.368c0-0.471-0.381-0.852-0.85-0.852c-0.47,0-0.851,0.381-0.851,0.852
	c0,0.471,0.381,0.852,0.851,0.852C139.06,165.22,139.441,164.839,139.441,164.368z"/>
<path fill="#00DCE6" d="M139.441,159.397c0-0.471-0.381-0.852-0.85-0.852c-0.47,0-0.851,0.381-0.851,0.852s0.381,0.852,0.851,0.852
	C139.06,160.249,139.441,159.868,139.441,159.397z"/>
<path fill="#00DCE6" d="M139.441,154.568c0-0.47-0.381-0.852-0.85-0.852c-0.47,0-0.851,0.382-0.851,0.852
	c0,0.471,0.381,0.852,0.851,0.852C139.06,155.42,139.441,155.039,139.441,154.568z"/>
<path fill="#00DCE6" d="M139.441,149.598c0-0.471-0.381-0.853-0.85-0.853c-0.47,0-0.851,0.382-0.851,0.853
	c0,0.47,0.381,0.852,0.851,0.852C139.06,150.45,139.441,150.068,139.441,149.598z"/>
<path fill="#00DCE6" d="M139.441,144.768c0-0.47-0.381-0.852-0.85-0.852c-0.47,0-0.851,0.382-0.851,0.852
	c0,0.471,0.381,0.852,0.851,0.852C139.06,145.62,139.441,145.239,139.441,144.768z"/>
<path fill="#00DCE6" d="M139.441,139.798c0-0.471-0.381-0.852-0.85-0.852c-0.47,0-0.851,0.381-0.851,0.852
	c0,0.47,0.381,0.852,0.851,0.852C139.06,140.65,139.441,140.268,139.441,139.798z"/>
<path fill="#00DCE6" d="M139.441,134.968c0-0.471-0.381-0.852-0.85-0.852c-0.47,0-0.851,0.381-0.851,0.852
	c0,0.471,0.381,0.852,0.851,0.852C139.06,135.82,139.441,135.439,139.441,134.968z"/>
<path fill="#00DCE6" d="M139.441,129.998c0-0.471-0.381-0.852-0.85-0.852c-0.47,0-0.851,0.381-0.851,0.852
	c0,0.47,0.381,0.852,0.851,0.852C139.06,130.85,139.441,130.468,139.441,129.998z"/>
<path fill="#00DCE6" d="M139.441,125.168c0-0.47-0.381-0.852-0.85-0.852c-0.47,0-0.851,0.382-0.851,0.852
	c0,0.471,0.381,0.853,0.851,0.853C139.06,126.021,139.441,125.639,139.441,125.168z"/>
<path fill="#00DCE6" d="M139.441,120.198c0-0.471-0.381-0.854-0.85-0.854c-0.47,0-0.851,0.382-0.851,0.854
	c0,0.47,0.381,0.852,0.851,0.852C139.06,121.05,139.441,120.668,139.441,120.198z"/>
<path fill="#00DCE6" d="M139.441,115.369c0-0.471-0.381-0.852-0.85-0.852c-0.47,0-0.851,0.381-0.851,0.852
	c0,0.47,0.381,0.852,0.851,0.852C139.06,116.221,139.441,115.839,139.441,115.369z"/>
<path fill="#00DCE6" d="M139.441,110.398c0-0.471-0.381-0.852-0.85-0.852c-0.47,0-0.851,0.381-0.851,0.852
	c0,0.47,0.381,0.852,0.851,0.852C139.06,111.25,139.441,110.868,139.441,110.398z"/>
<path fill="#00DCE6" d="M139.441,105.427c0-0.471-0.381-0.852-0.85-0.852c-0.47,0-0.851,0.381-0.851,0.852
	c0,0.471,0.381,0.852,0.851,0.852C139.06,106.279,139.441,105.898,139.441,105.427z"/>
<path fill="#00DCE6" d="M139.441,100.598c0-0.471-0.381-0.852-0.85-0.852c-0.47,0-0.851,0.381-0.851,0.852
	c0,0.471,0.381,0.852,0.851,0.852C139.06,101.45,139.441,101.069,139.441,100.598z"/>
<path fill="#00DCE6" d="M144.402,203.566c0-0.469-0.381-0.852-0.85-0.852c-0.47,0-0.851,0.383-0.851,0.852
	c0,0.472,0.381,0.853,0.851,0.853C144.021,204.419,144.402,204.038,144.402,203.566z"/>
<path fill="#00DCE6" d="M144.402,198.739c0-0.472-0.381-0.853-0.85-0.853c-0.47,0-0.851,0.381-0.851,0.853
	c0,0.47,0.381,0.852,0.851,0.852C144.021,199.591,144.402,199.209,144.402,198.739z"/>
<path fill="#00DCE6" d="M144.402,193.768c0-0.471-0.381-0.853-0.85-0.853c-0.47,0-0.851,0.382-0.851,0.853s0.381,0.853,0.851,0.853
	C144.021,194.62,144.402,194.238,144.402,193.768z"/>
<path fill="#00DCE6" d="M144.402,188.939c0-0.472-0.381-0.854-0.85-0.854c-0.47,0-0.851,0.382-0.851,0.854
	c0,0.47,0.381,0.852,0.851,0.852C144.021,189.791,144.402,189.409,144.402,188.939z"/>
<path fill="#00DCE6" d="M144.402,183.968c0-0.471-0.381-0.852-0.85-0.852c-0.47,0-0.851,0.381-0.851,0.852
	c0,0.47,0.381,0.853,0.851,0.853C144.021,184.82,144.402,184.438,144.402,183.968z"/>
<path fill="#00DCE6" d="M144.402,179.139c0-0.471-0.381-0.852-0.85-0.852c-0.47,0-0.851,0.381-0.851,0.852s0.381,0.853,0.851,0.853
	C144.021,179.991,144.402,179.609,144.402,179.139z"/>
<path fill="#00DCE6" d="M144.402,174.168c0-0.471-0.381-0.852-0.85-0.852c-0.47,0-0.851,0.381-0.851,0.852s0.381,0.852,0.851,0.852
	C144.021,175.02,144.402,174.639,144.402,174.168z"/>
<path fill="#00DCE6" d="M144.402,169.339c0-0.471-0.381-0.852-0.85-0.852c-0.47,0-0.851,0.381-0.851,0.852
	c0,0.471,0.381,0.852,0.851,0.852C144.021,170.191,144.402,169.81,144.402,169.339z"/>
<path fill="#00DCE6" d="M144.402,164.368c0-0.471-0.381-0.852-0.85-0.852c-0.47,0-0.851,0.381-0.851,0.852
	c0,0.471,0.381,0.852,0.851,0.852C144.021,165.22,144.402,164.839,144.402,164.368z"/>
<path fill="#00DCE6" d="M144.402,159.397c0-0.471-0.381-0.852-0.85-0.852c-0.47,0-0.851,0.381-0.851,0.852s0.381,0.852,0.851,0.852
	C144.021,160.249,144.402,159.868,144.402,159.397z"/>
<path fill="#00DCE6" d="M144.402,154.568c0-0.47-0.381-0.852-0.85-0.852c-0.47,0-0.851,0.382-0.851,0.852
	c0,0.471,0.381,0.852,0.851,0.852C144.021,155.42,144.402,155.039,144.402,154.568z"/>
<path fill="#00DCE6" d="M144.402,149.598c0-0.471-0.381-0.853-0.85-0.853c-0.47,0-0.851,0.382-0.851,0.853
	c0,0.47,0.381,0.852,0.851,0.852C144.021,150.45,144.402,150.068,144.402,149.598z"/>
<path fill="#00DCE6" d="M144.402,144.768c0-0.47-0.381-0.852-0.85-0.852c-0.47,0-0.851,0.382-0.851,0.852
	c0,0.471,0.381,0.852,0.851,0.852C144.021,145.62,144.402,145.239,144.402,144.768z"/>
<path fill="#00DCE6" d="M144.402,139.798c0-0.471-0.381-0.852-0.85-0.852c-0.47,0-0.851,0.381-0.851,0.852
	c0,0.47,0.381,0.852,0.851,0.852C144.021,140.65,144.402,140.268,144.402,139.798z"/>
<path fill="#00DCE6" d="M144.402,134.968c0-0.471-0.381-0.852-0.85-0.852c-0.47,0-0.851,0.381-0.851,0.852
	c0,0.471,0.381,0.852,0.851,0.852C144.021,135.82,144.402,135.439,144.402,134.968z"/>
<path fill="#00DCE6" d="M144.402,129.998c0-0.471-0.381-0.852-0.85-0.852c-0.47,0-0.851,0.381-0.851,0.852
	c0,0.47,0.381,0.852,0.851,0.852C144.021,130.85,144.402,130.468,144.402,129.998z"/>
<path fill="#00DCE6" d="M144.402,125.168c0-0.47-0.381-0.852-0.85-0.852c-0.47,0-0.851,0.382-0.851,0.852
	c0,0.471,0.381,0.853,0.851,0.853C144.021,126.021,144.402,125.639,144.402,125.168z"/>
<path fill="#00DCE6" d="M144.402,120.198c0-0.471-0.381-0.854-0.85-0.854c-0.47,0-0.851,0.382-0.851,0.854
	c0,0.47,0.381,0.852,0.851,0.852C144.021,121.05,144.402,120.668,144.402,120.198z"/>
<path fill="#00DCE6" d="M144.402,115.369c0-0.471-0.381-0.852-0.85-0.852c-0.47,0-0.851,0.381-0.851,0.852
	c0,0.47,0.381,0.852,0.851,0.852C144.021,116.221,144.402,115.839,144.402,115.369z"/>
<path fill="#00DCE6" d="M144.402,110.398c0-0.471-0.381-0.852-0.85-0.852c-0.47,0-0.851,0.381-0.851,0.852
	c0,0.47,0.381,0.852,0.851,0.852C144.021,111.25,144.402,110.868,144.402,110.398z"/>
<path fill="#00DCE6" d="M144.402,105.427c0-0.471-0.381-0.852-0.85-0.852c-0.47,0-0.851,0.381-0.851,0.852
	c0,0.471,0.381,0.852,0.851,0.852C144.021,106.279,144.402,105.898,144.402,105.427z"/>
<path fill="#00DCE6" d="M144.402,100.598c0-0.471-0.381-0.852-0.85-0.852c-0.47,0-0.851,0.381-0.851,0.852
	c0,0.471,0.381,0.852,0.851,0.852C144.021,101.45,144.402,101.069,144.402,100.598z"/>
<path fill="#00DCE6" d="M149.221,203.566c0-0.469-0.38-0.852-0.85-0.852c-0.47,0-0.85,0.383-0.85,0.852
	c0,0.472,0.38,0.853,0.85,0.853C148.841,204.419,149.221,204.038,149.221,203.566z"/>
<path fill="#00DCE6" d="M149.221,198.739c0-0.472-0.38-0.853-0.85-0.853c-0.47,0-0.85,0.381-0.85,0.853
	c0,0.47,0.38,0.852,0.85,0.852C148.841,199.591,149.221,199.209,149.221,198.739z"/>
<path fill="#00DCE6" d="M149.221,193.768c0-0.471-0.38-0.853-0.85-0.853c-0.47,0-0.85,0.382-0.85,0.853s0.38,0.853,0.85,0.853
	C148.841,194.62,149.221,194.238,149.221,193.768z"/>
<path fill="#00DCE6" d="M149.221,188.939c0-0.472-0.38-0.854-0.85-0.854c-0.47,0-0.85,0.382-0.85,0.854
	c0,0.47,0.38,0.852,0.85,0.852C148.841,189.791,149.221,189.409,149.221,188.939z"/>
<path fill="#00DCE6" d="M149.221,183.968c0-0.471-0.38-0.852-0.85-0.852c-0.47,0-0.85,0.381-0.85,0.852
	c0,0.47,0.38,0.853,0.85,0.853C148.841,184.82,149.221,184.438,149.221,183.968z"/>
<path fill="#00DCE6" d="M149.221,179.139c0-0.471-0.38-0.852-0.85-0.852c-0.47,0-0.85,0.381-0.85,0.852s0.38,0.853,0.85,0.853
	C148.841,179.991,149.221,179.609,149.221,179.139z"/>
<path fill="#00DCE6" d="M149.221,174.168c0-0.471-0.38-0.852-0.85-0.852c-0.47,0-0.85,0.381-0.85,0.852s0.38,0.852,0.85,0.852
	C148.841,175.02,149.221,174.639,149.221,174.168z"/>
<path fill="#00DCE6" d="M149.221,169.339c0-0.471-0.38-0.852-0.85-0.852c-0.47,0-0.85,0.381-0.85,0.852
	c0,0.471,0.38,0.852,0.85,0.852C148.841,170.191,149.221,169.81,149.221,169.339z"/>
<path fill="#00DCE6" d="M149.221,164.368c0-0.471-0.38-0.852-0.85-0.852c-0.47,0-0.85,0.381-0.85,0.852
	c0,0.471,0.38,0.852,0.85,0.852C148.841,165.22,149.221,164.839,149.221,164.368z"/>
<path fill="#00DCE6" d="M149.221,159.397c0-0.471-0.38-0.852-0.85-0.852c-0.47,0-0.85,0.381-0.85,0.852s0.38,0.852,0.85,0.852
	C148.841,160.249,149.221,159.868,149.221,159.397z"/>
<path fill="#00DCE6" d="M149.221,154.568c0-0.47-0.38-0.852-0.85-0.852c-0.47,0-0.85,0.382-0.85,0.852
	c0,0.471,0.38,0.852,0.85,0.852C148.841,155.42,149.221,155.039,149.221,154.568z"/>
<path fill="#00DCE6" d="M149.221,149.598c0-0.471-0.38-0.853-0.85-0.853c-0.47,0-0.85,0.382-0.85,0.853
	c0,0.47,0.38,0.852,0.85,0.852C148.841,150.45,149.221,150.068,149.221,149.598z"/>
<path fill="#00DCE6" d="M149.221,144.768c0-0.47-0.38-0.852-0.85-0.852c-0.47,0-0.85,0.382-0.85,0.852
	c0,0.471,0.38,0.852,0.85,0.852C148.841,145.62,149.221,145.239,149.221,144.768z"/>
<path fill="#00DCE6" d="M149.221,139.798c0-0.471-0.38-0.852-0.85-0.852c-0.47,0-0.85,0.381-0.85,0.852
	c0,0.47,0.38,0.852,0.85,0.852C148.841,140.65,149.221,140.268,149.221,139.798z"/>
<path fill="#00DCE6" d="M149.221,134.968c0-0.471-0.38-0.852-0.85-0.852c-0.47,0-0.85,0.381-0.85,0.852
	c0,0.471,0.38,0.852,0.85,0.852C148.841,135.82,149.221,135.439,149.221,134.968z"/>
<path fill="#00DCE6" d="M149.221,129.998c0-0.471-0.38-0.852-0.85-0.852c-0.47,0-0.85,0.381-0.85,0.852
	c0,0.47,0.38,0.852,0.85,0.852C148.841,130.85,149.221,130.468,149.221,129.998z"/>
<path fill="#00DCE6" d="M149.221,125.168c0-0.47-0.38-0.852-0.85-0.852c-0.47,0-0.85,0.382-0.85,0.852
	c0,0.471,0.38,0.853,0.85,0.853C148.841,126.021,149.221,125.639,149.221,125.168z"/>
<path fill="#00DCE6" d="M149.221,120.198c0-0.471-0.38-0.854-0.85-0.854c-0.47,0-0.85,0.382-0.85,0.854
	c0,0.47,0.38,0.852,0.85,0.852C148.841,121.05,149.221,120.668,149.221,120.198z"/>
<path fill="#00DCE6" d="M149.221,115.369c0-0.471-0.38-0.852-0.85-0.852c-0.47,0-0.85,0.381-0.85,0.852
	c0,0.47,0.38,0.852,0.85,0.852C148.841,116.221,149.221,115.839,149.221,115.369z"/>
<path fill="#00DCE6" d="M149.221,110.398c0-0.471-0.38-0.852-0.85-0.852c-0.47,0-0.85,0.381-0.85,0.852s0.38,0.852,0.85,0.852
	C148.841,111.25,149.221,110.869,149.221,110.398z"/>
<path fill="#00DCE6" d="M149.221,105.427c0-0.471-0.38-0.852-0.85-0.852c-0.47,0-0.85,0.381-0.85,0.852
	c0,0.471,0.38,0.852,0.85,0.852C148.841,106.279,149.221,105.898,149.221,105.427z"/>
<path fill="#00DCE6" d="M149.221,100.598c0-0.471-0.38-0.852-0.85-0.852c-0.47,0-0.85,0.381-0.85,0.852
	c0,0.471,0.38,0.852,0.85,0.852C148.841,101.45,149.221,101.069,149.221,100.598z"/>
<path fill="#00DCE6" d="M154.182,203.566c0-0.469-0.381-0.852-0.85-0.852c-0.47,0-0.851,0.383-0.851,0.852
	c0,0.472,0.381,0.853,0.851,0.853C153.801,204.419,154.182,204.038,154.182,203.566z"/>
<path fill="#00DCE6" d="M154.182,198.739c0-0.472-0.381-0.853-0.85-0.853c-0.47,0-0.851,0.381-0.851,0.853
	c0,0.47,0.381,0.852,0.851,0.852C153.801,199.591,154.182,199.209,154.182,198.739z"/>
<path fill="#00DCE6" d="M154.182,193.768c0-0.471-0.381-0.853-0.85-0.853c-0.47,0-0.851,0.382-0.851,0.853s0.381,0.853,0.851,0.853
	C153.801,194.62,154.182,194.238,154.182,193.768z"/>
<path fill="#00DCE6" d="M154.182,188.939c0-0.472-0.381-0.854-0.85-0.854c-0.47,0-0.851,0.382-0.851,0.854
	c0,0.47,0.381,0.852,0.851,0.852C153.801,189.791,154.182,189.409,154.182,188.939z"/>
<path fill="#00DCE6" d="M154.182,183.968c0-0.471-0.381-0.852-0.85-0.852c-0.47,0-0.851,0.381-0.851,0.852
	c0,0.47,0.381,0.853,0.851,0.853C153.801,184.82,154.182,184.438,154.182,183.968z"/>
<path fill="#00DCE6" d="M154.182,179.139c0-0.471-0.381-0.852-0.85-0.852c-0.47,0-0.851,0.381-0.851,0.852s0.381,0.853,0.851,0.853
	C153.801,179.991,154.182,179.609,154.182,179.139z"/>
<path fill="#00DCE6" d="M154.182,174.168c0-0.471-0.381-0.852-0.85-0.852c-0.47,0-0.851,0.381-0.851,0.852s0.381,0.852,0.851,0.852
	C153.801,175.02,154.182,174.639,154.182,174.168z"/>
<path fill="#00DCE6" d="M154.182,169.339c0-0.471-0.381-0.852-0.85-0.852c-0.47,0-0.851,0.381-0.851,0.852
	c0,0.471,0.381,0.852,0.851,0.852C153.801,170.191,154.182,169.81,154.182,169.339z"/>
<path fill="#00DCE6" d="M154.182,164.368c0-0.471-0.381-0.852-0.85-0.852c-0.47,0-0.851,0.381-0.851,0.852
	c0,0.471,0.381,0.852,0.851,0.852C153.801,165.22,154.182,164.839,154.182,164.368z"/>
<path fill="#00DCE6" d="M154.182,159.397c0-0.471-0.381-0.852-0.85-0.852c-0.47,0-0.851,0.381-0.851,0.852s0.381,0.852,0.851,0.852
	C153.801,160.249,154.182,159.868,154.182,159.397z"/>
<path fill="#00DCE6" d="M154.182,154.568c0-0.47-0.381-0.852-0.85-0.852c-0.47,0-0.851,0.382-0.851,0.852
	c0,0.471,0.381,0.852,0.851,0.852C153.801,155.42,154.182,155.039,154.182,154.568z"/>
<path fill="#00DCE6" d="M154.182,149.598c0-0.471-0.381-0.853-0.85-0.853c-0.47,0-0.851,0.382-0.851,0.853
	c0,0.47,0.381,0.852,0.851,0.852C153.801,150.45,154.182,150.068,154.182,149.598z"/>
<path fill="#00DCE6" d="M154.182,144.768c0-0.47-0.381-0.852-0.85-0.852c-0.47,0-0.851,0.382-0.851,0.852
	c0,0.471,0.381,0.852,0.851,0.852C153.801,145.62,154.182,145.239,154.182,144.768z"/>
<path fill="#00DCE6" d="M154.182,139.798c0-0.471-0.381-0.852-0.85-0.852c-0.47,0-0.851,0.381-0.851,0.852
	c0,0.47,0.381,0.852,0.851,0.852C153.801,140.65,154.182,140.268,154.182,139.798z"/>
<path fill="#00DCE6" d="M154.182,134.968c0-0.471-0.381-0.852-0.85-0.852c-0.47,0-0.851,0.381-0.851,0.852
	c0,0.471,0.381,0.852,0.851,0.852C153.801,135.82,154.182,135.439,154.182,134.968z"/>
<path fill="#00DCE6" d="M154.182,129.998c0-0.471-0.381-0.852-0.85-0.852c-0.47,0-0.851,0.381-0.851,0.852
	c0,0.47,0.381,0.852,0.851,0.852C153.801,130.85,154.182,130.468,154.182,129.998z"/>
<path fill="#00DCE6" d="M154.182,125.168c0-0.47-0.381-0.852-0.85-0.852c-0.47,0-0.851,0.382-0.851,0.852
	c0,0.471,0.381,0.853,0.851,0.853C153.801,126.021,154.182,125.639,154.182,125.168z"/>
<path fill="#00DCE6" d="M154.182,120.198c0-0.471-0.381-0.854-0.85-0.854c-0.47,0-0.851,0.382-0.851,0.854
	c0,0.47,0.381,0.852,0.851,0.852C153.801,121.05,154.182,120.668,154.182,120.198z"/>
<path fill="#00DCE6" d="M154.182,115.369c0-0.471-0.381-0.852-0.85-0.852c-0.47,0-0.851,0.381-0.851,0.852
	c0,0.47,0.381,0.852,0.851,0.852C153.801,116.221,154.182,115.839,154.182,115.369z"/>
<path fill="#00DCE6" d="M154.182,110.398c0-0.471-0.381-0.852-0.85-0.852c-0.47,0-0.851,0.381-0.851,0.852s0.381,0.852,0.851,0.852
	C153.801,111.25,154.182,110.869,154.182,110.398z"/>
<path fill="#00DCE6" d="M154.182,105.427c0-0.471-0.381-0.852-0.85-0.852c-0.47,0-0.851,0.381-0.851,0.852
	c0,0.471,0.381,0.852,0.851,0.852C153.801,106.279,154.182,105.898,154.182,105.427z"/>
<path fill="#00DCE6" d="M154.182,100.598c0-0.471-0.381-0.852-0.85-0.852c-0.47,0-0.851,0.381-0.851,0.852
	c0,0.471,0.381,0.852,0.851,0.852C153.801,101.45,154.182,101.069,154.182,100.598z"/>
<path fill="#00DCE6" d="M159,203.566c0-0.469-0.381-0.852-0.85-0.852c-0.47,0-0.851,0.383-0.851,0.852
	c0,0.472,0.381,0.853,0.851,0.853C158.619,204.419,159,204.038,159,203.566z"/>
<path fill="#00DCE6" d="M159,198.739c0-0.472-0.381-0.853-0.85-0.853c-0.47,0-0.851,0.381-0.851,0.853
	c0,0.47,0.381,0.852,0.851,0.852C158.619,199.591,159,199.209,159,198.739z"/>
<path fill="#00DCE6" d="M159,193.768c0-0.471-0.381-0.853-0.85-0.853c-0.47,0-0.851,0.382-0.851,0.853s0.381,0.853,0.851,0.853
	C158.619,194.62,159,194.238,159,193.768z"/>
<path fill="#00DCE6" d="M159,188.939c0-0.472-0.381-0.854-0.85-0.854c-0.47,0-0.851,0.382-0.851,0.854
	c0,0.47,0.381,0.852,0.851,0.852C158.619,189.791,159,189.409,159,188.939z"/>
<path fill="#00DCE6" d="M159,183.968c0-0.471-0.381-0.852-0.85-0.852c-0.47,0-0.851,0.381-0.851,0.852
	c0,0.47,0.381,0.853,0.851,0.853C158.619,184.82,159,184.438,159,183.968z"/>
<path fill="#00DCE6" d="M159,179.139c0-0.471-0.381-0.852-0.85-0.852c-0.47,0-0.851,0.381-0.851,0.852s0.381,0.853,0.851,0.853
	C158.619,179.991,159,179.609,159,179.139z"/>
<path fill="#00DCE6" d="M159,174.168c0-0.471-0.381-0.852-0.85-0.852c-0.47,0-0.851,0.381-0.851,0.852s0.381,0.852,0.851,0.852
	C158.619,175.02,159,174.639,159,174.168z"/>
<path fill="#00DCE6" d="M159,169.339c0-0.471-0.381-0.852-0.85-0.852c-0.47,0-0.851,0.381-0.851,0.852
	c0,0.471,0.381,0.852,0.851,0.852C158.619,170.191,159,169.81,159,169.339z"/>
<path fill="#00DCE6" d="M159,164.368c0-0.471-0.381-0.852-0.85-0.852c-0.47,0-0.851,0.381-0.851,0.852
	c0,0.471,0.381,0.852,0.851,0.852C158.619,165.22,159,164.839,159,164.368z"/>
<path fill="#00DCE6" d="M159,159.397c0-0.471-0.381-0.852-0.85-0.852c-0.47,0-0.851,0.381-0.851,0.852s0.381,0.852,0.851,0.852
	C158.619,160.249,159,159.868,159,159.397z"/>
<path fill="#00DCE6" d="M159,154.568c0-0.47-0.381-0.852-0.85-0.852c-0.47,0-0.851,0.382-0.851,0.852
	c0,0.471,0.381,0.852,0.851,0.852C158.619,155.42,159,155.039,159,154.568z"/>
<path fill="#00DCE6" d="M159,149.598c0-0.471-0.381-0.853-0.85-0.853c-0.47,0-0.851,0.382-0.851,0.853
	c0,0.47,0.381,0.852,0.851,0.852C158.619,150.45,159,150.068,159,149.598z"/>
<path fill="#00DCE6" d="M159,144.768c0-0.47-0.381-0.852-0.85-0.852c-0.47,0-0.851,0.382-0.851,0.852
	c0,0.471,0.381,0.852,0.851,0.852C158.619,145.62,159,145.239,159,144.768z"/>
<path fill="#00DCE6" d="M159,139.798c0-0.471-0.381-0.852-0.85-0.852c-0.47,0-0.851,0.381-0.851,0.852
	c0,0.47,0.381,0.852,0.851,0.852C158.619,140.65,159,140.268,159,139.798z"/>
<path fill="#00DCE6" d="M159,134.968c0-0.471-0.381-0.852-0.85-0.852c-0.47,0-0.851,0.381-0.851,0.852
	c0,0.471,0.381,0.852,0.851,0.852C158.619,135.82,159,135.439,159,134.968z"/>
<path fill="#00DCE6" d="M159,129.998c0-0.471-0.381-0.852-0.85-0.852c-0.47,0-0.851,0.381-0.851,0.852
	c0,0.47,0.381,0.852,0.851,0.852C158.619,130.85,159,130.468,159,129.998z"/>
<path fill="#00DCE6" d="M159,125.168c0-0.47-0.381-0.852-0.85-0.852c-0.47,0-0.851,0.382-0.851,0.852
	c0,0.471,0.381,0.853,0.851,0.853C158.619,126.021,159,125.639,159,125.168z"/>
<path fill="#00DCE6" d="M159,120.198c0-0.471-0.381-0.854-0.85-0.854c-0.47,0-0.851,0.382-0.851,0.854
	c0,0.47,0.381,0.852,0.851,0.852C158.619,121.05,159,120.668,159,120.198z"/>
<path fill="#00DCE6" d="M159,115.369c0-0.471-0.381-0.852-0.85-0.852c-0.47,0-0.851,0.381-0.851,0.852
	c0,0.47,0.381,0.852,0.851,0.852C158.619,116.221,159,115.839,159,115.369z"/>
<path fill="#00DCE6" d="M159,110.398c0-0.471-0.381-0.852-0.85-0.852c-0.47,0-0.851,0.381-0.851,0.852s0.381,0.852,0.851,0.852
	C158.619,111.25,159,110.869,159,110.398z"/>
<path fill="#00DCE6" d="M159,105.427c0-0.471-0.381-0.852-0.85-0.852c-0.47,0-0.851,0.381-0.851,0.852
	c0,0.471,0.381,0.852,0.851,0.852C158.619,106.279,159,105.898,159,105.427z"/>
<path fill="#00DCE6" d="M159,100.598c0-0.471-0.381-0.852-0.85-0.852c-0.47,0-0.851,0.381-0.851,0.852
	c0,0.471,0.381,0.852,0.851,0.852C158.619,101.45,159,101.069,159,100.598z"/>
<path fill="#00DCE6" d="M124.701,95.769c0-0.471-0.381-0.852-0.851-0.852c-0.469,0-0.85,0.381-0.85,0.852s0.381,0.852,0.85,0.852
	C124.32,96.621,124.701,96.239,124.701,95.769z"/>
<path fill="#00DCE6" d="M124.701,90.798c0-0.47-0.381-0.852-0.851-0.852c-0.469,0-0.85,0.382-0.85,0.852
	c0,0.471,0.381,0.852,0.85,0.852C124.32,91.65,124.701,91.269,124.701,90.798z"/>
<path fill="#00DCE6" d="M124.701,85.827c0-0.471-0.381-0.852-0.851-0.852c-0.469,0-0.85,0.381-0.85,0.852s0.381,0.852,0.85,0.852
	C124.32,86.679,124.701,86.298,124.701,85.827z"/>
<path fill="#00DCE6" d="M124.701,80.999c0-0.471-0.381-0.852-0.851-0.852c-0.469,0-0.85,0.381-0.85,0.852s0.381,0.852,0.85,0.852
	C124.32,81.851,124.701,81.469,124.701,80.999z"/>
<path fill="#00DCE6" d="M124.701,76.027c0-0.471-0.381-0.852-0.851-0.852c-0.469,0-0.85,0.381-0.85,0.852s0.381,0.852,0.85,0.852
	C124.32,76.879,124.701,76.498,124.701,76.027z"/>
<path fill="#00DCE6" d="M124.701,71.198c0-0.471-0.381-0.852-0.851-0.852c-0.469,0-0.85,0.381-0.85,0.852s0.381,0.852,0.85,0.852
	C124.32,72.05,124.701,71.669,124.701,71.198z"/>
<path fill="#00DCE6" d="M124.701,66.228c0-0.471-0.381-0.852-0.851-0.852c-0.469,0-0.85,0.381-0.85,0.852s0.381,0.852,0.85,0.852
	C124.32,67.08,124.701,66.698,124.701,66.228z"/>
<path fill="#00DCE6" d="M124.701,61.398c0-0.471-0.381-0.852-0.851-0.852c-0.469,0-0.85,0.381-0.85,0.852s0.381,0.853,0.85,0.853
	C124.32,62.251,124.701,61.869,124.701,61.398z"/>
<path fill="#00DCE6" d="M124.701,56.427c0-0.471-0.381-0.852-0.851-0.852c-0.469,0-0.85,0.381-0.85,0.852s0.381,0.852,0.85,0.852
	C124.32,57.279,124.701,56.898,124.701,56.427z"/>
<path fill="#00DCE6" d="M124.701,51.599c0-0.471-0.381-0.852-0.851-0.852c-0.469,0-0.85,0.381-0.85,0.852s0.381,0.853,0.85,0.853
	C124.32,52.451,124.701,52.069,124.701,51.599z"/>
<path fill="#00DCE6" d="M124.701,46.628c0-0.471-0.381-0.852-0.851-0.852c-0.469,0-0.85,0.381-0.85,0.852s0.381,0.852,0.85,0.852
	C124.32,47.48,124.701,47.099,124.701,46.628z"/>
<path fill="#00DCE6" d="M124.701,41.799c0-0.471-0.381-0.852-0.851-0.852c-0.469,0-0.85,0.381-0.85,0.852s0.381,0.852,0.85,0.852
	C124.32,42.651,124.701,42.27,124.701,41.799z"/>
<path fill="#00DCE6" d="M124.701,36.828c0-0.471-0.381-0.852-0.851-0.852c-0.469,0-0.85,0.381-0.85,0.852s0.381,0.853,0.85,0.853
	C124.32,37.681,124.701,37.299,124.701,36.828z"/>
<path fill="#00DCE6" d="M124.701,31.857c0-0.471-0.381-0.852-0.851-0.852c-0.469,0-0.85,0.381-0.85,0.852s0.381,0.852,0.85,0.852
	C124.32,32.709,124.701,32.328,124.701,31.857z"/>
<path fill="#00DCE6" d="M124.701,27.028c0-0.471-0.381-0.853-0.851-0.853c-0.469,0-0.85,0.382-0.85,0.853s0.381,0.852,0.85,0.852
	C124.32,27.88,124.701,27.499,124.701,27.028z"/>
<path fill="#00DCE6" d="M129.662,95.769c0-0.471-0.381-0.852-0.85-0.852c-0.47,0-0.851,0.381-0.851,0.852s0.381,0.852,0.851,0.852
	C129.281,96.621,129.662,96.239,129.662,95.769z"/>
<path fill="#00DCE6" d="M129.662,90.798c0-0.47-0.381-0.852-0.85-0.852c-0.47,0-0.851,0.382-0.851,0.852
	c0,0.471,0.381,0.852,0.851,0.852C129.281,91.65,129.662,91.269,129.662,90.798z"/>
<path fill="#00DCE6" d="M129.662,85.827c0-0.471-0.381-0.852-0.85-0.852c-0.47,0-0.851,0.381-0.851,0.852s0.381,0.852,0.851,0.852
	C129.281,86.679,129.662,86.298,129.662,85.827z"/>
<path fill="#00DCE6" d="M129.662,80.999c0-0.471-0.381-0.852-0.85-0.852c-0.47,0-0.851,0.381-0.851,0.852s0.381,0.852,0.851,0.852
	C129.281,81.851,129.662,81.469,129.662,80.999z"/>
<path fill="#00DCE6" d="M129.662,76.027c0-0.471-0.381-0.852-0.85-0.852c-0.47,0-0.851,0.381-0.851,0.852s0.381,0.852,0.851,0.852
	C129.281,76.879,129.662,76.498,129.662,76.027z"/>
<path fill="#00DCE6" d="M129.662,71.198c0-0.471-0.381-0.852-0.85-0.852c-0.47,0-0.851,0.381-0.851,0.852s0.381,0.852,0.851,0.852
	C129.281,72.05,129.662,71.669,129.662,71.198z"/>
<path fill="#00DCE6" d="M129.662,66.228c0-0.471-0.381-0.852-0.85-0.852c-0.47,0-0.851,0.381-0.851,0.852s0.381,0.852,0.851,0.852
	C129.281,67.08,129.662,66.698,129.662,66.228z"/>
<path fill="#00DCE6" d="M129.662,61.398c0-0.471-0.381-0.852-0.85-0.852c-0.47,0-0.851,0.381-0.851,0.852s0.381,0.853,0.851,0.853
	C129.281,62.251,129.662,61.869,129.662,61.398z"/>
<path fill="#00DCE6" d="M129.662,56.427c0-0.471-0.381-0.852-0.85-0.852c-0.47,0-0.851,0.381-0.851,0.852s0.381,0.852,0.851,0.852
	C129.281,57.279,129.662,56.898,129.662,56.427z"/>
<path fill="#00DCE6" d="M129.662,51.599c0-0.471-0.381-0.852-0.85-0.852c-0.47,0-0.851,0.381-0.851,0.852s0.381,0.853,0.851,0.853
	C129.281,52.451,129.662,52.069,129.662,51.599z"/>
<path fill="#00DCE6" d="M129.662,46.628c0-0.471-0.381-0.852-0.85-0.852c-0.47,0-0.851,0.381-0.851,0.852s0.381,0.852,0.851,0.852
	C129.281,47.48,129.662,47.099,129.662,46.628z"/>
<path fill="#00DCE6" d="M129.662,41.799c0-0.471-0.381-0.852-0.85-0.852c-0.47,0-0.851,0.381-0.851,0.852s0.381,0.852,0.851,0.852
	C129.281,42.651,129.662,42.27,129.662,41.799z"/>
<path fill="#00DCE6" d="M129.662,36.828c0-0.471-0.381-0.852-0.85-0.852c-0.47,0-0.851,0.381-0.851,0.852s0.381,0.853,0.851,0.853
	C129.281,37.681,129.662,37.299,129.662,36.828z"/>
<path fill="#00DCE6" d="M129.662,31.857c0-0.471-0.381-0.852-0.85-0.852c-0.47,0-0.851,0.381-0.851,0.852s0.381,0.852,0.851,0.852
	C129.281,32.709,129.662,32.328,129.662,31.857z"/>
<path fill="#00DCE6" d="M129.662,27.028c0-0.471-0.381-0.853-0.85-0.853c-0.47,0-0.851,0.382-0.851,0.853s0.381,0.852,0.851,0.852
	C129.281,27.88,129.662,27.499,129.662,27.028z"/>
<path fill="#00DCE6" d="M134.622,95.769c0-0.471-0.381-0.852-0.85-0.852c-0.47,0-0.851,0.381-0.851,0.852s0.381,0.852,0.851,0.852
	C134.241,96.621,134.622,96.239,134.622,95.769z"/>
<path fill="#00DCE6" d="M134.622,90.798c0-0.47-0.381-0.852-0.85-0.852c-0.47,0-0.851,0.382-0.851,0.852
	c0,0.471,0.381,0.852,0.851,0.852C134.241,91.65,134.622,91.269,134.622,90.798z"/>
<path fill="#00DCE6" d="M134.622,85.827c0-0.471-0.381-0.852-0.85-0.852c-0.47,0-0.851,0.381-0.851,0.852s0.381,0.852,0.851,0.852
	C134.241,86.679,134.622,86.298,134.622,85.827z"/>
<path fill="#00DCE6" d="M134.622,80.999c0-0.471-0.381-0.852-0.85-0.852c-0.47,0-0.851,0.381-0.851,0.852s0.381,0.852,0.851,0.852
	C134.241,81.851,134.622,81.469,134.622,80.999z"/>
<path fill="#00DCE6" d="M134.622,76.027c0-0.471-0.381-0.852-0.85-0.852c-0.47,0-0.851,0.381-0.851,0.852s0.381,0.852,0.851,0.852
	C134.241,76.879,134.622,76.498,134.622,76.027z"/>
<path fill="#00DCE6" d="M134.622,71.198c0-0.471-0.381-0.852-0.85-0.852c-0.47,0-0.851,0.381-0.851,0.852s0.381,0.852,0.851,0.852
	C134.241,72.05,134.622,71.669,134.622,71.198z"/>
<path fill="#00DCE6" d="M134.622,66.228c0-0.471-0.381-0.852-0.85-0.852c-0.47,0-0.851,0.381-0.851,0.852s0.381,0.852,0.851,0.852
	C134.241,67.08,134.622,66.698,134.622,66.228z"/>
<path fill="#00DCE6" d="M134.622,61.398c0-0.471-0.381-0.852-0.85-0.852c-0.47,0-0.851,0.381-0.851,0.852s0.381,0.853,0.851,0.853
	C134.241,62.251,134.622,61.869,134.622,61.398z"/>
<path fill="#00DCE6" d="M134.622,56.427c0-0.471-0.381-0.852-0.85-0.852c-0.47,0-0.851,0.381-0.851,0.852s0.381,0.852,0.851,0.852
	C134.241,57.279,134.622,56.898,134.622,56.427z"/>
<path fill="#00DCE6" d="M134.622,51.599c0-0.471-0.381-0.852-0.85-0.852c-0.47,0-0.851,0.381-0.851,0.852s0.381,0.853,0.851,0.853
	C134.241,52.451,134.622,52.069,134.622,51.599z"/>
<path fill="#00DCE6" d="M134.622,46.628c0-0.471-0.381-0.852-0.85-0.852c-0.47,0-0.851,0.381-0.851,0.852s0.381,0.852,0.851,0.852
	C134.241,47.48,134.622,47.099,134.622,46.628z"/>
<path fill="#00DCE6" d="M134.622,41.799c0-0.471-0.381-0.852-0.85-0.852c-0.47,0-0.851,0.381-0.851,0.852s0.381,0.852,0.851,0.852
	C134.241,42.651,134.622,42.27,134.622,41.799z"/>
<path fill="#00DCE6" d="M134.622,36.828c0-0.471-0.381-0.852-0.85-0.852c-0.47,0-0.851,0.381-0.851,0.852s0.381,0.853,0.851,0.853
	C134.241,37.681,134.622,37.299,134.622,36.828z"/>
<path fill="#00DCE6" d="M134.622,31.857c0-0.471-0.381-0.852-0.85-0.852c-0.47,0-0.851,0.381-0.851,0.852s0.381,0.852,0.851,0.852
	C134.241,32.709,134.622,32.328,134.622,31.857z"/>
<path fill="#00DCE6" d="M134.622,27.028c0-0.471-0.381-0.853-0.85-0.853c-0.47,0-0.851,0.382-0.851,0.853s0.381,0.852,0.851,0.852
	C134.241,27.88,134.622,27.499,134.622,27.028z"/>
<path fill="#00DCE6" d="M139.441,95.769c0-0.471-0.381-0.852-0.85-0.852c-0.47,0-0.851,0.381-0.851,0.852s0.381,0.852,0.851,0.852
	C139.06,96.621,139.441,96.239,139.441,95.769z"/>
<path fill="#00DCE6" d="M139.441,90.798c0-0.47-0.381-0.852-0.85-0.852c-0.47,0-0.851,0.382-0.851,0.852
	c0,0.471,0.381,0.852,0.851,0.852C139.06,91.65,139.441,91.269,139.441,90.798z"/>
<path fill="#00DCE6" d="M139.441,85.827c0-0.471-0.381-0.852-0.85-0.852c-0.47,0-0.851,0.381-0.851,0.852s0.381,0.852,0.851,0.852
	C139.06,86.679,139.441,86.298,139.441,85.827z"/>
<path fill="#00DCE6" d="M139.441,80.999c0-0.471-0.381-0.852-0.85-0.852c-0.47,0-0.851,0.381-0.851,0.852s0.381,0.852,0.851,0.852
	C139.06,81.851,139.441,81.469,139.441,80.999z"/>
<path fill="#00DCE6" d="M139.441,76.027c0-0.471-0.381-0.852-0.85-0.852c-0.47,0-0.851,0.381-0.851,0.852s0.381,0.852,0.851,0.852
	C139.06,76.879,139.441,76.498,139.441,76.027z"/>
<path fill="#00DCE6" d="M139.441,71.198c0-0.471-0.381-0.852-0.85-0.852c-0.47,0-0.851,0.381-0.851,0.852s0.381,0.852,0.851,0.852
	C139.06,72.05,139.441,71.669,139.441,71.198z"/>
<path fill="#00DCE6" d="M139.441,66.228c0-0.471-0.381-0.852-0.85-0.852c-0.47,0-0.851,0.381-0.851,0.852s0.381,0.852,0.851,0.852
	C139.06,67.08,139.441,66.698,139.441,66.228z"/>
<path fill="#00DCE6" d="M139.441,61.398c0-0.471-0.381-0.852-0.85-0.852c-0.47,0-0.851,0.381-0.851,0.852s0.381,0.853,0.851,0.853
	C139.06,62.251,139.441,61.869,139.441,61.398z"/>
<path fill="#00DCE6" d="M139.441,56.427c0-0.471-0.381-0.852-0.85-0.852c-0.47,0-0.851,0.381-0.851,0.852s0.381,0.852,0.851,0.852
	C139.06,57.279,139.441,56.898,139.441,56.427z"/>
<path fill="#00DCE6" d="M139.441,51.599c0-0.471-0.381-0.852-0.85-0.852c-0.47,0-0.851,0.381-0.851,0.852s0.381,0.853,0.851,0.853
	C139.06,52.451,139.441,52.069,139.441,51.599z"/>
<path fill="#00DCE6" d="M139.441,46.628c0-0.471-0.381-0.852-0.85-0.852c-0.47,0-0.851,0.381-0.851,0.852s0.381,0.852,0.851,0.852
	C139.06,47.48,139.441,47.099,139.441,46.628z"/>
<path fill="#00DCE6" d="M139.441,41.799c0-0.471-0.381-0.852-0.85-0.852c-0.47,0-0.851,0.381-0.851,0.852s0.381,0.852,0.851,0.852
	C139.06,42.651,139.441,42.27,139.441,41.799z"/>
<path fill="#00DCE6" d="M139.441,36.828c0-0.471-0.381-0.852-0.85-0.852c-0.47,0-0.851,0.381-0.851,0.852s0.381,0.853,0.851,0.853
	C139.06,37.681,139.441,37.299,139.441,36.828z"/>
<path fill="#00DCE6" d="M139.441,31.857c0-0.471-0.381-0.852-0.85-0.852c-0.47,0-0.851,0.381-0.851,0.852s0.381,0.852,0.851,0.852
	C139.06,32.709,139.441,32.328,139.441,31.857z"/>
<path fill="#00DCE6" d="M139.441,27.028c0-0.471-0.381-0.853-0.85-0.853c-0.47,0-0.851,0.382-0.851,0.853s0.381,0.852,0.851,0.852
	C139.06,27.88,139.441,27.499,139.441,27.028z"/>
<path fill="#00DCE6" d="M144.402,95.769c0-0.471-0.381-0.852-0.85-0.852c-0.47,0-0.851,0.381-0.851,0.852s0.381,0.852,0.851,0.852
	C144.021,96.621,144.402,96.239,144.402,95.769z"/>
<path fill="#00DCE6" d="M144.402,90.798c0-0.47-0.381-0.852-0.85-0.852c-0.47,0-0.851,0.382-0.851,0.852
	c0,0.471,0.381,0.852,0.851,0.852C144.021,91.65,144.402,91.269,144.402,90.798z"/>
<path fill="#00DCE6" d="M144.402,85.827c0-0.471-0.381-0.852-0.85-0.852c-0.47,0-0.851,0.381-0.851,0.852s0.381,0.852,0.851,0.852
	C144.021,86.679,144.402,86.298,144.402,85.827z"/>
<path fill="#00DCE6" d="M144.402,80.999c0-0.471-0.381-0.852-0.85-0.852c-0.47,0-0.851,0.381-0.851,0.852s0.381,0.852,0.851,0.852
	C144.021,81.851,144.402,81.469,144.402,80.999z"/>
<path fill="#00DCE6" d="M144.402,76.027c0-0.471-0.381-0.852-0.85-0.852c-0.47,0-0.851,0.381-0.851,0.852s0.381,0.852,0.851,0.852
	C144.021,76.879,144.402,76.498,144.402,76.027z"/>
<path fill="#00DCE6" d="M144.402,71.198c0-0.471-0.381-0.852-0.85-0.852c-0.47,0-0.851,0.381-0.851,0.852s0.381,0.852,0.851,0.852
	C144.021,72.05,144.402,71.669,144.402,71.198z"/>
<path fill="#00DCE6" d="M144.402,66.228c0-0.471-0.381-0.852-0.85-0.852c-0.47,0-0.851,0.381-0.851,0.852s0.381,0.852,0.851,0.852
	C144.021,67.08,144.402,66.698,144.402,66.228z"/>
<path fill="#00DCE6" d="M144.402,61.398c0-0.471-0.381-0.852-0.85-0.852c-0.47,0-0.851,0.381-0.851,0.852s0.381,0.853,0.851,0.853
	C144.021,62.251,144.402,61.869,144.402,61.398z"/>
<path fill="#00DCE6" d="M144.402,56.427c0-0.471-0.381-0.852-0.85-0.852c-0.47,0-0.851,0.381-0.851,0.852s0.381,0.852,0.851,0.852
	C144.021,57.279,144.402,56.898,144.402,56.427z"/>
<path fill="#00DCE6" d="M144.402,51.599c0-0.471-0.381-0.852-0.85-0.852c-0.47,0-0.851,0.381-0.851,0.852s0.381,0.853,0.851,0.853
	C144.021,52.451,144.402,52.069,144.402,51.599z"/>
<path fill="#00DCE6" d="M144.402,46.628c0-0.471-0.381-0.852-0.85-0.852c-0.47,0-0.851,0.381-0.851,0.852s0.381,0.852,0.851,0.852
	C144.021,47.48,144.402,47.099,144.402,46.628z"/>
<path fill="#00DCE6" d="M144.402,41.799c0-0.471-0.381-0.852-0.85-0.852c-0.47,0-0.851,0.381-0.851,0.852s0.381,0.852,0.851,0.852
	C144.021,42.651,144.402,42.27,144.402,41.799z"/>
<path fill="#00DCE6" d="M144.402,36.828c0-0.471-0.381-0.852-0.85-0.852c-0.47,0-0.851,0.381-0.851,0.852s0.381,0.853,0.851,0.853
	C144.021,37.681,144.402,37.299,144.402,36.828z"/>
<path fill="#00DCE6" d="M144.402,31.857c0-0.471-0.381-0.852-0.85-0.852c-0.47,0-0.851,0.381-0.851,0.852s0.381,0.852,0.851,0.852
	C144.021,32.709,144.402,32.328,144.402,31.857z"/>
<path fill="#00DCE6" d="M144.402,27.028c0-0.471-0.381-0.853-0.85-0.853c-0.47,0-0.851,0.382-0.851,0.853s0.381,0.852,0.851,0.852
	C144.021,27.88,144.402,27.499,144.402,27.028z"/>
<path fill="#00DCE6" d="M149.221,95.769c0-0.471-0.38-0.852-0.85-0.852c-0.47,0-0.85,0.381-0.85,0.852s0.38,0.852,0.85,0.852
	C148.841,96.621,149.221,96.239,149.221,95.769z"/>
<path fill="#00DCE6" d="M149.221,90.798c0-0.47-0.38-0.852-0.85-0.852c-0.47,0-0.85,0.382-0.85,0.852c0,0.471,0.38,0.852,0.85,0.852
	C148.841,91.65,149.221,91.269,149.221,90.798z"/>
<path fill="#00DCE6" d="M149.221,85.827c0-0.471-0.38-0.852-0.85-0.852c-0.47,0-0.85,0.381-0.85,0.852s0.38,0.852,0.85,0.852
	C148.841,86.679,149.221,86.298,149.221,85.827z"/>
<path fill="#00DCE6" d="M149.221,80.999c0-0.471-0.38-0.852-0.85-0.852c-0.47,0-0.85,0.381-0.85,0.852s0.38,0.852,0.85,0.852
	C148.841,81.851,149.221,81.469,149.221,80.999z"/>
<path fill="#00DCE6" d="M149.221,76.027c0-0.471-0.38-0.852-0.85-0.852c-0.47,0-0.85,0.381-0.85,0.852s0.38,0.852,0.85,0.852
	C148.841,76.879,149.221,76.498,149.221,76.027z"/>
<path fill="#00DCE6" d="M149.221,71.198c0-0.471-0.38-0.852-0.85-0.852c-0.47,0-0.85,0.381-0.85,0.852s0.38,0.852,0.85,0.852
	C148.841,72.05,149.221,71.669,149.221,71.198z"/>
<path fill="#00DCE6" d="M149.221,66.228c0-0.471-0.38-0.852-0.85-0.852c-0.47,0-0.85,0.381-0.85,0.852s0.38,0.852,0.85,0.852
	C148.841,67.08,149.221,66.698,149.221,66.228z"/>
<path fill="#00DCE6" d="M149.221,61.398c0-0.471-0.38-0.852-0.85-0.852c-0.47,0-0.85,0.381-0.85,0.852s0.38,0.853,0.85,0.853
	C148.841,62.251,149.221,61.869,149.221,61.398z"/>
<path fill="#00DCE6" d="M149.221,56.427c0-0.471-0.38-0.852-0.85-0.852c-0.47,0-0.85,0.381-0.85,0.852s0.38,0.852,0.85,0.852
	C148.841,57.279,149.221,56.898,149.221,56.427z"/>
<path fill="#00DCE6" d="M149.221,51.599c0-0.471-0.38-0.852-0.85-0.852c-0.47,0-0.85,0.381-0.85,0.852s0.38,0.853,0.85,0.853
	C148.841,52.451,149.221,52.069,149.221,51.599z"/>
<path fill="#00DCE6" d="M149.221,46.628c0-0.471-0.38-0.852-0.85-0.852c-0.47,0-0.85,0.381-0.85,0.852s0.38,0.852,0.85,0.852
	C148.841,47.48,149.221,47.099,149.221,46.628z"/>
<path fill="#00DCE6" d="M149.221,41.799c0-0.471-0.38-0.852-0.85-0.852c-0.47,0-0.85,0.381-0.85,0.852s0.38,0.852,0.85,0.852
	C148.841,42.651,149.221,42.27,149.221,41.799z"/>
<path fill="#00DCE6" d="M149.221,36.828c0-0.471-0.38-0.852-0.85-0.852c-0.47,0-0.85,0.381-0.85,0.852s0.38,0.853,0.85,0.853
	C148.841,37.681,149.221,37.299,149.221,36.828z"/>
<path fill="#00DCE6" d="M149.221,31.857c0-0.471-0.38-0.852-0.85-0.852c-0.47,0-0.85,0.381-0.85,0.852s0.38,0.852,0.85,0.852
	C148.841,32.709,149.221,32.328,149.221,31.857z"/>
<path fill="#00DCE6" d="M149.221,27.028c0-0.471-0.38-0.853-0.85-0.853c-0.47,0-0.85,0.382-0.85,0.853s0.38,0.852,0.85,0.852
	C148.841,27.88,149.221,27.499,149.221,27.028z"/>
<path fill="#00DCE6" d="M154.182,95.769c0-0.471-0.381-0.852-0.85-0.852c-0.47,0-0.851,0.381-0.851,0.852s0.381,0.852,0.851,0.852
	C153.801,96.621,154.182,96.239,154.182,95.769z"/>
<path fill="#00DCE6" d="M154.182,90.798c0-0.47-0.381-0.852-0.85-0.852c-0.47,0-0.851,0.382-0.851,0.852
	c0,0.471,0.381,0.852,0.851,0.852C153.801,91.65,154.182,91.269,154.182,90.798z"/>
<path fill="#00DCE6" d="M154.182,85.827c0-0.471-0.381-0.852-0.85-0.852c-0.47,0-0.851,0.381-0.851,0.852s0.381,0.852,0.851,0.852
	C153.801,86.679,154.182,86.298,154.182,85.827z"/>
<path fill="#00DCE6" d="M154.182,80.999c0-0.471-0.381-0.852-0.85-0.852c-0.47,0-0.851,0.381-0.851,0.852s0.381,0.852,0.851,0.852
	C153.801,81.851,154.182,81.469,154.182,80.999z"/>
<path fill="#00DCE6" d="M154.182,76.027c0-0.471-0.381-0.852-0.85-0.852c-0.47,0-0.851,0.381-0.851,0.852s0.381,0.852,0.851,0.852
	C153.801,76.879,154.182,76.498,154.182,76.027z"/>
<path fill="#00DCE6" d="M154.182,71.198c0-0.471-0.381-0.852-0.85-0.852c-0.47,0-0.851,0.381-0.851,0.852s0.381,0.852,0.851,0.852
	C153.801,72.05,154.182,71.669,154.182,71.198z"/>
<path fill="#00DCE6" d="M154.182,66.228c0-0.471-0.381-0.852-0.85-0.852c-0.47,0-0.851,0.381-0.851,0.852s0.381,0.852,0.851,0.852
	C153.801,67.08,154.182,66.698,154.182,66.228z"/>
<path fill="#00DCE6" d="M154.182,61.398c0-0.471-0.381-0.852-0.85-0.852c-0.47,0-0.851,0.381-0.851,0.852s0.381,0.853,0.851,0.853
	C153.801,62.251,154.182,61.869,154.182,61.398z"/>
<path fill="#00DCE6" d="M154.182,56.427c0-0.471-0.381-0.852-0.85-0.852c-0.47,0-0.851,0.381-0.851,0.852s0.381,0.852,0.851,0.852
	C153.801,57.279,154.182,56.898,154.182,56.427z"/>
<path fill="#00DCE6" d="M154.182,51.599c0-0.471-0.381-0.852-0.85-0.852c-0.47,0-0.851,0.381-0.851,0.852s0.381,0.853,0.851,0.853
	C153.801,52.451,154.182,52.069,154.182,51.599z"/>
<path fill="#00DCE6" d="M154.182,46.628c0-0.471-0.381-0.852-0.85-0.852c-0.47,0-0.851,0.381-0.851,0.852s0.381,0.852,0.851,0.852
	C153.801,47.48,154.182,47.099,154.182,46.628z"/>
<path fill="#00DCE6" d="M154.182,41.799c0-0.471-0.381-0.852-0.85-0.852c-0.47,0-0.851,0.381-0.851,0.852s0.381,0.852,0.851,0.852
	C153.801,42.651,154.182,42.27,154.182,41.799z"/>
<path fill="#00DCE6" d="M154.182,36.828c0-0.471-0.381-0.852-0.85-0.852c-0.47,0-0.851,0.381-0.851,0.852s0.381,0.853,0.851,0.853
	C153.801,37.681,154.182,37.299,154.182,36.828z"/>
<path fill="#00DCE6" d="M154.182,31.857c0-0.471-0.381-0.852-0.85-0.852c-0.47,0-0.851,0.381-0.851,0.852s0.381,0.852,0.851,0.852
	C153.801,32.709,154.182,32.328,154.182,31.857z"/>
<path fill="#00DCE6" d="M154.182,27.028c0-0.471-0.381-0.853-0.85-0.853c-0.47,0-0.851,0.382-0.851,0.853s0.381,0.852,0.851,0.852
	C153.801,27.88,154.182,27.499,154.182,27.028z"/>
<path fill="#00DCE6" d="M159,95.769c0-0.471-0.381-0.852-0.85-0.852c-0.47,0-0.851,0.381-0.851,0.852s0.381,0.852,0.851,0.852
	C158.619,96.621,159,96.24,159,95.769z"/>
<path fill="#00DCE6" d="M159,90.798c0-0.47-0.381-0.852-0.85-0.852c-0.47,0-0.851,0.382-0.851,0.852
	c0,0.471,0.381,0.852,0.851,0.852C158.619,91.65,159,91.269,159,90.798z"/>
<path fill="#00DCE6" d="M159,85.827c0-0.471-0.381-0.852-0.85-0.852c-0.47,0-0.851,0.381-0.851,0.852s0.381,0.852,0.851,0.852
	C158.619,86.679,159,86.298,159,85.827z"/>
<path fill="#00DCE6" d="M159,80.999c0-0.471-0.381-0.852-0.85-0.852c-0.47,0-0.851,0.381-0.851,0.852s0.381,0.852,0.851,0.852
	C158.619,81.851,159,81.469,159,80.999z"/>
<path fill="#00DCE6" d="M159,76.027c0-0.471-0.381-0.852-0.85-0.852c-0.47,0-0.851,0.381-0.851,0.852s0.381,0.852,0.851,0.852
	C158.619,76.879,159,76.498,159,76.027z"/>
<path fill="#00DCE6" d="M159,71.198c0-0.471-0.381-0.852-0.85-0.852c-0.47,0-0.851,0.381-0.851,0.852s0.381,0.852,0.851,0.852
	C158.619,72.05,159,71.669,159,71.198z"/>
<path fill="#00DCE6" d="M159,66.228c0-0.471-0.381-0.852-0.85-0.852c-0.47,0-0.851,0.381-0.851,0.852s0.381,0.852,0.851,0.852
	C158.619,67.08,159,66.698,159,66.228z"/>
<path fill="#00DCE6" d="M159,61.398c0-0.471-0.381-0.852-0.85-0.852c-0.47,0-0.851,0.381-0.851,0.852s0.381,0.853,0.851,0.853
	C158.619,62.251,159,61.869,159,61.398z"/>
<path fill="#00DCE6" d="M159,56.427c0-0.471-0.381-0.852-0.85-0.852c-0.47,0-0.851,0.381-0.851,0.852s0.381,0.852,0.851,0.852
	C158.619,57.279,159,56.898,159,56.427z"/>
<path fill="#00DCE6" d="M159,51.599c0-0.471-0.381-0.852-0.85-0.852c-0.47,0-0.851,0.381-0.851,0.852s0.381,0.853,0.851,0.853
	C158.619,52.451,159,52.069,159,51.599z"/>
<path fill="#00DCE6" d="M159,46.628c0-0.471-0.381-0.852-0.85-0.852c-0.47,0-0.851,0.381-0.851,0.852s0.381,0.852,0.851,0.852
	C158.619,47.48,159,47.099,159,46.628z"/>
<path fill="#00DCE6" d="M159,41.799c0-0.471-0.381-0.852-0.85-0.852c-0.47,0-0.851,0.381-0.851,0.852s0.381,0.852,0.851,0.852
	C158.619,42.651,159,42.27,159,41.799z"/>
<path fill="#00DCE6" d="M159,36.828c0-0.471-0.381-0.852-0.85-0.852c-0.47,0-0.851,0.381-0.851,0.852s0.381,0.853,0.851,0.853
	C158.619,37.681,159,37.299,159,36.828z"/>
<path fill="#00DCE6" d="M159,31.857c0-0.471-0.381-0.852-0.85-0.852c-0.47,0-0.851,0.381-0.851,0.852s0.381,0.852,0.851,0.852
	C158.619,32.709,159,32.328,159,31.857z"/>
<path fill="#00DCE6" d="M159,27.028c0-0.471-0.381-0.853-0.85-0.853c-0.47,0-0.851,0.382-0.851,0.853s0.381,0.852,0.851,0.852
	C158.619,27.88,159,27.499,159,27.028z"/>
<path fill="#00DCE6" d="M352,144l0.707,0.707l0.707-0.707l-0.707-0.707L352,144z M316,145h35v-2h-35V145z M351.293,143.293l-12,12
	l1.414,1.414l12-12L351.293,143.293z M352.707,143.293l-12-12l-1.414,1.414l12,12L352.707,143.293z"/>
<circle fill="#00DCE6" fill-opacity="0.2" cx="317" cy="144" r="11"/>
<circle fill="#00DCE6" cx="317" cy="144" r="4"/>
<path fill="#00DCE6" d="M197,145l0.707,0.707l0.707-0.707l-0.707-0.707L197,145z M161,146h35v-2h-35V146z M196.293,144.293l-12,12
	l1.414,1.414l12-12L196.293,144.293z M197.707,144.293l-12-12l-1.414,1.414l12,12L197.707,144.293z"/>
<circle fill="#00DCE6" fill-opacity="0.2" cx="162" cy="145" r="11"/>
<circle fill="#00DCE6" cx="162" cy="145" r="4"/>
<path fill="none" stroke="#00DCE6" d="M79,22h83v245H79"/>
<path fill="none" stroke="#00DCE6" d="M79,145h80"/>
<circle fill="#00DCE6" fill-opacity="0.2" cx="79" cy="268" r="22"/>
<circle fill="#00DCE6" cx="79" cy="268" r="12"/>
<circle fill="#FFFFFF" cx="79" cy="268" r="6"/>
<path fill="#FFFFFF" d="M91.187,279.852C94.166,276.79,96,272.609,96,268c0-9.389-7.611-17-17-17c-4.609,0-8.791,1.834-11.853,4.813
	l0.707,0.707C70.736,253.723,74.667,252,79,252c8.836,0,16,7.163,16,16c0,4.333-1.723,8.264-4.521,11.145L91.187,279.852z"/>
<defs>
	<filter id="Adobe_OpacityMaskFilter" filterUnits="userSpaceOnUse" x="65.724" y="250" width="31.276" height="31.275">
		<feColorMatrix  type="matrix" values="1 0 0 0 0  0 1 0 0 0  0 0 1 0 0  0 0 0 1 0"/>
	</filter>
</defs>
<mask maskUnits="userSpaceOnUse" x="65.724" y="250" width="31.276" height="31.275" id="path-419-inside-1">
	<path fill="#FFFFFF" filter="url(#Adobe_OpacityMaskFilter)" d="M91.187,279.852C94.166,276.79,96,272.609,96,268
		c0-9.389-7.611-17-17-17c-4.609,0-8.791,1.834-11.853,4.813l0.707,0.707C70.736,253.723,74.667,252,79,252c8.836,0,16,7.163,16,16
		c0,4.333-1.723,8.264-4.521,11.145L91.187,279.852z"/>
</mask>
<path mask="url(#path-419-inside-1)" fill="#FFFFFF" d="M91.187,279.852l-0.708,0.709l0.717,0.715l0.707-0.726L91.187,279.852z
	 M67.147,255.813l-0.697-0.717l-0.727,0.707l0.717,0.717L67.147,255.813z M67.854,256.52l-0.707,0.707l0.697,0.697l0.707-0.686
	L67.854,256.52z M90.479,279.145l-0.717-0.695l-0.687,0.707l0.697,0.695L90.479,279.145z M91.904,280.55
	C95.057,277.309,97,272.88,97,268h-2c0,4.339-1.726,8.271-4.53,11.155L91.904,280.55z M97,268c0-9.941-8.059-18-18-18v2
	c8.836,0,16,7.163,16,16H97z M79,250c-4.88,0-9.309,1.943-12.55,5.096l1.395,1.435C70.728,253.727,74.661,252,79,252V250z
	 M66.44,256.52l0.707,0.707l1.414-1.414l-0.707-0.707L66.44,256.52z M68.551,257.238C71.253,254.614,74.937,253,79,253v-2
	c-4.604,0-8.782,1.831-11.842,4.803L68.551,257.238z M79,253c8.284,0,15,6.716,15,15h2c0-9.389-7.611-17-17-17V253z M94,268
	c0,4.063-1.614,7.747-4.238,10.449l1.435,1.393C94.168,276.782,96,272.604,96,268H94z M89.772,279.852l0.707,0.709l1.415-1.416
	l-0.708-0.707L89.772,279.852z"/>
<path fill="#FFFFFF" d="M59.838,309.816l-0.007-0.008c-0.329-0.359-0.986-0.779-2.112-1.205c-1.202-0.455-2.253-0.91-3.147-1.364
	l-0.009-0.005c-0.919-0.48-1.729-1.033-2.418-1.666l-0.006-0.006l-0.007-0.006c-0.701-0.666-1.251-1.449-1.65-2.336l-0.005-0.012
	c-0.402-0.926-0.585-1.986-0.585-3.152c0-2.07,0.667-3.838,2.042-5.221c1.162-1.167,2.632-1.895,4.362-2.215V289h4.594v3.707
	c1.74,0.406,3.181,1.27,4.267,2.611c1.257,1.543,1.845,3.506,1.845,5.798v1h-6.685v-1c0-1.193-0.251-1.89-0.575-2.273l-0.006-0.007
	l-0.005-0.007c-0.326-0.401-0.745-0.608-1.364-0.608c-0.687,0-1.083,0.191-1.334,0.455l-0.008,0.008
	c-0.258,0.266-0.446,0.684-0.446,1.39c0,0.622,0.173,1.02,0.438,1.299c0.321,0.337,1.032,0.782,2.292,1.294
	c1.317,0.529,2.423,1.041,3.304,1.536c0.902,0.495,1.685,1.071,2.334,1.737c0.664,0.668,1.175,1.441,1.527,2.313
	c0.361,0.883,0.527,1.88,0.527,2.968c0,2.072-0.651,3.838-2.009,5.203c-1.156,1.163-2.658,1.881-4.442,2.201V322h-4.578v-3.361
	c-1.997-0.361-3.653-1.197-4.893-2.555l-0.006-0.006c-1.411-1.571-2.072-3.616-2.072-6.031v-1h6.685v1
	c0,1.143,0.266,1.868,0.657,2.32c0.382,0.421,0.961,0.689,1.893,0.689c0.771,0,1.257-0.199,1.578-0.486
	c0.315-0.295,0.502-0.696,0.502-1.317c0-0.698-0.189-1.135-0.469-1.428L59.838,309.816z M55.593,313.029
	c-0.605-0.694-0.908-1.689-0.908-2.982H50c0,0.001,0,0.001,0,0.002c0,0.344,0.015,0.676,0.043,0.998
	c0.158,1.77,0.749,3.223,1.772,4.363c1.221,1.336,2.94,2.124,5.155,2.363V321h2.578v-3.243c2.01-0.207,3.588-0.886,4.733-2.038
	S66,313.068,66,311.221c0-0.988-0.151-1.853-0.454-2.592c-0.302-0.749-0.74-1.412-1.313-1.988c-0.573-0.586-1.275-1.107-2.107-1.564
	c-0.832-0.467-1.896-0.961-3.193-1.483c-1.286-0.521-2.167-1.032-2.642-1.532c-0.476-0.5-0.713-1.162-0.713-1.987
	c0-0.892,0.243-1.587,0.729-2.087c0.486-0.51,1.172-0.766,2.059-0.766c0.897,0,1.61,0.325,2.14,0.978
	c0.541,0.641,0.811,1.614,0.811,2.918H66c0-0.345-0.014-0.677-0.042-1c-0.147-1.668-0.673-3.056-1.579-4.167
	c-1.081-1.336-2.578-2.141-4.49-2.412V290h-2.594v3.488c-1.935,0.195-3.485,0.88-4.652,2.054c-1.167,1.173-1.751,2.679-1.751,4.515
	c0,1.064,0.167,1.982,0.502,2.754c0.346,0.771,0.821,1.445,1.427,2.021c0.616,0.564,1.351,1.07,2.205,1.516
	c0.854,0.435,1.87,0.875,3.047,1.32c1.178,0.445,2.01,0.934,2.497,1.467c0.497,0.521,0.746,1.227,0.746,2.118
	c0,0.858-0.275,1.543-0.827,2.054c-0.551,0.5-1.302,0.75-2.253,0.75C57.089,314.057,56.208,313.715,55.593,313.029z"/>
<path fill="#FFFFFF" d="M29,307h-6v14h6V307z M22,306v16h8v-16H22z"/>
<path fill="#FFFFFF" d="M29,307h-6v14h6V307z M22,306v16h8v-16H22z"/>
<path fill="#FFFFFF" d="M41,291h-6v30h6V291z M34,290v32h8v-32H34z"/>
<path fill="#FFFFFF" d="M41,291h-6v30h6V291z M34,290v32h8v-32H34z"/>
<path fill="#FFFFFF" d="M47,277h6v18.208c0.31-0.269,0.643-0.506,1-0.714V277v-1h-1h-6h-1v1v44v1h1h6h1v-1v-4.007
	c-0.354-0.163-0.688-0.351-1-0.562V321h-6V277z M53,310.047h1v-4.301c-0.361-0.237-0.694-0.489-1-0.754V310.047z"/>
<path fill="#FFFFFF" d="M47,277h6v18.208c0.31-0.269,0.643-0.506,1-0.714V277v-1h-1h-6h-1v1v44v1h1h6h1v-1v-4.007
	c-0.354-0.163-0.688-0.351-1-0.562V321h-6V277z M53,310.047h1v-4.301c-0.361-0.237-0.694-0.489-1-0.754V310.047z"/>
<circle fill="#00DCE6" fill-opacity="0.2" cx="79" cy="146" r="24"/>
<circle fill="#00DCE6" cx="79" cy="146" r="12"/>
<circle fill="#FFFFFF" cx="79" cy="146" r="6"/>
<path fill="#FFFFFF" d="M91.187,157.852C94.166,154.79,96,150.609,96,146c0-9.389-7.611-17-17-17c-4.609,0-8.791,1.834-11.853,4.813
	l0.707,0.707C70.736,131.723,74.667,130,79,130c8.836,0,16,7.163,16,16c0,4.333-1.723,8.264-4.521,11.145L91.187,157.852z"/>
<defs>
	<filter id="Adobe_OpacityMaskFilter_1_" filterUnits="userSpaceOnUse" x="65.724" y="128" width="31.276" height="31.276">
		<feColorMatrix  type="matrix" values="1 0 0 0 0  0 1 0 0 0  0 0 1 0 0  0 0 0 1 0"/>
	</filter>
</defs>
<mask maskUnits="userSpaceOnUse" x="65.724" y="128" width="31.276" height="31.276" id="path-428-inside-2">
	<path fill="#FFFFFF" filter="url(#Adobe_OpacityMaskFilter_1_)" d="M91.187,157.852C94.166,154.79,96,150.609,96,146
		c0-9.389-7.611-17-17-17c-4.609,0-8.791,1.834-11.853,4.813l0.707,0.707C70.736,131.723,74.667,130,79,130c8.836,0,16,7.163,16,16
		c0,4.333-1.723,8.264-4.521,11.145L91.187,157.852z"/>
</mask>
<path mask="url(#path-428-inside-2)" fill="#FFFFFF" d="M91.187,157.852l-0.708,0.708l0.717,0.716l0.707-0.726L91.187,157.852z
	 M67.147,133.813l-0.697-0.717l-0.727,0.707l0.717,0.717L67.147,133.813z M67.854,134.52l-0.707,0.707l0.697,0.697l0.707-0.686
	L67.854,134.52z M90.479,157.145l-0.717-0.696l-0.687,0.707l0.697,0.696L90.479,157.145z M91.904,158.55
	C95.057,155.308,97,150.88,97,146h-2c0,4.339-1.726,8.272-4.53,11.155L91.904,158.55z M97,146c0-9.941-8.059-18-18-18v2
	c8.836,0,16,7.163,16,16H97z M79,128c-4.88,0-9.309,1.943-12.55,5.096l1.395,1.434C70.728,131.726,74.661,130,79,130V128z
	 M66.44,134.52l0.707,0.707l1.414-1.414l-0.707-0.707L66.44,134.52z M68.551,135.238C71.253,132.614,74.937,131,79,131v-2
	c-4.604,0-8.782,1.831-11.842,4.803L68.551,135.238z M79,131c8.284,0,15,6.716,15,15h2c0-9.389-7.611-17-17-17V131z M94,146
	c0,4.063-1.614,7.747-4.238,10.449l1.435,1.393C94.168,154.782,96,150.604,96,146H94z M89.772,157.852l0.707,0.708l1.415-1.415
	l-0.708-0.707L89.772,157.852z"/>
<rect x="23.5" y="160.5" fill="none" stroke="#FFFFFF" width="13" height="5"/>
<rect x="23.5" y="187.5" fill="none" stroke="#FFFFFF" width="13" height="5"/>
<path fill="none" stroke="#FFFFFF" d="M30,166l-0.042,22.005"/>
<path fill="none" stroke="#FFFFFF" d="M60,166l-0.042,22.005"/>
<path fill="none" stroke="#FFFFFF" d="M33,177l25,0.007"/>
<rect x="53.5" y="160.5" fill="none" stroke="#FFFFFF" width="13" height="5"/>
<rect x="53.5" y="187.5" fill="none" stroke="#FFFFFF" width="13" height="5"/>
<circle fill="none" stroke="#FFFFFF" cx="30" cy="177" r="2.5"/>
<circle fill="none" stroke="#FFFFFF" cx="60" cy="177" r="2.5"/>
<path fill="#FFFFFF" stroke="#FFFFFF" stroke-dasharray="2,2" d="M29.313,155h-2.125v-1h2.125V155z M33.563,155h-2.125v-1h2.125V155
	z M59.813,155h-2.125v-1h2.125V155z M64.063,155h-2.125v-1h2.125V155z"/>
<path fill="#FFFFFF" stroke="#FFFFFF" stroke-dasharray="2,2" d="M29.313,200h-2.125v-1h2.125V200z M33.563,200h-2.125v-1h2.125V200
	z M58.813,200h-2.125v-1h2.125V200z M63.063,200h-2.125v-1h2.125V200z"/>
<circle fill="#00DCE6" fill-opacity="0.2" cx="79" cy="22" r="22"/>
<circle fill="#00DCE6" cx="79" cy="22" r="12"/>
<circle fill="#FFFFFF" cx="79" cy="22" r="6"/>
<path fill="#FFFFFF" d="M91.187,33.853C94.166,30.79,96,26.609,96,22c0-9.389-7.611-17-17-17c-4.609,0-8.791,1.834-11.853,4.813
	l0.707,0.708C70.736,7.723,74.667,6,79,6c8.836,0,16,7.164,16,16c0,4.333-1.723,8.264-4.521,11.145L91.187,33.853z"/>
<defs>
	<filter id="Adobe_OpacityMaskFilter_2_" filterUnits="userSpaceOnUse" x="65.724" y="4" width="31.276" height="31.276">
		<feColorMatrix  type="matrix" values="1 0 0 0 0  0 1 0 0 0  0 0 1 0 0  0 0 0 1 0"/>
	</filter>
</defs>
<mask maskUnits="userSpaceOnUse" x="65.724" y="4" width="31.276" height="31.276" id="path-444-inside-3">
	<path fill="#FFFFFF" filter="url(#Adobe_OpacityMaskFilter_2_)" d="M91.187,33.853C94.166,30.79,96,26.609,96,22
		c0-9.389-7.611-17-17-17c-4.609,0-8.791,1.834-11.853,4.813l0.707,0.708C70.736,7.723,74.667,6,79,6c8.836,0,16,7.164,16,16
		c0,4.333-1.723,8.264-4.521,11.145L91.187,33.853z"/>
</mask>
<path mask="url(#path-444-inside-3)" fill="#FFFFFF" d="M91.187,33.853l-0.708,0.707l0.717,0.717l0.707-0.727L91.187,33.853z
	 M67.147,9.813L66.45,9.096l-0.727,0.707l0.717,0.717L67.147,9.813z M67.854,10.521l-0.707,0.707l0.697,0.697l0.707-0.687
	L67.854,10.521z M90.479,33.145l-0.717-0.696l-0.687,0.707l0.697,0.697L90.479,33.145z M91.904,34.55C95.057,31.309,97,26.88,97,22
	h-2c0,4.339-1.726,8.272-4.53,11.155L91.904,34.55z M97,22c0-9.941-8.059-18-18-18v2c8.836,0,16,7.164,16,16H97z M79,4
	c-4.88,0-9.309,1.943-12.55,5.096l1.395,1.434C70.728,7.726,74.661,6,79,6V4z M66.44,10.52l0.707,0.708l1.414-1.415l-0.707-0.707
	L66.44,10.52z M68.551,11.238C71.253,8.614,74.937,7,79,7V5c-4.604,0-8.782,1.831-11.842,4.803L68.551,11.238z M79,7
	c8.284,0,15,6.716,15,15h2c0-9.389-7.611-17-17-17V7z M94,22c0,4.063-1.614,7.747-4.238,10.449l1.435,1.393
	C94.168,30.782,96,26.604,96,22H94z M89.772,33.853l0.707,0.707l1.415-1.414l-0.708-0.708L89.772,33.853z"/>
<rect x="37.5" y="30.5" fill="none" stroke="#FFFFFF" width="15" height="45"/>
<rect x="22.5" y="45.5" fill="none" stroke="#FFFFFF" width="45" height="15"/>
<rect x="65" y="30" fill="#FFFFFF" width="3" height="3"/>
<rect x="22" y="30" fill="#FFFFFF" width="3" height="3"/>
<rect x="22" y="73" fill="#FFFFFF" width="3" height="3"/>
<rect x="22" y="30" fill="#FFFFFF" width="3" height="3"/>
<rect x="65" y="73" fill="#FFFFFF" width="3" height="3"/>
<text transform="matrix(1 0 0 1 116.5 302.5)"><tspan x="0" y="0" font-family="'MicrosoftYaHeiLight'" font-size="12">传感器和</tspan><tspan x="0" y="14.4" font-family="'MicrosoftYaHeiLight'" font-size="12">电子设备</tspan></text>
<text transform="matrix(1 0 0 1 245.5 307.5)"><tspan x="0" y="0" font-family="'MicrosoftYaHeiLight'" font-size="12">- 聚合</tspan><tspan x="0" y="14.4" font-family="'MicrosoftYaHeiLight'" font-size="12">- 处理</tspan><tspan x="0" y="28.8" font-family="'MicrosoftYaHeiLight'" font-size="12">- 分析</tspan></text>
<text transform="matrix(1 0 0 1 377.5 307.5)"><tspan x="0" y="0" font-family="'MicrosoftYaHeiLight'" font-size="12">- 去中心化账本</tspan><tspan x="0" y="14.4" font-family="'MicrosoftYaHeiLight'" font-size="12">- 智能合约</tspan><tspan x="0" y="28.8" font-family="'MicrosoftYaHeiLight'" font-size="12">- 事务透明</tspan></text>
<text transform="matrix(1 0 0 1 237 226.5)"><tspan x="0" y="0" fill="#FFFFFF" font-family="'MicrosoftYaHei-Bold'" font-size="13">物联网</tspan><tspan x="6.5" y="15.6" fill="#FFFFFF" font-family="'MicrosoftYaHei-Bold'" font-size="13">平台</tspan></text>
<text transform="matrix(1 0 0 1 394.5 231.5)" fill="#FFFFFF" font-family="'MicrosoftYaHei-Bold'" font-size="13">区块链</text>
<text transform="matrix(1 0 0 1 550.5 221.5)"><tspan x="0" y="0" fill="#FFFFFF" font-family="'MicrosoftYaHei-Bold'" font-size="12">您的</tspan><tspan x="-12" y="14.4" fill="#FFFFFF" font-family="'MicrosoftYaHei-Bold'" font-size="12">业务网络</tspan></text>
</svg>
