<?xml version="1.0" encoding="utf-8"?>
<!-- Generator: Adobe Illustrator 15.0.0, SVG Export Plug-In . SVG Version: 6.00 Build 0)  -->
<!DOCTYPE svg PUBLIC "-//W3C//DTD SVG 1.1//EN" "http://www.w3.org/Graphics/SVG/1.1/DTD/svg11.dtd">
<svg version="1.1" id="图层_1" xmlns="http://www.w3.org/2000/svg" xmlns:xlink="http://www.w3.org/1999/xlink" x="0px" y="0px"
	 width="724px" height="340px" viewBox="0 0 724 340" enable-background="new 0 0 724 340" xml:space="preserve">
<g opacity="0.9">
	<path fill="#1F2432" d="M362,78c0-39.212-31.788-71-71-71s-71,31.788-71,71v102l71,41l71-41V78z"/>
	<path fill="#1F2432" d="M543,78c0-39.212-31.788-71-71-71s-71,31.788-71,71v102l71,41l71-41V78z"/>
	<path fill="#1F2432" d="M653,7c39.212,0,71,31.788,71,71v102l-71,41l-71-41V78C582,38.788,613.788,7,653,7z"/>
</g>
<path fill="#1F2432" d="M362,180c0,39.212-31.788,71-71,71s-71-31.788-71-71s31.788-71,71-71S362,140.788,362,180z"/>
<path fill="#1F2432" d="M543,180c0,39.212-31.788,71-71,71s-71-31.788-71-71s31.788-71,71-71S543,140.788,543,180z"/>
<path fill="#1F2432" d="M653,251c39.212,0,71-31.788,71-71s-31.788-71-71-71s-71,31.788-71,71S613.788,251,653,251z"/>
<path fill="#1F2432" d="M50,107c27.614,0,50-22.386,50-50S77.614,7,50,7S0,29.386,0,57S22.386,107,50,107z"/>
<path fill="#1F2432" d="M100,174c0,27.614-22.386,50-50,50S0,201.614,0,174s22.386-50,50-50S100,146.386,100,174z"/>
<path fill="#1F2432" d="M100,290c0,27.614-22.386,50-50,50S0,317.614,0,290s22.386-50,50-50S100,262.386,100,290z"/>
<path fill="none" stroke="#00DCE6" d="M82,27h100v231H82"/>
<path fill="none" stroke="#00DCE6" d="M632.176,120.39V97.529l21.178-13.214l21.176,13.214v22.861"/>
<path fill="none" stroke="#00DCE6" d="M632.176,120.429l21.176,13.449l21.178-13.449l-21.178-13.215L632.176,120.429z"/>
<path fill="none" stroke="#00DCE6" d="M674.529,97.49l-21.178,13.332L632.176,97.49"/>
<path fill="none" stroke="#00DCE6" d="M653.352,84.315v22.899"/>
<path fill="none" stroke="#00DCE6" d="M653.352,110.979v22.9"/>
<path fill="none" stroke="#00DCE6" d="M632.176,75.075v-22.86L653.354,39l21.176,13.214v22.86"/>
<path fill="none" stroke="#00DCE6" d="M632.176,75.114l21.176,13.45l21.178-13.45l-21.178-13.214L632.176,75.114z"/>
<path fill="none" stroke="#00DCE6" d="M674.529,52.175l-21.178,13.332l-21.176-13.332"/>
<path fill="none" stroke="#00DCE6" d="M653.352,39v22.899"/>
<path fill="none" stroke="#00DCE6" d="M653.352,65.664v22.899"/>
<path fill="none" stroke="#00DCE6" d="M599,98.44V75.58l21.176-13.214l21.178,13.214v22.86"/>
<path fill="none" stroke="#00DCE6" d="M599,98.479l21.176,13.45l21.178-13.45l-21.178-13.214L599,98.479z"/>
<path fill="none" stroke="#00DCE6" d="M641.354,75.541l-21.178,13.332L599,75.541"/>
<path fill="none" stroke="#00DCE6" d="M620.176,62.366v22.899"/>
<path fill="none" stroke="#00DCE6" d="M620.176,89.029v22.9"/>
<path fill="none" stroke="#00DCE6" d="M664.646,98.44V75.58l21.178-13.214L707,75.58v22.86"/>
<path fill="none" stroke="#00DCE6" d="M664.646,98.479l21.177,13.45L707,98.479l-21.177-13.214L664.646,98.479z"/>
<path fill="none" stroke="#00DCE6" d="M707,75.541l-21.177,13.332l-21.177-13.332"/>
<path fill="none" stroke="#00DCE6" d="M685.823,62.366v22.899"/>
<path fill="none" stroke="#00DCE6" d="M685.823,89.029v22.9"/>
<path fill="none" stroke="#00DCE6" d="M433,107.418V64.062L472,39l39,25.062v43.356"/>
<path fill="none" stroke="#00DCE6" d="M433,107.492L472,133l39-25.508L472,82.43L433,107.492z"/>
<path fill="none" stroke="#00DCE6" d="M511,63.987l-39,25.285l-39-25.285"/>
<path fill="none" stroke="#00DCE6" d="M472,39v43.431"/>
<path fill="none" stroke="#00DCE6" d="M472,89.57V133"/>
<path fill="none" stroke="#00DCE6" d="M252,107.418V64.062L291,39l39,25.062v43.356"/>
<path fill="none" stroke="#00DCE6" d="M252,107.492L291,133l39-25.508L291,82.43L252,107.492z"/>
<path fill="none" stroke="#00DCE6" d="M330,63.987l-39,25.285l-39-25.285"/>
<path fill="none" stroke="#00DCE6" d="M291,39v43.431"/>
<path fill="none" stroke="#00DCE6" d="M291,89.57V133"/>
<path fill="#00DCE6" d="M142.625,255.186c0-0.449-0.364-0.813-0.813-0.813c-0.448,0-0.812,0.364-0.812,0.813
	s0.364,0.814,0.812,0.814C142.261,256,142.625,255.635,142.625,255.186z"/>
<path fill="#00DCE6" d="M142.625,250.436c0-0.449-0.364-0.813-0.813-0.813c-0.448,0-0.812,0.364-0.812,0.813
	c0,0.45,0.364,0.814,0.812,0.814C142.261,251.25,142.625,250.886,142.625,250.436z"/>
<path fill="#00DCE6" d="M142.625,245.823c0-0.45-0.364-0.815-0.813-0.815c-0.448,0-0.812,0.365-0.812,0.815
	c0,0.448,0.364,0.813,0.812,0.813C142.261,246.637,142.625,246.271,142.625,245.823z"/>
<path fill="#00DCE6" d="M142.625,241.073c0-0.45-0.364-0.814-0.813-0.814c-0.448,0-0.812,0.364-0.812,0.814s0.364,0.813,0.812,0.813
	C142.261,241.887,142.625,241.523,142.625,241.073z"/>
<path fill="#00DCE6" d="M142.625,236.459c0-0.449-0.364-0.814-0.813-0.814c-0.448,0-0.812,0.365-0.812,0.814
	c0,0.45,0.364,0.814,0.812,0.814C142.261,237.273,142.625,236.909,142.625,236.459z"/>
<path fill="#00DCE6" d="M142.625,231.71c0-0.45-0.364-0.813-0.813-0.813c-0.448,0-0.812,0.363-0.812,0.813
	c0,0.449,0.364,0.813,0.812,0.813C142.261,232.523,142.625,232.159,142.625,231.71z"/>
<path fill="#00DCE6" d="M142.625,226.96c0-0.449-0.364-0.813-0.813-0.813c-0.448,0-0.812,0.364-0.812,0.813
	c0,0.45,0.364,0.813,0.812,0.813C142.261,227.773,142.625,227.41,142.625,226.96z"/>
<path fill="#00DCE6" d="M142.625,222.346c0-0.449-0.364-0.813-0.813-0.813c-0.448,0-0.812,0.364-0.812,0.813
	c0,0.45,0.364,0.814,0.812,0.814C142.261,223.16,142.625,222.796,142.625,222.346z"/>
<path fill="#00DCE6" d="M142.625,217.596c0-0.449-0.364-0.813-0.813-0.813c-0.448,0-0.812,0.364-0.812,0.813
	c0,0.45,0.364,0.815,0.812,0.815C142.261,218.411,142.625,218.046,142.625,217.596z"/>
<path fill="#00DCE6" d="M142.625,212.982c0-0.449-0.364-0.814-0.813-0.814c-0.448,0-0.812,0.365-0.812,0.814
	s0.364,0.814,0.812,0.814C142.261,213.797,142.625,213.432,142.625,212.982z"/>
<path fill="#00DCE6" d="M142.625,208.232c0-0.449-0.364-0.813-0.813-0.813c-0.448,0-0.812,0.364-0.812,0.813
	c0,0.451,0.364,0.814,0.812,0.814C142.261,209.047,142.625,208.684,142.625,208.232z"/>
<path fill="#00DCE6" d="M142.625,203.619c0-0.449-0.364-0.814-0.813-0.814c-0.448,0-0.812,0.365-0.812,0.814
	s0.364,0.814,0.812,0.814C142.261,204.434,142.625,204.068,142.625,203.619z"/>
<path fill="#00DCE6" d="M147.228,255.186c0-0.449-0.364-0.813-0.812-0.813c-0.449,0-0.813,0.364-0.813,0.813
	s0.364,0.814,0.813,0.814C146.864,256,147.228,255.635,147.228,255.186z"/>
<path fill="#00DCE6" d="M147.228,250.436c0-0.449-0.364-0.813-0.812-0.813c-0.449,0-0.813,0.364-0.813,0.813
	c0,0.45,0.364,0.814,0.813,0.814C146.864,251.25,147.228,250.886,147.228,250.436z"/>
<path fill="#00DCE6" d="M147.228,245.823c0-0.45-0.364-0.815-0.812-0.815c-0.449,0-0.813,0.365-0.813,0.815
	c0,0.448,0.364,0.813,0.813,0.813C146.864,246.637,147.228,246.271,147.228,245.823z"/>
<path fill="#00DCE6" d="M147.228,241.073c0-0.45-0.364-0.814-0.812-0.814c-0.449,0-0.813,0.364-0.813,0.814s0.364,0.813,0.813,0.813
	C146.864,241.887,147.228,241.523,147.228,241.073z"/>
<path fill="#00DCE6" d="M147.228,236.459c0-0.449-0.364-0.814-0.812-0.814c-0.449,0-0.813,0.365-0.813,0.814
	c0,0.45,0.364,0.814,0.813,0.814C146.864,237.273,147.228,236.909,147.228,236.459z"/>
<path fill="#00DCE6" d="M147.228,231.71c0-0.45-0.364-0.813-0.812-0.813c-0.449,0-0.813,0.363-0.813,0.813
	c0,0.449,0.364,0.813,0.813,0.813C146.864,232.523,147.228,232.159,147.228,231.71z"/>
<path fill="#00DCE6" d="M147.228,226.96c0-0.449-0.364-0.813-0.812-0.813c-0.449,0-0.813,0.364-0.813,0.813
	c0,0.45,0.364,0.813,0.813,0.813C146.864,227.773,147.228,227.41,147.228,226.96z"/>
<path fill="#00DCE6" d="M147.228,222.346c0-0.449-0.364-0.813-0.812-0.813c-0.449,0-0.813,0.364-0.813,0.813
	c0,0.45,0.364,0.814,0.813,0.814C146.864,223.16,147.228,222.796,147.228,222.346z"/>
<path fill="#00DCE6" d="M147.228,217.596c0-0.449-0.364-0.813-0.812-0.813c-0.449,0-0.813,0.364-0.813,0.813
	c0,0.45,0.364,0.815,0.813,0.815C146.864,218.411,147.228,218.046,147.228,217.596z"/>
<path fill="#00DCE6" d="M147.228,212.982c0-0.449-0.364-0.814-0.812-0.814c-0.449,0-0.813,0.365-0.813,0.814
	s0.364,0.814,0.813,0.814C146.864,213.797,147.228,213.432,147.228,212.982z"/>
<path fill="#00DCE6" d="M147.228,208.232c0-0.449-0.364-0.813-0.812-0.813c-0.449,0-0.813,0.364-0.813,0.813
	c0,0.451,0.364,0.814,0.813,0.814C146.864,209.047,147.228,208.684,147.228,208.232z"/>
<path fill="#00DCE6" d="M147.228,203.619c0-0.449-0.364-0.814-0.812-0.814c-0.449,0-0.813,0.365-0.813,0.814
	s0.364,0.814,0.813,0.814C146.864,204.434,147.228,204.068,147.228,203.619z"/>
<path fill="#00DCE6" d="M151.969,255.186c0-0.449-0.364-0.813-0.813-0.813c-0.448,0-0.813,0.364-0.813,0.813
	s0.364,0.814,0.813,0.814C151.605,256,151.969,255.635,151.969,255.186z"/>
<path fill="#00DCE6" d="M151.969,250.436c0-0.449-0.364-0.813-0.813-0.813c-0.448,0-0.813,0.364-0.813,0.813
	c0,0.45,0.364,0.814,0.813,0.814C151.605,251.25,151.969,250.886,151.969,250.436z"/>
<path fill="#00DCE6" d="M151.969,245.823c0-0.45-0.364-0.815-0.813-0.815c-0.448,0-0.813,0.365-0.813,0.815
	c0,0.448,0.364,0.813,0.813,0.813C151.605,246.637,151.969,246.271,151.969,245.823z"/>
<path fill="#00DCE6" d="M151.969,241.073c0-0.45-0.364-0.814-0.813-0.814c-0.448,0-0.813,0.364-0.813,0.814s0.364,0.813,0.813,0.813
	C151.605,241.887,151.969,241.523,151.969,241.073z"/>
<path fill="#00DCE6" d="M151.969,236.459c0-0.449-0.364-0.814-0.813-0.814c-0.448,0-0.813,0.365-0.813,0.814
	c0,0.45,0.364,0.814,0.813,0.814C151.605,237.273,151.969,236.909,151.969,236.459z"/>
<path fill="#00DCE6" d="M151.969,231.71c0-0.45-0.364-0.813-0.813-0.813c-0.448,0-0.813,0.363-0.813,0.813
	c0,0.449,0.364,0.813,0.813,0.813C151.605,232.523,151.969,232.159,151.969,231.71z"/>
<path fill="#00DCE6" d="M151.969,226.96c0-0.449-0.364-0.813-0.813-0.813c-0.448,0-0.813,0.364-0.813,0.813
	c0,0.45,0.364,0.813,0.813,0.813C151.605,227.773,151.969,227.41,151.969,226.96z"/>
<path fill="#00DCE6" d="M151.969,222.346c0-0.449-0.364-0.813-0.813-0.813c-0.448,0-0.813,0.364-0.813,0.813
	c0,0.45,0.364,0.814,0.813,0.814C151.605,223.16,151.969,222.796,151.969,222.346z"/>
<path fill="#00DCE6" d="M151.969,217.596c0-0.449-0.364-0.813-0.813-0.813c-0.448,0-0.813,0.364-0.813,0.813
	c0,0.45,0.364,0.815,0.813,0.815C151.605,218.411,151.969,218.046,151.969,217.596z"/>
<path fill="#00DCE6" d="M151.969,212.982c0-0.449-0.364-0.814-0.813-0.814c-0.448,0-0.813,0.365-0.813,0.814
	s0.364,0.814,0.813,0.814C151.605,213.797,151.969,213.432,151.969,212.982z"/>
<path fill="#00DCE6" d="M151.969,208.232c0-0.449-0.364-0.813-0.813-0.813c-0.448,0-0.813,0.364-0.813,0.813
	c0,0.451,0.364,0.814,0.813,0.814C151.605,209.047,151.969,208.684,151.969,208.232z"/>
<path fill="#00DCE6" d="M151.969,203.619c0-0.449-0.364-0.814-0.813-0.814c-0.448,0-0.813,0.365-0.813,0.814
	s0.364,0.814,0.813,0.814C151.605,204.434,151.969,204.068,151.969,203.619z"/>
<path fill="#00DCE6" d="M156.708,255.186c0-0.449-0.363-0.813-0.812-0.813s-0.813,0.364-0.813,0.813s0.364,0.814,0.813,0.814
	S156.708,255.635,156.708,255.186z"/>
<path fill="#00DCE6" d="M156.708,250.436c0-0.449-0.363-0.813-0.812-0.813s-0.813,0.364-0.813,0.813c0,0.45,0.364,0.814,0.813,0.814
	S156.708,250.886,156.708,250.436z"/>
<path fill="#00DCE6" d="M156.708,245.823c0-0.45-0.363-0.815-0.812-0.815s-0.813,0.365-0.813,0.815c0,0.448,0.364,0.813,0.813,0.813
	S156.708,246.271,156.708,245.823z"/>
<path fill="#00DCE6" d="M156.708,241.073c0-0.45-0.363-0.814-0.812-0.814s-0.813,0.364-0.813,0.814s0.364,0.813,0.813,0.813
	S156.708,241.523,156.708,241.073z"/>
<path fill="#00DCE6" d="M156.708,236.459c0-0.449-0.363-0.814-0.812-0.814s-0.813,0.365-0.813,0.814c0,0.45,0.364,0.814,0.813,0.814
	S156.708,236.909,156.708,236.459z"/>
<path fill="#00DCE6" d="M156.708,231.71c0-0.45-0.363-0.813-0.812-0.813s-0.813,0.363-0.813,0.813c0,0.449,0.364,0.813,0.813,0.813
	S156.708,232.159,156.708,231.71z"/>
<path fill="#00DCE6" d="M156.708,226.96c0-0.449-0.363-0.813-0.812-0.813s-0.813,0.364-0.813,0.813c0,0.45,0.364,0.813,0.813,0.813
	S156.708,227.41,156.708,226.96z"/>
<path fill="#00DCE6" d="M156.708,222.346c0-0.449-0.363-0.813-0.812-0.813s-0.813,0.364-0.813,0.813c0,0.45,0.364,0.814,0.813,0.814
	S156.708,222.796,156.708,222.346z"/>
<path fill="#00DCE6" d="M156.708,217.596c0-0.449-0.363-0.813-0.812-0.813s-0.813,0.364-0.813,0.813c0,0.45,0.364,0.815,0.813,0.815
	S156.708,218.046,156.708,217.596z"/>
<path fill="#00DCE6" d="M156.708,212.982c0-0.449-0.363-0.814-0.812-0.814s-0.813,0.365-0.813,0.814s0.364,0.814,0.813,0.814
	S156.708,213.432,156.708,212.982z"/>
<path fill="#00DCE6" d="M156.708,208.232c0-0.449-0.363-0.813-0.812-0.813s-0.813,0.364-0.813,0.813
	c0,0.451,0.364,0.814,0.813,0.814S156.708,208.684,156.708,208.232z"/>
<path fill="#00DCE6" d="M156.708,203.619c0-0.449-0.363-0.814-0.812-0.814s-0.813,0.365-0.813,0.814s0.364,0.814,0.813,0.814
	S156.708,204.068,156.708,203.619z"/>
<path fill="#00DCE6" d="M161.312,255.186c0-0.449-0.364-0.813-0.812-0.813c-0.449,0-0.813,0.364-0.813,0.813S160.051,256,160.5,256
	C160.948,256,161.312,255.635,161.312,255.186z"/>
<path fill="#00DCE6" d="M161.312,250.436c0-0.449-0.364-0.813-0.812-0.813c-0.449,0-0.813,0.364-0.813,0.813
	c0,0.45,0.364,0.814,0.813,0.814C160.948,251.25,161.312,250.886,161.312,250.436z"/>
<path fill="#00DCE6" d="M161.312,245.823c0-0.45-0.364-0.815-0.812-0.815c-0.449,0-0.813,0.365-0.813,0.815
	c0,0.448,0.364,0.813,0.813,0.813C160.948,246.637,161.312,246.271,161.312,245.823z"/>
<path fill="#00DCE6" d="M161.312,241.073c0-0.45-0.364-0.814-0.812-0.814c-0.449,0-0.813,0.364-0.813,0.814s0.364,0.813,0.813,0.813
	C160.948,241.887,161.312,241.523,161.312,241.073z"/>
<path fill="#00DCE6" d="M161.312,236.459c0-0.449-0.364-0.814-0.812-0.814c-0.449,0-0.813,0.365-0.813,0.814
	c0,0.45,0.364,0.814,0.813,0.814C160.948,237.273,161.312,236.909,161.312,236.459z"/>
<path fill="#00DCE6" d="M161.312,231.71c0-0.45-0.364-0.813-0.812-0.813c-0.449,0-0.813,0.363-0.813,0.813
	c0,0.449,0.364,0.813,0.813,0.813C160.948,232.523,161.312,232.159,161.312,231.71z"/>
<path fill="#00DCE6" d="M161.312,226.96c0-0.449-0.364-0.813-0.812-0.813c-0.449,0-0.813,0.364-0.813,0.813
	c0,0.45,0.364,0.813,0.813,0.813C160.948,227.773,161.312,227.41,161.312,226.96z"/>
<path fill="#00DCE6" d="M161.312,222.346c0-0.449-0.364-0.813-0.812-0.813c-0.449,0-0.813,0.364-0.813,0.813
	c0,0.45,0.364,0.814,0.813,0.814C160.948,223.16,161.312,222.796,161.312,222.346z"/>
<path fill="#00DCE6" d="M161.312,217.596c0-0.449-0.364-0.813-0.812-0.813c-0.449,0-0.813,0.364-0.813,0.813
	c0,0.45,0.364,0.815,0.813,0.815C160.948,218.411,161.312,218.046,161.312,217.596z"/>
<path fill="#00DCE6" d="M161.312,212.982c0-0.449-0.364-0.814-0.812-0.814c-0.449,0-0.813,0.365-0.813,0.814
	s0.364,0.814,0.813,0.814C160.948,213.797,161.312,213.432,161.312,212.982z"/>
<path fill="#00DCE6" d="M161.312,208.232c0-0.449-0.364-0.813-0.812-0.813c-0.449,0-0.813,0.364-0.813,0.813
	c0,0.451,0.364,0.814,0.813,0.814C160.948,209.047,161.312,208.684,161.312,208.232z"/>
<path fill="#00DCE6" d="M161.312,203.619c0-0.449-0.364-0.814-0.812-0.814c-0.449,0-0.813,0.365-0.813,0.814
	s0.364,0.814,0.813,0.814C160.948,204.434,161.312,204.068,161.312,203.619z"/>
<path fill="#00DCE6" d="M166.052,255.186c0-0.449-0.364-0.813-0.813-0.813c-0.448,0-0.812,0.364-0.812,0.813
	s0.364,0.814,0.812,0.814C165.688,256,166.052,255.635,166.052,255.186z"/>
<path fill="#00DCE6" d="M166.052,250.436c0-0.449-0.364-0.813-0.813-0.813c-0.448,0-0.812,0.364-0.812,0.813
	c0,0.45,0.364,0.814,0.812,0.814C165.688,251.25,166.052,250.886,166.052,250.436z"/>
<path fill="#00DCE6" d="M166.052,245.823c0-0.45-0.364-0.815-0.813-0.815c-0.448,0-0.812,0.365-0.812,0.815
	c0,0.448,0.364,0.813,0.812,0.813C165.688,246.637,166.052,246.271,166.052,245.823z"/>
<path fill="#00DCE6" d="M166.052,241.073c0-0.45-0.364-0.814-0.813-0.814c-0.448,0-0.812,0.364-0.812,0.814s0.364,0.813,0.812,0.813
	C165.688,241.887,166.052,241.523,166.052,241.073z"/>
<path fill="#00DCE6" d="M166.052,236.459c0-0.449-0.364-0.814-0.813-0.814c-0.448,0-0.812,0.365-0.812,0.814
	c0,0.45,0.364,0.814,0.812,0.814C165.688,237.273,166.052,236.909,166.052,236.459z"/>
<path fill="#00DCE6" d="M166.052,231.71c0-0.45-0.364-0.813-0.813-0.813c-0.448,0-0.812,0.363-0.812,0.813
	c0,0.449,0.364,0.813,0.812,0.813C165.688,232.523,166.052,232.159,166.052,231.71z"/>
<path fill="#00DCE6" d="M166.052,226.96c0-0.449-0.364-0.813-0.813-0.813c-0.448,0-0.812,0.364-0.812,0.813
	c0,0.45,0.364,0.813,0.812,0.813C165.688,227.773,166.052,227.41,166.052,226.96z"/>
<path fill="#00DCE6" d="M166.052,222.346c0-0.449-0.364-0.813-0.813-0.813c-0.448,0-0.812,0.364-0.812,0.813
	c0,0.45,0.364,0.814,0.812,0.814C165.688,223.16,166.052,222.796,166.052,222.346z"/>
<path fill="#00DCE6" d="M166.052,217.596c0-0.449-0.364-0.813-0.813-0.813c-0.448,0-0.812,0.364-0.812,0.813
	c0,0.45,0.364,0.815,0.812,0.815C165.688,218.411,166.052,218.046,166.052,217.596z"/>
<path fill="#00DCE6" d="M166.052,212.982c0-0.449-0.364-0.814-0.813-0.814c-0.448,0-0.812,0.365-0.812,0.814
	s0.364,0.814,0.812,0.814C165.688,213.797,166.052,213.432,166.052,212.982z"/>
<path fill="#00DCE6" d="M166.052,208.232c0-0.449-0.364-0.813-0.813-0.813c-0.448,0-0.812,0.364-0.812,0.813
	c0,0.451,0.364,0.814,0.812,0.814C165.688,209.047,166.052,208.684,166.052,208.232z"/>
<path fill="#00DCE6" d="M166.052,203.619c0-0.449-0.364-0.814-0.813-0.814c-0.448,0-0.812,0.365-0.812,0.814
	s0.364,0.814,0.812,0.814C165.688,204.434,166.052,204.068,166.052,203.619z"/>
<path fill="#00DCE6" d="M170.656,255.186c0-0.449-0.364-0.813-0.813-0.813c-0.449,0-0.813,0.364-0.813,0.813
	s0.364,0.814,0.813,0.814C170.292,256,170.656,255.635,170.656,255.186z"/>
<path fill="#00DCE6" d="M170.656,250.436c0-0.449-0.364-0.813-0.813-0.813c-0.449,0-0.813,0.364-0.813,0.813
	c0,0.45,0.364,0.814,0.813,0.814C170.292,251.25,170.656,250.886,170.656,250.436z"/>
<path fill="#00DCE6" d="M170.656,245.823c0-0.45-0.364-0.815-0.813-0.815c-0.449,0-0.813,0.365-0.813,0.815
	c0,0.448,0.364,0.813,0.813,0.813C170.292,246.637,170.656,246.271,170.656,245.823z"/>
<path fill="#00DCE6" d="M170.656,241.073c0-0.45-0.364-0.814-0.813-0.814c-0.449,0-0.813,0.364-0.813,0.814s0.364,0.813,0.813,0.813
	C170.292,241.887,170.656,241.523,170.656,241.073z"/>
<path fill="#00DCE6" d="M170.656,236.459c0-0.449-0.364-0.814-0.813-0.814c-0.449,0-0.813,0.365-0.813,0.814
	c0,0.45,0.364,0.814,0.813,0.814C170.292,237.273,170.656,236.909,170.656,236.459z"/>
<path fill="#00DCE6" d="M170.656,231.71c0-0.45-0.364-0.813-0.813-0.813c-0.449,0-0.813,0.363-0.813,0.813
	c0,0.449,0.364,0.813,0.813,0.813C170.292,232.523,170.656,232.159,170.656,231.71z"/>
<path fill="#00DCE6" d="M170.656,226.96c0-0.449-0.364-0.813-0.813-0.813c-0.449,0-0.813,0.364-0.813,0.813
	c0,0.45,0.364,0.813,0.813,0.813C170.292,227.773,170.656,227.41,170.656,226.96z"/>
<path fill="#00DCE6" d="M170.656,222.346c0-0.449-0.364-0.813-0.813-0.813c-0.449,0-0.813,0.364-0.813,0.813
	c0,0.45,0.364,0.814,0.813,0.814C170.292,223.16,170.656,222.796,170.656,222.346z"/>
<path fill="#00DCE6" d="M170.656,217.596c0-0.449-0.364-0.813-0.813-0.813c-0.449,0-0.813,0.364-0.813,0.813
	c0,0.45,0.364,0.815,0.813,0.815C170.292,218.411,170.656,218.046,170.656,217.596z"/>
<path fill="#00DCE6" d="M170.656,212.982c0-0.449-0.364-0.814-0.813-0.814c-0.449,0-0.813,0.365-0.813,0.814
	s0.364,0.814,0.813,0.814C170.292,213.797,170.656,213.432,170.656,212.982z"/>
<path fill="#00DCE6" d="M170.656,208.232c0-0.449-0.364-0.813-0.813-0.813c-0.449,0-0.813,0.364-0.813,0.813
	c0,0.451,0.364,0.814,0.813,0.814C170.292,209.047,170.656,208.684,170.656,208.232z"/>
<path fill="#00DCE6" d="M170.656,203.619c0-0.449-0.364-0.814-0.813-0.814c-0.449,0-0.813,0.365-0.813,0.814
	s0.364,0.814,0.813,0.814C170.292,204.434,170.656,204.068,170.656,203.619z"/>
<path fill="#00DCE6" d="M175.396,255.186c0-0.449-0.364-0.813-0.813-0.813c-0.448,0-0.812,0.364-0.812,0.813
	s0.364,0.814,0.812,0.814C175.032,256,175.396,255.635,175.396,255.186z"/>
<path fill="#00DCE6" d="M175.396,250.436c0-0.449-0.364-0.813-0.813-0.813c-0.448,0-0.812,0.364-0.812,0.813
	c0,0.45,0.364,0.814,0.812,0.814C175.032,251.25,175.396,250.886,175.396,250.436z"/>
<path fill="#00DCE6" d="M175.396,245.823c0-0.45-0.364-0.815-0.813-0.815c-0.448,0-0.812,0.365-0.812,0.815
	c0,0.448,0.364,0.813,0.812,0.813C175.032,246.637,175.396,246.271,175.396,245.823z"/>
<path fill="#00DCE6" d="M175.396,241.073c0-0.45-0.364-0.814-0.813-0.814c-0.448,0-0.812,0.364-0.812,0.814s0.364,0.813,0.812,0.813
	C175.032,241.887,175.396,241.523,175.396,241.073z"/>
<path fill="#00DCE6" d="M175.396,236.459c0-0.449-0.364-0.814-0.813-0.814c-0.448,0-0.812,0.365-0.812,0.814
	c0,0.45,0.364,0.814,0.812,0.814C175.032,237.273,175.396,236.909,175.396,236.459z"/>
<path fill="#00DCE6" d="M175.396,231.71c0-0.45-0.364-0.813-0.813-0.813c-0.448,0-0.812,0.363-0.812,0.813
	c0,0.449,0.364,0.813,0.812,0.813C175.032,232.523,175.396,232.159,175.396,231.71z"/>
<path fill="#00DCE6" d="M175.396,226.96c0-0.449-0.364-0.813-0.813-0.813c-0.448,0-0.812,0.364-0.812,0.813
	c0,0.45,0.364,0.813,0.812,0.813C175.032,227.773,175.396,227.41,175.396,226.96z"/>
<path fill="#00DCE6" d="M175.396,222.346c0-0.449-0.364-0.813-0.813-0.813c-0.448,0-0.812,0.364-0.812,0.813
	c0,0.45,0.364,0.814,0.812,0.814C175.032,223.16,175.396,222.796,175.396,222.346z"/>
<path fill="#00DCE6" d="M175.396,217.596c0-0.449-0.364-0.813-0.813-0.813c-0.448,0-0.812,0.364-0.812,0.813
	c0,0.45,0.364,0.815,0.812,0.815C175.032,218.411,175.396,218.046,175.396,217.596z"/>
<path fill="#00DCE6" d="M175.396,212.982c0-0.449-0.364-0.814-0.813-0.814c-0.448,0-0.812,0.365-0.812,0.814
	s0.364,0.814,0.812,0.814C175.032,213.797,175.396,213.432,175.396,212.982z"/>
<path fill="#00DCE6" d="M175.396,208.232c0-0.449-0.364-0.813-0.813-0.813c-0.448,0-0.812,0.364-0.812,0.813
	c0,0.451,0.364,0.814,0.812,0.814C175.032,209.047,175.396,208.684,175.396,208.232z"/>
<path fill="#00DCE6" d="M175.396,203.619c0-0.449-0.364-0.814-0.813-0.814c-0.448,0-0.812,0.365-0.812,0.814
	s0.364,0.814,0.812,0.814C175.032,204.434,175.396,204.068,175.396,203.619z"/>
<path fill="#00DCE6" d="M180,255.186c0-0.449-0.364-0.813-0.813-0.813c-0.448,0-0.812,0.364-0.812,0.813s0.364,0.814,0.812,0.814
	C179.636,256,180,255.635,180,255.186z"/>
<path fill="#00DCE6" d="M180,250.436c0-0.449-0.364-0.813-0.813-0.813c-0.448,0-0.812,0.364-0.812,0.813
	c0,0.45,0.364,0.814,0.812,0.814C179.636,251.25,180,250.886,180,250.436z"/>
<path fill="#00DCE6" d="M180,245.823c0-0.45-0.364-0.815-0.813-0.815c-0.448,0-0.812,0.365-0.812,0.815
	c0,0.448,0.364,0.813,0.812,0.813C179.636,246.637,180,246.271,180,245.823z"/>
<path fill="#00DCE6" d="M180,241.073c0-0.45-0.364-0.814-0.813-0.814c-0.448,0-0.812,0.364-0.812,0.814s0.364,0.813,0.812,0.813
	C179.636,241.887,180,241.523,180,241.073z"/>
<path fill="#00DCE6" d="M180,236.459c0-0.449-0.364-0.814-0.813-0.814c-0.448,0-0.812,0.365-0.812,0.814
	c0,0.45,0.364,0.814,0.812,0.814C179.636,237.273,180,236.909,180,236.459z"/>
<path fill="#00DCE6" d="M180,231.71c0-0.45-0.364-0.813-0.813-0.813c-0.448,0-0.812,0.363-0.812,0.813
	c0,0.449,0.364,0.813,0.812,0.813C179.636,232.523,180,232.159,180,231.71z"/>
<path fill="#00DCE6" d="M180,226.96c0-0.449-0.364-0.813-0.813-0.813c-0.448,0-0.812,0.364-0.812,0.813
	c0,0.45,0.364,0.813,0.812,0.813C179.636,227.773,180,227.41,180,226.96z"/>
<path fill="#00DCE6" d="M180,222.346c0-0.449-0.364-0.813-0.813-0.813c-0.448,0-0.812,0.364-0.812,0.813
	c0,0.45,0.364,0.814,0.812,0.814C179.636,223.16,180,222.796,180,222.346z"/>
<path fill="#00DCE6" d="M180,217.596c0-0.449-0.364-0.813-0.813-0.813c-0.448,0-0.812,0.364-0.812,0.813
	c0,0.45,0.364,0.815,0.812,0.815C179.636,218.411,180,218.046,180,217.596z"/>
<path fill="#00DCE6" d="M180,212.982c0-0.449-0.364-0.814-0.813-0.814c-0.448,0-0.812,0.365-0.812,0.814s0.364,0.814,0.812,0.814
	C179.636,213.797,180,213.432,180,212.982z"/>
<path fill="#00DCE6" d="M180,208.232c0-0.449-0.364-0.813-0.813-0.813c-0.448,0-0.812,0.364-0.812,0.813
	c0,0.451,0.364,0.814,0.812,0.814C179.636,209.047,180,208.684,180,208.232z"/>
<path fill="#00DCE6" d="M180,203.619c0-0.449-0.364-0.814-0.813-0.814c-0.448,0-0.812,0.365-0.812,0.814s0.364,0.814,0.812,0.814
	C179.636,204.434,180,204.068,180,203.619z"/>
<path fill="#00DCE6" d="M142.625,198.87c0-0.45-0.364-0.813-0.813-0.813c-0.448,0-0.812,0.363-0.812,0.813s0.364,0.813,0.812,0.813
	C142.261,199.684,142.625,199.32,142.625,198.87z"/>
<path fill="#00DCE6" d="M142.625,194.256c0-0.449-0.364-0.814-0.813-0.814c-0.448,0-0.812,0.365-0.812,0.814
	c0,0.45,0.364,0.814,0.812,0.814C142.261,195.07,142.625,194.706,142.625,194.256z"/>
<path fill="#00DCE6" d="M142.625,189.507c0-0.45-0.364-0.815-0.813-0.815c-0.448,0-0.812,0.365-0.812,0.815
	c0,0.449,0.364,0.813,0.812,0.813C142.261,190.32,142.625,189.956,142.625,189.507z"/>
<path fill="#00DCE6" d="M142.625,184.893c0-0.449-0.364-0.813-0.813-0.813c-0.448,0-0.812,0.364-0.812,0.813
	s0.364,0.814,0.812,0.814C142.261,185.707,142.625,185.342,142.625,184.893z"/>
<path fill="#00DCE6" d="M142.625,180.143c0-0.449-0.364-0.813-0.813-0.813c-0.448,0-0.812,0.364-0.812,0.813
	c0,0.45,0.364,0.815,0.812,0.815C142.261,180.958,142.625,180.593,142.625,180.143z"/>
<path fill="#00DCE6" d="M142.625,175.53c0-0.45-0.364-0.815-0.813-0.815c-0.448,0-0.812,0.365-0.812,0.815
	c0,0.448,0.364,0.813,0.812,0.813C142.261,176.344,142.625,175.979,142.625,175.53z"/>
<path fill="#00DCE6" d="M142.625,170.78c0-0.45-0.364-0.815-0.813-0.815c-0.448,0-0.812,0.365-0.812,0.815
	c0,0.448,0.364,0.813,0.812,0.813C142.261,171.594,142.625,171.229,142.625,170.78z"/>
<path fill="#00DCE6" d="M142.625,166.166c0-0.45-0.364-0.814-0.813-0.814c-0.448,0-0.812,0.364-0.812,0.814
	c0,0.449,0.364,0.814,0.812,0.814C142.261,166.98,142.625,166.615,142.625,166.166z"/>
<path fill="#00DCE6" d="M142.625,161.416c0-0.449-0.364-0.814-0.813-0.814c-0.448,0-0.812,0.365-0.812,0.814
	c0,0.45,0.364,0.814,0.812,0.814C142.261,162.23,142.625,161.866,142.625,161.416z"/>
<path fill="#00DCE6" d="M142.625,156.667c0-0.45-0.364-0.814-0.813-0.814c-0.448,0-0.812,0.364-0.812,0.814
	c0,0.449,0.364,0.814,0.812,0.814C142.261,157.481,142.625,157.116,142.625,156.667z"/>
<path fill="#00DCE6" d="M142.625,152.053c0-0.45-0.364-0.813-0.813-0.813c-0.448,0-0.812,0.364-0.812,0.813
	c0,0.45,0.364,0.814,0.812,0.814C142.261,152.867,142.625,152.503,142.625,152.053z"/>
<path fill="#00DCE6" d="M142.625,147.303c0-0.449-0.364-0.813-0.813-0.813c-0.448,0-0.812,0.365-0.812,0.813
	c0,0.45,0.364,0.815,0.812,0.815C142.261,148.118,142.625,147.753,142.625,147.303z"/>
<path fill="#00DCE6" d="M142.625,142.69c0-0.45-0.364-0.815-0.813-0.815c-0.448,0-0.812,0.365-0.812,0.815
	c0,0.449,0.364,0.814,0.812,0.814C142.261,143.504,142.625,143.139,142.625,142.69z"/>
<path fill="#00DCE6" d="M142.625,137.94c0-0.449-0.364-0.814-0.813-0.814c-0.448,0-0.812,0.365-0.812,0.814
	c0,0.45,0.364,0.814,0.812,0.814C142.261,138.754,142.625,138.39,142.625,137.94z"/>
<path fill="#00DCE6" d="M142.625,133.326c0-0.449-0.364-0.814-0.813-0.814c-0.448,0-0.812,0.365-0.812,0.814
	c0,0.45,0.364,0.815,0.812,0.815C142.261,134.141,142.625,133.776,142.625,133.326z"/>
<path fill="#00DCE6" d="M142.625,128.577c0-0.45-0.364-0.814-0.813-0.814c-0.448,0-0.812,0.364-0.812,0.814
	c0,0.45,0.364,0.814,0.812,0.814C142.261,129.391,142.625,129.027,142.625,128.577z"/>
<path fill="#00DCE6" d="M142.625,123.963c0-0.45-0.364-0.814-0.813-0.814c-0.448,0-0.812,0.364-0.812,0.814
	c0,0.45,0.364,0.814,0.812,0.814C142.261,124.777,142.625,124.413,142.625,123.963z"/>
<path fill="#00DCE6" d="M142.625,119.214c0-0.45-0.364-0.815-0.813-0.815c-0.448,0-0.812,0.365-0.812,0.815
	c0,0.449,0.364,0.814,0.812,0.814C142.261,120.028,142.625,119.663,142.625,119.214z"/>
<path fill="#00DCE6" d="M142.625,114.6c0-0.45-0.364-0.814-0.813-0.814c-0.448,0-0.812,0.364-0.812,0.814
	c0,0.45,0.364,0.814,0.812,0.814C142.261,115.414,142.625,115.05,142.625,114.6z"/>
<path fill="#00DCE6" d="M142.625,109.85c0-0.45-0.364-0.814-0.813-0.814c-0.448,0-0.812,0.364-0.812,0.814
	c0,0.45,0.364,0.814,0.812,0.814C142.261,110.664,142.625,110.3,142.625,109.85z"/>
<path fill="#00DCE6" d="M142.625,105.1c0-0.449-0.364-0.814-0.813-0.814c-0.448,0-0.812,0.365-0.812,0.814
	c0,0.45,0.364,0.815,0.812,0.815C142.261,105.915,142.625,105.55,142.625,105.1z"/>
<path fill="#00DCE6" d="M142.625,100.487c0-0.45-0.364-0.814-0.813-0.814c-0.448,0-0.812,0.365-0.812,0.814
	c0,0.449,0.364,0.814,0.812,0.814C142.261,101.301,142.625,100.936,142.625,100.487z"/>
<path fill="#00DCE6" d="M147.228,198.87c0-0.45-0.364-0.813-0.812-0.813c-0.449,0-0.813,0.363-0.813,0.813s0.364,0.813,0.813,0.813
	C146.864,199.684,147.228,199.32,147.228,198.87z"/>
<path fill="#00DCE6" d="M147.228,194.256c0-0.449-0.364-0.814-0.812-0.814c-0.449,0-0.813,0.365-0.813,0.814
	c0,0.45,0.364,0.814,0.813,0.814C146.864,195.07,147.228,194.706,147.228,194.256z"/>
<path fill="#00DCE6" d="M147.228,189.507c0-0.45-0.364-0.815-0.812-0.815c-0.449,0-0.813,0.365-0.813,0.815
	c0,0.449,0.364,0.813,0.813,0.813C146.864,190.32,147.228,189.956,147.228,189.507z"/>
<path fill="#00DCE6" d="M147.228,184.893c0-0.449-0.364-0.813-0.812-0.813c-0.449,0-0.813,0.364-0.813,0.813
	s0.364,0.814,0.813,0.814C146.864,185.707,147.228,185.342,147.228,184.893z"/>
<path fill="#00DCE6" d="M147.228,180.143c0-0.449-0.364-0.813-0.812-0.813c-0.449,0-0.813,0.364-0.813,0.813
	c0,0.45,0.364,0.815,0.813,0.815C146.864,180.958,147.228,180.593,147.228,180.143z"/>
<path fill="#00DCE6" d="M147.228,175.53c0-0.45-0.364-0.815-0.812-0.815c-0.449,0-0.813,0.365-0.813,0.815
	c0,0.448,0.364,0.813,0.813,0.813C146.864,176.344,147.228,175.979,147.228,175.53z"/>
<path fill="#00DCE6" d="M147.228,170.78c0-0.45-0.364-0.815-0.812-0.815c-0.449,0-0.813,0.365-0.813,0.815
	c0,0.448,0.364,0.813,0.813,0.813C146.864,171.594,147.228,171.229,147.228,170.78z"/>
<path fill="#00DCE6" d="M147.228,166.166c0-0.45-0.364-0.814-0.812-0.814c-0.449,0-0.813,0.364-0.813,0.814
	c0,0.449,0.364,0.814,0.813,0.814C146.864,166.98,147.228,166.615,147.228,166.166z"/>
<path fill="#00DCE6" d="M147.228,161.416c0-0.449-0.364-0.814-0.812-0.814c-0.449,0-0.813,0.365-0.813,0.814
	c0,0.45,0.364,0.814,0.813,0.814C146.864,162.23,147.228,161.866,147.228,161.416z"/>
<path fill="#00DCE6" d="M147.228,156.667c0-0.45-0.364-0.814-0.812-0.814c-0.449,0-0.813,0.364-0.813,0.814
	c0,0.449,0.364,0.814,0.813,0.814C146.864,157.481,147.228,157.116,147.228,156.667z"/>
<path fill="#00DCE6" d="M147.228,152.053c0-0.45-0.364-0.813-0.812-0.813c-0.449,0-0.813,0.364-0.813,0.813
	c0,0.45,0.364,0.814,0.813,0.814C146.864,152.867,147.228,152.503,147.228,152.053z"/>
<path fill="#00DCE6" d="M147.228,147.303c0-0.449-0.364-0.813-0.812-0.813c-0.449,0-0.813,0.365-0.813,0.813
	c0,0.45,0.364,0.815,0.813,0.815C146.864,148.118,147.228,147.753,147.228,147.303z"/>
<path fill="#00DCE6" d="M147.228,142.69c0-0.45-0.364-0.815-0.812-0.815c-0.449,0-0.813,0.365-0.813,0.815
	c0,0.449,0.364,0.814,0.813,0.814C146.864,143.504,147.228,143.139,147.228,142.69z"/>
<path fill="#00DCE6" d="M147.228,137.94c0-0.449-0.364-0.814-0.812-0.814c-0.449,0-0.813,0.365-0.813,0.814
	c0,0.45,0.364,0.814,0.813,0.814C146.864,138.754,147.228,138.39,147.228,137.94z"/>
<path fill="#00DCE6" d="M147.228,133.326c0-0.449-0.364-0.814-0.812-0.814c-0.449,0-0.813,0.365-0.813,0.814
	c0,0.45,0.364,0.815,0.813,0.815C146.864,134.141,147.228,133.776,147.228,133.326z"/>
<path fill="#00DCE6" d="M147.228,128.577c0-0.45-0.364-0.814-0.812-0.814c-0.449,0-0.813,0.364-0.813,0.814
	c0,0.45,0.364,0.814,0.813,0.814C146.864,129.391,147.228,129.027,147.228,128.577z"/>
<path fill="#00DCE6" d="M147.228,123.963c0-0.45-0.364-0.814-0.812-0.814c-0.449,0-0.813,0.364-0.813,0.814
	c0,0.45,0.364,0.814,0.813,0.814C146.864,124.777,147.228,124.413,147.228,123.963z"/>
<path fill="#00DCE6" d="M147.228,119.214c0-0.45-0.364-0.815-0.812-0.815c-0.449,0-0.813,0.365-0.813,0.815
	c0,0.449,0.364,0.814,0.813,0.814C146.864,120.028,147.228,119.663,147.228,119.214z"/>
<path fill="#00DCE6" d="M147.228,114.599c0-0.449-0.364-0.814-0.812-0.814c-0.449,0-0.813,0.365-0.813,0.814
	c0,0.45,0.364,0.815,0.813,0.815C146.864,115.414,147.228,115.049,147.228,114.599z"/>
<path fill="#00DCE6" d="M147.228,109.85c0-0.45-0.364-0.814-0.812-0.814c-0.449,0-0.813,0.364-0.813,0.814
	c0,0.45,0.364,0.814,0.813,0.814C146.864,110.664,147.228,110.3,147.228,109.85z"/>
<path fill="#00DCE6" d="M147.228,105.1c0-0.449-0.364-0.814-0.812-0.814c-0.449,0-0.813,0.365-0.813,0.814
	c0,0.45,0.364,0.815,0.813,0.815C146.864,105.915,147.228,105.55,147.228,105.1z"/>
<path fill="#00DCE6" d="M147.228,100.487c0-0.45-0.364-0.814-0.812-0.814c-0.449,0-0.813,0.365-0.813,0.814
	c0,0.449,0.364,0.814,0.813,0.814C146.864,101.301,147.228,100.936,147.228,100.487z"/>
<path fill="#00DCE6" d="M151.969,198.87c0-0.45-0.364-0.813-0.813-0.813c-0.448,0-0.813,0.363-0.813,0.813s0.364,0.813,0.813,0.813
	C151.605,199.684,151.969,199.32,151.969,198.87z"/>
<path fill="#00DCE6" d="M151.969,194.256c0-0.449-0.364-0.814-0.813-0.814c-0.448,0-0.813,0.365-0.813,0.814
	c0,0.45,0.364,0.814,0.813,0.814C151.605,195.07,151.969,194.706,151.969,194.256z"/>
<path fill="#00DCE6" d="M151.969,189.507c0-0.45-0.364-0.815-0.813-0.815c-0.448,0-0.813,0.365-0.813,0.815
	c0,0.449,0.364,0.813,0.813,0.813C151.605,190.32,151.969,189.956,151.969,189.507z"/>
<path fill="#00DCE6" d="M151.969,184.893c0-0.449-0.364-0.813-0.813-0.813c-0.448,0-0.813,0.364-0.813,0.813
	s0.364,0.814,0.813,0.814C151.605,185.707,151.969,185.342,151.969,184.893z"/>
<path fill="#00DCE6" d="M151.969,180.143c0-0.449-0.364-0.813-0.813-0.813c-0.448,0-0.813,0.364-0.813,0.813
	c0,0.45,0.364,0.815,0.813,0.815C151.605,180.958,151.969,180.593,151.969,180.143z"/>
<path fill="#00DCE6" d="M151.969,175.53c0-0.45-0.364-0.815-0.813-0.815c-0.448,0-0.813,0.365-0.813,0.815
	c0,0.448,0.364,0.813,0.813,0.813C151.605,176.344,151.969,175.979,151.969,175.53z"/>
<path fill="#00DCE6" d="M151.969,170.78c0-0.45-0.364-0.815-0.813-0.815c-0.448,0-0.813,0.365-0.813,0.815
	c0,0.448,0.364,0.813,0.813,0.813C151.605,171.594,151.969,171.229,151.969,170.78z"/>
<path fill="#00DCE6" d="M151.969,166.166c0-0.45-0.364-0.814-0.813-0.814c-0.448,0-0.813,0.364-0.813,0.814
	c0,0.449,0.364,0.814,0.813,0.814C151.605,166.98,151.969,166.615,151.969,166.166z"/>
<path fill="#00DCE6" d="M151.969,161.416c0-0.449-0.364-0.814-0.813-0.814c-0.448,0-0.813,0.365-0.813,0.814
	c0,0.45,0.364,0.814,0.813,0.814C151.605,162.23,151.969,161.866,151.969,161.416z"/>
<path fill="#00DCE6" d="M151.969,156.667c0-0.45-0.364-0.814-0.813-0.814c-0.448,0-0.813,0.364-0.813,0.814
	c0,0.449,0.364,0.814,0.813,0.814C151.605,157.481,151.969,157.116,151.969,156.667z"/>
<path fill="#00DCE6" d="M151.969,152.053c0-0.45-0.364-0.813-0.813-0.813c-0.448,0-0.813,0.364-0.813,0.813
	c0,0.45,0.364,0.814,0.813,0.814C151.605,152.867,151.969,152.503,151.969,152.053z"/>
<path fill="#00DCE6" d="M151.969,147.303c0-0.449-0.364-0.813-0.813-0.813c-0.448,0-0.813,0.365-0.813,0.813
	c0,0.45,0.364,0.815,0.813,0.815C151.605,148.118,151.969,147.753,151.969,147.303z"/>
<path fill="#00DCE6" d="M151.969,142.69c0-0.45-0.364-0.815-0.813-0.815c-0.448,0-0.813,0.365-0.813,0.815
	c0,0.449,0.364,0.814,0.813,0.814C151.605,143.504,151.969,143.139,151.969,142.69z"/>
<path fill="#00DCE6" d="M151.969,137.94c0-0.449-0.364-0.814-0.813-0.814c-0.448,0-0.813,0.365-0.813,0.814
	c0,0.45,0.364,0.814,0.813,0.814C151.605,138.754,151.969,138.39,151.969,137.94z"/>
<path fill="#00DCE6" d="M151.969,133.326c0-0.449-0.364-0.814-0.813-0.814c-0.448,0-0.813,0.365-0.813,0.814
	c0,0.45,0.364,0.815,0.813,0.815C151.605,134.141,151.969,133.776,151.969,133.326z"/>
<path fill="#00DCE6" d="M151.969,128.577c0-0.45-0.364-0.814-0.813-0.814c-0.448,0-0.813,0.364-0.813,0.814
	c0,0.45,0.364,0.814,0.813,0.814C151.605,129.391,151.969,129.027,151.969,128.577z"/>
<path fill="#00DCE6" d="M151.969,123.963c0-0.45-0.364-0.814-0.813-0.814c-0.448,0-0.813,0.364-0.813,0.814
	c0,0.45,0.364,0.814,0.813,0.814C151.605,124.777,151.969,124.413,151.969,123.963z"/>
<path fill="#00DCE6" d="M151.969,119.214c0-0.45-0.364-0.815-0.813-0.815c-0.448,0-0.813,0.365-0.813,0.815
	c0,0.449,0.364,0.814,0.813,0.814C151.605,120.028,151.969,119.663,151.969,119.214z"/>
<path fill="#00DCE6" d="M151.969,114.599c0-0.449-0.364-0.814-0.813-0.814c-0.448,0-0.813,0.365-0.813,0.814
	c0,0.45,0.364,0.815,0.813,0.815C151.605,115.414,151.969,115.049,151.969,114.599z"/>
<path fill="#00DCE6" d="M151.969,109.85c0-0.45-0.364-0.814-0.813-0.814c-0.448,0-0.813,0.364-0.813,0.814
	c0,0.45,0.364,0.814,0.813,0.814C151.605,110.664,151.969,110.3,151.969,109.85z"/>
<path fill="#00DCE6" d="M151.969,105.1c0-0.449-0.364-0.814-0.813-0.814c-0.448,0-0.813,0.365-0.813,0.814
	c0,0.45,0.364,0.815,0.813,0.815C151.605,105.915,151.969,105.55,151.969,105.1z"/>
<path fill="#00DCE6" d="M151.969,100.487c0-0.45-0.364-0.814-0.813-0.814c-0.448,0-0.813,0.365-0.813,0.814
	c0,0.449,0.364,0.814,0.813,0.814C151.605,101.301,151.969,100.936,151.969,100.487z"/>
<path fill="#00DCE6" d="M156.708,198.87c0-0.45-0.363-0.813-0.812-0.813s-0.813,0.363-0.813,0.813s0.364,0.813,0.813,0.813
	S156.708,199.32,156.708,198.87z"/>
<path fill="#00DCE6" d="M156.708,194.256c0-0.449-0.363-0.814-0.812-0.814s-0.813,0.365-0.813,0.814c0,0.45,0.364,0.814,0.813,0.814
	S156.708,194.706,156.708,194.256z"/>
<path fill="#00DCE6" d="M156.708,189.507c0-0.45-0.363-0.815-0.812-0.815s-0.813,0.365-0.813,0.815c0,0.449,0.364,0.813,0.813,0.813
	S156.708,189.956,156.708,189.507z"/>
<path fill="#00DCE6" d="M156.708,184.893c0-0.449-0.363-0.813-0.812-0.813s-0.813,0.364-0.813,0.813s0.364,0.814,0.813,0.814
	S156.708,185.342,156.708,184.893z"/>
<path fill="#00DCE6" d="M156.708,180.143c0-0.449-0.363-0.813-0.812-0.813s-0.813,0.364-0.813,0.813c0,0.45,0.364,0.815,0.813,0.815
	S156.708,180.593,156.708,180.143z"/>
<path fill="#00DCE6" d="M156.708,175.53c0-0.45-0.363-0.815-0.812-0.815s-0.813,0.365-0.813,0.815c0,0.448,0.364,0.813,0.813,0.813
	S156.708,175.979,156.708,175.53z"/>
<path fill="#00DCE6" d="M156.708,170.78c0-0.45-0.363-0.815-0.812-0.815s-0.813,0.365-0.813,0.815c0,0.448,0.364,0.813,0.813,0.813
	S156.708,171.229,156.708,170.78z"/>
<path fill="#00DCE6" d="M156.708,166.166c0-0.45-0.363-0.814-0.812-0.814s-0.813,0.364-0.813,0.814c0,0.449,0.364,0.814,0.813,0.814
	S156.708,166.615,156.708,166.166z"/>
<path fill="#00DCE6" d="M156.708,161.416c0-0.449-0.363-0.814-0.812-0.814s-0.813,0.365-0.813,0.814c0,0.45,0.364,0.814,0.813,0.814
	S156.708,161.866,156.708,161.416z"/>
<path fill="#00DCE6" d="M156.708,156.667c0-0.45-0.363-0.814-0.812-0.814s-0.813,0.364-0.813,0.814c0,0.449,0.364,0.814,0.813,0.814
	S156.708,157.116,156.708,156.667z"/>
<path fill="#00DCE6" d="M156.708,152.053c0-0.45-0.363-0.813-0.812-0.813s-0.813,0.364-0.813,0.813c0,0.45,0.364,0.814,0.813,0.814
	S156.708,152.503,156.708,152.053z"/>
<path fill="#00DCE6" d="M156.708,147.303c0-0.449-0.363-0.813-0.812-0.813s-0.813,0.365-0.813,0.813c0,0.45,0.364,0.815,0.813,0.815
	S156.708,147.753,156.708,147.303z"/>
<path fill="#00DCE6" d="M156.708,142.69c0-0.45-0.363-0.815-0.812-0.815s-0.813,0.365-0.813,0.815c0,0.449,0.364,0.814,0.813,0.814
	S156.708,143.139,156.708,142.69z"/>
<path fill="#00DCE6" d="M156.708,137.94c0-0.449-0.363-0.814-0.812-0.814s-0.813,0.365-0.813,0.814c0,0.45,0.364,0.814,0.813,0.814
	S156.708,138.39,156.708,137.94z"/>
<path fill="#00DCE6" d="M156.708,133.326c0-0.449-0.363-0.814-0.812-0.814s-0.813,0.365-0.813,0.814c0,0.45,0.364,0.815,0.813,0.815
	S156.708,133.776,156.708,133.326z"/>
<path fill="#00DCE6" d="M156.708,128.577c0-0.45-0.363-0.814-0.812-0.814s-0.813,0.364-0.813,0.814c0,0.45,0.364,0.814,0.813,0.814
	S156.708,129.027,156.708,128.577z"/>
<path fill="#00DCE6" d="M156.708,123.963c0-0.45-0.363-0.814-0.812-0.814s-0.813,0.364-0.813,0.814c0,0.45,0.364,0.814,0.813,0.814
	S156.708,124.413,156.708,123.963z"/>
<path fill="#00DCE6" d="M156.708,119.214c0-0.45-0.363-0.815-0.812-0.815s-0.813,0.365-0.813,0.815c0,0.449,0.364,0.814,0.813,0.814
	S156.708,119.663,156.708,119.214z"/>
<path fill="#00DCE6" d="M156.708,114.599c0-0.449-0.363-0.814-0.812-0.814s-0.813,0.365-0.813,0.814c0,0.45,0.364,0.815,0.813,0.815
	S156.708,115.049,156.708,114.599z"/>
<path fill="#00DCE6" d="M156.708,109.85c0-0.45-0.363-0.814-0.812-0.814s-0.813,0.364-0.813,0.814c0,0.45,0.364,0.814,0.813,0.814
	S156.708,110.3,156.708,109.85z"/>
<path fill="#00DCE6" d="M156.708,105.1c0-0.449-0.363-0.814-0.812-0.814s-0.813,0.365-0.813,0.814c0,0.45,0.364,0.815,0.813,0.815
	S156.708,105.55,156.708,105.1z"/>
<path fill="#00DCE6" d="M156.708,100.487c0-0.45-0.363-0.814-0.812-0.814s-0.813,0.365-0.813,0.814c0,0.449,0.364,0.814,0.813,0.814
	S156.708,100.936,156.708,100.487z"/>
<path fill="#00DCE6" d="M161.312,198.87c0-0.45-0.364-0.813-0.812-0.813c-0.449,0-0.813,0.363-0.813,0.813s0.364,0.813,0.813,0.813
	C160.948,199.684,161.312,199.32,161.312,198.87z"/>
<path fill="#00DCE6" d="M161.312,194.256c0-0.449-0.364-0.814-0.812-0.814c-0.449,0-0.813,0.365-0.813,0.814
	c0,0.45,0.364,0.814,0.813,0.814C160.948,195.07,161.312,194.706,161.312,194.256z"/>
<path fill="#00DCE6" d="M161.312,189.507c0-0.45-0.364-0.815-0.812-0.815c-0.449,0-0.813,0.365-0.813,0.815
	c0,0.449,0.364,0.813,0.813,0.813C160.948,190.32,161.312,189.956,161.312,189.507z"/>
<path fill="#00DCE6" d="M161.312,184.893c0-0.449-0.364-0.813-0.812-0.813c-0.449,0-0.813,0.364-0.813,0.813
	s0.364,0.814,0.813,0.814C160.948,185.707,161.312,185.342,161.312,184.893z"/>
<path fill="#00DCE6" d="M161.312,180.143c0-0.449-0.364-0.813-0.812-0.813c-0.449,0-0.813,0.364-0.813,0.813
	c0,0.45,0.364,0.815,0.813,0.815C160.948,180.958,161.312,180.593,161.312,180.143z"/>
<path fill="#00DCE6" d="M161.312,175.53c0-0.45-0.364-0.815-0.812-0.815c-0.449,0-0.813,0.365-0.813,0.815
	c0,0.448,0.364,0.813,0.813,0.813C160.948,176.344,161.312,175.979,161.312,175.53z"/>
<path fill="#00DCE6" d="M161.312,170.78c0-0.45-0.364-0.815-0.812-0.815c-0.449,0-0.813,0.365-0.813,0.815
	c0,0.448,0.364,0.813,0.813,0.813C160.948,171.594,161.312,171.229,161.312,170.78z"/>
<path fill="#00DCE6" d="M161.312,166.166c0-0.45-0.364-0.814-0.812-0.814c-0.449,0-0.813,0.364-0.813,0.814
	c0,0.449,0.364,0.814,0.813,0.814C160.948,166.98,161.312,166.615,161.312,166.166z"/>
<path fill="#00DCE6" d="M161.312,161.416c0-0.449-0.364-0.814-0.812-0.814c-0.449,0-0.813,0.365-0.813,0.814
	c0,0.45,0.364,0.814,0.813,0.814C160.948,162.23,161.312,161.866,161.312,161.416z"/>
<path fill="#00DCE6" d="M161.312,156.667c0-0.45-0.364-0.814-0.812-0.814c-0.449,0-0.813,0.364-0.813,0.814
	c0,0.449,0.364,0.814,0.813,0.814C160.948,157.481,161.312,157.116,161.312,156.667z"/>
<path fill="#00DCE6" d="M161.312,152.053c0-0.45-0.364-0.813-0.812-0.813c-0.449,0-0.813,0.364-0.813,0.813
	c0,0.45,0.364,0.814,0.813,0.814C160.948,152.867,161.312,152.503,161.312,152.053z"/>
<path fill="#00DCE6" d="M161.312,147.303c0-0.449-0.364-0.813-0.812-0.813c-0.449,0-0.813,0.365-0.813,0.813
	c0,0.45,0.364,0.815,0.813,0.815C160.948,148.118,161.312,147.753,161.312,147.303z"/>
<path fill="#00DCE6" d="M161.312,142.69c0-0.45-0.364-0.815-0.812-0.815c-0.449,0-0.813,0.365-0.813,0.815
	c0,0.449,0.364,0.814,0.813,0.814C160.948,143.504,161.312,143.139,161.312,142.69z"/>
<path fill="#00DCE6" d="M161.312,137.94c0-0.449-0.364-0.814-0.812-0.814c-0.449,0-0.813,0.365-0.813,0.814
	c0,0.45,0.364,0.814,0.813,0.814C160.948,138.754,161.312,138.39,161.312,137.94z"/>
<path fill="#00DCE6" d="M161.312,133.326c0-0.449-0.364-0.814-0.812-0.814c-0.449,0-0.813,0.365-0.813,0.814
	c0,0.45,0.364,0.815,0.813,0.815C160.948,134.141,161.312,133.776,161.312,133.326z"/>
<path fill="#00DCE6" d="M161.312,128.577c0-0.45-0.364-0.814-0.812-0.814c-0.449,0-0.813,0.364-0.813,0.814
	c0,0.45,0.364,0.814,0.813,0.814C160.948,129.391,161.312,129.027,161.312,128.577z"/>
<path fill="#00DCE6" d="M161.312,123.963c0-0.45-0.364-0.814-0.812-0.814c-0.449,0-0.813,0.364-0.813,0.814
	c0,0.45,0.364,0.814,0.813,0.814C160.948,124.777,161.312,124.413,161.312,123.963z"/>
<path fill="#00DCE6" d="M161.312,119.214c0-0.45-0.364-0.815-0.812-0.815c-0.449,0-0.813,0.365-0.813,0.815
	c0,0.449,0.364,0.814,0.813,0.814C160.948,120.028,161.312,119.663,161.312,119.214z"/>
<path fill="#00DCE6" d="M161.312,114.599c0-0.449-0.364-0.814-0.812-0.814c-0.449,0-0.813,0.365-0.813,0.814
	c0,0.45,0.364,0.815,0.813,0.815C160.948,115.414,161.312,115.049,161.312,114.599z"/>
<path fill="#00DCE6" d="M161.312,109.85c0-0.45-0.364-0.814-0.812-0.814c-0.449,0-0.813,0.364-0.813,0.814
	c0,0.45,0.364,0.814,0.813,0.814C160.948,110.664,161.312,110.3,161.312,109.85z"/>
<path fill="#00DCE6" d="M161.312,105.1c0-0.449-0.364-0.814-0.812-0.814c-0.449,0-0.813,0.365-0.813,0.814
	c0,0.45,0.364,0.815,0.813,0.815C160.948,105.915,161.312,105.55,161.312,105.1z"/>
<path fill="#00DCE6" d="M161.312,100.487c0-0.45-0.364-0.814-0.812-0.814c-0.449,0-0.813,0.365-0.813,0.814
	c0,0.449,0.364,0.814,0.813,0.814C160.948,101.301,161.312,100.936,161.312,100.487z"/>
<path fill="#00DCE6" d="M166.052,198.87c0-0.45-0.364-0.813-0.813-0.813c-0.448,0-0.812,0.363-0.812,0.813s0.364,0.813,0.812,0.813
	C165.688,199.684,166.052,199.32,166.052,198.87z"/>
<path fill="#00DCE6" d="M166.052,194.256c0-0.449-0.364-0.814-0.813-0.814c-0.448,0-0.812,0.365-0.812,0.814
	c0,0.45,0.364,0.814,0.812,0.814C165.688,195.07,166.052,194.706,166.052,194.256z"/>
<path fill="#00DCE6" d="M166.052,189.507c0-0.45-0.364-0.815-0.813-0.815c-0.448,0-0.812,0.365-0.812,0.815
	c0,0.449,0.364,0.813,0.812,0.813C165.688,190.32,166.052,189.956,166.052,189.507z"/>
<path fill="#00DCE6" d="M166.052,184.893c0-0.449-0.364-0.813-0.813-0.813c-0.448,0-0.812,0.364-0.812,0.813
	s0.364,0.814,0.812,0.814C165.688,185.707,166.052,185.342,166.052,184.893z"/>
<path fill="#00DCE6" d="M166.052,180.143c0-0.449-0.364-0.813-0.813-0.813c-0.448,0-0.812,0.364-0.812,0.813
	c0,0.45,0.364,0.815,0.812,0.815C165.688,180.958,166.052,180.593,166.052,180.143z"/>
<path fill="#00DCE6" d="M166.052,175.53c0-0.45-0.364-0.815-0.813-0.815c-0.448,0-0.812,0.365-0.812,0.815
	c0,0.448,0.364,0.813,0.812,0.813C165.688,176.344,166.052,175.979,166.052,175.53z"/>
<path fill="#00DCE6" d="M166.052,170.78c0-0.45-0.364-0.815-0.813-0.815c-0.448,0-0.812,0.365-0.812,0.815
	c0,0.448,0.364,0.813,0.812,0.813C165.688,171.594,166.052,171.229,166.052,170.78z"/>
<path fill="#00DCE6" d="M166.052,166.166c0-0.45-0.364-0.814-0.813-0.814c-0.448,0-0.812,0.364-0.812,0.814
	c0,0.449,0.364,0.814,0.812,0.814C165.688,166.98,166.052,166.615,166.052,166.166z"/>
<path fill="#00DCE6" d="M166.052,161.416c0-0.449-0.364-0.814-0.813-0.814c-0.448,0-0.812,0.365-0.812,0.814
	c0,0.45,0.364,0.814,0.812,0.814C165.688,162.23,166.052,161.866,166.052,161.416z"/>
<path fill="#00DCE6" d="M166.052,156.667c0-0.45-0.364-0.814-0.813-0.814c-0.448,0-0.812,0.364-0.812,0.814
	c0,0.449,0.364,0.814,0.812,0.814C165.688,157.481,166.052,157.116,166.052,156.667z"/>
<path fill="#00DCE6" d="M166.052,152.053c0-0.45-0.364-0.813-0.813-0.813c-0.448,0-0.812,0.364-0.812,0.813
	c0,0.45,0.364,0.814,0.812,0.814C165.688,152.867,166.052,152.503,166.052,152.053z"/>
<path fill="#00DCE6" d="M166.052,147.303c0-0.449-0.364-0.813-0.813-0.813c-0.448,0-0.812,0.365-0.812,0.813
	c0,0.45,0.364,0.815,0.812,0.815C165.688,148.118,166.052,147.753,166.052,147.303z"/>
<path fill="#00DCE6" d="M166.052,142.69c0-0.45-0.364-0.815-0.813-0.815c-0.448,0-0.812,0.365-0.812,0.815
	c0,0.449,0.364,0.814,0.812,0.814C165.688,143.504,166.052,143.139,166.052,142.69z"/>
<path fill="#00DCE6" d="M166.052,137.94c0-0.449-0.364-0.814-0.813-0.814c-0.448,0-0.812,0.365-0.812,0.814
	c0,0.45,0.364,0.814,0.812,0.814C165.688,138.754,166.052,138.39,166.052,137.94z"/>
<path fill="#00DCE6" d="M166.052,133.326c0-0.449-0.364-0.814-0.813-0.814c-0.448,0-0.812,0.365-0.812,0.814
	c0,0.45,0.364,0.815,0.812,0.815C165.688,134.141,166.052,133.776,166.052,133.326z"/>
<path fill="#00DCE6" d="M166.052,128.577c0-0.45-0.364-0.814-0.813-0.814c-0.448,0-0.812,0.364-0.812,0.814
	c0,0.45,0.364,0.814,0.812,0.814C165.688,129.391,166.052,129.027,166.052,128.577z"/>
<path fill="#00DCE6" d="M166.052,123.963c0-0.45-0.364-0.814-0.813-0.814c-0.448,0-0.812,0.364-0.812,0.814
	c0,0.45,0.364,0.814,0.812,0.814C165.688,124.777,166.052,124.413,166.052,123.963z"/>
<path fill="#00DCE6" d="M166.052,119.214c0-0.45-0.364-0.815-0.813-0.815c-0.448,0-0.812,0.365-0.812,0.815
	c0,0.449,0.364,0.814,0.812,0.814C165.688,120.028,166.052,119.663,166.052,119.214z"/>
<path fill="#00DCE6" d="M166.052,114.599c0-0.449-0.364-0.814-0.813-0.814c-0.448,0-0.812,0.365-0.812,0.814
	c0,0.45,0.364,0.815,0.812,0.815C165.688,115.414,166.052,115.049,166.052,114.599z"/>
<path fill="#00DCE6" d="M166.052,109.85c0-0.449-0.364-0.814-0.813-0.814c-0.448,0-0.812,0.365-0.812,0.814
	c0,0.45,0.364,0.815,0.812,0.815C165.688,110.665,166.052,110.3,166.052,109.85z"/>
<path fill="#00DCE6" d="M166.052,105.1c0-0.449-0.364-0.814-0.813-0.814c-0.448,0-0.812,0.365-0.812,0.814
	c0,0.45,0.364,0.815,0.812,0.815C165.688,105.915,166.052,105.55,166.052,105.1z"/>
<path fill="#00DCE6" d="M166.052,100.487c0-0.45-0.364-0.814-0.813-0.814c-0.448,0-0.812,0.365-0.812,0.814
	c0,0.449,0.364,0.814,0.812,0.814C165.688,101.301,166.052,100.936,166.052,100.487z"/>
<path fill="#00DCE6" d="M170.656,198.87c0-0.45-0.364-0.813-0.813-0.813c-0.449,0-0.813,0.363-0.813,0.813s0.364,0.813,0.813,0.813
	C170.292,199.684,170.656,199.32,170.656,198.87z"/>
<path fill="#00DCE6" d="M170.656,194.256c0-0.449-0.364-0.814-0.813-0.814c-0.449,0-0.813,0.365-0.813,0.814
	c0,0.45,0.364,0.814,0.813,0.814C170.292,195.07,170.656,194.706,170.656,194.256z"/>
<path fill="#00DCE6" d="M170.656,189.507c0-0.45-0.364-0.815-0.813-0.815c-0.449,0-0.813,0.365-0.813,0.815
	c0,0.449,0.364,0.813,0.813,0.813C170.292,190.32,170.656,189.956,170.656,189.507z"/>
<path fill="#00DCE6" d="M170.656,184.893c0-0.449-0.364-0.813-0.813-0.813c-0.449,0-0.813,0.364-0.813,0.813
	s0.364,0.814,0.813,0.814C170.292,185.707,170.656,185.342,170.656,184.893z"/>
<path fill="#00DCE6" d="M170.656,180.143c0-0.449-0.364-0.813-0.813-0.813c-0.449,0-0.813,0.364-0.813,0.813
	c0,0.45,0.364,0.815,0.813,0.815C170.292,180.958,170.656,180.593,170.656,180.143z"/>
<path fill="#00DCE6" d="M170.656,175.53c0-0.45-0.364-0.815-0.813-0.815c-0.449,0-0.813,0.365-0.813,0.815
	c0,0.448,0.364,0.813,0.813,0.813C170.292,176.344,170.656,175.979,170.656,175.53z"/>
<path fill="#00DCE6" d="M170.656,170.78c0-0.45-0.364-0.815-0.813-0.815c-0.449,0-0.813,0.365-0.813,0.815
	c0,0.448,0.364,0.813,0.813,0.813C170.292,171.594,170.656,171.229,170.656,170.78z"/>
<path fill="#00DCE6" d="M170.656,166.166c0-0.45-0.364-0.814-0.813-0.814c-0.449,0-0.813,0.364-0.813,0.814
	c0,0.449,0.364,0.814,0.813,0.814C170.292,166.98,170.656,166.615,170.656,166.166z"/>
<path fill="#00DCE6" d="M170.656,161.416c0-0.449-0.364-0.814-0.813-0.814c-0.449,0-0.813,0.365-0.813,0.814
	c0,0.45,0.364,0.814,0.813,0.814C170.292,162.23,170.656,161.866,170.656,161.416z"/>
<path fill="#00DCE6" d="M170.656,156.667c0-0.45-0.364-0.814-0.813-0.814c-0.449,0-0.813,0.364-0.813,0.814
	c0,0.449,0.364,0.814,0.813,0.814C170.292,157.481,170.656,157.116,170.656,156.667z"/>
<path fill="#00DCE6" d="M170.656,152.053c0-0.45-0.364-0.813-0.813-0.813c-0.449,0-0.813,0.364-0.813,0.813
	c0,0.45,0.364,0.814,0.813,0.814C170.292,152.867,170.656,152.503,170.656,152.053z"/>
<path fill="#00DCE6" d="M170.656,147.303c0-0.449-0.364-0.813-0.813-0.813c-0.449,0-0.813,0.365-0.813,0.813
	c0,0.45,0.364,0.815,0.813,0.815C170.292,148.118,170.656,147.753,170.656,147.303z"/>
<path fill="#00DCE6" d="M170.656,142.69c0-0.45-0.364-0.815-0.813-0.815c-0.449,0-0.813,0.365-0.813,0.815
	c0,0.449,0.364,0.814,0.813,0.814C170.292,143.504,170.656,143.139,170.656,142.69z"/>
<path fill="#00DCE6" d="M170.656,137.94c0-0.449-0.364-0.814-0.813-0.814c-0.449,0-0.813,0.365-0.813,0.814
	c0,0.45,0.364,0.814,0.813,0.814C170.292,138.754,170.656,138.39,170.656,137.94z"/>
<path fill="#00DCE6" d="M170.656,133.326c0-0.449-0.364-0.814-0.813-0.814c-0.449,0-0.813,0.365-0.813,0.814
	c0,0.45,0.364,0.815,0.813,0.815C170.292,134.141,170.656,133.776,170.656,133.326z"/>
<path fill="#00DCE6" d="M170.656,128.577c0-0.45-0.364-0.814-0.813-0.814c-0.449,0-0.813,0.364-0.813,0.814
	c0,0.45,0.364,0.814,0.813,0.814C170.292,129.391,170.656,129.027,170.656,128.577z"/>
<path fill="#00DCE6" d="M170.656,123.963c0-0.45-0.364-0.814-0.813-0.814c-0.449,0-0.813,0.364-0.813,0.814
	c0,0.45,0.364,0.814,0.813,0.814C170.292,124.777,170.656,124.413,170.656,123.963z"/>
<path fill="#00DCE6" d="M170.656,119.214c0-0.45-0.364-0.815-0.813-0.815c-0.449,0-0.813,0.365-0.813,0.815
	c0,0.449,0.364,0.814,0.813,0.814C170.292,120.028,170.656,119.663,170.656,119.214z"/>
<path fill="#00DCE6" d="M170.656,114.599c0-0.449-0.364-0.814-0.813-0.814c-0.449,0-0.813,0.365-0.813,0.814
	c0,0.45,0.364,0.815,0.813,0.815C170.292,115.414,170.656,115.049,170.656,114.599z"/>
<path fill="#00DCE6" d="M170.656,109.85c0-0.449-0.364-0.814-0.813-0.814c-0.449,0-0.813,0.365-0.813,0.814
	c0,0.45,0.364,0.815,0.813,0.815C170.292,110.665,170.656,110.3,170.656,109.85z"/>
<path fill="#00DCE6" d="M170.656,105.1c0-0.449-0.364-0.814-0.813-0.814c-0.449,0-0.813,0.365-0.813,0.814
	c0,0.45,0.364,0.815,0.813,0.815C170.292,105.915,170.656,105.55,170.656,105.1z"/>
<path fill="#00DCE6" d="M170.656,100.487c0-0.45-0.364-0.814-0.813-0.814c-0.449,0-0.813,0.365-0.813,0.814
	c0,0.449,0.364,0.814,0.813,0.814C170.292,101.301,170.656,100.936,170.656,100.487z"/>
<path fill="#00DCE6" d="M175.396,198.87c0-0.45-0.364-0.813-0.813-0.813c-0.448,0-0.812,0.363-0.812,0.813s0.364,0.813,0.812,0.813
	C175.032,199.684,175.396,199.32,175.396,198.87z"/>
<path fill="#00DCE6" d="M175.396,194.256c0-0.449-0.364-0.814-0.813-0.814c-0.448,0-0.812,0.365-0.812,0.814
	c0,0.45,0.364,0.814,0.812,0.814C175.032,195.07,175.396,194.706,175.396,194.256z"/>
<path fill="#00DCE6" d="M175.396,189.507c0-0.45-0.364-0.815-0.813-0.815c-0.448,0-0.812,0.365-0.812,0.815
	c0,0.449,0.364,0.813,0.812,0.813C175.032,190.32,175.396,189.956,175.396,189.507z"/>
<path fill="#00DCE6" d="M175.396,184.893c0-0.449-0.364-0.813-0.813-0.813c-0.448,0-0.812,0.364-0.812,0.813
	s0.364,0.814,0.812,0.814C175.032,185.707,175.396,185.342,175.396,184.893z"/>
<path fill="#00DCE6" d="M175.396,180.143c0-0.449-0.364-0.813-0.813-0.813c-0.448,0-0.812,0.364-0.812,0.813
	c0,0.45,0.364,0.815,0.812,0.815C175.032,180.958,175.396,180.593,175.396,180.143z"/>
<path fill="#00DCE6" d="M175.396,175.53c0-0.45-0.364-0.815-0.813-0.815c-0.448,0-0.812,0.365-0.812,0.815
	c0,0.448,0.364,0.813,0.812,0.813C175.032,176.344,175.396,175.979,175.396,175.53z"/>
<path fill="#00DCE6" d="M175.396,170.78c0-0.45-0.364-0.815-0.813-0.815c-0.448,0-0.812,0.365-0.812,0.815
	c0,0.448,0.364,0.813,0.812,0.813C175.032,171.594,175.396,171.229,175.396,170.78z"/>
<path fill="#00DCE6" d="M175.396,166.166c0-0.45-0.364-0.814-0.813-0.814c-0.448,0-0.812,0.364-0.812,0.814
	c0,0.449,0.364,0.814,0.812,0.814C175.032,166.98,175.396,166.615,175.396,166.166z"/>
<path fill="#00DCE6" d="M175.396,161.416c0-0.449-0.364-0.814-0.813-0.814c-0.448,0-0.812,0.365-0.812,0.814
	c0,0.45,0.364,0.814,0.812,0.814C175.032,162.23,175.396,161.866,175.396,161.416z"/>
<path fill="#00DCE6" d="M175.396,156.667c0-0.45-0.364-0.814-0.813-0.814c-0.448,0-0.812,0.364-0.812,0.814
	c0,0.449,0.364,0.814,0.812,0.814C175.032,157.481,175.396,157.116,175.396,156.667z"/>
<path fill="#00DCE6" d="M175.396,152.053c0-0.45-0.364-0.813-0.813-0.813c-0.448,0-0.812,0.364-0.812,0.813
	c0,0.45,0.364,0.814,0.812,0.814C175.032,152.867,175.396,152.503,175.396,152.053z"/>
<path fill="#00DCE6" d="M175.396,147.303c0-0.449-0.364-0.813-0.813-0.813c-0.448,0-0.812,0.365-0.812,0.813
	c0,0.45,0.364,0.815,0.812,0.815C175.032,148.118,175.396,147.753,175.396,147.303z"/>
<path fill="#00DCE6" d="M175.396,142.69c0-0.45-0.364-0.815-0.813-0.815c-0.448,0-0.812,0.365-0.812,0.815
	c0,0.449,0.364,0.814,0.812,0.814C175.032,143.504,175.396,143.139,175.396,142.69z"/>
<path fill="#00DCE6" d="M175.396,137.94c0-0.449-0.364-0.814-0.813-0.814c-0.448,0-0.812,0.365-0.812,0.814
	c0,0.45,0.364,0.814,0.812,0.814C175.032,138.754,175.396,138.39,175.396,137.94z"/>
<path fill="#00DCE6" d="M175.396,133.326c0-0.449-0.364-0.814-0.813-0.814c-0.448,0-0.812,0.365-0.812,0.814
	c0,0.45,0.364,0.815,0.812,0.815C175.032,134.141,175.396,133.776,175.396,133.326z"/>
<path fill="#00DCE6" d="M175.396,128.577c0-0.45-0.364-0.814-0.813-0.814c-0.448,0-0.812,0.364-0.812,0.814
	c0,0.45,0.364,0.814,0.812,0.814C175.032,129.391,175.396,129.027,175.396,128.577z"/>
<path fill="#00DCE6" d="M175.396,123.963c0-0.45-0.364-0.814-0.813-0.814c-0.448,0-0.812,0.364-0.812,0.814
	c0,0.45,0.364,0.814,0.812,0.814C175.032,124.777,175.396,124.413,175.396,123.963z"/>
<path fill="#00DCE6" d="M175.396,119.214c0-0.45-0.364-0.815-0.813-0.815c-0.448,0-0.812,0.365-0.812,0.815
	c0,0.449,0.364,0.814,0.812,0.814C175.032,120.028,175.396,119.663,175.396,119.214z"/>
<path fill="#00DCE6" d="M175.396,114.6c0-0.45-0.364-0.814-0.813-0.814c-0.448,0-0.812,0.364-0.812,0.814
	c0,0.45,0.364,0.814,0.812,0.814C175.032,115.414,175.396,115.05,175.396,114.6z"/>
<path fill="#00DCE6" d="M175.396,109.85c0-0.449-0.364-0.814-0.813-0.814c-0.448,0-0.812,0.365-0.812,0.814
	c0,0.45,0.364,0.815,0.812,0.815C175.032,110.665,175.396,110.3,175.396,109.85z"/>
<path fill="#00DCE6" d="M175.396,105.1c0-0.449-0.364-0.814-0.813-0.814c-0.448,0-0.812,0.365-0.812,0.814
	c0,0.45,0.364,0.815,0.812,0.815C175.032,105.915,175.396,105.55,175.396,105.1z"/>
<path fill="#00DCE6" d="M175.396,100.487c0-0.45-0.364-0.814-0.813-0.814c-0.448,0-0.812,0.365-0.812,0.814
	c0,0.449,0.364,0.814,0.812,0.814C175.032,101.301,175.396,100.936,175.396,100.487z"/>
<path fill="#00DCE6" d="M180,198.87c0-0.45-0.364-0.813-0.813-0.813c-0.448,0-0.812,0.363-0.812,0.813s0.364,0.813,0.812,0.813
	C179.636,199.684,180,199.32,180,198.87z"/>
<path fill="#00DCE6" d="M180,194.256c0-0.449-0.364-0.814-0.813-0.814c-0.448,0-0.812,0.365-0.812,0.814
	c0,0.45,0.364,0.814,0.812,0.814C179.636,195.07,180,194.706,180,194.256z"/>
<path fill="#00DCE6" d="M180,189.507c0-0.45-0.364-0.815-0.813-0.815c-0.448,0-0.812,0.365-0.812,0.815
	c0,0.449,0.364,0.813,0.812,0.813C179.636,190.32,180,189.956,180,189.507z"/>
<path fill="#00DCE6" d="M180,184.893c0-0.449-0.364-0.813-0.813-0.813c-0.448,0-0.812,0.364-0.812,0.813s0.364,0.814,0.812,0.814
	C179.636,185.707,180,185.342,180,184.893z"/>
<path fill="#00DCE6" d="M180,180.143c0-0.449-0.364-0.813-0.813-0.813c-0.448,0-0.812,0.364-0.812,0.813
	c0,0.45,0.364,0.815,0.812,0.815C179.636,180.958,180,180.593,180,180.143z"/>
<path fill="#00DCE6" d="M180,175.53c0-0.45-0.364-0.815-0.813-0.815c-0.448,0-0.812,0.365-0.812,0.815
	c0,0.448,0.364,0.813,0.812,0.813C179.636,176.344,180,175.979,180,175.53z"/>
<path fill="#00DCE6" d="M180,170.78c0-0.45-0.364-0.815-0.813-0.815c-0.448,0-0.812,0.365-0.812,0.815
	c0,0.448,0.364,0.813,0.812,0.813C179.636,171.594,180,171.229,180,170.78z"/>
<path fill="#00DCE6" d="M180,166.166c0-0.45-0.364-0.814-0.813-0.814c-0.448,0-0.812,0.364-0.812,0.814
	c0,0.449,0.364,0.814,0.812,0.814C179.636,166.98,180,166.615,180,166.166z"/>
<path fill="#00DCE6" d="M180,161.416c0-0.449-0.364-0.814-0.813-0.814c-0.448,0-0.812,0.365-0.812,0.814
	c0,0.45,0.364,0.814,0.812,0.814C179.636,162.23,180,161.866,180,161.416z"/>
<path fill="#00DCE6" d="M180,156.667c0-0.45-0.364-0.814-0.813-0.814c-0.448,0-0.812,0.364-0.812,0.814
	c0,0.449,0.364,0.814,0.812,0.814C179.636,157.481,180,157.116,180,156.667z"/>
<path fill="#00DCE6" d="M180,152.053c0-0.45-0.364-0.813-0.813-0.813c-0.448,0-0.812,0.364-0.812,0.813
	c0,0.45,0.364,0.814,0.812,0.814C179.636,152.867,180,152.503,180,152.053z"/>
<path fill="#00DCE6" d="M180,147.303c0-0.449-0.364-0.813-0.813-0.813c-0.448,0-0.812,0.365-0.812,0.813
	c0,0.45,0.364,0.815,0.812,0.815C179.636,148.118,180,147.753,180,147.303z"/>
<path fill="#00DCE6" d="M180,142.69c0-0.45-0.364-0.815-0.813-0.815c-0.448,0-0.812,0.365-0.812,0.815
	c0,0.449,0.364,0.814,0.812,0.814C179.636,143.504,180,143.139,180,142.69z"/>
<path fill="#00DCE6" d="M180,137.94c0-0.449-0.364-0.814-0.813-0.814c-0.448,0-0.812,0.365-0.812,0.814
	c0,0.45,0.364,0.814,0.812,0.814C179.636,138.754,180,138.39,180,137.94z"/>
<path fill="#00DCE6" d="M180,133.326c0-0.449-0.364-0.814-0.813-0.814c-0.448,0-0.812,0.365-0.812,0.814
	c0,0.45,0.364,0.815,0.812,0.815C179.636,134.141,180,133.776,180,133.326z"/>
<path fill="#00DCE6" d="M180,128.577c0-0.45-0.364-0.814-0.813-0.814c-0.448,0-0.812,0.364-0.812,0.814
	c0,0.45,0.364,0.814,0.812,0.814C179.636,129.391,180,129.027,180,128.577z"/>
<path fill="#00DCE6" d="M180,123.963c0-0.45-0.364-0.814-0.813-0.814c-0.448,0-0.812,0.364-0.812,0.814
	c0,0.45,0.364,0.814,0.812,0.814C179.636,124.777,180,124.413,180,123.963z"/>
<path fill="#00DCE6" d="M180,119.214c0-0.45-0.364-0.815-0.813-0.815c-0.448,0-0.812,0.365-0.812,0.815
	c0,0.449,0.364,0.814,0.812,0.814C179.636,120.028,180,119.663,180,119.214z"/>
<path fill="#00DCE6" d="M180,114.6c0-0.45-0.364-0.814-0.813-0.814c-0.448,0-0.812,0.364-0.812,0.814
	c0,0.45,0.364,0.814,0.812,0.814C179.636,115.414,180,115.05,180,114.6z"/>
<path fill="#00DCE6" d="M180,109.85c0-0.449-0.364-0.814-0.813-0.814c-0.448,0-0.812,0.365-0.812,0.814
	c0,0.45,0.364,0.815,0.812,0.815C179.636,110.665,180,110.3,180,109.85z"/>
<path fill="#00DCE6" d="M180,105.1c0-0.449-0.364-0.814-0.813-0.814c-0.448,0-0.812,0.365-0.812,0.814
	c0,0.45,0.364,0.815,0.812,0.815C179.636,105.915,180,105.55,180,105.1z"/>
<path fill="#00DCE6" d="M180,100.487c0-0.45-0.364-0.814-0.813-0.814c-0.448,0-0.812,0.365-0.812,0.814
	c0,0.449,0.364,0.814,0.812,0.814C179.636,101.301,180,100.936,180,100.487z"/>
<path fill="#00DCE6" d="M142.625,95.873c0-0.45-0.364-0.814-0.813-0.814c-0.448,0-0.812,0.364-0.812,0.814
	c0,0.449,0.364,0.814,0.812,0.814C142.261,96.687,142.625,96.322,142.625,95.873z"/>
<path fill="#00DCE6" d="M142.625,91.123c0-0.449-0.364-0.814-0.813-0.814c-0.448,0-0.812,0.365-0.812,0.814
	c0,0.45,0.364,0.814,0.812,0.814C142.261,91.938,142.625,91.573,142.625,91.123z"/>
<path fill="#00DCE6" d="M142.625,86.374c0-0.45-0.364-0.814-0.813-0.814c-0.448,0-0.812,0.364-0.812,0.814
	c0,0.449,0.364,0.814,0.812,0.814C142.261,87.188,142.625,86.823,142.625,86.374z"/>
<path fill="#00DCE6" d="M142.625,81.76c0-0.449-0.364-0.814-0.813-0.814c-0.448,0-0.812,0.365-0.812,0.814
	c0,0.45,0.364,0.814,0.812,0.814C142.261,82.574,142.625,82.21,142.625,81.76z"/>
<path fill="#00DCE6" d="M142.625,77.011c0-0.45-0.364-0.814-0.813-0.814c-0.448,0-0.812,0.364-0.812,0.814
	c0,0.449,0.364,0.814,0.812,0.814C142.261,77.825,142.625,77.46,142.625,77.011z"/>
<path fill="#00DCE6" d="M142.625,72.396c0-0.449-0.364-0.814-0.813-0.814c-0.448,0-0.812,0.365-0.812,0.814
	c0,0.45,0.364,0.814,0.812,0.814C142.261,73.211,142.625,72.846,142.625,72.396z"/>
<path fill="#00DCE6" d="M142.625,67.647c0-0.45-0.364-0.814-0.813-0.814c-0.448,0-0.812,0.364-0.812,0.814
	c0,0.449,0.364,0.814,0.812,0.814C142.261,68.461,142.625,68.097,142.625,67.647z"/>
<path fill="#00DCE6" d="M142.625,63.034c0-0.45-0.364-0.814-0.813-0.814c-0.448,0-0.812,0.365-0.812,0.814
	c0,0.449,0.364,0.814,0.812,0.814C142.261,63.848,142.625,63.483,142.625,63.034z"/>
<path fill="#00DCE6" d="M142.625,58.284c0-0.45-0.364-0.814-0.813-0.814c-0.448,0-0.812,0.365-0.812,0.814
	c0,0.449,0.364,0.814,0.812,0.814C142.261,59.098,142.625,58.733,142.625,58.284z"/>
<path fill="#00DCE6" d="M142.625,53.67c0-0.45-0.364-0.814-0.813-0.814c-0.448,0-0.812,0.364-0.812,0.814
	c0,0.449,0.364,0.814,0.812,0.814C142.261,54.484,142.625,54.119,142.625,53.67z"/>
<path fill="#00DCE6" d="M142.625,48.92c0-0.45-0.364-0.814-0.813-0.814c-0.448,0-0.812,0.365-0.812,0.814s0.364,0.814,0.812,0.814
	C142.261,49.734,142.625,49.37,142.625,48.92z"/>
<path fill="#00DCE6" d="M142.625,44.307c0-0.45-0.364-0.814-0.813-0.814c-0.448,0-0.812,0.364-0.812,0.814
	c0,0.449,0.364,0.814,0.812,0.814C142.261,45.121,142.625,44.756,142.625,44.307z"/>
<path fill="#00DCE6" d="M142.625,39.557c0-0.449-0.364-0.814-0.813-0.814c-0.448,0-0.812,0.365-0.812,0.814
	c0,0.45,0.364,0.814,0.812,0.814C142.261,40.371,142.625,40.007,142.625,39.557z"/>
<path fill="#00DCE6" d="M142.625,34.808c0-0.45-0.364-0.814-0.813-0.814c-0.448,0-0.812,0.365-0.812,0.814
	c0,0.449,0.364,0.814,0.812,0.814C142.261,35.622,142.625,35.257,142.625,34.808z"/>
<path fill="#00DCE6" d="M142.625,30.193c0-0.449-0.364-0.814-0.813-0.814c-0.448,0-0.812,0.365-0.812,0.814
	c0,0.45,0.364,0.814,0.812,0.814C142.261,31.008,142.625,30.644,142.625,30.193z"/>
<path fill="#00DCE6" d="M147.228,95.873c0-0.45-0.364-0.814-0.812-0.814c-0.449,0-0.813,0.364-0.813,0.814
	c0,0.449,0.364,0.814,0.813,0.814C146.864,96.687,147.228,96.322,147.228,95.873z"/>
<path fill="#00DCE6" d="M147.228,91.123c0-0.449-0.364-0.814-0.812-0.814c-0.449,0-0.813,0.365-0.813,0.814
	c0,0.45,0.364,0.814,0.813,0.814C146.864,91.938,147.228,91.573,147.228,91.123z"/>
<path fill="#00DCE6" d="M147.228,86.374c0-0.45-0.364-0.814-0.812-0.814c-0.449,0-0.813,0.364-0.813,0.814
	c0,0.449,0.364,0.814,0.813,0.814C146.864,87.188,147.228,86.823,147.228,86.374z"/>
<path fill="#00DCE6" d="M147.228,81.76c0-0.449-0.364-0.814-0.812-0.814c-0.449,0-0.813,0.365-0.813,0.814
	c0,0.45,0.364,0.814,0.813,0.814C146.864,82.574,147.228,82.21,147.228,81.76z"/>
<path fill="#00DCE6" d="M147.228,77.011c0-0.45-0.364-0.814-0.812-0.814c-0.449,0-0.813,0.364-0.813,0.814
	c0,0.449,0.364,0.814,0.813,0.814C146.864,77.825,147.228,77.46,147.228,77.011z"/>
<path fill="#00DCE6" d="M147.228,72.396c0-0.449-0.364-0.814-0.812-0.814c-0.449,0-0.813,0.365-0.813,0.814
	c0,0.45,0.364,0.814,0.813,0.814C146.864,73.211,147.228,72.846,147.228,72.396z"/>
<path fill="#00DCE6" d="M147.228,67.647c0-0.45-0.364-0.814-0.812-0.814c-0.449,0-0.813,0.364-0.813,0.814
	c0,0.449,0.364,0.814,0.813,0.814C146.864,68.461,147.228,68.097,147.228,67.647z"/>
<path fill="#00DCE6" d="M147.228,63.034c0-0.45-0.364-0.814-0.812-0.814c-0.449,0-0.813,0.365-0.813,0.814
	c0,0.449,0.364,0.814,0.813,0.814C146.864,63.848,147.228,63.483,147.228,63.034z"/>
<path fill="#00DCE6" d="M147.228,58.284c0-0.45-0.364-0.814-0.812-0.814c-0.449,0-0.813,0.365-0.813,0.814
	c0,0.449,0.364,0.814,0.813,0.814C146.864,59.098,147.228,58.733,147.228,58.284z"/>
<path fill="#00DCE6" d="M147.228,53.67c0-0.45-0.364-0.814-0.812-0.814c-0.449,0-0.813,0.364-0.813,0.814
	c0,0.449,0.364,0.814,0.813,0.814C146.864,54.484,147.228,54.119,147.228,53.67z"/>
<path fill="#00DCE6" d="M147.228,48.92c0-0.45-0.364-0.814-0.812-0.814c-0.449,0-0.813,0.365-0.813,0.814s0.364,0.814,0.813,0.814
	C146.864,49.734,147.228,49.37,147.228,48.92z"/>
<path fill="#00DCE6" d="M147.228,44.307c0-0.45-0.364-0.814-0.812-0.814c-0.449,0-0.813,0.364-0.813,0.814
	c0,0.449,0.364,0.814,0.813,0.814C146.864,45.121,147.228,44.756,147.228,44.307z"/>
<path fill="#00DCE6" d="M147.228,39.557c0-0.449-0.364-0.814-0.812-0.814c-0.449,0-0.813,0.365-0.813,0.814
	c0,0.45,0.364,0.814,0.813,0.814C146.864,40.371,147.228,40.007,147.228,39.557z"/>
<path fill="#00DCE6" d="M147.228,34.808c0-0.45-0.364-0.814-0.812-0.814c-0.449,0-0.813,0.365-0.813,0.814
	c0,0.449,0.364,0.814,0.813,0.814C146.864,35.622,147.228,35.257,147.228,34.808z"/>
<path fill="#00DCE6" d="M147.228,30.193c0-0.449-0.364-0.814-0.812-0.814c-0.449,0-0.813,0.365-0.813,0.814
	c0,0.45,0.364,0.814,0.813,0.814C146.864,31.008,147.228,30.644,147.228,30.193z"/>
<path fill="#00DCE6" d="M151.969,95.873c0-0.45-0.364-0.814-0.813-0.814c-0.448,0-0.813,0.364-0.813,0.814
	c0,0.449,0.364,0.814,0.813,0.814C151.605,96.687,151.969,96.322,151.969,95.873z"/>
<path fill="#00DCE6" d="M151.969,91.123c0-0.449-0.364-0.814-0.813-0.814c-0.448,0-0.813,0.365-0.813,0.814
	c0,0.45,0.364,0.814,0.813,0.814C151.605,91.938,151.969,91.573,151.969,91.123z"/>
<path fill="#00DCE6" d="M151.969,86.374c0-0.45-0.364-0.814-0.813-0.814c-0.448,0-0.813,0.364-0.813,0.814
	c0,0.449,0.364,0.814,0.813,0.814C151.605,87.188,151.969,86.823,151.969,86.374z"/>
<path fill="#00DCE6" d="M151.969,81.76c0-0.449-0.364-0.814-0.813-0.814c-0.448,0-0.813,0.365-0.813,0.814
	c0,0.45,0.364,0.814,0.813,0.814C151.605,82.574,151.969,82.21,151.969,81.76z"/>
<path fill="#00DCE6" d="M151.969,77.011c0-0.45-0.364-0.814-0.813-0.814c-0.448,0-0.813,0.364-0.813,0.814
	c0,0.449,0.364,0.814,0.813,0.814C151.605,77.825,151.969,77.46,151.969,77.011z"/>
<path fill="#00DCE6" d="M151.969,72.396c0-0.449-0.364-0.814-0.813-0.814c-0.448,0-0.813,0.365-0.813,0.814
	c0,0.45,0.364,0.814,0.813,0.814C151.605,73.211,151.969,72.846,151.969,72.396z"/>
<path fill="#00DCE6" d="M151.969,67.647c0-0.45-0.364-0.814-0.813-0.814c-0.448,0-0.813,0.364-0.813,0.814
	c0,0.449,0.364,0.814,0.813,0.814C151.605,68.461,151.969,68.097,151.969,67.647z"/>
<path fill="#00DCE6" d="M151.969,63.034c0-0.45-0.364-0.814-0.813-0.814c-0.448,0-0.813,0.365-0.813,0.814
	c0,0.449,0.364,0.814,0.813,0.814C151.605,63.848,151.969,63.483,151.969,63.034z"/>
<path fill="#00DCE6" d="M151.969,58.284c0-0.45-0.364-0.814-0.813-0.814c-0.448,0-0.813,0.365-0.813,0.814
	c0,0.449,0.364,0.814,0.813,0.814C151.605,59.098,151.969,58.733,151.969,58.284z"/>
<path fill="#00DCE6" d="M151.969,53.67c0-0.45-0.364-0.814-0.813-0.814c-0.448,0-0.813,0.364-0.813,0.814
	c0,0.449,0.364,0.814,0.813,0.814C151.605,54.484,151.969,54.119,151.969,53.67z"/>
<path fill="#00DCE6" d="M151.969,48.92c0-0.45-0.364-0.814-0.813-0.814c-0.448,0-0.813,0.365-0.813,0.814s0.364,0.814,0.813,0.814
	C151.605,49.734,151.969,49.37,151.969,48.92z"/>
<path fill="#00DCE6" d="M151.969,44.307c0-0.45-0.364-0.814-0.813-0.814c-0.448,0-0.813,0.364-0.813,0.814
	c0,0.449,0.364,0.814,0.813,0.814C151.605,45.121,151.969,44.756,151.969,44.307z"/>
<path fill="#00DCE6" d="M151.969,39.557c0-0.449-0.364-0.814-0.813-0.814c-0.448,0-0.813,0.365-0.813,0.814
	c0,0.45,0.364,0.814,0.813,0.814C151.605,40.371,151.969,40.007,151.969,39.557z"/>
<path fill="#00DCE6" d="M151.969,34.808c0-0.45-0.364-0.814-0.813-0.814c-0.448,0-0.813,0.365-0.813,0.814
	c0,0.449,0.364,0.814,0.813,0.814C151.605,35.622,151.969,35.257,151.969,34.808z"/>
<path fill="#00DCE6" d="M151.969,30.193c0-0.449-0.364-0.814-0.813-0.814c-0.448,0-0.813,0.365-0.813,0.814
	c0,0.45,0.364,0.814,0.813,0.814C151.605,31.008,151.969,30.644,151.969,30.193z"/>
<path fill="#00DCE6" d="M156.708,95.873c0-0.45-0.363-0.814-0.812-0.814s-0.813,0.364-0.813,0.814c0,0.449,0.364,0.814,0.813,0.814
	S156.708,96.322,156.708,95.873z"/>
<path fill="#00DCE6" d="M156.708,91.123c0-0.449-0.363-0.814-0.812-0.814s-0.813,0.365-0.813,0.814c0,0.45,0.364,0.814,0.813,0.814
	S156.708,91.573,156.708,91.123z"/>
<path fill="#00DCE6" d="M156.708,86.374c0-0.45-0.363-0.814-0.812-0.814s-0.813,0.364-0.813,0.814c0,0.449,0.364,0.814,0.813,0.814
	S156.708,86.823,156.708,86.374z"/>
<path fill="#00DCE6" d="M156.708,81.76c0-0.449-0.363-0.814-0.812-0.814s-0.813,0.365-0.813,0.814c0,0.45,0.364,0.814,0.813,0.814
	S156.708,82.21,156.708,81.76z"/>
<path fill="#00DCE6" d="M156.708,77.011c0-0.45-0.363-0.814-0.812-0.814s-0.813,0.364-0.813,0.814c0,0.449,0.364,0.814,0.813,0.814
	S156.708,77.46,156.708,77.011z"/>
<path fill="#00DCE6" d="M156.708,72.396c0-0.449-0.363-0.814-0.812-0.814s-0.813,0.365-0.813,0.814c0,0.45,0.364,0.814,0.813,0.814
	S156.708,72.846,156.708,72.396z"/>
<path fill="#00DCE6" d="M156.708,67.647c0-0.45-0.363-0.814-0.812-0.814s-0.813,0.364-0.813,0.814c0,0.449,0.364,0.814,0.813,0.814
	S156.708,68.097,156.708,67.647z"/>
<path fill="#00DCE6" d="M156.708,63.034c0-0.45-0.363-0.814-0.812-0.814s-0.813,0.365-0.813,0.814c0,0.449,0.364,0.814,0.813,0.814
	S156.708,63.483,156.708,63.034z"/>
<path fill="#00DCE6" d="M156.708,58.284c0-0.45-0.363-0.814-0.812-0.814s-0.813,0.365-0.813,0.814c0,0.449,0.364,0.814,0.813,0.814
	S156.708,58.733,156.708,58.284z"/>
<path fill="#00DCE6" d="M156.708,53.67c0-0.45-0.363-0.814-0.812-0.814s-0.813,0.364-0.813,0.814c0,0.449,0.364,0.814,0.813,0.814
	S156.708,54.119,156.708,53.67z"/>
<path fill="#00DCE6" d="M156.708,48.92c0-0.45-0.363-0.814-0.812-0.814s-0.813,0.365-0.813,0.814s0.364,0.814,0.813,0.814
	S156.708,49.37,156.708,48.92z"/>
<path fill="#00DCE6" d="M156.708,44.307c0-0.45-0.363-0.814-0.812-0.814s-0.813,0.364-0.813,0.814c0,0.449,0.364,0.814,0.813,0.814
	S156.708,44.756,156.708,44.307z"/>
<path fill="#00DCE6" d="M156.708,39.557c0-0.449-0.363-0.814-0.812-0.814s-0.813,0.365-0.813,0.814c0,0.45,0.364,0.814,0.813,0.814
	S156.708,40.007,156.708,39.557z"/>
<path fill="#00DCE6" d="M156.708,34.808c0-0.45-0.363-0.814-0.812-0.814s-0.813,0.365-0.813,0.814c0,0.449,0.364,0.814,0.813,0.814
	S156.708,35.257,156.708,34.808z"/>
<path fill="#00DCE6" d="M156.708,30.193c0-0.449-0.363-0.814-0.812-0.814s-0.813,0.365-0.813,0.814c0,0.45,0.364,0.814,0.813,0.814
	S156.708,30.644,156.708,30.193z"/>
<path fill="#00DCE6" d="M161.312,95.873c0-0.45-0.364-0.814-0.812-0.814c-0.449,0-0.813,0.364-0.813,0.814
	c0,0.449,0.364,0.814,0.813,0.814C160.948,96.687,161.312,96.322,161.312,95.873z"/>
<path fill="#00DCE6" d="M161.312,91.123c0-0.449-0.364-0.814-0.812-0.814c-0.449,0-0.813,0.365-0.813,0.814
	c0,0.45,0.364,0.814,0.813,0.814C160.948,91.938,161.312,91.573,161.312,91.123z"/>
<path fill="#00DCE6" d="M161.312,86.374c0-0.45-0.364-0.814-0.812-0.814c-0.449,0-0.813,0.364-0.813,0.814
	c0,0.449,0.364,0.814,0.813,0.814C160.948,87.188,161.312,86.823,161.312,86.374z"/>
<path fill="#00DCE6" d="M161.312,81.76c0-0.449-0.364-0.814-0.812-0.814c-0.449,0-0.813,0.365-0.813,0.814
	c0,0.45,0.364,0.814,0.813,0.814C160.948,82.574,161.312,82.21,161.312,81.76z"/>
<path fill="#00DCE6" d="M161.312,77.011c0-0.45-0.364-0.814-0.812-0.814c-0.449,0-0.813,0.364-0.813,0.814
	c0,0.449,0.364,0.814,0.813,0.814C160.948,77.825,161.312,77.46,161.312,77.011z"/>
<path fill="#00DCE6" d="M161.312,72.396c0-0.449-0.364-0.814-0.812-0.814c-0.449,0-0.813,0.365-0.813,0.814
	c0,0.45,0.364,0.814,0.813,0.814C160.948,73.211,161.312,72.846,161.312,72.396z"/>
<path fill="#00DCE6" d="M161.312,67.647c0-0.45-0.364-0.814-0.812-0.814c-0.449,0-0.813,0.364-0.813,0.814
	c0,0.449,0.364,0.814,0.813,0.814C160.948,68.461,161.312,68.097,161.312,67.647z"/>
<path fill="#00DCE6" d="M161.312,63.034c0-0.45-0.364-0.814-0.812-0.814c-0.449,0-0.813,0.365-0.813,0.814
	c0,0.449,0.364,0.814,0.813,0.814C160.948,63.848,161.312,63.483,161.312,63.034z"/>
<path fill="#00DCE6" d="M161.312,58.284c0-0.45-0.364-0.814-0.812-0.814c-0.449,0-0.813,0.365-0.813,0.814
	c0,0.449,0.364,0.814,0.813,0.814C160.948,59.098,161.312,58.733,161.312,58.284z"/>
<path fill="#00DCE6" d="M161.312,53.67c0-0.45-0.364-0.814-0.812-0.814c-0.449,0-0.813,0.364-0.813,0.814
	c0,0.449,0.364,0.814,0.813,0.814C160.948,54.484,161.312,54.119,161.312,53.67z"/>
<path fill="#00DCE6" d="M161.312,48.92c0-0.45-0.364-0.814-0.812-0.814c-0.449,0-0.813,0.365-0.813,0.814s0.364,0.814,0.813,0.814
	C160.948,49.734,161.312,49.37,161.312,48.92z"/>
<path fill="#00DCE6" d="M161.312,44.307c0-0.45-0.364-0.814-0.812-0.814c-0.449,0-0.813,0.364-0.813,0.814
	c0,0.449,0.364,0.814,0.813,0.814C160.948,45.121,161.312,44.756,161.312,44.307z"/>
<path fill="#00DCE6" d="M161.312,39.557c0-0.449-0.364-0.814-0.812-0.814c-0.449,0-0.813,0.365-0.813,0.814
	c0,0.45,0.364,0.814,0.813,0.814C160.948,40.371,161.312,40.007,161.312,39.557z"/>
<path fill="#00DCE6" d="M161.312,34.808c0-0.45-0.364-0.814-0.812-0.814c-0.449,0-0.813,0.365-0.813,0.814
	c0,0.449,0.364,0.814,0.813,0.814C160.948,35.622,161.312,35.257,161.312,34.808z"/>
<path fill="#00DCE6" d="M161.312,30.193c0-0.449-0.364-0.814-0.812-0.814c-0.449,0-0.813,0.365-0.813,0.814
	c0,0.45,0.364,0.814,0.813,0.814C160.948,31.008,161.312,30.644,161.312,30.193z"/>
<path fill="#00DCE6" d="M166.052,95.873c0-0.45-0.364-0.814-0.813-0.814c-0.448,0-0.812,0.364-0.812,0.814
	c0,0.449,0.364,0.814,0.812,0.814C165.688,96.687,166.052,96.322,166.052,95.873z"/>
<path fill="#00DCE6" d="M166.052,91.123c0-0.449-0.364-0.814-0.813-0.814c-0.448,0-0.812,0.365-0.812,0.814
	c0,0.45,0.364,0.814,0.812,0.814C165.688,91.938,166.052,91.573,166.052,91.123z"/>
<path fill="#00DCE6" d="M166.052,86.374c0-0.45-0.364-0.814-0.813-0.814c-0.448,0-0.812,0.364-0.812,0.814
	c0,0.449,0.364,0.814,0.812,0.814C165.688,87.188,166.052,86.823,166.052,86.374z"/>
<path fill="#00DCE6" d="M166.052,81.76c0-0.449-0.364-0.814-0.813-0.814c-0.448,0-0.812,0.365-0.812,0.814
	c0,0.45,0.364,0.814,0.812,0.814C165.688,82.574,166.052,82.21,166.052,81.76z"/>
<path fill="#00DCE6" d="M166.052,77.011c0-0.45-0.364-0.814-0.813-0.814c-0.448,0-0.812,0.364-0.812,0.814
	c0,0.449,0.364,0.814,0.812,0.814C165.688,77.825,166.052,77.46,166.052,77.011z"/>
<path fill="#00DCE6" d="M166.052,72.396c0-0.449-0.364-0.814-0.813-0.814c-0.448,0-0.812,0.365-0.812,0.814
	c0,0.45,0.364,0.814,0.812,0.814C165.688,73.211,166.052,72.846,166.052,72.396z"/>
<path fill="#00DCE6" d="M166.052,67.647c0-0.45-0.364-0.814-0.813-0.814c-0.448,0-0.812,0.364-0.812,0.814
	c0,0.449,0.364,0.814,0.812,0.814C165.688,68.461,166.052,68.097,166.052,67.647z"/>
<path fill="#00DCE6" d="M166.052,63.034c0-0.45-0.364-0.814-0.813-0.814c-0.448,0-0.812,0.365-0.812,0.814
	c0,0.449,0.364,0.814,0.812,0.814C165.688,63.848,166.052,63.483,166.052,63.034z"/>
<path fill="#00DCE6" d="M166.052,58.284c0-0.45-0.364-0.814-0.813-0.814c-0.448,0-0.812,0.365-0.812,0.814
	c0,0.449,0.364,0.814,0.812,0.814C165.688,59.098,166.052,58.733,166.052,58.284z"/>
<path fill="#00DCE6" d="M166.052,53.67c0-0.45-0.364-0.814-0.813-0.814c-0.448,0-0.812,0.364-0.812,0.814
	c0,0.449,0.364,0.814,0.812,0.814C165.688,54.484,166.052,54.119,166.052,53.67z"/>
<path fill="#00DCE6" d="M166.052,48.92c0-0.45-0.364-0.814-0.813-0.814c-0.448,0-0.812,0.365-0.812,0.814s0.364,0.814,0.812,0.814
	C165.688,49.734,166.052,49.37,166.052,48.92z"/>
<path fill="#00DCE6" d="M166.052,44.307c0-0.45-0.364-0.814-0.813-0.814c-0.448,0-0.812,0.364-0.812,0.814
	c0,0.449,0.364,0.814,0.812,0.814C165.688,45.121,166.052,44.756,166.052,44.307z"/>
<path fill="#00DCE6" d="M166.052,39.557c0-0.449-0.364-0.814-0.813-0.814c-0.448,0-0.812,0.365-0.812,0.814
	c0,0.45,0.364,0.814,0.812,0.814C165.688,40.371,166.052,40.007,166.052,39.557z"/>
<path fill="#00DCE6" d="M166.052,34.808c0-0.45-0.364-0.814-0.813-0.814c-0.448,0-0.812,0.365-0.812,0.814
	c0,0.449,0.364,0.814,0.812,0.814C165.688,35.622,166.052,35.257,166.052,34.808z"/>
<path fill="#00DCE6" d="M166.052,30.193c0-0.449-0.364-0.814-0.813-0.814c-0.448,0-0.812,0.365-0.812,0.814
	c0,0.45,0.364,0.814,0.812,0.814C165.688,31.008,166.052,30.644,166.052,30.193z"/>
<path fill="#00DCE6" d="M170.656,95.873c0-0.45-0.364-0.814-0.813-0.814c-0.449,0-0.813,0.364-0.813,0.814
	c0,0.449,0.364,0.814,0.813,0.814C170.292,96.687,170.656,96.322,170.656,95.873z"/>
<path fill="#00DCE6" d="M170.656,91.123c0-0.449-0.364-0.814-0.813-0.814c-0.449,0-0.813,0.365-0.813,0.814
	c0,0.45,0.364,0.814,0.813,0.814C170.292,91.938,170.656,91.573,170.656,91.123z"/>
<path fill="#00DCE6" d="M170.656,86.374c0-0.45-0.364-0.814-0.813-0.814c-0.449,0-0.813,0.364-0.813,0.814
	c0,0.449,0.364,0.814,0.813,0.814C170.292,87.188,170.656,86.823,170.656,86.374z"/>
<path fill="#00DCE6" d="M170.656,81.76c0-0.449-0.364-0.814-0.813-0.814c-0.449,0-0.813,0.365-0.813,0.814
	c0,0.45,0.364,0.814,0.813,0.814C170.292,82.574,170.656,82.21,170.656,81.76z"/>
<path fill="#00DCE6" d="M170.656,77.011c0-0.45-0.364-0.814-0.813-0.814c-0.449,0-0.813,0.364-0.813,0.814
	c0,0.449,0.364,0.814,0.813,0.814C170.292,77.825,170.656,77.46,170.656,77.011z"/>
<path fill="#00DCE6" d="M170.656,72.396c0-0.449-0.364-0.814-0.813-0.814c-0.449,0-0.813,0.365-0.813,0.814
	c0,0.45,0.364,0.814,0.813,0.814C170.292,73.211,170.656,72.846,170.656,72.396z"/>
<path fill="#00DCE6" d="M170.656,67.647c0-0.45-0.364-0.814-0.813-0.814c-0.449,0-0.813,0.364-0.813,0.814
	c0,0.449,0.364,0.814,0.813,0.814C170.292,68.461,170.656,68.097,170.656,67.647z"/>
<path fill="#00DCE6" d="M170.656,63.034c0-0.45-0.364-0.814-0.813-0.814c-0.449,0-0.813,0.365-0.813,0.814
	c0,0.449,0.364,0.814,0.813,0.814C170.292,63.848,170.656,63.483,170.656,63.034z"/>
<path fill="#00DCE6" d="M170.656,58.284c0-0.45-0.364-0.814-0.813-0.814c-0.449,0-0.813,0.365-0.813,0.814
	c0,0.449,0.364,0.814,0.813,0.814C170.292,59.098,170.656,58.733,170.656,58.284z"/>
<path fill="#00DCE6" d="M170.656,53.67c0-0.45-0.364-0.814-0.813-0.814c-0.449,0-0.813,0.364-0.813,0.814
	c0,0.449,0.364,0.814,0.813,0.814C170.292,54.484,170.656,54.119,170.656,53.67z"/>
<path fill="#00DCE6" d="M170.656,48.92c0-0.45-0.364-0.814-0.813-0.814c-0.449,0-0.813,0.365-0.813,0.814s0.364,0.814,0.813,0.814
	C170.292,49.734,170.656,49.37,170.656,48.92z"/>
<path fill="#00DCE6" d="M170.656,44.307c0-0.45-0.364-0.814-0.813-0.814c-0.449,0-0.813,0.364-0.813,0.814
	c0,0.449,0.364,0.814,0.813,0.814C170.292,45.121,170.656,44.756,170.656,44.307z"/>
<path fill="#00DCE6" d="M170.656,39.557c0-0.449-0.364-0.814-0.813-0.814c-0.449,0-0.813,0.365-0.813,0.814
	c0,0.45,0.364,0.814,0.813,0.814C170.292,40.371,170.656,40.007,170.656,39.557z"/>
<path fill="#00DCE6" d="M170.656,34.808c0-0.45-0.364-0.814-0.813-0.814c-0.449,0-0.813,0.365-0.813,0.814
	c0,0.449,0.364,0.814,0.813,0.814C170.292,35.622,170.656,35.257,170.656,34.808z"/>
<path fill="#00DCE6" d="M170.656,30.193c0-0.449-0.364-0.814-0.813-0.814c-0.449,0-0.813,0.365-0.813,0.814
	c0,0.45,0.364,0.814,0.813,0.814C170.292,31.008,170.656,30.644,170.656,30.193z"/>
<path fill="#00DCE6" d="M175.396,95.873c0-0.45-0.364-0.814-0.813-0.814c-0.448,0-0.812,0.364-0.812,0.814
	c0,0.449,0.364,0.814,0.812,0.814C175.032,96.687,175.396,96.322,175.396,95.873z"/>
<path fill="#00DCE6" d="M175.396,91.123c0-0.449-0.364-0.814-0.813-0.814c-0.448,0-0.812,0.365-0.812,0.814
	c0,0.45,0.364,0.814,0.812,0.814C175.032,91.938,175.396,91.573,175.396,91.123z"/>
<path fill="#00DCE6" d="M175.396,86.374c0-0.45-0.364-0.814-0.813-0.814c-0.448,0-0.812,0.364-0.812,0.814
	c0,0.449,0.364,0.814,0.812,0.814C175.032,87.188,175.396,86.823,175.396,86.374z"/>
<path fill="#00DCE6" d="M175.396,81.76c0-0.449-0.364-0.814-0.813-0.814c-0.448,0-0.812,0.365-0.812,0.814
	c0,0.45,0.364,0.814,0.812,0.814C175.032,82.574,175.396,82.21,175.396,81.76z"/>
<path fill="#00DCE6" d="M175.396,77.011c0-0.45-0.364-0.814-0.813-0.814c-0.448,0-0.812,0.364-0.812,0.814
	c0,0.449,0.364,0.814,0.812,0.814C175.032,77.825,175.396,77.46,175.396,77.011z"/>
<path fill="#00DCE6" d="M175.396,72.396c0-0.449-0.364-0.814-0.813-0.814c-0.448,0-0.812,0.365-0.812,0.814
	c0,0.45,0.364,0.814,0.812,0.814C175.032,73.211,175.396,72.846,175.396,72.396z"/>
<path fill="#00DCE6" d="M175.396,67.647c0-0.45-0.364-0.814-0.813-0.814c-0.448,0-0.812,0.364-0.812,0.814
	c0,0.449,0.364,0.814,0.812,0.814C175.032,68.461,175.396,68.097,175.396,67.647z"/>
<path fill="#00DCE6" d="M175.396,63.034c0-0.45-0.364-0.814-0.813-0.814c-0.448,0-0.812,0.365-0.812,0.814
	c0,0.449,0.364,0.814,0.812,0.814C175.032,63.848,175.396,63.483,175.396,63.034z"/>
<path fill="#00DCE6" d="M175.396,58.284c0-0.45-0.364-0.814-0.813-0.814c-0.448,0-0.812,0.365-0.812,0.814
	c0,0.449,0.364,0.814,0.812,0.814C175.032,59.098,175.396,58.733,175.396,58.284z"/>
<path fill="#00DCE6" d="M175.396,53.67c0-0.45-0.364-0.814-0.813-0.814c-0.448,0-0.812,0.364-0.812,0.814
	c0,0.449,0.364,0.814,0.812,0.814C175.032,54.484,175.396,54.119,175.396,53.67z"/>
<path fill="#00DCE6" d="M175.396,48.92c0-0.45-0.364-0.814-0.813-0.814c-0.448,0-0.812,0.365-0.812,0.814s0.364,0.814,0.812,0.814
	C175.032,49.734,175.396,49.37,175.396,48.92z"/>
<path fill="#00DCE6" d="M175.396,44.307c0-0.45-0.364-0.814-0.813-0.814c-0.448,0-0.812,0.364-0.812,0.814
	c0,0.449,0.364,0.814,0.812,0.814C175.032,45.121,175.396,44.756,175.396,44.307z"/>
<path fill="#00DCE6" d="M175.396,39.557c0-0.449-0.364-0.814-0.813-0.814c-0.448,0-0.812,0.365-0.812,0.814
	c0,0.45,0.364,0.814,0.812,0.814C175.032,40.371,175.396,40.007,175.396,39.557z"/>
<path fill="#00DCE6" d="M175.396,34.808c0-0.45-0.364-0.814-0.813-0.814c-0.448,0-0.812,0.365-0.812,0.814
	c0,0.449,0.364,0.814,0.812,0.814C175.032,35.622,175.396,35.257,175.396,34.808z"/>
<path fill="#00DCE6" d="M175.396,30.193c0-0.449-0.364-0.814-0.813-0.814c-0.448,0-0.812,0.365-0.812,0.814
	c0,0.45,0.364,0.814,0.812,0.814C175.032,31.008,175.396,30.644,175.396,30.193z"/>
<path fill="#00DCE6" d="M180,95.873c0-0.45-0.364-0.814-0.813-0.814c-0.448,0-0.812,0.364-0.812,0.814
	c0,0.449,0.364,0.814,0.812,0.814C179.636,96.687,180,96.322,180,95.873z"/>
<path fill="#00DCE6" d="M180,91.123c0-0.449-0.364-0.814-0.813-0.814c-0.448,0-0.812,0.365-0.812,0.814
	c0,0.45,0.364,0.814,0.812,0.814C179.636,91.938,180,91.573,180,91.123z"/>
<path fill="#00DCE6" d="M180,86.374c0-0.45-0.364-0.814-0.813-0.814c-0.448,0-0.812,0.364-0.812,0.814
	c0,0.449,0.364,0.814,0.812,0.814C179.636,87.188,180,86.823,180,86.374z"/>
<path fill="#00DCE6" d="M180,81.76c0-0.449-0.364-0.814-0.813-0.814c-0.448,0-0.812,0.365-0.812,0.814
	c0,0.45,0.364,0.814,0.812,0.814C179.636,82.574,180,82.21,180,81.76z"/>
<path fill="#00DCE6" d="M180,77.011c0-0.45-0.364-0.814-0.813-0.814c-0.448,0-0.812,0.364-0.812,0.814
	c0,0.449,0.364,0.814,0.812,0.814C179.636,77.825,180,77.46,180,77.011z"/>
<path fill="#00DCE6" d="M180,72.396c0-0.449-0.364-0.814-0.813-0.814c-0.448,0-0.812,0.365-0.812,0.814
	c0,0.45,0.364,0.814,0.812,0.814C179.636,73.211,180,72.846,180,72.396z"/>
<path fill="#00DCE6" d="M180,67.647c0-0.45-0.364-0.814-0.813-0.814c-0.448,0-0.812,0.364-0.812,0.814
	c0,0.449,0.364,0.814,0.812,0.814C179.636,68.461,180,68.097,180,67.647z"/>
<path fill="#00DCE6" d="M180,63.034c0-0.45-0.364-0.814-0.813-0.814c-0.448,0-0.812,0.365-0.812,0.814
	c0,0.449,0.364,0.814,0.812,0.814C179.636,63.848,180,63.483,180,63.034z"/>
<path fill="#00DCE6" d="M180,58.284c0-0.45-0.364-0.814-0.813-0.814c-0.448,0-0.812,0.365-0.812,0.814
	c0,0.449,0.364,0.814,0.812,0.814C179.636,59.098,180,58.733,180,58.284z"/>
<path fill="#00DCE6" d="M180,53.67c0-0.45-0.364-0.814-0.813-0.814c-0.448,0-0.812,0.364-0.812,0.814
	c0,0.449,0.364,0.814,0.812,0.814C179.636,54.484,180,54.119,180,53.67z"/>
<path fill="#00DCE6" d="M180,48.92c0-0.45-0.364-0.814-0.813-0.814c-0.448,0-0.812,0.365-0.812,0.814s0.364,0.814,0.812,0.814
	C179.636,49.734,180,49.37,180,48.92z"/>
<path fill="#00DCE6" d="M180,44.307c0-0.45-0.364-0.814-0.813-0.814c-0.448,0-0.812,0.364-0.812,0.814
	c0,0.449,0.364,0.814,0.812,0.814C179.636,45.121,180,44.756,180,44.307z"/>
<path fill="#00DCE6" d="M180,39.557c0-0.449-0.364-0.814-0.813-0.814c-0.448,0-0.812,0.365-0.812,0.814
	c0,0.45,0.364,0.814,0.812,0.814C179.636,40.371,180,40.007,180,39.557z"/>
<path fill="#00DCE6" d="M180,34.808c0-0.45-0.364-0.814-0.813-0.814c-0.448,0-0.812,0.365-0.812,0.814
	c0,0.449,0.364,0.814,0.812,0.814C179.636,35.622,180,35.257,180,34.808z"/>
<path fill="#00DCE6" d="M180,30.193c0-0.449-0.364-0.814-0.813-0.814c-0.448,0-0.812,0.365-0.812,0.814
	c0,0.45,0.364,0.814,0.812,0.814C179.636,31.008,180,30.644,180,30.193z"/>
<path fill="none" stroke="#00DCE6" d="M92,141h90"/>
<circle fill="#00DCE6" fill-opacity="0.2" cx="84" cy="259" r="26"/>
<circle fill="#00DCE6" cx="84" cy="259" r="12"/>
<circle fill="#FFFFFF" cx="84" cy="259" r="6"/>
<path fill="#FFFFFF" d="M99.063,274.811c4.019-3.83,6.601-9.174,6.81-15.16c0.424-12.143-9.076-22.33-21.219-22.754
	c-5.986-0.209-11.497,1.994-15.598,5.736l0.682,0.731c3.913-3.568,9.17-5.669,14.881-5.468c11.591,0.404,20.659,10.129,20.254,21.72
	c-0.199,5.71-2.661,10.809-6.493,14.463L99.063,274.811z"/>
<defs>
	<filter id="Adobe_OpacityMaskFilter" filterUnits="userSpaceOnUse" x="67.636" y="235.883" width="39.251" height="40.35">
		<feColorMatrix  type="matrix" values="1 0 0 0 0  0 1 0 0 0  0 0 1 0 0  0 0 0 1 0"/>
	</filter>
</defs>
<mask maskUnits="userSpaceOnUse" x="67.636" y="235.883" width="39.251" height="40.35" id="path-485-inside-1">
	<path fill="#FFFFFF" filter="url(#Adobe_OpacityMaskFilter)" d="M99.063,274.811c4.019-3.83,6.601-9.174,6.81-15.16
		c0.424-12.143-9.076-22.33-21.219-22.754c-5.986-0.209-11.497,1.994-15.598,5.736l0.682,0.731c3.913-3.568,9.17-5.669,14.881-5.468
		c11.591,0.404,20.659,10.129,20.254,21.72c-0.199,5.71-2.661,10.809-6.493,14.463L99.063,274.811z"/>
</mask>
<path mask="url(#path-485-inside-1)" fill="#FFFFFF" d="M99.063,274.811l-0.731,0.683l0.689,0.739l0.731-0.697L99.063,274.811z
	 M105.873,259.65l-0.999-0.034L105.873,259.65z M84.654,236.896l0.035-1L84.654,236.896z M69.057,242.633l-0.674-0.738l-0.746,0.682
	l0.689,0.738L69.057,242.633z M69.739,243.364l-0.731,0.682l0.674,0.724l0.731-0.666L69.739,243.364z M84.62,237.896l-0.035,0.998
	L84.62,237.896z M104.874,259.616l0.999,0.034L104.874,259.616z M98.381,274.079l-0.69-0.724l-0.716,0.683l0.674,0.723
	L98.381,274.079z M99.752,275.535c4.202-4.003,6.901-9.592,7.121-15.85l-1.999-0.069c-0.2,5.715-2.663,10.813-6.501,14.471
	L99.752,275.535z M106.873,259.686c0.443-12.694-9.489-23.346-22.184-23.789l-0.07,2c11.591,0.404,20.659,10.129,20.254,21.72
	L106.873,259.686z M84.689,235.896c-6.258-0.217-12.021,2.086-16.307,5.998l1.349,1.477c3.915-3.573,9.174-5.676,14.889-5.475
	L84.689,235.896z M68.325,243.314l0.682,0.731l1.463-1.364l-0.682-0.73L68.325,243.314z M70.413,244.104
	c3.728-3.399,8.733-5.398,14.172-5.209l0.07-1.998c-5.982-0.209-11.491,1.992-15.589,5.729L70.413,244.104z M84.584,238.895
	c11.039,0.387,19.675,9.647,19.291,20.687l1.998,0.069c0.424-12.143-9.076-22.33-21.219-22.754L84.584,238.895z M103.875,259.581
	c-0.19,5.438-2.534,10.293-6.184,13.774l1.38,1.447c4.014-3.828,6.593-9.17,6.802-15.152L103.875,259.581z M97.649,274.761
	l0.682,0.732l1.463-1.364l-0.682-0.732L97.649,274.761z"/>
<path fill="#FFFFFF" d="M64.838,300.816l-0.007-0.008c-0.329-0.359-0.986-0.779-2.112-1.205c-1.202-0.455-2.253-0.91-3.147-1.364
	l-0.009-0.005c-0.919-0.48-1.729-1.033-2.418-1.666l-0.006-0.006l-0.007-0.006c-0.701-0.666-1.251-1.449-1.65-2.336l-0.005-0.012
	c-0.402-0.926-0.585-1.986-0.585-3.152c0-2.07,0.667-3.838,2.042-5.221c1.162-1.167,2.632-1.895,4.362-2.215V280h4.594v3.707
	c1.74,0.406,3.181,1.27,4.267,2.611c1.257,1.543,1.845,3.506,1.845,5.798v1h-6.685v-1c0-1.193-0.251-1.89-0.575-2.273l-0.006-0.007
	l-0.005-0.007c-0.326-0.401-0.745-0.608-1.364-0.608c-0.687,0-1.083,0.191-1.334,0.455l-0.008,0.008
	c-0.258,0.266-0.446,0.684-0.446,1.39c0,0.622,0.173,1.02,0.438,1.299c0.321,0.337,1.032,0.782,2.292,1.294
	c1.317,0.529,2.423,1.041,3.304,1.536c0.902,0.495,1.685,1.071,2.334,1.737c0.664,0.668,1.175,1.441,1.527,2.313
	c0.361,0.883,0.527,1.88,0.527,2.968c0,2.072-0.651,3.838-2.009,5.203c-1.156,1.163-2.658,1.881-4.442,2.201V313h-4.578v-3.361
	c-1.997-0.361-3.653-1.197-4.893-2.555l-0.006-0.006c-1.411-1.571-2.072-3.616-2.072-6.031v-1h6.685v1
	c0,1.143,0.266,1.868,0.657,2.32c0.382,0.421,0.961,0.689,1.893,0.689c0.771,0,1.257-0.199,1.578-0.486
	c0.314-0.295,0.502-0.696,0.502-1.317c0-0.698-0.189-1.135-0.469-1.428L64.838,300.816z M60.593,304.029
	c-0.605-0.694-0.908-1.689-0.908-2.982H55c0,0.001,0,0.001,0,0.002c0,0.344,0.015,0.676,0.043,0.998
	c0.158,1.77,0.749,3.223,1.772,4.363c1.221,1.336,2.94,2.124,5.155,2.363V312h2.578v-3.243c2.01-0.207,3.588-0.886,4.733-2.038
	S71,304.068,71,302.221c0-0.988-0.151-1.853-0.454-2.592c-0.302-0.749-0.74-1.412-1.313-1.988c-0.573-0.586-1.275-1.107-2.107-1.564
	c-0.832-0.467-1.896-0.961-3.193-1.483c-1.286-0.521-2.167-1.032-2.642-1.532c-0.476-0.5-0.713-1.162-0.713-1.987
	c0-0.892,0.243-1.587,0.729-2.087c0.486-0.51,1.172-0.766,2.059-0.766c0.897,0,1.61,0.325,2.14,0.978
	c0.541,0.641,0.811,1.614,0.811,2.918H71c0-0.345-0.014-0.677-0.042-1c-0.147-1.668-0.673-3.056-1.579-4.167
	c-1.081-1.336-2.578-2.141-4.49-2.412V281h-2.594v3.488c-1.935,0.195-3.485,0.88-4.652,2.054c-1.167,1.173-1.751,2.679-1.751,4.515
	c0,1.064,0.167,1.982,0.502,2.754c0.346,0.771,0.821,1.445,1.427,2.021c0.616,0.564,1.351,1.07,2.205,1.516
	c0.854,0.435,1.87,0.875,3.047,1.32c1.178,0.445,2.01,0.934,2.497,1.467c0.497,0.521,0.746,1.227,0.746,2.118
	c0,0.858-0.275,1.543-0.827,2.054c-0.551,0.5-1.302,0.75-2.253,0.75C62.089,305.057,61.208,304.715,60.593,304.029z"/>
<path fill="#FFFFFF" d="M34,298h-6v14h6V298z M27,297v16h8v-16H27z"/>
<path fill="#FFFFFF" d="M34,298h-6v14h6V298z M27,297v16h8v-16H27z"/>
<path fill="#FFFFFF" d="M46,282h-6v30h6V282z M39,281v32h8v-32H39z"/>
<path fill="#FFFFFF" d="M46,282h-6v30h6V282z M39,281v32h8v-32H39z"/>
<path fill="#FFFFFF" d="M52,268h6v18.208c0.31-0.269,0.643-0.506,1-0.714V268v-1h-1h-6h-1v1v44v1h1h6h1v-1v-4.007
	c-0.354-0.163-0.688-0.351-1-0.562V312h-6V268z M58,301.047h1v-4.301c-0.361-0.237-0.694-0.489-1-0.754V301.047z"/>
<path fill="#FFFFFF" d="M52,268h6v18.208c0.31-0.269,0.643-0.506,1-0.714V268v-1h-1h-6h-1v1v44v1h1h6h1v-1v-4.007
	c-0.354-0.163-0.688-0.351-1-0.562V312h-6V268z M58,301.047h1v-4.301c-0.361-0.237-0.694-0.489-1-0.754V301.047z"/>
<circle fill="#00DCE6" fill-opacity="0.2" cx="84" cy="143" r="26"/>
<circle fill="#00DCE6" cx="84" cy="143" r="12"/>
<circle fill="#FFFFFF" cx="84" cy="143" r="6"/>
<path fill="#FFFFFF" d="M98.727,159.013c4.086-3.759,6.761-9.057,7.074-15.039c0.636-12.133-8.685-22.485-20.818-23.121
	c-5.982-0.314-11.531,1.793-15.696,5.463l0.669,0.743c3.975-3.499,9.268-5.506,14.974-5.207c11.583,0.607,20.48,10.488,19.873,22.07
	c-0.299,5.706-2.85,10.76-6.745,14.348L98.727,159.013z"/>
<defs>
	<filter id="Adobe_OpacityMaskFilter_1_" filterUnits="userSpaceOnUse" x="67.868" y="119.822" width="38.964" height="40.611">
		<feColorMatrix  type="matrix" values="1 0 0 0 0  0 1 0 0 0  0 0 1 0 0  0 0 0 1 0"/>
	</filter>
</defs>
<mask maskUnits="userSpaceOnUse" x="67.868" y="119.822" width="38.964" height="40.611" id="path-494-inside-2">
	<path fill="#FFFFFF" filter="url(#Adobe_OpacityMaskFilter_1_)" d="M98.727,159.013c4.086-3.759,6.761-9.057,7.074-15.039
		c0.636-12.133-8.685-22.485-20.818-23.121c-5.982-0.314-11.531,1.793-15.696,5.463l0.669,0.743
		c3.975-3.499,9.268-5.506,14.974-5.207c11.583,0.607,20.48,10.488,19.873,22.07c-0.299,5.706-2.85,10.76-6.745,14.348
		L98.727,159.013z"/>
</mask>
<path mask="url(#path-494-inside-2)" fill="#FFFFFF" d="M98.727,159.013l-0.743,0.669l0.676,0.751l0.744-0.684L98.727,159.013z
	 M105.801,143.974l-0.998-0.052L105.801,143.974z M84.983,120.853l0.052-0.999L84.983,120.853z M69.287,126.316l-0.661-0.75
	l-0.758,0.668l0.676,0.751L69.287,126.316z M69.956,127.059l-0.743,0.67l0.662,0.734l0.742-0.653L69.956,127.059z M84.93,121.852
	l-0.052,0.998L84.93,121.852z M104.803,143.922l-0.999-0.052L104.803,143.922z M98.058,158.27l-0.678-0.736l-0.727,0.67l0.662,0.735
	L98.058,158.27z M99.404,159.749c4.271-3.929,7.068-9.469,7.396-15.722l-1.997-0.105c-0.3,5.71-2.852,10.766-6.753,14.355
	L99.404,159.749z M106.8,144.027c0.665-12.686-9.08-23.508-21.765-24.173l-0.105,1.998c11.583,0.607,20.48,10.488,19.873,22.07
	L106.8,144.027z M85.035,119.854c-6.253-0.327-12.056,1.876-16.409,5.712l1.322,1.501c3.977-3.505,9.272-5.515,14.982-5.215
	L85.035,119.854z M68.544,126.985l0.669,0.744l1.486-1.339l-0.669-0.743L68.544,126.985z M70.617,127.81
	c3.787-3.333,8.826-5.245,14.261-4.96l0.105-1.997c-5.978-0.313-11.524,1.791-15.688,5.456L70.617,127.81z M84.878,122.85
	c11.031,0.578,19.504,9.989,18.926,21.02l1.997,0.104c0.636-12.133-8.685-22.485-20.818-23.121L84.878,122.85z M103.804,143.87
	c-0.285,5.434-2.712,10.247-6.424,13.664l1.355,1.471c4.08-3.757,6.752-9.053,7.065-15.031L103.804,143.87z M97.315,158.939
	l0.669,0.743l1.486-1.338l-0.669-0.744L97.315,158.939z"/>
<rect x="28.5" y="157.5" fill="none" stroke="#FFFFFF" width="13" height="5"/>
<rect x="28.5" y="184.5" fill="none" stroke="#FFFFFF" width="13" height="5"/>
<path fill="none" stroke="#FFFFFF" d="M35,163l-0.042,22.005"/>
<path fill="none" stroke="#FFFFFF" d="M65,163l-0.042,22.005"/>
<path fill="none" stroke="#FFFFFF" d="M38,174l25,0.007"/>
<rect x="58.5" y="157.5" fill="none" stroke="#FFFFFF" width="13" height="5"/>
<rect x="58.5" y="184.5" fill="none" stroke="#FFFFFF" width="13" height="5"/>
<circle fill="none" stroke="#FFFFFF" cx="35" cy="174" r="2.5"/>
<circle fill="none" stroke="#FFFFFF" cx="65" cy="174" r="2.5"/>
<path fill="#FFFFFF" stroke="#FFFFFF" stroke-dasharray="2,2" d="M34.313,152h-2.125v-1h2.125V152z M38.563,152h-2.125v-1h2.125V152
	z M64.813,152h-2.125v-1h2.125V152z M69.063,152h-2.125v-1h2.125V152z"/>
<path fill="#FFFFFF" stroke="#FFFFFF" stroke-dasharray="2,2" d="M34.313,197h-2.125v-1h2.125V197z M38.563,197h-2.125v-1h2.125V197
	z M63.813,197h-2.125v-1h2.125V197z M68.063,197h-2.125v-1h2.125V197z"/>
<circle fill="#00DCE6" fill-opacity="0.2" cx="84" cy="26" r="26"/>
<circle fill="#00DCE6" cx="84" cy="26" r="12"/>
<circle fill="#FFFFFF" cx="84" cy="26" r="6"/>
<path fill="#FFFFFF" d="M99.063,41.811c4.019-3.829,6.601-9.173,6.81-15.16c0.424-12.143-9.076-22.331-21.219-22.754
	c-5.986-0.209-11.497,1.994-15.598,5.736l0.682,0.731c3.913-3.568,9.17-5.668,14.881-5.468c11.591,0.405,20.659,10.129,20.254,21.72
	c-0.199,5.71-2.661,10.808-6.493,14.463L99.063,41.811z"/>
<defs>
	<filter id="Adobe_OpacityMaskFilter_2_" filterUnits="userSpaceOnUse" x="67.636" y="2.883" width="39.251" height="40.349">
		<feColorMatrix  type="matrix" values="1 0 0 0 0  0 1 0 0 0  0 0 1 0 0  0 0 0 1 0"/>
	</filter>
</defs>
<mask maskUnits="userSpaceOnUse" x="67.636" y="2.883" width="39.251" height="40.349" id="path-510-inside-3">
	<path fill="#FFFFFF" filter="url(#Adobe_OpacityMaskFilter_2_)" d="M99.063,41.811c4.019-3.829,6.601-9.173,6.81-15.16
		c0.424-12.143-9.076-22.331-21.219-22.754c-5.986-0.209-11.497,1.994-15.598,5.736l0.682,0.731
		c3.913-3.568,9.17-5.668,14.881-5.468c11.591,0.405,20.659,10.129,20.254,21.72c-0.199,5.71-2.661,10.808-6.493,14.463
		L99.063,41.811z"/>
</mask>
<path mask="url(#path-510-inside-3)" fill="#FFFFFF" d="M99.063,41.811l-0.731,0.682l0.689,0.739l0.731-0.697L99.063,41.811z
	 M105.873,26.651l-0.999-0.035L105.873,26.651z M84.654,3.896l0.035-1L84.654,3.896z M69.057,9.633l-0.674-0.738l-0.746,0.681
	l0.689,0.739L69.057,9.633z M69.739,10.364l-0.731,0.682l0.674,0.723l0.731-0.667L69.739,10.364z M84.62,4.896l-0.035,1L84.62,4.896
	z M104.874,26.616l0.999,0.035L104.874,26.616z M98.381,41.079l-0.69-0.724l-0.716,0.683l0.674,0.723L98.381,41.079z M99.752,42.535
	c4.202-4.002,6.901-9.591,7.121-15.849l-1.999-0.069c-0.2,5.714-2.663,10.814-6.501,14.47L99.752,42.535z M106.873,26.686
	c0.443-12.695-9.489-23.345-22.184-23.789l-0.07,1.999c11.591,0.405,20.659,10.129,20.254,21.72L106.873,26.686z M84.689,2.897
	c-6.258-0.218-12.021,2.085-16.307,5.998l1.349,1.477c3.915-3.573,9.174-5.675,14.889-5.476L84.689,2.897z M68.325,10.315
	l0.682,0.731l1.463-1.364l-0.682-0.731L68.325,10.315z M70.413,11.103c3.728-3.399,8.733-5.398,14.172-5.208l0.07-1.999
	c-5.982-0.209-11.491,1.992-15.589,5.729L70.413,11.103z M84.584,5.896c11.039,0.385,19.675,9.646,19.291,20.686l1.998,0.07
	c0.424-12.143-9.076-22.331-21.219-22.754L84.584,5.896z M103.875,26.581c-0.19,5.439-2.534,10.293-6.184,13.774l1.38,1.447
	c4.014-3.828,6.593-9.17,6.802-15.152L103.875,26.581z M97.649,41.761l0.682,0.731l1.463-1.364l-0.682-0.731L97.649,41.761z"/>
<rect x="42.5" y="34.5" fill="none" stroke="#FFFFFF" width="15" height="45"/>
<rect x="27.5" y="49.5" fill="none" stroke="#FFFFFF" width="45" height="15"/>
<rect x="70" y="34" fill="#FFFFFF" width="3" height="3"/>
<rect x="27" y="34" fill="#FFFFFF" width="3" height="3"/>
<rect x="27" y="77" fill="#FFFFFF" width="3" height="3"/>
<rect x="27" y="34" fill="#FFFFFF" width="3" height="3"/>
<rect x="70" y="77" fill="#FFFFFF" width="3" height="3"/>
<path fill="#00DCE6" d="M581,141l0.707,0.707l0.707-0.707l-0.707-0.707L581,141z M541,142h40v-2h-40V142z M580.293,140.293l-16,16
	l1.414,1.414l16-16L580.293,140.293z M581.707,140.293l-16-16l-1.414,1.414l16,16L581.707,140.293z"/>
<circle fill="#00DCE6" fill-opacity="0.2" cx="543" cy="141" r="14"/>
<circle fill="#00DCE6" cx="543" cy="141" r="4"/>
<path fill="#00DCE6" d="M400,141l0.707,0.707l0.707-0.707l-0.707-0.707L400,141z M360,142h40v-2h-40V142z M399.293,140.293l-16,16
	l1.414,1.414l16-16L399.293,140.293z M400.707,140.293l-16-16l-1.414,1.414l16,16L400.707,140.293z"/>
<circle fill="#00DCE6" fill-opacity="0.2" cx="362" cy="141" r="14"/>
<circle fill="#00DCE6" cx="362" cy="141" r="4"/>
<path fill="#00DCE6" d="M219,141l0.707,0.707l0.707-0.707l-0.707-0.707L219,141z M179,142h40v-2h-40V142z M218.293,140.293l-16,16
	l1.414,1.414l16-16L218.293,140.293z M219.707,140.293l-16-16l-1.414,1.414l16,16L219.707,140.293z"/>
<circle fill="#00DCE6" fill-opacity="0.2" cx="181" cy="141" r="14"/>
<circle fill="#00DCE6" cx="181" cy="141" r="4"/>
<text transform="matrix(1 0 0 1 123.5 294.5)"><tspan x="0" y="0" font-family="'MicrosoftYaHeiLight'" font-size="14">传感器和</tspan><tspan x="0" y="16.8" font-family="'MicrosoftYaHeiLight'" font-size="14">电子设备</tspan></text>
<text transform="matrix(1 0 0 1 274.5 285.5)"><tspan x="0" y="0" font-family="'MicrosoftYaHeiLight'" font-size="13">- 聚合</tspan><tspan x="0" y="15.6" font-family="'MicrosoftYaHeiLight'" font-size="13">- 处理</tspan><tspan x="0" y="31.2" font-family="'MicrosoftYaHeiLight'" font-size="13">- 分析</tspan></text>
<text transform="matrix(1 0 0 1 426.5 286.5)"><tspan x="0" y="0" font-family="'MicrosoftYaHeiLight'" font-size="13">- 去中心化账本</tspan><tspan x="0" y="15.6" font-family="'MicrosoftYaHeiLight'" font-size="13">- 智能合约</tspan><tspan x="0" y="31.2" font-family="'MicrosoftYaHeiLight'" font-size="13">- 事务透明</tspan></text>
<text transform="matrix(1 0 0 1 268 175.5)"><tspan x="0" y="0" fill="#FFFFFF" font-family="'MicrosoftYaHei-Bold'" font-size="15">物联网</tspan><tspan x="7.5" y="18" fill="#FFFFFF" font-family="'MicrosoftYaHei-Bold'" font-size="15">平台</tspan></text>
<text transform="matrix(1 0 0 1 448 182.5)" fill="#FFFFFF" font-family="'MicrosoftYaHei-Bold'" font-size="15">区块链</text>
<text transform="matrix(1 0 0 1 623.5 177.5)"><tspan x="0" y="0" fill="#FFFFFF" font-family="'MicrosoftYaHei-Bold'" font-size="15">您的业务</tspan><tspan x="15" y="18" fill="#FFFFFF" font-family="'MicrosoftYaHei-Bold'" font-size="15">网络</tspan></text>
</svg>
