<svg width="70" height="70" viewBox="0 0 70 70" fill="none" xmlns="http://www.w3.org/2000/svg">
<circle cx="35" cy="35" r="35" fill="#1F2432"/>
<g clip-path="url(#clip0)">
<path d="M34.5954 17.7285C33.2476 19.6416 24.2582 23.5634 20.7295 23.5634C20.7295 29.9337 20.7295 31.9394 20.7295 37.4214C20.7295 43.936 33.8172 51.0641 34.5874 51.2698C35.3576 51.0641 48.4453 43.4386 48.4453 38.1507C48.4453 32.6688 48.4453 29.9337 48.4453 23.5634C44.5957 23.5634 35.9426 19.6416 34.5954 17.7285Z" stroke="white"/>
<path d="M34.5484 47.1463C33.2217 46.3804 31.17 45.088 29.2255 43.5301C25.6458 40.6637 24.376 38.4479 24.376 37.4217V26.6366C27.672 25.7883 31.7411 24.1086 34.5732 22.3457C37.4017 24.1326 41.4759 25.8131 44.7982 26.6526V38.151C44.7442 38.5952 43.7326 40.4967 39.7597 43.5877C37.8043 45.1092 35.8248 46.3819 34.5484 47.1463Z" stroke="white"/>
</g>
<defs>
<clipPath id="clip0">
<rect width="29.1746" height="35" fill="white" transform="translate(20 17)"/>
</clipPath>
</defs>
</svg>
