<svg width="70" height="70" viewBox="0 0 70 70" fill="none" xmlns="http://www.w3.org/2000/svg">
<circle cx="35" cy="35" r="35" fill="#1F2432"/>
<g clip-path="url(#clip0)">
<path d="M42.9533 49.0613L42.9502 49.059C41.171 47.8172 38.6975 48.6003 37.9573 50.6409L37.9558 50.6448C37.7054 51.3343 36.7686 51.4255 36.3895 50.7984L36.3848 50.7914C35.2624 48.9342 32.6852 48.6464 31.1806 50.2095L31.1798 50.2103C30.6712 50.7384 29.7781 50.442 29.686 49.715L29.6845 49.7025C29.4123 47.5512 27.1752 46.2416 25.1659 47.0583C24.4873 47.3344 23.7915 46.701 24.0021 45.999L24.0068 45.9826C24.6308 43.907 23.1199 41.8041 20.9538 41.7323H20.953C20.2214 41.7081 19.8431 40.847 20.3204 40.2916L20.3337 40.2768C21.7455 38.6349 21.2206 36.1014 19.2736 35.1552L19.2713 35.1537C18.613 34.8339 18.6177 33.894 19.2791 33.5812L19.2986 33.5718C21.2541 32.6459 21.8056 30.121 20.414 28.4643L20.4093 28.4596C19.939 27.8996 20.3259 27.0439 21.0568 27.0267L21.0778 27.0259C23.2392 26.976 24.7704 24.8957 24.1752 22.817L24.1729 22.8068C23.9717 22.1033 24.6737 21.48 25.3484 21.7624L25.3663 21.7702C27.36 22.604 29.6041 21.3287 29.9091 19.1884L29.9115 19.1728C30.0144 18.4489 30.9091 18.165 31.4107 18.6977L31.4216 18.7094C32.9028 20.2835 35.4722 20.0339 36.6219 18.204L36.6321 18.1876C37.0213 17.5683 37.9542 17.6743 38.1944 18.3647L38.1983 18.3756C38.9089 20.4177 41.3582 21.2367 43.1545 20.0331L43.1725 20.0214C43.7801 19.6142 44.589 20.0908 44.5274 20.8201L44.5266 20.8272C44.3433 22.9831 46.2481 24.7296 48.3799 24.3606L48.4009 24.3567C49.1224 24.2319 49.6669 24.9971 49.3128 25.6383L49.3112 25.6406C48.2644 27.5361 49.294 29.9089 51.3938 30.4385L51.4133 30.4432C52.1231 30.6226 52.3103 31.5438 51.7253 31.9853H51.7246C49.9953 33.291 49.9711 35.8807 51.6754 37.2176L51.6887 37.2285C52.2651 37.6809 52.0607 38.599 51.347 38.7644C49.2348 39.2534 48.1591 41.6122 49.1755 43.5279L49.1817 43.5396C49.5249 44.187 48.9649 44.9436 48.2457 44.8048H48.2441C46.1139 44.3929 44.1725 46.1121 44.3238 48.2766L44.3246 48.2852C44.3737 49.0161 43.5547 49.481 42.9533 49.0613Z" stroke="white" stroke-miterlimit="10" stroke-linejoin="round"/>
<path d="M35.4251 45.4185C41.4561 45.4185 46.3453 40.5294 46.3453 34.4983C46.3453 28.4673 41.4561 23.5781 35.4251 23.5781C29.394 23.5781 24.5049 28.4673 24.5049 34.4983C24.5049 40.5294 29.394 45.4185 35.4251 45.4185Z" stroke="white" stroke-miterlimit="10" stroke-linejoin="round"/>
<path d="M31.5254 34.4997L34.6454 37.6197L40.1055 30.5996" stroke="white" stroke-miterlimit="10" stroke-linejoin="round"/>
</g>
<defs>
<clipPath id="clip0">
<rect width="34.851" height="35" fill="white" transform="translate(18 17)"/>
</clipPath>
</defs>
</svg>
