<svg width="242" height="242" viewBox="0 0 242 242" fill="none" xmlns="http://www.w3.org/2000/svg">
<path fill-rule="evenodd" clip-rule="evenodd" d="M36.9724 0H242V205.028C216.311 228.019 182.388 242 145.2 242C65.0083 242 0 176.992 0 96.8C0 59.6116 13.9805 25.6886 36.9724 0Z" fill="#00DCE6" fill-opacity="0.1"/>
<path d="M102 107.697L147 133.558L192 107.086" stroke="#00DCE6" stroke-width="3" stroke-miterlimit="10"/>
<path d="M192 107.392L147 87.7412L102 107.697" stroke="#00DCE6" stroke-width="3" stroke-miterlimit="10"/>
<path d="M147 133.559V36.5273" stroke="#00DCE6" stroke-width="3" stroke-miterlimit="10"/>
<path d="M147 133.356L192 107.494L147 35L102 107.698L147 133.559" stroke="#00DCE6" stroke-width="3" stroke-miterlimit="10"/>
<path d="M147 36.9346V133.356" stroke="#00DCE6" stroke-width="3" stroke-miterlimit="10"/>
<path d="M147 172.861V142.214L106.721 119.203L147 175L187.28 119.203L147 142.214V172.861Z" stroke="#00DCE6" stroke-width="3" stroke-miterlimit="10"/>
</svg>
