<svg width="242" height="242" viewBox="0 0 242 242" fill="none" xmlns="http://www.w3.org/2000/svg">
<path fill-rule="evenodd" clip-rule="evenodd" d="M36.9724 0H242V205.028C216.311 228.019 182.388 242 145.2 242C65.0083 242 0 176.992 0 96.8C0 59.6116 13.9805 25.6886 36.9724 0Z" fill="#00DCE6" fill-opacity="0.1"/>
<g clip-path="url(#clip0)">
<path d="M118.46 77.6941L125.404 99.7366L144.979 64.8133V41.0776L118.46 77.6941ZM126.631 103.637L138.783 142.159H154.228L166.349 103.637L146.505 68.1998L126.631 103.637ZM139.711 145.152L146.505 166.65L153.27 145.152H139.711ZM143.842 168.071L136.628 145.152H107.626L143.842 168.071ZM135.671 142.159L124.656 107.175L105.022 142.159H135.671ZM123.429 103.274L117.084 83.1972L106.009 134.297L123.429 103.274ZM146.535 173C146.206 173 145.907 172.909 145.637 172.728L101.759 144.971C101.759 144.971 101.759 144.971 101.729 144.94C101.161 144.608 100.891 143.973 101.041 143.338H101.011L115.378 77.1196C115.408 76.8777 115.527 76.6661 115.677 76.4847L145.278 35.635C145.548 35.2419 145.967 35.0302 146.386 35.0302C146.416 35 146.475 35 146.505 35C147.044 35 147.523 35.3024 147.763 35.6954L177.364 76.5451C177.484 76.7266 177.573 76.908 177.603 77.1196H177.633L191.94 143.277C191.97 143.398 192 143.519 192 143.64C192 144.245 191.671 144.759 191.162 145.001L147.314 172.758C147.074 172.909 146.805 173 146.535 173ZM157.31 142.159H187.959L168.355 107.175L157.31 142.159ZM185.355 145.152H156.383L149.139 168.071L185.355 145.152ZM148.002 64.8133L167.577 99.7366L174.521 77.6941L148.002 41.0776V64.8133ZM169.582 103.274L186.972 134.297L175.897 83.1972L169.582 103.274Z" fill="#00DCE6"/>
</g>
<defs>
<clipPath id="clip0">
<rect width="93" height="140" fill="white" transform="translate(99 35)"/>
</clipPath>
</defs>
</svg>
