<svg width="242" height="242" viewBox="0 0 242 242" fill="none" xmlns="http://www.w3.org/2000/svg">
<path fill-rule="evenodd" clip-rule="evenodd" d="M36.9724 0H242V205.028C216.311 228.019 182.388 242 145.2 242C65.0083 242 0 176.992 0 96.8C0 59.6116 13.9805 25.6886 36.9724 0Z" fill="#00DCE6" fill-opacity="0.1"/>
<g clip-path="url(#clip0)">
<path d="M207.118 85.9366L171.74 35.59C171.545 35.1967 171.153 35 170.763 35L109.781 40.7033C109.39 40.7033 108.999 41.0967 108.804 41.49L83.1993 97.5399C83.0039 97.9332 83.0039 98.3266 83.1993 98.7199L118.577 149.066C118.772 149.46 119.163 149.656 119.554 149.656L180.731 143.953C181.122 143.953 181.513 143.56 181.708 143.166L207.313 87.1166C207.508 86.7233 207.508 86.3299 207.118 85.9366ZM120.14 147.1L85.7402 97.9332L110.758 43.0633L170.372 37.5567L204.967 86.7233L179.754 141.396L120.14 147.1Z" fill="#00DCE6"/>
<path d="M157.469 55.0588L108.801 40.7021V97.7354L118.573 149.065L118.769 150.049L170.173 120.155L207.505 86.722L157.469 55.0588ZM120.333 146.902L110.951 97.5387V43.2588L156.883 56.8288L204.769 86.722L169.196 118.385L120.333 146.902Z" fill="#00DCE6"/>
<path d="M171.932 35.984C171.932 35.5906 171.541 35.1973 171.15 35.1973C170.955 35.0006 170.563 35.0006 170.173 35.1973L120.918 62.3372L83.3909 97.1472C83.1955 97.3439 83 97.7372 83 98.1305C83 98.5239 83.1955 98.9172 83.5864 99.1139L133.623 127.434L180.14 143.954C180.336 143.954 180.336 143.954 180.532 143.954C180.727 143.954 181.118 143.954 181.313 143.757C181.704 143.56 181.899 143.167 181.899 142.774L183.072 84.7572L171.932 35.984ZM134.6 125.074L86.3227 97.7372L122.482 64.5006L169.977 38.1473L180.532 84.9539L179.359 141.004L134.6 125.074Z" fill="#00DCE6"/>
<path d="M158.446 54.666L109.387 97.5393L108.41 98.5227L169.783 119.96L171.151 120.352L158.446 54.666ZM111.342 97.7359L157.469 57.616L168.806 117.796L111.342 97.7359Z" fill="#00DCE6"/>
<path d="M120.139 61.3545L133.234 128.418L184.248 84.3644L120.139 61.3545ZM179.361 85.3478L134.798 123.894L123.266 65.2878L179.361 85.3478Z" fill="#00DCE6"/>
<path d="M123.265 63.3188L110.56 40.7021L108.41 41.8821L121.115 64.4988L123.265 63.3188Z" fill="#00DCE6"/>
<path d="M118.576 148.282L120.726 149.659L135.385 126.255L133.431 124.879L118.576 148.282Z" fill="#00DCE6"/>
<path d="M181.3 83.6719L181.118 86.2219L206.851 88.0828L207.033 85.5327L181.3 83.6719Z" fill="#00DCE6"/>
<path d="M159.816 56.2426C159.816 57.2265 159.034 58.0135 158.056 58.0135C157.078 58.0135 156.296 57.2265 156.296 56.2426C156.296 55.2588 157.078 54.4717 158.056 54.4717C159.034 54.4717 159.816 55.2588 159.816 56.2426Z" fill="#00DCE6"/>
<path d="M158.446 60.9625C155.905 60.9625 153.755 58.7992 153.755 56.2425C153.755 53.6858 155.905 51.5225 158.446 51.5225C160.987 51.5225 163.137 53.6858 163.137 56.2425C163.137 58.7992 160.987 60.9625 158.446 60.9625ZM158.446 56.0458C158.25 56.2425 158.446 56.2425 158.446 56.2425V56.0458Z" fill="#00DCE6"/>
<path d="M171.542 119.172C171.542 120.156 170.76 120.943 169.782 120.943C168.805 120.943 168.022 120.156 168.022 119.172C168.022 118.188 168.805 117.401 169.782 117.401C170.76 117.205 171.542 118.188 171.542 119.172Z" fill="#00DCE6"/>
<path d="M169.782 123.694C167.241 123.694 165.091 121.531 165.091 118.974C165.091 116.417 167.241 114.254 169.782 114.254C172.322 114.254 174.473 116.417 174.473 118.974C174.473 121.727 172.322 123.694 169.782 123.694ZM169.782 118.974C169.587 119.171 169.782 119.171 169.782 119.171V118.974Z" fill="#00DCE6"/>
<path d="M121.899 148.281C121.899 149.264 121.117 150.051 120.139 150.051C119.161 150.051 118.379 149.264 118.379 148.281C118.379 147.297 119.161 146.51 120.139 146.51C120.921 146.51 121.899 147.297 121.899 148.281Z" fill="#00DCE6"/>
<path d="M120.53 153C117.989 153 115.839 150.836 115.839 148.28C115.839 145.722 117.989 143.56 120.53 143.56C123.071 143.56 125.221 145.722 125.221 148.28C125.221 150.836 123.071 153 120.53 153ZM120.53 148.28C120.334 148.476 120.53 148.476 120.53 148.476V148.28Z" fill="#00DCE6"/>
<path d="M111.537 98.1303C111.537 99.1141 110.754 99.9012 109.777 99.9012C108.799 99.9012 108.017 99.1141 108.017 98.1303C108.017 97.1464 108.799 96.3594 109.777 96.3594C110.754 96.3594 111.537 97.1464 111.537 98.1303Z" fill="#00DCE6"/>
<path d="M110.365 102.85C107.824 102.85 105.674 100.687 105.674 98.1302C105.674 95.5735 107.824 93.4102 110.365 93.4102C112.906 93.4102 115.056 95.5735 115.056 98.1302C115.056 100.687 112.906 102.85 110.365 102.85ZM110.365 97.9335C110.169 98.1302 110.365 98.1302 110.365 98.1302V97.9335Z" fill="#00DCE6"/>
<path d="M207.898 86.725C207.898 87.7088 207.115 88.4959 206.137 88.4959C205.159 88.4959 204.377 87.7088 204.377 86.725C204.377 85.7412 205.159 84.9541 206.137 84.9541C207.115 84.9541 207.898 85.7412 207.898 86.725Z" fill="#00DCE6"/>
<path d="M206.726 91.4439C204.185 91.4439 202.035 89.2805 202.035 86.7239C202.035 84.1672 204.185 82.0039 206.726 82.0039C209.267 82.0039 211.416 84.1672 211.416 86.7239C211.221 89.2805 209.267 91.4439 206.726 91.4439ZM206.726 86.5272C206.53 86.7239 206.726 86.7239 206.726 86.7239V86.5272Z" fill="#00DCE6"/>
<path d="M111.537 41.8852C111.537 42.869 110.754 43.656 109.777 43.656C108.799 43.656 108.017 42.869 108.017 41.8852C108.017 40.9013 108.799 40.1143 109.777 40.1143C110.754 40.1143 111.537 40.9013 111.537 41.8852Z" fill="#00DCE6"/>
<path d="M110.365 46.6011C107.824 46.6011 105.674 44.4378 105.674 41.8811C105.674 39.3245 107.824 37.1611 110.365 37.1611C112.906 37.1611 115.056 39.3245 115.056 41.8811C115.056 44.4378 112.906 46.6011 110.365 46.6011ZM110.365 41.8811C110.169 42.0778 110.365 42.0778 110.365 42.0778V41.8811Z" fill="#00DCE6"/>
</g>
<defs>
<clipPath id="clip0">
<rect width="129" height="118" fill="white" transform="translate(83 35)"/>
</clipPath>
</defs>
</svg>
