<svg width="234" height="50" viewBox="0 0 234 50" fill="none" xmlns="http://www.w3.org/2000/svg">
<path d="M188.382 26.929H187.738V26.6826H189.323V26.929H188.654V28.826H188.382V26.929V26.929Z" fill="#818592"/>
<path d="M191.377 27.8892C191.352 27.5937 191.352 27.2243 191.352 26.9781C191.278 27.2243 191.179 27.4952 191.08 27.7907L190.709 28.8249H190.511L190.164 27.8153C190.065 27.5198 189.991 27.249 189.917 26.9781C189.917 27.249 189.892 27.5937 189.867 27.9138L189.818 28.8249H189.496L189.645 26.6826H189.991L190.362 27.7168C190.461 27.9877 190.511 28.2093 190.585 28.4309C190.634 28.2093 190.709 27.9877 190.808 27.7168L191.179 26.6826H191.525L191.649 28.8249H191.377V27.8892V27.8892Z" fill="#818592"/>
<path d="M98.3794 22.7442V19.9863L100.706 21.907V24.6894L98.3794 22.7442Z" fill="#818592"/>
<path d="M95.5827 28.529C94.9393 27.8395 94.1722 27.2732 93.306 26.8792C92.4399 26.4852 91.45 26.2636 90.4107 26.2636C88.8764 26.2636 87.4906 26.6822 86.3275 27.5194C85.6346 28.0119 85.0407 28.6275 84.5705 29.3415V16.9805H83.2095V41.7765H84.5705V38.8709C85.0407 39.585 85.6346 40.2006 86.3275 40.693C87.4906 41.5302 88.8517 41.9489 90.4107 41.9489C91.45 41.9489 92.4399 41.7519 93.306 41.3579C94.1722 40.9639 94.9393 40.4222 95.5827 39.7327C96.2261 39.0433 96.721 38.2061 97.0675 37.2704C97.4139 36.3347 97.6119 35.2758 97.6119 34.1432C97.6119 33.0351 97.4387 31.9763 97.0675 31.016C96.721 30.0803 96.2014 29.243 95.5827 28.529ZM96.2261 34.1678C96.2261 35.1281 96.0776 36.0146 95.8054 36.8025C95.5332 37.5905 95.1125 38.2799 94.6176 38.8217C94.0979 39.388 93.4793 39.8066 92.7616 40.1267C92.044 40.4222 91.2521 40.5945 90.3859 40.5945C89.5198 40.5945 88.7279 40.4468 88.0103 40.1267C87.2926 39.8312 86.674 39.388 86.1543 38.8217C85.6346 38.2553 85.2387 37.5905 84.9417 36.8025C84.6695 36.0146 84.521 35.1281 84.521 34.1678C84.521 33.2075 84.6695 32.321 84.9417 31.533C85.2139 30.7451 85.6346 30.0556 86.1543 29.4893C86.674 28.9229 87.2926 28.4797 88.0103 28.1596C88.7279 27.8395 89.5198 27.6918 90.3612 27.6918C91.2026 27.6918 92.0192 27.8395 92.7121 28.1596C93.4298 28.4797 94.0484 28.9229 94.5681 29.4893C95.0878 30.0556 95.4837 30.7451 95.7807 31.533C96.0776 32.321 96.2261 33.2075 96.2261 34.1678V34.1678Z" fill="#818592"/>
<path d="M100.854 26.3867H99.4927V41.9735H100.854V26.3867Z" fill="#818592"/>
<path d="M109.243 40.0784C108.847 40.4478 108.402 40.6202 107.857 40.6202C107.313 40.6202 106.867 40.4478 106.521 40.0538C106.174 39.6598 105.976 39.1674 105.976 38.5272V27.8405H109.985V26.4616H105.976V21.3398H104.615V26.4616H102.462V27.8159H104.615V38.5025C104.615 39.4875 104.912 40.3247 105.531 40.9649C106.15 41.6297 106.917 41.9498 107.857 41.9498C108.303 41.9498 108.723 41.876 109.094 41.7036C109.466 41.5559 109.787 41.3589 110.084 41.1126L110.381 40.8664L109.589 39.7091L109.243 40.0784Z" fill="#818592"/>
<path d="M120.676 34.7586C120.255 34.4385 119.785 34.1923 119.265 34.0199C118.77 33.8476 118.251 33.6998 117.756 33.5521L116.815 33.2812C116.444 33.1827 116.048 33.0842 115.677 32.9365C115.331 32.8134 114.984 32.641 114.687 32.444C114.415 32.247 114.168 31.9762 113.994 31.6314C113.821 31.2867 113.722 30.8435 113.722 30.3017C113.722 29.8585 113.821 29.4645 114.019 29.1444C114.217 28.8243 114.489 28.5288 114.786 28.3319C115.108 28.1102 115.504 27.9379 115.925 27.8394C116.345 27.7163 116.791 27.667 117.211 27.667C117.954 27.667 118.647 27.7655 119.216 27.9625C119.785 28.1595 120.354 28.455 120.899 28.8736L121.22 29.1198L122.012 28.0364L121.715 27.7901C121.047 27.2484 120.354 26.8791 119.612 26.6328C118.894 26.3866 118.077 26.2881 117.187 26.2881C116.617 26.2881 116.023 26.362 115.454 26.5097C114.885 26.6574 114.341 26.9037 113.871 27.2484C113.4 27.5931 113.004 28.0117 112.707 28.5042C112.411 29.0213 112.262 29.6369 112.262 30.3264C112.262 31.139 112.411 31.8038 112.707 32.3209C113.004 32.8134 113.351 33.232 113.772 33.5521C114.192 33.8475 114.638 34.0938 115.133 34.2415C115.578 34.3893 116.023 34.5124 116.395 34.6109L117.335 34.8817C117.805 35.0049 118.275 35.1526 118.696 35.3003C119.092 35.4481 119.463 35.6205 119.76 35.8421C120.032 36.0391 120.28 36.3099 120.428 36.6546C120.602 36.9994 120.676 37.4426 120.676 37.9843C120.676 38.4522 120.577 38.8708 120.354 39.1909C120.131 39.5356 119.859 39.8065 119.513 40.0035C119.166 40.2251 118.746 40.3728 118.3 40.4713C117.83 40.5698 117.36 40.6191 116.89 40.6191C116.023 40.6191 115.207 40.4467 114.44 40.1266C113.673 39.8065 112.98 39.3386 112.386 38.7477L112.064 38.4522L111.148 39.511L111.421 39.7819C112.163 40.4959 113.004 41.0377 113.92 41.4316C114.86 41.801 115.85 41.998 116.89 41.998C117.459 41.998 118.053 41.9241 118.647 41.801C119.265 41.6779 119.81 41.4316 120.305 41.1362C120.8 40.816 121.22 40.4221 121.542 39.905C121.864 39.3879 122.037 38.7477 122.037 37.9843C122.037 37.1964 121.913 36.5562 121.641 36.0391C121.443 35.522 121.097 35.1034 120.676 34.7586V34.7586Z" fill="#818592"/>
<path d="M134.262 28.136C133.742 27.6189 133.148 27.225 132.43 26.9295C131.738 26.634 130.97 26.4862 130.178 26.4862C129.065 26.4862 128.026 26.7817 127.135 27.3481C126.64 27.6682 126.194 28.0375 125.848 28.4808V17.2031H124.487V41.9745H125.848V32.2236C125.848 31.608 125.972 31.017 126.17 30.4999C126.392 29.9582 126.689 29.4903 127.085 29.0964C127.481 28.7024 127.927 28.3823 128.471 28.1607C128.991 27.939 129.585 27.8405 130.178 27.8405C130.772 27.8405 131.342 27.9637 131.861 28.1607C132.381 28.3823 132.851 28.7024 133.222 29.0964C133.618 29.4903 133.915 29.9582 134.138 30.4999C134.361 31.017 134.46 31.608 134.46 32.2236V41.9745H135.87V32.2236C135.87 31.411 135.722 30.6476 135.425 29.9582C135.177 29.2441 134.757 28.6531 134.262 28.136Z" fill="#818592"/>
<path d="M148.763 28.3321C148.317 27.6918 147.723 27.1747 146.956 26.8054C146.214 26.4607 145.249 26.2637 144.086 26.2637C143.566 26.2637 142.873 26.3129 142.081 26.436C141.265 26.5592 140.349 26.83 139.384 27.224L138.988 27.3964L139.557 28.6768L139.928 28.5044C140.77 28.1351 141.562 27.8888 142.279 27.7903C143.022 27.6918 143.64 27.6426 144.086 27.6426C144.977 27.6426 145.719 27.7657 146.263 28.0119C146.808 28.2582 147.228 28.6029 147.55 29.0215C147.872 29.4647 148.095 30.0311 148.218 30.6713C148.317 31.213 148.392 31.804 148.416 32.4442C146.758 32.0995 145.298 31.9271 144.011 31.9271C141.982 31.9271 140.398 32.3703 139.31 33.2075C138.567 33.7985 138.072 34.488 137.85 35.2267C137.627 35.9408 137.528 36.581 137.528 37.1473C137.528 37.5659 137.602 38.0584 137.751 38.6001C137.899 39.1418 138.171 39.6836 138.542 40.176C138.914 40.6685 139.433 41.0871 140.077 41.4318C140.72 41.7766 141.537 41.9736 142.527 41.9736C143.022 41.9736 143.541 41.9243 144.135 41.8012C144.704 41.6781 145.273 41.5057 145.843 41.2595C146.412 41.0132 146.981 40.6931 147.501 40.2992C147.847 40.0283 148.194 39.7082 148.49 39.3635V41.8012H149.852V33.4045C149.852 32.395 149.777 31.4593 149.654 30.6221C149.48 29.7356 149.183 28.9723 148.763 28.3321V28.3321ZM148.466 33.8724V35.2021C148.466 35.6699 148.416 36.187 148.317 36.6795C148.243 37.1473 148.045 37.5905 147.748 38.0092C147.426 38.477 147.03 38.871 146.61 39.2157C146.164 39.5604 145.719 39.8313 145.249 40.0283C144.779 40.2253 144.308 40.373 143.838 40.4715C143.368 40.57 142.923 40.6193 142.502 40.6193C141.784 40.6193 141.19 40.4961 140.72 40.2499C140.25 40.0037 139.879 39.6836 139.631 39.3388C139.359 38.9941 139.186 38.6247 139.062 38.2308C138.963 37.8368 138.889 37.4921 138.889 37.1966C138.889 36.7533 138.963 36.2609 139.136 35.6945C139.285 35.1774 139.631 34.7342 140.126 34.3156C140.992 33.6508 142.279 33.3307 143.962 33.3307C145.249 33.306 146.758 33.503 148.466 33.8724V33.8724Z" fill="#818592"/>
<path d="M159.924 27.2735C159.553 27.0273 159.132 26.8303 158.662 26.6825C158.192 26.5348 157.722 26.4609 157.227 26.4609C156.262 26.4609 155.371 26.7318 154.579 27.2489C154.208 27.4951 153.861 27.7906 153.564 28.1353V26.6333H152.154V41.9738H153.564V31.9274C153.564 31.3364 153.663 30.7947 153.837 30.3022C154.035 29.8098 154.282 29.3665 154.628 28.9972C154.95 28.6278 155.346 28.3323 155.792 28.1353C156.559 27.7906 157.474 27.7414 158.241 28.0122C158.588 28.1353 158.91 28.3077 159.207 28.5047L159.652 28.8002L160.147 27.4459L159.924 27.2735Z" fill="#818592"/>
<path d="M161.434 33.6259H173.832L173.807 33.1827C173.733 32.1485 173.51 31.1882 173.189 30.351C172.842 29.5138 172.397 28.7751 171.828 28.1841C171.258 27.5931 170.566 27.1007 169.798 26.7806C169.031 26.4605 168.14 26.2881 167.2 26.2881C166.161 26.2881 165.171 26.4851 164.305 26.8791C163.439 27.273 162.671 27.8148 162.028 28.5288C161.409 29.2183 160.914 30.0555 160.568 31.0405C160.222 32.0008 160.048 33.0596 160.048 34.1923C160.048 35.325 160.222 36.3838 160.568 37.3195C160.914 38.2798 161.409 39.117 162.028 39.8065C162.647 40.4959 163.414 41.0623 164.305 41.4316C165.171 41.801 166.161 41.998 167.2 41.998C168.363 41.998 169.427 41.8256 170.392 41.4563C171.382 41.1115 172.224 40.5944 172.941 39.9296L173.238 39.6587L172.372 38.6492L172.05 38.92C171.456 39.4371 170.739 39.8557 169.922 40.1758C169.106 40.4713 168.19 40.6191 167.2 40.6191C166.359 40.6191 165.567 40.4713 164.874 40.1512C164.181 39.8311 163.562 39.3879 163.067 38.8461C162.572 38.2798 162.152 37.615 161.88 36.827C161.607 36.0391 161.459 35.1526 161.459 34.1923V33.7244C161.434 33.6752 161.434 33.6506 161.434 33.6259V33.6259ZM161.632 32.2716C161.756 31.6807 161.954 31.1389 162.226 30.6465C162.548 30.0309 162.944 29.4892 163.439 29.0459C163.934 28.6027 164.503 28.258 165.121 28.0117C165.74 27.7655 166.458 27.6424 167.2 27.6424C168.041 27.6424 168.759 27.7901 169.378 28.061C169.996 28.3319 170.491 28.7012 170.912 29.1691C171.333 29.6369 171.654 30.1786 171.902 30.7696C172.1 31.2374 172.248 31.7545 172.347 32.2716H161.632V32.2716Z" fill="#818592"/>
<path d="M185.338 36.0144C185.066 35.4973 184.72 35.0787 184.299 34.7586C183.878 34.4385 183.408 34.1923 182.888 34.0199C182.394 33.8476 181.874 33.6998 181.379 33.5521L180.439 33.2812C180.067 33.1827 179.671 33.0842 179.3 32.9365C178.954 32.8134 178.607 32.641 178.31 32.444C178.038 32.247 177.791 31.9762 177.617 31.6314C177.444 31.2867 177.345 30.8435 177.345 30.3017C177.345 29.8585 177.444 29.4645 177.642 29.1444C177.84 28.8243 178.112 28.5288 178.434 28.3319C178.756 28.1102 179.152 27.9379 179.572 27.8394C179.993 27.7163 180.439 27.667 180.859 27.667C181.602 27.667 182.295 27.7655 182.864 27.9625C183.433 28.1595 184.002 28.455 184.546 28.8736L184.868 29.1198L185.66 28.0364L185.363 27.7901C184.695 27.2484 184.002 26.8791 183.26 26.6328C182.542 26.3866 181.725 26.2881 180.835 26.2881C180.265 26.2881 179.671 26.362 179.102 26.5097C178.533 26.6574 177.989 26.9037 177.518 27.2484C177.048 27.5931 176.652 28.0117 176.355 28.5042C176.058 29.0213 175.91 29.6369 175.91 30.3264C175.91 31.139 176.058 31.8038 176.355 32.3209C176.652 32.8134 176.999 33.232 177.42 33.5521C177.84 33.8475 178.286 34.0938 178.781 34.2415C179.226 34.3893 179.671 34.5124 180.043 34.6109L180.983 34.8817C181.453 35.0049 181.923 35.1526 182.344 35.3003C182.74 35.4481 183.111 35.6205 183.408 35.8421C183.68 36.0391 183.928 36.3099 184.076 36.6546C184.25 36.9994 184.324 37.4426 184.324 37.9843C184.324 38.4522 184.225 38.8708 184.002 39.1909C183.779 39.5356 183.507 39.8065 183.161 40.0035C182.814 40.2251 182.394 40.3728 181.948 40.4713C180.637 40.7668 179.276 40.6437 178.088 40.1266C177.321 39.8065 176.628 39.3386 176.034 38.7477L175.712 38.4522L174.796 39.511L175.069 39.7819C175.811 40.4959 176.652 41.0377 177.568 41.4316C178.508 41.801 179.498 41.998 180.538 41.998C181.107 41.998 181.701 41.9241 182.295 41.801C182.913 41.6779 183.458 41.4316 183.953 41.1362C184.447 40.816 184.868 40.4221 185.19 39.905C185.512 39.3879 185.685 38.7477 185.685 37.9843C185.734 37.1964 185.611 36.5315 185.338 36.0144V36.0144Z" fill="#818592"/>
<path d="M52.4747 30.7952L42.1802 20.5518C42.1802 25.772 42.1802 29.3916 42.1802 32.8143H51.6333C51.757 32.0756 52.054 31.3862 52.4747 30.7952Z" fill="#818592"/>
<path d="M51.6333 34.832H42.1802C42.4029 38.1316 43.7145 41.1357 45.7932 43.4996L52.4747 36.8512C52.054 36.2356 51.757 35.5461 51.6333 34.832Z" fill="#818592"/>
<path d="M66.6053 22.7425C64.2544 20.6988 61.2353 19.3691 57.8945 19.1475V28.5537C58.6369 28.7014 59.3051 28.9723 59.899 29.3909L66.6053 22.7425V22.7425Z" fill="#818592"/>
<path d="M61.4331 36.68L68.1394 43.353C70.1439 41.0138 71.4059 38.0589 71.6286 34.8086H62.1755C62.0518 35.4981 61.8043 36.1383 61.4331 36.68V36.68Z" fill="#818592"/>
<path d="M62.1754 32.814H71.6285C71.4058 29.5144 70.0942 26.5104 68.0155 24.1465L61.334 30.7949C61.7547 31.4105 62.0516 32.0999 62.1754 32.814Z" fill="#818592"/>
<path d="M47.2031 44.9052C49.554 46.949 52.5731 48.2787 55.9139 48.5003V39.094C55.1715 38.9463 54.5033 38.6754 53.9094 38.2568L47.2031 44.9052V44.9052Z" fill="#818592"/>
<path d="M57.9189 39.0687V48.4749C61.2597 48.2533 64.2788 46.9236 66.6297 44.8798L59.9482 38.2314C59.3542 38.65 58.6613 38.9455 57.9189 39.0687V39.0687Z" fill="#818592"/>
<path d="M42.2054 17.4978C44.6553 20.2803 52.4999 28.5046 54.0342 29.3172C54.6281 29.6373 55.2221 28.7016 55.915 28.5785C55.915 25.9438 55.915 13.1641 55.915 13.1641L42.1807 1C42.1807 1 42.2054 17.0792 42.2054 17.4978V17.4978Z" fill="#818592"/>
</svg>
