<svg width="234" height="50" viewBox="0 0 234 50" fill="none" xmlns="http://www.w3.org/2000/svg">
<path fill-rule="evenodd" clip-rule="evenodd" d="M54.0977 1.00002C54.3356 1.31721 54.5735 1.6344 54.8114 2.03088C56.3046 4.0219 57.7491 6.01292 59.2213 8.04224C59.6253 8.59912 60.0318 9.15943 60.4416 9.72287C62.0275 11.8639 63.6135 14.005 65.1202 16.1461C65.1414 16.1885 65.1627 16.2253 65.1824 16.2595C65.2363 16.3528 65.2788 16.4265 65.2788 16.5426C65.3977 17.1768 65.5364 17.8308 65.6752 18.4849L65.6754 18.4858C65.8141 19.1398 65.9529 19.794 66.0718 20.4282C66.5476 22.6486 67.0234 24.8689 67.4992 27.01C67.8103 28.5658 68.1464 30.1215 68.4794 31.6633C68.7405 32.872 68.9998 34.0723 69.2437 35.2571C69.3627 35.8518 69.4816 36.4268 69.6006 37.0017C69.7195 37.5766 69.8385 38.1515 69.9574 38.7462C70.0367 38.9841 70.0367 38.9841 69.7988 39.0634C68.9265 39.5789 68.0344 40.1141 67.1423 40.6494C66.2502 41.1847 65.3581 41.7199 64.4858 42.2354C62.8603 43.2265 61.215 44.2177 59.5697 45.2089L59.5689 45.2093C57.9236 46.2005 56.2783 47.1916 54.6528 48.1828C54.5735 48.2224 54.4744 48.2819 54.3752 48.3414C54.2761 48.4009 54.177 48.4603 54.0977 48.5H53.9391C53.8598 48.4207 53.8598 48.4207 53.7805 48.4207C53.5029 48.2621 53.2452 48.1035 52.9875 47.9449C52.7298 47.7863 52.472 47.6277 52.1945 47.4691C51.3732 46.9824 50.5519 46.484 49.7261 45.9829C48.3991 45.1778 47.0606 44.3655 45.692 43.5835C44.4632 42.8303 43.2145 42.0772 41.9659 41.324L41.9649 41.3235C40.716 40.5701 39.467 39.8168 38.2379 39.0634C38.1983 39.0634 38.1586 39.0436 38.119 39.0238C38.0793 39.004 38.0396 38.9841 38 38.9841V38.7462C38.0793 38.6669 38.0793 38.5876 38.0793 38.5083C38.2775 37.5568 38.4758 36.625 38.674 35.6932C38.8723 34.7615 39.0705 33.8297 39.2688 32.8781C39.586 31.7151 39.8327 30.552 40.0794 29.389C40.2027 28.8075 40.3261 28.2259 40.4583 27.6444C40.6962 26.5342 40.9341 25.4439 41.172 24.3535C41.4098 23.2631 41.6477 22.1728 41.8856 21.0626C42.0442 20.3093 42.2028 19.5757 42.3614 18.8422C42.52 18.1087 42.6786 17.3752 42.8372 16.6219C42.8372 16.4633 42.9165 16.3047 42.9958 16.2254C43.1544 16.0271 43.2932 15.8289 43.432 15.6306C43.5707 15.4324 43.7095 15.2341 43.8681 15.0359C45.5333 12.7363 47.1987 10.4365 48.9432 8.13689C49.7758 7.02676 50.5886 5.89681 51.4014 4.76686C52.2142 3.63685 53.0271 2.50667 53.8598 1.39649C53.8598 1.28039 53.9023 1.20679 53.9561 1.11346C53.9759 1.0793 53.9971 1.0425 54.0184 1L54.0977 1.00002ZM54.0977 42.4733C54.177 42.394 54.177 42.3147 54.177 42.2354C54.9699 39.8564 55.7629 37.4775 56.5559 35.0192C58.5384 28.9925 60.5209 22.9657 62.5826 17.0184C62.6619 16.8598 62.6619 16.7012 62.5033 16.5426C61.4725 15.1945 60.4416 13.7671 59.49 12.419L54.2563 5.28214C54.226 5.25185 54.2073 5.22156 54.1913 5.19569C54.1654 5.15383 54.1467 5.12354 54.0977 5.12354C54.0977 5.04424 54.0184 5.04424 53.9391 5.12354L53.8598 5.20284C53.3047 5.95617 52.7496 6.72933 52.1945 7.50248C51.6394 8.27565 51.0843 9.04882 50.5292 9.80217C49.6966 10.952 48.8639 12.082 48.0313 13.212C47.1987 14.3419 46.3659 15.4721 45.5334 16.6219C45.4541 16.7805 45.3748 16.9391 45.4541 17.0977C48.0643 24.5051 50.549 32.038 53.0199 39.5289L53.0202 39.5298C53.3266 40.4588 53.6328 41.3872 53.9391 42.3147L54.0977 42.4733ZM63.8514 20.8247C63.8514 20.904 63.7721 20.9833 63.7721 20.9833C63.4549 21.9745 63.1179 22.9658 62.7809 23.957C62.4439 24.9482 62.1068 25.9396 61.7896 26.9307C60.9967 29.3097 60.2037 31.6688 59.4107 34.028C58.6177 36.3871 57.8247 38.7462 57.0317 41.1252C56.8335 41.7199 56.6353 42.2947 56.4371 42.8695C56.2389 43.4443 56.0405 44.0197 55.8422 44.6144C55.8422 44.6408 55.8334 44.6672 55.8246 44.6936C55.807 44.7465 55.7894 44.7994 55.8422 44.8522C55.9215 44.8522 56.0008 44.773 56.0008 44.773C57.0712 44.1386 58.1615 43.4845 59.2517 42.8304C60.3421 42.1761 61.4328 41.5217 62.5033 40.8873C63.2567 40.4115 64.0298 39.9555 64.803 39.4996L64.8038 39.4991C65.5766 39.0433 66.3496 38.5875 67.1027 38.1119C67.2412 38.0195 67.2991 37.9809 67.3076 37.9335C67.3137 37.8995 67.2944 37.8609 67.2613 37.7947C66.9075 36.2027 66.5784 34.6108 66.2465 33.0051C65.9832 31.7315 65.718 30.4488 65.4374 29.1511L63.7721 21.0626C63.9307 20.904 63.9307 20.8247 63.8514 20.8247ZM44.2646 20.8247C44.1853 20.904 44.1853 20.904 44.1853 20.9833C43.8681 22.49 43.5509 23.9967 43.2337 25.5826C43.018 26.5533 42.8186 27.524 42.6207 28.4873C42.3821 29.6487 42.1457 30.7996 41.8856 31.9265L40.6962 37.6361C40.6584 37.7493 40.6386 37.8086 40.6539 37.8568C40.6708 37.9099 40.7301 37.9495 40.8548 38.0326C42.1235 38.8255 43.4716 39.6185 44.7404 40.3322C45.9695 41.0459 47.1788 41.7794 48.3881 42.5129C49.5975 43.2464 50.8068 43.98 52.0359 44.6936C52.0755 44.6936 52.0954 44.7135 52.1152 44.7333C52.135 44.7531 52.1548 44.773 52.1945 44.773V44.6936C49.6569 36.7638 46.9608 28.7546 44.2646 20.8247Z" fill="#818592"/>
<path d="M193.267 40.808V37.3982C193.267 37.081 193.267 37.081 193.584 37.081C193.743 37.081 193.822 37.1603 193.902 37.3189C194.06 37.7147 194.218 38.1302 194.377 38.5458L194.377 38.548C194.536 38.9643 194.695 39.3806 194.853 39.7771C194.853 39.8564 194.853 39.9357 194.932 39.9357C195.012 39.8564 195.012 39.8564 195.012 39.7771C195.17 39.3813 195.328 38.9658 195.487 38.5502L195.488 38.5462C195.647 38.1305 195.805 37.7147 195.963 37.3189C195.963 37.2396 196.043 37.1603 196.122 37.081H196.518C196.598 37.081 196.598 37.1603 196.598 37.1603V40.7287H196.201V37.7154L196.043 37.874C195.894 38.1705 195.777 38.467 195.652 38.7828C195.576 38.9735 195.498 39.1716 195.408 39.3806C195.329 39.6185 195.23 39.8366 195.131 40.0547C195.032 40.2727 194.932 40.4908 194.853 40.7287H194.695C194.695 40.6494 194.695 40.5701 194.615 40.5701C194.457 40.134 194.278 39.678 194.1 39.222C193.921 38.7661 193.743 38.3101 193.584 37.874C193.584 37.874 193.584 37.7947 193.505 37.7947V40.808H193.267Z" fill="#818592"/>
<path d="M190.73 40.808H191.126V37.7947C191.126 37.6361 191.126 37.5568 191.166 37.5171C191.205 37.4775 191.285 37.4775 191.443 37.4775H192.157C192.316 37.4775 192.316 37.3982 192.316 37.2396C192.236 37.1603 192.157 37.1603 192.078 37.1603H189.699C189.619 37.1603 189.58 37.1603 189.56 37.1801C189.54 37.1999 189.54 37.2396 189.54 37.3189C189.54 37.3982 189.54 37.4378 189.56 37.4576C189.58 37.4775 189.619 37.4775 189.699 37.4775H190.492C190.73 37.4775 190.73 37.5568 190.73 37.7154V40.808Z" fill="#818592"/>
<path fill-rule="evenodd" clip-rule="evenodd" d="M175.98 15.5114C178.676 15.5114 181.055 16.3044 183.117 18.0489C185.337 19.9521 186.368 22.3311 186.527 25.2651C186.606 27.1683 186.289 28.9922 185.416 30.6575C184.385 32.6399 182.72 34.1466 180.658 35.0982C177.883 36.2877 175.108 36.4463 172.253 35.4947C168.526 34.2259 165.83 31.2125 165.433 27.1683C165.195 25.1858 165.433 23.362 166.226 21.5381C167.098 19.4763 168.605 18.0489 170.508 16.9388C172.253 15.9872 174.077 15.5114 175.98 15.5114ZM176.376 33.9087C178.676 33.8294 180.976 32.7192 182.482 30.4196C183.751 28.5164 183.989 26.3753 183.672 24.1549C183.355 22.0932 182.403 20.4279 180.738 19.1591C178.676 17.5731 176.297 17.1767 173.759 17.811C171.539 18.3661 169.874 19.7142 168.843 21.776C167.971 23.4413 167.812 25.1858 168.05 26.9304C168.605 31.0539 171.856 33.9087 176.376 33.9087Z" fill="#818592"/>
<path d="M132.207 34.2259C132.207 34.2259 132.286 34.3845 132.841 34.7017C133.317 35.0189 134.586 35.4947 135.934 35.8119C137.52 36.0498 139.185 36.1291 140.85 35.8119C143.467 35.3361 145.37 33.7501 145.608 31.0539C145.767 29.2301 145.291 27.7234 143.864 26.5339C142.674 25.5823 141.326 24.8686 139.899 24.2342C139.722 24.1527 139.541 24.0712 139.357 23.9885C138.467 23.5884 137.515 23.1604 136.727 22.569C136.251 22.1725 135.775 21.776 135.537 21.1416C134.982 19.6349 135.855 18.2075 137.52 17.8903C139.185 17.5731 140.692 17.6524 142.754 18.3661C142.912 18.2868 144.34 17.2559 144.498 17.0974C144.468 17.0671 144.449 17.0368 144.433 17.0109C144.407 16.969 144.389 16.9388 144.34 16.9388C143.071 16.2251 141.802 15.8286 140.216 15.67C138.63 15.5114 136.251 15.5114 134.427 16.7802C134.388 16.8198 134.348 16.8396 134.308 16.8595C134.269 16.8793 134.229 16.8991 134.189 16.9388C132.603 18.2868 131.969 21.6174 134.269 23.6792C135.22 24.4721 136.251 25.1065 137.282 25.6616C137.62 25.8216 137.957 25.9775 138.294 26.1331C139.46 26.6716 140.615 27.2052 141.723 27.882C144.181 29.3887 143.388 32.3227 141.723 33.2743C140.533 33.9087 139.344 34.0673 138.075 33.988C136.727 33.9087 135.537 33.6708 134.269 33.195C134.031 33.1157 133.793 32.9571 133.793 32.9571L132.207 34.2259Z" fill="#818592"/>
<path d="M158.217 35.6533H155.6V17.8903H151.397V15.9079H158.217V35.6533Z" fill="#818592"/>
<path d="M156.71 10.8327C157.82 10.8327 158.693 9.96046 158.693 8.92957C158.693 7.97799 157.82 7.1057 156.71 7.0264C155.679 7.0264 154.807 7.89869 154.807 8.92957C154.807 9.88116 155.759 10.8327 156.71 10.8327Z" fill="#818592"/>
<path fill-rule="evenodd" clip-rule="evenodd" d="M100.725 25.6616H84.0725V26.1374C84.1518 26.8511 84.2311 27.4855 84.3897 28.1992C84.8655 29.9438 85.817 31.3711 87.2444 32.402C89.3855 33.988 91.9231 34.0673 94.3813 33.7501C95.2023 33.6133 95.8462 33.4174 96.5168 33.2134C96.6234 33.181 96.7308 33.1484 96.8396 33.1157C97.6326 32.8778 98.3463 32.4813 99.1392 32.0055V34.3052C97.9498 34.8603 96.6017 35.3361 95.4122 35.574C94.6985 35.7326 93.0332 35.9705 92.1609 35.9705C89.5441 36.0498 87.2444 35.3361 85.1033 33.8294C83.1209 32.3227 81.9314 30.3403 81.4556 27.9613C80.9798 25.3444 81.2177 22.8069 82.4865 20.3486C83.2002 19.0005 84.3104 17.8903 85.5791 17.0974C86.2928 16.7009 87.7202 16.0665 89.1476 15.7493C91.7645 15.3528 94.8571 15.67 97.2361 17.6524C98.9013 19.0005 99.8529 20.7451 100.249 22.8069C100.408 23.362 100.487 24.0756 100.487 24.71C100.805 25.1858 100.725 25.6616 100.725 25.6616ZM97.8705 23.5999C97.8705 23.5999 97.8705 23.362 97.7912 23.2034C97.7119 22.9655 97.6524 22.7474 97.5929 22.5293C97.5334 22.3112 97.474 22.0932 97.3947 21.8553C96.681 20.0314 95.4122 18.6833 93.509 17.9696C89.4648 16.5423 85.1826 18.9212 84.3104 23.1241C84.2311 23.4413 84.2311 23.5206 84.2311 23.5206L97.8705 23.5999Z" fill="#818592"/>
<path fill-rule="evenodd" clip-rule="evenodd" d="M111.827 16.463C110.558 17.0181 109.527 17.811 108.576 18.7626C107.941 19.397 107.545 20.1107 107.069 20.983C106.514 22.0139 106.118 23.2827 106.038 24.5514C105.959 25.5823 106.038 26.6132 106.197 27.6441C106.514 29.6266 107.386 31.3711 108.814 32.7985C109.527 33.5915 110.32 34.1466 111.272 34.6224C112.382 35.2568 113.413 35.574 114.682 35.8119C114.999 35.8912 115.475 35.9705 115.792 35.9705C116.823 35.9705 117.299 35.9705 118.33 35.8119C120.55 35.4947 122.532 34.6224 124.198 33.0364C125.784 31.5297 126.735 29.6266 127.052 27.4062C127.449 24.7893 127.132 22.3311 125.625 20.1107C123.484 16.8595 120.312 15.4321 116.506 15.4321C114.84 15.4321 113.334 15.8286 111.827 16.463ZM118.012 33.7501C117.537 33.9087 117.14 33.9087 116.664 33.9087C112.461 33.988 109.21 30.9746 108.655 26.7718C108.417 24.71 108.734 22.8069 109.845 21.0623C111.113 19.0798 113.017 17.8903 115.316 17.5731C117.457 17.2559 119.519 17.7317 121.264 19.0005C123.087 20.3486 124.039 22.1725 124.356 24.3135C124.594 26.2167 124.436 27.9613 123.563 29.6266C122.453 31.9262 120.55 33.2743 118.012 33.7501Z" fill="#818592"/>
</svg>
