<svg width="234" height="50" viewBox="0 0 234 50" fill="none" xmlns="http://www.w3.org/2000/svg">
<path d="M81.1737 29.2189C81.1737 29.5027 80.8949 29.7866 80.6162 29.7866H70.3018C70.5806 32.4362 72.532 34.8019 75.2267 34.8019C77.0851 34.8019 78.479 34.0449 79.5011 32.5309C79.6869 32.3416 79.8728 32.1523 80.1515 32.3416C80.3374 32.4362 80.4303 32.5309 80.4303 32.7201C80.4303 32.9094 80.4303 33.004 80.3374 33.0986C79.3152 34.9912 77.178 35.8429 75.1338 35.8429C71.6027 35.8429 69.1868 32.6255 69.1868 29.2189C69.1868 25.8122 71.6957 22.5949 75.1338 22.5949C78.6648 22.6895 81.1737 25.8122 81.1737 29.2189ZM80.0586 28.7457C79.8728 26.0961 77.8285 23.7304 75.1338 23.7304C72.439 23.7304 70.4877 26.0961 70.2089 28.7457H80.0586ZM93.811 22.9734C94.0898 22.9734 94.3686 23.2573 94.3686 23.5412C94.3686 23.825 94.1827 24.1089 93.811 24.1089H91.0234V35.2751C91.0234 35.559 90.8376 35.8429 90.4659 35.8429C90.1871 35.8429 89.9083 35.559 89.9083 35.2751V24.0143H87.2136C86.9348 24.0143 86.6561 23.825 86.6561 23.4465C86.6561 23.1626 86.8419 22.8788 87.2136 22.8788H90.0013V18.8097C90.0013 18.5258 90.1871 18.3366 90.3729 18.242C90.7446 18.1473 91.0234 18.4312 91.0234 18.8097V22.8788L93.811 22.9734ZM110.816 28.3672V35.0858C110.816 35.3697 110.537 35.6536 110.258 35.6536C109.979 35.6536 109.701 35.4643 109.701 35.0858V28.3672C109.701 26.0961 108.4 23.825 105.984 23.825C102.824 23.825 101.431 26.6639 101.616 29.5974C101.616 29.692 101.616 29.9759 101.616 30.0705V35.1805C101.616 35.4643 101.431 35.6536 101.245 35.7482C100.873 35.8429 100.594 35.559 100.594 35.1805V12.9428C100.594 12.6589 100.78 12.375 101.152 12.375C101.431 12.375 101.709 12.6589 101.709 12.9428V25.5284C102.639 23.9197 104.218 22.7841 106.077 22.7841C109.05 22.6895 110.816 25.4337 110.816 28.3672ZM129.493 29.2189C129.493 29.5027 129.214 29.7866 128.935 29.7866H118.528C118.807 32.4362 120.758 34.8019 123.453 34.8019C125.312 34.8019 126.705 34.0449 127.728 32.5309C127.913 32.3416 128.099 32.1523 128.378 32.3416C128.564 32.4362 128.657 32.5309 128.657 32.7201C128.657 32.9094 128.657 33.004 128.564 33.0986C127.542 34.9912 125.404 35.8429 123.36 35.8429C119.829 35.8429 117.413 32.6255 117.413 29.2189C117.413 25.8122 119.922 22.5949 123.36 22.5949C126.984 22.6895 129.493 25.8122 129.493 29.2189ZM128.378 28.7457C128.192 26.0961 126.148 23.7304 123.453 23.7304C120.758 23.7304 118.807 26.0961 118.528 28.7457H128.378ZM142.223 23.4465C142.223 23.825 142.037 24.0143 141.759 24.0143C138.692 24.4874 137.298 27.0424 137.298 29.9759V35.0858C137.298 35.3697 137.113 35.559 136.927 35.6536C136.555 35.7482 136.276 35.4643 136.276 35.0858V23.4465C136.276 23.1626 136.462 22.9734 136.648 22.8788C137.02 22.7841 137.298 23.068 137.298 23.4465V25.8122C138.135 24.2982 139.9 22.9734 141.666 22.9734C141.945 22.9734 142.223 23.1626 142.223 23.4465ZM159.321 29.2189C159.321 29.5027 159.042 29.7866 158.763 29.7866H148.356C148.635 32.4362 150.586 34.8019 153.281 34.8019C155.139 34.8019 156.533 34.0449 157.555 32.5309C157.741 32.3416 157.927 32.1523 158.206 32.3416C158.392 32.4362 158.485 32.5309 158.485 32.7201C158.485 32.9094 158.485 33.004 158.392 33.0986C157.37 34.9912 155.232 35.8429 153.188 35.8429C149.657 35.8429 147.241 32.6255 147.241 29.2189C147.241 25.8122 149.75 22.5949 153.188 22.5949C156.812 22.6895 159.321 25.8122 159.321 29.2189ZM158.206 28.7457C158.02 26.0961 155.976 23.7304 153.281 23.7304C150.586 23.7304 148.635 26.0961 148.356 28.7457H158.206ZM176.14 23.5412V35.0858C176.14 35.3697 175.861 35.6536 175.582 35.6536C175.303 35.6536 175.025 35.4643 175.025 35.0858V32.9094C174.188 34.6127 172.609 35.9375 170.75 35.9375C167.684 35.9375 165.918 33.1933 165.918 30.3544V23.5412C165.918 23.2573 166.104 22.9734 166.476 22.9734C166.755 22.9734 167.033 23.2573 167.033 23.5412V30.3544C167.033 32.6255 168.334 34.8966 170.75 34.8966C174.281 34.8966 175.025 31.5846 175.025 27.8941V23.5412C175.025 23.2573 175.303 22.8788 175.675 23.068C175.954 23.068 176.14 23.3519 176.14 23.5412ZM202.437 28.2726V35.0858C202.437 35.3697 202.158 35.6536 201.879 35.6536C201.6 35.6536 201.322 35.4643 201.322 35.0858V28.2726C201.322 26.0015 200.021 23.7304 197.605 23.7304C194.445 23.7304 193.33 27.137 193.33 29.7866V34.9912C193.33 35.2751 193.052 35.559 192.773 35.559C192.494 35.559 192.215 35.3697 192.215 34.9912V28.178C192.215 25.9069 190.914 23.6358 188.498 23.6358C185.339 23.6358 184.038 26.1908 184.131 29.5974C184.131 29.692 184.131 29.7866 184.131 29.8813V34.9912C184.131 35.2751 183.945 35.4643 183.666 35.559C183.295 35.6536 183.016 35.3697 183.016 34.9912V23.4465C183.016 23.1626 183.202 22.9734 183.388 22.8788C183.759 22.7841 184.038 23.068 184.038 23.4465V25.3391C184.967 23.7304 186.547 22.6895 188.405 22.6895C190.543 22.6895 192.122 24.0143 192.866 26.0961C193.702 24.1089 195.375 22.6895 197.512 22.6895C200.671 22.6895 202.437 25.4337 202.437 28.2726Z" fill="#818592"/>
<g opacity="0.6">
<path opacity="0.8" d="M45.9497 19.0371L30.9998 25.8621L45.9497 34.7183L60.8997 25.8621L45.9497 19.0371Z" fill="#818592"/>
</g>
<g opacity="0.45">
<path opacity="0.65" d="M31 25.8625L45.95 34.7187V1L31 25.8625Z" fill="#818592"/>
</g>
<g opacity="0.8">
<path d="M45.9497 1V34.6375L60.8997 25.7812L45.9497 1Z" fill="#818592"/>
</g>
<g opacity="0.45">
<path opacity="0.75" d="M30.9998 28.7061L45.9497 49.7498V37.4811L30.9998 28.7061Z" fill="#818592"/>
</g>
<g opacity="0.8">
<path opacity="0.8" d="M45.9497 37.4811V49.7498L60.8997 28.7061L45.9497 37.4811Z" fill="#818592"/>
</g>
</svg>
