<svg width="234" height="50" viewBox="0 0 234 50" fill="none" xmlns="http://www.w3.org/2000/svg">
<path d="M81.1746 29.2188C81.1746 29.5027 80.8959 29.7866 80.6171 29.7866H70.3026C70.5814 32.4361 72.5327 34.8018 75.2275 34.8018C77.086 34.8018 78.4798 34.0448 79.502 32.5308C79.6879 32.3415 79.8737 32.1523 80.1525 32.3415C80.3383 32.4361 80.4312 32.5308 80.4312 32.72C80.4312 32.9093 80.4312 33.0039 80.3383 33.0985C79.3162 34.9911 77.1789 35.8427 75.1346 35.8427C71.6035 35.8427 69.1875 32.6254 69.1875 29.2188C69.1875 25.8122 71.6964 22.5948 75.1346 22.5948C78.6657 22.6895 81.1746 25.8122 81.1746 29.2188ZM80.0595 28.7456C79.8737 26.0961 77.8294 23.7304 75.1346 23.7304C72.4398 23.7304 70.4884 26.0961 70.2097 28.7456H80.0595ZM93.8122 22.9733C94.091 22.9733 94.3698 23.2572 94.3698 23.5411C94.3698 23.825 94.1839 24.1089 93.8122 24.1089H91.0245V35.275C91.0245 35.5589 90.8387 35.8427 90.467 35.8427C90.1882 35.8427 89.9094 35.5589 89.9094 35.275V24.0142H87.2147C86.9359 24.0142 86.6571 23.825 86.6571 23.4465C86.6571 23.1626 86.843 22.8787 87.2147 22.8787H90.0024V18.8097C90.0024 18.5258 90.1882 18.3366 90.3741 18.2419C90.7457 18.1473 91.0245 18.4312 91.0245 18.8097V22.8787L93.8122 22.9733ZM110.817 28.3671V35.0857C110.817 35.3696 110.538 35.6535 110.26 35.6535C109.981 35.6535 109.702 35.4642 109.702 35.0857V28.3671C109.702 26.0961 108.401 23.825 105.985 23.825C102.826 23.825 101.432 26.6638 101.618 29.5973C101.618 29.6919 101.618 29.9758 101.618 30.0704V35.1804C101.618 35.4642 101.432 35.6535 101.246 35.7481C100.874 35.8428 100.596 35.5589 100.596 35.1804V12.9428C100.596 12.6589 100.781 12.375 101.153 12.375C101.432 12.375 101.711 12.6589 101.711 12.9428V25.5283C102.64 23.9196 104.22 22.7841 106.078 22.7841C109.052 22.6895 110.817 25.4337 110.817 28.3671ZM129.495 29.2188C129.495 29.5027 129.216 29.7866 128.937 29.7866H118.53C118.809 32.4361 120.76 34.8018 123.455 34.8018C125.313 34.8018 126.707 34.0448 127.729 32.5308C127.915 32.3415 128.101 32.1523 128.38 32.3415C128.566 32.4361 128.659 32.5308 128.659 32.72C128.659 32.9093 128.659 33.0039 128.566 33.0985C127.543 34.9911 125.406 35.8427 123.362 35.8427C119.831 35.8427 117.415 32.6254 117.415 29.2188C117.415 25.8122 119.924 22.5948 123.362 22.5948C126.986 22.6895 129.495 25.8122 129.495 29.2188ZM128.38 28.7456C128.194 26.0961 126.15 23.7304 123.455 23.7304C120.76 23.7304 118.809 26.0961 118.53 28.7456H128.38ZM142.225 23.4465C142.225 23.825 142.04 24.0142 141.761 24.0142C138.694 24.4874 137.3 27.0423 137.3 29.9758V35.0857C137.3 35.3696 137.115 35.5589 136.929 35.6535C136.557 35.7481 136.278 35.4642 136.278 35.0857V23.4465C136.278 23.1626 136.464 22.9733 136.65 22.8787C137.022 22.7841 137.3 23.068 137.3 23.4465V25.8122C138.137 24.2981 139.902 22.9733 141.668 22.9733C141.947 22.9733 142.225 23.1626 142.225 23.4465ZM159.323 29.2188C159.323 29.5027 159.045 29.7866 158.766 29.7866H148.358C148.637 32.4361 150.588 34.8018 153.283 34.8018C155.142 34.8018 156.536 34.0448 157.558 32.5308C157.744 32.3415 157.929 32.1523 158.208 32.3415C158.394 32.4361 158.487 32.5308 158.487 32.72C158.487 32.9093 158.487 33.0039 158.394 33.0985C157.372 34.9911 155.235 35.8427 153.19 35.8427C149.659 35.8427 147.243 32.6254 147.243 29.2188C147.243 25.8122 149.752 22.5948 153.19 22.5948C156.814 22.6895 159.323 25.8122 159.323 29.2188ZM158.208 28.7456C158.022 26.0961 155.978 23.7304 153.283 23.7304C150.588 23.7304 148.637 26.0961 148.358 28.7456H158.208ZM176.142 23.5411V35.0857C176.142 35.3696 175.864 35.6535 175.585 35.6535C175.306 35.6535 175.027 35.4642 175.027 35.0857V32.9093C174.191 34.6126 172.611 35.9374 170.753 35.9374C167.686 35.9374 165.921 33.1932 165.921 30.3543V23.5411C165.921 23.2572 166.107 22.9733 166.478 22.9733C166.757 22.9733 167.036 23.2572 167.036 23.5411V30.3543C167.036 32.6254 168.337 34.8965 170.753 34.8965C174.284 34.8965 175.027 31.5845 175.027 27.894V23.5411C175.027 23.2572 175.306 22.8787 175.678 23.068C175.957 23.068 176.142 23.3519 176.142 23.5411ZM202.44 28.2725V35.0857C202.44 35.3696 202.161 35.6535 201.882 35.6535C201.603 35.6535 201.325 35.4642 201.325 35.0857V28.2725C201.325 26.0014 200.024 23.7304 197.608 23.7304C194.448 23.7304 193.333 27.137 193.333 29.7866V34.9911C193.333 35.275 193.054 35.5589 192.776 35.5589C192.497 35.5589 192.218 35.3696 192.218 34.9911V28.1779C192.218 25.9068 190.917 23.6357 188.501 23.6357C185.342 23.6357 184.041 26.1907 184.134 29.5973C184.134 29.6919 184.134 29.7866 184.134 29.8812V34.9911C184.134 35.275 183.948 35.4642 183.669 35.5589C183.298 35.6535 183.019 35.3696 183.019 34.9911V23.4465C183.019 23.1626 183.205 22.9733 183.39 22.8787C183.762 22.7841 184.041 23.068 184.041 23.4465V25.339C184.97 23.7304 186.55 22.6895 188.408 22.6895C190.546 22.6895 192.125 24.0142 192.869 26.0961C193.705 24.1089 195.378 22.6895 197.515 22.6895C200.674 22.6895 202.44 25.4337 202.44 28.2725Z" fill="#3C3C3B"/>
<g opacity="0.6">
<g opacity="0.6">
<path opacity="0.8" d="M45.9503 19.0381L31 25.863L45.9503 34.7193L60.9005 25.863L45.9503 19.0381Z" fill="#010101"/>
</g>
</g>
<g opacity="0.45">
<g opacity="0.45">
<path opacity="0.65" d="M31.0005 25.8624L45.9507 34.7186V1L31.0005 25.8624Z" fill="#010101"/>
</g>
</g>
<g opacity="0.8">
<g opacity="0.8">
<path d="M45.9502 1V34.6373L60.9004 25.7811L45.9502 1Z" fill="#010101"/>
</g>
</g>
<g opacity="0.65">
<g opacity="0.45">
<path opacity="0.75" d="M31 28.7061L45.9503 49.7497V37.481L31 28.7061Z" fill="#010101"/>
</g>
</g>
<g opacity="0.8">
<path opacity="0.8" d="M45.9502 37.481V49.7497L60.9004 28.7061L45.9502 37.481Z" fill="#010101"/>
</g>
</svg>
