<svg width="234" height="50" viewBox="0 0 234 50" fill="none" xmlns="http://www.w3.org/2000/svg">
<path d="M105.637 19.7045L102.702 20.1147C103.175 20.5249 103.534 21.0008 103.827 21.5423C104.121 22.0674 104.235 22.8386 104.235 23.9052C104.235 25.4476 103.762 26.629 102.816 27.5808C101.87 28.5325 100.337 29.0083 98.2824 29.0083H95.4611C93.9933 29.0083 93.2269 29.4842 93.2269 30.3703C93.2269 30.7805 93.4062 31.0759 93.6998 31.2564C93.9933 31.4369 94.3521 31.4861 94.8251 31.4861H99.7501C101.691 31.4861 103.224 31.8963 104.17 32.6675C105.164 33.4388 105.637 34.6858 105.637 36.3924V36.9175C105.637 38.5748 105.116 39.8218 104.056 40.7079C102.995 41.594 101.463 42.0699 99.4077 42.0699H94.5152C92.8681 42.0699 91.5797 41.7089 90.5686 41.0033C89.5738 40.2977 89.0356 39.2803 89.0356 37.984V37.3933C89.0356 36.5565 89.264 35.8016 89.7369 35.1453C90.2098 34.4889 90.8622 34.0131 91.6123 33.6685C91.0905 33.3731 90.6665 33.0121 90.3729 32.5363C90.0794 32.0604 89.9652 31.5353 89.9652 30.9938C89.9652 30.157 90.1935 29.517 90.6665 28.9263C91.1394 28.4012 91.8407 27.9746 92.7213 27.7941C91.7265 27.3182 91.0089 26.6619 90.6012 25.7758C90.1935 24.9389 89.9489 24.0036 89.9489 22.937C89.9489 21.05 90.536 19.6881 91.6613 18.7856C92.7865 17.8831 94.4826 17.4893 96.7168 17.4893H105.719V19.6881L105.637 19.7045ZM95.3959 34.3741C94.5641 34.3741 93.9281 34.5546 93.3899 34.9648C92.8681 35.375 92.6235 35.9165 92.6235 36.6221V37.0979C92.6235 37.8035 92.8518 38.345 93.3899 38.6896C93.8629 39.0506 94.5641 39.2147 95.51 39.2147H98.9184C99.9132 39.2147 100.631 39.0342 101.218 38.624C101.74 38.263 102.05 37.6723 102.05 36.9667V36.5729C102.05 35.1453 101.104 34.4397 99.163 34.4397H95.3959V34.3741ZM100.093 25.382C100.5 24.9061 100.745 24.2497 100.745 23.4293C100.745 22.3627 100.517 21.6571 100.044 21.1813C99.5708 20.7054 98.9184 20.5249 97.9889 20.5249H96.2276C95.2817 20.5249 94.5804 20.7546 94.1075 21.1813C93.6346 21.5915 93.4062 22.3135 93.4062 23.3144C93.4062 24.3154 93.6346 25.0374 94.0586 25.4476C94.5315 25.9235 95.1838 26.1532 96.0645 26.1532H97.891C98.9184 26.0875 99.6197 25.8578 100.093 25.382Z" fill="#4F566E"/>
<path d="M110.693 33.7341C109.633 33.2091 108.867 32.3722 108.394 31.1251C107.921 29.878 107.692 28.1715 107.692 25.9727C107.692 23.7247 107.921 21.9525 108.345 20.7054C108.818 19.4584 109.519 18.6379 110.53 18.0964C111.525 17.6206 113.009 17.3252 114.884 17.3252C116.531 17.3252 117.82 17.5057 118.766 17.8011C119.712 18.1621 120.413 18.6871 120.82 19.524C121.228 20.3608 121.473 21.4767 121.473 22.9535C121.473 24.4959 121.065 25.6117 120.184 26.2681C119.304 26.9244 117.999 27.269 116.352 27.269H111.46C111.525 28.3356 111.639 29.156 111.867 29.8124C112.096 30.4031 112.569 30.8133 113.156 31.1087C113.808 31.4041 114.689 31.5189 115.928 31.5189H120.984V33.8326C119.858 34.0623 118.864 34.1936 117.983 34.3084C117.102 34.4233 116.107 34.4889 114.982 34.4889C113.156 34.5054 111.688 34.2592 110.693 33.7341ZM115.993 25.021C116.76 25.021 117.282 24.9061 117.575 24.6108C117.934 24.3154 118.048 23.7739 118.048 23.0683C118.048 22.0017 117.82 21.2305 117.347 20.8203C116.874 20.4101 116.058 20.1639 114.868 20.1639C113.987 20.1639 113.286 20.2788 112.813 20.5742C112.34 20.8695 111.981 21.3454 111.753 22.051C111.525 22.7566 111.394 23.7083 111.394 25.0046L115.993 25.021Z" fill="#4F566E"/>
<path d="M124.93 17.5717H128.045L128.746 19.3439C129.513 18.7532 130.393 18.2773 131.388 17.8671C132.383 17.4569 133.329 17.2764 134.324 17.2764C136.15 17.2764 137.439 17.8015 138.27 18.868C139.102 19.9346 139.51 21.3622 139.51 23.1344V34.2596H135.677V23.5446C135.677 22.6585 135.449 21.9529 134.911 21.4771C134.438 21.0012 133.737 20.7058 132.905 20.7058C132.138 20.7058 131.437 20.8207 130.785 21.0668C130.133 21.2966 129.496 21.6576 128.779 22.0678V34.2104H124.946L124.93 17.5717Z" fill="#4F566E"/>
<path d="M145.886 33.4886C144.826 32.8323 144.304 31.536 144.304 29.5833V16.2592C144.304 14.4871 144.777 13.1743 145.723 12.4031C146.669 11.6319 147.843 11.2217 149.197 11.2217C151.137 11.2217 152.85 11.2873 154.252 11.3365C155.671 11.4022 157.253 11.4514 159.079 11.5663V14.766H150.436C149.735 14.766 149.148 14.9465 148.724 15.2911C148.316 15.6521 148.137 16.1772 148.137 16.9484V21.0342L157.677 21.264V24.2832L148.137 24.5129V28.4839C148.137 30.0263 148.903 30.7976 150.371 30.7976H159.079V33.9973C156.486 34.227 153.306 34.3583 149.604 34.4075C148.186 34.506 146.881 34.145 145.886 33.4886Z" fill="#4F566E"/>
<path d="M166.108 33.6193C164.82 33.0286 163.809 31.8964 163.173 30.1899C162.521 28.5326 162.178 26.0384 162.178 22.8551C162.178 19.6061 162.537 17.1776 163.173 15.4546C163.825 13.7317 164.82 12.6159 166.108 11.9595C167.397 11.3688 169.174 11.0078 171.343 11.0078C173.578 11.0078 175.339 11.3032 176.644 11.9595C177.932 12.5503 178.943 13.7317 179.579 15.4546C180.215 17.1776 180.574 19.6061 180.574 22.8551C180.574 26.104 180.215 28.5326 179.579 30.1899C178.927 31.8472 177.932 33.0286 176.644 33.6193C175.355 34.2101 173.578 34.5054 171.343 34.5054C169.174 34.5054 167.413 34.2101 166.108 33.6193ZM174.654 30.4196C175.42 30.0094 175.942 29.2382 176.301 28.0567C176.66 26.8753 176.774 25.1523 176.774 22.8387C176.774 20.4758 176.595 18.638 176.252 17.4565C175.893 16.2751 175.372 15.5039 174.605 15.0936C173.839 14.6834 172.779 14.5029 171.376 14.5029C169.957 14.5029 168.897 14.6834 168.196 15.0936C167.429 15.5039 166.908 16.2751 166.549 17.4565C166.19 18.638 166.027 20.4101 166.027 22.8387C166.027 25.1523 166.206 26.9245 166.5 28.0567C166.793 29.1889 167.381 30.0094 168.082 30.4196C168.848 30.8298 169.908 31.076 171.376 31.076C172.827 31.0595 173.888 30.8298 174.654 30.4196Z" fill="#4F566E"/>
<path d="M187.358 34.3241C186.004 34.2093 184.879 34.0288 183.949 33.8483V30.829C185.825 31.0095 188.124 31.0587 190.897 31.0587C192.316 31.0587 193.31 30.8782 194.077 30.468C194.778 30.0578 195.137 29.3358 195.137 28.3349V27.2683C195.137 26.4314 194.909 25.8407 194.436 25.3813C193.963 24.971 193.31 24.7249 192.43 24.7249H190.31C188.124 24.7249 186.477 24.249 185.417 23.2973C184.357 22.3456 183.77 20.8032 183.77 18.6208V17.4393C183.77 15.2405 184.357 13.6489 185.597 12.6479C186.771 11.647 188.597 11.1055 190.946 11.1055C192.006 11.1055 193.18 11.1711 194.485 11.3352C195.773 11.4501 196.833 11.6306 197.779 11.8111V14.8303C194.957 14.6498 192.837 14.5349 191.419 14.5349C190.13 14.5349 189.119 14.7647 188.483 15.1913C187.831 15.6015 187.488 16.4384 187.488 17.5542V18.3254C187.488 19.2771 187.717 19.9171 188.255 20.3437C188.777 20.7539 189.543 21.0001 190.554 21.0001H192.968C194.909 21.0001 196.376 21.5251 197.387 22.5917C198.382 23.6583 198.92 25.0203 198.92 26.7432V28.22C198.92 30.5829 198.268 32.2402 196.914 33.1919C195.561 34.078 193.685 34.5539 191.207 34.5539C190.016 34.5046 188.711 34.439 187.358 34.3241Z" fill="#4F566E"/>
<path d="M58.8649 16.2912V9.31738L46.7642 21.5092H69.6283V34.1769L57.3319 46.5H64.7358L74.8143 36.425V16.2912H58.8649Z" fill="#4F566E"/>
<path d="M64.0501 29.0072L41.186 29.0236V16.3395L53.4987 4H46.0948L36 14.0915V34.1761H51.9494V41.1991L64.0501 29.0236H64.0175L64.0501 29.0072Z" fill="#56E4C4"/>
</svg>
