<svg width="234" height="50" viewBox="0 0 234 50" fill="none" xmlns="http://www.w3.org/2000/svg">
<path d="M105.636 19.7055L102.7 20.1157C103.173 20.5259 103.532 21.0018 103.826 21.5433C104.119 22.0684 104.233 22.8396 104.233 23.9062C104.233 25.4487 103.76 26.6301 102.815 27.5819C101.869 28.5336 100.336 29.0095 98.281 29.0095H95.4597C93.992 29.0095 93.2255 29.4853 93.2255 30.3714C93.2255 30.7816 93.4049 31.077 93.6985 31.2575C93.992 31.438 94.3508 31.4872 94.8237 31.4872H99.7487C101.689 31.4872 103.222 31.8975 104.168 32.6687C105.163 33.4399 105.636 34.687 105.636 36.3936V36.9187C105.636 38.576 105.114 39.8231 104.054 40.7092C102.994 41.5953 101.461 42.0711 99.4062 42.0711H94.5139C92.8668 42.0711 91.5785 41.7101 90.5674 41.0045C89.5726 40.2989 89.0344 39.2816 89.0344 37.9853V37.3945C89.0344 36.5577 89.2627 35.8028 89.7357 35.1465C90.2086 34.4901 90.8609 34.0142 91.6111 33.6697C91.0892 33.3743 90.6652 33.0133 90.3717 32.5374C90.0781 32.0616 89.964 31.5365 89.964 30.995C89.964 30.1581 90.1923 29.5181 90.6652 28.9274C91.1381 28.4023 91.8394 27.9757 92.72 27.7952C91.7252 27.3193 91.0077 26.6629 90.6 25.7769C90.1923 24.94 89.9477 24.0047 89.9477 22.9381C89.9477 21.051 90.5347 19.6891 91.66 18.7866C92.7852 17.8841 94.4812 17.4902 96.7154 17.4902H105.717V19.6891L105.636 19.7055ZM95.3945 34.3752C94.5628 34.3752 93.9268 34.5557 93.3886 34.966C92.8668 35.3762 92.6222 35.9177 92.6222 36.6233V37.0992C92.6222 37.8048 92.8505 38.3463 93.3886 38.6908C93.8616 39.0518 94.5628 39.2159 95.5086 39.2159H98.917C99.9118 39.2159 100.629 39.0354 101.216 38.6252C101.738 38.2642 102.048 37.6735 102.048 36.9679V36.5741C102.048 35.1465 101.102 34.4409 99.1616 34.4409H95.3945V34.3752ZM100.091 25.383C100.499 24.9072 100.743 24.2508 100.743 23.4303C100.743 22.3638 100.515 21.6582 100.042 21.1823C99.5693 20.7064 98.917 20.5259 97.9874 20.5259H96.2262C95.2803 20.5259 94.5791 20.7557 94.1062 21.1823C93.6332 21.5925 93.4049 22.3145 93.4049 23.3155C93.4049 24.3164 93.6332 25.0384 94.0572 25.4487C94.5302 25.9245 95.1825 26.1543 96.0631 26.1543H97.8896C98.917 26.0886 99.6182 25.8589 100.091 25.383Z" fill="#818592"/>
<path d="M110.692 33.7363C109.632 33.2112 108.865 32.3743 108.392 31.1272C107.919 29.8801 107.691 28.1736 107.691 25.9748C107.691 23.7267 107.919 21.9545 108.343 20.7074C108.816 19.4603 109.517 18.6399 110.528 18.0984C111.523 17.6225 113.007 17.3271 114.883 17.3271C116.53 17.3271 117.818 17.5076 118.764 17.803C119.71 18.164 120.411 18.6891 120.819 19.526C121.226 20.3628 121.471 21.4787 121.471 22.9555C121.471 24.4979 121.063 25.6138 120.183 26.2701C119.302 26.9265 117.997 27.2711 116.35 27.2711H111.458C111.523 28.3377 111.637 29.1581 111.866 29.8145C112.094 30.4052 112.567 30.8155 113.154 31.1108C113.806 31.4062 114.687 31.5211 115.926 31.5211H120.982V33.8347C119.857 34.0645 118.862 34.1957 117.981 34.3106C117.101 34.4255 116.106 34.4911 114.981 34.4911C113.154 34.5075 111.686 34.2614 110.692 33.7363ZM115.992 25.023C116.758 25.023 117.28 24.9082 117.573 24.6128C117.932 24.3174 118.046 23.7759 118.046 23.0703C118.046 22.0038 117.818 21.2325 117.345 20.8223C116.872 20.4121 116.057 20.1659 114.866 20.1659C113.986 20.1659 113.285 20.2808 112.812 20.5762C112.339 20.8715 111.98 21.3474 111.752 22.053C111.523 22.7586 111.393 23.7103 111.393 25.0066L115.992 25.023Z" fill="#818592"/>
<path d="M124.928 17.5727H128.043L128.744 19.3449C129.511 18.7542 130.391 18.2783 131.386 17.8681C132.381 17.4578 133.327 17.2773 134.322 17.2773C136.148 17.2773 137.436 17.8024 138.268 18.869C139.1 19.9356 139.507 21.3632 139.507 23.1354V34.2608H135.675V23.5456C135.675 22.6595 135.447 21.9539 134.909 21.4781C134.436 21.0022 133.734 20.7069 132.903 20.7069C132.136 20.7069 131.435 20.8217 130.783 21.0679C130.13 21.2976 129.494 21.6586 128.777 22.0688V34.2116H124.945L124.928 17.5727Z" fill="#818592"/>
<path d="M145.884 33.4908C144.824 32.8345 144.302 31.5382 144.302 29.5855V16.2612C144.302 14.4891 144.775 13.1763 145.721 12.4051C146.667 11.6339 147.841 11.2236 149.194 11.2236C151.135 11.2236 152.847 11.2893 154.25 11.3385C155.669 11.4041 157.25 11.4534 159.077 11.5682V14.768H150.434C149.733 14.768 149.145 14.9485 148.721 15.2931C148.314 15.6541 148.134 16.1792 148.134 16.9504V21.0363L157.674 21.266V24.2853L148.134 24.515V28.4861C148.134 30.0285 148.901 30.7997 150.369 30.7997H159.077V33.9995C156.484 34.2293 153.304 34.3605 149.602 34.4098C148.183 34.5082 146.879 34.1472 145.884 33.4908Z" fill="#818592"/>
<path d="M166.106 33.6206C164.817 33.0299 163.806 31.8976 163.17 30.1911C162.518 28.5338 162.176 26.0396 162.176 22.8562C162.176 19.6072 162.534 17.1786 163.17 15.4557C163.823 13.7327 164.817 12.6169 166.106 11.9605C167.394 11.3698 169.172 11.0088 171.341 11.0088C173.575 11.0088 175.336 11.3042 176.641 11.9605C177.929 12.5512 178.94 13.7327 179.576 15.4557C180.212 17.1786 180.571 19.6072 180.571 22.8562C180.571 26.1052 180.212 28.5338 179.576 30.1911C178.924 31.8484 177.929 33.0299 176.641 33.6206C175.352 34.2113 173.575 34.5067 171.341 34.5067C169.172 34.5067 167.41 34.2113 166.106 33.6206ZM174.651 30.4208C175.418 30.0106 175.939 29.2393 176.298 28.0579C176.657 26.8764 176.771 25.1535 176.771 22.8398C176.771 20.4769 176.592 18.639 176.249 17.4576C175.89 16.2761 175.369 15.5049 174.602 15.0947C173.836 14.6844 172.776 14.5039 171.373 14.5039C169.954 14.5039 168.894 14.6844 168.193 15.0947C167.427 15.5049 166.905 16.2761 166.546 17.4576C166.187 18.639 166.024 20.4112 166.024 22.8398C166.024 25.1535 166.204 26.9257 166.497 28.0579C166.791 29.1901 167.378 30.0106 168.079 30.4208C168.845 30.831 169.905 31.0772 171.373 31.0772C172.825 31.0608 173.885 30.831 174.651 30.4208Z" fill="#818592"/>
<path d="M187.354 34.3244C186.001 34.2095 184.876 34.029 183.946 33.8485V30.8293C185.821 31.0098 188.121 31.059 190.893 31.059C192.312 31.059 193.307 30.8785 194.073 30.4683C194.774 30.058 195.133 29.336 195.133 28.3351V27.2685C195.133 26.4316 194.905 25.8409 194.432 25.3814C193.959 24.9712 193.307 24.7251 192.426 24.7251H190.306C188.121 24.7251 186.474 24.2492 185.414 23.2975C184.354 22.3457 183.767 20.8033 183.767 18.6209V17.4394C183.767 15.2406 184.354 13.6489 185.593 12.6479C186.767 11.647 188.594 11.1055 190.942 11.1055C192.002 11.1055 193.176 11.1711 194.481 11.3352C195.769 11.4501 196.829 11.6306 197.775 11.8111V14.8303C194.954 14.6498 192.834 14.535 191.415 14.535C190.127 14.535 189.116 14.7647 188.48 15.1913C187.827 15.6016 187.485 16.4384 187.485 17.5543V18.3255C187.485 19.2772 187.713 19.9172 188.251 20.3438C188.773 20.754 189.54 21.0002 190.551 21.0002H192.964C194.905 21.0002 196.373 21.5253 197.384 22.5919C198.378 23.6585 198.917 25.0204 198.917 26.7434V28.2202C198.917 30.5831 198.264 32.2404 196.911 33.1922C195.557 34.0783 193.682 34.5541 191.203 34.5541C190.013 34.5049 188.708 34.4393 187.354 34.3244Z" fill="#818592"/>
<path d="M58.8644 16.2913V9.31738L46.7639 21.5094H69.6276V34.1772L57.3314 46.5005H64.7352L74.8135 36.4253V16.2913H58.8644Z" fill="#818592"/>
<path d="M64.0495 29.0075L41.1859 29.0239V16.3397L53.4983 4H46.0946L36 14.0916V34.1764H51.9491V41.1995L64.0495 29.0239H64.0169L64.0495 29.0075Z" fill="#818592"/>
</svg>
