<svg width="234" height="50" viewBox="0 0 234 50" fill="none" xmlns="http://www.w3.org/2000/svg">
<path d="M63.9187 21.5833L48.8354 0.25C48.752 0.0833332 48.5854 0 48.4187 0L22.4188 2.41666C22.2521 2.41666 22.0854 2.58333 22.0021 2.75L11.0854 26.5C11.0021 26.6666 11.0021 26.8333 11.0854 27L26.1688 48.3332C26.2521 48.4999 26.4188 48.5832 26.5854 48.5832L52.6687 46.1666C52.8354 46.1666 53.002 45.9999 53.0854 45.8333L64.002 22.0833C64.0854 21.9166 64.0854 21.75 63.9187 21.5833ZM26.8354 47.4999L12.1688 26.6666L22.8354 3.41666L48.2521 1.08333L63.002 21.9166L52.252 45.0833L26.8354 47.4999Z" fill="black"/>
<path d="M42.75 8.49934L22 2.41602V26.5826L26.1667 48.3326L26.25 48.7493L48.1666 36.0826L64.0833 21.916L42.75 8.49934ZM26.9167 47.4159L22.9167 26.4993V3.49935L42.5 9.24934L62.9166 21.916L47.75 35.3326L26.9167 47.4159Z" fill="black"/>
<path d="M48.9166 0.417317C48.9166 0.250651 48.7499 0.0839843 48.5833 0.0839843C48.4999 0.000651078 48.3333 0.000651078 48.1666 0.0839843L27.1666 11.584L11.1667 26.3339C11.0833 26.4173 11 26.5839 11 26.7506C11 26.9173 11.0833 27.0839 11.25 27.1673L32.5833 39.1673L52.4166 46.1672C52.4999 46.1672 52.4999 46.1672 52.5833 46.1672C52.6666 46.1672 52.8333 46.1672 52.9166 46.0839C53.0833 46.0006 53.1666 45.8339 53.1666 45.6672L53.6666 21.0839L48.9166 0.417317ZM33 38.1673L12.4167 26.5839L27.8333 12.5006L48.0833 1.33398L52.5833 21.1673L52.0833 44.9172L33 38.1673Z" fill="black"/>
<path d="M43.1673 8.33301L22.2507 26.4996L21.834 26.9163L48.0006 35.9996L48.5839 36.1663L43.1673 8.33301ZM23.084 26.583L42.7506 9.58301L47.5839 35.083L23.084 26.583Z" fill="black"/>
<path d="M26.8335 11.167L32.4168 39.5836L54.1668 20.917L26.8335 11.167ZM52.0835 21.3336L33.0835 37.6669L28.1668 12.8337L52.0835 21.3336Z" fill="black"/>
<path d="M28.1673 11.9993L22.7506 2.41602L21.834 2.91601L27.2506 12.4993L28.1673 11.9993Z" fill="black"/>
<path d="M26.1675 48.0006L27.0841 48.584L33.3341 38.6673L32.5008 38.084L26.1675 48.0006Z" fill="black"/>
<path d="M52.9112 20.6236L52.8335 21.7041L63.8049 22.4926L63.8825 21.4121L52.9112 20.6236Z" fill="black"/>
<path d="M43.7508 9.00136C43.7508 9.41824 43.4173 9.75174 43.0004 9.75174C42.5835 9.75174 42.25 9.41824 42.25 9.00136C42.25 8.58448 42.5835 8.25098 43.0004 8.25098C43.4173 8.25098 43.7508 8.58448 43.7508 9.00136Z" fill="black"/>
<path d="M43.167 11.001C42.0837 11.001 41.167 10.0843 41.167 9.00097C41.167 7.91764 42.0837 7.00098 43.167 7.00098C44.2503 7.00098 45.167 7.91764 45.167 9.00097C45.167 10.0843 44.2503 11.001 43.167 11.001ZM43.167 8.91764C43.0837 9.00097 43.167 9.00097 43.167 9.00097V8.91764Z" fill="black"/>
<path d="M48.7513 35.6664C48.7513 36.0833 48.4178 36.4168 48.0009 36.4168C47.584 36.4168 47.2505 36.0833 47.2505 35.6664C47.2505 35.2495 47.584 34.916 48.0009 34.916C48.4178 34.8326 48.7513 35.2495 48.7513 35.6664Z" fill="black"/>
<path d="M48 37.582C46.9167 37.582 46 36.6654 46 35.582C46 34.4987 46.9167 33.582 48 33.582C49.0833 33.582 50 34.4987 50 35.582C50 36.7487 49.0833 37.582 48 37.582ZM48 35.582C47.9167 35.6654 48 35.6654 48 35.6654V35.582Z" fill="black"/>
<path d="M27.5843 48.0004C27.5843 48.4173 27.2508 48.7508 26.8339 48.7508C26.417 48.7508 26.0835 48.4173 26.0835 48.0004C26.0835 47.5835 26.417 47.25 26.8339 47.25C27.1674 47.25 27.5843 47.5835 27.5843 48.0004Z" fill="black"/>
<path d="M27.0005 50C25.9172 50 25.0005 49.0833 25.0005 48C25.0005 46.9167 25.9172 46 27.0005 46C28.0838 46 29.0005 46.9167 29.0005 48C29.0005 49.0833 28.0838 50 27.0005 50ZM27.0005 48C26.9172 48.0833 27.0005 48.0833 27.0005 48.0833V48Z" fill="black"/>
<path d="M23.1673 26.7504C23.1673 27.1673 22.8338 27.5008 22.4169 27.5008C22 27.5008 21.6665 27.1673 21.6665 26.7504C21.6665 26.3335 22 26 22.4169 26C22.8338 26 23.1673 26.3335 23.1673 26.7504Z" fill="black"/>
<path d="M22.6675 28.75C21.5841 28.75 20.6675 27.8333 20.6675 26.75C20.6675 25.6667 21.5841 24.75 22.6675 24.75C23.7508 24.75 24.6675 25.6667 24.6675 26.75C24.6675 27.8333 23.7508 28.75 22.6675 28.75ZM22.6675 26.6667C22.5841 26.75 22.6675 26.75 22.6675 26.75V26.6667Z" fill="black"/>
<path d="M64.2508 21.9174C64.2508 22.3343 63.9173 22.6678 63.5004 22.6678C63.0835 22.6678 62.75 22.3343 62.75 21.9174C62.75 21.5005 63.0835 21.167 63.5004 21.167C63.9173 21.167 64.2508 21.5005 64.2508 21.9174Z" fill="black"/>
<path d="M63.751 23.917C62.6676 23.917 61.751 23.0003 61.751 21.917C61.751 20.8337 62.6676 19.917 63.751 19.917C64.8343 19.917 65.751 20.8337 65.751 21.917C65.6676 23.0003 64.8343 23.917 63.751 23.917ZM63.751 21.8337C63.6676 21.917 63.751 21.917 63.751 21.917V21.8337Z" fill="black"/>
<path d="M23.1673 2.91738C23.1673 3.33426 22.8338 3.66776 22.4169 3.66776C22 3.66776 21.6665 3.33426 21.6665 2.91738C21.6665 2.5005 22 2.16699 22.4169 2.16699C22.8338 2.16699 23.1673 2.5005 23.1673 2.91738Z" fill="black"/>
<path d="M22.6675 4.91601C21.5841 4.91601 20.6675 3.99934 20.6675 2.91601C20.6675 1.83268 21.5841 0.916016 22.6675 0.916016C23.7508 0.916016 24.6675 1.83268 24.6675 2.91601C24.6675 3.99934 23.7508 4.91601 22.6675 4.91601ZM22.6675 2.91601C22.5841 2.99935 22.6675 2.99935 22.6675 2.99935V2.91601Z" fill="black"/>
<path d="M195.384 28.5777L195.087 28.7231C195.087 28.7231 192.039 29.8141 190.329 29.9596C189.14 30.0323 188.025 30.0323 186.91 29.7414C183.787 29.0868 181.483 26.3957 181.26 23.2683C181.186 22.0318 181.26 20.7954 181.706 19.559C182.449 17.5225 183.862 16.3588 185.943 15.5587C187.876 14.8314 189.883 14.9042 191.964 15.2678C192.931 15.486 193.823 15.8497 194.641 16.5042C195.012 16.7952 195.087 16.8679 195.087 16.8679L192.782 19.3408C192.782 19.3408 192.708 19.268 192.559 19.1226C191.147 17.7407 188.471 17.7407 187.058 18.468C185.72 19.1953 185.125 20.1408 184.902 21.5227C184.828 22.1773 184.828 23.1228 185.125 23.9229C185.72 25.6684 186.984 26.5412 188.768 26.7594C189.883 26.9048 190.924 26.6867 191.89 26.2503C192.113 26.1775 192.187 26.1048 192.187 26.0321C192.187 25.5229 192.187 23.6319 192.187 23.6319H189.586V20.5772H195.458L195.384 28.5777Z" fill="black"/>
<path d="M166.617 15.4863C166.617 15.4863 170.408 15.4863 172.043 15.4863C173.53 15.4863 174.942 15.6318 176.28 16.2136C178.436 17.1592 179.7 18.832 180.072 21.0867C180.295 22.3231 180.295 23.5595 179.849 24.796C179.254 26.5415 178.139 27.7779 176.578 28.6507C175.24 29.378 173.753 29.8872 172.192 29.8872C170.557 29.8872 166.617 29.8872 166.617 29.8872V15.4863ZM170.036 27.1234C170.036 27.1234 171.523 27.1234 172.118 27.1234C172.861 27.1234 173.53 26.8324 174.199 26.5415C174.794 26.3233 175.314 25.8142 175.686 25.3778C176.801 23.9959 177.024 22.3958 176.355 20.7957C175.834 19.4866 174.645 18.6138 173.233 18.3229C172.266 18.1047 169.962 18.1774 169.962 18.1774L170.036 27.1234Z" fill="black"/>
<path d="M130.043 15.4863H135.47C135.47 15.4863 137.477 15.5591 138.22 15.6318C140.599 16.0682 141.416 17.9592 141.268 20.0684C141.119 21.2321 140.673 22.1776 139.707 22.9049C139.335 23.1231 138.963 23.2686 138.592 23.4141C138.22 23.5595 138.22 23.5595 138.443 23.8504C139.558 25.596 142.16 29.8872 142.16 29.8872H138.146L134.949 24.1414H133.314V29.8144H130.043V15.4863ZM133.314 21.0139C133.314 21.0139 135.99 21.0867 136.659 20.9412C137.328 20.7957 137.7 20.3593 137.774 19.8502C137.848 18.9774 137.625 18.541 136.956 18.2501C136.733 18.1774 136.436 18.1047 136.213 18.1047C135.321 18.1047 133.388 18.1047 133.388 18.1047L133.314 21.0139Z" fill="black"/>
<path d="M88.7859 29.8144H85.4408V23.8504H79.3452V29.8144H76V15.4863H79.3452V20.7957H85.4408V18.3956V15.4863H88.7859V29.8144Z" fill="black"/>
<path d="M117.331 15.4863H127.366V18.1047H120.75V20.7957H127.069V23.7777L120.75 23.8504V27.1234H127.812V29.8144H117.405V29.2326L117.331 15.4863Z" fill="black"/>
<path d="M107.891 15.4863C107.891 15.4863 109.675 15.4863 110.567 15.4863C111.385 15.4863 112.202 15.4863 113.02 15.7773C114.284 16.2864 115.101 17.1592 115.399 18.3956C115.696 19.8502 115.622 21.2321 114.655 22.5413C113.986 23.4141 113.02 23.7777 111.979 23.9959C110.715 24.2141 109.526 24.2141 108.262 24.2141C107.816 24.2141 107.816 24.2141 107.816 24.2141L107.891 29.8872H104.546L104.471 15.4863H107.891ZM107.891 21.3048C107.891 21.3048 109.898 21.3776 110.864 21.1594C111.385 21.0139 111.831 20.7957 112.054 20.2866C112.5 19.1956 111.756 18.2501 110.567 18.1047C109.749 18.0319 108.188 18.0319 108.188 18.0319H107.891V21.3048Z" fill="black"/>
<path d="M95.0301 23.6323L89.6035 15.4863H93.692L96.6655 20.5048L99.7876 15.4863H103.727L98.3753 23.5595V29.8144H95.0301V23.6323Z" fill="black"/>
<path d="M146.62 27.1234H152.567V29.8144H143.275V15.4863H146.62V27.1234Z" fill="black"/>
<path d="M153.831 15.4863H163.867V18.1047H157.176V20.7957H163.495V23.7777L157.251 23.8504V27.1234H164.313V29.8144H153.905V29.2326L153.831 15.4863Z" fill="black"/>
<path d="M197.913 15.4863H207.948V18.1047H201.258V20.7957H207.576V23.7777L201.258 23.8504V27.1234H208.394V29.8144H197.987V29.2326L197.913 15.4863Z" fill="black"/>
<path d="M210.549 15.4863H215.975C215.975 15.4863 217.983 15.5591 218.726 15.6318C221.105 16.0682 221.922 17.9592 221.774 20.0684C221.625 21.2321 221.179 22.1776 220.213 22.9049C219.841 23.1231 219.469 23.2686 219.098 23.4141C218.726 23.5595 218.726 23.5595 218.949 23.8504C220.064 25.596 222.666 29.8872 222.666 29.8872H218.652L215.455 23.9232H213.894V29.9599H210.623L210.549 15.4863ZM213.894 21.0139C213.894 21.0139 216.57 21.0867 217.239 20.9412C217.908 20.7957 218.28 20.3593 218.354 19.8502C218.429 18.9774 218.206 18.541 217.536 18.2501C217.313 18.1774 217.016 18.1047 216.793 18.1047C215.901 18.1047 213.968 18.1047 213.968 18.1047L213.894 21.0139Z" fill="black"/>
</svg>
