<svg width="234" height="50" viewBox="0 0 234 50" fill="none" xmlns="http://www.w3.org/2000/svg">
<path d="M63.9182 21.5833L48.8349 0.25C48.7516 0.0833332 48.5849 0 48.4182 0L22.4183 2.41666C22.2516 2.41666 22.0849 2.58333 22.0016 2.75L11.085 26.5C11.0016 26.6666 11.0016 26.8333 11.085 27L26.1683 48.3332C26.2516 48.4999 26.4183 48.5832 26.5849 48.5832L52.6682 46.1666C52.8349 46.1666 53.0016 45.9999 53.0849 45.8333L64.0015 22.0833C64.0849 21.9166 64.0849 21.75 63.9182 21.5833ZM26.8349 47.4999L12.1683 26.6666L22.8349 3.41666L48.2516 1.08333L63.0015 21.9166L52.2516 45.0833L26.8349 47.4999Z" fill="#818592"/>
<path d="M42.75 8.49934L22 2.41602V26.5826L26.1667 48.3326L26.25 48.7493L48.1666 36.0826L64.0833 21.916L42.75 8.49934ZM26.9167 47.4159L22.9167 26.4993V3.49935L42.5 9.24934L62.9166 21.916L47.75 35.3326L26.9167 47.4159Z" fill="#818592"/>
<path d="M48.9166 0.417317C48.9166 0.250651 48.7499 0.0839843 48.5833 0.0839843C48.4999 0.000651078 48.3333 0.000651078 48.1666 0.0839843L27.1666 11.584L11.1667 26.3339C11.0833 26.4173 11 26.5839 11 26.7506C11 26.9173 11.0833 27.0839 11.25 27.1673L32.5833 39.1673L52.4166 46.1672C52.4999 46.1672 52.4999 46.1672 52.5833 46.1672C52.6666 46.1672 52.8333 46.1672 52.9166 46.0839C53.0833 46.0006 53.1666 45.8339 53.1666 45.6672L53.6666 21.0839L48.9166 0.417317ZM33 38.1673L12.4167 26.5839L27.8333 12.5006L48.0833 1.33398L52.5833 21.1673L52.0833 44.9172L33 38.1673Z" fill="#818592"/>
<path d="M43.1673 8.33301L22.2507 26.4996L21.834 26.9163L48.0006 35.9996L48.5839 36.1663L43.1673 8.33301ZM23.084 26.583L42.7506 9.58301L47.5839 35.083L23.084 26.583Z" fill="#818592"/>
<path d="M26.8335 11.167L32.4168 39.5836L54.1668 20.917L26.8335 11.167ZM52.0835 21.3336L33.0835 37.6669L28.1668 12.8337L52.0835 21.3336Z" fill="#818592"/>
<path d="M28.1673 11.9993L22.7506 2.41602L21.834 2.91601L27.2506 12.4993L28.1673 11.9993Z" fill="#818592"/>
<path d="M26.1675 48.0006L27.0841 48.584L33.3341 38.6673L32.5008 38.084L26.1675 48.0006Z" fill="#818592"/>
<path d="M52.9112 20.6236L52.8335 21.7041L63.8049 22.4926L63.8825 21.4121L52.9112 20.6236Z" fill="#818592"/>
<path d="M43.7508 9.00136C43.7508 9.41824 43.4173 9.75174 43.0004 9.75174C42.5835 9.75174 42.25 9.41824 42.25 9.00136C42.25 8.58448 42.5835 8.25098 43.0004 8.25098C43.4173 8.25098 43.7508 8.58448 43.7508 9.00136Z" fill="#818592"/>
<path d="M43.167 11.001C42.0837 11.001 41.167 10.0843 41.167 9.00097C41.167 7.91764 42.0837 7.00098 43.167 7.00098C44.2503 7.00098 45.167 7.91764 45.167 9.00097C45.167 10.0843 44.2503 11.001 43.167 11.001ZM43.167 8.91764C43.0837 9.00097 43.167 9.00097 43.167 9.00097V8.91764Z" fill="#818592"/>
<path d="M48.7513 35.6664C48.7513 36.0833 48.4178 36.4168 48.0009 36.4168C47.584 36.4168 47.2505 36.0833 47.2505 35.6664C47.2505 35.2495 47.584 34.916 48.0009 34.916C48.4178 34.8326 48.7513 35.2495 48.7513 35.6664Z" fill="#818592"/>
<path d="M48 37.582C46.9167 37.582 46 36.6654 46 35.582C46 34.4987 46.9167 33.582 48 33.582C49.0833 33.582 50 34.4987 50 35.582C50 36.7487 49.0833 37.582 48 37.582ZM48 35.582C47.9167 35.6654 48 35.6654 48 35.6654V35.582Z" fill="#818592"/>
<path d="M27.5843 48.0004C27.5843 48.4173 27.2508 48.7508 26.8339 48.7508C26.417 48.7508 26.0835 48.4173 26.0835 48.0004C26.0835 47.5835 26.417 47.25 26.8339 47.25C27.1674 47.25 27.5843 47.5835 27.5843 48.0004Z" fill="#818592"/>
<path d="M27.0005 50C25.9172 50 25.0005 49.0833 25.0005 48C25.0005 46.9167 25.9172 46 27.0005 46C28.0838 46 29.0005 46.9167 29.0005 48C29.0005 49.0833 28.0838 50 27.0005 50ZM27.0005 48C26.9172 48.0833 27.0005 48.0833 27.0005 48.0833V48Z" fill="#818592"/>
<path d="M23.1673 26.7514C23.1673 27.1682 22.8338 27.5017 22.4169 27.5017C22 27.5017 21.6665 27.1682 21.6665 26.7514C21.6665 26.3345 22 26.001 22.4169 26.001C22.8338 26.001 23.1673 26.3345 23.1673 26.7514Z" fill="#818592"/>
<path d="M22.6675 28.75C21.5841 28.75 20.6675 27.8333 20.6675 26.75C20.6675 25.6667 21.5841 24.75 22.6675 24.75C23.7508 24.75 24.6675 25.6667 24.6675 26.75C24.6675 27.8333 23.7508 28.75 22.6675 28.75ZM22.6675 26.6667C22.5841 26.75 22.6675 26.75 22.6675 26.75V26.6667Z" fill="#818592"/>
<path d="M64.2508 21.9174C64.2508 22.3343 63.9173 22.6678 63.5004 22.6678C63.0835 22.6678 62.75 22.3343 62.75 21.9174C62.75 21.5005 63.0835 21.167 63.5004 21.167C63.9173 21.167 64.2508 21.5005 64.2508 21.9174Z" fill="#818592"/>
<path d="M63.751 23.917C62.6676 23.917 61.751 23.0003 61.751 21.917C61.751 20.8337 62.6676 19.917 63.751 19.917C64.8343 19.917 65.751 20.8337 65.751 21.917C65.6676 23.0003 64.8343 23.917 63.751 23.917ZM63.751 21.8337C63.6676 21.917 63.751 21.917 63.751 21.917V21.8337Z" fill="#818592"/>
<path d="M23.1673 2.91738C23.1673 3.33426 22.8338 3.66776 22.4169 3.66776C22 3.66776 21.6665 3.33426 21.6665 2.91738C21.6665 2.5005 22 2.16699 22.4169 2.16699C22.8338 2.16699 23.1673 2.5005 23.1673 2.91738Z" fill="#818592"/>
<path d="M22.6675 4.91601C21.5841 4.91601 20.6675 3.99934 20.6675 2.91601C20.6675 1.83268 21.5841 0.916016 22.6675 0.916016C23.7508 0.916016 24.6675 1.83268 24.6675 2.91601C24.6675 3.99934 23.7508 4.91601 22.6675 4.91601ZM22.6675 2.91601C22.5841 2.99935 22.6675 2.99935 22.6675 2.99935V2.91601Z" fill="#818592"/>
<path d="M195.384 28.5786L195.087 28.7241C195.087 28.7241 192.039 29.8151 190.329 29.9605C189.14 30.0333 188.025 30.0333 186.91 29.7423C183.787 29.0878 181.483 26.3967 181.26 23.2692C181.186 22.0328 181.26 20.7964 181.706 19.5599C182.449 17.5235 183.862 16.3598 185.943 15.5597C187.876 14.8324 189.883 14.9051 191.964 15.2688C192.931 15.487 193.823 15.8506 194.641 16.5052C195.012 16.7961 195.087 16.8689 195.087 16.8689L192.782 19.3417C192.782 19.3417 192.708 19.269 192.559 19.1236C191.147 17.7417 188.471 17.7417 187.058 18.469C185.72 19.1963 185.125 20.1418 184.902 21.5237C184.828 22.1783 184.828 23.1238 185.125 23.9238C185.72 25.6694 186.984 26.5422 188.768 26.7604C189.883 26.9058 190.924 26.6876 191.89 26.2512C192.113 26.1785 192.187 26.1058 192.187 26.033C192.187 25.5239 192.187 23.6329 192.187 23.6329H189.586V20.5782H195.458L195.384 28.5786Z" fill="#818592"/>
<path d="M166.617 15.4873C166.617 15.4873 170.408 15.4873 172.043 15.4873C173.53 15.4873 174.942 15.6328 176.28 16.2146C178.436 17.1601 179.7 18.833 180.072 21.0876C180.295 22.3241 180.295 23.5605 179.849 24.7969C179.254 26.5425 178.139 27.7789 176.578 28.6517C175.24 29.379 173.753 29.8881 172.192 29.8881C170.557 29.8881 166.617 29.8881 166.617 29.8881V15.4873ZM170.036 27.1243C170.036 27.1243 171.523 27.1243 172.118 27.1243C172.861 27.1243 173.53 26.8334 174.199 26.5425C174.794 26.3243 175.314 25.8152 175.686 25.3788C176.801 23.9969 177.024 22.3968 176.355 20.7967C175.834 19.4875 174.645 18.6148 173.233 18.3238C172.266 18.1056 169.962 18.1784 169.962 18.1784L170.036 27.1243Z" fill="#818592"/>
<path d="M130.043 15.4873H135.47C135.47 15.4873 137.477 15.56 138.22 15.6328C140.599 16.0692 141.416 17.9602 141.268 20.0694C141.119 21.2331 140.673 22.1786 139.707 22.9059C139.335 23.1241 138.963 23.2696 138.592 23.415C138.22 23.5605 138.22 23.5605 138.443 23.8514C139.558 25.597 142.16 29.8881 142.16 29.8881H138.146L134.949 24.1424H133.314V29.8154H130.043V15.4873ZM133.314 21.0149C133.314 21.0149 135.99 21.0876 136.659 20.9422C137.328 20.7967 137.7 20.3603 137.774 19.8512C137.848 18.9784 137.625 18.542 136.956 18.2511C136.733 18.1784 136.436 18.1056 136.213 18.1056C135.321 18.1056 133.388 18.1056 133.388 18.1056L133.314 21.0149Z" fill="#818592"/>
<path d="M88.7859 29.8154H85.4408V23.8514H79.3452V29.8154H76V15.4873H79.3452V20.7967H85.4408V18.3966V15.4873H88.7859V29.8154Z" fill="#818592"/>
<path d="M117.331 15.4873H127.366V18.1056H120.75V20.7967H127.069V23.7787L120.75 23.8514V27.1243H127.812V29.8154H117.405V29.2336L117.331 15.4873Z" fill="#818592"/>
<path d="M107.891 15.4873C107.891 15.4873 109.675 15.4873 110.567 15.4873C111.385 15.4873 112.202 15.4873 113.02 15.7782C114.284 16.2874 115.101 17.1601 115.399 18.3966C115.696 19.8512 115.622 21.2331 114.655 22.5423C113.986 23.415 113.02 23.7787 111.979 23.9969C110.715 24.2151 109.526 24.2151 108.262 24.2151C107.816 24.2151 107.816 24.2151 107.816 24.2151L107.891 29.8881H104.546L104.471 15.4873H107.891ZM107.891 21.3058C107.891 21.3058 109.898 21.3786 110.864 21.1604C111.385 21.0149 111.831 20.7967 112.054 20.2876C112.5 19.1966 111.756 18.2511 110.567 18.1056C109.749 18.0329 108.188 18.0329 108.188 18.0329H107.891V21.3058Z" fill="#818592"/>
<path d="M95.0301 23.6332L89.6035 15.4873H93.692L96.6655 20.5058L99.7876 15.4873H103.727L98.3753 23.5605V29.8154H95.0301V23.6332Z" fill="#818592"/>
<path d="M146.62 27.1243H152.567V29.8154H143.275V15.4873H146.62V27.1243Z" fill="#818592"/>
<path d="M153.831 15.4873H163.867V18.1056H157.176V20.7967H163.495V23.7787L157.251 23.8514V27.1243H164.313V29.8154H153.905V29.2336L153.831 15.4873Z" fill="#818592"/>
<path d="M197.913 15.4873H207.948V18.1056H201.258V20.7967H207.576V23.7787L201.258 23.8514V27.1243H208.394V29.8154H197.987V29.2336L197.913 15.4873Z" fill="#818592"/>
<path d="M210.549 15.4873H215.975C215.975 15.4873 217.983 15.56 218.726 15.6328C221.105 16.0692 221.922 17.9602 221.774 20.0694C221.625 21.2331 221.179 22.1786 220.213 22.9059C219.841 23.1241 219.469 23.2696 219.098 23.415C218.726 23.5605 218.726 23.5605 218.949 23.8514C220.064 25.597 222.666 29.8881 222.666 29.8881H218.652L215.455 23.9242H213.894V29.9609H210.623L210.549 15.4873ZM213.894 21.0149C213.894 21.0149 216.57 21.0876 217.239 20.9422C217.908 20.7967 218.28 20.3603 218.354 19.8512C218.429 18.9784 218.206 18.542 217.536 18.2511C217.313 18.1784 217.016 18.1056 216.793 18.1056C215.901 18.1056 213.968 18.1056 213.968 18.1056L213.894 21.0149Z" fill="#818592"/>
</svg>
