<svg width="330" height="93" viewBox="0 0 330 93" fill="none" xmlns="http://www.w3.org/2000/svg">
<path d="M279.978 0H0V62.6838H279.978V0Z" fill="#00DCE6"/>
<path d="M125.97 32.9937C126.808 33.4125 127.444 33.9601 127.879 34.6366C128.33 35.3131 128.556 36.0942 128.556 36.9801C128.556 38.027 128.258 38.9451 127.662 39.7343C127.066 40.5074 126.228 41.1114 125.149 41.5463C124.069 41.9651 122.821 42.1744 121.403 42.1744C119.985 42.1744 118.737 41.9651 117.658 41.5463C116.594 41.1114 115.765 40.5074 115.169 39.7343C114.589 38.9451 114.299 38.027 114.299 36.9801C114.299 36.0942 114.516 35.3131 114.951 34.6366C115.402 33.9601 116.039 33.4125 116.86 32.9937C116.232 32.6072 115.749 32.124 115.41 31.5441C115.072 30.9482 114.903 30.2717 114.903 29.5147C114.903 28.5322 115.177 27.6786 115.724 26.9538C116.272 26.229 117.037 25.6733 118.02 25.2867C119.003 24.8841 120.13 24.6827 121.403 24.6827C122.692 24.6827 123.828 24.8841 124.81 25.2867C125.809 25.6733 126.582 26.229 127.13 26.9538C127.678 27.6786 127.952 28.5322 127.952 29.5147C127.952 30.2717 127.783 30.9482 127.444 31.5441C127.106 32.124 126.615 32.6072 125.97 32.9937ZM121.403 27.5578C120.614 27.5578 119.977 27.751 119.494 28.1376C119.027 28.508 118.793 29.0235 118.793 29.6838C118.793 30.3281 119.027 30.8354 119.494 31.2059C119.961 31.5763 120.598 31.7616 121.403 31.7616C122.209 31.7616 122.853 31.5763 123.336 31.2059C123.82 30.8354 124.061 30.3281 124.061 29.6838C124.061 29.0235 123.82 28.508 123.336 28.1376C122.853 27.751 122.209 27.5578 121.403 27.5578ZM121.403 39.2994C122.386 39.2994 123.159 39.082 123.723 38.6471C124.303 38.1961 124.593 37.6002 124.593 36.8593C124.593 36.1184 124.303 35.5305 123.723 35.0956C123.159 34.6607 122.386 34.4433 121.403 34.4433C120.437 34.4433 119.671 34.6607 119.107 35.0956C118.544 35.5305 118.262 36.1184 118.262 36.8593C118.262 37.6163 118.544 38.2122 119.107 38.6471C119.671 39.082 120.437 39.2994 121.403 39.2994ZM145.837 38.333H143.083V41.8845H139.265V38.333H130.154V35.6996L138.129 24.9727H142.237L134.842 35.1439H139.385V31.979H143.083V35.1439H145.837V38.333ZM150.191 34.1051C148.951 34.1051 147.936 33.6863 147.147 32.8488C146.373 31.9951 145.987 30.8596 145.987 29.4422C145.987 28.0248 146.373 26.8974 147.147 26.0599C147.936 25.2062 148.951 24.7794 150.191 24.7794C151.432 24.7794 152.439 25.2062 153.212 26.0599C153.985 26.8974 154.372 28.0248 154.372 29.4422C154.372 30.8596 153.985 31.9951 153.212 32.8488C152.439 33.6863 151.432 34.1051 150.191 34.1051ZM160.268 24.9727H163.144L151.593 41.8845H148.717L160.268 24.9727ZM150.191 32.124C150.739 32.124 151.166 31.8985 151.472 31.4475C151.794 30.9965 151.955 30.3281 151.955 29.4422C151.955 28.5564 151.794 27.8879 151.472 27.437C151.166 26.986 150.739 26.7605 150.191 26.7605C149.66 26.7605 149.233 26.994 148.911 27.4611C148.588 27.9121 148.427 28.5725 148.427 29.4422C148.427 30.312 148.588 30.9804 148.911 31.4475C149.233 31.8985 149.66 32.124 150.191 32.124ZM161.669 42.0778C160.864 42.0778 160.139 41.8926 159.495 41.5221C158.866 41.1356 158.375 40.5879 158.021 39.8793C157.666 39.1706 157.489 38.3491 157.489 37.415C157.489 36.4808 157.666 35.6593 158.021 34.9507C158.375 34.242 158.866 33.7024 159.495 33.332C160.139 32.9454 160.864 32.7521 161.669 32.7521C162.91 32.7521 163.917 33.1789 164.69 34.0326C165.479 34.8701 165.874 35.9976 165.874 37.415C165.874 38.8323 165.479 39.9678 164.69 40.8215C163.917 41.659 162.91 42.0778 161.669 42.0778ZM161.669 40.0967C162.217 40.0967 162.644 39.8712 162.95 39.4202C163.272 38.9531 163.434 38.2847 163.434 37.415C163.434 36.5452 163.272 35.8848 162.95 35.4339C162.644 34.9668 162.217 34.7332 161.669 34.7332C161.138 34.7332 160.711 34.9587 160.389 35.4097C160.067 35.8607 159.905 36.5291 159.905 37.415C159.905 38.3008 160.067 38.9692 160.389 39.4202C160.711 39.8712 161.138 40.0967 161.669 40.0967Z" fill="white"/>
<g clip-path="url(#clip0)">
<path opacity="0.2" d="M98.9731 33.5017L99.2238 76.4954H104.363L103.987 40.2704L136.452 52.9303L136.702 76.4954H141.089L140.964 49.6713L98.9731 33.5017Z" fill="white"/>
<path opacity="0.2" d="M99.6001 32.3738L141.591 48.5435L180.448 25.6052L138.457 9.18481L99.6001 32.3738ZM169.543 26.8586L140.964 43.7803L110.38 31.8725L138.959 14.8254L169.543 26.8586Z" fill="white"/>
<path opacity="0.2" d="M142.217 49.5462L142.343 76.4956H146.73L146.604 52.3038L176.061 34.7554L176.311 76.4956H181.451L181.075 26.6079L142.217 49.5462Z" fill="white"/>
</g>
<g clip-path="url(#clip1)">
<path d="M282.362 3.25151C282.693 3.25151 282.962 2.98288 282.962 2.65151C282.962 2.32014 282.693 2.05151 282.362 2.05151C282.03 2.05151 281.762 2.32014 281.762 2.65151C281.762 2.98288 282.03 3.25151 282.362 3.25151Z" fill="#009096"/>
<path d="M285.862 3.25151C286.193 3.25151 286.462 2.98288 286.462 2.65151C286.462 2.32014 286.193 2.05151 285.862 2.05151C285.53 2.05151 285.262 2.32014 285.262 2.65151C285.262 2.98288 285.53 3.25151 285.862 3.25151Z" fill="#009096"/>
<path d="M289.362 3.25151C289.693 3.25151 289.962 2.98288 289.962 2.65151C289.962 2.32014 289.693 2.05151 289.362 2.05151C289.03 2.05151 288.762 2.32014 288.762 2.65151C288.762 2.98288 289.03 3.25151 289.362 3.25151Z" fill="#009096"/>
<path d="M292.762 3.25151C293.093 3.25151 293.362 2.98288 293.362 2.65151C293.362 2.32014 293.093 2.05151 292.762 2.05151C292.43 2.05151 292.162 2.32014 292.162 2.65151C292.162 2.98288 292.43 3.25151 292.762 3.25151Z" fill="#009096"/>
<path d="M296.262 3.25151C296.593 3.25151 296.862 2.98288 296.862 2.65151C296.862 2.32014 296.593 2.05151 296.262 2.05151C295.93 2.05151 295.662 2.32014 295.662 2.65151C295.662 2.98288 295.93 3.25151 296.262 3.25151Z" fill="#009096"/>
<path d="M299.662 3.25151C299.993 3.25151 300.262 2.98288 300.262 2.65151C300.262 2.32014 299.993 2.05151 299.662 2.05151C299.33 2.05151 299.062 2.32014 299.062 2.65151C299.062 2.98288 299.33 3.25151 299.662 3.25151Z" fill="#009096"/>
<path d="M303.162 3.25151C303.493 3.25151 303.762 2.98288 303.762 2.65151C303.762 2.32014 303.493 2.05151 303.162 2.05151C302.83 2.05151 302.562 2.32014 302.562 2.65151C302.562 2.98288 302.83 3.25151 303.162 3.25151Z" fill="#009096"/>
<path d="M306.662 3.25151C306.993 3.25151 307.262 2.98288 307.262 2.65151C307.262 2.32014 306.993 2.05151 306.662 2.05151C306.33 2.05151 306.062 2.32014 306.062 2.65151C306.062 2.98288 306.33 3.25151 306.662 3.25151Z" fill="#009096"/>
<path d="M310.062 3.25151C310.393 3.25151 310.662 2.98288 310.662 2.65151C310.662 2.32014 310.393 2.05151 310.062 2.05151C309.731 2.05151 309.462 2.32014 309.462 2.65151C309.462 2.98288 309.731 3.25151 310.062 3.25151Z" fill="#009096"/>
<path d="M313.562 3.25151C313.893 3.25151 314.162 2.98288 314.162 2.65151C314.162 2.32014 313.893 2.05151 313.562 2.05151C313.231 2.05151 312.962 2.32014 312.962 2.65151C312.962 2.98288 313.231 3.25151 313.562 3.25151Z" fill="#009096"/>
<path d="M316.962 3.25151C317.293 3.25151 317.562 2.98288 317.562 2.65151C317.562 2.32014 317.293 2.05151 316.962 2.05151C316.63 2.05151 316.362 2.32014 316.362 2.65151C316.362 2.98288 316.63 3.25151 316.962 3.25151Z" fill="#009096"/>
<path d="M320.462 3.25151C320.793 3.25151 321.062 2.98288 321.062 2.65151C321.062 2.32014 320.793 2.05151 320.462 2.05151C320.13 2.05151 319.862 2.32014 319.862 2.65151C319.862 2.98288 320.13 3.25151 320.462 3.25151Z" fill="#009096"/>
<path d="M323.862 3.25151C324.193 3.25151 324.462 2.98288 324.462 2.65151C324.462 2.32014 324.193 2.05151 323.862 2.05151C323.53 2.05151 323.262 2.32014 323.262 2.65151C323.262 2.98288 323.53 3.25151 323.862 3.25151Z" fill="#009096"/>
<path d="M327.362 3.25151C327.693 3.25151 327.962 2.98288 327.962 2.65151C327.962 2.32014 327.693 2.05151 327.362 2.05151C327.03 2.05151 326.762 2.32014 326.762 2.65151C326.762 2.98288 327.03 3.25151 327.362 3.25151Z" fill="#009096"/>
<path d="M282.362 6.75151C282.693 6.75151 282.962 6.48288 282.962 6.15151C282.962 5.82014 282.693 5.55151 282.362 5.55151C282.03 5.55151 281.762 5.82014 281.762 6.15151C281.762 6.48288 282.03 6.75151 282.362 6.75151Z" fill="#009096"/>
<path d="M285.862 6.75151C286.193 6.75151 286.462 6.48288 286.462 6.15151C286.462 5.82014 286.193 5.55151 285.862 5.55151C285.53 5.55151 285.262 5.82014 285.262 6.15151C285.262 6.48288 285.53 6.75151 285.862 6.75151Z" fill="#009096"/>
<path d="M289.362 6.75151C289.693 6.75151 289.962 6.48288 289.962 6.15151C289.962 5.82014 289.693 5.55151 289.362 5.55151C289.03 5.55151 288.762 5.82014 288.762 6.15151C288.762 6.48288 289.03 6.75151 289.362 6.75151Z" fill="#009096"/>
<path d="M292.762 6.75151C293.093 6.75151 293.362 6.48288 293.362 6.15151C293.362 5.82014 293.093 5.55151 292.762 5.55151C292.43 5.55151 292.162 5.82014 292.162 6.15151C292.162 6.48288 292.43 6.75151 292.762 6.75151Z" fill="#009096"/>
<path d="M296.262 6.75151C296.593 6.75151 296.862 6.48288 296.862 6.15151C296.862 5.82014 296.593 5.55151 296.262 5.55151C295.93 5.55151 295.662 5.82014 295.662 6.15151C295.662 6.48288 295.93 6.75151 296.262 6.75151Z" fill="#009096"/>
<path d="M299.662 6.75151C299.993 6.75151 300.262 6.48288 300.262 6.15151C300.262 5.82014 299.993 5.55151 299.662 5.55151C299.33 5.55151 299.062 5.82014 299.062 6.15151C299.062 6.48288 299.33 6.75151 299.662 6.75151Z" fill="#009096"/>
<path d="M303.162 6.75151C303.493 6.75151 303.762 6.48288 303.762 6.15151C303.762 5.82014 303.493 5.55151 303.162 5.55151C302.83 5.55151 302.562 5.82014 302.562 6.15151C302.562 6.48288 302.83 6.75151 303.162 6.75151Z" fill="#009096"/>
<path d="M306.662 6.75151C306.993 6.75151 307.262 6.48288 307.262 6.15151C307.262 5.82014 306.993 5.55151 306.662 5.55151C306.33 5.55151 306.062 5.82014 306.062 6.15151C306.062 6.48288 306.33 6.75151 306.662 6.75151Z" fill="#009096"/>
<path d="M310.062 6.75151C310.393 6.75151 310.662 6.48288 310.662 6.15151C310.662 5.82014 310.393 5.55151 310.062 5.55151C309.731 5.55151 309.462 5.82014 309.462 6.15151C309.462 6.48288 309.731 6.75151 310.062 6.75151Z" fill="#009096"/>
<path d="M313.562 6.75151C313.893 6.75151 314.162 6.48288 314.162 6.15151C314.162 5.82014 313.893 5.55151 313.562 5.55151C313.231 5.55151 312.962 5.82014 312.962 6.15151C312.962 6.48288 313.231 6.75151 313.562 6.75151Z" fill="#009096"/>
<path d="M316.962 6.75151C317.293 6.75151 317.562 6.48288 317.562 6.15151C317.562 5.82014 317.293 5.55151 316.962 5.55151C316.63 5.55151 316.362 5.82014 316.362 6.15151C316.362 6.48288 316.63 6.75151 316.962 6.75151Z" fill="#009096"/>
<path d="M320.462 6.75151C320.793 6.75151 321.062 6.48288 321.062 6.15151C321.062 5.82014 320.793 5.55151 320.462 5.55151C320.13 5.55151 319.862 5.82014 319.862 6.15151C319.862 6.48288 320.13 6.75151 320.462 6.75151Z" fill="#009096"/>
<path d="M323.862 6.75151C324.193 6.75151 324.462 6.48288 324.462 6.15151C324.462 5.82014 324.193 5.55151 323.862 5.55151C323.53 5.55151 323.262 5.82014 323.262 6.15151C323.262 6.48288 323.53 6.75151 323.862 6.75151Z" fill="#009096"/>
<path d="M327.362 6.75151C327.693 6.75151 327.962 6.48288 327.962 6.15151C327.962 5.82014 327.693 5.55151 327.362 5.55151C327.03 5.55151 326.762 5.82014 326.762 6.15151C326.762 6.48288 327.03 6.75151 327.362 6.75151Z" fill="#009096"/>
<path d="M282.362 10.2515C282.693 10.2515 282.962 9.98288 282.962 9.65151C282.962 9.32014 282.693 9.05151 282.362 9.05151C282.03 9.05151 281.762 9.32014 281.762 9.65151C281.762 9.98288 282.03 10.2515 282.362 10.2515Z" fill="#009096"/>
<path d="M285.862 10.2515C286.193 10.2515 286.462 9.98288 286.462 9.65151C286.462 9.32014 286.193 9.05151 285.862 9.05151C285.53 9.05151 285.262 9.32014 285.262 9.65151C285.262 9.98288 285.53 10.2515 285.862 10.2515Z" fill="#009096"/>
<path d="M289.362 10.2515C289.693 10.2515 289.962 9.98288 289.962 9.65151C289.962 9.32014 289.693 9.05151 289.362 9.05151C289.03 9.05151 288.762 9.32014 288.762 9.65151C288.762 9.98288 289.03 10.2515 289.362 10.2515Z" fill="#009096"/>
<path d="M292.762 10.2515C293.093 10.2515 293.362 9.98288 293.362 9.65151C293.362 9.32014 293.093 9.05151 292.762 9.05151C292.43 9.05151 292.162 9.32014 292.162 9.65151C292.162 9.98288 292.43 10.2515 292.762 10.2515Z" fill="#009096"/>
<path d="M296.262 10.2515C296.593 10.2515 296.862 9.98288 296.862 9.65151C296.862 9.32014 296.593 9.05151 296.262 9.05151C295.93 9.05151 295.662 9.32014 295.662 9.65151C295.662 9.98288 295.93 10.2515 296.262 10.2515Z" fill="#009096"/>
<path d="M299.662 10.2515C299.993 10.2515 300.262 9.98288 300.262 9.65151C300.262 9.32014 299.993 9.05151 299.662 9.05151C299.33 9.05151 299.062 9.32014 299.062 9.65151C299.062 9.98288 299.33 10.2515 299.662 10.2515Z" fill="#009096"/>
<path d="M303.162 10.2515C303.493 10.2515 303.762 9.98288 303.762 9.65151C303.762 9.32014 303.493 9.05151 303.162 9.05151C302.83 9.05151 302.562 9.32014 302.562 9.65151C302.562 9.98288 302.83 10.2515 303.162 10.2515Z" fill="#009096"/>
<path d="M306.662 10.2515C306.993 10.2515 307.262 9.98288 307.262 9.65151C307.262 9.32014 306.993 9.05151 306.662 9.05151C306.33 9.05151 306.062 9.32014 306.062 9.65151C306.062 9.98288 306.33 10.2515 306.662 10.2515Z" fill="#009096"/>
<path d="M310.062 10.2515C310.393 10.2515 310.662 9.98288 310.662 9.65151C310.662 9.32014 310.393 9.05151 310.062 9.05151C309.731 9.05151 309.462 9.32014 309.462 9.65151C309.462 9.98288 309.731 10.2515 310.062 10.2515Z" fill="#009096"/>
<path d="M313.562 10.2515C313.893 10.2515 314.162 9.98288 314.162 9.65151C314.162 9.32014 313.893 9.05151 313.562 9.05151C313.231 9.05151 312.962 9.32014 312.962 9.65151C312.962 9.98288 313.231 10.2515 313.562 10.2515Z" fill="#009096"/>
<path d="M316.962 10.2515C317.293 10.2515 317.562 9.98288 317.562 9.65151C317.562 9.32014 317.293 9.05151 316.962 9.05151C316.63 9.05151 316.362 9.32014 316.362 9.65151C316.362 9.98288 316.63 10.2515 316.962 10.2515Z" fill="#009096"/>
<path d="M320.462 10.2515C320.793 10.2515 321.062 9.98288 321.062 9.65151C321.062 9.32014 320.793 9.05151 320.462 9.05151C320.13 9.05151 319.862 9.32014 319.862 9.65151C319.862 9.98288 320.13 10.2515 320.462 10.2515Z" fill="#009096"/>
<path d="M323.862 10.2515C324.193 10.2515 324.462 9.98288 324.462 9.65151C324.462 9.32014 324.193 9.05151 323.862 9.05151C323.53 9.05151 323.262 9.32014 323.262 9.65151C323.262 9.98288 323.53 10.2515 323.862 10.2515Z" fill="#009096"/>
<path d="M327.362 10.2515C327.693 10.2515 327.962 9.98288 327.962 9.65151C327.962 9.32014 327.693 9.05151 327.362 9.05151C327.03 9.05151 326.762 9.32014 326.762 9.65151C326.762 9.98288 327.03 10.2515 327.362 10.2515Z" fill="#009096"/>
<path d="M282.362 13.6514C282.693 13.6514 282.962 13.3828 282.962 13.0514C282.962 12.72 282.693 12.4514 282.362 12.4514C282.03 12.4514 281.762 12.72 281.762 13.0514C281.762 13.3828 282.03 13.6514 282.362 13.6514Z" fill="#009096"/>
<path d="M285.862 13.6514C286.193 13.6514 286.462 13.3828 286.462 13.0514C286.462 12.72 286.193 12.4514 285.862 12.4514C285.53 12.4514 285.262 12.72 285.262 13.0514C285.262 13.3828 285.53 13.6514 285.862 13.6514Z" fill="#009096"/>
<path d="M289.362 13.6514C289.693 13.6514 289.962 13.3828 289.962 13.0514C289.962 12.72 289.693 12.4514 289.362 12.4514C289.03 12.4514 288.762 12.72 288.762 13.0514C288.762 13.3828 289.03 13.6514 289.362 13.6514Z" fill="#009096"/>
<path d="M292.762 13.6514C293.093 13.6514 293.362 13.3828 293.362 13.0514C293.362 12.72 293.093 12.4514 292.762 12.4514C292.43 12.4514 292.162 12.72 292.162 13.0514C292.162 13.3828 292.43 13.6514 292.762 13.6514Z" fill="#009096"/>
<path d="M296.262 13.6514C296.593 13.6514 296.862 13.3828 296.862 13.0514C296.862 12.72 296.593 12.4514 296.262 12.4514C295.93 12.4514 295.662 12.72 295.662 13.0514C295.662 13.3828 295.93 13.6514 296.262 13.6514Z" fill="#009096"/>
<path d="M299.662 13.6514C299.993 13.6514 300.262 13.3828 300.262 13.0514C300.262 12.72 299.993 12.4514 299.662 12.4514C299.33 12.4514 299.062 12.72 299.062 13.0514C299.062 13.3828 299.33 13.6514 299.662 13.6514Z" fill="#009096"/>
<path d="M303.162 13.6514C303.493 13.6514 303.762 13.3828 303.762 13.0514C303.762 12.72 303.493 12.4514 303.162 12.4514C302.83 12.4514 302.562 12.72 302.562 13.0514C302.562 13.3828 302.83 13.6514 303.162 13.6514Z" fill="#009096"/>
<path d="M306.662 13.6514C306.993 13.6514 307.262 13.3828 307.262 13.0514C307.262 12.72 306.993 12.4514 306.662 12.4514C306.33 12.4514 306.062 12.72 306.062 13.0514C306.062 13.3828 306.33 13.6514 306.662 13.6514Z" fill="#009096"/>
<path d="M310.062 13.6514C310.393 13.6514 310.662 13.3828 310.662 13.0514C310.662 12.72 310.393 12.4514 310.062 12.4514C309.731 12.4514 309.462 12.72 309.462 13.0514C309.462 13.3828 309.731 13.6514 310.062 13.6514Z" fill="#009096"/>
<path d="M313.562 13.6514C313.893 13.6514 314.162 13.3828 314.162 13.0514C314.162 12.72 313.893 12.4514 313.562 12.4514C313.231 12.4514 312.962 12.72 312.962 13.0514C312.962 13.3828 313.231 13.6514 313.562 13.6514Z" fill="#009096"/>
<path d="M316.962 13.6514C317.293 13.6514 317.562 13.3828 317.562 13.0514C317.562 12.72 317.293 12.4514 316.962 12.4514C316.63 12.4514 316.362 12.72 316.362 13.0514C316.362 13.3828 316.63 13.6514 316.962 13.6514Z" fill="#009096"/>
<path d="M320.462 13.6514C320.793 13.6514 321.062 13.3828 321.062 13.0514C321.062 12.72 320.793 12.4514 320.462 12.4514C320.13 12.4514 319.862 12.72 319.862 13.0514C319.862 13.3828 320.13 13.6514 320.462 13.6514Z" fill="#009096"/>
<path d="M323.862 13.6514C324.193 13.6514 324.462 13.3828 324.462 13.0514C324.462 12.72 324.193 12.4514 323.862 12.4514C323.53 12.4514 323.262 12.72 323.262 13.0514C323.262 13.3828 323.53 13.6514 323.862 13.6514Z" fill="#009096"/>
<path d="M327.362 13.6514C327.693 13.6514 327.962 13.3828 327.962 13.0514C327.962 12.72 327.693 12.4514 327.362 12.4514C327.03 12.4514 326.762 12.72 326.762 13.0514C326.762 13.3828 327.03 13.6514 327.362 13.6514Z" fill="#009096"/>
<path d="M282.362 17.1514C282.693 17.1514 282.962 16.8828 282.962 16.5514C282.962 16.22 282.693 15.9514 282.362 15.9514C282.03 15.9514 281.762 16.22 281.762 16.5514C281.762 16.8828 282.03 17.1514 282.362 17.1514Z" fill="#009096"/>
<path d="M285.862 17.1514C286.193 17.1514 286.462 16.8828 286.462 16.5514C286.462 16.22 286.193 15.9514 285.862 15.9514C285.53 15.9514 285.262 16.22 285.262 16.5514C285.262 16.8828 285.53 17.1514 285.862 17.1514Z" fill="#009096"/>
<path d="M289.362 17.1514C289.693 17.1514 289.962 16.8828 289.962 16.5514C289.962 16.22 289.693 15.9514 289.362 15.9514C289.03 15.9514 288.762 16.22 288.762 16.5514C288.762 16.8828 289.03 17.1514 289.362 17.1514Z" fill="#009096"/>
<path d="M292.762 17.1514C293.093 17.1514 293.362 16.8828 293.362 16.5514C293.362 16.22 293.093 15.9514 292.762 15.9514C292.43 15.9514 292.162 16.22 292.162 16.5514C292.162 16.8828 292.43 17.1514 292.762 17.1514Z" fill="#009096"/>
<path d="M296.262 17.1514C296.593 17.1514 296.862 16.8828 296.862 16.5514C296.862 16.22 296.593 15.9514 296.262 15.9514C295.93 15.9514 295.662 16.22 295.662 16.5514C295.662 16.8828 295.93 17.1514 296.262 17.1514Z" fill="#009096"/>
<path d="M299.662 17.1514C299.993 17.1514 300.262 16.8828 300.262 16.5514C300.262 16.22 299.993 15.9514 299.662 15.9514C299.33 15.9514 299.062 16.22 299.062 16.5514C299.062 16.8828 299.33 17.1514 299.662 17.1514Z" fill="#009096"/>
<path d="M303.162 17.1514C303.493 17.1514 303.762 16.8828 303.762 16.5514C303.762 16.22 303.493 15.9514 303.162 15.9514C302.83 15.9514 302.562 16.22 302.562 16.5514C302.562 16.8828 302.83 17.1514 303.162 17.1514Z" fill="#009096"/>
<path d="M306.662 17.1514C306.993 17.1514 307.262 16.8828 307.262 16.5514C307.262 16.22 306.993 15.9514 306.662 15.9514C306.33 15.9514 306.062 16.22 306.062 16.5514C306.062 16.8828 306.33 17.1514 306.662 17.1514Z" fill="#009096"/>
<path d="M310.062 17.1514C310.393 17.1514 310.662 16.8828 310.662 16.5514C310.662 16.22 310.393 15.9514 310.062 15.9514C309.731 15.9514 309.462 16.22 309.462 16.5514C309.462 16.8828 309.731 17.1514 310.062 17.1514Z" fill="#009096"/>
<path d="M313.562 17.1514C313.893 17.1514 314.162 16.8828 314.162 16.5514C314.162 16.22 313.893 15.9514 313.562 15.9514C313.231 15.9514 312.962 16.22 312.962 16.5514C312.962 16.8828 313.231 17.1514 313.562 17.1514Z" fill="#009096"/>
<path d="M316.962 17.1514C317.293 17.1514 317.562 16.8828 317.562 16.5514C317.562 16.22 317.293 15.9514 316.962 15.9514C316.63 15.9514 316.362 16.22 316.362 16.5514C316.362 16.8828 316.63 17.1514 316.962 17.1514Z" fill="#009096"/>
<path d="M320.462 17.1514C320.793 17.1514 321.062 16.8828 321.062 16.5514C321.062 16.22 320.793 15.9514 320.462 15.9514C320.13 15.9514 319.862 16.22 319.862 16.5514C319.862 16.8828 320.13 17.1514 320.462 17.1514Z" fill="#009096"/>
<path d="M323.862 17.1514C324.193 17.1514 324.462 16.8828 324.462 16.5514C324.462 16.22 324.193 15.9514 323.862 15.9514C323.53 15.9514 323.262 16.22 323.262 16.5514C323.262 16.8828 323.53 17.1514 323.862 17.1514Z" fill="#009096"/>
<path d="M327.362 17.1514C327.693 17.1514 327.962 16.8828 327.962 16.5514C327.962 16.22 327.693 15.9514 327.362 15.9514C327.03 15.9514 326.762 16.22 326.762 16.5514C326.762 16.8828 327.03 17.1514 327.362 17.1514Z" fill="#009096"/>
<path d="M282.362 20.5516C282.693 20.5516 282.962 20.2829 282.962 19.9516C282.962 19.6202 282.693 19.3516 282.362 19.3516C282.03 19.3516 281.762 19.6202 281.762 19.9516C281.762 20.2829 282.03 20.5516 282.362 20.5516Z" fill="#009096"/>
<path d="M285.862 20.5516C286.193 20.5516 286.462 20.2829 286.462 19.9516C286.462 19.6202 286.193 19.3516 285.862 19.3516C285.53 19.3516 285.262 19.6202 285.262 19.9516C285.262 20.2829 285.53 20.5516 285.862 20.5516Z" fill="#009096"/>
<path d="M289.362 20.5516C289.693 20.5516 289.962 20.2829 289.962 19.9516C289.962 19.6202 289.693 19.3516 289.362 19.3516C289.03 19.3516 288.762 19.6202 288.762 19.9516C288.762 20.2829 289.03 20.5516 289.362 20.5516Z" fill="#009096"/>
<path d="M292.762 20.5516C293.093 20.5516 293.362 20.2829 293.362 19.9516C293.362 19.6202 293.093 19.3516 292.762 19.3516C292.43 19.3516 292.162 19.6202 292.162 19.9516C292.162 20.2829 292.43 20.5516 292.762 20.5516Z" fill="#009096"/>
<path d="M296.262 20.5516C296.593 20.5516 296.862 20.2829 296.862 19.9516C296.862 19.6202 296.593 19.3516 296.262 19.3516C295.93 19.3516 295.662 19.6202 295.662 19.9516C295.662 20.2829 295.93 20.5516 296.262 20.5516Z" fill="#009096"/>
<path d="M299.662 20.5516C299.993 20.5516 300.262 20.2829 300.262 19.9516C300.262 19.6202 299.993 19.3516 299.662 19.3516C299.33 19.3516 299.062 19.6202 299.062 19.9516C299.062 20.2829 299.33 20.5516 299.662 20.5516Z" fill="#009096"/>
<path d="M303.162 20.5516C303.493 20.5516 303.762 20.2829 303.762 19.9516C303.762 19.6202 303.493 19.3516 303.162 19.3516C302.83 19.3516 302.562 19.6202 302.562 19.9516C302.562 20.2829 302.83 20.5516 303.162 20.5516Z" fill="#009096"/>
<path d="M306.662 20.5516C306.993 20.5516 307.262 20.2829 307.262 19.9516C307.262 19.6202 306.993 19.3516 306.662 19.3516C306.33 19.3516 306.062 19.6202 306.062 19.9516C306.062 20.2829 306.33 20.5516 306.662 20.5516Z" fill="#009096"/>
<path d="M310.062 20.5516C310.393 20.5516 310.662 20.2829 310.662 19.9516C310.662 19.6202 310.393 19.3516 310.062 19.3516C309.731 19.3516 309.462 19.6202 309.462 19.9516C309.462 20.2829 309.731 20.5516 310.062 20.5516Z" fill="#009096"/>
<path d="M313.562 20.5516C313.893 20.5516 314.162 20.2829 314.162 19.9516C314.162 19.6202 313.893 19.3516 313.562 19.3516C313.231 19.3516 312.962 19.6202 312.962 19.9516C312.962 20.2829 313.231 20.5516 313.562 20.5516Z" fill="#009096"/>
<path d="M316.962 20.5516C317.293 20.5516 317.562 20.2829 317.562 19.9516C317.562 19.6202 317.293 19.3516 316.962 19.3516C316.63 19.3516 316.362 19.6202 316.362 19.9516C316.362 20.2829 316.63 20.5516 316.962 20.5516Z" fill="#009096"/>
<path d="M320.462 20.5516C320.793 20.5516 321.062 20.2829 321.062 19.9516C321.062 19.6202 320.793 19.3516 320.462 19.3516C320.13 19.3516 319.862 19.6202 319.862 19.9516C319.862 20.2829 320.13 20.5516 320.462 20.5516Z" fill="#009096"/>
<path d="M323.862 20.5516C324.193 20.5516 324.462 20.2829 324.462 19.9516C324.462 19.6202 324.193 19.3516 323.862 19.3516C323.53 19.3516 323.262 19.6202 323.262 19.9516C323.262 20.2829 323.53 20.5516 323.862 20.5516Z" fill="#009096"/>
<path d="M327.362 20.5516C327.693 20.5516 327.962 20.2829 327.962 19.9516C327.962 19.6202 327.693 19.3516 327.362 19.3516C327.03 19.3516 326.762 19.6202 326.762 19.9516C326.762 20.2829 327.03 20.5516 327.362 20.5516Z" fill="#009096"/>
<path d="M282.362 24.0516C282.693 24.0516 282.962 23.7829 282.962 23.4516C282.962 23.1202 282.693 22.8516 282.362 22.8516C282.03 22.8516 281.762 23.1202 281.762 23.4516C281.762 23.7829 282.03 24.0516 282.362 24.0516Z" fill="#009096"/>
<path d="M285.862 24.0516C286.193 24.0516 286.462 23.7829 286.462 23.4516C286.462 23.1202 286.193 22.8516 285.862 22.8516C285.53 22.8516 285.262 23.1202 285.262 23.4516C285.262 23.7829 285.53 24.0516 285.862 24.0516Z" fill="#009096"/>
<path d="M289.362 24.0516C289.693 24.0516 289.962 23.7829 289.962 23.4516C289.962 23.1202 289.693 22.8516 289.362 22.8516C289.03 22.8516 288.762 23.1202 288.762 23.4516C288.762 23.7829 289.03 24.0516 289.362 24.0516Z" fill="#009096"/>
<path d="M292.762 24.0516C293.093 24.0516 293.362 23.7829 293.362 23.4516C293.362 23.1202 293.093 22.8516 292.762 22.8516C292.43 22.8516 292.162 23.1202 292.162 23.4516C292.162 23.7829 292.43 24.0516 292.762 24.0516Z" fill="#009096"/>
<path d="M296.262 24.0516C296.593 24.0516 296.862 23.7829 296.862 23.4516C296.862 23.1202 296.593 22.8516 296.262 22.8516C295.93 22.8516 295.662 23.1202 295.662 23.4516C295.662 23.7829 295.93 24.0516 296.262 24.0516Z" fill="#009096"/>
<path d="M299.662 24.0516C299.993 24.0516 300.262 23.7829 300.262 23.4516C300.262 23.1202 299.993 22.8516 299.662 22.8516C299.33 22.8516 299.062 23.1202 299.062 23.4516C299.062 23.7829 299.33 24.0516 299.662 24.0516Z" fill="#009096"/>
<path d="M303.162 24.0516C303.493 24.0516 303.762 23.7829 303.762 23.4516C303.762 23.1202 303.493 22.8516 303.162 22.8516C302.83 22.8516 302.562 23.1202 302.562 23.4516C302.562 23.7829 302.83 24.0516 303.162 24.0516Z" fill="#009096"/>
<path d="M306.662 24.0516C306.993 24.0516 307.262 23.7829 307.262 23.4516C307.262 23.1202 306.993 22.8516 306.662 22.8516C306.33 22.8516 306.062 23.1202 306.062 23.4516C306.062 23.7829 306.33 24.0516 306.662 24.0516Z" fill="#009096"/>
<path d="M310.062 24.0516C310.393 24.0516 310.662 23.7829 310.662 23.4516C310.662 23.1202 310.393 22.8516 310.062 22.8516C309.731 22.8516 309.462 23.1202 309.462 23.4516C309.462 23.7829 309.731 24.0516 310.062 24.0516Z" fill="#009096"/>
<path d="M313.562 24.0516C313.893 24.0516 314.162 23.7829 314.162 23.4516C314.162 23.1202 313.893 22.8516 313.562 22.8516C313.231 22.8516 312.962 23.1202 312.962 23.4516C312.962 23.7829 313.231 24.0516 313.562 24.0516Z" fill="#009096"/>
<path d="M316.962 24.0516C317.293 24.0516 317.562 23.7829 317.562 23.4516C317.562 23.1202 317.293 22.8516 316.962 22.8516C316.63 22.8516 316.362 23.1202 316.362 23.4516C316.362 23.7829 316.63 24.0516 316.962 24.0516Z" fill="#009096"/>
<path d="M320.462 24.0516C320.793 24.0516 321.062 23.7829 321.062 23.4516C321.062 23.1202 320.793 22.8516 320.462 22.8516C320.13 22.8516 319.862 23.1202 319.862 23.4516C319.862 23.7829 320.13 24.0516 320.462 24.0516Z" fill="#009096"/>
<path d="M323.862 24.0516C324.193 24.0516 324.462 23.7829 324.462 23.4516C324.462 23.1202 324.193 22.8516 323.862 22.8516C323.53 22.8516 323.262 23.1202 323.262 23.4516C323.262 23.7829 323.53 24.0516 323.862 24.0516Z" fill="#009096"/>
<path d="M327.362 24.0516C327.693 24.0516 327.962 23.7829 327.962 23.4516C327.962 23.1202 327.693 22.8516 327.362 22.8516C327.03 22.8516 326.762 23.1202 326.762 23.4516C326.762 23.7829 327.03 24.0516 327.362 24.0516Z" fill="#009096"/>
<path d="M282.362 27.5516C282.693 27.5516 282.962 27.2829 282.962 26.9516C282.962 26.6202 282.693 26.3516 282.362 26.3516C282.03 26.3516 281.762 26.6202 281.762 26.9516C281.762 27.2829 282.03 27.5516 282.362 27.5516Z" fill="#009096"/>
<path d="M285.862 27.5516C286.193 27.5516 286.462 27.2829 286.462 26.9516C286.462 26.6202 286.193 26.3516 285.862 26.3516C285.53 26.3516 285.262 26.6202 285.262 26.9516C285.262 27.2829 285.53 27.5516 285.862 27.5516Z" fill="#009096"/>
<path d="M289.362 27.5516C289.693 27.5516 289.962 27.2829 289.962 26.9516C289.962 26.6202 289.693 26.3516 289.362 26.3516C289.03 26.3516 288.762 26.6202 288.762 26.9516C288.762 27.2829 289.03 27.5516 289.362 27.5516Z" fill="#009096"/>
<path d="M292.762 27.5516C293.093 27.5516 293.362 27.2829 293.362 26.9516C293.362 26.6202 293.093 26.3516 292.762 26.3516C292.43 26.3516 292.162 26.6202 292.162 26.9516C292.162 27.2829 292.43 27.5516 292.762 27.5516Z" fill="#009096"/>
<path d="M296.262 27.5516C296.593 27.5516 296.862 27.2829 296.862 26.9516C296.862 26.6202 296.593 26.3516 296.262 26.3516C295.93 26.3516 295.662 26.6202 295.662 26.9516C295.662 27.2829 295.93 27.5516 296.262 27.5516Z" fill="#009096"/>
<path d="M299.662 27.5516C299.993 27.5516 300.262 27.2829 300.262 26.9516C300.262 26.6202 299.993 26.3516 299.662 26.3516C299.33 26.3516 299.062 26.6202 299.062 26.9516C299.062 27.2829 299.33 27.5516 299.662 27.5516Z" fill="#009096"/>
<path d="M303.162 27.5516C303.493 27.5516 303.762 27.2829 303.762 26.9516C303.762 26.6202 303.493 26.3516 303.162 26.3516C302.83 26.3516 302.562 26.6202 302.562 26.9516C302.562 27.2829 302.83 27.5516 303.162 27.5516Z" fill="#009096"/>
<path d="M306.662 27.5516C306.993 27.5516 307.262 27.2829 307.262 26.9516C307.262 26.6202 306.993 26.3516 306.662 26.3516C306.33 26.3516 306.062 26.6202 306.062 26.9516C306.062 27.2829 306.33 27.5516 306.662 27.5516Z" fill="#009096"/>
<path d="M310.062 27.5516C310.393 27.5516 310.662 27.2829 310.662 26.9516C310.662 26.6202 310.393 26.3516 310.062 26.3516C309.731 26.3516 309.462 26.6202 309.462 26.9516C309.462 27.2829 309.731 27.5516 310.062 27.5516Z" fill="#009096"/>
<path d="M313.562 27.5516C313.893 27.5516 314.162 27.2829 314.162 26.9516C314.162 26.6202 313.893 26.3516 313.562 26.3516C313.231 26.3516 312.962 26.6202 312.962 26.9516C312.962 27.2829 313.231 27.5516 313.562 27.5516Z" fill="#009096"/>
<path d="M316.962 27.5516C317.293 27.5516 317.562 27.2829 317.562 26.9516C317.562 26.6202 317.293 26.3516 316.962 26.3516C316.63 26.3516 316.362 26.6202 316.362 26.9516C316.362 27.2829 316.63 27.5516 316.962 27.5516Z" fill="#009096"/>
<path d="M320.462 27.5516C320.793 27.5516 321.062 27.2829 321.062 26.9516C321.062 26.6202 320.793 26.3516 320.462 26.3516C320.13 26.3516 319.862 26.6202 319.862 26.9516C319.862 27.2829 320.13 27.5516 320.462 27.5516Z" fill="#009096"/>
<path d="M323.862 27.5516C324.193 27.5516 324.462 27.2829 324.462 26.9516C324.462 26.6202 324.193 26.3516 323.862 26.3516C323.53 26.3516 323.262 26.6202 323.262 26.9516C323.262 27.2829 323.53 27.5516 323.862 27.5516Z" fill="#009096"/>
<path d="M327.362 27.5516C327.693 27.5516 327.962 27.2829 327.962 26.9516C327.962 26.6202 327.693 26.3516 327.362 26.3516C327.03 26.3516 326.762 26.6202 326.762 26.9516C326.762 27.2829 327.03 27.5516 327.362 27.5516Z" fill="#009096"/>
<path d="M282.362 30.9515C282.693 30.9515 282.962 30.6828 282.962 30.3515C282.962 30.0201 282.693 29.7515 282.362 29.7515C282.03 29.7515 281.762 30.0201 281.762 30.3515C281.762 30.6828 282.03 30.9515 282.362 30.9515Z" fill="#009096"/>
<path d="M285.862 30.9515C286.193 30.9515 286.462 30.6828 286.462 30.3515C286.462 30.0201 286.193 29.7515 285.862 29.7515C285.53 29.7515 285.262 30.0201 285.262 30.3515C285.262 30.6828 285.53 30.9515 285.862 30.9515Z" fill="#009096"/>
<path d="M289.362 30.9515C289.693 30.9515 289.962 30.6828 289.962 30.3515C289.962 30.0201 289.693 29.7515 289.362 29.7515C289.03 29.7515 288.762 30.0201 288.762 30.3515C288.762 30.6828 289.03 30.9515 289.362 30.9515Z" fill="#009096"/>
<path d="M292.762 30.9515C293.093 30.9515 293.362 30.6828 293.362 30.3515C293.362 30.0201 293.093 29.7515 292.762 29.7515C292.43 29.7515 292.162 30.0201 292.162 30.3515C292.162 30.6828 292.43 30.9515 292.762 30.9515Z" fill="#009096"/>
<path d="M296.262 30.9515C296.593 30.9515 296.862 30.6828 296.862 30.3515C296.862 30.0201 296.593 29.7515 296.262 29.7515C295.93 29.7515 295.662 30.0201 295.662 30.3515C295.662 30.6828 295.93 30.9515 296.262 30.9515Z" fill="#009096"/>
<path d="M299.662 30.9515C299.993 30.9515 300.262 30.6828 300.262 30.3515C300.262 30.0201 299.993 29.7515 299.662 29.7515C299.33 29.7515 299.062 30.0201 299.062 30.3515C299.062 30.6828 299.33 30.9515 299.662 30.9515Z" fill="#009096"/>
<path d="M303.162 30.9515C303.493 30.9515 303.762 30.6828 303.762 30.3515C303.762 30.0201 303.493 29.7515 303.162 29.7515C302.83 29.7515 302.562 30.0201 302.562 30.3515C302.562 30.6828 302.83 30.9515 303.162 30.9515Z" fill="#009096"/>
<path d="M306.662 30.9515C306.993 30.9515 307.262 30.6828 307.262 30.3515C307.262 30.0201 306.993 29.7515 306.662 29.7515C306.33 29.7515 306.062 30.0201 306.062 30.3515C306.062 30.6828 306.33 30.9515 306.662 30.9515Z" fill="#009096"/>
<path d="M310.062 30.9515C310.393 30.9515 310.662 30.6828 310.662 30.3515C310.662 30.0201 310.393 29.7515 310.062 29.7515C309.731 29.7515 309.462 30.0201 309.462 30.3515C309.462 30.6828 309.731 30.9515 310.062 30.9515Z" fill="#009096"/>
<path d="M313.562 30.9515C313.893 30.9515 314.162 30.6828 314.162 30.3515C314.162 30.0201 313.893 29.7515 313.562 29.7515C313.231 29.7515 312.962 30.0201 312.962 30.3515C312.962 30.6828 313.231 30.9515 313.562 30.9515Z" fill="#009096"/>
<path d="M316.962 30.9515C317.293 30.9515 317.562 30.6828 317.562 30.3515C317.562 30.0201 317.293 29.7515 316.962 29.7515C316.63 29.7515 316.362 30.0201 316.362 30.3515C316.362 30.6828 316.63 30.9515 316.962 30.9515Z" fill="#009096"/>
<path d="M320.462 30.9515C320.793 30.9515 321.062 30.6828 321.062 30.3515C321.062 30.0201 320.793 29.7515 320.462 29.7515C320.13 29.7515 319.862 30.0201 319.862 30.3515C319.862 30.6828 320.13 30.9515 320.462 30.9515Z" fill="#009096"/>
<path d="M323.862 30.9515C324.193 30.9515 324.462 30.6828 324.462 30.3515C324.462 30.0201 324.193 29.7515 323.862 29.7515C323.53 29.7515 323.262 30.0201 323.262 30.3515C323.262 30.6828 323.53 30.9515 323.862 30.9515Z" fill="#009096"/>
<path d="M327.362 30.9515C327.693 30.9515 327.962 30.6828 327.962 30.3515C327.962 30.0201 327.693 29.7515 327.362 29.7515C327.03 29.7515 326.762 30.0201 326.762 30.3515C326.762 30.6828 327.03 30.9515 327.362 30.9515Z" fill="#009096"/>
<path d="M282.362 34.4515C282.693 34.4515 282.962 34.1828 282.962 33.8515C282.962 33.5201 282.693 33.2515 282.362 33.2515C282.03 33.2515 281.762 33.5201 281.762 33.8515C281.762 34.1828 282.03 34.4515 282.362 34.4515Z" fill="#009096"/>
<path d="M285.862 34.4515C286.193 34.4515 286.462 34.1828 286.462 33.8515C286.462 33.5201 286.193 33.2515 285.862 33.2515C285.53 33.2515 285.262 33.5201 285.262 33.8515C285.262 34.1828 285.53 34.4515 285.862 34.4515Z" fill="#009096"/>
<path d="M289.362 34.4515C289.693 34.4515 289.962 34.1828 289.962 33.8515C289.962 33.5201 289.693 33.2515 289.362 33.2515C289.03 33.2515 288.762 33.5201 288.762 33.8515C288.762 34.1828 289.03 34.4515 289.362 34.4515Z" fill="#009096"/>
<path d="M292.762 34.4515C293.093 34.4515 293.362 34.1828 293.362 33.8515C293.362 33.5201 293.093 33.2515 292.762 33.2515C292.43 33.2515 292.162 33.5201 292.162 33.8515C292.162 34.1828 292.43 34.4515 292.762 34.4515Z" fill="#009096"/>
<path d="M296.262 34.4515C296.593 34.4515 296.862 34.1828 296.862 33.8515C296.862 33.5201 296.593 33.2515 296.262 33.2515C295.93 33.2515 295.662 33.5201 295.662 33.8515C295.662 34.1828 295.93 34.4515 296.262 34.4515Z" fill="#009096"/>
<path d="M299.662 34.4515C299.993 34.4515 300.262 34.1828 300.262 33.8515C300.262 33.5201 299.993 33.2515 299.662 33.2515C299.33 33.2515 299.062 33.5201 299.062 33.8515C299.062 34.1828 299.33 34.4515 299.662 34.4515Z" fill="#009096"/>
<path d="M303.162 34.4515C303.493 34.4515 303.762 34.1828 303.762 33.8515C303.762 33.5201 303.493 33.2515 303.162 33.2515C302.83 33.2515 302.562 33.5201 302.562 33.8515C302.562 34.1828 302.83 34.4515 303.162 34.4515Z" fill="#009096"/>
<path d="M306.662 34.4515C306.993 34.4515 307.262 34.1828 307.262 33.8515C307.262 33.5201 306.993 33.2515 306.662 33.2515C306.33 33.2515 306.062 33.5201 306.062 33.8515C306.062 34.1828 306.33 34.4515 306.662 34.4515Z" fill="#009096"/>
<path d="M310.062 34.4515C310.393 34.4515 310.662 34.1828 310.662 33.8515C310.662 33.5201 310.393 33.2515 310.062 33.2515C309.731 33.2515 309.462 33.5201 309.462 33.8515C309.462 34.1828 309.731 34.4515 310.062 34.4515Z" fill="#009096"/>
<path d="M313.562 34.4515C313.893 34.4515 314.162 34.1828 314.162 33.8515C314.162 33.5201 313.893 33.2515 313.562 33.2515C313.231 33.2515 312.962 33.5201 312.962 33.8515C312.962 34.1828 313.231 34.4515 313.562 34.4515Z" fill="#009096"/>
<path d="M316.962 34.4515C317.293 34.4515 317.562 34.1828 317.562 33.8515C317.562 33.5201 317.293 33.2515 316.962 33.2515C316.63 33.2515 316.362 33.5201 316.362 33.8515C316.362 34.1828 316.63 34.4515 316.962 34.4515Z" fill="#009096"/>
<path d="M320.462 34.4515C320.793 34.4515 321.062 34.1828 321.062 33.8515C321.062 33.5201 320.793 33.2515 320.462 33.2515C320.13 33.2515 319.862 33.5201 319.862 33.8515C319.862 34.1828 320.13 34.4515 320.462 34.4515Z" fill="#009096"/>
<path d="M323.862 34.4515C324.193 34.4515 324.462 34.1828 324.462 33.8515C324.462 33.5201 324.193 33.2515 323.862 33.2515C323.53 33.2515 323.262 33.5201 323.262 33.8515C323.262 34.1828 323.53 34.4515 323.862 34.4515Z" fill="#009096"/>
<path d="M327.362 34.4515C327.693 34.4515 327.962 34.1828 327.962 33.8515C327.962 33.5201 327.693 33.2515 327.362 33.2515C327.03 33.2515 326.762 33.5201 326.762 33.8515C326.762 34.1828 327.03 34.4515 327.362 34.4515Z" fill="#009096"/>
<path d="M282.362 37.8516C282.693 37.8516 282.962 37.583 282.962 37.2516C282.962 36.9202 282.693 36.6516 282.362 36.6516C282.03 36.6516 281.762 36.9202 281.762 37.2516C281.762 37.583 282.03 37.8516 282.362 37.8516Z" fill="#009096"/>
<path d="M285.862 37.8516C286.193 37.8516 286.462 37.583 286.462 37.2516C286.462 36.9202 286.193 36.6516 285.862 36.6516C285.53 36.6516 285.262 36.9202 285.262 37.2516C285.262 37.583 285.53 37.8516 285.862 37.8516Z" fill="#009096"/>
<path d="M292.762 37.8516C293.093 37.8516 293.362 37.583 293.362 37.2516C293.362 36.9202 293.093 36.6516 292.762 36.6516C292.43 36.6516 292.162 36.9202 292.162 37.2516C292.162 37.583 292.43 37.8516 292.762 37.8516Z" fill="#009096"/>
<path d="M296.262 37.8516C296.593 37.8516 296.862 37.583 296.862 37.2516C296.862 36.9202 296.593 36.6516 296.262 36.6516C295.93 36.6516 295.662 36.9202 295.662 37.2516C295.662 37.583 295.93 37.8516 296.262 37.8516Z" fill="#009096"/>
<path d="M299.662 37.8516C299.993 37.8516 300.262 37.583 300.262 37.2516C300.262 36.9202 299.993 36.6516 299.662 36.6516C299.33 36.6516 299.062 36.9202 299.062 37.2516C299.062 37.583 299.33 37.8516 299.662 37.8516Z" fill="#009096"/>
<path d="M303.162 37.8516C303.493 37.8516 303.762 37.583 303.762 37.2516C303.762 36.9202 303.493 36.6516 303.162 36.6516C302.83 36.6516 302.562 36.9202 302.562 37.2516C302.562 37.583 302.83 37.8516 303.162 37.8516Z" fill="#009096"/>
<path d="M306.662 37.8516C306.993 37.8516 307.262 37.583 307.262 37.2516C307.262 36.9202 306.993 36.6516 306.662 36.6516C306.33 36.6516 306.062 36.9202 306.062 37.2516C306.062 37.583 306.33 37.8516 306.662 37.8516Z" fill="#009096"/>
<path d="M310.062 37.8516C310.393 37.8516 310.662 37.583 310.662 37.2516C310.662 36.9202 310.393 36.6516 310.062 36.6516C309.731 36.6516 309.462 36.9202 309.462 37.2516C309.462 37.583 309.731 37.8516 310.062 37.8516Z" fill="#009096"/>
<path d="M313.562 37.8516C313.893 37.8516 314.162 37.583 314.162 37.2516C314.162 36.9202 313.893 36.6516 313.562 36.6516C313.231 36.6516 312.962 36.9202 312.962 37.2516C312.962 37.583 313.231 37.8516 313.562 37.8516Z" fill="#009096"/>
<path d="M316.962 37.8516C317.293 37.8516 317.562 37.583 317.562 37.2516C317.562 36.9202 317.293 36.6516 316.962 36.6516C316.63 36.6516 316.362 36.9202 316.362 37.2516C316.362 37.583 316.63 37.8516 316.962 37.8516Z" fill="#009096"/>
<path d="M320.462 37.8516C320.793 37.8516 321.062 37.583 321.062 37.2516C321.062 36.9202 320.793 36.6516 320.462 36.6516C320.13 36.6516 319.862 36.9202 319.862 37.2516C319.862 37.583 320.13 37.8516 320.462 37.8516Z" fill="#009096"/>
<path d="M323.862 37.8516C324.193 37.8516 324.462 37.583 324.462 37.2516C324.462 36.9202 324.193 36.6516 323.862 36.6516C323.53 36.6516 323.262 36.9202 323.262 37.2516C323.262 37.583 323.53 37.8516 323.862 37.8516Z" fill="#009096"/>
<path d="M327.362 37.8516C327.693 37.8516 327.962 37.583 327.962 37.2516C327.962 36.9202 327.693 36.6516 327.362 36.6516C327.03 36.6516 326.762 36.9202 326.762 37.2516C326.762 37.583 327.03 37.8516 327.362 37.8516Z" fill="#009096"/>
<path d="M282.362 41.3516C282.693 41.3516 282.962 41.083 282.962 40.7516C282.962 40.4202 282.693 40.1516 282.362 40.1516C282.03 40.1516 281.762 40.4202 281.762 40.7516C281.762 41.083 282.03 41.3516 282.362 41.3516Z" fill="#009096"/>
<path d="M285.862 41.3516C286.193 41.3516 286.462 41.083 286.462 40.7516C286.462 40.4202 286.193 40.1516 285.862 40.1516C285.53 40.1516 285.262 40.4202 285.262 40.7516C285.262 41.083 285.53 41.3516 285.862 41.3516Z" fill="#009096"/>
<path d="M289.362 41.3516C289.693 41.3516 289.962 41.083 289.962 40.7516C289.962 40.4202 289.693 40.1516 289.362 40.1516C289.03 40.1516 288.762 40.4202 288.762 40.7516C288.762 41.083 289.03 41.3516 289.362 41.3516Z" fill="#009096"/>
<path d="M292.762 41.3516C293.093 41.3516 293.362 41.083 293.362 40.7516C293.362 40.4202 293.093 40.1516 292.762 40.1516C292.43 40.1516 292.162 40.4202 292.162 40.7516C292.162 41.083 292.43 41.3516 292.762 41.3516Z" fill="#009096"/>
<path d="M296.262 41.3516C296.593 41.3516 296.862 41.083 296.862 40.7516C296.862 40.4202 296.593 40.1516 296.262 40.1516C295.93 40.1516 295.662 40.4202 295.662 40.7516C295.662 41.083 295.93 41.3516 296.262 41.3516Z" fill="#009096"/>
<path d="M299.662 41.3516C299.993 41.3516 300.262 41.083 300.262 40.7516C300.262 40.4202 299.993 40.1516 299.662 40.1516C299.33 40.1516 299.062 40.4202 299.062 40.7516C299.062 41.083 299.33 41.3516 299.662 41.3516Z" fill="#009096"/>
<path d="M303.162 41.3516C303.493 41.3516 303.762 41.083 303.762 40.7516C303.762 40.4202 303.493 40.1516 303.162 40.1516C302.83 40.1516 302.562 40.4202 302.562 40.7516C302.562 41.083 302.83 41.3516 303.162 41.3516Z" fill="#009096"/>
<path d="M306.662 41.3516C306.993 41.3516 307.262 41.083 307.262 40.7516C307.262 40.4202 306.993 40.1516 306.662 40.1516C306.33 40.1516 306.062 40.4202 306.062 40.7516C306.062 41.083 306.33 41.3516 306.662 41.3516Z" fill="#009096"/>
<path d="M310.062 41.3516C310.393 41.3516 310.662 41.083 310.662 40.7516C310.662 40.4202 310.393 40.1516 310.062 40.1516C309.731 40.1516 309.462 40.4202 309.462 40.7516C309.462 41.083 309.731 41.3516 310.062 41.3516Z" fill="#009096"/>
<path d="M313.562 41.3516C313.893 41.3516 314.162 41.083 314.162 40.7516C314.162 40.4202 313.893 40.1516 313.562 40.1516C313.231 40.1516 312.962 40.4202 312.962 40.7516C312.962 41.083 313.231 41.3516 313.562 41.3516Z" fill="#009096"/>
<path d="M316.962 41.3516C317.293 41.3516 317.562 41.083 317.562 40.7516C317.562 40.4202 317.293 40.1516 316.962 40.1516C316.63 40.1516 316.362 40.4202 316.362 40.7516C316.362 41.083 316.63 41.3516 316.962 41.3516Z" fill="#009096"/>
<path d="M320.462 41.3516C320.793 41.3516 321.062 41.083 321.062 40.7516C321.062 40.4202 320.793 40.1516 320.462 40.1516C320.13 40.1516 319.862 40.4202 319.862 40.7516C319.862 41.083 320.13 41.3516 320.462 41.3516Z" fill="#009096"/>
<path d="M323.862 41.3516C324.193 41.3516 324.462 41.083 324.462 40.7516C324.462 40.4202 324.193 40.1516 323.862 40.1516C323.53 40.1516 323.262 40.4202 323.262 40.7516C323.262 41.083 323.53 41.3516 323.862 41.3516Z" fill="#009096"/>
<path d="M327.362 41.3516C327.693 41.3516 327.962 41.083 327.962 40.7516C327.962 40.4202 327.693 40.1516 327.362 40.1516C327.03 40.1516 326.762 40.4202 326.762 40.7516C326.762 41.083 327.03 41.3516 327.362 41.3516Z" fill="#009096"/>
<path d="M282.362 44.7515C282.693 44.7515 282.962 44.4829 282.962 44.1515C282.962 43.8201 282.693 43.5515 282.362 43.5515C282.03 43.5515 281.762 43.8201 281.762 44.1515C281.762 44.4829 282.03 44.7515 282.362 44.7515Z" fill="#009096"/>
<path d="M285.862 44.7515C286.193 44.7515 286.462 44.4829 286.462 44.1515C286.462 43.8201 286.193 43.5515 285.862 43.5515C285.53 43.5515 285.262 43.8201 285.262 44.1515C285.262 44.4829 285.53 44.7515 285.862 44.7515Z" fill="#009096"/>
<path d="M289.362 44.7515C289.693 44.7515 289.962 44.4829 289.962 44.1515C289.962 43.8201 289.693 43.5515 289.362 43.5515C289.03 43.5515 288.762 43.8201 288.762 44.1515C288.762 44.4829 289.03 44.7515 289.362 44.7515Z" fill="#009096"/>
<path d="M292.762 44.7515C293.093 44.7515 293.362 44.4829 293.362 44.1515C293.362 43.8201 293.093 43.5515 292.762 43.5515C292.43 43.5515 292.162 43.8201 292.162 44.1515C292.162 44.4829 292.43 44.7515 292.762 44.7515Z" fill="#009096"/>
<path d="M296.262 44.7515C296.593 44.7515 296.862 44.4829 296.862 44.1515C296.862 43.8201 296.593 43.5515 296.262 43.5515C295.93 43.5515 295.662 43.8201 295.662 44.1515C295.662 44.4829 295.93 44.7515 296.262 44.7515Z" fill="#009096"/>
<path d="M299.662 44.7515C299.993 44.7515 300.262 44.4829 300.262 44.1515C300.262 43.8201 299.993 43.5515 299.662 43.5515C299.33 43.5515 299.062 43.8201 299.062 44.1515C299.062 44.4829 299.33 44.7515 299.662 44.7515Z" fill="#009096"/>
<path d="M303.162 44.7515C303.493 44.7515 303.762 44.4829 303.762 44.1515C303.762 43.8201 303.493 43.5515 303.162 43.5515C302.83 43.5515 302.562 43.8201 302.562 44.1515C302.562 44.4829 302.83 44.7515 303.162 44.7515Z" fill="#009096"/>
<path d="M306.662 44.7515C306.993 44.7515 307.262 44.4829 307.262 44.1515C307.262 43.8201 306.993 43.5515 306.662 43.5515C306.33 43.5515 306.062 43.8201 306.062 44.1515C306.062 44.4829 306.33 44.7515 306.662 44.7515Z" fill="#009096"/>
<path d="M310.062 44.7515C310.393 44.7515 310.662 44.4829 310.662 44.1515C310.662 43.8201 310.393 43.5515 310.062 43.5515C309.731 43.5515 309.462 43.8201 309.462 44.1515C309.462 44.4829 309.731 44.7515 310.062 44.7515Z" fill="#009096"/>
<path d="M313.562 44.7515C313.893 44.7515 314.162 44.4829 314.162 44.1515C314.162 43.8201 313.893 43.5515 313.562 43.5515C313.231 43.5515 312.962 43.8201 312.962 44.1515C312.962 44.4829 313.231 44.7515 313.562 44.7515Z" fill="#009096"/>
<path d="M316.962 44.7515C317.293 44.7515 317.562 44.4829 317.562 44.1515C317.562 43.8201 317.293 43.5515 316.962 43.5515C316.63 43.5515 316.362 43.8201 316.362 44.1515C316.362 44.4829 316.63 44.7515 316.962 44.7515Z" fill="#009096"/>
<path d="M320.462 44.7515C320.793 44.7515 321.062 44.4829 321.062 44.1515C321.062 43.8201 320.793 43.5515 320.462 43.5515C320.13 43.5515 319.862 43.8201 319.862 44.1515C319.862 44.4829 320.13 44.7515 320.462 44.7515Z" fill="#009096"/>
<path d="M323.862 44.7515C324.193 44.7515 324.462 44.4829 324.462 44.1515C324.462 43.8201 324.193 43.5515 323.862 43.5515C323.53 43.5515 323.262 43.8201 323.262 44.1515C323.262 44.4829 323.53 44.7515 323.862 44.7515Z" fill="#009096"/>
<path d="M327.362 44.7515C327.693 44.7515 327.962 44.4829 327.962 44.1515C327.962 43.8201 327.693 43.5515 327.362 43.5515C327.03 43.5515 326.762 43.8201 326.762 44.1515C326.762 44.4829 327.03 44.7515 327.362 44.7515Z" fill="#009096"/>
<path d="M282.362 48.2515C282.693 48.2515 282.962 47.9829 282.962 47.6515C282.962 47.3201 282.693 47.0515 282.362 47.0515C282.03 47.0515 281.762 47.3201 281.762 47.6515C281.762 47.9829 282.03 48.2515 282.362 48.2515Z" fill="#009096"/>
<path d="M285.862 48.2515C286.193 48.2515 286.462 47.9829 286.462 47.6515C286.462 47.3201 286.193 47.0515 285.862 47.0515C285.53 47.0515 285.262 47.3201 285.262 47.6515C285.262 47.9829 285.53 48.2515 285.862 48.2515Z" fill="#009096"/>
<path d="M289.362 48.2515C289.693 48.2515 289.962 47.9829 289.962 47.6515C289.962 47.3201 289.693 47.0515 289.362 47.0515C289.03 47.0515 288.762 47.3201 288.762 47.6515C288.762 47.9829 289.03 48.2515 289.362 48.2515Z" fill="#009096"/>
<path d="M292.762 48.2515C293.093 48.2515 293.362 47.9829 293.362 47.6515C293.362 47.3201 293.093 47.0515 292.762 47.0515C292.43 47.0515 292.162 47.3201 292.162 47.6515C292.162 47.9829 292.43 48.2515 292.762 48.2515Z" fill="#009096"/>
<path d="M296.262 48.2515C296.593 48.2515 296.862 47.9829 296.862 47.6515C296.862 47.3201 296.593 47.0515 296.262 47.0515C295.93 47.0515 295.662 47.3201 295.662 47.6515C295.662 47.9829 295.93 48.2515 296.262 48.2515Z" fill="#009096"/>
<path d="M299.662 48.2515C299.993 48.2515 300.262 47.9829 300.262 47.6515C300.262 47.3201 299.993 47.0515 299.662 47.0515C299.33 47.0515 299.062 47.3201 299.062 47.6515C299.062 47.9829 299.33 48.2515 299.662 48.2515Z" fill="#009096"/>
<path d="M303.162 48.2515C303.493 48.2515 303.762 47.9829 303.762 47.6515C303.762 47.3201 303.493 47.0515 303.162 47.0515C302.83 47.0515 302.562 47.3201 302.562 47.6515C302.562 47.9829 302.83 48.2515 303.162 48.2515Z" fill="#009096"/>
<path d="M306.662 48.2515C306.993 48.2515 307.262 47.9829 307.262 47.6515C307.262 47.3201 306.993 47.0515 306.662 47.0515C306.33 47.0515 306.062 47.3201 306.062 47.6515C306.062 47.9829 306.33 48.2515 306.662 48.2515Z" fill="#009096"/>
<path d="M310.062 48.2515C310.393 48.2515 310.662 47.9829 310.662 47.6515C310.662 47.3201 310.393 47.0515 310.062 47.0515C309.731 47.0515 309.462 47.3201 309.462 47.6515C309.462 47.9829 309.731 48.2515 310.062 48.2515Z" fill="#009096"/>
<path d="M313.562 48.2515C313.893 48.2515 314.162 47.9829 314.162 47.6515C314.162 47.3201 313.893 47.0515 313.562 47.0515C313.231 47.0515 312.962 47.3201 312.962 47.6515C312.962 47.9829 313.231 48.2515 313.562 48.2515Z" fill="#009096"/>
<path d="M316.962 48.2515C317.293 48.2515 317.562 47.9829 317.562 47.6515C317.562 47.3201 317.293 47.0515 316.962 47.0515C316.63 47.0515 316.362 47.3201 316.362 47.6515C316.362 47.9829 316.63 48.2515 316.962 48.2515Z" fill="#009096"/>
<path d="M320.462 48.2515C320.793 48.2515 321.062 47.9829 321.062 47.6515C321.062 47.3201 320.793 47.0515 320.462 47.0515C320.13 47.0515 319.862 47.3201 319.862 47.6515C319.862 47.9829 320.13 48.2515 320.462 48.2515Z" fill="#009096"/>
<path d="M323.862 48.2515C324.193 48.2515 324.462 47.9829 324.462 47.6515C324.462 47.3201 324.193 47.0515 323.862 47.0515C323.53 47.0515 323.262 47.3201 323.262 47.6515C323.262 47.9829 323.53 48.2515 323.862 48.2515Z" fill="#009096"/>
<path d="M327.362 48.2515C327.693 48.2515 327.962 47.9829 327.962 47.6515C327.962 47.3201 327.693 47.0515 327.362 47.0515C327.03 47.0515 326.762 47.3201 326.762 47.6515C326.762 47.9829 327.03 48.2515 327.362 48.2515Z" fill="#009096"/>
<path d="M282.362 51.7515C282.693 51.7515 282.962 51.4829 282.962 51.1515C282.962 50.8201 282.693 50.5515 282.362 50.5515C282.03 50.5515 281.762 50.8201 281.762 51.1515C281.762 51.4829 282.03 51.7515 282.362 51.7515Z" fill="#009096"/>
<path d="M285.862 51.7515C286.193 51.7515 286.462 51.4829 286.462 51.1515C286.462 50.8201 286.193 50.5515 285.862 50.5515C285.53 50.5515 285.262 50.8201 285.262 51.1515C285.262 51.4829 285.53 51.7515 285.862 51.7515Z" fill="#009096"/>
<path d="M289.362 51.7515C289.693 51.7515 289.962 51.4829 289.962 51.1515C289.962 50.8201 289.693 50.5515 289.362 50.5515C289.03 50.5515 288.762 50.8201 288.762 51.1515C288.762 51.4829 289.03 51.7515 289.362 51.7515Z" fill="#009096"/>
<path d="M292.762 51.7515C293.093 51.7515 293.362 51.4829 293.362 51.1515C293.362 50.8201 293.093 50.5515 292.762 50.5515C292.43 50.5515 292.162 50.8201 292.162 51.1515C292.162 51.4829 292.43 51.7515 292.762 51.7515Z" fill="#009096"/>
<path d="M296.262 51.7515C296.593 51.7515 296.862 51.4829 296.862 51.1515C296.862 50.8201 296.593 50.5515 296.262 50.5515C295.93 50.5515 295.662 50.8201 295.662 51.1515C295.662 51.4829 295.93 51.7515 296.262 51.7515Z" fill="#009096"/>
<path d="M299.662 51.7515C299.993 51.7515 300.262 51.4829 300.262 51.1515C300.262 50.8201 299.993 50.5515 299.662 50.5515C299.33 50.5515 299.062 50.8201 299.062 51.1515C299.062 51.4829 299.33 51.7515 299.662 51.7515Z" fill="#009096"/>
<path d="M303.162 51.7515C303.493 51.7515 303.762 51.4829 303.762 51.1515C303.762 50.8201 303.493 50.5515 303.162 50.5515C302.83 50.5515 302.562 50.8201 302.562 51.1515C302.562 51.4829 302.83 51.7515 303.162 51.7515Z" fill="#009096"/>
<path d="M306.662 51.7515C306.993 51.7515 307.262 51.4829 307.262 51.1515C307.262 50.8201 306.993 50.5515 306.662 50.5515C306.33 50.5515 306.062 50.8201 306.062 51.1515C306.062 51.4829 306.33 51.7515 306.662 51.7515Z" fill="#009096"/>
<path d="M310.062 51.7515C310.393 51.7515 310.662 51.4829 310.662 51.1515C310.662 50.8201 310.393 50.5515 310.062 50.5515C309.731 50.5515 309.462 50.8201 309.462 51.1515C309.462 51.4829 309.731 51.7515 310.062 51.7515Z" fill="#009096"/>
<path d="M313.562 51.7515C313.893 51.7515 314.162 51.4829 314.162 51.1515C314.162 50.8201 313.893 50.5515 313.562 50.5515C313.231 50.5515 312.962 50.8201 312.962 51.1515C312.962 51.4829 313.231 51.7515 313.562 51.7515Z" fill="#009096"/>
<path d="M316.962 51.7515C317.293 51.7515 317.562 51.4829 317.562 51.1515C317.562 50.8201 317.293 50.5515 316.962 50.5515C316.63 50.5515 316.362 50.8201 316.362 51.1515C316.362 51.4829 316.63 51.7515 316.962 51.7515Z" fill="#009096"/>
<path d="M320.462 51.7515C320.793 51.7515 321.062 51.4829 321.062 51.1515C321.062 50.8201 320.793 50.5515 320.462 50.5515C320.13 50.5515 319.862 50.8201 319.862 51.1515C319.862 51.4829 320.13 51.7515 320.462 51.7515Z" fill="#009096"/>
<path d="M323.862 51.7515C324.193 51.7515 324.462 51.4829 324.462 51.1515C324.462 50.8201 324.193 50.5515 323.862 50.5515C323.53 50.5515 323.262 50.8201 323.262 51.1515C323.262 51.4829 323.53 51.7515 323.862 51.7515Z" fill="#009096"/>
<path d="M327.362 51.7515C327.693 51.7515 327.962 51.4829 327.962 51.1515C327.962 50.8201 327.693 50.5515 327.362 50.5515C327.03 50.5515 326.762 50.8201 326.762 51.1515C326.762 51.4829 327.03 51.7515 327.362 51.7515Z" fill="#009096"/>
<path d="M282.362 55.1514C282.693 55.1514 282.962 54.8828 282.962 54.5514C282.962 54.22 282.693 53.9514 282.362 53.9514C282.03 53.9514 281.762 54.22 281.762 54.5514C281.762 54.8828 282.03 55.1514 282.362 55.1514Z" fill="#009096"/>
<path d="M285.862 55.1514C286.193 55.1514 286.462 54.8828 286.462 54.5514C286.462 54.22 286.193 53.9514 285.862 53.9514C285.53 53.9514 285.262 54.22 285.262 54.5514C285.262 54.8828 285.53 55.1514 285.862 55.1514Z" fill="#009096"/>
<path d="M289.362 55.1514C289.693 55.1514 289.962 54.8828 289.962 54.5514C289.962 54.22 289.693 53.9514 289.362 53.9514C289.03 53.9514 288.762 54.22 288.762 54.5514C288.762 54.8828 289.03 55.1514 289.362 55.1514Z" fill="#009096"/>
<path d="M292.762 55.1514C293.093 55.1514 293.362 54.8828 293.362 54.5514C293.362 54.22 293.093 53.9514 292.762 53.9514C292.43 53.9514 292.162 54.22 292.162 54.5514C292.162 54.8828 292.43 55.1514 292.762 55.1514Z" fill="#009096"/>
<path d="M296.262 55.1514C296.593 55.1514 296.862 54.8828 296.862 54.5514C296.862 54.22 296.593 53.9514 296.262 53.9514C295.93 53.9514 295.662 54.22 295.662 54.5514C295.662 54.8828 295.93 55.1514 296.262 55.1514Z" fill="#009096"/>
<path d="M299.662 55.1514C299.993 55.1514 300.262 54.8828 300.262 54.5514C300.262 54.22 299.993 53.9514 299.662 53.9514C299.33 53.9514 299.062 54.22 299.062 54.5514C299.062 54.8828 299.33 55.1514 299.662 55.1514Z" fill="#009096"/>
<path d="M303.162 55.1514C303.493 55.1514 303.762 54.8828 303.762 54.5514C303.762 54.22 303.493 53.9514 303.162 53.9514C302.83 53.9514 302.562 54.22 302.562 54.5514C302.562 54.8828 302.83 55.1514 303.162 55.1514Z" fill="#009096"/>
<path d="M306.662 55.1514C306.993 55.1514 307.262 54.8828 307.262 54.5514C307.262 54.22 306.993 53.9514 306.662 53.9514C306.33 53.9514 306.062 54.22 306.062 54.5514C306.062 54.8828 306.33 55.1514 306.662 55.1514Z" fill="#009096"/>
<path d="M310.062 55.1514C310.393 55.1514 310.662 54.8828 310.662 54.5514C310.662 54.22 310.393 53.9514 310.062 53.9514C309.731 53.9514 309.462 54.22 309.462 54.5514C309.462 54.8828 309.731 55.1514 310.062 55.1514Z" fill="#009096"/>
<path d="M313.562 55.1514C313.893 55.1514 314.162 54.8828 314.162 54.5514C314.162 54.22 313.893 53.9514 313.562 53.9514C313.231 53.9514 312.962 54.22 312.962 54.5514C312.962 54.8828 313.231 55.1514 313.562 55.1514Z" fill="#009096"/>
<path d="M316.962 55.1514C317.293 55.1514 317.562 54.8828 317.562 54.5514C317.562 54.22 317.293 53.9514 316.962 53.9514C316.63 53.9514 316.362 54.22 316.362 54.5514C316.362 54.8828 316.63 55.1514 316.962 55.1514Z" fill="#009096"/>
<path d="M320.462 55.1514C320.793 55.1514 321.062 54.8828 321.062 54.5514C321.062 54.22 320.793 53.9514 320.462 53.9514C320.13 53.9514 319.862 54.22 319.862 54.5514C319.862 54.8828 320.13 55.1514 320.462 55.1514Z" fill="#009096"/>
<path d="M323.862 55.1514C324.193 55.1514 324.462 54.8828 324.462 54.5514C324.462 54.22 324.193 53.9514 323.862 53.9514C323.53 53.9514 323.262 54.22 323.262 54.5514C323.262 54.8828 323.53 55.1514 323.862 55.1514Z" fill="#009096"/>
<path d="M327.362 55.1514C327.693 55.1514 327.962 54.8828 327.962 54.5514C327.962 54.22 327.693 53.9514 327.362 53.9514C327.03 53.9514 326.762 54.22 326.762 54.5514C326.762 54.8828 327.03 55.1514 327.362 55.1514Z" fill="#009096"/>
<path d="M282.362 58.6514C282.693 58.6514 282.962 58.3828 282.962 58.0514C282.962 57.72 282.693 57.4514 282.362 57.4514C282.03 57.4514 281.762 57.72 281.762 58.0514C281.762 58.3828 282.03 58.6514 282.362 58.6514Z" fill="#009096"/>
<path d="M285.862 58.6514C286.193 58.6514 286.462 58.3828 286.462 58.0514C286.462 57.72 286.193 57.4514 285.862 57.4514C285.53 57.4514 285.262 57.72 285.262 58.0514C285.262 58.3828 285.53 58.6514 285.862 58.6514Z" fill="#009096"/>
<path d="M289.362 58.6514C289.693 58.6514 289.962 58.3828 289.962 58.0514C289.962 57.72 289.693 57.4514 289.362 57.4514C289.03 57.4514 288.762 57.72 288.762 58.0514C288.762 58.3828 289.03 58.6514 289.362 58.6514Z" fill="#009096"/>
<path d="M292.762 58.6514C293.093 58.6514 293.362 58.3828 293.362 58.0514C293.362 57.72 293.093 57.4514 292.762 57.4514C292.43 57.4514 292.162 57.72 292.162 58.0514C292.162 58.3828 292.43 58.6514 292.762 58.6514Z" fill="#009096"/>
<path d="M296.262 58.6514C296.593 58.6514 296.862 58.3828 296.862 58.0514C296.862 57.72 296.593 57.4514 296.262 57.4514C295.93 57.4514 295.662 57.72 295.662 58.0514C295.662 58.3828 295.93 58.6514 296.262 58.6514Z" fill="#009096"/>
<path d="M299.662 58.6514C299.993 58.6514 300.262 58.3828 300.262 58.0514C300.262 57.72 299.993 57.4514 299.662 57.4514C299.33 57.4514 299.062 57.72 299.062 58.0514C299.062 58.3828 299.33 58.6514 299.662 58.6514Z" fill="#009096"/>
<path d="M303.162 58.6514C303.493 58.6514 303.762 58.3828 303.762 58.0514C303.762 57.72 303.493 57.4514 303.162 57.4514C302.83 57.4514 302.562 57.72 302.562 58.0514C302.562 58.3828 302.83 58.6514 303.162 58.6514Z" fill="#009096"/>
<path d="M306.662 58.6514C306.993 58.6514 307.262 58.3828 307.262 58.0514C307.262 57.72 306.993 57.4514 306.662 57.4514C306.33 57.4514 306.062 57.72 306.062 58.0514C306.062 58.3828 306.33 58.6514 306.662 58.6514Z" fill="#009096"/>
<path d="M310.062 58.6514C310.393 58.6514 310.662 58.3828 310.662 58.0514C310.662 57.72 310.393 57.4514 310.062 57.4514C309.731 57.4514 309.462 57.72 309.462 58.0514C309.462 58.3828 309.731 58.6514 310.062 58.6514Z" fill="#009096"/>
<path d="M313.562 58.6514C313.893 58.6514 314.162 58.3828 314.162 58.0514C314.162 57.72 313.893 57.4514 313.562 57.4514C313.231 57.4514 312.962 57.72 312.962 58.0514C312.962 58.3828 313.231 58.6514 313.562 58.6514Z" fill="#009096"/>
<path d="M316.962 58.6514C317.293 58.6514 317.562 58.3828 317.562 58.0514C317.562 57.72 317.293 57.4514 316.962 57.4514C316.63 57.4514 316.362 57.72 316.362 58.0514C316.362 58.3828 316.63 58.6514 316.962 58.6514Z" fill="#009096"/>
<path d="M320.462 58.6514C320.793 58.6514 321.062 58.3828 321.062 58.0514C321.062 57.72 320.793 57.4514 320.462 57.4514C320.13 57.4514 319.862 57.72 319.862 58.0514C319.862 58.3828 320.13 58.6514 320.462 58.6514Z" fill="#009096"/>
<path d="M323.862 58.6514C324.193 58.6514 324.462 58.3828 324.462 58.0514C324.462 57.72 324.193 57.4514 323.862 57.4514C323.53 57.4514 323.262 57.72 323.262 58.0514C323.262 58.3828 323.53 58.6514 323.862 58.6514Z" fill="#009096"/>
<path d="M327.362 58.6514C327.693 58.6514 327.962 58.3828 327.962 58.0514C327.962 57.72 327.693 57.4514 327.362 57.4514C327.03 57.4514 326.762 57.72 326.762 58.0514C326.762 58.3828 327.03 58.6514 327.362 58.6514Z" fill="#009096"/>
<path d="M282.362 62.0516C282.693 62.0516 282.962 61.7829 282.962 61.4516C282.962 61.1202 282.693 60.8516 282.362 60.8516C282.03 60.8516 281.762 61.1202 281.762 61.4516C281.762 61.7829 282.03 62.0516 282.362 62.0516Z" fill="#009096"/>
<path d="M285.862 62.0516C286.193 62.0516 286.462 61.7829 286.462 61.4516C286.462 61.1202 286.193 60.8516 285.862 60.8516C285.53 60.8516 285.262 61.1202 285.262 61.4516C285.262 61.7829 285.53 62.0516 285.862 62.0516Z" fill="#009096"/>
<path d="M289.362 62.0516C289.693 62.0516 289.962 61.7829 289.962 61.4516C289.962 61.1202 289.693 60.8516 289.362 60.8516C289.03 60.8516 288.762 61.1202 288.762 61.4516C288.762 61.7829 289.03 62.0516 289.362 62.0516Z" fill="#009096"/>
<path d="M292.762 62.0516C293.093 62.0516 293.362 61.7829 293.362 61.4516C293.362 61.1202 293.093 60.8516 292.762 60.8516C292.43 60.8516 292.162 61.1202 292.162 61.4516C292.162 61.7829 292.43 62.0516 292.762 62.0516Z" fill="#009096"/>
<path d="M296.262 62.0516C296.593 62.0516 296.862 61.7829 296.862 61.4516C296.862 61.1202 296.593 60.8516 296.262 60.8516C295.93 60.8516 295.662 61.1202 295.662 61.4516C295.662 61.7829 295.93 62.0516 296.262 62.0516Z" fill="#009096"/>
<path d="M299.662 62.0516C299.993 62.0516 300.262 61.7829 300.262 61.4516C300.262 61.1202 299.993 60.8516 299.662 60.8516C299.33 60.8516 299.062 61.1202 299.062 61.4516C299.062 61.7829 299.33 62.0516 299.662 62.0516Z" fill="#009096"/>
<path d="M303.162 62.0516C303.493 62.0516 303.762 61.7829 303.762 61.4516C303.762 61.1202 303.493 60.8516 303.162 60.8516C302.83 60.8516 302.562 61.1202 302.562 61.4516C302.562 61.7829 302.83 62.0516 303.162 62.0516Z" fill="#009096"/>
<path d="M306.662 62.0516C306.993 62.0516 307.262 61.7829 307.262 61.4516C307.262 61.1202 306.993 60.8516 306.662 60.8516C306.33 60.8516 306.062 61.1202 306.062 61.4516C306.062 61.7829 306.33 62.0516 306.662 62.0516Z" fill="#009096"/>
<path d="M310.062 62.0516C310.393 62.0516 310.662 61.7829 310.662 61.4516C310.662 61.1202 310.393 60.8516 310.062 60.8516C309.731 60.8516 309.462 61.1202 309.462 61.4516C309.462 61.7829 309.731 62.0516 310.062 62.0516Z" fill="#009096"/>
<path d="M313.562 62.0516C313.893 62.0516 314.162 61.7829 314.162 61.4516C314.162 61.1202 313.893 60.8516 313.562 60.8516C313.231 60.8516 312.962 61.1202 312.962 61.4516C312.962 61.7829 313.231 62.0516 313.562 62.0516Z" fill="#009096"/>
<path d="M316.962 62.0516C317.293 62.0516 317.562 61.7829 317.562 61.4516C317.562 61.1202 317.293 60.8516 316.962 60.8516C316.63 60.8516 316.362 61.1202 316.362 61.4516C316.362 61.7829 316.63 62.0516 316.962 62.0516Z" fill="#009096"/>
<path d="M320.462 62.0516C320.793 62.0516 321.062 61.7829 321.062 61.4516C321.062 61.1202 320.793 60.8516 320.462 60.8516C320.13 60.8516 319.862 61.1202 319.862 61.4516C319.862 61.7829 320.13 62.0516 320.462 62.0516Z" fill="#009096"/>
<path d="M323.862 62.0516C324.193 62.0516 324.462 61.7829 324.462 61.4516C324.462 61.1202 324.193 60.8516 323.862 60.8516C323.53 60.8516 323.262 61.1202 323.262 61.4516C323.262 61.7829 323.53 62.0516 323.862 62.0516Z" fill="#009096"/>
<path d="M327.362 62.0516C327.693 62.0516 327.962 61.7829 327.962 61.4516C327.962 61.1202 327.693 60.8516 327.362 60.8516C327.03 60.8516 326.762 61.1202 326.762 61.4516C326.762 61.7829 327.03 62.0516 327.362 62.0516Z" fill="#009096"/>
<path d="M289.362 37.8516C289.693 37.8516 289.962 37.583 289.962 37.2516C289.962 36.9202 289.693 36.6516 289.362 36.6516C289.03 36.6516 288.762 36.9202 288.762 37.2516C288.762 37.583 289.03 37.8516 289.362 37.8516Z" fill="#009096"/>
</g>
<path d="M329.911 76.0586H0V74.9995L329.911 75.167V76.0586Z" fill="#1F2432"/>
<path d="M1 75H0V80.5169H1V75Z" fill="#1F2432"/>
<path d="M66.6954 75.167H65.8037V80.5169H66.6954V75.167Z" fill="#1F2432"/>
<path d="M132.499 75.167H131.607V80.5169H132.499V75.167Z" fill="#1F2432"/>
<path d="M198.303 75.167H197.412V80.5169H198.303V75.167Z" fill="#1F2432"/>
<path d="M264.107 75.167H263.215V80.5169H264.107V75.167Z" fill="#1F2432"/>
<path d="M329.911 75.167H329.019V80.5169H329.911V75.167Z" fill="#1F2432"/>
<path d="M4.45825 90.236C4.45825 91.1276 4.27992 91.8409 3.8341 92.2868C3.38827 92.7326 2.94245 93.0001 2.22913 93.0001C1.51581 93.0001 0.980816 92.7326 0.624156 92.2868C0.267495 91.8409 0 91.1276 0 90.236V88.7202C0 87.8285 0.17833 87.1152 0.624156 86.6694C0.980816 86.2236 1.51581 85.9561 2.22913 85.9561C2.94245 85.9561 3.47744 86.2236 3.8341 86.6694C4.19076 87.1152 4.45825 87.8285 4.45825 88.7202V90.236ZM3.92326 88.5418C3.92326 87.8285 3.74493 87.2935 3.47744 86.9369C3.20994 86.5802 2.76412 86.4019 2.22913 86.4019C1.69414 86.4019 1.24831 86.5802 0.980816 86.9369C0.713321 87.2935 0.534991 87.8285 0.534991 88.5418V90.236C0.534991 90.9493 0.713321 91.4843 0.980816 91.8409C1.24831 92.1976 1.69414 92.4651 2.22913 92.4651C2.76412 92.4651 3.12078 92.2868 3.47744 91.8409C3.74493 91.4843 3.92326 90.8601 3.92326 90.1468V88.5418Z" fill="#1F2432"/>
<path d="M323.134 86.7585C323.134 86.3127 323.313 85.9561 323.58 85.5994C323.848 85.2427 324.204 85.1536 324.65 85.1536C325.096 85.1536 325.453 85.3319 325.72 85.5994C325.988 85.8669 326.166 86.3127 326.166 86.7585V87.2044C326.166 87.6502 325.988 88.0068 325.72 88.2743C325.453 88.5418 325.096 88.7202 324.65 88.7202C324.204 88.7202 323.848 88.5418 323.58 88.2743C323.313 88.0068 323.134 87.561 323.134 87.2044V86.7585ZM323.58 87.1152C323.58 87.3827 323.669 87.6502 323.848 87.9177C324.026 88.1852 324.293 88.2743 324.561 88.2743C324.828 88.2743 325.096 88.1852 325.274 87.9177C325.453 87.6502 325.542 87.4719 325.542 87.1152V86.7585C325.542 86.491 325.453 86.2235 325.274 85.9561C325.096 85.6886 324.828 85.5994 324.561 85.5994C324.293 85.5994 324.026 85.6886 323.848 85.9561C323.669 86.2235 323.58 86.4019 323.58 86.7585V87.1152ZM324.918 92.2868L324.561 92.0193L328.306 86.0452L328.663 86.3127L324.918 92.2868ZM326.968 91.0385C326.968 90.5926 327.147 90.236 327.414 89.9685C327.682 89.701 328.038 89.5227 328.484 89.5227C328.93 89.5227 329.287 89.701 329.554 89.9685C329.822 90.236 330 90.6818 330 91.0385V91.4843C330 91.9301 329.822 92.2868 329.554 92.5543C329.287 92.8218 328.93 93.0001 328.484 93.0001C328.038 93.0001 327.682 92.8218 327.414 92.5543C327.147 92.2868 326.968 91.841 326.968 91.4843V91.0385ZM327.414 91.3951C327.414 91.6626 327.503 91.9301 327.682 92.1976C327.86 92.4651 328.128 92.5543 328.395 92.5543C328.663 92.5543 328.93 92.4651 329.108 92.1976C329.287 91.9301 329.376 91.7518 329.376 91.3951V90.9493C329.376 90.5926 329.287 90.3251 329.108 90.1468C328.93 89.9685 328.663 89.7902 328.395 89.7902C328.128 89.7902 327.86 89.8793 327.682 90.1468C327.503 90.4143 327.414 90.5926 327.414 90.9493V91.3951Z" fill="#1F2432"/>
<path d="M65.5362 92.9107H61.1671V92.4649L63.4854 89.8791C63.9312 89.4333 64.1987 88.9875 64.377 88.72C64.5554 88.3633 64.6445 88.0958 64.6445 87.8283C64.6445 87.3825 64.5554 87.0258 64.2879 86.7584C64.0204 86.4909 63.6637 86.4017 63.2179 86.4017C62.6829 86.4017 62.3262 86.58 61.9696 86.8475C61.7021 87.115 61.5238 87.5608 61.5238 88.0067H60.9888C60.9888 87.3825 61.1671 86.9367 61.5238 86.4909C61.8804 86.045 62.4154 85.8667 63.1287 85.8667C63.7529 85.8667 64.1987 86.045 64.5554 86.4017C64.912 86.7583 65.0904 87.2042 65.0904 87.8283C65.0904 88.185 65.0012 88.6308 64.7337 88.9875C64.4662 89.3441 64.1987 89.79 63.7529 90.325L61.7913 92.4649H65.3579V92.9107H65.5362Z" fill="#1F2432"/>
<path d="M71.0647 90.236C71.0647 91.1276 70.8864 91.8409 70.4405 92.2868C70.0839 92.7326 69.5489 93.0001 68.8356 93.0001C68.1223 93.0001 67.5873 92.7326 67.2306 92.2868C66.8739 91.8409 66.6064 91.1276 66.6064 90.236V88.7202C66.6064 87.8285 66.7848 87.1152 67.2306 86.6694C67.6764 86.2236 68.1223 85.9561 68.8356 85.9561C69.5489 85.9561 70.0839 86.2236 70.4405 86.6694C70.7972 87.1152 71.0647 87.8285 71.0647 88.7202V90.236ZM70.4405 88.5418C70.4405 87.8285 70.2622 87.2935 69.9947 86.9369C69.7272 86.5802 69.2814 86.4019 68.7464 86.4019C68.2114 86.4019 67.7656 86.5802 67.4981 86.9369C67.2306 87.2935 67.0523 87.8285 67.0523 88.5418V90.236C67.0523 90.9493 67.2306 91.4843 67.4981 91.8409C67.7656 92.1976 68.2114 92.4651 68.7464 92.4651C69.2814 92.4651 69.6381 92.2868 69.9947 91.8409C70.2622 91.4843 70.4405 90.8601 70.4405 90.1468V88.5418Z" fill="#1F2432"/>
<path d="M130.448 90.6816H131.518V91.1274H130.448V92.9107H129.913V91.1274H126.614V90.7708L129.824 85.8667H130.448V90.6816ZM127.328 90.6816H129.913V86.7584L129.646 87.2933L127.328 90.6816Z" fill="#1F2432"/>
<path d="M136.779 90.236C136.779 91.1276 136.601 91.8409 136.155 92.2868C135.798 92.7326 135.263 93.0001 134.55 93.0001C133.837 93.0001 133.302 92.7326 132.945 92.2868C132.588 91.8409 132.321 91.1276 132.321 90.236V88.7202C132.321 87.8285 132.499 87.1152 132.945 86.6694C133.391 86.2236 133.837 85.9561 134.55 85.9561C135.263 85.9561 135.798 86.2236 136.155 86.6694C136.512 87.1152 136.779 87.8285 136.779 88.7202V90.236ZM136.244 88.5418C136.244 87.8285 136.066 87.2935 135.798 86.9369C135.531 86.5802 135.085 86.4019 134.55 86.4019C134.015 86.4019 133.569 86.5802 133.302 86.9369C133.034 87.2935 132.856 87.8285 132.856 88.5418V90.236C132.856 90.9493 133.034 91.4843 133.302 91.8409C133.569 92.1976 134.015 92.4651 134.55 92.4651C135.085 92.4651 135.442 92.2868 135.798 91.8409C136.066 91.4843 136.244 90.8601 136.244 90.1468V88.5418Z" fill="#1F2432"/>
<path d="M195.45 85.8667C195.717 85.8667 195.896 85.8667 196.163 85.9559C196.431 86.045 196.609 86.045 196.787 86.2234L196.609 86.6692C196.431 86.58 196.252 86.4909 196.074 86.4017C195.896 86.3125 195.717 86.3125 195.45 86.3125C194.915 86.3125 194.469 86.4909 194.202 86.9367C193.845 87.3825 193.667 87.8283 193.667 88.5417V89.1658C193.845 88.8983 194.112 88.72 194.38 88.5417C194.647 88.3633 195.004 88.2742 195.361 88.2742C195.985 88.2742 196.52 88.4525 196.877 88.8983C197.233 89.3441 197.412 89.8791 197.412 90.5925C197.412 91.3058 197.233 91.8408 196.787 92.2866C196.431 92.7324 195.896 92.9999 195.272 92.9999C194.647 92.9999 194.112 92.7324 193.667 92.2866C193.221 91.8408 193.042 91.1274 193.042 90.325V88.5417C193.042 87.7392 193.31 87.115 193.756 86.58C194.202 86.1342 194.737 85.8667 195.45 85.8667ZM195.182 88.8091C194.826 88.8091 194.469 88.8983 194.202 89.0766C193.934 89.255 193.756 89.5225 193.577 89.8791V90.4141C193.577 91.0383 193.756 91.5733 194.023 92.0191C194.291 92.4649 194.737 92.5541 195.182 92.5541C195.628 92.5541 195.985 92.3758 196.342 92.0191C196.609 91.6624 196.787 91.2166 196.787 90.6816C196.787 90.1466 196.609 89.7008 196.342 89.3441C196.074 88.9875 195.717 88.8091 195.182 88.8091Z" fill="#1F2432"/>
<path d="M202.85 90.236C202.85 91.1276 202.672 91.8409 202.226 92.2868C201.87 92.7326 201.335 93.0001 200.621 93.0001C199.908 93.0001 199.373 92.7326 199.016 92.2868C198.66 91.8409 198.392 91.1276 198.392 90.236V88.7202C198.392 87.8285 198.57 87.1152 199.016 86.6694C199.462 86.2236 199.908 85.9561 200.621 85.9561C201.335 85.9561 201.87 86.2236 202.226 86.6694C202.583 87.1152 202.85 87.8285 202.85 88.7202V90.236ZM202.226 88.5418C202.226 87.8285 202.048 87.2935 201.78 86.9369C201.513 86.5802 201.067 86.4019 200.532 86.4019C199.997 86.4019 199.551 86.5802 199.284 86.9369C199.016 87.2935 198.838 87.8285 198.838 88.5418V90.236C198.838 90.9493 199.016 91.4843 199.284 91.8409C199.551 92.1976 199.997 92.4651 200.532 92.4651C201.067 92.4651 201.424 92.2868 201.78 91.8409C202.048 91.4843 202.226 90.8601 202.226 90.1468V88.5418Z" fill="#1F2432"/>
<path d="M262.859 87.7392C262.859 88.0959 262.77 88.4525 262.502 88.72C262.324 88.9875 261.967 89.1659 261.611 89.3442C262.056 89.4334 262.413 89.7008 262.591 89.9683C262.77 90.2358 262.948 90.5925 262.948 91.0383C262.948 91.6625 262.77 92.1083 262.324 92.465C261.878 92.8216 261.343 93 260.719 93C260.006 93 259.471 92.8216 259.114 92.465C258.668 92.1083 258.49 91.6625 258.49 91.0383C258.49 90.5925 258.579 90.2358 258.846 89.9683C259.114 89.7008 259.471 89.4334 259.827 89.3442C259.471 89.255 259.203 88.9875 258.936 88.72C258.757 88.4525 258.579 88.0959 258.579 87.7392C258.579 87.1151 258.757 86.6692 259.114 86.3126C259.471 85.9559 260.006 85.7776 260.63 85.7776C261.254 85.7776 261.7 85.9559 262.146 86.3126C262.681 86.6692 262.859 87.2042 262.859 87.7392ZM262.502 91.1275C262.502 90.6817 262.324 90.325 262.056 90.0575C261.7 89.79 261.343 89.6117 260.897 89.6117C260.451 89.6117 260.006 89.79 259.738 90.0575C259.381 90.325 259.292 90.6817 259.292 91.1275C259.292 91.5733 259.471 91.93 259.738 92.1975C260.006 92.465 260.451 92.5541 260.986 92.5541C261.432 92.5541 261.878 92.465 262.146 92.1975C262.324 91.93 262.502 91.5733 262.502 91.1275ZM262.324 87.7392C262.324 87.2934 262.146 87.0259 261.878 86.7584C261.611 86.4909 261.254 86.4017 260.808 86.4017C260.362 86.4017 260.006 86.4909 259.738 86.7584C259.471 87.0259 259.292 87.3826 259.292 87.7392C259.292 88.185 259.471 88.4525 259.738 88.72C260.006 88.9875 260.362 89.0767 260.808 89.0767C261.254 89.0767 261.611 88.9875 261.878 88.72C262.146 88.5417 262.324 88.185 262.324 87.7392Z" fill="#1F2432"/>
<path d="M268.566 90.2362C268.566 91.1279 268.387 91.8412 267.942 92.287C267.585 92.7328 267.05 93.0003 266.337 93.0003C265.623 93.0003 265.088 92.7328 264.732 92.287C264.375 91.8412 264.107 91.1279 264.107 90.2362V88.7204C264.107 87.8288 264.286 87.1154 264.732 86.6696C265.177 86.2238 265.623 85.9563 266.337 85.9563C267.05 85.9563 267.585 86.2238 267.942 86.6696C268.298 87.1154 268.566 87.8288 268.566 88.7204V90.2362ZM268.031 88.5421C268.031 87.8288 267.852 87.2938 267.585 86.9371C267.317 86.5805 266.872 86.4021 266.337 86.4021C265.802 86.4021 265.356 86.5805 265.088 86.9371C264.821 87.2938 264.642 87.8288 264.642 88.5421V90.2362C264.642 90.9495 264.821 91.4845 265.088 91.8412C265.356 92.1979 265.802 92.4654 266.337 92.4654C266.872 92.4654 267.228 92.287 267.585 91.8412C267.852 91.4845 268.031 90.8604 268.031 90.1471V88.5421Z" fill="#1F2432"/>
<path d="M307.263 92.9999H306.728V86.58L304.945 86.7584V86.3125L307.263 85.8667V92.9999Z" fill="#1F2432"/>
<path d="M314.575 90.236C314.575 91.1276 314.397 91.8409 313.951 92.2868C313.594 92.7326 313.059 93.0001 312.346 93.0001C311.633 93.0001 311.098 92.7326 310.741 92.2868C310.384 91.8409 310.117 91.1276 310.117 90.236V88.7202C310.117 87.8285 310.295 87.1152 310.741 86.6694C311.187 86.2236 311.633 85.9561 312.346 85.9561C313.059 85.9561 313.594 86.2236 313.951 86.6694C314.307 87.1152 314.575 87.8285 314.575 88.7202V90.236ZM313.951 88.5418C313.951 87.8285 313.772 87.2935 313.505 86.9369C313.237 86.5802 312.792 86.4019 312.257 86.4019C311.722 86.4019 311.276 86.5802 311.008 86.9369C310.741 87.2935 310.563 87.8285 310.563 88.5418V90.236C310.563 90.9493 310.741 91.4843 311.008 91.8409C311.276 92.1976 311.722 92.4651 312.257 92.4651C312.792 92.4651 313.148 92.2868 313.505 91.8409C313.772 91.4843 313.951 90.8601 313.951 90.1468V88.5418Z" fill="#1F2432"/>
<path d="M320.281 90.236C320.281 91.1276 320.103 91.8409 319.657 92.2868C319.3 92.7326 318.765 93.0001 318.052 93.0001C317.339 93.0001 316.804 92.7326 316.447 92.2868C316.09 91.8409 315.823 91.1276 315.823 90.236V88.7202C315.823 87.8285 316.001 87.1152 316.447 86.6694C316.893 86.2236 317.339 85.9561 318.052 85.9561C318.765 85.9561 319.3 86.2236 319.657 86.6694C320.014 87.1152 320.281 87.8285 320.281 88.7202V90.236ZM319.746 88.5418C319.746 87.8285 319.568 87.2935 319.3 86.9369C319.033 86.5802 318.587 86.4019 318.052 86.4019C317.517 86.4019 317.071 86.5802 316.804 86.9369C316.536 87.2935 316.358 87.8285 316.358 88.5418V90.236C316.358 90.9493 316.536 91.4843 316.804 91.8409C317.071 92.1976 317.517 92.4651 318.052 92.4651C318.587 92.4651 318.944 92.2868 319.3 91.8409C319.568 91.4843 319.746 90.8601 319.746 90.1468V88.5418Z" fill="#1F2432"/>
<defs>
<clipPath id="clip0">
<rect width="82.9235" height="53.4991" fill="white" transform="translate(98.9731 9.18481)"/>
</clipPath>
<clipPath id="clip1">
<rect width="47.2575" height="59.7406" fill="white" transform="translate(281.762 2.05151)"/>
</clipPath>
</defs>
</svg>
