<svg width="371" height="120" viewBox="0 0 371 120" fill="none" xmlns="http://www.w3.org/2000/svg">
<path d="M314 16H0V86H314V16Z" fill="#00DCE6"/>
<path d="M142.981 52.1092C143.819 52.528 144.455 53.0756 144.89 53.7521C145.341 54.4285 145.567 55.2097 145.567 56.0956C145.567 57.1425 145.269 58.0606 144.673 58.8498C144.076 59.6229 143.239 60.2269 142.159 60.6618C141.08 61.0805 139.832 61.2899 138.414 61.2899C136.996 61.2899 135.748 61.0805 134.668 60.6618C133.605 60.2269 132.775 59.6229 132.179 58.8498C131.599 58.0606 131.31 57.1425 131.31 56.0956C131.31 55.2097 131.527 54.4285 131.962 53.7521C132.413 53.0756 133.049 52.528 133.871 52.1092C133.243 51.7226 132.759 51.2394 132.421 50.6596C132.083 50.0637 131.914 49.3872 131.914 48.6302C131.914 47.6477 132.187 46.794 132.735 46.0692C133.283 45.3444 134.048 44.7888 135.031 44.4022C136.014 43.9996 137.141 43.7982 138.414 43.7982C139.703 43.7982 140.838 43.9996 141.821 44.4022C142.82 44.7888 143.593 45.3444 144.141 46.0692C144.689 46.794 144.963 47.6477 144.963 48.6302C144.963 49.3872 144.793 50.0637 144.455 50.6596C144.117 51.2394 143.625 51.7226 142.981 52.1092ZM138.414 46.6732C137.625 46.6732 136.988 46.8665 136.505 47.2531C136.038 47.6235 135.804 48.1389 135.804 48.7993C135.804 49.4436 136.038 49.9509 136.505 50.3214C136.972 50.6918 137.608 50.877 138.414 50.877C139.219 50.877 139.864 50.6918 140.347 50.3214C140.83 49.9509 141.072 49.4436 141.072 48.7993C141.072 48.1389 140.83 47.6235 140.347 47.2531C139.864 46.8665 139.219 46.6732 138.414 46.6732ZM138.414 58.4149C139.397 58.4149 140.17 58.1975 140.734 57.7626C141.314 57.3116 141.604 56.7157 141.604 55.9748C141.604 55.2339 141.314 54.646 140.734 54.2111C140.17 53.7762 139.397 53.5588 138.414 53.5588C137.447 53.5588 136.682 53.7762 136.118 54.2111C135.554 54.646 135.273 55.2339 135.273 55.9748C135.273 56.7318 135.554 57.3277 136.118 57.7626C136.682 58.1975 137.447 58.4149 138.414 58.4149ZM162.848 57.4485H160.093V61H156.275V57.4485H147.165V54.8151L155.14 44.0881H159.248L151.853 54.2594H156.396V51.0945H160.093V54.2594H162.848V57.4485ZM167.202 53.2205C165.962 53.2205 164.947 52.8018 164.157 51.9642C163.384 51.1106 162.997 49.9751 162.997 48.5577C162.997 47.1403 163.384 46.0129 164.157 45.1753C164.947 44.3217 165.962 43.8949 167.202 43.8949C168.443 43.8949 169.449 44.3217 170.223 45.1753C170.996 46.0129 171.383 47.1403 171.383 48.5577C171.383 49.9751 170.996 51.1106 170.223 51.9642C169.449 52.8018 168.443 53.2205 167.202 53.2205ZM177.279 44.0881H180.154L168.604 61H165.728L177.279 44.0881ZM167.202 51.2394C167.75 51.2394 168.177 51.0139 168.483 50.563C168.805 50.112 168.966 49.4436 168.966 48.5577C168.966 47.6718 168.805 47.0034 168.483 46.5524C168.177 46.1015 167.75 45.876 167.202 45.876C166.67 45.876 166.244 46.1095 165.921 46.5766C165.599 47.0276 165.438 47.6879 165.438 48.5577C165.438 49.4275 165.599 50.0959 165.921 50.563C166.244 51.0139 166.67 51.2394 167.202 51.2394ZM178.68 61.1933C177.875 61.1933 177.15 61.0081 176.505 60.6376C175.877 60.251 175.386 59.7034 175.031 58.9947C174.677 58.286 174.5 57.4646 174.5 56.5304C174.5 55.5963 174.677 54.7748 175.031 54.0661C175.386 53.3574 175.877 52.8179 176.505 52.4474C177.15 52.0609 177.875 51.8676 178.68 51.8676C179.921 51.8676 180.928 52.2944 181.701 53.1481C182.49 53.9856 182.885 55.1131 182.885 56.5304C182.885 57.9478 182.49 59.0833 181.701 59.937C180.928 60.7745 179.921 61.1933 178.68 61.1933ZM178.68 59.2122C179.228 59.2122 179.655 58.9867 179.961 58.5357C180.283 58.0686 180.444 57.4002 180.444 56.5304C180.444 55.6607 180.283 55.0003 179.961 54.5493C179.655 54.0822 179.228 53.8487 178.68 53.8487C178.149 53.8487 177.722 54.0742 177.4 54.5252C177.077 54.9762 176.916 55.6446 176.916 56.5304C176.916 57.4163 177.077 58.0847 177.4 58.5357C177.722 58.9867 178.149 59.2122 178.68 59.2122Z" fill="white"/>
<g clip-path="url(#clip0)">
<path opacity="0.2" d="M111 53.272L111.281 101.49H117.045L116.623 60.8632L153.033 75.0615L153.314 101.49H158.234L158.093 71.4065L111 53.272Z" fill="white"/>
<path opacity="0.2" d="M111.703 52.0068L158.797 70.1413L202.376 44.4157L155.282 26L111.703 52.0068ZM190.145 45.8214L158.094 64.7994L123.793 51.4445L155.844 32.326L190.145 45.8214Z" fill="white"/>
<path opacity="0.2" d="M159.499 71.2657L159.64 101.49H164.56L164.419 74.3584L197.455 54.6776L197.736 101.49H203.5L203.078 45.54L159.499 71.2657Z" fill="white"/>
</g>
<g clip-path="url(#clip1)">
<path d="M316.6 19.2C316.931 19.2 317.2 18.9314 317.2 18.6C317.2 18.2686 316.931 18 316.6 18C316.269 18 316 18.2686 316 18.6C316 18.9314 316.269 19.2 316.6 19.2Z" fill="#009096"/>
<path d="M320.1 19.2C320.431 19.2 320.7 18.9314 320.7 18.6C320.7 18.2686 320.431 18 320.1 18C319.769 18 319.5 18.2686 319.5 18.6C319.5 18.9314 319.769 19.2 320.1 19.2Z" fill="#009096"/>
<path d="M323.6 19.2C323.931 19.2 324.2 18.9314 324.2 18.6C324.2 18.2686 323.931 18 323.6 18C323.269 18 323 18.2686 323 18.6C323 18.9314 323.269 19.2 323.6 19.2Z" fill="#009096"/>
<path d="M327 19.2C327.331 19.2 327.6 18.9314 327.6 18.6C327.6 18.2686 327.331 18 327 18C326.669 18 326.4 18.2686 326.4 18.6C326.4 18.9314 326.669 19.2 327 19.2Z" fill="#009096"/>
<path d="M330.5 19.2C330.831 19.2 331.1 18.9314 331.1 18.6C331.1 18.2686 330.831 18 330.5 18C330.169 18 329.9 18.2686 329.9 18.6C329.9 18.9314 330.169 19.2 330.5 19.2Z" fill="#009096"/>
<path d="M333.9 19.2C334.231 19.2 334.5 18.9314 334.5 18.6C334.5 18.2686 334.231 18 333.9 18C333.568 18 333.3 18.2686 333.3 18.6C333.3 18.9314 333.568 19.2 333.9 19.2Z" fill="#009096"/>
<path d="M337.4 19.2C337.731 19.2 338 18.9314 338 18.6C338 18.2686 337.731 18 337.4 18C337.068 18 336.8 18.2686 336.8 18.6C336.8 18.9314 337.068 19.2 337.4 19.2Z" fill="#009096"/>
<path d="M340.9 19.2C341.231 19.2 341.5 18.9314 341.5 18.6C341.5 18.2686 341.231 18 340.9 18C340.568 18 340.3 18.2686 340.3 18.6C340.3 18.9314 340.568 19.2 340.9 19.2Z" fill="#009096"/>
<path d="M344.3 19.2C344.632 19.2 344.9 18.9314 344.9 18.6C344.9 18.2686 344.632 18 344.3 18C343.969 18 343.7 18.2686 343.7 18.6C343.7 18.9314 343.969 19.2 344.3 19.2Z" fill="#009096"/>
<path d="M347.8 19.2C348.132 19.2 348.4 18.9314 348.4 18.6C348.4 18.2686 348.132 18 347.8 18C347.469 18 347.2 18.2686 347.2 18.6C347.2 18.9314 347.469 19.2 347.8 19.2Z" fill="#009096"/>
<path d="M351.2 19.2C351.531 19.2 351.8 18.9314 351.8 18.6C351.8 18.2686 351.531 18 351.2 18C350.869 18 350.6 18.2686 350.6 18.6C350.6 18.9314 350.869 19.2 351.2 19.2Z" fill="#009096"/>
<path d="M354.7 19.2C355.031 19.2 355.3 18.9314 355.3 18.6C355.3 18.2686 355.031 18 354.7 18C354.369 18 354.1 18.2686 354.1 18.6C354.1 18.9314 354.369 19.2 354.7 19.2Z" fill="#009096"/>
<path d="M358.1 19.2C358.431 19.2 358.7 18.9314 358.7 18.6C358.7 18.2686 358.431 18 358.1 18C357.769 18 357.5 18.2686 357.5 18.6C357.5 18.9314 357.769 19.2 358.1 19.2Z" fill="#009096"/>
<path d="M361.6 19.2C361.931 19.2 362.2 18.9314 362.2 18.6C362.2 18.2686 361.931 18 361.6 18C361.269 18 361 18.2686 361 18.6C361 18.9314 361.269 19.2 361.6 19.2Z" fill="#009096"/>
<path d="M365.1 19.2C365.431 19.2 365.7 18.9314 365.7 18.6C365.7 18.2686 365.431 18 365.1 18C364.769 18 364.5 18.2686 364.5 18.6C364.5 18.9314 364.769 19.2 365.1 19.2Z" fill="#009096"/>
<path d="M368.5 19.2C368.831 19.2 369.1 18.9314 369.1 18.6C369.1 18.2686 368.831 18 368.5 18C368.169 18 367.9 18.2686 367.9 18.6C367.9 18.9314 368.169 19.2 368.5 19.2Z" fill="#009096"/>
<path d="M316.6 22.7C316.931 22.7 317.2 22.4314 317.2 22.1C317.2 21.7686 316.931 21.5 316.6 21.5C316.269 21.5 316 21.7686 316 22.1C316 22.4314 316.269 22.7 316.6 22.7Z" fill="#009096"/>
<path d="M320.1 22.7C320.431 22.7 320.7 22.4314 320.7 22.1C320.7 21.7686 320.431 21.5 320.1 21.5C319.769 21.5 319.5 21.7686 319.5 22.1C319.5 22.4314 319.769 22.7 320.1 22.7Z" fill="#009096"/>
<path d="M323.6 22.7C323.931 22.7 324.2 22.4314 324.2 22.1C324.2 21.7686 323.931 21.5 323.6 21.5C323.269 21.5 323 21.7686 323 22.1C323 22.4314 323.269 22.7 323.6 22.7Z" fill="#009096"/>
<path d="M327 22.7C327.331 22.7 327.6 22.4314 327.6 22.1C327.6 21.7686 327.331 21.5 327 21.5C326.669 21.5 326.4 21.7686 326.4 22.1C326.4 22.4314 326.669 22.7 327 22.7Z" fill="#009096"/>
<path d="M330.5 22.7C330.831 22.7 331.1 22.4314 331.1 22.1C331.1 21.7686 330.831 21.5 330.5 21.5C330.169 21.5 329.9 21.7686 329.9 22.1C329.9 22.4314 330.169 22.7 330.5 22.7Z" fill="#009096"/>
<path d="M333.9 22.7C334.231 22.7 334.5 22.4314 334.5 22.1C334.5 21.7686 334.231 21.5 333.9 21.5C333.568 21.5 333.3 21.7686 333.3 22.1C333.3 22.4314 333.568 22.7 333.9 22.7Z" fill="#009096"/>
<path d="M337.4 22.7C337.731 22.7 338 22.4314 338 22.1C338 21.7686 337.731 21.5 337.4 21.5C337.068 21.5 336.8 21.7686 336.8 22.1C336.8 22.4314 337.068 22.7 337.4 22.7Z" fill="#009096"/>
<path d="M340.9 22.7C341.231 22.7 341.5 22.4314 341.5 22.1C341.5 21.7686 341.231 21.5 340.9 21.5C340.568 21.5 340.3 21.7686 340.3 22.1C340.3 22.4314 340.568 22.7 340.9 22.7Z" fill="#009096"/>
<path d="M344.3 22.7C344.632 22.7 344.9 22.4314 344.9 22.1C344.9 21.7686 344.632 21.5 344.3 21.5C343.969 21.5 343.7 21.7686 343.7 22.1C343.7 22.4314 343.969 22.7 344.3 22.7Z" fill="#009096"/>
<path d="M347.8 22.7C348.132 22.7 348.4 22.4314 348.4 22.1C348.4 21.7686 348.132 21.5 347.8 21.5C347.469 21.5 347.2 21.7686 347.2 22.1C347.2 22.4314 347.469 22.7 347.8 22.7Z" fill="#009096"/>
<path d="M351.2 22.7C351.531 22.7 351.8 22.4314 351.8 22.1C351.8 21.7686 351.531 21.5 351.2 21.5C350.869 21.5 350.6 21.7686 350.6 22.1C350.6 22.4314 350.869 22.7 351.2 22.7Z" fill="#009096"/>
<path d="M354.7 22.7C355.031 22.7 355.3 22.4314 355.3 22.1C355.3 21.7686 355.031 21.5 354.7 21.5C354.369 21.5 354.1 21.7686 354.1 22.1C354.1 22.4314 354.369 22.7 354.7 22.7Z" fill="#009096"/>
<path d="M358.1 22.7C358.431 22.7 358.7 22.4314 358.7 22.1C358.7 21.7686 358.431 21.5 358.1 21.5C357.769 21.5 357.5 21.7686 357.5 22.1C357.5 22.4314 357.769 22.7 358.1 22.7Z" fill="#009096"/>
<path d="M361.6 22.7C361.931 22.7 362.2 22.4314 362.2 22.1C362.2 21.7686 361.931 21.5 361.6 21.5C361.269 21.5 361 21.7686 361 22.1C361 22.4314 361.269 22.7 361.6 22.7Z" fill="#009096"/>
<path d="M365.1 22.7C365.431 22.7 365.7 22.4314 365.7 22.1C365.7 21.7686 365.431 21.5 365.1 21.5C364.769 21.5 364.5 21.7686 364.5 22.1C364.5 22.4314 364.769 22.7 365.1 22.7Z" fill="#009096"/>
<path d="M368.5 22.7C368.831 22.7 369.1 22.4314 369.1 22.1C369.1 21.7686 368.831 21.5 368.5 21.5C368.169 21.5 367.9 21.7686 367.9 22.1C367.9 22.4314 368.169 22.7 368.5 22.7Z" fill="#009096"/>
<path d="M316.6 26.2C316.931 26.2 317.2 25.9314 317.2 25.6C317.2 25.2686 316.931 25 316.6 25C316.269 25 316 25.2686 316 25.6C316 25.9314 316.269 26.2 316.6 26.2Z" fill="#009096"/>
<path d="M320.1 26.2C320.431 26.2 320.7 25.9314 320.7 25.6C320.7 25.2686 320.431 25 320.1 25C319.769 25 319.5 25.2686 319.5 25.6C319.5 25.9314 319.769 26.2 320.1 26.2Z" fill="#009096"/>
<path d="M323.6 26.2C323.931 26.2 324.2 25.9314 324.2 25.6C324.2 25.2686 323.931 25 323.6 25C323.269 25 323 25.2686 323 25.6C323 25.9314 323.269 26.2 323.6 26.2Z" fill="#009096"/>
<path d="M327 26.2C327.331 26.2 327.6 25.9314 327.6 25.6C327.6 25.2686 327.331 25 327 25C326.669 25 326.4 25.2686 326.4 25.6C326.4 25.9314 326.669 26.2 327 26.2Z" fill="#009096"/>
<path d="M330.5 26.2C330.831 26.2 331.1 25.9314 331.1 25.6C331.1 25.2686 330.831 25 330.5 25C330.169 25 329.9 25.2686 329.9 25.6C329.9 25.9314 330.169 26.2 330.5 26.2Z" fill="#009096"/>
<path d="M333.9 26.2C334.231 26.2 334.5 25.9314 334.5 25.6C334.5 25.2686 334.231 25 333.9 25C333.568 25 333.3 25.2686 333.3 25.6C333.3 25.9314 333.568 26.2 333.9 26.2Z" fill="#009096"/>
<path d="M337.4 26.2C337.731 26.2 338 25.9314 338 25.6C338 25.2686 337.731 25 337.4 25C337.068 25 336.8 25.2686 336.8 25.6C336.8 25.9314 337.068 26.2 337.4 26.2Z" fill="#009096"/>
<path d="M340.9 26.2C341.231 26.2 341.5 25.9314 341.5 25.6C341.5 25.2686 341.231 25 340.9 25C340.568 25 340.3 25.2686 340.3 25.6C340.3 25.9314 340.568 26.2 340.9 26.2Z" fill="#009096"/>
<path d="M344.3 26.2C344.632 26.2 344.9 25.9314 344.9 25.6C344.9 25.2686 344.632 25 344.3 25C343.969 25 343.7 25.2686 343.7 25.6C343.7 25.9314 343.969 26.2 344.3 26.2Z" fill="#009096"/>
<path d="M347.8 26.2C348.132 26.2 348.4 25.9314 348.4 25.6C348.4 25.2686 348.132 25 347.8 25C347.469 25 347.2 25.2686 347.2 25.6C347.2 25.9314 347.469 26.2 347.8 26.2Z" fill="#009096"/>
<path d="M351.2 26.2C351.531 26.2 351.8 25.9314 351.8 25.6C351.8 25.2686 351.531 25 351.2 25C350.869 25 350.6 25.2686 350.6 25.6C350.6 25.9314 350.869 26.2 351.2 26.2Z" fill="#009096"/>
<path d="M354.7 26.2C355.031 26.2 355.3 25.9314 355.3 25.6C355.3 25.2686 355.031 25 354.7 25C354.369 25 354.1 25.2686 354.1 25.6C354.1 25.9314 354.369 26.2 354.7 26.2Z" fill="#009096"/>
<path d="M358.1 26.2C358.431 26.2 358.7 25.9314 358.7 25.6C358.7 25.2686 358.431 25 358.1 25C357.769 25 357.5 25.2686 357.5 25.6C357.5 25.9314 357.769 26.2 358.1 26.2Z" fill="#009096"/>
<path d="M361.6 26.2C361.931 26.2 362.2 25.9314 362.2 25.6C362.2 25.2686 361.931 25 361.6 25C361.269 25 361 25.2686 361 25.6C361 25.9314 361.269 26.2 361.6 26.2Z" fill="#009096"/>
<path d="M365.1 26.2C365.431 26.2 365.7 25.9314 365.7 25.6C365.7 25.2686 365.431 25 365.1 25C364.769 25 364.5 25.2686 364.5 25.6C364.5 25.9314 364.769 26.2 365.1 26.2Z" fill="#009096"/>
<path d="M368.5 26.2C368.831 26.2 369.1 25.9314 369.1 25.6C369.1 25.2686 368.831 25 368.5 25C368.169 25 367.9 25.2686 367.9 25.6C367.9 25.9314 368.169 26.2 368.5 26.2Z" fill="#009096"/>
<path d="M316.6 29.5999C316.931 29.5999 317.2 29.3313 317.2 28.9999C317.2 28.6685 316.931 28.3999 316.6 28.3999C316.269 28.3999 316 28.6685 316 28.9999C316 29.3313 316.269 29.5999 316.6 29.5999Z" fill="#009096"/>
<path d="M320.1 29.5999C320.431 29.5999 320.7 29.3313 320.7 28.9999C320.7 28.6685 320.431 28.3999 320.1 28.3999C319.769 28.3999 319.5 28.6685 319.5 28.9999C319.5 29.3313 319.769 29.5999 320.1 29.5999Z" fill="#009096"/>
<path d="M323.6 29.5999C323.931 29.5999 324.2 29.3313 324.2 28.9999C324.2 28.6685 323.931 28.3999 323.6 28.3999C323.269 28.3999 323 28.6685 323 28.9999C323 29.3313 323.269 29.5999 323.6 29.5999Z" fill="#009096"/>
<path d="M327 29.5999C327.331 29.5999 327.6 29.3313 327.6 28.9999C327.6 28.6685 327.331 28.3999 327 28.3999C326.669 28.3999 326.4 28.6685 326.4 28.9999C326.4 29.3313 326.669 29.5999 327 29.5999Z" fill="#009096"/>
<path d="M330.5 29.5999C330.831 29.5999 331.1 29.3313 331.1 28.9999C331.1 28.6685 330.831 28.3999 330.5 28.3999C330.169 28.3999 329.9 28.6685 329.9 28.9999C329.9 29.3313 330.169 29.5999 330.5 29.5999Z" fill="#009096"/>
<path d="M333.9 29.5999C334.231 29.5999 334.5 29.3313 334.5 28.9999C334.5 28.6685 334.231 28.3999 333.9 28.3999C333.568 28.3999 333.3 28.6685 333.3 28.9999C333.3 29.3313 333.568 29.5999 333.9 29.5999Z" fill="#009096"/>
<path d="M337.4 29.5999C337.731 29.5999 338 29.3313 338 28.9999C338 28.6685 337.731 28.3999 337.4 28.3999C337.068 28.3999 336.8 28.6685 336.8 28.9999C336.8 29.3313 337.068 29.5999 337.4 29.5999Z" fill="#009096"/>
<path d="M340.9 29.5999C341.231 29.5999 341.5 29.3313 341.5 28.9999C341.5 28.6685 341.231 28.3999 340.9 28.3999C340.568 28.3999 340.3 28.6685 340.3 28.9999C340.3 29.3313 340.568 29.5999 340.9 29.5999Z" fill="#009096"/>
<path d="M344.3 29.5999C344.632 29.5999 344.9 29.3313 344.9 28.9999C344.9 28.6685 344.632 28.3999 344.3 28.3999C343.969 28.3999 343.7 28.6685 343.7 28.9999C343.7 29.3313 343.969 29.5999 344.3 29.5999Z" fill="#009096"/>
<path d="M347.8 29.5999C348.132 29.5999 348.4 29.3313 348.4 28.9999C348.4 28.6685 348.132 28.3999 347.8 28.3999C347.469 28.3999 347.2 28.6685 347.2 28.9999C347.2 29.3313 347.469 29.5999 347.8 29.5999Z" fill="#009096"/>
<path d="M351.2 29.5999C351.531 29.5999 351.8 29.3313 351.8 28.9999C351.8 28.6685 351.531 28.3999 351.2 28.3999C350.869 28.3999 350.6 28.6685 350.6 28.9999C350.6 29.3313 350.869 29.5999 351.2 29.5999Z" fill="#009096"/>
<path d="M354.7 29.5999C355.031 29.5999 355.3 29.3313 355.3 28.9999C355.3 28.6685 355.031 28.3999 354.7 28.3999C354.369 28.3999 354.1 28.6685 354.1 28.9999C354.1 29.3313 354.369 29.5999 354.7 29.5999Z" fill="#009096"/>
<path d="M358.1 29.5999C358.431 29.5999 358.7 29.3313 358.7 28.9999C358.7 28.6685 358.431 28.3999 358.1 28.3999C357.769 28.3999 357.5 28.6685 357.5 28.9999C357.5 29.3313 357.769 29.5999 358.1 29.5999Z" fill="#009096"/>
<path d="M361.6 29.5999C361.931 29.5999 362.2 29.3313 362.2 28.9999C362.2 28.6685 361.931 28.3999 361.6 28.3999C361.269 28.3999 361 28.6685 361 28.9999C361 29.3313 361.269 29.5999 361.6 29.5999Z" fill="#009096"/>
<path d="M365.1 29.5999C365.431 29.5999 365.7 29.3313 365.7 28.9999C365.7 28.6685 365.431 28.3999 365.1 28.3999C364.769 28.3999 364.5 28.6685 364.5 28.9999C364.5 29.3313 364.769 29.5999 365.1 29.5999Z" fill="#009096"/>
<path d="M368.5 29.5999C368.831 29.5999 369.1 29.3313 369.1 28.9999C369.1 28.6685 368.831 28.3999 368.5 28.3999C368.169 28.3999 367.9 28.6685 367.9 28.9999C367.9 29.3313 368.169 29.5999 368.5 29.5999Z" fill="#009096"/>
<path d="M316.6 33.0999C316.931 33.0999 317.2 32.8313 317.2 32.4999C317.2 32.1685 316.931 31.8999 316.6 31.8999C316.269 31.8999 316 32.1685 316 32.4999C316 32.8313 316.269 33.0999 316.6 33.0999Z" fill="#009096"/>
<path d="M320.1 33.0999C320.431 33.0999 320.7 32.8313 320.7 32.4999C320.7 32.1685 320.431 31.8999 320.1 31.8999C319.769 31.8999 319.5 32.1685 319.5 32.4999C319.5 32.8313 319.769 33.0999 320.1 33.0999Z" fill="#009096"/>
<path d="M323.6 33.0999C323.931 33.0999 324.2 32.8313 324.2 32.4999C324.2 32.1685 323.931 31.8999 323.6 31.8999C323.269 31.8999 323 32.1685 323 32.4999C323 32.8313 323.269 33.0999 323.6 33.0999Z" fill="#009096"/>
<path d="M327 33.0999C327.331 33.0999 327.6 32.8313 327.6 32.4999C327.6 32.1685 327.331 31.8999 327 31.8999C326.669 31.8999 326.4 32.1685 326.4 32.4999C326.4 32.8313 326.669 33.0999 327 33.0999Z" fill="#009096"/>
<path d="M330.5 33.0999C330.831 33.0999 331.1 32.8313 331.1 32.4999C331.1 32.1685 330.831 31.8999 330.5 31.8999C330.169 31.8999 329.9 32.1685 329.9 32.4999C329.9 32.8313 330.169 33.0999 330.5 33.0999Z" fill="#009096"/>
<path d="M333.9 33.0999C334.231 33.0999 334.5 32.8313 334.5 32.4999C334.5 32.1685 334.231 31.8999 333.9 31.8999C333.568 31.8999 333.3 32.1685 333.3 32.4999C333.3 32.8313 333.568 33.0999 333.9 33.0999Z" fill="#009096"/>
<path d="M337.4 33.0999C337.731 33.0999 338 32.8313 338 32.4999C338 32.1685 337.731 31.8999 337.4 31.8999C337.068 31.8999 336.8 32.1685 336.8 32.4999C336.8 32.8313 337.068 33.0999 337.4 33.0999Z" fill="#009096"/>
<path d="M340.9 33.0999C341.231 33.0999 341.5 32.8313 341.5 32.4999C341.5 32.1685 341.231 31.8999 340.9 31.8999C340.568 31.8999 340.3 32.1685 340.3 32.4999C340.3 32.8313 340.568 33.0999 340.9 33.0999Z" fill="#009096"/>
<path d="M344.3 33.0999C344.632 33.0999 344.9 32.8313 344.9 32.4999C344.9 32.1685 344.632 31.8999 344.3 31.8999C343.969 31.8999 343.7 32.1685 343.7 32.4999C343.7 32.8313 343.969 33.0999 344.3 33.0999Z" fill="#009096"/>
<path d="M347.8 33.0999C348.132 33.0999 348.4 32.8313 348.4 32.4999C348.4 32.1685 348.132 31.8999 347.8 31.8999C347.469 31.8999 347.2 32.1685 347.2 32.4999C347.2 32.8313 347.469 33.0999 347.8 33.0999Z" fill="#009096"/>
<path d="M351.2 33.0999C351.531 33.0999 351.8 32.8313 351.8 32.4999C351.8 32.1685 351.531 31.8999 351.2 31.8999C350.869 31.8999 350.6 32.1685 350.6 32.4999C350.6 32.8313 350.869 33.0999 351.2 33.0999Z" fill="#009096"/>
<path d="M354.7 33.0999C355.031 33.0999 355.3 32.8313 355.3 32.4999C355.3 32.1685 355.031 31.8999 354.7 31.8999C354.369 31.8999 354.1 32.1685 354.1 32.4999C354.1 32.8313 354.369 33.0999 354.7 33.0999Z" fill="#009096"/>
<path d="M358.1 33.0999C358.431 33.0999 358.7 32.8313 358.7 32.4999C358.7 32.1685 358.431 31.8999 358.1 31.8999C357.769 31.8999 357.5 32.1685 357.5 32.4999C357.5 32.8313 357.769 33.0999 358.1 33.0999Z" fill="#009096"/>
<path d="M361.6 33.0999C361.931 33.0999 362.2 32.8313 362.2 32.4999C362.2 32.1685 361.931 31.8999 361.6 31.8999C361.269 31.8999 361 32.1685 361 32.4999C361 32.8313 361.269 33.0999 361.6 33.0999Z" fill="#009096"/>
<path d="M365.1 33.0999C365.431 33.0999 365.7 32.8313 365.7 32.4999C365.7 32.1685 365.431 31.8999 365.1 31.8999C364.769 31.8999 364.5 32.1685 364.5 32.4999C364.5 32.8313 364.769 33.0999 365.1 33.0999Z" fill="#009096"/>
<path d="M368.5 33.0999C368.831 33.0999 369.1 32.8313 369.1 32.4999C369.1 32.1685 368.831 31.8999 368.5 31.8999C368.169 31.8999 367.9 32.1685 367.9 32.4999C367.9 32.8313 368.169 33.0999 368.5 33.0999Z" fill="#009096"/>
<path d="M316.6 36.5C316.931 36.5 317.2 36.2314 317.2 35.9001C317.2 35.5687 316.931 35.3 316.6 35.3C316.269 35.3 316 35.5687 316 35.9001C316 36.2314 316.269 36.5 316.6 36.5Z" fill="#009096"/>
<path d="M320.1 36.5C320.431 36.5 320.7 36.2314 320.7 35.9001C320.7 35.5687 320.431 35.3 320.1 35.3C319.769 35.3 319.5 35.5687 319.5 35.9001C319.5 36.2314 319.769 36.5 320.1 36.5Z" fill="#009096"/>
<path d="M323.6 36.5C323.931 36.5 324.2 36.2314 324.2 35.9001C324.2 35.5687 323.931 35.3 323.6 35.3C323.269 35.3 323 35.5687 323 35.9001C323 36.2314 323.269 36.5 323.6 36.5Z" fill="#009096"/>
<path d="M327 36.5C327.331 36.5 327.6 36.2314 327.6 35.9001C327.6 35.5687 327.331 35.3 327 35.3C326.669 35.3 326.4 35.5687 326.4 35.9001C326.4 36.2314 326.669 36.5 327 36.5Z" fill="#009096"/>
<path d="M330.5 36.5C330.831 36.5 331.1 36.2314 331.1 35.9001C331.1 35.5687 330.831 35.3 330.5 35.3C330.169 35.3 329.9 35.5687 329.9 35.9001C329.9 36.2314 330.169 36.5 330.5 36.5Z" fill="#009096"/>
<path d="M333.9 36.5C334.231 36.5 334.5 36.2314 334.5 35.9001C334.5 35.5687 334.231 35.3 333.9 35.3C333.568 35.3 333.3 35.5687 333.3 35.9001C333.3 36.2314 333.568 36.5 333.9 36.5Z" fill="#009096"/>
<path d="M337.4 36.5C337.731 36.5 338 36.2314 338 35.9001C338 35.5687 337.731 35.3 337.4 35.3C337.068 35.3 336.8 35.5687 336.8 35.9001C336.8 36.2314 337.068 36.5 337.4 36.5Z" fill="#009096"/>
<path d="M340.9 36.5C341.231 36.5 341.5 36.2314 341.5 35.9001C341.5 35.5687 341.231 35.3 340.9 35.3C340.568 35.3 340.3 35.5687 340.3 35.9001C340.3 36.2314 340.568 36.5 340.9 36.5Z" fill="#009096"/>
<path d="M344.3 36.5C344.632 36.5 344.9 36.2314 344.9 35.9001C344.9 35.5687 344.632 35.3 344.3 35.3C343.969 35.3 343.7 35.5687 343.7 35.9001C343.7 36.2314 343.969 36.5 344.3 36.5Z" fill="#009096"/>
<path d="M347.8 36.5C348.132 36.5 348.4 36.2314 348.4 35.9001C348.4 35.5687 348.132 35.3 347.8 35.3C347.469 35.3 347.2 35.5687 347.2 35.9001C347.2 36.2314 347.469 36.5 347.8 36.5Z" fill="#009096"/>
<path d="M351.2 36.5C351.531 36.5 351.8 36.2314 351.8 35.9001C351.8 35.5687 351.531 35.3 351.2 35.3C350.869 35.3 350.6 35.5687 350.6 35.9001C350.6 36.2314 350.869 36.5 351.2 36.5Z" fill="#009096"/>
<path d="M354.7 36.5C355.031 36.5 355.3 36.2314 355.3 35.9001C355.3 35.5687 355.031 35.3 354.7 35.3C354.369 35.3 354.1 35.5687 354.1 35.9001C354.1 36.2314 354.369 36.5 354.7 36.5Z" fill="#009096"/>
<path d="M358.1 36.5C358.431 36.5 358.7 36.2314 358.7 35.9001C358.7 35.5687 358.431 35.3 358.1 35.3C357.769 35.3 357.5 35.5687 357.5 35.9001C357.5 36.2314 357.769 36.5 358.1 36.5Z" fill="#009096"/>
<path d="M361.6 36.5C361.931 36.5 362.2 36.2314 362.2 35.9001C362.2 35.5687 361.931 35.3 361.6 35.3C361.269 35.3 361 35.5687 361 35.9001C361 36.2314 361.269 36.5 361.6 36.5Z" fill="#009096"/>
<path d="M365.1 36.5C365.431 36.5 365.7 36.2314 365.7 35.9001C365.7 35.5687 365.431 35.3 365.1 35.3C364.769 35.3 364.5 35.5687 364.5 35.9001C364.5 36.2314 364.769 36.5 365.1 36.5Z" fill="#009096"/>
<path d="M368.5 36.5C368.831 36.5 369.1 36.2314 369.1 35.9001C369.1 35.5687 368.831 35.3 368.5 35.3C368.169 35.3 367.9 35.5687 367.9 35.9001C367.9 36.2314 368.169 36.5 368.5 36.5Z" fill="#009096"/>
<path d="M316.6 40C316.931 40 317.2 39.7314 317.2 39.4001C317.2 39.0687 316.931 38.8 316.6 38.8C316.269 38.8 316 39.0687 316 39.4001C316 39.7314 316.269 40 316.6 40Z" fill="#009096"/>
<path d="M320.1 40C320.431 40 320.7 39.7314 320.7 39.4001C320.7 39.0687 320.431 38.8 320.1 38.8C319.769 38.8 319.5 39.0687 319.5 39.4001C319.5 39.7314 319.769 40 320.1 40Z" fill="#009096"/>
<path d="M323.6 40C323.931 40 324.2 39.7314 324.2 39.4001C324.2 39.0687 323.931 38.8 323.6 38.8C323.269 38.8 323 39.0687 323 39.4001C323 39.7314 323.269 40 323.6 40Z" fill="#009096"/>
<path d="M327 40C327.331 40 327.6 39.7314 327.6 39.4001C327.6 39.0687 327.331 38.8 327 38.8C326.669 38.8 326.4 39.0687 326.4 39.4001C326.4 39.7314 326.669 40 327 40Z" fill="#009096"/>
<path d="M330.5 40C330.831 40 331.1 39.7314 331.1 39.4001C331.1 39.0687 330.831 38.8 330.5 38.8C330.169 38.8 329.9 39.0687 329.9 39.4001C329.9 39.7314 330.169 40 330.5 40Z" fill="#009096"/>
<path d="M333.9 40C334.231 40 334.5 39.7314 334.5 39.4001C334.5 39.0687 334.231 38.8 333.9 38.8C333.568 38.8 333.3 39.0687 333.3 39.4001C333.3 39.7314 333.568 40 333.9 40Z" fill="#009096"/>
<path d="M337.4 40C337.731 40 338 39.7314 338 39.4001C338 39.0687 337.731 38.8 337.4 38.8C337.068 38.8 336.8 39.0687 336.8 39.4001C336.8 39.7314 337.068 40 337.4 40Z" fill="#009096"/>
<path d="M340.9 40C341.231 40 341.5 39.7314 341.5 39.4001C341.5 39.0687 341.231 38.8 340.9 38.8C340.568 38.8 340.3 39.0687 340.3 39.4001C340.3 39.7314 340.568 40 340.9 40Z" fill="#009096"/>
<path d="M344.3 40C344.632 40 344.9 39.7314 344.9 39.4001C344.9 39.0687 344.632 38.8 344.3 38.8C343.969 38.8 343.7 39.0687 343.7 39.4001C343.7 39.7314 343.969 40 344.3 40Z" fill="#009096"/>
<path d="M347.8 40C348.132 40 348.4 39.7314 348.4 39.4001C348.4 39.0687 348.132 38.8 347.8 38.8C347.469 38.8 347.2 39.0687 347.2 39.4001C347.2 39.7314 347.469 40 347.8 40Z" fill="#009096"/>
<path d="M351.2 40C351.531 40 351.8 39.7314 351.8 39.4001C351.8 39.0687 351.531 38.8 351.2 38.8C350.869 38.8 350.6 39.0687 350.6 39.4001C350.6 39.7314 350.869 40 351.2 40Z" fill="#009096"/>
<path d="M354.7 40C355.031 40 355.3 39.7314 355.3 39.4001C355.3 39.0687 355.031 38.8 354.7 38.8C354.369 38.8 354.1 39.0687 354.1 39.4001C354.1 39.7314 354.369 40 354.7 40Z" fill="#009096"/>
<path d="M358.1 40C358.431 40 358.7 39.7314 358.7 39.4001C358.7 39.0687 358.431 38.8 358.1 38.8C357.769 38.8 357.5 39.0687 357.5 39.4001C357.5 39.7314 357.769 40 358.1 40Z" fill="#009096"/>
<path d="M361.6 40C361.931 40 362.2 39.7314 362.2 39.4001C362.2 39.0687 361.931 38.8 361.6 38.8C361.269 38.8 361 39.0687 361 39.4001C361 39.7314 361.269 40 361.6 40Z" fill="#009096"/>
<path d="M365.1 40C365.431 40 365.7 39.7314 365.7 39.4001C365.7 39.0687 365.431 38.8 365.1 38.8C364.769 38.8 364.5 39.0687 364.5 39.4001C364.5 39.7314 364.769 40 365.1 40Z" fill="#009096"/>
<path d="M368.5 40C368.831 40 369.1 39.7314 369.1 39.4001C369.1 39.0687 368.831 38.8 368.5 38.8C368.169 38.8 367.9 39.0687 367.9 39.4001C367.9 39.7314 368.169 40 368.5 40Z" fill="#009096"/>
<path d="M316.6 43.5C316.931 43.5 317.2 43.2314 317.2 42.9001C317.2 42.5687 316.931 42.3 316.6 42.3C316.269 42.3 316 42.5687 316 42.9001C316 43.2314 316.269 43.5 316.6 43.5Z" fill="#009096"/>
<path d="M320.1 43.5C320.431 43.5 320.7 43.2314 320.7 42.9001C320.7 42.5687 320.431 42.3 320.1 42.3C319.769 42.3 319.5 42.5687 319.5 42.9001C319.5 43.2314 319.769 43.5 320.1 43.5Z" fill="#009096"/>
<path d="M323.6 43.5C323.931 43.5 324.2 43.2314 324.2 42.9001C324.2 42.5687 323.931 42.3 323.6 42.3C323.269 42.3 323 42.5687 323 42.9001C323 43.2314 323.269 43.5 323.6 43.5Z" fill="#009096"/>
<path d="M327 43.5C327.331 43.5 327.6 43.2314 327.6 42.9001C327.6 42.5687 327.331 42.3 327 42.3C326.669 42.3 326.4 42.5687 326.4 42.9001C326.4 43.2314 326.669 43.5 327 43.5Z" fill="#009096"/>
<path d="M330.5 43.5C330.831 43.5 331.1 43.2314 331.1 42.9001C331.1 42.5687 330.831 42.3 330.5 42.3C330.169 42.3 329.9 42.5687 329.9 42.9001C329.9 43.2314 330.169 43.5 330.5 43.5Z" fill="#009096"/>
<path d="M333.9 43.5C334.231 43.5 334.5 43.2314 334.5 42.9001C334.5 42.5687 334.231 42.3 333.9 42.3C333.568 42.3 333.3 42.5687 333.3 42.9001C333.3 43.2314 333.568 43.5 333.9 43.5Z" fill="#009096"/>
<path d="M337.4 43.5C337.731 43.5 338 43.2314 338 42.9001C338 42.5687 337.731 42.3 337.4 42.3C337.068 42.3 336.8 42.5687 336.8 42.9001C336.8 43.2314 337.068 43.5 337.4 43.5Z" fill="#009096"/>
<path d="M340.9 43.5C341.231 43.5 341.5 43.2314 341.5 42.9001C341.5 42.5687 341.231 42.3 340.9 42.3C340.568 42.3 340.3 42.5687 340.3 42.9001C340.3 43.2314 340.568 43.5 340.9 43.5Z" fill="#009096"/>
<path d="M344.3 43.5C344.632 43.5 344.9 43.2314 344.9 42.9001C344.9 42.5687 344.632 42.3 344.3 42.3C343.969 42.3 343.7 42.5687 343.7 42.9001C343.7 43.2314 343.969 43.5 344.3 43.5Z" fill="#009096"/>
<path d="M347.8 43.5C348.132 43.5 348.4 43.2314 348.4 42.9001C348.4 42.5687 348.132 42.3 347.8 42.3C347.469 42.3 347.2 42.5687 347.2 42.9001C347.2 43.2314 347.469 43.5 347.8 43.5Z" fill="#009096"/>
<path d="M351.2 43.5C351.531 43.5 351.8 43.2314 351.8 42.9001C351.8 42.5687 351.531 42.3 351.2 42.3C350.869 42.3 350.6 42.5687 350.6 42.9001C350.6 43.2314 350.869 43.5 351.2 43.5Z" fill="#009096"/>
<path d="M354.7 43.5C355.031 43.5 355.3 43.2314 355.3 42.9001C355.3 42.5687 355.031 42.3 354.7 42.3C354.369 42.3 354.1 42.5687 354.1 42.9001C354.1 43.2314 354.369 43.5 354.7 43.5Z" fill="#009096"/>
<path d="M358.1 43.5C358.431 43.5 358.7 43.2314 358.7 42.9001C358.7 42.5687 358.431 42.3 358.1 42.3C357.769 42.3 357.5 42.5687 357.5 42.9001C357.5 43.2314 357.769 43.5 358.1 43.5Z" fill="#009096"/>
<path d="M361.6 43.5C361.931 43.5 362.2 43.2314 362.2 42.9001C362.2 42.5687 361.931 42.3 361.6 42.3C361.269 42.3 361 42.5687 361 42.9001C361 43.2314 361.269 43.5 361.6 43.5Z" fill="#009096"/>
<path d="M365.1 43.5C365.431 43.5 365.7 43.2314 365.7 42.9001C365.7 42.5687 365.431 42.3 365.1 42.3C364.769 42.3 364.5 42.5687 364.5 42.9001C364.5 43.2314 364.769 43.5 365.1 43.5Z" fill="#009096"/>
<path d="M368.5 43.5C368.831 43.5 369.1 43.2314 369.1 42.9001C369.1 42.5687 368.831 42.3 368.5 42.3C368.169 42.3 367.9 42.5687 367.9 42.9001C367.9 43.2314 368.169 43.5 368.5 43.5Z" fill="#009096"/>
<path d="M316.6 46.9C316.931 46.9 317.2 46.6313 317.2 46.2999C317.2 45.9686 316.931 45.7 316.6 45.7C316.269 45.7 316 45.9686 316 46.2999C316 46.6313 316.269 46.9 316.6 46.9Z" fill="#009096"/>
<path d="M320.1 46.9C320.431 46.9 320.7 46.6313 320.7 46.2999C320.7 45.9686 320.431 45.7 320.1 45.7C319.769 45.7 319.5 45.9686 319.5 46.2999C319.5 46.6313 319.769 46.9 320.1 46.9Z" fill="#009096"/>
<path d="M323.6 46.9C323.931 46.9 324.2 46.6313 324.2 46.2999C324.2 45.9686 323.931 45.7 323.6 45.7C323.269 45.7 323 45.9686 323 46.2999C323 46.6313 323.269 46.9 323.6 46.9Z" fill="#009096"/>
<path d="M327 46.9C327.331 46.9 327.6 46.6313 327.6 46.2999C327.6 45.9686 327.331 45.7 327 45.7C326.669 45.7 326.4 45.9686 326.4 46.2999C326.4 46.6313 326.669 46.9 327 46.9Z" fill="#009096"/>
<path d="M330.5 46.9C330.831 46.9 331.1 46.6313 331.1 46.2999C331.1 45.9686 330.831 45.7 330.5 45.7C330.169 45.7 329.9 45.9686 329.9 46.2999C329.9 46.6313 330.169 46.9 330.5 46.9Z" fill="#009096"/>
<path d="M333.9 46.9C334.231 46.9 334.5 46.6313 334.5 46.2999C334.5 45.9686 334.231 45.7 333.9 45.7C333.568 45.7 333.3 45.9686 333.3 46.2999C333.3 46.6313 333.568 46.9 333.9 46.9Z" fill="#009096"/>
<path d="M337.4 46.9C337.731 46.9 338 46.6313 338 46.2999C338 45.9686 337.731 45.7 337.4 45.7C337.068 45.7 336.8 45.9686 336.8 46.2999C336.8 46.6313 337.068 46.9 337.4 46.9Z" fill="#009096"/>
<path d="M340.9 46.9C341.231 46.9 341.5 46.6313 341.5 46.2999C341.5 45.9686 341.231 45.7 340.9 45.7C340.568 45.7 340.3 45.9686 340.3 46.2999C340.3 46.6313 340.568 46.9 340.9 46.9Z" fill="#009096"/>
<path d="M344.3 46.9C344.632 46.9 344.9 46.6313 344.9 46.2999C344.9 45.9686 344.632 45.7 344.3 45.7C343.969 45.7 343.7 45.9686 343.7 46.2999C343.7 46.6313 343.969 46.9 344.3 46.9Z" fill="#009096"/>
<path d="M347.8 46.9C348.132 46.9 348.4 46.6313 348.4 46.2999C348.4 45.9686 348.132 45.7 347.8 45.7C347.469 45.7 347.2 45.9686 347.2 46.2999C347.2 46.6313 347.469 46.9 347.8 46.9Z" fill="#009096"/>
<path d="M351.2 46.9C351.531 46.9 351.8 46.6313 351.8 46.2999C351.8 45.9686 351.531 45.7 351.2 45.7C350.869 45.7 350.6 45.9686 350.6 46.2999C350.6 46.6313 350.869 46.9 351.2 46.9Z" fill="#009096"/>
<path d="M354.7 46.9C355.031 46.9 355.3 46.6313 355.3 46.2999C355.3 45.9686 355.031 45.7 354.7 45.7C354.369 45.7 354.1 45.9686 354.1 46.2999C354.1 46.6313 354.369 46.9 354.7 46.9Z" fill="#009096"/>
<path d="M358.1 46.9C358.431 46.9 358.7 46.6313 358.7 46.2999C358.7 45.9686 358.431 45.7 358.1 45.7C357.769 45.7 357.5 45.9686 357.5 46.2999C357.5 46.6313 357.769 46.9 358.1 46.9Z" fill="#009096"/>
<path d="M361.6 46.9C361.931 46.9 362.2 46.6313 362.2 46.2999C362.2 45.9686 361.931 45.7 361.6 45.7C361.269 45.7 361 45.9686 361 46.2999C361 46.6313 361.269 46.9 361.6 46.9Z" fill="#009096"/>
<path d="M365.1 46.9C365.431 46.9 365.7 46.6313 365.7 46.2999C365.7 45.9686 365.431 45.7 365.1 45.7C364.769 45.7 364.5 45.9686 364.5 46.2999C364.5 46.6313 364.769 46.9 365.1 46.9Z" fill="#009096"/>
<path d="M368.5 46.9C368.831 46.9 369.1 46.6313 369.1 46.2999C369.1 45.9686 368.831 45.7 368.5 45.7C368.169 45.7 367.9 45.9686 367.9 46.2999C367.9 46.6313 368.169 46.9 368.5 46.9Z" fill="#009096"/>
<path d="M316.6 50.4C316.931 50.4 317.2 50.1313 317.2 49.7999C317.2 49.4686 316.931 49.2 316.6 49.2C316.269 49.2 316 49.4686 316 49.7999C316 50.1313 316.269 50.4 316.6 50.4Z" fill="#009096"/>
<path d="M320.1 50.4C320.431 50.4 320.7 50.1313 320.7 49.7999C320.7 49.4686 320.431 49.2 320.1 49.2C319.769 49.2 319.5 49.4686 319.5 49.7999C319.5 50.1313 319.769 50.4 320.1 50.4Z" fill="#009096"/>
<path d="M323.6 50.4C323.931 50.4 324.2 50.1313 324.2 49.7999C324.2 49.4686 323.931 49.2 323.6 49.2C323.269 49.2 323 49.4686 323 49.7999C323 50.1313 323.269 50.4 323.6 50.4Z" fill="#009096"/>
<path d="M327 50.4C327.331 50.4 327.6 50.1313 327.6 49.7999C327.6 49.4686 327.331 49.2 327 49.2C326.669 49.2 326.4 49.4686 326.4 49.7999C326.4 50.1313 326.669 50.4 327 50.4Z" fill="#009096"/>
<path d="M330.5 50.4C330.831 50.4 331.1 50.1313 331.1 49.7999C331.1 49.4686 330.831 49.2 330.5 49.2C330.169 49.2 329.9 49.4686 329.9 49.7999C329.9 50.1313 330.169 50.4 330.5 50.4Z" fill="#009096"/>
<path d="M333.9 50.4C334.231 50.4 334.5 50.1313 334.5 49.7999C334.5 49.4686 334.231 49.2 333.9 49.2C333.568 49.2 333.3 49.4686 333.3 49.7999C333.3 50.1313 333.568 50.4 333.9 50.4Z" fill="#009096"/>
<path d="M337.4 50.4C337.731 50.4 338 50.1313 338 49.7999C338 49.4686 337.731 49.2 337.4 49.2C337.068 49.2 336.8 49.4686 336.8 49.7999C336.8 50.1313 337.068 50.4 337.4 50.4Z" fill="#009096"/>
<path d="M340.9 50.4C341.231 50.4 341.5 50.1313 341.5 49.7999C341.5 49.4686 341.231 49.2 340.9 49.2C340.568 49.2 340.3 49.4686 340.3 49.7999C340.3 50.1313 340.568 50.4 340.9 50.4Z" fill="#009096"/>
<path d="M344.3 50.4C344.632 50.4 344.9 50.1313 344.9 49.7999C344.9 49.4686 344.632 49.2 344.3 49.2C343.969 49.2 343.7 49.4686 343.7 49.7999C343.7 50.1313 343.969 50.4 344.3 50.4Z" fill="#009096"/>
<path d="M347.8 50.4C348.132 50.4 348.4 50.1313 348.4 49.7999C348.4 49.4686 348.132 49.2 347.8 49.2C347.469 49.2 347.2 49.4686 347.2 49.7999C347.2 50.1313 347.469 50.4 347.8 50.4Z" fill="#009096"/>
<path d="M351.2 50.4C351.531 50.4 351.8 50.1313 351.8 49.7999C351.8 49.4686 351.531 49.2 351.2 49.2C350.869 49.2 350.6 49.4686 350.6 49.7999C350.6 50.1313 350.869 50.4 351.2 50.4Z" fill="#009096"/>
<path d="M354.7 50.4C355.031 50.4 355.3 50.1313 355.3 49.7999C355.3 49.4686 355.031 49.2 354.7 49.2C354.369 49.2 354.1 49.4686 354.1 49.7999C354.1 50.1313 354.369 50.4 354.7 50.4Z" fill="#009096"/>
<path d="M358.1 50.4C358.431 50.4 358.7 50.1313 358.7 49.7999C358.7 49.4686 358.431 49.2 358.1 49.2C357.769 49.2 357.5 49.4686 357.5 49.7999C357.5 50.1313 357.769 50.4 358.1 50.4Z" fill="#009096"/>
<path d="M361.6 50.4C361.931 50.4 362.2 50.1313 362.2 49.7999C362.2 49.4686 361.931 49.2 361.6 49.2C361.269 49.2 361 49.4686 361 49.7999C361 50.1313 361.269 50.4 361.6 50.4Z" fill="#009096"/>
<path d="M365.1 50.4C365.431 50.4 365.7 50.1313 365.7 49.7999C365.7 49.4686 365.431 49.2 365.1 49.2C364.769 49.2 364.5 49.4686 364.5 49.7999C364.5 50.1313 364.769 50.4 365.1 50.4Z" fill="#009096"/>
<path d="M368.5 50.4C368.831 50.4 369.1 50.1313 369.1 49.7999C369.1 49.4686 368.831 49.2 368.5 49.2C368.169 49.2 367.9 49.4686 367.9 49.7999C367.9 50.1313 368.169 50.4 368.5 50.4Z" fill="#009096"/>
<path d="M316.6 53.8001C316.931 53.8001 317.2 53.5315 317.2 53.2001C317.2 52.8687 316.931 52.6001 316.6 52.6001C316.269 52.6001 316 52.8687 316 53.2001C316 53.5315 316.269 53.8001 316.6 53.8001Z" fill="#009096"/>
<path d="M320.1 53.8001C320.431 53.8001 320.7 53.5315 320.7 53.2001C320.7 52.8687 320.431 52.6001 320.1 52.6001C319.769 52.6001 319.5 52.8687 319.5 53.2001C319.5 53.5315 319.769 53.8001 320.1 53.8001Z" fill="#009096"/>
<path d="M327 53.8001C327.331 53.8001 327.6 53.5315 327.6 53.2001C327.6 52.8687 327.331 52.6001 327 52.6001C326.669 52.6001 326.4 52.8687 326.4 53.2001C326.4 53.5315 326.669 53.8001 327 53.8001Z" fill="#009096"/>
<path d="M330.5 53.8001C330.831 53.8001 331.1 53.5315 331.1 53.2001C331.1 52.8687 330.831 52.6001 330.5 52.6001C330.169 52.6001 329.9 52.8687 329.9 53.2001C329.9 53.5315 330.169 53.8001 330.5 53.8001Z" fill="#009096"/>
<path d="M333.9 53.8001C334.231 53.8001 334.5 53.5315 334.5 53.2001C334.5 52.8687 334.231 52.6001 333.9 52.6001C333.568 52.6001 333.3 52.8687 333.3 53.2001C333.3 53.5315 333.568 53.8001 333.9 53.8001Z" fill="#009096"/>
<path d="M337.4 53.8001C337.731 53.8001 338 53.5315 338 53.2001C338 52.8687 337.731 52.6001 337.4 52.6001C337.068 52.6001 336.8 52.8687 336.8 53.2001C336.8 53.5315 337.068 53.8001 337.4 53.8001Z" fill="#009096"/>
<path d="M340.9 53.8001C341.231 53.8001 341.5 53.5315 341.5 53.2001C341.5 52.8687 341.231 52.6001 340.9 52.6001C340.568 52.6001 340.3 52.8687 340.3 53.2001C340.3 53.5315 340.568 53.8001 340.9 53.8001Z" fill="#009096"/>
<path d="M344.3 53.8001C344.632 53.8001 344.9 53.5315 344.9 53.2001C344.9 52.8687 344.632 52.6001 344.3 52.6001C343.969 52.6001 343.7 52.8687 343.7 53.2001C343.7 53.5315 343.969 53.8001 344.3 53.8001Z" fill="#009096"/>
<path d="M347.8 53.8001C348.132 53.8001 348.4 53.5315 348.4 53.2001C348.4 52.8687 348.132 52.6001 347.8 52.6001C347.469 52.6001 347.2 52.8687 347.2 53.2001C347.2 53.5315 347.469 53.8001 347.8 53.8001Z" fill="#009096"/>
<path d="M351.2 53.8001C351.531 53.8001 351.8 53.5315 351.8 53.2001C351.8 52.8687 351.531 52.6001 351.2 52.6001C350.869 52.6001 350.6 52.8687 350.6 53.2001C350.6 53.5315 350.869 53.8001 351.2 53.8001Z" fill="#009096"/>
<path d="M354.7 53.8001C355.031 53.8001 355.3 53.5315 355.3 53.2001C355.3 52.8687 355.031 52.6001 354.7 52.6001C354.369 52.6001 354.1 52.8687 354.1 53.2001C354.1 53.5315 354.369 53.8001 354.7 53.8001Z" fill="#009096"/>
<path d="M358.1 53.8001C358.431 53.8001 358.7 53.5315 358.7 53.2001C358.7 52.8687 358.431 52.6001 358.1 52.6001C357.769 52.6001 357.5 52.8687 357.5 53.2001C357.5 53.5315 357.769 53.8001 358.1 53.8001Z" fill="#009096"/>
<path d="M361.6 53.8001C361.931 53.8001 362.2 53.5315 362.2 53.2001C362.2 52.8687 361.931 52.6001 361.6 52.6001C361.269 52.6001 361 52.8687 361 53.2001C361 53.5315 361.269 53.8001 361.6 53.8001Z" fill="#009096"/>
<path d="M365.1 53.8001C365.431 53.8001 365.7 53.5315 365.7 53.2001C365.7 52.8687 365.431 52.6001 365.1 52.6001C364.769 52.6001 364.5 52.8687 364.5 53.2001C364.5 53.5315 364.769 53.8001 365.1 53.8001Z" fill="#009096"/>
<path d="M368.5 53.8001C368.831 53.8001 369.1 53.5315 369.1 53.2001C369.1 52.8687 368.831 52.6001 368.5 52.6001C368.169 52.6001 367.9 52.8687 367.9 53.2001C367.9 53.5315 368.169 53.8001 368.5 53.8001Z" fill="#009096"/>
<path d="M316.6 57.3001C316.931 57.3001 317.2 57.0315 317.2 56.7001C317.2 56.3687 316.931 56.1001 316.6 56.1001C316.269 56.1001 316 56.3687 316 56.7001C316 57.0315 316.269 57.3001 316.6 57.3001Z" fill="#009096"/>
<path d="M320.1 57.3001C320.431 57.3001 320.7 57.0315 320.7 56.7001C320.7 56.3687 320.431 56.1001 320.1 56.1001C319.769 56.1001 319.5 56.3687 319.5 56.7001C319.5 57.0315 319.769 57.3001 320.1 57.3001Z" fill="#009096"/>
<path d="M323.6 57.3001C323.931 57.3001 324.2 57.0315 324.2 56.7001C324.2 56.3687 323.931 56.1001 323.6 56.1001C323.269 56.1001 323 56.3687 323 56.7001C323 57.0315 323.269 57.3001 323.6 57.3001Z" fill="#009096"/>
<path d="M327 57.3001C327.331 57.3001 327.6 57.0315 327.6 56.7001C327.6 56.3687 327.331 56.1001 327 56.1001C326.669 56.1001 326.4 56.3687 326.4 56.7001C326.4 57.0315 326.669 57.3001 327 57.3001Z" fill="#009096"/>
<path d="M330.5 57.3001C330.831 57.3001 331.1 57.0315 331.1 56.7001C331.1 56.3687 330.831 56.1001 330.5 56.1001C330.169 56.1001 329.9 56.3687 329.9 56.7001C329.9 57.0315 330.169 57.3001 330.5 57.3001Z" fill="#009096"/>
<path d="M333.9 57.3001C334.231 57.3001 334.5 57.0315 334.5 56.7001C334.5 56.3687 334.231 56.1001 333.9 56.1001C333.568 56.1001 333.3 56.3687 333.3 56.7001C333.3 57.0315 333.568 57.3001 333.9 57.3001Z" fill="#009096"/>
<path d="M337.4 57.3001C337.731 57.3001 338 57.0315 338 56.7001C338 56.3687 337.731 56.1001 337.4 56.1001C337.068 56.1001 336.8 56.3687 336.8 56.7001C336.8 57.0315 337.068 57.3001 337.4 57.3001Z" fill="#009096"/>
<path d="M340.9 57.3001C341.231 57.3001 341.5 57.0315 341.5 56.7001C341.5 56.3687 341.231 56.1001 340.9 56.1001C340.568 56.1001 340.3 56.3687 340.3 56.7001C340.3 57.0315 340.568 57.3001 340.9 57.3001Z" fill="#009096"/>
<path d="M344.3 57.3001C344.632 57.3001 344.9 57.0315 344.9 56.7001C344.9 56.3687 344.632 56.1001 344.3 56.1001C343.969 56.1001 343.7 56.3687 343.7 56.7001C343.7 57.0315 343.969 57.3001 344.3 57.3001Z" fill="#009096"/>
<path d="M347.8 57.3001C348.132 57.3001 348.4 57.0315 348.4 56.7001C348.4 56.3687 348.132 56.1001 347.8 56.1001C347.469 56.1001 347.2 56.3687 347.2 56.7001C347.2 57.0315 347.469 57.3001 347.8 57.3001Z" fill="#009096"/>
<path d="M351.2 57.3001C351.531 57.3001 351.8 57.0315 351.8 56.7001C351.8 56.3687 351.531 56.1001 351.2 56.1001C350.869 56.1001 350.6 56.3687 350.6 56.7001C350.6 57.0315 350.869 57.3001 351.2 57.3001Z" fill="#009096"/>
<path d="M354.7 57.3001C355.031 57.3001 355.3 57.0315 355.3 56.7001C355.3 56.3687 355.031 56.1001 354.7 56.1001C354.369 56.1001 354.1 56.3687 354.1 56.7001C354.1 57.0315 354.369 57.3001 354.7 57.3001Z" fill="#009096"/>
<path d="M358.1 57.3001C358.431 57.3001 358.7 57.0315 358.7 56.7001C358.7 56.3687 358.431 56.1001 358.1 56.1001C357.769 56.1001 357.5 56.3687 357.5 56.7001C357.5 57.0315 357.769 57.3001 358.1 57.3001Z" fill="#009096"/>
<path d="M361.6 57.3001C361.931 57.3001 362.2 57.0315 362.2 56.7001C362.2 56.3687 361.931 56.1001 361.6 56.1001C361.269 56.1001 361 56.3687 361 56.7001C361 57.0315 361.269 57.3001 361.6 57.3001Z" fill="#009096"/>
<path d="M365.1 57.3001C365.431 57.3001 365.7 57.0315 365.7 56.7001C365.7 56.3687 365.431 56.1001 365.1 56.1001C364.769 56.1001 364.5 56.3687 364.5 56.7001C364.5 57.0315 364.769 57.3001 365.1 57.3001Z" fill="#009096"/>
<path d="M368.5 57.3001C368.831 57.3001 369.1 57.0315 369.1 56.7001C369.1 56.3687 368.831 56.1001 368.5 56.1001C368.169 56.1001 367.9 56.3687 367.9 56.7001C367.9 57.0315 368.169 57.3001 368.5 57.3001Z" fill="#009096"/>
<path d="M316.6 60.7C316.931 60.7 317.2 60.4314 317.2 60.1C317.2 59.7686 316.931 59.5 316.6 59.5C316.269 59.5 316 59.7686 316 60.1C316 60.4314 316.269 60.7 316.6 60.7Z" fill="#009096"/>
<path d="M320.1 60.7C320.431 60.7 320.7 60.4314 320.7 60.1C320.7 59.7686 320.431 59.5 320.1 59.5C319.769 59.5 319.5 59.7686 319.5 60.1C319.5 60.4314 319.769 60.7 320.1 60.7Z" fill="#009096"/>
<path d="M323.6 60.7C323.931 60.7 324.2 60.4314 324.2 60.1C324.2 59.7686 323.931 59.5 323.6 59.5C323.269 59.5 323 59.7686 323 60.1C323 60.4314 323.269 60.7 323.6 60.7Z" fill="#009096"/>
<path d="M327 60.7C327.331 60.7 327.6 60.4314 327.6 60.1C327.6 59.7686 327.331 59.5 327 59.5C326.669 59.5 326.4 59.7686 326.4 60.1C326.4 60.4314 326.669 60.7 327 60.7Z" fill="#009096"/>
<path d="M330.5 60.7C330.831 60.7 331.1 60.4314 331.1 60.1C331.1 59.7686 330.831 59.5 330.5 59.5C330.169 59.5 329.9 59.7686 329.9 60.1C329.9 60.4314 330.169 60.7 330.5 60.7Z" fill="#009096"/>
<path d="M333.9 60.7C334.231 60.7 334.5 60.4314 334.5 60.1C334.5 59.7686 334.231 59.5 333.9 59.5C333.568 59.5 333.3 59.7686 333.3 60.1C333.3 60.4314 333.568 60.7 333.9 60.7Z" fill="#009096"/>
<path d="M337.4 60.7C337.731 60.7 338 60.4314 338 60.1C338 59.7686 337.731 59.5 337.4 59.5C337.068 59.5 336.8 59.7686 336.8 60.1C336.8 60.4314 337.068 60.7 337.4 60.7Z" fill="#009096"/>
<path d="M340.9 60.7C341.231 60.7 341.5 60.4314 341.5 60.1C341.5 59.7686 341.231 59.5 340.9 59.5C340.568 59.5 340.3 59.7686 340.3 60.1C340.3 60.4314 340.568 60.7 340.9 60.7Z" fill="#009096"/>
<path d="M344.3 60.7C344.632 60.7 344.9 60.4314 344.9 60.1C344.9 59.7686 344.632 59.5 344.3 59.5C343.969 59.5 343.7 59.7686 343.7 60.1C343.7 60.4314 343.969 60.7 344.3 60.7Z" fill="#009096"/>
<path d="M347.8 60.7C348.132 60.7 348.4 60.4314 348.4 60.1C348.4 59.7686 348.132 59.5 347.8 59.5C347.469 59.5 347.2 59.7686 347.2 60.1C347.2 60.4314 347.469 60.7 347.8 60.7Z" fill="#009096"/>
<path d="M351.2 60.7C351.531 60.7 351.8 60.4314 351.8 60.1C351.8 59.7686 351.531 59.5 351.2 59.5C350.869 59.5 350.6 59.7686 350.6 60.1C350.6 60.4314 350.869 60.7 351.2 60.7Z" fill="#009096"/>
<path d="M354.7 60.7C355.031 60.7 355.3 60.4314 355.3 60.1C355.3 59.7686 355.031 59.5 354.7 59.5C354.369 59.5 354.1 59.7686 354.1 60.1C354.1 60.4314 354.369 60.7 354.7 60.7Z" fill="#009096"/>
<path d="M358.1 60.7C358.431 60.7 358.7 60.4314 358.7 60.1C358.7 59.7686 358.431 59.5 358.1 59.5C357.769 59.5 357.5 59.7686 357.5 60.1C357.5 60.4314 357.769 60.7 358.1 60.7Z" fill="#009096"/>
<path d="M361.6 60.7C361.931 60.7 362.2 60.4314 362.2 60.1C362.2 59.7686 361.931 59.5 361.6 59.5C361.269 59.5 361 59.7686 361 60.1C361 60.4314 361.269 60.7 361.6 60.7Z" fill="#009096"/>
<path d="M365.1 60.7C365.431 60.7 365.7 60.4314 365.7 60.1C365.7 59.7686 365.431 59.5 365.1 59.5C364.769 59.5 364.5 59.7686 364.5 60.1C364.5 60.4314 364.769 60.7 365.1 60.7Z" fill="#009096"/>
<path d="M368.5 60.7C368.831 60.7 369.1 60.4314 369.1 60.1C369.1 59.7686 368.831 59.5 368.5 59.5C368.169 59.5 367.9 59.7686 367.9 60.1C367.9 60.4314 368.169 60.7 368.5 60.7Z" fill="#009096"/>
<path d="M316.6 64.2C316.931 64.2 317.2 63.9314 317.2 63.6C317.2 63.2686 316.931 63 316.6 63C316.269 63 316 63.2686 316 63.6C316 63.9314 316.269 64.2 316.6 64.2Z" fill="#009096"/>
<path d="M320.1 64.2C320.431 64.2 320.7 63.9314 320.7 63.6C320.7 63.2686 320.431 63 320.1 63C319.769 63 319.5 63.2686 319.5 63.6C319.5 63.9314 319.769 64.2 320.1 64.2Z" fill="#009096"/>
<path d="M323.6 64.2C323.931 64.2 324.2 63.9314 324.2 63.6C324.2 63.2686 323.931 63 323.6 63C323.269 63 323 63.2686 323 63.6C323 63.9314 323.269 64.2 323.6 64.2Z" fill="#009096"/>
<path d="M327 64.2C327.331 64.2 327.6 63.9314 327.6 63.6C327.6 63.2686 327.331 63 327 63C326.669 63 326.4 63.2686 326.4 63.6C326.4 63.9314 326.669 64.2 327 64.2Z" fill="#009096"/>
<path d="M330.5 64.2C330.831 64.2 331.1 63.9314 331.1 63.6C331.1 63.2686 330.831 63 330.5 63C330.169 63 329.9 63.2686 329.9 63.6C329.9 63.9314 330.169 64.2 330.5 64.2Z" fill="#009096"/>
<path d="M333.9 64.2C334.231 64.2 334.5 63.9314 334.5 63.6C334.5 63.2686 334.231 63 333.9 63C333.568 63 333.3 63.2686 333.3 63.6C333.3 63.9314 333.568 64.2 333.9 64.2Z" fill="#009096"/>
<path d="M337.4 64.2C337.731 64.2 338 63.9314 338 63.6C338 63.2686 337.731 63 337.4 63C337.068 63 336.8 63.2686 336.8 63.6C336.8 63.9314 337.068 64.2 337.4 64.2Z" fill="#009096"/>
<path d="M340.9 64.2C341.231 64.2 341.5 63.9314 341.5 63.6C341.5 63.2686 341.231 63 340.9 63C340.568 63 340.3 63.2686 340.3 63.6C340.3 63.9314 340.568 64.2 340.9 64.2Z" fill="#009096"/>
<path d="M344.3 64.2C344.632 64.2 344.9 63.9314 344.9 63.6C344.9 63.2686 344.632 63 344.3 63C343.969 63 343.7 63.2686 343.7 63.6C343.7 63.9314 343.969 64.2 344.3 64.2Z" fill="#009096"/>
<path d="M347.8 64.2C348.132 64.2 348.4 63.9314 348.4 63.6C348.4 63.2686 348.132 63 347.8 63C347.469 63 347.2 63.2686 347.2 63.6C347.2 63.9314 347.469 64.2 347.8 64.2Z" fill="#009096"/>
<path d="M351.2 64.2C351.531 64.2 351.8 63.9314 351.8 63.6C351.8 63.2686 351.531 63 351.2 63C350.869 63 350.6 63.2686 350.6 63.6C350.6 63.9314 350.869 64.2 351.2 64.2Z" fill="#009096"/>
<path d="M354.7 64.2C355.031 64.2 355.3 63.9314 355.3 63.6C355.3 63.2686 355.031 63 354.7 63C354.369 63 354.1 63.2686 354.1 63.6C354.1 63.9314 354.369 64.2 354.7 64.2Z" fill="#009096"/>
<path d="M358.1 64.2C358.431 64.2 358.7 63.9314 358.7 63.6C358.7 63.2686 358.431 63 358.1 63C357.769 63 357.5 63.2686 357.5 63.6C357.5 63.9314 357.769 64.2 358.1 64.2Z" fill="#009096"/>
<path d="M361.6 64.2C361.931 64.2 362.2 63.9314 362.2 63.6C362.2 63.2686 361.931 63 361.6 63C361.269 63 361 63.2686 361 63.6C361 63.9314 361.269 64.2 361.6 64.2Z" fill="#009096"/>
<path d="M365.1 64.2C365.431 64.2 365.7 63.9314 365.7 63.6C365.7 63.2686 365.431 63 365.1 63C364.769 63 364.5 63.2686 364.5 63.6C364.5 63.9314 364.769 64.2 365.1 64.2Z" fill="#009096"/>
<path d="M368.5 64.2C368.831 64.2 369.1 63.9314 369.1 63.6C369.1 63.2686 368.831 63 368.5 63C368.169 63 367.9 63.2686 367.9 63.6C367.9 63.9314 368.169 64.2 368.5 64.2Z" fill="#009096"/>
<path d="M316.6 67.7C316.931 67.7 317.2 67.4314 317.2 67.1C317.2 66.7686 316.931 66.5 316.6 66.5C316.269 66.5 316 66.7686 316 67.1C316 67.4314 316.269 67.7 316.6 67.7Z" fill="#009096"/>
<path d="M320.1 67.7C320.431 67.7 320.7 67.4314 320.7 67.1C320.7 66.7686 320.431 66.5 320.1 66.5C319.769 66.5 319.5 66.7686 319.5 67.1C319.5 67.4314 319.769 67.7 320.1 67.7Z" fill="#009096"/>
<path d="M323.6 67.7C323.931 67.7 324.2 67.4314 324.2 67.1C324.2 66.7686 323.931 66.5 323.6 66.5C323.269 66.5 323 66.7686 323 67.1C323 67.4314 323.269 67.7 323.6 67.7Z" fill="#009096"/>
<path d="M327 67.7C327.331 67.7 327.6 67.4314 327.6 67.1C327.6 66.7686 327.331 66.5 327 66.5C326.669 66.5 326.4 66.7686 326.4 67.1C326.4 67.4314 326.669 67.7 327 67.7Z" fill="#009096"/>
<path d="M330.5 67.7C330.831 67.7 331.1 67.4314 331.1 67.1C331.1 66.7686 330.831 66.5 330.5 66.5C330.169 66.5 329.9 66.7686 329.9 67.1C329.9 67.4314 330.169 67.7 330.5 67.7Z" fill="#009096"/>
<path d="M333.9 67.7C334.231 67.7 334.5 67.4314 334.5 67.1C334.5 66.7686 334.231 66.5 333.9 66.5C333.568 66.5 333.3 66.7686 333.3 67.1C333.3 67.4314 333.568 67.7 333.9 67.7Z" fill="#009096"/>
<path d="M337.4 67.7C337.731 67.7 338 67.4314 338 67.1C338 66.7686 337.731 66.5 337.4 66.5C337.068 66.5 336.8 66.7686 336.8 67.1C336.8 67.4314 337.068 67.7 337.4 67.7Z" fill="#009096"/>
<path d="M340.9 67.7C341.231 67.7 341.5 67.4314 341.5 67.1C341.5 66.7686 341.231 66.5 340.9 66.5C340.568 66.5 340.3 66.7686 340.3 67.1C340.3 67.4314 340.568 67.7 340.9 67.7Z" fill="#009096"/>
<path d="M344.3 67.7C344.632 67.7 344.9 67.4314 344.9 67.1C344.9 66.7686 344.632 66.5 344.3 66.5C343.969 66.5 343.7 66.7686 343.7 67.1C343.7 67.4314 343.969 67.7 344.3 67.7Z" fill="#009096"/>
<path d="M347.8 67.7C348.132 67.7 348.4 67.4314 348.4 67.1C348.4 66.7686 348.132 66.5 347.8 66.5C347.469 66.5 347.2 66.7686 347.2 67.1C347.2 67.4314 347.469 67.7 347.8 67.7Z" fill="#009096"/>
<path d="M351.2 67.7C351.531 67.7 351.8 67.4314 351.8 67.1C351.8 66.7686 351.531 66.5 351.2 66.5C350.869 66.5 350.6 66.7686 350.6 67.1C350.6 67.4314 350.869 67.7 351.2 67.7Z" fill="#009096"/>
<path d="M354.7 67.7C355.031 67.7 355.3 67.4314 355.3 67.1C355.3 66.7686 355.031 66.5 354.7 66.5C354.369 66.5 354.1 66.7686 354.1 67.1C354.1 67.4314 354.369 67.7 354.7 67.7Z" fill="#009096"/>
<path d="M358.1 67.7C358.431 67.7 358.7 67.4314 358.7 67.1C358.7 66.7686 358.431 66.5 358.1 66.5C357.769 66.5 357.5 66.7686 357.5 67.1C357.5 67.4314 357.769 67.7 358.1 67.7Z" fill="#009096"/>
<path d="M361.6 67.7C361.931 67.7 362.2 67.4314 362.2 67.1C362.2 66.7686 361.931 66.5 361.6 66.5C361.269 66.5 361 66.7686 361 67.1C361 67.4314 361.269 67.7 361.6 67.7Z" fill="#009096"/>
<path d="M365.1 67.7C365.431 67.7 365.7 67.4314 365.7 67.1C365.7 66.7686 365.431 66.5 365.1 66.5C364.769 66.5 364.5 66.7686 364.5 67.1C364.5 67.4314 364.769 67.7 365.1 67.7Z" fill="#009096"/>
<path d="M368.5 67.7C368.831 67.7 369.1 67.4314 369.1 67.1C369.1 66.7686 368.831 66.5 368.5 66.5C368.169 66.5 367.9 66.7686 367.9 67.1C367.9 67.4314 368.169 67.7 368.5 67.7Z" fill="#009096"/>
<path d="M316.6 71.0999C316.931 71.0999 317.2 70.8313 317.2 70.4999C317.2 70.1685 316.931 69.8999 316.6 69.8999C316.269 69.8999 316 70.1685 316 70.4999C316 70.8313 316.269 71.0999 316.6 71.0999Z" fill="#009096"/>
<path d="M320.1 71.0999C320.431 71.0999 320.7 70.8313 320.7 70.4999C320.7 70.1685 320.431 69.8999 320.1 69.8999C319.769 69.8999 319.5 70.1685 319.5 70.4999C319.5 70.8313 319.769 71.0999 320.1 71.0999Z" fill="#009096"/>
<path d="M323.6 71.0999C323.931 71.0999 324.2 70.8313 324.2 70.4999C324.2 70.1685 323.931 69.8999 323.6 69.8999C323.269 69.8999 323 70.1685 323 70.4999C323 70.8313 323.269 71.0999 323.6 71.0999Z" fill="#009096"/>
<path d="M327 71.0999C327.331 71.0999 327.6 70.8313 327.6 70.4999C327.6 70.1685 327.331 69.8999 327 69.8999C326.669 69.8999 326.4 70.1685 326.4 70.4999C326.4 70.8313 326.669 71.0999 327 71.0999Z" fill="#009096"/>
<path d="M330.5 71.0999C330.831 71.0999 331.1 70.8313 331.1 70.4999C331.1 70.1685 330.831 69.8999 330.5 69.8999C330.169 69.8999 329.9 70.1685 329.9 70.4999C329.9 70.8313 330.169 71.0999 330.5 71.0999Z" fill="#009096"/>
<path d="M333.9 71.0999C334.231 71.0999 334.5 70.8313 334.5 70.4999C334.5 70.1685 334.231 69.8999 333.9 69.8999C333.568 69.8999 333.3 70.1685 333.3 70.4999C333.3 70.8313 333.568 71.0999 333.9 71.0999Z" fill="#009096"/>
<path d="M337.4 71.0999C337.731 71.0999 338 70.8313 338 70.4999C338 70.1685 337.731 69.8999 337.4 69.8999C337.068 69.8999 336.8 70.1685 336.8 70.4999C336.8 70.8313 337.068 71.0999 337.4 71.0999Z" fill="#009096"/>
<path d="M340.9 71.0999C341.231 71.0999 341.5 70.8313 341.5 70.4999C341.5 70.1685 341.231 69.8999 340.9 69.8999C340.568 69.8999 340.3 70.1685 340.3 70.4999C340.3 70.8313 340.568 71.0999 340.9 71.0999Z" fill="#009096"/>
<path d="M344.3 71.0999C344.632 71.0999 344.9 70.8313 344.9 70.4999C344.9 70.1685 344.632 69.8999 344.3 69.8999C343.969 69.8999 343.7 70.1685 343.7 70.4999C343.7 70.8313 343.969 71.0999 344.3 71.0999Z" fill="#009096"/>
<path d="M347.8 71.0999C348.132 71.0999 348.4 70.8313 348.4 70.4999C348.4 70.1685 348.132 69.8999 347.8 69.8999C347.469 69.8999 347.2 70.1685 347.2 70.4999C347.2 70.8313 347.469 71.0999 347.8 71.0999Z" fill="#009096"/>
<path d="M351.2 71.0999C351.531 71.0999 351.8 70.8313 351.8 70.4999C351.8 70.1685 351.531 69.8999 351.2 69.8999C350.869 69.8999 350.6 70.1685 350.6 70.4999C350.6 70.8313 350.869 71.0999 351.2 71.0999Z" fill="#009096"/>
<path d="M354.7 71.0999C355.031 71.0999 355.3 70.8313 355.3 70.4999C355.3 70.1685 355.031 69.8999 354.7 69.8999C354.369 69.8999 354.1 70.1685 354.1 70.4999C354.1 70.8313 354.369 71.0999 354.7 71.0999Z" fill="#009096"/>
<path d="M358.1 71.0999C358.431 71.0999 358.7 70.8313 358.7 70.4999C358.7 70.1685 358.431 69.8999 358.1 69.8999C357.769 69.8999 357.5 70.1685 357.5 70.4999C357.5 70.8313 357.769 71.0999 358.1 71.0999Z" fill="#009096"/>
<path d="M361.6 71.0999C361.931 71.0999 362.2 70.8313 362.2 70.4999C362.2 70.1685 361.931 69.8999 361.6 69.8999C361.269 69.8999 361 70.1685 361 70.4999C361 70.8313 361.269 71.0999 361.6 71.0999Z" fill="#009096"/>
<path d="M365.1 71.0999C365.431 71.0999 365.7 70.8313 365.7 70.4999C365.7 70.1685 365.431 69.8999 365.1 69.8999C364.769 69.8999 364.5 70.1685 364.5 70.4999C364.5 70.8313 364.769 71.0999 365.1 71.0999Z" fill="#009096"/>
<path d="M368.5 71.0999C368.831 71.0999 369.1 70.8313 369.1 70.4999C369.1 70.1685 368.831 69.8999 368.5 69.8999C368.169 69.8999 367.9 70.1685 367.9 70.4999C367.9 70.8313 368.169 71.0999 368.5 71.0999Z" fill="#009096"/>
<path d="M316.6 74.5999C316.931 74.5999 317.2 74.3313 317.2 73.9999C317.2 73.6685 316.931 73.3999 316.6 73.3999C316.269 73.3999 316 73.6685 316 73.9999C316 74.3313 316.269 74.5999 316.6 74.5999Z" fill="#009096"/>
<path d="M320.1 74.5999C320.431 74.5999 320.7 74.3313 320.7 73.9999C320.7 73.6685 320.431 73.3999 320.1 73.3999C319.769 73.3999 319.5 73.6685 319.5 73.9999C319.5 74.3313 319.769 74.5999 320.1 74.5999Z" fill="#009096"/>
<path d="M323.6 74.5999C323.931 74.5999 324.2 74.3313 324.2 73.9999C324.2 73.6685 323.931 73.3999 323.6 73.3999C323.269 73.3999 323 73.6685 323 73.9999C323 74.3313 323.269 74.5999 323.6 74.5999Z" fill="#009096"/>
<path d="M327 74.5999C327.331 74.5999 327.6 74.3313 327.6 73.9999C327.6 73.6685 327.331 73.3999 327 73.3999C326.669 73.3999 326.4 73.6685 326.4 73.9999C326.4 74.3313 326.669 74.5999 327 74.5999Z" fill="#009096"/>
<path d="M330.5 74.5999C330.831 74.5999 331.1 74.3313 331.1 73.9999C331.1 73.6685 330.831 73.3999 330.5 73.3999C330.169 73.3999 329.9 73.6685 329.9 73.9999C329.9 74.3313 330.169 74.5999 330.5 74.5999Z" fill="#009096"/>
<path d="M333.9 74.5999C334.231 74.5999 334.5 74.3313 334.5 73.9999C334.5 73.6685 334.231 73.3999 333.9 73.3999C333.568 73.3999 333.3 73.6685 333.3 73.9999C333.3 74.3313 333.568 74.5999 333.9 74.5999Z" fill="#009096"/>
<path d="M337.4 74.5999C337.731 74.5999 338 74.3313 338 73.9999C338 73.6685 337.731 73.3999 337.4 73.3999C337.068 73.3999 336.8 73.6685 336.8 73.9999C336.8 74.3313 337.068 74.5999 337.4 74.5999Z" fill="#009096"/>
<path d="M340.9 74.5999C341.231 74.5999 341.5 74.3313 341.5 73.9999C341.5 73.6685 341.231 73.3999 340.9 73.3999C340.568 73.3999 340.3 73.6685 340.3 73.9999C340.3 74.3313 340.568 74.5999 340.9 74.5999Z" fill="#009096"/>
<path d="M344.3 74.5999C344.632 74.5999 344.9 74.3313 344.9 73.9999C344.9 73.6685 344.632 73.3999 344.3 73.3999C343.969 73.3999 343.7 73.6685 343.7 73.9999C343.7 74.3313 343.969 74.5999 344.3 74.5999Z" fill="#009096"/>
<path d="M347.8 74.5999C348.132 74.5999 348.4 74.3313 348.4 73.9999C348.4 73.6685 348.132 73.3999 347.8 73.3999C347.469 73.3999 347.2 73.6685 347.2 73.9999C347.2 74.3313 347.469 74.5999 347.8 74.5999Z" fill="#009096"/>
<path d="M351.2 74.5999C351.531 74.5999 351.8 74.3313 351.8 73.9999C351.8 73.6685 351.531 73.3999 351.2 73.3999C350.869 73.3999 350.6 73.6685 350.6 73.9999C350.6 74.3313 350.869 74.5999 351.2 74.5999Z" fill="#009096"/>
<path d="M354.7 74.5999C355.031 74.5999 355.3 74.3313 355.3 73.9999C355.3 73.6685 355.031 73.3999 354.7 73.3999C354.369 73.3999 354.1 73.6685 354.1 73.9999C354.1 74.3313 354.369 74.5999 354.7 74.5999Z" fill="#009096"/>
<path d="M358.1 74.5999C358.431 74.5999 358.7 74.3313 358.7 73.9999C358.7 73.6685 358.431 73.3999 358.1 73.3999C357.769 73.3999 357.5 73.6685 357.5 73.9999C357.5 74.3313 357.769 74.5999 358.1 74.5999Z" fill="#009096"/>
<path d="M361.6 74.5999C361.931 74.5999 362.2 74.3313 362.2 73.9999C362.2 73.6685 361.931 73.3999 361.6 73.3999C361.269 73.3999 361 73.6685 361 73.9999C361 74.3313 361.269 74.5999 361.6 74.5999Z" fill="#009096"/>
<path d="M365.1 74.5999C365.431 74.5999 365.7 74.3313 365.7 73.9999C365.7 73.6685 365.431 73.3999 365.1 73.3999C364.769 73.3999 364.5 73.6685 364.5 73.9999C364.5 74.3313 364.769 74.5999 365.1 74.5999Z" fill="#009096"/>
<path d="M368.5 74.5999C368.831 74.5999 369.1 74.3313 369.1 73.9999C369.1 73.6685 368.831 73.3999 368.5 73.3999C368.169 73.3999 367.9 73.6685 367.9 73.9999C367.9 74.3313 368.169 74.5999 368.5 74.5999Z" fill="#009096"/>
<path d="M316.6 78C316.931 78 317.2 77.7314 317.2 77.4C317.2 77.0687 316.931 76.8 316.6 76.8C316.269 76.8 316 77.0687 316 77.4C316 77.7314 316.269 78 316.6 78Z" fill="#009096"/>
<path d="M320.1 78C320.431 78 320.7 77.7314 320.7 77.4C320.7 77.0687 320.431 76.8 320.1 76.8C319.769 76.8 319.5 77.0687 319.5 77.4C319.5 77.7314 319.769 78 320.1 78Z" fill="#009096"/>
<path d="M323.6 78C323.931 78 324.2 77.7314 324.2 77.4C324.2 77.0687 323.931 76.8 323.6 76.8C323.269 76.8 323 77.0687 323 77.4C323 77.7314 323.269 78 323.6 78Z" fill="#009096"/>
<path d="M327 78C327.331 78 327.6 77.7314 327.6 77.4C327.6 77.0687 327.331 76.8 327 76.8C326.669 76.8 326.4 77.0687 326.4 77.4C326.4 77.7314 326.669 78 327 78Z" fill="#009096"/>
<path d="M330.5 78C330.831 78 331.1 77.7314 331.1 77.4C331.1 77.0687 330.831 76.8 330.5 76.8C330.169 76.8 329.9 77.0687 329.9 77.4C329.9 77.7314 330.169 78 330.5 78Z" fill="#009096"/>
<path d="M333.9 78C334.231 78 334.5 77.7314 334.5 77.4C334.5 77.0687 334.231 76.8 333.9 76.8C333.568 76.8 333.3 77.0687 333.3 77.4C333.3 77.7314 333.568 78 333.9 78Z" fill="#009096"/>
<path d="M337.4 78C337.731 78 338 77.7314 338 77.4C338 77.0687 337.731 76.8 337.4 76.8C337.068 76.8 336.8 77.0687 336.8 77.4C336.8 77.7314 337.068 78 337.4 78Z" fill="#009096"/>
<path d="M340.9 78C341.231 78 341.5 77.7314 341.5 77.4C341.5 77.0687 341.231 76.8 340.9 76.8C340.568 76.8 340.3 77.0687 340.3 77.4C340.3 77.7314 340.568 78 340.9 78Z" fill="#009096"/>
<path d="M344.3 78C344.632 78 344.9 77.7314 344.9 77.4C344.9 77.0687 344.632 76.8 344.3 76.8C343.969 76.8 343.7 77.0687 343.7 77.4C343.7 77.7314 343.969 78 344.3 78Z" fill="#009096"/>
<path d="M347.8 78C348.132 78 348.4 77.7314 348.4 77.4C348.4 77.0687 348.132 76.8 347.8 76.8C347.469 76.8 347.2 77.0687 347.2 77.4C347.2 77.7314 347.469 78 347.8 78Z" fill="#009096"/>
<path d="M351.2 78C351.531 78 351.8 77.7314 351.8 77.4C351.8 77.0687 351.531 76.8 351.2 76.8C350.869 76.8 350.6 77.0687 350.6 77.4C350.6 77.7314 350.869 78 351.2 78Z" fill="#009096"/>
<path d="M354.7 78C355.031 78 355.3 77.7314 355.3 77.4C355.3 77.0687 355.031 76.8 354.7 76.8C354.369 76.8 354.1 77.0687 354.1 77.4C354.1 77.7314 354.369 78 354.7 78Z" fill="#009096"/>
<path d="M358.1 78C358.431 78 358.7 77.7314 358.7 77.4C358.7 77.0687 358.431 76.8 358.1 76.8C357.769 76.8 357.5 77.0687 357.5 77.4C357.5 77.7314 357.769 78 358.1 78Z" fill="#009096"/>
<path d="M361.6 78C361.931 78 362.2 77.7314 362.2 77.4C362.2 77.0687 361.931 76.8 361.6 76.8C361.269 76.8 361 77.0687 361 77.4C361 77.7314 361.269 78 361.6 78Z" fill="#009096"/>
<path d="M365.1 78C365.431 78 365.7 77.7314 365.7 77.4C365.7 77.0687 365.431 76.8 365.1 76.8C364.769 76.8 364.5 77.0687 364.5 77.4C364.5 77.7314 364.769 78 365.1 78Z" fill="#009096"/>
<path d="M368.5 78C368.831 78 369.1 77.7314 369.1 77.4C369.1 77.0687 368.831 76.8 368.5 76.8C368.169 76.8 367.9 77.0687 367.9 77.4C367.9 77.7314 368.169 78 368.5 78Z" fill="#009096"/>
<path d="M316.6 81.5C316.931 81.5 317.2 81.2314 317.2 80.9C317.2 80.5687 316.931 80.3 316.6 80.3C316.269 80.3 316 80.5687 316 80.9C316 81.2314 316.269 81.5 316.6 81.5Z" fill="#009096"/>
<path d="M320.1 81.5C320.431 81.5 320.7 81.2314 320.7 80.9C320.7 80.5687 320.431 80.3 320.1 80.3C319.769 80.3 319.5 80.5687 319.5 80.9C319.5 81.2314 319.769 81.5 320.1 81.5Z" fill="#009096"/>
<path d="M323.6 81.5C323.931 81.5 324.2 81.2314 324.2 80.9C324.2 80.5687 323.931 80.3 323.6 80.3C323.269 80.3 323 80.5687 323 80.9C323 81.2314 323.269 81.5 323.6 81.5Z" fill="#009096"/>
<path d="M327 81.5C327.331 81.5 327.6 81.2314 327.6 80.9C327.6 80.5687 327.331 80.3 327 80.3C326.669 80.3 326.4 80.5687 326.4 80.9C326.4 81.2314 326.669 81.5 327 81.5Z" fill="#009096"/>
<path d="M330.5 81.5C330.831 81.5 331.1 81.2314 331.1 80.9C331.1 80.5687 330.831 80.3 330.5 80.3C330.169 80.3 329.9 80.5687 329.9 80.9C329.9 81.2314 330.169 81.5 330.5 81.5Z" fill="#009096"/>
<path d="M333.9 81.5C334.231 81.5 334.5 81.2314 334.5 80.9C334.5 80.5687 334.231 80.3 333.9 80.3C333.568 80.3 333.3 80.5687 333.3 80.9C333.3 81.2314 333.568 81.5 333.9 81.5Z" fill="#009096"/>
<path d="M337.4 81.5C337.731 81.5 338 81.2314 338 80.9C338 80.5687 337.731 80.3 337.4 80.3C337.068 80.3 336.8 80.5687 336.8 80.9C336.8 81.2314 337.068 81.5 337.4 81.5Z" fill="#009096"/>
<path d="M340.9 81.5C341.231 81.5 341.5 81.2314 341.5 80.9C341.5 80.5687 341.231 80.3 340.9 80.3C340.568 80.3 340.3 80.5687 340.3 80.9C340.3 81.2314 340.568 81.5 340.9 81.5Z" fill="#009096"/>
<path d="M344.3 81.5C344.632 81.5 344.9 81.2314 344.9 80.9C344.9 80.5687 344.632 80.3 344.3 80.3C343.969 80.3 343.7 80.5687 343.7 80.9C343.7 81.2314 343.969 81.5 344.3 81.5Z" fill="#009096"/>
<path d="M347.8 81.5C348.132 81.5 348.4 81.2314 348.4 80.9C348.4 80.5687 348.132 80.3 347.8 80.3C347.469 80.3 347.2 80.5687 347.2 80.9C347.2 81.2314 347.469 81.5 347.8 81.5Z" fill="#009096"/>
<path d="M351.2 81.5C351.531 81.5 351.8 81.2314 351.8 80.9C351.8 80.5687 351.531 80.3 351.2 80.3C350.869 80.3 350.6 80.5687 350.6 80.9C350.6 81.2314 350.869 81.5 351.2 81.5Z" fill="#009096"/>
<path d="M354.7 81.5C355.031 81.5 355.3 81.2314 355.3 80.9C355.3 80.5687 355.031 80.3 354.7 80.3C354.369 80.3 354.1 80.5687 354.1 80.9C354.1 81.2314 354.369 81.5 354.7 81.5Z" fill="#009096"/>
<path d="M358.1 81.5C358.431 81.5 358.7 81.2314 358.7 80.9C358.7 80.5687 358.431 80.3 358.1 80.3C357.769 80.3 357.5 80.5687 357.5 80.9C357.5 81.2314 357.769 81.5 358.1 81.5Z" fill="#009096"/>
<path d="M361.6 81.5C361.931 81.5 362.2 81.2314 362.2 80.9C362.2 80.5687 361.931 80.3 361.6 80.3C361.269 80.3 361 80.5687 361 80.9C361 81.2314 361.269 81.5 361.6 81.5Z" fill="#009096"/>
<path d="M365.1 81.5C365.431 81.5 365.7 81.2314 365.7 80.9C365.7 80.5687 365.431 80.3 365.1 80.3C364.769 80.3 364.5 80.5687 364.5 80.9C364.5 81.2314 364.769 81.5 365.1 81.5Z" fill="#009096"/>
<path d="M368.5 81.5C368.831 81.5 369.1 81.2314 369.1 80.9C369.1 80.5687 368.831 80.3 368.5 80.3C368.169 80.3 367.9 80.5687 367.9 80.9C367.9 81.2314 368.169 81.5 368.5 81.5Z" fill="#009096"/>
<path d="M316.6 85C316.931 85 317.2 84.7314 317.2 84.4C317.2 84.0687 316.931 83.8 316.6 83.8C316.269 83.8 316 84.0687 316 84.4C316 84.7314 316.269 85 316.6 85Z" fill="#009096"/>
<path d="M320.1 85C320.431 85 320.7 84.7314 320.7 84.4C320.7 84.0687 320.431 83.8 320.1 83.8C319.769 83.8 319.5 84.0687 319.5 84.4C319.5 84.7314 319.769 85 320.1 85Z" fill="#009096"/>
<path d="M323.6 85C323.931 85 324.2 84.7314 324.2 84.4C324.2 84.0687 323.931 83.8 323.6 83.8C323.269 83.8 323 84.0687 323 84.4C323 84.7314 323.269 85 323.6 85Z" fill="#009096"/>
<path d="M327 85C327.331 85 327.6 84.7314 327.6 84.4C327.6 84.0687 327.331 83.8 327 83.8C326.669 83.8 326.4 84.0687 326.4 84.4C326.4 84.7314 326.669 85 327 85Z" fill="#009096"/>
<path d="M330.5 85C330.831 85 331.1 84.7314 331.1 84.4C331.1 84.0687 330.831 83.8 330.5 83.8C330.169 83.8 329.9 84.0687 329.9 84.4C329.9 84.7314 330.169 85 330.5 85Z" fill="#009096"/>
<path d="M333.9 85C334.231 85 334.5 84.7314 334.5 84.4C334.5 84.0687 334.231 83.8 333.9 83.8C333.568 83.8 333.3 84.0687 333.3 84.4C333.3 84.7314 333.568 85 333.9 85Z" fill="#009096"/>
<path d="M337.4 85C337.731 85 338 84.7314 338 84.4C338 84.0687 337.731 83.8 337.4 83.8C337.068 83.8 336.8 84.0687 336.8 84.4C336.8 84.7314 337.068 85 337.4 85Z" fill="#009096"/>
<path d="M340.9 85C341.231 85 341.5 84.7314 341.5 84.4C341.5 84.0687 341.231 83.8 340.9 83.8C340.568 83.8 340.3 84.0687 340.3 84.4C340.3 84.7314 340.568 85 340.9 85Z" fill="#009096"/>
<path d="M344.3 85C344.632 85 344.9 84.7314 344.9 84.4C344.9 84.0687 344.632 83.8 344.3 83.8C343.969 83.8 343.7 84.0687 343.7 84.4C343.7 84.7314 343.969 85 344.3 85Z" fill="#009096"/>
<path d="M347.8 85C348.132 85 348.4 84.7314 348.4 84.4C348.4 84.0687 348.132 83.8 347.8 83.8C347.469 83.8 347.2 84.0687 347.2 84.4C347.2 84.7314 347.469 85 347.8 85Z" fill="#009096"/>
<path d="M351.2 85C351.531 85 351.8 84.7314 351.8 84.4C351.8 84.0687 351.531 83.8 351.2 83.8C350.869 83.8 350.6 84.0687 350.6 84.4C350.6 84.7314 350.869 85 351.2 85Z" fill="#009096"/>
<path d="M354.7 85C355.031 85 355.3 84.7314 355.3 84.4C355.3 84.0687 355.031 83.8 354.7 83.8C354.369 83.8 354.1 84.0687 354.1 84.4C354.1 84.7314 354.369 85 354.7 85Z" fill="#009096"/>
<path d="M358.1 85C358.431 85 358.7 84.7314 358.7 84.4C358.7 84.0687 358.431 83.8 358.1 83.8C357.769 83.8 357.5 84.0687 357.5 84.4C357.5 84.7314 357.769 85 358.1 85Z" fill="#009096"/>
<path d="M361.6 85C361.931 85 362.2 84.7314 362.2 84.4C362.2 84.0687 361.931 83.8 361.6 83.8C361.269 83.8 361 84.0687 361 84.4C361 84.7314 361.269 85 361.6 85Z" fill="#009096"/>
<path d="M365.1 85C365.431 85 365.7 84.7314 365.7 84.4C365.7 84.0687 365.431 83.8 365.1 83.8C364.769 83.8 364.5 84.0687 364.5 84.4C364.5 84.7314 364.769 85 365.1 85Z" fill="#009096"/>
<path d="M368.5 85C368.831 85 369.1 84.7314 369.1 84.4C369.1 84.0687 368.831 83.8 368.5 83.8C368.169 83.8 367.9 84.0687 367.9 84.4C367.9 84.7314 368.169 85 368.5 85Z" fill="#009096"/>
<path d="M323.6 53.8001C323.931 53.8001 324.2 53.5315 324.2 53.2001C324.2 52.8687 323.931 52.6001 323.6 52.6001C323.269 52.6001 323 52.8687 323 53.2001C323 53.5315 323.269 53.8001 323.6 53.8001Z" fill="#009096"/>
</g>
<path d="M370 101H0V0H370V1H1V100H370V101Z" fill="#1F2432"/>
<path d="M1 100H0V106H1V100Z" fill="#1F2432"/>
<path d="M74.7998 100H73.7998V106H74.7998V100Z" fill="#1F2432"/>
<path d="M148.6 100H147.6V106H148.6V100Z" fill="#1F2432"/>
<path d="M222.4 100H221.4V106H222.4V100Z" fill="#1F2432"/>
<path d="M296.2 100H295.2V106H296.2V100Z" fill="#1F2432"/>
<path d="M370 100H369V106H370V100Z" fill="#1F2432"/>
<path d="M5 116.9C5 117.9 4.8 118.7 4.3 119.2C3.8 119.7 3.3 120 2.5 120C1.7 120 1.1 119.7 0.7 119.2C0.3 118.7 0 117.9 0 116.9V115.2C0 114.2 0.2 113.4 0.7 112.9C1.1 112.4 1.7 112.1 2.5 112.1C3.3 112.1 3.9 112.4 4.3 112.9C4.7 113.4 5 114.2 5 115.2V116.9ZM4.4 115C4.4 114.2 4.2 113.6 3.9 113.2C3.6 112.8 3.1 112.6 2.5 112.6C1.9 112.6 1.4 112.8 1.1 113.2C0.8 113.6 0.6 114.2 0.6 115V116.9C0.6 117.7 0.8 118.3 1.1 118.7C1.4 119.1 1.9 119.4 2.5 119.4C3.1 119.4 3.5 119.2 3.9 118.7C4.2 118.3 4.4 117.6 4.4 116.8V115Z" fill="#1F2432"/>
<path d="M362.4 113C362.4 112.5 362.6 112.1 362.9 111.7C363.2 111.3 363.6 111.2 364.1 111.2C364.6 111.2 365 111.4 365.3 111.7C365.6 112 365.8 112.5 365.8 113V113.5C365.8 114 365.6 114.4 365.3 114.7C365 115 364.6 115.2 364.1 115.2C363.6 115.2 363.2 115 362.9 114.7C362.6 114.4 362.4 113.9 362.4 113.5V113ZM362.9 113.4C362.9 113.7 363 114 363.2 114.3C363.4 114.6 363.7 114.7 364 114.7C364.3 114.7 364.6 114.6 364.8 114.3C365 114 365.1 113.8 365.1 113.4V113C365.1 112.7 365 112.4 364.8 112.1C364.6 111.8 364.3 111.7 364 111.7C363.7 111.7 363.4 111.8 363.2 112.1C363 112.4 362.9 112.6 362.9 113V113.4ZM364.4 119.2L364 118.9L368.2 112.2L368.6 112.5L364.4 119.2ZM366.7 117.8C366.7 117.3 366.9 116.9 367.2 116.6C367.5 116.3 367.9 116.1 368.4 116.1C368.9 116.1 369.3 116.3 369.6 116.6C369.9 116.9 370.1 117.4 370.1 117.8V118.3C370.1 118.8 369.9 119.2 369.6 119.5C369.3 119.8 368.9 120 368.4 120C367.9 120 367.5 119.8 367.2 119.5C366.9 119.2 366.7 118.7 366.7 118.3V117.8ZM367.2 118.2C367.2 118.5 367.3 118.8 367.5 119.1C367.7 119.4 368 119.5 368.3 119.5C368.6 119.5 368.9 119.4 369.1 119.1C369.3 118.8 369.4 118.6 369.4 118.2V117.7C369.4 117.3 369.3 117 369.1 116.8C368.9 116.6 368.6 116.4 368.3 116.4C368 116.4 367.7 116.5 367.5 116.8C367.3 117.1 367.2 117.3 367.2 117.7V118.2Z" fill="#1F2432"/>
<path d="M73.4999 119.9H68.5999V119.4L71.1999 116.5C71.6999 116 71.9999 115.5 72.1999 115.2C72.3999 114.8 72.4999 114.5 72.4999 114.2C72.4999 113.7 72.3999 113.3 72.0999 113C71.7999 112.7 71.3999 112.6 70.8999 112.6C70.2999 112.6 69.8999 112.8 69.4999 113.1C69.1999 113.4 68.9999 113.9 68.9999 114.4H68.3999C68.3999 113.7 68.5999 113.2 68.9999 112.7C69.3999 112.2 69.9999 112 70.7999 112C71.4999 112 71.9999 112.2 72.3999 112.6C72.7999 113 72.9999 113.5 72.9999 114.2C72.9999 114.6 72.8999 115.1 72.5999 115.5C72.2999 115.9 71.9999 116.4 71.4999 117L69.2999 119.4H73.2999V119.9H73.4999Z" fill="#1F2432"/>
<path d="M79.6997 116.9C79.6997 117.9 79.4997 118.7 78.9997 119.2C78.5997 119.7 77.9997 120 77.1997 120C76.3997 120 75.7997 119.7 75.3997 119.2C74.9997 118.7 74.6997 117.9 74.6997 116.9V115.2C74.6997 114.2 74.8997 113.4 75.3997 112.9C75.8997 112.4 76.3997 112.1 77.1997 112.1C77.9997 112.1 78.5997 112.4 78.9997 112.9C79.3997 113.4 79.6997 114.2 79.6997 115.2V116.9ZM78.9997 115C78.9997 114.2 78.7997 113.6 78.4997 113.2C78.1997 112.8 77.6997 112.6 77.0997 112.6C76.4997 112.6 75.9997 112.8 75.6997 113.2C75.3997 113.6 75.1997 114.2 75.1997 115V116.9C75.1997 117.7 75.3997 118.3 75.6997 118.7C75.9997 119.1 76.4997 119.4 77.0997 119.4C77.6997 119.4 78.0997 119.2 78.4997 118.7C78.7997 118.3 78.9997 117.6 78.9997 116.8V115Z" fill="#1F2432"/>
<path d="M146.3 117.4H147.5V117.9H146.3V119.9H145.7V117.9H142V117.5L145.6 112H146.3V117.4ZM142.8 117.4H145.7V113L145.4 113.6L142.8 117.4Z" fill="#1F2432"/>
<path d="M153.4 116.9C153.4 117.9 153.2 118.7 152.7 119.2C152.3 119.7 151.7 120 150.9 120C150.1 120 149.5 119.7 149.1 119.2C148.7 118.7 148.4 117.9 148.4 116.9V115.2C148.4 114.2 148.6 113.4 149.1 112.9C149.6 112.4 150.1 112.1 150.9 112.1C151.7 112.1 152.3 112.4 152.7 112.9C153.1 113.4 153.4 114.2 153.4 115.2V116.9ZM152.8 115C152.8 114.2 152.6 113.6 152.3 113.2C152 112.8 151.5 112.6 150.9 112.6C150.3 112.6 149.8 112.8 149.5 113.2C149.2 113.6 149 114.2 149 115V116.9C149 117.7 149.2 118.3 149.5 118.7C149.8 119.1 150.3 119.4 150.9 119.4C151.5 119.4 151.9 119.2 152.3 118.7C152.6 118.3 152.8 117.6 152.8 116.8V115Z" fill="#1F2432"/>
<path d="M219.2 112C219.5 112 219.7 112 220 112.1C220.3 112.2 220.5 112.2 220.7 112.4L220.5 112.9C220.3 112.8 220.1 112.7 219.9 112.6C219.7 112.5 219.5 112.5 219.2 112.5C218.6 112.5 218.1 112.7 217.8 113.2C217.4 113.7 217.2 114.2 217.2 115V115.7C217.4 115.4 217.7 115.2 218 115C218.3 114.8 218.7 114.7 219.1 114.7C219.8 114.7 220.4 114.9 220.8 115.4C221.2 115.9 221.4 116.5 221.4 117.3C221.4 118.1 221.2 118.7 220.7 119.2C220.3 119.7 219.7 120 219 120C218.3 120 217.7 119.7 217.2 119.2C216.7 118.7 216.5 117.9 216.5 117V115C216.5 114.1 216.8 113.4 217.3 112.8C217.8 112.3 218.4 112 219.2 112ZM218.9 115.3C218.5 115.3 218.1 115.4 217.8 115.6C217.5 115.8 217.3 116.1 217.1 116.5V117.1C217.1 117.8 217.3 118.4 217.6 118.9C217.9 119.4 218.4 119.5 218.9 119.5C219.4 119.5 219.8 119.3 220.2 118.9C220.5 118.5 220.7 118 220.7 117.4C220.7 116.8 220.5 116.3 220.2 115.9C219.9 115.5 219.5 115.3 218.9 115.3Z" fill="#1F2432"/>
<path d="M227.5 116.9C227.5 117.9 227.3 118.7 226.8 119.2C226.4 119.7 225.8 120 225 120C224.2 120 223.6 119.7 223.2 119.2C222.8 118.7 222.5 117.9 222.5 116.9V115.2C222.5 114.2 222.7 113.4 223.2 112.9C223.7 112.4 224.2 112.1 225 112.1C225.8 112.1 226.4 112.4 226.8 112.9C227.2 113.4 227.5 114.2 227.5 115.2V116.9ZM226.8 115C226.8 114.2 226.6 113.6 226.3 113.2C226 112.8 225.5 112.6 224.9 112.6C224.3 112.6 223.8 112.8 223.5 113.2C223.2 113.6 223 114.2 223 115V116.9C223 117.7 223.2 118.3 223.5 118.7C223.8 119.1 224.3 119.4 224.9 119.4C225.5 119.4 225.9 119.2 226.3 118.7C226.6 118.3 226.8 117.6 226.8 116.8V115Z" fill="#1F2432"/>
<path d="M294.8 114.1C294.8 114.5 294.7 114.9 294.4 115.2C294.2 115.5 293.8 115.7 293.4 115.9C293.9 116 294.3 116.3 294.5 116.6C294.7 116.9 294.9 117.3 294.9 117.8C294.9 118.5 294.7 119 294.2 119.4C293.7 119.8 293.1 120 292.4 120C291.6 120 291 119.8 290.6 119.4C290.1 119 289.9 118.5 289.9 117.8C289.9 117.3 290 116.9 290.3 116.6C290.6 116.3 291 116 291.4 115.9C291 115.8 290.7 115.5 290.4 115.2C290.2 114.9 290 114.5 290 114.1C290 113.4 290.2 112.9 290.6 112.5C291 112.1 291.6 111.9 292.3 111.9C293 111.9 293.5 112.1 294 112.5C294.6 112.9 294.8 113.5 294.8 114.1ZM294.4 117.9C294.4 117.4 294.2 117 293.9 116.7C293.5 116.4 293.1 116.2 292.6 116.2C292.1 116.2 291.6 116.4 291.3 116.7C290.9 117 290.8 117.4 290.8 117.9C290.8 118.4 291 118.8 291.3 119.1C291.6 119.4 292.1 119.5 292.7 119.5C293.2 119.5 293.7 119.4 294 119.1C294.2 118.8 294.4 118.4 294.4 117.9ZM294.2 114.1C294.2 113.6 294 113.3 293.7 113C293.4 112.7 293 112.6 292.5 112.6C292 112.6 291.6 112.7 291.3 113C291 113.3 290.8 113.7 290.8 114.1C290.8 114.6 291 114.9 291.3 115.2C291.6 115.5 292 115.6 292.5 115.6C293 115.6 293.4 115.5 293.7 115.2C294 115 294.2 114.6 294.2 114.1Z" fill="#1F2432"/>
<path d="M301.2 116.9C301.2 117.9 301 118.7 300.5 119.2C300.1 119.7 299.5 120 298.7 120C297.9 120 297.3 119.7 296.9 119.2C296.5 118.7 296.2 117.9 296.2 116.9V115.2C296.2 114.2 296.4 113.4 296.9 112.9C297.4 112.4 297.9 112.1 298.7 112.1C299.5 112.1 300.1 112.4 300.5 112.9C300.9 113.4 301.2 114.2 301.2 115.2V116.9ZM300.6 115C300.6 114.2 300.4 113.6 300.1 113.2C299.8 112.8 299.3 112.6 298.7 112.6C298.1 112.6 297.6 112.8 297.3 113.2C297 113.6 296.8 114.2 296.8 115V116.9C296.8 117.7 297 118.3 297.3 118.7C297.6 119.1 298.1 119.4 298.7 119.4C299.3 119.4 299.7 119.2 300.1 118.7C300.4 118.3 300.6 117.6 300.6 116.8V115Z" fill="#1F2432"/>
<path d="M344.6 120H344V112.8L342 113V112.5L344.6 112V120Z" fill="#1F2432"/>
<path d="M352.8 116.9C352.8 117.9 352.6 118.7 352.1 119.2C351.7 119.7 351.1 120 350.3 120C349.5 120 348.9 119.7 348.5 119.2C348.1 118.7 347.8 117.9 347.8 116.9V115.2C347.8 114.2 348 113.4 348.5 112.9C349 112.4 349.5 112.1 350.3 112.1C351.1 112.1 351.7 112.4 352.1 112.9C352.5 113.4 352.8 114.2 352.8 115.2V116.9ZM352.1 115C352.1 114.2 351.9 113.6 351.6 113.2C351.3 112.8 350.8 112.6 350.2 112.6C349.6 112.6 349.1 112.8 348.8 113.2C348.5 113.6 348.3 114.2 348.3 115V116.9C348.3 117.7 348.5 118.3 348.8 118.7C349.1 119.1 349.6 119.4 350.2 119.4C350.8 119.4 351.2 119.2 351.6 118.7C351.9 118.3 352.1 117.6 352.1 116.8V115Z" fill="#1F2432"/>
<path d="M359.2 116.9C359.2 117.9 359 118.7 358.5 119.2C358.1 119.7 357.5 120 356.7 120C355.9 120 355.3 119.7 354.9 119.2C354.5 118.7 354.2 117.9 354.2 116.9V115.2C354.2 114.2 354.4 113.4 354.9 112.9C355.4 112.4 355.9 112.1 356.7 112.1C357.5 112.1 358.1 112.4 358.5 112.9C358.9 113.4 359.2 114.2 359.2 115.2V116.9ZM358.6 115C358.6 114.2 358.4 113.6 358.1 113.2C357.8 112.8 357.3 112.6 356.7 112.6C356.1 112.6 355.6 112.8 355.3 113.2C355 113.6 354.8 114.2 354.8 115V116.9C354.8 117.7 355 118.3 355.3 118.7C355.6 119.1 356.1 119.4 356.7 119.4C357.3 119.4 357.7 119.2 358.1 118.7C358.4 118.3 358.6 117.6 358.6 116.8V115Z" fill="#1F2432"/>
<defs>
<clipPath id="clip0">
<rect width="93" height="60" fill="white" transform="translate(111 26)"/>
</clipPath>
<clipPath id="clip1">
<rect width="53" height="67" fill="white" transform="translate(316 18)"/>
</clipPath>
</defs>
</svg>
