<svg width="200" height="200" viewBox="0 0 200 200" fill="none" xmlns="http://www.w3.org/2000/svg">
<path fill-rule="evenodd" clip-rule="evenodd" d="M30.5557 0H200V169.444C178.77 188.446 150.734 200 120 200C53.7258 200 0 146.274 0 80C0 49.2658 11.5541 21.2303 30.5557 0Z" fill="#E6FBFC"/>
<path d="M85.4885 55.0723H118.624" stroke="#00DCE6" stroke-width="2"/>
<path d="M80.2891 55.0723H83.0418" stroke="#00DCE6" stroke-width="2"/>
<path d="M65.0977 75.5653L98.2327 75.4634" stroke="#00DCE6" stroke-width="2"/>
<path d="M60 75.5649H62.5489" stroke="#00DCE6" stroke-width="2"/>
<path d="M78.3518 95.9561H110.977" stroke="#00DCE6" stroke-width="2"/>
<path d="M72.6423 95.9561H75.701" stroke="#00DCE6" stroke-width="2"/>
<path d="M139.116 29.4819V34.8855C162.158 37.4344 180 56.9076 180 80.6629C180 106.049 159.405 126.644 134.019 126.644H95.6838" stroke="#00DCE6" stroke-width="2"/>
<path d="M94.1545 103.603C97.2132 108.802 101.189 113.39 105.879 117.06" stroke="#00DCE6" stroke-width="2"/>
<path d="M88.0374 83.2114C88.3432 87.5955 89.1588 91.7756 90.5862 95.7518" stroke="#00DCE6" stroke-width="2"/>
<path d="M91.6057 62.7188C89.8725 66.695 88.751 70.977 88.2412 75.463" stroke="#00DCE6" stroke-width="2"/>
<path d="M128.921 29.4819V34.8855C115.055 36.4148 103.025 44.1633 95.6838 55.1744" stroke="#00DCE6" stroke-width="2"/>
<path d="M134.019 88.3092C138.242 88.3092 141.665 84.8857 141.665 80.6627C141.665 76.4396 138.242 73.0161 134.019 73.0161C129.796 73.0161 126.372 76.4396 126.372 80.6627C126.372 84.8857 129.796 88.3092 134.019 88.3092Z" fill="#00DCE6"/>
<path d="M139.116 75.4631L159.609 55.0723" stroke="#00DCE6" stroke-width="4"/>
<path d="M175.82 43.9591L168.173 36.3125" stroke="#00DCE6" stroke-width="4"/>
<path d="M164.707 47.3238L172.353 39.6772" stroke="#00DCE6" stroke-width="4"/>
<path d="M165.013 62.7188C168.072 68.0204 169.805 74.1376 169.805 80.6627C169.805 100.442 153.798 116.449 134.019 116.449H123.823" stroke="#00DCE6" stroke-width="4"/>
<path d="M90.5864 126.644H85.3867" stroke="#00DCE6" stroke-width="2"/>
<path d="M147.273 20H120.357V30.0935H147.273V20Z" fill="#00DCE6"/>
</svg>
