<svg width="200" height="200" viewBox="0 0 200 200" fill="none" xmlns="http://www.w3.org/2000/svg">
<path fill-rule="evenodd" clip-rule="evenodd" d="M30.5557 0H200V169.444C178.77 188.446 150.734 200 120 200C53.7258 200 0 146.274 0 80C0 49.2658 11.5541 21.2303 30.5557 0Z" fill="#E6FBFC"/>
<path d="M150.682 29.0063C150.48 33.6572 146.537 37.3981 141.785 37.1959C137.033 36.9937 133.393 33.0505 133.595 28.3996C133.797 23.7487 137.741 20.0078 142.493 20.21C147.245 20.3111 150.884 24.2542 150.682 29.0063Z" stroke="#00DCE6" stroke-width="2"/>
<path d="M102.626 31.7362C102.222 30.624 101.918 29.5118 102.02 28.1975C102.222 23.5466 106.165 19.8056 110.917 20.0078C115.669 20.21 119.309 24.1532 119.107 28.8041C119.107 30.1185 118.702 31.3318 118.096 32.4439" stroke="#00DCE6" stroke-width="2"/>
<path d="M179.902 29.1073C179.7 33.7582 175.757 37.4992 171.005 37.297C166.253 37.0947 162.613 33.1516 162.815 28.5007C163.017 23.8498 166.961 20.1088 171.713 20.3111C176.363 20.4122 180.104 24.3553 179.902 29.1073Z" stroke="#00DCE6" stroke-width="2"/>
<path d="M119.6 58.0239C119.398 62.877 115.354 66.618 110.501 66.4158C105.647 66.2136 101.805 62.1693 102.008 57.3162C102.21 52.4631 106.254 48.7221 111.107 48.9243C115.96 49.1265 119.802 53.2719 119.6 58.0239Z" fill="#00DCE6"/>
<path d="M137.64 51.6542C139.055 50.7443 140.673 50.3398 142.493 50.3398C147.245 50.5421 150.885 54.4852 150.682 59.1361C150.48 63.787 146.537 67.528 141.785 67.3258C140.37 67.2246 139.055 66.9213 137.842 66.2136" stroke="#00DCE6" stroke-width="2"/>
<path d="M179.902 58.226C179.7 62.8769 175.757 66.6178 171.005 66.4156C166.253 66.2134 162.613 62.2702 162.815 57.6193C163.017 52.9684 166.961 49.2275 171.713 49.4297C176.363 49.6319 180.104 53.5751 179.902 58.226Z" stroke="#00DCE6" stroke-width="2"/>
<path d="M118.632 85.9292C119.036 86.9403 119.238 88.0525 119.137 89.2658C118.935 93.9167 114.992 97.6576 110.24 97.4554C105.488 97.2532 101.848 93.31 102.05 88.6591C102.05 87.648 102.252 86.7381 102.657 85.8281" stroke="#00DCE6" stroke-width="2"/>
<path d="M150.682 89.3671C150.48 94.018 146.537 97.7589 141.785 97.5567C137.033 97.3545 133.393 93.4114 133.595 88.7605C133.797 84.1095 137.741 80.3686 142.493 80.5708C147.245 80.6719 150.884 84.6151 150.682 89.3671Z" stroke="#00DCE6" stroke-width="2"/>
<path d="M179.902 89.4682C179.7 94.1191 175.757 97.86 171.005 97.6578C166.253 97.4556 162.613 93.5124 162.815 88.8615C163.017 84.2106 166.961 80.4697 171.713 80.6719C176.363 80.773 180.104 84.7162 179.902 89.4682Z" stroke="#00DCE6" stroke-width="2"/>
<path d="M179.685 118.91C179.859 114.167 176.2 110.183 171.513 110.011C166.826 109.84 162.885 113.545 162.711 118.288C162.538 123.031 166.196 127.016 170.884 127.187C175.571 127.359 179.512 123.653 179.685 118.91Z" stroke="#00DCE6" stroke-width="2"/>
<path d="M150.512 118.957C150.685 114.213 147.027 110.229 142.339 110.058C137.652 109.886 133.711 113.592 133.538 118.335C133.364 123.078 137.023 127.062 141.71 127.234C146.397 127.405 150.338 123.7 150.512 118.957Z" stroke="#00DCE6" stroke-width="2"/>
<path d="M110.543 127.181C105.892 126.979 102.151 123.036 102.353 118.284C102.556 113.532 106.499 109.892 111.15 110.094C115.8 110.296 119.541 114.239 119.339 118.991C119.137 123.743 115.194 127.282 110.543 127.181Z" stroke="#00DCE6" stroke-width="2" stroke-dasharray="3 3"/>
<path d="M110.037 79.6608C121.987 79.6608 131.674 69.9737 131.674 58.024C131.674 46.0743 121.987 36.3872 110.037 36.3872C98.0878 36.3872 88.4006 46.0743 88.4006 58.024C88.4006 69.9737 98.0878 79.6608 110.037 79.6608Z" stroke="#00DCE6" stroke-width="2"/>
<path d="M82.132 56.9118C82.6375 41.5436 95.6803 29.4108 111.048 30.0174C126.417 30.624 138.549 43.5657 138.044 59.035C137.538 74.5043 124.496 86.536 109.026 85.9293C103.668 85.7271 98.7135 84.1094 94.5681 81.3796L93.5571 80.6718L92.6471 81.4807L68.0782 104.331C66.1572 106.151 63.124 106.05 61.3041 104.129C59.4841 102.208 59.5852 99.1743 61.5063 97.3544L85.9741 74.6054L86.9851 73.6955L86.1763 72.5833C83.4464 68.1346 81.8287 62.6748 82.132 56.9118Z" stroke="#00DCE6" stroke-width="4"/>
<path d="M150.783 28.7031H162.916" stroke="#00DCE6" stroke-width="2"/>
<path d="M119 29L133 29" stroke="#00DCE6" stroke-width="2"/>
<path d="M119.44 119H133.595" stroke="#00DCE6" stroke-width="2"/>
<path d="M150.783 119H162.916" stroke="#00DCE6" stroke-width="2"/>
<path d="M142 81.1549V67" stroke="#00DCE6" stroke-width="2"/>
<path d="M171 49V37" stroke="#00DCE6" stroke-width="2"/>
<path d="M162.916 58.0239H150.783" stroke="#00DCE6" stroke-width="2"/>
<path d="M162.916 89H150.783" stroke="#00DCE6" stroke-width="2"/>
<path d="M171.005 97.4556V109.588" stroke="#00DCE6" stroke-width="2"/>
<path d="M111 36.7915V79.2563" stroke="#00DCE6" stroke-width="2" stroke-dasharray="3 3"/>
</svg>
