<svg width="200" height="200" viewBox="0 0 200 200" fill="none" xmlns="http://www.w3.org/2000/svg">
<path fill-rule="evenodd" clip-rule="evenodd" d="M30.5557 0H200V169.444C178.77 188.446 150.734 200 120 200C53.7258 200 0 146.274 0 80C0 49.2658 11.5541 21.2303 30.5557 0Z" fill="#E6FBFC"/>
<path d="M99.8597 25.2C99.8597 28.1 97.5597 30.4 94.6597 30.4C91.7597 30.4 89.4597 28.1 89.4597 25.2C89.4597 22.3 91.7597 20 94.6597 20C97.5597 20 99.8597 22.3 99.8597 25.2Z" stroke="#00DCE6" stroke-width="2"/>
<path d="M129.86 25.2C129.86 28.1 127.56 30.4 124.66 30.4C121.76 30.4 119.46 28.1 119.46 25.2C119.46 22.3 121.76 20 124.66 20C127.56 20 129.86 22.3 129.86 25.2Z" stroke="#00DCE6" stroke-width="2"/>
<path d="M159.86 25.2C159.86 28.1 157.56 30.4 154.66 30.4C151.76 30.4 149.46 28.1 149.46 25.2C149.46 22.3 151.76 20 154.66 20C157.56 20 159.86 22.3 159.86 25.2Z" stroke="#00DCE6" stroke-width="2"/>
<path d="M130.66 128.2H118.86V140H130.66V128.2Z" stroke="#00DCE6" stroke-width="2"/>
<path d="M154.99 90.2275L160.602 99.8064L170.251 94.3169" stroke="#00DCE6" stroke-width="2"/>
<path d="M156.029 104.896C146.911 117.671 130.529 123.945 114.398 119.623C93.7276 114.084 81.4498 92.6771 86.9885 72.0062L88.8262 65.1482" stroke="#00DCE6" stroke-width="2"/>
<path d="M93.2907 59.3044C102.408 46.5288 118.79 40.255 134.921 44.5773C155.592 50.116 167.87 71.5232 162.331 92.194L160.448 98.833" stroke="#00DCE6" stroke-width="2"/>
<path d="M94.3296 73.9736L88.7434 64.2981L79.068 69.8843" stroke="#00DCE6" stroke-width="2"/>
<path d="M136.46 82C136.46 88.6383 131.136 94 124.46 94C117.784 94 112.46 88.6383 112.46 82C112.46 75.3617 117.868 70 124.46 70C131.051 70 136.46 75.3617 136.46 82Z" stroke="#00DCE6" stroke-width="2"/>
<path d="M136.66 100.9L140.46 104.7L147.36 97.7999L143.56 93.9999L143.96 93.3999C145.06 91.5999 145.86 89.6999 146.36 87.6999L146.56 86.9999H151.96V77.2999H146.56L146.36 76.5999C145.86 74.5999 145.06 72.5999 143.96 70.8999L143.56 70.2999L147.36 66.4999L140.46 59.5999L136.66 63.2999L136.06 62.8999C134.26 61.7999 132.36 60.9999 130.36 60.4999L129.66 60.2999V54.8999H119.96V60.2999L119.26 60.4999C117.26 60.9999 115.26 61.7999 113.56 62.8999L112.66 63.2999L108.86 59.4999L101.96 66.3999L105.76 70.1999L105.36 70.7999C104.26 72.5999 103.46 74.4999 102.96 76.4999L102.76 77.1999H97.3596V86.8999H102.76L102.96 87.5999C103.46 89.5999 104.26 91.4999 105.36 93.2999L105.76 93.8999L101.96 97.6999L108.86 104.6L112.66 100.8L113.26 101.2C115.06 102.3 116.96 103.1 118.96 103.6L119.66 103.8V109.2H129.36V103.8L130.06 103.6C132.06 103.1 134.06 102.3 135.76 101.2L136.66 100.9ZM127.56 98.2999L126.66 98.3999L125.66 98.5999C125.36 98.5999 125.06 98.5999 124.66 98.5999C123.06 98.5999 121.36 98.3999 119.86 97.8999V97.9999L118.56 97.4999L117.96 97.2999C110.56 93.8999 106.66 85.6999 108.86 77.7999C111.06 69.9999 118.66 64.8999 126.76 65.8999C134.86 66.8999 140.96 73.6999 141.16 81.7999C141.36 89.7999 135.56 96.8999 127.56 98.2999Z" fill="#00DCE6"/>
<path d="M124.66 30.2002V43.2002" stroke="#00DCE6" stroke-width="2"/>
<path d="M150.46 29.2002L141.46 38.2002V46.5002" stroke="#00DCE6" stroke-width="2"/>
<path d="M98.4597 29.2002L107.46 38.2002V47.0002" stroke="#00DCE6" stroke-width="2"/>
<path d="M124.86 121.2V128.2" stroke="#00DCE6" stroke-width="2"/>
<path d="M100.26 128H88.4597V139.8H100.26V128Z" stroke="#00DCE6" stroke-width="2"/>
<path d="M94.4597 128V120L101.46 113.5" stroke="#00DCE6" stroke-width="2"/>
<path d="M149.66 128H161.46V139.8H149.66V128Z" stroke="#00DCE6" stroke-width="2"/>
<path d="M155.46 128V120L148.46 113.5" stroke="#00DCE6" stroke-width="2"/>
<path d="M174.46 82C174.46 64.0567 165.008 48.3211 150.812 39.5M74.4597 82C74.4597 96.2371 80.4102 109.084 89.9597 118.191" stroke="#00DCE6" stroke-width="2" stroke-miterlimit="16" stroke-dasharray="3 3"/>
</svg>
