<?xml version="1.0" encoding="utf-8"?>
<!-- Generator: Adobe Illustrator 15.0.0, SVG Export Plug-In . SVG Version: 6.00 Build 0)  -->
<!DOCTYPE svg PUBLIC "-//W3C//DTD SVG 1.1//EN" "http://www.w3.org/Graphics/SVG/1.1/DTD/svg11.dtd">
<svg version="1.1" id="图层_1" xmlns="http://www.w3.org/2000/svg" xmlns:xlink="http://www.w3.org/1999/xlink" x="0px" y="0px"
	 width="940px" height="440px" viewBox="0 0 940 440" enable-background="new 0 0 940 440" xml:space="preserve">
<ellipse fill="#00DCE6" cx="45" cy="239.996" rx="3.996" ry="3.996"/>
<ellipse fill="#00DCE6" cx="187" cy="218.996" rx="3.996" ry="3.996"/>
<ellipse fill="#00DCE6" cx="328" cy="218.996" rx="3.996" ry="3.996"/>
<ellipse fill="#00DCE6" cx="470" cy="218.996" rx="3.996" ry="3.996"/>
<circle fill="#00DCE6" cx="611" cy="219" r="4"/>
<circle fill="#00DCE6" cx="752" cy="219" r="4"/>
<circle fill="#00DCE6" cx="894" cy="219" r="4"/>
<path fill="none" stroke="#00DCE6" stroke-miterlimit="16" stroke-dasharray="1,1" d="M45,240v30h142.131l0.137-51"/>
<path fill="none" stroke="#00DCE6" stroke-miterlimit="16" stroke-dasharray="1,1" d="M187,219v51h141v-51"/>
<path fill="none" stroke="#00DCE6" stroke-miterlimit="16" stroke-dasharray="1,1" d="M328,219v51h142v-51"/>
<path fill="none" stroke="#00DCE6" stroke-miterlimit="16" stroke-dasharray="1,1" d="M470,219v51h141v-51"/>
<path fill="none" stroke="#00DCE6" stroke-miterlimit="16" stroke-dasharray="1,1" d="M611,219v51h141v-51"/>
<path fill="none" stroke="#00DCE6" stroke-miterlimit="16" stroke-dasharray="1,1" d="M752,219v51h142.268v-51"/>
<path fill="#00DCE6" d="M84.052,169.847c0-0.449-0.364-0.813-0.813-0.813s-0.813,0.364-0.813,0.813c0,0.45,0.364,0.814,0.813,0.814
	S84.052,170.297,84.052,169.847z"/>
<path fill="#00DCE6" d="M84.052,165.238c0-0.449-0.364-0.814-0.813-0.814s-0.813,0.365-0.813,0.814c0,0.449,0.364,0.813,0.813,0.813
	S84.052,165.687,84.052,165.238z"/>
<path fill="#00DCE6" d="M84.052,160.493c0-0.449-0.364-0.814-0.813-0.814s-0.813,0.365-0.813,0.814c0,0.449,0.364,0.813,0.813,0.813
	S84.052,160.942,84.052,160.493z"/>
<path fill="#00DCE6" d="M84.052,155.883c0-0.449-0.364-0.813-0.813-0.813s-0.813,0.364-0.813,0.813c0,0.45,0.364,0.814,0.813,0.814
	S84.052,156.333,84.052,155.883z"/>
<path fill="#00DCE6" d="M84.052,151.138c0-0.449-0.364-0.813-0.813-0.813s-0.813,0.364-0.813,0.813c0,0.45,0.364,0.814,0.813,0.814
	S84.052,151.588,84.052,151.138z"/>
<path fill="#00DCE6" d="M84.052,146.393c0-0.449-0.364-0.813-0.813-0.813s-0.813,0.364-0.813,0.813c0,0.45,0.364,0.814,0.813,0.814
	S84.052,146.843,84.052,146.393z"/>
<path fill="#00DCE6" d="M84.052,141.784c0-0.449-0.364-0.814-0.813-0.814s-0.813,0.365-0.813,0.814c0,0.449,0.364,0.813,0.813,0.813
	S84.052,142.233,84.052,141.784z"/>
<path fill="#00DCE6" d="M84.052,137.039c0-0.449-0.364-0.814-0.813-0.814s-0.813,0.365-0.813,0.814s0.364,0.813,0.813,0.813
	S84.052,137.488,84.052,137.039z"/>
<path fill="#00DCE6" d="M84.052,132.429c0-0.449-0.364-0.813-0.813-0.813s-0.813,0.364-0.813,0.813c0,0.45,0.364,0.814,0.813,0.814
	S84.052,132.879,84.052,132.429z"/>
<path fill="#00DCE6" d="M84.052,127.684c0-0.449-0.364-0.813-0.813-0.813s-0.813,0.364-0.813,0.813c0,0.45,0.364,0.814,0.813,0.814
	S84.052,128.134,84.052,127.684z"/>
<path fill="#00DCE6" d="M84.052,123.075c0-0.449-0.364-0.814-0.813-0.814s-0.813,0.365-0.813,0.814c0,0.449,0.364,0.813,0.813,0.813
	S84.052,123.524,84.052,123.075z"/>
<path fill="#00DCE6" d="M88.656,169.847c0-0.449-0.364-0.813-0.813-0.813s-0.813,0.364-0.813,0.813c0,0.45,0.364,0.814,0.813,0.814
	S88.656,170.297,88.656,169.847z"/>
<path fill="#00DCE6" d="M88.656,165.238c0-0.449-0.364-0.814-0.813-0.814s-0.813,0.365-0.813,0.814c0,0.449,0.364,0.813,0.813,0.813
	S88.656,165.687,88.656,165.238z"/>
<path fill="#00DCE6" d="M88.656,160.493c0-0.449-0.364-0.814-0.813-0.814s-0.813,0.365-0.813,0.814c0,0.449,0.364,0.813,0.813,0.813
	S88.656,160.942,88.656,160.493z"/>
<path fill="#00DCE6" d="M88.656,155.883c0-0.449-0.364-0.813-0.813-0.813s-0.813,0.364-0.813,0.813c0,0.45,0.364,0.814,0.813,0.814
	S88.656,156.333,88.656,155.883z"/>
<path fill="#00DCE6" d="M88.656,151.138c0-0.449-0.364-0.813-0.813-0.813s-0.813,0.364-0.813,0.813c0,0.45,0.364,0.814,0.813,0.814
	S88.656,151.588,88.656,151.138z"/>
<path fill="#00DCE6" d="M88.656,146.393c0-0.449-0.364-0.813-0.813-0.813s-0.813,0.364-0.813,0.813c0,0.45,0.364,0.814,0.813,0.814
	S88.656,146.843,88.656,146.393z"/>
<path fill="#00DCE6" d="M88.656,141.784c0-0.449-0.364-0.814-0.813-0.814s-0.813,0.365-0.813,0.814c0,0.449,0.364,0.813,0.813,0.813
	S88.656,142.233,88.656,141.784z"/>
<path fill="#00DCE6" d="M88.656,137.039c0-0.449-0.364-0.814-0.813-0.814s-0.813,0.365-0.813,0.814s0.364,0.813,0.813,0.813
	S88.656,137.488,88.656,137.039z"/>
<path fill="#00DCE6" d="M88.656,132.429c0-0.449-0.364-0.813-0.813-0.813s-0.813,0.364-0.813,0.813c0,0.45,0.364,0.814,0.813,0.814
	S88.656,132.879,88.656,132.429z"/>
<path fill="#00DCE6" d="M88.656,127.684c0-0.449-0.364-0.813-0.813-0.813s-0.813,0.364-0.813,0.813c0,0.45,0.364,0.814,0.813,0.814
	S88.656,128.134,88.656,127.684z"/>
<path fill="#00DCE6" d="M88.656,123.075c0-0.449-0.364-0.814-0.813-0.814s-0.813,0.365-0.813,0.814c0,0.449,0.364,0.813,0.813,0.813
	S88.656,123.524,88.656,123.075z"/>
<path fill="#00DCE6" d="M93.396,169.847c0-0.449-0.364-0.813-0.813-0.813s-0.813,0.364-0.813,0.813c0,0.45,0.364,0.814,0.813,0.814
	S93.396,170.297,93.396,169.847z"/>
<path fill="#00DCE6" d="M93.396,165.238c0-0.449-0.364-0.814-0.813-0.814s-0.813,0.365-0.813,0.814c0,0.449,0.364,0.813,0.813,0.813
	S93.396,165.687,93.396,165.238z"/>
<path fill="#00DCE6" d="M93.396,160.493c0-0.449-0.364-0.814-0.813-0.814s-0.813,0.365-0.813,0.814c0,0.449,0.364,0.813,0.813,0.813
	S93.396,160.942,93.396,160.493z"/>
<path fill="#00DCE6" d="M93.396,155.883c0-0.449-0.364-0.813-0.813-0.813s-0.813,0.364-0.813,0.813c0,0.45,0.364,0.814,0.813,0.814
	S93.396,156.333,93.396,155.883z"/>
<path fill="#00DCE6" d="M93.396,151.138c0-0.449-0.364-0.813-0.813-0.813s-0.813,0.364-0.813,0.813c0,0.45,0.364,0.814,0.813,0.814
	S93.396,151.588,93.396,151.138z"/>
<path fill="#00DCE6" d="M93.396,146.393c0-0.449-0.364-0.813-0.813-0.813s-0.813,0.364-0.813,0.813c0,0.45,0.364,0.814,0.813,0.814
	S93.396,146.843,93.396,146.393z"/>
<path fill="#00DCE6" d="M93.396,141.784c0-0.449-0.364-0.814-0.813-0.814s-0.813,0.365-0.813,0.814c0,0.449,0.364,0.813,0.813,0.813
	S93.396,142.233,93.396,141.784z"/>
<path fill="#00DCE6" d="M93.396,137.039c0-0.449-0.364-0.814-0.813-0.814s-0.813,0.365-0.813,0.814s0.364,0.813,0.813,0.813
	S93.396,137.488,93.396,137.039z"/>
<path fill="#00DCE6" d="M93.396,132.429c0-0.449-0.364-0.813-0.813-0.813s-0.813,0.364-0.813,0.813c0,0.45,0.364,0.814,0.813,0.814
	S93.396,132.879,93.396,132.429z"/>
<path fill="#00DCE6" d="M93.396,127.684c0-0.449-0.364-0.813-0.813-0.813s-0.813,0.364-0.813,0.813c0,0.45,0.364,0.814,0.813,0.814
	S93.396,128.134,93.396,127.684z"/>
<path fill="#00DCE6" d="M93.396,123.075c0-0.449-0.364-0.814-0.813-0.814s-0.813,0.365-0.813,0.814c0,0.449,0.364,0.813,0.813,0.813
	S93.396,123.524,93.396,123.075z"/>
<path fill="#00DCE6" d="M98,169.847c0-0.449-0.364-0.813-0.813-0.813s-0.813,0.364-0.813,0.813c0,0.45,0.364,0.814,0.813,0.814
	S98,170.297,98,169.847z"/>
<path fill="#00DCE6" d="M98,165.238c0-0.449-0.364-0.814-0.813-0.814s-0.813,0.365-0.813,0.814c0,0.449,0.364,0.813,0.813,0.813
	S98,165.687,98,165.238z"/>
<path fill="#00DCE6" d="M98,160.493c0-0.449-0.364-0.814-0.813-0.814s-0.813,0.365-0.813,0.814c0,0.449,0.364,0.813,0.813,0.813
	S98,160.942,98,160.493z"/>
<path fill="#00DCE6" d="M98,155.883c0-0.449-0.364-0.813-0.813-0.813s-0.813,0.364-0.813,0.813c0,0.45,0.364,0.814,0.813,0.814
	S98,156.333,98,155.883z"/>
<path fill="#00DCE6" d="M98,151.138c0-0.449-0.364-0.813-0.813-0.813s-0.813,0.364-0.813,0.813c0,0.45,0.364,0.814,0.813,0.814
	S98,151.588,98,151.138z"/>
<path fill="#00DCE6" d="M98,146.393c0-0.449-0.364-0.813-0.813-0.813s-0.813,0.364-0.813,0.813c0,0.45,0.364,0.814,0.813,0.814
	S98,146.843,98,146.393z"/>
<path fill="#00DCE6" d="M98,141.784c0-0.449-0.364-0.814-0.813-0.814s-0.813,0.365-0.813,0.814c0,0.449,0.364,0.813,0.813,0.813
	S98,142.233,98,141.784z"/>
<path fill="#00DCE6" d="M98,137.039c0-0.449-0.364-0.814-0.813-0.814s-0.813,0.365-0.813,0.814s0.364,0.813,0.813,0.813
	S98,137.488,98,137.039z"/>
<path fill="#00DCE6" d="M98,132.429c0-0.449-0.364-0.813-0.813-0.813s-0.813,0.364-0.813,0.813c0,0.45,0.364,0.814,0.813,0.814
	S98,132.879,98,132.429z"/>
<path fill="#00DCE6" d="M98,127.684c0-0.449-0.364-0.813-0.813-0.813s-0.813,0.364-0.813,0.813c0,0.45,0.364,0.814,0.813,0.814
	S98,128.134,98,127.684z"/>
<path fill="#00DCE6" d="M98,123.075c0-0.449-0.364-0.814-0.813-0.814s-0.813,0.365-0.813,0.814c0,0.449,0.364,0.813,0.813,0.813
	S98,123.524,98,123.075z"/>
<path fill="#00DCE6" d="M84.052,118.33c0-0.449-0.364-0.814-0.813-0.814s-0.813,0.365-0.813,0.814c0,0.449,0.364,0.813,0.813,0.813
	S84.052,118.779,84.052,118.33z"/>
<path fill="#00DCE6" d="M84.052,113.72c0-0.449-0.364-0.813-0.813-0.813s-0.813,0.364-0.813,0.813c0,0.45,0.364,0.814,0.813,0.814
	S84.052,114.17,84.052,113.72z"/>
<path fill="#00DCE6" d="M84.052,108.975c0-0.449-0.364-0.813-0.813-0.813s-0.813,0.364-0.813,0.813c0,0.45,0.364,0.814,0.813,0.814
	S84.052,109.425,84.052,108.975z"/>
<path fill="#00DCE6" d="M84.052,104.366c0-0.449-0.364-0.813-0.813-0.813s-0.813,0.364-0.813,0.813c0,0.449,0.364,0.813,0.813,0.813
	S84.052,104.815,84.052,104.366z"/>
<path fill="#00DCE6" d="M84.052,99.621c0-0.449-0.364-0.813-0.813-0.813s-0.813,0.364-0.813,0.813c0,0.449,0.364,0.813,0.813,0.813
	S84.052,100.07,84.052,99.621z"/>
<path fill="#00DCE6" d="M84.052,95.012c0-0.45-0.364-0.813-0.813-0.813s-0.813,0.364-0.813,0.813c0,0.449,0.364,0.813,0.813,0.813
	S84.052,95.461,84.052,95.012z"/>
<path fill="#00DCE6" d="M84.052,90.267c0-0.449-0.364-0.813-0.813-0.813s-0.813,0.364-0.813,0.813s0.364,0.813,0.813,0.813
	S84.052,90.716,84.052,90.267z"/>
<path fill="#00DCE6" d="M84.052,85.657c0-0.449-0.364-0.813-0.813-0.813s-0.813,0.364-0.813,0.813s0.364,0.813,0.813,0.813
	S84.052,86.106,84.052,85.657z"/>
<path fill="#00DCE6" d="M84.052,80.912c0-0.449-0.364-0.813-0.813-0.813s-0.813,0.364-0.813,0.813s0.364,0.813,0.813,0.813
	S84.052,81.361,84.052,80.912z"/>
<path fill="#00DCE6" d="M84.052,76.167c0-0.449-0.364-0.813-0.813-0.813s-0.813,0.364-0.813,0.813s0.364,0.813,0.813,0.813
	S84.052,76.616,84.052,76.167z"/>
<path fill="#00DCE6" d="M84.052,71.558c0-0.449-0.364-0.813-0.813-0.813s-0.813,0.364-0.813,0.813s0.364,0.813,0.813,0.813
	S84.052,72.007,84.052,71.558z"/>
<path fill="#00DCE6" d="M84.052,66.813c0-0.449-0.364-0.813-0.813-0.813s-0.813,0.364-0.813,0.813s0.364,0.813,0.813,0.813
	S84.052,67.262,84.052,66.813z"/>
<path fill="#00DCE6" d="M84.052,62.203c0-0.449-0.364-0.813-0.813-0.813s-0.813,0.364-0.813,0.813s0.364,0.813,0.813,0.813
	S84.052,62.652,84.052,62.203z"/>
<path fill="#00DCE6" d="M84.052,57.458c0-0.449-0.364-0.813-0.813-0.813s-0.813,0.364-0.813,0.813s0.364,0.813,0.813,0.813
	S84.052,57.907,84.052,57.458z"/>
<path fill="#00DCE6" d="M84.052,52.849c0-0.449-0.364-0.813-0.813-0.813s-0.813,0.364-0.813,0.813s0.364,0.813,0.813,0.813
	S84.052,53.298,84.052,52.849z"/>
<path fill="#00DCE6" d="M84.052,48.104c0-0.449-0.364-0.813-0.813-0.813s-0.813,0.364-0.813,0.813s0.364,0.813,0.813,0.813
	S84.052,48.553,84.052,48.104z"/>
<path fill="#00DCE6" d="M84.052,43.494c0-0.449-0.364-0.813-0.813-0.813s-0.813,0.364-0.813,0.813s0.364,0.813,0.813,0.813
	S84.052,43.943,84.052,43.494z"/>
<path fill="#00DCE6" d="M84.052,38.749c0-0.449-0.364-0.813-0.813-0.813s-0.813,0.364-0.813,0.813s0.364,0.813,0.813,0.813
	S84.052,39.198,84.052,38.749z"/>
<path fill="#00DCE6" d="M84.052,34.14c0-0.449-0.364-0.813-0.813-0.813s-0.813,0.364-0.813,0.813s0.364,0.813,0.813,0.813
	S84.052,34.589,84.052,34.14z"/>
<path fill="#00DCE6" d="M88.656,118.33c0-0.449-0.364-0.814-0.813-0.814s-0.813,0.365-0.813,0.814c0,0.449,0.364,0.813,0.813,0.813
	S88.656,118.779,88.656,118.33z"/>
<path fill="#00DCE6" d="M88.656,113.72c0-0.449-0.364-0.813-0.813-0.813s-0.813,0.364-0.813,0.813c0,0.45,0.364,0.814,0.813,0.814
	S88.656,114.17,88.656,113.72z"/>
<path fill="#00DCE6" d="M88.656,108.975c0-0.449-0.364-0.813-0.813-0.813s-0.813,0.364-0.813,0.813c0,0.45,0.364,0.814,0.813,0.814
	S88.656,109.425,88.656,108.975z"/>
<path fill="#00DCE6" d="M88.656,104.366c0-0.449-0.364-0.813-0.813-0.813s-0.813,0.364-0.813,0.813c0,0.449,0.364,0.813,0.813,0.813
	S88.656,104.815,88.656,104.366z"/>
<path fill="#00DCE6" d="M88.656,99.621c0-0.449-0.364-0.813-0.813-0.813s-0.813,0.364-0.813,0.813c0,0.449,0.364,0.813,0.813,0.813
	S88.656,100.07,88.656,99.621z"/>
<path fill="#00DCE6" d="M88.656,95.012c0-0.45-0.364-0.813-0.813-0.813s-0.813,0.364-0.813,0.813c0,0.449,0.364,0.813,0.813,0.813
	S88.656,95.461,88.656,95.012z"/>
<path fill="#00DCE6" d="M88.656,90.267c0-0.449-0.364-0.813-0.813-0.813s-0.813,0.364-0.813,0.813s0.364,0.813,0.813,0.813
	S88.656,90.716,88.656,90.267z"/>
<path fill="#00DCE6" d="M88.656,85.657c0-0.449-0.364-0.813-0.813-0.813s-0.813,0.364-0.813,0.813s0.364,0.813,0.813,0.813
	S88.656,86.106,88.656,85.657z"/>
<path fill="#00DCE6" d="M88.656,80.912c0-0.449-0.364-0.813-0.813-0.813s-0.813,0.364-0.813,0.813s0.364,0.813,0.813,0.813
	S88.656,81.361,88.656,80.912z"/>
<path fill="#00DCE6" d="M88.656,76.167c0-0.449-0.364-0.813-0.813-0.813s-0.813,0.364-0.813,0.813s0.364,0.813,0.813,0.813
	S88.656,76.616,88.656,76.167z"/>
<path fill="#00DCE6" d="M88.656,71.558c0-0.449-0.364-0.813-0.813-0.813s-0.813,0.364-0.813,0.813s0.364,0.813,0.813,0.813
	S88.656,72.007,88.656,71.558z"/>
<path fill="#00DCE6" d="M88.656,66.813c0-0.449-0.364-0.813-0.813-0.813s-0.813,0.364-0.813,0.813s0.364,0.813,0.813,0.813
	S88.656,67.262,88.656,66.813z"/>
<path fill="#00DCE6" d="M88.656,62.203c0-0.449-0.364-0.813-0.813-0.813s-0.813,0.364-0.813,0.813s0.364,0.813,0.813,0.813
	S88.656,62.652,88.656,62.203z"/>
<path fill="#00DCE6" d="M88.656,57.458c0-0.449-0.364-0.813-0.813-0.813s-0.813,0.364-0.813,0.813s0.364,0.813,0.813,0.813
	S88.656,57.907,88.656,57.458z"/>
<path fill="#00DCE6" d="M88.656,52.849c0-0.449-0.364-0.813-0.813-0.813s-0.813,0.364-0.813,0.813s0.364,0.813,0.813,0.813
	S88.656,53.298,88.656,52.849z"/>
<path fill="#00DCE6" d="M88.656,48.104c0-0.449-0.364-0.813-0.813-0.813s-0.813,0.364-0.813,0.813s0.364,0.813,0.813,0.813
	S88.656,48.553,88.656,48.104z"/>
<path fill="#00DCE6" d="M88.656,43.494c0-0.449-0.364-0.813-0.813-0.813s-0.813,0.364-0.813,0.813s0.364,0.813,0.813,0.813
	S88.656,43.943,88.656,43.494z"/>
<path fill="#00DCE6" d="M88.656,38.749c0-0.449-0.364-0.813-0.813-0.813s-0.813,0.364-0.813,0.813s0.364,0.813,0.813,0.813
	S88.656,39.198,88.656,38.749z"/>
<path fill="#00DCE6" d="M88.656,34.14c0-0.449-0.364-0.813-0.813-0.813s-0.813,0.364-0.813,0.813s0.364,0.813,0.813,0.813
	S88.656,34.589,88.656,34.14z"/>
<path fill="#00DCE6" d="M93.396,118.33c0-0.449-0.364-0.814-0.813-0.814s-0.813,0.365-0.813,0.814c0,0.449,0.364,0.813,0.813,0.813
	S93.396,118.779,93.396,118.33z"/>
<path fill="#00DCE6" d="M93.396,113.72c0-0.449-0.364-0.813-0.813-0.813s-0.813,0.364-0.813,0.813c0,0.45,0.364,0.814,0.813,0.814
	S93.396,114.17,93.396,113.72z"/>
<path fill="#00DCE6" d="M93.396,108.975c0-0.449-0.364-0.813-0.813-0.813s-0.813,0.364-0.813,0.813c0,0.45,0.364,0.814,0.813,0.814
	S93.396,109.425,93.396,108.975z"/>
<path fill="#00DCE6" d="M93.396,104.366c0-0.449-0.364-0.813-0.813-0.813s-0.813,0.364-0.813,0.813c0,0.449,0.364,0.813,0.813,0.813
	S93.396,104.815,93.396,104.366z"/>
<path fill="#00DCE6" d="M93.396,99.621c0-0.449-0.364-0.813-0.813-0.813s-0.813,0.364-0.813,0.813c0,0.449,0.364,0.813,0.813,0.813
	S93.396,100.07,93.396,99.621z"/>
<path fill="#00DCE6" d="M93.396,95.012c0-0.45-0.364-0.813-0.813-0.813s-0.813,0.364-0.813,0.813c0,0.449,0.364,0.813,0.813,0.813
	S93.396,95.461,93.396,95.012z"/>
<path fill="#00DCE6" d="M93.396,90.267c0-0.449-0.364-0.813-0.813-0.813s-0.813,0.364-0.813,0.813s0.364,0.813,0.813,0.813
	S93.396,90.716,93.396,90.267z"/>
<path fill="#00DCE6" d="M93.396,85.657c0-0.449-0.364-0.813-0.813-0.813s-0.813,0.364-0.813,0.813s0.364,0.813,0.813,0.813
	S93.396,86.106,93.396,85.657z"/>
<path fill="#00DCE6" d="M93.396,80.912c0-0.449-0.364-0.813-0.813-0.813s-0.813,0.364-0.813,0.813s0.364,0.813,0.813,0.813
	S93.396,81.361,93.396,80.912z"/>
<path fill="#00DCE6" d="M93.396,76.167c0-0.449-0.364-0.813-0.813-0.813s-0.813,0.364-0.813,0.813s0.364,0.813,0.813,0.813
	S93.396,76.616,93.396,76.167z"/>
<path fill="#00DCE6" d="M93.396,71.558c0-0.449-0.364-0.813-0.813-0.813s-0.813,0.364-0.813,0.813s0.364,0.813,0.813,0.813
	S93.396,72.007,93.396,71.558z"/>
<path fill="#00DCE6" d="M93.396,66.813c0-0.449-0.364-0.813-0.813-0.813s-0.813,0.364-0.813,0.813s0.364,0.813,0.813,0.813
	S93.396,67.262,93.396,66.813z"/>
<path fill="#00DCE6" d="M93.396,62.203c0-0.449-0.364-0.813-0.813-0.813s-0.813,0.364-0.813,0.813s0.364,0.813,0.813,0.813
	S93.396,62.652,93.396,62.203z"/>
<path fill="#00DCE6" d="M93.396,57.458c0-0.449-0.364-0.813-0.813-0.813s-0.813,0.364-0.813,0.813s0.364,0.813,0.813,0.813
	S93.396,57.907,93.396,57.458z"/>
<path fill="#00DCE6" d="M93.396,52.849c0-0.449-0.364-0.813-0.813-0.813s-0.813,0.364-0.813,0.813s0.364,0.813,0.813,0.813
	S93.396,53.298,93.396,52.849z"/>
<path fill="#00DCE6" d="M93.396,48.104c0-0.449-0.364-0.813-0.813-0.813s-0.813,0.364-0.813,0.813s0.364,0.813,0.813,0.813
	S93.396,48.553,93.396,48.104z"/>
<path fill="#00DCE6" d="M93.396,43.494c0-0.449-0.364-0.813-0.813-0.813s-0.813,0.364-0.813,0.813s0.364,0.813,0.813,0.813
	S93.396,43.943,93.396,43.494z"/>
<path fill="#00DCE6" d="M93.396,38.749c0-0.449-0.364-0.813-0.813-0.813s-0.813,0.364-0.813,0.813s0.364,0.813,0.813,0.813
	S93.396,39.198,93.396,38.749z"/>
<path fill="#00DCE6" d="M93.396,34.14c0-0.449-0.364-0.813-0.813-0.813s-0.813,0.364-0.813,0.813s0.364,0.813,0.813,0.813
	S93.396,34.589,93.396,34.14z"/>
<path fill="#00DCE6" d="M98,118.33c0-0.449-0.364-0.814-0.813-0.814s-0.813,0.365-0.813,0.814c0,0.449,0.364,0.813,0.813,0.813
	S98,118.779,98,118.33z"/>
<path fill="#00DCE6" d="M98,113.72c0-0.449-0.364-0.813-0.813-0.813s-0.813,0.364-0.813,0.813c0,0.45,0.364,0.814,0.813,0.814
	S98,114.17,98,113.72z"/>
<path fill="#00DCE6" d="M98,108.975c0-0.449-0.364-0.813-0.813-0.813s-0.813,0.364-0.813,0.813c0,0.45,0.364,0.814,0.813,0.814
	S98,109.425,98,108.975z"/>
<path fill="#00DCE6" d="M98,104.366c0-0.449-0.364-0.813-0.813-0.813s-0.813,0.364-0.813,0.813c0,0.449,0.364,0.813,0.813,0.813
	S98,104.815,98,104.366z"/>
<path fill="#00DCE6" d="M98,99.621c0-0.449-0.364-0.813-0.813-0.813s-0.813,0.364-0.813,0.813c0,0.449,0.364,0.813,0.813,0.813
	S98,100.07,98,99.621z"/>
<path fill="#00DCE6" d="M98,95.012c0-0.45-0.364-0.813-0.813-0.813s-0.813,0.364-0.813,0.813c0,0.449,0.364,0.813,0.813,0.813
	S98,95.461,98,95.012z"/>
<path fill="#00DCE6" d="M98,90.267c0-0.449-0.364-0.813-0.813-0.813s-0.813,0.364-0.813,0.813s0.364,0.813,0.813,0.813
	S98,90.716,98,90.267z"/>
<path fill="#00DCE6" d="M98,85.657c0-0.449-0.364-0.813-0.813-0.813s-0.813,0.364-0.813,0.813s0.364,0.813,0.813,0.813
	S98,86.106,98,85.657z"/>
<path fill="#00DCE6" d="M98,80.912c0-0.449-0.364-0.813-0.813-0.813s-0.813,0.364-0.813,0.813s0.364,0.813,0.813,0.813
	S98,81.361,98,80.912z"/>
<path fill="#00DCE6" d="M98,76.167c0-0.449-0.364-0.813-0.813-0.813s-0.813,0.364-0.813,0.813s0.364,0.813,0.813,0.813
	S98,76.616,98,76.167z"/>
<path fill="#00DCE6" d="M98,71.558c0-0.449-0.364-0.813-0.813-0.813s-0.813,0.364-0.813,0.813s0.364,0.813,0.813,0.813
	S98,72.007,98,71.558z"/>
<path fill="#00DCE6" d="M98,66.813c0-0.449-0.364-0.813-0.813-0.813s-0.813,0.364-0.813,0.813s0.364,0.813,0.813,0.813
	S98,67.262,98,66.813z"/>
<path fill="#00DCE6" d="M98,62.203c0-0.449-0.364-0.813-0.813-0.813s-0.813,0.364-0.813,0.813s0.364,0.813,0.813,0.813
	S98,62.652,98,62.203z"/>
<path fill="#00DCE6" d="M98,57.458c0-0.449-0.364-0.813-0.813-0.813s-0.813,0.364-0.813,0.813s0.364,0.813,0.813,0.813
	S98,57.907,98,57.458z"/>
<path fill="#00DCE6" d="M98,52.849c0-0.449-0.364-0.813-0.813-0.813s-0.813,0.364-0.813,0.813s0.364,0.813,0.813,0.813
	S98,53.298,98,52.849z"/>
<path fill="#00DCE6" d="M98,48.104c0-0.449-0.364-0.813-0.813-0.813s-0.813,0.364-0.813,0.813s0.364,0.813,0.813,0.813
	S98,48.553,98,48.104z"/>
<path fill="#00DCE6" d="M98,43.494c0-0.449-0.364-0.813-0.813-0.813s-0.813,0.364-0.813,0.813s0.364,0.813,0.813,0.813
	S98,43.943,98,43.494z"/>
<path fill="#00DCE6" d="M98,38.749c0-0.449-0.364-0.813-0.813-0.813s-0.813,0.364-0.813,0.813s0.364,0.813,0.813,0.813
	S98,39.198,98,38.749z"/>
<path fill="#00DCE6" d="M98,34.14c0-0.449-0.364-0.813-0.813-0.813s-0.813,0.364-0.813,0.813s0.364,0.813,0.813,0.813
	S98,34.589,98,34.14z"/>
<circle fill="#1F2432" cx="31" cy="31" r="31"/>
<path fill="none" stroke="#FFFFFF" d="M46,31.2v-4.6l-6.95,4.6v-4.6l-6.9,4.6v-4.6l-6.95,4.6v13H46V31.2z"/>
<path fill="none" stroke="#FFFFFF" d="M23.601,22.4h-5.7"/>
<path fill="none" stroke="#FFFFFF" d="M24.25,31.2L23.3,18h-5.1l-0.95,13.2"/>
<path fill="none" stroke="#FFFFFF" d="M31.45,35.049H29v2.45h2.45V35.049z"/>
<path fill="none" stroke="#FFFFFF" d="M36.45,35.049H34v2.45h2.45V35.049z"/>
<path fill="none" stroke="#FFFFFF" d="M41.45,35H39v2.45h2.45V35z"/>
<path fill="none" stroke="#FFFFFF" d="M25.2,31.2H16v13h9.2V31.2z"/>
<ellipse fill="#00DCE6" fill-opacity="0.2" cx="62" cy="30.987" rx="14" ry="13.987"/>
<ellipse fill="#00DCE6" cx="62" cy="30.987" rx="3.996" ry="3.996"/>
<circle fill="#1F2432" cx="31" cy="102" r="31"/>
<path fill="none" stroke="#FFFFFF" d="M46,102.2v-4.6l-6.95,4.6v-4.6l-6.9,4.6v-4.6l-6.95,4.6v13H46V102.2z"/>
<path fill="none" stroke="#FFFFFF" d="M23.601,93.4h-5.7"/>
<path fill="none" stroke="#FFFFFF" d="M24.25,102.2L23.3,89h-5.1l-0.95,13.2"/>
<path fill="none" stroke="#FFFFFF" d="M31.45,106.049H29v2.45h2.45V106.049z"/>
<path fill="none" stroke="#FFFFFF" d="M36.45,106.049H34v2.45h2.45V106.049z"/>
<path fill="none" stroke="#FFFFFF" d="M41.45,106H39v2.45h2.45V106z"/>
<path fill="none" stroke="#FFFFFF" d="M25.2,102.2H16v13h9.2V102.2z"/>
<ellipse fill="#00DCE6" fill-opacity="0.2" cx="62" cy="101.987" rx="14" ry="13.987"/>
<ellipse fill="#00DCE6" cx="62" cy="101.987" rx="3.996" ry="3.996"/>
<circle fill="#1F2432" cx="31" cy="173" r="31"/>
<path fill="none" stroke="#FFFFFF" d="M46,173.2v-4.6l-6.95,4.6v-4.6l-6.9,4.6v-4.6l-6.95,4.6v13H46V173.2z"/>
<path fill="none" stroke="#FFFFFF" d="M23.601,164.4h-5.7"/>
<path fill="none" stroke="#FFFFFF" d="M24.25,173.2L23.3,160h-5.1l-0.95,13.2"/>
<path fill="none" stroke="#FFFFFF" d="M31.45,177.049H29v2.45h2.45V177.049z"/>
<path fill="none" stroke="#FFFFFF" d="M36.45,177.049H34v2.45h2.45V177.049z"/>
<path fill="none" stroke="#FFFFFF" d="M41.45,177H39v2.45h2.45V177z"/>
<path fill="none" stroke="#FFFFFF" d="M25.2,173.2H16v13h9.2V173.2z"/>
<ellipse fill="#00DCE6" fill-opacity="0.2" cx="62" cy="172.987" rx="14" ry="13.987"/>
<ellipse fill="#00DCE6" cx="62" cy="172.987" rx="3.996" ry="3.996"/>
<circle fill="#00DCE6" fill-opacity="0.2" cx="119" cy="268" r="30"/>
<circle fill="#00DCE6" cx="119" cy="268" r="22"/>
<path fill="none" stroke="#FFFFFF" stroke-width="1.5" d="M109,276v-21h15v21H109z"/>
<path fill="#FFFFFF" d="M111.75,277.468v2.252v0.751h0.75h15.165h0.75v-0.751V259.5v-0.75h-0.75h-2.253v1.5h1.503v18.72H113.25
	v-1.502H111.75z"/>
<line fill="none" stroke="#FFFFFF" x1="112" y1="259.5" x2="119" y2="259.5"/>
<line fill="none" stroke="#FFFFFF" x1="112" y1="262.5" x2="119" y2="262.5"/>
<line fill="none" stroke="#FFFFFF" x1="112" y1="265.5" x2="119" y2="265.5"/>
<circle fill="#00DCE6" fill-opacity="0.2" cx="261" cy="268" r="30"/>
<circle fill="#00DCE6" cx="261" cy="268" r="22"/>
<path fill="none" stroke="#FFFFFF" stroke-width="1.5" d="M251,276v-21h15v21H251z"/>
<path fill="#FFFFFF" d="M253.75,277.468v2.252v0.751h0.75h15.165h0.75v-0.751V259.5v-0.75h-0.75h-2.253v1.5h1.503v18.72H255.25
	v-1.502H253.75z"/>
<line fill="none" stroke="#FFFFFF" x1="254" y1="259.5" x2="261" y2="259.5"/>
<line fill="none" stroke="#FFFFFF" x1="254" y1="262.5" x2="261" y2="262.5"/>
<line fill="none" stroke="#FFFFFF" x1="254" y1="265.5" x2="261" y2="265.5"/>
<circle fill="#00DCE6" fill-opacity="0.2" cx="404" cy="268" r="30"/>
<circle fill="#00DCE6" cx="404" cy="268" r="22"/>
<path fill="none" stroke="#FFFFFF" stroke-width="1.5" d="M394,276v-21h15v21H394z"/>
<path fill="#FFFFFF" d="M396.75,277.468v2.252v0.751h0.75h15.165h0.75v-0.751V259.5v-0.75h-0.75h-2.253v1.5h1.503v18.72H398.25
	v-1.502H396.75z"/>
<line fill="none" stroke="#FFFFFF" x1="397" y1="259.5" x2="404" y2="259.5"/>
<line fill="none" stroke="#FFFFFF" x1="397" y1="262.5" x2="404" y2="262.5"/>
<line fill="none" stroke="#FFFFFF" x1="397" y1="265.5" x2="404" y2="265.5"/>
<circle fill="#00DCE6" fill-opacity="0.2" cx="545" cy="268" r="30"/>
<circle fill="#00DCE6" cx="545" cy="268" r="22"/>
<path fill="none" stroke="#FFFFFF" stroke-width="1.5" d="M535,276v-21h15v21H535z"/>
<path fill="#FFFFFF" d="M537.75,277.468v2.252v0.751h0.75h15.165h0.75v-0.751V259.5v-0.75h-0.75h-2.253v1.5h1.503v18.72H539.25
	v-1.502H537.75z"/>
<line fill="none" stroke="#FFFFFF" x1="538" y1="259.5" x2="545" y2="259.5"/>
<line fill="none" stroke="#FFFFFF" x1="538" y1="262.5" x2="545" y2="262.5"/>
<line fill="none" stroke="#FFFFFF" x1="538" y1="265.5" x2="545" y2="265.5"/>
<circle fill="#00DCE6" fill-opacity="0.2" cx="687" cy="268" r="30"/>
<circle fill="#00DCE6" cx="687" cy="268" r="22"/>
<path fill="none" stroke="#FFFFFF" stroke-width="1.5" d="M677,276v-21h15v21H677z"/>
<path fill="#FFFFFF" d="M679.75,277.468v2.252v0.751h0.75h15.165h0.75v-0.751V259.5v-0.75h-0.75h-2.253v1.5h1.503v18.72H681.25
	v-1.502H679.75z"/>
<line fill="none" stroke="#FFFFFF" x1="680" y1="259.5" x2="687" y2="259.5"/>
<line fill="none" stroke="#FFFFFF" x1="680" y1="262.5" x2="687" y2="262.5"/>
<line fill="none" stroke="#FFFFFF" x1="680" y1="265.5" x2="687" y2="265.5"/>
<circle fill="#00DCE6" fill-opacity="0.2" cx="827" cy="268" r="30"/>
<circle fill="#00DCE6" cx="827" cy="268" r="22"/>
<path fill="none" stroke="#FFFFFF" stroke-width="1.5" d="M817,276v-21h15v21H817z"/>
<path fill="#FFFFFF" d="M819.75,277.468v2.252v0.751h0.75h15.165h0.75v-0.751V259.5v-0.75h-0.75h-2.253v1.5h1.503v18.72H821.25
	v-1.502H819.75z"/>
<line fill="none" stroke="#FFFFFF" x1="820" y1="259.5" x2="827" y2="259.5"/>
<line fill="none" stroke="#FFFFFF" x1="820" y1="262.5" x2="827" y2="262.5"/>
<line fill="none" stroke="#FFFFFF" x1="820" y1="265.5" x2="827" y2="265.5"/>
<line fill="none" stroke="#00DCE6" x1="100.5" y1="173" x2="100.5" y2="31"/>
<path fill="#353A47" d="M470,0L470,0c24.853,0,45,20.147,45,45v114c0,24.853-20.147,45-45,45l0,0c-24.853,0-45-20.147-45-45V45
	C425,20.147,445.147,0,470,0z"/>
<circle fill="#1F2432" cx="470" cy="159" r="45"/>
<path fill="none" stroke="#00DCE6" stroke-linecap="round" stroke-miterlimit="10" d="M500,50.018h-60v27.707h60V50.018z"/>
<path fill="none" stroke="#00DCE6" stroke-linecap="square" stroke-miterlimit="10" d="M446,53.017v22.236"/>
<path fill="none" stroke="#00DCE6" stroke-linecap="square" stroke-miterlimit="10" d="M454,53.017v22.236"/>
<path fill="none" stroke="#00DCE6" stroke-linecap="square" stroke-miterlimit="10" d="M462,53.017v22.236"/>
<path fill="none" stroke="#00DCE6" stroke-linecap="square" stroke-miterlimit="10" d="M470,53.017v22.236"/>
<path fill="none" stroke="#00DCE6" stroke-linecap="square" stroke-miterlimit="10" d="M478,53.017v22.236"/>
<path fill="none" stroke="#00DCE6" stroke-linecap="square" stroke-miterlimit="10" d="M486,53.017v22.236"/>
<path fill="none" stroke="#00DCE6" stroke-linecap="square" stroke-miterlimit="10" d="M494,53v22.236"/>
<path fill="none" stroke="#00DCE6" stroke-linecap="round" stroke-miterlimit="10" d="M443.104,50.017l26.689-7.112"/>
<path fill="none" stroke="#00DCE6" stroke-linecap="round" stroke-miterlimit="10" d="M469.793,42.905l26.897,7.112"/>
<path fill="none" stroke="#00DCE6" stroke-linecap="round" stroke-miterlimit="10" d="M473.121,32h-7.242L463,27h13L473.121,32z"/>
<path fill="none" stroke="#00DCE6" stroke-linecap="square" stroke-miterlimit="10" d="M467,42.504c0.662,0.88,1.77,1.494,3,1.494
	c2.176,0,3.878-1.476,3.878-3.5S472.176,37,470,37v-4"/>
<path fill="#353A47" d="M611,0L611,0c24.853,0,45,20.147,45,45v114c0,24.853-20.147,45-45,45l0,0c-24.853,0-45-20.147-45-45V45
	C566,20.147,586.147,0,611,0z"/>
<circle fill="#1F2432" cx="611" cy="159" r="45"/>
<path fill="none" stroke="#00DCE6" stroke-miterlimit="10" d="M636.5,42.205L611,30l-25.8,12v32h4.8h42.4h4.1V42.205z"/>
<path fill="none" stroke="#00DCE6" stroke-miterlimit="10" d="M581,43.911L610.9,30L641,44.329"/>
<path fill="none" stroke="#00DCE6" stroke-miterlimit="10" d="M620,64.519h-9v9.413h9V64.519z"/>
<path fill="none" stroke="#00DCE6" stroke-miterlimit="10" d="M611,64.519h-9v9.413h9V64.519z"/>
<path fill="none" stroke="#00DCE6" stroke-miterlimit="10" d="M602,64.519h-9v9.413h9V64.519z"/>
<path fill="none" stroke="#00DCE6" stroke-miterlimit="10" d="M629,64.519h-9v9.413h9V64.519z"/>
<path fill="none" stroke="#00DCE6" stroke-miterlimit="10" d="M629,64.519h-9v9.413h9V64.519z"/>
<path fill="none" stroke="#00DCE6" stroke-miterlimit="10" d="M606.5,55h-9v9.413h9V55z"/>
<path fill="none" stroke="#00DCE6" stroke-miterlimit="10" d="M624.5,55h-9v9.413h9V55z"/>
<path fill="none" stroke="#00DCE6" stroke-miterlimit="10" d="M615.5,55h-9v9.413h9V55z"/>
<path fill="none" stroke="#00DCE6" stroke-miterlimit="10" d="M615.5,55h-9v9.413h9V55z"/>
<path fill="none" stroke="#00DCE6" stroke-miterlimit="10" d="M602,55v3.138"/>
<path fill="none" stroke="#00DCE6" stroke-miterlimit="10" d="M597.5,64.519v3.033"/>
<path fill="none" stroke="#00DCE6" stroke-miterlimit="10" d="M606.5,64.519v3.033"/>
<path fill="none" stroke="#00DCE6" stroke-miterlimit="10" d="M615.5,64.519v3.033"/>
<path fill="none" stroke="#00DCE6" stroke-miterlimit="10" d="M624.5,64.519v3.033"/>
<path fill="none" stroke="#00DCE6" stroke-miterlimit="10" d="M611,55v3.138"/>
<path fill="none" stroke="#00DCE6" stroke-miterlimit="10" d="M615.5,46h-9v9h9V46z"/>
<path fill="none" stroke="#00DCE6" stroke-miterlimit="10" d="M611,46v3.138"/>
<path fill="none" stroke="#00DCE6" stroke-miterlimit="10" d="M620,55v3.138"/>
<path fill="#353A47" d="M752,0L752,0c24.853,0,45,20.147,45,45v114c0,24.853-20.147,45-45,45l0,0c-24.853,0-45-20.147-45-45V45
	C707,20.147,727.147,0,752,0z"/>
<circle fill="#1F2432" cx="752" cy="159" r="45"/>
<path fill="none" stroke="#00DCE6" stroke-miterlimit="10" d="M769.6,37.6H760.7v15.2h17.8v-2L769.6,37.6z"/>
<path fill="none" stroke="#00DCE6" stroke-miterlimit="10" d="M765.6,64.3c0,2.9,2.4,5.3,5.301,5.3c2.899,0,5.3-2.4,5.3-5.3
	c0-2.9-2.4-5.3-5.3-5.3C768,59,765.6,61.4,765.6,64.3z"/>
<path fill="none" stroke="#00DCE6" stroke-miterlimit="10" d="M767.8,64.3c0,1.7,1.4,3.1,3.101,3.1c1.699,0,3.1-1.4,3.1-3.1
	c0-1.7-1.4-3.1-3.1-3.1C769.2,61.2,767.8,62.6,767.8,64.3z"/>
<path fill="none" stroke="#00DCE6" stroke-miterlimit="10" d="M728.1,64.2c0,2.9,2.301,5.3,5.2,5.4c2.9,0,5.3-2.3,5.4-5.2
	c0-2.9-2.3-5.3-5.2-5.4C730.5,59,728.1,61.3,728.1,64.2z"/>
<path fill="none" stroke="#00DCE6" stroke-miterlimit="10" d="M758.3,35h12.9L782,50.8v12.1h-6c-0.6-2.2-2.7-3.8-5.1-3.8
	c-2.4,0-4.4,1.6-5.101,3.8h-7.5H738.4c-0.601-2.2-2.601-3.8-5-3.8c-2.4,0-4.5,1.6-5.101,3.8H722V35.1L758.3,35z"/>
<path fill="none" stroke="#00DCE6" stroke-miterlimit="10" d="M730.3,64.3c0,1.7,1.3,3.1,3,3.1s3.101-1.3,3.101-3
	c0-1.7-1.301-3.1-3-3.1C731.7,61.2,730.3,62.6,730.3,64.3z"/>
<path fill="none" stroke="#00DCE6" stroke-miterlimit="10" d="M754.8,40h-26.7"/>
<path fill="none" stroke="#00DCE6" stroke-miterlimit="10" d="M754.8,45h-26.7"/>
<path fill="none" stroke="#00DCE6" stroke-miterlimit="10" d="M754.8,50h-26.7"/>
<path fill="#353A47" d="M187,0L187,0c24.853,0,45,20.147,45,45v114c0,24.853-20.147,45-45,45l0,0c-24.853,0-45-20.147-45-45V45
	C142,20.147,162.147,0,187,0z"/>
<circle fill="#1F2432" cx="187" cy="159" r="45"/>
<path fill="none" stroke="#00DCE6" d="M171.1,38.647v15.924h-10.6V38.647"/>
<path fill="none" stroke="#00DCE6" d="M192.3,38.647v15.924h-10.6V38.647"/>
<path fill="none" stroke="#00DCE6" d="M213.5,38.647v15.924h-10.6V38.647"/>
<path fill="none" stroke="#00DCE6" d="M217,54.571h-60V75.1h60V54.571z"/>
<path fill="none" stroke="#00DCE6" d="M198.2,32.22h-22.3v6.14h22.3V32.22z"/>
<path fill="none" stroke="#00DCE6" d="M187,28v4.221"/>
<path fill="none" stroke="#00DCE6" d="M197,59.656h-20v15.348h20V59.656z"/>
<path fill="none" stroke="#00DCE6" d="M197,59.656h-9.9v15.444h9.9V59.656z"/>
<path fill="none" stroke="#00DCE6" d="M213.5,38.36h-53v3.933h53V38.36z"/>
<path fill="none" stroke="#00DCE6" d="M190.2,65.507v4.604"/>
<path fill="none" stroke="#00DCE6" d="M184.2,65.507v4.604"/>
<path fill="none" stroke="#00DCE6" d="M166.8,59.656h-5.2v11.415h5.2V59.656z"/>
<path fill="none" stroke="#00DCE6" d="M212.1,59.656h-5.2v11.415h5.2V59.656z"/>
<path fill="none" stroke="#00DCE6" d="M178.4,35.29h16.4"/>
<path fill="#353A47" d="M328,0L328,0c24.853,0,45,20.147,45,45v114c0,24.853-20.147,45-45,45l0,0c-24.853,0-45-20.147-45-45V45
	C283,20.147,303.147,0,328,0z"/>
<circle fill="#1F2432" cx="328" cy="159" r="45"/>
<path fill="none" stroke="#00DCE6" stroke-miterlimit="10" d="M325.451,37l23.916,0.177c5.089,0.088,7.633,3.617,7.633,7.146
	s-2.748,7.059-7.735,6.97l-16.485-0.176c-1.73,0-3.257,0.529-4.275,1.588c-0.916,0.971-1.424,2.294-1.424,3.706
	c0,2.559,1.729,5.294,5.597,5.382l7.735,0.088c2.34,0,4.376,0.882,5.8,2.294c1.222,1.324,1.832,3,1.832,4.853
	c0,3.529-2.748,7.058-7.734,6.97L311,75.734"/>
<path fill="none" stroke="#00DCE6" stroke-miterlimit="10" d="M313.361,63.225c0-3.965-3.172-7.225-7.137-7.225
	S299,59.172,299,63.137c0,1.145,0.264,2.203,0.705,3.26c0.793,1.586,3.876,6.079,5.639,8.546L306.048,76l0.705-0.969
	c1.851-2.467,5.022-6.96,5.815-8.458C313.097,65.427,313.361,64.37,313.361,63.225z"/>
<path fill="none" stroke="#00DCE6" stroke-miterlimit="10" d="M306.136,66.133c1.85,0,3.349-1.499,3.349-3.348
	s-1.499-3.348-3.349-3.348c-1.849,0-3.348,1.499-3.348,3.348S304.287,66.133,306.136,66.133z"/>
<path fill="none" stroke="#00DCE6" stroke-miterlimit="10" d="M322.925,34.502c0-3.568-2.854-6.502-6.423-6.502
	S310,30.854,310,34.423c0,1.031,0.238,1.982,0.634,2.934c0.714,1.427,3.489,5.471,5.075,7.691L316.344,46l0.634-0.872
	c1.665-2.221,4.521-6.265,5.233-7.612C322.688,36.484,322.925,35.533,322.925,34.502z"/>
<path fill="none" stroke="#00DCE6" stroke-miterlimit="10" d="M316.502,37.118c1.665,0,3.014-1.349,3.014-3.013
	s-1.349-3.013-3.014-3.013c-1.664,0-3.013,1.349-3.013,3.013S314.838,37.118,316.502,37.118z"/>
<path fill="#353A47" d="M895,0L895,0c24.853,0,45,20.147,45,45v114c0,24.853-20.147,45-45,45l0,0c-24.853,0-45-20.147-45-45V45
	C850,20.147,870.147,0,895,0z"/>
<circle fill="#1F2432" cx="895" cy="159" r="45"/>
<path fill="none" stroke="#00DCE6" stroke-miterlimit="10" d="M912.5,74H868V47h10"/>
<path fill="none" stroke="#00DCE6" stroke-miterlimit="10" d="M912,47h10v27h-10"/>
<path fill="none" stroke="#00DCE6" stroke-miterlimit="10" d="M904,72V52"/>
<path fill="none" stroke="#00DCE6" stroke-miterlimit="10" d="M886,72V52"/>
<path fill="none" stroke="#00DCE6" stroke-miterlimit="10" d="M895,52v17"/>
<path fill="none" stroke="#00DCE6" stroke-miterlimit="10" d="M868.4,68.2h10.1"/>
<path fill="none" stroke="#00DCE6" stroke-miterlimit="10" d="M911.7,68.2h10.2"/>
<path fill="none" stroke="#00DCE6" stroke-miterlimit="10" d="M868.229,47H865V37h11"/>
<path fill="none" stroke="#00DCE6" stroke-miterlimit="10" d="M914,37h11v10h-3.157"/>
<path fill="none" stroke="#00DCE6" stroke-miterlimit="10" d="M878.5,68.2h8"/>
<path fill="none" stroke="#00DCE6" stroke-miterlimit="10" d="M904.1,68.2h7.601"/>
<path fill="none" stroke="#00DCE6" stroke-miterlimit="10" d="M906,72h-22v2h22V72z"/>
<path fill="none" stroke="#00DCE6" stroke-miterlimit="10" d="M904,70h-18v2h18V70z"/>
<path fill="none" stroke="#00DCE6" stroke-miterlimit="10" d="M892.9,61.1v4.4"/>
<path fill="none" stroke="#00DCE6" stroke-miterlimit="10" d="M897.7,61.1v4.4"/>
<path fill="none" stroke="#00DCE6" stroke-miterlimit="10" d="M914,31h-38v16h38V31z"/>
<path fill="none" stroke="#00DCE6" stroke-miterlimit="10" d="M906,47h-21v5h21V47z"/>
<path fill="none" stroke="#00DCE6" stroke-miterlimit="10" d="M886,37c0,2.778-2.234,5-5,5s-5-2.222-5-5"/>
<path fill="none" stroke="#00DCE6" stroke-miterlimit="10" d="M895,37c0,2.778-2.011,5-4.5,5s-4.5-2.222-4.5-5"/>
<path fill="none" stroke="#00DCE6" stroke-miterlimit="10" d="M904,37c0,2.778-2.011,5-4.5,5s-4.5-2.222-4.5-5"/>
<path fill="none" stroke="#00DCE6" stroke-miterlimit="10" d="M914,37c0,2.778-2.234,5-5,5s-5-2.222-5-5"/>
<path fill="#00DCE6" d="M62,173.5h39v-1H62V173.5z M62,31.5c0.03,0,0.06,0,0.089,0s0.059,0,0.089,0s0.059,0,0.089,0
	c0.029,0,0.059,0,0.088,0c0.03,0,0.06,0,0.089,0s0.059,0,0.088,0s0.059,0,0.088,0s0.059,0,0.088,0s0.059,0,0.088,0s0.059,0,0.088,0
	s0.059,0,0.088,0c0.029,0,0.058,0,0.087,0s0.058,0,0.087,0c0.029,0,0.058,0,0.087,0c0.029,0,0.058,0,0.087,0
	c0.029,0,0.058,0,0.087,0s0.058,0,0.087,0c0.029,0,0.058,0,0.086,0s0.058,0,0.086,0s0.058,0,0.086,0s0.058,0,0.086,0
	s0.057,0,0.086,0s0.057,0,0.086,0s0.057,0,0.086,0c0.028,0,0.057,0,0.085,0c0.029,0,0.057,0,0.086,0c0.028,0,0.057,0,0.085,0
	c0.029,0,0.057,0,0.085,0s0.057,0,0.085,0s0.057,0,0.085,0s0.057,0,0.085,0s0.057,0,0.085,0c0.028,0,0.056,0,0.084,0
	c0.028,0,0.056,0,0.084,0c0.028,0,0.056,0,0.084,0c0.028,0,0.056,0,0.084,0c0.028,0,0.056,0,0.084,0s0.056,0,0.084,0
	s0.056,0,0.083,0s0.056,0,0.084,0s0.056,0,0.083,0s0.056,0,0.083,0s0.055,0,0.083,0s0.056,0,0.083,0c0.028,0,0.056,0,0.083,0
	c0.027,0,0.055,0,0.083,0c0.028,0,0.055,0,0.083,0c0.027,0,0.055,0,0.083,0s0.055,0,0.083,0s0.055,0,0.083,0
	c0.027,0,0.055,0,0.082,0s0.055,0,0.082,0s0.055,0,0.082,0s0.055,0,0.082,0s0.055,0,0.082,0c0.027,0,0.054,0,0.082,0
	s0.054,0,0.082,0s0.054,0,0.082,0c0.027,0,0.054,0,0.081,0c0.027,0,0.054,0,0.081,0c0.027,0,0.054,0,0.082,0
	c0.027,0,0.054,0,0.081,0s0.054,0,0.081,0s0.054,0,0.081,0s0.054,0,0.081,0s0.054,0,0.081,0s0.054,0,0.081,0s0.053,0,0.08,0
	s0.054,0,0.08,0c0.027,0,0.054,0,0.08,0c0.027,0,0.053,0,0.08,0c0.026,0,0.053,0,0.08,0c0.027,0,0.053,0,0.08,0
	c0.026,0,0.053,0,0.08,0c0.026,0,0.053,0,0.079,0c0.027,0,0.053,0,0.08,0s0.053,0,0.079,0s0.053,0,0.079,0s0.053,0,0.079,0
	s0.053,0,0.079,0s0.053,0,0.079,0c0.026,0,0.052,0,0.079,0s0.052,0,0.079,0s0.052,0,0.079,0c0.026,0,0.052,0,0.078,0
	c0.026,0,0.052,0,0.079,0c0.026,0,0.052,0,0.078,0s0.052,0,0.078,0s0.052,0,0.078,0s0.052,0,0.078,0c0.026,0,0.052,0,0.078,0
	s0.052,0,0.078,0s0.052,0,0.078,0s0.052,0,0.078,0s0.052,0,0.077,0c0.026,0,0.052,0,0.078,0s0.051,0,0.077,0s0.051,0,0.077,0
	s0.051,0,0.077,0c0.025,0,0.051,0,0.077,0c0.026,0,0.051,0,0.077,0c0.025,0,0.051,0,0.077,0c0.026,0,0.051,0,0.077,0
	s0.051,0,0.077,0s0.051,0,0.077,0s0.051,0,0.076,0s0.051,0,0.077,0c0.025,0,0.051,0,0.076,0s0.051,0,0.076,0c0.025,0,0.05,0,0.076,0
	s0.051,0,0.076,0s0.051,0,0.076,0c0.025,0,0.051,0,0.076,0c0.025,0,0.05,0,0.076,0c0.025,0,0.05,0,0.075,0c0.025,0,0.051,0,0.076,0
	c0.025,0,0.05,0,0.076,0c0.025,0,0.05,0,0.075,0c0.025,0,0.05,0,0.075,0c0.025,0,0.05,0,0.075,0c0.025,0,0.05,0,0.075,0
	c0.025,0,0.05,0,0.075,0s0.05,0,0.075,0c0.025,0,0.05,0,0.075,0s0.05,0,0.075,0s0.05,0,0.075,0s0.05,0,0.075,0s0.05,0,0.075,0
	s0.049,0,0.074,0s0.05,0,0.075,0c0.024,0,0.049,0,0.074,0s0.049,0,0.074,0s0.049,0,0.074,0s0.049,0,0.074,0c0.024,0,0.049,0,0.074,0
	c0.025,0,0.05,0,0.074,0c0.025,0,0.049,0,0.074,0c0.025,0,0.049,0,0.074,0c0.024,0,0.049,0,0.074,0c0.024,0,0.049,0,0.074,0
	c0.024,0,0.049,0,0.074,0c0.024,0,0.049,0,0.073,0s0.049,0,0.074,0c0.024,0,0.049,0,0.073,0s0.049,0,0.073,0s0.049,0,0.073,0
	s0.049,0,0.073,0s0.049,0,0.073,0s0.049,0,0.073,0s0.049,0,0.073,0c0.024,0,0.049,0,0.073,0s0.048,0,0.073,0s0.049,0,0.073,0
	c0.024,0,0.049,0,0.073,0c0.024,0,0.049,0,0.073,0c0.024,0,0.048,0,0.073,0s0.048,0,0.073,0c0.024,0,0.048,0,0.072,0
	c0.024,0,0.048,0,0.073,0c0.024,0,0.048,0,0.072,0s0.048,0,0.072,0c0.024,0,0.048,0,0.072,0c0.024,0,0.048,0,0.072,0
	c0.024,0,0.048,0,0.072,0c0.024,0,0.048,0,0.072,0s0.048,0,0.072,0c0.024,0,0.048,0,0.072,0s0.048,0,0.072,0
	c0.024,0,0.048,0,0.072,0s0.048,0,0.072,0s0.048,0,0.072,0s0.048,0,0.072,0s0.048,0,0.072,0s0.048,0,0.072,0s0.048,0,0.072,0
	c0.023,0,0.047,0,0.071,0s0.048,0,0.072,0c0.023,0,0.047,0,0.071,0s0.047,0,0.071,0s0.048,0,0.071,0c0.024,0,0.048,0,0.071,0
	c0.024,0,0.048,0,0.072,0c0.023,0,0.047,0,0.071,0c0.023,0,0.047,0,0.071,0c0.024,0,0.047,0,0.071,0s0.047,0,0.071,0
	c0.023,0,0.047,0,0.071,0c0.024,0,0.047,0,0.071,0c0.023,0,0.047,0,0.071,0c0.024,0,0.047,0,0.071,0c0.023,0,0.047,0,0.071,0
	c0.023,0,0.047,0,0.071,0s0.047,0,0.071,0s0.047,0,0.071,0s0.047,0,0.071,0s0.047,0,0.071,0c0.023,0,0.047,0,0.071,0
	c0.023,0,0.047,0,0.07,0c0.024,0,0.047,0,0.071,0s0.047,0,0.071,0c0.023,0,0.047,0,0.07,0s0.047,0,0.071,0c0.023,0,0.047,0,0.07,0
	s0.047,0,0.07,0s0.047,0,0.071,0c0.023,0,0.047,0,0.07,0s0.047,0,0.07,0s0.047,0,0.07,0s0.047,0,0.07,0s0.047,0,0.07,0
	s0.047,0,0.07,0c0.023,0,0.047,0,0.07,0c0.023,0,0.046,0,0.07,0s0.047,0,0.07,0s0.047,0,0.07,0s0.046,0,0.07,0s0.047,0,0.07,0
	s0.047,0,0.07,0c0.023,0,0.047,0,0.07,0s0.047,0,0.07,0c0.023,0,0.047,0,0.07,0s0.046,0,0.07,0s0.047,0,0.07,0
	c0.023,0,0.047,0,0.07,0c0.023,0,0.047,0,0.07,0s0.046,0,0.07,0s0.046,0,0.07,0s0.047,0,0.07,0c0.023,0,0.047,0,0.07,0
	c0.023,0,0.047,0,0.07,0c0.023,0,0.047,0,0.07,0c0.023,0,0.047,0,0.07,0c0.023,0,0.047,0,0.07,0c0.023,0,0.047,0,0.07,0
	c0.023,0,0.046,0,0.07,0s0.046,0,0.07,0s0.046,0,0.07,0s0.046,0,0.07,0c0.023,0,0.046,0,0.07,0c0.023,0,0.046,0,0.069,0
	c0.023,0,0.047,0,0.07,0c0.023,0,0.046,0,0.07,0c0.023,0,0.046,0,0.07,0c0.023,0,0.046,0,0.069,0c0.023,0,0.046,0,0.07,0
	s0.046,0,0.07,0c0.023,0,0.046,0,0.069,0c0.023,0,0.046,0,0.07,0s0.046,0,0.07,0c0.023,0,0.046,0,0.069,0c0.023,0,0.046,0,0.07,0
	c0.023,0,0.046,0,0.069,0c0.023,0,0.047,0,0.07,0c0.023,0,0.046,0,0.07,0c0.023,0,0.046,0,0.069,0c0.023,0,0.046,0,0.07,0
	s0.046,0,0.07,0c0.023,0,0.046,0,0.069,0c0.023,0,0.046,0,0.07,0c0.023,0,0.046,0,0.07,0c0.023,0,0.046,0,0.069,0
	c0.023,0,0.046,0,0.07,0c0.023,0,0.046,0,0.069,0c0.023,0,0.046,0,0.07,0s0.046,0,0.07,0c0.023,0,0.046,0,0.069,0
	c0.023,0,0.046,0,0.07,0s0.046,0,0.07,0c0.023,0,0.046,0,0.069,0c0.023,0,0.047,0,0.07,0c0.023,0,0.046,0,0.07,0
	c0.023,0,0.046,0,0.07,0c0.023,0,0.046,0,0.069,0c0.023,0,0.047,0,0.07,0c0.023,0,0.046,0,0.07,0s0.046,0,0.07,0s0.046,0,0.07,0
	s0.046,0,0.07,0c0.023,0,0.046,0,0.07,0c0.023,0,0.046,0,0.07,0c0.023,0,0.046,0,0.07,0c0.023,0,0.046,0,0.07,0
	c0.023,0,0.046,0,0.07,0c0.023,0,0.046,0,0.07,0c0.023,0,0.046,0,0.07,0s0.046,0,0.07,0s0.046,0,0.07,0s0.047,0,0.07,0
	c0.023,0,0.046,0,0.07,0c0.023,0,0.046,0,0.07,0s0.046,0,0.07,0s0.047,0,0.07,0c0.023,0,0.046,0,0.07,0s0.047,0,0.07,0
	c0.023,0,0.046,0,0.07,0s0.047,0,0.07,0s0.046,0,0.07,0s0.047,0,0.07,0s0.047,0,0.07,0s0.047,0,0.07,0c0.023,0,0.047,0,0.07,0
	c0.023,0,0.047,0,0.07,0s0.047,0,0.07,0s0.047,0,0.07,0s0.047,0,0.07,0s0.047,0,0.07,0s0.047,0,0.07,0c0.024,0,0.047,0,0.071,0
	s0.047,0,0.07,0s0.047,0,0.07,0c0.024,0,0.047,0,0.071,0s0.047,0,0.07,0c0.024,0,0.047,0,0.071,0s0.047,0,0.071,0
	c0.023,0,0.047,0,0.07,0c0.024,0,0.047,0,0.071,0c0.024,0,0.047,0,0.071,0s0.047,0,0.071,0s0.047,0,0.071,0s0.047,0,0.071,0
	s0.047,0,0.071,0c0.024,0,0.047,0,0.071,0c0.024,0,0.047,0,0.071,0c0.023,0,0.047,0,0.071,0c0.024,0,0.047,0,0.071,0
	c0.023,0,0.047,0,0.071,0c0.024,0,0.047,0,0.071,0s0.047,0,0.071,0c0.023,0,0.047,0,0.071,0c0.024,0,0.048,0,0.071,0
	c0.024,0,0.048,0,0.072,0c0.023,0,0.047,0,0.071,0c0.023,0,0.047,0,0.071,0s0.047,0,0.071,0s0.048,0,0.071,0
	c0.024,0,0.048,0,0.072,0s0.048,0,0.071,0c0.024,0,0.048,0,0.072,0s0.048,0,0.072,0s0.048,0,0.072,0s0.048,0,0.072,0
	s0.048,0,0.072,0s0.048,0,0.072,0s0.048,0,0.072,0c0.024,0,0.048,0,0.072,0s0.048,0,0.072,0c0.024,0,0.048,0,0.072,0
	s0.048,0,0.072,0c0.024,0,0.048,0,0.072,0c0.024,0,0.048,0,0.072,0c0.024,0,0.048,0,0.072,0c0.024,0,0.048,0,0.072,0
	s0.048,0,0.072,0c0.024,0,0.048,0,0.073,0c0.024,0,0.048,0,0.072,0c0.024,0,0.048,0,0.073,0s0.048,0,0.073,0
	c0.024,0,0.048,0,0.073,0c0.024,0,0.048,0,0.073,0c0.024,0,0.048,0,0.073,0s0.048,0,0.073,0s0.049,0,0.073,0
	c0.024,0,0.048,0,0.073,0s0.049,0,0.073,0s0.049,0,0.073,0s0.049,0,0.073,0s0.049,0,0.073,0s0.049,0,0.073,0s0.049,0,0.073,0
	c0.025,0,0.049,0,0.074,0s0.049,0,0.073,0c0.025,0,0.049,0,0.074,0c0.025,0,0.049,0,0.074,0c0.025,0,0.049,0,0.074,0
	c0.025,0,0.049,0,0.074,0c0.024,0,0.049,0,0.074,0c0.024,0,0.049,0,0.074,0c0.024,0,0.049,0,0.074,0c0.025,0,0.049,0,0.074,0
	s0.049,0,0.074,0s0.049,0,0.074,0s0.05,0,0.074,0c0.025,0,0.05,0,0.075,0s0.049,0,0.074,0s0.05,0,0.075,0s0.05,0,0.075,0
	s0.05,0,0.075,0s0.05,0,0.075,0s0.05,0,0.075,0c0.025,0,0.05,0,0.075,0s0.05,0,0.075,0c0.025,0,0.05,0,0.075,0
	c0.025,0,0.05,0,0.075,0c0.025,0,0.05,0,0.075,0c0.025,0,0.05,0,0.075,0c0.025,0,0.05,0,0.076,0c0.025,0,0.05,0,0.076,0
	c0.025,0,0.05,0,0.075,0c0.025,0,0.051,0,0.076,0c0.025,0,0.051,0,0.076,0c0.025,0,0.05,0,0.076,0s0.051,0,0.076,0s0.051,0,0.076,0
	c0.025,0,0.051,0,0.076,0s0.051,0,0.076,0c0.026,0,0.051,0,0.077,0s0.051,0,0.076,0s0.051,0,0.077,0s0.051,0,0.077,0
	s0.051,0,0.077,0c0.025,0,0.051,0,0.077,0c0.026,0,0.051,0,0.077,0c0.025,0,0.051,0,0.077,0c0.026,0,0.051,0,0.077,0
	s0.051,0,0.077,0s0.051,0,0.077,0s0.052,0,0.078,0c0.025,0,0.051,0,0.077,0s0.052,0,0.078,0s0.052,0,0.078,0s0.052,0,0.078,0
	s0.052,0,0.078,0c0.026,0,0.052,0,0.078,0s0.052,0,0.078,0s0.052,0,0.078,0s0.052,0,0.078,0c0.026,0,0.052,0,0.079,0
	c0.026,0,0.052,0,0.078,0c0.026,0,0.052,0,0.079,0s0.052,0,0.079,0s0.053,0,0.079,0c0.026,0,0.053,0,0.079,0s0.053,0,0.079,0
	s0.053,0,0.079,0s0.053,0,0.079,0s0.053,0,0.079,0s0.053,0,0.08,0c0.026,0,0.053,0,0.079,0c0.027,0,0.053,0,0.08,0
	c0.027,0,0.053,0,0.08,0c0.026,0,0.053,0,0.08,0c0.027,0,0.053,0,0.08,0c0.026,0,0.053,0,0.08,0c0.026,0,0.053,0,0.08,0
	s0.053,0,0.08,0s0.054,0,0.081,0s0.054,0,0.081,0s0.054,0,0.081,0s0.054,0,0.081,0s0.054,0,0.081,0s0.054,0,0.081,0
	c0.027,0,0.054,0,0.082,0c0.027,0,0.054,0,0.081,0c0.027,0,0.054,0,0.081,0c0.027,0,0.054,0,0.082,0s0.054,0,0.082,0
	s0.055,0,0.082,0c0.027,0,0.055,0,0.082,0s0.055,0,0.082,0s0.055,0,0.082,0s0.055,0,0.082,0s0.055,0,0.082,0
	c0.028,0,0.055,0,0.083,0s0.055,0,0.083,0s0.055,0,0.083,0c0.028,0,0.055,0,0.083,0c0.027,0,0.055,0,0.083,0
	c0.028,0,0.056,0,0.083,0c0.027,0,0.055,0,0.083,0s0.055,0,0.083,0s0.056,0,0.083,0s0.056,0,0.083,0s0.056,0,0.084,0
	s0.056,0,0.083,0s0.056,0,0.084,0s0.056,0,0.084,0c0.028,0,0.056,0,0.084,0c0.028,0,0.056,0,0.084,0c0.028,0,0.057,0,0.084,0
	c0.028,0,0.057,0,0.084,0c0.028,0,0.057,0,0.085,0s0.057,0,0.085,0s0.057,0,0.085,0s0.057,0,0.085,0s0.057,0,0.085,0
	c0.028,0,0.057,0,0.085,0c0.029,0,0.057,0,0.086,0c0.028,0,0.057,0,0.085,0c0.029,0,0.057,0,0.086,0s0.057,0,0.086,0
	s0.057,0,0.086,0s0.058,0,0.086,0s0.058,0,0.086,0s0.058,0,0.086,0s0.058,0,0.086,0c0.029,0,0.058,0,0.087,0s0.058,0,0.087,0
	c0.029,0,0.058,0,0.087,0c0.029,0,0.058,0,0.087,0c0.029,0,0.058,0,0.087,0s0.059,0,0.087,0c0.03,0,0.059,0,0.088,0
	c0.029,0,0.059,0,0.088,0c0.029,0,0.059,0,0.088,0s0.059,0,0.088,0c0.029,0,0.059,0,0.088,0c0.03,0,0.059,0,0.089,0
	c0.029,0,0.059,0,0.088,0c0.03,0,0.059,0,0.089,0c0.03,0,0.059,0,0.089,0c0.029,0,0.059,0,0.089,0c0.03,0,0.059,0,0.089,0v-1
	c-0.03,0-0.059,0-0.089,0c-0.03,0-0.06,0-0.089,0c-0.03,0-0.059,0-0.089,0c-0.03,0-0.059,0-0.089,0c-0.029,0-0.059,0-0.088,0
	c-0.03,0-0.059,0-0.089,0c-0.029,0-0.059,0-0.088,0c-0.029,0-0.059,0-0.088,0s-0.059,0-0.088,0c-0.029,0-0.059,0-0.088,0
	c-0.029,0-0.058,0-0.088,0c-0.028,0-0.058,0-0.087,0s-0.058,0-0.087,0c-0.029,0-0.058,0-0.087,0c-0.029,0-0.058,0-0.087,0
	c-0.029,0-0.058,0-0.087,0s-0.058,0-0.087,0c-0.029,0-0.058,0-0.086,0s-0.058,0-0.086,0s-0.058,0-0.086,0s-0.058,0-0.086,0
	s-0.057,0-0.086,0s-0.057,0-0.086,0s-0.057,0-0.086,0c-0.028,0-0.057,0-0.085,0c-0.029,0-0.057,0-0.086,0c-0.028,0-0.057,0-0.085,0
	c-0.029,0-0.057,0-0.085,0s-0.057,0-0.085,0s-0.057,0-0.085,0s-0.057,0-0.085,0s-0.057,0-0.085,0c-0.028,0-0.056,0-0.084,0
	c-0.028,0-0.056,0-0.084,0c-0.028,0-0.056,0-0.084,0c-0.028,0-0.056,0-0.084,0c-0.028,0-0.056,0-0.084,0s-0.056,0-0.084,0
	s-0.056,0-0.083,0s-0.056,0-0.084,0s-0.056,0-0.083,0s-0.056,0-0.083,0s-0.055,0-0.083,0s-0.056,0-0.083,0c-0.028,0-0.056,0-0.083,0
	c-0.027,0-0.055,0-0.083,0c-0.028,0-0.055,0-0.083,0c-0.027,0-0.055,0-0.083,0s-0.055,0-0.083,0s-0.055,0-0.083,0
	c-0.027,0-0.055,0-0.082,0s-0.055,0-0.082,0s-0.055,0-0.082,0s-0.055,0-0.082,0s-0.055,0-0.082,0c-0.027,0-0.054,0-0.082,0
	s-0.054,0-0.082,0s-0.054,0-0.082,0c-0.027,0-0.054,0-0.081,0c-0.027,0-0.054,0-0.081,0c-0.027,0-0.054,0-0.082,0
	c-0.027,0-0.054,0-0.081,0s-0.054,0-0.081,0s-0.054,0-0.081,0s-0.054,0-0.081,0s-0.054,0-0.081,0s-0.054,0-0.081,0s-0.053,0-0.08,0
	s-0.054,0-0.08,0c-0.027,0-0.054,0-0.08,0c-0.027,0-0.053,0-0.08,0c-0.026,0-0.053,0-0.08,0c-0.027,0-0.053,0-0.08,0
	c-0.026,0-0.053,0-0.08,0c-0.026,0-0.053,0-0.079,0c-0.027,0-0.053,0-0.08,0s-0.053,0-0.079,0s-0.053,0-0.079,0s-0.053,0-0.079,0
	s-0.053,0-0.079,0s-0.053,0-0.079,0c-0.026,0-0.052,0-0.079,0s-0.052,0-0.079,0s-0.052,0-0.079,0c-0.026,0-0.052,0-0.078,0
	c-0.026,0-0.052,0-0.079,0c-0.026,0-0.052,0-0.078,0s-0.052,0-0.078,0s-0.052,0-0.078,0s-0.052,0-0.078,0c-0.026,0-0.052,0-0.078,0
	s-0.052,0-0.078,0s-0.052,0-0.078,0s-0.052,0-0.078,0s-0.052,0-0.077,0c-0.026,0-0.052,0-0.078,0s-0.051,0-0.077,0s-0.051,0-0.077,0
	s-0.051,0-0.077,0c-0.025,0-0.051,0-0.077,0c-0.026,0-0.051,0-0.077,0c-0.025,0-0.051,0-0.077,0c-0.026,0-0.051,0-0.077,0
	s-0.051,0-0.077,0s-0.051,0-0.077,0s-0.051,0-0.076,0s-0.051,0-0.077,0c-0.025,0-0.051,0-0.076,0s-0.051,0-0.076,0
	c-0.025,0-0.05,0-0.076,0s-0.051,0-0.076,0s-0.051,0-0.076,0c-0.025,0-0.051,0-0.076,0c-0.025,0-0.05,0-0.076,0
	c-0.025,0-0.05,0-0.075,0c-0.025,0-0.051,0-0.076,0c-0.025,0-0.05,0-0.076,0c-0.025,0-0.05,0-0.075,0c-0.025,0-0.05,0-0.075,0
	c-0.025,0-0.05,0-0.075,0c-0.025,0-0.05,0-0.075,0c-0.025,0-0.05,0-0.075,0s-0.05,0-0.075,0c-0.025,0-0.05,0-0.075,0
	s-0.05,0-0.075,0s-0.05,0-0.075,0s-0.05,0-0.075,0s-0.05,0-0.075,0s-0.049,0-0.074,0s-0.05,0-0.075,0c-0.024,0-0.049,0-0.074,0
	s-0.049,0-0.074,0s-0.049,0-0.074,0s-0.049,0-0.074,0c-0.024,0-0.049,0-0.074,0c-0.025,0-0.05,0-0.074,0c-0.025,0-0.049,0-0.074,0
	c-0.025,0-0.049,0-0.074,0c-0.024,0-0.049,0-0.074,0c-0.024,0-0.049,0-0.074,0c-0.024,0-0.049,0-0.074,0c-0.024,0-0.049,0-0.073,0
	s-0.049,0-0.074,0c-0.024,0-0.049,0-0.073,0s-0.049,0-0.073,0s-0.049,0-0.073,0s-0.049,0-0.073,0s-0.049,0-0.073,0s-0.049,0-0.073,0
	s-0.049,0-0.073,0c-0.024,0-0.049,0-0.073,0s-0.048,0-0.073,0s-0.049,0-0.073,0c-0.024,0-0.049,0-0.073,0c-0.024,0-0.049,0-0.073,0
	c-0.024,0-0.048,0-0.073,0s-0.048,0-0.073,0c-0.024,0-0.048,0-0.072,0c-0.024,0-0.048,0-0.073,0c-0.024,0-0.048,0-0.072,0
	s-0.048,0-0.072,0c-0.024,0-0.048,0-0.072,0c-0.024,0-0.048,0-0.072,0c-0.024,0-0.048,0-0.072,0c-0.024,0-0.048,0-0.072,0
	s-0.048,0-0.072,0c-0.024,0-0.048,0-0.072,0s-0.048,0-0.072,0c-0.024,0-0.048,0-0.072,0s-0.048,0-0.072,0s-0.048,0-0.072,0
	s-0.048,0-0.072,0s-0.048,0-0.072,0s-0.048,0-0.072,0s-0.048,0-0.072,0c-0.023,0-0.047,0-0.071,0s-0.048,0-0.072,0
	c-0.023,0-0.047,0-0.071,0s-0.047,0-0.071,0s-0.048,0-0.071,0c-0.024,0-0.048,0-0.071,0c-0.024,0-0.048,0-0.072,0
	c-0.023,0-0.047,0-0.071,0c-0.023,0-0.047,0-0.071,0c-0.024,0-0.047,0-0.071,0s-0.047,0-0.071,0c-0.023,0-0.047,0-0.071,0
	c-0.024,0-0.047,0-0.071,0c-0.023,0-0.047,0-0.071,0c-0.024,0-0.047,0-0.071,0c-0.023,0-0.047,0-0.071,0c-0.023,0-0.047,0-0.071,0
	s-0.047,0-0.071,0s-0.047,0-0.071,0s-0.047,0-0.071,0s-0.047,0-0.071,0c-0.023,0-0.047,0-0.071,0c-0.023,0-0.047,0-0.07,0
	c-0.024,0-0.047,0-0.071,0s-0.047,0-0.071,0c-0.023,0-0.047,0-0.07,0s-0.047,0-0.071,0c-0.023,0-0.047,0-0.07,0s-0.047,0-0.07,0
	s-0.047,0-0.071,0c-0.023,0-0.047,0-0.07,0s-0.047,0-0.07,0s-0.047,0-0.07,0s-0.047,0-0.07,0s-0.047,0-0.07,0s-0.047,0-0.07,0
	c-0.023,0-0.047,0-0.07,0c-0.023,0-0.046,0-0.07,0s-0.047,0-0.07,0s-0.047,0-0.07,0s-0.046,0-0.07,0s-0.047,0-0.07,0
	s-0.047,0-0.07,0c-0.023,0-0.047,0-0.07,0s-0.047,0-0.07,0c-0.023,0-0.047,0-0.07,0s-0.046,0-0.07,0s-0.047,0-0.07,0
	c-0.023,0-0.047,0-0.07,0c-0.023,0-0.047,0-0.07,0s-0.046,0-0.07,0s-0.046,0-0.07,0s-0.047,0-0.07,0c-0.023,0-0.047,0-0.07,0
	c-0.023,0-0.047,0-0.07,0c-0.023,0-0.047,0-0.07,0c-0.023,0-0.047,0-0.07,0c-0.023,0-0.047,0-0.07,0c-0.023,0-0.047,0-0.07,0
	c-0.023,0-0.046,0-0.07,0s-0.046,0-0.07,0s-0.046,0-0.07,0s-0.046,0-0.07,0c-0.023,0-0.046,0-0.07,0c-0.023,0-0.046,0-0.069,0
	c-0.023,0-0.047,0-0.07,0c-0.023,0-0.046,0-0.07,0c-0.023,0-0.046,0-0.07,0c-0.023,0-0.046,0-0.069,0c-0.023,0-0.046,0-0.07,0
	s-0.046,0-0.07,0c-0.023,0-0.046,0-0.069,0c-0.023,0-0.046,0-0.07,0s-0.046,0-0.07,0c-0.023,0-0.046,0-0.069,0
	c-0.023,0-0.046,0-0.07,0c-0.023,0-0.046,0-0.069,0c-0.023,0-0.047,0-0.07,0c-0.023,0-0.046,0-0.07,0c-0.023,0-0.046,0-0.069,0
	c-0.023,0-0.046,0-0.07,0s-0.046,0-0.07,0c-0.023,0-0.046,0-0.069,0c-0.023,0-0.046,0-0.07,0c-0.023,0-0.046,0-0.07,0
	c-0.023,0-0.046,0-0.069,0c-0.023,0-0.046,0-0.07,0c-0.023,0-0.046,0-0.069,0c-0.023,0-0.046,0-0.07,0s-0.046,0-0.07,0
	c-0.023,0-0.046,0-0.069,0c-0.023,0-0.046,0-0.07,0s-0.046,0-0.07,0c-0.023,0-0.046,0-0.069,0c-0.023,0-0.047,0-0.07,0
	c-0.023,0-0.046,0-0.07,0c-0.023,0-0.046,0-0.07,0c-0.023,0-0.046,0-0.069,0c-0.023,0-0.047,0-0.07,0c-0.023,0-0.046,0-0.07,0
	s-0.046,0-0.07,0s-0.046,0-0.07,0s-0.046,0-0.07,0c-0.023,0-0.046,0-0.07,0c-0.023,0-0.046,0-0.07,0c-0.023,0-0.046,0-0.07,0
	c-0.023,0-0.046,0-0.07,0c-0.023,0-0.046,0-0.07,0c-0.023,0-0.046,0-0.07,0c-0.023,0-0.046,0-0.07,0s-0.046,0-0.07,0
	s-0.046,0-0.07,0s-0.047,0-0.07,0c-0.023,0-0.046,0-0.07,0c-0.023,0-0.046,0-0.07,0s-0.046,0-0.07,0s-0.047,0-0.07,0
	c-0.023,0-0.046,0-0.07,0s-0.047,0-0.07,0c-0.023,0-0.046,0-0.07,0s-0.047,0-0.07,0s-0.046,0-0.07,0s-0.047,0-0.07,0
	s-0.047,0-0.07,0s-0.047,0-0.07,0c-0.023,0-0.047,0-0.07,0c-0.023,0-0.047,0-0.07,0s-0.047,0-0.07,0s-0.047,0-0.07,0
	s-0.047,0-0.07,0s-0.047,0-0.07,0s-0.047,0-0.07,0c-0.024,0-0.047,0-0.071,0s-0.047,0-0.07,0s-0.047,0-0.07,0
	c-0.024,0-0.047,0-0.071,0s-0.047,0-0.07,0c-0.024,0-0.047,0-0.071,0s-0.047,0-0.071,0c-0.023,0-0.047,0-0.07,0
	c-0.024,0-0.047,0-0.071,0c-0.024,0-0.047,0-0.071,0s-0.047,0-0.071,0s-0.047,0-0.071,0s-0.047,0-0.071,0s-0.047,0-0.071,0
	c-0.024,0-0.047,0-0.071,0c-0.024,0-0.047,0-0.071,0c-0.023,0-0.047,0-0.071,0c-0.024,0-0.047,0-0.071,0c-0.023,0-0.047,0-0.071,0
	c-0.024,0-0.047,0-0.071,0s-0.047,0-0.071,0c-0.023,0-0.047,0-0.071,0c-0.024,0-0.048,0-0.071,0c-0.024,0-0.048,0-0.072,0
	c-0.023,0-0.047,0-0.071,0c-0.023,0-0.047,0-0.071,0s-0.047,0-0.071,0s-0.048,0-0.071,0c-0.024,0-0.048,0-0.072,0s-0.048,0-0.071,0
	c-0.024,0-0.048,0-0.072,0s-0.048,0-0.072,0s-0.048,0-0.072,0s-0.048,0-0.072,0s-0.048,0-0.072,0s-0.048,0-0.072,0s-0.048,0-0.072,0
	c-0.024,0-0.048,0-0.072,0s-0.048,0-0.072,0c-0.024,0-0.048,0-0.072,0s-0.048,0-0.072,0c-0.024,0-0.048,0-0.072,0
	c-0.024,0-0.048,0-0.072,0c-0.024,0-0.048,0-0.072,0c-0.024,0-0.048,0-0.072,0s-0.048,0-0.072,0c-0.024,0-0.048,0-0.073,0
	c-0.024,0-0.048,0-0.072,0c-0.024,0-0.048,0-0.073,0s-0.048,0-0.073,0c-0.024,0-0.048,0-0.073,0c-0.024,0-0.048,0-0.073,0
	c-0.024,0-0.048,0-0.073,0s-0.048,0-0.073,0s-0.049,0-0.073,0c-0.024,0-0.048,0-0.073,0s-0.049,0-0.073,0s-0.049,0-0.073,0
	s-0.049,0-0.073,0s-0.049,0-0.073,0s-0.049,0-0.073,0s-0.049,0-0.073,0c-0.025,0-0.049,0-0.074,0s-0.049,0-0.073,0
	c-0.025,0-0.049,0-0.074,0c-0.025,0-0.049,0-0.074,0c-0.025,0-0.049,0-0.074,0c-0.025,0-0.049,0-0.074,0c-0.024,0-0.049,0-0.074,0
	c-0.024,0-0.049,0-0.074,0c-0.024,0-0.049,0-0.074,0c-0.025,0-0.049,0-0.074,0s-0.049,0-0.074,0s-0.049,0-0.074,0s-0.05,0-0.074,0
	c-0.025,0-0.05,0-0.075,0s-0.049,0-0.074,0s-0.05,0-0.075,0s-0.05,0-0.075,0s-0.05,0-0.075,0s-0.05,0-0.075,0s-0.05,0-0.075,0
	c-0.025,0-0.05,0-0.075,0s-0.05,0-0.075,0c-0.025,0-0.05,0-0.075,0c-0.025,0-0.05,0-0.075,0c-0.025,0-0.05,0-0.075,0
	c-0.025,0-0.05,0-0.075,0c-0.025,0-0.05,0-0.076,0c-0.025,0-0.05,0-0.076,0c-0.025,0-0.05,0-0.075,0c-0.025,0-0.051,0-0.076,0
	c-0.025,0-0.051,0-0.076,0c-0.025,0-0.05,0-0.076,0s-0.051,0-0.076,0s-0.051,0-0.076,0c-0.025,0-0.051,0-0.076,0s-0.051,0-0.076,0
	c-0.026,0-0.051,0-0.077,0s-0.051,0-0.076,0s-0.051,0-0.077,0s-0.051,0-0.077,0s-0.051,0-0.077,0c-0.025,0-0.051,0-0.077,0
	c-0.026,0-0.051,0-0.077,0c-0.025,0-0.051,0-0.077,0c-0.026,0-0.051,0-0.077,0s-0.051,0-0.077,0s-0.051,0-0.077,0s-0.052,0-0.078,0
	c-0.025,0-0.051,0-0.077,0s-0.052,0-0.078,0s-0.052,0-0.078,0s-0.052,0-0.078,0s-0.052,0-0.078,0c-0.026,0-0.052,0-0.078,0
	s-0.052,0-0.078,0s-0.052,0-0.078,0s-0.052,0-0.078,0c-0.026,0-0.052,0-0.079,0c-0.026,0-0.052,0-0.078,0c-0.026,0-0.052,0-0.079,0
	s-0.052,0-0.079,0s-0.053,0-0.079,0c-0.026,0-0.053,0-0.079,0s-0.053,0-0.079,0s-0.053,0-0.079,0s-0.053,0-0.079,0s-0.053,0-0.079,0
	s-0.053,0-0.08,0c-0.026,0-0.053,0-0.079,0c-0.027,0-0.053,0-0.08,0c-0.027,0-0.053,0-0.08,0c-0.026,0-0.053,0-0.08,0
	c-0.027,0-0.053,0-0.08,0c-0.026,0-0.053,0-0.08,0c-0.026,0-0.053,0-0.08,0s-0.053,0-0.08,0s-0.054,0-0.081,0s-0.054,0-0.081,0
	s-0.054,0-0.081,0s-0.054,0-0.081,0s-0.054,0-0.081,0s-0.054,0-0.081,0c-0.027,0-0.054,0-0.082,0c-0.027,0-0.054,0-0.081,0
	c-0.027,0-0.054,0-0.081,0c-0.027,0-0.054,0-0.082,0s-0.054,0-0.082,0s-0.055,0-0.082,0c-0.027,0-0.055,0-0.082,0s-0.055,0-0.082,0
	s-0.055,0-0.082,0s-0.055,0-0.082,0s-0.055,0-0.082,0c-0.028,0-0.055,0-0.083,0s-0.055,0-0.083,0s-0.055,0-0.083,0
	c-0.028,0-0.055,0-0.083,0c-0.027,0-0.055,0-0.083,0c-0.028,0-0.056,0-0.083,0c-0.027,0-0.055,0-0.083,0s-0.055,0-0.083,0
	s-0.056,0-0.083,0s-0.056,0-0.083,0s-0.056,0-0.084,0s-0.056,0-0.083,0s-0.056,0-0.084,0s-0.056,0-0.084,0c-0.028,0-0.056,0-0.084,0
	c-0.028,0-0.056,0-0.084,0c-0.028,0-0.057,0-0.084,0c-0.028,0-0.057,0-0.084,0c-0.028,0-0.057,0-0.085,0s-0.057,0-0.085,0
	s-0.057,0-0.085,0s-0.057,0-0.085,0s-0.057,0-0.085,0c-0.028,0-0.057,0-0.085,0c-0.029,0-0.057,0-0.086,0c-0.028,0-0.057,0-0.085,0
	c-0.029,0-0.057,0-0.086,0s-0.057,0-0.086,0s-0.057,0-0.086,0s-0.058,0-0.086,0s-0.058,0-0.086,0s-0.058,0-0.086,0s-0.058,0-0.086,0
	c-0.029,0-0.058,0-0.087,0s-0.058,0-0.087,0c-0.029,0-0.058,0-0.087,0c-0.029,0-0.058,0-0.087,0c-0.029,0-0.058,0-0.087,0
	s-0.059,0-0.087,0c-0.029,0-0.059,0-0.088,0s-0.059,0-0.088,0s-0.059,0-0.088,0s-0.059,0-0.088,0s-0.059,0-0.088,0s-0.059,0-0.088,0
	s-0.059,0-0.089,0c-0.029,0-0.059,0-0.088,0c-0.03,0-0.059,0-0.089,0s-0.059,0-0.089,0s-0.06,0-0.089,0V31.5z M62,102.5h39v-1H62
	V102.5z"/>
<path fill="#00DCE6" d="M232,103h51v-2h-51V103z"/>
<path fill="none" stroke="#00DCE6" stroke-width="2" d="M267,118l16-16l-16-16"/>
<ellipse fill="#00DCE6" fill-opacity="0.2" cx="232" cy="101.987" rx="14" ry="13.987"/>
<ellipse fill="#00DCE6" cx="232" cy="101.986" rx="3.996" ry="3.996"/>
<path fill="#00DCE6" d="M374,103h51v-2h-51V103z"/>
<path fill="none" stroke="#00DCE6" stroke-width="2" d="M409,118l16-16l-16-16"/>
<ellipse fill="#00DCE6" fill-opacity="0.2" cx="374" cy="101.987" rx="14" ry="13.987"/>
<ellipse fill="#00DCE6" cx="374" cy="101.986" rx="3.996" ry="3.996"/>
<path fill="#00DCE6" d="M515,103h51v-2h-51V103z"/>
<path fill="none" stroke="#00DCE6" stroke-width="2" d="M550,118l16-16l-16-16"/>
<ellipse fill="#00DCE6" fill-opacity="0.2" cx="515" cy="101.987" rx="14" ry="13.987"/>
<ellipse fill="#00DCE6" cx="515" cy="101.986" rx="3.996" ry="3.996"/>
<path fill="#00DCE6" d="M656,103h51v-2h-51V103z"/>
<path fill="none" stroke="#00DCE6" stroke-width="2" d="M691,118l16-16l-16-16"/>
<ellipse fill="#00DCE6" fill-opacity="0.2" cx="656" cy="101.987" rx="14" ry="13.987"/>
<ellipse fill="#00DCE6" cx="656" cy="101.986" rx="3.996" ry="3.996"/>
<path fill="#00DCE6" d="M799,103h51v-2h-51V103z"/>
<path fill="none" stroke="#00DCE6" stroke-width="2" d="M834,118l16-16l-16-16"/>
<ellipse fill="#00DCE6" fill-opacity="0.2" cx="799" cy="101.987" rx="14" ry="13.987"/>
<ellipse fill="#00DCE6" cx="799" cy="101.986" rx="3.996" ry="3.996"/>
<ellipse fill="#00DCE6" fill-opacity="0.2" cx="101" cy="101.987" rx="14" ry="13.987"/>
<ellipse fill="#00DCE6" cx="101" cy="101.986" rx="3.996" ry="3.996"/>
<path fill="#00DCE6" d="M101,103h41v-2h-41V103z"/>
<path fill="none" stroke="#00DCE6" stroke-width="2" d="M126,118l16-16l-16-16"/>
<text transform="matrix(1.0684 0 0 1 75.7837 325.4102)"><tspan x="0" y="0" font-family="'MicrosoftYaHeiLight'" font-size="12" letter-spacing="0.936">- 原产地证书</tspan><tspan x="0" y="20.601" font-family="'MicrosoftYaHeiLight'" font-size="12" letter-spacing="0.936">- 批次号</tspan><tspan x="0" y="41.202" font-family="'MicrosoftYaHeiLight'" font-size="12" letter-spacing="0.936">- 数据处理</tspan><tspan x="0" y="61.803" font-family="'MicrosoftYaHeiLight'" font-size="12" letter-spacing="0.936">- 条码</tspan><tspan x="0" y="82.404" font-family="'MicrosoftYaHeiLight'" font-size="12" letter-spacing="0.936">- 出货日期</tspan></text>
<text transform="matrix(1 0 0 1 211.8999 325.5)"><tspan x="0" y="0" font-family="'MicrosoftYaHeiLight'" font-size="13">-</tspan><tspan x="5.586" y="0" font-family="'MicrosoftYaHeiLight'" font-size="13"> 打包清单</tspan><tspan x="0" y="21.6" font-family="'MicrosoftYaHeiLight'" font-size="13">- 订单号</tspan><tspan x="0" y="43.2" font-family="'MicrosoftYaHeiLight'" font-size="13">- 批次号</tspan><tspan x="0" y="64.8" font-family="'MicrosoftYaHeiLight'" font-size="13">- 生产信息</tspan><tspan x="0" y="90.4" font-family="'MicrosoftYaHeiLight'" font-size="13">- 装运规格(DIMS)</tspan></text>
<text transform="matrix(1 0 0 1 370 324.5)"><tspan x="0" y="0" font-family="'MicrosoftYaHeiLight'" font-size="13">- 提货单</tspan><tspan x="0" y="21.6" font-family="'MicrosoftYaHeiLight'" font-size="13">- 线路提示</tspan><tspan x="0" y="43.2" font-family="'MicrosoftYaHeiLight'" font-size="13">- 发货日期</tspan><tspan x="0" y="64.8" font-family="'MicrosoftYaHeiLight'" font-size="13">- 商品描述</tspan></text>
<text transform="matrix(1 0 0 1 511 324.5)"><tspan x="0" y="0" font-family="'MicrosoftYaHeiLight'" font-size="13">-</tspan><tspan x="5.586" y="0" font-family="'MicrosoftYaHeiLight'" font-size="13"> 签名交付</tspan><tspan x="0" y="21.6" font-family="'MicrosoftYaHeiLight'" font-size="13">- 温度</tspan><tspan x="0" y="43.2" font-family="'MicrosoftYaHeiLight'" font-size="13">- 运输状态</tspan></text>
<text transform="matrix(1 0 0 1 656 323.5)"><tspan x="0" y="0" font-family="'MicrosoftYaHeiLight'" font-size="13">- 线路提示</tspan><tspan x="0" y="21.6" font-family="'MicrosoftYaHeiLight'" font-size="13">- 选择日期</tspan><tspan x="0" y="43.2" font-family="'MicrosoftYaHeiLight'" font-size="13">- 打包</tspan><tspan x="0" y="64.8" font-family="'MicrosoftYaHeiLight'" font-size="13">- 技术指标</tspan><tspan x="0" y="86.4" font-family="'MicrosoftYaHeiLight'" font-size="13">- 包装条码</tspan></text>
<text transform="matrix(1 0 0 1 796 324.5)"><tspan x="0" y="0" font-family="'MicrosoftYaHeiLight'" font-size="13">- 接收日期</tspan><tspan x="0" y="21.6" font-family="'MicrosoftYaHeiLight'" font-size="13">- 发票号码</tspan><tspan x="0" y="43.2" font-family="'MicrosoftYaHeiLight'" font-size="13">- 客户ID</tspan><tspan x="0" y="64.8" font-family="'MicrosoftYaHeiLight'" font-size="13">- 运输状态</tspan><tspan x="0" y="86.4" font-family="'MicrosoftYaHeiLight'" font-size="13">- 交货收据</tspan></text>
<text transform="matrix(1 0 0 1 20.7505 224.5)" font-family="'MicrosoftYaHeiLight'" font-size="14">制造商</text>
<text transform="matrix(1 0 0 1 164.1001 164.3999)" fill="#FFFFFF" font-family="'MicrosoftYaHeiLight'" font-size="15">供应商</text>
<text transform="matrix(1 0 0 1 312.4893 164.6001)" fill="#FFFFFF" font-family="'MicrosoftYaHeiLight'" font-size="15">物流</text>
<text transform="matrix(1 0 0 1 439.1035 164.4238)" fill="#FFFFFF" font-family="'MicrosoftYaHeiLight'" font-size="15">长途运输</text>
<text transform="matrix(1 0 0 1 595 163.4927)" fill="#FFFFFF" font-family="'MicrosoftYaHeiLight'" font-size="15">仓库</text>
<text transform="matrix(1 0 0 1 722.3496 163.3062)" fill="#FFFFFF" font-family="'MicrosoftYaHeiLight'" font-size="15">短途运输</text>
<text transform="matrix(1 0 0 1 871 163.6001)" fill="#FFFFFF" font-family="'MicrosoftYaHeiLight'" font-size="15">收货人</text>
</svg>
