<?xml version="1.0" encoding="utf-8"?>
<!-- Generator: Adobe Illustrator 15.0.0, SVG Export Plug-In . SVG Version: 6.00 Build 0)  -->
<!DOCTYPE svg PUBLIC "-//W3C//DTD SVG 1.1//EN" "http://www.w3.org/Graphics/SVG/1.1/DTD/svg11.dtd">
<svg version="1.1" id="图层_1" xmlns="http://www.w3.org/2000/svg" xmlns:xlink="http://www.w3.org/1999/xlink" x="0px" y="0px"
	 width="1170px" height="432px" viewBox="0 0 1170 432" enable-background="new 0 0 1170 432" xml:space="preserve">
<path fill="#353A47" d="M287,55c0-30.375-24.624-55-55-55s-55,24.625-55,55v94c0,30.376,24.624,55,55,55s55-24.624,55-55V55z"/>
<path fill="#353A47" d="M463,55c0-30.375-24.624-55-55-55s-55,24.625-55,55v94c0,30.376,24.624,55,55,55s55-24.624,55-55V55z"/>
<path fill="#353A47" d="M640,55c0-30.375-24.624-55-55-55s-55,24.625-55,55v94c0,30.376,24.624,55,55,55s55-24.624,55-55V55z"/>
<path fill="#353A47" d="M817,55c0-30.375-24.624-55-55-55s-55,24.625-55,55v94c0,30.376,24.624,55,55,55s55-24.624,55-55V55z"/>
<path fill="#353A47" d="M993,55c0-30.375-24.624-55-55-55s-55,24.625-55,55v94c0,30.376,24.624,55,55,55s55-24.624,55-55V55z"/>
<path fill="#353A47" d="M1170,55c0-30.375-24.62-55-55-55s-55,24.625-55,55v94c0,30.376,24.62,55,55,55s55-24.624,55-55V55z"/>
<path fill="#1F2432" d="M232,204c30.376,0,55-24.624,55-55s-24.624-55-55-55s-55,24.624-55,55S201.624,204,232,204z"/>
<path fill="#1F2432" d="M408,204c30.376,0,55-24.624,55-55s-24.624-55-55-55s-55,24.624-55,55S377.624,204,408,204z"/>
<path fill="#1F2432" d="M585,204c30.376,0,55-24.624,55-55s-24.624-55-55-55s-55,24.624-55,55S554.624,204,585,204z"/>
<path fill="#1F2432" d="M762,204c30.376,0,55-24.624,55-55s-24.624-55-55-55s-55,24.624-55,55S731.624,204,762,204z"/>
<path fill="#1F2432" d="M938,204c30.376,0,55-24.624,55-55s-24.624-55-55-55s-55,24.624-55,55S907.624,204,938,204z"/>
<path fill="#1F2432" d="M1115,204c30.38,0,55-24.624,55-55s-24.62-55-55-55s-55,24.624-55,55S1084.62,204,1115,204z"/>
<path fill="#00DCE6" d="M287,102.986h66v-2h-66V102.986z"/>
<path fill="none" stroke="#00DCE6" stroke-width="2" d="M337,118l16-16l-16-16"/>
<path fill="none" stroke="#00DCE6" stroke-width="2" d="M514,118l16-16l-16-16"/>
<path fill="none" stroke="#00DCE6" stroke-width="2" d="M691,118l16-16l-16-16"/>
<path fill="none" stroke="#00DCE6" stroke-width="2" d="M868,118l16-16l-16-16"/>
<path fill="none" stroke="#00DCE6" stroke-width="2" d="M1044,118l16-16l-16-16"/>
<path fill="#00DCE6" d="M463,102.986h66.5v-2H463V102.986z"/>
<path fill="#00DCE6" d="M640,102.986h66.5v-2H640V102.986z"/>
<path fill="#00DCE6" d="M817,102.986h66.5v-2H817V102.986z"/>
<path fill="#00DCE6" d="M993,102.986h66.5v-2H993V102.986z"/>
<path fill="#00DCE6" fill-opacity="0.2" d="M463,115.976c7.732,0,14-6.262,14-13.987s-6.268-13.987-14-13.987s-14,6.262-14,13.987
	S455.268,115.976,463,115.976z"/>
<path fill="#00DCE6" d="M463,105.985c2.209,0,4-1.789,4-3.996c0-2.207-1.791-3.997-4-3.997s-4,1.79-4,3.997
	C459,104.196,460.791,105.985,463,105.985z"/>
<path fill="#00DCE6" fill-opacity="0.2" d="M640,115.976c7.732,0,14-6.262,14-13.987s-6.268-13.987-14-13.987s-14,6.262-14,13.987
	S632.268,115.976,640,115.976z"/>
<path fill="#00DCE6" d="M640,105.985c2.209,0,4-1.789,4-3.996c0-2.207-1.791-3.997-4-3.997s-4,1.79-4,3.997
	C636,104.196,637.791,105.985,640,105.985z"/>
<path fill="#00DCE6" fill-opacity="0.2" d="M817,115.976c7.732,0,14-6.262,14-13.987s-6.268-13.987-14-13.987s-14,6.262-14,13.987
	S809.268,115.976,817,115.976z"/>
<path fill="#00DCE6" d="M817,105.985c2.209,0,4-1.789,4-3.996c0-2.207-1.791-3.997-4-3.997s-4,1.79-4,3.997
	C813,104.196,814.791,105.985,817,105.985z"/>
<path fill="#00DCE6" fill-opacity="0.2" d="M993,115.976c7.73,0,14-6.262,14-13.987s-6.27-13.987-14-13.987
	c-7.732,0-14,6.262-14,13.987S985.268,115.976,993,115.976z"/>
<path fill="#00DCE6" d="M993,105.985c2.209,0,4-1.789,4-3.996c0-2.207-1.791-3.997-4-3.997s-4,1.79-4,3.997
	C989,104.196,990.791,105.985,993,105.985z"/>
<path fill="#00DCE6" fill-opacity="0.2" d="M287,115.974c7.732,0,14-6.262,14-13.987C301,94.262,294.732,88,287,88
	s-14,6.262-14,13.986C273,109.712,279.268,115.974,287,115.974z"/>
<path fill="#00DCE6" d="M287,105.982c2.209,0,4-1.789,4-3.996s-1.791-3.996-4-3.996s-4,1.789-4,3.996S284.791,105.982,287,105.982z"
	/>
<path fill="#00DCE6" fill-opacity="0.2" d="M127,115.974c7.732,0,14-6.262,14-13.987C141,94.262,134.732,88,127,88
	s-14,6.262-14,13.986C113,109.712,119.268,115.974,127,115.974z"/>
<path fill="#00DCE6" d="M127,105.982c2.209,0,4-1.789,4-3.996s-1.791-3.996-4-3.996s-4,1.789-4,3.996S124.791,105.982,127,105.982z"
	/>
<path fill="#00DCE6" d="M127,103h50v-2h-50V103z"/>
<path fill="none" stroke="#00DCE6" stroke-width="2" d="M161,118l16-16l-16-16"/>
<path fill="#00DCE6" d="M55,243.992c2.209,0,4-1.789,4-3.996S57.209,236,55,236s-4,1.789-4,3.996S52.791,243.992,55,243.992z"/>
<path fill="#00DCE6" d="M232,222.992c2.209,0,4-1.789,4-3.996S234.209,215,232,215s-4,1.789-4,3.996S229.791,222.992,232,222.992z"
	/>
<path fill="#00DCE6" d="M409,222.992c2.209,0,4-1.789,4-3.996S411.209,215,409,215s-4,1.789-4,3.996S406.791,222.992,409,222.992z"
	/>
<path fill="#00DCE6" d="M586,222.992c2.209,0,4-1.789,4-3.996S588.209,215,586,215s-4,1.789-4,3.996S583.791,222.992,586,222.992z"
	/>
<path fill="#00DCE6" d="M761,222.992c2.209,0,4-1.789,4-3.996S763.209,215,761,215s-4,1.789-4,3.996S758.791,222.992,761,222.992z"
	/>
<path fill="#00DCE6" d="M938,222.992c2.209,0,4-1.789,4-3.996S940.209,215,938,215s-4,1.789-4,3.996S935.791,222.992,938,222.992z"
	/>
<path fill="#00DCE6" d="M1115,222.992c2.21,0,4-1.789,4-3.996s-1.79-3.996-4-3.996s-4,1.789-4,3.996S1112.79,222.992,1115,222.992z"
	/>
<path fill="none" stroke="#00DCE6" stroke-miterlimit="16" stroke-dasharray="1,1" d="M55,240v30h176.83l0.17-51"/>
<path fill="none" stroke="#00DCE6" stroke-miterlimit="16" stroke-dasharray="1,1" d="M232,219v51h177v-51"/>
<path fill="none" stroke="#00DCE6" stroke-miterlimit="16" stroke-dasharray="1,1" d="M409,219v51h177v-51"/>
<path fill="none" stroke="#00DCE6" stroke-miterlimit="16" stroke-dasharray="1,1" d="M586,219v51h175v-51"/>
<path fill="none" stroke="#00DCE6" stroke-miterlimit="16" stroke-dasharray="1,1" d="M761,219v51h177v-51"/>
<path fill="none" stroke="#00DCE6" stroke-miterlimit="16" stroke-dasharray="1,1" d="M938,219v51h177v-51"/>
<path fill="#00DCE6" fill-opacity="0.2" d="M143,298c16.569,0,30-13.432,30-30s-13.431-30-30-30s-30,13.432-30,30
	S126.431,298,143,298z"/>
<path fill="#00DCE6" d="M143,290c12.15,0,22-9.85,22-22s-9.85-22-22-22s-22,9.85-22,22S130.85,290,143,290z"/>
<path fill="none" stroke="#FFFFFF" stroke-width="1.5" d="M133,276v-21h15v21H133z"/>
<path fill="#FFFFFF" d="M135.75,277.468v2.252v0.751h0.75h15.165h0.75v-0.751V259.5v-0.75h-0.75h-2.253v1.5h1.503v18.72H137.25
	v-1.502H135.75z"/>
<path fill="none" stroke="#FFFFFF" d="M136,259.5h7"/>
<path fill="none" stroke="#FFFFFF" d="M136,262.5h7"/>
<path fill="none" stroke="#FFFFFF" d="M136,265.5h7"/>
<path fill="#00DCE6" fill-opacity="0.2" d="M320,298c16.569,0,30-13.432,30-30s-13.431-30-30-30c-16.569,0-30,13.432-30,30
	S303.431,298,320,298z"/>
<path fill="#00DCE6" d="M320,290c12.15,0,22-9.85,22-22s-9.85-22-22-22s-22,9.85-22,22S307.85,290,320,290z"/>
<path fill="none" stroke="#FFFFFF" stroke-width="1.5" d="M310,276v-21h15v21H310z"/>
<path fill="#FFFFFF" d="M312.75,277.468v2.252v0.751h0.75h15.165h0.75v-0.751V259.5v-0.75h-0.75h-2.253v1.5h1.503v18.72H314.25
	v-1.502H312.75z"/>
<path fill="none" stroke="#FFFFFF" d="M313,259.5h7"/>
<path fill="none" stroke="#FFFFFF" d="M313,262.5h7"/>
<path fill="none" stroke="#FFFFFF" d="M313,265.5h7"/>
<path fill="#00DCE6" fill-opacity="0.2" d="M497,298c16.569,0,30-13.432,30-30s-13.431-30-30-30s-30,13.432-30,30
	S480.431,298,497,298z"/>
<path fill="#00DCE6" d="M497,290c12.15,0,22-9.85,22-22s-9.85-22-22-22s-22,9.85-22,22S484.85,290,497,290z"/>
<path fill="none" stroke="#FFFFFF" stroke-width="1.5" d="M487,276v-21h15v21H487z"/>
<path fill="#FFFFFF" d="M489.75,277.468v2.252v0.751h0.75h15.165h0.75v-0.751V259.5v-0.75h-0.75h-2.253v1.5h1.503v18.72H491.25
	v-1.502H489.75z"/>
<path fill="none" stroke="#FFFFFF" d="M490,259.5h7"/>
<path fill="none" stroke="#FFFFFF" d="M490,262.5h7"/>
<path fill="none" stroke="#FFFFFF" d="M490,265.5h7"/>
<path fill="#00DCE6" fill-opacity="0.2" d="M673,298c16.569,0,30-13.432,30-30s-13.431-30-30-30s-30,13.432-30,30
	S656.431,298,673,298z"/>
<path fill="#00DCE6" d="M673,290c12.15,0,22-9.85,22-22s-9.85-22-22-22s-22,9.85-22,22S660.85,290,673,290z"/>
<path fill="none" stroke="#FFFFFF" stroke-width="1.5" d="M663,276v-21h15v21H663z"/>
<path fill="#FFFFFF" d="M665.75,277.468v2.252v0.751h0.75h15.165h0.75v-0.751V259.5v-0.75h-0.75h-2.253v1.5h1.503v18.72H667.25
	v-1.502H665.75z"/>
<path fill="none" stroke="#FFFFFF" d="M666,259.5h7"/>
<path fill="none" stroke="#FFFFFF" d="M666,262.5h7"/>
<path fill="none" stroke="#FFFFFF" d="M666,265.5h7"/>
<path fill="#00DCE6" fill-opacity="0.2" d="M850,298c16.569,0,30-13.432,30-30s-13.431-30-30-30s-30,13.432-30,30
	S833.431,298,850,298z"/>
<path fill="#00DCE6" d="M850,290c12.15,0,22-9.85,22-22s-9.85-22-22-22s-22,9.85-22,22S837.85,290,850,290z"/>
<path fill="none" stroke="#FFFFFF" stroke-width="1.5" d="M840,276v-21h15v21H840z"/>
<path fill="#FFFFFF" d="M842.75,277.468v2.252v0.751h0.75h15.165h0.75v-0.751V259.5v-0.75h-0.75h-2.253v1.5h1.503v18.72H844.25
	v-1.502H842.75z"/>
<path fill="none" stroke="#FFFFFF" d="M843,259.5h7"/>
<path fill="none" stroke="#FFFFFF" d="M843,262.5h7"/>
<path fill="none" stroke="#FFFFFF" d="M843,265.5h7"/>
<path fill="#00DCE6" fill-opacity="0.2" d="M1027,298c16.57,0,30-13.432,30-30s-13.43-30-30-30s-30,13.432-30,30
	S1010.43,298,1027,298z"/>
<path fill="#00DCE6" d="M1027,290c12.15,0,22-9.85,22-22s-9.85-22-22-22s-22,9.85-22,22S1014.85,290,1027,290z"/>
<path fill="none" stroke="#FFFFFF" stroke-width="1.5" d="M1017,276v-21h15v21H1017z"/>
<path fill="#FFFFFF" d="M1019.75,277.468v2.252v0.751h0.75h15.16h0.75v-0.751V259.5v-0.75h-0.75h-2.25v1.5h1.5v18.72h-13.66v-1.502
	H1019.75z"/>
<path fill="none" stroke="#FFFFFF" d="M1020,259.5h7"/>
<path fill="none" stroke="#FFFFFF" d="M1020,262.5h7"/>
<path fill="none" stroke="#FFFFFF" d="M1020,265.5h7"/>
<path fill="#00DCE6" d="M62,173.5h64.5v-1H62V173.5z M62,31.5c0.049,0,0.099,0,0.147,0c0.049,0,0.098,0,0.147,0
	c0.049,0,0.098,0,0.146,0c0.049,0,0.098,0,0.147,0s0.098,0,0.146,0s0.098,0,0.146,0c0.049,0,0.098,0,0.146,0
	c0.049,0,0.097,0,0.146,0c0.048,0,0.097,0,0.146,0c0.048,0,0.097,0,0.145,0s0.097,0,0.145,0s0.097,0,0.145,0
	c0.048,0,0.097,0,0.145,0c0.048,0,0.097,0,0.145,0s0.096,0,0.144,0s0.096,0,0.144,0s0.096,0,0.144,0s0.096,0,0.144,0
	c0.047,0,0.095,0,0.143,0c0.047,0,0.095,0,0.143,0c0.048,0,0.095,0,0.143,0c0.048,0,0.095,0,0.143,0s0.095,0,0.142,0
	s0.095,0,0.142,0c0.047,0,0.094,0,0.142,0c0.047,0,0.094,0,0.141,0c0.047,0,0.094,0,0.142,0c0.047,0,0.094,0,0.141,0
	c0.047,0,0.094,0,0.141,0s0.094,0,0.141,0s0.093,0,0.14,0s0.093,0,0.14,0s0.093,0,0.14,0c0.047,0,0.093,0,0.14,0
	c0.046,0,0.093,0,0.139,0s0.093,0,0.139,0s0.093,0,0.139,0s0.092,0,0.139,0s0.092,0,0.139,0c0.046,0,0.092,0,0.138,0
	c0.046,0,0.092,0,0.138,0s0.092,0,0.138,0s0.092,0,0.138,0s0.092,0,0.137,0c0.046,0,0.092,0,0.138,0c0.045,0,0.091,0,0.137,0
	c0.046,0,0.091,0,0.137,0c0.045,0,0.091,0,0.137,0c0.045,0,0.091,0,0.136,0s0.091,0,0.136,0s0.091,0,0.136,0s0.09,0,0.136,0
	s0.09,0,0.136,0c0.045,0,0.09,0,0.135,0c0.045,0,0.09,0,0.135,0c0.045,0,0.09,0,0.135,0s0.09,0,0.135,0s0.09,0,0.135,0
	s0.089,0,0.134,0s0.09,0,0.134,0c0.045,0,0.089,0,0.134,0c0.044,0,0.089,0,0.134,0s0.089,0,0.134,0s0.089,0,0.133,0s0.089,0,0.133,0
	s0.089,0,0.133,0s0.088,0,0.133,0s0.088,0,0.133,0c0.044,0,0.088,0,0.132,0c0.044,0,0.088,0,0.133,0c0.044,0,0.088,0,0.132,0
	s0.088,0,0.132,0s0.088,0,0.132,0s0.087,0,0.131,0s0.088,0,0.131,0c0.044,0,0.088,0,0.131,0c0.044,0,0.087,0,0.131,0
	c0.043,0,0.087,0,0.131,0s0.087,0,0.131,0s0.087,0,0.13,0s0.087,0,0.13,0s0.087,0,0.13,0s0.087,0,0.13,0c0.043,0,0.087,0,0.13,0
	c0.043,0,0.087,0,0.13,0c0.043,0,0.086,0,0.129,0c0.043,0,0.086,0,0.129,0c0.043,0,0.086,0,0.129,0s0.086,0,0.129,0s0.086,0,0.129,0
	s0.086,0,0.129,0s0.085,0,0.128,0s0.086,0,0.128,0c0.043,0,0.085,0,0.128,0c0.042,0,0.085,0,0.128,0s0.085,0,0.128,0
	s0.085,0,0.128,0c0.042,0,0.085,0,0.127,0s0.085,0,0.127,0s0.085,0,0.127,0c0.042,0,0.084,0,0.127,0s0.084,0,0.127,0
	s0.084,0,0.127,0c0.042,0,0.084,0,0.126,0c0.042,0,0.084,0,0.126,0c0.042,0,0.084,0,0.126,0s0.084,0,0.126,0
	c0.042,0,0.084,0,0.126,0s0.084,0,0.126,0s0.084,0,0.125,0c0.042,0,0.084,0,0.126,0s0.083,0,0.125,0c0.042,0,0.083,0,0.125,0
	c0.042,0,0.083,0,0.125,0s0.083,0,0.125,0s0.083,0,0.125,0s0.083,0,0.125,0c0.042,0,0.083,0,0.125,0s0.083,0,0.125,0
	s0.083,0,0.124,0c0.042,0,0.083,0,0.125,0s0.083,0,0.124,0c0.042,0,0.083,0,0.124,0c0.042,0,0.083,0,0.124,0
	c0.041,0,0.083,0,0.124,0c0.042,0,0.083,0,0.124,0c0.042,0,0.083,0,0.124,0s0.083,0,0.124,0s0.082,0,0.123,0s0.082,0,0.123,0
	s0.082,0,0.123,0s0.082,0,0.123,0c0.041,0,0.082,0,0.123,0s0.082,0,0.123,0s0.082,0,0.123,0c0.041,0,0.082,0,0.122,0
	c0.041,0,0.082,0,0.123,0c0.041,0,0.082,0,0.122,0s0.081,0,0.122,0c0.041,0,0.081,0,0.122,0c0.041,0,0.081,0,0.122,0
	c0.041,0,0.081,0,0.122,0s0.081,0,0.122,0s0.081,0,0.121,0c0.041,0,0.081,0,0.122,0s0.081,0,0.121,0s0.081,0,0.121,0
	s0.081,0,0.121,0s0.081,0,0.121,0c0.04,0,0.08,0,0.121,0c0.04,0,0.081,0,0.121,0s0.081,0,0.121,0s0.08,0,0.121,0
	c0.04,0,0.08,0,0.12,0s0.08,0,0.121,0c0.04,0,0.08,0,0.12,0c0.041,0,0.081,0,0.12,0c0.04,0,0.08,0,0.12,0s0.08,0,0.12,0
	c0.04,0,0.08,0,0.12,0s0.08,0,0.12,0s0.08,0,0.12,0s0.08,0,0.12,0c0.04,0,0.08,0,0.119,0c0.04,0,0.08,0,0.12,0
	c0.04,0,0.079,0,0.119,0c0.04,0,0.08,0,0.119,0s0.079,0,0.119,0c0.04,0,0.079,0,0.119,0s0.079,0,0.119,0c0.04,0,0.079,0,0.119,0
	s0.079,0,0.119,0s0.079,0,0.119,0s0.079,0,0.119,0s0.079,0,0.118,0c0.04,0,0.079,0,0.119,0s0.079,0,0.118,0s0.079,0,0.118,0
	s0.079,0,0.118,0s0.079,0,0.118,0c0.039,0,0.079,0,0.118,0c0.04,0,0.079,0,0.118,0c0.039,0,0.079,0,0.118,0c0.04,0,0.079,0,0.118,0
	c0.04,0,0.079,0,0.118,0c0.04,0,0.079,0,0.118,0c0.039,0,0.078,0,0.117,0s0.079,0,0.118,0s0.078,0,0.117,0c0.04,0,0.079,0,0.118,0
	s0.078,0,0.117,0s0.078,0,0.117,0s0.078,0,0.117,0s0.078,0,0.117,0s0.078,0,0.117,0c0.039,0,0.078,0,0.117,0s0.078,0,0.117,0
	c0.039,0,0.078,0,0.117,0c0.039,0,0.078,0,0.117,0s0.078,0,0.117,0s0.078,0,0.117,0c0.039,0,0.078,0,0.117,0s0.078,0,0.117,0
	c0.039,0,0.078,0,0.116,0c0.039,0,0.078,0,0.117,0s0.078,0,0.116,0c0.039,0,0.078,0,0.117,0c0.039,0,0.078,0,0.116,0
	s0.078,0,0.116,0c0.039,0,0.078,0,0.116,0c0.039,0,0.078,0,0.116,0c0.039,0,0.078,0,0.116,0s0.078,0,0.116,0s0.077,0,0.116,0
	c0.039,0,0.077,0,0.116,0s0.078,0,0.116,0s0.077,0,0.116,0s0.077,0,0.116,0c0.039,0,0.078,0,0.116,0s0.077,0,0.116,0
	s0.077,0,0.116,0s0.077,0,0.116,0s0.077,0,0.116,0s0.077,0,0.116,0s0.077,0,0.116,0s0.077,0,0.116,0s0.077,0,0.116,0
	s0.077,0,0.115,0s0.077,0,0.116,0s0.077,0,0.116,0c0.038,0,0.077,0,0.115,0s0.077,0,0.116,0c0.038,0,0.077,0,0.115,0
	s0.077,0,0.115,0s0.077,0,0.116,0c0.038,0,0.077,0,0.115,0s0.077,0,0.115,0s0.077,0,0.115,0c0.039,0,0.077,0,0.116,0
	c0.038,0,0.077,0,0.115,0c0.038,0,0.077,0,0.115,0s0.077,0,0.115,0s0.077,0,0.115,0s0.077,0,0.115,0s0.077,0,0.115,0
	s0.077,0,0.115,0s0.077,0,0.115,0s0.077,0,0.115,0s0.077,0,0.115,0s0.077,0,0.115,0c0.038,0,0.077,0,0.115,0
	c0.038,0,0.077,0,0.115,0c0.039,0,0.077,0,0.115,0c0.039,0,0.077,0,0.115,0c0.039,0,0.077,0,0.115,0s0.077,0,0.115,0
	s0.077,0,0.115,0s0.077,0,0.115,0c0.038,0,0.077,0,0.115,0c0.038,0,0.077,0,0.115,0c0.038,0,0.077,0,0.115,0
	c0.039,0,0.077,0,0.115,0c0.039,0,0.077,0,0.115,0s0.077,0,0.115,0s0.077,0,0.115,0s0.077,0,0.115,0s0.077,0,0.115,0
	s0.077,0,0.115,0s0.077,0,0.115,0s0.077,0,0.115,0s0.077,0,0.115,0s0.077,0,0.115,0c0.039,0,0.077,0,0.115,0
	c0.039,0,0.077,0,0.116,0c0.038,0,0.077,0,0.115,0s0.077,0,0.115,0s0.077,0,0.115,0c0.039,0,0.077,0,0.116,0s0.077,0,0.115,0
	s0.077,0,0.115,0c0.039,0,0.077,0,0.116,0s0.077,0,0.115,0c0.039,0,0.077,0,0.116,0s0.077,0,0.116,0s0.077,0,0.115,0
	s0.077,0,0.116,0s0.077,0,0.116,0s0.077,0,0.116,0s0.077,0,0.116,0s0.077,0,0.116,0s0.077,0,0.116,0s0.077,0,0.116,0
	s0.077,0,0.116,0s0.077,0,0.116,0c0.039,0,0.077,0,0.116,0s0.077,0,0.116,0s0.078,0,0.116,0s0.077,0,0.116,0
	c0.039,0,0.078,0,0.116,0s0.078,0,0.116,0s0.077,0,0.116,0c0.039,0,0.077,0,0.116,0c0.039,0,0.077,0,0.116,0
	c0.039,0,0.078,0,0.116,0s0.078,0,0.116,0c0.039,0,0.078,0,0.116,0c0.039,0,0.078,0,0.117,0c0.038,0,0.077,0,0.116,0
	c0.039,0,0.078,0,0.117,0c0.038,0,0.077,0,0.116,0s0.078,0,0.117,0c0.039,0,0.078,0,0.116,0c0.039,0,0.078,0,0.117,0
	c0.039,0,0.078,0,0.117,0s0.078,0,0.117,0s0.078,0,0.117,0c0.039,0,0.078,0,0.117,0s0.078,0,0.117,0s0.078,0,0.117,0
	s0.078,0,0.117,0s0.078,0,0.117,0c0.039,0,0.078,0,0.118,0c0.039,0,0.078,0,0.117,0s0.078,0,0.117,0c0.04,0,0.079,0,0.118,0
	s0.078,0,0.117,0c0.04,0,0.079,0,0.118,0s0.079,0,0.118,0s0.078,0,0.118,0c0.039,0,0.078,0,0.117,0c0.04,0,0.079,0,0.118,0
	c0.04,0,0.079,0,0.118,0c0.04,0,0.079,0,0.118,0c0.04,0,0.079,0,0.118,0c0.04,0,0.079,0,0.119,0c0.039,0,0.079,0,0.118,0
	s0.079,0,0.118,0c0.04,0,0.079,0,0.119,0c0.039,0,0.079,0,0.118,0c0.04,0,0.079,0,0.119,0s0.079,0,0.119,0c0.039,0,0.079,0,0.118,0
	c0.04,0,0.08,0,0.119,0c0.04,0,0.08,0,0.119,0c0.04,0,0.08,0,0.119,0c0.04,0,0.08,0,0.119,0c0.04,0,0.08,0,0.12,0
	c0.039,0,0.079,0,0.119,0s0.08,0,0.119,0c0.04,0,0.08,0,0.12,0s0.08,0,0.119,0c0.04,0,0.08,0,0.12,0s0.08,0,0.12,0
	c0.04,0,0.08,0,0.12,0s0.08,0,0.12,0s0.08,0,0.12,0s0.08,0,0.12,0c0.04,0,0.08,0,0.12,0s0.081,0,0.121,0s0.08,0,0.12,0
	s0.08,0,0.121,0c0.04,0,0.08,0,0.12,0c0.041,0,0.081,0,0.121,0s0.081,0,0.121,0s0.081,0,0.121,0s0.081,0,0.121,0
	c0.041,0,0.081,0,0.121,0c0.041,0,0.081,0,0.122,0c0.04,0,0.081,0,0.121,0c0.041,0,0.081,0,0.122,0c0.04,0,0.081,0,0.121,0
	c0.041,0,0.081,0,0.122,0s0.081,0,0.122,0c0.041,0,0.081,0,0.122,0s0.081,0,0.122,0s0.082,0,0.122,0c0.041,0,0.082,0,0.123,0
	c0.04,0,0.081,0,0.122,0s0.082,0,0.123,0s0.081,0,0.122,0s0.082,0,0.123,0s0.082,0,0.123,0s0.082,0,0.123,0s0.082,0,0.124,0
	c0.041,0,0.082,0,0.123,0s0.082,0,0.123,0s0.083,0,0.124,0s0.082,0,0.124,0c0.041,0,0.082,0,0.123,0c0.042,0,0.083,0,0.124,0
	c0.042,0,0.083,0,0.125,0c0.041,0,0.082,0,0.124,0c0.041,0,0.083,0,0.124,0c0.042,0,0.083,0,0.125,0c0.041,0,0.083,0,0.124,0
	c0.042,0,0.084,0,0.125,0c0.042,0,0.083,0,0.125,0s0.084,0,0.125,0c0.042,0,0.084,0,0.125,0c0.042,0,0.084,0,0.126,0
	s0.083,0,0.125,0s0.084,0,0.126,0s0.084,0,0.126,0s0.084,0,0.126,0s0.084,0,0.126,0s0.084,0,0.126,0s0.084,0,0.126,0
	s0.085,0,0.127,0s0.084,0,0.127,0c0.042,0,0.084,0,0.126,0c0.043,0,0.085,0,0.127,0c0.043,0,0.085,0,0.127,0
	c0.043,0,0.085,0,0.128,0c0.042,0,0.085,0,0.127,0c0.043,0,0.085,0,0.128,0c0.042,0,0.085,0,0.128,0c0.042,0,0.085,0,0.127,0
	c0.043,0,0.086,0,0.129,0c0.042,0,0.085,0,0.128,0s0.085,0,0.128,0c0.043,0,0.086,0,0.129,0s0.086,0,0.128,0
	c0.043,0,0.086,0,0.129,0s0.086,0,0.129,0s0.086,0,0.13,0c0.043,0,0.086,0,0.129,0s0.086,0,0.13,0c0.043,0,0.086,0,0.129,0
	c0.044,0,0.087,0,0.13,0s0.087,0,0.13,0c0.044,0,0.087,0,0.13,0c0.044,0,0.087,0,0.131,0c0.043,0,0.087,0,0.13,0
	c0.044,0,0.088,0,0.131,0c0.044,0,0.087,0,0.131,0s0.087,0,0.131,0s0.088,0,0.132,0c0.043,0,0.087,0,0.131,0s0.088,0,0.132,0
	s0.087,0,0.131,0c0.044,0,0.088,0,0.132,0s0.089,0,0.133,0s0.088,0,0.132,0c0.044,0,0.088,0,0.133,0c0.044,0,0.088,0,0.132,0
	c0.045,0,0.089,0,0.133,0c0.045,0,0.089,0,0.133,0c0.045,0,0.089,0,0.134,0c0.044,0,0.089,0,0.133,0c0.045,0,0.089,0,0.134,0
	c0.044,0,0.089,0,0.134,0c0.044,0,0.089,0,0.134,0s0.089,0,0.134,0c0.045,0,0.09,0,0.135,0c0.044,0,0.089,0,0.134,0
	c0.045,0,0.09,0,0.135,0s0.09,0,0.135,0c0.045,0,0.09,0,0.135,0c0.046,0,0.091,0,0.136,0c0.045,0,0.09,0,0.136,0
	c0.045,0,0.09,0,0.135,0c0.046,0,0.091,0,0.136,0c0.046,0,0.091,0,0.137,0c0.045,0,0.091,0,0.136,0c0.046,0,0.091,0,0.137,0
	c0.045,0,0.091,0,0.137,0c0.045,0,0.091,0,0.137,0s0.091,0,0.137,0c0.046,0,0.092,0,0.138,0s0.091,0,0.137,0
	c0.046,0,0.092,0,0.138,0s0.092,0,0.138,0c0.047,0,0.093,0,0.139,0c0.046,0,0.092,0,0.138,0c0.047,0,0.093,0,0.139,0
	s0.093,0,0.139,0c0.047,0,0.093,0,0.139,0c0.047,0,0.093,0,0.14,0c0.046,0,0.093,0,0.139,0c0.047,0,0.094,0,0.14,0
	c0.047,0,0.094,0,0.14,0c0.047,0,0.094,0,0.141,0c0.047,0,0.093,0,0.14,0c0.047,0,0.094,0,0.141,0s0.094,0,0.141,0s0.094,0,0.141,0
	s0.095,0,0.142,0c0.047,0,0.094,0,0.141,0c0.048,0,0.095,0,0.142,0c0.048,0,0.095,0,0.143,0c0.047,0,0.094,0,0.142,0
	c0.047,0,0.095,0,0.143,0c0.047,0,0.095,0,0.142,0c0.048,0,0.096,0,0.143,0c0.048,0,0.096,0,0.144,0c0.048,0,0.095,0,0.143,0
	s0.096,0,0.144,0s0.096,0,0.144,0s0.096,0,0.144,0s0.097,0,0.145,0s0.096,0,0.145,0c0.048,0,0.096,0,0.145,0
	c0.048,0,0.096,0,0.145,0c0.048,0,0.097,0,0.145,0c0.049,0,0.097,0,0.146,0c0.049,0,0.097,0,0.146,0c0.049,0,0.097,0,0.146,0
	c0.049,0,0.098,0,0.147,0c0.049,0,0.097,0,0.146,0c0.049,0,0.098,0,0.147,0c0.049,0,0.098,0,0.148,0c0.049,0,0.098,0,0.147,0v-1
	c-0.049,0-0.098,0-0.147,0c-0.05,0-0.099,0-0.148,0c-0.049,0-0.098,0-0.147,0c-0.049,0-0.097,0-0.146,0c-0.049,0-0.098,0-0.147,0
	c-0.049,0-0.097,0-0.146,0c-0.049,0-0.097,0-0.146,0c-0.049,0-0.097,0-0.146,0c-0.048,0-0.097,0-0.145,0c-0.049,0-0.097,0-0.145,0
	c-0.049,0-0.097,0-0.145,0c-0.049,0-0.097,0-0.145,0s-0.097,0-0.145,0s-0.096,0-0.144,0s-0.096,0-0.144,0s-0.096,0-0.144,0
	s-0.095,0-0.143,0c-0.048,0-0.096,0-0.144,0c-0.047,0-0.095,0-0.143,0c-0.047,0-0.095,0-0.142,0c-0.048,0-0.096,0-0.143,0
	c-0.048,0-0.095,0-0.142,0c-0.048,0-0.095,0-0.143,0c-0.047,0-0.094,0-0.142,0c-0.047,0-0.094,0-0.141,0c-0.047,0-0.095,0-0.142,0
	s-0.094,0-0.141,0s-0.094,0-0.141,0s-0.094,0-0.141,0c-0.047,0-0.093,0-0.14,0c-0.047,0-0.094,0-0.141,0c-0.046,0-0.093,0-0.14,0
	c-0.046,0-0.093,0-0.14,0c-0.046,0-0.093,0-0.139,0c-0.047,0-0.093,0-0.14,0c-0.046,0-0.092,0-0.139,0c-0.046,0-0.093,0-0.139,0
	s-0.092,0-0.139,0c-0.046,0-0.092,0-0.138,0c-0.046,0-0.092,0-0.139,0c-0.046,0-0.092,0-0.138,0s-0.092,0-0.138,0
	c-0.046,0-0.091,0-0.137,0s-0.092,0-0.138,0c-0.046,0-0.091,0-0.137,0s-0.092,0-0.137,0c-0.046,0-0.092,0-0.137,0
	c-0.046,0-0.091,0-0.137,0c-0.045,0-0.091,0-0.136,0c-0.046,0-0.091,0-0.137,0c-0.045,0-0.09,0-0.136,0c-0.045,0-0.09,0-0.135,0
	c-0.046,0-0.091,0-0.136,0c-0.045,0-0.09,0-0.136,0c-0.045,0-0.09,0-0.135,0c-0.045,0-0.09,0-0.135,0s-0.09,0-0.135,0
	c-0.045,0-0.09,0-0.134,0c-0.045,0-0.09,0-0.135,0c-0.045,0-0.089,0-0.134,0s-0.09,0-0.134,0c-0.045,0-0.09,0-0.134,0
	c-0.045,0-0.089,0-0.134,0c-0.044,0-0.089,0-0.133,0c-0.045,0-0.089,0-0.134,0c-0.044,0-0.088,0-0.133,0c-0.044,0-0.088,0-0.133,0
	c-0.044,0-0.088,0-0.132,0c-0.045,0-0.089,0-0.133,0c-0.044,0-0.088,0-0.132,0s-0.089,0-0.133,0s-0.088,0-0.132,0
	c-0.044,0-0.087,0-0.131,0s-0.088,0-0.132,0s-0.088,0-0.131,0c-0.044,0-0.088,0-0.132,0s-0.087,0-0.131,0s-0.087,0-0.131,0
	c-0.043,0-0.087,0-0.131,0c-0.043,0-0.087,0-0.13,0c-0.044,0-0.087,0-0.131,0c-0.043,0-0.086,0-0.13,0c-0.043,0-0.087,0-0.13,0
	s-0.086,0-0.13,0c-0.043,0-0.086,0-0.129,0c-0.044,0-0.087,0-0.13,0s-0.086,0-0.129,0c-0.044,0-0.087,0-0.13,0s-0.086,0-0.129,0
	s-0.086,0-0.129,0c-0.042,0-0.085,0-0.128,0s-0.086,0-0.129,0c-0.043,0-0.085,0-0.128,0s-0.086,0-0.128,0c-0.043,0-0.086,0-0.129,0
	c-0.042,0-0.085,0-0.127,0c-0.043,0-0.086,0-0.128,0c-0.043,0-0.085,0-0.128,0c-0.042,0-0.085,0-0.127,0c-0.043,0-0.085,0-0.128,0
	c-0.042,0-0.084,0-0.127,0c-0.042,0-0.084,0-0.127,0c-0.042,0-0.084,0-0.126,0c-0.043,0-0.085,0-0.127,0s-0.085,0-0.127,0
	s-0.084,0-0.126,0s-0.084,0-0.126,0s-0.084,0-0.126,0s-0.084,0-0.126,0s-0.084,0-0.126,0s-0.084,0-0.126,0s-0.083,0-0.125,0
	s-0.084,0-0.126,0c-0.041,0-0.083,0-0.125,0c-0.041,0-0.083,0-0.125,0s-0.083,0-0.125,0c-0.041,0-0.083,0-0.125,0
	c-0.041,0-0.083,0-0.124,0c-0.042,0-0.083,0-0.125,0c-0.041,0-0.083,0-0.124,0c-0.042,0-0.083,0-0.124,0c-0.042,0-0.083,0-0.125,0
	c-0.041,0-0.082,0-0.124,0c-0.041,0-0.082,0-0.123,0c-0.042,0-0.083,0-0.124,0s-0.083,0-0.124,0s-0.082,0-0.123,0s-0.082,0-0.123,0
	c-0.042,0-0.083,0-0.124,0s-0.082,0-0.123,0s-0.082,0-0.123,0s-0.082,0-0.123,0s-0.081,0-0.122,0s-0.082,0-0.123,0s-0.082,0-0.122,0
	c-0.041,0-0.082,0-0.123,0c-0.04,0-0.081,0-0.122,0s-0.081,0-0.122,0s-0.081,0-0.122,0c-0.041,0-0.081,0-0.122,0s-0.081,0-0.122,0
	c-0.04,0-0.081,0-0.121,0c-0.041,0-0.081,0-0.122,0c-0.04,0-0.081,0-0.121,0c-0.041,0-0.081,0-0.122,0c-0.04,0-0.08,0-0.121,0
	c-0.04,0-0.081,0-0.121,0s-0.081,0-0.121,0s-0.081,0-0.121,0s-0.08,0-0.121,0c-0.04,0-0.08,0-0.12,0c-0.041,0-0.081,0-0.121,0
	s-0.08,0-0.12,0s-0.081,0-0.121,0s-0.08,0-0.12,0c-0.04,0-0.08,0-0.12,0s-0.08,0-0.12,0s-0.08,0-0.12,0s-0.08,0-0.12,0
	c-0.04,0-0.08,0-0.12,0s-0.08,0-0.12,0c-0.039,0-0.079,0-0.119,0s-0.08,0-0.12,0c-0.039,0-0.079,0-0.119,0s-0.08,0-0.119,0
	c-0.04,0-0.08,0-0.12,0c-0.039,0-0.079,0-0.119,0c-0.039,0-0.079,0-0.119,0c-0.039,0-0.079,0-0.119,0c-0.039,0-0.079,0-0.119,0
	c-0.039,0-0.079,0-0.118,0c-0.04,0-0.079,0-0.119,0s-0.079,0-0.119,0c-0.039,0-0.079,0-0.118,0c-0.04,0-0.079,0-0.119,0
	c-0.039,0-0.079,0-0.118,0s-0.079,0-0.118,0c-0.04,0-0.079,0-0.119,0c-0.039,0-0.078,0-0.118,0c-0.039,0-0.078,0-0.118,0
	c-0.039,0-0.078,0-0.118,0c-0.039,0-0.078,0-0.118,0c-0.039,0-0.078,0-0.117,0c-0.04,0-0.079,0-0.118,0s-0.079,0-0.118,0
	s-0.078,0-0.118,0c-0.039,0-0.078,0-0.117,0s-0.078,0-0.118,0c-0.039,0-0.078,0-0.117,0s-0.078,0-0.117,0c-0.04,0-0.079,0-0.118,0
	c-0.039,0-0.078,0-0.117,0s-0.078,0-0.117,0s-0.078,0-0.117,0s-0.078,0-0.117,0s-0.078,0-0.117,0c-0.039,0-0.078,0-0.117,0
	s-0.078,0-0.117,0s-0.078,0-0.117,0c-0.039,0-0.078,0-0.117,0c-0.038,0-0.077,0-0.116,0c-0.039,0-0.078,0-0.117,0s-0.078,0-0.116,0
	c-0.039,0-0.078,0-0.117,0c-0.039,0-0.078,0-0.116,0c-0.039,0-0.078,0-0.117,0c-0.039,0-0.077,0-0.116,0c-0.039,0-0.078,0-0.116,0
	s-0.078,0-0.116,0c-0.039,0-0.078,0-0.116,0c-0.039,0-0.078,0-0.116,0c-0.039,0-0.078,0-0.116,0s-0.078,0-0.116,0s-0.077,0-0.116,0
	c-0.039,0-0.077,0-0.116,0s-0.078,0-0.116,0s-0.077,0-0.116,0s-0.077,0-0.116,0c-0.039,0-0.078,0-0.116,0s-0.077,0-0.116,0
	s-0.077,0-0.116,0s-0.077,0-0.116,0s-0.077,0-0.116,0s-0.077,0-0.116,0s-0.077,0-0.116,0s-0.077,0-0.116,0s-0.077,0-0.116,0
	s-0.077,0-0.115,0s-0.077,0-0.116,0s-0.077,0-0.116,0c-0.038,0-0.077,0-0.115,0s-0.077,0-0.116,0c-0.038,0-0.077,0-0.115,0
	s-0.077,0-0.115,0s-0.077,0-0.116,0c-0.038,0-0.077,0-0.115,0s-0.077,0-0.115,0s-0.077,0-0.115,0c-0.039,0-0.077,0-0.116,0
	c-0.038,0-0.077,0-0.115,0c-0.038,0-0.077,0-0.115,0s-0.077,0-0.115,0s-0.077,0-0.115,0s-0.077,0-0.115,0s-0.077,0-0.115,0
	s-0.077,0-0.115,0s-0.077,0-0.115,0s-0.077,0-0.115,0s-0.077,0-0.115,0s-0.077,0-0.115,0c-0.038,0-0.077,0-0.115,0
	c-0.038,0-0.077,0-0.115,0c-0.039,0-0.077,0-0.115,0c-0.039,0-0.077,0-0.115,0c-0.039,0-0.077,0-0.115,0s-0.077,0-0.115,0
	s-0.077,0-0.115,0s-0.077,0-0.115,0c-0.038,0-0.077,0-0.115,0c-0.038,0-0.077,0-0.115,0c-0.038,0-0.077,0-0.115,0
	c-0.039,0-0.077,0-0.115,0c-0.039,0-0.077,0-0.115,0s-0.077,0-0.115,0s-0.077,0-0.115,0s-0.077,0-0.115,0s-0.077,0-0.115,0
	s-0.077,0-0.115,0s-0.077,0-0.115,0s-0.077,0-0.115,0s-0.077,0-0.115,0s-0.077,0-0.115,0c-0.039,0-0.077,0-0.115,0
	c-0.039,0-0.077,0-0.116,0c-0.038,0-0.077,0-0.115,0s-0.077,0-0.115,0s-0.077,0-0.115,0c-0.039,0-0.077,0-0.116,0s-0.077,0-0.115,0
	s-0.077,0-0.115,0c-0.039,0-0.077,0-0.116,0s-0.077,0-0.115,0c-0.039,0-0.077,0-0.116,0s-0.077,0-0.116,0s-0.077,0-0.115,0
	s-0.077,0-0.116,0s-0.077,0-0.116,0s-0.077,0-0.116,0s-0.077,0-0.116,0s-0.077,0-0.116,0s-0.077,0-0.116,0s-0.077,0-0.116,0
	s-0.077,0-0.116,0s-0.077,0-0.116,0c-0.039,0-0.077,0-0.116,0s-0.077,0-0.116,0s-0.078,0-0.116,0s-0.077,0-0.116,0
	c-0.039,0-0.078,0-0.116,0s-0.078,0-0.116,0s-0.077,0-0.116,0c-0.039,0-0.077,0-0.116,0c-0.039,0-0.077,0-0.116,0
	c-0.039,0-0.078,0-0.116,0s-0.078,0-0.116,0c-0.039,0-0.078,0-0.117,0c-0.039,0-0.078,0-0.116,0s-0.078,0-0.117,0
	c-0.039,0-0.078,0-0.116,0c-0.039,0-0.078,0-0.117,0s-0.078,0-0.117,0c-0.039,0-0.078,0-0.117,0s-0.078,0-0.117,0s-0.078,0-0.117,0
	c-0.039,0-0.078,0-0.117,0c-0.039,0-0.078,0-0.117,0s-0.078,0-0.117,0c-0.039,0-0.078,0-0.117,0s-0.078,0-0.117,0s-0.078,0-0.117,0
	s-0.078,0-0.117,0s-0.078,0-0.117,0s-0.078,0-0.118,0c-0.039,0-0.078,0-0.117,0s-0.079,0-0.118,0s-0.078,0-0.117,0
	c-0.04,0-0.079,0-0.118,0c-0.039,0-0.078,0-0.118,0c-0.039,0-0.078,0-0.118,0c-0.039,0-0.079,0-0.118,0c-0.04,0-0.079,0-0.118,0
	c-0.039,0-0.079,0-0.118,0c-0.04,0-0.079,0-0.118,0s-0.079,0-0.118,0s-0.079,0-0.118,0s-0.079,0-0.118,0s-0.079,0-0.119,0
	c-0.039,0-0.079,0-0.118,0s-0.079,0-0.119,0s-0.079,0-0.119,0s-0.079,0-0.119,0s-0.079,0-0.119,0c-0.04,0-0.08,0-0.119,0
	s-0.079,0-0.119,0c-0.04,0-0.08,0-0.119,0s-0.08,0-0.119,0c-0.04,0-0.08,0-0.119,0c-0.04,0-0.08,0-0.12,0c-0.04,0-0.08,0-0.119,0
	c-0.04,0-0.08,0-0.12,0s-0.08,0-0.12,0s-0.08,0-0.12,0s-0.08,0-0.12,0c-0.04,0-0.08,0-0.12,0s-0.08,0-0.12,0c-0.04,0-0.08,0-0.12,0
	c-0.04,0-0.08,0-0.12,0c-0.041,0-0.081,0-0.121,0s-0.08,0-0.12,0c-0.041,0-0.081,0-0.121,0s-0.081,0-0.121,0s-0.081,0-0.121,0
	c-0.041,0-0.081,0-0.121,0c-0.041,0-0.081,0-0.121,0s-0.081,0-0.121,0s-0.081,0-0.121,0s-0.081,0-0.121,0s-0.081,0-0.122,0
	c-0.04,0-0.081,0-0.121,0s-0.081,0-0.122,0s-0.081,0-0.122,0c-0.041,0-0.081,0-0.122,0c-0.041,0-0.081,0-0.122,0
	c-0.041,0-0.082,0-0.122,0s-0.082,0-0.122,0c-0.041,0-0.082,0-0.123,0c-0.041,0-0.082,0-0.122,0c-0.041,0-0.082,0-0.123,0
	s-0.082,0-0.123,0s-0.082,0-0.123,0c-0.041,0-0.082,0-0.123,0s-0.082,0-0.123,0s-0.082,0-0.123,0s-0.082,0-0.123,0s-0.083,0-0.124,0
	s-0.082,0-0.124,0c-0.041,0-0.082,0-0.124,0c-0.041,0-0.083,0-0.124,0c-0.042,0-0.083,0-0.124,0c-0.041,0-0.083,0-0.124,0
	c-0.041,0-0.083,0-0.124,0s-0.083,0-0.125,0c-0.041,0-0.083,0-0.124,0s-0.083,0-0.125,0s-0.083,0-0.125,0c-0.042,0-0.083,0-0.125,0
	s-0.083,0-0.125,0s-0.083,0-0.125,0s-0.083,0-0.125,0c-0.042,0-0.084,0-0.125,0c-0.042,0-0.083,0-0.125,0s-0.084,0-0.126,0
	c-0.042,0-0.083,0-0.125,0s-0.084,0-0.126,0s-0.084,0-0.126,0c-0.042,0-0.084,0-0.126,0s-0.084,0-0.126,0c-0.042,0-0.084,0-0.126,0
	c-0.042,0-0.084,0-0.126,0c-0.042,0-0.084,0-0.127,0s-0.084,0-0.127,0s-0.085,0-0.127,0c-0.042,0-0.085,0-0.127,0s-0.085,0-0.127,0
	s-0.085,0-0.127,0c-0.043,0-0.085,0-0.128,0s-0.085,0-0.128,0s-0.085,0-0.128,0c-0.043,0-0.085,0-0.128,0c-0.042,0-0.085,0-0.128,0
	s-0.085,0-0.128,0s-0.086,0-0.129,0s-0.086,0-0.129,0s-0.086,0-0.129,0s-0.086,0-0.129,0c-0.043,0-0.086,0-0.129,0
	c-0.043,0-0.086,0-0.129,0c-0.043,0-0.086,0-0.13,0c-0.043,0-0.086,0-0.13,0c-0.043,0-0.086,0-0.13,0s-0.087,0-0.13,0
	s-0.087,0-0.13,0s-0.087,0-0.13,0s-0.087,0-0.131,0s-0.087,0-0.131,0c-0.044,0-0.087,0-0.131,0c-0.043,0-0.087,0-0.131,0
	c-0.043,0-0.087,0-0.131,0s-0.087,0-0.131,0s-0.088,0-0.132,0s-0.088,0-0.132,0s-0.088,0-0.132,0c-0.044,0-0.088,0-0.133,0
	c-0.044,0-0.088,0-0.132,0c-0.044,0-0.088,0-0.133,0s-0.088,0-0.133,0s-0.089,0-0.133,0s-0.089,0-0.133,0s-0.089,0-0.133,0
	s-0.089,0-0.134,0s-0.089,0-0.134,0c-0.045,0-0.089,0-0.134,0c-0.044,0-0.089,0-0.134,0s-0.089,0-0.134,0s-0.09,0-0.135,0
	s-0.09,0-0.135,0s-0.09,0-0.135,0c-0.045,0-0.09,0-0.135,0c-0.045,0-0.09,0-0.135,0c-0.045,0-0.09,0-0.136,0s-0.09,0-0.136,0
	s-0.091,0-0.136,0s-0.091,0-0.136,0s-0.091,0-0.136,0c-0.046,0-0.091,0-0.137,0c-0.046,0-0.091,0-0.137,0c-0.045,0-0.091,0-0.137,0
	c-0.046,0-0.092,0-0.138,0c-0.045,0-0.091,0-0.137,0s-0.092,0-0.138,0s-0.092,0-0.138,0s-0.092,0-0.138,0c-0.046,0-0.092,0-0.138,0
	c-0.046,0-0.092,0-0.139,0s-0.092,0-0.139,0s-0.093,0-0.139,0s-0.093,0-0.139,0s-0.093,0-0.139,0c-0.047,0-0.093,0-0.14,0
	c-0.046,0-0.093,0-0.14,0s-0.093,0-0.14,0s-0.093,0-0.14,0s-0.094,0-0.141,0s-0.094,0-0.141,0c-0.047,0-0.094,0-0.141,0
	c-0.047,0-0.094,0-0.142,0c-0.047,0-0.094,0-0.141,0c-0.047,0-0.095,0-0.142,0c-0.047,0-0.095,0-0.142,0s-0.095,0-0.142,0
	s-0.095,0-0.143,0c-0.047,0-0.095,0-0.143,0c-0.047,0-0.095,0-0.143,0c-0.048,0-0.096,0-0.143,0c-0.048,0-0.096,0-0.144,0
	s-0.096,0-0.144,0s-0.096,0-0.144,0s-0.096,0-0.144,0s-0.096,0-0.145,0c-0.048,0-0.096,0-0.145,0c-0.048,0-0.096,0-0.145,0
	s-0.097,0-0.145,0s-0.097,0-0.145,0c-0.049,0-0.097,0-0.146,0c-0.049,0-0.097,0-0.146,0c-0.048,0-0.097,0-0.146,0
	c-0.048,0-0.097,0-0.146,0s-0.098,0-0.146,0s-0.098,0-0.147,0c-0.049,0-0.098,0-0.146,0c-0.049,0-0.098,0-0.147,0
	c-0.049,0-0.098,0-0.147,0V31.5z M62,102.5h64.5v-1H62V102.5z"/>
<path fill="#00DCE6" d="M86.625,169.847c0-0.449-0.364-0.813-0.813-0.813S85,169.398,85,169.847c0,0.45,0.364,0.814,0.813,0.814
	S86.625,170.297,86.625,169.847z"/>
<path fill="#00DCE6" d="M86.625,165.238c0-0.449-0.364-0.814-0.813-0.814S85,164.789,85,165.238c0,0.449,0.364,0.813,0.813,0.813
	S86.625,165.687,86.625,165.238z"/>
<path fill="#00DCE6" d="M86.625,160.493c0-0.449-0.364-0.814-0.813-0.814S85,160.044,85,160.493c0,0.449,0.364,0.813,0.813,0.813
	S86.625,160.942,86.625,160.493z"/>
<path fill="#00DCE6" d="M86.625,155.883c0-0.449-0.364-0.813-0.813-0.813S85,155.434,85,155.883c0,0.45,0.364,0.814,0.813,0.814
	S86.625,156.333,86.625,155.883z"/>
<path fill="#00DCE6" d="M86.625,151.138c0-0.449-0.364-0.813-0.813-0.813S85,150.689,85,151.138c0,0.45,0.364,0.814,0.813,0.814
	S86.625,151.588,86.625,151.138z"/>
<path fill="#00DCE6" d="M86.625,146.393c0-0.449-0.364-0.813-0.813-0.813S85,145.944,85,146.393c0,0.45,0.364,0.814,0.813,0.814
	S86.625,146.843,86.625,146.393z"/>
<path fill="#00DCE6" d="M86.625,141.784c0-0.449-0.364-0.814-0.813-0.814S85,141.335,85,141.784c0,0.449,0.364,0.813,0.813,0.813
	S86.625,142.233,86.625,141.784z"/>
<path fill="#00DCE6" d="M86.625,137.039c0-0.449-0.364-0.814-0.813-0.814S85,136.59,85,137.039s0.364,0.813,0.813,0.813
	S86.625,137.488,86.625,137.039z"/>
<path fill="#00DCE6" d="M86.625,132.429c0-0.449-0.364-0.813-0.813-0.813S85,131.98,85,132.429c0,0.45,0.364,0.814,0.813,0.814
	S86.625,132.879,86.625,132.429z"/>
<path fill="#00DCE6" d="M86.625,127.684c0-0.449-0.364-0.813-0.813-0.813S85,127.235,85,127.684c0,0.45,0.364,0.814,0.813,0.814
	S86.625,128.134,86.625,127.684z"/>
<path fill="#00DCE6" d="M86.625,123.075c0-0.449-0.364-0.814-0.813-0.814S85,122.626,85,123.075c0,0.449,0.364,0.813,0.813,0.813
	S86.625,123.524,86.625,123.075z"/>
<path fill="#00DCE6" d="M91.229,169.847c0-0.449-0.364-0.813-0.813-0.813s-0.813,0.364-0.813,0.813c0,0.45,0.364,0.814,0.813,0.814
	S91.229,170.297,91.229,169.847z"/>
<path fill="#00DCE6" d="M91.229,165.238c0-0.449-0.364-0.814-0.813-0.814s-0.813,0.365-0.813,0.814c0,0.449,0.364,0.813,0.813,0.813
	S91.229,165.687,91.229,165.238z"/>
<path fill="#00DCE6" d="M91.229,160.493c0-0.449-0.364-0.814-0.813-0.814s-0.813,0.365-0.813,0.814c0,0.449,0.364,0.813,0.813,0.813
	S91.229,160.942,91.229,160.493z"/>
<path fill="#00DCE6" d="M91.229,155.883c0-0.449-0.364-0.813-0.813-0.813s-0.813,0.364-0.813,0.813c0,0.45,0.364,0.814,0.813,0.814
	S91.229,156.333,91.229,155.883z"/>
<path fill="#00DCE6" d="M91.229,151.138c0-0.449-0.364-0.813-0.813-0.813s-0.813,0.364-0.813,0.813c0,0.45,0.364,0.814,0.813,0.814
	S91.229,151.588,91.229,151.138z"/>
<path fill="#00DCE6" d="M91.229,146.393c0-0.449-0.364-0.813-0.813-0.813s-0.813,0.364-0.813,0.813c0,0.45,0.364,0.814,0.813,0.814
	S91.229,146.843,91.229,146.393z"/>
<path fill="#00DCE6" d="M91.229,141.784c0-0.449-0.364-0.814-0.813-0.814s-0.813,0.365-0.813,0.814c0,0.449,0.364,0.813,0.813,0.813
	S91.229,142.233,91.229,141.784z"/>
<path fill="#00DCE6" d="M91.229,137.039c0-0.449-0.364-0.814-0.813-0.814s-0.813,0.365-0.813,0.814s0.364,0.813,0.813,0.813
	S91.229,137.488,91.229,137.039z"/>
<path fill="#00DCE6" d="M91.229,132.429c0-0.449-0.364-0.813-0.813-0.813s-0.813,0.364-0.813,0.813c0,0.45,0.364,0.814,0.813,0.814
	S91.229,132.879,91.229,132.429z"/>
<path fill="#00DCE6" d="M91.229,127.684c0-0.449-0.364-0.813-0.813-0.813s-0.813,0.364-0.813,0.813c0,0.45,0.364,0.814,0.813,0.814
	S91.229,128.134,91.229,127.684z"/>
<path fill="#00DCE6" d="M91.229,123.075c0-0.449-0.364-0.814-0.813-0.814s-0.813,0.365-0.813,0.814c0,0.449,0.364,0.813,0.813,0.813
	S91.229,123.524,91.229,123.075z"/>
<path fill="#00DCE6" d="M95.969,169.847c0-0.449-0.364-0.813-0.813-0.813s-0.813,0.364-0.813,0.813c0,0.45,0.364,0.814,0.813,0.814
	S95.969,170.297,95.969,169.847z"/>
<path fill="#00DCE6" d="M95.969,165.238c0-0.449-0.364-0.814-0.813-0.814s-0.813,0.365-0.813,0.814c0,0.449,0.364,0.813,0.813,0.813
	S95.969,165.687,95.969,165.238z"/>
<path fill="#00DCE6" d="M95.969,160.493c0-0.449-0.364-0.814-0.813-0.814s-0.813,0.365-0.813,0.814c0,0.449,0.364,0.813,0.813,0.813
	S95.969,160.942,95.969,160.493z"/>
<path fill="#00DCE6" d="M95.969,155.883c0-0.449-0.364-0.813-0.813-0.813s-0.813,0.364-0.813,0.813c0,0.45,0.364,0.814,0.813,0.814
	S95.969,156.333,95.969,155.883z"/>
<path fill="#00DCE6" d="M95.969,151.138c0-0.449-0.364-0.813-0.813-0.813s-0.813,0.364-0.813,0.813c0,0.45,0.364,0.814,0.813,0.814
	S95.969,151.588,95.969,151.138z"/>
<path fill="#00DCE6" d="M95.969,146.393c0-0.449-0.364-0.813-0.813-0.813s-0.813,0.364-0.813,0.813c0,0.45,0.364,0.814,0.813,0.814
	S95.969,146.843,95.969,146.393z"/>
<path fill="#00DCE6" d="M95.969,141.784c0-0.449-0.364-0.814-0.813-0.814s-0.813,0.365-0.813,0.814c0,0.449,0.364,0.813,0.813,0.813
	S95.969,142.233,95.969,141.784z"/>
<path fill="#00DCE6" d="M95.969,137.039c0-0.449-0.364-0.814-0.813-0.814s-0.813,0.365-0.813,0.814s0.364,0.813,0.813,0.813
	S95.969,137.488,95.969,137.039z"/>
<path fill="#00DCE6" d="M95.969,132.429c0-0.449-0.364-0.813-0.813-0.813s-0.813,0.364-0.813,0.813c0,0.45,0.364,0.814,0.813,0.814
	S95.969,132.879,95.969,132.429z"/>
<path fill="#00DCE6" d="M95.969,127.684c0-0.449-0.364-0.813-0.813-0.813s-0.813,0.364-0.813,0.813c0,0.45,0.364,0.814,0.813,0.814
	S95.969,128.134,95.969,127.684z"/>
<path fill="#00DCE6" d="M95.969,123.075c0-0.449-0.364-0.814-0.813-0.814s-0.813,0.365-0.813,0.814c0,0.449,0.364,0.813,0.813,0.813
	S95.969,123.524,95.969,123.075z"/>
<path fill="#00DCE6" d="M100.709,169.847c0-0.449-0.364-0.813-0.813-0.813s-0.813,0.364-0.813,0.813c0,0.45,0.364,0.814,0.813,0.814
	S100.709,170.297,100.709,169.847z"/>
<path fill="#00DCE6" d="M100.709,165.238c0-0.449-0.364-0.814-0.813-0.814s-0.813,0.365-0.813,0.814
	c0,0.449,0.364,0.813,0.813,0.813S100.709,165.687,100.709,165.238z"/>
<path fill="#00DCE6" d="M100.709,160.493c0-0.449-0.364-0.814-0.813-0.814s-0.813,0.365-0.813,0.814
	c0,0.449,0.364,0.813,0.813,0.813S100.709,160.942,100.709,160.493z"/>
<path fill="#00DCE6" d="M100.709,155.883c0-0.449-0.364-0.813-0.813-0.813s-0.813,0.364-0.813,0.813c0,0.45,0.364,0.814,0.813,0.814
	S100.709,156.333,100.709,155.883z"/>
<path fill="#00DCE6" d="M100.709,151.138c0-0.449-0.364-0.813-0.813-0.813s-0.813,0.364-0.813,0.813c0,0.45,0.364,0.814,0.813,0.814
	S100.709,151.588,100.709,151.138z"/>
<path fill="#00DCE6" d="M100.709,146.393c0-0.449-0.364-0.813-0.813-0.813s-0.813,0.364-0.813,0.813c0,0.45,0.364,0.814,0.813,0.814
	S100.709,146.843,100.709,146.393z"/>
<path fill="#00DCE6" d="M100.709,141.784c0-0.449-0.364-0.814-0.813-0.814s-0.813,0.365-0.813,0.814
	c0,0.449,0.364,0.813,0.813,0.813S100.709,142.233,100.709,141.784z"/>
<path fill="#00DCE6" d="M100.709,137.039c0-0.449-0.364-0.814-0.813-0.814s-0.813,0.365-0.813,0.814s0.364,0.813,0.813,0.813
	S100.709,137.488,100.709,137.039z"/>
<path fill="#00DCE6" d="M100.709,132.429c0-0.449-0.364-0.813-0.813-0.813s-0.813,0.364-0.813,0.813c0,0.45,0.364,0.814,0.813,0.814
	S100.709,132.879,100.709,132.429z"/>
<path fill="#00DCE6" d="M100.709,127.684c0-0.449-0.364-0.813-0.813-0.813s-0.813,0.364-0.813,0.813c0,0.45,0.364,0.814,0.813,0.814
	S100.709,128.134,100.709,127.684z"/>
<path fill="#00DCE6" d="M100.709,123.075c0-0.449-0.364-0.814-0.813-0.814s-0.813,0.365-0.813,0.814
	c0,0.449,0.364,0.813,0.813,0.813S100.709,123.524,100.709,123.075z"/>
<path fill="#00DCE6" d="M105.312,169.847c0-0.449-0.364-0.813-0.813-0.813c-0.448,0-0.812,0.364-0.812,0.813
	c0,0.45,0.364,0.814,0.812,0.814C104.948,170.661,105.312,170.297,105.312,169.847z"/>
<path fill="#00DCE6" d="M105.312,165.238c0-0.449-0.364-0.814-0.813-0.814c-0.448,0-0.812,0.365-0.812,0.814
	c0,0.449,0.364,0.813,0.812,0.813C104.948,166.051,105.312,165.687,105.312,165.238z"/>
<path fill="#00DCE6" d="M105.312,160.493c0-0.449-0.364-0.814-0.813-0.814c-0.448,0-0.812,0.365-0.812,0.814
	c0,0.449,0.364,0.813,0.812,0.813C104.948,161.306,105.312,160.942,105.312,160.493z"/>
<path fill="#00DCE6" d="M105.312,155.883c0-0.449-0.364-0.813-0.813-0.813c-0.448,0-0.812,0.364-0.812,0.813
	c0,0.45,0.364,0.814,0.812,0.814C104.948,156.697,105.312,156.333,105.312,155.883z"/>
<path fill="#00DCE6" d="M105.312,151.138c0-0.449-0.364-0.813-0.813-0.813c-0.448,0-0.812,0.364-0.812,0.813
	c0,0.45,0.364,0.814,0.812,0.814C104.948,151.952,105.312,151.588,105.312,151.138z"/>
<path fill="#00DCE6" d="M105.312,146.393c0-0.449-0.364-0.813-0.813-0.813c-0.448,0-0.812,0.364-0.812,0.813
	c0,0.45,0.364,0.814,0.812,0.814C104.948,147.207,105.312,146.843,105.312,146.393z"/>
<path fill="#00DCE6" d="M105.312,141.784c0-0.449-0.364-0.814-0.813-0.814c-0.448,0-0.812,0.365-0.812,0.814
	c0,0.449,0.364,0.813,0.812,0.813C104.948,142.597,105.312,142.233,105.312,141.784z"/>
<path fill="#00DCE6" d="M105.312,137.039c0-0.449-0.364-0.814-0.813-0.814c-0.448,0-0.812,0.365-0.812,0.814
	s0.364,0.813,0.812,0.813C104.948,137.852,105.312,137.488,105.312,137.039z"/>
<path fill="#00DCE6" d="M105.312,132.429c0-0.449-0.364-0.813-0.813-0.813c-0.448,0-0.812,0.364-0.812,0.813
	c0,0.45,0.364,0.814,0.812,0.814C104.948,133.243,105.312,132.879,105.312,132.429z"/>
<path fill="#00DCE6" d="M105.312,127.684c0-0.449-0.364-0.813-0.813-0.813c-0.448,0-0.812,0.364-0.812,0.813
	c0,0.45,0.364,0.814,0.812,0.814C104.948,128.498,105.312,128.134,105.312,127.684z"/>
<path fill="#00DCE6" d="M105.312,123.075c0-0.449-0.364-0.814-0.813-0.814c-0.448,0-0.812,0.365-0.812,0.814
	c0,0.449,0.364,0.813,0.812,0.813C104.948,123.888,105.312,123.524,105.312,123.075z"/>
<path fill="#00DCE6" d="M110.052,169.847c0-0.449-0.364-0.813-0.813-0.813c-0.449,0-0.812,0.364-0.812,0.813
	c0,0.45,0.363,0.814,0.812,0.814C109.688,170.661,110.052,170.297,110.052,169.847z"/>
<path fill="#00DCE6" d="M110.052,165.238c0-0.449-0.364-0.814-0.813-0.814c-0.449,0-0.812,0.365-0.812,0.814
	c0,0.449,0.363,0.813,0.812,0.813C109.688,166.051,110.052,165.687,110.052,165.238z"/>
<path fill="#00DCE6" d="M110.052,160.493c0-0.449-0.364-0.814-0.813-0.814c-0.449,0-0.812,0.365-0.812,0.814
	c0,0.449,0.363,0.813,0.812,0.813C109.688,161.306,110.052,160.942,110.052,160.493z"/>
<path fill="#00DCE6" d="M110.052,155.883c0-0.449-0.364-0.813-0.813-0.813c-0.449,0-0.812,0.364-0.812,0.813
	c0,0.45,0.363,0.814,0.812,0.814C109.688,156.697,110.052,156.333,110.052,155.883z"/>
<path fill="#00DCE6" d="M110.052,151.138c0-0.449-0.364-0.813-0.813-0.813c-0.449,0-0.812,0.364-0.812,0.813
	c0,0.45,0.363,0.814,0.812,0.814C109.688,151.952,110.052,151.588,110.052,151.138z"/>
<path fill="#00DCE6" d="M110.052,146.393c0-0.449-0.364-0.813-0.813-0.813c-0.449,0-0.812,0.364-0.812,0.813
	c0,0.45,0.363,0.814,0.812,0.814C109.688,147.207,110.052,146.843,110.052,146.393z"/>
<path fill="#00DCE6" d="M110.052,141.784c0-0.449-0.364-0.814-0.813-0.814c-0.449,0-0.812,0.365-0.812,0.814
	c0,0.449,0.363,0.813,0.812,0.813C109.688,142.597,110.052,142.233,110.052,141.784z"/>
<path fill="#00DCE6" d="M110.052,137.039c0-0.449-0.364-0.814-0.813-0.814c-0.449,0-0.812,0.365-0.812,0.814
	s0.363,0.813,0.812,0.813C109.688,137.852,110.052,137.488,110.052,137.039z"/>
<path fill="#00DCE6" d="M110.052,132.429c0-0.449-0.364-0.813-0.813-0.813c-0.449,0-0.812,0.364-0.812,0.813
	c0,0.45,0.363,0.814,0.812,0.814C109.688,133.243,110.052,132.879,110.052,132.429z"/>
<path fill="#00DCE6" d="M110.052,127.684c0-0.449-0.364-0.813-0.813-0.813c-0.449,0-0.812,0.364-0.812,0.813
	c0,0.45,0.363,0.814,0.812,0.814C109.688,128.498,110.052,128.134,110.052,127.684z"/>
<path fill="#00DCE6" d="M110.052,123.075c0-0.449-0.364-0.814-0.813-0.814c-0.449,0-0.812,0.365-0.812,0.814
	c0,0.449,0.363,0.813,0.812,0.813C109.688,123.888,110.052,123.524,110.052,123.075z"/>
<path fill="#00DCE6" d="M114.656,169.847c0-0.449-0.364-0.813-0.812-0.813c-0.449,0-0.813,0.364-0.813,0.813
	c0,0.45,0.364,0.814,0.813,0.814C114.292,170.661,114.656,170.297,114.656,169.847z"/>
<path fill="#00DCE6" d="M114.656,165.238c0-0.449-0.364-0.814-0.812-0.814c-0.449,0-0.813,0.365-0.813,0.814
	c0,0.449,0.364,0.813,0.813,0.813C114.292,166.051,114.656,165.687,114.656,165.238z"/>
<path fill="#00DCE6" d="M114.656,160.493c0-0.449-0.364-0.814-0.812-0.814c-0.449,0-0.813,0.365-0.813,0.814
	c0,0.449,0.364,0.813,0.813,0.813C114.292,161.306,114.656,160.942,114.656,160.493z"/>
<path fill="#00DCE6" d="M114.656,155.883c0-0.449-0.364-0.813-0.812-0.813c-0.449,0-0.813,0.364-0.813,0.813
	c0,0.45,0.364,0.814,0.813,0.814C114.292,156.697,114.656,156.333,114.656,155.883z"/>
<path fill="#00DCE6" d="M114.656,151.138c0-0.449-0.364-0.813-0.812-0.813c-0.449,0-0.813,0.364-0.813,0.813
	c0,0.45,0.364,0.814,0.813,0.814C114.292,151.952,114.656,151.588,114.656,151.138z"/>
<path fill="#00DCE6" d="M114.656,146.393c0-0.449-0.364-0.813-0.812-0.813c-0.449,0-0.813,0.364-0.813,0.813
	c0,0.45,0.364,0.814,0.813,0.814C114.292,147.207,114.656,146.843,114.656,146.393z"/>
<path fill="#00DCE6" d="M114.656,141.784c0-0.449-0.364-0.814-0.812-0.814c-0.449,0-0.813,0.365-0.813,0.814
	c0,0.449,0.364,0.813,0.813,0.813C114.292,142.597,114.656,142.233,114.656,141.784z"/>
<path fill="#00DCE6" d="M114.656,137.039c0-0.449-0.364-0.814-0.812-0.814c-0.449,0-0.813,0.365-0.813,0.814
	s0.364,0.813,0.813,0.813C114.292,137.852,114.656,137.488,114.656,137.039z"/>
<path fill="#00DCE6" d="M114.656,132.429c0-0.449-0.364-0.813-0.812-0.813c-0.449,0-0.813,0.364-0.813,0.813
	c0,0.45,0.364,0.814,0.813,0.814C114.292,133.243,114.656,132.879,114.656,132.429z"/>
<path fill="#00DCE6" d="M114.656,127.684c0-0.449-0.364-0.813-0.812-0.813c-0.449,0-0.813,0.364-0.813,0.813
	c0,0.45,0.364,0.814,0.813,0.814C114.292,128.498,114.656,128.134,114.656,127.684z"/>
<path fill="#00DCE6" d="M114.656,123.075c0-0.449-0.364-0.814-0.812-0.814c-0.449,0-0.813,0.365-0.813,0.814
	c0,0.449,0.364,0.813,0.813,0.813C114.292,123.888,114.656,123.524,114.656,123.075z"/>
<path fill="#00DCE6" d="M119.396,169.847c0-0.449-0.364-0.813-0.813-0.813c-0.448,0-0.812,0.364-0.812,0.813
	c0,0.45,0.364,0.814,0.812,0.814C119.032,170.661,119.396,170.297,119.396,169.847z"/>
<path fill="#00DCE6" d="M119.396,165.238c0-0.449-0.364-0.814-0.813-0.814c-0.448,0-0.812,0.365-0.812,0.814
	c0,0.449,0.364,0.813,0.812,0.813C119.032,166.051,119.396,165.687,119.396,165.238z"/>
<path fill="#00DCE6" d="M119.396,160.493c0-0.449-0.364-0.814-0.813-0.814c-0.448,0-0.812,0.365-0.812,0.814
	c0,0.449,0.364,0.813,0.812,0.813C119.032,161.306,119.396,160.942,119.396,160.493z"/>
<path fill="#00DCE6" d="M119.396,155.883c0-0.449-0.364-0.813-0.813-0.813c-0.448,0-0.812,0.364-0.812,0.813
	c0,0.45,0.364,0.814,0.812,0.814C119.032,156.697,119.396,156.333,119.396,155.883z"/>
<path fill="#00DCE6" d="M119.396,151.138c0-0.449-0.364-0.813-0.813-0.813c-0.448,0-0.812,0.364-0.812,0.813
	c0,0.45,0.364,0.814,0.812,0.814C119.032,151.952,119.396,151.588,119.396,151.138z"/>
<path fill="#00DCE6" d="M119.396,146.393c0-0.449-0.364-0.813-0.813-0.813c-0.448,0-0.812,0.364-0.812,0.813
	c0,0.45,0.364,0.814,0.812,0.814C119.032,147.207,119.396,146.843,119.396,146.393z"/>
<path fill="#00DCE6" d="M119.396,141.784c0-0.449-0.364-0.814-0.813-0.814c-0.448,0-0.812,0.365-0.812,0.814
	c0,0.449,0.364,0.813,0.812,0.813C119.032,142.597,119.396,142.233,119.396,141.784z"/>
<path fill="#00DCE6" d="M119.396,137.039c0-0.449-0.364-0.814-0.813-0.814c-0.448,0-0.812,0.365-0.812,0.814
	s0.364,0.813,0.812,0.813C119.032,137.852,119.396,137.488,119.396,137.039z"/>
<path fill="#00DCE6" d="M119.396,132.429c0-0.449-0.364-0.813-0.813-0.813c-0.448,0-0.812,0.364-0.812,0.813
	c0,0.45,0.364,0.814,0.812,0.814C119.032,133.243,119.396,132.879,119.396,132.429z"/>
<path fill="#00DCE6" d="M119.396,127.684c0-0.449-0.364-0.813-0.813-0.813c-0.448,0-0.812,0.364-0.812,0.813
	c0,0.45,0.364,0.814,0.812,0.814C119.032,128.498,119.396,128.134,119.396,127.684z"/>
<path fill="#00DCE6" d="M119.396,123.075c0-0.449-0.364-0.814-0.813-0.814c-0.448,0-0.812,0.365-0.812,0.814
	c0,0.449,0.364,0.813,0.812,0.813C119.032,123.888,119.396,123.524,119.396,123.075z"/>
<path fill="#00DCE6" d="M124,169.847c0-0.449-0.364-0.813-0.813-0.813c-0.448,0-0.812,0.364-0.812,0.813
	c0,0.45,0.364,0.814,0.812,0.814C123.636,170.661,124,170.297,124,169.847z"/>
<path fill="#00DCE6" d="M124,165.238c0-0.449-0.364-0.814-0.813-0.814c-0.448,0-0.812,0.365-0.812,0.814
	c0,0.449,0.364,0.813,0.812,0.813C123.636,166.051,124,165.687,124,165.238z"/>
<path fill="#00DCE6" d="M124,160.493c0-0.449-0.364-0.814-0.813-0.814c-0.448,0-0.812,0.365-0.812,0.814
	c0,0.449,0.364,0.813,0.812,0.813C123.636,161.306,124,160.942,124,160.493z"/>
<path fill="#00DCE6" d="M124,155.883c0-0.449-0.364-0.813-0.813-0.813c-0.448,0-0.812,0.364-0.812,0.813
	c0,0.45,0.364,0.814,0.812,0.814C123.636,156.697,124,156.333,124,155.883z"/>
<path fill="#00DCE6" d="M124,151.138c0-0.449-0.364-0.813-0.813-0.813c-0.448,0-0.812,0.364-0.812,0.813
	c0,0.45,0.364,0.814,0.812,0.814C123.636,151.952,124,151.588,124,151.138z"/>
<path fill="#00DCE6" d="M124,146.393c0-0.449-0.364-0.813-0.813-0.813c-0.448,0-0.812,0.364-0.812,0.813
	c0,0.45,0.364,0.814,0.812,0.814C123.636,147.207,124,146.843,124,146.393z"/>
<path fill="#00DCE6" d="M124,141.784c0-0.449-0.364-0.814-0.813-0.814c-0.448,0-0.812,0.365-0.812,0.814
	c0,0.449,0.364,0.813,0.812,0.813C123.636,142.597,124,142.233,124,141.784z"/>
<path fill="#00DCE6" d="M124,137.039c0-0.449-0.364-0.814-0.813-0.814c-0.448,0-0.812,0.365-0.812,0.814s0.364,0.813,0.812,0.813
	C123.636,137.852,124,137.488,124,137.039z"/>
<path fill="#00DCE6" d="M124,132.429c0-0.449-0.364-0.813-0.813-0.813c-0.448,0-0.812,0.364-0.812,0.813
	c0,0.45,0.364,0.814,0.812,0.814C123.636,133.243,124,132.879,124,132.429z"/>
<path fill="#00DCE6" d="M124,127.684c0-0.449-0.364-0.813-0.813-0.813c-0.448,0-0.812,0.364-0.812,0.813
	c0,0.45,0.364,0.814,0.812,0.814C123.636,128.498,124,128.134,124,127.684z"/>
<path fill="#00DCE6" d="M124,123.075c0-0.449-0.364-0.814-0.813-0.814c-0.448,0-0.812,0.365-0.812,0.814
	c0,0.449,0.364,0.813,0.812,0.813C123.636,123.888,124,123.524,124,123.075z"/>
<path fill="#00DCE6" d="M86.625,118.33c0-0.449-0.364-0.814-0.813-0.814S85,117.881,85,118.33c0,0.449,0.364,0.813,0.813,0.813
	S86.625,118.779,86.625,118.33z"/>
<path fill="#00DCE6" d="M86.625,113.72c0-0.449-0.364-0.813-0.813-0.813S85,113.271,85,113.72c0,0.45,0.364,0.814,0.813,0.814
	S86.625,114.17,86.625,113.72z"/>
<path fill="#00DCE6" d="M86.625,108.975c0-0.449-0.364-0.813-0.813-0.813S85,108.526,85,108.975c0,0.45,0.364,0.814,0.813,0.814
	S86.625,109.425,86.625,108.975z"/>
<path fill="#00DCE6" d="M86.625,104.366c0-0.449-0.364-0.813-0.813-0.813S85,103.917,85,104.366c0,0.449,0.364,0.813,0.813,0.813
	S86.625,104.815,86.625,104.366z"/>
<path fill="#00DCE6" d="M86.625,99.621c0-0.449-0.364-0.813-0.813-0.813S85,99.172,85,99.621c0,0.449,0.364,0.813,0.813,0.813
	S86.625,100.07,86.625,99.621z"/>
<path fill="#00DCE6" d="M86.625,95.012c0-0.45-0.364-0.813-0.813-0.813S85,94.562,85,95.012c0,0.449,0.364,0.813,0.813,0.813
	S86.625,95.461,86.625,95.012z"/>
<path fill="#00DCE6" d="M86.625,90.267c0-0.449-0.364-0.813-0.813-0.813S85,89.817,85,90.267s0.364,0.813,0.813,0.813
	S86.625,90.716,86.625,90.267z"/>
<path fill="#00DCE6" d="M86.625,85.657c0-0.449-0.364-0.813-0.813-0.813S85,85.208,85,85.657s0.364,0.813,0.813,0.813
	S86.625,86.106,86.625,85.657z"/>
<path fill="#00DCE6" d="M86.625,80.912c0-0.449-0.364-0.813-0.813-0.813S85,80.463,85,80.912s0.364,0.813,0.813,0.813
	S86.625,81.361,86.625,80.912z"/>
<path fill="#00DCE6" d="M86.625,76.167c0-0.449-0.364-0.813-0.813-0.813S85,75.718,85,76.167s0.364,0.813,0.813,0.813
	S86.625,76.616,86.625,76.167z"/>
<path fill="#00DCE6" d="M86.625,71.558c0-0.449-0.364-0.813-0.813-0.813S85,71.108,85,71.558s0.364,0.813,0.813,0.813
	S86.625,72.007,86.625,71.558z"/>
<path fill="#00DCE6" d="M86.625,66.813c0-0.449-0.364-0.813-0.813-0.813S85,66.363,85,66.813s0.364,0.813,0.813,0.813
	S86.625,67.262,86.625,66.813z"/>
<path fill="#00DCE6" d="M86.625,62.203c0-0.449-0.364-0.813-0.813-0.813S85,61.754,85,62.203s0.364,0.813,0.813,0.813
	S86.625,62.652,86.625,62.203z"/>
<path fill="#00DCE6" d="M86.625,57.458c0-0.449-0.364-0.813-0.813-0.813S85,57.009,85,57.458s0.364,0.813,0.813,0.813
	S86.625,57.907,86.625,57.458z"/>
<path fill="#00DCE6" d="M86.625,52.849c0-0.449-0.364-0.813-0.813-0.813S85,52.399,85,52.849s0.364,0.813,0.813,0.813
	S86.625,53.298,86.625,52.849z"/>
<path fill="#00DCE6" d="M86.625,48.104c0-0.449-0.364-0.813-0.813-0.813S85,47.654,85,48.104s0.364,0.813,0.813,0.813
	S86.625,48.553,86.625,48.104z"/>
<path fill="#00DCE6" d="M86.625,43.494c0-0.449-0.364-0.813-0.813-0.813S85,43.045,85,43.494s0.364,0.813,0.813,0.813
	S86.625,43.943,86.625,43.494z"/>
<path fill="#00DCE6" d="M86.625,38.749c0-0.449-0.364-0.813-0.813-0.813S85,38.3,85,38.749s0.364,0.813,0.813,0.813
	S86.625,39.198,86.625,38.749z"/>
<path fill="#00DCE6" d="M86.625,34.14c0-0.449-0.364-0.813-0.813-0.813S85,33.69,85,34.14s0.364,0.813,0.813,0.813
	S86.625,34.589,86.625,34.14z"/>
<path fill="#00DCE6" d="M91.229,118.33c0-0.449-0.364-0.814-0.813-0.814s-0.813,0.365-0.813,0.814c0,0.449,0.364,0.813,0.813,0.813
	S91.229,118.779,91.229,118.33z"/>
<path fill="#00DCE6" d="M91.229,113.72c0-0.449-0.364-0.813-0.813-0.813s-0.813,0.364-0.813,0.813c0,0.45,0.364,0.814,0.813,0.814
	S91.229,114.17,91.229,113.72z"/>
<path fill="#00DCE6" d="M91.229,108.975c0-0.449-0.364-0.813-0.813-0.813s-0.813,0.364-0.813,0.813c0,0.45,0.364,0.814,0.813,0.814
	S91.229,109.425,91.229,108.975z"/>
<path fill="#00DCE6" d="M91.229,104.366c0-0.449-0.364-0.813-0.813-0.813s-0.813,0.364-0.813,0.813c0,0.449,0.364,0.813,0.813,0.813
	S91.229,104.815,91.229,104.366z"/>
<path fill="#00DCE6" d="M91.229,99.621c0-0.449-0.364-0.813-0.813-0.813s-0.813,0.364-0.813,0.813c0,0.449,0.364,0.813,0.813,0.813
	S91.229,100.07,91.229,99.621z"/>
<path fill="#00DCE6" d="M91.229,95.012c0-0.45-0.364-0.813-0.813-0.813s-0.813,0.364-0.813,0.813c0,0.449,0.364,0.813,0.813,0.813
	S91.229,95.461,91.229,95.012z"/>
<path fill="#00DCE6" d="M91.229,90.267c0-0.449-0.364-0.813-0.813-0.813s-0.813,0.364-0.813,0.813s0.364,0.813,0.813,0.813
	S91.229,90.716,91.229,90.267z"/>
<path fill="#00DCE6" d="M91.229,85.657c0-0.449-0.364-0.813-0.813-0.813s-0.813,0.364-0.813,0.813s0.364,0.813,0.813,0.813
	S91.229,86.106,91.229,85.657z"/>
<path fill="#00DCE6" d="M91.229,80.912c0-0.449-0.364-0.813-0.813-0.813s-0.813,0.364-0.813,0.813s0.364,0.813,0.813,0.813
	S91.229,81.361,91.229,80.912z"/>
<path fill="#00DCE6" d="M91.229,76.167c0-0.449-0.364-0.813-0.813-0.813s-0.813,0.364-0.813,0.813s0.364,0.813,0.813,0.813
	S91.229,76.616,91.229,76.167z"/>
<path fill="#00DCE6" d="M91.229,71.558c0-0.449-0.364-0.813-0.813-0.813s-0.813,0.364-0.813,0.813s0.364,0.813,0.813,0.813
	S91.229,72.007,91.229,71.558z"/>
<path fill="#00DCE6" d="M91.229,66.813c0-0.449-0.364-0.813-0.813-0.813s-0.813,0.364-0.813,0.813s0.364,0.813,0.813,0.813
	S91.229,67.262,91.229,66.813z"/>
<path fill="#00DCE6" d="M91.229,62.203c0-0.449-0.364-0.813-0.813-0.813s-0.813,0.364-0.813,0.813s0.364,0.813,0.813,0.813
	S91.229,62.652,91.229,62.203z"/>
<path fill="#00DCE6" d="M91.229,57.458c0-0.449-0.364-0.813-0.813-0.813s-0.813,0.364-0.813,0.813s0.364,0.813,0.813,0.813
	S91.229,57.907,91.229,57.458z"/>
<path fill="#00DCE6" d="M91.229,52.849c0-0.449-0.364-0.813-0.813-0.813s-0.813,0.364-0.813,0.813s0.364,0.813,0.813,0.813
	S91.229,53.298,91.229,52.849z"/>
<path fill="#00DCE6" d="M91.229,48.104c0-0.449-0.364-0.813-0.813-0.813s-0.813,0.364-0.813,0.813s0.364,0.813,0.813,0.813
	S91.229,48.553,91.229,48.104z"/>
<path fill="#00DCE6" d="M91.229,43.494c0-0.449-0.364-0.813-0.813-0.813s-0.813,0.364-0.813,0.813s0.364,0.813,0.813,0.813
	S91.229,43.943,91.229,43.494z"/>
<path fill="#00DCE6" d="M91.229,38.749c0-0.449-0.364-0.813-0.813-0.813s-0.813,0.364-0.813,0.813s0.364,0.813,0.813,0.813
	S91.229,39.198,91.229,38.749z"/>
<path fill="#00DCE6" d="M91.229,34.14c0-0.449-0.364-0.813-0.813-0.813s-0.813,0.364-0.813,0.813s0.364,0.813,0.813,0.813
	S91.229,34.589,91.229,34.14z"/>
<path fill="#00DCE6" d="M95.969,118.33c0-0.449-0.364-0.814-0.813-0.814s-0.813,0.365-0.813,0.814c0,0.449,0.364,0.813,0.813,0.813
	S95.969,118.779,95.969,118.33z"/>
<path fill="#00DCE6" d="M95.969,113.72c0-0.449-0.364-0.813-0.813-0.813s-0.813,0.364-0.813,0.813c0,0.45,0.364,0.814,0.813,0.814
	S95.969,114.17,95.969,113.72z"/>
<path fill="#00DCE6" d="M95.969,108.975c0-0.449-0.364-0.813-0.813-0.813s-0.813,0.364-0.813,0.813c0,0.45,0.364,0.814,0.813,0.814
	S95.969,109.425,95.969,108.975z"/>
<path fill="#00DCE6" d="M95.969,104.366c0-0.449-0.364-0.813-0.813-0.813s-0.813,0.364-0.813,0.813c0,0.449,0.364,0.813,0.813,0.813
	S95.969,104.815,95.969,104.366z"/>
<path fill="#00DCE6" d="M95.969,99.621c0-0.449-0.364-0.813-0.813-0.813s-0.813,0.364-0.813,0.813c0,0.449,0.364,0.813,0.813,0.813
	S95.969,100.07,95.969,99.621z"/>
<path fill="#00DCE6" d="M95.969,95.012c0-0.45-0.364-0.813-0.813-0.813s-0.813,0.364-0.813,0.813c0,0.449,0.364,0.813,0.813,0.813
	S95.969,95.461,95.969,95.012z"/>
<path fill="#00DCE6" d="M95.969,90.267c0-0.449-0.364-0.813-0.813-0.813s-0.813,0.364-0.813,0.813s0.364,0.813,0.813,0.813
	S95.969,90.716,95.969,90.267z"/>
<path fill="#00DCE6" d="M95.969,85.657c0-0.449-0.364-0.813-0.813-0.813s-0.813,0.364-0.813,0.813s0.364,0.813,0.813,0.813
	S95.969,86.106,95.969,85.657z"/>
<path fill="#00DCE6" d="M95.969,80.912c0-0.449-0.364-0.813-0.813-0.813s-0.813,0.364-0.813,0.813s0.364,0.813,0.813,0.813
	S95.969,81.361,95.969,80.912z"/>
<path fill="#00DCE6" d="M95.969,76.167c0-0.449-0.364-0.813-0.813-0.813s-0.813,0.364-0.813,0.813s0.364,0.813,0.813,0.813
	S95.969,76.616,95.969,76.167z"/>
<path fill="#00DCE6" d="M95.969,71.558c0-0.449-0.364-0.813-0.813-0.813s-0.813,0.364-0.813,0.813s0.364,0.813,0.813,0.813
	S95.969,72.007,95.969,71.558z"/>
<path fill="#00DCE6" d="M95.969,66.813c0-0.449-0.364-0.813-0.813-0.813s-0.813,0.364-0.813,0.813s0.364,0.813,0.813,0.813
	S95.969,67.262,95.969,66.813z"/>
<path fill="#00DCE6" d="M95.969,62.203c0-0.449-0.364-0.813-0.813-0.813s-0.813,0.364-0.813,0.813s0.364,0.813,0.813,0.813
	S95.969,62.652,95.969,62.203z"/>
<path fill="#00DCE6" d="M95.969,57.458c0-0.449-0.364-0.813-0.813-0.813s-0.813,0.364-0.813,0.813s0.364,0.813,0.813,0.813
	S95.969,57.907,95.969,57.458z"/>
<path fill="#00DCE6" d="M95.969,52.849c0-0.449-0.364-0.813-0.813-0.813s-0.813,0.364-0.813,0.813s0.364,0.813,0.813,0.813
	S95.969,53.298,95.969,52.849z"/>
<path fill="#00DCE6" d="M95.969,48.104c0-0.449-0.364-0.813-0.813-0.813s-0.813,0.364-0.813,0.813s0.364,0.813,0.813,0.813
	S95.969,48.553,95.969,48.104z"/>
<path fill="#00DCE6" d="M95.969,43.494c0-0.449-0.364-0.813-0.813-0.813s-0.813,0.364-0.813,0.813s0.364,0.813,0.813,0.813
	S95.969,43.943,95.969,43.494z"/>
<path fill="#00DCE6" d="M95.969,38.749c0-0.449-0.364-0.813-0.813-0.813s-0.813,0.364-0.813,0.813s0.364,0.813,0.813,0.813
	S95.969,39.198,95.969,38.749z"/>
<path fill="#00DCE6" d="M95.969,34.14c0-0.449-0.364-0.813-0.813-0.813s-0.813,0.364-0.813,0.813s0.364,0.813,0.813,0.813
	S95.969,34.589,95.969,34.14z"/>
<path fill="#00DCE6" d="M100.709,118.33c0-0.449-0.364-0.814-0.813-0.814s-0.813,0.365-0.813,0.814c0,0.449,0.364,0.813,0.813,0.813
	S100.709,118.779,100.709,118.33z"/>
<path fill="#00DCE6" d="M100.709,113.72c0-0.449-0.364-0.813-0.813-0.813s-0.813,0.364-0.813,0.813c0,0.45,0.364,0.814,0.813,0.814
	S100.709,114.17,100.709,113.72z"/>
<path fill="#00DCE6" d="M100.709,108.975c0-0.449-0.364-0.813-0.813-0.813s-0.813,0.364-0.813,0.813c0,0.45,0.364,0.814,0.813,0.814
	S100.709,109.425,100.709,108.975z"/>
<path fill="#00DCE6" d="M100.709,104.366c0-0.449-0.364-0.813-0.813-0.813s-0.813,0.364-0.813,0.813
	c0,0.449,0.364,0.813,0.813,0.813S100.709,104.815,100.709,104.366z"/>
<path fill="#00DCE6" d="M100.709,99.621c0-0.449-0.364-0.813-0.813-0.813s-0.813,0.364-0.813,0.813c0,0.449,0.364,0.813,0.813,0.813
	S100.709,100.07,100.709,99.621z"/>
<path fill="#00DCE6" d="M100.709,95.012c0-0.45-0.364-0.813-0.813-0.813s-0.813,0.364-0.813,0.813c0,0.449,0.364,0.813,0.813,0.813
	S100.709,95.461,100.709,95.012z"/>
<path fill="#00DCE6" d="M100.709,90.267c0-0.449-0.364-0.813-0.813-0.813s-0.813,0.364-0.813,0.813s0.364,0.813,0.813,0.813
	S100.709,90.716,100.709,90.267z"/>
<path fill="#00DCE6" d="M100.709,85.657c0-0.449-0.364-0.813-0.813-0.813s-0.813,0.364-0.813,0.813s0.364,0.813,0.813,0.813
	S100.709,86.106,100.709,85.657z"/>
<path fill="#00DCE6" d="M100.709,80.912c0-0.449-0.364-0.813-0.813-0.813s-0.813,0.364-0.813,0.813s0.364,0.813,0.813,0.813
	S100.709,81.361,100.709,80.912z"/>
<path fill="#00DCE6" d="M100.709,76.167c0-0.449-0.364-0.813-0.813-0.813s-0.813,0.364-0.813,0.813s0.364,0.813,0.813,0.813
	S100.709,76.616,100.709,76.167z"/>
<path fill="#00DCE6" d="M100.709,71.558c0-0.449-0.364-0.813-0.813-0.813s-0.813,0.364-0.813,0.813s0.364,0.813,0.813,0.813
	S100.709,72.007,100.709,71.558z"/>
<path fill="#00DCE6" d="M100.709,66.813c0-0.449-0.364-0.813-0.813-0.813s-0.813,0.364-0.813,0.813s0.364,0.813,0.813,0.813
	S100.709,67.262,100.709,66.813z"/>
<path fill="#00DCE6" d="M100.709,62.203c0-0.449-0.364-0.813-0.813-0.813s-0.813,0.364-0.813,0.813s0.364,0.813,0.813,0.813
	S100.709,62.652,100.709,62.203z"/>
<path fill="#00DCE6" d="M100.709,57.458c0-0.449-0.364-0.813-0.813-0.813s-0.813,0.364-0.813,0.813s0.364,0.813,0.813,0.813
	S100.709,57.907,100.709,57.458z"/>
<path fill="#00DCE6" d="M100.709,52.849c0-0.449-0.364-0.813-0.813-0.813s-0.813,0.364-0.813,0.813s0.364,0.813,0.813,0.813
	S100.709,53.298,100.709,52.849z"/>
<path fill="#00DCE6" d="M100.709,48.104c0-0.449-0.364-0.813-0.813-0.813s-0.813,0.364-0.813,0.813s0.364,0.813,0.813,0.813
	S100.709,48.553,100.709,48.104z"/>
<path fill="#00DCE6" d="M100.709,43.494c0-0.449-0.364-0.813-0.813-0.813s-0.813,0.364-0.813,0.813s0.364,0.813,0.813,0.813
	S100.709,43.943,100.709,43.494z"/>
<path fill="#00DCE6" d="M100.709,38.749c0-0.449-0.364-0.813-0.813-0.813s-0.813,0.364-0.813,0.813s0.364,0.813,0.813,0.813
	S100.709,39.198,100.709,38.749z"/>
<path fill="#00DCE6" d="M100.709,34.14c0-0.449-0.364-0.813-0.813-0.813s-0.813,0.364-0.813,0.813s0.364,0.813,0.813,0.813
	S100.709,34.589,100.709,34.14z"/>
<path fill="#00DCE6" d="M105.312,118.33c0-0.449-0.364-0.814-0.813-0.814c-0.448,0-0.812,0.365-0.812,0.814
	c0,0.449,0.364,0.813,0.812,0.813C104.948,119.143,105.312,118.779,105.312,118.33z"/>
<path fill="#00DCE6" d="M105.312,113.72c0-0.449-0.364-0.813-0.813-0.813c-0.448,0-0.812,0.364-0.812,0.813
	c0,0.45,0.364,0.814,0.812,0.814C104.948,114.534,105.312,114.17,105.312,113.72z"/>
<path fill="#00DCE6" d="M105.312,108.975c0-0.449-0.364-0.813-0.813-0.813c-0.448,0-0.812,0.364-0.812,0.813
	c0,0.45,0.364,0.814,0.812,0.814C104.948,109.789,105.312,109.425,105.312,108.975z"/>
<path fill="#00DCE6" d="M105.312,104.366c0-0.449-0.364-0.813-0.813-0.813c-0.448,0-0.812,0.364-0.812,0.813
	c0,0.449,0.364,0.813,0.812,0.813C104.948,105.179,105.312,104.815,105.312,104.366z"/>
<path fill="#00DCE6" d="M105.312,99.621c0-0.449-0.364-0.813-0.813-0.813c-0.448,0-0.812,0.364-0.812,0.813
	c0,0.449,0.364,0.813,0.812,0.813C104.948,100.434,105.312,100.07,105.312,99.621z"/>
<path fill="#00DCE6" d="M105.312,95.012c0-0.45-0.364-0.813-0.813-0.813c-0.448,0-0.812,0.364-0.812,0.813
	c0,0.449,0.364,0.813,0.812,0.813C104.948,95.825,105.312,95.461,105.312,95.012z"/>
<path fill="#00DCE6" d="M105.312,90.267c0-0.449-0.364-0.813-0.813-0.813c-0.448,0-0.812,0.364-0.812,0.813s0.364,0.813,0.812,0.813
	C104.948,91.08,105.312,90.716,105.312,90.267z"/>
<path fill="#00DCE6" d="M105.312,85.657c0-0.449-0.364-0.813-0.813-0.813c-0.448,0-0.812,0.364-0.812,0.813s0.364,0.813,0.812,0.813
	C104.948,86.47,105.312,86.106,105.312,85.657z"/>
<path fill="#00DCE6" d="M105.312,80.912c0-0.449-0.364-0.813-0.813-0.813c-0.448,0-0.812,0.364-0.812,0.813s0.364,0.813,0.812,0.813
	C104.948,81.726,105.312,81.361,105.312,80.912z"/>
<path fill="#00DCE6" d="M105.312,76.167c0-0.449-0.364-0.813-0.813-0.813c-0.448,0-0.812,0.364-0.812,0.813s0.364,0.813,0.812,0.813
	C104.948,76.98,105.312,76.616,105.312,76.167z"/>
<path fill="#00DCE6" d="M105.312,71.558c0-0.449-0.364-0.813-0.813-0.813c-0.448,0-0.812,0.364-0.812,0.813s0.364,0.813,0.812,0.813
	C104.948,72.371,105.312,72.007,105.312,71.558z"/>
<path fill="#00DCE6" d="M105.312,66.813c0-0.449-0.364-0.813-0.813-0.813c-0.448,0-0.812,0.364-0.812,0.813s0.364,0.813,0.812,0.813
	C104.948,67.626,105.312,67.262,105.312,66.813z"/>
<path fill="#00DCE6" d="M105.312,62.203c0-0.449-0.364-0.813-0.813-0.813c-0.448,0-0.812,0.364-0.812,0.813s0.364,0.813,0.812,0.813
	C104.948,63.017,105.312,62.652,105.312,62.203z"/>
<path fill="#00DCE6" d="M105.312,57.458c0-0.449-0.364-0.813-0.813-0.813c-0.448,0-0.812,0.364-0.812,0.813s0.364,0.813,0.812,0.813
	C104.948,58.271,105.312,57.907,105.312,57.458z"/>
<path fill="#00DCE6" d="M105.312,52.849c0-0.449-0.364-0.813-0.813-0.813c-0.448,0-0.812,0.364-0.812,0.813s0.364,0.813,0.812,0.813
	C104.948,53.662,105.312,53.298,105.312,52.849z"/>
<path fill="#00DCE6" d="M105.312,48.104c0-0.449-0.364-0.813-0.813-0.813c-0.448,0-0.812,0.364-0.812,0.813s0.364,0.813,0.812,0.813
	C104.948,48.917,105.312,48.553,105.312,48.104z"/>
<path fill="#00DCE6" d="M105.312,43.494c0-0.449-0.364-0.813-0.813-0.813c-0.448,0-0.812,0.364-0.812,0.813s0.364,0.813,0.812,0.813
	C104.948,44.308,105.312,43.943,105.312,43.494z"/>
<path fill="#00DCE6" d="M105.312,38.749c0-0.449-0.364-0.813-0.813-0.813c-0.448,0-0.812,0.364-0.812,0.813s0.364,0.813,0.812,0.813
	C104.948,39.563,105.312,39.198,105.312,38.749z"/>
<path fill="#00DCE6" d="M105.312,34.14c0-0.449-0.364-0.813-0.813-0.813c-0.448,0-0.812,0.364-0.812,0.813s0.364,0.813,0.812,0.813
	C104.948,34.953,105.312,34.589,105.312,34.14z"/>
<path fill="#00DCE6" d="M110.052,118.33c0-0.449-0.364-0.814-0.813-0.814c-0.449,0-0.812,0.365-0.812,0.814
	c0,0.449,0.363,0.813,0.812,0.813C109.688,119.143,110.052,118.779,110.052,118.33z"/>
<path fill="#00DCE6" d="M110.052,113.72c0-0.449-0.364-0.813-0.813-0.813c-0.449,0-0.812,0.364-0.812,0.813
	c0,0.45,0.363,0.814,0.812,0.814C109.688,114.534,110.052,114.17,110.052,113.72z"/>
<path fill="#00DCE6" d="M110.052,108.975c0-0.449-0.364-0.813-0.813-0.813c-0.449,0-0.812,0.364-0.812,0.813
	c0,0.45,0.363,0.814,0.812,0.814C109.688,109.789,110.052,109.425,110.052,108.975z"/>
<path fill="#00DCE6" d="M110.052,104.366c0-0.449-0.364-0.813-0.813-0.813c-0.449,0-0.812,0.364-0.812,0.813
	c0,0.449,0.363,0.813,0.812,0.813C109.688,105.179,110.052,104.815,110.052,104.366z"/>
<path fill="#00DCE6" d="M110.052,99.621c0-0.449-0.364-0.813-0.813-0.813c-0.449,0-0.812,0.364-0.812,0.813
	c0,0.449,0.363,0.813,0.812,0.813C109.688,100.434,110.052,100.07,110.052,99.621z"/>
<path fill="#00DCE6" d="M110.052,95.012c0-0.45-0.364-0.813-0.813-0.813c-0.449,0-0.812,0.364-0.812,0.813
	c0,0.449,0.363,0.813,0.812,0.813C109.688,95.825,110.052,95.461,110.052,95.012z"/>
<path fill="#00DCE6" d="M110.052,90.267c0-0.449-0.364-0.813-0.813-0.813c-0.449,0-0.812,0.364-0.812,0.813s0.363,0.813,0.812,0.813
	C109.688,91.08,110.052,90.716,110.052,90.267z"/>
<path fill="#00DCE6" d="M110.052,85.657c0-0.449-0.364-0.813-0.813-0.813c-0.449,0-0.812,0.364-0.812,0.813s0.363,0.813,0.812,0.813
	C109.688,86.47,110.052,86.106,110.052,85.657z"/>
<path fill="#00DCE6" d="M110.052,80.912c0-0.449-0.364-0.813-0.813-0.813c-0.449,0-0.812,0.364-0.812,0.813s0.363,0.813,0.812,0.813
	C109.688,81.726,110.052,81.361,110.052,80.912z"/>
<path fill="#00DCE6" d="M110.052,76.167c0-0.449-0.364-0.813-0.813-0.813c-0.449,0-0.812,0.364-0.812,0.813s0.363,0.813,0.812,0.813
	C109.688,76.98,110.052,76.616,110.052,76.167z"/>
<path fill="#00DCE6" d="M110.052,71.558c0-0.449-0.364-0.813-0.813-0.813c-0.449,0-0.812,0.364-0.812,0.813s0.363,0.813,0.812,0.813
	C109.688,72.371,110.052,72.007,110.052,71.558z"/>
<path fill="#00DCE6" d="M110.052,66.813c0-0.449-0.364-0.813-0.813-0.813c-0.449,0-0.812,0.364-0.812,0.813s0.363,0.813,0.812,0.813
	C109.688,67.626,110.052,67.262,110.052,66.813z"/>
<path fill="#00DCE6" d="M110.052,62.203c0-0.449-0.364-0.813-0.813-0.813c-0.449,0-0.812,0.364-0.812,0.813s0.363,0.813,0.812,0.813
	C109.688,63.017,110.052,62.652,110.052,62.203z"/>
<path fill="#00DCE6" d="M110.052,57.458c0-0.449-0.364-0.813-0.813-0.813c-0.449,0-0.812,0.364-0.812,0.813s0.363,0.813,0.812,0.813
	C109.688,58.271,110.052,57.907,110.052,57.458z"/>
<path fill="#00DCE6" d="M110.052,52.849c0-0.449-0.364-0.813-0.813-0.813c-0.449,0-0.812,0.364-0.812,0.813s0.363,0.813,0.812,0.813
	C109.688,53.662,110.052,53.298,110.052,52.849z"/>
<path fill="#00DCE6" d="M110.052,48.104c0-0.449-0.364-0.813-0.813-0.813c-0.449,0-0.812,0.364-0.812,0.813s0.363,0.813,0.812,0.813
	C109.688,48.917,110.052,48.553,110.052,48.104z"/>
<path fill="#00DCE6" d="M110.052,43.494c0-0.449-0.364-0.813-0.813-0.813c-0.449,0-0.812,0.364-0.812,0.813s0.363,0.813,0.812,0.813
	C109.688,44.308,110.052,43.943,110.052,43.494z"/>
<path fill="#00DCE6" d="M110.052,38.749c0-0.449-0.364-0.813-0.813-0.813c-0.449,0-0.812,0.364-0.812,0.813s0.363,0.813,0.812,0.813
	C109.688,39.563,110.052,39.198,110.052,38.749z"/>
<path fill="#00DCE6" d="M110.052,34.14c0-0.449-0.364-0.813-0.813-0.813c-0.449,0-0.812,0.364-0.812,0.813s0.363,0.813,0.812,0.813
	C109.688,34.953,110.052,34.589,110.052,34.14z"/>
<path fill="#00DCE6" d="M114.656,118.33c0-0.449-0.364-0.814-0.812-0.814c-0.449,0-0.813,0.365-0.813,0.814
	c0,0.449,0.364,0.813,0.813,0.813C114.292,119.143,114.656,118.779,114.656,118.33z"/>
<path fill="#00DCE6" d="M114.656,113.72c0-0.449-0.364-0.813-0.812-0.813c-0.449,0-0.813,0.364-0.813,0.813
	c0,0.45,0.364,0.814,0.813,0.814C114.292,114.534,114.656,114.17,114.656,113.72z"/>
<path fill="#00DCE6" d="M114.656,108.975c0-0.449-0.364-0.813-0.812-0.813c-0.449,0-0.813,0.364-0.813,0.813
	c0,0.45,0.364,0.814,0.813,0.814C114.292,109.789,114.656,109.425,114.656,108.975z"/>
<path fill="#00DCE6" d="M114.656,104.366c0-0.449-0.364-0.813-0.812-0.813c-0.449,0-0.813,0.364-0.813,0.813
	c0,0.449,0.364,0.813,0.813,0.813C114.292,105.179,114.656,104.815,114.656,104.366z"/>
<path fill="#00DCE6" d="M114.656,99.621c0-0.449-0.364-0.813-0.812-0.813c-0.449,0-0.813,0.364-0.813,0.813
	c0,0.449,0.364,0.813,0.813,0.813C114.292,100.434,114.656,100.07,114.656,99.621z"/>
<path fill="#00DCE6" d="M114.656,95.012c0-0.45-0.364-0.813-0.812-0.813c-0.449,0-0.813,0.364-0.813,0.813
	c0,0.449,0.364,0.813,0.813,0.813C114.292,95.825,114.656,95.461,114.656,95.012z"/>
<path fill="#00DCE6" d="M114.656,90.267c0-0.449-0.364-0.813-0.812-0.813c-0.449,0-0.813,0.364-0.813,0.813s0.364,0.813,0.813,0.813
	C114.292,91.08,114.656,90.716,114.656,90.267z"/>
<path fill="#00DCE6" d="M114.656,85.657c0-0.449-0.364-0.813-0.812-0.813c-0.449,0-0.813,0.364-0.813,0.813s0.364,0.813,0.813,0.813
	C114.292,86.47,114.656,86.106,114.656,85.657z"/>
<path fill="#00DCE6" d="M114.656,80.912c0-0.449-0.364-0.813-0.812-0.813c-0.449,0-0.813,0.364-0.813,0.813s0.364,0.813,0.813,0.813
	C114.292,81.726,114.656,81.361,114.656,80.912z"/>
<path fill="#00DCE6" d="M114.656,76.167c0-0.449-0.364-0.813-0.812-0.813c-0.449,0-0.813,0.364-0.813,0.813s0.364,0.813,0.813,0.813
	C114.292,76.98,114.656,76.616,114.656,76.167z"/>
<path fill="#00DCE6" d="M114.656,71.558c0-0.449-0.364-0.813-0.812-0.813c-0.449,0-0.813,0.364-0.813,0.813s0.364,0.813,0.813,0.813
	C114.292,72.371,114.656,72.007,114.656,71.558z"/>
<path fill="#00DCE6" d="M114.656,66.813c0-0.449-0.364-0.813-0.812-0.813c-0.449,0-0.813,0.364-0.813,0.813s0.364,0.813,0.813,0.813
	C114.292,67.626,114.656,67.262,114.656,66.813z"/>
<path fill="#00DCE6" d="M114.656,62.203c0-0.449-0.364-0.813-0.812-0.813c-0.449,0-0.813,0.364-0.813,0.813s0.364,0.813,0.813,0.813
	C114.292,63.017,114.656,62.652,114.656,62.203z"/>
<path fill="#00DCE6" d="M114.656,57.458c0-0.449-0.364-0.813-0.812-0.813c-0.449,0-0.813,0.364-0.813,0.813s0.364,0.813,0.813,0.813
	C114.292,58.271,114.656,57.907,114.656,57.458z"/>
<path fill="#00DCE6" d="M114.656,52.849c0-0.449-0.364-0.813-0.812-0.813c-0.449,0-0.813,0.364-0.813,0.813s0.364,0.813,0.813,0.813
	C114.292,53.662,114.656,53.298,114.656,52.849z"/>
<path fill="#00DCE6" d="M114.656,48.104c0-0.449-0.364-0.813-0.812-0.813c-0.449,0-0.813,0.364-0.813,0.813s0.364,0.813,0.813,0.813
	C114.292,48.917,114.656,48.553,114.656,48.104z"/>
<path fill="#00DCE6" d="M114.656,43.494c0-0.449-0.364-0.813-0.812-0.813c-0.449,0-0.813,0.364-0.813,0.813s0.364,0.813,0.813,0.813
	C114.292,44.308,114.656,43.943,114.656,43.494z"/>
<path fill="#00DCE6" d="M114.656,38.749c0-0.449-0.364-0.813-0.812-0.813c-0.449,0-0.813,0.364-0.813,0.813s0.364,0.813,0.813,0.813
	C114.292,39.563,114.656,39.198,114.656,38.749z"/>
<path fill="#00DCE6" d="M114.656,34.14c0-0.449-0.364-0.813-0.812-0.813c-0.449,0-0.813,0.364-0.813,0.813s0.364,0.813,0.813,0.813
	C114.292,34.953,114.656,34.589,114.656,34.14z"/>
<path fill="#00DCE6" d="M119.396,118.33c0-0.449-0.364-0.814-0.813-0.814c-0.448,0-0.812,0.365-0.812,0.814
	c0,0.449,0.364,0.813,0.812,0.813C119.032,119.143,119.396,118.779,119.396,118.33z"/>
<path fill="#00DCE6" d="M119.396,113.72c0-0.449-0.364-0.813-0.813-0.813c-0.448,0-0.812,0.364-0.812,0.813
	c0,0.45,0.364,0.814,0.812,0.814C119.032,114.534,119.396,114.17,119.396,113.72z"/>
<path fill="#00DCE6" d="M119.396,108.975c0-0.449-0.364-0.813-0.813-0.813c-0.448,0-0.812,0.364-0.812,0.813
	c0,0.45,0.364,0.814,0.812,0.814C119.032,109.789,119.396,109.425,119.396,108.975z"/>
<path fill="#00DCE6" d="M119.396,104.366c0-0.449-0.364-0.813-0.813-0.813c-0.448,0-0.812,0.364-0.812,0.813
	c0,0.449,0.364,0.813,0.812,0.813C119.032,105.179,119.396,104.815,119.396,104.366z"/>
<path fill="#00DCE6" d="M119.396,99.621c0-0.449-0.364-0.813-0.813-0.813c-0.448,0-0.812,0.364-0.812,0.813
	c0,0.449,0.364,0.813,0.812,0.813C119.032,100.434,119.396,100.07,119.396,99.621z"/>
<path fill="#00DCE6" d="M119.396,95.012c0-0.45-0.364-0.813-0.813-0.813c-0.448,0-0.812,0.364-0.812,0.813
	c0,0.449,0.364,0.813,0.812,0.813C119.032,95.825,119.396,95.461,119.396,95.012z"/>
<path fill="#00DCE6" d="M119.396,90.267c0-0.449-0.364-0.813-0.813-0.813c-0.448,0-0.812,0.364-0.812,0.813s0.364,0.813,0.812,0.813
	C119.032,91.08,119.396,90.716,119.396,90.267z"/>
<path fill="#00DCE6" d="M119.396,85.657c0-0.449-0.364-0.813-0.813-0.813c-0.448,0-0.812,0.364-0.812,0.813s0.364,0.813,0.812,0.813
	C119.032,86.47,119.396,86.106,119.396,85.657z"/>
<path fill="#00DCE6" d="M119.396,80.912c0-0.449-0.364-0.813-0.813-0.813c-0.448,0-0.812,0.364-0.812,0.813s0.364,0.813,0.812,0.813
	C119.032,81.726,119.396,81.361,119.396,80.912z"/>
<path fill="#00DCE6" d="M119.396,76.167c0-0.449-0.364-0.813-0.813-0.813c-0.448,0-0.812,0.364-0.812,0.813s0.364,0.813,0.812,0.813
	C119.032,76.98,119.396,76.616,119.396,76.167z"/>
<path fill="#00DCE6" d="M119.396,71.558c0-0.449-0.364-0.813-0.813-0.813c-0.448,0-0.812,0.364-0.812,0.813s0.364,0.813,0.812,0.813
	C119.032,72.371,119.396,72.007,119.396,71.558z"/>
<path fill="#00DCE6" d="M119.396,66.813c0-0.449-0.364-0.813-0.813-0.813c-0.448,0-0.812,0.364-0.812,0.813s0.364,0.813,0.812,0.813
	C119.032,67.626,119.396,67.262,119.396,66.813z"/>
<path fill="#00DCE6" d="M119.396,62.203c0-0.449-0.364-0.813-0.813-0.813c-0.448,0-0.812,0.364-0.812,0.813s0.364,0.813,0.812,0.813
	C119.032,63.017,119.396,62.652,119.396,62.203z"/>
<path fill="#00DCE6" d="M119.396,57.458c0-0.449-0.364-0.813-0.813-0.813c-0.448,0-0.812,0.364-0.812,0.813s0.364,0.813,0.812,0.813
	C119.032,58.271,119.396,57.907,119.396,57.458z"/>
<path fill="#00DCE6" d="M119.396,52.849c0-0.449-0.364-0.813-0.813-0.813c-0.448,0-0.812,0.364-0.812,0.813s0.364,0.813,0.812,0.813
	C119.032,53.662,119.396,53.298,119.396,52.849z"/>
<path fill="#00DCE6" d="M119.396,48.104c0-0.449-0.364-0.813-0.813-0.813c-0.448,0-0.812,0.364-0.812,0.813s0.364,0.813,0.812,0.813
	C119.032,48.917,119.396,48.553,119.396,48.104z"/>
<path fill="#00DCE6" d="M119.396,43.494c0-0.449-0.364-0.813-0.813-0.813c-0.448,0-0.812,0.364-0.812,0.813s0.364,0.813,0.812,0.813
	C119.032,44.308,119.396,43.943,119.396,43.494z"/>
<path fill="#00DCE6" d="M119.396,38.749c0-0.449-0.364-0.813-0.813-0.813c-0.448,0-0.812,0.364-0.812,0.813s0.364,0.813,0.812,0.813
	C119.032,39.563,119.396,39.198,119.396,38.749z"/>
<path fill="#00DCE6" d="M119.396,34.14c0-0.449-0.364-0.813-0.813-0.813c-0.448,0-0.812,0.364-0.812,0.813s0.364,0.813,0.812,0.813
	C119.032,34.953,119.396,34.589,119.396,34.14z"/>
<path fill="#00DCE6" d="M124,118.33c0-0.449-0.364-0.814-0.813-0.814c-0.448,0-0.812,0.365-0.812,0.814
	c0,0.449,0.364,0.813,0.812,0.813C123.636,119.143,124,118.779,124,118.33z"/>
<path fill="#00DCE6" d="M124,113.72c0-0.449-0.364-0.813-0.813-0.813c-0.448,0-0.812,0.364-0.812,0.813
	c0,0.45,0.364,0.814,0.812,0.814C123.636,114.534,124,114.17,124,113.72z"/>
<path fill="#00DCE6" d="M124,108.975c0-0.449-0.364-0.813-0.813-0.813c-0.448,0-0.812,0.364-0.812,0.813
	c0,0.45,0.364,0.814,0.812,0.814C123.636,109.789,124,109.425,124,108.975z"/>
<path fill="#00DCE6" d="M124,104.366c0-0.449-0.364-0.813-0.813-0.813c-0.448,0-0.812,0.364-0.812,0.813
	c0,0.449,0.364,0.813,0.812,0.813C123.636,105.179,124,104.815,124,104.366z"/>
<path fill="#00DCE6" d="M124,99.621c0-0.449-0.364-0.813-0.813-0.813c-0.448,0-0.812,0.364-0.812,0.813
	c0,0.449,0.364,0.813,0.812,0.813C123.636,100.434,124,100.07,124,99.621z"/>
<path fill="#00DCE6" d="M124,95.012c0-0.45-0.364-0.813-0.813-0.813c-0.448,0-0.812,0.364-0.812,0.813
	c0,0.449,0.364,0.813,0.812,0.813C123.636,95.825,124,95.461,124,95.012z"/>
<path fill="#00DCE6" d="M124,90.267c0-0.449-0.364-0.813-0.813-0.813c-0.448,0-0.812,0.364-0.812,0.813s0.364,0.813,0.812,0.813
	C123.636,91.08,124,90.716,124,90.267z"/>
<path fill="#00DCE6" d="M124,85.657c0-0.449-0.364-0.813-0.813-0.813c-0.448,0-0.812,0.364-0.812,0.813s0.364,0.813,0.812,0.813
	C123.636,86.471,124,86.106,124,85.657z"/>
<path fill="#00DCE6" d="M124,80.912c0-0.449-0.364-0.813-0.813-0.813c-0.448,0-0.812,0.364-0.812,0.813s0.364,0.813,0.812,0.813
	C123.636,81.726,124,81.361,124,80.912z"/>
<path fill="#00DCE6" d="M124,76.167c0-0.449-0.364-0.813-0.813-0.813c-0.448,0-0.812,0.364-0.812,0.813s0.364,0.813,0.812,0.813
	C123.636,76.98,124,76.616,124,76.167z"/>
<path fill="#00DCE6" d="M124,71.558c0-0.449-0.364-0.813-0.813-0.813c-0.448,0-0.812,0.364-0.812,0.813s0.364,0.813,0.812,0.813
	C123.636,72.371,124,72.007,124,71.558z"/>
<path fill="#00DCE6" d="M124,66.813c0-0.449-0.364-0.813-0.813-0.813c-0.448,0-0.812,0.364-0.812,0.813s0.364,0.813,0.812,0.813
	C123.636,67.626,124,67.262,124,66.813z"/>
<path fill="#00DCE6" d="M124,62.203c0-0.449-0.364-0.813-0.813-0.813c-0.448,0-0.812,0.364-0.812,0.813s0.364,0.813,0.812,0.813
	C123.636,63.017,124,62.652,124,62.203z"/>
<path fill="#00DCE6" d="M124,57.458c0-0.449-0.364-0.813-0.813-0.813c-0.448,0-0.812,0.364-0.812,0.813s0.364,0.813,0.812,0.813
	C123.636,58.271,124,57.907,124,57.458z"/>
<path fill="#00DCE6" d="M124,52.849c0-0.449-0.364-0.813-0.813-0.813c-0.448,0-0.812,0.364-0.812,0.813s0.364,0.813,0.812,0.813
	C123.636,53.662,124,53.298,124,52.849z"/>
<path fill="#00DCE6" d="M124,48.104c0-0.449-0.364-0.813-0.813-0.813c-0.448,0-0.812,0.364-0.812,0.813s0.364,0.813,0.812,0.813
	C123.636,48.917,124,48.553,124,48.104z"/>
<path fill="#00DCE6" d="M124,43.494c0-0.449-0.364-0.813-0.813-0.813c-0.448,0-0.812,0.364-0.812,0.813s0.364,0.813,0.812,0.813
	C123.636,44.308,124,43.943,124,43.494z"/>
<path fill="#00DCE6" d="M124,38.749c0-0.449-0.364-0.813-0.813-0.813c-0.448,0-0.812,0.364-0.812,0.813s0.364,0.813,0.812,0.813
	C123.636,39.563,124,39.198,124,38.749z"/>
<path fill="#00DCE6" d="M124,34.14c0-0.449-0.364-0.813-0.813-0.813c-0.448,0-0.812,0.364-0.812,0.813s0.364,0.813,0.812,0.813
	C123.636,34.953,124,34.589,124,34.14z"/>
<path fill="#1F2432" d="M31,62c17.121,0,31-13.879,31-31S48.121,0,31,0S0,13.879,0,31S13.879,62,31,62z"/>
<path fill="none" stroke="#FFFFFF" d="M46,31.2v-4.6l-6.95,4.6v-4.6l-6.9,4.6v-4.6l-6.95,4.6v13H46V31.2z"/>
<path fill="none" stroke="#FFFFFF" d="M23.601,22.4h-5.7"/>
<path fill="none" stroke="#FFFFFF" d="M24.25,31.2L23.3,18h-5.1l-0.95,13.2"/>
<path fill="none" stroke="#FFFFFF" d="M31.45,35.05H29v2.45h2.45V35.05z"/>
<path fill="none" stroke="#FFFFFF" d="M36.45,35.05H34v2.45h2.45V35.05z"/>
<path fill="none" stroke="#FFFFFF" d="M41.45,35H39v2.45h2.45V35z"/>
<path fill="none" stroke="#FFFFFF" d="M25.2,31.2H16v13h9.2V31.2z"/>
<path fill="#00DCE6" fill-opacity="0.2" d="M62,44.974c7.732,0,14-6.262,14-13.987S69.732,17,62,17s-14,6.262-14,13.987
	S54.268,44.974,62,44.974z"/>
<path fill="#00DCE6" d="M62,34.983c2.209,0,4-1.789,4-3.996s-1.791-3.996-4-3.996s-4,1.789-4,3.996S59.791,34.983,62,34.983z"/>
<path fill="#1F2432" d="M31,133c17.121,0,31-13.879,31-31c0-17.121-13.879-31-31-31S0,84.879,0,102C0,119.121,13.879,133,31,133z"/>
<path fill="none" stroke="#FFFFFF" d="M46,102.2V97.6l-6.95,4.601V97.6l-6.9,4.601V97.6L25.2,102.2v13H46V102.2z"/>
<path fill="none" stroke="#FFFFFF" d="M23.601,93.4h-5.7"/>
<path fill="none" stroke="#FFFFFF" d="M24.25,102.2L23.3,89h-5.1l-0.95,13.2"/>
<path fill="none" stroke="#FFFFFF" d="M31.45,106.05H29v2.45h2.45V106.05z"/>
<path fill="none" stroke="#FFFFFF" d="M36.45,106.05H34v2.45h2.45V106.05z"/>
<path fill="none" stroke="#FFFFFF" d="M41.45,106H39v2.45h2.45V106z"/>
<path fill="none" stroke="#FFFFFF" d="M25.2,102.2H16v13h9.2V102.2z"/>
<path fill="#00DCE6" fill-opacity="0.2" d="M62,115.974c7.732,0,14-6.262,14-13.987C76,94.262,69.732,88,62,88s-14,6.262-14,13.986
	C48,109.712,54.268,115.974,62,115.974z"/>
<path fill="#00DCE6" d="M62,105.983c2.209,0,4-1.789,4-3.996c0-2.207-1.791-3.996-4-3.996s-4,1.79-4,3.996
	C58,104.194,59.791,105.983,62,105.983z"/>
<path fill="#1F2432" d="M31,204c17.121,0,31-13.879,31-31s-13.879-31-31-31S0,155.879,0,173S13.879,204,31,204z"/>
<path fill="none" stroke="#FFFFFF" d="M46,173.2v-4.6l-6.95,4.6v-4.6l-6.9,4.6v-4.6l-6.95,4.6v13H46V173.2z"/>
<path fill="none" stroke="#FFFFFF" d="M23.601,164.4h-5.7"/>
<path fill="none" stroke="#FFFFFF" d="M24.25,173.2L23.3,160h-5.1l-0.95,13.2"/>
<path fill="none" stroke="#FFFFFF" d="M31.45,177.05H29v2.45h2.45V177.05z"/>
<path fill="none" stroke="#FFFFFF" d="M36.45,177.05H34v2.45h2.45V177.05z"/>
<path fill="none" stroke="#FFFFFF" d="M41.45,177H39v2.45h2.45V177z"/>
<path fill="none" stroke="#FFFFFF" d="M25.2,173.2H16v13h9.2V173.2z"/>
<path fill="#00DCE6" fill-opacity="0.2" d="M62,186.974c7.732,0,14-6.262,14-13.987S69.732,159,62,159s-14,6.262-14,13.987
	S54.268,186.974,62,186.974z"/>
<path fill="#00DCE6" d="M62,176.983c2.209,0,4-1.789,4-3.996c0-2.207-1.791-3.996-4-3.996s-4,1.789-4,3.996
	C58,175.194,59.791,176.983,62,176.983z"/>
<path fill="none" stroke="#00DCE6" d="M126.5,173V31"/>
<path fill="none" stroke="#00DCE6" stroke-linecap="round" stroke-miterlimit="10" d="M617,52.018h-60v27.707h60V52.018z"/>
<path fill="none" stroke="#00DCE6" stroke-linecap="square" stroke-miterlimit="10" d="M563,55.017v22.236"/>
<path fill="none" stroke="#00DCE6" stroke-linecap="square" stroke-miterlimit="10" d="M571,55.017v22.236"/>
<path fill="none" stroke="#00DCE6" stroke-linecap="square" stroke-miterlimit="10" d="M579,55.017v22.236"/>
<path fill="none" stroke="#00DCE6" stroke-linecap="square" stroke-miterlimit="10" d="M587,55.017v22.236"/>
<path fill="none" stroke="#00DCE6" stroke-linecap="square" stroke-miterlimit="10" d="M595,55.017v22.236"/>
<path fill="none" stroke="#00DCE6" stroke-linecap="square" stroke-miterlimit="10" d="M603,55.017v22.236"/>
<path fill="none" stroke="#00DCE6" stroke-linecap="square" stroke-miterlimit="10" d="M611,55v22.236"/>
<path fill="none" stroke="#00DCE6" stroke-linecap="round" stroke-miterlimit="10" d="M560.104,52.017l26.689-7.112"/>
<path fill="none" stroke="#00DCE6" stroke-linecap="round" stroke-miterlimit="10" d="M586.793,44.905l26.897,7.112"/>
<path fill="none" stroke="#00DCE6" stroke-linecap="round" stroke-miterlimit="10" d="M590.121,34h-7.242L580,29h13L590.121,34z"/>
<path fill="none" stroke="#00DCE6" stroke-linecap="square" stroke-miterlimit="10" d="M584,44.504c0.662,0.88,1.77,1.494,3,1.494
	c2.176,0,3.878-1.476,3.878-3.5S589.176,39,587,39v-4"/>
<path fill="none" stroke="#00DCE6" stroke-miterlimit="10" d="M787.5,44.205L762,32l-25.8,12v32h4.8h42.4h4.1V44.205z"/>
<path fill="none" stroke="#00DCE6" stroke-miterlimit="10" d="M732,45.911L761.9,32L792,46.329"/>
<path fill="none" stroke="#00DCE6" stroke-miterlimit="10" d="M771,66.519h-9v9.413h9V66.519z"/>
<path fill="none" stroke="#00DCE6" stroke-miterlimit="10" d="M762,66.519h-9v9.413h9V66.519z"/>
<path fill="none" stroke="#00DCE6" stroke-miterlimit="10" d="M753,66.519h-9v9.413h9V66.519z"/>
<path fill="none" stroke="#00DCE6" stroke-miterlimit="10" d="M780,66.519h-9v9.413h9V66.519z"/>
<path fill="none" stroke="#00DCE6" stroke-miterlimit="10" d="M780,66.519h-9v9.413h9V66.519z"/>
<path fill="none" stroke="#00DCE6" stroke-miterlimit="10" d="M757.5,57h-9v9.413h9V57z"/>
<path fill="none" stroke="#00DCE6" stroke-miterlimit="10" d="M775.5,57h-9v9.413h9V57z"/>
<path fill="none" stroke="#00DCE6" stroke-miterlimit="10" d="M766.5,57h-9v9.413h9V57z"/>
<path fill="none" stroke="#00DCE6" stroke-miterlimit="10" d="M766.5,57h-9v9.413h9V57z"/>
<path fill="none" stroke="#00DCE6" stroke-miterlimit="10" d="M753,57v3.138"/>
<path fill="none" stroke="#00DCE6" stroke-miterlimit="10" d="M748.5,66.519v3.033"/>
<path fill="none" stroke="#00DCE6" stroke-miterlimit="10" d="M757.5,66.519v3.033"/>
<path fill="none" stroke="#00DCE6" stroke-miterlimit="10" d="M766.5,66.519v3.033"/>
<path fill="none" stroke="#00DCE6" stroke-miterlimit="10" d="M775.5,66.519v3.033"/>
<path fill="none" stroke="#00DCE6" stroke-miterlimit="10" d="M762,57v3.138"/>
<path fill="none" stroke="#00DCE6" stroke-miterlimit="10" d="M766.5,48h-9v9h9V48z"/>
<path fill="none" stroke="#00DCE6" stroke-miterlimit="10" d="M762,48v3.138"/>
<path fill="none" stroke="#00DCE6" stroke-miterlimit="10" d="M771,57v3.138"/>
<path fill="none" stroke="#00DCE6" stroke-miterlimit="10" d="M956.6,43.6H947.7v15.2h17.8v-2L956.6,43.6z"/>
<path fill="none" stroke="#00DCE6" stroke-miterlimit="10" d="M952.6,70.3c0,2.9,2.4,5.3,5.301,5.3c2.899,0,5.3-2.4,5.3-5.3
	c0-2.9-2.4-5.3-5.3-5.3C955,65,952.6,67.4,952.6,70.3z"/>
<path fill="none" stroke="#00DCE6" stroke-miterlimit="10" d="M954.8,70.3c0,1.7,1.4,3.1,3.101,3.1c1.699,0,3.1-1.4,3.1-3.1
	c0-1.7-1.4-3.1-3.1-3.1C956.2,67.2,954.8,68.6,954.8,70.3z"/>
<path fill="none" stroke="#00DCE6" stroke-miterlimit="10" d="M915.1,70.2c0,2.9,2.301,5.3,5.2,5.4c2.9,0,5.3-2.3,5.4-5.2
	c0-2.9-2.3-5.3-5.2-5.4C917.5,65,915.1,67.3,915.1,70.2z"/>
<path fill="none" stroke="#00DCE6" stroke-miterlimit="10" d="M945.3,41h12.9L969,56.8v12.1h-6c-0.6-2.2-2.7-3.8-5.1-3.8
	c-2.4,0-4.4,1.6-5.101,3.8h-7.5H925.4c-0.601-2.2-2.601-3.8-5-3.8c-2.4,0-4.5,1.6-5.101,3.8H909V41.1L945.3,41z"/>
<path fill="none" stroke="#00DCE6" stroke-miterlimit="10" d="M917.3,70.3c0,1.7,1.3,3.1,3,3.1s3.101-1.3,3.101-3
	c0-1.7-1.301-3.1-3-3.1C918.7,67.2,917.3,68.6,917.3,70.3z"/>
<path fill="none" stroke="#00DCE6" stroke-miterlimit="10" d="M941.8,46h-26.7"/>
<path fill="none" stroke="#00DCE6" stroke-miterlimit="10" d="M941.8,51h-26.7"/>
<path fill="none" stroke="#00DCE6" stroke-miterlimit="10" d="M941.8,56h-26.7"/>
<path fill="none" stroke="#00DCE6" d="M216.1,39.647v15.924h-10.6V39.647"/>
<path fill="none" stroke="#00DCE6" d="M237.3,39.647v15.924h-10.6V39.647"/>
<path fill="none" stroke="#00DCE6" d="M258.5,39.647v15.924h-10.6V39.647"/>
<path fill="none" stroke="#00DCE6" d="M262,55.571h-60V76.1h60V55.571z"/>
<path fill="none" stroke="#00DCE6" d="M243.2,33.22h-22.3v6.14h22.3V33.22z"/>
<path fill="none" stroke="#00DCE6" d="M232,29v4.221"/>
<path fill="none" stroke="#00DCE6" d="M242,60.656h-20v15.348h20V60.656z"/>
<path fill="none" stroke="#00DCE6" d="M242,60.656h-9.9v15.444h9.9V60.656z"/>
<path fill="none" stroke="#00DCE6" d="M258.5,39.36h-53v3.933h53V39.36z"/>
<path fill="none" stroke="#00DCE6" d="M235.2,66.507v4.604"/>
<path fill="none" stroke="#00DCE6" d="M229.2,66.507v4.604"/>
<path fill="none" stroke="#00DCE6" d="M211.8,60.656h-5.2v11.415h5.2V60.656z"/>
<path fill="none" stroke="#00DCE6" d="M257.1,60.656h-5.2v11.415h5.2V60.656z"/>
<path fill="none" stroke="#00DCE6" d="M223.4,36.29h16.4"/>
<path fill="none" stroke="#00DCE6" stroke-miterlimit="10" d="M405.451,37l23.916,0.177c5.089,0.088,7.633,3.617,7.633,7.146
	s-2.748,7.059-7.735,6.97l-16.485-0.176c-1.73,0-3.257,0.529-4.275,1.588c-0.916,0.971-1.424,2.294-1.424,3.706
	c0,2.559,1.729,5.294,5.597,5.382l7.735,0.088c2.34,0,4.376,0.882,5.8,2.294c1.222,1.324,1.832,3,1.832,4.853
	c0,3.529-2.748,7.058-7.734,6.97L391,75.734"/>
<path fill="none" stroke="#00DCE6" stroke-miterlimit="10" d="M393.361,63.225c0-3.965-3.172-7.225-7.137-7.225
	S379,59.172,379,63.137c0,1.145,0.264,2.203,0.705,3.26c0.793,1.586,3.876,6.079,5.639,8.546L386.048,76l0.705-0.969
	c1.851-2.467,5.022-6.96,5.815-8.458C393.097,65.427,393.361,64.37,393.361,63.225z"/>
<path fill="none" stroke="#00DCE6" stroke-miterlimit="10" d="M386.136,66.133c1.851,0,3.349-1.499,3.349-3.348
	s-1.498-3.348-3.349-3.348c-1.849,0-3.348,1.499-3.348,3.348S384.287,66.133,386.136,66.133z"/>
<path fill="none" stroke="#00DCE6" stroke-miterlimit="10" d="M402.925,34.502c0-3.568-2.854-6.502-6.423-6.502
	S390,30.854,390,34.423c0,1.031,0.238,1.982,0.634,2.934c0.714,1.427,3.489,5.471,5.075,7.691L396.344,46l0.634-0.872
	c1.665-2.221,4.521-6.265,5.233-7.612C402.688,36.484,402.925,35.533,402.925,34.502z"/>
<path fill="none" stroke="#00DCE6" stroke-miterlimit="10" d="M396.502,37.118c1.664,0,3.013-1.349,3.013-3.013
	s-1.349-3.013-3.013-3.013s-3.013,1.349-3.013,3.013S394.838,37.118,396.502,37.118z"/>
<path fill="none" stroke="#00DCE6" stroke-miterlimit="10" d="M1133.5,76H1089V49h10"/>
<path fill="none" stroke="#00DCE6" stroke-miterlimit="10" d="M1133,49h10v27h-10"/>
<path fill="none" stroke="#00DCE6" stroke-miterlimit="10" d="M1125,74V54"/>
<path fill="none" stroke="#00DCE6" stroke-miterlimit="10" d="M1107,74V54"/>
<path fill="none" stroke="#00DCE6" stroke-miterlimit="10" d="M1116,54v17"/>
<path fill="none" stroke="#00DCE6" stroke-miterlimit="10" d="M1089.4,70.199h10.1"/>
<path fill="none" stroke="#00DCE6" stroke-miterlimit="10" d="M1132.7,70.199h10.2"/>
<path fill="none" stroke="#00DCE6" stroke-miterlimit="10" d="M1089.23,49H1086V39h11"/>
<path fill="none" stroke="#00DCE6" stroke-miterlimit="10" d="M1135,39h11v10h-3.16"/>
<path fill="none" stroke="#00DCE6" stroke-miterlimit="10" d="M1099.5,70.199h8"/>
<path fill="none" stroke="#00DCE6" stroke-miterlimit="10" d="M1125.1,70.199h7.601"/>
<path fill="none" stroke="#00DCE6" stroke-miterlimit="10" d="M1127,74h-22v2h22V74z"/>
<path fill="none" stroke="#00DCE6" stroke-miterlimit="10" d="M1125,72h-18v2h18V72z"/>
<path fill="none" stroke="#00DCE6" stroke-miterlimit="10" d="M1113.9,63.1v4.4"/>
<path fill="none" stroke="#00DCE6" stroke-miterlimit="10" d="M1118.7,63.1v4.4"/>
<path fill="none" stroke="#00DCE6" stroke-miterlimit="10" d="M1135,33h-38v16h38V33z"/>
<path fill="none" stroke="#00DCE6" stroke-miterlimit="10" d="M1127,49h-21v5h21V49z"/>
<path fill="none" stroke="#00DCE6" stroke-miterlimit="10" d="M1107,39c0,2.778-2.23,5-5,5s-5-2.222-5-5"/>
<path fill="none" stroke="#00DCE6" stroke-miterlimit="10" d="M1116,39c0,2.778-2.01,5-4.5,5s-4.5-2.222-4.5-5"/>
<path fill="none" stroke="#00DCE6" stroke-miterlimit="10" d="M1125,39c0,2.778-2.01,5-4.5,5s-4.5-2.222-4.5-5"/>
<path fill="none" stroke="#00DCE6" stroke-miterlimit="10" d="M1135,39c0,2.778-2.23,5-5,5s-5-2.222-5-5"/>
<text transform="matrix(1 0 0 1 33.5 223.5)" font-family="'MicrosoftYaHeiLight'" font-size="14">制造商</text>
<text transform="matrix(1 0 0 1 208.5 155.5)" fill="#FFFFFF" font-family="'MicrosoftYaHeiLight'" font-size="15">供应商</text>
<text transform="matrix(1 0 0 1 393.5 154.5)" fill="#FFFFFF" font-family="'MicrosoftYaHeiLight'" font-size="15">物流</text>
<text transform="matrix(1 0 0 1 556.5 155.5)" fill="#FFFFFF" font-family="'MicrosoftYaHeiLight'" font-size="15">长途运输</text>
<text transform="matrix(1 0 0 1 746.5 155.5)" fill="#FFFFFF" font-family="'MicrosoftYaHeiLight'" font-size="15">仓库</text>
<text transform="matrix(1 0 0 1 908.5 155.5)" fill="#FFFFFF" font-family="'MicrosoftYaHeiLight'" font-size="15">短途运输</text>
<text transform="matrix(1 0 0 1 1091.5 155.5)" fill="#FFFFFF" font-family="'MicrosoftYaHeiLight'" font-size="15">收货人</text>
<text transform="matrix(1.0684 0 0 1 102.7837 322.4102)"><tspan x="0" y="0" font-family="'MicrosoftYaHeiLight'" font-size="12.1675" letter-spacing="0.936">- 原产地证书</tspan><tspan x="0" y="20.601" font-family="'MicrosoftYaHeiLight'" font-size="12.1675" letter-spacing="0.936">- 批次号</tspan><tspan x="0" y="41.202" font-family="'MicrosoftYaHeiLight'" font-size="12.1675" letter-spacing="0.936">- 数据处理</tspan><tspan x="0" y="61.803" font-family="'MicrosoftYaHeiLight'" font-size="12.1675" letter-spacing="0.936">- 条码</tspan><tspan x="0" y="82.404" font-family="'MicrosoftYaHeiLight'" font-size="12.1675" letter-spacing="0.936">- 出货日期</tspan></text>
<text transform="matrix(1 0 0 1 281.5 317.5)"><tspan x="0" y="0" font-family="'MicrosoftYaHeiLight'" font-size="13">-</tspan><tspan x="5.586" y="0" font-family="'MicrosoftYaHeiLight'" font-size="13"> 打包清单</tspan><tspan x="0" y="21.6" font-family="'MicrosoftYaHeiLight'" font-size="13">- 订单号</tspan><tspan x="0" y="43.2" font-family="'MicrosoftYaHeiLight'" font-size="13">- 批次号</tspan><tspan x="0" y="64.8" font-family="'MicrosoftYaHeiLight'" font-size="13">- 生产信息</tspan><tspan x="0" y="90.4" font-family="'MicrosoftYaHeiLight'" font-size="13">- 装运规格（DIMS）</tspan></text>
<text transform="matrix(1 0 0 1 465.5 321.5)"><tspan x="0" y="0" font-family="'MicrosoftYaHeiLight'" font-size="13">- 提货单</tspan><tspan x="0" y="21.6" font-family="'MicrosoftYaHeiLight'" font-size="13">- 线路提示</tspan><tspan x="0" y="43.2" font-family="'MicrosoftYaHeiLight'" font-size="13">- 发货日期</tspan><tspan x="0" y="64.8" font-family="'MicrosoftYaHeiLight'" font-size="13">- 商品描述</tspan></text>
<text transform="matrix(1 0 0 1 640.5 322.5)"><tspan x="0" y="0" font-family="'MicrosoftYaHeiLight'" font-size="13">-</tspan><tspan x="5.586" y="0" font-family="'MicrosoftYaHeiLight'" font-size="13"> 签名交付</tspan><tspan x="0" y="21.6" font-family="'MicrosoftYaHeiLight'" font-size="13">- 温度</tspan><tspan x="0" y="43.2" font-family="'MicrosoftYaHeiLight'" font-size="13">- 运输状态</tspan></text>
<text transform="matrix(1 0 0 1 818.5 322.5)"><tspan x="0" y="0" font-family="'MicrosoftYaHeiLight'" font-size="13">- 线路提示</tspan><tspan x="0" y="21.6" font-family="'MicrosoftYaHeiLight'" font-size="13">- 选择日期</tspan><tspan x="0" y="43.2" font-family="'MicrosoftYaHeiLight'" font-size="13">- 打包</tspan><tspan x="0" y="64.8" font-family="'MicrosoftYaHeiLight'" font-size="13">- 技术指标</tspan><tspan x="0" y="86.4" font-family="'MicrosoftYaHeiLight'" font-size="13">- 包装条码</tspan></text>
<text transform="matrix(1 0 0 1 996.5 323.5)"><tspan x="0" y="0" font-family="'MicrosoftYaHeiLight'" font-size="13">- 接收日期</tspan><tspan x="0" y="21.6" font-family="'MicrosoftYaHeiLight'" font-size="13">- 发票号码</tspan><tspan x="0" y="43.2" font-family="'MicrosoftYaHeiLight'" font-size="13">- 客户ID</tspan><tspan x="0" y="64.8" font-family="'MicrosoftYaHeiLight'" font-size="13">- 运输状态</tspan><tspan x="0" y="86.4" font-family="'MicrosoftYaHeiLight'" font-size="13">- 交货收据</tspan></text>
</svg>
