<?xml version="1.0" encoding="utf-8"?>
<!-- Generator: Adobe Illustrator 15.0.0, SVG Export Plug-In . SVG Version: 6.00 Build 0)  -->
<!DOCTYPE svg PUBLIC "-//W3C//DTD SVG 1.1//EN" "http://www.w3.org/Graphics/SVG/1.1/DTD/svg11.dtd">
<svg version="1.1" id="图层_1" xmlns="http://www.w3.org/2000/svg" xmlns:xlink="http://www.w3.org/1999/xlink" x="0px" y="0px"
	 width="332px" height="420px" viewBox="0 0 332 420" enable-background="new 0 0 332 420" xml:space="preserve">
<path fill="#00DCE6" d="M165,0v20h2V0H165z"/>
<path fill="none" stroke="#00DCE6" stroke-width="2" d="M256,35V20c-70.294,0-109.706,0-180,0v15"/>
<path fill="#00DCE6" d="M165,420v-20h2v20H165z"/>
<path fill="none" stroke="#00DCE6" stroke-width="2" d="M257,385v15c-70.686,0-110.315,0-181,0v-15"/>
<rect x="179" y="68" fill="none" stroke="#00DCE6" stroke-miterlimit="16" width="152" height="317"/>
<path fill="none" stroke="#00DCE6" stroke-miterlimit="16" stroke-dasharray="1,1" d="M179,237c-10.154,0-15.846,0-26,0"/>
<path fill="#00DCE6" d="M175,237c0,2.209,1.791,4,4,4s4-1.791,4-4s-1.791-4-4-4S175,234.791,175,237z"/>
<path fill="#00DCE6" d="M149,237c0,2.209,1.791,4,4,4s4-1.791,4-4s-1.791-4-4-4S149,234.791,149,237z"/>
<rect x="1" y="68" fill="none" stroke="#00DCE6" stroke-miterlimit="16" width="152" height="317"/>
<path fill="#1F2432" d="M76,101c18.226,0,33-14.774,33-33S94.226,35,76,35S43,49.774,43,68S57.774,101,76,101z"/>
<path fill="none" stroke="#FFFFFF" stroke-miterlimit="10" d="M77.941,56.74v6.212"/>
<path fill="none" stroke="#FFFFFF" stroke-miterlimit="10" d="M74.835,59.846h6.211"/>
<path fill="none" stroke="#FFFFFF" stroke-miterlimit="10" d="M82.6,59.847h10.094"/>
<path fill="none" stroke="#FFFFFF" stroke-miterlimit="10" d="M82.6,62.176h5.435"/>
<path fill="none" stroke="#FFFFFF" stroke-miterlimit="10" d="M92.694,66.835H74.835"/>
<path fill="none" stroke="#FFFFFF" stroke-miterlimit="10" d="M92.694,69.94H74.835"/>
<path fill="none" stroke="#FFFFFF" stroke-miterlimit="10" d="M92.694,72.271H74.835"/>
<path fill="none" stroke="#FFFFFF" stroke-miterlimit="10" d="M98.07,76.163H69.722"/>
<path fill="none" stroke="#FFFFFF" stroke-miterlimit="10" d="M64.859,63.921V53.635h33.26L98.07,78.579"/>
<path fill="none" stroke="#FFFFFF" stroke-miterlimit="10" d="M69.749,78.536L98.07,78.58v-2.626"/>
<path fill="none" stroke="#FFFFFF" stroke-miterlimit="10" d="M87.117,78.536H75.86v3.828h11.257V78.536z"/>
<path fill="none" stroke="#FFFFFF" stroke-miterlimit="10" d="M73.873,82.364h15.246"/>
<path fill="none" stroke="#FFFFFF" stroke-miterlimit="10" d="M69.749,63.921H53.871v18.443h15.878V63.921z"/>
<path fill="none" stroke="#FFFFFF" stroke-miterlimit="10" d="M53.871,80.213h15.878"/>
<path fill="none" stroke="#FFFFFF" stroke-linejoin="bevel" stroke-miterlimit="10" d="M53.951,72.227h2.545l0.854-4.271
	l1.316,6.461l0.819-2.915h2.123l1.343-3.117v6.22l1.209-3.439h1.357l0.873-1.531l0.779,4.03l0.523-2.499h1.813"/>
<path fill="#1F2432" d="M256,100c18.225,0,33-14.774,33-33s-14.775-33-33-33s-33,14.774-33,33S237.775,100,256,100z"/>
<path fill="none" stroke="#FFFFFF" stroke-miterlimit="10" d="M261.563,47.977v5.21h10.808v17.781l-3.032,8.884h-7.415h-7.722
	l-3.045-8.884V53.187h10.406"/>
<path fill="none" stroke="#FFFFFF" stroke-miterlimit="10" d="M243.167,57.729h-3.86v19.037h13.719"/>
<path fill="none" stroke="#FFFFFF" stroke-miterlimit="10" d="M251.129,70.968V57.729h-4.408"/>
<path fill="none" stroke="#FFFFFF" stroke-miterlimit="10" d="M246.721,57.729v-2.953h-3.554v14.081
	c0,0.989,0.801,1.777,1.776,1.777c0.988,0,1.777-0.801,1.777-1.777V57.729"/>
<path fill="none" stroke="#FFFFFF" stroke-miterlimit="10" d="M243.514,52.371h2.819"/>
<path fill="none" stroke="#FFFFFF" stroke-miterlimit="10" d="M244.917,52.371v2.405"/>
<path fill="none" stroke="#FFFFFF" stroke-miterlimit="10" d="M241.59,54.776h6.667"/>
<path fill="none" stroke="#FFFFFF" stroke-miterlimit="10" d="M244.917,70.635v3.527"/>
<path fill="none" stroke="#FFFFFF" stroke-miterlimit="10" d="M267.259,56.518h-10.87v9.317h10.87V56.518z"/>
<path fill="none" stroke="#FFFFFF" stroke-miterlimit="10" d="M261.823,58.07v6.212"/>
<path fill="none" stroke="#FFFFFF" stroke-miterlimit="10" d="M258.718,61.177h6.212"/>
<path fill="none" stroke="#FFFFFF" stroke-miterlimit="10" d="M261.549,86.023v-6.172"/>
<path fill="none" stroke="#FFFFFF" d="M258.992,70.634c0,0.167-0.135,0.301-0.303,0.301c-0.166,0-0.301-0.135-0.301-0.301
	c0-0.167,0.135-0.302,0.301-0.302C258.857,70.332,258.992,70.467,258.992,70.634z"/>
<path fill="none" stroke="#FFFFFF" d="M254.598,70.968c0,0.167-0.136,0.301-0.303,0.301c-0.166,0-0.302-0.135-0.302-0.301
	c0-0.167,0.136-0.302,0.302-0.302C254.462,70.666,254.598,70.801,254.598,70.968z"/>
<path fill="none" stroke="#FFFFFF" d="M254.998,73.733c0,0.167-0.135,0.301-0.303,0.301c-0.166,0-0.301-0.135-0.301-0.301
	s0.135-0.302,0.301-0.302C254.863,73.432,254.998,73.567,254.998,73.733z"/>
<path fill="none" stroke="#FFFFFF" d="M269.091,70.968c0,0.167-0.135,0.301-0.301,0.301c-0.167,0-0.302-0.135-0.302-0.301
	c0-0.167,0.135-0.302,0.302-0.302C268.956,70.666,269.091,70.801,269.091,70.968z"/>
<path fill="none" stroke="#FFFFFF" d="M268.691,73.733c0,0.167-0.135,0.301-0.303,0.301c-0.166,0-0.301-0.135-0.301-0.301
	s0.135-0.302,0.301-0.302C268.557,73.432,268.691,73.567,268.691,73.733z"/>
<path fill="none" stroke="#FFFFFF" d="M261.852,70.634c0,0.167-0.136,0.301-0.303,0.301c-0.166,0-0.301-0.135-0.301-0.301
	c0-0.167,0.135-0.302,0.301-0.302C261.716,70.332,261.852,70.467,261.852,70.634z"/>
<path fill="none" stroke="#FFFFFF" d="M264.71,70.634c0,0.167-0.135,0.301-0.302,0.301c-0.166,0-0.301-0.135-0.301-0.301
	c0-0.167,0.135-0.302,0.301-0.302C264.575,70.332,264.71,70.467,264.71,70.634z"/>
<path fill="none" stroke="#FFFFFF" d="M258.992,73.493c0,0.167-0.135,0.301-0.303,0.301c-0.166,0-0.301-0.135-0.301-0.301
	c0-0.167,0.135-0.302,0.301-0.302C258.857,73.191,258.992,73.326,258.992,73.493z"/>
<path fill="none" stroke="#FFFFFF" d="M261.852,73.493c0,0.167-0.136,0.301-0.303,0.301c-0.166,0-0.301-0.135-0.301-0.301
	c0-0.167,0.135-0.302,0.301-0.302C261.716,73.191,261.852,73.326,261.852,73.493z"/>
<path fill="none" stroke="#FFFFFF" d="M264.71,73.493c0,0.167-0.135,0.301-0.302,0.301c-0.166,0-0.301-0.135-0.301-0.301
	c0-0.167,0.135-0.302,0.301-0.302C264.575,73.191,264.71,73.326,264.71,73.493z"/>
<path fill="none" stroke="#FFFFFF" d="M258.992,76.352c0,0.167-0.135,0.301-0.303,0.301c-0.166,0-0.301-0.135-0.301-0.301
	c0-0.167,0.135-0.302,0.301-0.302C258.857,76.05,258.992,76.185,258.992,76.352z"/>
<path fill="none" stroke="#FFFFFF" d="M261.852,76.352c0,0.167-0.136,0.301-0.303,0.301c-0.166,0-0.301-0.135-0.301-0.301
	c0-0.167,0.135-0.302,0.301-0.302C261.716,76.05,261.852,76.185,261.852,76.352z"/>
<path fill="none" stroke="#FFFFFF" d="M264.71,76.352c0,0.167-0.135,0.301-0.302,0.301c-0.166,0-0.301-0.135-0.301-0.301
	c0-0.167,0.135-0.302,0.301-0.302C264.575,76.05,264.71,76.185,264.71,76.352z"/>
<text transform="matrix(1 0 0 1 27.5 135.5)" font-family="'MicrosoftYaHeiLight'" font-size="13">由患者产生的数据</text>
<text transform="matrix(1 0 0 1 188 134.5)" font-family="'MicrosoftYaHeiLight'" font-size="13">临床诊断数据和健康记录</text>
<text transform="matrix(1 0 0 1 29.5 184.5)"><tspan x="0" y="0" font-family="'MicrosoftYaHeiLight'" font-size="12">- 健康类的APP</tspan><tspan x="0" y="20.4" font-family="'MicrosoftYaHeiLight'" font-size="12">- 可穿戴的设备</tspan><tspan x="0" y="40.8" font-family="'MicrosoftYaHeiLight'" font-size="12">- 医疗周边设备</tspan><tspan x="0" y="61.2" font-family="'MicrosoftYaHeiLight'" font-size="12">- 移动医疗方案</tspan><tspan x="0" y="81.6" font-family="'MicrosoftYaHeiLight'" font-size="12">- 家用医疗设备</tspan><tspan x="0" y="102" font-family="'MicrosoftYaHeiLight'" font-size="12">- 植入体内的设备</tspan></text>
<text transform="matrix(1 0 0 1 187.5 184.5)"><tspan x="0" y="0" font-family="'MicrosoftYaHeiLight'" font-size="12">- 小型医疗设备</tspan><tspan x="0" y="20.4" font-family="'MicrosoftYaHeiLight'" font-size="12">- 医院的医疗设备</tspan><tspan x="0" y="40.8" font-family="'MicrosoftYaHeiLight'" font-size="12">- 可移动的医疗设备</tspan><tspan x="0" y="61.2" font-family="'MicrosoftYaHeiLight'" font-size="12">- 电子病历、电子健康档案</tspan></text>
</svg>
