<svg width="270" height="163" viewBox="0 0 270 163" fill="none" xmlns="http://www.w3.org/2000/svg">
<path d="M134 4.37114e-08L134 20L136 20L136 -4.37114e-08L134 4.37114e-08Z" fill="#00DCE6"/>
<path d="M134 143L134 163L136 163L136 143L134 143Z" fill="#00DCE6"/>
<path d="M185.773 118V106.625H189.273C190.273 106.625 191.167 106.852 191.953 107.305C192.745 107.753 193.362 108.393 193.805 109.227C194.247 110.055 194.469 110.997 194.469 112.055V112.578C194.469 113.635 194.25 114.576 193.812 115.398C193.38 116.221 192.768 116.859 191.977 117.312C191.185 117.766 190.292 117.995 189.297 118H185.773ZM188.117 108.523V116.117H189.25C190.167 116.117 190.867 115.818 191.352 115.219C191.836 114.62 192.083 113.763 192.094 112.648V112.047C192.094 110.891 191.854 110.016 191.375 109.422C190.896 108.823 190.195 108.523 189.273 108.523H188.117ZM200.93 118C200.826 117.797 200.75 117.544 200.703 117.242C200.156 117.852 199.445 118.156 198.57 118.156C197.742 118.156 197.055 117.917 196.508 117.438C195.966 116.958 195.695 116.354 195.695 115.625C195.695 114.729 196.026 114.042 196.688 113.562C197.354 113.083 198.315 112.841 199.57 112.836H200.609V112.352C200.609 111.961 200.508 111.648 200.305 111.414C200.107 111.18 199.792 111.062 199.359 111.062C198.979 111.062 198.68 111.154 198.461 111.336C198.247 111.518 198.141 111.768 198.141 112.086H195.883C195.883 111.596 196.034 111.143 196.336 110.727C196.638 110.31 197.065 109.984 197.617 109.75C198.169 109.51 198.789 109.391 199.477 109.391C200.518 109.391 201.344 109.654 201.953 110.18C202.568 110.701 202.875 111.435 202.875 112.383V116.047C202.88 116.849 202.992 117.456 203.211 117.867V118H200.93ZM199.062 116.43C199.396 116.43 199.703 116.357 199.984 116.211C200.266 116.06 200.474 115.859 200.609 115.609V114.156H199.766C198.635 114.156 198.034 114.547 197.961 115.328L197.953 115.461C197.953 115.742 198.052 115.974 198.25 116.156C198.448 116.339 198.719 116.43 199.062 116.43ZM207.312 107.469V109.547H208.758V111.203H207.312V115.422C207.312 115.734 207.372 115.958 207.492 116.094C207.612 116.229 207.841 116.297 208.18 116.297C208.43 116.297 208.651 116.279 208.844 116.242V117.953C208.401 118.089 207.945 118.156 207.477 118.156C205.893 118.156 205.086 117.357 205.055 115.758V111.203H203.82V109.547H205.055V107.469H207.312ZM214.914 118C214.81 117.797 214.734 117.544 214.688 117.242C214.141 117.852 213.43 118.156 212.555 118.156C211.727 118.156 211.039 117.917 210.492 117.438C209.951 116.958 209.68 116.354 209.68 115.625C209.68 114.729 210.01 114.042 210.672 113.562C211.339 113.083 212.299 112.841 213.555 112.836H214.594V112.352C214.594 111.961 214.492 111.648 214.289 111.414C214.091 111.18 213.776 111.062 213.344 111.062C212.964 111.062 212.664 111.154 212.445 111.336C212.232 111.518 212.125 111.768 212.125 112.086H209.867C209.867 111.596 210.018 111.143 210.32 110.727C210.622 110.31 211.049 109.984 211.602 109.75C212.154 109.51 212.773 109.391 213.461 109.391C214.503 109.391 215.328 109.654 215.938 110.18C216.552 110.701 216.859 111.435 216.859 112.383V116.047C216.865 116.849 216.977 117.456 217.195 117.867V118H214.914ZM213.047 116.43C213.38 116.43 213.688 116.357 213.969 116.211C214.25 116.06 214.458 115.859 214.594 115.609V114.156H213.75C212.62 114.156 212.018 114.547 211.945 115.328L211.938 115.461C211.938 115.742 212.036 115.974 212.234 116.156C212.432 116.339 212.703 116.43 213.047 116.43ZM225.07 116.117H230.047V118H222.727V106.625H225.07V116.117ZM236.148 118C236.044 117.797 235.969 117.544 235.922 117.242C235.375 117.852 234.664 118.156 233.789 118.156C232.961 118.156 232.273 117.917 231.727 117.438C231.185 116.958 230.914 116.354 230.914 115.625C230.914 114.729 231.245 114.042 231.906 113.562C232.573 113.083 233.534 112.841 234.789 112.836H235.828V112.352C235.828 111.961 235.727 111.648 235.523 111.414C235.326 111.18 235.01 111.062 234.578 111.062C234.198 111.062 233.898 111.154 233.68 111.336C233.466 111.518 233.359 111.768 233.359 112.086L231.102 112.086C231.102 111.596 231.253 111.143 231.555 110.727C231.857 110.31 232.284 109.984 232.836 109.75C233.388 109.51 234.008 109.391 234.695 109.391C235.737 109.391 236.562 109.654 237.172 110.18C237.786 110.701 238.094 111.435 238.094 112.383V116.047C238.099 116.849 238.211 117.456 238.43 117.867V118H236.148ZM234.281 116.43C234.615 116.43 234.922 116.357 235.203 116.211C235.484 116.06 235.693 115.859 235.828 115.609V114.156H234.984C233.854 114.156 233.253 114.547 233.18 115.328L233.172 115.461C233.172 115.742 233.271 115.974 233.469 116.156C233.667 116.339 233.938 116.43 234.281 116.43ZM242.898 114.609L242.086 115.422V118H239.828V106H242.086V112.648L242.523 112.086L244.688 109.547H247.398L244.344 113.07L247.664 118H245.07L242.898 114.609ZM252.109 118.156C250.87 118.156 249.859 117.776 249.078 117.016C248.302 116.255 247.914 115.242 247.914 113.977V113.758C247.914 112.909 248.078 112.151 248.406 111.484C248.734 110.812 249.198 110.297 249.797 109.937C250.401 109.573 251.089 109.391 251.859 109.391C253.016 109.391 253.924 109.755 254.586 110.484C255.253 111.214 255.586 112.247 255.586 113.586V114.508H250.203C250.276 115.06 250.495 115.503 250.859 115.836C251.229 116.169 251.695 116.336 252.258 116.336C253.128 116.336 253.807 116.021 254.297 115.391L255.406 116.633C255.068 117.112 254.609 117.487 254.031 117.758C253.453 118.023 252.812 118.156 252.109 118.156ZM251.852 111.219C251.404 111.219 251.039 111.37 250.758 111.672C250.482 111.974 250.305 112.406 250.227 112.969H253.367V112.789C253.357 112.289 253.221 111.904 252.961 111.633C252.701 111.357 252.331 111.219 251.852 111.219ZM261.453 115.664C261.453 115.388 261.315 115.172 261.039 115.016C260.768 114.854 260.331 114.711 259.727 114.586C257.716 114.164 256.711 113.31 256.711 112.023C256.711 111.273 257.021 110.648 257.641 110.148C258.266 109.643 259.081 109.391 260.086 109.391C261.159 109.391 262.016 109.643 262.656 110.148C263.302 110.654 263.625 111.31 263.625 112.117H261.367C261.367 111.794 261.263 111.529 261.055 111.32C260.846 111.107 260.521 111 260.078 111C259.698 111 259.404 111.086 259.195 111.258C258.987 111.43 258.883 111.648 258.883 111.914C258.883 112.164 259 112.367 259.234 112.523C259.474 112.674 259.875 112.807 260.438 112.922C261 113.031 261.474 113.156 261.859 113.297C263.052 113.734 263.648 114.492 263.648 115.57C263.648 116.341 263.318 116.966 262.656 117.445C261.995 117.919 261.141 118.156 260.094 118.156C259.385 118.156 258.755 118.031 258.203 117.781C257.656 117.526 257.227 117.18 256.914 116.742C256.602 116.299 256.445 115.823 256.445 115.312H258.586C258.607 115.714 258.755 116.021 259.031 116.234C259.307 116.448 259.677 116.555 260.141 116.555C260.573 116.555 260.898 116.474 261.117 116.312C261.341 116.146 261.453 115.93 261.453 115.664Z" fill="#1F2432"/>
<path d="M6.84375 118L6.84375 106.625H10.8281C12.2083 106.625 13.2552 106.891 13.9688 107.422C14.6823 107.948 15.0391 108.721 15.0391 109.742C15.0391 110.299 14.8958 110.792 14.6094 111.219C14.3229 111.641 13.9245 111.951 13.4141 112.148C13.9974 112.294 14.4557 112.589 14.7891 113.031C15.1276 113.474 15.2969 114.016 15.2969 114.656C15.2969 115.75 14.9479 116.578 14.25 117.141C13.5521 117.703 12.5573 117.99 11.2656 118H6.84375ZM9.1875 113.047V116.117H11.1953C11.7474 116.117 12.1771 115.987 12.4844 115.727C12.7969 115.461 12.9531 115.096 12.9531 114.633C12.9531 113.591 12.4141 113.062 11.3359 113.047H9.1875ZM9.1875 111.391H10.9219C12.1042 111.37 12.6953 110.898 12.6953 109.977C12.6953 109.461 12.5443 109.091 12.2422 108.867C11.9453 108.638 11.474 108.523 10.8281 108.523H9.1875L9.1875 111.391ZM19.2969 118H17.0312V106H19.2969V118ZM20.8125 113.695C20.8125 112.857 20.974 112.109 21.2969 111.453C21.6198 110.797 22.0833 110.289 22.6875 109.93C23.2969 109.57 24.0026 109.391 24.8047 109.391C25.9453 109.391 26.875 109.74 27.5938 110.438C28.3177 111.135 28.7214 112.083 28.8047 113.281L28.8203 113.859C28.8203 115.156 28.4583 116.198 27.7344 116.984C27.0104 117.766 26.0391 118.156 24.8203 118.156C23.6016 118.156 22.6276 117.766 21.8984 116.984C21.1745 116.203 20.8125 115.141 20.8125 113.797V113.695ZM23.0703 113.859C23.0703 114.661 23.2214 115.276 23.5234 115.703C23.8255 116.125 24.2578 116.336 24.8203 116.336C25.3672 116.336 25.7943 116.128 26.1016 115.711C26.4089 115.289 26.5625 114.617 26.5625 113.695C26.5625 112.909 26.4089 112.299 26.1016 111.867C25.7943 111.435 25.362 111.219 24.8047 111.219C24.2526 111.219 23.8255 111.435 23.5234 111.867C23.2214 112.294 23.0703 112.958 23.0703 113.859ZM33.7266 116.336C34.1432 116.336 34.4818 116.221 34.7422 115.992C35.0026 115.763 35.138 115.458 35.1484 115.078H37.2656C37.2604 115.651 37.1042 116.177 36.7969 116.656C36.4896 117.13 36.0677 117.5 35.5312 117.766C35 118.026 34.4115 118.156 33.7656 118.156C32.5573 118.156 31.6042 117.773 30.9063 117.008C30.2083 116.237 29.8594 115.174 29.8594 113.82V113.672C29.8594 112.37 30.2057 111.331 30.8984 110.555C31.5911 109.779 32.5417 109.391 33.75 109.391C34.8073 109.391 35.6536 109.693 36.2891 110.297C36.9297 110.896 37.2552 111.695 37.2656 112.695H35.1484C35.138 112.258 35.0026 111.904 34.7422 111.633C34.4818 111.357 34.138 111.219 33.7109 111.219C33.1849 111.219 32.7865 111.411 32.5156 111.797C32.25 112.177 32.1172 112.797 32.1172 113.656V113.891C32.1172 114.76 32.25 115.385 32.5156 115.766C32.7812 116.146 33.1849 116.336 33.7266 116.336ZM41.625 114.609L40.8125 115.422V118H38.5547V106H40.8125V112.648L41.25 112.086L43.4141 109.547H46.125L43.0703 113.07L46.3906 118H43.7969L41.625 114.609ZM50.4609 116.336C50.8776 116.336 51.2161 116.221 51.4766 115.992C51.737 115.763 51.8724 115.458 51.8828 115.078L54 115.078C53.9948 115.651 53.8385 116.177 53.5312 116.656C53.224 117.13 52.8021 117.5 52.2656 117.766C51.7344 118.026 51.1458 118.156 50.5 118.156C49.2917 118.156 48.3385 117.773 47.6406 117.008C46.9427 116.237 46.5938 115.174 46.5938 113.82V113.672C46.5938 112.37 46.9401 111.331 47.6328 110.555C48.3255 109.779 49.276 109.391 50.4844 109.391C51.5417 109.391 52.388 109.693 53.0234 110.297C53.6641 110.896 53.9896 111.695 54 112.695L51.8828 112.695C51.8724 112.258 51.737 111.904 51.4766 111.633C51.2161 111.357 50.8724 111.219 50.4453 111.219C49.9193 111.219 49.5208 111.411 49.25 111.797C48.9844 112.177 48.8516 112.797 48.8516 113.656V113.891C48.8516 114.76 48.9844 115.385 49.25 115.766C49.5156 116.146 49.9193 116.336 50.4609 116.336ZM57.4922 110.469C58.0911 109.75 58.8438 109.391 59.75 109.391C61.5833 109.391 62.513 110.456 62.5391 112.586V118H60.2812V112.648C60.2812 112.164 60.1771 111.807 59.9688 111.578C59.7604 111.344 59.4141 111.227 58.9297 111.227C58.2682 111.227 57.7891 111.482 57.4922 111.992V118H55.2344V106H57.4922V110.469ZM69.1406 118C69.0365 117.797 68.9609 117.544 68.9141 117.242C68.3672 117.852 67.6562 118.156 66.7812 118.156C65.9531 118.156 65.2656 117.917 64.7188 117.437C64.1771 116.958 63.9062 116.354 63.9062 115.625C63.9062 114.729 64.237 114.042 64.8984 113.562C65.5651 113.083 66.526 112.841 67.7812 112.836H68.8203V112.352C68.8203 111.961 68.7188 111.648 68.5156 111.414C68.3177 111.18 68.0026 111.062 67.5703 111.062C67.1901 111.062 66.8906 111.154 66.6719 111.336C66.4583 111.518 66.3516 111.768 66.3516 112.086H64.0938C64.0938 111.596 64.2448 111.143 64.5469 110.727C64.849 110.31 65.276 109.984 65.8281 109.75C66.3802 109.51 67 109.391 67.6875 109.391C68.7292 109.391 69.5547 109.654 70.1641 110.18C70.7786 110.701 71.0859 111.435 71.0859 112.383V116.047C71.0911 116.849 71.2031 117.456 71.4219 117.867V118H69.1406ZM67.2734 116.43C67.6068 116.43 67.9141 116.357 68.1953 116.211C68.4766 116.06 68.6849 115.859 68.8203 115.609V114.156H67.9766C66.8464 114.156 66.2448 114.547 66.1719 115.328L66.1641 115.461C66.1641 115.742 66.263 115.974 66.4609 116.156C66.6589 116.339 66.9297 116.43 67.2734 116.43ZM75.2031 118H72.9375V109.547H75.2031V118ZM72.8047 107.359C72.8047 107.021 72.9167 106.742 73.1406 106.523C73.3698 106.305 73.6797 106.195 74.0703 106.195C74.4557 106.195 74.763 106.305 74.9922 106.523C75.2214 106.742 75.3359 107.021 75.3359 107.359C75.3359 107.703 75.2188 107.984 74.9844 108.203C74.7552 108.422 74.4505 108.531 74.0703 108.531C73.6901 108.531 73.3828 108.422 73.1484 108.203C72.9193 107.984 72.8047 107.703 72.8047 107.359ZM79.1484 109.547L79.2188 110.523C79.8229 109.768 80.6328 109.391 81.6484 109.391C82.5443 109.391 83.2109 109.654 83.6484 110.18C84.0859 110.706 84.3099 111.492 84.3203 112.539V118H82.0625V112.594C82.0625 112.115 81.9583 111.768 81.75 111.555C81.5417 111.336 81.1953 111.227 80.7109 111.227C80.0755 111.227 79.599 111.497 79.2812 112.039V118H77.0234V109.547H79.1484Z" fill="#1F2432"/>
<path d="M192 68C192 86.2254 206.98 101 225.458 101C243.937 101 258.917 86.2254 258.917 68C258.917 49.7746 243.937 35 225.458 35C206.98 35 192 49.7746 192 68Z" fill="#1F2432"/>
<path d="M215.555 62.438C220.772 62.438 225 60.8235 225 58.8318C225 56.8401 220.772 55.2256 215.555 55.2256C210.338 55.2256 206.109 56.8401 206.109 58.8318C206.109 60.8235 210.338 62.438 215.555 62.438Z" stroke="white" stroke-miterlimit="10"/>
<path d="M225 64.2744C225 66.2595 220.766 67.8806 215.555 67.8806C210.344 67.8806 206.109 66.2595 206.109 64.2744" stroke="white" stroke-miterlimit="10"/>
<path d="M225 69.7012C225 71.6862 220.766 73.3074 215.555 73.3074C210.344 73.3074 206.109 71.7028 206.109 69.7012" stroke="white" stroke-miterlimit="10"/>
<path d="M225 75.1426C225 77.1277 220.766 78.7488 215.555 78.7488C210.344 78.7488 206.109 77.1277 206.109 75.1426" stroke="white" stroke-miterlimit="10"/>
<path d="M212.13 64.8057H213.503" stroke="white" stroke-miterlimit="10"/>
<path d="M214.876 64.8057H216.233" stroke="white" stroke-miterlimit="10"/>
<path d="M217.606 64.8057H218.979" stroke="white" stroke-miterlimit="10"/>
<path d="M212.13 70.2812H213.503" stroke="white" stroke-miterlimit="10"/>
<path d="M214.876 70.2812H216.233" stroke="white" stroke-miterlimit="10"/>
<path d="M217.606 70.2812H218.979" stroke="white" stroke-miterlimit="10"/>
<path d="M212.13 75.7568H213.503" stroke="white" stroke-miterlimit="10"/>
<path d="M214.876 75.7568H216.233" stroke="white" stroke-miterlimit="10"/>
<path d="M217.606 75.7568H218.979" stroke="white" stroke-miterlimit="10"/>
<path d="M206.109 58.832V75.1427" stroke="white" stroke-miterlimit="10"/>
<path d="M225 58.832V75.1427" stroke="white" stroke-miterlimit="10"/>
<path d="M231.998 56.0186H229.268V73.024V79.0454H231.998" stroke="white" stroke-miterlimit="10"/>
<path d="M226.522 73.0254H229.268" stroke="white" stroke-miterlimit="10"/>
<path d="M231.998 67.5498H229.268" stroke="white" stroke-miterlimit="10"/>
<path d="M226.522 62.0566H229.268" stroke="white" stroke-miterlimit="10"/>
<path d="M245.017 59.5097H234V52.4131H245.017V56.0193V59.5097Z" stroke="white" stroke-miterlimit="10"/>
<path d="M241.593 56.0195H245.017" stroke="white" stroke-miterlimit="10"/>
<path d="M238.846 56.0195H240.22" stroke="white" stroke-miterlimit="10"/>
<path d="M236.117 56.0195H237.49" stroke="white" stroke-miterlimit="10"/>
<path d="M245.05 71.0898H234.033V63.9932H245.05V67.6159V71.0898Z" stroke="white" stroke-miterlimit="10"/>
<path d="M241.625 67.6162H245.05" stroke="white" stroke-miterlimit="10"/>
<path d="M238.879 67.6162H240.252" stroke="white" stroke-miterlimit="10"/>
<path d="M236.133 67.6162H237.506" stroke="white" stroke-miterlimit="10"/>
<path d="M245.05 82.6679H234.033V75.5713H245.05V79.1941V82.6679Z" stroke="white" stroke-miterlimit="10"/>
<path d="M241.625 79.1943H245.05" stroke="white" stroke-miterlimit="10"/>
<path d="M238.879 79.1943H240.252" stroke="white" stroke-miterlimit="10"/>
<path d="M236.133 79.1943H237.506" stroke="white" stroke-miterlimit="10"/>
<path d="M101 68C101 86.2254 115.775 101 134 101C152.225 101 167 86.2254 167 68C167 49.7746 152.225 35 134 35C115.775 35 101 49.7746 101 68Z" fill="#00DCE6" fill-opacity="0.2"/>
<path d="M110.991 72H109.678V62.0469H110.991V72ZM114.395 64.6035L114.436 65.5332C115.001 64.8223 115.739 64.4668 116.651 64.4668C118.214 64.4668 119.002 65.3486 119.016 67.1123V72H117.751V67.1055C117.747 66.5723 117.624 66.1781 117.382 65.9229C117.145 65.6676 116.774 65.54 116.268 65.54C115.858 65.54 115.498 65.6494 115.188 65.8682C114.878 66.0869 114.636 66.374 114.463 66.7295V72H113.199V64.6035H114.395ZM120.616 68.2402C120.616 67.1055 120.885 66.194 121.422 65.5059C121.96 64.8132 122.664 64.4668 123.535 64.4668C124.4 64.4668 125.086 64.763 125.592 65.3555V61.5H126.857V72H125.695L125.633 71.207C125.127 71.8268 124.423 72.1367 123.521 72.1367C122.664 72.1367 121.965 71.7858 121.422 71.084C120.885 70.3822 120.616 69.4661 120.616 68.3359V68.2402ZM121.88 68.3838C121.88 69.2223 122.053 69.8786 122.4 70.3525C122.746 70.8265 123.225 71.0635 123.835 71.0635C124.637 71.0635 125.223 70.7035 125.592 69.9834V66.5859C125.214 65.8887 124.633 65.54 123.849 65.54C123.229 65.54 122.746 65.7793 122.4 66.2578C122.053 66.7363 121.88 67.445 121.88 68.3838ZM131.895 72.1367C130.892 72.1367 130.077 71.8086 129.448 71.1523C128.819 70.4915 128.504 69.6097 128.504 68.5068V68.2744C128.504 67.5407 128.643 66.8867 128.921 66.3125C129.204 65.7337 129.596 65.2826 130.097 64.959C130.603 64.6309 131.15 64.4668 131.738 64.4668C132.699 64.4668 133.447 64.7835 133.98 65.417C134.513 66.0505 134.78 66.9574 134.78 68.1377V68.6641H129.769C129.787 69.3932 129.999 69.9834 130.405 70.4346C130.815 70.8812 131.334 71.1045 131.963 71.1045C132.41 71.1045 132.788 71.0133 133.098 70.8311C133.408 70.6488 133.679 70.4072 133.912 70.1064L134.684 70.708C134.064 71.6605 133.135 72.1367 131.895 72.1367ZM131.738 65.5059C131.227 65.5059 130.799 65.6927 130.453 66.0664C130.106 66.4355 129.892 66.9551 129.81 67.625H133.515V67.5293C133.479 66.8867 133.305 66.39 132.996 66.0391C132.686 65.6836 132.266 65.5059 131.738 65.5059ZM138.731 67.3037L140.371 64.6035H141.848L139.428 68.2607L141.923 72H140.46L138.751 69.2314L137.042 72H135.573L138.068 68.2607L135.648 64.6035H137.111L138.731 67.3037ZM144.569 72H143.304V64.6035H144.569V72ZM143.202 62.6416C143.202 62.4365 143.263 62.2633 143.386 62.1221C143.514 61.9808 143.701 61.9102 143.947 61.9102C144.193 61.9102 144.38 61.9808 144.507 62.1221C144.635 62.2633 144.699 62.4365 144.699 62.6416C144.699 62.8467 144.635 63.0176 144.507 63.1543C144.38 63.291 144.193 63.3594 143.947 63.3594C143.701 63.3594 143.514 63.291 143.386 63.1543C143.263 63.0176 143.202 62.8467 143.202 62.6416ZM147.795 64.6035L147.836 65.5332C148.401 64.8223 149.14 64.4668 150.051 64.4668C151.614 64.4668 152.403 65.3486 152.416 67.1123V72H151.152V67.1055C151.147 66.5723 151.024 66.1781 150.783 65.9229C150.546 65.6676 150.174 65.54 149.668 65.54C149.258 65.54 148.898 65.6494 148.588 65.8682C148.278 66.0869 148.037 66.374 147.864 66.7295V72H146.599V64.6035H147.795ZM154.023 68.2402C154.023 67.0872 154.289 66.1712 154.823 65.4922C155.356 64.8086 156.062 64.4668 156.942 64.4668C157.844 64.4668 158.548 64.7858 159.054 65.4238L159.116 64.6035H160.271V71.8223C160.271 72.7793 159.986 73.5335 159.416 74.085C158.851 74.6364 158.09 74.9121 157.133 74.9121C156.6 74.9121 156.078 74.7982 155.568 74.5703C155.057 74.3424 154.668 74.0303 154.399 73.6338L155.055 72.875C155.597 73.5449 156.26 73.8799 157.044 73.8799C157.66 73.8799 158.138 73.7067 158.48 73.3604C158.826 73.014 158.999 72.5264 158.999 71.8975V71.2617C158.494 71.8451 157.803 72.1367 156.928 72.1367C156.062 72.1367 155.36 71.7881 154.823 71.0908C154.289 70.3936 154.023 69.4434 154.023 68.2402ZM155.294 68.3838C155.294 69.2178 155.465 69.874 155.807 70.3525C156.149 70.8265 156.627 71.0635 157.243 71.0635C158.04 71.0635 158.626 70.7012 158.999 69.9766V66.5996C158.612 65.8932 158.031 65.54 157.256 65.54C156.641 65.54 156.16 65.7793 155.814 66.2578C155.468 66.7363 155.294 67.445 155.294 68.3838Z" fill="#1F2432"/>
<path d="M11 68C11 86.2254 25.7746 101 44 101C62.2254 101 77 86.2254 77 68C77 49.7746 62.2254 35 44 35C25.7746 35 11 49.7746 11 68Z" fill="#1F2432"/>
<path d="M35.0504 72.4987L34.7929 72.0702L34.5504 72.2159V72.4987H35.0504ZM44.3434 66.9134L44.601 66.4848L44.3434 66.33L44.0859 66.4848L44.3434 66.9134ZM53.6364 72.4987H54.1364V72.2159L53.894 72.0702L53.6364 72.4987ZM44.3433 87.8626L44.0823 88.2891L44.3433 88.4488L44.6042 88.2891L44.3433 87.8626ZM35.0503 82.1778L34.7927 81.7493L34.0859 82.174L34.7893 82.6043L35.0503 82.1778ZM53.6363 82.1778L53.8972 82.6043L54.6006 82.174L53.8938 81.7493L53.6363 82.1778ZM44.3433 78.1172L44.084 78.5448L44.3433 78.702L44.6025 78.5448L44.3433 78.1172ZM35.0504 53.3451L34.7929 52.9166L34.5504 53.0623V53.3451H35.0504ZM44.3434 47.7598L44.601 47.3312L44.3434 47.1764L44.0859 47.3312L44.3434 47.7598ZM53.6364 53.3451H54.1364V53.0623L53.894 52.9166L53.6364 53.3451ZM44.3433 68.709L44.0823 69.1356L44.3433 69.2952L44.6042 69.1356L44.3433 68.709ZM35.0503 63.0242L34.7927 62.5957L34.0859 63.0205L34.7893 63.4508L35.0503 63.0242ZM53.6363 63.0242L53.8972 63.4508L54.6006 63.0205L53.8938 62.5957L53.6363 63.0242ZM44.3433 58.9636L44.084 59.3912L44.3433 59.5484L44.6025 59.3912L44.3433 58.9636ZM20.4915 63.2212L20.2339 62.7927L19.9915 62.9384V63.2212H20.4915ZM29.7845 57.6359L30.042 57.2073L29.7845 57.0525L29.5269 57.2073L29.7845 57.6359ZM39.0775 63.2212H39.5775V62.9384L39.335 62.7927L39.0775 63.2212ZM29.7845 78.5851L29.5235 79.0116L29.7845 79.1712L30.0454 79.0116L29.7845 78.5851ZM20.4915 72.9003L20.2339 72.4717L19.5271 72.8965L20.2305 73.3268L20.4915 72.9003ZM39.0775 72.9003L39.3384 73.3268L40.0418 72.8965L39.335 72.4717L39.0775 72.9003ZM29.7845 68.8397L29.5252 69.2673L29.7845 69.4245L30.0437 69.2673L29.7845 68.8397ZM49.2997 63.2212L49.0422 62.7927L48.7997 62.9384V63.2212H49.2997ZM58.5927 57.6359L58.8503 57.2073L58.5927 57.0525L58.3352 57.2073L58.5927 57.6359ZM67.8857 63.2212H68.3857V62.9384L68.1433 62.7927L67.8857 63.2212ZM58.5926 78.5851L58.3316 79.0116L58.5926 79.1712L58.8535 79.0116L58.5926 78.5851ZM49.2996 72.9003L49.042 72.4717L48.3352 72.8965L49.0387 73.3268L49.2996 72.9003ZM67.8856 72.9003L68.1465 73.3268L68.8499 72.8965L68.1431 72.4717L67.8856 72.9003ZM58.5926 68.8397L58.3333 69.2673L58.5926 69.4245L58.8518 69.2673L58.5926 68.8397ZM35.5504 82.1612V72.4987H34.5504V82.1612H35.5504ZM35.308 72.9273L44.601 67.3419L44.0859 66.4848L34.7929 72.0702L35.308 72.9273ZM44.0859 67.3419L53.3789 72.9273L53.894 72.0702L44.601 66.4848L44.0859 67.3419ZM53.1364 72.4987V82.1612H54.1364V72.4987H53.1364ZM44.6042 87.4361L35.3112 81.7513L34.7893 82.6043L44.0823 88.2891L44.6042 87.4361ZM35.3078 82.6064L44.6008 77.021L44.0857 76.1639L34.7927 81.7493L35.3078 82.6064ZM44.0857 77.021L53.3787 82.6064L53.8938 81.7493L44.6008 76.1639L44.0857 77.021ZM53.3753 81.7513L44.0823 87.4361L44.6042 88.2891L53.8972 82.6043L53.3753 81.7513ZM53.377 72.0546L44.084 77.6897L44.6025 78.5448L53.8955 72.9097L53.377 72.0546ZM44.6025 77.6897L35.3095 72.0546L34.791 72.9097L44.084 78.5448L44.6025 77.6897ZM43.8434 66.9134L43.8433 76.5924L44.8433 76.5925L44.8434 66.9134L43.8434 66.9134ZM43.8431 78.1835L43.8433 87.8626L44.8433 87.8626L44.8431 78.1835L43.8431 78.1835ZM35.5504 63.0076V53.3451H34.5504V63.0076H35.5504ZM35.308 53.7737L44.601 48.1883L44.0859 47.3312L34.7929 52.9166L35.308 53.7737ZM44.0859 48.1883L53.3789 53.7737L53.894 52.9166L44.601 47.3312L44.0859 48.1883ZM53.1364 53.3451V63.0076H54.1364V53.3451H53.1364ZM44.6042 68.2825L35.3112 62.5977L34.7893 63.4508L44.0823 69.1356L44.6042 68.2825ZM35.3078 63.4528L44.6008 57.8674L44.0857 57.0103L34.7927 62.5957L35.3078 63.4528ZM44.0857 57.8674L53.3787 63.4528L53.8938 62.5957L44.6008 57.0103L44.0857 57.8674ZM53.3753 62.5977L44.0823 68.2825L44.6042 69.1356L53.8972 63.4508L53.3753 62.5977ZM53.377 52.901L44.084 58.5361L44.6025 59.3912L53.8955 53.7561L53.377 52.901ZM44.6025 58.5361L35.3095 52.901L34.791 53.7561L44.084 59.3912L44.6025 58.5361ZM43.8434 47.7598L43.8433 57.4389L44.8433 57.4389L44.8434 47.7598L43.8434 47.7598ZM43.8431 59.03L43.8433 68.709L44.8433 68.709L44.8431 59.0299L43.8431 59.03ZM20.9915 72.8837V63.2212H19.9915V72.8837H20.9915ZM20.749 63.6498L30.042 58.0644L29.5269 57.2073L20.2339 62.7927L20.749 63.6498ZM29.5269 58.0644L38.8199 63.6498L39.335 62.7927L30.042 57.2073L29.5269 58.0644ZM38.5775 63.2212V72.8837H39.5775V63.2212H38.5775ZM30.0454 78.1586L20.7524 72.4738L20.2305 73.3268L29.5235 79.0116L30.0454 78.1586ZM20.749 73.3288L30.042 67.7435L29.5269 66.8864L20.2339 72.4717L20.749 73.3288ZM29.5269 67.7435L38.8199 73.3288L39.335 72.4717L30.042 66.8864L29.5269 67.7435ZM38.8165 72.4738L29.5235 78.1586L30.0454 79.0116L39.3384 73.3268L38.8165 72.4738ZM38.8182 62.7771L29.5252 68.4122L30.0437 69.2673L39.3367 63.6322L38.8182 62.7771ZM30.0437 68.4122L20.7507 62.7771L20.2322 63.6322L29.5252 69.2673L30.0437 68.4122ZM29.2845 57.6359V67.3149H30.2845V57.6359H29.2845ZM29.2843 68.906L29.2845 78.5851L30.2845 78.5851L30.2843 68.906L29.2843 68.906ZM49.7997 72.8837V63.2212H48.7997V72.8837H49.7997ZM49.5573 63.6498L58.8503 58.0644L58.3352 57.2073L49.0422 62.7927L49.5573 63.6498ZM58.3352 58.0644L67.6282 63.6498L68.1433 62.7927L58.8503 57.2073L58.3352 58.0644ZM67.3857 63.2212V72.8837H68.3857V63.2212H67.3857ZM58.8535 78.1586L49.5605 72.4738L49.0387 73.3268L58.3316 79.0116L58.8535 78.1586ZM49.5571 73.3288L58.8501 67.7435L58.335 66.8864L49.042 72.4717L49.5571 73.3288ZM58.335 67.7435L67.628 73.3288L68.1431 72.4717L58.8501 66.8864L58.335 67.7435ZM67.6246 72.4738L58.3316 78.1586L58.8535 79.0116L68.1465 73.3268L67.6246 72.4738ZM67.6263 62.7771L58.3333 68.4122L58.8518 69.2673L68.1448 63.6322L67.6263 62.7771ZM58.8518 68.4122L49.5588 62.7771L49.0403 63.6322L58.3333 69.2673L58.8518 68.4122ZM58.0927 57.6359L58.0926 67.3149L59.0926 67.3149L59.0927 57.6359L58.0927 57.6359ZM58.0924 68.906L58.0926 78.5851L59.0926 78.5851L59.0924 68.906L58.0924 68.906Z" fill="white"/>
<path d="M167 68C176.763 68 182.237 68 192 68" stroke="#00DCE6" stroke-miterlimit="16" stroke-dasharray="1 1"/>
<path d="M199 68C199 64.134 195.866 61 192 61C188.134 61 185 64.134 185 68C185 71.866 188.134 75 192 75C195.866 75 199 71.866 199 68Z" fill="#00DCE6" fill-opacity="0.2"/>
<path d="M195 68C195 66.3431 193.657 65 192 65C190.343 65 189 66.3431 189 68C189 69.6569 190.343 71 192 71C193.657 71 195 69.6569 195 68Z" fill="#00DCE6"/>
<path d="M101 68C91.6274 68 86.3726 68 77 68" stroke="#00DCE6" stroke-miterlimit="16" stroke-dasharray="1 1"/>
<path d="M70 68C70 71.866 73.134 75 77 75C80.866 75 84 71.866 84 68C84 64.134 80.866 61 77 61C73.134 61 70 64.134 70 68Z" fill="#00DCE6" fill-opacity="0.2"/>
<path d="M74 68C74 69.6569 75.3431 71 77 71C78.6569 71 80 69.6569 80 68C80 66.3431 78.6569 65 77 65C75.3431 65 74 66.3431 74 68Z" fill="#00DCE6"/>
<path d="M225 35L225 20C154.706 20 115.294 20 45 20L45 35" stroke="#00DCE6" stroke-width="2"/>
<path d="M225 128L225 143C154.706 143 115.294 143 45 143L45 128" stroke="#00DCE6" stroke-width="2"/>
</svg>
