<?xml version="1.0" encoding="utf-8"?>
<!-- Generator: Adobe Illustrator 15.0.0, SVG Export Plug-In . SVG Version: 6.00 Build 0)  -->
<!DOCTYPE svg PUBLIC "-//W3C//DTD SVG 1.1//EN" "http://www.w3.org/Graphics/SVG/1.1/DTD/svg11.dtd">
<svg version="1.1" id="图层_1" xmlns="http://www.w3.org/2000/svg" xmlns:xlink="http://www.w3.org/1999/xlink" x="0px" y="0px"
	 width="270px" height="163px" viewBox="0 0 270 163" enable-background="new 0 0 270 163" xml:space="preserve">
<path fill="#00DCE6" d="M134,0v20h2V0H134z"/>
<path fill="#00DCE6" d="M134,143v20h2v-20H134z"/>
<path fill="#1F2432" d="M192,68c0,18.226,14.98,33,33.458,33c18.479,0,33.459-14.774,33.459-33s-14.979-33-33.459-33
	C206.98,35,192,49.774,192,68z"/>
<path fill="none" stroke="#FFFFFF" stroke-miterlimit="10" d="M215.555,62.438c5.217,0,9.445-1.615,9.445-3.606
	c0-1.992-4.229-3.606-9.445-3.606s-9.445,1.614-9.445,3.606C206.109,60.823,210.338,62.438,215.555,62.438z"/>
<path fill="none" stroke="#FFFFFF" stroke-miterlimit="10" d="M225,64.274c0,1.985-4.234,3.606-9.445,3.606
	s-9.445-1.621-9.445-3.606"/>
<path fill="none" stroke="#FFFFFF" stroke-miterlimit="10" d="M225,69.701c0,1.985-4.234,3.606-9.445,3.606
	s-9.445-1.605-9.445-3.606"/>
<path fill="none" stroke="#FFFFFF" stroke-miterlimit="10" d="M225,75.143c0,1.985-4.234,3.606-9.445,3.606
	s-9.445-1.621-9.445-3.606"/>
<path fill="none" stroke="#FFFFFF" stroke-miterlimit="10" d="M212.13,64.806h1.373"/>
<path fill="none" stroke="#FFFFFF" stroke-miterlimit="10" d="M214.876,64.806h1.356"/>
<path fill="none" stroke="#FFFFFF" stroke-miterlimit="10" d="M217.605,64.806h1.373"/>
<path fill="none" stroke="#FFFFFF" stroke-miterlimit="10" d="M212.13,70.281h1.373"/>
<path fill="none" stroke="#FFFFFF" stroke-miterlimit="10" d="M214.876,70.281h1.356"/>
<path fill="none" stroke="#FFFFFF" stroke-miterlimit="10" d="M217.605,70.281h1.373"/>
<path fill="none" stroke="#FFFFFF" stroke-miterlimit="10" d="M212.13,75.757h1.373"/>
<path fill="none" stroke="#FFFFFF" stroke-miterlimit="10" d="M214.876,75.757h1.356"/>
<path fill="none" stroke="#FFFFFF" stroke-miterlimit="10" d="M217.605,75.757h1.373"/>
<path fill="none" stroke="#FFFFFF" stroke-miterlimit="10" d="M206.109,58.832v16.311"/>
<path fill="none" stroke="#FFFFFF" stroke-miterlimit="10" d="M225,58.832v16.311"/>
<path fill="none" stroke="#FFFFFF" stroke-miterlimit="10" d="M231.998,56.019h-2.73v17.005v6.021h2.73"/>
<path fill="none" stroke="#FFFFFF" stroke-miterlimit="10" d="M226.521,73.025h2.746"/>
<path fill="none" stroke="#FFFFFF" stroke-miterlimit="10" d="M231.998,67.55h-2.73"/>
<path fill="none" stroke="#FFFFFF" stroke-miterlimit="10" d="M226.521,62.057h2.746"/>
<path fill="none" stroke="#FFFFFF" stroke-miterlimit="10" d="M245.018,59.51H234v-7.097h11.018v3.606V59.51z"/>
<path fill="none" stroke="#FFFFFF" stroke-miterlimit="10" d="M241.593,56.02h3.425"/>
<path fill="none" stroke="#FFFFFF" stroke-miterlimit="10" d="M238.846,56.02h1.375"/>
<path fill="none" stroke="#FFFFFF" stroke-miterlimit="10" d="M236.117,56.02h1.373"/>
<path fill="none" stroke="#FFFFFF" stroke-miterlimit="10" d="M245.05,71.09h-11.017v-7.097h11.017v3.623V71.09z"/>
<path fill="none" stroke="#FFFFFF" stroke-miterlimit="10" d="M241.625,67.616h3.425"/>
<path fill="none" stroke="#FFFFFF" stroke-miterlimit="10" d="M238.879,67.616h1.373"/>
<path fill="none" stroke="#FFFFFF" stroke-miterlimit="10" d="M236.133,67.616h1.373"/>
<path fill="none" stroke="#FFFFFF" stroke-miterlimit="10" d="M245.05,82.668h-11.017v-7.097h11.017v3.623V82.668z"/>
<path fill="none" stroke="#FFFFFF" stroke-miterlimit="10" d="M241.625,79.194h3.425"/>
<path fill="none" stroke="#FFFFFF" stroke-miterlimit="10" d="M238.879,79.194h1.373"/>
<path fill="none" stroke="#FFFFFF" stroke-miterlimit="10" d="M236.133,79.194h1.373"/>
<path fill="#00DCE6" fill-opacity="0.2" d="M101,68c0,18.226,14.775,33,33,33c18.225,0,33-14.774,33-33s-14.775-33-33-33
	C115.775,35,101,49.774,101,68z"/>
<path fill="#1F2432" d="M11,68c0,18.226,14.774,33,33,33s33-14.774,33-33S62.226,35,44,35S11,49.774,11,68z"/>
<path fill="#FFFFFF" d="M35.05,72.499l-0.257-0.428l-0.243,0.146v0.283H35.05z M44.343,66.914l0.258-0.429l-0.258-0.155
	l-0.257,0.155L44.343,66.914z M53.636,72.499h0.5v-0.283l-0.242-0.146L53.636,72.499z M44.343,87.863l-0.261,0.426l0.261,0.16
	l0.261-0.16L44.343,87.863z M35.05,82.178l-0.258-0.429l-0.707,0.425l0.703,0.431L35.05,82.178z M53.636,82.178l0.261,0.427
	l0.704-0.431l-0.707-0.425L53.636,82.178z M44.343,78.117l-0.259,0.428l0.259,0.157l0.259-0.157L44.343,78.117z M35.05,53.345
	l-0.257-0.429l-0.243,0.146v0.283H35.05z M44.343,47.76l0.258-0.429l-0.258-0.155l-0.257,0.155L44.343,47.76z M53.636,53.345h0.5
	v-0.283l-0.242-0.146L53.636,53.345z M44.343,68.709l-0.261,0.427l0.261,0.159l0.261-0.159L44.343,68.709z M35.05,63.024
	l-0.258-0.429l-0.707,0.425l0.703,0.43L35.05,63.024z M53.636,63.024l0.261,0.426l0.704-0.43l-0.707-0.425L53.636,63.024z
	 M44.343,58.964l-0.259,0.427l0.259,0.157l0.259-0.157L44.343,58.964z M20.492,63.221l-0.258-0.428l-0.242,0.146v0.283H20.492z
	 M29.785,57.636l0.257-0.429l-0.257-0.154l-0.258,0.154L29.785,57.636z M39.078,63.221h0.5v-0.283l-0.243-0.146L39.078,63.221z
	 M29.785,78.585l-0.261,0.427l0.261,0.16l0.261-0.16L29.785,78.585z M20.492,72.9l-0.258-0.429l-0.707,0.425l0.703,0.43L20.492,72.9
	z M39.078,72.9l0.261,0.426l0.704-0.43l-0.707-0.425L39.078,72.9z M29.785,68.84l-0.259,0.428l0.259,0.157l0.259-0.157L29.785,68.84
	z M49.3,63.221l-0.258-0.428L48.8,62.938v0.283H49.3z M58.593,57.636l0.257-0.429l-0.257-0.154l-0.258,0.154L58.593,57.636z
	 M67.886,63.221h0.5v-0.283l-0.243-0.146L67.886,63.221z M58.593,78.585l-0.261,0.427l0.261,0.16l0.261-0.16L58.593,78.585z
	 M49.3,72.9l-0.258-0.429l-0.707,0.425l0.704,0.43L49.3,72.9z M67.886,72.9l0.261,0.426l0.704-0.43l-0.707-0.425L67.886,72.9z
	 M58.593,68.84l-0.259,0.428l0.259,0.157l0.259-0.157L58.593,68.84z M35.55,82.161v-9.663h-1v9.663H35.55z M35.308,72.927
	l9.293-5.585l-0.515-0.857l-9.293,5.585L35.308,72.927z M44.086,67.342l9.293,5.585l0.515-0.857l-9.293-5.585L44.086,67.342z
	 M53.136,72.499v9.663h1v-9.663H53.136z M44.604,87.436l-9.293-5.684l-0.522,0.853l9.293,5.685L44.604,87.436z M35.308,82.606
	l9.293-5.585l-0.515-0.857l-9.293,5.585L35.308,82.606z M44.086,77.021l9.293,5.585l0.515-0.857l-9.293-5.585L44.086,77.021z
	 M53.375,81.751l-9.293,5.684l0.521,0.854l9.293-5.685L53.375,81.751z M53.377,72.055l-9.293,5.635l0.519,0.855l9.293-5.635
	L53.377,72.055z M44.603,77.689l-9.293-5.635l-0.519,0.855l9.293,5.635L44.603,77.689z M43.843,66.914v9.679l1,0v-9.679H43.843z
	 M43.843,78.184v9.68h1v-9.68H43.843z M35.55,63.008v-9.663h-1v9.663H35.55z M35.308,53.773l9.293-5.585l-0.515-0.857l-9.293,5.585
	L35.308,53.773z M44.086,48.188l9.293,5.585l0.515-0.857l-9.293-5.585L44.086,48.188z M53.136,53.345v9.663h1v-9.663H53.136z
	 M44.604,68.282l-9.293-5.685l-0.522,0.853l9.293,5.685L44.604,68.282z M35.308,63.453l9.293-5.585l-0.515-0.857l-9.293,5.585
	L35.308,63.453z M44.086,57.867l9.293,5.585l0.515-0.857l-9.293-5.585L44.086,57.867z M53.375,62.598l-9.293,5.685l0.521,0.854
	l9.293-5.685L53.375,62.598z M53.377,52.901l-9.293,5.635l0.519,0.855l9.293-5.635L53.377,52.901z M44.603,58.536l-9.293-5.635
	l-0.519,0.855l9.293,5.635L44.603,58.536z M43.843,47.76v9.679h1V47.76H43.843z M43.843,59.03v9.679h1V59.03L43.843,59.03z
	 M20.992,72.884v-9.663h-1v9.663H20.992z M20.749,63.65l9.293-5.585l-0.515-0.857l-9.293,5.586L20.749,63.65z M29.527,58.064
	l9.293,5.585l0.515-0.857l-9.293-5.586L29.527,58.064z M38.578,63.221v9.663h1v-9.663H38.578z M30.045,78.159l-9.293-5.685
	l-0.522,0.853l9.293,5.685L30.045,78.159z M20.749,73.329l9.293-5.585l-0.515-0.857l-9.293,5.585L20.749,73.329z M29.527,67.744
	l9.293,5.585l0.515-0.857l-9.293-5.585L29.527,67.744z M38.816,72.474l-9.293,5.685l0.522,0.853l9.293-5.685L38.816,72.474z
	 M38.818,62.777l-9.293,5.635l0.518,0.855l9.293-5.635L38.818,62.777z M30.043,68.412l-9.293-5.635l-0.518,0.855l9.293,5.635
	L30.043,68.412z M29.285,57.636v9.679h1v-9.679H29.285z M29.284,68.906l0,9.679h1l0-9.679H29.284z M49.8,72.884v-9.663h-1v9.663
	H49.8z M49.557,63.65l9.293-5.585l-0.515-0.857l-9.293,5.586L49.557,63.65z M58.335,58.064l9.293,5.585l0.515-0.857l-9.293-5.586
	L58.335,58.064z M67.386,63.221v9.663h1v-9.663H67.386z M58.854,78.159l-9.293-5.685l-0.522,0.853l9.293,5.685L58.854,78.159z
	 M49.557,73.329l9.293-5.585l-0.515-0.857l-9.293,5.585L49.557,73.329z M58.335,67.744l9.293,5.585l0.515-0.857l-9.293-5.585
	L58.335,67.744z M67.625,72.474l-9.293,5.685l0.522,0.853l9.293-5.685L67.625,72.474z M67.626,62.777l-9.293,5.635l0.518,0.855
	l9.293-5.635L67.626,62.777z M58.852,68.412l-9.293-5.635l-0.518,0.855l9.293,5.635L58.852,68.412z M58.093,57.636v9.679h1v-9.679
	H58.093z M58.092,68.906l0,9.679h1l0-9.679H58.092z"/>
<path fill="none" stroke="#00DCE6" stroke-miterlimit="16" stroke-dasharray="1,1" d="M167,68c9.764,0,15.236,0,25,0"/>
<path fill="#00DCE6" fill-opacity="0.2" d="M199,68c0-3.866-3.134-7-7-7s-7,3.134-7,7s3.134,7,7,7S199,71.866,199,68z"/>
<path fill="#00DCE6" d="M195,68c0-1.657-1.343-3-3-3s-3,1.343-3,3s1.343,3,3,3S195,69.657,195,68z"/>
<path fill="none" stroke="#00DCE6" stroke-miterlimit="16" stroke-dasharray="1,1" d="M101,68c-9.373,0-14.627,0-24,0"/>
<path fill="#00DCE6" fill-opacity="0.2" d="M70,68c0,3.866,3.134,7,7,7s7-3.134,7-7s-3.134-7-7-7S70,64.134,70,68z"/>
<path fill="#00DCE6" d="M74,68c0,1.657,1.343,3,3,3s3-1.343,3-3s-1.343-3-3-3S74,66.343,74,68z"/>
<path fill="none" stroke="#00DCE6" stroke-width="2" d="M225,35V20c-70.294,0-109.706,0-180,0v15"/>
<path fill="none" stroke="#00DCE6" stroke-width="2" d="M225,128v15c-70.294,0-109.706,0-180,0v-15"/>
<text transform="matrix(1 0 0 1 21.5 118)" font-family="'MicrosoftYaHeiLight'" font-size="15">区块链</text>
<text transform="matrix(1 0 0 1 201.5 119)" font-family="'MicrosoftYaHeiLight'" font-size="15">数据湖</text>
<text transform="matrix(1 0 0 1 110.5 72)" font-family="'MicrosoftYaHeiLight'" font-size="12">编排索引</text>
</svg>
