<svg width="332" height="131" viewBox="0 0 332 131" fill="none" xmlns="http://www.w3.org/2000/svg">
<path d="M165 4.37114e-08L165 20L167 20L167 -4.37114e-08L165 4.37114e-08Z" fill="#00DCE6"/>
<rect x="1" y="20" width="330" height="110" stroke="#00DCE6" stroke-miterlimit="16"/>
<path d="M30.8047 44.1035V48H29.4922V38.0469H33.1631C34.2523 38.0469 35.1045 38.3249 35.7198 38.8809C36.3395 39.4368 36.6494 40.1729 36.6494 41.0889C36.6494 42.055 36.3464 42.8001 35.7403 43.3242C35.1387 43.8438 34.2751 44.1035 33.1494 44.1035H30.8047ZM30.8047 43.0303H33.1631C33.8649 43.0303 34.4027 42.8662 34.7764 42.5381C35.1501 42.2054 35.3369 41.7269 35.3369 41.1025C35.3369 40.5101 35.1501 40.0361 34.7764 39.6807C34.4027 39.3252 33.89 39.1406 33.2383 39.127H30.8047V43.0303ZM41.7012 41.7383C41.5098 41.7064 41.3024 41.6904 41.0791 41.6904C40.2497 41.6904 39.6869 42.0436 39.3907 42.75V48H38.126V40.6035H39.3565L39.377 41.458C39.7917 40.7972 40.3796 40.4668 41.1407 40.4668C41.3867 40.4668 41.5736 40.4987 41.7012 40.5625V41.7383ZM42.3985 44.2334C42.3985 43.5088 42.5397 42.8571 42.8223 42.2783C43.1094 41.6995 43.5059 41.2529 44.0117 40.9385C44.5222 40.624 45.1032 40.4668 45.7549 40.4668C46.7621 40.4668 47.5756 40.8154 48.1953 41.5127C48.8197 42.21 49.1319 43.1374 49.1319 44.2949V44.3838C49.1319 45.1038 48.9929 45.751 48.7149 46.3252C48.4414 46.8949 48.0472 47.3392 47.5323 47.6582C47.0218 47.9772 46.4339 48.1367 45.7686 48.1367C44.766 48.1367 43.9525 47.7881 43.3282 47.0908C42.7084 46.3936 42.3985 45.4707 42.3985 44.3223V44.2334ZM43.67 44.3838C43.67 45.2041 43.8591 45.8626 44.2373 46.3594C44.6201 46.8561 45.1306 47.1045 45.7686 47.1045C46.4112 47.1045 46.9216 46.8538 47.2998 46.3525C47.6781 45.8467 47.8672 45.1403 47.8672 44.2334C47.8672 43.4222 47.6735 42.766 47.2862 42.2646C46.9034 41.7588 46.3929 41.5059 45.7549 41.5059C45.1306 41.5059 44.627 41.7542 44.2442 42.251C43.8614 42.7477 43.67 43.4587 43.67 44.3838ZM53.0489 46.2842L54.8809 40.6035H56.1729L53.5205 48H52.5567L49.877 40.6035H51.169L53.0489 46.2842ZM58.7637 48H57.4991V40.6035H58.7637V48ZM57.3965 38.6416C57.3965 38.4365 57.458 38.2633 57.5811 38.1221C57.7087 37.9808 57.8955 37.9102 58.1416 37.9102C58.3877 37.9102 58.5746 37.9808 58.7022 38.1221C58.8298 38.2633 58.8936 38.4365 58.8936 38.6416C58.8936 38.8467 58.8298 39.0176 58.7022 39.1543C58.5746 39.291 58.3877 39.3594 58.1416 39.3594C57.8955 39.3594 57.7087 39.291 57.5811 39.1543C57.458 39.0176 57.3965 38.8467 57.3965 38.6416ZM60.4864 44.2402C60.4864 43.1055 60.7552 42.194 61.293 41.5059C61.8308 40.8132 62.5349 40.4668 63.4053 40.4668C64.2712 40.4668 64.9571 40.763 65.4629 41.3555V37.5H66.7276V48H65.5655L65.5039 47.207C64.9981 47.8268 64.294 48.1367 63.3916 48.1367C62.5349 48.1367 61.8353 47.7858 61.293 47.084C60.7552 46.3822 60.4864 45.4661 60.4864 44.3359V44.2402ZM61.751 44.3838C61.751 45.2223 61.9242 45.8786 62.2705 46.3525C62.6169 46.8265 63.0954 47.0635 63.7061 47.0635C64.5082 47.0635 65.0938 46.7035 65.4629 45.9834V42.5859C65.0847 41.8887 64.5036 41.54 63.7198 41.54C63.1 41.54 62.6169 41.7793 62.2705 42.2578C61.9242 42.7363 61.751 43.445 61.751 44.3838ZM71.7657 48.1367C70.7631 48.1367 69.9473 47.8086 69.3184 47.1523C68.6895 46.4915 68.375 45.6097 68.375 44.5068V44.2744C68.375 43.5407 68.514 42.8867 68.792 42.3125C69.0746 41.7337 69.4665 41.2826 69.9678 40.959C70.4737 40.6309 71.0205 40.4668 71.6084 40.4668C72.57 40.4668 73.3174 40.7835 73.8506 41.417C74.3838 42.0505 74.6504 42.9574 74.6504 44.1377V44.6641H69.6397C69.6579 45.3932 69.8698 45.9834 70.2754 46.4346C70.6856 46.8812 71.2051 47.1045 71.834 47.1045C72.2806 47.1045 72.6589 47.0133 72.9688 46.8311C73.2787 46.6488 73.5498 46.4072 73.7823 46.1064L74.5547 46.708C73.9349 47.6605 73.0052 48.1367 71.7657 48.1367ZM71.6084 41.5059C71.098 41.5059 70.6696 41.6927 70.3233 42.0664C69.9769 42.4355 69.7627 42.9551 69.6807 43.625H73.3858V43.5293C73.3493 42.8867 73.1761 42.39 72.8662 42.0391C72.5563 41.6836 72.1371 41.5059 71.6084 41.5059ZM79.6953 41.7383C79.5039 41.7064 79.2966 41.6904 79.0733 41.6904C78.2438 41.6904 77.681 42.0436 77.3848 42.75V48H76.1201V40.6035H77.3506L77.3711 41.458C77.7858 40.7972 78.3737 40.4668 79.1348 40.4668C79.3809 40.4668 79.5677 40.4987 79.6953 40.5625V41.7383ZM85.1709 46.0381C85.1709 45.6963 85.041 45.432 84.7813 45.2451C84.5261 45.0537 84.0772 44.8896 83.4346 44.7529C82.7966 44.6162 82.2884 44.4521 81.9102 44.2607C81.5365 44.0693 81.2585 43.8415 81.0762 43.5771C80.8985 43.3128 80.8096 42.9984 80.8096 42.6338C80.8096 42.0277 81.0648 41.515 81.5752 41.0957C82.0902 40.6764 82.7464 40.4668 83.544 40.4668C84.3825 40.4668 85.0616 40.6833 85.5811 41.1162C86.1052 41.5492 86.3672 42.1029 86.3672 42.7773H85.0957C85.0957 42.431 84.9476 42.1325 84.6514 41.8818C84.3597 41.6312 83.9906 41.5059 83.544 41.5059C83.0837 41.5059 82.7237 41.6061 82.4639 41.8066C82.2041 42.0072 82.0742 42.2692 82.0742 42.5928C82.0742 42.8981 82.195 43.1283 82.4366 43.2832C82.6781 43.4382 83.1133 43.5863 83.7422 43.7275C84.3757 43.8688 84.8884 44.0374 85.2803 44.2334C85.6722 44.4294 85.9616 44.6663 86.1485 44.9443C86.3399 45.2178 86.4356 45.5527 86.4356 45.9492C86.4356 46.61 86.1713 47.141 85.6426 47.542C85.114 47.9385 84.4281 48.1367 83.585 48.1367C82.9925 48.1367 82.4685 48.0319 82.0127 47.8223C81.557 47.6126 81.1992 47.321 80.9395 46.9473C80.6843 46.569 80.5567 46.1611 80.5567 45.7236H81.8213C81.8441 46.1475 82.0127 46.4847 82.3272 46.7354C82.6462 46.9814 83.0655 47.1045 83.585 47.1045C84.0635 47.1045 84.4463 47.0088 84.7334 46.8174C85.0251 46.6214 85.1709 46.3617 85.1709 46.0381ZM30.8047 64.1035V68H29.4922V58.0469H33.1631C34.2523 58.0469 35.1045 58.3249 35.7198 58.8809C36.3395 59.4368 36.6494 60.1729 36.6494 61.0889C36.6494 62.055 36.3464 62.8001 35.7403 63.3242C35.1387 63.8438 34.2751 64.1035 33.1494 64.1035H30.8047ZM30.8047 63.0303H33.1631C33.8649 63.0303 34.4027 62.8662 34.7764 62.5381C35.1501 62.2054 35.3369 61.7269 35.3369 61.1025C35.3369 60.5101 35.1501 60.0361 34.7764 59.6807C34.4027 59.3252 33.89 59.1406 33.2383 59.127H30.8047V63.0303ZM42.6104 68C42.5375 67.8542 42.4782 67.5944 42.4326 67.2207C41.8448 67.8314 41.1429 68.1367 40.3272 68.1367C39.598 68.1367 38.9987 67.9316 38.5293 67.5215C38.0645 67.1068 37.8321 66.5827 37.8321 65.9492C37.8321 65.179 38.1237 64.582 38.7071 64.1582C39.295 63.7298 40.1198 63.5156 41.1817 63.5156H42.4121V62.9346C42.4121 62.4925 42.28 62.1416 42.0157 61.8818C41.7513 61.6175 41.3617 61.4854 40.8467 61.4854C40.3955 61.4854 40.0173 61.5993 39.7119 61.8271C39.4066 62.055 39.2539 62.3307 39.2539 62.6543H37.9825C37.9825 62.2852 38.1123 61.9297 38.3721 61.5879C38.6364 61.2415 38.9919 60.9681 39.4385 60.7676C39.8897 60.5671 40.3841 60.4668 40.9219 60.4668C41.7741 60.4668 42.4418 60.681 42.9248 61.1094C43.4079 61.5332 43.6586 62.1188 43.6768 62.8662V66.2705C43.6768 66.9495 43.7634 67.4896 43.9366 67.8906V68H42.6104ZM40.5117 67.0361C40.9082 67.0361 41.2842 66.9336 41.6397 66.7285C41.9951 66.5234 42.2526 66.2568 42.4121 65.9287V64.4111H41.4209C39.8714 64.4111 39.0967 64.8646 39.0967 65.7715C39.0967 66.168 39.2289 66.4779 39.4932 66.7012C39.7575 66.9245 40.097 67.0361 40.5117 67.0361ZM47.375 58.8125V60.6035H48.7559V61.5811H47.375V66.168C47.375 66.4642 47.4366 66.6875 47.5596 66.8379C47.6826 66.9837 47.8923 67.0566 48.1885 67.0566C48.3343 67.0566 48.5349 67.0293 48.7901 66.9746V68C48.4574 68.0911 48.1338 68.1367 47.8194 68.1367C47.2543 68.1367 46.8282 67.9658 46.541 67.624C46.2539 67.2822 46.1104 66.7969 46.1104 66.168V61.5811H44.7637V60.6035H46.1104V58.8125H47.375ZM51.6133 68H50.3487V60.6035H51.6133V68ZM50.2461 58.6416C50.2461 58.4365 50.3076 58.2633 50.4307 58.1221C50.5583 57.9808 50.7451 57.9102 50.9912 57.9102C51.2373 57.9102 51.4242 57.9808 51.5518 58.1221C51.6794 58.2633 51.7432 58.4365 51.7432 58.6416C51.7432 58.8467 51.6794 59.0176 51.5518 59.1543C51.4242 59.291 51.2373 59.3594 50.9912 59.3594C50.7451 59.3594 50.5583 59.291 50.4307 59.1543C50.3076 59.0176 50.2461 58.8467 50.2461 58.6416ZM56.7129 68.1367C55.7103 68.1367 54.8946 67.8086 54.2657 67.1523C53.6367 66.4915 53.3223 65.6097 53.3223 64.5068V64.2744C53.3223 63.5407 53.4613 62.8867 53.7393 62.3125C54.0218 61.7337 54.4138 61.2826 54.9151 60.959C55.4209 60.6309 55.9678 60.4668 56.5557 60.4668C57.5173 60.4668 58.2647 60.7835 58.7979 61.417C59.3311 62.0505 59.5977 62.9574 59.5977 64.1377V64.6641H54.5869C54.6052 65.3932 54.8171 65.9834 55.2227 66.4346C55.6328 66.8812 56.1524 67.1045 56.7813 67.1045C57.2279 67.1045 57.6062 67.0133 57.916 66.8311C58.2259 66.6488 58.4971 66.4072 58.7295 66.1064L59.502 66.708C58.8822 67.6605 57.9525 68.1367 56.7129 68.1367ZM56.5557 61.5059C56.0453 61.5059 55.6169 61.6927 55.2705 62.0664C54.9242 62.4355 54.71 62.9551 54.628 63.625H58.333V63.5293C58.2966 62.8867 58.1234 62.39 57.8135 62.0391C57.5036 61.6836 57.0843 61.5059 56.5557 61.5059ZM62.2637 60.6035L62.3047 61.5332C62.8698 60.8223 63.6081 60.4668 64.5196 60.4668C66.0827 60.4668 66.8711 61.3486 66.8848 63.1123V68H65.6201V63.1055C65.6156 62.5723 65.4925 62.1781 65.251 61.9229C65.014 61.6676 64.6426 61.54 64.1367 61.54C63.7266 61.54 63.3666 61.6494 63.0567 61.8682C62.7468 62.0869 62.5052 62.374 62.3321 62.7295V68H61.0674V60.6035H62.2637ZM70.5078 58.8125V60.6035H71.8887V61.5811H70.5078V66.168C70.5078 66.4642 70.5694 66.6875 70.6924 66.8379C70.8155 66.9837 71.0251 67.0566 71.3213 67.0566C71.4672 67.0566 71.6677 67.0293 71.9229 66.9746V68C71.5902 68.0911 71.2666 68.1367 70.9522 68.1367C70.3871 68.1367 69.961 67.9658 69.6739 67.624C69.3867 67.2822 69.2432 66.7969 69.2432 66.168V61.5811H67.8965V60.6035H69.2432V58.8125H70.5078ZM77.6787 66.0381C77.6787 65.6963 77.5489 65.432 77.2891 65.2451C77.0339 65.0537 76.585 64.8896 75.9424 64.7529C75.3044 64.6162 74.7963 64.4521 74.418 64.2607C74.0443 64.0693 73.7663 63.8415 73.584 63.5771C73.4063 63.3128 73.3174 62.9984 73.3174 62.6338C73.3174 62.0277 73.5726 61.515 74.083 61.0957C74.598 60.6764 75.2543 60.4668 76.0518 60.4668C76.8903 60.4668 77.5694 60.6833 78.0889 61.1162C78.613 61.5492 78.875 62.1029 78.875 62.7773H77.6035C77.6035 62.431 77.4554 62.1325 77.1592 61.8818C76.8675 61.6312 76.4984 61.5059 76.0518 61.5059C75.5915 61.5059 75.2315 61.6061 74.9717 61.8066C74.7119 62.0072 74.5821 62.2692 74.5821 62.5928C74.5821 62.8981 74.7028 63.1283 74.9444 63.2832C75.1859 63.4382 75.6211 63.5863 76.25 63.7275C76.8835 63.8688 77.3962 64.0374 77.7881 64.2334C78.18 64.4294 78.4694 64.6663 78.6563 64.9443C78.8477 65.2178 78.9434 65.5527 78.9434 65.9492C78.9434 66.61 78.6791 67.141 78.1504 67.542C77.6218 67.9385 76.9359 68.1367 76.0928 68.1367C75.5004 68.1367 74.9763 68.0319 74.5205 67.8223C74.0648 67.6126 73.7071 67.321 73.4473 66.9473C73.1921 66.569 73.0645 66.1611 73.0645 65.7236H74.3291C74.3519 66.1475 74.5205 66.4847 74.835 66.7354C75.154 66.9814 75.5733 67.1045 76.0928 67.1045C76.5713 67.1045 76.9541 67.0088 77.2412 66.8174C77.5329 66.6214 77.6787 66.3617 77.6787 66.0381ZM30.8047 84.1035V88H29.4922V78.0469H33.1631C34.2523 78.0469 35.1045 78.3249 35.7198 78.8809C36.3395 79.4368 36.6494 80.1729 36.6494 81.0889C36.6494 82.055 36.3464 82.8001 35.7403 83.3242C35.1387 83.8438 34.2751 84.1035 33.1494 84.1035H30.8047ZM30.8047 83.0303H33.1631C33.8649 83.0303 34.4027 82.8662 34.7764 82.5381C35.1501 82.2054 35.3369 81.7269 35.3369 81.1025C35.3369 80.5101 35.1501 80.0361 34.7764 79.6807C34.4027 79.3252 33.89 79.1406 33.2383 79.127H30.8047V83.0303ZM42.6104 88C42.5375 87.8542 42.4782 87.5944 42.4326 87.2207C41.8448 87.8314 41.1429 88.1367 40.3272 88.1367C39.598 88.1367 38.9987 87.9316 38.5293 87.5215C38.0645 87.1068 37.8321 86.5827 37.8321 85.9492C37.8321 85.179 38.1237 84.582 38.7071 84.1582C39.295 83.7298 40.1198 83.5156 41.1817 83.5156H42.4121V82.9346C42.4121 82.4925 42.28 82.1416 42.0157 81.8818C41.7513 81.6175 41.3617 81.4854 40.8467 81.4854C40.3955 81.4854 40.0173 81.5993 39.7119 81.8271C39.4066 82.055 39.2539 82.3307 39.2539 82.6543H37.9825C37.9825 82.2852 38.1123 81.9297 38.3721 81.5879C38.6364 81.2415 38.9919 80.9681 39.4385 80.7676C39.8897 80.5671 40.3841 80.4668 40.9219 80.4668C41.7741 80.4668 42.4418 80.681 42.9248 81.1094C43.4079 81.5332 43.6586 82.1188 43.6768 82.8662V86.2705C43.6768 86.9495 43.7634 87.4896 43.9366 87.8906V88H42.6104ZM40.5117 87.0361C40.9082 87.0361 41.2842 86.9336 41.6397 86.7285C41.9951 86.5234 42.2526 86.2568 42.4121 85.9287V84.4111H41.4209C39.8714 84.4111 39.0967 84.8646 39.0967 85.7715C39.0967 86.168 39.2289 86.4779 39.4932 86.7012C39.7575 86.9245 40.097 87.0361 40.5117 87.0361ZM47.9698 86.1475L49.6924 80.6035H51.0459L48.0723 89.1416C47.612 90.3721 46.8806 90.9873 45.878 90.9873L45.6387 90.9668L45.167 90.8779V89.8525L45.5088 89.8799C45.9372 89.8799 46.2699 89.7933 46.5069 89.6201C46.7484 89.4469 46.9466 89.1302 47.1016 88.6699L47.3819 87.918L44.7432 80.6035H46.1241L47.9698 86.1475ZM55.1543 88.1367C54.1517 88.1367 53.336 87.8086 52.7071 87.1523C52.0782 86.4915 51.7637 85.6097 51.7637 84.5068V84.2744C51.7637 83.5407 51.9027 82.8867 52.1807 82.3125C52.4632 81.7337 52.8552 81.2826 53.3565 80.959C53.8623 80.6309 54.4092 80.4668 54.9971 80.4668C55.9587 80.4668 56.7061 80.7835 57.2393 81.417C57.7725 82.0505 58.0391 82.9574 58.0391 84.1377V84.6641H53.0284C53.0466 85.3932 53.2585 85.9834 53.6641 86.4346C54.0742 86.8812 54.5938 87.1045 55.2227 87.1045C55.6693 87.1045 56.0476 87.0133 56.3575 86.8311C56.6673 86.6488 56.9385 86.4072 57.1709 86.1064L57.9434 86.708C57.3236 87.6605 56.3939 88.1367 55.1543 88.1367ZM54.9971 81.5059C54.4867 81.5059 54.0583 81.6927 53.7119 82.0664C53.3656 82.4355 53.1514 82.9551 53.0694 83.625H56.7744V83.5293C56.738 82.8867 56.5648 82.39 56.2549 82.0391C55.945 81.6836 55.5257 81.5059 54.9971 81.5059ZM63.084 81.7383C62.8926 81.7064 62.6853 81.6904 62.4619 81.6904C61.6325 81.6904 61.0697 82.0436 60.7735 82.75V88H59.5088V80.6035H60.7393L60.7598 81.458C61.1745 80.7972 61.7624 80.4668 62.5235 80.4668C62.7696 80.4668 62.9564 80.4987 63.084 80.5625V81.7383ZM68.5596 86.0381C68.5596 85.6963 68.4297 85.432 68.17 85.2451C67.9147 85.0537 67.4659 84.8896 66.8233 84.7529C66.1853 84.6162 65.6771 84.4521 65.2989 84.2607C64.9252 84.0693 64.6472 83.8415 64.4649 83.5771C64.2871 83.3128 64.1983 82.9984 64.1983 82.6338C64.1983 82.0277 64.4535 81.515 64.9639 81.0957C65.4789 80.6764 66.1351 80.4668 66.9326 80.4668C67.7712 80.4668 68.4502 80.6833 68.9698 81.1162C69.4938 81.5492 69.7559 82.1029 69.7559 82.7773H68.4844C68.4844 82.431 68.3363 82.1325 68.0401 81.8818C67.7484 81.6312 67.3793 81.5059 66.9326 81.5059C66.4724 81.5059 66.1123 81.6061 65.8526 81.8066C65.5928 82.0072 65.4629 82.2692 65.4629 82.5928C65.4629 82.8981 65.5837 83.1283 65.8252 83.2832C66.0668 83.4382 66.502 83.5863 67.1309 83.7275C67.7644 83.8688 68.277 84.0374 68.669 84.2334C69.0609 84.4294 69.3503 84.6663 69.5371 84.9443C69.7285 85.2178 69.8242 85.5527 69.8242 85.9492C69.8242 86.61 69.5599 87.141 69.0313 87.542C68.5026 87.9385 67.8168 88.1367 66.9737 88.1367C66.3812 88.1367 65.8571 88.0319 65.4014 87.8223C64.9457 87.6126 64.5879 87.321 64.3282 86.9473C64.0729 86.569 63.9453 86.1611 63.9453 85.7236H65.21C65.2328 86.1475 65.4014 86.4847 65.7159 86.7354C66.0349 86.9814 66.4541 87.1045 66.9737 87.1045C67.4522 87.1045 67.835 87.0088 68.1221 86.8174C68.4138 86.6214 68.5596 86.3617 68.5596 86.0381ZM30.8047 104.104V108H29.4922V98.0469H33.1631C34.2523 98.0469 35.1045 98.3249 35.7198 98.8809C36.3395 99.4368 36.6494 100.173 36.6494 101.089C36.6494 102.055 36.3464 102.8 35.7403 103.324C35.1387 103.844 34.2751 104.104 33.1494 104.104H30.8047ZM30.8047 103.03H33.1631C33.8649 103.03 34.4027 102.866 34.7764 102.538C35.1501 102.205 35.3369 101.727 35.3369 101.103C35.3369 100.51 35.1501 100.036 34.7764 99.6807C34.4027 99.3252 33.89 99.1406 33.2383 99.127H30.8047V103.03ZM39.3907 101.499C39.9512 100.811 40.6804 100.467 41.5782 100.467C43.1413 100.467 43.9297 101.349 43.9434 103.112V108H42.6787V103.105C42.6742 102.572 42.5511 102.178 42.3096 101.923C42.0726 101.668 41.7012 101.54 41.1953 101.54C40.7852 101.54 40.4252 101.649 40.1153 101.868C39.8054 102.087 39.5638 102.374 39.3907 102.729V108H38.126V97.5H39.3907V101.499ZM50.4034 108C50.3304 107.854 50.2712 107.594 50.2256 107.221C49.6377 107.831 48.9359 108.137 48.1201 108.137C47.391 108.137 46.7917 107.932 46.3223 107.521C45.8575 107.107 45.625 106.583 45.625 105.949C45.625 105.179 45.9167 104.582 46.5 104.158C47.0879 103.73 47.9128 103.516 48.9746 103.516H50.2051V102.935C50.2051 102.493 50.0729 102.142 49.8086 101.882C49.5443 101.618 49.1547 101.485 48.6397 101.485C48.1885 101.485 47.8103 101.599 47.5049 101.827C47.1996 102.055 47.0469 102.331 47.0469 102.654H45.7754C45.7754 102.285 45.9053 101.93 46.1651 101.588C46.4294 101.242 46.7849 100.968 47.2315 100.768C47.6826 100.567 48.1771 100.467 48.7149 100.467C49.5671 100.467 50.2347 100.681 50.7178 101.109C51.2009 101.533 51.4515 102.119 51.4698 102.866V106.271C51.4698 106.95 51.5563 107.49 51.7295 107.891V108H50.4034ZM48.3047 107.036C48.7012 107.036 49.0772 106.934 49.4326 106.729C49.7881 106.523 50.0456 106.257 50.2051 105.929V104.411H49.2139C47.6644 104.411 46.8897 104.865 46.8897 105.771C46.8897 106.168 47.0218 106.478 47.2862 106.701C47.5505 106.924 47.89 107.036 48.3047 107.036ZM57.0274 101.738C56.836 101.706 56.6286 101.69 56.4053 101.69C55.5759 101.69 55.0131 102.044 54.7168 102.75V108H53.4522V100.604H54.6826L54.7032 101.458C55.1179 100.797 55.7058 100.467 56.4668 100.467C56.7129 100.467 56.8998 100.499 57.0274 100.562V101.738ZM59.3858 100.604L59.42 101.424C59.9623 100.786 60.6937 100.467 61.6143 100.467C62.6488 100.467 63.3529 100.863 63.7266 101.656C63.9727 101.301 64.2917 101.014 64.6836 100.795C65.0801 100.576 65.5472 100.467 66.085 100.467C67.7074 100.467 68.5323 101.326 68.5596 103.044V108H67.295V103.119C67.295 102.59 67.1742 102.196 66.9326 101.937C66.6911 101.672 66.2855 101.54 65.7159 101.54C65.2464 101.54 64.8568 101.681 64.5469 101.964C64.237 102.242 64.057 102.618 64.0069 103.092V108H62.7354V103.153C62.7354 102.078 62.209 101.54 61.1563 101.54C60.3269 101.54 59.7595 101.893 59.4541 102.6V108H58.1895V100.604H59.3858ZM75.0401 108C74.9672 107.854 74.9079 107.594 74.8623 107.221C74.2744 107.831 73.5726 108.137 72.7569 108.137C72.0277 108.137 71.4284 107.932 70.959 107.521C70.4942 107.107 70.2617 106.583 70.2617 105.949C70.2617 105.179 70.5534 104.582 71.1367 104.158C71.7246 103.73 72.5495 103.516 73.6114 103.516H74.8418V102.935C74.8418 102.493 74.7097 102.142 74.4453 101.882C74.181 101.618 73.7914 101.485 73.2764 101.485C72.8252 101.485 72.447 101.599 72.1416 101.827C71.8363 102.055 71.6836 102.331 71.6836 102.654H70.4121C70.4121 102.285 70.542 101.93 70.8018 101.588C71.0661 101.242 71.4216 100.968 71.8682 100.768C72.3194 100.567 72.8138 100.467 73.3516 100.467C74.2038 100.467 74.8714 100.681 75.3545 101.109C75.8376 101.533 76.0882 102.119 76.1065 102.866V106.271C76.1065 106.95 76.1931 107.49 76.3662 107.891V108H75.0401ZM72.9414 107.036C73.3379 107.036 73.7139 106.934 74.0694 106.729C74.4248 106.523 74.6823 106.257 74.8418 105.929V104.411H73.8506C72.3011 104.411 71.5264 104.865 71.5264 105.771C71.5264 106.168 71.6586 106.478 71.9229 106.701C72.1872 106.924 72.5267 107.036 72.9414 107.036Z" fill="#1F2432"/>
<path d="M24.5889 44.2881H21.2529V43.2559H24.5889V44.2881ZM24.5889 64.2881H21.2529V63.2559H24.5889V64.2881ZM24.5889 84.2881H21.2529V83.2559H24.5889V84.2881ZM24.5889 104.288H21.2529V103.256H24.5889V104.288Z" fill="#1F2432"/>
<path d="M198.143 43.9736H195.805V48H194.485V38.0469H197.78C198.901 38.0469 199.763 38.3021 200.364 38.8125C200.97 39.3229 201.273 40.0658 201.273 41.041C201.273 41.6608 201.105 42.2008 200.768 42.6611C200.435 43.1214 199.97 43.4655 199.373 43.6934L201.711 47.918V48H200.303L198.143 43.9736ZM195.805 42.9004H197.821C198.473 42.9004 198.99 42.7318 199.373 42.3945C199.76 42.0573 199.954 41.6061 199.954 41.041C199.954 40.4258 199.77 39.9541 199.4 39.626C199.036 39.2979 198.507 39.1315 197.814 39.127H195.805V42.9004ZM205.99 48.1367C204.988 48.1367 204.172 47.8086 203.543 47.1523C202.914 46.4915 202.6 45.6097 202.6 44.5068V44.2744C202.6 43.5407 202.739 42.8867 203.017 42.3125C203.299 41.7337 203.691 41.2826 204.192 40.959C204.698 40.6309 205.245 40.4668 205.833 40.4668C206.795 40.4668 207.542 40.7835 208.075 41.417C208.608 42.0505 208.875 42.9574 208.875 44.1377V44.6641H203.864C203.883 45.3932 204.094 45.9834 204.5 46.4346C204.91 46.8812 205.43 47.1045 206.059 47.1045C206.505 47.1045 206.883 47.0133 207.193 46.8311C207.503 46.6488 207.774 46.4072 208.007 46.1064L208.779 46.708C208.16 47.6605 207.23 48.1367 205.99 48.1367ZM205.833 41.5059C205.323 41.5059 204.894 41.6927 204.548 42.0664C204.202 42.4355 203.987 42.9551 203.905 43.625H207.61V43.5293C207.574 42.8867 207.401 42.39 207.091 42.0391C206.781 41.6836 206.362 41.5059 205.833 41.5059ZM214.651 46.0381C214.651 45.6963 214.522 45.432 214.262 45.2451C214.007 45.0537 213.558 44.8896 212.915 44.7529C212.277 44.6162 211.769 44.4521 211.391 44.2607C211.017 44.0693 210.739 43.8415 210.557 43.5771C210.379 43.3128 210.29 42.9984 210.29 42.6338C210.29 42.0277 210.545 41.515 211.056 41.0957C211.571 40.6764 212.227 40.4668 213.024 40.4668C213.863 40.4668 214.542 40.6833 215.062 41.1162C215.586 41.5492 215.848 42.1029 215.848 42.7773H214.576C214.576 42.431 214.428 42.1325 214.132 41.8818C213.84 41.6312 213.471 41.5059 213.024 41.5059C212.564 41.5059 212.204 41.6061 211.944 41.8066C211.685 42.0072 211.555 42.2692 211.555 42.5928C211.555 42.8981 211.675 43.1283 211.917 43.2832C212.159 43.4382 212.594 43.5863 213.223 43.7275C213.856 43.8688 214.369 44.0374 214.761 44.2334C215.153 44.4294 215.442 44.6663 215.629 44.9443C215.82 45.2178 215.916 45.5527 215.916 45.9492C215.916 46.61 215.652 47.141 215.123 47.542C214.594 47.9385 213.909 48.1367 213.065 48.1367C212.473 48.1367 211.949 48.0319 211.493 47.8223C211.037 47.6126 210.68 47.321 210.42 46.9473C210.165 46.569 210.037 46.1611 210.037 45.7236H211.302C211.325 46.1475 211.493 46.4847 211.808 46.7354C212.127 46.9814 212.546 47.1045 213.065 47.1045C213.544 47.1045 213.927 47.0088 214.214 46.8174C214.506 46.6214 214.651 46.3617 214.651 46.0381ZM220.633 48.1367C219.63 48.1367 218.814 47.8086 218.186 47.1523C217.557 46.4915 217.242 45.6097 217.242 44.5068V44.2744C217.242 43.5407 217.381 42.8867 217.659 42.3125C217.942 41.7337 218.334 41.2826 218.835 40.959C219.341 40.6309 219.888 40.4668 220.476 40.4668C221.437 40.4668 222.185 40.7835 222.718 41.417C223.251 42.0505 223.518 42.9574 223.518 44.1377V44.6641H218.507C218.525 45.3932 218.737 45.9834 219.143 46.4346C219.553 46.8812 220.072 47.1045 220.701 47.1045C221.148 47.1045 221.526 47.0133 221.836 46.8311C222.146 46.6488 222.417 46.4072 222.649 46.1064L223.422 46.708C222.802 47.6605 221.872 48.1367 220.633 48.1367ZM220.476 41.5059C219.965 41.5059 219.537 41.6927 219.19 42.0664C218.844 42.4355 218.63 42.9551 218.548 43.625H222.253V43.5293C222.217 42.8867 222.043 42.39 221.733 42.0391C221.424 41.6836 221.004 41.5059 220.476 41.5059ZM229.554 48C229.481 47.8542 229.422 47.5944 229.376 47.2207C228.788 47.8314 228.086 48.1367 227.271 48.1367C226.541 48.1367 225.942 47.9316 225.473 47.5215C225.008 47.1068 224.775 46.5827 224.775 45.9492C224.775 45.179 225.067 44.582 225.65 44.1582C226.238 43.7298 227.063 43.5156 228.125 43.5156H229.355V42.9346C229.355 42.4925 229.223 42.1416 228.959 41.8818C228.695 41.6175 228.305 41.4854 227.79 41.4854C227.339 41.4854 226.961 41.5993 226.655 41.8271C226.35 42.055 226.197 42.3307 226.197 42.6543H224.926C224.926 42.2852 225.056 41.9297 225.315 41.5879C225.58 41.2415 225.935 40.9681 226.382 40.7676C226.833 40.5671 227.328 40.4668 227.865 40.4668C228.717 40.4668 229.385 40.681 229.868 41.1094C230.351 41.5332 230.602 42.1188 230.62 42.8662V46.2705C230.62 46.9495 230.707 47.4896 230.88 47.8906V48H229.554ZM227.455 47.0361C227.852 47.0361 228.228 46.9336 228.583 46.7285C228.939 46.5234 229.196 46.2568 229.355 45.9287V44.4111H228.364C226.815 44.4111 226.04 44.8646 226.04 45.7715C226.04 46.168 226.172 46.4779 226.437 46.7012C226.701 46.9245 227.04 47.0361 227.455 47.0361ZM236.178 41.7383C235.986 41.7064 235.779 41.6904 235.556 41.6904C234.726 41.6904 234.163 42.0436 233.867 42.75V48H232.603V40.6035H233.833L233.854 41.458C234.268 40.7972 234.856 40.4668 235.617 40.4668C235.863 40.4668 236.05 40.4987 236.178 40.5625V41.7383ZM240.177 47.1045C240.628 47.1045 241.022 46.9678 241.359 46.6943C241.697 46.4209 241.883 46.0791 241.92 45.6689H243.116C243.093 46.0928 242.948 46.4961 242.679 46.8789C242.41 47.2617 242.05 47.5671 241.599 47.7949C241.152 48.0228 240.678 48.1367 240.177 48.1367C239.17 48.1367 238.368 47.8018 237.771 47.1318C237.178 46.4574 236.882 45.5368 236.882 44.3701V44.1582C236.882 43.4382 237.014 42.7979 237.278 42.2373C237.543 41.6768 237.921 41.2415 238.413 40.9316C238.91 40.6217 239.495 40.4668 240.17 40.4668C240.999 40.4668 241.688 40.7152 242.234 41.2119C242.786 41.7087 243.08 42.3535 243.116 43.1465H241.92C241.883 42.668 241.701 42.276 241.373 41.9707C241.05 41.6608 240.648 41.5059 240.17 41.5059C239.527 41.5059 239.028 41.7383 238.673 42.2031C238.322 42.6634 238.147 43.3311 238.147 44.2061V44.4453C238.147 45.2975 238.322 45.9538 238.673 46.4141C239.024 46.8743 239.525 47.1045 240.177 47.1045ZM245.803 41.499C246.363 40.8109 247.092 40.4668 247.99 40.4668C249.553 40.4668 250.342 41.3486 250.355 43.1123V48H249.091V43.1055C249.086 42.5723 248.963 42.1781 248.722 41.9229C248.485 41.6676 248.113 41.54 247.607 41.54C247.197 41.54 246.837 41.6494 246.527 41.8682C246.217 42.0869 245.976 42.374 245.803 42.7295V48H244.538V37.5H245.803V41.499ZM202.142 68H200.822V63.3994H195.805V68H194.492V58.0469H195.805V62.3262H200.822V58.0469H202.142V68ZM207.344 68.1367C206.341 68.1367 205.525 67.8086 204.897 67.1523C204.268 66.4915 203.953 65.6097 203.953 64.5068V64.2744C203.953 63.5407 204.092 62.8867 204.37 62.3125C204.653 61.7337 205.045 61.2826 205.546 60.959C206.052 60.6309 206.599 60.4668 207.187 60.4668C208.148 60.4668 208.896 60.7835 209.429 61.417C209.962 62.0505 210.229 62.9574 210.229 64.1377V64.6641H205.218C205.236 65.3932 205.448 65.9834 205.854 66.4346C206.264 66.8812 206.783 67.1045 207.412 67.1045C207.859 67.1045 208.237 67.0133 208.547 66.8311C208.857 66.6488 209.128 66.4072 209.36 66.1064L210.133 66.708C209.513 67.6605 208.583 68.1367 207.344 68.1367ZM207.187 61.5059C206.676 61.5059 206.248 61.6927 205.901 62.0664C205.555 62.4355 205.341 62.9551 205.259 63.625H208.964V63.5293C208.927 62.8867 208.754 62.39 208.444 62.0391C208.134 61.6836 207.715 61.5059 207.187 61.5059ZM216.265 68C216.192 67.8542 216.133 67.5944 216.087 67.2207C215.499 67.8314 214.797 68.1367 213.981 68.1367C213.252 68.1367 212.653 67.9316 212.184 67.5215C211.719 67.1068 211.486 66.5827 211.486 65.9492C211.486 65.179 211.778 64.582 212.361 64.1582C212.949 63.7298 213.774 63.5156 214.836 63.5156H216.066V62.9346C216.066 62.4925 215.934 62.1416 215.67 61.8818C215.406 61.6175 215.016 61.4854 214.501 61.4854C214.05 61.4854 213.672 61.5993 213.366 61.8271C213.061 62.055 212.908 62.3307 212.908 62.6543H211.637C211.637 62.2852 211.767 61.9297 212.026 61.5879C212.291 61.2415 212.646 60.9681 213.093 60.7676C213.544 60.5671 214.038 60.4668 214.576 60.4668C215.428 60.4668 216.096 60.681 216.579 61.1094C217.062 61.5332 217.313 62.1188 217.331 62.8662V66.2705C217.331 66.9495 217.418 67.4896 217.591 67.8906V68H216.265ZM214.166 67.0361C214.563 67.0361 214.939 66.9336 215.294 66.7285C215.649 66.5234 215.907 66.2568 216.066 65.9287V64.4111H215.075C213.526 64.4111 212.751 64.8646 212.751 65.7715C212.751 66.168 212.883 66.4779 213.147 66.7012C213.412 66.9245 213.751 67.0361 214.166 67.0361ZM220.688 68H219.423V57.5H220.688V68ZM224.434 58.8125V60.6035H225.814V61.5811H224.434V66.168C224.434 66.4642 224.495 66.6875 224.618 66.8379C224.741 66.9837 224.951 67.0566 225.247 67.0566C225.393 67.0566 225.593 67.0293 225.849 66.9746V68C225.516 68.0911 225.192 68.1367 224.878 68.1367C224.313 68.1367 223.887 67.9658 223.6 67.624C223.313 67.2822 223.169 66.7969 223.169 66.168V61.5811H221.822V60.6035H223.169V58.8125H224.434ZM228.563 61.499C229.123 60.8109 229.852 60.4668 230.75 60.4668C232.313 60.4668 233.102 61.3486 233.115 63.1123V68H231.851V63.1055C231.846 62.5723 231.723 62.1781 231.481 61.9229C231.244 61.6676 230.873 61.54 230.367 61.54C229.957 61.54 229.597 61.6494 229.287 61.8682C228.977 62.0869 228.736 62.374 228.563 62.7295V68H227.298V57.5H228.563V61.499ZM244.176 65.4023H240.006L239.069 68H237.716L241.517 58.0469H242.665L246.473 68H245.126L244.176 65.4023ZM240.402 64.3223H243.786L242.091 59.667L240.402 64.3223ZM248.811 60.6035L248.852 61.5332C249.417 60.8223 250.155 60.4668 251.066 60.4668C252.63 60.4668 253.418 61.3486 253.432 63.1123V68H252.167V63.1055C252.162 62.5723 252.039 62.1781 251.798 61.9229C251.561 61.6676 251.189 61.54 250.684 61.54C250.273 61.54 249.913 61.6494 249.604 61.8682C249.294 62.0869 249.052 62.374 248.879 62.7295V68H247.614V60.6035H248.811ZM259.905 68C259.832 67.8542 259.773 67.5944 259.728 67.2207C259.14 67.8314 258.438 68.1367 257.622 68.1367C256.893 68.1367 256.294 67.9316 255.824 67.5215C255.359 67.1068 255.127 66.5827 255.127 65.9492C255.127 65.179 255.419 64.582 256.002 64.1582C256.59 63.7298 257.415 63.5156 258.477 63.5156H259.707V62.9346C259.707 62.4925 259.575 62.1416 259.311 61.8818C259.046 61.6175 258.657 61.4854 258.142 61.4854C257.69 61.4854 257.312 61.5993 257.007 61.8271C256.702 62.055 256.549 62.3307 256.549 62.6543H255.277C255.277 62.2852 255.407 61.9297 255.667 61.5879C255.931 61.2415 256.287 60.9681 256.733 60.7676C257.185 60.5671 257.679 60.4668 258.217 60.4668C259.069 60.4668 259.737 60.681 260.22 61.1094C260.703 61.5332 260.953 62.1188 260.972 62.8662V66.2705C260.972 66.9495 261.058 67.4896 261.231 67.8906V68H259.905ZM257.807 67.0361C258.203 67.0361 258.579 66.9336 258.935 66.7285C259.29 66.5234 259.548 66.2568 259.707 65.9287V64.4111H258.716C257.166 64.4111 256.392 64.8646 256.392 65.7715C256.392 66.168 256.524 66.4779 256.788 66.7012C257.052 66.9245 257.392 67.0361 257.807 67.0361ZM264.328 68H263.064V57.5H264.328V68ZM268.778 66.1475L270.501 60.6035H271.855L268.881 69.1416C268.421 70.3721 267.689 70.9873 266.687 70.9873L266.447 70.9668L265.976 70.8779V69.8525L266.317 69.8799C266.746 69.8799 267.078 69.7933 267.315 69.6201C267.557 69.4469 267.755 69.1302 267.91 68.6699L268.19 67.918L265.552 60.6035H266.933L268.778 66.1475ZM274.705 58.8125V60.6035H276.086V61.5811H274.705V66.168C274.705 66.4642 274.767 66.6875 274.89 66.8379C275.013 66.9837 275.222 67.0566 275.519 67.0566C275.664 67.0566 275.865 67.0293 276.12 66.9746V68C275.787 68.0911 275.464 68.1367 275.149 68.1367C274.584 68.1367 274.158 67.9658 273.871 67.624C273.584 67.2822 273.44 66.7969 273.44 66.168V61.5811H272.094V60.6035H273.44V58.8125H274.705ZM278.943 68H277.679V60.6035H278.943V68ZM277.576 58.6416C277.576 58.4365 277.638 58.2633 277.761 58.1221C277.888 57.9808 278.075 57.9102 278.321 57.9102C278.567 57.9102 278.754 57.9808 278.882 58.1221C279.009 58.2633 279.073 58.4365 279.073 58.6416C279.073 58.8467 279.009 59.0176 278.882 59.1543C278.754 59.291 278.567 59.3594 278.321 59.3594C278.075 59.3594 277.888 59.291 277.761 59.1543C277.638 59.0176 277.576 58.8467 277.576 58.6416ZM283.94 67.1045C284.392 67.1045 284.786 66.9678 285.123 66.6943C285.46 66.4209 285.647 66.0791 285.684 65.6689H286.88C286.857 66.0928 286.711 66.4961 286.442 66.8789C286.174 67.2617 285.814 67.5671 285.362 67.7949C284.916 68.0228 284.442 68.1367 283.94 68.1367C282.933 68.1367 282.131 67.8018 281.534 67.1318C280.942 66.4574 280.646 65.5368 280.646 64.3701V64.1582C280.646 63.4382 280.778 62.7979 281.042 62.2373C281.306 61.6768 281.685 61.2415 282.177 60.9316C282.674 60.6217 283.259 60.4668 283.934 60.4668C284.763 60.4668 285.451 60.7152 285.998 61.2119C286.55 61.7087 286.843 62.3535 286.88 63.1465H285.684C285.647 62.668 285.465 62.276 285.137 61.9707C284.813 61.6608 284.412 61.5059 283.934 61.5059C283.291 61.5059 282.792 61.7383 282.437 62.2031C282.086 62.6634 281.91 63.3311 281.91 64.2061V64.4453C281.91 65.2975 282.086 65.9538 282.437 66.4141C282.787 66.8743 283.289 67.1045 283.94 67.1045ZM292.608 66.0381C292.608 65.6963 292.479 65.432 292.219 65.2451C291.964 65.0537 291.515 64.8896 290.872 64.7529C290.234 64.6162 289.726 64.4521 289.348 64.2607C288.974 64.0693 288.696 63.8415 288.514 63.5771C288.336 63.3128 288.247 62.9984 288.247 62.6338C288.247 62.0277 288.502 61.515 289.013 61.0957C289.528 60.6764 290.184 60.4668 290.981 60.4668C291.82 60.4668 292.499 60.6833 293.019 61.1162C293.543 61.5492 293.805 62.1029 293.805 62.7773H292.533C292.533 62.431 292.385 62.1325 292.089 61.8818C291.797 61.6312 291.428 61.5059 290.981 61.5059C290.521 61.5059 290.161 61.6061 289.901 61.8066C289.642 62.0072 289.512 62.2692 289.512 62.5928C289.512 62.8981 289.633 63.1283 289.874 63.2832C290.116 63.4382 290.551 63.5863 291.18 63.7275C291.813 63.8688 292.326 64.0374 292.718 64.2334C293.11 64.4294 293.399 64.6663 293.586 64.9443C293.777 65.2178 293.873 65.5527 293.873 65.9492C293.873 66.61 293.609 67.141 293.08 67.542C292.551 67.9385 291.866 68.1367 291.022 68.1367C290.43 68.1367 289.906 68.0319 289.45 67.8223C288.994 67.6126 288.637 67.321 288.377 66.9473C288.122 66.569 287.994 66.1611 287.994 65.7236H289.259C289.282 66.1475 289.45 66.4847 289.765 66.7354C290.084 66.9814 290.503 67.1045 291.022 67.1045C291.501 67.1045 291.884 67.0088 292.171 66.8174C292.463 66.6214 292.608 66.3617 292.608 66.0381ZM195.9 88H194.588V78.0469H195.9V88ZM197.773 84.2334C197.773 83.5088 197.915 82.8571 198.197 82.2783C198.484 81.6995 198.881 81.2529 199.387 80.9385C199.897 80.624 200.478 80.4668 201.13 80.4668C202.137 80.4668 202.951 80.8154 203.57 81.5127C204.195 82.21 204.507 83.1374 204.507 84.2949V84.3838C204.507 85.1038 204.368 85.751 204.09 86.3252C203.816 86.8949 203.422 87.3392 202.907 87.6582C202.397 87.9772 201.809 88.1367 201.144 88.1367C200.141 88.1367 199.328 87.7881 198.703 87.0908C198.083 86.3936 197.773 85.4707 197.773 84.3223V84.2334ZM199.045 84.3838C199.045 85.2041 199.234 85.8626 199.612 86.3594C199.995 86.8561 200.506 87.1045 201.144 87.1045C201.786 87.1045 202.297 86.8538 202.675 86.3525C203.053 85.8467 203.242 85.1403 203.242 84.2334C203.242 83.4222 203.049 82.766 202.661 82.2646C202.278 81.7588 201.768 81.5059 201.13 81.5059C200.506 81.5059 200.002 81.7542 199.619 82.251C199.236 82.7477 199.045 83.4587 199.045 84.3838ZM207.986 78.0469L211.24 86.168L214.494 78.0469H216.196V88H214.884V84.124L215.007 79.9404L211.739 88H210.734L207.474 79.9609L207.604 84.124V88H206.291V78.0469H207.986ZM225.186 79.127H221.986V88H220.681V79.127H217.488V78.0469H225.186V79.127ZM195.9 108H194.588V98.0469H195.9V108ZM199.305 100.604L199.346 101.533C199.911 100.822 200.649 100.467 201.561 100.467C203.124 100.467 203.912 101.349 203.926 103.112V108H202.661V103.105C202.657 102.572 202.534 102.178 202.292 101.923C202.055 101.668 201.684 101.54 201.178 101.54C200.768 101.54 200.408 101.649 200.098 101.868C199.788 102.087 199.546 102.374 199.373 102.729V108H198.108V100.604H199.305ZM210.14 106.038C210.14 105.696 210.01 105.432 209.75 105.245C209.495 105.054 209.046 104.89 208.403 104.753C207.765 104.616 207.257 104.452 206.879 104.261C206.505 104.069 206.227 103.841 206.045 103.577C205.867 103.313 205.778 102.998 205.778 102.634C205.778 102.028 206.034 101.515 206.544 101.096C207.059 100.676 207.715 100.467 208.513 100.467C209.351 100.467 210.03 100.683 210.55 101.116C211.074 101.549 211.336 102.103 211.336 102.777H210.064C210.064 102.431 209.916 102.132 209.62 101.882C209.328 101.631 208.959 101.506 208.513 101.506C208.052 101.506 207.692 101.606 207.433 101.807C207.173 102.007 207.043 102.269 207.043 102.593C207.043 102.898 207.164 103.128 207.405 103.283C207.647 103.438 208.082 103.586 208.711 103.728C209.344 103.869 209.857 104.037 210.249 104.233C210.641 104.429 210.93 104.666 211.117 104.944C211.309 105.218 211.404 105.553 211.404 105.949C211.404 106.61 211.14 107.141 210.611 107.542C210.083 107.938 209.397 108.137 208.554 108.137C207.961 108.137 207.437 108.032 206.981 107.822C206.526 107.613 206.168 107.321 205.908 106.947C205.653 106.569 205.525 106.161 205.525 105.724H206.79C206.813 106.147 206.981 106.485 207.296 106.735C207.615 106.981 208.034 107.104 208.554 107.104C209.032 107.104 209.415 107.009 209.702 106.817C209.994 106.621 210.14 106.362 210.14 106.038ZM217.618 107.269C217.126 107.847 216.404 108.137 215.451 108.137C214.663 108.137 214.061 107.909 213.647 107.453C213.236 106.993 213.029 106.314 213.024 105.416V100.604H214.289V105.382C214.289 106.503 214.745 107.063 215.656 107.063C216.622 107.063 217.265 106.703 217.584 105.983V100.604H218.849V108H217.646L217.618 107.269ZM224.352 101.738C224.16 101.706 223.953 101.69 223.73 101.69C222.9 101.69 222.337 102.044 222.041 102.75V108H220.776V100.604H222.007L222.027 101.458C222.442 100.797 223.03 100.467 223.791 100.467C224.037 100.467 224.224 100.499 224.352 100.562V101.738ZM229.814 108C229.741 107.854 229.681 107.594 229.636 107.221C229.048 107.831 228.346 108.137 227.53 108.137C226.801 108.137 226.202 107.932 225.732 107.521C225.268 107.107 225.035 106.583 225.035 105.949C225.035 105.179 225.327 104.582 225.91 104.158C226.498 103.73 227.323 103.516 228.385 103.516H229.615V102.935C229.615 102.493 229.483 102.142 229.219 101.882C228.954 101.618 228.565 101.485 228.05 101.485C227.599 101.485 227.22 101.599 226.915 101.827C226.61 102.055 226.457 102.331 226.457 102.654H225.186C225.186 102.285 225.315 101.93 225.575 101.588C225.84 101.242 226.195 100.968 226.642 100.768C227.093 100.567 227.587 100.467 228.125 100.467C228.977 100.467 229.645 100.681 230.128 101.109C230.611 101.533 230.862 102.119 230.88 102.866V106.271C230.88 106.95 230.967 107.49 231.14 107.891V108H229.814ZM227.715 107.036C228.111 107.036 228.487 106.934 228.843 106.729C229.198 106.523 229.456 106.257 229.615 105.929V104.411H228.624C227.075 104.411 226.3 104.865 226.3 105.771C226.3 106.168 226.432 106.478 226.696 106.701C226.961 106.924 227.3 107.036 227.715 107.036ZM234.059 100.604L234.1 101.533C234.665 100.822 235.403 100.467 236.314 100.467C237.878 100.467 238.666 101.349 238.68 103.112V108H237.415V103.105C237.411 102.572 237.287 102.178 237.046 101.923C236.809 101.668 236.438 101.54 235.932 101.54C235.522 101.54 235.161 101.649 234.852 101.868C234.542 102.087 234.3 102.374 234.127 102.729V108H232.862V100.604H234.059ZM243.554 107.104C244.005 107.104 244.399 106.968 244.736 106.694C245.074 106.421 245.26 106.079 245.297 105.669H246.493C246.47 106.093 246.325 106.496 246.056 106.879C245.787 107.262 245.427 107.567 244.976 107.795C244.529 108.023 244.055 108.137 243.554 108.137C242.547 108.137 241.744 107.802 241.147 107.132C240.555 106.457 240.259 105.537 240.259 104.37V104.158C240.259 103.438 240.391 102.798 240.655 102.237C240.92 101.677 241.298 101.242 241.79 100.932C242.287 100.622 242.872 100.467 243.547 100.467C244.376 100.467 245.064 100.715 245.611 101.212C246.163 101.709 246.457 102.354 246.493 103.146H245.297C245.26 102.668 245.078 102.276 244.75 101.971C244.426 101.661 244.025 101.506 243.547 101.506C242.904 101.506 242.405 101.738 242.05 102.203C241.699 102.663 241.523 103.331 241.523 104.206V104.445C241.523 105.298 241.699 105.954 242.05 106.414C242.401 106.874 242.902 107.104 243.554 107.104ZM250.984 108.137C249.982 108.137 249.166 107.809 248.537 107.152C247.908 106.492 247.594 105.61 247.594 104.507V104.274C247.594 103.541 247.733 102.887 248.011 102.312C248.293 101.734 248.685 101.283 249.187 100.959C249.692 100.631 250.239 100.467 250.827 100.467C251.789 100.467 252.536 100.784 253.069 101.417C253.603 102.05 253.869 102.957 253.869 104.138V104.664H248.858C248.877 105.393 249.089 105.983 249.494 106.435C249.904 106.881 250.424 107.104 251.053 107.104C251.499 107.104 251.878 107.013 252.188 106.831C252.497 106.649 252.769 106.407 253.001 106.106L253.773 106.708C253.154 107.66 252.224 108.137 250.984 108.137ZM250.827 101.506C250.317 101.506 249.888 101.693 249.542 102.066C249.196 102.436 248.981 102.955 248.899 103.625H252.605V103.529C252.568 102.887 252.395 102.39 252.085 102.039C251.775 101.684 251.356 101.506 250.827 101.506Z" fill="#1F2432"/>
<path d="M189.589 44.2881H186.253V43.2559H189.589V44.2881ZM189.589 64.2881H186.253V63.2559H189.589V64.2881ZM189.589 84.2881H186.253V83.2559H189.589V84.2881ZM189.589 104.288H186.253V103.256H189.589V104.288Z" fill="#1F2432"/>
</svg>
