<svg width="65" height="65" viewBox="0 0 65 65" fill="none" xmlns="http://www.w3.org/2000/svg">
<path d="M55.0694 0H0V55.0694C6.89983 61.2449 16.0114 65 26 65C47.5391 65 65 47.5391 65 26C65 16.0114 61.2449 6.89983 55.0694 0Z" fill="#00DCE6" fill-opacity="0.1"/>
<path d="M13.4822 26.0726L12.9835 26.0361L12.9471 26.5343L13.4453 26.5712L13.4822 26.0726ZM16.4455 26.2921L16.4085 26.7907L16.9085 26.8278L16.9442 26.3277L16.4455 26.2921ZM16.6101 23.9874L16.5627 23.4896L16.1415 23.5297L16.1114 23.9517L16.6101 23.9874ZM19.8477 22.8899L20.224 22.5606L19.9465 22.2435L19.587 22.4632L19.8477 22.8899ZM21.3842 24.6459L21.0079 24.9751L21.3332 25.3468L21.7088 25.0261L21.3842 24.6459ZM23.6341 22.7252L23.9587 23.1055L24.3437 22.7769L24.0104 22.396L23.6341 22.7252ZM22.0976 20.9692L21.7095 20.6539L21.4436 20.9812L21.7213 21.2985L22.0976 20.9692ZM23.6341 17.8962L23.6697 17.3975L23.2648 17.3686L23.1533 17.7589L23.6341 17.8962ZM25.9388 18.0609L25.9032 18.5596L26.4006 18.5951L26.4375 18.0978L25.9388 18.0609ZM26.1583 15.0976L26.657 15.1346L26.694 14.6346L26.1939 14.5989L26.1583 15.0976ZM23.8536 14.933L23.3558 14.9804L23.3959 15.4016L23.818 15.4317L23.8536 14.933ZM22.7561 11.6954L22.4268 11.3191L22.1097 11.5966L22.3294 11.9561L22.7561 11.6954ZM24.5121 10.1589L24.8413 10.5352L25.213 10.2099L24.8924 9.83425L24.5121 10.1589ZM22.5914 7.90901L22.9717 7.58438L22.6431 7.19942L22.2622 7.53272L22.5914 7.90901ZM20.8355 9.44551L20.5202 9.83357L20.8474 10.0994L21.1647 9.8218L20.8355 9.44551ZM17.7625 7.90901L17.2637 7.87339L17.2348 8.27826L17.6251 8.38977L17.7625 7.90901ZM17.9271 5.60427L18.4258 5.63989L18.4613 5.14247L17.964 5.10563L17.9271 5.60427ZM14.9638 5.38477L15.0008 4.88613L14.5125 4.84996L14.4661 5.33736L14.9638 5.38477ZM14.7443 7.68951L14.7917 8.18726L15.2029 8.1481L15.2421 7.73692L14.7443 7.68951ZM11.5067 8.78701L11.1304 9.11626L11.4079 9.43337L11.7674 9.21365L11.5067 8.78701ZM9.97022 7.03101L10.3465 6.70176L10.0126 6.32017L9.63574 6.65937L9.97022 7.03101ZM7.77522 9.00651L7.44074 8.63486L7.07425 8.9647L7.39893 9.33576L7.77522 9.00651ZM9.31172 10.7625L9.69978 11.0778L9.96566 10.7506L9.68801 10.4333L9.31172 10.7625ZM7.77522 13.8355L7.7396 14.3342L8.14447 14.3632L8.25598 13.9729L7.77522 13.8355ZM5.47048 13.6709L5.5061 13.1721L5.00868 13.1366L4.97184 13.6339L5.47048 13.6709ZM5.25098 16.6341L4.75234 16.5972L4.71531 17.0971L5.21535 17.1329L5.25098 16.6341ZM7.55572 16.7987L8.05347 16.7513L8.01336 16.3302L7.59135 16.3L7.55572 16.7987ZM8.65322 20.0364L8.98247 20.4127L9.29958 20.1352L9.07986 19.7756L8.65322 20.0364ZM6.89722 21.5729L6.56797 21.1966L6.19625 21.5218L6.51694 21.8975L6.89722 21.5729ZM8.81785 23.8227L8.43756 24.1474L8.76619 24.5323L9.1471 24.199L8.81785 23.8227ZM10.5738 22.2862L10.8891 21.8982L10.5619 21.6323L10.2446 21.91L10.5738 22.2862ZM13.6468 23.8227L14.1455 23.8592L14.1752 23.4537L13.7842 23.342L13.6468 23.8227ZM21.0001 16.1951L21.4987 16.2328L21.4993 16.2234L21.0001 16.1951ZM15.348 21.1339L15.311 21.6326L15.3197 21.6331L15.348 21.1339ZM41.5233 46.2118L41.1603 46.5557L41.5024 46.9168L41.8653 46.5766L41.5233 46.2118ZM44.1573 43.7424L44.4993 44.1072L44.8659 43.7635L44.5203 43.3986L44.1573 43.7424ZM42.1818 41.6572L41.7749 41.3666L41.5354 41.7019L41.8188 42.0011L42.1818 41.6572ZM43.8829 37.8708L43.8925 37.3709L43.478 37.3629L43.3934 37.7689L43.8829 37.8708ZM46.7364 37.9257L46.7268 38.4256L47.2212 38.4351L47.2362 37.9408L46.7364 37.9257ZM46.8462 34.304L47.3459 34.3191L47.3613 33.8138L46.8558 33.8041L46.8462 34.304ZM43.9927 34.2491L43.4989 34.3281L43.565 34.741L43.9831 34.749L43.9927 34.2491ZM42.511 30.353L42.1672 29.99L41.8679 30.2736L42.0892 30.6214L42.511 30.353ZM44.5963 28.3775L44.9402 28.7404L45.3013 28.3984L44.9611 28.0355L44.5963 28.3775ZM42.1269 25.7435L42.4917 25.4015L42.1479 25.0348L41.7831 25.3805L42.1269 25.7435ZM40.0417 27.719L39.7511 28.1258L40.0864 28.3654L40.3856 28.0819L40.0417 27.719ZM36.2553 26.0178L35.7554 26.0082L35.7474 26.4228L36.1533 26.5073L36.2553 26.0178ZM36.3102 23.1644L36.8101 23.174L36.8196 22.6796L36.3253 22.6646L36.3102 23.1644ZM32.6884 23.0546L32.7036 22.5548L32.1982 22.5395L32.1885 23.045L32.6884 23.0546ZM32.6336 25.9081L32.7126 26.4018L33.1254 26.3358L33.1335 25.9177L32.6336 25.9081ZM28.7374 27.3897L28.3745 27.7336L28.658 28.0329L29.0059 27.8116L28.7374 27.3897ZM26.7619 25.3045L27.1249 24.9606L26.7828 24.5995L26.42 24.9397L26.7619 25.3045ZM24.1279 27.7738L23.786 27.4091L23.4193 27.7528L23.765 28.1177L24.1279 27.7738ZM26.1034 29.8591L26.5103 30.1497L26.7498 29.8144L26.4664 29.5152L26.1034 29.8591ZM24.4023 33.6455L24.3927 34.1454L24.8072 34.1533L24.8918 33.7474L24.4023 33.6455ZM21.5488 33.5906L21.5584 33.0907L21.064 33.0812L21.0491 33.5754L21.5488 33.5906ZM21.4391 37.2123L20.9393 37.1972L20.924 37.7025L21.4295 37.7122L21.4391 37.2123ZM24.2926 37.2672L24.7863 37.1882L24.7202 36.7753L24.3022 36.7673L24.2926 37.2672ZM25.7742 41.1633L26.1181 41.5263L26.4174 41.2427L26.196 40.8949L25.7742 41.1633ZM23.6889 43.1388L23.3451 42.7758L22.984 43.1179L23.3242 43.4808L23.6889 43.1388ZM26.1583 45.7728L25.7936 46.1148L26.1373 46.4815L26.5022 46.1358L26.1583 45.7728ZM28.2436 43.7973L28.5342 43.3905L28.1989 43.1509L27.8997 43.4343L28.2436 43.7973ZM32.0299 45.4984L32.5298 45.5081L32.5378 45.0935L32.1319 45.009L32.0299 45.4984ZM31.9751 48.3519L31.4752 48.3423L31.4656 48.8367L31.9599 48.8517L31.9751 48.3519ZM35.5968 48.4617L35.5817 48.9615L36.087 48.9768L36.0967 48.4713L35.5968 48.4617ZM35.6517 45.6082L35.5727 45.1145L35.1598 45.1805L35.1518 45.5986L35.6517 45.6082ZM39.5478 44.1266L39.9108 43.7827L39.6272 43.4834L39.2794 43.7047L39.5478 44.1266ZM40.0417 25.4692L40.5401 25.4276L40.5393 25.4198L40.0417 25.4692ZM25.1706 12.0248V12.5248L25.1742 12.5248L25.1706 12.0248ZM23.7987 12.0797V12.5797H23.8264L23.854 12.5766L23.7987 12.0797ZM10.4641 28.3775L10.962 28.3312L10.9616 28.3277L10.4641 28.3775ZM13.4453 26.5712L16.4085 26.7907L16.4824 25.7935L13.5191 25.574L13.4453 26.5712ZM16.9442 26.3277L17.1088 24.023L16.1114 23.9517L15.9467 26.2565L16.9442 26.3277ZM16.6575 24.4851C17.8905 24.3677 19.0604 23.957 20.1084 23.3165L19.587 22.4632C18.6595 23.03 17.6344 23.3876 16.5627 23.4896L16.6575 24.4851ZM19.4714 23.2191L21.0079 24.9751L21.7605 24.3166L20.224 22.5606L19.4714 23.2191ZM21.7088 25.0261L23.9587 23.1055L23.3094 22.345L21.0596 24.2656L21.7088 25.0261ZM24.0104 22.396L22.4739 20.64L21.7213 21.2985L23.2578 23.0545L24.0104 22.396ZM22.4856 21.2845C23.2505 20.3431 23.7714 19.2358 24.1148 18.0336L23.1533 17.7589C22.8383 18.8615 22.3713 19.8394 21.7095 20.6539L22.4856 21.2845ZM23.5985 18.395L25.9032 18.5596L25.9744 17.5621L23.6697 17.3975L23.5985 18.395ZM26.4375 18.0978L26.657 15.1346L25.6597 15.0607L25.4402 18.0239L26.4375 18.0978ZM26.1939 14.5989L23.8892 14.4343L23.818 15.4317L26.1227 15.5964L26.1939 14.5989ZM24.3513 14.8856C24.2339 13.6526 23.8232 12.4827 23.1827 11.4347L22.3294 11.9561C22.8962 12.8836 23.2538 13.9087 23.3558 14.9804L24.3513 14.8856ZM23.0853 12.0717L24.8413 10.5352L24.1828 9.7826L22.4268 11.3191L23.0853 12.0717ZM24.8924 9.83425L22.9717 7.58438L22.2112 8.23364L24.1318 10.4835L24.8924 9.83425ZM22.2622 7.53272L20.5062 9.06922L21.1647 9.8218L22.9207 8.2853L22.2622 7.53272ZM21.1507 9.05745C20.2093 8.29254 19.102 7.77173 17.8998 7.42825L17.6251 8.38977C18.7277 8.7048 19.7056 9.17174 20.5202 9.83357L21.1507 9.05745ZM18.2612 7.94464L18.4258 5.63989L17.4284 5.56864L17.2637 7.87339L18.2612 7.94464ZM17.964 5.10563L15.0008 4.88613L14.9269 5.8834L17.8901 6.1029L17.964 5.10563ZM14.4661 5.33736L14.2466 7.64211L15.2421 7.73692L15.4616 5.43217L14.4661 5.33736ZM14.6969 7.19176C13.4639 7.3092 12.294 7.7199 11.246 8.36037L11.7674 9.21365C12.6949 8.64687 13.72 8.28933 14.7917 8.18726L14.6969 7.19176ZM11.883 8.45776L10.3465 6.70176L9.59393 7.36027L11.1304 9.11626L11.883 8.45776ZM9.63574 6.65937L7.44074 8.63486L8.1097 9.37816L10.3047 7.40266L9.63574 6.65937ZM7.39893 9.33576L8.93543 11.0918L9.68801 10.4333L8.15151 8.67726L7.39893 9.33576ZM8.92366 10.4472C8.15875 11.3886 7.63794 12.496 7.29446 13.6981L8.25598 13.9729C8.57101 12.8703 9.03795 11.8924 9.69978 11.0778L8.92366 10.4472ZM7.81085 13.3368L5.5061 13.1721L5.43485 14.1696L7.7396 14.3342L7.81085 13.3368ZM4.97184 13.6339L4.75234 16.5972L5.74961 16.6711L5.96911 13.7078L4.97184 13.6339ZM5.21535 17.1329L7.5201 17.2975L7.59135 16.3L5.2866 16.1354L5.21535 17.1329ZM7.05798 16.8462C7.17541 18.0792 7.58611 19.2491 8.22658 20.2971L9.07986 19.7756C8.51308 18.8482 8.15554 17.8231 8.05347 16.7513L7.05798 16.8462ZM8.32397 19.6601L6.56797 21.1966L7.22648 21.9492L8.98247 20.4127L8.32397 19.6601ZM6.51694 21.8975L8.43756 24.1474L9.19813 23.4981L7.27751 21.2482L6.51694 21.8975ZM9.1471 24.199L10.9031 22.6625L10.2446 21.91L8.48859 23.4465L9.1471 24.199ZM10.2585 22.6743C11.2 23.4392 12.3073 23.96 13.5095 24.3035L13.7842 23.342C12.6816 23.027 11.7037 22.56 10.8891 21.8982L10.2585 22.6743ZM13.1482 23.7863L12.9835 26.0361L13.9809 26.1091L14.1455 23.8592L13.1482 23.7863ZM10.9078 15.5194C11.1066 12.8846 13.3948 10.8929 16.0331 11.0422L16.0896 10.0438C12.9111 9.86389 10.1508 12.2621 9.91064 15.4441L10.9078 15.5194ZM16.0331 11.0422C18.652 11.1904 20.6507 13.5202 20.5009 16.1669L21.4993 16.2234C21.6787 13.0533 19.2875 10.2248 16.0896 10.0438L16.0331 11.0422ZM20.5015 16.1575C20.3026 18.7922 18.0145 20.784 15.3762 20.6347L15.3197 21.6331C18.4982 21.813 21.2585 19.4148 21.4987 16.2328L20.5015 16.1575ZM15.3849 20.6352C12.691 20.4357 10.7096 18.1459 10.9078 15.5194L9.91064 15.4441C9.66986 18.6343 12.0784 21.393 15.311 21.6325L15.3849 20.6352ZM41.8653 46.5766L44.4993 44.1072L43.8153 43.3777L41.1813 45.847L41.8653 46.5766ZM44.5203 43.3986L42.5448 41.3133L41.8188 42.0011L43.7943 44.0863L44.5203 43.3986ZM42.5887 41.9478C43.4475 40.7455 44.0823 39.3651 44.3724 37.9728L43.3934 37.7689C43.1347 39.0105 42.5623 40.2642 41.7749 41.3666L42.5887 41.9478ZM43.8733 38.3707L46.7268 38.4256L46.746 37.4258L43.8925 37.3709L43.8733 38.3707ZM47.2362 37.9408L47.3459 34.3191L46.3464 34.2888L46.2366 37.9106L47.2362 37.9408ZM46.8558 33.8041L44.0023 33.7492L43.9831 34.749L46.8366 34.8039L46.8558 33.8041ZM44.4864 34.1701C44.2562 32.7311 43.7379 31.3496 42.9329 30.0845L42.0892 30.6214C42.8207 31.7708 43.2902 33.0233 43.4989 34.3281L44.4864 34.1701ZM42.8549 30.7159L44.9402 28.7404L44.2524 28.0145L42.1672 29.99L42.8549 30.7159ZM44.9611 28.0355L42.4917 25.4015L41.7622 26.0854L44.2315 28.7194L44.9611 28.0355ZM41.7831 25.3805L39.6978 27.356L40.3856 28.0819L42.4708 26.1064L41.7831 25.3805ZM40.3323 27.3121C39.1299 26.4533 37.7496 25.8184 36.3573 25.5284L36.1533 26.5073C37.395 26.766 38.6487 27.3384 39.7511 28.1258L40.3323 27.3121ZM36.7552 26.0275L36.8101 23.174L35.8103 23.1547L35.7554 26.0082L36.7552 26.0275ZM36.3253 22.6646L32.7036 22.5548L32.6733 23.5544L36.295 23.6641L36.3253 22.6646ZM32.1885 23.045L32.1337 25.8985L33.1335 25.9177L33.1883 23.0642L32.1885 23.045ZM32.5546 25.4144C31.1156 25.6446 29.7341 26.1628 28.469 26.9679L29.0059 27.8116C30.1553 27.0801 31.4078 26.6106 32.7126 26.4018L32.5546 25.4144ZM29.1004 27.0458L27.1249 24.9606L26.399 25.6483L28.3745 27.7336L29.1004 27.0458ZM26.42 24.9397L23.786 27.4091L24.4699 28.1386L27.1039 25.6692L26.42 24.9397ZM23.765 28.1177L25.7405 30.203L26.4664 29.5152L24.4909 27.43L23.765 28.1177ZM25.6966 29.5685C24.8377 30.7708 24.2029 32.1512 23.9128 33.5435L24.8918 33.7474C25.1505 32.5058 25.7229 31.2521 26.5103 30.1497L25.6966 29.5685ZM24.4119 33.1456L21.5584 33.0907L21.5392 34.0905L24.3927 34.1454L24.4119 33.1456ZM21.0491 33.5754L20.9393 37.1972L21.9388 37.2275L22.0486 33.6057L21.0491 33.5754ZM21.4295 37.7122L24.283 37.7671L24.3022 36.7673L21.4487 36.7124L21.4295 37.7122ZM23.7989 37.3462C24.0291 38.7852 24.5473 40.1667 25.3524 41.4318L26.196 40.8949C25.4646 39.7455 24.9951 38.493 24.7863 37.1882L23.7989 37.3462ZM25.4303 40.8004L23.3451 42.7758L24.0328 43.5018L26.1181 41.5263L25.4303 40.8004ZM23.3242 43.4808L25.7936 46.1148L26.5231 45.4308L24.0537 42.7968L23.3242 43.4808ZM26.5022 46.1358L28.5874 44.1603L27.8997 43.4343L25.8144 45.4098L26.5022 46.1358ZM27.9529 44.2042C29.1553 45.063 30.5356 45.6979 31.928 45.9879L32.1319 45.009C30.8902 44.7503 29.6366 44.1779 28.5342 43.3905L27.9529 44.2042ZM31.53 45.4888L31.4752 48.3423L32.475 48.3616L32.5298 45.5081L31.53 45.4888ZM31.9599 48.8517L35.5817 48.9615L35.612 47.9619L31.9902 47.8522L31.9599 48.8517ZM36.0967 48.4713L36.1516 45.6178L35.1518 45.5986L35.0969 48.4521L36.0967 48.4713ZM35.7307 46.1019C37.1696 45.8717 38.5511 45.3535 39.8162 44.5484L39.2794 43.7047C38.13 44.4362 36.8775 44.9057 35.5727 45.1145L35.7307 46.1019ZM39.1848 44.4704L41.1603 46.5557L41.8863 45.8679L39.9108 43.7827L39.1848 44.4704ZM31.5723 38.243C30.219 36.793 30.2738 34.5307 31.7126 33.1879L31.0303 32.4568C29.1766 34.1869 29.1216 37.0829 30.8413 38.9254L31.5723 38.243ZM31.7126 33.1879C33.1626 31.8345 35.4249 31.8893 36.7678 33.3281L37.4988 32.6458C35.7687 30.7921 32.8728 30.7372 31.0303 32.4568L31.7126 33.1879ZM36.7678 33.3281C38.1211 34.7781 38.0663 37.0404 36.6275 38.3833L37.3098 39.1144C39.1636 37.3842 39.2185 34.4883 37.4988 32.6458L36.7678 33.3281ZM36.6275 38.3833C35.1775 39.7366 32.9152 39.6818 31.5723 38.243L30.8413 38.9254C32.5714 40.7791 35.4674 40.834 37.3098 39.1144L36.6275 38.3833ZM40.5966 27.3898C40.5966 26.7338 40.5969 26.11 40.54 25.4276L39.5434 25.5107C39.5963 26.1453 39.5966 26.7288 39.5966 27.3898H40.5966ZM40.5393 25.4198C39.7455 17.4256 33.0533 11.4681 25.167 11.5248L25.1742 12.5248C32.5431 12.4718 38.8014 18.038 39.5442 25.5186L40.5393 25.4198ZM25.1706 11.5248C24.7337 11.5248 24.2686 11.5244 23.7435 11.5827L23.854 12.5766C24.3166 12.5252 24.7296 12.5248 25.1706 12.5248V11.5248ZM23.7987 11.5797C23.6519 11.5797 23.512 11.5979 23.4103 11.6115C23.2923 11.6272 23.2361 11.6346 23.1951 11.6346V12.6346C23.3188 12.6346 23.4547 12.6144 23.5424 12.6027C23.6465 12.5889 23.7261 12.5797 23.7987 12.5797V11.5797ZM9.96714 25.1944C9.85312 26.2206 9.8537 27.2986 9.96656 28.4272L10.9616 28.3277C10.855 27.2614 10.8555 26.2541 10.961 25.3048L9.96714 25.1944ZM9.96622 28.4237C10.7037 36.3656 17.3968 42.3218 25.1706 42.3218V41.3218C17.9086 41.3218 11.6512 35.7543 10.9619 28.3312L9.96622 28.4237ZM41.7007 19.1638C39.613 14.7626 35.889 11.4343 31.3772 9.79878L31.0364 10.7389C35.3047 12.2862 38.8242 15.4331 40.7972 19.5924L41.7007 19.1638ZM7.73199 31.8021C9.03056 36.5447 12.1917 40.4385 16.3104 42.7518L16.8001 41.8799C12.907 39.6933 9.92216 36.0144 8.69648 31.538L7.73199 31.8021ZM10.588 22.2002C10.3074 23.1545 10.0808 24.1714 9.96714 25.1944L10.961 25.3048C11.0669 24.3523 11.2793 23.3939 11.5474 22.4824L10.588 22.2002Z" fill="#00DCE6"/>
</svg>
