<svg width="65" height="65" viewBox="0 0 65 65" fill="none" xmlns="http://www.w3.org/2000/svg">
<path d="M55.0694 0H0V55.0694C6.89984 61.2449 16.0114 65 26 65C47.5391 65 65 47.5391 65 26C65 16.0114 61.2449 6.89983 55.0694 0Z" fill="#00DCE6" fill-opacity="0.1"/>
<path d="M5.38477 5.38477V4.88477H4.88477V5.38477H5.38477ZM30.6925 5.38477H31.1925V4.88477H30.6925V5.38477ZM5.38477 36.3463H4.88477V36.8463H5.38477V36.3463ZM36.6151 20.4617L36.937 20.0792L36.6234 19.8153L36.3032 20.071L36.6151 20.4617ZM48.4597 26.7128L48.9596 26.7074L48.9558 26.3573L48.6256 26.2412L48.4597 26.7128ZM36.6151 48.4615L36.39 48.908L36.6235 49.0257L36.8534 48.9011L36.6151 48.4615ZM24.7705 26.7128L24.5999 26.2428L24.2738 26.3611L24.2705 26.708L24.7705 26.7128ZM31.4926 32.4385V31.9385H30.9926V32.4385H31.4926ZM41.5204 32.4385H42.0204V31.9385H41.5204V32.4385ZM7.53861 8.57707H10.7694V7.57707H7.53861V8.57707ZM7.53861 16.1155H10.7694V15.1155H7.53861V16.1155ZM7.53861 24.1925H10.7694V23.1925H7.53861V24.1925ZM7.53861 32.2694H10.7694V31.2694H7.53861V32.2694ZM5.38477 5.88477H30.6925V4.88477H5.38477V5.88477ZM5.88477 36.3463V5.38477H4.88477V36.3463H5.88477ZM30.1925 5.38477V24.2309H31.1925V5.38477H30.1925ZM26.3848 35.8463H5.38477V36.8463H26.3848V35.8463ZM36.2931 20.8443C38.4741 22.6795 41.4851 24.2647 43.9248 25.3847C45.1495 25.9469 46.2398 26.3961 47.0243 26.705C47.4167 26.8594 47.7329 26.9789 47.9515 27.0599C48.0608 27.1005 48.1458 27.1314 48.2037 27.1523C48.2327 27.1627 48.2549 27.1707 48.27 27.1761C48.2775 27.1788 48.2833 27.1808 48.2873 27.1822C48.2893 27.1829 48.2908 27.1835 48.2919 27.1838C48.2924 27.184 48.2928 27.1842 48.2931 27.1843C48.2933 27.1843 48.2934 27.1844 48.2935 27.1844C48.2936 27.1845 48.2937 27.1845 48.4597 26.7128C48.6256 26.2412 48.6256 26.2412 48.6256 26.2412C48.6256 26.2412 48.6255 26.2411 48.6255 26.2411C48.6253 26.2411 48.625 26.241 48.6247 26.2408C48.6239 26.2406 48.6227 26.2401 48.621 26.2395C48.6176 26.2383 48.6125 26.2365 48.6055 26.234C48.5917 26.2291 48.5707 26.2216 48.5431 26.2116C48.4878 26.1917 48.4055 26.1618 48.2991 26.1223C48.0861 26.0433 47.7762 25.9263 47.3906 25.7745C46.6193 25.4708 45.5464 25.0288 44.342 24.4759C41.9235 23.3657 39.0122 21.8253 36.937 20.0792L36.2931 20.8443ZM47.9597 26.7182C48.0406 34.1926 45.1388 39.5173 42.2171 42.9786C40.7548 44.7111 39.2874 45.9762 38.1876 46.807C37.6379 47.2222 37.1809 47.5284 36.8632 47.7296C36.7044 47.8302 36.5806 47.9045 36.4975 47.953C36.456 47.9773 36.4247 47.9952 36.4043 48.0066C36.3941 48.0124 36.3867 48.0165 36.382 48.0191C36.3797 48.0203 36.3781 48.0212 36.3772 48.0217C36.3768 48.0219 36.3765 48.0221 36.3764 48.0221C36.3764 48.0221 36.3765 48.0221 36.3765 48.0221C36.3766 48.022 36.3767 48.022 36.6151 48.4615C36.8534 48.9011 36.8536 48.9009 36.854 48.9007C36.8541 48.9007 36.8545 48.9005 36.8548 48.9003C36.8554 48.8999 36.8563 48.8995 36.8573 48.8989C36.8593 48.8978 36.8621 48.8963 36.8655 48.8944C36.8724 48.8906 36.8822 48.8851 36.8947 48.8781C36.9198 48.864 36.9559 48.8434 37.0023 48.8163C37.0951 48.762 37.2291 48.6816 37.3983 48.5743C37.7368 48.3599 38.2167 48.0383 38.7904 47.605C39.9372 46.7387 41.4619 45.4236 42.9813 43.6236C46.0232 40.0198 49.0437 34.4701 48.9596 26.7074L47.9597 26.7182ZM36.8401 48.015C30.885 45.0135 25.1732 36.8611 25.2705 26.7176L24.2705 26.708C24.1698 37.2062 30.0717 45.7235 36.39 48.908L36.8401 48.015ZM24.7705 26.7128C24.941 27.1828 24.9411 27.1828 24.9412 27.1828C24.9413 27.1827 24.9414 27.1827 24.9416 27.1826C24.9419 27.1825 24.9423 27.1824 24.9428 27.1822C24.9438 27.1818 24.9453 27.1813 24.9472 27.1806C24.9511 27.1792 24.9567 27.1771 24.964 27.1744C24.9787 27.169 25.0002 27.1611 25.0283 27.1507C25.0846 27.1298 25.1671 27.0989 25.2734 27.0583C25.486 26.9773 25.7939 26.8579 26.1771 26.7035C26.9432 26.3947 28.0112 25.9457 29.2208 25.3837C31.6323 24.2634 34.6364 22.6807 36.927 20.8525L36.3032 20.071C34.1067 21.8241 31.1885 23.367 28.7995 24.4768C27.6087 25.03 26.557 25.4722 25.8033 25.776C25.4266 25.9278 25.1246 26.0449 24.9174 26.1239C24.8137 26.1634 24.7338 26.1933 24.6801 26.2133C24.6532 26.2232 24.6329 26.2307 24.6194 26.2357C24.6127 26.2381 24.6077 26.24 24.6044 26.2412C24.6028 26.2418 24.6016 26.2422 24.6008 26.2425C24.6005 26.2426 24.6002 26.2427 24.6 26.2428C24.6 26.2428 24.5999 26.2428 24.5999 26.2428C24.5999 26.2428 24.5999 26.2428 24.7705 26.7128ZM31.4926 32.9385H41.5204V31.9385H31.4926V32.9385ZM41.0204 32.4385V37.7067H42.0204V32.4385H41.0204ZM41.0204 37.7067C41.0204 38.551 40.3419 39.205 39.5221 39.205V40.205C40.8822 40.205 42.0204 39.1151 42.0204 37.7067H41.0204ZM39.5221 39.205H33.4909V40.205H39.5221V39.205ZM33.4909 39.205C32.6466 39.205 31.9926 38.5265 31.9926 37.7067H30.9926C30.9926 39.0669 32.0825 40.205 33.4909 40.205V39.205ZM31.9926 37.7067V32.4385H30.9926V37.7067H31.9926ZM36.5064 34.4288C36.6455 34.4288 36.7694 34.5472 36.7694 34.6918H37.7694C37.7694 33.9643 37.1666 33.4288 36.5064 33.4288V34.4288ZM36.7694 34.6918V36.9444H37.7694V34.6918H36.7694ZM36.7694 36.9444C36.7694 37.0835 36.6509 37.2074 36.5064 37.2074V38.2074C37.2338 38.2074 37.7694 37.6046 37.7694 36.9444H36.7694ZM36.5064 37.2074C36.3673 37.2074 36.2434 37.0889 36.2434 36.9444H35.2434C35.2434 37.6718 35.8462 38.2074 36.5064 38.2074V37.2074ZM36.2434 36.9444V34.6918H35.2434V36.9444H36.2434ZM36.2434 34.6918C36.2434 34.5319 36.3465 34.4288 36.5064 34.4288V33.4288C35.7943 33.4288 35.2434 33.9796 35.2434 34.6918H36.2434ZM32.9288 31.3249C32.9288 29.0782 34.6193 27.4096 36.5682 27.4096V26.4096C34.0218 26.4096 31.9288 28.5722 31.9288 31.3249H32.9288ZM36.5682 27.4096C38.5254 27.4096 40.2076 28.9733 40.2076 31.3249H41.2076C41.2076 28.4498 39.1062 26.4096 36.5682 26.4096V27.4096ZM5.38477 13.6925H30.6925V12.6925H5.38477V13.6925ZM5.38477 21.2309H30.6925V20.2309H5.38477V21.2309ZM5.38477 29.3078H24.7694V28.3078H5.38477V29.3078Z" fill="#00DCE6"/>
</svg>
