<svg width="65" height="65" viewBox="0 0 65 65" fill="none" xmlns="http://www.w3.org/2000/svg">
<path d="M55.2045 0H0V54.9479C6.91579 61.1956 16.0812 65 26.1351 65C46.573 65 63.3391 49.2789 65 29.2698V22.7302C64.2777 14.0293 60.6992 6.13916 55.2045 0Z" fill="#00DCE6" fill-opacity="0.1"/>
<path d="M6.05333 7.84307H5.55333V7.34307H6.05333V7.84307ZM6.05333 46.7964V47.2964H5.55333V46.7964H6.05333ZM46.1774 7.84307V7.34307H46.6774V7.84307H46.1774ZM46.1774 46.7963H46.6774V47.2963H46.1774V46.7963ZM5.38464 27.3189L4.91705 27.496L4.85032 27.3198L4.91647 27.1433L5.38464 27.3189ZM46.8462 27.3191L47.3138 27.142L47.381 27.3195L47.3135 27.4969L46.8462 27.3191ZM5.55333 14.5592V7.84307H6.55333V14.5592H5.55333ZM6.05333 7.34307H12.7407V8.34307H6.05333V7.34307ZM6.55333 40.0803V46.7964H5.55333V40.0803H6.55333ZM6.05333 46.2964H12.7407V47.2964H6.05333V46.2964ZM45.6774 14.5592V7.84307H46.6774V14.5592H45.6774ZM46.1774 8.34307H39.4901V7.34307H46.1774V8.34307ZM46.6774 40.0802V46.7963H45.6774V40.0802H46.6774ZM46.1774 47.2963H39.4901V46.2963H46.1774V47.2963ZM23.2985 27.2792C23.2985 28.8358 24.5651 30.1373 26.1422 30.1373V31.1373C24.001 31.1373 22.2985 29.3762 22.2985 27.2792H23.2985ZM26.1422 30.1373C27.7192 30.1373 28.9858 28.8358 28.9858 27.2792H29.9858C29.9858 29.3762 28.2833 31.1373 26.1422 31.1373V30.1373ZM28.9858 27.2792C28.9858 25.7227 27.7192 24.4212 26.1422 24.4212V23.4212C28.2833 23.4212 29.9858 25.1823 29.9858 27.2792H28.9858ZM26.1422 24.4212C24.5772 24.4212 23.2985 25.724 23.2985 27.2792H22.2985C22.2985 25.181 24.0157 23.4212 26.1422 23.4212V24.4212ZM23.5798 13.6848C15.4069 14.6566 8.62283 20.1066 5.85282 27.4944L4.91647 27.1433C7.81733 19.4065 14.9162 13.7079 23.4617 12.6917L23.5798 13.6848ZM5.85223 27.1418C8.63634 34.493 15.3826 39.9815 23.553 40.953L23.435 41.946C14.887 40.9296 7.83056 35.1888 4.91705 27.496L5.85223 27.1418ZM28.6378 40.9532C36.822 39.9816 43.5816 34.4927 46.3789 27.1413L47.3135 27.4969C44.3864 35.1896 37.3166 40.9299 28.7557 41.9463L28.6378 40.9532ZM46.3786 27.4962C43.5947 20.1456 36.8355 14.6566 28.6511 13.685L28.769 12.692C37.3298 13.7083 44.4001 19.4487 47.3138 27.142L46.3786 27.4962ZM23.6441 17.3942C20.0243 18.3158 17.1531 21.1984 16.2348 24.8361L15.2652 24.5913C16.2729 20.5996 19.4203 17.4377 23.3974 16.4251L23.6441 17.3942ZM35.996 24.8361C35.0777 21.1984 32.2065 18.3158 28.5867 17.3942L28.8334 16.4251C32.8105 17.4377 35.9579 20.5996 36.9656 24.5913L35.996 24.8361ZM23.3974 38.2133C19.4203 37.2008 16.2729 34.0389 15.2652 30.0471L16.2348 29.8023C17.1531 33.44 20.0243 36.3226 23.6441 37.2443L23.3974 38.2133ZM36.9656 30.0471C35.9579 34.0389 32.8105 37.2008 28.8334 38.2133L28.5867 37.2443C32.2065 36.3226 35.0777 33.44 35.996 29.8023L36.9656 30.0471ZM27.4896 22.2892C27.0794 22.1597 26.6233 22.0975 26.1154 22.0975V21.0975C26.7042 21.0975 27.2647 21.1696 27.7906 21.3356L27.4896 22.2892ZM26.1154 22.0975C23.2616 22.0975 20.9044 24.426 20.9044 27.333H19.9044C19.9044 23.8732 22.7099 21.0975 26.1154 21.0975V22.0975ZM20.9044 27.333C20.9044 30.2423 23.2238 32.5686 26.1154 32.5686V33.5686C22.6675 33.5686 19.9044 30.7906 19.9044 27.333H20.9044ZM26.1154 32.5686C28.9945 32.5686 31.3264 30.2416 31.3264 27.333H32.3264C32.3264 30.7913 29.5493 33.5686 26.1154 33.5686V32.5686ZM31.3264 27.333C31.3264 26.867 31.2655 26.4034 31.132 25.9402L32.0929 25.6633C32.2536 26.221 32.3264 26.7782 32.3264 27.333H31.3264ZM25.6154 49.2541V35.9025H26.6154V49.2541H25.6154ZM25.6154 18.7363V5.38477H26.6154V18.7363H25.6154ZM9.97211 26.8197H17.5689V27.8197H9.97211V26.8197ZM34.6485 26.8197H42.2453V27.8197H34.6485V26.8197Z" fill="#00DCE6"/>
</svg>
