<svg width="65" height="65" viewBox="0 0 65 65" fill="none" xmlns="http://www.w3.org/2000/svg">
<path d="M55.0694 0H0V55.0694C6.89983 61.2449 16.0114 65 26 65C47.5391 65 65 47.5391 65 26C65 16.0114 61.2449 6.89983 55.0694 0Z" fill="#00DCE6" fill-opacity="0.1"/>
<path d="M25.6764 6.08055V6.58055H25.692L25.7076 6.57958L25.6764 6.08055ZM40.7506 11.2406L40.5219 10.796L39.9125 11.1096L40.3971 11.5941L40.7506 11.2406ZM47.7657 25.6766H47.2657V25.6922L47.2666 25.7077L47.7657 25.6766ZM28.1698 47.7658V47.2658H28.1542L28.1386 47.2668L28.1698 47.7658ZM6.08059 28.1116H6.58059V28.096L6.57961 28.0804L6.08059 28.1116ZM22.5676 6.66025C22.5676 7.08854 22.2204 7.43574 21.7921 7.43574V8.43574C22.7726 8.43574 23.5676 7.64082 23.5676 6.66025H22.5676ZM21.7921 7.43574C21.3638 7.43574 21.0166 7.08854 21.0166 6.66025H20.0166C20.0166 7.64082 20.8115 8.43574 21.7921 8.43574V7.43574ZM21.0166 6.66025C21.0166 6.23196 21.3638 5.88477 21.7921 5.88477V4.88477C20.8115 4.88477 20.0166 5.67966 20.0166 6.66025H21.0166ZM21.7921 5.88477C22.2204 5.88477 22.5676 6.23196 22.5676 6.66025H23.5676C23.5676 5.67966 22.7726 4.88477 21.7921 4.88477V5.88477ZM38.3954 8.92076C38.3954 9.34906 38.0482 9.69626 37.6199 9.69626V10.6963C38.6005 10.6963 39.3954 9.90134 39.3954 8.92076H38.3954ZM37.6199 9.69626C37.1916 9.69626 36.8444 9.34906 36.8444 8.92076H35.8444C35.8444 9.90134 36.6393 10.6963 37.6199 10.6963V9.69626ZM36.8444 8.92076C36.8444 8.49248 37.1916 8.14528 37.6199 8.14528V7.14528C36.6393 7.14528 35.8444 7.94018 35.8444 8.92076H36.8444ZM37.6199 8.14528C38.0482 8.14528 38.3954 8.49248 38.3954 8.92076H39.3954C39.3954 7.94018 38.6004 7.14528 37.6199 7.14528V8.14528ZM47.9615 21.7925C47.9615 22.2208 47.6143 22.568 47.186 22.568V23.568C48.1666 23.568 48.9615 22.7731 48.9615 21.7925H47.9615ZM47.186 22.568C46.7577 22.568 46.4105 22.2208 46.4105 21.7925H45.4105C45.4105 22.7731 46.2054 23.568 47.186 23.568V22.568ZM46.4105 21.7925C46.4105 21.3642 46.7577 21.017 47.186 21.017V20.017C46.2054 20.017 45.4105 20.8119 45.4105 21.7925H46.4105ZM47.186 21.017C47.6143 21.017 47.9615 21.3642 47.9615 21.7925H48.9615C48.9615 20.8119 48.1666 20.017 47.186 20.017V21.017ZM45.7003 37.6203C45.7003 38.0486 45.3531 38.3958 44.9249 38.3958V39.3958C45.9054 39.3958 46.7003 38.6009 46.7003 37.6203H45.7003ZM44.9249 38.3958C44.4966 38.3958 44.1494 38.0486 44.1494 37.6203H43.1494C43.1494 38.6009 43.9443 39.3958 44.9249 39.3958V38.3958ZM44.1494 37.6203C44.1494 37.192 44.4966 36.8448 44.9249 36.8448V35.8448C43.9443 35.8448 43.1494 36.6398 43.1494 37.6203H44.1494ZM44.9249 36.8448C45.3531 36.8448 45.7003 37.192 45.7003 37.6203H46.7003C46.7003 36.6398 45.9054 35.8448 44.9249 35.8448V36.8448ZM32.8296 47.1861C32.8296 47.6144 32.4824 47.9616 32.0541 47.9616V48.9616C33.0347 48.9616 33.8296 48.1667 33.8296 47.1861H32.8296ZM32.0541 47.9616C31.6258 47.9616 31.2786 47.6144 31.2786 47.1861H30.2786C30.2786 48.1667 31.0735 48.9616 32.0541 48.9616V47.9616ZM31.2786 47.1861C31.2786 46.7578 31.6258 46.4106 32.0541 46.4106V45.4106C31.0735 45.4106 30.2786 46.2056 30.2786 47.1861H31.2786ZM32.0541 46.4106C32.4824 46.4106 32.8296 46.7578 32.8296 47.1861H33.8296C33.8296 46.2056 33.0347 45.4106 32.0541 45.4106V46.4106ZM17.0018 44.8667C17.0018 45.295 16.6546 45.6422 16.2263 45.6422V46.6422C17.2069 46.6422 18.0018 45.8473 18.0018 44.8667H17.0018ZM16.2263 45.6422C15.798 45.6422 15.4508 45.295 15.4508 44.8667H14.4508C14.4508 45.8473 15.2457 46.6422 16.2263 46.6422V45.6422ZM15.4508 44.8667C15.4508 44.4384 15.798 44.0912 16.2263 44.0912V43.0912C15.2457 43.0912 14.4508 43.8862 14.4508 44.8667H15.4508ZM16.2263 44.0912C16.6546 44.0912 17.0018 44.4384 17.0018 44.8667H18.0018C18.0018 43.8862 17.2069 43.0912 16.2263 43.0912V44.0912ZM7.43574 32.0548C7.43574 32.4831 7.08854 32.8303 6.66025 32.8303V33.8303C7.64083 33.8303 8.43574 33.0354 8.43574 32.0548H7.43574ZM6.66025 32.8303C6.23197 32.8303 5.88477 32.4831 5.88477 32.0548H4.88477C4.88477 33.0354 5.67967 33.8303 6.66025 33.8303V32.8303ZM5.88477 32.0548C5.88477 31.6265 6.23197 31.2793 6.66025 31.2793V30.2793C5.67967 30.2793 4.88477 31.0742 4.88477 32.0548H5.88477ZM6.66025 31.2793C7.08854 31.2793 7.43574 31.6265 7.43574 32.0548H8.43574C8.43574 31.0742 7.64084 30.2793 6.66025 30.2793V31.2793ZM9.75482 16.2264C9.75482 16.6547 9.40763 17.0018 8.97933 17.0018V18.0018C9.95989 18.0018 10.7548 17.207 10.7548 16.2264H9.75482ZM8.97933 17.0018C8.55102 17.0018 8.20384 16.6547 8.20384 16.2264H7.20384C7.20384 17.207 7.99877 18.0018 8.97933 18.0018V17.0018ZM8.20384 16.2264C8.20384 15.7981 8.55104 15.4509 8.97933 15.4509V14.4509C7.99875 14.4509 7.20384 15.2458 7.20384 16.2264H8.20384ZM8.97933 15.4509C9.40762 15.4509 9.75482 15.7981 9.75482 16.2264H10.7548C10.7548 15.2458 9.95991 14.4509 8.97933 14.4509V15.4509ZM25.6184 6.58055H25.6764V5.58055H25.6184V6.58055ZM25.7076 6.57958C28.422 6.40993 31.0804 6.8058 33.5125 7.65421L33.8419 6.71001C31.288 5.81911 28.4966 5.40332 25.6452 5.58152L25.7076 6.57958ZM40.9794 11.6852C40.8329 11.7606 40.6941 11.7428 40.6158 11.7195C40.5411 11.6972 40.4901 11.6624 40.4653 11.6437C40.4182 11.6081 40.3785 11.5639 40.3473 11.5104C40.3383 11.495 40.3226 11.4661 40.3089 11.4271C40.3015 11.4061 40.2631 11.2995 40.2913 11.1625C40.3082 11.0808 40.3524 10.9744 40.4517 10.8876C40.5505 10.8013 40.6604 10.7723 40.7403 10.7659C40.8749 10.7552 40.9731 10.803 40.991 10.8115C41.0498 10.8392 41.0871 10.8719 41.0893 10.8737C41.0998 10.8825 41.1052 10.8881 41.1042 10.887L40.3971 11.5941C40.4105 11.6076 40.4274 11.6237 40.4468 11.64C40.4578 11.6492 40.5015 11.6862 40.5644 11.7159C40.5844 11.7254 40.6842 11.7736 40.8198 11.7628C40.9003 11.7563 41.0106 11.7272 41.1097 11.6406C41.2094 11.5536 41.2537 11.4468 41.2707 11.3646C41.2992 11.2266 41.2605 11.1187 41.2525 11.096C41.2383 11.0554 41.2216 11.0246 41.2114 11.0071C41.1753 10.9451 41.1259 10.8894 41.068 10.8457C41.0378 10.8229 40.9811 10.7848 40.9009 10.761C40.8171 10.736 40.673 10.7182 40.5219 10.796L40.9794 11.6852ZM40.4178 11.6137C42.5132 13.4826 44.0975 15.633 45.2293 17.9532L46.128 17.5148C44.9408 15.0809 43.2783 12.8251 41.0834 10.8674L40.4178 11.6137ZM47.2657 25.6186V25.6766H48.2657V25.6186H47.2657ZM47.2666 25.7077C47.4363 28.4222 47.0404 31.0806 46.192 33.5127L47.1362 33.842C48.0271 31.2881 48.4429 28.4967 48.2647 25.6454L47.2666 25.7077ZM42.1748 40.418C40.3059 42.5133 38.1555 44.0976 35.8353 45.2294L36.2737 46.1282C38.7076 44.9409 40.9634 43.2785 42.921 41.0836L42.1748 40.418ZM28.2278 47.2658H28.1698V48.2658H28.2278V47.2658ZM28.1386 47.2668C25.4242 47.4364 22.7658 47.0406 20.3337 46.1921L20.0043 47.1363C22.5582 48.0272 25.3497 48.443 28.201 48.2648L28.1386 47.2668ZM13.4283 42.1751C11.3329 40.3063 9.74867 38.1559 8.61687 35.8356L7.7181 36.2741C8.90536 38.708 10.5678 40.9638 12.7627 42.9214L13.4283 42.1751ZM6.58059 28.1695V28.1116H5.58059V28.1695H6.58059ZM6.57961 28.0804C6.40996 25.366 6.80584 22.7075 7.65425 20.2754L6.71005 19.9461C5.81916 22.5 5.40335 25.2914 5.58156 28.1428L6.57961 28.0804ZM11.6714 13.429C13.5402 11.3336 15.6906 9.74931 18.0108 8.61751L17.5724 7.71874C15.1385 8.906 12.8827 10.5684 10.9251 12.7633L11.6714 13.429ZM21.889 9.10765L23.5124 15.1952L24.4786 14.9376L22.8553 8.84999L21.889 9.10765ZM35.9708 10.7561L32.7821 16.2059L33.6452 16.7109L36.8339 11.2611L35.9708 10.7561ZM44.7426 21.8876L38.655 23.453L38.9041 24.4215L44.9916 22.8561L44.7426 21.8876ZM43.0904 35.9133L37.6405 32.7246L37.1355 33.5877L42.5853 36.7764L43.0904 35.9133ZM31.9587 44.6847L30.3933 38.5971L29.4248 38.8462L30.9902 44.9337L31.9587 44.6847ZM17.8744 43.0348L21.0631 37.6429L20.2024 37.1339L17.0136 42.5257L17.8744 43.0348ZM9.1028 31.9007L15.2483 30.3354L15.0015 29.3663L8.85597 30.9316L9.1028 31.9007ZM10.8121 17.8749L16.2039 21.0637L16.713 20.2029L11.3211 17.0142L10.8121 17.8749ZM26.9232 37.1632C32.5468 37.1632 37.1155 32.5946 37.1155 26.9709H36.1155C36.1155 32.0423 31.9945 36.1632 26.9232 36.1632V37.1632ZM37.1155 26.9709C37.1155 21.3505 32.55 16.7309 26.9232 16.7309V17.7309C31.9913 17.7309 36.1155 21.8964 36.1155 26.9709H37.1155ZM26.9232 16.7309C21.2996 16.7309 16.7309 21.2996 16.7309 26.9232H17.7309C17.7309 21.8519 21.8519 17.7309 26.9232 17.7309V16.7309ZM16.7309 26.9232C16.7309 32.593 21.298 37.1632 26.9232 37.1632V36.1632C21.8535 36.1632 17.7309 32.0439 17.7309 26.9232H16.7309ZM26.9232 16.7309C25.2955 16.7309 23.9488 18.0396 23.039 19.8469C22.1139 21.6846 21.5532 24.1877 21.5532 26.9232H22.5532C22.5532 24.3112 23.0907 21.9682 23.9322 20.2966C24.7889 18.5947 25.8771 17.7309 26.9232 17.7309V16.7309ZM21.5532 26.9232C21.5532 29.6587 22.1139 32.1619 23.039 33.9995C23.9488 35.8068 25.2956 37.1155 26.9232 37.1155V36.1155C25.8772 36.1155 24.7889 35.2518 23.9322 33.5498C23.0907 31.8782 22.5532 29.5352 22.5532 26.9232H21.5532ZM26.9232 37.1155C28.5509 37.1155 29.8977 35.8068 30.8075 33.9995C31.7326 32.1619 32.2933 29.6587 32.2933 26.9232H31.2933C31.2933 29.5352 30.7558 31.8782 29.9143 33.5498C29.0575 35.2518 27.9693 36.1155 26.9232 36.1155V37.1155ZM32.2933 26.9232C32.2933 24.1877 31.7326 21.6845 30.8075 19.8469C29.8977 18.0396 28.5509 16.7309 26.9232 16.7309V17.7309C27.9693 17.7309 29.0575 18.5947 29.9143 20.2966C30.7558 21.9682 31.2933 24.3113 31.2933 26.9232H32.2933ZM35.8038 23.2241H18.0426V24.2241H35.8038V23.2241ZM35.8038 29.6697H18.0426V30.6697H35.8038V29.6697ZM26.4232 17.2309V36.6632H27.4232V17.2309H26.4232Z" fill="#00DCE6"/>
</svg>
