<svg width="65" height="65" viewBox="0 0 65 65" fill="none" xmlns="http://www.w3.org/2000/svg">
<path d="M55.0694 0H0V55.0694C6.89983 61.2449 16.0114 65 26 65C47.5391 65 65 47.5391 65 26C65 16.0114 61.2449 6.89983 55.0694 0Z" fill="#00DCE6" fill-opacity="0.1"/>
<path d="M48.4613 5.38477H48.9613V4.88477H48.4613V5.38477ZM5.38428 5.38477V4.88477H4.88428V5.38477H5.38428ZM48.4613 48.4292V48.9292H48.9613V48.4292H48.4613ZM5.38428 48.4618H4.88428V48.9618H5.38428V48.4618ZM36.5777 26.521H36.0777V26.9354L36.4849 27.0124L36.5777 26.521ZM36.5777 25.4015L36.3905 24.9379L36.0777 25.0643V25.4015H36.5777ZM33.4984 25.4015H33.9984V25.0643L33.6857 24.9379L33.4984 25.4015ZM33.4984 26.521L33.5773 27.0148L33.9984 26.9475V26.521H33.4984ZM27.5747 16.3608H27.0747V16.7757L27.4825 16.8523L27.5747 16.3608ZM27.5747 15.4386L27.3885 14.9746L27.0747 15.1005V15.4386H27.5747ZM25.0211 15.4386H25.5211V15.1005L25.2073 14.9746L25.0211 15.4386ZM25.0211 16.3608L25.0995 16.8546L25.5211 16.7877V16.3608H25.0211ZM19.1155 26.4761H18.6155V26.9092L19.0442 26.971L19.1155 26.4761ZM19.1155 25.3614L18.9328 24.896L18.6155 25.0205V25.3614H19.1155ZM15.9597 25.3614H16.4597V25.0205L16.1423 24.896L15.9597 25.3614ZM15.9597 26.4761L16.0364 26.9702L16.4597 26.9045V26.4761H15.9597ZM10.437 40.5074H9.93697V41.0074H10.437V40.5074ZM19.9026 35.2646L19.5498 35.6189L19.924 35.9913L20.2755 35.5976L19.9026 35.2646ZM37.5753 35.2646L37.2225 35.6189L37.5966 35.9913L37.9482 35.5976L37.5753 35.2646ZM48.9613 12.1783V5.38477H47.9613V12.1783H48.9613ZM48.4613 4.88477H41.6627V5.88477H48.4613V4.88477ZM12.183 4.88477H5.38428V5.88477H12.183V4.88477ZM4.88428 5.38477V12.1783H5.88428V5.38477H4.88428ZM41.6627 48.9292H48.4613V47.9292H41.6627V48.9292ZM48.9613 48.4292V41.6357H47.9613V48.4292H48.9613ZM4.88428 41.6683V48.4618H5.88428V41.6683H4.88428ZM5.38428 48.9618H12.183V47.9618H5.38428V48.9618ZM41.1239 27.7297C40.0217 26.849 38.3775 26.3521 36.6705 26.0297L36.4849 27.0124C38.1652 27.3297 39.6004 27.7924 40.4997 28.511L41.1239 27.7297ZM37.0777 26.521V25.4015H36.0777V26.521H37.0777ZM36.765 25.8651C38.3615 25.2202 39.3872 23.5816 39.3872 21.7232H38.3872C38.3872 23.2232 37.5653 24.4634 36.3905 24.9379L36.765 25.8651ZM39.3872 21.7232V20.1239H38.3872V21.7232H39.3872ZM39.3872 20.1239C39.3872 17.6335 37.5709 15.6256 35.0381 15.6256V16.6256C36.9703 16.6256 38.3872 18.1362 38.3872 20.1239H39.3872ZM35.0381 15.6256C32.5052 15.6256 30.6889 17.6335 30.6889 20.1239H31.6889C31.6889 18.1362 33.1059 16.6256 35.0381 16.6256V15.6256ZM30.6889 20.1239V21.7232H31.6889V20.1239H30.6889ZM30.6889 21.7232C30.6889 23.5816 31.7146 25.2202 33.3111 25.8651L33.6857 24.9379C32.5108 24.4634 31.6889 23.2232 31.6889 21.7232H30.6889ZM32.9984 25.4015V26.521H33.9984V25.4015H32.9984ZM33.4195 26.0273C31.891 26.2716 30.4621 26.6859 29.4032 27.3828C28.322 28.0945 27.6096 29.1173 27.6096 30.5193H28.6096C28.6096 29.5223 29.0904 28.7859 29.953 28.2181C30.838 27.6357 32.1035 27.2503 33.5773 27.0148L33.4195 26.0273ZM27.6096 30.5193V40.3147H28.6096V30.5193H27.6096ZM31.2695 17.2367C30.4923 16.8879 29.1483 16.1473 27.6669 15.8694L27.4825 16.8523C28.8101 17.1013 29.9805 17.7543 30.8601 18.149L31.2695 17.2367ZM28.0747 16.3608V15.4386H27.0747V16.3608H28.0747ZM27.7609 15.9026C29.1202 15.3572 29.9899 13.9729 29.9899 12.4084H28.9899C28.9899 13.6106 28.3275 14.5978 27.3885 14.9746L27.7609 15.9026ZM29.9899 12.4084V11.091H28.9899V12.4084H29.9899ZM29.9899 11.091C29.9899 8.99201 28.4465 7.29733 26.2979 7.29733V8.29733C27.852 8.29733 28.9899 9.50107 28.9899 11.091H29.9899ZM26.2979 7.29733C24.1493 7.29733 22.6059 8.99201 22.6059 11.091H23.6059C23.6059 9.50107 24.7438 8.29733 26.2979 8.29733V7.29733ZM22.6059 11.091V12.4084H23.6059V11.091H22.6059ZM22.6059 12.4084C22.6059 13.9729 23.4757 15.3572 24.8349 15.9026L25.2073 14.9746C24.2684 14.5978 23.6059 13.6106 23.6059 12.4084H22.6059ZM24.5211 15.4386V16.3608H25.5211V15.4386H24.5211ZM24.9427 15.867C23.7627 16.0543 21.9599 16.8137 21.1589 17.2549L21.6413 18.1308C22.3889 17.719 24.0774 17.0169 25.0995 16.8546L24.9427 15.867ZM23.4302 27.5305C23.1732 27.242 22.791 27.0207 22.4096 26.8486C22.0174 26.6716 21.574 26.5241 21.1492 26.4043C20.2997 26.1647 19.4784 26.0233 19.1868 25.9812L19.0442 26.971C19.3049 27.0086 20.0812 27.1421 20.8778 27.3667C21.2761 27.4791 21.6679 27.611 21.9983 27.7601C22.3396 27.9141 22.5676 28.0656 22.6837 28.1958L23.4302 27.5305ZM19.6155 26.4761V25.3614H18.6155V26.4761H19.6155ZM19.2982 25.8269C20.9258 25.1881 21.9824 23.5587 21.9824 21.699H20.9824C20.9824 23.1832 20.1454 24.4201 18.9328 24.896L19.2982 25.8269ZM21.9824 21.699V20.1066H20.9824V21.699H21.9824ZM21.9824 20.1066C21.9824 17.6121 20.1125 15.6256 17.5376 15.6256V16.6256C19.5386 16.6256 20.9824 18.1424 20.9824 20.1066H21.9824ZM17.5376 15.6256C14.9626 15.6256 13.0928 17.6121 13.0928 20.1066H14.0928C14.0928 18.1424 15.5366 16.6256 17.5376 16.6256V15.6256ZM13.0928 20.1066V21.699H14.0928V20.1066H13.0928ZM13.0928 21.699C13.0928 23.5587 14.1493 25.1881 15.777 25.8269L16.1423 24.896C14.9298 24.4201 14.0928 23.1832 14.0928 21.699H13.0928ZM15.4597 25.3614V26.4761H16.4597V25.3614H15.4597ZM15.883 25.982C14.3183 26.225 12.8573 26.6367 11.7751 27.3288C10.6713 28.0346 9.93697 29.0535 9.93697 30.4571H10.937C10.937 29.472 11.4255 28.7393 12.3138 28.1713C13.2237 27.5894 14.5241 27.205 16.0364 26.9702L15.883 25.982ZM9.93697 30.4571V40.5074H10.937V30.4571H9.93697ZM10.437 41.0074H39.625V40.0074H10.437V41.0074ZM16.1592 32.2437L19.5498 35.6189L20.2553 34.9102L16.8646 31.535L16.1592 32.2437ZM20.2755 35.5976L27.0569 28.0034L26.311 27.3373L19.5296 34.9315L20.2755 35.5976ZM33.8318 32.2437L37.2225 35.6189L37.928 34.9102L34.5373 31.535L33.8318 32.2437ZM37.9482 35.5976L44.7296 28.0034L43.9837 27.3373L37.2023 34.9315L37.9482 35.5976Z" fill="#00DCE6"/>
</svg>
