<svg width="65" height="65" viewBox="0 0 65 65" fill="none" xmlns="http://www.w3.org/2000/svg">
<path d="M55.0694 0H0V55.0694C6.89983 61.2449 16.0114 65 26 65C47.5391 65 65 47.5391 65 26C65 16.0114 61.2449 6.89983 55.0694 0Z" fill="#00DCE6" fill-opacity="0.1"/>
<path d="M48.4617 24.757L48.8152 25.1106L49.6688 24.257H48.4617V24.757ZM42.0042 24.757V24.257H41.7971L41.6507 24.4034L42.0042 24.757ZM42.0042 32.1217L41.6507 32.4753L41.7971 32.6217H42.0042V32.1217ZM48.4617 32.1217V32.6217H49.6688L48.8152 31.7682L48.4617 32.1217ZM44.7793 28.4394L44.4258 28.0858L44.0722 28.4394L44.4258 28.7929L44.7793 28.4394ZM21.7245 28.4394L21.371 28.0859L20.5174 28.9394L21.7246 28.9394L21.7245 28.4394ZM40.1364 5.38477H40.6364V4.16936L39.7811 5.03292L40.1364 5.38477ZM34.6395 10.935L34.2843 10.5831L34.1395 10.7293L34.1395 10.935L34.6395 10.935ZM39.2291 15.5246L39.2291 16.0246L39.4348 16.0246L39.581 15.8798L39.2291 15.5246ZM44.7793 10.0277L45.1312 10.383L45.9947 9.52774H44.7793V10.0277ZM40.1364 10.0277H39.6364V10.5277H40.1364V10.0277ZM48.4617 24.257H42.0042V25.257H48.4617V24.257ZM41.6507 24.4034L37.9683 28.0858L38.6754 28.7929L42.3578 25.1106L41.6507 24.4034ZM37.9683 28.7929L41.6507 32.4753L42.3578 31.7682L38.6754 28.0858L37.9683 28.7929ZM42.0042 32.6217H48.4617V31.6217H42.0042V32.6217ZM48.8152 31.7682L45.1329 28.0858L44.4258 28.7929L48.1081 32.4753L48.8152 31.7682ZM45.1329 28.7929L48.8152 25.1106L48.1081 24.4034L44.4258 28.0858L45.1329 28.7929ZM22.0781 28.793L34.993 15.8781L34.2859 15.1709L21.371 28.0859L22.0781 28.793ZM21.7246 28.9394L38.3219 28.9394L38.3219 27.9394L21.7245 27.9394L21.7246 28.9394ZM26.0418 30.9639C25.1655 32.4731 23.5642 33.4901 21.6711 33.4901V34.4901C23.9407 34.4901 25.8617 33.2656 26.9066 31.4661L26.0418 30.9639ZM21.6711 33.4901C18.9022 33.4901 16.6209 31.2559 16.6209 28.4399H15.6209C15.6209 31.8145 18.3562 34.4901 21.6711 34.4901V33.4901ZM16.6209 28.4399C16.6209 25.6332 18.8927 23.443 21.7245 23.443V22.443C18.3657 22.443 15.6209 25.0559 15.6209 28.4399H16.6209ZM21.7245 23.443C22.3141 23.443 22.8895 23.542 23.3533 23.7275L23.7247 22.799C23.1211 22.5576 22.4157 22.443 21.7245 22.443V23.443ZM39.7811 5.03292L34.2843 10.5831L34.9948 11.2868L40.4916 5.73661L39.7811 5.03292ZM34.1395 10.935L34.1395 15.5245L35.1395 15.5245L35.1395 10.935L34.1395 10.935ZM34.6395 16.0245L39.2291 16.0246L39.2291 15.0246L34.6395 15.0245L34.6395 16.0245ZM39.581 15.8798L45.1312 10.383L44.4275 9.67248L38.8773 15.1693L39.581 15.8798ZM44.7793 9.52774H40.1364V10.5277H44.7793V9.52774ZM40.6364 10.0277V5.38477H39.6364V10.0277H40.6364ZM32.3999 30.4456C31.4965 35.3752 27.087 39.1387 21.822 39.1387V40.1387C27.5675 40.1387 32.3927 36.0325 33.3835 30.6258L32.3999 30.4456ZM21.822 39.1387C15.8788 39.1387 11.0748 34.3669 11.0748 28.4802H10.0748C10.0748 34.9266 15.334 40.1387 21.822 40.1387V39.1387ZM11.0748 28.4802C11.0748 22.5936 15.8788 17.8217 21.822 17.8217V16.8217C15.334 16.8217 10.0748 22.0338 10.0748 28.4802H11.0748ZM21.822 17.8217C23.9754 17.8217 26.0102 18.44 27.7026 19.5594L28.2543 18.7253C26.3949 17.4955 24.1675 16.8217 21.822 16.8217V17.8217ZM30.9007 22.76C31.6003 23.983 32.1338 25.3142 32.4 26.7546L33.3834 26.5728C33.0935 25.0046 32.5149 23.5677 31.7687 22.2634L30.9007 22.76ZM37.5856 30.4578C36.6077 38.2522 29.9339 44.3287 21.8222 44.3287V45.3287C30.4447 45.3287 37.538 38.8703 38.5778 30.5823L37.5856 30.4578ZM21.8222 44.3287C13.0175 44.3287 5.88477 37.2191 5.88477 28.4506H4.88477C4.88477 37.7748 12.4686 45.3287 21.8222 45.3287V44.3287ZM5.88477 28.4506C5.88477 19.6833 13.0163 12.6317 21.7629 12.6317V11.6317C12.4698 11.6317 4.88477 19.1253 4.88477 28.4506H5.88477ZM21.7629 12.6317C25.5001 12.6317 28.9529 13.949 31.7192 16.131L32.3386 15.3459C29.4081 13.0343 25.74 11.6317 21.7629 11.6317V12.6317ZM34.0635 18.6785C35.9499 20.9584 37.2219 23.6983 37.5853 26.7233L38.5781 26.6041C38.1898 23.3711 36.831 20.4546 34.8339 18.041L34.0635 18.6785Z" fill="#00DCE6"/>
</svg>
