<svg width="65" height="65" viewBox="0 0 65 65" fill="none" xmlns="http://www.w3.org/2000/svg">
<path d="M55.0694 0H0V55.0694C6.89983 61.2449 16.0114 65 26 65C47.5391 65 65 47.5391 65 26C65 16.0114 61.2449 6.89983 55.0694 0Z" fill="#00DCE6" fill-opacity="0.1"/>
<path d="M6.48021 14.9574C6.48021 15.2336 6.70406 15.4574 6.98021 15.4574C7.25635 15.4574 7.48021 15.2336 7.48021 14.9574H6.48021ZM14.9574 7.48021C15.2336 7.48021 15.4574 7.25635 15.4574 6.98021C15.4574 6.70406 15.2336 6.48021 14.9574 6.48021V7.48021ZM46.3662 14.1597C46.3662 14.4358 46.5901 14.6597 46.8662 14.6597C47.1424 14.6597 47.3662 14.4358 47.3662 14.1597H46.3662ZM38.889 6.48021C38.6129 6.48021 38.389 6.70406 38.389 6.98021C38.389 7.25635 38.6129 7.48021 38.889 7.48021V6.48021ZM7.48021 38.889C7.48021 38.6129 7.25635 38.389 6.98021 38.389C6.70406 38.389 6.48021 38.6129 6.48021 38.889H7.48021ZM14.1597 47.3662C14.4358 47.3662 14.6597 47.1424 14.6597 46.8662C14.6597 46.5901 14.4358 46.3662 14.1597 46.3662V47.3662ZM47.3662 38.889C47.3662 38.6129 47.1424 38.389 46.8662 38.389C46.5901 38.389 46.3662 38.6129 46.3662 38.889H47.3662ZM38.889 46.3662C38.6129 46.3662 38.389 46.5901 38.389 46.8662C38.389 47.1424 38.6129 47.3662 38.889 47.3662V46.3662ZM6.7469 30.2343C8.15355 38.8744 14.972 45.6929 23.6121 47.0995L23.7728 46.1125C15.5571 44.775 9.07145 38.2893 7.7339 30.0736L6.7469 30.2343ZM30.2344 47.0995C38.8745 45.6929 45.6929 38.8744 47.0996 30.2343L46.1126 30.0736C44.775 38.2893 38.2893 44.775 30.0737 46.1125L30.2344 47.0995ZM47.0996 23.6122C45.6929 14.972 38.8745 8.15359 30.2344 6.74691L30.0737 7.73391C38.2893 9.07149 44.775 15.5572 46.1126 23.7728L47.0996 23.6122ZM23.6121 6.74691C14.972 8.15359 8.15355 14.972 6.7469 23.6122L7.7339 23.7728C9.07145 15.5572 15.5571 9.07148 23.7728 7.73391L23.6121 6.74691ZM23.8369 37.1379C20.4281 36.1089 17.7375 33.4183 16.7085 30.0095L15.7512 30.2985C16.877 34.0279 19.8185 36.9694 23.5479 38.0952L23.8369 37.1379ZM37.1379 30.0095C36.1089 33.4183 33.4183 36.1089 30.0095 37.1379L30.2985 38.0952C34.0279 36.9694 36.9694 34.0279 38.0953 30.2985L37.1379 30.0095ZM30.0095 16.7085C33.4183 17.7376 36.1089 20.4282 37.1379 23.837L38.0953 23.548C36.9694 19.8186 34.028 16.8771 30.2985 15.7512L30.0095 16.7085ZM16.7085 23.837C17.7375 20.4282 20.4281 17.7376 23.8369 16.7085L23.5479 15.7512C19.8185 16.8771 16.877 19.8186 15.7512 23.548L16.7085 23.837ZM7.48021 14.9574V10.9688H6.48021V14.9574H7.48021ZM7.48021 10.9688C7.48021 9.04324 9.04324 7.48021 10.9688 7.48021V6.48021C8.49096 6.48021 6.48021 8.49096 6.48021 10.9688H7.48021ZM10.9688 7.48021H14.9574V6.48021H10.9688V7.48021ZM47.3662 14.1597V10.9688H46.3662V14.1597H47.3662ZM47.3662 10.9688C47.3662 8.49096 45.3555 6.48021 42.8776 6.48021V7.48021C44.8032 7.48021 46.3662 9.04324 46.3662 10.9688H47.3662ZM42.8776 6.48021H38.889V7.48021H42.8776V6.48021ZM6.48021 38.889V42.8776H7.48021V38.889H6.48021ZM6.48021 42.8776C6.48021 45.3555 8.49096 47.3662 10.9688 47.3662V46.3662C9.04324 46.3662 7.48021 44.8032 7.48021 42.8776H6.48021ZM10.9688 47.3662H14.1597V46.3662H10.9688V47.3662ZM46.3662 38.889V42.8776H47.3662V38.889H46.3662ZM46.3662 42.8776C46.3662 44.8032 44.8032 46.3662 42.8776 46.3662V47.3662C45.3555 47.3662 47.3662 45.3555 47.3662 42.8776H46.3662ZM42.8776 46.3662H38.889V47.3662H42.8776V46.3662ZM28.5187 4.88477H25.3278V5.88477H28.5187V4.88477ZM25.3278 4.88477C24.1742 4.88477 23.2323 5.82657 23.2323 6.98021H24.2323C24.2323 6.37886 24.7264 5.88477 25.3278 5.88477V4.88477ZM23.2323 6.98021V16.5529H24.2323V6.98021H23.2323ZM23.2323 16.5529C23.2323 17.7065 24.1742 18.6483 25.3278 18.6483V17.6483C24.7264 17.6483 24.2323 17.1542 24.2323 16.5529H23.2323ZM25.3278 18.6483H28.5187V17.6483H25.3278V18.6483ZM28.5187 18.6483C29.6723 18.6483 30.6141 17.7065 30.6141 16.5529H29.6141C29.6141 17.1542 29.12 17.6483 28.5187 17.6483V18.6483ZM30.6141 16.5529V6.98021H29.6141V16.5529H30.6141ZM30.6141 6.98021C30.6141 5.82657 29.6723 4.88477 28.5187 4.88477V5.88477C29.12 5.88477 29.6141 6.37886 29.6141 6.98021H30.6141ZM28.5187 35.1982H25.3278V36.1982H28.5187V35.1982ZM25.3278 35.1982C24.1742 35.1982 23.2323 36.14 23.2323 37.2936H24.2323C24.2323 36.6922 24.7264 36.1982 25.3278 36.1982V35.1982ZM23.2323 37.2936V46.8662H24.2323V37.2936H23.2323ZM23.2323 46.8662C23.2323 48.0199 24.1742 48.9617 25.3278 48.9617V47.9617C24.7264 47.9617 24.2323 47.4676 24.2323 46.8662H23.2323ZM25.3278 48.9617H28.5187V47.9617H25.3278V48.9617ZM28.5187 48.9617C29.6723 48.9617 30.6141 48.0199 30.6141 46.8662H29.6141C29.6141 47.4676 29.12 47.9617 28.5187 47.9617V48.9617ZM30.6141 46.8662V37.2936H29.6141V46.8662H30.6141ZM30.6141 37.2936C30.6141 36.14 29.6723 35.1982 28.5187 35.1982V36.1982C29.12 36.1982 29.6141 36.6922 29.6141 37.2936H30.6141ZM48.9617 28.5187V25.3278H47.9617V28.5187H48.9617ZM48.9617 25.3278C48.9617 24.1742 48.0199 23.2323 46.8662 23.2323V24.2323C47.4676 24.2323 47.9617 24.7264 47.9617 25.3278H48.9617ZM46.8662 23.2323H37.2936V24.2323H46.8662V23.2323ZM37.2936 23.2323C36.14 23.2323 35.1982 24.1742 35.1982 25.3278H36.1982C36.1982 24.7264 36.6922 24.2323 37.2936 24.2323V23.2323ZM35.1982 25.3278V28.5187H36.1982V25.3278H35.1982ZM35.1982 28.5187C35.1982 29.6723 36.14 30.6141 37.2936 30.6141V29.6141C36.6922 29.6141 36.1982 29.12 36.1982 28.5187H35.1982ZM37.2936 30.6141H46.8662V29.6141H37.2936V30.6141ZM46.8662 30.6141C48.0199 30.6141 48.9617 29.6723 48.9617 28.5187H47.9617C47.9617 29.12 47.4676 29.6141 46.8662 29.6141V30.6141ZM18.6483 28.5187V25.3278H17.6483V28.5187H18.6483ZM18.6483 25.3278C18.6483 24.1742 17.7065 23.2323 16.5529 23.2323V24.2323C17.1542 24.2323 17.6483 24.7264 17.6483 25.3278H18.6483ZM16.5529 23.2323H6.98021V24.2323H16.5529V23.2323ZM6.98021 23.2323C5.82657 23.2323 4.88477 24.1742 4.88477 25.3278H5.88477C5.88477 24.7264 6.37886 24.2323 6.98021 24.2323V23.2323ZM4.88477 25.3278V28.5187H5.88477V25.3278H4.88477ZM4.88477 28.5187C4.88477 29.6723 5.82657 30.6141 6.98021 30.6141V29.6141C6.37886 29.6141 5.88477 29.12 5.88477 28.5187H4.88477ZM6.98021 30.6141H16.5529V29.6141H6.98021V30.6141ZM16.5529 30.6141C17.7065 30.6141 18.6483 29.6723 18.6483 28.5187H17.6483C17.6483 29.12 17.1542 29.6141 16.5529 29.6141V30.6141Z" fill="#00DCE6"/>
</svg>
