<svg width="65" height="65" viewBox="0 0 65 65" fill="none" xmlns="http://www.w3.org/2000/svg">
<path d="M55.0694 0H0V55.0694C6.89983 61.2449 16.0114 65 26 65C47.5391 65 65 47.5391 65 26C65 16.0114 61.2449 6.89983 55.0694 0Z" fill="#00DCE6" fill-opacity="0.1"/>
<path d="M47.4407 24.2326L47.9384 24.1847L47.4407 24.2326ZM28.3074 47.4407L28.2595 46.943L28.3074 47.4407ZM5.09931 28.3074L5.59701 28.2595L5.09931 28.3074ZM44.5496 31.8584L45.0277 32.0046L44.5496 31.8584ZM20.6815 44.5493L20.8276 44.0711L20.6815 44.5493ZM7.99056 20.6812L7.51241 20.535L7.99056 20.6812ZM31.8587 7.99027L31.7125 8.46842L31.8587 7.99027ZM22.662 32.9993L22.8433 33.4653L23.162 33.3412V32.9993H22.662ZM16.8296 35.2694L16.9555 35.7533L16.9838 35.7459L17.011 35.7353L16.8296 35.2694ZM13.6166 38.2729L13.1166 38.2593V38.2729H13.6166ZM20.0776 25.8748H20.5776V25.6981L20.4666 25.5606L20.0776 25.8748ZM19.3442 24.9668L19.7332 24.6526L19.6888 24.5977L19.6309 24.5572L19.3442 24.9668ZM18.7854 21.3347L18.5667 20.885L18.2854 21.0219V21.3347H18.7854ZM20.0776 20.706L20.2963 21.1556L20.5776 21.0188V20.706H20.0776ZM36.2475 35.2693L36.0646 35.7346L36.0926 35.7456L36.1217 35.7532L36.2475 35.2693ZM39.4605 38.2727H39.9607L39.9603 38.2592L39.4605 38.2727ZM31.0438 33.2789L31.3692 33.6585L31.0438 33.2789ZM25.9099 33.2789L25.5845 33.6585L25.9099 33.2789ZM22.0334 18.2965L21.8097 17.8493L21.5334 17.9874V18.2965H22.0334ZM34.9204 18.2965H35.4204V17.9874L35.144 17.8493L34.9204 18.2965ZM29.1579 25.4909L29.316 25.9652L29.323 25.9629L29.33 25.9603L29.1579 25.4909ZM30.6945 22.7668L30.2028 22.8579L30.2042 22.8649L30.6945 22.7668ZM28.8435 20.9158L28.7481 21.4066L28.7491 21.4068L28.8435 20.9158ZM46.943 24.2805C48.0418 35.6979 39.6769 45.8442 28.2595 46.943L28.3553 47.9384C40.3224 46.7867 49.0901 36.1518 47.9384 24.1847L46.943 24.2805ZM28.2595 46.943C16.8421 48.0418 6.69578 39.6769 5.59701 28.2595L4.60161 28.3553C5.75328 40.3224 16.3882 49.0901 28.3553 47.9384L28.2595 46.943ZM24.2805 5.59701C35.6979 4.49824 45.8442 12.8631 46.943 24.2805L47.9384 24.1847C46.7867 12.2176 36.1518 3.44993 24.1847 4.60161L24.2805 5.59701ZM5.59701 28.2595C4.93045 21.3333 7.74608 14.8748 12.6152 10.6193L11.9571 9.86632C6.85582 14.3248 3.90288 21.0948 4.60161 28.3553L5.59701 28.2595ZM44.0714 31.7122C41.0657 41.5436 30.6591 47.0769 20.8276 44.0711L20.5353 45.0274C30.8948 48.1947 41.8605 42.3641 45.0277 32.0046L44.0714 31.7122ZM20.8276 44.0711C10.9962 41.0654 5.46294 30.6588 8.46871 20.8274L7.51241 20.535C4.34517 30.8946 10.1757 41.8602 20.5353 45.0274L20.8276 44.0711ZM31.7125 8.46842C41.5439 11.4742 47.0772 21.8808 44.0714 31.7122L45.0277 32.0046C48.195 21.645 42.3644 10.6794 32.0049 7.51212L31.7125 8.46842ZM8.46871 20.8274C9.60615 17.107 11.8025 14.0032 14.6263 11.7439L14.0016 10.9631C11.0256 13.3441 8.71053 16.6161 7.51241 20.535L8.46871 20.8274ZM23.9686 7.7931C26.4919 7.47728 29.1215 7.67629 31.7125 8.46842L32.0049 7.51212C29.2765 6.67798 26.5048 6.46786 23.8444 6.80084L23.9686 7.7931ZM22.162 30.4149V32.9993H23.162V30.4149H22.162ZM22.4806 32.5334L16.6483 34.8034L17.011 35.7353L22.8433 33.4653L22.4806 32.5334ZM16.7038 34.7855C15.7586 35.0312 14.8894 35.4958 14.2434 36.0883C13.6031 36.6757 13.1392 37.4318 13.1168 38.2593L14.1164 38.2864C14.129 37.8217 14.3985 37.3031 14.9194 36.8253C15.4347 36.3526 16.1545 35.9615 16.9555 35.7533L16.7038 34.7855ZM13.1166 38.2729V40.5386H14.1166V38.2729H13.1166ZM24.0381 30.5964C23.6893 30.4219 22.8503 30.127 22.0279 29.5371C21.2173 28.9558 20.5776 28.1872 20.5776 27.167H19.5776C19.5776 28.6613 20.5269 29.6913 21.4451 30.3498C22.3514 30.9998 23.3809 31.3858 23.5909 31.4908L24.0381 30.5964ZM20.5776 27.167C20.5776 27.1664 20.5776 27.1658 20.5776 27.1651C20.5776 27.1645 20.5776 27.1639 20.5776 27.1633C20.5776 27.1627 20.5776 27.162 20.5776 27.1614C20.5776 27.1608 20.5776 27.1601 20.5776 27.1595C20.5776 27.1589 20.5776 27.1582 20.5776 27.1576C20.5776 27.157 20.5776 27.1563 20.5776 27.1557C20.5776 27.155 20.5776 27.1544 20.5776 27.1537C20.5776 27.1531 20.5776 27.1524 20.5776 27.1518C20.5776 27.1511 20.5776 27.1505 20.5776 27.1498C20.5776 27.1492 20.5776 27.1485 20.5776 27.1478C20.5776 27.1472 20.5776 27.1465 20.5776 27.1458C20.5776 27.1452 20.5776 27.1445 20.5776 27.1438C20.5776 27.1431 20.5776 27.1425 20.5776 27.1418C20.5776 27.1411 20.5776 27.1404 20.5776 27.1398C20.5776 27.1391 20.5776 27.1384 20.5776 27.1377C20.5776 27.137 20.5776 27.1363 20.5776 27.1356C20.5776 27.1349 20.5776 27.1342 20.5776 27.1335C20.5776 27.1329 20.5776 27.1322 20.5776 27.1315C20.5776 27.1308 20.5776 27.13 20.5776 27.1293C20.5776 27.1286 20.5776 27.1279 20.5776 27.1272C20.5776 27.1265 20.5776 27.1258 20.5776 27.1251C20.5776 27.1244 20.5776 27.1236 20.5776 27.1229C20.5776 27.1222 20.5776 27.1215 20.5776 27.1208C20.5776 27.12 20.5776 27.1193 20.5776 27.1186C20.5776 27.1179 20.5776 27.1171 20.5776 27.1164C20.5776 27.1157 20.5776 27.1149 20.5776 27.1142C20.5776 27.1135 20.5776 27.1127 20.5776 27.112C20.5776 27.1112 20.5776 27.1105 20.5776 27.1097C20.5776 27.109 20.5776 27.1082 20.5776 27.1075C20.5776 27.1067 20.5776 27.106 20.5776 27.1052C20.5776 27.1045 20.5776 27.1037 20.5776 27.103C20.5776 27.1022 20.5776 27.1014 20.5776 27.1007C20.5776 27.0999 20.5776 27.0992 20.5776 27.0984C20.5776 27.0976 20.5776 27.0968 20.5776 27.0961C20.5776 27.0953 20.5776 27.0945 20.5776 27.0938C20.5776 27.093 20.5776 27.0922 20.5776 27.0914C20.5776 27.0906 20.5776 27.0899 20.5776 27.0891C20.5776 27.0883 20.5776 27.0875 20.5776 27.0867C20.5776 27.0859 20.5776 27.0851 20.5776 27.0843C20.5776 27.0835 20.5776 27.0828 20.5776 27.082C20.5776 27.0812 20.5776 27.0804 20.5776 27.0796C20.5776 27.0788 20.5776 27.078 20.5776 27.0772C20.5776 27.0763 20.5776 27.0755 20.5776 27.0747C20.5776 27.0739 20.5776 27.0731 20.5776 27.0723C20.5776 27.0715 20.5776 27.0707 20.5776 27.0699C20.5776 27.069 20.5776 27.0682 20.5776 27.0674C20.5776 27.0666 20.5776 27.0658 20.5776 27.0649C20.5776 27.0641 20.5776 27.0633 20.5776 27.0624C20.5776 27.0616 20.5776 27.0608 20.5776 27.06C20.5776 27.0591 20.5776 27.0583 20.5776 27.0575C20.5776 27.0566 20.5776 27.0558 20.5776 27.0549C20.5776 27.0541 20.5776 27.0533 20.5776 27.0524C20.5776 27.0516 20.5776 27.0507 20.5776 27.0499C20.5776 27.049 20.5776 27.0482 20.5776 27.0473C20.5776 27.0465 20.5776 27.0456 20.5776 27.0448C20.5776 27.0439 20.5776 27.0431 20.5776 27.0422C20.5776 27.0413 20.5776 27.0405 20.5776 27.0396C20.5776 27.0387 20.5776 27.0379 20.5776 27.037C20.5776 27.0361 20.5776 27.0353 20.5776 27.0344C20.5776 27.0335 20.5776 27.0327 20.5776 27.0318C20.5776 27.0309 20.5776 27.03 20.5776 27.0292C20.5776 27.0283 20.5776 27.0274 20.5776 27.0265C20.5776 27.0257 20.5776 27.0248 20.5776 27.0239C20.5776 27.023 20.5776 27.0221 20.5776 27.0212C20.5776 27.0203 20.5776 27.0194 20.5776 27.0186C20.5776 27.0177 20.5776 27.0168 20.5776 27.0159C20.5776 27.015 20.5776 27.0141 20.5776 27.0132C20.5776 27.0123 20.5776 27.0114 20.5776 27.0105C20.5776 27.0096 20.5776 27.0087 20.5776 27.0078C20.5776 27.0069 20.5776 27.006 20.5776 27.0051C20.5776 27.0042 20.5776 27.0032 20.5776 27.0023C20.5776 27.0014 20.5776 27.0005 20.5776 26.9996C20.5776 26.9987 20.5776 26.9978 20.5776 26.9968C20.5776 26.9959 20.5776 26.995 20.5776 26.9941C20.5776 26.9932 20.5776 26.9922 20.5776 26.9913C20.5776 26.9904 20.5776 26.9895 20.5776 26.9885C20.5776 26.9876 20.5776 26.9867 20.5776 26.9857C20.5776 26.9848 20.5776 26.9839 20.5776 26.9829C20.5776 26.982 20.5776 26.9811 20.5776 26.9801C20.5776 26.9792 20.5776 26.9783 20.5776 26.9773C20.5776 26.9764 20.5776 26.9754 20.5776 26.9745C20.5776 26.9735 20.5776 26.9726 20.5776 26.9717C20.5776 26.9707 20.5776 26.9698 20.5776 26.9688C20.5776 26.9679 20.5776 26.9669 20.5776 26.966C20.5776 26.965 20.5776 26.964 20.5776 26.9631C20.5776 26.9621 20.5776 26.9612 20.5776 26.9602C20.5776 26.9593 20.5776 26.9583 20.5776 26.9573C20.5776 26.9564 20.5776 26.9554 20.5776 26.9545C20.5776 26.9535 20.5776 26.9525 20.5776 26.9516C20.5776 26.9506 20.5776 26.9496 20.5776 26.9486C20.5776 26.9477 20.5776 26.9467 20.5776 26.9457C20.5776 26.9448 20.5776 26.9438 20.5776 26.9428C20.5776 26.9418 20.5776 26.9409 20.5776 26.9399C20.5776 26.9389 20.5776 26.9379 20.5776 26.9369C20.5776 26.9359 20.5776 26.935 20.5776 26.934C20.5776 26.933 20.5776 26.932 20.5776 26.931C20.5776 26.93 20.5776 26.929 20.5776 26.9281C20.5776 26.9271 20.5776 26.9261 20.5776 26.9251C20.5776 26.9241 20.5776 26.9231 20.5776 26.9221C20.5776 26.9211 20.5776 26.9201 20.5776 26.9191C20.5776 26.9181 20.5776 26.9171 20.5776 26.9161C20.5776 26.9151 20.5776 26.9141 20.5776 26.9131C20.5776 26.9121 20.5776 26.9111 20.5776 26.9101C20.5776 26.9091 20.5776 26.9081 20.5776 26.9071C20.5776 26.9061 20.5776 26.9051 20.5776 26.904C20.5776 26.903 20.5776 26.902 20.5776 26.901C20.5776 26.9 20.5776 26.899 20.5776 26.898C20.5776 26.897 20.5776 26.8959 20.5776 26.8949C20.5776 26.8939 20.5776 26.8929 20.5776 26.8919C20.5776 26.8908 20.5776 26.8898 20.5776 26.8888C20.5776 26.8878 20.5776 26.8868 20.5776 26.8857C20.5776 26.8847 20.5776 26.8837 20.5776 26.8826C20.5776 26.8816 20.5776 26.8806 20.5776 26.8796C20.5776 26.8785 20.5776 26.8775 20.5776 26.8765C20.5776 26.8754 20.5776 26.8744 20.5776 26.8734C20.5776 26.8723 20.5776 26.8713 20.5776 26.8703C20.5776 26.8692 20.5776 26.8682 20.5776 26.8671C20.5776 26.8661 20.5776 26.8651 20.5776 26.864C20.5776 26.863 20.5776 26.8619 20.5776 26.8609C20.5776 26.8599 20.5776 26.8588 20.5776 26.8578C20.5776 26.8567 20.5776 26.8557 20.5776 26.8546C20.5776 26.8536 20.5776 26.8525 20.5776 26.8515C20.5776 26.8504 20.5776 26.8494 20.5776 26.8483C20.5776 26.8473 20.5776 26.8462 20.5776 26.8452C20.5776 26.8441 20.5776 26.8431 20.5776 26.842C20.5776 26.841 20.5776 26.8399 20.5776 26.8388C20.5776 26.8378 20.5776 26.8367 20.5776 26.8357C20.5776 26.8346 20.5776 26.8335 20.5776 26.8325C20.5776 26.8314 20.5776 26.8304 20.5776 26.8293C20.5776 26.8282 20.5776 26.8272 20.5776 26.8261C20.5776 26.825 20.5776 26.824 20.5776 26.8229C20.5776 26.8218 20.5776 26.8208 20.5776 26.8197C20.5776 26.8186 20.5776 26.8176 20.5776 26.8165C20.5776 26.8154 20.5776 26.8143 20.5776 26.8133C20.5776 26.8122 20.5776 26.8111 20.5776 26.8101C20.5776 26.809 20.5776 26.8079 20.5776 26.8068C20.5776 26.8058 20.5776 26.8047 20.5776 26.8036C20.5776 26.8025 20.5776 26.8014 20.5776 26.8004C20.5776 26.7993 20.5776 26.7982 20.5776 26.7971C20.5776 26.796 20.5776 26.795 20.5776 26.7939C20.5776 26.7928 20.5776 26.7917 20.5776 26.7906C20.5776 26.7895 20.5776 26.7885 20.5776 26.7874C20.5776 26.7863 20.5776 26.7852 20.5776 26.7841C20.5776 26.783 20.5776 26.7819 20.5776 26.7808C20.5776 26.7798 20.5776 26.7787 20.5776 26.7776C20.5776 26.7765 20.5776 26.7754 20.5776 26.7743C20.5776 26.7732 20.5776 26.7721 20.5776 26.771C20.5776 26.7699 20.5776 26.7688 20.5776 26.7677C20.5776 26.7666 20.5776 26.7655 20.5776 26.7644C20.5776 26.7633 20.5776 26.7622 20.5776 26.7612C20.5776 26.7601 20.5776 26.759 20.5776 26.7579C20.5776 26.7568 20.5776 26.7557 20.5776 26.7546C20.5776 26.7535 20.5776 26.7524 20.5776 26.7512C20.5776 26.7501 20.5776 26.749 20.5776 26.7479C20.5776 26.7468 20.5776 26.7457 20.5776 26.7446C20.5776 26.7435 20.5776 26.7424 20.5776 26.7413C20.5776 26.7402 20.5776 26.7391 20.5776 26.738C20.5776 26.7369 20.5776 26.7358 20.5776 26.7347C20.5776 26.7336 20.5776 26.7325 20.5776 26.7313C20.5776 26.7302 20.5776 26.7291 20.5776 26.728C20.5776 26.7269 20.5776 26.7258 20.5776 26.7247C20.5776 26.7236 20.5776 26.7225 20.5776 26.7213C20.5776 26.7202 20.5776 26.7191 20.5776 26.718C20.5776 26.7169 20.5776 26.7158 20.5776 26.7147C20.5776 26.7135 20.5776 26.7124 20.5776 26.7113C20.5776 26.7102 20.5776 26.7091 20.5776 26.708C20.5776 26.7068 20.5776 26.7057 20.5776 26.7046C20.5776 26.7035 20.5776 26.7024 20.5776 26.7012C20.5776 26.7001 20.5776 26.699 20.5776 26.6979C20.5776 26.6968 20.5776 26.6956 20.5776 26.6945C20.5776 26.6934 20.5776 26.6923 20.5776 26.6912C20.5776 26.69 20.5776 26.6889 20.5776 26.6878C20.5776 26.6867 20.5776 26.6855 20.5776 26.6844C20.5776 26.6833 20.5776 26.6822 20.5776 26.6811C20.5776 26.6799 20.5776 26.6788 20.5776 26.6777C20.5776 26.6766 20.5776 26.6754 20.5776 26.6743C20.5776 26.6732 20.5776 26.672 20.5776 26.6709C20.5776 26.6698 20.5776 26.6687 20.5776 26.6675C20.5776 26.6664 20.5776 26.6653 20.5776 26.6642C20.5776 26.663 20.5776 26.6619 20.5776 26.6608C20.5776 26.6596 20.5776 26.6585 20.5776 26.6574C20.5776 26.6563 20.5776 26.6551 20.5776 26.654C20.5776 26.6529 20.5776 26.6517 20.5776 26.6506C20.5776 26.6495 20.5776 26.6483 20.5776 26.6472C20.5776 26.6461 20.5776 26.6449 20.5776 26.6438C20.5776 26.6427 20.5776 26.6415 20.5776 26.6404C20.5776 26.6393 20.5776 26.6382 20.5776 26.637C20.5776 26.6359 20.5776 26.6348 20.5776 26.6336C20.5776 26.6325 20.5776 26.6314 20.5776 26.6302C20.5776 26.6291 20.5776 26.628 20.5776 26.6268C20.5776 26.6257 20.5776 26.6245 20.5776 26.6234C20.5776 26.6223 20.5776 26.6211 20.5776 26.62C20.5776 26.6189 20.5776 26.6177 20.5776 26.6166C20.5776 26.6155 20.5776 26.6143 20.5776 26.6132C20.5776 26.6121 20.5776 26.6109 20.5776 26.6098C20.5776 26.6087 20.5776 26.6075 20.5776 26.6064C20.5776 26.6052 20.5776 26.6041 20.5776 26.603C20.5776 26.6018 20.5776 26.6007 20.5776 26.5996C20.5776 26.5984 20.5776 26.5973 20.5776 26.5961C20.5776 26.595 20.5776 26.5939 20.5776 26.5927C20.5776 26.5916 20.5776 26.5905 20.5776 26.5893C20.5776 26.5882 20.5776 26.587 20.5776 26.5859C20.5776 26.5848 20.5776 26.5836 20.5776 26.5825C20.5776 26.5814 20.5776 26.5802 20.5776 26.5791C20.5776 26.5779 20.5776 26.5768 20.5776 26.5757C20.5776 26.5745 20.5776 26.5734 20.5776 26.5723C20.5776 26.5711 20.5776 26.57 20.5776 26.5688C20.5776 26.5677 20.5776 26.5666 20.5776 26.5654C20.5776 26.5643 20.5776 26.5632 20.5776 26.562C20.5776 26.5609 20.5776 26.5597 20.5776 26.5586C20.5776 26.5575 20.5776 26.5563 20.5776 26.5552C20.5776 26.5541 20.5776 26.5529 20.5776 26.5518C20.5776 26.5506 20.5776 26.5495 20.5776 26.5484C20.5776 26.5472 20.5776 26.5461 20.5776 26.545C20.5776 26.5438 20.5776 26.5427 20.5776 26.5415C20.5776 26.5404 20.5776 26.5393 20.5776 26.5381C20.5776 26.537 20.5776 26.5359 20.5776 26.5347C20.5776 26.5336 20.5776 26.5325 20.5776 26.5313C20.5776 26.5302 20.5776 26.529 20.5776 26.5279C20.5776 26.5268 20.5776 26.5256 20.5776 26.5245C20.5776 26.5234 20.5776 26.5222 20.5776 26.5211C20.5776 26.52 20.5776 26.5188 20.5776 26.5177C20.5776 26.5166 20.5776 26.5154 20.5776 26.5143C20.5776 26.5131 20.5776 26.512 20.5776 26.5109C20.5776 26.5097 20.5776 26.5086 20.5776 26.5075C20.5776 26.5063 20.5776 26.5052 20.5776 26.5041C20.5776 26.5029 20.5776 26.5018 20.5776 26.5007C20.5776 26.4995 20.5776 26.4984 20.5776 26.4973C20.5776 26.4961 20.5776 26.495 20.5776 26.4939C20.5776 26.4927 20.5776 26.4916 20.5776 26.4905C20.5776 26.4894 20.5776 26.4882 20.5776 26.4871C20.5776 26.486 20.5776 26.4848 20.5776 26.4837C20.5776 26.4826 20.5776 26.4814 20.5776 26.4803C20.5776 26.4792 20.5776 26.4781 20.5776 26.4769C20.5776 26.4758 20.5776 26.4747 20.5776 26.4735C20.5776 26.4724 20.5776 26.4713 20.5776 26.4702C20.5776 26.469 20.5776 26.4679 20.5776 26.4668C20.5776 26.4656 20.5776 26.4645 20.5776 26.4634C20.5776 26.4623 20.5776 26.4611 20.5776 26.46C20.5776 26.4589 20.5776 26.4578 20.5776 26.4566C20.5776 26.4555 20.5776 26.4544 20.5776 26.4533C20.5776 26.4521 20.5776 26.451 20.5776 26.4499C20.5776 26.4488 20.5776 26.4477 20.5776 26.4465C20.5776 26.4454 20.5776 26.4443 20.5776 26.4432C20.5776 26.442 20.5776 26.4409 20.5776 26.4398C20.5776 26.4387 20.5776 26.4376 20.5776 26.4364C20.5776 26.4353 20.5776 26.4342 20.5776 26.4331C20.5776 26.432 20.5776 26.4309 20.5776 26.4297C20.5776 26.4286 20.5776 26.4275 20.5776 26.4264C20.5776 26.4253 20.5776 26.4242 20.5776 26.423C20.5776 26.4219 20.5776 26.4208 20.5776 26.4197C20.5776 26.4186 20.5776 26.4175 20.5776 26.4164C20.5776 26.4152 20.5776 26.4141 20.5776 26.413C20.5776 26.4119 20.5776 26.4108 20.5776 26.4097C20.5776 26.4086 20.5776 26.4075 20.5776 26.4064C20.5776 26.4052 20.5776 26.4041 20.5776 26.403C20.5776 26.4019 20.5776 26.4008 20.5776 26.3997C20.5776 26.3986 20.5776 26.3975 20.5776 26.3964C20.5776 26.3953 20.5776 26.3942 20.5776 26.3931C20.5776 26.392 20.5776 26.3909 20.5776 26.3898C20.5776 26.3887 20.5776 26.3876 20.5776 26.3864C20.5776 26.3853 20.5776 26.3842 20.5776 26.3831C20.5776 26.382 20.5776 26.3809 20.5776 26.3798C20.5776 26.3787 20.5776 26.3776 20.5776 26.3765C20.5776 26.3754 20.5776 26.3744 20.5776 26.3733C20.5776 26.3722 20.5776 26.3711 20.5776 26.37C20.5776 26.3689 20.5776 26.3678 20.5776 26.3667C20.5776 26.3656 20.5776 26.3645 20.5776 26.3634C20.5776 26.3623 20.5776 26.3612 20.5776 26.3601C20.5776 26.359 20.5776 26.3579 20.5776 26.3569C20.5776 26.3558 20.5776 26.3547 20.5776 26.3536C20.5776 26.3525 20.5776 26.3514 20.5776 26.3503C20.5776 26.3492 20.5776 26.3482 20.5776 26.3471C20.5776 26.346 20.5776 26.3449 20.5776 26.3438C20.5776 26.3427 20.5776 26.3417 20.5776 26.3406C20.5776 26.3395 20.5776 26.3384 20.5776 26.3373C20.5776 26.3363 20.5776 26.3352 20.5776 26.3341C20.5776 26.333 20.5776 26.3319 20.5776 26.3309C20.5776 26.3298 20.5776 26.3287 20.5776 26.3276C20.5776 26.3266 20.5776 26.3255 20.5776 26.3244C20.5776 26.3234 20.5776 26.3223 20.5776 26.3212C20.5776 26.3201 20.5776 26.3191 20.5776 26.318C20.5776 26.3169 20.5776 26.3159 20.5776 26.3148C20.5776 26.3137 20.5776 26.3127 20.5776 26.3116C20.5776 26.3105 20.5776 26.3095 20.5776 26.3084C20.5776 26.3073 20.5776 26.3063 20.5776 26.3052C20.5776 26.3042 20.5776 26.3031 20.5776 26.302C20.5776 26.301 20.5776 26.2999 20.5776 26.2989C20.5776 26.2978 20.5776 26.2967 20.5776 26.2957C20.5776 26.2946 20.5776 26.2936 20.5776 26.2925C20.5776 26.2915 20.5776 26.2904 20.5776 26.2894C20.5776 26.2883 20.5776 26.2873 20.5776 26.2862C20.5776 26.2852 20.5776 26.2841 20.5776 26.2831C20.5776 26.282 20.5776 26.281 20.5776 26.2799C20.5776 26.2789 20.5776 26.2778 20.5776 26.2768C20.5776 26.2758 20.5776 26.2747 20.5776 26.2737C20.5776 26.2726 20.5776 26.2716 20.5776 26.2706C20.5776 26.2695 20.5776 26.2685 20.5776 26.2674C20.5776 26.2664 20.5776 26.2654 20.5776 26.2643C20.5776 26.2633 20.5776 26.2623 20.5776 26.2612C20.5776 26.2602 20.5776 26.2592 20.5776 26.2581C20.5776 26.2571 20.5776 26.2561 20.5776 26.2551C20.5776 26.254 20.5776 26.253 20.5776 26.252C20.5776 26.251 20.5776 26.2499 20.5776 26.2489C20.5776 26.2479 20.5776 26.2469 20.5776 26.2458C20.5776 26.2448 20.5776 26.2438 20.5776 26.2428C20.5776 26.2418 20.5776 26.2408 20.5776 26.2397C20.5776 26.2387 20.5776 26.2377 20.5776 26.2367C20.5776 26.2357 20.5776 26.2347 20.5776 26.2337C20.5776 26.2326 20.5776 26.2316 20.5776 26.2306C20.5776 26.2296 20.5776 26.2286 20.5776 26.2276C20.5776 26.2266 20.5776 26.2256 20.5776 26.2246C20.5776 26.2236 20.5776 26.2226 20.5776 26.2216C20.5776 26.2206 20.5776 26.2196 20.5776 26.2186C20.5776 26.2176 20.5776 26.2166 20.5776 26.2156C20.5776 26.2146 20.5776 26.2136 20.5776 26.2126C20.5776 26.2116 20.5776 26.2106 20.5776 26.2097C20.5776 26.2087 20.5776 26.2077 20.5776 26.2067C20.5776 26.2057 20.5776 26.2047 20.5776 26.2037C20.5776 26.2027 20.5776 26.2018 20.5776 26.2008C20.5776 26.1998 20.5776 26.1988 20.5776 26.1978C20.5776 26.1969 20.5776 26.1959 20.5776 26.1949C20.5776 26.1939 20.5776 26.193 20.5776 26.192C20.5776 26.191 20.5776 26.19 20.5776 26.1891C20.5776 26.1881 20.5776 26.1871 20.5776 26.1862C20.5776 26.1852 20.5776 26.1842 20.5776 26.1833C20.5776 26.1823 20.5776 26.1813 20.5776 26.1804C20.5776 26.1794 20.5776 26.1785 20.5776 26.1775C20.5776 26.1765 20.5776 26.1756 20.5776 26.1746C20.5776 26.1737 20.5776 26.1727 20.5776 26.1718C20.5776 26.1708 20.5776 26.1699 20.5776 26.1689C20.5776 26.168 20.5776 26.167 20.5776 26.1661C20.5776 26.1651 20.5776 26.1642 20.5776 26.1632C20.5776 26.1623 20.5776 26.1613 20.5776 26.1604C20.5776 26.1595 20.5776 26.1585 20.5776 26.1576C20.5776 26.1566 20.5776 26.1557 20.5776 26.1548C20.5776 26.1538 20.5776 26.1529 20.5776 26.152C20.5776 26.151 20.5776 26.1501 20.5776 26.1492C20.5776 26.1483 20.5776 26.1473 20.5776 26.1464C20.5776 26.1455 20.5776 26.1446 20.5776 26.1436C20.5776 26.1427 20.5776 26.1418 20.5776 26.1409C20.5776 26.14 20.5776 26.139 20.5776 26.1381C20.5776 26.1372 20.5776 26.1363 20.5776 26.1354C20.5776 26.1345 20.5776 26.1336 20.5776 26.1327C20.5776 26.1318 20.5776 26.1308 20.5776 26.1299C20.5776 26.129 20.5776 26.1281 20.5776 26.1272C20.5776 26.1263 20.5776 26.1254 20.5776 26.1245C20.5776 26.1236 20.5776 26.1227 20.5776 26.1218C20.5776 26.121 20.5776 26.1201 20.5776 26.1192C20.5776 26.1183 20.5776 26.1174 20.5776 26.1165C20.5776 26.1156 20.5776 26.1147 20.5776 26.1138C20.5776 26.113 20.5776 26.1121 20.5776 26.1112C20.5776 26.1103 20.5776 26.1094 20.5776 26.1086C20.5776 26.1077 20.5776 26.1068 20.5776 26.1059C20.5776 26.1051 20.5776 26.1042 20.5776 26.1033C20.5776 26.1024 20.5776 26.1016 20.5776 26.1007C20.5776 26.0998 20.5776 26.099 20.5776 26.0981C20.5776 26.0973 20.5776 26.0964 20.5776 26.0955C20.5776 26.0947 20.5776 26.0938 20.5776 26.093C20.5776 26.0921 20.5776 26.0913 20.5776 26.0904C20.5776 26.0896 20.5776 26.0887 20.5776 26.0879C20.5776 26.087 20.5776 26.0862 20.5776 26.0853C20.5776 26.0845 20.5776 26.0836 20.5776 26.0828C20.5776 26.082 20.5776 26.0811 20.5776 26.0803C20.5776 26.0794 20.5776 26.0786 20.5776 26.0778C20.5776 26.0769 20.5776 26.0761 20.5776 26.0753C20.5776 26.0745 20.5776 26.0736 20.5776 26.0728C20.5776 26.072 20.5776 26.0712 20.5776 26.0703C20.5776 26.0695 20.5776 26.0687 20.5776 26.0679C20.5776 26.0671 20.5776 26.0662 20.5776 26.0654C20.5776 26.0646 20.5776 26.0638 20.5776 26.063C20.5776 26.0622 20.5776 26.0614 20.5776 26.0606C20.5776 26.0598 20.5776 26.059 20.5776 26.0582C20.5776 26.0574 20.5776 26.0566 20.5776 26.0558C20.5776 26.055 20.5776 26.0542 20.5776 26.0534C20.5776 26.0526 20.5776 26.0518 20.5776 26.051C20.5776 26.0502 20.5776 26.0494 20.5776 26.0487C20.5776 26.0479 20.5776 26.0471 20.5776 26.0463C20.5776 26.0455 20.5776 26.0448 20.5776 26.044C20.5776 26.0432 20.5776 26.0424 20.5776 26.0417C20.5776 26.0409 20.5776 26.0401 20.5776 26.0394C20.5776 26.0386 20.5776 26.0378 20.5776 26.0371C20.5776 26.0363 20.5776 26.0355 20.5776 26.0348C20.5776 26.034 20.5776 26.0333 20.5776 26.0325C20.5776 26.0317 20.5776 26.031 20.5776 26.0302C20.5776 26.0295 20.5776 26.0287 20.5776 26.028C20.5776 26.0273 20.5776 26.0265 20.5776 26.0258C20.5776 26.025 20.5776 26.0243 20.5776 26.0236C20.5776 26.0228 20.5776 26.0221 20.5776 26.0213C20.5776 26.0206 20.5776 26.0199 20.5776 26.0192C20.5776 26.0184 20.5776 26.0177 20.5776 26.017C20.5776 26.0163 20.5776 26.0155 20.5776 26.0148C20.5776 26.0141 20.5776 26.0134 20.5776 26.0127C20.5776 26.012 20.5776 26.0112 20.5776 26.0105C20.5776 26.0098 20.5776 26.0091 20.5776 26.0084C20.5776 26.0077 20.5776 26.007 20.5776 26.0063C20.5776 26.0056 20.5776 26.0049 20.5776 26.0042C20.5776 26.0035 20.5776 26.0028 20.5776 26.0021C20.5776 26.0014 20.5776 26.0007 20.5776 26.0001C20.5776 25.9994 20.5776 25.9987 20.5776 25.998C20.5776 25.9973 20.5776 25.9966 20.5776 25.996C20.5776 25.9953 20.5776 25.9946 20.5776 25.9939C20.5776 25.9933 20.5776 25.9926 20.5776 25.9919C20.5776 25.9913 20.5776 25.9906 20.5776 25.9899C20.5776 25.9893 20.5776 25.9886 20.5776 25.9879C20.5776 25.9873 20.5776 25.9866 20.5776 25.986C20.5776 25.9853 20.5776 25.9847 20.5776 25.984C20.5776 25.9834 20.5776 25.9827 20.5776 25.9821C20.5776 25.9814 20.5776 25.9808 20.5776 25.9802C20.5776 25.9795 20.5776 25.9789 20.5776 25.9783C20.5776 25.9776 20.5776 25.977 20.5776 25.9764C20.5776 25.9757 20.5776 25.9751 20.5776 25.9745C20.5776 25.9739 20.5776 25.9732 20.5776 25.9726C20.5776 25.972 20.5776 25.9714 20.5776 25.9708C20.5776 25.9702 20.5776 25.9695 20.5776 25.9689C20.5776 25.9683 20.5776 25.9677 20.5776 25.9671C20.5776 25.9665 20.5776 25.9659 20.5776 25.9653C20.5776 25.9647 20.5776 25.9641 20.5776 25.9635C20.5776 25.9629 20.5776 25.9623 20.5776 25.9618C20.5776 25.9612 20.5776 25.9606 20.5776 25.96C20.5776 25.9594 20.5776 25.9588 20.5776 25.9583C20.5776 25.9577 20.5776 25.9571 20.5776 25.9565C20.5776 25.956 20.5776 25.9554 20.5776 25.9548C20.5776 25.9543 20.5776 25.9537 20.5776 25.9531C20.5776 25.9526 20.5776 25.952 20.5776 25.9515C20.5776 25.9509 20.5776 25.9503 20.5776 25.9498C20.5776 25.9492 20.5776 25.9487 20.5776 25.9481C20.5776 25.9476 20.5776 25.9471 20.5776 25.9465C20.5776 25.946 20.5776 25.9454 20.5776 25.9449C20.5776 25.9444 20.5776 25.9438 20.5776 25.9433C20.5776 25.9428 20.5776 25.9422 20.5776 25.9417C20.5776 25.9412 20.5776 25.9407 20.5776 25.9402C20.5776 25.9396 20.5776 25.9391 20.5776 25.9386C20.5776 25.9381 20.5776 25.9376 20.5776 25.9371C20.5776 25.9366 20.5776 25.9361 20.5776 25.9356C20.5776 25.9351 20.5776 25.9346 20.5776 25.9341C20.5776 25.9336 20.5776 25.9331 20.5776 25.9326C20.5776 25.9321 20.5776 25.9316 20.5776 25.9311C20.5776 25.9306 20.5776 25.9302 20.5776 25.9297C20.5776 25.9292 20.5776 25.9287 20.5776 25.9282C20.5776 25.9278 20.5776 25.9273 20.5776 25.9268C20.5776 25.9264 20.5776 25.9259 20.5776 25.9254C20.5776 25.925 20.5776 25.9245 20.5776 25.9241C20.5776 25.9236 20.5776 25.9232 20.5776 25.9227C20.5776 25.9223 20.5776 25.9218 20.5776 25.9214C20.5776 25.9209 20.5776 25.9205 20.5776 25.92C20.5776 25.9196 20.5776 25.9192 20.5776 25.9187C20.5776 25.9183 20.5776 25.9179 20.5776 25.9174C20.5776 25.917 20.5776 25.9166 20.5776 25.9162C20.5776 25.9157 20.5776 25.9153 20.5776 25.9149C20.5776 25.9145 20.5776 25.9141 20.5776 25.9137C20.5776 25.9133 20.5776 25.9128 20.5776 25.9124C20.5776 25.912 20.5776 25.9116 20.5776 25.9112C20.5776 25.9108 20.5776 25.9105 20.5776 25.9101C20.5776 25.9097 20.5776 25.9093 20.5776 25.9089C20.5776 25.9085 20.5776 25.9081 20.5776 25.9077C20.5776 25.9074 20.5776 25.907 20.5776 25.9066C20.5776 25.9062 20.5776 25.9059 20.5776 25.9055C20.5776 25.9051 20.5776 25.9048 20.5776 25.9044C20.5776 25.9041 20.5776 25.9037 20.5776 25.9033C20.5776 25.903 20.5776 25.9026 20.5776 25.9023C20.5776 25.9019 20.5776 25.9016 20.5776 25.9012C20.5776 25.9009 20.5776 25.9006 20.5776 25.9002C20.5776 25.8999 20.5776 25.8996 20.5776 25.8992C20.5776 25.8989 20.5776 25.8986 20.5776 25.8983C20.5776 25.8979 20.5776 25.8976 20.5776 25.8973C20.5776 25.897 20.5776 25.8967 20.5776 25.8963C20.5776 25.896 20.5776 25.8957 20.5776 25.8954C20.5776 25.8951 20.5776 25.8948 20.5776 25.8945C20.5776 25.8942 20.5776 25.8939 20.5776 25.8936C20.5776 25.8933 20.5776 25.8931 20.5776 25.8928C20.5776 25.8925 20.5776 25.8922 20.5776 25.8919C20.5776 25.8916 20.5776 25.8914 20.5776 25.8911C20.5776 25.8908 20.5776 25.8906 20.5776 25.8903C20.5776 25.89 20.5776 25.8898 20.5776 25.8895C20.5776 25.8892 20.5776 25.889 20.5776 25.8887C20.5776 25.8885 20.5776 25.8882 20.5776 25.888C20.5776 25.8877 20.5776 25.8875 20.5776 25.8873C20.5776 25.887 20.5776 25.8868 20.5776 25.8865C20.5776 25.8863 20.5776 25.8861 20.5776 25.8859C20.5776 25.8856 20.5776 25.8854 20.5776 25.8852C20.5776 25.885 20.5776 25.8848 20.5776 25.8845C20.5776 25.8843 20.5776 25.8841 20.5776 25.8839C20.5776 25.8837 20.5776 25.8835 20.5776 25.8833C20.5776 25.8831 20.5776 25.8829 20.5776 25.8827C20.5776 25.8825 20.5776 25.8823 20.5776 25.8822C20.5776 25.882 20.5776 25.8818 20.5776 25.8816C20.5776 25.8814 20.5776 25.8812 20.5776 25.8811C20.5776 25.8809 20.5776 25.8807 20.5776 25.8806C20.5776 25.8804 20.5776 25.8802 20.5776 25.8801C20.5776 25.8799 20.5776 25.8798 20.5776 25.8796C20.5776 25.8795 20.5776 25.8793 20.5776 25.8792C20.5776 25.879 20.5776 25.8789 20.5776 25.8788C20.5776 25.8786 20.5776 25.8785 20.5776 25.8784C20.5776 25.8782 20.5776 25.8781 20.5776 25.878C20.5776 25.8779 20.5776 25.8777 20.5776 25.8776C20.5776 25.8775 20.5776 25.8774 20.5776 25.8773C20.5776 25.8772 20.5776 25.8771 20.5776 25.877C20.5776 25.8769 20.5776 25.8768 20.5776 25.8767C20.5776 25.8766 20.5776 25.8765 20.5776 25.8764C20.5776 25.8763 20.5776 25.8762 20.5776 25.8761C20.5776 25.8761 20.5776 25.876 20.5776 25.8759C20.5776 25.8758 20.5776 25.8758 20.5776 25.8757C20.5776 25.8756 20.5776 25.8756 20.5776 25.8755C20.5776 25.8755 20.5776 25.8754 20.5776 25.8753C20.5776 25.8753 20.5776 25.8752 20.5776 25.8752C20.5776 25.8752 20.5776 25.8751 20.5776 25.8751C20.5776 25.875 20.5776 25.875 20.5776 25.875C20.5776 25.8749 20.5776 25.8749 20.5776 25.8749C20.5776 25.8749 20.5776 25.8749 20.5776 25.8748C20.5776 25.8748 20.5776 25.8748 20.5776 25.8748C20.5776 25.8748 20.5776 25.8748 20.0776 25.8748C19.5776 25.8748 19.5776 25.8748 19.5776 25.8748C19.5776 25.8748 19.5776 25.8748 19.5776 25.8748C19.5776 25.8749 19.5776 25.8749 19.5776 25.8749C19.5776 25.8749 19.5776 25.8749 19.5776 25.875C19.5776 25.875 19.5776 25.875 19.5776 25.8751C19.5776 25.8751 19.5776 25.8752 19.5776 25.8752C19.5776 25.8752 19.5776 25.8753 19.5776 25.8753C19.5776 25.8754 19.5776 25.8755 19.5776 25.8755C19.5776 25.8756 19.5776 25.8756 19.5776 25.8757C19.5776 25.8758 19.5776 25.8758 19.5776 25.8759C19.5776 25.876 19.5776 25.8761 19.5776 25.8761C19.5776 25.8762 19.5776 25.8763 19.5776 25.8764C19.5776 25.8765 19.5776 25.8766 19.5776 25.8767C19.5776 25.8768 19.5776 25.8769 19.5776 25.877C19.5776 25.8771 19.5776 25.8772 19.5776 25.8773C19.5776 25.8774 19.5776 25.8775 19.5776 25.8776C19.5776 25.8777 19.5776 25.8779 19.5776 25.878C19.5776 25.8781 19.5776 25.8782 19.5776 25.8784C19.5776 25.8785 19.5776 25.8786 19.5776 25.8788C19.5776 25.8789 19.5776 25.879 19.5776 25.8792C19.5776 25.8793 19.5776 25.8795 19.5776 25.8796C19.5776 25.8798 19.5776 25.8799 19.5776 25.8801C19.5776 25.8802 19.5776 25.8804 19.5776 25.8806C19.5776 25.8807 19.5776 25.8809 19.5776 25.8811C19.5776 25.8812 19.5776 25.8814 19.5776 25.8816C19.5776 25.8818 19.5776 25.882 19.5776 25.8822C19.5776 25.8823 19.5776 25.8825 19.5776 25.8827C19.5776 25.8829 19.5776 25.8831 19.5776 25.8833C19.5776 25.8835 19.5776 25.8837 19.5776 25.8839C19.5776 25.8841 19.5776 25.8843 19.5776 25.8845C19.5776 25.8848 19.5776 25.885 19.5776 25.8852C19.5776 25.8854 19.5776 25.8856 19.5776 25.8859C19.5776 25.8861 19.5776 25.8863 19.5776 25.8865C19.5776 25.8868 19.5776 25.887 19.5776 25.8873C19.5776 25.8875 19.5776 25.8877 19.5776 25.888C19.5776 25.8882 19.5776 25.8885 19.5776 25.8887C19.5776 25.889 19.5776 25.8892 19.5776 25.8895C19.5776 25.8898 19.5776 25.89 19.5776 25.8903C19.5776 25.8906 19.5776 25.8908 19.5776 25.8911C19.5776 25.8914 19.5776 25.8916 19.5776 25.8919C19.5776 25.8922 19.5776 25.8925 19.5776 25.8928C19.5776 25.8931 19.5776 25.8933 19.5776 25.8936C19.5776 25.8939 19.5776 25.8942 19.5776 25.8945C19.5776 25.8948 19.5776 25.8951 19.5776 25.8954C19.5776 25.8957 19.5776 25.896 19.5776 25.8963C19.5776 25.8967 19.5776 25.897 19.5776 25.8973C19.5776 25.8976 19.5776 25.8979 19.5776 25.8983C19.5776 25.8986 19.5776 25.8989 19.5776 25.8992C19.5776 25.8996 19.5776 25.8999 19.5776 25.9002C19.5776 25.9006 19.5776 25.9009 19.5776 25.9012C19.5776 25.9016 19.5776 25.9019 19.5776 25.9023C19.5776 25.9026 19.5776 25.903 19.5776 25.9033C19.5776 25.9037 19.5776 25.9041 19.5776 25.9044C19.5776 25.9048 19.5776 25.9051 19.5776 25.9055C19.5776 25.9059 19.5776 25.9062 19.5776 25.9066C19.5776 25.907 19.5776 25.9074 19.5776 25.9077C19.5776 25.9081 19.5776 25.9085 19.5776 25.9089C19.5776 25.9093 19.5776 25.9097 19.5776 25.9101C19.5776 25.9105 19.5776 25.9108 19.5776 25.9112C19.5776 25.9116 19.5776 25.912 19.5776 25.9124C19.5776 25.9128 19.5776 25.9133 19.5776 25.9137C19.5776 25.9141 19.5776 25.9145 19.5776 25.9149C19.5776 25.9153 19.5776 25.9157 19.5776 25.9162C19.5776 25.9166 19.5776 25.917 19.5776 25.9174C19.5776 25.9179 19.5776 25.9183 19.5776 25.9187C19.5776 25.9192 19.5776 25.9196 19.5776 25.92C19.5776 25.9205 19.5776 25.9209 19.5776 25.9214C19.5776 25.9218 19.5776 25.9223 19.5776 25.9227C19.5776 25.9232 19.5776 25.9236 19.5776 25.9241C19.5776 25.9245 19.5776 25.925 19.5776 25.9254C19.5776 25.9259 19.5776 25.9264 19.5776 25.9268C19.5776 25.9273 19.5776 25.9278 19.5776 25.9282C19.5776 25.9287 19.5776 25.9292 19.5776 25.9297C19.5776 25.9302 19.5776 25.9306 19.5776 25.9311C19.5776 25.9316 19.5776 25.9321 19.5776 25.9326C19.5776 25.9331 19.5776 25.9336 19.5776 25.9341C19.5776 25.9346 19.5776 25.9351 19.5776 25.9356C19.5776 25.9361 19.5776 25.9366 19.5776 25.9371C19.5776 25.9376 19.5776 25.9381 19.5776 25.9386C19.5776 25.9391 19.5776 25.9396 19.5776 25.9402C19.5776 25.9407 19.5776 25.9412 19.5776 25.9417C19.5776 25.9422 19.5776 25.9428 19.5776 25.9433C19.5776 25.9438 19.5776 25.9444 19.5776 25.9449C19.5776 25.9454 19.5776 25.946 19.5776 25.9465C19.5776 25.9471 19.5776 25.9476 19.5776 25.9481C19.5776 25.9487 19.5776 25.9492 19.5776 25.9498C19.5776 25.9503 19.5776 25.9509 19.5776 25.9515C19.5776 25.952 19.5776 25.9526 19.5776 25.9531C19.5776 25.9537 19.5776 25.9543 19.5776 25.9548C19.5776 25.9554 19.5776 25.956 19.5776 25.9565C19.5776 25.9571 19.5776 25.9577 19.5776 25.9583C19.5776 25.9588 19.5776 25.9594 19.5776 25.96C19.5776 25.9606 19.5776 25.9612 19.5776 25.9618C19.5776 25.9623 19.5776 25.9629 19.5776 25.9635C19.5776 25.9641 19.5776 25.9647 19.5776 25.9653C19.5776 25.9659 19.5776 25.9665 19.5776 25.9671C19.5776 25.9677 19.5776 25.9683 19.5776 25.9689C19.5776 25.9695 19.5776 25.9702 19.5776 25.9708C19.5776 25.9714 19.5776 25.972 19.5776 25.9726C19.5776 25.9732 19.5776 25.9739 19.5776 25.9745C19.5776 25.9751 19.5776 25.9757 19.5776 25.9764C19.5776 25.977 19.5776 25.9776 19.5776 25.9783C19.5776 25.9789 19.5776 25.9795 19.5776 25.9802C19.5776 25.9808 19.5776 25.9814 19.5776 25.9821C19.5776 25.9827 19.5776 25.9834 19.5776 25.984C19.5776 25.9847 19.5776 25.9853 19.5776 25.986C19.5776 25.9866 19.5776 25.9873 19.5776 25.9879C19.5776 25.9886 19.5776 25.9893 19.5776 25.9899C19.5776 25.9906 19.5776 25.9913 19.5776 25.9919C19.5776 25.9926 19.5776 25.9933 19.5776 25.9939C19.5776 25.9946 19.5776 25.9953 19.5776 25.996C19.5776 25.9966 19.5776 25.9973 19.5776 25.998C19.5776 25.9987 19.5776 25.9994 19.5776 26.0001C19.5776 26.0007 19.5776 26.0014 19.5776 26.0021C19.5776 26.0028 19.5776 26.0035 19.5776 26.0042C19.5776 26.0049 19.5776 26.0056 19.5776 26.0063C19.5776 26.007 19.5776 26.0077 19.5776 26.0084C19.5776 26.0091 19.5776 26.0098 19.5776 26.0105C19.5776 26.0112 19.5776 26.012 19.5776 26.0127C19.5776 26.0134 19.5776 26.0141 19.5776 26.0148C19.5776 26.0155 19.5776 26.0163 19.5776 26.017C19.5776 26.0177 19.5776 26.0184 19.5776 26.0192C19.5776 26.0199 19.5776 26.0206 19.5776 26.0213C19.5776 26.0221 19.5776 26.0228 19.5776 26.0236C19.5776 26.0243 19.5776 26.025 19.5776 26.0258C19.5776 26.0265 19.5776 26.0273 19.5776 26.028C19.5776 26.0287 19.5776 26.0295 19.5776 26.0302C19.5776 26.031 19.5776 26.0317 19.5776 26.0325C19.5776 26.0333 19.5776 26.034 19.5776 26.0348C19.5776 26.0355 19.5776 26.0363 19.5776 26.0371C19.5776 26.0378 19.5776 26.0386 19.5776 26.0394C19.5776 26.0401 19.5776 26.0409 19.5776 26.0417C19.5776 26.0424 19.5776 26.0432 19.5776 26.044C19.5776 26.0448 19.5776 26.0455 19.5776 26.0463C19.5776 26.0471 19.5776 26.0479 19.5776 26.0487C19.5776 26.0494 19.5776 26.0502 19.5776 26.051C19.5776 26.0518 19.5776 26.0526 19.5776 26.0534C19.5776 26.0542 19.5776 26.055 19.5776 26.0558C19.5776 26.0566 19.5776 26.0574 19.5776 26.0582C19.5776 26.059 19.5776 26.0598 19.5776 26.0606C19.5776 26.0614 19.5776 26.0622 19.5776 26.063C19.5776 26.0638 19.5776 26.0646 19.5776 26.0654C19.5776 26.0662 19.5776 26.0671 19.5776 26.0679C19.5776 26.0687 19.5776 26.0695 19.5776 26.0703C19.5776 26.0712 19.5776 26.072 19.5776 26.0728C19.5776 26.0736 19.5776 26.0745 19.5776 26.0753C19.5776 26.0761 19.5776 26.0769 19.5776 26.0778C19.5776 26.0786 19.5776 26.0794 19.5776 26.0803C19.5776 26.0811 19.5776 26.082 19.5776 26.0828C19.5776 26.0836 19.5776 26.0845 19.5776 26.0853C19.5776 26.0862 19.5776 26.087 19.5776 26.0879C19.5776 26.0887 19.5776 26.0896 19.5776 26.0904C19.5776 26.0913 19.5776 26.0921 19.5776 26.093C19.5776 26.0938 19.5776 26.0947 19.5776 26.0955C19.5776 26.0964 19.5776 26.0973 19.5776 26.0981C19.5776 26.099 19.5776 26.0998 19.5776 26.1007C19.5776 26.1016 19.5776 26.1024 19.5776 26.1033C19.5776 26.1042 19.5776 26.1051 19.5776 26.1059C19.5776 26.1068 19.5776 26.1077 19.5776 26.1086C19.5776 26.1094 19.5776 26.1103 19.5776 26.1112C19.5776 26.1121 19.5776 26.113 19.5776 26.1138C19.5776 26.1147 19.5776 26.1156 19.5776 26.1165C19.5776 26.1174 19.5776 26.1183 19.5776 26.1192C19.5776 26.1201 19.5776 26.121 19.5776 26.1218C19.5776 26.1227 19.5776 26.1236 19.5776 26.1245C19.5776 26.1254 19.5776 26.1263 19.5776 26.1272C19.5776 26.1281 19.5776 26.129 19.5776 26.1299C19.5776 26.1308 19.5776 26.1318 19.5776 26.1327C19.5776 26.1336 19.5776 26.1345 19.5776 26.1354C19.5776 26.1363 19.5776 26.1372 19.5776 26.1381C19.5776 26.139 19.5776 26.14 19.5776 26.1409C19.5776 26.1418 19.5776 26.1427 19.5776 26.1436C19.5776 26.1446 19.5776 26.1455 19.5776 26.1464C19.5776 26.1473 19.5776 26.1483 19.5776 26.1492C19.5776 26.1501 19.5776 26.151 19.5776 26.152C19.5776 26.1529 19.5776 26.1538 19.5776 26.1548C19.5776 26.1557 19.5776 26.1566 19.5776 26.1576C19.5776 26.1585 19.5776 26.1595 19.5776 26.1604C19.5776 26.1613 19.5776 26.1623 19.5776 26.1632C19.5776 26.1642 19.5776 26.1651 19.5776 26.1661C19.5776 26.167 19.5776 26.168 19.5776 26.1689C19.5776 26.1699 19.5776 26.1708 19.5776 26.1718C19.5776 26.1727 19.5776 26.1737 19.5776 26.1746C19.5776 26.1756 19.5776 26.1765 19.5776 26.1775C19.5776 26.1785 19.5776 26.1794 19.5776 26.1804C19.5776 26.1813 19.5776 26.1823 19.5776 26.1833C19.5776 26.1842 19.5776 26.1852 19.5776 26.1862C19.5776 26.1871 19.5776 26.1881 19.5776 26.1891C19.5776 26.19 19.5776 26.191 19.5776 26.192C19.5776 26.193 19.5776 26.1939 19.5776 26.1949C19.5776 26.1959 19.5776 26.1969 19.5776 26.1978C19.5776 26.1988 19.5776 26.1998 19.5776 26.2008C19.5776 26.2018 19.5776 26.2027 19.5776 26.2037C19.5776 26.2047 19.5776 26.2057 19.5776 26.2067C19.5776 26.2077 19.5776 26.2087 19.5776 26.2097C19.5776 26.2106 19.5776 26.2116 19.5776 26.2126C19.5776 26.2136 19.5776 26.2146 19.5776 26.2156C19.5776 26.2166 19.5776 26.2176 19.5776 26.2186C19.5776 26.2196 19.5776 26.2206 19.5776 26.2216C19.5776 26.2226 19.5776 26.2236 19.5776 26.2246C19.5776 26.2256 19.5776 26.2266 19.5776 26.2276C19.5776 26.2286 19.5776 26.2296 19.5776 26.2306C19.5776 26.2316 19.5776 26.2326 19.5776 26.2337C19.5776 26.2347 19.5776 26.2357 19.5776 26.2367C19.5776 26.2377 19.5776 26.2387 19.5776 26.2397C19.5776 26.2408 19.5776 26.2418 19.5776 26.2428C19.5776 26.2438 19.5776 26.2448 19.5776 26.2458C19.5776 26.2469 19.5776 26.2479 19.5776 26.2489C19.5776 26.2499 19.5776 26.251 19.5776 26.252C19.5776 26.253 19.5776 26.254 19.5776 26.2551C19.5776 26.2561 19.5776 26.2571 19.5776 26.2581C19.5776 26.2592 19.5776 26.2602 19.5776 26.2612C19.5776 26.2623 19.5776 26.2633 19.5776 26.2643C19.5776 26.2654 19.5776 26.2664 19.5776 26.2674C19.5776 26.2685 19.5776 26.2695 19.5776 26.2706C19.5776 26.2716 19.5776 26.2726 19.5776 26.2737C19.5776 26.2747 19.5776 26.2758 19.5776 26.2768C19.5776 26.2778 19.5776 26.2789 19.5776 26.2799C19.5776 26.281 19.5776 26.282 19.5776 26.2831C19.5776 26.2841 19.5776 26.2852 19.5776 26.2862C19.5776 26.2873 19.5776 26.2883 19.5776 26.2894C19.5776 26.2904 19.5776 26.2915 19.5776 26.2925C19.5776 26.2936 19.5776 26.2946 19.5776 26.2957C19.5776 26.2967 19.5776 26.2978 19.5776 26.2989C19.5776 26.2999 19.5776 26.301 19.5776 26.302C19.5776 26.3031 19.5776 26.3042 19.5776 26.3052C19.5776 26.3063 19.5776 26.3073 19.5776 26.3084C19.5776 26.3095 19.5776 26.3105 19.5776 26.3116C19.5776 26.3127 19.5776 26.3137 19.5776 26.3148C19.5776 26.3159 19.5776 26.3169 19.5776 26.318C19.5776 26.3191 19.5776 26.3201 19.5776 26.3212C19.5776 26.3223 19.5776 26.3234 19.5776 26.3244C19.5776 26.3255 19.5776 26.3266 19.5776 26.3276C19.5776 26.3287 19.5776 26.3298 19.5776 26.3309C19.5776 26.3319 19.5776 26.333 19.5776 26.3341C19.5776 26.3352 19.5776 26.3363 19.5776 26.3373C19.5776 26.3384 19.5776 26.3395 19.5776 26.3406C19.5776 26.3417 19.5776 26.3427 19.5776 26.3438C19.5776 26.3449 19.5776 26.346 19.5776 26.3471C19.5776 26.3482 19.5776 26.3492 19.5776 26.3503C19.5776 26.3514 19.5776 26.3525 19.5776 26.3536C19.5776 26.3547 19.5776 26.3558 19.5776 26.3569C19.5776 26.3579 19.5776 26.359 19.5776 26.3601C19.5776 26.3612 19.5776 26.3623 19.5776 26.3634C19.5776 26.3645 19.5776 26.3656 19.5776 26.3667C19.5776 26.3678 19.5776 26.3689 19.5776 26.37C19.5776 26.3711 19.5776 26.3722 19.5776 26.3733C19.5776 26.3744 19.5776 26.3754 19.5776 26.3765C19.5776 26.3776 19.5776 26.3787 19.5776 26.3798C19.5776 26.3809 19.5776 26.382 19.5776 26.3831C19.5776 26.3842 19.5776 26.3853 19.5776 26.3864C19.5776 26.3876 19.5776 26.3887 19.5776 26.3898C19.5776 26.3909 19.5776 26.392 19.5776 26.3931C19.5776 26.3942 19.5776 26.3953 19.5776 26.3964C19.5776 26.3975 19.5776 26.3986 19.5776 26.3997C19.5776 26.4008 19.5776 26.4019 19.5776 26.403C19.5776 26.4041 19.5776 26.4052 19.5776 26.4064C19.5776 26.4075 19.5776 26.4086 19.5776 26.4097C19.5776 26.4108 19.5776 26.4119 19.5776 26.413C19.5776 26.4141 19.5776 26.4152 19.5776 26.4164C19.5776 26.4175 19.5776 26.4186 19.5776 26.4197C19.5776 26.4208 19.5776 26.4219 19.5776 26.423C19.5776 26.4242 19.5776 26.4253 19.5776 26.4264C19.5776 26.4275 19.5776 26.4286 19.5776 26.4297C19.5776 26.4309 19.5776 26.432 19.5776 26.4331C19.5776 26.4342 19.5776 26.4353 19.5776 26.4364C19.5776 26.4376 19.5776 26.4387 19.5776 26.4398C19.5776 26.4409 19.5776 26.442 19.5776 26.4432C19.5776 26.4443 19.5776 26.4454 19.5776 26.4465C19.5776 26.4477 19.5776 26.4488 19.5776 26.4499C19.5776 26.451 19.5776 26.4521 19.5776 26.4533C19.5776 26.4544 19.5776 26.4555 19.5776 26.4566C19.5776 26.4578 19.5776 26.4589 19.5776 26.46C19.5776 26.4611 19.5776 26.4623 19.5776 26.4634C19.5776 26.4645 19.5776 26.4656 19.5776 26.4668C19.5776 26.4679 19.5776 26.469 19.5776 26.4702C19.5776 26.4713 19.5776 26.4724 19.5776 26.4735C19.5776 26.4747 19.5776 26.4758 19.5776 26.4769C19.5776 26.4781 19.5776 26.4792 19.5776 26.4803C19.5776 26.4814 19.5776 26.4826 19.5776 26.4837C19.5776 26.4848 19.5776 26.486 19.5776 26.4871C19.5776 26.4882 19.5776 26.4894 19.5776 26.4905C19.5776 26.4916 19.5776 26.4927 19.5776 26.4939C19.5776 26.495 19.5776 26.4961 19.5776 26.4973C19.5776 26.4984 19.5776 26.4995 19.5776 26.5007C19.5776 26.5018 19.5776 26.5029 19.5776 26.5041C19.5776 26.5052 19.5776 26.5063 19.5776 26.5075C19.5776 26.5086 19.5776 26.5097 19.5776 26.5109C19.5776 26.512 19.5776 26.5131 19.5776 26.5143C19.5776 26.5154 19.5776 26.5166 19.5776 26.5177C19.5776 26.5188 19.5776 26.52 19.5776 26.5211C19.5776 26.5222 19.5776 26.5234 19.5776 26.5245C19.5776 26.5256 19.5776 26.5268 19.5776 26.5279C19.5776 26.529 19.5776 26.5302 19.5776 26.5313C19.5776 26.5325 19.5776 26.5336 19.5776 26.5347C19.5776 26.5359 19.5776 26.537 19.5776 26.5381C19.5776 26.5393 19.5776 26.5404 19.5776 26.5415C19.5776 26.5427 19.5776 26.5438 19.5776 26.545C19.5776 26.5461 19.5776 26.5472 19.5776 26.5484C19.5776 26.5495 19.5776 26.5506 19.5776 26.5518C19.5776 26.5529 19.5776 26.5541 19.5776 26.5552C19.5776 26.5563 19.5776 26.5575 19.5776 26.5586C19.5776 26.5597 19.5776 26.5609 19.5776 26.562C19.5776 26.5632 19.5776 26.5643 19.5776 26.5654C19.5776 26.5666 19.5776 26.5677 19.5776 26.5688C19.5776 26.57 19.5776 26.5711 19.5776 26.5723C19.5776 26.5734 19.5776 26.5745 19.5776 26.5757C19.5776 26.5768 19.5776 26.5779 19.5776 26.5791C19.5776 26.5802 19.5776 26.5814 19.5776 26.5825C19.5776 26.5836 19.5776 26.5848 19.5776 26.5859C19.5776 26.587 19.5776 26.5882 19.5776 26.5893C19.5776 26.5905 19.5776 26.5916 19.5776 26.5927C19.5776 26.5939 19.5776 26.595 19.5776 26.5961C19.5776 26.5973 19.5776 26.5984 19.5776 26.5996C19.5776 26.6007 19.5776 26.6018 19.5776 26.603C19.5776 26.6041 19.5776 26.6052 19.5776 26.6064C19.5776 26.6075 19.5776 26.6087 19.5776 26.6098C19.5776 26.6109 19.5776 26.6121 19.5776 26.6132C19.5776 26.6143 19.5776 26.6155 19.5776 26.6166C19.5776 26.6177 19.5776 26.6189 19.5776 26.62C19.5776 26.6211 19.5776 26.6223 19.5776 26.6234C19.5776 26.6245 19.5776 26.6257 19.5776 26.6268C19.5776 26.628 19.5776 26.6291 19.5776 26.6302C19.5776 26.6314 19.5776 26.6325 19.5776 26.6336C19.5776 26.6348 19.5776 26.6359 19.5776 26.637C19.5776 26.6382 19.5776 26.6393 19.5776 26.6404C19.5776 26.6415 19.5776 26.6427 19.5776 26.6438C19.5776 26.6449 19.5776 26.6461 19.5776 26.6472C19.5776 26.6483 19.5776 26.6495 19.5776 26.6506C19.5776 26.6517 19.5776 26.6529 19.5776 26.654C19.5776 26.6551 19.5776 26.6563 19.5776 26.6574C19.5776 26.6585 19.5776 26.6596 19.5776 26.6608C19.5776 26.6619 19.5776 26.663 19.5776 26.6642C19.5776 26.6653 19.5776 26.6664 19.5776 26.6675C19.5776 26.6687 19.5776 26.6698 19.5776 26.6709C19.5776 26.672 19.5776 26.6732 19.5776 26.6743C19.5776 26.6754 19.5776 26.6766 19.5776 26.6777C19.5776 26.6788 19.5776 26.6799 19.5776 26.6811C19.5776 26.6822 19.5776 26.6833 19.5776 26.6844C19.5776 26.6855 19.5776 26.6867 19.5776 26.6878C19.5776 26.6889 19.5776 26.69 19.5776 26.6912C19.5776 26.6923 19.5776 26.6934 19.5776 26.6945C19.5776 26.6956 19.5776 26.6968 19.5776 26.6979C19.5776 26.699 19.5776 26.7001 19.5776 26.7012C19.5776 26.7024 19.5776 26.7035 19.5776 26.7046C19.5776 26.7057 19.5776 26.7068 19.5776 26.708C19.5776 26.7091 19.5776 26.7102 19.5776 26.7113C19.5776 26.7124 19.5776 26.7135 19.5776 26.7147C19.5776 26.7158 19.5776 26.7169 19.5776 26.718C19.5776 26.7191 19.5776 26.7202 19.5776 26.7213C19.5776 26.7225 19.5776 26.7236 19.5776 26.7247C19.5776 26.7258 19.5776 26.7269 19.5776 26.728C19.5776 26.7291 19.5776 26.7302 19.5776 26.7313C19.5776 26.7325 19.5776 26.7336 19.5776 26.7347C19.5776 26.7358 19.5776 26.7369 19.5776 26.738C19.5776 26.7391 19.5776 26.7402 19.5776 26.7413C19.5776 26.7424 19.5776 26.7435 19.5776 26.7446C19.5776 26.7457 19.5776 26.7468 19.5776 26.7479C19.5776 26.749 19.5776 26.7501 19.5776 26.7512C19.5776 26.7524 19.5776 26.7535 19.5776 26.7546C19.5776 26.7557 19.5776 26.7568 19.5776 26.7579C19.5776 26.759 19.5776 26.7601 19.5776 26.7612C19.5776 26.7622 19.5776 26.7633 19.5776 26.7644C19.5776 26.7655 19.5776 26.7666 19.5776 26.7677C19.5776 26.7688 19.5776 26.7699 19.5776 26.771C19.5776 26.7721 19.5776 26.7732 19.5776 26.7743C19.5776 26.7754 19.5776 26.7765 19.5776 26.7776C19.5776 26.7787 19.5776 26.7798 19.5776 26.7808C19.5776 26.7819 19.5776 26.783 19.5776 26.7841C19.5776 26.7852 19.5776 26.7863 19.5776 26.7874C19.5776 26.7885 19.5776 26.7895 19.5776 26.7906C19.5776 26.7917 19.5776 26.7928 19.5776 26.7939C19.5776 26.795 19.5776 26.796 19.5776 26.7971C19.5776 26.7982 19.5776 26.7993 19.5776 26.8004C19.5776 26.8014 19.5776 26.8025 19.5776 26.8036C19.5776 26.8047 19.5776 26.8058 19.5776 26.8068C19.5776 26.8079 19.5776 26.809 19.5776 26.8101C19.5776 26.8111 19.5776 26.8122 19.5776 26.8133C19.5776 26.8143 19.5776 26.8154 19.5776 26.8165C19.5776 26.8176 19.5776 26.8186 19.5776 26.8197C19.5776 26.8208 19.5776 26.8218 19.5776 26.8229C19.5776 26.824 19.5776 26.825 19.5776 26.8261C19.5776 26.8272 19.5776 26.8282 19.5776 26.8293C19.5776 26.8304 19.5776 26.8314 19.5776 26.8325C19.5776 26.8335 19.5776 26.8346 19.5776 26.8357C19.5776 26.8367 19.5776 26.8378 19.5776 26.8388C19.5776 26.8399 19.5776 26.841 19.5776 26.842C19.5776 26.8431 19.5776 26.8441 19.5776 26.8452C19.5776 26.8462 19.5776 26.8473 19.5776 26.8483C19.5776 26.8494 19.5776 26.8504 19.5776 26.8515C19.5776 26.8525 19.5776 26.8536 19.5776 26.8546C19.5776 26.8557 19.5776 26.8567 19.5776 26.8578C19.5776 26.8588 19.5776 26.8599 19.5776 26.8609C19.5776 26.8619 19.5776 26.863 19.5776 26.864C19.5776 26.8651 19.5776 26.8661 19.5776 26.8671C19.5776 26.8682 19.5776 26.8692 19.5776 26.8703C19.5776 26.8713 19.5776 26.8723 19.5776 26.8734C19.5776 26.8744 19.5776 26.8754 19.5776 26.8765C19.5776 26.8775 19.5776 26.8785 19.5776 26.8796C19.5776 26.8806 19.5776 26.8816 19.5776 26.8826C19.5776 26.8837 19.5776 26.8847 19.5776 26.8857C19.5776 26.8868 19.5776 26.8878 19.5776 26.8888C19.5776 26.8898 19.5776 26.8908 19.5776 26.8919C19.5776 26.8929 19.5776 26.8939 19.5776 26.8949C19.5776 26.8959 19.5776 26.897 19.5776 26.898C19.5776 26.899 19.5776 26.9 19.5776 26.901C19.5776 26.902 19.5776 26.903 19.5776 26.904C19.5776 26.9051 19.5776 26.9061 19.5776 26.9071C19.5776 26.9081 19.5776 26.9091 19.5776 26.9101C19.5776 26.9111 19.5776 26.9121 19.5776 26.9131C19.5776 26.9141 19.5776 26.9151 19.5776 26.9161C19.5776 26.9171 19.5776 26.9181 19.5776 26.9191C19.5776 26.9201 19.5776 26.9211 19.5776 26.9221C19.5776 26.9231 19.5776 26.9241 19.5776 26.9251C19.5776 26.9261 19.5776 26.9271 19.5776 26.9281C19.5776 26.929 19.5776 26.93 19.5776 26.931C19.5776 26.932 19.5776 26.933 19.5776 26.934C19.5776 26.935 19.5776 26.9359 19.5776 26.9369C19.5776 26.9379 19.5776 26.9389 19.5776 26.9399C19.5776 26.9409 19.5776 26.9418 19.5776 26.9428C19.5776 26.9438 19.5776 26.9448 19.5776 26.9457C19.5776 26.9467 19.5776 26.9477 19.5776 26.9486C19.5776 26.9496 19.5776 26.9506 19.5776 26.9516C19.5776 26.9525 19.5776 26.9535 19.5776 26.9545C19.5776 26.9554 19.5776 26.9564 19.5776 26.9573C19.5776 26.9583 19.5776 26.9593 19.5776 26.9602C19.5776 26.9612 19.5776 26.9621 19.5776 26.9631C19.5776 26.964 19.5776 26.965 19.5776 26.966C19.5776 26.9669 19.5776 26.9679 19.5776 26.9688C19.5776 26.9698 19.5776 26.9707 19.5776 26.9717C19.5776 26.9726 19.5776 26.9735 19.5776 26.9745C19.5776 26.9754 19.5776 26.9764 19.5776 26.9773C19.5776 26.9783 19.5776 26.9792 19.5776 26.9801C19.5776 26.9811 19.5776 26.982 19.5776 26.9829C19.5776 26.9839 19.5776 26.9848 19.5776 26.9857C19.5776 26.9867 19.5776 26.9876 19.5776 26.9885C19.5776 26.9895 19.5776 26.9904 19.5776 26.9913C19.5776 26.9922 19.5776 26.9932 19.5776 26.9941C19.5776 26.995 19.5776 26.9959 19.5776 26.9968C19.5776 26.9978 19.5776 26.9987 19.5776 26.9996C19.5776 27.0005 19.5776 27.0014 19.5776 27.0023C19.5776 27.0032 19.5776 27.0042 19.5776 27.0051C19.5776 27.006 19.5776 27.0069 19.5776 27.0078C19.5776 27.0087 19.5776 27.0096 19.5776 27.0105C19.5776 27.0114 19.5776 27.0123 19.5776 27.0132C19.5776 27.0141 19.5776 27.015 19.5776 27.0159C19.5776 27.0168 19.5776 27.0177 19.5776 27.0186C19.5776 27.0194 19.5776 27.0203 19.5776 27.0212C19.5776 27.0221 19.5776 27.023 19.5776 27.0239C19.5776 27.0248 19.5776 27.0257 19.5776 27.0265C19.5776 27.0274 19.5776 27.0283 19.5776 27.0292C19.5776 27.03 19.5776 27.0309 19.5776 27.0318C19.5776 27.0327 19.5776 27.0335 19.5776 27.0344C19.5776 27.0353 19.5776 27.0361 19.5776 27.037C19.5776 27.0379 19.5776 27.0387 19.5776 27.0396C19.5776 27.0405 19.5776 27.0413 19.5776 27.0422C19.5776 27.0431 19.5776 27.0439 19.5776 27.0448C19.5776 27.0456 19.5776 27.0465 19.5776 27.0473C19.5776 27.0482 19.5776 27.049 19.5776 27.0499C19.5776 27.0507 19.5776 27.0516 19.5776 27.0524C19.5776 27.0533 19.5776 27.0541 19.5776 27.0549C19.5776 27.0558 19.5776 27.0566 19.5776 27.0575C19.5776 27.0583 19.5776 27.0591 19.5776 27.06C19.5776 27.0608 19.5776 27.0616 19.5776 27.0624C19.5776 27.0633 19.5776 27.0641 19.5776 27.0649C19.5776 27.0658 19.5776 27.0666 19.5776 27.0674C19.5776 27.0682 19.5776 27.069 19.5776 27.0699C19.5776 27.0707 19.5776 27.0715 19.5776 27.0723C19.5776 27.0731 19.5776 27.0739 19.5776 27.0747C19.5776 27.0755 19.5776 27.0763 19.5776 27.0772C19.5776 27.078 19.5776 27.0788 19.5776 27.0796C19.5776 27.0804 19.5776 27.0812 19.5776 27.082C19.5776 27.0828 19.5776 27.0835 19.5776 27.0843C19.5776 27.0851 19.5776 27.0859 19.5776 27.0867C19.5776 27.0875 19.5776 27.0883 19.5776 27.0891C19.5776 27.0899 19.5776 27.0906 19.5776 27.0914C19.5776 27.0922 19.5776 27.093 19.5776 27.0938C19.5776 27.0945 19.5776 27.0953 19.5776 27.0961C19.5776 27.0968 19.5776 27.0976 19.5776 27.0984C19.5776 27.0992 19.5776 27.0999 19.5776 27.1007C19.5776 27.1014 19.5776 27.1022 19.5776 27.103C19.5776 27.1037 19.5776 27.1045 19.5776 27.1052C19.5776 27.106 19.5776 27.1067 19.5776 27.1075C19.5776 27.1082 19.5776 27.109 19.5776 27.1097C19.5776 27.1105 19.5776 27.1112 19.5776 27.112C19.5776 27.1127 19.5776 27.1135 19.5776 27.1142C19.5776 27.1149 19.5776 27.1157 19.5776 27.1164C19.5776 27.1171 19.5776 27.1179 19.5776 27.1186C19.5776 27.1193 19.5776 27.12 19.5776 27.1208C19.5776 27.1215 19.5776 27.1222 19.5776 27.1229C19.5776 27.1236 19.5776 27.1244 19.5776 27.1251C19.5776 27.1258 19.5776 27.1265 19.5776 27.1272C19.5776 27.1279 19.5776 27.1286 19.5776 27.1293C19.5776 27.13 19.5776 27.1308 19.5776 27.1315C19.5776 27.1322 19.5776 27.1329 19.5776 27.1335C19.5776 27.1342 19.5776 27.1349 19.5776 27.1356C19.5776 27.1363 19.5776 27.137 19.5776 27.1377C19.5776 27.1384 19.5776 27.1391 19.5776 27.1398C19.5776 27.1404 19.5776 27.1411 19.5776 27.1418C19.5776 27.1425 19.5776 27.1431 19.5776 27.1438C19.5776 27.1445 19.5776 27.1452 19.5776 27.1458C19.5776 27.1465 19.5776 27.1472 19.5776 27.1478C19.5776 27.1485 19.5776 27.1492 19.5776 27.1498C19.5776 27.1505 19.5776 27.1511 19.5776 27.1518C19.5776 27.1524 19.5776 27.1531 19.5776 27.1537C19.5776 27.1544 19.5776 27.155 19.5776 27.1557C19.5776 27.1563 19.5776 27.157 19.5776 27.1576C19.5776 27.1582 19.5776 27.1589 19.5776 27.1595C19.5776 27.1601 19.5776 27.1608 19.5776 27.1614C19.5776 27.162 19.5776 27.1627 19.5776 27.1633C19.5776 27.1639 19.5776 27.1645 19.5776 27.1651C19.5776 27.1658 19.5776 27.1664 19.5776 27.167H20.5776ZM20.4666 25.5606L19.7332 24.6526L18.9552 25.2809L19.6886 26.189L20.4666 25.5606ZM19.6309 24.5572C19.4138 24.4052 19.2854 24.1731 19.2854 23.8841H18.2854C18.2854 24.5032 18.5761 25.0394 19.0575 25.3764L19.6309 24.5572ZM19.2854 23.8841V21.3347H18.2854V23.8841H19.2854ZM19.0041 21.7843L20.2963 21.1556L19.8589 20.2564L18.5667 20.885L19.0041 21.7843ZM20.5776 20.706V19.4138H19.5776V20.706H20.5776ZM20.5776 19.4138C20.5776 16.477 22.9381 14.1164 25.875 14.1164V13.1164C22.3858 13.1164 19.5776 15.9247 19.5776 19.4138H20.5776ZM25.875 14.1164H27.1672V13.1164H25.875V14.1164ZM27.1672 14.1164C29.4335 14.1164 31.348 15.5198 32.1142 17.4989L33.0467 17.1379C32.1365 14.7864 29.8601 13.1164 27.1672 13.1164V14.1164ZM31.0006 33.7439L36.0646 35.7346L36.4304 34.8039L31.3664 32.8132L31.0006 33.7439ZM36.1217 35.7532C36.9227 35.9614 37.6425 36.3525 38.1578 36.8251C38.6787 37.303 38.9481 37.8216 38.9607 38.2862L39.9603 38.2592C39.938 37.4317 39.4741 36.6756 38.8337 36.0882C38.1878 35.4957 37.3185 35.0311 36.3733 34.7853L36.1217 35.7532ZM38.9605 38.2727V40.1237H39.9605V38.2727H38.9605ZM30.7184 32.8993C29.4388 33.9961 27.5149 33.9961 26.2353 32.8993L25.5845 33.6585C27.2386 35.0763 29.7151 35.0763 31.3692 33.6585L30.7184 32.8993ZM26.2353 32.8993C24.3429 31.2772 22.5334 29.0291 22.5334 25.2813H21.5334C21.5334 29.4264 23.5654 31.9279 25.5845 33.6585L26.2353 32.8993ZM22.5334 25.2813V18.2965H21.5334V25.2813H22.5334ZM22.257 18.7437C26.1002 16.8221 30.7191 16.7548 34.6968 18.7437L35.144 17.8493C30.8795 15.717 25.9292 15.7895 21.8097 17.8493L22.257 18.7437ZM34.4204 18.2965V25.2813H35.4204V18.2965H34.4204ZM34.4204 25.2813C34.4204 29.0291 32.6108 31.2772 30.7184 32.8993L31.3692 33.6585C33.3883 31.9279 35.4204 29.4264 35.4204 25.2813H34.4204ZM28.8197 28.0753V26.6783H27.8197V28.0753H28.8197ZM28.8197 26.6783C28.8197 26.3511 29.0133 26.0661 29.316 25.9652L28.9997 25.0166C28.2546 25.2649 27.8197 25.9578 27.8197 26.6783H28.8197ZM29.33 25.9603C30.5902 25.4983 31.4815 24.1521 31.1848 22.6688L30.2042 22.8649C30.3965 23.8262 29.821 24.7152 28.9857 25.0215L29.33 25.9603ZM31.1862 22.6758C30.9726 21.5225 30.04 20.6368 28.938 20.4248L28.7491 21.4068C29.4631 21.5441 30.0672 22.1253 30.2029 22.8579L31.1862 22.6758ZM28.939 20.425C27.427 20.131 26.0789 21.0155 25.6151 22.2804L26.554 22.6246C26.8585 21.794 27.7455 21.2117 28.7481 21.4066L28.939 20.425ZM27.8197 28.9833V30.3453H28.8197V28.9833H27.8197ZM27.9943 34.222V40.1242H28.9943V34.222H27.9943Z" fill="#00DCE6"/>
</svg>
