<svg width="65" height="65" viewBox="0 0 65 65" fill="none" xmlns="http://www.w3.org/2000/svg">
<path d="M55.0694 0H0V55.0694C6.89983 61.2449 16.0114 65 26 65C47.5391 65 65 47.5391 65 26C65 16.0114 61.2449 6.89983 55.0694 0Z" fill="#00DCE6" fill-opacity="0.1"/>
<path d="M22.6542 35.7215L22.3006 35.3679L22.6542 35.0144L23.0077 35.3679L22.6542 35.7215ZM29.5099 42.5772L29.8642 42.93L29.5107 43.2851L29.1564 42.9308L29.5099 42.5772ZM43.1071 28.9229L42.7528 28.5701L43.1064 28.215L43.4607 28.5693L43.1071 28.9229ZM21.3971 28.9229L21.7507 29.2765L21.4004 29.6267L21.0469 29.2798L21.3971 28.9229ZM24.4251 25.895L24.0715 25.5414L24.4285 25.1844L24.782 25.5449L24.4251 25.895ZM27.3388 28.8658L27.6923 29.2193L27.3353 29.5764L26.9818 29.2159L27.3388 28.8658ZM30.1953 26.0092L29.8418 25.6557L30.1953 25.3021L30.5489 25.6557L30.1953 26.0092ZM33.0519 28.8658L33.4054 29.2193L33.0519 29.5729L32.6983 29.2193L33.0519 28.8658ZM26.9389 8.35564L26.4389 8.35563L26.4389 7.85564H26.9389V8.35564ZM33.3376 8.35564V7.85564H33.8376V8.35564H33.3376ZM33.3376 12.8119H33.8376V13.3119H33.3376V12.8119ZM47.3746 33.2784C48.0419 31.2766 48.3773 29.1022 48.3773 26.8664H49.3773C49.3773 29.2011 49.0272 31.4829 48.3233 33.5946L47.3746 33.2784ZM48.3773 26.8664C48.3773 18.7731 43.8571 11.7424 37.1615 8.22726L37.6264 7.34187C44.6423 11.0252 49.3773 18.3917 49.3773 26.8664H48.3773ZM25.1031 5.88231C14.4442 6.94262 6.12898 15.9279 6.12898 26.8661H5.12898C5.12898 15.4089 13.8389 5.9979 25.0041 4.88722L25.1031 5.88231ZM6.12898 26.8661C6.12898 38.5304 15.5603 47.9617 27.2246 47.9617V48.9617C15.008 48.9617 5.12898 39.0827 5.12898 26.8661H6.12898ZM27.2246 47.9617C27.225 47.9617 27.2255 47.9617 27.2259 47.9617C27.2264 47.9617 27.2268 47.9617 27.2273 47.9617C27.2277 47.9617 27.2281 47.9617 27.2286 47.9617C27.229 47.9617 27.2295 47.9617 27.2299 47.9617C27.2304 47.9617 27.2308 47.9617 27.2313 47.9617C27.2317 47.9617 27.2322 47.9617 27.2326 47.9617C27.2331 47.9617 27.2335 47.9617 27.2339 47.9617C27.2344 47.9617 27.2348 47.9617 27.2353 47.9617C27.2357 47.9617 27.2362 47.9617 27.2366 47.9617C27.2371 47.9617 27.2375 47.9617 27.238 47.9617C27.2384 47.9617 27.2389 47.9617 27.2393 47.9617C27.2397 47.9617 27.2402 47.9617 27.2406 47.9617C27.2411 47.9617 27.2415 47.9617 27.242 47.9617C27.2424 47.9617 27.2429 47.9617 27.2433 47.9617C27.2438 47.9617 27.2442 47.9617 27.2447 47.9617C27.2451 47.9617 27.2456 47.9617 27.246 47.9617C27.2464 47.9617 27.2469 47.9617 27.2473 47.9617C27.2478 47.9617 27.2482 47.9617 27.2487 47.9617C27.2491 47.9617 27.2496 47.9617 27.25 47.9617C27.2505 47.9617 27.2509 47.9617 27.2514 47.9617C27.2518 47.9617 27.2522 47.9617 27.2527 47.9617C27.2531 47.9617 27.2536 47.9617 27.254 47.9617C27.2545 47.9617 27.2549 47.9617 27.2554 47.9617C27.2558 47.9617 27.2563 47.9617 27.2567 47.9617C27.2572 47.9617 27.2576 47.9617 27.258 47.9617C27.2585 47.9617 27.2589 47.9617 27.2594 47.9617C27.2598 47.9617 27.2603 47.9617 27.2607 47.9617C27.2612 47.9617 27.2616 47.9617 27.2621 47.9617C27.2625 47.9617 27.263 47.9617 27.2634 47.9617C27.2639 47.9617 27.2643 47.9617 27.2647 47.9617C27.2652 47.9617 27.2656 47.9617 27.2661 47.9617C27.2665 47.9617 27.267 47.9617 27.2674 47.9617C27.2679 47.9617 27.2683 47.9617 27.2688 47.9617C27.2692 47.9617 27.2697 47.9617 27.2701 47.9617C27.2705 47.9617 27.271 47.9617 27.2714 47.9617C27.2719 47.9617 27.2723 47.9617 27.2728 47.9617C27.2732 47.9617 27.2737 47.9617 27.2741 47.9617C27.2746 47.9617 27.275 47.9617 27.2755 47.9617C27.2759 47.9617 27.2763 47.9617 27.2768 47.9617C27.2772 47.9617 27.2777 47.9617 27.2781 47.9617C27.2786 47.9617 27.279 47.9617 27.2795 47.9617C27.2799 47.9617 27.2804 47.9617 27.2808 47.9617C27.2813 47.9617 27.2817 47.9617 27.2822 47.9617C27.2826 47.9617 27.283 47.9617 27.2835 47.9617C27.2839 47.9617 27.2844 47.9617 27.2848 47.9617C27.2853 47.9617 27.2857 47.9617 27.2862 47.9617C27.2866 47.9617 27.2871 47.9617 27.2875 47.9617C27.288 47.9617 27.2884 47.9617 27.2888 47.9617C27.2893 47.9617 27.2897 47.9617 27.2902 47.9617C27.2906 47.9617 27.2911 47.9617 27.2915 47.9617C27.292 47.9617 27.2924 47.9617 27.2929 47.9617C27.2933 47.9617 27.2938 47.9617 27.2942 47.9617C27.2946 47.9617 27.2951 47.9617 27.2955 47.9617C27.296 47.9617 27.2964 47.9617 27.2969 47.9617C27.2973 47.9617 27.2978 47.9617 27.2982 47.9617C27.2987 47.9617 27.2991 47.9617 27.2996 47.9617C27.3 47.9617 27.3005 47.9617 27.3009 47.9617C27.3013 47.9617 27.3018 47.9617 27.3022 47.9617C27.3027 47.9617 27.3031 47.9617 27.3036 47.9617C27.304 47.9617 27.3045 47.9617 27.3049 47.9617C27.3054 47.9617 27.3058 47.9617 27.3063 47.9617C27.3067 47.9617 27.3071 47.9617 27.3076 47.9617C27.308 47.9617 27.3085 47.9617 27.3089 47.9617C27.3094 47.9617 27.3098 47.9617 27.3103 47.9617C27.3107 47.9617 27.3112 47.9617 27.3116 47.9617C27.3121 47.9617 27.3125 47.9617 27.3129 47.9617C27.3134 47.9617 27.3138 47.9617 27.3143 47.9617C27.3147 47.9617 27.3152 47.9617 27.3156 47.9617C27.3161 47.9617 27.3165 47.9617 27.317 47.9617C27.3174 47.9617 27.3179 47.9617 27.3183 47.9617C27.3188 47.9617 27.3192 47.9617 27.3196 47.9617C27.3201 47.9617 27.3205 47.9617 27.321 47.9617C27.3214 47.9617 27.3219 47.9617 27.3223 47.9617C27.3228 47.9617 27.3232 47.9617 27.3237 47.9617C27.3241 47.9617 27.3246 47.9617 27.325 47.9617C27.3254 47.9617 27.3259 47.9617 27.3263 47.9617C27.3268 47.9617 27.3272 47.9617 27.3277 47.9617C27.3281 47.9617 27.3286 47.9617 27.329 47.9617C27.3295 47.9617 27.3299 47.9617 27.3304 47.9617C27.3308 47.9617 27.3312 47.9617 27.3317 47.9617C27.3321 47.9617 27.3326 47.9617 27.333 47.9617C27.3335 47.9617 27.3339 47.9617 27.3344 47.9617C27.3348 47.9617 27.3353 47.9617 27.3357 47.9617C27.3362 47.9617 27.3366 47.9617 27.337 47.9617C27.3375 47.9617 27.3379 47.9617 27.3384 47.9617C27.3388 47.9617 27.3393 47.9617 27.3397 47.9617C27.3402 47.9617 27.3406 47.9617 27.3411 47.9617C27.3415 47.9617 27.342 47.9617 27.3424 47.9617C27.3429 47.9617 27.3433 47.9617 27.3437 47.9617C27.3442 47.9617 27.3446 47.9617 27.3451 47.9617C27.3455 47.9617 27.346 47.9617 27.3464 47.9617C27.3469 47.9617 27.3473 47.9617 27.3478 47.9617C27.3482 47.9617 27.3487 47.9617 27.3491 47.9617C27.3495 47.9617 27.35 47.9617 27.3504 47.9617C27.3509 47.9617 27.3513 47.9617 27.3518 47.9617C27.3522 47.9617 27.3527 47.9617 27.3531 47.9617C27.3536 47.9617 27.354 47.9617 27.3545 47.9617C27.3549 47.9617 27.3554 47.9617 27.3558 47.9617C27.3562 47.9617 27.3567 47.9617 27.3571 47.9617C27.3576 47.9617 27.358 47.9617 27.3585 47.9617C27.3589 47.9617 27.3594 47.9617 27.3598 47.9617C27.3603 47.9617 27.3607 47.9617 27.3612 47.9617C27.3616 47.9617 27.362 47.9617 27.3625 47.9617C27.3629 47.9617 27.3634 47.9617 27.3638 47.9617C27.3643 47.9617 27.3647 47.9617 27.3652 47.9617C27.3656 47.9617 27.3661 47.9617 27.3665 47.9617C27.367 47.9617 27.3674 47.9617 27.3678 47.9617C27.3683 47.9617 27.3687 47.9617 27.3692 47.9617C27.3696 47.9617 27.3701 47.9617 27.3705 47.9617C27.371 47.9617 27.3714 47.9617 27.3719 47.9617C27.3723 47.9617 27.3728 47.9617 27.3732 47.9617C27.3736 47.9617 27.3741 47.9617 27.3745 47.9617C27.375 47.9617 27.3754 47.9617 27.3759 47.9617C27.3763 47.9617 27.3768 47.9617 27.3772 47.9617C27.3777 47.9617 27.3781 47.9617 27.3786 47.9617C27.379 47.9617 27.3795 47.9617 27.3799 47.9617C27.3803 47.9617 27.3808 47.9617 27.3812 47.9617C27.3817 47.9617 27.3821 47.9617 27.3826 47.9617C27.383 47.9617 27.3835 47.9617 27.3839 47.9617C27.3844 47.9617 27.3848 47.9617 27.3853 47.9617C27.3857 47.9617 27.3861 47.9617 27.3866 47.9617C27.387 47.9617 27.3875 47.9617 27.3879 47.9617C27.3884 47.9617 27.3888 47.9617 27.3893 47.9617C27.3897 47.9617 27.3902 47.9617 27.3906 47.9617C27.3911 47.9617 27.3915 47.9617 27.3919 47.9617C27.3924 47.9617 27.3928 47.9617 27.3933 47.9617C27.3937 47.9617 27.3942 47.9617 27.3946 47.9617C27.3951 47.9617 27.3955 47.9617 27.396 47.9617C27.3964 47.9617 27.3969 47.9617 27.3973 47.9617C27.3978 47.9617 27.3982 47.9617 27.3986 47.9617C27.3991 47.9617 27.3995 47.9617 27.4 47.9617C27.4004 47.9617 27.4009 47.9617 27.4013 47.9617C27.4018 47.9617 27.4022 47.9617 27.4027 47.9617C27.4031 47.9617 27.4036 47.9617 27.404 47.9617C27.4044 47.9617 27.4049 47.9617 27.4053 47.9617C27.4058 47.9617 27.4062 47.9617 27.4067 47.9617C27.4071 47.9617 27.4076 47.9617 27.408 47.9617C27.4085 47.9617 27.4089 47.9617 27.4094 47.9617C27.4098 47.9617 27.4102 47.9617 27.4107 47.9617C27.4111 47.9617 27.4116 47.9617 27.412 47.9617C27.4125 47.9617 27.4129 47.9617 27.4134 47.9617C27.4138 47.9617 27.4143 47.9617 27.4147 47.9617C27.4152 47.9617 27.4156 47.9617 27.4161 47.9617C27.4165 47.9617 27.4169 47.9617 27.4174 47.9617C27.4178 47.9617 27.4183 47.9617 27.4187 47.9617C27.4192 47.9617 27.4196 47.9617 27.4201 47.9617C27.4205 47.9617 27.421 47.9617 27.4214 47.9617C27.4219 47.9617 27.4223 47.9617 27.4227 47.9617C27.4232 47.9617 27.4236 47.9617 27.4241 47.9617C27.4245 47.9617 27.425 47.9617 27.4254 47.9617C27.4259 47.9617 27.4263 47.9617 27.4268 47.9617C27.4272 47.9617 27.4277 47.9617 27.4281 47.9617C27.4285 47.9617 27.429 47.9617 27.4294 47.9617C27.4299 47.9617 27.4303 47.9617 27.4308 47.9617C27.4312 47.9617 27.4317 47.9617 27.4321 47.9617C27.4326 47.9617 27.433 47.9617 27.4335 47.9617C27.4339 47.9617 27.4344 47.9617 27.4348 47.9617C27.4352 47.9617 27.4357 47.9617 27.4361 47.9617C27.4366 47.9617 27.437 47.9617 27.4375 47.9617C27.4379 47.9617 27.4384 47.9617 27.4388 47.9617C27.4393 47.9617 27.4397 47.9617 27.4402 47.9617C27.4406 47.9617 27.441 47.9617 27.4415 47.9617C27.4419 47.9617 27.4424 47.9617 27.4428 47.9617C27.4433 47.9617 27.4437 47.9617 27.4442 47.9617C27.4446 47.9617 27.4451 47.9617 27.4455 47.9617C27.446 47.9617 27.4464 47.9617 27.4468 47.9617C27.4473 47.9617 27.4477 47.9617 27.4482 47.9617C27.4486 47.9617 27.4491 47.9617 27.4495 47.9617C27.45 47.9617 27.4504 47.9617 27.4509 47.9617C27.4513 47.9617 27.4518 47.9617 27.4522 47.9617C27.4527 47.9617 27.4531 47.9617 27.4535 47.9617C27.454 47.9617 27.4544 47.9617 27.4549 47.9617C27.4553 47.9617 27.4558 47.9617 27.4562 47.9617C27.4567 47.9617 27.4571 47.9617 27.4576 47.9617C27.458 47.9617 27.4585 47.9617 27.4589 47.9617C27.4593 47.9617 27.4598 47.9617 27.4602 47.9617C27.4607 47.9617 27.4611 47.9617 27.4616 47.9617C27.462 47.9617 27.4625 47.9617 27.4629 47.9617C27.4634 47.9617 27.4638 47.9617 27.4643 47.9617C27.4647 47.9617 27.4651 47.9617 27.4656 47.9617C27.466 47.9617 27.4665 47.9617 27.4669 47.9617C27.4674 47.9617 27.4678 47.9617 27.4683 47.9617C27.4687 47.9617 27.4692 47.9617 27.4696 47.9617C27.4701 47.9617 27.4705 47.9617 27.471 47.9617C27.4714 47.9617 27.4718 47.9617 27.4723 47.9617C27.4727 47.9617 27.4732 47.9617 27.4736 47.9617C27.4741 47.9617 27.4745 47.9617 27.475 47.9617C27.4754 47.9617 27.4759 47.9617 27.4763 47.9617C27.4768 47.9617 27.4772 47.9617 27.4776 47.9617C27.4781 47.9617 27.4785 47.9617 27.479 47.9617C27.4794 47.9617 27.4799 47.9617 27.4803 47.9617C27.4808 47.9617 27.4812 47.9617 27.4817 47.9617C27.4821 47.9617 27.4826 47.9617 27.483 47.9617C27.4834 47.9617 27.4839 47.9617 27.4843 47.9617C27.4848 47.9617 27.4852 47.9617 27.4857 47.9617C27.4861 47.9617 27.4866 47.9617 27.487 47.9617C27.4875 47.9617 27.4879 47.9617 27.4884 47.9617C27.4888 47.9617 27.4893 47.9617 27.4897 47.9617C27.4901 47.9617 27.4906 47.9617 27.491 47.9617C27.4915 47.9617 27.4919 47.9617 27.4924 47.9617C27.4928 47.9617 27.4933 47.9617 27.4937 47.9617C27.4942 47.9617 27.4946 47.9617 27.4951 47.9617C27.4955 47.9617 27.4959 47.9617 27.4964 47.9617C27.4968 47.9617 27.4973 47.9617 27.4977 47.9617C27.4982 47.9617 27.4986 47.9617 27.4991 47.9617C27.4995 47.9617 27.5 47.9617 27.5004 47.9617C27.5009 47.9617 27.5013 47.9617 27.5017 47.9617C27.5022 47.9617 27.5026 47.9617 27.5031 47.9617C27.5035 47.9617 27.504 47.9617 27.5044 47.9617C27.5049 47.9617 27.5053 47.9617 27.5058 47.9617C27.5062 47.9617 27.5067 47.9617 27.5071 47.9617C27.5076 47.9617 27.508 47.9617 27.5084 47.9617C27.5089 47.9617 27.5093 47.9617 27.5098 47.9617C27.5102 47.9617 27.5107 47.9617 27.5111 47.9617C27.5116 47.9617 27.512 47.9617 27.5125 47.9617C27.5129 47.9617 27.5134 47.9617 27.5138 47.9617C27.5142 47.9617 27.5147 47.9617 27.5151 47.9617C27.5156 47.9617 27.516 47.9617 27.5165 47.9617C27.5169 47.9617 27.5174 47.9617 27.5178 47.9617C27.5183 47.9617 27.5187 47.9617 27.5192 47.9617C27.5196 47.9617 27.52 47.9617 27.5205 47.9617C27.5209 47.9617 27.5214 47.9617 27.5218 47.9617C27.5223 47.9617 27.5227 47.9617 27.5232 47.9617C27.5236 47.9617 27.5241 47.9617 27.5245 47.9617C27.525 47.9617 27.5254 47.9617 27.5259 47.9617C27.5263 47.9617 27.5267 47.9617 27.5272 47.9617C27.5276 47.9617 27.5281 47.9617 27.5285 47.9617C27.529 47.9617 27.5294 47.9617 27.5299 47.9617C27.5303 47.9617 27.5308 47.9617 27.5312 47.9617C27.5317 47.9617 27.5321 47.9617 27.5325 47.9617C27.533 47.9617 27.5334 47.9617 27.5339 47.9617C27.5343 47.9617 27.5348 47.9617 27.5352 47.9617C27.5357 47.9617 27.5361 47.9617 27.5366 47.9617C27.537 47.9617 27.5375 47.9617 27.5379 47.9617C27.5383 47.9617 27.5388 47.9617 27.5392 47.9617C27.5397 47.9617 27.5401 47.9617 27.5406 47.9617C27.541 47.9617 27.5415 47.9617 27.5419 47.9617C27.5424 47.9617 27.5428 47.9617 27.5433 47.9617C27.5437 47.9617 27.5442 47.9617 27.5446 47.9617C27.545 47.9617 27.5455 47.9617 27.5459 47.9617C27.5464 47.9617 27.5468 47.9617 27.5473 47.9617C27.5477 47.9617 27.5482 47.9617 27.5486 47.9617C27.5491 47.9617 27.5495 47.9617 27.55 47.9617C27.5504 47.9617 27.5508 47.9617 27.5513 47.9617C27.5517 47.9617 27.5522 47.9617 27.5526 47.9617C27.5531 47.9617 27.5535 47.9617 27.554 47.9617C27.5544 47.9617 27.5549 47.9617 27.5553 47.9617C27.5558 47.9617 27.5562 47.9617 27.5566 47.9617C27.5571 47.9617 27.5575 47.9617 27.558 47.9617C27.5584 47.9617 27.5589 47.9617 27.5593 47.9617C27.5598 47.9617 27.5602 47.9617 27.5607 47.9617C27.5611 47.9617 27.5616 47.9617 27.562 47.9617C27.5625 47.9617 27.5629 47.9617 27.5633 47.9617C27.5638 47.9617 27.5642 47.9617 27.5647 47.9617C27.5651 47.9617 27.5656 47.9617 27.566 47.9617C27.5665 47.9617 27.5669 47.9617 27.5674 47.9617C27.5678 47.9617 27.5683 47.9617 27.5687 47.9617C27.5691 47.9617 27.5696 47.9617 27.57 47.9617C27.5705 47.9617 27.5709 47.9617 27.5714 47.9617C27.5718 47.9617 27.5723 47.9617 27.5727 47.9617C27.5732 47.9617 27.5736 47.9617 27.5741 47.9617C27.5745 47.9617 27.5749 47.9617 27.5754 47.9617C27.5758 47.9617 27.5763 47.9617 27.5767 47.9617C27.5772 47.9617 27.5776 47.9617 27.5781 47.9617C27.5785 47.9617 27.579 47.9617 27.5794 47.9617C27.5799 47.9617 27.5803 47.9617 27.5807 47.9617C27.5812 47.9617 27.5816 47.9617 27.5821 47.9617C27.5825 47.9617 27.583 47.9617 27.5834 47.9617C27.5839 47.9617 27.5843 47.9617 27.5848 47.9617C27.5852 47.9617 27.5857 47.9617 27.5861 47.9617C27.5866 47.9617 27.587 47.9617 27.5874 47.9617C27.5879 47.9617 27.5883 47.9617 27.5888 47.9617C27.5892 47.9617 27.5897 47.9617 27.5901 47.9617C27.5906 47.9617 27.591 47.9617 27.5915 47.9617C27.5919 47.9617 27.5924 47.9617 27.5928 47.9617C27.5932 47.9617 27.5937 47.9617 27.5941 47.9617C27.5946 47.9617 27.595 47.9617 27.5955 47.9617C27.5959 47.9617 27.5964 47.9617 27.5968 47.9617C27.5973 47.9617 27.5977 47.9617 27.5982 47.9617C27.5986 47.9617 27.5991 47.9617 27.5995 47.9617C27.5999 47.9617 27.6004 47.9617 27.6008 47.9617C27.6013 47.9617 27.6017 47.9617 27.6022 47.9617C27.6026 47.9617 27.6031 47.9617 27.6035 47.9617C27.604 47.9617 27.6044 47.9617 27.6049 47.9617C27.6053 47.9617 27.6057 47.9617 27.6062 47.9617C27.6066 47.9617 27.6071 47.9617 27.6075 47.9617C27.608 47.9617 27.6084 47.9617 27.6089 47.9617C27.6093 47.9617 27.6098 47.9617 27.6102 47.9617C27.6107 47.9617 27.6111 47.9617 27.6115 47.9617C27.612 47.9617 27.6124 47.9617 27.6129 47.9617C27.6133 47.9617 27.6138 47.9617 27.6142 47.9617C27.6147 47.9617 27.6151 47.9617 27.6156 47.9617C27.616 47.9617 27.6165 47.9617 27.6169 47.9617C27.6173 47.9617 27.6178 47.9617 27.6182 47.9617C27.6187 47.9617 27.6191 47.9617 27.6196 47.9617C27.62 47.9617 27.6205 47.9617 27.6209 47.9617C27.6214 47.9617 27.6218 47.9617 27.6223 47.9617C27.6227 47.9617 27.6232 47.9617 27.6236 47.9617C27.624 47.9617 27.6245 47.9617 27.6249 47.9617C27.6254 47.9617 27.6258 47.9617 27.6263 47.9617C27.6267 47.9617 27.6272 47.9617 27.6276 47.9617C27.6281 47.9617 27.6285 47.9617 27.629 47.9617C27.6294 47.9617 27.6298 47.9617 27.6303 47.9617C27.6307 47.9617 27.6312 47.9617 27.6316 47.9617C27.6321 47.9617 27.6325 47.9617 27.633 47.9617C27.6334 47.9617 27.6339 47.9617 27.6343 47.9617C27.6348 47.9617 27.6352 47.9617 27.6356 47.9617C27.6361 47.9617 27.6365 47.9617 27.637 47.9617C27.6374 47.9617 27.6379 47.9617 27.6383 47.9617C27.6388 47.9617 27.6392 47.9617 27.6397 47.9617C27.6401 47.9617 27.6406 47.9617 27.641 47.9617C27.6415 47.9617 27.6419 47.9617 27.6423 47.9617C27.6428 47.9617 27.6432 47.9617 27.6437 47.9617C27.6441 47.9617 27.6446 47.9617 27.645 47.9617C27.6455 47.9617 27.6459 47.9617 27.6464 47.9617C27.6468 47.9617 27.6473 47.9617 27.6477 47.9617C27.6481 47.9617 27.6486 47.9617 27.649 47.9617C27.6495 47.9617 27.6499 47.9617 27.6504 47.9617C27.6508 47.9617 27.6513 47.9617 27.6517 47.9617C27.6522 47.9617 27.6526 47.9617 27.6531 47.9617C27.6535 47.9617 27.6539 47.9617 27.6544 47.9617C27.6548 47.9617 27.6553 47.9617 27.6557 47.9617C27.6562 47.9617 27.6566 47.9617 27.6571 47.9617C27.6575 47.9617 27.658 47.9617 27.6584 47.9617C27.6589 47.9617 27.6593 47.9617 27.6598 47.9617C27.6602 47.9617 27.6606 47.9617 27.6611 47.9617C27.6615 47.9617 27.662 47.9617 27.6624 47.9617C27.6629 47.9617 27.6633 47.9617 27.6638 47.9617C27.6642 47.9617 27.6647 47.9617 27.6651 47.9617C27.6656 47.9617 27.666 47.9617 27.6664 47.9617C27.6669 47.9617 27.6673 47.9617 27.6678 47.9617C27.6682 47.9617 27.6687 47.9617 27.6691 47.9617C27.6696 47.9617 27.67 47.9617 27.6705 47.9617C27.6709 47.9617 27.6714 47.9617 27.6718 47.9617C27.6722 47.9617 27.6727 47.9617 27.6731 47.9617C27.6736 47.9617 27.674 47.9617 27.6745 47.9617C27.6749 47.9617 27.6754 47.9617 27.6758 47.9617C27.6763 47.9617 27.6767 47.9617 27.6772 47.9617C27.6776 47.9617 27.6781 47.9617 27.6785 47.9617C27.6789 47.9617 27.6794 47.9617 27.6798 47.9617C27.6803 47.9617 27.6807 47.9617 27.6812 47.9617C27.6816 47.9617 27.6821 47.9617 27.6825 47.9617C27.683 47.9617 27.6834 47.9617 27.6839 47.9617C27.6843 47.9617 27.6847 47.9617 27.6852 47.9617C27.6856 47.9617 27.6861 47.9617 27.6865 47.9617C27.687 47.9617 27.6874 47.9617 27.6879 47.9617C27.6883 47.9617 27.6888 47.9617 27.6892 47.9617C27.6897 47.9617 27.6901 47.9617 27.6905 47.9617C27.691 47.9617 27.6914 47.9617 27.6919 47.9617C27.6923 47.9617 27.6928 47.9617 27.6932 47.9617C27.6937 47.9617 27.6941 47.9617 27.6946 47.9617C27.695 47.9617 27.6955 47.9617 27.6959 47.9617C27.6964 47.9617 27.6968 47.9617 27.6972 47.9617C27.6977 47.9617 27.6981 47.9617 27.6986 47.9617C27.699 47.9617 27.6995 47.9617 27.6999 47.9617C27.7004 47.9617 27.7008 47.9617 27.7013 47.9617C27.7017 47.9617 27.7022 47.9617 27.7026 47.9617C27.703 47.9617 27.7035 47.9617 27.7039 47.9617C27.7044 47.9617 27.7048 47.9617 27.7053 47.9617C27.7057 47.9617 27.7062 47.9617 27.7066 47.9617C27.7071 47.9617 27.7075 47.9617 27.708 47.9617C27.7084 47.9617 27.7088 47.9617 27.7093 47.9617C27.7097 47.9617 27.7102 47.9617 27.7106 47.9617C27.7111 47.9617 27.7115 47.9617 27.712 47.9617C27.7124 47.9617 27.7129 47.9617 27.7133 47.9617C27.7138 47.9617 27.7142 47.9617 27.7147 47.9617C27.7151 47.9617 27.7155 47.9617 27.716 47.9617C27.7164 47.9617 27.7169 47.9617 27.7173 47.9617C27.7178 47.9617 27.7182 47.9617 27.7187 47.9617C27.7191 47.9617 27.7196 47.9617 27.72 47.9617C27.7205 47.9617 27.7209 47.9617 27.7213 47.9617C27.7218 47.9617 27.7222 47.9617 27.7227 47.9617C27.7231 47.9617 27.7236 47.9617 27.724 47.9617C27.7245 47.9617 27.7249 47.9617 27.7254 47.9617C27.7258 47.9617 27.7263 47.9617 27.7267 47.9617C27.7271 47.9617 27.7276 47.9617 27.728 47.9617C27.7285 47.9617 27.7289 47.9617 27.7294 47.9617C27.7298 47.9617 27.7303 47.9617 27.7307 47.9617C27.7312 47.9617 27.7316 47.9617 27.7321 47.9617C27.7325 47.9617 27.733 47.9617 27.7334 47.9617C27.7338 47.9617 27.7343 47.9617 27.7347 47.9617C27.7352 47.9617 27.7356 47.9617 27.7361 47.9617C27.7365 47.9617 27.737 47.9617 27.7374 47.9617C27.7379 47.9617 27.7383 47.9617 27.7388 47.9617C27.7392 47.9617 27.7396 47.9617 27.7401 47.9617C27.7405 47.9617 27.741 47.9617 27.7414 47.9617C27.7419 47.9617 27.7423 47.9617 27.7428 47.9617C27.7432 47.9617 27.7437 47.9617 27.7441 47.9617C27.7446 47.9617 27.745 47.9617 27.7454 47.9617C27.7459 47.9617 27.7463 47.9617 27.7468 47.9617C27.7472 47.9617 27.7477 47.9617 27.7481 47.9617C27.7486 47.9617 27.749 47.9617 27.7495 47.9617C27.7499 47.9617 27.7504 47.9617 27.7508 47.9617C27.7513 47.9617 27.7517 47.9617 27.7521 47.9617C27.7526 47.9617 27.753 47.9617 27.7535 47.9617C27.7539 47.9617 27.7544 47.9617 27.7548 47.9617C27.7553 47.9617 27.7557 47.9617 27.7562 47.9617C27.7566 47.9617 27.7571 47.9617 27.7575 47.9617C27.7579 47.9617 27.7584 47.9617 27.7588 47.9617C27.7593 47.9617 27.7597 47.9617 27.7602 47.9617C27.7606 47.9617 27.7611 47.9617 27.7615 47.9617C27.762 47.9617 27.7624 47.9617 27.7629 47.9617C27.7633 47.9617 27.7637 47.9617 27.7642 47.9617C27.7646 47.9617 27.7651 47.9617 27.7655 47.9617C27.766 47.9617 27.7664 47.9617 27.7669 47.9617C27.7673 47.9617 27.7678 47.9617 27.7682 47.9617C27.7687 47.9617 27.7691 47.9617 27.7696 47.9617C27.77 47.9617 27.7704 47.9617 27.7709 47.9617C27.7713 47.9617 27.7718 47.9617 27.7722 47.9617C27.7727 47.9617 27.7731 47.9617 27.7736 47.9617C27.774 47.9617 27.7745 47.9617 27.7749 47.9617C27.7754 47.9617 27.7758 47.9617 27.7762 47.9617C27.7767 47.9617 27.7771 47.9617 27.7776 47.9617C27.778 47.9617 27.7785 47.9617 27.7789 47.9617C27.7794 47.9617 27.7798 47.9617 27.7803 47.9617C27.7807 47.9617 27.7812 47.9617 27.7816 47.9617C27.782 47.9617 27.7825 47.9617 27.7829 47.9617C27.7834 47.9617 27.7838 47.9617 27.7843 47.9617C27.7847 47.9617 27.7852 47.9617 27.7856 47.9617C27.7861 47.9617 27.7865 47.9617 27.787 47.9617C27.7874 47.9617 27.7878 47.9617 27.7883 47.9617C27.7887 47.9617 27.7892 47.9617 27.7896 47.9617C27.7901 47.9617 27.7905 47.9617 27.791 47.9617C27.7914 47.9617 27.7919 47.9617 27.7923 47.9617C27.7928 47.9617 27.7932 47.9617 27.7937 47.9617C27.7941 47.9617 27.7945 47.9617 27.795 47.9617C27.7954 47.9617 27.7959 47.9617 27.7963 47.9617C27.7968 47.9617 27.7972 47.9617 27.7977 47.9617C27.7981 47.9617 27.7986 47.9617 27.799 47.9617C27.7995 47.9617 27.7999 47.9617 27.8003 47.9617C27.8008 47.9617 27.8012 47.9617 27.8017 47.9617C27.8021 47.9617 27.8026 47.9617 27.803 47.9617C27.8035 47.9617 27.8039 47.9617 27.8044 47.9617C27.8048 47.9617 27.8053 47.9617 27.8057 47.9617C27.8062 47.9617 27.8066 47.9617 27.807 47.9617C27.8075 47.9617 27.8079 47.9617 27.8084 47.9617C27.8088 47.9617 27.8093 47.9617 27.8097 47.9617C27.8102 47.9617 27.8106 47.9617 27.8111 47.9617C27.8115 47.9617 27.812 47.9617 27.8124 47.9617C27.8128 47.9617 27.8133 47.9617 27.8137 47.9617C27.8142 47.9617 27.8146 47.9617 27.8151 47.9617C27.8155 47.9617 27.816 47.9617 27.8164 47.9617C27.8169 47.9617 27.8173 47.9617 27.8178 47.9617C27.8182 47.9617 27.8186 47.9617 27.8191 47.9617C27.8195 47.9617 27.82 47.9617 27.8204 47.9617C27.8209 47.9617 27.8213 47.9617 27.8218 47.9617C27.8222 47.9617 27.8227 47.9617 27.8231 47.9617C27.8236 47.9617 27.824 47.9617 27.8244 47.9617C27.8249 47.9617 27.8253 47.9617 27.8258 47.9617C27.8262 47.9617 27.8267 47.9617 27.8271 47.9617C27.8276 47.9617 27.828 47.9617 27.8285 47.9617C27.8289 47.9617 27.8294 47.9617 27.8298 47.9617C27.8303 47.9617 27.8307 47.9617 27.8311 47.9617C27.8316 47.9617 27.832 47.9617 27.8325 47.9617C27.8329 47.9617 27.8334 47.9617 27.8338 47.9617C27.8343 47.9617 27.8347 47.9617 27.8352 47.9617C27.8356 47.9617 27.8361 47.9617 27.8365 47.9617C27.8369 47.9617 27.8374 47.9617 27.8378 47.9617C27.8383 47.9617 27.8387 47.9617 27.8392 47.9617C27.8396 47.9617 27.8401 47.9617 27.8405 47.9617C27.841 47.9617 27.8414 47.9617 27.8419 47.9617C27.8423 47.9617 27.8428 47.9617 27.8432 47.9617C27.8436 47.9617 27.8441 47.9617 27.8445 47.9617C27.845 47.9617 27.8454 47.9617 27.8459 47.9617C27.8463 47.9617 27.8468 47.9617 27.8472 47.9617C27.8477 47.9617 27.8481 47.9617 27.8486 47.9617C27.849 47.9617 27.8494 47.9617 27.8499 47.9617C27.8503 47.9617 27.8508 47.9617 27.8512 47.9617C27.8517 47.9617 27.8521 47.9617 27.8526 47.9617C27.853 47.9617 27.8535 47.9617 27.8539 47.9617C27.8544 47.9617 27.8548 47.9617 27.8552 47.9617C27.8557 47.9617 27.8561 47.9617 27.8566 47.9617C27.857 47.9617 27.8575 47.9617 27.8579 47.9617C27.8584 47.9617 27.8588 47.9617 27.8593 47.9617C27.8597 47.9617 27.8602 47.9617 27.8606 47.9617C27.861 47.9617 27.8615 47.9617 27.8619 47.9617C27.8624 47.9617 27.8628 47.9617 27.8633 47.9617C27.8637 47.9617 27.8642 47.9617 27.8646 47.9617C27.8651 47.9617 27.8655 47.9617 27.866 47.9617C27.8664 47.9617 27.8669 47.9617 27.8673 47.9617C27.8677 47.9617 27.8682 47.9617 27.8686 47.9617C27.8691 47.9617 27.8695 47.9617 27.87 47.9617C27.8704 47.9617 27.8709 47.9617 27.8713 47.9617C27.8718 47.9617 27.8722 47.9617 27.8727 47.9617C27.8731 47.9617 27.8735 47.9617 27.874 47.9617C27.8744 47.9617 27.8749 47.9617 27.8753 47.9617C27.8758 47.9617 27.8762 47.9617 27.8767 47.9617C27.8771 47.9617 27.8776 47.9617 27.878 47.9617C27.8785 47.9617 27.8789 47.9617 27.8793 47.9617C27.8798 47.9617 27.8802 47.9617 27.8807 47.9617C27.8811 47.9617 27.8816 47.9617 27.882 47.9617C27.8825 47.9617 27.8829 47.9617 27.8834 47.9617C27.8838 47.9617 27.8843 47.9617 27.8847 47.9617C27.8852 47.9617 27.8856 47.9617 27.886 47.9617C27.8865 47.9617 27.8869 47.9617 27.8874 47.9617C27.8878 47.9617 27.8883 47.9617 27.8887 47.9617C27.8892 47.9617 27.8896 47.9617 27.8901 47.9617C27.8905 47.9617 27.891 47.9617 27.8914 47.9617C27.8918 47.9617 27.8923 47.9617 27.8927 47.9617C27.8932 47.9617 27.8936 47.9617 27.8941 47.9617C27.8945 47.9617 27.895 47.9617 27.8954 47.9617C27.8959 47.9617 27.8963 47.9617 27.8968 47.9617C27.8972 47.9617 27.8976 47.9617 27.8981 47.9617C27.8985 47.9617 27.899 47.9617 27.8994 47.9617C27.8999 47.9617 27.9003 47.9617 27.9008 47.9617C27.9012 47.9617 27.9017 47.9617 27.9021 47.9617C27.9026 47.9617 27.903 47.9617 27.9035 47.9617C27.9039 47.9617 27.9043 47.9617 27.9048 47.9617C27.9052 47.9617 27.9057 47.9617 27.9061 47.9617C27.9066 47.9617 27.907 47.9617 27.9075 47.9617C27.9079 47.9617 27.9084 47.9617 27.9088 47.9617C27.9093 47.9617 27.9097 47.9617 27.9101 47.9617V48.9617C27.9097 48.9617 27.9093 48.9617 27.9088 48.9617C27.9084 48.9617 27.9079 48.9617 27.9075 48.9617C27.907 48.9617 27.9066 48.9617 27.9061 48.9617C27.9057 48.9617 27.9052 48.9617 27.9048 48.9617C27.9043 48.9617 27.9039 48.9617 27.9035 48.9617C27.903 48.9617 27.9026 48.9617 27.9021 48.9617C27.9017 48.9617 27.9012 48.9617 27.9008 48.9617C27.9003 48.9617 27.8999 48.9617 27.8994 48.9617C27.899 48.9617 27.8985 48.9617 27.8981 48.9617C27.8976 48.9617 27.8972 48.9617 27.8968 48.9617C27.8963 48.9617 27.8959 48.9617 27.8954 48.9617C27.895 48.9617 27.8945 48.9617 27.8941 48.9617C27.8936 48.9617 27.8932 48.9617 27.8927 48.9617C27.8923 48.9617 27.8918 48.9617 27.8914 48.9617C27.891 48.9617 27.8905 48.9617 27.8901 48.9617C27.8896 48.9617 27.8892 48.9617 27.8887 48.9617C27.8883 48.9617 27.8878 48.9617 27.8874 48.9617C27.8869 48.9617 27.8865 48.9617 27.886 48.9617C27.8856 48.9617 27.8852 48.9617 27.8847 48.9617C27.8843 48.9617 27.8838 48.9617 27.8834 48.9617C27.8829 48.9617 27.8825 48.9617 27.882 48.9617C27.8816 48.9617 27.8811 48.9617 27.8807 48.9617C27.8802 48.9617 27.8798 48.9617 27.8793 48.9617C27.8789 48.9617 27.8785 48.9617 27.878 48.9617C27.8776 48.9617 27.8771 48.9617 27.8767 48.9617C27.8762 48.9617 27.8758 48.9617 27.8753 48.9617C27.8749 48.9617 27.8744 48.9617 27.874 48.9617C27.8735 48.9617 27.8731 48.9617 27.8727 48.9617C27.8722 48.9617 27.8718 48.9617 27.8713 48.9617C27.8709 48.9617 27.8704 48.9617 27.87 48.9617C27.8695 48.9617 27.8691 48.9617 27.8686 48.9617C27.8682 48.9617 27.8677 48.9617 27.8673 48.9617C27.8669 48.9617 27.8664 48.9617 27.866 48.9617C27.8655 48.9617 27.8651 48.9617 27.8646 48.9617C27.8642 48.9617 27.8637 48.9617 27.8633 48.9617C27.8628 48.9617 27.8624 48.9617 27.8619 48.9617C27.8615 48.9617 27.861 48.9617 27.8606 48.9617C27.8602 48.9617 27.8597 48.9617 27.8593 48.9617C27.8588 48.9617 27.8584 48.9617 27.8579 48.9617C27.8575 48.9617 27.857 48.9617 27.8566 48.9617C27.8561 48.9617 27.8557 48.9617 27.8552 48.9617C27.8548 48.9617 27.8544 48.9617 27.8539 48.9617C27.8535 48.9617 27.853 48.9617 27.8526 48.9617C27.8521 48.9617 27.8517 48.9617 27.8512 48.9617C27.8508 48.9617 27.8503 48.9617 27.8499 48.9617C27.8494 48.9617 27.849 48.9617 27.8486 48.9617C27.8481 48.9617 27.8477 48.9617 27.8472 48.9617C27.8468 48.9617 27.8463 48.9617 27.8459 48.9617C27.8454 48.9617 27.845 48.9617 27.8445 48.9617C27.8441 48.9617 27.8436 48.9617 27.8432 48.9617C27.8428 48.9617 27.8423 48.9617 27.8419 48.9617C27.8414 48.9617 27.841 48.9617 27.8405 48.9617C27.8401 48.9617 27.8396 48.9617 27.8392 48.9617C27.8387 48.9617 27.8383 48.9617 27.8378 48.9617C27.8374 48.9617 27.8369 48.9617 27.8365 48.9617C27.8361 48.9617 27.8356 48.9617 27.8352 48.9617C27.8347 48.9617 27.8343 48.9617 27.8338 48.9617C27.8334 48.9617 27.8329 48.9617 27.8325 48.9617C27.832 48.9617 27.8316 48.9617 27.8311 48.9617C27.8307 48.9617 27.8303 48.9617 27.8298 48.9617C27.8294 48.9617 27.8289 48.9617 27.8285 48.9617C27.828 48.9617 27.8276 48.9617 27.8271 48.9617C27.8267 48.9617 27.8262 48.9617 27.8258 48.9617C27.8253 48.9617 27.8249 48.9617 27.8244 48.9617C27.824 48.9617 27.8236 48.9617 27.8231 48.9617C27.8227 48.9617 27.8222 48.9617 27.8218 48.9617C27.8213 48.9617 27.8209 48.9617 27.8204 48.9617C27.82 48.9617 27.8195 48.9617 27.8191 48.9617C27.8186 48.9617 27.8182 48.9617 27.8178 48.9617C27.8173 48.9617 27.8169 48.9617 27.8164 48.9617C27.816 48.9617 27.8155 48.9617 27.8151 48.9617C27.8146 48.9617 27.8142 48.9617 27.8137 48.9617C27.8133 48.9617 27.8128 48.9617 27.8124 48.9617C27.812 48.9617 27.8115 48.9617 27.8111 48.9617C27.8106 48.9617 27.8102 48.9617 27.8097 48.9617C27.8093 48.9617 27.8088 48.9617 27.8084 48.9617C27.8079 48.9617 27.8075 48.9617 27.807 48.9617C27.8066 48.9617 27.8062 48.9617 27.8057 48.9617C27.8053 48.9617 27.8048 48.9617 27.8044 48.9617C27.8039 48.9617 27.8035 48.9617 27.803 48.9617C27.8026 48.9617 27.8021 48.9617 27.8017 48.9617C27.8012 48.9617 27.8008 48.9617 27.8003 48.9617C27.7999 48.9617 27.7995 48.9617 27.799 48.9617C27.7986 48.9617 27.7981 48.9617 27.7977 48.9617C27.7972 48.9617 27.7968 48.9617 27.7963 48.9617C27.7959 48.9617 27.7954 48.9617 27.795 48.9617C27.7945 48.9617 27.7941 48.9617 27.7937 48.9617C27.7932 48.9617 27.7928 48.9617 27.7923 48.9617C27.7919 48.9617 27.7914 48.9617 27.791 48.9617C27.7905 48.9617 27.7901 48.9617 27.7896 48.9617C27.7892 48.9617 27.7887 48.9617 27.7883 48.9617C27.7878 48.9617 27.7874 48.9617 27.787 48.9617C27.7865 48.9617 27.7861 48.9617 27.7856 48.9617C27.7852 48.9617 27.7847 48.9617 27.7843 48.9617C27.7838 48.9617 27.7834 48.9617 27.7829 48.9617C27.7825 48.9617 27.782 48.9617 27.7816 48.9617C27.7812 48.9617 27.7807 48.9617 27.7803 48.9617C27.7798 48.9617 27.7794 48.9617 27.7789 48.9617C27.7785 48.9617 27.778 48.9617 27.7776 48.9617C27.7771 48.9617 27.7767 48.9617 27.7762 48.9617C27.7758 48.9617 27.7754 48.9617 27.7749 48.9617C27.7745 48.9617 27.774 48.9617 27.7736 48.9617C27.7731 48.9617 27.7727 48.9617 27.7722 48.9617C27.7718 48.9617 27.7713 48.9617 27.7709 48.9617C27.7704 48.9617 27.77 48.9617 27.7696 48.9617C27.7691 48.9617 27.7687 48.9617 27.7682 48.9617C27.7678 48.9617 27.7673 48.9617 27.7669 48.9617C27.7664 48.9617 27.766 48.9617 27.7655 48.9617C27.7651 48.9617 27.7646 48.9617 27.7642 48.9617C27.7637 48.9617 27.7633 48.9617 27.7629 48.9617C27.7624 48.9617 27.762 48.9617 27.7615 48.9617C27.7611 48.9617 27.7606 48.9617 27.7602 48.9617C27.7597 48.9617 27.7593 48.9617 27.7588 48.9617C27.7584 48.9617 27.7579 48.9617 27.7575 48.9617C27.7571 48.9617 27.7566 48.9617 27.7562 48.9617C27.7557 48.9617 27.7553 48.9617 27.7548 48.9617C27.7544 48.9617 27.7539 48.9617 27.7535 48.9617C27.753 48.9617 27.7526 48.9617 27.7521 48.9617C27.7517 48.9617 27.7513 48.9617 27.7508 48.9617C27.7504 48.9617 27.7499 48.9617 27.7495 48.9617C27.749 48.9617 27.7486 48.9617 27.7481 48.9617C27.7477 48.9617 27.7472 48.9617 27.7468 48.9617C27.7463 48.9617 27.7459 48.9617 27.7454 48.9617C27.745 48.9617 27.7446 48.9617 27.7441 48.9617C27.7437 48.9617 27.7432 48.9617 27.7428 48.9617C27.7423 48.9617 27.7419 48.9617 27.7414 48.9617C27.741 48.9617 27.7405 48.9617 27.7401 48.9617C27.7396 48.9617 27.7392 48.9617 27.7388 48.9617C27.7383 48.9617 27.7379 48.9617 27.7374 48.9617C27.737 48.9617 27.7365 48.9617 27.7361 48.9617C27.7356 48.9617 27.7352 48.9617 27.7347 48.9617C27.7343 48.9617 27.7338 48.9617 27.7334 48.9617C27.733 48.9617 27.7325 48.9617 27.7321 48.9617C27.7316 48.9617 27.7312 48.9617 27.7307 48.9617C27.7303 48.9617 27.7298 48.9617 27.7294 48.9617C27.7289 48.9617 27.7285 48.9617 27.728 48.9617C27.7276 48.9617 27.7271 48.9617 27.7267 48.9617C27.7263 48.9617 27.7258 48.9617 27.7254 48.9617C27.7249 48.9617 27.7245 48.9617 27.724 48.9617C27.7236 48.9617 27.7231 48.9617 27.7227 48.9617C27.7222 48.9617 27.7218 48.9617 27.7213 48.9617C27.7209 48.9617 27.7205 48.9617 27.72 48.9617C27.7196 48.9617 27.7191 48.9617 27.7187 48.9617C27.7182 48.9617 27.7178 48.9617 27.7173 48.9617C27.7169 48.9617 27.7164 48.9617 27.716 48.9617C27.7155 48.9617 27.7151 48.9617 27.7147 48.9617C27.7142 48.9617 27.7138 48.9617 27.7133 48.9617C27.7129 48.9617 27.7124 48.9617 27.712 48.9617C27.7115 48.9617 27.7111 48.9617 27.7106 48.9617C27.7102 48.9617 27.7097 48.9617 27.7093 48.9617C27.7088 48.9617 27.7084 48.9617 27.708 48.9617C27.7075 48.9617 27.7071 48.9617 27.7066 48.9617C27.7062 48.9617 27.7057 48.9617 27.7053 48.9617C27.7048 48.9617 27.7044 48.9617 27.7039 48.9617C27.7035 48.9617 27.703 48.9617 27.7026 48.9617C27.7022 48.9617 27.7017 48.9617 27.7013 48.9617C27.7008 48.9617 27.7004 48.9617 27.6999 48.9617C27.6995 48.9617 27.699 48.9617 27.6986 48.9617C27.6981 48.9617 27.6977 48.9617 27.6972 48.9617C27.6968 48.9617 27.6964 48.9617 27.6959 48.9617C27.6955 48.9617 27.695 48.9617 27.6946 48.9617C27.6941 48.9617 27.6937 48.9617 27.6932 48.9617C27.6928 48.9617 27.6923 48.9617 27.6919 48.9617C27.6914 48.9617 27.691 48.9617 27.6905 48.9617C27.6901 48.9617 27.6897 48.9617 27.6892 48.9617C27.6888 48.9617 27.6883 48.9617 27.6879 48.9617C27.6874 48.9617 27.687 48.9617 27.6865 48.9617C27.6861 48.9617 27.6856 48.9617 27.6852 48.9617C27.6847 48.9617 27.6843 48.9617 27.6839 48.9617C27.6834 48.9617 27.683 48.9617 27.6825 48.9617C27.6821 48.9617 27.6816 48.9617 27.6812 48.9617C27.6807 48.9617 27.6803 48.9617 27.6798 48.9617C27.6794 48.9617 27.6789 48.9617 27.6785 48.9617C27.6781 48.9617 27.6776 48.9617 27.6772 48.9617C27.6767 48.9617 27.6763 48.9617 27.6758 48.9617C27.6754 48.9617 27.6749 48.9617 27.6745 48.9617C27.674 48.9617 27.6736 48.9617 27.6731 48.9617C27.6727 48.9617 27.6722 48.9617 27.6718 48.9617C27.6714 48.9617 27.6709 48.9617 27.6705 48.9617C27.67 48.9617 27.6696 48.9617 27.6691 48.9617C27.6687 48.9617 27.6682 48.9617 27.6678 48.9617C27.6673 48.9617 27.6669 48.9617 27.6664 48.9617C27.666 48.9617 27.6656 48.9617 27.6651 48.9617C27.6647 48.9617 27.6642 48.9617 27.6638 48.9617C27.6633 48.9617 27.6629 48.9617 27.6624 48.9617C27.662 48.9617 27.6615 48.9617 27.6611 48.9617C27.6606 48.9617 27.6602 48.9617 27.6598 48.9617C27.6593 48.9617 27.6589 48.9617 27.6584 48.9617C27.658 48.9617 27.6575 48.9617 27.6571 48.9617C27.6566 48.9617 27.6562 48.9617 27.6557 48.9617C27.6553 48.9617 27.6548 48.9617 27.6544 48.9617C27.6539 48.9617 27.6535 48.9617 27.6531 48.9617C27.6526 48.9617 27.6522 48.9617 27.6517 48.9617C27.6513 48.9617 27.6508 48.9617 27.6504 48.9617C27.6499 48.9617 27.6495 48.9617 27.649 48.9617C27.6486 48.9617 27.6481 48.9617 27.6477 48.9617C27.6473 48.9617 27.6468 48.9617 27.6464 48.9617C27.6459 48.9617 27.6455 48.9617 27.645 48.9617C27.6446 48.9617 27.6441 48.9617 27.6437 48.9617C27.6432 48.9617 27.6428 48.9617 27.6423 48.9617C27.6419 48.9617 27.6415 48.9617 27.641 48.9617C27.6406 48.9617 27.6401 48.9617 27.6397 48.9617C27.6392 48.9617 27.6388 48.9617 27.6383 48.9617C27.6379 48.9617 27.6374 48.9617 27.637 48.9617C27.6365 48.9617 27.6361 48.9617 27.6356 48.9617C27.6352 48.9617 27.6348 48.9617 27.6343 48.9617C27.6339 48.9617 27.6334 48.9617 27.633 48.9617C27.6325 48.9617 27.6321 48.9617 27.6316 48.9617C27.6312 48.9617 27.6307 48.9617 27.6303 48.9617C27.6298 48.9617 27.6294 48.9617 27.629 48.9617C27.6285 48.9617 27.6281 48.9617 27.6276 48.9617C27.6272 48.9617 27.6267 48.9617 27.6263 48.9617C27.6258 48.9617 27.6254 48.9617 27.6249 48.9617C27.6245 48.9617 27.624 48.9617 27.6236 48.9617C27.6232 48.9617 27.6227 48.9617 27.6223 48.9617C27.6218 48.9617 27.6214 48.9617 27.6209 48.9617C27.6205 48.9617 27.62 48.9617 27.6196 48.9617C27.6191 48.9617 27.6187 48.9617 27.6182 48.9617C27.6178 48.9617 27.6173 48.9617 27.6169 48.9617C27.6165 48.9617 27.616 48.9617 27.6156 48.9617C27.6151 48.9617 27.6147 48.9617 27.6142 48.9617C27.6138 48.9617 27.6133 48.9617 27.6129 48.9617C27.6124 48.9617 27.612 48.9617 27.6115 48.9617C27.6111 48.9617 27.6107 48.9617 27.6102 48.9617C27.6098 48.9617 27.6093 48.9617 27.6089 48.9617C27.6084 48.9617 27.608 48.9617 27.6075 48.9617C27.6071 48.9617 27.6066 48.9617 27.6062 48.9617C27.6057 48.9617 27.6053 48.9617 27.6049 48.9617C27.6044 48.9617 27.604 48.9617 27.6035 48.9617C27.6031 48.9617 27.6026 48.9617 27.6022 48.9617C27.6017 48.9617 27.6013 48.9617 27.6008 48.9617C27.6004 48.9617 27.5999 48.9617 27.5995 48.9617C27.5991 48.9617 27.5986 48.9617 27.5982 48.9617C27.5977 48.9617 27.5973 48.9617 27.5968 48.9617C27.5964 48.9617 27.5959 48.9617 27.5955 48.9617C27.595 48.9617 27.5946 48.9617 27.5941 48.9617C27.5937 48.9617 27.5932 48.9617 27.5928 48.9617C27.5924 48.9617 27.5919 48.9617 27.5915 48.9617C27.591 48.9617 27.5906 48.9617 27.5901 48.9617C27.5897 48.9617 27.5892 48.9617 27.5888 48.9617C27.5883 48.9617 27.5879 48.9617 27.5874 48.9617C27.587 48.9617 27.5866 48.9617 27.5861 48.9617C27.5857 48.9617 27.5852 48.9617 27.5848 48.9617C27.5843 48.9617 27.5839 48.9617 27.5834 48.9617C27.583 48.9617 27.5825 48.9617 27.5821 48.9617C27.5816 48.9617 27.5812 48.9617 27.5807 48.9617C27.5803 48.9617 27.5799 48.9617 27.5794 48.9617C27.579 48.9617 27.5785 48.9617 27.5781 48.9617C27.5776 48.9617 27.5772 48.9617 27.5767 48.9617C27.5763 48.9617 27.5758 48.9617 27.5754 48.9617C27.5749 48.9617 27.5745 48.9617 27.5741 48.9617C27.5736 48.9617 27.5732 48.9617 27.5727 48.9617C27.5723 48.9617 27.5718 48.9617 27.5714 48.9617C27.5709 48.9617 27.5705 48.9617 27.57 48.9617C27.5696 48.9617 27.5691 48.9617 27.5687 48.9617C27.5683 48.9617 27.5678 48.9617 27.5674 48.9617C27.5669 48.9617 27.5665 48.9617 27.566 48.9617C27.5656 48.9617 27.5651 48.9617 27.5647 48.9617C27.5642 48.9617 27.5638 48.9617 27.5633 48.9617C27.5629 48.9617 27.5625 48.9617 27.562 48.9617C27.5616 48.9617 27.5611 48.9617 27.5607 48.9617C27.5602 48.9617 27.5598 48.9617 27.5593 48.9617C27.5589 48.9617 27.5584 48.9617 27.558 48.9617C27.5575 48.9617 27.5571 48.9617 27.5566 48.9617C27.5562 48.9617 27.5558 48.9617 27.5553 48.9617C27.5549 48.9617 27.5544 48.9617 27.554 48.9617C27.5535 48.9617 27.5531 48.9617 27.5526 48.9617C27.5522 48.9617 27.5517 48.9617 27.5513 48.9617C27.5508 48.9617 27.5504 48.9617 27.55 48.9617C27.5495 48.9617 27.5491 48.9617 27.5486 48.9617C27.5482 48.9617 27.5477 48.9617 27.5473 48.9617C27.5468 48.9617 27.5464 48.9617 27.5459 48.9617C27.5455 48.9617 27.545 48.9617 27.5446 48.9617C27.5442 48.9617 27.5437 48.9617 27.5433 48.9617C27.5428 48.9617 27.5424 48.9617 27.5419 48.9617C27.5415 48.9617 27.541 48.9617 27.5406 48.9617C27.5401 48.9617 27.5397 48.9617 27.5392 48.9617C27.5388 48.9617 27.5383 48.9617 27.5379 48.9617C27.5375 48.9617 27.537 48.9617 27.5366 48.9617C27.5361 48.9617 27.5357 48.9617 27.5352 48.9617C27.5348 48.9617 27.5343 48.9617 27.5339 48.9617C27.5334 48.9617 27.533 48.9617 27.5325 48.9617C27.5321 48.9617 27.5317 48.9617 27.5312 48.9617C27.5308 48.9617 27.5303 48.9617 27.5299 48.9617C27.5294 48.9617 27.529 48.9617 27.5285 48.9617C27.5281 48.9617 27.5276 48.9617 27.5272 48.9617C27.5267 48.9617 27.5263 48.9617 27.5259 48.9617C27.5254 48.9617 27.525 48.9617 27.5245 48.9617C27.5241 48.9617 27.5236 48.9617 27.5232 48.9617C27.5227 48.9617 27.5223 48.9617 27.5218 48.9617C27.5214 48.9617 27.5209 48.9617 27.5205 48.9617C27.52 48.9617 27.5196 48.9617 27.5192 48.9617C27.5187 48.9617 27.5183 48.9617 27.5178 48.9617C27.5174 48.9617 27.5169 48.9617 27.5165 48.9617C27.516 48.9617 27.5156 48.9617 27.5151 48.9617C27.5147 48.9617 27.5142 48.9617 27.5138 48.9617C27.5134 48.9617 27.5129 48.9617 27.5125 48.9617C27.512 48.9617 27.5116 48.9617 27.5111 48.9617C27.5107 48.9617 27.5102 48.9617 27.5098 48.9617C27.5093 48.9617 27.5089 48.9617 27.5084 48.9617C27.508 48.9617 27.5076 48.9617 27.5071 48.9617C27.5067 48.9617 27.5062 48.9617 27.5058 48.9617C27.5053 48.9617 27.5049 48.9617 27.5044 48.9617C27.504 48.9617 27.5035 48.9617 27.5031 48.9617C27.5026 48.9617 27.5022 48.9617 27.5017 48.9617C27.5013 48.9617 27.5009 48.9617 27.5004 48.9617C27.5 48.9617 27.4995 48.9617 27.4991 48.9617C27.4986 48.9617 27.4982 48.9617 27.4977 48.9617C27.4973 48.9617 27.4968 48.9617 27.4964 48.9617C27.4959 48.9617 27.4955 48.9617 27.4951 48.9617C27.4946 48.9617 27.4942 48.9617 27.4937 48.9617C27.4933 48.9617 27.4928 48.9617 27.4924 48.9617C27.4919 48.9617 27.4915 48.9617 27.491 48.9617C27.4906 48.9617 27.4901 48.9617 27.4897 48.9617C27.4893 48.9617 27.4888 48.9617 27.4884 48.9617C27.4879 48.9617 27.4875 48.9617 27.487 48.9617C27.4866 48.9617 27.4861 48.9617 27.4857 48.9617C27.4852 48.9617 27.4848 48.9617 27.4843 48.9617C27.4839 48.9617 27.4834 48.9617 27.483 48.9617C27.4826 48.9617 27.4821 48.9617 27.4817 48.9617C27.4812 48.9617 27.4808 48.9617 27.4803 48.9617C27.4799 48.9617 27.4794 48.9617 27.479 48.9617C27.4785 48.9617 27.4781 48.9617 27.4776 48.9617C27.4772 48.9617 27.4768 48.9617 27.4763 48.9617C27.4759 48.9617 27.4754 48.9617 27.475 48.9617C27.4745 48.9617 27.4741 48.9617 27.4736 48.9617C27.4732 48.9617 27.4727 48.9617 27.4723 48.9617C27.4718 48.9617 27.4714 48.9617 27.471 48.9617C27.4705 48.9617 27.4701 48.9617 27.4696 48.9617C27.4692 48.9617 27.4687 48.9617 27.4683 48.9617C27.4678 48.9617 27.4674 48.9617 27.4669 48.9617C27.4665 48.9617 27.466 48.9617 27.4656 48.9617C27.4651 48.9617 27.4647 48.9617 27.4643 48.9617C27.4638 48.9617 27.4634 48.9617 27.4629 48.9617C27.4625 48.9617 27.462 48.9617 27.4616 48.9617C27.4611 48.9617 27.4607 48.9617 27.4602 48.9617C27.4598 48.9617 27.4593 48.9617 27.4589 48.9617C27.4585 48.9617 27.458 48.9617 27.4576 48.9617C27.4571 48.9617 27.4567 48.9617 27.4562 48.9617C27.4558 48.9617 27.4553 48.9617 27.4549 48.9617C27.4544 48.9617 27.454 48.9617 27.4535 48.9617C27.4531 48.9617 27.4527 48.9617 27.4522 48.9617C27.4518 48.9617 27.4513 48.9617 27.4509 48.9617C27.4504 48.9617 27.45 48.9617 27.4495 48.9617C27.4491 48.9617 27.4486 48.9617 27.4482 48.9617C27.4477 48.9617 27.4473 48.9617 27.4468 48.9617C27.4464 48.9617 27.446 48.9617 27.4455 48.9617C27.4451 48.9617 27.4446 48.9617 27.4442 48.9617C27.4437 48.9617 27.4433 48.9617 27.4428 48.9617C27.4424 48.9617 27.4419 48.9617 27.4415 48.9617C27.441 48.9617 27.4406 48.9617 27.4402 48.9617C27.4397 48.9617 27.4393 48.9617 27.4388 48.9617C27.4384 48.9617 27.4379 48.9617 27.4375 48.9617C27.437 48.9617 27.4366 48.9617 27.4361 48.9617C27.4357 48.9617 27.4352 48.9617 27.4348 48.9617C27.4344 48.9617 27.4339 48.9617 27.4335 48.9617C27.433 48.9617 27.4326 48.9617 27.4321 48.9617C27.4317 48.9617 27.4312 48.9617 27.4308 48.9617C27.4303 48.9617 27.4299 48.9617 27.4294 48.9617C27.429 48.9617 27.4285 48.9617 27.4281 48.9617C27.4277 48.9617 27.4272 48.9617 27.4268 48.9617C27.4263 48.9617 27.4259 48.9617 27.4254 48.9617C27.425 48.9617 27.4245 48.9617 27.4241 48.9617C27.4236 48.9617 27.4232 48.9617 27.4227 48.9617C27.4223 48.9617 27.4219 48.9617 27.4214 48.9617C27.421 48.9617 27.4205 48.9617 27.4201 48.9617C27.4196 48.9617 27.4192 48.9617 27.4187 48.9617C27.4183 48.9617 27.4178 48.9617 27.4174 48.9617C27.4169 48.9617 27.4165 48.9617 27.4161 48.9617C27.4156 48.9617 27.4152 48.9617 27.4147 48.9617C27.4143 48.9617 27.4138 48.9617 27.4134 48.9617C27.4129 48.9617 27.4125 48.9617 27.412 48.9617C27.4116 48.9617 27.4111 48.9617 27.4107 48.9617C27.4102 48.9617 27.4098 48.9617 27.4094 48.9617C27.4089 48.9617 27.4085 48.9617 27.408 48.9617C27.4076 48.9617 27.4071 48.9617 27.4067 48.9617C27.4062 48.9617 27.4058 48.9617 27.4053 48.9617C27.4049 48.9617 27.4044 48.9617 27.404 48.9617C27.4036 48.9617 27.4031 48.9617 27.4027 48.9617C27.4022 48.9617 27.4018 48.9617 27.4013 48.9617C27.4009 48.9617 27.4004 48.9617 27.4 48.9617C27.3995 48.9617 27.3991 48.9617 27.3986 48.9617C27.3982 48.9617 27.3978 48.9617 27.3973 48.9617C27.3969 48.9617 27.3964 48.9617 27.396 48.9617C27.3955 48.9617 27.3951 48.9617 27.3946 48.9617C27.3942 48.9617 27.3937 48.9617 27.3933 48.9617C27.3928 48.9617 27.3924 48.9617 27.3919 48.9617C27.3915 48.9617 27.3911 48.9617 27.3906 48.9617C27.3902 48.9617 27.3897 48.9617 27.3893 48.9617C27.3888 48.9617 27.3884 48.9617 27.3879 48.9617C27.3875 48.9617 27.387 48.9617 27.3866 48.9617C27.3861 48.9617 27.3857 48.9617 27.3853 48.9617C27.3848 48.9617 27.3844 48.9617 27.3839 48.9617C27.3835 48.9617 27.383 48.9617 27.3826 48.9617C27.3821 48.9617 27.3817 48.9617 27.3812 48.9617C27.3808 48.9617 27.3803 48.9617 27.3799 48.9617C27.3795 48.9617 27.379 48.9617 27.3786 48.9617C27.3781 48.9617 27.3777 48.9617 27.3772 48.9617C27.3768 48.9617 27.3763 48.9617 27.3759 48.9617C27.3754 48.9617 27.375 48.9617 27.3745 48.9617C27.3741 48.9617 27.3736 48.9617 27.3732 48.9617C27.3728 48.9617 27.3723 48.9617 27.3719 48.9617C27.3714 48.9617 27.371 48.9617 27.3705 48.9617C27.3701 48.9617 27.3696 48.9617 27.3692 48.9617C27.3687 48.9617 27.3683 48.9617 27.3678 48.9617C27.3674 48.9617 27.367 48.9617 27.3665 48.9617C27.3661 48.9617 27.3656 48.9617 27.3652 48.9617C27.3647 48.9617 27.3643 48.9617 27.3638 48.9617C27.3634 48.9617 27.3629 48.9617 27.3625 48.9617C27.362 48.9617 27.3616 48.9617 27.3612 48.9617C27.3607 48.9617 27.3603 48.9617 27.3598 48.9617C27.3594 48.9617 27.3589 48.9617 27.3585 48.9617C27.358 48.9617 27.3576 48.9617 27.3571 48.9617C27.3567 48.9617 27.3562 48.9617 27.3558 48.9617C27.3554 48.9617 27.3549 48.9617 27.3545 48.9617C27.354 48.9617 27.3536 48.9617 27.3531 48.9617C27.3527 48.9617 27.3522 48.9617 27.3518 48.9617C27.3513 48.9617 27.3509 48.9617 27.3504 48.9617C27.35 48.9617 27.3495 48.9617 27.3491 48.9617C27.3487 48.9617 27.3482 48.9617 27.3478 48.9617C27.3473 48.9617 27.3469 48.9617 27.3464 48.9617C27.346 48.9617 27.3455 48.9617 27.3451 48.9617C27.3446 48.9617 27.3442 48.9617 27.3437 48.9617C27.3433 48.9617 27.3429 48.9617 27.3424 48.9617C27.342 48.9617 27.3415 48.9617 27.3411 48.9617C27.3406 48.9617 27.3402 48.9617 27.3397 48.9617C27.3393 48.9617 27.3388 48.9617 27.3384 48.9617C27.3379 48.9617 27.3375 48.9617 27.337 48.9617C27.3366 48.9617 27.3362 48.9617 27.3357 48.9617C27.3353 48.9617 27.3348 48.9617 27.3344 48.9617C27.3339 48.9617 27.3335 48.9617 27.333 48.9617C27.3326 48.9617 27.3321 48.9617 27.3317 48.9617C27.3312 48.9617 27.3308 48.9617 27.3304 48.9617C27.3299 48.9617 27.3295 48.9617 27.329 48.9617C27.3286 48.9617 27.3281 48.9617 27.3277 48.9617C27.3272 48.9617 27.3268 48.9617 27.3263 48.9617C27.3259 48.9617 27.3254 48.9617 27.325 48.9617C27.3246 48.9617 27.3241 48.9617 27.3237 48.9617C27.3232 48.9617 27.3228 48.9617 27.3223 48.9617C27.3219 48.9617 27.3214 48.9617 27.321 48.9617C27.3205 48.9617 27.3201 48.9617 27.3196 48.9617C27.3192 48.9617 27.3188 48.9617 27.3183 48.9617C27.3179 48.9617 27.3174 48.9617 27.317 48.9617C27.3165 48.9617 27.3161 48.9617 27.3156 48.9617C27.3152 48.9617 27.3147 48.9617 27.3143 48.9617C27.3138 48.9617 27.3134 48.9617 27.3129 48.9617C27.3125 48.9617 27.3121 48.9617 27.3116 48.9617C27.3112 48.9617 27.3107 48.9617 27.3103 48.9617C27.3098 48.9617 27.3094 48.9617 27.3089 48.9617C27.3085 48.9617 27.308 48.9617 27.3076 48.9617C27.3071 48.9617 27.3067 48.9617 27.3063 48.9617C27.3058 48.9617 27.3054 48.9617 27.3049 48.9617C27.3045 48.9617 27.304 48.9617 27.3036 48.9617C27.3031 48.9617 27.3027 48.9617 27.3022 48.9617C27.3018 48.9617 27.3013 48.9617 27.3009 48.9617C27.3005 48.9617 27.3 48.9617 27.2996 48.9617C27.2991 48.9617 27.2987 48.9617 27.2982 48.9617C27.2978 48.9617 27.2973 48.9617 27.2969 48.9617C27.2964 48.9617 27.296 48.9617 27.2955 48.9617C27.2951 48.9617 27.2946 48.9617 27.2942 48.9617C27.2938 48.9617 27.2933 48.9617 27.2929 48.9617C27.2924 48.9617 27.292 48.9617 27.2915 48.9617C27.2911 48.9617 27.2906 48.9617 27.2902 48.9617C27.2897 48.9617 27.2893 48.9617 27.2888 48.9617C27.2884 48.9617 27.288 48.9617 27.2875 48.9617C27.2871 48.9617 27.2866 48.9617 27.2862 48.9617C27.2857 48.9617 27.2853 48.9617 27.2848 48.9617C27.2844 48.9617 27.2839 48.9617 27.2835 48.9617C27.283 48.9617 27.2826 48.9617 27.2822 48.9617C27.2817 48.9617 27.2813 48.9617 27.2808 48.9617C27.2804 48.9617 27.2799 48.9617 27.2795 48.9617C27.279 48.9617 27.2786 48.9617 27.2781 48.9617C27.2777 48.9617 27.2772 48.9617 27.2768 48.9617C27.2763 48.9617 27.2759 48.9617 27.2755 48.9617C27.275 48.9617 27.2746 48.9617 27.2741 48.9617C27.2737 48.9617 27.2732 48.9617 27.2728 48.9617C27.2723 48.9617 27.2719 48.9617 27.2714 48.9617C27.271 48.9617 27.2705 48.9617 27.2701 48.9617C27.2697 48.9617 27.2692 48.9617 27.2688 48.9617C27.2683 48.9617 27.2679 48.9617 27.2674 48.9617C27.267 48.9617 27.2665 48.9617 27.2661 48.9617C27.2656 48.9617 27.2652 48.9617 27.2647 48.9617C27.2643 48.9617 27.2639 48.9617 27.2634 48.9617C27.263 48.9617 27.2625 48.9617 27.2621 48.9617C27.2616 48.9617 27.2612 48.9617 27.2607 48.9617C27.2603 48.9617 27.2598 48.9617 27.2594 48.9617C27.2589 48.9617 27.2585 48.9617 27.258 48.9617C27.2576 48.9617 27.2572 48.9617 27.2567 48.9617C27.2563 48.9617 27.2558 48.9617 27.2554 48.9617C27.2549 48.9617 27.2545 48.9617 27.254 48.9617C27.2536 48.9617 27.2531 48.9617 27.2527 48.9617C27.2522 48.9617 27.2518 48.9617 27.2514 48.9617C27.2509 48.9617 27.2505 48.9617 27.25 48.9617C27.2496 48.9617 27.2491 48.9617 27.2487 48.9617C27.2482 48.9617 27.2478 48.9617 27.2473 48.9617C27.2469 48.9617 27.2464 48.9617 27.246 48.9617C27.2456 48.9617 27.2451 48.9617 27.2447 48.9617C27.2442 48.9617 27.2438 48.9617 27.2433 48.9617C27.2429 48.9617 27.2424 48.9617 27.242 48.9617C27.2415 48.9617 27.2411 48.9617 27.2406 48.9617C27.2402 48.9617 27.2397 48.9617 27.2393 48.9617C27.2389 48.9617 27.2384 48.9617 27.238 48.9617C27.2375 48.9617 27.2371 48.9617 27.2366 48.9617C27.2362 48.9617 27.2357 48.9617 27.2353 48.9617C27.2348 48.9617 27.2344 48.9617 27.2339 48.9617C27.2335 48.9617 27.2331 48.9617 27.2326 48.9617C27.2322 48.9617 27.2317 48.9617 27.2313 48.9617C27.2308 48.9617 27.2304 48.9617 27.2299 48.9617C27.2295 48.9617 27.229 48.9617 27.2286 48.9617C27.2281 48.9617 27.2277 48.9617 27.2273 48.9617C27.2268 48.9617 27.2264 48.9617 27.2259 48.9617C27.2255 48.9617 27.225 48.9617 27.2246 48.9617V47.9617ZM7.50343 35.9964L26.5852 16.9146L27.2924 17.6217L8.21054 36.7035L7.50343 35.9964ZM27.2813 16.9038L39.6787 28.5586L38.9938 29.2872L26.5963 17.6324L27.2813 16.9038ZM13.9023 43.7662L22.3006 35.3679L23.0077 36.075L14.6094 44.4733L13.9023 43.7662ZM23.0077 35.3679L29.8635 42.2237L29.1564 42.9308L22.3006 36.075L23.0077 35.3679ZM29.1556 42.2244L42.7528 28.5701L43.4614 29.2757L29.8642 42.93L29.1556 42.2244ZM43.4607 28.5693L50.4307 35.5393L49.7236 36.2464L42.7536 29.2764L43.4607 28.5693ZM18.6623 25.5381L21.7473 28.5661L21.0469 29.2798L17.9618 26.2518L18.6623 25.5381ZM21.0436 28.5694L24.0715 25.5414L24.7786 26.2485L21.7507 29.2765L21.0436 28.5694ZM24.782 25.5449L27.6957 28.5157L26.9818 29.2159L24.0681 26.2451L24.782 25.5449ZM26.9852 28.5122L29.8418 25.6557L30.5489 26.3628L27.6923 29.2193L26.9852 28.5122ZM30.5489 25.6557L33.4054 28.5122L32.6983 29.2193L29.8418 26.3628L30.5489 25.6557ZM32.6983 28.5122L35.7263 25.4843L36.4334 26.1914L33.4054 29.2193L32.6983 28.5122ZM26.4388 17.2681L26.4389 8.35563L27.4389 8.35565L27.4388 17.2681L26.4388 17.2681ZM26.9389 7.85564H33.3376V8.85564H26.9389V7.85564ZM33.8376 8.35564V12.8119H32.8376V8.35564H33.8376ZM33.3376 13.3119H26.9389V12.3119H33.3376V13.3119Z" fill="#00DCE6"/>
</svg>
