<svg width="70" height="70" viewBox="0 0 70 70" fill="none" xmlns="http://www.w3.org/2000/svg">
<circle cx="35" cy="35" r="35" fill="#00DCE6" fill-opacity="0.1"/>
<path d="M53 40.1455L53.6667 41.0182L57.8889 37.6364L61.1111 42L62 41.3455L58.1111 36L53 40.1455Z" fill="#00DCE6"/>
<path d="M57.8371 37.4287C56.9361 48.9722 47.3262 57.9999 35.3139 57.9999C27.656 57.9999 20.7489 54.152 16.6947 48.3803" stroke="#00DCE6"/>
<path d="M12.6522 33.8806C13.5536 22.1626 23.1684 12.9985 35.1869 12.9985C42.5482 12.9985 49.1583 16.6041 53.3648 22.1626" stroke="#00DCE6"/>
<path d="M18 30.1636L17.2593 29.1455L12.5679 33.0909L8.98765 28L8 28.7636L12.321 35L18 30.1636Z" fill="#00DCE6"/>
<path d="M40.4058 43.9789L42.106 45.6885L45.1933 42.5842L43.4931 40.8745L43.6721 40.6046C44.1642 39.7947 44.5222 38.9399 44.7459 38.0401L44.8354 37.7252H47.2515V33.3611H44.8354L44.7459 33.0462C44.5222 32.1463 44.1642 31.2465 43.6721 30.4817L43.4931 30.2118L45.1933 28.5021L42.106 25.3978L40.4058 27.0624L40.1373 26.8824C39.332 26.3876 38.4818 26.0276 37.587 25.8027L37.2738 25.7127V23.2832H32.9337V25.7127L32.6205 25.8027C31.7256 26.0276 30.8307 26.3876 30.0701 26.8824L29.6674 27.0624L27.9671 25.3528L24.8798 28.4571L26.5801 30.1668L26.4011 30.4367C25.9089 31.2465 25.551 32.1014 25.3273 33.0012L25.2378 33.3161H22.8217V37.6802H25.2378L25.3273 37.9951C25.551 38.8949 25.9089 39.7498 26.4011 40.5596L26.5801 40.8295L24.8798 42.5392L27.9671 45.6435L29.6674 43.9339L29.9358 44.1138C30.7412 44.6087 31.5914 44.9687 32.4862 45.1936L32.7994 45.2836V47.7131H37.1395V45.2836L37.4527 45.1936C38.3476 44.9687 39.2425 44.6087 40.0031 44.1138L40.4058 43.9789Z" stroke="#00DCE6"/>
<circle cx="35.0366" cy="35.4979" r="5.78602" stroke="#00DCE6"/>
</svg>
