<svg width="70" height="70" viewBox="0 0 70 70" fill="none" xmlns="http://www.w3.org/2000/svg">
<circle cx="35" cy="35" r="35" fill="#00DCE6" fill-opacity="0.1"/>
<path d="M21.9089 22.9546C21.9089 24.6023 20.6021 25.9091 18.9543 25.9091C17.3066 25.9091 15.9998 24.6023 15.9998 22.9546C15.9998 21.3068 17.3066 20 18.9543 20C20.6021 20 21.9089 21.3068 21.9089 22.9546Z" stroke="#00DCE6"/>
<path d="M37.9545 16.9546C37.9545 18.6023 36.6477 19.9091 35 19.9091C33.3522 19.9091 32.0454 18.6023 32.0454 16.9546C32.0454 15.3068 33.3522 14 35 14C36.6477 14 37.9545 15.3068 37.9545 16.9546Z" stroke="#00DCE6"/>
<path d="M53.9999 22.9546C53.9999 24.6023 52.6931 25.9091 51.0454 25.9091C49.3976 25.9091 48.0908 24.6023 48.0908 22.9546C48.0908 21.3068 49.3976 20 51.0454 20C52.6931 20 53.9999 21.3068 53.9999 22.9546Z" stroke="#00DCE6"/>
<path d="M35 20V24" stroke="#00DCE6"/>
<path d="M21.5 24.96L24.5 27" stroke="#00DCE6"/>
<path d="M49 24.96L46 27" stroke="#00DCE6"/>
<path d="M48.0909 48.0464C48.0909 46.3987 49.3977 45.0919 51.0454 45.0919C52.6932 45.0919 54 46.3987 54 48.0464C54 49.6942 52.6932 51.001 51.0454 51.001C49.3977 51.001 48.0909 49.6942 48.0909 48.0464Z" stroke="#00DCE6"/>
<path d="M32.0452 54.0454C32.0452 52.3977 33.352 51.0909 34.9998 51.0909C36.6475 51.0909 37.9543 52.3977 37.9543 54.0454C37.9543 55.6932 36.6475 57 34.9998 57C33.352 57 32.0452 55.6932 32.0452 54.0454Z" stroke="#00DCE6"/>
<path d="M15.9998 48.0464C15.9998 46.3987 17.3066 45.0919 18.9544 45.0919C20.6021 45.0919 21.9089 46.3987 21.9089 48.0464C21.9089 49.6942 20.6021 51.001 18.9544 51.001C17.3066 51.001 15.9998 49.6942 15.9998 48.0464Z" stroke="#00DCE6"/>
<path d="M34.9998 51.001V47.001" stroke="#00DCE6"/>
<path d="M48.4998 46.04L45.4997 44" stroke="#00DCE6"/>
<path d="M20.9995 46.04L23.9995 44" stroke="#00DCE6"/>
<path d="M50.7408 35.0324C50.5465 34.7085 45.1051 27 34.9998 27C24.8945 27 19.4532 34.7085 19.2589 35.0324L18.9998 35.4211L19.2589 35.8098C19.4532 36.1336 24.8945 43.8422 34.9998 43.8422C45.1051 43.8422 50.5465 36.1336 50.7408 35.8098L50.9999 35.4211L50.7408 35.0324Z" stroke="#00DCE6" stroke-miterlimit="10"/>
<path d="M35 41.8989C38.5776 41.8989 41.4777 38.9987 41.4777 35.4211C41.4777 31.8436 38.5776 28.9434 35 28.9434C31.4224 28.9434 28.5222 31.8436 28.5222 35.4211C28.5222 38.9987 31.4224 41.8989 35 41.8989Z" stroke="#00DCE6" stroke-miterlimit="10"/>
<path d="M34.9998 38.983C36.9674 38.983 38.5626 37.3879 38.5626 35.4202C38.5626 33.4525 36.9674 31.8574 34.9998 31.8574C33.0321 31.8574 31.437 33.4525 31.437 35.4202C31.437 37.3879 33.0321 38.983 34.9998 38.983Z" stroke="#00DCE6" stroke-miterlimit="10"/>
</svg>
