<svg width="113" height="80" viewBox="0 0 113 80" fill="none" xmlns="http://www.w3.org/2000/svg">
<path opacity="0.5" d="M112.676 18.1427L111.987 15.6373L107.766 16.7604C102.339 -0.258954 84.8517 0.00022642 84.6794 0.00022642L84.7655 2.59201C84.7655 2.59201 85.7131 2.59201 87.1776 2.7648L86.833 22.2896L73.4807 25.8317C73.4807 25.2269 73.3946 24.795 73.3946 24.5358C72.5332 14.255 68.3121 8.8123 64.5218 8.7259C62.8851 8.7259 61.4206 9.33065 60.2146 10.6265C58.8363 12.0952 57.2858 15.2054 57.9749 21.4257C58.2333 24.2766 59.0948 27.0412 60.2146 29.3738L44.0196 33.6934L43.1582 35.5077C43.2444 35.6805 45.1395 39.6545 50.825 39.8273C55.2183 39.9137 66.3308 38.6178 66.7615 38.6178L67.5368 36.458C67.5368 36.458 65.6417 34.2982 63.8327 31.1017L70.7242 29.2874C70.5519 33.8662 69.5181 39.5682 67.1061 45.1837C66.5031 45.0109 65.814 44.8381 65.211 44.7517C56.4243 43.283 47.81 45.7884 40.057 49.2442C40.2293 47.5163 40.057 45.8748 39.3679 44.5789C38.3342 42.3327 36.1806 41.0368 33.3378 41.0368C29.9782 41.0368 26.7048 44.0606 23.259 47.2571C19.641 50.6264 15.9368 53.9958 12.3188 53.9958C5.16889 53.9958 1.89544 52.0087 1.89544 52.0087L0.000281284 52.959C0.000281284 53.1318 -0.0858621 56.6739 2.75688 59.5249C5.1689 61.9439 8.95921 63.1534 13.8694 63.067C18.7796 62.9806 24.5512 59.9569 31.2704 56.4148C32.7348 55.6372 34.1993 54.8597 35.7499 54.0821C35.4914 54.4277 35.233 54.7733 34.9746 55.1189C30.6674 60.3024 27.1355 61.4255 27.1355 61.4255L26.2741 62.9806C26.2741 62.9806 27.3078 66.8683 25.4126 71.3607C23.862 75.162 20.0717 77.0626 20.0717 77.0626L18.9519 77.6674L20.0717 80L21.1916 79.3953C21.3639 79.3089 25.8434 77.0626 27.7385 72.3974C29.3752 68.5961 29.2029 65.2268 28.9445 63.499C30.4951 62.7214 33.5101 60.9072 36.9559 56.8467C38.0757 55.4644 38.9372 53.9094 39.5402 52.2679C47.5515 48.553 56.0797 45.6157 64.9525 47.1707C65.3832 47.2571 65.7278 47.3435 66.1585 47.4299C64.608 50.54 62.5405 53.5638 59.8701 56.3284C57.5442 56.0692 55.1322 56.0692 52.7201 56.1556C46.3455 56.4148 38.3342 58.0562 35.0607 61.8575C32.6487 64.7085 32.1318 67.5594 33.6824 69.3737C36.439 72.5702 43.9335 70.756 54.2707 64.1901C56.7689 62.635 59.0086 60.8208 60.9038 59.0065C65.2971 59.5249 69.5181 60.7344 72.5332 62.7214C81.6644 68.5961 89.245 78.7041 89.3312 78.7905L91.657 77.7538C91.5709 77.4946 90.0203 70.2376 86.0577 62.5486C81.7505 54.1685 76.1512 48.4666 69.7766 45.9612C72.6193 39.1362 73.3085 32.6567 73.3946 28.5963L87.3499 24.8814L97.5148 41.0368C96.3088 41.9008 95.4473 42.4191 95.3612 42.5055L96.6534 44.7517C96.8256 44.6653 112.159 35.7669 108.455 19.2658L112.676 18.1427ZM37.3866 50.4537C34.8884 51.6632 32.4764 52.959 30.1505 54.1685C23.6898 57.5379 18.1766 60.3888 13.8694 60.5616C9.64836 60.648 6.63334 59.6977 4.65203 57.797C3.7906 56.9331 3.27374 55.9828 3.01531 55.2053C4.91046 55.8964 8.01163 56.5875 12.405 56.5875C17.0567 56.5875 21.1055 52.7863 25.1542 49.1578C28.0831 46.3932 31.1843 43.6286 33.5101 43.6286C35.3191 43.6286 36.6113 44.3198 37.2143 45.702C37.8173 46.9115 37.8173 48.6394 37.3866 50.4537ZM52.9786 62.0303C42.4691 68.6825 36.8697 69.0281 35.6637 67.7322C35.0607 67.0411 35.5776 65.3132 37.042 63.5854C39.7125 60.4752 47.1208 58.661 54.8737 58.661C55.7352 58.661 56.5105 58.661 57.3719 58.7474C56.0797 59.8705 54.6153 60.9936 52.9786 62.0303ZM87.436 72.4838C84.2487 68.9417 79.4247 64.1037 73.9976 60.648C71.241 58.8338 67.4507 57.5379 63.1435 56.8467C65.5555 54.0821 67.3646 51.2312 68.829 48.3802C79.0801 52.3543 84.8517 64.8813 87.436 72.4838ZM64.1772 36.1988C60.6454 36.5444 53.9262 37.2355 50.9111 37.1492C48.7575 37.0628 47.3792 36.3716 46.604 35.6805L61.3345 31.7928C62.3682 33.607 63.4019 35.0757 64.1772 36.1988ZM62.7128 28.6827C61.6791 26.4364 60.8176 23.8447 60.5592 21.1665C60.1285 17.106 60.7315 13.9959 62.1959 12.4408C62.9712 11.5769 63.8327 11.4041 64.4357 11.4041C64.4357 11.4041 64.4357 11.4041 64.5218 11.4041C66.3308 11.4041 70.035 15.4645 70.8103 24.8814C70.8964 25.3997 70.8964 26.0045 70.8964 26.6092L62.7128 28.6827ZM89.7619 3.28315C94.7582 4.49265 102.253 7.86198 105.354 17.3652L89.4173 21.5984L89.7619 3.28315ZM99.5822 39.2226L90.1065 24.1038L106.043 19.8706C108.024 29.201 103.373 35.6805 99.5822 39.2226Z" fill="#00DCE6"/>
</svg>
