<svg width="216" height="40" viewBox="0 0 216 40" fill="none" xmlns="http://www.w3.org/2000/svg">
<path d="M56.4117 9.02255L56.0667 7.77659L53.9534 8.33512C51.2363 -0.12878 42.4813 0.000112601 42.3951 0.000112601L42.4382 1.28903C42.4382 1.28903 42.9126 1.28903 43.6458 1.37496L43.4733 11.0848L36.7884 12.8463C36.7884 12.5456 36.7453 12.3308 36.7453 12.2019C36.314 7.08917 34.2007 4.38244 32.3031 4.33947C31.4836 4.33947 30.7505 4.64022 30.1467 5.28468C29.4566 6.01507 28.6803 7.56177 29.0253 10.6552C29.1547 12.073 29.586 13.4478 30.1467 14.6079L22.0386 16.7561L21.6073 17.6583C21.6504 17.7442 22.5993 19.7206 25.4457 19.8065C27.6452 19.8495 33.2088 19.205 33.4244 19.205L33.8126 18.1309C33.8126 18.1309 32.8637 17.0568 31.9581 15.4671L35.4083 14.5649C35.322 16.842 34.8045 19.6776 33.5969 22.4703C33.295 22.3843 32.95 22.2984 32.6481 22.2555C28.249 21.5251 23.9362 22.771 20.0547 24.4896C20.141 23.6303 20.0547 22.814 19.7097 22.1695C19.1921 21.0525 18.1139 20.408 16.6907 20.408C15.0087 20.408 13.3698 21.9117 11.6447 23.5014C9.83334 25.177 7.97884 26.8526 6.16746 26.8526C2.58783 26.8526 0.948959 25.8644 0.948959 25.8644L0.000140826 26.337C0.000140826 26.423 -0.0429872 28.1845 1.38024 29.6023C2.58783 30.8053 4.48546 31.4068 6.94376 31.3638C9.40206 31.3209 12.2916 29.8171 15.6556 28.0556C16.3888 27.6689 17.122 27.2822 17.8983 26.8956C17.7689 27.0674 17.6395 27.2393 17.5101 27.4111C15.3537 29.989 13.5855 30.5475 13.5855 30.5475L13.1542 31.3209C13.1542 31.3209 13.6717 33.2542 12.7229 35.4884C11.9466 37.3788 10.049 38.324 10.049 38.324L9.48832 38.6247L10.049 39.7848L10.6097 39.484C10.6959 39.441 12.9386 38.324 13.8874 36.0039C14.7068 34.1135 14.6206 32.4379 14.4912 31.5786C15.2675 31.192 16.777 30.2897 18.5021 28.2704C19.0628 27.583 19.494 26.8096 19.7959 25.9933C23.8068 24.1459 28.0765 22.6851 32.5187 23.4584C32.7344 23.5014 32.9069 23.5444 33.1225 23.5873C32.3462 25.134 31.3111 26.6378 29.9742 28.0126C28.8097 27.8837 27.6021 27.8837 26.3945 27.9267C23.2031 28.0556 19.1921 28.8719 17.5533 30.7623C16.3457 32.1801 16.0869 33.5979 16.8632 34.5002C18.2433 36.0899 21.9955 35.1876 27.1708 31.9223C28.4216 31.149 29.5429 30.2468 30.4917 29.3445C32.6912 29.6023 34.8045 30.2038 36.314 31.192C40.8856 34.1135 44.6808 39.1403 44.724 39.1833L45.8884 38.6677C45.8453 38.5388 45.069 34.9298 43.0851 31.106C40.9287 26.9385 38.1254 24.1029 34.9339 22.8569C36.3571 19.4628 36.7021 16.2405 36.7453 14.2212L43.732 12.3737L48.8211 20.408C48.2173 20.8376 47.7861 21.0954 47.7429 21.1384L48.3899 22.2555C48.4761 22.2125 56.1529 17.7872 54.2984 9.58108L56.4117 9.02255ZM18.7177 25.0911C17.467 25.6926 16.2594 26.337 15.095 26.9385C11.8604 28.6141 9.10017 30.0319 6.94376 30.1179C4.83049 30.1608 3.321 29.6882 2.32906 28.743C1.89778 28.3134 1.63901 27.8408 1.50962 27.4541C2.45844 27.7978 4.01105 28.1415 6.21059 28.1415C8.5395 28.1415 10.5665 26.2511 12.5935 24.4466C14.0599 23.0718 15.6125 21.6969 16.777 21.6969C17.6827 21.6969 18.3296 22.0406 18.6315 22.7281C18.9334 23.3296 18.9334 24.1888 18.7177 25.0911ZM26.5239 30.8482C21.2623 34.1565 18.459 34.3283 17.8552 33.6839C17.5533 33.3402 17.812 32.4809 18.5452 31.6216C19.8822 30.0749 23.5912 29.1727 27.4727 29.1727C27.904 29.1727 28.2922 29.1727 28.7234 29.2156C28.0765 29.7741 27.3433 30.3327 26.5239 30.8482ZM43.7752 36.0469C42.1794 34.2854 39.7642 31.8794 37.0472 30.1608C35.6671 29.2586 33.7694 28.6141 31.613 28.2704C32.8206 26.8956 33.7263 25.4778 34.4595 24.0599C39.5917 26.0363 42.4813 32.2661 43.7752 36.0469ZM32.1306 18.002C30.3623 18.1739 26.9983 18.5176 25.4888 18.4746C24.4106 18.4317 23.7206 18.0879 23.3324 17.7442L30.7073 15.8109C31.2249 16.7131 31.7424 17.4435 32.1306 18.002ZM31.3974 14.2642C30.8799 13.1471 30.4486 11.8582 30.3192 10.5263C30.1035 8.50698 30.4054 6.96028 31.1386 6.18692C31.5268 5.75729 31.9581 5.67136 32.26 5.67136C32.26 5.67136 32.26 5.67136 32.3031 5.67136C33.2088 5.67136 35.0633 7.69066 35.4514 12.3737C35.4946 12.6315 35.4946 12.9323 35.4946 13.233L31.3974 14.2642ZM44.9396 1.63274C47.441 2.23424 51.1932 3.90983 52.7458 8.63587L44.7671 10.7411L44.9396 1.63274ZM49.8562 19.5058L45.1121 11.9871L53.0908 9.88183C54.0828 14.5219 51.7538 17.7442 49.8562 19.5058Z" fill="white"/>
<path d="M95.9608 37.809C94.9689 38.5394 91.9499 39.1409 89.1035 39.1409C83.7556 39.1409 73.9224 34.5867 73.9224 23.502C73.9224 21.0101 74.138 18.733 75.0006 16.6707C75.8631 14.6085 76.8551 13.2336 78.192 11.644C81.6854 7.56238 86.257 6.44531 90.8717 6.44531C95.5727 6.44531 100.274 9.19501 102.301 11.8158C101.611 12.4173 98.3329 14.8233 98.3329 14.8233C97.0822 13.7922 94.8826 11.3432 90.6992 11.3432C86.3433 11.3432 83.4968 13.1477 82.4186 14.3077C81.3835 15.4677 80.1759 17.0145 79.5721 18.5612C79.0115 20.1079 78.7096 21.7405 78.7096 23.459C78.7096 27.1969 82.8068 34.0711 89.1466 34.0711C90.958 34.0711 92.985 33.9852 93.7613 33.5556L95.9608 37.809Z" fill="white"/>
<path d="M125.59 18.1743C125.633 18.7328 125.676 20.2795 125.676 20.7091C125.676 20.7091 125.978 20.5802 126.452 20.0647C126.927 19.5921 127.444 19.1195 128.048 18.7758C128.652 18.3891 129.299 18.1313 130.032 17.9165C130.765 17.7017 132.663 17.6157 133.439 17.6157C138.787 17.6157 140.642 21.8262 140.642 26.2515L140.771 39.4414H136.027V27.6263C136.027 22.9862 133.396 21.8692 131.153 21.8692C129.471 21.8692 128.005 22.3418 127.099 23.7166C126.107 25.2203 125.978 27.9271 125.978 30.0323V39.4414H121.363V18.0883L125.59 18.1743Z" fill="white"/>
<path d="M154.787 21.9545H150.302V32.6955C150.302 33.9844 150.474 34.414 150.906 34.9726C151.466 35.7029 155.477 35.2303 155.822 35.0585L155.952 39.183C155.434 39.3549 154.528 39.4838 153.925 39.6127C153.321 39.6986 152.674 39.7845 152.027 39.7845C150 39.7845 148.102 39.226 147.067 38.1089C145.989 36.9919 145.471 35.3592 145.471 33.1251V21.9545H142.625V18.2166H145.471V12.0728H150.302V18.1736H154.787V21.9545Z" fill="white"/>
<path d="M171.219 22.5136C170.313 21.6973 169.192 21.4825 167.596 21.4825C166.388 21.4825 165.267 21.8262 164.318 22.4707C163.456 23.0292 162.981 23.7596 162.162 24.7477L158.539 22.4277C160.221 19.2054 162.507 17.6157 168.027 17.6157C169.537 17.6157 171.736 17.6587 173.806 19.2054C175.618 20.5373 176.739 22.5136 176.739 26.2085V39.5273H172.038C172.038 39.5273 172.211 37.7658 172.211 36.7777C172.211 36.7777 171.176 38.4103 169.968 39.0547C168.804 39.6992 167.38 40 165.741 40C164.922 40 164.016 39.8711 163.111 39.6562C162.205 39.4414 161.342 39.0547 160.609 38.5392C159.876 38.0236 159.229 37.3792 158.755 36.5199C158.28 35.7036 158.021 34.6724 158.021 33.4265C158.021 31.7938 158.367 30.1612 159.229 29.216C160.092 28.2708 161.127 27.5834 162.55 27.0678C163.973 26.5952 165.526 26.2085 167.294 26.0796C169.062 25.9507 170.442 25.8218 172.211 25.8218C172.211 25.8218 172.34 23.5877 171.219 22.5136ZM169.925 29.6027C168.804 29.6027 166.475 29.9034 165.569 30.1612C164.663 30.419 162.679 31.4072 162.679 33.1687C162.679 35.5747 165.785 35.8324 166.345 35.8324C168.027 35.8324 169.795 35.2309 170.874 34.028C171.952 32.8679 172.211 31.2783 172.211 30.3331V29.5597C172.168 29.6027 171.305 29.6027 169.925 29.6027Z" fill="white"/>
<path d="M194.465 39.4415V36.5199C193.862 37.4651 193.344 38.0237 192.05 38.797C190.756 39.5704 189.376 40 187.78 40C183.942 40 182.26 38.3674 181.613 37.5511C180.966 36.7777 179.802 35.1021 179.802 31.3643V18.1743H184.632V29.9035C184.632 30.7628 184.675 32.4384 184.934 33.0828C185.236 33.8562 186.185 35.5318 189.117 35.5318C192.956 35.5318 194.207 31.5361 194.207 29.4309L194.163 18.1313H198.864L199.037 39.3985H194.465V39.4415Z" fill="white"/>
<path d="M202.487 18.1742H206.843C206.843 18.1742 206.886 21.1817 206.886 21.6114C206.886 21.6114 208.309 19.5061 209.43 18.7328C210.552 17.9594 211.889 17.5728 213.312 17.5728C213.959 17.5728 214.563 17.6587 215.21 17.6157L215.339 22.2988C215.339 22.2988 213.873 22.2129 212.881 22.2129C211.846 22.2129 210.422 22.4706 209.301 23.3299C207.921 24.3611 207.145 26.3804 207.145 28.3137L207.188 39.3985H202.659C202.659 39.4414 202.53 18.8617 202.487 18.1742Z" fill="white"/>
<path d="M72.8867 26.5515C72.8867 26.5515 72.973 27.6686 73.1886 28.4419C73.3611 29.2153 74.0512 30.2464 74.0512 30.2464H64.0886V32.5235L60.4658 28.356L63.9592 24.2744V26.5515H72.8867Z" fill="white"/>
<path d="M118.646 24.0174C118.172 22.6425 117.482 21.4825 116.576 20.5373C115.67 19.5921 114.592 18.8617 113.341 18.3461C112.048 17.8305 110.624 17.5728 109.072 17.5728C107.519 17.5728 105.751 17.8735 104.371 18.432C103.034 18.9906 102.085 19.5921 101.093 20.5802C100.101 21.5684 99.411 22.9003 98.8503 24.2751C98.5484 25.0485 98.3328 25.8648 98.2034 26.7241H80.9521C80.9521 26.7241 81.1247 27.4974 81.5128 28.3137C81.901 29.173 82.8498 30.1182 82.8498 30.1182H98.074C98.2034 31.2783 98.4622 32.3953 98.8503 33.3835C99.411 34.7583 100.187 35.9184 101.179 36.9065C102.171 37.8947 103.336 38.6251 104.716 39.1836C106.096 39.7422 107.605 39.9999 109.201 39.9999C111.099 39.9999 112.867 39.5273 114.333 38.9258C115.412 38.4962 116.878 37.2932 117.611 36.6058L115.455 32.9968C114.204 34.5865 111.056 35.8324 109.158 35.8324C105.449 35.8324 102.602 33.1687 102.559 30.1182H118.732L118.603 30.0323H119.164C119.207 29.7745 119.207 29.5597 119.207 29.3019C119.207 29.0441 119.207 28.8293 119.207 28.5715C119.336 26.9389 119.121 25.3922 118.646 24.0174ZM102.818 26.6382C102.818 24.3181 105.578 21.3965 108.856 21.3965C112.177 21.3965 114.247 24.3181 114.247 26.767L102.818 26.6382Z" fill="white"/>
</svg>
