<svg width="140" height="40" viewBox="0 0 140 40" fill="none" xmlns="http://www.w3.org/2000/svg">
<path fill-rule="evenodd" clip-rule="evenodd" d="M34.3982 1.14471V24.7859C34.3982 28.2119 37.1666 30.9803 40.5845 30.9803V39.9838C35.2425 39.9838 30.5338 37.191 27.8547 33.0099C28.2362 32.4498 28.561 31.8328 28.8533 31.2157L26.986 31.4512C27.2377 31.9951 27.5299 32.5228 27.8547 33.0262C25.1756 37.2072 20.4668 40 15.1248 40C6.79521 40 0 33.2048 0 24.8752C0 16.5456 6.79521 9.75036 15.1248 9.75036C19.1273 9.75036 22.7725 11.301 25.4678 13.8583V15.5632L27.2052 15.7824C26.6775 15.0923 26.1011 14.4591 25.4678 13.8583V8.91415C25.4678 8.0617 23.6412 6.86828 23.6412 6.86828V4.66004L32.531 0L34.3982 1.14471ZM30.0467 22.3584C29.9411 21.7739 29.8112 21.2137 29.6489 20.6535L25.4841 21.1812V21.8307L30.0467 22.3584ZM25.4678 19.0867V19.7361L29.5271 20.2233C29.3485 19.6793 29.1455 19.1516 28.9101 18.6483L25.4678 19.0867ZM30.2334 24.4611C30.2334 23.8604 30.1766 23.2596 30.0873 22.6832L25.4678 23.2677V23.9172L30.2334 24.4611ZM30.2496 24.8752V24.7696L25.4922 25.3623C25.4922 25.5734 25.5084 25.7926 25.5247 26.0118L30.1603 26.5395C30.2172 25.9955 30.2496 25.4354 30.2496 24.8752ZM29.795 28.5772C29.9411 28.017 30.0467 27.4488 30.1197 26.8723L25.6789 27.4325C25.7073 27.5502 25.7297 27.668 25.752 27.7857C25.7743 27.9034 25.7966 28.0211 25.825 28.1388L29.795 28.5772ZM27.8905 16.7768C27.8731 16.7484 27.8558 16.72 27.8384 16.6917L25.4841 17.0002V17.6497L28.6178 18.0313C28.3976 17.606 28.1419 17.1879 27.8905 16.7768ZM7.7126 24.8752C7.7126 28.975 11.0331 32.2874 15.1248 32.2874C19.2166 32.2874 22.537 28.9669 22.537 24.8752C22.537 20.7753 19.2247 17.463 15.1248 17.463C11.025 17.463 7.7126 20.7834 7.7126 24.8752ZM26.1904 29.4378C26.2797 29.7301 26.3771 30.0223 26.4826 30.2902L29.1212 30.5581C29.3404 30.0467 29.519 29.5271 29.6651 28.9994L26.1904 29.4378Z" fill="white"/>
<path d="M86.2438 12.3152L77.3681 39.6852H69.0789L63.8395 23.0286L58.3655 39.6852H50.0763L41.2006 12.3152H49.177L54.6901 29.7929L60.4769 12.3152H67.5931L73.1062 29.9493L78.8539 12.3152H86.2438Z" fill="white"/>
<path fill-rule="evenodd" clip-rule="evenodd" d="M105.228 34.3676H93.6545L91.504 39.6852H83.6058L95.6877 12.3152H103.312L115.433 39.6852H107.379L105.228 34.3676ZM102.96 28.659L99.4413 19.9006L95.9223 28.659H102.96Z" fill="white"/>
<path d="M129.399 39.6852V29.8711L139.878 12.3152H132.371L125.88 23.185L119.39 12.3152H111.218L121.657 29.7538V39.6852H129.399Z" fill="white"/>
</svg>
