<svg width="70" height="70" viewBox="0 0 70 70" fill="none" xmlns="http://www.w3.org/2000/svg">
<circle cx="35" cy="35" r="35" fill="#1F2432"/>
<path d="M38.7855 36.5457L38.7855 36.5457L38.7832 36.5479C38.0762 37.2212 37.0224 37.6012 35.6012 37.7052L35.4853 37.7137V37.8299V39.8776H34.5438V37.8649V37.7447L34.4237 37.74C33.5257 37.7055 32.6628 37.5329 31.8345 37.2222L31.8345 37.2222L31.8301 37.2207C31.0431 36.9584 30.4476 36.6037 29.9809 36.1879L30.5702 34.9502C31.0141 35.3319 31.5496 35.6506 32.2023 35.8794C32.9164 36.1647 33.6289 36.3066 34.4075 36.3774L34.5438 36.3898V36.2529V31.8725V31.7739L34.448 31.7509C33.5779 31.5421 32.8481 31.2987 32.2587 31.056C31.684 30.8194 31.2105 30.4476 30.8376 29.973C30.4723 29.5081 30.2685 28.9059 30.2685 28.1228C30.2685 27.1756 30.6051 26.3673 31.3161 25.6902C32.0238 25.0161 33.0434 24.6367 34.4282 24.5328L34.5438 24.5241V24.4082V22.3955H35.4853V24.4082V24.5271L35.6041 24.533C36.2963 24.5676 36.9867 24.6713 37.6762 24.8781C38.2983 25.0746 38.8497 25.2993 39.3083 25.608L38.7436 26.8563C37.7456 26.2615 36.6813 25.929 35.5831 25.8604L35.4503 25.8521V25.9851V30.4006V30.5001L35.5472 30.5224C36.453 30.7315 37.2173 30.9749 37.8055 31.2171C38.3835 31.4551 38.8577 31.794 39.2651 32.2692C39.6622 32.7325 39.8658 33.3323 39.8658 34.1153C39.8658 35.0956 39.4957 35.9032 38.7855 36.5457ZM34.3509 30.2058L34.5088 30.2489V30.0852V26.0202V25.8778L34.3676 25.8962C33.5453 26.0035 32.9251 26.2554 32.4815 26.625L32.4812 26.6246L32.4731 26.6327C32.0683 27.0375 31.8408 27.4885 31.8408 28.0878C31.8408 28.6503 32.068 29.1108 32.5243 29.4164C32.9634 29.7447 33.576 29.9945 34.3509 30.2058ZM35.6056 32.0666L35.4503 32.0278V32.1879V36.2529V36.3938L35.5902 36.377C36.4752 36.2708 37.1347 36.0565 37.5827 35.6831C38.0325 35.3083 38.2585 34.8172 38.2585 34.2204C38.2585 33.6228 38.0309 33.1595 37.5351 32.8536C37.0998 32.5638 36.4555 32.2791 35.6056 32.0666Z" fill="white" stroke="#1F2432" stroke-width="0.25" stroke-miterlimit="10"/>
<path d="M45.0771 17V36.2779H50.5854L34.7927 52L19 36.2779H24.5083V17" stroke="white" stroke-miterlimit="10"/>
</svg>
