<svg width="70" height="70" viewBox="0 0 70 70" fill="none" xmlns="http://www.w3.org/2000/svg">
<circle cx="35" cy="35" r="35" fill="#1F2432"/>
<g clip-path="url(#clip0)">
<path d="M30.5884 30.7005C30.1002 30.7005 29.7061 30.3065 29.7061 29.8185V28.0544C29.7061 27.0488 32.6237 25.4082 35.0002 25.4082C37.3825 25.4082 40.2943 27.0488 40.2943 28.0544V29.8185C40.2943 30.3065 39.9002 30.7005 39.4119 30.7005H30.5884Z" stroke="white" stroke-miterlimit="10"/>
<path d="M35.0001 25.4084C37.1236 25.4084 38.5295 23.7149 38.5295 21.6273V20.369C38.5295 18.2814 37.1236 16.5879 35.0001 16.5879C32.8766 16.5879 31.4707 18.2814 31.4707 20.369V21.6273C31.4707 23.7149 32.8766 25.4084 35.0001 25.4084Z" stroke="white" stroke-miterlimit="10"/>
<path d="M30.5884 53.6341C30.1002 53.6341 29.7061 53.2401 29.7061 52.7521V50.988C29.7061 49.9824 32.6237 48.3418 35.0002 48.3418C37.3825 48.3418 40.2943 49.9824 40.2943 50.988V52.7521C40.2943 53.2401 39.9002 53.6341 39.4119 53.6341H30.5884Z" stroke="white" stroke-miterlimit="10"/>
<path d="M35.0001 48.342C37.1236 48.342 38.5295 46.6485 38.5295 44.5609V43.3025C38.5295 41.215 37.1236 39.5215 35.0001 39.5215C32.8766 39.5215 31.4707 41.215 31.4707 43.3025V44.5609C31.4707 46.6485 32.8766 48.342 35.0001 48.342Z" stroke="white" stroke-miterlimit="10"/>
<path d="M16.4702 43.0491C15.982 43.0491 15.5879 42.6552 15.5879 42.1671V40.403C15.5879 39.3975 18.5055 37.7568 20.882 37.7568C23.2644 37.7568 26.1761 39.3975 26.1761 40.403V42.1671C26.1761 42.6552 25.782 43.0491 25.2938 43.0491H16.4702Z" stroke="white" stroke-miterlimit="10"/>
<path d="M20.882 37.757C23.0055 37.757 24.4114 36.0635 24.4114 33.976V32.7176C24.4114 30.6301 23.0055 28.9365 20.882 28.9365C18.7584 28.9365 17.3525 30.6301 17.3525 32.7176V33.976C17.3525 36.0635 18.7584 37.757 20.882 37.757Z" stroke="white" stroke-miterlimit="10"/>
<path d="M44.7056 43.0491C44.2174 43.0491 43.8232 42.6552 43.8232 42.1671V40.403C43.8232 39.3975 46.7409 37.7568 49.1174 37.7568C51.4997 37.7568 54.4115 39.3975 54.4115 40.403V42.1671C54.4115 42.6552 54.0174 43.0491 53.5291 43.0491H44.7056Z" stroke="white" stroke-miterlimit="10"/>
<path d="M49.1173 37.757C51.2408 37.757 52.6467 36.0635 52.6467 33.976V32.7176C52.6467 30.6301 51.2408 28.9365 49.1173 28.9365C46.9938 28.9365 45.5879 30.6301 45.5879 32.7176V33.976C45.5879 36.0635 46.9938 37.757 49.1173 37.757Z" stroke="white" stroke-miterlimit="10"/>
<path d="M21.3291 26.2905C23.1938 23.6737 25.7938 21.6097 28.8232 20.4102" stroke="white" stroke-miterlimit="10"/>
<path d="M27.0585 50.7583C24.782 49.5293 22.8173 47.7946 21.3291 45.6953" stroke="white" stroke-miterlimit="10"/>
<path d="M48.6709 26.2905C46.8062 23.6737 44.2062 21.6097 41.1768 20.4102" stroke="white" stroke-miterlimit="10"/>
<path d="M42.9414 50.7583C45.2179 49.5293 47.1826 47.7946 48.6708 45.6953" stroke="white" stroke-miterlimit="10"/>
</g>
<defs>
<clipPath id="clip0">
<rect width="40" height="38.2222" fill="white" transform="translate(15 16)"/>
</clipPath>
</defs>
</svg>
