<svg width="70" height="70" viewBox="0 0 70 70" fill="none" xmlns="http://www.w3.org/2000/svg">
<circle cx="35" cy="35" r="35" fill="#1F2432"/>
<path d="M35 34L37.8467 40.9133L45 41.3867L39.6067 46.42L41.18 53.3333L35 49.82L28.82 53.3333L30.3933 46.42L25 41.3867L32.1533 40.9133L35 34Z" stroke="white" stroke-miterlimit="10" stroke-linejoin="round"/>
<path d="M27.6667 37.88L25.3667 37.72L23.0667 32L20.7733 37.72L15 38.1133L19.3533 42.28L18.08 48L23.0667 45.0933L25.86 46.72" stroke="white" stroke-miterlimit="10" stroke-linecap="round" stroke-linejoin="round"/>
<path d="M42.333 37.88L44.633 37.72L46.933 32L49.2263 37.72L54.9997 38.1133L50.6463 42.28L51.9197 48L46.933 45.0933L44.1397 46.72" stroke="white" stroke-miterlimit="10" stroke-linecap="round" stroke-linejoin="round"/>
<path d="M41.6663 34.6669V30.0002C41.6663 28.6602 37.993 26.7402 34.9997 26.7402C31.9997 26.7402 28.333 28.6602 28.333 30.0002V34.6669" stroke="white" stroke-miterlimit="10" stroke-linecap="round"/>
<path d="M35.0003 16C33.2737 16 31.667 17.2867 31.667 18.88V21.12C31.667 22.7133 33.2737 24 35.0003 24C36.727 24 38.3337 22.7133 38.3337 21.12V18.88C38.3337 17.2867 36.727 16 35.0003 16Z" stroke="white" stroke-miterlimit="10"/>
</svg>
