<svg width="70" height="70" viewBox="0 0 70 70" fill="none" xmlns="http://www.w3.org/2000/svg">
<circle cx="35" cy="35" r="35" fill="#1F2432"/>
<g clip-path="url(#clip0)">
<path d="M31.6621 38.6396V39.4719C31.6621 40.3874 32.4112 41.1365 33.3267 41.1365H36.6559C37.5714 41.1365 38.3205 40.3874 38.3205 39.4719V37.3412C38.3205 36.6254 37.8627 35.9846 37.1802 35.7599L32.8023 34.8527C32.1199 34.6279 31.6621 33.9871 31.6621 33.2713V31.149C31.6621 30.2334 32.4112 29.4844 33.3267 29.4844H36.6559C37.5714 29.4844 38.3205 30.2334 38.3205 31.149V32.8135" stroke="white" stroke-miterlimit="10"/>
<path d="M34.9912 29.4844V26.1553" stroke="white" stroke-miterlimit="10"/>
<path d="M34.9912 41.1367V44.4659" stroke="white" stroke-miterlimit="10"/>
<path d="M27.4926 46.2628C24.9208 44.2736 23.2562 41.1526 23.2562 37.6403C23.2562 35.8675 23.7056 34.1613 24.463 32.6798L26.6686 34.4776L27.709 22.7256L16.7061 26.4293L19.0115 28.2853C18.0544 30.4409 17.5134 32.813 17.5134 35.3099C17.5134 44.9645 25.3369 52.788 34.9915 52.788" stroke="white" stroke-miterlimit="10"/>
<path d="M42.5068 24.3572C45.0786 26.3464 46.7431 29.4675 46.7431 32.9798C46.7431 34.7525 46.2937 36.4587 45.5363 37.9402L43.3391 36.1425L42.2987 47.8944L53.3016 44.1907L50.9962 42.3347C51.945 40.1874 52.486 37.8154 52.486 35.3102C52.486 25.6556 44.6624 17.832 35.0078 17.832" stroke="white" stroke-miterlimit="10"/>
</g>
<defs>
<clipPath id="clip0">
<rect width="40" height="36.6209" fill="white" transform="translate(15 17)"/>
</clipPath>
</defs>
</svg>
