<svg width="70" height="70" viewBox="0 0 70 70" fill="none" xmlns="http://www.w3.org/2000/svg">
<circle cx="35" cy="35" r="35" fill="#1F2432"/>
<path d="M22.1602 35.4223L25.4443 22.7215C25.901 21.3073 27.6668 20.5057 29.3335 20.9607L33.2577 22.0315" stroke="white" stroke-miterlimit="10" stroke-linejoin="round"/>
<path d="M32.9814 25.8346C36.1639 22.5871 38.7231 21.2879 40.1748 21.0513C41.9164 20.7671 43.2848 21.3113 43.7614 22.7571L47.1023 35.3438" stroke="white" stroke-miterlimit="10" stroke-linejoin="round"/>
<path d="M15 35.833H55" stroke="white" stroke-miterlimit="10" stroke-linejoin="round"/>
<path d="M42.5 49.167C45.2614 49.167 47.5 46.9284 47.5 44.167C47.5 41.4056 45.2614 39.167 42.5 39.167C39.7386 39.167 37.5 41.4056 37.5 44.167C37.5 46.9284 39.7386 49.167 42.5 49.167Z" stroke="white" stroke-miterlimit="10" stroke-linejoin="round"/>
<path d="M27.5 49.167C30.2614 49.167 32.5 46.9284 32.5 44.167C32.5 41.4056 30.2614 39.167 27.5 39.167C24.7386 39.167 22.5 41.4056 22.5 44.167C22.5 46.9284 24.7386 49.167 27.5 49.167Z" stroke="white" stroke-miterlimit="10" stroke-linejoin="round"/>
<path d="M32.5 42.4997L35 40.833L37.5 42.4997" stroke="white" stroke-miterlimit="10" stroke-linejoin="round"/>
</svg>
