<svg width="65" height="65" viewBox="0 0 65 65" fill="none" xmlns="http://www.w3.org/2000/svg">
<path d="M55.2045 0H0V54.9479C6.91579 61.1956 16.0812 65 26.1351 65C46.573 65 63.3391 49.2789 65 29.2698V22.7302C64.2777 14.0293 60.6992 6.13916 55.2045 0Z" fill="#00DCE6" fill-opacity="0.1"/>
<path d="M48.4258 5.42529H48.9258V4.92529H48.4258V5.42529ZM5.42578 5.42529V4.92529H4.92578V5.42529H5.42578ZM48.4258 48.4253V48.9253H48.9258V48.4253H48.4258ZM5.42578 48.4253H4.92578V48.9253H5.42578V48.4253ZM45.0489 24.3378H45.5489V23.8378H45.0489V24.3378ZM41.3569 24.3378L40.8646 24.4257L40.9382 24.8378H41.3569V24.3378ZM38.9629 18.5552L38.6094 18.2017L38.3124 18.4986L38.5536 18.8424L38.9629 18.5552ZM41.5676 15.9506L41.9211 16.3041L42.2747 15.9506L41.9211 15.597L41.5676 15.9506ZM37.9093 12.2922L38.2628 11.9387L37.9093 11.5851L37.5557 11.9387L37.9093 12.2922ZM35.3046 14.8969L35.0184 15.3069L35.3619 15.5467L35.6581 15.2504L35.3046 14.8969ZM29.522 12.5029H29.022V12.9213L29.4338 12.9951L29.522 12.5029ZM29.522 8.80246H30.022V8.30246H29.522V8.80246ZM24.3464 8.80246V8.30246H23.8464V8.80246H24.3464ZM24.3464 12.4945L24.4343 12.9867L24.8464 12.9131V12.4945H24.3464ZM18.5639 14.8885L18.2103 15.242L18.5072 15.5389L18.851 15.2978L18.5639 14.8885ZM15.9592 12.2838L16.3128 11.9302L15.9592 11.5767L15.6056 11.9302L15.9592 12.2838ZM12.3009 15.9421L11.9473 15.5886L11.5938 15.9421L11.9473 16.2957L12.3009 15.9421ZM14.9055 18.5468L15.3155 18.833L15.5553 18.4895L15.2591 18.1932L14.9055 18.5468ZM12.5116 24.3293V24.8293H12.9299L13.0037 24.4176L12.5116 24.3293ZM8.80268 24.3293V23.8293H8.30268V24.3293H8.80268ZM8.80268 29.505H8.30268V30.005H8.80268V29.505ZM12.4947 29.505L12.987 29.4171L12.9134 29.005H12.4947V29.505ZM14.8887 35.2875L15.2422 35.6411L15.5392 35.3441L15.298 35.0004L14.8887 35.2875ZM12.284 37.8922L11.9304 37.5386L11.5769 37.8922L11.9304 38.2457L12.284 37.8922ZM15.9423 41.5505L15.5888 41.9041L15.9423 42.2576L16.2959 41.9041L15.9423 41.5505ZM18.547 38.9458L18.8332 38.5358L18.4897 38.2961L18.1935 38.5923L18.547 38.9458ZM24.3296 41.3398H24.8296V40.9214L24.4178 40.8476L24.3296 41.3398ZM24.3296 45.0487H23.8296V45.5487H24.3296V45.0487ZM29.5052 45.0487V45.5487H30.0052V45.0487H29.5052ZM29.5052 41.3566L29.4173 40.8644L29.0052 40.938V41.3566H29.5052ZM35.2877 38.9627L35.6413 38.6091L35.3443 38.3122L35.0006 38.5534L35.2877 38.9627ZM37.8924 41.5674L37.5388 41.9209L37.8924 42.2745L38.2459 41.9209L37.8924 41.5674ZM41.5507 37.909L41.9043 38.2626L42.2578 37.909L41.9043 37.5555L41.5507 37.909ZM38.9461 35.3044L38.5361 35.0182L38.2963 35.3617L38.5925 35.6579L38.9461 35.3044ZM41.34 29.5218V29.0218H40.9217L40.8478 29.4336L41.34 29.5218ZM45.0489 29.5218V30.0218H45.5489V29.5218H45.0489ZM25.2399 30.7192L24.8863 31.0727L25.2613 31.4477L25.6136 31.0514L25.2399 30.7192ZM48.9258 12.2118V5.42529H47.9258V12.2118H48.9258ZM48.4258 4.92529H41.6393V5.92529H48.4258V4.92529ZM12.2123 4.92529H5.42578V5.92529H12.2123V4.92529ZM4.92578 5.42529V12.2118H5.92578V5.42529H4.92578ZM41.6393 48.9253H48.4258V47.9253H41.6393V48.9253ZM48.9258 48.4253V41.6388H47.9258V48.4253H48.9258ZM4.92578 41.6388V48.4253H5.92578V41.6388H4.92578ZM5.42578 48.9253H12.2123V47.9253H5.42578V48.9253ZM45.0489 23.8378H41.3569V24.8378H45.0489V23.8378ZM41.8491 24.2499C41.457 22.0542 40.6027 20.0221 39.3722 18.2681L38.5536 18.8424C39.7002 20.4769 40.4981 22.3729 40.8646 24.4257L41.8491 24.2499ZM39.3165 18.9088L41.9211 16.3041L41.214 15.597L38.6094 18.2017L39.3165 18.9088ZM41.9211 15.597L38.2628 11.9387L37.5557 12.6458L41.214 16.3041L41.9211 15.597ZM37.5557 11.9387L34.951 14.5433L35.6581 15.2504L38.2628 12.6458L37.5557 11.9387ZM35.5908 14.4869C33.8291 13.2572 31.7976 12.4029 29.6103 12.0108L29.4338 12.9951C31.4781 13.3616 33.3746 14.1595 35.0184 15.3069L35.5908 14.4869ZM30.022 12.5029V8.80246H29.022V12.5029H30.022ZM29.522 8.30246H24.3464V9.30246H29.522V8.30246ZM23.8464 8.80246V12.4945H24.8464V8.80246H23.8464ZM24.2585 12.0023C22.0629 12.3944 20.0308 13.2487 18.2767 14.4791L18.851 15.2978C20.4856 14.1512 22.3816 13.3533 24.4343 12.9867L24.2585 12.0023ZM18.9174 14.5349L16.3128 11.9302L15.6056 12.6373L18.2103 15.242L18.9174 14.5349ZM15.6056 11.9302L11.9473 15.5886L12.6544 16.2957L16.3128 12.6373L15.6056 11.9302ZM11.9473 16.2957L14.552 18.9003L15.2591 18.1932L12.6544 15.5886L11.9473 16.2957ZM14.4955 18.2606C13.2658 20.0223 12.4116 22.0538 12.0194 24.2411L13.0037 24.4176C13.3702 22.3733 14.1681 20.4767 15.3155 18.833L14.4955 18.2606ZM12.5116 23.8293H8.80268V24.8293H12.5116V23.8293ZM8.30268 24.3293V29.505H9.30268V24.3293H8.30268ZM8.80268 30.005H12.4947V29.005H8.80268V30.005ZM12.0025 29.5929C12.3946 31.7885 13.2489 33.8206 14.4793 35.5746L15.298 35.0004C14.1514 33.3658 13.3535 31.4698 12.987 29.4171L12.0025 29.5929ZM14.5351 34.9339L11.9304 37.5386L12.6376 38.2457L15.2422 35.6411L14.5351 34.9339ZM11.9304 38.2457L15.5888 41.9041L16.2959 41.197L12.6376 37.5386L11.9304 38.2457ZM16.2959 41.9041L18.9006 39.2994L18.1935 38.5923L15.5888 41.197L16.2959 41.9041ZM18.2608 39.3558C20.0225 40.5855 22.054 41.4398 24.2413 41.8319L24.4178 40.8476C22.3735 40.4811 20.477 39.6832 18.8332 38.5358L18.2608 39.3558ZM23.8296 41.3398V45.0487H24.8296V41.3398H23.8296ZM24.3296 45.5487H29.5052V44.5487H24.3296V45.5487ZM30.0052 45.0487V41.3566H29.0052V45.0487H30.0052ZM29.5931 41.8489C31.7887 41.4568 33.8208 40.6025 35.5749 39.372L35.0006 38.5534C33.366 39.7 31.47 40.4979 29.4173 40.8644L29.5931 41.8489ZM34.9342 39.3163L37.5388 41.9209L38.2459 41.2138L35.6413 38.6091L34.9342 39.3163ZM38.2459 41.9209L41.9043 38.2626L41.1972 37.5555L37.5388 41.2138L38.2459 41.9209ZM41.9043 37.5555L39.2996 34.9508L38.5925 35.6579L41.1972 38.2626L41.9043 37.5555ZM39.3561 35.5905C40.5858 33.8288 41.44 31.7973 41.8322 29.6101L40.8478 29.4336C40.4813 31.4778 39.6834 33.3744 38.5361 35.0182L39.3561 35.5905ZM41.34 30.0218H45.0489V29.0218H41.34V30.0218ZM21.5146 27.701L24.8863 31.0727L25.5934 30.3656L22.2217 26.9939L21.5146 27.701ZM25.6136 31.0514L32.3571 23.4649L31.6097 22.8006L24.8662 30.387L25.6136 31.0514ZM24.1253 17.0119C25.0234 16.7473 25.9536 16.6108 26.9258 16.6108V15.6108C25.8581 15.6108 24.8327 15.7609 23.8427 16.0527L24.1253 17.0119ZM26.9258 16.6108C32.6422 16.6108 37.2407 21.2331 37.2407 26.9257H38.2407C38.2407 20.6823 33.196 15.6108 26.9258 15.6108V16.6108ZM37.2407 26.9257C37.2407 32.618 32.634 37.2405 26.9258 37.2405V38.2405C33.1873 38.2405 38.2407 33.1693 38.2407 26.9257H37.2407ZM26.9258 37.2405C21.234 37.2405 16.611 32.6175 16.611 26.9257H15.611C15.611 33.1698 20.6817 38.2405 26.9258 38.2405V37.2405ZM16.611 26.9257C16.611 25.7462 16.8195 24.6117 17.1831 23.5372L16.2358 23.2167C15.8408 24.3843 15.611 25.6269 15.611 26.9257H16.611ZM45.5489 29.5218V24.3378H44.5489V29.5218H45.5489Z" fill="#00DCE6"/>
</svg>
