<svg width="65" height="65" viewBox="0 0 65 65" fill="none" xmlns="http://www.w3.org/2000/svg">
<path d="M55.0694 0H0V55.0694C6.89983 61.2449 16.0114 65 26 65C47.5391 65 65 47.5391 65 26C65 16.0114 61.2449 6.89983 55.0694 0Z" fill="#00DCE6" fill-opacity="0.1"/>
<path d="M37.9845 17.542L37.9845 17.042H37.9845V17.542ZM41.55 17.542L41.5501 17.042H41.55V17.542ZM22.5583 5L22.8917 4.62738L22.5554 4.32642L22.2217 4.63033L22.5583 5ZM8.56354 17.042C7.66099 17.042 6.66013 17.3399 5.87456 17.9474C5.07635 18.5646 4.5 19.5052 4.5 20.7454H5.5C5.5 19.8501 5.90362 19.189 6.48628 18.7384C7.08158 18.2781 7.8625 18.042 8.56354 18.042V17.042ZM4.5 20.7454V44.4387H5.5V20.7454H4.5ZM4.5 44.4387C4.5 45.5462 4.9073 46.4878 5.64719 47.1476C6.38114 47.8022 7.3994 48.142 8.56354 48.142V47.142C7.58955 47.142 6.82604 46.859 6.31276 46.4013C5.80541 45.9488 5.5 45.2888 5.5 44.4387H4.5ZM8.56354 48.142H37.9845V47.142H8.56354V48.142ZM37.9845 48.142C39.072 48.142 40.0096 47.7943 40.6764 47.1282C41.3433 46.4621 41.6917 45.5254 41.6917 44.4387H40.6917C40.6917 45.3096 40.4164 45.9745 39.9697 46.4207C39.523 46.8669 38.8569 47.142 37.9845 47.142V48.142ZM41.6917 44.4387V37.3177H40.6917V44.4387H41.6917ZM41.6917 28.2247V20.7454H40.6917V28.2247H41.6917ZM41.6917 20.7454C41.6917 19.7582 41.3945 18.8268 40.7571 18.137C40.1137 17.4408 39.1705 17.0421 37.9845 17.042L37.9845 18.042C38.9366 18.0421 39.5971 18.3552 40.0227 18.8157C40.4543 19.2828 40.6917 19.953 40.6917 20.7454H41.6917ZM37.9845 17.042H28.3451V18.042H37.9845V17.042ZM37.25 48.142H41.55V47.142H37.25V48.142ZM41.55 48.142C43.8579 48.142 45.2751 46.2727 45.2751 44.1009H44.2751C44.2751 45.8505 43.1839 47.142 41.55 47.142V48.142ZM45.2751 44.1009V36.9562H44.2751V44.1009H45.2751ZM45.2751 28.2279V20.7505H44.2751V28.2279H45.2751ZM45.2751 20.7505C45.2751 19.7614 44.9761 18.8284 44.3353 18.1378C43.6888 17.4409 42.7414 17.0421 41.5501 17.042L41.55 18.042C42.5087 18.0421 43.1738 18.3562 43.6023 18.818C44.0365 19.286 44.2751 19.9572 44.2751 20.7505H45.2751ZM41.55 17.042H35.1V18.042H41.55V17.042ZM12.8617 14.5072L22.895 5.36967L22.2217 4.63033L12.1883 13.7678L12.8617 14.5072ZM22.2249 5.37262L32.4374 14.5101L33.1042 13.7649L22.8917 4.62738L22.2249 5.37262ZM35.5561 28.6122H44.6772V27.6122H35.5561V28.6122ZM47.5 31.435V34.1062H48.5V31.435H47.5ZM44.6772 36.9289H35.5561V37.9289H44.6772V36.9289ZM32.7333 34.1062V31.435H31.7333V34.1062H32.7333ZM35.5561 36.9289C33.9971 36.9289 32.7333 35.6651 32.7333 34.1062H31.7333C31.7333 36.2174 33.4448 37.9289 35.5561 37.9289V36.9289ZM47.5 34.1062C47.5 35.6651 46.2362 36.9289 44.6772 36.9289V37.9289C46.7885 37.9289 48.5 36.2174 48.5 34.1062H47.5ZM44.6772 28.6122C46.2362 28.6122 47.5 29.876 47.5 31.435H48.5C48.5 29.3238 46.7885 27.6122 44.6772 27.6122V28.6122ZM35.5561 27.6122C33.4448 27.6122 31.7333 29.3238 31.7333 31.435H32.7333C32.7333 29.876 33.9971 28.6122 35.5561 28.6122V27.6122ZM39.2584 32.7709C39.2584 33.88 38.3592 34.7792 37.25 34.7792V35.7792C38.9115 35.7792 40.2584 34.4323 40.2584 32.7709H39.2584ZM37.25 34.7792C36.1409 34.7792 35.2417 33.88 35.2417 32.7709H34.2417C34.2417 34.4323 35.5886 35.7792 37.25 35.7792V34.7792ZM35.2417 32.7709C35.2417 31.6617 36.1409 30.7625 37.25 30.7625V29.7625C35.5886 29.7625 34.2417 31.1094 34.2417 32.7709H35.2417ZM37.25 30.7625C38.3592 30.7625 39.2584 31.6617 39.2584 32.7709H40.2584C40.2584 31.1094 38.9115 29.7625 37.25 29.7625V30.7625ZM27.6125 9.83759V29.1876H28.6125V9.83759H27.6125ZM16.6833 9.83759V29.1876H17.6833V9.83759H16.6833Z" fill="#00DCE6"/>
</svg>
