<svg width="65" height="65" viewBox="0 0 65 65" fill="none" xmlns="http://www.w3.org/2000/svg">
<path d="M55.0694 0H0V55.0694C6.89983 61.2449 16.0114 65 26 65C47.5391 65 65 47.5391 65 26C65 16.0114 61.2449 6.89983 55.0694 0Z" fill="#00DCE6" fill-opacity="0.1"/>
<path d="M9.41964 40.1348V39.6348H8.91964V40.1348H9.41964ZM48.3253 26.8266L47.8253 26.8278V26.8279L48.3253 26.8266ZM26.8265 48.3254L26.8313 48.8253L26.8317 48.8253L26.8265 48.3254ZM12.494 43.2086L12.1689 43.5886L12.1701 43.5895L12.494 43.2086ZM5.32771 26.8268L5.82771 26.8256L5.82771 26.8255L5.32771 26.8268ZM11.6914 11.5769L12.0449 11.9305L11.6914 11.5769ZM26.8265 5.32796L26.8217 4.82799L26.8213 4.82799L26.8265 5.32796ZM41.159 10.4447L41.4841 10.0648L41.4829 10.0638L41.159 10.4447ZM44.2334 13.519L44.2334 14.019L44.7334 14.019L44.7334 13.519L44.2334 13.519ZM19.0131 33.1613L18.5249 33.2695L18.5253 33.2713L19.0131 33.1613ZM15.5683 39.6348H9.41964V40.6348H15.5683V39.6348ZM8.91964 40.1348V46.2762H9.91964V40.1348H8.91964ZM45.9353 18.2979C47.1682 21.009 47.8183 23.9202 47.8253 26.8278L48.8253 26.8254C48.818 23.7706 48.1351 20.7194 46.8456 17.8839L45.9353 18.2979ZM47.8253 26.8279C47.8393 32.2071 45.7339 37.597 41.6081 41.7228L42.3152 42.4299C46.6313 38.1139 48.84 32.4677 48.8253 26.8253L47.8253 26.8279ZM41.6081 41.7228C37.5521 45.7789 32.1987 47.7693 26.8213 47.8254L26.8317 48.8253C32.4474 48.7668 38.0584 46.6868 42.3152 42.4299L41.6081 41.7228ZM26.8217 47.8254C20.9422 47.8815 16.6576 46.0929 12.8179 42.8277L12.1701 43.5895C16.1846 47.0034 20.7002 48.8839 26.8313 48.8253L26.8217 47.8254ZM12.819 42.8287C12.4919 42.5488 11.7409 41.7989 11.0529 41.0983C10.7131 40.7524 10.3949 40.4248 10.1616 40.1837C10.0449 40.0632 9.94952 39.9643 9.88334 39.8956C9.85026 39.8612 9.82447 39.8344 9.80698 39.8162C9.79823 39.8071 9.79156 39.8002 9.78709 39.7955C9.78485 39.7932 9.78317 39.7914 9.78204 39.7903C9.78148 39.7897 9.78106 39.7892 9.78079 39.789C9.78065 39.7888 9.78055 39.7887 9.78048 39.7886C9.78045 39.7886 9.78042 39.7886 9.78041 39.7886C9.78039 39.7885 9.78039 39.7885 9.41964 40.1348C9.0589 40.481 9.05891 40.481 9.05893 40.481C9.05895 40.481 9.05898 40.4811 9.05902 40.4811C9.0591 40.4812 9.05921 40.4813 9.05937 40.4815C9.05967 40.4818 9.06011 40.4822 9.06069 40.4828C9.06186 40.4841 9.0636 40.4859 9.06589 40.4882C9.07046 40.493 9.07723 40.5001 9.08608 40.5093C9.10378 40.5277 9.12979 40.5547 9.16312 40.5893C9.22977 40.6585 9.32569 40.7579 9.44295 40.8791C9.67742 41.1214 9.99744 41.4508 10.3394 41.799C11.0148 42.4867 11.801 43.2737 12.1689 43.5886L12.819 42.8287ZM7.71774 35.3555C6.48477 32.6443 5.8347 29.7331 5.82771 26.8256L4.82771 26.828C4.83505 29.8827 5.5179 32.9339 6.80746 35.7694L7.71774 35.3555ZM5.82771 26.8255C5.81372 21.4462 7.91911 16.0563 12.0449 11.9305L11.3378 11.2234C7.02173 15.5395 4.81303 21.1856 4.82771 26.8281L5.82771 26.8255ZM12.0449 11.9305C16.1009 7.87447 21.4544 5.88402 26.8317 5.82794L26.8213 4.82799C21.2056 4.88656 15.5946 6.96656 11.3378 11.2234L12.0449 11.9305ZM26.8313 5.82794C32.7108 5.77181 36.9954 7.56044 40.8351 10.8256L41.4829 10.0638C37.4684 6.64996 32.9528 4.76946 26.8217 4.82799L26.8313 5.82794ZM40.834 10.8246C41.1611 11.1045 41.9121 11.8545 42.6001 12.5552C42.9398 12.9012 43.2581 13.2288 43.4914 13.47C43.6081 13.5905 43.7035 13.6894 43.7696 13.7581C43.8027 13.7925 43.8285 13.8193 43.846 13.8375C43.8547 13.8466 43.8614 13.8535 43.8659 13.8582C43.8681 13.8605 43.8698 13.8623 43.8709 13.8635C43.8715 13.864 43.8719 13.8645 43.8722 13.8648C43.8723 13.8649 43.8724 13.865 43.8725 13.8651C43.8725 13.8651 43.8726 13.8652 43.8726 13.8652C43.8726 13.8652 43.8726 13.8652 44.2334 13.519C44.5941 13.1728 44.5941 13.1728 44.5941 13.1728C44.5941 13.1728 44.5941 13.1727 44.594 13.1727C44.5939 13.1726 44.5938 13.1725 44.5937 13.1723C44.5934 13.172 44.5929 13.1716 44.5923 13.171C44.5912 13.1697 44.5894 13.1679 44.5872 13.1655C44.5826 13.1608 44.5758 13.1537 44.567 13.1445C44.5493 13.1261 44.5232 13.0991 44.4899 13.0645C44.4233 12.9953 44.3273 12.8958 44.2101 12.7746C43.9756 12.5323 43.6556 12.2028 43.3136 11.8546C42.6383 11.1668 41.8521 10.3796 41.4841 10.0648L40.834 10.8246ZM38.0847 14.0189L44.2334 14.019L44.2334 13.019L38.0847 13.0189L38.0847 14.0189ZM44.7334 13.519L44.7334 7.37736L43.7334 7.37737L43.7334 13.519L44.7334 13.519ZM31.5454 9.48517C30.0231 9.06697 28.4252 8.84109 26.7692 8.84109V9.84109C28.3336 9.84109 29.8424 10.0544 31.2805 10.4494L31.5454 9.48517ZM26.7692 8.84109C16.8722 8.84109 8.8408 16.864 8.8408 26.7694H9.8408C9.8408 17.4166 17.4242 9.84109 26.7692 9.84109V8.84109ZM8.8408 26.7694C8.8408 30.2825 9.85319 33.5627 11.6018 36.3321L12.4474 35.7982C10.7965 33.1837 9.8408 30.0878 9.8408 26.7694H8.8408ZM21.9929 44.054C23.5152 44.4722 25.113 44.698 26.7691 44.698V43.698C25.2047 43.698 23.6958 43.4847 22.2578 43.0897L21.9929 44.054ZM26.7691 44.698C36.6661 44.698 44.6975 36.6751 44.6975 26.7697H43.6975C43.6975 36.1225 36.1141 43.698 26.7691 43.698V44.698ZM44.6975 26.7697C44.6975 23.2569 43.6853 19.9683 41.9361 17.2065L41.0913 17.7415C42.7416 20.3472 43.6975 23.451 43.6975 26.7697H44.6975ZM20.2466 22.0231H16.8201V23.0231H20.2466V22.0231ZM16.8201 22.0231C16.0037 22.0231 15.341 22.691 15.341 23.5059H16.341C16.341 23.2397 16.5595 23.0231 16.8201 23.0231V22.0231ZM15.341 23.5059V24.4886H16.341V23.5059H15.341ZM15.341 24.4886C15.341 25.3035 16.0037 25.9713 16.8201 25.9713V24.9713C16.5595 24.9713 16.341 24.7548 16.341 24.4886H15.341ZM16.8201 25.9713H19.7571V24.9713H16.8201V25.9713ZM31.0158 22.0231H23.1837V23.0231H31.0158V22.0231ZM34.4424 25.9713H37.3794V24.9713H34.4424V25.9713ZM37.3794 25.9713C38.1958 25.9713 38.8584 25.3035 38.8584 24.4886H37.8584C37.8584 24.7548 37.64 24.9713 37.3794 24.9713V25.9713ZM38.8584 24.4886V23.5059H37.8584V24.4886H38.8584ZM38.8584 23.5059C38.8584 22.691 38.1958 22.0231 37.3794 22.0231V23.0231C37.64 23.0231 37.8584 23.2397 37.8584 23.5059H38.8584ZM37.3794 22.0231H33.9529V23.0231H37.3794V22.0231ZM26.1207 33.816H20.4473V34.816H26.1207V33.816ZM20.4473 33.816C19.9949 33.816 19.602 33.5004 19.5008 33.0514L18.5253 33.2713C18.7276 34.1686 19.5193 34.816 20.4473 34.816V33.816ZM19.5012 33.0532L17.7977 25.3632L16.8214 25.5795L18.5249 33.2695L19.5012 33.0532ZM36.3995 25.3737L35.91 27.8305L36.8907 28.0259L37.3803 25.5691L36.3995 25.3737ZM24.1522 26.9452V31.8589H25.1522V26.9452H24.1522ZM21.7047 26.9452V31.8589H22.7047V26.9452H21.7047ZM23.6982 16.4415L20.7611 23.8121L21.6901 24.1822L24.6271 16.8117L23.6982 16.4415ZM29.5723 16.8117L32.5093 24.1822L33.4383 23.8121L30.5012 16.4415L29.5723 16.8117ZM36.3899 32.3504C36.3899 34.7898 34.4203 36.7641 31.9948 36.7641V37.7641C34.9762 37.7641 37.3899 35.3385 37.3899 32.3504H36.3899ZM31.9948 36.7641C29.5692 36.7641 27.5997 34.7898 27.5997 32.3504H26.5997C26.5997 35.3385 29.0134 37.7641 31.9948 37.7641V36.7641ZM27.5997 32.3504C27.5997 29.911 29.5692 27.9367 31.9948 27.9367V26.9367C29.0134 26.9367 26.5997 29.3623 26.5997 32.3504H27.5997ZM31.9948 27.9367C34.4203 27.9367 36.3899 29.911 36.3899 32.3504H37.3899C37.3899 29.3623 34.9762 26.9367 31.9948 26.9367V27.9367ZM31.4948 29.8935V34.8072H32.4948V29.8935H31.4948ZM34.4424 31.8503H29.5473V32.8503H34.4424V31.8503Z" fill="#00DCE6"/>
</svg>
