<svg width="65" height="65" viewBox="0 0 65 65" fill="none" xmlns="http://www.w3.org/2000/svg">
<path d="M55.0694 0H0V55.0694C6.89983 61.2449 16.0114 65 26 65C47.5391 65 65 47.5391 65 26C65 16.0114 61.2449 6.89983 55.0694 0Z" fill="#00DCE6" fill-opacity="0.1"/>
<path d="M26.5814 29.1782L26.915 29.5506L27.8007 28.7572L26.6142 28.6793L26.5814 29.1782ZM24.1159 31.3867L23.7823 31.0143L23.5615 31.2121L23.6291 31.5007L24.1159 31.3867ZM24.8197 34.3926L24.586 34.8346L25.557 35.348L25.3066 34.2786L24.8197 34.3926ZM21.9736 32.8875L22.2073 32.4455L21.9736 32.3219L21.7399 32.4455L21.9736 32.8875ZM19.1275 34.3926L18.6407 34.2786L18.3903 35.348L19.3612 34.8346L19.1275 34.3926ZM19.8313 31.3867L20.3181 31.5007L20.3856 31.2124L20.1652 31.0146L19.8313 31.3867ZM17.3703 29.1782L17.3372 28.6793L16.1532 28.7578L17.0363 29.5503L17.3703 29.1782ZM20.6501 28.9607L20.6832 29.4596L20.9856 29.4396L21.1078 29.1622L20.6501 28.9607ZM21.9736 25.9549L22.4313 25.7537L21.974 24.7132L21.516 25.7534L21.9736 25.9549ZM28.4228 29.1782L28.3899 28.6793L27.2052 28.7573L28.0888 29.5503L28.4228 29.1782ZM30.8838 31.3867L31.3706 31.5007L31.4381 31.2124L31.2177 31.0146L30.8838 31.3867ZM30.18 34.3926L29.6932 34.2786L29.4428 35.348L30.4137 34.8346L30.18 34.3926ZM33.0261 32.8875L33.2599 32.4455L33.0261 32.3219L32.7924 32.4455L33.0261 32.8875ZM35.8722 34.3926L35.6385 34.8346L36.6095 35.348L36.3591 34.2786L35.8722 34.3926ZM35.1684 31.3867L34.8345 31.0146L34.6141 31.2124L34.6816 31.5007L35.1684 31.3867ZM37.6295 29.1782L37.9634 29.5503L38.8466 28.7578L37.6625 28.6793L37.6295 29.1782ZM34.3496 28.9607L33.892 29.1622L34.0141 29.4396L34.3165 29.4596L34.3496 28.9607ZM33.0261 25.9549L33.4837 25.7534L33.0257 24.7132L32.5684 25.7537L33.0261 25.9549ZM27.5021 18.4382L27.9596 18.2365L27.5021 17.1984L27.0446 18.2365L27.5021 18.4382ZM28.9584 21.7425L28.5008 21.9441L28.623 22.2214L28.9253 22.2414L28.9584 21.7425ZM32.5658 21.9812L32.8997 22.3534L33.7833 21.5607L32.5988 21.4823L32.5658 21.9812ZM29.8569 24.4115L29.523 24.0393L29.3026 24.2371L29.3701 24.5255L29.8569 24.4115ZM30.6315 27.72L30.3974 28.1618L31.369 28.6768L31.1183 27.6061L30.6315 27.72ZM27.5021 26.0615L27.7363 25.6197L27.5023 25.4957L27.2682 25.6196L27.5021 26.0615ZM24.3683 27.72L23.8815 27.6061L23.631 28.676L24.6022 28.162L24.3683 27.72ZM25.1429 24.4115L25.6297 24.5255L25.6972 24.2371L25.4768 24.0393L25.1429 24.4115ZM22.434 21.9812L22.401 21.4823L21.2164 21.5606L22.1001 22.3534L22.434 21.9812ZM26.0459 21.7425L26.0788 22.2414L26.3812 22.2214L26.5034 21.9441L26.0459 21.7425ZM44.2139 27.4997C44.2139 36.7307 36.7308 44.2139 27.4998 44.2139V45.2139C37.283 45.2139 45.2139 37.283 45.2139 27.4997H44.2139ZM27.4998 44.2139C18.2688 44.2139 10.7856 36.7307 10.7856 27.4997H9.78565C9.78565 37.283 17.7165 45.2139 27.4998 45.2139V44.2139ZM10.7856 27.4997C10.7856 18.2688 18.2688 10.7856 27.4998 10.7856V9.78558C17.7165 9.78558 9.78565 17.7165 9.78565 27.4997H10.7856ZM27.4998 10.7856C36.7308 10.7856 44.2139 18.2688 44.2139 27.4997H45.2139C45.2139 17.7165 37.283 9.78558 27.4998 9.78558V10.7856ZM26.9998 5V13.8571H27.9998V5H26.9998ZM26.9998 41.1429V50H27.9998V41.1429H26.9998ZM5 27.9999H13.8571V26.9999H5V27.9999ZM41.1426 27.9999H49.9997V26.9999H41.1426V27.9999ZM47.8148 24.2067C46.4236 15.4933 39.5063 8.57599 30.7929 7.18478L30.6352 8.17227C38.9217 9.49533 45.5043 16.0779 46.8273 24.3644L47.8148 24.2067ZM30.793 47.8149C39.5063 46.4237 46.4237 39.5064 47.8149 30.793L46.8274 30.6354C45.5043 38.9218 38.9218 45.5044 30.6353 46.8275L30.793 47.8149ZM24.207 7.18473C15.4577 8.57584 8.57584 15.4577 7.18473 24.207L8.17233 24.364C9.49548 16.0421 16.0421 9.49548 24.364 8.17233L24.207 7.18473ZM7.18485 30.793C8.57606 39.5064 15.4934 46.4237 24.2068 47.8149L24.3644 46.8275C16.078 45.5044 9.49539 38.9218 8.17234 30.6354L7.18485 30.793ZM25.1853 29.5876L26.5486 29.6771L26.6142 28.6793L25.2509 28.5897L25.1853 29.5876ZM26.2478 28.8058L23.7823 31.0143L24.4496 31.7591L26.915 29.5506L26.2478 28.8058ZM23.6291 31.5007L24.3329 34.5065L25.3066 34.2786L24.6028 31.2727L23.6291 31.5007ZM25.0535 33.9506L22.2073 32.4455L21.7399 33.3295L24.586 34.8346L25.0535 33.9506ZM21.7399 32.4455L18.8938 33.9506L19.3612 34.8346L22.2073 33.3295L21.7399 32.4455ZM19.6143 34.5065L20.3181 31.5007L19.3444 31.2727L18.6407 34.2786L19.6143 34.5065ZM20.1652 31.0146L17.7042 28.8061L17.0363 29.5503L19.4973 31.7589L20.1652 31.0146ZM17.4033 29.6771L20.6832 29.4596L20.6171 28.4618L17.3372 28.6793L17.4033 29.6771ZM21.1078 29.1622L22.4312 26.1564L21.516 25.7534L20.1925 28.7593L21.1078 29.1622ZM21.5159 26.1561L22.14 27.5759L23.0554 27.1735L22.4313 25.7537L21.5159 26.1561ZM29.7488 28.5897L28.3899 28.6793L28.4556 29.6771L29.8145 29.5876L29.7488 28.5897ZM28.0888 29.5503L30.5498 31.7589L31.2177 31.0146L28.7567 28.8061L28.0888 29.5503ZM30.397 31.2727L29.6932 34.2786L30.6668 34.5065L31.3706 31.5007L30.397 31.2727ZM30.4137 34.8346L33.2599 33.3295L32.7924 32.4455L29.9463 33.9506L30.4137 34.8346ZM32.7924 33.3295L35.6385 34.8346L36.106 33.9506L33.2599 32.4455L32.7924 33.3295ZM36.3591 34.2786L35.6553 31.2727L34.6816 31.5007L35.3854 34.5065L36.3591 34.2786ZM35.5024 31.7589L37.9634 29.5503L37.2955 28.8061L34.8345 31.0146L35.5024 31.7589ZM37.6625 28.6793L34.3827 28.4618L34.3165 29.4596L37.5964 29.6771L37.6625 28.6793ZM34.8072 28.7593L33.4837 25.7534L32.5685 26.1564L33.892 29.1622L34.8072 28.7593ZM32.5684 25.7537L31.9443 27.1735L32.8597 27.5759L33.4838 26.1561L32.5684 25.7537ZM27.0446 18.6398L28.5008 21.9441L29.4159 21.5408L27.9596 18.2365L27.0446 18.6398ZM28.9253 22.2414L32.5328 22.4801L32.5988 21.4823L28.9914 21.2436L28.9253 22.2414ZM32.2319 21.6091L29.523 24.0393L30.1908 24.7837L32.8997 22.3534L32.2319 21.6091ZM29.3701 24.5255L30.1447 27.834L31.1183 27.6061L30.3437 24.2975L29.3701 24.5255ZM30.8656 27.2782L27.7363 25.6197L27.268 26.5033L30.3974 28.1618L30.8656 27.2782ZM27.2682 25.6196L24.1344 27.2781L24.6022 28.162L27.736 26.5034L27.2682 25.6196ZM24.8551 27.834L25.6297 24.5255L24.6561 24.2975L23.8815 27.6061L24.8551 27.834ZM25.4768 24.0393L22.7679 21.6091L22.1001 22.3534L24.809 24.7837L25.4768 24.0393ZM22.467 22.4801L26.0788 22.2414L26.0129 21.2436L22.401 21.4823L22.467 22.4801ZM26.5034 21.9441L27.9596 18.6398L27.0446 18.2365L25.5883 21.5408L26.5034 21.9441Z" fill="#00DCE6"/>
</svg>
