<svg width="65" height="65" viewBox="0 0 65 65" fill="none" xmlns="http://www.w3.org/2000/svg">
<path d="M55.2045 0H0V54.9479C6.91579 61.1956 16.0812 65 26.1351 65C46.573 65 63.3391 49.2789 65 29.2698V22.7302C64.2777 14.0293 60.6992 6.13916 55.2045 0Z" fill="#00DCE6" fill-opacity="0.1"/>
<path d="M5.70361 29.1925L5.50581 28.7333L5.20361 28.8635V29.1925H5.70361ZM31.7349 29.1925H32.2349V28.8635L31.9327 28.7333L31.7349 29.1925ZM18.7192 23.5861L18.917 23.1269L18.7192 23.0417L18.5214 23.1269L18.7192 23.5861ZM5.70361 43.208H5.20361V43.5367L5.50526 43.667L5.70361 43.208ZM18.7192 48.833L18.5209 49.292L18.7192 49.3777L18.9176 49.292L18.7192 48.833ZM31.7349 43.208L31.9332 43.667L32.2349 43.5367V43.208H31.7349ZM17.7896 5.83301V5.33301H17.2896V5.83301H17.7896ZM46.6099 5.83301H47.1099V5.33301H46.6099V5.83301ZM46.6099 38.5362V39.0362H47.1099V38.5362H46.6099ZM37.313 31.9956L36.9585 32.3483L37.3545 32.7463L37.7042 32.307L37.313 31.9956ZM37.313 23.586L36.9585 23.9386L37.3545 24.3366L37.7042 23.8974L37.313 23.586ZM37.313 15.1769L36.9585 15.5296L37.3545 15.9276L37.7042 15.4883L37.313 15.1769ZM5.50582 29.6517L18.5214 35.258L18.917 34.3396L5.90141 28.7333L5.50582 29.6517ZM18.917 35.258L31.9327 29.6517L31.5371 28.7333L18.5214 34.3396L18.917 35.258ZM12.2047 32.3425L25.2203 26.7362L24.8248 25.8178L11.8091 31.4241L12.2047 32.3425ZM18.5214 23.1269L5.50581 28.7333L5.90142 29.6517L18.917 24.0453L18.5214 23.1269ZM5.20361 29.1925V43.208H6.20361V29.1925H5.20361ZM5.50526 43.667L18.5209 49.292L18.9176 48.374L5.90197 42.7491L5.50526 43.667ZM18.9176 49.292L31.9332 43.667L31.5365 42.7491L18.5209 48.374L18.9176 49.292ZM32.2349 43.208V29.1925H31.2349V43.208H32.2349ZM31.9327 28.7333L18.917 23.1269L18.5214 24.0453L31.5371 29.6517L31.9327 28.7333ZM18.2192 34.7988V48.833H19.2192V34.7988H18.2192ZM18.2896 21.7174V5.83301H17.2896V21.7174H18.2896ZM17.7896 6.33301H46.6099V5.33301H17.7896V6.33301ZM46.1099 5.83301V38.5362H47.1099V5.83301H46.1099ZM46.6099 38.0362H34.5239V39.0362H46.6099V38.0362ZM29.8755 40.8392H28.0161V41.8392H29.8755V40.8392ZM27.0864 41.7736H25.2271V42.7736H27.0864V41.7736ZM35.0992 30.4795L36.9585 32.3483L37.6674 31.6429L35.808 29.7742L35.0992 30.4795ZM37.7042 32.307L41.4229 27.6351L40.6405 27.0123L36.9218 31.6842L37.7042 32.307ZM35.0992 22.0699L36.9585 23.9386L37.6674 23.2333L35.808 21.3646L35.0992 22.0699ZM37.7042 23.8974L41.4229 19.2255L40.6405 18.6027L36.9218 23.2746L37.7042 23.8974ZM35.0992 13.6608L36.9585 15.5296L37.6674 14.8242L35.808 12.9555L35.0992 13.6608ZM37.7042 15.4883L41.4229 10.8164L40.6405 10.1936L36.9218 14.8655L37.7042 15.4883ZM24.2974 13.8082H30.8052V12.8082H24.2974V13.8082ZM24.2974 17.5453H28.0161V16.5453H24.2974V17.5453ZM24.2974 21.2829H30.8052V20.2829H24.2974V21.2829Z" fill="#00DCE6"/>
</svg>
