<svg width="65" height="65" viewBox="0 0 65 65" fill="none" xmlns="http://www.w3.org/2000/svg">
<path d="M55.2045 0H0V54.9479C6.91579 61.1956 16.0812 65 26.1351 65C46.573 65 63.3391 49.2789 65 29.2698V22.7302C64.2777 14.0293 60.6992 6.13916 55.2045 0Z" fill="#00DCE6" fill-opacity="0.1"/>
<path d="M4.01748 27.3616L3.51794 27.3833L3.51788 27.3816L4.01748 27.3616ZM46.9998 25.6206L46.5002 25.6411L46.5002 25.6408L46.9998 25.6206ZM26.3717 47.9821L26.3922 48.4817L26.392 48.4817L26.3717 47.9821ZM8.85416 27.2283L8.35463 27.25L8.35456 27.2483L8.85416 27.2283ZM42.0398 25.8841L41.5402 25.9046L41.5402 25.9043L42.0398 25.8841ZM26.1134 43.1486L26.1339 43.6482L26.1336 43.6482L26.1134 43.1486ZM28.2908 25.5969V26.0969H27.7908V25.5969H28.2908ZM23.0632 25.5969H23.5632V26.0969H23.0632V25.5969ZM20.2118 25.5969V26.0969H19.7118V25.5969H20.2118ZM31.1421 25.5969H31.6421V26.0969H31.1421V25.5969ZM24.489 31.1469L24.7398 30.7143L24.989 30.8588V31.1469H24.489ZM25.8957 27.6587L26.0086 27.1716L26.0088 27.1717L25.8957 27.6587ZM27.2833 29.0273L27.7686 28.9069L27.7692 28.9091L27.2833 29.0273ZM26.3899 31.1421H25.8899V30.8547L26.1383 30.71L26.3899 31.1421ZM25.4394 34.2549L25.4349 33.7549H25.4394V34.2549ZM24.6585 5.49959C13.0696 5.97114 4.05265 15.7453 4.51707 27.3416L3.51788 27.3816C3.03136 15.2338 12.4772 4.99442 24.6178 4.50041L24.6585 5.49959ZM4.517 27.3399C4.53833 27.8305 4.58112 28.3168 4.63188 28.81L3.63714 28.9124C3.58549 28.4107 3.54051 27.9022 3.51795 27.3833L4.517 27.3399ZM34.3488 6.33437C41.8022 9.61207 47.1475 16.9094 47.4993 25.6004L46.5002 25.6408C46.1644 17.3466 41.0641 10.3799 33.9462 7.24977L34.3488 6.33437ZM47.4993 25.6C47.664 29.6048 46.7356 33.4002 44.9995 36.7152L44.1137 36.2512C45.7717 33.0852 46.6574 29.4633 46.5002 25.6411L47.4993 25.6ZM38.5404 44.2225C35.1269 46.7377 30.9496 48.2946 26.3922 48.4817L26.3512 47.4825C30.7034 47.3039 34.6895 45.8178 37.9472 43.4174L38.5404 44.2225ZM26.392 48.4817C18.2549 48.8111 10.9722 44.6708 6.90873 38.2576L7.75345 37.7224C11.6339 43.8468 18.586 47.7968 26.3515 47.4825L26.392 48.4817ZM24.7952 10.463C15.9106 10.8245 8.99771 18.3178 9.35376 27.2083L8.35456 27.2483C7.97642 17.8064 15.3182 9.84778 24.7546 9.46381L24.7952 10.463ZM9.35369 27.2065C9.37002 27.5821 9.4028 27.9551 9.44189 28.3348L8.44715 28.4372C8.40718 28.0489 8.37219 27.6538 8.35463 27.25L9.35369 27.2065ZM32.3181 10.8893C38.111 13.4368 42.2659 19.1085 42.5394 25.8638L41.5402 25.9043C41.2828 19.5458 37.3729 14.2046 31.9156 11.8047L32.3181 10.8893ZM42.5394 25.8635C42.6674 28.9763 41.9457 31.9264 40.5964 34.5028L39.7105 34.0389C40.9818 31.6114 41.6607 28.8348 41.5402 25.9046L42.5394 25.8635ZM35.5761 40.3376C32.9229 42.2926 29.6759 43.5028 26.1339 43.6482L26.0929 42.649C29.4297 42.512 32.4855 41.3728 34.9829 39.5326L35.5761 40.3376ZM26.1336 43.6482C19.8088 43.9042 14.1484 40.6859 10.9902 35.7015L11.8349 35.1663C14.8101 39.8619 20.14 42.89 26.0932 42.649L26.1336 43.6482ZM27.7908 25.5969V21.5283H28.7908V25.5969H27.7908ZM27.7908 21.5283C27.7908 20.4487 26.8118 19.5238 25.677 19.5238V18.5238C27.3081 18.5238 28.7908 19.8421 28.7908 21.5283H27.7908ZM25.677 19.5238C24.5429 19.5238 23.5632 20.4528 23.5632 21.5283H22.5632C22.5632 19.8474 24.0453 18.5238 25.677 18.5238V19.5238ZM23.5632 21.5283V25.5969H22.5632V21.5283H23.5632ZM23.0632 26.0969H20.2118V25.0969H23.0632V26.0969ZM19.7118 25.5969V21.6709H20.7118V25.5969H19.7118ZM19.7118 21.6709C19.7118 18.4263 22.4575 15.8103 25.677 15.8103V16.8103C22.9846 16.8103 20.7118 19.0035 20.7118 21.6709H19.7118ZM25.677 15.8103C28.8965 15.8103 31.6421 18.4263 31.6421 21.6709H30.6421C30.6421 19.0035 28.3694 16.8103 25.677 16.8103V15.8103ZM31.6421 21.6709V25.5969H30.6421V21.6709H31.6421ZM31.1421 26.0969H28.2908V25.0969H31.1421V26.0969ZM33.5431 26.6563V35.2104H32.5431V26.6563H33.5431ZM33.5431 35.2104C33.5431 36.0093 32.8915 36.6609 32.0926 36.6609V35.6609C32.3392 35.6609 32.5431 35.457 32.5431 35.2104H33.5431ZM32.0926 36.6609H19.2614V35.6609H32.0926V36.6609ZM19.2614 36.6609C18.4625 36.6609 17.8109 36.0093 17.8109 35.2104H18.8109C18.8109 35.457 19.0148 35.6609 19.2614 35.6609V36.6609ZM17.8109 35.2104V26.6563H18.8109V35.2104H17.8109ZM17.8109 26.6563C17.8109 25.8574 18.4625 25.2058 19.2614 25.2058V26.2058C19.0148 26.2058 18.8109 26.4097 18.8109 26.6563H17.8109ZM19.2614 25.2058H32.0926V26.2058H19.2614V25.2058ZM32.0926 25.2058C32.8915 25.2058 33.5431 25.8574 33.5431 26.6563H32.5431C32.5431 26.4097 32.3392 26.2058 32.0926 26.2058V25.2058ZM31.6421 27.1312V32.834H30.6421V27.1312H31.6421ZM23.989 33.3092V31.1469H24.989V33.3092H23.989ZM24.2382 31.5794C23.5274 31.1673 23.0385 30.3992 23.0385 29.5073H24.0385C24.0385 30.0222 24.3195 30.4706 24.7398 30.7143L24.2382 31.5794ZM23.0385 29.5073C23.0385 27.9949 24.4386 26.8075 26.0086 27.1716L25.7827 28.1458C24.853 27.9301 24.0385 28.6246 24.0385 29.5073H23.0385ZM26.0088 27.1717C26.8677 27.3713 27.5572 28.0554 27.7686 28.9069L26.7981 29.1478C26.6768 28.6592 26.2733 28.2598 25.7825 28.1457L26.0088 27.1717ZM27.7692 28.9091C28.0438 30.0374 27.5129 31.0669 26.6415 31.5742L26.1383 30.71C26.6546 30.4095 26.9601 29.8137 26.7975 29.1456L27.7692 28.9091ZM26.8899 31.1421V33.3044H25.8899V31.1421H26.8899ZM26.8899 33.3044C26.8899 34.1033 26.2383 34.7549 25.4394 34.7549V33.7549C25.6861 33.7549 25.8899 33.551 25.8899 33.3044H26.8899ZM25.4439 34.7549C24.6343 34.7622 23.989 34.1056 23.989 33.3092H24.989C24.989 33.5583 25.1896 33.7571 25.4349 33.7549L25.4439 34.7549Z" fill="#00DCE6"/>
</svg>
