<svg width="130" height="131" viewBox="0 0 130 131" fill="none" xmlns="http://www.w3.org/2000/svg">
<path fill-rule="evenodd" clip-rule="evenodd" d="M19.591 0H130V109.896C116.168 122.391 97.8376 130 77.7297 130C36.8539 130 3.32186 98.5577 0 58.5397V45.4603C1.44451 28.0585 8.60158 12.2783 19.591 0Z" fill="#00DCE6" fill-opacity="0.1"/>
<path d="M119.483 58.4761L119.483 58.482L119.5 59.909C119.383 68.347 116.131 76.0102 110.844 81.7841L101.428 72.3627C103.045 70.4811 104.316 68.2962 105.138 65.909L105.367 65.246H104.666H86.8124V51.945H118.471C118.489 51.9967 118.508 52.0546 118.528 52.1184C118.633 52.4446 118.775 52.9246 118.916 53.5317C119.199 54.7467 119.483 56.4658 119.483 58.4761ZM85.096 39.8117C80.7262 40.1124 76.7524 41.8515 73.6265 44.547L64.2269 35.1266C69.7785 30.043 77.064 26.8485 85.096 26.5171V39.8117ZM62.156 81.7837C56.9724 76.1076 53.7305 68.6328 53.5097 60.4098H66.7933C67.0023 64.9683 68.7602 69.1285 71.5704 72.3646L62.156 81.7837ZM53.536 57.976C53.9027 49.805 57.2426 42.4128 62.4918 36.8351L71.9034 46.2516C69.0296 49.4062 67.1762 53.4847 66.8258 57.976H53.536ZM85.096 92.4659C76.8777 92.131 69.4392 88.7882 63.8463 83.5037L73.2432 74.102C76.4293 76.9793 80.5551 78.8491 85.096 79.1701V92.4659ZM109.137 83.504C103.458 88.8722 95.8841 92.2333 87.5288 92.4884V79.1963C92.2201 78.9516 96.4662 77.0629 99.7247 74.0871L109.137 83.504Z" stroke="#00DCE6"/>
<path d="M92.5 36.9786V28.051L100.424 35.7727C100.208 36.1523 100.047 36.558 99.9423 36.9786H92.5ZM95.197 45.976C93.7284 44.1722 92.8111 42.0035 92.5482 39.7199H99.944C100.046 40.1116 100.204 40.4869 100.415 40.8348L95.197 45.976ZM106.339 33.3886V26.2063C108.7 26.4337 110.938 27.3296 112.775 28.783L107.553 33.856C107.17 33.6486 106.763 33.4921 106.339 33.3886ZM117.453 39.6765C117.198 41.9217 116.302 44.0539 114.866 45.8286L109.623 40.7197C109.788 40.3856 109.918 40.0363 110.01 39.6765H117.453ZM114.761 30.7229C116.231 32.5271 117.148 34.6964 117.412 36.9807H110.015C109.91 36.5773 109.75 36.1895 109.539 35.8288L114.761 30.7229ZM103.61 43.2603V50.4616C101.249 50.2358 99.0107 49.3398 97.1712 47.8859L102.397 42.7933C102.779 43.0005 103.187 43.1569 103.61 43.2603ZM107.591 42.7754L112.777 47.8293C110.933 49.2817 108.699 50.1889 106.339 50.4427V43.2547C106.775 43.1459 107.195 42.9853 107.591 42.7754ZM102.52 33.8313C101.551 32.8938 99.1214 30.5111 96.8049 28.2396C95.0985 26.5664 93.4536 24.9535 92.5 24.0232C92.5 23.1829 92.5003 20.0585 92.5026 16.9718C92.504 15.2168 92.506 13.4743 92.5089 12.1706C92.5099 11.7636 92.5109 11.3995 92.512 11.0913L103.576 20.7372V33.4093C103.21 33.5158 102.857 33.6574 102.52 33.8313Z" stroke="#00DCE6"/>
</svg>
