<svg width="130" height="130" viewBox="0 0 130 130" fill="none" xmlns="http://www.w3.org/2000/svg">
<path fill-rule="evenodd" clip-rule="evenodd" d="M19.591 0H130V109.896C116.168 122.391 97.8376 130 77.7297 130C36.8539 130 3.32186 98.5577 0 58.5397V45.4603C1.44451 28.0585 8.60158 12.2783 19.591 0Z" fill="#00DCE6" fill-opacity="0.1"/>
<path d="M89 10L71.5 33.6962M89 10L106.5 33.6962M89 10V27.2785M71.5 33.6962L63 71.7089M71.5 33.6962L89 88M63 71.7089L89 88M63 71.7089L89 27.2785M63 71.7089H115M89 88L115 71.7089M89 88L106.5 33.6962M115 71.7089L106.5 33.6962M115 71.7089L89 27.2785" stroke="#00DCE6"/>
</svg>
