<svg width="130" height="130" viewBox="0 0 130 130" fill="none" xmlns="http://www.w3.org/2000/svg">
<path fill-rule="evenodd" clip-rule="evenodd" d="M19.8612 0H130V110.139C116.2 122.49 97.9772 130 78 130C34.9218 130 0 95.0782 0 52C0 32.0228 7.51019 13.7997 19.8612 0Z" fill="#00DCE6" fill-opacity="0.1"/>
<path d="M70 87H42V20H90" stroke="#00DCE6" stroke-miterlimit="10"/>
<path d="M81 48.6L83.6667 51L89 45" stroke="#00DCE6" stroke-miterlimit="10"/>
<path d="M81 39.6L83.6667 42L89 36" stroke="#00DCE6" stroke-miterlimit="10"/>
<path d="M81 29.6L83.6667 32L89 26" stroke="#00DCE6" stroke-miterlimit="10"/>
<path d="M50 29H75" stroke="#00DCE6" stroke-miterlimit="10"/>
<path d="M50 39H75" stroke="#00DCE6" stroke-miterlimit="10"/>
<path d="M50 48H75" stroke="#00DCE6" stroke-miterlimit="10"/>
<path d="M82.4291 88.5611C81.0576 86.9463 78.5315 87.0539 77.3213 88.7771L77.3193 88.7844C76.9115 89.3655 76.006 89.217 75.8027 88.5349L75.7973 88.5256C75.2056 86.5 72.8525 85.5793 71.0417 86.663C70.4305 87.0327 69.6598 86.5281 69.754 85.8237L69.7579 85.8091C70.0419 83.7201 68.2618 81.9252 66.1669 82.1875C65.4587 82.2723 64.9634 81.5042 65.3384 80.8986L65.3497 80.886C66.4594 79.0966 65.5629 76.7383 63.5445 76.1269C62.8595 75.9198 62.7224 75.0201 63.3119 74.6133L63.3306 74.6026C65.0748 73.4147 65.2177 70.9113 63.6194 69.526C63.0824 69.0605 63.3177 68.1822 64.0229 68.0495L64.0469 68.0481C66.1253 67.6714 67.2733 65.4452 66.3826 63.5356L66.3772 63.5263C66.0774 62.8812 66.6533 62.1725 67.3482 62.343L67.3702 62.349C69.418 62.8506 71.3824 61.2824 71.3474 59.1785L71.3493 59.1711C71.3347 58.4612 72.1531 58.0529 72.722 58.4878L72.7348 58.499C74.4066 59.7864 76.8378 59.1513 77.6618 57.2226L77.6658 57.208C77.9437 56.5529 78.8596 56.5159 79.1967 57.1396L79.2021 57.1489C80.2025 59.0016 82.6835 59.4154 84.2322 57.9869L84.2435 57.9742C84.766 57.4944 85.6152 57.824 85.6685 58.5364L85.6665 58.5438C85.8216 60.6406 87.9237 62.0276 89.9182 61.3461L89.9369 61.3354C90.6122 61.1084 91.257 61.7597 91.0158 62.4246L91.0138 62.432C90.2961 64.4048 91.6577 66.5269 93.7565 66.7205L93.7785 66.7264C94.4862 66.7905 94.8085 67.6457 94.3169 68.1572C92.8554 69.6719 93.2294 72.1569 95.0733 73.1844L95.0861 73.1957C95.7098 73.5433 95.6548 74.4542 94.9918 74.7237C93.0325 75.5088 92.3593 77.9329 93.6317 79.6231L93.6444 79.6343C94.0746 80.2046 93.6521 81.0171 92.9347 80.9896C90.8192 80.917 89.2125 82.8556 89.693 84.9141L89.6984 84.9234C89.859 85.6176 89.1395 86.1857 88.4986 85.8728C86.5959 84.9472 84.3322 86.0743 83.9286 88.1392L83.9267 88.1465C83.7766 88.8829 82.8891 89.108 82.4291 88.5611Z" stroke="#00DCE6" stroke-miterlimit="10"/>
<path d="M79 83.6124C84.8838 83.6124 89.6535 78.8628 89.6535 73.0039C89.6535 67.1451 84.8838 62.3955 79 62.3955C73.1162 62.3955 68.3464 67.1451 68.3464 73.0039C68.3464 78.8628 73.1162 83.6124 79 83.6124Z" stroke="#00DCE6" stroke-miterlimit="10"/>
<path d="M75.1952 73.0045L78.2391 76.0355L83.5658 69.2158" stroke="#00DCE6" stroke-miterlimit="10"/>
<path d="M101.379 34.6572L101.65 34.7968V35.1018V68.5H104.104L110.151 59.5594L108.127 55.8757L107.937 55.5303L108.229 55.2651L112.421 51.45L108.952 47.6615L108.683 47.3683L108.908 47.0407L112.35 42.0301V35.1018V34.7968L112.621 34.6572C116.699 32.5579 119.5 28.2441 119.5 23.2584C119.5 16.2028 113.894 10.5 107 10.5C100.106 10.5 94.5 16.2028 94.5 23.2584C94.5 28.2441 97.3009 32.5579 101.379 34.6572Z" stroke="#00DCE6"/>
<path d="M113.5 17.5H100.5V21.5H113.5V17.5Z" stroke="#00DCE6"/>
</svg>
