<svg width="130" height="130" viewBox="0 0 130 130" fill="none" xmlns="http://www.w3.org/2000/svg">
<path fill-rule="evenodd" clip-rule="evenodd" d="M19.591 0H130V109.896C116.168 122.391 97.8376 130 77.7297 130C36.8539 130 3.32186 98.5577 0 58.5397V45.4603C1.44451 28.0585 8.60158 12.2783 19.591 0Z" fill="#00DCE6" fill-opacity="0.1"/>
<path d="M116.335 43.9583L116.36 43.993L116.39 44.023C116.425 44.0586 116.442 44.0844 116.45 44.099C116.457 44.1125 116.458 44.1193 116.458 44.1216C116.459 44.1247 116.462 44.154 116.426 44.2263L116.422 44.2335L116.419 44.2409L99.3927 81.2822C99.3549 81.3558 99.2988 81.4282 99.2417 81.4771C99.2085 81.5056 99.1875 81.5158 99.1798 81.5191H99.1704L99.1474 81.5212L58.4861 85.2888C58.3968 85.2836 58.3325 85.2388 58.301 85.1758L58.284 85.1417L58.262 85.1106L34.7575 51.8668C34.7119 51.7609 34.7165 51.6726 34.7711 51.5633L34.7748 51.5559L34.7782 51.5485L51.8041 14.5074C51.8421 14.4336 51.8984 14.361 51.9554 14.3121C51.9888 14.2835 52.0098 14.2732 52.0175 14.27H52.027L52.0501 14.2678L92.5813 10.5005C92.6702 10.5058 92.7345 10.5506 92.7659 10.6133L92.7829 10.6475L92.805 10.6787L116.335 43.9583Z" stroke="#00DCE6"/>
<path d="M116.171 44.2582L91.8761 65.8816L58.3347 85.267L51.851 51.4217V14.4372L83.5133 23.7197L116.171 44.2582Z" stroke="#00DCE6"/>
<path d="M92.8366 10.6622C92.8382 10.6645 92.8395 10.6664 92.8404 10.6681V10.7084L92.8531 10.7637L100.249 42.9431L99.4699 81.231H99.4698V81.2412C99.4698 81.3394 99.4234 81.4101 99.3566 81.4434L99.2833 81.48L99.2551 81.5084C99.2501 81.5095 99.2443 81.5106 99.2375 81.5118C99.1863 81.5203 99.1278 81.5212 99.06 81.5212H99.0593H99.0585H99.0578H99.057H99.0563H99.0555H99.0548H99.054H99.0533H99.0526H99.0518H99.0511H99.0504H99.0497H99.0489H99.0482H99.0475H99.0468H99.0461H99.0454H99.0447H99.044H99.0433H99.0426H99.0419H99.0412H99.0405H99.0398H99.0392H99.0385H99.0378H99.0371H99.0365H99.0358H99.0351H99.0345H99.0338H99.0332H99.0325H99.0318H99.0312H99.0305H99.0299H99.0293H99.0286H99.028H99.0274H99.0267H99.0261H99.0255H99.0248H99.0242H99.0236H99.023H99.0224H99.0217H99.0211H99.0205H99.0199H99.0193H99.0187H99.0181H99.0175H99.0169H99.0163H99.0157H99.0151H99.0146H99.014H99.0134H99.0128H99.0122H99.0117H99.0111H99.0105H99.0099H99.0094H99.0088H99.0082H99.0077H99.0071H99.0066H99.006H99.0055H99.0049H99.0044H99.0038H99.0033H99.0027H99.0022H99.0016H99.0011H99.0006H99H98.9995H98.999H98.9985H98.9979H98.9974H98.9969H98.9964H98.9958H98.9953H98.9948H98.9943H98.9938H98.9933H98.9928H98.9922H98.9917H98.9912H98.9907H98.9902H98.9897H98.9893H98.9888H98.9883H98.9878H98.9873H98.9868H98.9863H98.9858H98.9853H98.9848H98.9844H98.9839H98.9834H98.9829H98.9825H98.982H98.9815H98.981H98.9806H98.9801H98.9796H98.9792H98.9787H98.9782H98.9778H98.9773H98.9769H98.9764H98.976H98.9755H98.9751H98.9746H98.9742H98.9737H98.9733H98.9728H98.9724H98.9719H98.9715H98.971H98.9706H98.9702H98.9697H98.9693H98.9688H98.9684H98.968H98.9675H98.9671H98.9667H98.9663H98.9658H98.9654H98.965H98.9645H98.9641H98.9637H98.9633H98.9629H98.9624H98.962H98.9616H98.9612H98.9608H98.9604H98.9599H98.9595H98.9591H98.9587H98.9583H98.9579H98.9575H98.9571H98.9566H98.9562H98.9558H98.9554H98.955H98.9546H98.9542H98.9538H98.9534H98.953H98.9526H98.9522H98.9518H98.9514H98.951H98.9506H98.9502H98.9498H98.9494H98.949H98.9486H98.9482H98.9479H98.9475H98.9471H98.9467H98.9463H98.9459H98.9455H98.9451H98.9447H98.9443H98.9439H98.9436H98.9432H98.9428H98.9424H98.942H98.9416H98.9412H98.9408H98.9405H98.9401H98.9397H98.9393H98.9389H98.9385H98.9382H98.9378H98.9374H98.937H98.9366H98.9362H98.9359H98.9355H98.9351H98.9347H98.9343H98.934H98.9336H98.9332H98.9328H98.9324H98.932H98.9317H98.9313H98.9309H98.9305H98.9301H98.9298H98.9294H98.929H98.9286H98.9282H98.9278H98.9275H98.9271H98.9267H98.9263H98.9259H98.9256H98.9252H98.9248H98.9244H98.924H98.9236H98.9233H98.9229H98.9225H98.9221H98.9217H98.9213H98.921H98.9206H98.9202H98.9198H98.9194H98.919H98.9186H98.9183H98.9179H98.9175H98.9171H98.9167H98.9163H98.9159H98.9155H98.9152H98.9148H98.9144H98.914H98.9136H98.9132H98.9128H98.9124H98.912H98.9116H98.9112H98.9108H98.9104H98.91H98.9096H98.9092H98.9088H98.9084H98.908H98.9076H98.9072H98.9068H98.9064H98.906H98.9056H98.9052H98.9048H98.9044H98.904H98.9036H98.9032H98.9028H98.9024H98.902H98.9015H98.9011H98.9007H98.9003H98.8999H98.8995H98.8991H98.8986H98.8982H98.8978H98.8974H98.8969H98.8965H98.8961H98.8957H98.8952H98.8948H98.8944H98.894H98.8935H98.8931H98.8927H98.8922H98.8918H98.8914H98.8909H98.8905H98.8901H98.8896H98.8892H98.8887H98.8883H98.8878H98.8874H98.8869H98.8865H98.886H98.8856H98.8851L68.0677 70.6442L34.8258 51.9455L34.8152 51.9396L34.8043 51.9341C34.7371 51.9005 34.6907 51.8296 34.6907 51.7313C34.6907 51.6817 34.7039 51.6189 34.7315 51.5545C34.7573 51.4943 34.7861 51.455 34.8003 51.4391L59.7043 28.4806L92.4013 10.5753C92.4508 10.5513 92.4908 10.5407 92.5177 10.5365L92.6128 10.6317H92.8039C92.8056 10.6327 92.8077 10.634 92.81 10.6356C92.8146 10.6389 92.8195 10.643 92.8244 10.6479C92.8292 10.6527 92.8334 10.6576 92.8366 10.6622Z" stroke="#00DCE6"/>
<path d="M84.3712 23L51.7415 51.3398L51.0916 51.9898L91.9114 66.1599L92.8213 66.4195L84.3712 23ZM53.0415 51.4697L83.7212 24.95L91.2613 64.7296L53.0415 51.4697Z" fill="#00DCE6"/>
<path d="M59.5521 28.1853L100.552 42.8103L67.9271 70.8104L59.5521 28.1853Z" stroke="#00DCE6"/>
<path d="M85.2815 24.0437C85.2815 24.694 84.7612 25.2143 84.1109 25.2143C83.4606 25.2143 82.9403 24.694 82.9403 24.0437C82.9403 23.3934 83.4606 22.873 84.1109 22.873C84.7612 22.873 85.2815 23.3934 85.2815 24.0437Z" fill="#00DCE6"/>
<path d="M84.2504 25.9209C83.167 25.9209 82.2504 25.0043 82.2504 23.9209C82.2504 22.8376 83.167 21.9209 84.2504 21.9209C85.3337 21.9209 86.2504 22.8376 86.2504 23.9209C86.2504 25.0043 85.3337 25.9209 84.2504 25.9209ZM84.2504 23.8376C84.167 23.9209 84.2504 23.9209 84.2504 23.9209V23.8376Z" fill="#00DCE6"/>
<path d="M93.0813 65.6395C93.0813 66.29 92.561 66.8103 91.9108 66.8103C91.2606 66.8103 90.7402 66.29 90.7402 65.6395C90.7402 64.9891 91.2606 64.4689 91.9108 64.4689C92.561 64.3388 93.0813 64.9891 93.0813 65.6395Z" fill="#00DCE6"/>
<path d="M91.7903 68.3887C90.7071 68.3887 89.7903 67.4722 89.7903 66.3887C89.7903 65.3053 90.7071 64.3887 91.7903 64.3887C92.8736 64.3887 93.7904 65.3053 93.7904 66.3887C93.7904 67.5554 92.8736 68.3887 91.7903 68.3887ZM91.7903 66.3887C91.7071 66.472 91.7903 66.472 91.7903 66.472V66.3887Z" fill="#00DCE6"/>
<path d="M60.0628 84.8805C60.0628 85.5307 59.5426 86.0511 58.8922 86.0511C58.2419 86.0511 57.7217 85.5307 57.7217 84.8805C57.7217 84.2303 58.2419 83.71 58.8922 83.71C59.4125 83.71 60.0628 84.2303 60.0628 84.8805Z" fill="#00DCE6"/>
<path d="M59.0322 86.7598C57.9489 86.7598 57.0322 85.843 57.0322 84.7598C57.0322 83.6762 57.9489 82.7598 59.0322 82.7598C60.1156 82.7598 61.0322 83.6762 61.0322 84.7598C61.0322 85.843 60.1156 86.7598 59.0322 86.7598ZM59.0322 84.7598C58.9489 84.843 59.0322 84.843 59.0322 84.843V84.7598Z" fill="#00DCE6"/>
<path d="M53.1704 51.7302C53.1704 52.3805 52.6501 52.9008 51.9998 52.9008C51.3495 52.9008 50.8292 52.3805 50.8292 51.7302C50.8292 51.0798 51.3495 50.5596 51.9998 50.5596C52.6501 50.5596 53.1704 51.0798 53.1704 51.7302Z" fill="#00DCE6"/>
<path d="M52.271 53.6094C51.1876 53.6094 50.271 52.6927 50.271 51.6094C50.271 50.5261 51.1876 49.6094 52.271 49.6094C53.3543 49.6094 54.271 50.5261 54.271 51.6094C54.271 52.6927 53.3543 53.6094 52.271 53.6094ZM52.271 51.5261C52.1876 51.6094 52.271 51.6094 52.271 51.6094V51.5261Z" fill="#00DCE6"/>
<path d="M117.262 44.1892C117.262 44.8394 116.741 45.3597 116.091 45.3597C115.44 45.3597 114.92 44.8394 114.92 44.1892C114.92 43.5388 115.44 43.0186 116.091 43.0186C116.741 43.0186 117.262 43.5388 117.262 44.1892Z" fill="#00DCE6"/>
<path d="M116.362 46.0713C115.279 46.0713 114.362 45.1546 114.362 44.0713C114.362 42.9879 115.279 42.0713 116.362 42.0713C117.446 42.0713 118.362 42.9879 118.362 44.0713C118.279 45.1546 117.446 46.0713 116.362 46.0713ZM116.362 43.9879C116.279 44.0713 116.362 44.0713 116.362 44.0713V43.9879Z" fill="#00DCE6"/>
<path d="M53.1704 14.5505C53.1704 15.2008 52.6501 15.721 51.9998 15.721C51.3495 15.721 50.8292 15.2008 50.8292 14.5505C50.8292 13.9001 51.3495 13.3799 51.9998 13.3799C52.6501 13.3799 53.1704 13.9001 53.1704 14.5505Z" fill="#00DCE6"/>
<path d="M52 17C50.9166 17 50 16.0833 50 15C50 13.9167 50.9166 13 52 13C53.0833 13 54 13.9167 54 15C54 16.0833 53.0833 17 52 17ZM52 15C51.9166 15.0833 52 15.0833 52 15.0833V15Z" fill="#00DCE6"/>
<path d="M59.3818 84.1874L68.0001 70.5" stroke="#00DCE6"/>
<path d="M100 43L116 44" stroke="#00DCE6"/>
<path d="M52 15L60 28" stroke="#00DCE6"/>
</svg>
