<svg width="130" height="130" viewBox="0 0 130 130" fill="none" xmlns="http://www.w3.org/2000/svg">
<path fill-rule="evenodd" clip-rule="evenodd" d="M19.8612 0H130V110.139C116.2 122.49 97.9772 130 78 130C34.9218 130 0 95.0782 0 52C0 32.0228 7.51019 13.7997 19.8612 0Z" fill="#00DCE6" fill-opacity="0.1"/>
<path d="M58.2866 48.4203L63.7898 48.8279L64.0955 44.5477C66.2356 44.3439 68.2738 43.6305 70.1082 42.5095L72.9617 45.7706L77.14 42.2037L74.2865 38.9426C75.6114 37.312 76.5286 35.3757 77.14 33.2356L81.4203 33.5413L81.8279 28.0382L77.5477 27.7324C77.3439 25.5923 76.6305 23.5541 75.5095 21.7197L78.7706 18.8662L75.2037 14.6879L71.9426 17.5414C70.312 16.2165 68.3757 15.2993 66.2356 14.6879L66.5413 10.4076L61.0382 10L60.6305 14.2802C58.4904 14.4841 56.4522 15.1974 54.6178 16.3185L51.7643 13.0573L47.6879 16.7261L50.5414 19.9872C49.2165 21.6178 48.2993 23.5541 47.6879 25.6942L43.4076 25.3885L43 30.8917L47.2802 31.1974C47.4841 33.3375 48.1974 35.3757 49.3185 37.2101L46.0573 40.0636L49.6242 44.242L52.8853 41.3885C54.5159 42.7133 56.4522 43.6305 58.5923 44.242L58.2866 48.4203ZM52.5796 28.7515C52.9872 23.3503 57.6751 19.2739 63.0764 19.5796C68.4776 19.8853 72.5541 24.6751 72.2483 30.0764C71.8407 35.4776 67.1528 39.5541 61.7515 39.2483C56.2484 38.8407 52.172 34.1528 52.5796 28.7515Z" stroke="#00DCE6" stroke-miterlimit="10"/>
<path d="M110.363 85.8217L115.254 81.2357L111.586 77.3631C113.114 75.223 114.235 72.7771 114.745 70.3313L120.044 70.4332L120.248 63.7071L114.949 63.6052C114.541 61.0574 113.624 58.6116 112.197 56.3695L116.07 52.7008L111.484 47.809L107.611 51.4778C105.471 49.9492 103.025 48.8282 100.579 48.3186L100.681 43.0193L93.9551 42.8154L93.8532 48.1148C91.3055 48.5224 88.8596 49.4396 86.6176 50.8664L82.9488 46.9938L78.0571 51.5797L81.7259 55.4523C80.1972 57.5925 79.0762 60.0383 78.5666 62.4842L73.2673 62.3823L73.0635 69.1084L78.3628 69.2103C78.7705 71.758 79.6877 74.2039 81.1144 76.4459L77.2418 80.1147L81.8278 85.0064L85.7004 81.3376C87.8405 82.8663 90.2864 83.9873 92.7322 84.4969L92.6303 89.7962L99.3564 90L99.4583 84.7007C102.006 84.293 104.452 83.3758 106.694 81.9491L110.363 85.8217ZM91.2036 71.6561C88.3501 68.5988 88.452 63.809 91.5093 60.9555C94.5666 58.102 99.3564 58.2039 102.21 61.2612C105.063 64.3186 104.961 69.1084 101.904 71.9619C98.8469 74.8153 94.0571 74.7134 91.2036 71.6561Z" stroke="#00DCE6" stroke-miterlimit="10"/>
<path d="M107.714 50.8667C107.714 49.6438 107.714 48.5228 107.612 47.2999C106.185 32.9305 94.1595 22.2299 79.994 22.3318C79.1787 22.3318 78.3634 22.3318 77.4462 22.4337C77.0386 22.4337 76.6309 22.5356 76.3252 22.5356" stroke="#00DCE6" stroke-miterlimit="10"/>
<path d="M52.6812 46.8916C52.4774 48.726 52.4774 50.6623 52.6812 52.7005C54.006 66.968 66.0315 77.6686 79.9932 77.6686" stroke="#00DCE6" stroke-miterlimit="10"/>
<path d="M109.854 35.9875C106.083 28.0384 99.3569 22.0257 91.2041 19.0703" stroke="#00DCE6" stroke-miterlimit="10"/>
<path d="M48.5029 58.8154C50.8469 67.3759 56.5539 74.4077 63.9933 78.5861" stroke="#00DCE6" stroke-miterlimit="10"/>
<path d="M53.8027 41.4912C53.2931 43.2237 52.8855 45.0581 52.6816 46.8925" stroke="#00DCE6" stroke-miterlimit="10"/>
</svg>
