<svg width="130" height="130" viewBox="0 0 130 130" fill="none" xmlns="http://www.w3.org/2000/svg">
<path fill-rule="evenodd" clip-rule="evenodd" d="M19.8612 0H130V110.139C116.2 122.49 97.9772 130 78 130C34.9218 130 0 95.0782 0 52C0 32.0228 7.51019 13.7997 19.8612 0Z" fill="#00DCE6" fill-opacity="0.1"/>
<path d="M44 15H50" stroke="#00DCE6"/>
<path d="M44 29H50" stroke="#00DCE6"/>
<path d="M44 44H50" stroke="#00DCE6"/>
<path d="M44 59H50" stroke="#00DCE6"/>
<path d="M87 45V10H40V67.5H79" stroke="#00DCE6"/>
<path d="M97.9994 38C105.904 44.6511 119.997 49.6091 119.997 49.6091C120.303 77.9067 97.9994 89.9996 97.9994 89.9996C86.6026 84.2554 75.8185 68.7765 76.0023 49.6091C76.0023 49.6091 89.6663 44.6511 97.9994 38Z" stroke="#00DCE6"/>
<path d="M88.4863 60.2422H107.109V70.026C107.109 72.1178 105.423 73.7371 103.398 73.7371H92.1974C90.1057 73.7371 88.4863 72.0503 88.4863 70.026V60.2422Z" stroke="#00DCE6"/>
<path d="M97.7969 63.5107C98.2785 63.5107 98.7138 63.9095 98.7138 64.4277V68.6112C98.7138 69.0928 98.3151 69.5281 97.7969 69.5281C97.3152 69.5281 96.8799 69.1294 96.8799 68.6112V64.4277C96.8799 63.8942 97.2633 63.5107 97.7969 63.5107Z" stroke="#00DCE6"/>
<path d="M90.2246 58.1745C90.2246 53.5321 93.7379 49.9746 97.912 49.9746C102.086 49.9746 105.599 53.3211 105.599 58.1745" stroke="#00DCE6"/>
<line x1="40" y1="24.5" x2="87" y2="24.5" stroke="#00DCE6"/>
<line x1="40" y1="38.5" x2="87" y2="38.5" stroke="#00DCE6"/>
<path d="M40 53.5H76" stroke="#00DCE6"/>
</svg>
