<svg width="130" height="130" viewBox="0 0 130 130" fill="none" xmlns="http://www.w3.org/2000/svg">
<path fill-rule="evenodd" clip-rule="evenodd" d="M19.591 0H130V109.896C116.168 122.391 97.8376 130 77.7297 130C36.8539 130 3.32186 98.5577 0 58.5397V45.4603C1.44451 28.0585 8.60158 12.2783 19.591 0Z" fill="#00DCE6" fill-opacity="0.1"/>
<path d="M118.758 27.0381V14.5654H106.339" stroke="#00DCE6"/>
<path d="M118.758 74.4346V86.9073H106.339" stroke="#00DCE6"/>
<path d="M44.2422 27.0381V14.5654H56.6616" stroke="#00DCE6"/>
<path d="M44.2422 74.4346V86.9073H56.6616" stroke="#00DCE6"/>
<path d="M87.6596 50.6612C87.6596 54.0537 84.9025 56.8975 81.4499 56.8975C77.9973 56.8975 75.2402 54.0537 75.2402 50.6612C75.2402 47.2686 77.9973 44.4248 81.4499 44.4248C84.8777 44.4248 87.6596 47.2686 87.6596 50.6612Z" stroke="#00DCE6"/>
<path d="M86.3184 24.4922C101.843 26.3381 114.734 36.6905 120 50.7348C114.709 64.7042 101.892 75.1314 86.368 76.9774" stroke="#00DCE6"/>
<path d="M76.7062 76.9774C61.1571 75.1314 48.3155 64.7042 43 50.7348C48.2907 36.7653 61.1323 26.3381 76.6813 24.4922" stroke="#00DCE6"/>
<path d="M86.3184 31.4033C93.3726 33.1994 98.9613 38.8121 100.75 45.8966" stroke="#00DCE6"/>
<path d="M62.25 45.8966C64.0384 38.8121 69.6271 33.1994 76.6813 31.4033" stroke="#00DCE6"/>
<path d="M86.3184 70.0675C93.3726 68.2714 98.9613 62.6587 100.75 55.5742" stroke="#00DCE6"/>
<path d="M62.25 55.5742C64.0384 62.6587 69.6271 68.2714 76.6813 70.0675" stroke="#00DCE6"/>
<path d="M78.6681 40.5085C79.5374 40.2341 80.4813 40.1094 81.4997 40.1094C87.312 40.1094 92.1058 44.849 92.1058 50.7611C92.1058 56.6731 87.3865 61.4128 81.4997 61.4128C75.6378 61.4128 70.8936 56.6731 70.8936 50.7611C70.8936 49.8131 71.0177 48.8652 71.291 47.9173" stroke="#00DCE6"/>
<path d="M81.5 91.4716V66.6758V91.4716Z" stroke="#00DCE6"/>
<path d="M81.5 34.7958V10" stroke="#00DCE6"/>
<path d="M111.48 50.7363H97.3721" stroke="#00DCE6"/>
<path d="M65.6533 50.7363H51.5449" stroke="#00DCE6"/>
</svg>
