<svg width="130" height="130" viewBox="0 0 130 130" fill="none" xmlns="http://www.w3.org/2000/svg">
<path fill-rule="evenodd" clip-rule="evenodd" d="M19.8612 0H130V110.139C116.2 122.49 97.9772 130 78 130C34.9218 130 0 95.0782 0 52C0 32.0228 7.51019 13.7997 19.8612 0Z" fill="#00DCE6" fill-opacity="0.1"/>
<path d="M70.4703 14.7375C71.7786 14.7375 72.8391 13.677 72.8391 12.3687C72.8391 11.0605 71.7786 10 70.4703 10C69.1621 10 68.1016 11.0605 68.1016 12.3687C68.1016 13.677 69.1621 14.7375 70.4703 14.7375Z" stroke="#00DCE6" stroke-miterlimit="10"/>
<path d="M99.8649 18.9358C101.173 18.9358 102.234 17.8752 102.234 16.567C102.234 15.2588 101.173 14.1982 99.8649 14.1982C98.5566 14.1982 97.4961 15.2588 97.4961 16.567C97.4961 17.8752 98.5566 18.9358 99.8649 18.9358Z" stroke="#00DCE6" stroke-miterlimit="10"/>
<path d="M117.63 42.8401C118.939 42.8401 119.999 41.7796 119.999 40.4713C119.999 39.1631 118.939 38.1025 117.63 38.1025C116.322 38.1025 115.262 39.1631 115.262 40.4713C115.262 41.7796 116.322 42.8401 117.63 42.8401Z" stroke="#00DCE6" stroke-miterlimit="10"/>
<path d="M113.431 72.2346C114.739 72.2346 115.8 71.1741 115.8 69.8659C115.8 68.5576 114.739 67.4971 113.431 67.4971C112.123 67.4971 111.062 68.5576 111.062 69.8659C111.062 71.1741 112.123 72.2346 113.431 72.2346Z" stroke="#00DCE6" stroke-miterlimit="10"/>
<path d="M89.5289 90.0003C90.8372 90.0003 91.8977 88.9397 91.8977 87.6315C91.8977 86.3232 90.8372 85.2627 89.5289 85.2627C88.2207 85.2627 87.1602 86.3232 87.1602 87.6315C87.1602 88.9397 88.2207 90.0003 89.5289 90.0003Z" stroke="#00DCE6" stroke-miterlimit="10"/>
<path d="M60.1344 85.6926C61.4426 85.6926 62.5032 84.6321 62.5032 83.3239C62.5032 82.0156 61.4426 80.9551 60.1344 80.9551C58.8262 80.9551 57.7656 82.0156 57.7656 83.3239C57.7656 84.6321 58.8262 85.6926 60.1344 85.6926Z" stroke="#00DCE6" stroke-miterlimit="10"/>
<path d="M42.3688 61.8987C43.677 61.8987 44.7375 60.8381 44.7375 59.5299C44.7375 58.2217 43.677 57.1611 42.3688 57.1611C41.0605 57.1611 40 58.2217 40 59.5299C40 60.8381 41.0605 61.8987 42.3688 61.8987Z" stroke="#00DCE6" stroke-miterlimit="10"/>
<path d="M46.6754 32.5031C47.9836 32.5031 49.0442 31.4426 49.0442 30.1344C49.0442 28.8262 47.9836 27.7656 46.6754 27.7656C45.3672 27.7656 44.3066 28.8262 44.3066 30.1344C44.3066 31.4426 45.3672 32.5031 46.6754 32.5031Z" stroke="#00DCE6" stroke-miterlimit="10"/>
<path d="M77.5771 11.2922H77.6848C82.853 10.9692 87.9136 11.7229 92.5435 13.3379" stroke="#00DCE6" stroke-miterlimit="10"/>
<path d="M105.68 20.8748C105.714 20.857 105.787 20.9825 105.68 20.8748ZM105.68 20.8748C109.664 24.428 112.678 28.5195 114.832 32.934" stroke="#00DCE6" stroke-miterlimit="10"/>
<path d="M118.707 47.5771V47.6849C119.03 52.8531 118.276 57.9136 116.661 62.5435" stroke="#00DCE6" stroke-miterlimit="10"/>
<path d="M109.017 75.6797C105.464 79.6635 101.373 82.6783 96.958 84.8317" stroke="#00DCE6" stroke-miterlimit="10"/>
<path d="M82.4223 88.7078H82.3147C77.1465 89.0308 72.0859 88.2772 67.4561 86.6621" stroke="#00DCE6" stroke-miterlimit="10"/>
<path d="M54.32 79.0182C54.32 79.0182 54.32 78.9105 54.32 79.0182C50.3362 75.465 47.3214 71.3735 45.168 66.959" stroke="#00DCE6" stroke-miterlimit="10"/>
<path d="M41.2922 52.315V52.2073C40.9692 47.0391 41.7229 41.9785 43.3379 37.3486" stroke="#00DCE6" stroke-miterlimit="10"/>
<path d="M50.9824 24.321C50.9824 24.321 50.9824 24.2133 50.9824 24.321C54.5356 20.3372 58.6271 17.3224 63.0416 15.1689" stroke="#00DCE6" stroke-miterlimit="10"/>
<path d="M71.5479 16.6748L74.5626 27.9803" stroke="#00DCE6" stroke-miterlimit="10"/>
<path d="M97.6045 20.4443L91.6826 30.5654" stroke="#00DCE6" stroke-miterlimit="10"/>
<path d="M113.324 41.5479L102.019 44.455" stroke="#00DCE6" stroke-miterlimit="10"/>
<path d="M109.556 67.4971L99.4346 61.5752" stroke="#00DCE6" stroke-miterlimit="10"/>
<path d="M88.452 83.2166L85.5449 71.9111" stroke="#00DCE6" stroke-miterlimit="10"/>
<path d="M62.3955 79.449L68.3174 69.4355" stroke="#00DCE6" stroke-miterlimit="10"/>
<path d="M46.6758 58.3436L58.0889 55.4365" stroke="#00DCE6" stroke-miterlimit="10"/>
<path d="M50.5518 32.3965L60.5652 38.3184" stroke="#00DCE6" stroke-miterlimit="10"/>
<path d="M80 68.0886C89.931 68.0886 97.9999 60.0196 97.9999 50.0886C97.9999 40.1576 89.931 32 80 32C70.0689 32 62 40.0689 62 50C62 60.0196 70.0689 68.0886 80 68.0886Z" stroke="#00DCE6" stroke-miterlimit="10" stroke-linejoin="round"/>
<path d="M80.0004 32C75.0349 32 70.9561 40.0689 70.9561 50C70.9561 59.931 75.0349 67.9999 80.0004 67.9999C84.9659 67.9999 89.0447 59.931 89.0447 50C89.0447 40.0689 84.9659 32 80.0004 32Z" stroke="#00DCE6" stroke-miterlimit="10" stroke-linejoin="round"/>
<path d="M96.4929 44.0586H63.5078" stroke="#00DCE6" stroke-miterlimit="10" stroke-linejoin="round"/>
<path d="M96.4929 56.0293H63.5078" stroke="#00DCE6" stroke-miterlimit="10" stroke-linejoin="round"/>
<path d="M80 32V68.0886" stroke="#00DCE6" stroke-miterlimit="10" stroke-linejoin="round"/>
</svg>
