<svg width="130" height="130" viewBox="0 0 130 130" fill="none" xmlns="http://www.w3.org/2000/svg">
<path fill-rule="evenodd" clip-rule="evenodd" d="M19.8612 0H130V110.139C116.2 122.49 97.9772 130 78 130C34.9218 130 0 95.0782 0 52C0 32.0228 7.51019 13.7997 19.8612 0Z" fill="#00DCE6" fill-opacity="0.1"/>
<path d="M120 22.6165V10H107.374" stroke="#00DCE6"/>
<path d="M52.6261 10H40V22.6165" stroke="#00DCE6"/>
<path d="M107.374 89.9398H120V77.3232" stroke="#00DCE6"/>
<path d="M40 77.3838V90.0003H52.6261" stroke="#00DCE6"/>
<path d="M105.794 52.2231C103.935 50.7381 101.076 49.847 97.9307 49.253V47.1739C100.504 46.1344 102.22 43.4613 102.22 40.3427V37.3726C102.22 33.2144 99.2174 29.9473 95.0713 29.9473C90.9252 29.9473 87.9228 33.2144 87.9228 37.3726V40.3427C87.9228 43.4613 89.6385 46.1344 92.2119 47.1739V49.253C86.6361 50.1441 82.2041 52.2231 82.2041 56.6783V74.8698" stroke="#00DCE6" stroke-miterlimit="10"/>
<path d="M87.6929 32.8579C86.1544 32.1675 83.8196 30.8734 81.2113 30.3841V28.6714C83.3453 27.8151 84.768 25.613 84.768 23.044V20.5973C84.768 17.1719 82.2783 14.4805 78.8401 14.4805C75.4019 14.4805 72.9121 17.1719 72.9121 20.5973V23.044C72.9121 25.613 74.3349 27.8151 76.4689 28.6714V30.3841C74.4241 30.7087 71.1821 32.0658 69.7441 32.8579" stroke="#00DCE6" stroke-miterlimit="10"/>
<path d="M72.8209 51.7455C71.4351 50.1905 66.5267 49.3174 65.5011 49.1696V47.0995C68.1384 46.0644 69.8967 43.4029 69.8967 40.2977V37.3405C69.8967 33.2003 66.8197 29.9473 62.5706 29.9473C58.3215 29.9473 55.2446 33.2003 55.2446 37.3405V40.2977C55.2446 43.4029 57.0029 46.0644 59.6402 47.0995V49.1696C53.9259 50.0568 49.3838 52.1269 49.3838 56.5628V75.2277H103.59" stroke="#00DCE6" stroke-miterlimit="10"/>
<path d="M60.666 59.223L66.963 65.4913L79.557 51.3877" stroke="#00DCE6"/>
<path d="M93.4863 59.223L99.7833 65.4913L112.377 51.3877" stroke="#00DCE6"/>
</svg>
