<svg width="130" height="130" viewBox="0 0 130 130" fill="none" xmlns="http://www.w3.org/2000/svg">
<path fill-rule="evenodd" clip-rule="evenodd" d="M19.8612 0H130V110.139C116.2 122.49 97.9772 130 78 130C34.9218 130 0 95.0782 0 52C0 32.0228 7.51019 13.7997 19.8612 0Z" fill="#00DCE6" fill-opacity="0.1"/>
<path d="M120 45.9766H108.008L101.169 52.8152L108.008 59.6539H120L113.161 52.8152L120 45.9766Z" stroke="#00DCE6" stroke-miterlimit="10"/>
<path d="M70.3457 52.8159L94.3306 28.8311" stroke="#00DCE6" stroke-miterlimit="10"/>
<path d="M70.3457 52.8164H101.169" stroke="#00DCE6" stroke-miterlimit="10"/>
<path d="M79.166 57.9706C77.382 61.0431 74.1114 63.1244 70.246 63.1244C64.5967 63.1244 59.9385 58.5653 59.9385 52.8168C59.9385 47.0684 64.5967 42.6084 70.3451 42.6084C71.5345 42.6084 72.7238 42.8066 73.7149 43.2031" stroke="#00DCE6" stroke-miterlimit="10"/>
<path d="M104.539 10L94.3301 20.3075V28.8311H102.854L113.161 18.6227H104.539V10Z" stroke="#00DCE6" stroke-miterlimit="10"/>
<path d="M91.0844 56.7092C89.3255 66.3072 80.7505 73.6147 70.5265 73.6147C58.9832 73.6147 49.6387 64.3439 49.6387 52.8918C49.6387 41.4397 58.9832 32.1689 70.5265 32.1689C74.704 32.1689 78.6617 33.3687 81.9598 35.55" stroke="#00DCE6" stroke-miterlimit="10"/>
<path d="M88.1924 41.8076C89.5349 44.1544 90.5676 46.7247 91.0839 49.5185" stroke="#00DCE6" stroke-miterlimit="10"/>
<path d="M100.723 56.68C98.8494 71.6137 86.0656 83.2531 70.5267 83.2531C53.6654 83.2531 40 69.6372 40 52.8368C40 36.0364 53.6654 22.5303 70.4165 22.5303C77.5798 22.5303 84.1921 25.0558 89.482 29.2285" stroke="#00DCE6" stroke-miterlimit="10"/>
<path d="M93.9756 34.0967C97.5817 38.455 100.025 43.7073 100.723 49.5184" stroke="#00DCE6" stroke-miterlimit="10"/>
</svg>
