<svg width="130" height="130" viewBox="0 0 130 130" fill="none" xmlns="http://www.w3.org/2000/svg">
<path fill-rule="evenodd" clip-rule="evenodd" d="M19.8612 0H130V110.139C116.2 122.49 97.9772 130 78 130C34.9218 130 0 95.0782 0 52C0 32.0228 7.51019 13.7997 19.8612 0Z" fill="#00DCE6" fill-opacity="0.1"/>
<path d="M43.4463 44.0002C45.9945 28.3484 58.3483 15.9945 74.0001 13.4463M43.4463 56C45.9945 71.6518 58.3483 84.0057 74.0001 86.5539M86.0002 86.5539C101.652 84.0057 114.006 71.6518 116.554 56M116.554 44.0002C114.006 28.3484 101.652 15.9945 86.0002 13.4463M60.141 44.0002C62.1419 37.3718 67.3717 32.142 74.0001 30.141M60.141 56C62.1419 62.6284 67.3717 67.8582 74.0001 69.8591M86.0002 69.8591C92.6285 67.8582 97.8583 62.6284 99.8592 56M99.8592 44.0002C97.8583 37.3718 92.6285 32.142 86.0002 30.141" stroke="#00DCE6" stroke-miterlimit="10"/>
<path d="M42.9629 27.7777V20.3703C42.9629 16.2814 46.2814 12.9629 50.3703 12.9629H57.7777" stroke="#00DCE6" stroke-miterlimit="10" stroke-linecap="round"/>
<path d="M117.037 26.2962V20.3703C117.037 16.2814 113.719 12.9629 109.63 12.9629H102.223" stroke="#00DCE6" stroke-miterlimit="10" stroke-linecap="round"/>
<path d="M42.9629 72.2227V79.6301C42.9629 83.719 46.2814 87.0375 50.3703 87.0375H56.2962" stroke="#00DCE6" stroke-miterlimit="10" stroke-linecap="round"/>
<path d="M117.037 72.2227V79.6301C117.037 83.719 113.719 87.0375 109.63 87.0375H102.223" stroke="#00DCE6" stroke-miterlimit="10" stroke-linecap="round"/>
<path d="M82.9631 10H77.0372C75.4076 10 74.0742 11.3333 74.0742 12.963V30.7407C74.0742 32.3704 75.4076 33.7037 77.0372 33.7037H82.9631C84.5927 33.7037 85.9261 32.3704 85.9261 30.7407V12.963C85.9261 11.3333 84.5927 10 82.9631 10Z" stroke="#00DCE6" stroke-miterlimit="10"/>
<path d="M82.9631 66.2959H77.0372C75.4076 66.2959 74.0742 67.6292 74.0742 69.2589V87.0366C74.0742 88.6663 75.4076 89.9996 77.0372 89.9996H82.9631C84.5927 89.9996 85.9261 88.6663 85.9261 87.0366V69.2589C85.9261 67.6292 84.5927 66.2959 82.9631 66.2959Z" stroke="#00DCE6" stroke-miterlimit="10"/>
<path d="M120 52.9631V47.0372C120 45.4076 118.666 44.0742 117.037 44.0742H99.2589C97.6292 44.0742 96.2959 45.4076 96.2959 47.0372V52.9631C96.2959 54.5927 97.6292 55.9261 99.2589 55.9261H117.037C118.666 55.9261 120 54.5927 120 52.9631Z" stroke="#00DCE6" stroke-miterlimit="10"/>
<path d="M63.7037 52.9631V47.0372C63.7037 45.4076 62.3704 44.0742 60.7407 44.0742H42.963C41.3333 44.0742 40 45.4076 40 47.0372V52.9631C40 54.5927 41.3333 55.9261 42.963 55.9261H60.7407C62.3704 55.9261 63.7037 54.5927 63.7037 52.9631Z" stroke="#00DCE6" stroke-miterlimit="10"/>
</svg>
