<svg width="130" height="130" viewBox="0 0 130 130" fill="none" xmlns="http://www.w3.org/2000/svg">
<path fill-rule="evenodd" clip-rule="evenodd" d="M19.8612 0H130V110.139C116.2 122.49 97.9772 130 78 130C34.9218 130 0 95.0782 0 52C0 32.0228 7.51019 13.7997 19.8612 0Z" fill="#00DCE6" fill-opacity="0.1"/>
<path d="M76.7158 10.182C98.4307 8.09218 117.728 24.0015 119.818 45.7164C121.908 67.4313 105.998 86.7289 84.2835 88.8186C62.5686 90.9084 43.2711 74.9991 41.1813 53.2842C39.9135 40.1104 45.2702 27.8264 54.5288 19.7345" stroke="#00DCE6" stroke-miterlimit="10"/>
<path d="M58.2953 21.7973C52.9095 26.1064 48.7203 32.0268 46.5515 39.1207C40.8192 57.8701 51.3717 77.7164 70.1211 83.4487C88.8705 89.181 108.717 78.6285 114.449 59.8791C120.181 41.1297 109.629 21.2833 90.8795 15.5511C85.9399 14.0409 80.9243 13.661 76.1106 14.2635" stroke="#00DCE6" stroke-miterlimit="10"/>
<path d="M73.7991 57.1982V61.998L62.9672 66.214C59.7242 67.0572 57.0649 69.3922 57 71.792V76" stroke="#00DCE6" stroke-miterlimit="10"/>
<path d="M75.9396 58.3658C74.9019 57.8469 68.9995 55.8362 68.9995 51.1662C68.9995 50.5824 68.9995 48.7663 68.9995 48.7663L67.6374 47.0799C66.9888 46.6259 66.5996 45.9124 66.5996 45.0692V40.3344L68.9995 39.1668V36.767C68.9995 30.7997 73.7992 26 79.7665 26H82.1663C86.7715 26 90.6632 28.8539 92.2198 32.8753" stroke="#00DCE6" stroke-miterlimit="10"/>
<path d="M89.625 62.5166L99.0299 66.2137C102.273 67.0569 104.932 69.3919 104.997 71.7918V75.2294" stroke="#00DCE6" stroke-miterlimit="10"/>
<path d="M89.3661 62.5173C86.6419 64.8523 82.5556 64.8523 79.8314 62.5173C76.1992 59.404 72.6318 54.9934 72.6318 47.6641V34.6918C80.026 30.9947 88.912 30.865 96.5657 34.6918V47.6641C96.5657 54.9934 92.9983 59.404 89.3661 62.5173Z" stroke="#00DCE6" stroke-miterlimit="10"/>
<path d="M84.3064 52.853V50.2586C84.3064 49.2857 84.8901 48.3776 85.8631 48.0533C87.8089 47.3398 89.171 45.2643 88.717 42.9941C88.3927 41.2428 86.9657 39.8808 85.2793 39.5565C82.9443 39.1024 80.8687 40.4645 80.1553 42.4104" stroke="#00DCE6" stroke-miterlimit="10"/>
<path d="M84.3066 54.5391V57.0687" stroke="#00DCE6" stroke-miterlimit="10"/>
<path d="M84.6309 64.2686V75.2301" stroke="#00DCE6" stroke-miterlimit="10"/>
</svg>
