<svg width="130" height="130" viewBox="0 0 130 130" fill="none" xmlns="http://www.w3.org/2000/svg">
<path fill-rule="evenodd" clip-rule="evenodd" d="M19.8612 0H130V110.139C116.2 122.49 97.9772 130 78 130C34.9218 130 0 95.0782 0 52C0 32.0228 7.51019 13.7997 19.8612 0Z" fill="#00DCE6" fill-opacity="0.1"/>
<path d="M115.409 62.0953C116.682 58.2757 117.318 54.1378 117.318 49.8937C117.318 34.5091 108.724 21.1404 95.9922 14.4561" stroke="#00DCE6" stroke-miterlimit="10"/>
<path d="M73.0743 10C52.809 12.0159 37 29.0981 37 49.8939C37 72.069 54.931 90 77.1061 90C77.5305 90 77.9549 90 78.3793 90" stroke="#00DCE6" stroke-miterlimit="10"/>
<path d="M41.1377 67.506L76.5754 32.0684L99.5992 53.7129" stroke="#00DCE6" stroke-miterlimit="10"/>
<path d="M53.0215 81.9367L68.6183 66.3399L81.3504 79.072L106.602 53.7139L119.547 66.6582" stroke="#00DCE6" stroke-miterlimit="10"/>
<path d="M60.5547 48.0895L66.2841 53.7128L71.9075 48.0895L77.3186 53.6067L82.6237 48.3017L87.9287 53.6067L93.552 47.9834" stroke="#00DCE6" stroke-miterlimit="10"/>
<path d="M76.5752 32.0693V15.5176H88.4585V23.7934H76.5752" stroke="#00DCE6" stroke-miterlimit="10"/>
</svg>
