<svg width="130" height="130" viewBox="0 0 130 130" fill="none" xmlns="http://www.w3.org/2000/svg">
<path fill-rule="evenodd" clip-rule="evenodd" d="M19.8612 0H130V110.139C116.2 122.49 97.9772 130 78 130C34.9218 130 0 95.0782 0 52C0 32.0228 7.51019 13.7997 19.8612 0Z" fill="#00DCE6" fill-opacity="0.1"/>
<circle cx="79" cy="54" r="37.5" transform="rotate(-180 79 54)" stroke="#00DCE6"/>
<circle cx="79" cy="54" r="32.5" transform="rotate(-180 79 54)" stroke="#00DCE6"/>
<path d="M92 77L53 44.5L96.5 36" stroke="#00DCE6"/>
<path d="M105.5 58L63 74.5L75.5 27" stroke="#00DCE6"/>
<path d="M92.011 39.9338L96.735 35.6113L90.6573 34.6416" stroke="#00DCE6"/>
<path d="M86.8079 75.5713L92.6718 78.1432L91.2153 72.1325" stroke="#00DCE6"/>
<path d="M101.077 62.8254L105.301 58.0128L99.1308 57.585" stroke="#00DCE6"/>
<path d="M76.7732 33.1641L75.559 26.8771L71.4395 31.4902" stroke="#00DCE6"/>
<path d="M71 55L74 44" stroke="#00DCE6"/>
<path d="M94 58.5L80.5 64" stroke="#00DCE6"/>
</svg>
