<svg width="130" height="130" viewBox="0 0 130 130" fill="none" xmlns="http://www.w3.org/2000/svg">
<path fill-rule="evenodd" clip-rule="evenodd" d="M19.8612 0H130V110.139C116.2 122.49 97.9772 130 78 130C34.9218 130 0 95.0782 0 52C0 32.0228 7.51019 13.7997 19.8612 0Z" fill="#00DCE6" fill-opacity="0.1"/>
<path d="M70 87H42V20H90" stroke="#00DCE6" stroke-miterlimit="10"/>
<path d="M81 48.6L83.6667 51L89 45" stroke="#00DCE6" stroke-miterlimit="10"/>
<path d="M81 39.6L83.6667 42L89 36" stroke="#00DCE6" stroke-miterlimit="10"/>
<path d="M81 29.6L83.6667 32L89 26" stroke="#00DCE6" stroke-miterlimit="10"/>
<path d="M50 29H75" stroke="#00DCE6" stroke-miterlimit="10"/>
<path d="M50 39H75" stroke="#00DCE6" stroke-miterlimit="10"/>
<path d="M50 48H75" stroke="#00DCE6" stroke-miterlimit="10"/>
<path d="M82.4292 88.5611C81.0578 86.9463 78.5316 87.0539 77.3214 88.7771L77.3195 88.7844C76.9117 89.3655 76.0061 89.217 75.8028 88.5349L75.7974 88.5256C75.2057 86.5 72.8527 85.5793 71.0418 86.663C70.4307 87.0327 69.6599 86.5281 69.7541 85.8237L69.758 85.8091C70.042 83.7201 68.262 81.9252 66.167 82.1875C65.4589 82.2723 64.9635 81.5042 65.3385 80.8986L65.3498 80.886C66.4595 79.0966 65.563 76.7383 63.5446 76.1269C62.8596 75.9198 62.7225 75.0201 63.3121 74.6133L63.3307 74.6026C65.0749 73.4147 65.2179 70.9113 63.6195 69.526C63.0825 69.0605 63.3179 68.1822 64.023 68.0495L64.0471 68.0481C66.1254 67.6714 67.2734 65.4452 66.3827 63.5356L66.3774 63.5263C66.0775 62.8812 66.6534 62.1725 67.3483 62.343L67.3703 62.349C69.4182 62.8506 71.3825 61.2824 71.3475 59.1785L71.3494 59.1711C71.3348 58.4612 72.1533 58.0529 72.7221 58.4878L72.7349 58.499C74.4067 59.7864 76.8379 59.1513 77.662 57.2226L77.6659 57.208C77.9438 56.5529 78.8597 56.5159 79.1968 57.1396L79.2022 57.1489C80.2026 59.0016 82.6836 59.4154 84.2324 57.9869L84.2436 57.9742C84.7661 57.4944 85.6153 57.824 85.6686 58.5364L85.6666 58.5438C85.8217 60.6406 87.9238 62.0276 89.9184 61.3461L89.937 61.3354C90.6123 61.1084 91.2571 61.7597 91.0159 62.4246L91.0139 62.432C90.2962 64.4048 91.6578 66.5269 93.7566 66.7205L93.7787 66.7264C94.4863 66.7905 94.8086 67.6457 94.317 68.1572C92.8555 69.6719 93.2296 72.1569 95.0734 73.1844L95.0862 73.1957C95.71 73.5433 95.6549 74.4542 94.9919 74.7237C93.0326 75.5088 92.3594 77.9329 93.6318 79.6231L93.6446 79.6343C94.0747 80.2046 93.6522 81.0171 92.9348 80.9896C90.8193 80.917 89.2127 82.8556 89.6931 84.9141L89.6985 84.9234C89.8591 85.6176 89.1397 86.1857 88.4987 85.8728C86.596 84.9472 84.3324 86.0743 83.9288 88.1392L83.9268 88.1465C83.7767 88.8829 82.8892 89.108 82.4292 88.5611Z" stroke="#00DCE6" stroke-miterlimit="10"/>
<path d="M79.0002 83.6124C84.884 83.6124 89.6538 78.8628 89.6538 73.0039C89.6538 67.1451 84.884 62.3955 79.0002 62.3955C73.1164 62.3955 68.3467 67.1451 68.3467 73.0039C68.3467 78.8628 73.1164 83.6124 79.0002 83.6124Z" stroke="#00DCE6" stroke-miterlimit="10"/>
<path d="M75.1953 73.0045L78.2392 76.0355L83.566 69.2158" stroke="#00DCE6" stroke-miterlimit="10"/>
<path d="M101.379 34.6572L101.65 34.7968V35.1018V68.5H104.104L110.151 59.5594L108.127 55.8757L107.937 55.5303L108.229 55.2651L112.421 51.45L108.952 47.6615L108.683 47.3683L108.908 47.0407L112.35 42.0301V35.1018V34.7968L112.621 34.6572C116.699 32.5579 119.5 28.2441 119.5 23.2584C119.5 16.2028 113.894 10.5 107 10.5C100.106 10.5 94.5 16.2028 94.5 23.2584C94.5 28.2441 97.3009 32.5579 101.379 34.6572Z" stroke="#00DCE6"/>
<path d="M113.5 17.5H100.5V21.5H113.5V17.5Z" stroke="#00DCE6"/>
</svg>
