<svg width="130" height="130" viewBox="0 0 130 130" fill="none" xmlns="http://www.w3.org/2000/svg">
<path fill-rule="evenodd" clip-rule="evenodd" d="M19.8612 0H130V110.139C116.2 122.49 97.9772 130 78 130C34.9218 130 0 95.0782 0 52C0 32.0228 7.51019 13.7997 19.8612 0Z" fill="#00DCE6" fill-opacity="0.1"/>
<path d="M47.4618 39C47.4618 40.3837 46.348 41.5 44.9809 41.5C43.6137 41.5 42.5 40.3837 42.5 39C42.5 37.6163 43.6137 36.5 44.9809 36.5C46.348 36.5 47.4618 37.6163 47.4618 39Z" stroke="#00DCE6"/>
<path d="M50.4364 67.4004C50.4364 68.7841 49.3227 69.9004 47.9555 69.9004C46.5883 69.9004 45.4746 68.7841 45.4746 67.4004C45.4746 66.0167 46.5883 64.9004 47.9555 64.9004C49.3227 64.9004 50.4364 66.0167 50.4364 67.4004Z" stroke="#00DCE6"/>
<path d="M76.2772 74C76.2772 75.3837 75.1635 76.5 73.7963 76.5C72.4292 76.5 71.3154 75.3837 71.3154 74C71.3154 72.6163 72.4292 71.5 73.7963 71.5C75.1635 71.5 76.2772 72.6163 76.2772 74Z" stroke="#00DCE6"/>
<path d="M87.2069 86.4004C87.2069 87.7841 86.0932 88.9004 84.726 88.9004C83.3589 88.9004 82.2451 87.7841 82.2451 86.4004C82.2451 85.0167 83.3589 83.9004 84.726 83.9004C86.0932 83.9004 87.2069 85.0167 87.2069 86.4004Z" stroke="#00DCE6"/>
<path d="M93.8678 16.5L89.7939 25.1C89.7939 25.1 93.4704 28.6 97.8424 30.8C102.214 33 106.884 33.1 106.884 33.1L110.66 25" stroke="#00DCE6" stroke-miterlimit="10"/>
<path d="M87.707 10L100.922 23.7L120 26L106.387 11.7L87.707 10Z" stroke="#00DCE6" stroke-miterlimit="10"/>
<path d="M86.9593 17.4004H60.8789V52.4004H106.586V32.7565" stroke="#00DCE6" stroke-miterlimit="10"/>
<path d="M64.8535 46.4004H102.611" stroke="#00DCE6" stroke-miterlimit="10"/>
<path d="M82.2421 52.4992L82.2422 60.5" stroke="#00DCE6" stroke-miterlimit="10"/>
<path d="M86.415 52.3008V60.0008" stroke="#00DCE6" stroke-miterlimit="10"/>
<path d="M69.4238 60.5H98.7359" stroke="#00DCE6" stroke-miterlimit="10"/>
<path d="M65 53V67H50" stroke="#00DCE6"/>
<path d="M84.7266 60.4004L84.7266 84.4004" stroke="#00DCE6"/>
<path d="M47 39L61 39" stroke="#00DCE6"/>
<path d="M74 61L74 72" stroke="#00DCE6"/>
</svg>
