<svg width="72" height="60" viewBox="0 0 72 60" fill="none" xmlns="http://www.w3.org/2000/svg">
<rect width="60" height="72" rx="30" transform="matrix(4.37114e-08 1 1 -4.37114e-08 0 0)" fill="#1F2432"/>
<path d="M52.2508 38.2762L45.2398 33.3613L38.2288 38.2762" stroke="#00DCE6" stroke-miterlimit="10"/>
<path d="M40.3319 36.873V45.2986H50.1473V36.873" stroke="#00DCE6" stroke-miterlimit="10"/>
<path d="M47.3428 39.6807H43.1362V45.2977H47.3428V39.6807Z" stroke="#00DCE6" stroke-miterlimit="10"/>
<path d="M26.3099 22.8298C26.3099 26.3404 29.1143 29.1489 32.6198 29.1489C36.1254 29.1489 38.9298 26.3404 38.9298 22.8298V19.3191C38.9298 15.8085 36.1254 13 32.6198 13C29.1143 13 26.3099 15.8085 26.3099 19.3191V22.8298Z" stroke="#00DCE6" stroke-miterlimit="10"/>
<path d="M34.7232 16.5107C34.7232 18.4767 33.1807 20.0214 31.2176 20.0214H26.3099" stroke="#00DCE6" stroke-miterlimit="10"/>
<path d="M29.8154 35.4688L31.2176 38.2773L29.8154 46.0007" stroke="#00DCE6" stroke-miterlimit="10"/>
<path d="M35.4242 35.4688L34.022 38.2773L35.4242 46.0007" stroke="#00DCE6" stroke-miterlimit="10"/>
<path d="M44.0478 34.2046C43.4869 33.5727 42.7858 33.011 41.8744 32.7301C40.8227 32.3791 39.7009 32.0982 38.5792 31.8174L36.8264 36.1706L32.6198 32.6599L28.4132 36.1706L26.6605 31.8876C25.5387 32.0982 24.4169 32.4493 23.3653 32.8004C21.3321 33.5025 20 35.328 20 37.4344V46.0004" stroke="#00DCE6" stroke-miterlimit="10"/>
</svg>
