<svg width="72" height="60" viewBox="0 0 72 60" fill="none" xmlns="http://www.w3.org/2000/svg">
<rect width="60" height="72" rx="30" transform="matrix(4.37114e-08 1 1 -4.37114e-08 0 0)" fill="#1F2432"/>
<path d="M52.2507 38.2762L45.2397 33.3613L38.2286 38.2762" stroke="#00DCE6" stroke-miterlimit="10"/>
<path d="M40.332 36.873V45.2986H50.1475V36.873" stroke="#00DCE6" stroke-miterlimit="10"/>
<path d="M47.3431 39.6816H43.1365V45.2987H47.3431V39.6816Z" stroke="#00DCE6" stroke-miterlimit="10"/>
<path d="M28.5535 21.4259H27.0812C27.0812 21.6365 27.0111 21.9174 27.0111 22.128V24.9366C27.0111 28.0259 29.5351 30.5536 32.6199 30.5536C35.7048 30.5536 38.2288 28.0259 38.2288 24.9366V22.128C38.2288 20.8642 37.8081 19.6706 37.107 18.7578C34.583 20.5131 31.6384 21.4259 28.5535 21.4259Z" stroke="#00DCE6" stroke-miterlimit="10"/>
<path d="M24.2065 34.766V21.4256C24.2065 16.7915 27.9925 13 32.6198 13C37.2471 13 41.033 16.7915 41.033 21.4256V34.766" stroke="#00DCE6" stroke-miterlimit="10"/>
<path d="M32.6199 43.8936L35.7748 33.5723C37.808 33.7829 39.8412 34.2744 41.8043 34.9063C42.0848 34.9765 42.2951 35.117 42.5054 35.1872" stroke="#00DCE6" stroke-miterlimit="10"/>
<path d="M20 46V39.5404C20 37.434 21.3321 35.5382 23.3653 34.9063C25.3284 34.2744 27.3616 33.7829 29.4649 33.5723L32.6199 43.8936" stroke="#00DCE6" stroke-miterlimit="10"/>
<path d="M36.8264 39.19L32.6197 43.8943L26.3098 36.873V34.0645" stroke="#00DCE6" stroke-miterlimit="10"/>
</svg>
