<?xml version="1.0" encoding="utf-8"?>
<!-- Generator: Adobe Illustrator 19.0.0, SVG Export Plug-In . SVG Version: 6.00 Build 0)  -->
<svg version="1.1" id="图层_1" xmlns="http://www.w3.org/2000/svg" xmlns:xlink="http://www.w3.org/1999/xlink" x="0px" y="0px"
	 viewBox="-132 377.9 330 87" style="enable-background:new -132 377.9 330 87;" xml:space="preserve">
<style type="text/css">
	.st0{fill:#818592;}
	.st1{opacity:0.1;fill:#1F2432;enable-background:new    ;}
	.st2{opacity:0.2;fill:#1F2432;enable-background:new    ;}
	.st3{fill:#1F2432;}
	.st4{fill:#FFFFFF;}
	.st5{font-family:'PingFang-SC-Heavy';}
	.st6{font-size:24.25px;}
</style>
<path class="st0" d="M198,387.9h-299v63h299V387.9z"/>
<circle class="st1" cx="-76" cy="418.9" r="36"/>
<circle class="st2" cx="-86" cy="418.9" r="36"/>
<ellipse class="st3" cx="-96" cy="418.9" rx="36" ry="36.1"/>
<path class="st4" d="M-112.1,422.3c0,1.2-0.4,2.1-1.3,3c-0.8,0.8-2.1,1.3-3.7,1.5v2.4h-1.8v-2.4c-1.1-0.1-2.1-0.3-3-0.6
	c-0.9-0.3-1.7-0.7-2.2-1.2l1-2.2c0.5,0.4,1.2,0.8,1.9,1.1c0.8,0.3,1.5,0.5,2.4,0.5v-4.3c-1-0.2-1.9-0.5-2.5-0.8
	c-0.7-0.3-1.2-0.7-1.7-1.3c-0.5-0.6-0.7-1.3-0.7-2.2c0-1.2,0.4-2.1,1.3-3c0.8-0.8,2.1-1.3,3.7-1.5V409h1.8v2.4
	c0.8,0,1.6,0.2,2.3,0.4c0.8,0.2,1.4,0.5,2,0.9l-0.9,2.2c-1.1-0.6-2.2-1-3.5-1.2v4.3c1,0.2,1.9,0.5,2.5,0.8c0.7,0.3,1.3,0.7,1.7,1.3
	C-112.4,420.6-112.1,421.3-112.1,422.3z M-121,415.7c0,0.5,0.2,0.8,0.6,1.1s0.9,0.5,1.6,0.7v-3.8c-0.7,0.1-1.3,0.3-1.6,0.7
	C-120.9,414.7-121,415.2-121,415.7z M-117.1,424.3c0.8-0.1,1.3-0.3,1.7-0.7c0.4-0.3,0.6-0.7,0.6-1.2c0-0.5-0.2-0.9-0.6-1.2
	c-0.4-0.3-0.9-0.5-1.6-0.7V424.3z"/>
<path class="st4" d="M-96.9,423.1h-2.7v3.4h-2.7v-3.4h-8.2v-1.9l7.4-9.7h3l-7,9.2h4.9v-3h2.6v3h2.7V423.1z"/>
<path class="st4" d="M-89.5,426.7c-1.2,0-2.3-0.3-3.2-0.9c-0.9-0.6-1.7-1.5-2.2-2.7c-0.5-1.2-0.8-2.6-0.8-4.2s0.3-3,0.8-4.1
	c0.5-1.2,1.3-2.1,2.2-2.7c0.9-0.6,2-0.9,3.2-0.9c1.2,0,2.3,0.3,3.2,0.9c1,0.6,1.7,1.5,2.2,2.7c0.5,1.2,0.8,2.5,0.8,4.1
	s-0.3,3-0.8,4.2c-0.5,1.2-1.3,2-2.2,2.7C-87.2,426.4-88.3,426.7-89.5,426.7z M-89.5,424.3c1.1,0,1.9-0.4,2.5-1.3
	c0.6-0.9,0.9-2.2,0.9-4c0-1.8-0.3-3.1-0.9-4c-0.6-0.9-1.5-1.3-2.5-1.3c-1.1,0-1.9,0.4-2.5,1.3c-0.6,0.9-0.9,2.2-0.9,4
	c0,1.8,0.3,3.1,0.9,4C-91.4,423.9-90.5,424.3-89.5,424.3z"/>
<path class="st4" d="M-71.6,418.6c0.8,0.4,1.4,0.8,1.8,1.5c0.4,0.6,0.6,1.3,0.6,2.1c0,0.9-0.3,1.7-0.8,2.4c-0.5,0.7-1.2,1.2-2.1,1.6
	c-0.9,0.4-2,0.5-3.2,0.5c-1.2,0-2.3-0.2-3.2-0.5c-0.9-0.4-1.6-0.9-2.1-1.6c-0.5-0.7-0.7-1.5-0.7-2.4c0-0.8,0.2-1.5,0.6-2.1
	c0.4-0.6,1-1.1,1.8-1.5c-0.6-0.3-1.1-0.8-1.4-1.3c-0.3-0.5-0.5-1.2-0.5-1.9c0-0.8,0.2-1.6,0.7-2.2c0.5-0.6,1.1-1.1,2-1.5
	c0.8-0.3,1.8-0.5,2.9-0.5c1.1,0,2.1,0.2,2.9,0.5s1.5,0.8,2,1.5s0.7,1.4,0.7,2.2c0,0.7-0.2,1.3-0.5,1.8
	C-70.5,417.9-71,418.3-71.6,418.6z M-75.3,413.5c-0.9,0-1.6,0.2-2.1,0.6c-0.5,0.4-0.7,0.9-0.7,1.6c0,0.6,0.2,1.2,0.7,1.5
	c0.5,0.4,1.2,0.6,2.1,0.6c0.9,0,1.6-0.2,2.1-0.6c0.5-0.4,0.8-0.9,0.8-1.5c0-0.7-0.3-1.2-0.8-1.6C-73.7,413.7-74.4,413.5-75.3,413.5z
	 M-75.3,424.5c1,0,1.8-0.2,2.4-0.6c0.6-0.4,0.9-1,0.9-1.8c0-0.7-0.3-1.3-0.9-1.8c-0.6-0.4-1.4-0.6-2.4-0.6c-1,0-1.8,0.2-2.4,0.6
	c-0.6,0.4-0.9,1-0.9,1.8c0,0.8,0.3,1.3,0.9,1.8C-77.1,424.3-76.3,424.5-75.3,424.5z"/>
<text transform="matrix(1 0 0 1 -1.964569e-004 426.2284)" class="st4 st5 st6">每条记录</text>
</svg>
