<svg width="330" height="87" viewBox="0 0 330 87" fill="none" xmlns="http://www.w3.org/2000/svg">
<path d="M330 10H31V73H330V10Z" fill="#818592"/>
<circle opacity="0.1" cx="56" cy="41" r="36" fill="#1F2432"/>
<circle opacity="0.2" cx="46" cy="41" r="36" fill="#1F2432"/>
<ellipse cx="36" cy="41.0406" rx="36" ry="36.1216" fill="#1F2432"/>
<path d="M19.8525 44.383C19.8525 45.5389 19.4243 46.5236 18.5679 47.337C17.7258 48.1361 16.4983 48.6213 14.8854 48.7925V51.1899H13.1298V48.8139C12.0736 48.7426 11.0745 48.5499 10.1325 48.236C9.19045 47.922 8.44111 47.5225 7.88446 47.0373L8.8479 44.8753C9.376 45.3034 10.0183 45.6673 10.7748 45.967C11.5312 46.2524 12.3163 46.4308 13.1298 46.5021V42.2211C12.1164 41.9785 11.2672 41.7145 10.5821 41.4291C9.91124 41.1294 9.34746 40.7013 8.89072 40.1447C8.43398 39.5739 8.20561 38.8247 8.20561 37.8972C8.20561 36.7413 8.62666 35.7566 9.46878 34.9432C10.3109 34.1298 11.5312 33.6446 13.1298 33.4877V31.0688H14.8854V33.4448C15.6847 33.4877 16.4626 33.6232 17.2191 33.8516C17.9898 34.0799 18.6607 34.3796 19.2316 34.7506L18.3538 36.9125C17.269 36.2846 16.1129 35.8993 14.8854 35.7566V40.0805C15.9131 40.3231 16.7623 40.5871 17.4332 40.8725C18.1183 41.1579 18.6892 41.586 19.146 42.1568C19.617 42.7134 19.8525 43.4554 19.8525 44.383ZM10.9675 37.7687C10.9675 38.2397 11.153 38.6178 11.5241 38.9032C11.8952 39.1886 12.4305 39.4312 13.1298 39.631V35.8208C12.4019 35.935 11.8595 36.1633 11.5027 36.5058C11.1459 36.8483 10.9675 37.2693 10.9675 37.7687ZM14.8854 46.4593C15.6419 46.3452 16.1986 46.124 16.5554 45.7958C16.9265 45.4676 17.112 45.0608 17.112 44.5757C17.112 44.0905 16.9193 43.7052 16.534 43.4198C16.1486 43.1201 15.5991 42.8704 14.8854 42.6706V46.4593Z" fill="white"/>
<path d="M35.1106 45.2178H32.4558V48.6213H29.7581V45.2178H21.5368V43.2913L28.9232 33.6375H31.8991L24.941 42.8632H29.8438V39.8451H32.4558V42.8632H35.1106V45.2178Z" fill="white"/>
<path d="M42.5335 48.8353C41.3346 48.8353 40.2641 48.5357 39.3221 47.9363C38.3801 47.3227 37.6378 46.4379 37.0955 45.282C36.5531 44.1119 36.2819 42.7277 36.2819 41.1294C36.2819 39.5311 36.5531 38.154 37.0955 36.9981C37.6378 35.828 38.3801 34.9432 39.3221 34.3439C40.2641 33.7303 41.3346 33.4234 42.5335 33.4234C43.7325 33.4234 44.803 33.7303 45.745 34.3439C46.7013 34.9432 47.4506 35.828 47.993 36.9981C48.5354 38.154 48.8066 39.5311 48.8066 41.1294C48.8066 42.7277 48.5354 44.1119 47.993 45.282C47.4506 46.4379 46.7013 47.3227 45.745 47.9363C44.803 48.5357 43.7325 48.8353 42.5335 48.8353ZM42.5335 46.4165C43.604 46.4165 44.4461 45.9741 45.0599 45.0894C45.6879 44.2046 46.0019 42.8846 46.0019 41.1294C46.0019 39.3741 45.6879 38.0541 45.0599 37.1694C44.4461 36.2846 43.604 35.8423 42.5335 35.8423C41.4773 35.8423 40.6352 36.2846 40.0072 37.1694C39.3934 38.0541 39.0866 39.3741 39.0866 41.1294C39.0866 42.8846 39.3934 44.2046 40.0072 45.0894C40.6352 45.9741 41.4773 46.4165 42.5335 46.4165Z" fill="white"/>
<path d="M60.4074 40.7441C61.1925 41.1008 61.7919 41.586 62.2059 42.1997C62.634 42.799 62.8481 43.5054 62.8481 44.3188C62.8481 45.2321 62.5912 46.0312 62.0774 46.7162C61.5778 47.4012 60.8642 47.9292 59.9364 48.3002C59.0087 48.657 57.9311 48.8353 56.7036 48.8353C55.4761 48.8353 54.3985 48.657 53.4707 48.3002C52.5572 47.9292 51.8507 47.4012 51.3511 46.7162C50.8516 46.0312 50.6018 45.2321 50.6018 44.3188C50.6018 43.5054 50.8088 42.799 51.2227 42.1997C51.6366 41.586 52.2289 41.1008 52.9997 40.7441C52.4002 40.4159 51.9363 39.9878 51.6081 39.4598C51.2941 38.9175 51.137 38.2967 51.137 37.5975C51.137 36.7556 51.3654 36.0206 51.8222 35.3927C52.2932 34.7648 52.9497 34.2797 53.7918 33.9372C54.634 33.5947 55.6045 33.4234 56.7036 33.4234C57.8169 33.4234 58.7946 33.5947 59.6367 33.9372C60.4788 34.2797 61.1354 34.7648 61.6064 35.3927C62.0774 36.0206 62.3129 36.7556 62.3129 37.5975C62.3129 38.2967 62.1488 38.9104 61.8205 39.4384C61.4922 39.9664 61.0212 40.4016 60.4074 40.7441ZM56.7036 35.6068C55.8329 35.6068 55.1407 35.7923 54.6268 36.1633C54.1273 36.5344 53.8775 37.0552 53.8775 37.7259C53.8775 38.3681 54.1273 38.8818 54.6268 39.2671C55.1407 39.6381 55.8329 39.8237 56.7036 39.8237C57.5885 39.8237 58.2879 39.6381 58.8017 39.2671C59.3155 38.8818 59.5725 38.3681 59.5725 37.7259C59.5725 37.0552 59.3084 36.5344 58.7803 36.1633C58.2665 35.7923 57.5742 35.6068 56.7036 35.6068ZM56.7036 46.652C57.7312 46.652 58.5448 46.4379 59.1443 46.0098C59.7437 45.5817 60.0435 44.9895 60.0435 44.2332C60.0435 43.4911 59.7437 42.906 59.1443 42.4779C58.5448 42.0498 57.7312 41.8358 56.7036 41.8358C55.6759 41.8358 54.8695 42.0498 54.2843 42.4779C53.6991 42.906 53.4065 43.4911 53.4065 44.2332C53.4065 44.9895 53.6991 45.5817 54.2843 46.0098C54.8695 46.4379 55.6759 46.652 56.7036 46.652Z" fill="white"/>
<path d="M146.337 37.0627C147.451 37.0627 148.443 37.3053 149.313 37.7904C150.198 38.2756 150.89 38.9606 151.39 39.8454C151.89 40.7301 152.139 41.7504 152.139 42.9063C152.139 44.0622 151.89 45.0897 151.39 45.9887C150.89 46.8735 150.198 47.5584 149.313 48.0436C148.443 48.5288 147.451 48.7714 146.337 48.7714C144.796 48.7714 143.575 48.2577 142.676 47.2302V52.7742H140V37.1911H142.548V38.6895C142.99 38.1472 143.533 37.7405 144.175 37.4694C144.831 37.1982 145.552 37.0627 146.337 37.0627ZM146.038 46.481C147.022 46.481 147.829 46.1528 148.457 45.4964C149.099 44.84 149.42 43.9766 149.42 42.9063C149.42 41.8361 149.099 40.9727 148.457 40.3163C147.829 39.6599 147.022 39.3316 146.038 39.3316C145.395 39.3316 144.817 39.4815 144.303 39.7811C143.79 40.0666 143.383 40.4804 143.083 41.0227C142.783 41.5649 142.633 42.1928 142.633 42.9063C142.633 43.6199 142.783 44.2477 143.083 44.79C143.383 45.3323 143.79 45.7533 144.303 46.0529C144.817 46.3383 145.395 46.481 146.038 46.481Z" fill="white"/>
<path d="M165.425 42.9706C165.425 43.1561 165.411 43.4201 165.382 43.7626H156.412C156.569 44.6045 156.975 45.2752 157.632 45.7747C158.303 46.2599 159.131 46.5024 160.115 46.5024C161.371 46.5024 162.406 46.0886 163.22 45.2609L164.654 46.9091C164.14 47.5228 163.491 47.9866 162.706 48.3005C161.921 48.6144 161.036 48.7714 160.051 48.7714C158.795 48.7714 157.689 48.5217 156.733 48.0222C155.776 47.5228 155.034 46.8307 154.506 45.9459C153.992 45.0469 153.735 44.0337 153.735 42.9063C153.735 41.7933 153.985 40.7943 154.485 39.9096C154.998 39.0106 155.705 38.3113 156.604 37.8119C157.503 37.3124 158.517 37.0627 159.644 37.0627C160.758 37.0627 161.75 37.3124 162.62 37.8119C163.505 38.297 164.19 38.9891 164.676 39.8882C165.175 40.7729 165.425 41.8004 165.425 42.9706ZM159.644 39.2032C158.788 39.2032 158.06 39.4601 157.461 39.9738C156.875 40.4733 156.519 41.144 156.39 41.9859H162.877C162.763 41.1582 162.413 40.4875 161.828 39.9738C161.243 39.4601 160.515 39.2032 159.644 39.2032Z" fill="white"/>
<path d="M170.543 38.8607C171.314 37.662 172.67 37.0627 174.611 37.0627V39.6099C174.383 39.5671 174.176 39.5457 173.99 39.5457C172.948 39.5457 172.135 39.8525 171.55 40.4661C170.964 41.0655 170.672 41.936 170.672 43.0776V48.6216H167.996V37.1911H170.543V38.8607Z" fill="white"/>
<path d="M185.451 38.8607C186.222 37.662 187.577 37.0627 189.519 37.0627V39.6099C189.29 39.5671 189.083 39.5457 188.898 39.5457C187.856 39.5457 187.042 39.8525 186.457 40.4661C185.872 41.0655 185.579 41.936 185.579 43.0776V48.6216H182.903V37.1911H185.451V38.8607Z" fill="white"/>
<path d="M202.432 42.9706C202.432 43.1561 202.418 43.4201 202.389 43.7626H193.419C193.576 44.6045 193.982 45.2752 194.639 45.7747C195.31 46.2599 196.138 46.5024 197.122 46.5024C198.378 46.5024 199.413 46.0886 200.227 45.2609L201.661 46.9091C201.147 47.5228 200.498 47.9866 199.713 48.3005C198.928 48.6144 198.043 48.7714 197.058 48.7714C195.802 48.7714 194.696 48.5217 193.74 48.0222C192.783 47.5228 192.041 46.8307 191.513 45.9459C190.999 45.0469 190.742 44.0337 190.742 42.9063C190.742 41.7933 190.992 40.7943 191.492 39.9096C192.005 39.0106 192.712 38.3113 193.611 37.8119C194.51 37.3124 195.524 37.0627 196.651 37.0627C197.765 37.0627 198.757 37.3124 199.627 37.8119C200.512 38.297 201.197 38.9891 201.683 39.8882C202.182 40.7729 202.432 41.8004 202.432 42.9706ZM196.651 39.2032C195.795 39.2032 195.067 39.4601 194.468 39.9738C193.882 40.4733 193.526 41.144 193.397 41.9859H199.884C199.77 41.1582 199.42 40.4875 198.835 39.9738C198.25 39.4601 197.522 39.2032 196.651 39.2032Z" fill="white"/>
<path d="M210.248 48.7714C209.063 48.7714 208 48.5217 207.058 48.0222C206.116 47.5228 205.381 46.8307 204.853 45.9459C204.325 45.0469 204.061 44.0337 204.061 42.9063C204.061 41.779 204.325 40.7729 204.853 39.8882C205.381 39.0034 206.109 38.3113 207.037 37.8119C207.979 37.3124 209.049 37.0627 210.248 37.0627C211.376 37.0627 212.36 37.291 213.203 37.7476C214.059 38.2043 214.701 38.8607 215.129 39.7169L213.074 40.9156C212.746 40.3876 212.332 39.9952 211.832 39.7383C211.347 39.4672 210.812 39.3316 210.227 39.3316C209.227 39.3316 208.4 39.6599 207.743 40.3163C207.087 40.9584 206.758 41.8218 206.758 42.9063C206.758 43.9909 207.079 44.8614 207.722 45.5178C208.378 46.16 209.213 46.481 210.227 46.481C210.812 46.481 211.347 46.3526 211.832 46.0957C212.332 45.8246 212.746 45.425 213.074 44.897L215.129 46.0957C214.687 46.952 214.038 47.6155 213.181 48.0864C212.339 48.5431 211.361 48.7714 210.248 48.7714Z" fill="white"/>
<path d="M222.414 48.7714C221.258 48.7714 220.216 48.5217 219.288 48.0222C218.36 47.5228 217.632 46.8307 217.104 45.9459C216.59 45.0469 216.334 44.0337 216.334 42.9063C216.334 41.779 216.59 40.7729 217.104 39.8882C217.632 39.0034 218.36 38.3113 219.288 37.8119C220.216 37.3124 221.258 37.0627 222.414 37.0627C223.584 37.0627 224.633 37.3124 225.561 37.8119C226.489 38.3113 227.21 39.0034 227.724 39.8882C228.252 40.7729 228.516 41.779 228.516 42.9063C228.516 44.0337 228.252 45.0469 227.724 45.9459C227.21 46.8307 226.489 47.5228 225.561 48.0222C224.633 48.5217 223.584 48.7714 222.414 48.7714ZM222.414 46.481C223.399 46.481 224.212 46.1528 224.855 45.4964C225.497 44.84 225.818 43.9766 225.818 42.9063C225.818 41.8361 225.497 40.9727 224.855 40.3163C224.212 39.6599 223.399 39.3316 222.414 39.3316C221.429 39.3316 220.615 39.6599 219.973 40.3163C219.345 40.9727 219.031 41.8361 219.031 42.9063C219.031 43.9766 219.345 44.84 219.973 45.4964C220.615 46.1528 221.429 46.481 222.414 46.481Z" fill="white"/>
<path d="M233.623 38.8607C234.393 37.662 235.749 37.0627 237.69 37.0627V39.6099C237.462 39.5671 237.255 39.5457 237.07 39.5457C236.028 39.5457 235.214 39.8525 234.629 40.4661C234.044 41.0655 233.751 41.936 233.751 43.0776V48.6216H231.075V37.1911H233.623V38.8607Z" fill="white"/>
<path d="M251.053 32.7388V48.6216H248.484V47.1446C248.042 47.6869 247.492 48.0936 246.836 48.3647C246.193 48.6358 245.48 48.7714 244.695 48.7714C243.596 48.7714 242.604 48.5288 241.719 48.0436C240.848 47.5584 240.163 46.8735 239.663 45.9887C239.164 45.0897 238.914 44.0622 238.914 42.9063C238.914 41.7504 239.164 40.7301 239.663 39.8454C240.163 38.9606 240.848 38.2756 241.719 37.7904C242.604 37.3053 243.596 37.0627 244.695 37.0627C245.451 37.0627 246.143 37.1911 246.771 37.448C247.399 37.7048 247.935 38.0901 248.377 38.6039V32.7388H251.053ZM245.016 46.481C245.658 46.481 246.236 46.3383 246.75 46.0529C247.264 45.7533 247.671 45.3323 247.97 44.79C248.27 44.2477 248.42 43.6199 248.42 42.9063C248.42 42.1928 248.27 41.5649 247.97 41.0227C247.671 40.4804 247.264 40.0666 246.75 39.7811C246.236 39.4815 245.658 39.3316 245.016 39.3316C244.374 39.3316 243.795 39.4815 243.282 39.7811C242.768 40.0666 242.361 40.4804 242.061 41.0227C241.762 41.5649 241.612 42.1928 241.612 42.9063C241.612 43.6199 241.762 44.2477 242.061 44.79C242.361 45.3323 242.768 45.7533 243.282 46.0529C243.795 46.3383 244.374 46.481 245.016 46.481Z" fill="white"/>
</svg>
