<?xml version="1.0" encoding="utf-8"?>
<!-- Generator: Adobe Illustrator 19.0.0, SVG Export Plug-In . SVG Version: 6.00 Build 0)  -->
<svg version="1.1" id="图层_1" xmlns="http://www.w3.org/2000/svg" xmlns:xlink="http://www.w3.org/1999/xlink" x="0px" y="0px"
	 viewBox="-112 369.9 371 103" style="enable-background:new -112 369.9 371 103;" xml:space="preserve">
<style type="text/css">
	.st0{fill:#818592;}
	.st1{opacity:0.1;fill:#1F2432;enable-background:new    ;}
	.st2{opacity:0.2;fill:#1F2432;enable-background:new    ;}
	.st3{fill:#1F2432;}
	.st4{fill:none;stroke:#1F2432;}
	.st5{fill:#FFFFFF;}
	.st6{font-family:'PingFang-SC-Heavy';}
	.st7{font-size:24.25px;}
</style>
<path class="st0" d="M259,386.9H-77v70h336V386.9z"/>
<circle class="st1" cx="-52" cy="421.9" r="41"/>
<ellipse class="st2" cx="-63" cy="421.9" rx="42" ry="41"/>
<circle class="st3" cx="-71.5" cy="421.4" r="40.5"/>
<path class="st4" d="M-112,471.9h370"/>
<path class="st4" d="M-112,370.9h370"/>
<path class="st5" d="M-89.7,425.1c0,1.3-0.5,2.4-1.4,3.3c-0.9,0.9-2.3,1.4-4.1,1.6v2.7h-2v-2.7c-1.2-0.1-2.3-0.3-3.4-0.6
	c-1.1-0.4-1.9-0.8-2.5-1.3l1.1-2.4c0.6,0.5,1.3,0.9,2.2,1.2c0.8,0.3,1.7,0.5,2.6,0.6v-4.8c-1.1-0.3-2.1-0.6-2.9-0.9
	c-0.8-0.3-1.4-0.8-1.9-1.4c-0.5-0.6-0.8-1.5-0.8-2.5c0-1.3,0.5-2.4,1.4-3.3c0.9-0.9,2.3-1.5,4.1-1.6v-2.7h2v2.7
	c0.9,0,1.8,0.2,2.6,0.5c0.9,0.3,1.6,0.6,2.3,1l-1,2.4c-1.2-0.7-2.5-1.1-3.9-1.3v4.8c1.2,0.3,2.1,0.6,2.9,0.9
	c0.8,0.3,1.4,0.8,1.9,1.4C-90,423.3-89.7,424.1-89.7,425.1z M-99.7,417.7c0,0.5,0.2,1,0.6,1.3c0.4,0.3,1,0.6,1.8,0.8v-4.3
	c-0.8,0.1-1.4,0.4-1.8,0.8S-99.7,417.2-99.7,417.7z M-95.3,427.5c0.8-0.1,1.5-0.4,1.9-0.7c0.4-0.4,0.6-0.8,0.6-1.4s-0.2-1-0.6-1.3
	c-0.4-0.3-1-0.6-1.8-0.8V427.5z M-72.6,426.1h-3v3.8h-3v-3.8h-9.2v-2.2l8.3-10.8h3.3l-7.8,10.3h5.5V420h2.9v3.4h3V426.1z
	 M-64.3,430.1c-1.3,0-2.5-0.3-3.6-1c-1.1-0.7-1.9-1.7-2.5-3c-0.6-1.3-0.9-2.9-0.9-4.7c0-1.8,0.3-3.3,0.9-4.6c0.6-1.3,1.4-2.3,2.5-3
	c1.1-0.7,2.3-1,3.6-1c1.3,0,2.5,0.3,3.6,1c1.1,0.7,1.9,1.7,2.5,3c0.6,1.3,0.9,2.8,0.9,4.6c0,1.8-0.3,3.3-0.9,4.7
	c-0.6,1.3-1.4,2.3-2.5,3C-61.8,429.8-63,430.1-64.3,430.1z M-64.3,427.4c1.2,0,2.1-0.5,2.8-1.5c0.7-1,1.1-2.5,1.1-4.4
	c0-2-0.4-3.4-1.1-4.4c-0.7-1-1.6-1.5-2.8-1.5c-1.2,0-2.1,0.5-2.8,1.5c-0.7,1-1,2.5-1,4.4c0,2,0.3,3.4,1,4.4
	C-66.4,426.9-65.5,427.4-64.3,427.4z M-44.3,421.1c0.9,0.4,1.6,0.9,2,1.6c0.5,0.7,0.7,1.5,0.7,2.4c0,1-0.3,1.9-0.9,2.7
	c-0.6,0.8-1.4,1.4-2.4,1.8c-1,0.4-2.2,0.6-3.6,0.6c-1.4,0-2.6-0.2-3.6-0.6c-1-0.4-1.8-1-2.4-1.8c-0.6-0.8-0.8-1.7-0.8-2.7
	c0-0.9,0.2-1.7,0.7-2.4c0.5-0.7,1.1-1.2,2-1.6c-0.7-0.4-1.2-0.8-1.6-1.4c-0.4-0.6-0.5-1.3-0.5-2.1c0-0.9,0.3-1.8,0.8-2.5
	c0.5-0.7,1.3-1.2,2.2-1.6c0.9-0.4,2-0.6,3.3-0.6c1.2,0,2.3,0.2,3.3,0.6s1.7,0.9,2.2,1.6c0.5,0.7,0.8,1.5,0.8,2.5
	c0,0.8-0.2,1.5-0.6,2.1C-43.1,420.2-43.6,420.7-44.3,421.1z M-48.4,415.3c-1,0-1.8,0.2-2.3,0.6c-0.6,0.4-0.8,1-0.8,1.8
	c0,0.7,0.3,1.3,0.8,1.7c0.6,0.4,1.4,0.6,2.3,0.6c1,0,1.8-0.2,2.4-0.6c0.6-0.4,0.9-1,0.9-1.7c0-0.8-0.3-1.3-0.9-1.8
	C-46.7,415.5-47.4,415.3-48.4,415.3z M-48.4,427.7c1.2,0,2.1-0.2,2.7-0.7c0.7-0.5,1-1.1,1-2c0-0.8-0.3-1.5-1-2
	c-0.7-0.5-1.6-0.7-2.7-0.7c-1.2,0-2.1,0.2-2.7,0.7c-0.7,0.5-1,1.1-1,2c0,0.8,0.3,1.5,1,2C-50.5,427.4-49.6,427.7-48.4,427.7z"/>
<text transform="matrix(1 0 0 1 42.4998 428.7283)" class="st5 st6 st7">每条记录</text>
</svg>
