<svg width="371" height="103" viewBox="0 0 371 103" fill="none" xmlns="http://www.w3.org/2000/svg">
<path d="M371 17H35V87H371V17Z" fill="#818592"/>
<circle opacity="0.1" cx="60" cy="52" r="41" fill="#1F2432"/>
<ellipse opacity="0.2" cx="49" cy="52" rx="42" ry="41" fill="#1F2432"/>
<circle cx="40.5" cy="51.5" r="40.5" fill="#1F2432"/>
<path d="M0 102H370" stroke="#1F2432"/>
<path d="M0 1H370" stroke="#1F2432"/>
<path d="M22.2589 55.248C22.2589 56.544 21.7788 57.648 20.8186 58.56C19.8744 59.456 18.4981 60 16.6897 60.192V62.88H14.7213V60.216C13.5371 60.136 12.4169 59.92 11.3607 59.568C10.3045 59.216 9.46429 58.768 8.84017 58.224L9.92038 55.8C10.5125 56.28 11.2326 56.688 12.0808 57.024C12.929 57.344 13.8092 57.544 14.7213 57.624V52.824C13.5851 52.552 12.6329 52.256 11.8648 51.936C11.1126 51.6 10.4805 51.12 9.96839 50.496C9.45629 49.856 9.20024 49.016 9.20024 47.976C9.20024 46.68 9.67233 45.576 10.6165 44.664C11.5607 43.752 12.929 43.208 14.7213 43.032V40.32H16.6897V42.984C17.5859 43.032 18.4581 43.184 19.3063 43.44C20.1704 43.696 20.9226 44.032 21.5627 44.448L20.5785 46.872C19.3623 46.168 18.066 45.736 16.6897 45.576V50.424C17.842 50.696 18.7942 50.992 19.5463 51.312C20.3145 51.632 20.9546 52.112 21.4667 52.752C21.9948 53.376 22.2589 54.208 22.2589 55.248ZM12.2969 47.832C12.2969 48.36 12.5049 48.784 12.921 49.104C13.3371 49.424 13.9372 49.696 14.7213 49.92V45.648C13.9052 45.776 13.2971 46.032 12.897 46.416C12.4969 46.8 12.2969 47.272 12.2969 47.832ZM16.6897 57.576C17.5379 57.448 18.162 57.2 18.5621 56.832C18.9782 56.464 19.1862 56.008 19.1862 55.464C19.1862 54.92 18.9702 54.488 18.5381 54.168C18.106 53.832 17.4899 53.552 16.6897 53.328V57.576ZM39.3664 56.184H36.3898V60H33.3652V56.184H24.1474V54.024L32.429 43.2H35.7657L27.9641 53.544H33.4612V50.16H36.3898V53.544H39.3664V56.184ZM47.6891 60.24C46.3449 60.24 45.1446 59.904 44.0884 59.232C43.0322 58.544 42.2 57.552 41.5919 56.256C40.9838 54.944 40.6797 53.392 40.6797 51.6C40.6797 49.808 40.9838 48.264 41.5919 46.968C42.2 45.656 43.0322 44.664 44.0884 43.992C45.1446 43.304 46.3449 42.96 47.6891 42.96C49.0334 42.96 50.2336 43.304 51.2898 43.992C52.3621 44.664 53.2022 45.656 53.8103 46.968C54.4185 48.264 54.7225 49.808 54.7225 51.6C54.7225 53.392 54.4185 54.944 53.8103 56.256C53.2022 57.552 52.3621 58.544 51.2898 59.232C50.2336 59.904 49.0334 60.24 47.6891 60.24ZM47.6891 57.528C48.8894 57.528 49.8336 57.032 50.5217 56.04C51.2258 55.048 51.5779 53.568 51.5779 51.6C51.5779 49.632 51.2258 48.152 50.5217 47.16C49.8336 46.168 48.8894 45.672 47.6891 45.672C46.5049 45.672 45.5607 46.168 44.8566 47.16C44.1684 48.152 43.8244 49.632 43.8244 51.6C43.8244 53.568 44.1684 55.048 44.8566 56.04C45.5607 57.032 46.5049 57.528 47.6891 57.528ZM67.7296 51.168C68.6097 51.568 69.2819 52.112 69.746 52.8C70.2261 53.472 70.4661 54.264 70.4661 55.176C70.4661 56.2 70.1781 57.096 69.6019 57.864C69.0418 58.632 68.2417 59.224 67.2015 59.64C66.1613 60.04 64.953 60.24 63.5767 60.24C62.2005 60.24 60.9922 60.04 59.952 59.64C58.9278 59.224 58.1357 58.632 57.5755 57.864C57.0154 57.096 56.7354 56.2 56.7354 55.176C56.7354 54.264 56.9674 53.472 57.4315 52.8C57.8956 52.112 58.5597 51.568 59.4239 51.168C58.7518 50.8 58.2317 50.32 57.8636 49.728C57.5115 49.12 57.3355 48.424 57.3355 47.64C57.3355 46.696 57.5915 45.872 58.1036 45.168C58.6318 44.464 59.3679 43.92 60.3121 43.536C61.2563 43.152 62.3445 42.96 63.5767 42.96C64.825 42.96 65.9212 43.152 66.8654 43.536C67.8096 43.92 68.5457 44.464 69.0738 45.168C69.6019 45.872 69.866 46.696 69.866 47.64C69.866 48.424 69.682 49.112 69.3139 49.704C68.9458 50.296 68.4177 50.784 67.7296 51.168ZM63.5767 45.408C62.6005 45.408 61.8244 45.616 61.2483 46.032C60.6882 46.448 60.4081 47.032 60.4081 47.784C60.4081 48.504 60.6882 49.08 61.2483 49.512C61.8244 49.928 62.6005 50.136 63.5767 50.136C64.5689 50.136 65.3531 49.928 65.9292 49.512C66.5053 49.08 66.7934 48.504 66.7934 47.784C66.7934 47.032 66.4973 46.448 65.9052 46.032C65.3291 45.616 64.5529 45.408 63.5767 45.408ZM63.5767 57.792C64.729 57.792 65.6412 57.552 66.3133 57.072C66.9854 56.592 67.3215 55.928 67.3215 55.08C67.3215 54.248 66.9854 53.592 66.3133 53.112C65.6412 52.632 64.729 52.392 63.5767 52.392C62.4245 52.392 61.5203 52.632 60.8642 53.112C60.2081 53.592 59.88 54.248 59.88 55.08C59.88 55.928 60.2081 56.592 60.8642 57.072C61.5203 57.552 62.4245 57.792 63.5767 57.792Z" fill="white"/>
<path d="M166.074 47.04C167.322 47.04 168.434 47.312 169.41 47.856C170.403 48.4 171.179 49.168 171.739 50.16C172.299 51.152 172.579 52.296 172.579 53.592C172.579 54.888 172.299 56.04 171.739 57.048C171.179 58.04 170.403 58.808 169.41 59.352C168.434 59.896 167.322 60.168 166.074 60.168C164.345 60.168 162.977 59.592 161.969 58.44V64.656H158.968V47.184H161.825V48.864C162.321 48.256 162.929 47.8 163.649 47.496C164.385 47.192 165.194 47.04 166.074 47.04ZM165.738 57.6C166.842 57.6 167.746 57.232 168.45 56.496C169.17 55.76 169.531 54.792 169.531 53.592C169.531 52.392 169.17 51.424 168.45 50.688C167.746 49.952 166.842 49.584 165.738 49.584C165.018 49.584 164.369 49.752 163.793 50.088C163.217 50.408 162.761 50.872 162.425 51.48C162.089 52.088 161.921 52.792 161.921 53.592C161.921 54.392 162.089 55.096 162.425 55.704C162.761 56.312 163.217 56.784 163.793 57.12C164.369 57.44 165.018 57.6 165.738 57.6ZM187.475 53.664C187.475 53.872 187.459 54.168 187.427 54.552H177.369C177.545 55.496 178.001 56.248 178.737 56.808C179.49 57.352 180.418 57.624 181.522 57.624C182.93 57.624 184.091 57.16 185.003 56.232L186.611 58.08C186.035 58.768 185.307 59.288 184.427 59.64C183.546 59.992 182.554 60.168 181.45 60.168C180.042 60.168 178.801 59.888 177.729 59.328C176.657 58.768 175.825 57.992 175.233 57C174.657 55.992 174.369 54.856 174.369 53.592C174.369 52.344 174.649 51.224 175.209 50.232C175.785 49.224 176.577 48.44 177.585 47.88C178.593 47.32 179.73 47.04 180.994 47.04C182.242 47.04 183.354 47.32 184.331 47.88C185.323 48.424 186.091 49.2 186.635 50.208C187.195 51.2 187.475 52.352 187.475 53.664ZM180.994 49.44C180.034 49.44 179.218 49.728 178.545 50.304C177.889 50.864 177.489 51.616 177.345 52.56H184.619C184.491 51.632 184.099 50.88 183.442 50.304C182.786 49.728 181.97 49.44 180.994 49.44ZM193.214 49.056C194.078 47.712 195.599 47.04 197.775 47.04V49.896C197.519 49.848 197.287 49.824 197.079 49.824C195.911 49.824 194.998 50.168 194.342 50.856C193.686 51.528 193.358 52.504 193.358 53.784V60H190.357V47.184H193.214V49.056ZM209.928 49.056C210.793 47.712 212.313 47.04 214.489 47.04V49.896C214.233 49.848 214.001 49.824 213.793 49.824C212.625 49.824 211.713 50.168 211.057 50.856C210.4 51.528 210.072 52.504 210.072 53.784V60H207.072V47.184H209.928V49.056ZM228.968 53.664C228.968 53.872 228.952 54.168 228.92 54.552H218.862C219.038 55.496 219.494 56.248 220.23 56.808C220.982 57.352 221.91 57.624 223.015 57.624C224.423 57.624 225.583 57.16 226.495 56.232L228.104 58.08C227.528 58.768 226.799 59.288 225.919 59.64C225.039 59.992 224.047 60.168 222.943 60.168C221.534 60.168 220.294 59.888 219.222 59.328C218.15 58.768 217.318 57.992 216.725 57C216.149 55.992 215.861 54.856 215.861 53.592C215.861 52.344 216.141 51.224 216.701 50.232C217.278 49.224 218.07 48.44 219.078 47.88C220.086 47.32 221.222 47.04 222.487 47.04C223.735 47.04 224.847 47.32 225.823 47.88C226.815 48.424 227.584 49.2 228.128 50.208C228.688 51.2 228.968 52.352 228.968 53.664ZM222.487 49.44C221.526 49.44 220.71 49.728 220.038 50.304C219.382 50.864 218.982 51.616 218.838 52.56H226.111C225.983 51.632 225.591 50.88 224.935 50.304C224.279 49.728 223.463 49.44 222.487 49.44ZM237.731 60.168C236.403 60.168 235.211 59.888 234.155 59.328C233.098 58.768 232.274 57.992 231.682 57C231.09 55.992 230.794 54.856 230.794 53.592C230.794 52.328 231.09 51.2 231.682 50.208C232.274 49.216 233.09 48.44 234.131 47.88C235.187 47.32 236.387 47.04 237.731 47.04C238.996 47.04 240.1 47.296 241.044 47.808C242.004 48.32 242.724 49.056 243.204 50.016L240.9 51.36C240.532 50.768 240.068 50.328 239.508 50.04C238.964 49.736 238.363 49.584 237.707 49.584C236.587 49.584 235.659 49.952 234.923 50.688C234.187 51.408 233.819 52.376 233.819 53.592C233.819 54.808 234.179 55.784 234.899 56.52C235.635 57.24 236.571 57.6 237.707 57.6C238.363 57.6 238.964 57.456 239.508 57.168C240.068 56.864 240.532 56.416 240.9 55.824L243.204 57.168C242.708 58.128 241.98 58.872 241.02 59.4C240.076 59.912 238.98 60.168 237.731 60.168ZM251.372 60.168C250.076 60.168 248.907 59.888 247.867 59.328C246.827 58.768 246.011 57.992 245.419 57C244.843 55.992 244.555 54.856 244.555 53.592C244.555 52.328 244.843 51.2 245.419 50.208C246.011 49.216 246.827 48.44 247.867 47.88C248.907 47.32 250.076 47.04 251.372 47.04C252.684 47.04 253.86 47.32 254.901 47.88C255.941 48.44 256.749 49.216 257.325 50.208C257.917 51.2 258.213 52.328 258.213 53.592C258.213 54.856 257.917 55.992 257.325 57C256.749 57.992 255.941 58.768 254.901 59.328C253.86 59.888 252.684 60.168 251.372 60.168ZM251.372 57.6C252.476 57.6 253.388 57.232 254.108 56.496C254.829 55.76 255.189 54.792 255.189 53.592C255.189 52.392 254.829 51.424 254.108 50.688C253.388 49.952 252.476 49.584 251.372 49.584C250.268 49.584 249.355 49.952 248.635 50.688C247.931 51.424 247.579 52.392 247.579 53.592C247.579 54.792 247.931 55.76 248.635 56.496C249.355 57.232 250.268 57.6 251.372 57.6ZM263.939 49.056C264.803 47.712 266.324 47.04 268.5 47.04V49.896C268.244 49.848 268.012 49.824 267.804 49.824C266.636 49.824 265.723 50.168 265.067 50.856C264.411 51.528 264.083 52.504 264.083 53.784V60H261.083V47.184H263.939V49.056ZM283.483 42.192V60H280.602V58.344C280.106 58.952 279.49 59.408 278.754 59.712C278.034 60.016 277.234 60.168 276.353 60.168C275.121 60.168 274.009 59.896 273.017 59.352C272.041 58.808 271.272 58.04 270.712 57.048C270.152 56.04 269.872 54.888 269.872 53.592C269.872 52.296 270.152 51.152 270.712 50.16C271.272 49.168 272.041 48.4 273.017 47.856C274.009 47.312 275.121 47.04 276.353 47.04C277.202 47.04 277.978 47.184 278.682 47.472C279.386 47.76 279.986 48.192 280.482 48.768V42.192H283.483ZM276.713 57.6C277.434 57.6 278.082 57.44 278.658 57.12C279.234 56.784 279.69 56.312 280.026 55.704C280.362 55.096 280.53 54.392 280.53 53.592C280.53 52.792 280.362 52.088 280.026 51.48C279.69 50.872 279.234 50.408 278.658 50.088C278.082 49.752 277.434 49.584 276.713 49.584C275.993 49.584 275.345 49.752 274.769 50.088C274.193 50.408 273.737 50.872 273.401 51.48C273.065 52.088 272.897 52.792 272.897 53.592C272.897 54.392 273.065 55.096 273.401 55.704C273.737 56.312 274.193 56.784 274.769 57.12C275.345 57.44 275.993 57.6 276.713 57.6Z" fill="white"/>
</svg>
