<svg width="130" height="130" viewBox="0 0 130 130" fill="none" xmlns="http://www.w3.org/2000/svg">
<path fill-rule="evenodd" clip-rule="evenodd" d="M19.8612 0H130V110.139C116.2 122.49 97.9772 130 78 130C34.9218 130 0 95.0782 0 52C0 32.0228 7.51019 13.7997 19.8612 0Z" fill="#00DCE6" fill-opacity="0.1"/>
<path d="M35.8604 90.0005L47.2421 78.6187C47.2421 78.6187 53.1519 80.3698 56.7634 76.7583L62.4542 71.0674" stroke="#00DCE6" stroke-miterlimit="10"/>
<path d="M64.4243 38.5635H51.0726C44.6157 38.5635 42.5363 40.3145 39.6909 44.2544L34 51.9151" stroke="#00DCE6" stroke-miterlimit="10"/>
<path d="M47.2425 49.9453C47.2425 49.9453 61.4697 49.9453 66.285 49.9453C71.1004 49.9453 69.021 58.7005 62.4546 59.4666C59.6092 59.4666 56.7638 59.4666 56.7638 59.4666C56.2166 60.0138 53.4806 62.7498 52.9334 63.297C49.103 67.1274 47.2425 67.1274 43.4121 67.1274" stroke="#00DCE6" stroke-miterlimit="10"/>
<path d="M53.043 50.4927L93.5357 10L119.582 36.1561L73.946 81.7925L54.3562 62.2028" stroke="#00DCE6" stroke-miterlimit="10"/>
<path d="M66.1758 63.5163L70.1156 67.4561C72.3044 65.2673 75.8065 65.2673 77.8858 67.4561L105.246 40.0961C103.057 37.9073 103.057 34.4053 105.246 32.3259L97.4756 24.5557C95.2868 26.7445 91.7847 26.7445 89.7054 24.5557L67.3796 46.5531" stroke="#00DCE6" stroke-miterlimit="10"/>
<path d="M73.9453 55.6353L76.5719 53.0088" stroke="#00DCE6" stroke-miterlimit="10"/>
<path d="M92.2217 37.3609L94.8482 34.8438" stroke="#00DCE6" stroke-miterlimit="10"/>
<path d="M88.2819 41.2998C90.4707 43.4886 90.4707 46.9907 88.2819 49.07C86.0932 51.2588 82.5911 51.2588 80.5117 49.07C78.3229 46.8812 78.3229 43.3792 80.5117 41.2998C82.5911 39.111 86.0932 39.111 88.2819 41.2998Z" stroke="#00DCE6" stroke-miterlimit="10"/>
</svg>
