<svg width="130" height="130" viewBox="0 0 130 130" fill="none" xmlns="http://www.w3.org/2000/svg">
<path fill-rule="evenodd" clip-rule="evenodd" d="M19.8612 0H130V110.139C116.2 122.49 97.9772 130 78 130C34.9218 130 0 95.0782 0 52C0 32.0228 7.51019 13.7997 19.8612 0Z" fill="#00DCE6" fill-opacity="0.1"/>
<path d="M94 81.5786H65C65 56.669 65 42.7032 65 17.7937L73.5596 10H119.737V31.7402V73.7849V81.5786H107.105" stroke="#00DCE6" stroke-miterlimit="10"/>
<path d="M86.9587 89.5788H57C57 64.6693 57 50.7035 57 25.7939" stroke="#00DCE6" stroke-miterlimit="10"/>
<path d="M77.9414 14.3496V22.1191H70.1719" stroke="#00DCE6" stroke-miterlimit="10"/>
<path d="M74.5684 37.3516H109.327" stroke="#00DCE6" stroke-miterlimit="10"/>
<path d="M74.5684 30.1943H109.327" stroke="#00DCE6" stroke-miterlimit="10"/>
<path d="M74.5684 44.5078H109.327" stroke="#00DCE6" stroke-miterlimit="10"/>
<path d="M74.5684 51.7666H85.8137" stroke="#00DCE6" stroke-miterlimit="10"/>
<path d="M111.064 65.2621L112.393 63.1152L110.45 61.5818L110.961 59.1283L108.61 58.4127L108.201 55.9591H105.748L104.623 53.8123L102.272 54.7324L100.432 53.0967L98.5915 54.7324L96.2402 53.8123L95.1157 55.9591H92.6621L92.2532 58.4127L89.9019 59.1283L90.4131 61.5818L88.4707 63.1152L89.7997 65.2621L88.4707 67.3067L90.4131 68.9424L89.9019 71.2937L92.2532 72.1115L92.6621 74.565L95.1157 74.4628L96.2402 76.6097L98.5915 75.7918L100.432 77.4275L102.272 75.7918L104.623 76.6097L105.748 74.4628L108.201 74.565L108.61 72.1115L110.961 71.2937L110.45 68.9424L112.393 67.3067L111.064 65.2621Z" stroke="#00DCE6" stroke-miterlimit="10"/>
<path d="M94.2988 74.4609V89.4888L100.637 85.0929L107.384 89.9999V74.4609" stroke="#00DCE6" stroke-miterlimit="10"/>
<path d="M100.432 70.985C103.594 70.985 106.157 68.4218 106.157 65.2601C106.157 62.0983 103.594 59.5352 100.432 59.5352C97.2702 59.5352 94.707 62.0983 94.707 65.2601C94.707 68.4218 97.2702 70.985 100.432 70.985Z" stroke="#00DCE6" stroke-miterlimit="10"/>
</svg>
