<svg width="130" height="130" viewBox="0 0 130 130" fill="none" xmlns="http://www.w3.org/2000/svg">
<path fill-rule="evenodd" clip-rule="evenodd" d="M19.8612 0H130V110.139C116.2 122.49 97.9772 130 78 130C34.9218 130 0 95.0782 0 52C0 32.0228 7.51019 13.7997 19.8612 0Z" fill="#00DCE6" fill-opacity="0.1"/>
<path d="M97.681 28.833C97.681 31.2543 89.259 33.2545 78.7316 33.2545C68.2042 33.2545 59.7822 31.2543 59.7822 28.833" stroke="#00DCE6" stroke-miterlimit="10"/>
<path d="M91.0489 28.7284C91.2595 27.7809 91.2595 26.8334 91.0489 25.8859L101.892 17.0429C103.577 15.6743 103.682 13.0425 101.997 11.2528C100.313 9.46315 97.5759 9.6737 96.2074 11.3581L87.3643 22.2013C85.0483 21.675 82.2059 22.5172 79.9951 24.6227C78.416 26.2018 77.5738 28.0967 77.3633 29.8864" stroke="#00DCE6" stroke-miterlimit="10"/>
<path d="M97.1546 24.7287C99.5759 25.6762 101.05 26.8342 101.05 27.9922C100.945 30.8346 100.208 33.677 99.1549 36.3089C97.0494 41.2568 93.2595 44.3098 89.996 46.5205V47.6785C89.996 48.8366 84.5217 49.8893 78.8369 49.8893C73.1521 49.8893 67.6778 48.9418 67.6778 47.6785V46.5205C64.309 44.3098 60.6244 41.2568 58.519 36.3089C57.3609 33.677 56.7293 30.8346 56.624 27.9922C56.624 25.0446 65.046 22.2021 75.5734 22.2021C76.3103 22.2021 77.0472 22.2021 77.5736 22.2021" stroke="#00DCE6" stroke-miterlimit="10"/>
<path d="M102.208 81.7883C102.208 81.0514 101.998 79.9987 103.261 78.7354C104.525 77.4721 117.157 64.8392 118.421 63.5759C119.579 62.4179 119.579 49.7849 119.473 48.1005C119.368 46.5214 117.684 37.8889 116.421 34.7307C115.052 34.5202 112.736 35.4676 111.262 37.7837C109.893 39.9944 110.104 42.4157 111.262 45.9951L108.946 53.1537" stroke="#00DCE6" stroke-miterlimit="10"/>
<path d="M100.945 68.7343C100.945 68.7343 109.157 60.5229 110.209 59.4701C114.315 55.3644 109.157 50.206 105.051 54.3117C103.998 55.3644 101.787 57.5752 98.8398 60.5229C97.9976 61.3651 94.313 60.944 92.9444 62.3125C92.3128 62.9442 89.1545 66.1024 87.786 67.471C86.4174 68.8395 85.7857 71.6819 85.6805 73.6821C85.6805 76.7351 85.5752 82.1041 85.5752 82.1041" stroke="#00DCE6" stroke-miterlimit="10"/>
<path d="M104.314 81.7881H81.6797V89.9995H104.314V81.7881Z" stroke="#00DCE6" stroke-miterlimit="10"/>
<path d="M56.3081 81.7854C56.3081 81.0485 56.5187 79.9957 55.2554 78.7324C53.9921 77.4692 41.3592 64.8362 40.0959 63.5729C38.9379 62.4149 38.9379 49.782 39.0431 48.0976C39.1484 46.5185 40.8328 37.886 42.0961 34.7278C43.4646 34.5172 45.7807 35.4647 47.2545 37.7807C48.6231 39.9915 48.4125 42.4128 47.2545 45.9921L49.5706 53.1508" stroke="#00DCE6" stroke-miterlimit="10"/>
<path d="M57.5719 68.7313C57.5719 68.7313 49.3605 60.5199 48.3078 59.4672C44.2021 55.3615 49.3605 50.203 53.4662 54.3087C54.5189 55.3615 56.7297 57.5722 59.6774 60.5199C60.5196 61.3621 64.2042 60.941 65.5728 62.3096C66.2044 62.9412 69.3626 66.0995 70.7312 67.468C72.0998 68.8366 72.7314 71.679 72.8367 73.6792C72.8367 76.7322 72.942 82.1012 72.942 82.1012" stroke="#00DCE6" stroke-miterlimit="10"/>
<path d="M76.8371 81.7881H54.2031V89.9995H76.8371V81.7881Z" stroke="#00DCE6" stroke-miterlimit="10"/>
</svg>
