<svg width="70" height="46" viewBox="0 0 70 46" fill="none" xmlns="http://www.w3.org/2000/svg">
<path fill-rule="evenodd" clip-rule="evenodd" d="M14.8 2.56962V0H16.2V2.56962H19V4.2H16.2V7H14.8V4.2H12V2.56962H14.8ZM31.5 36.8V45H47.6429V36.8V26.7857H31.5V32.8571H30.5V26.7857H13V45H30.5V36.8H31.5ZM13.2571 25.7857H30.5V17.7429H31.5V25.7857H47.6429V10.5H36.9714V9.5H47.9336L56.3122 1H39.3824L31.5 9.58931V16.4286V17.4286H30.5H21.6142L13.2571 25.7857ZM21.2 16.4286H29.5H30.5V15.4286V9.2L38.9429 0H57H57.2979H58V0.712248V1V35.4857L48.8 46H48.6429H48.1429H47.6429H31.5H31H30.5H13H12V45V25.6286L21.2 16.4286ZM48.6429 44.661L57 35.11V17.2926L48.6429 26.4791V36.8V44.661ZM48.6429 24.9931L57 15.8066V1.72674L48.6429 10.205V24.9931ZM36 9.5H34.5714V10.5H36V9.5ZM30.5 33.7179V35H31.5V33.7179H30.5Z" fill="#1F2432"/>
</svg>
