<svg width="70" height="48" viewBox="0 0 70 48" fill="none" xmlns="http://www.w3.org/2000/svg">
<path d="M34.7712 46.1723C28.3181 40.76 24.1548 32.6416 24.1548 23.6905C24.1548 14.7395 28.1099 6.82926 34.3548 1.41699" stroke="#1F2432" stroke-miterlimit="10"/>
<path d="M36.6448 1.41699C42.8898 6.82926 46.8449 14.7395 46.8449 23.6905C46.8449 32.8498 42.6816 40.9682 36.2285 46.3804" stroke="#1F2432" stroke-miterlimit="10"/>
<path d="M56.837 31.1846H14.1633" stroke="#1F2432" stroke-miterlimit="10"/>
<path d="M35.6037 46.3807C48.135 46.3807 58.2936 36.2221 58.2936 23.6909C58.2936 11.1596 48.135 1.00098 35.6037 1.00098C23.0724 1.00098 12.9138 11.1596 12.9138 23.6909C12.9138 36.2221 23.0724 46.3807 35.6037 46.3807Z" stroke="#1F2432" stroke-miterlimit="10"/>
<path d="M35.6038 1V46.1716" stroke="#1F2432" stroke-miterlimit="10"/>
<path d="M56.837 16.1953H14.1633" stroke="#1F2432" stroke-miterlimit="10"/>
<path d="M11.6651 4.33027C12.5848 4.33027 13.3303 3.58476 13.3303 2.66513C13.3303 1.74551 12.5848 1 11.6651 1C10.7455 1 10 1.74551 10 2.66513C10 3.58476 10.7455 4.33027 11.6651 4.33027Z" fill="#1F2432"/>
<path d="M59.3346 4.33027C60.2542 4.33027 60.9997 3.58476 60.9997 2.66513C60.9997 1.74551 60.2542 1 59.3346 1C58.4149 1 57.6694 1.74551 57.6694 2.66513C57.6694 3.58476 58.4149 4.33027 59.3346 4.33027Z" fill="#1F2432"/>
<path d="M11.8736 47.0041C12.7933 47.0041 13.5388 46.2586 13.5388 45.339C13.5388 44.4193 12.7933 43.6738 11.8736 43.6738C10.954 43.6738 10.2085 44.4193 10.2085 45.339C10.2085 46.2586 10.954 47.0041 11.8736 47.0041Z" fill="#1F2432"/>
<path d="M59.3346 47.0041C60.2542 47.0041 60.9997 46.2586 60.9997 45.339C60.9997 44.4193 60.2542 43.6738 59.3346 43.6738C58.4149 43.6738 57.6694 44.4193 57.6694 45.339C57.6694 46.2586 58.4149 47.0041 59.3346 47.0041Z" fill="#1F2432"/>
</svg>
