<svg width="70" height="70" viewBox="0 0 70 70" fill="none" xmlns="http://www.w3.org/2000/svg">
<circle cx="35" cy="35" r="35" fill="#00DCE6" fill-opacity="0.1"/>
<path d="M26.1689 29.1667C27.3023 22.125 32.9356 17.5 35.1356 17.5" stroke="#00DCE6" stroke-miterlimit="10" stroke-linejoin="round"/>
<path d="M44.1112 29.1667C42.9779 22.125 37.3362 17.5 35.1445 17.5" stroke="#00DCE6" stroke-miterlimit="10" stroke-linejoin="round"/>
<path d="M35.1689 17.5V15" stroke="#00DCE6" stroke-miterlimit="10" stroke-linejoin="round"/>
<path d="M35.1689 32.5L35.1689 40" stroke="#00DCE6" stroke-miterlimit="10" stroke-linejoin="round"/>
<path d="M34.5938 32.15C34.8938 32.4583 35.3855 32.4583 35.6855 32.15C36.4605 31.3667 37.9771 30.8333 39.7188 30.8333C41.4438 30.8333 42.9438 31.35 43.7271 32.125C44.0438 32.4333 44.5438 32.4167 44.8438 32.1C45.5605 31.35 46.9105 30.8417 48.4605 30.8417C50.4355 30.8417 52.0855 31.6667 52.5188 32.775C52.6438 33.1 52.9271 33.3417 53.2771 33.3417H53.4688C53.9355 33.3417 54.2938 32.9417 54.2605 32.475C53.6938 24.4083 42.8188 17.5 35.1438 17.5C27.4605 17.5 16.5855 24.4083 16.0022 32.4667C15.9688 32.9333 16.3272 33.3333 16.7938 33.3333H16.9855C17.3355 33.3333 17.6188 33.0917 17.7438 32.7667C18.1771 31.6583 19.8355 30.8333 21.8105 30.8333C23.3605 30.8333 24.7105 31.3417 25.4271 32.0917C25.7355 32.4167 26.2271 32.4333 26.5438 32.1167C27.3271 31.35 28.8271 30.825 30.5521 30.825C32.3021 30.8333 33.8188 31.3667 34.5938 32.15Z" stroke="#00DCE6" stroke-miterlimit="10" stroke-linejoin="round"/>
<path d="M39.7598 47.5C40.8264 46.65 42.6681 46.1333 44.3348 45.8333V44.6833C42.6681 44.0667 41.8348 42.6083 41.8348 40.8333V39.1667C41.8348 36.8 43.5764 35 46.0014 35C48.4264 35 50.1681 36.8 50.1681 39.1667V40.8333C50.1681 42.6083 49.3348 44.0667 47.6681 44.6833V45.8333C51.0014 46.3583 53.5014 47.5333 53.5014 50V55" stroke="#00DCE6" stroke-miterlimit="10" stroke-linejoin="round"/>
<path d="M27.6776 47.8493C27.1443 47.7077 26.5859 47.591 26.0026 47.4993V46.3493C27.5193 45.7327 28.5026 44.2743 28.5026 42.4993V40.8327C28.5026 38.466 26.7609 36.666 24.3359 36.666C21.9109 36.666 20.1693 38.466 20.1693 40.8327V42.4993C20.1693 44.2743 21.1526 45.7327 22.6693 46.3493V47.4993C19.4276 48.0243 16.8359 49.1993 16.8359 51.666V54.9993" stroke="#00DCE6" stroke-miterlimit="10" stroke-linejoin="round"/>
<path d="M28.502 55V54.1667C28.502 52.1667 30.0436 52.0917 32.6686 51.6667V50C31.4436 49.5 31.002 48.9417 31.002 47.5V45.8333C31.002 43.9167 32.3686 42.5 34.3353 42.5" stroke="#00DCE6" stroke-miterlimit="10" stroke-linejoin="round"/>
<path d="M40.1693 55V54.1667C40.1693 52.1667 38.5026 52.0917 36.0026 51.6667V50C36.8359 49.5 37.6693 48.9417 37.6693 47.5V45.8333C37.6693 43.9167 36.3026 42.5 34.3359 42.5" stroke="#00DCE6" stroke-miterlimit="10" stroke-linejoin="round"/>
</svg>
