<svg width="70" height="70" viewBox="0 0 70 70" fill="none" xmlns="http://www.w3.org/2000/svg">
<circle cx="35" cy="35" r="35" fill="#00DCE6" fill-opacity="0.1"/>
<path d="M51.8616 41.3213C53.557 41.3213 54.9998 39.709 54.9998 38.1831V31.122C54.9998 28.5306 49.8798 27.1992 47.1542 27.1992C44.4286 27.1992 39.3086 28.5306 39.3086 31.122V38.1831C39.3086 39.709 40.7514 41.3213 42.4468 41.3213" stroke="#00DCE6"/>
<path d="M47.1539 24.8456C48.9827 24.8456 50.2921 23.5644 50.2921 21.7074V20.1382C50.2921 18.2812 48.9827 17 47.1539 17C45.3251 17 44.0156 18.2812 44.0156 20.1382V21.7074C44.0156 23.5644 45.3251 24.8456 47.1539 24.8456Z" stroke="#00DCE6"/>
<path d="M51.8613 53.089V32.6904" stroke="#00DCE6"/>
<path d="M42.4473 32.6904V53.089" stroke="#00DCE6"/>
<path d="M47.1543 40.5371V53.0901" stroke="#00DCE6"/>
<path d="M41.0451 49.8283H33.9685H20.1814C18.7601 49.8283 17.5972 48.6654 17.5972 47.2441V41.9205C17.5972 40.8997 17.8944 39.9048 18.4629 39.052L19.3157 37.7728L15.8657 36.907C15.3876 36.907 15 36.5194 15 36.0413V34.3228C15 33.8447 15.3876 33.457 15.8657 33.457H20.1685L21.8871 36.0413L24.4713 36.907H33.9427H37.5725" stroke="#00DCE6"/>
<path d="M21.0215 35.1886C21.0215 35.1886 23.2052 30.4852 23.6057 30.02C24.0063 29.5549 24.7299 29.1543 25.3243 29.1543C26.1832 29.1543 33.4535 29.1543 38.4408 29.1543" stroke="#00DCE6"/>
<path d="M20.1562 40.3564L20.6214 40.8216C21.4355 41.6357 22.5209 42.0879 23.6708 42.0879H26.1905" stroke="#00DCE6"/>
<path d="M18.4375 48.9619V52.4119C18.4375 52.89 18.8251 53.2776 19.3032 53.2776H25.3375C25.8156 53.2776 26.2032 52.89 26.2032 52.4119V49.8276" stroke="#00DCE6"/>
<path d="M37.572 45.5254H26.1895" stroke="#00DCE6"/>
</svg>
