<svg width="70" height="70" viewBox="0 0 70 70" fill="none" xmlns="http://www.w3.org/2000/svg">
<circle cx="35" cy="35" r="35" fill="#00DCE6" fill-opacity="0.1"/>
<path d="M33.4132 36.33L25.6665 28.7V37.835H32.7482C32.8702 37.295 33.096 36.7838 33.4132 36.33V36.33ZM32.8065 39.4217H25.6665C25.8294 41.8461 26.7845 44.1499 28.3848 45.9783L33.4132 40.9617C33.1161 40.491 32.9103 39.9685 32.8065 39.4217V39.4217ZM39.9698 40.81L44.9165 45.78C46.4269 43.9856 47.3332 41.7607 47.5065 39.4217H40.5065C40.403 39.9102 40.2219 40.3789 39.9698 40.81V40.81ZM29.4698 47.0283C31.3009 48.6263 33.6025 49.5846 36.0265 49.7583V42.6417C35.4877 42.5466 34.9773 42.3312 34.5332 42.0117L29.4698 47.0283ZM37.6365 42.6417V49.7583C40.0601 49.5974 42.3619 48.6373 44.1815 47.0283L39.1882 42.0117C38.7024 42.3255 38.1591 42.5397 37.5898 42.6417H37.6365ZM25.6898 26.3667C27.6032 28.2683 33.5882 34.2417 34.5915 35.2567C35.0263 34.9958 35.4984 34.803 35.9915 34.685V23.1117L25.6665 14C25.6665 14 25.6898 26.0867 25.6898 26.3667ZM43.9365 30.4267C42.1102 28.8301 39.8115 27.8754 37.3915 27.7083V34.8133C37.9327 34.9071 38.4443 35.1269 38.8848 35.455L43.9365 30.4267ZM40.5998 37.835H47.7165C47.5521 35.4087 46.5926 33.1043 44.9865 31.2783L39.9698 36.295C40.2655 36.769 40.4785 37.2897 40.5998 37.835V37.835Z" fill="#00DCE6"/>
</svg>
