<svg width="70" height="70" viewBox="0 0 70 70" fill="none" xmlns="http://www.w3.org/2000/svg">
<circle cx="35" cy="35" r="35" fill="#00DCE6" fill-opacity="0.1"/>
<mask id="path-2-outside-1" maskUnits="userSpaceOnUse" x="13" y="14.1667" width="44" height="41" fill="black">
<rect fill="white" x="13" y="14.1667" width="44" height="41"/>
<path fill-rule="evenodd" clip-rule="evenodd" d="M25.1933 51.6752L14.0581 35.9133C14.0194 35.8777 14 35.8273 14 35.7768L14.0006 35.7344L14 35.6804L22.0299 18.2395C21.7058 18.0183 21.4876 17.6461 21.4876 17.2355C21.4876 16.5788 22.0459 16.0205 22.7027 16.0205C23.2542 16.0205 23.7364 16.4141 23.8768 16.9292L42.9963 15.1667C43.0618 15.1667 43.1276 15.1995 43.1604 15.2651L54.2617 30.979C54.4212 30.9001 54.5992 30.8555 54.7849 30.8555C55.4417 30.8555 56 31.4138 56 32.0705C56 32.7273 55.4417 33.2855 54.7849 33.2855C54.6624 33.2855 54.5434 33.2661 54.4306 33.2302L46.4115 50.6472C46.3787 50.7129 46.3129 50.7457 46.2474 50.7457L27.3318 52.4894C27.3116 53.1303 26.7618 53.668 26.1173 53.668C25.4604 53.668 24.9022 53.1097 24.9022 52.453C24.9022 52.1607 25.0127 51.8879 25.1933 51.6752ZM27.2799 52.1081C27.2515 52.0164 27.2124 51.9288 27.164 51.847L35.5531 46.9996L45.2884 50.4289L27.2799 52.1081ZM46.0503 50.2841L36.0015 46.7405L41.6998 43.4478C41.9214 43.7694 42.292 43.9856 42.7007 43.9856C43.3575 43.9856 43.9158 43.4273 43.9158 42.7706C43.9158 42.4939 43.8166 42.2347 43.6529 42.0274L46.2907 39.6948L46.0503 50.2841ZM43.5238 41.8871L46.2967 39.426L46.467 31.928L41.4956 36.1815L42.5247 41.569C42.5822 41.5601 42.6412 41.5555 42.7007 41.5555C43.0143 41.5555 43.3051 41.6827 43.5238 41.8871ZM40.1087 28.9213L46.4086 31.1774L45.2778 26.2347L39.6744 22.754C39.5069 22.9498 39.273 23.0894 39.0056 23.1471L40.1087 28.9213ZM46.8097 31.2855L45.7168 26.5074L53.7273 31.4833C53.6744 31.5764 53.6331 31.6767 53.6063 31.7818L46.8097 31.2855ZM53.5744 32.1746C53.594 32.3924 53.6746 32.5961 53.7983 32.7682L46.667 39.0975L46.8324 31.6823L53.5744 32.1746ZM46.2802 31.5449L40.1933 29.3655L41.4056 35.7106L46.2802 31.5449ZM41.2962 35.8041L40.0691 29.321L33.1608 26.8475L28.2148 31.127L29.5979 38.1777L35.9365 40.3841L41.2962 35.8041ZM38.9039 23.1648L39.9851 28.8771L33.4992 26.5545L37.8494 22.7905C38.073 23.0265 38.3869 23.1765 38.7273 23.1765C38.7871 23.1765 38.8464 23.1725 38.9039 23.1648ZM37.7797 22.7103L33.383 26.5129L27.1851 24.2934L33.8672 20.6268L37.5401 21.7088C37.5219 21.7906 37.5122 21.8752 37.5122 21.9615C37.5122 22.2407 37.6133 22.502 37.7797 22.7103ZM26.7792 24.0792L23.4703 18.1896C23.6372 18.0568 23.7657 17.8798 23.8415 17.6735L33.3312 20.4689L26.7792 24.0792ZM26.4534 24.3036L22.8004 27.6385V18.447C22.9143 18.4386 23.0232 18.4156 23.1251 18.3798L26.4534 24.3036ZM27.8681 31.2825L26.5773 24.6993L22.8004 28.1606V34.6014C23.1049 34.6271 23.3823 34.7719 23.5846 34.9873L27.8681 31.2825ZM33.0444 26.8058L28.1906 31.0037L26.9382 24.6194L33.0444 26.8058ZM23.6566 35.0711L27.8923 31.406L29.1929 38.0367L23.8643 36.1819C23.899 36.0661 23.9178 35.9421 23.9178 35.8123C23.9178 35.5365 23.8195 35.2781 23.6566 35.0711ZM23.8338 36.2711L29.2125 38.1364L30.5042 44.7237L23.8349 40.9757L23.063 36.9766C23.4205 36.8721 23.701 36.6135 23.8338 36.2711ZM35.7645 46.657L31.1525 45.0307L36.3267 40.6036L41.5423 42.4123C41.5055 42.5261 41.4856 42.6466 41.4856 42.7706C41.4856 42.9519 41.528 43.1257 41.6035 43.2823L35.7645 46.657ZM26.9174 51.5484L30.8526 45.3438L35.3162 46.9161L27.0544 51.6908C27.0125 51.6399 26.9666 51.5922 26.9174 51.5484ZM30.5045 45.1769L26.5818 51.3344C26.4377 51.2724 26.2805 51.2379 26.1173 51.2379C26.0162 51.2379 25.9176 51.2511 25.823 51.2759L23.9315 41.4766L30.5045 45.1769ZM29.6176 38.2768L35.8667 40.444L30.8788 44.7065L29.6176 38.2768ZM41.5665 42.3438L36.3962 40.5441L41.3853 36.2757L42.3925 41.5972C42.0174 41.7 41.7072 41.9839 41.5665 42.3438ZM46.4311 49.6676L46.661 39.3674L53.9387 32.9318C53.9845 32.9768 54.0338 33.0184 54.0859 33.056L46.4311 49.6676ZM53.8245 31.338L45.6592 26.2557L43.3641 16.2196L53.9569 31.1915C53.9091 31.2368 53.8649 31.2858 53.8245 31.338ZM23.9144 17.3306L42.1048 15.6345L33.5553 20.3455L23.8899 17.5053C23.9019 17.4487 23.9101 17.3903 23.9144 17.3306ZM37.5942 21.5324L34.0922 20.5034L42.865 15.6898L45.22 25.9822L39.7854 22.5995C39.8951 22.416 39.9538 22.1984 39.9424 21.9615C39.9424 21.3047 39.3841 20.7465 38.7273 20.7465C38.2206 20.7465 37.7725 21.0789 37.5942 21.5324ZM22.6364 18.4487V27.7883L14.7927 34.949L22.386 18.4065C22.4669 18.4293 22.5506 18.4437 22.6364 18.4487ZM23.7335 41.3651L14.8716 36.3761L25.4864 51.4215C25.5379 51.3894 25.592 51.3608 25.6479 51.3365L23.7335 41.3651ZM22.8981 37.0128L23.6375 40.8648L14.5255 35.744L22.6364 28.3109V34.5991C22.0089 34.6352 21.4876 35.1778 21.4876 35.8123C21.4876 36.469 22.0459 37.0273 22.7027 37.0273C22.7697 37.0273 22.8346 37.0224 22.8981 37.0128Z"/>
</mask>
<path fill-rule="evenodd" clip-rule="evenodd" d="M25.1933 51.6752L14.0581 35.9133C14.0194 35.8777 14 35.8273 14 35.7768L14.0006 35.7344L14 35.6804L22.0299 18.2395C21.7058 18.0183 21.4876 17.6461 21.4876 17.2355C21.4876 16.5788 22.0459 16.0205 22.7027 16.0205C23.2542 16.0205 23.7364 16.4141 23.8768 16.9292L42.9963 15.1667C43.0618 15.1667 43.1276 15.1995 43.1604 15.2651L54.2617 30.979C54.4212 30.9001 54.5992 30.8555 54.7849 30.8555C55.4417 30.8555 56 31.4138 56 32.0705C56 32.7273 55.4417 33.2855 54.7849 33.2855C54.6624 33.2855 54.5434 33.2661 54.4306 33.2302L46.4115 50.6472C46.3787 50.7129 46.3129 50.7457 46.2474 50.7457L27.3318 52.4894C27.3116 53.1303 26.7618 53.668 26.1173 53.668C25.4604 53.668 24.9022 53.1097 24.9022 52.453C24.9022 52.1607 25.0127 51.8879 25.1933 51.6752ZM27.2799 52.1081C27.2515 52.0164 27.2124 51.9288 27.164 51.847L35.5531 46.9996L45.2884 50.4289L27.2799 52.1081ZM46.0503 50.2841L36.0015 46.7405L41.6998 43.4478C41.9214 43.7694 42.292 43.9856 42.7007 43.9856C43.3575 43.9856 43.9158 43.4273 43.9158 42.7706C43.9158 42.4939 43.8166 42.2347 43.6529 42.0274L46.2907 39.6948L46.0503 50.2841ZM43.5238 41.8871L46.2967 39.426L46.467 31.928L41.4956 36.1815L42.5247 41.569C42.5822 41.5601 42.6412 41.5555 42.7007 41.5555C43.0143 41.5555 43.3051 41.6827 43.5238 41.8871ZM40.1087 28.9213L46.4086 31.1774L45.2778 26.2347L39.6744 22.754C39.5069 22.9498 39.273 23.0894 39.0056 23.1471L40.1087 28.9213ZM46.8097 31.2855L45.7168 26.5074L53.7273 31.4833C53.6744 31.5764 53.6331 31.6767 53.6063 31.7818L46.8097 31.2855ZM53.5744 32.1746C53.594 32.3924 53.6746 32.5961 53.7983 32.7682L46.667 39.0975L46.8324 31.6823L53.5744 32.1746ZM46.2802 31.5449L40.1933 29.3655L41.4056 35.7106L46.2802 31.5449ZM41.2962 35.8041L40.0691 29.321L33.1608 26.8475L28.2148 31.127L29.5979 38.1777L35.9365 40.3841L41.2962 35.8041ZM38.9039 23.1648L39.9851 28.8771L33.4992 26.5545L37.8494 22.7905C38.073 23.0265 38.3869 23.1765 38.7273 23.1765C38.7871 23.1765 38.8464 23.1725 38.9039 23.1648ZM37.7797 22.7103L33.383 26.5129L27.1851 24.2934L33.8672 20.6268L37.5401 21.7088C37.5219 21.7906 37.5122 21.8752 37.5122 21.9615C37.5122 22.2407 37.6133 22.502 37.7797 22.7103ZM26.7792 24.0792L23.4703 18.1896C23.6372 18.0568 23.7657 17.8798 23.8415 17.6735L33.3312 20.4689L26.7792 24.0792ZM26.4534 24.3036L22.8004 27.6385V18.447C22.9143 18.4386 23.0232 18.4156 23.1251 18.3798L26.4534 24.3036ZM27.8681 31.2825L26.5773 24.6993L22.8004 28.1606V34.6014C23.1049 34.6271 23.3823 34.7719 23.5846 34.9873L27.8681 31.2825ZM33.0444 26.8058L28.1906 31.0037L26.9382 24.6194L33.0444 26.8058ZM23.6566 35.0711L27.8923 31.406L29.1929 38.0367L23.8643 36.1819C23.899 36.0661 23.9178 35.9421 23.9178 35.8123C23.9178 35.5365 23.8195 35.2781 23.6566 35.0711ZM23.8338 36.2711L29.2125 38.1364L30.5042 44.7237L23.8349 40.9757L23.063 36.9766C23.4205 36.8721 23.701 36.6135 23.8338 36.2711ZM35.7645 46.657L31.1525 45.0307L36.3267 40.6036L41.5423 42.4123C41.5055 42.5261 41.4856 42.6466 41.4856 42.7706C41.4856 42.9519 41.528 43.1257 41.6035 43.2823L35.7645 46.657ZM26.9174 51.5484L30.8526 45.3438L35.3162 46.9161L27.0544 51.6908C27.0125 51.6399 26.9666 51.5922 26.9174 51.5484ZM30.5045 45.1769L26.5818 51.3344C26.4377 51.2724 26.2805 51.2379 26.1173 51.2379C26.0162 51.2379 25.9176 51.2511 25.823 51.2759L23.9315 41.4766L30.5045 45.1769ZM29.6176 38.2768L35.8667 40.444L30.8788 44.7065L29.6176 38.2768ZM41.5665 42.3438L36.3962 40.5441L41.3853 36.2757L42.3925 41.5972C42.0174 41.7 41.7072 41.9839 41.5665 42.3438ZM46.4311 49.6676L46.661 39.3674L53.9387 32.9318C53.9845 32.9768 54.0338 33.0184 54.0859 33.056L46.4311 49.6676ZM53.8245 31.338L45.6592 26.2557L43.3641 16.2196L53.9569 31.1915C53.9091 31.2368 53.8649 31.2858 53.8245 31.338ZM23.9144 17.3306L42.1048 15.6345L33.5553 20.3455L23.8899 17.5053C23.9019 17.4487 23.9101 17.3903 23.9144 17.3306ZM37.5942 21.5324L34.0922 20.5034L42.865 15.6898L45.22 25.9822L39.7854 22.5995C39.8951 22.416 39.9538 22.1984 39.9424 21.9615C39.9424 21.3047 39.3841 20.7465 38.7273 20.7465C38.2206 20.7465 37.7725 21.0789 37.5942 21.5324ZM22.6364 18.4487V27.7883L14.7927 34.949L22.386 18.4065C22.4669 18.4293 22.5506 18.4437 22.6364 18.4487ZM23.7335 41.3651L14.8716 36.3761L25.4864 51.4215C25.5379 51.3894 25.592 51.3608 25.6479 51.3365L23.7335 41.3651ZM22.8981 37.0128L23.6375 40.8648L14.5255 35.744L22.6364 28.3109V34.5991C22.0089 34.6352 21.4876 35.1778 21.4876 35.8123C21.4876 36.469 22.0459 37.0273 22.7027 37.0273C22.7697 37.0273 22.8346 37.0224 22.8981 37.0128Z" fill="#00DCE6"/>
<path fill-rule="evenodd" clip-rule="evenodd" d="M25.1933 51.6752L14.0581 35.9133C14.0194 35.8777 14 35.8273 14 35.7768L14.0006 35.7344L14 35.6804L22.0299 18.2395C21.7058 18.0183 21.4876 17.6461 21.4876 17.2355C21.4876 16.5788 22.0459 16.0205 22.7027 16.0205C23.2542 16.0205 23.7364 16.4141 23.8768 16.9292L42.9963 15.1667C43.0618 15.1667 43.1276 15.1995 43.1604 15.2651L54.2617 30.979C54.4212 30.9001 54.5992 30.8555 54.7849 30.8555C55.4417 30.8555 56 31.4138 56 32.0705C56 32.7273 55.4417 33.2855 54.7849 33.2855C54.6624 33.2855 54.5434 33.2661 54.4306 33.2302L46.4115 50.6472C46.3787 50.7129 46.3129 50.7457 46.2474 50.7457L27.3318 52.4894C27.3116 53.1303 26.7618 53.668 26.1173 53.668C25.4604 53.668 24.9022 53.1097 24.9022 52.453C24.9022 52.1607 25.0127 51.8879 25.1933 51.6752ZM27.2799 52.1081C27.2515 52.0164 27.2124 51.9288 27.164 51.847L35.5531 46.9996L45.2884 50.4289L27.2799 52.1081ZM46.0503 50.2841L36.0015 46.7405L41.6998 43.4478C41.9214 43.7694 42.292 43.9856 42.7007 43.9856C43.3575 43.9856 43.9158 43.4273 43.9158 42.7706C43.9158 42.4939 43.8166 42.2347 43.6529 42.0274L46.2907 39.6948L46.0503 50.2841ZM43.5238 41.8871L46.2967 39.426L46.467 31.928L41.4956 36.1815L42.5247 41.569C42.5822 41.5601 42.6412 41.5555 42.7007 41.5555C43.0143 41.5555 43.3051 41.6827 43.5238 41.8871ZM40.1087 28.9213L46.4086 31.1774L45.2778 26.2347L39.6744 22.754C39.5069 22.9498 39.273 23.0894 39.0056 23.1471L40.1087 28.9213ZM46.8097 31.2855L45.7168 26.5074L53.7273 31.4833C53.6744 31.5764 53.6331 31.6767 53.6063 31.7818L46.8097 31.2855ZM53.5744 32.1746C53.594 32.3924 53.6746 32.5961 53.7983 32.7682L46.667 39.0975L46.8324 31.6823L53.5744 32.1746ZM46.2802 31.5449L40.1933 29.3655L41.4056 35.7106L46.2802 31.5449ZM41.2962 35.8041L40.0691 29.321L33.1608 26.8475L28.2148 31.127L29.5979 38.1777L35.9365 40.3841L41.2962 35.8041ZM38.9039 23.1648L39.9851 28.8771L33.4992 26.5545L37.8494 22.7905C38.073 23.0265 38.3869 23.1765 38.7273 23.1765C38.7871 23.1765 38.8464 23.1725 38.9039 23.1648ZM37.7797 22.7103L33.383 26.5129L27.1851 24.2934L33.8672 20.6268L37.5401 21.7088C37.5219 21.7906 37.5122 21.8752 37.5122 21.9615C37.5122 22.2407 37.6133 22.502 37.7797 22.7103ZM26.7792 24.0792L23.4703 18.1896C23.6372 18.0568 23.7657 17.8798 23.8415 17.6735L33.3312 20.4689L26.7792 24.0792ZM26.4534 24.3036L22.8004 27.6385V18.447C22.9143 18.4386 23.0232 18.4156 23.1251 18.3798L26.4534 24.3036ZM27.8681 31.2825L26.5773 24.6993L22.8004 28.1606V34.6014C23.1049 34.6271 23.3823 34.7719 23.5846 34.9873L27.8681 31.2825ZM33.0444 26.8058L28.1906 31.0037L26.9382 24.6194L33.0444 26.8058ZM23.6566 35.0711L27.8923 31.406L29.1929 38.0367L23.8643 36.1819C23.899 36.0661 23.9178 35.9421 23.9178 35.8123C23.9178 35.5365 23.8195 35.2781 23.6566 35.0711ZM23.8338 36.2711L29.2125 38.1364L30.5042 44.7237L23.8349 40.9757L23.063 36.9766C23.4205 36.8721 23.701 36.6135 23.8338 36.2711ZM35.7645 46.657L31.1525 45.0307L36.3267 40.6036L41.5423 42.4123C41.5055 42.5261 41.4856 42.6466 41.4856 42.7706C41.4856 42.9519 41.528 43.1257 41.6035 43.2823L35.7645 46.657ZM26.9174 51.5484L30.8526 45.3438L35.3162 46.9161L27.0544 51.6908C27.0125 51.6399 26.9666 51.5922 26.9174 51.5484ZM30.5045 45.1769L26.5818 51.3344C26.4377 51.2724 26.2805 51.2379 26.1173 51.2379C26.0162 51.2379 25.9176 51.2511 25.823 51.2759L23.9315 41.4766L30.5045 45.1769ZM29.6176 38.2768L35.8667 40.444L30.8788 44.7065L29.6176 38.2768ZM41.5665 42.3438L36.3962 40.5441L41.3853 36.2757L42.3925 41.5972C42.0174 41.7 41.7072 41.9839 41.5665 42.3438ZM46.4311 49.6676L46.661 39.3674L53.9387 32.9318C53.9845 32.9768 54.0338 33.0184 54.0859 33.056L46.4311 49.6676ZM53.8245 31.338L45.6592 26.2557L43.3641 16.2196L53.9569 31.1915C53.9091 31.2368 53.8649 31.2858 53.8245 31.338ZM23.9144 17.3306L42.1048 15.6345L33.5553 20.3455L23.8899 17.5053C23.9019 17.4487 23.9101 17.3903 23.9144 17.3306ZM37.5942 21.5324L34.0922 20.5034L42.865 15.6898L45.22 25.9822L39.7854 22.5995C39.8951 22.416 39.9538 22.1984 39.9424 21.9615C39.9424 21.3047 39.3841 20.7465 38.7273 20.7465C38.2206 20.7465 37.7725 21.0789 37.5942 21.5324ZM22.6364 18.4487V27.7883L14.7927 34.949L22.386 18.4065C22.4669 18.4293 22.5506 18.4437 22.6364 18.4487ZM23.7335 41.3651L14.8716 36.3761L25.4864 51.4215C25.5379 51.3894 25.592 51.3608 25.6479 51.3365L23.7335 41.3651ZM22.8981 37.0128L23.6375 40.8648L14.5255 35.744L22.6364 28.3109V34.5991C22.0089 34.6352 21.4876 35.1778 21.4876 35.8123C21.4876 36.469 22.0459 37.0273 22.7027 37.0273C22.7697 37.0273 22.8346 37.0224 22.8981 37.0128Z" stroke="#00DCE6" mask="url(#path-2-outside-1)"/>
</svg>
