<svg width="270" height="113" viewBox="0 0 270 113" fill="none" xmlns="http://www.w3.org/2000/svg">
<path d="M145.264 22C146.077 22.2837 146.928 22.245 147.766 22.374C155.258 23.5861 161.821 26.6164 167.031 32.2514C170.177 35.6556 172.15 39.6401 172.679 44.2823C172.769 45.0689 172.73 45.8683 172.782 46.6678C172.808 47.1062 172.614 47.1965 172.227 47.2352C165.264 47.8155 158.585 46.9257 152.253 43.7536C148.913 42.0773 145.703 40.1817 142.53 38.2217C139.951 36.6356 137.269 35.2688 134.484 34.0567C129.752 32.0064 125.2 32.4706 120.738 34.8433C117.282 36.6872 114.742 39.5112 112.498 42.6575C111.57 43.9728 110.693 45.3268 109.881 46.7194C109.7 47.0289 109.507 47.1707 109.133 47.1578C108.346 47.1191 107.547 47.1449 106.67 47.1449C107.199 45.8941 107.843 44.7723 108.501 43.6504C112.047 37.6156 116.534 32.4448 122.324 28.4861C127.56 24.9013 133.324 22.7479 139.655 22.1289C139.771 22.1161 139.926 22.1547 139.977 22C141.744 22 143.498 22 145.264 22Z" fill="#818592"/>
<path d="M133.646 82.5028C134.832 82.5028 136.006 82.5157 137.192 82.4899C137.54 82.4899 137.695 82.5672 137.682 82.9412C137.669 83.2636 137.734 83.5859 137.772 83.8954C137.901 84.7594 138.481 85.3138 139.345 85.417C141.28 85.6491 142.569 84.9012 143.33 83.0959C143.949 81.6388 144.116 80.0656 144.465 78.544C144.735 77.3706 144.955 76.1972 145.187 75.0109C145.213 74.869 145.406 74.6627 145.148 74.5853C144.968 74.5338 144.71 74.4822 144.555 74.7014C144.478 74.8045 144.413 74.9206 144.349 75.0238C142.208 78.544 137.991 79.653 134.716 78.918C132.498 78.4151 131.389 76.7646 130.848 74.6885C130.332 72.7285 130.435 70.7169 130.706 68.7311C131.26 64.6434 132.163 60.6331 133.917 56.8549C134.858 54.8304 136.044 52.9736 137.85 51.6067C140.132 49.8788 142.711 49.4275 145.47 50.0851C147.534 50.5751 148.733 51.9936 149.017 54.0825C149.029 54.2115 149.068 54.3404 149.081 54.4694C149.094 54.7015 149.12 54.8691 149.442 54.8562C149.752 54.8562 149.764 54.6757 149.803 54.4565C150.022 53.3604 150.293 52.2773 150.474 51.1812C150.551 50.6783 150.77 50.588 151.222 50.588C153.504 50.6138 155.773 50.6138 158.056 50.588C158.662 50.5751 158.842 50.6396 158.688 51.323C156.637 61.02 154.652 70.7169 152.601 80.4138C151.815 84.1533 149.984 87.261 146.373 88.9115C142.414 90.7297 138.249 91.0391 134.071 89.7883C131.66 89.0662 130.1 87.3899 129.584 84.8625C129.442 84.1533 129.571 83.457 129.623 82.7478C129.648 82.3996 129.881 82.477 130.087 82.477C131.286 82.5028 132.46 82.5028 133.646 82.5028ZM148.037 59.9368C148.011 59.3436 148.011 58.8665 147.946 58.4023C147.74 56.6873 146.541 55.8749 144.839 56.2489C144.065 56.4165 143.472 56.8291 142.982 57.4223C142.44 58.0799 142.079 58.8149 141.77 59.6015C140.97 61.6389 140.506 63.7795 140.106 65.92C139.835 67.3513 139.513 68.7827 139.681 70.2527C139.9 72.3158 141.215 73.2056 143.24 72.7414C144.684 72.4061 145.406 71.3358 145.896 70.085C147.173 66.7969 147.753 63.341 148.037 59.9368Z" fill="#818592"/>
<path d="M84.9168 65.5976C84.285 69.1695 83.4339 72.6124 81.3063 75.5911C78.9465 78.8922 75.6583 80.6588 71.6996 81.1746C69.0433 81.5228 66.3869 81.4841 63.7693 80.8264C60.249 79.9367 58.4179 77.6801 58.0955 74.0695C57.7861 70.6266 58.2761 67.2611 58.8821 63.8955C59.63 59.6918 60.5585 55.5268 62.1058 51.5294C62.9311 49.4017 63.9627 47.3772 65.4069 45.5977C67.7796 42.6706 70.913 41.2393 74.5751 40.8396C77.2315 40.5559 79.9007 40.5301 82.4926 41.3167C85.8968 42.3482 87.6376 44.6693 87.7666 48.2412C87.8439 50.343 87.4055 52.3804 86.9929 54.4178C86.9413 54.7015 86.7995 54.7531 86.5545 54.7531C83.8852 54.7531 81.2289 54.7402 78.5597 54.7531C78.0568 54.7531 78.1986 54.4565 78.2244 54.2115C78.4178 52.806 78.6628 51.4133 78.7531 49.9949C78.766 49.7757 78.766 49.5694 78.766 49.3501C78.8949 46.8872 77.0123 46.178 75.1167 46.6938C73.8401 47.042 73.0407 47.9317 72.4217 49.0278C71.5578 50.5494 71.042 52.2128 70.6164 53.8891C69.3012 59.1115 68.1793 64.3726 67.4314 69.7111C67.3025 70.6653 67.238 71.6324 67.3411 72.5995C67.6119 74.9722 69.2367 76.0425 71.532 75.3075C72.6538 74.9464 73.3372 74.1082 73.853 73.1153C74.8201 71.2585 75.2844 69.2211 75.7486 67.1966C76.1225 65.5847 76.1096 65.5847 77.7344 65.5847C79.9007 65.5847 82.0799 65.5847 84.2463 65.5847C84.4655 65.5976 84.6718 65.5976 84.9168 65.5976Z" fill="#818592"/>
<path d="M103.421 80.0142C102.234 80.0142 101.061 79.9755 99.8747 80.0271C99.2557 80.0529 99.1525 79.8337 99.2041 79.305C99.2815 78.5313 99.3073 77.7576 99.346 76.9839C99.346 76.8421 99.4749 76.6229 99.2299 76.5455C99.0236 76.481 98.8818 76.5842 98.7528 76.7647C97.0507 79.2921 94.5362 80.3752 91.6349 80.7363C90.3196 80.891 89.0172 80.7492 87.7535 80.3366C85.7806 79.6918 84.7103 78.2476 84.5556 76.236C84.3235 73.2702 84.994 70.472 86.5285 67.9188C87.7535 65.8815 89.7006 64.7725 91.8799 64.0117C94.2396 63.1864 96.6896 62.7867 99.1139 62.2064C100.752 61.8067 102.222 61.1748 102.905 59.4598C103.253 58.5701 103.472 57.6545 103.292 56.6874C103.098 55.6816 102.467 55.1014 101.499 54.8822C99.5007 54.4308 97.876 55.2432 96.9991 57.1001C96.9217 57.2548 96.8573 57.4095 96.7928 57.5643C96.6381 57.9769 96.6123 58.583 96.3157 58.7764C95.9804 58.9956 95.4001 58.8538 94.9359 58.8538C93.1049 58.8538 91.2867 58.8409 89.4556 58.8667C88.9269 58.8796 88.8496 58.7635 89.0043 58.2735C90.3583 53.8893 93.3499 51.2845 97.7599 50.2787C100.997 49.5437 104.246 49.5824 107.457 50.4592C110.436 51.2716 111.738 53.1542 111.661 56.2619C111.609 58.3122 111.042 60.2851 110.642 62.2838C109.713 66.9517 108.746 71.6197 107.805 76.2876C107.599 77.345 107.508 78.4152 107.624 79.4984C107.663 79.8981 107.573 80.0142 107.16 80.0013C105.909 80.0013 104.659 80.0142 103.421 80.0142ZM93.5304 72.2902C93.5175 74.3792 94.6909 75.4236 96.767 75.1399C98.0307 74.9723 98.9333 74.2631 99.6039 73.2315C100.171 72.3547 100.507 71.3875 100.739 70.3818C101.074 68.9375 101.358 67.4933 101.654 66.0491C101.744 65.6236 101.757 65.3399 101.138 65.5591C100.39 65.817 99.6039 65.933 98.8302 66.1136C95.2583 66.9388 93.5562 68.9375 93.5304 72.2902Z" fill="#818592"/>
<path d="M175.787 80.0134C174.497 80.0134 173.208 79.9877 171.918 80.0263C171.403 80.0392 171.377 79.8587 171.467 79.4332C172.602 73.9787 173.737 68.5112 174.871 63.0567C176.354 55.9001 177.837 48.7306 179.307 41.5739C179.423 40.9808 179.63 40.8002 180.249 40.8131C182.763 40.8518 185.278 40.8518 187.792 40.8131C188.308 40.8131 188.359 40.9163 188.256 41.4192C185.613 54.0948 182.995 66.7833 180.39 79.4719C180.3 79.8974 180.158 80.0263 179.733 80.0134C178.405 80.0006 177.089 80.0134 175.787 80.0134Z" fill="#818592"/>
<path d="M185.625 80.0134C186.347 76.5318 187.056 73.1146 187.766 69.6975C189.674 60.4648 191.582 51.2192 193.491 41.9865C193.723 40.8389 193.71 40.8389 194.871 40.8389C197.217 40.8389 199.551 40.8389 201.898 40.8389C202.13 40.8389 202.363 40.8389 202.633 40.8389C201.847 44.6686 201.06 48.4597 200.286 52.225C198.417 61.2772 196.534 70.3165 194.677 79.3686C194.587 79.8329 194.445 80.0263 193.916 80.0263C191.376 79.9876 188.849 80.0134 186.308 80.0134C186.089 80.0134 185.87 80.0134 185.625 80.0134Z" fill="#818592"/>
<path d="M110.849 80.0142C111.687 75.9394 112.538 71.942 113.35 67.9188C114.292 63.2767 115.349 58.6603 116.174 53.9924C116.342 53.0253 116.471 52.0324 116.303 51.0395C116.252 50.73 116.303 50.6269 116.638 50.6269C119.449 50.6397 122.273 50.6397 125.085 50.6269C125.6 50.6269 125.433 50.9363 125.381 51.1684C125.136 52.4063 124.865 53.6442 124.633 54.8821C124.595 55.0756 124.324 55.3593 124.646 55.4882C124.994 55.63 125.213 55.3979 125.381 55.0756C126.193 53.5153 127.354 52.2774 128.824 51.3232C130.32 50.3561 131.932 49.8145 133.737 49.8274C134.227 49.8274 134.24 50.0079 134.162 50.3819C133.66 52.7545 133.157 55.1272 132.692 57.4998C132.615 57.9253 132.447 58.0156 132.061 57.964C130.732 57.7835 129.404 57.8351 128.089 58.1445C125.33 58.7893 123.808 60.6719 123.241 63.3283C122.08 68.6925 120.984 74.0697 119.888 79.4468C119.798 79.8852 119.669 80.04 119.192 80.04C116.445 80.0013 113.698 80.0142 110.849 80.0142Z" fill="#818592"/>
<path d="M161.512 80.0144C160.222 80.0144 158.933 79.9886 157.643 80.0273C157.141 80.0402 157.037 79.9112 157.141 79.4212C157.914 75.8107 158.662 72.2001 159.41 68.5896C160.596 62.8771 161.783 57.1776 162.93 51.4523C163.072 50.756 163.33 50.5884 164.001 50.6013C166.489 50.6399 168.978 50.6271 171.48 50.6142C171.905 50.6142 172.021 50.7044 171.931 51.1428C169.971 60.569 168.011 69.9822 166.077 79.4212C165.974 79.9241 165.78 80.0273 165.329 80.0144C164.052 80.0015 162.789 80.0144 161.512 80.0144Z" fill="#818592"/>
<path d="M208.81 44.295C209.287 43.2763 209.751 42.2576 210.229 41.2518C210.306 41.0842 210.306 40.8779 210.551 40.8263C211.054 40.6973 211.247 40.8521 211.144 41.3679C210.912 42.4768 210.68 43.5858 210.448 44.6947C210.409 44.9011 210.396 45.159 210.074 45.0687C209.739 44.9784 209.984 44.7334 210.009 44.5916C210.177 43.6503 210.37 42.7089 210.564 41.7805C210.512 41.7676 210.461 41.7418 210.409 41.7289C209.958 42.696 209.519 43.6503 209.068 44.6174C208.952 44.8624 208.875 45.159 208.488 45.0816C208.114 45.0042 208.294 44.7076 208.281 44.5142C208.217 43.8308 208.204 43.1474 208.165 42.4639C208.152 42.2834 208.23 42.0642 207.946 41.8966C207.766 42.7734 207.585 43.6245 207.405 44.4755C207.379 44.6174 207.327 44.7721 207.301 44.914C207.276 45.0945 207.16 45.0945 207.018 45.0945C206.824 45.0945 206.824 44.9784 206.863 44.8366C207.121 43.5729 207.379 42.3221 207.65 41.0584C207.74 40.6458 208.062 40.8779 208.281 40.8521C208.591 40.8005 208.552 41.0584 208.552 41.2389C208.552 42.2576 208.552 43.2763 208.552 44.2821C208.642 44.2821 208.72 44.295 208.81 44.295Z" fill="#818592"/>
<path d="M205.845 40.827C206.193 40.827 206.528 40.827 206.876 40.827C206.992 40.827 207.147 40.7754 207.16 40.9818C207.16 41.1365 207.082 41.2525 206.928 41.2268C205.78 40.9818 205.883 41.8715 205.741 42.542C205.6 43.2384 205.471 43.9347 205.303 44.6181C205.264 44.8115 205.316 45.1726 204.942 45.0823C204.568 44.9921 204.839 44.7213 204.865 44.5665C205.019 43.6639 205.174 42.7484 205.419 41.8586C205.574 41.3041 205.406 41.1752 204.89 41.2268C204.761 41.2397 204.503 41.3557 204.478 41.0849C204.439 40.7883 204.684 40.827 204.877 40.827C205.2 40.827 205.522 40.827 205.845 40.827Z" fill="#818592"/>
</svg>
