<svg width="270" height="113" viewBox="0 0 270 113" fill="none" xmlns="http://www.w3.org/2000/svg">
<path d="M192.2 71.1C194.3 71.1 196 69.4 196 67.3C196 65.2 194.3 63.5 192.2 63.5C190.1 63.5 188.4 65.2 188.4 67.3C188.4 69.4 190.1 71.1 192.2 71.1Z" fill="#818592"/>
<path d="M85.4 63.3C85.4 66.2 85.6 67.3 86.9 67.8C88.2 68.3 90.3 68.4 93.3 68.4C99.6 68.4 102.9 67.6 104.1 59.7H105.9L105.2 70.5H74V68.8C79.3 68.4 79.4 68.3 79.4 65V34.5C79.4 31.1 79.3 31 74 30.6V28.9H91.1V30.6C85.5 31 85.3 31.1 85.3 34.4V63.3H85.4ZM118.2 63C118.2 67.7 119.2 68.4 124.5 68.4C134.6 68.4 142 64.4 142 49.2C142 39 138.2 31.2 125.2 31C118.8 31 118.2 31.3 118.2 34.4V63ZM126.8 28.9C134 29 139.4 30.5 143.3 34.1C147 37.6 148.7 42.9 148.7 48.9C148.7 57.9 145.3 63.5 140.9 66.6C136.5 69.7 131 70.4 125.6 70.4H106.8V68.7C112.1 68.3 112.2 68.2 112.2 64.9V34.5C112.2 31.1 112.1 31 106.8 30.7V28.9H126.8ZM185.7 39.7H183.9C182.8 32.6 178.5 30.1 172.4 30.1C161.1 30 157.2 40 157.2 49.8C157.2 57.1 159.8 69.3 172.2 69.3C180.1 69.3 183.1 64.7 184.8 58.5H186.6L185.8 68.5C182.9 70.1 177.4 71.4 172.6 71.4C165.9 71.4 160 70 156.2 66.3C152.6 62.7 150.5 57 150.5 50C150.5 43.2 152.5 38 156 34.2C159.6 30.2 165.6 28 173 28C178.5 28 183 29.1 185.7 30.3V39.7Z" fill="#818592"/>
<path d="M76.1996 82.1002H79.0996V83.0002H75.0996V76.6002H76.1996V82.1002ZM79.1996 80.5002C79.1996 80.0002 79.2996 79.6002 79.4996 79.2002C79.6996 78.8002 79.8996 78.5002 80.2996 78.3002C80.5996 78.1002 80.9996 78.0002 81.4996 78.0002C82.0996 78.0002 82.6996 78.2002 83.0996 78.6002C83.4996 79.0002 83.6996 79.6002 83.6996 80.2002V80.5002C83.6996 81.0002 83.5996 81.4002 83.3996 81.8002C83.1996 82.2002 82.9996 82.5002 82.5996 82.7002C82.1996 82.9002 81.7996 83.0002 81.3996 83.0002C80.6996 83.0002 80.1996 82.8002 79.7996 82.3002C79.3996 81.9002 79.1996 81.3002 79.1996 80.5002ZM80.1996 80.6002C80.1996 81.1002 80.2996 81.5002 80.4996 81.7002C80.6996 82.0002 80.9996 82.1002 81.2996 82.1002C81.6996 82.1002 81.8996 82.0002 82.0996 81.7002C82.2996 81.4002 82.3996 81.0002 82.3996 80.5002C82.3996 80.0002 82.2996 79.6002 82.0996 79.4002C81.9996 79.1002 81.6996 79.0002 81.3996 79.0002C81.0996 79.0002 80.7996 79.1002 80.5996 79.4002C80.2996 79.7002 80.1996 80.1002 80.1996 80.6002ZM87.0996 82.5002C86.7996 82.9002 86.2996 83.1002 85.7996 83.1002C85.2996 83.1002 84.8996 82.9002 84.5996 82.6002C84.2996 82.3002 84.1996 81.9002 84.1996 81.3002V78.2002H85.2996V81.3002C85.2996 81.9002 85.5996 82.2002 86.0996 82.2002C86.5996 82.2002 86.9996 82.0002 87.1996 81.6002V78.2002H88.2996V83.0002H87.2996L87.0996 82.5002ZM89.0996 77.0002C89.0996 76.8002 89.1996 76.7002 89.2996 76.6002C89.3996 76.5002 89.5996 76.4002 89.6996 76.4002C89.7996 76.4002 89.9996 76.5002 90.0996 76.6002C90.1996 76.7002 90.2996 76.8002 90.2996 77.0002C90.2996 77.2002 90.1996 77.3002 90.0996 77.4002C89.9996 77.5002 89.7996 77.6002 89.6996 77.6002C89.5996 77.6002 89.3996 77.5002 89.2996 77.4002C89.1996 77.3002 89.0996 77.1002 89.0996 77.0002ZM90.1996 83.0002H89.0996V78.2002H90.1996V83.0002ZM93.8996 81.7002C93.8996 81.5002 93.7996 81.4002 93.6996 81.3002C93.4996 81.2002 93.2996 81.1002 92.8996 81.0002C92.4996 80.9002 92.1996 80.8002 91.9996 80.7002C91.4996 80.4002 91.1996 80.1002 91.1996 79.6002C91.1996 79.2002 91.3996 78.8002 91.6996 78.6002C91.9996 78.3002 92.4996 78.2002 92.9996 78.2002C93.5996 78.2002 93.9996 78.3002 94.3996 78.6002C94.7996 78.9002 94.8996 79.2002 94.8996 79.7002H93.7996C93.7996 79.5002 93.6996 79.3002 93.5996 79.2002C93.3996 79.1002 93.1996 79.0002 92.9996 79.0002C92.7996 79.0002 92.5996 79.1002 92.3996 79.2002C92.2996 79.3002 92.1996 79.5002 92.1996 79.6002C92.1996 79.8002 92.2996 79.9002 92.3996 80.0002C92.4996 80.1002 92.7996 80.2002 93.1996 80.3002C93.5996 80.4002 93.8996 80.5002 94.1996 80.6002C94.3996 80.7002 94.5996 80.9002 94.6996 81.1002C94.7996 81.3002 94.8996 81.5002 94.8996 81.8002C94.8996 82.2002 94.6996 82.6002 94.3996 82.8002C93.9996 83.1002 93.5996 83.2002 92.9996 83.2002C92.5996 83.2002 92.2996 83.1002 91.9996 83.0002C91.6996 82.9002 91.4996 82.7002 91.2996 82.4002C91.0996 82.1002 90.9996 81.9002 90.9996 81.6002H91.9996C91.9996 81.9002 92.0996 82.0002 92.2996 82.2002C92.4996 82.3002 92.6996 82.4002 92.9996 82.4002C93.2996 82.4002 93.4996 82.3002 93.5996 82.2002C93.8996 82.0002 93.8996 81.8002 93.8996 81.7002ZM97.8996 83.0002V76.6002H99.7996C100.4 76.6002 100.9 76.7002 101.3 77.0002C101.7 77.3002 102.1 77.6002 102.3 78.1002C102.5 78.6002 102.7 79.1002 102.7 79.7002V80.0002C102.7 80.6002 102.6 81.1002 102.3 81.6002C102.1 82.1002 101.7 82.4002 101.3 82.7002C100.9 82.9002 100.3 83.1002 99.7996 83.1002H97.8996V83.0002ZM98.9996 77.4002V82.0002H99.6996C100.3 82.0002 100.7 81.8002 101 81.5002C101.3 81.1002 101.5 80.6002 101.5 79.9002V79.5002C101.5 78.8002 101.3 78.3002 101 77.9002C100.7 77.5002 100.3 77.4002 99.6996 77.4002H98.9996ZM106 79.2002H105.6C105.1 79.2002 104.8 79.4002 104.6 79.8002V83.0002H103.5V78.2002H104.5V78.7002C104.8 78.3002 105.1 78.1002 105.6 78.1002C105.8 78.1002 105.9 78.1002 106 78.2002V79.2002ZM108.6 83.0002C107.9 83.0002 107.4 82.8002 107 82.4002C106.6 82.0002 106.4 81.4002 106.4 80.7002V80.6002C106.4 80.1002 106.5 79.7002 106.7 79.3002C106.9 78.9002 107.1 78.6002 107.5 78.4002C107.8 78.2002 108.2 78.1002 108.6 78.1002C109.2 78.1002 109.7 78.3002 110.1 78.7002C110.5 79.1002 110.6 79.7002 110.6 80.5002V80.9002H107.5C107.5 81.3002 107.7 81.6002 107.9 81.8002C108.1 82.0002 108.4 82.1002 108.8 82.1002C109.3 82.1002 109.7 81.9002 110 81.5002L110.6 82.0002C110.4 82.3002 110.2 82.5002 109.8 82.7002C109.3 83.0002 109 83.0002 108.6 83.0002ZM108.4 79.0002C108.1 79.0002 107.9 79.1002 107.7 79.3002C107.5 79.5002 107.4 79.8002 107.4 80.2002H109.4V80.1002C109.4 79.7002 109.3 79.5002 109.1 79.3002C109 79.1002 108.7 79.0002 108.4 79.0002ZM112.9 81.4002L113.9 78.2002H115L113.1 83.7002C112.8 84.5002 112.3 84.9002 111.6 84.9002C111.4 84.9002 111.3 84.9002 111.1 84.8002V84.0002H111.3C111.6 84.0002 111.8 84.0002 111.9 83.9002C112 83.8002 112.1 83.6002 112.2 83.4002L112.4 83.0002L110.7 78.3002H111.9L112.9 81.4002ZM116.2 83.0002V79.0002H115.5V78.2002H116.2V77.8002C116.2 77.3002 116.3 76.9002 116.6 76.6002C116.9 76.3002 117.3 76.2002 117.8 76.2002C118 76.2002 118.2 76.2002 118.4 76.3002V77.1002H118C117.5 77.1002 117.2 77.4002 117.2 77.9002V78.3002H118.2V79.0002H117.2V83.0002H116.2ZM121.9 82.5002C121.6 82.9002 121.1 83.1002 120.6 83.1002C120.1 83.1002 119.7 82.9002 119.4 82.6002C119.1 82.3002 119 81.9002 119 81.3002V78.2002H120.1V81.3002C120.1 81.9002 120.4 82.2002 120.9 82.2002C121.4 82.2002 121.8 82.0002 122 81.6002V78.2002H123V83.0002H122L121.9 82.5002ZM126.7 81.7002C126.7 81.5002 126.6 81.4002 126.5 81.3002C126.3 81.1002 126 81.0002 125.6 81.0002C125.2 80.9002 124.9 80.8002 124.7 80.7002C124.2 80.4002 123.9 80.1002 123.9 79.6002C123.9 79.2002 124.1 78.8002 124.4 78.6002C124.7 78.3002 125.2 78.2002 125.7 78.2002C126.3 78.2002 126.7 78.3002 127.1 78.6002C127.5 78.9002 127.6 79.2002 127.6 79.7002H126.5C126.5 79.5002 126.4 79.3002 126.3 79.2002C126.1 79.1002 125.9 79.0002 125.7 79.0002C125.5 79.0002 125.3 79.1002 125.1 79.2002C125 79.2002 125 79.3002 125 79.5002C125 79.7002 125.1 79.8002 125.2 79.9002C125.3 80.0002 125.6 80.1002 126 80.2002C126.4 80.3002 126.7 80.4002 127 80.5002C127.2 80.6002 127.4 80.8002 127.5 81.0002C127.6 81.2002 127.7 81.4002 127.7 81.7002C127.7 82.1002 127.5 82.5002 127.2 82.7002C126.8 83.0002 126.4 83.1002 125.8 83.1002C125.4 83.1002 125.1 83.0002 124.8 82.9002C124.5 82.8002 124.3 82.6002 124.1 82.3002C123.9 82.0002 123.8 81.8002 123.8 81.5002H124.8C124.8 81.8002 124.9 81.9002 125.1 82.1002C125.3 82.2002 125.5 82.3002 125.8 82.3002C126.1 82.3002 126.3 82.2002 126.4 82.1002C126.6 82.0002 126.7 81.8002 126.7 81.7002ZM135.6 80.9002C135.5 81.6002 135.3 82.1002 134.8 82.5002C134.4 82.9002 133.8 83.1002 133 83.1002C132.5 83.1002 132 83.0002 131.7 82.7002C131.3 82.5002 131 82.1002 130.8 81.7002C130.6 81.3002 130.5 80.7002 130.5 80.1002V79.5002C130.5 78.9002 130.6 78.4002 130.8 77.9002C131 77.4002 131.3 77.1002 131.7 76.8002C132.1 76.6002 132.6 76.4002 133.1 76.4002C133.8 76.4002 134.4 76.6002 134.8 77.0002C135.2 77.4002 135.5 77.9002 135.6 78.6002H134.5C134.4 78.1002 134.3 77.8002 134.1 77.6002C133.9 77.4002 133.6 77.3002 133.2 77.3002C132.7 77.3002 132.3 77.5002 132.1 77.8002C131.8 78.2002 131.7 78.7002 131.7 79.4002V80.0002C131.7 80.7002 131.8 81.2002 132.1 81.6002C132.3 82.0002 132.7 82.1002 133.2 82.1002C133.6 82.1002 134 82.0002 134.2 81.8002C134.4 81.6002 134.6 81.3002 134.6 80.8002H135.6V80.9002ZM136.1 80.5002C136.1 80.0002 136.2 79.6002 136.4 79.2002C136.6 78.8002 136.8 78.5002 137.2 78.3002C137.5 78.1002 137.9 78.0002 138.4 78.0002C139 78.0002 139.6 78.2002 140 78.6002C140.4 79.0002 140.6 79.6002 140.6 80.2002V80.5002C140.6 81.0002 140.5 81.4002 140.3 81.8002C140.1 82.2002 139.9 82.5002 139.5 82.7002C139.2 82.9002 138.8 83.0002 138.3 83.0002C137.6 83.0002 137.1 82.8002 136.7 82.3002C136.3 81.9002 136.1 81.3002 136.1 80.5002ZM137.2 80.6002C137.2 81.1002 137.3 81.5002 137.5 81.7002C137.7 82.0002 138 82.1002 138.3 82.1002C138.7 82.1002 138.9 82.0002 139.1 81.7002C139.3 81.4002 139.4 81.0002 139.4 80.5002C139.4 80.0002 139.3 79.6002 139.1 79.4002C138.9 79.1002 138.6 79.0002 138.3 79.0002C138 79.0002 137.7 79.1002 137.5 79.4002C137.3 79.7002 137.2 80.1002 137.2 80.6002ZM142.2 78.2002V78.7002C142.5 78.3002 143 78.1002 143.6 78.1002C144.2 78.1002 144.7 78.3002 144.9 78.8002C145.2 78.3002 145.7 78.1002 146.4 78.1002C146.9 78.1002 147.3 78.2002 147.6 78.5002C147.9 78.8002 148 79.2002 148 79.8002V83.0002H146.9V79.9002C146.9 79.6002 146.8 79.4002 146.7 79.2002C146.5 79.1002 146.3 79.0002 146 79.0002C145.8 79.0002 145.6 79.1002 145.4 79.2002C145.2 79.3002 145.1 79.5002 145.1 79.7002V83.0002H144V79.9002C144 79.3002 143.7 79.1002 143.1 79.1002C142.7 79.1002 142.4 79.3002 142.2 79.6002V83.0002H141.1V78.2002H142.2ZM153 80.6002C153 81.3002 152.8 81.9002 152.5 82.4002C152.2 82.8002 151.7 83.1002 151.2 83.1002C150.7 83.1002 150.3 82.9002 149.9 82.6002V84.9002H148.8V78.3002H149.8V78.8002C150.1 78.4002 150.5 78.2002 151.1 78.2002C151.7 78.2002 152.1 78.4002 152.5 78.8002C152.8 79.2002 153 79.8002 153 80.6002ZM151.9 80.5002C151.9 80.0002 151.8 79.6002 151.6 79.4002C151.4 79.1002 151.1 79.0002 150.8 79.0002C150.4 79.0002 150 79.2002 149.9 79.5002V81.6002C150.1 82.0002 150.4 82.2002 150.8 82.2002C151.1 82.2002 151.4 82.1002 151.6 81.8002C151.8 81.5002 151.9 81.1002 151.9 80.5002ZM156.5 83.0002C156.5 82.9002 156.4 82.8002 156.4 82.6002C156.1 83.0002 155.6 83.1002 155.2 83.1002C154.7 83.1002 154.3 83.0002 154 82.7002C153.7 82.4002 153.5 82.1002 153.5 81.7002C153.5 81.2002 153.7 80.8002 154.1 80.5002C154.5 80.2002 155 80.1002 155.7 80.1002H156.4V79.8002C156.4 79.6002 156.3 79.4002 156.2 79.2002C156.1 79.1002 155.9 79.0002 155.6 79.0002C155.4 79.0002 155.2 79.1002 155 79.2002C154.8 79.3002 154.8 79.5002 154.8 79.7002H153.7C153.7 79.4002 153.8 79.2002 154 79.0002C154.2 78.8002 154.4 78.6002 154.7 78.5002C155 78.4002 155.3 78.3002 155.7 78.3002C156.3 78.3002 156.7 78.4002 157 78.7002C157.3 79.0002 157.5 79.4002 157.5 79.9002V82.0002C157.5 82.4002 157.6 82.8002 157.7 83.0002H156.5ZM155.4 82.2002C155.6 82.2002 155.8 82.1002 156 82.0002C156.2 81.9002 156.3 81.8002 156.4 81.6002V80.7002H155.8C155.4 80.7002 155.1 80.8002 154.9 80.9002C154.7 81.0002 154.6 81.2002 154.6 81.5002C154.6 81.7002 154.7 81.9002 154.8 82.0002C154.9 82.1002 155.1 82.2002 155.4 82.2002ZM159.5 78.2002V78.7002C159.9 78.3002 160.3 78.1002 160.9 78.1002C161.9 78.1002 162.4 78.7002 162.4 79.8002V83.0002H161.3V79.9002C161.3 79.6002 161.2 79.4002 161.1 79.2002C161 79.1002 160.8 79.0002 160.5 79.0002C160.1 79.0002 159.7 79.2002 159.5 79.6002V83.0002H158.4V78.2002H159.5ZM165 81.4002L166 78.2002H167.1L165.2 83.7002C164.9 84.5002 164.4 84.9002 163.7 84.9002C163.5 84.9002 163.4 84.9002 163.2 84.8002V84.0002H163.4C163.7 84.0002 163.9 84.0002 164 83.9002C164.1 83.8002 164.2 83.6002 164.3 83.4002L164.5 83.0002L162.8 78.3002H164L165 81.4002Z" fill="#818592"/>
</svg>
