<svg width="270" height="113" viewBox="0 0 270 113" fill="none" xmlns="http://www.w3.org/2000/svg">
<path d="M177.646 49.168C178.947 49.168 180.249 49.1499 181.497 49.2225C182.364 49.277 183.25 49.3497 184.1 49.4223C184.823 49.4768 185.565 49.5676 186.288 49.6948C187.011 49.8401 187.734 49.9127 188.439 50.0943C189.596 50.3668 190.753 50.6211 191.838 51.0388C192.218 51.1841 192.598 51.3294 192.959 51.4929C193.086 51.5473 193.23 51.6018 193.357 51.6563C193.194 52.0014 193.031 52.3465 192.869 52.6734C192.525 53.4363 192.182 54.2173 191.892 54.9983C191.766 55.3252 191.657 55.634 191.531 55.979C191.35 55.8337 191.169 55.6703 190.988 55.525C190.645 55.2525 190.319 54.9619 189.958 54.7077C188.819 53.8903 187.535 53.2365 186.197 52.7824C185.149 52.4192 184.028 52.0922 182.889 51.8924C176.38 50.839 168.461 51.8743 164.917 57.3049C164.285 58.2675 163.851 59.321 163.58 60.4471C163.507 60.7558 163.417 61.1191 163.381 61.446C163.29 62.2089 163.2 62.9717 163.218 63.789C163.272 65.3873 163.525 66.9493 164.104 68.2752C164.628 69.4739 165.315 70.5455 166.255 71.5263C167.883 73.1973 170.07 74.1962 172.24 74.8138C174.536 75.4676 177.067 75.6674 179.707 75.6674C180.864 75.6311 181.732 75.5766 182.382 75.504C182.798 75.4676 184.172 75.2497 184.534 75.177C184.823 75.1225 185.094 75.0499 185.384 74.9954C185.872 74.8864 186.378 74.7593 186.848 74.5958C186.957 74.5595 187.282 74.4324 187.282 74.4324C187.282 74.4324 187.282 74.0328 187.282 73.8693C187.282 73.3426 187.282 72.7977 187.282 72.2892C187.282 70.2549 187.3 68.2389 187.3 66.2046C186.74 66.2046 186.252 66.2228 185.709 66.2773C185.42 66.2955 185.076 66.2955 184.751 66.35C184.227 66.3863 183.811 66.4226 183.214 66.4953C183.25 66.241 183.377 65.7506 183.377 64.9696C183.377 64.2068 183.178 63.4802 183.178 63.4802C183.178 63.4802 183.919 63.5711 184.209 63.5892C184.642 63.6255 185.131 63.68 185.565 63.68C186.306 63.7345 186.776 63.7527 187.608 63.7527C189.379 63.7527 191.169 63.7527 192.941 63.7527V75.4313C192.941 75.5766 192.923 76.0852 192.923 76.0852C192.923 76.0852 192.561 76.1941 192.435 76.2123C191.947 76.3213 191.44 76.4484 190.952 76.5574C189.09 76.957 187.21 77.2657 185.275 77.52C182.853 77.8288 180.376 77.9922 177.772 77.9922C175.458 77.9922 173.252 77.8833 171.137 77.4837C170.124 77.3021 169.13 77.1386 168.19 76.848C166.924 76.4302 165.695 76.0488 164.52 75.4495C162.947 74.6503 161.482 73.6877 160.199 72.3255C159.042 71.0904 158.21 69.6556 157.649 68.1117C157.107 66.6224 156.854 64.9151 156.926 63.1351C156.98 61.8819 157.179 60.7558 157.523 59.6661C157.686 59.1575 157.902 58.6671 158.138 58.1767C159.945 54.526 163.471 52.2739 167.123 50.948C168.172 50.5666 169.257 50.2578 170.378 50.0035C171.137 49.8401 172.619 49.5858 173.813 49.4405C175.132 49.3133 177.103 49.1862 177.646 49.168Z" fill="#818592"/>
<path d="M108.961 49.6949C108.961 49.6949 109.937 49.8221 111.076 49.8221C112.107 49.8221 112.938 49.6768 112.938 49.6768C112.938 49.6768 112.92 56.8329 112.92 60.4109C112.92 61.7731 112.92 63.1172 112.92 64.4975C112.92 65.8052 112.92 67.0585 112.703 68.2209C112.486 69.3651 112.088 70.4004 111.582 71.3993C111.112 72.3256 110.425 73.143 109.666 73.8876C108.617 74.9047 107.442 75.5949 106.194 76.1943C105.327 76.6302 104.386 76.939 103.428 77.1751C101.584 77.6292 99.6496 77.9198 97.5885 77.9924C96.7206 78.0106 95.7805 77.9924 94.9307 77.9742C92.2188 77.8834 89.6153 77.5383 87.3011 76.6484C86.6502 76.3941 86.0355 76.1035 85.4208 75.7947C84.6434 75.377 83.8478 74.8866 83.197 74.2509C81.0455 72.1622 80.3765 69.6376 80.2861 66.5136C80.2861 65.4783 80.2861 64.4612 80.2861 63.4259V49.7131C80.2861 49.7131 81.624 49.8221 83.197 49.8221C84.788 49.8221 85.8185 49.6949 85.9813 49.6949C85.9813 54.3082 85.9813 58.9397 85.9813 63.5531C85.9813 64.3885 85.9813 65.1877 85.9813 66.0232C86.0536 68.4388 86.596 71.0724 88.2774 72.6526C90.7001 74.9411 94.3522 75.268 97.932 75.268C98.4382 75.268 99.3784 75.2498 100.3 75.1045C101.168 74.9774 102.434 74.6505 102.795 74.5233C104.278 73.9784 105.779 73.2156 106.827 71.8716C107.496 70.9998 108.002 70.1098 108.328 69.0745C108.924 67.2946 108.943 65.2967 108.943 63.2261C108.943 62.1 108.943 60.974 108.943 59.8297C108.961 56.4696 108.961 49.6949 108.961 49.6949Z" fill="#818592"/>
<path d="M147.777 49.7129C148.338 49.7674 148.7 49.84 149.821 49.84C150.941 49.84 151.701 49.7311 151.737 49.7129C151.737 58.994 151.737 77.4655 151.737 77.4655H148.935C148.935 77.4655 148.808 77.3565 148.736 77.2839C148.392 76.9933 148.067 76.7027 147.723 76.3939C147.38 76.1033 147.036 75.8309 146.675 75.5403C145.734 74.7956 144.812 74.0509 143.854 73.3244C139.081 69.5647 134.29 65.805 129.499 62.0454C127.944 60.8285 126.389 59.6116 124.834 58.3765C124.382 58.0314 123.912 57.6682 123.46 57.2867C123.406 57.2504 123.207 57.0688 123.153 57.0688C123.153 57.0325 123.153 57.0325 123.117 57.0325C123.117 63.8798 123.117 77.4837 123.117 77.4837C123.117 77.4837 122.195 77.3384 121.236 77.3384C120.242 77.3384 119.175 77.4837 119.157 77.4837V49.7129H122.339C122.339 49.7129 122.629 49.9308 122.737 50.0217C123.099 50.2941 123.46 50.5847 123.822 50.8753C125.232 51.9832 126.642 53.0912 128.071 54.1991C132.5 57.6682 136.948 61.1554 141.377 64.6426C142.968 65.8959 144.577 67.1491 146.168 68.4023C146.331 68.5113 147.741 69.6374 147.741 69.6374H147.759C147.778 62.9898 147.777 56.3786 147.777 49.7129Z" fill="#818592"/>
<path d="M198.51 49.7129C207.803 49.7129 217.078 49.7129 226.371 49.7129C226.298 50.2759 226.172 50.8027 226.19 51.4383C226.19 52.0922 226.389 53.0185 226.407 53.1275C225.828 53.0548 225.232 52.9822 224.635 52.8914C222.791 52.6916 220.495 52.6189 220.115 52.6189C218.705 52.5826 217.204 52.6008 215.758 52.6008C215.595 52.6008 215.414 52.5826 215.234 52.5826C213.751 52.5826 212.232 52.5826 210.786 52.5644C208.598 52.5644 206.411 52.5644 204.223 52.5644C204.223 55.5431 204.223 58.2494 204.223 61.2462C209.665 61.2462 215.089 61.2462 220.531 61.2462C220.73 61.2462 221.977 61.1917 222.14 61.1917C222.285 61.1917 224.96 61.0283 225.159 61.0283C225.105 61.2825 224.979 61.8637 224.979 62.5539C224.979 63.2441 225.087 63.5529 225.141 64.0614C224.617 64.0433 224.147 64.0069 223.623 63.9888C222.682 63.9343 221.851 63.898 220.802 63.8616C219.428 63.8616 218.036 63.8616 216.662 63.8616C212.522 63.8616 208.381 63.8616 204.241 63.8616C204.241 67.3852 204.241 71.0904 204.241 74.6321C206.356 74.6321 208.472 74.6321 210.605 74.6321C211.22 74.6321 212.485 74.614 213.136 74.614C213.733 74.614 214.619 74.614 215.197 74.5958C215.794 74.5958 216.535 74.5595 216.969 74.5595C217.602 74.5595 218.181 74.5413 218.56 74.5413C218.958 74.5231 220.712 74.505 221.218 74.4868C221.399 74.4868 221.869 74.4505 222.05 74.4505C222.285 74.4505 223.659 74.3778 224.237 74.3234C224.816 74.2689 226.479 74.0872 226.551 74.0872C226.624 74.0872 226.696 74.0691 226.768 74.0691C226.714 74.4142 226.588 74.9409 226.588 75.8309C226.588 76.7935 226.696 76.9025 226.768 77.4473C217.367 77.4473 207.965 77.4473 198.564 77.4473C198.51 68.2025 198.51 58.9577 198.51 49.7129Z" fill="#818592"/>
<path d="M50.5449 63.7712C50.5449 67.3311 50.5449 71.1271 50.5449 74.687C54.2151 74.687 57.8672 74.687 61.5374 74.687C63.1646 74.6325 64.0324 74.4146 64.9545 74.1421C65.75 73.906 66.4732 73.6154 67.5399 72.8344C68.2811 72.3077 68.9139 71.3995 69.1851 70.5641C69.601 69.2745 69.3478 67.5127 68.6246 66.4956C68.2088 65.9144 67.6122 65.4785 67.0155 65.1334C66.202 64.6975 65.316 64.4796 64.394 64.2434C63.6527 64.0618 62.8572 63.9892 62.0798 63.9165C60.543 63.8075 58.97 63.7712 57.3429 63.7712C55.0648 63.7712 52.8048 63.7712 50.5449 63.7712ZM50.5449 52.474C50.5449 55.489 50.5449 61.2648 50.5449 61.2648H54.8659C54.8659 61.2648 56.1858 61.2466 56.6197 61.2466C58.0841 61.2466 59.9644 61.1376 60.9588 61.0286C61.9713 60.9197 63.1646 60.8289 64.3217 60.4656C65.0629 60.2295 65.9127 59.8117 66.5636 59.3577C67.6845 58.5585 68.3896 57.4688 68.3173 55.9976C68.2811 55.2166 68.0823 54.6535 67.6122 54.0905C67.2144 53.6364 66.672 53.3277 66.1477 53.1279C64.5748 52.5103 62.2786 52.4377 60.1633 52.4559C59.0785 52.4559 57.8491 52.4559 56.692 52.4559C54.649 52.474 52.606 52.474 50.5449 52.474ZM44 49.7314C44 49.7314 61.9713 49.7314 62.4052 49.7314C65.3703 49.8223 68.5523 50.0947 70.9389 51.3661C71.7705 51.802 72.5299 52.5285 72.9819 53.364C73.9039 55.035 73.5243 57.4143 72.4937 58.831C71.6259 60.0479 70.2518 60.9197 68.9682 61.5554C68.4438 61.8096 67.7387 62.0276 67.1963 62.2455C67.0517 62.3 66.9071 62.3545 66.7082 62.409C66.7082 62.4272 66.7082 62.409 66.7082 62.4272C66.9071 62.4635 67.1059 62.4817 67.3048 62.518C67.8653 62.5906 68.8958 62.7723 69.4382 62.8994C72.1321 63.5351 75.0972 65.2242 75.1153 69.22C75.1153 70.7094 74.7175 71.8536 74.2655 72.7073C73.5966 73.9786 72.4756 74.9594 70.7038 75.8857C67.2687 77.6475 60.7057 77.4477 55.553 77.4477C51.702 77.4477 47.851 77.4477 44 77.4477C44 68.3482 44 49.7314 44 49.7314Z" fill="#818592"/>
<path d="M87.7891 49.7129C88.0783 50.5302 88.458 51.293 88.9281 52.0014H105.959C106.429 51.293 106.809 50.5302 107.098 49.7129H87.7891Z" fill="#818592"/>
<path d="M91.0078 54.29C92.7615 55.7249 95.0034 56.5785 97.4442 56.5785C99.885 56.5785 102.127 55.7249 103.881 54.29H91.0078Z" fill="#818592"/>
<path d="M87.2109 46.281C87.2109 46.6624 87.229 47.0438 87.2833 47.4252H107.641C107.677 47.0438 107.713 46.6624 107.713 46.281C107.713 45.8996 107.695 45.5181 107.641 45.1367H87.2833C87.229 45.5181 87.2109 45.8996 87.2109 46.281Z" fill="#818592"/>
<path d="M88.9466 40.5762C88.4766 41.2845 88.0969 42.0474 87.8076 42.8647H107.117C106.828 42.0474 106.448 41.2845 105.978 40.5762C105.96 40.5762 88.9466 40.5762 88.9466 40.5762Z" fill="#818592"/>
<path d="M103.881 38.2885C102.127 36.8536 99.885 36 97.4442 36C95.0034 36 92.7615 36.8536 91.0078 38.2885H103.881Z" fill="#818592"/>
</svg>
