<svg width="146" height="50" viewBox="0 0 146 50" fill="none" xmlns="http://www.w3.org/2000/svg">
<path d="M0.730469 14.96C0.730469 14.96 4.32461 29.6877 4.89822 32.0783C5.56773 34.8684 6.77406 35.8954 10.2521 35.2028L12.4964 26.0717C13.0652 23.8036 13.4467 22.1866 13.8124 19.8793H13.8767C14.1336 22.2093 14.4994 23.8104 14.9675 26.0796C14.9675 26.0796 15.8811 30.2249 16.3489 32.4022C16.818 34.5786 18.1235 35.9504 21.5303 35.2036L26.8778 14.9615H22.5603L20.7347 23.7131C20.2438 26.2606 19.7984 28.2511 19.455 30.5816H19.3941C19.082 28.2743 18.6851 26.3627 18.1861 23.8807L16.2852 14.9615H11.7867L9.75341 23.656C9.17736 26.298 8.63858 28.4314 8.29596 30.6829H8.23391C7.88303 28.5626 7.4157 25.8813 6.90964 23.3237C6.90964 23.3237 5.7016 17.105 5.27776 14.9615L0.730889 14.9621L0.730469 14.96ZM41.8888 14.96V35.202H45.9994V30.9037V14.959H41.8888V14.96ZM99.7828 14.96V29.8929C99.7828 31.9518 100.17 33.3942 100.999 34.2755C101.724 35.0462 102.916 35.5453 104.346 35.5453C105.561 35.5453 106.757 35.3148 107.32 35.1048L107.267 31.8925C106.848 31.9957 106.366 32.0783 105.706 32.0783C104.306 32.0783 103.836 31.1815 103.836 29.3329V23.6196H107.416V19.7467H103.836V14.96H99.7826L99.7828 14.96ZM32.7025 19.6525C30.1478 19.6525 28.12 20.3698 27.0146 21.0086L27.8235 23.7786C28.8352 23.1408 30.4459 22.6129 31.9711 22.6129C34.4963 22.6064 34.9091 24.0407 34.9091 24.9606V25.1781C29.4068 25.1699 25.9312 27.0739 25.9312 30.9549C25.9312 33.3246 27.7005 35.5452 30.777 35.5452C32.6709 35.5452 34.2547 34.7899 35.204 33.5797H35.2971C35.2971 33.5797 35.9256 36.2079 39.3887 35.2029C39.2067 34.109 39.1477 32.9427 39.1477 31.538V26.1305C39.1477 22.6839 37.6761 19.6526 32.7025 19.6526L32.7025 19.6525ZM57.2917 19.6525C54.7194 19.6525 53.5635 20.9561 52.8626 22.062H52.8017V19.9958H48.8788V35.203H53.0113V26.2846C53.0113 25.8665 53.0591 25.4244 53.205 25.0398C53.5474 24.1418 54.3828 23.0915 55.7166 23.0915C57.384 23.0915 58.1643 24.5012 58.1643 26.5357V35.2029H62.2924V26.1765C62.2924 25.7774 62.3471 25.2967 62.4645 24.9438C62.8039 23.9224 63.7045 23.0913 64.9444 23.0913C66.6348 23.0913 67.4461 24.4765 67.4461 26.8705V35.2029H71.577V26.2463C71.577 21.5228 69.1786 19.6526 66.4711 19.6526C65.272 19.6526 64.3256 19.9532 63.4699 20.4786C62.7507 20.9199 62.1069 21.547 61.5441 22.3726H61.4832C60.8284 20.7337 59.2921 19.6526 57.291 19.6526L57.2917 19.6525ZM79.9844 19.6525C77.4303 19.6525 75.4028 20.3698 74.2965 21.0086L75.1066 23.7786C76.1172 23.1408 77.729 22.6129 79.2534 22.6129C81.7768 22.6064 82.1906 24.0407 82.1906 24.9606V25.1781C76.6891 25.1699 73.2131 27.0739 73.2131 30.9549C73.2131 33.3246 74.9833 35.5452 78.0614 35.5452C79.9537 35.5452 81.5381 34.7899 82.4856 33.5797H82.5791C82.5791 33.5797 83.2076 36.2079 86.6711 35.2029C86.4889 34.109 86.4305 32.9427 86.4305 31.538V26.1305C86.4305 22.6839 84.9585 19.6526 79.9843 19.6526L79.9844 19.6525ZM97.1455 19.6525C95.5631 19.6525 93.7627 20.674 93.007 22.8636H92.8916V19.9956H89.1715V35.2028H93.4123V27.4157C93.4123 26.9957 93.4378 26.6294 93.5043 26.2935C93.8179 24.6623 95.0656 23.6196 96.8562 23.6196C97.3478 23.6196 97.6996 23.6728 98.0803 23.7278V19.7466C97.7611 19.6821 97.5428 19.6524 97.1457 19.6524L97.1455 19.6525ZM35.0419 27.8729V29.7701C35.0419 30.0507 35.0174 30.3402 34.9397 30.5934C34.6216 31.647 33.5301 32.5374 32.1656 32.5374C31.028 32.5374 30.1243 31.8918 30.1243 30.526C30.1243 28.4369 32.424 27.8594 35.042 27.8729H35.0419ZM82.3238 27.8729V29.7701C82.3238 30.0507 82.2988 30.3402 82.2216 30.5934C81.9035 31.647 80.8124 32.5374 79.4479 32.5374C78.3101 32.5374 77.4062 31.8918 77.4062 30.526C77.4062 28.4369 79.7059 27.8594 82.3239 27.8729H82.3238Z" fill="#818592"/>
<path d="M129.641 7.63965C128.314 7.63965 127.26 8.38072 127.26 9.28288L128.065 18.4086C128.154 18.9584 128.828 19.3825 129.642 19.3825C130.458 19.3814 131.129 18.9577 131.22 18.4086L132.03 9.28288C132.03 8.38079 130.972 7.63973 129.643 7.63973L129.641 7.63965ZM116.508 14.9598C115.819 14.9762 115.036 15.4978 114.539 16.3609C113.873 17.5103 113.991 18.7947 114.77 19.2453L123.075 23.1129C123.594 23.3059 124.298 22.9375 124.706 22.234C124.706 22.2339 124.706 22.2337 124.706 22.2336C125.116 21.5267 125.085 20.7318 124.653 20.3792L117.152 15.1181C116.957 15.0053 116.738 14.9545 116.508 14.96L116.508 14.9598ZM142.775 14.9598C142.545 14.9544 142.326 15.0052 142.132 15.118L134.63 20.3791C134.201 20.7317 134.169 21.5266 134.577 22.2335L134.577 22.2339C134.987 22.9374 135.689 23.3058 136.208 23.1128L144.517 19.2453C145.299 18.7947 145.411 17.5104 144.75 16.361C144.25 15.4979 143.466 14.9763 142.777 14.9599L142.775 14.9598ZM123.385 26.9999C123.278 26.9985 123.174 27.0151 123.076 27.0517L114.771 30.9148C113.992 31.3673 113.874 32.6522 114.54 33.8028C115.203 34.9499 116.373 35.4952 117.153 35.0453L124.654 29.7883C125.086 29.4314 125.118 28.6368 124.708 27.9305L124.711 27.9321C124.379 27.3568 123.851 27.0061 123.385 26.9998L123.385 26.9999ZM135.901 26.9999C135.436 27.0062 134.909 27.3569 134.576 27.9322L134.579 27.9306C134.171 28.6369 134.203 29.4315 134.632 29.7884L142.134 35.0455C142.912 35.4953 144.083 34.95 144.749 33.8029C145.411 32.6523 145.299 31.3674 144.516 30.9149L136.21 27.0519C136.113 27.0152 136.009 26.9986 135.901 27L135.901 26.9999ZM129.64 30.782C128.827 30.7829 128.155 31.2052 128.067 31.7536L127.261 40.8789C127.261 41.7826 128.315 42.5221 129.643 42.5221C130.972 42.5221 132.029 41.7826 132.029 40.8789L131.221 31.7536C131.13 31.2052 130.459 30.783 129.643 30.782H129.64H129.64Z" fill="#818592"/>
</svg>
