<svg width="70" height="47" viewBox="0 0 70 47" fill="none" xmlns="http://www.w3.org/2000/svg">
<path d="M47.05 46.5L44.05 43.5H40.05L36.05 41.5H33.05L31.05 39.5L27.05 42.5H23.05L19.05 44.5L17.05 46.5" stroke="#505050" stroke-miterlimit="10"/>
<path d="M31.05 39.5C31.05 36.3 29.75 19.7 21.05 7.5" stroke="#505050" stroke-miterlimit="10"/>
<path d="M26.85 18.7C29.45 16.8 29.95 11.5 29.05 9.5C26.95 5.1 22.25 4.1 18.05 1.5C14.15 7.8 15.65 15.7 24.05 18.5" stroke="#505050" stroke-miterlimit="10"/>
<path d="M44.0501 16.1C38.1501 18.9 31.3501 23.9 30.3501 33.1" stroke="#505050" stroke-miterlimit="10"/>
<path d="M33.7501 24.1C31.6501 21.4 32.1501 15.4 35.6501 11.7C40.0501 7.09999 51.6501 5.49999 56.9501 5.29999C56.9501 12.6 54.8501 28.8 35.0501 27.4" stroke="#505050" stroke-miterlimit="10"/>
<path d="M23.05 25.5C25.95 27.2 26.05 31.5 26.05 31.5C26.05 31.5 21.95 33.2 19.05 31.5C16.15 29.8 13.05 24.5 13.05 24.5C13.05 24.5 20.15 23.8 23.05 25.5Z" stroke="#505050" stroke-miterlimit="10"/>
</svg>
