<svg width="146" height="50" viewBox="0 0 146 50" fill="none" xmlns="http://www.w3.org/2000/svg">
<g clip-path="url(#clip0)">
<path d="M114.015 16.0849L113.716 16.2074C113.635 16.2332 113.554 16.2686 113.469 16.3041C113.408 16.3285 113.349 16.3576 113.292 16.3911L113.195 16.4185C113.187 16.4162 113.179 16.4124 113.173 16.4071C113.166 16.4019 113.16 16.3953 113.156 16.3879C113.14 16.3661 113.121 16.3466 113.1 16.3298C113.078 16.3144 113.058 16.2954 113.042 16.2734L112.658 15.8094L112.003 16.1316C111.979 16.1607 111.951 16.1858 111.919 16.2058C111.892 16.2272 111.861 16.243 111.828 16.2521C111.795 16.2613 111.761 16.2636 111.727 16.2589C111.673 16.2439 111.623 16.2175 111.58 16.1816C111.563 16.1677 111.543 16.1563 111.522 16.1478L111.186 15.6643C111.005 15.7336 110.833 15.7981 110.67 15.8561C110.538 15.9028 110.402 15.9479 110.264 15.9898C110.125 16.0317 110.035 16.0607 109.987 16.0817C109.911 16.0818 109.835 16.0737 109.761 16.0575C109.724 16.0519 109.688 16.0369 109.658 16.014L109.21 15.674L108.921 15.753C108.84 15.7671 108.759 15.7887 108.681 15.8174C108.599 15.8464 108.52 15.869 108.461 15.8867C108.401 15.9005 108.339 15.9038 108.279 15.8964C108.24 15.8897 108.203 15.8737 108.172 15.8496C108.134 15.8288 108.101 15.7996 108.075 15.7642L107.563 15.0439L107.091 15.1293L106.309 14.5428C106.221 14.5238 106.132 14.513 106.042 14.5105C105.968 14.5105 105.892 14.5105 105.816 14.4992C105.74 14.488 105.684 14.4831 105.641 14.4751C105.608 14.4712 105.578 14.4575 105.553 14.4359C105.529 14.4143 105.512 14.3859 105.504 14.3542C105.499 14.3318 105.499 14.3089 105.504 14.2865L105.608 13.9884C105.648 13.9403 105.668 13.8797 105.666 13.8176C105.663 13.7536 105.645 13.6912 105.613 13.6355C105.558 13.5562 105.486 13.4906 105.402 13.4437C105.315 13.3859 105.22 13.3434 105.118 13.3181C105.04 13.3019 104.96 13.3019 104.882 13.3181C104.796 13.335 104.713 13.3643 104.635 13.4051C104.531 13.4652 104.423 13.519 104.313 13.5662C104.23 13.6093 104.143 13.6449 104.053 13.6726C103.986 13.6944 103.918 13.7111 103.849 13.7225C103.737 13.6991 103.629 13.6623 103.526 13.6129C103.289 13.4899 103.084 13.3141 102.925 13.0989C102.658 12.3365 102.201 11.6548 101.597 11.1184C101.046 10.6344 100.39 10.2832 99.6815 10.0916C98.9729 9.89995 98.2298 9.87307 97.5092 10.013C96.9121 10.1327 96.3436 10.3663 95.8349 10.7011C95.3286 11.0395 94.8912 11.4709 94.5457 11.9725C94.1853 12.4912 93.9342 13.0779 93.8077 13.6967C93.7137 14.148 93.6887 14.6109 93.7336 15.0697C93.7771 15.5112 93.8801 15.9449 94.0397 16.3589C94.3114 17.0934 94.7656 17.7467 95.3595 18.2571C95.9767 18.7851 96.7201 19.1443 97.5173 19.2997C97.9874 19.3952 98.4692 19.4196 98.9466 19.3723C99.4085 19.3253 99.8608 19.2102 100.289 19.0306C100.714 18.8502 106.177 20.2199 106.535 19.9218C106.893 19.6236 109.487 18.8566 109.747 18.4715L112.808 18.1846L115.296 18.2942L114.015 16.0849ZM97.6075 14.5025C97.5797 14.6539 97.5207 14.798 97.4341 14.9253C97.3476 15.0527 97.2354 15.1606 97.1047 15.2421C96.9789 15.3254 96.8376 15.3826 96.6892 15.4102C96.5408 15.4379 96.3884 15.4356 96.241 15.4033C96.0904 15.3753 95.947 15.3173 95.8193 15.2328C95.6916 15.1483 95.5822 15.039 95.4975 14.9114C95.4129 14.7838 95.3548 14.6404 95.3267 14.4899C95.2985 14.3394 95.3009 14.1847 95.3337 14.0351C95.3805 13.8124 95.4918 13.6083 95.6536 13.4483C95.8155 13.2883 96.0209 13.1794 96.2442 13.1353C96.4675 13.0911 96.6989 13.1136 96.9095 13.2C97.1201 13.2864 97.3006 13.4328 97.4286 13.621C97.5185 13.7472 97.5808 13.8909 97.6116 14.0428C97.6424 14.1946 97.641 14.3512 97.6075 14.5025Z" fill="#818592"/>
<path d="M31.2246 17.1523V29.9215H37.8831L37.9266 35.2199H41.1012L41.7957 34.4142L43.8229 34.4287L44.9058 35.2344L46.3642 34.4496L48.0449 34.3529L49.6854 34.7832L51.7271 35.2344H88.8081L93.159 32.1114L96.9636 35.2135H113.869L113.84 31.462C113.84 31.462 112.411 31.1977 112.102 29.0448C111.712 26.3054 114.699 25.4577 114.699 25.4577L114.324 23.9623L108.427 22.9713L105.021 17.1523H31.2246ZM52.1734 23.1856H49.4017V24.3684H51.0921V25.3353H49.4082V26.9113H52.1799V28.0264H48.1513V22.064H52.1799L52.1734 23.1856ZM56.874 28.0199H55.6832L53.8864 22.1333L53.8654 22.0656H55.0966L56.2762 25.9589L57.4831 22.064H58.6966L56.874 28.0199ZM65.1472 28.0199H63.8919L62.9121 25.6688H61.9452V28.0199H60.6851V22.0576H62.3175C63.1683 22.0576 63.7581 22.1188 64.0901 22.2526C64.4157 22.3749 64.6916 22.6015 64.8749 22.8972C65.064 23.2098 65.1606 23.5696 65.1536 23.9349C65.1659 24.253 65.0767 24.5668 64.899 24.8309C64.6838 25.0974 64.3995 25.2997 64.0772 25.4158L65.1472 28.0199ZM69.7414 25.3707V28.0199H68.4797V25.3691L66.8199 22.1462L66.7812 22.0689H68.0978L69.1114 24.0348L70.1121 22.0689H71.4335L69.7414 25.3707ZM77.5715 23.1759H75.931V28.0199H74.6789V23.1743H73.0385V22.064H77.5779L77.5715 23.1759ZM84.1977 28.0199H82.944V25.4868H80.8491V28.0183H79.6035V22.056H80.8491V24.3652H82.944V22.064H84.2026L84.1977 28.0199ZM91.4928 28.0199H90.2761L87.8944 24.0751V28.0183H86.6375V22.056H87.9395L90.2568 25.8477V22.064H91.5008L91.4928 28.0199ZM98.7572 28.0199H97.7274V27.385C97.5441 27.5789 97.3308 27.7421 97.0958 27.8685C96.7587 28.0468 96.3829 28.1392 96.0016 28.1376C95.5982 28.137 95.2015 28.035 94.8478 27.8411C94.4607 27.6238 94.1471 27.2962 93.947 26.9C93.7117 26.4697 93.5973 25.8896 93.5973 25.1612C93.5973 24.4006 93.7166 23.7867 93.9631 23.3177C94.1829 22.8774 94.5344 22.5164 94.9686 22.2848C95.3889 22.0681 95.8559 21.9575 96.3287 21.9625C96.7336 21.9542 97.1347 22.0426 97.4986 22.2203C97.8253 22.3834 98.1062 22.6255 98.3156 22.9245C98.4707 23.1672 98.584 23.4341 98.6508 23.7142L98.6637 23.7625L97.6533 24.1074L97.6372 24.0574C97.5636 23.8002 97.4306 23.564 97.2488 23.3677C97.132 23.2587 96.9945 23.174 96.8446 23.1187C96.6946 23.0634 96.5351 23.0384 96.3754 23.0454C96.1807 23.0387 95.9866 23.0729 95.8059 23.1459C95.6252 23.219 95.4618 23.3291 95.3264 23.4692C95.0573 23.7448 94.9139 24.2637 94.9139 25.0259C94.9139 25.9396 95.1475 26.5713 95.5891 26.8516C95.8007 26.9942 96.051 27.0685 96.3062 27.0644C96.5016 27.062 96.6947 27.0221 96.875 26.9467C97.0415 26.879 97.1936 26.78 97.323 26.6551C97.4274 26.5563 97.5145 26.4409 97.5808 26.3134C97.6413 26.1865 97.6867 26.0529 97.7162 25.9154H96.1998V24.934H98.7604L98.7572 28.0199Z" fill="#818592"/>
<path d="M94.9212 12.0696L97.9652 10.4066V8.4213C97.967 7.90126 97.7629 7.40165 97.3976 7.03151C97.0323 6.66137 96.5354 6.45077 96.0154 6.44567L88.8364 6.41505C88.5776 6.4142 88.3213 6.46435 88.0819 6.56263C87.8426 6.66091 87.6249 6.80539 87.4415 6.98782C87.258 7.17025 87.1123 7.38705 87.0126 7.62582C86.913 7.8646 86.8613 8.12067 86.8607 8.3794L86.8301 15.5826C86.828 16.1046 87.0332 16.606 87.4006 16.9768C87.768 17.3476 88.2676 17.5573 88.7896 17.5598L95.5706 17.5888L94.6746 16.0177C95.0872 15.0911 94.918 13.1541 94.9212 12.0696ZM94.1558 9.85227C93.7269 9.50177 93.2024 9.28841 92.6507 9.23992L92.4202 7.73483L92.1785 9.23669C91.6269 9.27972 91.1007 9.48618 90.667 9.82971L89.7114 8.21826C90.5016 7.65665 91.4479 7.35679 92.4174 7.36083C93.3869 7.36488 94.3307 7.67263 95.1162 8.24082L94.1558 9.85227Z" fill="#818592"/>
<path d="M53.8277 14.358H52.4354V10.5147H51.6909V8.18934H49.2254L49.0884 5.71094H48.692L48.5567 8.18934H46.0895V8.87099H46.7599V10.5147H45.9365V14.358H45.4224V12.276H43.906V9.8588H41.3277V12.276H40.8701V9.8588H38.3063V12.276H37.8405V9.8588H35.2622V12.276H34.8078V9.8588H32.2295V12.276H30.7179V14.358H30.1314L29.4739 13.6747H25.1504L28.1042 17.5309H53.6682C53.8391 17.5309 54.0031 17.463 54.124 17.3421C54.2449 17.2212 54.3128 17.0573 54.3128 16.8863V14.358H53.8277ZM42.8473 14.358H42.3897V12.6837H42.8473V14.358ZM39.8146 14.358H39.3569V12.6837H39.8146V14.358ZM36.7818 14.358H36.3242V12.6837H36.7818V14.358ZM33.2914 12.6837H33.7507V14.358H33.2914V12.6837Z" fill="#818592"/>
<path d="M28.8618 16.7939C27.7548 16.7936 26.6726 17.1216 25.752 17.7365C24.8314 18.3513 24.1138 19.2253 23.69 20.248C23.2662 21.2708 23.1552 22.3962 23.3711 23.4819C23.587 24.5677 24.1201 25.5651 24.9029 26.3479C25.6857 27.1307 26.683 27.6637 27.7688 27.8796C28.8546 28.0955 29.98 27.9845 31.0027 27.5607C32.0254 27.137 32.8994 26.4194 33.5143 25.4988C34.1291 24.5782 34.4571 23.4959 34.4568 22.3889C34.4564 20.9052 33.8668 19.4823 32.8176 18.4331C31.7684 17.384 30.3456 16.7944 28.8618 16.7939ZM28.8618 24.2066C28.5019 24.2069 28.15 24.1005 27.8506 23.9008C27.5512 23.7011 27.3178 23.417 27.1799 23.0846C27.0419 22.7522 27.0057 22.3864 27.0757 22.0333C27.1457 21.6803 27.3188 21.356 27.5732 21.1014C27.8276 20.8468 28.1517 20.6734 28.5047 20.603C28.8577 20.5327 29.2236 20.5686 29.5561 20.7063C29.8886 20.8439 30.1729 21.0771 30.3728 21.3764C30.5728 21.6756 30.6796 22.0274 30.6796 22.3873C30.6798 22.6262 30.6329 22.8628 30.5417 23.0836C30.4505 23.3044 30.3166 23.5051 30.1478 23.6742C29.979 23.8433 29.7786 23.9775 29.5579 24.0691C29.3373 24.1607 29.1008 24.208 28.8618 24.2082V24.2066Z" fill="#818592"/>
<path d="M28.8619 22.0947C28.8032 22.0947 28.7458 22.1122 28.697 22.1448C28.6482 22.1775 28.6102 22.2239 28.5878 22.2781C28.5655 22.3324 28.5597 22.3921 28.5712 22.4497C28.5828 22.5072 28.6112 22.5601 28.6528 22.6015C28.6945 22.6429 28.7475 22.671 28.8051 22.6822C28.8627 22.6935 28.9224 22.6874 28.9765 22.6647C29.0307 22.642 29.0769 22.6038 29.1093 22.5548C29.1416 22.5058 29.1588 22.4483 29.1584 22.3896C29.1584 22.3508 29.1508 22.3123 29.1358 22.2764C29.1209 22.2405 29.0991 22.2079 29.0715 22.1805C29.0439 22.1531 29.0112 22.1314 28.9753 22.1167C28.9393 22.102 28.9008 22.0945 28.8619 22.0947Z" fill="#818592"/>
<path d="M51.253 39.9948C51.2779 40.2015 51.3476 40.4003 51.4572 40.5773C51.5669 40.7543 51.7139 40.9053 51.8879 41.0196C52.5663 41.4692 53.6605 41.3854 54.347 40.3444L56.8189 36.6155C57.4409 35.6777 58.2434 35.6052 58.7623 35.9484C59.3054 36.3094 59.5793 37.1667 58.8961 38.1964L55.6619 43.0791L55.512 42.9808L54.5693 44.062C53.7813 43.7607 52.916 43.9621 52.4922 44.6019L51.3642 46.2955L51.8879 46.642L50.921 48.1019C50.8806 48.1893 50.8728 48.2883 50.8991 48.3809C50.9253 48.4736 50.9839 48.5537 51.0641 48.6069C51.1444 48.6601 51.241 48.6828 51.3366 48.6708C51.4321 48.6589 51.5202 48.6132 51.5849 48.5419L52.5518 47.0819L53.878 47.9601L52.9112 49.4201C52.8689 49.5074 52.8598 49.6071 52.8854 49.7007C52.911 49.7942 52.9696 49.8754 53.0504 49.929C53.1312 49.9827 53.2287 50.0053 53.3248 49.9926C53.421 49.9799 53.5093 49.9328 53.5735 49.86L54.5403 48.4001L55.0947 48.7675L56.2227 47.0738C56.6513 46.4293 56.4934 45.5414 55.9004 44.9306L56.5482 43.6705L56.2742 43.4884L59.51 38.6073C60.4302 37.2198 60.0338 35.913 59.17 35.3393C58.3466 34.793 57.0622 34.9187 56.205 36.2127L53.733 39.9416C53.3092 40.5862 52.6759 40.6619 52.294 40.4089C52.2082 40.3529 52.1359 40.2786 52.0821 40.1914C52.0284 40.1043 51.9945 40.0063 51.983 39.9045C51.9652 39.5699 52.0669 39.2398 52.2698 38.9731L55.9084 33.4813L55.2945 33.0752L51.6558 38.5622C51.3536 38.9757 51.2105 39.4843 51.253 39.9948Z" fill="#818592"/>
<path d="M119.836 12.3132V13.8392H119.414V12.3132H118.832V11.9248H120.418V12.3116L119.836 12.3132Z" fill="#818592"/>
<path d="M122.4 13.8392V12.5903L121.861 13.4073H121.85L121.318 12.6016V13.8424H120.904V11.9248H121.359L121.861 12.7305L122.366 11.9248H122.819V13.8392H122.4Z" fill="#818592"/>
<path d="M86.0053 9.55217C85.789 9.34867 85.5273 9.19959 85.2419 9.11726C84.9566 9.03493 84.6557 9.02173 84.3642 9.07873C84.0728 9.13573 83.799 9.26131 83.5657 9.44507C83.3324 9.62884 83.1462 9.86551 83.0225 10.1355C83.2389 10.3387 83.5006 10.4874 83.7859 10.5696C84.0712 10.6517 84.3719 10.6648 84.6633 10.6078C84.9546 10.5508 85.2283 10.4254 85.4616 10.2419C85.6949 10.0583 85.8813 9.82191 86.0053 9.55217Z" fill="#818592"/>
<path d="M80.3786 14.2872C80.6442 14.1534 80.8742 13.9581 81.0493 13.7177C81.2245 13.4772 81.3399 13.1985 81.3859 12.9046C81.4319 12.6107 81.4072 12.31 81.3138 12.0275C81.2205 11.7451 81.0612 11.4889 80.8491 11.2803C80.5838 11.414 80.3541 11.6089 80.179 11.8489C80.0039 12.089 79.8885 12.3672 79.8422 12.6607C79.7959 12.9542 79.8201 13.2544 79.9128 13.5367C80.0055 13.819 80.1641 14.0751 80.3754 14.284L80.3786 14.2872Z" fill="#818592"/>
<path d="M73.5315 12.009C73.6285 11.7284 73.6572 11.4287 73.6154 11.1348C73.5736 10.8409 73.4625 10.5611 73.2912 10.3186C73.1199 10.0762 72.8933 9.87794 72.6303 9.74035C72.3672 9.60276 72.0752 9.52974 71.7783 9.52734C71.6814 9.80796 71.6526 10.1076 71.6944 10.4015C71.7362 10.6954 71.8474 10.9752 72.0187 11.2177C72.19 11.4601 72.4165 11.6584 72.6796 11.796C72.9426 11.9336 73.2347 12.0066 73.5315 12.009Z" fill="#818592"/>
<path d="M66.3463 5.37432C66.3223 5.07824 66.2281 4.79213 66.0717 4.53962C65.9152 4.2871 65.7009 4.07544 65.4465 3.92209C65.1921 3.76875 64.9049 3.67814 64.6085 3.65774C64.3122 3.63734 64.0152 3.68774 63.7422 3.80477C63.7587 4.10247 63.8496 4.39125 64.0067 4.64465C64.1638 4.89805 64.3821 5.10794 64.6414 5.25507C64.8929 5.41606 65.1807 5.51133 65.4786 5.53216C65.7765 5.553 66.0748 5.49873 66.3463 5.37432Z" fill="#818592"/>
<path d="M77.2132 16.9704C77.3798 16.7245 77.4854 16.4424 77.5213 16.1475C77.5572 15.8527 77.5223 15.5535 77.4197 15.2747C77.317 14.996 77.1494 14.7457 76.9308 14.5446C76.7122 14.3435 76.4489 14.1973 76.1626 14.1182C75.996 14.3641 75.8904 14.6462 75.8545 14.9411C75.8186 15.2359 75.8535 15.5351 75.9561 15.8139C76.0588 16.0926 76.2264 16.3429 76.445 16.544C76.6636 16.7451 76.9269 16.8913 77.2132 16.9704Z" fill="#818592"/>
<path d="M82.6019 8.80998C82.3856 8.60648 82.1239 8.4574 81.8386 8.37507C81.5532 8.29275 81.2524 8.27954 80.9609 8.33654C80.6694 8.39355 80.3957 8.51912 80.1624 8.70289C79.9291 8.88665 79.7429 9.12332 79.6191 9.39333C79.8355 9.59683 80.0971 9.74591 80.3825 9.82824C80.6678 9.91056 80.9687 9.92377 81.2602 9.86677C81.5516 9.80976 81.8253 9.68419 82.0587 9.50042C82.292 9.31666 82.4782 9.07999 82.6019 8.80998Z" fill="#818592"/>
<path d="M67.7296 1.05859C67.446 1.15127 67.1904 1.31402 66.9865 1.53176C66.7825 1.74951 66.6368 2.01521 66.5629 2.30424C66.4723 2.58916 66.4552 2.89238 66.5132 3.18568C66.5713 3.47898 66.7025 3.75283 66.8949 3.98176C67.1775 3.88846 67.4324 3.7259 67.6362 3.50889C67.84 3.29188 67.9862 3.02733 68.0615 2.73933C68.1517 2.45383 68.1685 2.15023 68.1105 1.8565C68.0525 1.56278 67.9215 1.28838 67.7296 1.05859Z" fill="#818592"/>
<path d="M79.12 5.15625C78.8487 5.28246 78.6138 5.47529 78.4372 5.71676C78.2605 5.95824 78.1478 6.2405 78.1096 6.53726C78.0545 6.83064 78.0743 7.1332 78.1672 7.41688C78.2602 7.70056 78.4233 7.95617 78.6414 8.15999C78.9119 8.0335 79.146 7.84073 79.3221 7.59959C79.4982 7.35844 79.6105 7.07673 79.6486 6.78059C79.7044 6.48723 79.6853 6.18452 79.5929 5.90055C79.5005 5.61658 79.3378 5.36056 79.12 5.15625Z" fill="#818592"/>
<path d="M76.5138 -0.000269777C76.2154 -0.0086674 75.9197 0.0578807 75.6537 0.193288C75.3876 0.328696 75.1598 0.528641 74.991 0.774836C74.8106 1.0128 74.6925 1.29208 74.6474 1.5873C74.6024 1.88252 74.6319 2.18431 74.7332 2.46524C75.0317 2.47332 75.3274 2.40646 75.5935 2.27078C75.8595 2.13509 76.0873 1.93491 76.256 1.68853C76.4364 1.45087 76.5545 1.17186 76.5995 0.876899C76.6446 0.581936 76.6151 0.280393 76.5138 -0.000269777Z" fill="#818592"/>
<path d="M71.681 2.08431C71.5984 2.37087 71.5891 2.67358 71.6538 2.96468C71.7186 3.25579 71.8554 3.526 72.0516 3.75055C72.2357 3.98588 72.4762 4.17088 72.7509 4.28836C73.0256 4.40584 73.3255 4.45199 73.6228 4.42252C73.7053 4.13569 73.7147 3.83275 73.6499 3.54139C73.5852 3.25002 73.4484 2.97954 73.2521 2.75467C73.0671 2.52054 72.8264 2.33651 72.5519 2.21941C72.2775 2.1023 71.978 2.05585 71.681 2.08431Z" fill="#818592"/>
<path d="M70.6275 12.6953C70.3622 12.8288 70.1325 13.0236 69.9574 13.2635C69.7823 13.5034 69.6668 13.7815 69.6205 14.0749C69.5742 14.3682 69.5984 14.6684 69.6912 14.9505C69.7839 15.2327 69.9424 15.4887 70.1537 15.6974C70.419 15.5639 70.6487 15.3692 70.8238 15.1293C70.9989 14.8894 71.1144 14.6113 71.1607 14.3179C71.207 14.0245 71.1827 13.7244 71.09 13.4422C70.9973 13.1601 70.8388 12.904 70.6275 12.6953Z" fill="#818592"/>
<path d="M69.6713 3.03613C69.4008 3.16262 69.1667 3.35539 68.9906 3.59653C68.8145 3.83768 68.7022 4.11939 68.6641 4.41553C68.6102 4.70904 68.6308 5.01139 68.724 5.29489C68.8172 5.57839 68.98 5.83398 69.1975 6.03826C69.4688 5.91184 69.7039 5.71927 69.8813 5.47823C70.0587 5.2372 70.1727 4.95544 70.2127 4.65886C70.2667 4.36466 70.2454 4.06159 70.1507 3.77786C70.056 3.49413 69.8911 3.23896 69.6713 3.03613Z" fill="#818592"/>
<path d="M64.3878 15.3813C64.6624 15.2655 64.9054 15.0858 65.0966 14.8572C65.2878 14.6286 65.4217 14.3576 65.4871 14.0668C65.5525 13.7761 65.5476 13.4739 65.4727 13.1854C65.3978 12.8969 65.2551 12.6304 65.0565 12.4082C64.7829 12.5242 64.5408 12.7039 64.3505 12.9322C64.1602 13.1605 64.027 13.4309 63.9621 13.7209C63.8972 14.011 63.9024 14.3123 63.9773 14.6C64.0521 14.8876 64.1945 15.1533 64.3926 15.3749L64.3878 15.3813Z" fill="#818592"/>
<path d="M62.2363 10.4915C62.3128 10.7786 62.4565 11.0433 62.6555 11.2639C62.8545 11.4845 63.1031 11.6545 63.3809 11.76C63.6586 11.8655 63.9574 11.9034 64.2527 11.8705C64.5479 11.8377 64.8312 11.7351 65.0789 11.5712C65.0025 11.2841 64.8588 11.0193 64.6598 10.7988C64.4607 10.5782 64.2121 10.4082 63.9344 10.3027C63.6567 10.1972 63.3578 10.1593 63.0626 10.1921C62.7673 10.225 62.4841 10.3276 62.2363 10.4915Z" fill="#818592"/>
<path d="M77.6356 3.86742C77.6356 4.4846 77.0651 4.98254 76.3626 4.98254C75.66 4.98254 75.0879 4.4846 75.0879 3.86742C75.0879 3.25023 75.6583 2.75391 76.3626 2.75391C77.0668 2.75391 77.6356 3.25184 77.6356 3.86742Z" fill="#818592"/>
<path d="M67.4461 8.27333C67.4461 8.8889 66.8757 9.38845 66.1715 9.38845C65.4673 9.38845 64.8984 8.8889 64.8984 8.27333C64.8984 7.65775 65.4689 7.1582 66.1715 7.1582C66.8741 7.1582 67.4461 7.65775 67.4461 8.27333Z" fill="#818592"/>
<path d="M70.842 9.43968C70.842 10.0553 70.2731 10.5548 69.5689 10.5548C68.8647 10.5548 68.2959 10.0553 68.2959 9.43968C68.2959 8.82411 68.8647 8.32617 69.5689 8.32617C70.2731 8.32617 70.842 8.82572 70.842 9.43968Z" fill="#818592"/>
<path d="M68.3975 14.3092C68.1477 14.8716 67.4307 15.0972 66.7861 14.8104C66.1415 14.5235 65.8192 13.8435 66.0754 13.2747C66.3316 12.7058 67.0423 12.4883 67.6869 12.7735C68.3314 13.0587 68.6489 13.7468 68.3975 14.3092Z" fill="#818592"/>
<path d="M77.6258 8.57776C77.376 9.14176 76.6589 9.36576 76.0143 9.07892C75.3698 8.79208 75.0475 8.11205 75.3021 7.54321C75.5567 6.97437 76.2689 6.75682 76.9135 7.04205C77.5581 7.32728 77.882 8.01536 77.6258 8.57776Z" fill="#818592"/>
<path d="M84.1954 6.02852C84.6128 6.47973 84.5338 7.23389 84.0181 7.71088C83.5025 8.18786 82.7451 8.21042 82.3261 7.75922C81.9072 7.30801 81.9877 6.55386 82.5034 6.07526C83.019 5.59666 83.778 5.57571 84.1954 6.02852Z" fill="#818592"/>
<path d="M78.8874 11.7632C79.3064 12.2144 79.2275 12.9685 78.7118 13.4455C78.1961 13.9225 77.4371 13.9451 77.0198 13.4939C76.6024 13.0427 76.6814 12.2885 77.197 11.8099C77.7127 11.3313 78.4701 11.3071 78.8874 11.7632Z" fill="#818592"/>
<path d="M73.1142 6.13224C72.9176 6.71559 72.2182 7.00726 71.5511 6.77682C70.8839 6.54639 70.5004 5.90342 70.697 5.31846C70.8936 4.73351 71.5914 4.44345 72.2585 4.67388C72.9256 4.90432 73.3076 5.5489 73.1142 6.13224Z" fill="#818592"/>
<path d="M84.1736 12.2912C84.4637 12.8343 84.1946 13.5433 83.5725 13.8737C82.9505 14.204 82.2141 14.0348 81.9256 13.4885C81.6372 12.9423 81.9047 12.2364 82.5251 11.9061C83.1455 11.5757 83.8852 11.7482 84.1736 12.2912Z" fill="#818592"/>
<path d="M76.4624 20.6783C75.9338 20.6251 75.3747 20.5977 74.7929 20.5977C74.2112 20.5977 73.6923 20.6235 73.1815 20.6719C73.6649 19.2216 73.9872 17.0735 73.9727 16.2549C73.9534 15.2364 74.1435 13.986 72.8963 13.1931C72.0148 12.6323 70.3405 11.7332 68.3165 11.6735C68.0748 12.0393 67.8863 12.3487 67.7445 12.2553C67.6026 12.1618 67.7251 11.9459 67.9056 11.6719C67.1289 11.6879 66.3608 11.8378 65.6351 12.1151C65.1613 12.2988 64.976 11.8556 65.7672 11.6461C66.1803 11.5232 66.6006 11.4258 67.0258 11.3545C66.8388 10.9887 66.6857 10.697 66.8308 10.6229C67.029 10.523 67.1724 10.9 67.3819 11.3142C68.9192 11.1643 71.367 11.3142 73.457 12.9095C74.2515 13.5331 74.1822 12.7661 74.1822 12.2762C74.1822 11.4528 74.2982 10.5971 74.0049 10.0621C73.5763 9.38528 72.8769 9.12423 72.271 8.82611C71.3799 8.3878 70.6386 8.03972 69.7894 7.83829C68.7516 7.59174 68.0748 6.89237 67.5769 6.03025C67.1241 6.09954 66.7454 6.17689 66.7196 6.00286C66.6938 5.82882 66.9935 5.77242 67.3754 5.71924C67.1721 5.39584 67.0061 5.05039 66.8807 4.68953C66.755 4.25605 67.0725 4.07073 67.2739 4.58478C67.4512 5.0376 67.9056 6.34287 69.0658 7.03579C69.1819 6.6571 69.2737 6.35737 69.4252 6.40411C69.6234 6.46534 69.4977 6.79408 69.3688 7.19694C69.6093 7.30571 69.8576 7.3962 70.1117 7.46766C71.2894 7.84543 72.4203 8.35578 73.4828 8.98887C73.8792 9.21608 74.1371 9.45296 74.1371 8.71492C74.1371 7.97688 74.1951 3.95309 74.1951 3.50028C74.1951 2.97495 74.6479 2.92982 74.6479 3.49061C74.6479 4.05139 74.8187 10.9129 74.8187 11.3674C74.8187 11.8218 74.7881 12.4148 75.3279 11.7751C75.8678 11.1353 79.0762 8.46676 80.5925 7.18243C80.404 6.8118 80.2477 6.51691 80.3943 6.44117C80.541 6.36543 80.6924 6.62004 80.8568 6.95522C81.018 6.81664 81.1324 6.68933 81.2291 6.61682C81.7624 6.21557 82.0896 6.44761 81.4982 6.91332C81.0889 7.23561 78.1673 9.73497 77.8273 10.075C77.5662 10.2941 77.8273 10.3538 78.6765 10.2974C79.7275 10.2757 80.7788 10.3225 81.8237 10.4376C81.9445 10.0395 82.0396 9.71724 82.1959 9.76558C82.3796 9.8236 82.283 10.112 82.1653 10.4795C82.4103 10.5117 82.6149 10.5552 82.7599 10.5858C83.1612 10.668 83.0919 11.1337 82.5891 10.9822C81.7318 10.7244 78.3816 10.6438 77.3745 10.8694C76.58 11.2658 75.162 12.8934 75.162 13.8168C75.162 15.6554 75.7985 19.5922 76.4624 20.6783Z" fill="#818592"/>
<path d="M117.471 25.8275L117.778 22.7174C117.787 22.6291 117.779 22.5399 117.753 22.455C117.727 22.3701 117.685 22.291 117.629 22.2224C117.573 22.1539 117.503 22.0971 117.425 22.0554C117.347 22.0136 117.261 21.9878 117.173 21.9793L114.755 21.7376C114.577 21.7201 114.399 21.774 114.26 21.8876C114.122 22.0012 114.034 22.1652 114.016 22.3435L113.706 25.452C113.18 25.719 112.73 26.1141 112.397 26.6009C112.064 27.0877 111.859 27.6506 111.8 28.2375C111.742 28.8245 111.833 29.4167 112.063 29.9595C112.294 30.5024 112.658 30.9783 113.121 31.3435L112.812 34.4519C112.794 34.6303 112.848 34.8084 112.962 34.9471C113.076 35.0857 113.24 35.1737 113.418 35.1916L115.835 35.4317C116.014 35.4493 116.192 35.3954 116.331 35.2818C116.47 35.1683 116.558 35.0043 116.576 34.8258L116.884 31.7173C117.411 31.451 117.861 31.0564 118.195 30.5697C118.528 30.0831 118.734 29.5203 118.792 28.9332C118.851 28.3462 118.76 27.7539 118.529 27.211C118.298 26.6682 117.934 26.1924 117.471 25.8275ZM116.945 31.0534C116.384 31.4287 115.713 31.6018 115.04 31.5442C114.368 31.4866 113.735 31.2017 113.246 30.7365C112.757 30.2713 112.442 29.6534 112.351 28.9847C112.26 28.3161 112.4 27.6364 112.747 27.0577C113.094 26.4789 113.628 26.0357 114.26 25.8008C114.893 25.566 115.587 25.5536 116.227 25.7657C116.868 25.9779 117.417 26.4018 117.785 26.9678C118.152 27.5338 118.316 28.2081 118.249 28.8796C118.206 29.3157 118.067 29.7369 117.841 30.1128C117.616 30.4887 117.31 30.8099 116.945 31.0534Z" fill="#818592"/>
<path d="M117.339 27.1565C117.283 27.1526 117.227 27.1649 117.177 27.192L115.349 28.2426L114.391 27.2049C114.356 27.1667 114.31 27.1397 114.259 27.1271C114.208 27.1145 114.155 27.1169 114.105 27.1339C114.056 27.151 114.013 27.182 113.98 27.2231C113.948 27.2643 113.929 27.3139 113.924 27.366C113.921 27.4039 113.925 27.4422 113.937 27.4783C113.949 27.5144 113.969 27.5475 113.995 27.5755L115.099 28.7728C115.144 28.8207 115.204 28.851 115.27 28.8582C115.326 28.8642 115.382 28.8518 115.431 28.8228L117.448 27.6641C117.498 27.6357 117.537 27.5922 117.561 27.5399C117.584 27.4876 117.591 27.4293 117.579 27.3732C117.567 27.3171 117.538 27.2662 117.495 27.2278C117.453 27.1895 117.399 27.1656 117.342 27.1597L117.339 27.1565Z" fill="#818592"/>
<path d="M123.069 36.2358C123.085 34.5583 122.499 34.5825 121.659 34.576C121.731 34.5364 121.791 34.4787 121.833 34.4085C121.876 34.3384 121.899 34.2583 121.901 34.1764C121.902 34.0909 121.879 34.0067 121.836 33.9329C121.793 33.8591 121.731 33.7983 121.656 33.757C121.581 33.7157 121.496 33.6954 121.411 33.6983C121.325 33.7012 121.242 33.7272 121.17 33.7735C121.099 33.8198 121.041 33.8847 121.003 33.9613C120.965 34.0379 120.948 34.1233 120.955 34.2086C120.961 34.2938 120.991 34.3757 121.04 34.4455C121.09 34.5153 121.157 34.5704 121.235 34.605C120.971 34.6244 120.697 34.6389 120.418 34.6469C120.495 34.6088 120.559 34.5505 120.604 34.4784C120.65 34.4062 120.675 34.3229 120.676 34.2376C120.678 34.1527 120.657 34.0688 120.615 33.9948C120.574 33.9207 120.513 33.8592 120.44 33.8167C120.366 33.7742 120.282 33.7523 120.198 33.7531C120.113 33.754 120.029 33.7777 119.957 33.8217C119.884 33.8657 119.825 33.9285 119.785 34.0034C119.745 34.0783 119.725 34.1625 119.729 34.2474C119.733 34.3322 119.759 34.4145 119.806 34.4857C119.852 34.5568 119.917 34.6142 119.993 34.6517C119.683 34.6517 119.374 34.6517 119.074 34.6324C119.15 34.5942 119.215 34.5359 119.26 34.4637C119.306 34.3916 119.331 34.3084 119.332 34.2231C119.326 34.1019 119.274 33.9874 119.187 33.9032C119.1 33.819 118.983 33.7714 118.862 33.7702C118.741 33.7689 118.623 33.8141 118.534 33.8966C118.445 33.979 118.391 34.0923 118.383 34.2134C118.383 34.288 118.402 34.3614 118.436 34.4275C118.471 34.4936 118.52 34.5506 118.581 34.5937C116.886 34.576 117.775 35.1835 116.219 35.1674L99.6902 34.684C99.674 33.7606 99.6031 32.5794 99.3936 31.8962C99.102 30.9551 98.1802 29.4468 95.6631 29.9463C92.885 30.4974 91.6716 30.607 89.3688 29.2453C86.9823 27.8337 85.3869 28.6652 84.1171 28.5121C82.4315 28.3075 80.0885 27.6146 78.867 29.3646C77.6262 31.1501 77.4425 33.0629 77.4167 35.8007C77.3909 38.5386 77.5327 40.4546 78.7381 42.2642C79.9209 44.0368 82.2011 44.6621 83.8947 44.4912C85.1678 44.3623 86.8244 43.9579 89.2383 42.5946C91.5685 41.278 92.7835 41.4134 95.5439 42.0209C98.0513 42.5704 99.0053 41.0798 99.3131 40.1452C99.5532 39.4232 99.6354 38.1341 99.674 37.1898L116.161 37.0721C117.772 37.0899 116.83 37.7715 118.504 37.7892H118.597C118.523 37.8282 118.461 37.8862 118.417 37.9573C118.372 38.0284 118.348 38.11 118.346 38.1937C118.342 38.2583 118.35 38.3231 118.372 38.3841C118.393 38.4451 118.427 38.5011 118.471 38.5486C118.515 38.5961 118.568 38.6342 118.628 38.6604C118.687 38.6866 118.751 38.7005 118.815 38.7011C118.88 38.7018 118.944 38.6892 119.004 38.6642C119.064 38.6392 119.118 38.6023 119.162 38.5557C119.207 38.509 119.242 38.4538 119.265 38.3932C119.288 38.3326 119.298 38.268 119.295 38.2034C119.295 38.1152 119.271 38.0287 119.224 37.9538C119.178 37.8789 119.111 37.8185 119.032 37.7796C119.326 37.7796 119.635 37.7796 119.952 37.7957C119.875 37.834 119.81 37.8927 119.764 37.9654C119.718 38.0382 119.693 38.1221 119.691 38.2082C119.69 38.3339 119.739 38.4549 119.827 38.5446C119.915 38.6344 120.035 38.6855 120.16 38.6868C120.286 38.6881 120.407 38.6394 120.497 38.5515C120.587 38.4635 120.638 38.3435 120.639 38.2179C120.639 38.1382 120.619 38.0597 120.581 37.9899C120.542 37.9202 120.486 37.8616 120.418 37.8198C120.679 37.8376 120.939 37.8569 121.188 37.8811C121.108 37.9179 121.039 37.977 120.99 38.0515C120.942 38.126 120.915 38.2128 120.915 38.3017C120.914 38.3639 120.926 38.4256 120.949 38.4833C120.972 38.5411 121.006 38.5936 121.05 38.6381C121.093 38.6825 121.145 38.718 121.203 38.7424C121.26 38.7668 121.321 38.7796 121.383 38.7803C121.446 38.7809 121.507 38.7693 121.565 38.7461C121.623 38.7228 121.675 38.6885 121.72 38.6449C121.764 38.6014 121.8 38.5495 121.824 38.4923C121.849 38.435 121.861 38.3736 121.862 38.3113C121.862 38.2314 121.841 38.1528 121.802 38.0831C121.763 38.0134 121.706 37.955 121.638 37.9133C122.471 37.9214 123.048 37.8698 123.069 36.2358ZM93.0558 38.2759C92.5953 38.2759 92.1451 38.1393 91.7622 37.8835C91.3792 37.6276 91.0808 37.2639 90.9045 36.8384C90.7283 36.413 90.6822 35.9448 90.772 35.4931C90.8619 35.0414 91.0836 34.6265 91.4093 34.3008C91.7349 33.9752 92.1499 33.7534 92.6015 33.6635C93.0532 33.5737 93.5214 33.6198 93.9469 33.7961C94.3724 33.9723 94.7361 34.2708 94.9919 34.6537C95.2478 35.0366 95.3844 35.4868 95.3844 35.9473C95.3844 36.5649 95.139 37.1572 94.7023 37.5939C94.2657 38.0306 93.6734 38.2759 93.0558 38.2759Z" fill="#818592"/>
<path d="M50.9111 33.4602H50.3004C50.3006 33.4067 50.2903 33.3537 50.2699 33.3043C50.2496 33.2548 50.2197 33.2099 50.182 33.172C50.1443 33.1341 50.0995 33.1041 50.0501 33.0836C50.0007 33.063 49.9478 33.0525 49.8943 33.0525H49.4866C49.4331 33.0525 49.3802 33.063 49.3308 33.0836C49.2815 33.1041 49.2366 33.1341 49.1989 33.172C49.1612 33.2099 49.1313 33.2548 49.111 33.3043C49.0907 33.3537 49.0803 33.4067 49.0805 33.4602H45.213C44.807 33.4602 44.807 32.4434 44.4073 32.4434H42.1739C41.7662 32.4434 41.7662 33.4602 41.3681 33.4602H40.7574C40.4881 33.4602 40.2299 33.5671 40.0395 33.7575C39.8491 33.9479 39.7422 34.2061 39.7422 34.4754V40.5747C39.742 40.7082 39.7681 40.8404 39.819 40.9637C39.8699 41.0871 39.9447 41.1992 40.039 41.2936C40.1333 41.3881 40.2452 41.463 40.3685 41.5141C40.4918 41.5652 40.6239 41.5915 40.7574 41.5915H50.924C51.0575 41.5915 51.1896 41.5652 51.3129 41.5141C51.4362 41.463 51.5482 41.3881 51.6424 41.2936C51.7367 41.1992 51.8115 41.0871 51.8624 40.9637C51.9133 40.8404 51.9394 40.7082 51.9392 40.5747V34.4754C51.9392 34.341 51.9126 34.2079 51.8607 34.0839C51.8089 33.9599 51.733 33.8474 51.6373 33.7529C51.5417 33.6585 51.4283 33.584 51.3036 33.5337C51.1789 33.4835 51.0455 33.4585 50.9111 33.4602ZM43.795 35.0861C43.795 35.1938 43.7522 35.2971 43.676 35.3733C43.5999 35.4494 43.4966 35.4922 43.3889 35.4922H42.1739C42.1204 35.4924 42.0674 35.4821 42.018 35.4618C41.9685 35.4415 41.9236 35.4116 41.8857 35.3738C41.8478 35.3361 41.8177 35.2913 41.7972 35.2419C41.7767 35.1925 41.7662 35.1396 41.7662 35.0861V34.8831C41.7662 34.775 41.8091 34.6713 41.8856 34.5948C41.962 34.5183 42.0657 34.4754 42.1739 34.4754H43.3937C43.4472 34.4754 43.5001 34.4859 43.5495 34.5065C43.5989 34.527 43.6437 34.557 43.6814 34.5949C43.7192 34.6328 43.749 34.6777 43.7694 34.7272C43.7897 34.7766 43.8 34.8296 43.7998 34.8831L43.795 35.0861ZM47.8607 40.5763C47.2573 40.5763 46.6676 40.3974 46.1659 40.0622C45.6643 39.727 45.2733 39.2506 45.0424 38.6932C44.8115 38.1358 44.7511 37.5225 44.8688 36.9307C44.9865 36.339 45.277 35.7955 45.7036 35.3689C46.1303 34.9422 46.6738 34.6517 47.2655 34.534C47.8573 34.4163 48.4706 34.4767 49.028 34.7076C49.5854 34.9385 50.0618 35.3295 50.397 35.8311C50.7322 36.3328 50.9111 36.9225 50.9111 37.5259C50.9111 38.3349 50.5897 39.1108 50.0177 39.6829C49.4456 40.2549 48.6697 40.5763 47.8607 40.5763Z" fill="#818592"/>
<path d="M50.0958 37.5531C50.1124 36.3179 49.1245 35.3032 47.8894 35.2866C46.6542 35.27 45.6394 36.2578 45.6228 37.493C45.6062 38.7282 46.5941 39.7429 47.8293 39.7596C49.0644 39.7762 50.0792 38.7883 50.0958 37.5531Z" fill="#818592"/>
<path d="M119.725 22.3891C120.047 22.4036 120.358 22.5125 120.62 22.7023C120.881 22.8922 121.08 23.1545 121.194 23.4568C121.307 23.7591 121.329 24.0881 121.258 24.4028C121.186 24.7176 121.023 25.0044 120.79 25.2275C120.556 25.4506 120.262 25.6003 119.945 25.658C119.627 25.7156 119.299 25.6787 119.003 25.5518C118.706 25.4249 118.453 25.2136 118.275 24.9441C118.097 24.6747 118.002 24.3589 118.002 24.036C118.012 23.5892 118.199 23.1647 118.522 22.8559C118.845 22.5471 119.278 22.3791 119.725 22.3891Z" fill="#818592"/>
<path d="M106.285 22.3891C106.608 22.4036 106.919 22.5126 107.18 22.7024C107.441 22.8922 107.641 23.1545 107.754 23.4568C107.868 23.7591 107.89 24.0881 107.818 24.4029C107.746 24.7177 107.584 25.0044 107.35 25.2275C107.117 25.4507 106.823 25.6003 106.505 25.658C106.188 25.7156 105.86 25.6787 105.563 25.5518C105.266 25.4249 105.013 25.2136 104.835 24.9442C104.657 24.6747 104.563 24.3589 104.562 24.036C104.567 23.8147 104.616 23.5966 104.705 23.394C104.794 23.1914 104.922 23.0084 105.082 22.8554C105.242 22.7025 105.431 22.5826 105.637 22.5025C105.844 22.4225 106.064 22.384 106.285 22.3891Z" fill="#818592"/>
<path d="M123.528 22.7794C122.954 22.8036 122.883 20.6475 118.964 20.4445C113.46 15.6907 107.301 18.4044 104.427 21.2502C103.984 21.4886 103.602 21.8268 103.312 22.238C103.037 22.2799 102.99 22.3524 102.99 22.383C102.748 23.6496 103.038 24.4151 104.199 24.407C104.289 20.7684 108.881 21.5999 108.401 24.6536H117.606C117.38 21.6885 121.796 20.7732 121.936 24.6536C123.9 24.5827 123.604 23.6561 123.528 22.7794ZM110.768 20.5395H107.384C108.166 19.2778 110.114 18.6509 110.844 18.5752C110.843 19.2278 110.768 19.8869 110.768 20.5395ZM116.798 20.6282C115.058 20.6282 113.319 20.5621 111.581 20.5621V18.4479C113.139 18.2319 115.247 18.4028 116.798 19.7048V20.6282Z" fill="#818592"/>
<path d="M70.0744 31.6312C69.9628 31.4829 69.7971 31.3849 69.6135 31.3586C69.4298 31.3324 69.2432 31.38 69.0946 31.491L66.0957 33.747H68.4259L69.9342 32.619C70.0089 32.5639 70.0719 32.4944 70.1195 32.4146C70.1671 32.3349 70.1983 32.2464 70.2114 32.1545C70.2245 32.0625 70.2191 31.9689 70.1955 31.8791C70.172 31.7892 70.1308 31.7049 70.0744 31.6312Z" fill="#818592"/>
<path d="M72.7047 39.8819L72.9094 39.6289H68.9243L66.7005 42.3813C66.7005 42.3813 64.9037 44.6067 65.5096 46.3196C70.3085 42.8486 72.1053 40.6232 72.7047 39.8819Z" fill="#818592"/>
<path d="M75.3695 36.6862C75.3666 36.0898 75.1276 35.5188 74.7048 35.0982C74.282 34.6775 73.7099 34.4414 73.1135 34.4414H63.8477C63.263 34.4571 62.7075 34.7004 62.2994 35.1195C61.8914 35.5386 61.6631 36.1004 61.6631 36.6853C61.6631 37.2703 61.8914 37.8321 62.2994 38.2512C62.7075 38.6703 63.263 38.9136 63.8477 38.9293H73.1135C73.4091 38.9306 73.7019 38.8735 73.9754 38.7614C74.2488 38.6493 74.4975 38.4843 74.707 38.2759C74.9166 38.0675 75.083 37.8198 75.1967 37.547C75.3104 37.2742 75.3691 36.9817 75.3695 36.6862ZM73.6534 36.6974C73.6537 36.7999 73.6236 36.9001 73.5668 36.9854C73.5101 37.0707 73.4294 37.1373 73.3348 37.1766C73.2402 37.216 73.1361 37.2264 73.0356 37.2065C72.9351 37.1865 72.8428 37.1372 72.7703 37.0648C72.6979 36.9924 72.6486 36.9001 72.6287 36.7996C72.6088 36.6991 72.6191 36.5949 72.6585 36.5003C72.6978 36.4058 72.7644 36.325 72.8497 36.2683C72.935 36.2116 73.0352 36.1815 73.1377 36.1818C73.2729 36.1843 73.4018 36.2397 73.4967 36.3361C73.5915 36.4325 73.6449 36.5622 73.6453 36.6974H73.6534ZM64.5712 37.616V36.9714H63.9589V36.3945H64.5712V35.7741H65.182V36.3864H65.7959V36.9633H65.182V37.6079L64.5712 37.616Z" fill="#818592"/>
<path d="M61.109 9.26221C60.9185 8.66914 60.563 8.14261 60.0841 7.74422C59.3154 7.13671 59.1172 6.8112 58.9931 6.56948C58.9213 6.40927 58.9092 6.22858 58.9593 6.06026C58.9707 6.03306 58.9894 6.0095 59.0132 5.99217C59.0371 5.97484 59.0653 5.96439 59.0947 5.96196H59.2945C59.3216 5.96197 59.3476 5.95132 59.3668 5.93233C59.3861 5.91333 59.3972 5.88751 59.3976 5.86044V4.08785C59.3972 4.06078 59.3861 4.03496 59.3668 4.01596C59.3476 3.99697 59.3216 3.98632 59.2945 3.98633H55.738C55.711 3.98632 55.685 3.99697 55.6657 4.01596C55.6464 4.03496 55.6353 4.06078 55.6349 4.08785V5.86044C55.6353 5.88751 55.6464 5.91333 55.6657 5.93233C55.685 5.95132 55.711 5.96197 55.738 5.96196H57.5944C57.6081 5.96196 57.6216 5.96468 57.6343 5.96996C57.6469 5.97525 57.6583 5.98299 57.6679 5.99274C57.6775 6.00249 57.6851 6.01405 57.6902 6.02675C57.6952 6.03944 57.6978 6.05303 57.6975 6.06671V6.3052C57.6975 6.31867 57.6949 6.332 57.6897 6.34443C57.6845 6.35685 57.6768 6.36812 57.6672 6.37756C57.6576 6.38701 57.6463 6.39446 57.6338 6.39946C57.6213 6.40447 57.6079 6.40694 57.5944 6.40672H56.1812C56.152 6.40808 56.124 6.41841 56.1009 6.43629C56.0778 6.45417 56.0608 6.47874 56.0523 6.50663C55.9564 6.82973 55.7696 7.1184 55.514 7.33814C55.1096 7.66043 53.8945 8.30501 53.8945 9.52326V16.3413C53.8945 16.3413 53.8945 17.5338 55.311 17.5338H59.9842C60.0406 17.5338 60.1341 17.5338 60.1905 17.5338C60.1905 17.5338 61.1396 17.6063 61.1396 16.069V9.46203C61.1365 9.39452 61.1263 9.32753 61.109 9.26221ZM56.3552 16.8908H55.2433C55.0621 16.8908 54.8883 16.8188 54.7602 16.6907C54.632 16.5625 54.5601 16.3888 54.5601 16.2075C54.5601 16.0263 54.632 15.8526 54.7602 15.7244C54.8883 15.5963 55.0621 15.5243 55.2433 15.5243H56.3488L56.3552 16.8908ZM57.7024 16.8908H56.5905V15.5243H57.6959C57.8771 15.5243 58.0509 15.5963 58.1791 15.7244C58.3072 15.8526 58.3792 16.0263 58.3792 16.2075C58.3792 16.3888 58.3072 16.5625 58.1791 16.6907C58.0509 16.8188 57.8771 16.8908 57.6959 16.8908H57.7024ZM57.7024 14.7605C57.6422 14.6919 57.5964 14.6121 57.5676 14.5256C57.5388 14.4391 57.5276 14.3477 57.5347 14.2568C57.5418 14.1659 57.567 14.0773 57.6088 13.9963C57.6506 13.9153 57.7082 13.8435 57.7783 13.7851C57.8483 13.7267 57.9293 13.6829 58.0165 13.6563C58.1037 13.6297 58.1953 13.6208 58.286 13.6301C58.3767 13.6395 58.4646 13.6669 58.5445 13.7107C58.6245 13.7546 58.6948 13.814 58.7514 13.8855L59.4637 14.7379L58.4114 15.6081L57.7024 14.7605ZM60.2227 16.7361C60.1531 16.7936 60.0728 16.8368 59.9864 16.8631C59.9001 16.8895 59.8093 16.8985 59.7195 16.8897C59.6296 16.8808 59.5424 16.8543 59.4628 16.8117C59.3832 16.769 59.3129 16.711 59.2558 16.641L58.5597 15.7918L59.6119 14.9216L60.3161 15.7821C60.4293 15.9214 60.4829 16.0997 60.4654 16.2783C60.4479 16.4569 60.3607 16.6214 60.2227 16.7361Z" fill="#818592"/>
<path d="M37.158 29.4541H31.4277C31.1516 29.455 30.8871 29.5651 30.692 29.7605C30.4969 29.9559 30.3871 30.2206 30.3867 30.4967V42.8742C30.3867 43.1505 30.4963 43.4154 30.6915 43.6109C30.8867 43.8064 31.1515 43.9164 31.4277 43.9168H37.158C37.2949 43.9168 37.4305 43.8899 37.557 43.8375C37.6835 43.7851 37.7984 43.7083 37.8953 43.6115C37.9921 43.5147 38.0689 43.3997 38.1213 43.2732C38.1737 43.1467 38.2006 43.0112 38.2006 42.8742V30.4967C38.2002 30.2203 38.0902 29.9554 37.8948 29.7599C37.6994 29.5645 37.4344 29.4545 37.158 29.4541ZM34.2929 43.4544C34.1587 43.4544 34.0275 43.4146 33.916 43.34C33.8044 43.2655 33.7174 43.1595 33.6661 43.0356C33.6147 42.9116 33.6013 42.7752 33.6275 42.6436C33.6537 42.512 33.7183 42.3911 33.8132 42.2962C33.908 42.2013 34.0289 42.1367 34.1605 42.1106C34.2921 42.0844 34.4285 42.0978 34.5525 42.1492C34.6765 42.2005 34.7824 42.2875 34.857 42.399C34.9315 42.5106 34.9713 42.6418 34.9713 42.7759C34.9713 42.9559 34.8998 43.1284 34.7726 43.2557C34.6454 43.3829 34.4728 43.4544 34.2929 43.4544ZM37.5496 41.2531C37.5496 41.357 37.5083 41.4566 37.4349 41.53C37.3615 41.6034 37.2619 41.6447 37.158 41.6447H31.4277C31.3764 41.6447 31.3255 41.6346 31.2781 41.6149C31.2307 41.5952 31.1876 41.5663 31.1514 41.5299C31.1152 41.4935 31.0865 41.4504 31.067 41.4029C31.0475 41.3554 31.0375 41.3045 31.0377 41.2531V30.4967C31.0377 30.3933 31.0788 30.2941 31.152 30.221C31.2251 30.1478 31.3243 30.1067 31.4277 30.1067H37.158C37.2094 30.1065 37.2603 30.1165 37.3078 30.136C37.3553 30.1555 37.3984 30.1842 37.4348 30.2204C37.4712 30.2566 37.5001 30.2997 37.5198 30.3471C37.5395 30.3945 37.5496 30.4454 37.5496 30.4967V41.2531Z" fill="#818592"/>
<path d="M62.8217 23.1905H61.9531V24.6553H62.8217C63.1209 24.6644 63.4138 24.5673 63.6484 24.3813C63.719 24.3228 63.7749 24.2487 63.8119 24.1647C63.8488 24.0808 63.8656 23.9895 63.8611 23.8979C63.8631 23.8015 63.8426 23.7061 63.8012 23.6191C63.7598 23.5321 63.6986 23.4559 63.6226 23.3967C63.4647 23.2614 63.1988 23.1888 62.8217 23.1905Z" fill="#818592"/>
<path d="M30.9893 39.4006L30.8781 39.0977L27.7148 40.2402L27.8244 40.5431L30.9893 39.4006Z" fill="#818592"/>
<path d="M30.7185 38.6585L30.5155 38.1025L27.3506 39.2451L27.5536 39.8026L30.7185 38.6585Z" fill="#818592"/>
<path d="M26.9268 38.0822L27.1121 38.5898L30.9473 37.2072L30.7636 36.7012L26.9268 38.0822Z" fill="#818592"/>
<path d="M26.6396 37.2938L26.7508 37.5967L30.5861 36.2157L30.4749 35.9111L26.6396 37.2938Z" fill="#818592"/>
<path d="M26.2969 36.3511L26.4451 36.7556L30.9894 35.1232L30.8428 34.7188L26.2969 36.3511Z" fill="#818592"/>
<path d="M25.5215 34.2219L25.7052 34.7263L31.0133 32.8038L30.8296 32.2979L25.5215 34.2219Z" fill="#818592"/>
<path d="M30.5425 31.5066L25.2363 33.4326L25.3463 33.7356L30.6525 31.8095L30.5425 31.5066Z" fill="#818592"/>
<path d="M32.8232 28.7279L24.6113 31.7168L24.8875 32.4754L33.0993 29.4866L32.8232 28.7279Z" fill="#818592"/>
<path d="M32.5207 27.9172L24.3135 30.9141L24.3875 31.1169L32.5948 28.12L32.5207 27.9172Z" fill="#818592"/>
<path d="M32.1828 26.9797L23.9678 29.96L24.1513 30.4659L32.3663 27.4857L32.1828 26.9797Z" fill="#818592"/>
<path d="M31.8924 26.1822L23.6826 29.1768L23.7931 29.4795L32.0028 26.4849L31.8924 26.1822Z" fill="#818592"/>
<path d="M32.7112 24.7191L23.3037 28.1357L23.4693 28.5917L32.8768 25.175L32.7112 24.7191Z" fill="#818592"/>
<path d="M32.4039 23.8685L23 27.2949L23.1103 27.5977L32.5142 24.1713L32.4039 23.8685Z" fill="#818592"/>
<path d="M26.0098 35.5614L26.0823 35.7645L30.6282 34.1321L30.554 33.9307L26.0098 35.5614Z" fill="#818592"/>
</g>
<defs>
<clipPath id="clip0">
<rect width="146" height="50" fill="white"/>
</clipPath>
</defs>
</svg>
