<svg width="146" height="52" viewBox="0 0 146 52" fill="none" xmlns="http://www.w3.org/2000/svg">
<path d="M48.9153 10.7295C54.0438 10.9737 58.4783 12.8503 62.1672 16.3979C64.995 19.1228 66.8459 22.4133 67.7585 26.2308C68.2212 28.1588 68.3755 30.1254 68.2469 32.1048C68.0156 35.7295 66.9102 39.0714 64.8665 42.0791C61.9616 46.3465 57.9899 49.1228 52.9899 50.4082C51.0618 50.9094 49.0824 51.0894 47.103 50.9737C42.1158 50.6781 37.7971 48.8272 34.1981 45.3696C31.1775 42.4904 29.2623 38.9686 28.414 34.8812C28.0541 33.1588 27.9256 31.4107 28.0413 29.6627C28.3626 24.6884 30.2521 20.3825 33.7354 16.7963C36.486 13.9557 39.8022 12.1177 43.6454 11.2179C44.8665 10.9351 46.1133 10.7681 47.3729 10.7295C47.3986 10.7938 47.3986 10.8452 47.3986 10.9094C47.3986 11.295 47.3986 11.6806 47.3986 12.0663C47.3986 12.1305 47.3986 12.1948 47.3729 12.2462C46.0618 12.2848 44.7765 12.4904 43.5168 12.8118C38.2983 14.1228 33.7482 17.8246 31.4089 22.6704C30.0207 25.5495 29.3909 28.583 29.5451 31.7835C29.5965 32.876 29.7379 33.9686 29.995 35.0354C31.0104 39.2899 33.2084 42.7989 36.6531 45.4981C40.1621 48.2616 44.1852 49.5598 48.6454 49.4699C50.0207 49.4442 51.3703 49.2642 52.6942 48.9172C56.9487 47.8118 60.4192 45.511 63.067 42.002C65.3035 39.0328 66.5246 35.6652 66.7559 31.9506C66.8202 30.9223 66.7945 29.9069 66.6788 28.8786C66.5503 27.7218 66.3318 26.5778 65.9976 25.4596C64.2752 19.804 60.0464 15.3439 54.4937 13.313C52.6942 12.6575 50.8305 12.2848 48.9153 12.2333C48.8896 11.7321 48.8896 11.2308 48.9153 10.7295Z" fill="#818592"/>
<path d="M48.9153 10.7299C48.9025 11.2312 48.9025 11.7453 48.9153 12.2466C48.9153 12.4908 48.9025 12.7479 48.9025 12.9921C48.4012 12.8636 47.9127 12.8507 47.4114 12.9921C47.3729 12.7479 47.4243 12.4908 47.3857 12.2466C47.4114 12.1952 47.4114 12.1309 47.4114 12.0667C47.4114 11.681 47.4114 11.2954 47.4114 10.9098C47.4114 10.8456 47.4114 10.7813 47.3857 10.7299C47.3857 10.6271 47.3986 10.5242 47.3986 10.4343C47.3986 7.6065 47.3986 4.79159 47.3986 1.96382C47.3986 1.84814 47.3986 1.73246 47.4243 1.61678C47.4886 1.23118 47.8228 0.974107 48.2212 0.999814C48.5811 1.02552 48.8896 1.32115 48.9153 1.6939C48.9153 1.77102 48.9153 1.84814 48.9153 1.92526C48.9153 4.30316 48.9153 6.68105 48.9153 9.04609C48.9153 9.12321 48.9153 9.21318 48.9153 9.31601C49.0181 9.23889 49.0567 9.16177 49.0953 9.0975C49.7636 8.17205 50.4706 7.27231 51.2546 6.44969C52.6171 5.0101 54.2366 4.03323 56.1261 3.45483C57.2572 3.10778 58.4012 2.85071 59.5451 2.58079C61.2289 2.19519 62.9127 1.78388 64.5837 1.3083C64.6223 1.29544 64.6737 1.29544 64.7122 1.28259C64.7379 1.37257 64.6865 1.43683 64.6608 1.48825C63.7097 3.84043 62.0773 5.54994 59.8022 6.64249C58.6197 7.20804 57.3857 7.6065 56.1261 7.94069C54.8408 8.27488 53.5554 8.58336 52.2701 8.91755C51.1904 9.20033 50.1364 9.54737 49.121 9.98439C48.9539 10.0487 48.8639 10.1386 48.9025 10.3186C48.9153 10.46 48.9025 10.5885 48.9153 10.7299Z" fill="#818592"/>
<path d="M83.543 31.5395C83.543 32.0279 83.543 32.5035 83.543 32.9919C83.543 33.6989 83.5302 34.3929 83.5173 35.0999C83.5173 35.2927 83.5173 35.2927 83.3374 35.2927C82.7718 35.2927 82.1934 35.2927 81.6278 35.2927C81.4479 35.2927 81.4479 35.2927 81.435 35.0999C81.435 35.0742 81.435 35.0356 81.435 35.0099C81.435 31.3338 81.435 27.6706 81.435 23.9945C81.435 23.686 81.3965 23.7117 81.7178 23.7117C82.1934 23.7117 82.6561 23.7117 83.1317 23.7117C83.3374 23.7117 83.3374 23.7117 83.3374 23.9302C83.3374 24.2001 83.3374 24.4701 83.3374 24.74C83.3888 24.7657 83.4145 24.7271 83.4273 24.7014C83.9286 24.0202 84.6098 23.6474 85.4196 23.5189C87.579 23.1462 89.3399 24.2901 90.0983 25.9611C90.4582 26.758 90.5482 27.5935 90.4967 28.4418C90.4196 29.7914 89.8541 30.9225 88.8001 31.7837C88.1317 32.3364 87.3348 32.5935 86.4736 32.6577C85.9595 32.6963 85.4582 32.6449 84.9697 32.4778C84.4685 32.3107 84.0443 32.0279 83.6844 31.6423C83.6458 31.6037 83.6073 31.5652 83.5816 31.5266C83.5687 31.5266 83.5559 31.5266 83.543 31.5395ZM88.4273 28.0562C88.4273 27.8505 88.4273 27.6449 88.3759 27.4392C88.1446 26.4881 87.6304 25.8068 86.6664 25.524C86.3708 25.4341 86.0623 25.4212 85.7538 25.4341C84.7255 25.4726 83.8772 26.1153 83.5559 27.0922C83.3759 27.6063 83.3759 28.1333 83.453 28.6731C83.5173 29.0459 83.6458 29.4058 83.8772 29.7143C84.7512 30.9482 86.4865 30.8839 87.3605 30.2541C88.0931 29.7014 88.4273 28.9559 88.4273 28.0562Z" fill="#818592"/>
<path d="M93.6708 29.008C93.6451 29.098 93.6965 29.1751 93.7222 29.2523C94.0693 30.0877 94.712 30.5505 95.5988 30.6661C96.1644 30.7304 96.7171 30.6533 97.2312 30.3705C97.4112 30.2677 97.5783 30.152 97.7325 29.9978C97.7839 29.9463 97.8354 29.8949 97.9253 29.8949C98.6708 29.8949 99.4035 29.8949 100.136 29.8949C100.175 29.9592 100.136 30.0106 100.123 30.062C99.4163 31.553 98.2338 32.4014 96.6143 32.6327C95.7531 32.7484 94.9176 32.6713 94.1207 32.3242C92.694 31.6944 91.8199 30.589 91.4857 29.0723C91.0487 27.0929 91.9484 25.2548 93.4266 24.2008C94.0436 23.7638 94.7248 23.5453 95.4703 23.4682C96.2544 23.3911 97.0256 23.4553 97.7582 23.7638C99.1464 24.3551 99.9947 25.4091 100.342 26.8744C100.496 27.517 100.509 28.1726 100.445 28.8281C100.432 28.9823 100.432 28.9823 100.265 28.9952C100.213 28.9952 100.162 28.9952 100.098 28.9952C98.041 28.9952 95.9973 28.9952 93.9407 28.9952C93.8636 28.9823 93.7608 28.9695 93.6708 29.008ZM98.2724 27.0929C98.2724 27.0543 98.2724 27.0286 98.2595 26.9901C98.0924 26.4888 97.7968 26.0903 97.3598 25.7947C96.9099 25.499 96.3958 25.3834 95.8688 25.4219C94.879 25.4862 94.1592 25.9746 93.7222 26.8615C93.6065 27.0929 93.6194 27.1057 93.8765 27.1057C95.2647 27.1057 96.6657 27.1057 98.0539 27.1057C98.1181 27.1186 98.1824 27.1314 98.2724 27.0929Z" fill="#818592"/>
<path d="M114.108 23.4414C116.666 23.39 118.722 25.4594 118.722 28.0558C118.722 30.5879 116.704 32.6702 114.082 32.6573C111.434 32.6445 109.468 30.4594 109.481 28.0172C109.506 25.7293 111.319 23.39 114.108 23.4414ZM116.627 28.0043C116.614 27.8373 116.614 27.593 116.55 27.3617C116.306 26.4362 115.766 25.7678 114.815 25.4979C114.493 25.4079 114.172 25.4079 113.851 25.4208C113.247 25.4594 112.732 25.7164 112.308 26.1534C111.46 27.0403 111.434 28.4285 111.871 29.3025C112.193 29.9452 112.694 30.3951 113.401 30.575C113.696 30.6522 114.005 30.665 114.313 30.6522C114.815 30.6265 115.265 30.4722 115.65 30.1509C116.306 29.6239 116.614 28.9169 116.627 28.0043Z" fill="#818592"/>
<path d="M74.6098 24.393C74.6741 24.3159 74.7255 24.2388 74.7898 24.1617C75.2139 23.6347 75.7795 23.4033 76.4478 23.4033C76.5635 23.4033 76.6149 23.4419 76.6021 23.5576C76.6021 24.136 76.6021 24.7144 76.6021 25.2928C76.6021 25.4213 76.5635 25.447 76.4478 25.4599C76.3193 25.4599 76.1908 25.4856 76.0622 25.5113C75.5095 25.627 75.1497 25.9612 74.944 26.4753C74.7898 26.8481 74.7512 27.2465 74.7512 27.6578C74.7512 29.136 74.7512 30.6013 74.7512 32.0794C74.7512 32.1308 74.7512 32.1822 74.7512 32.2465C74.764 32.375 74.6998 32.4008 74.5841 32.4008C73.9928 32.4008 73.4016 32.4008 72.8103 32.4008C72.6946 32.4008 72.6304 32.375 72.6432 32.2465C72.6432 32.1951 72.6432 32.1565 72.6432 32.1051C72.6432 29.4059 72.6432 26.7067 72.6432 24.0203C72.6432 23.9946 72.6432 23.956 72.6432 23.9303C72.6432 23.7247 72.6432 23.7247 72.8489 23.7247C73.363 23.7247 73.8643 23.7247 74.3784 23.7247C74.5712 23.7247 74.5712 23.7247 74.5712 23.9303C74.5712 24.0846 74.5712 24.2388 74.5712 24.393C74.5841 24.3802 74.597 24.393 74.6098 24.393Z" fill="#818592"/>
<path d="M79.7634 28.0569C79.7634 29.3936 79.7634 30.7432 79.7634 32.08C79.7634 32.1314 79.7634 32.17 79.7634 32.2214C79.7634 32.3885 79.7634 32.4013 79.5834 32.4013C79.005 32.4013 78.4266 32.4013 77.8482 32.4013C77.6811 32.4013 77.6811 32.4013 77.6811 32.2342C77.6811 32.1443 77.6811 32.0543 77.6811 31.9515C77.6811 29.3036 77.6811 26.6558 77.6811 23.9952C77.6811 23.6738 77.6426 23.7124 77.9639 23.7124C78.4781 23.7124 78.9793 23.7124 79.4935 23.7124C79.802 23.7124 79.7763 23.6867 79.7763 23.9823C79.7634 25.3448 79.7634 26.6944 79.7634 28.0569Z" fill="#818592"/>
<path d="M106.177 28.0561C106.177 26.7065 106.177 25.3569 106.177 24.0073C106.177 23.6603 106.126 23.7117 106.486 23.7117C107 23.7117 107.514 23.7117 108.041 23.7117C108.272 23.7117 108.272 23.7117 108.272 23.9302C108.272 24.7014 108.272 25.4726 108.272 26.2438C108.272 28.1847 108.272 30.1255 108.272 32.0664C108.272 32.1178 108.272 32.1693 108.272 32.2335C108.285 32.3363 108.247 32.3878 108.131 32.3878C107.527 32.3878 106.91 32.3878 106.306 32.3878C106.216 32.3878 106.177 32.3621 106.177 32.2721C106.177 32.2207 106.177 32.1693 106.177 32.105C106.177 30.7554 106.177 29.4058 106.177 28.0561Z" fill="#818592"/>
<path d="M74.5197 39.483C75.0338 39.7786 75.2138 40.2028 75.0467 40.7297C74.9824 40.9611 74.841 41.1411 74.6354 41.2696C74.404 41.411 74.1598 41.4881 73.8899 41.4881C73.5428 41.501 73.1958 41.4881 72.8487 41.4881C72.6816 41.4881 72.6816 41.4881 72.6816 41.321C72.6816 40.1899 72.6816 39.0716 72.6816 37.9405C72.6816 37.7734 72.6816 37.7734 72.8487 37.7734C73.1444 37.7734 73.4529 37.7734 73.7485 37.7734C73.9027 37.7734 74.057 37.7991 74.1984 37.8506C74.6611 38.0048 74.9439 38.4675 74.8539 38.9431C74.8282 39.0845 74.7639 39.2002 74.6611 39.303C74.6225 39.3673 74.5454 39.393 74.5197 39.483ZM73.3757 40.3441C73.3757 40.4727 73.3757 40.6012 73.3757 40.7426C73.3757 40.8069 73.3886 40.8454 73.4657 40.8454C73.6714 40.8454 73.877 40.8711 74.0827 40.794C74.2883 40.7169 74.3912 40.5884 74.404 40.3827C74.4169 40.177 74.314 40.0357 74.1341 39.9457C74.0056 39.8814 73.8642 39.8686 73.7356 39.8686C73.3886 39.8686 73.3886 39.8686 73.3886 40.2028C73.3757 40.2542 73.3757 40.3056 73.3757 40.3441ZM73.3757 38.8274C73.4014 38.9431 73.3115 39.1359 73.4143 39.2002C73.5557 39.2773 73.7613 39.2387 73.9284 39.1745C74.0955 39.1231 74.1726 39.0074 74.1855 38.8274C74.1855 38.6603 74.1084 38.5446 73.9541 38.4675C73.8642 38.429 73.7613 38.429 73.6585 38.429C73.35 38.429 73.3886 38.4033 73.3886 38.686C73.3757 38.7375 73.3757 38.776 73.3757 38.8274Z" fill="#818592"/>
<path d="M118.08 41.2183C117.566 41.6296 117.052 41.6939 116.538 41.4111C116.011 41.1283 115.702 40.5242 115.779 39.933C115.856 39.2903 116.255 38.8019 116.846 38.6476C117.232 38.5448 117.592 38.5705 117.926 38.8276C117.939 38.8404 117.964 38.8533 117.99 38.8661C117.99 38.8661 118.003 38.8661 118.042 38.8661C118.042 38.6348 118.042 38.4034 118.042 38.1592C118.042 38.0435 117.99 37.8893 118.067 37.7993C118.157 37.7093 118.311 37.7607 118.44 37.7607C118.761 37.7607 118.723 37.735 118.723 38.0435C118.723 39.0975 118.723 40.1386 118.723 41.1926C118.723 41.244 118.723 41.2954 118.723 41.3597C118.723 41.4497 118.684 41.4754 118.594 41.4754C118.479 41.4754 118.363 41.4625 118.247 41.4754C118.119 41.4882 118.08 41.4368 118.093 41.3211C118.093 41.3083 118.08 41.2826 118.08 41.2183ZM118.08 40.1129C118.08 39.5859 117.643 39.1746 117.167 39.2389C116.795 39.2903 116.473 39.6373 116.448 40.0101C116.422 40.4342 116.679 40.8327 117.052 40.9355C117.579 41.0898 118.08 40.6785 118.08 40.1129Z" fill="#818592"/>
<path d="M94.2878 39.0204C94.3007 38.7247 94.3007 38.7247 94.5577 38.7119C94.9176 38.7119 94.9176 38.7119 94.9176 39.0589C94.9176 39.7787 94.9176 40.4857 94.9176 41.2055C94.9176 41.2569 94.9176 41.3083 94.9176 41.3726C94.9305 41.4754 94.8662 41.5011 94.7762 41.5011C94.6734 41.5011 94.5706 41.5011 94.4806 41.5011C94.3135 41.5011 94.3135 41.5011 94.3135 41.334C94.3135 41.3083 94.3135 41.2697 94.3135 41.244C94.2492 41.2055 94.2235 41.2569 94.1978 41.2826C93.7737 41.6039 93.2981 41.7067 92.8096 41.4754C92.3084 41.244 92.0641 40.807 92.0127 40.2672C91.9742 39.9201 92.0384 39.5988 92.2184 39.2903C92.6554 38.5705 93.6066 38.4034 94.2107 38.9304C94.1978 38.9432 94.2364 38.9689 94.2878 39.0204ZM93.4652 39.2389C93.0024 39.2389 92.6425 39.6245 92.6297 40.1129C92.6297 40.5885 92.9896 40.9741 93.4395 40.9869C93.8893 40.9998 94.2621 40.6142 94.2621 40.1129C94.2878 39.6116 93.9279 39.2389 93.4652 39.2389Z" fill="#818592"/>
<path d="M89.7637 38.8797C90.0079 38.7126 90.2264 38.6097 90.4835 38.6226C91.049 38.6354 91.5246 39.0467 91.5503 39.6251C91.576 40.2036 91.5632 40.7948 91.5632 41.3861C91.5632 41.476 91.5246 41.5146 91.4475 41.5146C91.319 41.5146 91.1904 41.5017 91.049 41.5146C90.9205 41.5275 90.8948 41.4632 90.8948 41.3475C90.8948 40.9619 90.8948 40.5763 90.8948 40.1907C90.8948 40.0236 90.8819 39.8694 90.8562 39.7023C90.8048 39.3938 90.612 39.2395 90.3164 39.2395C90.0979 39.2395 89.9308 39.3424 89.8537 39.548C89.7894 39.7151 89.7637 39.8951 89.7637 40.0622C89.7637 40.4735 89.7637 40.8976 89.7637 41.3089C89.7637 41.4889 89.7637 41.5017 89.5966 41.4889C89.4424 41.4889 89.2367 41.5532 89.1339 41.4503C89.0439 41.3475 89.1082 41.1547 89.1082 41.0005C89.1082 40.0236 89.1082 39.0467 89.1082 38.0699C89.1082 38.0056 89.1082 37.9413 89.1082 37.8899C89.1082 37.8257 89.1339 37.7871 89.1981 37.7871C89.3652 37.7871 89.5195 37.7871 89.6866 37.7871C89.7766 37.7871 89.7766 37.8514 89.7766 37.9156C89.7766 38.1727 89.7766 38.4298 89.7766 38.674C89.7637 38.7254 89.7637 38.7768 89.7637 38.8797Z" fill="#818592"/>
<path d="M110.805 38.622C111.486 38.5834 112.27 39.149 112.283 40.1001C112.283 40.9485 111.64 41.5911 110.818 41.5911C109.995 41.5911 109.327 40.9356 109.327 40.113C109.301 39.2775 110.021 38.5834 110.805 38.622ZM111.602 40.1258C111.602 39.6374 111.255 39.2389 110.818 39.2389C110.368 39.2261 109.982 39.6374 109.982 40.113C109.982 40.5886 110.355 40.9742 110.805 40.9742C111.242 40.9742 111.602 40.5886 111.602 40.1258Z" fill="#818592"/>
<path d="M114.031 38.6215C114.853 38.6215 115.496 39.2771 115.496 40.1125C115.496 40.948 114.853 41.5907 114.018 41.5907C113.182 41.5907 112.54 40.9223 112.54 40.0868C112.514 39.3413 113.17 38.583 114.031 38.6215ZM114.815 40.1382C114.815 39.6755 114.506 39.3028 114.121 39.2385C113.748 39.1871 113.388 39.4184 113.247 39.8169C113.131 40.1511 113.221 40.5495 113.478 40.7681C113.722 40.9866 114.018 41.038 114.314 40.9094C114.661 40.7423 114.802 40.4596 114.815 40.1382Z" fill="#818592"/>
<path d="M102.373 38.6221C103.028 38.5835 103.838 39.1105 103.851 40.1002C103.864 40.9486 103.208 41.5912 102.36 41.5912C101.55 41.5912 100.882 40.9229 100.882 40.1131C100.882 39.2133 101.64 38.5835 102.373 38.6221ZM103.183 40.1131C103.183 39.6247 102.823 39.2262 102.373 39.2262C101.936 39.2262 101.563 39.6247 101.563 40.1002C101.563 40.5758 101.923 40.9614 102.373 40.9743C102.81 40.9743 103.17 40.6015 103.183 40.1131Z" fill="#818592"/>
<path d="M78.0538 38.6215C78.8765 38.6215 79.5191 39.277 79.5191 40.1125C79.5191 40.948 78.8765 41.5906 78.041 41.5906C77.167 41.5906 76.5371 40.8323 76.55 40.0868C76.5629 39.367 77.2055 38.5829 78.0538 38.6215ZM78.8508 40.1768C78.8508 39.6755 78.568 39.3027 78.1695 39.2385C77.7968 39.1742 77.4112 39.4313 77.2826 39.8297C77.167 40.1896 77.2441 40.5109 77.514 40.7552C77.7582 40.9865 78.041 41.0379 78.3495 40.8965C78.6965 40.7552 78.8379 40.4724 78.8508 40.1768Z" fill="#818592"/>
<path d="M85.6894 41.5018C85.4323 41.5018 85.201 41.5018 84.9696 41.5018C84.8796 41.5018 84.8282 41.4503 84.7896 41.3861C84.5711 41.0776 84.3398 40.7563 84.1084 40.4478C84.0699 40.3835 84.0184 40.3192 83.967 40.2678C83.8899 40.2935 83.9156 40.3578 83.9156 40.4092C83.9156 40.7177 83.9156 41.0262 83.9156 41.3347C83.9156 41.5018 83.9156 41.5018 83.7485 41.5018C83.62 41.5018 83.4914 41.5018 83.3501 41.5018C83.2729 41.5018 83.2344 41.476 83.2344 41.3989C83.2344 41.3475 83.2344 41.309 83.2344 41.2575C83.2344 40.1907 83.2344 39.111 83.2344 38.0442C83.2344 37.9928 83.2344 37.9542 83.2344 37.9028C83.2344 37.8257 83.2601 37.7871 83.3501 37.7871C83.4914 37.7871 83.6457 37.7871 83.7871 37.7871C83.8899 37.7871 83.9156 37.8385 83.9156 37.9285C83.9156 38.3655 83.9156 38.8025 83.9156 39.2524C83.9156 39.4838 83.9156 39.7151 83.9156 39.9465C84.0056 39.9593 84.0184 39.8951 84.0441 39.8565C84.2627 39.5352 84.494 39.2138 84.6997 38.8797C84.7768 38.764 84.8668 38.7126 84.9953 38.7254C85.1753 38.7383 85.3423 38.7254 85.5223 38.7254C85.548 38.8154 85.4837 38.8539 85.458 38.9054C85.2138 39.2395 84.9696 39.5737 84.7254 39.9079C84.5968 40.0879 84.5968 40.0879 84.7254 40.255C85.0082 40.6149 85.2909 40.9619 85.5737 41.3218C85.6123 41.3604 85.6637 41.3989 85.6894 41.5018Z" fill="#818592"/>
<path d="M97.2449 38.8791C97.3349 38.8791 97.3606 38.8277 97.412 38.8019C98.029 38.3778 98.8901 38.712 99.0572 39.4446C99.0829 39.5732 99.1086 39.7017 99.1086 39.8302C99.1086 40.3187 99.1086 40.8199 99.1086 41.3084C99.1086 41.4883 99.1086 41.4883 98.9158 41.5012C98.8002 41.5012 98.6845 41.5012 98.5688 41.5012C98.4531 41.514 98.4274 41.4626 98.4274 41.3469C98.4274 40.9228 98.4274 40.4986 98.4274 40.0744C98.4274 39.9202 98.4146 39.766 98.376 39.6246C98.3117 39.4061 98.1703 39.2647 97.939 39.239C97.7076 39.2133 97.502 39.3418 97.3991 39.5603C97.3349 39.6888 97.3092 39.8431 97.3092 39.9845C97.3092 40.4215 97.3092 40.8585 97.3092 41.2955C97.3092 41.5012 97.3092 41.5012 97.1035 41.5012C96.9878 41.5012 96.8721 41.5012 96.7565 41.5012C96.6536 41.5012 96.6279 41.4626 96.6279 41.3598C96.6279 40.5243 96.6279 39.676 96.6279 38.8405C96.6279 38.7377 96.6793 38.712 96.7693 38.712C96.8721 38.712 96.975 38.712 97.0649 38.712C97.1678 38.712 97.3092 38.6863 97.2449 38.8791Z" fill="#818592"/>
<path d="M103.131 30.3061C103.427 30.3061 103.735 30.3061 104.031 30.3061C104.134 30.3061 104.185 30.3318 104.185 30.4475C104.185 31.0516 104.185 31.6428 104.185 32.247C104.185 32.3626 104.147 32.3883 104.031 32.3883C103.427 32.3883 102.836 32.3883 102.231 32.3883C102.129 32.3883 102.077 32.3626 102.077 32.247C102.077 31.6428 102.077 31.0516 102.077 30.4475C102.077 30.3318 102.116 30.2932 102.231 30.3061C102.527 30.3061 102.836 30.3061 103.131 30.3061Z" fill="#818592"/>
<path d="M107.077 39.6243C107.077 39.0716 107.077 38.5189 107.077 37.9534C107.077 37.7734 107.077 37.7734 107.257 37.7734C107.771 37.7734 108.286 37.7734 108.813 37.7734C108.98 37.7734 108.98 37.7734 108.98 37.9405C108.98 38.0434 108.98 38.159 108.98 38.2619C108.98 38.3775 108.941 38.429 108.825 38.429C108.543 38.4161 108.26 38.429 107.964 38.429C107.784 38.429 107.771 38.429 107.771 38.6218C107.771 38.8017 107.771 38.9945 107.771 39.1745C107.771 39.2901 107.81 39.3287 107.913 39.3159C108.196 39.3159 108.465 39.3159 108.748 39.3159C108.864 39.3159 108.915 39.3544 108.903 39.4701C108.89 39.6243 108.967 39.83 108.864 39.9328C108.774 40.0228 108.581 39.9585 108.44 39.9585C108.286 39.9585 108.131 39.9585 107.977 39.9585C107.771 39.9585 107.771 39.9585 107.771 40.177C107.771 40.5498 107.771 40.9225 107.771 41.2824C107.771 41.4624 107.771 41.4624 107.579 41.4752C107.45 41.4752 107.334 41.4752 107.206 41.4752C107.103 41.4752 107.064 41.4367 107.064 41.3467C107.064 41.1539 107.064 40.9611 107.064 40.7683C107.077 40.3955 107.077 40.0099 107.077 39.6243Z" fill="#818592"/>
<path d="M82.6688 39.6377C82.4503 39.6377 82.2446 39.6377 82.0261 39.6377C81.9618 39.6377 81.9233 39.5991 81.8976 39.5606C81.7048 39.2778 81.4477 39.175 81.1135 39.2649C80.7665 39.3549 80.5865 39.5991 80.5094 39.9333C80.4066 40.4217 80.7279 40.8973 81.1906 40.9616C81.4605 41.0002 81.679 40.923 81.8461 40.7174C81.9233 40.6145 82.0004 40.5888 82.1161 40.5888C82.296 40.6017 82.476 40.5888 82.6688 40.5888C82.5145 41.2444 81.8204 41.6814 81.1006 41.5914C80.3551 41.4886 79.7767 40.8074 79.8153 40.0619C79.8539 39.2906 80.458 38.6737 81.1906 38.6351C81.9361 38.5966 82.6045 39.0464 82.6688 39.6377Z" fill="#818592"/>
<path d="M88.6582 40.5882C88.4654 41.2695 87.7585 41.6936 87.0515 41.5779C86.3189 41.4623 85.7662 40.8067 85.7919 40.0612C85.8176 39.3286 86.3831 38.6859 87.0901 38.6217C87.8356 38.5574 88.504 38.9815 88.6453 39.6371C88.414 39.6499 88.1826 39.6371 87.9641 39.6371C87.9127 39.6371 87.887 39.5857 87.8613 39.5471C87.6685 39.2772 87.4114 39.1743 87.0901 39.2515C86.743 39.3286 86.5502 39.5728 86.486 39.907C86.3831 40.4083 86.6916 40.8839 87.18 40.961C87.4243 40.9995 87.6556 40.9353 87.797 40.7425C87.8998 40.6139 88.0027 40.5882 88.1569 40.5882C88.3112 40.5882 88.4782 40.5882 88.6582 40.5882Z" fill="#818592"/>
<path d="M107.219 22.7099C106.923 22.7099 106.615 22.7099 106.319 22.7099C106.203 22.7099 106.178 22.6714 106.178 22.5685C106.178 22.0287 106.178 21.476 106.178 20.9362C106.178 20.8333 106.216 20.8076 106.319 20.8076C106.923 20.8076 107.54 20.8076 108.144 20.8076C108.247 20.8076 108.273 20.8462 108.273 20.949C108.273 21.4888 108.273 22.0415 108.273 22.5814C108.273 22.6971 108.234 22.7228 108.119 22.7228C107.823 22.7099 107.514 22.7099 107.219 22.7099Z" fill="#818592"/>
<path d="M78.6971 22.7091C78.4014 22.7091 78.1058 22.7091 77.823 22.7091C77.7073 22.7091 77.6816 22.6706 77.6816 22.5677C77.6816 22.0279 77.6816 21.488 77.6816 20.9482C77.6816 20.8454 77.6945 20.7939 77.823 20.7939C78.4271 20.7939 79.0312 20.7939 79.6225 20.7939C79.7253 20.7939 79.7767 20.8325 79.7767 20.9353C79.7767 21.4752 79.7767 22.015 79.7767 22.5549C79.7767 22.6834 79.7253 22.7091 79.6096 22.7091C79.3012 22.7091 78.9927 22.7091 78.6971 22.7091Z" fill="#818592"/>
<path d="M104.288 40.383C104.288 40.0873 104.288 39.7789 104.288 39.4832C104.288 39.3804 104.301 39.2904 104.147 39.3033C104.057 39.3161 104.044 39.2519 104.044 39.1876C104.044 39.0848 104.044 38.9819 104.044 38.892C104.044 38.7763 104.044 38.6863 104.198 38.712C104.262 38.7249 104.275 38.6606 104.288 38.6092C104.301 38.5321 104.314 38.4421 104.34 38.365C104.468 37.9537 104.841 37.6966 105.239 37.7094C105.342 37.7094 105.381 37.748 105.381 37.838C105.381 37.9665 105.368 38.0822 105.381 38.2107C105.394 38.3264 105.342 38.3778 105.226 38.3907C105.085 38.4035 104.995 38.4549 104.969 38.6092C104.957 38.6863 104.982 38.7249 105.059 38.7249C105.149 38.7249 105.265 38.6863 105.316 38.7634C105.368 38.8405 105.329 38.9434 105.342 39.0334C105.342 39.0462 105.342 39.0591 105.342 39.0848C105.342 39.3161 105.381 39.3418 105.111 39.329C104.944 39.329 104.944 39.329 104.944 39.4961C104.944 40.1002 104.944 40.6915 104.944 41.2956C104.944 41.5012 104.944 41.5012 104.725 41.5012C104.622 41.5012 104.52 41.4884 104.43 41.5012C104.301 41.5141 104.275 41.4498 104.275 41.3341C104.288 41.0256 104.288 40.7043 104.288 40.383Z" fill="#818592"/>
<path d="M75.5088 39.6497C75.5088 39.0842 75.5088 38.5186 75.5088 37.9659C75.5088 37.7988 75.5088 37.7988 75.6759 37.7988C75.7916 37.7988 75.9072 37.7988 76.0229 37.7988C76.1772 37.7988 76.1772 37.7988 76.19 37.9659C76.19 37.9916 76.19 38.0173 76.19 38.0302C76.19 39.097 76.19 40.1767 76.19 41.2435C76.19 41.2821 76.19 41.3207 76.19 41.3592C76.2029 41.4492 76.1643 41.5006 76.0615 41.5006C75.933 41.5006 75.8044 41.4878 75.663 41.5006C75.5345 41.5135 75.5088 41.4492 75.5088 41.3335C75.5088 40.9608 75.5088 40.5752 75.5088 40.2024C75.5088 40.0096 75.5088 39.8297 75.5088 39.6497Z" fill="#818592"/>
<path d="M96.0871 40.1259C96.0871 40.5244 96.0871 40.91 96.0871 41.3085C96.0871 41.5013 96.0871 41.5141 95.9071 41.5013C95.7529 41.5013 95.5473 41.5655 95.4444 41.4627C95.3545 41.3599 95.4187 41.1671 95.4187 41.0128C95.4187 40.3187 95.4187 39.6247 95.4187 38.9434C95.4187 38.7249 95.4187 38.7121 95.6244 38.7249C95.7786 38.7249 95.9586 38.6606 96.0614 38.7635C96.1514 38.8534 96.0871 39.0463 96.0871 39.1876C96.0871 39.4961 96.0871 39.8046 96.0871 40.1259Z" fill="#818592"/>
<path d="M95.7401 37.7862C96.0871 37.7862 96.0872 37.7862 96.0872 38.1461C96.0872 38.4289 96.1129 38.4032 95.8172 38.4032C95.4059 38.4032 95.4059 38.4032 95.4059 38.0176C95.4059 37.7734 95.3802 37.7862 95.6501 37.7862C95.6758 37.7862 95.7016 37.7862 95.7401 37.7862Z" fill="#818592"/>
<path d="M48.9028 12.9923C48.9542 13.018 49.0185 13.0437 49.0699 13.0694C49.8797 13.4422 50.3295 14.0849 50.4324 14.9589C50.4581 15.126 50.4452 15.126 50.6123 15.1517C53.0802 15.5373 55.3167 16.4627 57.3604 17.9023C57.3732 17.9152 57.3989 17.928 57.4118 17.9409C57.6432 18.108 57.6432 18.108 57.8617 17.928C59.2241 16.8869 61.2164 17.6838 61.4863 19.3676C61.5892 20.0489 61.4221 20.653 60.9979 21.1928C60.8822 21.3471 60.8694 21.3471 60.9851 21.4885C62.3604 23.3779 63.273 25.473 63.7228 27.7738C63.7614 27.9795 63.8 28.198 63.8257 28.4165C63.8385 28.5322 63.8899 28.5707 64.0056 28.5707C64.9696 28.635 65.7665 29.3291 66.0236 30.216C66.4092 31.5784 65.4452 32.9923 64.0442 33.108C63.8514 33.1208 63.8514 33.1208 63.8257 33.3008C63.4401 35.7687 62.5146 38.0052 61.075 40.0489C61.0365 40.1003 60.9979 40.1645 60.9465 40.216C60.8565 40.3059 60.8822 40.3702 60.9593 40.473C61.3192 40.8972 61.512 41.3985 61.4992 41.964C61.4735 42.8895 61.0493 43.5964 60.2138 43.9949C59.3784 44.3933 58.5686 44.2905 57.8231 43.7378C57.7845 43.7121 57.746 43.6864 57.7203 43.6478C57.656 43.5836 57.6046 43.5964 57.5403 43.6478C57.5018 43.6864 57.4503 43.7121 57.4118 43.7378C55.548 45.0746 53.4786 45.9743 51.2293 46.4242C51.0236 46.4627 50.8051 46.5013 50.5866 46.527C50.4709 46.5399 50.4195 46.5784 50.4066 46.707C50.3038 47.7609 49.5969 48.5707 48.5557 48.7635C47.0905 49.0334 45.9722 47.928 45.8694 46.7584C45.8565 46.5527 45.8565 46.5527 45.6766 46.527C43.2344 46.1414 41.0108 45.2417 38.9928 43.8149C38.9413 43.7764 38.8899 43.7378 38.8385 43.7121C38.6457 43.5707 38.6457 43.5707 38.4658 43.725C37.5532 44.4447 36.2421 44.3676 35.4324 43.545C34.6226 42.7224 34.5455 41.4113 35.2781 40.5116C35.4066 40.3445 35.4195 40.3445 35.291 40.1645C33.8899 38.2237 32.9773 36.09 32.5275 33.7378C32.5018 33.5836 32.4761 33.4293 32.4503 33.2751C32.4375 33.1594 32.3861 33.108 32.2575 33.108C31.255 33.0309 30.4452 32.3239 30.2267 31.3342C29.9182 29.9974 30.8822 28.6735 32.2447 28.5707C32.4246 28.5579 32.4246 28.5579 32.4503 28.3651C32.6817 26.8483 33.1316 25.3959 33.8 24.0077C34.2241 23.1337 34.7126 22.2982 35.291 21.5013C35.4066 21.3342 35.4066 21.3342 35.291 21.18C34.7511 20.473 34.6226 19.7018 34.9568 18.8792C35.291 18.0566 35.9208 17.5938 36.7948 17.4782C37.4118 17.401 37.9902 17.5681 38.4786 17.9537C38.6586 18.0951 38.6586 18.0951 38.8514 17.9537C40.4838 16.7712 42.2704 15.9358 44.2241 15.4345C44.7126 15.3059 45.201 15.2031 45.6894 15.1388C45.8051 15.126 45.8694 15.1003 45.8822 14.9589C45.9722 14.0206 46.4606 13.3779 47.3218 13.0052C47.3475 12.9923 47.3732 12.9795 47.3989 12.9666C47.9002 12.8509 48.4015 12.8509 48.9028 12.9923ZM55.9979 30.1003C57.7974 30.1003 59.5969 30.1003 61.3835 30.1003C61.4349 30.1003 61.4863 30.1003 61.5506 30.1003C61.6534 30.1131 61.7048 30.0746 61.7434 29.9717C61.8719 29.6504 62.0647 29.3805 62.3347 29.1491C62.4118 29.0849 62.4246 29.0206 62.4118 28.9306C62.3475 28.6093 62.309 28.2751 62.2447 27.9537C61.8077 25.8201 60.9208 23.8921 59.6097 22.1568C59.5326 22.054 59.4555 22.0283 59.3398 22.0412C59.0442 22.054 58.7485 22.0283 58.4786 21.8998C58.3115 21.8226 58.2216 21.8741 58.1059 21.9897C55.5352 24.5604 52.9773 27.1311 50.4066 29.7018C50.3681 29.7404 50.3295 29.7789 50.291 29.8175C50.2138 29.9203 50.291 30.1003 50.4195 30.1131C50.4838 30.1131 50.548 30.1131 50.5994 30.1131C52.3861 30.1003 54.1856 30.1003 55.9979 30.1003ZM56.0108 31.6041C54.2113 31.6041 52.3989 31.6041 50.5994 31.6041C50.548 31.6041 50.4966 31.6041 50.4324 31.6041C50.3424 31.5913 50.291 31.6298 50.2653 31.7198C50.2267 31.8098 50.2267 31.8741 50.3038 31.9383C50.3424 31.964 50.3681 32.0026 50.4066 32.0411C52.9645 34.599 55.5223 37.1568 58.0802 39.7147C58.1059 39.7404 58.1444 39.7661 58.1573 39.7918C58.2216 39.8818 58.2987 39.8818 58.4015 39.8432C58.6843 39.7147 58.9928 39.6633 59.3012 39.6761C59.4555 39.689 59.5583 39.6504 59.6226 39.5219C59.6483 39.4705 59.6869 39.4319 59.7126 39.3933C61.165 37.4139 62.0519 35.216 62.3989 32.7867C62.4118 32.6838 62.3861 32.6196 62.309 32.5424C62.0776 32.3368 61.8848 32.1054 61.782 31.8226C61.7048 31.6298 61.602 31.6041 61.4221 31.6041C59.6097 31.6041 57.8102 31.6041 56.0108 31.6041ZM40.3038 30.1003C42.1033 30.1003 43.9156 30.1003 45.7151 30.1003C45.7665 30.1003 45.818 30.1003 45.8822 30.1003C45.9851 30.1131 46.0108 30.0489 46.0493 29.9717C46.0879 29.8946 46.075 29.8432 46.0236 29.7918C45.9722 29.7532 45.9336 29.7018 45.8951 29.6633C43.3501 27.1183 40.8051 24.5733 38.2601 22.0283C38.2216 21.9897 38.1958 21.964 38.1573 21.9255C38.093 21.8355 38.0288 21.8226 37.9131 21.8741C37.6431 22.0026 37.3475 22.054 37.0519 22.0412C36.8462 22.0283 36.7434 22.1054 36.6406 22.2468C35.4838 23.8021 34.6611 25.5244 34.1984 27.4139C34.0827 27.9023 33.9928 28.3908 33.9156 28.892C33.9028 28.982 33.8771 29.072 33.9671 29.1491C34.237 29.3805 34.4426 29.6761 34.5712 30.0103C34.5969 30.0874 34.6483 30.1131 34.7254 30.1131C34.7768 30.1131 34.8282 30.1131 34.8925 30.1131C36.7048 30.1003 38.5043 30.1003 40.3038 30.1003ZM40.3167 31.6041C38.4915 31.6041 36.6663 31.6041 34.8411 31.6041C34.6869 31.6041 34.6097 31.6298 34.5455 31.7841C34.4426 32.054 34.2755 32.2982 34.0442 32.491C33.9156 32.5938 33.9028 32.7095 33.9156 32.8509C34.0185 33.4936 34.147 34.1363 34.327 34.7661C34.8154 36.5013 35.6123 38.0823 36.692 39.5219C36.7691 39.6247 36.8591 39.6761 37.0005 39.6633C37.2833 39.6504 37.5789 39.689 37.836 39.7918C37.9902 39.8561 38.093 39.8432 38.2087 39.7147C40.7794 37.144 43.3501 34.5604 45.9208 31.9897C45.9593 31.9512 45.9851 31.9255 46.0236 31.8869C46.0879 31.8355 46.075 31.7712 46.0493 31.707C46.0108 31.6298 45.9851 31.5656 45.8822 31.5784C45.8308 31.5784 45.7794 31.5784 45.7151 31.5784C43.9156 31.6041 42.1162 31.6041 40.3167 31.6041ZM48.9028 22.9923C48.9028 24.8046 48.9028 26.617 48.9028 28.4293C48.9028 28.4807 48.9028 28.5322 48.9028 28.5964C48.8899 28.6992 48.9542 28.725 49.0313 28.7635C49.1084 28.7892 49.1599 28.7892 49.2113 28.7378C49.2627 28.6864 49.3141 28.635 49.3527 28.5964C51.8976 26.0514 54.4426 23.5064 56.9876 20.9615C57.0133 20.9358 57.039 20.91 57.0647 20.8843C57.1419 20.8201 57.1676 20.7558 57.1162 20.6401C56.9876 20.3445 56.9234 20.0232 56.9491 19.689C56.9619 19.5604 56.9105 19.4962 56.8077 19.419C54.8025 17.9023 52.5532 16.9769 50.0725 16.6298C49.9696 16.617 49.8797 16.6298 49.8154 16.7198C49.6097 16.9512 49.3784 17.1311 49.0956 17.2468C48.9285 17.3111 48.8899 17.401 48.8899 17.5681C48.9028 19.3676 48.9028 21.18 48.9028 22.9923ZM48.9028 38.6992C48.9028 40.1517 48.9028 41.6041 48.9028 43.0437C48.9028 43.4422 48.9028 43.8278 48.9028 44.2262C48.9028 44.3419 48.9413 44.4062 49.0442 44.4447C49.3527 44.5604 49.6097 44.7532 49.8282 44.9974C49.9054 45.0874 49.9825 45.1131 50.0853 45.0874C50.6252 44.9974 51.165 44.9075 51.692 44.7661C53.5557 44.2905 55.2653 43.4679 56.8077 42.3111C56.9105 42.2339 56.9748 42.1568 56.9619 42.0026C56.9362 41.707 56.9876 41.4113 57.1033 41.1414C57.1676 40.9872 57.1419 40.8972 57.0262 40.7815C54.4426 38.2108 51.8719 35.6273 49.2884 33.0437C49.2498 33.0052 49.2241 32.9795 49.1856 32.9409C49.0827 32.8638 48.9028 32.928 48.8899 33.0694C48.8899 33.1337 48.8899 33.198 48.8899 33.2494C48.9028 35.0874 48.9028 36.8869 48.9028 38.6992ZM47.3989 23.0052C47.3989 22.8766 47.3989 22.7481 47.3989 22.6067C47.3989 20.91 47.3989 19.2134 47.3989 17.5167C47.3989 17.3625 47.3604 17.2854 47.2061 17.2211C46.9234 17.1054 46.6791 16.9255 46.4863 16.6941C46.3964 16.5913 46.3064 16.5784 46.1779 16.5913C44.8797 16.7841 43.6329 17.1183 42.4375 17.6453C41.3835 18.108 40.4066 18.6735 39.494 19.3676C39.4041 19.4319 39.3141 19.4833 39.327 19.6247C39.3527 19.9717 39.3012 20.3059 39.1599 20.6144C39.1213 20.7044 39.1342 20.7558 39.1984 20.8201C39.237 20.8458 39.2627 20.8843 39.3012 20.9229C41.8591 23.4807 44.4169 26.0386 46.9748 28.5964C47.0005 28.6221 47.0262 28.6478 47.0519 28.6735C47.1162 28.7378 47.1676 28.7764 47.2704 28.7378C47.3861 28.6992 47.3989 28.6221 47.3861 28.5193C47.3861 28.4679 47.3861 28.4293 47.3861 28.3779C47.3989 26.6041 47.3989 24.8046 47.3989 23.0052ZM47.3989 38.6992C47.3989 36.8998 47.3989 35.0874 47.3989 33.2879C47.3989 33.2365 47.3989 33.1851 47.3989 33.1208C47.4118 33.0309 47.3604 32.9795 47.2704 32.9537C47.1933 32.928 47.1419 32.928 47.0905 32.9923C47.0519 33.0309 47.0133 33.0694 46.9748 33.108C44.4169 35.6658 41.8591 38.2237 39.3012 40.7815C39.2755 40.8072 39.2498 40.8329 39.2241 40.8586C39.1342 40.9229 39.1342 41 39.1727 41.1028C39.3012 41.3985 39.3527 41.707 39.327 42.0283C39.3141 42.1568 39.3655 42.2339 39.4683 42.3111C39.9825 42.6967 40.5223 43.0566 41.0879 43.3779C42.6817 44.2777 44.3912 44.8432 46.2036 45.1003C46.2935 45.1131 46.3707 45.1131 46.4478 45.036C46.6663 44.7789 46.9491 44.5733 47.2704 44.4447C47.3604 44.4062 47.3989 44.3548 47.3861 44.2519C47.3861 44.2005 47.3861 44.1491 47.3861 44.0849C47.3989 42.2854 47.3989 40.4987 47.3989 38.6992ZM33.2216 30.8458C33.2216 30.4216 32.8745 30.0874 32.4632 30.0874C32.039 30.0874 31.6791 30.4473 31.692 30.8715C31.692 31.2828 32.039 31.6298 32.4632 31.6427C32.8874 31.6298 33.2344 31.2828 33.2216 30.8458ZM37.836 19.7532C37.836 19.3291 37.4632 18.982 37.039 18.9949C36.6277 19.0077 36.2807 19.3676 36.2807 19.7661C36.2935 20.1903 36.6534 20.5373 37.0776 20.5244C37.4889 20.5244 37.836 20.1645 37.836 19.7532ZM48.9156 46.5399C48.9156 46.1286 48.5686 45.7815 48.1444 45.7687C47.7203 45.7687 47.3604 46.1286 47.3732 46.5527C47.3732 46.9769 47.746 47.3368 48.1701 47.3239C48.5815 47.2982 48.9285 46.9512 48.9156 46.5399ZM48.1444 31.6298C48.5686 31.6298 48.9285 31.2828 48.9285 30.8586C48.9285 30.4473 48.5815 30.0874 48.1701 30.0874C47.746 30.0746 47.3861 30.4345 47.3861 30.8586C47.3732 31.2699 47.7331 31.617 48.1444 31.6298ZM48.9156 15.1774C48.9156 14.7532 48.5686 14.3933 48.1444 14.3933C47.7331 14.3933 47.3861 14.7404 47.3732 15.1645C47.3732 15.5887 47.7331 15.9486 48.1444 15.9486C48.5686 15.9358 48.9156 15.5887 48.9156 15.1774ZM64.6097 30.8458C64.6097 30.4216 64.2627 30.0746 63.8514 30.0746C63.4272 30.0746 63.0673 30.4216 63.0673 30.8458C63.0673 31.2571 63.4144 31.6041 63.8257 31.617C64.2498 31.6298 64.6097 31.2828 64.6097 30.8458ZM37.0519 42.7095C37.4761 42.7095 37.8231 42.3753 37.8231 41.9512C37.836 41.527 37.4761 41.1671 37.0519 41.1671C36.6406 41.1671 36.2807 41.5142 36.2807 41.9255C36.2678 42.3625 36.6277 42.7095 37.0519 42.7095ZM59.237 18.9949C58.8128 18.9949 58.4786 19.3419 58.4786 19.7532C58.4786 20.1774 58.8257 20.5373 59.2498 20.5244C59.674 20.5244 60.021 20.1645 60.0082 19.7404C60.0082 19.3162 59.6611 18.982 59.237 18.9949ZM59.237 42.7095C59.674 42.7095 60.0082 42.3753 60.0082 41.9383C60.0082 41.5142 59.6611 41.18 59.2498 41.18C58.8257 41.18 58.4786 41.527 58.4786 41.964C58.4786 42.3753 58.8128 42.7095 59.237 42.7095Z" fill="#818592"/>
</svg>
