<svg width="270" height="113" viewBox="0 0 270 113" fill="none" xmlns="http://www.w3.org/2000/svg">
<path d="M135.483 93.6127C133.868 94.9886 131.774 95.1083 130.159 95.1083H127.646V81.2894H129.74C131.475 81.2894 133.808 81.4091 135.603 83.0841C136.979 84.4002 137.756 86.1948 137.756 88.1091C137.756 90.1431 137.038 92.2966 135.483 93.6127ZM136.44 79.6743C134.646 78.8367 132.671 78.4778 130.697 78.5376H123.938V97.9797H130.578C132.552 98.0994 134.526 97.6806 136.321 96.8431C139.85 95.0485 141.405 91.519 141.405 88.0493C141.405 84.5796 139.91 81.3493 136.44 79.6743Z" fill="#818592"/>
<path d="M162.522 78.5374H158.933L153.908 89.8437L148.823 78.4775H145.114L143.021 97.8598H146.43L147.806 83.682L153.25 96.2446C153.429 96.7232 153.729 96.8428 153.968 96.8428C154.207 96.8428 154.506 96.6634 154.686 96.2446L159.771 83.8615L161.147 97.9794H164.736L162.522 78.5374Z" fill="#818592"/>
<path d="M115.383 91.5793H109.939V91.3999C109.939 91.3999 111.734 87.332 112.811 84.64C113.768 87.3918 115.264 91.3999 115.264 91.3999L115.383 91.5793ZM113.888 78.2989C113.648 77.7605 113.469 77.5811 113.11 77.5811C112.751 77.5811 112.512 77.7605 112.273 78.2989L103.658 97.9803H107.188L108.623 94.6303H116.52L117.836 97.9803H121.665L113.888 78.2989Z" fill="#818592"/>
<path d="M114.187 72.8545C114.246 71.8375 114.964 68.966 116.46 64.6589C119.391 56.7026 125.433 45.0373 136.62 41.448V44.6186C136.62 44.6186 125.792 48.0284 117.537 65.0776C115.862 68.4875 114.725 72.0768 114.306 72.8545H114.187ZM129.621 70.1625C141.405 67.291 143.918 53.6517 143.918 42.5248C143.918 37.44 143.439 32.3551 142.482 27.3301C116.161 37.4998 110.238 47.1909 110.178 53.7713C110.119 55.6258 110.537 57.4204 111.435 59.0356H111.495C111.195 58.0187 111.016 56.9419 111.016 55.8651C110.956 50.0025 115.981 41.448 139.551 32.2953C140.388 36.7221 140.807 41.2686 140.807 45.7552C140.807 55.2669 138.893 66.7526 129.441 70.1027L129.621 70.1625Z" fill="#818592"/>
<path d="M143.619 25.2965C133.569 29.1251 125.972 32.9537 120.408 36.8421C114.845 40.7305 111.315 44.6787 109.7 48.9261C109.221 50.1823 108.922 51.4984 108.803 52.8145L106.649 51.0198C104.914 49.5841 103 47.8493 103 45.1573C103 42.4653 104.914 40.7305 106.649 39.2349L133.808 16.6223C134.406 15.9045 135.423 15.7848 136.141 16.383L136.381 16.6223L163.48 39.2349C165.274 40.7305 167.129 42.4055 167.129 45.1573C167.129 47.9091 165.215 49.5841 163.48 51.0797L136.381 73.6325C135.782 74.3503 134.765 74.47 134.048 73.8718L133.808 73.6325L131.056 71.2994C136.5 69.6244 140.389 65.5565 142.722 59.7538C144.516 55.1475 145.473 49.3448 145.473 42.5251C145.473 36.7224 144.875 30.9795 143.619 25.2965Z" fill="#818592"/>
<path d="M146.491 70.6413H146.85C147.149 70.6413 147.448 70.6413 147.448 70.2824C147.448 69.9235 147.209 69.9235 146.969 69.9235H146.491V70.6413ZM146.91 68.8467C147.986 68.8467 148.824 69.744 148.764 70.761C148.764 71.8378 147.867 72.6753 146.85 72.6155C145.773 72.6155 144.935 71.7181 144.995 70.7012C144.995 69.6842 145.833 68.8467 146.91 68.8467ZM146.91 72.436C147.807 72.436 148.525 71.7181 148.525 70.8208C148.525 69.9235 147.807 69.2056 146.91 69.2056C146.012 69.2056 145.354 69.8636 145.294 70.761C145.294 71.6583 146.012 72.3762 146.91 72.3762V72.436ZM146.192 69.6244H147.029C147.568 69.6244 147.807 69.8038 147.807 70.2824C147.807 70.6413 147.568 70.8806 147.209 70.8806L147.867 71.8378H147.508L146.91 70.8806H146.491V71.8378H146.192V69.6244Z" fill="#818592"/>
</svg>
