<svg width="70" height="48" viewBox="0 0 70 48" fill="none" xmlns="http://www.w3.org/2000/svg">
<rect x="13.5" y="7.5" width="13" height="5" stroke="#1F2432"/>
<rect x="13.5" y="34.5" width="13" height="5" stroke="#1F2432"/>
<path d="M19.9996 13.0003L19.9582 35.006" stroke="#1F2432"/>
<path d="M49.9996 13.0003L49.9582 35.006" stroke="#1F2432"/>
<path d="M23 24.0006L48 24.0075" stroke="#1F2432"/>
<rect x="43.5" y="7.5" width="13" height="5" stroke="#1F2432"/>
<rect x="43.5" y="34.5" width="13" height="5" stroke="#1F2432"/>
<circle cx="20" cy="24" r="2.5" stroke="#1F2432"/>
<circle cx="50" cy="24" r="2.5" stroke="#1F2432"/>
<path fill-rule="evenodd" clip-rule="evenodd" d="M19.3125 2H17.1875V1H19.3125V2ZM23.5625 2H21.4375V1H23.5625V2ZM49.8125 2H47.6875V1H49.8125V2ZM54.0625 2H51.9375V1H54.0625V2Z" fill="#1F2432" stroke="#1F2432" stroke-dasharray="2 2"/>
<path fill-rule="evenodd" clip-rule="evenodd" d="M19.3125 47H17.1875V46H19.3125V47ZM23.5625 47H21.4375V46H23.5625V47ZM48.8125 47H46.6875V46H48.8125V47ZM53.0625 47H50.9375V46H53.0625V47Z" fill="#1F2432" stroke="#1F2432" stroke-dasharray="2 2"/>
</svg>
