<svg width="60" height="60" viewBox="0 0 60 60" fill="none" xmlns="http://www.w3.org/2000/svg">
<rect width="60" height="60" fill="black" fill-opacity="0"/>
<circle opacity="0.1" cx="30" cy="30" r="30" fill="#00DCE6"/>
<path d="M28.64 31.14L22 24.6V32.43H28.07C28.1746 31.9671 28.3682 31.529 28.64 31.14ZM28.12 33.79H22C22.1396 35.8681 22.9583 37.8427 24.33 39.41L28.64 35.11C28.3853 34.7065 28.2089 34.2587 28.12 33.79ZM34.26 34.98L38.5 39.24C39.7946 37.7019 40.5715 35.7949 40.72 33.79H34.72C34.6313 34.2087 34.476 34.6105 34.26 34.98ZM25.26 40.31C26.8295 41.6797 28.8022 42.5011 30.88 42.65V36.55C30.4182 36.4685 29.9807 36.2839 29.6 36.01L25.26 40.31ZM32.26 36.55V42.65C34.3374 42.5121 36.3104 41.6891 37.87 40.31L33.59 36.01C33.1736 36.279 32.7079 36.4626 32.22 36.55H32.26ZM22.02 22.6C23.66 24.23 28.79 29.35 29.65 30.22C30.0227 29.9964 30.4273 29.8312 30.85 29.73V19.81L22 12C22 12 22.02 22.36 22.02 22.6ZM37.66 26.08C36.0946 24.7115 34.1243 23.8932 32.05 23.75V29.84C32.5139 29.9204 32.9524 30.1088 33.33 30.39L37.66 26.08ZM34.8 32.43H40.9C40.7591 30.3504 39.9366 28.3751 38.56 26.81L34.26 31.11C34.5134 31.5163 34.696 31.9626 34.8 32.43Z" fill="#00DCE6"/>
</svg>
