<svg width="60" height="60" viewBox="0 0 60 60" fill="none" xmlns="http://www.w3.org/2000/svg">
<rect width="60" height="60" fill="black" fill-opacity="0"/>
<circle opacity="0.1" cx="30" cy="30" r="30" fill="#00DCE6"/>
<path fill-rule="evenodd" clip-rule="evenodd" d="M42.7876 21.0803C43.1209 21.2758 43.4241 21.6134 43.6439 22C43.8637 22.3866 44 22.8219 44 23.213V36.787C44 37.1781 43.8635 37.6135 43.6438 38C43.4241 38.3866 43.121 38.7242 42.7876 38.9197L31.2124 45.7067C30.5456 46.0978 29.4544 46.0978 28.7876 45.7067L17.2124 38.9197C16.8791 38.7243 16.5759 38.3866 16.3562 38.0001C16.1364 37.6136 16 37.1781 16 36.787V23.213C16 22.431 16.5455 21.4712 17.2124 21.0803L28.7876 14.2933C29.4544 13.9022 30.5456 13.9022 31.2124 14.2933L42.7876 21.0803ZM20.6667 30C20.6667 35.2267 24.8536 39.4788 30 39.4788C33.321 39.4788 36.4182 37.6638 38.0828 34.742L34.0436 32.3683C33.2104 33.8309 31.661 34.7394 30 34.7394C27.4268 34.7394 25.3333 32.6133 25.3333 30C25.3333 27.3867 27.4268 25.2607 30 25.2607C31.6608 25.2607 33.2102 26.1691 34.0433 27.6315L38.0826 25.2577C36.418 22.3362 33.3208 20.5213 30 20.5213C24.8536 20.5213 20.6667 24.7734 20.6667 30ZM39.3333 29.4734H38.2962V28.4203H37.2593V29.4734H36.2222V30.5266H37.2593V31.5798H38.2962V30.5266H39.3333V29.4734ZM42.1851 29.4734H43.2222V30.5266H42.1851V31.5798H41.1482V30.5266H40.1111V29.4734H41.1482V28.4203H42.1851V29.4734Z" fill="#00DCE6"/>
</svg>
