<svg width="60" height="60" viewBox="0 0 60 60" fill="none" xmlns="http://www.w3.org/2000/svg">
<rect width="60" height="60" fill="black" fill-opacity="0"/>
<circle opacity="0.1" cx="30" cy="30" r="30" fill="#00DCE6"/>
<path d="M38 31V29H40V31H38Z" fill="#00DCE6"/>
<path fill-rule="evenodd" clip-rule="evenodd" d="M43.6439 22C43.4241 21.6134 43.1209 21.2758 42.7876 21.0803L31.2124 14.2933C30.5457 13.9022 29.4543 13.9022 28.7876 14.2933L17.2124 21.0803C16.5455 21.4712 16 22.431 16 23.213V36.787C16 37.1781 16.1364 37.6136 16.3562 38.0001C16.5759 38.3866 16.8791 38.7243 17.2124 38.9197L28.7876 45.7067C29.4543 46.0977 30.5457 46.0977 31.2124 45.7067L42.7876 38.9197C43.121 38.7242 43.4241 38.3866 43.6438 38C43.8635 37.6135 44 37.1781 44 36.787V23.213C44 22.8219 43.8636 22.3866 43.6439 22ZM30 39.4788C24.8536 39.4788 20.6667 35.2266 20.6667 30.0001C20.6667 24.7734 24.8536 20.5213 30 20.5213C33.3209 20.5213 36.418 22.3362 38.0826 25.2577L34.0433 27.6315C33.2102 26.1691 31.6608 25.2607 30 25.2607C27.4268 25.2607 25.3333 27.3867 25.3333 30.0001C25.3333 32.6133 27.4268 34.7394 30 34.7394C31.6609 34.7394 33.2104 33.831 34.0436 32.3683L38.0828 34.742C36.4182 37.6638 33.321 39.4788 30 39.4788ZM37 27H38V28H40V27H41V28H42V29H41V31H42V32H41V33H40V32H38V33H37V32H36V31H37V29H36V28H37V27Z" fill="#00DCE6"/>
</svg>
