<svg width="190" height="50" viewBox="0 0 190 50" fill="none" xmlns="http://www.w3.org/2000/svg">
<path d="M70.3093 16.767L70.0506 15.8325L68.4656 16.2514C66.4278 9.90341 59.8614 10.0001 59.7967 10.0001L59.8291 10.9668C59.8291 10.9668 60.1849 10.9668 60.7348 11.0312L60.6054 18.3137L55.5917 19.6349C55.5917 19.4093 55.5593 19.2482 55.5593 19.1515C55.2359 15.3169 53.6509 13.2869 52.2276 13.2546C51.6131 13.2546 51.0632 13.4802 50.6103 13.9636C50.0928 14.5114 49.5105 15.6714 49.7693 17.9915C49.8663 19.0549 50.1898 20.086 50.6103 20.956L44.5292 22.5672L44.2057 23.2439C44.2381 23.3084 44.9497 24.7906 47.0845 24.8551C48.7342 24.8873 52.9069 24.404 53.0686 24.404L53.3598 23.5984C53.3598 23.5984 52.6481 22.7928 51.9689 21.6005L54.5566 20.9238C54.4919 22.6317 54.1037 24.7584 53.198 26.8529C52.9716 26.7885 52.7128 26.724 52.4864 26.6918C49.1871 26.144 45.9524 27.0785 43.0412 28.3674C43.1059 27.723 43.0412 27.1107 42.7825 26.6274C42.3943 25.7896 41.5856 25.3062 40.5182 25.3062C39.2567 25.3062 38.0275 26.434 36.7337 27.6263C35.3751 28.883 33.9842 30.1397 32.6257 30.1397C29.9409 30.1397 28.7117 29.3986 28.7117 29.3986L28.0001 29.753C28.0001 29.8175 27.9678 31.1386 29.0352 32.202C29.9409 33.1043 31.3641 33.5554 33.2079 33.5232C35.0516 33.491 37.2189 32.3631 39.7419 31.042C40.2918 30.752 40.8417 30.462 41.4239 30.1719C41.3269 30.3008 41.2298 30.4297 41.1328 30.5586C39.5155 32.492 38.1893 32.9109 38.1893 32.9109L37.8658 33.491C37.8658 33.491 38.2539 34.941 37.5423 36.6166C36.9601 38.0345 35.5368 38.7434 35.5368 38.7434L35.1163 38.9689L35.5368 39.839L35.9573 39.6134C36.022 39.5812 37.7041 38.7434 38.4157 37.0033C39.0303 35.5855 38.9656 34.3288 38.8685 33.6843C39.4508 33.3943 40.5829 32.7176 41.8768 31.2031C42.2973 30.6875 42.6207 30.1075 42.8472 29.4953C45.8554 28.1096 49.0577 27.014 52.3894 27.5941C52.5511 27.6263 52.6805 27.6585 52.8422 27.6907C52.26 28.8508 51.4837 29.9786 50.4809 31.0098C49.6076 30.9131 48.7019 30.9131 47.7962 30.9453C45.4025 31.042 42.3943 31.6542 41.1651 33.0721C40.2594 34.1354 40.0654 35.1988 40.6476 35.8755C41.6827 37.0678 44.4968 36.3911 48.3784 33.9421C49.3165 33.3621 50.1575 32.6854 50.8691 32.0087C52.5188 32.202 54.1037 32.6531 55.2359 33.3943C58.6646 35.5855 61.5111 39.3556 61.5434 39.3878L62.4168 39.0012C62.3844 38.9045 61.8022 36.1977 60.3143 33.3298C58.6969 30.2042 56.5944 28.0774 54.2008 27.1429C55.2682 24.5973 55.527 22.1805 55.5593 20.666L60.7995 19.2804L64.6163 25.3062C64.1635 25.6284 63.84 25.8218 63.8077 25.854L64.2929 26.6918C64.3576 26.6596 70.1153 23.3406 68.7244 17.1859L70.3093 16.767ZM42.0385 28.8186C41.1004 29.2697 40.1947 29.753 39.3214 30.2042C36.8954 31.4609 34.8252 32.5243 33.2079 32.5887C31.6229 32.6209 30.4908 32.2665 29.7468 31.5576C29.4234 31.2353 29.2293 30.8809 29.1322 30.5908C29.8439 30.8486 31.0083 31.1064 32.658 31.1064C34.4047 31.1064 35.925 29.6886 37.4453 28.3352C38.5451 27.3041 39.7095 26.2729 40.5829 26.2729C41.2622 26.2729 41.7474 26.5307 41.9738 27.0463C42.2002 27.4974 42.2002 28.1419 42.0385 28.8186ZM47.8932 33.1365C43.9469 35.6177 41.8444 35.7466 41.3916 35.2632C41.1651 35.0055 41.3592 34.361 41.9091 33.7165C42.9118 32.5565 45.6936 31.8798 48.6048 31.8798C48.9283 31.8798 49.2194 31.8798 49.5429 31.912C49.0577 32.3309 48.5078 32.7498 47.8932 33.1365ZM60.8318 37.0355C59.635 35.7144 57.8236 33.9099 55.7858 32.6209C54.7507 31.9442 53.3274 31.4609 51.7101 31.2031C52.6158 30.1719 53.2951 29.1086 53.845 28.0452C57.6942 29.5275 59.8614 34.1999 60.8318 37.0355ZM52.0983 23.5017C50.772 23.6306 48.249 23.8884 47.1169 23.8562C46.3082 23.8239 45.7907 23.5661 45.4996 23.3084L51.0308 21.8583C51.419 22.535 51.8071 23.0828 52.0983 23.5017ZM51.5484 20.6983C51.1602 19.8605 50.8367 18.8937 50.7397 17.8948C50.578 16.3803 50.8044 15.2203 51.3543 14.6403C51.6454 14.318 51.9689 14.2536 52.1953 14.2536C52.1953 14.2536 52.1953 14.2536 52.2276 14.2536C52.9069 14.2536 54.2978 15.7681 54.5889 19.2804C54.6213 19.4738 54.6213 19.6993 54.6213 19.9249L51.5484 20.6983ZM61.7052 11.2246C63.5813 11.6757 66.3954 12.9324 67.5599 16.477L61.5758 18.0559L61.7052 11.2246ZM65.3927 24.6295L61.8345 18.9904L67.8187 17.4115C68.5626 20.8916 66.8159 23.3084 65.3927 24.6295Z" fill="#818592"/>
<path d="M99.9715 38.3571C99.2275 38.9049 96.9632 39.356 94.8284 39.356C90.8174 39.356 83.4424 35.9403 83.4424 27.6267C83.4424 25.7577 83.6041 24.0499 84.251 22.5032C84.898 20.9564 85.6419 19.9253 86.6447 18.733C89.2648 15.6718 92.6935 14.834 96.1546 14.834C99.6803 14.834 103.206 16.8963 104.726 18.8619C104.209 19.313 101.751 21.1176 101.751 21.1176C100.812 20.3442 99.1628 18.5075 96.0252 18.5075C92.7582 18.5075 90.6233 19.8608 89.8146 20.7309C89.0383 21.6009 88.1326 22.7609 87.6798 23.921C87.2593 25.081 87.0328 26.3055 87.0328 27.5945C87.0328 30.3979 90.1058 35.5536 94.8607 35.5536C96.2193 35.5536 97.7395 35.4892 98.3218 35.167L99.9715 38.3571Z" fill="#818592"/>
<path d="M122.193 23.6308C122.226 24.0497 122.258 25.2098 122.258 25.532C122.258 25.532 122.485 25.4353 122.84 25.0486C123.196 24.6942 123.584 24.3397 124.037 24.0819C124.49 23.7919 124.975 23.5986 125.525 23.4375C126.075 23.2764 127.498 23.2119 128.08 23.2119C132.091 23.2119 133.482 26.3698 133.482 29.6888L133.579 39.5814H130.021V30.72C130.021 27.2398 128.048 26.402 126.366 26.402C125.105 26.402 124.005 26.7565 123.326 27.7876C122.582 28.9155 122.485 30.9455 122.485 32.5245V39.5814H119.023V23.5664L122.193 23.6308Z" fill="#818592"/>
<path d="M144.092 26.4661H140.728V34.5219C140.728 35.4886 140.857 35.8109 141.181 36.2298C141.601 36.7776 144.609 36.4231 144.868 36.2942L144.965 39.3877C144.577 39.5166 143.898 39.6132 143.445 39.7099C142.992 39.7743 142.507 39.8388 142.022 39.8388C140.501 39.8388 139.078 39.4199 138.302 38.5821C137.493 37.7443 137.105 36.5198 137.105 34.8442V26.4661H134.97V23.6626H137.105V19.0547H140.728V23.6304H144.092V26.4661Z" fill="#818592"/>
<path d="M156.416 26.8854C155.737 26.2731 154.896 26.112 153.699 26.112C152.793 26.112 151.952 26.3698 151.241 26.8532C150.594 27.2721 150.238 27.8199 149.623 28.561L146.906 26.8209C148.168 24.4042 149.882 23.2119 154.022 23.2119C155.155 23.2119 156.804 23.2441 158.357 24.4042C159.715 25.4031 160.556 26.8854 160.556 29.6566V39.6459H157.031C157.031 39.6459 157.16 38.3247 157.16 37.5836C157.16 37.5836 156.384 38.808 155.478 39.2914C154.605 39.7747 153.537 40.0003 152.308 40.0003C151.694 40.0003 151.014 39.9036 150.335 39.7425C149.656 39.5814 149.009 39.2914 148.459 38.9047C147.909 38.518 147.424 38.0347 147.068 37.3902C146.712 36.778 146.518 36.0046 146.518 35.0701C146.518 33.8456 146.777 32.6212 147.424 31.9122C148.071 31.2033 148.847 30.6877 149.914 30.3011C150.982 29.9466 152.146 29.6566 153.473 29.5599C154.799 29.4633 155.834 29.3666 157.16 29.3666C157.16 29.3666 157.257 27.691 156.416 26.8854ZM155.446 32.2022C154.605 32.2022 152.858 32.4278 152.179 32.6212C151.499 32.8145 150.011 33.5556 150.011 34.8768C150.011 36.6813 152.34 36.8746 152.761 36.8746C154.022 36.8746 155.349 36.4235 156.157 35.5213C156.966 34.6512 157.16 33.459 157.16 32.75V32.17C157.128 32.2022 156.481 32.2022 155.446 32.2022Z" fill="#818592"/>
<path d="M173.851 39.5815V37.3903C173.398 38.0992 173.01 38.5181 172.039 39.0981C171.069 39.6781 170.034 40.0004 168.837 40.0004C165.958 40.0004 164.697 38.7759 164.212 38.1636C163.726 37.5836 162.853 36.3269 162.853 33.5234V23.6309H166.476V32.4279C166.476 33.0723 166.508 34.329 166.702 34.8124C166.929 35.3924 167.64 36.6491 169.84 36.6491C172.719 36.6491 173.657 33.6523 173.657 32.0734L173.624 23.5986H177.15L177.28 39.5492H173.851V39.5815Z" fill="#818592"/>
<path d="M179.867 23.6308H183.134C183.134 23.6308 183.167 25.8865 183.167 26.2087C183.167 26.2087 184.234 24.6297 185.075 24.0497C185.916 23.4697 186.919 23.1797 187.986 23.1797C188.471 23.1797 188.924 23.2441 189.409 23.2119L189.506 26.7243C189.506 26.7243 188.407 26.6598 187.663 26.6598C186.886 26.6598 185.819 26.8532 184.978 27.4976C183.943 28.271 183.361 29.7855 183.361 31.2355L183.393 39.5492H179.997C179.997 39.5814 179.9 24.1464 179.867 23.6308Z" fill="#818592"/>
<path d="M82.6659 29.9139C82.6659 29.9139 82.7306 30.7517 82.8923 31.3317C83.0217 31.9117 83.5393 32.6851 83.5393 32.6851H76.0672V34.393L73.3501 31.2673L75.9702 28.2061V29.9139H82.6659Z" fill="#818592"/>
<path d="M116.986 28.0132C116.63 26.9821 116.112 26.112 115.433 25.4031C114.754 24.6942 113.945 24.1464 113.007 23.7597C112.037 23.373 110.969 23.1797 109.805 23.1797C108.64 23.1797 107.314 23.4053 106.279 23.8242C105.276 24.2431 104.565 24.6942 103.821 25.4353C103.077 26.1765 102.559 27.1754 102.139 28.2065C101.912 28.7866 101.75 29.3988 101.653 30.0433H88.7148C88.7148 30.0433 88.8442 30.6233 89.1353 31.2355C89.4265 31.88 90.1381 32.5889 90.1381 32.5889H101.556C101.653 33.459 101.848 34.2968 102.139 35.0379C102.559 36.0691 103.141 36.9391 103.885 37.6802C104.629 38.4214 105.503 38.9692 106.538 39.3881C107.573 39.807 108.705 40.0003 109.902 40.0003C111.325 40.0003 112.651 39.6459 113.751 39.1947C114.56 38.8725 115.659 37.9702 116.209 37.4547L114.592 34.7479C113.654 35.9402 111.293 36.8746 109.869 36.8746C107.088 36.8746 104.953 34.8768 104.92 32.5889H117.05L116.953 32.5245H117.374C117.406 32.3311 117.406 32.17 117.406 31.9767C117.406 31.7833 117.406 31.6222 117.406 31.4289C117.503 30.2044 117.342 29.0443 116.986 28.0132ZM105.115 29.9788C105.115 28.2388 107.185 26.0476 109.643 26.0476C112.134 26.0476 113.686 28.2388 113.686 30.0755L105.115 29.9788Z" fill="#818592"/>
</svg>
