<svg width="70" height="46" viewBox="0 0 70 46" fill="none" xmlns="http://www.w3.org/2000/svg">
<path d="M37 35.2416C34.3067 37.272 32.2866 38.5211 32.03 38.6797L31.5 39L30.97 38.6797C30.1123 38.1556 10 25.7121 10 12.531C10 6.17344 15.1365 1 21.4487 1C25.6986 1 29.5341 3.37803 31.5 7.01788C33.4756 3.37803 37.3111 1 41.5513 1C47.8635 1 53 6.17344 53 12.531C53 15.7887 51.7709 19.0013 49.9075 22" stroke="#1F2432" stroke-miterlimit="10" stroke-linecap="round"/>
<path d="M14.1484 10.5C15.4371 7.83472 17.7161 5.74073 20.5 4.70703" stroke="#1F2432" stroke-miterlimit="10"/>
<line x1="42" y1="33.5" x2="55" y2="33.5" stroke="#1F2432"/>
<line x1="48.5" y1="27" x2="48.5" y2="40" stroke="#1F2432"/>
<circle cx="48.5" cy="33.5" r="11.5" stroke="#1F2432" stroke-miterlimit="10" stroke-linecap="round"/>
</svg>
