<svg width="370" height="145" viewBox="0 0 370 145" fill="none" xmlns="http://www.w3.org/2000/svg">
<rect x="0.5" y="0.5" width="369" height="144" stroke="#DEDEE0"/>
<g clip-path="url(#clip0)">
<path d="M166.84 52.404C166.351 52.8917 166.02 53.3771 165.66 53.8347C163.369 56.7471 161.076 59.6578 158.808 62.5876C158.474 63.0183 157.932 63 157.611 62.586C155.251 59.5436 152.866 56.521 150.49 53.4921C150.288 53.2336 150.087 52.9734 149.881 52.7172C149.82 52.6411 149.773 52.5023 149.65 52.5539C149.534 52.6022 149.581 52.7394 149.58 52.8378C149.575 53.2605 149.576 53.6833 149.576 54.1068C149.577 60.4248 149.574 66.7428 149.586 73.06C149.587 73.4534 149.467 73.5493 149.099 73.5406C148.095 73.5168 147.09 73.5255 146.085 73.5374C145.815 73.5406 145.696 73.493 145.696 73.1726C145.706 64.3832 145.707 55.5939 145.697 46.8045C145.696 46.4254 145.817 46.339 146.161 46.3461C147.099 46.3659 148.039 46.3643 148.978 46.3493C149.241 46.3453 149.405 46.4349 149.569 46.6403C152.331 50.1174 155.099 53.5889 157.869 57.0604C158.216 57.4958 158.218 57.4886 158.559 57.0604C161.356 53.5595 164.154 50.0611 166.949 46.5595C167.055 46.427 167.171 46.3509 167.345 46.3517C168.376 46.3564 169.407 46.3588 170.438 46.3509C170.659 46.3493 170.748 46.431 170.726 46.653C170.716 46.7577 170.725 46.864 170.725 46.9703C170.725 55.6542 170.725 64.338 170.725 73.0219C170.725 73.5358 170.725 73.5335 170.207 73.5327C169.228 73.5311 168.25 73.5168 167.272 73.5406C166.923 73.5493 166.833 73.4438 166.834 73.0965C166.844 66.7261 166.841 60.355 166.841 53.9846C166.84 53.4905 166.84 52.9948 166.84 52.404Z" fill="#818592"/>
<path d="M210.113 72.3144C209.701 71.9948 209.329 71.7552 209.028 71.4237C208.157 70.4632 208.26 69.2212 209.27 68.413C209.825 67.9697 210.466 67.7262 211.155 67.4938C210.918 67.2527 210.625 67.1694 210.367 67.033C206.513 64.9947 206.758 60.2185 208.583 58.085C209.487 57.0278 210.64 56.4012 211.944 56.0276C212.943 55.7421 213.965 55.6366 215.001 55.6382C217.296 55.6414 219.592 55.6462 221.887 55.6319C222.23 55.6295 222.348 55.7263 222.334 56.0784C222.311 56.7248 222.313 57.3736 222.336 58.02C222.348 58.3451 222.226 58.4189 221.928 58.4134C221.042 58.3951 220.154 58.4038 219.267 58.4078C219.144 58.4086 218.97 58.3388 218.909 58.472C218.844 58.6124 219.017 58.6902 219.101 58.7798C220.167 59.91 220.752 61.2329 220.523 62.8096C220.196 65.0716 218.976 67.0449 216.487 67.7436C215.454 68.0339 214.391 68.1608 213.349 68.4003C213.055 68.4677 212.768 68.551 212.495 68.6811C212.096 68.8714 211.791 69.1395 211.765 69.6233C211.739 70.1016 212.044 70.3768 212.398 70.5941C212.902 70.905 213.462 71.0906 214.024 71.2611C215.238 71.6283 216.487 71.8369 217.717 72.1328C219.017 72.4452 220.24 72.9457 221.156 73.976C222.635 75.6384 222.614 78.4634 221.155 80.1718C220.096 81.4107 218.705 82.0436 217.171 82.3561C214.49 82.9018 211.825 82.8938 209.251 81.816C207.946 81.2695 206.85 80.4486 206.189 79.1233C205.133 77.0073 205.953 74.2996 208.006 73.1456C208.648 72.7847 209.345 72.5721 210.113 72.3144ZM214.005 79.807C214.356 79.807 214.71 79.8324 215.059 79.8022C216.026 79.719 216.97 79.5357 217.815 79.0099C218.601 78.5206 218.995 77.6973 218.802 76.8621C218.626 76.0952 218.098 75.6122 217.424 75.2902C215.725 74.4772 213.926 74.3035 212.081 74.4883C211.508 74.5462 210.96 74.7263 210.454 75.0173C209.603 75.5059 209.045 76.1848 209.093 77.2389C209.14 78.2414 209.713 78.856 210.564 79.2534C211.658 79.7626 212.827 79.8316 214.005 79.807ZM214.014 58.7092C213.794 58.7338 213.573 58.7473 213.355 58.7869C213.151 58.8234 212.946 58.8718 212.75 58.9408C210.868 59.6054 209.972 61.5795 210.789 63.341C211.427 64.7163 212.624 65.1906 214.032 65.1906C216.202 65.1906 217.685 63.437 217.334 61.3312C217.096 59.902 215.607 58.733 214.014 58.7092Z" fill="#818592"/>
<path d="M111.226 66.5369C111.602 66.9724 111.959 67.4022 112.361 67.7885C114.075 69.4326 116.053 70.4462 118.467 70.3852C119.704 70.3534 120.837 69.9981 121.722 69.0662C122.781 67.9495 122.897 66.3767 122.051 64.9729C121.386 63.8713 120.396 63.1202 119.365 62.4159C117.896 61.411 116.323 60.5719 114.873 59.5337C113.629 58.6422 112.502 57.6349 111.744 56.2613C110.297 53.636 110.746 48.698 115.012 46.8596C118.075 45.5398 121.107 45.7857 124.082 47.2823C124.868 47.6773 125.237 48.1341 125.137 49.0613C125.04 49.9758 125.116 50.9093 125.113 51.834C125.112 51.9594 125.18 52.1354 125.06 52.1989C124.922 52.2719 124.846 52.091 124.755 52.0093C123.417 50.8181 121.915 49.952 120.141 49.6379C118.911 49.4198 117.701 49.4729 116.534 49.9813C114.54 50.8506 113.973 53.0634 115.303 54.8003C115.905 55.5871 116.695 56.1463 117.515 56.6665C119.039 57.6349 120.667 58.4281 122.144 59.475C123.675 60.56 124.994 61.8329 125.672 63.6524C127.052 67.357 125.685 71.8707 121.479 73.4101C119.838 74.0105 118.152 73.9772 116.458 73.7131C114.618 73.426 112.96 72.6939 111.452 71.5971C111.29 71.4781 111.167 71.3647 111.168 71.1236C111.18 69.6301 111.174 68.1367 111.175 66.6432C111.175 66.621 111.195 66.5996 111.226 66.5369Z" fill="#818592"/>
<path d="M222.776 64.2126C222.794 59.5055 226.543 55.5589 231.395 55.3051C233.809 55.179 236.079 55.6366 238.06 57.1015C240.879 59.1866 241.919 62.0807 241.622 65.5244C241.465 67.3383 240.881 69.0078 239.753 70.4465C238.529 72.0082 236.946 73.0289 235.039 73.5175C232.836 74.0822 230.642 74.0806 228.506 73.2383C225.61 72.0954 223.829 69.9358 223.064 66.8997C222.857 66.0765 222.797 65.2334 222.776 64.2126ZM226.406 64.4513C226.406 64.6496 226.394 64.8479 226.407 65.0454C226.615 68.1132 228.564 70.4973 231.647 70.6647C233.447 70.7622 235.093 70.3641 236.419 69.0316C237.452 67.9942 237.877 66.6895 238.04 65.2627C238.399 62.1275 236.708 59.511 233.746 58.7068C232.075 58.2531 230.451 58.4173 228.975 59.3762C227.16 60.5532 226.413 62.321 226.406 64.4513Z" fill="#818592"/>
<path d="M184.75 71.3979C184.283 71.8794 183.766 72.2934 183.222 72.678C181.128 74.1588 178.395 74.2984 176.36 72.9945C174.985 72.1141 174.212 70.8015 173.813 69.2359C173.607 68.4253 173.524 67.5989 173.524 66.763C173.524 63.2074 173.528 59.6518 173.517 56.0971C173.515 55.7322 173.614 55.6204 173.978 55.6315C174.839 55.6585 175.701 55.6593 176.561 55.6299C176.957 55.6164 177.067 55.7338 177.065 56.1391C177.05 59.774 177.059 63.4081 177.058 67.0429C177.058 67.8606 177.181 68.649 177.587 69.3707C178.192 70.4486 179.186 70.8531 180.332 70.9149C182.266 71.0188 183.65 70.0274 184.762 68.5364C184.876 68.3825 184.849 68.2096 184.849 68.0407C184.851 64.0759 184.85 60.1103 184.85 56.1455C184.85 55.6402 184.848 55.6387 185.362 55.6387C186.236 55.6379 187.11 55.6505 187.984 55.6347C188.263 55.6299 188.373 55.691 188.373 56.0011C188.365 61.7243 188.366 67.4474 188.374 73.1698C188.375 73.4831 188.256 73.5425 187.982 73.5386C187.056 73.5259 186.13 73.5251 185.204 73.5402C184.933 73.5449 184.835 73.464 184.843 73.1841C184.859 72.6067 184.848 72.0277 184.848 71.4503C184.814 71.4328 184.782 71.4154 184.75 71.3979Z" fill="#818592"/>
<path d="M194.39 57.8849C195.128 57.1409 195.865 56.47 196.768 56.0274C198.946 54.9614 201.105 54.9416 203.158 56.3264C204.474 57.2139 205.146 58.563 205.492 60.0921C205.682 60.9336 205.744 61.7886 205.744 62.65C205.743 66.1381 205.74 69.627 205.753 73.1152C205.753 73.4451 205.666 73.5506 205.339 73.5427C204.453 73.5228 203.565 73.5189 202.679 73.5411C202.321 73.5498 202.215 73.4412 202.217 73.0716C202.231 69.5961 202.223 66.1207 202.227 62.646C202.228 61.6958 202.107 60.7711 201.672 59.9177C200.74 58.0895 198.821 57.7857 197.195 58.444C196.253 58.8255 195.545 59.529 194.822 60.2206C194.462 60.5648 194.379 60.9384 194.381 61.4119C194.396 65.3101 194.385 69.2083 194.399 73.1065C194.401 73.4657 194.296 73.5506 193.957 73.5419C193.057 73.5181 192.157 73.5244 191.257 73.5403C190.962 73.5458 190.852 73.4761 190.852 73.1461C190.861 67.4642 190.86 61.7823 190.85 56.0996C190.849 55.7498 190.923 55.6181 191.302 55.6316C192.201 55.6626 193.102 55.6538 194.001 55.6293C194.325 55.6205 194.404 55.7371 194.396 56.0369C194.378 56.6532 194.39 57.2694 194.39 57.8849Z" fill="#818592"/>
<path d="M247.009 70.3751C247.008 69.8469 247.005 69.3179 247.012 68.7897C247.014 68.6953 246.948 68.5612 247.079 68.5105C247.172 68.4748 247.244 68.5668 247.318 68.6168C248.266 69.2528 249.254 69.8175 250.322 70.2189C251.392 70.621 252.474 70.9374 253.641 70.6376C254.558 70.4021 255.201 69.8191 255.339 69.0371C255.422 68.57 255.289 68.1813 254.979 67.8371C254.481 67.2835 253.868 66.8838 253.239 66.5063C251.883 65.6933 250.465 64.9771 249.236 63.9627C248.344 63.2275 247.559 62.3947 247.271 61.2233C246.796 59.292 247.453 57.13 249.451 56.0696C251.085 55.2027 252.823 55.1337 254.596 55.4335C255.75 55.6286 256.825 56.0696 257.868 56.5978C258.08 56.7057 258.137 56.8357 258.134 57.0578C258.126 57.9961 258.133 58.9343 258.132 59.8726C258.132 59.9741 258.177 60.1145 258.083 60.1676C257.968 60.2319 257.869 60.1121 257.772 60.0518C256.458 59.2381 255.075 58.6076 253.525 58.4331C252.881 58.3609 252.245 58.3958 251.651 58.6908C250.58 59.2238 250.428 60.2216 251.293 61.0528C252.199 61.9228 253.275 62.5502 254.337 63.1958C255.469 63.8834 256.539 64.6496 257.524 65.5442C259.588 67.4183 259.251 70.0269 257.948 71.7591C256.919 73.1272 255.461 73.7252 253.81 73.8625C251.495 74.0536 249.338 73.4762 247.286 72.4206C247.091 72.3198 246.995 72.1985 247.004 71.9613C247.022 71.4331 247.01 70.9041 247.009 70.3751Z" fill="#818592"/>
<path d="M138.534 69.4012C138.534 70.4839 138.532 71.4856 138.536 72.4881C138.536 72.638 138.479 72.7324 138.343 72.7966C136.458 73.6857 134.514 74.2036 132.43 73.6706C130.082 73.071 128.609 71.2246 128.569 68.716C128.52 65.6498 128.556 62.5828 128.549 59.5166C128.548 58.7544 128.652 58.8488 127.884 58.844C127.232 58.8401 126.579 58.8512 125.927 58.8401C125.776 58.8377 125.567 58.9495 125.483 58.7195C125.408 58.5133 125.538 58.3777 125.676 58.2428C126.398 57.537 127.115 56.8255 127.834 56.1157C129.169 54.7959 130.503 53.4762 131.837 52.1572C131.88 52.1144 131.929 52.0779 132.033 51.9883C132.033 53.0289 132.029 54.002 132.035 54.9752C132.039 55.7469 131.928 55.6525 132.69 55.6549C134.217 55.6588 135.743 55.6628 137.27 55.6509C137.536 55.6485 137.635 55.7128 137.629 55.9999C137.612 56.8327 137.614 57.6654 137.63 58.4982C137.635 58.775 137.549 58.8543 137.275 58.8527C135.67 58.8401 134.065 58.8567 132.461 58.8385C132.115 58.8345 132.023 58.9328 132.025 59.2818C132.039 62.1371 132.029 64.9923 132.035 67.8475C132.036 68.1624 132.052 68.4868 132.123 68.7913C132.43 70.1055 133.494 70.8146 134.926 70.6988C136.082 70.6052 137.129 70.1896 138.132 69.6281C138.243 69.5638 138.355 69.5012 138.534 69.4012Z" fill="#818592"/>
<path d="M247.53 49.3157C247.516 52.577 246.049 54.7375 243.549 55.6464C243.394 55.7027 243.159 55.8994 243.067 55.6979C242.963 55.4695 242.924 55.1554 243.154 54.9231C243.523 54.5503 243.883 54.1743 244.143 53.7056C244.612 52.8594 244.637 51.9441 244.599 51.0138C244.592 50.8528 244.508 50.8028 244.361 50.7623C242.618 50.2849 241.926 48.3457 242.969 46.8792C243.744 45.7887 245.612 45.703 246.523 46.7214C247.307 47.5962 247.527 48.6637 247.53 49.3157Z" fill="#818592"/>
<path d="M114.568 93.9689C115.706 94.9492 116.2 96.3729 117.205 97.5658C116.728 97.5658 116.381 97.561 116.034 97.5673C115.839 97.5713 115.775 97.4277 115.686 97.2953C115.169 96.5188 114.724 95.6924 114.128 94.9691C113.779 94.5455 113.371 94.2584 112.792 94.2679C112.54 94.2719 112.448 94.3433 112.452 94.605C112.464 95.437 112.442 96.2698 112.464 97.1018C112.473 97.4452 112.404 97.5927 112.022 97.5753C111.351 97.5443 111.35 97.5689 111.35 96.871C111.35 94.7042 111.359 92.5373 111.34 90.3705C111.337 90.0033 111.451 89.924 111.782 89.943C112.51 89.9851 113.244 89.8947 113.969 90.0239C115.572 90.3087 116.29 92.1535 115.287 93.3979C115.092 93.6382 114.816 93.7667 114.568 93.9689ZM112.449 92.1471C112.509 92.4596 112.258 93.0561 112.547 93.2171C112.943 93.4368 113.508 93.3194 113.977 93.114C114.025 93.0933 114.07 93.0656 114.113 93.037C114.365 92.8697 114.518 92.6412 114.565 92.3343C114.701 91.4524 114.252 90.9662 113.246 90.9178C112.448 90.8789 112.449 90.8789 112.449 91.6673C112.449 91.7982 112.449 91.9298 112.449 92.1471Z" fill="#818592"/>
<path d="M154.818 82.5946C154.818 81.8816 154.829 81.1678 154.812 80.4548C154.806 80.1811 154.88 80.0622 155.161 80.101C155.289 80.1185 155.422 80.1074 155.552 80.1018C155.717 80.0947 155.832 80.1264 155.822 80.335C155.806 80.6657 155.936 80.6054 156.134 80.4619C156.911 79.8972 157.541 79.8528 158.19 80.3001C158.265 80.3516 158.357 80.4008 158.399 80.4754C158.613 80.8561 158.791 80.8339 159.102 80.5309C159.638 80.009 160.304 79.8361 161.015 80.1431C161.693 80.4357 161.963 81.0321 161.986 81.7325C162.02 82.7746 162.007 83.8192 162.021 84.8621C162.023 85.043 161.967 85.1112 161.776 85.1254C160.992 85.1826 160.993 85.1905 160.993 84.4188C160.993 83.6391 160.995 82.8595 160.993 82.0807C160.991 81.4501 160.766 81.0742 160.305 80.9203C159.894 80.7831 159.294 81.0155 158.989 81.42C158.899 81.5389 158.919 81.6698 158.918 81.7983C158.916 82.7762 158.904 83.7541 158.925 84.7313C158.932 85.0517 158.833 85.1659 158.529 85.1247C158.427 85.1112 158.319 85.112 158.217 85.1239C157.972 85.1532 157.908 85.0461 157.911 84.8074C157.924 83.9492 157.916 83.0903 157.915 82.2313C157.915 82.152 157.915 82.0727 157.912 81.9934C157.887 81.4025 157.673 81.0282 157.289 80.9068C156.84 80.7649 156.181 81.0099 155.892 81.4144C155.806 81.5358 155.819 81.6611 155.818 81.792C155.818 82.7699 155.805 83.7478 155.825 84.7249C155.831 85.0366 155.749 85.1683 155.436 85.1223C155.347 85.1096 155.253 85.1112 155.163 85.1231C154.893 85.1596 154.802 85.0549 154.809 84.7733C154.827 84.0468 154.815 83.3203 154.815 82.5938C154.817 82.5946 154.817 82.5946 154.818 82.5946Z" fill="#818592"/>
<path d="M136.075 84.7542C135.492 84.1593 135.568 83.8143 136.322 83.4289C136.304 83.3956 136.296 83.3504 136.268 83.3313C135.491 82.7983 135.238 82.2336 135.421 81.4302C135.576 80.7457 136.125 80.2667 136.949 80.1557C137.753 80.047 138.564 80.1184 139.372 80.1001C139.632 80.0946 139.594 80.2873 139.571 80.4309C139.545 80.595 139.718 80.8576 139.381 80.8956C139.164 80.9202 138.853 80.7878 138.753 80.9504C138.647 81.1241 138.95 81.3033 139.019 81.5167C139.276 82.313 138.798 83.2385 137.966 83.4915C137.692 83.5748 137.407 83.6192 137.126 83.6787C136.921 83.7223 136.673 83.7469 136.654 84.0071C136.633 84.2728 136.892 84.3346 137.08 84.3981C137.389 84.5012 137.71 84.5654 138.024 84.6511C138.263 84.7161 138.507 84.77 138.734 84.866C139.215 85.069 139.522 85.4252 139.555 85.9724C139.588 86.5339 139.386 87.0066 138.894 87.2716C137.861 87.8267 136.787 87.8307 135.733 87.3374C135.195 87.0852 134.904 86.6371 134.948 85.9986C134.989 85.4053 135.324 85.0683 135.839 84.866C135.907 84.8406 135.972 84.8041 136.075 84.7542ZM137.286 86.8694C137.605 86.8488 137.987 86.8456 138.315 86.6212C138.673 86.3753 138.701 85.9296 138.337 85.7091C137.705 85.3268 137.018 85.2427 136.319 85.5092C136.046 85.6131 135.881 85.8328 135.89 86.1493C135.9 86.4578 136.095 86.622 136.35 86.7243C136.63 86.8377 136.928 86.8694 137.286 86.8694ZM137.255 81.0011C136.693 80.9987 136.279 81.3866 136.286 81.9077C136.292 82.4208 136.686 82.7745 137.248 82.7714C137.784 82.7682 138.182 82.3835 138.179 81.8688C138.178 81.389 137.767 81.0027 137.255 81.0011Z" fill="#818592"/>
<path d="M155.238 93.3335C155.704 93.8855 155.812 94.3939 155.599 94.9705C155.397 95.513 155.019 95.8358 154.474 95.9683C154.195 96.0357 153.911 96.0809 153.631 96.1459C153.464 96.1848 153.287 96.2427 153.273 96.4545C153.26 96.6702 153.444 96.736 153.596 96.8034C153.945 96.9573 154.319 97.0239 154.689 97.1032C154.958 97.1611 155.224 97.2293 155.468 97.3594C156.331 97.8218 156.439 98.9925 155.677 99.6103C154.839 100.289 152.924 100.29 152.087 99.6119C151.252 98.9353 151.41 97.7639 152.388 97.3348C152.482 97.2936 152.774 97.3356 152.56 97.0548C152.17 96.5441 152.253 96.2284 152.826 95.9461C152.871 95.9239 152.917 95.904 152.966 95.8818C152.914 95.7303 152.769 95.7057 152.668 95.6328C151.676 94.911 151.777 93.4088 152.859 92.8322C153.2 92.6498 153.567 92.5642 153.949 92.5586C154.601 92.5491 155.254 92.5729 155.905 92.5475C156.263 92.5332 156.185 92.7593 156.191 92.9592C156.197 93.1582 156.239 93.3732 155.915 93.3383C155.726 93.3168 155.534 93.3335 155.238 93.3335ZM153.833 99.3121C154.176 99.3248 154.499 99.2788 154.799 99.1479C155.289 98.933 155.367 98.3992 154.929 98.1319C154.309 97.7536 153.628 97.6925 152.946 97.9479C152.68 98.0478 152.492 98.2739 152.509 98.588C152.527 98.8989 152.726 99.0813 153.007 99.1796C153.279 99.2756 153.558 99.3272 153.833 99.3121ZM153.858 95.214C154.402 95.2148 154.791 94.8444 154.796 94.3225C154.801 93.8229 154.382 93.4342 153.847 93.4406C153.325 93.4469 152.891 93.8586 152.898 94.3384C152.906 94.8452 153.309 95.2132 153.858 95.214Z" fill="#818592"/>
<path d="M111.348 81.3067C111.348 80.1836 111.359 79.0606 111.341 77.9375C111.336 77.621 111.401 77.5037 111.742 77.51C112.915 77.5322 114.09 77.529 115.263 77.5116C115.557 77.5068 115.647 77.5885 115.635 77.8867C115.605 78.6434 115.725 78.5252 114.984 78.5316C114.253 78.5379 113.523 78.5403 112.792 78.5268C112.548 78.522 112.439 78.5799 112.448 78.8536C112.467 79.3945 112.465 79.937 112.45 80.4787C112.444 80.7206 112.52 80.7967 112.76 80.7927C113.555 80.7793 114.351 80.7999 115.147 80.7801C115.435 80.7729 115.567 80.8483 115.514 81.152C115.509 81.1774 115.513 81.2052 115.513 81.2313C115.5 81.8524 115.608 81.7802 114.979 81.7826C114.249 81.7857 113.518 81.7929 112.788 81.7778C112.533 81.7723 112.443 81.85 112.45 82.1133C112.465 82.6812 112.465 83.2498 112.45 83.8177C112.443 84.0676 112.538 84.1326 112.767 84.1302C113.628 84.1215 114.489 84.1413 115.349 84.1207C115.662 84.1136 115.779 84.2127 115.734 84.5228C115.719 84.6267 115.722 84.7346 115.732 84.8393C115.751 85.0375 115.685 85.1256 115.473 85.1248C114.182 85.1184 112.89 85.1176 111.599 85.1256C111.342 85.1272 111.343 84.9828 111.344 84.7948C111.35 83.6321 111.348 82.4694 111.348 81.3067Z" fill="#818592"/>
<path d="M124.015 92.8592C124.343 92.6966 124.593 92.5562 124.877 92.4975C126.252 92.2128 127.407 93.1836 127.506 94.7087C127.626 96.5591 126.595 97.6679 124.764 97.6584C124.251 97.656 123.755 97.5679 123.27 97.3934C123.085 97.3268 123.011 97.2301 123.012 97.0207C123.02 94.7761 123.021 92.5316 123.013 90.2871C123.012 90.0317 123.077 89.9452 123.337 89.9445C124.015 89.9437 124.015 89.931 124.014 90.6337C124.015 91.3546 124.015 92.0764 124.015 92.8592ZM124.015 95.1775C124.015 95.5598 124.02 95.9428 124.013 96.3251C124.01 96.4774 124.049 96.5805 124.21 96.609C124.581 96.6765 124.952 96.7629 125.331 96.6717C126.34 96.429 126.805 95.191 126.286 94.1282C125.917 93.3692 125.077 93.1407 124.37 93.5928C124.117 93.7546 123.974 93.9402 124.008 94.267C124.04 94.5676 124.015 94.8737 124.015 95.1775Z" fill="#818592"/>
<path d="M143.071 93.7674C143.071 94.9159 143.064 96.0643 143.076 97.2119C143.079 97.48 143.015 97.5847 142.73 97.5728C142.183 97.5498 141.635 97.553 141.089 97.5657C139.471 97.6053 138.479 96.4846 138.603 94.7334C138.719 93.1052 140.076 92.1558 141.684 92.5325C142.004 92.6071 142.091 92.5555 142.078 92.2184C142.055 91.5728 142.085 90.9249 142.067 90.2785C142.06 90.0136 142.143 89.943 142.399 89.9454C143.07 89.9501 143.071 89.9374 143.071 90.5997C143.072 91.6553 143.072 92.711 143.071 93.7674ZM142.078 95.1181C142.079 95.1181 142.079 95.1181 142.08 95.1181C142.08 94.8151 142.081 94.5114 142.08 94.2084C142.077 93.4486 142.004 93.3748 141.235 93.3748C141.08 93.3748 140.921 93.3828 140.772 93.42C139.827 93.6532 139.356 94.739 139.716 95.8248C139.846 96.2134 140.096 96.4775 140.478 96.6107C140.946 96.7741 141.432 96.7012 141.911 96.7115C142.085 96.7154 142.078 96.5838 142.078 96.4632C142.078 96.0151 142.078 95.5662 142.078 95.1181Z" fill="#818592"/>
<path d="M126.451 81.3479C126.451 82.4963 126.443 83.644 126.457 84.7916C126.461 85.0565 126.377 85.1326 126.125 85.1263C125.539 85.1112 124.953 85.1239 124.366 85.1207C122.793 85.112 121.849 83.9668 121.979 82.229C122.085 80.8014 123.346 79.81 124.774 80.0297C125.458 80.1352 125.458 80.1352 125.458 79.4222C125.458 78.9074 125.469 78.3927 125.453 77.8788C125.445 77.6194 125.498 77.5044 125.791 77.51C126.452 77.5234 126.452 77.506 126.451 78.1809C126.451 78.7092 126.451 79.2366 126.451 79.7648C126.451 80.293 126.451 80.8204 126.451 81.3479ZM125.464 82.7073C125.464 82.2592 125.463 81.8111 125.465 81.3629C125.466 81.2249 125.448 81.1163 125.3 81.0425C124.551 80.6729 123.552 81.0108 123.176 81.7651C122.96 82.1989 122.951 82.6565 123.03 83.1165C123.158 83.8533 123.611 84.238 124.355 84.2602C124.628 84.2689 124.902 84.2499 125.174 84.2642C125.394 84.2761 125.476 84.1991 125.469 83.9723C125.455 83.5512 125.465 83.1292 125.464 82.7073Z" fill="#818592"/>
<path d="M144.392 80.6184C144.596 80.4781 144.783 80.3155 144.997 80.206C146.168 79.6096 147.385 80.3258 147.471 81.7114C147.537 82.7638 147.488 83.8242 147.495 84.8807C147.495 85.0448 147.441 85.1059 147.271 85.1234C146.505 85.2019 146.489 85.1939 146.489 84.4191C146.489 83.6394 146.494 82.8598 146.487 82.081C146.482 81.4163 146.24 80.9952 145.808 80.8635C145.35 80.7247 144.72 80.988 144.402 81.4449C144.312 81.5757 144.323 81.7193 144.323 81.8636C144.323 82.8146 144.315 83.7663 144.33 84.7173C144.335 85.0099 144.283 85.1416 143.95 85.1297C143.307 85.1067 143.306 85.1281 143.306 84.4809C143.306 82.3014 143.315 80.1212 143.297 77.9417C143.294 77.5816 143.397 77.4943 143.735 77.5094C144.321 77.5364 144.322 77.5158 144.323 78.0931C144.324 78.8062 144.32 79.52 144.326 80.233C144.329 80.3567 144.278 80.4947 144.392 80.6184Z" fill="#818592"/>
<path d="M151.124 85.2152C149.588 85.2073 148.517 84.1128 148.521 82.5583C148.524 81.1092 149.694 79.9719 151.153 79.9965C152.737 80.0227 153.83 81.1116 153.815 82.6471C153.801 84.1612 152.687 85.224 151.124 85.2152ZM151.127 80.9308C150.21 80.9292 149.551 81.6073 149.537 82.5678C149.523 83.5711 150.193 84.3135 151.114 84.3135C152.124 84.3142 152.799 83.6211 152.796 82.5876C152.795 81.6271 152.096 80.9332 151.127 80.9308Z" fill="#818592"/>
<path d="M192.607 82.7826C192.125 82.7826 191.642 82.7874 191.16 82.7802C190.928 82.777 190.869 82.8579 190.928 83.0903C191.121 83.8565 191.77 84.3117 192.616 84.2546C193.108 84.2213 193.56 84.0603 193.975 83.7994C194.186 83.6669 194.229 83.7224 194.238 83.9548C194.262 84.6536 194.234 84.7257 193.602 84.9795C192.917 85.2548 192.205 85.3166 191.494 85.1088C190.425 84.7955 189.768 83.6249 189.863 82.252C189.945 81.0623 190.71 80.2002 191.835 80.0305C193.087 79.8417 193.995 80.5389 194.249 81.8832C194.419 82.7834 194.419 82.7834 193.547 82.7834C193.234 82.7826 192.92 82.7818 192.607 82.7826ZM192.068 82.11C192.379 82.11 192.692 82.0934 193.001 82.1148C193.317 82.1362 193.346 81.9863 193.281 81.7325C193.14 81.1924 192.682 80.8569 192.116 80.8894C191.515 80.9235 191.008 81.3589 190.923 81.8911C190.89 82.0902 190.98 82.1124 191.134 82.1108C191.446 82.1069 191.756 82.11 192.068 82.11Z" fill="#818592"/>
<path d="M175.09 83.642C175.09 83.9854 175.088 84.2328 175.091 84.4803C175.092 84.5842 175.046 84.6524 174.966 84.7095C174.137 85.3012 172.431 85.4971 171.535 84.6326C170.574 83.7038 170.406 81.8543 171.252 80.828C171.873 80.0753 172.693 79.8603 173.614 80.0816C174.555 80.3069 174.944 81.0365 175.108 81.9169C175.268 82.7767 175.252 82.7806 174.407 82.7822C173.625 82.7838 172.843 82.7941 172.062 82.7782C171.757 82.7719 171.708 82.8774 171.792 83.151C172.026 83.9164 172.705 84.3423 173.564 84.2455C174.092 84.1868 174.568 83.9814 175.09 83.642ZM172.978 82.1096C172.978 82.1104 172.978 82.1104 172.978 82.1112C173.29 82.1112 173.603 82.1001 173.916 82.1144C174.162 82.1263 174.198 82.0248 174.15 81.8059C174.025 81.238 173.616 80.893 173.039 80.889C172.416 80.8859 171.898 81.2935 171.781 81.8677C171.747 82.0375 171.777 82.1152 171.963 82.1112C172.301 82.1041 172.64 82.1096 172.978 82.1096Z" fill="#818592"/>
<path d="M165.844 82.7827C165.362 82.7827 164.879 82.7954 164.398 82.7779C164.102 82.7668 164.078 82.8811 164.153 83.1317C164.381 83.8836 165.011 84.3134 165.832 84.2555C166.31 84.2214 166.75 84.0652 167.157 83.8177C167.372 83.6869 167.463 83.6623 167.463 83.9764C167.465 84.6886 167.461 84.714 166.8 84.9868C165.408 85.5618 164.003 85.147 163.402 83.9597C162.981 83.1285 162.947 82.2561 163.295 81.3924C163.677 80.4438 164.596 79.9037 165.575 80.0092C166.619 80.1218 167.237 80.715 167.457 81.8183C167.649 82.7803 167.649 82.7803 166.705 82.7811C166.417 82.7827 166.131 82.7827 165.844 82.7827ZM165.282 82.1093C165.594 82.1093 165.907 82.0935 166.218 82.1141C166.536 82.1355 166.564 81.9904 166.493 81.7318C166.351 81.2171 165.969 80.903 165.445 80.8887C164.822 80.8713 164.369 81.1988 164.17 81.7881C164.094 82.0134 164.096 82.1331 164.384 82.1141C164.682 82.0935 164.983 82.1093 165.282 82.1093Z" fill="#818592"/>
<path d="M121.936 96.1168C122.009 97.1463 121.94 97.2866 121.022 97.5262C119.99 97.7958 118.97 97.7887 118.224 96.8703C117.449 95.9161 117.376 94.8177 117.859 93.7073C118.259 92.7873 119.148 92.355 120.22 92.4732C121.091 92.5692 121.691 93.1521 121.929 94.1308C122.192 95.2166 122.192 95.2166 121.114 95.2174C120.372 95.2174 119.629 95.2245 118.887 95.2142C118.634 95.2103 118.58 95.2801 118.652 95.5346C118.929 96.5007 119.816 96.9218 120.913 96.5958C121.265 96.4911 121.576 96.3008 121.936 96.1168ZM119.837 94.552C120.137 94.552 120.438 94.5345 120.736 94.5567C121.064 94.5813 121.076 94.4243 121.003 94.1737C120.85 93.6462 120.438 93.3234 119.909 93.3266C119.281 93.3306 118.853 93.6692 118.668 94.2752C118.604 94.4861 118.63 94.5631 118.86 94.5544C119.185 94.5425 119.511 94.5512 119.837 94.552Z" fill="#818592"/>
<path d="M173.42 96.1177C173.535 97.2059 173.56 97.1155 172.73 97.4541C171.571 97.9268 170.4 97.6675 169.707 96.8545C168.668 95.6371 168.952 93.4648 170.244 92.7406C171.641 91.9586 173.148 92.6629 173.458 94.2428C173.649 95.2168 173.649 95.2167 172.697 95.2167C171.953 95.2167 171.21 95.2318 170.467 95.2096C170.111 95.1993 170.082 95.3214 170.185 95.6236C170.496 96.5341 171.369 96.918 172.433 96.5928C172.771 96.4889 173.081 96.3208 173.42 96.1177ZM171.314 94.5513C171.639 94.5513 171.966 94.5394 172.291 94.5553C172.544 94.568 172.572 94.4538 172.526 94.242C172.404 93.6702 171.953 93.3069 171.371 93.3228C170.774 93.3394 170.233 93.8042 170.146 94.3538C170.116 94.5402 170.204 94.5521 170.337 94.5521C170.663 94.5521 170.989 94.5521 171.314 94.5513Z" fill="#818592"/>
<path d="M131.648 97.0372C131.442 97.1768 131.297 97.2823 131.145 97.3766C130.025 98.073 128.709 97.4758 128.557 96.1584C128.427 95.0298 128.534 93.8885 128.507 92.7527C128.503 92.5917 128.586 92.5489 128.725 92.5521C128.895 92.5561 129.065 92.5624 129.233 92.5489C129.464 92.5307 129.518 92.6354 129.515 92.8527C129.505 93.7775 129.51 94.7022 129.511 95.627C129.513 96.2798 129.69 96.6121 130.107 96.7588C130.593 96.9293 131.197 96.7247 131.544 96.2861C131.662 96.137 131.663 95.9728 131.663 95.7999C131.661 94.8355 131.672 93.871 131.655 92.9066C131.65 92.633 131.711 92.5402 131.994 92.5473C132.833 92.5672 132.669 92.4767 132.674 93.2397C132.684 94.5476 132.668 95.8562 132.683 97.1641C132.686 97.4655 132.619 97.6201 132.298 97.5646C132.273 97.5599 132.245 97.5606 132.219 97.5638C131.874 97.5987 131.554 97.6011 131.648 97.0372Z" fill="#818592"/>
<path d="M147.812 93.0694C147.967 92.9584 148.117 92.841 148.277 92.7363C149.324 92.0494 150.607 92.5872 150.856 93.8237C150.986 94.4637 150.903 95.1156 150.917 95.7612C150.928 96.2633 150.912 96.7661 150.924 97.2674C150.93 97.4879 150.861 97.5632 150.636 97.5695C149.923 97.5886 149.923 97.5989 149.923 96.874C149.923 96.0809 149.926 95.2877 149.922 94.4954C149.919 93.8395 149.671 93.4247 149.219 93.3002C148.763 93.1741 148.131 93.4564 147.826 93.9117C147.736 94.0465 147.754 94.1885 147.754 94.3312C147.752 95.283 147.742 96.2347 147.759 97.1857C147.763 97.4728 147.698 97.583 147.394 97.5703C146.627 97.5386 146.76 97.6481 146.755 96.9128C146.746 95.5915 146.76 94.2694 146.747 92.9481C146.744 92.6498 146.814 92.4936 147.135 92.5507C147.147 92.5531 147.161 92.5507 147.174 92.5507C147.511 92.5491 147.933 92.4373 147.812 93.0694Z" fill="#818592"/>
<path d="M131.18 80.682C131.502 80.3671 131.848 80.1252 132.285 80.0411C133.189 79.8674 133.956 80.3457 134.202 81.2443C134.29 81.5663 134.305 81.8955 134.306 82.2262C134.308 83.0717 134.296 83.9171 134.311 84.7618C134.316 85.0299 134.254 85.1354 133.969 85.1266C133.153 85.1028 133.314 85.1949 133.305 84.4572C133.296 83.7704 133.303 83.0836 133.303 82.3967C133.303 82.2777 133.303 82.1588 133.299 82.0406C133.269 81.3871 133.04 80.9921 132.618 80.8644C132.168 80.728 131.545 80.9889 131.21 81.4442C131.122 81.5631 131.13 81.69 131.13 81.8209C131.129 82.798 131.118 83.776 131.136 84.7531C131.142 85.0521 131.059 85.1393 130.765 85.1274C129.998 85.0965 130.134 85.2139 130.13 84.4723C130.12 83.1383 130.137 81.8042 130.12 80.4702C130.116 80.1657 130.206 80.0903 130.494 80.099C131.078 80.1165 131.079 80.099 131.18 80.682Z" fill="#818592"/>
<path d="M117.638 80.721C117.861 80.5457 117.976 80.4466 118.099 80.3593C119.263 79.5361 120.684 80.1745 120.81 81.6109C120.881 82.4246 120.844 83.2479 120.854 84.0664C120.856 84.2781 120.83 84.4923 120.858 84.7001C120.908 85.0665 120.755 85.1466 120.421 85.1284C119.764 85.0927 119.857 85.2243 119.852 84.528C119.847 83.7087 119.853 82.8894 119.85 82.0701C119.848 81.4277 119.595 80.9899 119.158 80.863C118.693 80.7265 118.023 81.02 117.73 81.4824C117.651 81.6061 117.674 81.737 117.674 81.8663C117.673 82.818 117.664 83.7689 117.681 84.7207C117.687 85.0189 117.622 85.1775 117.298 85.1236C117.247 85.1149 117.193 85.1141 117.143 85.1228C116.774 85.1878 116.656 85.0538 116.663 84.6596C116.689 83.2725 116.681 81.8845 116.667 80.4973C116.663 80.1983 116.725 80.0413 117.049 80.1008C117.087 80.1079 117.128 80.1103 117.165 80.1039C117.552 80.0413 117.777 80.1499 117.638 80.721Z" fill="#818592"/>
<path d="M185.569 80.714C185.903 80.4523 186.117 80.2603 186.383 80.1501C187.533 79.6766 188.661 80.3555 188.738 81.6364C188.802 82.7159 188.755 83.8016 188.763 84.8843C188.763 85.0508 188.704 85.1087 188.538 85.1254C187.766 85.2039 187.766 85.2094 187.765 84.4123C187.764 83.6335 187.765 82.8539 187.764 82.075C187.764 81.4199 187.527 81.0011 187.081 80.8647C186.626 80.7251 185.997 80.9932 185.677 81.45C185.584 81.5833 185.6 81.726 185.6 81.8688C185.597 82.7801 185.601 83.6914 185.601 84.6027C185.602 85.123 185.602 85.123 185.107 85.1214C185.068 85.1214 185.028 85.1158 184.99 85.1222C184.688 85.169 184.59 85.0556 184.594 84.7336C184.612 83.321 184.61 81.9077 184.594 80.4943C184.59 80.1858 184.669 80.0494 184.981 80.1025C185.006 80.1065 185.034 80.1065 185.06 80.1025C185.444 80.0478 185.724 80.1104 185.569 80.714Z" fill="#818592"/>
<path d="M174.338 96.1341C174.8 96.3903 175.173 96.637 175.615 96.729C175.797 96.767 175.973 96.7893 176.154 96.7401C176.377 96.6798 176.579 96.5862 176.639 96.3348C176.704 96.0659 176.525 95.9152 176.336 95.7907C175.91 95.5115 175.464 95.2625 175.051 94.9659C174.43 94.5209 174.232 93.9974 174.419 93.4097C174.6 92.8347 175.101 92.4945 175.806 92.4548C176.327 92.4255 176.816 92.5365 177.28 92.7705C177.428 92.845 177.566 93.6691 177.446 93.7793C177.355 93.8634 177.276 93.769 177.205 93.727C176.839 93.5128 176.456 93.3534 176.027 93.3511C175.769 93.3495 175.515 93.3923 175.415 93.6754C175.315 93.9538 175.548 94.0871 175.718 94.2108C176.131 94.5098 176.572 94.7692 176.98 95.0721C177.639 95.5591 177.816 96.0104 177.628 96.6187C177.434 97.2532 176.871 97.6363 176.122 97.6577C175.619 97.672 175.142 97.5776 174.676 97.3817C174.428 97.277 174.293 97.1541 174.332 96.8598C174.362 96.6433 174.338 96.4197 174.338 96.1341Z" fill="#818592"/>
<path d="M199.303 83.7007C199.645 83.876 199.917 84.0314 200.203 84.1575C200.466 84.2741 200.746 84.351 201.04 84.3122C201.299 84.2773 201.532 84.1861 201.618 83.9117C201.71 83.6222 201.496 83.4691 201.305 83.3358C201.048 83.1566 200.774 83.0027 200.504 82.8433C200.221 82.676 199.949 82.4943 199.722 82.2548C199.049 81.545 199.299 80.4663 200.214 80.1348C200.938 79.8723 201.625 80.0246 202.296 80.3442C202.403 80.3957 202.452 80.4711 202.45 80.5916C202.446 80.851 202.448 81.1096 202.448 81.4109C202.087 81.2476 201.791 81.0485 201.445 80.9723C201.268 80.9327 201.092 80.8811 200.905 80.9081C200.688 80.9398 200.491 81.0112 200.405 81.2325C200.313 81.4704 200.491 81.6116 200.645 81.7226C201.078 82.0367 201.537 82.3167 201.966 82.6371C202.635 83.1368 202.806 83.5984 202.598 84.221C202.395 84.8269 201.826 85.1997 201.1 85.2179C200.596 85.2306 200.122 85.1251 199.653 84.9372C199.377 84.8261 199.265 84.6738 199.299 84.3772C199.322 84.171 199.303 83.9608 199.303 83.7007Z" fill="#818592"/>
<path d="M183.292 81.4187C182.842 81.1839 182.469 80.9643 182.03 80.9159C181.83 80.8937 181.637 80.9016 181.459 80.996C181.194 81.1371 181.152 81.3941 181.365 81.6114C181.587 81.8375 181.856 82.0017 182.126 82.1627C182.474 82.3712 182.803 82.6044 183.111 82.8725C183.852 83.5165 183.519 84.6729 182.76 85.0203C181.918 85.4049 181.106 85.2146 180.313 84.8394C180.221 84.7966 180.171 84.7276 180.172 84.6229C180.173 84.3366 180.172 84.0503 180.172 83.6989C180.569 83.9091 180.893 84.1248 181.263 84.2351C181.582 84.3303 181.901 84.3866 182.213 84.2153C182.54 84.036 182.585 83.7418 182.329 83.4737C182.154 83.2913 181.933 83.1763 181.717 83.0533C181.331 82.8328 180.941 82.6195 180.621 82.2999C179.882 81.5583 180.133 80.4582 181.12 80.1204C181.819 79.8816 182.479 80.0292 183.123 80.3377C183.246 80.3964 183.298 80.4789 183.295 80.6145C183.288 80.8627 183.292 81.111 183.292 81.4187Z" fill="#818592"/>
<path d="M179.074 81.4212C178.698 81.2126 178.39 81.0405 178.044 80.958C177.813 80.9033 177.58 80.8707 177.349 80.95C176.989 81.0738 176.909 81.3902 177.192 81.644C177.415 81.8439 177.675 82.0009 177.922 82.1722C178.179 82.3515 178.447 82.5157 178.699 82.7028C179.196 83.0724 179.441 83.5483 179.246 84.182C179.053 84.8117 178.587 85.1179 177.976 85.1996C177.341 85.2844 176.732 85.152 176.153 84.872C176.044 84.8189 175.946 84.7657 175.947 84.6174C175.951 84.3303 175.949 84.0432 175.949 83.6887C176.314 83.8933 176.617 84.0908 176.958 84.205C177.26 84.3065 177.562 84.3763 177.876 84.2716C178.074 84.2058 178.225 84.0852 178.27 83.8703C178.314 83.6593 178.193 83.5079 178.037 83.4048C177.612 83.124 177.17 82.8678 176.747 82.5847C176.357 82.3229 176.037 81.9954 175.992 81.4878C175.928 80.7803 176.35 80.237 177.077 80.0673C177.704 79.9206 178.291 80.0499 178.863 80.3148C178.991 80.3742 179.081 80.4448 179.076 80.6066C179.068 80.8533 179.074 81.1023 179.074 81.4212Z" fill="#818592"/>
<path d="M198.191 81.3924C197.846 81.2291 197.523 81.0229 197.15 80.9507C196.958 80.9134 196.767 80.8714 196.57 80.9293C196.385 80.9832 196.219 81.0633 196.171 81.2671C196.126 81.4622 196.249 81.5995 196.389 81.6986C196.838 82.015 197.305 82.3061 197.746 82.6321C198.414 83.1246 198.592 83.5942 198.385 84.2183C198.182 84.8306 197.625 85.1963 196.89 85.2201C196.384 85.2367 195.91 85.1241 195.441 84.9425C195.183 84.8433 195.068 84.6982 195.097 84.4135C195.12 84.1969 195.102 83.9764 195.102 83.7211C195.468 83.8979 195.776 84.0629 196.097 84.1977C196.428 84.3365 196.773 84.4055 197.119 84.231C197.489 84.0439 197.542 83.7171 197.229 83.4435C196.861 83.123 196.402 82.9438 196.005 82.667C195.534 82.3386 195.111 81.973 195.142 81.3052C195.18 80.478 195.897 79.9299 196.873 80.0061C197.015 80.0172 197.158 80.0418 197.299 80.0687C198.193 80.24 198.321 80.428 198.191 81.3924Z" fill="#818592"/>
<path d="M166.494 95.5844C166.885 94.6605 167.229 93.8515 167.571 93.0417C167.755 92.6063 168.26 92.3858 168.693 92.5595C168.916 92.6491 168.745 92.7831 168.705 92.8775C168.236 93.9958 167.759 95.1102 167.283 96.2261C167.113 96.6258 166.937 97.024 166.772 97.4261C166.718 97.5569 166.664 97.6537 166.501 97.66C166.333 97.6664 166.277 97.5696 166.22 97.4404C165.546 95.8946 164.871 94.3488 164.19 92.8054C164.11 92.6221 164.121 92.5603 164.345 92.5484C165.162 92.5071 165.159 92.4992 165.484 93.2606C165.801 93.9982 166.123 94.7326 166.494 95.5844Z" fill="#818592"/>
<path d="M169.575 81.2889C169.576 82.4382 169.567 83.5882 169.581 84.7375C169.584 85.019 169.531 85.1411 169.221 85.1277C168.451 85.0944 168.581 85.2213 168.578 84.4805C168.572 82.3002 168.586 80.1199 168.567 77.9404C168.564 77.5771 168.674 77.4621 169.007 77.5184C169.058 77.5272 169.112 77.5256 169.162 77.5176C169.474 77.4709 169.59 77.5763 169.583 77.9206C169.561 79.042 169.575 80.1659 169.575 81.2889Z" fill="#818592"/>
<path d="M137.416 93.779C137.416 94.9147 137.407 96.0497 137.422 97.1854C137.426 97.4741 137.358 97.5796 137.057 97.5725C136.266 97.5542 136.426 97.5963 136.424 96.9491C136.42 94.7577 136.43 92.5655 136.415 90.3741C136.413 90.0482 136.488 89.903 136.821 89.953C136.91 89.9665 137.004 89.9649 137.094 89.9538C137.355 89.9221 137.425 90.0378 137.422 90.2932C137.409 91.4552 137.416 92.6171 137.416 93.779Z" fill="#818592"/>
<path d="M160.982 93.7335C160.982 94.8811 160.971 96.0295 160.99 97.1764C160.994 97.4889 160.909 97.6134 160.599 97.5674C160.484 97.55 160.364 97.5563 160.248 97.565C160.057 97.5801 160.004 97.4889 160.005 97.3073C160.009 94.9454 160.01 92.5842 160.005 90.2223C160.004 90.0161 160.073 89.955 160.275 89.9487C160.982 89.9249 160.982 89.9162 160.982 90.6466C160.981 91.6753 160.981 92.7048 160.982 93.7335Z" fill="#818592"/>
<path d="M145.399 95.0457C145.399 95.7706 145.387 96.4963 145.405 97.2212C145.412 97.5059 145.315 97.5797 145.047 97.5702C144.282 97.5416 144.405 97.6645 144.401 96.9254C144.393 95.5937 144.407 94.2613 144.393 92.9296C144.39 92.6441 144.448 92.5354 144.754 92.5434C145.399 92.56 145.4 92.5418 145.399 93.1858C145.4 93.806 145.4 94.4262 145.399 95.0457Z" fill="#818592"/>
<path d="M135.034 95.0764C135.034 95.7878 135.024 96.5001 135.039 97.2107C135.045 97.4828 134.967 97.5795 134.689 97.5684C133.896 97.5367 134.041 97.6636 134.036 96.895C134.027 95.5777 134.043 94.2595 134.026 92.9421C134.022 92.628 134.109 92.5043 134.417 92.5503C134.506 92.5638 134.6 92.5646 134.689 92.5519C134.963 92.513 135.046 92.6265 135.04 92.9033C135.023 93.6266 135.034 94.3515 135.034 95.0764Z" fill="#818592"/>
<path d="M163.382 95.0869C163.382 95.7991 163.371 96.5114 163.388 97.2236C163.395 97.4806 163.323 97.5678 163.063 97.5694C162.382 97.5734 162.382 97.5853 162.382 96.8825C162.382 95.5636 162.391 94.2446 162.376 92.9256C162.373 92.6409 162.43 92.533 162.735 92.5426C163.382 92.5632 163.382 92.5449 163.382 93.1874C163.382 93.8211 163.382 94.454 163.382 95.0869Z" fill="#818592"/>
<path d="M128.785 82.6034C128.785 83.3291 128.776 84.0556 128.791 84.7813C128.796 85.0327 128.738 85.1358 128.47 85.1287C127.617 85.1057 127.793 85.2088 127.786 84.4442C127.775 83.1244 127.792 81.8047 127.778 80.4849C127.775 80.201 127.832 80.0891 128.139 80.0971C128.784 80.1129 128.784 80.0947 128.784 80.7435C128.785 81.3621 128.784 81.9823 128.785 82.6034Z" fill="#818592"/>
<path d="M128.311 79.2106C127.986 79.2209 127.706 78.9592 127.694 78.6332C127.681 78.3104 127.947 78.0201 128.266 78.0083C128.586 77.9956 128.865 78.2597 128.881 78.5888C128.895 78.914 128.634 79.2003 128.311 79.2106Z" fill="#818592"/>
<path d="M144.923 90.4581C145.269 90.4661 145.503 90.7175 145.493 91.0736C145.485 91.4043 145.246 91.6399 144.917 91.6415C144.58 91.6431 144.315 91.3821 144.313 91.0466C144.312 90.7207 144.591 90.451 144.923 90.4581Z" fill="#818592"/>
<path d="M163.474 91.0827C163.452 91.4277 163.186 91.6625 162.841 91.6411C162.503 91.6197 162.265 91.3413 162.293 90.9994C162.32 90.6822 162.588 90.4419 162.904 90.4546C163.235 90.4673 163.495 90.7544 163.474 91.0827Z" fill="#818592"/>
<path d="M135.131 91.0326C135.141 91.3712 134.885 91.6393 134.549 91.6425C134.229 91.6457 133.968 91.403 133.952 91.0865C133.935 90.7486 134.186 90.4663 134.515 90.4536C134.85 90.4409 135.122 90.6955 135.131 91.0326Z" fill="#818592"/>
</g>
<defs>
<clipPath id="clip0">
<rect width="148" height="54.1194" fill="white" transform="translate(111 46)"/>
</clipPath>
</defs>
</svg>
