<svg width="370" height="145" viewBox="0 0 370 145" fill="none" xmlns="http://www.w3.org/2000/svg">
<rect x="0.5" y="0.5" width="369" height="144" stroke="#DEDEE0"/>
<path d="M238.809 82.9063C241.762 82.9063 244.417 81.7351 246.707 79.9542H246.711V79.9271C246.711 79.8771 246.716 79.8272 246.721 79.7772C246.726 79.7272 246.731 79.6773 246.731 79.6273C246.731 79.625 246.712 79.6121 246.678 79.5892C246.417 79.416 245.3 78.6719 245.3 77.6466C245.3 77.2949 245.331 76.7945 245.791 76.7945C245.883 76.7945 245.975 76.7997 246.067 76.805C246.159 76.8102 246.251 76.8154 246.343 76.8154C249.163 76.8154 251.238 73.6232 251.238 71.1119C251.238 67.8902 248.775 65.3286 245.413 65.3286C244.933 65.3286 244.33 65.399 243.972 65.7492L243.575 66.159L243.236 66.3689L242.328 66.7593C241.901 66.9415 241.693 67.2085 241.505 67.4506C241.311 67.7005 241.138 67.9239 240.764 68.0002L240.161 68.1203L239.661 68.19C239.319 68.2341 239.284 68.5206 239.25 68.7956C239.222 69.0231 239.195 69.2429 238.996 69.3109L238.801 69.3806C238.606 69.4499 238.595 69.6581 238.585 69.8573C238.576 70.0323 238.567 70.2005 238.434 70.2614L238.229 70.3512C238.024 70.4511 237.995 70.5913 237.983 70.8013C237.973 71.0492 237.831 71.25 237.687 71.4528C237.535 71.6676 237.381 71.8846 237.381 72.1623C237.381 72.7841 237.861 73.1313 238.387 73.5121C238.971 73.9346 239.613 74.3984 239.72 75.3243L239.812 76.0548L239.926 76.7248L240.068 77.2756C240.101 77.4098 240.118 77.5473 240.119 77.6853C240.119 78.0153 239.894 78.2756 239.608 78.4251C239.481 78.4915 239.111 78.5637 238.639 78.6559C237.894 78.8013 236.895 78.9964 236.196 79.2966L234.612 79.9759C234.09 80.1967 233.508 80.2772 232.947 80.2772C232.068 80.2772 230.637 79.8675 230.637 78.7659C230.637 78.5274 230.82 77.6164 231.188 77.6164C231.227 77.6164 231.262 77.6346 231.294 77.6519L231.307 77.6589L231.321 77.666L231.556 77.8155C231.837 77.9865 232.311 77.9857 232.656 77.9852L232.712 77.9851C233.161 77.9851 233.611 77.9154 234.06 77.8457C234.205 77.8226 234.521 77.745 234.837 77.6678C235.21 77.5764 235.581 77.4855 235.664 77.4855C235.844 77.4855 236.009 77.5598 236.177 77.6356C236.353 77.7146 236.532 77.7953 236.736 77.7953C237.697 77.7953 238.289 76.714 238.289 75.8743C238.289 75.7743 238.197 75.2933 238.075 75.3142L237.493 75.3638C237.392 75.3733 237.339 75.2937 237.283 75.2101C237.225 75.1233 237.163 75.0323 237.044 75.0323C236.698 75.0323 236.411 75.2485 236.16 75.4372C235.966 75.5834 235.794 75.7132 235.633 75.7132C235.567 75.7132 235.497 75.6828 235.432 75.6549C235.415 75.6472 235.397 75.6395 235.38 75.6328C235.372 75.6297 235.364 75.6267 235.356 75.6241L234.753 75.4033C234.539 75.3216 234.291 75.2693 234.044 75.2173C233.479 75.0981 232.92 74.9804 232.792 74.514L232.67 74.1027L232.506 73.6232L232.486 73.5233L232.517 72.0716C232.528 71.7866 232.451 71.5068 232.374 71.2282C232.303 70.9692 232.231 70.7113 232.231 70.4511C232.231 70.1204 232.588 69.9104 232.896 69.9104C232.992 69.91 233.088 69.9202 233.182 69.9407L233.742 70.0902C233.947 70.1405 234.172 70.1506 234.386 70.1506C234.723 70.1506 235.061 70.1002 235.296 69.85C235.354 69.7894 235.465 69.6968 235.578 69.6025C235.726 69.4787 235.878 69.3516 235.919 69.2892L236.071 69.0189L236.246 68.7586L236.266 68.6083C236.281 68.4687 236.385 68.3863 236.486 68.3066C236.587 68.2263 236.684 68.1487 236.684 68.0181C236.684 67.898 236.674 67.7779 236.664 67.6579C236.654 67.5378 236.644 67.4177 236.644 67.2977C236.644 66.9714 236.835 66.6755 237.051 66.3409C237.331 65.9055 237.654 65.4047 237.654 64.6864C237.654 62.5647 234.916 60.8838 232.955 60.8838C231.054 60.8838 229.255 62.4144 229.255 64.3456C229.255 64.7695 229.342 65.186 229.428 65.6037C229.515 66.0239 229.603 66.4455 229.603 66.877C229.603 67.7069 228.83 68.1319 228.043 68.5648C227.226 69.0141 226.393 69.4718 226.393 70.3992C226.393 77.3236 231.595 82.9063 238.809 82.9063Z" fill="#818592"/>
<path d="M227.139 68.7963L227.117 68.8088C226.951 68.9045 226.784 69.0007 226.618 69.1061C226.762 67.3152 227.651 64.3632 229.152 63.2532C229.05 63.563 228.979 63.8636 228.948 64.1835C227.998 65.5646 227.435 67.1657 227.139 68.7963Z" fill="#818592"/>
<path d="M247.004 79.0521L247.147 79.4425C248.608 78.4316 249.456 76.8205 250.078 75.2201L249.332 75.8313C248.802 77.0505 247.985 78.152 247.004 79.0521Z" fill="#818592"/>
<path fill-rule="evenodd" clip-rule="evenodd" d="M225.148 70.9285C225.148 67.0058 226.772 63.0939 229.797 60.4827C232.269 58.3316 235.569 57 238.891 57C246.451 57 252.47 63.1435 252.47 70.4877C252.47 77.9311 246.238 84.2055 238.604 84.2055C231.175 84.2055 225.148 78.1526 225.148 70.9285ZM234.169 58.3112C229.112 60.2423 225.524 65.3959 225.524 70.6981C225.524 77.8425 231.36 83.7458 238.696 83.7458C246.39 83.7458 252.102 77.4916 252.102 70.1381C252.102 67.6469 251.202 65.2851 249.863 63.2037L249.322 63.584C248.811 63.9342 248.29 64.2641 247.738 64.5546C247.852 64.7847 247.973 65.045 247.973 65.3052C247.973 65.4052 247.942 65.6251 247.798 65.6251C247.535 65.6251 247.291 65.0944 247.189 64.8732L247.176 64.8451C247.078 64.876 246.978 64.9126 246.877 64.9493C246.587 65.0553 246.284 65.1658 245.98 65.1658C245.889 65.1658 245.705 65.0953 245.705 64.9752C245.705 64.717 246.327 64.4853 246.697 64.3475C246.787 64.3142 246.862 64.2863 246.909 64.2649C246.439 63.3447 245.908 62.5243 245.183 61.7737C244.457 62.1742 243.721 62.5243 242.935 62.804L242.997 62.9539C243.139 63.2924 243.278 63.6261 243.394 63.9752L243.649 64.7351L243.668 64.8C243.714 64.9508 243.762 65.108 243.762 65.2657C243.762 65.9962 243.119 66.2665 242.494 66.3362L241.013 66.516C240.441 66.5857 239.858 66.6159 239.276 66.626L239.286 67.516C239.286 67.7058 239.286 68.0265 239 68.0265C238.734 68.0265 238.663 67.8065 238.653 67.5764L238.633 66.7259L238.581 66.7261C238.266 66.7279 237.53 66.732 237.53 66.3362C237.53 66.1263 237.765 66.0659 237.939 66.0659C238.019 66.0659 238.099 66.0683 238.18 66.0708C238.265 66.0734 238.351 66.076 238.44 66.076H238.695L238.675 63.5445L237.816 63.5042C237.698 63.2453 237.551 63.0003 237.377 62.7738L238.726 62.8644V60.6226C238.163 60.5924 237.643 60.4832 237.1 60.3322C237.053 60.3939 236.982 60.5148 236.897 60.6576L236.895 60.6599C236.664 61.0489 236.334 61.6033 236.14 61.6033C236.008 61.6033 235.926 61.4631 235.926 61.343C235.926 60.9288 236.257 60.449 236.492 60.1097L236.518 60.0719C236.098 59.8965 235.703 59.6679 235.344 59.3918C235.202 59.479 234.908 59.7033 234.596 59.9422C234.121 60.3055 233.603 60.7024 233.504 60.7024C233.371 60.7024 233.311 60.532 233.311 60.422C233.311 60.0433 234.247 59.4541 234.7 59.1689C234.761 59.1307 234.813 59.0979 234.853 59.0719C234.61 58.8317 234.384 58.5714 234.169 58.3112ZM237.419 57.621H237.337C236.479 57.621 235.702 57.8309 234.895 58.1214C235.059 58.3313 235.232 58.5118 235.436 58.6714C236.07 58.2515 236.725 57.9316 237.419 57.621ZM238.176 57.9418C237.328 58.1819 236.602 58.5522 235.846 59.0123C236.183 59.2222 236.53 59.4027 236.887 59.5622L237.297 59.0123L237.818 58.3918L238.176 57.9418ZM237.469 59.783C237.879 59.9123 238.287 60.013 238.716 60.0928L238.758 58.3113C238.654 58.2625 237.571 59.6428 237.469 59.783ZM239.381 58.3523L239.37 60.0727C239.793 60.0217 240.213 59.9449 240.627 59.8426C240.26 59.2927 239.881 58.7931 239.381 58.3523ZM241.281 59.5932C241.563 59.4415 241.835 59.2744 242.098 59.0928C241.464 58.6529 240.862 58.3329 240.127 58.082C240.443 58.4724 240.749 58.8628 241.035 59.2625L241.281 59.5932ZM242.622 58.7284L242.619 58.7312C242.529 58.6763 242.438 58.6204 242.347 58.5643C241.957 58.3234 241.562 58.0792 241.14 57.9008L240.638 57.6808L240.393 57.5507C241.241 57.6304 242.039 57.8009 242.856 58.0209L243.274 58.1309C243.05 58.3298 242.836 58.5295 242.622 58.7284ZM242.099 62.3936C241.18 62.6833 240.26 62.7933 239.299 62.8638L239.341 60.6329C239.912 60.6128 240.453 60.5229 241.006 60.3928C241.456 61.0225 241.793 61.6934 242.099 62.3936ZM240.937 65.9073C240.39 65.9733 239.844 66.0394 239.288 66.0452L239.279 63.4649C240.331 63.3844 241.363 63.2643 242.375 62.9645C242.61 63.4944 242.845 64.025 242.978 64.5951L243.122 65.1652C243.125 65.1842 243.129 65.2031 243.133 65.2225C243.142 65.2641 243.151 65.3074 243.151 65.355C243.151 65.7142 242.62 65.7547 242.356 65.7748C241.878 65.7934 241.407 65.8504 240.937 65.9073ZM244.746 61.2727C244.098 61.6883 243.397 62.018 242.661 62.2534L242.651 62.2276C242.51 61.876 242.37 61.5251 242.18 61.203L241.762 60.5028L241.547 60.1325C241.947 59.9573 242.321 59.7318 242.661 59.4617C243.459 59.9419 244.123 60.5918 244.746 61.2727ZM246.646 59.9319C246.233 60.3348 245.778 60.6937 245.288 61.0024C244.654 60.2921 243.928 59.5717 243.111 59.0511C243.164 59.0014 243.217 58.9522 243.271 58.9029C243.455 58.7342 243.64 58.5647 243.806 58.371C244.817 58.7413 245.848 59.2215 246.646 59.9319ZM247.494 64.0645C247.004 63.1342 246.38 62.2635 245.686 61.4726L246.238 61.0729C246.564 60.8327 246.871 60.5926 247.157 60.3223C248.066 60.952 248.843 61.8328 249.476 62.7236C248.874 63.2434 248.189 63.6741 247.494 64.0645Z" fill="#818592"/>
<path d="M111 68.0775H118.092V78.1127C118.092 80.2553 119.164 81.6062 121.454 81.6062C123.538 81.6062 124.744 79.8649 124.744 77.9632V68.0775H131.662V79.5636C131.662 81.9447 130.558 84.2957 128.535 85.6776C126.481 87.0681 123.845 87.4081 121.403 87.4081C116.059 87.4081 111.001 85.5669 111.001 79.5636L111 68.0775Z" fill="#818592"/>
<path d="M133.664 68.0775V86.8481L140.642 86.8496V77.3543C140.642 75.1831 141.501 73.0614 144.035 73.0614C146.59 73.0614 147.295 74.8732 147.295 77.053V86.8488H154.284V74.001C154.284 69.7786 151.25 67.4175 147.07 67.4175C144.434 67.4175 142.432 68.4478 140.643 70.2689V68.0775H133.664Z" fill="#818592"/>
<path d="M156.441 86.8481V68.0775H163.532V86.8481H156.441Z" fill="#818592"/>
<path d="M180.698 86.1377V80.4141C179.513 80.9951 178.266 81.4745 176.918 81.4745C174.506 81.4745 172.79 79.7045 172.79 77.3838C172.79 74.9414 174.62 73.1606 177.112 73.1606C178.41 73.1606 179.606 73.7214 180.699 74.3519V68.6685C179.146 67.7785 177.419 67.3881 175.61 67.3881C169.786 67.3881 165.29 71.98 165.29 77.6231C165.29 83.0664 169.816 87.3694 175.344 87.3694C177.194 87.3694 179.084 87.0379 180.698 86.1377Z" fill="#818592"/>
<path fill-rule="evenodd" clip-rule="evenodd" d="M188.739 79.1336C188.739 81.1143 189.618 82.7054 191.887 82.7054C193.287 82.7054 194.217 82.1244 194.839 80.9548H201.44C200.787 82.9246 199.918 84.6768 198.11 85.8767C196.24 87.1386 193.991 87.5685 191.754 87.5685C188.301 87.5685 184.929 86.0781 183.233 83.0354C182.313 81.3738 181.741 79.4133 181.741 77.5131C181.741 74.7509 182.773 71.6291 184.878 69.7383C186.829 67.9869 189.62 67.2371 192.235 67.2371C198.621 67.2371 201.89 71.1992 201.89 77.1514C201.89 77.8129 201.809 78.4721 201.717 79.1336H188.739ZM195.269 75.1099H188.841C189.128 73.1392 190.026 71.7488 192.244 71.7488C194.329 71.7488 195.167 73.2794 195.269 75.1099Z" fill="#818592"/>
<path d="M203.168 68.7081V86.8481L210.229 86.8488V73.4712H213.948V68.3277H210.229V67.2278C210.229 65.0061 210.495 63.4352 213.1 63.4352H214.194V58.5024H212.375C209.974 58.5024 207.225 58.9734 205.458 60.7039C203.32 62.7946 203.168 65.9264 203.168 68.7081Z" fill="#818592"/>
<path d="M234.005 90L233.383 89.4097C234.466 88.1285 236.03 87.2191 237.562 86.5274C236.703 86.178 235.814 85.8875 234.875 85.8674L234.629 86.147C233.668 87.2772 232.452 87.6173 230.971 87.6173C229.919 87.6173 228.703 87.5173 227.701 87.1874L226.629 86.8473L226.231 86.587V86.5375C226.231 86.2444 227.501 86.0303 227.828 85.9752L227.875 85.9673L229.531 85.6466C230.882 85.3719 232.258 85.231 233.637 85.226C235.325 85.226 236.99 85.5576 238.574 86.1068C240.229 85.5769 241.956 85.226 243.701 85.226C245.582 85.226 247.431 85.4669 249.241 85.9263C249.266 85.9328 249.312 85.9426 249.372 85.9554C249.766 86.0393 250.774 86.2537 250.774 86.5568C250.774 87.1773 246.676 87.6374 246.125 87.6374C244.816 87.6374 243.048 87.2075 242.508 85.8976C242.463 85.8976 242.415 85.895 242.367 85.8924C242.316 85.8896 242.263 85.8868 242.211 85.8868C241.352 85.8868 240.382 86.1966 239.595 86.5173C241.026 87.1664 242.425 88.027 243.529 89.1379L243.743 89.3586L243.141 89.9287L242.813 89.6576L242.21 89.1278C241.721 88.6878 239.237 86.9767 238.634 86.9356C238.093 86.8961 236.049 88.247 235.58 88.5972C235.017 89.0286 234.508 89.5097 234.005 90Z" fill="#818592"/>
<path d="M227.763 79.995L227.139 79.3838L227.114 79.359C227.044 79.2872 226.942 79.1839 226.833 79.1832C226.689 79.1832 226.689 79.404 226.689 79.5039C226.688 80.7337 227.02 81.9418 227.651 83.0052C228.315 84.1354 229.562 85.1369 230.951 85.1369L230.972 85.137C231.137 85.1374 231.502 85.1385 231.502 84.927C231.502 83.9363 228.499 80.7154 227.763 79.995Z" fill="#818592"/>
<path d="M221.345 82.2554C221.366 82.1361 221.509 82.095 221.611 82.095C222.603 82.095 229.265 84.4979 229.265 85.2074C229.265 85.6835 227.769 85.6568 227.318 85.6488C227.276 85.648 227.243 85.6474 227.221 85.6474C225.759 85.6474 224.41 85.0076 223.267 84.1462C223.032 83.9665 221.305 82.6063 221.345 82.2554Z" fill="#818592"/>
<path d="M224.882 75.7222C224.483 75.7222 224.279 78.4636 224.279 78.7843C224.279 79.6441 224.41 80.5241 224.819 81.2941C225.014 81.6643 225.943 83.2562 226.454 83.2562C226.607 83.2562 226.629 83.0462 226.629 82.9355C226.629 81.645 226.424 80.4242 226.118 79.1731L226.089 79.0581C225.922 78.3919 225.252 75.7222 224.882 75.7222Z" fill="#818592"/>
<path d="M219.037 76.9632C219.037 76.8934 219.056 76.8028 219.139 76.8028C220.109 76.8028 225.167 81.576 225.167 82.5761C225.167 82.6953 225.096 82.7364 224.984 82.7364C223.512 82.7364 221.673 81.1856 220.774 80.1747C220.273 79.6046 219.037 77.7633 219.037 76.9632Z" fill="#818592"/>
<path d="M223.666 79.2034L223.961 78.0732C224.37 76.503 224.402 74.7811 224.402 73.1598L224.402 73.1031C224.406 72.8592 224.414 72.2697 224.105 72.2697C223.79 72.2697 223.309 73.4807 223.153 73.8747L223.13 73.9334L223.115 73.97C222.787 74.7811 222.541 75.6812 222.541 76.5619C222.541 77.0515 222.827 79.6131 223.41 79.6131C223.554 79.6131 223.626 79.3502 223.66 79.2261L223.666 79.2034Z" fill="#818592"/>
<path d="M219.67 72.7105L220.559 74.1002C221.101 74.9608 222.408 77.3528 222.408 78.3923C222.408 78.4729 222.377 78.5937 222.275 78.5937C222.04 78.5937 221.826 78.4442 221.653 78.2924L220.876 77.6131C219.487 76.3923 218.639 73.9112 218.639 72.0993C218.639 71.9893 218.679 71.7786 218.822 71.7786C219.124 71.7793 219.413 72.2732 219.587 72.5713L219.616 72.6211L219.639 72.6602C219.65 72.6785 219.661 72.6954 219.67 72.7105Z" fill="#818592"/>
<path d="M224.198 69.3781C224.198 69.3185 224.187 69.258 224.115 69.258C223.857 69.258 223.319 69.9656 223.09 70.2664C223.056 70.3105 223.029 70.3458 223.011 70.3688C222.082 71.5796 221.5 72.9003 221.5 74.441L221.5 74.4877C221.498 74.7595 221.491 75.6014 221.816 75.6014C222.541 75.6014 224.198 70.2681 224.198 69.3781Z" fill="#818592"/>
<path d="M219.292 69.148C219.292 68.8576 219.414 66.8366 219.733 66.8366C220.031 66.8366 220.456 68.5004 220.556 68.8917L220.571 68.9482C220.969 70.389 221.245 71.9498 221.245 73.4503C221.245 73.4656 221.245 73.4847 221.245 73.5067C221.25 73.714 221.259 74.18 221 74.18C220.662 74.18 220.028 72.8097 219.916 72.5091C219.495 71.4595 219.292 70.279 219.292 69.148Z" fill="#818592"/>
<path d="M221.887 71.3301L222.295 70.8994C223.062 70.0784 225.055 67.2866 225.055 66.2471C225.055 66.1874 225.015 66.1472 224.942 66.1472C224.41 66.1472 223.123 67.5477 222.796 67.9381C221.989 68.8986 221.407 70.0389 221.407 71.31C221.407 71.3999 221.407 71.5602 221.54 71.5602C221.657 71.5602 221.773 71.4439 221.855 71.3616L221.887 71.3301Z" fill="#818592"/>
<path d="M221.56 63.1246C221.979 63.1447 221.99 65.866 221.99 66.1262C221.99 66.4764 221.755 69.9482 221.264 69.9482C220.703 69.9482 220.55 67.1565 220.55 66.7862C220.55 65.9659 220.683 65.175 220.938 64.395C220.947 64.3674 220.961 64.3178 220.98 64.2537C221.081 63.9006 221.309 63.1082 221.56 63.1246Z" fill="#818592"/>
<path d="M225.627 62.9751L225.29 63.1951C224.023 64.0154 222.194 66.0565 222.194 67.6267C222.194 67.7173 222.267 67.8072 222.369 67.8072C222.808 67.8072 223.922 66.4469 224.156 66.1464C224.565 65.6065 225.822 63.7954 225.822 63.0952C225.822 63.0347 225.791 62.9449 225.72 62.9348C225.701 62.9348 225.683 62.9457 225.664 62.9566C225.652 62.9638 225.639 62.9711 225.627 62.9751Z" fill="#818592"/>
<path d="M225.352 61.0238L225.044 61.8643C224.636 63.0053 223.89 64.2253 223.032 65.096L222.755 65.3764C222.684 65.457 222.592 65.5561 222.48 65.5561C222.305 65.5561 222.275 65.3361 222.275 65.206C222.275 64.0456 222.959 62.8945 223.706 62.0339C223.941 61.7535 224.921 60.5931 225.32 60.5931C225.391 60.5931 225.402 60.7031 225.402 60.7535C225.402 60.8441 225.383 60.934 225.352 61.0238Z" fill="#818592"/>
<path d="M245.797 84.9371C245.797 85.1067 245.95 85.1672 246.105 85.1672C249.026 85.1672 250.734 81.9362 250.733 79.3931C250.733 79.3134 250.722 79.1437 250.6 79.1437C250.028 79.1437 245.797 84.1563 245.797 84.9371Z" fill="#818592"/>
<path d="M248.465 84.7667L249.385 84.2965C250.528 83.7171 254.524 82.1167 255.822 82.1167C255.893 82.1167 256.026 82.1469 256.026 82.236C256.026 82.676 253.809 84.3073 253.462 84.5281C252.348 85.2485 251.072 85.6885 249.732 85.6885L249.717 85.6885C249.417 85.6886 247.986 85.6895 247.986 85.2183C247.985 84.9967 248.291 84.8465 248.465 84.7667Z" fill="#818592"/>
<path d="M251.028 83.1462L251.438 82.7666C252.603 81.6543 253.145 80.1252 253.145 78.5535C253.145 78.163 253.124 77.7742 253.062 77.3931L252.889 76.3822L252.883 76.3412C252.859 76.1706 252.801 75.7532 252.623 75.7532C252.327 75.7532 251.816 77.4124 251.764 77.5836C251.212 79.2251 250.661 80.9951 250.661 82.7364V82.8859C250.661 82.8947 250.66 82.9066 250.66 82.9209C250.656 83.0364 250.648 83.3053 250.793 83.2957C250.886 83.2872 250.968 83.2066 251.028 83.1462Z" fill="#818592"/>
<path d="M257.999 77.0236L258.284 76.8934L258.289 76.8916L258.297 76.8884L258.314 76.8801C258.34 76.8674 258.37 76.8524 258.406 76.8524C258.468 76.8524 258.519 76.9221 258.519 76.9825C258.515 77.0346 258.501 77.0855 258.477 77.132L258.151 77.8524C257.487 79.3033 256.209 80.875 254.809 81.7255C254.319 82.016 252.929 82.7751 252.346 82.7751C252.235 82.7751 252.163 82.7147 252.163 82.6055C252.163 82.0413 253.955 80.2974 254.498 79.769L254.565 79.7038C255.423 78.854 256.885 77.5527 257.999 77.0236Z" fill="#818592"/>
<path d="M253.277 72.6602L253.237 73.3302C253.206 73.8314 253.186 74.3411 253.186 74.8415C253.186 75.1823 253.461 79.6937 254.065 79.6937C254.555 79.6937 254.963 76.943 254.963 76.5921C254.963 75.462 254.688 74.2714 254.137 73.2806L253.707 72.5207L253.686 72.4862C253.634 72.4016 253.559 72.2793 253.461 72.2705C253.329 72.2604 253.293 72.5379 253.28 72.6405L253.277 72.6602Z" fill="#818592"/>
<path d="M256.026 74.881L255.943 75.3318L255.938 75.3587C255.919 75.4497 255.891 75.5812 255.781 75.5812C255.219 75.5812 253.859 71.389 253.706 70.7693C253.695 70.7391 253.257 69.2882 253.604 69.2882C254.136 69.2882 255.269 71.2891 255.473 71.75C255.832 72.5207 256.086 73.341 256.086 74.2024C256.087 74.4317 256.068 74.6618 256.026 74.881Z" fill="#818592"/>
<path d="M258.438 68.5872L258.376 67.6972C258.366 67.567 258.316 66.9574 258.09 66.9566C257.855 66.9566 257.43 68.3777 257.291 68.8401L257.291 68.8423C257.273 68.9021 257.26 68.9456 257.253 68.9676C256.761 70.5478 256.353 72.1086 256.353 73.7803C256.353 73.891 256.373 74.2009 256.548 74.2009C256.997 74.2009 257.824 72.379 257.937 72.0792C258.253 71.1481 258.457 70.028 258.457 69.0473C258.457 68.8978 258.457 68.7476 258.438 68.5872Z" fill="#818592"/>
<path d="M255.74 78.3234L255.26 78.5945C255.208 78.6287 255.149 78.649 255.087 78.6534C255.015 78.6534 255.004 78.5442 255.004 78.4946C255.004 77.5643 258.222 71.76 258.927 71.76C259 71.76 259 71.8801 259 71.9305C259 73.0513 258.673 74.2218 258.254 75.2629C257.815 76.3621 256.792 77.7331 255.74 78.3234Z" fill="#818592"/>
<path d="M256.231 71.3294V70.9893C256.261 69.4881 255.045 67.7777 253.881 66.897L253.195 66.3764C253.093 66.2967 252.951 66.1967 252.807 66.1967C252.736 66.1967 252.705 66.2765 252.705 66.3369C252.705 67.2471 254.473 69.7685 255.045 70.4386L255.731 71.2387C255.748 71.2578 255.766 71.2807 255.787 71.3054C255.873 71.4113 255.985 71.5494 256.118 71.5494C256.231 71.5494 256.231 71.4192 256.231 71.3294Z" fill="#818592"/>
<path d="M252.224 63.7853L252.103 63.3849C252.098 63.3696 252.093 63.3538 252.088 63.3376C252.071 63.2803 252.052 63.2193 252.052 63.1649C252.052 63.1145 252.092 63.0843 252.143 63.0843C252.819 63.0843 254.249 64.7149 254.636 65.2556C255.066 65.866 255.567 66.6964 255.567 67.4563L255.567 67.4849C255.569 67.6 255.573 67.8668 255.434 67.8668C254.555 67.8676 252.459 64.5755 252.224 63.7853Z" fill="#818592"/>
<path d="M253.584 61.4243L252.869 60.7837C252.808 60.7233 252.725 60.6536 252.634 60.6536C252.338 60.6234 252.929 62.0944 252.94 62.1145C253.186 62.7055 254.668 65.6266 255.443 65.6266C255.614 65.6266 255.603 65.2745 255.597 65.0992C255.597 65.0741 255.596 65.0526 255.596 65.0364C255.596 63.7056 254.534 62.2748 253.584 61.4243Z" fill="#818592"/>
<path d="M256.761 69.5082L256.588 69.8785L256.583 69.8879C256.554 69.9459 256.522 70.0086 256.444 70.0086C256.045 70.0086 255.821 67.0566 255.821 66.6971C255.821 66.3765 256.068 63.1649 256.342 63.1649C256.454 63.1649 256.545 63.4722 256.589 63.6215L256.599 63.6567C256.602 63.668 256.605 63.6774 256.608 63.6847L256.904 64.4949C257.19 65.2656 257.263 66.2254 257.263 67.0465C257.264 67.8777 257.1 68.7483 256.761 69.5082Z" fill="#818592"/>
<path d="M164.043 62.2736C164.043 60.1024 162.204 58.2712 159.976 58.2712C157.748 58.2712 155.909 60.1024 155.909 62.2736C155.909 64.455 157.749 66.2955 159.976 66.2955C162.214 66.2955 164.043 64.4449 164.043 62.2736Z" fill="#818592"/>
</svg>
