<svg width="370" height="145" viewBox="0 0 370 145" fill="none" xmlns="http://www.w3.org/2000/svg">
<g clip-path="url(#clip0)">
<path fill-rule="evenodd" clip-rule="evenodd" d="M201.98 104.196C201.98 104.196 207.855 94.6215 211.991 91.9004C211.991 91.9004 210.576 99.6227 207.532 102.235C207.532 102.235 215.691 103.213 220.805 98.4259C220.801 98.4301 217.32 109.634 201.98 104.196Z" fill="#818592"/>
<path fill-rule="evenodd" clip-rule="evenodd" d="M212.205 99.8447C212.205 99.8447 212.533 91.3582 216.665 84.6143C216.665 84.6143 217.643 91.7949 215.577 96.1452C215.577 96.1452 219.709 92.5549 222.43 91.1398C225.151 89.7247 226.78 87.0036 226.78 87.0036C226.785 87.0078 225.37 97.7745 212.205 99.8447Z" fill="#818592"/>
<path fill-rule="evenodd" clip-rule="evenodd" d="M219.168 90.7038C219.168 90.7038 217.643 81.0205 220.037 75.1458C220.037 75.1458 222.431 79.3912 221.015 85.6984C221.015 85.6984 225.366 80.5837 227.218 78.8453C229.065 77.1026 229.611 74.3857 229.611 74.3857C229.615 74.3857 230.375 84.0691 219.168 90.7038Z" fill="#818592"/>
<path fill-rule="evenodd" clip-rule="evenodd" d="M224.391 79.9327C224.391 79.9327 221.128 75.4732 221.128 71.6645C221.128 67.8558 219.932 65.4623 219.932 65.4623C219.932 65.4623 223.849 69.5985 224.282 74.4905C224.282 74.4905 226.566 69.5943 227.654 68.5067C228.742 67.4191 229.502 62.7412 229.502 62.7412C229.502 62.7412 232.223 69.8168 224.391 79.9327Z" fill="#818592"/>
<path fill-rule="evenodd" clip-rule="evenodd" d="M217.866 57.8491C217.866 57.8491 220.151 66.4448 225.807 69.4892C225.807 69.4892 229.506 58.8275 224.828 51.8652C224.828 51.8652 223.741 62.9637 224.392 64.7022C224.392 64.7022 221.671 60.1334 217.866 57.8491Z" fill="#818592"/>
<path fill-rule="evenodd" clip-rule="evenodd" d="M213.079 49.253C213.079 49.253 215.473 56.7612 222.981 59.9147C222.981 59.9147 224.178 49.253 219.39 45.4443C219.39 45.4443 219.281 52.4066 221.024 55.0185C221.02 55.0227 216.56 51.214 213.079 49.253Z" fill="#818592"/>
<path fill-rule="evenodd" clip-rule="evenodd" d="M211.554 42.9463C211.554 42.9463 211.008 47.515 218.298 51.1053C218.298 51.1053 218.298 46.2091 211.554 42.9463Z" fill="#818592"/>
<path fill-rule="evenodd" clip-rule="evenodd" d="M212.99 108.222C212.99 108.222 209.224 108.676 201.094 105.963C192.96 103.251 179.254 107.618 173.833 113.644L174.887 115C174.887 115 182.567 105.51 191.604 108.071C200.641 110.633 205.911 113.194 212.99 108.222Z" fill="#818592"/>
<path fill-rule="evenodd" clip-rule="evenodd" d="M168.983 104.196C168.983 104.196 163.109 94.6215 158.972 91.9004C158.972 91.9004 160.387 99.6227 163.432 102.235C163.432 102.235 155.273 103.213 150.158 98.4259C150.158 98.4301 153.644 109.634 168.983 104.196Z" fill="#818592"/>
<path fill-rule="evenodd" clip-rule="evenodd" d="M158.754 99.8447C158.754 99.8447 158.427 91.3582 154.295 84.6143C154.295 84.6143 153.316 91.7949 155.382 96.1452C155.382 96.1452 151.25 92.5549 148.529 91.1398C145.808 89.7247 144.179 87.0036 144.179 87.0036C144.179 87.0036 145.59 97.7745 158.754 99.8447Z" fill="#818592"/>
<path fill-rule="evenodd" clip-rule="evenodd" d="M151.791 90.7038C151.791 90.7038 153.316 81.0205 150.922 75.1458C150.922 75.1458 148.529 79.3912 149.944 85.6984C149.944 85.6984 145.593 80.5837 143.741 78.8453C141.894 77.1026 141.348 74.3857 141.348 74.3857C141.348 74.3857 140.584 84.0691 151.791 90.7038Z" fill="#818592"/>
<path fill-rule="evenodd" clip-rule="evenodd" d="M146.572 79.9327C146.572 79.9327 149.835 75.4732 149.835 71.6645C149.835 67.8558 151.032 65.4623 151.032 65.4623C151.032 65.4623 147.114 69.5985 146.681 74.4905C146.681 74.4905 144.397 69.5943 143.309 68.5067C142.222 67.4191 141.462 62.7412 141.462 62.7412C141.462 62.7412 138.736 69.8168 146.572 79.9327Z" fill="#818592"/>
<path fill-rule="evenodd" clip-rule="evenodd" d="M153.098 57.8491C153.098 57.8491 150.813 66.4448 145.157 69.4892C145.157 69.4892 141.458 58.8275 146.136 51.8652C146.136 51.8652 147.223 62.9637 146.572 64.7022C146.572 64.7022 149.289 60.1334 153.098 57.8491Z" fill="#818592"/>
<path fill-rule="evenodd" clip-rule="evenodd" d="M157.884 49.253C157.884 49.253 155.491 56.7612 147.983 59.9147C147.983 59.9147 146.786 49.253 151.573 45.4443C151.573 45.4443 151.682 52.4066 149.939 55.0185C149.944 55.0227 154.403 51.214 157.884 49.253Z" fill="#818592"/>
<path fill-rule="evenodd" clip-rule="evenodd" d="M159.409 42.9463C159.409 42.9463 159.955 47.515 152.665 51.1053C152.661 51.1053 152.661 46.2091 159.409 42.9463Z" fill="#818592"/>
<path fill-rule="evenodd" clip-rule="evenodd" d="M157.973 108.222C157.973 108.222 161.739 108.676 169.869 105.963C178.003 103.251 191.709 107.618 197.13 113.644L196.076 115C196.076 115 188.396 105.51 179.359 108.071C170.322 110.633 165.048 113.194 157.973 108.222Z" fill="#818592"/>
<path fill-rule="evenodd" clip-rule="evenodd" d="M160.236 53.3472C166.367 57.8866 170.516 65.6509 174.249 74.087C175.555 73.3018 176.865 72.5165 178.171 71.7313C181.085 71.7313 184 71.7313 186.914 71.7313C186.187 63.4379 190.781 53.0533 186.8 47.9639C185.604 50.2062 183.865 52.2344 183.214 54.691C181.417 61.4391 180.3 66.2009 178.171 68.5945C173.077 59.8518 167.425 53.4144 160.236 53.3472Z" fill="#818592"/>
<path d="M179.393 65.9532H179.41C179.481 65.9448 179.553 65.9448 179.62 65.949C179.687 65.9532 179.754 65.9616 179.817 65.9784C180.162 66.0582 180.413 66.2766 180.447 66.5705V66.5747V66.5873C180.464 66.7889 180.367 66.982 180.195 67.129C180.04 67.2634 179.817 67.36 179.565 67.3936H179.548H179.532C179.28 67.4188 179.045 67.3684 178.86 67.2718C178.662 67.1668 178.524 66.9988 178.499 66.7931V66.7805V66.7763V66.7637C178.494 66.7049 178.499 66.6419 178.511 66.5873C178.524 66.5327 178.549 66.4781 178.578 66.4236C178.713 66.18 179.019 65.991 179.393 65.9532ZM179.439 66.2598H179.422C179.15 66.2892 178.931 66.4152 178.839 66.5747C178.822 66.5999 178.814 66.6293 178.805 66.6587C178.801 66.6839 178.797 66.7133 178.801 66.7385V66.7469V66.7553C178.814 66.8561 178.889 66.9401 179.003 67.003C179.133 67.0744 179.309 67.108 179.498 67.0912H179.511H179.523C179.712 67.0702 179.876 66.9988 179.989 66.9023C180.086 66.8183 180.141 66.7175 180.132 66.6167V66.6083C180.115 66.4571 179.96 66.3354 179.742 66.285C179.695 66.2766 179.645 66.2682 179.595 66.264C179.548 66.2514 179.494 66.2514 179.439 66.2598Z" fill="#818592"/>
<path d="M179.158 64.7687H179.175C179.246 64.7603 179.317 64.7603 179.38 64.7645C179.447 64.7687 179.51 64.7771 179.573 64.7939C179.914 64.8695 180.166 65.0878 180.199 65.3776V65.3818V65.3944C180.216 65.5959 180.119 65.7849 179.947 65.9319C179.792 66.0662 179.573 66.1628 179.326 66.1922H179.309H179.292C179.221 66.2006 179.149 66.2006 179.086 66.1964C179.019 66.1922 178.956 66.1838 178.893 66.167C178.553 66.0914 178.301 65.8731 178.268 65.5833V65.5791V65.5665C178.251 65.365 178.347 65.176 178.519 65.029C178.675 64.8988 178.893 64.7981 179.141 64.7687H179.158ZM179.204 65.0752H179.191H179.175C178.986 65.0962 178.826 65.1676 178.717 65.26C178.62 65.3398 178.566 65.4405 178.574 65.5371V65.5455C178.591 65.6925 178.746 65.8101 178.956 65.8605C179.002 65.8689 179.053 65.8773 179.103 65.8815C179.154 65.8857 179.208 65.8857 179.263 65.8773H179.275H179.292C179.481 65.8563 179.641 65.7849 179.75 65.6925C179.846 65.6127 179.901 65.5119 179.893 65.4154V65.407C179.876 65.26 179.72 65.1424 179.506 65.092C179.46 65.0836 179.414 65.0752 179.359 65.071C179.309 65.0668 179.259 65.0668 179.204 65.0752Z" fill="#818592"/>
<path d="M178.923 63.5851H178.94C179.011 63.5767 179.078 63.5767 179.146 63.5809C179.213 63.5851 179.276 63.5935 179.339 63.6103C179.675 63.6859 179.927 63.9 179.956 64.1856V64.1898V64.2024C179.973 64.3997 179.876 64.5887 179.708 64.7315C179.553 64.8616 179.339 64.9582 179.091 64.9876H179.074H179.057C178.986 64.996 178.919 64.996 178.852 64.9918C178.789 64.9876 178.722 64.9792 178.659 64.9666C178.323 64.891 178.071 64.6769 178.037 64.3913V64.3871V64.3745C178.02 64.1772 178.117 63.9882 178.285 63.8454C178.44 63.7153 178.654 63.6187 178.902 63.5893L178.923 63.5851ZM178.969 63.8916H178.957H178.94C178.755 63.9126 178.596 63.984 178.486 64.0764C178.394 64.1562 178.339 64.2528 178.348 64.3451V64.3493C178.365 64.4921 178.516 64.6097 178.726 64.6559C178.772 64.6643 178.818 64.6727 178.873 64.6769C178.923 64.6811 178.978 64.6811 179.028 64.6727H179.041H179.057C179.242 64.6517 179.402 64.5803 179.511 64.4879C179.603 64.4081 179.658 64.3115 179.65 64.2192V64.2108C179.633 64.068 179.482 63.9504 179.272 63.9042C179.225 63.8958 179.179 63.8874 179.129 63.8832C179.074 63.8874 179.02 63.8874 178.969 63.8916Z" fill="#818592"/>
<path d="M178.688 62.4005H178.705C178.776 62.3921 178.843 62.3921 178.906 62.3963C178.974 62.4005 179.037 62.4089 179.1 62.4215C179.436 62.4971 179.683 62.7071 179.713 62.9884V62.9926V63.0052C179.73 63.2026 179.633 63.3873 179.465 63.5301C179.314 63.6603 179.095 63.7526 178.852 63.782H178.835H178.818C178.747 63.7904 178.68 63.7904 178.617 63.7862C178.55 63.782 178.487 63.7736 178.424 63.761C178.088 63.6855 177.84 63.4755 177.81 63.1942V63.19V63.1774C177.794 62.98 177.89 62.7952 178.058 62.6525C178.209 62.5223 178.428 62.4299 178.671 62.4005H178.688ZM178.734 62.7071H178.722H178.705C178.52 62.728 178.365 62.7952 178.256 62.8876C178.163 62.9632 178.113 63.0598 178.117 63.1522V63.1606C178.134 63.2991 178.285 63.4125 178.491 63.4587C178.533 63.4671 178.583 63.4755 178.634 63.4797C178.684 63.4839 178.738 63.4839 178.789 63.4755H178.801H178.818C179.003 63.4545 179.158 63.3873 179.268 63.2949C179.36 63.2194 179.41 63.1228 179.406 63.0304V63.0262C179.389 62.8876 179.238 62.7742 179.032 62.728C178.99 62.7196 178.94 62.7113 178.89 62.7071C178.839 62.7029 178.785 62.7029 178.734 62.7071Z" fill="#818592"/>
<path d="M178.453 61.2169H178.47C178.541 61.2127 178.608 61.2085 178.671 61.2127C178.734 61.2169 178.801 61.2253 178.86 61.2379C179.192 61.3093 179.44 61.5192 179.469 61.7964V61.8006V61.8132V61.8174C179.486 62.0105 179.389 62.1953 179.226 62.3339C179.074 62.4598 178.86 62.5522 178.621 62.5816H178.604H178.587C178.52 62.59 178.453 62.59 178.386 62.5858C178.323 62.5816 178.255 62.5732 178.197 62.5606C177.865 62.4892 177.617 62.2793 177.588 62.0021V61.9979V61.9853V61.9811C177.571 61.788 177.668 61.6032 177.831 61.4646C177.983 61.3387 178.197 61.2463 178.436 61.2169H178.453ZM178.499 61.5234H178.486H178.47C178.289 61.5444 178.134 61.6116 178.025 61.6998C177.936 61.7754 177.882 61.8677 177.89 61.9559V61.9601C177.907 62.0945 178.054 62.2079 178.26 62.2499C178.302 62.2583 178.352 62.2667 178.402 62.2709C178.453 62.2751 178.503 62.2751 178.558 62.2667H178.575H178.591C178.772 62.2457 178.927 62.1785 179.037 62.0903C179.129 62.0147 179.179 61.9223 179.171 61.8342V61.83C179.154 61.6956 179.007 61.5822 178.801 61.5402C178.759 61.5318 178.709 61.5234 178.659 61.5192C178.6 61.5192 178.549 61.5192 178.499 61.5234Z" fill="#818592"/>
<path d="M178.217 60.0362H178.234C178.301 60.032 178.368 60.0278 178.431 60.032C178.494 60.0362 178.557 60.0446 178.62 60.0572C178.952 60.1286 179.196 60.3386 179.225 60.6073V60.6115V60.6241V60.6283C179.242 60.8215 179.145 61.002 178.981 61.1406C178.83 61.2624 178.62 61.3548 178.381 61.3841H178.364H178.347C178.28 61.3883 178.213 61.3925 178.15 61.3883C178.083 61.3842 178.02 61.3758 177.961 61.3632C177.629 61.2918 177.386 61.0818 177.356 60.8131V60.8089V60.7963V60.7921C177.34 60.5989 177.436 60.4183 177.6 60.2798C177.747 60.158 177.961 60.0656 178.2 60.0362H178.217ZM178.263 60.3386H178.247H178.23C178.053 60.3596 177.898 60.4225 177.793 60.5107C177.705 60.5863 177.655 60.6745 177.659 60.7585V60.7627C177.676 60.8928 177.822 61.002 178.02 61.044C178.066 61.0524 178.112 61.0608 178.158 61.065C178.209 61.0692 178.259 61.0692 178.31 61.065H178.326H178.343C178.52 61.044 178.675 60.981 178.78 60.8928C178.868 60.8173 178.918 60.7291 178.914 60.6451V60.6409C178.897 60.5107 178.751 60.4015 178.553 60.3596C178.511 60.3512 178.465 60.3428 178.415 60.3428C178.364 60.3344 178.314 60.3344 178.263 60.3386Z" fill="#818592"/>
<path d="M177.983 58.8526H177.999C178.067 58.8484 178.134 58.8442 178.197 58.8484C178.264 58.8526 178.327 58.861 178.381 58.8736C178.709 58.945 178.948 59.1466 178.982 59.4153V59.4195V59.4321V59.4363C178.999 59.6253 178.902 59.8058 178.738 59.9402C178.591 60.062 178.381 60.1502 178.146 60.1796H178.13H178.113C178.046 60.1838 177.978 60.188 177.915 60.1838C177.848 60.1796 177.785 60.1712 177.726 60.1586C177.399 60.0872 177.16 59.8814 177.126 59.6169V59.6127V59.6001V59.5959C177.109 59.4069 177.206 59.2263 177.369 59.092C177.516 58.9702 177.726 58.882 177.962 58.8526H177.983ZM178.029 59.155H178.016H177.999C177.823 59.176 177.672 59.2389 177.567 59.3229C177.479 59.3943 177.428 59.4825 177.437 59.5623V59.5665C177.449 59.6967 177.596 59.7974 177.794 59.8436C177.84 59.852 177.886 59.8604 177.932 59.8646C177.983 59.8688 178.033 59.8688 178.083 59.8646H178.096H178.113C178.289 59.8436 178.44 59.7806 178.545 59.6967C178.633 59.6253 178.684 59.5413 178.675 59.4573V59.4531C178.663 59.3229 178.516 59.2221 178.318 59.176C178.272 59.1676 178.226 59.1592 178.18 59.155C178.13 59.1508 178.079 59.1508 178.029 59.155Z" fill="#818592"/>
<path d="M177.743 57.6683H177.759C177.822 57.6641 177.89 57.6641 177.953 57.6641C178.016 57.6683 178.079 57.6767 178.137 57.6893C178.461 57.7606 178.7 57.9622 178.734 58.2268V58.231V58.2436V58.2477C178.751 58.4367 178.654 58.6131 178.49 58.7433C178.343 58.8608 178.137 58.949 177.902 58.9784H177.885H177.869C177.806 58.9826 177.738 58.9868 177.676 58.9826C177.613 58.9784 177.55 58.97 177.491 58.9574C177.167 58.886 176.928 58.6887 176.894 58.4199V58.4157V58.4031C176.878 58.2142 176.974 58.0378 177.138 57.9076C177.285 57.79 177.491 57.7019 177.726 57.6725L177.743 57.6683ZM177.789 57.9748H177.776H177.759C177.583 57.9958 177.436 58.0588 177.331 58.1428C177.247 58.21 177.197 58.2939 177.205 58.3737V58.3779C177.218 58.5039 177.361 58.6047 177.558 58.6467C177.6 58.6551 177.646 58.6635 177.697 58.6635C177.743 58.6677 177.793 58.6677 177.843 58.6635H177.856H177.873C178.049 58.6425 178.196 58.5795 178.301 58.4955C178.385 58.4241 178.436 58.3443 178.427 58.2645V58.2603C178.415 58.1344 178.272 58.0336 178.074 57.9916C178.032 57.9832 177.986 57.9748 177.936 57.9748C177.894 57.9664 177.843 57.9706 177.789 57.9748Z" fill="#818592"/>
<path d="M177.508 56.4835H177.525C177.592 56.4793 177.655 56.4751 177.718 56.4793C177.781 56.4835 177.844 56.4919 177.898 56.5045C178.217 56.5717 178.457 56.7732 178.486 57.0336V57.0378V57.0504V57.0546C178.503 57.2393 178.411 57.4115 178.247 57.5459C178.104 57.6635 177.898 57.7474 177.663 57.7768H177.646H177.63C177.562 57.781 177.499 57.7852 177.436 57.781C177.373 57.7768 177.31 57.7684 177.256 57.7558C176.937 57.6886 176.697 57.4871 176.668 57.2267V57.2225V57.2141C176.651 57.0294 176.744 56.853 176.907 56.7228C177.054 56.6053 177.256 56.5213 177.491 56.4919L177.508 56.4835ZM177.558 56.79H177.541H177.525C177.352 56.811 177.201 56.8698 177.1 56.9538C177.017 57.021 176.97 57.1008 176.975 57.1763V57.1805C176.987 57.3023 177.13 57.3989 177.319 57.4409C177.361 57.4493 177.407 57.4577 177.453 57.4577C177.499 57.4619 177.55 57.4619 177.6 57.4577H177.613H177.63C177.802 57.4367 177.949 57.3779 178.054 57.2939C178.138 57.2267 178.184 57.147 178.18 57.0672V57.063C178.167 56.9412 178.024 56.8446 177.831 56.8026C177.789 56.7942 177.743 56.7858 177.697 56.7858C177.655 56.7858 177.604 56.7858 177.558 56.79Z" fill="#818592"/>
<path d="M177.272 55.3001H177.289C177.352 55.2959 177.415 55.2959 177.478 55.2959C177.541 55.3001 177.6 55.3085 177.658 55.3211C177.978 55.3883 178.213 55.5856 178.242 55.8418V55.846V55.8586C178.259 56.0392 178.167 56.2113 178.003 56.3415C177.86 56.4549 177.658 56.5389 177.428 56.5683H177.407H177.39C177.327 56.5725 177.264 56.5725 177.201 56.5725C177.138 56.5683 177.079 56.5599 177.02 56.5473C176.701 56.4801 176.466 56.2827 176.437 56.0266V56.0224V56.014C176.42 55.8334 176.512 55.6612 176.676 55.5311C176.819 55.4177 177.02 55.3337 177.251 55.3043L177.272 55.3001ZM177.318 55.6066H177.306H177.289C177.121 55.6276 176.974 55.6864 176.873 55.7662C176.793 55.8334 176.743 55.909 176.751 55.9846V55.9888C176.764 56.1063 176.903 56.2029 177.092 56.2407C177.134 56.2491 177.18 56.2575 177.226 56.2575C177.272 56.2617 177.318 56.2617 177.369 56.2575H177.381H177.398C177.566 56.2365 177.713 56.1777 177.814 56.0979C177.894 56.0308 177.944 55.9552 177.936 55.8796V55.8754C177.923 55.7578 177.784 55.6612 177.596 55.6234C177.554 55.615 177.507 55.6066 177.461 55.6066C177.419 55.6024 177.369 55.6024 177.318 55.6066Z" fill="#818592"/>
<path d="M177.042 54.1155H177.059C177.122 54.1113 177.185 54.1113 177.248 54.1113C177.311 54.1155 177.37 54.1239 177.428 54.1365C177.743 54.2037 177.979 54.3969 178.008 54.6488V54.653V54.6656C178.025 54.8462 177.932 55.0142 177.773 55.1401C177.63 55.2535 177.433 55.3375 177.206 55.3627L177.185 55.3669H177.181H177.164C177.101 55.3711 177.038 55.3711 176.975 55.3711C176.912 55.3669 176.853 55.3585 176.794 55.3459C176.479 55.2787 176.244 55.0855 176.215 54.8336V54.8294V54.821V54.8168C176.198 54.6362 176.29 54.4683 176.45 54.3423C176.593 54.2289 176.79 54.1491 177.017 54.1197L177.042 54.1155ZM177.084 54.4221H177.067H177.05C176.883 54.4431 176.74 54.5019 176.639 54.5774C176.559 54.6404 176.513 54.716 176.521 54.7874V54.7916C176.534 54.905 176.673 54.9974 176.857 55.0351C176.899 55.0435 176.946 55.0519 176.992 55.0519C177.038 55.0561 177.084 55.0519 177.139 55.0477H177.155H177.172C177.34 55.0268 177.483 54.9722 177.584 54.8924C177.664 54.8294 177.71 54.7538 177.706 54.6824V54.6782C177.693 54.5648 177.554 54.4725 177.37 54.4347C177.328 54.4263 177.281 54.4179 177.235 54.4179C177.185 54.4179 177.134 54.4179 177.084 54.4221Z" fill="#818592"/>
<path d="M176.806 52.931H176.823C176.886 52.9268 176.949 52.9268 177.008 52.9268C177.067 52.931 177.125 52.9394 177.184 52.9478C177.499 53.0149 177.73 53.2039 177.759 53.4517V53.4559V53.4685C177.776 53.6448 177.684 53.8128 177.524 53.9388C177.386 54.0479 177.188 54.1319 176.966 54.1571L176.945 54.1613H176.941H176.924C176.861 54.1655 176.798 54.1655 176.739 54.1655C176.68 54.1613 176.621 54.1529 176.563 54.1403C176.248 54.0731 176.017 53.8842 175.987 53.6364V53.6322V53.6238V53.6196C175.971 53.4433 176.063 53.2753 176.218 53.1535C176.357 53.0443 176.554 52.9604 176.777 52.9352L176.806 52.931ZM176.848 53.2375H176.831L176.81 53.2417C176.647 53.2627 176.504 53.3173 176.407 53.3929C176.332 53.4559 176.285 53.5272 176.29 53.5944V53.5986C176.302 53.7078 176.437 53.8002 176.621 53.838C176.663 53.8464 176.705 53.8506 176.752 53.8548C176.798 53.859 176.844 53.8548 176.894 53.8506H176.911H176.928C177.092 53.8296 177.234 53.775 177.331 53.6994C177.407 53.6364 177.453 53.565 177.449 53.4978V53.4936C177.436 53.3845 177.302 53.2921 177.117 53.2543C177.075 53.2459 177.033 53.2417 176.987 53.2375C176.945 53.2333 176.899 53.2333 176.848 53.2375Z" fill="#818592"/>
<path d="M176.571 51.7474H176.588C176.651 51.7432 176.71 51.7432 176.773 51.7432C176.832 51.7474 176.891 51.7558 176.949 51.7642C177.26 51.8271 177.491 52.0161 177.52 52.2597V52.2639V52.2723V52.2765C177.533 52.4528 177.445 52.6166 177.289 52.7384C177.151 52.8476 176.958 52.9273 176.739 52.9525L176.714 52.9567H176.71H176.693C176.634 52.9609 176.571 52.9609 176.508 52.9609C176.45 52.9567 176.391 52.9483 176.332 52.9399C176.021 52.8769 175.79 52.688 175.761 52.4444V52.4402V52.4318V52.4276C175.748 52.2513 175.837 52.0875 175.992 51.9657C176.13 51.8565 176.324 51.7768 176.542 51.7516L176.571 51.7474ZM176.613 52.0581H176.597H176.576C176.412 52.0791 176.273 52.1337 176.177 52.2093C176.101 52.2681 176.059 52.3394 176.063 52.4024V52.4066C176.076 52.5116 176.206 52.5998 176.387 52.6376C176.424 52.646 176.471 52.6502 176.517 52.6544C176.559 52.6586 176.609 52.6544 176.655 52.6502H176.672H176.693C176.857 52.6292 176.996 52.5746 177.092 52.499C177.168 52.4402 177.21 52.3688 177.205 52.3059V52.3017C177.193 52.1967 177.063 52.1085 176.882 52.0707C176.84 52.0623 176.798 52.0581 176.752 52.0539C176.71 52.0497 176.664 52.0539 176.613 52.0581Z" fill="#818592"/>
<path d="M176.332 50.5677H176.349C176.408 50.5635 176.471 50.5635 176.53 50.5635C176.588 50.5677 176.647 50.5761 176.702 50.5845C177.008 50.6475 177.239 50.8322 177.269 51.0716V51.0758V51.0842V51.0884C177.281 51.2605 177.197 51.4201 177.038 51.5419C176.903 51.6469 176.71 51.7266 176.496 51.7518L176.467 51.756H176.462H176.446C176.387 51.7602 176.324 51.7602 176.261 51.7602C176.202 51.756 176.143 51.7476 176.089 51.7392C175.782 51.6763 175.551 51.4915 175.522 51.2521V51.2479V51.2395V51.2353C175.509 51.0632 175.593 50.9036 175.749 50.7818C175.883 50.6769 176.076 50.5971 176.29 50.5719L176.332 50.5677ZM176.378 50.8742H176.362L176.336 50.8784C176.177 50.8994 176.038 50.954 175.946 51.0254C175.874 51.0842 175.832 51.1472 175.837 51.2101V51.2143C175.849 51.3151 175.979 51.3991 176.156 51.4369C176.194 51.4453 176.24 51.4495 176.286 51.4537C176.328 51.4579 176.374 51.4537 176.425 51.4495H176.441L176.467 51.4453C176.626 51.4243 176.765 51.3739 176.857 51.2983C176.928 51.2395 176.975 51.1766 176.966 51.1136V51.1094C176.954 51.0086 176.823 50.9246 176.647 50.8868C176.609 50.8784 176.563 50.8742 176.517 50.87C176.471 50.87 176.425 50.87 176.378 50.8742Z" fill="#818592"/>
<path d="M180.817 64.4202H180.829C180.896 64.4118 180.968 64.4076 181.039 64.4118C181.111 64.4118 181.178 64.4202 181.236 64.4328C181.585 64.5 181.845 64.7141 181.883 65.0081V65.0123V65.0207C181.908 65.2264 181.816 65.4196 181.648 65.575C181.497 65.7135 181.274 65.8185 181.022 65.8563H181.01H181.006H180.993C180.926 65.8647 180.854 65.8689 180.783 65.8647C180.712 65.8647 180.644 65.8563 180.586 65.8437C180.237 65.7765 179.977 65.5624 179.939 65.2684V65.2642V65.2558C179.931 65.197 179.935 65.1383 179.947 65.0795C179.96 65.0207 179.981 64.9661 180.01 64.9157C180.141 64.668 180.443 64.4706 180.817 64.4202ZM180.867 64.7267H180.854C180.581 64.7645 180.367 64.8989 180.279 65.0585C180.266 65.0837 180.254 65.1131 180.25 65.1425C180.245 65.1677 180.241 65.197 180.245 65.2222V65.2306C180.266 65.3818 180.43 65.4952 180.644 65.5414C180.695 65.5498 180.745 65.5582 180.791 65.5582C180.842 65.5582 180.896 65.5582 180.951 65.5498H180.964H180.972C181.161 65.5204 181.325 65.4448 181.434 65.3482C181.53 65.26 181.581 65.1593 181.572 65.0585V65.0501C181.551 64.8989 181.388 64.7855 181.174 64.7435C181.123 64.7351 181.077 64.7267 181.027 64.7267C180.98 64.7183 180.926 64.7183 180.867 64.7267Z" fill="#818592"/>
<path d="M180.578 63.3372H180.59C180.662 63.3288 180.729 63.3246 180.796 63.3288C180.867 63.3288 180.93 63.3372 180.993 63.3498C181.338 63.417 181.594 63.6311 181.636 63.9167V63.9209V63.9293C181.661 64.1308 181.569 64.3282 181.401 64.4752C181.25 64.6137 181.031 64.7145 180.779 64.7523H180.767H180.762H180.75C180.678 64.7607 180.611 64.7649 180.544 64.7607C180.477 64.7565 180.41 64.7523 180.347 64.7397C180.002 64.6725 179.742 64.4584 179.704 64.1728V64.1686V64.1602C179.683 63.9587 179.771 63.7655 179.939 63.6143C180.091 63.4758 180.309 63.375 180.561 63.3372H180.578ZM180.628 63.6395H180.615H180.607C180.418 63.6647 180.259 63.7403 180.149 63.8411C180.057 63.9251 180.002 64.0259 180.015 64.1224V64.1308C180.036 64.2778 180.196 64.3912 180.41 64.4332C180.456 64.4416 180.506 64.45 180.557 64.45C180.607 64.45 180.662 64.45 180.716 64.4416H180.729H180.737C180.926 64.4164 181.086 64.3408 181.195 64.2442C181.287 64.1602 181.342 64.0595 181.329 63.9629V63.9545C181.308 63.8075 181.149 63.6941 180.935 63.6521C180.888 63.6437 180.838 63.6353 180.788 63.6353C180.737 63.6311 180.683 63.6353 180.628 63.6395Z" fill="#818592"/>
<path d="M180.338 62.2493H180.35C180.418 62.2409 180.489 62.2367 180.556 62.2409C180.623 62.2451 180.691 62.2493 180.749 62.2619C181.089 62.3291 181.346 62.539 181.388 62.8204V62.8246V62.833C181.409 63.0304 181.32 63.2235 181.152 63.3705C181.001 63.5049 180.787 63.6056 180.539 63.6434H180.527H180.523H180.51C180.443 63.6518 180.371 63.656 180.304 63.6518C180.237 63.6518 180.17 63.6434 180.111 63.6308C179.771 63.5636 179.511 63.3537 179.473 63.0723V63.0681V63.0597C179.452 62.8624 179.54 62.6692 179.708 62.5222C179.859 62.3879 180.073 62.2871 180.321 62.2493H180.338ZM180.388 62.5558H180.376H180.367C180.182 62.581 180.023 62.6566 179.914 62.7532C179.821 62.8372 179.771 62.9338 179.779 63.0304V63.0387C179.8 63.1815 179.956 63.2907 180.17 63.3327C180.216 63.3411 180.266 63.3453 180.317 63.3495C180.367 63.3495 180.418 63.3495 180.476 63.3411H180.489H180.497C180.682 63.3159 180.842 63.2403 180.951 63.1437C181.043 63.0597 181.094 62.9632 181.085 62.8666V62.8582C181.064 62.7154 180.905 62.6062 180.695 62.5642C180.649 62.5558 180.598 62.5516 180.548 62.5474C180.497 62.5474 180.447 62.5474 180.388 62.5558Z" fill="#818592"/>
<path d="M180.103 61.1663H180.115C180.183 61.1579 180.25 61.1537 180.317 61.1579C180.384 61.1621 180.447 61.1663 180.51 61.1789C180.85 61.2419 181.102 61.4518 181.144 61.729V61.7332V61.7416C181.165 61.9389 181.077 62.1279 180.913 62.2749C180.766 62.4093 180.548 62.5058 180.304 62.5436H180.292H180.288H180.275C180.208 62.552 180.141 62.5562 180.073 62.552C180.006 62.5478 179.939 62.5436 179.88 62.531C179.54 62.468 179.288 62.2581 179.246 61.9809V61.9767V61.9683C179.225 61.771 179.313 61.582 179.477 61.435C179.624 61.3007 179.843 61.2041 180.086 61.1663H180.103ZM180.153 61.4686H180.141H180.128C179.947 61.4938 179.788 61.5652 179.683 61.6618C179.591 61.7416 179.54 61.8382 179.553 61.9305V61.9389C179.574 62.0775 179.729 62.1867 179.935 62.2245C179.981 62.2329 180.031 62.2371 180.078 62.2413C180.128 62.2413 180.178 62.2413 180.233 62.2329H180.246H180.254C180.439 62.2077 180.594 62.1363 180.699 62.0397C180.792 61.9599 180.842 61.8634 180.829 61.771V61.7626C180.808 61.624 180.653 61.5148 180.447 61.477C180.401 61.4686 180.351 61.4644 180.304 61.4602C180.258 61.4602 180.208 61.4644 180.153 61.4686Z" fill="#818592"/>
<path d="M179.864 60.0784H179.877C179.944 60.07 180.011 60.0658 180.078 60.07C180.145 60.0742 180.208 60.0784 180.267 60.091C180.603 60.154 180.855 60.3597 180.893 60.6327V60.6369V60.6453C180.914 60.8427 180.826 61.0274 180.662 61.1702C180.515 61.3004 180.301 61.397 180.061 61.4347H180.049H180.045H180.032C179.965 61.4431 179.898 61.4473 179.83 61.4431C179.763 61.4431 179.7 61.4347 179.641 61.4221C179.305 61.3592 179.054 61.1534 179.016 60.8805V60.8763V60.8679C178.995 60.6747 179.083 60.4857 179.247 60.343C179.394 60.2128 179.608 60.1162 179.847 60.0784H179.864ZM179.914 60.3849H179.902H179.889C179.709 60.4101 179.553 60.4815 179.448 60.5739C179.36 60.6537 179.31 60.7461 179.318 60.8343V60.8427C179.339 60.977 179.49 61.082 179.696 61.1198C179.742 61.1282 179.788 61.1324 179.839 61.1366C179.885 61.1366 179.94 61.1366 179.994 61.1282H180.007H180.015C180.196 61.103 180.351 61.0316 180.456 60.9392C180.544 60.8595 180.595 60.7671 180.586 60.6789V60.6705C180.565 60.5361 180.414 60.4311 180.208 60.3933C180.162 60.3849 180.116 60.3807 180.066 60.3765C180.019 60.3765 179.969 60.3765 179.914 60.3849Z" fill="#818592"/>
<path d="M179.624 58.9954H179.637C179.704 58.987 179.771 58.9828 179.834 58.987C179.902 58.987 179.965 58.9954 180.023 59.008C180.355 59.071 180.607 59.2725 180.645 59.5455V59.5497V59.5581C180.666 59.7512 180.578 59.936 180.414 60.0788C180.267 60.209 180.057 60.3013 179.818 60.3391H179.805H179.801H179.788C179.721 60.3475 179.654 60.3475 179.591 60.3475C179.524 60.3475 179.461 60.3391 179.402 60.3265C179.07 60.2636 178.818 60.062 178.78 59.7932V59.789V59.7806C178.759 59.5875 178.848 59.4027 179.011 59.2599C179.158 59.1298 179.368 59.0374 179.608 58.9996L179.624 58.9954ZM179.675 59.2977H179.662H179.654C179.473 59.3229 179.322 59.3901 179.217 59.4825C179.129 59.5581 179.083 59.6505 179.091 59.7345V59.7429C179.112 59.873 179.263 59.978 179.465 60.0158C179.511 60.0242 179.557 60.0284 179.608 60.0326C179.654 60.0326 179.708 60.0326 179.759 60.0242H179.771H179.78C179.96 59.999 180.112 59.9318 180.217 59.8394C180.305 59.7638 180.351 59.6715 180.342 59.5875V59.5791C180.322 59.4489 180.17 59.3481 179.969 59.3103C179.923 59.3019 179.876 59.2977 179.826 59.2935C179.78 59.2893 179.729 59.2935 179.675 59.2977Z" fill="#818592"/>
<path d="M179.385 57.9075H179.397C179.46 57.8991 179.528 57.8949 179.595 57.8991C179.658 57.8991 179.721 57.9075 179.78 57.9201C180.111 57.9831 180.359 58.1805 180.397 58.4492V58.4534V58.4618C180.418 58.6508 180.33 58.8355 180.166 58.9741C180.019 59.1001 179.813 59.1967 179.574 59.2303H179.561H179.557H179.544C179.481 59.2387 179.414 59.2428 179.347 59.2386C179.284 59.2386 179.221 59.2303 179.162 59.2177C178.831 59.1547 178.583 58.9573 178.545 58.6886V58.6844V58.676C178.524 58.487 178.612 58.3022 178.776 58.1637C178.923 58.0377 179.129 57.9453 179.368 57.9075H179.385ZM179.435 58.214H179.423H179.414C179.238 58.2392 179.087 58.3064 178.982 58.3946C178.898 58.4702 178.847 58.5542 178.86 58.6382V58.6466C178.881 58.7725 179.028 58.8733 179.225 58.9111C179.272 58.9195 179.318 58.9237 179.364 58.9237C179.41 58.9237 179.46 58.9237 179.515 58.9153H179.528H179.54C179.717 58.8901 179.868 58.8229 179.973 58.7347C180.057 58.6592 180.107 58.5752 180.095 58.4912V58.4828C180.074 58.3568 179.927 58.256 179.729 58.2182C179.683 58.2098 179.637 58.2057 179.591 58.2015C179.54 58.2057 179.49 58.2098 179.435 58.214Z" fill="#818592"/>
<path d="M179.146 56.8238H179.158C179.221 56.8154 179.289 56.8154 179.351 56.8154C179.414 56.8154 179.477 56.8238 179.536 56.8364C179.864 56.8952 180.112 57.0926 180.145 57.3571V57.3613V57.3697C180.166 57.5587 180.078 57.7393 179.918 57.8778C179.776 57.9996 179.57 58.0962 179.335 58.1256H179.322H179.31C179.247 58.134 179.179 58.134 179.116 58.134C179.053 58.134 178.99 58.1256 178.932 58.113C178.604 58.0542 178.356 57.8568 178.318 57.5923V57.5881V57.5797C178.297 57.3907 178.386 57.2102 178.545 57.0716C178.688 56.9498 178.894 56.8532 179.129 56.8238H179.146ZM179.196 57.1304H179.184H179.171C178.995 57.1556 178.848 57.2228 178.747 57.3067C178.663 57.3781 178.617 57.4621 178.625 57.5419V57.5503C178.646 57.6763 178.789 57.7728 178.986 57.8064C179.028 57.8148 179.079 57.819 179.125 57.819C179.171 57.819 179.221 57.819 179.272 57.8106H179.284H179.297C179.473 57.7854 179.62 57.7183 179.721 57.6343C179.805 57.5629 179.851 57.4789 179.843 57.3991V57.3907C179.822 57.2689 179.679 57.1724 179.482 57.1346C179.44 57.1262 179.389 57.122 179.343 57.122C179.301 57.122 179.251 57.122 179.196 57.1304Z" fill="#818592"/>
<path d="M178.906 55.7369H178.919C178.982 55.7285 179.049 55.7285 179.112 55.7285C179.175 55.7285 179.238 55.7369 179.297 55.7495C179.62 55.8083 179.864 56.0015 179.901 56.2618V56.266V56.2744C179.922 56.4592 179.834 56.6355 179.675 56.7741C179.532 56.8959 179.33 56.9883 179.099 57.0219H179.095H179.078H179.066C179.003 57.0303 178.936 57.0303 178.873 57.0303C178.81 57.0303 178.747 57.0219 178.688 57.0093C178.364 56.9505 178.121 56.7573 178.083 56.497V56.4928V56.4844C178.062 56.2996 178.15 56.1232 178.31 55.9847C178.453 55.8629 178.654 55.7705 178.885 55.7369H178.906ZM178.957 56.0435H178.944H178.931C178.759 56.0686 178.612 56.1316 178.511 56.2198C178.432 56.2912 178.385 56.371 178.394 56.4466V56.455C178.411 56.5767 178.558 56.6691 178.751 56.7027C178.793 56.7111 178.839 56.7153 178.885 56.7153C178.931 56.7153 178.982 56.7153 179.032 56.7069H179.045H179.057C179.23 56.6817 179.376 56.6187 179.477 56.5306C179.557 56.4592 179.603 56.3794 179.595 56.3038V56.2954C179.574 56.1778 179.431 56.0812 179.238 56.0477C179.196 56.0393 179.15 56.0351 179.104 56.0351C179.057 56.0351 179.011 56.0393 178.957 56.0435Z" fill="#818592"/>
<path d="M178.667 54.6529H178.68C178.743 54.6445 178.806 54.6445 178.869 54.6445C178.932 54.6445 178.99 54.6529 179.049 54.6613C179.372 54.7201 179.616 54.9091 179.65 55.1652V55.1694V55.1778C179.671 55.3584 179.582 55.5348 179.427 55.6691C179.289 55.7867 179.087 55.8791 178.856 55.9127L178.839 55.9169H178.827C178.764 55.9253 178.701 55.9253 178.638 55.9253C178.575 55.9253 178.516 55.9169 178.457 55.9085C178.134 55.8497 177.894 55.6607 177.857 55.4046V55.4004V55.392C177.836 55.2072 177.924 55.0351 178.079 54.9007C178.218 54.7831 178.419 54.6907 178.65 54.6613L178.667 54.6529ZM178.717 54.9595H178.705L178.688 54.9637C178.52 54.9889 178.373 55.0519 178.277 55.1358C178.197 55.203 178.151 55.2828 178.159 55.3542V55.3626C178.176 55.4802 178.318 55.5684 178.507 55.6061C178.549 55.6145 178.596 55.6187 178.642 55.6187C178.688 55.6187 178.734 55.6187 178.789 55.6103H178.801H178.818C178.99 55.5852 179.133 55.5222 179.23 55.4382C179.31 55.371 179.356 55.2912 179.347 55.2198V55.2114C179.326 55.0938 179.188 55.0057 178.999 54.9721C178.957 54.9637 178.911 54.9595 178.864 54.9595C178.818 54.9511 178.772 54.9511 178.717 54.9595Z" fill="#818592"/>
<path d="M178.427 53.565H178.44C178.502 53.5566 178.565 53.5566 178.628 53.5566C178.691 53.5566 178.75 53.565 178.809 53.5734C179.128 53.6322 179.368 53.817 179.405 54.0689V54.0731V54.0815C179.426 54.2621 179.342 54.4343 179.183 54.5644C179.044 54.682 178.847 54.7702 178.62 54.8038L178.599 54.808H178.595H178.582C178.519 54.8164 178.456 54.8164 178.393 54.8164C178.33 54.8164 178.272 54.808 178.213 54.7996C177.894 54.7408 177.654 54.556 177.616 54.3041V54.2999V54.2915C177.595 54.1109 177.679 53.9388 177.839 53.8086C177.978 53.691 178.175 53.6028 178.402 53.5692L178.427 53.565ZM178.477 53.8716H178.465L178.448 53.8758C178.28 53.901 178.137 53.964 178.041 54.0437C177.965 54.1109 177.919 54.1865 177.927 54.2537V54.2579C177.944 54.3713 178.083 54.4595 178.272 54.4931C178.314 54.5015 178.36 54.5057 178.406 54.5057C178.452 54.5057 178.498 54.5057 178.549 54.5015H178.561L178.578 54.4973C178.746 54.4721 178.889 54.4091 178.985 54.3293C179.065 54.2621 179.107 54.1865 179.099 54.1151V54.1067C179.082 53.9934 178.939 53.9052 178.754 53.8758C178.712 53.8674 178.666 53.8632 178.62 53.8632C178.578 53.8632 178.528 53.8674 178.477 53.8716Z" fill="#818592"/>
<path d="M178.188 52.482H178.201C178.264 52.4736 178.327 52.4736 178.385 52.4736C178.448 52.4736 178.507 52.482 178.562 52.4904C178.877 52.545 179.116 52.7298 179.154 52.9817V52.9859V52.9943C179.175 53.1707 179.091 53.3387 178.935 53.4688C178.801 53.5822 178.604 53.6704 178.381 53.704H178.377L178.352 53.7082H178.339C178.276 53.7166 178.213 53.7166 178.154 53.7166C178.091 53.7166 178.033 53.7082 177.978 53.6998C177.663 53.6452 177.424 53.4604 177.386 53.2085V53.2043V53.1959C177.365 53.0195 177.449 52.8474 177.604 52.7172C177.739 52.6038 177.936 52.5156 178.159 52.482H178.188ZM178.243 52.7886H178.23L178.209 52.7928C178.045 52.818 177.902 52.8768 177.81 52.9565C177.735 53.0195 177.693 53.0909 177.701 53.1623V53.1665C177.718 53.2757 177.856 53.3597 178.041 53.3933C178.083 53.4017 178.125 53.4059 178.171 53.4059C178.217 53.4059 178.264 53.4058 178.314 53.4017H178.327L178.348 53.3975C178.511 53.3723 178.654 53.3135 178.747 53.2337C178.822 53.1707 178.864 53.0993 178.856 53.0321V53.0237C178.839 52.9145 178.7 52.8306 178.516 52.797C178.474 52.7886 178.432 52.7844 178.385 52.7844C178.339 52.7802 178.289 52.7802 178.243 52.7886Z" fill="#818592"/>
<path d="M177.953 51.3941H177.966C178.029 51.3857 178.087 51.3857 178.15 51.3857C178.213 51.3857 178.272 51.3941 178.327 51.4025C178.642 51.4571 178.877 51.6377 178.915 51.8854V51.8896V51.898C178.936 52.0744 178.852 52.2382 178.696 52.3684C178.562 52.4817 178.369 52.5657 178.15 52.5993L178.125 52.6035H178.121H178.108C178.045 52.6119 177.987 52.6119 177.924 52.6119C177.861 52.6119 177.802 52.6035 177.747 52.5951C177.432 52.5405 177.197 52.36 177.159 52.1122V52.108V52.0996C177.138 51.9232 177.222 51.7595 177.378 51.6293C177.512 51.5159 177.705 51.4319 177.924 51.3983L177.953 51.3941ZM178.003 51.7007H177.991L177.97 51.7049C177.806 51.7301 177.672 51.7889 177.575 51.8644C177.5 51.9274 177.462 51.9946 177.466 52.0618V52.066C177.483 52.171 177.617 52.255 177.798 52.2886C177.84 52.297 177.886 52.3012 177.928 52.3012C177.97 52.3012 178.02 52.3012 178.066 52.297H178.079L178.1 52.2928C178.264 52.2676 178.402 52.2088 178.495 52.1332C178.57 52.0702 178.608 52.003 178.604 51.9358V51.9274C178.587 51.8225 178.453 51.7427 178.272 51.7091C178.23 51.7007 178.184 51.6965 178.142 51.6965C178.1 51.6923 178.05 51.6965 178.003 51.7007Z" fill="#818592"/>
<path d="M177.713 50.3111H177.726C177.785 50.3027 177.848 50.3027 177.906 50.3027C177.969 50.3027 178.024 50.3111 178.079 50.3195C178.389 50.3741 178.624 50.5505 178.658 50.794V50.7982V50.8066C178.679 50.9788 178.595 51.1426 178.444 51.2685C178.31 51.3777 178.121 51.4617 177.906 51.4953L177.877 51.4995H177.873H177.86C177.801 51.5079 177.738 51.5079 177.68 51.5079C177.617 51.5079 177.562 51.4995 177.507 51.4911C177.197 51.4365 176.962 51.2601 176.928 51.0166V51.0124V51.004C176.907 50.8318 176.991 50.6681 177.142 50.5421C177.277 50.4329 177.465 50.3489 177.68 50.3153L177.713 50.3111ZM177.764 50.6177H177.751L177.726 50.6219C177.566 50.6471 177.432 50.7017 177.34 50.7772C177.268 50.836 177.226 50.9032 177.235 50.9662V50.9704C177.251 51.0712 177.382 51.151 177.562 51.1846C177.604 51.193 177.65 51.1972 177.692 51.1972C177.734 51.1972 177.78 51.1972 177.831 51.193H177.843L177.869 51.1888C178.028 51.1636 178.163 51.109 178.255 51.0334C178.326 50.9746 178.368 50.9074 178.36 50.8486V50.8402C178.343 50.7395 178.209 50.6597 178.032 50.6303C177.99 50.6219 177.948 50.6177 177.902 50.6177C177.856 50.6093 177.81 50.6093 177.764 50.6177Z" fill="#818592"/>
<path d="M177.726 67.3309H177.747C177.818 67.3267 177.885 67.3267 177.957 67.3351C178.024 67.3435 178.091 67.3519 178.154 67.3687C178.49 67.4569 178.738 67.6878 178.759 67.9776V67.9818V67.9986C178.767 68.2001 178.666 68.3891 178.49 68.5276C178.33 68.6536 178.108 68.746 177.86 68.7712H177.839H177.835H177.814C177.743 68.7754 177.675 68.7754 177.608 68.767C177.541 68.7586 177.474 68.7502 177.411 68.7334C177.075 68.6452 176.827 68.4143 176.806 68.1245V68.1203V68.1035C176.798 67.902 176.899 67.713 177.075 67.5744C177.234 67.4485 177.457 67.3561 177.705 67.3309H177.726ZM177.772 67.6374H177.751H177.73C177.545 67.6542 177.381 67.7214 177.268 67.8138C177.171 67.8936 177.113 67.9902 177.113 68.0909V68.1035C177.125 68.2547 177.276 68.3807 177.486 68.4353C177.533 68.4479 177.583 68.4563 177.633 68.4605C177.684 68.4647 177.738 68.4647 177.793 68.4647H177.814H177.835C178.02 68.4479 178.183 68.3807 178.301 68.2883C178.398 68.2085 178.456 68.1119 178.456 68.0111V67.9986C178.444 67.8474 178.293 67.7214 178.083 67.6668C178.037 67.6542 177.986 67.6458 177.936 67.6416C177.881 67.6374 177.827 67.6374 177.772 67.6374Z" fill="#818592"/>
<path d="M177.52 66.0662H177.541C177.613 66.062 177.68 66.062 177.747 66.0704C177.814 66.0788 177.877 66.0872 177.94 66.104C178.276 66.1922 178.52 66.419 178.541 66.7045V66.7087V66.7255C178.549 66.9271 178.448 67.1118 178.276 67.2504C178.121 67.3764 177.898 67.4646 177.651 67.4898H177.63H177.625H177.604C177.533 67.494 177.466 67.494 177.399 67.4856C177.331 67.4772 177.264 67.4688 177.205 67.452C176.87 67.3638 176.626 67.137 176.605 66.8515V66.8473V66.8305C176.597 66.6289 176.697 66.4442 176.87 66.3056C177.025 66.1796 177.247 66.0914 177.495 66.0662H177.52ZM177.567 66.3728H177.546H177.525C177.34 66.3896 177.176 66.4568 177.067 66.5449C176.97 66.6247 176.912 66.7171 176.916 66.8137V66.8221C176.928 66.9691 177.075 67.0908 177.285 67.1454C177.331 67.158 177.382 67.1664 177.432 67.1706C177.483 67.1748 177.533 67.1748 177.588 67.1748H177.609H177.63C177.814 67.158 177.978 67.0908 178.087 67.0027C178.184 66.9229 178.243 66.8305 178.238 66.7339V66.7213C178.226 66.5743 178.079 66.4526 177.869 66.398C177.823 66.3854 177.772 66.377 177.722 66.3728C177.672 66.3686 177.621 66.3686 177.567 66.3728Z" fill="#818592"/>
<path d="M177.315 64.7987H177.336C177.403 64.7945 177.475 64.7945 177.538 64.8029C177.605 64.8113 177.668 64.8197 177.731 64.8364C178.062 64.9246 178.306 65.1472 178.327 65.4285V65.4327V65.4495C178.335 65.6469 178.235 65.8317 178.062 65.966C177.907 66.092 177.689 66.176 177.445 66.2012H177.424H177.42H177.399C177.332 66.2054 177.26 66.2054 177.193 66.197C177.126 66.1886 177.059 66.1802 177 66.1634C176.668 66.0752 176.429 65.8527 176.404 65.5713V65.5671V65.5503C176.395 65.353 176.496 65.1682 176.668 65.0338C176.824 64.9078 177.042 64.8239 177.286 64.7987H177.315ZM177.357 65.1052H177.336H177.319C177.139 65.122 176.975 65.185 176.866 65.2732C176.769 65.3487 176.715 65.4411 176.719 65.5335V65.5419C176.731 65.6847 176.878 65.8065 177.084 65.8569C177.13 65.8694 177.181 65.8778 177.227 65.882C177.277 65.8862 177.328 65.8862 177.382 65.8862H177.403H177.42C177.605 65.8694 177.764 65.8065 177.874 65.7183C177.97 65.6427 178.025 65.5503 178.021 65.4579V65.4453C178.008 65.3026 177.861 65.1808 177.655 65.1304C177.609 65.1178 177.563 65.1094 177.512 65.1052C177.462 65.1052 177.412 65.1052 177.357 65.1052Z" fill="#818592"/>
<path d="M177.108 63.5345H177.129C177.197 63.5303 177.264 63.5303 177.331 63.5387C177.398 63.5471 177.461 63.5555 177.52 63.5723C177.852 63.6562 178.087 63.8788 178.112 64.156V64.1602V64.1769C178.12 64.3701 178.02 64.5507 177.847 64.6851C177.692 64.8068 177.478 64.895 177.234 64.916H177.213H177.209H177.188C177.121 64.9202 177.054 64.9202 176.987 64.9118C176.919 64.9034 176.856 64.895 176.798 64.8782C176.47 64.7942 176.231 64.5717 176.206 64.2945V64.2903V64.2735V64.2693C176.197 64.0762 176.298 63.8956 176.47 63.7612C176.625 63.6395 176.84 63.5513 177.083 63.5303H177.087L177.108 63.5345ZM177.15 63.841H177.129H177.108C176.928 63.8578 176.772 63.9208 176.663 64.0048C176.571 64.0804 176.516 64.1685 176.516 64.2609V64.2693C176.529 64.4079 176.672 64.5255 176.877 64.5801C176.924 64.5927 176.97 64.6011 177.02 64.6053C177.071 64.6095 177.121 64.6095 177.176 64.6095H177.197H177.218C177.398 64.5927 177.558 64.5297 177.667 64.4415C177.759 64.3659 177.814 64.2777 177.814 64.1853V64.1727C177.801 64.0342 177.658 63.9166 177.453 63.862C177.407 63.8494 177.36 63.841 177.31 63.8368C177.255 63.8368 177.201 63.8368 177.15 63.841Z" fill="#818592"/>
<path d="M176.899 62.2664H176.92C176.987 62.2622 177.054 62.2622 177.117 62.2706C177.184 62.2748 177.247 62.2874 177.306 62.3042C177.634 62.3882 177.869 62.6066 177.894 62.8795V62.8837V62.9005C177.902 63.0937 177.802 63.27 177.634 63.4044C177.483 63.522 177.268 63.6102 177.029 63.6312H177.008H177.004H176.983C176.916 63.6354 176.848 63.6354 176.781 63.627C176.714 63.6228 176.651 63.6102 176.592 63.5934C176.265 63.5094 176.03 63.291 176.004 63.0181V63.0139V62.9971C175.996 62.8039 176.097 62.6276 176.265 62.4932C176.416 62.3756 176.63 62.2874 176.869 62.2664H176.899ZM176.941 62.573H176.92H176.899C176.722 62.5898 176.567 62.6486 176.458 62.7367C176.366 62.8081 176.311 62.8963 176.315 62.9845V62.9929C176.328 63.1273 176.471 63.2448 176.672 63.2952C176.718 63.3078 176.764 63.3162 176.811 63.3204C176.857 63.3246 176.911 63.3246 176.966 63.3246H176.987H177.008C177.184 63.3078 177.34 63.249 177.449 63.1609C177.541 63.0895 177.596 63.0013 177.592 62.9131V62.9047C177.579 62.7703 177.436 62.6528 177.235 62.6024C177.189 62.5898 177.142 62.5814 177.096 62.5772C177.046 62.573 176.995 62.573 176.941 62.573Z" fill="#818592"/>
<path d="M176.693 61.0018H176.714C176.781 60.9976 176.849 60.9976 176.912 61.006C176.979 61.0102 177.042 61.0228 177.096 61.0396C177.42 61.1236 177.655 61.3377 177.68 61.6065V61.6107V61.6275V61.6317C177.688 61.8206 177.588 61.997 177.42 62.1272C177.268 62.2447 177.058 62.3287 176.819 62.3497H176.798H176.794H176.773C176.706 62.3539 176.639 62.3497 176.576 62.3455C176.508 62.3413 176.445 62.3287 176.391 62.3119C176.067 62.2279 175.832 62.0138 175.807 61.745V61.7408V61.724V61.7198C175.799 61.5309 175.9 61.3545 176.067 61.2243C176.219 61.1068 176.429 61.0228 176.668 61.0018H176.693ZM176.735 61.3083H176.714H176.693C176.517 61.3251 176.366 61.3839 176.256 61.4679C176.168 61.5393 176.114 61.6233 176.114 61.7072V61.7156C176.126 61.8458 176.265 61.9592 176.462 62.0096C176.508 62.0222 176.555 62.0306 176.601 62.0348C176.647 62.039 176.702 62.039 176.752 62.039H176.773H176.794C176.97 62.0222 177.121 61.9634 177.231 61.8794C177.319 61.808 177.373 61.724 177.369 61.6401V61.6275C177.357 61.4931 177.218 61.3839 177.021 61.3335C176.975 61.3209 176.928 61.3125 176.882 61.3083C176.836 61.3041 176.786 61.3041 176.735 61.3083Z" fill="#818592"/>
<path d="M176.484 59.7342H176.505C176.572 59.73 176.635 59.73 176.702 59.7384C176.769 59.7426 176.832 59.7552 176.887 59.7678C177.21 59.8518 177.441 60.0617 177.462 60.3263V60.3305V60.3473V60.3515C177.47 60.5404 177.37 60.7126 177.206 60.8428C177.055 60.9604 176.845 61.0402 176.61 61.0611H176.589H176.584H176.563C176.496 61.0653 176.433 61.0611 176.366 61.0569C176.299 61.0527 176.236 61.0402 176.181 61.0276C175.858 60.9478 175.627 60.7336 175.606 60.4691V60.4649V60.4481V60.4439C175.598 60.2549 175.698 60.0827 175.862 59.9526C176.013 59.835 176.219 59.7552 176.454 59.7342H176.484ZM176.526 60.0407H176.505H176.484C176.311 60.0575 176.156 60.1163 176.051 60.1961C175.963 60.2633 175.912 60.3473 175.912 60.4271V60.4355C175.925 60.5614 176.064 60.6706 176.257 60.721C176.303 60.7336 176.349 60.742 176.395 60.7462C176.442 60.7504 176.492 60.7504 176.547 60.7504H176.568H176.589C176.761 60.7336 176.916 60.6748 177.021 60.595C177.109 60.5279 177.16 60.4439 177.16 60.3641V60.3515C177.147 60.2255 177.008 60.1163 176.815 60.0659C176.769 60.0533 176.723 60.0449 176.677 60.0407C176.631 60.0407 176.58 60.0407 176.526 60.0407Z" fill="#818592"/>
<path d="M176.277 58.4705H176.298C176.361 58.4663 176.428 58.4705 176.491 58.4747C176.558 58.4789 176.617 58.4915 176.676 58.5041C176.995 58.5839 177.226 58.7938 177.247 59.0584V59.0626V59.0752V59.0794C177.255 59.2641 177.155 59.4363 176.991 59.5623C176.844 59.6757 176.634 59.7554 176.403 59.7764H176.382H176.378H176.357C176.294 59.7806 176.227 59.7764 176.164 59.7722C176.096 59.768 176.038 59.7554 175.979 59.7428C175.66 59.6631 175.429 59.4531 175.408 59.1886V59.1844V59.1718V59.1676C175.399 58.9828 175.496 58.8106 175.664 58.6846C175.811 58.5713 176.021 58.4915 176.252 58.4705H176.277ZM176.319 58.777H176.298H176.277C176.105 58.7938 175.954 58.8484 175.849 58.9282C175.76 58.9954 175.71 59.0752 175.714 59.155V59.1634C175.723 59.2893 175.861 59.3943 176.054 59.4405C176.101 59.4531 176.147 59.4615 176.189 59.4657C176.235 59.4699 176.285 59.4699 176.336 59.4699H176.357H176.378C176.55 59.4531 176.701 59.3985 176.806 59.3187C176.89 59.2515 176.945 59.1718 176.94 59.0962V59.0878C176.932 58.9618 176.793 58.8568 176.6 58.8106C176.554 58.798 176.508 58.7896 176.466 58.7854C176.42 58.7728 176.369 58.7728 176.319 58.777Z" fill="#818592"/>
<path d="M176.072 57.2019H176.093C176.156 57.1977 176.223 57.2019 176.286 57.2061C176.349 57.2103 176.412 57.2229 176.466 57.2355C176.781 57.3153 177.012 57.5211 177.033 57.7814V57.7856V57.7982V57.8024C177.042 57.9872 176.945 58.1552 176.777 58.2811C176.63 58.3945 176.424 58.4701 176.193 58.4911H176.172H176.168H176.147C176.084 58.4953 176.017 58.4911 175.954 58.4869C175.891 58.4827 175.828 58.4701 175.773 58.4575C175.459 58.3777 175.228 58.172 175.207 57.9116V57.9074V57.8948V57.8906C175.198 57.7058 175.295 57.5379 175.463 57.4119C175.61 57.2985 175.815 57.2229 176.046 57.2019H176.072ZM176.109 57.5085H176.088H176.067C175.895 57.5253 175.748 57.5799 175.643 57.6597C175.559 57.7226 175.509 57.8024 175.513 57.878V57.8864C175.522 58.0082 175.66 58.109 175.849 58.1552C175.895 58.1678 175.937 58.1762 175.983 58.1804C176.03 58.1846 176.08 58.1846 176.13 58.1846H176.151H176.172C176.345 58.1678 176.492 58.1132 176.596 58.0334C176.68 57.9704 176.731 57.8906 176.731 57.815V57.8066C176.722 57.6848 176.584 57.5841 176.395 57.5379C176.349 57.5253 176.307 57.5169 176.261 57.5127C176.21 57.5085 176.164 57.5085 176.109 57.5085Z" fill="#818592"/>
<path d="M175.862 55.9383H175.883H175.887C175.95 55.9341 176.013 55.9383 176.076 55.9425C176.139 55.9467 176.202 55.9593 176.256 55.9719C176.571 56.0516 176.798 56.2532 176.819 56.5094V56.5136V56.5261V56.5303C176.828 56.7109 176.731 56.8789 176.567 57.0007C176.42 57.1098 176.219 57.1896 175.992 57.2064H175.971H175.967H175.946H175.942C175.879 57.2106 175.816 57.2064 175.753 57.2022C175.69 57.198 175.627 57.1854 175.572 57.1728C175.257 57.093 175.03 56.8915 175.009 56.6353V56.6311V56.6185V56.6143C175.001 56.4338 175.097 56.2658 175.261 56.144C175.408 56.0348 175.61 55.9551 175.837 55.9383H175.862ZM175.904 56.2448H175.883H175.862C175.694 56.2616 175.547 56.3162 175.446 56.3918C175.362 56.4548 175.316 56.5303 175.316 56.6017V56.6101C175.324 56.7277 175.459 56.8243 175.643 56.8705C175.685 56.8831 175.732 56.8873 175.774 56.8915C175.82 56.8957 175.866 56.8957 175.916 56.8957H175.937H175.958C176.126 56.8789 176.273 56.8243 176.374 56.7487C176.458 56.6857 176.504 56.6143 176.504 56.5387V56.5303C176.496 56.4128 176.361 56.3162 176.177 56.27C176.135 56.2574 176.088 56.2532 176.042 56.249C176.005 56.2406 175.954 56.2406 175.904 56.2448Z" fill="#818592"/>
<path d="M175.656 54.6697H175.677C175.74 54.6655 175.803 54.6697 175.866 54.6739C175.929 54.6781 175.988 54.6907 176.043 54.7033C176.353 54.7789 176.58 54.9804 176.601 55.2324V55.2366V55.2492V55.2534C176.61 55.434 176.513 55.5977 176.349 55.7195C176.206 55.8287 176.005 55.9043 175.778 55.9211H175.757H175.753H175.732C175.669 55.9253 175.606 55.9211 175.543 55.9169C175.48 55.9127 175.421 55.9001 175.367 55.8875C175.056 55.8119 174.829 55.6103 174.808 55.3584V55.3542V55.3416V55.3374C174.8 55.1568 174.896 54.993 175.06 54.8713C175.203 54.7621 175.404 54.6865 175.631 54.6697H175.656ZM175.694 54.9762H175.673H175.652C175.484 54.993 175.341 55.0434 175.241 55.119C175.161 55.1778 175.11 55.2534 175.115 55.3206V55.329C175.123 55.4424 175.257 55.5389 175.438 55.5851C175.48 55.5977 175.526 55.6019 175.568 55.6061C175.619 55.6145 175.665 55.6145 175.715 55.6145H175.736H175.757C175.925 55.6019 176.068 55.5473 176.169 55.4718C176.248 55.413 176.299 55.3416 176.295 55.2702V55.2618C176.286 55.1484 176.152 55.0518 175.971 55.0056C175.929 54.9972 175.883 54.9888 175.841 54.9846C175.795 54.9762 175.745 54.9762 175.694 54.9762Z" fill="#818592"/>
<path d="M175.45 53.406H175.471C175.534 53.4018 175.597 53.406 175.655 53.4102C175.718 53.4144 175.777 53.427 175.832 53.4396C176.138 53.5152 176.365 53.7126 176.386 53.9603V53.9645V53.9771V53.9813C176.395 54.1577 176.298 54.3173 176.138 54.439C175.996 54.544 175.798 54.6196 175.576 54.6364H175.551H175.546H175.525C175.462 54.6406 175.399 54.6364 175.341 54.6322C175.278 54.628 175.219 54.6154 175.164 54.6028C174.858 54.5272 174.631 54.3299 174.61 54.0821V54.0779V54.0653V54.0611C174.601 53.8847 174.698 53.7252 174.858 53.6034C175 53.4984 175.198 53.4228 175.42 53.406H175.45ZM175.488 53.7126H175.467H175.441C175.278 53.7294 175.135 53.7798 175.038 53.8511C174.958 53.9099 174.912 53.9771 174.912 54.0443V54.0569C174.925 54.1661 175.051 54.2543 175.231 54.3005C175.273 54.3089 175.315 54.3173 175.362 54.3215C175.408 54.3257 175.454 54.3257 175.504 54.3257H175.525H175.551C175.714 54.3089 175.857 54.2585 175.954 54.1871C176.033 54.1283 176.08 54.0611 176.08 53.9939V53.9813C176.067 53.8763 175.937 53.784 175.76 53.7378C175.718 53.7294 175.676 53.721 175.63 53.7168C175.584 53.7084 175.538 53.7084 175.488 53.7126Z" fill="#818592"/>
<path d="M175.24 52.1375H175.261C175.324 52.1333 175.383 52.1375 175.446 52.1417C175.509 52.1459 175.563 52.1585 175.618 52.1711C175.925 52.2467 176.147 52.4356 176.168 52.6834V52.6876V52.7002V52.7044C176.177 52.8765 176.08 53.0361 175.92 53.1537C175.782 53.2545 175.584 53.3301 175.366 53.3468H175.341H175.337H175.316C175.253 53.351 175.19 53.3468 175.131 53.3426C175.072 53.3384 175.013 53.3259 174.959 53.3133C174.652 53.2377 174.43 53.0487 174.409 52.801V52.7968V52.7842V52.78C174.4 52.6078 174.497 52.4482 174.656 52.3306C174.795 52.2299 174.992 52.1543 175.211 52.1375H175.24ZM175.282 52.444H175.265H175.24C175.081 52.4566 174.938 52.5112 174.841 52.5826C174.766 52.6372 174.719 52.7044 174.719 52.7716V52.78C174.732 52.8849 174.858 52.9731 175.034 53.0151C175.076 53.0235 175.118 53.0319 175.165 53.0361C175.207 53.0403 175.257 53.0403 175.303 53.0403H175.32L175.345 53.0361C175.505 53.0235 175.647 52.9689 175.744 52.8975C175.82 52.8429 175.866 52.7758 175.866 52.7128V52.7002C175.853 52.5952 175.727 52.507 175.551 52.465C175.509 52.4566 175.467 52.4482 175.421 52.444C175.375 52.444 175.328 52.444 175.282 52.444Z" fill="#818592"/>
<path d="M175.035 50.8699H175.056C175.119 50.8657 175.178 50.8699 175.236 50.8741C175.295 50.8783 175.354 50.8909 175.409 50.9035C175.711 50.9749 175.929 51.168 175.954 51.4074V51.4116V51.4242V51.4284C175.963 51.6006 175.87 51.7559 175.711 51.8693C175.572 51.9701 175.379 52.0415 175.165 52.0625H175.161L175.131 52.0667H175.127H175.106C175.043 52.0709 174.984 52.0667 174.926 52.0625C174.867 52.0583 174.808 52.0457 174.753 52.0331C174.451 51.9617 174.233 51.7685 174.208 51.5292V51.525V51.5124V51.5082C174.199 51.336 174.292 51.1806 174.451 51.0673C174.59 50.9665 174.783 50.8951 174.997 50.8741H175.001L175.035 50.8699ZM175.073 51.1806H175.056L175.026 51.1848C174.867 51.2016 174.732 51.2478 174.636 51.3192C174.56 51.3738 174.518 51.4368 174.518 51.4998V51.5082C174.531 51.609 174.653 51.6929 174.829 51.7349C174.871 51.7433 174.913 51.7517 174.955 51.7559C174.997 51.7601 175.047 51.7601 175.094 51.7601H175.11L175.14 51.7559C175.299 51.7391 175.434 51.6929 175.53 51.6216C175.606 51.567 175.648 51.504 175.648 51.4452V51.4326C175.635 51.3318 175.509 51.2478 175.337 51.2058C175.295 51.1974 175.253 51.189 175.211 51.1848C175.169 51.1764 175.123 51.1764 175.073 51.1806Z" fill="#818592"/>
<path d="M182.598 64.2565L182.619 64.2523C182.87 64.2104 183.106 64.244 183.295 64.3321C183.5 64.4245 183.643 64.5841 183.681 64.7898V64.794V64.8024V64.8108V64.815C183.689 64.8738 183.689 64.9326 183.677 64.9914C183.668 65.046 183.647 65.1048 183.622 65.1594C183.496 65.4113 183.198 65.6213 182.829 65.6885L182.808 65.6927C182.556 65.7347 182.32 65.7011 182.131 65.6129C181.926 65.5163 181.783 65.3609 181.745 65.1552V65.151V65.1426V65.1342V65.13C181.737 65.0712 181.737 65.0124 181.749 64.9536C181.758 64.899 181.779 64.8402 181.804 64.7856C181.926 64.5337 182.224 64.3195 182.598 64.2565ZM182.669 64.5547L182.648 64.5589C182.375 64.6093 182.161 64.7521 182.077 64.92C182.064 64.9494 182.052 64.9746 182.047 65.004C182.043 65.0292 182.043 65.0586 182.047 65.0838V65.088V65.0922C182.064 65.1888 182.144 65.2686 182.257 65.3189C182.392 65.3819 182.564 65.4029 182.753 65.3735L182.774 65.3693C183.047 65.3189 183.261 65.1762 183.345 65.0082C183.358 64.9788 183.37 64.9536 183.374 64.9242C183.379 64.899 183.379 64.8696 183.374 64.8444V64.8402V64.8318C183.358 64.7353 183.278 64.6555 183.164 64.6051C183.034 64.5505 182.858 64.5253 182.669 64.5547Z" fill="#818592"/>
<path d="M182.333 63.1815L182.354 63.1773C182.602 63.1353 182.837 63.1689 183.022 63.2528C183.223 63.3452 183.37 63.5048 183.404 63.7022V63.7064V63.7148V63.7232V63.7274C183.412 63.7861 183.412 63.8449 183.4 63.9037C183.387 63.9625 183.37 64.0171 183.345 64.0675C183.223 64.3152 182.925 64.521 182.56 64.5882L182.539 64.5924C182.291 64.6344 182.052 64.6008 181.871 64.5168C181.67 64.4244 181.523 64.2648 181.489 64.0675V64.0633V64.0549V64.0465V64.0423C181.481 63.9835 181.485 63.9247 181.493 63.8659C181.506 63.8071 181.523 63.7525 181.548 63.7022C181.665 63.4544 181.963 63.2444 182.333 63.1815ZM182.404 63.4838L182.383 63.488C182.115 63.5342 181.9 63.677 181.821 63.8407C181.808 63.8701 181.795 63.8995 181.791 63.9247C181.787 63.9499 181.787 63.9751 181.791 64.0003V64.0045V64.0087C181.808 64.1011 181.888 64.1809 181.997 64.2313C182.127 64.29 182.304 64.3152 182.488 64.2816L182.505 64.2774C182.774 64.2313 182.988 64.0885 183.072 63.9247C183.085 63.8953 183.097 63.8701 183.101 63.8407C183.106 63.8155 183.106 63.7903 183.101 63.7651V63.7609V63.7525C183.085 63.6602 183.005 63.5804 182.896 63.53C182.766 63.4754 182.589 63.4544 182.404 63.4838Z" fill="#818592"/>
<path d="M182.068 62.1064L182.085 62.1022C182.333 62.0602 182.568 62.0938 182.749 62.1736C182.95 62.2659 183.093 62.4213 183.131 62.6187V62.6229V62.6313V62.6397V62.6439C183.139 62.7026 183.139 62.7614 183.127 62.8202C183.118 62.8748 183.097 62.9294 183.072 62.984C182.95 63.2275 182.656 63.4291 182.291 63.4963L182.274 63.5005C182.026 63.5425 181.791 63.5089 181.611 63.4291C181.409 63.3367 181.266 63.1814 181.229 62.984V62.9798V62.9714V62.963V62.9588C181.22 62.9 181.22 62.8412 181.233 62.7824C181.241 62.7278 181.262 62.6733 181.287 62.6187C181.409 62.3751 181.703 62.1694 182.068 62.1064ZM182.136 62.4087L182.119 62.4129C181.854 62.4591 181.64 62.5977 181.56 62.7572C181.548 62.7824 181.539 62.8118 181.531 62.837C181.527 62.8622 181.527 62.8874 181.531 62.9126V62.9168V62.921C181.548 63.0134 181.623 63.089 181.737 63.1394C181.867 63.1982 182.039 63.2191 182.224 63.1898L182.241 63.1856C182.505 63.1394 182.719 63.0008 182.799 62.8412C182.812 62.816 182.82 62.7866 182.828 62.7614C182.833 62.7362 182.833 62.711 182.833 62.6901V62.6859V62.6817V62.6733C182.816 62.5851 182.74 62.5095 182.627 62.4591C182.492 62.4003 182.32 62.3793 182.136 62.4087Z" fill="#818592"/>
<path d="M181.804 61.0313L181.821 61.0271C182.064 60.9893 182.299 61.0187 182.48 61.0985C182.681 61.1866 182.824 61.342 182.858 61.5394V61.5436V61.552V61.5604V61.5646C182.866 61.6234 182.862 61.6822 182.854 61.7367C182.845 61.7913 182.824 61.8459 182.799 61.8963C182.677 62.1357 182.383 62.3372 182.026 62.4002L182.01 62.4044C181.766 62.4464 181.531 62.4128 181.35 62.333C181.149 62.2448 181.006 62.0895 180.972 61.8921V61.8879V61.8795V61.8711V61.8669C180.964 61.8081 180.968 61.7493 180.977 61.6948C180.985 61.6402 181.006 61.5856 181.031 61.5352C181.149 61.2958 181.443 61.0943 181.804 61.0313ZM181.871 61.3336L181.854 61.3378C181.59 61.384 181.384 61.5184 181.304 61.678C181.291 61.7032 181.283 61.7283 181.279 61.7535C181.275 61.7787 181.275 61.8039 181.279 61.8249V61.8291V61.8333C181.296 61.9215 181.371 61.9971 181.48 62.0475C181.611 62.1063 181.779 62.1273 181.963 62.0979L181.98 62.0937C182.245 62.0475 182.45 61.9131 182.53 61.7535C182.543 61.7283 182.551 61.699 182.555 61.6738C182.56 61.6528 182.56 61.6276 182.56 61.6024V61.5982V61.5898C182.543 61.5016 182.467 61.4302 182.358 61.3798C182.224 61.3252 182.056 61.3042 181.871 61.3336Z" fill="#818592"/>
<path d="M181.539 59.9609L181.552 59.9567C181.796 59.9189 182.027 59.9441 182.207 60.0239C182.409 60.1121 182.547 60.2632 182.585 60.4564V60.4606V60.469V60.4774V60.4816C182.593 60.5404 182.589 60.595 182.581 60.6538C182.572 60.7083 182.551 60.7587 182.526 60.8133C182.404 61.0485 182.115 61.2458 181.758 61.3088L181.741 61.313C181.497 61.3508 181.266 61.3256 181.086 61.2458C180.884 61.1577 180.746 61.0065 180.708 60.8133V60.8091V60.8007V60.7923V60.7881C180.7 60.7293 180.7 60.6748 180.712 60.616C180.721 60.5614 180.742 60.511 180.767 60.4564C180.893 60.2212 181.183 60.0197 181.539 59.9609ZM181.602 60.2632L181.59 60.2674C181.329 60.3136 181.124 60.4438 181.044 60.5992C181.031 60.6244 181.023 60.6496 181.019 60.6748C181.015 60.6958 181.015 60.7209 181.019 60.7461V60.7503V60.7545C181.036 60.8385 181.111 60.9141 181.216 60.9603C181.346 61.0149 181.514 61.0359 181.695 61.0065L181.707 61.0023C181.968 60.9561 182.174 60.8259 182.253 60.6706C182.266 60.6454 182.274 60.6202 182.279 60.595C182.283 60.574 182.283 60.5488 182.283 60.5278V60.5236V60.5194V60.511C182.266 60.427 182.19 60.3556 182.085 60.3052C181.955 60.2506 181.783 60.2338 181.602 60.2632Z" fill="#818592"/>
<path d="M181.275 58.8864H181.287C181.527 58.8486 181.758 58.8738 181.934 58.9536C182.132 59.0417 182.274 59.1887 182.308 59.3819V59.3861V59.3945V59.4029V59.4071C182.316 59.4617 182.312 59.5205 182.304 59.575C182.295 59.6296 182.274 59.6842 182.249 59.7346C182.127 59.9656 181.842 60.1629 181.489 60.2217L181.476 60.2259C181.237 60.2637 181.006 60.2385 180.83 60.1587C180.628 60.0706 180.49 59.9236 180.452 59.7304V59.7262V59.7178V59.7094V59.7052C180.443 59.6506 180.448 59.5918 180.456 59.5373C180.464 59.4827 180.485 59.4281 180.511 59.3777C180.632 59.1425 180.922 58.9452 181.275 58.8864ZM181.338 59.1887H181.325C181.069 59.2349 180.863 59.3651 180.788 59.5121C180.775 59.5373 180.767 59.5624 180.763 59.5834C180.758 59.6044 180.758 59.6296 180.763 59.6506V59.6548V59.659C180.779 59.743 180.851 59.8144 180.96 59.8606C181.086 59.9152 181.254 59.9362 181.434 59.9068H181.447C181.703 59.8606 181.909 59.7304 181.985 59.5834C181.997 59.5583 182.006 59.5331 182.01 59.5121C182.014 59.4911 182.014 59.4701 182.014 59.4491V59.4407V59.4323C181.997 59.3483 181.926 59.2811 181.821 59.2349C181.686 59.1761 181.518 59.1593 181.338 59.1887Z" fill="#818592"/>
<path d="M181.01 57.8112H181.023C181.262 57.7734 181.489 57.7986 181.665 57.8784C181.863 57.9624 182.001 58.1135 182.039 58.3025V58.3067V58.3151V58.3235V58.3277C182.048 58.3823 182.043 58.4411 182.035 58.4957C182.027 58.5502 182.006 58.6006 181.98 58.651C181.863 58.8778 181.577 59.0709 181.229 59.1297H181.216C180.977 59.1675 180.75 59.1423 180.574 59.0667C180.376 58.9828 180.238 58.8316 180.2 58.6426V58.6384V58.63V58.6216V58.6174C180.191 58.5628 180.196 58.5041 180.204 58.4495C180.212 58.3949 180.233 58.3445 180.259 58.2941C180.376 58.0631 180.658 57.87 181.01 57.8112ZM181.069 58.1135H181.061C180.805 58.1555 180.607 58.2857 180.527 58.4327C180.515 58.4579 180.506 58.4789 180.502 58.5041C180.498 58.525 180.498 58.546 180.502 58.5712V58.5754V58.5796C180.519 58.6594 180.59 58.7308 180.695 58.7728C180.821 58.8274 180.989 58.8442 181.166 58.8148H181.174C181.43 58.7686 181.628 58.6426 181.707 58.4957C181.72 58.4705 181.728 58.4495 181.733 58.4243C181.737 58.4033 181.737 58.3823 181.737 58.3613V58.3571V58.3529V58.3445C181.72 58.2647 181.649 58.1975 181.544 58.1513C181.418 58.1051 181.25 58.0841 181.069 58.1135Z" fill="#818592"/>
<path d="M180.745 56.7361H180.758C180.993 56.6983 181.22 56.7235 181.392 56.7991C181.589 56.8831 181.728 57.0301 181.762 57.2148V57.219V57.2274V57.2358V57.24C181.77 57.2946 181.766 57.3492 181.757 57.4038C181.749 57.4542 181.728 57.5088 181.703 57.5592C181.585 57.7817 181.304 57.9707 180.955 58.0337H180.943C180.708 58.0715 180.481 58.0463 180.309 57.9707C180.111 57.8867 179.973 57.7397 179.939 57.555V57.5508V57.5424V57.534V57.5298C179.931 57.4752 179.935 57.4206 179.943 57.366C179.952 57.3156 179.973 57.261 179.998 57.2106C180.116 56.9839 180.397 56.7949 180.745 56.7361ZM180.808 57.0385H180.8C180.548 57.0804 180.351 57.2064 180.275 57.3492C180.262 57.3702 180.254 57.3954 180.25 57.4164C180.246 57.4374 180.246 57.4584 180.25 57.4794V57.4836V57.4878C180.267 57.5676 180.334 57.6347 180.439 57.6767C180.565 57.7313 180.729 57.7481 180.905 57.7187H180.913C181.165 57.6767 181.363 57.5508 181.438 57.408C181.451 57.387 181.459 57.3618 181.463 57.3408C181.468 57.3198 181.468 57.303 181.468 57.282V57.2736V57.2694C181.451 57.1896 181.384 57.1224 181.279 57.0804C181.149 57.0301 180.985 57.0091 180.808 57.0385Z" fill="#818592"/>
<path d="M180.481 55.6609H180.494C180.725 55.6231 180.951 55.6483 181.124 55.7239C181.321 55.8079 181.455 55.9507 181.493 56.1354V56.1396V56.148V56.1564V56.1606C181.502 56.2152 181.497 56.2698 181.489 56.3244C181.481 56.3748 181.46 56.4294 181.434 56.4756C181.317 56.6939 181.035 56.8829 180.695 56.9417H180.683C180.452 56.9795 180.225 56.9543 180.053 56.8787C179.86 56.7947 179.721 56.6519 179.683 56.4714V56.4672V56.4588V56.4504V56.4462C179.675 56.3916 179.679 56.337 179.687 56.2824C179.7 56.2278 179.717 56.1774 179.742 56.1312C179.86 55.9087 180.137 55.7197 180.481 55.6609ZM180.54 55.9633H180.532C180.284 56.0053 180.086 56.127 180.011 56.2698C179.998 56.2908 179.99 56.316 179.986 56.337C179.981 56.358 179.981 56.379 179.981 56.3958V56.4V56.4042C179.994 56.4798 180.065 56.5469 180.166 56.5889C180.288 56.6393 180.452 56.6603 180.624 56.6309H180.632C180.88 56.5889 181.077 56.4672 181.153 56.3244C181.166 56.3034 181.174 56.2782 181.178 56.2572C181.182 56.2362 181.182 56.2194 181.182 56.2026V56.1984V56.1942V56.19C181.17 56.1144 181.098 56.0472 180.998 56.0053C180.88 55.9549 180.716 55.9381 180.54 55.9633Z" fill="#818592"/>
<path d="M180.216 54.5907H180.229C180.46 54.5529 180.682 54.5781 180.85 54.6495C181.043 54.7293 181.182 54.8721 181.216 55.0526V55.0568V55.0652V55.0736V55.0778C181.224 55.1324 181.22 55.187 181.211 55.2416C181.203 55.292 181.182 55.3424 181.157 55.3928C181.039 55.6111 180.762 55.7917 180.422 55.8505H180.409C180.178 55.8883 179.96 55.8631 179.788 55.7917C179.595 55.7119 179.456 55.5691 179.423 55.3886V55.3844V55.376V55.3676V55.3634C179.414 55.3088 179.418 55.2542 179.427 55.1996C179.435 55.1492 179.456 55.0988 179.481 55.0484C179.599 54.8301 179.876 54.6453 180.216 54.5907ZM180.275 54.8931H180.267C180.023 54.9351 179.826 55.0526 179.754 55.1912C179.742 55.2122 179.733 55.2332 179.729 55.2542C179.725 55.271 179.725 55.292 179.729 55.3088V55.313V55.3172C179.742 55.3886 179.813 55.4516 179.91 55.4936C180.031 55.5439 180.191 55.5607 180.363 55.5355H180.372C180.615 55.4936 180.808 55.376 180.884 55.2374C180.896 55.2164 180.905 55.1954 180.909 55.1744C180.913 55.1576 180.913 55.1366 180.913 55.1198V55.1114V55.1072C180.901 55.0358 180.829 54.9729 180.733 54.9309C180.611 54.8805 180.447 54.8637 180.275 54.8931Z" fill="#818592"/>
<path d="M179.951 53.5155H179.964C180.191 53.4777 180.409 53.5029 180.581 53.5743C180.774 53.6541 180.909 53.7927 180.942 53.9732V53.9774V53.9858V53.9942V53.9984C180.967 54.179 180.888 54.3554 180.732 54.4939C180.594 54.6157 180.396 54.7123 180.17 54.7543H180.157H180.153H180.14C179.913 54.7921 179.695 54.7669 179.523 54.6955C179.33 54.6157 179.195 54.4771 179.162 54.2966V54.2924V54.284V54.2756V54.2714C179.137 54.0908 179.216 53.9145 179.372 53.7759C179.506 53.6541 179.708 53.5575 179.934 53.5155H179.951ZM180.01 53.8179H180.002H179.989C179.821 53.8473 179.674 53.9187 179.578 54.0026C179.498 54.074 179.456 54.1496 179.468 54.2252V54.2294V54.2336C179.481 54.305 179.548 54.3638 179.645 54.4058C179.767 54.4562 179.922 54.4729 180.094 54.4436H180.102L180.115 54.4394C180.283 54.41 180.43 54.3386 180.527 54.2546C180.602 54.1874 180.644 54.1076 180.64 54.0362V54.0278V54.0236C180.627 53.9523 180.56 53.8935 180.464 53.8515C180.342 53.8053 180.182 53.7885 180.01 53.8179Z" fill="#818592"/>
<path d="M179.687 52.4406H179.7C179.763 52.4322 179.826 52.4238 179.889 52.4238C179.947 52.4238 180.01 52.428 180.065 52.4322C180.384 52.4742 180.632 52.6506 180.674 52.8983V52.9067V52.9109C180.699 53.0873 180.619 53.2637 180.464 53.398C180.329 53.5198 180.132 53.6122 179.91 53.6542H179.897H179.893H179.88C179.817 53.6626 179.754 53.671 179.691 53.671C179.632 53.671 179.569 53.6668 179.515 53.6626C179.196 53.6206 178.948 53.4442 178.906 53.1965V53.1881V53.1839C178.881 53.0075 178.961 52.8311 179.116 52.6968C179.25 52.575 179.448 52.4826 179.674 52.4406H179.687ZM179.746 52.743H179.737H179.725C179.557 52.7724 179.414 52.8395 179.322 52.9235C179.246 52.9907 179.204 53.0663 179.212 53.1377V53.1419C179.229 53.2511 179.368 53.3309 179.557 53.3518C179.599 53.356 179.645 53.3602 179.691 53.3602C179.737 53.3602 179.784 53.356 179.834 53.3476H179.842L179.855 53.3434C180.023 53.3141 180.166 53.2469 180.258 53.1629C180.334 53.0957 180.376 53.0201 180.367 52.9529V52.9445C180.35 52.8353 180.212 52.7556 180.023 52.7346C179.981 52.7304 179.935 52.7262 179.889 52.7262C179.847 52.7304 179.796 52.7346 179.746 52.743Z" fill="#818592"/>
<path d="M179.423 51.3654H179.436C179.499 51.357 179.562 51.3486 179.62 51.3486C179.679 51.3486 179.742 51.3528 179.797 51.357C180.112 51.399 180.355 51.5712 180.397 51.8147V51.8231V51.8273C180.422 52.0037 180.343 52.1759 180.187 52.3102C180.053 52.4278 179.86 52.5202 179.637 52.5622L179.625 52.5664H179.62H179.608C179.545 52.5748 179.482 52.5832 179.423 52.5832C179.364 52.5832 179.305 52.579 179.247 52.5748C178.932 52.5328 178.688 52.3606 178.646 52.1171V52.1087V52.1045C178.621 51.9281 178.701 51.756 178.856 51.6216C178.991 51.504 179.184 51.4116 179.406 51.3696L179.423 51.3654ZM179.482 51.6678H179.473L179.461 51.672C179.297 51.7014 179.154 51.7686 179.062 51.8525C178.986 51.9197 178.944 51.9911 178.957 52.0583V52.0625C178.974 52.1675 179.112 52.2431 179.293 52.2683C179.335 52.2725 179.377 52.2767 179.423 52.2767C179.469 52.2767 179.515 52.2725 179.566 52.2641H179.574L179.587 52.2557C179.751 52.2263 179.893 52.1591 179.986 52.0793C180.061 52.0163 180.103 51.9407 180.095 51.8777V51.8693C180.078 51.7644 179.94 51.6888 179.759 51.6636C179.717 51.6594 179.671 51.6552 179.629 51.6552C179.578 51.6552 179.532 51.6594 179.482 51.6678Z" fill="#818592"/>
<path d="M179.158 50.2902H179.171C179.234 50.2818 179.293 50.2734 179.356 50.2734C179.415 50.2734 179.473 50.2776 179.528 50.2818C179.843 50.3238 180.082 50.4918 180.124 50.7311V50.7395V50.7437C180.149 50.9159 180.07 51.0839 179.919 51.2183C179.784 51.3358 179.595 51.424 179.373 51.466L179.36 51.4702H179.356H179.343C179.28 51.4786 179.221 51.487 179.163 51.487C179.104 51.487 179.045 51.4828 178.991 51.4786C178.676 51.4366 178.436 51.2686 178.394 51.0293V51.0209V51.0167C178.369 50.8445 178.449 50.6766 178.6 50.5422C178.734 50.4246 178.923 50.3364 179.146 50.2944L179.158 50.2902ZM179.217 50.5926H179.209H179.196C179.033 50.622 178.894 50.685 178.802 50.7647C178.73 50.8277 178.688 50.8991 178.697 50.9621V50.9663C178.713 51.0671 178.848 51.1427 179.028 51.1637C179.07 51.1679 179.112 51.1721 179.158 51.1721C179.205 51.1721 179.251 51.1679 179.297 51.1595H179.305H179.318C179.482 51.1301 179.62 51.0671 179.713 50.9873C179.784 50.9243 179.826 50.8571 179.818 50.7941V50.7857C179.801 50.685 179.667 50.6136 179.486 50.5884C179.444 50.5842 179.402 50.58 179.356 50.58C179.314 50.5842 179.268 50.5884 179.217 50.5926Z" fill="#818592"/>
<path d="M175.602 65.1346H175.635C175.883 65.122 176.11 65.1766 176.282 65.2774C176.471 65.3866 176.597 65.5545 176.618 65.7519V65.7561V65.7771V65.7855V65.8065V65.8107C176.618 65.9744 176.547 66.1298 176.421 66.2558C176.391 66.2852 176.358 66.3146 176.324 66.3398C176.16 66.4657 175.929 66.5539 175.677 66.5749L175.644 66.5791C175.396 66.5917 175.169 66.5371 174.997 66.4364C174.808 66.3272 174.682 66.1592 174.661 65.9618V65.9576V65.9367V65.9283V65.9073V65.9031C174.661 65.7645 174.712 65.6343 174.804 65.5209C174.833 65.4873 174.863 65.4495 174.9 65.4201C175.064 65.2648 175.316 65.1598 175.602 65.1346ZM175.652 65.4411H175.623C175.409 65.4579 175.224 65.5335 175.102 65.6427C175.081 65.6637 175.06 65.6847 175.043 65.7057C174.997 65.7645 174.968 65.8317 174.968 65.8947V65.9073V65.9283C174.98 66.0248 175.047 66.1088 175.152 66.1676C175.274 66.239 175.442 66.2768 175.623 66.2684H175.652C175.845 66.2516 176.013 66.1886 176.135 66.0962C176.156 66.0794 176.177 66.0584 176.198 66.0416C176.265 65.9744 176.303 65.8947 176.307 65.8191V65.8065V65.7855C176.295 65.6931 176.227 65.6091 176.122 65.5461C176.005 65.4705 175.837 65.4327 175.652 65.4411Z" fill="#818592"/>
<path d="M175.45 64.0379H175.484H175.488C175.732 64.0253 175.959 64.0799 176.127 64.1807C176.316 64.2899 176.441 64.4536 176.462 64.651V64.6552V64.6762V64.6846V64.7056V64.7098C176.462 64.9114 176.353 65.0961 176.173 65.2305C176.143 65.2515 176.114 65.2725 176.085 65.2893C175.933 65.3817 175.74 65.4446 175.534 65.4614H175.501H175.497C175.253 65.474 175.026 65.4195 174.858 65.3187C174.669 65.2095 174.543 65.0457 174.522 64.8484V64.8442V64.8232V64.8148V64.7938V64.7896C174.522 64.7308 174.531 64.672 174.552 64.6174C174.569 64.5628 174.594 64.5124 174.627 64.462C174.774 64.2353 175.085 64.0673 175.45 64.0379ZM175.501 64.3445H175.471C175.203 64.3655 174.98 64.4788 174.879 64.63C174.863 64.6552 174.85 64.6804 174.842 64.7098C174.833 64.735 174.829 64.7602 174.829 64.7854V64.7938V64.8148C174.842 64.9072 174.909 64.9911 175.014 65.0499C175.136 65.1213 175.299 65.1591 175.48 65.1507H175.509C175.669 65.1381 175.812 65.0919 175.925 65.0247C175.946 65.0121 175.967 64.9995 175.984 64.9827C176.085 64.903 176.152 64.8064 176.152 64.714V64.7014V64.6804C176.139 64.588 176.072 64.5082 175.967 64.4494C175.849 64.3739 175.686 64.3361 175.501 64.3445Z" fill="#818592"/>
<path d="M175.299 62.9422H175.332H175.337C175.576 62.9296 175.803 62.9842 175.971 63.0808C176.155 63.19 176.281 63.3495 176.302 63.5427V63.5469V63.5679V63.5763V63.5973V63.6015C176.302 63.7989 176.193 63.9836 176.013 64.118C175.983 64.139 175.954 64.16 175.924 64.1768C175.773 64.2692 175.584 64.328 175.379 64.3448H175.345H175.341C175.101 64.3574 174.875 64.3028 174.707 64.2062C174.522 64.097 174.396 63.9374 174.375 63.7443V63.7401V63.7191V63.7107V63.6897V63.6855C174.375 63.6267 174.383 63.5721 174.404 63.5133C174.421 63.4587 174.446 63.4083 174.48 63.3579C174.631 63.1354 174.938 62.9674 175.299 62.9422ZM175.349 63.2488H175.32C175.055 63.2698 174.837 63.3831 174.736 63.5301C174.719 63.5553 174.707 63.5805 174.698 63.6057C174.69 63.6309 174.686 63.6561 174.686 63.6813V63.6897V63.7065C174.698 63.7947 174.766 63.8786 174.866 63.9374C174.984 64.0046 175.148 64.0424 175.328 64.034H175.358C175.513 64.0214 175.656 63.9752 175.769 63.908C175.79 63.8954 175.811 63.8828 175.832 63.866C175.933 63.7905 175.996 63.6981 175.996 63.6015V63.5889V63.5679C175.983 63.4797 175.916 63.3999 175.815 63.3411C175.694 63.2782 175.53 63.2404 175.349 63.2488Z" fill="#818592"/>
<path d="M175.148 61.8426H175.181H175.186C175.425 61.83 175.648 61.8846 175.811 61.9812C175.996 62.0862 176.122 62.2457 176.143 62.4389V62.4431V62.4641V62.4725V62.4935V62.4977C176.143 62.6321 176.093 62.758 176.004 62.8672C175.975 62.9008 175.946 62.9344 175.912 62.9638C175.748 63.1066 175.505 63.2115 175.228 63.2325L175.194 63.2367H175.19C174.95 63.2493 174.732 63.1947 174.564 63.0982C174.379 62.9932 174.253 62.8336 174.232 62.6405V62.6363V62.6153V62.6069V62.5859V62.5817C174.232 62.4473 174.283 62.3213 174.371 62.2163C174.4 62.1827 174.43 62.1492 174.463 62.1198C174.627 61.9686 174.871 61.8636 175.148 61.8426ZM175.202 62.1492H175.173C174.967 62.1659 174.787 62.2373 174.673 62.3381C174.652 62.3591 174.631 62.3759 174.615 62.3969C174.573 62.4515 174.543 62.5103 174.543 62.5691V62.5775V62.5943C174.556 62.6824 174.619 62.758 174.72 62.8168C174.837 62.884 174.997 62.9218 175.177 62.9134H175.207C175.412 62.8966 175.593 62.8252 175.706 62.7244C175.727 62.7076 175.748 62.6866 175.765 62.6657C175.807 62.6111 175.832 62.5565 175.837 62.4977V62.4851V62.4641C175.824 62.3801 175.757 62.3003 175.66 62.2415C175.538 62.1785 175.379 62.145 175.202 62.1492Z" fill="#818592"/>
<path d="M174.997 60.7462L175.03 60.742H175.034C175.27 60.7294 175.488 60.784 175.656 60.8764C175.841 60.9814 175.962 61.141 175.983 61.3299V61.3341V61.3551V61.3635V61.3845V61.3887C175.983 61.5819 175.874 61.7582 175.702 61.8884C175.677 61.9094 175.647 61.9262 175.618 61.9472C175.471 62.0354 175.286 62.0942 175.081 62.111H175.047H175.043C174.808 62.1236 174.589 62.069 174.421 61.9766C174.237 61.8716 174.115 61.712 174.094 61.5231V61.5189V61.4979V61.4937V61.4727V61.4685C174.094 61.4139 174.102 61.3551 174.123 61.3005C174.14 61.2501 174.165 61.1997 174.199 61.1494C174.342 60.9352 174.644 60.7714 174.997 60.7462ZM175.051 61.0528H175.022C174.761 61.0738 174.547 61.1787 174.451 61.3215C174.434 61.3467 174.421 61.3677 174.413 61.3929C174.404 61.4139 174.4 61.4391 174.4 61.4601V61.4685V61.4895C174.413 61.5735 174.476 61.6491 174.577 61.7036C174.694 61.7708 174.854 61.8044 175.03 61.8002H175.06C175.215 61.7876 175.354 61.7456 175.463 61.6826C175.484 61.6701 175.505 61.6575 175.521 61.6449C175.618 61.5735 175.681 61.4853 175.681 61.3971V61.3845V61.3635C175.668 61.2795 175.605 61.2039 175.509 61.1494C175.387 61.0822 175.228 61.0444 175.051 61.0528Z" fill="#818592"/>
<path d="M174.85 59.6503H174.883C175.119 59.6378 175.333 59.6881 175.496 59.7805C175.681 59.8855 175.803 60.0409 175.824 60.2256V60.2298V60.2508V60.2592V60.2802V60.2844C175.824 60.4146 175.774 60.5364 175.685 60.6414C175.66 60.675 175.627 60.7043 175.593 60.7337C175.433 60.8723 175.19 60.9731 174.925 60.9899H174.892C174.657 61.0025 174.442 60.9521 174.279 60.8597C174.094 60.7547 173.972 60.5994 173.951 60.4146V60.4104V60.3894V60.381V60.36V60.3558C173.951 60.3012 173.96 60.2424 173.981 60.1878C173.997 60.1375 174.023 60.0871 174.056 60.0409C174.199 59.8351 174.497 59.6755 174.85 59.6503ZM174.9 59.9569H174.871C174.615 59.9737 174.405 60.0829 174.308 60.2214C174.291 60.2424 174.279 60.2676 174.27 60.2928C174.262 60.3138 174.258 60.3348 174.258 60.36V60.3726V60.381C174.266 60.465 174.333 60.5406 174.43 60.5952C174.543 60.6624 174.703 60.6959 174.875 60.6875H174.904C175.106 60.6708 175.278 60.6036 175.391 60.507C175.412 60.4902 175.429 60.4692 175.446 60.4524C175.488 60.402 175.513 60.3474 175.513 60.2928V60.276V60.2676C175.505 60.1836 175.438 60.1123 175.341 60.0535C175.232 59.9821 175.072 59.9485 174.9 59.9569Z" fill="#818592"/>
<path d="M174.698 58.5537H174.728C174.958 58.5411 175.173 58.5915 175.336 58.6838C175.517 58.7846 175.639 58.94 175.664 59.1248V59.129V59.15V59.1584V59.1793V59.1835C175.664 59.2381 175.656 59.2927 175.635 59.3473C175.618 59.3977 175.593 59.4481 175.559 59.4943C175.412 59.7 175.118 59.8596 174.77 59.8848H174.74C174.509 59.8974 174.295 59.847 174.131 59.7546C173.951 59.6539 173.829 59.4985 173.804 59.3137V59.3095V59.2885V59.2801V59.2591V59.2549C173.804 59.2003 173.812 59.1458 173.833 59.0912C173.85 59.0408 173.875 58.9904 173.909 58.9442C174.051 58.7342 174.35 58.5789 174.698 58.5537ZM174.749 58.8602H174.719C174.467 58.877 174.257 58.982 174.165 59.1206C174.148 59.1416 174.14 59.1668 174.131 59.1877C174.123 59.2087 174.123 59.2297 174.123 59.2507V59.2633V59.2759C174.131 59.3557 174.194 59.4271 174.291 59.4817C174.404 59.5447 174.56 59.5825 174.732 59.5741H174.761C175.013 59.5573 175.223 59.4523 175.32 59.3179C175.336 59.2969 175.345 59.2717 175.353 59.2507C175.362 59.2297 175.366 59.2087 175.366 59.1877V59.1752V59.1626C175.357 59.0828 175.294 59.0114 175.198 58.9568C175.076 58.8854 174.921 58.8518 174.749 58.8602Z" fill="#818592"/>
<path d="M174.548 57.4541H174.577H174.581C174.808 57.4457 175.022 57.4919 175.186 57.5843C175.367 57.6851 175.488 57.8362 175.509 58.0168V58.021V58.042V58.0504V58.0714V58.0756C175.509 58.1302 175.501 58.1848 175.48 58.2393C175.463 58.2897 175.438 58.3401 175.404 58.3821C175.262 58.5879 174.968 58.7391 174.623 58.7642H174.594C174.367 58.7726 174.153 58.7265 173.989 58.6341C173.809 58.5333 173.687 58.3821 173.666 58.2016V58.1974V58.1764V58.168V58.147V58.1428C173.666 58.0882 173.674 58.0336 173.695 57.979C173.712 57.9286 173.737 57.8782 173.771 57.8362C173.91 57.6347 174.204 57.4793 174.548 57.4541ZM174.598 57.7606H174.569C174.321 57.7774 174.111 57.8782 174.019 58.0126C174.002 58.0336 173.989 58.0588 173.985 58.0798C173.977 58.1008 173.977 58.1176 173.977 58.1428V58.1554V58.1638C173.985 58.2393 174.048 58.3107 174.145 58.3653C174.258 58.4283 174.413 58.4619 174.581 58.4535H174.611C174.859 58.4367 175.069 58.3359 175.161 58.2016C175.178 58.1806 175.19 58.1554 175.195 58.1344C175.203 58.1134 175.207 58.0924 175.207 58.0714V58.0588V58.0504C175.199 57.9748 175.136 57.9034 175.039 57.8488C174.922 57.79 174.766 57.7564 174.598 57.7606Z" fill="#818592"/>
<path d="M174.396 56.3574H174.425H174.429C174.656 56.349 174.866 56.3952 175.026 56.4834C175.206 56.58 175.324 56.7311 175.349 56.9117V56.9159V56.9369V56.9453V56.9663V56.9705C175.349 57.0251 175.341 57.0797 175.32 57.1301C175.303 57.1805 175.278 57.2267 175.248 57.2728C175.106 57.4744 174.816 57.6256 174.476 57.6508H174.446H174.442C174.215 57.6592 174.005 57.613 173.846 57.5248C173.665 57.424 173.548 57.277 173.522 57.0965V57.0923V57.0713V57.0629V57.0419V57.0377C173.522 56.9831 173.531 56.9285 173.552 56.8781C173.569 56.8277 173.594 56.7815 173.627 56.7353C173.762 56.5338 174.056 56.3826 174.396 56.3574ZM174.446 56.664H174.417C174.169 56.6808 173.968 56.7815 173.875 56.9117C173.858 56.9327 173.85 56.9537 173.842 56.9747C173.833 56.9957 173.833 57.0167 173.833 57.0335V57.0461V57.0545C173.842 57.1301 173.905 57.1973 173.997 57.2476C174.11 57.3106 174.262 57.3442 174.429 57.3358H174.459C174.707 57.319 174.908 57.2183 175.001 57.0881C175.017 57.0671 175.026 57.0461 175.034 57.0251C175.043 57.0083 175.043 56.9873 175.043 56.9663V56.9537V56.9453C175.034 56.8697 174.971 56.8025 174.879 56.7521C174.765 56.6892 174.614 56.6556 174.446 56.664Z" fill="#818592"/>
<path d="M174.245 55.2617H174.275H174.279C174.501 55.2533 174.711 55.2995 174.871 55.3835C175.047 55.4801 175.169 55.627 175.19 55.8034V55.8076V55.8286V55.837V55.858V55.8622C175.19 55.9168 175.182 55.9672 175.161 56.0218C175.144 56.0722 175.119 56.1184 175.085 56.1603C174.942 56.3577 174.657 56.5047 174.321 56.5299H174.291H174.287C174.065 56.5383 173.855 56.4921 173.695 56.4039C173.519 56.3073 173.397 56.1603 173.376 55.984V55.9798V55.9588V55.9504V55.9294V55.9252C173.376 55.8706 173.384 55.8202 173.405 55.7656C173.422 55.7152 173.447 55.669 173.477 55.627C173.62 55.4339 173.909 55.2827 174.245 55.2617ZM174.296 55.5683H174.266C174.023 55.5851 173.821 55.6816 173.733 55.8076C173.72 55.8286 173.708 55.8496 173.699 55.8706C173.695 55.8874 173.691 55.9084 173.691 55.9294V55.942V55.9504C173.699 56.0218 173.762 56.089 173.85 56.1394C173.96 56.1981 174.111 56.2317 174.279 56.2275H174.308C174.552 56.2107 174.753 56.1142 174.841 55.9882C174.854 55.9672 174.867 55.9462 174.875 55.9252C174.879 55.9084 174.883 55.8874 174.883 55.8664V55.858V55.8454C174.871 55.774 174.812 55.711 174.724 55.6606C174.611 55.5935 174.459 55.5599 174.296 55.5683Z" fill="#818592"/>
<path d="M174.098 54.1621H174.127C174.35 54.1537 174.556 54.1999 174.711 54.2839C174.887 54.3805 175.005 54.5232 175.03 54.6996V54.7038V54.7248V54.7332V54.7542V54.7584C175.03 54.813 175.022 54.8634 175.001 54.9138C174.984 54.96 174.959 55.0103 174.925 55.0523C174.787 55.2455 174.501 55.3925 174.169 55.4135H174.173H174.144C173.921 55.4219 173.716 55.3757 173.56 55.2917C173.384 55.1951 173.266 55.0523 173.241 54.876V54.8718V54.8508V54.8424V54.8214V54.8172C173.241 54.7626 173.25 54.7122 173.271 54.6618C173.287 54.6156 173.313 54.5694 173.342 54.5232C173.476 54.3343 173.762 54.1873 174.098 54.1621ZM174.144 54.4728H174.115C173.875 54.4896 173.674 54.582 173.586 54.708C173.573 54.729 173.56 54.7458 173.552 54.7668C173.548 54.7836 173.544 54.8004 173.544 54.8214V54.8298V54.8424C173.552 54.9096 173.611 54.9726 173.699 55.0229C173.808 55.0817 173.959 55.1153 174.123 55.1069H174.148C174.388 55.0901 174.589 54.9977 174.677 54.8718C174.69 54.8508 174.703 54.8298 174.711 54.813C174.715 54.7962 174.719 54.7794 174.719 54.7584V54.75V54.7374C174.707 54.6702 174.648 54.6072 174.564 54.561C174.455 54.498 174.308 54.4645 174.144 54.4728Z" fill="#818592"/>
<path d="M173.947 53.0664H173.977C174.195 53.058 174.401 53.1042 174.556 53.184C174.732 53.2764 174.85 53.4191 174.871 53.5913V53.5955V53.6165V53.6249V53.6459V53.6501C174.871 53.7005 174.863 53.7551 174.846 53.8055C174.829 53.8517 174.804 53.8978 174.774 53.944C174.636 54.133 174.35 54.2758 174.023 54.301H174.019H173.989C173.771 54.3094 173.565 54.2632 173.41 54.1834C173.233 54.091 173.116 53.9482 173.095 53.7761V53.7719V53.7509V53.7425V53.7215V53.7173C173.095 53.6669 173.103 53.6123 173.12 53.5619C173.137 53.5157 173.162 53.4695 173.191 53.4233C173.334 53.2302 173.615 53.0874 173.947 53.0664ZM173.993 53.3729H173.964C173.725 53.3897 173.531 53.4821 173.443 53.5997C173.431 53.6165 173.418 53.6375 173.414 53.6585C173.41 53.6753 173.405 53.6921 173.405 53.7089V53.7173V53.7299C173.414 53.7971 173.473 53.8559 173.561 53.9062C173.67 53.965 173.817 53.9944 173.981 53.9902H174.01C174.25 53.9734 174.443 53.8811 174.531 53.7635C174.543 53.7467 174.556 53.7257 174.56 53.7047C174.564 53.6879 174.569 53.6711 174.569 53.6543V53.6459V53.6333C174.556 53.5703 174.501 53.5073 174.413 53.4611C174.304 53.3981 174.153 53.3687 173.993 53.3729Z" fill="#818592"/>
<path d="M173.796 51.9698H173.826H173.83C174.048 51.9614 174.25 52.0034 174.401 52.0874C174.573 52.1798 174.691 52.3225 174.716 52.4905V52.4947V52.5115V52.5199V52.5367V52.5409C174.716 52.5913 174.707 52.6459 174.691 52.6921C174.674 52.7383 174.649 52.7844 174.619 52.8264C174.481 53.0112 174.204 53.154 173.876 53.175H173.847H173.838C173.62 53.1834 173.418 53.1372 173.267 53.0574C173.095 52.965 172.977 52.8222 172.952 52.6543V52.6501V52.6333V52.6249V52.6081V52.6039C172.952 52.5535 172.961 52.4989 172.982 52.4485C172.998 52.4023 173.024 52.3561 173.053 52.3141C173.187 52.1294 173.469 51.9908 173.796 51.9698ZM173.842 52.2763H173.813C173.578 52.2931 173.385 52.3813 173.296 52.4989C173.284 52.5157 173.271 52.5367 173.267 52.5535C173.263 52.5703 173.259 52.5871 173.259 52.6039V52.6123V52.6249C173.267 52.6879 173.326 52.7467 173.41 52.7928C173.515 52.8516 173.662 52.881 173.821 52.8726H173.851C174.086 52.8558 174.279 52.7676 174.367 52.6501C174.38 52.6333 174.392 52.6123 174.397 52.5955C174.401 52.5787 174.405 52.5619 174.405 52.5451V52.5367V52.5241C174.392 52.4611 174.338 52.4023 174.254 52.3603C174.149 52.3015 174.002 52.2679 173.842 52.2763Z" fill="#818592"/>
<path d="M173.645 50.8699H173.674H173.678C173.741 50.8657 173.8 50.8699 173.859 50.8741C173.917 50.8783 173.976 50.8909 174.027 50.9035C174.325 50.9791 174.539 51.168 174.556 51.4116V51.4158V51.4326V51.4368C174.556 51.6048 174.459 51.7601 174.3 51.8693C174.161 51.9701 173.968 52.0373 173.754 52.0583H173.75L173.72 52.0625H173.716H173.687H173.682C173.619 52.0667 173.561 52.0625 173.502 52.0583C173.443 52.0541 173.384 52.0415 173.334 52.0289C173.036 51.9533 172.821 51.7643 172.805 51.5208V51.5166V51.4998C172.805 51.3318 172.901 51.1764 173.061 51.0673C173.199 50.9665 173.393 50.8993 173.607 50.8783H173.611L173.645 50.8699ZM173.691 51.1806H173.666L173.636 51.1848C173.477 51.2016 173.342 51.2478 173.246 51.3192C173.166 51.3738 173.12 51.441 173.12 51.4998V51.5082C173.128 51.609 173.246 51.6929 173.414 51.7349C173.456 51.7433 173.498 51.7517 173.54 51.7559C173.582 51.7601 173.628 51.7601 173.674 51.7601H173.699L173.729 51.7559C173.888 51.7433 174.022 51.6929 174.119 51.6216C174.195 51.567 174.241 51.504 174.245 51.4452V51.4326C174.237 51.336 174.119 51.2478 173.951 51.2058C173.909 51.1974 173.867 51.189 173.825 51.1848C173.783 51.1764 173.737 51.1764 173.691 51.1806Z" fill="#818592"/>
<path d="M174.51 49.7195H174.539C174.61 49.7153 174.678 49.7195 174.745 49.7237C174.812 49.7321 174.879 49.7405 174.938 49.7573C175.278 49.8413 175.522 50.0512 175.538 50.3242V50.3284V50.3452V50.3494C175.538 50.4124 175.526 50.4712 175.505 50.53C175.484 50.5803 175.459 50.6307 175.421 50.6769C175.265 50.8827 174.95 51.0339 174.589 51.0591H174.56C174.489 51.0633 174.421 51.0591 174.354 51.0549C174.287 51.0465 174.22 51.0381 174.161 51.0213C173.821 50.9373 173.577 50.7231 173.561 50.4544V50.4502V50.4334V50.4292C173.561 50.2402 173.666 50.068 173.846 49.9379C174.006 49.8245 174.228 49.7447 174.476 49.7237L174.51 49.7195ZM174.56 50.0261H174.535L174.505 50.0303C174.316 50.047 174.148 50.1058 174.031 50.1898C173.934 50.2612 173.875 50.341 173.875 50.425V50.4334C173.884 50.5594 174.031 50.6685 174.241 50.7189C174.287 50.7315 174.342 50.7399 174.392 50.7441C174.442 50.7483 174.501 50.7483 174.556 50.7483H174.585C174.858 50.7315 175.089 50.6265 175.194 50.488C175.211 50.467 175.223 50.4418 175.232 50.4208C175.24 50.3998 175.244 50.3788 175.244 50.3578V50.3452C175.236 50.2192 175.089 50.11 174.879 50.0596C174.829 50.047 174.778 50.0387 174.728 50.0345C174.669 50.0261 174.615 50.0261 174.56 50.0261Z" fill="#818592"/>
<path d="M176.324 49.366H176.353C176.425 49.3618 176.492 49.366 176.559 49.3702C176.626 49.3786 176.694 49.387 176.752 49.4038C177.092 49.4878 177.336 49.7019 177.353 49.9707V49.9749V49.9917V49.9959C177.353 50.1848 177.248 50.357 177.067 50.483C176.908 50.5964 176.685 50.6761 176.437 50.6971L176.408 50.7013H176.404H176.374C176.303 50.7055 176.236 50.7013 176.169 50.6971C176.101 50.6887 176.034 50.6803 175.975 50.6635C175.635 50.5796 175.392 50.3654 175.375 50.0967V50.0925V50.0757V50.0715C175.375 49.8825 175.48 49.7103 175.661 49.5844C175.82 49.471 176.043 49.3912 176.29 49.3702L176.324 49.366ZM176.37 49.6725H176.345L176.316 49.6767C176.127 49.6935 175.959 49.7523 175.841 49.8363C175.745 49.9077 175.686 49.9875 175.686 50.0715V50.0799C175.694 50.2058 175.841 50.315 176.051 50.3654C176.097 50.378 176.152 50.3864 176.202 50.3906C176.253 50.3948 176.307 50.399 176.366 50.3948H176.391L176.421 50.3906C176.61 50.3738 176.778 50.315 176.895 50.231C176.992 50.1638 177.05 50.0799 177.05 50.0001V49.9875C177.042 49.8615 176.895 49.7523 176.685 49.7019C176.635 49.6893 176.584 49.6809 176.534 49.6767C176.484 49.6725 176.429 49.6725 176.37 49.6725Z" fill="#818592"/>
<path d="M178.088 49.114H178.117C178.188 49.1098 178.256 49.114 178.323 49.1182C178.39 49.1266 178.457 49.135 178.516 49.1518C178.856 49.2358 179.1 49.45 179.116 49.7187V49.7229V49.7397V49.7439C179.116 49.9329 179.012 50.1051 178.831 50.231C178.671 50.3444 178.449 50.4242 178.201 50.4452L178.172 50.4494H178.167H178.138C178.067 50.4536 178 50.4494 177.932 50.4452C177.865 50.4368 177.798 50.4284 177.739 50.4116C177.399 50.3276 177.155 50.1176 177.139 49.8447V49.8405V49.8237V49.8195C177.139 49.6305 177.244 49.4584 177.424 49.3324C177.584 49.219 177.806 49.1392 178.054 49.1182L178.088 49.114ZM178.134 49.4206H178.109L178.079 49.4248C177.89 49.4416 177.722 49.5004 177.605 49.5844C177.508 49.6557 177.449 49.7355 177.449 49.8195V49.8279C177.458 49.9539 177.605 50.0631 177.815 50.1135C177.861 50.126 177.916 50.1344 177.966 50.1386C178.016 50.1428 178.071 50.147 178.13 50.1428H178.155L178.184 50.1386C178.373 50.1218 178.541 50.0631 178.659 49.9791C178.755 49.9119 178.814 49.8279 178.814 49.7481V49.7355C178.806 49.6095 178.659 49.5004 178.449 49.45C178.398 49.4374 178.348 49.429 178.298 49.4248C178.247 49.4206 178.193 49.4206 178.134 49.4206Z" fill="#818592"/>
<path d="M175.064 48.5096H175.094C175.165 48.5054 175.232 48.5096 175.299 48.5138C175.367 48.5221 175.434 48.5305 175.493 48.5473C175.833 48.6313 176.076 48.8413 176.093 49.1142V49.1184V49.1352V49.1394C176.093 49.2024 176.08 49.2612 176.059 49.32C176.038 49.3704 176.013 49.4208 175.975 49.467C175.82 49.6727 175.505 49.8239 175.144 49.8491H175.115C175.043 49.8533 174.976 49.8491 174.909 49.8449C174.842 49.8365 174.775 49.8281 174.716 49.8113C174.376 49.7273 174.132 49.5174 174.115 49.2444V49.2402V49.2234V49.2192C174.115 49.0303 174.22 48.8581 174.401 48.7321C174.56 48.6187 174.783 48.5389 175.031 48.5179L175.064 48.5096ZM175.115 48.8161H175.089L175.06 48.8203C174.871 48.8371 174.703 48.8959 174.586 48.9799C174.489 49.0512 174.43 49.131 174.43 49.215V49.2234C174.439 49.3494 174.586 49.4586 174.796 49.509C174.846 49.5216 174.896 49.53 174.947 49.5342C174.997 49.5384 175.056 49.5426 175.11 49.5384H175.14C175.413 49.5216 175.644 49.4166 175.749 49.278C175.766 49.257 175.778 49.2318 175.787 49.2108C175.795 49.1898 175.799 49.1688 175.799 49.1478V49.1352C175.791 49.0093 175.644 48.9001 175.434 48.8497C175.383 48.8371 175.333 48.8287 175.283 48.8245C175.224 48.8161 175.169 48.8161 175.115 48.8161Z" fill="#818592"/>
<path d="M176.878 48.157H176.907C176.979 48.1528 177.046 48.157 177.113 48.1612C177.18 48.1696 177.247 48.178 177.306 48.1948C177.646 48.2788 177.89 48.4929 177.907 48.7617V48.7659V48.7827V48.7869C177.907 48.9759 177.802 49.148 177.621 49.274C177.461 49.3874 177.239 49.4672 176.991 49.4882L176.962 49.4924H176.958H176.928C176.857 49.4966 176.79 49.4924 176.722 49.4882C176.655 49.4798 176.588 49.4714 176.529 49.4546C176.189 49.3706 175.946 49.1606 175.929 48.8877V48.8835V48.8667V48.8625C175.929 48.6735 176.034 48.5013 176.214 48.3754C176.374 48.262 176.596 48.1822 176.844 48.1612L176.878 48.157ZM176.924 48.4636H176.899L176.869 48.4678C176.68 48.4845 176.512 48.5433 176.395 48.6273C176.298 48.6987 176.239 48.7785 176.239 48.8625V48.8709C176.248 48.9968 176.395 49.106 176.605 49.1564C176.655 49.169 176.706 49.1774 176.756 49.1816C176.806 49.1858 176.865 49.19 176.92 49.1858H176.945L176.974 49.1816C177.163 49.1648 177.331 49.106 177.449 49.022C177.545 48.9549 177.604 48.8709 177.604 48.7911V48.7785C177.596 48.6525 177.449 48.5433 177.239 48.4929C177.188 48.4804 177.138 48.472 177.088 48.4678C177.037 48.4636 176.983 48.4636 176.924 48.4636Z" fill="#818592"/>
<path fill-rule="evenodd" clip-rule="evenodd" d="M194.145 48.9219C191.47 54.1205 188.124 57.1439 188.77 73.063C185.247 73.063 181.724 73.063 178.201 73.063C174.648 74.5411 172.33 76.8423 169.639 78.8957C169.819 79.1392 170.004 79.3828 170.185 79.6264C172.129 78.8369 174.073 78.0475 176.017 77.258H194.876C196.278 77.258 197.181 76.8927 197.609 75.8009C197.609 74.9191 197.609 74.0414 197.609 73.1596C196.543 73.1596 195.476 73.1596 194.41 73.1596C195.384 70.3671 197.362 67.9064 199.797 65.5969L199.705 64.778C198.248 66.2981 196.791 67.814 195.334 69.3341C198.483 60.2009 203.207 53.688 210.732 51.8403C206.176 51.6262 201.225 54.9687 195.699 63.5015C196.753 58.6136 199.26 54.1751 202.989 50.0179L202.443 49.7449C198.718 54.0659 195.808 58.0593 191.327 72.9748C191.327 69.1494 191.693 66.2939 192.419 64.4127C191.844 64.9586 191.264 65.5045 190.689 66.0546C190.903 64.0054 192.117 62.1199 193.788 60.3143C192.575 60.6166 191.479 61.4061 190.509 62.6826C190.752 59.1301 192.209 56.3041 194.88 54.2087C193.393 54.4816 191.903 56.0899 190.416 58.3071C191.655 55.1745 192.902 52.0503 194.145 48.9219Z" fill="#818592"/>
<path fill-rule="evenodd" clip-rule="evenodd" d="M195.291 78.2197C188.946 78.3793 182.592 78.1651 176.243 78.1357C172.783 79.2905 169.541 81.5371 166.304 83.813C170.285 82.7003 174.265 82.0032 178.246 82.2258C183.592 82.2258 188.937 82.2258 194.283 82.2258C196.676 82.2258 197.558 81.5833 197.457 80.2227C197.336 78.669 196.807 78.1819 195.291 78.2197Z" fill="#818592"/>
<path fill-rule="evenodd" clip-rule="evenodd" d="M164.637 85.9842C167.349 84.3549 170.86 83.5192 174.908 83.2295C181.618 83.2295 188.329 83.2295 195.039 83.2295C197.319 83.3849 197.361 83.9098 197.374 84.8168C197.395 86.2739 197.743 87.4665 194.367 87.4875C189.744 87.5169 185.125 87.4875 180.501 87.4875C175.966 87.4035 172.405 84.6152 164.637 85.9842Z" fill="#818592"/>
<path fill-rule="evenodd" clip-rule="evenodd" d="M165.469 87.3191C169.29 86.3869 172.893 87.2015 176.492 88.0708C178.524 88.1841 180.556 88.2933 182.589 88.4067C187.153 88.4067 191.73 88.075 196.287 88.4067C197.525 88.4949 197.488 89.3809 197.454 90.3257C197.399 91.997 196.732 92.6227 194.363 92.5807C188.547 92.4799 182.727 92.5807 176.907 92.5807C173.972 90.1452 170.411 88.1967 165.469 87.3191Z" fill="#818592"/>
<path fill-rule="evenodd" clip-rule="evenodd" d="M181.035 93.6055C183.937 93.6055 186.838 93.6055 189.736 93.6055C189.853 95.5077 189.643 97.0866 188.724 97.9558C188.724 99.2786 188.724 100.597 188.724 101.92C187.922 102.281 187.12 102.646 186.314 103.007C186.314 101.58 186.314 100.156 186.314 98.7285C184.227 97.6787 182.505 95.894 181.035 93.6055Z" fill="#818592"/>
<path fill-rule="evenodd" clip-rule="evenodd" d="M192.146 93.5254C193.208 93.5254 194.27 93.5254 195.333 93.5254C195.303 94.4576 195.278 95.3898 195.253 96.3221C195.849 97.5902 196.446 98.8584 197.042 100.131C196.782 100.156 196.525 100.181 196.265 100.206C195.593 98.9129 194.917 97.6154 194.245 96.3221C192.402 96.2213 191.705 95.289 192.146 93.5254Z" fill="#818592"/>
<path fill-rule="evenodd" clip-rule="evenodd" d="M206.007 45.4277C205.05 45.8435 204.101 46.7421 204.718 47.1578C205.491 47.6785 205.995 46.3138 206.007 45.4277Z" fill="#818592"/>
<path d="M206.437 44.6747L205.602 45.7959L205.807 45.9489L206.642 44.8278L206.437 44.6747Z" fill="#818592"/>
<path d="M203.903 44.6401L203.648 44.667L203.795 46.0576L204.05 46.0307L203.903 44.6401Z" fill="#818592"/>
<path fill-rule="evenodd" clip-rule="evenodd" d="M203.837 45.5166C203.412 46.4698 203.328 47.7758 204.063 47.6624C204.983 47.5196 204.433 46.1801 203.837 45.5166Z" fill="#818592"/>
<path fill-rule="evenodd" clip-rule="evenodd" d="M206.474 47.4853C205.68 48.1656 204.458 48.6191 204.353 47.8801C204.227 46.9562 205.672 47.1032 206.474 47.4853Z" fill="#818592"/>
<path d="M207.297 47.1731L205.923 47.4297L205.97 47.6815L207.344 47.4249L207.297 47.1731Z" fill="#818592"/>
<path d="M203.075 45.7514L202.82 45.7783L202.967 47.169L203.222 47.142L203.075 45.7514Z" fill="#818592"/>
<path fill-rule="evenodd" clip-rule="evenodd" d="M203.008 46.6289C202.584 47.5821 202.5 48.8881 203.235 48.7747C204.155 48.6319 203.601 47.2924 203.008 46.6289Z" fill="#818592"/>
<path fill-rule="evenodd" clip-rule="evenodd" d="M205.646 48.5976C204.852 49.2779 203.63 49.7314 203.525 48.9924C203.399 48.0686 204.844 48.2155 205.646 48.5976Z" fill="#818592"/>
<path d="M206.465 48.2805L205.091 48.5371L205.138 48.7889L206.512 48.5323L206.465 48.2805Z" fill="#818592"/>
<path d="M202.244 46.8637L201.989 46.8906L202.136 48.2813L202.391 48.2543L202.244 46.8637Z" fill="#818592"/>
<path fill-rule="evenodd" clip-rule="evenodd" d="M202.177 47.7422C201.753 48.6954 201.669 50.0014 202.404 49.888C203.324 49.7452 202.774 48.4015 202.177 47.7422Z" fill="#818592"/>
<path fill-rule="evenodd" clip-rule="evenodd" d="M204.819 49.7078C204.025 50.3881 202.803 50.8416 202.698 50.1025C202.572 49.1829 204.017 49.3299 204.819 49.7078Z" fill="#818592"/>
<path d="M205.638 49.3977L204.264 49.6543L204.311 49.9061L205.685 49.6495L205.638 49.3977Z" fill="#818592"/>
<path fill-rule="evenodd" clip-rule="evenodd" d="M203.056 60.9512C202.099 61.3669 201.15 62.2655 201.767 62.6812C202.54 63.2019 203.043 61.8414 203.056 60.9512Z" fill="#818592"/>
<path d="M203.489 60.2011L202.653 61.3223L202.859 61.4753L203.694 60.3541L203.489 60.2011Z" fill="#818592"/>
<path d="M200.953 60.1664L200.698 60.1934L200.845 61.584L201.1 61.5571L200.953 60.1664Z" fill="#818592"/>
<path fill-rule="evenodd" clip-rule="evenodd" d="M200.889 61.0439C200.465 61.9972 200.381 63.3031 201.116 63.1897C202.036 63.0428 201.481 61.7032 200.889 61.0439Z" fill="#818592"/>
<path fill-rule="evenodd" clip-rule="evenodd" d="M203.527 63.0098C202.733 63.69 201.511 64.1435 201.406 63.4045C201.28 62.4807 202.725 62.6276 203.527 63.0098Z" fill="#818592"/>
<path d="M204.344 62.6957L202.97 62.9521L203.017 63.2039L204.391 62.9475L204.344 62.6957Z" fill="#818592"/>
<path d="M200.118 61.2777L199.863 61.3047L200.01 62.6952L200.265 62.6682L200.118 61.2777Z" fill="#818592"/>
<path fill-rule="evenodd" clip-rule="evenodd" d="M200.057 62.1562C199.633 63.1095 199.549 64.4154 200.284 64.302C201.204 64.1551 200.654 62.8155 200.057 62.1562Z" fill="#818592"/>
<path fill-rule="evenodd" clip-rule="evenodd" d="M202.695 64.1221C201.901 64.8023 200.679 65.2558 200.574 64.5168C200.448 63.593 201.893 63.7399 202.695 64.1221Z" fill="#818592"/>
<path d="M203.517 63.8079L202.143 64.0645L202.19 64.3163L203.564 64.0597L203.517 63.8079Z" fill="#818592"/>
<path d="M199.291 62.3871L199.036 62.4141L199.183 63.8046L199.438 63.7776L199.291 62.3871Z" fill="#818592"/>
<path fill-rule="evenodd" clip-rule="evenodd" d="M199.23 63.2695C198.806 64.2227 198.722 65.5287 199.457 65.4153C200.377 65.2683 199.822 63.9288 199.23 63.2695Z" fill="#818592"/>
<path fill-rule="evenodd" clip-rule="evenodd" d="M201.868 65.2353C201.074 65.9156 199.852 66.3691 199.747 65.6301C199.621 64.7062 201.066 64.8532 201.868 65.2353Z" fill="#818592"/>
<path d="M202.689 64.9171L201.314 65.1738L201.361 65.4256L202.736 65.1689L202.689 64.9171Z" fill="#818592"/>
<path d="M168.991 30H171.255L173.123 37.3486L175.177 30H176.714L178.767 37.3486L180.627 30H182.895L179.607 41.3378H177.843L175.941 34.258L174.026 41.3378H172.275L168.991 30Z" fill="#818592"/>
<path d="M185.452 41.3378V30H191.57V31.9946H187.644V34.5771H191.57V36.5381H187.644V41.3378H185.452Z" fill="#818592"/>
<path d="M197.176 35.0684H197.76C198.377 35.0684 198.852 34.934 199.183 34.6653C199.511 34.4008 199.679 34.0186 199.679 33.5189C199.679 33.0066 199.519 32.6245 199.2 32.3725C198.881 32.1206 198.394 31.9946 197.747 31.9946H197.18V35.0684H197.176ZM197.176 41.3378H194.959V30H197.777C198.491 30 199.057 30.0378 199.469 30.1176C199.88 30.1932 200.216 30.3191 200.473 30.4913C200.939 30.8062 201.308 31.2262 201.573 31.7427C201.841 32.2634 201.976 32.8177 201.976 33.4097C201.976 34.4931 201.619 35.3624 200.901 36.0132C200.183 36.6599 199.217 36.9875 198.003 36.9875H197.176V41.3378Z" fill="#818592"/>
</g>
<rect x="0.5" y="0.5" width="369" height="144" stroke="#DEDEE0"/>
<defs>
<clipPath id="clip0">
<rect width="88.964" height="85" fill="white" transform="translate(141 30)"/>
</clipPath>
</defs>
</svg>
