<svg width="70" height="70" viewBox="0 0 70 70" fill="none" xmlns="http://www.w3.org/2000/svg">
<circle cx="35" cy="35" r="35" fill="#00DCE6" fill-opacity="0.1"/>
<path d="M34.4997 44.3538C39.942 44.3538 44.3538 39.942 44.3538 34.4997C44.3538 29.0574 39.942 24.6455 34.4997 24.6455C29.0574 24.6455 24.6455 29.0574 24.6455 34.4997C24.6455 39.942 29.0574 44.3538 34.4997 44.3538Z" stroke="#00DCE6" stroke-miterlimit="10"/>
<path d="M31.1477 40.055C30.7628 40.055 30.4521 39.7444 30.4521 39.3596V37.9689C30.4521 37.1762 32.7523 35.8828 34.6257 35.8828C36.5038 35.8828 38.7993 37.1762 38.7993 37.9689V39.3596C38.7993 39.7444 38.4886 40.055 38.1037 40.055H31.1477Z" stroke="#00DCE6" stroke-miterlimit="10"/>
<path d="M34.6261 35.8833C36.3002 35.8833 37.4085 34.5482 37.4085 32.9025V31.9105C37.4085 30.2648 36.3002 28.9297 34.6261 28.9297C32.9521 28.9297 31.8438 30.2648 31.8438 31.9105V32.9025C31.8438 34.5482 32.9521 35.8833 34.6261 35.8833Z" stroke="#00DCE6" stroke-miterlimit="10"/>
<path d="M34.5 19.2705C35.9843 19.2705 37.1875 18.0673 37.1875 16.583C37.1875 15.0987 35.9843 13.8955 34.5 13.8955C33.0157 13.8955 31.8125 15.0987 31.8125 16.583C31.8125 18.0673 33.0157 19.2705 34.5 19.2705Z" stroke="#00DCE6" stroke-miterlimit="10"/>
<path d="M34.5 19.2705V24.6455" stroke="#00DCE6" stroke-miterlimit="10"/>
<path d="M34.5 55.1035C35.9843 55.1035 37.1875 53.9003 37.1875 52.416C37.1875 50.9318 35.9843 49.7285 34.5 49.7285C33.0157 49.7285 31.8125 50.9318 31.8125 52.416C31.8125 53.9003 33.0157 55.1035 34.5 55.1035Z" stroke="#00DCE6" stroke-miterlimit="10"/>
<path d="M34.5 49.7285V44.3535" stroke="#00DCE6" stroke-miterlimit="10"/>
<path d="M52.416 37.1875C53.9003 37.1875 55.1035 35.9843 55.1035 34.5C55.1035 33.0157 53.9003 31.8125 52.416 31.8125C50.9318 31.8125 49.7285 33.0157 49.7285 34.5C49.7285 35.9843 50.9318 37.1875 52.416 37.1875Z" stroke="#00DCE6" stroke-miterlimit="10"/>
<path d="M49.7285 34.5H44.3535" stroke="#00DCE6" stroke-miterlimit="10"/>
<path d="M16.583 37.1875C18.0673 37.1875 19.2705 35.9843 19.2705 34.5C19.2705 33.0157 18.0673 31.8125 16.583 31.8125C15.0987 31.8125 13.8955 33.0157 13.8955 34.5C13.8955 35.9843 15.0987 37.1875 16.583 37.1875Z" stroke="#00DCE6" stroke-miterlimit="10"/>
<path d="M19.2705 34.5H24.6455" stroke="#00DCE6" stroke-miterlimit="10"/>
<path d="M49.7285 21.958C48.2414 21.958 47.041 20.7576 47.041 19.2705C47.041 17.7834 48.2414 16.583 49.7285 16.583C51.2156 16.583 52.416 17.7834 52.416 19.2705C52.416 20.7576 51.2156 21.958 49.7285 21.958Z" stroke="#00DCE6" stroke-miterlimit="10"/>
<path d="M47.9372 21.0625L43.458 25.5417" stroke="#00DCE6" stroke-miterlimit="10"/>
<path d="M47.0413 25.5413H43.458V21.958" stroke="#00DCE6" stroke-miterlimit="10"/>
<path d="M19.2705 21.958C20.7576 21.958 21.958 20.7576 21.958 19.2705C21.958 17.7834 20.7576 16.583 19.2705 16.583C17.7834 16.583 16.583 17.7834 16.583 19.2705C16.583 20.7576 17.7834 21.958 19.2705 21.958Z" stroke="#00DCE6" stroke-miterlimit="10"/>
<path d="M21.0625 21.0625L25.5417 25.5417" stroke="#00DCE6" stroke-miterlimit="10"/>
<path d="M21.958 25.5413H25.5413V21.958" stroke="#00DCE6" stroke-miterlimit="10"/>
<path d="M49.7285 46.1455C48.2414 46.1455 47.041 47.3459 47.041 48.833C47.041 50.3201 48.2414 51.5205 49.7285 51.5205C51.2156 51.5205 52.416 50.3201 52.416 48.833C52.416 47.3459 51.2156 46.1455 49.7285 46.1455Z" stroke="#00DCE6" stroke-miterlimit="10"/>
<path d="M47.9372 47.0417L43.458 42.5625" stroke="#00DCE6" stroke-miterlimit="10"/>
<path d="M47.0413 42.5625H43.458V46.1458" stroke="#00DCE6" stroke-miterlimit="10"/>
<path d="M19.2705 46.1455C20.7576 46.1455 21.958 47.3459 21.958 48.833C21.958 50.3201 20.7576 51.5205 19.2705 51.5205C17.7834 51.5205 16.583 50.3201 16.583 48.833C16.583 47.3459 17.7834 46.1455 19.2705 46.1455Z" stroke="#00DCE6" stroke-miterlimit="10"/>
<path d="M21.0625 47.0417L25.5417 42.5625" stroke="#00DCE6" stroke-miterlimit="10"/>
<path d="M21.958 42.5625H25.5413V46.1458" stroke="#00DCE6" stroke-miterlimit="10"/>
</svg>
