<svg width="370" height="145" viewBox="0 0 370 145" fill="none" xmlns="http://www.w3.org/2000/svg">
<rect x="0.5" y="0.5" width="369" height="144" stroke="#DEDEE0"/>
<path d="M172.365 30.208H148V47.9064C148 54.6007 153.437 60.0007 160.184 60.0007C166.876 60.0007 172.368 55.0693 172.368 48.426V30.208H172.365ZM156.995 46.8162C152.73 46.8258 149.265 43.4021 149.256 39.1688C149.256 39.156 149.256 39.1465 149.256 39.1337C149.256 34.9291 152.708 31.5054 156.995 31.5054C161.231 31.5054 164.734 34.9323 164.734 39.1337C164.731 43.3925 161.228 46.8162 156.995 46.8162Z" fill="#818592"/>
<path d="M196.835 40.2227H195.476L193.906 44.3253L192.233 40.2227H190.926L193.228 46.1933H194.638L196.835 40.2227Z" fill="#818592"/>
<path d="M187.789 40.7971C187.371 40.3827 186.742 40.0703 186.01 40.0703C185.329 40.0703 184.651 40.3285 184.337 40.6919V40.1723H183.081V40.7939V44.6352V46.194H184.337V44.6384V42.0435C184.494 41.6291 185.435 41.3167 185.801 41.3167C186.585 41.3167 187.368 41.7311 187.368 42.8213V44.6384V46.194H188.624V44.6384V42.6141C188.627 41.9383 188.312 41.3135 187.789 40.7971Z" fill="#818592"/>
<path d="M201.331 40.7964C200.863 40.3278 200.182 40.0696 199.292 40.0186C198.56 40.0186 197.879 40.2768 197.359 40.7964C196.784 41.367 196.418 42.199 196.418 43.184C196.418 43.7036 196.575 44.169 196.784 44.6376C197.256 45.6226 198.248 46.2984 199.45 46.2984C200.339 46.2984 201.331 45.7278 201.906 45.001L201.28 44.6376L200.863 44.3252L200.548 44.6376C200.13 44.95 199.607 45.103 199.241 45.103C198.875 45.103 198.457 44.8958 198.142 44.6376C197.882 44.3252 197.674 44.016 197.674 43.5984H202.327C202.327 42.5592 202.012 41.469 201.331 40.7964ZM197.674 42.5082C197.882 41.7814 198.563 41.2108 199.398 41.2108C199.973 41.2108 200.811 41.7814 200.965 42.5082H197.674Z" fill="#818592"/>
<path d="M210.115 44.616V44.5332C210.115 42.5599 207.186 42.7161 207.186 41.7311C207.186 41.4187 207.5 41.1095 207.812 41.1095C208.335 41.1095 208.647 41.4219 208.962 41.8873L209.851 41.3677C209.745 41.1605 209.588 41.0043 209.434 40.7971C209.068 40.3827 208.544 40.0703 207.918 40.0703C207.237 40.0703 206.556 40.2775 206.193 40.7971C206.036 41.0553 205.985 41.3677 205.985 41.7311C205.985 43.8064 208.779 43.3696 208.779 44.5108C208.779 44.5108 208.775 44.5937 208.775 44.6256C208.753 45.04 208.287 45.1866 207.973 45.1866C207.449 45.1866 207.083 44.9284 206.874 44.616L206.894 44.6415C206.788 44.4853 206.717 44.3546 206.666 44.2526L205.725 44.7212C206.091 45.499 206.823 46.2259 208.079 46.2259C209.219 46.2259 210.054 45.5596 210.115 44.6384V44.6224C210.115 44.6192 210.118 44.616 210.115 44.616ZM206.874 44.616H206.868H206.874Z" fill="#818592"/>
<path d="M181.253 40.7965V43.2861C181.253 43.8567 180.887 44.3253 180.415 44.6345C180.049 44.8385 179.635 44.9469 179.214 44.9469C178.742 44.9469 178.325 44.8417 178.065 44.6345C177.593 44.2711 177.384 43.7515 177.384 43.2861V40.7965V38.8232H176.025V40.7965V43.2861C176.025 43.7547 176.183 44.2201 176.34 44.6345C176.864 45.6195 177.962 46.2443 179.163 46.2443C180.419 46.2443 181.568 45.6227 182.143 44.6345C182.352 44.2201 182.458 43.7515 182.458 43.2861V40.7965V38.8232H181.257V40.7965H181.253Z" fill="#818592"/>
<path d="M203.945 37.3696C204.26 37.8892 204.886 38.1474 205.512 38.1474C206.504 38.1474 207.288 37.6788 207.863 37.0062C208.229 36.4356 208.492 35.8108 208.492 35.0871C208.544 33.4773 207.394 32.1289 205.721 32.1289H202.792V37.0062V39.2886H203.942V37.3696H203.945ZM203.945 33.2701H205.512C206.244 33.2701 207.343 33.8407 207.343 35.2433C207.343 36.2825 206.504 36.9552 205.512 36.9552C205.04 36.9552 203.945 36.3335 203.945 35.0871V33.2701Z" fill="#818592"/>
<path d="M189.777 38.7188C189.462 38.7188 189.202 38.977 189.202 39.2894C189.202 39.6528 189.462 39.911 189.777 39.911C190.092 39.911 190.352 39.6528 190.352 39.2894C190.352 38.9801 190.092 38.7188 189.777 38.7188Z" fill="#818592"/>
<path d="M204.051 40.7971C204.006 40.8577 203.974 40.9406 203.948 41.0043V40.1755H202.799V46.092H203.948V43.0285C203.948 42.1965 204.681 41.2115 205.622 41.2115V40.0703C204.783 40.0703 204.366 40.4337 204.051 40.7971Z" fill="#818592"/>
<path d="M210.534 40.2227V46.1933H211.735V40.2227H210.534Z" fill="#818592"/>
<path d="M221.199 40.1717H219.892L218.116 44.1691L216.286 40.1717H214.144V38.8232H212.943V40.1717H212.313V41.3129H212.943V44.0639C212.943 44.2647 212.975 44.6154 212.975 44.6154C213.184 45.4984 213.967 46.171 215.38 46.171V45.0298C214.921 45.0808 214.613 44.8863 214.404 44.6345H214.407C214.301 44.4783 214.25 44.3221 214.25 44.1659V41.3129H215.4L217.439 45.7247C217.021 46.7097 216.498 47.2293 215.506 47.2803V48.4247C217.179 48.3737 217.962 47.5417 218.8 45.7247L221.199 40.1717Z" fill="#818592"/>
<path d="M211.16 38.7188C210.794 38.7188 210.534 38.977 210.534 39.2894C210.534 39.6528 210.794 39.911 211.16 39.911C211.475 39.911 211.735 39.6528 211.735 39.2894C211.735 38.9801 211.475 38.7188 211.16 38.7188Z" fill="#818592"/>
<path d="M190.406 40.2227H189.15V46.1901H190.406V40.2227Z" fill="#818592"/>
<path d="M218.219 31.9736C217.538 31.9736 216.86 32.2318 216.546 32.5952V32.0246H215.29V36.2229V38.0463H216.546V36.2229V33.8927C216.703 33.5293 217.644 33.1659 218.01 33.1659C218.794 33.1659 219.632 33.5803 219.632 34.6705V37.0071V38.0463H220.833V37.0071V34.4633C220.833 33.271 219.735 31.9736 218.219 31.9736Z" fill="#818592"/>
<path d="M213.264 36.2703C212.94 36.6369 212.493 36.8823 212.105 37.0067C212.105 37.0067 212.021 37.0417 211.803 37.0417C211.598 37.0417 211.475 37.0067 211.475 37.0067C210.849 36.8505 210.117 36.2288 210.117 35.553H214.822C214.822 33.736 213.984 31.9732 211.79 31.9732C210.274 31.9222 208.916 33.1654 208.916 35.0876C208.916 35.8144 209.125 36.436 209.542 37.0067C210.066 37.7335 210.901 38.2531 211.896 38.2531C212.786 38.2531 213.727 37.6825 214.302 37.0067L214.311 36.9971L213.264 36.2703ZM211.842 33.1144C212.468 33.1144 213.306 33.685 213.409 34.4118H210.114C210.326 33.685 211.058 33.1144 211.842 33.1144Z" fill="#818592"/>
<path d="M195.477 37.0067C196.209 37.6825 197.15 38.1479 198.249 38.1479C199.347 38.1479 200.288 37.6793 201.02 37.0067C201.752 36.2799 202.224 35.1897 202.224 34.0484C202.224 31.817 200.445 30 198.252 30C196.055 30 194.279 31.817 194.279 34.0484C194.273 35.1897 194.745 36.2799 195.477 37.0067ZM198.249 31.1954C199.764 31.1954 201.02 32.4928 201.02 34.0484C201.02 35.6583 199.764 36.9015 198.249 36.9015C196.733 36.9015 195.477 35.6551 195.477 34.0484C195.477 32.4928 196.73 31.1954 198.249 31.1954Z" fill="#818592"/>
<path d="M183.973 31.974C183.398 31.974 182.772 32.2864 182.406 32.5956V30.208H175.084V31.2472H177.541V37.0075V38.0467H178.848V37.0075V31.2472H181.147V38.0435H182.403V33.893C182.403 33.893 182.978 33.1152 183.867 33.1152C185.123 33.1152 185.646 34.0492 185.646 34.4637V36.6887V37.7885V38.0531H186.796V37.7885V36.6887V34.5147C186.796 33.2714 185.646 31.974 183.973 31.974Z" fill="#818592"/>
<path d="M192.664 36.9554L191.566 36.2286C191.286 36.6016 190.792 36.9554 190.294 37.0255L190.06 37.0287L189.78 37.0096C189.151 36.8534 188.422 36.2318 188.473 35.556H193.126C193.126 33.7389 192.291 31.9761 190.095 31.9761C188.579 31.9251 187.221 33.1683 187.221 35.0906C187.221 35.8174 187.484 36.439 187.847 37.0096C188.37 37.7364 189.26 38.256 190.201 38.256C191.142 38.256 192.083 37.6854 192.658 37.0096C192.654 37.0064 192.658 36.9745 192.664 36.9554ZM190.194 33.1141C190.769 33.1141 191.607 33.6848 191.762 34.4116H188.415C188.679 33.6848 189.359 33.1141 190.194 33.1141Z" fill="#818592"/>
<path fill-rule="evenodd" clip-rule="evenodd" d="M163.141 100.443C163.222 101.084 163.25 101.725 163.25 102.366C163.245 106.422 163.245 110.479 163.25 114.529C163.25 115 163.245 115 162.769 115H156.271H150.317C147.397 114.994 144.718 114.206 142.365 112.47C139.342 110.24 137.556 107.262 137.104 103.552C136.657 99.8475 137.653 96.5174 140.069 93.6526C142.279 91.026 145.13 89.4886 148.565 89.0972C152.665 88.632 156.248 89.8403 159.237 92.6541C161.475 94.7645 162.764 97.3911 163.141 100.443ZM160.514 111.846V106.769V102.066C160.514 101.504 160.474 100.948 160.382 100.398C159.489 94.8552 154.348 91.06 148.743 91.7918C143.161 92.5236 139.165 97.5783 139.789 103.121C140.373 108.317 144.798 112.266 150.077 112.288C152.456 112.3 154.833 112.298 157.211 112.296H157.212C158.163 112.295 159.115 112.294 160.067 112.294C160.502 112.294 160.514 112.283 160.514 111.846ZM219.482 95.701C220.868 96.9661 221.732 98.4865 222.019 100.342C222.631 104.324 219.923 108.284 216.007 109.078C215.532 109.174 215.045 109.231 214.559 109.231C213.597 109.227 212.638 109.229 211.678 109.23L211.674 109.23C211.195 109.23 210.716 109.231 210.236 109.231C209.795 109.231 209.784 109.242 209.778 109.674C209.761 110.984 209.274 112.039 208.107 112.737C207.757 112.947 207.374 113.049 206.973 113.1C206.647 113.145 206.601 113.111 206.601 112.788V109.781V107.002C206.601 106.439 206.599 105.876 206.596 105.312V105.312V105.311V105.31V105.31V105.309V105.309V105.308V105.307C206.592 104.038 206.587 102.767 206.607 101.499C206.652 98.5205 208.015 96.257 210.563 94.731C213.305 93.0858 217.124 93.5453 219.482 95.701ZM214.57 106.168C215.137 106.162 215.681 106.032 216.196 105.782C218.177 104.829 219.23 102.679 218.784 100.478C218.292 98.044 215.99 96.4329 213.591 96.8356C211.616 97.1704 209.979 98.9971 209.847 101.017C209.783 102.016 209.792 103.016 209.801 104.015V104.016C209.806 104.622 209.812 105.227 209.801 105.833C209.795 106.094 209.91 106.179 210.162 106.173C210.728 106.165 211.292 106.166 211.857 106.167H211.857C212.045 106.167 212.234 106.168 212.423 106.168C212.662 106.168 212.9 106.168 213.139 106.169C213.616 106.17 214.093 106.171 214.57 106.168ZM232.347 102.735C232.347 102.097 232.347 101.46 232.348 100.824V100.823V100.822V100.822V100.821V100.82C232.349 99.5488 232.35 98.2781 232.347 97.0048C232.341 95.3597 231.213 94.0152 229.684 93.7882C229.301 93.7315 229.278 93.7485 229.278 94.1456V99.1095C229.278 99.8426 229.277 100.576 229.277 101.309V101.31V101.31C229.275 102.778 229.274 104.247 229.278 105.719C229.284 107.369 230.406 108.72 231.929 108.946C232.329 109.003 232.347 108.992 232.347 108.578V102.735ZM224.183 100.007C224.183 100.644 224.182 101.281 224.181 101.918V101.918V101.919V101.92V101.92V101.921C224.18 103.193 224.179 104.463 224.183 105.737C224.194 107.382 225.316 108.726 226.85 108.947C227.223 109.004 227.251 108.982 227.251 108.613V102.883C227.251 102.391 227.252 101.898 227.252 101.407C227.253 99.9321 227.254 98.4592 227.245 96.9832C227.234 95.3607 226.106 94.0105 224.589 93.7893C224.2 93.7325 224.177 93.7496 224.177 94.1353C224.183 96.0982 224.183 98.0554 224.183 100.007ZM158.796 101.516C158.098 101.402 157.405 101.278 156.712 101.147C156.478 101.102 156.358 101.17 156.3 101.402C156.169 101.936 155.985 102.452 155.762 102.957C155.247 104.125 154.577 105.181 153.512 105.941C152.338 106.78 151.022 106.917 149.636 106.729C148.153 106.531 146.911 105.907 146.001 104.698C145.268 103.723 144.879 102.599 144.633 101.425C144.575 101.141 144.461 101.073 144.186 101.136C143.522 101.278 142.858 101.397 142.188 101.51C141.936 101.55 141.873 101.646 141.925 101.89C142.085 102.611 142.279 103.32 142.549 104.012C143.104 105.447 143.917 106.718 145.125 107.699C146.728 108.998 148.606 109.475 150.684 109.515C150.756 109.511 150.832 109.509 150.912 109.506H150.912C151.088 109.501 151.279 109.495 151.468 109.475C153.495 109.282 155.161 108.403 156.489 106.882C157.772 105.413 158.544 103.694 159.008 101.822C159.06 101.635 158.997 101.55 158.796 101.516ZM203.309 100.364C202.828 96.8296 199.651 93.959 196.284 93.7775C194.012 93.6584 192.048 94.2881 190.416 95.8652C188.813 97.4139 188.012 99.3087 188 101.532C187.996 102.75 187.998 103.965 187.999 105.18V105.181C188 105.789 188 106.398 188 107.007V109.418C188 109.796 188.001 110.174 188.001 110.553V110.554C188.003 111.31 188.004 112.066 188 112.822C188 113.054 188.069 113.145 188.321 113.117C188.905 113.049 189.431 112.844 189.889 112.481C190.754 111.789 191.206 110.916 191.143 109.792C191.115 109.242 191.137 109.242 191.681 109.236L191.681 109.236C193.124 109.236 194.561 109.236 196.004 109.231C196.823 109.225 197.618 109.072 198.38 108.783C201.752 107.506 203.796 103.932 203.309 100.364ZM197.521 105.787C197.023 106.025 196.496 106.162 195.947 106.167C195.211 106.173 194.477 106.173 193.743 106.173H193.742C193.008 106.173 192.274 106.173 191.538 106.179C191.252 106.179 191.178 106.065 191.183 105.804C191.192 105.237 191.191 104.67 191.19 104.032V104.031V104.03C191.189 103.807 191.189 103.575 191.189 103.331C191.202 103.057 191.196 102.758 191.191 102.444C191.181 101.912 191.171 101.335 191.246 100.761C191.487 98.8718 193.055 97.1699 194.853 96.8523C196.926 96.4835 198.838 97.5047 199.754 99.4675C200.847 101.81 199.828 104.687 197.521 105.787ZM185.894 99.893C185.974 100.387 186.031 100.886 186.031 101.385C186.034 102.343 186.034 103.3 186.035 104.256C186.035 105.692 186.036 107.127 186.043 108.567C186.043 108.987 186.037 108.992 185.608 108.992H181.829C181.309 108.99 180.79 108.991 180.271 108.991C179.579 108.992 178.887 108.993 178.194 108.987C174.913 108.953 171.948 106.82 170.929 103.779C169.417 99.2576 172.457 94.4413 177.226 93.8229C181.904 93.2159 185.316 96.563 185.894 99.893ZM180.78 105.991C181.348 105.987 181.915 105.983 182.482 105.991C182.739 105.991 182.837 105.889 182.831 105.645C182.827 105.173 182.829 104.7 182.83 104.227C182.83 103.991 182.831 103.754 182.831 103.518C182.831 103.301 182.832 103.083 182.832 102.866C182.834 102.431 182.835 101.996 182.831 101.561C182.82 100.613 182.631 99.7115 182.11 98.8889C180.747 96.7218 177.942 96.0524 175.852 97.4366C174.283 98.4748 173.608 99.9724 173.728 101.833C173.866 103.938 175.783 105.833 177.907 105.952C178.864 106.005 179.822 105.998 180.78 105.991Z" fill="#818592"/>
</svg>
