<svg width="370" height="145" viewBox="0 0 370 145" fill="none" xmlns="http://www.w3.org/2000/svg">
<rect x="0.5" y="0.5" width="369" height="144" stroke="#DEDEE0"/>
<g clip-path="url(#clip0)">
<path d="M201.772 55.7082C192.783 55.7082 189.653 47.691 189.653 42.7382C189.653 37.7854 192.783 30 201.738 30C210.694 30 214.155 37.7511 214.155 42.6867C214.155 47.6223 210.77 55.7082 201.772 55.7082ZM208.525 42.7468C208.525 38.6438 205.123 35.5193 201.772 35.5193C198.422 35.5193 195.275 38.6438 195.275 42.7382C195.275 46.8326 197.86 50.2661 201.823 50.2661C205.787 50.2661 208.525 46.8498 208.525 42.7468Z" fill="#818592"/>
<path d="M175.026 30.7898L180.656 43.8456L186.294 30.8155L192.052 30.7984L180.46 56.0001L168.987 31.0473L168.868 30.7383L175.026 30.7898Z" fill="#818592"/>
<path d="M221.35 49.7856L230.723 49.7684L230.714 55.0731L215.525 55.0388L215.508 30.8242L221.35 30.8586V49.7856Z" fill="#818592"/>
<path d="M152.692 55.0818C152.692 55.0818 164.114 42.6268 164.42 42.1976C164.684 41.8285 166.291 39.4165 166.342 37.8972C166.393 36.438 166.198 35.8543 165.977 35.2792C165.764 34.7212 165.033 33.7427 163.901 33.0903C163.604 32.9272 162.643 32.5238 161.401 32.5238C160.483 32.5238 159.454 32.6697 158.314 33.4337C157.174 34.1976 156.758 35.1075 156.553 35.4423C156.307 35.8629 156.111 36.3264 155.992 36.7985C155.967 36.9015 155.873 37.1933 155.873 37.1933L153.543 35.8028L153.585 35.6397C153.585 35.6397 153.934 34.8242 154.062 34.5925C154.317 34.1204 154.58 33.6397 154.895 33.2019C155.286 32.6697 155.737 32.189 156.239 31.777C157.174 30.9444 158.646 30.0088 161.461 30.0088C164.208 30.0088 165.96 31.2448 166.342 31.5195C166.682 31.7599 169.149 33.3478 169.149 37.1418C169.149 39.4938 168.281 41.2448 168.103 41.6054C167.882 42.0603 167.601 42.4723 167.312 42.8757C167.091 43.1762 166.878 43.4938 166.64 43.777C166.546 43.8886 158.756 52.3006 158.756 52.3006L170.501 52.335L170.237 55.0903H152.692V55.0818Z" fill="#818592"/>
<path d="M149.308 55.0813L145.319 50.0427L141.347 55.0813H139L144.171 48.532L139.374 42.3345L142.274 42.3174L145.625 46.6865L149.12 42.326L151.57 42.3174L146.807 48.2058L152.038 55.0813H149.308Z" fill="#818592"/>
<path d="M156.991 100.68V105.407C156.991 106.519 157.957 107.493 159.061 107.493H159.199C160.304 107.493 160.994 106.797 160.994 105.407V100.68C160.994 99.4283 160.442 98.4551 159.061 98.4551C159.061 98.4551 159.061 98.4551 158.923 98.4551C157.819 98.4551 156.991 99.2893 156.991 100.402C156.991 100.541 156.991 100.541 156.991 100.68ZM156.439 96.5085C156.853 96.5085 157.129 96.7866 157.129 97.2037V97.3428C157.681 96.6476 158.509 96.2305 159.475 96.2305C159.475 96.2305 159.475 96.2305 159.613 96.2305C162.098 96.2305 163.616 97.7599 163.616 100.819V105.268C163.616 107.771 161.96 109.717 159.751 109.717C158.785 109.717 157.681 109.3 157.267 108.605V114.305C157.267 114.722 156.991 115.001 156.577 115.001H155.611C155.197 115.001 154.921 114.722 154.921 114.305V97.2037C154.921 96.7866 155.197 96.5085 155.611 96.5085H156.439Z" fill="#818592"/>
<path d="M168.032 105.824C168.032 106.797 168.722 107.492 169.688 107.492C170.931 107.353 172.035 106.38 172.035 104.989V103.738L169.274 104.433C168.446 104.433 168.032 104.989 168.032 105.824ZM174.243 100.818V108.743C174.243 109.16 173.967 109.439 173.553 109.439H172.587C172.173 109.439 171.897 109.16 171.897 108.743V108.465C171.345 109.16 170.378 109.578 169.412 109.578C169.412 109.578 169.412 109.578 169.274 109.578C167.204 109.578 165.548 107.909 165.548 105.824C165.548 103.738 166.376 102.626 168.722 102.07L171.759 101.374V100.262C171.759 99.2888 170.931 98.4546 169.964 98.4546C168.722 98.4546 168.17 99.0108 168.17 99.845C168.17 100.262 167.894 100.54 167.48 100.54H166.514C166.1 100.54 165.824 100.262 165.824 99.845C165.824 97.6204 167.618 96.3691 169.964 96.3691C172.311 96.23 174.243 97.7594 174.243 100.818Z" fill="#818592"/>
<path d="M182.801 96.9257V97.6208C182.801 98.038 182.525 98.316 182.111 98.316C179.764 98.316 179.35 99.4283 179.35 100.541V108.605C179.35 109.022 179.074 109.3 178.66 109.3H177.694C177.28 109.3 177.004 109.022 177.004 108.605V97.2037C177.004 96.7866 177.28 96.5085 177.694 96.5085H178.66C179.074 96.5085 179.35 96.7866 179.35 97.2037V97.3428C180.178 96.5085 180.592 96.2305 182.111 96.2305C182.525 96.2305 182.801 96.6476 182.801 96.9257Z" fill="#818592"/>
<path d="M192.461 99.4283C192.461 99.7064 192.599 100.124 191.909 100.263L191.081 100.541C190.805 100.68 190.391 100.68 190.253 99.9845C190.115 99.1503 189.425 98.5941 188.735 98.5941C188.597 98.5941 188.597 98.5941 188.459 98.5941C187.078 98.5941 186.388 99.4283 186.388 101.236V105.129C186.388 106.797 187.078 107.632 188.459 107.632H188.597C189.563 107.632 190.391 106.797 190.391 105.824C190.391 105.407 190.667 105.129 191.081 105.129H191.909C191.909 105.129 191.909 105.129 192.047 105.129C192.461 105.129 192.737 105.407 192.737 105.824V105.963C192.737 109.022 190.253 109.995 188.459 109.995C185.56 109.995 184.042 108.466 184.042 105.268V101.097C184.042 97.4818 186.25 96.2305 188.459 96.2305C190.115 96.2305 192.185 96.9257 192.461 99.4283Z" fill="#818592"/>
<path d="M196.739 91.2246C197.153 91.2246 197.429 91.5027 197.429 91.9198V97.3423C197.567 97.0642 198.257 96.23 199.776 96.23C202.26 96.23 203.64 97.7594 203.64 100.818V108.743C203.64 109.16 203.364 109.439 202.95 109.439H201.984C201.57 109.439 201.294 109.16 201.294 108.743C201.294 108.743 201.294 108.743 201.294 108.604V100.679C201.294 99.4278 200.88 98.4546 199.5 98.4546C199.5 98.4546 199.5 98.4546 199.362 98.4546C198.257 98.4546 197.429 99.2888 197.429 100.401V100.54V108.604C197.429 109.021 197.153 109.299 196.739 109.299H195.773C195.359 109.299 195.083 109.021 195.083 108.604V91.9198C195.083 91.5027 195.359 91.2246 195.773 91.2246H196.739Z" fill="#818592"/>
<path d="M208.058 96.5085C208.472 96.5085 208.748 96.7866 208.748 97.2037V97.3428C209.3 96.6476 210.128 96.2305 211.094 96.2305C212.06 96.2305 212.888 96.7866 213.44 97.4818C214.13 96.3695 215.372 96.2305 216.201 96.2305C218.271 96.2305 220.065 97.2037 220.065 100.819V108.744C220.065 109.161 219.789 109.439 219.375 109.439H218.547C218.133 109.439 217.857 109.161 217.857 108.744V100.819C217.857 99.5674 217.581 98.4551 216.339 98.4551C215.51 98.4551 214.82 99.1503 214.682 100.124V108.744C214.682 109.161 214.406 109.439 213.992 109.439H213.026C212.612 109.439 212.336 109.161 212.336 108.744V100.124V99.9845C212.336 99.1503 211.646 98.4551 210.818 98.4551C209.3 98.4551 208.748 99.8454 208.748 100.819V108.744C208.748 109.161 208.472 109.439 208.058 109.439H207.091C206.677 109.439 206.401 109.161 206.401 108.744V97.2037C206.401 96.7866 206.677 96.5085 207.091 96.5085H208.058Z" fill="#818592"/>
<path d="M225.034 100.68V101.931L229.036 101.097V100.124C229.036 99.0112 228.208 98.5941 227.104 98.5941C225.586 98.4551 225.034 99.4283 225.034 100.68ZM231.383 99.9845V101.792C231.383 102.487 230.831 103.043 230.14 103.182L225.034 104.156V105.407C225.034 106.519 225.862 107.353 226.966 107.353H227.104C228.07 107.353 228.898 106.519 228.898 105.546V105.407C228.898 104.99 229.174 104.712 229.588 104.712H230.554C230.554 104.712 230.554 104.712 230.692 104.712C231.107 104.712 231.383 104.99 231.383 105.407V105.546C231.383 107.771 229.726 109.717 227.104 109.717C227.104 109.717 226.966 109.717 226.828 109.717C224.482 109.717 222.688 107.91 222.688 105.546C222.688 105.546 222.688 105.546 222.688 105.407V100.819C222.688 98.177 224.344 96.2305 227.242 96.2305C229.588 96.3695 231.383 97.7599 231.383 99.9845Z" fill="#818592"/>
<path d="M235.523 96.5085C235.937 96.5085 236.213 96.7866 236.213 97.2037V97.3428C236.766 96.6476 237.594 96.2305 238.56 96.2305C241.044 96.2305 242.424 97.7599 242.424 100.819V108.744C242.424 109.161 242.148 109.439 241.734 109.439H240.768C240.354 109.439 240.078 109.161 240.078 108.744V100.68C240.078 99.4283 239.664 98.4551 238.284 98.4551C238.284 98.4551 238.284 98.4551 238.146 98.4551C237.042 98.4551 236.213 99.2893 236.213 100.402V100.541V108.605C236.213 109.022 235.937 109.3 235.523 109.3H234.557C234.143 109.3 233.867 109.022 233.867 108.605V97.2037C233.867 96.7866 234.143 96.5085 234.557 96.5085H235.523Z" fill="#818592"/>
<path d="M245.046 96.7862V92.6151C245.046 92.198 245.322 91.9199 245.736 91.9199H246.564C246.978 91.9199 247.254 92.198 247.254 92.6151V96.7862H249.187C249.601 96.7862 249.877 97.0643 249.877 97.4814V98.1766C249.877 98.5937 249.601 98.8718 249.187 98.8718H247.254V105.268C247.254 106.797 247.945 107.214 249.049 107.214H249.463C249.877 107.214 250.153 107.492 250.153 107.909V108.604C250.153 109.022 249.877 109.3 249.463 109.3H249.049C246.426 109.3 244.908 108.187 244.908 105.128L245.046 96.7862Z" fill="#818592"/>
<path d="M252.636 97.7594C252.912 97.7594 253.05 97.7594 253.05 97.6204C253.05 97.4813 252.912 97.4813 252.774 97.4813C252.774 97.4813 252.774 97.4813 252.636 97.4813C252.636 97.4813 252.636 97.4813 252.498 97.4813L252.636 97.7594ZM252.636 98.4546H252.36V97.3423C252.498 97.3423 252.636 97.3423 252.774 97.3423C252.912 97.3423 253.05 97.3423 253.05 97.4813C253.05 97.4813 253.188 97.6204 253.188 97.7594C253.188 97.8984 253.05 98.0375 252.912 98.0375C253.05 98.0375 253.05 98.1765 253.05 98.3155C253.05 98.4546 253.05 98.4546 253.188 98.5936H252.912C252.912 98.4546 252.774 98.4546 252.774 98.3155C252.774 98.1765 252.636 98.1765 252.498 98.1765H252.636V98.4546ZM251.946 97.7594C251.946 97.7594 251.946 97.8984 251.946 97.7594C251.946 98.3155 252.36 98.5936 252.774 98.5936C253.188 98.5936 253.602 98.1765 253.602 97.7594C253.602 97.7594 253.602 97.7594 253.602 97.6204C253.602 97.2032 253.188 96.7861 252.774 96.7861C252.36 96.9252 251.946 97.3423 251.946 97.7594ZM253.878 97.8984C253.878 98.5936 253.326 99.0107 252.774 99.0107C252.222 99.0107 251.67 98.4546 251.67 97.8984C251.67 97.3423 252.222 96.7861 252.774 96.7861C253.326 96.7861 253.878 97.2032 253.878 97.8984Z" fill="#818592"/>
<path d="M144.431 112.358H118.622V91.5027H136.703V89H116V115H147.054V99.4278H144.431V112.358Z" fill="#818592"/>
<path d="M144.432 94.1445H147.054V96.7862H144.432V94.1445Z" fill="#818592"/>
<path d="M139.187 89H141.809V91.6417H139.187V89Z" fill="#818592"/>
<path d="M144.432 89H147.054V91.6417H144.432V89Z" fill="#818592"/>
<path d="M125.937 103.043C125.385 103.043 125.247 103.46 125.247 103.738V105.407C125.247 105.824 125.523 106.102 125.937 106.102C126.351 106.102 126.489 105.824 126.489 105.407V103.738C126.489 103.321 126.351 103.043 125.937 103.043Z" fill="#818592"/>
<path d="M125.661 100.68C123.177 100.68 121.106 102.765 121.106 105.268C121.106 107.771 123.177 109.856 125.661 109.856C128.145 109.856 130.216 107.771 130.216 105.268C130.216 102.765 128.145 100.68 125.661 100.68ZM127.455 105.407C127.455 106.241 126.903 106.936 126.075 106.936C125.799 106.936 125.247 106.797 125.247 106.519V108.466C125.247 108.605 125.109 108.744 124.971 108.744H124.695C124.557 108.744 124.281 108.605 124.281 108.466V102.626C124.281 102.487 124.419 102.348 124.557 102.348H124.833C124.971 102.348 125.109 102.487 125.109 102.626C125.109 102.487 125.523 102.209 125.937 102.209C126.765 102.209 127.317 102.765 127.317 103.739L127.455 105.407Z" fill="#818592"/>
</g>
<defs>
<clipPath id="clip0">
<rect width="176" height="85" fill="white" transform="translate(97 30)"/>
</clipPath>
</defs>
</svg>
