<svg width="370" height="145" viewBox="0 0 370 145" fill="none" xmlns="http://www.w3.org/2000/svg">
<path fill-rule="evenodd" clip-rule="evenodd" d="M133.947 97.9537H138.703C140.898 97.9537 142.483 98.2619 143.519 98.9397C144.495 99.6176 144.982 100.665 144.982 102.083C144.982 103.069 144.739 103.808 144.251 104.486C143.763 105.102 143.092 105.534 142.178 105.657V105.78C143.275 106.027 144.129 106.396 144.678 107.074C145.226 107.752 145.47 108.553 145.47 109.662C145.47 111.141 144.982 112.312 143.946 113.113C142.91 113.915 141.568 114.346 139.739 114.346H133.947V97.9537V97.9537ZM136.569 104.732H139.069C140.166 104.732 140.959 104.548 141.446 104.178C141.934 103.808 142.178 103.192 142.178 102.391C142.178 101.651 141.934 101.035 141.385 100.727C140.837 100.357 139.983 100.234 138.764 100.234H136.508V104.732H136.569ZM136.569 106.889V112.066H139.373C140.471 112.066 141.324 111.881 141.873 111.45C142.422 111.018 142.727 110.34 142.727 109.416C142.727 108.553 142.422 107.937 141.873 107.506C141.324 107.074 140.41 106.889 139.251 106.889H136.569V106.889ZM148.275 114.346V97.9537H150.896V112.066H157.664V114.346H148.275ZM173.759 106.15C173.759 108.8 173.089 110.895 171.808 112.374C170.528 113.853 168.638 114.592 166.26 114.592C163.821 114.592 161.992 113.853 160.712 112.374C159.432 110.895 158.761 108.8 158.761 106.088C158.761 103.377 159.432 101.281 160.712 99.8641C161.992 98.3851 163.882 97.7072 166.321 97.7072C168.699 97.7072 170.528 98.4467 171.869 99.9257C173.21 101.405 173.759 103.438 173.759 106.15ZM161.505 106.15C161.505 108.183 161.931 109.724 162.724 110.772C163.517 111.819 164.675 112.312 166.26 112.312C167.845 112.312 169.004 111.819 169.796 110.772C170.589 109.724 171.016 108.183 171.016 106.15C171.016 104.116 170.65 102.637 169.857 101.59C169.065 100.542 167.906 100.049 166.321 100.049C164.736 100.049 163.578 100.542 162.785 101.59C161.931 102.576 161.505 104.116 161.505 106.15ZM183.514 100.049C181.99 100.049 180.831 100.604 179.978 101.713C179.124 102.822 178.698 104.301 178.698 106.211C178.698 108.245 179.124 109.724 179.917 110.772C180.77 111.819 181.929 112.312 183.514 112.312C184.185 112.312 184.855 112.251 185.465 112.127C186.075 112.004 186.745 111.819 187.477 111.573V113.853C186.197 114.346 184.794 114.592 183.209 114.592C180.892 114.592 179.063 113.853 177.783 112.436C176.503 110.957 175.893 108.923 175.893 106.211C175.893 104.486 176.198 103.007 176.808 101.713C177.417 100.419 178.271 99.4327 179.429 98.7549C180.588 98.077 181.929 97.7072 183.514 97.7072C185.16 97.7072 186.684 98.077 188.026 98.7549L187.111 100.973C186.562 100.727 186.014 100.48 185.404 100.295C184.794 100.111 184.185 100.049 183.514 100.049ZM202.719 114.346H199.67L194.61 106.951L193.086 108.245V114.408H190.464V97.9537H193.086V105.78C193.818 104.856 194.488 103.993 195.22 103.192L199.548 97.9537H202.536C199.731 101.343 197.719 103.685 196.5 105.164L202.719 114.346ZM211.315 98.7549C209.303 98.7549 207.718 99.4327 206.56 100.727C205.401 102.021 204.853 103.87 204.853 106.15C204.853 108.492 205.401 110.279 206.499 111.573C207.596 112.867 209.12 113.483 211.193 113.483C212.535 113.483 213.754 113.298 214.912 112.929V113.915C213.876 114.284 212.535 114.469 210.949 114.469C208.694 114.469 206.926 113.73 205.645 112.251C204.365 110.772 203.694 108.676 203.694 106.027C203.694 104.363 203.999 102.884 204.609 101.59C205.218 100.295 206.133 99.3095 207.291 98.6316C208.45 97.9537 209.791 97.584 211.315 97.584C212.9 97.584 214.303 97.8921 215.522 98.5084L215.095 99.556C213.876 99.063 212.596 98.7549 211.315 98.7549ZM226.74 114.346H217.961V97.9537H226.74V99.0014H219.119V105.225H226.313V106.273H219.119V113.298H226.74V114.346ZM231.008 107.197V114.346H229.91V97.9537H233.751C235.763 97.9537 237.226 98.3235 238.141 99.063C239.116 99.8025 239.543 100.973 239.543 102.452C239.543 103.562 239.238 104.486 238.69 105.225C238.141 105.965 237.287 106.52 236.129 106.828L240.458 114.284H239.116L234.971 107.136H231.008V107.197ZM231.008 106.211H234.056C235.397 106.211 236.434 105.903 237.226 105.287C238.019 104.671 238.324 103.746 238.324 102.576C238.324 101.343 237.958 100.419 237.226 99.8641C236.495 99.3095 235.276 99.0014 233.629 99.0014H230.947V106.211H231.008ZM246.92 114.346H245.762V99.063H240.58V98.0154H252.103V99.063H246.92V114.346ZM262.833 110.155C262.833 111.511 262.345 112.62 261.37 113.422C260.394 114.223 259.053 114.592 257.468 114.592C255.517 114.592 253.993 114.346 252.956 113.915V112.744C254.115 113.237 255.578 113.483 257.346 113.483C258.687 113.483 259.724 113.175 260.455 112.559C261.187 111.943 261.614 111.141 261.614 110.155C261.614 109.539 261.492 109.046 261.248 108.615C261.004 108.183 260.577 107.814 259.967 107.506C259.419 107.197 258.565 106.828 257.407 106.396C255.761 105.842 254.663 105.225 253.993 104.548C253.322 103.87 253.078 103.007 253.078 101.898C253.078 100.665 253.566 99.6792 254.48 98.8781C255.395 98.077 256.614 97.7072 258.077 97.7072C259.602 97.7072 261.004 98.0154 262.345 98.57L261.918 99.556C260.577 99.0014 259.297 98.6932 258.077 98.6932C256.919 98.6932 255.944 99.0014 255.273 99.556C254.541 100.111 254.236 100.85 254.236 101.836C254.236 102.452 254.358 102.945 254.541 103.315C254.785 103.685 255.09 104.055 255.578 104.363C256.065 104.671 256.919 105.041 258.077 105.472C259.358 105.903 260.272 106.335 260.882 106.766C261.492 107.197 261.979 107.629 262.284 108.183C262.589 108.738 262.833 109.354 262.833 110.155Z" fill="#818592"/>
<path fill-rule="evenodd" clip-rule="evenodd" d="M122.242 108.923C122.242 109.539 121.754 110.032 121.144 110.032H108.097C107.488 110.032 107 109.539 107 108.923C107 108.306 107.488 107.813 108.097 107.813H121.084C121.693 107.813 122.242 108.306 122.242 108.923Z" fill="#818592"/>
<path fill-rule="evenodd" clip-rule="evenodd" d="M126.631 108.923C126.631 109.539 126.144 110.032 125.534 110.032C124.924 110.032 124.437 109.539 124.437 108.923C124.437 108.306 124.924 107.813 125.534 107.813C126.144 107.813 126.631 108.306 126.631 108.923Z" fill="#818592"/>
<path fill-rule="evenodd" clip-rule="evenodd" d="M120.108 113.545C120.108 114.161 119.62 114.654 119.011 114.654C118.401 114.654 117.913 114.161 117.913 113.545C117.913 112.929 118.401 112.436 119.011 112.436C119.62 112.374 120.108 112.867 120.108 113.545Z" fill="#818592"/>
<path fill-rule="evenodd" clip-rule="evenodd" d="M126.631 99.7411C126.631 100.357 126.144 100.85 125.534 100.85C124.924 100.85 124.437 100.357 124.437 99.7411C124.437 99.1248 124.924 98.6318 125.534 98.6318C126.144 98.6318 126.631 99.1248 126.631 99.7411Z" fill="#818592"/>
<path fill-rule="evenodd" clip-rule="evenodd" d="M109.377 99.7411C109.377 100.357 108.89 100.85 108.28 100.85C107.67 100.85 107.183 100.357 107.183 99.7411C107.183 99.1248 107.67 98.6318 108.28 98.6318C108.829 98.6318 109.377 99.1248 109.377 99.7411Z" fill="#818592"/>
<path fill-rule="evenodd" clip-rule="evenodd" d="M118.096 95.119C118.096 95.7353 117.608 96.2283 116.999 96.2283C116.389 96.2283 115.901 95.7353 115.901 95.119C115.901 94.5028 116.389 94.0098 116.999 94.0098C117.608 94.0098 118.096 94.5028 118.096 95.119Z" fill="#818592"/>
<path fill-rule="evenodd" clip-rule="evenodd" d="M115.84 104.301C115.84 104.917 115.353 105.41 114.743 105.41C114.133 105.41 113.646 104.917 113.646 104.301C113.646 103.684 114.133 103.191 114.743 103.191C115.353 103.191 115.84 103.684 115.84 104.301Z" fill="#818592"/>
<path fill-rule="evenodd" clip-rule="evenodd" d="M126.692 95.119C126.692 95.7353 126.204 96.2283 125.595 96.2283H121.449C120.839 96.2283 120.352 95.7353 120.352 95.119C120.352 94.5028 120.839 94.0098 121.449 94.0098H125.595C126.143 94.0098 126.692 94.5028 126.692 95.119Z" fill="#818592"/>
<path fill-rule="evenodd" clip-rule="evenodd" d="M113.646 95.119C113.646 95.7353 113.158 96.2283 112.549 96.2283H108.159C107.549 96.2283 107.062 95.7353 107.062 95.119C107.062 94.5028 107.549 94.0098 108.159 94.0098H112.488C113.158 94.0098 113.646 94.5028 113.646 95.119Z" fill="#818592"/>
<path fill-rule="evenodd" clip-rule="evenodd" d="M126.692 104.301C126.692 104.917 126.204 105.41 125.595 105.41H119.193C118.583 105.41 118.096 104.917 118.096 104.301C118.096 103.684 118.583 103.191 119.193 103.191H125.595C126.143 103.191 126.692 103.684 126.692 104.301Z" fill="#818592"/>
<path fill-rule="evenodd" clip-rule="evenodd" d="M111.39 104.301C111.39 104.917 110.902 105.41 110.293 105.41H108.159C107.549 105.41 107.062 104.917 107.062 104.301C107.062 103.684 107.549 103.191 108.159 103.191H110.232C110.902 103.191 111.39 103.684 111.39 104.301Z" fill="#818592"/>
<path fill-rule="evenodd" clip-rule="evenodd" d="M126.631 113.545C126.631 114.161 126.143 114.654 125.534 114.654H123.461C122.851 114.654 122.363 114.161 122.363 113.545C122.363 112.929 122.851 112.436 123.461 112.436H125.534C126.143 112.374 126.631 112.867 126.631 113.545Z" fill="#818592"/>
<path fill-rule="evenodd" clip-rule="evenodd" d="M115.658 113.545C115.658 114.161 115.17 114.654 114.561 114.654H108.159C107.549 114.654 107.062 114.161 107.062 113.545C107.062 112.929 107.549 112.436 108.159 112.436H114.561C115.17 112.374 115.658 112.867 115.658 113.545Z" fill="#818592"/>
<path fill-rule="evenodd" clip-rule="evenodd" d="M122.181 99.7411C122.181 100.357 121.693 100.85 121.083 100.85H112.67C112.06 100.85 111.572 100.357 111.572 99.7411C111.572 99.1248 112.06 98.6318 112.67 98.6318H121.083C121.693 98.6318 122.181 99.1248 122.181 99.7411Z" fill="#818592"/>
<path d="M192.713 30.0381V36.4564H191.232L191.316 31.8595V31.209L191.274 31.4258C191.232 31.8161 191.189 31.8595 191.147 32.1197L189.962 36.4564H188.608L187.465 32.3365L187.169 31.209C187.211 31.7294 187.211 31.8161 187.211 32.4233L187.296 36.4564H185.772V30.0381H188.058L189.031 33.6375L189.243 34.6784C189.327 34.2447 189.327 34.2013 189.412 33.8977L190.427 30.0381H192.713" fill="#818592"/>
<path d="M193.912 33.0608C193.955 32.7139 193.997 32.3236 194.42 31.9766C194.843 31.6297 195.394 31.543 195.944 31.543C196.494 31.543 197.89 31.6731 197.89 32.8873V35.7062C197.89 36.2266 197.933 36.27 198.017 36.4434H196.663V36.0098C196.325 36.27 195.944 36.5735 195.267 36.5735C194.209 36.5735 193.743 35.7929 193.743 35.1424C193.743 34.3618 194.336 33.9282 194.716 33.7981C195.097 33.6246 195.986 33.4511 196.536 33.3644V33.1042C196.536 32.8873 196.494 32.5404 196.028 32.5404C195.436 32.5404 195.351 32.9307 195.309 33.1042H193.912V33.0608ZM195.647 34.4919C195.436 34.5787 195.097 34.7088 195.097 35.0557C195.097 35.2725 195.267 35.5327 195.605 35.5327C195.774 35.5327 195.944 35.4894 196.071 35.3593C196.536 35.0991 196.536 34.6654 196.536 34.1884L195.647 34.4919Z" fill="#818592"/>
<path d="M199.351 34.8647C199.731 35.255 200.197 35.5152 200.705 35.5152C201.043 35.5152 201.551 35.3851 201.551 35.0381C201.551 34.8647 201.467 34.8213 201.382 34.7779C201.17 34.6478 200.832 34.6044 200.578 34.5611C200.366 34.5177 200.155 34.4743 199.943 34.431C199.689 34.3442 199.393 34.2141 199.181 34.0407C198.97 33.8238 198.843 33.5203 198.843 33.13C198.843 32.3494 199.52 31.5254 200.789 31.5254C201.89 31.5254 202.524 32.0024 202.863 32.2193L202.017 32.9999C201.593 32.6529 201.17 32.5228 200.832 32.5228C200.282 32.5228 200.155 32.7397 200.155 32.8698C200.155 33.13 200.451 33.2167 200.874 33.2601C201.805 33.4335 202.905 33.6937 202.905 34.8213C202.905 35.9488 201.805 36.4692 200.705 36.4692C199.435 36.4692 198.758 35.8187 198.462 35.5585L199.351 34.8647Z" fill="#818592"/>
<path d="M203.98 34.8647C204.361 35.255 204.827 35.5152 205.335 35.5152C205.673 35.5152 206.181 35.3851 206.181 35.0381C206.181 34.8647 206.096 34.8213 206.012 34.7779C205.8 34.6478 205.462 34.6044 205.208 34.5611C204.996 34.5177 204.785 34.4743 204.573 34.431C204.319 34.3442 204.023 34.2141 203.811 34.0407C203.6 33.8238 203.473 33.5203 203.473 33.13C203.473 32.3494 204.15 31.5254 205.419 31.5254C206.52 31.5254 207.154 32.0024 207.493 32.2193L206.647 32.9999C206.223 32.6529 205.8 32.5228 205.462 32.5228C204.911 32.5228 204.785 32.7397 204.785 32.8698C204.785 33.13 205.081 33.2167 205.504 33.2601C206.435 33.4335 207.535 33.6937 207.535 34.8213C207.535 35.9488 206.435 36.4692 205.335 36.4692C204.065 36.4692 203.388 35.8187 203.092 35.5585L203.98 34.8647Z" fill="#818592"/>
<path d="M208.353 33.0608C208.395 32.7139 208.438 32.3236 208.861 31.9766C209.284 31.6297 209.834 31.543 210.384 31.543C210.934 31.543 212.331 31.6731 212.331 32.8873V35.7062C212.331 36.2266 212.373 36.27 212.458 36.4434H211.104V36.0098C210.765 36.27 210.384 36.5735 209.707 36.5735C208.649 36.5735 208.184 35.7929 208.184 35.1424C208.184 34.3618 208.776 33.9282 209.157 33.7981C209.538 33.6246 210.426 33.4511 210.977 33.3644V33.1042C210.977 32.8873 210.934 32.5404 210.469 32.5404C209.876 32.5404 209.792 32.9307 209.749 33.1042H208.353V33.0608ZM210.088 34.4919C209.876 34.5787 209.538 34.7088 209.538 35.0557C209.538 35.2725 209.707 35.5327 210.046 35.5327C210.215 35.5327 210.384 35.4894 210.511 35.3593C210.977 35.0991 210.977 34.6654 210.977 34.1884L210.088 34.4919Z" fill="#818592"/>
<path d="M217.604 35.3477C217.435 35.6079 217.265 35.9115 216.884 36.2151C216.546 36.4753 216.08 36.6487 215.53 36.6487C214.642 36.6487 213.245 36.085 213.245 34.1768C213.245 32.7891 214.007 31.6182 215.573 31.6182C216.08 31.6182 216.969 31.7483 217.562 32.7457L216.546 33.3528C216.461 33.136 216.377 32.9625 216.165 32.7891C216.038 32.7023 215.869 32.6156 215.657 32.6156C214.938 32.6156 214.684 33.4829 214.684 34.0467C214.684 34.6539 214.98 35.4778 215.7 35.4778C215.784 35.4778 216.123 35.4778 216.377 35.1309C216.504 35.0008 216.546 34.8707 216.588 34.7406L217.604 35.3477Z" fill="#818592"/>
<path d="M219.188 30.0293V32.1976C219.399 31.9808 219.823 31.5471 220.542 31.5471C220.881 31.5471 221.261 31.6339 221.515 31.8941C221.939 32.241 221.981 32.6747 221.981 33.3252V36.4476H220.669V33.9757C220.669 33.5854 220.669 33.4119 220.627 33.2385C220.5 32.8048 220.119 32.7614 219.992 32.7614C219.696 32.7614 219.484 32.8915 219.399 33.0216C219.23 33.2818 219.23 33.6721 219.23 34.0624V36.4476H217.876V30.0293H219.188Z" fill="#818592"/>
<path d="M225.959 31.7139H227.313V36.4842H225.959V36.0506C225.832 36.224 225.748 36.3108 225.494 36.4409C225.198 36.571 224.901 36.6577 224.605 36.6577C224.309 36.6577 223.759 36.6143 223.42 36.1373C223.166 35.7904 223.124 35.5302 223.124 34.7496V31.7572H224.521V34.7062C224.521 34.923 224.521 35.1399 224.647 35.27C224.732 35.3133 224.944 35.4434 225.198 35.4434C225.282 35.4434 225.452 35.4434 225.663 35.3133C225.959 35.1399 225.959 34.8797 225.959 34.6195V31.7139" fill="#818592"/>
<path d="M228.794 34.8647C229.175 35.255 229.64 35.5152 230.148 35.5152C230.487 35.5152 230.994 35.3851 230.994 35.0381C230.994 34.8647 230.91 34.8213 230.825 34.7779C230.614 34.6478 230.275 34.6044 230.021 34.5611C229.81 34.5177 229.598 34.4743 229.386 34.431C229.132 34.3442 228.836 34.2141 228.625 34.0407C228.413 33.8238 228.286 33.5203 228.286 33.13C228.286 32.3494 228.963 31.5254 230.233 31.5254C231.333 31.5254 231.968 32.0024 232.306 32.2193L231.46 32.9999C231.037 32.6529 230.614 32.5228 230.275 32.5228C229.725 32.5228 229.598 32.7397 229.598 32.8698C229.598 33.13 229.894 33.2167 230.317 33.2601C231.248 33.4335 232.349 33.6937 232.349 34.8213C232.349 35.9488 231.248 36.4692 230.148 36.4692C228.879 36.4692 228.201 35.8187 227.905 35.5585L228.794 34.8647Z" fill="#818592"/>
<path d="M237.521 35.2559C237.394 35.4728 237.225 35.733 236.971 35.9498C236.59 36.3401 235.997 36.6003 235.236 36.6003C233.839 36.6003 232.908 35.6896 232.908 34.1284C232.908 33.0008 233.458 31.5264 235.278 31.5264C235.574 31.5264 236.336 31.5697 236.928 32.2202C237.521 32.8707 237.563 33.8248 237.606 34.3452H234.305C234.305 34.9524 234.643 35.5161 235.363 35.5161C236.124 35.5161 236.378 34.9957 236.548 34.6922L237.521 35.2559ZM236.167 33.4779C236.167 33.261 236.124 33.0008 235.913 32.784C235.744 32.6105 235.49 32.5238 235.236 32.5238C234.897 32.5238 234.686 32.6973 234.559 32.8274C234.389 33.0442 234.347 33.261 234.262 33.4345H236.167" fill="#818592"/>
<path d="M238.534 30.3379H239.888V31.8124H240.776V32.6797H239.888V34.8047C239.888 35.1083 239.888 35.3251 240.226 35.3251H240.734V36.4093C240.438 36.4526 240.269 36.496 240.015 36.496C239.549 36.496 239.041 36.4526 238.745 36.019C238.576 35.7588 238.534 35.4118 238.534 34.9348V32.6363H237.856V31.769H238.534V30.3379" fill="#818592"/>
<path d="M241.325 30.3379H242.679V31.8124H243.567V32.6797H242.679V34.8047C242.679 35.1083 242.679 35.3251 243.017 35.3251H243.525V36.4093C243.229 36.4526 243.06 36.496 242.806 36.496C242.34 36.496 241.832 36.4526 241.536 36.019C241.367 35.7588 241.325 35.4118 241.325 34.9348V32.6363H240.647V31.769H241.325V30.3379" fill="#818592"/>
<path d="M244.541 34.8647C244.922 35.255 245.387 35.5152 245.895 35.5152C246.234 35.5152 246.742 35.3851 246.742 35.0381C246.742 34.8647 246.657 34.8213 246.572 34.7779C246.361 34.6478 246.022 34.6044 245.768 34.5611C245.557 34.5177 245.345 34.4743 245.133 34.431C244.88 34.3442 244.583 34.2141 244.372 34.0407C244.16 33.8238 244.033 33.5203 244.033 33.13C244.033 32.3494 244.71 31.5254 245.98 31.5254C247.08 31.5254 247.715 32.0024 248.053 32.2193L247.207 32.9999C246.784 32.6529 246.361 32.5228 246.022 32.5228C245.472 32.5228 245.345 32.7397 245.345 32.8698C245.345 33.13 245.641 33.2167 246.065 33.2601C246.996 33.4335 248.096 33.6937 248.096 34.8213C248.096 35.9488 246.996 36.4692 245.895 36.4692C244.626 36.4692 243.949 35.8187 243.652 35.5585L244.541 34.8647Z" fill="#818592"/>
<path d="M187.35 47.3597H185.784V40.9414H187.35V47.3597Z" fill="#818592"/>
<path d="M189.958 43.0696C190.127 42.8962 190.212 42.8094 190.423 42.6793C190.635 42.5926 190.931 42.5059 191.27 42.5059C191.566 42.5059 191.862 42.5492 192.116 42.6793C192.581 42.9395 192.708 43.3732 192.708 44.1104V47.363H191.354V44.7176C191.354 44.2839 191.354 44.1538 191.312 44.0237C191.185 43.7201 190.973 43.6334 190.677 43.6334C189.958 43.6334 189.958 44.2405 189.958 44.8043V47.363H188.604V42.636H190V43.0696" fill="#818592"/>
<path d="M194.169 45.7924C194.55 46.1827 195.015 46.4429 195.523 46.4429C195.862 46.4429 196.369 46.3128 196.369 45.9659C196.369 45.7924 196.285 45.749 196.2 45.7057C195.989 45.5756 195.65 45.5756 195.396 45.4888C195.185 45.4455 194.973 45.4021 194.761 45.3587C194.507 45.272 194.211 45.1419 194 44.9684C193.788 44.7516 193.661 44.448 193.661 44.0577C193.661 43.2771 194.338 42.4531 195.608 42.4531C196.708 42.4531 197.343 42.9302 197.681 43.147L196.835 43.9276C196.412 43.5807 195.989 43.4506 195.65 43.4506C195.1 43.4506 194.973 43.6674 194.973 43.7975C194.973 44.0577 195.269 44.1444 195.692 44.1878C196.623 44.3613 197.724 44.6215 197.724 45.749C197.724 46.8766 196.623 47.397 195.523 47.397C194.254 47.397 193.576 46.7465 193.28 46.4863L194.169 45.7924Z" fill="#818592"/>
<path d="M198.728 41.2676H200.082V42.7421H200.971V43.6094H200.082V45.7344C200.082 46.0379 200.082 46.2548 200.421 46.2548H200.928V47.339C200.632 47.3823 200.463 47.4257 200.209 47.4257C199.744 47.4257 199.236 47.3823 198.939 46.9487C198.77 46.6451 198.728 46.3415 198.728 45.8645V43.566H198.051V42.6987H198.728V41.2676" fill="#818592"/>
<path d="M201.738 40.9414H203.093V42.0256H201.738V40.9414ZM201.738 42.6327H203.093V47.4031H201.738V42.6327Z" fill="#818592"/>
<path d="M204.469 41.2676H205.823V42.7421H206.712V43.6094H205.823V45.7344C205.823 46.0379 205.823 46.2548 206.162 46.2548H206.67V47.339C206.373 47.3823 206.204 47.4257 205.95 47.4257C205.485 47.4257 204.977 47.3823 204.681 46.9487C204.511 46.6451 204.469 46.3415 204.469 45.8645V43.566H203.792V42.6987H204.469V41.2676" fill="#818592"/>
<path d="M210.218 42.6416H211.572V47.412H210.218V46.9349C210.091 47.1084 210.007 47.1951 209.753 47.3252C209.456 47.4553 209.16 47.5421 208.864 47.5421C208.568 47.5421 208.018 47.4987 207.679 47.0217C207.425 46.6747 207.383 46.4145 207.383 45.6339V42.6416H208.779V45.5906C208.779 45.8074 208.779 46.0242 208.906 46.1543C208.991 46.2411 209.202 46.3712 209.456 46.3712C209.541 46.3712 209.71 46.3712 209.922 46.2411C210.218 46.0676 210.218 45.8074 210.218 45.5472V42.6416" fill="#818592"/>
<path d="M212.983 41.2676H214.337V42.7421H215.226V43.6094H214.337V45.7344C214.337 46.0379 214.337 46.2548 214.676 46.2548H215.183V47.339C214.887 47.3823 214.718 47.4257 214.464 47.4257C213.998 47.4257 213.491 47.3823 213.194 46.9487C213.025 46.6451 212.983 46.3415 212.983 45.8645V43.566H212.306V42.6987H212.983V41.2676" fill="#818592"/>
<path d="M220.296 46.1846C220.169 46.4015 220 46.6617 219.746 46.8785C219.365 47.2688 218.773 47.529 218.011 47.529C216.615 47.529 215.684 46.6183 215.684 45.0571C215.684 43.9296 216.234 42.4551 218.053 42.4551C218.35 42.4551 219.111 42.4984 219.704 43.149C220.296 43.7995 220.339 44.7535 220.381 45.2739H217.08C217.08 45.8811 217.419 46.4448 218.138 46.4448C218.9 46.4448 219.154 45.9244 219.323 45.6209L220.296 46.1846ZM218.942 44.4066C218.942 44.1898 218.9 43.9296 218.688 43.7127C218.519 43.5393 218.265 43.4525 218.011 43.4525C217.673 43.4525 217.461 43.626 217.334 43.7561C217.165 43.9729 217.122 44.1898 217.038 44.3632H218.942" fill="#818592"/>
<path d="M228.214 45.0102C228.214 46.2245 227.537 47.5255 225.717 47.5255C224.406 47.5255 223.221 46.7449 223.221 45.0102C223.221 43.5357 224.109 42.4082 225.887 42.4949C227.833 42.5817 228.214 44.1429 228.214 45.0102ZM224.871 44.0561C224.702 44.3163 224.66 44.6633 224.66 44.9668C224.66 45.7041 224.998 46.398 225.76 46.398C226.479 46.398 226.86 45.7908 226.86 45.0536C226.86 44.5332 226.733 44.0995 226.479 43.8393C226.183 43.5791 225.844 43.5791 225.675 43.5791C225.294 43.6225 225.04 43.7526 224.871 44.0561Z" fill="#818592"/>
<path d="M229.325 42.1692C229.325 41.9523 229.325 41.6054 229.536 41.3452C229.706 41.1284 230.087 40.8682 230.721 40.8682C231.018 40.8682 231.272 40.9115 231.525 40.9549V41.9957H231.229C230.721 41.9957 230.679 42.0824 230.679 42.7329H231.61V43.6003H230.679V47.3732H229.325V43.6003H228.605V42.7329H229.325V42.1692" fill="#818592"/>
<path d="M184.172 51.8857H188.996V53.1434H187.388V58.3041H185.822V53.1434H184.172V51.8857V51.8857Z" fill="#818592"/>
<path d="M193.319 57.1133C193.192 57.3302 193.023 57.5904 192.769 57.8072C192.388 58.1975 191.795 58.4577 191.034 58.4577C189.637 58.4577 188.706 57.547 188.706 55.9858C188.706 54.8583 189.256 53.3838 191.076 53.3838C191.372 53.3838 192.134 53.4272 192.726 54.0777C193.319 54.7282 193.361 55.6822 193.403 56.2026H190.103C190.103 56.8098 190.441 57.3735 191.161 57.3735C191.922 57.3735 192.176 56.8531 192.345 56.5496L193.319 57.1133ZM191.965 55.3353C191.965 55.1185 191.922 54.8583 191.711 54.6414C191.541 54.468 191.287 54.3812 191.034 54.3812C190.695 54.3812 190.483 54.5547 190.356 54.6848C190.187 54.9016 190.145 55.1185 190.06 55.2919H191.965" fill="#818592"/>
<path d="M198.215 57.2042C198.046 57.4644 197.877 57.7679 197.496 58.0715C197.157 58.3317 196.692 58.5052 196.142 58.5052C195.253 58.5052 193.856 57.9414 193.856 56.0333C193.856 54.6455 194.618 53.4746 196.184 53.4746C196.692 53.4746 197.58 53.6047 198.173 54.6022L197.157 55.2093C197.073 54.9925 196.988 54.819 196.776 54.6455C196.649 54.5588 196.48 54.472 196.269 54.472C195.549 54.472 195.295 55.3394 195.295 55.9032C195.295 56.5537 195.591 57.3343 196.311 57.3343C196.396 57.3343 196.734 57.3343 196.988 56.9873C197.115 56.8572 197.157 56.7271 197.2 56.597L198.215 57.2042Z" fill="#818592"/>
<path d="M199.798 51.8857V54.0541C200.01 53.8373 200.433 53.4036 201.152 53.4036C201.491 53.4036 201.872 53.4903 202.126 53.7505C202.549 54.0975 202.591 54.5311 202.591 55.1816V58.3041H201.279V55.8321C201.279 55.4418 201.279 55.2684 201.237 55.0949C201.11 54.6612 200.729 54.6179 200.602 54.6179C200.306 54.6179 200.094 54.748 200.01 54.8781C199.841 55.1383 199.841 55.5286 199.841 55.9189V58.3041H198.486V51.8857H199.798Z" fill="#818592"/>
<path d="M205.193 53.9983C205.362 53.8249 205.447 53.7381 205.659 53.608C205.87 53.5213 206.166 53.4346 206.505 53.4346C206.801 53.4346 207.097 53.4779 207.351 53.608C207.817 53.8682 207.944 54.3019 207.944 55.0391V58.2917H206.59V55.6463C206.59 55.2126 206.59 55.0825 206.547 54.9524C206.42 54.6488 206.209 54.5621 205.912 54.5621C205.193 54.5621 205.193 55.1693 205.193 55.733V58.2917H203.839V53.5647H205.235L205.193 53.9983Z" fill="#818592"/>
<path d="M213.831 55.9379C213.831 57.1522 213.154 58.4532 211.335 58.4532C210.023 58.4532 208.838 57.6726 208.838 55.9379C208.838 54.4635 209.727 53.3359 211.504 53.4227C213.451 53.5094 213.831 55.0706 213.831 55.9379ZM210.488 54.9839C210.319 55.2441 210.277 55.591 210.277 55.8946C210.277 56.6318 210.615 57.3257 211.377 57.3257C212.096 57.3257 212.477 56.7185 212.477 55.9813C212.477 55.4609 212.35 55.0272 212.096 54.767C211.8 54.5068 211.462 54.5068 211.292 54.5068C210.911 54.5502 210.658 54.6803 210.488 54.9839Z" fill="#818592"/>
<path d="M216.127 58.2875H214.772V51.8691H216.127V58.2875Z" fill="#818592"/>
<path d="M221.981 55.9379C221.981 57.1522 221.304 58.4532 219.484 58.4532C218.172 58.4532 216.987 57.6726 216.987 55.9379C216.987 54.4635 217.876 53.3359 219.653 53.4227C221.6 53.5094 221.981 55.0706 221.981 55.9379ZM218.638 54.9839C218.468 55.2441 218.426 55.591 218.426 55.8946C218.426 56.6318 218.765 57.3257 219.526 57.3257C220.246 57.3257 220.627 56.7185 220.627 55.9813C220.627 55.4609 220.5 55.0272 220.246 54.767C219.95 54.5068 219.611 54.5068 219.442 54.5068C219.061 54.5502 218.807 54.6803 218.638 54.9839Z" fill="#818592"/>
<path d="M225.686 57.6959C225.432 57.8693 225.093 58.0862 224.501 58.0862C224.12 58.0862 223.739 57.9994 223.443 57.7826C222.808 57.3923 222.597 56.6551 222.597 55.8311C222.597 54.877 223.02 53.4893 224.586 53.4893C225.305 53.4893 225.644 53.7928 225.813 54.0097V53.576H227.082V58.1295C227.04 58.6499 227.04 59.2571 226.363 59.6474C225.855 59.9509 225.178 59.9943 224.755 59.9943C223.824 59.9943 223.231 59.6474 222.978 59.3872C222.597 58.9969 222.639 58.5198 222.639 58.2596H224.036C224.078 58.5198 224.078 58.8234 224.459 58.9969C224.543 59.0402 224.67 59.0836 224.882 59.0836C225.728 59.0836 225.728 58.5632 225.728 58.1729V57.6959H225.686ZM223.993 55.7877C223.993 56.178 224.036 57.002 224.882 57.002C225.559 57.002 225.728 56.4382 225.728 55.7877C225.728 55.5709 225.728 55.0938 225.559 54.877C225.432 54.7035 225.178 54.4867 224.797 54.5301C224.12 54.5301 223.993 55.1372 223.993 55.7877Z" fill="#818592"/>
<path d="M232.076 53.5707L230.468 58.688C230.341 58.9916 230.256 59.2952 230.045 59.5554C229.706 59.9023 229.41 59.9457 229.071 59.9457H228.098V58.8181H228.563C228.775 58.8181 229.114 58.8181 229.114 58.4712C229.114 58.3411 229.071 58.2543 229.071 58.1242L227.675 53.5273H229.114L229.875 56.9533L230.637 53.5273H232.076" fill="#818592"/>
<path d="M159.029 38.9695H164.864V58.3087H159.029V38.9695ZM140.01 30H145.845V58.2709H140.01V30ZM120.99 30H126.825V58.2709H120.99V30ZM130.518 30H136.353V49.3392H130.518V30ZM158.992 30H174.355V35.639H158.992V30ZM149.464 30H155.336V35.639H149.464V30Z" fill="#818592"/>
<path d="M149.539 38.9326H155.374V58.2719H149.539V38.9326Z" fill="#818592"/>
<rect x="0.5" y="0.5" width="369" height="144" stroke="#DEDEE0"/>
</svg>
