<svg width="70" height="70" viewBox="0 0 70 70" fill="none" xmlns="http://www.w3.org/2000/svg">
<circle cx="35" cy="35" r="35" fill="#00DCE6" fill-opacity="0.1"/>
<path d="M43.9375 56.3125C43.5938 55.6938 43.4562 54.6625 42.5625 54.25L39.125 52.875C39.125 52.875 37.75 53.5625 35.6875 53.5625C33.625 53.5625 32.25 52.875 32.25 52.875L28.8125 54.25C27.9188 54.6625 27.7812 55.6938 27.4375 56.3125" stroke="#00DCE6" stroke-miterlimit="10"/>
<path d="M37.7494 50.8125C39.6744 49.5062 39.4681 48.75 39.7431 46.825C39.8806 45.7938 39.8806 44.7625 39.3994 43.8C38.9869 42.975 38.1619 42.3562 37.2681 42.0812C36.7869 41.9437 36.2369 41.875 35.6869 41.875C35.1369 41.875 34.5869 41.9438 34.1056 42.15C33.2119 42.425 32.3869 43.0438 31.9744 43.8688C31.4931 44.7625 31.5619 45.8625 31.6306 46.8937C31.8369 48.75 31.6994 49.575 33.6244 50.8812" stroke="#00DCE6" stroke-miterlimit="10"/>
<path d="M56.3125 56.3125C55.9688 55.6938 55.8312 54.6625 54.9375 54.25L51.5 52.875C51.5 52.875 50.125 53.5625 48.0625 53.5625C46 53.5625 44.625 52.875 44.625 52.875" stroke="#00DCE6" stroke-miterlimit="10"/>
<path d="M50.1244 50.8125C52.0494 49.5062 51.8431 48.75 52.1181 46.825C52.2556 45.7938 52.2556 44.7625 51.7744 43.8C51.3619 42.975 50.5369 42.3562 49.6431 42.0812C49.1619 41.9437 48.6119 41.875 48.0619 41.875C47.5119 41.875 46.9619 41.9438 46.4806 42.15C45.5869 42.425 44.7619 43.0438 44.3494 43.8688C43.8681 44.7625 43.9369 45.8625 44.0056 46.8937C44.2119 48.75 44.0744 49.575 45.9994 50.8812" stroke="#00DCE6" stroke-miterlimit="10"/>
<path d="M27 15H53V39H30.1707" stroke="#00DCE6" stroke-miterlimit="10"/>
<path d="M19.5625 28.0625C18.875 28.75 19.15 30.7437 19.5625 31.5C19.5625 31.5 18.875 33.7687 18.875 34.9375V39.0625L20.9375 41.125L23 39.0625V34.9375C23 33.7687 22.3125 31.5 22.3125 31.5C22.725 30.7437 23 28.75 22.3125 28.0625" stroke="#00DCE6" stroke-miterlimit="10"/>
<path d="M22.6555 26.625C24.3055 25.525 24.0992 24.8375 24.3055 23.2563C24.443 22.4313 24.443 21.4688 24.0305 20.7125C23.6867 20.025 22.9992 19.475 22.243 19.2687C21.8305 19.1312 21.418 19.0625 20.9367 19.0625C20.4555 19.0625 20.043 19.1312 19.6305 19.2687C18.8742 19.5437 18.1867 20.025 17.7742 20.7125C17.3617 21.5375 17.4305 22.4313 17.4992 23.2563C17.7055 24.8375 17.568 25.525 19.1492 26.625" stroke="#00DCE6" stroke-miterlimit="10"/>
<path d="M14.75 45.2504C13.65 45.2504 12.6875 44.3567 12.6875 43.1879V31.5004C12.6875 29.4379 13.1688 29.1629 14.0625 28.7504L17.5 27.3754C17.5 27.3754 18.875 28.0629 20.9375 28.0629C23 28.0629 24.375 27.3754 24.375 27.3754L37.575 25.5192C38.2625 25.4504 38.95 25.8629 39.0875 26.5504L39.1562 26.8254C39.3625 27.5817 38.8812 28.2692 38.1937 28.4754L27.125 31.5004L26.4375 39.7504V53" stroke="#00DCE6" stroke-miterlimit="10"/>
<path d="M15.4375 43.875V52.8125" stroke="#00DCE6" stroke-miterlimit="10"/>
<path d="M41.5625 26L49.125 23.9375" stroke="#00DCE6" stroke-miterlimit="10"/>
<path d="M21 45L21 53" stroke="#00DCE6" stroke-miterlimit="10"/>
</svg>
