<svg width="60" height="60" viewBox="0 0 60 60" fill="none" xmlns="http://www.w3.org/2000/svg">
<rect width="60" height="60" fill="black" fill-opacity="0"/>
<circle opacity="0.1" cx="30" cy="30" r="30" fill="#00DCE6"/>
<path d="M3.69788 26.4502C3.60245 26.4502 3.5786 26.4033 3.62631 26.3329L4.12732 25.6996C4.17503 25.6292 4.29432 25.5823 4.38975 25.5823H12.9068C13.0022 25.5823 13.0261 25.6526 12.9784 25.723L12.5728 26.3329C12.5251 26.4033 12.4058 26.4737 12.3342 26.4737L3.69788 26.4502ZM0.0954293 28.6083C0 28.6083 -0.0238573 28.5614 0.0238573 28.491L0.524861 27.8577C0.572576 27.7873 0.691862 27.7404 0.787291 27.7404H11.6662C11.7617 27.7404 11.8094 27.8107 11.7855 27.8811L11.5947 28.4441C11.5708 28.5379 11.4754 28.5848 11.3799 28.5848L0.0954293 28.6083ZM5.8689 30.7664C5.77347 30.7664 5.74961 30.696 5.79733 30.6257L6.13133 30.0392C6.17904 29.9688 6.27447 29.8985 6.3699 29.8985H11.1414C11.2368 29.8985 11.2845 29.9688 11.2845 30.0627L11.2368 30.6257C11.2368 30.7195 11.1414 30.7899 11.0698 30.7899L5.8689 30.7664ZM30.6328 26.028C29.1298 26.4033 28.1039 26.6848 26.6248 27.0601C26.2669 27.1539 26.243 27.1774 25.9329 26.8255C25.575 26.4267 25.3126 26.1687 24.8116 25.9341C23.3086 25.207 21.8533 25.4181 20.4934 26.286C18.8711 27.3181 18.0361 28.8429 18.06 30.7429C18.0838 32.6195 19.396 34.1677 21.2807 34.4258C22.903 34.6369 24.2629 34.0739 25.3365 32.8776C25.5512 32.6195 25.742 32.3381 25.9806 32.0096H21.3762C20.8752 32.0096 20.7559 31.7047 20.9229 31.3059C21.233 30.5787 21.8056 29.3589 22.1396 28.749C22.2112 28.6083 22.3782 28.3737 22.736 28.3737H31.4201C31.3724 29.0071 31.3724 29.6404 31.2769 30.2738C31.0145 31.9627 30.3704 33.5109 29.3206 34.8715C27.6029 37.0999 25.3603 38.4839 22.5213 38.8593C20.1833 39.1642 18.0123 38.7185 16.1037 37.3111C14.3382 35.9974 13.3362 34.2616 13.0738 32.1035C12.7637 29.5466 13.5271 27.2478 15.1017 25.2304C16.7955 23.0489 19.0381 21.6649 21.7817 21.1723C24.0243 20.7735 26.1715 21.0315 28.1039 22.3217C29.3684 23.1427 30.2749 24.2687 30.8714 25.6292C31.0145 25.8403 30.9191 25.9576 30.6328 26.028Z" fill="#00DCE6"/>
<path d="M38.5296 39C36.3585 38.9531 34.3784 38.3432 32.7084 36.9357C31.3008 35.7394 30.4181 34.2147 30.1318 32.4084C29.7024 29.7577 30.4419 27.412 32.0642 25.3242C33.8058 23.0723 35.9053 21.8994 38.7443 21.4068C41.1777 20.9846 43.468 21.2192 45.5436 22.6032C47.4283 23.8699 48.5973 25.5823 48.9075 27.8342C49.3131 31.001 48.3826 33.5813 46.1639 35.7863C44.5893 37.358 42.6569 38.3432 40.4381 38.7889C39.794 38.9062 39.1498 38.9296 38.5296 39ZM44.2076 29.5231C44.1837 29.2182 44.1837 28.9836 44.136 28.749C43.7066 26.4268 41.5356 25.1131 39.2691 25.6292C37.0504 26.1218 35.619 27.5058 35.0941 29.7108C34.6647 31.5405 35.5713 33.3936 37.289 34.1443C38.6011 34.7073 39.9133 34.6369 41.1777 34.0035C43.0625 33.0418 44.0883 31.5405 44.2076 29.5231Z" fill="#00DCE6"/>
</svg>
