<svg width="230" height="50" viewBox="0 0 230 50" fill="none" xmlns="http://www.w3.org/2000/svg">
<g clip-path="url(#clip0)">
<path d="M73.2912 44.4123C71.7328 45.6928 70.2321 46.3331 67.981 46.3331C65.095 46.3331 62.4976 45.6928 60.5352 43.2481L63.1325 41.0944C64.1138 42.4332 65.4413 43.4809 67.8078 43.4809C70.2321 43.4809 72.1945 41.6183 72.1945 39.8721C72.1945 38.1259 70.8093 37.0199 68.5005 36.3797C64.5755 35.3319 61.2278 33.6439 61.2855 29.3366C61.2855 27.3575 61.9781 25.786 63.3634 24.6218C64.7487 23.3995 66.5957 22.8174 68.7313 22.8174C71.6173 22.8174 73.4066 23.3995 75.3114 25.3785L72.7717 27.5904C71.3287 25.9606 70.6361 25.7277 68.5005 25.7277C66.2494 25.7277 64.6333 27.0665 64.6333 29.162C64.6333 34.6917 75.4846 31.3156 75.4846 39.6393C75.4268 41.2691 74.8496 43.1317 73.2912 44.4123Z" fill="#00DCE6"/>
<path d="M86.0472 23.5156L88.76 23.5738L98.1683 45.7508H94.6474L92.3964 40.2793H81.8914L79.7558 45.7508H76.2349L86.0472 23.5156ZM87.1439 27.4155L83.0458 37.4272H91.2997L87.1439 27.4155Z" fill="#00DCE6"/>
<path d="M105.557 45.7504H102.151L95.9175 23.5152H99.0343L103.883 41.3849L109.135 23.5152H112.541L117.793 41.3849L122.699 23.457H125.816L119.467 45.6922H116.062L110.925 27.5315L105.557 45.7504Z" fill="#00DCE6"/>
<path d="M127.144 26.2516V23.3994H144.459V26.2516H137.36V45.6928H134.185V26.2516H127.144Z" fill="#00DCE6"/>
<path d="M144.229 34.6912C144.229 31.257 145.326 28.4631 147.404 26.3094C149.539 24.1557 152.31 23.0498 155.715 23.0498C159.121 23.0498 161.891 24.1557 164.027 26.3094C166.162 28.4631 167.259 31.257 167.259 34.6912C167.259 38.1255 166.162 40.9194 164.027 43.0731C161.891 45.2268 159.121 46.3327 155.715 46.3327C152.31 46.3327 149.539 45.2268 147.404 43.0731C145.268 40.9194 144.229 38.1255 144.229 34.6912ZM161.66 41.094C163.219 39.406 163.969 37.2524 163.969 34.633C163.969 32.0137 163.219 29.9183 161.66 28.2302C160.16 26.5422 158.139 25.7273 155.715 25.7273C153.291 25.7273 151.329 26.6004 149.77 28.2302C148.269 29.9183 147.461 32.0137 147.461 34.633C147.461 37.2524 148.212 39.406 149.77 41.094C151.329 42.7821 153.291 43.597 155.715 43.597C158.139 43.597 160.16 42.7821 161.66 41.094Z" fill="#00DCE6"/>
<path d="M169.798 34.6912C169.798 31.257 170.895 28.4631 172.973 26.3094C175.109 24.1557 177.879 23.0498 181.285 23.0498C184.69 23.0498 187.461 24.1557 189.596 26.3094C191.732 28.4631 192.829 31.257 192.829 34.6912C192.829 38.1255 191.732 40.9194 189.596 43.0731C187.461 45.2268 184.69 46.3327 181.285 46.3327C177.879 46.3327 175.109 45.2268 172.973 43.0731C170.837 40.9194 169.798 38.1255 169.798 34.6912ZM187.23 41.094C188.788 39.406 189.538 37.2524 189.538 34.633C189.538 32.0137 188.788 29.9183 187.23 28.2302C185.729 26.5422 183.709 25.7273 181.285 25.7273C178.86 25.7273 176.898 26.6004 175.339 28.2302C173.839 29.9183 173.031 32.0137 173.031 34.633C173.031 37.2524 173.781 39.406 175.339 41.094C176.898 42.7821 178.86 43.597 181.285 43.597C183.709 43.597 185.729 42.7821 187.23 41.094Z" fill="#00DCE6"/>
<path d="M226.883 45.7504V35.5059H215.455V45.7504H212.28V23.457H215.455V32.712H226.883V23.457H230V45.7504H226.883Z" fill="#00DCE6"/>
<path d="M192.598 26.3092V23.457H209.914V26.3092H202.815V45.7504H199.64V26.3092H192.598Z" fill="#00DCE6"/>
<path d="M67.9228 15.9492V11.2344H63.363V15.9492H61.0542V5.06445H63.363V9.02254H67.9228V5.06445H70.2893V15.9492H67.9228Z" fill="#00DCE6"/>
<path d="M75.5999 15.9492V11.118L71.5596 5.06445H74.561L76.7543 8.96434L79.2363 5.06445H81.9491L78.0242 11.118V15.9492H75.5999V15.9492Z" fill="#00DCE6"/>
<path d="M83.2188 15.9492V5.06445H87.9518C88.933 5.06445 89.7988 5.4137 90.4337 6.05398C91.0686 6.69426 91.4149 7.50916 91.4149 8.55689C91.4149 9.54641 91.0686 10.0121 90.4337 10.6523C89.7988 11.2926 88.933 11.6419 86.9705 11.6419H85.5853V15.891H83.2188V15.9492ZM85.643 7.15991V9.72103H87.6632C88.3558 9.72103 88.8753 9.19717 88.8753 8.44047C88.8753 7.68378 88.3558 7.15991 87.6632 7.15991H85.643V7.15991Z" fill="#00DCE6"/>
<path d="M92.9736 15.9492V5.06445H100.246V7.21812H95.3401V9.31358H100.015V11.5255H95.3401V13.6791H100.535V16.0074H92.9736V15.9492Z" fill="#00DCE6"/>
<path d="M108.558 15.9492L106.307 11.409H104.979V15.9492H102.67V5.06445H107.692C108.616 5.06445 109.366 5.35549 109.943 5.93756C110.52 6.51963 110.809 7.27633 110.809 8.20764C110.809 9.08075 110.52 9.83745 110.001 10.4195C109.481 11.0016 109.135 11.2344 108.5 11.409L111.271 15.9492H108.558ZM105.037 7.0435V9.60462H107.057C107.75 9.60462 108.269 9.08075 108.269 8.32406C108.269 7.56736 107.75 7.0435 107.057 7.0435H105.037V7.0435Z" fill="#00DCE6"/>
<path d="M112.944 15.9492V5.06445H115.311V13.6209H119.813V15.9492H112.944Z" fill="#00DCE6"/>
<path d="M121.43 15.9492V5.06445H128.76V7.21812H123.738V9.31358H128.472V11.4672H123.738V13.6209H129.049V15.891H121.43V15.9492Z" fill="#00DCE6"/>
<path d="M130.78 15.9492V5.06445H134.416C136.84 5.06445 138.168 5.58832 139.149 6.57784C140.13 7.56736 140.65 8.90613 140.65 10.4777C140.65 12.0493 140.13 13.3881 139.149 14.3776C138.168 15.3671 136.494 15.891 134.185 15.891H130.78V15.9492ZM133.089 7.27633V13.6791H134.762C135.628 13.6791 136.898 13.3881 137.418 12.806C137.995 12.2239 138.226 11.4672 138.226 10.4777C138.226 9.54641 137.937 8.78972 137.418 8.14944C136.84 7.56736 135.628 7.27633 134.762 7.27633H133.089Z" fill="#00DCE6"/>
<path d="M147.923 11.4089V9.31342H152.194V14.8431C151.386 15.5416 148.962 15.949 147.23 15.949C145.614 15.949 144.402 15.3088 143.363 14.3192C142.324 13.2715 141.862 11.9327 141.862 10.3029C141.862 8.67314 142.439 7.10154 143.478 6.05381C144.517 5.00608 146.018 4.59863 147.634 4.59863C149.25 4.59863 150.809 4.88967 151.906 5.87919L150.289 7.74182C149.539 6.92692 148.962 6.7523 147.634 6.7523C146.711 6.7523 145.903 7.15975 145.499 7.5672C144.691 8.26569 144.402 9.08059 144.402 10.3611C144.402 11.5835 144.691 12.2238 145.21 12.7476C145.73 13.2715 146.307 13.7372 147.461 13.7372C148.442 13.7372 149.193 13.679 149.885 13.2133V11.4089H147.923V11.4089Z" fill="#00DCE6"/>
<path d="M154.272 15.9492V5.06445H161.602V7.21812H156.581V9.31358H161.314V11.4672H156.581V13.6209H161.891V15.891H154.272V15.9492Z" fill="#00DCE6"/>
<path d="M169.798 15.9492L167.547 11.409H166.219V15.9492H163.911V5.06445H168.932C169.856 5.06445 170.606 5.35549 171.183 5.93756C171.761 6.51963 172.049 7.27633 172.049 8.20764C172.049 9.08075 171.761 9.83745 171.241 10.4195C170.722 11.0016 170.375 11.2344 169.74 11.409L172.511 15.9492H169.798ZM166.277 7.0435V9.60462H168.297C168.99 9.60462 169.509 9.08075 169.509 8.32406C169.509 7.56736 168.99 7.0435 168.297 7.0435H166.277V7.0435Z" fill="#00DCE6"/>
<path d="M34.5614 34.5747V19.8482L13.9555 34.4583L13.7824 19.79L0.506836 29.3942C2.52702 41.0939 12.6857 50.0578 24.9223 50.0578C38.6018 50.0578 49.684 38.882 49.684 25.0869C49.684 24.6794 49.684 24.3302 49.684 23.9227L34.5614 34.5747Z" fill="#00DCE6"/>
<path d="M17.1876 12.9802L17.3607 27.7648L38.0821 13.0966V27.8231L49.1643 19.9069C46.7977 8.55646 36.8122 0 24.8643 0C11.1847 0 0.102539 11.1758 0.102539 24.9709C0.102539 25.0873 0.102539 25.1455 0.102539 25.2619L17.1876 12.9802Z" fill="#00DCE6"/>
</g>
<defs>
<clipPath id="clip0">
<rect width="230" height="50" fill="white"/>
</clipPath>
</defs>
</svg>
