<svg width="60" height="60" viewBox="0 0 60 60" fill="none" xmlns="http://www.w3.org/2000/svg">
<circle opacity="0.1" cx="30" cy="30" r="30" fill="#00DCE6"/>
<mask id="path-2-outside-1" maskUnits="userSpaceOnUse" x="11" y="12" width="38" height="35" fill="black">
<rect fill="white" x="11" y="12" width="38" height="35"/>
<path fill-rule="evenodd" clip-rule="evenodd" d="M21.5942 44.293L12.0498 30.7828C12.0166 30.7523 12 30.7091 12 30.6659L12.0005 30.6295L12 30.5832L18.8828 15.6339C18.605 15.4442 18.418 15.1253 18.418 14.7733C18.418 14.2104 18.8965 13.7319 19.4595 13.7319C19.9321 13.7319 20.3455 14.0693 20.4658 14.5108L36.854 13C36.9102 13 36.9666 13.0281 36.9946 13.0844L46.51 26.5534C46.6467 26.4858 46.7993 26.4476 46.9585 26.4476C47.5215 26.4476 48 26.9261 48 27.489C48 28.052 47.5215 28.5305 46.9585 28.5305C46.8535 28.5305 46.7515 28.5138 46.6548 28.4831L39.7812 43.4119C39.7532 43.4682 39.6968 43.4963 39.6406 43.4963L23.4272 44.991C23.4099 45.5403 22.9387 46.0011 22.3862 46.0011C21.8232 46.0011 21.3447 45.5226 21.3447 44.9597C21.3447 44.7092 21.4395 44.4753 21.5942 44.293ZM23.3828 44.6641C23.3584 44.5855 23.325 44.5104 23.2834 44.4403L30.4741 40.2854L38.8186 43.2248L23.3828 44.6641ZM39.4717 43.1007L30.8584 40.0633L35.7427 37.241C35.9326 37.5166 36.2502 37.7019 36.6006 37.7019C37.1636 37.7019 37.6421 37.2234 37.6421 36.6605C37.6421 36.4233 37.5571 36.2012 37.4167 36.0235L39.6777 34.0241L39.4717 43.1007ZM37.3062 35.9033L39.6829 33.7937L39.8289 27.3669L35.5676 31.0127L36.4497 35.6306C36.499 35.623 36.5496 35.619 36.6006 35.619C36.8694 35.619 37.1187 35.7281 37.3062 35.9033ZM34.3789 24.7897L39.7788 26.7235L38.8096 22.4869L34.0066 19.5035C33.863 19.6713 33.6626 19.791 33.4333 19.8404L34.3789 24.7897ZM40.1226 26.8162L39.1858 22.7207L46.052 26.9857C46.0066 27.0655 45.9712 27.1514 45.9482 27.2415L40.1226 26.8162ZM45.9209 27.5782C45.9377 27.7649 46.0068 27.9395 46.1128 28.087L40.0002 33.5122L40.1421 27.1562L45.9209 27.5782ZM39.6687 27.0385L34.4514 25.1704L35.4905 30.6091L39.6687 27.0385ZM35.3967 30.6893L34.345 25.1323L28.4236 23.0121L24.1841 26.6803L25.3696 32.7238L30.8027 34.615L35.3967 30.6893ZM33.3462 19.8556L34.2729 24.7518L28.7136 22.761L32.4424 19.5348C32.634 19.737 32.9031 19.8656 33.1948 19.8656C33.2461 19.8656 33.2969 19.8622 33.3462 19.8556ZM32.3826 19.466L28.614 22.7253L23.3015 20.8229L29.0291 17.6801L32.1772 18.6075C32.1616 18.6777 32.1533 18.7502 32.1533 18.8241C32.1533 19.0634 32.24 19.2875 32.3826 19.466ZM22.9536 20.6393L20.1174 15.5911C20.2605 15.4773 20.3706 15.3256 20.4355 15.1487L28.5696 17.5448L22.9536 20.6393ZM22.6743 20.8316L19.5432 23.6902V15.8117C19.6409 15.8045 19.7341 15.7849 19.8215 15.7542L22.6743 20.8316ZM23.887 26.8136L22.7805 21.1709L19.5432 24.1376V29.6583C19.8042 29.6804 20.042 29.8045 20.2153 29.9892L23.887 26.8136ZM28.3237 22.9764L24.1633 26.5746L23.0898 21.1024L28.3237 22.9764ZM20.2771 30.0609L23.9077 26.9194L25.0225 32.6029L20.4551 31.0131C20.4849 30.9138 20.501 30.8075 20.501 30.6962C20.501 30.4599 20.4167 30.2384 20.2771 30.0609ZM20.429 31.0895L25.0393 32.6883L26.1465 38.3346L20.4299 35.122L19.7683 31.6942C20.0747 31.6046 20.3152 31.383 20.429 31.0895ZM30.6553 39.9917L26.7021 38.5977L31.1372 34.8031L35.6077 36.3534C35.5762 36.451 35.5591 36.5543 35.5591 36.6605C35.5591 36.8159 35.5955 36.9649 35.6602 37.0992L30.6553 39.9917ZM23.072 44.1844L26.4451 38.8661L30.271 40.2138L23.1895 44.3064C23.1536 44.2628 23.1143 44.2219 23.072 44.1844ZM26.1467 38.7231L22.7844 44.0009C22.6609 43.9478 22.5261 43.9182 22.3862 43.9182C22.2996 43.9182 22.2151 43.9296 22.134 43.9507L20.5127 35.5514L26.1467 38.7231ZM25.3865 32.8087L30.7429 34.6663L26.4675 38.3199L25.3865 32.8087ZM35.6284 36.2947L31.1968 34.7521L35.4731 31.0935L36.3364 35.6547C36.0149 35.7429 35.749 35.9862 35.6284 36.2947ZM39.7981 42.5723L39.9951 33.7435L46.2332 28.2273C46.2725 28.2659 46.3147 28.3015 46.3594 28.3337L39.7981 42.5723ZM46.1353 26.8611L39.1365 22.5049L37.1692 13.9026L46.2488 26.7356C46.2078 26.7744 46.1699 26.8164 46.1353 26.8611ZM20.498 14.8548L36.0898 13.401L28.7617 17.439L20.4771 15.0046C20.4873 14.956 20.4944 14.906 20.498 14.8548ZM32.2236 18.4563L29.2219 17.5743L36.7415 13.4484L38.76 22.2704L34.1018 19.371C34.1958 19.2137 34.2461 19.0272 34.2363 18.8241C34.2363 18.2612 33.7578 17.7827 33.1948 17.7827C32.7605 17.7827 32.3765 18.0676 32.2236 18.4563ZM19.4026 15.8131V23.8185L12.6794 29.9563L19.188 15.777C19.2573 15.7966 19.3291 15.8089 19.4026 15.8131ZM20.343 35.4558L12.7471 31.1795L21.8455 44.0756C21.8896 44.048 21.936 44.0236 21.9839 44.0027L20.343 35.4558ZM19.627 31.7253L20.2607 35.027L12.4504 30.6378L19.4026 24.2665V29.6564C18.8647 29.6873 18.418 30.1524 18.418 30.6962C18.418 31.2592 18.8965 31.7377 19.4595 31.7377C19.5168 31.7377 19.5725 31.7335 19.627 31.7253Z"/>
</mask>
<path fill-rule="evenodd" clip-rule="evenodd" d="M21.5942 44.293L12.0498 30.7828C12.0166 30.7523 12 30.7091 12 30.6659L12.0005 30.6295L12 30.5832L18.8828 15.6339C18.605 15.4442 18.418 15.1253 18.418 14.7733C18.418 14.2104 18.8965 13.7319 19.4595 13.7319C19.9321 13.7319 20.3455 14.0693 20.4658 14.5108L36.854 13C36.9102 13 36.9666 13.0281 36.9946 13.0844L46.51 26.5534C46.6467 26.4858 46.7993 26.4476 46.9585 26.4476C47.5215 26.4476 48 26.9261 48 27.489C48 28.052 47.5215 28.5305 46.9585 28.5305C46.8535 28.5305 46.7515 28.5138 46.6548 28.4831L39.7812 43.4119C39.7532 43.4682 39.6968 43.4963 39.6406 43.4963L23.4272 44.991C23.4099 45.5403 22.9387 46.0011 22.3862 46.0011C21.8232 46.0011 21.3447 45.5226 21.3447 44.9597C21.3447 44.7092 21.4395 44.4753 21.5942 44.293ZM23.3828 44.6641C23.3584 44.5855 23.325 44.5104 23.2834 44.4403L30.4741 40.2854L38.8186 43.2248L23.3828 44.6641ZM39.4717 43.1007L30.8584 40.0633L35.7427 37.241C35.9326 37.5166 36.2502 37.7019 36.6006 37.7019C37.1636 37.7019 37.6421 37.2234 37.6421 36.6605C37.6421 36.4233 37.5571 36.2012 37.4167 36.0235L39.6777 34.0241L39.4717 43.1007ZM37.3062 35.9033L39.6829 33.7937L39.8289 27.3669L35.5676 31.0127L36.4497 35.6306C36.499 35.623 36.5496 35.619 36.6006 35.619C36.8694 35.619 37.1187 35.7281 37.3062 35.9033ZM34.3789 24.7897L39.7788 26.7235L38.8096 22.4869L34.0066 19.5035C33.863 19.6713 33.6626 19.791 33.4333 19.8404L34.3789 24.7897ZM40.1226 26.8162L39.1858 22.7207L46.052 26.9857C46.0066 27.0655 45.9712 27.1514 45.9482 27.2415L40.1226 26.8162ZM45.9209 27.5782C45.9377 27.7649 46.0068 27.9395 46.1128 28.087L40.0002 33.5122L40.1421 27.1562L45.9209 27.5782ZM39.6687 27.0385L34.4514 25.1704L35.4905 30.6091L39.6687 27.0385ZM35.3967 30.6893L34.345 25.1323L28.4236 23.0121L24.1841 26.6803L25.3696 32.7238L30.8027 34.615L35.3967 30.6893ZM33.3462 19.8556L34.2729 24.7518L28.7136 22.761L32.4424 19.5348C32.634 19.737 32.9031 19.8656 33.1948 19.8656C33.2461 19.8656 33.2969 19.8622 33.3462 19.8556ZM32.3826 19.466L28.614 22.7253L23.3015 20.8229L29.0291 17.6801L32.1772 18.6075C32.1616 18.6777 32.1533 18.7502 32.1533 18.8241C32.1533 19.0634 32.24 19.2875 32.3826 19.466ZM22.9536 20.6393L20.1174 15.5911C20.2605 15.4773 20.3706 15.3256 20.4355 15.1487L28.5696 17.5448L22.9536 20.6393ZM22.6743 20.8316L19.5432 23.6902V15.8117C19.6409 15.8045 19.7341 15.7849 19.8215 15.7542L22.6743 20.8316ZM23.887 26.8136L22.7805 21.1709L19.5432 24.1376V29.6583C19.8042 29.6804 20.042 29.8045 20.2153 29.9892L23.887 26.8136ZM28.3237 22.9764L24.1633 26.5746L23.0898 21.1024L28.3237 22.9764ZM20.2771 30.0609L23.9077 26.9194L25.0225 32.6029L20.4551 31.0131C20.4849 30.9138 20.501 30.8075 20.501 30.6962C20.501 30.4599 20.4167 30.2384 20.2771 30.0609ZM20.429 31.0895L25.0393 32.6883L26.1465 38.3346L20.4299 35.122L19.7683 31.6942C20.0747 31.6046 20.3152 31.383 20.429 31.0895ZM30.6553 39.9917L26.7021 38.5977L31.1372 34.8031L35.6077 36.3534C35.5762 36.451 35.5591 36.5543 35.5591 36.6605C35.5591 36.8159 35.5955 36.9649 35.6602 37.0992L30.6553 39.9917ZM23.072 44.1844L26.4451 38.8661L30.271 40.2138L23.1895 44.3064C23.1536 44.2628 23.1143 44.2219 23.072 44.1844ZM26.1467 38.7231L22.7844 44.0009C22.6609 43.9478 22.5261 43.9182 22.3862 43.9182C22.2996 43.9182 22.2151 43.9296 22.134 43.9507L20.5127 35.5514L26.1467 38.7231ZM25.3865 32.8087L30.7429 34.6663L26.4675 38.3199L25.3865 32.8087ZM35.6284 36.2947L31.1968 34.7521L35.4731 31.0935L36.3364 35.6547C36.0149 35.7429 35.749 35.9862 35.6284 36.2947ZM39.7981 42.5723L39.9951 33.7435L46.2332 28.2273C46.2725 28.2659 46.3147 28.3015 46.3594 28.3337L39.7981 42.5723ZM46.1353 26.8611L39.1365 22.5049L37.1692 13.9026L46.2488 26.7356C46.2078 26.7744 46.1699 26.8164 46.1353 26.8611ZM20.498 14.8548L36.0898 13.401L28.7617 17.439L20.4771 15.0046C20.4873 14.956 20.4944 14.906 20.498 14.8548ZM32.2236 18.4563L29.2219 17.5743L36.7415 13.4484L38.76 22.2704L34.1018 19.371C34.1958 19.2137 34.2461 19.0272 34.2363 18.8241C34.2363 18.2612 33.7578 17.7827 33.1948 17.7827C32.7605 17.7827 32.3765 18.0676 32.2236 18.4563ZM19.4026 15.8131V23.8185L12.6794 29.9563L19.188 15.777C19.2573 15.7966 19.3291 15.8089 19.4026 15.8131ZM20.343 35.4558L12.7471 31.1795L21.8455 44.0756C21.8896 44.048 21.936 44.0236 21.9839 44.0027L20.343 35.4558ZM19.627 31.7253L20.2607 35.027L12.4504 30.6378L19.4026 24.2665V29.6564C18.8647 29.6873 18.418 30.1524 18.418 30.6962C18.418 31.2592 18.8965 31.7377 19.4595 31.7377C19.5168 31.7377 19.5725 31.7335 19.627 31.7253Z" fill="#00DCE6"/>
<path fill-rule="evenodd" clip-rule="evenodd" d="M21.5942 44.293L12.0498 30.7828C12.0166 30.7523 12 30.7091 12 30.6659L12.0005 30.6295L12 30.5832L18.8828 15.6339C18.605 15.4442 18.418 15.1253 18.418 14.7733C18.418 14.2104 18.8965 13.7319 19.4595 13.7319C19.9321 13.7319 20.3455 14.0693 20.4658 14.5108L36.854 13C36.9102 13 36.9666 13.0281 36.9946 13.0844L46.51 26.5534C46.6467 26.4858 46.7993 26.4476 46.9585 26.4476C47.5215 26.4476 48 26.9261 48 27.489C48 28.052 47.5215 28.5305 46.9585 28.5305C46.8535 28.5305 46.7515 28.5138 46.6548 28.4831L39.7812 43.4119C39.7532 43.4682 39.6968 43.4963 39.6406 43.4963L23.4272 44.991C23.4099 45.5403 22.9387 46.0011 22.3862 46.0011C21.8232 46.0011 21.3447 45.5226 21.3447 44.9597C21.3447 44.7092 21.4395 44.4753 21.5942 44.293ZM23.3828 44.6641C23.3584 44.5855 23.325 44.5104 23.2834 44.4403L30.4741 40.2854L38.8186 43.2248L23.3828 44.6641ZM39.4717 43.1007L30.8584 40.0633L35.7427 37.241C35.9326 37.5166 36.2502 37.7019 36.6006 37.7019C37.1636 37.7019 37.6421 37.2234 37.6421 36.6605C37.6421 36.4233 37.5571 36.2012 37.4167 36.0235L39.6777 34.0241L39.4717 43.1007ZM37.3062 35.9033L39.6829 33.7937L39.8289 27.3669L35.5676 31.0127L36.4497 35.6306C36.499 35.623 36.5496 35.619 36.6006 35.619C36.8694 35.619 37.1187 35.7281 37.3062 35.9033ZM34.3789 24.7897L39.7788 26.7235L38.8096 22.4869L34.0066 19.5035C33.863 19.6713 33.6626 19.791 33.4333 19.8404L34.3789 24.7897ZM40.1226 26.8162L39.1858 22.7207L46.052 26.9857C46.0066 27.0655 45.9712 27.1514 45.9482 27.2415L40.1226 26.8162ZM45.9209 27.5782C45.9377 27.7649 46.0068 27.9395 46.1128 28.087L40.0002 33.5122L40.1421 27.1562L45.9209 27.5782ZM39.6687 27.0385L34.4514 25.1704L35.4905 30.6091L39.6687 27.0385ZM35.3967 30.6893L34.345 25.1323L28.4236 23.0121L24.1841 26.6803L25.3696 32.7238L30.8027 34.615L35.3967 30.6893ZM33.3462 19.8556L34.2729 24.7518L28.7136 22.761L32.4424 19.5348C32.634 19.737 32.9031 19.8656 33.1948 19.8656C33.2461 19.8656 33.2969 19.8622 33.3462 19.8556ZM32.3826 19.466L28.614 22.7253L23.3015 20.8229L29.0291 17.6801L32.1772 18.6075C32.1616 18.6777 32.1533 18.7502 32.1533 18.8241C32.1533 19.0634 32.24 19.2875 32.3826 19.466ZM22.9536 20.6393L20.1174 15.5911C20.2605 15.4773 20.3706 15.3256 20.4355 15.1487L28.5696 17.5448L22.9536 20.6393ZM22.6743 20.8316L19.5432 23.6902V15.8117C19.6409 15.8045 19.7341 15.7849 19.8215 15.7542L22.6743 20.8316ZM23.887 26.8136L22.7805 21.1709L19.5432 24.1376V29.6583C19.8042 29.6804 20.042 29.8045 20.2153 29.9892L23.887 26.8136ZM28.3237 22.9764L24.1633 26.5746L23.0898 21.1024L28.3237 22.9764ZM20.2771 30.0609L23.9077 26.9194L25.0225 32.6029L20.4551 31.0131C20.4849 30.9138 20.501 30.8075 20.501 30.6962C20.501 30.4599 20.4167 30.2384 20.2771 30.0609ZM20.429 31.0895L25.0393 32.6883L26.1465 38.3346L20.4299 35.122L19.7683 31.6942C20.0747 31.6046 20.3152 31.383 20.429 31.0895ZM30.6553 39.9917L26.7021 38.5977L31.1372 34.8031L35.6077 36.3534C35.5762 36.451 35.5591 36.5543 35.5591 36.6605C35.5591 36.8159 35.5955 36.9649 35.6602 37.0992L30.6553 39.9917ZM23.072 44.1844L26.4451 38.8661L30.271 40.2138L23.1895 44.3064C23.1536 44.2628 23.1143 44.2219 23.072 44.1844ZM26.1467 38.7231L22.7844 44.0009C22.6609 43.9478 22.5261 43.9182 22.3862 43.9182C22.2996 43.9182 22.2151 43.9296 22.134 43.9507L20.5127 35.5514L26.1467 38.7231ZM25.3865 32.8087L30.7429 34.6663L26.4675 38.3199L25.3865 32.8087ZM35.6284 36.2947L31.1968 34.7521L35.4731 31.0935L36.3364 35.6547C36.0149 35.7429 35.749 35.9862 35.6284 36.2947ZM39.7981 42.5723L39.9951 33.7435L46.2332 28.2273C46.2725 28.2659 46.3147 28.3015 46.3594 28.3337L39.7981 42.5723ZM46.1353 26.8611L39.1365 22.5049L37.1692 13.9026L46.2488 26.7356C46.2078 26.7744 46.1699 26.8164 46.1353 26.8611ZM20.498 14.8548L36.0898 13.401L28.7617 17.439L20.4771 15.0046C20.4873 14.956 20.4944 14.906 20.498 14.8548ZM32.2236 18.4563L29.2219 17.5743L36.7415 13.4484L38.76 22.2704L34.1018 19.371C34.1958 19.2137 34.2461 19.0272 34.2363 18.8241C34.2363 18.2612 33.7578 17.7827 33.1948 17.7827C32.7605 17.7827 32.3765 18.0676 32.2236 18.4563ZM19.4026 15.8131V23.8185L12.6794 29.9563L19.188 15.777C19.2573 15.7966 19.3291 15.8089 19.4026 15.8131ZM20.343 35.4558L12.7471 31.1795L21.8455 44.0756C21.8896 44.048 21.936 44.0236 21.9839 44.0027L20.343 35.4558ZM19.627 31.7253L20.2607 35.027L12.4504 30.6378L19.4026 24.2665V29.6564C18.8647 29.6873 18.418 30.1524 18.418 30.6962C18.418 31.2592 18.8965 31.7377 19.4595 31.7377C19.5168 31.7377 19.5725 31.7335 19.627 31.7253Z" stroke="#00DCE6" mask="url(#path-2-outside-1)"/>
</svg>
