<svg width="230" height="50" viewBox="0 0 230 50" fill="none" xmlns="http://www.w3.org/2000/svg">
<path d="M118.709 35.2639C119.075 35.3868 119.288 35.4637 119.501 35.5098C122.29 36.1551 124.241 38.6444 124.378 41.5177C124.576 45.728 121.757 48.125 118.343 48.924C117.383 49.1545 116.392 49.2467 115.417 49.2621C112.628 49.3082 109.824 49.2621 107.035 49.2928C106.395 49.2928 106.151 49.1545 106.166 48.4477C106.197 40.1809 106.197 31.9142 106.166 23.6474C106.166 22.9713 106.334 22.7716 107.02 22.7869C109.991 22.8177 112.963 22.7716 115.935 22.8177C117.794 22.8484 119.547 23.294 121.071 24.4618C124.028 26.7359 124.241 32.3751 120.324 34.4956C119.837 34.7261 119.349 34.9566 118.709 35.2639ZM109.58 41.5331C109.58 42.8853 109.58 44.2375 109.58 45.605C109.58 45.9431 109.565 46.3118 110.068 46.2965C112.293 46.235 114.533 46.3272 116.743 46.0814C118.572 45.8816 120.096 44.9136 120.568 42.9468C121.193 40.4268 120.187 37.6917 117.17 37.1846C114.838 36.8005 112.43 36.9234 110.052 36.8312C109.565 36.8158 109.58 37.1846 109.58 37.538C109.58 38.8748 109.58 40.2117 109.58 41.5331ZM109.58 29.763C109.58 30.9154 109.549 32.0678 109.595 33.2203C109.61 33.4354 109.885 33.8195 110.037 33.8195C112.11 33.8042 114.198 33.881 116.255 33.6505C118.389 33.42 119.593 31.8374 119.577 29.7476C119.562 27.6425 118.373 26.1367 116.209 25.9062C114.182 25.6911 112.11 25.7986 110.068 25.7679C109.595 25.7679 109.58 26.1059 109.58 26.4593C109.58 27.5657 109.58 28.672 109.58 29.763Z" fill="#00DCE6"/>
<path d="M147.528 49.2781C146.111 49.2781 144.891 49.3088 143.672 49.2474C143.398 49.232 143.047 48.9401 142.895 48.6942C140.929 45.2984 138.963 41.8872 137.043 38.4607C136.677 37.7999 136.25 37.508 135.488 37.5694C134.513 37.6463 133.522 37.5848 132.425 37.5848C132.425 37.9536 132.425 38.2455 132.425 38.5528C132.425 41.8565 132.41 45.1601 132.44 48.4637C132.44 49.0784 132.303 49.3549 131.648 49.2935C130.962 49.2474 130.276 49.2627 129.59 49.2935C129.164 49.3088 128.981 49.1398 128.996 48.7096C129.011 48.5559 128.996 48.4023 128.996 48.2486C128.996 40.1048 128.996 31.961 128.996 23.8171C128.996 22.803 128.996 22.803 129.987 22.803C132.958 22.803 135.93 22.7723 138.902 22.8184C140.639 22.8491 142.346 23.2025 143.794 24.2474C146.156 25.9376 146.903 28.3808 146.507 31.1312C146.065 34.2351 144.145 36.1251 141.188 36.9702C140.883 37.0624 140.563 37.1238 140.106 37.2314C142.575 41.2572 145.013 45.1908 147.528 49.2781ZM132.41 30.1939C132.41 31.4539 132.395 32.6985 132.425 33.9585C132.425 34.1736 132.715 34.5578 132.882 34.5424C135.107 34.4963 137.348 34.5424 139.557 34.2658C141.706 34.0046 142.864 32.4834 142.895 30.4551C142.925 27.9351 141.98 26.4447 139.664 26.1066C137.424 25.7839 135.122 25.8608 132.852 25.7993C132.715 25.7993 132.455 26.1988 132.44 26.4139C132.395 27.6739 132.41 28.9339 132.41 30.1939Z" fill="#00DCE6"/>
<path d="M103.972 49.2621C102.631 49.2621 101.427 49.2928 100.223 49.2313C100.055 49.2313 99.8418 48.8779 99.7351 48.6321C99.0188 46.8957 98.3025 45.144 97.6167 43.377C97.4186 42.8699 97.1443 42.6702 96.5956 42.6855C92.8466 42.7009 89.0823 42.7009 85.3333 42.6855C84.8303 42.6855 84.5713 42.8699 84.3884 43.3463C83.7178 45.1133 82.9863 46.8496 82.3157 48.6167C82.1328 49.1084 81.889 49.2928 81.3708 49.2774C80.3193 49.2467 79.2525 49.2621 78.0942 49.2621C78.2162 48.924 78.2771 48.7089 78.3533 48.5091C81.9957 40.1656 85.6381 31.8066 89.2804 23.463C89.509 22.9406 89.8138 22.833 90.3472 22.7408C92.1913 22.4489 93.0447 23.1865 93.761 24.9381C96.9766 32.8822 100.375 40.7187 103.728 48.586C103.789 48.755 103.85 48.924 103.972 49.2621ZM96.0775 39.6585C94.4011 35.479 92.7704 31.4378 91.1397 27.3967C91.0635 27.3967 90.9873 27.412 90.8959 27.412C89.2347 31.4686 87.5888 35.5097 85.8971 39.6585C89.3414 39.6585 92.6027 39.6585 96.0775 39.6585Z" fill="#00DCE6"/>
<path d="M179.623 43.2233C180.583 43.9455 181.498 44.6523 182.473 45.3899C181.117 47.1723 179.44 48.3555 177.444 49.093C169.016 52.2123 160.314 46.9572 159.201 38.0297C158.485 32.2983 160.268 27.4428 165.236 24.1699C169.778 21.1735 176.362 21.4348 180.415 24.6308C180.949 25.0457 181.406 25.5681 181.97 26.1059C180.949 26.8896 180.034 27.5964 179.105 28.3186C178.571 27.8269 178.099 27.3352 177.55 26.9357C173.405 23.924 167.385 25.2455 164.505 29.7476C161.67 34.1729 162.249 40.4575 165.739 44.007C169.031 47.3721 175.889 48.1096 179.364 43.4385C179.41 43.3924 179.486 43.3463 179.623 43.2233Z" fill="#00DCE6"/>
<path d="M62.1226 36.0321C62.1226 31.9141 62.1378 27.7961 62.1073 23.6627C62.1073 23.0327 62.214 22.7715 62.9303 22.7715C67.8985 22.8022 72.882 22.8022 77.8503 22.7715C78.4446 22.7715 78.6732 22.9405 78.6275 23.5551C78.5818 24.139 78.5818 24.7383 78.6275 25.3222C78.6732 25.8907 78.4751 26.0751 77.896 26.0597C75.2747 26.029 72.6687 26.0444 70.0474 26.0444C68.7824 26.0444 67.5023 26.0597 66.2374 26.029C65.7344 26.0136 65.5058 26.1519 65.5058 26.7051C65.5211 29.0868 65.5363 31.4685 65.5058 33.8502C65.4906 34.5416 65.9021 34.557 66.3898 34.557C69.8188 34.557 73.2478 34.557 76.6768 34.557C77.6979 34.557 77.7131 34.557 77.6979 35.5404C77.6826 36.2318 77.9112 37.1999 77.5607 37.5226C77.1492 37.8913 76.2348 37.7223 75.5338 37.7223C72.5163 37.7377 69.4987 37.753 66.466 37.7069C65.7344 37.6916 65.5058 37.9067 65.5058 38.6596C65.5363 41.8864 65.4906 45.1132 65.5363 48.34C65.5516 49.0929 65.3077 49.3388 64.5914 49.262C64.0428 49.2005 63.4789 49.2159 62.915 49.262C62.275 49.3234 62.0921 49.0776 62.1073 48.4476C62.1378 44.3142 62.1226 40.1808 62.1226 36.0321Z" fill="#00DCE6"/>
<path d="M151.734 36.0019C151.734 31.8839 151.749 27.7659 151.719 23.6479C151.719 22.9718 151.886 22.726 152.572 22.7874C153.228 22.8489 153.898 22.8335 154.553 22.7874C155.117 22.7567 155.3 22.9564 155.285 23.525C155.254 26.1832 155.27 28.8415 155.27 31.4998C155.27 37.1236 155.254 42.7628 155.285 48.3867C155.285 49.0935 155.102 49.3547 154.401 49.2932C153.776 49.2318 153.136 49.2471 152.496 49.2932C151.902 49.3393 151.719 49.1242 151.719 48.5096C151.749 44.3301 151.734 40.166 151.734 36.0019Z" fill="#00DCE6"/>
<path d="M115.447 5.68583C115.447 4.71779 115.447 3.81121 115.447 2.75098C116.377 2.79707 117.337 2.78171 118.267 2.90463C119.12 3.02756 119.516 3.61146 119.471 4.39511C119.425 5.10193 118.937 5.62436 118.114 5.68583C117.261 5.73192 116.407 5.68583 115.447 5.68583Z" fill="white"/>
<path d="M188.508 5.33159C188.508 4.37892 188.508 3.45698 188.508 2.41211C189.499 2.47357 190.429 2.47357 191.358 2.5965C192.135 2.70406 192.532 3.25722 192.532 3.96405C192.532 4.68623 192.135 5.22403 191.328 5.30086C190.413 5.40842 189.468 5.33159 188.508 5.33159Z" fill="white"/>
<path d="M92.5874 5.91554C92.5874 4.77847 92.5874 3.84116 92.5874 2.7041C93.5932 2.7963 94.5686 2.82703 95.5135 2.99605C96.1383 3.11898 96.4888 3.64141 96.4888 4.30214C96.4888 4.97823 96.1688 5.54676 95.4982 5.66968C94.5534 5.82334 93.6085 5.83871 92.5874 5.91554Z" fill="white"/>
<path d="M70.3572 13.8387V8.17775H64.8798V13.8387H62.1064V0.769531H64.8798V5.52197H70.3572V0.769531H73.1999V13.8387H70.3572Z" fill="#00DCE6"/>
<path d="M79.5785 13.8387V8.03797L74.7251 0.769531H78.3305L80.9652 5.45208L83.9466 0.769531H87.2053L82.4905 8.03797V13.8387H79.5785Z" fill="#00DCE6"/>
<path d="M88.731 13.8387V0.769531H94.4164C95.5951 0.769531 96.6351 1.18886 97.3977 1.95764C98.1604 2.72642 98.5764 3.70486 98.5764 4.96286C98.5764 6.15097 98.1604 6.71008 97.3977 7.47886C96.6351 8.24764 95.5951 8.66697 93.2377 8.66697H91.5737V13.7689H88.731V13.8387ZM91.643 3.28553V6.36064H94.0697C94.9017 6.36064 95.5257 5.73164 95.5257 4.82309C95.5257 3.91453 94.9017 3.28553 94.0697 3.28553H91.643Z" fill="#00DCE6"/>
<path d="M100.448 13.8387V0.769531H109.184V3.35542H103.291V5.87142H108.907V8.52719H103.291V11.1131H109.531V13.9086H100.448V13.8387Z" fill="#00DCE6"/>
<path d="M119.169 13.8387L116.465 8.38742H114.87V13.8387H112.097V0.769531H118.129C119.238 0.769531 120.139 1.11898 120.833 1.81786C121.526 2.51675 121.873 3.42531 121.873 4.54353C121.873 5.59186 121.526 6.50042 120.902 7.19931C120.278 7.89819 119.862 8.17775 119.099 8.38742L122.427 13.8387H119.169ZM114.939 3.14575V6.22086H117.366C118.198 6.22086 118.822 5.59186 118.822 4.68331C118.822 3.77475 118.198 3.14575 117.366 3.14575H114.939Z" fill="#00DCE6"/>
<path d="M124.438 13.8387V0.769531H127.281V11.0432H132.689V13.8387H124.438Z" fill="#00DCE6"/>
<path d="M134.631 13.8387V0.769531H143.436V3.35542H137.404V5.87142H143.09V8.45731H137.404V11.0432H143.783V13.7689H134.631V13.8387Z" fill="#00DCE6"/>
<path d="M145.862 13.8387V0.769531H150.23C153.142 0.769531 154.737 1.39853 155.916 2.58664C157.094 3.77475 157.718 5.3822 157.718 7.2692C157.718 9.15619 157.094 10.7636 155.916 11.9517C154.737 13.1399 152.726 13.7689 149.953 13.7689H145.862V13.8387ZM148.636 3.42531V11.1131H150.646C151.686 11.1131 153.212 10.7636 153.836 10.0647C154.529 9.36586 154.806 8.45731 154.806 7.2692C154.806 6.15097 154.46 5.24242 153.836 4.47364C153.142 3.77475 151.686 3.42531 150.646 3.42531H148.636Z" fill="#00DCE6"/>
<path d="M166.455 8.38793V5.87193H171.586V12.5114C170.615 13.35 167.703 13.8393 165.623 13.8393C163.682 13.8393 162.226 13.0705 160.978 11.8824C159.73 10.6244 159.175 9.01693 159.175 7.06005C159.175 5.10316 159.869 3.21616 161.117 1.95816C162.365 0.700159 164.167 0.210938 166.109 0.210938C168.05 0.210938 169.922 0.560382 171.239 1.74849L169.298 3.98494C168.397 3.00649 167.703 2.79683 166.109 2.79683C164.999 2.79683 164.029 3.28605 163.543 3.77527C162.573 4.61394 162.226 5.59238 162.226 7.12993C162.226 8.5976 162.573 9.36638 163.197 9.99538C163.821 10.6244 164.514 11.1835 165.901 11.1835C167.079 11.1835 167.981 11.1136 168.813 10.5545V8.38793H166.455Z" fill="#00DCE6"/>
<path d="M174.082 13.8387V0.769531H182.887V3.35542H176.855V5.87142H182.54V8.45731H176.855V11.0432H183.234V13.7689H174.082V13.8387Z" fill="#00DCE6"/>
<path d="M192.732 13.8387L190.028 8.38742H188.434V13.8387H185.66V0.769531H191.692C192.802 0.769531 193.703 1.11898 194.396 1.81786C195.09 2.51675 195.436 3.42531 195.436 4.54353C195.436 5.59186 195.09 6.50042 194.466 7.19931C193.842 7.89819 193.426 8.17775 192.663 8.38742L195.991 13.8387H192.732ZM188.503 3.14575V6.22086H190.93C191.762 6.22086 192.386 5.59186 192.386 4.68331C192.386 3.77475 191.762 3.14575 190.93 3.14575H188.503Z" fill="#00DCE6"/>
<path fill-rule="evenodd" clip-rule="evenodd" d="M13.9055 8.39499C12.9098 7.91668 12.4853 6.71936 12.9572 5.72069L15.0027 1.3923C15.4747 0.393628 16.6644 -0.028215 17.66 0.450087L17.9944 0.610746C18.9901 1.08905 19.4146 2.28637 18.9427 3.28504L16.8972 7.61343C16.4253 8.6121 15.2356 9.03395 14.2399 8.55564L13.9055 8.39499ZM23.3513 3.18406C22.3556 2.70576 21.1659 3.1276 20.694 4.12627L20.5257 4.48221C20.0538 5.48088 20.4783 6.67821 21.474 7.15651L30.5639 11.5233C31.5595 12.0016 32.7493 11.5797 33.2212 10.5811L33.3894 10.2251C33.8613 9.22644 33.4368 8.02912 32.4412 7.55082L23.3513 3.18406ZM28.831 17.7316C27.8354 17.2533 26.6457 17.6751 26.1738 18.6738L26.0055 19.0297C25.5336 20.0284 25.9581 21.2257 26.9538 21.704L35.6059 25.8605C36.6016 26.3388 37.7913 25.9169 38.2632 24.9182L38.4314 24.5623C38.9034 23.5636 38.4788 22.3663 37.4832 21.888L28.831 17.7316ZM11.0989 24.4299C11.5709 23.4312 12.7606 23.0094 13.7562 23.4877L22.8461 27.8545C23.8418 28.3328 24.2663 29.5301 23.7944 30.5288L23.6262 30.8847C23.1542 31.8834 21.9645 32.3052 20.9689 31.8269L11.879 27.4602C10.8833 26.9819 10.4588 25.7845 10.9307 24.7859L11.0989 24.4299ZM18.0202 21.1509C17.5482 22.1496 17.9728 23.3469 18.9684 23.8252L19.3028 23.9859C20.2985 24.4642 21.4882 24.0423 21.9601 23.0437L26.3 13.8601C26.772 12.8614 26.3474 11.6641 25.3518 11.1858L25.0174 11.0251C24.0217 10.5468 22.832 10.9687 22.3601 11.9673L18.0202 21.1509ZM4.31059 28.6986C3.31495 28.2203 2.89041 27.023 3.36235 26.0243L7.70226 16.8407C8.17421 15.8421 9.36392 15.4202 10.3596 15.8985L10.694 16.0592C11.6896 16.5375 12.1142 17.7348 11.6422 18.7335L7.30232 27.9171C6.83038 28.9158 5.64066 29.3376 4.64502 28.8593L4.31059 28.6986ZM23.7294 36.35C23.2574 37.3487 23.682 38.546 24.6776 39.0243L25.012 39.185C26.0077 39.6633 27.1974 39.2415 27.6693 38.2428L32.0092 29.0592C32.4812 28.0605 32.0566 26.8632 31.061 26.3849L30.7266 26.2242C29.7309 25.7459 28.5412 26.1678 28.0693 27.1664L23.7294 36.35ZM39.106 33.4992C38.1104 33.0209 37.6858 31.8236 38.1578 30.8249L42.4977 21.6413C42.9696 20.6427 44.1593 20.2208 45.155 20.6991L45.4894 20.8598C46.4851 21.3381 46.9096 22.5354 46.4377 23.5341L42.0977 32.7177C41.6258 33.7164 40.4361 34.1382 39.4404 33.6599L39.106 33.4992ZM19.4654 38.6869C18.4698 38.2086 17.2801 38.6304 16.8081 39.6291L16.6399 39.985C16.168 40.9837 16.5925 42.181 17.5882 42.6593L26.2403 46.8158C27.2359 47.2941 28.4256 46.8722 28.8976 45.8735L29.0658 45.5176C29.5377 44.5189 29.1132 43.3216 28.1176 42.8433L19.4654 38.6869ZM10.4139 11.1028C10.8858 10.1041 12.0755 9.68225 13.0711 10.1606L17.3455 12.214C18.3412 12.6923 18.7657 13.8896 18.2938 14.8883L18.1256 15.2442C17.6536 16.2429 16.4639 16.6647 15.4683 16.1864L11.1939 14.133C10.1982 13.6547 9.7737 12.4574 10.2456 11.4587L10.4139 11.1028ZM43.9265 13.0684C42.9309 12.5901 41.7411 13.012 41.2692 14.0106L41.101 14.3666C40.6291 15.3652 41.0536 16.5626 42.0492 17.0409L46.3236 19.0943C47.3193 19.5726 48.509 19.1507 48.9809 18.1521L49.1491 17.7961C49.6211 16.7974 49.1965 15.6001 48.2009 15.1218L43.9265 13.0684ZM0.610461 31.8478C1.0824 30.8491 2.27212 30.4273 3.26776 30.9056L7.54215 32.959C8.5378 33.4373 8.96234 34.6346 8.49039 35.6333L8.32219 35.9892C7.85024 36.9879 6.66053 37.4097 5.66489 36.9314L1.39049 34.878C0.394851 34.3997 -0.0296901 33.2024 0.442253 32.2037L0.610461 31.8478ZM10.5109 37.0407C10.039 38.0394 10.4635 39.2367 11.4592 39.715L11.7936 39.8757C12.7892 40.354 13.979 39.9321 14.4509 38.9334L16.4964 34.6051C16.9683 33.6064 16.5438 32.4091 15.5481 31.9308L15.2137 31.7701C14.2181 31.2918 13.0284 31.7136 12.5564 32.7123L10.5109 37.0407ZM31.5969 49.3891C30.6013 48.9108 30.1768 47.7134 30.6487 46.7148L32.6942 42.3864C33.1661 41.3877 34.3558 40.9659 35.3515 41.4442L35.6859 41.6048C36.6815 42.0831 37.1061 43.2804 36.6341 44.2791L34.5887 48.6075C34.1167 49.6062 32.927 50.028 31.9314 49.5497L31.5969 49.3891ZM33.5328 15.605C33.0608 16.6037 33.4854 17.801 34.481 18.2793L34.8154 18.44C35.8111 18.9183 37.0008 18.4964 37.4727 17.4978L39.5182 13.1694C39.9901 12.1707 39.5656 10.9734 38.57 10.4951L38.2355 10.3344C37.2399 9.85613 36.0502 10.278 35.5782 11.2766L33.5328 15.605ZM34.3316 33.372C33.336 32.8937 32.1462 33.3156 31.6743 34.3143L31.5061 34.6702C31.0341 35.6689 31.4587 36.8662 32.4543 37.3445L36.7287 39.3979C37.7244 39.8762 38.9141 39.4544 39.386 38.4557L39.5542 38.0997C40.0262 37.1011 39.6016 35.9037 38.606 35.4254L34.3316 33.372Z" fill="#00DCE6"/>
</svg>
