<svg width="70" height="47" viewBox="0 0 70 47" fill="none" xmlns="http://www.w3.org/2000/svg">
<path fill-rule="evenodd" clip-rule="evenodd" d="M15.8076 3.80761C11.995 7.62023 11.0456 13.2118 12.9594 17.9104C12.5413 19.6452 12.3197 21.4566 12.3197 23.3197C12.3197 25.1002 12.522 26.8334 12.9049 28.4976C11.0642 33.1678 12.0317 38.6886 15.8076 42.4645C19.4648 46.1216 24.7589 47.1443 29.3315 45.5324C31.2408 46.0459 33.2483 46.3197 35.3197 46.3197C37.316 46.3197 39.2529 46.0654 41.0997 45.5874C45.6356 47.1203 50.8496 46.0793 54.4644 42.4645C58.0792 38.8497 59.1202 33.6357 57.5874 29.0998C58.0654 27.2529 58.3197 25.316 58.3197 23.3197C58.3197 21.2483 58.0459 19.2407 57.5324 17.3314C59.1443 12.7588 58.1216 7.46478 54.4644 3.80761C50.6885 0.0317214 45.1678 -0.935844 40.4976 0.904916C38.8334 0.522031 37.1002 0.319721 35.3197 0.319721C33.4566 0.319721 31.6452 0.541258 29.9104 0.959424C25.2118 -0.9544 19.6202 -0.00500464 15.8076 3.80761ZM16.5147 4.51472C19.6843 1.34515 24.1858 0.319319 28.2175 1.43721C21.2275 3.7043 15.7043 9.22752 13.4372 16.2175C12.3193 12.1858 13.3452 7.68429 16.5147 4.51472ZM27.5938 44.9899C20.8448 42.5835 15.55 37.1137 13.3836 30.2545C12.3538 34.2345 13.3975 38.6401 16.5147 41.7574C19.5217 44.7644 23.7276 45.8419 27.5938 44.9899ZM41.0917 44.5235L41.1405 44.5415C48.612 42.4969 54.4968 36.6121 56.5415 29.1406L56.5235 29.0917L56.5663 29.0488C56.6313 28.8074 56.6922 28.5644 56.7491 28.3197H48.4005C46.9815 32.0297 44.0297 34.9815 40.3197 36.4005V44.7491C40.5644 44.6922 40.8074 44.6313 41.0489 44.5663L41.0917 44.5235ZM53.7573 41.7574C50.8099 44.7048 46.7107 45.7984 42.9086 45.0383C49.5064 42.7331 54.7331 37.5064 57.0383 30.9087C57.7984 34.7108 56.7047 38.81 53.7573 41.7574ZM42.2545 1.38362C49.1137 3.55002 54.5835 8.8447 56.9899 15.5937C57.8418 11.7275 56.7643 7.52171 53.7573 4.51472C50.6401 1.39746 46.2345 0.353762 42.2545 1.38362ZM57.3197 23.3197C57.3197 24.6857 57.1952 26.0226 56.957 27.3197H48.74C49.1172 26.0523 49.3197 24.7097 49.3197 23.3197C49.3197 21.9298 49.1172 20.5871 48.74 19.3197H56.957C57.1952 20.6168 57.3197 21.9537 57.3197 23.3197ZM56.7491 18.3197C54.8584 10.1846 48.4549 3.78105 40.3198 1.89041V10.239C44.0297 11.658 46.9815 14.6098 48.4005 18.3197H56.7491ZM35.3197 45.3197C36.6857 45.3197 38.0226 45.1952 39.3197 44.957V36.74C38.0523 37.1172 36.7097 37.3197 35.3197 37.3197C33.9298 37.3197 32.5872 37.1172 31.3197 36.74V44.957C32.6168 45.1952 33.9537 45.3197 35.3197 45.3197ZM30.3197 44.7491C22.1846 42.8584 15.781 36.4548 13.8904 28.3197H22.239C23.6579 32.0297 26.6098 34.9815 30.3197 36.4005V44.7491ZM21.8995 27.3197H13.6825C13.4442 26.0226 13.3197 24.6857 13.3197 23.3197C13.3197 21.9537 13.4442 20.6168 13.6825 19.3197H21.8995C21.5223 20.5871 21.3197 21.9298 21.3197 23.3197C21.3197 24.7097 21.5223 26.0523 21.8995 27.3197ZM22.239 18.3197H13.8904C15.781 10.1846 22.1847 3.78098 30.3198 1.89037V10.239C26.6098 11.6579 23.6579 14.6098 22.239 18.3197ZM39.3198 1.68249C38.0227 1.44422 36.6857 1.31972 35.3197 1.31972C33.9538 1.31972 32.6169 1.44421 31.3198 1.68246V9.89946C32.5872 9.52227 33.9298 9.31972 35.3197 9.31972C36.7097 9.31972 38.0524 9.52228 39.3198 9.8995V1.68249ZM48.3197 23.3197C48.3197 30.4994 42.4994 36.3197 35.3197 36.3197C28.14 36.3197 22.3197 30.4994 22.3197 23.3197C22.3197 16.14 28.14 10.3197 35.3197 10.3197C42.4994 10.3197 48.3197 16.14 48.3197 23.3197Z" fill="#1F2432"/>
</svg>
