<svg width="170" height="60" viewBox="0 0 170 60" fill="none" xmlns="http://www.w3.org/2000/svg">
<path d="M39.5046 22.0596V26.4118H40.3121C41.6494 26.4118 42.5507 26.2425 43.016 25.9041C43.4813 25.5656 43.714 25.0731 43.714 24.4265C43.714 23.6954 43.441 23.1182 42.8949 22.6951C42.3489 22.272 41.4419 22.0605 40.1742 22.0605L39.5046 22.0596ZM39.5046 15.5952V19.1707H40.2089C40.9935 19.1707 41.5764 19.0053 41.9574 18.6746C42.3385 18.3438 42.5299 17.8942 42.5317 17.3257C42.5317 16.7948 42.3506 16.3735 41.9886 16.0618C41.6265 15.7502 41.0763 15.5944 40.338 15.5944L39.5046 15.5952ZM36.2871 29.4938V12.5123H38.9464C40.4896 12.5123 41.6173 12.6125 42.3296 12.8127C43.3427 13.082 44.1488 13.5823 44.7476 14.3135C45.3455 15.0399 45.6648 15.9572 45.6477 16.8994C45.6561 17.5109 45.5161 18.1152 45.24 18.6603C44.9675 19.1876 44.5248 19.6822 43.9116 20.1441C44.939 20.6291 45.6902 21.2352 46.165 21.9622C46.6398 22.6892 46.8772 23.5494 46.8772 24.5427C46.8864 25.4654 46.6307 26.3711 46.141 27.1519C45.6842 27.9054 45.0263 28.5154 44.2419 28.9128C43.4668 29.3013 42.3963 29.4956 41.0306 29.4956L36.2871 29.4938Z" fill="#818592"/>
<path d="M54.3174 19.5192C53.347 19.5192 52.541 19.8636 51.8994 20.5524C51.2577 21.2413 50.9366 22.1244 50.9361 23.2018C50.9361 24.287 51.2625 25.1808 51.9154 25.8834C52.2195 26.2213 52.5922 26.49 53.0083 26.6711C53.4245 26.8523 53.8746 26.9418 54.3281 26.9337C55.3134 26.9337 56.1307 26.5892 56.78 25.9004C57.4293 25.2115 57.7546 24.3081 57.7558 23.1902C57.7558 22.0973 57.4311 21.2124 56.7818 20.5355C56.1325 19.8585 55.311 19.5197 54.3174 19.5192ZM57.6169 16.9332H60.7561V29.4937H57.6169V28.1663C57.0044 28.7515 56.3898 29.1728 55.7731 29.4302C55.1373 29.6918 54.456 29.8234 53.769 29.8172C52.1534 29.8172 50.7559 29.1883 49.5766 27.9303C48.3972 26.6724 47.8078 25.1081 47.8084 23.2376C47.8084 21.2979 48.3788 19.7087 49.5196 18.4698C50.6604 17.2309 52.0463 16.6114 53.6773 16.6114C54.4033 16.6067 55.1224 16.7522 55.79 17.0387C56.4758 17.3428 57.0961 17.7782 57.616 18.3205L57.6169 16.9332Z" fill="#818592"/>
<path d="M62.143 12.085V29.4937H65.2822V23.7051L70.5938 29.4937H74.4906L68.457 22.9533L73.846 16.9332H69.9047L65.2822 22.1113V12.085H62.143Z" fill="#818592"/>
<path d="M82.4965 21.644C82.294 20.9506 81.861 20.3477 81.2697 19.9358C80.6494 19.4944 79.9047 19.2639 79.1445 19.278C78.3167 19.2626 77.5071 19.5222 76.8413 20.0163C76.4258 20.3244 76.0418 20.8669 75.6893 21.644H82.4965ZM85.6357 24.1262H75.5513C75.6967 25.0201 76.0857 25.7301 76.7184 26.2563C77.3512 26.7825 78.1581 27.0462 79.1392 27.0473C79.7005 27.0558 80.2577 26.9508 80.7778 26.7386C81.2978 26.5264 81.77 26.2113 82.1662 25.812L84.8104 27.059C84.151 27.9981 83.3616 28.6926 82.4422 29.1425C81.5228 29.5924 80.4304 29.8177 79.165 29.8183C77.2028 29.8183 75.6044 29.1968 74.3698 27.9537C73.1353 26.7107 72.5183 25.1542 72.5189 23.2842C72.5189 21.3678 73.1341 19.7767 74.3645 18.511C75.5949 17.2453 77.1381 16.6122 78.9941 16.6116C80.964 16.6116 82.5665 17.2448 83.8017 18.511C85.0368 19.7773 85.652 21.4491 85.6473 23.5265L85.6357 24.1262Z" fill="#818592"/>
<path d="M86.8234 16.9333H89.5139V18.5154C89.8054 17.8921 90.1912 17.419 90.6713 17.096C91.1393 16.7772 91.6923 16.608 92.2578 16.6106C92.7023 16.6201 93.1388 16.7308 93.5345 16.9342L92.5552 19.6471C92.1872 19.4623 91.8845 19.37 91.6471 19.37C91.164 19.37 90.7559 19.67 90.4229 20.2701C90.09 20.8701 89.9232 22.0476 89.9226 23.8026L89.9342 24.4149V29.4946H86.8181L86.8234 16.9333Z" fill="#818592"/>
<path d="M47.3043 30.6102L43.3478 42.4546L39.427 30.6102H36.2895L33.3613 47.5916H36.5005L38.3577 36.8671L41.9189 47.5916H44.7563L48.3496 36.8671L50.1631 47.5916H53.2765L50.4391 30.6102H47.3043Z" fill="#818592"/>
<path d="M66.1531 37.5713L63.5428 39.014C63.0513 38.4986 62.5658 38.141 62.0862 37.9414C61.5494 37.7307 60.9763 37.6287 60.4 37.6411C59.226 37.6411 58.2763 37.9927 57.551 38.6958C56.8257 39.399 56.4631 40.3 56.4631 41.3988C56.4631 42.4673 56.8124 43.3394 57.511 44.0151C58.2096 44.6909 59.1266 45.0291 60.262 45.0297C61.6663 45.0297 62.7599 44.5488 63.5428 43.587L66.0178 45.2853C64.6764 47.0373 62.783 47.9132 60.3377 47.9132C58.1374 47.9132 56.4147 47.2578 55.1695 45.9468C53.9242 44.6358 53.301 43.1043 53.2998 41.3524C53.2913 40.1657 53.608 38.9996 54.2154 37.9816C54.8228 36.9636 55.6974 36.133 56.7435 35.5807C57.8285 34.9962 59.0417 34.7036 60.3831 34.703C61.6248 34.703 62.74 34.9512 63.7288 35.4475C64.7051 35.9331 65.5406 36.6626 66.1549 37.566" fill="#818592"/>
<path d="M67.2908 30.6102H70.5448V36.464L75.137 30.6102H79.0018L73.0964 38.1892L79.5769 47.5916H75.7593L70.5448 40.0466V47.5916H67.2908V30.6102Z" fill="#818592"/>
<path d="M88.0667 39.7416C87.8641 39.0482 87.4312 38.4454 86.8399 38.0335C86.2196 37.592 85.4749 37.3615 84.7147 37.3756C83.8869 37.3602 83.0773 37.6198 82.4115 38.1139C81.996 38.422 81.612 38.9646 81.2594 39.7416H88.0667ZM91.2059 42.2238H81.1215C81.2669 43.1177 81.6559 43.8277 82.2886 44.3539C82.9213 44.8801 83.7283 45.1438 84.7094 45.145C85.2707 45.1534 85.8279 45.0484 86.3479 44.8362C86.868 44.624 87.3402 44.3089 87.7364 43.9096L90.3779 45.1575C89.7185 46.0966 88.9291 46.7911 88.0097 47.241C87.0903 47.6909 85.9976 47.9153 84.7316 47.9141C82.7694 47.9141 81.171 47.2926 79.9365 46.0495C78.7019 44.8065 78.0849 43.25 78.0855 41.38C78.0855 39.4636 78.7007 37.8726 79.9311 36.6069C81.1615 35.3412 82.7047 34.708 84.5607 34.7074C86.5306 34.7074 88.1332 35.3406 89.3683 36.6069C90.6035 37.8732 91.2204 39.5453 91.2192 41.6232L91.2059 42.2238Z" fill="#818592"/>
<path d="M92.2992 35.031H95.4385V36.3182C96.1507 35.7157 96.7956 35.2968 97.3731 35.0614C97.9357 34.8273 98.5384 34.7059 99.1474 34.7039C99.7345 34.693 100.318 34.8031 100.861 35.0274C101.404 35.2517 101.895 35.5855 102.304 36.008C103.032 36.7469 103.395 37.8398 103.395 39.2867V47.587H100.289V42.0907C100.289 40.592 100.222 39.5965 100.088 39.1043C99.9535 38.6121 99.7202 38.2373 99.3878 37.9799C99.0321 37.7149 98.5975 37.5787 98.1548 37.5937C97.5474 37.5834 96.9603 37.8133 96.5202 38.2337C96.0649 38.6604 95.7495 39.2503 95.5738 40.0035C95.4818 40.3956 95.4361 41.2451 95.4367 42.5519V47.5906H92.2992V35.031Z" fill="#818592"/>
<path d="M105.135 35.0311H114.713L109.092 44.9242H114.391V47.5915H104.272L109.919 37.6983H105.135V35.0311Z" fill="#818592"/>
<path d="M129.771 39.7415C129.569 39.0481 129.136 38.4452 128.544 38.0334C127.924 37.5916 127.18 37.361 126.419 37.3755C125.591 37.3601 124.782 37.6197 124.116 38.1138C123.701 38.4219 123.317 38.9645 122.964 39.7415H129.771ZM132.91 42.2237H122.827C122.972 43.1176 123.361 43.8276 123.994 44.3538C124.627 44.88 125.434 45.1437 126.415 45.1449C126.976 45.1533 127.533 45.0483 128.053 44.8361C128.573 44.6239 129.046 44.3088 129.442 43.9095L132.086 45.1565C131.427 46.0956 130.637 46.7901 129.718 47.24C128.798 47.69 127.706 47.9152 126.441 47.9158C124.478 47.9158 122.88 47.2943 121.645 46.0512C120.411 44.8082 119.794 43.2517 119.795 41.3817C119.795 39.4653 120.41 37.8742 121.64 36.6085C122.871 35.3429 124.414 34.7097 126.27 34.7091C128.24 34.7091 129.842 35.3423 131.077 36.6085C132.312 37.8748 132.929 39.5469 132.928 41.6249L132.91 42.2237Z" fill="#818592"/>
<path d="M118.745 35.0311H115.606V47.5915H118.745V35.0311Z" fill="#818592"/>
<path d="M118.74 31.6049H115.605V33.9861H118.74V31.6049Z" fill="#818592"/>
<path d="M136.637 45.1976H133.679V47.5788H136.637V45.1976Z" fill="#818592"/>
</svg>
