<svg width="170" height="60" viewBox="0 0 170 60" fill="none" xmlns="http://www.w3.org/2000/svg">
<g clip-path="url(#clip0)">
<path d="M15.5001 33.0307C14.7684 36.2287 12.4269 38.513 8.25613 38.513C2.98782 38.513 0.5 34.7058 0.5 29.8326C0.5 25.1879 3.06099 21 8.47564 21C12.9391 21 15.061 23.665 15.5001 26.4823H11.9147C11.5488 25.1879 10.6708 23.8934 8.40247 23.8934C5.40246 23.8934 4.30489 26.6346 4.30489 29.7565C4.30489 32.6499 5.32929 35.6957 8.54881 35.6957C10.8903 35.6957 11.622 34.0967 11.9879 33.1068H15.5001V33.0307Z" fill="#818592"/>
<path d="M37.0131 29.6803C37.0131 34.4012 34.2326 38.513 28.818 38.513C23.6228 38.513 20.8423 34.6297 20.8423 29.7565C20.8423 24.8072 23.8424 21 29.0375 21C33.9399 21 37.0131 24.5026 37.0131 29.6803ZM24.5741 29.6803C24.5741 33.0307 26.0375 35.5434 28.9643 35.5434C32.1838 35.5434 33.2814 32.8022 33.2814 29.7565C33.2814 26.5585 31.9643 23.9696 28.8911 23.9696C25.8911 23.9696 24.5741 26.4062 24.5741 29.6803Z" fill="#818592"/>
<path d="M46.9639 38.2843L41.1102 21.2282H44.9882L47.4761 29.071C48.2078 31.4314 48.7931 33.4873 49.159 35.2386H49.2322C49.598 33.6396 50.2566 31.5837 50.9883 29.1471L53.6224 21.2282H57.281L51.2078 38.2843H46.9639Z" fill="#818592"/>
<path d="M66.0607 21.2282V38.2843H62.4754V21.2282H66.0607Z" fill="#818592"/>
<path d="M73.2318 38.2843V21.2282H77.6953C79.744 25.0354 83.6221 31.9644 84.3538 33.7919H84.427C84.2075 32.0406 84.2075 29.071 84.2075 26.2537V21.2282H87.5002V38.2843H83.2563C81.5002 34.934 77.1831 27.0151 76.3782 25.0354H76.305C76.4513 26.5582 76.4513 30.0608 76.4513 33.1066V38.2843H73.2318Z" fill="#818592"/>
<path d="M109.159 38.2845H106.524C106.378 37.7515 106.305 37.1424 106.232 36.6094C105.28 37.9038 103.671 38.5891 101.329 38.5891C96.4999 38.5891 93.7926 34.8581 93.7926 29.9849C93.7926 24.8833 96.7195 21 101.988 21C106.305 21 108.793 23.4366 109.232 26.4062H105.646C105.28 25.264 104.402 23.8934 101.988 23.8934C98.5487 23.8934 97.5975 26.7869 97.5975 29.8326C97.5975 32.7261 98.6951 35.6195 101.988 35.6195C105.061 35.6195 105.646 33.4114 105.646 31.8885V31.7362H101.988V28.6905H109.159V38.2845Z" fill="#818592"/>
<path d="M119.111 24.2739H114.062V21.2282H127.745V24.2739H122.696V38.2843H119.111V24.2739Z" fill="#818592"/>
<path d="M147.94 29.6803C147.94 34.4012 145.159 38.513 139.745 38.513C134.55 38.513 131.769 34.6297 131.769 29.7565C131.769 24.8072 134.769 21 139.964 21C144.867 21 147.94 24.5026 147.94 29.6803ZM135.501 29.6803C135.501 33.0307 136.964 35.5434 139.891 35.5434C143.111 35.5434 144.208 32.8022 144.208 29.7565C144.208 26.5585 142.891 23.9696 139.818 23.9696C136.818 23.9696 135.501 26.4062 135.501 29.6803Z" fill="#818592"/>
<path d="M154.232 38.2843V21.2282H158.695C160.744 25.0354 164.622 31.9644 165.354 33.7919H165.427C165.207 32.0406 165.207 29.071 165.207 26.2537V21.2282H168.5V38.2843H164.256C162.5 34.934 158.183 27.0151 157.378 25.0354H157.305C157.451 26.5582 157.451 30.0608 157.451 33.1066V38.2843H154.232Z" fill="#818592"/>
</g>
<defs>
<clipPath id="clip0">
<rect width="170" height="60" fill="white"/>
</clipPath>
</defs>
</svg>
