<svg width="170" height="60" viewBox="0 0 170 60" fill="none" xmlns="http://www.w3.org/2000/svg">
<path fill-rule="evenodd" clip-rule="evenodd" d="M31.0697 28.6893C29.577 27.0257 29.4907 23.8266 31.0061 21.6721C34.376 16.8094 40.0705 18.7285 43.995 20.9676C44.1651 20.9676 44.6778 20.8821 44.6778 20.6694V13.6094C44.3796 13.0549 44.3578 13.1194 43.995 12.7558C34.397 8.89498 20.2344 10.6876 20.2344 25.383C20.7035 36.1956 29.9824 42.0619 44.955 36.6438L44.7414 29.9257C38.706 32.1238 34.4397 32.4211 31.0697 28.6893ZM117.431 33.7447L117.303 33.681C115.64 32.8693 115.022 32.2302 114.596 29.9693H127.414C127.35 28.3693 127.031 26.4502 126.539 24.7439C126.31 23.8955 126.01 23.0678 125.643 22.2693C123.851 19.2194 121.762 18.0248 117.304 17.8967C116.984 17.8757 116.643 17.8757 116.281 17.8757C109.285 18.1321 106.618 23.4212 106.533 29.2229C107.386 36.4537 111.673 39.0555 117.304 39.5891C118.755 39.7391 120.312 39.7391 121.912 39.6319C122.146 39.5892 124.557 39.2692 126.54 38.2455C126.903 38.0575 127.252 37.8439 127.585 37.6064V32.8065C127.244 32.9137 126.902 33.0419 126.54 33.1483C123.915 33.9792 120.631 34.5765 117.431 33.7447ZM117.132 23.4848H117.303C119.672 23.5057 119.947 25.3402 119.99 26.6629L117.303 26.642H114.595C114.68 25.1911 114.978 23.5493 117.132 23.4848ZM58.6703 17.7476H58.5212C53.8503 17.7476 46.6622 20.093 46.6622 28.1565C46.6622 36.1547 52.8049 39.1192 58.6703 39.1828H58.8194C64.7703 39.1828 70.9766 35.9402 70.6784 28.1565C70.3793 20.4566 64.2584 17.7903 58.6703 17.7476ZM58.8185 32.3575H58.6694C55.9822 32.272 55.0859 29.7774 55.0859 28.1565C55.0859 26.5566 56.024 24.4239 58.5195 24.4239H58.6686C61.3558 24.5093 62.2513 26.5784 62.2513 28.1565C62.253 29.7984 61.6348 32.3575 58.8185 32.3575Z" fill="#818592"/>
<path fill-rule="evenodd" clip-rule="evenodd" d="M142.107 18.2439L137.266 28.6311L134.002 18.2867L126.537 18.3294H125.493L126.537 20.8248L133.129 36.9283L127.882 49L135.538 48.9573L149.766 18.1794L142.107 18.2439ZM96.7415 39.0819H105.166V11.8022H96.7415V39.0819ZM83.5808 17.753H83.4317C78.7608 17.753 71.5727 20.0985 71.5727 28.162C71.5727 36.1601 77.7154 39.1246 83.5808 39.1883H83.7299C89.6807 39.1883 95.8661 35.9456 95.5889 28.162C95.2907 20.4621 89.1689 17.7958 83.5808 17.753ZM83.7299 32.3629H83.5808C80.8935 32.2775 79.9981 29.7829 79.9981 28.162C79.9981 26.562 80.9363 24.4293 83.4317 24.4293H83.5808C86.2898 24.5148 87.1644 26.5838 87.1644 28.162C87.1644 29.8038 86.5453 32.3629 83.7299 32.3629Z" fill="#818592"/>
</svg>
