<svg width="170" height="60" viewBox="0 0 170 60" fill="none" xmlns="http://www.w3.org/2000/svg">
<path d="M37.8462 29.7866C37.4118 31.4605 36.2332 32.353 34.7635 32.9588C34.7727 33.0466 34.8421 33.0142 34.8883 33.0235C36.1315 33.2408 37.2454 33.7264 38.1281 34.6466C39.205 35.7748 39.51 37.1482 39.339 38.6603C39.0895 40.8521 37.8185 42.207 35.8173 42.9654C35.2996 43.1642 34.7635 43.3029 34.2227 43.4231C33.1181 43.6636 31.9951 43.7376 30.872 43.7561C28.6535 43.7884 26.4397 43.6821 24.2212 43.6636C24.0456 43.6636 23.9994 43.6127 23.9994 43.4416C24.0086 42.9746 23.9994 42.9746 24.457 42.9561C24.7666 42.9469 25.0716 42.933 25.3674 42.8405C25.7464 42.7295 25.9683 42.4844 26.0422 42.1006C26.0931 41.8417 26.1069 41.5827 26.1069 41.3192C26.1069 36.2188 26.1069 31.1184 26.1069 26.0133C26.1069 25.7682 26.0931 25.5185 26.0468 25.2781C25.9729 24.8989 25.751 24.6631 25.3767 24.566C24.9792 24.4596 24.5679 24.455 24.1612 24.4596C24.0225 24.4596 23.9948 24.4226 23.9902 24.2978C23.9763 23.7568 23.9717 23.7568 24.5078 23.7568C26.4767 23.7429 28.4502 23.6504 30.419 23.6828C31.9535 23.7105 33.4786 23.84 34.9391 24.3856C35.7757 24.6955 36.5244 25.1394 37.0744 25.8654C37.6105 26.5682 37.8693 27.3682 37.9063 28.2468C37.9155 28.5288 37.9571 28.8109 37.9248 29.0976C37.9155 29.1762 37.934 29.2363 38.0311 29.2271C38.447 29.1947 38.863 29.1993 39.2651 29.0606C39.5979 28.945 39.7966 28.7462 39.8705 28.3624C39.9445 27.9925 39.9491 27.6318 39.9491 27.2665C39.9537 22.3094 39.9537 17.357 39.9491 12.3999C39.9491 12.1317 39.9445 11.8589 39.8983 11.5953C39.8289 11.1422 39.6117 10.9017 39.1172 10.7861C38.7613 10.7029 38.4008 10.6936 38.0357 10.7029C37.897 10.7075 37.8508 10.6705 37.8508 10.5225C37.8462 10.0046 37.837 10.0046 38.3638 10.0046C42.907 10.0046 47.4502 10.0046 51.998 10C52.1875 10 52.2615 10.0509 52.317 10.2312C52.7468 11.6277 53.1858 13.0196 53.6295 14.4114C53.6619 14.5178 53.6619 14.5686 53.5417 14.6195C53.0795 14.8137 53.0795 14.8183 52.8022 14.3975C52.2522 13.5652 51.7115 12.7236 50.9766 12.03C50.2834 11.378 49.4699 10.9803 48.5317 10.8277C47.7183 10.6936 46.9002 10.6659 46.0822 10.6612C45.0793 10.652 44.081 10.6612 43.078 10.6566C42.9163 10.6566 42.8701 10.6982 42.8701 10.8601C42.8747 13.6438 42.8747 16.4229 42.8701 19.2066C42.8701 19.3222 42.8654 19.4101 43.0318 19.4055C44.0763 19.3916 45.1301 19.4471 46.17 19.2991C47.1544 19.1604 48.0048 18.7951 48.4948 17.8518C48.6704 17.5096 48.7674 17.1443 48.8599 16.7697C48.9477 16.4137 49.0216 16.0576 49.0494 15.6923C49.0679 15.3917 49.2851 15.5351 49.4237 15.5073C49.5947 15.475 49.5809 15.5952 49.5809 15.7108C49.5809 18.4483 49.5809 21.1811 49.5809 23.9186C49.5809 24.0296 49.6178 24.1683 49.4237 24.1452C49.2712 24.1267 49.0632 24.2423 49.0494 23.9325C49.0263 23.4469 48.9338 22.9707 48.8137 22.499C48.4901 21.1996 47.6721 20.4459 46.3503 20.2332C45.241 20.0528 44.1226 20.1222 43.0087 20.1037C42.9024 20.1037 42.8747 20.1499 42.8793 20.2424C42.8793 20.2748 42.8793 20.3025 42.8793 20.3349C42.8793 22.8412 42.8793 25.3428 42.8839 27.8491C42.8839 28.0341 42.9024 28.219 42.9301 28.3994C42.9995 28.8618 43.2259 29.093 43.6927 29.167C44.1133 29.2363 44.5339 29.2456 44.9591 29.2225C45.1532 29.2086 45.2318 29.2502 45.2225 29.4675C45.2041 29.893 45.2179 29.893 44.7973 29.893C42.565 29.893 40.3281 29.893 38.0958 29.893C38.0265 29.893 37.9109 29.9392 37.8462 29.7866ZM29.051 37.6985C29.051 38.8638 29.051 40.0244 29.051 41.1897C29.051 41.3284 29.0556 41.4671 29.0741 41.6059C29.1712 42.4243 29.5548 42.8405 30.3682 42.97C31.3203 43.1226 32.2724 43.081 33.206 42.8128C34.7404 42.3688 35.7248 41.37 36.0946 39.8117C36.358 38.7065 36.3164 37.5921 36.0206 36.4962C35.7156 35.3772 34.9992 34.6234 33.9131 34.2211C33.5202 34.0778 33.1181 33.9807 32.7068 33.9159C31.5837 33.7402 30.4514 33.7818 29.3191 33.768C29.1157 33.768 29.0464 33.805 29.0464 34.0269C29.0556 35.2477 29.051 36.4731 29.051 37.6985ZM29.051 28.7647C29.051 29.3982 29.051 30.0271 29.051 30.6606C29.051 31.4143 29.051 32.1727 29.051 32.9264C29.051 33.0189 29.0094 33.1298 29.1804 33.1345C30.2942 33.1437 31.3988 33.0975 32.4665 32.7414C33.4047 32.427 34.2043 31.9137 34.708 31.0305C35.1656 30.2259 35.258 29.3473 35.2026 28.4364C35.0916 26.6653 34.0887 25.3336 32.4156 24.7556C31.3804 24.3995 30.3081 24.3394 29.2266 24.3903C29.0556 24.3995 29.051 24.4781 29.051 24.6076C29.051 25.9902 29.051 27.3774 29.051 28.7647Z" fill="#818592"/>
<path d="M30.198 10.0417C31.8942 10.0417 33.5858 10.051 35.282 10.0371C35.7858 10.0325 36.0723 10.3007 36.0723 10.814C36.0584 14.0971 36.0631 17.3802 36.0677 20.6633C36.0677 21.0749 35.8273 21.3292 35.4114 21.3292C31.9358 21.3292 28.4649 21.3292 24.9893 21.3292C24.6011 21.3292 24.3515 21.0841 24.3515 20.6957C24.3515 17.3571 24.3515 14.0231 24.3515 10.6845C24.3469 10.2729 24.5918 10.0417 25.0217 10.0417C26.7456 10.0417 28.4741 10.0417 30.198 10.0417Z" fill="#818592"/>
<path d="M96.584 33.0975C96.584 35.872 96.584 38.6464 96.584 41.4209C96.584 41.5828 96.5932 41.7446 96.6163 41.9064C96.7087 42.5677 97.0739 42.9099 97.744 42.9746C98.0676 43.007 98.3865 43.0394 98.7054 42.9839C98.8625 42.9561 98.8995 43.0209 98.9041 43.1688C98.9087 43.6497 98.9133 43.6497 98.4419 43.6497C96.1541 43.6497 93.8664 43.6451 91.5786 43.6544C91.3798 43.6544 91.3151 43.6127 91.3198 43.4047C91.3382 42.9839 91.3244 42.9839 91.745 42.9839C92.0916 42.9839 92.4336 42.9792 92.7756 42.8914C93.2748 42.7619 93.5475 42.4428 93.6307 41.9434C93.663 41.7446 93.6815 41.5458 93.6815 41.3469C93.6861 35.7887 93.6815 30.2352 93.6861 24.677C93.6861 24.5013 93.6538 24.4411 93.4596 24.4411C92.0408 24.4226 90.6265 24.4874 89.2122 24.5891C88.9534 24.6076 88.6992 24.64 88.4404 24.6539C88.2186 24.6677 88.0429 24.8157 87.8812 24.9544C87.2896 25.4492 86.8505 26.0735 86.393 26.6838C85.9262 27.3081 85.5472 27.9878 85.0573 28.5936C84.6182 29.1393 84.0867 29.5924 83.4489 29.8375C82.4783 30.212 81.4615 30.323 80.4447 29.9947C79.6914 29.7543 79.2616 29.1994 79.0397 28.4595C78.7994 27.6457 78.7763 26.8041 78.7716 25.9625C78.7624 23.6597 78.767 21.3522 78.7716 19.0494C78.7716 18.846 78.7254 18.7858 78.5175 18.7951C78.1431 18.8136 77.7641 18.8043 77.3851 18.7951C77.3112 18.7951 77.1956 18.846 77.1725 18.7257C77.1494 18.6148 77.1494 18.5084 77.265 18.4205C77.6624 18.12 78.0507 17.8102 78.4343 17.4911C79.2061 16.8483 79.9178 16.1501 80.588 15.401C80.6204 15.3686 80.6481 15.3316 80.6851 15.2993C80.7498 15.2438 80.833 15.2484 80.9023 15.2715C80.9762 15.2946 80.9439 15.3779 80.9439 15.4334C80.9439 15.9883 80.9531 16.5431 80.9393 17.098C80.9346 17.2969 80.9809 17.357 81.1888 17.357C82.4275 17.3477 83.6707 17.3524 84.9094 17.3524C85.1636 17.3524 85.1636 17.3524 85.0434 17.579C84.8447 17.9581 84.6459 18.3373 84.4518 18.7165C84.3917 18.8321 84.2947 18.7997 84.2069 18.7997C83.2132 18.8043 82.2195 18.809 81.2258 18.7951C80.9855 18.7905 80.9346 18.8598 80.9346 19.0864C80.9439 21.454 80.9393 23.8169 80.9393 26.1844C80.9393 26.6653 80.9855 27.137 81.1195 27.5994C81.346 28.3763 82.1086 28.8063 82.8296 28.7416C83.6707 28.663 84.2762 28.2052 84.6459 27.4561C85.0295 26.6792 85.293 25.8561 85.3946 24.996C85.4547 24.4828 85.5518 23.9741 85.5749 23.4562C85.5795 23.3175 85.6165 23.2897 85.7505 23.3314C86.5963 23.5903 87.4606 23.7105 88.3433 23.729C88.9719 23.7429 89.6005 23.7475 90.229 23.7475C93.7323 23.7475 97.2356 23.7475 100.744 23.7475C101.797 23.7475 102.846 23.7198 103.882 23.484C104.076 23.4423 104.27 23.3868 104.455 23.3267C104.584 23.2851 104.644 23.299 104.672 23.4516C104.991 25.0423 105.319 26.633 105.647 28.2237C105.661 28.2977 105.67 28.3763 105.703 28.4456C105.823 28.7 105.638 28.8017 105.476 28.9173C105.365 28.9959 105.347 28.8849 105.31 28.8294C105.037 28.4271 104.778 28.0202 104.501 27.6225C103.983 26.8642 103.48 26.092 102.879 25.3937C102.602 25.0746 102.283 24.8249 101.899 24.6585C101.816 24.6215 101.719 24.6122 101.626 24.6076C100.013 24.5105 98.4003 24.4088 96.7827 24.4319C96.584 24.4365 96.5609 24.5013 96.5609 24.6724C96.5886 27.4884 96.584 30.2953 96.584 33.0975Z" fill="#818592"/>
<path d="M120.078 41.9761C119.565 42.5402 119.043 42.9934 118.433 43.3402C117.61 43.8072 116.732 44.0338 115.78 43.9968C114.541 43.9459 113.501 43.4558 112.604 42.6327C111.574 41.6894 111.019 40.4825 110.705 39.1415C110.525 38.3831 110.543 37.6248 110.566 36.8618C110.575 36.4826 110.58 36.0988 110.673 35.7335C111.033 34.2908 111.638 32.9914 112.859 32.0573C114.254 30.9891 115.849 30.7163 117.55 30.8828C118.326 30.9614 119.084 31.1417 119.828 31.3729C120.027 31.4331 120.055 31.3868 120.055 31.1972C120.05 29.8424 120.05 28.4829 120.05 27.128C120.05 26.8598 120.027 26.587 119.944 26.328C119.791 25.8471 119.44 25.5882 118.973 25.4679C118.881 25.4448 118.793 25.3939 118.701 25.3847C118.52 25.3662 118.539 25.246 118.53 25.1165C118.52 24.9732 118.599 24.9362 118.715 24.9038C119.819 24.5893 120.878 24.1593 121.894 23.6229C121.922 23.609 121.95 23.5905 121.977 23.5813C122.213 23.4842 122.306 23.5397 122.306 23.7894C122.306 26.0459 122.306 28.3071 122.306 30.5637C122.306 34.1012 122.315 37.6386 122.301 41.1761C122.296 41.8651 122.528 42.1009 123.105 42.2813C123.221 42.3183 123.341 42.3599 123.461 42.3876C123.567 42.4154 123.632 42.4524 123.632 42.5865C123.632 42.7206 123.586 42.776 123.461 42.813C122.444 43.1136 121.437 43.4419 120.443 43.8118C120.152 43.9182 120.092 43.872 120.096 43.5668C120.078 43.0627 120.078 42.5495 120.078 41.9761ZM120.046 38.2444C120.046 37.6063 120.055 36.9635 120.046 36.3254C120.032 35.4745 119.949 34.633 119.685 33.8191C119.093 31.9695 117.513 31.0909 115.738 31.6458C114.689 31.9741 114.028 32.7371 113.57 33.6943C113.104 34.6699 112.933 35.715 112.905 36.7878C112.868 38.1658 113.127 39.4698 113.885 40.6443C115.285 42.813 117.961 43.1506 119.851 41.4027C119.985 41.2778 120.05 41.153 120.046 40.9634C120.041 40.0617 120.046 39.1507 120.046 38.2444Z" fill="#818592"/>
<path d="M132.726 41.9995C132.555 42.1844 132.398 42.3786 132.213 42.5497C131.09 43.5717 129.791 44.0942 128.252 43.9832C127.591 43.9323 126.986 43.7196 126.413 43.4191C125.364 42.8734 124.62 42.0272 124.079 40.9914C123.261 39.4284 123.122 37.7638 123.367 36.0482C123.552 34.735 124.06 33.5512 124.971 32.5847C125.761 31.7478 126.764 31.2299 127.896 30.9894C129.117 30.7259 130.327 30.8137 131.534 31.105C131.894 31.1929 132.25 31.2854 132.601 31.3871C132.731 31.4241 132.763 31.3917 132.763 31.2669C132.759 29.8241 132.768 28.386 132.749 26.9433C132.74 26.0324 132.329 25.6023 131.474 25.3942C131.354 25.3665 131.238 25.3665 131.238 25.1815C131.238 25.0151 131.284 24.9457 131.451 24.8995C132.56 24.5896 133.618 24.155 134.635 23.614C134.926 23.4614 135.014 23.5215 135.014 23.8498C135.014 29.5837 135.014 35.313 135.014 41.0469C135.014 41.9024 135.125 42.0596 135.943 42.3231C136.017 42.3463 136.091 42.3786 136.165 42.3879C136.322 42.4064 136.34 42.5035 136.331 42.633C136.327 42.7624 136.276 42.7994 136.146 42.8318C135.374 43.0399 134.616 43.2942 133.863 43.5624C133.618 43.6503 133.373 43.7474 133.128 43.8306C132.865 43.9185 132.8 43.8676 132.8 43.5948C132.8 43.0769 132.8 42.5636 132.8 42.0457C132.763 42.0318 132.745 42.018 132.726 41.9995ZM132.754 38.2262C132.754 37.5788 132.763 36.9314 132.754 36.284C132.74 35.387 132.643 34.4991 132.338 33.6483C132.005 32.7281 131.464 32.0067 130.503 31.6738C128.992 31.1559 127.443 31.7478 126.565 33.1813C125.872 34.3142 125.646 35.5673 125.623 36.8713C125.595 38.24 125.867 39.5348 126.635 40.6955C128.04 42.8179 130.734 43.1416 132.564 41.4076C132.694 41.2873 132.768 41.1625 132.763 40.9729C132.745 40.062 132.754 39.1464 132.754 38.2262Z" fill="#818592"/>
<path d="M69.8754 40.7684C70.2636 39.7419 70.6379 38.7569 71.0169 37.772C71.5947 36.2553 72.177 34.7386 72.7547 33.2172C72.8287 33.023 72.8887 32.8242 72.9118 32.6161C72.9627 32.1722 72.7963 31.9317 72.3665 31.8161C72.1215 31.7514 71.8627 31.7329 71.6131 31.7283C71.419 31.7236 71.3497 31.6543 71.3774 31.4693C71.3867 31.3999 71.382 31.3306 71.3774 31.2612C71.3682 31.1456 71.419 31.1179 71.5253 31.1179C72.7732 31.1225 74.0211 31.1225 75.2689 31.1179C75.3983 31.1179 75.4307 31.1687 75.4168 31.2797C75.4122 31.3028 75.4168 31.326 75.4168 31.3491C75.4168 31.6866 75.4215 31.6913 75.0979 31.7468C74.4416 31.8577 73.961 32.2045 73.7022 32.8288C73.4295 33.4808 73.1707 34.1421 72.9118 34.7987C71.9274 37.2911 70.9476 39.7881 69.9678 42.2851C69.7691 42.7938 69.5426 43.2886 69.3901 43.8111C69.367 43.8851 69.3254 43.9082 69.2607 43.9128C69.122 43.9174 68.9834 43.9128 68.8447 43.9128C68.7153 43.9128 68.7107 43.8018 68.6829 43.7232C68.4241 42.9556 68.1653 42.1926 67.9111 41.425C67.2595 39.4737 66.6078 37.5177 65.9561 35.5663C65.9284 35.4877 65.896 35.4091 65.8544 35.2888C65.7389 35.5802 65.6326 35.8345 65.5309 36.0934C64.6389 38.3361 63.7377 40.5788 62.8549 42.8261C62.7533 43.0851 62.6285 43.3394 62.5545 43.6076C62.4852 43.8573 62.3558 43.9406 62.0923 43.9267C61.8797 43.9174 61.7873 43.8619 61.7134 43.6585C61.4407 42.914 61.1449 42.1741 60.8583 41.4343C60.2205 39.7881 59.592 38.1373 58.9449 36.5004C58.6769 35.8206 58.4227 35.1362 58.1454 34.4565C57.8912 33.8415 57.6878 33.208 57.4105 32.6022C57.1471 32.0288 56.6895 31.7329 56.061 31.719C55.89 31.7144 55.8576 31.645 55.8622 31.4971C55.8669 31.1225 55.8622 31.1225 56.2412 31.1225C57.8819 31.1225 59.5227 31.1271 61.1634 31.1179C61.376 31.1179 61.4407 31.1826 61.4083 31.3768C61.3991 31.4277 61.3991 31.4832 61.4083 31.5387C61.4268 31.682 61.3575 31.7236 61.2235 31.7236C60.96 31.7329 60.7012 31.7468 60.4378 31.7745C59.8231 31.83 59.592 32.1491 59.7861 32.7317C60.1235 33.7629 60.5487 34.7617 60.9415 35.7744C61.5793 37.4344 62.2218 39.0945 62.8642 40.7499C62.8873 40.8054 62.8919 40.8701 62.9659 40.9118C63.2894 40.0794 63.6129 39.2471 63.9364 38.4194C64.4448 37.1061 64.9486 35.7882 65.4616 34.4796C65.5263 34.3178 65.5263 34.179 65.457 34.0172C65.2767 33.5825 65.1334 33.134 64.9255 32.7132C64.6297 32.1121 64.1721 31.7468 63.4881 31.7236C63.3633 31.719 63.3402 31.6589 63.3356 31.5525C63.3217 31.1271 63.3217 31.1271 63.7331 31.1271C65.2906 31.1271 66.8435 31.1318 68.401 31.1225C68.5998 31.1225 68.6691 31.1641 68.6552 31.3722C68.6367 31.7051 68.6506 31.7005 68.3132 31.7329C68.1006 31.756 67.8834 31.7653 67.6754 31.8161C67.2733 31.9132 67.13 32.1537 67.2132 32.5514C67.3796 33.3375 67.6754 34.0819 67.925 34.8449C68.5489 36.7778 69.1867 38.7061 69.8245 40.6389C69.8245 40.6713 69.8384 40.6944 69.8754 40.7684Z" fill="#818592"/>
<path d="M78.3363 32.9537C78.6598 32.6116 78.9695 32.2694 79.3115 31.9549C80.2682 31.0856 81.3774 30.6787 82.6715 30.7573C83.9379 30.8359 84.9639 31.3168 85.5925 32.4728C85.9761 33.1803 86.1517 33.9479 86.2534 34.7386C86.3366 35.3953 86.3597 36.0565 86.3597 36.7224C86.3597 38.4888 86.3597 40.2506 86.3597 42.017C86.3597 42.7753 86.5076 42.9511 87.2609 43.0435C87.4458 43.0667 87.6307 43.0852 87.8109 43.0898C87.9311 43.0944 87.9773 43.1453 87.9635 43.2609C87.9635 43.2748 87.9635 43.2933 87.9635 43.3071C87.9588 43.7187 88.0097 43.6539 87.6307 43.6539C86.0732 43.6539 84.5202 43.6539 82.9627 43.6539C82.8564 43.6539 82.7131 43.7187 82.7085 43.5013C82.6993 43.1129 82.69 43.1083 82.9488 43.0852C83.2539 43.062 83.5497 43.0251 83.8362 42.9187C84.058 42.8401 84.1551 42.6644 84.1782 42.447C84.1967 42.2713 84.2106 42.0956 84.2106 41.9153C84.2106 39.9176 84.2152 37.9247 84.2106 35.927C84.2106 35.4415 84.1967 34.956 84.0997 34.4797C84.0303 34.1283 83.961 33.7768 83.8085 33.4485C83.4572 32.7179 82.9396 32.2555 82.0938 32.1168C81.3867 32.0012 80.735 32.0613 80.0972 32.3434C79.3161 32.6855 78.7707 33.3052 78.3317 34.0173C78.2901 34.0866 78.2901 34.1653 78.2901 34.2392C78.2901 36.7039 78.2855 39.1685 78.2947 41.6378C78.2947 41.8968 78.2901 42.1603 78.3594 42.4147C78.4472 42.7476 78.6552 42.9418 78.988 43.0204C79.2144 43.0759 79.4455 43.0944 79.6766 43.0944C79.8199 43.0944 79.8707 43.1453 79.8522 43.284C79.8476 43.3349 79.843 43.3904 79.8522 43.4458C79.8753 43.6077 79.8106 43.6539 79.6489 43.6539C78.022 43.6493 76.3998 43.6493 74.7729 43.6539C74.6065 43.6539 74.5603 43.6031 74.5695 43.4412C74.5927 43.0389 74.4956 43.1129 74.93 43.0667C75.1796 43.0389 75.4338 43.0204 75.6742 42.9279C75.9422 42.8262 76.0624 42.6181 76.104 42.3546C76.1456 42.1049 76.1502 41.8505 76.1502 41.5962C76.1456 39.5477 76.1456 37.4992 76.1271 35.4461C76.1225 34.9005 76.1641 34.3502 76.0763 33.8092C76.0023 33.3607 75.7989 33.0046 75.3553 32.815C75.1889 32.7457 75.0641 32.5977 74.8838 32.5376C74.7544 32.4913 74.8145 32.3665 74.8006 32.274C74.7868 32.1769 74.8376 32.1399 74.9208 32.1122C75.9931 31.7746 77.0283 31.3399 78.0266 30.8128C78.2762 30.6787 78.364 30.7573 78.3594 31.0394C78.3317 31.6729 78.3363 32.3017 78.3363 32.9537Z" fill="#818592"/>
<path d="M57.0162 23.7472C57.0301 22.2536 57.2612 20.945 57.9591 19.7566C58.8973 18.1659 60.2931 17.2781 62.1325 17.07C63.288 16.9405 64.4064 17.07 65.4602 17.5648C66.8421 18.2075 67.7849 19.2803 68.2841 20.7045C69.0605 22.9195 69.0467 25.1391 67.9513 27.2477C66.8421 29.384 64.9749 30.3042 62.6086 30.2256C60.8569 30.1655 59.4057 29.4718 58.338 28.0522C57.5662 27.0257 57.2011 25.8465 57.0717 24.5842C57.0393 24.2651 57.0301 23.9414 57.0162 23.7472ZM59.4011 23.6085C59.4057 24.2697 59.438 24.931 59.5489 25.5876C59.7153 26.6095 59.9973 27.5852 60.6489 28.4222C61.7766 29.8649 63.8056 29.925 65.0119 28.5563C65.4787 28.0245 65.7745 27.4002 65.9686 26.7297C66.4816 24.9402 66.4908 23.1276 66.1719 21.3103C66.0148 20.4132 65.7144 19.567 65.1505 18.841C64.1753 17.5879 62.4329 17.3474 61.1989 18.2954C60.5935 18.7624 60.2191 19.3959 59.9557 20.0988C59.5258 21.2224 59.4195 22.4108 59.4011 23.6085Z" fill="#818592"/>
<path d="M57.6735 37.1751C57.6642 38.7565 57.4147 40.079 56.6937 41.2813C55.8895 42.6223 54.7202 43.4639 53.1996 43.843C52.4509 44.028 51.6791 44.0696 50.9396 43.9633C48.9476 43.6719 47.464 42.6176 46.5905 40.7634C46.2855 40.1206 46.1099 39.4455 45.9989 38.7473C45.888 38.0629 45.9065 37.3785 45.9204 36.6895C45.9342 35.9821 46.0775 35.2884 46.3178 34.6457C47.0434 32.6897 48.4346 31.099 51.069 30.8215C53.024 30.6181 54.7525 31.1314 56.0975 32.6342C56.9248 33.5544 57.3546 34.6688 57.5579 35.8757C57.6365 36.3705 57.6827 36.8699 57.6735 37.1751ZM48.2821 37.397C48.2913 38.0814 48.3237 38.7935 48.4531 39.501C48.6287 40.4721 48.9153 41.4015 49.5392 42.1922C50.6161 43.5656 52.5572 43.6812 53.7773 42.4373C54.3782 41.8269 54.7109 41.064 54.9189 40.2547C55.321 38.6964 55.3441 37.1196 55.1315 35.5289C55.0067 34.5809 54.7479 33.6746 54.2257 32.8608C53.3521 31.5059 51.7068 31.0713 50.3757 31.8481C49.6686 32.2643 49.2295 32.907 48.9199 33.6469C48.4115 34.8399 48.2959 36.093 48.2821 37.397Z" fill="#818592"/>
<path d="M104.104 44.0055C103.725 43.9824 103.332 44.0101 102.967 43.9177C102.2 43.7281 101.46 43.4645 100.795 43.0021C100.009 42.4564 99.4635 41.7258 99.0152 40.8981C98.7009 40.3201 98.4975 39.6912 98.3912 39.0577C98.2341 38.0959 98.2295 37.1156 98.3265 36.1353C98.3912 35.4879 98.5669 34.8683 98.8072 34.2856C99.2601 33.1805 99.9765 32.2556 101.016 31.6129C101.848 31.0996 102.75 30.8545 103.725 30.7944C105.019 30.7158 106.225 30.9516 107.32 31.6545C108.582 32.4637 109.345 33.6429 109.738 35.081C110.117 36.4775 110.149 37.8832 109.83 39.2889C109.4 41.1848 108.407 42.6645 106.59 43.4922C105.805 43.8529 104.977 44.0425 104.104 44.0055ZM100.651 37.3699C100.647 38.1791 100.702 38.9884 100.868 39.7837C101.067 40.7224 101.377 41.6102 102.024 42.3408C103.078 43.5339 104.843 43.631 106.008 42.5582C106.599 42.0172 106.955 41.3282 107.182 40.5744C107.718 38.7988 107.727 36.9907 107.436 35.1735C107.283 34.2209 106.978 33.3192 106.359 32.5516C105.523 31.5112 104.127 31.169 102.948 31.7331C102.126 32.1262 101.631 32.8198 101.284 33.6382C100.781 34.8313 100.661 36.0937 100.651 37.3699Z" fill="#818592"/>
<path d="M68.8991 27.5028C68.8991 26.9849 68.9037 26.4716 68.8945 25.9537C68.8899 25.7872 68.9269 25.7179 69.1071 25.7271C69.5277 25.7456 69.4306 25.6763 69.5277 26.0739C69.6987 26.7861 69.9067 27.4843 70.2487 28.1363C71.0945 29.7362 72.6058 29.7594 73.5857 29.3524C75.1109 28.7189 75.6193 26.3791 74.1588 25.2C73.5533 24.7098 72.8739 24.3538 72.1945 23.9977C71.5336 23.6509 70.8726 23.2995 70.2764 22.8463C69.7865 22.4764 69.3752 22.014 69.1903 21.4452C68.9869 20.8256 68.9731 20.1551 69.1626 19.5077C69.4907 18.3748 70.2764 17.6765 71.3579 17.2974C72.689 16.8349 74.0201 16.9598 75.3373 17.3945C75.7256 17.5239 76.0861 17.7089 76.4512 17.8892C76.5667 17.9447 76.6222 18.0141 76.6222 18.1528C76.6176 19.0453 76.6176 19.9424 76.6222 20.8348C76.6222 20.9874 76.576 21.029 76.4235 21.029C76.0167 21.029 76.0214 21.0336 75.9428 20.636C75.7625 19.688 75.3882 18.8418 74.6348 18.2037C73.9554 17.6303 73.1651 17.4407 72.3008 17.6303C71.5705 17.7921 71.0298 18.1944 70.8588 18.9574C70.6832 19.7481 70.905 20.4186 71.5659 20.918C71.9865 21.2371 72.4533 21.4683 72.9109 21.7226C73.7474 22.1804 74.6071 22.6012 75.3974 23.1376C76.0445 23.5769 76.6222 24.0856 76.9088 24.8393C77.5188 26.4392 77.089 28.5386 75.0415 29.5929C73.7936 30.2356 72.4626 30.3235 71.1037 30.083C70.392 29.9582 69.7264 29.7039 69.0886 29.3617C68.95 29.2877 68.8899 29.2091 68.8945 29.0426C68.9084 28.5386 68.8991 28.0207 68.8991 27.5028Z" fill="#818592"/>
<path d="M53.685 19.022C53.9161 18.7261 54.1009 18.4532 54.3228 18.2082C54.9421 17.5099 55.6631 16.9689 56.6475 16.9365C57.1698 16.918 57.6273 17.0752 57.9462 17.533C58.2235 17.9307 58.2189 18.6983 57.9093 19.0682C57.6227 19.4104 57.2437 19.4705 56.837 19.3642C56.569 19.2948 56.3148 19.1792 56.0559 19.0821C55.1455 18.7399 54.369 19.0035 53.8468 19.8312C53.7358 20.0069 53.6804 20.1827 53.6804 20.3954C53.685 22.8831 53.6804 25.3709 53.685 27.8633C53.685 28.0853 53.7035 28.3119 53.7312 28.5292C53.7774 28.913 53.9946 29.1581 54.3783 29.2459C54.7249 29.3245 55.0808 29.3292 55.432 29.3384C55.5152 29.3384 55.6492 29.2922 55.677 29.4031C55.7139 29.5511 55.7139 29.7083 55.6723 29.8563C55.6539 29.9164 55.5799 29.8933 55.5244 29.8933C53.722 29.8933 51.9195 29.8933 50.117 29.8979C49.9691 29.8979 49.9229 29.8517 49.9414 29.713C49.9506 29.639 49.946 29.5604 49.9414 29.4818C49.9321 29.3708 49.9783 29.3338 50.0893 29.3338C50.3204 29.3292 50.5514 29.3014 50.7733 29.2367C51.1199 29.1396 51.3418 28.9176 51.425 28.5616C51.4989 28.2517 51.5128 27.9373 51.5128 27.6229C51.5128 25.3016 51.4989 22.9849 51.522 20.6636C51.5313 19.785 51.2031 19.1792 50.3851 18.8509C50.2279 18.7862 50.1586 18.7122 50.1632 18.5318C50.1725 18.3423 50.3111 18.3561 50.4128 18.3191C51.2771 18.0232 52.1321 17.6949 52.9501 17.288C53.0749 17.2278 53.2043 17.1723 53.3152 17.0891C53.4215 17.0105 53.5371 16.9966 53.6342 17.0383C53.722 17.0752 53.6711 17.1908 53.6757 17.2695C53.6896 17.8382 53.685 18.407 53.685 19.022Z" fill="#818592"/>
<path d="M42.5592 32.7271C42.9521 32.2324 43.3265 31.7607 43.8117 31.3815C44.3571 30.9515 44.9579 30.674 45.6789 30.7018C46.6403 30.7388 47.2411 31.5572 46.9684 32.4821C46.8298 32.9491 46.3953 33.2265 45.8962 33.1618C45.6189 33.1248 45.3647 33.0185 45.1058 32.9121C44.7453 32.7688 44.3848 32.63 43.9874 32.6994C43.2987 32.8243 42.855 33.2497 42.5777 33.8739C42.55 33.934 42.5546 34.008 42.5546 34.0774C42.5546 36.6299 42.5546 39.1778 42.5546 41.7303C42.5546 41.9153 42.5685 42.1002 42.6008 42.2806C42.6748 42.7291 42.8828 42.9372 43.3311 43.0251C43.6823 43.0944 44.0336 43.099 44.3895 43.1037C44.5235 43.1037 44.5558 43.1499 44.5605 43.2794C44.5697 43.6539 44.5743 43.6539 44.1954 43.6539C42.4853 43.6539 40.7752 43.6539 39.0652 43.6539C38.9543 43.6539 38.7879 43.7048 38.8249 43.4921C38.8526 43.3395 38.6908 43.0806 39.0467 43.0898C39.324 43.099 39.5921 43.0297 39.8463 42.9187C40.1421 42.7846 40.3038 42.5257 40.3131 42.2251C40.3269 41.8367 40.4101 41.4575 40.4055 41.0644C40.3916 38.8541 40.3963 36.6392 40.4009 34.4288C40.4009 34.1236 40.3547 33.8184 40.2715 33.5317C40.1236 33.0277 39.6799 32.815 39.2501 32.5977C39.1807 32.5607 39.0744 32.5607 39.0652 32.4497C39.0513 32.2879 39.0375 32.1538 39.2639 32.0844C40.0496 31.8347 40.8168 31.5387 41.5609 31.1827C41.8013 31.0671 42.0324 30.9376 42.2727 30.8266C42.4945 30.7203 42.5639 30.7665 42.5639 31.0023C42.5592 31.5757 42.5592 32.1491 42.5592 32.7271Z" fill="#818592"/>
<path d="M118.471 47.3542C118.471 48.1218 118.471 48.8894 118.467 49.657C118.467 49.7403 118.522 49.8744 118.411 49.9021C118.273 49.9345 118.12 49.916 117.977 49.8975C117.921 49.8882 117.94 49.805 117.94 49.7541C117.94 48.6998 117.94 47.6455 117.935 46.5866C117.935 46.4479 117.991 46.4062 118.111 46.4201C118.12 46.4201 118.125 46.4201 118.134 46.4201C118.476 46.36 118.684 46.4802 118.841 46.8178C119.137 47.4513 119.488 48.0571 119.821 48.6767C119.844 48.7183 119.84 48.7877 119.932 48.7923C119.932 48.0941 119.932 47.3958 119.937 46.6976C119.937 46.6051 119.872 46.4664 119.992 46.434C120.122 46.397 120.265 46.4201 120.403 46.4386C120.468 46.4479 120.445 46.5265 120.445 46.5773C120.445 47.6409 120.445 48.7044 120.445 49.768C120.445 49.8744 120.413 49.9067 120.302 49.9206C120.02 49.953 119.844 49.8744 119.706 49.5969C119.327 48.8385 118.906 48.0941 118.504 47.3449C118.499 47.3496 118.485 47.3496 118.471 47.3542Z" fill="#818592"/>
<path d="M108.301 48.2189C108.291 47.775 108.342 47.382 108.532 47.0167C108.791 46.5219 109.216 46.3323 109.752 46.3508C110.288 46.3739 110.685 46.619 110.875 47.1277C111.138 47.8444 111.143 48.575 110.843 49.2871C110.63 49.7911 110.145 50.0408 109.535 49.9946C108.989 49.9529 108.555 49.5738 108.393 49.0004C108.324 48.7322 108.287 48.4548 108.301 48.2189ZM108.892 48.1542C108.901 48.4686 108.915 48.7877 109.045 49.0836C109.165 49.3611 109.373 49.5229 109.687 49.5229C110.001 49.5183 110.214 49.3518 110.316 49.0651C110.524 48.4779 110.514 47.886 110.325 47.2987C110.219 46.9704 109.978 46.8086 109.669 46.8132C109.368 46.8178 109.16 46.9751 109.031 47.2941C108.92 47.5716 108.901 47.8629 108.892 48.1542Z" fill="#818592"/>
<path d="M115.638 49.8967C115.62 49.9013 115.615 49.9059 115.606 49.9059C115.056 49.9476 115.056 49.9476 114.839 49.4435C114.728 49.18 114.603 48.9256 114.511 48.6574C114.451 48.4864 114.358 48.4401 114.192 48.4447C113.817 48.454 113.817 48.4447 113.817 48.8239C113.817 49.1152 113.808 49.4112 113.822 49.7025C113.827 49.8551 113.794 49.9198 113.623 49.9152C113.244 49.906 113.244 49.9198 113.244 49.5406C113.244 48.5696 113.249 47.6031 113.24 46.6321C113.24 46.4564 113.286 46.4101 113.461 46.4148C113.859 46.4333 114.261 46.387 114.658 46.4379C115.315 46.5257 115.661 46.9974 115.541 47.6216C115.49 47.876 115.366 48.0887 115.139 48.2135C114.982 48.3014 114.991 48.38 115.061 48.5233C115.264 48.9534 115.449 49.3927 115.638 49.832C115.638 49.8458 115.634 49.8643 115.638 49.8967ZM113.813 47.4367C113.813 48.0054 113.813 48.0054 114.381 47.9731C114.39 47.9731 114.395 47.9731 114.404 47.9731C114.783 47.9453 114.973 47.7465 114.964 47.3858C114.959 47.076 114.765 46.9095 114.39 46.8957C113.813 46.8679 113.813 46.8679 113.813 47.4367Z" fill="#818592"/>
<path d="M133.156 49.9945C132.911 49.9945 132.703 49.9437 132.5 49.8697C132.126 49.7263 131.918 49.4443 131.821 49.0605C131.793 48.9587 131.802 48.8986 131.918 48.8801C131.955 48.8755 131.992 48.8662 132.029 48.8478C132.237 48.7553 132.338 48.8061 132.421 49.042C132.569 49.4766 133.175 49.6523 133.563 49.4073C133.859 49.2177 133.868 48.8246 133.577 48.6165C133.387 48.4824 133.161 48.4177 132.944 48.3391C132.726 48.2605 132.509 48.1819 132.324 48.0385C131.848 47.6732 131.83 46.9796 132.297 46.5958C132.921 46.0825 133.942 46.3461 134.242 47.0998C134.307 47.2617 134.265 47.3218 134.108 47.3495C134.062 47.3588 134.016 47.368 133.974 47.3865C133.831 47.4466 133.762 47.405 133.697 47.2571C133.531 46.8686 133.179 46.7253 132.814 46.8686C132.648 46.9334 132.555 47.0582 132.528 47.2293C132.495 47.405 132.583 47.5253 132.722 47.6177C132.934 47.7611 133.189 47.8166 133.424 47.9091C133.595 47.9738 133.771 48.0432 133.923 48.1403C134.575 48.5611 134.543 49.4489 133.859 49.8234C133.637 49.9483 133.392 50.0038 133.156 49.9945Z" fill="#818592"/>
<path d="M122.867 48.1491C122.867 47.6312 122.871 47.1179 122.862 46.6C122.862 46.4613 122.899 46.415 123.042 46.415C123.634 46.4196 124.226 46.4196 124.822 46.415C124.974 46.415 125.034 46.4566 125.011 46.6092C124.993 46.7433 125.062 46.9052 124.808 46.8913C124.415 46.8728 124.022 46.8913 123.629 46.8821C123.486 46.8774 123.44 46.9191 123.444 47.0624C123.454 47.2705 123.454 47.4786 123.444 47.6867C123.435 47.8254 123.481 47.8763 123.625 47.8716C123.916 47.8624 124.212 47.8763 124.503 47.867C124.651 47.8624 124.702 47.9179 124.674 48.052C124.651 48.1676 124.757 48.3479 124.503 48.3341C124.221 48.3202 123.934 48.3387 123.648 48.3294C123.481 48.3202 123.435 48.3849 123.444 48.5421C123.458 48.7641 123.463 48.9907 123.444 49.2126C123.426 49.4161 123.509 49.4531 123.694 49.4485C124.087 49.4346 124.48 49.4577 124.873 49.4392C125.081 49.43 125.048 49.5502 125.048 49.6751C125.048 49.7907 125.09 49.9201 124.877 49.9155C124.262 49.9016 123.648 49.9063 123.029 49.9155C122.894 49.9155 122.858 49.8693 122.858 49.7444C122.867 49.2126 122.867 48.6809 122.867 48.1491Z" fill="#818592"/>
<path d="M96.4133 49.9104C96.2053 49.9844 96.1314 49.8457 96.0805 49.6376C96.0251 49.411 96.0343 49.1012 95.8541 48.9856C95.6877 48.8793 95.4058 48.9717 95.1793 48.944C94.9344 48.9163 94.8281 49.0087 94.8004 49.2446C94.7911 49.3417 94.7541 49.4388 94.7264 49.5359C94.6155 49.9243 94.6155 49.9197 94.2088 49.9197C94.047 49.9197 94.0332 49.8735 94.0794 49.7347C94.2735 49.1197 94.463 48.5001 94.6525 47.8851C94.7819 47.4643 94.9159 47.0481 95.0314 46.6273C95.0777 46.4655 95.1516 46.4146 95.3226 46.4192C95.7339 46.4331 95.7339 46.4238 95.8494 46.8261C96.1221 47.7556 96.3948 48.685 96.6675 49.6145C96.7599 49.9151 96.7599 49.9151 96.4133 49.9104ZM95.4104 47.2284C95.3965 47.2284 95.3827 47.2284 95.3688 47.2284C95.2625 47.6122 95.1516 47.9914 95.0453 48.3752C95.0222 48.4492 95.0407 48.4955 95.1285 48.4955C95.3041 48.4955 95.4797 48.4955 95.66 48.4955C95.7247 48.4955 95.7616 48.4723 95.7431 48.3983C95.6276 48.0099 95.5213 47.6169 95.4104 47.2284Z" fill="#818592"/>
<path d="M145.969 36.4682C145.969 36.6439 145.969 36.8243 145.969 37C145.969 37.0462 145.969 37.0925 145.904 37.0971C145.844 37.1017 145.825 37.0647 145.816 37.0139C145.779 36.8751 145.751 36.7272 145.696 36.5931C145.322 35.6775 144.24 35.5341 143.635 36.3156C143.122 36.9769 143.094 38.156 143.579 38.8404C143.852 39.2288 144.222 39.4415 144.702 39.3907C145.215 39.3352 145.529 39.0207 145.724 38.5629C145.77 38.4566 145.733 38.341 145.793 38.23C145.839 38.1514 145.881 38.156 145.936 38.1699C145.978 38.1791 146.024 38.2115 146.01 38.267C145.927 38.5907 145.992 38.9236 145.973 39.2519C145.969 39.3074 146.006 39.386 145.913 39.4045C145.835 39.423 145.798 39.3675 145.779 39.3074C145.724 39.141 145.636 39.1733 145.52 39.2473C145.067 39.5571 144.545 39.6265 144.037 39.5248C143.283 39.3814 142.715 38.6369 142.655 37.8323C142.618 37.2867 142.692 36.7595 143.066 36.3387C143.551 35.7931 144.323 35.4601 145.22 35.8255C145.312 35.8624 145.405 35.9041 145.493 35.9503C145.622 36.0197 145.747 36.0844 145.83 35.8902C145.848 35.8486 145.885 35.8347 145.927 35.8486C145.987 35.8624 145.973 35.9179 145.973 35.9642C145.973 36.1306 145.973 36.3017 145.969 36.4682C145.973 36.4682 145.973 36.4682 145.969 36.4682Z" fill="#818592"/>
<path d="M128.376 47.8807C128.607 47.4321 128.82 47.0252 129.033 46.6183C129.116 46.4564 129.467 46.3408 129.615 46.4287C129.717 46.4888 129.62 46.5535 129.596 46.5998C129.328 47.1177 129.065 47.6402 128.783 48.1489C128.672 48.3523 128.612 48.5512 128.621 48.7824C128.635 49.0968 128.621 49.4113 128.626 49.7303C128.63 49.8644 128.598 49.9246 128.45 49.9153C127.956 49.8968 128.016 49.9754 128.053 49.5223C128.117 48.7731 127.951 48.1026 127.535 47.4738C127.35 47.1917 127.216 46.8772 127.054 46.5813C126.994 46.4749 126.985 46.4056 127.142 46.4194C127.156 46.4194 127.175 46.4194 127.188 46.4194C127.493 46.364 127.674 46.4749 127.799 46.7755C127.96 47.1408 128.168 47.483 128.376 47.8807Z" fill="#818592"/>
<path d="M141.476 39.4971C141.212 39.5202 140.903 39.5294 140.607 39.5248C140.219 39.5202 139.826 39.5525 139.433 39.4971C139.387 39.4924 139.331 39.5017 139.327 39.4369C139.317 39.3583 139.377 39.3537 139.433 39.3537C139.664 39.3445 139.719 39.2104 139.719 38.9977C139.715 38.0821 139.715 37.1619 139.719 36.2463C139.719 36.029 139.682 35.8764 139.424 35.881C139.373 35.881 139.327 35.8625 139.327 35.807C139.327 35.7423 139.382 35.7423 139.428 35.7423C139.835 35.7423 140.246 35.7423 140.653 35.7423C140.69 35.7423 140.736 35.7423 140.741 35.7931C140.75 35.8533 140.708 35.8671 140.658 35.881C140.279 35.9874 140.269 35.9874 140.269 36.3619C140.265 37.1942 140.269 38.0266 140.274 38.8589C140.279 39.3075 140.325 39.3491 140.764 39.3491C140.856 39.3491 140.949 39.3445 141.041 39.3491C141.688 39.3907 142.1 39.067 142.372 38.5121C142.391 38.4705 142.405 38.4243 142.428 38.3919C142.469 38.341 142.515 38.2624 142.585 38.2855C142.691 38.3225 142.613 38.4058 142.599 38.4613C142.534 38.7526 142.451 39.0439 142.386 39.3352C142.358 39.4554 142.308 39.4971 142.183 39.4924C141.966 39.4878 141.744 39.4971 141.476 39.4971Z" fill="#818592"/>
<path d="M136.646 35.7468C136.845 35.7468 137.048 35.7468 137.247 35.7468C137.298 35.7468 137.367 35.733 137.363 35.8162C137.358 35.8763 137.307 35.8763 137.261 35.8856C136.91 35.9549 136.887 35.9827 136.887 36.3341C136.887 37.1942 136.887 38.0589 136.887 38.919C136.887 39.2797 136.961 39.3583 137.316 39.3537C137.635 39.3444 137.95 39.386 138.268 39.2566C138.638 39.1086 138.818 38.8126 139.003 38.5028C139.022 38.4705 139.026 38.4288 139.045 38.3965C139.082 38.341 139.133 38.2716 139.207 38.2994C139.29 38.3317 139.234 38.4057 139.22 38.4566C139.165 38.697 139.1 38.9329 139.04 39.1733C138.971 39.4508 138.744 39.5802 138.467 39.5386C137.889 39.46 137.312 39.4693 136.734 39.534C136.489 39.5618 136.253 39.46 136.004 39.4878C135.962 39.4924 135.935 39.46 135.939 39.4138C135.944 39.3629 135.976 39.349 136.018 39.349C136.323 39.3583 136.332 39.1595 136.332 38.9329C136.327 38.0265 136.327 37.1156 136.337 36.2093C136.337 36.0104 136.281 35.8763 136.055 35.8809C135.999 35.8809 135.935 35.8763 135.944 35.8023C135.953 35.7237 136.022 35.7422 136.073 35.7422C136.263 35.7422 136.457 35.7468 136.646 35.7468Z" fill="#818592"/>
<path d="M99.8576 48.4029C99.8576 47.959 99.853 47.5105 99.8622 47.0666C99.8622 46.9371 99.8253 46.8862 99.6912 46.8955C99.5064 46.9047 99.3215 46.8862 99.1367 46.9001C98.9749 46.914 98.9518 46.8261 98.9749 46.7059C98.9934 46.5995 98.8778 46.4238 99.1182 46.4238C99.8114 46.4238 100.5 46.4238 101.193 46.4238C101.434 46.4238 101.3 46.6134 101.323 46.7151C101.346 46.8215 101.332 46.9093 101.175 46.9001C100.99 46.8908 100.805 46.9093 100.62 46.8955C100.468 46.8862 100.426 46.9417 100.431 47.0897C100.435 47.9498 100.431 48.8145 100.44 49.6746C100.44 49.8595 100.403 49.9474 100.204 49.9196C100.047 49.8965 99.8253 50.0075 99.8484 49.6746C99.8807 49.2491 99.8576 48.8237 99.8576 48.4029Z" fill="#818592"/>
<path d="M104.617 48.4028C104.617 47.9727 104.607 47.5381 104.621 47.108C104.626 46.9277 104.566 46.8814 104.399 46.8953C104.233 46.9092 104.062 46.8907 103.891 46.8999C103.692 46.9138 103.738 46.7751 103.738 46.6687C103.743 46.5578 103.678 46.4144 103.896 46.419C104.575 46.4283 105.25 46.4283 105.929 46.419C106.146 46.4144 106.077 46.567 106.082 46.6734C106.086 46.7751 106.133 46.9184 105.929 46.8999C105.767 46.8861 105.606 46.9092 105.444 46.8953C105.254 46.8768 105.194 46.9323 105.199 47.1311C105.213 47.9774 105.19 48.8282 105.213 49.6744C105.217 49.9518 105.07 49.9102 104.899 49.9195C104.718 49.9241 104.594 49.9287 104.612 49.6744C104.635 49.249 104.617 48.8236 104.617 48.4028Z" fill="#818592"/>
</svg>
