<svg width="170" height="60" viewBox="0 0 170 60" fill="none" xmlns="http://www.w3.org/2000/svg">
<path d="M52.2393 10.0606C54.0836 10.2337 55.8586 10.6753 57.5211 11.5006C62.09 13.7717 64.9993 17.3963 66.0066 22.3973C67.6864 30.7315 62.3873 38.5173 54.4675 40.3959C46.184 42.3612 37.8976 37.2418 35.9205 28.9682C35.7473 28.2468 35.6377 27.5167 35.5655 26.7779C35.5597 26.7202 35.5655 26.6567 35.5424 26.6077C35.5136 26.5413 35.4703 26.5788 35.4414 26.6192C35.4414 26.5817 35.4414 26.5413 35.4414 26.5038C35.4934 26.5759 35.5309 26.5644 35.5453 26.4836C35.554 26.4374 35.5424 26.3884 35.5395 26.3393C35.5367 25.967 35.5395 25.5919 35.528 25.2196C35.5222 24.9888 35.5771 24.7608 35.5367 24.5328C35.5395 24.4578 35.5569 24.377 35.5367 24.3048C35.5193 24.2298 35.4732 24.2731 35.4443 24.3135C35.4443 24.276 35.4443 24.2356 35.4443 24.198C35.4645 24.2356 35.5107 24.2644 35.5309 24.2298C35.5597 24.1865 35.5569 24.123 35.5655 24.0682C35.6261 23.6122 35.6665 23.1505 35.7502 22.6974C36.3708 19.3384 37.9149 16.4757 40.4144 14.1469C43.0149 11.7257 46.106 10.3809 49.6446 10.0577C49.8986 10.0837 50.1468 10.0433 50.395 10C50.7413 10 51.0877 10 51.434 10C51.6996 10.0462 51.968 10.0808 52.2393 10.0606ZM50.9087 15.2002C50.6692 15.2002 50.4267 15.1973 50.1872 15.2031C50.0717 15.206 49.9592 15.229 49.8437 15.2406C48.0918 15.4253 46.5101 16.0457 45.0901 17.0817C41.4217 19.7539 39.9468 24.5761 41.4765 28.8846C42.8129 32.6505 46.158 35.2737 50.1006 35.6084C52.1787 35.7845 54.1327 35.3372 55.9337 34.2694C60.0552 31.8281 61.9082 26.8559 60.4679 22.2761C59.1201 18.0023 55.1861 15.1453 50.9087 15.2002Z" fill="#818592"/>
<path d="M77.2952 49.9971C77.1018 49.8903 76.8853 49.9279 76.6804 49.8961C74.8303 49.6104 73.191 48.8659 71.7421 47.6885C71.5545 47.5384 71.3813 47.3682 71.2023 47.2094C71.1042 47.1229 71.084 47.0392 71.1937 46.9468C71.2168 46.9295 71.2341 46.9064 71.2543 46.8862C72.2674 45.8733 73.2833 44.8604 74.2964 43.8475C74.4609 43.683 74.4667 43.683 74.6341 43.836C75.4913 44.6036 76.4899 45.074 77.63 45.1923C78.7585 45.3106 79.8322 45.0999 80.8106 44.4997C82.2104 43.6455 83.0128 42.3844 83.2841 40.7828C83.388 40.1653 83.3592 39.539 83.3447 38.8667C83.1889 38.9936 83.059 39.0975 82.932 39.2043C81.9362 40.0498 80.7875 40.5375 79.4974 40.7107C79.0009 40.777 78.5045 40.8261 78.0052 40.8117C76.7959 40.7713 75.6241 40.5433 74.5013 40.0816C73.2227 39.5535 72.0971 38.7945 71.1388 37.796C69.7939 36.3964 68.9309 34.7342 68.5355 32.8354C68.3536 31.9668 68.2959 31.0808 68.3594 30.1978C68.472 28.6654 68.8876 27.2196 69.6611 25.8778C70.4606 24.4955 71.5198 23.3614 72.8533 22.4899C74.0337 21.7165 75.3268 21.2259 76.7266 21.0123C77.4453 20.9027 78.1639 20.8652 78.8826 20.92C80.5076 21.0441 81.9767 21.5664 83.1802 22.7178C83.2149 22.7496 83.2466 22.7871 83.3014 22.7929C83.3794 22.7525 83.3505 22.6745 83.3505 22.6139C83.3534 22.2301 83.3505 21.8434 83.3534 21.4596C83.3534 21.1912 83.3563 21.1884 83.6218 21.1884C84.8918 21.1884 86.1617 21.1884 87.4316 21.1884C87.6337 21.1884 87.8357 21.1912 88.0377 21.1884C88.1474 21.1884 88.1849 21.2288 88.1763 21.3471C88.159 21.5491 88.1647 21.7511 88.1647 21.9531C88.1647 27.9267 88.159 33.9002 88.1676 39.8738C88.1705 41.0598 88.006 42.2084 87.6164 43.3252C87.2007 44.517 86.5773 45.5934 85.7519 46.5515C84.5483 47.9482 83.0734 48.9323 81.3273 49.5123C80.6519 49.7374 79.9592 49.8961 79.2463 49.9481C79.1885 49.9509 79.1308 49.9509 79.0875 50C78.4872 49.9971 77.8926 49.9971 77.2952 49.9971ZM78.3054 25.745C75.549 25.6902 73.2775 28.0334 73.2429 30.772C73.2083 33.6088 75.5548 35.9232 78.2678 35.9376C80.9982 35.952 83.3418 33.6809 83.3592 30.8673C83.3765 28.0363 81.0473 25.6931 78.3054 25.745Z" fill="#818592"/>
<path d="M134.558 21.7162C134.287 22.4232 134.018 23.1302 133.747 23.8372C133.482 24.5384 133.216 25.2368 132.948 25.9381C132.852 26.1891 132.852 26.1862 132.598 26.1112C131.86 25.8948 131.109 25.7216 130.333 25.762C129.271 25.8197 128.315 26.1458 127.574 26.9481C127.008 27.557 126.705 28.3015 126.537 29.1038C126.41 29.7069 126.361 30.3187 126.364 30.9362C126.367 34.0154 126.367 37.0916 126.364 40.1707C126.364 40.5632 126.399 40.5314 126.012 40.5314C124.635 40.5314 123.262 40.5314 121.885 40.5314C121.827 40.5314 121.769 40.5286 121.712 40.5314C121.579 40.5401 121.512 40.491 121.521 40.3496C121.527 40.2833 121.521 40.214 121.521 40.1476C121.521 33.9519 121.521 27.759 121.521 21.5632C121.521 21.1563 121.484 21.1852 121.891 21.1852C123.256 21.1852 124.624 21.1852 125.989 21.1852C126.027 21.1852 126.067 21.1852 126.104 21.1852C126.361 21.1909 126.364 21.1909 126.364 21.4391C126.367 21.9008 126.364 22.3626 126.364 22.8243C126.364 22.8993 126.364 22.9744 126.364 23.1273C126.82 22.654 127.219 22.2183 127.721 21.898C128.229 21.5776 128.768 21.3323 129.346 21.1707C129.92 21.0091 130.509 20.9226 131.106 20.9024C131.704 20.885 132.295 20.9139 132.881 21.0495C133.464 21.1852 134.027 21.3699 134.555 21.6527C134.558 21.6786 134.558 21.696 134.558 21.7162Z" fill="#818592"/>
<path d="M35.537 24.5356C35.5774 24.7664 35.5225 24.9944 35.5283 25.2224C35.5399 25.5947 35.537 25.9698 35.5399 26.3421C35.5081 26.3392 35.4735 26.3363 35.4417 26.3334C35.4417 25.7361 35.4417 25.1416 35.4417 24.5442C35.4764 24.5414 35.5081 24.5385 35.537 24.5356Z" fill="#818592"/>
<path d="M52.2393 10.0606C51.968 10.0808 51.6996 10.0462 51.434 10C51.7025 10 51.9745 10 52.2429 10C52.2429 10.0202 52.2422 10.0404 52.2393 10.0606Z" fill="#818592"/>
<path d="M49.6446 10.0577C49.6446 10.0375 49.6451 10.0202 49.6451 10C49.8962 10 50.1439 10 50.395 10C50.1468 10.0433 49.8986 10.0837 49.6446 10.0577Z" fill="#818592"/>
<path d="M35.537 24.5356C35.5052 24.5385 35.4733 24.5414 35.4444 24.5443C35.4444 24.4664 35.4443 24.3914 35.4443 24.3135C35.4732 24.2731 35.5195 24.2298 35.5397 24.3077C35.557 24.3798 35.5399 24.4577 35.537 24.5356Z" fill="#818592"/>
<path d="M35.4444 26.3333C35.4762 26.3361 35.5108 26.339 35.5425 26.3419C35.5454 26.391 35.5541 26.44 35.5483 26.4862C35.5339 26.5699 35.4964 26.5786 35.4444 26.5064C35.4444 26.4487 35.4444 26.391 35.4444 26.3333Z" fill="#818592"/>
<path d="M104.189 32.7974C104.368 33.3602 104.639 33.8132 104.971 34.2259C105.849 35.3254 107.006 35.9198 108.394 36.093C109.889 36.2806 111.205 35.865 112.383 34.9531C112.533 34.8348 112.669 34.6963 112.807 34.5606C113.058 34.3153 112.986 34.2923 113.318 34.5231C113.768 34.8348 114.219 35.1493 114.666 35.4639C115.35 35.9429 116.034 36.4249 116.718 36.9068C116.92 37.0511 116.923 37.0511 116.759 37.2444C115.235 39.0394 113.307 40.1562 111.009 40.6266C110.265 40.7795 109.506 40.8459 108.746 40.8084C106.426 40.6987 104.356 39.9311 102.579 38.4189C100.93 37.0164 99.851 35.2619 99.3373 33.161C99.0977 32.1828 99.0083 31.19 99.0804 30.1887C99.2276 28.1513 99.9232 26.3102 101.199 24.7115C102.648 22.8905 104.518 21.7045 106.784 21.1591C107.782 20.9195 108.798 20.8387 109.817 20.9224C112.054 21.1042 114.02 21.9267 115.682 23.4533C117.342 24.977 118.323 26.87 118.739 29.0719C118.9 29.9261 118.9 30.7918 118.857 31.6575C118.842 31.9721 118.779 32.2866 118.739 32.5983C118.718 32.7484 118.64 32.8176 118.485 32.8003C118.41 32.7917 118.332 32.8003 118.254 32.8003C113.696 32.8003 109.136 32.8003 104.579 32.8003C104.457 32.7974 104.342 32.7974 104.189 32.7974ZM113.74 28.8987C113.768 28.815 113.731 28.7631 113.714 28.7112C113.405 27.8483 112.885 27.1269 112.161 26.5699C110.914 25.6118 109.485 25.3867 107.982 25.6724C106.273 25.9985 105.04 26.9797 104.31 28.5698C104.149 28.9189 104.146 28.9189 104.533 28.9189C107.502 28.9189 110.472 28.9189 113.445 28.9189C113.543 28.9189 113.639 28.9363 113.74 28.8987Z" fill="#818592"/>
<path d="M91.4952 30.8671C91.4952 27.762 91.4952 24.6569 91.4952 21.5518C91.4952 21.1651 91.4576 21.1882 91.8473 21.1882C93.2327 21.1882 94.6152 21.1882 96.0006 21.1882C96.0381 21.1882 96.0785 21.1882 96.116 21.1882C96.3325 21.1969 96.3325 21.1969 96.3383 21.422C96.3383 21.471 96.3383 21.5172 96.3383 21.5663C96.3383 27.7563 96.3383 33.9491 96.3383 40.1391C96.3383 40.572 96.3845 40.5316 95.9573 40.5316C94.5921 40.5316 93.2269 40.5316 91.8617 40.5316C91.8126 40.5316 91.7665 40.5316 91.7174 40.5316C91.5009 40.5258 91.4952 40.5258 91.4952 40.2979C91.4923 39.2878 91.4952 38.2778 91.4952 37.2707C91.4952 35.1352 91.4952 33.0026 91.4952 30.8671Z" fill="#818592"/>
<path d="M93.8932 18.4354C92.3548 18.4873 91.0041 17.1195 91.0128 15.5381C91.0214 13.9769 92.3346 12.6494 93.9163 12.6465C95.4864 12.6436 96.8343 13.9855 96.8141 15.5727C96.7968 17.1426 95.4691 18.4931 93.8932 18.4354Z" fill="#818592"/>
</svg>
