<svg width="70" height="46" viewBox="0 0 70 46" fill="none" xmlns="http://www.w3.org/2000/svg">
<path d="M32.8 6.1558V3.2C32.8 1.99 33.79 1 35 1C36.21 1 37.2 1.99 37.2 3.2V6.1558" stroke="#1F2432" stroke-miterlimit="10"/>
<path d="M53.7 8.70002C51.5 8.70002 49.85 9.58002 45.12 7.60002C40.5 5.62002 38.19 5.07002 35 7.60002C31.81 5.07002 29.5 5.62002 24.88 7.60002C20.15 9.58002 18.5 8.70002 16.3 8.70002C13.99 8.70002 13 10.02 13 11.34C13 12.66 13.66 14.2 16.19 14.2C17.95 14.2 18.83 13.87 21.8 13.32C23.67 12.88 26.2 12 29.17 12C32.03 12 32.14 14.2 35 14.2C37.86 14.2 37.86 12 40.72 12C43.58 12 46.22 12.88 48.09 13.32C51.06 13.98 52.05 14.2 53.7 14.2C56.23 14.2 56.89 12.55 56.89 11.34C56.89 10.13 56.01 8.70002 53.7 8.70002Z" stroke="#1F2432" stroke-miterlimit="10"/>
<path d="M18.5 14.2L26.2 29.6" stroke="#1F2432" stroke-miterlimit="10"/>
<path d="M17.3999 14.2L10.7999 29.6" stroke="#1F2432" stroke-miterlimit="10"/>
<path d="M10.7999 29.6C10.7999 33.34 14.2099 36.31 18.4999 36.31C22.7899 36.31 26.1999 33.34 26.1999 29.6" stroke="#1F2432" stroke-miterlimit="10"/>
<path d="M38.3 40.6H42.7C43.36 40.6 43.8 41.04 43.8 41.7V45H26.2V41.7C26.2 41.04 26.64 40.6 27.3 40.6H39.1928" stroke="#1F2432" stroke-miterlimit="10"/>
<path d="M32.8 13.6804V17.5C32.8 26.08 31.7 28.61 31.7 31.8C31.7 34.55 32.8 35.21 32.8 37.3V40.5728" stroke="#1F2432" stroke-miterlimit="10" stroke-linecap="round"/>
<path d="M37.2 13.615V17.5C37.2 26.08 38.3 28.61 38.3 31.8C38.3 34.55 37.2 35.21 37.2 37.3V40.6382" stroke="#1F2432" stroke-miterlimit="10" stroke-linecap="round"/>
<path d="M28.4 29.6H8.59998" stroke="#1F2432" stroke-miterlimit="10"/>
<path d="M51.5 14.2L59.2 29.6" stroke="#1F2432" stroke-miterlimit="10"/>
<path d="M50.4 14.2L43.8 29.6" stroke="#1F2432" stroke-miterlimit="10"/>
<path d="M43.8 29.6C43.8 33.34 47.21 36.31 51.5 36.31C55.79 36.31 59.2 33.34 59.2 29.6" stroke="#1F2432" stroke-miterlimit="10"/>
<path d="M61.4001 29.6H41.6001" stroke="#1F2432" stroke-miterlimit="10"/>
</svg>
