<svg width="170" height="60" viewBox="0 0 170 60" fill="none" xmlns="http://www.w3.org/2000/svg">
<path d="M168.997 37.7733C168.77 37.8132 168.619 37.7134 168.464 37.5509C166.079 35.0533 163.688 32.5642 161.297 30.0722C160.354 29.0886 159.41 28.1078 158.47 27.1241C158.443 27.0985 158.414 27.0728 158.359 27.0243C158.359 27.107 158.359 27.1612 158.359 27.2154C158.359 30.5883 158.359 33.9613 158.362 37.3371C158.362 37.4739 158.339 37.5224 158.184 37.5195C157.581 37.5081 156.982 37.511 156.379 37.5167C156.268 37.5167 156.245 37.4853 156.245 37.3827C156.248 32.2848 156.248 27.1868 156.248 22.0861C156.248 22.0405 156.213 21.9606 156.291 21.9578C156.396 21.9578 156.51 21.9093 156.603 22.0119C156.836 22.2686 157.075 22.5166 157.314 22.7675C159.04 24.6008 160.764 26.4313 162.491 28.2646C163.921 29.7814 165.351 31.3011 166.781 32.8179C166.804 32.8407 166.825 32.8693 166.857 32.9063C166.892 32.8379 166.877 32.7809 166.877 32.7267C166.877 29.2768 166.88 25.8268 166.874 22.3769C166.874 22.2258 166.915 22.1916 167.063 22.1916C167.71 22.203 168.354 22.2001 169 22.203C168.997 27.395 168.997 32.5841 168.997 37.7733Z" fill="#818592"/>
<path d="M79.6512 39.8835C79.6512 39.8208 79.6541 39.7609 79.6541 39.6982C79.6541 33.2374 79.6541 26.7737 79.6541 20.3129C79.6541 20.0906 79.625 20.1219 79.858 20.1191C80.1725 20.1162 80.49 20.1219 80.8045 20.1162C80.8919 20.1162 80.9326 20.139 80.921 20.2274C80.9152 20.2645 80.921 20.3044 80.921 20.3415C80.921 26.8137 80.921 33.283 80.921 39.7552C80.921 39.798 80.9268 39.8379 80.9326 39.8806C80.5045 39.8835 80.0764 39.8835 79.6512 39.8835Z" fill="#818592"/>
<path d="M146.061 33.9272C146.352 33.3142 146.635 32.7183 146.917 32.1224C148.464 28.855 150.013 25.5875 151.556 22.3172C151.6 22.226 151.649 22.1946 151.751 22.1946C152.43 22.2003 153.111 22.1975 153.79 22.1975C153.834 22.1975 153.874 22.1975 153.941 22.1975C153.787 22.5139 153.641 22.8133 153.496 23.1098C152.235 25.6816 150.974 28.2534 149.713 30.8252C148.577 33.1403 147.438 35.4555 146.309 37.7735C146.236 37.9218 146.122 37.8676 146.017 37.8818C145.921 37.8961 145.883 37.8448 145.846 37.7678C144.78 35.5467 143.714 33.3228 142.645 31.1017C142.628 31.0647 142.607 31.0276 142.575 30.9677C142.409 31.3099 142.255 31.632 142.1 31.9542C141.171 33.8873 140.243 35.8233 139.316 37.7592C139.279 37.8391 139.244 37.8989 139.139 37.8818C139.025 37.8619 138.903 37.9246 138.824 37.7621C137.98 36.02 137.124 34.2836 136.27 32.5444C135.408 30.7881 134.549 29.0318 133.69 27.2754C132.878 25.6189 132.065 23.9595 131.25 22.303C131.2 22.2032 131.224 22.1889 131.325 22.1889C132.01 22.1918 132.694 22.1946 133.379 22.1889C133.495 22.1889 133.556 22.2203 133.609 22.3258C134.741 24.7208 135.877 27.1158 137.013 29.5079C137.689 30.9306 138.361 32.3534 139.037 33.7761C139.051 33.8103 139.06 33.8503 139.107 33.8759C139.404 33.2544 139.701 32.6357 139.998 32.0141C140.473 31.0219 140.947 30.0325 141.425 29.0432C141.463 28.9633 141.463 28.9035 141.425 28.8208C140.397 26.6653 139.372 24.5069 138.347 22.3514C138.323 22.3058 138.306 22.2573 138.277 22.1918C138.385 22.1918 138.475 22.1918 138.565 22.1918C139.168 22.1918 139.768 22.1946 140.371 22.1889C140.473 22.1889 140.522 22.2174 140.566 22.3087C142.165 25.693 143.769 29.0774 145.371 32.4617C145.601 32.9493 145.828 33.4311 146.061 33.9272Z" fill="#818592"/>
<path d="M5.21351 27.8345C5.14071 28.1709 5.07664 28.4817 5.00966 28.7925C4.55827 30.9537 4.10397 33.1206 3.64967 35.2846C3.50115 35.9917 3.35263 36.6959 3.20993 37.403C3.19246 37.4914 3.16043 37.5171 3.07015 37.5171C2.41491 37.5142 1.75967 37.5142 1.10443 37.5171C0.999595 37.5171 0.987946 37.4914 1.00833 37.3945C1.63445 34.5747 2.25765 31.752 2.88086 28.9293C3.38758 26.6427 3.89138 24.3532 4.3981 22.0637C4.40975 22.0066 4.39228 21.9126 4.50003 21.9268C4.60487 21.9411 4.72718 21.8669 4.79998 22.0209C5.14653 22.7394 5.50473 23.455 5.86001 24.1735C6.78317 26.0411 7.70924 27.9114 8.63531 29.779C8.96148 30.4347 9.28473 31.0934 9.61089 31.7491C9.63128 31.7919 9.64292 31.8404 9.68952 31.8689C10.1001 31.0363 10.5108 30.2038 10.9214 29.3713C11.8329 27.5237 12.7444 25.6733 13.653 23.8257C13.9442 23.2355 14.2325 22.6482 14.5208 22.058C14.5761 21.9439 14.7654 21.8755 14.8819 21.9297C14.9285 21.9525 14.9256 22.0009 14.9343 22.038C15.2256 23.2954 15.5168 24.5528 15.808 25.8101C16.2157 27.5722 16.6205 29.3342 17.0282 31.0962C17.5116 33.1947 17.995 35.296 18.4814 37.3945C18.5018 37.4857 18.4988 37.5199 18.3882 37.5171C17.7475 37.5114 17.1068 37.5114 16.4661 37.5171C16.3613 37.5171 16.338 37.4743 16.3205 37.3916C16.0759 36.2797 15.8313 35.1677 15.5867 34.0557C15.1295 31.9858 14.6722 29.913 14.215 27.843C14.2092 27.8117 14.2092 27.7774 14.1655 27.7546C13.8598 28.3363 13.554 28.9179 13.2453 29.4967C12.1183 31.6351 10.9883 33.7735 9.86425 35.9147C9.80601 36.0288 9.71864 35.9946 9.63128 36.0031C9.54682 36.0117 9.50314 35.9831 9.46237 35.9062C8.71394 34.4749 7.9626 33.0464 7.21126 31.618C6.56476 30.392 5.91825 29.166 5.27466 27.94C5.2601 27.9143 5.24554 27.8886 5.21351 27.8345Z" fill="#818592"/>
<path d="M95.124 29.2089C95.4327 29.3486 95.7268 29.5083 95.9976 29.7078C97.0169 30.4577 97.576 31.4613 97.6838 32.7016C97.7915 33.9704 97.4392 35.0994 96.5626 36.0489C95.8462 36.8273 94.9318 37.2492 93.8863 37.4289C93.4932 37.4944 93.0971 37.5144 92.6981 37.5144C90.9304 37.5115 89.1657 37.5115 87.398 37.5172C87.264 37.5172 87.2203 37.4973 87.2203 37.3519C87.2261 32.3537 87.2261 27.3556 87.2203 22.3575C87.2203 22.2235 87.2611 22.195 87.3892 22.1978C88.9414 22.2007 90.4936 22.1978 92.0487 22.2007C93.0301 22.2035 93.9708 22.3774 94.8124 22.8964C95.8316 23.5236 96.4112 24.436 96.5655 25.5993C96.6995 26.5886 96.516 27.5153 95.9336 28.3507C95.7384 28.6301 95.5026 28.8753 95.2346 29.092C95.1968 29.1234 95.1473 29.149 95.124 29.2089ZM89.3549 33.058C89.3549 33.8136 89.3579 34.5691 89.352 35.3247C89.352 35.4416 89.3812 35.4758 89.5035 35.4729C90.546 35.4672 91.5886 35.4701 92.6311 35.4701C92.8641 35.4701 93.0942 35.453 93.3242 35.4131C94.6202 35.2021 95.5812 34.2099 95.4676 32.8099C95.421 32.2283 95.191 31.7265 94.7512 31.3302C94.1746 30.8084 93.464 30.6345 92.701 30.6288C91.6352 30.6202 90.5664 30.6288 89.5006 30.6231C89.3724 30.6231 89.352 30.663 89.352 30.777C89.3579 31.5383 89.3549 32.2967 89.3549 33.058ZM89.3549 26.4033C89.3549 27.0791 89.3579 27.7519 89.352 28.4277C89.352 28.5389 89.3783 28.5702 89.4947 28.5702C90.2898 28.5645 91.0848 28.5731 91.8827 28.5645C92.4448 28.5588 92.9777 28.4419 93.4582 28.1397C94.5765 27.4383 94.8007 25.8987 93.9125 24.972C93.4524 24.493 92.8525 24.2849 92.2031 24.2649C91.2915 24.2364 90.38 24.2564 89.4685 24.2507C89.3579 24.2507 89.3579 24.302 89.3579 24.3818C89.3579 25.0547 89.3549 25.7276 89.3549 26.4033Z" fill="#818592"/>
<path d="M121.31 21.9494C121.587 21.9608 121.805 21.918 122.03 21.9237C123.192 21.9579 124.316 22.1604 125.382 22.6337C126.04 22.9273 126.64 23.3037 127.19 23.7656C128.055 24.4955 128.722 25.3679 129.196 26.3858C129.502 27.0444 129.715 27.7287 129.834 28.4444C129.916 28.9291 129.971 29.4138 129.962 29.9042C129.939 31.364 129.592 32.744 128.838 34.0156C128.448 34.6742 127.967 35.2672 127.391 35.7805C126.377 36.6814 125.201 37.2802 123.864 37.5796C123.375 37.6879 122.88 37.7535 122.379 37.782C122.152 37.7934 121.925 37.8134 121.701 37.802C121.028 37.7649 120.358 37.6936 119.703 37.5168C118.823 37.283 118.002 36.9238 117.257 36.4077C116.75 36.0599 116.296 35.6607 115.888 35.2045C115.387 34.6485 114.985 34.0298 114.668 33.3598C114.403 32.7981 114.216 32.2108 114.077 31.6063C113.896 30.828 113.876 30.041 113.911 29.2541C113.934 28.6981 114.039 28.1507 114.196 27.6118C114.344 27.1015 114.531 26.6054 114.775 26.1292C115.055 25.5875 115.393 25.0828 115.792 24.6152C116.38 23.9252 117.079 23.375 117.871 22.9302C118.698 22.4683 119.583 22.1832 120.518 22.0349C120.795 21.9921 121.077 21.9636 121.31 21.9494ZM121.971 35.7234C122.58 35.7377 123.227 35.6151 123.692 35.4725C125.387 34.9536 126.584 33.8816 127.304 32.2992C127.781 31.2528 127.924 30.1551 127.767 29.0175C127.688 28.4472 127.536 27.8998 127.295 27.3752C126.913 26.5398 126.369 25.8241 125.638 25.2453C125.082 24.8034 124.464 24.4784 123.783 24.2674C122.892 23.9908 121.977 23.9281 121.051 24.0564C119.659 24.2474 118.494 24.8547 117.559 25.884C117.16 26.3231 116.849 26.8106 116.604 27.3467C116.246 28.125 116.092 28.9462 116.06 29.7901C116.048 30.0467 116.086 30.3062 116.115 30.5628C116.188 31.2471 116.38 31.9029 116.686 32.5216C117.038 33.2429 117.525 33.8645 118.148 34.3862C118.602 34.7654 119.1 35.0762 119.656 35.2929C120.376 35.578 121.127 35.7263 121.971 35.7234Z" fill="#818592"/>
<path d="M73.3522 37.5141C72.5543 37.5141 71.7767 37.5113 71.0021 37.517C70.9176 37.517 70.9002 37.46 70.8681 37.4086C70.3177 36.4706 69.7703 35.5326 69.2198 34.5917C68.6724 33.6536 68.119 32.7156 67.5774 31.7747C67.5133 31.6635 67.4434 31.6293 67.3153 31.6293C66.5669 31.635 65.8213 31.635 65.0729 31.6293C64.9448 31.6293 64.904 31.6549 64.904 31.7889C64.9098 33.6422 64.9069 35.4955 64.9098 37.3488C64.9098 37.4742 64.8836 37.517 64.7468 37.5141C64.1352 37.5056 63.5236 37.5084 62.9121 37.5141C62.7869 37.5141 62.7636 37.4771 62.7636 37.363C62.7665 32.3535 62.7665 27.3468 62.7636 22.3373C62.7636 22.2289 62.7869 22.1919 62.9063 22.1919C64.508 22.1947 66.1097 22.189 67.7113 22.1976C68.9403 22.2033 70.0673 22.5368 71.0225 23.3181C72.001 24.1193 72.5572 25.1542 72.6912 26.3945C72.8309 27.6832 72.5281 28.8636 71.6981 29.8929C71.1739 30.543 70.5012 30.9963 69.7149 31.2843C69.5926 31.3299 69.5635 31.3556 69.6392 31.4782C70.8594 33.4512 72.0738 35.4271 73.2881 37.4001C73.3056 37.4343 73.3231 37.4628 73.3522 37.5141ZM64.9098 26.9248C64.9098 27.7716 64.9128 28.6156 64.9069 29.4624C64.9069 29.5935 64.9448 29.6163 65.07 29.6163C65.8854 29.6106 66.7008 29.6135 67.5162 29.6135C67.7871 29.6135 68.0579 29.5935 68.3258 29.5394C70.3847 29.1231 70.9788 27.2156 70.3294 25.8015C69.8605 24.7836 68.9694 24.3274 67.8773 24.2675C66.9396 24.2162 65.9961 24.2561 65.0555 24.2504C64.9419 24.2504 64.9098 24.2789 64.9128 24.3901C64.9128 25.2341 64.9098 26.0809 64.9098 26.9248Z" fill="#818592"/>
<path d="M111.397 37.5139C110.596 37.5139 109.825 37.5111 109.053 37.5168C108.963 37.5168 108.939 37.4626 108.907 37.4056C108.299 36.3649 107.69 35.3242 107.079 34.2807C106.586 33.4424 106.094 32.6013 105.608 31.7602C105.553 31.6633 105.494 31.6319 105.381 31.6319C104.624 31.6376 103.866 31.6405 103.109 31.6319C102.964 31.6291 102.94 31.6747 102.94 31.8059C102.946 33.6591 102.943 35.5124 102.946 37.3657C102.946 37.4968 102.908 37.5196 102.786 37.5196C102.174 37.5139 101.563 37.5139 100.951 37.5196C100.844 37.5196 100.814 37.494 100.814 37.3885C100.817 32.3704 100.817 27.3523 100.814 22.3342C100.814 22.2316 100.835 22.2002 100.948 22.2002C102.55 22.2031 104.152 22.1945 105.753 22.2059C107.064 22.2145 108.246 22.588 109.228 23.469C110.084 24.236 110.582 25.194 110.722 26.3202C110.893 27.7002 110.559 28.949 109.635 30.0239C109.129 30.6141 108.488 31.0246 107.754 31.2955C107.626 31.344 107.609 31.3725 107.681 31.4922C108.887 33.4396 110.087 35.3898 111.287 37.3429C111.322 37.3885 111.354 37.4398 111.397 37.5139ZM102.949 26.9275C102.949 27.7686 102.952 28.6097 102.946 29.4508C102.946 29.5933 102.99 29.619 103.124 29.6162C103.954 29.6104 104.784 29.6133 105.614 29.6133C105.984 29.6133 106.348 29.5648 106.703 29.4565C108.613 28.8748 109.012 26.9075 108.281 25.6188C107.772 24.7207 106.924 24.3187 105.917 24.2702C104.979 24.2246 104.035 24.2588 103.092 24.2531C102.975 24.2531 102.949 24.2844 102.949 24.3928C102.949 25.2339 102.949 26.0807 102.949 26.9275Z" fill="#818592"/>
<path d="M35.0841 37.497C35.0346 37.5255 34.9909 37.5141 34.9501 37.5141C34.2658 37.5141 33.5814 37.5113 32.8971 37.517C32.7864 37.517 32.7398 37.4799 32.699 37.3829C32.2797 36.385 31.8516 35.3871 31.4322 34.3892C31.3915 34.2894 31.3419 34.2552 31.2313 34.2552C29.0967 34.258 26.9591 34.258 24.8245 34.2552C24.7138 34.2552 24.6672 34.2866 24.6265 34.3864C24.2071 35.3843 23.779 36.3822 23.3597 37.3801C23.316 37.4856 23.2607 37.517 23.1471 37.5141C22.419 37.5084 21.691 37.5113 20.9426 37.5113C21.0183 37.3345 21.0911 37.172 21.1639 37.0094C23.3713 32.0256 25.5787 27.0388 27.7862 22.0493C27.8269 21.9609 27.8677 21.9124 27.9755 21.921C28.0803 21.9324 28.1648 21.9096 28.2259 22.0464C30.4945 27.1643 32.7689 32.2765 35.0404 37.3915C35.055 37.4286 35.0695 37.4628 35.0841 37.497ZM30.5178 32.2337C29.6849 30.2692 28.8608 28.3247 28.0279 26.3574C27.1921 28.3276 26.3679 30.2778 25.538 32.2337C27.2037 32.2337 28.8491 32.2337 30.5178 32.2337Z" fill="#818592"/>
<path d="M50.4744 29.8615C50.4744 27.361 50.4744 24.8633 50.4715 22.3628C50.4715 22.2203 50.5123 22.1946 50.6492 22.1946C53.5118 22.1975 56.3774 22.2003 59.2401 22.1946C59.3973 22.1946 59.4265 22.2402 59.4235 22.3828C59.4148 22.9331 59.4206 23.4862 59.4206 24.0365C59.4206 24.2446 59.4468 24.2218 59.2372 24.2218C57.088 24.2218 54.9359 24.2247 52.7867 24.219C52.644 24.219 52.6003 24.2446 52.6003 24.3957C52.6061 25.7843 52.6061 27.1699 52.6003 28.5585C52.6003 28.6839 52.6294 28.7153 52.7605 28.7153C54.3185 28.7096 55.8765 28.7124 57.4345 28.7096C57.5539 28.7096 57.5889 28.7381 57.5889 28.8578C57.5831 29.4281 57.5831 29.9983 57.5889 30.5685C57.5889 30.6883 57.5568 30.7168 57.4374 30.7168C55.8853 30.714 54.3302 30.7168 52.778 30.7111C52.6353 30.7111 52.6032 30.7453 52.6032 30.8822C52.6091 32.3705 52.6091 33.856 52.6032 35.3443C52.6032 35.4726 52.6353 35.4982 52.7634 35.4982C54.9272 35.4954 57.0938 35.4954 59.2576 35.4925C59.3857 35.4925 59.4265 35.5182 59.4265 35.6522C59.4177 36.231 59.4206 36.8126 59.4265 37.3914C59.4265 37.4912 59.4003 37.5197 59.2983 37.5197C56.4007 37.5169 53.5031 37.5169 50.6055 37.5197C50.4628 37.5197 50.4803 37.4513 50.4803 37.3629C50.4744 34.8624 50.4744 32.3619 50.4744 29.8615Z" fill="#818592"/>
<path d="M34.6374 22.2117C34.6811 22.1861 34.7306 22.2003 34.7772 22.2003C35.4761 22.2003 36.1751 22.2032 36.874 22.1975C36.9788 22.1975 37.0341 22.226 37.0837 22.3229C38.1437 24.4014 39.2066 26.4771 40.2725 28.5528C40.5084 29.0118 40.7413 29.468 40.9889 29.9441C41.0588 29.8158 41.1199 29.7046 41.1782 29.5877C42.3052 27.398 43.4322 25.2083 44.5592 23.0215C44.6844 22.7763 44.8126 22.5311 44.9378 22.2859C44.964 22.2374 44.9844 22.2003 45.0514 22.2003C45.8144 22.2032 46.5744 22.2003 47.3607 22.2003C47.253 22.4056 47.154 22.5995 47.052 22.7877C45.4067 25.8584 43.7642 28.9263 42.1188 31.9941C42.0751 32.074 42.0635 32.1538 42.0635 32.2393C42.0635 33.9415 42.0635 35.6408 42.0664 37.343C42.0664 37.4741 42.0431 37.5197 41.8975 37.5169C41.2947 37.5083 40.6948 37.5083 40.0919 37.5169C39.9667 37.5169 39.9289 37.4941 39.9318 37.3629C39.9376 35.6665 39.9347 33.97 39.9376 32.2736C39.9376 32.1738 39.9143 32.0911 39.8677 32.0027C38.1349 28.7695 36.4022 25.5362 34.6724 22.303C34.6549 22.2773 34.6287 22.2517 34.6374 22.2117Z" fill="#818592"/>
</svg>
