<svg width="46" height="46" viewBox="0 0 46 46" fill="none" xmlns="http://www.w3.org/2000/svg">
<path fill-rule="evenodd" clip-rule="evenodd" d="M-1.66293e-07 43.5L-9.64501e-07 31.5L45 31.5L45 23L6 23L6 12.5L35.5 12.5L35.5 3.5L14.9585 3.5C14.7205 4.91885 13.4865 6 12 6C10.3431 6 9 4.65685 9 3C9 1.34315 10.3431 -2.97103e-07 12 -3.44696e-07C13.4865 -3.87395e-07 14.7205 1.08115 14.9585 2.5L36.5 2.5L36.5 13.5L7 13.5L7 22L46 22L46 32.5L0.999999 32.5L1 42.5L14 42.5L14 43L14 43.5L-1.66293e-07 43.5ZM14 43C14 41.3431 15.3431 40 17 40C18.6569 40 20 41.3431 20 43C20 44.6569 18.6569 46 17 46C15.3431 46 14 44.6569 14 43ZM14 2.99802C13.9989 1.89436 13.1039 1 12 1C10.8954 1 10 1.89543 10 3C10 4.10457 10.8954 5 12 5C13.1039 5 13.9989 4.10564 14 3.00198C14 3.00132 14 3.00066 14 3C14 2.99934 14 2.99868 14 2.99802ZM19 43C19 41.8954 18.1046 41 17 41C15.8954 41 15 41.8954 15 43C15 44.1046 15.8954 45 17 45C18.1046 45 19 44.1046 19 43Z" fill="#1F2432"/>
</svg>
