<svg width="120" height="121" viewBox="0 0 120 121" fill="none" xmlns="http://www.w3.org/2000/svg">
<path d="M60.0092 18.4629C38.6071 18.467 19.3371 25.7668 17.1348 35.5499C15.6707 42.0577 22.4567 48.7335 32.8279 52.6396C44.9593 41.6183 58.6801 29.958 76.5797 21.9489C60.2626 32.4482 48.2263 43.9845 38.4212 54.5334C41.7185 55.3956 45.3215 56.1848 49.1381 56.6228C54.6487 48.1151 60.7833 37.5291 78.9032 22.121C65.7402 37.9505 59.6001 47.3507 54.2837 57.2867C73.876 59.04 96.6733 56.5842 102.104 39.3816C104.45 28.9443 87.51 19.6474 64.3119 18.5896C62.8788 18.5146 61.4442 18.4724 60.0092 18.4629ZM59.2338 20.0551C67.9191 19.9545 74.7286 20.9159 74.7286 20.9159C57.8895 26.943 46.0253 33.112 30.3969 41.9626C30.5484 42.1142 18.0645 40.1487 27.0391 29.8257C33.8127 22.0329 48.0679 20.1845 59.2338 20.0551ZM81.2281 22.9392C81.2281 22.9392 92.6254 24.3826 95.4324 34.4742C98.5203 45.5864 69.2496 50.042 67.2828 48.3754C72.6984 35.2854 74.2975 35.1739 81.2281 22.9392Z" fill="#818592"/>
<path d="M17.6817 77.4629C16.6259 77.4629 15.736 77.6448 14.9892 78.0138C14.2423 78.3828 13.4985 79.0268 12.7646 79.9002V77.7782H7.69151C6.33676 77.7771 5.51591 78.7756 5 80.2537C6.1148 80.4026 7.56253 79.8868 7.69151 82.0223V92.122H13.1545V84.8121C13.1545 83.7226 13.3375 82.9319 13.7404 82.4554C14.1423 81.9768 14.6752 81.7473 15.3011 81.7473C15.6584 81.7481 16.0061 81.8665 16.2938 82.0855C16.5814 82.3044 16.7941 82.6125 16.9008 82.965C16.9728 83.1903 17.0178 83.5924 17.0178 84.2229V92.122H22.4808V84.7335C22.4808 83.6978 22.6728 82.9619 23.0667 82.4936C23.4596 82.0254 23.9835 81.7866 24.6264 81.7866C25.1723 81.7866 25.6263 82.0378 25.9932 82.5329C26.2431 82.8482 26.3831 83.2999 26.3831 83.948V92.122H31.8461V83.1231C31.8461 81.1778 31.4162 79.7534 30.5584 78.8387C29.6995 77.9249 28.4977 77.4639 26.969 77.4639C25.9312 77.4639 25.0604 77.6365 24.3535 77.9745C23.6476 78.3125 22.8708 78.9637 22.0129 79.9002C21.593 79.0981 21.0351 78.4976 20.3732 78.0924C19.7123 77.6872 18.8175 77.4639 17.6817 77.4639V77.4629ZM63.6873 77.621C62.5545 77.5394 61.5377 78.1162 61.4237 78.9172C61.3088 79.7193 62.1246 80.447 63.2574 80.5297C64.3902 80.6103 65.407 79.9943 65.521 79.1932C65.636 78.3911 64.8201 77.7017 63.6873 77.621ZM48.0002 77.7389C46.8634 78.0035 46.9784 78.5813 46.5954 79.0351C47.2183 79.2139 47.9752 79.0247 48.0002 80.6072V92.122H51.9805V87.1316C51.9805 86.1806 52.1104 85.5325 52.4104 85.1666C52.7093 84.7997 53.1003 84.6157 53.5802 84.6157C54.0161 84.6157 54.355 84.7377 54.595 85.0085C54.8349 85.2803 54.9849 85.73 54.9849 86.3843V92.122H58.9652V85.5201C58.9652 84.1506 58.6502 83.1159 58.0294 82.4544C57.4075 81.7928 56.5726 81.4724 55.4928 81.4724C54.764 81.4724 54.1131 81.583 53.5802 81.8259C53.0473 82.0678 52.5204 82.4812 51.9805 83.0435V77.7389H48.0002ZM88.2699 77.7389C87.326 77.7595 87.2171 78.3549 86.9041 78.7994C87.626 78.7994 88.0299 79.2914 88.2699 80.0181V82.7293C87.884 82.319 87.4186 81.9977 86.9041 81.7866C86.3697 81.571 85.8 81.4643 85.2264 81.4724C83.9586 81.4724 82.9268 81.9303 82.105 82.8471C81.2821 83.765 80.8562 85.0881 80.8562 86.8163C80.8562 88.3627 81.2431 89.6661 81.988 90.7462C82.7329 91.8274 83.8157 92.3587 85.2274 92.3587C85.9293 92.3587 86.5672 92.2275 87.1391 91.9256C87.568 91.6962 88.0229 91.2445 88.5438 90.5891V92.122H92.2891V77.7389H88.2699ZM39.8457 81.4724C39.1038 81.4724 38.4149 81.5179 37.777 81.6295C37.1402 81.7411 36.6193 81.8983 36.2553 82.1008C35.7484 82.382 35.3555 82.7396 35.0855 83.1231C34.8156 83.5056 34.6426 84.0265 34.4996 84.6943L38.284 85.087C38.4409 84.6353 38.6549 84.3077 38.9088 84.1444C39.2338 83.9345 39.7017 83.8301 40.3526 83.8301C40.8595 83.8301 41.2044 83.948 41.4064 84.1444C41.6073 84.3408 41.7183 84.6746 41.7183 85.1666C41.2244 85.363 40.7555 85.517 40.3136 85.638C39.8717 85.7589 38.9148 85.9656 37.4261 86.2664C36.1833 86.5145 35.3125 86.8949 34.8506 87.4065C34.3887 87.9172 34.1877 88.5787 34.1877 89.3705C34.1877 90.216 34.4826 90.9168 35.1235 91.4936C35.7634 92.0693 36.6972 92.3577 37.933 92.3577C38.8628 92.3577 39.6887 92.213 40.3916 91.9256C40.9706 91.6743 41.4998 91.3144 41.9523 90.8641C41.9983 91.1659 42.0243 91.3912 42.0693 91.5328C42.1153 91.6734 42.2322 91.8533 42.3812 92.122H46.0885C45.9191 91.7854 45.7883 91.4295 45.6986 91.0615C45.6366 90.7824 45.6206 90.4124 45.6206 89.9214V85.3237C45.6206 84.8317 45.5036 84.2922 45.3087 83.7516C45.1127 83.211 44.8658 82.7882 44.5278 82.4936C44.0469 82.0678 43.416 81.8032 42.6941 81.6688C41.9723 81.5344 41.0354 81.4724 39.8447 81.4724H39.8457ZM75.4712 81.4724C74.6583 81.4724 73.9695 81.6068 73.4036 81.9045C72.8377 82.2021 72.2778 82.7035 71.7249 83.3981V81.7081H68.0185C67.2437 81.7287 67.1187 82.3179 66.9257 82.69C67.4756 82.7551 67.9466 82.9619 68.0185 83.8684V92.122H71.9978V87.1316C71.9978 86.1806 72.1278 85.5325 72.4277 85.1666C72.7277 84.7997 73.1176 84.6157 73.5975 84.6157C74.0345 84.6157 74.3724 84.7377 74.6133 85.0085C74.8533 85.2803 75.0033 85.73 75.0033 86.3843V92.122H78.9826V85.5201C78.9826 84.1454 78.6676 83.1128 78.0467 82.4544C77.4258 81.7959 76.57 81.4724 75.4712 81.4724ZM100.992 81.4724C100.432 81.4724 99.9667 81.6264 99.5868 81.9045C99.2059 82.1835 98.812 82.658 98.455 83.3981V81.7081H94.7477C93.8478 81.7101 93.9478 82.2662 93.8498 82.7293C94.2318 82.9081 94.7077 82.8502 94.7477 83.8301V92.122H98.727V88.6242C98.727 86.9538 98.9429 85.8147 99.3519 85.2059C99.6388 84.7728 100.042 84.5764 100.562 84.5764C100.835 84.5764 101.226 84.655 101.693 84.8514L102.903 82.0223C102.207 81.6553 101.576 81.4724 100.992 81.4724ZM108.756 81.4724C108.015 81.4724 107.326 81.5179 106.689 81.6295C106.051 81.7411 105.531 81.8983 105.167 82.1008C104.659 82.382 104.266 82.7396 103.996 83.1231C103.726 83.5056 103.553 84.0265 103.41 84.6943L107.195 85.087C107.351 84.6353 107.565 84.3077 107.819 84.1444C108.145 83.9345 108.613 83.8301 109.263 83.8301C109.771 83.8301 110.116 83.948 110.317 84.1444C110.519 84.3408 110.629 84.6746 110.629 85.1666C110.135 85.363 109.667 85.517 109.224 85.638C108.782 85.7589 107.826 85.9656 106.337 86.2664C105.095 86.5145 104.223 86.8949 103.762 87.4065C103.3 87.9172 103.098 88.5787 103.098 89.3705C103.098 90.216 103.394 90.9168 104.035 91.4936C104.675 92.0693 105.609 92.3577 106.844 92.3577C107.774 92.3577 108.6 92.213 109.302 91.9256C109.881 91.6744 110.411 91.3145 110.864 90.8641C110.909 91.1659 110.935 91.3912 110.981 91.5328C111.026 91.6734 111.143 91.8533 111.293 92.122H115C114.791 91.69 114.671 91.3396 114.61 91.0615C114.549 90.7835 114.531 90.4124 114.531 89.9214V85.3237C114.531 84.8317 114.414 84.2922 114.219 83.7516C114.024 83.211 113.777 82.7882 113.439 82.4936C112.957 82.0678 112.326 81.8032 111.605 81.6688C110.883 81.5344 109.946 81.4724 108.756 81.4724ZM61.5017 81.7081V92.122H65.482V81.7081H61.5017ZM86.4752 84.4586C87.0021 84.4586 87.418 84.6446 87.763 85.0478C88.1079 85.4509 88.3089 86.0762 88.3089 86.8949C88.3089 87.7993 88.1399 88.4609 87.8019 88.8598C87.464 89.2599 87.0221 89.449 86.5142 89.449C86.0393 89.449 85.6263 89.2568 85.3044 88.8598C84.9825 88.464 84.8365 87.8262 84.8365 86.9734C84.8365 86.0638 84.9925 85.4344 85.3044 85.0488C85.6163 84.6622 86.0143 84.4596 86.4752 84.4596V84.4586ZM41.7183 87.1709V87.8386C41.7183 88.3368 41.6433 88.7461 41.4844 89.0573C41.3244 89.3674 41.0444 89.6258 40.6645 89.8428C40.2846 90.0599 39.8977 90.1571 39.4547 90.1571C39.0328 90.1571 38.6979 90.0434 38.4799 89.8428C38.262 89.6433 38.167 89.4108 38.167 89.0965C38.167 88.8206 38.258 88.5653 38.4799 88.3492C38.6939 88.1394 39.1948 87.9368 40.0016 87.7208C40.5935 87.5699 41.1714 87.3673 41.7183 87.1709ZM110.629 87.1709V87.8386C110.629 88.3368 110.555 88.7461 110.395 89.0573C110.235 89.3674 109.956 89.6258 109.575 89.8428C109.195 90.0599 108.808 90.1571 108.365 90.1571C107.943 90.1571 107.608 90.0434 107.39 89.8428C107.172 89.6433 107.078 89.4108 107.078 89.0965C107.078 88.8206 107.168 88.5653 107.39 88.3492C107.605 88.1394 108.106 87.9368 108.912 87.7208C109.504 87.5699 110.083 87.3673 110.629 87.1709Z" fill="#818592"/>
</svg>
