<svg width="120" height="120" viewBox="0 0 120 120" fill="none" xmlns="http://www.w3.org/2000/svg">
<path fill-rule="evenodd" clip-rule="evenodd" d="M88.2867 88.2867C80.7314 95.8419 70.6853 100.003 60.0011 100.003C49.3165 100.003 39.2713 95.8415 31.716 88.2867C24.1608 80.731 20 70.6857 20 60.0011C20 37.9443 37.9443 20 60.0011 20C70.6857 20 80.7314 24.1608 88.2867 31.716C95.8419 39.2713 100.003 49.3165 100.003 60.0011C100.003 70.6861 95.8419 80.731 88.2867 88.2867ZM32.6934 32.6945C25.3994 39.9884 21.3827 49.6861 21.3827 60.0008C21.3827 70.3159 25.399 80.014 32.6929 87.3075C39.9869 94.601 49.6841 98.6181 59.9992 98.6181C81.2932 98.6181 98.6162 81.2947 98.6162 60.0008C98.6162 49.6861 94.5999 39.9884 87.306 32.6945C80.0124 25.4009 70.3148 21.3839 59.9997 21.3839C49.685 21.3839 39.9873 25.4005 32.6934 32.6945Z" fill="#818592"/>
<path fill-rule="evenodd" clip-rule="evenodd" d="M22.9756 60.0013C22.9756 39.5532 39.5528 22.9756 60.0013 22.9756C80.4498 22.9756 97.027 39.5532 97.027 60.0013C97.027 80.4498 80.4498 97.027 60.0013 97.027C39.5532 97.027 22.9756 80.4498 22.9756 60.0013ZM36.3507 60.0016C36.3507 73.0634 46.9399 83.6526 60.0017 83.6526C73.063 83.6526 83.6526 73.0634 83.6526 60.0016C83.6526 46.9399 73.063 36.3507 60.0017 36.3507C46.9399 36.3507 36.3507 46.9399 36.3507 60.0016Z" fill="#818592"/>
<path fill-rule="evenodd" clip-rule="evenodd" d="M37.8711 60.0002H60.0006V37.8711C47.7791 37.8711 37.8711 47.7787 37.8711 60.0002ZM60.0006 60.0002V82.1297C72.2216 82.1297 82.1297 72.2216 82.1297 60.0002H60.0006Z" fill="#818592"/>
<path fill-rule="evenodd" clip-rule="evenodd" d="M39.485 37.1473C40.6229 36.4417 41.8348 36.6718 42.6187 37.4334C43.8237 38.6046 43.6462 39.9585 42.5006 41.3239L37.4855 47.3004L30.0098 41.0276L34.7649 35.3603C35.7493 34.1873 37.1254 33.2504 38.4331 34.3477C38.457 34.3677 38.4801 34.3869 38.5024 34.4056C38.8585 34.7023 39.0372 34.8512 39.4983 35.6921C39.6137 36.0094 39.7023 36.5841 39.485 37.1473ZM63.8057 27.9359L61.2382 34.7406H59.1069L56.5395 27.9359V34.7406H54.5882V24.9951H57.5196L60.1724 31.9363L60.1585 31.9726H60.1863L60.1724 31.9363L62.8251 24.9951H65.7569V34.7406H63.8057V27.9359ZM83.797 43.9961L87.4712 38.7949L85.8535 36.7975L80.0019 39.3094L83.8312 34.3006L82.323 32.4387L76.2093 40.3032L77.9959 42.4922L83.7722 40.1154L83.7923 40.1411L80.2666 45.2965L82.0365 47.4996L91.0008 43.1541L89.4925 41.2923L83.797 43.9961ZM37.3659 36.7873C36.8852 36.3837 36.1373 36.3678 35.8063 36.7621L32.9498 40.166L34.7172 41.6494L37.5412 38.2836C37.8961 37.8602 37.8949 37.2312 37.3659 36.7873ZM37.8538 44.2806L40.8309 40.7321C41.2265 40.2609 41.1692 39.5271 40.5927 39.0426C40.0834 38.615 39.3274 38.7326 38.9887 39.1367L35.9868 42.7138L37.8538 44.2806Z" fill="white"/>
</svg>
