<svg width="120" height="120" viewBox="0 0 120 120" fill="none" xmlns="http://www.w3.org/2000/svg">
<path d="M34.6455 39.5203C36.2803 36.7433 37.9151 33.9671 39.549 31.1901C41.6095 27.6879 43.6699 24.1857 45.7313 20.6836C46.0133 20.2045 46.3577 19.7701 46.7182 19.3454C47.3688 18.5791 48.2701 18.4083 49.2053 18.3164C49.4685 18.291 49.7335 18.2787 49.9986 18.2787C57.0625 18.2778 64.1264 18.2787 71.1903 18.2787C71.4982 18.2787 71.8061 18.2787 72.1139 18.2787C70.4934 18.5125 68.8898 18.7972 67.3014 19.1632C65.7014 19.5319 64.1237 19.9821 62.5683 20.5023C61.0139 21.0225 59.4835 21.6049 57.9772 22.2494C56.4708 22.894 54.994 23.5946 53.5412 24.346C52.0974 25.0921 50.6866 25.8952 49.3043 26.7447C47.9122 27.5994 46.5541 28.505 45.2343 29.4639C43.9136 30.4238 42.633 31.4309 41.398 32.4949C40.163 33.5599 38.9779 34.6747 37.85 35.8491C36.7247 37.0218 35.6699 38.2505 34.6455 39.5203Z" fill="#818592"/>
<path d="M73.2072 18.9209C73.7649 19.8527 74.328 20.7819 74.8795 21.7172C78.0099 27.0296 81.1367 32.3437 84.2644 37.6578C84.3082 37.7331 84.3483 37.8102 84.3956 37.8838C85.379 39.4225 85.2639 40.9191 84.3448 42.4675C80.8574 48.3403 77.4066 54.2333 73.9398 60.1176C73.8042 60.3479 73.6445 60.5642 73.4704 60.8261C73.3937 60.6693 73.4651 60.5817 73.4954 60.5134C74.8822 57.3309 75.7174 53.9969 76.3224 50.6007C76.9319 47.1791 77.2068 43.7268 77.2068 40.2553C77.2068 34.1872 76.4411 28.2267 74.5315 22.4327C74.1379 21.2382 73.6873 20.0646 73.1572 18.9218C73.1751 18.9218 73.1911 18.9218 73.2072 18.9209Z" fill="#818592"/>
<path d="M34.9326 41.1289C43.7589 52.4945 60.4684 60.7617 72.0369 61.9317C71.2186 61.9317 70.4004 61.9317 69.5821 61.9317C63.1241 61.9317 56.666 61.9326 50.208 61.9309C49.711 61.9309 49.2175 61.8871 48.7231 61.8363C47.7353 61.7347 46.9946 61.2522 46.4093 60.4859C45.7311 59.5978 45.2197 58.6126 44.6567 57.658C41.4442 52.216 38.2424 46.7688 35.0379 41.3233C35.0004 41.2603 34.9674 41.1937 34.9326 41.1289Z" fill="#818592"/>
<path d="M75.5449 84.901C75.5517 88.9589 72.2138 92.261 68.1237 92.2442C64.0606 92.2274 60.7565 88.95 60.752 84.9324C60.7475 80.8095 64.0144 77.5477 68.1541 77.541C72.2566 77.5343 75.5382 80.8039 75.5449 84.901ZM72.1857 85.022C72.1767 84.3154 72.0933 83.7432 71.9436 83.1778C71.5134 81.5575 70.2555 80.4915 68.4863 80.2609C67.0583 80.075 65.4637 80.8756 64.7599 82.2193C63.9288 83.8048 63.8905 85.4598 64.5493 87.1159C65.5077 89.5255 68.6316 90.3049 70.6293 88.6443C71.8062 87.6668 72.1282 86.3376 72.1857 85.022Z" fill="#818592"/>
<path d="M38.966 92.241C34.9197 92.2477 31.5886 88.9568 31.5762 84.9404C31.5627 80.8231 34.851 77.5367 38.9806 77.54C43.0764 77.5445 46.3771 80.8164 46.3715 84.8709C46.3681 88.958 43.0764 92.2332 38.966 92.241ZM43.0156 85.1005C43.0156 84.2013 42.9041 83.5463 42.6789 82.9181C42.109 81.3303 40.966 80.3987 39.2835 80.2666C37.7216 80.1434 36.44 80.7582 35.645 82.1365C34.7767 83.6403 34.7339 85.2494 35.2835 86.8663C36.2182 89.613 39.636 90.4237 41.7205 88.4003C42.7138 87.4374 42.9548 86.1821 43.0156 85.1005Z" fill="#818592"/>
<path d="M94.9042 77.9316C95.447 77.9316 95.9909 77.9428 96.5326 77.9271C96.7679 77.9204 96.8783 78.0144 96.9616 78.2216C98.4808 81.9626 100.007 85.7025 101.53 89.4424C101.807 90.121 102.077 90.8029 102.365 91.477C102.481 91.7457 102.448 91.8397 102.128 91.8341C101.196 91.8185 100.262 91.8207 99.3299 91.8341C99.0619 91.8375 98.938 91.7367 98.8502 91.487C98.5765 90.7043 98.2691 89.9328 97.9932 89.1502C97.8986 88.8825 97.7725 88.7571 97.4605 88.7605C95.7341 88.7762 94.0078 88.7739 92.2814 88.7616C91.9942 88.7594 91.8726 88.8613 91.7802 89.1278C91.4931 89.9508 91.1642 90.7581 90.8681 91.5777C90.8005 91.7647 90.7127 91.8341 90.5111 91.8319C89.5505 91.8218 88.5899 91.8207 87.6293 91.8319C87.3173 91.8353 87.2836 91.7513 87.3984 91.4725C88.7374 88.2107 90.0651 84.9433 91.3974 81.6782C91.867 80.526 92.3467 79.3771 92.805 78.2193C92.8918 77.9999 93.0021 77.9215 93.2318 77.9271C93.7882 77.9405 94.3456 77.9316 94.9019 77.9316C94.9042 77.9305 94.9042 77.9305 94.9042 77.9316ZM94.9098 80.9806C94.8557 81.0478 94.8208 81.0758 94.8073 81.1116C94.1812 82.7666 93.5584 84.4238 92.93 86.0776C92.8197 86.3699 93.0134 86.3262 93.1789 86.3273C94.2927 86.3284 95.4064 86.3161 96.5191 86.3351C96.9008 86.3419 96.8918 86.2041 96.7792 85.9197C96.501 85.2121 96.2477 84.4954 95.9785 83.7833C95.6283 82.8573 95.2724 81.9324 94.9098 80.9806Z" fill="#818592"/>
<path d="M60.7121 77.9541C60.1761 78.8029 59.693 79.5732 59.2031 80.3403C57.9227 82.3479 56.6411 84.3556 55.3517 86.3566C55.2019 86.5895 55.1332 86.8213 55.1355 87.0956C55.1433 88.5356 55.1298 89.9767 55.149 91.4167C55.1535 91.7492 55.0532 91.8422 54.7255 91.8332C53.9462 91.8108 53.1647 91.8119 52.3854 91.8321C52.0768 91.8399 51.9766 91.7559 51.98 91.4402C51.9957 90.0271 51.9822 88.6151 51.9924 87.202C51.9946 86.8728 51.9237 86.5929 51.7401 86.3084C50.0317 83.6547 48.3369 80.9919 46.6398 78.3303C46.5756 78.2296 46.4382 78.1254 46.5035 78.009C46.57 77.8903 46.7332 77.9552 46.8537 77.9552C47.8008 77.9519 48.7491 77.9709 49.695 77.9452C50.0227 77.9362 50.1939 78.0504 50.3493 78.3236C51.3381 80.0547 52.3415 81.778 53.3415 83.5035C53.5588 83.8775 53.5667 83.8786 53.7931 83.4878C54.7852 81.7746 55.7796 80.0637 56.7594 78.3438C56.9193 78.0638 57.0826 77.9317 57.435 77.9418C58.4914 77.9743 59.55 77.9541 60.7121 77.9541Z" fill="#818592"/>
<path d="M82.2099 77.9475C84.077 77.9475 85.9431 77.9565 87.8091 77.9386C88.1515 77.9352 88.2326 78.0438 88.2202 78.3596C88.1976 78.9687 88.1976 79.579 88.2179 80.187C88.228 80.5016 88.1492 80.6181 87.8046 80.6113C86.6492 80.589 85.4926 80.6181 84.3361 80.5957C83.9363 80.5878 83.791 80.6707 83.7933 81.1163C83.8147 84.5371 83.7989 87.9579 83.8147 91.3798C83.8169 91.756 83.7077 91.8478 83.3462 91.8355C82.5815 91.8087 81.8135 91.8109 81.0477 91.8344C80.7177 91.8445 80.6277 91.7482 80.6288 91.4179C80.64 88.0105 80.6333 84.6032 80.6322 81.1958C80.6322 80.6102 80.6322 80.6058 80.0443 80.6046C78.9024 80.6024 77.7594 80.5968 76.6174 80.6091C76.3044 80.6125 76.1771 80.5397 76.1974 80.1903C76.2334 79.5834 76.2267 78.9709 76.1996 78.3629C76.1861 78.0416 76.2627 77.9352 76.6073 77.9386C78.4767 77.9576 80.3439 77.9486 82.2099 77.9475Z" fill="#818592"/>
<path d="M24.9136 77.9501C26.7661 77.9501 28.6198 77.9568 30.4723 77.9434C30.7943 77.9412 30.9126 78.0173 30.8979 78.3566C30.8709 78.9792 30.8732 79.604 30.8991 80.2254C30.9126 80.549 30.7977 80.6173 30.4937 80.6128C29.3236 80.5961 28.1524 80.6207 26.9835 80.5972C26.5949 80.5893 26.4621 80.6778 26.4643 81.0955C26.4823 84.5174 26.4677 87.9381 26.4835 91.36C26.4857 91.7463 26.3776 91.8538 25.9958 91.8393C25.2447 91.8102 24.4913 91.8146 23.7402 91.8393C23.3922 91.8505 23.2965 91.7452 23.2976 91.3981C23.31 87.9493 23.2976 84.4994 23.3167 81.0507C23.319 80.6632 23.1951 80.5961 22.8471 80.6028C21.6636 80.6218 20.4789 80.6028 19.2953 80.6173C18.9912 80.6207 18.8752 80.5412 18.8876 80.2221C18.9113 79.5861 18.9124 78.9478 18.8899 78.3107C18.8786 78.0061 18.9912 77.9445 19.2727 77.9456C21.1523 77.9546 23.0329 77.9501 24.9136 77.9501Z" fill="#818592"/>
<path d="M17.2881 101.935C17.2322 101.935 17.1847 101.92 17.1456 101.89C17.1065 101.859 17.0869 101.823 17.0869 101.78V97.5729C17.0869 97.5255 17.1037 97.4867 17.1372 97.4565C17.1763 97.4264 17.2267 97.4113 17.2881 97.4113H19.4597C20.1472 97.4113 20.6838 97.5341 21.0694 97.7796C21.4607 98.0252 21.6563 98.3742 21.6563 98.8265C21.6563 99.141 21.5585 99.406 21.3629 99.6214C21.1673 99.8325 20.8934 99.9854 20.5412 100.08L21.757 101.728C21.7737 101.754 21.7821 101.778 21.7821 101.799C21.7821 101.838 21.7625 101.87 21.7234 101.896C21.6899 101.922 21.6508 101.935 21.606 101.935H20.8347C20.7453 101.935 20.6754 101.92 20.6251 101.89C20.5748 101.855 20.5301 101.812 20.4909 101.76L19.4177 100.229H18.2691V101.78C18.2691 101.823 18.2495 101.859 18.2104 101.89C18.1713 101.92 18.121 101.935 18.0595 101.935H17.2881ZM19.4345 99.4921C19.7699 99.4921 20.0214 99.4361 20.1891 99.3241C20.3568 99.2078 20.4406 99.0398 20.4406 98.8201C20.4406 98.6003 20.3568 98.4323 20.1891 98.316C20.0214 98.1954 19.7699 98.1351 19.4345 98.1351H18.2691V99.4921H19.4345Z" fill="#818592"/>
<path d="M22.9377 101.935C22.8818 101.935 22.8343 101.92 22.7952 101.89C22.756 101.859 22.7365 101.823 22.7365 101.78V97.5729C22.7365 97.5255 22.7532 97.4867 22.7868 97.4565C22.8259 97.4264 22.8762 97.4113 22.9377 97.4113H26.6352C26.6966 97.4113 26.7469 97.4264 26.7861 97.4565C26.8252 97.4867 26.8448 97.5255 26.8448 97.5729V98.0058C26.8448 98.0532 26.8252 98.092 26.7861 98.1221C26.7469 98.148 26.6966 98.1609 26.6352 98.1609H23.8851V99.2918H26.4507C26.5122 99.2918 26.5625 99.3069 26.6016 99.337C26.6407 99.3672 26.6603 99.406 26.6603 99.4534V99.8605C26.6603 99.9079 26.6407 99.9466 26.6016 99.9768C26.5625 100.003 26.5122 100.016 26.4507 100.016H23.8851V101.185H26.7022C26.7637 101.185 26.814 101.2 26.8531 101.23C26.8923 101.256 26.9118 101.293 26.9118 101.34V101.78C26.9118 101.827 26.8923 101.866 26.8531 101.896C26.814 101.922 26.7637 101.935 26.7022 101.935H22.9377Z" fill="#818592"/>
<path d="M30.006 101.999C29.503 101.999 29.0726 101.941 28.7149 101.825C28.3571 101.709 28.086 101.556 27.9016 101.366C27.7171 101.177 27.6193 100.97 27.6081 100.746C27.6081 100.711 27.6249 100.681 27.6584 100.655C27.692 100.625 27.7339 100.61 27.7842 100.61H28.5472C28.6087 100.61 28.659 100.621 28.6981 100.642C28.7372 100.664 28.7735 100.694 28.8071 100.733C28.863 100.879 28.9887 101.002 29.1844 101.101C29.3856 101.2 29.6595 101.25 30.006 101.25C30.3973 101.25 30.6907 101.2 30.8864 101.101C31.0876 100.998 31.1882 100.858 31.1882 100.681C31.1882 100.565 31.1379 100.468 31.0373 100.39C30.9367 100.313 30.783 100.246 30.5762 100.19C30.3749 100.13 30.0731 100.059 29.6707 99.9768C29.0111 99.8562 28.5276 99.6968 28.2202 99.4986C27.9128 99.3004 27.759 99.0161 27.759 98.6456C27.759 98.3957 27.8485 98.1738 28.0273 97.98C28.2062 97.7818 28.4605 97.6267 28.7903 97.5147C29.1257 97.4027 29.5142 97.3467 29.9557 97.3467C30.4197 97.3467 30.8193 97.4091 31.1547 97.5341C31.4956 97.659 31.7528 97.8163 31.926 98.0058C32.1049 98.1911 32.1999 98.3763 32.2111 98.5616C32.2111 98.596 32.1943 98.6284 32.1608 98.6585C32.1273 98.6844 32.0853 98.6973 32.035 98.6973H31.2385C31.1155 98.6973 31.0317 98.6585 30.987 98.581C30.959 98.4431 30.85 98.3289 30.66 98.2385C30.47 98.1437 30.2352 98.0963 29.9557 98.0963C29.6483 98.0963 29.4052 98.1415 29.2263 98.232C29.053 98.3225 28.9664 98.4539 28.9664 98.6262C28.9664 98.7425 29.0111 98.8394 29.1005 98.917C29.19 98.9945 29.3297 99.0635 29.5197 99.1238C29.7098 99.1798 29.9865 99.2444 30.3498 99.3177C30.8473 99.4038 31.2413 99.5007 31.532 99.6085C31.8282 99.7162 32.0462 99.8519 32.1859 100.016C32.3257 100.179 32.3955 100.388 32.3955 100.642C32.3955 100.922 32.2949 101.166 32.0937 101.373C31.8981 101.575 31.6186 101.73 31.2553 101.838C30.8976 101.946 30.4811 101.999 30.006 101.999Z" fill="#818592"/>
<path d="M33.549 101.935C33.4931 101.935 33.4456 101.92 33.4065 101.89C33.3674 101.859 33.3478 101.823 33.3478 101.78V97.5729C33.3478 97.5255 33.3646 97.4867 33.3981 97.4565C33.4373 97.4264 33.4876 97.4113 33.549 97.4113H37.2465C37.308 97.4113 37.3583 97.4264 37.3974 97.4565C37.4365 97.4867 37.4561 97.5255 37.4561 97.5729V98.0058C37.4561 98.0532 37.4365 98.092 37.3974 98.1221C37.3583 98.148 37.308 98.1609 37.2465 98.1609H34.4965V99.2918H37.0621C37.1235 99.2918 37.1738 99.3069 37.213 99.337C37.2521 99.3672 37.2717 99.406 37.2717 99.4534V99.8605C37.2717 99.9079 37.2521 99.9466 37.213 99.9768C37.1738 100.003 37.1235 100.016 37.0621 100.016H34.4965V101.185H37.3136C37.3751 101.185 37.4254 101.2 37.4645 101.23C37.5036 101.256 37.5232 101.293 37.5232 101.34V101.78C37.5232 101.827 37.5036 101.866 37.4645 101.896C37.4254 101.922 37.3751 101.935 37.3136 101.935H33.549Z" fill="#818592"/>
<path d="M38.2111 101.935C38.1608 101.935 38.1189 101.922 38.0853 101.896C38.0518 101.87 38.035 101.838 38.035 101.799L38.0518 101.741L40.064 97.5729C40.1199 97.4652 40.2205 97.4113 40.3658 97.4113H41.2881C41.4334 97.4113 41.5341 97.4652 41.59 97.5729L43.6022 101.741L43.6189 101.799C43.6189 101.838 43.5994 101.87 43.5603 101.896C43.5267 101.922 43.4876 101.935 43.4429 101.935H42.6967C42.5793 101.935 42.4982 101.894 42.4535 101.812L42.0679 101.03H39.5861L39.2004 101.812C39.1557 101.894 39.0747 101.935 38.9573 101.935H38.2111ZM39.8796 100.281H41.7744L40.827 98.2902L39.8796 100.281Z" fill="#818592"/>
<path d="M44.5943 101.935C44.5384 101.935 44.4909 101.92 44.4518 101.89C44.4127 101.859 44.3931 101.823 44.3931 101.78V97.5729C44.3931 97.5255 44.4099 97.4867 44.4434 97.4565C44.4825 97.4264 44.5329 97.4113 44.5943 97.4113H46.7659C47.4534 97.4113 47.99 97.5341 48.3756 97.7796C48.7669 98.0252 48.9625 98.3742 48.9625 98.8265C48.9625 99.141 48.8647 99.406 48.6691 99.6214C48.4735 99.8325 48.1996 99.9854 47.8474 100.08L49.0632 101.728C49.0799 101.754 49.0883 101.778 49.0883 101.799C49.0883 101.838 49.0687 101.87 49.0296 101.896C48.9961 101.922 48.957 101.935 48.9122 101.935H48.1409C48.0515 101.935 47.9816 101.92 47.9313 101.89C47.881 101.855 47.8363 101.812 47.7971 101.76L46.7239 100.229H45.5753V101.78C45.5753 101.823 45.5557 101.859 45.5166 101.89C45.4775 101.92 45.4272 101.935 45.3657 101.935H44.5943ZM46.7407 99.4921C47.0761 99.4921 47.3276 99.4361 47.4953 99.3241C47.663 99.2078 47.7468 99.0398 47.7468 98.8201C47.7468 98.6003 47.663 98.4323 47.4953 98.316C47.3276 98.1954 47.0761 98.1351 46.7407 98.1351H45.5753V99.4921H46.7407Z" fill="#818592"/>
<path d="M52.2901 101.999C51.5187 101.999 50.9206 101.849 50.4958 101.547C50.0766 101.241 49.853 100.808 49.8251 100.248C49.8195 100.132 49.8167 99.9423 49.8167 99.6795C49.8167 99.4124 49.8195 99.2186 49.8251 99.0979C49.853 98.5465 50.0794 98.1178 50.5042 97.812C50.929 97.5018 51.5243 97.3467 52.2901 97.3467C52.7875 97.3467 53.2207 97.4135 53.5896 97.547C53.9585 97.6763 54.2436 97.855 54.4448 98.0834C54.6516 98.3117 54.7606 98.568 54.7718 98.8524V98.8653C54.7718 98.8998 54.7522 98.9299 54.7131 98.9558C54.6796 98.9773 54.6404 98.9881 54.5957 98.9881H53.7825C53.7154 98.9881 53.6651 98.9773 53.6315 98.9558C53.598 98.9299 53.5701 98.8868 53.5477 98.8265C53.4639 98.5594 53.3185 98.372 53.1117 98.2643C52.9049 98.1523 52.631 98.0963 52.2901 98.0963C51.4908 98.0963 51.0743 98.4409 51.0408 99.1302C51.0352 99.2466 51.0324 99.4254 51.0324 99.6666C51.0324 99.9079 51.0352 100.091 51.0408 100.216C51.0743 100.905 51.4908 101.25 52.2901 101.25C52.6254 101.25 52.8965 101.196 53.1033 101.088C53.3157 100.976 53.4639 100.787 53.5477 100.52C53.5701 100.459 53.598 100.418 53.6315 100.397C53.6651 100.371 53.7154 100.358 53.7825 100.358H54.5957C54.646 100.358 54.688 100.371 54.7215 100.397C54.7606 100.423 54.7774 100.455 54.7718 100.494C54.7606 100.778 54.6516 101.034 54.4448 101.263C54.2436 101.491 53.9585 101.672 53.5896 101.806C53.2207 101.935 52.7875 101.999 52.2901 101.999Z" fill="#818592"/>
<path d="M55.9671 101.935C55.9113 101.935 55.8637 101.92 55.8246 101.89C55.7855 101.859 55.7659 101.823 55.7659 101.78V97.5729C55.7659 97.5255 55.7827 97.4867 55.8162 97.4565C55.8554 97.4264 55.9057 97.4113 55.9671 97.4113H56.7385C56.8 97.4113 56.8503 97.4264 56.8894 97.4565C56.9285 97.4867 56.9481 97.5255 56.9481 97.5729V99.2336H59.3963V97.5729C59.3963 97.5255 59.4159 97.4867 59.455 97.4565C59.4941 97.4264 59.5416 97.4113 59.5975 97.4113H60.3773C60.4388 97.4113 60.4863 97.4264 60.5198 97.4565C60.5589 97.4867 60.5785 97.5255 60.5785 97.5729V101.78C60.5785 101.823 60.5589 101.859 60.5198 101.89C60.4863 101.92 60.4388 101.935 60.3773 101.935H59.5975C59.5416 101.935 59.4941 101.92 59.455 101.89C59.4159 101.859 59.3963 101.823 59.3963 101.78V100.054H56.9481V101.78C56.9481 101.823 56.9285 101.859 56.8894 101.89C56.8503 101.92 56.8 101.935 56.7385 101.935H55.9671Z" fill="#818592"/>
<path d="M63.9993 101.935C63.9434 101.935 63.8959 101.92 63.8568 101.89C63.8177 101.859 63.7981 101.823 63.7981 101.78V97.5664C63.7981 97.519 63.8177 97.4824 63.8568 97.4565C63.8959 97.4264 63.9434 97.4113 63.9993 97.4113H64.8042C64.8657 97.4113 64.9132 97.4264 64.9468 97.4565C64.9859 97.4824 65.0055 97.519 65.0055 97.5664V101.78C65.0055 101.823 64.9859 101.859 64.9468 101.89C64.9132 101.92 64.8657 101.935 64.8042 101.935H63.9993Z" fill="#818592"/>
<path d="M66.513 101.935C66.4571 101.935 66.4096 101.92 66.3705 101.89C66.3313 101.859 66.3118 101.823 66.3118 101.78V97.5729C66.3118 97.5255 66.3285 97.4867 66.3621 97.4565C66.4012 97.4264 66.4515 97.4113 66.513 97.4113H67.167C67.2732 97.4113 67.3542 97.4479 67.4101 97.5212L69.808 100.39V97.5729C69.808 97.5255 69.8248 97.4867 69.8583 97.4565C69.8974 97.4264 69.9477 97.4113 70.0092 97.4113H70.7303C70.7918 97.4113 70.8421 97.4264 70.8812 97.4565C70.9203 97.4867 70.9399 97.5255 70.9399 97.5729V101.773C70.9399 101.821 70.9203 101.859 70.8812 101.89C70.8421 101.92 70.7946 101.935 70.7387 101.935H70.0763C69.9645 101.935 69.8807 101.898 69.8248 101.825L67.4353 99.0204V101.78C67.4353 101.823 67.4157 101.859 67.3766 101.89C67.343 101.92 67.2955 101.935 67.234 101.935H66.513Z" fill="#818592"/>
<path d="M74.2855 101.999C73.7824 101.999 73.352 101.941 72.9943 101.825C72.6366 101.709 72.3655 101.556 72.181 101.366C71.9966 101.177 71.8988 100.97 71.8876 100.746C71.8876 100.711 71.9043 100.681 71.9379 100.655C71.9714 100.625 72.0133 100.61 72.0636 100.61H72.8266C72.8881 100.61 72.9384 100.621 72.9775 100.642C73.0167 100.664 73.053 100.694 73.0865 100.733C73.1424 100.879 73.2682 101.002 73.4638 101.101C73.665 101.2 73.9389 101.25 74.2855 101.25C74.6767 101.25 74.9702 101.2 75.1658 101.101C75.367 100.998 75.4677 100.858 75.4677 100.681C75.4677 100.565 75.4174 100.468 75.3167 100.39C75.2161 100.313 75.0624 100.246 74.8556 100.19C74.6544 100.13 74.3525 100.059 73.9501 99.9768C73.2905 99.8562 72.807 99.6968 72.4996 99.4986C72.1922 99.3004 72.0385 99.0161 72.0385 98.6456C72.0385 98.3957 72.1279 98.1738 72.3068 97.98C72.4856 97.7818 72.74 97.6267 73.0698 97.5147C73.4051 97.4027 73.7936 97.3467 74.2352 97.3467C74.6991 97.3467 75.0987 97.4091 75.4341 97.5341C75.7751 97.659 76.0322 97.8163 76.2055 98.0058C76.3843 98.1911 76.4794 98.3763 76.4905 98.5616C76.4905 98.596 76.4738 98.6284 76.4402 98.6585C76.4067 98.6844 76.3648 98.6973 76.3145 98.6973H75.518C75.395 98.6973 75.3111 98.6585 75.2664 98.581C75.2385 98.4431 75.1295 98.3289 74.9394 98.2385C74.7494 98.1437 74.5146 98.0963 74.2352 98.0963C73.9277 98.0963 73.6846 98.1415 73.5057 98.232C73.3325 98.3225 73.2458 98.4539 73.2458 98.6262C73.2458 98.7425 73.2905 98.8394 73.38 98.917C73.4694 98.9945 73.6091 99.0635 73.7992 99.1238C73.9892 99.1798 74.2659 99.2444 74.6292 99.3177C75.1267 99.4038 75.5208 99.5007 75.8114 99.6085C76.1077 99.7162 76.3256 99.8519 76.4654 100.016C76.6051 100.179 76.675 100.388 76.675 100.642C76.675 100.922 76.5744 101.166 76.3732 101.373C76.1775 101.575 75.898 101.73 75.5347 101.838C75.177 101.946 74.7606 101.999 74.2855 101.999Z" fill="#818592"/>
<path d="M79.0542 101.935C78.9983 101.935 78.9508 101.92 78.9116 101.89C78.8725 101.859 78.8529 101.823 78.8529 101.78V98.2191H77.3018C77.2459 98.2191 77.1984 98.204 77.1593 98.1738C77.1202 98.1437 77.1006 98.1049 77.1006 98.0575V97.5729C77.1006 97.5255 77.1174 97.4867 77.1509 97.4565C77.1901 97.4264 77.2404 97.4113 77.3018 97.4113H81.5862C81.6477 97.4113 81.698 97.4264 81.7371 97.4565C81.7762 97.4867 81.7958 97.5255 81.7958 97.5729V98.0575C81.7958 98.1049 81.7762 98.1437 81.7371 98.1738C81.698 98.204 81.6477 98.2191 81.5862 98.2191H80.0435V101.78C80.0435 101.823 80.0239 101.859 79.9848 101.89C79.9513 101.92 79.9038 101.935 79.8423 101.935H79.0542Z" fill="#818592"/>
<path d="M82.8476 101.935C82.7917 101.935 82.7442 101.92 82.7051 101.89C82.6659 101.859 82.6464 101.823 82.6464 101.78V97.5664C82.6464 97.519 82.6659 97.4824 82.7051 97.4565C82.7442 97.4264 82.7917 97.4113 82.8476 97.4113H83.6525C83.714 97.4113 83.7615 97.4264 83.795 97.4565C83.8341 97.4824 83.8537 97.519 83.8537 97.5664V101.78C83.8537 101.823 83.8341 101.859 83.795 101.89C83.7615 101.92 83.714 101.935 83.6525 101.935H82.8476Z" fill="#818592"/>
<path d="M86.6524 101.935C86.5965 101.935 86.549 101.92 86.5099 101.89C86.4707 101.859 86.4512 101.823 86.4512 101.78V98.2191H84.9001C84.8442 98.2191 84.7967 98.204 84.7576 98.1738C84.7184 98.1437 84.6989 98.1049 84.6989 98.0575V97.5729C84.6989 97.5255 84.7156 97.4867 84.7492 97.4565C84.7883 97.4264 84.8386 97.4113 84.9001 97.4113H89.1845C89.2459 97.4113 89.2962 97.4264 89.3354 97.4565C89.3745 97.4867 89.3941 97.5255 89.3941 97.5729V98.0575C89.3941 98.1049 89.3745 98.1437 89.3354 98.1738C89.2962 98.204 89.2459 98.2191 89.1845 98.2191H87.6418V101.78C87.6418 101.823 87.6222 101.859 87.5831 101.89C87.5495 101.92 87.502 101.935 87.4405 101.935H86.6524Z" fill="#818592"/>
<path d="M92.5922 101.999C91.832 101.999 91.2423 101.851 90.8231 101.554C90.4039 101.256 90.1943 100.806 90.1943 100.203V97.5729C90.1943 97.5255 90.2111 97.4867 90.2446 97.4565C90.2837 97.4264 90.334 97.4113 90.3955 97.4113H91.1669C91.2284 97.4113 91.2787 97.4264 91.3178 97.4565C91.3569 97.4867 91.3765 97.5255 91.3765 97.5729V100.203C91.3765 100.543 91.4799 100.8 91.6867 100.972C91.8991 101.144 92.1981 101.23 92.5838 101.23C92.9695 101.23 93.2657 101.144 93.4725 100.972C93.685 100.8 93.7912 100.543 93.7912 100.203V97.5729C93.7912 97.5255 93.8107 97.4867 93.8498 97.4565C93.889 97.4264 93.9393 97.4113 94.0008 97.4113H94.7721C94.8336 97.4113 94.8811 97.4264 94.9146 97.4565C94.9538 97.4867 94.9733 97.5255 94.9733 97.5729V100.203C94.9733 100.806 94.7637 101.256 94.3445 101.554C93.9309 101.851 93.3468 101.999 92.5922 101.999Z" fill="#818592"/>
<path d="M97.7223 101.935C97.6664 101.935 97.6189 101.92 97.5797 101.89C97.5406 101.859 97.521 101.823 97.521 101.78V98.2191H95.9699C95.9141 98.2191 95.8665 98.204 95.8274 98.1738C95.7883 98.1437 95.7687 98.1049 95.7687 98.0575V97.5729C95.7687 97.5255 95.7855 97.4867 95.819 97.4565C95.8582 97.4264 95.9085 97.4113 95.9699 97.4113H100.254C100.316 97.4113 100.366 97.4264 100.405 97.4565C100.444 97.4867 100.464 97.5255 100.464 97.5729V98.0575C100.464 98.1049 100.444 98.1437 100.405 98.1738C100.366 98.204 100.316 98.2191 100.254 98.2191H98.7116V101.78C98.7116 101.823 98.692 101.859 98.6529 101.89C98.6194 101.92 98.5719 101.935 98.5104 101.935H97.7223Z" fill="#818592"/>
<path d="M101.516 101.935C101.46 101.935 101.412 101.92 101.373 101.89C101.334 101.859 101.314 101.823 101.314 101.78V97.5729C101.314 97.5255 101.331 97.4867 101.365 97.4565C101.404 97.4264 101.454 97.4113 101.516 97.4113H105.213C105.275 97.4113 105.325 97.4264 105.364 97.4565C105.403 97.4867 105.423 97.5255 105.423 97.5729V98.0058C105.423 98.0532 105.403 98.092 105.364 98.1221C105.325 98.148 105.275 98.1609 105.213 98.1609H102.463V99.2918H105.029C105.09 99.2918 105.14 99.3069 105.18 99.337C105.219 99.3672 105.238 99.406 105.238 99.4534V99.8605C105.238 99.9079 105.219 99.9466 105.18 99.9768C105.14 100.003 105.09 100.016 105.029 100.016H102.463V101.185H105.28C105.342 101.185 105.392 101.2 105.431 101.23C105.47 101.256 105.49 101.293 105.49 101.34V101.78C105.49 101.827 105.47 101.866 105.431 101.896C105.392 101.922 105.342 101.935 105.28 101.935H101.516Z" fill="#818592"/>
</svg>
