<svg width="120" height="120" viewBox="0 0 120 120" fill="none" xmlns="http://www.w3.org/2000/svg">
<path fill-rule="evenodd" clip-rule="evenodd" d="M20 59.9983C20 82.0881 37.9081 99.9967 59.9983 99.9967C82.089 99.9967 99.9967 82.0881 99.9967 59.9983C99.9967 37.9081 82.089 20 59.9983 20C37.9081 20 20 37.9081 20 59.9983ZM27.5356 79.4812L60.0099 66.0403L92.6225 79.2732C85.8499 90.8038 73.4854 97.8895 60.1482 97.9241C46.7769 97.9933 34.3779 90.9781 27.5356 79.4812ZM59.5597 22.2676L54.3848 56.5475L27.0513 78.6368C20.4867 67.0016 20.5564 52.7618 27.2593 41.1962C33.9277 29.6306 46.2225 22.441 59.5597 22.2676ZM93.1081 78.3965L65.4624 57.0022L60.5301 22.2703C67.0629 22.3703 73.4586 24.1598 79.0947 27.4647C84.7308 30.7696 89.4152 35.4773 92.6921 41.1297C99.3946 52.6257 99.5339 66.7617 93.1081 78.3965Z" fill="#818592"/>
</svg>
