<svg width="120" height="120" viewBox="0 0 120 120" fill="none" xmlns="http://www.w3.org/2000/svg">
<path fill-rule="evenodd" clip-rule="evenodd" d="M79.3776 89.2769C74.2598 93.9461 69.8541 96.4627 60.5728 101.338C51.9334 97.4031 46.2946 93.5245 41.4045 89.7045C34.6468 84.4361 29.7926 75.8814 29.3714 70.6348L26 20.6984C48.8395 14.7532 73.133 14.8884 94.1476 21.0977L90.7269 70.5284C90.2914 75.0052 86.292 83.7091 79.3776 89.2769ZM86.814 68.8908L89.9009 24.7498C71.8152 18.9827 50.1522 18.8971 30.1923 24.1437L33.343 68.8624C33.6711 73.5098 37.0142 80.6175 43.4228 86.064C47.2795 89.3434 54.8359 94.847 60.4166 96.9568C66.8471 93.6993 72.6919 89.6502 77.3258 85.6512C83.0712 80.4107 86.4644 73.8951 86.814 68.8908ZM76.584 84.4854C72.1425 88.3212 66.1624 92.62 60.4166 95.3643C55.2844 93.7746 47.6998 87.9145 44.0499 84.7638C37.684 79.2602 35.0963 73.501 34.7044 68.0536L31.6105 25.3671C50.6152 20.3702 71.3592 20.3702 88.5952 25.8659L85.5375 67.9825C85.0955 73.5856 82.4934 78.939 76.584 84.4854ZM33.0311 26.1969L33.6442 33.5538C51.7861 29.0128 70.7912 29.4693 86.5662 34.2454L87.2435 26.7602C70.8972 21.7414 51.0521 21.4704 33.0311 26.1969ZM78.1458 28.9273L74.0539 28.25L73.8968 30.1749L72.5641 29.975L72.8774 24.8712L74.2393 25.071L74.0966 27.0312L78.2457 27.7011L78.381 25.7409L79.7708 26.0044L79.3506 31.1227L77.9961 30.8735L78.1458 28.9273ZM58.3983 27.1953C57.8991 27.1953 57.4998 27.0601 57.2362 26.618C57.0085 26.2545 57.0085 25.071 57.2362 24.6792C57.4859 24.2232 57.9349 24.0949 58.3058 24.0949L64.1083 24.1019L64.1218 25.3564L58.6335 25.349C58.3625 25.349 58.3556 25.9551 58.6549 25.9551H62.9816C63.4882 25.9551 63.9368 26.2615 64.079 26.6608C64.2362 27.0884 64.2078 28.058 64.079 28.4573C63.9582 28.8566 63.5017 29.0774 62.9314 29.0774H57.2079L57.2005 27.794H62.2969C62.3722 27.7881 62.4425 27.754 62.4938 27.6985C62.5451 27.643 62.5735 27.5702 62.5735 27.4947C62.5735 27.4191 62.5451 27.3463 62.4938 27.2909C62.4425 27.2354 62.3722 27.2013 62.2969 27.1953H58.3983ZM55.0413 27.7052C55.0401 27.6414 55.0262 27.5784 55.0004 27.52C54.9745 27.4616 54.9373 27.409 54.8908 27.3652C54.8444 27.3214 54.7896 27.2873 54.7298 27.2649C54.67 27.2425 54.6064 27.2323 54.5425 27.2348L50.6928 27.5128L50.7709 29.4233L49.5233 29.5516L49.2593 24.5118L54.9911 24.0837C55.7325 24.027 56.1671 24.583 56.2025 25.0464C56.2452 25.5954 56.2666 26.301 55.8385 26.5934C56.1955 26.8569 56.288 27.2492 56.295 27.7982L56.3094 29.0886L55.0618 29.1383L55.0413 27.7052ZM54.2237 26.0695C54.7155 26.0411 54.6727 25.2779 54.2237 25.3211L50.5594 25.5991L50.6022 26.2977L54.2237 26.0695ZM42.2198 25.4001C43.3959 25.1222 45.8051 24.7373 47.0671 24.6443C47.6444 24.602 48.0935 24.9014 48.172 25.3504C48.3575 26.3842 48.4718 27.4533 48.3435 28.8864C48.3078 29.2996 47.9512 29.6278 47.4808 29.7277C45.8632 30.0842 44.0448 30.2767 42.6972 30.405C42.3551 30.4408 41.8136 30.1698 41.7206 29.7421C41.4854 28.7009 41.3999 27.2469 41.471 26.2489C41.4998 25.8775 41.8419 25.4857 42.2198 25.4001ZM46.7984 28.4699C46.9621 28.4346 47.0337 28.2561 47.0481 28.1278C47.1052 27.7355 47.055 26.7091 46.9621 26.3665C46.9337 26.2313 46.8198 26.1457 46.5632 26.1671C45.8646 26.2099 44.0178 26.4739 43.1058 26.6733C42.8636 26.7305 42.7707 26.8727 42.7567 27.001C42.714 27.3362 42.8134 28.2556 42.8994 28.7692C42.9208 28.8906 43.0779 28.9756 43.1988 28.9691C44.4315 28.8692 45.886 28.6698 46.7984 28.4699ZM67.0135 25.6126C66.7421 25.6051 66.5571 25.7692 66.5361 25.9119C66.4715 26.3326 66.4497 26.8741 66.4497 27.5802C66.4497 27.6727 66.6068 27.9293 66.7421 27.9507C67.9688 28.1217 70.3492 28.336 71.6465 28.4215L71.5684 29.7403C69.8643 29.6622 68.0822 29.3912 66.2363 29.2624C65.6307 29.2197 65.1886 28.892 65.1667 28.3077C65.1314 27.345 65.1886 25.8905 65.3592 25.0427C65.4735 24.5221 65.9718 24.2515 66.5357 24.2655C68.2388 24.3296 69.5933 24.4793 71.825 24.7787L71.7395 26.0909C70.6559 25.9974 68.6033 25.6767 67.0135 25.6126ZM39.118 25.9951C40.843 25.5889 41.1066 28.654 39.6665 29.0105L35.6462 30.0159L35.8386 31.9975L34.5771 32.3331L34.1281 27.1711L39.118 25.9951ZM39.0971 28.0027C39.5103 27.9102 39.4536 27.1693 39.0111 27.2618L35.3826 28.1385L35.4686 28.9017L39.0971 28.0027ZM81.7571 29.6915L81.6715 30.5184L85.6561 31.5234L85.5492 32.6785L80.2027 31.4169L80.6666 26.2196L86.0484 27.5244L85.9275 28.7362L81.9212 27.7666L81.8431 28.6437L85.8206 29.6129L85.7207 30.6393L81.7571 29.6915ZM43.1955 44.4829C42.6396 45.2243 42.1264 46.365 41.8842 47.3342C41.7982 47.6623 41.7982 47.7832 41.8559 47.997C42.383 47.7618 43.0677 47.5336 43.4665 47.4053C43.6236 47.0567 43.7087 46.6569 43.8444 46.3362C44.0578 45.8374 44.1935 45.6231 44.4148 45.274C45.0493 44.2904 46.3894 43.3208 47.38 43.3422C47.0518 43.6271 46.3675 44.3402 46.097 44.7678C45.8762 45.1244 45.6694 45.5092 45.5123 45.9085C45.377 46.2655 45.3342 46.5286 45.2984 46.821C45.8116 46.6713 46.3178 46.5644 46.6455 46.543C46.8668 46.4217 46.9379 46.186 47.0592 45.9652C47.4367 45.2596 48.1781 44.468 48.6489 44.2119C49.0264 44.005 49.5828 43.8056 49.9816 43.9339C49.554 44.2547 49.1049 44.7678 48.9055 45.0746C48.6987 45.4023 48.3635 46.0373 48.3779 46.3362C48.7275 46.365 49.2263 46.3362 49.4261 46.2864L49.4043 45.3024L59.6478 45.2949L59.6408 31.2798C51.6708 31.2798 42.9385 32.0356 33.6786 34.6233L35.589 60.9491H49.3969V55.8034C48.8409 55.3902 46.2602 55.0904 44.6709 55.7104C44.286 55.8601 43.0314 56.4021 42.4611 56.8507L40.8574 58.1201C40.7003 58.2484 40.6864 58.5264 40.6864 58.7397C40.6864 59.2102 40.1374 59.5667 39.8311 59.4667C39.5815 59.3812 39.2393 59.3315 38.9256 59.4031C38.5904 59.4737 38.2916 59.0526 38.2627 58.8113C38.22 58.5115 38.4556 58.1201 38.4696 57.9914C38.484 57.8701 38.4054 57.3922 38.847 57.1003C39.0464 56.9725 39.3244 56.979 39.5243 57.0863C39.5824 57.1202 39.6513 57.1305 39.7167 57.1152C39.7883 57.0863 39.9808 56.9158 40.0305 56.873C40.0519 56.588 40.0091 56.1385 40.0379 55.8894C40.1021 55.4046 40.1304 55.1266 40.2801 54.6557C40.4084 54.2495 40.6864 53.6582 40.8928 53.3226C41.2637 52.7169 41.9977 52.1322 42.5471 52.1819C42.3328 52.4673 42.2617 52.617 42.105 52.9094C41.8127 53.4439 41.5417 54.328 41.4138 54.9267C41.3278 55.3116 41.2855 55.6114 41.3069 56.0172C41.7276 55.7039 42.1692 55.4469 42.4616 55.2833C42.5968 54.5772 42.8753 53.8149 43.1741 53.2519C43.5307 52.5742 44.4929 51.8398 45.1209 51.897C44.5291 52.5384 44.108 53.4295 43.9513 53.9999C43.8872 54.2276 43.8086 54.4921 43.8449 54.6344C44.0796 54.5061 44.5649 54.3778 44.7997 54.3564C44.9568 53.9645 45.1706 53.4937 45.3491 53.2157C45.905 52.3599 46.7817 51.8398 47.2809 51.8612C46.8886 52.3887 46.5535 52.8661 46.3113 53.5722C46.2397 53.7786 46.2044 53.9999 46.2044 54.1068C46.5107 54.057 46.9886 54.057 47.181 54.057C47.5375 53.7363 47.7936 53.351 48.2218 53.0232C48.5783 52.7448 49.2411 52.3674 49.3978 52.3385V48.0114C49.3978 47.9185 48.2645 47.8334 47.7012 47.9045C46.2044 48.083 42.462 49.259 40.8793 50.35C40.8435 50.443 40.8509 50.9631 40.7435 51.2053C40.651 51.4261 40.4158 51.6543 40.1881 51.7543C39.7818 51.9328 39.3109 51.3908 39.1041 51.4693C38.8903 51.5479 38.4343 51.7329 37.942 51.3838C37.7212 51.2271 37.6073 50.7846 37.6854 50.4574C37.757 50.2217 37.9564 50.0367 38.1131 49.887C38.2558 49.7443 38.1558 49.1954 38.6685 48.8676C39.0255 48.6394 39.5169 48.8249 39.8952 49.0243C39.9721 48.9998 40.0426 48.9585 40.1016 48.9034C40.1513 48.7533 40.2299 48.2973 40.3015 47.9408C40.387 47.5554 40.4158 47.3063 40.5297 46.9502C40.8151 46.088 41.4989 44.8473 42.2124 44.1984C42.7753 43.6992 43.652 43.3004 44.3009 43.3431C44.2363 43.4417 43.4312 44.1622 43.1955 44.4829ZM44.8434 36.0443C45.3854 35.289 46.811 34.1483 47.9089 34.2129C47.3098 34.733 46.7822 35.3104 46.4117 35.9235C45.9274 36.7151 45.535 37.7056 45.4495 38.4689C45.813 38.3332 46.6683 38.091 47.1601 37.9841C47.5952 37.0358 48.1655 35.9881 48.8716 35.4247C49.3773 35.0184 50.1043 34.6694 50.7821 34.7474C50.6249 34.9687 50.3684 35.1398 50.1759 35.3178C49.8268 35.6241 49.5847 36.0378 49.3917 36.4585C49.249 36.7718 49.0069 37.7131 48.9994 37.7558C49.4912 37.7489 50.3609 37.8056 50.5464 37.8627C51.1242 37.1069 52.3862 36.009 53.8969 36.2586C53.241 36.6147 52.0436 37.655 52.1152 38.2258C53.0988 38.8607 54.5672 40.1934 54.6313 41.4271C53.9615 40.7284 52.8566 40.0368 52.3002 39.8443C50.9671 39.3739 49.3773 39.3098 48.0516 39.5519C45.2859 40.0726 42.8409 41.27 40.4958 42.6747C40.4391 43.0521 40.2318 43.6225 40.0607 43.8154C39.8896 44.0078 39.6331 44.1928 39.3551 44.2356C39.006 44.2928 38.649 44.1501 38.3501 43.9934C38.1572 43.8865 37.6515 44.0222 37.3307 43.8507C37.11 43.7364 36.7674 43.4156 36.8603 42.9099C36.9384 42.4609 37.3875 42.1899 37.4516 41.7622C37.5441 41.1347 38.0006 40.8637 38.2358 40.8214C38.4924 40.7717 38.7564 40.8572 38.9911 40.9641C39.0911 41.0138 39.1975 41.0994 39.2909 41.1282C39.3834 41.0994 39.5187 40.9855 39.5973 40.9502C39.6186 40.8786 39.8543 39.5743 39.9821 39.0039C40.1104 38.4336 40.3312 37.9483 40.5167 37.4142C41.0731 35.8319 42.7907 34.2347 44.167 34.3203C44.0954 34.4202 43.6534 34.7409 43.0403 35.454C42.0497 36.6156 41.8001 37.8493 41.4292 39.9666C42.192 39.6101 42.8548 39.3535 43.5465 39.1039C43.7114 38.4476 43.9308 37.8062 44.2024 37.1864C44.3804 36.7857 44.5942 36.3939 44.8434 36.0443ZM86.3882 37.7972L60.9117 37.8191L60.9335 45.3182L85.8183 45.3038L86.3882 37.7972ZM63.8369 76.6251C63.5445 76.7748 63.1814 76.6823 63.0318 76.6177C62.7747 76.5107 62.6041 76.2463 62.5823 75.9404C62.5614 75.6982 62.7966 75.4058 62.8463 75.1414C62.8672 75.0344 62.7538 74.5078 63.2024 74.2363C63.2888 74.1866 63.5445 74.0936 63.7225 74.1229C63.9015 74.1582 64.0437 74.2726 64.2217 74.3009C64.464 74.2151 64.6959 74.1027 64.9134 73.9658C65.0561 73.4164 65.163 72.7828 65.2337 72.219C63.9582 72.8534 62.2894 73.2811 60.8712 73.3383L60.8787 93.8481C66.8308 90.8248 73.3603 85.878 76.14 83.1616C80.6387 78.7773 83.668 74.3363 84.131 67.9346L84.5512 62.1033L71.0292 62.0889C71.0292 65.3961 69.9243 68.8471 66.7658 71.3418C66.5877 72.0618 66.5027 73.2737 66.5162 73.3029C66.9512 73.124 67.358 72.9678 67.7145 72.8609C67.7428 72.8181 68.2491 71.7132 68.4773 71.4139C69.0118 70.5869 69.7319 69.8804 70.6081 69.41C71.1575 69.132 71.8273 68.8754 72.4191 69.0967C71.6419 69.4671 71.0353 70.137 70.6722 70.5219C70.3371 70.8788 69.9452 71.406 69.7672 71.948C69.7429 72.0418 69.7238 72.1369 69.71 72.2329C70.074 72.1185 71.2351 71.948 71.72 71.8833C71.7771 71.8759 71.9268 71.5556 72.0411 71.3985C72.1829 71.2061 72.2689 71.0852 72.4967 70.8282C73.0814 70.1937 74.072 69.5164 75.0342 69.6661C74.5075 70.0012 73.9293 70.5358 73.4663 71.3767C73.4017 71.5054 73.3167 71.6835 73.352 71.7616C73.4947 71.7904 74.2008 71.776 74.6284 71.8262C75.1197 71.5203 75.6408 71.2488 76.2037 71.128C76.8382 70.9853 77.6656 71.0992 77.9933 71.3985C77.6084 71.3767 77.2445 71.4483 76.8959 71.5835C76.696 71.6625 76.2967 71.8475 76.147 72.1037C76.5245 72.2106 77.1455 72.6173 77.5369 72.9455C77.8083 73.1733 78.136 73.5019 78.3429 73.8008C78.863 74.5073 78.9704 75.7754 78.6915 76.1538C78.6134 75.932 78.5279 75.7117 78.4066 75.5049C78.1569 75.0846 77.7646 74.6277 77.4295 74.3781C75.8119 73.1454 73.4812 73.0807 71.5772 73.4656C69.9448 73.8008 67.0005 74.4144 65.0761 75.7824C65.1258 76.0245 64.9762 76.4313 64.7558 76.5874C64.4639 76.8027 64.0512 76.5107 63.8369 76.6251ZM67.0135 78.9302C67.2269 78.6025 67.4839 78.1251 67.6118 77.9178C68.0613 77.1978 68.7102 76.6632 69.1513 76.4559C69.7579 76.1635 70.7336 75.9929 71.1687 76.2063C70.6913 76.3206 70.3278 76.5414 69.9931 76.7766C69.651 77.0128 68.9798 77.6254 68.8092 77.8825C68.6167 78.1674 68.4889 78.4235 68.4387 78.5597C68.9798 78.4379 69.6291 78.338 69.9638 78.338C70.206 78.0312 70.8479 77.2977 71.3258 76.9551C71.7107 76.6837 72.5306 76.4131 73.0433 76.6339C72.552 76.791 71.6823 77.4757 71.3611 77.9675C71.2904 78.081 71.2258 78.2027 71.2114 78.2664C71.4754 78.2883 71.9742 78.338 72.2457 78.3733C72.274 78.3733 73.0154 77.9178 73.3506 77.8248C73.7857 77.703 74.4983 77.5469 74.9477 78.0247C74.62 78.0312 74.3132 78.06 74.0706 78.1674C73.7211 78.3236 73.5714 78.4379 73.4152 78.6587C74.099 79.0227 74.8125 79.4006 75.2327 80.0704C75.3824 80.3056 75.6101 80.862 75.4823 81.2251C75.268 80.9545 74.9756 80.6905 74.7404 80.5552C74.4053 80.3628 74.1631 80.1778 73.7564 80.0207C72.4809 79.5433 70.8131 79.415 69.4795 79.593C67.7545 79.8138 65.6372 80.6696 64.5541 81.4105C64.6248 81.7457 64.4616 82.1375 64.2692 82.2305C63.8624 82.4374 63.471 82.0878 63.3995 82.1096C63.2925 82.145 62.9644 82.2593 62.7296 82.1594C62.4935 82.0669 62.3448 81.6527 62.4373 81.3896C62.5079 81.1898 62.7942 80.9048 62.7942 80.9048C62.7506 80.4697 63.036 80.2066 63.4278 80.156C63.6495 80.135 63.8053 80.3056 63.9842 80.3419C64.1478 80.2629 64.2622 80.2066 64.3472 80.1629C64.4472 79.8069 64.5969 79.4429 64.6968 79.1436C64.8604 78.6378 65.1026 78.1883 65.4094 77.7184C65.8514 77.0411 66.6361 76.3992 67.569 76.3857C67.2841 76.6065 67.1195 76.7278 66.9415 76.9486C66.6356 77.3335 66.3995 77.6831 66.1861 78.0963C65.9937 78.4603 65.8147 79.0013 65.7868 79.4792C66.1903 79.2843 66.5994 79.1013 67.0135 78.9302ZM66.8755 82.786C67.1176 82.686 67.3738 82.6154 67.6308 82.6442C67.0317 83.0282 66.4832 83.5911 66.3335 84.2618C66.3191 84.3325 66.3191 84.4752 66.3832 84.5179C66.5538 84.4752 66.9889 84.3827 67.1032 84.3255C67.1739 84.1758 67.3519 83.9406 67.4737 83.7835C67.9014 83.2141 68.5149 82.6442 69.3628 82.8576C68.8064 83.1072 68.4856 83.4558 68.2435 83.8979C68.2007 83.9769 68.1728 84.1266 68.2291 84.1266C68.3718 84.1266 68.9138 84.1047 68.9919 84.1047C69.2415 83.8839 69.9689 83.4628 70.4682 83.6199C70.2186 83.7365 69.9898 83.8932 69.7909 84.0838C69.7412 84.14 69.6766 84.2116 69.6631 84.2971C70.1042 84.5179 70.4965 84.7676 70.8605 85.0818C71.0529 85.2454 71.3309 85.5522 71.5015 86.0793C71.0738 85.7088 69.6766 85.0451 68.9142 85.0097C68.415 84.9888 67.7958 85.0813 67.4816 85.1524C66.2768 85.4239 65.0366 85.9659 63.9745 86.5716C63.9819 86.7784 63.9456 87.0271 63.7114 87.22C63.5542 87.3488 63.2121 87.4125 63.0829 87.2274C63.0123 87.1275 62.5483 87.2349 62.4493 87.1066C62.4493 87.1066 62.3276 86.9216 62.3131 86.6999C62.2997 86.4647 62.4558 86.3224 62.5846 86.2006C62.6199 86.1579 62.613 85.7595 62.9123 85.6233C63.0973 85.5378 63.2828 85.5671 63.4399 85.667C63.5045 85.6308 63.5542 85.5954 63.597 85.5671C63.6323 85.1032 63.7179 84.6755 63.8894 84.2125C64.1246 83.5562 64.8944 82.7581 65.5572 82.7864C65.1077 83.2713 64.7447 83.9411 64.6229 84.498C64.5876 84.676 64.5741 85.0255 64.5741 85.1887C64.7327 85.0915 64.8994 85.0083 65.0724 84.94C65.144 84.7685 65.3504 84.3408 65.4573 84.1484C65.7269 83.6482 66.3335 83.0072 66.8755 82.786ZM36.2709 68.689C36.3565 71.1694 37.3689 74.1643 38.7587 76.2379H59.4953L59.4526 73.3443C56.7868 73.3443 52.7162 71.5831 51.1051 68.7034L36.2709 68.689ZM50.5269 62.2195C50.5269 75.4072 69.816 75.4072 69.816 62.3548L69.8234 46.4863L50.5269 46.4793V62.2195ZM56.7412 55.8992C56.9694 55.6495 57.1693 55.3218 57.2116 55.0439C57.2474 54.8156 56.6059 54.83 56.3707 54.9728C56.2424 55.0508 56.1211 55.208 56.0212 55.3507C55.9501 55.4576 55.6935 55.5431 55.5652 55.4222C55.4294 55.294 55.6721 55.0727 55.6647 54.9374C55.6647 54.7092 55.2296 55.0513 55.0302 54.9583C54.8949 54.8942 54.8875 54.6878 54.9804 54.5665C55.0302 54.5023 55.1729 54.5307 55.237 54.46C55.3012 54.3885 55.3012 54.2815 55.3225 54.189C55.3514 54.0821 55.4652 54.0319 55.5364 53.9538C55.8074 53.6903 56.3205 53.2408 56.4205 53.2482C56.6552 53.2696 56.9908 53.3909 57.1972 53.2836C57.24 53.2622 57.3185 53.1911 57.2469 53.1483L56.691 52.7839C56.6885 52.7264 56.6987 52.6692 56.7209 52.6161C56.7431 52.5631 56.7767 52.5156 56.8193 52.4771C57.0759 52.2488 57.4752 52.4059 57.8103 52.3557C58.0455 52.32 58.2663 52.2275 58.4374 52.0638C58.4801 52.2349 58.3732 52.4059 58.3732 52.584C58.5871 52.7839 58.8083 52.9545 59.0152 53.1474C59.6283 53.76 59.8918 54.6516 59.9346 55.4357C59.9704 55.7992 59.9704 56.1697 59.9704 56.7758C60.0703 56.5192 60.1345 56.1413 60.1559 55.8132C60.2484 54.8435 60.0987 53.9813 59.5502 53.2468C59.3273 52.9372 59.0741 52.6506 58.7944 52.3911C58.8232 52.1061 59.0654 51.6213 59.2936 51.7998C59.4433 51.9137 59.2225 52.0847 59.3791 52.1847C59.5506 52.2911 59.7998 52.2772 59.9067 52.2553C60.1563 52.1917 60.3985 52.1275 60.6263 52.1061C60.7332 52.0992 60.9112 52.049 60.9475 52.1559C60.9758 52.227 60.8977 52.2772 60.8187 52.3055C60.7262 52.3344 60.5835 52.313 60.5054 52.3911C60.4408 52.4552 60.3776 52.5268 60.3985 52.6193C60.4269 52.7262 60.5412 52.7834 60.6556 52.7476C61.0854 52.6287 61.528 52.5616 61.9738 52.5477C62.2099 52.5477 62.1588 52.7192 62.0454 52.7829C61.9673 52.8257 61.8455 52.8615 61.7674 52.8689C61.3472 52.9182 61.033 52.947 61.0827 53.1892C61.1181 53.3533 61.3826 53.1962 61.4388 53.3175C61.5034 53.4458 61.3254 53.5169 61.3398 53.6029C61.3825 53.8739 61.9027 53.8167 62.1449 53.7595C62.3229 53.7168 62.6078 53.5745 62.6934 53.6884C62.7724 53.7879 62.7078 53.945 62.6078 53.9738C62.3508 54.0449 61.9097 54.1732 61.7879 54.3155C61.6735 54.4512 61.8097 54.7292 61.945 54.7436C62.2518 54.7789 62.5869 54.7789 62.8291 54.85C62.9207 54.8789 62.9997 54.943 62.9997 55.0425C62.9997 55.1494 62.8928 55.1852 62.8073 55.2135C62.6427 55.2633 62.3652 55.2633 62.2155 55.3279C62.1658 55.3493 62.0659 55.3851 62.0803 55.4418C62.123 55.5487 62.3373 55.5199 62.5153 55.5412C62.6153 55.5487 62.8077 55.6272 62.8077 55.7341C62.8077 55.8485 62.7078 55.8838 62.5298 55.8699C62.2518 55.8485 61.9952 55.8838 61.8743 55.934C61.8381 55.948 61.6247 55.9763 61.6312 56.0767C61.6456 56.1976 61.8743 56.1195 61.9311 56.2408C61.9808 56.3552 61.8246 56.4188 61.8102 56.5615C61.8102 56.6187 61.8386 56.6471 61.8957 56.6685C62.0807 56.7466 62.2941 56.7391 62.4805 56.7043C62.6729 56.6685 62.7436 56.9255 62.6938 56.9539C62.4452 57.0891 61.8888 56.9469 61.7605 57.025C61.5824 57.1389 62.0593 57.3955 62.0454 57.4526C62.031 57.5168 61.9738 57.5809 61.9311 57.5953C61.6889 57.6878 61.3756 57.5093 61.1975 57.6097C61.0479 57.7022 61.1111 57.9375 61.0186 58.0588C60.9042 58.2084 60.6481 58.1443 60.5338 58.2298C60.385 58.3363 60.3776 58.5933 60.5412 58.7504C60.67 58.8713 60.7908 58.9564 60.9544 59.0354C61.6963 59.4059 62.4661 59.7763 63.1861 59.7261C63.5566 59.7052 64.1632 59.6843 64.4979 59.7698C64.9329 59.8763 65.375 60.2109 65.6028 60.3546C65.7878 60.468 66.0876 60.4973 66.3228 60.4108C66.4934 60.3546 66.6077 60.1547 66.5724 59.9832C66.4655 59.4128 65.5237 59.2353 65.5103 58.6649C65.4958 58.009 65.4387 57.6525 65.2253 57.2388C65.1463 57.0822 65.1328 56.7187 65.3178 56.6689C65.4675 56.6331 65.5177 56.84 65.6381 56.7902C66.1875 56.5764 66.2094 55.7067 66.7793 55.5422C67.1135 55.4497 68.2402 55.4357 68.1473 55.293C67.912 54.9574 68.0194 54.573 68.1473 54.3945C68.2328 54.2806 68.4675 54.1663 68.5614 54.2806C68.6892 54.4303 68.368 54.6083 68.3899 54.8296C68.4108 55.0364 68.7111 55.4357 68.4824 55.6495C68.3471 55.7778 67.3278 55.8211 67.0279 56.2771C66.8429 56.5546 66.822 56.7758 67.0423 56.7545C67.2204 56.7331 67.3701 56.5192 67.5346 56.3979C67.827 56.1846 68.0622 56.0986 68.2263 56.2552C68.3118 56.3333 68.1975 56.4835 68.0403 56.5262C67.9125 56.569 67.5992 56.9041 67.6843 56.9897C67.8121 57.1249 68.5252 56.5053 68.7037 56.6331C68.7962 56.7043 68.3541 57.1607 68.4322 57.2816C68.5247 57.4312 68.8245 57.196 68.917 57.3104C69.0523 57.4814 68.6818 57.8166 68.4675 57.9663C68.3039 58.0727 68.3676 58.4725 68.1324 58.5938C67.8693 58.7221 67.7475 58.9494 67.7763 58.9856C67.8047 59.0419 67.8688 59.0856 67.9688 59.021C68.2611 58.836 68.6242 58.6147 68.7738 58.6719C68.8594 58.7077 68.7385 59.1135 68.6311 59.3059C68.5238 59.4984 69.0662 59.3914 68.9872 59.5555C68.931 59.6773 68.8947 59.8623 68.931 60.0329C68.9737 60.2546 68.3462 60.3034 68.289 60.4531C68.2253 60.6246 68.3536 60.6674 68.4169 60.6749C68.7952 60.732 68.7455 61.0806 68.5958 61.2303C68.3959 61.4302 68.0538 61.5083 67.754 61.4581C67.497 61.4153 66.9206 61.3093 66.5784 61.0523C66.4715 60.9742 66.3144 61.0304 66.2935 61.1378C66.2717 61.2596 66.3999 61.4799 66.4571 61.6654C66.5361 61.9434 66.4925 62.2929 66.3999 62.5644C66.201 63.1273 65.6664 63.5977 65.5168 64.275C65.4805 64.453 65.5312 64.6743 65.6023 64.8453C65.7594 65.2167 65.9872 65.5653 66.2433 65.8796C66.2796 65.9795 66.3298 66.0929 66.287 66.1854C66.2298 66.3281 65.7878 66.6349 65.6595 66.7567C65.2527 67.1342 64.9032 67.6264 64.8251 68.161C64.7963 68.3534 64.383 68.5458 64.1051 68.6239C63.8992 68.6811 63.6849 68.7383 63.5143 68.8736C63.4924 69.0297 63.5849 69.1659 63.6058 69.3221C63.6421 69.5936 63.3 69.7288 63.0355 69.8144C62.9146 69.8571 62.7859 69.8934 62.6432 69.8934C62.5934 69.8934 62.5795 69.8069 62.5869 69.7646C62.665 69.3942 62.7357 69.0948 62.8784 68.7885C62.9356 68.6741 63.0281 68.5816 63.1215 68.5026L64.1399 67.6473L64.939 66.4997C65.0096 66.3927 65.0389 66.2998 65.0389 66.2217C65.0389 66 64.9464 65.794 64.7893 65.6513C64.5894 65.4724 64.297 65.4445 64.0767 65.3301C63.7918 65.1874 63.3776 64.7891 63.3204 64.7598C63.1643 64.6817 63.0718 64.9666 63.0499 65.1303C63.0146 65.3799 63.0927 65.6151 63.0852 65.8647C63.0852 65.979 63.0718 66.0427 63.0146 66.1143C62.3448 66.4992 61.5104 66.6419 61.0181 67.2545C60.9326 67.3615 60.8545 67.4763 60.7402 67.5544C60.4622 67.7468 59.9992 67.526 59.7919 67.8249C59.6994 67.9611 59.8063 68.1391 59.771 68.2888C59.7496 68.3743 59.5855 68.4887 59.4572 68.5519C59.2857 68.6309 59.1012 68.6737 58.9152 68.6881C58.7084 68.5882 58.8367 68.2958 58.9078 68.0889C58.9789 67.8746 59.0793 67.6613 59.2429 67.5186C59.4851 67.3043 59.7914 67.0337 59.9843 66.9412C60.148 66.8622 60.3971 66.8622 60.597 66.7841C60.8075 66.7196 61.007 66.6236 61.1887 66.4992C61.4802 66.3142 61.7516 66.086 61.9157 65.7722C62.1007 65.4152 62.0793 64.9388 61.8441 64.632C61.6298 64.354 61.3812 64.0825 61.2385 63.7697C61.1594 63.5982 61.2166 63.363 61.3384 63.2059C61.331 63.1994 61.245 63.1412 61.1957 63.1561C60.1758 63.1998 59.1425 63.0855 58.1943 62.7076C57.9447 62.6076 57.6881 62.2864 57.5096 62.2655C57.3459 62.2437 57.246 62.4505 57.0819 62.4933C56.8184 62.5649 56.4758 62.5221 56.1695 62.4933C55.8129 62.4579 55.0715 62.3008 54.537 62.1302C54.4514 62.1437 54.3589 62.1586 54.2804 62.2083C54.166 62.2864 54.1447 62.4579 54.1377 62.6006C54.1233 62.7931 54.1804 62.9711 54.1586 63.171C54.1516 63.2709 54.0944 63.3778 54.1233 63.4708C54.1521 63.5842 54.266 63.6344 54.3441 63.706C54.4724 63.8269 54.4937 64.0765 54.4937 64.2764C54.4937 64.4972 54.4156 64.79 54.6007 64.9401C54.715 65.0317 54.8716 64.9113 55.0144 64.9401C55.171 64.9685 55.2207 65.1609 55.2282 65.3106C55.2356 65.4812 55.0929 65.8442 54.9999 65.9381C54.9358 66.0018 54.8289 65.9516 54.7503 65.9163C54.5439 65.8238 54.351 65.6741 54.2372 65.4742C54.1874 65.3887 54.1874 65.2818 54.1372 65.1893C54.0587 65.0322 53.916 64.9406 53.7737 64.8332C53.6027 64.7045 53.5673 64.4693 53.5385 64.2629C53.5171 64.0695 53.5529 63.8845 53.5673 63.6916C53.6043 63.3101 53.5801 62.9252 53.4957 62.5514C53.4316 62.2664 53.2745 61.981 53.3461 61.6961C53.3819 61.5608 53.4744 61.4321 53.6031 61.3749C54.2926 61.3427 54.9751 61.2231 55.6344 61.0188L55.2068 60.5977C55.0999 60.5977 55.0144 60.7046 54.9074 60.7046C54.7931 60.7046 54.6364 60.541 54.5937 60.4838C54.3724 60.1561 54.2302 59.7773 54.1302 59.3924C54.0377 59.2427 53.9239 59.0935 53.7523 59.0219C53.6334 58.9703 53.5045 58.9458 53.3749 58.9503C53.0184 59.1074 52.6907 59.4142 52.6618 59.8065C52.6549 59.9065 52.7116 59.9915 52.6976 60.0915C52.6767 60.2621 52.548 60.3764 52.4266 60.4982C52.3053 60.6191 52.1914 60.7404 52.1417 60.9114C52.0985 61.0541 52.1487 61.2038 52.2123 61.3391C52.2551 61.4316 52.3053 61.5241 52.2695 61.624C52.184 61.8592 51.6211 62.1014 51.457 62.1014C51.3998 62.1014 51.3501 62.0233 51.3287 61.9587C51.2646 61.7444 51.279 61.5167 51.3217 61.3033C51.4723 61.1401 51.5843 60.9452 51.6494 60.733C51.7354 60.448 51.6922 60.1412 51.8279 59.8767C52.184 59.2711 53.0965 58.0592 53.2745 57.8812C53.353 57.8031 53.5455 57.7599 53.624 57.8101C54.0089 58.0597 54.2372 58.366 54.6076 58.5585C54.8075 58.6584 55.0567 58.8085 55.2351 58.6658C55.4132 58.5231 55.4415 57.5679 55.5559 57.3253C55.7646 56.9046 56.3419 56.3482 56.7412 55.8992ZM63.8369 49.9609L63.6798 50.5596H63.1094L63.8513 47.7511H64.4997L65.2132 50.5383H64.642L64.4993 49.9609H63.8369ZM64.4212 49.451L64.1641 48.3247L63.9219 49.451H64.4212ZM62.3387 48.5585C62.3461 48.3731 62.289 48.1309 62.1398 48.0737C61.9826 48.0165 61.8186 48.0667 61.7474 48.1737C61.6257 48.3731 61.6257 48.6441 61.6331 49.0573C61.6331 49.3069 61.6405 49.656 61.6903 49.8206C61.8111 50.198 62.1323 50.2198 62.2885 49.9842C62.3675 49.8703 62.3675 49.649 62.3601 49.4496H62.0315V49.0359H62.8802V50.5471H62.4744V50.3407C62.467 50.3551 62.2885 50.4904 62.203 50.5336C62.0603 50.5973 61.7897 50.5973 61.5694 50.5048C61.3835 50.4262 61.2054 50.1771 61.1274 49.8559C61.0483 49.5207 61.0837 49.0857 61.0837 48.7152C61.0911 48.3229 61.298 47.8882 61.5829 47.7242C61.7828 47.6103 62.1532 47.6103 62.388 47.6958C62.6739 47.7957 62.8946 48.209 62.8519 48.5585H62.3387ZM52.7892 47.7934C53.0174 47.9361 53.1383 48.2001 53.0965 48.5065H52.647C52.647 48.2215 52.5261 48.0858 52.2835 48.0788C52.1338 48.0719 51.9483 48.2429 51.9483 48.3712C51.9409 48.7486 52.276 48.8272 52.5043 48.8983C52.6753 48.9485 52.8822 49.0554 52.9821 49.2051C53.1671 49.4761 53.189 49.7611 53.0393 50.132C52.9682 50.31 52.6972 50.5238 52.4689 50.574C52.2123 50.6312 51.8986 50.6029 51.642 50.41C51.4351 50.2533 51.3422 49.9465 51.3849 49.6686H51.8911C51.8911 49.8043 51.9125 49.9038 51.9697 49.9893C52.0125 50.0465 52.091 50.139 52.2263 50.1459C52.28 50.1499 52.3339 50.1419 52.3843 50.1227C52.4346 50.1035 52.48 50.0734 52.5174 50.0346C52.5548 49.9959 52.5832 49.9493 52.6006 49.8984C52.618 49.8474 52.624 49.7932 52.6181 49.7397C52.5898 49.3046 51.8628 49.2762 51.6132 48.9983C51.3134 48.6562 51.4063 48.1072 51.6485 47.8859C51.9841 47.5726 52.4406 47.5726 52.7892 47.7934ZM67.1832 49.6527C67.1906 49.7597 67.1976 50.1376 67.2115 50.3797C67.219 50.4509 67.2906 50.5438 67.2906 50.5508H66.756C66.6844 50.5508 66.677 50.4225 66.6705 50.3161C66.6561 50.0311 66.684 49.3539 66.4065 49.3539H66.0643V50.5443H65.5298V47.7641H66.492C66.9768 47.7641 67.219 48.0426 67.219 48.42C67.219 48.6696 67.2115 48.962 66.9266 49.0829C67.0758 49.2251 67.1613 49.4389 67.1832 49.6527ZM66.4506 48.1653H66.0513V48.9141H66.3437C66.8281 48.9141 66.8211 48.1653 66.4506 48.1653ZM54.4147 50.5559H53.8802V48.2104H53.267V47.74H55.0348V48.2104H54.4147V50.5559ZM57.8563 50.5559V48.2104H57.2432V47.74H59.018V48.2104H58.3904V50.5559H57.8563ZM59.2587 47.7404H61.0335V48.2178H60.4059V50.5559H59.8718V48.2178H59.2587V47.7404ZM68.5321 48.2183V50.5634H67.9976V48.2183H67.3849V47.7409H69.1527V48.2183H68.5321ZM56.433 49.748V47.7451H56.9532V49.6983C56.9532 50.8674 55.2565 50.8674 55.2565 49.7341V47.7451H55.7767V49.7555C55.7771 50.1906 56.433 50.1906 56.433 49.748ZM57.6332 51.8514C57.7903 51.7161 58.0107 51.5311 58.2672 51.3671C58.4955 51.2174 58.2389 51.56 58.2245 51.7022C58.1817 52.0871 57.8893 52.1298 57.5686 52.0587C57.5124 52.0443 57.5337 51.9369 57.6332 51.8514ZM71.039 60.8389L84.6544 60.8315L85.26 53.3035L71.039 53.311V60.8389ZM59.5562 84.2837L45.5132 84.2553C48.4072 86.8574 55.1082 91.7261 59.5135 93.7007L59.5562 84.2837ZM49.3903 53.1051C49.1194 53.3472 48.5778 53.9464 48.4704 54.2169C48.7061 54.3025 49.1691 54.5093 49.3903 54.659V53.1051Z" fill="#818592"/>
</svg>
