<svg width="120" height="120" viewBox="0 0 120 120" fill="none" xmlns="http://www.w3.org/2000/svg">
<path d="M98.7094 95.9992V94.9906H20.3201V95.9992H98.7094ZM17.4845 76.2832H9.86719V77.481H10.8297C11.0779 77.481 11.4621 77.8744 11.4621 78.1225V81.0187H16.1376V77.48H17.4845V76.2832ZM40.0447 92.0424V87.3005H37.5183V89.3301C37.5183 90.0284 37.1871 90.8457 36.5842 90.8457H33.8348C33.5867 90.8457 33.2174 90.5005 33.2174 90.2535V84.9477C33.2174 84.699 33.4071 84.5061 33.6553 84.5061H34.435C34.6832 84.5061 35.0621 84.9037 35.0621 85.1519V86.1589H37.3907V81.4009H35.1168V82.3864C35.1168 82.6346 34.7036 83.0767 34.4554 83.0767H33.6558C33.4077 83.0767 33.2179 82.7948 33.2179 82.5456V78.0003C33.2179 77.7522 33.5872 77.4821 33.8353 77.4821H36.5123C36.8591 77.4821 37.1646 77.7978 37.1646 78.145V80.322H39.513V76.2832H26.9416V77.481H27.9041C28.1523 77.481 28.536 77.8744 28.536 78.1225V90.2899C28.536 90.538 28.1667 90.8457 27.9186 90.8457H26.9571V92.0413L40.0447 92.0424ZM44.7197 82.3259L49.9375 92.0424H54.5428V78.0775C54.5428 77.8294 54.9121 77.481 55.1602 77.481H56.1222V76.2832H50.9569V77.481H51.9237C52.1719 77.481 52.5417 77.8278 52.5417 78.0754V86.2784L46.9374 76.2832H41.1235V77.481H42.0855C42.3342 77.481 42.7185 77.8556 42.7185 78.1038V90.2712C42.7185 90.5204 42.3487 90.8457 42.1011 90.8457H41.1391V92.0413H46.3044V90.8457H45.3381C45.0895 90.8457 44.7202 90.522 44.7202 90.2744L44.7197 82.3259ZM59.7425 81.9872L57.1748 90.3269C57.0794 90.5836 56.9294 90.8473 56.6812 90.8473H55.679V92.043H60.4891L60.4789 90.8473H59.5185C59.2703 90.8473 59.0093 90.5782 59.0806 90.3301L60.0994 86.6145C60.123 86.5175 60.1863 86.4317 60.2859 86.4317H62.2405V84.9809L60.8326 84.982C60.7324 84.982 60.6139 84.8839 60.6445 84.7853L61.4355 81.9872H59.7425Z" fill="#818592"/>
<path d="M62.2406 86.4306H64.0515C64.1512 86.4306 64.238 86.5164 64.2611 86.6139L65.2804 90.3296C65.3528 90.5777 65.0907 90.8467 64.8431 90.8467H63.8811L63.8714 92.0424H71.7588V90.8467H70.7571C70.509 90.8467 70.3584 90.5836 70.263 90.3264L66.1325 76.2832H59.1836V77.481H59.9698C60.6944 77.4837 60.972 78.0084 60.8284 78.5266L59.7415 81.9861H61.4345L62.2009 79.3364L63.7562 84.7826C63.7878 84.8823 63.6474 84.9809 63.5477 84.9809H62.2395V86.4306H62.2406ZM83.6041 88.3729L83.6051 78.129C83.6051 77.8803 83.9867 77.4821 84.2349 77.4821H85.1926V76.2843H80.3965V77.4821H81.3585C81.6066 77.4821 81.9877 77.8894 81.9877 78.1375L81.9866 88.4281C81.955 91.2519 76.8786 91.5478 76.847 88.3128V78.1166C76.847 77.868 77.228 77.4821 77.4762 77.4821H78.4339V76.2843H70.5846V77.4821H71.5476C71.7958 77.4821 72.1768 77.8749 72.1768 78.1241V88.4211C72.1763 93.4959 83.6041 93.7655 83.6041 88.3729ZM92.5789 78.1097C92.5789 77.861 92.9658 77.481 93.215 77.481H94.1792V76.2832H86.3068V77.481H87.2699C87.518 77.481 87.9023 77.8556 87.9023 78.1038V90.2712C87.9023 90.5193 87.5336 90.8457 87.2854 90.8457H86.5024V92.0414H98.7062V87.2812H96.1787V89.3108C96.1787 90.0091 95.8486 90.8446 95.2457 90.8446H93.1952C92.946 90.8446 92.5778 90.4812 92.5778 90.2326L92.5789 78.1097Z" fill="#818592"/>
<path d="M103.606 92.0449H107.536V90.8492H106.574C106.326 90.8492 105.944 90.4993 105.944 90.2511V77.7515C105.944 77.6025 106.062 77.4862 106.211 77.4862C107.357 77.5301 107.85 77.9021 107.85 79.467V80.9269H110.134V76.2857H97.0796V80.9269H99.3643V79.467C99.3643 77.9021 99.8573 77.5301 101.002 77.4862C101.151 77.4862 101.27 77.6025 101.27 77.7515V90.2495C101.27 90.4987 100.888 90.8482 100.64 90.8482H99.6783V92.0438L103.606 92.0449ZM16.6285 84.4035C16.821 84.4035 17.0852 84.597 17.1945 84.799L17.21 84.8135L20.394 92.0438H25.852V90.8482H25.4688C25.1408 90.8482 24.9758 90.4355 24.7769 90.0925L21.4659 84.2572C23.4869 84.2572 24.5004 82.6655 24.5245 80.5458C24.5004 78.4053 23.5459 76.2846 21.0527 76.2846H17.4844V77.4819H17.9132C20.1089 77.4819 20.1411 83.1939 17.9132 83.1939H16.1376V81.0201H11.4621V90.2972C11.4621 90.5453 11.0934 90.8471 10.8453 90.8471H9.88379V92.0428H17.724V90.8471H16.7556C16.5074 90.8471 16.1382 90.5234 16.1382 90.2752L16.143 84.403H16.68H16.6285V84.4035ZM60.3224 55.9989L55.5209 64.3172C55.3644 64.5851 54.9625 64.3568 55.0654 64.0792L59.0624 54.9024L51.1011 41.1138L40.1915 41.1165C40.2055 41.2601 40.303 41.4498 40.3244 41.5023L54.3274 65.7577C54.4126 65.8853 54.5777 66.0611 54.7931 66.0632H65.1737C65.3843 66.0611 65.5515 65.9228 65.6072 65.8328L79.6263 41.534C79.6713 41.4627 79.7667 41.2478 79.8846 40.96H69.012L60.0072 56.5423L60.3224 55.9989Z" fill="#818592"/>
<path d="M67.4469 41.0191H79.7724C79.8632 41.0196 79.9508 40.9849 80.0167 40.9224C80.0826 40.8599 80.1218 40.7743 80.1261 40.6836C80.1411 40.3738 80.0703 40.0303 79.9181 39.7591L65.8868 15.4844C65.7287 15.2218 65.4511 15.1097 65.1568 15.1231H54.861C54.5726 15.1156 54.2596 15.2378 54.0903 15.4817L54.0737 15.5074L40.1152 39.7601C39.9469 40.0608 39.8446 40.4617 39.8221 40.8041C39.8159 40.8977 39.8471 40.99 39.9089 41.0605C39.9708 41.1311 40.0581 41.1742 40.1517 41.1804L40.1747 41.1809H52.5907L59.7026 53.4367C59.7338 53.4903 59.7785 53.5347 59.8323 53.5656C59.886 53.5964 59.947 53.6126 60.0089 53.6125C60.0709 53.6124 60.1318 53.596 60.1855 53.5649C60.2391 53.5339 60.2837 53.4893 60.3147 53.4356L67.4228 41.0662C67.4323 41.0513 67.4404 41.0355 67.4469 41.0191ZM66.7888 40.75L60.007 52.5513L53.1851 40.7945L60.0081 28.9776L66.7888 40.75ZM52.5538 40.4729H40.5911C40.6276 40.3395 40.6699 40.2296 40.7331 40.1058L54.6734 15.8836L54.7511 15.8402C54.7806 15.8274 54.8202 15.83 54.8497 15.83C54.9001 15.8311 65.196 15.83 65.2179 15.8279C65.2299 15.826 65.242 15.8274 65.2533 15.8318C65.2645 15.8362 65.2743 15.8436 65.2817 15.8531L79.2997 40.1064C79.335 40.175 79.3602 40.236 79.3801 40.3105H67.352L60.3147 28.0928C60.2836 28.039 60.2389 27.9944 60.1851 27.9633C60.1314 27.9323 60.0704 27.9159 60.0083 27.9158C59.9462 27.9158 59.8851 27.932 59.8313 27.963C59.7775 27.994 59.7327 28.0386 59.7015 28.0923L52.5538 40.4729Z" fill="#818592"/>
<path d="M50.9985 40.5178H52.8936L60.0087 28.2695L67 40.4197L68.9197 40.4208L60.9278 26.5802L64.9714 17.391C65.0781 17.144 64.6477 16.9441 64.5057 17.1879L50.9985 40.5178ZM54.0678 65.8804C54.2264 66.1591 54.4837 66.3268 54.802 66.3617L54.8213 66.3638H65.2324C65.5101 66.3542 65.8 66.2095 65.9527 65.9726L79.998 41.6271C80.0548 41.5017 80.087 41.0767 80.1047 40.8715L79.4005 40.8098L79.3629 41.2322L79.3474 41.3388L65.3605 65.5835C65.3429 65.6052 65.3209 65.6228 65.296 65.6353C65.271 65.6478 65.2437 65.6548 65.2158 65.6559H54.8637C54.7903 65.65 54.7168 65.5894 54.682 65.5288L40.6892 41.2906C40.6493 41.2025 40.6158 41.1117 40.589 41.0189C40.5776 40.9257 40.5297 40.8409 40.4558 40.783C40.3819 40.7252 40.288 40.6991 40.1948 40.7104C40.1017 40.7218 40.0168 40.7697 39.959 40.8436C39.9011 40.9176 39.875 41.0114 39.8864 41.1046C39.896 41.1823 39.9169 41.274 39.9448 41.3469L40.0525 41.6041L54.0678 65.8804Z" fill="#818592"/>
</svg>
