<svg width="60" height="60" viewBox="0 0 60 60" fill="none" xmlns="http://www.w3.org/2000/svg">
<rect width="60" height="60" fill="black" fill-opacity="0"/>
<circle opacity="0.1" cx="30" cy="30" r="30" fill="#00DCE6"/>
<path d="M28.7924 45.6713C29.163 45.8876 29.5828 46 30.0055 46L30.0043 45.9938C30.4328 45.9938 30.8526 45.8823 31.2232 45.6651L42.7869 38.8937C43.5339 38.4534 44 37.6345 44 36.7569V23.2259C44 22.3454 43.5339 21.5265 42.7869 21.0891L31.2232 14.3148C30.4965 13.8951 29.5237 13.8951 28.7912 14.3148L17.2131 21.0862C16.4632 21.5206 16 22.3424 16 23.223V36.754C16 37.6316 16.4632 38.4534 17.2131 38.8937L20.2473 40.6665C21.7181 41.4003 22.2451 41.4003 22.9139 41.4003C25.0882 41.4003 26.339 40.0648 26.339 37.7402V24.3794C26.339 24.1886 26.1884 24.0419 26.006 24.0419H24.541C24.3528 24.0419 24.2052 24.1886 24.2052 24.3794V37.7343C24.2052 38.7675 23.1542 39.7948 21.4344 38.9231L18.267 37.0681C18.157 37.0064 18.0875 36.8831 18.0875 36.754V23.223C18.0875 23.0938 18.1587 22.9676 18.2708 22.903L29.8303 16.1405C29.9375 16.0759 30.0793 16.0759 30.1865 16.1405L41.7484 22.903C41.8578 22.9705 41.9273 23.0909 41.9273 23.2259V36.7569C41.9273 36.8861 41.8578 37.0123 41.7507 37.0739L30.1841 43.8424C30.0848 43.9011 29.9328 43.9011 29.8257 43.8424L26.8592 42.0578C26.7709 42.005 26.658 41.9874 26.5717 42.0372C25.7509 42.5098 25.5949 42.5714 24.8259 42.8444C24.6357 42.9111 24.3542 43.0267 24.931 43.3537L28.7924 45.6713Z" fill="#00DCE6"/>
<path d="M27.4562 32.3457C27.4562 34.321 28.5173 36.6762 33.5782 36.6762L33.5614 36.69C37.2268 36.69 39.3288 35.2254 39.3288 32.6718C39.3288 30.1388 37.6409 29.4637 34.0855 28.9852C30.4954 28.5039 30.1306 28.2544 30.1306 27.4003C30.1306 26.6958 30.4404 25.7566 33.1011 25.7566C35.4781 25.7566 36.3525 26.2761 36.7144 27.8992C36.7462 28.0519 36.8823 28.1634 37.0386 28.1634H38.5413C38.6339 28.1634 38.7237 28.1223 38.7874 28.0548C38.8511 27.9844 38.8858 27.8904 38.8771 27.7936C38.6455 24.9934 36.8099 23.6902 33.1069 23.6902C29.8092 23.6902 27.8404 25.0991 27.8404 27.4648C27.8404 30.0331 29.7976 30.7405 32.965 31.0574C36.752 31.4332 37.0473 31.9938 37.0473 32.7481C37.0473 34.0586 36.0108 34.6169 33.573 34.6169C30.5127 34.6169 29.841 33.8385 29.6152 32.2952C29.5892 32.13 29.4502 32.0081 29.2852 32.0081H27.7912C27.6056 32.0081 27.4562 32.1578 27.4562 32.3457Z" fill="#00DCE6"/>
</svg>
