<svg width="190" height="50" viewBox="0 0 190 50" fill="none" xmlns="http://www.w3.org/2000/svg">
<path d="M107.116 28.8261V9.91304L105.646 9L98.6345 12.7246V14.4928C98.6345 14.4928 100.077 15.4493 100.077 16.1304V18.6232C100.077 18.6232 100.077 19.2029 100.077 20.087C100.577 20.5652 101.033 21.0725 101.448 21.6232L100.077 21.4493C100.077 20.942 100.077 20.4783 100.077 20.087C97.9491 18.0435 95.079 16.7971 91.9232 16.7971C85.3548 16.7971 80 22.2319 80 28.8986C80 35.5652 85.3548 41 91.9232 41C96.1357 41 99.8483 38.7681 101.962 35.4203C101.705 35.0145 101.476 34.5942 101.276 34.1594L102.747 33.971C102.519 34.4638 102.261 34.9565 101.962 35.4058C104.075 38.7536 107.788 40.9855 112 40.9855V33.7826C109.301 33.7826 107.116 31.5652 107.116 28.8261ZM103.375 25.5217C103.504 25.971 103.604 26.4203 103.689 26.8841L100.091 26.4638C100.091 26.2899 100.091 26.1159 100.091 25.942L103.375 25.5217ZM100.077 24.7826C100.077 24.6087 100.077 24.4348 100.077 24.2609L102.79 23.913C102.975 24.3188 103.133 24.7391 103.275 25.1739L100.077 24.7826ZM103.718 27.1449C103.789 27.6087 103.832 28.087 103.832 28.5652L100.077 28.1304C100.077 27.971 100.077 27.7971 100.077 27.6087L103.718 27.1449ZM103.846 28.8116C103.846 28.8406 103.846 28.8696 103.846 28.8986C103.846 29.3478 103.818 29.7971 103.775 30.2319L100.12 29.8116C100.105 29.6377 100.091 29.4638 100.091 29.2899L103.846 28.8116ZM103.747 30.4928C103.689 30.9565 103.604 31.4058 103.49 31.8551L100.362 31.5072C100.319 31.3188 100.291 31.1304 100.248 30.942L103.747 30.4928ZM101.947 22.3478C102.162 22.6957 102.376 23.058 102.561 23.4203L100.091 23.1159C100.091 22.942 100.091 22.7681 100.091 22.5942L101.947 22.3478ZM91.9232 34.8261C88.6961 34.8261 86.083 32.1739 86.083 28.8986C86.083 25.6232 88.6961 22.971 91.9232 22.971C95.1504 22.971 97.7635 25.6232 97.7635 28.8986C97.7635 32.1739 95.1504 34.8261 91.9232 34.8261ZM100.876 33.2319C100.791 33.0145 100.719 32.7826 100.648 32.5507L103.39 32.2029C103.275 32.6232 103.133 33.0435 102.961 33.4493L100.876 33.2319Z" fill="#818592"/>
<path d="M142.013 19.2393L137.49 32.9122L133.156 19.2393H127.562L123.007 32.7879L118.674 19.2393H112.401L119.383 40.4634H125.907L130.209 27.5518L134.323 40.4634H140.847L147.828 19.2393H142.013Z" fill="#818592"/>
<path d="M155.251 19.2393L145.749 40.4634H151.958L153.644 36.3459H162.753L164.439 40.4634H170.774L161.256 19.2393H155.251ZM155.44 31.9178L158.214 25.1279L160.988 31.9178H155.44Z" fill="#818592"/>
<path d="M184.106 19.2393L179 27.6761L173.894 19.2393H167.464L175.674 32.7568V40.4634H181.758V32.85L190 19.2393H184.106Z" fill="#818592"/>
<path d="M140.847 40.4629L147.056 21.585C144.361 22.8124 141.887 24.3972 139.681 26.3083L137.49 32.9273L136.434 29.5867C134.969 31.2958 133.692 33.1759 132.636 35.1957L134.322 40.494H140.847V40.4629Z" fill="#818592"/>
<path d="M155.251 19.2393L145.748 40.4634H151.957L153.643 36.3459H162.752L164.439 40.4634H170.774L161.255 19.2393H155.251ZM155.44 31.9178L158.214 25.1279L160.987 31.9178H155.44Z" fill="#818592"/>
<path d="M175.675 40.4633H181.758V32.85L183.492 29.9911C182.389 28.6549 181.16 27.3963 179.836 26.2621L178.985 27.676L176.7 23.9004C174.021 22.1447 171.042 20.7929 167.875 19.9229L175.675 32.7723V40.4633Z" fill="#818592"/>
<path d="M140.847 40.4629L147.056 21.585C144.361 22.8124 141.887 24.3972 139.681 26.3083L137.49 32.9273L136.434 29.5867C134.969 31.2958 133.692 33.1759 132.636 35.1957L134.322 40.494H140.847V40.4629Z" fill="#818592"/>
<path d="M155.25 19.2393L145.748 40.4634H151.957L153.643 36.3459H162.752L164.438 40.4634H170.773L161.255 19.2393H155.25ZM155.44 31.9178L158.213 25.1279L160.987 31.9178H155.44Z" fill="#818592"/>
<path d="M175.675 40.4633H181.758V32.85L183.492 29.9911C182.389 28.6549 181.16 27.3963 179.836 26.2621L178.985 27.676L176.7 23.9004C174.021 22.1447 171.042 20.7929 167.875 19.9229L175.675 32.7723V40.4633Z" fill="#818592"/>
</svg>
