<svg width="60" height="60" viewBox="0 0 60 60" fill="none" xmlns="http://www.w3.org/2000/svg">
<rect width="60" height="60" fill="black" fill-opacity="0"/>
<circle opacity="0.1" cx="30" cy="30" r="30" fill="#00DCE6"/>
<path d="M24.5269 33.7491C24.8361 34.08 25.2093 34.345 25.624 34.5283C26.0387 34.7116 26.4863 34.8092 26.9398 34.8155C27.062 34.3633 27.21 33.9184 27.3831 33.4831L27.4536 33.2957C27.5438 33.0531 27.6499 32.8188 27.7613 32.5709C28.3046 31.3678 28.9806 29.8707 28.2015 26.2787C28.05 25.585 27.6893 25.1814 27.0951 25.0454C25.7932 24.7484 23.9676 25.7255 23.5736 26.0716C23.5773 26.1472 23.5834 26.25 23.5902 26.3641C23.6387 27.1765 23.7282 28.6903 23.4849 30.4277C23.3106 31.6686 23.691 32.8793 24.5269 33.7491ZM26.0175 25.8487C26.0237 25.8091 26.0378 25.7712 26.059 25.7371C26.0803 25.7031 26.1082 25.6737 26.141 25.6507C26.2987 25.5321 26.6094 25.4875 26.9527 25.5358C27.1457 25.559 27.3328 25.6168 27.5051 25.7066C27.7605 25.8487 27.7787 26.0089 27.7673 26.0921C27.7461 26.2432 27.5953 26.3981 27.4642 26.4888C27.312 26.5941 27.1318 26.6514 26.9466 26.6536C26.9091 26.6533 26.8716 26.6508 26.8344 26.646C26.5639 26.5984 26.3224 26.4481 26.1607 26.2266C26.0971 26.1472 25.9978 25.99 26.0175 25.8487ZM23.8456 34.4013C22.8074 33.3214 22.3353 31.825 22.549 30.2969C22.7801 28.6525 22.6937 27.1984 22.6475 26.4193C22.6346 26.2062 22.6255 26.0512 22.6255 25.9424C22.6187 25.6583 22.5551 21.0188 25.2514 18.3035L25.3226 18.2347C23.6797 17.7012 19.5905 16.6477 17.1033 18.407C15.5756 19.4877 14.8738 21.4995 15.0186 24.3849C15.064 25.2978 15.643 28.552 16.6335 31.791C17.7785 35.5311 19.0767 37.8898 20.1952 38.2623C20.3665 38.3198 20.8894 38.4928 21.6457 37.5867C22.7142 36.302 23.7183 35.213 24.1798 34.7202C24.0631 34.6197 23.9515 34.5132 23.8456 34.4013ZM38.9133 34.9893C38.8451 34.891 38.7549 34.7792 38.6624 34.6636C38.3593 34.2857 37.9448 33.7695 37.625 32.9957C37.5757 32.8778 37.4204 32.5989 37.24 32.277C36.2549 30.5184 34.2088 26.8591 35.5334 24.9743C36.1397 24.1075 37.3408 23.7606 39.1035 23.939C38.8686 23.2445 38.2813 21.9567 37.1968 20.6787C35.9373 19.1952 33.7109 17.4147 30.2249 17.3581C28.4569 17.3286 27.008 17.8697 25.9198 18.9663C24.1897 20.709 23.7297 23.4515 23.6092 24.9192C23.6895 24.8746 23.7759 24.8285 23.8706 24.7801C24.3086 24.5587 25.187 24.1755 26.1441 24.0735C27.7453 23.908 28.8025 24.6206 29.1185 26.0792C29.9635 29.975 29.1852 31.6988 28.6168 32.9564C28.5115 33.1891 28.4122 33.4098 28.3334 33.6222L28.2622 33.8111C28.1022 34.2127 27.9648 34.623 27.8507 35.0399C28.269 34.9326 28.6176 35.0769 28.807 35.1548C29.2845 35.3528 29.6823 35.8281 29.846 36.3972C29.8721 36.4879 29.8916 36.5803 29.9044 36.6738C29.9194 36.7227 29.9263 36.7738 29.9248 36.8249C29.8149 40.7358 29.9695 44.2772 30.2848 45.0624C30.7728 46.2784 31.5124 47.3432 33.6048 46.8958C35.6213 46.4643 36.339 45.7403 36.6754 43.7973C36.9301 42.3244 37.4333 38.1573 37.5015 37.2701C37.4204 35.4971 38.3798 35.1404 38.9133 34.9893ZM39.5779 35.9105C39.5321 35.8805 39.4878 35.8482 39.4453 35.8138C39.3808 35.8364 39.3142 35.8553 39.2452 35.8742C38.8087 35.9967 38.3964 36.1123 38.4503 37.2172C38.5654 37.3101 39.0565 37.4628 40.0121 37.4174C40.8798 37.3766 41.7937 37.1907 42.3401 36.9345C42.8303 36.7166 43.2838 36.4245 43.6845 36.0685L43.6633 36.073C41.7225 36.4728 40.3478 36.4176 39.5764 35.9105H39.5779ZM28.4516 36.0269C28.1955 35.9211 28.0538 35.8629 27.7446 36.2075C27.5369 36.4388 27.3869 36.6285 27.255 36.7962C26.6783 37.5263 26.4146 37.7734 24.705 38.1248C24.4743 38.1655 24.2491 38.2321 24.0336 38.3236C24.2273 38.4479 24.4403 38.5393 24.6641 38.5941C25.9243 38.9085 27.6794 38.9304 28.8836 37.2489C29.026 37.0494 28.9829 36.7955 28.9434 36.6579C28.8616 36.3723 28.6593 36.113 28.4516 36.0269ZM37.8614 20.0054C39.3664 21.7526 40.1046 23.682 40.1659 24.3274C40.1753 24.4118 40.1699 24.4972 40.15 24.5798C40.1743 25.2524 40.0879 25.823 40.0023 26.3739C39.9193 26.8536 39.8666 27.338 39.8446 27.8242C39.828 28.3328 39.8931 28.8747 39.9621 29.4483C40.1311 30.8464 40.3198 32.4228 39.3558 34.0166L39.4028 34.0756L39.5165 34.2184C43.2609 28.3419 44.5545 21.5312 43.3814 20.0341C41.8498 18.0821 39.687 17.0618 36.952 17.0021C36.0293 16.985 35.1076 17.0715 34.2042 17.2598C35.6129 17.892 36.8623 18.8298 37.8614 20.0046V20.0054ZM39.0686 26.2303C39.1466 25.7906 39.1934 25.3458 39.2088 24.8995C37.3431 24.6683 36.6004 25.0975 36.3071 25.5147C35.322 26.9166 37.2446 30.3513 38.0653 31.819C38.276 32.1968 38.4283 32.4682 38.498 32.6374C38.571 32.8131 38.6545 32.9842 38.7481 33.1498C39.3119 31.9527 39.1664 30.739 39.0247 29.5609C38.9542 28.9774 38.8814 28.3744 38.9004 27.794C38.9228 27.2694 38.979 26.7469 39.0686 26.2296V26.2303ZM38.1289 25.9583C37.9854 26.1139 37.7944 26.218 37.5856 26.2545C37.5524 26.2591 37.519 26.2613 37.4855 26.2613C37.0945 26.2613 36.7641 25.95 36.7383 25.7678C36.7065 25.5328 37.0907 25.3552 37.4863 25.3C37.8819 25.2449 38.3002 25.3114 38.3328 25.5457C38.3479 25.6499 38.2676 25.8124 38.1289 25.9575V25.9583Z" fill="#00DCE6"/>
</svg>
