<svg width="60" height="60" viewBox="0 0 60 60" fill="none" xmlns="http://www.w3.org/2000/svg">
<rect width="60" height="60" fill="black" fill-opacity="0"/>
<circle opacity="0.1" cx="30" cy="30" r="30" fill="#00DCE6"/>
<path fill-rule="evenodd" clip-rule="evenodd" d="M23.2348 19.0987C23.2348 19.0987 22.7909 16 29.8991 16C37.3274 16 36.7535 19.7359 36.7535 19.7359V25.9093C36.7535 29.6429 32.9737 29.5815 32.9737 29.5815H26.246C22.2116 29.5815 22.3394 33.5723 22.3394 33.5723V36.9179H19.97C19.97 36.9179 16 37.1736 16 29.9639C16 22.7541 20.5485 23.2727 20.5485 23.2727H30.0258V22.3088H23.2427L23.2348 19.0987ZM27.3792 19.3854C27.3792 18.707 26.8337 18.1587 26.1588 18.1587C25.484 18.1587 24.9385 18.707 24.9385 19.3854C24.9385 20.0638 25.484 20.6121 26.1588 20.6121C26.8337 20.6121 27.3792 20.0638 27.3792 19.3854Z" fill="#00DCE6"/>
<path fill-rule="evenodd" clip-rule="evenodd" d="M36.7652 40.9013C36.7652 40.9013 37.2091 44 30.1009 44C22.6726 44 23.2465 40.2641 23.2465 40.2641V34.0907C23.2465 30.3571 27.0263 30.4185 27.0263 30.4185H33.754C37.7884 30.4185 37.6606 26.4277 37.6606 26.4277V23.0821H40.03C40.03 23.0821 44 22.8264 44 30.0361C44 37.2459 39.4515 36.7273 39.4515 36.7273H29.9742V37.6912H36.7573L36.7652 40.9013ZM32.6208 40.6146C32.6208 41.293 33.1663 41.8413 33.8412 41.8413C34.5161 41.8413 35.0615 41.293 35.0615 40.6146C35.0615 39.9362 34.5161 39.3879 33.8412 39.3879C33.1663 39.3879 32.6208 39.9362 32.6208 40.6146Z" fill="#00DCE6"/>
</svg>
