<svg width="60" height="60" viewBox="0 0 60 60" fill="none" xmlns="http://www.w3.org/2000/svg">
<rect width="60" height="60" fill="black" fill-opacity="0"/>
<circle opacity="0.1" cx="30" cy="30" r="30" fill="#00DCE6"/>
<path d="M33.1602 29.5035C33.1602 31.2944 31.7422 32.7462 29.9931 32.7462C28.2439 32.7462 26.8259 31.2944 26.8259 29.5035C26.8259 27.7127 28.2439 26.2609 29.9931 26.2609C31.7422 26.2609 33.1602 27.7127 33.1602 29.5035Z" fill="#00DCE6"/>
<path fill-rule="evenodd" clip-rule="evenodd" d="M39.8549 23.6569C44.1794 25.0121 47 27.1975 47 29.5035C47 31.8025 44.1932 33.9879 39.8965 35.3431C40.9013 39.8416 40.4647 43.4248 38.5173 44.5743C38.0599 44.8439 37.5332 44.9716 36.9511 44.9716C35.0452 44.9716 32.5503 43.5951 30.0277 41.1968C27.5051 43.6093 25.0102 45 23.1044 45C22.5222 45 21.9955 44.8723 21.545 44.6027C19.5907 43.4532 19.1472 39.8629 20.1451 35.3502C15.8206 33.995 13 31.8096 13 29.5035C13 27.2046 15.8068 25.0263 20.1174 23.664C19.1125 19.1655 19.5491 15.5823 21.4965 14.4328C21.9539 14.1632 22.4806 14.0355 23.0628 14.0355V14.0284C24.9686 14.0284 27.4635 15.4049 29.9861 17.8032C32.5088 15.3907 35.0037 14 36.9095 14V14.0071C37.482 14.0081 38.0063 14.1359 38.455 14.4044C40.4093 15.5539 40.8528 19.1442 39.8549 23.6569ZM36.9026 15.5823C35.4612 15.5861 33.3437 16.7636 31.088 18.91C32.0652 19.9531 33.0355 21.1451 33.9711 22.4578C35.5304 22.6281 37.0134 22.8906 38.3718 23.2312C38.5243 22.5145 38.649 21.8121 38.7252 21.1451C39.044 18.4347 38.6351 16.3273 37.6926 15.7739C37.4778 15.6532 37.2214 15.5894 36.9026 15.5894V15.5823ZM28.8842 18.9171C26.625 16.7814 24.4973 15.6107 23.0628 15.6107V15.6178C22.744 15.6178 22.4737 15.6745 22.2658 15.8022C21.3302 16.3628 20.9282 18.4701 21.254 21.1806C21.3371 21.8405 21.455 22.5287 21.6143 23.2383C22.9727 22.8906 24.4558 22.6281 26.022 22.4578C26.9437 21.1451 27.914 19.9602 28.8842 18.9171ZM37.0412 27.5736C37.4015 26.6299 37.7203 25.6862 37.9768 24.7709C37.0689 24.5438 36.1194 24.3593 35.1353 24.2103C35.4749 24.7496 35.8145 25.303 36.1333 25.8707C36.459 26.4383 36.757 27.0059 37.0412 27.5736ZM33.1325 35.038C33.7077 34.1936 34.2621 33.2854 34.8027 32.3275C35.3225 31.398 35.8006 30.4472 36.2373 29.4965C35.8006 28.5457 35.3225 27.602 34.7958 26.6725C34.2552 25.7217 33.6938 24.8206 33.1186 23.9762C32.0929 23.891 31.0465 23.8414 30 23.8414C28.9466 23.8414 27.9001 23.891 26.8675 23.9833C26.2923 24.8276 25.7379 25.7359 25.1973 26.6938C24.6775 27.6233 24.1924 28.574 23.7627 29.5248C24.1993 30.4756 24.6775 31.4193 25.2042 32.3488C25.7448 33.2996 26.3062 34.2007 26.8814 35.0451C27.9071 35.1302 28.9535 35.1799 30 35.1799C31.0534 35.1799 32.0999 35.1302 33.1325 35.038ZM37.9976 34.2291C37.7342 33.3067 37.4154 32.3559 37.0412 31.4051C36.757 31.9728 36.459 32.5475 36.1402 33.1151C35.8214 33.6899 35.4819 34.2504 35.1423 34.7967C36.1333 34.6477 37.0897 34.4562 37.9976 34.2291ZM28.0872 36.7054C28.7248 37.5356 29.3693 38.2948 30.0139 38.976C30.6514 38.2948 31.296 37.5356 31.9197 36.7054C31.289 36.7409 30.6445 36.7551 29.9931 36.7551C29.3485 36.7551 28.711 36.7338 28.0872 36.7054ZM22.0163 34.2362C22.9242 34.4633 23.8736 34.6477 24.8577 34.7967C24.5181 34.2575 24.1855 33.7041 23.8598 33.1364C23.534 32.5688 23.236 32.0011 22.9519 31.4335C22.5915 32.3772 22.2727 33.3209 22.0163 34.2362ZM31.9058 22.3017C31.2682 21.4715 30.6237 20.7123 29.9792 20.0311C29.3416 20.7123 28.6971 21.4715 28.0734 22.3017C28.704 22.2662 29.3485 22.252 30 22.252C30.6445 22.252 31.2821 22.2733 31.9058 22.3017ZM23.8528 25.892C24.1716 25.3172 24.5112 24.7567 24.8508 24.2103C23.8598 24.3593 22.9034 24.5509 21.9955 24.7709C22.2589 25.6933 22.5777 26.6441 22.9519 27.5949C23.236 27.0272 23.534 26.4596 23.8528 25.892ZM14.5385 29.5035C14.5385 30.6175 16.1256 32.0224 18.5789 33.0938C19.1818 33.3564 19.8333 33.5976 20.5194 33.8176C20.9075 32.434 21.4203 30.9936 22.0579 29.5177C21.4134 28.0348 20.8936 26.5873 20.4986 25.1966C19.8263 25.4166 19.1749 25.6507 18.5789 25.9133C16.1256 26.9776 14.5385 28.3896 14.5385 29.5035ZM21.2748 37.862C20.956 40.5724 21.3649 42.6798 22.3074 43.2332C22.5153 43.3539 22.7786 43.4177 23.0905 43.4248C24.532 43.4248 26.6527 42.247 28.9119 40.097C27.9348 39.054 26.9645 37.862 26.0289 36.5493C24.4696 36.379 22.9865 36.1165 21.6282 35.7759C21.4757 36.4926 21.351 37.195 21.2748 37.862ZM37.7342 43.2048C38.6698 42.6443 39.0717 40.537 38.746 37.8265C38.6698 37.1666 38.545 36.4784 38.3856 35.7617C37.0273 36.1094 35.5442 36.3719 33.978 36.5422C33.0563 37.8549 32.086 39.0398 31.1158 40.0829C33.3751 42.2186 35.5026 43.3893 36.9372 43.3893C37.256 43.3893 37.5263 43.3326 37.7342 43.2048ZM39.4945 33.8105C40.1667 33.5905 40.8182 33.3564 41.4142 33.0938C43.8675 32.0295 45.4545 30.6175 45.4615 29.5035C45.4615 28.3896 43.8744 26.9847 41.4211 25.9133C40.8112 25.6507 40.1598 25.4095 39.4737 25.1895C39.0856 26.5731 38.5728 28.0135 37.9352 29.4894C38.5797 30.9723 39.0995 32.4198 39.4945 33.8105Z" fill="#00DCE6"/>
</svg>
