<svg width="70" height="46" viewBox="0 0 70 46" fill="none" xmlns="http://www.w3.org/2000/svg">
<mask id="path-1-inside-1" fill="white">
<path fill-rule="evenodd" clip-rule="evenodd" d="M19 8H22V46H46.9706V45H23V8H49V13H50V8H52.5L48 0H23.5L19 8ZM50.7902 7L47.4152 1H24.0848L20.7098 7H50.7902Z"/>
<path fill-rule="evenodd" clip-rule="evenodd" d="M26 13V20H32V13H26ZM31 14H27V19H31V14Z"/>
<path fill-rule="evenodd" clip-rule="evenodd" d="M26 24H32V31H26V24ZM27 25H31V30H27V25Z"/>
<path fill-rule="evenodd" clip-rule="evenodd" d="M26 35V42H32V35H26ZM31 36H27V41H31V36Z"/>
<path d="M17 13H18V46H17V13Z"/>
<path d="M13 20H12V46H13V20Z"/>
<path d="M49 37.0508C49.0758 37.0548 49.1541 37.0568 49.2351 37.0568C49.3133 37.0568 49.3886 37.0547 49.4611 37.0508C49.6613 37.0398 49.84 37.0141 50 36.9761V33.1881C49.7271 33.0331 49.3962 32.8738 49 32.713V37.0508Z"/>
<path d="M50 26.5382V22.3128C49.9011 22.2802 49.7954 22.256 49.682 22.2406C49.5824 22.2271 49.4768 22.2203 49.3647 22.2203C49.2328 22.2203 49.1115 22.2274 49 22.2406V26.0609C49.2773 26.2112 49.6086 26.3708 50 26.5382Z"/>
<path fill-rule="evenodd" clip-rule="evenodd" d="M50.8382 33.8169L50.8311 33.809C50.5024 33.4493 49.8447 33.0287 48.7192 32.6031C47.5171 32.1484 46.4662 31.6941 45.5717 31.2387L45.5627 31.2341C44.6431 30.7543 43.8339 30.2008 43.1447 29.5687L43.138 29.5625L43.1313 29.5562C42.4308 28.8896 41.88 28.1084 41.4816 27.2198L41.4768 27.2091C41.0748 26.2832 40.8916 25.223 40.8916 24.0563C40.8916 21.9873 41.5586 20.2185 42.9333 18.8363C44.0948 17.6686 45.5654 16.9411 47.2948 16.6207V13H51.8885V16.707C53.6289 17.1134 55.0695 17.9766 56.1552 19.3186C57.4127 20.8619 58 22.8239 58 25.1157V26.1157H51.3151V25.1157C51.3151 23.9232 51.0638 23.2269 50.7399 22.8427L50.7341 22.8357L50.7284 22.8287C50.403 22.4282 49.984 22.2203 49.3647 22.2203C48.6776 22.2203 48.2818 22.4117 48.0302 22.6759L48.0227 22.6837C47.7647 22.949 47.5765 23.3665 47.5765 24.0726C47.5765 24.6955 47.7495 25.0934 48.0143 25.3717C48.3351 25.7089 49.0465 26.1547 50.3066 26.6658C51.6241 27.1957 52.7293 27.7072 53.6109 28.2019C54.513 28.697 55.2954 29.274 55.9453 29.939C56.6096 30.6077 57.1203 31.381 57.4725 32.2527C57.8339 33.1362 58 34.133 58 35.2208C58 37.2929 57.3487 39.0591 55.9907 40.4244C54.8347 41.5867 53.3329 42.3044 51.5481 42.6255V46H46.9706V42.6388C44.9736 42.2765 43.3181 41.442 42.0774 40.0841L42.0717 40.0779C40.6607 38.5072 40 36.4623 40 34.0473V33.0473H46.6849V34.0473C46.6849 35.1903 46.9514 35.915 47.3416 36.3672C47.7234 36.7879 48.3031 37.0568 49.2351 37.0568C50.0059 37.0568 50.4922 36.8585 50.8126 36.5699C51.1272 36.2765 51.3151 35.8744 51.3151 35.2534C51.3151 34.5554 51.1257 34.1185 50.8455 33.8245L50.8382 33.8169ZM46.5927 37.03C45.9875 36.3346 45.6849 35.3403 45.6849 34.0473H41C41 34.0477 41 34.0481 41 34.0485C41 34.3919 41.0145 34.7248 41.0433 35.0473C41.2012 36.8161 41.792 38.2702 42.8156 39.4096C44.0368 40.7461 45.7552 41.5338 47.9706 41.7729V45H50.5481V41.7566C52.5583 41.5501 54.1361 40.871 55.2817 39.7192C56.4272 38.5675 57 37.068 57 35.2208C57 34.232 56.8487 33.3682 56.5461 32.6293C56.2435 31.8796 55.8058 31.2168 55.233 30.6409C54.6602 30.0542 53.9578 29.5326 53.1256 29.0762C52.2935 28.609 51.229 28.1146 49.9321 27.5931C48.6461 27.0715 47.7653 26.5608 47.2898 26.061C46.8143 25.5612 46.5765 24.8984 46.5765 24.0726C46.5765 23.1816 46.8197 22.4862 47.306 21.9863C47.7923 21.4756 48.4786 21.2203 49.3647 21.2203C50.2617 21.2203 50.975 21.5463 51.5046 22.1982C52.0449 22.8393 52.3151 23.8118 52.3151 25.1157H57C57 24.7719 56.9858 24.4386 56.9573 24.1157C56.8104 22.4484 56.2843 21.0595 55.3789 19.949C54.2982 18.6125 52.8014 17.8084 50.8885 17.5368V14H48.2948V17.4879C46.3603 17.6835 44.8095 18.368 43.6424 19.5415C42.4752 20.715 41.8916 22.2199 41.8916 24.0563C41.8916 25.1211 42.0591 26.0393 42.3941 26.8107C42.74 27.5822 43.2155 28.2559 43.8207 28.8318C44.4367 29.3968 45.1716 29.902 46.0253 30.3475C46.8791 30.7822 47.895 31.2222 49.0729 31.6677C50.2509 32.1132 51.0831 32.6022 51.5694 33.1346C52.0665 33.6562 52.3151 34.3624 52.3151 35.2534C52.3151 36.1118 52.0395 36.7964 51.4883 37.307C50.9372 37.8069 50.1861 38.0568 49.2351 38.0568C48.0895 38.0568 47.2087 37.7145 46.5927 37.03Z"/>
</mask>
<path d="M19 8L18.1284 7.50974L17.2902 9H19V8ZM22 8H23V7H22V8ZM22 46H21V47H22V46ZM46.9706 45H47.9706V44H46.9706V45ZM23 45H22V46H23V45ZM23 8V7H22V8H23ZM49 8H50V7H49V8ZM49 13H48V14H49V13ZM50 13V14H51V13H50ZM50 8V7H49V8H50ZM52.5 8V9H54.2098L53.3716 7.50974L52.5 8ZM48 0L48.8716 -0.490261L48.5848 -1H48V0ZM23.5 0V-1H22.9152L22.6284 -0.490261L23.5 0ZM50.7902 7V8H52.5L51.6617 6.50974L50.7902 7ZM47.4152 1L48.2867 0.509739L48 0H47.4152V1ZM24.0848 1V0H23.5L23.2133 0.509739L24.0848 1ZM20.7098 7L19.8383 6.50974L19 8H20.7098V7ZM27 14V13H26V14H27ZM31 14H32V13H31V14ZM27 19H26V20H27V19ZM31 19V20H32V19H31ZM26 13V12H25V13H26ZM26 20H25V21H26V20ZM32 20V21H33V20H32ZM32 13H33V12H32V13ZM31 25H32V24H31V25ZM27 25V24H26V25H27ZM31 30V31H32V30H31ZM27 30H26V31H27V30ZM26 24V23H25V24H26ZM32 24H33V23H32V24ZM32 31V32H33V31H32ZM26 31H25V32H26V31ZM27 36V35H26V36H27ZM31 36H32V35H31V36ZM27 41H26V42H27V41ZM31 41V42H32V41H31ZM26 35V34H25V35H26ZM26 42H25V43H26V42ZM32 42V43H33V42H32ZM32 35H33V34H32V35ZM18 13H19V12H18V13ZM17 13V12H16V13H17ZM18 46V47H19V46H18ZM17 46H16V47H17V46ZM12 20V19H11V20H12ZM13 20H14V19H13V20ZM12 46H11V47H12V46ZM13 46V47H14V46H13ZM49 37.0508H48V37.9995L48.9475 38.0494L49 37.0508ZM49.4611 37.0508L49.4064 36.0523L49.4063 36.0523L49.4611 37.0508ZM50 36.9761L50.2312 37.949L51 37.7664V36.9761H50ZM50 33.1881H51V32.6058L50.4936 32.3184L50 33.1881ZM49 32.713L49.376 31.7864L48 31.2281V32.713H49ZM50 26.5382L49.6068 27.4576L51 28.0534V26.5382H50ZM50 22.3128H51V21.59L50.3137 21.3633L50 22.3128ZM49.682 22.2406L49.5474 23.2315L49.5474 23.2315L49.682 22.2406ZM49 22.2406L48.8817 21.2477L48 21.3527V22.2406H49ZM49 26.0609H48V26.6564L48.5235 26.9401L49 26.0609ZM50.8382 33.8169L50.0999 34.4913L50.107 34.4991L50.1143 34.5067L50.8382 33.8169ZM50.8311 33.809L50.0927 34.4834L50.0927 34.4834L50.8311 33.809ZM48.7192 32.6031L49.073 31.6677L49.0729 31.6677L48.7192 32.6031ZM45.5717 31.2387L45.1179 32.1298L45.118 32.1299L45.5717 31.2387ZM45.5627 31.2341L45.1001 32.1207L45.109 32.1253L45.5627 31.2341ZM43.1447 29.5687L42.4688 30.3056L42.4688 30.3057L43.1447 29.5687ZM43.138 29.5625L42.4487 30.287L42.4553 30.2933L42.462 30.2994L43.138 29.5625ZM43.1313 29.5562L42.442 30.2806L42.442 30.2807L43.1313 29.5562ZM41.4816 27.2198L42.3941 26.8107L42.3941 26.8107L41.4816 27.2198ZM41.4768 27.2091L40.5595 27.6074L40.5643 27.6182L41.4768 27.2091ZM42.9333 18.8363L42.2243 18.1311L42.2243 18.1311L42.9333 18.8363ZM47.2948 16.6207L47.477 17.604L48.2948 17.4525V16.6207H47.2948ZM47.2948 13V12H46.2948V13H47.2948ZM51.8885 13H52.8885V12H51.8885V13ZM51.8885 16.707H50.8885V17.5004L51.6611 17.6808L51.8885 16.707ZM56.1552 19.3186L55.3778 19.9476L55.38 19.9503L56.1552 19.3186ZM58 26.1157V27.1157H59V26.1157H58ZM51.3151 26.1157H50.3151V27.1157H51.3151V26.1157ZM50.7399 22.8427L51.5046 22.1982L51.5044 22.198L50.7399 22.8427ZM50.7341 22.8357L49.9578 23.4662L49.9637 23.4733L49.9696 23.4804L50.7341 22.8357ZM50.7284 22.8287L51.5046 22.1983L51.5046 22.1982L50.7284 22.8287ZM48.0302 22.6759L48.7543 23.3656L48.7543 23.3656L48.0302 22.6759ZM48.0227 22.6837L48.7395 23.3811L48.7469 23.3734L48.0227 22.6837ZM48.0143 25.3717L47.2898 26.061L47.2898 26.061L48.0143 25.3717ZM50.3066 26.6658L49.9307 27.5925L49.9334 27.5936L50.3066 26.6658ZM53.6109 28.2019L53.1216 29.074L53.1297 29.0785L53.6109 28.2019ZM55.9453 29.939L55.2301 30.638L55.2358 30.6437L55.9453 29.939ZM57.4725 32.2527L56.5453 32.6273L56.5469 32.6313L57.4725 32.2527ZM55.9907 40.4244L55.2817 39.7192L55.2817 39.7192L55.9907 40.4244ZM51.5481 42.6255L51.3711 41.6413L50.5481 41.7893V42.6255H51.5481ZM51.5481 46V47H52.5481V46H51.5481ZM46.9706 42.6388H47.9706V41.8039L47.1491 41.6549L46.9706 42.6388ZM42.0774 40.0841L41.3391 40.7586L41.3391 40.7587L42.0774 40.0841ZM42.0717 40.0779L41.3277 40.7462L41.3334 40.7523L42.0717 40.0779ZM40 33.0473V32.0473H39V33.0473H40ZM46.6849 33.0473H47.6849V32.0473H46.6849V33.0473ZM47.3416 36.3672L46.5845 37.0205L46.5927 37.03L46.6011 37.0393L47.3416 36.3672ZM50.8126 36.5699L51.4818 37.3129L51.4883 37.3071L51.4946 37.3012L50.8126 36.5699ZM50.8455 33.8245L50.1216 34.5144L50.1217 34.5145L50.8455 33.8245ZM46.5927 37.03L45.8384 37.6865L45.8438 37.6927L45.8494 37.6989L46.5927 37.03ZM45.6849 34.0473H46.6849V33.0473H45.6849V34.0473ZM41 34.0473V33.0473H40V34.0473H41ZM41 34.0485L40 34.0485L40 34.0486L41 34.0485ZM41.0433 35.0473L42.0393 34.9583L42.0393 34.9583L41.0433 35.0473ZM42.8156 39.4096L42.0717 40.0779L42.0774 40.0841L42.8156 39.4096ZM47.9706 41.7729H48.9706V40.875L48.0779 40.7786L47.9706 41.7729ZM47.9706 45H46.9706V46H47.9706V45ZM50.5481 45V46H51.5481V45H50.5481ZM50.5481 41.7566L50.446 40.7618L49.5481 40.854V41.7566H50.5481ZM55.2817 39.7192L54.5726 39.014L54.5726 39.014L55.2817 39.7192ZM56.5461 32.6293L55.6188 33.0036L55.6207 33.0083L56.5461 32.6293ZM55.233 30.6409L54.5174 31.3395L54.524 31.3461L55.233 30.6409ZM53.1256 29.0762L52.636 29.9482L52.6448 29.953L53.1256 29.0762ZM49.9321 27.5931L49.5563 28.5198L49.559 28.5208L49.9321 27.5931ZM47.306 21.9863L48.0227 22.6837L48.0301 22.6759L47.306 21.9863ZM51.5046 22.1982L50.7284 22.8287L50.7341 22.8357L50.7399 22.8427L51.5046 22.1982ZM52.3151 25.1157H51.3151V26.1157H52.3151V25.1157ZM57 25.1157V26.1157H58V25.1157H57ZM56.9573 24.1157L55.9612 24.2034L55.9612 24.2034L56.9573 24.1157ZM55.3789 19.949L54.6013 20.5778L54.6039 20.5809L55.3789 19.949ZM50.8885 17.5368H49.8885V18.4048L50.748 18.5269L50.8885 17.5368ZM50.8885 14H51.8885V13H50.8885V14ZM48.2948 14V13H47.2948V14H48.2948ZM48.2948 17.4879L48.3954 18.4828L49.2948 18.3919V17.4879H48.2948ZM42.3941 26.8107L41.4768 27.2091L41.4816 27.2198L42.3941 26.8107ZM43.8207 28.8318L43.1313 29.5562L43.138 29.5625L43.1447 29.5687L43.8207 28.8318ZM46.0253 30.3475L45.5627 31.2341L45.5717 31.2387L46.0253 30.3475ZM49.0729 31.6677L48.7192 32.6031L48.7192 32.6031L49.0729 31.6677ZM51.5694 33.1346L50.8311 33.809L50.8382 33.8169L50.8455 33.8246L51.5694 33.1346ZM51.4883 37.307L52.1602 38.0479L52.168 38.0406L51.4883 37.307ZM47.9706 46V45H45.9706V46H47.9706ZM49 14H50V12H49V14ZM23.5 1H48V-1H23.5V1ZM46.5436 1.49026L49.9186 7.49026L51.6617 6.50974L48.2867 0.509739L46.5436 1.49026ZM24.0848 2H47.4152V0H24.0848V2ZM21.5814 7.49026L24.9564 1.49026L23.2133 0.509739L19.8383 6.50974L21.5814 7.49026ZM27 15H31V13H27V15ZM28 19V14H26V19H28ZM31 18H27V20H31V18ZM30 14V19H32V14H30ZM31 24H27V26H31V24ZM32 30V25H30V30H32ZM27 31H31V29H27V31ZM26 25V30H28V25H26ZM27 37H31V35H27V37ZM28 41V36H26V41H28ZM31 40H27V42H31V40ZM30 36V41H32V36H30ZM18 12H17V14H18V12ZM17 47H18V45H17V47ZM12 21H13V19H12V21ZM13 45H12V47H13V45ZM49.2351 36.0568C49.1708 36.0568 49.11 36.0552 49.0525 36.0521L48.9475 38.0494C49.0415 38.0543 49.1374 38.0568 49.2351 38.0568V36.0568ZM49.4063 36.0523C49.3529 36.0552 49.2959 36.0568 49.2351 36.0568V38.0568C49.3307 38.0568 49.4242 38.0543 49.5158 38.0493L49.4063 36.0523ZM49.7688 36.0032C49.6732 36.0259 49.5541 36.0442 49.4064 36.0523L49.5158 38.0493C49.7684 38.0354 50.0068 38.0023 50.2312 37.949L49.7688 36.0032ZM49 33.1881V36.9761H51V33.1881H49ZM48.624 33.6396C48.9876 33.7872 49.278 33.9281 49.5064 34.0577L50.4936 32.3184C50.1761 32.1381 49.8048 31.9604 49.376 31.7864L48.624 33.6396ZM49.5474 23.2315C49.6047 23.2393 49.6501 23.2504 49.6863 23.2624L50.3137 21.3633C50.152 21.3099 49.986 21.2728 49.8166 21.2497L49.5474 23.2315ZM49.3647 23.2203C49.4365 23.2203 49.4967 23.2247 49.5474 23.2315L49.8166 21.2497C49.668 21.2296 49.5172 21.2203 49.3647 21.2203V23.2203ZM49.1183 23.2336C49.1867 23.2255 49.2683 23.2203 49.3647 23.2203V21.2203C49.1973 21.2203 49.0363 21.2292 48.8817 21.2477L49.1183 23.2336ZM50.3932 25.6187C50.0248 25.4612 49.7219 25.3148 49.4765 25.1817L48.5235 26.9401C48.8326 27.1076 49.1924 27.2804 49.6068 27.4576L50.3932 25.6187ZM51.5766 33.1424L51.5694 33.1346L50.0927 34.4834L50.0999 34.4913L51.5766 33.1424ZM51.5694 33.1346C51.0829 32.602 50.2505 32.1131 49.073 31.6677L48.3655 33.5384C49.4388 33.9443 49.922 34.2965 50.0927 34.4834L51.5694 33.1346ZM49.0729 31.6677C47.895 31.2222 46.8791 30.7822 46.0253 30.3475L45.118 32.1299C46.0532 32.606 47.1391 33.0746 48.3655 33.5384L49.0729 31.6677ZM46.0254 30.3476L46.0164 30.343L45.109 32.1253L45.1179 32.1298L46.0254 30.3476ZM46.0253 30.3476C45.1716 29.9021 44.4367 29.3968 43.8207 28.8318L42.4688 30.3057C43.2311 31.0049 44.1145 31.6064 45.1001 32.1207L46.0253 30.3476ZM43.8207 28.8318L43.8139 28.8256L42.462 30.2994L42.4688 30.3056L43.8207 28.8318ZM43.8273 28.838L43.8206 28.8317L42.442 30.2807L42.4487 30.287L43.8273 28.838ZM43.8207 28.8318C43.2155 28.2559 42.74 27.5822 42.3941 26.8107L40.5691 27.6288C41.02 28.6346 41.6461 29.5233 42.442 30.2806L43.8207 28.8318ZM42.3941 26.8107L42.3893 26.8L40.5643 27.6182L40.5691 27.6289L42.3941 26.8107ZM42.3941 26.8108C42.0591 26.0393 41.8916 25.1212 41.8916 24.0563H39.8916C39.8916 25.3248 40.0904 26.5271 40.5596 27.6074L42.3941 26.8108ZM41.8916 24.0563C41.8916 22.2197 42.4753 20.7149 43.6424 19.5415L42.2243 18.1311C40.6418 19.7222 39.8916 21.755 39.8916 24.0563H41.8916ZM43.6424 19.5415C44.6431 18.5354 45.9215 17.8921 47.477 17.604L47.1127 15.6375C45.2093 15.99 43.5466 16.8017 42.2243 18.1311L43.6424 19.5415ZM48.2948 16.6207V13H46.2948V16.6207H48.2948ZM47.2948 14H51.8885V12H47.2948V14ZM50.8885 13V16.707H52.8885V13H50.8885ZM51.6611 17.6808C53.2032 18.0409 54.4433 18.7926 55.3778 19.9476L56.9326 18.6896C55.6956 17.1607 54.0545 16.1859 52.116 15.7332L51.6611 17.6808ZM55.38 19.9503C56.4598 21.2756 57 22.9973 57 25.1157H59C59 22.6506 58.3655 20.4482 56.9304 18.6869L55.38 19.9503ZM57 25.1157V26.1157H59V25.1157H57ZM58 25.1157H51.3151V27.1157H58V25.1157ZM52.3151 26.1157V25.1157H50.3151V26.1157H52.3151ZM52.3151 25.1157C52.3151 23.8109 52.0446 22.8389 51.5046 22.1982L49.9753 23.4872C50.083 23.6149 50.3151 24.0354 50.3151 25.1157H52.3151ZM51.5044 22.198L51.4986 22.1911L49.9696 23.4804L49.9755 23.4873L51.5044 22.198ZM51.5103 22.2053L51.5046 22.1983L49.9521 23.4591L49.9578 23.4662L51.5103 22.2053ZM51.5046 22.1982C50.9757 21.5471 50.2629 21.2203 49.3647 21.2203V23.2203C49.7052 23.2203 49.8304 23.3092 49.9522 23.4592L51.5046 22.1982ZM49.3647 21.2203C48.4759 21.2203 47.7909 21.4772 47.306 21.9863L48.7543 23.3656C48.7767 23.3421 48.8111 23.3131 48.8844 23.2857C48.9648 23.2556 49.1123 23.2203 49.3647 23.2203V21.2203ZM47.306 21.9863L47.2986 21.994L48.7469 23.3734L48.7543 23.3656L47.306 21.9863ZM47.306 21.9864C46.8209 22.4849 46.5765 23.1793 46.5765 24.0726H48.5765C48.5765 23.8067 48.6121 23.6418 48.6463 23.5442C48.6785 23.4525 48.7138 23.4074 48.7395 23.3811L47.306 21.9864ZM46.5765 24.0726C46.5765 24.9 46.8152 25.5622 47.2898 26.061L48.7388 24.6825C48.7 24.6417 48.6653 24.5914 48.637 24.5127C48.607 24.4293 48.5765 24.292 48.5765 24.0726H46.5765ZM47.2898 26.061C47.7654 26.561 48.6463 27.0715 49.9307 27.5925L50.6825 25.7392C49.4466 25.2378 48.9047 24.8569 48.7388 24.6825L47.2898 26.061ZM49.9334 27.5936C51.2276 28.1141 52.2903 28.6076 53.1216 29.074L54.1002 27.3297C53.1683 26.8069 52.0207 26.2774 50.6797 25.738L49.9334 27.5936ZM53.1297 29.0785C53.9587 29.5335 54.6588 30.0534 55.2301 30.6379L56.6605 29.2401C55.9319 28.4946 55.0672 27.8605 54.0921 27.3252L53.1297 29.0785ZM55.2358 30.6437C55.8067 31.2184 56.2432 31.8796 56.5453 32.6273L58.3997 31.8781C57.9974 30.8824 57.4124 29.997 56.6548 29.2343L55.2358 30.6437ZM56.5469 32.6313C56.849 33.3697 57 34.2329 57 35.2208H59C59 34.0332 58.8188 32.9027 58.398 31.8741L56.5469 32.6313ZM57 35.2208C57 37.0683 56.427 38.5677 55.2817 39.7192L56.6997 41.1296C58.2703 39.5505 59 37.5174 59 35.2208H57ZM55.2817 39.7192C54.2954 40.7109 52.9922 41.3496 51.3711 41.6413L51.7252 43.6097C53.6735 43.2592 55.3741 42.4624 56.6997 41.1296L55.2817 39.7192ZM50.5481 42.6255V46H52.5481V42.6255H50.5481ZM51.5481 45H46.9706V47H51.5481V45ZM47.9706 46V42.6388H45.9706V46H47.9706ZM47.1491 41.6549C45.3281 41.3245 43.8838 40.5786 42.8156 39.4096L41.3391 40.7587C42.7525 42.3055 44.6191 43.2286 46.7921 43.6228L47.1491 41.6549ZM42.8157 39.4097L42.81 39.4034L41.3334 40.7523L41.3391 40.7586L42.8157 39.4097ZM42.8156 39.4096C41.6054 38.0624 41 36.2751 41 34.0473H39C39 36.6494 39.716 38.952 41.3278 40.7462L42.8156 39.4096ZM41 34.0473V33.0473H39V34.0473H41ZM40 34.0473H46.6849V32.0473H40V34.0473ZM45.6849 33.0473V34.0473H47.6849V33.0473H45.6849ZM45.6849 34.0473C45.6849 35.3354 45.9851 36.3259 46.5845 37.0205L48.0987 35.7139C47.9176 35.504 47.6849 35.0452 47.6849 34.0473H45.6849ZM46.6011 37.0393C47.2162 37.717 48.0935 38.0568 49.2351 38.0568V36.0568C48.5127 36.0568 48.2306 35.8587 48.0821 35.6951L46.6011 37.0393ZM49.2351 38.0568C50.1834 38.0568 50.9318 37.8083 51.4818 37.3129L50.1434 35.8268C50.0525 35.9087 49.8284 36.0568 49.2351 36.0568V38.0568ZM51.4946 37.3012C52.041 36.7917 52.3151 36.1095 52.3151 35.2534H50.3151C50.3151 35.4631 50.2835 35.5881 50.2539 35.6617C50.2263 35.7304 50.1888 35.7842 50.1306 35.8385L51.4946 37.3012ZM52.3151 35.2534C52.3151 34.3607 52.0656 33.6551 51.5694 33.1346L50.1217 34.5145C50.164 34.5589 50.2069 34.6199 50.2425 34.7205C50.2798 34.8262 50.3151 34.9938 50.3151 35.2534H52.3151ZM51.5695 33.1347L51.5622 33.127L50.1143 34.5067L50.1216 34.5144L51.5695 33.1347ZM47.347 36.3735C46.9538 35.9217 46.6849 35.1956 46.6849 34.0473H44.6849C44.6849 35.4851 45.0212 36.7474 45.8384 37.6865L47.347 36.3735ZM45.6849 33.0473H41V35.0473H45.6849V33.0473ZM40 34.0473C40 34.0473 40 34.0473 40 34.0473C40 34.0473 40 34.0473 40 34.0473C40 34.0473 40 34.0473 40 34.0473C40 34.0473 40 34.0473 40 34.0473C40 34.0473 40 34.0473 40 34.0473C40 34.0473 40 34.0473 40 34.0473C40 34.0473 40 34.0473 40 34.0473C40 34.0473 40 34.0473 40 34.0473C40 34.0473 40 34.0473 40 34.0473C40 34.0473 40 34.0473 40 34.0473C40 34.0473 40 34.0473 40 34.0473C40 34.0473 40 34.0473 40 34.0473C40 34.0473 40 34.0473 40 34.0473C40 34.0473 40 34.0473 40 34.0474C40 34.0474 40 34.0474 40 34.0474C40 34.0474 40 34.0474 40 34.0474C40 34.0474 40 34.0474 40 34.0474C40 34.0474 40 34.0474 40 34.0474C40 34.0474 40 34.0474 40 34.0474C40 34.0474 40 34.0474 40 34.0474C40 34.0474 40 34.0474 40 34.0474C40 34.0474 40 34.0474 40 34.0474C40 34.0474 40 34.0474 40 34.0474C40 34.0474 40 34.0474 40 34.0474C40 34.0474 40 34.0474 40 34.0474C40 34.0474 40 34.0474 40 34.0474C40 34.0474 40 34.0474 40 34.0474C40 34.0474 40 34.0474 40 34.0474C40 34.0474 40 34.0474 40 34.0474C40 34.0474 40 34.0474 40 34.0474C40 34.0474 40 34.0474 40 34.0474C40 34.0474 40 34.0474 40 34.0474C40 34.0474 40 34.0474 40 34.0474C40 34.0474 40 34.0474 40 34.0474C40 34.0474 40 34.0474 40 34.0474C40 34.0474 40 34.0474 40 34.0474C40 34.0474 40 34.0474 40 34.0474C40 34.0474 40 34.0474 40 34.0474C40 34.0474 40 34.0474 40 34.0474C40 34.0474 40 34.0474 40 34.0474C40 34.0474 40 34.0474 40 34.0474C40 34.0474 40 34.0474 40 34.0474C40 34.0474 40 34.0474 40 34.0474C40 34.0474 40 34.0474 40 34.0474C40 34.0474 40 34.0474 40 34.0474C40 34.0474 40 34.0474 40 34.0474C40 34.0474 40 34.0474 40 34.0474C40 34.0474 40 34.0474 40 34.0474C40 34.0474 40 34.0474 40 34.0474C40 34.0474 40 34.0474 40 34.0474C40 34.0474 40 34.0474 40 34.0474C40 34.0474 40 34.0474 40 34.0474C40 34.0474 40 34.0474 40 34.0474C40 34.0474 40 34.0474 40 34.0474C40 34.0474 40 34.0474 40 34.0474C40 34.0474 40 34.0474 40 34.0475C40 34.0475 40 34.0475 40 34.0475C40 34.0475 40 34.0475 40 34.0475C40 34.0475 40 34.0475 40 34.0475C40 34.0475 40 34.0475 40 34.0475C40 34.0475 40 34.0475 40 34.0475C40 34.0475 40 34.0475 40 34.0475C40 34.0475 40 34.0475 40 34.0475C40 34.0475 40 34.0475 40 34.0475C40 34.0475 40 34.0475 40 34.0475C40 34.0475 40 34.0475 40 34.0475C40 34.0475 40 34.0475 40 34.0475C40 34.0475 40 34.0475 40 34.0475C40 34.0475 40 34.0475 40 34.0475C40 34.0475 40 34.0475 40 34.0475C40 34.0475 40 34.0475 40 34.0475C40 34.0475 40 34.0475 40 34.0475C40 34.0475 40 34.0475 40 34.0475C40 34.0475 40 34.0475 40 34.0475C40 34.0475 40 34.0475 40 34.0475C40 34.0475 40 34.0475 40 34.0475C40 34.0475 40 34.0475 40 34.0475C40 34.0475 40 34.0475 40 34.0475C40 34.0475 40 34.0475 40 34.0475C40 34.0475 40 34.0475 40 34.0475C40 34.0475 40 34.0475 40 34.0475C40 34.0475 40 34.0475 40 34.0475C40 34.0475 40 34.0475 40 34.0475C40 34.0475 40 34.0475 40 34.0475C40 34.0475 40 34.0475 40 34.0475C40 34.0475 40 34.0475 40 34.0475C40 34.0475 40 34.0475 40 34.0475C40 34.0475 40 34.0475 40 34.0475C40 34.0475 40 34.0475 40 34.0475C40 34.0475 40 34.0475 40 34.0475C40 34.0475 40 34.0475 40 34.0475C40 34.0475 40 34.0475 40 34.0475C40 34.0475 40 34.0475 40 34.0475C40 34.0475 40 34.0475 40 34.0475C40 34.0475 40 34.0475 40 34.0475C40 34.0475 40 34.0475 40 34.0475C40 34.0475 40 34.0475 40 34.0475C40 34.0475 40 34.0475 40 34.0475C40 34.0476 40 34.0476 40 34.0476C40 34.0476 40 34.0476 40 34.0476C40 34.0476 40 34.0476 40 34.0476C40 34.0476 40 34.0476 40 34.0476C40 34.0476 40 34.0476 40 34.0476C40 34.0476 40 34.0476 40 34.0476C40 34.0476 40 34.0476 40 34.0476C40 34.0476 40 34.0476 40 34.0476C40 34.0476 40 34.0476 40 34.0476C40 34.0476 40 34.0476 40 34.0476C40 34.0476 40 34.0476 40 34.0476C40 34.0476 40 34.0476 40 34.0476C40 34.0476 40 34.0476 40 34.0476C40 34.0476 40 34.0476 40 34.0476C40 34.0476 40 34.0476 40 34.0476C40 34.0476 40 34.0476 40 34.0476C40 34.0476 40 34.0476 40 34.0476C40 34.0476 40 34.0476 40 34.0476C40 34.0476 40 34.0476 40 34.0476C40 34.0476 40 34.0476 40 34.0476C40 34.0476 40 34.0476 40 34.0476C40 34.0476 40 34.0476 40 34.0476C40 34.0476 40 34.0476 40 34.0476C40 34.0476 40 34.0476 40 34.0476C40 34.0476 40 34.0476 40 34.0476C40 34.0476 40 34.0476 40 34.0476C40 34.0476 40 34.0476 40 34.0476C40 34.0476 40 34.0476 40 34.0476C40 34.0476 40 34.0476 40 34.0476C40 34.0476 40 34.0476 40 34.0476C40 34.0476 40 34.0476 40 34.0476C40 34.0476 40 34.0476 40 34.0476C40 34.0476 40 34.0476 40 34.0476C40 34.0476 40 34.0476 40 34.0476C40 34.0476 40 34.0476 40 34.0476C40 34.0476 40 34.0476 40 34.0476C40 34.0476 40 34.0476 40 34.0476C40 34.0476 40 34.0476 40 34.0476C40 34.0476 40 34.0476 40 34.0476C40 34.0476 40 34.0476 40 34.0476C40 34.0476 40 34.0476 40 34.0476C40 34.0476 40 34.0476 40 34.0476C40 34.0476 40 34.0477 40 34.0477C40 34.0477 40 34.0477 40 34.0477C40 34.0477 40 34.0477 40 34.0477C40 34.0477 40 34.0477 40 34.0477C40 34.0477 40 34.0477 40 34.0477C40 34.0477 40 34.0477 40 34.0477C40 34.0477 40 34.0477 40 34.0477C40 34.0477 40 34.0477 40 34.0477C40 34.0477 40 34.0477 40 34.0477C40 34.0477 40 34.0477 40 34.0477C40 34.0477 40 34.0477 40 34.0477C40 34.0477 40 34.0477 40 34.0477C40 34.0477 40 34.0477 40 34.0477C40 34.0477 40 34.0477 40 34.0477C40 34.0477 40 34.0477 40 34.0477C40 34.0477 40 34.0477 40 34.0477C40 34.0477 40 34.0477 40 34.0477C40 34.0477 40 34.0477 40 34.0477C40 34.0477 40 34.0477 40 34.0477C40 34.0477 40 34.0477 40 34.0477C40 34.0477 40 34.0477 40 34.0477C40 34.0477 40 34.0477 40 34.0477C40 34.0477 40 34.0477 40 34.0477C40 34.0477 40 34.0477 40 34.0477C40 34.0477 40 34.0477 40 34.0477C40 34.0477 40 34.0477 40 34.0477C40 34.0477 40 34.0477 40 34.0477C40 34.0477 40 34.0477 40 34.0477C40 34.0477 40 34.0477 40 34.0477C40 34.0477 40 34.0477 40 34.0477C40 34.0477 40 34.0477 40 34.0477C40 34.0477 40 34.0477 40 34.0477C40 34.0477 40 34.0477 40 34.0477C40 34.0477 40 34.0477 40 34.0477C40 34.0477 40 34.0477 40 34.0477C40 34.0477 40 34.0477 40 34.0477C40 34.0477 40 34.0477 40 34.0477C40 34.0477 40 34.0477 40 34.0477C40 34.0477 40 34.0477 40 34.0477C40 34.0477 40 34.0477 40 34.0477C40 34.0477 40 34.0477 40 34.0477C40 34.0477 40 34.0477 40 34.0477C40 34.0477 40 34.0478 40 34.0478C40 34.0478 40 34.0478 40 34.0478C40 34.0478 40 34.0478 40 34.0478C40 34.0478 40 34.0478 40 34.0478C40 34.0478 40 34.0478 40 34.0478C40 34.0478 40 34.0478 40 34.0478C40 34.0478 40 34.0478 40 34.0478C40 34.0478 40 34.0478 40 34.0478C40 34.0478 40 34.0478 40 34.0478C40 34.0478 40 34.0478 40 34.0478C40 34.0478 40 34.0478 40 34.0478C40 34.0478 40 34.0478 40 34.0478C40 34.0478 40 34.0478 40 34.0478C40 34.0478 40 34.0478 40 34.0478C40 34.0478 40 34.0478 40 34.0478C40 34.0478 40 34.0478 40 34.0478C40 34.0478 40 34.0478 40 34.0478C40 34.0478 40 34.0478 40 34.0478C40 34.0478 40 34.0478 40 34.0478C40 34.0478 40 34.0478 40 34.0478C40 34.0478 40 34.0478 40 34.0478C40 34.0478 40 34.0478 40 34.0478C40 34.0478 40 34.0478 40 34.0478C40 34.0478 40 34.0478 40 34.0478C40 34.0478 40 34.0478 40 34.0478C40 34.0478 40 34.0478 40 34.0478C40 34.0478 40 34.0478 40 34.0478C40 34.0478 40 34.0478 40 34.0478C40 34.0478 40 34.0478 40 34.0478C40 34.0478 40 34.0478 40 34.0478C40 34.0478 40 34.0478 40 34.0478C40 34.0478 40 34.0478 40 34.0478C40 34.0478 40 34.0478 40 34.0478C40 34.0478 40 34.0478 40 34.0478C40 34.0478 40 34.0478 40 34.0478C40 34.0478 40 34.0478 40 34.0478C40 34.0478 40 34.0478 40 34.0478C40 34.0478 40 34.0478 40 34.0478C40 34.0478 40 34.0478 40 34.0478C40 34.0478 40 34.0478 40 34.0478C40 34.0478 40 34.0478 40 34.0478C40 34.0478 40 34.0478 40 34.0478C40 34.0478 40 34.0478 40 34.0479C40 34.0479 40 34.0479 40 34.0479C40 34.0479 40 34.0479 40 34.0479C40 34.0479 40 34.0479 40 34.0479C40 34.0479 40 34.0479 40 34.0479C40 34.0479 40 34.0479 40 34.0479C40 34.0479 40 34.0479 40 34.0479C40 34.0479 40 34.0479 40 34.0479C40 34.0479 40 34.0479 40 34.0479C40 34.0479 40 34.0479 40 34.0479C40 34.0479 40 34.0479 40 34.0479C40 34.0479 40 34.0479 40 34.0479C40 34.0479 40 34.0479 40 34.0479C40 34.0479 40 34.0479 40 34.0479C40 34.0479 40 34.0479 40 34.0479C40 34.0479 40 34.0479 40 34.0479C40 34.0479 40 34.0479 40 34.0479C40 34.0479 40 34.0479 40 34.0479C40 34.0479 40 34.0479 40 34.0479C40 34.0479 40 34.0479 40 34.0479C40 34.0479 40 34.0479 40 34.0479C40 34.0479 40 34.0479 40 34.0479C40 34.0479 40 34.0479 40 34.0479C40 34.0479 40 34.0479 40 34.0479C40 34.0479 40 34.0479 40 34.0479C40 34.0479 40 34.0479 40 34.0479C40 34.0479 40 34.0479 40 34.0479C40 34.0479 40 34.0479 40 34.0479C40 34.0479 40 34.0479 40 34.0479C40 34.0479 40 34.0479 40 34.0479C40 34.0479 40 34.0479 40 34.0479C40 34.0479 40 34.0479 40 34.0479C40 34.0479 40 34.0479 40 34.0479C40 34.0479 40 34.0479 40 34.0479C40 34.0479 40 34.0479 40 34.0479C40 34.0479 40 34.0479 40 34.0479C40 34.0479 40 34.0479 40 34.0479C40 34.0479 40 34.0479 40 34.0479C40 34.0479 40 34.0479 40 34.0479C40 34.0479 40 34.0479 40 34.0479C40 34.0479 40 34.0479 40 34.0479C40 34.0479 40 34.0479 40 34.0479C40 34.0479 40 34.0479 40 34.048C40 34.048 40 34.048 40 34.048C40 34.048 40 34.048 40 34.048C40 34.048 40 34.048 40 34.048C40 34.048 40 34.048 40 34.048C40 34.048 40 34.048 40 34.048C40 34.048 40 34.048 40 34.048C40 34.048 40 34.048 40 34.048C40 34.048 40 34.048 40 34.048C40 34.048 40 34.048 40 34.048C40 34.048 40 34.048 40 34.048C40 34.048 40 34.048 40 34.048C40 34.048 40 34.048 40 34.048C40 34.048 40 34.048 40 34.048C40 34.048 40 34.048 40 34.048C40 34.048 40 34.048 40 34.048C40 34.048 40 34.048 40 34.048C40 34.048 40 34.048 40 34.048C40 34.048 40 34.048 40 34.048C40 34.048 40 34.048 40 34.048C40 34.048 40 34.048 40 34.048C40 34.048 40 34.048 40 34.048C40 34.048 40 34.048 40 34.048C40 34.048 40 34.048 40 34.048C40 34.048 40 34.048 40 34.048C40 34.048 40 34.048 40 34.048C40 34.048 40 34.048 40 34.048C40 34.048 40 34.048 40 34.048C40 34.048 40 34.048 40 34.048C40 34.048 40 34.048 40 34.048C40 34.048 40 34.048 40 34.048C40 34.048 40 34.048 40 34.048C40 34.048 40 34.048 40 34.048C40 34.048 40 34.048 40 34.048C40 34.048 40 34.048 40 34.048C40 34.048 40 34.048 40 34.048C40 34.048 40 34.048 40 34.048C40 34.048 40 34.048 40 34.048C40 34.048 40 34.048 40 34.048C40 34.048 40 34.048 40 34.048C40 34.048 40 34.048 40 34.048C40 34.048 40 34.048 40 34.048C40 34.048 40 34.048 40 34.048C40 34.0481 40 34.0481 40 34.0481C40 34.0481 40 34.0481 40 34.0481C40 34.0481 40 34.0481 40 34.0481C40 34.0481 40 34.0481 40 34.0481C40 34.0481 40 34.0481 40 34.0481C40 34.0481 40 34.0481 40 34.0481C40 34.0481 40 34.0481 40 34.0481C40 34.0481 40 34.0481 40 34.0481C40 34.0481 40 34.0481 40 34.0481C40 34.0481 40 34.0481 40 34.0481C40 34.0481 40 34.0481 40 34.0481C40 34.0481 40 34.0481 40 34.0481C40 34.0481 40 34.0481 40 34.0481C40 34.0481 40 34.0481 40 34.0481C40 34.0481 40 34.0481 40 34.0481C40 34.0481 40 34.0481 40 34.0481C40 34.0481 40 34.0481 40 34.0481C40 34.0481 40 34.0481 40 34.0481C40 34.0481 40 34.0481 40 34.0481C40 34.0481 40 34.0481 40 34.0481C40 34.0481 40 34.0481 40 34.0481C40 34.0481 40 34.0481 40 34.0481C40 34.0481 40 34.0481 40 34.0481C40 34.0481 40 34.0481 40 34.0481C40 34.0481 40 34.0481 40 34.0481C40 34.0481 40 34.0481 40 34.0481C40 34.0481 40 34.0481 40 34.0481C40 34.0481 40 34.0481 40 34.0481C40 34.0481 40 34.0481 40 34.0481C40 34.0481 40 34.0481 40 34.0481C40 34.0481 40 34.0481 40 34.0481C40 34.0481 40 34.0481 40 34.0481C40 34.0481 40 34.0481 40 34.0481C40 34.0481 40 34.0481 40 34.0481C40 34.0481 40 34.0481 40 34.0481C40 34.0481 40 34.0481 40 34.0481C40 34.0481 40 34.0481 40 34.0481C40 34.0481 40 34.0481 40 34.0481C40 34.0481 40 34.0481 40 34.0481C40 34.0481 40 34.0481 40 34.0481C40 34.0481 40 34.0481 40 34.0481C40 34.0481 40 34.0481 40 34.0481C40 34.0481 40 34.0482 40 34.0482C40 34.0482 40 34.0482 40 34.0482C40 34.0482 40 34.0482 40 34.0482C40 34.0482 40 34.0482 40 34.0482C40 34.0482 40 34.0482 40 34.0482C40 34.0482 40 34.0482 40 34.0482C40 34.0482 40 34.0482 40 34.0482C40 34.0482 40 34.0482 40 34.0482C40 34.0482 40 34.0482 40 34.0482C40 34.0482 40 34.0482 40 34.0482C40 34.0482 40 34.0482 40 34.0482C40 34.0482 40 34.0482 40 34.0482C40 34.0482 40 34.0482 40 34.0482C40 34.0482 40 34.0482 40 34.0482C40 34.0482 40 34.0482 40 34.0482C40 34.0482 40 34.0482 40 34.0482C40 34.0482 40 34.0482 40 34.0482C40 34.0482 40 34.0482 40 34.0482C40 34.0482 40 34.0482 40 34.0482C40 34.0482 40 34.0482 40 34.0482C40 34.0482 40 34.0482 40 34.0482C40 34.0482 40 34.0482 40 34.0482C40 34.0482 40 34.0482 40 34.0482C40 34.0482 40 34.0482 40 34.0482C40 34.0482 40 34.0482 40 34.0482C40 34.0482 40 34.0482 40 34.0482C40 34.0482 40 34.0482 40 34.0482C40 34.0482 40 34.0482 40 34.0482C40 34.0482 40 34.0482 40 34.0482C40 34.0482 40 34.0482 40 34.0482C40 34.0482 40 34.0482 40 34.0482C40 34.0482 40 34.0482 40 34.0482C40 34.0482 40 34.0482 40 34.0482C40 34.0482 40 34.0482 40 34.0482C40 34.0482 40 34.0482 40 34.0482C40 34.0482 40 34.0482 40 34.0482C40 34.0482 40 34.0482 40 34.0482C40 34.0482 40 34.0482 40 34.0482C40 34.0482 40 34.0482 40 34.0482C40 34.0482 40 34.0482 40 34.0482C40 34.0482 40 34.0482 40 34.0482C40 34.0482 40 34.0482 40 34.0482C40 34.0482 40 34.0483 40 34.0483C40 34.0483 40 34.0483 40 34.0483C40 34.0483 40 34.0483 40 34.0483C40 34.0483 40 34.0483 40 34.0483C40 34.0483 40 34.0483 40 34.0483C40 34.0483 40 34.0483 40 34.0483C40 34.0483 40 34.0483 40 34.0483C40 34.0483 40 34.0483 40 34.0483C40 34.0483 40 34.0483 40 34.0483C40 34.0483 40 34.0483 40 34.0483C40 34.0483 40 34.0483 40 34.0483C40 34.0483 40 34.0483 40 34.0483C40 34.0483 40 34.0483 40 34.0483C40 34.0483 40 34.0483 40 34.0483C40 34.0483 40 34.0483 40 34.0483C40 34.0483 40 34.0483 40 34.0483C40 34.0483 40 34.0483 40 34.0483C40 34.0483 40 34.0483 40 34.0483C40 34.0483 40 34.0483 40 34.0483C40 34.0483 40 34.0483 40 34.0483C40 34.0483 40 34.0483 40 34.0483C40 34.0483 40 34.0483 40 34.0483C40 34.0483 40 34.0483 40 34.0483C40 34.0483 40 34.0483 40 34.0483C40 34.0483 40 34.0483 40 34.0483C40 34.0483 40 34.0483 40 34.0483C40 34.0483 40 34.0483 40 34.0483C40 34.0483 40 34.0483 40 34.0483C40 34.0483 40 34.0483 40 34.0483C40 34.0483 40 34.0483 40 34.0483C40 34.0483 40 34.0483 40 34.0483C40 34.0483 40 34.0483 40 34.0483C40 34.0483 40 34.0483 40 34.0483C40 34.0483 40 34.0483 40 34.0483C40 34.0483 40 34.0483 40 34.0483C40 34.0483 40 34.0483 40 34.0483C40 34.0483 40 34.0483 40 34.0483C40 34.0483 40 34.0483 40 34.0483C40 34.0483 40 34.0483 40 34.0483C40 34.0483 40 34.0483 40 34.0483C40 34.0483 40 34.0483 40 34.0483C40 34.0483 40 34.0483 40 34.0483C40 34.0483 40 34.0483 40 34.0484C40 34.0484 40 34.0484 40 34.0484C40 34.0484 40 34.0484 40 34.0484C40 34.0484 40 34.0484 40 34.0484C40 34.0484 40 34.0484 40 34.0484C40 34.0484 40 34.0484 40 34.0484C40 34.0484 40 34.0484 40 34.0484C40 34.0484 40 34.0484 40 34.0484C40 34.0484 40 34.0484 40 34.0484C40 34.0484 40 34.0484 40 34.0484C40 34.0484 40 34.0484 40 34.0484C40 34.0484 40 34.0484 40 34.0484C40 34.0484 40 34.0484 40 34.0484C40 34.0484 40 34.0484 40 34.0484C40 34.0484 40 34.0484 40 34.0484C40 34.0484 40 34.0484 40 34.0484C40 34.0484 40 34.0484 40 34.0484C40 34.0484 40 34.0484 40 34.0484C40 34.0484 40 34.0484 40 34.0484C40 34.0484 40 34.0484 40 34.0484C40 34.0484 40 34.0484 40 34.0484C40 34.0484 40 34.0484 40 34.0484C40 34.0484 40 34.0484 40 34.0484C40 34.0484 40 34.0484 40 34.0484C40 34.0484 40 34.0484 40 34.0484C40 34.0484 40 34.0484 40 34.0484C40 34.0484 40 34.0484 40 34.0484C40 34.0484 40 34.0484 40 34.0484C40 34.0484 40 34.0484 40 34.0484C40 34.0484 40 34.0484 40 34.0484C40 34.0484 40 34.0484 40 34.0484C40 34.0484 40 34.0484 40 34.0484C40 34.0484 40 34.0484 40 34.0484C40 34.0484 40 34.0484 40 34.0484C40 34.0484 40 34.0484 40 34.0484C40 34.0484 40 34.0484 40 34.0484C40 34.0484 40 34.0484 40 34.0484C40 34.0484 40 34.0484 40 34.0484C40 34.0484 40 34.0484 40 34.0484C40 34.0484 40 34.0484 40 34.0484C40 34.0484 40 34.0484 40 34.0484C40 34.0484 40 34.0484 40 34.0484C40 34.0484 40 34.0484 40 34.0485C40 34.0485 40 34.0485 40 34.0485C40 34.0485 40 34.0485 40 34.0485C40 34.0485 40 34.0485 40 34.0485C40 34.0485 40 34.0485 40 34.0485C40 34.0485 40 34.0485 40 34.0485C40 34.0485 40 34.0485 40 34.0485C40 34.0485 40 34.0485 40 34.0485C40 34.0485 40 34.0485 40 34.0485C40 34.0485 40 34.0485 40 34.0485C40 34.0485 40 34.0485 40 34.0485C40 34.0485 40 34.0485 40 34.0485C40 34.0485 40 34.0485 40 34.0485C40 34.0485 40 34.0485 40 34.0485C40 34.0485 40 34.0485 40 34.0485C40 34.0485 40 34.0485 40 34.0485C40 34.0485 40 34.0485 40 34.0485C40 34.0485 40 34.0485 40 34.0485C40 34.0485 40 34.0485 40 34.0485C40 34.0485 40 34.0485 40 34.0485C40 34.0485 40 34.0485 40 34.0485C40 34.0485 40 34.0485 40 34.0485C40 34.0485 40 34.0485 40 34.0485C40 34.0485 40 34.0485 40 34.0485C40 34.0485 40 34.0485 40 34.0485C40 34.0485 40 34.0485 40 34.0485C40 34.0485 40 34.0485 40 34.0485C40 34.0485 40 34.0485 40 34.0485C40 34.0485 40 34.0485 40 34.0485C40 34.0485 40 34.0485 40 34.0485C40 34.0485 40 34.0485 40 34.0485C40 34.0485 40 34.0485 40 34.0485C40 34.0485 40 34.0485 40 34.0485C40 34.0485 40 34.0485 40 34.0485C40 34.0485 40 34.0485 40 34.0485H42C42 34.0485 42 34.0485 42 34.0485C42 34.0485 42 34.0485 42 34.0485C42 34.0485 42 34.0485 42 34.0485C42 34.0485 42 34.0485 42 34.0485C42 34.0485 42 34.0485 42 34.0485C42 34.0485 42 34.0485 42 34.0485C42 34.0485 42 34.0485 42 34.0485C42 34.0485 42 34.0485 42 34.0485C42 34.0485 42 34.0485 42 34.0485C42 34.0485 42 34.0485 42 34.0485C42 34.0485 42 34.0485 42 34.0485C42 34.0485 42 34.0485 42 34.0485C42 34.0485 42 34.0485 42 34.0485C42 34.0485 42 34.0485 42 34.0485C42 34.0485 42 34.0485 42 34.0485C42 34.0485 42 34.0485 42 34.0485C42 34.0485 42 34.0485 42 34.0485C42 34.0485 42 34.0485 42 34.0485C42 34.0485 42 34.0485 42 34.0485C42 34.0485 42 34.0485 42 34.0485C42 34.0485 42 34.0485 42 34.0485C42 34.0485 42 34.0485 42 34.0485C42 34.0485 42 34.0485 42 34.0485C42 34.0485 42 34.0485 42 34.0485C42 34.0485 42 34.0485 42 34.0485C42 34.0485 42 34.0485 42 34.0485C42 34.0485 42 34.0485 42 34.0485C42 34.0485 42 34.0485 42 34.0485C42 34.0485 42 34.0485 42 34.0485C42 34.0485 42 34.0485 42 34.0485C42 34.0485 42 34.0485 42 34.0485C42 34.0485 42 34.0485 42 34.0485C42 34.0485 42 34.0485 42 34.0485C42 34.0485 42 34.0485 42 34.0485C42 34.0484 42 34.0484 42 34.0484C42 34.0484 42 34.0484 42 34.0484C42 34.0484 42 34.0484 42 34.0484C42 34.0484 42 34.0484 42 34.0484C42 34.0484 42 34.0484 42 34.0484C42 34.0484 42 34.0484 42 34.0484C42 34.0484 42 34.0484 42 34.0484C42 34.0484 42 34.0484 42 34.0484C42 34.0484 42 34.0484 42 34.0484C42 34.0484 42 34.0484 42 34.0484C42 34.0484 42 34.0484 42 34.0484C42 34.0484 42 34.0484 42 34.0484C42 34.0484 42 34.0484 42 34.0484C42 34.0484 42 34.0484 42 34.0484C42 34.0484 42 34.0484 42 34.0484C42 34.0484 42 34.0484 42 34.0484C42 34.0484 42 34.0484 42 34.0484C42 34.0484 42 34.0484 42 34.0484C42 34.0484 42 34.0484 42 34.0484C42 34.0484 42 34.0484 42 34.0484C42 34.0484 42 34.0484 42 34.0484C42 34.0484 42 34.0484 42 34.0484C42 34.0484 42 34.0484 42 34.0484C42 34.0484 42 34.0484 42 34.0484C42 34.0484 42 34.0484 42 34.0484C42 34.0484 42 34.0484 42 34.0484C42 34.0484 42 34.0484 42 34.0484C42 34.0484 42 34.0484 42 34.0484C42 34.0484 42 34.0484 42 34.0484C42 34.0484 42 34.0484 42 34.0484C42 34.0484 42 34.0484 42 34.0484C42 34.0484 42 34.0484 42 34.0484C42 34.0484 42 34.0484 42 34.0484C42 34.0484 42 34.0484 42 34.0484C42 34.0484 42 34.0484 42 34.0484C42 34.0484 42 34.0484 42 34.0484C42 34.0484 42 34.0484 42 34.0484C42 34.0484 42 34.0484 42 34.0484C42 34.0484 42 34.0484 42 34.0484C42 34.0484 42 34.0484 42 34.0484C42 34.0484 42 34.0484 42 34.0484C42 34.0484 42 34.0484 42 34.0484C42 34.0483 42 34.0483 42 34.0483C42 34.0483 42 34.0483 42 34.0483C42 34.0483 42 34.0483 42 34.0483C42 34.0483 42 34.0483 42 34.0483C42 34.0483 42 34.0483 42 34.0483C42 34.0483 42 34.0483 42 34.0483C42 34.0483 42 34.0483 42 34.0483C42 34.0483 42 34.0483 42 34.0483C42 34.0483 42 34.0483 42 34.0483C42 34.0483 42 34.0483 42 34.0483C42 34.0483 42 34.0483 42 34.0483C42 34.0483 42 34.0483 42 34.0483C42 34.0483 42 34.0483 42 34.0483C42 34.0483 42 34.0483 42 34.0483C42 34.0483 42 34.0483 42 34.0483C42 34.0483 42 34.0483 42 34.0483C42 34.0483 42 34.0483 42 34.0483C42 34.0483 42 34.0483 42 34.0483C42 34.0483 42 34.0483 42 34.0483C42 34.0483 42 34.0483 42 34.0483C42 34.0483 42 34.0483 42 34.0483C42 34.0483 42 34.0483 42 34.0483C42 34.0483 42 34.0483 42 34.0483C42 34.0483 42 34.0483 42 34.0483C42 34.0483 42 34.0483 42 34.0483C42 34.0483 42 34.0483 42 34.0483C42 34.0483 42 34.0483 42 34.0483C42 34.0483 42 34.0483 42 34.0483C42 34.0483 42 34.0483 42 34.0483C42 34.0483 42 34.0483 42 34.0483C42 34.0483 42 34.0483 42 34.0483C42 34.0483 42 34.0483 42 34.0483C42 34.0483 42 34.0483 42 34.0483C42 34.0483 42 34.0483 42 34.0483C42 34.0483 42 34.0483 42 34.0483C42 34.0483 42 34.0483 42 34.0483C42 34.0483 42 34.0483 42 34.0483C42 34.0483 42 34.0483 42 34.0483C42 34.0483 42 34.0483 42 34.0483C42 34.0483 42 34.0483 42 34.0483C42 34.0483 42 34.0483 42 34.0483C42 34.0483 42 34.0483 42 34.0483C42 34.0483 42 34.0482 42 34.0482C42 34.0482 42 34.0482 42 34.0482C42 34.0482 42 34.0482 42 34.0482C42 34.0482 42 34.0482 42 34.0482C42 34.0482 42 34.0482 42 34.0482C42 34.0482 42 34.0482 42 34.0482C42 34.0482 42 34.0482 42 34.0482C42 34.0482 42 34.0482 42 34.0482C42 34.0482 42 34.0482 42 34.0482C42 34.0482 42 34.0482 42 34.0482C42 34.0482 42 34.0482 42 34.0482C42 34.0482 42 34.0482 42 34.0482C42 34.0482 42 34.0482 42 34.0482C42 34.0482 42 34.0482 42 34.0482C42 34.0482 42 34.0482 42 34.0482C42 34.0482 42 34.0482 42 34.0482C42 34.0482 42 34.0482 42 34.0482C42 34.0482 42 34.0482 42 34.0482C42 34.0482 42 34.0482 42 34.0482C42 34.0482 42 34.0482 42 34.0482C42 34.0482 42 34.0482 42 34.0482C42 34.0482 42 34.0482 42 34.0482C42 34.0482 42 34.0482 42 34.0482C42 34.0482 42 34.0482 42 34.0482C42 34.0482 42 34.0482 42 34.0482C42 34.0482 42 34.0482 42 34.0482C42 34.0482 42 34.0482 42 34.0482C42 34.0482 42 34.0482 42 34.0482C42 34.0482 42 34.0482 42 34.0482C42 34.0482 42 34.0482 42 34.0482C42 34.0482 42 34.0482 42 34.0482C42 34.0482 42 34.0482 42 34.0482C42 34.0482 42 34.0482 42 34.0482C42 34.0482 42 34.0482 42 34.0482C42 34.0482 42 34.0482 42 34.0482C42 34.0482 42 34.0482 42 34.0482C42 34.0482 42 34.0482 42 34.0482C42 34.0482 42 34.0482 42 34.0482C42 34.0482 42 34.0482 42 34.0482C42 34.0482 42 34.0482 42 34.0482C42 34.0482 42 34.0482 42 34.0482C42 34.0482 42 34.0482 42 34.0482C42 34.0482 42 34.0481 42 34.0481C42 34.0481 42 34.0481 42 34.0481C42 34.0481 42 34.0481 42 34.0481C42 34.0481 42 34.0481 42 34.0481C42 34.0481 42 34.0481 42 34.0481C42 34.0481 42 34.0481 42 34.0481C42 34.0481 42 34.0481 42 34.0481C42 34.0481 42 34.0481 42 34.0481C42 34.0481 42 34.0481 42 34.0481C42 34.0481 42 34.0481 42 34.0481C42 34.0481 42 34.0481 42 34.0481C42 34.0481 42 34.0481 42 34.0481C42 34.0481 42 34.0481 42 34.0481C42 34.0481 42 34.0481 42 34.0481C42 34.0481 42 34.0481 42 34.0481C42 34.0481 42 34.0481 42 34.0481C42 34.0481 42 34.0481 42 34.0481C42 34.0481 42 34.0481 42 34.0481C42 34.0481 42 34.0481 42 34.0481C42 34.0481 42 34.0481 42 34.0481C42 34.0481 42 34.0481 42 34.0481C42 34.0481 42 34.0481 42 34.0481C42 34.0481 42 34.0481 42 34.0481C42 34.0481 42 34.0481 42 34.0481C42 34.0481 42 34.0481 42 34.0481C42 34.0481 42 34.0481 42 34.0481C42 34.0481 42 34.0481 42 34.0481C42 34.0481 42 34.0481 42 34.0481C42 34.0481 42 34.0481 42 34.0481C42 34.0481 42 34.0481 42 34.0481C42 34.0481 42 34.0481 42 34.0481C42 34.0481 42 34.0481 42 34.0481C42 34.0481 42 34.0481 42 34.0481C42 34.0481 42 34.0481 42 34.0481C42 34.0481 42 34.0481 42 34.0481C42 34.0481 42 34.0481 42 34.0481C42 34.0481 42 34.0481 42 34.0481C42 34.0481 42 34.0481 42 34.0481C42 34.0481 42 34.0481 42 34.0481C42 34.0481 42 34.0481 42 34.0481C42 34.0481 42 34.0481 42 34.0481C42 34.0481 42 34.0481 42 34.0481C42 34.0481 42 34.0481 42 34.048C42 34.048 42 34.048 42 34.048C42 34.048 42 34.048 42 34.048C42 34.048 42 34.048 42 34.048C42 34.048 42 34.048 42 34.048C42 34.048 42 34.048 42 34.048C42 34.048 42 34.048 42 34.048C42 34.048 42 34.048 42 34.048C42 34.048 42 34.048 42 34.048C42 34.048 42 34.048 42 34.048C42 34.048 42 34.048 42 34.048C42 34.048 42 34.048 42 34.048C42 34.048 42 34.048 42 34.048C42 34.048 42 34.048 42 34.048C42 34.048 42 34.048 42 34.048C42 34.048 42 34.048 42 34.048C42 34.048 42 34.048 42 34.048C42 34.048 42 34.048 42 34.048C42 34.048 42 34.048 42 34.048C42 34.048 42 34.048 42 34.048C42 34.048 42 34.048 42 34.048C42 34.048 42 34.048 42 34.048C42 34.048 42 34.048 42 34.048C42 34.048 42 34.048 42 34.048C42 34.048 42 34.048 42 34.048C42 34.048 42 34.048 42 34.048C42 34.048 42 34.048 42 34.048C42 34.048 42 34.048 42 34.048C42 34.048 42 34.048 42 34.048C42 34.048 42 34.048 42 34.048C42 34.048 42 34.048 42 34.048C42 34.048 42 34.048 42 34.048C42 34.048 42 34.048 42 34.048C42 34.048 42 34.048 42 34.048C42 34.048 42 34.048 42 34.048C42 34.048 42 34.048 42 34.048C42 34.048 42 34.048 42 34.048C42 34.048 42 34.048 42 34.048C42 34.048 42 34.048 42 34.048C42 34.048 42 34.048 42 34.048C42 34.048 42 34.048 42 34.048C42 34.048 42 34.048 42 34.048C42 34.048 42 34.048 42 34.048C42 34.0479 42 34.0479 42 34.0479C42 34.0479 42 34.0479 42 34.0479C42 34.0479 42 34.0479 42 34.0479C42 34.0479 42 34.0479 42 34.0479C42 34.0479 42 34.0479 42 34.0479C42 34.0479 42 34.0479 42 34.0479C42 34.0479 42 34.0479 42 34.0479C42 34.0479 42 34.0479 42 34.0479C42 34.0479 42 34.0479 42 34.0479C42 34.0479 42 34.0479 42 34.0479C42 34.0479 42 34.0479 42 34.0479C42 34.0479 42 34.0479 42 34.0479C42 34.0479 42 34.0479 42 34.0479C42 34.0479 42 34.0479 42 34.0479C42 34.0479 42 34.0479 42 34.0479C42 34.0479 42 34.0479 42 34.0479C42 34.0479 42 34.0479 42 34.0479C42 34.0479 42 34.0479 42 34.0479C42 34.0479 42 34.0479 42 34.0479C42 34.0479 42 34.0479 42 34.0479C42 34.0479 42 34.0479 42 34.0479C42 34.0479 42 34.0479 42 34.0479C42 34.0479 42 34.0479 42 34.0479C42 34.0479 42 34.0479 42 34.0479C42 34.0479 42 34.0479 42 34.0479C42 34.0479 42 34.0479 42 34.0479C42 34.0479 42 34.0479 42 34.0479C42 34.0479 42 34.0479 42 34.0479C42 34.0479 42 34.0479 42 34.0479C42 34.0479 42 34.0479 42 34.0479C42 34.0479 42 34.0479 42 34.0479C42 34.0479 42 34.0479 42 34.0479C42 34.0479 42 34.0479 42 34.0479C42 34.0479 42 34.0479 42 34.0479C42 34.0479 42 34.0479 42 34.0479C42 34.0479 42 34.0479 42 34.0479C42 34.0479 42 34.0479 42 34.0479C42 34.0479 42 34.0479 42 34.0479C42 34.0479 42 34.0479 42 34.0479C42 34.0479 42 34.0479 42 34.0479C42 34.0479 42 34.0479 42 34.0479C42 34.0479 42 34.0479 42 34.0479C42 34.0478 42 34.0478 42 34.0478C42 34.0478 42 34.0478 42 34.0478C42 34.0478 42 34.0478 42 34.0478C42 34.0478 42 34.0478 42 34.0478C42 34.0478 42 34.0478 42 34.0478C42 34.0478 42 34.0478 42 34.0478C42 34.0478 42 34.0478 42 34.0478C42 34.0478 42 34.0478 42 34.0478C42 34.0478 42 34.0478 42 34.0478C42 34.0478 42 34.0478 42 34.0478C42 34.0478 42 34.0478 42 34.0478C42 34.0478 42 34.0478 42 34.0478C42 34.0478 42 34.0478 42 34.0478C42 34.0478 42 34.0478 42 34.0478C42 34.0478 42 34.0478 42 34.0478C42 34.0478 42 34.0478 42 34.0478C42 34.0478 42 34.0478 42 34.0478C42 34.0478 42 34.0478 42 34.0478C42 34.0478 42 34.0478 42 34.0478C42 34.0478 42 34.0478 42 34.0478C42 34.0478 42 34.0478 42 34.0478C42 34.0478 42 34.0478 42 34.0478C42 34.0478 42 34.0478 42 34.0478C42 34.0478 42 34.0478 42 34.0478C42 34.0478 42 34.0478 42 34.0478C42 34.0478 42 34.0478 42 34.0478C42 34.0478 42 34.0478 42 34.0478C42 34.0478 42 34.0478 42 34.0478C42 34.0478 42 34.0478 42 34.0478C42 34.0478 42 34.0478 42 34.0478C42 34.0478 42 34.0478 42 34.0478C42 34.0478 42 34.0478 42 34.0478C42 34.0478 42 34.0478 42 34.0478C42 34.0478 42 34.0478 42 34.0478C42 34.0478 42 34.0478 42 34.0478C42 34.0478 42 34.0478 42 34.0478C42 34.0478 42 34.0478 42 34.0478C42 34.0478 42 34.0478 42 34.0478C42 34.0478 42 34.0478 42 34.0478C42 34.0478 42 34.0478 42 34.0478C42 34.0478 42 34.0478 42 34.0478C42 34.0478 42 34.0478 42 34.0478C42 34.0478 42 34.0477 42 34.0477C42 34.0477 42 34.0477 42 34.0477C42 34.0477 42 34.0477 42 34.0477C42 34.0477 42 34.0477 42 34.0477C42 34.0477 42 34.0477 42 34.0477C42 34.0477 42 34.0477 42 34.0477C42 34.0477 42 34.0477 42 34.0477C42 34.0477 42 34.0477 42 34.0477C42 34.0477 42 34.0477 42 34.0477C42 34.0477 42 34.0477 42 34.0477C42 34.0477 42 34.0477 42 34.0477C42 34.0477 42 34.0477 42 34.0477C42 34.0477 42 34.0477 42 34.0477C42 34.0477 42 34.0477 42 34.0477C42 34.0477 42 34.0477 42 34.0477C42 34.0477 42 34.0477 42 34.0477C42 34.0477 42 34.0477 42 34.0477C42 34.0477 42 34.0477 42 34.0477C42 34.0477 42 34.0477 42 34.0477C42 34.0477 42 34.0477 42 34.0477C42 34.0477 42 34.0477 42 34.0477C42 34.0477 42 34.0477 42 34.0477C42 34.0477 42 34.0477 42 34.0477C42 34.0477 42 34.0477 42 34.0477C42 34.0477 42 34.0477 42 34.0477C42 34.0477 42 34.0477 42 34.0477C42 34.0477 42 34.0477 42 34.0477C42 34.0477 42 34.0477 42 34.0477C42 34.0477 42 34.0477 42 34.0477C42 34.0477 42 34.0477 42 34.0477C42 34.0477 42 34.0477 42 34.0477C42 34.0477 42 34.0477 42 34.0477C42 34.0477 42 34.0477 42 34.0477C42 34.0477 42 34.0477 42 34.0477C42 34.0477 42 34.0477 42 34.0477C42 34.0477 42 34.0477 42 34.0477C42 34.0477 42 34.0477 42 34.0477C42 34.0477 42 34.0477 42 34.0477C42 34.0477 42 34.0477 42 34.0477C42 34.0477 42 34.0477 42 34.0477C42 34.0477 42 34.0477 42 34.0477C42 34.0477 42 34.0477 42 34.0477C42 34.0477 42 34.0476 42 34.0476C42 34.0476 42 34.0476 42 34.0476C42 34.0476 42 34.0476 42 34.0476C42 34.0476 42 34.0476 42 34.0476C42 34.0476 42 34.0476 42 34.0476C42 34.0476 42 34.0476 42 34.0476C42 34.0476 42 34.0476 42 34.0476C42 34.0476 42 34.0476 42 34.0476C42 34.0476 42 34.0476 42 34.0476C42 34.0476 42 34.0476 42 34.0476C42 34.0476 42 34.0476 42 34.0476C42 34.0476 42 34.0476 42 34.0476C42 34.0476 42 34.0476 42 34.0476C42 34.0476 42 34.0476 42 34.0476C42 34.0476 42 34.0476 42 34.0476C42 34.0476 42 34.0476 42 34.0476C42 34.0476 42 34.0476 42 34.0476C42 34.0476 42 34.0476 42 34.0476C42 34.0476 42 34.0476 42 34.0476C42 34.0476 42 34.0476 42 34.0476C42 34.0476 42 34.0476 42 34.0476C42 34.0476 42 34.0476 42 34.0476C42 34.0476 42 34.0476 42 34.0476C42 34.0476 42 34.0476 42 34.0476C42 34.0476 42 34.0476 42 34.0476C42 34.0476 42 34.0476 42 34.0476C42 34.0476 42 34.0476 42 34.0476C42 34.0476 42 34.0476 42 34.0476C42 34.0476 42 34.0476 42 34.0476C42 34.0476 42 34.0476 42 34.0476C42 34.0476 42 34.0476 42 34.0476C42 34.0476 42 34.0476 42 34.0476C42 34.0476 42 34.0476 42 34.0476C42 34.0476 42 34.0476 42 34.0476C42 34.0476 42 34.0476 42 34.0476C42 34.0476 42 34.0476 42 34.0476C42 34.0476 42 34.0476 42 34.0476C42 34.0476 42 34.0476 42 34.0476C42 34.0476 42 34.0476 42 34.0476C42 34.0476 42 34.0476 42 34.0476C42 34.0476 42 34.0476 42 34.0476C42 34.0476 42 34.0476 42 34.0476C42 34.0476 42 34.0476 42 34.0475C42 34.0475 42 34.0475 42 34.0475C42 34.0475 42 34.0475 42 34.0475C42 34.0475 42 34.0475 42 34.0475C42 34.0475 42 34.0475 42 34.0475C42 34.0475 42 34.0475 42 34.0475C42 34.0475 42 34.0475 42 34.0475C42 34.0475 42 34.0475 42 34.0475C42 34.0475 42 34.0475 42 34.0475C42 34.0475 42 34.0475 42 34.0475C42 34.0475 42 34.0475 42 34.0475C42 34.0475 42 34.0475 42 34.0475C42 34.0475 42 34.0475 42 34.0475C42 34.0475 42 34.0475 42 34.0475C42 34.0475 42 34.0475 42 34.0475C42 34.0475 42 34.0475 42 34.0475C42 34.0475 42 34.0475 42 34.0475C42 34.0475 42 34.0475 42 34.0475C42 34.0475 42 34.0475 42 34.0475C42 34.0475 42 34.0475 42 34.0475C42 34.0475 42 34.0475 42 34.0475C42 34.0475 42 34.0475 42 34.0475C42 34.0475 42 34.0475 42 34.0475C42 34.0475 42 34.0475 42 34.0475C42 34.0475 42 34.0475 42 34.0475C42 34.0475 42 34.0475 42 34.0475C42 34.0475 42 34.0475 42 34.0475C42 34.0475 42 34.0475 42 34.0475C42 34.0475 42 34.0475 42 34.0475C42 34.0475 42 34.0475 42 34.0475C42 34.0475 42 34.0475 42 34.0475C42 34.0475 42 34.0475 42 34.0475C42 34.0475 42 34.0475 42 34.0475C42 34.0475 42 34.0475 42 34.0475C42 34.0475 42 34.0475 42 34.0475C42 34.0475 42 34.0475 42 34.0475C42 34.0475 42 34.0475 42 34.0475C42 34.0475 42 34.0475 42 34.0475C42 34.0475 42 34.0475 42 34.0475C42 34.0475 42 34.0475 42 34.0475C42 34.0475 42 34.0475 42 34.0475C42 34.0475 42 34.0475 42 34.0475C42 34.0475 42 34.0475 42 34.0475C42 34.0474 42 34.0474 42 34.0474C42 34.0474 42 34.0474 42 34.0474C42 34.0474 42 34.0474 42 34.0474C42 34.0474 42 34.0474 42 34.0474C42 34.0474 42 34.0474 42 34.0474C42 34.0474 42 34.0474 42 34.0474C42 34.0474 42 34.0474 42 34.0474C42 34.0474 42 34.0474 42 34.0474C42 34.0474 42 34.0474 42 34.0474C42 34.0474 42 34.0474 42 34.0474C42 34.0474 42 34.0474 42 34.0474C42 34.0474 42 34.0474 42 34.0474C42 34.0474 42 34.0474 42 34.0474C42 34.0474 42 34.0474 42 34.0474C42 34.0474 42 34.0474 42 34.0474C42 34.0474 42 34.0474 42 34.0474C42 34.0474 42 34.0474 42 34.0474C42 34.0474 42 34.0474 42 34.0474C42 34.0474 42 34.0474 42 34.0474C42 34.0474 42 34.0474 42 34.0474C42 34.0474 42 34.0474 42 34.0474C42 34.0474 42 34.0474 42 34.0474C42 34.0474 42 34.0474 42 34.0474C42 34.0474 42 34.0474 42 34.0474C42 34.0474 42 34.0474 42 34.0474C42 34.0474 42 34.0474 42 34.0474C42 34.0474 42 34.0474 42 34.0474C42 34.0474 42 34.0474 42 34.0474C42 34.0474 42 34.0474 42 34.0474C42 34.0474 42 34.0474 42 34.0474C42 34.0474 42 34.0474 42 34.0474C42 34.0474 42 34.0474 42 34.0474C42 34.0474 42 34.0474 42 34.0474C42 34.0474 42 34.0474 42 34.0474C42 34.0474 42 34.0474 42 34.0474C42 34.0474 42 34.0474 42 34.0474C42 34.0474 42 34.0474 42 34.0474C42 34.0474 42 34.0474 42 34.0474C42 34.0474 42 34.0474 42 34.0474C42 34.0474 42 34.0474 42 34.0474C42 34.0474 42 34.0474 42 34.0474C42 34.0474 42 34.0474 42 34.0474C42 34.0473 42 34.0473 42 34.0473C42 34.0473 42 34.0473 42 34.0473C42 34.0473 42 34.0473 42 34.0473C42 34.0473 42 34.0473 42 34.0473C42 34.0473 42 34.0473 42 34.0473C42 34.0473 42 34.0473 42 34.0473C42 34.0473 42 34.0473 42 34.0473C42 34.0473 42 34.0473 42 34.0473C42 34.0473 42 34.0473 42 34.0473C42 34.0473 42 34.0473 42 34.0473C42 34.0473 42 34.0473 42 34.0473C42 34.0473 42 34.0473 42 34.0473C42 34.0473 42 34.0473 42 34.0473C42 34.0473 42 34.0473 42 34.0473H40ZM40 34.0486C40 34.4199 40.0156 34.7826 40.0472 35.1363L42.0393 34.9583C42.0133 34.6671 42 34.3639 42 34.0484L40 34.0486ZM40.0472 35.1363C40.2213 37.0847 40.8815 38.7529 42.0717 40.0779L43.5595 38.7413C42.7026 37.7874 42.1812 36.5475 42.0393 34.9583L40.0472 35.1363ZM42.0774 40.0841C43.4986 41.6395 45.4639 42.5082 47.8633 42.7671L48.0779 40.7786C46.0464 40.5594 44.575 39.8526 43.5538 38.735L42.0774 40.0841ZM46.9706 41.7729V45H48.9706V41.7729H46.9706ZM47.9706 46H50.5481V44H47.9706V46ZM51.5481 45V41.7566H49.5481V45H51.5481ZM50.6503 42.7513C52.8325 42.5272 54.6457 41.7767 55.9907 40.4244L54.5726 39.014C53.6265 39.9653 52.284 40.573 50.446 40.7618L50.6503 42.7513ZM55.9907 40.4244C57.3487 39.0591 58 37.2929 58 35.2208H56C56 36.8431 55.5058 38.0759 54.5726 39.014L55.9907 40.4244ZM58 35.2208C58 34.1321 57.8336 33.1345 57.4715 32.2503L55.6207 33.0083C55.8638 33.602 56 34.332 56 35.2208H58ZM57.4734 32.2551C57.1206 31.381 56.6085 30.6058 55.942 29.9357L54.524 31.3461C55.0031 31.8278 55.3664 32.3782 55.6188 33.0036L57.4734 32.2551ZM55.9486 29.9424C55.297 29.2748 54.5119 28.696 53.6065 28.1994L52.6448 29.953C53.4036 30.3692 54.0235 30.8335 54.5175 31.3394L55.9486 29.9424ZM53.6152 28.2043C52.7326 27.7087 51.6255 27.1963 50.3052 26.6653L49.559 28.5208C50.8324 29.033 51.8543 29.5093 52.6361 29.9482L53.6152 28.2043ZM50.3079 26.6664C49.047 26.155 48.3352 25.7091 48.0143 25.3717L46.5653 26.7503C47.1954 27.4126 48.2452 27.988 49.5563 28.5198L50.3079 26.6664ZM48.0143 25.3717C47.7495 25.0934 47.5765 24.6955 47.5765 24.0726H45.5765C45.5765 25.1012 45.879 26.0289 46.5653 26.7503L48.0143 25.3717ZM47.5765 24.0726C47.5765 23.3665 47.7646 22.9489 48.0227 22.6837L46.5893 21.289C45.8747 22.0234 45.5765 22.9966 45.5765 24.0726H47.5765ZM48.0301 22.6759C48.2818 22.4117 48.6776 22.2203 49.3647 22.2203V20.2203C48.2795 20.2203 47.3028 20.5396 46.5818 21.2967L48.0301 22.6759ZM49.3647 22.2203C49.984 22.2203 50.403 22.4282 50.7284 22.8287L52.2808 21.5677C51.547 20.6644 50.5394 20.2203 49.3647 20.2203V22.2203ZM50.7399 22.8427C51.0638 23.2269 51.3151 23.9232 51.3151 25.1157H53.3151C53.3151 23.7004 53.0261 22.4517 52.2692 21.5537L50.7399 22.8427ZM52.3151 26.1157H57V24.1157H52.3151V26.1157ZM58 25.1157C58 24.7443 57.9846 24.3817 57.9535 24.0279L55.9612 24.2034C55.9869 24.4955 56 24.7994 56 25.1157H58ZM57.9535 24.0279C57.792 22.1956 57.206 20.6076 56.154 19.3171L54.6039 20.5809C55.3626 21.5115 55.8288 22.7012 55.9612 24.2034L57.9535 24.0279ZM56.1565 19.3202C54.8967 17.7622 53.1588 16.8492 51.0291 16.5467L50.748 18.5269C52.444 18.7677 53.6997 19.4628 54.6013 20.5778L56.1565 19.3202ZM51.8885 17.5368V14H49.8885V17.5368H51.8885ZM50.8885 13H48.2948V15H50.8885V13ZM47.2948 14V17.4879H49.2948V14H47.2948ZM48.1942 16.493C46.0717 16.7076 44.2912 17.4711 42.9333 18.8363L44.3514 20.2467C45.3278 19.265 46.649 18.6594 48.3954 18.4828L48.1942 16.493ZM42.9333 18.8363C41.5586 20.2185 40.8916 21.9873 40.8916 24.0563H42.8916C42.8916 22.4525 43.3918 21.2115 44.3514 20.2467L42.9333 18.8363ZM40.8916 24.0563C40.8916 25.223 41.0748 26.2832 41.4769 27.2091L43.3114 26.4124C43.0434 25.7953 42.8916 25.0192 42.8916 24.0563H40.8916ZM41.4816 27.2198C41.88 28.1084 42.4308 28.8896 43.1313 29.5562L44.51 28.1073C44.0001 27.6222 43.5999 27.056 43.3066 26.4017L41.4816 27.2198ZM43.1447 29.5687C43.8339 30.2008 44.6431 30.7542 45.5627 31.2341L46.4879 29.461C45.7 29.0498 45.0395 28.5927 44.4966 28.0948L43.1447 29.5687ZM45.5717 31.2387C46.4662 31.6941 47.5171 32.1484 48.7192 32.6031L49.4267 30.7324C48.2729 30.296 47.292 29.8703 46.479 29.4564L45.5717 31.2387ZM48.7192 32.6031C49.8446 33.0287 50.5024 33.4493 50.8311 33.809L52.3078 32.4602C51.6637 31.7551 50.6572 31.1977 49.4267 30.7324L48.7192 32.6031ZM50.8455 33.8246C51.1257 34.1185 51.3151 34.5554 51.3151 35.2534H53.3151C53.3151 34.1695 53.0073 33.1938 52.2933 32.4446L50.8455 33.8246ZM51.3151 35.2534C51.3151 35.877 51.1257 36.2798 50.8087 36.5735L52.168 38.0406C52.9534 37.3129 53.3151 36.3466 53.3151 35.2534H51.3151ZM50.8166 36.5663C50.4962 36.8568 50.0091 37.0568 49.2351 37.0568V39.0568C50.3631 39.0568 51.3782 38.7569 52.1601 38.0478L50.8166 36.5663ZM49.2351 37.0568C48.2986 37.0568 47.7178 36.7852 47.336 36.3611L45.8494 37.6989C46.6997 38.6438 47.8804 39.0568 49.2351 39.0568V37.0568ZM22 7H19V9H22V7ZM21 8V46H23V8H21ZM22 47H46.9706V45H22V47ZM46.9706 44H23V46H46.9706V44ZM24 45V8H22V45H24ZM23 9H49V7H23V9ZM48 8V13H50V8H48ZM51 13V8H49V13H51ZM52.5 7H50V9H52.5V7ZM47.1284 0.490261L51.6284 8.49026L53.3716 7.50974L48.8716 -0.490261L47.1284 0.490261ZM19.8716 8.49026L24.3716 0.490261L22.6284 -0.490261L18.1284 7.50974L19.8716 8.49026ZM50.7902 6H20.7098V8H50.7902V6ZM26 14H32V12H26V14ZM27 20V13H25V20H27ZM32 19H26V21H32V19ZM31 13V20H33V13H31ZM32 23H26V25H32V23ZM33 31V24H31V31H33ZM26 32H32V30H26V32ZM25 24V31H27V24H25ZM26 36H32V34H26V36ZM27 42V35H25V42H27ZM32 41H26V43H32V41ZM31 35V42H33V35H31ZM19 46V13H17V46H19ZM16 13V46H18V13H16ZM13 46V20H11V46H13ZM12 20V46H14V20H12ZM50 37.0508V32.713H48V37.0508H50ZM49 22.3128V26.5382H51V22.3128H49ZM50 26.0609V22.2406H48V26.0609H50Z" fill="#1F2432" mask="url(#path-1-inside-1)"/>
</svg>
