<svg width="270" height="113" viewBox="0 0 270 113" fill="none" xmlns="http://www.w3.org/2000/svg">
<path d="M71.2272 96.6401H64L75.1245 75.2236H83.1085L93.7411 96.6401H85.7193L84.0923 92.7942H72.9299L71.2272 96.6401ZM82.1625 88.1188L78.7192 80.3138L75.0867 88.1188H82.1625Z" fill="#818592"/>
<path d="M95.3809 75.2227H102.305V96.6391H95.3809V75.2227Z" fill="#818592"/>
<path d="M105.824 75.2227H112.749V79.5964H105.824V75.2227ZM105.824 81.7079H112.749V96.6391H105.824V81.7079Z" fill="#818592"/>
<path d="M116.529 75.2061H123.454V83.8405C124.286 83.011 125.194 82.37 126.216 81.9553C127.238 81.5405 128.335 81.3143 129.546 81.3143C131.892 81.3143 133.784 82.0684 135.222 83.5766C136.659 85.0848 137.378 87.0832 137.378 89.534C137.378 91.7963 136.659 93.6061 135.259 94.9635C133.859 96.3209 131.967 96.9996 129.621 96.9996C128.335 96.9996 127.162 96.7734 126.102 96.2832C125.043 95.8307 124.173 95.1143 123.416 94.2094C123.416 94.6996 123.416 95.152 123.34 95.5668C123.302 95.9816 123.227 96.3209 123.151 96.6225H116.227C116.302 96.3586 116.378 95.9816 116.416 95.5668C116.454 95.152 116.491 94.6619 116.491 94.134V75.2061H116.529ZM130.416 89.2323C130.416 87.9127 130.113 86.8946 129.47 86.1028C128.865 85.3487 127.994 84.9717 126.935 84.9717C125.8 84.9717 124.929 85.3487 124.286 86.0651C123.681 86.7815 123.378 87.875 123.378 89.27C123.378 90.5897 123.681 91.6078 124.286 92.3242C124.892 93.0406 125.762 93.4176 126.859 93.4176C127.957 93.4176 128.789 93.0406 129.432 92.2864C130.075 91.5323 130.416 90.5143 130.416 89.2323Z" fill="#818592"/>
<path d="M153.194 94.2387C152.551 95.1059 151.681 95.7469 150.621 96.1617C149.562 96.5764 148.313 96.8027 146.799 96.8027C144.681 96.8027 143.016 96.4256 141.88 95.6715C140.745 94.9174 140.178 93.8617 140.178 92.4666C140.178 90.5813 141.162 89.2239 143.129 88.3944C145.097 87.5649 148.427 87.1125 153.081 87.0747C153.081 87.037 153.081 86.9993 153.081 86.9239C153.081 86.8485 153.081 86.7731 153.081 86.7354C153.081 85.9813 152.854 85.4157 152.4 85.0387C151.946 84.6616 151.264 84.4731 150.318 84.4731C149.486 84.4731 148.843 84.6239 148.389 84.8879C147.935 85.1518 147.67 85.5665 147.594 86.1321H141.199C141.237 84.4731 142.032 83.2288 143.545 82.437C145.097 81.6452 147.443 81.2305 150.621 81.2305C153.648 81.2305 155.919 81.6829 157.432 82.6633C158.908 83.6059 159.665 85.0387 159.665 86.9616V94.5781C159.665 95.0305 159.702 95.4453 159.74 95.7092C159.778 96.0108 159.854 96.2748 159.967 96.501H153.535C153.421 96.1617 153.308 95.7846 153.27 95.4076C153.232 95.0305 153.194 94.6535 153.194 94.2387ZM153.043 89.978C150.81 89.978 149.259 90.1289 148.464 90.4305C147.67 90.7321 147.254 91.2223 147.254 91.9387C147.254 92.4289 147.443 92.8059 147.859 93.1076C148.237 93.3715 148.805 93.5223 149.524 93.5223C150.697 93.5223 151.567 93.2584 152.173 92.6928C152.778 92.1649 153.043 91.3354 153.043 90.2043V89.978Z" fill="#818592"/>
<path d="M162.834 75.2061H169.758V83.8405C170.591 83.011 171.499 82.37 172.521 81.9553C173.542 81.5405 174.64 81.3143 175.85 81.3143C178.196 81.3143 180.088 82.0684 181.526 83.5766C182.964 85.0848 183.683 87.0832 183.683 89.534C183.683 91.7963 182.964 93.6061 181.564 94.9635C180.164 96.3209 178.272 96.9996 175.926 96.9996C174.64 96.9996 173.467 96.7734 172.407 96.2832C171.348 95.8307 170.477 95.1143 169.721 94.2094C169.721 94.6996 169.683 95.152 169.645 95.5668C169.607 95.9816 169.531 96.3209 169.456 96.6225H162.531C162.607 96.3586 162.683 95.9816 162.72 95.5668C162.758 95.152 162.796 94.6619 162.796 94.134V75.2061H162.834ZM176.721 89.2323C176.721 87.9127 176.418 86.8946 175.775 86.1028C175.169 85.3487 174.299 84.9717 173.24 84.9717C172.104 84.9717 171.234 85.3487 170.629 86.0651C170.023 86.7815 169.721 87.875 169.721 89.27C169.721 90.5897 170.023 91.6078 170.629 92.3242C171.234 93.0406 172.104 93.4176 173.202 93.4176C174.261 93.4176 175.131 93.0406 175.775 92.2864C176.418 91.5323 176.721 90.5143 176.721 89.2323Z" fill="#818592"/>
<path d="M199.5 94.2387C198.857 95.1059 197.986 95.7469 196.927 96.1617C195.867 96.5764 194.619 96.8027 193.105 96.8027C190.986 96.8027 189.321 96.4256 188.186 95.6715C187.051 94.9174 186.483 93.8617 186.483 92.4666C186.483 90.5813 187.467 89.2239 189.435 88.3944C191.402 87.5649 194.732 87.1125 199.386 87.0747C199.386 87.037 199.386 86.9993 199.386 86.9239C199.386 86.8485 199.386 86.7731 199.386 86.7354C199.386 85.9813 199.159 85.4157 198.705 85.0387C198.251 84.6616 197.57 84.4731 196.624 84.4731C195.792 84.4731 195.148 84.6239 194.694 84.8879C194.24 85.1518 193.975 85.5665 193.9 86.1321H187.505C187.543 84.4731 188.337 83.2288 189.851 82.437C191.402 81.6452 193.748 81.2305 196.927 81.2305C199.954 81.2305 202.224 81.6829 203.738 82.6633C205.213 83.6059 205.97 85.0387 205.97 86.9616V94.5781C205.97 95.0305 206.008 95.4453 206.046 95.7092C206.084 96.0108 206.159 96.2748 206.273 96.501H199.84C199.727 96.1617 199.613 95.7846 199.576 95.4076C199.538 95.0305 199.5 94.6535 199.5 94.2387ZM199.348 89.978C197.116 89.978 195.602 90.1289 194.77 90.4305C193.975 90.7321 193.559 91.2223 193.559 91.9387C193.559 92.4289 193.748 92.8059 194.165 93.1076C194.543 93.3715 195.111 93.5223 195.83 93.5223C197.003 93.5223 197.873 93.2584 198.478 92.6928C199.084 92.1649 199.348 91.3354 199.348 90.2043V89.978Z" fill="#818592"/>
<path d="M105.108 58.712C104.729 58.6743 104.124 58.3349 103.708 57.9956C99.6591 54.0365 104.843 49.4742 110.897 46.8349V39.2939C112.297 40.1988 113.092 40.2365 113.13 40.3496L117.746 35.7873L116.195 31.866C129.703 27.2283 135.114 25.4561 146.087 23.6086L144.119 21.761L147.336 19.9512C154.714 22.3643 161.676 23.0053 160.466 29.1889C160.768 25.0037 155.547 23.42 147.6 21.1954L146.049 22.1381L149.001 24.5512C135.871 26.8135 127.773 29.3774 118.162 32.6955L119.486 36.0889L114.643 40.8775C115.438 41.1037 123.876 43.8939 132.616 37.8234C132.616 37.8234 132.806 37.7103 132.806 37.6348C132.541 37.2201 131.935 36.7299 131.216 36.0889C133.789 36.2775 135.454 38.5021 135.152 40.8398H133.941C134.016 40.0857 133.865 39.2562 133.6 38.7283C126.827 43.6677 118.957 44.3841 112.259 42.0463V47.8906C109.005 49.0218 103.216 52.6038 103.254 56.0726C103.481 57.6939 104.313 58.2972 105.108 58.712Z" fill="#818592"/>
<path d="M132.811 56.7803C125.546 60.4377 118.583 63.3787 107.875 63.7934C93.9125 63.4918 91.7557 54.254 98.3396 44.6015C104.583 34.8736 114.497 26.0507 130.238 20.5457C134.816 18.9244 141.513 17.1146 147.984 17.0014C157.292 16.926 166.335 19.7916 165.73 28.69C165.39 35.5146 155.514 45.0917 150.33 51.9917C148.097 55.0081 147.719 56.9688 151.541 56.7803C165.352 55.8754 177.838 51.1245 189.455 46.1852C181.584 51.5016 140.984 71.523 140.832 57.8737C140.87 56.1393 141.665 54.2917 142.989 52.3311C144.276 50.3704 146.054 48.3343 147.908 46.2606C150.67 43.131 157.557 35.59 159.865 31.0654C163.762 22.6195 155.06 22.2047 147.53 19.5654L144.313 21.3752L146.281 23.2228C135.308 25.0326 129.897 26.8425 116.389 31.4802L117.94 35.4015L113.362 39.9261C113.248 39.813 112.567 39.7753 111.129 38.8704V46.4114C105.113 49.0507 99.891 53.6131 103.94 57.5721C104.356 57.9114 104.961 58.2508 105.34 58.2885C112.756 62.436 132.848 56.7803 132.811 56.7803Z" fill="#818592"/>
</svg>
