<svg width="270" height="114" viewBox="0 0 270 114" fill="none" xmlns="http://www.w3.org/2000/svg">
<path fill-rule="evenodd" clip-rule="evenodd" d="M74.8022 46.2091C72.4417 46.2091 69.7288 46.6989 67.9796 47.5816C67.501 47.8469 67.3248 48.2464 67.3248 48.6437V50.6325C67.3248 51.2577 67.8067 51.5197 68.0699 51.5197C68.5931 51.5197 68.9869 51.0321 69.2491 50.856C70.8666 49.7542 72.4842 48.9959 74.6282 48.9959C77.2922 48.9959 77.6871 50.7657 77.6871 52.9362L77.6795 53.0176C77.6795 54.0313 77.3379 54.2195 73.535 54.7071C71.2169 55.0164 65.9259 56.0785 65.9259 60.8992C65.9259 64.8802 69.0728 67.0066 72.7474 67.0066C74.7587 67.0066 76.4187 66.1162 77.8198 64.8802L77.9068 66.0303C77.9068 66.3396 78.1265 66.5608 78.3441 66.5608H82.3222C82.3918 66.5636 82.4613 66.5518 82.5262 66.5262C82.5911 66.5005 82.6501 66.4615 82.6994 66.4117C82.7487 66.3619 82.7873 66.3023 82.8128 66.2367C82.8383 66.1711 82.8502 66.1008 82.8476 66.0303V52.2725C82.8465 48.6866 80.9646 46.2091 74.8022 46.2091ZM77.6011 62.3124C77.6011 62.8925 76.1076 64.4487 74.0897 64.4487C71.763 64.4487 70.8851 62.7593 70.8851 61.072C70.8851 58.6748 72.7267 56.4571 77.6011 56.4571V62.3124ZM89.073 39.1332C87.1433 39.1332 86.2197 40.2877 86.2197 41.6206C86.2197 43.2176 87.3597 44.2841 89.073 44.2841C90.7852 44.2841 91.8382 43.2165 91.8382 41.6206C91.8382 40.2877 90.9168 39.1332 89.073 39.1332ZM86.57 47.2602V66.0953C86.57 66.4002 86.7908 66.6258 87.0095 66.6258H91.2236C91.2932 66.6282 91.3625 66.6162 91.4274 66.5904C91.4922 66.5647 91.5511 66.5257 91.6004 66.476C91.6498 66.4263 91.6885 66.3668 91.7143 66.3013C91.74 66.2359 91.7522 66.1657 91.7501 66.0953V47.2602C91.7525 47.1895 91.7405 47.119 91.7149 47.0532C91.6894 46.9873 91.6507 46.9275 91.6014 46.8773C91.552 46.8272 91.493 46.7879 91.428 46.7617C91.3631 46.7356 91.2935 46.7232 91.2236 46.7253H87.0095C86.7908 46.7264 86.57 46.952 86.57 47.2602ZM45.7462 65.4701C53.1193 68.9767 63.6121 66.9362 63.6121 58.009C63.6121 49.7939 49.6982 50.3244 49.6982 45.2593C49.6982 43.2176 51.629 41.8429 54.0863 41.8429C56.2815 41.8429 57.9502 42.598 59.7059 43.889C60.1899 44.2401 60.4978 44.4635 60.8905 44.4635C61.3745 44.4635 61.5051 44.152 61.5051 43.7503V41.1792C61.5051 40.7753 61.4181 40.5519 61.0221 40.3758C59.5296 39.8013 56.8961 39.2179 53.9982 39.2179C48.1622 39.2179 45 42.8632 45 46.9939C45 55.964 58.6953 54.1017 58.6953 60.186C58.6953 63.8731 53.4282 66.4475 47.3279 62.1352C46.7568 61.7379 46.4925 61.5167 46.0987 61.5167C45.3524 61.5167 45.2186 61.9184 45.2186 62.3168V64.5808C45.2176 64.9803 45.3078 65.206 45.7462 65.4701ZM96.0958 47.2602V66.0953C96.0958 66.4002 96.3144 66.6258 96.5342 66.6258H100.748C100.818 66.6282 100.887 66.6162 100.952 66.5904C101.017 66.5647 101.076 66.5257 101.125 66.476C101.174 66.4263 101.213 66.3668 101.239 66.3013C101.265 66.2359 101.277 66.1657 101.275 66.0953V50.9033C102.11 50.4135 103.865 49.5275 105.356 49.5275C108.255 49.5275 108.43 51.3028 108.43 52.8118V66.0953C108.43 66.4002 108.649 66.6258 108.87 66.6258H113.085C113.154 66.6281 113.224 66.6159 113.288 66.5901C113.353 66.5642 113.412 66.5252 113.461 66.4755C113.51 66.4258 113.548 66.3664 113.574 66.301C113.599 66.2356 113.612 66.1656 113.609 66.0953V52.3693C113.609 48.7714 111.723 46.2829 107.507 46.2829C105.093 46.2829 102.546 47.4826 101.23 48.2838H101.143V47.2602C101.146 47.1895 101.134 47.1189 101.108 47.053C101.083 46.9871 101.044 46.9272 100.995 46.877C100.945 46.8268 100.886 46.7875 100.821 46.7614C100.756 46.7353 100.687 46.723 100.617 46.7253H96.5342C96.3144 46.7264 96.0958 46.952 96.0958 47.2602ZM129.722 47.3956C124.015 44.9929 116.375 46.284 116.375 52.5454C116.375 59.6082 127.437 58.1421 127.437 61.9624C127.437 65.0299 122.214 65.3392 118.439 62.4049C118.175 62.1859 117.911 62.0549 117.604 62.0549C117.166 62.0549 116.902 62.231 116.902 62.8506V64.5808C116.902 65.0728 117.033 65.4712 117.561 65.7354C122.432 67.9586 131.387 68.0049 131.387 59.8305C131.387 52.8129 120.194 54.4121 120.194 50.9044C120.194 48.0186 125.68 48.2849 128.843 50.4576C129.105 50.6359 129.455 50.8142 129.676 50.8142C130.113 50.8142 130.379 50.6359 130.379 50.0151V48.548C130.381 48.0593 130.247 47.6146 129.722 47.3956ZM224.275 47.3956C218.57 44.9929 210.93 46.284 210.93 52.5454C210.93 59.6082 221.993 58.1421 221.993 61.9624C221.993 65.0299 216.768 65.3392 212.993 62.4049C212.73 62.1859 212.467 62.0549 212.158 62.0549C211.718 62.0549 211.456 62.231 211.456 62.8506V64.5808C211.456 65.0728 211.588 65.4712 212.114 65.7354C216.984 67.9586 225.943 68.0049 225.943 59.8305C225.943 52.8129 214.749 54.4121 214.749 50.9044C214.749 48.0186 220.235 48.2849 223.396 50.4576C223.659 50.6359 224.009 50.8142 224.229 50.8142C224.669 50.8142 224.932 50.6359 224.932 50.0151V48.548C224.933 48.0593 224.801 47.6146 224.275 47.3956ZM181.169 52.6786C181.169 50.5467 181.915 49.2149 186.48 50.4135C187.049 50.5467 187.403 50.6799 187.885 50.6799C188.19 50.6799 188.456 50.3706 188.456 50.0602V47.4385C188.456 46.995 188.148 46.6417 187.576 46.5063C184.417 45.7502 182.485 47.2151 180.86 48.7714L180.773 48.7263V47.2602C180.775 47.1895 180.763 47.119 180.738 47.0532C180.712 46.9873 180.673 46.9275 180.624 46.8773C180.575 46.8272 180.516 46.7879 180.451 46.7617C180.386 46.7356 180.316 46.7232 180.246 46.7253H176.426C176.207 46.7253 175.989 46.9509 175.989 47.2602V66.0953C175.989 66.4002 176.207 66.6258 176.426 66.6258H180.639C180.709 66.6285 180.778 66.6167 180.843 66.5911C180.909 66.5655 180.968 66.5266 181.017 66.4768C181.067 66.427 181.106 66.3675 181.132 66.3019C181.158 66.2362 181.17 66.1659 181.168 66.0953V52.6786H181.169ZM210.49 46.8189C212.555 46.8189 214.882 39 211.061 39H208.999C208.517 39 208.43 39.3533 208.43 39.6197C208.43 40.1546 209.743 41.4874 209.743 43.3079C209.743 45.1712 209.043 45.8393 209.043 46.4171C209.043 46.6428 209.262 46.8189 209.568 46.8189H210.49ZM199.385 60.4964L199.122 59.6511L194.951 47.2151C194.819 46.8618 194.645 46.7264 194.249 46.7264H189.771C189.508 46.7264 189.378 46.8618 189.378 47.1281C189.378 47.2613 189.419 47.3967 189.597 47.8392L196.882 65.7365C198.112 68.7588 194.513 70.9348 191.044 69.9585C190.517 69.8253 190.166 69.6921 189.684 69.6921C189.378 69.6921 189.115 70.0014 189.115 70.3107V72.8454C189.115 73.3804 189.465 74 191.397 74C196.05 74 198.551 71.6028 200.79 65.9599L207.99 47.706C208.077 47.4396 208.165 47.3075 208.165 47.1292C208.165 47.0767 208.155 47.0247 208.136 46.976C208.116 46.9274 208.087 46.8831 208.051 46.8458C208.014 46.8084 207.971 46.7788 207.923 46.7585C207.875 46.7382 207.824 46.7277 207.772 46.7275H204.653C204.347 46.7275 204.127 46.908 204.04 47.2162L199.74 59.6522L199.385 60.4964ZM172.213 66.0964V47.2602C172.213 46.9509 171.992 46.7253 171.773 46.7253H167.56C167.49 46.7228 167.421 46.735 167.356 46.761C167.291 46.7871 167.231 46.8264 167.182 46.8766C167.133 46.9268 167.094 46.9868 167.068 47.0528C167.043 47.1188 167.031 47.1894 167.034 47.2602V62.45C166.201 62.9376 164.444 63.8258 162.953 63.8258C160.057 63.8258 159.878 62.0549 159.878 60.5415V47.2602C159.878 46.9509 159.66 46.7253 159.439 46.7253H155.228C155.158 46.7225 155.088 46.7345 155.023 46.7604C154.957 46.7862 154.898 46.8256 154.848 46.8758C154.799 46.926 154.76 46.9861 154.734 47.0523C154.709 47.1184 154.697 47.1892 154.7 47.2602V60.984C154.7 64.5808 156.588 67.0671 160.803 67.0671C163.215 67.0671 165.762 65.8675 167.08 65.0728H167.167V66.0964C167.167 66.4013 167.383 66.6269 167.693 66.6269H171.775C171.992 66.6269 172.213 66.4013 172.213 66.0964ZM133.761 39.7561C133.761 39.4425 133.979 39.219 134.199 39.219H138.413C138.719 39.219 138.937 39.4425 138.937 39.7561V48.6371V48.5942C139.773 47.8832 141.704 46.3258 144.689 46.3258C149.212 46.3258 152.063 50.3233 152.063 55.6536C152.063 62.4929 147.366 67.0242 141.571 67.0242C138.412 67.0242 136.085 65.9126 134.547 64.7129C133.89 64.2253 133.758 63.3866 133.758 62.6723V39.7561H133.761ZM139.554 64.1395C139.991 64.4036 140.651 64.6248 141.923 64.6248C144.734 64.6248 146.708 61.695 146.708 56.7223C146.708 54.8546 146.315 49.6101 142.318 49.6101C140.74 49.6101 139.597 50.5038 138.938 50.9881V62.9827C138.937 63.3877 139.027 63.7829 139.554 64.1395Z" fill="#818592"/>
</svg>
