<svg width="270" height="114" viewBox="0 0 270 114" fill="none" xmlns="http://www.w3.org/2000/svg">
<path d="M208.3 49.1488C209.355 49.1488 210.223 48.6006 210.34 47.8923L211.381 36.119C211.381 34.9553 210.018 34 208.304 34C206.591 34 205.229 34.9553 205.229 36.1192L206.27 47.8923C206.384 48.6003 207.252 49.1488 208.304 49.1488H208.3ZM201.937 52.8261C202.466 51.9141 202.426 50.889 201.869 50.4337L192.192 43.6455C191.186 43.0628 189.677 43.7642 188.821 45.249C187.962 46.732 188.114 48.3882 189.118 48.9711L199.833 53.9602C200.503 54.2085 201.416 53.7306 201.941 52.8192L201.937 52.8261ZM214.669 52.8198C215.197 53.7312 216.106 54.2093 216.776 53.9608L227.492 48.9717C228.501 48.389 228.645 46.7326 227.794 45.2496C226.933 43.7663 225.422 43.0634 224.419 43.6461L214.741 50.4343C214.188 50.889 214.146 51.9149 214.672 52.8268L214.669 52.8198ZM208.3 63.8554C209.355 63.8554 210.223 64.399 210.34 65.1079L211.381 76.8796C211.381 78.0468 210.018 79 208.304 79C206.591 79 205.229 78.0468 205.229 76.8796L206.27 65.1079C206.384 64.399 207.252 63.8554 208.304 63.8554H208.3ZM214.669 60.1772C215.197 59.2633 216.106 58.7894 216.776 59.0407L227.492 64.0264C228.501 64.6097 228.645 66.2676 227.794 67.7518C226.933 69.2304 225.422 69.9351 224.419 69.3533L214.741 62.5714C214.188 62.1131 214.146 61.0865 214.672 60.1753H214.668L214.669 60.1772ZM201.937 60.176C202.466 61.0865 202.426 62.1131 201.869 62.5722L192.192 69.3539C191.186 69.9357 189.677 69.231 188.821 67.7525C187.962 66.2683 188.114 64.6103 189.118 64.027L199.833 59.0413C200.503 58.7901 201.416 59.2639 201.941 60.1781H201.937" fill="#818592"/>
<path d="M147.261 62.55C147.261 62.9113 147.228 63.2839 147.129 63.6111C146.719 64.9704 145.312 66.1198 143.551 66.1198C142.083 66.1198 140.917 65.2859 140.917 63.5246C140.917 60.829 143.884 60.0846 147.261 60.1033L147.261 62.5498V62.55ZM152.558 57.8524C152.558 53.4076 150.659 49.4964 144.241 49.4964C140.947 49.4964 138.333 50.4217 136.906 51.2464L137.951 54.8197C139.255 53.9963 141.334 53.3147 143.301 53.3147C146.556 53.3057 147.089 55.1581 147.089 56.3436V56.6243C139.993 56.6138 135.508 59.0707 135.508 64.0758C135.508 67.1341 137.792 69.9985 141.764 69.9985C144.204 69.9985 146.247 69.0245 147.471 67.4628H147.591C147.591 67.4628 148.401 70.8534 152.869 69.5562C152.636 68.1461 152.559 66.6409 152.559 64.8309L152.558 57.8524H152.558ZM42 43.4432C42 43.4432 46.6368 62.4431 47.3773 65.5266C48.241 69.1258 49.7977 70.4508 54.2837 69.5562L57.1788 57.777C57.9129 54.8498 58.4043 52.7627 58.8773 49.788H58.9596C59.2917 52.7942 59.7629 54.8588 60.367 57.7867C60.367 57.7867 61.5449 63.1345 62.1492 65.9425C62.7542 68.7496 64.4379 70.5199 68.8326 69.5562L75.7315 43.4424H70.1631L67.8067 54.7332C67.1732 58.0184 66.5989 60.5883 66.1557 63.5931H66.077C65.6743 60.6148 65.1616 58.1496 64.5182 54.9481L62.0669 43.4424H56.2641L53.6405 54.658C52.898 58.0671 52.2017 60.8187 51.7606 63.7235H51.6804C51.2275 60.9883 50.6246 57.5285 49.9722 54.2301C49.9722 54.2301 48.4147 46.2077 47.8669 43.4424L42 43.4432ZM86.2646 62.55C86.2646 62.9113 86.2325 63.2839 86.1321 63.6111C85.7225 64.9704 84.3143 66.1198 82.5537 66.1198C81.0854 66.1198 79.9211 65.2859 79.9211 63.5246C79.9211 60.829 82.8872 60.0846 86.2653 60.1033L86.2646 62.5498V62.55ZM91.5614 57.8524C91.5614 53.4076 89.6622 49.4964 83.246 49.4964C79.951 49.4964 77.3344 50.4217 75.9081 51.2464L76.9521 54.8197C78.2561 53.9963 80.3347 53.3147 82.3025 53.3147C85.5599 53.3057 86.093 55.1581 86.093 56.3436V56.6243C78.9944 56.6138 74.5111 59.0707 74.5111 64.0758C74.5111 67.1341 76.7943 69.9985 80.7626 69.9985C83.2061 69.9985 85.2486 69.0245 86.4732 67.4628H86.5925C86.5925 67.4628 87.4041 70.8534 91.8711 69.5562C91.6375 68.1461 91.5614 66.6409 91.5614 64.8309V57.8524ZM100.402 64.013V43.4432H95.0978V69.557H100.402V64.013ZM169.784 43.4432V62.7069C169.784 65.364 170.285 67.2236 171.353 68.3616C172.289 69.3566 173.827 70.0006 175.671 70.0006C177.24 70.0006 178.782 69.7013 179.51 69.4314L179.442 65.288C178.9 65.4203 178.278 65.5274 177.427 65.5274C175.62 65.5274 175.016 64.3696 175.016 61.9854V54.6147H179.634V49.6176H175.016V43.4432H169.784ZM156.095 49.9394V69.557H161.566V59.5124C161.566 58.9695 161.599 58.4964 161.684 58.0637C162.089 55.9586 163.698 54.6147 166.009 54.6147C166.643 54.6147 167.096 54.6836 167.588 54.7533V49.6176C167.175 49.5355 166.896 49.4971 166.383 49.4971C164.341 49.4971 162.018 50.8145 161.043 53.6405H160.895V49.9394H156.095ZM104.115 49.9394V69.557H109.446V58.0532C109.446 57.5134 109.509 56.9425 109.696 56.4476C110.138 55.2894 111.216 53.9329 112.936 53.9329C115.088 53.9329 116.093 55.7513 116.093 58.3757V69.5556H121.419V57.9117C121.419 57.3966 121.489 56.7757 121.642 56.3216C122.079 55.0033 123.24 53.9314 124.839 53.9314C127.02 53.9314 128.067 55.7179 128.067 58.8069V69.5549H133.396V58.0001C133.396 51.9072 130.302 49.4952 126.809 49.4952C125.264 49.4952 124.042 49.8823 122.938 50.5591C122.011 51.1304 121.179 51.9399 120.453 53.0041H120.374C119.532 50.8899 117.55 49.4962 114.968 49.4962C111.65 49.4962 110.159 51.1781 109.254 52.6043H109.175V49.9388H104.115" fill="#818592"/>
</svg>
