<svg width="270" height="114" viewBox="0 0 270 114" fill="none" xmlns="http://www.w3.org/2000/svg">
<path fill-rule="evenodd" clip-rule="evenodd" d="M116.997 18.667C116.997 18.667 108.807 27.237 108.807 43.8064C108.807 60.3757 116.045 71.0402 116.045 71.0402L89.5713 44.1872L116.997 18.667Z" fill="#818592"/>
<path fill-rule="evenodd" clip-rule="evenodd" d="M121.377 44.5672C122.115 27.4427 126.206 16.5625 136.671 17.0135C147.135 17.4645 148.678 25.9183 148.678 25.9183C148.678 25.9183 141.091 25.0198 140.739 33.2015C140.386 41.3832 148.377 41.7272 148.567 41.7352C148.757 41.7433 156.147 41.1007 157.943 35.4254C160.357 27.7959 154.896 19.4272 154.896 19.4272L181.178 45.1378L154.134 71.2298C154.134 71.2298 157.562 64.7537 156.801 55.613C156.307 49.6805 148.611 48.5663 148.42 48.5663C148.231 48.5663 140.231 48.5663 140.231 56.7554C140.231 64.9446 147.85 64.3728 147.85 64.3728C147.85 64.3728 145.945 72.753 135.471 72.753C124.995 72.7542 121.377 61.7072 121.377 44.5672ZM90.162 85.4947C91.1336 84.0082 92.8478 83.2276 94.619 83.2276C95.9139 83.2276 96.9999 83.6274 97.876 84.5806L97.914 84.5427C97.8185 83.819 98.3328 83.3047 99.0944 83.3047C99.8186 83.3047 100.314 83.8 100.314 84.5237C100.314 85.1708 100.161 85.8001 100.161 86.4473C100.161 86.9621 100.314 87.4753 100.314 87.9901C100.314 88.8662 99.4948 89.3045 98.7136 89.3045C97.685 89.3045 97.2283 88.8282 97.2663 87.8003C97.2858 87.2475 97.2858 86.9811 96.9234 86.5428C96.5236 86.0665 95.8949 85.952 95.3047 85.952C93.5335 85.952 92.6574 87.0766 92.6574 90.1812C92.6574 93.0942 93.5335 94.2954 95.4002 94.2954C95.9144 94.2954 96.4857 94.2188 96.8665 93.857C97.3232 93.4377 97.3428 93.0189 97.3428 92.4471C97.3428 92.0088 97.3428 91.6665 97.5901 91.2851C97.8381 90.9043 98.2948 90.7513 98.7521 90.7513C99.9901 90.7513 100.542 91.6469 100.542 92.7894C100.542 95.6656 97.8191 96.999 95.2667 96.999C93.5335 96.999 91.8572 96.5037 90.6383 95.1893C89.4959 93.9514 89 91.8759 89 90.2186C89 88.7138 89.3244 86.77 90.162 85.4947ZM105.302 89.1699C105.302 90.046 104.464 90.4464 103.664 90.4464C102.731 90.4464 101.912 89.7803 101.912 88.8081C101.912 87.6081 103.131 86.5226 106.064 86.5226C107.016 86.5226 108.312 86.6181 109.15 87.0944C110.159 87.6651 110.369 88.5797 110.369 90.027V93.6079C110.369 94.3506 110.483 94.5036 110.692 94.5036C110.845 94.5036 110.997 94.4656 111.15 94.4656C111.76 94.4656 112.102 94.9805 112.102 95.5321C112.102 96.5992 111.035 96.9996 110.14 96.9996C109.264 96.9996 108.293 96.6763 107.969 95.7806C107.074 96.6378 105.912 96.9996 104.712 96.9996C102.978 96.9996 101.322 96.0849 101.322 94.1423C101.322 89.6278 107.226 91.9708 107.226 89.457C107.226 88.7322 106.559 88.3899 105.931 88.3899C105.607 88.3899 105.302 88.4474 105.302 88.8282V89.1699H105.302ZM107.225 92.3884C106.673 92.9792 104.464 92.6927 104.464 93.7029C104.464 94.369 104.997 94.5985 105.549 94.5985C106.673 94.5985 107.225 93.9312 107.225 92.8078V92.3884ZM116.669 89.056H116.707C117.012 87.4942 118.174 86.6181 119.773 86.6181C121.106 86.6181 122.287 87.6271 122.287 88.9991C122.287 89.9701 121.677 90.8652 120.649 90.8652C119.926 90.8652 119.316 90.3889 119.316 89.6272C119.316 89.3609 119.43 89.1124 119.544 88.8846C117.411 88.7316 117.354 91.6274 117.354 93.1506C117.354 94.2752 117.468 94.484 117.697 94.484C117.792 94.484 117.887 94.4461 117.983 94.4075C118.096 94.3696 118.211 94.35 118.325 94.35C118.954 94.35 119.164 94.8649 119.164 95.4366C119.164 96.1603 118.84 96.7499 118.212 96.7499C117.183 96.7499 116.421 96.5601 115.64 96.5601C114.917 96.5601 114.193 96.7499 113.507 96.7499C112.879 96.7499 112.555 96.1603 112.555 95.4366C112.555 94.8649 112.765 94.35 113.393 94.35C113.526 94.35 113.622 94.388 113.736 94.4075C113.832 94.4265 113.927 94.484 114.022 94.484C114.25 94.484 114.365 94.2942 114.365 93.1506V90.4079C114.365 89.2269 114.269 89.0756 114.022 89.0756C113.832 89.0756 113.641 89.2079 113.393 89.2079C112.765 89.2079 112.555 88.693 112.555 88.1224C112.555 87.3987 112.879 86.808 113.507 86.808C114.059 86.808 114.441 86.999 114.822 86.999C115.24 86.999 115.64 86.808 116.079 86.808C116.498 86.808 116.669 86.9414 116.669 87.6271V89.056Z" fill="#818592"/>
<path fill-rule="evenodd" clip-rule="evenodd" d="M125.997 89.0555H126.035C126.339 87.4937 127.501 86.6176 129.102 86.6176C130.434 86.6176 131.616 87.6266 131.616 88.9986C131.616 89.9696 131.006 90.8647 129.978 90.8647C129.253 90.8647 128.644 90.3884 128.644 89.6267C128.644 89.3604 128.759 89.1119 128.873 88.8841C126.74 88.7311 126.682 91.6269 126.682 93.1501C126.682 94.2747 126.797 94.4835 127.025 94.4835C127.12 94.4835 127.215 94.4456 127.31 94.407C127.425 94.3691 127.539 94.3495 127.654 94.3495C128.282 94.3495 128.492 94.8643 128.492 95.4361C128.492 96.1598 128.168 96.7494 127.539 96.7494C126.511 96.7494 125.749 96.5596 124.968 96.5596C124.244 96.5596 123.52 96.7494 122.835 96.7494C122.207 96.7494 121.883 96.1598 121.883 95.4361C121.883 94.8643 122.092 94.3495 122.721 94.3495C122.854 94.3495 122.95 94.3875 123.064 94.407C123.159 94.426 123.255 94.4835 123.35 94.4835C123.578 94.4835 123.693 94.2937 123.693 93.1501V90.4073C123.693 89.2264 123.597 89.0751 123.35 89.0751C123.159 89.0751 122.969 89.2074 122.721 89.2074C122.093 89.2074 121.883 88.6925 121.883 88.1219C121.883 87.3982 122.207 86.8075 122.835 86.8075C123.387 86.8075 123.768 86.9984 124.149 86.9984C124.569 86.9984 124.968 86.8075 125.407 86.8075C125.826 86.8075 125.997 86.9409 125.997 87.6266V89.0555ZM135.1 92.2936C134.606 92.2936 134.548 92.3689 134.548 92.6922C134.548 93.7789 135.405 94.5974 136.51 94.5974C137.176 94.5974 137.52 94.4254 138.053 93.8548C138.663 93.2065 138.872 93.092 139.5 93.092C140.244 93.092 140.815 93.5304 140.815 94.2931C140.815 95.7404 138.949 96.9973 136.472 96.9973C133.349 96.9973 131.406 94.9017 131.406 91.8167C131.406 88.807 133.273 86.5216 136.396 86.5216C139.329 86.5216 140.986 88.2743 140.986 91.093C140.986 91.968 140.872 92.293 139.729 92.293H135.1V92.2936ZM137.367 90.1796C137.806 90.1796 137.844 90.0651 137.844 89.8563C137.844 89.3414 137.367 88.6753 136.415 88.6753C135.444 88.6753 134.643 89.4179 134.643 89.9132C134.643 90.1606 134.891 90.1796 135.444 90.1796H137.367ZM143.305 89.6647C143.305 88.9221 143.247 88.9221 142.658 88.9221C141.914 88.9221 141.496 88.7501 141.496 87.9131C141.496 87.1325 141.781 86.7885 142.562 86.7885C143.286 86.7885 143.305 86.7131 143.324 86.1603C143.4 84.0843 145.19 83.2266 147.076 83.2266C147.704 83.2266 148.485 83.341 149.038 83.6264C149.685 83.9692 150.18 84.579 150.18 85.3216C150.18 86.1597 149.608 86.8069 148.751 86.8069C148.123 86.8069 147.457 86.3685 147.457 85.6834C147.457 85.4746 147.515 85.3601 147.628 85.1686C147.496 85.1111 147.4 85.0921 147.247 85.0921C146.542 85.0921 146.296 85.5114 146.296 86.1787C146.296 86.7879 146.334 86.7879 146.943 86.7879C148.085 86.7879 148.296 87.0934 148.296 87.817C148.296 88.692 148.047 88.9215 146.696 88.9215C146.352 88.9215 146.296 89.1493 146.296 89.6641V93.1495C146.296 94.2931 146.372 94.483 146.639 94.483C146.754 94.483 146.848 94.445 146.943 94.4064C147.039 94.3875 147.153 94.3489 147.267 94.3489C147.896 94.3489 148.105 94.8638 148.105 95.4356C148.105 96.1592 147.781 96.7488 146.981 96.7488C146.162 96.7488 145.401 96.559 144.62 96.559C143.896 96.559 143.171 96.7299 142.544 96.7488C141.82 96.7488 141.497 96.1592 141.497 95.4356C141.497 94.8638 141.706 94.3489 142.335 94.3489C142.467 94.3489 142.582 94.3869 142.678 94.4064C142.791 94.4444 142.887 94.483 142.963 94.483C143.268 94.483 143.306 94.0832 143.306 93.1495V89.6647H143.305Z" fill="#818592"/>
<path fill-rule="evenodd" clip-rule="evenodd" d="M158.563 91.646C158.563 94.8075 156.964 96.9986 153.631 96.9986C150.317 96.9986 148.545 95.0181 148.545 91.761C148.545 88.523 150.317 86.5234 153.612 86.5234C156.735 86.5229 158.563 88.5799 158.563 91.646ZM151.688 91.761C151.688 93.97 152.678 94.5993 153.459 94.5993C154.126 94.5993 154.697 94.4083 155.001 93.7802C155.287 93.1894 155.421 92.4082 155.421 91.761C155.421 89.551 154.583 88.9228 153.555 88.9228C152.659 88.9228 151.688 89.6275 151.688 91.761ZM162.94 92.4082C162.94 92.808 162.94 93.4753 163.168 93.8567C163.284 94.0353 163.441 94.1827 163.628 94.2856C163.814 94.3885 164.023 94.4437 164.235 94.4463C164.509 94.445 164.779 94.3746 165.018 94.2414C165.258 94.1083 165.46 93.9168 165.606 93.6847C166.006 93.0755 166.044 92.4272 166.044 91.7231V90.4086C166.044 89.3807 165.968 89.0764 165.702 89.0764C165.606 89.0764 165.512 89.1132 165.416 89.1339C165.302 89.1707 165.206 89.2093 165.073 89.2093C164.444 89.2093 164.235 88.6944 164.235 88.1238C164.235 87.4001 164.559 86.8093 165.397 86.8093C166.025 86.8093 166.444 87.0003 167.074 87.0003C167.587 87.0003 167.949 86.8093 168.425 86.8093C168.921 86.8093 169.036 87.0193 169.036 87.4387V93.152C169.036 94.2956 169.168 94.4854 169.379 94.4854C169.568 94.4854 169.759 94.3519 170.007 94.3519C170.636 94.3519 170.845 94.8668 170.845 95.4386C170.845 96.1622 170.522 96.7519 169.721 96.7519C169.245 96.7519 168.807 96.562 168.368 96.562C167.949 96.562 167.53 96.7519 167.168 96.7519C166.692 96.7519 166.483 96.4286 166.483 96.1237V95.3621H166.445C165.741 96.409 164.369 97.0004 163.094 97.0004C161.131 97.0004 159.951 95.8579 159.951 93.9332V90.4098C159.951 89.2478 159.818 89.0775 159.607 89.0775C159.512 89.0775 159.418 89.1143 159.322 89.1351C159.208 89.1719 159.113 89.2104 158.979 89.2104C158.351 89.2104 158.141 88.6956 158.141 88.1249C158.141 87.4013 158.464 86.8105 159.36 86.8105C159.969 86.8105 160.465 87.0015 161.094 87.0015C161.684 87.0015 161.969 86.8105 162.446 86.8105C162.941 86.8105 162.941 87.1723 162.941 87.6676V92.4082H162.94Z" fill="#818592"/>
<path fill-rule="evenodd" clip-rule="evenodd" d="M174.747 89.056H174.785C175.09 87.4943 176.252 86.6182 177.851 86.6182C179.185 86.6182 180.366 87.6271 180.366 88.9991C180.366 89.9701 179.757 90.8652 178.727 90.8652C178.004 90.8652 177.395 90.3889 177.395 89.6273C177.395 89.3609 177.509 89.1124 177.623 88.8846C175.489 88.7316 175.432 91.6274 175.432 93.1506C175.432 94.2752 175.546 94.4841 175.776 94.4841C175.87 94.4841 175.966 94.4461 176.061 94.4075C176.176 94.3696 176.289 94.35 176.404 94.35C177.032 94.35 177.242 94.8649 177.242 95.4367C177.242 96.1603 176.919 96.7499 176.29 96.7499C175.262 96.7499 174.5 96.5601 173.719 96.5601C172.995 96.5601 172.27 96.7499 171.585 96.7499C170.957 96.7499 170.634 96.1603 170.634 95.4367C170.634 94.8649 170.843 94.35 171.472 94.35C171.604 94.35 171.7 94.388 171.815 94.4075C171.909 94.4265 172.005 94.4841 172.1 94.4841C172.328 94.4841 172.443 94.2942 172.443 93.1506V90.4079C172.443 89.2269 172.347 89.0756 172.1 89.0756C171.909 89.0756 171.719 89.2079 171.472 89.2079C170.843 89.2079 170.634 88.6931 170.634 88.1224C170.634 87.3988 170.957 86.808 171.585 86.808C172.138 86.808 172.519 86.999 172.9 86.999C173.319 86.999 173.719 86.808 174.157 86.808C174.577 86.808 174.747 86.9415 174.747 87.6271V89.056H174.747Z" fill="#818592"/>
</svg>
