<svg width="60" height="60" viewBox="0 0 60 60" fill="none" xmlns="http://www.w3.org/2000/svg">
<rect width="60" height="60" fill="black" fill-opacity="0"/>
<circle opacity="0.1" cx="30" cy="30" r="30" fill="#00DCE6"/>
<path d="M31.8639 30.5007L37.6036 20.5286L40.3772 30.5007L37.6036 40.4707L31.8639 30.5007ZM29.0662 32.1199L34.8068 42.0906L24.8095 39.5138L17.5863 32.1199H29.0665H29.0662ZM34.8057 18.908L29.0662 28.8801H17.586L24.8092 21.4862L34.8058 18.908H34.8057ZM43 27.107L39.498 14L26.4277 17.5128L24.4929 20.9348L20.567 20.9066L11 30.5015L20.567 40.0942H20.5672L24.4915 40.0652L26.4291 43.4872L39.4979 47L42.9999 33.8945L41.0111 30.5007L42.9999 27.107" fill="#00DCE6"/>
</svg>
