<svg width="70" height="70" viewBox="0 0 70 70" fill="none" xmlns="http://www.w3.org/2000/svg">
<circle cx="35" cy="35" r="35" fill="#00DCE6" fill-opacity="0.1"/>
<path d="M24.2405 47.8086H18.0918V53.9501" stroke="#00DCE6"/>
<path d="M55.0626 25.7646C56.3238 28.538 56.9903 31.5192 56.9975 34.5003C57.0118 40.0112 54.8547 45.5292 50.6338 49.7501C46.4774 53.9066 40.9952 55.9418 35.4987 55.9991C29.4933 56.0565 25.0932 54.2219 21.1661 50.8824C20.471 50.2876 18.0918 47.8081 18.0918 47.8081" stroke="#00DCE6"/>
<path d="M15.935 43.2358C14.6737 40.4624 14.0072 37.4813 14.0001 34.5001C13.9857 28.9892 16.1428 23.4712 20.3637 19.2503C24.5201 15.0939 30.0023 13.0586 35.4989 13.0013C41.5042 12.944 45.9043 14.7785 49.8314 18.118C50.5265 18.7128 52.9057 21.1923 52.9057 21.1923" stroke="#00DCE6"/>
<path d="M46.7568 21.1913H52.9055V15.0498" stroke="#00DCE6"/>
<path d="M43.6458 26.998V24.9346H25.2515C24.358 24.9346 23.6748 25.6104 23.6748 26.4822" stroke="#00DCE6" stroke-miterlimit="10" stroke-linejoin="round"/>
<path d="M46.2735 38.3464V42.9892H25.2515C24.358 42.9892 23.6748 42.3134 23.6748 41.4416V26.4814C23.6748 27.3533 24.358 28.029 25.2515 28.029H46.2735V32.156" stroke="#00DCE6" stroke-miterlimit="10" stroke-linecap="round" stroke-linejoin="round"/>
<path d="M39.9666 33.189C38.3689 33.189 37.3389 34.3445 37.3389 35.7683C37.3389 37.1921 38.3689 38.3476 39.9666 38.3476H45.7477C46.6201 38.3476 47.3243 37.6564 47.3243 36.8V32.6731C47.3243 32.3894 47.0878 32.1572 46.7988 32.1572H46.2732C46.2732 32.704 45.7004 33.189 45.2221 33.189H43.6455H39.9666Z" stroke="#00DCE6" stroke-miterlimit="10" stroke-linecap="round" stroke-linejoin="round"/>
<path d="M39.4414 35.7676H40.4925" stroke="#00DCE6" stroke-miterlimit="10"/>
</svg>
