<svg width="270" height="70" viewBox="0 0 270 70" fill="none" xmlns="http://www.w3.org/2000/svg">
<path d="M136.647 16.7722L139.552 7.74887H140.618L143.703 16.7722H142.562L141.687 14.0396H138.516L137.697 16.7722H136.647ZM138.808 13.0667H141.375L140.592 10.5681C140.349 9.80106 140.173 9.17664 140.059 8.69668C139.961 9.27543 139.824 9.84952 139.645 10.4199L138.808 13.0667Z" fill="#818592"/>
<path d="M141.552 22.8758H142.548V28.0892C142.548 28.9634 142.462 29.6801 142.288 30.2402C142.115 30.8003 141.799 31.243 141.343 31.5664C140.886 31.8907 140.305 32.0528 139.6 32.0528C138.606 32.0528 137.861 31.7611 137.367 31.1787C136.872 30.5962 136.626 29.5654 136.626 28.0883V22.8758H137.622V28.0827C137.622 28.8981 137.688 29.4899 137.817 29.8553C137.946 30.2206 138.158 30.4983 138.453 30.6894C138.749 30.8804 139.106 30.9755 139.528 30.9755C140.239 30.9755 140.753 30.7779 141.073 30.3846C141.394 29.9913 141.553 29.2234 141.553 28.0827V22.8758H141.552Z" fill="#818592"/>
<path d="M144.353 31.898V25.3622H145.187V26.2848C145.387 25.926 145.632 25.6576 145.922 25.4805C146.213 25.3025 146.545 25.214 146.921 25.214C147.213 25.214 147.483 25.2708 147.731 25.3836C147.979 25.4964 148.179 25.6446 148.332 25.8272C148.484 26.0099 148.598 26.2457 148.672 26.5374C148.746 26.8291 148.785 27.2764 148.785 27.8794V31.899H147.863V27.9186C147.863 27.4386 147.822 27.0872 147.739 26.8654C147.654 26.6436 147.524 26.4721 147.347 26.351C147.168 26.2289 146.963 26.1693 146.73 26.1693C146.286 26.1693 145.933 26.3314 145.67 26.6557C145.408 26.9801 145.275 27.5374 145.275 28.3258V31.899L144.353 31.898Z" fill="#818592"/>
<path d="M150.464 24.1498V22.8758H151.386V24.1498H150.464ZM150.464 31.8981V25.3623H151.386V31.8981H150.464Z" fill="#818592"/>
<path d="M156.531 34.4032V31.2037C156.384 31.4535 156.18 31.6567 155.918 31.8123C155.658 31.9679 155.395 32.0453 155.132 32.0453C154.479 32.0453 153.917 31.7424 153.44 31.1348C152.964 30.5281 152.726 29.6725 152.726 28.5681C152.726 27.6082 152.926 26.8095 153.327 26.1711C153.728 25.5327 154.296 25.214 155.033 25.214C155.371 25.214 155.672 25.2997 155.935 25.4694C156.198 25.6399 156.427 25.8953 156.619 26.2364V25.3631H157.454V34.4041L156.531 34.4032ZM153.673 28.6119C153.673 29.461 153.822 30.0938 154.124 30.5103C154.424 30.9279 154.784 31.1357 155.202 31.1357C155.574 31.1357 155.904 30.9363 156.193 30.5355C156.481 30.1357 156.625 29.5392 156.625 28.748C156.625 27.8496 156.473 27.1814 156.171 26.7443C155.869 26.3072 155.507 26.0891 155.09 26.0891C154.709 26.0891 154.378 26.2932 154.096 26.7014C153.813 27.1096 153.673 27.7452 153.673 28.6119Z" fill="#818592"/>
<path d="M162.743 31.8981V30.9382C162.529 31.3073 162.278 31.5841 161.99 31.7686C161.702 31.9531 161.376 32.0454 161.012 32.0454C160.582 32.0454 160.213 31.9326 159.908 31.7052C159.604 31.4769 159.4 31.188 159.297 30.8394C159.193 30.4909 159.144 30.0146 159.144 29.4116V25.3623H160.065V28.9867C160.065 29.6605 160.098 30.1097 160.168 30.338C160.236 30.5663 160.363 30.749 160.549 30.886C160.735 31.023 160.948 31.0929 161.186 31.0929C161.629 31.0929 161.993 30.914 162.275 30.557C162.518 30.2495 162.639 29.6856 162.639 28.8646V25.3623H163.568V31.8981H162.743Z" fill="#818592"/>
<path d="M169.008 29.7937L169.962 29.9353C169.803 30.6324 169.515 31.159 169.1 31.5141C168.684 31.8691 168.171 32.0462 167.555 32.0462C166.782 32.0462 166.157 31.7582 165.677 31.1814C165.198 30.6054 164.959 29.7741 164.959 28.6865C164.959 27.5579 165.2 26.6967 165.684 26.104C166.166 25.5122 166.778 25.2149 167.518 25.2149C168.224 25.2149 168.813 25.5066 169.284 26.0891C169.756 26.6716 169.992 27.515 169.992 28.6184L169.986 28.9139H165.914C165.951 29.6473 166.125 30.2019 166.433 30.5756C166.742 30.9493 167.118 31.1357 167.56 31.1357C168.253 31.1357 168.736 30.6883 169.008 29.7937ZM165.969 28.0024H169.015C168.974 27.4358 168.85 27.0136 168.644 26.7349C168.347 26.3277 167.969 26.1254 167.511 26.1254C167.096 26.1254 166.744 26.2951 166.452 26.6334C166.159 26.9717 165.997 27.4283 165.969 28.0024Z" fill="#818592"/>
<path d="M136.627 47.0246V38.0013H137.622V41.7068H141.541V38.0013H142.538V47.0246H141.541V42.7721H137.622V47.0246H136.627Z" fill="#818592"/>
<path d="M148.083 44.9202L149.036 45.0609C148.876 45.7599 148.591 46.2845 148.174 46.6406C147.758 46.9956 147.244 47.1727 146.63 47.1727C145.856 47.1727 145.23 46.8838 144.752 46.3078C144.273 45.731 144.034 44.8997 144.034 43.8111C144.034 42.6844 144.275 41.8232 144.758 41.2296C145.24 40.6368 145.851 40.3395 146.591 40.3395C147.297 40.3395 147.885 40.6313 148.357 41.2137C148.83 41.7962 149.067 42.6406 149.067 43.744L149.06 44.0404H144.985C145.023 44.7729 145.197 45.3274 145.506 45.7011C145.815 46.0749 146.193 46.2612 146.634 46.2612C147.33 46.2622 147.811 45.8148 148.083 44.9202ZM145.043 43.1289H148.089C148.048 42.5623 147.924 42.1392 147.72 41.8605C147.423 41.4542 147.045 41.2519 146.585 41.2519C146.171 41.2519 145.82 41.4225 145.526 41.7599C145.233 42.0982 145.074 42.5548 145.043 43.1289Z" fill="#818592"/>
<path d="M154.018 46.2193C153.71 46.5362 153.388 46.7738 153.053 46.9341C152.718 47.0944 152.372 47.1746 152.013 47.1746C151.444 47.1746 150.991 47.0059 150.653 46.6694C150.314 46.333 150.143 45.8791 150.143 45.3088C150.143 44.9313 150.223 44.5958 150.382 44.306C150.54 44.0143 150.758 43.7869 151.034 43.6229C151.311 43.4588 151.728 43.3377 152.288 43.2594C153.041 43.1513 153.592 43.0217 153.943 42.8717L153.949 42.5884C153.949 42.141 153.867 41.8279 153.704 41.6471C153.474 41.3833 153.121 41.2519 152.646 41.2519C152.215 41.2519 151.893 41.3405 151.68 41.5157C151.467 41.6909 151.31 42.0199 151.209 42.5008L150.301 42.3535C150.431 41.6518 150.692 41.141 151.087 40.8204C151.481 40.4998 152.048 40.3395 152.782 40.3395C153.356 40.3395 153.806 40.4458 154.13 40.6564C154.457 40.868 154.662 41.1299 154.747 41.4411C154.834 41.7543 154.877 42.2091 154.877 42.8083V44.2864C154.877 45.32 154.897 45.9723 154.937 46.2407C154.976 46.5101 155.054 46.771 155.172 47.0255H154.206C154.11 46.7999 154.048 46.5306 154.018 46.2193ZM153.942 43.744C153.604 43.909 153.1 44.0469 152.431 44.1615C152.044 44.2277 151.772 44.3023 151.617 44.3871C151.462 44.4709 151.342 44.5893 151.256 44.744C151.171 44.8969 151.126 45.0749 151.126 45.2762C151.126 45.5874 151.225 45.8381 151.423 46.0236C151.619 46.21 151.89 46.3041 152.237 46.3041C152.568 46.3041 152.867 46.2202 153.137 46.0525C153.407 45.8838 153.608 45.6592 153.742 45.3777C153.877 45.0963 153.942 44.6872 153.942 44.1494V43.744Z" fill="#818592"/>
<path d="M156.543 47.0246V38.0013H157.466V47.0246H156.543Z" fill="#818592"/>
<path d="M161.226 46.0329L161.351 47.0124C161.097 47.0777 160.866 47.1103 160.661 47.1103C160.34 47.1103 160.081 47.0478 159.885 46.923C159.688 46.7971 159.553 46.6266 159.481 46.4076C159.407 46.1914 159.371 45.758 159.371 45.1094V41.3489H158.694V40.4868H159.371V38.868L160.293 38.2026V40.4859H161.226V41.3479H160.293V45.1699C160.293 45.5232 160.319 45.7524 160.375 45.8531C160.454 46.0003 160.601 46.0749 160.82 46.0749C160.922 46.0767 161.058 46.0628 161.226 46.0329Z" fill="#818592"/>
<path d="M162.354 47.0246V38.0013H163.276V41.239C163.493 40.9408 163.739 40.7143 164.011 40.5642C164.285 40.4142 164.586 40.3396 164.917 40.3396C165.497 40.3396 165.958 40.5214 166.293 40.8839C166.629 41.2483 166.797 41.9128 166.797 42.8811V47.0237H165.875V42.8811C165.875 42.3163 165.773 41.9091 165.568 41.663C165.364 41.417 165.082 41.294 164.722 41.294C164.321 41.294 163.979 41.4524 163.697 41.7683C163.415 42.0843 163.275 42.6444 163.275 43.4487V47.0246H162.354Z" fill="#818592"/>
<path d="M172.037 44.6294L172.947 44.771C172.842 45.552 172.58 46.1475 172.159 46.5567C171.741 46.9667 171.235 47.1727 170.646 47.1727C169.931 47.1727 169.344 46.8838 168.882 46.3078C168.42 45.731 168.191 44.8791 168.191 43.7505C168.191 42.6135 168.423 41.7598 168.888 41.1932C169.355 40.6247 169.954 40.3405 170.685 40.3405C171.248 40.3405 171.725 40.5138 172.111 40.8577C172.497 41.2035 172.744 41.7188 172.853 42.4085L171.958 42.5688C171.87 42.128 171.717 41.799 171.501 41.579C171.283 41.36 171.022 41.2519 170.717 41.2519C170.261 41.2519 169.885 41.4486 169.587 41.8456C169.287 42.2417 169.138 42.8698 169.138 43.731C169.138 44.6228 169.28 45.2659 169.568 45.6629C169.854 46.0609 170.221 46.2612 170.667 46.2612C171.019 46.2612 171.318 46.127 171.567 45.8642C171.812 45.5995 171.97 45.1885 172.037 44.6294Z" fill="#818592"/>
<path d="M177.54 46.2193C177.231 46.5362 176.91 46.7738 176.574 46.9341C176.238 47.0944 175.893 47.1746 175.532 47.1746C174.965 47.1746 174.512 47.0059 174.173 46.6694C173.834 46.333 173.665 45.8791 173.665 45.3088C173.665 44.9313 173.745 44.5958 173.903 44.306C174.062 44.0143 174.278 43.7869 174.555 43.6229C174.83 43.4588 175.246 43.3377 175.808 43.2594C176.559 43.1513 177.111 43.0217 177.463 42.8717L177.469 42.5884C177.469 42.141 177.387 41.8279 177.224 41.6471C176.995 41.3833 176.641 41.2519 176.164 41.2519C175.734 41.2519 175.412 41.3405 175.2 41.5157C174.986 41.6909 174.829 42.0199 174.729 42.5008L173.821 42.3535C173.951 41.6518 174.212 41.141 174.609 40.8204C175.004 40.4998 175.567 40.3395 176.302 40.3395C176.875 40.3395 177.324 40.4458 177.65 40.6564C177.977 40.868 178.183 41.1299 178.267 41.4411C178.353 41.7543 178.395 42.2091 178.395 42.8083V44.2864C178.395 45.32 178.415 45.9723 178.455 46.2407C178.496 46.5101 178.574 46.771 178.69 47.0255H177.726C177.63 46.7999 177.569 46.5306 177.54 46.2193ZM177.463 43.744C177.125 43.909 176.622 44.0469 175.953 44.1615C175.565 44.2277 175.293 44.3023 175.138 44.3871C174.984 44.4709 174.863 44.5893 174.778 44.744C174.692 44.8969 174.65 45.0749 174.65 45.2762C174.65 45.5874 174.748 45.8381 174.944 46.0236C175.141 46.21 175.412 46.3041 175.758 46.3041C176.089 46.3041 176.388 46.2202 176.658 46.0525C176.927 45.8838 177.128 45.6592 177.263 45.3777C177.397 45.0963 177.463 44.6872 177.463 44.1494V43.744Z" fill="#818592"/>
<path d="M180.096 47.0245V40.4886H180.93V41.4793C181.144 41.0208 181.338 40.716 181.516 40.566C181.693 40.4159 181.893 40.3414 182.114 40.3414C182.423 40.3414 182.738 40.4607 183.061 40.6993L182.746 41.7272C182.517 41.5679 182.294 41.4877 182.076 41.4877C181.881 41.4877 181.701 41.5548 181.538 41.6918C181.375 41.8269 181.26 42.0161 181.194 42.2575C181.077 42.6788 181.017 43.1298 181.017 43.6051V47.0264L180.096 47.0245Z" fill="#818592"/>
<path d="M187.585 44.9202L188.538 45.0609C188.379 45.7599 188.093 46.2845 187.676 46.6406C187.26 46.9956 186.746 47.1727 186.131 47.1727C185.358 47.1727 184.733 46.8838 184.253 46.3078C183.775 45.731 183.537 44.8997 183.537 43.8111C183.537 42.6844 183.779 41.8232 184.261 41.2296C184.743 40.6368 185.354 40.3395 186.095 40.3395C186.801 40.3395 187.39 40.6313 187.862 41.2137C188.333 41.7962 188.569 42.6406 188.569 43.744L188.563 44.0404H184.488C184.526 44.7729 184.7 45.3274 185.008 45.7011C185.317 46.0749 185.694 46.2612 186.136 46.2612C186.832 46.2622 187.313 45.8148 187.585 44.9202ZM184.546 43.1289H187.593C187.55 42.5623 187.426 42.1392 187.222 41.8605C186.926 41.4542 186.547 41.2519 186.088 41.2519C185.674 41.2519 185.322 41.4225 185.03 41.7599C184.737 42.0982 184.576 42.5548 184.546 43.1289Z" fill="#818592"/>
<path d="M136.636 62.1515V53.1283H137.633V62.1515H136.636Z" fill="#818592"/>
<path d="M141.561 62.1515V54.1935H139.08V53.1283H145.054V54.1935H142.559V62.1515H141.561Z" fill="#818592"/>
<path d="M154.667 58.9885L155.67 59.2904C155.449 60.3044 155.062 61.0593 154.508 61.5588C153.955 62.0574 153.281 62.3072 152.486 62.3072C151.788 62.3072 151.192 62.1395 150.697 61.8058C150.201 61.4712 149.797 60.9326 149.481 60.1944C149.165 59.4563 149.006 58.5831 149.006 57.5766C149.006 56.5831 149.165 55.7415 149.481 55.0547C149.796 54.3669 150.224 53.8468 150.764 53.4964C151.304 53.146 151.905 52.9699 152.57 52.9699C153.298 52.9699 153.923 53.1926 154.447 53.6362C154.97 54.0817 155.336 54.7322 155.544 55.5933L154.568 55.8701C154.232 54.6176 153.56 53.9932 152.553 53.9932C152.051 53.9932 151.616 54.119 151.248 54.3715C150.879 54.6241 150.586 55.0165 150.364 55.5523C150.145 56.0863 150.035 56.7611 150.035 57.5784C150.035 58.8151 150.257 59.7415 150.698 60.3603C151.143 60.9773 151.732 61.2867 152.466 61.2867C153.009 61.2867 153.478 61.0975 153.873 60.7182C154.269 60.3352 154.533 59.7602 154.667 58.9885Z" fill="#818592"/>
<path d="M156.692 58.8821C156.692 57.7554 156.933 56.9035 157.417 56.3294C157.9 55.7535 158.509 55.4674 159.25 55.4674C159.977 55.4674 160.584 55.7535 161.073 56.3294C161.562 56.9017 161.806 57.7321 161.806 58.8159C161.806 59.9893 161.565 60.8625 161.084 61.4375C160.604 62.0107 159.991 62.2987 159.248 62.2987C158.516 62.2987 157.908 62.0098 157.421 61.4329C156.934 60.8579 156.692 60.007 156.692 58.8821ZM157.638 58.8802C157.638 59.7265 157.795 60.3565 158.108 60.7684C158.422 61.1813 158.81 61.3882 159.274 61.3882C159.709 61.3882 160.082 61.1794 160.394 60.7628C160.703 60.3453 160.86 59.7181 160.86 58.8793C160.86 58.0377 160.703 57.4105 160.39 56.9967C160.078 56.5839 159.688 56.3779 159.223 56.3779C158.784 56.3779 158.412 56.5857 158.102 56.9995C157.791 57.4133 157.638 58.0424 157.638 58.8802Z" fill="#818592"/>
<path d="M163.159 55.6156H163.986V56.5279C164.17 56.1887 164.405 55.9268 164.693 55.7451C164.981 55.5606 165.296 55.4683 165.638 55.4683C166.022 55.4683 166.346 55.5652 166.611 55.76C166.875 55.9539 167.065 56.2372 167.178 56.6081C167.395 56.2279 167.647 55.9436 167.929 55.7535C168.212 55.5634 168.526 55.4683 168.869 55.4683C169.393 55.4683 169.806 55.6435 170.109 55.993C170.409 56.3416 170.561 56.8998 170.561 57.6668V62.1533H169.64V58.0312C169.64 57.5634 169.605 57.2316 169.536 57.0368C169.468 56.842 169.355 56.691 169.199 56.5848C169.044 56.4776 168.869 56.4236 168.676 56.4236C168.277 56.4236 167.951 56.5792 167.7 56.8895C167.447 57.1999 167.322 57.6873 167.322 58.3527V62.1542H166.401V57.9017C166.401 57.3593 166.317 56.9772 166.148 56.7563C165.978 56.5345 165.745 56.4236 165.448 56.4236C165.028 56.4236 164.693 56.5923 164.449 56.9259C164.204 57.2605 164.082 57.8718 164.082 58.76V62.1551H163.159V55.6156Z" fill="#818592"/>
<path d="M172.178 64.6565V55.6156H173.03V56.4655C173.239 56.1114 173.469 55.8579 173.724 55.7032C173.979 55.5466 174.272 55.4683 174.601 55.4683C175.03 55.4683 175.418 55.5941 175.766 55.843C176.11 56.0946 176.39 56.4748 176.6 56.9865C176.811 57.4972 176.917 58.1114 176.917 58.8299C176.917 59.9417 176.679 60.7982 176.205 61.3993C175.73 62.0014 175.174 62.3024 174.535 62.3024C174.251 62.3024 173.984 62.2306 173.739 62.0871C173.492 61.9445 173.278 61.7404 173.099 61.4785V64.6603H172.177V64.6565H172.178ZM173.019 58.9203C173.019 59.7647 173.162 60.3891 173.45 60.788C173.738 61.1887 174.087 61.3891 174.495 61.3891C174.886 61.3891 175.229 61.1813 175.527 60.7675C175.823 60.3537 175.971 59.7125 175.971 58.8457C175.971 57.9921 175.827 57.3602 175.54 56.9511C175.251 56.541 174.902 56.335 174.49 56.335C174.118 56.335 173.78 56.5559 173.477 56.9977C173.173 57.4394 173.019 58.0797 173.019 58.9203Z" fill="#818592"/>
<path d="M181.842 61.3462C181.533 61.6622 181.212 61.8998 180.877 62.061C180.542 62.2195 180.195 62.3015 179.836 62.3015C179.267 62.3015 178.815 62.1319 178.476 61.7954C178.137 61.459 177.969 61.0051 177.969 60.4357C177.969 60.0582 178.049 59.7227 178.206 59.431C178.366 59.1403 178.582 58.9138 178.859 58.7488C179.135 58.5848 179.552 58.4646 180.112 58.3863C180.865 58.2773 181.417 58.1477 181.767 57.9986L181.773 57.7143C181.773 57.2679 181.691 56.9539 181.528 56.7731C181.298 56.5112 180.946 56.3788 180.47 56.3788C180.04 56.3788 179.717 56.4674 179.504 56.6417C179.291 56.8169 179.134 57.1459 179.035 57.6286L178.125 57.4814C178.255 56.7805 178.516 56.2679 178.911 55.9483C179.306 55.6277 179.871 55.4674 180.605 55.4674C181.178 55.4674 181.628 55.5746 181.954 55.7852C182.28 55.9958 182.484 56.2586 182.571 56.5699C182.656 56.8821 182.699 57.3369 182.699 57.9362V59.4133C182.699 60.4469 182.719 61.0983 182.76 61.3676C182.799 61.637 182.876 61.8979 182.993 62.1533H182.028C181.934 61.9259 181.871 61.6575 181.842 61.3462ZM181.768 58.8718C181.429 59.0359 180.925 59.1757 180.257 59.2903C179.87 59.3565 179.598 59.4301 179.442 59.5149C179.288 59.5997 179.168 59.719 179.082 59.8718C178.997 60.0256 178.953 60.2036 178.953 60.4049C178.953 60.7162 179.052 60.966 179.249 61.1524C179.447 61.3388 179.716 61.4329 180.065 61.4329C180.393 61.4329 180.692 61.349 180.962 61.1803C181.233 61.0116 181.433 60.788 181.568 60.5056C181.702 60.2241 181.77 59.8141 181.77 59.2782V58.8709H181.768V58.8718Z" fill="#818592"/>
<path d="M184.4 62.1514V55.6156H185.234V56.5382C185.434 56.1794 185.681 55.911 185.969 55.7339C186.259 55.5559 186.592 55.4665 186.967 55.4665C187.26 55.4665 187.529 55.5242 187.777 55.637C188.026 55.7498 188.226 55.898 188.378 56.0806C188.532 56.2624 188.643 56.4991 188.719 56.7908C188.794 57.0825 188.832 57.5298 188.832 58.1319V62.1514H187.911V58.171C187.911 57.6911 187.869 57.3397 187.784 57.1179C187.7 56.8961 187.57 56.7246 187.393 56.6035C187.215 56.4823 187.011 56.4217 186.777 56.4217C186.334 56.4217 185.981 56.5848 185.718 56.9091C185.455 57.2335 185.323 57.7889 185.323 58.5774V62.1514H184.4Z" fill="#818592"/>
<path d="M190.479 64.6688L190.378 63.6296C190.583 63.6949 190.758 63.7275 190.906 63.7275C191.102 63.7275 191.264 63.6893 191.393 63.611C191.52 63.5327 191.623 63.4115 191.71 63.2475C191.738 63.1897 191.861 62.8281 192.073 62.1608L189.997 55.6147H190.994L192.134 59.3994C192.276 59.871 192.408 60.3752 192.531 60.912C192.633 60.4041 192.76 59.9074 192.906 59.4227L194.072 55.6147H195L192.928 62.2624C192.656 63.1245 192.442 63.6986 192.287 63.9894C192.129 64.2801 191.951 64.487 191.753 64.6147C191.553 64.7424 191.328 64.8058 191.077 64.8058C190.898 64.8048 190.702 64.7592 190.479 64.6688Z" fill="#818592"/>
<path fill-rule="evenodd" clip-rule="evenodd" d="M74 33.5395H102.195V5H74V33.5395ZM85.0103 7.92181H76.9703V30.6179H81.9772V13.3086L85.8274 30.6189H90.3608L94.2175 13.3086V30.6189H99.2245V7.92181H91.1892L88.1107 21.7317L85.0103 7.92181Z" fill="#818592"/>
<path d="M88.419 48.2807H84.7426V43.9759H88.4674C89.5503 43.9759 90.3095 44.1623 90.746 44.5342C91.1816 44.9042 91.3999 45.4214 91.3999 46.0822C91.3999 46.7961 91.1816 47.3403 90.746 47.7169C90.3095 48.0934 89.5341 48.2807 88.419 48.2807Z" fill="#818592"/>
<path d="M88.9562 57.2024H84.7426V52.6041H88.941C90.1918 52.6041 91.0668 52.8063 91.5659 53.2145C92.0651 53.6218 92.3157 54.1614 92.3157 54.8324C92.3157 55.5556 92.0632 56.1306 91.5593 56.5593C91.0535 56.989 90.187 57.2024 88.9562 57.2024Z" fill="#818592"/>
<path fill-rule="evenodd" clip-rule="evenodd" d="M74.0046 64.9982H102.2V36.4586H74.0046V64.9982ZM91.4796 39.3767H76.9721V62.0794H90.4404C90.9662 62.0794 92.0329 61.9768 93.6414 61.7699C94.8504 61.6162 95.7549 61.3664 96.3537 61.0272C97.3217 60.4801 98.0837 59.7373 98.6408 58.796C99.1978 57.8566 99.4759 56.7998 99.4759 55.6218C99.4759 54.1772 99.084 52.9769 98.301 52.0216C97.5172 51.0663 96.2948 50.3935 94.6341 50.0011C95.7273 49.6283 96.5577 49.1223 97.1252 48.4829C97.9774 47.523 98.4026 46.3711 98.4026 45.0291C98.4026 43.4289 97.8056 42.0869 96.6127 41.003C95.4189 39.9191 93.7078 39.3767 91.4796 39.3767Z" fill="#818592"/>
<path fill-rule="evenodd" clip-rule="evenodd" d="M105.168 65H133.364V36.4605H105.168V65ZM130.377 54.5192L124.191 52.7233C123.88 54.1091 123.378 55.1688 122.687 55.8957C121.995 56.6254 120.975 56.9908 119.624 56.9908C118.232 56.9908 117.151 56.5388 116.382 55.6376C115.614 54.7345 115.229 53.0672 115.229 50.6338C115.229 48.6693 115.552 47.2275 116.196 46.3105C117.048 45.0747 118.274 44.4558 119.874 44.4558C120.58 44.4558 121.219 44.5938 121.791 44.8752C122.362 45.1548 122.845 45.5546 123.24 46.0737C123.478 46.3813 123.707 46.8706 123.925 47.5407L130.159 46.207C129.36 43.8911 128.136 42.1725 126.489 41.0551C124.842 39.9358 122.579 39.3785 119.702 39.3785C116.024 39.3785 113.18 40.3543 111.17 42.3039C109.159 44.2555 108.154 47.0476 108.154 50.6786C108.154 53.4018 108.725 55.6376 109.868 57.3822C111.011 59.1306 112.369 60.3496 113.943 61.042C115.518 61.7354 117.546 62.0821 120.029 62.0821C122.076 62.0821 123.761 61.7988 125.086 61.2293C126.411 60.6599 127.52 59.8156 128.413 58.6981C129.306 57.5807 129.962 56.1874 130.377 54.5192Z" fill="#818592"/>
<path fill-rule="evenodd" clip-rule="evenodd" d="M105.167 33.54H133.363V5.00041H105.167V33.54ZM130.386 7.92128H108.131V13.5261H115.693V30.6202H122.837V13.5261H130.386V7.92128Z" fill="#818592"/>
</svg>
