<svg width="270" height="70" viewBox="0 0 270 70" fill="none" xmlns="http://www.w3.org/2000/svg">
<path d="M270 45.7608C268.714 45.7018 268.82 46.0359 268.819 44.5222C268.814 41.429 268.837 38.3375 268.805 35.2443C268.793 34.1542 268.738 33.0472 268.289 32.0263C267.422 30.0451 265.329 29.1373 262.81 29.6131C260.184 30.1093 258.323 32.2288 258.015 35.0958C257.664 38.3746 257.941 41.6653 257.85 44.9491C257.84 45.3086 258.007 45.7625 257.335 45.7659C256.832 45.7676 256.654 45.6343 256.654 45.1044C256.669 37.6828 256.665 30.2611 256.659 22.8378C256.659 22.4143 256.713 22.1628 257.241 22.1544C257.823 22.146 257.858 22.4413 257.857 22.8901C257.845 25.7015 257.852 28.5129 257.852 31.3243C257.852 31.5909 257.852 31.8592 257.852 32.1258C258.559 30.9446 259.401 29.9895 260.557 29.2925C263.071 27.7755 266.841 28.1771 268.664 30.1666C269.435 31.0087 269.646 32.082 269.997 33.1029C270 37.3233 270 41.5421 270 45.7608Z" fill="#818592"/>
<path d="M172.041 44.4193C170.242 45.8705 168.202 46.3396 166.004 46.2671C163.342 46.1793 161.497 44.6538 161.131 42.2491C160.739 39.6706 162.189 37.5511 164.776 37.0499C166.371 36.7411 167.991 36.5572 169.599 36.3142C169.876 36.272 170.152 36.2248 170.422 36.1522C171.188 35.9463 171.86 35.6308 171.961 34.7094C172.068 33.7441 171.701 32.9544 170.773 32.6085C169.332 32.0718 167.862 32.0583 166.445 32.7721C165.829 33.0826 165.434 33.5838 165.297 34.2521C165.206 34.6993 164.983 34.8225 164.546 34.8022C163.789 34.7651 163.028 34.7617 162.27 34.8022C161.684 34.8326 161.622 34.5676 161.71 34.0884C162.11 31.8913 163.465 30.5143 165.535 29.9186C167.844 29.2554 170.191 29.198 172.476 30.1076C174.4 30.8737 175.311 32.2541 175.316 34.3466C175.323 36.9622 175.314 39.5761 175.321 42.1918C175.324 43.3123 175.471 43.4591 176.572 43.4844C176.707 43.4878 176.911 43.4101 176.943 43.5603C177.083 44.2522 177.052 44.9609 176.975 45.6528C176.929 46.0646 176.455 46.0038 176.15 46.0848C175.799 46.176 175.436 46.2435 175.075 46.2603C173.681 46.3295 172.5 46.0055 172.041 44.4193ZM171.857 39.7584C171.857 39.2977 171.787 38.8168 171.787 38.8168C171.787 38.8168 171.752 37.8363 170.998 38.2211C170.422 38.324 169.52 38.513 169.52 38.513C169.52 38.513 167.176 38.7965 166.063 39.1998C165.115 39.5441 164.675 40.2967 164.604 41.2755C164.548 42.0618 164.913 42.6575 165.596 42.9883C167.135 43.7324 168.698 43.6869 170.211 42.9123C171.571 42.2154 172.034 40.9936 171.857 39.7584Z" fill="#818592"/>
<path d="M129.121 30.0738C130.315 29.6604 131.544 29.9658 132.756 29.9186C133.069 29.9068 133.068 30.2611 133.145 30.494C134.301 34.0141 135.459 37.5326 136.62 41.051C136.711 41.3278 136.846 41.5927 137.05 42.0703C137.541 40.538 137.968 39.2167 138.39 37.8937C139.146 35.5143 139.924 33.14 140.636 30.7471C140.842 30.0536 141.176 29.8106 141.88 29.8781C142.521 29.9388 143.174 29.9186 143.819 29.8831C144.416 29.8511 144.558 30.0283 144.345 30.6088C143.419 33.1383 142.521 35.6797 141.615 38.216C140.793 40.5144 139.961 42.8094 139.165 45.1179C138.974 45.668 138.728 45.9549 138.088 45.9009C137.334 45.8368 136.566 45.8334 135.813 45.9009C135.118 45.9633 134.818 45.6663 134.598 45.0504C133.053 40.7152 131.482 36.3885 129.921 32.0583C129.652 31.3985 129.386 30.7353 129.121 30.0738Z" fill="#818592"/>
<path d="M153.932 38.1165C153.932 36.3125 153.902 34.8224 153.946 33.3341C153.966 32.6844 153.733 32.5342 153.122 32.5359C151.09 32.5426 151.011 32.4161 151.251 30.3573C151.293 29.9895 151.44 29.8629 151.781 29.8899C151.892 29.8983 152.005 29.8916 152.118 29.8899C153.932 29.8781 153.932 29.8781 153.932 28.1011C153.932 27.2861 153.946 26.471 153.927 25.656C153.917 25.2223 154.097 25.0485 154.526 25.0552C155.312 25.0687 156.1 25.0755 156.885 25.0535C157.329 25.0417 157.471 25.2206 157.462 25.6509C157.442 26.8305 157.483 28.0117 157.444 29.1913C157.425 29.7515 157.616 29.9625 158.164 29.895C158.385 29.868 158.615 29.8747 158.838 29.8933C159.416 29.9388 160.231 29.6182 160.52 30.0418C160.906 30.6121 160.625 31.4525 160.647 32.1765C160.658 32.5494 160.38 32.546 160.12 32.5477C159.445 32.5494 158.77 32.5679 158.097 32.5426C157.638 32.5258 157.444 32.6692 157.447 33.162C157.466 35.916 157.437 38.67 157.469 41.4223C157.486 42.914 158.1 43.3966 159.84 43.1806C160.584 43.0878 160.672 43.3072 160.665 43.9434C160.643 45.9279 160.665 45.9363 158.647 45.9464C157.835 45.9498 157.018 46.0055 156.22 45.7693C154.96 45.398 154.243 44.5948 154.06 43.2701C153.809 41.4493 154.013 39.6234 153.932 38.1165Z" fill="#818592"/>
<path d="M177.903 34.8056C177.903 31.4053 177.918 28.0066 177.889 24.6063C177.884 23.9786 178.055 23.7558 178.694 23.8031C179.422 23.8571 180.156 23.8368 180.885 23.8081C181.354 23.7896 181.541 23.9431 181.524 24.4291C181.496 25.2712 181.516 26.115 181.516 26.957C181.516 32.9409 181.502 38.9265 181.533 44.9103C181.536 45.6832 181.329 45.9785 180.542 45.8975C179.93 45.8351 179.304 45.8435 178.689 45.8958C178.045 45.9515 177.884 45.7102 177.889 45.0875C177.918 41.6619 177.903 38.2346 177.903 34.8056Z" fill="#818592"/>
<path d="M75.0955 33.1636C76.113 30.8062 77.7786 29.6688 80.0736 29.6047C82.35 29.5406 84.0831 30.4923 84.969 32.843C85.6693 31.5841 86.4186 30.5835 87.6758 30.0148C91.1318 28.4555 94.8915 30.6763 94.9776 34.4563C95.0586 38.0523 94.9928 41.6535 95.0079 45.2512C95.0096 45.7018 94.905 45.9127 94.4021 45.911C93.8891 45.911 93.8031 45.6764 93.8048 45.2377C93.8166 41.9201 93.8064 38.6025 93.8149 35.2865C93.8166 34.6081 93.7541 33.9331 93.5786 33.2868C93.0218 31.2466 90.99 30.2291 88.7321 30.8197C86.5266 31.3968 85.0888 33.3273 85.0601 35.8687C85.0247 38.9602 85.0483 42.0534 85.0433 45.1466C85.0433 45.4976 85.1428 45.8857 84.5488 45.911C83.9683 45.9363 83.8468 45.7001 83.8502 45.1702C83.8705 41.8256 83.8688 38.4793 83.8536 35.1346C83.8502 34.2352 83.7759 33.3273 83.3288 32.5207C82.2977 30.6577 79.7951 30.116 77.8106 31.272C75.8768 32.3992 75.1579 34.1998 75.1089 36.2889C75.0398 39.2386 75.0921 42.1918 75.0971 45.1449C75.0971 45.5533 75.1444 45.9178 74.5217 45.9178C73.9344 45.9178 73.9108 45.6191 73.9108 45.1753C73.9193 40.3406 73.9193 35.5042 73.9108 30.6695C73.9108 30.2308 73.9243 29.922 74.5149 29.9236C75.1309 29.9253 75.1005 30.2797 75.0955 30.6948C75.0904 31.4356 75.0955 32.1815 75.0955 33.1636Z" fill="#818592"/>
<path d="M239.298 42.7216C237.126 46.4223 232.693 46.6974 229.88 45.582C227.836 44.7719 227.173 43.3342 227.306 40.7085C227.389 39.0969 228.606 37.6169 230.293 36.9824C231.981 36.3479 233.758 36.3311 235.511 36.1708C236.27 36.1016 237.013 35.9784 237.743 35.7843C238.746 35.5177 239.181 34.9625 239.284 33.9196C239.502 31.6921 238.925 30.1076 236.032 29.6452C234.88 29.4613 233.72 29.4478 232.612 29.7886C230.81 30.3421 229.726 31.5875 229.512 33.4859C229.431 34.2082 228.953 34.0783 228.531 34.0496C227.963 34.0108 228.18 33.5669 228.226 33.2767C228.729 29.9726 230.646 28.761 233.749 28.4133C234.976 28.2766 236.21 28.3829 237.421 28.7171C239.402 29.2655 240.605 30.7741 240.614 32.8363C240.627 36.2079 240.616 39.5812 240.622 42.9528C240.626 44.3433 240.781 44.5138 242.119 44.5745C242.45 44.5897 242.649 44.6386 242.652 45.0285C242.656 45.4132 242.575 45.6596 242.134 45.7406C240.423 46.0528 239.33 45.1803 239.301 43.4489C239.294 43.2093 239.298 42.9663 239.298 42.7216ZM239.306 36.2585C238.094 37.0246 236.891 37.0618 235.691 37.1748C234.188 37.3183 232.678 37.4431 231.211 37.8363C229.654 38.2548 228.725 39.372 228.525 41.0291C228.358 42.4044 229.061 43.8928 230.234 44.4345C233.693 46.0325 238.439 44.5897 239.185 40.1465C239.392 38.9163 239.24 37.6861 239.306 36.2585Z" fill="#818592"/>
<path d="M219.599 37.4769C217.547 37.4769 215.495 37.4752 213.443 37.4786C213.148 37.4786 212.846 37.4043 212.782 37.8903C212.487 40.1094 214.201 43.4101 216.256 44.394C219.314 45.8553 223.59 44.9981 224.885 40.6713C224.991 40.3153 225.023 39.9946 225.55 39.9896C226.221 39.9811 226.365 40.1516 226.167 40.8198C224.65 45.9245 218.739 47.9023 214.461 44.6994C212.868 43.508 212.11 41.802 211.737 39.9086C211.165 36.996 211.435 34.1846 213.06 31.6449C214.712 29.063 217.215 28.0843 220.171 28.4386C223.02 28.7795 224.895 30.4839 225.916 33.1434C226.366 34.3145 226.493 35.5312 226.489 36.7783C226.488 37.3402 226.295 37.4971 225.754 37.4904C223.703 37.4617 221.651 37.4769 219.599 37.4769ZM218.891 36.326C220.717 36.326 222.542 36.2973 224.367 36.3412C225.03 36.3564 225.2 36.1252 225.128 35.5126C225.018 34.5845 224.763 33.702 224.39 32.8515C223.116 29.9456 219.25 28.6411 216.467 30.1194C214.213 31.3175 213.256 33.2801 212.905 35.6848C212.819 36.2703 213.008 36.3395 213.499 36.3345C215.296 36.3142 217.093 36.326 218.891 36.326Z" fill="#818592"/>
<path d="M98.6867 43.0439C98.6867 45.6292 98.685 48.2128 98.6884 50.798C98.6884 51.1861 98.7052 51.5068 98.1433 51.5186C97.5662 51.5304 97.5173 51.2469 97.5206 50.7929C97.5358 48.881 97.5274 46.9708 97.5274 45.0588C97.5274 40.3085 97.5257 35.5582 97.5324 30.8079C97.5324 30.4231 97.3603 29.9236 98.0809 29.9304C98.739 29.9354 98.6917 30.3556 98.6884 30.7893C98.685 31.5706 98.6867 32.3536 98.6867 33.3476C99.3381 32.3891 99.7768 31.5149 100.577 30.9277C104.684 27.9104 110.31 30.1599 111.351 35.2528C111.815 37.5191 111.778 39.7601 110.98 41.9623C109.77 45.2968 106.586 46.559 103.559 46.1894C101.461 45.9296 99.7819 44.9981 98.6867 43.0439ZM110.413 37.5765C110.482 36.9099 110.265 35.894 109.986 34.8916C109.261 32.2811 107.215 30.7066 104.568 30.7033C101.731 30.6999 99.873 32.1191 99.0984 34.868C98.5703 36.7428 98.55 38.6413 98.9314 40.5296C99.2014 41.861 99.7431 43.0676 100.835 43.9974C102.153 45.1213 103.685 45.1905 105.28 45.1095C106.68 45.0386 107.791 44.3956 108.702 43.3713C110.077 41.8256 110.384 39.9389 110.413 37.5765Z" fill="#818592"/>
<path d="M197.782 32.0769C198.914 30.003 200.612 28.7508 202.905 28.4758C206.807 28.0083 209.714 29.6216 209.89 33.9821C210.038 37.6878 209.922 41.4037 209.939 45.1162C209.94 45.5701 209.829 45.7693 209.329 45.7693C208.828 45.771 208.72 45.5685 208.722 45.1162C208.735 41.91 208.756 38.7054 208.713 35.4991C208.7 34.4141 208.675 33.3121 208.275 32.2659C207.753 30.9074 206.813 30.0215 205.392 29.6891C201.665 28.8166 198.315 31.2061 197.932 35.0114C197.6 38.3206 197.863 41.6399 197.775 44.9525C197.768 45.2124 197.905 45.533 197.589 45.7153C197.12 45.9886 196.58 45.6714 196.58 45.1095C196.575 37.6861 196.579 30.2628 196.572 22.8395C196.572 22.4109 196.636 22.1662 197.159 22.1578C197.729 22.1476 197.789 22.4227 197.787 22.8834C197.775 25.9479 197.782 29.0124 197.782 32.0769Z" fill="#818592"/>
<path d="M60.804 29.5777C62.6957 29.6503 64.4963 29.9506 65.745 31.6027C66.2664 32.2912 66.5601 33.0776 66.6326 33.9298C66.6579 34.2403 66.8469 34.6993 66.2293 34.7516C65.7281 34.7938 65.4396 34.6723 65.4041 34.1019C65.3265 32.87 64.8 31.8474 63.6559 31.3243C61.6343 30.4012 59.5806 30.3911 57.5859 31.4373C56.6241 31.9419 56.1684 32.8312 56.2309 33.8774C56.3068 35.1346 57.132 35.8906 58.2643 36.3108C60.0328 36.9673 61.9161 37.1782 63.7301 37.6625C66.3424 38.3611 67.6181 40.3861 66.9803 42.9427C66.5601 44.6218 65.2556 45.4166 63.7673 45.857C62.0258 46.3717 60.2353 46.3953 58.4516 45.9043C56.4064 45.3406 54.7003 43.4304 54.54 41.4104C54.5164 41.1084 54.2734 40.6426 54.8758 40.5431C55.4023 40.4553 55.6791 40.619 55.8056 41.1894C56.3777 43.7645 58.072 45.1027 60.6994 45.1246C61.884 45.1348 63.0399 45.0926 64.1453 44.5391C65.3282 43.9468 65.9543 43.017 65.9509 41.7361C65.9475 40.4317 65.1173 39.6622 63.9934 39.1458C62.3649 38.3966 60.5627 38.3392 58.8701 37.8414C58.1108 37.6186 57.3868 37.3368 56.7118 36.92C55.3551 36.083 54.9062 34.8174 55.0463 33.3104C55.1914 31.7579 56.0925 30.7556 57.5117 30.1869C58.5681 29.765 59.6582 29.5338 60.804 29.5777Z" fill="#818592"/>
<path d="M149.688 37.8296C149.688 40.2444 149.669 42.6592 149.7 45.074C149.708 45.6748 149.587 45.9515 148.919 45.8992C148.193 45.8418 147.459 45.8688 146.73 45.8925C146.296 45.906 146.139 45.7541 146.141 45.3103C146.153 40.3676 146.151 35.4266 146.141 30.4839C146.141 30.0654 146.244 29.8646 146.705 29.8848C147.655 29.927 148.859 29.5878 149.486 30.0485C150.107 30.5058 149.656 31.7782 149.676 32.6911C149.715 34.4023 149.688 36.1168 149.688 37.8296Z" fill="#818592"/>
<path d="M129.121 30.0738C129.386 30.7353 129.652 31.3968 129.917 32.0583C129.387 32.3351 129.33 32.9105 129.148 33.3746C127.295 38.1299 125.476 42.8971 123.635 47.6559C123.382 48.309 123.085 48.9468 122.771 49.5746C122.016 51.0798 119.944 51.9708 118.409 51.4933C118.103 51.3988 118.128 51.1912 118.122 50.9718C118.115 50.7305 118.152 50.5128 118.461 50.4976C118.63 50.4892 118.798 50.4909 118.965 50.4808C120.516 50.3795 121.615 49.6606 122.146 48.1604C122.156 48.1334 122.156 48.1031 122.17 48.0794C123.268 46.3717 122.705 44.7838 121.962 43.1115C120.221 39.1914 118.586 35.2241 116.908 31.2753C116.854 31.1471 116.782 31.0154 116.767 30.8804C116.733 30.5716 116.232 30.1599 116.716 29.9861C117.207 29.8106 117.796 29.7988 118.083 30.5429C119.031 33.0016 120.032 35.4418 121.019 37.8853C121.755 39.7061 122.497 41.5218 123.243 43.3376C123.346 43.5873 123.49 43.8219 123.714 44.2606C125.565 39.4108 127.344 34.7431 129.121 30.0738Z" fill="#818592"/>
<path d="M250.071 36.7344C250.071 34.7668 250.027 32.7975 250.093 30.8315C250.12 30.0114 249.828 29.8106 249.09 29.8831C248.56 29.9355 248.022 29.8764 247.489 29.8983C247.079 29.9152 246.868 29.8123 246.876 29.3431C246.883 28.8825 247.104 28.761 247.504 28.766C248.15 28.7728 248.798 28.7458 249.443 28.7728C249.92 28.793 250.086 28.6091 250.077 28.1366C250.055 26.8996 250.061 25.6627 250.076 24.4258C250.081 24.0191 249.882 23.5061 250.658 23.496C251.488 23.4858 251.276 24.0393 251.281 24.4713C251.296 25.6796 251.304 26.8895 251.277 28.0978C251.265 28.6124 251.448 28.7964 251.959 28.7761C252.745 28.7441 253.533 28.7761 254.32 28.766C254.755 28.761 254.995 28.8825 254.991 29.3887C254.988 29.9 254.698 29.9034 254.333 29.8983C253.547 29.8899 252.759 29.9169 251.972 29.8882C251.486 29.8696 251.27 29.9911 251.274 30.5362C251.294 34.274 251.252 38.0135 251.299 41.7513C251.328 43.9603 251.994 44.5576 254.219 44.5998C254.639 44.6083 254.981 44.5728 254.981 45.1854C254.981 45.8047 254.618 45.7591 254.21 45.7676C252.754 45.8013 251.399 45.614 250.525 44.2353C250.196 43.7173 250.066 43.1604 250.069 42.5546C250.076 40.6156 250.072 38.675 250.072 36.7361C250.074 36.7344 250.072 36.7344 250.071 36.7344Z" fill="#818592"/>
<path d="M244.178 34.0361C244.178 30.3843 244.178 26.7343 244.176 23.0825C244.176 22.6573 244.099 22.2489 244.779 22.2506C245.445 22.2523 245.391 22.6471 245.391 23.0808C245.39 30.3826 245.388 37.6861 245.395 44.9879C245.395 45.4638 245.371 45.7811 244.74 45.771C244.107 45.7608 244.176 45.3879 244.176 44.9913C244.178 41.3396 244.178 37.6878 244.178 34.0361Z" fill="#818592"/>
<path d="M115.248 34.8781C115.248 38.2785 115.248 41.6788 115.248 45.0791C115.248 45.4976 115.342 45.9194 114.654 45.9178C113.969 45.9161 114.06 45.4959 114.06 45.0757C114.06 38.2481 114.06 31.4188 114.06 24.5911C114.06 24.203 113.974 23.8149 114.613 23.8014C115.263 23.7862 115.253 24.1355 115.253 24.5962C115.244 28.0218 115.248 31.4491 115.248 34.8781Z" fill="#818592"/>
<path d="M69.5503 37.8701C69.5503 35.4823 69.5571 33.0961 69.5453 30.7083C69.5436 30.2392 69.552 29.9 70.1916 29.9186C70.8109 29.9371 70.848 30.2679 70.848 30.7387C70.8413 35.5413 70.8379 40.344 70.8514 45.1466C70.8531 45.6427 70.794 45.9178 70.1831 45.9194C69.5334 45.9211 69.5453 45.5718 69.547 45.1162C69.5554 42.6997 69.5503 40.2849 69.5503 37.8701Z" fill="#818592"/>
<path d="M147.864 27.1696C146.149 27.1696 146.149 27.1696 146.149 25.4535C146.149 23.8149 146.149 23.8149 147.935 23.8149C149.69 23.8149 149.69 23.8149 149.69 25.5648C149.688 27.1696 149.688 27.1696 147.864 27.1696Z" fill="#818592"/>
<path d="M69.5503 25.3522C69.5503 25.0738 69.5689 24.792 69.547 24.5152C69.5098 24.0478 69.6195 23.793 70.1781 23.8014C70.6843 23.8081 70.8818 23.9617 70.8531 24.4764C70.8193 25.089 70.8261 25.7049 70.8514 26.3174C70.8716 26.7849 70.7755 27.0414 70.2186 27.0329C69.714 27.0245 69.498 26.8743 69.547 26.3563C69.5756 26.0238 69.5503 25.6863 69.5503 25.3522Z" fill="#818592"/>
<path d="M0.138375 24.4983C0.2025 22.7332 1.31287 21.7612 2.72362 20.9529C8.14894 17.8479 13.5557 14.7091 18.9742 11.5906C19.3792 11.3577 19.8247 11.1941 20.25 11C20.7562 11 21.2625 11 21.7687 11C22.6665 11.4016 23.5946 11.7476 24.3405 12.4226C23.7482 12.8562 23.1559 13.2899 22.5636 13.7236C21.3907 12.9423 20.3546 13.2849 19.224 13.9481C14.2054 16.8995 9.16819 19.8222 4.08712 22.6657C2.88225 23.3407 2.13806 24.0933 2.26969 25.5176C1.91869 25.4669 1.62337 25.6188 1.32637 25.7757C0.966937 25.9664 0.653062 26.282 0.190687 26.1942C0.1755 25.6272 0.156937 25.0619 0.138375 24.4983Z" fill="#818592"/>
<path d="M0 45.9296C0.777937 45.0672 1.02262 45.0251 2.07225 45.6376C3.29737 46.3514 4.51406 47.0821 5.73412 47.8061C5.78981 48.3191 5.34937 48.4304 5.04056 48.6296C4.7385 48.8236 4.38581 48.9417 4.22044 49.2978C2.74894 48.5637 1.30781 47.7807 0 46.7733C0 46.4915 0 46.2114 0 45.9296Z" fill="#818592"/>
<path d="M0.138375 24.4983C0.156937 25.0636 0.1755 25.6289 0.194062 26.1926C0.173812 28.9466 0.153562 31.7006 0.135 34.4546H0.0675L0 34.4529C0 31.1336 0 27.8159 0 24.4966C0.0455625 24.4983 0.0928125 24.4966 0.138375 24.4983Z" fill="#818592"/>
<path d="M17.0454 54.3654C17.9466 54.7552 18.7869 55.2631 19.5885 55.8183C20.4002 56.3803 21.1511 56.5439 22.0641 56.0174C25.1454 54.2388 28.2521 52.5024 31.3487 50.7491C33.8597 49.3282 36.3572 47.8854 38.8851 46.4982C39.7862 46.0038 40.1473 45.2849 40.1557 44.3129C40.1659 42.995 40.1794 41.6754 40.1929 40.3574C41.0062 40.3591 41.5243 39.6402 42.282 39.5069C42.3377 41.4965 42.4794 43.4911 42.1926 45.4722C42.0221 46.6417 41.391 47.5327 40.3346 48.1301C35.7412 50.7237 31.158 53.3343 26.5697 55.9364C25.3007 56.6553 24.0334 57.3792 22.7576 58.0846C21.7384 58.6483 20.6668 58.7596 19.6121 58.2247C18.1389 57.4788 16.6843 56.6941 15.3309 55.739C15.8287 55.1922 16.6472 55.0421 17.0454 54.3654Z" fill="#818592"/>
<path d="M22.5652 13.7219C23.1576 13.2882 23.7499 12.8546 24.3422 12.4209C26.4718 13.43 28.4631 14.6906 30.5117 15.8465C31.7773 16.562 33.0868 17.2016 34.2731 18.0538C34.0942 18.4773 33.6943 18.6241 33.3247 18.8013C33.0193 18.9481 32.724 19.0983 32.7139 19.5016C31.0281 18.7321 29.4756 17.7196 27.8674 16.8084C26.0871 15.8009 24.2612 14.8728 22.5652 13.7219Z" fill="#818592"/>
<path d="M17.0454 54.3654C16.6472 55.0404 15.8304 55.1906 15.3292 55.739C12.8081 54.3738 10.3123 52.9647 7.8975 51.4156C8.34637 50.7744 9.10912 50.5685 9.69469 50.1179C12.1753 51.4831 14.6441 52.8635 17.0454 54.3654Z" fill="#818592"/>
<path d="M40.2502 29.9186C40.2519 28.4926 40.1996 27.065 40.2705 25.6424C40.3363 24.3262 39.8655 23.4335 38.6134 22.9677C38.4379 22.9036 38.2978 22.745 38.1426 22.6319C38.1645 22.2387 38.4463 22.0632 38.7534 21.9164C39.1382 21.7342 39.4639 21.4912 39.6647 21.1047C41.6289 21.9333 42.4946 23.4116 42.3647 25.5361C42.2904 26.7596 42.3208 27.9897 42.3039 29.2182C41.5513 29.2486 41.0248 29.9489 40.2502 29.9186Z" fill="#818592"/>
<path d="M39.663 21.1047C39.4622 21.4912 39.1348 21.7342 38.7517 21.9164C38.4446 22.0632 38.1628 22.2387 38.1409 22.6319C36.3066 21.6312 34.4503 20.666 32.7105 19.5016C32.7206 19.0983 33.0159 18.9498 33.3214 18.803C33.6926 18.6241 34.0909 18.479 34.2697 18.0554C36.1108 18.9971 37.9147 20.0011 39.663 21.1047Z" fill="#818592"/>
<path d="M40.2502 29.9186C41.0248 29.9472 41.5496 29.2486 42.3039 29.2166C42.3697 31.0728 42.3681 32.9291 42.2904 34.7853C41.4922 34.7111 40.9826 35.5295 40.1878 35.4637C40.1794 33.6159 40.0798 31.7664 40.2502 29.9186Z" fill="#818592"/>
<path d="M40.1878 35.4654C40.9826 35.5312 41.4922 34.7127 42.2904 34.787C42.3714 36.3614 42.3596 37.9342 42.282 39.5069C41.5243 39.6402 41.0046 40.3591 40.1912 40.3574C40.1895 38.7273 40.1878 37.0955 40.1878 35.4654Z" fill="#818592"/>
<path d="M9.69469 50.1179C9.10912 50.5702 8.34637 50.7744 7.8975 51.4156C6.61669 50.8064 5.38481 50.1112 4.22044 49.2978C4.38581 48.9401 4.74019 48.8219 5.04056 48.6279C5.34769 48.4304 5.78981 48.3191 5.73412 47.8044C7.10775 48.4861 8.4105 49.286 9.69469 50.1179Z" fill="#818592"/>
<path d="M11.1189 36.2366C12.2631 36.0374 13.4156 36.1573 14.5631 36.1623C15.228 36.1657 15.6026 35.9294 15.849 35.3287C16.3046 34.2133 16.7991 33.113 17.2834 32.0077C17.4926 31.5301 17.7407 31.0542 18.3651 31.1268C18.9489 31.196 19.1734 31.6246 19.2982 32.1697C19.7117 33.9702 20.1606 35.7641 20.6263 37.6878C21.3131 36.9251 21.7114 36.1066 22.1636 35.3287C22.5163 34.7195 22.9787 34.3061 23.7026 34.3449C24.6274 34.3938 25.5471 34.4141 26.4752 34.3567C26.9156 34.3297 27.3932 34.4158 27.6176 34.9068C27.9163 35.5582 27.5113 36.2399 26.757 36.2872C26.0567 36.3311 25.3513 36.326 24.651 36.2973C24.0874 36.2737 23.7161 36.4509 23.4225 36.9689C22.7441 38.1637 21.9966 39.3213 21.2827 40.4958C21.0043 40.9531 20.6837 41.3176 20.0745 41.2147C19.4872 41.1151 19.3607 40.6494 19.2459 40.1752C18.8561 38.5738 18.468 36.974 18.0579 35.2899C17.6023 35.8451 17.4369 36.4121 17.2327 36.9571C16.9627 37.676 16.4632 38.0219 15.6904 38.0152C13.5557 37.9949 11.421 37.9899 9.28631 37.9781C9.43312 37.5292 9.87694 37.433 10.2009 37.1883C10.5519 36.9234 11.1442 36.8711 11.1189 36.2366Z" fill="#818592"/>
<path d="M19.4029 45.4368C19.4299 45.4469 19.4586 45.452 19.4822 45.4672C21.6101 46.883 21.6084 46.8796 23.7094 45.3777C25.9909 43.7442 28.1154 41.9234 30.1624 40.0098C30.8914 40.1026 31.4196 39.6571 31.9984 39.3365C32.5519 39.0294 33.0666 38.6159 33.7584 38.6767C32.6346 40.3827 31.1462 41.7581 29.6527 43.1148C27.4894 45.0807 25.1083 46.7733 22.7036 48.4321C21.6945 49.1291 21.4161 49.1729 20.4474 48.4642C19.6357 47.8702 18.7481 47.369 18.0427 46.6349C18.3246 46.0409 19.2122 46.1354 19.4029 45.4368Z" fill="#818592"/>
<path d="M6.939 32.4313C6.79556 28.9027 8.26369 26.2483 11.3586 24.5726C14.3927 22.9289 17.4066 23.0167 20.3107 24.9624C19.9074 25.4551 19.0873 25.4686 18.8949 26.201C17.3019 25.4939 15.6684 25.1632 13.9253 25.5547C11.0582 26.1993 9.06525 28.6259 8.73112 31.925C8.07975 31.9031 7.61906 32.5544 6.939 32.4313Z" fill="#818592"/>
<path d="M6.939 32.4313C7.61906 32.5544 8.07975 31.9031 8.73112 31.925C8.52019 32.9324 8.99944 33.8066 9.25762 34.7279C9.52762 35.6881 10.0052 36.3412 11.1189 36.2366C11.1442 36.8711 10.5519 36.9234 10.1976 37.19C9.87356 37.4347 9.42975 37.5309 9.28294 37.9798C7.39969 37.9899 5.51644 38.027 3.63319 38C2.4705 37.9831 1.52381 37.4836 0.880875 36.4796C1.45294 36.1066 2.20387 36.0037 2.592 35.3523C3.04256 35.7303 3.55894 35.8619 4.14619 35.8484C5.25825 35.8231 6.372 35.8417 7.54312 35.8417C7.25962 34.6638 6.85294 33.5872 6.939 32.4313Z" fill="#818592"/>
<path d="M18.8949 26.201C19.0873 25.4686 19.9074 25.4551 20.3107 24.9624C20.412 25.0079 20.547 25.0265 20.6094 25.1024C21.1393 25.7555 21.6371 25.7167 22.3087 25.2239C25.0661 23.2023 28.0462 22.934 31.1833 24.2502C31.3841 24.3346 31.5596 24.4814 31.7469 24.5979C31.7334 24.9826 31.4145 25.0636 31.1512 25.2037C30.8154 25.3842 30.4273 25.5142 30.3767 25.9799C27.3713 24.8713 24.6898 25.2796 22.3965 27.6388C21.7012 28.3542 21.3486 28.3441 20.6398 27.6286C20.1066 27.0903 19.4721 26.6819 18.8949 26.201Z" fill="#818592"/>
<path d="M2.59369 35.3523C2.20556 36.0054 1.45631 36.1066 0.882562 36.4796C0.334125 35.9159 0.204187 35.1954 0.133312 34.4546C0.153562 31.7006 0.173812 28.9466 0.194062 26.1926C0.656437 26.282 0.972 25.9664 1.32975 25.7758C1.62506 25.6188 1.92037 25.4669 2.27306 25.5176C2.29331 28.307 2.31862 31.0964 2.32875 33.8876C2.33044 34.3972 2.37094 34.8882 2.59369 35.3523Z" fill="#818592"/>
<path d="M30.3784 25.9816C30.429 25.5159 30.8154 25.3843 31.1529 25.2054C31.4162 25.0653 31.7351 24.9843 31.7486 24.5996C34.5904 25.8702 36.4213 29.6587 36.2053 32.7586C35.4341 32.8042 34.9262 33.4842 34.1854 33.6024C34.6224 30.2105 33.4294 27.632 30.3784 25.9816Z" fill="#818592"/>
<path d="M34.1854 33.6024C34.9262 33.4842 35.4341 32.8042 36.2053 32.7586C35.8594 34.9254 35.2738 36.9926 33.7584 38.675C33.0666 38.6142 32.5519 39.0277 31.9984 39.3348C31.4212 39.6554 30.8914 40.1009 30.1624 40.0081C30.8931 39.1458 31.6389 38.2953 32.3494 37.4178C33.2589 36.2939 33.7179 34.9439 34.1854 33.6024Z" fill="#818592"/>
<path d="M19.4029 45.4368C19.2122 46.1354 18.3246 46.0409 18.0427 46.6332C16.686 45.7895 15.4609 44.7669 14.2138 43.7797C13.7902 43.4439 13.6401 42.9241 14.0417 42.4381C14.418 41.9825 14.8821 41.9082 15.3714 42.2896C16.7164 43.3376 18.0596 44.3872 19.4029 45.4368Z" fill="#818592"/>
</svg>
