<svg width="270" height="70" viewBox="0 0 270 70" fill="none" xmlns="http://www.w3.org/2000/svg">
<path d="M144.598 64.703C144.598 63.06 145.904 62.5511 147.443 62.3476C148.836 62.1731 149.329 62.0277 149.329 61.5188C149.329 61.039 149.01 60.7191 148.284 60.7191C147.515 60.7191 147.152 61.0536 147.094 61.6788H144.917C144.96 60.2975 146.005 59.1191 148.27 59.1191C149.402 59.1191 150.273 59.3663 150.825 59.817C151.391 60.2968 151.652 60.922 151.652 61.8532V64.7757C151.652 65.2561 151.783 65.3718 152.145 65.3136H152.189V66.6949C152 66.7821 151.637 66.8985 151.159 66.8985C150.143 66.8985 149.62 66.5931 149.446 65.8946H149.432C148.996 66.5052 148.329 66.9559 147.123 66.9559C145.643 66.9573 144.598 66.1721 144.598 64.703ZM149.388 64.1075V63.2206C149.083 63.3951 148.647 63.5114 148.168 63.6132C147.254 63.8167 146.877 64.0494 146.877 64.6164C146.877 65.198 147.312 65.4452 147.893 65.4452C148.778 65.4445 149.388 64.9072 149.388 64.1075Z" fill="#818592"/>
<path d="M155.206 65.8222H155.177V66.7672H152.912V56.3701H155.278V60.1656H155.322C155.786 59.5259 156.425 59.1042 157.441 59.1042C159.371 59.1042 160.62 60.8053 160.62 63.0451C160.62 65.5168 159.371 67.0005 157.455 67.0005C156.469 66.9999 155.67 66.5928 155.206 65.8222ZM158.225 63.0299C158.225 61.7504 157.717 60.9071 156.759 60.9071C155.714 60.9071 155.206 61.8231 155.206 63.0444C155.206 64.2803 155.816 65.1236 156.788 65.1236C157.717 65.1243 158.225 64.3246 158.225 63.0299Z" fill="#818592"/>
<path d="M161.09 63.06C161.09 60.8209 162.687 59.1191 165.068 59.1191C167.462 59.1191 169.03 60.8209 169.03 63.06C169.03 65.2998 167.463 67.0009 165.068 67.0009C162.687 67.0009 161.09 65.2998 161.09 63.06ZM166.635 63.06C166.635 61.7078 166.083 60.7912 165.053 60.7912C164.023 60.7912 163.486 61.7072 163.486 63.06C163.486 64.4129 164.023 65.3143 165.053 65.3143C166.083 65.3143 166.635 64.4122 166.635 63.06Z" fill="#818592"/>
<path d="M169.747 64.2082V59.3223H172.098V63.7139C172.098 64.5281 172.461 64.9788 173.215 64.9788C174.028 64.9788 174.521 64.3682 174.521 63.4812V59.3223H176.887V66.7678H174.622V65.8518H174.579C174.042 66.5788 173.389 66.9859 172.358 66.9859C170.647 66.9859 169.747 65.8664 169.747 64.2082Z" fill="#818592"/>
<path d="M178.5 64.8033V60.8043H177.513V59.3212H178.5V56.9658H180.808V59.3212H182.158V60.8043H180.808V64.2944C180.808 64.876 181.127 65.0214 181.635 65.0214C181.838 65.0214 182.07 65.0075 182.158 65.0075V66.7377C181.954 66.7959 181.504 66.854 180.866 66.854C179.487 66.854 178.5 66.4033 178.5 64.8033Z" fill="#818592"/>
<path d="M131.044 54.6484V32.0843H108.522V9.52158H86V2H116.029V24.5634H138.551V54.6477H131.044V54.6484ZM86.0033 24.5634V54.6477H116.029V47.1268H93.507V24.5634H86.0033ZM146.062 31.666H148.317V27.6874C148.317 27.2631 148.417 26.9162 148.615 26.6479C148.813 26.3802 149.088 26.2447 149.439 26.2447C149.78 26.2447 150.032 26.3498 150.193 26.5573C150.354 26.7648 150.434 27.0636 150.434 27.4515V31.666H152.69V27.6874C152.69 27.2631 152.787 26.9162 152.981 26.6479C153.175 26.3802 153.452 26.2447 153.812 26.2447C154.154 26.2447 154.403 26.3498 154.565 26.5573C154.728 26.7648 154.808 27.0636 154.808 27.4515V31.666H157.064V27.0503C157.064 26.6512 157.013 26.287 156.912 25.9546C156.809 25.6215 156.661 25.338 156.461 25.1014C156.264 24.8668 156.012 24.6844 155.708 24.5542C155.403 24.4246 155.053 24.3605 154.657 24.3605C154.195 24.3605 153.778 24.4603 153.405 24.6592C153.03 24.8582 152.705 25.1734 152.43 25.6083H152.401C152.217 25.221 151.956 24.9157 151.62 24.6936C151.282 24.4715 150.879 24.3605 150.409 24.3605C149.892 24.3605 149.46 24.4715 149.115 24.6936C148.769 24.9157 148.485 25.2111 148.263 25.5812H148.222V24.5687H146.062V31.666ZM158.059 23.5846H160.315V21.754H158.059V23.5846ZM158.059 31.666H160.315V24.568H158.059V31.666ZM164.998 31.7149C165.205 31.6924 165.36 31.666 165.461 31.6376V29.9886C165.416 29.9886 165.346 29.992 165.254 29.9959C165.164 30.0005 165.066 30.0032 164.964 30.0032C164.723 30.0032 164.531 29.9556 164.389 29.8637C164.246 29.7712 164.175 29.5848 164.175 29.3093V25.9823H165.461V24.568H164.175V22.3223H161.975V24.568H161.035V25.9823H161.975V29.795C161.975 30.173 162.03 30.4903 162.142 30.744C162.252 30.9985 162.408 31.1987 162.612 31.3468C162.815 31.4942 163.052 31.5992 163.325 31.6587C163.597 31.7195 163.899 31.7479 164.231 31.7479C164.534 31.7479 164.792 31.738 164.998 31.7149ZM146.062 42.4266H148.317V38.448C148.317 38.0224 148.417 37.6761 148.615 37.4078C148.813 37.1388 149.088 37.0046 149.439 37.0046C149.78 37.0046 150.032 37.1097 150.193 37.3172C150.354 37.5248 150.434 37.8235 150.434 38.2108V42.4266H152.69V38.448C152.69 38.0224 152.787 37.6761 152.981 37.4078C153.175 37.1388 153.452 37.0046 153.812 37.0046C154.154 37.0046 154.403 37.1097 154.565 37.3172C154.728 37.5248 154.808 37.8235 154.808 38.2108V42.4266H157.064V37.8089C157.064 37.4118 157.013 37.0463 156.912 36.7139C156.809 36.3814 156.661 36.0986 156.461 35.862C156.264 35.6274 156.012 35.443 155.708 35.3148C155.403 35.1865 155.053 35.1191 154.657 35.1191C154.195 35.1191 153.778 35.2209 153.405 35.4192C153.03 35.6168 152.705 35.9347 152.43 36.3689H152.401C152.217 35.9803 151.956 35.6763 151.62 35.4529C151.282 35.2321 150.879 35.1191 150.409 35.1191C149.892 35.1191 149.46 35.2321 149.115 35.4529C148.769 35.6763 148.485 35.971 148.263 36.3418H148.222V35.3286H146.062V42.4266ZM162.696 42.4669C163.059 42.3565 163.39 42.1966 163.685 41.9825C163.999 41.7703 164.257 41.5185 164.459 41.2271C164.662 40.9356 164.802 40.629 164.875 40.3071H162.674C162.573 40.5278 162.425 40.7017 162.232 40.8266C162.037 40.9488 161.794 41.0123 161.499 41.0123C161.027 41.0123 160.664 40.8748 160.404 40.5986C160.146 40.321 159.98 39.941 159.907 39.4598H164.999C165.009 38.7401 164.91 38.0826 164.701 37.4851C164.494 36.889 164.177 36.3973 163.753 36.0093C163.449 35.7311 163.096 35.5143 162.695 35.3577C162.294 35.1998 161.84 35.1198 161.332 35.1198C160.788 35.1198 160.295 35.2163 159.852 35.4066C159.409 35.595 159.025 35.8593 158.703 36.1964C158.381 36.5334 158.132 36.9319 157.956 37.388C157.78 37.8466 157.693 38.3383 157.693 38.8644C157.693 39.4004 157.78 39.9007 157.956 40.3613C158.132 40.8259 158.381 41.2231 158.703 41.5628C159.025 41.8979 159.423 42.1622 159.892 42.3506C160.363 42.5403 160.889 42.6348 161.47 42.6348C161.922 42.6328 162.331 42.5792 162.696 42.4669ZM159.921 38.1143C159.995 37.6887 160.146 37.3516 160.378 37.1018C160.609 36.8526 160.941 36.7277 161.374 36.7277C161.743 36.7277 162.047 36.8526 162.287 37.1018C162.528 37.351 162.67 37.6887 162.715 38.1143H159.921ZM169.903 42.336C170.258 42.1285 170.541 41.8404 170.753 41.4683H170.781V42.4266H172.94V32.5132H170.685V36.131H170.644C170.431 35.8355 170.171 35.593 169.868 35.4046C169.562 35.215 169.16 35.1178 168.665 35.1178C168.202 35.1178 167.782 35.2117 167.404 35.3967C167.025 35.5818 166.701 35.8388 166.43 36.1673C166.156 36.4951 165.944 36.8903 165.792 37.3516C165.641 37.8149 165.564 38.3231 165.564 38.8756C165.564 39.4684 165.641 39.9978 165.792 40.4651C165.944 40.931 166.16 41.3255 166.437 41.6494C166.713 41.9739 167.039 42.2204 167.418 42.3916C167.797 42.5621 168.21 42.648 168.665 42.648C169.134 42.6473 169.549 42.5429 169.903 42.336ZM168.214 40.3197C167.971 39.9588 167.849 39.4684 167.849 38.8485C167.849 38.2498 167.973 37.7607 168.223 37.3866C168.471 37.0119 168.822 36.8255 169.273 36.8255C169.523 36.8255 169.737 36.8764 169.918 36.9775C170.098 37.08 170.25 37.2221 170.374 37.4005C170.498 37.5803 170.59 37.7984 170.652 38.0515C170.71 38.3066 170.741 38.5809 170.741 38.8756C170.741 39.4585 170.607 39.9357 170.347 40.3064C170.083 40.6746 169.717 40.8603 169.246 40.8603C168.803 40.8596 168.459 40.6792 168.214 40.3197ZM173.848 34.3432H176.104V32.5139H173.848V34.3432ZM173.848 42.4266H176.104V35.3286H173.848V42.4266ZM180.579 42.344C180.907 42.1668 181.177 41.9316 181.389 41.6348H181.418C181.446 41.8212 181.477 41.9805 181.514 42.1146C181.55 42.2475 181.599 42.3519 181.651 42.4266H183.838V42.3294C183.737 42.2647 183.67 42.1503 183.638 41.9884C183.605 41.8272 183.59 41.6031 183.59 41.3163V37.7409C183.59 37.2974 183.516 36.9049 183.367 36.5619C183.219 36.2208 182.996 35.938 182.69 35.7166C182.433 35.5216 182.116 35.3775 181.748 35.2791C181.378 35.1826 180.927 35.1337 180.393 35.1337C179.858 35.1337 179.392 35.1984 178.996 35.3286C178.598 35.4568 178.269 35.632 178.006 35.8547C177.744 36.0754 177.544 36.3371 177.404 36.6319C177.266 36.9273 177.193 37.2412 177.183 37.5743H179.257C179.294 37.2769 179.405 37.0522 179.59 36.8943C179.774 36.7376 180.046 36.6583 180.406 36.6583C180.748 36.6583 180.994 36.7277 181.147 36.8672C181.298 37.0046 181.374 37.191 181.374 37.4223C181.374 37.6616 181.242 37.8334 180.973 37.9339C180.706 38.0356 180.238 38.1295 179.576 38.2108C179.207 38.2584 178.858 38.3271 178.53 38.4203C178.202 38.5121 177.914 38.6437 177.665 38.8155C177.416 38.986 177.221 39.2034 177.077 39.4658C176.934 39.7302 176.864 40.056 176.864 40.4439C176.864 40.7962 176.923 41.1055 177.042 41.3731C177.163 41.6408 177.329 41.8688 177.542 42.0512C177.753 42.2362 178.009 42.3757 178.31 42.4669C178.608 42.5607 178.933 42.607 179.285 42.607C179.82 42.6063 180.252 42.5184 180.579 42.344ZM179.314 40.9832C179.128 40.8636 179.038 40.6594 179.038 40.3725C179.038 40.1062 179.133 39.9053 179.329 39.7705C179.522 39.637 179.834 39.52 180.269 39.4156C180.499 39.362 180.714 39.3039 180.911 39.2444C181.11 39.1836 181.281 39.1168 181.431 39.0428V39.8881C181.431 40.2767 181.299 40.5867 181.035 40.8173C180.774 41.0473 180.428 41.1643 180.006 41.1643C179.728 41.1649 179.498 41.1048 179.314 40.9832ZM146.062 54.6491H148.345V44.7364H146.062V54.6491ZM152.836 54.5651C153.164 54.3907 153.432 54.1554 153.645 53.8586H153.673C153.7 54.0437 153.733 54.2023 153.769 54.3378C153.806 54.4713 153.853 54.5757 153.909 54.6491H156.095V54.5526C155.993 54.4871 155.925 54.3748 155.894 54.2129C155.862 54.051 155.845 53.8276 155.845 53.5401V49.9647C155.845 49.5212 155.771 49.128 155.623 48.7857C155.477 48.4433 155.25 48.1611 154.946 47.9384C154.688 47.7454 154.374 47.6007 154.006 47.5029C153.636 47.407 153.185 47.3568 152.649 47.3568C152.114 47.3568 151.648 47.4209 151.251 47.5518C150.855 47.6793 150.524 47.8551 150.262 48.0778C149.999 48.2986 149.799 48.5576 149.659 48.8537C149.521 49.1511 149.448 49.4644 149.439 49.7968H151.515C151.552 49.5001 151.662 49.2734 151.846 49.1174C152.031 48.9601 152.303 48.8815 152.663 48.8815C153.003 48.8815 153.251 48.9509 153.403 49.089C153.555 49.2278 153.633 49.4115 153.633 49.6435C153.633 49.884 153.498 50.0552 153.23 50.1563C152.963 50.2581 152.497 50.35 151.833 50.4339C151.464 50.4789 151.116 50.5489 150.788 50.6414C150.461 50.734 150.174 50.8655 149.924 51.036C149.675 51.2065 149.478 51.4239 149.335 51.6883C149.193 51.9513 149.12 52.2778 149.12 52.6651C149.12 53.016 149.18 53.3266 149.301 53.5936C149.422 53.8613 149.586 54.0893 149.799 54.273C150.011 54.4581 150.267 54.5968 150.566 54.69C150.867 54.7812 151.192 54.8282 151.542 54.8282C152.078 54.8295 152.508 54.7416 152.836 54.5651ZM151.571 53.2077C151.385 53.0874 151.293 52.8845 151.293 52.597C151.293 52.3287 151.39 52.1291 151.584 51.9943C151.777 51.8614 152.091 51.7425 152.525 51.642C152.754 51.5865 152.97 51.529 153.168 51.4682C153.367 51.4081 153.54 51.3413 153.688 51.2679V52.1126C153.688 52.5012 153.555 52.8105 153.293 53.0418C153.029 53.2731 152.686 53.3887 152.262 53.3887C151.985 53.3881 151.754 53.3279 151.571 53.2077ZM162.432 54.6147C162.806 54.4442 163.124 54.1957 163.387 53.8725C163.649 53.55 163.852 53.1541 163.996 52.6862C164.139 52.2203 164.21 51.6916 164.21 51.0988C164.21 50.5641 164.139 50.0678 163.996 49.6085C163.852 49.1524 163.65 48.7546 163.387 48.4182C163.124 48.0818 162.806 47.8175 162.432 47.6278C162.058 47.4381 161.641 47.3423 161.179 47.3423C160.691 47.3423 160.288 47.4348 159.97 47.6198C159.65 47.8056 159.381 48.0488 159.159 48.3554H159.117V44.7364H156.862V54.6484H159.02V53.7476H159.048C159.27 54.1164 159.564 54.3966 159.934 54.5869C160.303 54.7766 160.723 54.8711 161.193 54.8711C161.646 54.8711 162.058 54.7845 162.432 54.6147ZM159.45 52.5342C159.183 52.1687 159.049 51.6916 159.049 51.0988C159.049 50.5178 159.171 50.0321 159.416 49.6441C159.66 49.2555 160.032 49.0612 160.53 49.0612C160.992 49.0612 161.339 49.2476 161.575 49.6171C161.81 49.9865 161.928 50.4755 161.928 51.0862C161.928 51.7048 161.81 52.1932 161.575 52.5494C161.338 52.905 161.001 53.0828 160.557 53.0828C160.087 53.0828 159.718 52.901 159.45 52.5342Z" fill="#818592"/>
</svg>
