<svg width="270" height="70" viewBox="0 0 270 70" fill="none" xmlns="http://www.w3.org/2000/svg">
<path d="M46.6775 70C45.782 69.4451 45.3086 68.8083 46.26 67.8882C46.5586 67.5979 46.435 67.228 46.435 66.8932C46.442 45.6045 46.442 24.3135 46.4326 3.02485C46.4326 2.69708 46.5562 2.3459 46.2251 2.0509C45.3692 1.28533 45.7936 0.622763 46.4443 0C46.7545 0 47.067 0 47.3771 0C47.9275 0.667246 48.331 1.3462 47.4961 2.08602C47.1812 2.36697 47.2838 2.73454 47.2838 3.06933C47.2792 24.3229 47.2792 45.5788 47.2838 66.8323C47.2838 67.2046 47.2069 67.5792 47.5357 67.921C48.3496 68.7662 47.9741 69.4381 47.1462 70C46.9877 70 46.8337 70 46.6775 70Z" fill="#818592"/>
<path d="M40.0917 14.4804C39.5436 13.7921 38.7624 13.9911 38.0488 14.9814V15.4496C38.7857 16.0372 38.8673 16.8192 38.865 17.7135C38.8417 29.1949 38.8417 40.6785 38.8627 52.1598C38.864 52.6812 38.8393 53.1713 38.6856 53.6138C38.5668 53.9555 38.0508 54.5461 38.0508 54.5461L38.0488 54.5503C38.0488 54.5503 37.939 54.6879 38.0488 55.0185C38.1585 55.3492 38.6316 56.0721 39.8538 55.6623C40.6327 55.1145 40.5021 54.4449 39.8491 53.8011C39.5964 53.5526 39.6328 53.2227 39.6683 52.9007C39.6807 52.789 39.6929 52.5719 39.6929 52.5719C39.6929 52.5719 39.6836 29.5508 39.6906 18.039C39.6906 17.8949 39.6844 17.7499 39.6783 17.6049C39.6494 16.9208 39.6205 16.238 40.2363 15.6603C40.5791 15.3349 40.3715 14.8316 40.0917 14.4804Z" fill="#818592"/>
<path d="M87.2746 35.1206C87.2746 43.8182 87.2746 52.5158 87.2746 61.2134C87.2746 62.7001 87.2746 62.7024 85.7447 62.7024C81.9364 62.7024 78.1305 62.6767 74.3221 62.7212C73.3637 62.7329 73.0465 62.4426 73.0512 61.4616C73.0885 55.4564 73.0395 49.4488 73.0978 43.4436C73.1071 42.3339 72.7596 42.088 71.7195 42.0997C67.4471 42.1536 63.1724 42.0974 58.9 42.1419C57.9695 42.1512 57.6197 41.9452 57.6337 40.9315C57.692 36.9537 57.6896 32.976 57.6337 28.9983C57.6197 28.0361 57.9415 27.8347 58.8277 27.8417C63.1398 27.8815 67.4541 27.8183 71.7638 27.8886C72.8856 27.9073 73.0978 27.528 73.0908 26.5002C73.0465 20.5325 73.0908 14.5647 73.0512 8.59928C73.0442 7.59256 73.3124 7.23904 74.3595 7.25309C78.282 7.30927 82.207 7.30693 86.1295 7.25309C87.0717 7.24138 87.2956 7.54105 87.2933 8.44476C87.2629 17.3344 87.2746 26.2286 87.2746 35.1206Z" fill="#818592"/>
<path d="M185.794 26.6711C185.794 29.518 185.768 32.365 185.81 35.2119C185.822 35.9892 185.591 36.2467 184.824 36.1905C183.973 36.1273 183.114 36.139 182.261 36.1882C181.552 36.228 181.316 35.9821 181.333 35.2587C181.377 33.3108 181.312 31.3582 181.365 29.4103C181.386 28.6284 181.225 28.3147 180.367 28.3451C178.506 28.413 176.638 28.4013 174.775 28.3474C174.033 28.3264 173.865 28.5769 173.882 29.2816C173.928 31.2693 173.872 33.2593 173.912 35.247C173.926 35.94 173.753 36.2607 173.009 36.1835C171.862 36.0641 170.404 36.6611 169.647 35.9236C168.994 35.2868 169.467 33.8493 169.462 32.7653C169.444 27.9307 169.479 23.0937 169.432 18.2591C169.423 17.332 169.682 17.0253 170.6 17.1073C171.64 17.2009 173.026 16.7654 173.648 17.2922C174.381 17.9103 173.84 19.1988 173.889 20.4248C173.939 21.7029 173.917 22.6091 173.893 23.7001C173.882 24.2503 173.975 24.5664 174.647 24.5547C176.626 24.5172 178.609 24.5172 180.589 24.5547C181.246 24.5664 181.363 24.2784 181.356 23.7118C181.335 21.8014 181.368 19.891 181.337 17.9805C181.328 17.3367 181.508 17.0651 182.191 17.1119C183.002 17.1658 183.826 17.1822 184.635 17.1096C185.533 17.0277 185.838 17.2992 185.817 18.2498C185.752 21.0545 185.794 23.8617 185.794 26.6711Z" fill="#818592"/>
<path d="M115.708 26.6664C115.708 29.511 115.682 32.3579 115.724 35.2025C115.735 35.947 115.565 36.2514 114.772 36.1882C113.658 36.1015 112.198 36.5347 111.505 35.9728C110.777 35.3828 111.323 33.861 111.284 32.7466C111.239 31.5409 111.242 30.3281 111.286 29.1224C111.309 28.4856 111.076 28.3381 110.481 28.3474C108.541 28.3802 106.598 28.4013 104.658 28.3404C103.87 28.3147 103.786 28.6448 103.797 29.298C103.832 31.2857 103.779 33.2734 103.825 35.261C103.842 35.9658 103.674 36.2397 102.93 36.1882C102.002 36.1226 101.067 36.1367 100.136 36.1858C99.5041 36.2186 99.3642 35.9704 99.3665 35.3781C99.3852 29.5695 99.3875 23.7633 99.3642 17.9548C99.3618 17.2852 99.5508 17.0604 100.215 17.1143C101.367 17.2079 102.844 16.6531 103.592 17.318C104.304 17.9501 103.76 19.4485 103.802 20.5652C103.842 21.6164 103.851 22.6723 103.795 23.7212C103.758 24.4119 104.017 24.5687 104.658 24.5547C106.559 24.5172 108.464 24.5102 110.365 24.557C111.064 24.5734 111.312 24.4095 111.291 23.6627C111.237 21.7944 111.316 19.9191 111.253 18.0508C111.225 17.2384 111.526 17.0651 112.249 17.1119C113.1 17.1681 113.961 17.1752 114.81 17.1096C115.533 17.0558 115.731 17.2899 115.721 18.0157C115.684 20.8977 115.708 23.7821 115.708 26.6664Z" fill="#818592"/>
<path d="M194.642 26.6875C194.642 23.8008 194.661 20.9164 194.628 18.032C194.621 17.3227 194.826 17.1002 195.547 17.1073C199.313 17.1424 203.082 17.1354 206.85 17.1119C207.52 17.1073 207.797 17.2407 207.811 18.0016C207.867 21.0686 207.895 21.0686 204.87 21.0686C203.201 21.0686 201.529 21.0944 199.861 21.0546C199.248 21.0405 199.094 21.2372 199.075 21.8412C198.987 24.6881 198.966 24.6881 201.773 24.6881C203.093 24.6881 204.416 24.7092 205.736 24.6787C206.309 24.667 206.543 24.8122 206.573 25.4514C206.708 28.324 206.731 28.324 203.903 28.324C202.543 28.324 201.183 28.3451 199.824 28.3123C199.283 28.2983 199.108 28.4434 199.078 29.0217C198.91 32.3041 198.891 32.3041 202.147 32.3041C203.816 32.3041 205.488 32.3252 207.156 32.2924C207.762 32.2807 208.033 32.379 208.049 33.0978C208.117 36.1741 208.142 36.1741 205.085 36.1741C202.095 36.1741 199.103 36.1273 196.113 36.1975C194.999 36.2233 194.558 36.0173 194.612 34.7553C194.721 32.0723 194.642 29.3799 194.642 26.6875Z" fill="#818592"/>
<path d="M154.763 36.4199C151.808 36.3427 149.397 35.7082 147.123 34.5212C146.519 34.2075 146.361 33.9008 146.727 33.2663C147.249 32.3603 147.447 31.0469 148.203 30.5599C149.049 30.012 149.908 31.2903 150.85 31.597C152.265 32.0559 153.667 32.4609 155.169 32.3345C155.894 32.2737 156.587 32.1004 156.783 31.2646C156.983 30.4124 156.442 29.9488 155.768 29.6515C155.062 29.3401 154.329 29.0849 153.597 28.8391C152.718 28.5418 151.808 28.3217 150.941 27.9939C148.271 26.9825 147.191 25.5567 147.195 23.1335C147.2 20.5442 148.597 18.4535 151.029 17.5615C154.43 16.3112 157.578 17.2126 160.621 18.821C160.971 19.006 161.05 19.2331 160.803 19.5632C160.736 19.6545 160.712 19.7786 160.659 19.8793C160.209 20.7385 159.957 21.888 159.25 22.3773C158.429 22.9486 157.653 21.7499 156.773 21.5041C155.568 21.1646 154.39 20.7947 153.126 21.0546C152.492 21.1857 151.955 21.4713 151.82 22.1994C151.675 22.979 152.06 23.4988 152.709 23.7938C153.375 24.0981 154.082 24.3135 154.782 24.5406C155.738 24.852 156.72 25.0908 157.662 25.4396C160.661 26.5517 161.799 28.2116 161.619 31.1218C161.461 33.6877 159.779 35.5092 156.911 36.139C156.078 36.3216 155.218 36.3638 154.763 36.4199Z" fill="#818592"/>
<path d="M51.1131 34.8771C51.1131 43.5326 51.1131 52.1857 51.1155 60.8412C51.1155 61.3726 51.0502 61.883 51.5399 62.3349C52.0133 62.7703 51.8827 63.3463 51.421 63.777C51.0059 64.1657 50.4998 64.2359 50.045 63.8754C49.5693 63.4961 49.3477 62.8733 49.7652 62.4355C50.3692 61.8011 50.2736 61.101 50.2736 60.3799C50.2759 43.2657 50.2759 26.1514 50.2829 9.03709C50.2829 8.51968 50.2456 8.09358 49.8445 7.66982C49.3874 7.18519 49.4807 6.5835 50.0031 6.1293C50.4508 5.73832 50.9709 5.76173 51.386 6.1293C51.8757 6.56243 52.046 7.18987 51.5329 7.66748C51.0478 8.12168 51.1155 8.62035 51.1131 9.14947C51.1131 17.723 51.1131 26.3012 51.1131 34.8771Z" fill="#818592"/>
<path d="M102.214 51.3967C102.214 49.5659 102.209 47.7327 102.219 45.9019C102.221 45.5881 102.072 45.1714 102.65 45.1386C103.24 45.1035 103.247 45.4617 103.245 45.8831C103.238 47.2481 103.273 48.613 103.228 49.9756C103.207 50.6147 103.366 50.8629 104.056 50.8489C106.113 50.8067 108.173 50.8114 110.229 50.8465C110.866 50.8582 111.116 50.7014 111.09 50.0154C111.039 48.6926 111.062 47.3651 111.083 46.04C111.088 45.6677 110.866 45.1199 111.608 45.1386C112.244 45.155 112.1 45.6209 112.1 45.9768C112.107 49.6782 112.102 53.382 112.107 57.0835C112.107 57.4909 112.142 57.8631 111.531 57.835C110.948 57.8093 111.081 57.4113 111.078 57.0905C111.069 55.5711 111.05 54.0493 111.085 52.5298C111.099 51.9469 110.969 51.7104 110.327 51.7245C108.231 51.7643 106.134 51.769 104.038 51.7221C103.329 51.7057 103.214 51.989 103.228 52.6048C103.266 54.0844 103.242 55.5664 103.238 57.0484C103.235 57.423 103.34 57.8491 102.699 57.835C102.034 57.8187 102.216 57.3528 102.214 57.0086C102.207 55.138 102.214 53.2673 102.214 51.3967Z" fill="#818592"/>
<path d="M193.166 51.4623C193.166 49.6314 193.159 47.7983 193.17 45.9674C193.173 45.6209 192.998 45.148 193.653 45.1363C194.283 45.1246 194.189 45.5554 194.192 45.9323C194.196 47.1802 194.243 48.428 194.178 49.6736C194.134 50.5398 194.322 50.9004 195.295 50.8582C197.193 50.7739 199.099 50.795 200.999 50.8512C201.785 50.8746 202.095 50.706 202.046 49.8468C201.969 48.5264 202.023 47.1966 202.03 45.8738C202.032 45.5437 201.925 45.155 202.494 45.1363C203.11 45.1176 203.058 45.5156 203.058 45.9112C203.058 49.6525 203.058 53.3938 203.058 57.135C203.058 57.4932 203.093 57.8327 202.55 57.8374C202.018 57.8421 202.025 57.5307 202.025 57.1561C202.032 55.6366 202 54.1148 202.042 52.5954C202.058 51.968 201.934 51.7057 201.23 51.7221C199.173 51.769 197.114 51.776 195.059 51.7198C194.294 51.6987 194.164 51.982 194.182 52.6586C194.227 54.1383 194.199 55.6203 194.194 57.1022C194.192 57.437 194.287 57.8116 193.723 57.8374C193.096 57.8655 193.166 57.4675 193.166 57.0765C193.166 55.2035 193.166 53.3329 193.166 51.4623Z" fill="#818592"/>
<path d="M122.468 51.4201C122.468 49.5869 122.492 47.7538 122.454 45.9206C122.443 45.3166 122.601 45.1176 123.226 45.1269C125.479 45.1644 127.732 45.1363 129.985 45.148C130.29 45.1503 130.757 44.9794 130.74 45.5718C130.724 46.1219 130.29 46.0049 129.964 46.0072C128.061 46.0142 126.155 46.0353 124.255 45.9979C123.623 45.9862 123.352 46.1266 123.387 46.822C123.443 47.9106 123.443 49.0063 123.387 50.0973C123.352 50.795 123.625 50.9378 124.255 50.9214C125.847 50.8816 127.44 50.905 129.033 50.9121C129.36 50.9144 129.803 50.795 129.805 51.3475C129.807 51.9539 129.318 51.7245 129.028 51.7268C127.436 51.7479 125.843 51.7643 124.25 51.7245C123.625 51.7081 123.352 51.8368 123.385 52.5392C123.443 53.7449 123.436 54.9577 123.387 56.1658C123.361 56.8049 123.595 56.9454 124.185 56.9337C126.088 56.9009 127.991 56.9056 129.894 56.936C130.243 56.9407 130.843 56.6317 130.885 57.3504C130.931 58.1207 130.304 57.8046 129.966 57.8093C127.753 57.8374 125.537 57.7859 123.324 57.8444C122.562 57.8655 122.433 57.5986 122.45 56.9173C122.499 55.0865 122.468 53.2533 122.468 51.4201Z" fill="#818592"/>
<path d="M54.4947 19.6662C54.9611 19.6592 55.2853 19.8769 55.4602 20.2468C55.6491 20.6495 55.7097 21.1482 55.3459 21.4432C54.8375 21.8552 54.8748 22.3586 54.8748 22.9018C54.8795 30.9275 54.8795 38.9531 54.8748 46.9788C54.8748 47.5571 54.8678 48.0745 55.3576 48.5568C55.7797 48.9759 55.6887 49.5846 55.2153 50.0084C54.7395 50.4345 54.1962 50.4157 53.7507 49.9826C53.3123 49.5565 53.1864 48.9431 53.6528 48.5287C54.1542 48.0815 54.0982 47.5829 54.0982 47.0514C54.1006 39.0257 54.0982 31 54.1006 22.9743C54.1006 22.3984 54.1659 21.8389 53.6271 21.3893C53.261 21.0826 53.3263 20.5957 53.5618 20.207C53.7717 19.8629 54.0772 19.6124 54.4947 19.6662Z" fill="#818592"/>
<path d="M178.534 51.886C178.534 50.2472 178.492 48.6083 178.553 46.9718C178.581 46.1758 178.289 45.9721 177.555 46.0096C176.547 46.0634 175.535 46.0213 174.525 46.0236C174.194 46.0236 173.889 46.0025 173.884 45.5554C173.879 45.0567 174.248 45.1363 174.542 45.1363C177.494 45.1316 180.446 45.1316 183.401 45.1363C183.686 45.1363 184.064 45.0239 184.08 45.5273C184.096 46.0704 183.709 46.0213 183.359 46.0236C182.543 46.026 181.72 46.0962 180.913 46.0072C179.826 45.8878 179.448 46.1945 179.483 47.3745C179.577 50.493 179.53 53.6138 179.495 56.7347C179.49 57.1046 179.856 57.7952 179.057 57.814C178.166 57.8327 178.567 57.0835 178.555 56.6855C178.506 55.0865 178.534 53.4851 178.534 51.886Z" fill="#818592"/>
<path d="M159.742 51.3803C159.742 49.6665 159.716 47.9528 159.763 46.2413C159.772 45.8761 159.378 45.1925 160.183 45.1597C161.004 45.1269 160.663 45.8199 160.668 46.1945C160.696 49.4254 160.71 52.6586 160.666 55.8895C160.654 56.6761 160.815 56.9711 161.666 56.9407C163.564 56.8728 165.467 56.9126 167.366 56.9243C167.713 56.9267 168.196 56.7511 168.18 57.416C168.166 58.027 167.709 57.814 167.419 57.8163C165.132 57.8327 162.841 57.7999 160.554 57.8397C159.88 57.8514 159.712 57.6337 159.723 56.9852C159.768 55.1192 159.742 53.2509 159.742 51.3803Z" fill="#818592"/>
<path d="M43.0254 64.0861C42.622 64.0276 42.2745 63.859 42.0949 63.475C41.9014 63.0583 41.8641 62.5713 42.2279 62.2834C42.7572 61.8643 42.6733 61.3328 42.6733 60.799C42.6756 43.5536 42.6733 26.3059 42.678 9.0605C42.678 8.51032 42.6383 8.05612 42.1905 7.60661C41.7731 7.18753 41.8664 6.57413 42.3515 6.15506C42.7806 5.7828 43.282 5.743 43.7367 6.11291C44.2311 6.5156 44.378 7.15475 43.9629 7.55744C43.3519 8.14743 43.4522 8.80765 43.4522 9.4866C43.4499 26.5377 43.4499 43.5887 43.4499 60.6398C43.4499 61.2556 43.3799 61.8526 43.9373 62.3442C44.2778 62.6462 44.2358 63.1332 44.0002 63.5359C43.7857 63.8988 43.4429 64.0627 43.0254 64.0861Z" fill="#818592"/>
<path fill-rule="evenodd" clip-rule="evenodd" d="M232.178 29.5829C232.218 29.3581 232.26 29.1184 232.545 29.0288V24.5805C232.307 24.5279 232.302 24.3597 232.296 24.1944C232.294 24.1316 232.292 24.0693 232.277 24.0139C231.228 20.0409 228.679 17.7535 224.614 17.2572C222.952 17.0545 221.283 17.0843 219.614 17.1141C218.603 17.1322 217.592 17.1503 216.582 17.1167C215.963 17.0962 215.975 17.4461 215.987 17.814C215.988 17.8648 215.99 17.916 215.99 17.9666C215.989 19.5188 215.99 21.0712 215.99 22.6236C215.992 26.8432 215.993 31.0633 215.971 35.2822C215.967 36.0103 216.169 36.207 216.883 36.1929C218.029 36.1699 219.175 36.1745 220.321 36.1791C221.389 36.1833 222.457 36.1876 223.525 36.1695C227.79 36.097 230.81 33.8307 232.13 29.7967C232.152 29.7312 232.165 29.6579 232.178 29.5829ZM220.431 25.2749C220.425 25.7146 220.419 26.1543 220.419 26.5939C220.419 27.0024 220.418 27.4111 220.417 27.8197C220.415 29.046 220.413 30.2725 220.43 31.4964C220.431 31.5588 220.422 31.631 220.412 31.7058C220.376 31.9816 220.335 32.2938 220.794 32.2901C221.105 32.2877 221.417 32.2956 221.729 32.3035C222.924 32.3338 224.121 32.3643 225.253 31.8148C227.494 30.7261 228.555 27.8652 227.849 24.8356C227.287 22.4242 225.533 21.0757 222.954 21.0663C222.809 21.0663 222.664 21.0706 222.519 21.0749C222.197 21.0845 221.875 21.094 221.559 21.0569C220.701 20.9539 220.33 21.181 220.393 22.1573C220.46 23.1941 220.445 24.2344 220.431 25.2749Z" fill="#818592"/>
<path fill-rule="evenodd" clip-rule="evenodd" d="M123.588 33.9968C122.764 36.1671 122.781 36.1741 125.136 36.1741H125.143C127.44 36.1741 127.443 36.1741 128.201 33.9687C128.212 33.9343 128.224 33.9 128.236 33.8657C128.35 33.5324 128.465 33.1983 128.546 32.8566C128.697 32.201 129.019 31.9061 129.751 31.9412C131.109 32.0067 132.471 32.0044 133.828 31.9412C134.551 31.9084 134.833 32.2034 135.05 32.8425C135.159 33.1629 135.236 33.5221 135.314 33.8824C135.502 34.7516 135.691 35.6272 136.321 35.9798C136.936 36.3252 138.604 36.2172 138.604 36.2172L139.854 36.1858C139.854 36.1858 140.85 36.0664 140.523 35.2282C138.881 30.9911 137.273 26.7416 135.665 22.4922C135.295 21.515 134.926 20.5378 134.555 19.5608C133.635 17.1257 133.63 17.1257 131.105 17.1033L131.025 17.1026C130.297 17.0955 129.933 17.3062 129.67 18.0086C128.419 21.3377 127.15 24.6596 125.881 27.9816C125.115 29.9861 124.349 31.9906 123.588 33.9968ZM132.775 28.8277C133.156 28.8288 133.545 28.8298 133.947 28.8298C133.775 28.2787 133.606 27.7387 133.44 27.207C132.913 25.5182 132.413 23.9139 131.911 22.3095C131.152 24.0751 130.579 25.8148 130.009 27.5466C129.938 27.7622 129.867 27.9776 129.796 28.193C129.649 28.6402 129.693 28.8415 130.213 28.8345C131.051 28.823 131.89 28.8253 132.775 28.8277Z" fill="#818592"/>
<path fill-rule="evenodd" clip-rule="evenodd" d="M149.329 57.1163C149.562 57.7437 149.924 57.9755 150.675 57.7273L150.038 56.2301C148.55 52.7335 147.075 49.268 145.605 45.7988C145.59 45.7636 145.576 45.7285 145.562 45.6938C145.447 45.408 145.344 45.1525 144.926 45.1316C144.494 45.1089 144.389 45.3738 144.279 45.6502C144.264 45.6873 144.249 45.7245 144.234 45.7614C144.025 46.2527 143.817 46.7441 143.609 47.2354C142.242 50.4574 140.875 53.6806 139.527 56.9126C139.501 56.975 139.456 57.045 139.408 57.1185C139.257 57.3505 139.084 57.6163 139.427 57.7835C139.91 58.0153 140.257 57.7156 140.453 57.1771C140.681 56.5521 140.943 55.9385 141.205 55.3247C141.355 54.9752 141.504 54.6257 141.647 54.274C141.827 53.8362 142.076 53.6208 142.599 53.6349C144.112 53.677 145.628 53.6676 147.142 53.6395C147.68 53.6302 147.984 53.773 148.177 54.3185C148.356 54.8222 148.57 55.3133 148.785 55.8049C148.975 56.2387 149.164 56.6728 149.329 57.1163ZM145.699 48.2359C145.447 47.628 145.189 47.0057 144.922 46.363C144.698 46.8864 144.479 47.3979 144.264 47.9006C143.613 49.4238 142.996 50.8651 142.377 52.305C142.142 52.8552 142.475 52.8739 142.874 52.8716C143.095 52.8704 143.315 52.869 143.535 52.8675C144.637 52.8604 145.739 52.8532 146.839 52.8786C147.485 52.8927 147.559 52.6702 147.326 52.1224C146.785 50.855 146.257 49.5809 145.699 48.2359Z" fill="#818592"/>
</svg>
