<svg width="170" height="60" viewBox="0 0 170 60" fill="none" xmlns="http://www.w3.org/2000/svg">
<path d="M143.434 18.169C143.602 20.196 141.75 23.0914 140.403 23.8151L139.562 23.2362C140.908 22.0781 140.572 18.6037 139.562 17.5901V17.4453C140.403 17.4453 141.918 17.5901 142.592 17.8794C143.097 18.0245 143.266 18.169 143.434 18.169ZM160 35.8949C160 39.6589 156.633 42.554 150.909 42.554C148.552 42.554 145.69 42.2644 144.343 41.6855C144.343 41.6855 144.175 41.5407 144.175 40.8167C144.175 39.2242 144.343 36.6183 144.343 36.1842H145.185C145.354 36.7631 145.354 37.4868 145.858 38.2108C146.7 40.3823 148.889 41.2508 151.245 41.2508C154.276 41.2508 156.128 39.9482 156.128 37.4868C156.128 35.7495 154.613 34.5917 152.087 32.9992L150.404 31.841C147.037 29.6696 144.68 27.4981 144.68 24.4582C144.68 20.9838 147.879 18.378 153.097 18.378C155.118 18.378 157.474 18.8121 158.316 18.9569C158.821 18.9569 158.821 19.1017 158.821 19.2465C158.821 19.6806 158.653 21.4179 158.653 23.7342H157.811C156.969 21.2731 156.296 19.6806 152.761 19.6806C149.73 19.6806 148.047 21.2731 148.047 22.8657C148.047 24.3134 149.562 25.9059 152.255 27.6429L153.939 28.8011C158.316 31.2621 160 32.9994 160 35.8949ZM98.8889 31.4069C98.3837 32.565 98.2153 33.4335 98.2153 34.4471V39.9485C98.2153 40.817 98.7205 41.541 99.7305 41.541C100.067 41.541 101.414 41.6858 101.751 41.6858V42.4095H89.9663V41.6858C90.3031 41.6858 91.8182 41.6858 92.3231 41.541C92.6599 41.541 93.5015 41.3959 93.5015 39.9485C93.5015 38.6455 93.6698 37.6319 93.6698 37.053V34.4471C93.6698 32.8546 93.1647 32.1309 92.8279 31.2621C92.6595 30.6832 87.7776 23.4446 86.7673 21.8523C85.9253 20.6942 85.0837 20.1147 84.4105 19.6806C83.9053 19.5358 82.8953 19.391 82.3901 19.391V18.6673H89.7976C89.7976 18.6673 89.966 19.1014 90.976 20.9835C91.3127 21.8523 96.195 29.6696 96.8682 30.3936C96.8682 30.3936 101.751 22.2867 104.107 18.6673H109.326V19.391C107.642 19.391 106.801 19.9699 105.622 21.1283C104.444 22.2867 99.5621 30.1043 98.8889 31.4069ZM52.2559 37.0527C52.2559 37.0527 51.4143 40.5271 51.2459 41.3959C51.0775 42.1196 50.9091 42.1196 50.9091 42.1196H32.2223V41.3959C32.8959 41.3959 33.9059 41.3959 34.2426 41.2508C34.9162 41.106 35.2526 40.6719 35.2526 39.8034C35.421 38.6452 35.421 36.1842 35.421 33.4336V27.4979V21.4176C35.421 20.2595 35.2526 19.9702 33.9059 19.6803H32.2223V18.9566H39.7978V33.5784C39.7978 37.7767 39.7978 39.5135 40.471 40.0927C41.1446 40.3823 42.4914 40.8164 45.3533 40.8164C47.8788 40.8164 48.7204 40.6716 49.562 39.9479C50.2356 39.3687 50.572 38.645 51.0772 37.1972H52.2556V37.0527H52.2559ZM30.202 37.0527C30.202 37.0527 29.36 40.5271 29.192 41.3959C29.0236 42.1196 28.6868 42.1196 28.6868 42.1196H10V41.3959C10.5048 41.3959 11.6836 41.3959 12.0203 41.2508C12.6936 41.106 13.0303 40.6719 13.0303 39.8034C13.1987 38.6452 13.1987 36.1842 13.1987 33.4336V27.4979V21.4176C13.1987 20.2595 13.0303 19.9702 11.6836 19.6803H10V18.9566H17.5758V33.5784C17.5758 37.7767 17.5758 39.5135 18.2494 40.0927C18.9226 40.3823 20.2697 40.8164 23.1316 40.8164C25.6568 40.8164 26.4988 40.6716 27.3404 39.9479C28.0136 39.3687 28.3504 38.645 28.8552 37.1972H30.202V37.0527ZM82.2221 29.8147C82.2221 36.9082 77.003 42.554 67.9124 42.554C57.9798 42.554 54.2759 36.0397 54.2759 30.3936C54.2759 24.603 58.4846 18.2332 68.4175 18.2332C77.1718 18.2332 82.2221 23.0105 82.2221 29.8147ZM77.1718 31.1173C77.1718 24.1686 72.963 19.6806 67.2392 19.6806C63.0304 19.6806 58.9901 22.4313 58.9901 29.5251C58.9901 35.4602 62.5256 41.1063 68.9227 41.1063C74.1414 41.1063 77.1718 37.6322 77.1718 31.1173ZM138.62 29.9595C138.62 34.1578 136.768 37.1978 134.916 38.9348C133.232 40.3826 130.033 42.1199 123.468 42.1199H109.832V41.3962C112.188 41.3962 113.199 41.3962 113.367 39.8037C113.535 38.5007 113.535 35.1709 113.535 33.4338V27.4981V21.4179C113.535 20.2598 113.031 19.9705 112.02 19.6806H110.168V18.9569H121.28C125.657 18.9569 131.549 18.9569 135.421 22.4313C136.936 23.7342 138.62 26.34 138.62 29.9595ZM134.074 30.9725C134.074 23.4446 128.35 20.115 120.606 20.115C119.933 20.115 118.754 20.2598 118.586 20.2598C118.249 20.4046 118.249 20.6939 118.249 20.9835V35.7501C118.249 38.9348 118.417 39.514 118.922 40.093C119.596 40.6719 120.606 40.9615 123.299 40.9615C130.539 41.1063 134.074 37.6322 134.074 30.9725Z" fill="#818592"/>
</svg>
