<svg width="170" height="60" viewBox="0 0 170 60" fill="none" xmlns="http://www.w3.org/2000/svg">
<path d="M15.8179 41.1141L17.5407 35.3335H24.3637L25.9793 41.1141H32.299L26.0151 19.0668C25.6562 17.7727 24.8655 17.1622 23.5015 17.1622H14.5626V19.2454H15.3161C16.2497 19.2454 16.7531 19.6059 16.7531 20.322C16.7531 20.7896 16.6443 21.1842 16.2855 22.2623L10 41.1141H15.8179ZM23.5015 31.4187H18.4386L21.1308 22.6196L23.5015 31.4187ZM39.5802 41.1141V18.9938C39.5802 17.8457 38.8998 17.1622 37.7844 17.1622H32.2555V19.2454H32.6143C33.548 19.2454 33.9426 19.64 33.9426 20.5737V41.1125H39.5802V41.1141ZM49.1576 41.1141V18.9938C49.1576 17.8457 48.474 17.1622 47.3648 17.1622H41.8328V19.2454H42.1917C43.1253 19.2454 43.5199 19.64 43.5199 20.5737V41.1125H49.1576V41.1141ZM58.881 41.1141V24.9887C58.881 23.8423 58.199 23.1603 57.0867 23.1603H51.6277V25.2062H51.9523C52.886 25.2062 53.2806 25.6365 53.2806 26.5702V41.1125H58.881V41.1141ZM58.9881 19.3526C58.9881 17.737 57.8044 16.7676 55.7569 16.7676C53.7451 16.7676 52.5256 17.737 52.5256 19.3526C52.5256 20.9683 53.7451 21.9392 55.7569 21.9392C57.8044 21.9392 58.9881 20.9683 58.9881 19.3526ZM63.6471 28.293C65.5144 27.3967 67.5619 26.8949 69.1776 26.8949C70.6845 26.8949 71.2235 27.4339 71.2235 29.0108V29.4069C68.9259 29.7642 68.2082 29.9102 66.9157 30.1976C66.1916 30.365 65.4828 30.5926 64.7967 30.8781C62.5348 31.776 61.4567 33.5361 61.4567 36.2268C61.4567 39.6367 62.9294 41.2912 65.982 41.2912C67.0943 41.2912 68.101 41.0784 68.9974 40.7179C69.7881 40.3606 70.2542 40.0717 71.4037 39.1738V39.4254C71.4037 40.5393 71.9785 41.1125 73.0908 41.1125H78.2252V39.1738H77.9751C77.0041 39.1738 76.6453 38.7434 76.6453 37.5923V29.048C76.6453 24.487 75.0653 22.907 70.5043 22.907C69.0347 22.907 67.5992 23.0857 66.1964 23.4088C64.7967 23.732 64.0774 24.0194 62.3903 24.8474L63.6471 28.293ZM71.2235 32.4968V35.9798C70.2899 36.9476 69.1418 37.5239 68.1709 37.5239C67.1673 37.5239 66.8085 37.0206 66.8085 35.6908C66.8085 34.361 67.0943 33.752 68.101 33.3575C68.8545 33.0343 69.8238 32.7485 71.2235 32.4968ZM86.4044 41.1141V28.9781C87.338 27.9373 88.3074 27.4697 89.4197 27.4697C90.605 27.4697 90.8909 27.9373 90.8909 29.7347V41.1156H96.4913V28.9082C96.4913 26.0715 96.2769 25.1752 95.3774 24.2042C94.6239 23.3778 93.4759 22.9443 92.0016 22.9443C89.8143 22.9443 88.2686 23.6279 86.1853 25.5666V24.8489C86.1853 23.7335 85.6136 23.1603 84.4609 23.1603H79.148V25.2062H79.4711C80.4063 25.2062 80.8009 25.6365 80.8009 26.5702V41.1125H86.4044V41.1141ZM105.284 37.3422L112.755 26.8592V23.1603H101.049C99.7179 23.1603 99.1105 23.7692 99.1105 25.099V28.3645H101.194V28.0429C101.194 27.218 101.624 26.8219 102.52 26.8219H106.544L99.0033 37.4152V41.1141H113.117V37.3422H105.284ZM160 29.9817C160 18.958 151.776 10.7354 140.749 10.7354C129.727 10.7354 121.467 18.958 121.467 29.9817C121.467 41.0411 129.727 49.2638 140.749 49.2638C151.776 49.2638 160 41.0411 160 29.9817ZM156.192 29.9817C156.192 39.0666 149.655 45.6752 140.749 45.6752C131.809 45.6752 125.31 39.0666 125.31 29.9817C125.31 20.9341 131.81 14.327 140.749 14.327C149.655 14.327 156.192 20.9341 156.192 29.9817ZM135.759 40.1432V22.7284H132.633C131.089 22.7284 130.477 23.3389 130.477 24.8831V40.1416H135.759V40.1432ZM145.739 40.1432H150.983V24.8831C150.983 23.3389 150.409 22.7284 148.827 22.7284H145.739V40.1432ZM143.371 40.1432V19.929C143.371 18.3118 142.832 17.7727 141.215 17.7727H136.513V19.9989H136.8L137.303 20.0331C137.484 20.0331 137.661 20.1418 137.807 20.2863C138.023 20.5364 138.092 20.7881 138.092 21.3271V40.1432H143.371Z" fill="#818592"/>
</svg>
