<svg width="170" height="60" viewBox="0 0 170 60" fill="none" xmlns="http://www.w3.org/2000/svg">
<path fill-rule="evenodd" clip-rule="evenodd" d="M59.4127 10L29.4976 19.8807L39.3789 50L65.6819 41.3457L63.4331 34.1907L55.12 34.1225L54.1659 37.4611H49.8725L57.0275 16.1327H61.4567L59.4127 10Z" fill="#818592"/>
<path fill-rule="evenodd" clip-rule="evenodd" d="M56.2098 30.5795L59.1397 21.1758L62.2742 30.6477L56.2098 30.5795Z" fill="#818592"/>
<path fill-rule="evenodd" clip-rule="evenodd" d="M79.5831 16.2697H64.8638V26.0822L68.6118 37.3264H80.2643V33.7142H68.6118V27.7862H76.9256V24.3105H68.6118V19.8131H79.5831V16.2697ZM123.944 37.2576V16.2697H127.829L136.686 30.2385V16.2697H140.503V37.2576H136.755L127.829 23.1517V37.2576H123.944ZM90.4173 15.7244L91.8485 15.8609L93.2113 16.2015L94.5054 16.7473L95.733 17.4279L96.8235 18.3143L97.7088 19.2684L98.4588 20.3583L99.0034 21.5847L95.5959 23.2882L95.5289 23.0841L95.3236 22.6753L94.983 22.0624L94.4384 21.3124L93.7572 20.6307L92.8708 19.9495L91.7802 19.5407L90.4856 19.4043L89.1909 19.4725L88.0322 19.8813L87.0104 20.5624L86.1246 21.4483L85.4435 22.5388L84.9664 23.8335L84.6935 25.3328L84.557 27.0363L84.6935 28.6715L85.0346 30.1702L85.6476 31.3973L86.3969 32.3513L87.2828 33.1695L88.2375 33.7142L89.3268 34.0548L90.4856 34.123L91.6443 34.0548L92.5984 33.7142L93.4837 33.306L94.2331 32.6919L94.7789 32.0108L95.2554 31.1937L95.5289 30.3073L95.6648 29.4215H90.5538V25.8099H99.0717V37.3264H95.8012V35.4177L95.733 35.5541L95.5959 35.8265L95.1871 36.167L94.7107 36.6447L93.9607 37.0541L93.0072 37.4617L91.7802 37.7352L90.3503 37.8023L88.7139 37.667L87.0104 37.2576L85.3752 36.5082L83.8759 35.4177L82.513 33.9189L81.4907 32.079L80.8095 29.762L80.5366 26.968L80.8095 24.2423L81.4225 21.8577L82.4448 19.9495L83.7394 18.3819L85.2388 17.2238L86.9416 16.4062L88.6463 15.9291L90.4173 15.7244ZM107.522 32.4878L107.93 32.829L108.748 33.373L109.225 33.6454L109.702 33.7824L110.179 33.9189L110.724 33.9865L111.338 34.0548L112.768 33.8507L114.063 33.4419L115.086 32.6919L115.971 31.8066L116.584 30.7161L117.061 29.4897L117.334 28.1945L117.471 26.8322L117.334 25.4005L117.061 23.9699L116.584 22.7429L115.903 21.5847L115.017 20.6307L113.995 19.8813L112.768 19.4043L111.338 19.1996L109.906 19.4043L108.679 19.8813L107.657 20.6307L106.841 21.653L106.226 22.8112L105.818 24.1058L105.613 25.4693L105.478 26.8998L105.545 27.718L105.613 28.5356L105.818 29.285L106.023 30.035L106.295 30.7161L106.635 31.329L107.044 31.9419L107.522 32.4878L105.954 36.0988L105 35.4177L104.182 34.6006L103.365 33.5783L102.751 32.4878L102.206 31.2608L101.797 29.8979L101.593 28.4668L101.525 26.8322L101.729 24.1746L102.274 21.8577L103.229 19.9495L104.456 18.3819L105.954 17.1555L107.657 16.2697L109.498 15.7926L111.405 15.5885L113.109 15.7926L114.88 16.2015L116.584 17.0197L118.084 18.2461L119.447 19.7448L120.468 21.7212L121.15 24.0382L121.422 26.8322L121.218 29.1485L120.741 31.2608L119.855 33.1013L118.697 34.6689L117.266 35.9635L115.562 36.917L113.586 37.4617L111.405 37.667H110.655L109.975 37.5987L109.225 37.4617L108.544 37.3264L107.862 37.0541L107.181 36.7805L106.567 36.5082L105.954 36.0988L107.522 32.4878ZM70.9288 44.6849L70.1112 42.505H127.692V44.6849H70.9288Z" fill="#818592"/>
</svg>
