<svg width="170" height="60" viewBox="0 0 170 60" fill="none" xmlns="http://www.w3.org/2000/svg">
<path fill-rule="evenodd" clip-rule="evenodd" d="M23.7921 48.7922C34.1707 48.7922 42.5842 40.3787 42.5842 30.0001C42.5842 19.6215 34.1707 11.208 23.7921 11.208C13.4135 11.208 5 19.6215 5 30.0001C5 40.3787 13.4135 48.7922 23.7921 48.7922ZM33.1436 24.4495V20.515H14.4406V24.4495H33.1436ZM18.7716 27.3993H14.6045V39.5297H18.7716V27.3993ZM25.8592 27.3993H21.6921V39.5297H25.8592V27.3993ZM32.9797 27.3993H28.8121V39.5297H32.9797V27.3993Z" fill="#818592"/>
<path fill-rule="evenodd" clip-rule="evenodd" d="M69.2486 25.8144H65.3188C65.2765 23.9548 63.924 22.8986 62.107 22.8986C60.5434 22.8986 58.7263 23.4902 58.7263 25.3498C58.7263 29.5765 69.7972 26.7865 69.7972 33.7179C69.7972 37.9863 66.1201 39.9299 62.2333 39.9299C57.7967 39.9299 54.1203 38.3661 54.1626 33.5061H58.3459C58.3459 35.6191 59.4866 37.0558 61.7258 37.0558C63.3741 37.0558 65.5716 36.4636 65.5716 34.4776C65.5716 30.0404 54.6695 33.0409 54.6695 25.8984C54.6695 21.6723 58.5993 20.0245 62.2333 20.0245C66.0791 20.0252 68.9952 21.8841 69.2486 25.8144ZM85.4324 39.5494L83.5307 33.2103C83.1085 31.8159 82.8551 30.4209 82.5593 29.0266C82.3482 30.0411 82.1788 31.0549 81.8831 32.027L81.5879 33.0832L79.8126 39.5494H75.1218L70.7692 26.2372H75.2482L77.1076 33.2103L77.361 34.1824L77.5721 35.1122L77.8255 36.7607C78.0366 35.1539 78.4171 33.6332 78.8399 32.1118L80.4875 26.2372H85.0513L86.7836 32.3652C87.1986 33.7916 87.5093 35.2462 87.7133 36.7177L87.8397 35.958C88.009 34.6893 88.3472 33.4644 88.727 32.1965L90.3753 26.2372H94.6425L90.0795 39.5494H85.4324ZM96.6303 26.2372H100.602V39.5494H96.6303V26.2372ZM96.5032 20.4481H100.729V23.7437H96.5032V20.4481ZM114.039 29.7453H110.491C110.405 28.7738 109.518 28.2662 108.589 28.2662C107.743 28.2662 106.518 28.5197 106.56 29.6182C106.603 30.4633 107.532 30.7167 108.208 30.8862L109.729 31.266C112.053 31.7736 114.715 32.7451 114.715 35.5344C114.715 38.9154 111.25 39.9299 108.461 39.9299C105.715 39.9299 103.01 38.7043 102.799 35.7462H106.475C106.602 36.9294 107.531 37.5211 108.672 37.5211C109.686 37.5211 110.996 37.0982 110.996 35.8733C110.996 33.3374 103.052 35.1539 103.052 29.9994C103.052 26.8712 106.179 25.8574 108.8 25.8574C111.207 25.8574 113.616 26.8295 113.997 29.4495L114.039 29.7453ZM127.097 29.7453H123.548C123.463 28.7738 122.576 28.2662 121.647 28.2662C120.801 28.2662 119.575 28.5197 119.618 29.6182C119.661 30.4633 120.59 30.7167 121.266 30.8862L122.787 31.266C125.112 31.7736 127.774 32.7451 127.774 35.5344C127.774 38.9154 124.308 39.9299 121.519 39.9299C118.773 39.9299 116.068 38.7043 115.857 35.7462H119.534C119.661 36.9294 120.59 37.5211 121.731 37.5211C122.745 37.5211 124.055 37.0982 124.055 35.8733C124.055 33.3374 116.111 35.1539 116.111 29.9994C116.111 26.8712 119.238 25.8574 121.858 25.8574C124.267 25.8574 126.675 26.8295 127.056 29.4495L127.097 29.7453ZM145.774 30.0834C148.14 29.4071 149.916 27.9704 149.916 25.3505C149.916 21.6737 146.492 20.4487 143.324 20.4487H135.422V39.55H139.52V31.8159H142.732C146.409 31.8159 145.521 36.9294 146.113 39.55H150.592C148.563 35.9573 151.014 31.0973 145.774 30.0834ZM142.479 28.6884H139.52V23.4479H142.521C144.212 23.4479 145.606 24.1665 145.606 26.0261C145.606 27.928 144.212 28.6884 142.479 28.6884ZM158.704 37.5211C156.592 37.5211 156.211 35.7038 156.211 33.929H165C165 29.6606 163.479 25.8567 158.535 25.8567C154.268 25.8567 152.112 29.3224 152.112 33.2526C152.112 37.3516 154.562 39.9292 158.662 39.9292C161.451 39.9292 164.324 38.746 164.535 35.6191H160.985C160.733 36.8871 160.015 37.5211 158.704 37.5211ZM158.451 28.2662C160.437 28.2662 160.817 29.914 160.902 31.5201H156.211C156.254 30.0834 156.677 28.2662 158.451 28.2662Z" fill="#818592"/>
</svg>
