<svg width="170" height="60" viewBox="0 0 170 60" fill="none" xmlns="http://www.w3.org/2000/svg">
<path fill-rule="evenodd" clip-rule="evenodd" d="M48.3895 17.6386V45.9365H52.5153V17.6386H54.4644V14.329H46.4404V17.6386H48.3895ZM62.8668 18.2664V41.8107C62.8668 42.3102 62.413 42.6285 62.0049 42.6285C61.5968 42.6285 61.1438 42.311 61.1438 41.8107V18.2664C61.1438 17.73 61.5968 17.5031 62.0049 17.5031C62.413 17.5031 62.8668 17.7292 62.8668 18.2664ZM60.1921 14.0572C58.5597 14.0572 57.0188 15.7802 57.0188 17.3211V42.7616C57.0188 44.0692 57.835 45.9357 60.1921 45.9357H63.8641C66.1764 45.9357 67.0375 44.0692 67.0375 42.7616V17.3211C67.0375 15.7802 65.4965 14.0572 63.8184 14.0572H60.1921ZM76.2561 45.9365H80.3819L77.6615 28.4286L80.155 14.329H76.0292L74.5788 26.5701H74.3519V14.329H70.2718V45.9365H74.3519V31.3767H74.5788L76.2561 45.9365ZM83.0718 14.329V45.9365H87.1511V14.329H83.0718ZM96.279 18.2664V41.8107C96.279 42.3102 95.8252 42.6285 95.418 42.6285C95.0091 42.6285 94.5569 42.311 94.5569 41.8107V18.2664C94.5569 17.73 95.0091 17.5031 95.418 17.5031C95.8252 17.5031 96.279 17.7292 96.279 18.2664ZM93.6044 14.0572C91.9728 14.0572 90.4303 15.7802 90.4303 17.3211V42.7616C90.4303 44.0692 91.2464 45.9357 93.6044 45.9357H97.2764C99.5879 45.9357 100.451 44.0692 100.451 42.7616V17.3211C100.451 15.7802 98.908 14.0572 97.2307 14.0572H93.6044ZM106.177 45.3175V26.0274C106.177 24.0895 105.963 19.6117 106.005 15.5212H106.091C106.263 19.0954 106.952 25.3387 107.21 28.0077L108.975 45.3167H111.128L112.85 27.8353C113.153 24.5626 113.669 19.6109 114.056 15.5212H114.142C114.056 19.4394 113.97 24.0037 113.97 26.0274V45.3175H115.692V14.2296H112.85L110.869 32.9593C110.524 36.1463 110.266 40.2801 110.051 44.0259H109.965C109.832 40.3293 109.573 36.6384 109.19 32.9593L107.295 14.2296H104.453V45.3175H106.177ZM124.649 45.3175H126.371L122.798 14.2296H120.386L116.891 45.3175H118.449L119.397 36.2321H123.659L124.649 45.3175ZM119.569 34.9405L120.688 24.7357C121.032 21.6354 121.162 18.4492 121.506 15.3488H121.592C121.678 18.4917 122.109 21.6354 122.453 24.7357L123.529 34.9405H119.569ZM127.447 45.3175H129.169V29.9888H130.763C132.484 29.9888 133.131 31.0664 133.131 32.2281V45.3175H134.853V32.2281C134.853 30.3336 133.734 29.5583 132.183 29.4292V29.3434C134.378 29.171 134.853 27.9652 134.853 26.2863V17.1151C134.853 15.1772 133.389 14.2304 131.322 14.2304H127.446L127.447 45.3175ZM129.17 28.6972V15.522H131.023C132.401 15.522 133.132 16.1249 133.132 17.4598V26.6303C133.132 28.0085 132.315 28.6972 130.851 28.6972H129.17ZM137.955 45.3175H139.676V14.2296H137.955V45.3175ZM142.648 45.3175H144.37V24.5642C144.37 23.5307 144.153 19.5692 144.068 15.522H144.153C144.628 19.6125 145.101 23.8322 145.359 25.511L148.374 45.3183H150.958V14.2296H149.236V34.0369C149.236 35.7157 149.451 39.7197 149.666 44.0259H149.58C149.02 40.2801 148.503 36.7492 148.159 34.295L145.233 14.2296H142.648L142.648 45.3175ZM153.798 45.3175H160V44.0259H155.521V29.9888H159.44V28.6972H155.521V15.522H159.698V14.2296H153.798V45.3175Z" fill="#818592"/>
<path fill-rule="evenodd" clip-rule="evenodd" d="M10 14.0166H42.196V29.7703H35.992L26.0984 14.5297L16.2048 29.7695H10V14.0166ZM18.1065 29.9996H34.0895V45.9825H18.1065V29.9996Z" fill="#818592"/>
</svg>
