<svg width="170" height="60" viewBox="0 0 170 60" fill="none" xmlns="http://www.w3.org/2000/svg">
<path fill-rule="evenodd" clip-rule="evenodd" d="M26.8071 10.6924C16.1442 10.6924 7.5 19.3366 7.5 29.9995C7.5 34.4021 8.97422 38.4591 11.4547 41.7069L27.5054 20.6142L25.7797 20.6171H24.0632C22.2302 20.6171 20.5131 20.7439 19.2755 20.9868C18.5235 21.1342 17.8527 21.4073 17.3075 21.789C16.6664 22.2376 15.8648 23.1918 15.3425 24.1272C15.2819 24.2357 15.1945 24.4015 15.0814 24.6237L14.1414 24.4169L15.715 18.356H35.8192L19.8457 39.715C20.8845 39.6236 21.2982 39.603 22.1393 39.6036C22.7879 39.6036 23.7712 39.643 25.0889 39.7219L27.927 39.8904C28.9516 39.9516 29.8155 39.983 30.4704 39.983C31.9366 39.983 32.8897 39.8693 33.8319 39.5819C34.5683 39.3571 35.2654 39.0198 35.8987 38.5819C37.018 37.8094 38.1106 36.5643 38.7625 35.3175C38.8282 35.1918 38.9311 35.001 39.0528 34.7444L39.9031 34.9644C39.6294 36.0221 39.4791 36.4255 39.0562 37.3723C38.198 39.2905 37.2295 40.5744 35.897 41.5606C34.5285 42.5726 33.012 43.0714 31.2206 43.0989L30.948 43.1006C29.6213 43.1006 28.5933 42.9897 25.4169 42.5035C22.1833 42.0075 20.5394 41.8401 18.9143 41.8401C17.8258 41.8401 16.8144 41.9201 15.7693 42.0892C14.382 42.3138 13.8391 42.4755 12.5792 43.0503C16.1082 46.8964 21.1759 49.3077 26.8071 49.3077C37.4706 49.3077 46.1142 40.6636 46.1142 30.0006C46.1142 19.3366 37.4706 10.6924 26.8071 10.6924Z" fill="#818592"/>
<path fill-rule="evenodd" clip-rule="evenodd" d="M73.3642 20.5333H58.5837L56.7678 24.5445C57.3735 24.2222 57.6141 24.108 58.1449 23.8971C59.0029 23.5573 59.8931 23.3054 60.8019 23.1451C61.5762 23.0103 62.2904 22.9474 63.4509 22.9154C63.937 22.9008 64.4234 22.8934 64.9097 22.8932H67.0982L55.5987 39.3244H71.8528L73.7282 35.0377C73.0756 35.4126 72.8425 35.5343 72.3437 35.76C71.374 36.195 70.3541 36.5077 69.3072 36.6908C68.4695 36.8382 67.5256 36.9205 66.3525 36.9508C65.9599 36.9611 65.4594 36.9651 64.8491 36.9651H61.9693L73.3642 20.5333ZM122.215 39.3244C121.924 39.069 121.821 38.953 121.634 38.6627C121.518 38.4821 121.421 38.2899 121.344 38.089C121.184 37.6616 121.084 37.0308 121.084 36.4371V25.1176L121.091 24.016C121.1 22.7572 121.132 22.412 121.292 21.9023C121.356 21.7001 121.446 21.5029 121.561 21.3144C121.756 20.9938 121.888 20.8481 122.268 20.5333H116.232C116.627 20.8727 116.752 21.0064 116.932 21.2778C117.059 21.4686 117.157 21.6738 117.223 21.8869C117.363 22.3435 117.406 22.7943 117.416 23.9114C117.422 24.4839 117.424 24.8611 117.424 25.0428V36.2954C117.424 36.9536 117.309 37.657 117.126 38.1113C117.049 38.3044 116.948 38.4884 116.828 38.6627C116.686 38.8678 116.587 38.9821 116.256 39.3244H122.215ZM141.089 20.7035C140.714 20.577 140.331 20.4753 139.943 20.399C138.863 20.1693 137.821 20.0641 136.64 20.0641C134.62 20.0641 132.875 20.3876 131.28 21.0607C130.352 21.4494 129.483 21.9655 128.698 22.5943C126.381 24.4605 125.123 27.1621 125.123 30.2745C125.123 33.2955 126.337 35.9057 128.556 37.657C130.388 39.1033 132.742 39.8324 135.578 39.8324C137.346 39.8324 138.995 39.5689 140.851 38.9895L141.156 38.8924V35.476C140.706 35.7771 140.552 35.8754 140.278 36.0343C139.916 36.244 139.531 36.4359 139.123 36.6079C137.991 37.0868 136.958 37.3079 135.845 37.3079C133.897 37.3079 132.236 36.6125 131.004 35.2834C129.787 33.9686 129.128 32.1419 129.128 30.0774C129.128 28.1066 129.739 26.2816 130.826 25.0062C131.307 24.4447 131.884 23.9734 132.53 23.6143C133.592 23.0183 134.827 22.7126 136.165 22.7126C137.313 22.7126 138.427 22.936 139.54 23.3903C140.235 23.6737 140.488 23.8131 141.088 24.2394L141.089 20.7035ZM157.566 35.3806C157.566 36.3982 157.551 36.7691 157.484 37.2936C157.45 37.5709 157.383 37.843 157.283 38.1039C157.147 38.4553 156.925 38.777 156.605 39.0861C156.549 39.1421 156.463 39.221 156.345 39.325H162.351C162.1 39.077 162.009 38.9735 161.845 38.7444C161.705 38.5527 161.587 38.3452 161.495 38.1262C161.314 37.6873 161.266 37.3559 161.249 36.4297C161.239 35.8737 161.235 35.5491 161.235 35.4543L161.249 25.1176V24.0005C161.249 23.1749 161.316 22.5372 161.458 22.0138C161.523 21.7704 161.624 21.5372 161.755 21.3218C161.953 20.9972 162.095 20.8464 162.5 20.5327H156.368C156.72 20.8264 156.842 20.9635 157.052 21.2984C157.188 21.5161 157.293 21.7361 157.364 21.9532C157.509 22.3937 157.565 22.9417 157.565 23.9263V28.4952H149.141V25.0645C149.141 24.0268 149.157 23.3457 149.193 22.8389C149.21 22.5607 149.26 22.2855 149.343 22.0195C149.475 21.6132 149.815 21.0544 150.124 20.7327C150.191 20.6638 150.26 20.5967 150.331 20.5316H144.311C144.671 20.903 144.766 21.0138 144.929 21.2538C145.06 21.4458 145.168 21.6612 145.249 21.8932C145.415 22.3698 145.441 22.6263 145.457 23.8811L145.472 25.0719V35.3571C145.472 36.404 145.455 36.8616 145.397 37.3359C145.368 37.5828 145.306 37.8313 145.211 38.0805C145.057 38.489 144.836 38.8136 144.489 39.1375C144.444 39.1798 144.375 39.2427 144.281 39.3238H150.227C149.97 39.0558 149.879 38.9433 149.729 38.7067C149.612 38.5202 149.512 38.3234 149.431 38.1187C149.235 37.6256 149.175 37.2708 149.157 36.4737C149.147 36.0991 149.142 35.7244 149.141 35.3497V30.7951H157.566V35.3806ZM75.924 20.5333C76.2966 20.8367 76.4246 20.9784 76.6086 21.2921C76.7292 21.4961 76.8194 21.7172 76.8772 21.9469C76.948 22.2292 76.9874 22.5183 76.996 22.8097C77.0017 23.0171 77.0069 23.4068 77.0109 23.9782L77.0183 25.0651V30.4385C77.0183 32.3356 77.0331 32.9887 77.0926 33.7498C77.1988 35.0966 77.6263 36.2182 78.4102 37.2039C79.2039 38.2004 80.2798 38.9484 81.5804 39.4061C82.59 39.7621 83.7248 39.9386 85.0076 39.9386C86.4201 39.9386 87.8001 39.7244 88.8149 39.3472C89.8794 38.9524 90.9028 38.2656 91.613 37.4725C92.4804 36.5028 92.9707 35.3274 93.1312 33.8321C93.2272 32.9384 93.2581 32.1344 93.2581 30.4682V25.0656L93.2507 24.0011L93.2501 23.8514C93.2501 22.9029 93.3278 22.3069 93.4204 21.9898C93.6152 21.3247 93.9552 20.9338 94.2632 20.6961C94.382 20.6047 94.418 20.5778 94.4775 20.5333H88.9114C89.14 20.875 89.2137 21.0212 89.3206 21.3515C89.392 21.5726 89.444 21.8092 89.4766 22.0589C89.5628 22.7263 89.5954 23.5743 89.5954 25.177V31.0116C89.5954 32.6344 89.5554 33.447 89.4394 34.1966C89.3685 34.6801 89.2041 35.1451 88.9554 35.5657C88.4812 36.3537 87.6521 36.9319 86.6407 37.1805C86.2039 37.2846 85.7561 37.3353 85.307 37.3313C84.3379 37.3313 83.5003 37.1302 82.7557 36.7199C82.2815 36.4588 81.8992 36.1251 81.6392 35.7457C81.1244 34.9926 80.973 34.2343 80.9547 32.3059L80.9324 29.9397V25.1765C80.9324 23.5748 80.9655 22.7057 81.0518 22.0583C81.1118 21.5801 81.2687 21.1191 81.5129 20.7035C81.5358 20.6658 81.5701 20.6087 81.6175 20.5327L75.924 20.5333ZM102.404 35.4623C102.404 35.8063 102.406 36.1205 102.411 36.4074C102.426 37.2759 102.49 37.7285 102.657 38.1416C102.737 38.3404 102.845 38.5324 102.977 38.7141C103.144 38.9427 103.223 39.0353 103.498 39.3244H97.5219C97.8705 39.0061 97.9784 38.8935 98.147 38.6696C98.2841 38.4879 98.3944 38.2867 98.4744 38.0747C98.6293 37.6627 98.6898 37.1496 98.6898 36.2577V23.9263C98.6898 22.9297 98.6356 22.3458 98.5041 21.9241C98.4274 21.6816 98.3172 21.451 98.1767 21.2389C97.9985 20.9687 97.879 20.835 97.5442 20.5327H102.397C102.996 20.5327 103.576 20.5407 104.138 20.555C105.634 20.5938 106.51 20.6835 107.353 20.8818C108.553 21.1641 109.63 21.7612 110.404 22.5715C111.246 23.452 111.678 24.5011 111.678 25.657C111.677 26.1482 111.599 26.6362 111.446 27.1032C111.172 27.9512 110.706 28.6243 109.965 29.2471C109.311 29.7963 108.594 30.2117 107.651 30.5865C107.319 30.7179 107.179 30.7671 106.817 30.8768L109.734 34.3075C110.088 34.724 110.546 35.236 111.104 35.8411C111.983 36.7942 112.57 37.3959 113.232 38.0216C113.518 38.2919 113.789 38.537 114.043 38.7581C114.287 38.969 114.412 39.0718 114.729 39.3238H112.37C112.022 39.3238 111.696 39.3193 111.394 39.3084C110.578 39.2827 110.068 39.1621 109.526 38.8696C108.896 38.529 108.256 38.0227 107.584 37.3296C107.271 36.9997 106.965 36.6623 106.668 36.3177C106.405 36.0175 106.144 35.7146 105.887 35.4091L102.404 31.2339V35.4623ZM102.709 29.6597C102.979 29.6597 103.307 29.6306 103.692 29.5751C104.703 29.4277 105.387 29.206 106.059 28.8083C106.386 28.6195 106.682 28.3813 106.937 28.1021C107.418 27.5598 107.668 26.8375 107.668 25.9839C107.668 25.0028 107.337 24.216 106.699 23.6737C106.328 23.3603 105.894 23.1293 105.426 22.996C104.717 22.792 103.82 22.68 102.894 22.68C102.741 22.68 102.641 22.6823 102.405 22.6903V29.65C102.55 29.6574 102.614 29.6597 102.709 29.6597Z" fill="#818592"/>
<path fill-rule="evenodd" clip-rule="evenodd" d="M83.5135 23.5422C84.2957 23.5422 84.9306 22.8782 84.9306 22.0589C84.9306 21.2395 84.2957 20.5755 83.5135 20.5755C82.7312 20.5755 82.097 21.2395 82.097 22.0589C82.097 22.8782 82.7312 23.5422 83.5135 23.5422ZM87.0905 23.5422C87.8733 23.5422 88.5075 22.8782 88.5075 22.0589C88.5075 21.2395 87.8733 20.5755 87.0905 20.5755C86.3082 20.5755 85.674 21.2395 85.674 22.0589C85.674 22.8782 86.3082 23.5422 87.0905 23.5422Z" fill="#818592"/>
</svg>
