<svg width="270" height="70" viewBox="0 0 270 70" fill="none" xmlns="http://www.w3.org/2000/svg">
<path d="M95.689 44.4132V24.6719H100.945L107.601 39.3157L114.161 24.6723H119.192V44.4132H114.86V33.1133L109.86 44.4132H105.243L100.182 33.1718V44.4132H95.689ZM126.26 44.4132H121.163L129.92 24.6719H136.197L145.014 44.4132H139.983L138.248 40.4647L127.941 40.4955L126.26 44.4132ZM136.624 36.7715L133.042 28.6177L129.541 36.7715H136.624ZM147.084 44.4132V24.6719H165.944V28.6181H151.639V32.5696H163.904V36.4866H151.639V40.4673H165.944V44.4132H147.084Z" fill="#818592"/>
<path d="M169.604 44.4132V24.6718H185.75C185.75 24.6718 186.79 24.5543 187.888 25.6229C188.873 26.5787 188.71 27.9817 188.71 27.9817V34.615C188.71 34.615 188.904 35.8332 187.741 36.8755C186.619 37.8804 184.986 37.6624 184.986 37.6624L188.743 44.4132H183.808L180.079 37.6624H174.223V44.4132H169.604ZM174.224 33.7153H184.126V28.6189H174.224V33.7153ZM197.015 44.4132H195.451C195.451 44.4132 194.078 44.3869 193.299 43.5649C192.397 42.6091 192.428 41.5154 192.428 41.5154V38.9362H197.015V40.4678H206.759V36.485H195.576C195.576 36.485 194.198 36.6248 193.348 35.752C192.404 34.7857 192.506 33.6206 192.506 33.6206V27.6982C192.506 27.6982 192.487 26.7026 193.157 25.8182C194.121 24.5461 195.609 24.673 195.609 24.673L208.385 24.6823C208.385 24.6823 209.427 24.6087 210.447 25.5972C211.566 26.6757 211.307 27.825 211.307 27.825V30.1815H206.754V28.6201H197.01V32.5695H208.155C208.155 32.5695 209.463 32.4736 210.383 33.5247C211.307 34.5764 211.307 35.7526 211.307 35.7526V41.3254C211.307 41.3254 211.457 42.4191 210.581 43.4124C209.588 44.5441 208.252 44.4143 208.252 44.4143H197.011" fill="#818592"/>
<path d="M215.674 44.4072V24.6602H220.351V32.5575L229.266 24.6602H235.609L224.975 33.8323L235.989 44.4072H229.43L220.351 35.422V44.4072H215.674Z" fill="#818592"/>
<path fill-rule="evenodd" clip-rule="evenodd" d="M77.4417 16.9614C77.4318 14.3124 75.3922 11.7397 72.2264 11.753L39.3832 11.7325C36.6285 11.7173 34.152 14.027 34.1542 16.9614L34.1527 52.1011C34.1527 54.83 36.3128 57.3434 39.3695 57.3491H72.2025C75.1829 57.3403 77.436 54.9687 77.4512 52.1209L77.4417 16.9614ZM71.1197 22.5086L58.9558 28.2482L58.952 28.2478L55.7858 15.1431H55.6996L52.5122 28.2022L40.3361 22.4622C40.3271 22.4739 40.3175 22.4843 40.3084 22.4941C40.2789 22.5258 40.2546 22.552 40.2734 22.599L48.7126 33.0987L48.6275 33.1849L36.3831 39.0791C36.3831 39.1168 36.3831 39.1536 36.4332 39.1916L49.9007 39.2273L46.8581 52.6823C46.9078 52.7195 46.9329 52.7195 46.9823 52.6815L55.7167 41.8824H55.8292L64.654 52.6671L64.7406 52.5911L61.6546 39.184L75.1483 39.1707C75.2327 39.1095 75.1711 39.0598 75.1088 39.0233L62.8211 33.0846L71.2321 22.5694C71.2186 22.565 71.2064 22.552 71.1938 22.5387C71.1726 22.5161 71.1505 22.4926 71.1197 22.5086Z" fill="#818592"/>
</svg>
