<svg width="269" height="70" viewBox="0 0 269 70" fill="none" xmlns="http://www.w3.org/2000/svg">
<path d="M188.709 53.5951L183.361 47.5973L178.06 53.5951H166.906L177.808 41.3469L166.906 29.0952H178.409L183.811 35.0469L189.009 29.0952H200.109L189.262 41.2955L200.26 53.5951H188.709ZM145.486 53.5951V15H166.906V23.6028H154.559V29.0952H166.906V37.3731H154.559V44.9707H166.906V53.5951H145.486Z" fill="#818592"/>
<path d="M135.754 15V30.7952H135.654C133.653 28.4961 131.153 27.6948 128.254 27.6948C122.313 27.6948 117.837 31.7363 116.266 37.0753C114.474 31.1913 109.854 27.5847 103.003 27.5847C97.4385 27.5847 93.046 30.0814 90.7514 34.1509V29.0943H79.2513V23.6037H91.8026V15.0018H69V53.5951H79.2513V37.3731H89.4692C89.1545 38.6206 88.9971 39.9025 89.0009 41.189C89.0009 49.236 95.1502 54.8908 103.001 54.8908C109.601 54.8908 113.954 51.7895 116.254 46.1437H107.468C106.28 47.8428 105.378 48.3445 103.002 48.3445C100.248 48.3445 97.8716 45.9407 97.8716 43.0947H115.761C116.537 49.4877 121.518 55 128.354 55C131.303 55 134.002 53.55 135.653 51.1002H135.752V53.6005H144.791V15.0018H135.754V15ZM98.1568 37.4886C98.7279 35.0361 100.629 33.4336 103.002 33.4336C105.615 33.4336 107.42 34.9865 107.894 37.4886H98.1568ZM130.269 47.7219C126.938 47.7219 124.868 44.6188 124.868 41.3776C124.868 37.9127 126.669 34.584 130.269 34.584C134.003 34.584 135.491 37.9145 135.491 41.3776C135.491 44.6603 133.916 47.7219 130.269 47.7219Z" fill="#818592"/>
</svg>
