<svg width="270" height="70" viewBox="0 0 270 70" fill="none" xmlns="http://www.w3.org/2000/svg">
<path d="M132.694 33.542C131.723 33.4335 130.727 34.3652 130.727 35.4361C130.726 36.4731 131.636 37.345 132.65 37.3695C133.838 37.3983 134.654 36.3488 134.671 35.4795C134.69 34.4435 133.716 33.4283 132.694 33.5421L132.694 33.542ZM145.808 34.2709V33.8998C145.808 30.3567 145.808 26.8138 145.809 23.2707C145.809 23.1693 145.804 23.0647 145.826 22.9667C145.902 22.6206 146.204 22.3752 146.569 22.3694C147.027 22.3621 147.486 22.3598 147.944 22.37C148.386 22.3799 148.667 22.6672 148.68 23.0981C148.682 23.2001 148.681 23.3021 148.681 23.404C148.681 26.8196 148.681 30.2351 148.681 33.6506C148.681 34.0768 148.681 34.0776 149.103 34.0776L163.866 34.0776C164.277 34.0776 164.277 34.0766 164.277 33.6658V23.3681C164.277 23.2831 164.276 23.1982 164.278 23.1132C164.289 22.6697 164.574 22.3787 165.028 22.3697C165.477 22.3614 165.927 22.3612 166.377 22.3692C166.827 22.3763 167.137 22.6868 167.15 23.1275C167.152 23.1953 167.15 23.2635 167.15 23.3315C167.15 31.4454 167.146 39.5595 167.158 47.6735C167.159 48.358 166.804 48.6773 166.171 48.6369C165.817 48.6144 165.461 48.6242 165.107 48.6349C164.637 48.6494 164.27 48.368 164.272 47.8198C164.283 44.2004 164.277 40.581 164.278 36.9617C164.278 36.4574 164.298 36.5052 163.816 36.5052C158.912 36.5045 154.008 36.5047 149.104 36.505C148.678 36.5051 148.68 36.4671 148.68 36.9228C148.681 40.4911 148.681 44.0597 148.681 47.6282C148.681 47.7217 148.682 47.8151 148.68 47.9086C148.669 48.3358 148.406 48.6166 147.972 48.629C147.496 48.6418 147.02 48.6421 146.545 48.6297C146.121 48.6195 145.821 48.3082 145.809 47.8921C145.806 47.8157 145.808 47.7392 145.808 47.6627V36.9C145.662 36.8897 145.538 36.8734 145.413 36.8734C143.112 36.8717 140.812 36.8721 138.512 36.8721C138.019 36.8721 137.526 36.878 137.033 36.8695C136.828 36.8659 136.715 36.9236 136.623 37.1265C136.118 38.2449 135.28 39.0238 134.095 39.4252C132.048 40.119 129.846 39.2099 128.891 37.3792C127.889 35.4564 128.486 33.145 130.324 31.9323C131.178 31.3686 132.132 31.1434 133.16 31.2616C134.695 31.438 135.805 32.2221 136.528 33.5497C136.629 33.7359 136.707 33.9361 136.78 34.1353C136.823 34.2526 136.894 34.2963 137.012 34.2916C137.072 34.2891 137.133 34.2918 137.193 34.2918C139.935 34.2918 142.676 34.292 145.418 34.2909C145.536 34.2909 145.654 34.2792 145.808 34.2709ZM207.006 27.5197V47.6516C207.006 47.7365 207.008 47.8217 207.005 47.9065C206.989 48.3318 206.721 48.6151 206.292 48.6293C205.868 48.6423 205.444 48.6425 205.021 48.6298C204.591 48.6178 204.3 48.3124 204.29 47.8906C204.289 47.8226 204.29 47.7546 204.29 47.6866L204.29 22.9103C204.29 22.2501 204.536 22.0095 205.211 22.0088C205.34 22.0087 205.472 22.0229 205.599 22.0056C205.824 21.9754 205.965 22.0694 206.101 22.2379C207.263 23.6731 208.434 25.1016 209.601 26.5329C210.974 28.2159 212.344 29.9006 213.718 31.5823C214.93 33.0657 216.147 34.5446 217.359 36.0281C218.586 37.5312 219.809 39.038 221.035 40.5423C221.683 41.3377 222.333 42.1317 222.985 42.9244C223.045 42.9982 223.123 43.0586 223.224 43.1544C223.253 43.0493 223.276 42.9967 223.28 42.9426C223.288 42.8497 223.283 42.7559 223.283 42.6624V23.3921C223.283 23.2987 223.282 23.2052 223.284 23.1117C223.293 22.6867 223.579 22.3839 224.01 22.3707C224.425 22.3581 224.841 22.3592 225.255 22.3704C225.677 22.3816 225.98 22.6909 225.998 23.1056C226.001 23.1734 225.999 23.2415 225.999 23.3095V48.1112C225.999 48.1706 226.001 48.2301 225.999 48.2896C225.986 48.6852 225.75 48.9394 225.35 48.9879C225.324 48.991 225.298 48.9901 225.272 48.991C224.664 49.0165 224.661 49.019 224.28 48.5515C222.994 46.9742 221.712 45.3943 220.426 43.8168C219.27 42.3984 218.111 40.9825 216.956 39.5639C215.67 37.9865 214.388 36.4066 213.103 34.8292C211.952 33.4177 210.799 32.0085 209.648 30.5976C208.848 29.6172 208.05 28.6351 207.25 27.6548C207.2 27.5936 207.139 27.5415 207.082 27.4853L207.006 27.5197ZM63.9694 23.3388C63.9694 23.2623 63.9673 23.1857 63.9702 23.1094C63.9859 22.6972 64.2912 22.3813 64.71 22.3707C65.1767 22.3588 65.6441 22.3593 66.111 22.3703C66.5474 22.3807 66.8298 22.6749 66.8411 23.1057C66.8438 23.2075 66.8421 23.3096 66.8421 23.4116C66.8421 26.8271 66.8421 30.2426 66.8424 33.6582C66.8424 34.0769 66.8428 34.0776 67.2721 34.0776C72.1845 34.0778 77.0969 34.0778 82.0092 34.0776C82.4384 34.0776 82.4389 34.0769 82.4389 33.6581V23.3858C82.4389 23.2839 82.437 23.1819 82.4407 23.0801C82.4551 22.6808 82.734 22.385 83.1441 22.3719C83.6279 22.3565 84.113 22.3557 84.5969 22.3723C84.9892 22.3855 85.2873 22.6999 85.3104 23.0841C85.314 23.1434 85.3117 23.2031 85.3117 23.2625V47.7321C85.3117 47.7747 85.3124 47.8171 85.3115 47.8596C85.3022 48.3247 85.003 48.6253 84.5313 48.6315C84.0902 48.6372 83.6491 48.6341 83.208 48.6323C82.6912 48.6301 82.4325 48.2755 82.4352 47.8641C82.4453 46.3432 82.439 44.8224 82.439 43.3015L82.4389 36.9037C82.4389 36.5054 82.4383 36.5049 82.0478 36.5048L67.2329 36.5048C66.8429 36.5049 66.8424 36.5054 66.8424 36.9042C66.8421 40.5151 66.8424 44.1261 66.8413 47.7371C66.8413 47.864 66.8472 47.9956 66.8166 48.1168C66.7398 48.4228 66.4715 48.6232 66.1239 48.63C65.6484 48.6393 65.1723 48.6425 64.697 48.6293C64.2717 48.6173 63.9811 48.3072 63.97 47.885C63.9678 47.8085 63.9694 47.732 63.9694 47.6556L63.9694 23.3388ZM187.203 39.7369C187.155 39.6029 187.135 39.5314 187.105 39.4646C186.876 38.9608 186.644 38.4589 186.416 37.9549C185.659 36.2803 184.904 34.6048 184.147 32.9305C183.427 31.3412 182.707 29.7525 181.985 28.1642C181.883 27.9394 181.769 27.7199 181.673 27.493C181.618 27.3657 181.525 27.3455 181.404 27.3446C181.232 27.3435 181.198 27.4751 181.146 27.5889C180.611 28.7666 180.078 29.9449 179.543 31.1226C178.949 32.4322 178.354 33.7414 177.759 35.0507C177.094 36.5148 176.429 37.979 175.765 39.4435C175.731 39.5176 175.707 39.5956 175.655 39.7367C179.518 39.7371 183.33 39.7368 187.203 39.7369ZM192.463 48.6328C192.246 48.6328 192.03 48.6295 191.814 48.6335C191.436 48.6407 191.173 48.4833 191.021 48.1361C190.813 47.6605 190.594 47.1894 190.379 46.7168C189.886 45.632 189.392 44.5476 188.899 43.4629C188.712 43.0521 188.52 42.6436 188.344 42.2288C188.274 42.0654 188.182 42.0009 187.994 42.0012C183.61 42.0063 179.226 42.0065 174.842 42.0007C174.643 42.0005 174.551 42.0753 174.476 42.2435C173.733 43.9151 172.983 45.5841 172.235 47.2537C172.099 47.5565 171.958 47.8571 171.826 48.1617C171.689 48.4816 171.44 48.6295 171.096 48.6319C170.638 48.6348 170.18 48.6346 169.721 48.6313C169.645 48.6308 169.568 48.6115 169.492 48.6019C169.118 48.5546 168.822 48.1837 169.028 47.7096C169.156 47.413 169.296 47.1211 169.431 46.8274C170.004 45.5822 170.577 44.3371 171.15 43.0921C171.716 41.8628 172.283 40.6339 172.848 39.4042C173.406 38.1899 173.961 36.9741 174.52 35.7603C175.279 34.1137 176.042 32.469 176.8 30.8221C177.234 29.8788 177.66 28.9318 178.094 27.9883C178.71 26.6504 179.329 25.3143 179.946 23.9771C180.174 23.4823 180.407 22.9894 180.625 22.49C180.769 22.1582 181.021 22.0135 181.374 22.009C181.435 22.0082 181.495 22.0093 181.556 22.0088C181.9 22.0054 182.153 22.143 182.297 22.461C182.518 22.9496 182.745 23.4355 182.968 23.9233C183.46 24.9993 183.95 26.0759 184.441 27.1523C184.957 28.2831 185.471 29.4144 185.989 30.5445C186.669 32.0305 187.353 33.5149 188.033 35.0011C188.468 35.9532 188.898 36.9077 189.332 37.8602C189.883 39.0683 190.437 40.2752 190.989 41.4827C191.499 42.5974 192.008 43.7122 192.518 44.8268C192.929 45.7247 193.343 46.6209 193.748 47.5215C193.816 47.6736 193.869 47.8419 193.881 48.0061C193.903 48.2933 193.748 48.4998 193.467 48.5756C193.311 48.6174 193.144 48.6225 192.981 48.6308C192.809 48.6397 192.636 48.6329 192.463 48.6328ZM102.239 30.7603C102.239 32.5275 102.238 34.2947 102.239 36.0619C102.239 36.3713 102.25 36.3814 102.557 36.3815C104.537 36.3818 106.518 36.3889 108.498 36.3743C108.892 36.3714 109.291 36.3138 109.676 36.2303C110.234 36.1091 110.763 35.8963 111.26 35.6125C112.371 34.9779 113.19 34.0845 113.714 32.9334C114.09 32.1058 114.247 31.2351 114.205 30.3291C114.17 29.5531 113.963 28.824 113.59 28.1406C113.091 27.2267 112.372 26.5181 111.465 25.9966C110.578 25.4861 109.62 25.1886 108.586 25.184C106.596 25.1751 104.607 25.1783 102.618 25.1769C102.24 25.1767 102.239 25.1775 102.239 25.5607C102.239 27.2938 102.239 29.0271 102.239 30.7603ZM102.261 39.0991C102.253 39.2542 102.24 39.3784 102.24 39.503C102.238 42.2047 102.239 44.9063 102.239 47.6079C102.239 47.7099 102.241 47.8118 102.237 47.9137C102.222 48.3313 101.945 48.6179 101.517 48.6296C101.059 48.6421 100.601 48.641 100.143 48.63C99.7079 48.6194 99.4262 48.3247 99.4143 47.8938C99.4124 47.8259 99.4138 47.7579 99.4138 47.6899C99.4138 39.568 99.4181 31.4461 99.406 23.3241C99.4049 22.6345 99.7667 22.3562 100.397 22.3604C103.008 22.3774 105.62 22.3712 108.232 22.365C108.961 22.3633 109.685 22.4344 110.393 22.582C111.258 22.7623 112.077 23.081 112.843 23.5246C114.096 24.2502 115.112 25.2128 115.868 26.4336C116.533 27.5088 116.933 28.6723 117.04 29.9316C117.119 30.8623 117.056 31.7789 116.828 32.6865C116.519 33.9191 115.955 35.0266 115.14 36.0074C114.399 36.8985 113.509 37.6155 112.468 38.1483C111.586 38.5989 110.661 38.9133 109.668 39.0081C109.187 39.0537 108.704 39.0926 108.221 39.0951C106.345 39.105 104.468 39.0991 102.592 39.0991H102.261Z" fill="#818592"/>
<path d="M122.17 35.4995C122.179 37.7079 122.794 39.7406 124.026 41.5859C124.852 42.8221 125.898 43.8498 127.157 44.6623C127.887 45.1334 128.675 45.5121 129.501 45.7896C130.295 46.0568 131.114 46.2156 131.953 46.2933C132.829 46.3746 133.699 46.3395 134.562 46.2142C135.612 46.0622 136.606 45.7251 137.547 45.2388C138.445 44.775 139.267 44.2 140.078 43.6057C140.276 43.46 140.463 43.2859 140.744 43.3054C140.895 43.316 141.027 43.3437 141.145 43.4509C141.468 43.7456 141.8 44.031 142.128 44.3202C142.493 44.6415 142.509 45.0623 142.147 45.4008C141.847 45.6818 141.537 45.9536 141.214 46.2093C140.24 46.9818 139.166 47.5945 138.008 48.0571C137.142 48.4028 136.244 48.6425 135.322 48.8023C134.442 48.955 133.555 49.0162 132.666 48.9964C131.838 48.978 131.012 48.9076 130.196 48.7446C128.632 48.4325 127.166 47.886 125.796 47.0808C124.827 46.5111 123.94 45.8398 123.143 45.055C122.034 43.9629 121.138 42.7214 120.464 41.326C119.904 40.1669 119.516 38.9534 119.321 37.6868C119.144 36.5332 119.091 35.3734 119.222 34.205C119.336 33.1868 119.535 32.1919 119.866 31.2206C120.42 29.5892 121.265 28.1199 122.389 26.8037C123.218 25.834 124.17 24.9994 125.238 24.2946C126.093 23.7296 127.005 23.2684 127.968 22.9022C128.866 22.5608 129.794 22.3366 130.737 22.1662C131.084 22.1035 131.44 22.0799 131.793 22.0535C132.172 22.0253 132.552 21.9915 132.931 22.0019C133.509 22.0176 134.087 22.0604 134.664 22.1076C135.458 22.1727 136.233 22.3493 136.993 22.5754C137.904 22.8465 138.771 23.2295 139.596 23.6991C140.473 24.1984 141.285 24.7869 142.066 25.4216C142.377 25.6749 142.538 26.1765 142.131 26.5539C141.768 26.892 141.423 27.2508 141.068 27.5982C140.879 27.783 140.632 27.8011 140.416 27.6372C140.184 27.4608 139.964 27.2682 139.733 27.0907C138.591 26.2145 137.328 25.5608 135.948 25.1315C134.88 24.7992 133.786 24.6084 132.661 24.6336C132.125 24.6457 131.596 24.7153 131.066 24.8029C130.223 24.9419 129.401 25.1869 128.621 25.5321C126.956 26.2675 125.569 27.3563 124.469 28.7852C123.344 30.246 122.621 31.8818 122.324 33.6984C122.226 34.294 122.175 34.8962 122.17 35.4995ZM52.2571 24.4762C51.2879 24.4606 50.3433 24.6023 49.4668 25.0258C47.9909 25.7391 47.1309 26.8991 47.0347 28.525C46.9696 29.6207 47.3579 30.5947 48.1005 31.4238C48.6736 32.0637 49.3726 32.5446 50.1178 32.9649C50.9883 33.4558 51.9139 33.8298 52.8382 34.2103C54.2961 34.8104 55.7399 35.4432 57.071 36.2946C57.9307 36.8443 58.7231 37.4691 59.3577 38.2708C60.1277 39.2436 60.5468 40.3445 60.6536 41.5735C60.7102 42.2239 60.6925 42.8663 60.5567 43.5008C60.2965 44.7158 59.6849 45.7456 58.7913 46.6159C57.9165 47.4677 56.8813 48.07 55.7255 48.4673C54.9167 48.7453 54.0819 48.9046 53.2229 48.9718C52.4234 49.0344 51.6334 48.9713 50.8434 48.895C50.4504 48.8571 50.0607 48.7641 49.676 48.67C48.4275 48.3648 47.254 47.8787 46.1542 47.2213C45.4958 46.8279 44.884 46.3747 44.304 45.875C43.9031 45.5296 43.9451 45.1077 44.1633 44.8033C44.4165 44.4498 44.6962 44.1132 44.9827 43.7846C45.1917 43.5449 45.4624 43.4058 45.7894 43.5385C45.9288 43.595 46.0544 43.6972 46.1693 43.7976C47.0733 44.5859 48.0629 45.247 49.1541 45.7588C49.7805 46.0526 50.4331 46.2797 51.1116 46.4135C51.98 46.5849 52.8513 46.6201 53.7347 46.4558C54.7907 46.2593 55.7226 45.8485 56.5059 45.1183C57.9044 43.8147 58.1071 41.6817 56.9869 40.1392C56.5375 39.52 55.9658 39.0348 55.34 38.6034C54.574 38.0753 53.7552 37.6366 52.9051 37.2555C51.8608 36.7873 50.8075 36.3385 49.7663 35.8638C48.627 35.3446 47.5323 34.7474 46.5727 33.94C45.6186 33.137 44.9224 32.1624 44.5856 30.9587C44.3265 30.0324 44.1986 29.0888 44.3154 28.1331C44.5605 26.1299 45.5464 24.556 47.2289 23.4037C48.0188 22.8625 48.8936 22.5185 49.8252 22.2938C50.4578 22.1413 51.099 22.0804 51.7454 22.0343C52.8057 21.9589 53.8469 22.0719 54.8817 22.2914C56.3055 22.5934 57.63 23.1316 58.8646 23.8883C59.3196 24.1671 59.4397 24.6159 59.1687 25.0735C58.9993 25.3594 58.8174 25.6391 58.6292 25.9137C58.298 26.3962 57.9251 26.4781 57.4048 26.1985C56.8518 25.9013 56.3064 25.5889 55.7419 25.3144C54.87 24.8902 53.9471 24.6095 52.982 24.4809C52.7445 24.4493 52.4988 24.4762 52.2571 24.4762ZM198.756 35.5116L198.756 47.6028C198.756 47.7134 198.76 47.8242 198.753 47.9345C198.73 48.3402 198.458 48.6277 198.047 48.6414C197.555 48.6575 197.061 48.6563 196.569 48.642C196.154 48.63 195.866 48.3324 195.839 47.921C195.834 47.8533 195.837 47.7849 195.837 47.7169C195.837 39.5796 195.837 31.4422 195.839 23.3049C195.839 23.1788 195.843 23.0484 195.875 22.9275C195.967 22.5773 196.24 22.3639 196.608 22.3577C197.075 22.3498 197.542 22.3481 198.009 22.3581C198.432 22.3672 198.733 22.671 198.754 23.0888C198.759 23.1906 198.756 23.2929 198.756 23.3949V35.5115L198.756 35.5116ZM91.0049 23.409C91.0049 23.2984 91.0081 23.188 91.0066 23.0774C91.0006 22.6111 91.4185 22.3644 91.7326 22.3584C92.2165 22.3492 92.7011 22.3449 93.1847 22.3595C93.5954 22.3718 93.8877 22.6833 93.901 23.0877C93.9038 23.1726 93.9024 23.2576 93.9024 23.3427L93.9024 47.6771C93.9024 47.7621 93.9038 47.8473 93.9007 47.9323C93.8857 48.3324 93.6097 48.6281 93.1998 48.6414C92.6989 48.6573 92.1964 48.6616 91.6959 48.6397C91.3184 48.6232 91.0063 48.346 91.0074 47.9476C91.0076 47.837 91.0049 47.7264 91.0049 47.616L91.0049 23.409Z" fill="#818592"/>
</svg>
