<svg width="270" height="70" viewBox="0 0 270 70" fill="none" xmlns="http://www.w3.org/2000/svg">
<path fill-rule="evenodd" clip-rule="evenodd" d="M110.713 20.5977H103.416V43.946H120.673V37.847H110.713V20.5977Z" fill="#818592"/>
<path fill-rule="evenodd" clip-rule="evenodd" d="M138.792 35.0927C138.621 30.0034 134.938 26.5557 129.665 26.5557C124.193 26.5557 120.419 30.2371 120.419 35.532C120.419 40.827 124.158 44.4749 129.594 44.4749C134.96 44.4749 138.751 40.8378 138.803 35.5699C138.798 35.4314 138.789 35.2994 138.789 35.1576C138.79 35.136 138.792 35.1143 138.792 35.0927ZM129.595 39.905C127.76 39.905 126.883 38.3737 126.883 35.5331C126.883 32.6936 127.725 31.1981 129.526 31.1981C131.431 31.1981 132.54 32.7163 132.54 35.5212C132.54 38.4657 131.466 39.905 129.595 39.905Z" fill="#818592"/>
<path fill-rule="evenodd" clip-rule="evenodd" d="M150.481 29.0471C149.303 27.2226 148.139 26.5225 145.922 26.5225C141.611 26.5225 138.817 30.1801 138.791 35.0919C138.795 35.2153 138.808 35.3354 138.808 35.461C138.808 35.4967 138.804 35.5302 138.804 35.5681C138.948 40.3263 141.58 43.1485 145.922 43.1485C147.998 43.1485 149.27 42.5522 150.55 41.0459V42.8823C150.55 45.237 149.924 46.0865 147.998 46.0865C146.094 46.0865 145.737 45.3875 145.39 43.9352H139.378C139.904 48.2043 141.627 49.6273 147.963 49.6273C151.912 49.6273 154.278 48.6101 155.699 46.3657C156.494 45.1396 156.77 43.946 156.77 41.7731V27.0116H150.478V29.0471H150.481ZM147.895 38.7204C145.957 38.7204 145.081 37.4705 145.081 35.1201C145.081 33.0532 146.093 31.3034 147.895 31.3034C149.698 31.3034 150.678 33.1473 150.678 35.3906C150.677 37.4932 149.697 38.7204 147.895 38.7204Z" fill="#818592"/>
<path fill-rule="evenodd" clip-rule="evenodd" d="M164.701 37.8308C164.699 37.8048 164.695 37.7788 164.693 37.7518H164.701V27.0137H158.178V43.946H164.701V37.8308Z" fill="#818592"/>
<path fill-rule="evenodd" clip-rule="evenodd" d="M188.148 20.582L181.556 27.0121L181.591 38.3367C181.591 40.2662 181.727 40.896 182.213 41.8093C183.113 43.4921 184.927 44.1576 188.182 44.1576C189.29 44.1576 191.171 44.0862 192.764 43.9466V39.3897H192.523H190.604C188.456 39.3897 188.204 39.1105 188.145 37.075V31.8839H192.762V27.0121H188.145V20.582H188.148Z" fill="#818592"/>
<path d="M200.725 27.0137H194.2V43.946H200.725V27.0137Z" fill="#818592"/>
<path fill-rule="evenodd" clip-rule="evenodd" d="M209.939 39.7276C208.093 39.7276 207.18 38.2667 207.18 35.6728C207.18 32.7618 208.133 31.1613 209.974 31.1613C211.26 31.1613 212.135 32.0898 212.312 33.4587H218.498C218.22 29.3899 214.757 26.625 209.939 26.625C204.407 26.625 200.728 30.2372 200.728 35.6382C200.728 40.8628 204.443 44.3678 209.873 44.3678C214.793 44.3678 218.047 42.3107 218.639 37.7516H212.45C212.172 39.47 210.937 39.7276 209.939 39.7276Z" fill="#818592"/>
<path fill-rule="evenodd" clip-rule="evenodd" d="M228.958 33.0414C225.668 32.4462 225.31 32.2352 225.31 31.4301C225.31 30.7299 225.842 30.3198 227.052 30.3198C228.508 30.3198 228.969 30.6899 229.212 31.8835H235.084C234.742 28.1306 232.247 26.5215 226.878 26.5215C221.786 26.5215 218.984 28.4488 218.984 31.8846C218.984 33.5684 219.743 34.9719 221.098 35.7792C222.136 36.409 223.035 36.6904 225.977 37.3202C229.059 37.9857 229.209 38.3071 229.209 39.0256C229.209 39.8686 228.351 40.3935 227.19 40.3935C224.982 40.3935 224.892 39.2118 224.754 37.752H218.635C218.946 41.876 220.899 44.3682 227.119 44.3682C232.417 44.3682 235.534 42.1942 235.534 38.4424C235.534 37.6351 235.361 36.8657 235.052 36.1645C234.325 34.6202 232.558 33.7091 228.958 33.0414Z" fill="#818592"/>
<path fill-rule="evenodd" clip-rule="evenodd" d="M173.179 44.3681C178.475 44.3681 181.592 42.193 181.592 38.4433C181.592 37.6339 181.421 36.8645 181.109 36.1644C180.381 34.6212 178.615 33.7101 175.014 33.0424C171.725 32.4472 171.368 32.2362 171.368 31.4311C171.368 30.7309 171.898 30.3208 173.109 30.3208C174.563 30.3208 175.028 30.7504 175.269 31.8845H181.142C180.796 28.19 178.304 26.5225 172.937 26.5225C167.843 26.5225 165.037 28.4498 165.037 31.8856C165.037 33.5694 165.799 34.9729 167.152 35.7791C168.192 36.4111 169.091 36.6903 172.034 37.3222C175.117 37.9878 175.266 38.307 175.266 39.0277C175.266 39.8696 174.407 40.3944 173.244 40.3944C171.04 40.3944 170.946 39.1565 170.809 37.7529H164.698V37.8319C165.036 41.8499 166.999 44.3681 173.179 44.3681Z" fill="#818592"/>
<path fill-rule="evenodd" clip-rule="evenodd" d="M58.7445 20.5957H50.3492C50.3492 20.5957 46.9237 26.2402 46.5432 27.1178C46.0249 25.9253 42.2702 20.5957 42.2702 20.5957H34L42.3889 31.5708L34.0075 43.9451H42.469L44.3961 40.2658C45.1239 39.0733 45.7812 37.8093 46.2322 36.7954C46.7517 38.0885 47.1332 38.8266 47.9295 40.1598L50.1803 43.9451H58.7445L50.4571 31.5697L58.7445 20.5957Z" fill="#818592"/>
<path fill-rule="evenodd" clip-rule="evenodd" d="M68.4416 20.5967C72.2165 20.5967 73.9479 20.9484 75.5415 22.0338C77.6865 23.4719 78.8996 25.9273 78.8996 28.8718C78.8996 31.1508 78.1023 33.1138 76.6135 34.6212C75.1247 36.0951 73.2201 36.7606 70.1719 36.7606H66.0528V43.9472H58.7445V20.5967H68.4416ZM69.526 31.2361C69.3252 31.2528 69.11 31.259 68.8797 31.255H66.0528V26.3464L66.0528 26.3461H68.7419C70.8196 26.3461 71.789 27.1534 71.789 28.8372C71.789 29.0426 71.776 29.2346 71.7496 29.4131C71.7219 29.5994 71.6796 29.7712 71.6218 29.9286C71.3335 30.7145 70.6618 31.1423 69.526 31.2361Z" fill="#818592"/>
<path fill-rule="evenodd" clip-rule="evenodd" d="M78.6752 32.2726C78.6752 24.874 83.3842 20 90.5526 20C97.443 20 102.083 24.9789 102.083 32.3072C102.083 39.6344 97.4077 44.5084 90.4831 44.5084C83.4195 44.5084 78.6752 39.6701 78.6752 32.2726ZM86.3594 35.0868C86.9359 37.4455 88.3158 38.7589 90.4831 38.7589C93.3522 38.7589 94.7375 36.4175 94.7432 32.0145C94.7432 32.0071 94.7433 31.9997 94.7433 31.9923C94.7433 29.4152 94.1016 27.5319 92.8679 26.5417C92.8605 26.5358 92.8532 26.53 92.8458 26.5242C92.2033 26.0168 91.4021 25.7492 90.4489 25.7492C87.964 25.7492 86.4596 27.6292 86.1223 30.7541C86.0741 31.2004 86.0498 31.6721 86.0498 32.1674M86.3594 35.0868C86.1532 34.2433 86.0498 33.2662 86.0498 32.1676L86.3594 35.0868Z" fill="#818592"/>
</svg>
