<svg width="170" height="60" viewBox="0 0 170 60" fill="none" xmlns="http://www.w3.org/2000/svg">
<path d="M10.9345 27.1773C10.8029 27.1773 10.6845 27.1313 10.5792 27.0392C10.4871 26.9339 10.441 26.8155 10.441 26.6839V13.8746C10.441 13.7299 10.4871 13.6114 10.5792 13.5193C10.6713 13.4141 10.7897 13.3614 10.9345 13.3614H13.1647C13.4674 13.3614 13.6911 13.4864 13.8358 13.7364L18.4937 21.0983V13.8746C18.4937 13.7299 18.5398 13.6114 18.6319 13.5193C18.724 13.4141 18.8424 13.3614 18.9872 13.3614H21.4938C21.6385 13.3614 21.7569 13.4141 21.849 13.5193C21.9411 13.6114 21.9872 13.7299 21.9872 13.8746V26.6642C21.9872 26.8089 21.9411 26.9339 21.849 27.0392C21.7569 27.1313 21.6385 27.1773 21.4938 27.1773H19.2635C18.9608 27.1773 18.7372 27.0523 18.5924 26.8023L13.9542 19.7365V26.6839C13.9542 26.8287 13.9016 26.9471 13.7963 27.0392C13.7042 27.1313 13.5858 27.1773 13.4411 27.1773H10.9345Z" fill="#818592"/>
<path d="M25.159 27.1773C25.0274 27.1773 24.909 27.1313 24.8037 27.0392C24.7116 26.9339 24.6656 26.8155 24.6656 26.6839V13.8746C24.6656 13.7299 24.7116 13.6114 24.8037 13.5193C24.8958 13.4141 25.0142 13.3614 25.159 13.3614H34.4749C34.6196 13.3614 34.738 13.4141 34.8301 13.5193C34.9354 13.6114 34.988 13.7299 34.988 13.8746V15.8286C34.988 15.9733 34.9354 16.0917 34.8301 16.1838C34.738 16.2759 34.6196 16.322 34.4749 16.322H28.238V18.8286H34.0406C34.1854 18.8286 34.3038 18.8812 34.3959 18.9865C34.5012 19.0786 34.5538 19.197 34.5538 19.3418V21.1378C34.5538 21.2826 34.5012 21.4076 34.3959 21.5128C34.3038 21.6049 34.1854 21.651 34.0406 21.651H28.238V24.2168H34.6328C34.7775 24.2168 34.8959 24.2694 34.988 24.3747C35.0933 24.4668 35.1459 24.5852 35.1459 24.73V26.6839C35.1459 26.8287 35.0933 26.9471 34.988 27.0392C34.8959 27.1313 34.7775 27.1773 34.6328 27.1773H25.159Z" fill="#818592"/>
<path d="M39.5394 27.1773C39.3157 27.1773 39.1315 27.1181 38.9868 26.9997C38.8552 26.8681 38.7762 26.7102 38.7499 26.526L36.6381 13.8943C36.6249 13.868 36.6183 13.8285 36.6183 13.7759C36.6183 13.6706 36.6578 13.5785 36.7368 13.4996C36.8289 13.4075 36.9275 13.3614 37.0328 13.3614H39.6184C39.9999 13.3614 40.2105 13.5127 40.2499 13.8154L41.4539 21.276L42.8158 16.9536C42.921 16.5983 43.1381 16.4207 43.4671 16.4207H44.9474C45.2763 16.4207 45.4934 16.5983 45.5987 16.9536L46.9605 21.2562L48.1842 13.8154C48.2105 13.6575 48.2698 13.5456 48.3619 13.4799C48.454 13.4009 48.5987 13.3614 48.7961 13.3614H51.3816C51.5 13.3614 51.5987 13.4075 51.6777 13.4996C51.7566 13.5785 51.7961 13.6706 51.7961 13.7759V13.8943L49.6842 26.526C49.6579 26.7102 49.5724 26.8681 49.4277 26.9997C49.2829 27.1181 49.1053 27.1773 48.8948 27.1773H46.9013C46.6908 27.1773 46.5263 27.1247 46.4079 27.0195C46.2895 26.9142 46.2105 26.7958 46.1711 26.6642L44.2171 21.197L42.2631 26.6642C42.2105 26.7958 42.125 26.9142 42.0065 27.0195C41.8881 27.1247 41.7236 27.1773 41.5131 27.1773H39.5394Z" fill="#818592"/>
<path d="M61.2662 27.1773C61.1346 27.1773 61.0162 27.1313 60.9109 27.0392C60.8188 26.9339 60.7728 26.8155 60.7728 26.6839V22.4799L56.2135 13.993C56.174 13.9272 56.1543 13.8549 56.1543 13.7759C56.1543 13.6706 56.1938 13.5785 56.2727 13.4996C56.3648 13.4075 56.4635 13.3614 56.5688 13.3614H59.174C59.3583 13.3614 59.5096 13.4075 59.628 13.4996C59.7464 13.5917 59.832 13.6904 59.8846 13.7956L62.628 18.7496L65.3715 13.7956C65.4241 13.6904 65.5096 13.5917 65.6281 13.4996C65.7465 13.4075 65.8978 13.3614 66.082 13.3614H68.6873C68.7926 13.3614 68.8847 13.4075 68.9636 13.4996C69.0557 13.5785 69.1018 13.6706 69.1018 13.7759C69.1018 13.8549 69.082 13.9272 69.0426 13.993L64.4833 22.4799V26.6839C64.4833 26.8287 64.4307 26.9471 64.3254 27.0392C64.2333 27.1313 64.1149 27.1773 63.9701 27.1773H61.2662Z" fill="#818592"/>
<path d="M75.7999 27.3747C73.9314 27.3747 72.4577 26.9208 71.3788 26.0129C70.2998 25.105 69.7274 23.7694 69.6617 22.0062C69.6485 21.6378 69.6419 21.072 69.6419 20.3089C69.6419 19.5457 69.6485 18.9733 69.6617 18.5917C69.7143 16.8549 70.2867 15.5193 71.3788 14.5851C72.484 13.6378 73.9577 13.1641 75.7999 13.1641C77.6288 13.1641 79.0894 13.6378 80.1815 14.5851C81.2868 15.5193 81.8657 16.8549 81.9183 18.5917C81.9447 19.3549 81.9578 19.9273 81.9578 20.3089C81.9578 20.7036 81.9447 21.2694 81.9183 22.0062C81.8526 23.7694 81.2802 25.105 80.2012 26.0129C79.1354 26.9208 77.6683 27.3747 75.7999 27.3747ZM75.7999 24.4142C76.4841 24.4142 77.0301 24.2102 77.438 23.8023C77.8459 23.3813 78.063 22.7431 78.0894 21.8878C78.1157 21.1247 78.1288 20.5786 78.1288 20.2497C78.1288 19.9207 78.1157 19.3878 78.0894 18.651C78.063 17.7957 77.8459 17.1641 77.438 16.7562C77.0301 16.3351 76.4841 16.1246 75.7999 16.1246C75.1025 16.1246 74.5499 16.3351 74.142 16.7562C73.7341 17.1641 73.517 17.7957 73.4906 18.651C73.4775 19.0194 73.4709 19.5523 73.4709 20.2497C73.4709 20.9602 73.4775 21.5062 73.4906 21.8878C73.517 22.7431 73.7341 23.3813 74.142 23.8023C74.5499 24.2102 75.1025 24.4142 75.7999 24.4142Z" fill="#818592"/>
<path d="M84.6784 27.1773C84.5469 27.1773 84.4284 27.1313 84.3232 27.0392C84.2311 26.9339 84.185 26.8155 84.185 26.6839V13.8746C84.185 13.7299 84.2311 13.6114 84.3232 13.5193C84.4153 13.4141 84.5337 13.3614 84.6784 13.3614H90.1061C91.843 13.3614 93.1983 13.7562 94.172 14.5457C95.1588 15.3351 95.6522 16.447 95.6522 17.8812C95.6522 18.8023 95.4351 19.5852 95.0009 20.2299C94.5798 20.8747 93.9943 21.3747 93.2443 21.7299L95.9088 26.5458C95.9483 26.6247 95.968 26.6971 95.968 26.7629C95.968 26.8681 95.9286 26.9668 95.8496 27.0589C95.7707 27.1379 95.672 27.1773 95.5536 27.1773H92.7706C92.389 27.1773 92.1193 26.9997 91.9614 26.6444L89.7903 22.3615H87.8956V26.6839C87.8956 26.8287 87.8429 26.9471 87.7377 27.0392C87.6456 27.1313 87.5272 27.1773 87.3824 27.1773H84.6784ZM90.0864 19.4602C90.6522 19.4602 91.0798 19.322 91.3693 19.0457C91.6719 18.7562 91.8232 18.3615 91.8232 17.8615C91.8232 17.3615 91.6719 16.9601 91.3693 16.6575C91.0798 16.3549 90.6522 16.2036 90.0864 16.2036H87.8956V19.4602H90.0864Z" fill="#818592"/>
<path d="M98.4018 27.1773C98.2703 27.1773 98.1518 27.1313 98.0466 27.0392C97.9545 26.9339 97.9084 26.8155 97.9084 26.6839V13.8746C97.9084 13.7299 97.9545 13.6114 98.0466 13.5193C98.1387 13.4141 98.2571 13.3614 98.4018 13.3614H101.047C101.191 13.3614 101.31 13.4141 101.402 13.5193C101.494 13.6114 101.54 13.7299 101.54 13.8746V18.1773L105.033 13.7562C105.178 13.493 105.435 13.3614 105.803 13.3614H108.823C108.928 13.3614 109.02 13.4075 109.099 13.4996C109.191 13.5785 109.237 13.6706 109.237 13.7759C109.237 13.8812 109.211 13.9601 109.159 14.0128L104.56 19.9733L109.534 26.526C109.586 26.5787 109.612 26.6576 109.612 26.7629C109.612 26.8681 109.566 26.9668 109.474 27.0589C109.395 27.1379 109.297 27.1773 109.178 27.1773H106.08C105.869 27.1773 105.698 27.1379 105.566 27.0589C105.435 26.9668 105.343 26.8747 105.29 26.7826L101.54 21.9668V26.6839C101.54 26.8155 101.494 26.9339 101.402 27.0392C101.31 27.1313 101.191 27.1773 101.047 27.1773H98.4018Z" fill="#818592"/>
<path d="M120.883 27.3747C119.001 27.3747 117.521 26.9208 116.442 26.0129C115.376 25.105 114.81 23.776 114.745 22.026C114.731 21.6707 114.725 21.0918 114.725 20.2891C114.725 19.4733 114.731 18.8812 114.745 18.5128C114.81 16.8023 115.383 15.4865 116.462 14.5654C117.554 13.6312 119.027 13.1641 120.883 13.1641C122.054 13.1641 123.1 13.3549 124.021 13.7364C124.955 14.118 125.692 14.6707 126.231 15.3943C126.771 16.118 127.054 16.9733 127.08 17.9602C127.08 18.0786 127.034 18.1773 126.942 18.2562C126.863 18.3352 126.764 18.3746 126.646 18.3746H123.843C123.659 18.3746 123.521 18.3417 123.429 18.276C123.35 18.197 123.278 18.0588 123.212 17.8615C123.028 17.2167 122.745 16.7694 122.363 16.5194C121.995 16.2562 121.501 16.1246 120.883 16.1246C119.396 16.1246 118.626 16.9536 118.574 18.6115C118.56 18.9667 118.554 19.5128 118.554 20.2497C118.554 20.9865 118.56 21.5457 118.574 21.9273C118.626 23.5852 119.396 24.4142 120.883 24.4142C121.488 24.4142 121.981 24.2826 122.363 24.0194C122.758 23.7563 123.041 23.3089 123.212 22.6773C123.264 22.4799 123.337 22.3484 123.429 22.2826C123.521 22.2036 123.659 22.1641 123.843 22.1641H126.646C126.764 22.1641 126.863 22.2036 126.942 22.2826C127.034 22.3615 127.08 22.4602 127.08 22.5786C127.054 23.5655 126.771 24.4207 126.231 25.1444C125.692 25.8681 124.955 26.4208 124.021 26.8023C123.1 27.1839 122.054 27.3747 120.883 27.3747Z" fill="#818592"/>
<path d="M129.588 27.1773C129.456 27.1773 129.338 27.1313 129.233 27.0392C129.141 26.9339 129.094 26.8155 129.094 26.6839V13.8549C129.094 13.7101 129.141 13.5917 129.233 13.4996C129.338 13.4075 129.456 13.3614 129.588 13.3614H132.41C132.555 13.3614 132.673 13.4075 132.766 13.4996C132.858 13.5917 132.904 13.7101 132.904 13.8549V26.6839C132.904 26.8155 132.858 26.9339 132.766 27.0392C132.673 27.1313 132.555 27.1773 132.41 27.1773H129.588Z" fill="#818592"/>
<path d="M139.143 27.1773C138.998 27.1773 138.873 27.1313 138.768 27.0392C138.676 26.9471 138.629 26.8287 138.629 26.6839V16.5786H135.156C135.011 16.5786 134.886 16.5325 134.781 16.4404C134.689 16.3483 134.643 16.2299 134.643 16.0851V13.8746C134.643 13.7299 134.689 13.6114 134.781 13.5193C134.886 13.4141 135.011 13.3614 135.156 13.3614H145.873C146.018 13.3614 146.136 13.4141 146.228 13.5193C146.333 13.6114 146.386 13.7299 146.386 13.8746V16.0851C146.386 16.2299 146.333 16.3483 146.228 16.4404C146.136 16.5325 146.018 16.5786 145.873 16.5786H142.399V26.6839C142.399 26.8287 142.347 26.9471 142.241 27.0392C142.149 27.1313 142.031 27.1773 141.886 27.1773H139.143Z" fill="#818592"/>
<path d="M152.164 27.1773C152.033 27.1773 151.914 27.1313 151.809 27.0392C151.717 26.9339 151.671 26.8155 151.671 26.6839V22.4799L147.112 13.993C147.072 13.9272 147.053 13.8549 147.053 13.7759C147.053 13.6706 147.092 13.5785 147.171 13.4996C147.263 13.4075 147.362 13.3614 147.467 13.3614H150.072C150.257 13.3614 150.408 13.4075 150.526 13.4996C150.645 13.5917 150.73 13.6904 150.783 13.7956L153.526 18.7496L156.27 13.7956C156.322 13.6904 156.408 13.5917 156.526 13.4996C156.645 13.4075 156.796 13.3614 156.98 13.3614H159.586C159.691 13.3614 159.783 13.4075 159.862 13.4996C159.954 13.5785 160 13.6706 160 13.7759C160 13.8549 159.98 13.9272 159.941 13.993L155.382 22.4799V26.6839C155.382 26.8287 155.329 26.9471 155.224 27.0392C155.132 27.1313 155.013 27.1773 154.868 27.1773H152.164Z" fill="#818592"/>
<path d="M10.4069 46.6724C10.2984 46.6724 10.2008 46.6344 10.1139 46.5585C10.038 46.4716 10 46.374 10 46.2655V35.7016C10 35.5822 10.038 35.4846 10.1139 35.4086C10.1899 35.3218 10.2876 35.2784 10.4069 35.2784H14.8831C16.3155 35.2784 17.4332 35.6039 18.2362 36.255C19.0501 36.9061 19.457 37.8231 19.457 39.0059C19.457 39.7655 19.278 40.4111 18.9199 40.9428C18.5726 41.4746 18.0897 41.8869 17.4712 42.1799L19.6686 46.1515C19.7012 46.2166 19.7175 46.2763 19.7175 46.3306C19.7175 46.4174 19.6849 46.4988 19.6198 46.5747C19.5547 46.6398 19.4733 46.6724 19.3756 46.6724H17.0806C16.7659 46.6724 16.5434 46.5259 16.4132 46.2329L14.6227 42.7008H13.0601V46.2655C13.0601 46.3848 13.0167 46.4825 12.9299 46.5585C12.8539 46.6344 12.7563 46.6724 12.6369 46.6724H10.4069ZM14.8669 40.308C15.3335 40.308 15.6861 40.1941 15.9249 39.9662C16.1745 39.7275 16.2993 39.4019 16.2993 38.9896C16.2993 38.5772 16.1745 38.2463 15.9249 37.9967C15.6861 37.7471 15.3335 37.6223 14.8669 37.6223H13.0601V40.308H14.8669Z" fill="#818592"/>
<path d="M21.7246 46.6724C21.6161 46.6724 21.5185 46.6344 21.4316 46.5585C21.3557 46.4716 21.3177 46.374 21.3177 46.2655V35.7016C21.3177 35.5822 21.3557 35.4846 21.4316 35.4086C21.5076 35.3218 21.6053 35.2784 21.7246 35.2784H29.4074C29.5268 35.2784 29.6245 35.3218 29.7004 35.4086C29.7872 35.4846 29.8306 35.5822 29.8306 35.7016V37.313C29.8306 37.4324 29.7872 37.5301 29.7004 37.606C29.6245 37.682 29.5268 37.72 29.4074 37.72H24.2639V39.7872H29.0493C29.1687 39.7872 29.2664 39.8306 29.3423 39.9174C29.4291 39.9933 29.4726 40.091 29.4726 40.2104V41.6916C29.4726 41.811 29.4291 41.914 29.3423 42.0009C29.2664 42.0768 29.1687 42.1148 29.0493 42.1148H24.2639V44.2308H29.5377C29.657 44.2308 29.7547 44.2742 29.8306 44.361C29.9175 44.437 29.9609 44.5347 29.9609 44.654V46.2655C29.9609 46.3848 29.9175 46.4825 29.8306 46.5585C29.7547 46.6344 29.657 46.6724 29.5377 46.6724H21.7246Z" fill="#818592"/>
<path d="M31.1263 46.6724C31.0395 46.6724 30.9581 46.6398 30.8822 46.5747C30.8171 46.4988 30.7845 46.4174 30.7845 46.3306C30.7845 46.2655 30.7899 46.2166 30.8008 46.1841L34.5934 35.7504C34.7019 35.4357 34.9189 35.2784 35.2445 35.2784H37.7837C38.1092 35.2784 38.3263 35.4357 38.4348 35.7504L42.2273 46.1841C42.2382 46.2166 42.2436 46.2655 42.2436 46.3306C42.2436 46.4174 42.2057 46.4988 42.1297 46.5747C42.0646 46.6398 41.9886 46.6724 41.9018 46.6724H39.7858C39.5253 46.6724 39.3409 46.553 39.2324 46.3143L38.6464 44.7354H34.3818L33.7958 46.3143C33.6873 46.553 33.5028 46.6724 33.2424 46.6724H31.1263ZM35.0654 42.2938H37.9627L36.5141 38.1432L35.0654 42.2938Z" fill="#818592"/>
<path d="M43.8832 46.6724C43.7747 46.6724 43.677 46.6344 43.5902 46.5585C43.5142 46.4716 43.4762 46.374 43.4762 46.2655V35.6853C43.4762 35.566 43.5142 35.4683 43.5902 35.3923C43.677 35.3164 43.7747 35.2784 43.8832 35.2784H46.162C46.2813 35.2784 46.379 35.3164 46.455 35.3923C46.5309 35.4683 46.5689 35.566 46.5689 35.6853V44.1169H51.452C51.5714 44.1169 51.6691 44.1603 51.745 44.2471C51.8318 44.3231 51.8752 44.4207 51.8752 44.5401V46.2655C51.8752 46.3848 51.8318 46.4825 51.745 46.5585C51.6691 46.6344 51.5714 46.6724 51.452 46.6724H43.8832Z" fill="#818592"/>
<path d="M56.6792 46.6724C56.5706 46.6724 56.473 46.6344 56.3862 46.5585C56.3102 46.4716 56.2722 46.374 56.2722 46.2655V35.7016C56.2722 35.5822 56.3102 35.4846 56.3862 35.4086C56.4621 35.3218 56.5598 35.2784 56.6792 35.2784H64.362C64.4813 35.2784 64.579 35.3218 64.655 35.4086C64.7418 35.4846 64.7852 35.5822 64.7852 35.7016V37.313C64.7852 37.4324 64.7418 37.5301 64.655 37.606C64.579 37.682 64.4813 37.72 64.362 37.72H59.2184V39.7872H64.0039C64.1232 39.7872 64.2209 39.8306 64.2969 39.9174C64.3837 39.9933 64.4271 40.091 64.4271 40.2104V41.6916C64.4271 41.811 64.3837 41.914 64.2969 42.0009C64.2209 42.0768 64.1232 42.1148 64.0039 42.1148H59.2184V44.2308H64.4922C64.6116 44.2308 64.7092 44.2742 64.7852 44.361C64.872 44.437 64.9154 44.5347 64.9154 44.654V46.2655C64.9154 46.3848 64.872 46.4825 64.7852 46.5585C64.7092 46.6344 64.6116 46.6724 64.4922 46.6724H56.6792Z" fill="#818592"/>
<path d="M71.0291 46.8352C69.9765 46.8352 69.0813 46.6833 68.3434 46.3794C67.6055 46.0756 67.0466 45.6741 66.6668 45.1749C66.287 44.6757 66.0863 44.1332 66.0646 43.5472C66.0646 43.4495 66.0971 43.3681 66.1623 43.303C66.2382 43.2379 66.325 43.2054 66.4227 43.2054H68.5875C68.7178 43.2054 68.8209 43.2271 68.8968 43.2705C68.9836 43.3139 69.0759 43.3898 69.1735 43.4984C69.3146 43.7588 69.5316 43.9758 69.8246 44.1494C70.1285 44.3122 70.53 44.3936 71.0291 44.3936C71.6151 44.3936 72.0654 44.3068 72.3801 44.1332C72.6948 43.9487 72.8522 43.6991 72.8522 43.3844C72.8522 43.1565 72.7708 42.9721 72.608 42.831C72.4452 42.6791 72.1848 42.5489 71.8267 42.4403C71.4686 42.321 70.9532 42.1908 70.2804 42.0497C68.9673 41.7893 67.9853 41.3932 67.3342 40.8615C66.6831 40.3297 66.3576 39.5701 66.3576 38.5827C66.3576 37.9099 66.5421 37.313 66.911 36.7922C67.2908 36.2605 67.8225 35.8481 68.5062 35.5551C69.2007 35.2621 70.0037 35.1156 70.9152 35.1156C71.8701 35.1156 72.6948 35.2838 73.3893 35.6202C74.0947 35.9458 74.6318 36.3581 75.0007 36.8573C75.3805 37.3456 75.5813 37.8285 75.603 38.306C75.603 38.4036 75.5704 38.4904 75.5053 38.5664C75.4402 38.6315 75.3588 38.664 75.2612 38.664H72.9824C72.7436 38.664 72.5592 38.5664 72.429 38.3711C72.3638 38.1432 72.1956 37.9533 71.9244 37.8014C71.6531 37.6386 71.3167 37.5572 70.9152 37.5572C70.4594 37.5572 70.1068 37.6386 69.8572 37.8014C69.6076 37.9641 69.4828 38.2029 69.4828 38.5176C69.4828 38.8322 69.6456 39.0818 69.9711 39.2663C70.2966 39.4399 70.9043 39.619 71.7941 39.8034C72.8142 39.9879 73.6226 40.2212 74.2194 40.5034C74.8271 40.7746 75.272 41.1327 75.5542 41.5777C75.8472 42.0117 75.9937 42.5651 75.9937 43.2379C75.9937 43.9758 75.7821 44.6161 75.3588 45.1586C74.9356 45.7012 74.3497 46.119 73.6009 46.412C72.8522 46.6941 71.9949 46.8352 71.0291 46.8352Z" fill="#818592"/>
<path d="M80.3751 46.6724C80.2558 46.6724 80.1527 46.6344 80.0659 46.5585C79.9899 46.4825 79.9519 46.3848 79.9519 46.2655V37.9316H77.0871C76.9678 37.9316 76.8647 37.8936 76.7779 37.8176C76.7019 37.7417 76.6639 37.644 76.6639 37.5246V35.7016C76.6639 35.5822 76.7019 35.4846 76.7779 35.4086C76.8647 35.3218 76.9678 35.2784 77.0871 35.2784H85.9256C86.045 35.2784 86.1427 35.3218 86.2186 35.4086C86.3054 35.4846 86.3488 35.5822 86.3488 35.7016V37.5246C86.3488 37.644 86.3054 37.7417 86.2186 37.8176C86.1427 37.8936 86.045 37.9316 85.9256 37.9316H83.0609V46.2655C83.0609 46.3848 83.0174 46.4825 82.9306 46.5585C82.8547 46.6344 82.757 46.6724 82.6376 46.6724H80.3751Z" fill="#818592"/>
<path d="M85.9822 46.6724C85.8954 46.6724 85.814 46.6398 85.7381 46.5747C85.673 46.4988 85.6404 46.4174 85.6404 46.3306C85.6404 46.2655 85.6458 46.2166 85.6567 46.1841L89.4493 35.7504C89.5578 35.4357 89.7748 35.2784 90.1003 35.2784H92.6396C92.9651 35.2784 93.1821 35.4357 93.2907 35.7504L97.0832 46.1841C97.0941 46.2166 97.0995 46.2655 97.0995 46.3306C97.0995 46.4174 97.0615 46.4988 96.9856 46.5747C96.9205 46.6398 96.8445 46.6724 96.7577 46.6724H94.6417C94.3812 46.6724 94.1968 46.553 94.0882 46.3143L93.5023 44.7354H89.2377L88.6517 46.3143C88.5432 46.553 88.3587 46.6724 88.0983 46.6724H85.9822ZM89.9213 42.2938H92.8186L91.37 38.1432L89.9213 42.2938Z" fill="#818592"/>
<path d="M100.102 46.6724C99.9823 46.6724 99.8792 46.6344 99.7924 46.5585C99.7164 46.4825 99.6784 46.3848 99.6784 46.2655V37.9316H96.8136C96.6943 37.9316 96.5912 37.8936 96.5044 37.8176C96.4284 37.7417 96.3904 37.644 96.3904 37.5246V35.7016C96.3904 35.5822 96.4284 35.4846 96.5044 35.4086C96.5912 35.3218 96.6943 35.2784 96.8136 35.2784H105.652C105.771 35.2784 105.869 35.3218 105.945 35.4086C106.032 35.4846 106.075 35.5822 106.075 35.7016V37.5246C106.075 37.644 106.032 37.7417 105.945 37.8176C105.869 37.8936 105.771 37.9316 105.652 37.9316H102.787V46.2655C102.787 46.3848 102.744 46.4825 102.657 46.5585C102.581 46.6344 102.484 46.6724 102.364 46.6724H100.102Z" fill="#818592"/>
<path d="M107.911 46.6724C107.802 46.6724 107.705 46.6344 107.618 46.5585C107.542 46.4716 107.504 46.374 107.504 46.2655V35.7016C107.504 35.5822 107.542 35.4846 107.618 35.4086C107.694 35.3218 107.791 35.2784 107.911 35.2784H115.594C115.713 35.2784 115.811 35.3218 115.887 35.4086C115.973 35.4846 116.017 35.5822 116.017 35.7016V37.313C116.017 37.4324 115.973 37.5301 115.887 37.606C115.811 37.682 115.713 37.72 115.594 37.72H110.45V39.7872H115.236C115.355 39.7872 115.453 39.8306 115.529 39.9174C115.615 39.9933 115.659 40.091 115.659 40.2104V41.6916C115.659 41.811 115.615 41.914 115.529 42.0009C115.453 42.0768 115.355 42.1148 115.236 42.1148H110.45V44.2308H115.724C115.843 44.2308 115.941 44.2742 116.017 44.361C116.104 44.437 116.147 44.5347 116.147 44.654V46.2655C116.147 46.3848 116.104 46.4825 116.017 46.5585C115.941 46.6344 115.843 46.6724 115.724 46.6724H107.911Z" fill="#818592"/>
<path d="M126.085 46.8352C124.534 46.8352 123.313 46.4608 122.423 45.7121C121.544 44.9633 121.077 43.8673 121.023 42.4241C121.012 42.1311 121.007 41.6536 121.007 40.9917C121.007 40.3189 121.012 39.8306 121.023 39.5267C121.077 38.116 121.549 37.0309 122.439 36.2713C123.34 35.5009 124.555 35.1156 126.085 35.1156C127.051 35.1156 127.914 35.273 128.673 35.5877C129.444 35.9024 130.051 36.3581 130.496 36.9549C130.941 37.5518 131.175 38.2571 131.196 39.071C131.196 39.1686 131.158 39.25 131.082 39.3151C131.017 39.3802 130.936 39.4128 130.838 39.4128H128.527C128.375 39.4128 128.261 39.3857 128.185 39.3314C128.12 39.2663 128.06 39.1524 128.006 38.9896C127.854 38.4579 127.621 38.0889 127.306 37.8827C127.002 37.6657 126.595 37.5572 126.085 37.5572C124.859 37.5572 124.224 38.2408 124.181 39.6081C124.17 39.9011 124.165 40.3514 124.165 40.9591C124.165 41.5668 124.17 42.028 124.181 42.3427C124.224 43.71 124.859 44.3936 126.085 44.3936C126.584 44.3936 126.991 44.2851 127.306 44.0681C127.632 43.851 127.865 43.4821 128.006 42.9612C128.049 42.7984 128.109 42.6899 128.185 42.6357C128.261 42.5706 128.375 42.538 128.527 42.538H130.838C130.936 42.538 131.017 42.5706 131.082 42.6357C131.158 42.7008 131.196 42.7822 131.196 42.8798C131.175 43.6937 130.941 44.399 130.496 44.9959C130.051 45.5927 129.444 46.0484 128.673 46.3631C127.914 46.6778 127.051 46.8352 126.085 46.8352Z" fill="#818592"/>
<path d="M137.578 46.8352C136.037 46.8352 134.822 46.4608 133.932 45.7121C133.042 44.9633 132.57 43.8619 132.516 42.4078C132.505 42.104 132.499 41.6373 132.499 41.008C132.499 40.3786 132.505 39.9065 132.516 39.5918C132.559 38.1595 133.031 37.058 133.932 36.2876C134.843 35.5063 136.059 35.1156 137.578 35.1156C139.086 35.1156 140.291 35.5063 141.191 36.2876C142.103 37.058 142.58 38.1595 142.624 39.5918C142.645 40.2212 142.656 40.6933 142.656 41.008C142.656 41.3335 142.645 41.8001 142.624 42.4078C142.57 43.8619 142.097 44.9633 141.208 45.7121C140.329 46.4608 139.119 46.8352 137.578 46.8352ZM137.578 44.3936C138.142 44.3936 138.592 44.2254 138.929 43.889C139.265 43.5418 139.444 43.0155 139.466 42.3101C139.488 41.6807 139.499 41.2304 139.499 40.9591C139.499 40.6878 139.488 40.2484 139.466 39.6407C139.444 38.9353 139.265 38.4145 138.929 38.0781C138.592 37.7308 138.142 37.5572 137.578 37.5572C137.003 37.5572 136.547 37.7308 136.211 38.0781C135.874 38.4145 135.695 38.9353 135.673 39.6407C135.663 39.9445 135.657 40.384 135.657 40.9591C135.657 41.5451 135.663 41.9954 135.673 42.3101C135.695 43.0155 135.874 43.5418 136.211 43.889C136.547 44.2254 137.003 44.3936 137.578 44.3936Z" fill="#818592"/>
<path d="M144.9 46.6724C144.792 46.6724 144.694 46.6344 144.607 46.5585C144.531 46.4716 144.493 46.374 144.493 46.2655V35.6853C144.493 35.566 144.531 35.4683 144.607 35.3923C144.694 35.3164 144.792 35.2784 144.9 35.2784H147.228C147.347 35.2784 147.445 35.3164 147.521 35.3923C147.597 35.4683 147.635 35.566 147.635 35.6853V46.2655C147.635 46.374 147.597 46.4716 147.521 46.5585C147.445 46.6344 147.347 46.6724 147.228 46.6724H144.9Z" fill="#818592"/>
<path d="M150.257 46.6724C150.148 46.6724 150.051 46.6344 149.964 46.5585C149.888 46.4716 149.85 46.374 149.85 46.2655V35.7016C149.85 35.5822 149.888 35.4846 149.964 35.4086C150.04 35.3218 150.137 35.2784 150.257 35.2784H152.096C152.346 35.2784 152.53 35.3815 152.65 35.5877L156.491 41.659V35.7016C156.491 35.5822 156.529 35.4846 156.605 35.4086C156.681 35.3218 156.779 35.2784 156.898 35.2784H158.965C159.084 35.2784 159.182 35.3218 159.258 35.4086C159.334 35.4846 159.372 35.5822 159.372 35.7016V46.2492C159.372 46.3686 159.334 46.4716 159.258 46.5585C159.182 46.6344 159.084 46.6724 158.965 46.6724H157.126C156.876 46.6724 156.692 46.5693 156.572 46.3631L152.747 40.5359V46.2655C152.747 46.3848 152.704 46.4825 152.617 46.5585C152.541 46.6344 152.443 46.6724 152.324 46.6724H150.257Z" fill="#818592"/>
</svg>
