<svg width="170" height="60" viewBox="0 0 170 60" fill="none" xmlns="http://www.w3.org/2000/svg">
<path d="M73.0458 25.4007C73.0458 25.4007 73.0458 30.7555 73.0458 34.1289C73.0458 37.5022 69.3227 37.592 69.3227 37.592C69.3227 37.592 65.5996 37.5022 65.5996 34.1289C65.5996 30.7555 65.5996 25.4007 65.5996 25.4007C65.5996 25.4007 65.4239 23.8878 63.329 23.8878V34.3339C63.329 34.3339 63.7039 39.5676 69.3227 39.5676C74.9376 39.5676 75.3163 34.3339 75.3163 34.3339V23.8878C73.2234 23.8878 73.0458 25.4007 73.0458 25.4007Z" fill="#818592"/>
<path d="M124.98 25.4007C124.98 25.4007 124.98 30.7555 124.98 34.1289C124.98 37.5022 121.257 37.592 121.257 37.592C121.257 37.592 117.532 37.5022 117.532 34.1289C117.532 30.7555 117.532 25.4007 117.532 25.4007C117.532 25.4007 117.356 23.8878 115.261 23.8878V34.3339C115.261 34.3339 115.64 39.5676 121.257 39.5676C126.87 39.5676 127.25 34.3339 127.25 34.3339V23.8878C125.154 23.8878 124.98 25.4007 124.98 25.4007Z" fill="#818592"/>
<path d="M95.8842 23.8878C93.7893 23.8878 93.6136 25.4007 93.6136 25.4007C93.6136 25.4007 93.6136 30.7555 93.6136 34.1289V39.3802H95.8842V23.8878Z" fill="#818592"/>
<path d="M133.508 23.8878C131.411 23.8878 131.237 25.4007 131.237 25.4007C131.237 25.4007 131.237 30.7555 131.237 34.1289V39.3802H133.508V23.8878Z" fill="#818592"/>
<path d="M151.135 23.8878C149.04 23.8878 148.869 25.4007 148.869 25.4007C148.869 25.4007 148.869 30.7555 148.869 34.1289V39.3802H151.135V23.8878Z" fill="#818592"/>
<path d="M87.2744 31.3959C87.2744 31.3959 89.4552 30.3768 89.4552 27.8761C89.4552 25.3754 87.2178 23.8878 85.0624 23.8878C82.907 23.8878 79.2581 23.8878 79.2581 23.8878V39.3822H86.6789C86.6789 39.3822 89.8925 38.5232 89.8925 35.5852C89.8925 32.6472 88.1725 31.3959 87.2744 31.3959ZM81.4252 25.9259C81.4252 25.9259 84.2756 25.9259 84.8886 25.9259C85.4978 25.9259 87.1846 26.0996 87.1846 28.2529C87.1846 30.4081 84.9179 30.5232 84.9179 30.5232H81.4252V25.9259ZM85.4978 37.5471H81.4252V32.3524C81.4252 32.3524 85.2342 32.3524 85.5876 32.3524C85.9332 32.3524 87.7234 32.6609 87.7234 34.9488C87.7234 37.2387 85.4978 37.5471 85.4978 37.5471Z" fill="#818592"/>
<path d="M112.776 37.3734C111.577 37.3734 109.982 37.3734 109.982 37.3734C109.982 37.3734 112.208 35.2767 112.208 31.8331C112.208 28.3836 110.652 23.8878 105.341 23.8878C105.341 23.8878 99.1739 23.4973 98.7072 31.634C98.7072 39.5988 105.341 39.3802 105.341 39.3802C107.258 39.0718 109.064 39.1303 110.517 39.1303C111.975 39.1303 114.127 39.1303 114.127 39.1303C114.127 39.1303 113.974 37.3734 112.776 37.3734ZM105.501 37.6232C102.518 37.6232 101.091 34.98 101.091 31.7296C101.091 28.4715 102.489 25.836 105.501 25.836C108.512 25.836 109.908 28.4715 109.908 31.7296C109.908 34.982 108.485 37.6232 105.501 37.6232Z" fill="#818592"/>
<path d="M146.945 23.8878H135.751V25.8302H146.945V23.8878Z" fill="#818592"/>
<path d="M142.539 23.8878H140.378V39.3822H142.539V23.8878Z" fill="#818592"/>
<path d="M20.7681 10H18.5483V12.2821H20.7681V10Z" fill="#818592"/>
<path d="M25.1765 21.5979H22.9606V23.8839H25.1765V21.5979Z" fill="#818592"/>
<path d="M25.1765 14.4803H22.9606V16.7643H25.1765V14.4803Z" fill="#818592"/>
<path d="M27.3963 12.1962H25.1765V14.4783H27.3963V12.1962Z" fill="#818592"/>
<path d="M27.3963 18.3084H25.1765V20.5905H27.3963V18.3084Z" fill="#818592"/>
<path d="M29.6103 15.509H27.3944V17.7911H29.6103V15.509Z" fill="#818592"/>
<path fill-rule="evenodd" clip-rule="evenodd" d="M18.5483 16.0479H20.7681V28.3036H22.9196V26.123H25.2038V30.9234H27.4197V22.8961H29.6356V39.4856C29.6356 39.4856 29.9383 46.3046 36.2872 49.9981C29.7333 50 18.5483 47.0425 18.5483 33.8107C18.5483 20.5808 18.5483 16.0479 18.5483 16.0479Z" fill="#818592"/>
<path fill-rule="evenodd" clip-rule="evenodd" d="M30.807 41.4378C30.807 41.4378 31.9843 47.2104 38.263 50C44.0419 50 55.057 45.3636 53.9832 32.6023C53.9832 32.6023 49.9067 48.614 30.807 41.4378Z" fill="#818592"/>
<path fill-rule="evenodd" clip-rule="evenodd" d="M42.6304 42.0409C42.6304 42.0409 51.4432 41.5334 54.0554 29.6466C54.0554 18.5661 54.0554 10.3025 54.0554 10.3025C54.0554 10.3025 42.9662 9.02583 42.9662 17.223C42.9681 25.4163 42.6304 42.0409 42.6304 42.0409Z" fill="#818592"/>
<path d="M64.7249 44.0595L66.7924 47.3958H66.8042V44.0595H67.5597V48.5885H66.7222L64.6605 45.2601H64.641V48.5885H63.8854V44.0595H64.7249Z" fill="#818592"/>
<path d="M75.8689 44.0595H79.1292V44.7447H76.6615V45.9316H78.9438V46.5778H76.6615V47.9033H79.1722V48.5885H75.8689V44.0595Z" fill="#818592"/>
<path d="M87.005 44.0595H90.6715V44.7447H89.2326V48.5885H88.4399V44.7447H87.0069V44.0595H87.005Z" fill="#818592"/>
<path d="M98.512 44.0595H99.3183L100.136 47.5226H100.148L101.062 44.0595H101.874L102.762 47.5226H102.774L103.617 44.0595H104.424L103.174 48.5885H102.368L101.46 45.1254H101.448L100.523 48.5885H99.7049L98.512 44.0595Z" fill="#818592"/>
<path d="M116.198 46.324C116.198 47.6183 115.386 48.6959 114.029 48.6959C112.672 48.6959 111.86 47.6183 111.86 46.324C111.86 45.0297 112.672 43.9521 114.029 43.9521C115.386 43.9521 116.198 45.0297 116.198 46.324ZM112.653 46.324C112.653 47.1927 113.059 48.0498 114.029 48.0498C114.999 48.0498 115.406 47.1947 115.406 46.324C115.406 45.4553 114.999 44.5983 114.029 44.5983C113.059 44.6003 112.653 45.4553 112.653 46.324Z" fill="#818592"/>
<path d="M124.507 44.0849H126.671C127.66 44.0849 128.168 44.5417 128.168 45.3089C128.168 46.1776 127.565 46.4001 127.42 46.4509V46.4646C127.694 46.5036 128.092 46.7047 128.092 47.4231C128.092 47.9502 128.168 48.4323 128.34 48.6158H127.489C127.367 48.4187 127.367 48.1727 127.367 47.9502C127.367 47.1185 127.196 46.7515 126.467 46.7515H125.3V48.6158H124.507V44.0849ZM126.6 46.1463C127.102 46.1463 127.373 45.8984 127.373 45.424C127.373 44.8462 126.998 44.733 126.587 44.733H125.298V46.1463H126.6Z" fill="#818592"/>
<path d="M136.368 44.0849H137.16V46.1464L139.177 44.0849H140.153L138.345 45.8926L140.28 48.6139H139.29L137.807 46.4509L137.16 47.0912V48.6139H136.368V44.0849Z" fill="#818592"/>
<path d="M148.552 47.103C148.552 47.7999 149.066 48.0732 149.7 48.0732C150.397 48.0732 150.659 47.7316 150.659 47.388C150.659 47.0385 150.469 46.8999 150.284 46.8297C149.968 46.7086 149.554 46.6266 148.933 46.4548C148.16 46.246 147.931 45.7755 147.931 45.307C147.931 44.3992 148.769 43.9756 149.587 43.9756C150.532 43.9756 151.325 44.4773 151.325 45.4221H150.532C150.493 44.8384 150.1 44.6237 149.556 44.6237C149.189 44.6237 148.724 44.7564 148.724 45.2133C148.724 45.5295 148.939 45.7071 149.263 45.797C149.333 45.8165 150.335 46.0761 150.569 46.1464C151.164 46.324 151.451 46.8316 151.451 47.3001C151.451 48.3153 150.551 48.7213 149.649 48.7213C148.615 48.7213 147.779 48.2274 147.76 47.1049H148.552V47.103Z" fill="#818592"/>
</svg>
