<svg width="170" height="60" viewBox="0 0 170 60" fill="none" xmlns="http://www.w3.org/2000/svg">
<path d="M150.353 41.3351C147.398 41.3456 144.443 41.3456 141.488 41.3562C139.24 41.3562 136.981 41.3456 134.733 41.3668C134.332 41.3668 134.248 41.2612 134.248 40.8707C134.258 33.1029 134.258 25.3245 134.248 17.5567C134.248 17.1346 134.375 17.0396 134.776 17.0396C139.683 17.0501 144.591 17.0501 149.499 17.0396C149.879 17.0396 150.005 17.1135 150.005 17.5251C149.973 19.0026 149.973 20.4802 150.005 21.9578C150.016 22.4011 149.857 22.4644 149.467 22.4538C146.723 22.4433 143.979 22.4538 141.235 22.4327C140.813 22.4327 140.707 22.5383 140.728 22.9499C140.76 23.8997 140.76 24.8496 140.728 25.7995C140.718 26.1478 140.823 26.2322 141.171 26.2322C143.493 26.2216 145.815 26.2322 148.137 26.2111C148.528 26.2111 148.675 26.285 148.665 26.7177C148.633 28.1952 148.633 29.6728 148.665 31.1504C148.675 31.5726 148.538 31.6359 148.158 31.6253C145.836 31.6042 143.514 31.6253 141.192 31.6042C140.844 31.6042 140.707 31.6675 140.718 32.0475C140.749 33.1768 140.749 34.2955 140.718 35.4248C140.707 35.8153 140.791 35.9525 141.224 35.9525C144.264 35.9314 147.314 35.9419 150.353 35.9419C150.353 37.7467 150.353 39.5409 150.353 41.3351Z" fill="#818592"/>
<path d="M71.8627 41.81C68.7703 41.7361 65.8046 40.7335 63.2189 38.6649C62.8706 38.3799 62.8811 38.2322 63.1556 37.905C64.1793 36.723 65.1819 35.5198 66.1529 34.2955C66.4484 33.9261 66.6173 33.9472 66.9761 34.2111C68.3904 35.2665 69.9313 36.0158 71.7149 36.2269C72.4432 36.3113 73.1608 36.248 73.8469 36.0158C74.4801 35.8047 74.8917 35.3826 74.955 34.686C75.0078 34.0422 74.6912 33.6095 74.174 33.3034C73.7624 33.0712 73.3297 32.8707 72.897 32.6807C71.43 32.0686 69.9418 31.4881 68.4748 30.8549C66.1846 29.8628 64.4959 28.2902 63.9155 25.7678C63.2294 22.7493 64.5065 19.8153 67.1978 18.1055C71.1133 15.6148 76.992 16.1847 80.6859 19.6148C80.897 19.8047 80.8442 19.9314 80.6964 20.1214C79.7677 21.2718 78.8495 22.4222 77.9418 23.5831C77.7413 23.847 77.5935 23.8681 77.3191 23.6675C75.9999 22.7388 74.554 22.1478 72.9181 22.1266C72.3165 22.1161 71.7255 22.1794 71.1767 22.4433C70.0685 22.971 69.9629 24.1741 70.955 24.8813C71.5461 25.3034 72.2321 25.5356 72.897 25.7995C74.2479 26.3377 75.6094 26.8443 76.9603 27.3931C79.5883 28.4485 81.3086 30.2639 81.5408 33.1979C81.7941 36.3852 80.4748 38.781 77.7519 40.4063C75.9893 41.4617 74.0685 41.7889 71.8627 41.81Z" fill="#818592"/>
<path d="M112.19 29.3879C112.222 25.9578 113.098 22.8338 115.462 20.2375C119.24 16.0897 126.28 15.0132 131.103 19.3931C131.441 19.6992 131.493 19.8892 131.177 20.2586C130.248 21.3351 129.351 22.4433 128.475 23.562C128.232 23.8681 128.084 23.9208 127.768 23.6464C126.691 22.7071 125.467 22.0844 124 22.1478C121.931 22.2427 120.506 23.3826 119.673 25.1873C118.459 27.8047 118.48 30.5277 119.567 33.1662C120.77 36.1108 123.915 37.1029 126.702 35.5409C127.272 35.2243 127.789 34.8232 128.253 34.3694C128.39 34.2322 128.464 34.1372 128.644 34.3483C129.646 35.5726 130.66 36.7863 131.683 37.9894C131.894 38.2427 131.725 38.3588 131.588 38.5066C130.068 40.1425 128.232 41.219 126.026 41.5989C122.543 42.19 119.303 41.5989 116.475 39.4037C114.206 37.6412 113.013 35.2243 112.485 32.438C112.274 31.4248 112.211 30.4011 112.19 29.3879Z" fill="#818592"/>
<path d="M84.3904 29.1979C84.3904 25.314 84.4009 21.4301 84.3798 17.5356C84.3798 17.1135 84.4959 17.0185 84.897 17.029C86.7123 17.0501 88.517 17.0501 90.3323 17.029C90.7651 17.0185 90.8389 17.1557 90.8389 17.5462C90.8284 23.4354 90.8284 29.3245 90.8284 35.2243C90.8284 35.9525 90.8284 35.9525 91.5777 35.9525C94.2373 35.9525 96.8864 35.9631 99.5461 35.942C99.926 35.942 100.042 36.0158 100.042 36.4274C100.01 37.9261 100.021 39.4142 100.032 40.9129C100.032 41.2295 99.9999 41.3668 99.6199 41.3668C94.6806 41.3562 89.7413 41.3562 84.7914 41.3668C84.4115 41.3668 84.3798 41.2295 84.3798 40.9129C84.3904 37.0079 84.3904 33.1029 84.3904 29.1979Z" fill="#818592"/>
<path d="M109.52 29.2507C109.52 33.1029 109.509 36.9551 109.53 40.8074C109.53 41.2929 109.393 41.3668 108.95 41.3668C107.124 41.3456 105.287 41.3456 103.462 41.3668C103.145 41.3668 103.05 41.3034 103.05 40.9657C103.061 33.124 103.061 25.2823 103.05 17.4406C103.05 17.1029 103.156 17.0396 103.462 17.0396C105.34 17.0501 107.229 17.0607 109.108 17.0396C109.488 17.0396 109.52 17.1873 109.52 17.4934C109.52 21.409 109.52 25.3351 109.52 29.2507Z" fill="#818592"/>
<path d="M51.5883 17.2401C51.145 16.7652 50.7228 16.2902 50.2901 15.8047C50.1213 15.562 49.9102 15.3404 49.6569 15.1821C49.2558 14.8021 48.8759 14.3905 48.4009 14.1055C47.9577 13.6834 47.4616 13.3351 46.9234 13.0396C46.5329 12.7441 46.1213 12.4802 45.6674 12.3008C45.0659 11.9208 44.4326 11.6148 43.7571 11.3826C43.1767 11.1187 42.5856 10.8971 41.9735 10.7599C41.7202 10.6966 41.4775 10.6227 41.2242 10.5594C40.6753 10.4116 40.116 10.285 39.5461 10.2427C39.1978 10.19 38.8495 10.0844 38.4801 10.1266C38.4484 10.1161 38.4168 10.1055 38.3746 10.095C38.3746 10.0633 38.3746 10.0317 38.3746 10C38.1951 10 38.0263 10 37.8469 10C37.3191 10 36.7914 10 36.2637 10C36.1899 10 36.1265 10 36.0527 10C35.736 10.2216 35.3244 10.0422 34.9972 10.2216C34.4484 10.2322 33.9207 10.3588 33.393 10.5172C32.8864 10.5805 32.4009 10.7388 31.9366 10.9499C31.335 11.0976 30.7756 11.3404 30.2374 11.6464C29.5936 11.9314 28.9709 12.2691 28.4221 12.7124C27.9682 12.9868 27.5355 13.2823 27.1767 13.6728C26.6595 14.0211 26.2268 14.4538 25.8363 14.9393C25.5936 15.1926 25.3191 15.4142 25.1608 15.752C24.9709 15.8997 24.8442 16.0897 24.7387 16.3008C24.4115 16.6385 24.1793 17.0396 23.9893 17.4512C23.7783 17.7045 23.6305 18 23.5144 18.3061C23.24 18.7704 23.0184 19.2559 22.8706 19.7836C22.6595 20.1847 22.5223 20.6069 22.4484 21.0501C22.2374 21.5989 22.1213 22.1583 22.0368 22.7388C21.9207 23.2559 21.8469 23.7836 21.8257 24.3219C21.7941 24.9657 21.6674 25.6095 21.7519 26.2639C21.7519 26.3588 21.7519 26.4538 21.8046 26.5488C21.8046 26.9815 21.7519 27.4142 21.8996 27.8364C21.8996 28.3325 21.9629 28.8074 22.1213 29.2823C22.1529 29.7573 22.269 30.2111 22.4379 30.6544C22.4379 30.8865 22.5118 31.0976 22.6279 31.2876C22.7545 31.7942 22.9023 32.3008 23.145 32.7652C23.3561 33.3984 23.6305 34 23.9788 34.5594C24.4221 35.5092 24.992 36.3747 25.6252 37.1979C25.6885 37.2718 25.7519 37.3456 25.8046 37.4195C25.8046 37.81 25.4458 37.905 25.2136 38.0844C23.4405 39.5303 21.6569 40.9129 19.8732 42.2955C19.6411 42.4749 19.5461 42.591 19.7888 42.8654C20.3587 43.5092 20.9075 44.1636 21.5619 44.7335C22.1107 45.3245 22.7334 45.8417 23.4089 46.2955C24.021 46.8021 24.6754 47.2348 25.393 47.5831C25.7835 47.8575 26.1951 48.0897 26.649 48.2375C27.2822 48.5963 27.9577 48.8707 28.6648 49.0396C29.1397 49.2507 29.6252 49.3879 30.1424 49.4617C30.2585 49.504 30.3746 49.5356 30.4907 49.5778C31.1661 49.7889 31.9049 49.7361 32.5698 50C32.6437 50 32.707 50 32.7809 50C32.9181 50 33.0659 50 33.2031 50C33.8363 50 34.4695 50 35.1028 50C35.3139 50 35.525 50 35.736 50C35.736 49.9683 35.736 49.9367 35.736 49.905C36.5276 49.8311 37.3086 49.7467 38.0579 49.4723C38.5751 49.4195 39.0606 49.2401 39.525 49.029C40.3904 48.7546 41.2031 48.3958 41.9524 47.8892C42.3112 47.7203 42.6595 47.5409 42.9339 47.2559C43.4089 47.0132 43.8099 46.6755 44.1793 46.2955C44.6542 45.9261 45.1292 45.5462 45.4669 45.0396C46.174 44.3536 46.7545 43.5726 47.2294 42.6966C47.8205 41.81 48.2532 40.8496 48.5804 39.847C48.9392 38.9288 49.1819 37.9789 49.3191 36.9974C49.3825 36.6069 49.488 36.2269 49.4458 35.8364C49.5619 35.277 49.583 34.7177 49.5408 34.1478C49.5513 33.715 49.6041 33.2718 49.4669 32.8496C49.4564 32.8707 49.4352 32.8918 49.4247 32.9024C49.4352 32.8813 49.4564 32.8707 49.4669 32.8496C49.4775 32.2164 49.4141 31.5937 49.2347 30.9815C49.1397 30.1055 48.9286 29.2612 48.6015 28.4485C48.517 27.9631 48.3271 27.5092 48.1054 27.066C47.9788 26.6227 47.7782 26.2111 47.5355 25.81C47.4089 25.4723 47.24 25.1451 47.0184 24.8602C46.7967 24.3641 46.5118 23.9103 46.174 23.4881C46.0157 23.1609 45.8046 22.876 45.5408 22.6227C45.5091 22.591 45.4775 22.5488 45.4458 22.5171C45.4352 22.3377 45.5724 22.285 45.678 22.2005C47.5883 20.7018 49.5091 19.2032 51.4194 17.7045C51.5883 17.5884 51.8416 17.5145 51.5883 17.2401ZM35.9366 29.9367C35.9471 29.9261 35.9471 29.9367 35.9366 29.9367C35.9471 29.9261 35.9471 29.9367 35.9577 29.9367C35.9577 29.9367 35.9471 29.9367 35.9366 29.9367Z" fill="#818592"/>
</svg>
