<svg width="170" height="60" viewBox="0 0 170 60" fill="none" xmlns="http://www.w3.org/2000/svg">
<path d="M38.8449 47.0271H38.8509C40.1551 47.0271 41.406 46.5098 42.3293 45.5886C43.2525 44.6674 43.7726 43.4176 43.7755 42.1134V24.5249C43.7736 23.715 43.5719 22.9182 43.1884 22.2049C42.8049 21.4916 42.2515 20.8839 41.577 20.4356L28.3859 11.6194C27.5735 11.073 26.6168 10.7812 25.6378 10.7812C24.6588 10.7812 23.702 11.073 22.8896 11.6194L9.69852 20.4136C9.02254 20.8629 8.4681 21.4724 8.08454 22.1878C7.70097 22.9031 7.50017 23.7022 7.5 24.5139V42.1024C7.49997 42.7528 7.6288 43.3968 7.87903 43.9972C8.12926 44.5976 8.49595 45.1424 8.95792 45.6003C9.41988 46.0582 9.96798 46.4201 10.5706 46.6649C11.1731 46.9098 11.8182 47.0329 12.4687 47.0271H19.5918V28.6256C19.5918 28.2975 19.6568 27.9726 19.783 27.6697C19.9093 27.3669 20.0942 27.092 20.3272 26.861C20.5603 26.6301 20.8367 26.4475 21.1407 26.324C21.4446 26.2004 21.7701 26.1383 22.0982 26.1412H27.5944C28.8572 26.1518 30.0823 26.5732 31.0843 27.3418C32.0864 28.1103 32.8111 29.1841 33.1488 30.401C33.4866 31.6178 33.419 32.9116 32.9563 34.0866C32.4937 35.2617 31.6611 36.2542 30.5844 36.9141C30.4465 37.0075 30.334 37.1338 30.2572 37.2816C30.1804 37.4294 30.1418 37.594 30.1447 37.7606C30.143 40.1234 31.0429 42.3979 32.6608 44.12C34.2773 45.8406 36.4888 46.8802 38.8449 47.0271Z" fill="#818592"/>
<path d="M55.9443 43.8064C55.9554 43.8937 55.9461 43.9824 55.9172 44.0656C55.8884 44.1487 55.8407 44.2241 55.7779 44.2858C55.7152 44.3475 55.639 44.3939 55.5554 44.4213C55.4717 44.4488 55.3829 44.4565 55.2957 44.444H53.2182C53.131 44.4565 53.0422 44.4488 52.9585 44.4213C52.8749 44.3939 52.7987 44.3475 52.736 44.2858C52.6732 44.2241 52.6255 44.1487 52.5966 44.0656C52.5678 43.9824 52.5585 43.8937 52.5696 43.8064V26.6686C52.5585 26.5813 52.5678 26.4926 52.5966 26.4094C52.6255 26.3263 52.6732 26.2509 52.736 26.1892C52.7987 26.1275 52.8749 26.0811 52.9585 26.0537C53.0422 26.0262 53.131 26.0185 53.2182 26.031H58.3957C62.9796 26.031 65.1781 27.8888 65.1781 31.7143C65.1781 34.5944 63.9689 36.3972 61.4626 37.1228L65.288 43.7184C65.5408 44.1582 65.376 44.4989 64.8373 44.4989H62.4629C62.3025 44.5109 62.1421 44.4756 62.0014 44.3974C61.8608 44.3193 61.7461 44.2017 61.6714 44.0592L58.2418 37.5735H56.0432V43.8723L55.9443 43.8064ZM58.3957 34.6274C60.7261 34.6274 61.7704 33.715 61.7704 31.8023C61.7704 29.8895 60.7261 28.9222 58.3957 28.9222H55.9443V34.6384H58.3957V34.6274ZM78.5121 35.5948V37.8703C78.5231 37.9576 78.5139 38.0463 78.485 38.1295C78.4562 38.2126 78.4085 38.288 78.3457 38.3497C78.283 38.4114 78.2068 38.4578 78.1231 38.4852C78.0395 38.5127 77.9507 38.5204 77.8635 38.5079H70.8283V39.0575C70.8283 41.2561 71.7297 42.1685 73.7523 42.1685C74.6819 42.171 75.5807 41.835 76.2806 41.2231C76.338 41.1549 76.4111 41.1017 76.4937 41.0681C76.5762 41.0344 76.6657 41.0214 76.7544 41.03C76.8431 41.0387 76.9284 41.0688 77.0029 41.1177C77.0774 41.1667 77.1388 41.233 77.182 41.311L77.9405 42.4103C77.9958 42.4742 78.0371 42.5491 78.0617 42.63C78.0863 42.7109 78.0936 42.796 78.0833 42.8799C78.0729 42.9638 78.0451 43.0446 78.0015 43.1171C77.958 43.1896 77.8998 43.2521 77.8306 43.3007C76.6703 44.3011 75.1852 44.8443 73.6534 44.8287C69.795 44.8287 67.7723 43.0259 67.7723 39.3323V35.5948C67.7723 32.187 69.685 30.3292 73.1477 30.3292C76.6104 30.3292 78.5121 32.187 78.5121 35.5948ZM75.5881 35.8146C75.5881 33.8689 74.8296 32.9345 73.2247 32.9345C71.6197 32.9345 70.8283 33.8799 70.8283 35.8146V36.2324H75.5881V35.8146ZM88.6802 35.7047C88.6802 33.8139 87.9437 32.9345 86.4048 32.9345C84.8658 32.9345 84.0963 33.8249 84.0963 35.7047V43.8064C84.1074 43.8937 84.0981 43.9824 84.0693 44.0656C84.0404 44.1487 83.9927 44.2241 83.93 44.2858C83.8672 44.3475 83.791 44.3939 83.7074 44.4213C83.6237 44.4488 83.5349 44.4565 83.4478 44.444H81.667C81.5798 44.4565 81.491 44.4488 81.4074 44.4213C81.3237 44.3939 81.2475 44.3475 81.1848 44.2858C81.122 44.2241 81.0743 44.1487 81.0455 44.0656C81.0166 43.9824 81.0073 43.8937 81.0184 43.8064V35.5178C81.0184 32.132 82.9091 30.3292 86.3938 30.3292C89.8784 30.3292 91.7362 32.132 91.7362 35.5178V43.8064C91.7472 43.8937 91.738 43.9824 91.7091 44.0656C91.6803 44.1487 91.6326 44.2241 91.5698 44.2858C91.507 44.3475 91.4309 44.3939 91.3472 44.4213C91.2636 44.4488 91.1747 44.4565 91.0876 44.444H89.3288C89.2417 44.4565 89.1528 44.4488 89.0692 44.4213C88.9855 44.3939 88.9094 44.3475 88.8466 44.2858C88.7838 44.2241 88.7362 44.1487 88.7073 44.0656C88.6784 43.9824 88.6692 43.8937 88.6802 43.8064V35.7047ZM102.971 43.5316C103.006 43.6084 103.026 43.6917 103.028 43.7764C103.03 43.861 103.014 43.9452 102.982 44.0236C102.95 44.102 102.903 44.173 102.842 44.2321C102.781 44.2912 102.709 44.3371 102.63 44.367C101.886 44.6802 101.085 44.8373 100.277 44.8287C97.1226 44.8287 95.5506 43.2458 95.5506 40.1458V33.2643H94.3414C94.2543 33.2768 94.1655 33.2691 94.0818 33.2417C93.9982 33.2142 93.922 33.1679 93.8592 33.1062C93.7964 33.0444 93.7488 32.9691 93.7199 32.8859C93.6911 32.8028 93.6818 32.714 93.6929 32.6267V31.2966C93.6818 31.2093 93.6911 31.1206 93.7199 31.0374C93.7488 30.9542 93.7964 30.8789 93.8592 30.8172C93.922 30.7555 93.9982 30.7091 94.0818 30.6816C94.1655 30.6542 94.2543 30.6465 94.3414 30.659H95.5286V27.691C95.5176 27.6036 95.5268 27.5149 95.5557 27.4318C95.5845 27.3486 95.6322 27.2732 95.695 27.2115C95.7578 27.1498 95.8339 27.1034 95.9176 27.076C96.0012 27.0486 96.0901 27.0408 96.1772 27.0534H97.969C98.0561 27.0408 98.145 27.0486 98.2286 27.076C98.3122 27.1034 98.3884 27.1498 98.4512 27.2115C98.5139 27.2732 98.5616 27.3486 98.5905 27.4318C98.6193 27.5149 98.6286 27.6036 98.6175 27.691V30.659H102.036C102.123 30.6465 102.212 30.6542 102.296 30.6816C102.379 30.7091 102.456 30.7555 102.518 30.8172C102.581 30.8789 102.629 30.9542 102.658 31.0374C102.687 31.1206 102.696 31.2093 102.685 31.2966V32.6267C102.696 32.714 102.687 32.8028 102.658 32.8859C102.629 32.9691 102.581 33.0444 102.518 33.1062C102.456 33.1679 102.379 33.2142 102.296 33.2417C102.212 33.2691 102.123 33.2768 102.036 33.2643H98.6285V40.0908C98.5899 40.3679 98.6152 40.6501 98.7023 40.916C98.7895 41.1818 98.9362 41.4242 99.1314 41.6247C99.3265 41.8251 99.5649 41.9783 99.8283 42.0726C100.092 42.1668 100.373 42.1996 100.651 42.1685C101.027 42.1584 101.399 42.0841 101.75 41.9486C101.825 41.9024 101.91 41.8752 101.998 41.8693C102.085 41.8634 102.173 41.879 102.253 41.9148C102.333 41.9505 102.404 42.0054 102.458 42.0745C102.512 42.1436 102.548 42.2249 102.564 42.3114L102.971 43.5316ZM115.865 35.5948V39.5082C115.865 42.894 113.919 44.7738 110.369 44.7738C106.818 44.7738 104.872 42.883 104.872 39.5082V25.6683C104.861 25.5774 104.872 25.4853 104.904 25.3995C104.936 25.3138 104.988 25.237 105.056 25.1756C105.124 25.1142 105.206 25.07 105.294 25.0467C105.383 25.0234 105.476 25.0217 105.565 25.0417H107.335C107.422 25.0292 107.511 25.0369 107.594 25.0643C107.678 25.0918 107.754 25.1381 107.817 25.1998C107.88 25.2616 107.927 25.3369 107.956 25.4201C107.985 25.5032 107.994 25.592 107.983 25.6793V31.4175H108.038C108.417 31.0406 108.872 30.7478 109.372 30.5584C109.872 30.369 110.406 30.2872 110.94 30.3182C114.128 30.3292 115.865 32.187 115.865 35.5948ZM112.798 35.8146C112.798 33.8689 112.039 32.9345 110.38 32.9345C108.72 32.9345 107.983 33.9019 107.983 35.8146V39.2554C107.983 41.2231 108.775 42.1685 110.38 42.1685C111.985 42.1685 112.798 41.2231 112.798 39.2554V35.8146ZM129.089 35.5948V37.8703C129.1 37.9576 129.091 38.0463 129.062 38.1295C129.033 38.2126 128.985 38.288 128.923 38.3497C128.86 38.4114 128.784 38.4578 128.7 38.4852C128.616 38.5127 128.528 38.5204 128.44 38.5079H121.405V39.0575C121.405 41.2561 122.307 42.1685 124.329 42.1685C125.259 42.171 126.158 41.835 126.858 41.2231C126.915 41.1549 126.988 41.1017 127.071 41.0681C127.153 41.0344 127.243 41.0214 127.331 41.03C127.42 41.0387 127.505 41.0688 127.58 41.1177C127.654 41.1667 127.716 41.233 127.759 41.311L128.517 42.4103C128.573 42.4742 128.614 42.5491 128.639 42.63C128.663 42.7109 128.671 42.796 128.66 42.8799C128.65 42.9638 128.622 43.0446 128.578 43.1171C128.535 43.1896 128.477 43.2521 128.407 43.3007C127.244 44.3036 125.755 44.847 124.219 44.8287C120.361 44.8287 118.338 43.0259 118.338 39.3323V35.5948C118.338 32.187 120.251 30.3292 123.714 30.3292C127.176 30.3292 129.089 32.187 129.089 35.5948ZM126.165 35.8146C126.165 33.8689 125.406 32.9345 123.802 32.9345C122.197 32.9345 121.405 33.8799 121.405 35.8146V36.2324H126.165V35.8146ZM131.595 35.5398C131.595 32.132 133.255 30.3292 136.487 30.3292C137.59 30.2988 138.68 30.5686 139.642 31.1097C139.715 31.1494 139.779 31.2037 139.83 31.2693C139.881 31.3348 139.918 31.4101 139.938 31.4906C139.959 31.571 139.963 31.6549 139.95 31.7369C139.937 31.8188 139.907 31.8972 139.862 31.9672L139.213 33.0664C139.18 33.1465 139.128 33.2177 139.062 33.2744C138.996 33.3311 138.918 33.3717 138.834 33.393C138.75 33.4143 138.662 33.4158 138.577 33.3973C138.492 33.3787 138.412 33.3407 138.345 33.2863C137.866 33.0355 137.335 32.9035 136.795 32.9015C135.355 32.9015 134.651 33.737 134.651 35.4299V43.7734C134.662 43.8607 134.653 43.9494 134.624 44.0326C134.595 44.1158 134.548 44.1911 134.485 44.2528C134.422 44.3145 134.346 44.3609 134.262 44.3884C134.179 44.4158 134.09 44.4235 134.003 44.411H132.233C132.146 44.4235 132.057 44.4158 131.973 44.3884C131.89 44.3609 131.813 44.3145 131.751 44.2528C131.688 44.1911 131.64 44.1158 131.611 44.0326C131.583 43.9494 131.573 43.8607 131.584 43.7734V35.5398H131.595ZM141.445 35.5398C141.445 32.132 143.105 30.3292 146.336 30.3292C147.439 30.2988 148.53 30.5686 149.491 31.1097C149.564 31.1494 149.628 31.2037 149.679 31.2693C149.73 31.3348 149.767 31.4101 149.788 31.4906C149.808 31.571 149.812 31.6549 149.799 31.7369C149.786 31.8188 149.756 31.8972 149.711 31.9672L149.063 33.0664C149.029 33.1465 148.977 33.2177 148.911 33.2744C148.845 33.3311 148.767 33.3717 148.683 33.393C148.599 33.4143 148.511 33.4158 148.426 33.3973C148.341 33.3787 148.262 33.3407 148.194 33.2863C147.716 33.0355 147.184 32.9035 146.644 32.9015C145.204 32.9015 144.501 33.737 144.501 35.4299V43.7734C144.512 43.8607 144.502 43.9494 144.474 44.0326C144.445 44.1158 144.397 44.1911 144.334 44.2528C144.271 44.3145 144.195 44.3609 144.112 44.3884C144.028 44.4158 143.939 44.4235 143.852 44.411H142.082C141.995 44.4235 141.906 44.4158 141.823 44.3884C141.739 44.3609 141.663 44.3145 141.6 44.2528C141.537 44.1911 141.49 44.1158 141.461 44.0326C141.432 43.9494 141.423 43.8607 141.434 43.7734V35.5398H141.445ZM161.847 30.659C161.934 30.6465 162.023 30.6542 162.107 30.6816C162.19 30.7091 162.266 30.7555 162.329 30.8172C162.392 30.8789 162.44 30.9542 162.468 31.0374C162.497 31.1206 162.507 31.2093 162.495 31.2966V44.1691C162.495 47.3021 160.44 49.2148 156.999 49.2148C155.352 49.2712 153.735 48.7631 152.415 47.7748C152.345 47.7274 152.285 47.6653 152.24 47.5928C152.196 47.5203 152.167 47.4391 152.157 47.3547C152.147 47.2702 152.154 47.1845 152.18 47.1034C152.206 47.0222 152.248 46.9475 152.305 46.8844L153.042 45.7851C153.078 45.7012 153.134 45.6277 153.206 45.5716C153.278 45.5155 153.363 45.4786 153.453 45.4643C153.543 45.45 153.635 45.4588 153.721 45.4899C153.807 45.5211 153.883 45.5734 153.943 45.6422C154.779 46.273 155.798 46.6127 156.845 46.6095C157.197 46.6577 157.556 46.6244 157.893 46.5121C158.23 46.3998 158.537 46.2116 158.789 45.962C159.042 45.7123 159.234 45.408 159.351 45.0724C159.467 44.7367 159.505 44.3788 159.462 44.0262V43.2018H159.407C159.027 43.5787 158.573 43.8714 158.073 44.0609C157.573 44.2503 157.038 44.3321 156.505 44.3011C153.471 44.3011 151.8 42.4653 151.8 39.1125V31.2966C151.789 31.2093 151.798 31.1206 151.827 31.0374C151.856 30.9542 151.903 30.8789 151.966 30.8172C152.029 30.7555 152.105 30.7091 152.189 30.6816C152.272 30.6542 152.361 30.6465 152.448 30.659H154.218C154.305 30.6465 154.394 30.6542 154.478 30.6816C154.561 30.7091 154.637 30.7555 154.7 30.8172C154.763 30.8789 154.811 30.9542 154.84 31.0374C154.868 31.1206 154.878 31.2093 154.867 31.2966V38.8706C154.867 40.7834 155.603 41.6738 157.175 41.6738C158.747 41.6738 159.451 40.7284 159.451 38.8706V31.2966C159.439 31.2093 159.449 31.1206 159.478 31.0374C159.506 30.9542 159.554 30.8789 159.617 30.8172C159.68 30.7555 159.756 30.7091 159.839 30.6816C159.923 30.6542 160.012 30.6465 160.099 30.659H161.869H161.847Z" fill="#818592"/>
</svg>
