<svg width="170" height="60" viewBox="0 0 170 60" fill="none" xmlns="http://www.w3.org/2000/svg">
<path d="M39.9995 52.5C39.2502 51.9264 38.3743 51.5672 37.5854 51.0602C37.5477 51.0361 37.5158 51.0003 37.482 50.9704C37.4173 50.6874 37.6616 50.5793 37.8075 50.4325C39.5379 48.6905 41.2752 46.9561 43.0124 45.2218C43.2509 44.9833 43.4778 44.7361 43.6565 44.4483C43.8882 44.2194 44.2494 44.175 44.4454 43.894C44.3035 43.6806 44.485 43.5637 44.597 43.4498C45.6641 42.3673 46.7408 41.2944 47.8195 40.2235C47.9267 40.1173 48.03 39.9705 48.2231 40.0352C48.7397 40.3239 49.2535 40.6185 49.7759 40.8966C49.9642 40.997 49.9999 41.1399 49.9999 41.3302C49.9961 43.0655 49.9912 44.8008 50.0048 46.5361C50.0067 46.8248 49.8425 46.9156 49.6417 47.0314C46.623 48.7629 43.6063 50.4991 40.5895 52.2364C40.4524 52.3156 40.3249 52.4112 40.1926 52.499C40.1279 52.5 40.0642 52.5 39.9995 52.5Z" fill="#818592"/>
<path d="M20.5896 38.4011C20.5896 35.1825 20.5896 31.963 20.5896 28.7444C20.7402 28.4692 20.9971 28.2925 21.2115 28.0772C22.5151 26.7677 23.8217 25.4602 25.1321 24.1575C25.2982 23.9924 25.4662 23.7085 25.7134 23.7993C25.9896 23.9007 25.8428 24.2232 25.8438 24.4424C25.8534 27.4157 25.8496 30.388 25.8505 33.3603C25.8505 33.482 25.7839 33.5679 25.6989 33.6471C24.1481 35.0937 22.6947 36.6378 21.1758 38.1162C21.0213 38.2669 20.8996 38.544 20.5896 38.4011Z" fill="#818592"/>
<path d="M25.7858 33.4862C25.7916 30.3865 25.7984 27.2867 25.8013 24.1859C25.8013 24.0807 25.8554 23.9349 25.7289 23.8817C25.5773 23.817 25.5077 23.9764 25.4237 24.0604C24.0013 25.477 22.5818 26.8975 21.1632 28.319C20.9923 28.4909 20.8214 28.6589 20.5896 28.7458C20.5896 25.3978 20.5896 22.0508 20.5896 18.7029C21.5794 18.2442 22.4852 17.6339 23.4373 17.1066C24.0969 16.7407 24.7449 16.3544 25.4005 15.9807C25.8534 15.7219 25.8563 15.7248 25.8563 16.2665C25.8573 19.739 25.8563 23.2125 25.8563 26.6851C25.8563 30.3826 25.8563 34.0811 25.8583 37.7786C25.8583 37.9544 25.8843 38.1292 25.8979 38.3049C25.6497 38.2663 25.6651 38.0548 25.6622 37.8945C25.6371 36.5619 25.641 35.2293 25.6574 33.8967C25.6603 33.7479 25.725 33.6176 25.7858 33.4862Z" fill="#818592"/>
<path d="M30.2627 19.088C30.2578 17.2069 30.2617 15.3257 30.2376 13.4456C30.2337 13.1163 30.4481 13.0458 30.647 12.9309C33.6377 11.2101 36.6303 9.49217 39.62 7.76942C39.7532 7.69313 39.9251 7.66127 40.0004 7.5C40.0651 7.5 40.1289 7.5 40.1936 7.5C40.5924 7.75204 40.9902 8.00408 41.3891 8.25612C39.1593 10.482 36.9335 12.7098 34.7057 14.9375C33.4088 16.2335 32.1158 17.5333 30.8131 18.8224C30.6673 18.9644 30.5514 19.2241 30.2627 19.088Z" fill="#818592"/>
<path d="M25.7858 33.4862C25.7916 34.927 25.7955 36.3666 25.8061 37.8074C25.8071 37.9754 25.7424 38.1637 25.8988 38.3057C26.3005 38.5036 26.6926 38.7171 27.0547 38.9836C27.0344 39.14 26.9186 39.2337 26.8172 39.3341C25.7434 40.4118 24.6666 41.4866 23.5909 42.5623C23.5001 42.6531 23.4093 42.7439 23.2799 42.7796C22.5267 42.3528 21.7745 41.924 21.0193 41.5001C20.8822 41.4228 20.7325 41.3659 20.5896 41.2992C20.5896 40.3336 20.5896 39.3679 20.5896 38.4022C20.8136 38.3984 20.9179 38.2149 21.0512 38.0826C22.4533 36.6863 23.8516 35.286 25.2499 33.8858C25.4092 33.7246 25.5686 33.5683 25.7858 33.4862Z" fill="#818592"/>
<path d="M149.409 40.1394C148.505 41.4363 146.937 41.8669 145.44 41.2354C145.155 41.1147 144.905 40.9438 144.693 40.7188C144.137 40.1316 144.164 40.0071 144.862 39.643C145.092 39.5233 145.191 39.5436 145.353 39.7686C145.847 40.4619 147.048 40.6753 147.799 40.2533C148.061 40.1056 148.217 39.8864 148.224 39.5986C148.23 39.3002 148.049 39.0936 147.784 38.9613C147.433 38.7845 147.05 38.7334 146.667 38.6957C146.232 38.6532 145.809 38.5682 145.409 38.3925C144.769 38.1124 144.442 37.6142 144.438 36.9198C144.435 36.2622 144.746 35.7688 145.336 35.4974C146.441 34.9885 147.537 34.9924 148.592 35.6548C148.772 35.7678 148.898 35.9358 149.025 36.1029C149.16 36.2796 149.164 36.3868 148.94 36.5094C148.6 36.6948 148.35 36.8648 147.961 36.4959C147.503 36.0623 146.874 36.072 146.275 36.2391C145.94 36.3327 145.682 36.5471 145.67 36.9073C145.658 37.2916 145.95 37.4703 146.283 37.5417C146.753 37.6422 147.228 37.7175 147.702 37.7928C148.501 37.9193 149.111 38.2882 149.407 39.0771C149.409 39.4315 149.409 39.7859 149.409 40.1394Z" fill="#818592"/>
<path d="M149.409 30.8689C148.728 30.8737 148.045 30.8815 147.363 30.8815C147.266 30.8815 147.129 30.9365 147.097 30.7675C147.269 30.613 147.484 30.6256 147.691 30.6207C148.013 30.614 148.335 30.6101 148.657 30.6198C148.996 30.6294 149.175 30.4981 149.157 30.1427C149.151 30.0307 149.159 29.9177 149.159 29.8048C149.159 26.5225 149.16 23.2402 149.159 19.9579C149.159 19.1467 149.157 19.1467 148.368 19.1448C147.998 19.1438 147.628 19.1506 147.258 19.1409C147.067 19.1361 146.868 19.1496 146.714 18.997C146.783 18.8367 146.928 18.8802 147.048 18.8802C147.835 18.8811 148.623 18.8879 149.41 18.8937C149.409 22.8867 149.409 26.8778 149.409 30.8689Z" fill="#818592"/>
<path d="M30.2627 19.088C30.5002 19.0677 30.6083 18.8665 30.7522 18.7227C34.1185 15.3612 37.4829 11.9958 40.8492 8.63243C41.0047 8.47696 41.1321 8.27224 41.388 8.25678C43.1832 9.28135 44.9793 10.305 46.7726 11.3324C47.1048 11.5227 47.4273 11.7303 47.7547 11.9292C46.7233 12.9663 45.692 14.0025 44.6481 15.0261C44.4096 15.2607 44.2677 15.59 43.9451 15.7397C42.7728 15.0734 41.5966 14.4148 40.433 13.7331C40.1896 13.5911 40.0187 13.5998 39.7821 13.7379C38.4659 14.5075 37.141 15.2636 35.8142 16.0149C35.596 16.1385 35.4975 16.2718 35.4975 16.5403C35.51 21.8321 35.51 27.1239 35.5139 32.4158C35.5139 32.5114 35.5313 32.607 35.5409 32.7036C35.2194 32.5606 35.3333 32.2671 35.3324 32.0353C35.3227 29.737 35.3275 27.4387 35.3237 25.1405C35.3237 24.9734 35.3797 24.7919 35.259 24.6306C35.0658 24.675 34.9722 24.8363 34.8515 24.957C33.5304 26.2722 32.2162 27.5952 30.8913 28.9066C30.7232 29.0727 30.5861 29.3479 30.2616 29.2272C30.2626 25.8473 30.2627 22.4678 30.2627 19.088Z" fill="#818592"/>
<path d="M146.713 18.9981C147.484 18.9865 148.255 18.9798 149.026 18.9604C149.412 18.9508 149.309 19.2318 149.31 19.4317C149.315 21.8758 149.313 24.3208 149.313 26.7649C149.313 27.9546 149.296 29.1453 149.322 30.335C149.331 30.729 149.198 30.8314 148.83 30.8082C148.253 30.7724 147.675 30.7782 147.097 30.7667C147.097 27.9682 147.097 25.1697 147.097 22.2398C146.93 22.4513 146.828 22.5759 146.731 22.7043C145.638 24.1548 144.547 25.6061 143.455 27.0566C143.098 27.5317 142.855 27.5259 142.498 27.0363C141.354 25.4661 140.209 23.8969 139.058 22.3181C138.915 22.4475 138.984 22.6 138.984 22.7294C138.979 25.2865 138.973 27.8446 138.988 30.4016C138.99 30.7454 138.933 30.8922 138.548 30.8613C138.068 30.8227 137.583 30.8285 137.102 30.8603C136.767 30.8825 136.702 30.7522 136.703 30.4499C136.714 28.4394 136.709 26.4289 136.709 24.4184C136.709 22.7294 136.719 21.0405 136.7 19.3515C136.696 18.9856 136.799 18.8842 137.16 18.9025C137.866 18.9373 138.682 18.7065 139.25 18.9904C139.815 19.2724 140.138 20.0478 140.557 20.6146C141.283 21.5957 142.017 22.573 142.718 23.5715C142.963 23.9201 143.073 23.9925 143.359 23.5908C144.456 22.0448 145.592 20.5268 146.713 18.9981Z" fill="#818592"/>
<path d="M112.375 24.8388C112.375 23.005 112.383 21.1722 112.368 19.3384C112.365 19.01 112.444 18.9019 112.791 18.9028C115.51 18.9173 118.227 18.9154 120.945 18.9048C121.231 18.9038 121.349 18.9618 121.332 19.2727C121.306 19.7372 121.302 20.2065 121.333 20.671C121.356 21.0205 121.271 21.1306 120.894 21.1258C118.948 21.1036 117.002 21.1248 115.056 21.1065C114.714 21.1036 114.622 21.1924 114.637 21.5295C114.666 22.1716 114.664 22.8167 114.637 23.4589C114.624 23.7659 114.722 23.8277 115.012 23.8258C116.894 23.8123 118.776 23.8297 120.658 23.8094C121.019 23.8055 121.137 23.8944 121.107 24.2594C121.072 24.6746 121.075 25.0966 121.106 25.5128C121.132 25.8643 120.997 25.9367 120.67 25.9338C118.821 25.9194 116.971 25.9416 115.121 25.9155C114.704 25.9097 114.613 26.0333 114.636 26.4215C114.669 27.0144 114.663 27.6122 114.638 28.2061C114.624 28.5209 114.717 28.6068 115.035 28.6049C116.98 28.5894 118.927 28.6058 120.873 28.5894C121.221 28.5865 121.362 28.6541 121.334 29.0336C121.297 29.53 121.313 30.0302 121.33 30.5285C121.337 30.7796 121.258 30.8568 121.003 30.8568C118.237 30.8481 115.471 30.8452 112.704 30.8587C112.346 30.8607 112.374 30.6675 112.374 30.4338C112.376 28.5701 112.375 26.7044 112.375 24.8388Z" fill="#818592"/>
<path d="M76.6783 24.8692C76.6783 23.0518 76.689 21.2335 76.6697 19.4161C76.6658 19.0356 76.7315 18.8966 77.1564 18.9004C79.8264 18.9226 82.4975 18.9207 85.1675 18.9014C85.5683 18.8985 85.659 19.0279 85.6349 19.391C85.6069 19.8072 85.605 20.2292 85.6359 20.6444C85.6629 21.0123 85.5615 21.1311 85.1694 21.1263C83.2555 21.1031 81.3406 21.1273 79.4266 21.106C79.0442 21.1021 78.938 21.2074 78.9573 21.5811C78.9882 22.1904 78.9882 22.8046 78.9573 23.4139C78.939 23.7693 79.0684 23.8292 79.3899 23.8263C81.2556 23.8118 83.1222 23.8253 84.9879 23.8128C85.2853 23.8108 85.4205 23.862 85.3935 24.1981C85.3606 24.5978 85.3587 25.0044 85.3935 25.4032C85.4282 25.8069 85.3326 25.9478 84.8836 25.9401C83.0662 25.9092 81.2479 25.9382 79.4305 25.9179C79.051 25.9141 78.937 26.0154 78.9573 26.394C78.9892 26.9879 78.9853 27.5847 78.9583 28.1785C78.9419 28.5242 79.0616 28.6073 79.3938 28.6044C81.3077 28.5899 83.2227 28.6092 85.1366 28.587C85.5432 28.5822 85.6677 28.6952 85.6368 29.095C85.6021 29.5585 85.6175 30.0278 85.633 30.4942C85.6416 30.753 85.576 30.8592 85.2873 30.8573C82.5361 30.8467 79.7859 30.8457 77.0347 30.8583C76.7141 30.8602 76.6726 30.7395 76.6735 30.4652C76.6832 28.6015 76.6783 26.7358 76.6783 24.8692Z" fill="#818592"/>
<path d="M105.532 31.0787C104.218 31.0671 103.143 30.93 102.15 30.4008C101.31 29.9537 100.721 29.2777 100.299 28.4347C100.172 28.1788 100.228 28.062 100.475 27.9683C100.624 27.9123 100.76 27.8215 100.902 27.7481C101.244 27.5714 101.577 27.2778 101.931 27.2479C102.361 27.2112 102.365 27.7819 102.634 28.033C103.643 28.9726 104.851 29.1271 106.139 28.9967C106.57 28.9533 106.989 28.8287 107.369 28.6027C107.883 28.2976 108.161 27.8399 108.147 27.2518C108.134 26.6898 107.81 26.2987 107.315 26.0447C106.554 25.6546 105.718 25.5802 104.891 25.4682C104.174 25.3707 103.465 25.2316 102.789 24.966C101.434 24.434 100.711 23.4451 100.695 21.9812C100.68 20.5781 101.358 19.5757 102.612 19.0108C104.418 18.1977 106.264 18.2247 108.093 18.949C108.877 19.259 109.467 19.8239 109.897 20.5558C110.01 20.7499 110.008 20.8475 109.785 20.9547C109.324 21.1787 108.876 21.4317 108.429 21.6837C108.259 21.7793 108.173 21.7426 108.039 21.5988C107.031 20.5163 105.333 20.1493 103.961 20.7075C103.771 20.7847 103.581 20.888 103.422 21.0174C102.696 21.6075 102.802 22.6204 103.636 23.0386C104.325 23.3843 105.088 23.4277 105.835 23.5301C106.76 23.6566 107.664 23.8517 108.527 24.2302C110.995 25.3117 110.827 28.7968 109.105 30.0261C107.962 30.8421 106.675 31.0613 105.532 31.0787Z" fill="#818592"/>
<path d="M46.8876 22.5528C47.8494 23.0955 48.8093 23.6401 49.773 24.178C49.9304 24.2659 50.0019 24.3701 50.0019 24.5565C49.9961 28.2965 49.9951 32.0356 49.9912 35.7756C49.9912 35.8026 49.9623 35.8297 49.9468 35.8567C49.7585 35.6549 49.8184 35.4019 49.8184 35.1672C49.8136 33.2562 49.8165 31.3442 49.8145 29.4331C49.8145 29.2583 49.8435 29.0807 49.746 28.8228C48.2164 30.2742 46.8007 31.7874 45.302 33.2147C43.5715 32.22 41.843 31.2225 40.1096 30.2337C39.9435 30.139 39.8923 30.0251 39.903 29.8484C39.9174 29.6089 39.9155 29.3694 39.9213 29.1299C40.9053 28.2782 41.7812 27.3154 42.7063 26.4029C43.9066 25.219 45.0895 24.0196 46.286 22.8318C46.4453 22.6725 46.5853 22.4282 46.8876 22.5528Z" fill="#818592"/>
<path d="M134.072 23.1363C134.042 24.1889 134.184 25.4838 134.018 26.7595C133.632 29.7086 131.487 31.356 128.458 31.1001C125.429 30.8442 123.613 28.8665 123.611 25.8218C123.61 23.6664 123.619 21.5111 123.602 19.3567C123.599 18.9984 123.681 18.8719 124.052 18.9028C124.467 18.9376 124.89 18.9385 125.305 18.9028C125.715 18.8681 125.851 18.9714 125.845 19.4194C125.816 21.4773 125.832 23.537 125.833 25.5949C125.833 26.6001 125.98 27.5658 126.78 28.2785C127.72 29.1166 128.829 29.2248 129.983 28.8607C131.071 28.5179 131.559 27.6546 131.733 26.5895C131.795 26.211 131.814 25.8228 131.816 25.4384C131.824 23.3961 131.825 21.3537 131.813 19.3103C131.811 19.0003 131.882 18.8854 132.21 18.9038C132.707 18.9318 133.207 18.9299 133.705 18.9038C134.01 18.8883 134.083 18.9926 134.079 19.2843C134.062 20.4913 134.072 21.6974 134.072 23.1363Z" fill="#818592"/>
<path d="M59.586 19.1844C59.586 22.3392 59.586 25.495 59.586 28.6498C59.4508 28.9183 59.192 29.0689 58.9902 29.2727C57.6769 30.5966 56.3559 31.9128 55.0368 33.2319C54.9228 33.3458 54.8185 33.4733 54.6775 33.5515C54.5549 33.6201 54.4081 33.7147 54.3405 33.4801C54.3415 30.5396 54.3502 27.6001 54.3309 24.6606C54.328 24.2048 54.4651 23.9171 54.8089 23.6023C55.8991 22.6057 56.913 21.528 57.9608 20.4861C58.3248 20.1239 58.6812 19.7522 59.0549 19.3997C59.1997 19.2655 59.333 19.0675 59.586 19.1844Z" fill="#818592"/>
<path d="M30.2626 29.2275C30.4838 29.213 30.5852 29.0295 30.7184 28.8972C32.1418 27.4796 33.5594 26.0562 34.9847 24.6406C35.0996 24.5266 35.1923 24.2852 35.3884 24.374C35.5438 24.4445 35.4569 24.6666 35.4579 24.8192C35.4627 27.2623 35.4598 29.7045 35.4647 32.1476C35.4647 32.334 35.4 32.5358 35.5438 32.7039C35.7515 32.8275 35.9581 32.952 36.1657 33.0756C36.1455 33.2128 36.0431 33.2968 35.9543 33.3866C34.8602 34.4845 33.7632 35.5796 32.6671 36.6756C32.5764 36.7664 32.4837 36.8543 32.3572 36.8939C31.7411 36.5482 31.1288 36.1957 30.5079 35.8587C30.3157 35.7544 30.2414 35.6269 30.2423 35.4029C30.2549 33.3451 30.2568 31.2863 30.2626 29.2275Z" fill="#818592"/>
<path d="M66.5717 24.8334C66.5717 22.9822 66.5784 21.132 66.5649 19.2808C66.563 18.9766 66.6267 18.8501 66.9589 18.8704C67.4234 18.8994 67.8937 18.9042 68.3582 18.8694C68.7521 18.8395 68.87 18.9506 68.8671 19.3619C68.8478 22.3072 68.868 25.2525 68.8449 28.1968C68.841 28.6574 68.9849 28.7424 69.4069 28.7366C71.1286 28.7134 72.8504 28.7337 74.5722 28.7211C74.8706 28.7192 75.0019 28.7743 74.9807 29.1093C74.9498 29.5902 74.9623 30.075 74.9768 30.5569C74.9836 30.7915 74.8996 30.8562 74.6707 30.8562C72.0798 30.8495 69.4889 30.8456 66.8981 30.8591C66.5369 30.8611 66.5697 30.666 66.5697 30.4323C66.5726 28.5666 66.5717 26.7 66.5717 24.8334Z" fill="#818592"/>
<path d="M59.586 19.1844C59.3649 19.1988 59.2625 19.3825 59.1302 19.5148C57.785 20.8541 56.4949 22.2534 55.0792 23.5117C54.4795 24.0437 54.3675 24.5613 54.3762 25.2759C54.411 28.0416 54.4003 30.8073 54.4071 33.5729C54.5268 33.7197 54.5394 33.8964 54.5394 34.0731C54.5394 35.3217 54.5577 36.5713 54.5307 37.8199C54.5577 39.7561 54.5394 41.6922 54.5394 43.6284C54.5394 43.8196 54.5404 44.0166 54.3868 44.1672C54.2806 44.004 54.3366 43.8225 54.3366 43.6516C54.3337 36.5877 54.3279 29.5229 54.3472 22.4591C54.3482 21.9463 54.2149 21.6576 53.7533 21.4065C52.498 20.7238 51.2764 19.9802 50.0413 19.2608C49.9148 19.0706 50.0684 18.9566 50.1727 18.8514C51.2523 17.7553 52.3435 16.669 53.4356 15.5845C53.5341 15.487 53.6336 15.3653 53.8055 15.4194C55.6837 16.4913 57.5619 17.5661 59.443 18.6341C59.696 18.778 59.5821 18.9903 59.586 19.1844Z" fill="#818592"/>
<path d="M48.2231 40.0361C47.0498 41.08 45.9914 42.2407 44.8712 43.3377C44.7061 43.5 44.4705 43.6207 44.4454 43.894C42.4146 42.712 40.3838 41.53 38.353 40.348C38.0913 40.0883 38.3511 39.9434 38.4921 39.7995C39.4152 38.8619 40.35 37.9348 41.2799 37.0039C41.4161 36.8678 41.5532 36.7326 41.6807 36.5877C41.7792 36.4767 41.8796 36.3676 42.0486 36.4603C43.8921 37.5167 45.7355 38.5722 47.577 39.6315C47.7962 39.7599 48.0077 39.9009 48.2231 40.0361Z" fill="#818592"/>
<path d="M46.8876 22.5528C46.6491 22.5605 46.5293 22.7486 46.3854 22.8925C44.4136 24.8615 42.4436 26.8334 40.4708 28.8024C40.3163 28.9569 40.1888 29.1655 39.9194 29.1307C39.9194 25.6137 39.9194 22.0968 39.9194 18.5142C40.4775 18.8348 41.0009 19.1341 41.5224 19.4364C43.3108 20.4745 45.0992 21.5147 46.8876 22.5528Z" fill="#818592"/>
<path d="M53.8065 15.4191C52.5724 16.6397 51.3382 17.8603 50.107 19.0838C50.0665 19.1244 50.0636 19.2007 50.0423 19.2605C48.0096 18.0873 45.9769 16.914 43.9451 15.7407C44.2416 15.1738 44.7466 14.7895 45.1802 14.3453C45.8745 13.6346 46.5823 12.9374 47.2863 12.2363C47.4205 12.103 47.5355 11.936 47.7547 11.9292C49.433 12.8862 51.1113 13.8412 52.7877 14.8011C53.1324 14.9981 53.4666 15.2125 53.8065 15.4191Z" fill="#818592"/>
<path d="M54.3878 44.168C54.3946 42.0522 54.4004 39.9374 54.4071 37.8216C54.8156 37.6816 55.1034 37.3832 55.3979 37.0868C56.6098 35.8671 57.8256 34.6514 59.0462 33.4404C59.1978 33.2898 59.3137 33.0628 59.586 33.0918C59.5918 35.7252 59.5956 38.3576 59.6053 40.9909C59.6063 41.1696 59.5618 41.2777 59.3977 41.3714C57.7821 42.2927 56.1724 43.2226 54.5616 44.1516C54.5037 44.1863 54.4506 44.2085 54.3878 44.168Z" fill="#818592"/>
<path d="M42.0477 36.4622C41.7763 36.5066 41.6942 36.7683 41.5291 36.9295C40.5345 37.9039 39.5524 38.8927 38.5713 39.8806C38.4477 40.0052 38.2265 40.1008 38.3521 40.349C36.3531 39.1979 34.3533 38.0459 32.3543 36.8948C32.6827 36.411 33.1356 36.044 33.546 35.6394C34.4151 34.7819 35.231 33.8694 36.1629 33.0756C38.1502 34.162 40.1163 35.2821 42.0477 36.4622Z" fill="#818592"/>
<path d="M59.586 33.0918C58.0969 34.5693 56.604 36.0438 55.1217 37.53C54.9132 37.7396 54.7036 37.868 54.4062 37.8216C54.4062 36.405 54.4062 34.9893 54.4062 33.5727C54.6254 33.5553 54.7278 33.3728 54.86 33.2405C56.2593 31.8471 57.6557 30.4498 59.0501 29.0515C59.2104 28.8912 59.3745 28.7415 59.5851 28.6507C59.586 30.1311 59.586 31.6114 59.586 33.0918Z" fill="#818592"/>
<path d="M114.789 39.1914C114.789 38.0674 114.802 36.9433 114.781 35.8203C114.776 35.4804 114.834 35.3336 115.221 35.349C115.915 35.377 115.916 35.351 115.916 36.0327C115.916 37.6251 115.921 39.2165 115.91 40.8089C115.909 40.9962 116.042 41.3178 115.792 41.3506C115.478 41.3922 115.103 41.5302 114.819 41.1672C113.968 40.0788 113.097 39.005 112.234 37.9254C112.128 37.7931 112.017 37.6657 111.828 37.4416C111.828 38.6574 111.834 39.7573 111.823 40.8572C111.821 41.0281 111.944 41.3072 111.699 41.3545C111.393 41.4134 111.065 41.3622 110.747 41.3419C110.722 41.34 110.689 41.2038 110.689 41.1305C110.686 39.2976 110.689 37.4638 110.682 35.631C110.681 35.4195 110.754 35.3674 110.958 35.3529C111.401 35.323 111.72 35.4186 112.015 35.8164C112.872 36.9742 113.791 38.0876 114.685 39.2184C114.72 39.2088 114.754 39.2001 114.789 39.1914Z" fill="#818592"/>
<path d="M122.467 38.3491C122.467 37.4809 122.485 36.6128 122.459 35.7447C122.449 35.4106 122.565 35.3488 122.866 35.3517C124.119 35.3661 125.374 35.3652 126.627 35.3517C126.907 35.3488 127.059 35.4009 127.009 35.7167C126.991 35.8268 126.991 35.9436 127.009 36.0537C127.062 36.3859 126.944 36.4892 126.598 36.4786C125.715 36.4515 124.83 36.4776 123.947 36.4641C123.701 36.4602 123.624 36.522 123.619 36.7808C123.6 37.8054 123.588 37.8054 124.592 37.8054C125.235 37.8054 125.878 37.8199 126.52 37.7986C126.812 37.789 126.942 37.8682 126.896 38.1723C126.879 38.2824 126.879 38.3993 126.896 38.5094C126.938 38.801 126.837 38.8985 126.531 38.8908C125.679 38.8696 124.826 38.8927 123.975 38.8773C123.716 38.8725 123.62 38.9265 123.617 39.2133C123.608 40.2196 123.595 40.2186 124.61 40.2186C125.285 40.2186 125.961 40.2331 126.635 40.2118C126.924 40.2031 127.018 40.2707 127.015 40.5778C127.005 41.3774 127.022 41.3774 126.201 41.3774C125.108 41.3774 124.014 41.3571 122.922 41.388C122.522 41.3996 122.449 41.2634 122.459 40.9032C122.484 40.0535 122.467 39.2008 122.467 38.3491Z" fill="#818592"/>
<path d="M45.3 33.2159C45.3019 33.015 45.4487 32.904 45.5723 32.7803C46.8905 31.4622 48.2076 30.1431 49.5287 28.8279C49.6233 28.7332 49.7054 28.542 49.8657 28.6154C50.0202 28.6859 49.941 28.8762 49.942 29.0114C49.9468 31.2932 49.9458 33.5751 49.9458 35.857C49.8155 35.9197 49.7343 35.8096 49.6455 35.7594C48.2269 34.9502 46.8122 34.1352 45.3975 33.3192C45.358 33.297 45.3328 33.2516 45.3 33.2159Z" fill="#818592"/>
<path d="M102.768 38.9316C102.768 39.624 102.754 40.3154 102.774 41.0068C102.783 41.2984 102.709 41.3902 102.403 41.3873C101.592 41.3796 101.592 41.396 101.592 40.579C101.592 39.3565 101.573 38.133 101.603 36.9105C101.613 36.4933 101.478 36.3735 101.087 36.418C100.833 36.4469 100.573 36.4286 100.316 36.4228C99.6196 36.4064 99.7094 36.5676 99.6881 35.7208C99.6823 35.462 99.7412 35.3499 100.029 35.3528C101.478 35.3654 102.925 35.3615 104.374 35.3557C104.59 35.3548 104.711 35.4059 104.685 35.6512C104.669 35.8106 104.669 35.9738 104.685 36.1331C104.711 36.3822 104.583 36.4305 104.371 36.4257C103.969 36.416 103.565 36.4421 103.165 36.417C102.858 36.3987 102.747 36.4788 102.759 36.8081C102.786 37.515 102.768 38.2238 102.768 38.9316Z" fill="#818592"/>
<path d="M43.6565 44.4483C43.669 44.7583 43.4565 44.9389 43.2644 45.132C41.4624 46.934 39.6595 48.7359 37.8595 50.5398C37.7253 50.6749 37.6075 50.8266 37.4829 50.9714C35.485 49.8174 33.487 48.6644 31.4891 47.5105C31.4021 47.2864 31.5499 47.1397 31.6793 47.0074C32.7164 45.9451 33.7709 44.8993 34.8264 43.8554C34.9317 43.7521 35.0417 43.5995 35.2329 43.7135C36.7075 44.457 38.1106 45.3281 39.533 46.1624C39.9647 46.4154 40.2727 46.4222 40.6967 46.1585C41.6623 45.5579 42.6667 45.0151 43.6565 44.4483Z" fill="#818592"/>
<path d="M35.2319 43.7132C35.0513 43.7277 34.9625 43.8745 34.8524 43.9846C33.8568 44.9773 32.8641 45.9739 31.8675 46.9646C31.7063 47.1249 31.572 47.2978 31.488 47.5093C30.0395 46.6759 28.591 45.8416 27.1425 45.0082C27.0199 44.7822 27.1792 44.6432 27.3106 44.5099C28.3564 43.4535 29.407 42.4019 30.4644 41.357C30.5813 41.2421 30.702 41.076 30.9115 41.2044C32.3716 42.0059 33.8278 42.8152 35.2319 43.7132Z" fill="#818592"/>
<path d="M30.9106 41.2055C30.7445 41.2007 30.6566 41.3233 30.5562 41.4238C29.4949 42.4841 28.4346 43.5453 27.3724 44.6056C27.2575 44.7196 27.1455 44.8326 27.1416 45.0083C25.8467 44.2792 24.5343 43.5782 23.2799 42.7786C23.7 42.2108 24.2427 41.7608 24.7352 41.2625C25.4981 40.4919 26.2802 39.7406 27.0547 38.9816C28.3651 39.6808 29.6475 40.4262 30.9106 41.2055Z" fill="#818592"/>
<path fill-rule="evenodd" clip-rule="evenodd" d="M99.1777 30.8516C99.3801 30.852 99.5831 30.8524 99.7866 30.8524C99.7845 30.8237 99.7845 30.7986 99.7845 30.7764C99.7845 30.7358 99.7846 30.7048 99.7721 30.6786C99.2333 29.4783 98.6941 28.2782 98.1549 27.0781C96.9663 24.4326 95.7777 21.7871 94.5932 19.1399C94.5005 18.9332 94.3673 18.9072 94.177 18.9091C94.0595 18.9106 93.9419 18.9128 93.8243 18.915C93.3948 18.9231 92.9649 18.9311 92.5373 18.9023C92.1414 18.8753 91.9464 19.0163 91.7861 19.3765C90.9228 21.3129 90.0534 23.2467 89.184 25.1806C88.4691 26.7706 87.7543 28.3607 87.0427 29.9524C87.0108 30.0242 86.9742 30.0949 86.9372 30.1663C86.8288 30.3756 86.7175 30.5906 86.7125 30.8534C86.9221 30.8534 87.1299 30.8525 87.3363 30.8515C87.848 30.8491 88.3516 30.8468 88.8553 30.8592C89.1015 30.865 89.1817 30.7443 89.2647 30.5502C89.3679 30.309 89.4769 30.0704 89.5859 29.8319C89.7301 29.5167 89.8741 29.2016 90.0044 28.8806C90.1068 28.6295 90.2449 28.559 90.5066 28.5609C92.3239 28.5725 94.1423 28.5744 95.9596 28.56C96.2696 28.5571 96.4097 28.6623 96.5207 28.9443C96.6608 29.2998 96.8222 29.6469 96.9836 29.9941C97.0725 30.1854 97.1615 30.3767 97.2469 30.5695C97.2518 30.5807 97.2566 30.5919 97.2614 30.603C97.3199 30.7394 97.3712 30.859 97.5704 30.8563C98.1044 30.8493 98.6394 30.8504 99.1777 30.8516ZM93.7986 22.7658C93.6189 22.3511 93.4387 21.9351 93.2568 21.5173C93.238 21.544 93.2196 21.5681 93.2023 21.5908C93.165 21.6394 93.1326 21.6817 93.1129 21.7298C92.8916 22.2334 92.6714 22.7374 92.4512 23.2414C92.0297 24.2065 91.6081 25.1715 91.1787 26.1332C91.0473 26.4258 91.1217 26.4818 91.4133 26.4789C92.604 26.4683 93.7937 26.4673 94.9843 26.4789C95.3146 26.4828 95.4121 26.4355 95.2537 26.083C94.7603 24.9856 94.2817 23.8809 93.7986 22.7658Z" fill="#818592"/>
<path fill-rule="evenodd" clip-rule="evenodd" d="M138.326 41.3771C138.461 41.3778 138.604 41.3787 138.762 41.3787C138.087 40.6071 137.503 39.9389 136.888 39.2359C137.63 39.0379 138.112 38.6584 138.303 37.9708C138.689 36.5822 137.789 35.3983 136.298 35.3616C135.888 35.3513 135.476 35.3539 135.064 35.3565C134.624 35.3593 134.183 35.362 133.743 35.349C133.392 35.3384 133.319 35.463 133.322 35.7884C133.33 36.6293 133.329 37.47 133.329 38.3107C133.328 39.0773 133.327 39.844 133.333 40.611C133.336 41.0533 133.291 41.2387 133.362 41.3176C133.436 41.3981 133.631 41.3674 134.127 41.3854C134.443 41.397 134.507 41.2753 134.496 40.9963C134.485 40.7475 134.487 40.4981 134.489 40.2486C134.491 40.0478 134.493 39.8469 134.488 39.6463C134.483 39.4502 134.532 39.3749 134.751 39.3595C135.289 39.3208 135.734 39.3894 136.072 39.8993C136.279 40.2118 136.534 40.4915 136.791 40.7713C136.905 40.8962 137.019 41.021 137.129 41.1488L137.138 41.1596C137.239 41.2774 137.335 41.3891 137.522 41.3825C137.774 41.3739 138.027 41.3753 138.326 41.3771ZM134.491 37.2813C134.491 38.3213 134.491 38.3213 135.537 38.3213C135.612 38.3213 135.686 38.3221 135.76 38.3228C135.927 38.3244 136.094 38.3261 136.261 38.3194C136.834 38.2953 137.225 37.9244 137.24 37.402C137.254 36.8815 136.887 36.4846 136.31 36.4344C136.078 36.4148 135.845 36.4181 135.611 36.4213C135.523 36.4226 135.434 36.4238 135.346 36.4238C134.491 36.4228 134.491 36.4238 134.491 37.2813Z" fill="#818592"/>
<path fill-rule="evenodd" clip-rule="evenodd" d="M94.4581 41.3784C93.7985 40.6252 93.2143 39.9579 92.5866 39.2404C93.3041 39.0434 93.7811 38.6822 93.9868 38.0169C94.4146 36.6293 93.5069 35.4058 91.9908 35.3623C91.554 35.3499 91.1167 35.3528 90.6794 35.3556C90.2638 35.3583 89.8481 35.3611 89.4327 35.3507C89.1131 35.343 89.0291 35.4396 89.032 35.7563C89.0441 36.9515 89.0425 38.1472 89.0408 39.3427C89.0402 39.7564 89.0397 40.17 89.0397 40.5836C89.0397 40.9966 89.0397 41.1998 89.1413 41.2986C89.2431 41.3975 89.4468 41.3914 89.8547 41.3861C90.1338 41.3822 90.2149 41.2944 90.2033 41.025C90.1867 40.6375 90.1922 40.2494 90.1978 39.8611C90.1987 39.7984 90.1996 39.7357 90.2004 39.673C90.2009 39.6497 90.1985 39.6254 90.1961 39.6008C90.1879 39.5162 90.1795 39.4288 90.2835 39.3727C90.5172 39.2472 91.3814 39.4229 91.5678 39.6392C91.7833 39.8891 91.9982 40.1394 92.213 40.3898C92.4274 40.6396 92.6418 40.8895 92.857 41.1389C92.8694 41.1535 92.8815 41.1682 92.8936 41.183C92.98 41.2884 93.064 41.3908 93.2394 41.3832C93.4897 41.3719 93.74 41.3739 94.0327 41.3762C94.1646 41.3773 94.3051 41.3784 94.4581 41.3784ZM90.1975 37.3235C90.1975 38.3211 90.1975 38.3211 91.1844 38.3085C91.2798 38.3085 91.3755 38.3109 91.471 38.3132C91.681 38.3184 91.8906 38.3236 92.097 38.3037C92.5866 38.2573 92.9159 37.8817 92.9284 37.4037C92.941 36.9218 92.6397 36.5307 92.1482 36.4641C91.8601 36.4248 91.5653 36.4248 91.2717 36.4248C91.212 36.4248 91.1523 36.4248 91.0927 36.4245C90.1975 36.4197 90.1975 36.4236 90.1975 37.3235Z" fill="#818592"/>
<path fill-rule="evenodd" clip-rule="evenodd" d="M77.0758 40.1506C76.8998 40.5415 76.7224 40.9358 76.5431 41.3343C76.6434 41.3343 76.7352 41.3314 76.8209 41.3287C76.9966 41.3231 77.147 41.3184 77.2943 41.3411C77.6816 41.399 77.8979 41.2474 77.9974 40.8795C78.0143 40.8166 78.045 40.7572 78.0757 40.6978C78.1044 40.6423 78.1332 40.5867 78.1509 40.528C78.2349 40.2547 78.4058 40.1774 78.6888 40.1852C79.4275 40.2064 80.1682 40.2161 80.9059 40.1823C81.3019 40.1639 81.5442 40.2701 81.6408 40.6632C81.776 41.2136 82.1159 41.4521 82.6847 41.3353C82.7301 41.3266 82.7813 41.3295 82.8286 41.3353C83.1414 41.3729 83.2274 41.2957 83.0796 40.9741C82.2598 39.1828 81.4544 37.3847 80.6549 35.5847C80.5612 35.3742 80.4386 35.3134 80.2174 35.3085L80.1899 35.3079C79.2768 35.2863 79.2692 35.2861 78.8867 36.1323C78.2876 37.4575 77.6907 38.7839 77.0758 40.1506ZM79.9984 36.9191L79.8659 36.6122C79.7503 36.8724 79.6401 37.1228 79.533 37.3663C79.3124 37.8674 79.1048 38.3393 78.8896 38.8072C78.7911 39.0196 78.8211 39.0901 79.0615 39.0853C79.5907 39.0756 80.1199 39.0785 80.6491 39.0843C80.8586 39.0862 80.9011 39.0022 80.8219 38.8207C80.5561 38.2107 80.2924 37.6001 79.9984 36.9191Z" fill="#818592"/>
<path fill-rule="evenodd" clip-rule="evenodd" d="M68.7582 35.3874C68.5875 35.3927 68.4169 35.3981 68.247 35.3981C68.247 35.3918 68.247 35.3857 68.2472 35.3796C68.2474 35.3726 68.2479 35.3657 68.2489 35.3585C68.1229 35.3585 67.9968 35.3604 67.8706 35.3623C67.578 35.3668 67.2853 35.3713 66.9945 35.3517C66.6556 35.3295 66.5619 35.4435 66.5658 35.7814C66.5786 36.9669 66.5767 38.153 66.5748 39.3387C66.5742 39.7621 66.5735 40.1855 66.5735 40.6088C66.5735 41.0007 66.5735 41.1941 66.6702 41.2903C66.7687 41.3881 66.9673 41.3852 67.3682 41.3881C67.6782 41.39 67.7555 41.2886 67.7371 41.0018C67.7255 40.817 67.7282 40.6315 67.7309 40.4458C67.7333 40.2773 67.7357 40.1087 67.7275 39.9406C67.7149 39.6895 67.8018 39.6035 68.0548 39.6055C68.11 39.6057 68.1652 39.6061 68.2205 39.6064C68.7435 39.6096 69.2695 39.6129 69.7892 39.5639C70.8659 39.4635 71.6123 38.6021 71.6259 37.5023C71.6394 36.4246 70.9345 35.54 69.8838 35.4097C69.5134 35.3638 69.1357 35.3756 68.7582 35.3874ZM67.8605 36.5997C67.7304 36.7297 67.7304 36.9899 67.7304 37.5109C67.7304 37.579 67.7305 37.6471 67.7306 37.7152C67.731 37.9195 67.7313 38.1237 67.7284 38.3279C67.7275 38.4727 67.7545 38.5819 67.9332 38.578C68.1149 38.5737 68.2972 38.5741 68.4795 38.5744C68.8746 38.5752 69.2696 38.576 69.6588 38.5297C70.1793 38.4679 70.5269 37.9551 70.4864 37.4549C70.441 36.9026 70.0422 36.5037 69.4889 36.4728C69.3226 36.4634 69.1558 36.4657 68.9889 36.468C68.9155 36.4689 68.842 36.4699 68.7685 36.4699C68.2499 36.4699 67.9904 36.4699 67.8605 36.5997Z" fill="#818592"/>
</svg>
