<svg width="170" height="60" viewBox="0 0 170 60" fill="none" xmlns="http://www.w3.org/2000/svg">
<path d="M10 15.2602C10.7753 14.0889 11.484 13.0278 12.1811 11.959C12.3119 11.7591 12.4605 11.6784 12.7027 11.6797C15.0299 11.6874 17.3585 11.6989 19.6857 11.6733C20.2906 11.6669 20.1252 12.0577 20.1252 12.3589C20.1304 20.3235 20.1291 28.2894 20.1291 36.254C20.1291 39.9909 20.1137 43.7278 20.1445 47.4647C20.1496 48.0555 19.9715 48.1823 19.4268 48.1541C18.5746 48.1093 17.7173 48.1093 16.8651 48.1541C16.3409 48.1823 16.1846 48.0414 16.1871 47.498C16.2115 43.7393 16.2 39.9819 16.2 36.2232C16.2 29.4543 16.1936 22.684 16.2115 15.9151C16.2128 15.3922 16.0936 15.2346 15.5528 15.2448C13.7446 15.282 11.9325 15.2602 10 15.2602Z" fill="#818592"/>
<path d="M105.9 35.1812C105.9 37.4392 105.9 39.5691 105.9 41.699C105.9 43.6417 105.885 45.5858 105.91 47.5286C105.915 47.9822 105.839 48.1591 105.328 48.1514C103.786 48.1283 103.786 48.1539 103.786 46.6354C103.786 41.6387 103.784 36.6408 103.794 31.6442C103.794 31.4199 103.626 31.0957 103.963 30.9753C104.255 30.8702 104.424 31.129 104.605 31.3046C108.798 35.3849 112.99 39.4678 117.182 43.5482C117.327 43.6892 117.478 43.8263 117.732 44.0634C117.732 43.6956 117.732 43.4713 117.732 43.247C117.732 39.3602 117.741 35.4734 117.72 31.5878C117.718 31.0906 117.838 30.9355 118.352 30.9458C119.748 30.974 119.749 30.9483 119.749 32.3375C119.749 37.3777 119.751 42.4166 119.74 47.4568C119.74 47.6785 119.914 48.0053 119.576 48.1232C119.286 48.2244 119.116 47.9656 118.934 47.79C114.716 43.7033 110.5 39.6165 106.283 35.5298C106.193 35.44 106.098 35.3593 105.9 35.1812Z" fill="#818592"/>
<path d="M85.2761 35.2662C85.2761 35.5033 85.2761 35.7083 85.2761 35.9121C85.2761 39.7758 85.2685 43.6409 85.2877 47.5046C85.2902 47.989 85.1928 48.162 84.6674 48.1505C83.1783 48.1198 83.1796 48.1467 83.1796 46.6473C83.1796 41.6942 83.1757 36.7412 83.1898 31.7882C83.1911 31.5203 82.9925 31.1397 83.3475 30.9885C83.6883 30.8424 83.8678 31.1987 84.0728 31.3973C88.2211 35.4289 92.3668 39.4657 96.5125 43.4999C96.6739 43.6562 96.8392 43.8087 97.0238 43.983C97.1724 43.7101 97.1096 43.4755 97.1096 43.2526C97.1148 39.367 97.1212 35.4815 97.1032 31.5959C97.1007 31.1154 97.1955 30.9321 97.726 30.9436C99.1255 30.9744 99.1255 30.9462 99.1255 32.3302C99.1255 37.3256 99.1293 42.3209 99.1152 47.3175C99.1139 47.5828 99.3203 47.9634 98.9627 48.1133C98.6244 48.2556 98.4386 47.9045 98.2322 47.7058C94.1058 43.7113 89.9831 39.7143 85.8567 35.7198C85.6965 35.5648 85.5722 35.3572 85.2761 35.2662Z" fill="#818592"/>
<path d="M130.224 30.9585C131.975 30.9585 133.726 30.9713 135.477 30.9495C135.899 30.9444 136.073 31.0213 136.063 31.4967C136.041 32.6283 136.066 32.6283 134.912 32.6283C132.286 32.6283 129.659 32.6398 127.033 32.6168C126.565 32.6129 126.41 32.7129 126.423 33.2101C126.46 34.5967 126.46 35.9859 126.424 37.3737C126.412 37.8915 126.537 38.0555 127.082 38.0491C129.814 38.0196 132.549 38.0581 135.281 38.0184C135.899 38.0094 136.07 38.2119 135.987 38.768C135.968 38.8936 135.968 39.0269 135.987 39.1512C136.059 39.6138 135.852 39.7138 135.417 39.7112C132.619 39.6933 129.823 39.7138 127.025 39.6894C126.545 39.6856 126.418 39.8061 126.426 40.2892C126.456 42.1461 126.462 44.0043 126.423 45.8612C126.412 46.3969 126.593 46.4853 127.073 46.4815C129.827 46.461 132.582 46.4802 135.336 46.4623C135.796 46.4597 136.022 46.5186 135.999 47.0723C135.955 48.1333 135.991 48.1346 134.9 48.1346C131.612 48.1346 128.324 48.1257 125.035 48.1449C124.549 48.1474 124.385 48.0488 124.387 47.5208C124.409 42.2038 124.409 36.8868 124.387 31.5711C124.384 31.0482 124.547 30.938 125.034 30.9457C126.765 30.9751 128.494 30.9585 130.224 30.9585Z" fill="#818592"/>
<path d="M68.3717 39.5527C68.3717 36.8846 68.3845 34.2165 68.3602 31.5484C68.3563 31.0717 68.4716 30.9435 68.9561 30.9461C72.4354 30.9691 75.9147 30.9666 79.394 30.9486C79.872 30.9461 80.0591 31.0358 80.0373 31.565C79.9963 32.6274 80.0296 32.6274 78.9481 32.6274C76.2799 32.6274 73.6118 32.6351 70.9437 32.6197C70.5464 32.6172 70.3914 32.6928 70.4003 33.1362C70.4311 34.5868 70.4311 36.0401 70.4003 37.4908C70.3901 37.9572 70.5439 38.0482 70.9783 38.0457C73.7528 38.0264 76.5285 38.0469 79.303 38.0252C79.7849 38.0213 79.9656 38.1174 79.9451 38.6428C79.9041 39.7014 79.9361 39.7027 78.8532 39.7027C76.2274 39.7027 73.6016 39.7193 70.977 39.6886C70.4631 39.6821 70.3978 39.859 70.4029 40.3037C70.426 42.1388 70.4324 43.9752 70.4003 45.8104C70.3914 46.3281 70.5067 46.4934 71.0552 46.487C73.8092 46.4562 76.5619 46.487 79.3159 46.4614C79.8208 46.4562 79.9617 46.5921 79.9451 47.0944C79.9092 48.1389 79.9374 48.1389 78.8994 48.1389C75.6123 48.1389 72.3252 48.1273 69.0381 48.1517C68.5191 48.1555 68.355 48.0402 68.3614 47.4955C68.3883 44.8467 68.3717 42.2003 68.3717 39.5527Z" fill="#818592"/>
<path d="M143.854 40.3615C143.854 42.7746 143.845 45.1877 143.863 47.6008C143.866 48.0045 143.777 48.1493 143.34 48.1493C141.783 48.1506 141.785 48.1685 141.785 46.5922C141.785 42.1723 141.77 37.7524 141.801 33.3324C141.805 32.7224 141.618 32.5943 141.058 32.6161C139.97 32.6583 138.879 32.6084 137.791 32.6378C137.344 32.6507 137.21 32.5199 137.217 32.0676C137.236 30.9591 137.213 30.9578 138.331 30.9578C141.469 30.9578 144.609 30.968 147.747 30.9475C148.232 30.945 148.409 31.0488 148.39 31.5703C148.351 32.6263 148.383 32.6276 147.352 32.6276C146.348 32.6276 145.343 32.6468 144.341 32.6186C143.94 32.6071 143.844 32.7327 143.847 33.1223C143.863 35.5353 143.854 37.9484 143.854 40.3615Z" fill="#818592"/>
<path d="M160 30.9949C159.968 32.534 159.968 32.534 158.412 32.5353C157.601 32.5353 156.79 32.5455 155.979 32.5314C155.63 32.525 155.481 32.6365 155.481 33.0069C155.495 38.024 155.501 43.0399 155.507 48.057C154.926 48.2415 154.332 48.0942 153.745 48.1365C153.567 48.1493 153.468 48.0583 153.476 47.8673C153.482 47.7187 153.476 47.5687 153.476 47.4188C153.476 42.699 153.469 37.9779 153.486 33.2581C153.487 32.7749 153.39 32.5968 152.867 32.6173C151.737 32.6609 150.603 32.6122 149.472 32.6404C149.046 32.6506 148.934 32.5186 148.938 32.0996C148.948 30.9616 148.928 30.9616 150.073 30.9616C153.149 30.9616 156.225 30.9603 159.3 30.9629C159.534 30.9603 159.767 30.9821 160 30.9949Z" fill="#818592"/>
<path fill-rule="evenodd" clip-rule="evenodd" d="M36.9709 26.9746C35.7739 27.0323 34.609 27.2617 33.3544 27.5898C33.4061 27.5145 33.4531 27.4457 33.4968 27.3818C33.6145 27.2094 33.7083 27.0721 33.8055 26.9375C34.516 25.9453 35.2261 24.9527 35.9362 23.9602C38.4792 20.4058 41.0222 16.8514 43.5847 13.3111C43.9513 12.8037 43.868 12.6127 43.3592 12.35C42.6211 11.9707 41.9047 11.5414 41.2101 11.0851C40.8205 10.8276 40.6347 10.8763 40.3566 11.2607C38.1106 14.366 35.8566 17.4655 33.6026 20.565C31.9032 22.9019 30.2038 25.2387 28.5077 27.5782C27.166 29.4287 25.9229 31.3446 25.1117 33.5001C22.8088 39.6181 25.409 45.8027 31.3694 48.0863C35.9674 49.8471 40.372 49.2525 44.3511 46.3383C48.3353 43.4203 49.695 37.9816 47.7023 33.4719C45.9017 29.3967 41.5202 26.7542 36.9709 26.9746ZM35.3137 30.2404C31.3244 30.5992 28.1142 33.9657 28.1078 37.5066C28.086 39.7351 28.7652 41.387 30.0839 42.7826C32.7251 45.5788 37.1079 46.2862 40.4949 44.4665C45.8747 41.5754 46.1259 34.6488 40.9652 31.4322C39.2275 30.3493 37.3219 30.0597 35.3137 30.2404Z" fill="#818592"/>
<path fill-rule="evenodd" clip-rule="evenodd" d="M60.8364 38.8747C61.426 39.0875 61.9775 39.2865 62.4869 39.5851C65.0128 41.0652 65.4178 44.2216 63.3404 46.281C61.9448 47.665 60.1866 48.0918 58.3041 48.1277C57.316 48.1463 56.3271 48.1437 55.3384 48.1412C54.555 48.1391 53.7712 48.1371 52.9883 48.1456C52.6052 48.1494 52.477 48.0559 52.4783 47.6497C52.4915 42.6073 52.489 37.5649 52.4865 32.5226L52.486 31.4449L52.4858 31.3936C52.484 31.1479 52.4825 30.9433 52.8602 30.9541C53.5446 30.974 54.2299 30.9663 54.9154 30.9586C56.3002 30.9429 57.6852 30.9273 59.0627 31.1399C60.0059 31.2847 60.8773 31.6141 61.6168 32.2369C63.5788 33.8888 63.4788 36.6748 61.4028 38.178C61.2202 38.3085 61.0303 38.4265 60.8259 38.5535C60.7231 38.6174 60.6167 38.6835 60.5057 38.7547C60.6172 38.7956 60.7274 38.8354 60.8364 38.8747ZM54.4965 43.1209V40.2388C54.4965 40.2205 54.4963 40.2022 54.496 40.1841C54.4934 39.9891 54.4909 39.8127 54.8028 39.8197C55.195 39.8278 55.5882 39.8249 55.9814 39.822C57.2121 39.8129 58.443 39.8038 59.6444 40.1312C61.0207 40.5066 62.1882 41.191 62.488 42.7454C62.7264 43.9821 62.1497 44.8958 61.1937 45.6032C60.485 46.1287 59.6482 46.3042 58.7896 46.3824C57.8625 46.4661 56.9334 46.4695 56.0037 46.4729C55.6522 46.4742 55.3005 46.4754 54.9489 46.4811C54.5709 46.4875 54.4812 46.3542 54.4888 46.0018C54.5045 45.3126 54.5016 44.6228 54.4988 43.9332C54.4977 43.6625 54.4965 43.3916 54.4965 43.1209ZM54.4973 34.6812C54.497 34.9178 54.4967 35.1543 54.4967 35.3908C54.4967 35.8175 54.4967 36.243 54.4979 36.6698C54.4967 38.1858 54.4979 38.2024 56.0434 38.1422C56.1282 38.1389 56.213 38.1359 56.2979 38.1329C57.3398 38.0957 58.3872 38.0583 59.3446 37.5476C60.4224 36.9722 61.0439 35.8765 60.8863 34.8346C60.7261 33.7735 59.9854 33.0789 58.709 32.8009C57.8202 32.6068 56.9222 32.6174 56.0238 32.628C55.6231 32.6327 55.2223 32.6375 54.8222 32.624C54.5018 32.6138 54.4941 32.7919 54.4954 33.0251C54.499 33.5768 54.4982 34.1291 54.4973 34.6812Z" fill="#818592"/>
</svg>
