<svg width="170" height="60" viewBox="0 0 170 60" fill="none" xmlns="http://www.w3.org/2000/svg">
<path fill-rule="evenodd" clip-rule="evenodd" d="M100.984 44.2822C93.2948 49.9697 82.1103 53 72.4637 53C58.9491 53 46.8325 48.0117 37.6053 39.7134C36.9063 39.0608 37.5121 38.175 38.3976 38.6878C48.3238 44.4686 60.5801 47.9185 73.2559 47.9185C81.7841 47.9185 91.1977 46.1469 99.8656 42.464C101.171 41.9512 102.242 43.3498 100.984 44.2822Z" fill="#818592"/>
<path fill-rule="evenodd" clip-rule="evenodd" d="M104.199 40.5985C103.221 39.3398 97.6749 39.9924 95.205 40.3188C94.4594 40.412 94.3196 39.7593 95.0186 39.2931C99.4458 36.1696 106.669 37.102 107.508 38.1277C108.347 39.1533 107.275 46.4259 103.127 49.8758C102.475 50.3886 101.869 50.1089 102.149 49.4096C103.081 47.0786 105.178 41.9038 104.199 40.5985Z" fill="#818592"/>
<path fill-rule="evenodd" clip-rule="evenodd" d="M95.3453 17.3822V14.352C95.3453 13.8858 95.6715 13.606 96.091 13.606H109.606C110.025 13.606 110.398 13.9324 110.398 14.352V16.916C110.398 17.3356 110.025 17.895 109.373 18.8274L102.382 28.804C104.992 28.7574 107.741 29.1304 110.072 30.4357C110.584 30.7154 110.724 31.1816 110.771 31.6012V34.8179C110.771 35.2841 110.305 35.7969 109.792 35.5172C105.644 33.3261 100.099 33.093 95.5318 35.5638C95.0657 35.7969 94.5531 35.3307 94.5531 34.8645V31.7877C94.5531 31.3215 94.5531 30.4823 95.0657 29.7364L103.174 18.1281H96.1376C95.7181 18.1281 95.3453 17.8018 95.3453 17.3822ZM46.087 36.1699H41.986C41.6132 36.1233 41.287 35.8436 41.2404 35.4706V14.3986C41.2404 13.979 41.6132 13.6527 42.0326 13.6527H45.854C46.2734 13.6527 46.553 13.979 46.5996 14.352V17.1025H46.6928C47.6715 14.4452 49.5821 13.1865 52.0987 13.1865C54.6618 13.1865 56.2928 14.4452 57.4113 17.1025C58.3899 14.4452 60.6734 13.1865 63.0967 13.1865C64.821 13.1865 66.6851 13.8858 67.8501 15.5175C69.155 17.289 68.8754 19.8531 68.8754 22.1374V35.4706C68.8754 35.8902 68.5026 36.2165 68.0832 36.2165H64.0288C63.6094 36.1699 63.2831 35.8436 63.2831 35.4706V24.2819C63.2831 23.3961 63.3764 21.1584 63.1899 20.3193C62.8637 18.9207 61.9783 18.5011 60.7666 18.5011C59.788 18.5011 58.7161 19.1538 58.2967 20.226C57.8773 21.2983 57.9239 23.0698 57.9239 24.2819V35.4706C57.9239 35.8902 57.5511 36.2165 57.1317 36.2165H53.0307C52.6113 36.1699 52.2851 35.8436 52.2851 35.4706V24.2819C52.2851 21.9509 52.6579 18.4545 49.7686 18.4545C46.8326 18.4545 46.9258 21.8111 46.9258 24.2819V35.4706C46.8792 35.8436 46.553 36.1699 46.087 36.1699ZM122.048 13.1865C128.153 13.1865 131.462 18.4079 131.462 25.0745C131.462 31.5079 127.827 36.6361 122.048 36.6361C116.083 36.6361 112.821 31.4147 112.821 24.888C112.774 18.3146 116.083 13.1865 122.048 13.1865ZM122.048 17.5221C119.019 17.5221 118.833 21.6712 118.833 24.2353C118.833 26.7994 118.786 32.3005 122.002 32.3005C125.171 32.3005 125.357 27.8716 125.357 25.1677C125.357 23.3962 125.264 21.2517 124.751 19.5734C124.285 18.0815 123.353 17.5221 122.048 17.5221ZM139.338 36.1699H135.237C134.817 36.1233 134.491 35.7969 134.491 35.424V14.3053C134.538 13.9324 134.864 13.606 135.283 13.606H139.105C139.477 13.606 139.757 13.8858 139.85 14.2121V17.4289H139.943C141.109 14.5384 142.693 13.1865 145.536 13.1865C147.353 13.1865 149.171 13.8391 150.336 15.6573C151.408 17.3356 151.408 20.1794 151.408 22.2307V35.5172C151.361 35.8902 151.035 36.1699 150.615 36.1699H146.514C146.142 36.1233 145.815 35.8436 145.769 35.5172V24.0488C145.769 21.7178 146.048 18.3612 143.206 18.3612C142.227 18.3612 141.295 19.0139 140.829 20.0395C140.27 21.3449 140.176 22.6036 140.176 24.0488V35.424C140.13 35.8436 139.757 36.1699 139.338 36.1699ZM84.5803 26.1001C84.5803 27.6851 84.6269 29.0371 83.8346 30.4823C83.1822 31.6478 82.157 32.3471 80.9919 32.3471C79.4074 32.3471 78.4754 31.135 78.4754 29.3635C78.4754 25.867 81.5977 25.2143 84.5803 25.2143V26.1001ZM88.7279 36.1233C88.4482 36.3564 88.0754 36.403 87.7492 36.2165C86.3977 35.0976 86.1181 34.5382 85.3725 33.466C83.1356 35.7503 81.5045 36.4496 78.6152 36.4496C75.1667 36.4496 72.4637 34.3051 72.4637 30.0627C72.4637 26.7061 74.2812 24.4684 76.8443 23.3495C79.0812 22.3705 82.2036 22.184 84.5803 21.9043V21.3915C84.5803 20.4125 84.6735 19.247 84.0676 18.4079C83.555 17.662 82.623 17.3356 81.7842 17.3356C80.1997 17.3356 78.8016 18.1281 78.4754 19.8065C78.3822 20.1794 78.1492 20.5524 77.7764 20.5524L73.8152 20.1328C73.489 20.0395 73.1162 19.8064 73.2094 19.2936C74.1414 14.4452 78.4754 13 82.39 13C84.3939 13 87.0036 13.5128 88.588 15.0513C90.5919 16.916 90.4055 19.4335 90.4055 22.1374V28.5243C90.4055 30.4357 91.1978 31.2748 91.9434 32.3471C92.223 32.7201 92.2696 33.1862 91.9434 33.4193C91.0579 34.1186 89.5667 35.424 88.7279 36.1233ZM30.7549 26.1001C30.7549 27.6851 30.8015 29.0371 30.0093 30.4823C29.3569 31.6478 28.3316 32.3471 27.1666 32.3471C25.5821 32.3471 24.6501 31.135 24.6501 29.3635C24.6501 25.867 27.7724 25.2143 30.7549 25.2143V26.1001ZM34.8559 36.1233C34.5763 36.3564 34.2035 36.403 33.8773 36.2165C32.5258 35.0976 32.2462 34.5382 31.5006 33.466C29.2637 35.7503 27.6326 36.4496 24.7433 36.4496C21.2947 36.4496 18.5918 34.3051 18.5918 30.0627C18.5918 26.7061 20.4093 24.4684 22.9724 23.3495C25.2093 22.3705 28.3316 22.184 30.7083 21.9043V21.3915C30.7083 20.4125 30.8015 19.247 30.1957 18.4079C29.6831 17.662 28.751 17.3356 27.9122 17.3356C26.3277 17.3356 24.9297 18.1281 24.6035 19.8065C24.5103 20.1794 24.2772 20.5524 23.9044 20.5524L19.9433 20.1328C19.617 20.0395 19.2442 19.8064 19.3374 19.2936C20.2695 14.4452 24.6035 13 28.518 13C30.5219 13 33.1316 13.5128 34.7161 15.0513C36.72 16.916 36.5336 19.4335 36.5336 22.1374V28.5243C36.5336 30.4357 37.3258 31.2748 38.0714 32.3471C38.3511 32.7201 38.3977 33.1862 38.0714 33.4193C37.186 34.1186 35.6947 35.424 34.8559 36.1233Z" fill="#818592"/>
</svg>
