<svg width="170" height="60" viewBox="0 0 170 60" fill="none" xmlns="http://www.w3.org/2000/svg">
<path d="M32.5004 56.2249C32.5004 56.2249 20.2269 50.8692 16.4333 47.8566C12.4166 44.5093 10.5198 39.9347 10.5198 34.6906V8.58166C20.2269 3.33755 32.5004 3.78386 32.5004 3.78386C32.5004 3.78386 44.7738 3.33755 54.481 8.58166V34.579C54.481 39.8231 52.5842 44.3978 48.5674 47.7451C44.7738 50.8692 32.5004 56.2249 32.5004 56.2249ZM12.305 34.6906C12.305 39.6 14.0902 43.6167 17.5491 46.4062C20.6733 48.9724 29.9341 53.1008 32.5004 54.2165C35.0666 53.1008 44.4391 48.8608 47.4517 46.4062C50.9105 43.6167 52.6958 39.4884 52.6958 34.6906V9.02796C39.7529 7.80062 24.3553 8.47008 12.305 19.6277V34.6906Z" fill="#818592"/>
<path d="M44.8854 31.0086C46.559 32.0128 47.2285 32.6822 47.3401 33.9096C47.3401 35.2485 46.4475 36.0295 44.997 36.0295C43.7696 36.0295 42.3191 35.3601 41.3149 34.4674V38.0379C42.5423 38.7074 43.9928 39.2652 45.5549 39.2652C49.3485 39.2652 51.1337 36.5874 51.1337 34.1327C51.2453 31.9012 50.5758 30.116 47.3401 28.2192C45.8896 27.3265 44.7738 26.7687 44.7738 25.4297C44.7738 24.0908 46.0012 23.5329 47.0054 23.5329C48.3443 23.5329 49.6832 24.314 50.4642 25.095V21.7477C49.7948 21.1898 48.3443 20.4088 46.2243 20.5204C43.6581 20.6319 40.9802 22.4172 40.9802 25.5413C41.0918 27.6613 41.7612 29.2233 44.8854 31.0086ZM31.7193 39.0421C32.0541 39.1537 32.612 39.2652 33.5046 39.2652C37.8561 39.2652 40.3108 35.3601 40.3108 29.7812C40.3108 24.0908 37.7445 20.6319 33.1698 20.6319C31.0499 20.6319 29.3762 21.0782 27.9257 21.9709V47.1872H31.7193V39.0421ZM31.7193 23.8677C32.0541 23.7561 32.612 23.5329 33.0583 23.5329C35.2898 23.5329 36.1824 25.3182 36.1824 29.6696C36.1824 33.9096 35.0667 35.9179 32.8351 35.9179C32.2772 35.9179 31.8309 35.8064 31.6078 35.6948V23.8677H31.7193ZM20.0038 39.2652C22.3469 39.2652 24.3553 38.7074 25.8058 37.7032V20.8551H21.9006V35.4716C21.4543 35.8064 20.8964 35.9179 20.1154 35.9179C18.3301 35.9179 18.107 34.2443 18.107 33.2401V20.8551H14.2018V33.017C14.2018 37.1453 16.2102 39.2652 20.0038 39.2652Z" fill="#818592"/>
<path d="M71.5604 11.9998H73.9404V21.0798C73.9404 22.8931 73.567 24.2065 72.8204 25.0198C72.087 25.8331 71.067 26.2398 69.7604 26.2398C68.227 26.2398 67.1004 25.8465 66.3804 25.0598C65.6737 24.2598 65.3204 23.0465 65.3204 21.4198V11.9998H67.8404V20.9798C67.8404 22.0731 67.987 22.8398 68.2804 23.2798C68.5737 23.7065 69.0604 23.9198 69.7404 23.9198C70.3937 23.9198 70.8604 23.6931 71.1404 23.2398C71.4204 22.7731 71.5604 22.0198 71.5604 20.9798V11.9998Z" fill="#818592"/>
<path d="M80.5933 25.9998V19.9198C80.5933 19.1865 80.5067 18.6731 80.3333 18.3798C80.16 18.0865 79.8667 17.9398 79.4533 17.9398C79.1067 17.9398 78.8067 18.0465 78.5533 18.2598C78.3 18.4731 78.12 18.7398 78.0133 19.0598V25.9998H75.6333V15.9998H77.5333L77.8133 17.1598H77.8733C78.1133 16.7731 78.44 16.4465 78.8533 16.1798C79.2667 15.8998 79.8067 15.7598 80.4733 15.7598C80.8733 15.7598 81.2267 15.8198 81.5333 15.9398C81.8533 16.0598 82.12 16.2598 82.3333 16.5398C82.5467 16.8065 82.7067 17.1731 82.8133 17.6398C82.92 18.0931 82.9733 18.6598 82.9733 19.3398V25.9998H80.5933Z" fill="#818592"/>
<path d="M84.8177 15.9998H87.1977V25.9998H84.8177V15.9998ZM84.5577 13.1798C84.5577 12.7798 84.6844 12.4531 84.9377 12.1998C85.191 11.9331 85.551 11.7998 86.0177 11.7998C86.4844 11.7998 86.8577 11.9265 87.1377 12.1798C87.4177 12.4331 87.5577 12.7665 87.5577 13.1798C87.5577 13.5931 87.4177 13.9198 87.1377 14.1598C86.8577 14.3998 86.4844 14.5198 86.0177 14.5198C85.551 14.5198 85.191 14.3998 84.9377 14.1598C84.6844 13.9065 84.5577 13.5798 84.5577 13.1798Z" fill="#818592"/>
<path d="M88.3299 15.9998H89.4299V14.1198L91.8099 13.3798V15.9998H93.7499V18.1198H91.8099V22.4798C91.8099 23.0531 91.8632 23.4598 91.9699 23.6998C92.0899 23.9398 92.2966 24.0598 92.5899 24.0598C92.7899 24.0598 92.9699 24.0398 93.1299 23.9998C93.2899 23.9598 93.4632 23.8998 93.6499 23.8198L93.9499 25.7198C93.6566 25.8665 93.3166 25.9865 92.9299 26.0798C92.5432 26.1865 92.1366 26.2398 91.7099 26.2398C90.9499 26.2398 90.3766 26.0198 89.9899 25.5798C89.6166 25.1398 89.4299 24.3998 89.4299 23.3598V18.1198H88.3299V15.9998Z" fill="#818592"/>
<path d="M101.69 25.2598C101.357 25.5531 100.904 25.7931 100.33 25.9798C99.7569 26.1665 99.1569 26.2598 98.5302 26.2598C97.8369 26.2598 97.2369 26.1398 96.7302 25.8998C96.2369 25.6598 95.8302 25.3131 95.5102 24.8598C95.1902 24.4065 94.9502 23.8598 94.7902 23.2198C94.6435 22.5665 94.5702 21.8265 94.5702 20.9998C94.5702 19.1998 94.9235 17.8731 95.6302 17.0198C96.3502 16.1531 97.3435 15.7198 98.6102 15.7198C99.0369 15.7198 99.4502 15.7865 99.8502 15.9198C100.25 16.0398 100.604 16.2531 100.91 16.5598C101.23 16.8531 101.484 17.2531 101.67 17.7598C101.87 18.2531 101.97 18.8798 101.97 19.6398C101.97 19.9331 101.95 20.2465 101.91 20.5798C101.884 20.9131 101.837 21.2731 101.77 21.6598H96.9102C96.9369 22.4865 97.1102 23.1198 97.4302 23.5598C97.7502 23.9998 98.2635 24.2198 98.9702 24.2198C99.3969 24.2198 99.7835 24.1531 100.13 24.0198C100.49 23.8865 100.764 23.7465 100.95 23.5998L101.69 25.2598ZM98.5702 17.7598C98.0635 17.7598 97.6835 17.9665 97.4302 18.3798C97.1769 18.7798 97.0302 19.3465 96.9902 20.0798H99.7502C99.7902 19.3198 99.7102 18.7465 99.5102 18.3598C99.3102 17.9598 98.9969 17.7598 98.5702 17.7598Z" fill="#818592"/>
<path d="M110.665 22.4798C110.665 23.0398 110.672 23.5998 110.685 24.1598C110.698 24.7198 110.752 25.3398 110.845 26.0198H109.165L108.845 24.8598H108.765C108.312 25.7931 107.518 26.2598 106.385 26.2598C105.372 26.2598 104.572 25.8598 103.985 25.0598C103.412 24.2598 103.125 22.9598 103.125 21.1598C103.125 19.3998 103.438 18.0665 104.065 17.1598C104.692 16.2398 105.625 15.7798 106.865 15.7798C107.185 15.7798 107.452 15.7998 107.665 15.8398C107.878 15.8798 108.085 15.9465 108.285 16.0398V11.9998H110.665V22.4798ZM106.945 24.0798C107.305 24.0798 107.592 23.9931 107.805 23.8198C108.018 23.6331 108.178 23.3665 108.285 23.0198V18.2998C108.152 18.1798 107.998 18.0931 107.825 18.0398C107.665 17.9865 107.452 17.9598 107.185 17.9598C106.652 17.9598 106.252 18.1998 105.985 18.6798C105.718 19.1598 105.585 20.0131 105.585 21.2398C105.585 22.1598 105.692 22.8665 105.905 23.3598C106.132 23.8398 106.478 24.0798 106.945 24.0798Z" fill="#818592"/>
<path d="M116.533 12.1398C117.013 12.0331 117.539 11.9531 118.113 11.8998C118.686 11.8331 119.259 11.7998 119.833 11.7998C120.446 11.7998 121.046 11.8598 121.633 11.9798C122.233 12.0865 122.766 12.3065 123.233 12.6398C123.699 12.9731 124.079 13.4465 124.373 14.0598C124.666 14.6598 124.813 15.4465 124.813 16.4198C124.813 17.2998 124.686 18.0465 124.433 18.6598C124.193 19.2731 123.866 19.7731 123.453 20.1598C123.039 20.5465 122.559 20.8265 122.013 20.9998C121.479 21.1731 120.926 21.2598 120.353 21.2598C120.299 21.2598 120.213 21.2598 120.093 21.2598C119.973 21.2598 119.846 21.2598 119.713 21.2598C119.579 21.2465 119.446 21.2331 119.313 21.2198C119.193 21.2065 119.106 21.1931 119.053 21.1798V25.9998H116.533V12.1398ZM119.053 18.9198C119.133 18.9465 119.279 18.9731 119.493 18.9998C119.719 19.0131 119.873 19.0198 119.953 19.0198C120.246 19.0198 120.526 18.9798 120.793 18.8998C121.059 18.8198 121.293 18.6865 121.493 18.4998C121.706 18.2998 121.873 18.0331 121.993 17.6998C122.113 17.3531 122.173 16.9198 122.173 16.3998C122.173 15.9598 122.113 15.5865 121.993 15.2798C121.886 14.9731 121.733 14.7331 121.533 14.5598C121.346 14.3731 121.126 14.2398 120.873 14.1598C120.619 14.0798 120.353 14.0398 120.073 14.0398C119.659 14.0398 119.319 14.0731 119.053 14.1398V18.9198Z" fill="#818592"/>
<path d="M125.575 16.5998C125.975 16.3598 126.475 16.1665 127.075 16.0198C127.675 15.8731 128.355 15.7998 129.115 15.7998C130.249 15.7998 131.035 16.0931 131.475 16.6798C131.929 17.2665 132.155 18.0998 132.155 19.1798C132.155 19.8065 132.135 20.4265 132.095 21.0398C132.069 21.6398 132.049 22.2331 132.035 22.8198C132.022 23.3931 132.029 23.9531 132.055 24.4998C132.095 25.0331 132.189 25.5398 132.335 26.0198H130.395L130.015 24.7998H129.935C129.722 25.1865 129.422 25.5065 129.035 25.7598C128.649 26.0131 128.162 26.1398 127.575 26.1398C126.789 26.1398 126.169 25.8798 125.715 25.3598C125.262 24.8265 125.035 24.1198 125.035 23.2398C125.035 22.0398 125.462 21.1865 126.315 20.6798C127.169 20.1731 128.322 19.9598 129.775 20.0398C129.842 19.2665 129.789 18.7065 129.615 18.3598C129.455 18.0131 129.102 17.8398 128.555 17.8398C128.155 17.8398 127.742 17.8865 127.315 17.9798C126.889 18.0731 126.509 18.2065 126.175 18.3798L125.575 16.5998ZM128.435 24.0998C128.795 24.0998 129.089 24.0131 129.315 23.8398C129.542 23.6531 129.709 23.4531 129.815 23.2398V21.5798C129.509 21.5398 129.215 21.5331 128.935 21.5598C128.655 21.5865 128.409 21.6465 128.195 21.7398C127.982 21.8331 127.809 21.9731 127.675 22.1598C127.555 22.3331 127.495 22.5598 127.495 22.8398C127.495 23.2531 127.575 23.5665 127.735 23.7798C127.909 23.9931 128.142 24.0998 128.435 24.0998Z" fill="#818592"/>
<path d="M138.537 18.3598C138.217 18.2398 137.924 18.1798 137.657 18.1798C137.297 18.1798 136.984 18.2798 136.717 18.4798C136.464 18.6798 136.29 18.9598 136.197 19.3198V25.9998H133.817V15.9998H135.637L135.917 17.1998H135.997C136.17 16.7598 136.417 16.4198 136.737 16.1798C137.07 15.9265 137.45 15.7998 137.877 15.7998C138.197 15.7998 138.51 15.8665 138.817 15.9998L138.537 18.3598Z" fill="#818592"/>
<path d="M145.576 25.4598C145.243 25.7265 144.843 25.9265 144.376 26.0598C143.91 26.1931 143.443 26.2598 142.976 26.2598C142.296 26.2598 141.723 26.1398 141.256 25.8998C140.803 25.6465 140.43 25.2931 140.136 24.8398C139.843 24.3731 139.63 23.8198 139.496 23.1798C139.376 22.5265 139.316 21.7998 139.316 20.9998C139.316 19.2531 139.63 17.9398 140.256 17.0598C140.883 16.1798 141.803 15.7398 143.016 15.7398C143.616 15.7398 144.103 15.7931 144.476 15.8998C144.863 16.0065 145.203 16.1398 145.496 16.2998L144.936 18.2798C144.696 18.1598 144.463 18.0731 144.236 18.0198C144.023 17.9531 143.763 17.9198 143.456 17.9198C142.896 17.9198 142.476 18.1665 142.196 18.6598C141.916 19.1398 141.776 19.9198 141.776 20.9998C141.776 21.9065 141.916 22.6465 142.196 23.2198C142.49 23.7931 142.95 24.0798 143.576 24.0798C143.91 24.0798 144.19 24.0398 144.416 23.9598C144.656 23.8665 144.876 23.7531 145.076 23.6198L145.576 25.4598Z" fill="#818592"/>
<path d="M153.175 25.2598C152.841 25.5531 152.388 25.7931 151.815 25.9798C151.241 26.1665 150.641 26.2598 150.015 26.2598C149.321 26.2598 148.721 26.1398 148.215 25.8998C147.721 25.6598 147.315 25.3131 146.995 24.8598C146.675 24.4065 146.435 23.8598 146.275 23.2198C146.128 22.5665 146.055 21.8265 146.055 20.9998C146.055 19.1998 146.408 17.8731 147.115 17.0198C147.835 16.1531 148.828 15.7198 150.095 15.7198C150.521 15.7198 150.935 15.7865 151.335 15.9198C151.735 16.0398 152.088 16.2531 152.395 16.5598C152.715 16.8531 152.968 17.2531 153.155 17.7598C153.355 18.2531 153.455 18.8798 153.455 19.6398C153.455 19.9331 153.435 20.2465 153.395 20.5798C153.368 20.9131 153.321 21.2731 153.255 21.6598H148.395C148.421 22.4865 148.595 23.1198 148.915 23.5598C149.235 23.9998 149.748 24.2198 150.455 24.2198C150.881 24.2198 151.268 24.1531 151.615 24.0198C151.975 23.8865 152.248 23.7465 152.435 23.5998L153.175 25.2598ZM150.055 17.7598C149.548 17.7598 149.168 17.9665 148.915 18.3798C148.661 18.7798 148.515 19.3465 148.475 20.0798H151.235C151.275 19.3198 151.195 18.7465 150.995 18.3598C150.795 17.9598 150.481 17.7598 150.055 17.7598Z" fill="#818592"/>
<path d="M157.389 22.7598C157.389 23.2265 157.436 23.5598 157.529 23.7598C157.623 23.9598 157.776 24.0598 157.989 24.0598C158.109 24.0598 158.229 24.0465 158.349 24.0198C158.483 23.9931 158.629 23.9465 158.789 23.8798L159.009 25.7998C158.849 25.9065 158.576 26.0065 158.189 26.0998C157.803 26.1931 157.409 26.2398 157.009 26.2398C156.343 26.2398 155.843 26.0731 155.509 25.7398C155.176 25.4065 155.009 24.8398 155.009 24.0398V11.9998H157.389V22.7598Z" fill="#818592"/>
<path d="M70.2804 42.3998C70.2804 41.9731 70.1537 41.6131 69.9004 41.3198C69.647 41.0131 69.327 40.7265 68.9404 40.4598C68.567 40.1931 68.1537 39.9198 67.7004 39.6398C67.2604 39.3598 66.847 39.0331 66.4604 38.6598C66.087 38.2865 65.7737 37.8465 65.5204 37.3398C65.267 36.8331 65.1404 36.2131 65.1404 35.4798C65.1404 34.7998 65.2404 34.2265 65.4404 33.7598C65.6537 33.2798 65.9404 32.8931 66.3004 32.5998C66.6604 32.2931 67.087 32.0731 67.5804 31.9398C68.0737 31.7931 68.6004 31.7198 69.1604 31.7198C69.8404 31.7198 70.4737 31.7865 71.0604 31.9198C71.647 32.0531 72.1337 32.2331 72.5204 32.4598L71.7404 34.6798C71.5137 34.5198 71.1737 34.3731 70.7204 34.2398C70.2804 34.1065 69.8004 34.0398 69.2804 34.0398C68.7604 34.0398 68.3604 34.1465 68.0804 34.3598C67.8004 34.5731 67.6604 34.8865 67.6604 35.2998C67.6604 35.6731 67.787 36.0065 68.0404 36.2998C68.2937 36.5798 68.607 36.8531 68.9804 37.1198C69.367 37.3865 69.7804 37.6665 70.2204 37.9598C70.6737 38.2398 71.087 38.5731 71.4604 38.9598C71.847 39.3331 72.167 39.7798 72.4204 40.2998C72.6737 40.8065 72.8004 41.4131 72.8004 42.1198C72.8004 42.8265 72.6937 43.4398 72.4804 43.9598C72.2804 44.4798 71.987 44.9131 71.6004 45.2598C71.227 45.5931 70.7737 45.8465 70.2404 46.0198C69.707 46.1931 69.1137 46.2798 68.4604 46.2798C67.6337 46.2798 66.907 46.1998 66.2804 46.0398C65.667 45.8798 65.1937 45.6998 64.8604 45.4998L65.6804 43.2398C65.947 43.3998 66.3137 43.5598 66.7804 43.7198C67.247 43.8798 67.747 43.9598 68.2804 43.9598C69.6137 43.9598 70.2804 43.4398 70.2804 42.3998Z" fill="#818592"/>
<path d="M80.8894 45.2598C80.5561 45.5531 80.1027 45.7931 79.5294 45.9798C78.9561 46.1665 78.3561 46.2598 77.7294 46.2598C77.0361 46.2598 76.4361 46.1398 75.9294 45.8998C75.4361 45.6598 75.0294 45.3131 74.7094 44.8598C74.3894 44.4065 74.1494 43.8598 73.9894 43.2198C73.8427 42.5665 73.7694 41.8265 73.7694 40.9998C73.7694 39.1998 74.1227 37.8731 74.8294 37.0198C75.5494 36.1531 76.5427 35.7198 77.8094 35.7198C78.2361 35.7198 78.6494 35.7865 79.0494 35.9198C79.4494 36.0398 79.8027 36.2531 80.1094 36.5598C80.4294 36.8531 80.6827 37.2531 80.8694 37.7598C81.0694 38.2531 81.1694 38.8798 81.1694 39.6398C81.1694 39.9331 81.1494 40.2465 81.1094 40.5798C81.0827 40.9131 81.0361 41.2731 80.9694 41.6598H76.1094C76.1361 42.4865 76.3094 43.1198 76.6294 43.5598C76.9494 43.9998 77.4627 44.2198 78.1694 44.2198C78.5961 44.2198 78.9827 44.1531 79.3294 44.0198C79.6894 43.8865 79.9627 43.7465 80.1494 43.5998L80.8894 45.2598ZM77.7694 37.7598C77.2627 37.7598 76.8827 37.9665 76.6294 38.3798C76.3761 38.7798 76.2294 39.3465 76.1894 40.0798H78.9494C78.9894 39.3198 78.9094 38.7465 78.7094 38.3598C78.5094 37.9598 78.1961 37.7598 77.7694 37.7598Z" fill="#818592"/>
<path d="M87.4041 38.3598C87.0841 38.2398 86.7908 38.1798 86.5241 38.1798C86.1641 38.1798 85.8508 38.2798 85.5841 38.4798C85.3308 38.6798 85.1574 38.9598 85.0641 39.3198V45.9998H82.6841V35.9998H84.5041L84.7841 37.1998H84.8641C85.0374 36.7598 85.2841 36.4198 85.6041 36.1798C85.9374 35.9265 86.3174 35.7998 86.7441 35.7998C87.0641 35.7998 87.3774 35.8665 87.6841 35.9998L87.4041 38.3598Z" fill="#818592"/>
<path d="M91.5835 41.2198L91.8235 42.7998H91.9035L92.1235 41.1998L93.3635 35.9998H95.9235L92.5635 46.0998H90.9635L87.4235 35.9998H90.2035L91.5835 41.2198Z" fill="#818592"/>
<path d="M96.7318 35.9998H99.1118V45.9998H96.7318V35.9998ZM96.4718 33.1798C96.4718 32.7798 96.5984 32.4531 96.8518 32.1998C97.1051 31.9331 97.4651 31.7998 97.9318 31.7998C98.3984 31.7998 98.7718 31.9265 99.0518 32.1798C99.3318 32.4331 99.4718 32.7665 99.4718 33.1798C99.4718 33.5931 99.3318 33.9198 99.0518 34.1598C98.7718 34.3998 98.3984 34.5198 97.9318 34.5198C97.4651 34.5198 97.1051 34.3998 96.8518 34.1598C96.5984 33.9065 96.4718 33.5798 96.4718 33.1798Z" fill="#818592"/>
<path d="M106.924 45.4598C106.591 45.7265 106.191 45.9265 105.724 46.0598C105.257 46.1931 104.791 46.2598 104.324 46.2598C103.644 46.2598 103.071 46.1398 102.604 45.8998C102.151 45.6465 101.777 45.2931 101.484 44.8398C101.191 44.3731 100.977 43.8198 100.844 43.1798C100.724 42.5265 100.664 41.7998 100.664 40.9998C100.664 39.2531 100.977 37.9398 101.604 37.0598C102.231 36.1798 103.151 35.7398 104.364 35.7398C104.964 35.7398 105.451 35.7931 105.824 35.8998C106.211 36.0065 106.551 36.1398 106.844 36.2998L106.284 38.2798C106.044 38.1598 105.811 38.0731 105.584 38.0198C105.371 37.9531 105.111 37.9198 104.804 37.9198C104.244 37.9198 103.824 38.1665 103.544 38.6598C103.264 39.1398 103.124 39.9198 103.124 40.9998C103.124 41.9065 103.264 42.6465 103.544 43.2198C103.837 43.7931 104.297 44.0798 104.924 44.0798C105.257 44.0798 105.537 44.0398 105.764 43.9598C106.004 43.8665 106.224 43.7531 106.424 43.6198L106.924 45.4598Z" fill="#818592"/>
<path d="M114.522 45.2598C114.189 45.5531 113.736 45.7931 113.162 45.9798C112.589 46.1665 111.989 46.2598 111.362 46.2598C110.669 46.2598 110.069 46.1398 109.562 45.8998C109.069 45.6598 108.662 45.3131 108.342 44.8598C108.022 44.4065 107.782 43.8598 107.622 43.2198C107.476 42.5665 107.402 41.8265 107.402 40.9998C107.402 39.1998 107.756 37.8731 108.462 37.0198C109.182 36.1531 110.176 35.7198 111.442 35.7198C111.869 35.7198 112.282 35.7865 112.682 35.9198C113.082 36.0398 113.436 36.2531 113.742 36.5598C114.062 36.8531 114.316 37.2531 114.502 37.7598C114.702 38.2531 114.802 38.8798 114.802 39.6398C114.802 39.9331 114.782 40.2465 114.742 40.5798C114.716 40.9131 114.669 41.2731 114.602 41.6598H109.742C109.769 42.4865 109.942 43.1198 110.262 43.5598C110.582 43.9998 111.096 44.2198 111.802 44.2198C112.229 44.2198 112.616 44.1531 112.962 44.0198C113.322 43.8865 113.596 43.7465 113.782 43.5998L114.522 45.2598ZM111.402 37.7598C110.896 37.7598 110.516 37.9665 110.262 38.3798C110.009 38.7798 109.862 39.3465 109.822 40.0798H112.582C112.622 39.3198 112.542 38.7465 112.342 38.3598C112.142 37.9598 111.829 37.7598 111.402 37.7598Z" fill="#818592"/>
</svg>
