<svg width="170" height="60" viewBox="0 0 170 60" fill="none" xmlns="http://www.w3.org/2000/svg">
<path d="M40.8335 12.5V14.8946H58.0274V12.5H40.8335ZM60.4635 12.5V14.8946H84.9656C84.9656 14.8946 82.4629 12.5 79.1481 12.5H60.4635ZM89.7722 12.5V14.8946H104.596L103.716 12.5H89.7722ZM115.223 12.5L114.343 14.8946H129.032V12.5H115.223ZM40.8335 17.1569V19.5515H58.0274V17.1569H40.8335ZM60.4635 17.1603V19.5516H87.8088C87.8088 19.5516 87.4895 17.7086 86.9324 17.1603H60.4635ZM89.7722 17.1603V19.5516H106.221L105.406 17.1603H89.7722ZM113.463 17.1603L112.649 19.5516H129.032V17.1603H113.463ZM45.7746 21.8138V24.2119H53.2208V21.8138H45.7746ZM65.4046 21.8138V24.2119H72.8509V21.8138H65.4046ZM80.0935 21.8138V24.2119H87.5397C87.5397 24.2119 88.0125 22.9455 88.0125 21.8138H80.0935ZM94.7134 21.8138V24.2119H107.915L107.035 21.8138H94.7134ZM111.842 21.8138L110.958 24.2119H124.226V21.8138H111.842ZM45.7746 26.4743V28.8689H53.2208V26.4743H45.7746ZM65.4046 26.4743V28.8689H84.4239C84.4239 28.8689 86.0149 27.6402 86.5218 26.4743H65.4046ZM94.7134 26.4743V28.8689H102.16V27.5359L102.632 28.8689H116.272L116.779 27.5359V28.8689H124.226V26.4743H110.248L109.506 28.5025L108.76 26.4743H94.7134ZM45.7746 31.1312V33.5258H53.2208V31.1312H45.7746ZM65.4046 31.1312V33.5258H86.5218C86.0148 32.3637 84.4239 31.1312 84.4239 31.1312H65.4046ZM94.7134 31.1312V33.5258H102.16V31.1312H94.7134ZM103.512 31.1312L104.413 33.5258H114.64L115.496 31.1312H103.512ZM116.779 31.1312V33.5258H124.226V31.1312H116.779ZM45.7746 35.7881V38.1826H53.2208V35.7881H45.7746ZM65.4046 35.7881V38.1826H72.8509V35.7881H65.4046ZM80.0935 35.7881V38.1826H88.0124C88.0124 37.0526 87.5397 35.7881 87.5397 35.7881H80.0935ZM94.7134 35.7881V38.1826H102.16V35.7881H94.7134ZM105.203 35.7881L106.076 38.1826H112.932L113.812 35.7881H105.203ZM116.779 35.7881V38.1826H124.226V35.7881H116.779ZM40.968 40.4451V42.8431H58.1619V40.4451H40.968ZM60.4635 40.4451V42.8431H86.9324C87.4895 42.294 87.8088 40.4451 87.8088 40.4451H60.4635ZM89.9068 40.4451V42.8431H102.16V40.4451H89.9068ZM106.897 40.4451L107.794 42.8431H111.283L112.125 40.4451H106.897ZM116.779 40.4451V42.8431H129.167V40.4451H116.779ZM40.968 45.1054V47.5H58.1619V45.1054H40.968ZM60.4635 45.1054V47.4966H79.1481C82.4629 47.4966 84.9656 45.1054 84.9656 45.1054H60.4635ZM89.9068 45.1054V47.5H102.16V45.1054H89.9068ZM108.598 45.1054L109.461 47.4933L109.609 47.4966L110.486 45.1054H108.598ZM116.779 45.1054V47.5H129.167V45.1054H116.779Z" fill="#818592"/>
</svg>
