<svg width="170" height="60" viewBox="0 0 170 60" fill="none" xmlns="http://www.w3.org/2000/svg">
<path d="M74.7561 33.0117H84.6678L79.4269 24.3636L69.8078 39.9997H65.4303L77.13 21.2172C77.6386 20.4585 78.4864 20 79.4269 20C80.3362 20 81.1841 20.4426 81.6774 21.1857L93.4234 39.9997H89.0459L86.9805 36.5057H76.9454L74.7563 33.0117H74.7561ZM120.23 36.5054V20.1896H116.515V38.1025C116.515 38.5925 116.7 39.067 117.054 39.4306C117.409 39.7942 117.887 39.9997 118.411 39.9997H135.352L137.541 36.5057H120.229L120.23 36.5054ZM58.7708 33.5805C62.3781 33.5805 65.3069 30.5925 65.3069 26.893C65.3069 23.1932 62.3781 20.1893 58.7708 20.1893H42.5189V40H46.2326V23.6839H58.5244C60.2509 23.6839 61.6381 25.1229 61.6381 26.8936C61.6381 28.6641 60.2509 30.1028 58.5244 30.1028L48.0517 30.0871L59.1408 40H64.5361L57.0754 33.5811H58.7711L58.7708 33.5805ZM19.6592 39.9997C14.3271 40 10 35.573 10 30.1028C10 24.6322 14.3271 20.1899 19.6592 20.1899H30.8857C36.2189 20.1899 40.5429 24.6322 40.5429 30.1028C40.5429 35.573 36.2189 39.9997 30.8855 39.9997H19.6592ZM30.6361 36.5057C34.0905 36.5057 36.8884 33.6439 36.8884 30.1025C36.8884 26.5613 34.0905 23.6839 30.6361 23.6839H19.9076C16.4544 23.6839 13.6551 26.5613 13.6551 30.1028C13.6551 33.6439 16.4544 36.5057 19.9073 36.5057H30.6358H30.6361ZM101.177 39.9997C95.8439 39.9997 91.5121 35.573 91.5121 30.1028C91.5121 24.6322 95.8439 20.1899 101.177 20.1899H114.511L112.338 23.6839H101.424C97.9709 23.6839 95.1654 26.5613 95.1654 30.1028C95.1654 33.6439 97.9709 36.5057 101.424 36.5057H114.819L112.63 39.9997H101.177ZM146.605 36.5057C143.753 36.5057 141.333 34.5454 140.593 31.8416H156.47L158.659 28.3477H140.593C141.333 25.6599 143.753 23.6839 146.605 23.6839H157.503L159.707 20.1893H146.358C141.024 20.1893 136.693 24.6319 136.693 30.1022C136.693 35.5727 141.024 39.9994 146.358 39.9994H157.811L160 36.5057H146.605H146.605Z" fill="#818592"/>
</svg>
