<svg width="170" height="60" viewBox="0 0 170 60" fill="none" xmlns="http://www.w3.org/2000/svg">
<path d="M55.7324 37.3369V22.6656H59.6388L64.5851 33.5486L69.4606 22.6659H73.1993V37.3369H69.9802V28.9391L66.2639 37.3369H62.8324L59.0715 28.9826V37.3369H55.7324ZM78.452 37.3369H74.6645L81.1721 22.6656H85.8369L92.39 37.3369H88.6505L87.3612 34.4025L79.7018 34.4253L78.452 37.3369ZM86.1543 31.6578L83.4924 25.598L80.8906 31.6578H86.1543ZM93.9278 37.3369V22.6656H107.945V25.5983H97.3132V28.535H106.428V31.446H97.3132V34.4044H107.945V37.3369H93.9278Z" fill="#818592"/>
<path d="M110.664 37.337V22.6656H122.664C122.664 22.6656 123.437 22.5783 124.253 23.3725C124.985 24.0828 124.863 25.1255 124.863 25.1255V30.0552C124.863 30.0552 125.008 30.9606 124.144 31.7352C123.309 32.482 122.096 32.32 122.096 32.32L124.889 37.337H121.221L118.45 32.32H114.097V37.337H110.664ZM114.098 29.3866H121.457V25.599H114.098V29.3866ZM131.036 37.337H129.873C129.873 37.337 128.853 37.3175 128.274 36.7066C127.604 35.9963 127.627 35.1835 127.627 35.1835V33.2667H131.036V34.4049H138.277V31.445H129.966C129.966 31.445 128.942 31.5488 128.311 30.9002C127.609 30.1821 127.685 29.3162 127.685 29.3162V24.9148C127.685 24.9148 127.67 24.1749 128.169 23.5176C128.885 22.5722 129.991 22.6665 129.991 22.6665L139.486 22.6735C139.486 22.6735 140.26 22.6187 141.018 23.3534C141.85 24.1549 141.658 25.0091 141.658 25.0091V26.7603H138.274V25.5999H131.032V28.5351H139.315C139.315 28.5351 140.287 28.4638 140.971 29.2449C141.658 30.0265 141.658 30.9006 141.658 30.9006V35.0423C141.658 35.0423 141.769 35.8551 141.118 36.5932C140.38 37.4343 139.387 37.3379 139.387 37.3379H131.033" fill="#818592"/>
<path d="M144.903 37.3328V22.6572H148.379V28.5264L155.004 22.6572H159.718L151.815 29.4738L160 37.3328H155.126L148.379 30.6552V37.3328H144.903Z" fill="#818592"/>
<path fill-rule="evenodd" clip-rule="evenodd" d="M42.1453 16.9332C42.138 14.9654 40.6234 13.0542 38.2726 13.0641L13.884 13.0489C11.8385 13.0376 9.99944 14.7534 10.0011 16.9332L10 43.037C10 45.0641 11.604 46.9312 13.8738 46.9355H38.2548C40.4679 46.929 42.1411 45.1672 42.1523 43.0517L42.1453 16.9332ZM37.4507 21.054L28.4181 25.3177L28.4153 25.3174L26.0642 15.5825H26.0002L23.6333 25.2835L14.5917 21.0195C14.585 21.0282 14.5778 21.0359 14.571 21.0432C14.5492 21.0668 14.5311 21.0862 14.5451 21.1211L20.8118 28.9209L20.7486 28.985L11.6562 33.3635C11.6562 33.3915 11.6562 33.4189 11.6935 33.4471L21.6941 33.4736L19.4347 43.4687C19.4716 43.4964 19.4902 43.4964 19.5269 43.4681L26.0129 35.446H26.0964L32.6495 43.4574L32.7138 43.401L30.4222 33.4414L40.4423 33.4316C40.5049 33.3861 40.4592 33.3491 40.4129 33.322L31.2884 28.9104L37.5342 21.0991C37.5242 21.0959 37.5151 21.0862 37.5058 21.0763C37.49 21.0595 37.4736 21.0421 37.4507 21.054Z" fill="#818592"/>
</svg>
