<svg width="170" height="60" viewBox="0 0 170 60" fill="none" xmlns="http://www.w3.org/2000/svg">
<path d="M143.861 24.0824C144.71 24.0824 145.408 23.6412 145.503 23.071L146.341 13.5943C146.341 12.6576 145.243 11.8887 143.864 11.8887C142.485 11.8887 141.389 12.6576 141.389 13.5945L142.227 23.071C142.319 23.641 143.017 24.0824 143.864 24.0824H143.861ZM138.739 27.0425C139.165 26.3083 139.133 25.4832 138.684 25.1167L130.895 19.6527C130.085 19.1836 128.871 19.7482 128.181 20.9434C127.49 22.1371 127.612 23.4702 128.42 23.9394L137.045 27.9553C137.584 28.1552 138.32 27.7705 138.742 27.0369L138.739 27.0425ZM148.987 27.0374C149.412 27.771 150.144 28.1558 150.684 27.9558L159.309 23.9399C160.121 23.4709 160.237 22.1376 159.552 20.9439C158.859 19.7499 157.643 19.1841 156.835 19.6532L149.045 25.1172C148.6 25.4832 148.567 26.309 148.99 27.043L148.987 27.0374ZM143.861 35.9203C144.71 35.9203 145.408 36.3579 145.503 36.9285L146.341 46.4039C146.341 47.3434 145.243 48.1107 143.864 48.1107C142.485 48.1107 141.389 47.3434 141.389 46.4039L142.227 36.9285C142.319 36.3579 143.017 35.9203 143.864 35.9203H143.861ZM148.987 32.9596C149.412 32.224 150.144 31.8425 150.684 32.0448L159.309 36.0579C160.121 36.5275 160.237 37.862 159.552 39.0567C158.859 40.2468 157.643 40.8141 156.835 40.3457L149.045 34.8868C148.6 34.5178 148.567 33.6916 148.99 32.9581H148.987L148.987 32.9596ZM138.739 32.9586C139.165 33.6916 139.133 34.5178 138.684 34.8874L130.895 40.3462C130.085 40.8146 128.871 40.2473 128.181 39.0572C127.49 37.8625 127.612 36.528 128.42 36.0585L137.045 32.0453C137.584 31.843 138.32 32.2245 138.742 32.9603H138.739" fill="#818592"/>
<path d="M94.7278 34.8697C94.7278 35.1606 94.702 35.4605 94.6223 35.7239C94.2919 36.818 93.1591 37.7432 91.7419 37.7432C90.5603 37.7432 89.6217 37.072 89.6217 35.6543C89.6217 33.4845 92.0099 32.8853 94.7285 32.9003L94.7278 34.8697ZM98.9919 31.0885C98.9919 27.5107 97.4631 24.3625 92.2975 24.3625C89.6459 24.3625 87.5414 25.1073 86.3927 25.7711L87.234 28.6474C88.2838 27.9846 89.957 27.436 91.5404 27.436C94.1606 27.4287 94.5897 28.9198 94.5897 29.874V30.0999C88.8781 30.0915 85.2677 32.0692 85.2677 36.0979C85.2677 38.5597 87.1065 40.8654 90.3031 40.8654C92.2673 40.8654 93.9124 40.0813 94.8969 38.8243H94.9941C94.9941 38.8243 95.6456 41.5535 99.242 40.5093C99.0543 39.3743 98.9926 38.1627 98.9926 36.7057L98.9919 31.0885ZM10 19.4901C10 19.4901 13.7324 34.7837 14.3284 37.2657C15.0236 40.1628 16.2766 41.2294 19.8876 40.5093L22.218 31.0278C22.8089 28.6716 23.2043 26.9916 23.5851 24.5972H23.6514C23.9187 27.017 24.2979 28.6788 24.7842 31.0356C24.7842 31.0356 25.7324 35.3403 26.2188 37.6005C26.7057 39.86 28.0611 41.285 31.5985 40.5093L37.1516 19.4894H32.6694L30.7727 28.5777C30.2628 31.2221 29.8005 33.2907 29.4438 35.7094H29.3804C29.0562 33.312 28.6435 31.3278 28.1257 28.7507L26.1525 19.4894H21.4816L19.3699 28.5172C18.7722 31.2613 18.2117 33.4762 17.8566 35.8144H17.792C17.4275 33.6127 16.9423 30.8278 16.4171 28.1728C16.4171 28.1728 15.1634 21.7153 14.7225 19.4894L10 19.4901ZM45.6301 34.8697C45.6301 35.1606 45.6042 35.4605 45.5234 35.7239C45.1937 36.818 44.0602 37.7432 42.643 37.7432C41.4612 37.7432 40.524 37.072 40.524 35.6543C40.524 33.4845 42.9115 32.8853 45.6306 32.9003L45.6301 34.8697ZM49.8937 31.0885C49.8937 27.5107 48.3649 24.3625 43.2003 24.3625C40.548 24.3625 38.4418 25.1073 37.2938 25.7711L38.1341 28.6474C39.1837 27.9846 40.8569 27.436 42.4408 27.436C45.0629 27.4287 45.492 28.9198 45.492 29.874V30.0999C39.778 30.0915 36.1693 32.0692 36.1693 36.0979C36.1693 38.5597 38.0071 40.8654 41.2013 40.8654C43.1682 40.8654 44.8123 40.0813 45.798 38.8243H45.894C45.894 38.8243 46.5474 41.5535 50.1429 40.5093C49.9549 39.3743 49.8937 38.1627 49.8937 36.7057V31.0885ZM57.0095 19.4901H52.7403V40.5099H57.0095V19.4901ZM112.858 19.4901V34.996C112.858 37.1348 113.261 38.6317 114.121 39.5477C114.874 40.3487 116.112 40.867 117.597 40.867C118.859 40.867 120.101 40.6261 120.687 40.4088L120.631 37.0736C120.196 37.1802 119.695 37.2664 119.01 37.2664C117.555 37.2664 117.069 36.3344 117.069 34.4153V28.4824H120.787V24.46H117.069V19.4901H112.858ZM101.839 24.7191V40.5099H106.243V32.4247C106.243 31.9877 106.269 31.6069 106.338 31.2586C106.664 29.5641 107.959 28.4824 109.819 28.4824C110.329 28.4824 110.694 28.5378 111.09 28.594V24.46C110.758 24.3939 110.533 24.363 110.12 24.363C108.476 24.363 106.607 25.4234 105.822 27.6982H105.703V24.7191H101.839ZM59.9987 24.7191V40.5099H64.2894V31.2502C64.2894 30.8156 64.3404 30.3561 64.4909 29.9577C64.8465 29.0254 65.7142 27.9336 67.0987 27.9336C68.8309 27.9336 69.6398 29.3972 69.6398 31.5097V40.5088H73.9271V31.1362C73.9271 30.7216 73.9837 30.2218 74.1063 29.8563C74.4583 28.7952 75.3929 27.9324 76.6803 27.9324C78.4355 27.9324 79.278 29.3704 79.278 31.8568V40.5083H83.5681V31.2074C83.5681 26.303 81.0776 24.3615 78.2659 24.3615C77.0218 24.3615 76.0388 24.6731 75.1498 25.2179C74.4033 25.6777 73.7338 26.3294 73.1496 27.1859H73.0862C72.4082 25.4841 70.813 24.3623 68.7342 24.3623C66.0637 24.3623 64.8634 25.7161 64.1353 26.8641H64.0714V24.7186L59.9987 24.7191Z" fill="#818592"/>
</svg>
