<svg width="65" height="65" viewBox="0 0 65 65" fill="none" xmlns="http://www.w3.org/2000/svg">
<path d="M55.2045 0H0V54.9479C6.91579 61.1956 16.0812 65 26.1351 65C46.573 65 63.3391 49.2789 65 29.2698V22.7302C64.2777 14.0293 60.6992 6.13916 55.2045 0Z" fill="#00DCE6" fill-opacity="0.1"/>
<path d="M48.4255 5.42529H48.9255V4.92529H48.4255V5.42529ZM5.42554 5.42529V4.92529H4.92554V5.42529H5.42554ZM48.4255 48.4253V48.9253H48.9255V48.4253H48.4255ZM5.42554 48.4253H4.92554V48.9253H5.42554V48.4253ZM45.0487 24.3378H45.5487V23.8378H45.0487V24.3378ZM41.3566 24.3378L40.8644 24.4257L40.938 24.8378H41.3566V24.3378ZM38.9627 18.5552L38.6091 18.2017L38.3122 18.4986L38.5533 18.8424L38.9627 18.5552ZM41.5673 15.9506L41.9209 16.3041L42.2745 15.9506L41.9209 15.597L41.5673 15.9506ZM37.909 12.2922L38.2626 11.9387L37.909 11.5851L37.5555 11.9387L37.909 12.2922ZM35.3043 14.8969L35.0182 15.3069L35.3617 15.5467L35.6579 15.2504L35.3043 14.8969ZM29.5218 12.5029H29.0218V12.9213L29.4336 12.9951L29.5218 12.5029ZM29.5218 8.80246H30.0218V8.30246H29.5218V8.80246ZM24.3462 8.80246V8.30246H23.8462V8.80246H24.3462ZM24.3462 12.4945L24.4341 12.9867L24.8462 12.9131V12.4945H24.3462ZM18.5636 14.8885L18.2101 15.242L18.507 15.5389L18.8508 15.2978L18.5636 14.8885ZM15.959 12.2838L16.3125 11.9302L15.959 11.5767L15.6054 11.9302L15.959 12.2838ZM12.3006 15.9421L11.9471 15.5886L11.5935 15.9421L11.9471 16.2957L12.3006 15.9421ZM14.9053 18.5468L15.3153 18.833L15.5551 18.4895L15.2588 18.1932L14.9053 18.5468ZM12.5114 24.3293V24.8293H12.9297L13.0035 24.4176L12.5114 24.3293ZM8.80243 24.3293V23.8293H8.30243V24.3293H8.80243ZM8.80243 29.505H8.30243V30.005H8.80243V29.505ZM12.4945 29.505L12.9867 29.4171L12.9131 29.005H12.4945V29.505ZM14.8884 35.2875L15.242 35.6411L15.5389 35.3441L15.2978 35.0004L14.8884 35.2875ZM12.2838 37.8922L11.9302 37.5386L11.5767 37.8922L11.9302 38.2457L12.2838 37.8922ZM15.9421 41.5505L15.5885 41.9041L15.9421 42.2576L16.2957 41.9041L15.9421 41.5505ZM18.5468 38.9458L18.833 38.5358L18.4894 38.2961L18.1932 38.5923L18.5468 38.9458ZM24.3293 41.3398H24.8293V40.9214L24.4175 40.8476L24.3293 41.3398ZM24.3293 45.0487H23.8293V45.5487H24.3293V45.0487ZM29.5049 45.0487V45.5487H30.0049V45.0487H29.5049ZM29.5049 41.3566L29.417 40.8644L29.0049 40.938V41.3566H29.5049ZM35.2875 38.9627L35.641 38.6091L35.3441 38.3122L35.0003 38.5534L35.2875 38.9627ZM37.8922 41.5674L37.5386 41.9209L37.8922 42.2745L38.2457 41.9209L37.8922 41.5674ZM41.5505 37.909L41.904 38.2626L42.2576 37.909L41.904 37.5555L41.5505 37.909ZM38.9458 35.3044L38.5358 35.0182L38.296 35.3617L38.5923 35.6579L38.9458 35.3044ZM41.3398 29.5218V29.0218H40.9214L40.8476 29.4336L41.3398 29.5218ZM45.0487 29.5218V30.0218H45.5487V29.5218H45.0487ZM25.2396 30.7192L24.8861 31.0727L25.261 31.4477L25.6133 31.0514L25.2396 30.7192ZM48.9255 12.2118V5.42529H47.9255V12.2118H48.9255ZM48.4255 4.92529H41.639V5.92529H48.4255V4.92529ZM12.2121 4.92529H5.42554V5.92529H12.2121V4.92529ZM4.92554 5.42529V12.2118H5.92554V5.42529H4.92554ZM41.639 48.9253H48.4255V47.9253H41.639V48.9253ZM48.9255 48.4253V41.6388H47.9255V48.4253H48.9255ZM4.92554 41.6388V48.4253H5.92554V41.6388H4.92554ZM5.42554 48.9253H12.2121V47.9253H5.42554V48.9253ZM45.0487 23.8378H41.3566V24.8378H45.0487V23.8378ZM41.8488 24.2499C41.4567 22.0542 40.6025 20.0221 39.372 18.2681L38.5533 18.8424C39.7 20.4769 40.4978 22.3729 40.8644 24.4257L41.8488 24.2499ZM39.3162 18.9088L41.9209 16.3041L41.2138 15.597L38.6091 18.2017L39.3162 18.9088ZM41.9209 15.597L38.2626 11.9387L37.5555 12.6458L41.2138 16.3041L41.9209 15.597ZM37.5555 11.9387L34.9508 14.5433L35.6579 15.2504L38.2626 12.6458L37.5555 11.9387ZM35.5905 14.4869C33.8288 13.2572 31.7973 12.4029 29.61 12.0108L29.4336 12.9951C31.4778 13.3616 33.3744 14.1595 35.0182 15.3069L35.5905 14.4869ZM30.0218 12.5029V8.80246H29.0218V12.5029H30.0218ZM29.5218 8.30246H24.3462V9.30246H29.5218V8.30246ZM23.8462 8.80246V12.4945H24.8462V8.80246H23.8462ZM24.2583 12.0023C22.0626 12.3944 20.0305 13.2487 18.2765 14.4791L18.8508 15.2978C20.4853 14.1512 22.3813 13.3533 24.4341 12.9867L24.2583 12.0023ZM18.9172 14.5349L16.3125 11.9302L15.6054 12.6373L18.2101 15.242L18.9172 14.5349ZM15.6054 11.9302L11.9471 15.5886L12.6542 16.2957L16.3125 12.6373L15.6054 11.9302ZM11.9471 16.2957L14.5517 18.9003L15.2588 18.1932L12.6542 15.5886L11.9471 16.2957ZM14.4953 18.2606C13.2656 20.0223 12.4113 22.0538 12.0192 24.2411L13.0035 24.4176C13.37 22.3733 14.1679 20.4767 15.3153 18.833L14.4953 18.2606ZM12.5114 23.8293H8.80243V24.8293H12.5114V23.8293ZM8.30243 24.3293V29.505H9.30243V24.3293H8.30243ZM8.80243 30.005H12.4945V29.005H8.80243V30.005ZM12.0023 29.5929C12.3944 31.7885 13.2487 33.8206 14.4791 35.5746L15.2978 35.0004C14.1511 33.3658 13.3533 31.4698 12.9867 29.4171L12.0023 29.5929ZM14.5349 34.9339L11.9302 37.5386L12.6373 38.2457L15.242 35.6411L14.5349 34.9339ZM11.9302 38.2457L15.5885 41.9041L16.2957 41.197L12.6373 37.5386L11.9302 38.2457ZM16.2957 41.9041L18.9003 39.2994L18.1932 38.5923L15.5885 41.197L16.2957 41.9041ZM18.2606 39.3558C20.0223 40.5855 22.0538 41.4398 24.2411 41.8319L24.4175 40.8476C22.3733 40.4811 20.4767 39.6832 18.833 38.5358L18.2606 39.3558ZM23.8293 41.3398V45.0487H24.8293V41.3398H23.8293ZM24.3293 45.5487H29.5049V44.5487H24.3293V45.5487ZM30.0049 45.0487V41.3566H29.0049V45.0487H30.0049ZM29.5928 41.8489C31.7885 41.4568 33.8206 40.6025 35.5746 39.372L35.0003 38.5534C33.3658 39.7 31.4698 40.4979 29.417 40.8644L29.5928 41.8489ZM34.9339 39.3163L37.5386 41.9209L38.2457 41.2138L35.641 38.6091L34.9339 39.3163ZM38.2457 41.9209L41.904 38.2626L41.1969 37.5555L37.5386 41.2138L38.2457 41.9209ZM41.904 37.5555L39.2994 34.9508L38.5923 35.6579L41.1969 38.2626L41.904 37.5555ZM39.3558 35.5905C40.5855 33.8288 41.4398 31.7973 41.8319 29.6101L40.8476 29.4336C40.4811 31.4778 39.6832 33.3744 38.5358 35.0182L39.3558 35.5905ZM41.3398 30.0218H45.0487V29.0218H41.3398V30.0218ZM21.5143 27.701L24.8861 31.0727L25.5932 30.3656L22.2215 26.9939L21.5143 27.701ZM25.6133 31.0514L32.3568 23.4649L31.6094 22.8006L24.8659 30.387L25.6133 31.0514ZM24.125 17.0119C25.0231 16.7473 25.9533 16.6108 26.9256 16.6108V15.6108C25.8579 15.6108 24.8325 15.7609 23.8424 16.0527L24.125 17.0119ZM26.9256 16.6108C32.6419 16.6108 37.2404 21.2331 37.2404 26.9257H38.2404C38.2404 20.6823 33.1958 15.6108 26.9256 15.6108V16.6108ZM37.2404 26.9257C37.2404 32.618 32.6338 37.2405 26.9256 37.2405V38.2405C33.1871 38.2405 38.2404 33.1693 38.2404 26.9257H37.2404ZM26.9256 37.2405C21.2337 37.2405 16.6107 32.6175 16.6107 26.9257H15.6107C15.6107 33.1698 20.6814 38.2405 26.9256 38.2405V37.2405ZM16.6107 26.9257C16.6107 25.7462 16.8192 24.6117 17.1828 23.5372L16.2356 23.2167C15.8405 24.3843 15.6107 25.6269 15.6107 26.9257H16.6107ZM45.5487 29.5218V24.3378H44.5487V29.5218H45.5487Z" fill="#00DCE6"/>
</svg>
