<svg width="65" height="65" viewBox="0 0 65 65" fill="none" xmlns="http://www.w3.org/2000/svg">
<path d="M55.2045 0H0V54.9479C6.91579 61.1956 16.0812 65 26.1351 65C46.573 65 63.3391 49.2789 65 29.2698V22.7302C64.2777 14.0293 60.6992 6.13916 55.2045 0Z" fill="#00DCE6" fill-opacity="0.1"/>
<path d="M9.41963 40.1345V39.6345H8.91963V40.1345H9.41963ZM48.3251 26.8266L47.8251 26.8278V26.8279L48.3251 26.8266ZM26.8264 48.3254L26.8312 48.8253L26.8316 48.8253L26.8264 48.3254ZM12.4939 43.2087L12.1689 43.5886L12.17 43.5896L12.4939 43.2087ZM5.32771 26.8267L5.82771 26.8255L5.82771 26.8254L5.32771 26.8267ZM11.6913 11.5769L12.0449 11.9305L11.6913 11.5769ZM26.8264 5.32796L26.8216 4.82799L26.8212 4.82799L26.8264 5.32796ZM41.1589 10.4447L41.484 10.0648L41.4828 10.0638L41.1589 10.4447ZM44.2332 13.519L44.2332 14.019L44.7332 14.019V13.519H44.2332ZM36.6348 24.9869L37.0588 24.7219L37.0549 24.7156L37.0508 24.7095L36.6348 24.9869ZM36.098 24.1817L35.9763 23.6968L35.2888 23.8693L35.682 24.4591L36.098 24.1817ZM38.2695 23.6369V23.1369H38.2077L38.1478 23.1519L38.2695 23.6369ZM35.5532 21.4654V20.9654H35.2852L35.1368 21.1886L35.5532 21.4654ZM34.4715 23.092L34.6303 23.5661L34.7929 23.5116L34.8879 23.3688L34.4715 23.092ZM32.845 23.6369V24.1369H32.9265L33.0038 24.111L32.845 23.6369ZM20.3776 23.6369L20.2188 24.111L20.2961 24.1369H20.3776V23.6369ZM18.7511 23.092L18.3347 23.3688L18.4297 23.5116L18.5923 23.5661L18.7511 23.092ZM17.6694 21.4654L18.0858 21.1886L17.9374 20.9654H17.6694V21.4654ZM14.9613 23.6369L15.083 23.1519L15.023 23.1369H14.9613V23.6369ZM17.1327 24.1817L17.5487 24.4591L17.9419 23.8693L17.2544 23.6968L17.1327 24.1817ZM16.5959 24.9869L16.1799 24.7095L16.5959 24.9869ZM33.3817 19.3022L32.9934 19.6171L32.998 19.6229L33.0029 19.6285L33.3817 19.3022ZM17.9541 26.1008L18.3076 25.7472V25.7472L17.9541 26.1008ZM15.5683 39.6345H9.41963V40.6345H15.5683V39.6345ZM8.91963 40.1345V46.2759H9.91963V40.1345H8.91963ZM45.9351 18.298C47.1681 21.0091 47.8182 23.9203 47.8251 26.8278L48.8251 26.8254C48.8178 23.7707 48.135 20.7195 46.8454 17.884L45.9351 18.298ZM47.8251 26.8279C47.8391 32.2072 45.7338 37.5971 41.608 41.7228L42.3151 42.4299C46.6311 38.1139 48.8398 32.4677 48.8251 26.8253L47.8251 26.8279ZM41.608 41.7228C37.552 45.7789 32.1986 47.7693 26.8212 47.8254L26.8316 48.8253C32.4473 48.7668 38.0583 46.6868 42.3151 42.4299L41.608 41.7228ZM26.8217 47.8254C20.9421 47.8815 16.6575 46.0929 12.8178 42.8278L12.17 43.5896C16.1846 47.0034 20.7001 48.8839 26.8312 48.8253L26.8217 47.8254ZM12.819 42.8288C12.4918 42.5488 11.7409 41.7988 11.0529 41.0982C10.7131 40.7522 10.3949 40.4246 10.1616 40.1835C10.0449 40.0629 9.94953 39.964 9.88335 39.8953C9.85026 39.861 9.82448 39.8342 9.80699 39.816C9.79824 39.8069 9.79157 39.7999 9.7871 39.7953C9.78486 39.7929 9.78317 39.7912 9.78205 39.79C9.78149 39.7894 9.78107 39.789 9.78079 39.7887C9.78066 39.7885 9.78055 39.7884 9.78049 39.7884C9.78045 39.7883 9.78043 39.7883 9.78041 39.7883C9.7804 39.7883 9.7804 39.7883 9.41963 40.1345C9.05886 40.4807 9.05887 40.4807 9.0589 40.4807C9.05891 40.4807 9.05895 40.4807 9.05899 40.4808C9.05906 40.4809 9.05918 40.481 9.05933 40.4811C9.05963 40.4815 9.06007 40.4819 9.06066 40.4825C9.06183 40.4837 9.06356 40.4856 9.06585 40.4879C9.07042 40.4927 9.0772 40.4997 9.08605 40.509C9.10375 40.5274 9.12976 40.5544 9.16308 40.589C9.22973 40.6582 9.32566 40.7577 9.44292 40.8789C9.67738 41.1212 9.9974 41.4506 10.3394 41.7988C11.0147 42.4866 11.8009 43.2737 12.1689 43.5886L12.819 42.8288ZM7.71774 35.3553C6.48477 32.6442 5.8347 29.733 5.82771 26.8255L4.82771 26.8279C4.83505 29.8827 5.5179 32.9338 6.80745 35.7693L7.71774 35.3553ZM5.82771 26.8254C5.81372 21.4461 7.9191 16.0563 12.0449 11.9305L11.3378 11.2234C7.02172 15.5394 4.81303 21.1856 4.82771 26.828L5.82771 26.8254ZM12.0449 11.9305C16.1009 7.87446 21.4543 5.88402 26.8316 5.82794L26.8212 4.82799C21.2055 4.88656 15.5946 6.96655 11.3378 11.2234L12.0449 11.9305ZM26.8312 5.82794C32.7107 5.77181 36.9953 7.56043 40.835 10.8256L41.4828 10.0638C37.4683 6.64995 32.9527 4.76946 26.8216 4.82799L26.8312 5.82794ZM40.8338 10.8246C41.161 11.1045 41.912 11.8545 42.6 12.5552C42.9397 12.9012 43.2579 13.2288 43.4913 13.4699C43.6079 13.5905 43.7033 13.6894 43.7695 13.7581C43.8026 13.7925 43.8284 13.8193 43.8459 13.8375C43.8546 13.8466 43.8613 13.8535 43.8657 13.8582C43.868 13.8605 43.8697 13.8623 43.8708 13.8634C43.8713 13.864 43.8718 13.8645 43.872 13.8647C43.8722 13.8649 43.8723 13.865 43.8724 13.8651C43.8724 13.8651 43.8724 13.8651 43.8724 13.8651C43.8724 13.8652 43.8724 13.8652 44.2332 13.519C44.594 13.1728 44.594 13.1728 44.594 13.1728C44.5939 13.1727 44.5939 13.1727 44.5939 13.1727C44.5938 13.1726 44.5937 13.1725 44.5935 13.1723C44.5932 13.172 44.5928 13.1715 44.5922 13.1709C44.591 13.1697 44.5893 13.1679 44.587 13.1655C44.5824 13.1608 44.5757 13.1537 44.5668 13.1445C44.5491 13.1261 44.5231 13.099 44.4898 13.0644C44.4231 12.9952 44.3272 12.8958 44.2099 12.7746C43.9755 12.5323 43.6555 12.2028 43.3135 11.8546C42.6381 11.1668 41.8519 10.3796 41.484 10.0648L40.8338 10.8246ZM38.0846 14.0191L44.2332 14.019L44.2332 13.019L38.0846 13.0191L38.0846 14.0191ZM44.7332 13.519V7.37759H43.7332V13.519H44.7332ZM37.5022 25.6584C37.3968 25.323 37.2374 25.0076 37.0588 24.7219L36.2108 25.2519C36.3575 25.4866 36.4746 25.7243 36.5482 25.9582L37.5022 25.6584ZM37.0508 24.7095L36.5141 23.9044L35.682 24.4591L36.2188 25.2642L37.0508 24.7095ZM36.2197 24.6667L38.3912 24.1218L38.1478 23.1519L35.9763 23.6968L36.2197 24.6667ZM38.2695 24.1369C38.8465 24.1369 39.3144 23.669 39.3144 23.092H38.3144C38.3144 23.1167 38.2942 23.1369 38.2695 23.1369V24.1369ZM39.3144 23.092V22.0103H38.3144V23.092H39.3144ZM39.3144 22.0103C39.3144 21.4333 38.8465 20.9654 38.2695 20.9654V21.9654C38.2942 21.9654 38.3144 21.9856 38.3144 22.0103H39.3144ZM38.2695 20.9654H35.5532V21.9654H38.2695V20.9654ZM35.1368 21.1886L34.0552 22.8151L34.8879 23.3688L35.9695 21.7423L35.1368 21.1886ZM34.3127 22.6179L32.6862 23.1627L33.0038 24.111L34.6303 23.5661L34.3127 22.6179ZM20.5364 23.1627L18.9099 22.6179L18.5923 23.5661L20.2188 24.111L20.5364 23.1627ZM19.1674 22.8151L18.0858 21.1886L17.2531 21.7423L18.3347 23.3688L19.1674 22.8151ZM17.6694 20.9654H14.9613V21.9654H17.6694V20.9654ZM14.9613 20.9654C14.3842 20.9654 13.9164 21.4333 13.9164 22.0103H14.9164C14.9164 21.9856 14.9365 21.9654 14.9613 21.9654V20.9654ZM13.9164 22.0103V23.092H14.9164V22.0103H13.9164ZM13.9164 23.092C13.9164 23.669 14.3842 24.1369 14.9613 24.1369V23.1369C14.9365 23.1369 14.9164 23.1167 14.9164 23.092H13.9164ZM14.8396 24.1218L17.011 24.6667L17.2544 23.6968L15.083 23.1519L14.8396 24.1218ZM16.7167 23.9044L16.1799 24.7095L17.0119 25.2642L17.5487 24.4591L16.7167 23.9044ZM16.1799 24.7095C15.7667 25.3294 15.551 26.0523 15.551 26.7923H16.551C16.551 26.2474 16.7095 25.7179 17.0119 25.2642L16.1799 24.7095ZM15.551 26.7923V30.143H16.551V26.7923H15.551ZM15.551 30.143C15.551 31.3137 16.5068 32.2695 17.6776 32.2695V31.2695C17.0591 31.2695 16.551 30.7614 16.551 30.143H15.551ZM18.2062 22.5553C18.6597 22.7658 18.6597 22.7658 18.6597 22.7658C18.6597 22.7658 18.6597 22.7658 18.6597 22.7657C18.6598 22.7656 18.6598 22.7655 18.6599 22.7653C18.6601 22.765 18.6603 22.7645 18.6606 22.7638C18.6613 22.7624 18.6623 22.7603 18.6635 22.7576C18.6661 22.752 18.6699 22.7438 18.675 22.733C18.685 22.7114 18.6998 22.6797 18.7188 22.6391C18.7567 22.558 18.8111 22.4416 18.8773 22.3011C19.0096 22.0199 19.1886 21.6423 19.3752 21.256C19.5621 20.869 19.7553 20.4761 19.9166 20.1631C19.9975 20.0063 20.0685 19.8732 20.1255 19.7724C20.1912 19.6566 20.2174 19.6218 20.2116 19.6285L19.4538 18.9759C19.3851 19.0558 19.3132 19.1776 19.2554 19.2796C19.189 19.3968 19.1113 19.543 19.0278 19.7049C18.8605 20.0293 18.6629 20.4314 18.4747 20.8211C18.2862 21.2114 18.1057 21.5922 17.9725 21.8752C17.9059 22.0168 17.851 22.134 17.8127 22.2159C17.7936 22.2569 17.7786 22.289 17.7684 22.3109C17.7633 22.3219 17.7594 22.3303 17.7568 22.336C17.7554 22.3388 17.7544 22.341 17.7537 22.3425C17.7534 22.3432 17.7531 22.3437 17.753 22.3441C17.7529 22.3443 17.7528 22.3444 17.7528 22.3445C17.7527 22.3446 17.7527 22.3446 17.7527 22.3447C17.7527 22.3447 17.7527 22.3447 18.2062 22.5553ZM20.2116 19.6285C20.2909 19.5364 20.415 19.438 20.558 19.3638C20.7038 19.2882 20.8313 19.2573 20.9144 19.2573V18.2573C20.6233 18.2573 20.3361 18.3524 20.0976 18.4761C19.8563 18.6012 19.6267 18.7753 19.4538 18.9759L20.2116 19.6285ZM20.9144 19.2573C20.916 19.2573 20.9177 19.2573 20.9194 19.2573C20.9211 19.2573 20.9229 19.2573 20.9247 19.2573C20.9265 19.2573 20.9283 19.2573 20.9301 19.2573C20.932 19.2573 20.9338 19.2573 20.9358 19.2573C20.9377 19.2573 20.9396 19.2573 20.9416 19.2573C20.9436 19.2573 20.9456 19.2573 20.9476 19.2573C20.9496 19.2573 20.9517 19.2573 20.9538 19.2573C20.9559 19.2573 20.958 19.2573 20.9602 19.2573C20.9624 19.2573 20.9646 19.2573 20.9668 19.2573C20.969 19.2573 20.9713 19.2573 20.9736 19.2573C20.9759 19.2573 20.9782 19.2573 20.9805 19.2573C20.9829 19.2573 20.9853 19.2573 20.9877 19.2573C20.9901 19.2573 20.9926 19.2573 20.995 19.2573C20.9975 19.2573 21 19.2573 21.0026 19.2573C21.0051 19.2573 21.0077 19.2573 21.0103 19.2573C21.0129 19.2573 21.0155 19.2573 21.0182 19.2573C21.0208 19.2573 21.0235 19.2573 21.0262 19.2573C21.029 19.2573 21.0317 19.2573 21.0345 19.2573C21.0373 19.2573 21.0401 19.2573 21.043 19.2573C21.0458 19.2573 21.0487 19.2573 21.0516 19.2573C21.0545 19.2573 21.0574 19.2573 21.0604 19.2573C21.0633 19.2573 21.0663 19.2573 21.0694 19.2573C21.0724 19.2573 21.0754 19.2573 21.0785 19.2573C21.0816 19.2573 21.0847 19.2573 21.0879 19.2573C21.091 19.2573 21.0942 19.2573 21.0974 19.2573C21.1006 19.2573 21.1038 19.2573 21.1071 19.2573C21.1103 19.2573 21.1136 19.2573 21.117 19.2573C21.1203 19.2573 21.1236 19.2573 21.127 19.2573C21.1304 19.2573 21.1338 19.2573 21.1372 19.2573C21.1407 19.2573 21.1441 19.2573 21.1476 19.2573C21.1511 19.2573 21.1546 19.2573 21.1582 19.2573C21.1617 19.2573 21.1653 19.2573 21.1689 19.2573C21.1725 19.2573 21.1762 19.2573 21.1798 19.2573C21.1835 19.2573 21.1872 19.2573 21.1909 19.2573C21.1947 19.2573 21.1984 19.2573 21.2022 19.2573C21.206 19.2573 21.2098 19.2573 21.2136 19.2573C21.2174 19.2573 21.2213 19.2573 21.2252 19.2573C21.2291 19.2573 21.233 19.2573 21.237 19.2573C21.2409 19.2573 21.2449 19.2573 21.2489 19.2573C21.2529 19.2573 21.2569 19.2573 21.261 19.2573C21.265 19.2573 21.2691 19.2573 21.2732 19.2573C21.2773 19.2573 21.2815 19.2573 21.2856 19.2573C21.2898 19.2573 21.294 19.2573 21.2982 19.2573C21.3025 19.2573 21.3067 19.2573 21.311 19.2573C21.3153 19.2573 21.3196 19.2573 21.3239 19.2573C21.3282 19.2573 21.3326 19.2573 21.337 19.2573C21.3413 19.2573 21.3458 19.2573 21.3502 19.2573C21.3546 19.2573 21.3591 19.2573 21.3636 19.2573C21.3681 19.2573 21.3726 19.2573 21.3771 19.2573C21.3817 19.2573 21.3863 19.2573 21.3909 19.2573C21.3955 19.2573 21.4001 19.2573 21.4047 19.2573C21.4094 19.2573 21.4141 19.2573 21.4188 19.2573C21.4235 19.2573 21.4282 19.2573 21.4329 19.2573C21.4377 19.2573 21.4425 19.2573 21.4473 19.2573C21.4521 19.2573 21.4569 19.2573 21.4618 19.2573C21.4666 19.2573 21.4715 19.2573 21.4764 19.2573C21.4813 19.2573 21.4863 19.2573 21.4912 19.2573C21.4962 19.2573 21.5012 19.2573 21.5062 19.2573C21.5112 19.2573 21.5162 19.2573 21.5213 19.2573C21.5263 19.2573 21.5314 19.2573 21.5365 19.2573C21.5417 19.2573 21.5468 19.2573 21.552 19.2573C21.5571 19.2573 21.5623 19.2573 21.5675 19.2573C21.5727 19.2573 21.578 19.2573 21.5832 19.2573C21.5885 19.2573 21.5938 19.2573 21.5991 19.2573C21.6044 19.2573 21.6097 19.2573 21.6151 19.2573C21.6204 19.2573 21.6258 19.2573 21.6312 19.2573C21.6366 19.2573 21.6421 19.2573 21.6475 19.2573C21.653 19.2573 21.6585 19.2573 21.664 19.2573C21.6695 19.2573 21.675 19.2573 21.6805 19.2573C21.6861 19.2573 21.6917 19.2573 21.6973 19.2573C21.7029 19.2573 21.7085 19.2573 21.7141 19.2573C21.7198 19.2573 21.7255 19.2573 21.7312 19.2573C21.7369 19.2573 21.7426 19.2573 21.7483 19.2573C21.7541 19.2573 21.7598 19.2573 21.7656 19.2573C21.7714 19.2573 21.7772 19.2573 21.783 19.2573C21.7889 19.2573 21.7947 19.2573 21.8006 19.2573C21.8065 19.2573 21.8124 19.2573 21.8183 19.2573C21.8243 19.2573 21.8302 19.2573 21.8362 19.2573C21.8422 19.2573 21.8482 19.2573 21.8542 19.2573C21.8602 19.2573 21.8662 19.2573 21.8723 19.2573C21.8784 19.2573 21.8845 19.2573 21.8906 19.2573C21.8967 19.2573 21.9028 19.2573 21.909 19.2573C21.9151 19.2573 21.9213 19.2573 21.9275 19.2573C21.9337 19.2573 21.9399 19.2573 21.9462 19.2573C21.9524 19.2573 21.9587 19.2573 21.9649 19.2573C21.9712 19.2573 21.9775 19.2573 21.9839 19.2573C21.9902 19.2573 21.9966 19.2573 22.0029 19.2573C22.0093 19.2573 22.0157 19.2573 22.0221 19.2573C22.0285 19.2573 22.035 19.2573 22.0414 19.2573C22.0479 19.2573 22.0544 19.2573 22.0609 19.2573C22.0674 19.2573 22.0739 19.2573 22.0805 19.2573C22.087 19.2573 22.0936 19.2573 22.1002 19.2573C22.1067 19.2573 22.1134 19.2573 22.12 19.2573C22.1266 19.2573 22.1333 19.2573 22.1399 19.2573C22.1466 19.2573 22.1533 19.2573 22.16 19.2573C22.1667 19.2573 22.1735 19.2573 22.1802 19.2573C22.187 19.2573 22.1937 19.2573 22.2005 19.2573C22.2073 19.2573 22.2142 19.2573 22.221 19.2573C22.2278 19.2573 22.2347 19.2573 22.2416 19.2573C22.2484 19.2573 22.2553 19.2573 22.2623 19.2573C22.2692 19.2573 22.2761 19.2573 22.2831 19.2573C22.29 19.2573 22.297 19.2573 22.304 19.2573C22.311 19.2573 22.318 19.2573 22.3251 19.2573C22.3321 19.2573 22.3391 19.2573 22.3462 19.2573C22.3533 19.2573 22.3604 19.2573 22.3675 19.2573C22.3746 19.2573 22.3818 19.2573 22.3889 19.2573C22.3961 19.2573 22.4032 19.2573 22.4104 19.2573C22.4176 19.2573 22.4248 19.2573 22.4321 19.2573C22.4393 19.2573 22.4465 19.2573 22.4538 19.2573C22.4611 19.2573 22.4684 19.2573 22.4757 19.2573C22.483 19.2573 22.4903 19.2573 22.4977 19.2573C22.505 19.2573 22.5124 19.2573 22.5197 19.2573C22.5271 19.2573 22.5345 19.2573 22.5419 19.2573C22.5494 19.2573 22.5568 19.2573 22.5643 19.2573C22.5717 19.2573 22.5792 19.2573 22.5867 19.2573C22.5942 19.2573 22.6017 19.2573 22.6092 19.2573C22.6167 19.2573 22.6243 19.2573 22.6318 19.2573C22.6394 19.2573 22.647 19.2573 22.6546 19.2573C22.6622 19.2573 22.6698 19.2573 22.6774 19.2573C22.6851 19.2573 22.6927 19.2573 22.7004 19.2573C22.7081 19.2573 22.7158 19.2573 22.7235 19.2573C22.7312 19.2573 22.7389 19.2573 22.7466 19.2573C22.7544 19.2573 22.7621 19.2573 22.7699 19.2573C22.7777 19.2573 22.7855 19.2573 22.7933 19.2573C22.8011 19.2573 22.8089 19.2573 22.8168 19.2573C22.8246 19.2573 22.8325 19.2573 22.8403 19.2573C22.8482 19.2573 22.8561 19.2573 22.864 19.2573C22.8719 19.2573 22.8799 19.2573 22.8878 19.2573C22.8958 19.2573 22.9037 19.2573 22.9117 19.2573C22.9197 19.2573 22.9277 19.2573 22.9357 19.2573C22.9437 19.2573 22.9517 19.2573 22.9598 19.2573C22.9678 19.2573 22.9759 19.2573 22.9839 19.2573C22.992 19.2573 23.0001 19.2573 23.0082 19.2573C23.0163 19.2573 23.0244 19.2573 23.0326 19.2573C23.0407 19.2573 23.0489 19.2573 23.057 19.2573C23.0652 19.2573 23.0734 19.2573 23.0816 19.2573C23.0898 19.2573 23.098 19.2573 23.1062 19.2573C23.1145 19.2573 23.1227 19.2573 23.131 19.2573C23.1392 19.2573 23.1475 19.2573 23.1558 19.2573C23.1641 19.2573 23.1724 19.2573 23.1807 19.2573C23.1891 19.2573 23.1974 19.2573 23.2058 19.2573C23.2141 19.2573 23.2225 19.2573 23.2309 19.2573C23.2393 19.2573 23.2477 19.2573 23.2561 19.2573C23.2645 19.2573 23.2729 19.2573 23.2813 19.2573C23.2898 19.2573 23.2982 19.2573 23.3067 19.2573C23.3152 19.2573 23.3237 19.2573 23.3322 19.2573C23.3407 19.2573 23.3492 19.2573 23.3577 19.2573C23.3663 19.2573 23.3748 19.2573 23.3834 19.2573C23.3919 19.2573 23.4005 19.2573 23.4091 19.2573C23.4177 19.2573 23.4263 19.2573 23.4349 19.2573C23.4435 19.2573 23.4521 19.2573 23.4607 19.2573C23.4694 19.2573 23.478 19.2573 23.4867 19.2573C23.4954 19.2573 23.5041 19.2573 23.5128 19.2573C23.5214 19.2573 23.5302 19.2573 23.5389 19.2573C23.5476 19.2573 23.5563 19.2573 23.5651 19.2573C23.5738 19.2573 23.5826 19.2573 23.5914 19.2573C23.6001 19.2573 23.6089 19.2573 23.6177 19.2573C23.6265 19.2573 23.6353 19.2573 23.6442 19.2573C23.653 19.2573 23.6618 19.2573 23.6707 19.2573C23.6795 19.2573 23.6884 19.2573 23.6973 19.2573C23.7062 19.2573 23.7151 19.2573 23.724 19.2573C23.7329 19.2573 23.7418 19.2573 23.7507 19.2573C23.7596 19.2573 23.7686 19.2573 23.7775 19.2573C23.7865 19.2573 23.7954 19.2573 23.8044 19.2573C23.8134 19.2573 23.8224 19.2573 23.8314 19.2573C23.8404 19.2573 23.8494 19.2573 23.8584 19.2573C23.8674 19.2573 23.8765 19.2573 23.8855 19.2573C23.8946 19.2573 23.9036 19.2573 23.9127 19.2573C23.9218 19.2573 23.9308 19.2573 23.9399 19.2573C23.949 19.2573 23.9581 19.2573 23.9673 19.2573C23.9764 19.2573 23.9855 19.2573 23.9946 19.2573C24.0038 19.2573 24.0129 19.2573 24.0221 19.2573C24.0313 19.2573 24.0404 19.2573 24.0496 19.2573C24.0588 19.2573 24.068 19.2573 24.0772 19.2573C24.0864 19.2573 24.0956 19.2573 24.1048 19.2573C24.1141 19.2573 24.1233 19.2573 24.1326 19.2573C24.1418 19.2573 24.1511 19.2573 24.1603 19.2573C24.1696 19.2573 24.1789 19.2573 24.1882 19.2573C24.1975 19.2573 24.2068 19.2573 24.2161 19.2573C24.2254 19.2573 24.2347 19.2573 24.244 19.2573C24.2534 19.2573 24.2627 19.2573 24.272 19.2573C24.2814 19.2573 24.2908 19.2573 24.3001 19.2573C24.3095 19.2573 24.3189 19.2573 24.3283 19.2573C24.3377 19.2573 24.3471 19.2573 24.3565 19.2573C24.3659 19.2573 24.3753 19.2573 24.3847 19.2573C24.3942 19.2573 24.4036 19.2573 24.413 19.2573C24.4225 19.2573 24.4319 19.2573 24.4414 19.2573C24.4509 19.2573 24.4604 19.2573 24.4698 19.2573C24.4793 19.2573 24.4888 19.2573 24.4983 19.2573C24.5078 19.2573 24.5173 19.2573 24.5268 19.2573C24.5364 19.2573 24.5459 19.2573 24.5554 19.2573C24.565 19.2573 24.5745 19.2573 24.5841 19.2573C24.5936 19.2573 24.6032 19.2573 24.6128 19.2573C24.6223 19.2573 24.6319 19.2573 24.6415 19.2573C24.6511 19.2573 24.6607 19.2573 24.6703 19.2573C24.6799 19.2573 24.6895 19.2573 24.6991 19.2573C24.7088 19.2573 24.7184 19.2573 24.728 19.2573C24.7377 19.2573 24.7473 19.2573 24.757 19.2573C24.7666 19.2573 24.7763 19.2573 24.7859 19.2573C24.7956 19.2573 24.8053 19.2573 24.815 19.2573C24.8247 19.2573 24.8344 19.2573 24.844 19.2573C24.8537 19.2573 24.8635 19.2573 24.8732 19.2573C24.8829 19.2573 24.8926 19.2573 24.9023 19.2573C24.9121 19.2573 24.9218 19.2573 24.9315 19.2573C24.9413 19.2573 24.951 19.2573 24.9608 19.2573C24.9705 19.2573 24.9803 19.2573 24.9901 19.2573C24.9999 19.2573 25.0096 19.2573 25.0194 19.2573C25.0292 19.2573 25.039 19.2573 25.0488 19.2573C25.0586 19.2573 25.0684 19.2573 25.0782 19.2573C25.088 19.2573 25.0978 19.2573 25.1076 19.2573C25.1175 19.2573 25.1273 19.2573 25.1371 19.2573C25.147 19.2573 25.1568 19.2573 25.1667 19.2573C25.1765 19.2573 25.1864 19.2573 25.1962 19.2573C25.2061 19.2573 25.216 19.2573 25.2258 19.2573C25.2357 19.2573 25.2456 19.2573 25.2555 19.2573C25.2653 19.2573 25.2752 19.2573 25.2851 19.2573C25.295 19.2573 25.3049 19.2573 25.3148 19.2573C25.3247 19.2573 25.3346 19.2573 25.3446 19.2573C25.3545 19.2573 25.3644 19.2573 25.3743 19.2573C25.3843 19.2573 25.3942 19.2573 25.4041 19.2573C25.4141 19.2573 25.424 19.2573 25.434 19.2573C25.4439 19.2573 25.4539 19.2573 25.4638 19.2573C25.4738 19.2573 25.4837 19.2573 25.4937 19.2573C25.5037 19.2573 25.5136 19.2573 25.5236 19.2573C25.5336 19.2573 25.5436 19.2573 25.5536 19.2573C25.5635 19.2573 25.5735 19.2573 25.5835 19.2573C25.5935 19.2573 25.6035 19.2573 25.6135 19.2573C25.6235 19.2573 25.6335 19.2573 25.6435 19.2573C25.6536 19.2573 25.6636 19.2573 25.6736 19.2573C25.6836 19.2573 25.6936 19.2573 25.7037 19.2573C25.7137 19.2573 25.7237 19.2573 25.7337 19.2573C25.7438 19.2573 25.7538 19.2573 25.7639 19.2573C25.7739 19.2573 25.784 19.2573 25.794 19.2573C25.804 19.2573 25.8141 19.2573 25.8242 19.2573C25.8342 19.2573 25.8443 19.2573 25.8543 19.2573C25.8644 19.2573 25.8745 19.2573 25.8845 19.2573C25.8946 19.2573 25.9047 19.2573 25.9147 19.2573C25.9248 19.2573 25.9349 19.2573 25.945 19.2573C25.9551 19.2573 25.9651 19.2573 25.9752 19.2573C25.9853 19.2573 25.9954 19.2573 26.0055 19.2573C26.0156 19.2573 26.0257 19.2573 26.0358 19.2573C26.0459 19.2573 26.056 19.2573 26.0661 19.2573C26.0762 19.2573 26.0863 19.2573 26.0964 19.2573C26.1065 19.2573 26.1166 19.2573 26.1267 19.2573C26.1368 19.2573 26.1469 19.2573 26.157 19.2573C26.1672 19.2573 26.1773 19.2573 26.1874 19.2573C26.1975 19.2573 26.2076 19.2573 26.2177 19.2573C26.2279 19.2573 26.238 19.2573 26.2481 19.2573C26.2582 19.2573 26.2684 19.2573 26.2785 19.2573C26.2886 19.2573 26.2987 19.2573 26.3089 19.2573C26.319 19.2573 26.3291 19.2573 26.3393 19.2573C26.3494 19.2573 26.3595 19.2573 26.3697 19.2573C26.3798 19.2573 26.3899 19.2573 26.4001 19.2573C26.4102 19.2573 26.4204 19.2573 26.4305 19.2573C26.4406 19.2573 26.4508 19.2573 26.4609 19.2573C26.4711 19.2573 26.4812 19.2573 26.4913 19.2573C26.5015 19.2573 26.5116 19.2573 26.5218 19.2573C26.5319 19.2573 26.5421 19.2573 26.5522 19.2573C26.5623 19.2573 26.5725 19.2573 26.5826 19.2573C26.5928 19.2573 26.6029 19.2573 26.6131 19.2573C26.6232 19.2573 26.6334 19.2573 26.6435 19.2573C26.6536 19.2573 26.6638 19.2573 26.6739 19.2573C26.6841 19.2573 26.6942 19.2573 26.7044 19.2573C26.7145 19.2573 26.7247 19.2573 26.7348 19.2573C26.7449 19.2573 26.7551 19.2573 26.7652 19.2573C26.7754 19.2573 26.7855 19.2573 26.7957 19.2573C26.8058 19.2573 26.8159 19.2573 26.8261 19.2573C26.8362 19.2573 26.8464 19.2573 26.8565 19.2573C26.8666 19.2573 26.8768 19.2573 26.8869 19.2573C26.897 19.2573 26.9072 19.2573 26.9173 19.2573C26.9274 19.2573 26.9376 19.2573 26.9477 19.2573C26.9578 19.2573 26.968 19.2573 26.9781 19.2573C26.9882 19.2573 26.9984 19.2573 27.0085 19.2573C27.0186 19.2573 27.0287 19.2573 27.0389 19.2573C27.049 19.2573 27.0591 19.2573 27.0692 19.2573C27.0793 19.2573 27.0895 19.2573 27.0996 19.2573C27.1097 19.2573 27.1198 19.2573 27.1299 19.2573C27.14 19.2573 27.1501 19.2573 27.1602 19.2573C27.1703 19.2573 27.1805 19.2573 27.1906 19.2573C27.2007 19.2573 27.2108 19.2573 27.2209 19.2573C27.231 19.2573 27.2411 19.2573 27.2511 19.2573C27.2612 19.2573 27.2713 19.2573 27.2814 19.2573C27.2915 19.2573 27.3016 19.2573 27.3117 19.2573C27.3218 19.2573 27.3318 19.2573 27.3419 19.2573C27.352 19.2573 27.3621 19.2573 27.3721 19.2573C27.3822 19.2573 27.3923 19.2573 27.4023 19.2573C27.4124 19.2573 27.4225 19.2573 27.4325 19.2573C27.4426 19.2573 27.4526 19.2573 27.4627 19.2573C27.4727 19.2573 27.4828 19.2573 27.4928 19.2573C27.5029 19.2573 27.5129 19.2573 27.523 19.2573C27.533 19.2573 27.543 19.2573 27.5531 19.2573C27.5631 19.2573 27.5731 19.2573 27.5831 19.2573C27.5932 19.2573 27.6032 19.2573 27.6132 19.2573C27.6232 19.2573 27.6332 19.2573 27.6432 19.2573C27.6532 19.2573 27.6632 19.2573 27.6732 19.2573C27.6832 19.2573 27.6932 19.2573 27.7032 19.2573C27.7132 19.2573 27.7232 19.2573 27.7332 19.2573C27.7431 19.2573 27.7531 19.2573 27.7631 19.2573C27.7731 19.2573 27.783 19.2573 27.793 19.2573C27.803 19.2573 27.8129 19.2573 27.8229 19.2573C27.8328 19.2573 27.8428 19.2573 27.8527 19.2573C27.8626 19.2573 27.8726 19.2573 27.8825 19.2573C27.8925 19.2573 27.9024 19.2573 27.9123 19.2573C27.9222 19.2573 27.9321 19.2573 27.942 19.2573C27.952 19.2573 27.9619 19.2573 27.9718 19.2573C27.9817 19.2573 27.9916 19.2573 28.0014 19.2573C28.0113 19.2573 28.0212 19.2573 28.0311 19.2573C28.041 19.2573 28.0508 19.2573 28.0607 19.2573C28.0706 19.2573 28.0804 19.2573 28.0903 19.2573C28.1001 19.2573 28.11 19.2573 28.1198 19.2573C28.1297 19.2573 28.1395 19.2573 28.1493 19.2573C28.1592 19.2573 28.169 19.2573 28.1788 19.2573C28.1886 19.2573 28.1984 19.2573 28.2082 19.2573C28.218 19.2573 28.2278 19.2573 28.2376 19.2573C28.2474 19.2573 28.2572 19.2573 28.267 19.2573C28.2767 19.2573 28.2865 19.2573 28.2963 19.2573C28.306 19.2573 28.3158 19.2573 28.3255 19.2573C28.3353 19.2573 28.345 19.2573 28.3548 19.2573C28.3645 19.2573 28.3742 19.2573 28.384 19.2573C28.3937 19.2573 28.4034 19.2573 28.4131 19.2573C28.4228 19.2573 28.4325 19.2573 28.4422 19.2573C28.4519 19.2573 28.4616 19.2573 28.4712 19.2573C28.4809 19.2573 28.4906 19.2573 28.5002 19.2573C28.5099 19.2573 28.5196 19.2573 28.5292 19.2573C28.5388 19.2573 28.5485 19.2573 28.5581 19.2573C28.5677 19.2573 28.5774 19.2573 28.587 19.2573C28.5966 19.2573 28.6062 19.2573 28.6158 19.2573C28.6254 19.2573 28.635 19.2573 28.6445 19.2573C28.6541 19.2573 28.6637 19.2573 28.6733 19.2573C28.6828 19.2573 28.6924 19.2573 28.7019 19.2573C28.7115 19.2573 28.721 19.2573 28.7305 19.2573C28.7401 19.2573 28.7496 19.2573 28.7591 19.2573C28.7686 19.2573 28.7781 19.2573 28.7876 19.2573C28.7971 19.2573 28.8066 19.2573 28.816 19.2573C28.8255 19.2573 28.835 19.2573 28.8444 19.2573C28.8539 19.2573 28.8633 19.2573 28.8728 19.2573C28.8822 19.2573 28.8916 19.2573 28.9011 19.2573C28.9105 19.2573 28.9199 19.2573 28.9293 19.2573C28.9387 19.2573 28.9481 19.2573 28.9574 19.2573C28.9668 19.2573 28.9762 19.2573 28.9855 19.2573C28.9949 19.2573 29.0043 19.2573 29.0136 19.2573C29.0229 19.2573 29.0323 19.2573 29.0416 19.2573C29.0509 19.2573 29.0602 19.2573 29.0695 19.2573C29.0788 19.2573 29.0881 19.2573 29.0974 19.2573C29.1067 19.2573 29.1159 19.2573 29.1252 19.2573C29.1344 19.2573 29.1437 19.2573 29.1529 19.2573C29.1622 19.2573 29.1714 19.2573 29.1806 19.2573C29.1898 19.2573 29.199 19.2573 29.2082 19.2573C29.2174 19.2573 29.2266 19.2573 29.2358 19.2573C29.2449 19.2573 29.2541 19.2573 29.2632 19.2573C29.2724 19.2573 29.2815 19.2573 29.2906 19.2573C29.2998 19.2573 29.3089 19.2573 29.318 19.2573C29.3271 19.2573 29.3362 19.2573 29.3453 19.2573C29.3544 19.2573 29.3634 19.2573 29.3725 19.2573C29.3815 19.2573 29.3906 19.2573 29.3996 19.2573C29.4086 19.2573 29.4177 19.2573 29.4267 19.2573C29.4357 19.2573 29.4447 19.2573 29.4537 19.2573C29.4627 19.2573 29.4716 19.2573 29.4806 19.2573C29.4896 19.2573 29.4985 19.2573 29.5075 19.2573C29.5164 19.2573 29.5253 19.2573 29.5342 19.2573C29.5431 19.2573 29.552 19.2573 29.5609 19.2573C29.5698 19.2573 29.5787 19.2573 29.5876 19.2573C29.5964 19.2573 29.6053 19.2573 29.6141 19.2573C29.6229 19.2573 29.6318 19.2573 29.6406 19.2573C29.6494 19.2573 29.6582 19.2573 29.667 19.2573C29.6758 19.2573 29.6845 19.2573 29.6933 19.2573C29.7021 19.2573 29.7108 19.2573 29.7195 19.2573C29.7283 19.2573 29.737 19.2573 29.7457 19.2573C29.7544 19.2573 29.7631 19.2573 29.7718 19.2573C29.7805 19.2573 29.7891 19.2573 29.7978 19.2573C29.8064 19.2573 29.8151 19.2573 29.8237 19.2573C29.8323 19.2573 29.8409 19.2573 29.8495 19.2573C29.8581 19.2573 29.8667 19.2573 29.8753 19.2573C29.8839 19.2573 29.8924 19.2573 29.9009 19.2573C29.9095 19.2573 29.918 19.2573 29.9265 19.2573C29.935 19.2573 29.9435 19.2573 29.952 19.2573C29.9605 19.2573 29.969 19.2573 29.9774 19.2573C29.9859 19.2573 29.9943 19.2573 30.0028 19.2573C30.0112 19.2573 30.0196 19.2573 30.028 19.2573C30.0364 19.2573 30.0448 19.2573 30.0531 19.2573C30.0615 19.2573 30.0699 19.2573 30.0782 19.2573C30.0865 19.2573 30.0949 19.2573 30.1032 19.2573C30.1115 19.2573 30.1198 19.2573 30.128 19.2573C30.1363 19.2573 30.1446 19.2573 30.1528 19.2573C30.1611 19.2573 30.1693 19.2573 30.1775 19.2573C30.1857 19.2573 30.1939 19.2573 30.2021 19.2573C30.2103 19.2573 30.2185 19.2573 30.2266 19.2573C30.2348 19.2573 30.2429 19.2573 30.251 19.2573C30.2591 19.2573 30.2672 19.2573 30.2753 19.2573C30.2834 19.2573 30.2915 19.2573 30.2996 19.2573C30.3076 19.2573 30.3156 19.2573 30.3237 19.2573C30.3317 19.2573 30.3397 19.2573 30.3477 19.2573C30.3557 19.2573 30.3637 19.2573 30.3716 19.2573C30.3796 19.2573 30.3875 19.2573 30.3954 19.2573C30.4034 19.2573 30.4113 19.2573 30.4192 19.2573C30.4271 19.2573 30.4349 19.2573 30.4428 19.2573C30.4507 19.2573 30.4585 19.2573 30.4663 19.2573C30.4741 19.2573 30.482 19.2573 30.4897 19.2573C30.4975 19.2573 30.5053 19.2573 30.5131 19.2573C30.5208 19.2573 30.5286 19.2573 30.5363 19.2573C30.544 19.2573 30.5517 19.2573 30.5594 19.2573C30.5671 19.2573 30.5747 19.2573 30.5824 19.2573C30.59 19.2573 30.5977 19.2573 30.6053 19.2573C30.6129 19.2573 30.6205 19.2573 30.6281 19.2573C30.6357 19.2573 30.6432 19.2573 30.6508 19.2573C30.6583 19.2573 30.6658 19.2573 30.6733 19.2573C30.6809 19.2573 30.6883 19.2573 30.6958 19.2573C30.7033 19.2573 30.7107 19.2573 30.7182 19.2573C30.7256 19.2573 30.733 19.2573 30.7404 19.2573C30.7478 19.2573 30.7552 19.2573 30.7626 19.2573C30.7699 19.2573 30.7773 19.2573 30.7846 19.2573C30.7919 19.2573 30.7992 19.2573 30.8065 19.2573C30.8138 19.2573 30.821 19.2573 30.8283 19.2573C30.8355 19.2573 30.8428 19.2573 30.85 19.2573C30.8572 19.2573 30.8644 19.2573 30.8716 19.2573C30.8787 19.2573 30.8859 19.2573 30.893 19.2573C30.9001 19.2573 30.9072 19.2573 30.9143 19.2573C30.9214 19.2573 30.9285 19.2573 30.9356 19.2573C30.9426 19.2573 30.9497 19.2573 30.9567 19.2573C30.9637 19.2573 30.9707 19.2573 30.9777 19.2573C30.9846 19.2573 30.9916 19.2573 30.9985 19.2573C31.0055 19.2573 31.0124 19.2573 31.0193 19.2573C31.0262 19.2573 31.033 19.2573 31.0399 19.2573C31.0467 19.2573 31.0536 19.2573 31.0604 19.2573C31.0672 19.2573 31.074 19.2573 31.0808 19.2573C31.0875 19.2573 31.0943 19.2573 31.101 19.2573C31.1078 19.2573 31.1145 19.2573 31.1212 19.2573C31.1278 19.2573 31.1345 19.2573 31.1412 19.2573C31.1478 19.2573 31.1544 19.2573 31.161 19.2573C31.1677 19.2573 31.1742 19.2573 31.1808 19.2573C31.1874 19.2573 31.1939 19.2573 31.2004 19.2573C31.207 19.2573 31.2135 19.2573 31.2199 19.2573C31.2264 19.2573 31.2329 19.2573 31.2393 19.2573C31.2457 19.2573 31.2522 19.2573 31.2586 19.2573C31.2649 19.2573 31.2713 19.2573 31.2777 19.2573C31.284 19.2573 31.2903 19.2573 31.2966 19.2573C31.303 19.2573 31.3092 19.2573 31.3155 19.2573C31.3218 19.2573 31.328 19.2573 31.3342 19.2573C31.3404 19.2573 31.3466 19.2573 31.3528 19.2573C31.359 19.2573 31.3651 19.2573 31.3713 19.2573C31.3774 19.2573 31.3835 19.2573 31.3896 19.2573C31.3957 19.2573 31.4017 19.2573 31.4078 19.2573C31.4138 19.2573 31.4198 19.2573 31.4258 19.2573C31.4318 19.2573 31.4378 19.2573 31.4437 19.2573C31.4497 19.2573 31.4556 19.2573 31.4615 19.2573C31.4674 19.2573 31.4733 19.2573 31.4791 19.2573C31.485 19.2573 31.4908 19.2573 31.4966 19.2573C31.5024 19.2573 31.5082 19.2573 31.514 19.2573C31.5198 19.2573 31.5255 19.2573 31.5312 19.2573C31.5369 19.2573 31.5426 19.2573 31.5483 19.2573C31.554 19.2573 31.5596 19.2573 31.5652 19.2573C31.5708 19.2573 31.5764 19.2573 31.582 19.2573C31.5876 19.2573 31.5931 19.2573 31.5987 19.2573C31.6042 19.2573 31.6097 19.2573 31.6152 19.2573C31.6206 19.2573 31.6261 19.2573 31.6315 19.2573C31.6369 19.2573 31.6424 19.2573 31.6477 19.2573C31.6531 19.2573 31.6585 19.2573 31.6638 19.2573C31.6691 19.2573 31.6744 19.2573 31.6797 19.2573C31.685 19.2573 31.6903 19.2573 31.6955 19.2573C31.7007 19.2573 31.7059 19.2573 31.7111 19.2573C31.7163 19.2573 31.7215 19.2573 31.7266 19.2573C31.7317 19.2573 31.7368 19.2573 31.7419 19.2573C31.747 19.2573 31.7521 19.2573 31.7571 19.2573C31.7621 19.2573 31.7671 19.2573 31.7721 19.2573C31.7771 19.2573 31.782 19.2573 31.787 19.2573C31.7919 19.2573 31.7968 19.2573 31.8017 19.2573C31.8066 19.2573 31.8114 19.2573 31.8163 19.2573C31.8211 19.2573 31.8259 19.2573 31.8307 19.2573C31.8354 19.2573 31.8402 19.2573 31.8449 19.2573C31.8496 19.2573 31.8543 19.2573 31.859 19.2573C31.8637 19.2573 31.8683 19.2573 31.8729 19.2573C31.8776 19.2573 31.8822 19.2573 31.8867 19.2573C31.8913 19.2573 31.8958 19.2573 31.9003 19.2573C31.9049 19.2573 31.9093 19.2573 31.9138 19.2573C31.9183 19.2573 31.9227 19.2573 31.9271 19.2573C31.9315 19.2573 31.9359 19.2573 31.9403 19.2573C31.9446 19.2573 31.9489 19.2573 31.9532 19.2573C31.9575 19.2573 31.9618 19.2573 31.9661 19.2573C31.9703 19.2573 31.9745 19.2573 31.9787 19.2573C31.9829 19.2573 31.9871 19.2573 31.9912 19.2573C31.9953 19.2573 31.9995 19.2573 32.0035 19.2573C32.0076 19.2573 32.0117 19.2573 32.0157 19.2573C32.0197 19.2573 32.0237 19.2573 32.0277 19.2573C32.0317 19.2573 32.0356 19.2573 32.0395 19.2573C32.0434 19.2573 32.0473 19.2573 32.0512 19.2573C32.0551 19.2573 32.0589 19.2573 32.0627 19.2573C32.0665 19.2573 32.0703 19.2573 32.074 19.2573C32.0778 19.2573 32.0815 19.2573 32.0852 19.2573C32.0889 19.2573 32.0925 19.2573 32.0962 19.2573C32.0998 19.2573 32.1034 19.2573 32.107 19.2573C32.1105 19.2573 32.1141 19.2573 32.1176 19.2573C32.1211 19.2573 32.1246 19.2573 32.1281 19.2573C32.1315 19.2573 32.135 19.2573 32.1384 19.2573C32.1418 19.2573 32.1452 19.2573 32.1485 19.2573C32.1519 19.2573 32.1552 19.2573 32.1585 19.2573C32.1617 19.2573 32.165 19.2573 32.1682 19.2573C32.1715 19.2573 32.1747 19.2573 32.1778 19.2573C32.181 19.2573 32.1841 19.2573 32.1872 19.2573C32.1904 19.2573 32.1934 19.2573 32.1965 19.2573C32.1995 19.2573 32.2026 19.2573 32.2055 19.2573C32.2085 19.2573 32.2115 19.2573 32.2144 19.2573C32.2174 19.2573 32.2203 19.2573 32.2231 19.2573C32.226 19.2573 32.2288 19.2573 32.2317 19.2573C32.2345 19.2573 32.2372 19.2573 32.24 19.2573C32.2427 19.2573 32.2455 19.2573 32.2482 19.2573C32.2508 19.2573 32.2535 19.2573 32.2561 19.2573C32.2588 19.2573 32.2614 19.2573 32.2639 19.2573C32.2665 19.2573 32.269 19.2573 32.2715 19.2573C32.274 19.2573 32.2765 19.2573 32.2789 19.2573C32.2814 19.2573 32.2838 19.2573 32.2862 19.2573C32.2886 19.2573 32.2909 19.2573 32.2932 19.2573C32.2956 19.2573 32.2978 19.2573 32.3001 19.2573V18.2573C32.2978 18.2573 32.2956 18.2573 32.2932 18.2573C32.2909 18.2573 32.2886 18.2573 32.2862 18.2573C32.2838 18.2573 32.2814 18.2573 32.2789 18.2573C32.2765 18.2573 32.274 18.2573 32.2715 18.2573C32.269 18.2573 32.2665 18.2573 32.2639 18.2573C32.2614 18.2573 32.2588 18.2573 32.2561 18.2573C32.2535 18.2573 32.2508 18.2573 32.2482 18.2573C32.2455 18.2573 32.2427 18.2573 32.24 18.2573C32.2372 18.2573 32.2345 18.2573 32.2317 18.2573C32.2288 18.2573 32.226 18.2573 32.2231 18.2573C32.2203 18.2573 32.2174 18.2573 32.2144 18.2573C32.2115 18.2573 32.2085 18.2573 32.2055 18.2573C32.2026 18.2573 32.1995 18.2573 32.1965 18.2573C32.1934 18.2573 32.1904 18.2573 32.1872 18.2573C32.1841 18.2573 32.181 18.2573 32.1778 18.2573C32.1747 18.2573 32.1715 18.2573 32.1682 18.2573C32.165 18.2573 32.1617 18.2573 32.1585 18.2573C32.1552 18.2573 32.1519 18.2573 32.1485 18.2573C32.1452 18.2573 32.1418 18.2573 32.1384 18.2573C32.135 18.2573 32.1315 18.2573 32.1281 18.2573C32.1246 18.2573 32.1211 18.2573 32.1176 18.2573C32.1141 18.2573 32.1105 18.2573 32.107 18.2573C32.1034 18.2573 32.0998 18.2573 32.0962 18.2573C32.0925 18.2573 32.0889 18.2573 32.0852 18.2573C32.0815 18.2573 32.0778 18.2573 32.074 18.2573C32.0703 18.2573 32.0665 18.2573 32.0627 18.2573C32.0589 18.2573 32.0551 18.2573 32.0512 18.2573C32.0473 18.2573 32.0434 18.2573 32.0395 18.2573C32.0356 18.2573 32.0317 18.2573 32.0277 18.2573C32.0237 18.2573 32.0197 18.2573 32.0157 18.2573C32.0117 18.2573 32.0076 18.2573 32.0035 18.2573C31.9995 18.2573 31.9953 18.2573 31.9912 18.2573C31.9871 18.2573 31.9829 18.2573 31.9787 18.2573C31.9745 18.2573 31.9703 18.2573 31.9661 18.2573C31.9618 18.2573 31.9575 18.2573 31.9532 18.2573C31.9489 18.2573 31.9446 18.2573 31.9403 18.2573C31.9359 18.2573 31.9315 18.2573 31.9271 18.2573C31.9227 18.2573 31.9183 18.2573 31.9138 18.2573C31.9093 18.2573 31.9049 18.2573 31.9003 18.2573C31.8958 18.2573 31.8913 18.2573 31.8867 18.2573C31.8822 18.2573 31.8776 18.2573 31.8729 18.2573C31.8683 18.2573 31.8637 18.2573 31.859 18.2573C31.8543 18.2573 31.8496 18.2573 31.8449 18.2573C31.8402 18.2573 31.8354 18.2573 31.8307 18.2573C31.8259 18.2573 31.8211 18.2573 31.8163 18.2573C31.8114 18.2573 31.8066 18.2573 31.8017 18.2573C31.7968 18.2573 31.7919 18.2573 31.787 18.2573C31.782 18.2573 31.7771 18.2573 31.7721 18.2573C31.7671 18.2573 31.7621 18.2573 31.7571 18.2573C31.7521 18.2573 31.747 18.2573 31.7419 18.2573C31.7368 18.2573 31.7317 18.2573 31.7266 18.2573C31.7215 18.2573 31.7163 18.2573 31.7111 18.2573C31.7059 18.2573 31.7007 18.2573 31.6955 18.2573C31.6903 18.2573 31.685 18.2573 31.6797 18.2573C31.6744 18.2573 31.6691 18.2573 31.6638 18.2573C31.6585 18.2573 31.6531 18.2573 31.6477 18.2573C31.6424 18.2573 31.6369 18.2573 31.6315 18.2573C31.6261 18.2573 31.6206 18.2573 31.6152 18.2573C31.6097 18.2573 31.6042 18.2573 31.5987 18.2573C31.5931 18.2573 31.5876 18.2573 31.582 18.2573C31.5764 18.2573 31.5708 18.2573 31.5652 18.2573C31.5596 18.2573 31.554 18.2573 31.5483 18.2573C31.5426 18.2573 31.5369 18.2573 31.5312 18.2573C31.5255 18.2573 31.5198 18.2573 31.514 18.2573C31.5082 18.2573 31.5024 18.2573 31.4966 18.2573C31.4908 18.2573 31.485 18.2573 31.4791 18.2573C31.4733 18.2573 31.4674 18.2573 31.4615 18.2573C31.4556 18.2573 31.4497 18.2573 31.4437 18.2573C31.4378 18.2573 31.4318 18.2573 31.4258 18.2573C31.4198 18.2573 31.4138 18.2573 31.4078 18.2573C31.4017 18.2573 31.3957 18.2573 31.3896 18.2573C31.3835 18.2573 31.3774 18.2573 31.3713 18.2573C31.3651 18.2573 31.359 18.2573 31.3528 18.2573C31.3466 18.2573 31.3404 18.2573 31.3342 18.2573C31.328 18.2573 31.3218 18.2573 31.3155 18.2573C31.3092 18.2573 31.303 18.2573 31.2966 18.2573C31.2903 18.2573 31.284 18.2573 31.2777 18.2573C31.2713 18.2573 31.2649 18.2573 31.2586 18.2573C31.2522 18.2573 31.2457 18.2573 31.2393 18.2573C31.2329 18.2573 31.2264 18.2573 31.2199 18.2573C31.2135 18.2573 31.207 18.2573 31.2004 18.2573C31.1939 18.2573 31.1874 18.2573 31.1808 18.2573C31.1742 18.2573 31.1677 18.2573 31.161 18.2573C31.1544 18.2573 31.1478 18.2573 31.1412 18.2573C31.1345 18.2573 31.1278 18.2573 31.1212 18.2573C31.1145 18.2573 31.1078 18.2573 31.101 18.2573C31.0943 18.2573 31.0875 18.2573 31.0808 18.2573C31.074 18.2573 31.0672 18.2573 31.0604 18.2573C31.0536 18.2573 31.0467 18.2573 31.0399 18.2573C31.033 18.2573 31.0262 18.2573 31.0193 18.2573C31.0124 18.2573 31.0055 18.2573 30.9985 18.2573C30.9916 18.2573 30.9846 18.2573 30.9777 18.2573C30.9707 18.2573 30.9637 18.2573 30.9567 18.2573C30.9497 18.2573 30.9426 18.2573 30.9356 18.2573C30.9285 18.2573 30.9214 18.2573 30.9143 18.2573C30.9072 18.2573 30.9001 18.2573 30.893 18.2573C30.8859 18.2573 30.8787 18.2573 30.8716 18.2573C30.8644 18.2573 30.8572 18.2573 30.85 18.2573C30.8428 18.2573 30.8355 18.2573 30.8283 18.2573C30.821 18.2573 30.8138 18.2573 30.8065 18.2573C30.7992 18.2573 30.7919 18.2573 30.7846 18.2573C30.7773 18.2573 30.7699 18.2573 30.7626 18.2573C30.7552 18.2573 30.7478 18.2573 30.7404 18.2573C30.733 18.2573 30.7256 18.2573 30.7182 18.2573C30.7107 18.2573 30.7033 18.2573 30.6958 18.2573C30.6883 18.2573 30.6809 18.2573 30.6733 18.2573C30.6658 18.2573 30.6583 18.2573 30.6508 18.2573C30.6432 18.2573 30.6357 18.2573 30.6281 18.2573C30.6205 18.2573 30.6129 18.2573 30.6053 18.2573C30.5977 18.2573 30.59 18.2573 30.5824 18.2573C30.5747 18.2573 30.5671 18.2573 30.5594 18.2573C30.5517 18.2573 30.544 18.2573 30.5363 18.2573C30.5286 18.2573 30.5208 18.2573 30.5131 18.2573C30.5053 18.2573 30.4975 18.2573 30.4897 18.2573C30.482 18.2573 30.4741 18.2573 30.4663 18.2573C30.4585 18.2573 30.4507 18.2573 30.4428 18.2573C30.4349 18.2573 30.4271 18.2573 30.4192 18.2573C30.4113 18.2573 30.4034 18.2573 30.3954 18.2573C30.3875 18.2573 30.3796 18.2573 30.3716 18.2573C30.3637 18.2573 30.3557 18.2573 30.3477 18.2573C30.3397 18.2573 30.3317 18.2573 30.3237 18.2573C30.3156 18.2573 30.3076 18.2573 30.2996 18.2573C30.2915 18.2573 30.2834 18.2573 30.2753 18.2573C30.2672 18.2573 30.2591 18.2573 30.251 18.2573C30.2429 18.2573 30.2348 18.2573 30.2266 18.2573C30.2185 18.2573 30.2103 18.2573 30.2021 18.2573C30.1939 18.2573 30.1857 18.2573 30.1775 18.2573C30.1693 18.2573 30.1611 18.2573 30.1528 18.2573C30.1446 18.2573 30.1363 18.2573 30.128 18.2573C30.1198 18.2573 30.1115 18.2573 30.1032 18.2573C30.0949 18.2573 30.0865 18.2573 30.0782 18.2573C30.0699 18.2573 30.0615 18.2573 30.0531 18.2573C30.0448 18.2573 30.0364 18.2573 30.028 18.2573C30.0196 18.2573 30.0112 18.2573 30.0028 18.2573C29.9943 18.2573 29.9859 18.2573 29.9774 18.2573C29.969 18.2573 29.9605 18.2573 29.952 18.2573C29.9435 18.2573 29.935 18.2573 29.9265 18.2573C29.918 18.2573 29.9095 18.2573 29.9009 18.2573C29.8924 18.2573 29.8839 18.2573 29.8753 18.2573C29.8667 18.2573 29.8581 18.2573 29.8495 18.2573C29.8409 18.2573 29.8323 18.2573 29.8237 18.2573C29.8151 18.2573 29.8064 18.2573 29.7978 18.2573C29.7891 18.2573 29.7805 18.2573 29.7718 18.2573C29.7631 18.2573 29.7544 18.2573 29.7457 18.2573C29.737 18.2573 29.7283 18.2573 29.7195 18.2573C29.7108 18.2573 29.7021 18.2573 29.6933 18.2573C29.6845 18.2573 29.6758 18.2573 29.667 18.2573C29.6582 18.2573 29.6494 18.2573 29.6406 18.2573C29.6318 18.2573 29.6229 18.2573 29.6141 18.2573C29.6053 18.2573 29.5964 18.2573 29.5876 18.2573C29.5787 18.2573 29.5698 18.2573 29.5609 18.2573C29.552 18.2573 29.5431 18.2573 29.5342 18.2573C29.5253 18.2573 29.5164 18.2573 29.5075 18.2573C29.4985 18.2573 29.4896 18.2573 29.4806 18.2573C29.4716 18.2573 29.4627 18.2573 29.4537 18.2573C29.4447 18.2573 29.4357 18.2573 29.4267 18.2573C29.4177 18.2573 29.4086 18.2573 29.3996 18.2573C29.3906 18.2573 29.3815 18.2573 29.3725 18.2573C29.3634 18.2573 29.3544 18.2573 29.3453 18.2573C29.3362 18.2573 29.3271 18.2573 29.318 18.2573C29.3089 18.2573 29.2998 18.2573 29.2906 18.2573C29.2815 18.2573 29.2724 18.2573 29.2632 18.2573C29.2541 18.2573 29.2449 18.2573 29.2358 18.2573C29.2266 18.2573 29.2174 18.2573 29.2082 18.2573C29.199 18.2573 29.1898 18.2573 29.1806 18.2573C29.1714 18.2573 29.1622 18.2573 29.1529 18.2573C29.1437 18.2573 29.1344 18.2573 29.1252 18.2573C29.1159 18.2573 29.1067 18.2573 29.0974 18.2573C29.0881 18.2573 29.0788 18.2573 29.0695 18.2573C29.0602 18.2573 29.0509 18.2573 29.0416 18.2573C29.0323 18.2573 29.0229 18.2573 29.0136 18.2573C29.0043 18.2573 28.9949 18.2573 28.9855 18.2573C28.9762 18.2573 28.9668 18.2573 28.9574 18.2573C28.9481 18.2573 28.9387 18.2573 28.9293 18.2573C28.9199 18.2573 28.9105 18.2573 28.9011 18.2573C28.8916 18.2573 28.8822 18.2573 28.8728 18.2573C28.8633 18.2573 28.8539 18.2573 28.8444 18.2573C28.835 18.2573 28.8255 18.2573 28.816 18.2573C28.8066 18.2573 28.7971 18.2573 28.7876 18.2573C28.7781 18.2573 28.7686 18.2573 28.7591 18.2573C28.7496 18.2573 28.7401 18.2573 28.7305 18.2573C28.721 18.2573 28.7115 18.2573 28.7019 18.2573C28.6924 18.2573 28.6828 18.2573 28.6733 18.2573C28.6637 18.2573 28.6541 18.2573 28.6445 18.2573C28.635 18.2573 28.6254 18.2573 28.6158 18.2573C28.6062 18.2573 28.5966 18.2573 28.587 18.2573C28.5774 18.2573 28.5677 18.2573 28.5581 18.2573C28.5485 18.2573 28.5388 18.2573 28.5292 18.2573C28.5196 18.2573 28.5099 18.2573 28.5002 18.2573C28.4906 18.2573 28.4809 18.2573 28.4712 18.2573C28.4616 18.2573 28.4519 18.2573 28.4422 18.2573C28.4325 18.2573 28.4228 18.2573 28.4131 18.2573C28.4034 18.2573 28.3937 18.2573 28.384 18.2573C28.3742 18.2573 28.3645 18.2573 28.3548 18.2573C28.345 18.2573 28.3353 18.2573 28.3255 18.2573C28.3158 18.2573 28.306 18.2573 28.2963 18.2573C28.2865 18.2573 28.2767 18.2573 28.267 18.2573C28.2572 18.2573 28.2474 18.2573 28.2376 18.2573C28.2278 18.2573 28.218 18.2573 28.2082 18.2573C28.1984 18.2573 28.1886 18.2573 28.1788 18.2573C28.169 18.2573 28.1592 18.2573 28.1493 18.2573C28.1395 18.2573 28.1297 18.2573 28.1198 18.2573C28.11 18.2573 28.1001 18.2573 28.0903 18.2573C28.0804 18.2573 28.0706 18.2573 28.0607 18.2573C28.0508 18.2573 28.041 18.2573 28.0311 18.2573C28.0212 18.2573 28.0113 18.2573 28.0014 18.2573C27.9916 18.2573 27.9817 18.2573 27.9718 18.2573C27.9619 18.2573 27.952 18.2573 27.942 18.2573C27.9321 18.2573 27.9222 18.2573 27.9123 18.2573C27.9024 18.2573 27.8925 18.2573 27.8825 18.2573C27.8726 18.2573 27.8626 18.2573 27.8527 18.2573C27.8428 18.2573 27.8328 18.2573 27.8229 18.2573C27.8129 18.2573 27.803 18.2573 27.793 18.2573C27.783 18.2573 27.7731 18.2573 27.7631 18.2573C27.7531 18.2573 27.7431 18.2573 27.7332 18.2573C27.7232 18.2573 27.7132 18.2573 27.7032 18.2573C27.6932 18.2573 27.6832 18.2573 27.6732 18.2573C27.6632 18.2573 27.6532 18.2573 27.6432 18.2573C27.6332 18.2573 27.6232 18.2573 27.6132 18.2573C27.6032 18.2573 27.5932 18.2573 27.5831 18.2573C27.5731 18.2573 27.5631 18.2573 27.5531 18.2573C27.543 18.2573 27.533 18.2573 27.523 18.2573C27.5129 18.2573 27.5029 18.2573 27.4928 18.2573C27.4828 18.2573 27.4727 18.2573 27.4627 18.2573C27.4526 18.2573 27.4426 18.2573 27.4325 18.2573C27.4225 18.2573 27.4124 18.2573 27.4023 18.2573C27.3923 18.2573 27.3822 18.2573 27.3721 18.2573C27.3621 18.2573 27.352 18.2573 27.3419 18.2573C27.3318 18.2573 27.3218 18.2573 27.3117 18.2573C27.3016 18.2573 27.2915 18.2573 27.2814 18.2573C27.2713 18.2573 27.2612 18.2573 27.2511 18.2573C27.2411 18.2573 27.231 18.2573 27.2209 18.2573C27.2108 18.2573 27.2007 18.2573 27.1906 18.2573C27.1805 18.2573 27.1703 18.2573 27.1602 18.2573C27.1501 18.2573 27.14 18.2573 27.1299 18.2573C27.1198 18.2573 27.1097 18.2573 27.0996 18.2573C27.0895 18.2573 27.0793 18.2573 27.0692 18.2573C27.0591 18.2573 27.049 18.2573 27.0389 18.2573C27.0287 18.2573 27.0186 18.2573 27.0085 18.2573C26.9984 18.2573 26.9882 18.2573 26.9781 18.2573C26.968 18.2573 26.9578 18.2573 26.9477 18.2573C26.9376 18.2573 26.9274 18.2573 26.9173 18.2573C26.9072 18.2573 26.897 18.2573 26.8869 18.2573C26.8768 18.2573 26.8666 18.2573 26.8565 18.2573C26.8464 18.2573 26.8362 18.2573 26.8261 18.2573C26.8159 18.2573 26.8058 18.2573 26.7957 18.2573C26.7855 18.2573 26.7754 18.2573 26.7652 18.2573C26.7551 18.2573 26.7449 18.2573 26.7348 18.2573C26.7247 18.2573 26.7145 18.2573 26.7044 18.2573C26.6942 18.2573 26.6841 18.2573 26.6739 18.2573C26.6638 18.2573 26.6536 18.2573 26.6435 18.2573C26.6334 18.2573 26.6232 18.2573 26.6131 18.2573C26.6029 18.2573 26.5928 18.2573 26.5826 18.2573C26.5725 18.2573 26.5623 18.2573 26.5522 18.2573C26.5421 18.2573 26.5319 18.2573 26.5218 18.2573C26.5116 18.2573 26.5015 18.2573 26.4913 18.2573C26.4812 18.2573 26.4711 18.2573 26.4609 18.2573C26.4508 18.2573 26.4406 18.2573 26.4305 18.2573C26.4204 18.2573 26.4102 18.2573 26.4001 18.2573C26.3899 18.2573 26.3798 18.2573 26.3697 18.2573C26.3595 18.2573 26.3494 18.2573 26.3393 18.2573C26.3291 18.2573 26.319 18.2573 26.3089 18.2573C26.2987 18.2573 26.2886 18.2573 26.2785 18.2573C26.2684 18.2573 26.2582 18.2573 26.2481 18.2573C26.238 18.2573 26.2279 18.2573 26.2177 18.2573C26.2076 18.2573 26.1975 18.2573 26.1874 18.2573C26.1773 18.2573 26.1672 18.2573 26.157 18.2573C26.1469 18.2573 26.1368 18.2573 26.1267 18.2573C26.1166 18.2573 26.1065 18.2573 26.0964 18.2573C26.0863 18.2573 26.0762 18.2573 26.0661 18.2573C26.056 18.2573 26.0459 18.2573 26.0358 18.2573C26.0257 18.2573 26.0156 18.2573 26.0055 18.2573C25.9954 18.2573 25.9853 18.2573 25.9752 18.2573C25.9651 18.2573 25.9551 18.2573 25.945 18.2573C25.9349 18.2573 25.9248 18.2573 25.9147 18.2573C25.9047 18.2573 25.8946 18.2573 25.8845 18.2573C25.8745 18.2573 25.8644 18.2573 25.8543 18.2573C25.8443 18.2573 25.8342 18.2573 25.8242 18.2573C25.8141 18.2573 25.804 18.2573 25.794 18.2573C25.784 18.2573 25.7739 18.2573 25.7639 18.2573C25.7538 18.2573 25.7438 18.2573 25.7337 18.2573C25.7237 18.2573 25.7137 18.2573 25.7037 18.2573C25.6936 18.2573 25.6836 18.2573 25.6736 18.2573C25.6636 18.2573 25.6536 18.2573 25.6435 18.2573C25.6335 18.2573 25.6235 18.2573 25.6135 18.2573C25.6035 18.2573 25.5935 18.2573 25.5835 18.2573C25.5735 18.2573 25.5635 18.2573 25.5536 18.2573C25.5436 18.2573 25.5336 18.2573 25.5236 18.2573C25.5136 18.2573 25.5037 18.2573 25.4937 18.2573C25.4837 18.2573 25.4738 18.2573 25.4638 18.2573C25.4539 18.2573 25.4439 18.2573 25.434 18.2573C25.424 18.2573 25.4141 18.2573 25.4041 18.2573C25.3942 18.2573 25.3843 18.2573 25.3743 18.2573C25.3644 18.2573 25.3545 18.2573 25.3446 18.2573C25.3346 18.2573 25.3247 18.2573 25.3148 18.2573C25.3049 18.2573 25.295 18.2573 25.2851 18.2573C25.2752 18.2573 25.2653 18.2573 25.2555 18.2573C25.2456 18.2573 25.2357 18.2573 25.2258 18.2573C25.216 18.2573 25.2061 18.2573 25.1962 18.2573C25.1864 18.2573 25.1765 18.2573 25.1667 18.2573C25.1568 18.2573 25.147 18.2573 25.1371 18.2573C25.1273 18.2573 25.1175 18.2573 25.1076 18.2573C25.0978 18.2573 25.088 18.2573 25.0782 18.2573C25.0684 18.2573 25.0586 18.2573 25.0488 18.2573C25.039 18.2573 25.0292 18.2573 25.0194 18.2573C25.0096 18.2573 24.9999 18.2573 24.9901 18.2573C24.9803 18.2573 24.9705 18.2573 24.9608 18.2573C24.951 18.2573 24.9413 18.2573 24.9315 18.2573C24.9218 18.2573 24.9121 18.2573 24.9023 18.2573C24.8926 18.2573 24.8829 18.2573 24.8732 18.2573C24.8635 18.2573 24.8537 18.2573 24.844 18.2573C24.8344 18.2573 24.8247 18.2573 24.815 18.2573C24.8053 18.2573 24.7956 18.2573 24.7859 18.2573C24.7763 18.2573 24.7666 18.2573 24.757 18.2573C24.7473 18.2573 24.7377 18.2573 24.728 18.2573C24.7184 18.2573 24.7088 18.2573 24.6991 18.2573C24.6895 18.2573 24.6799 18.2573 24.6703 18.2573C24.6607 18.2573 24.6511 18.2573 24.6415 18.2573C24.6319 18.2573 24.6223 18.2573 24.6128 18.2573C24.6032 18.2573 24.5936 18.2573 24.5841 18.2573C24.5745 18.2573 24.565 18.2573 24.5554 18.2573C24.5459 18.2573 24.5364 18.2573 24.5268 18.2573C24.5173 18.2573 24.5078 18.2573 24.4983 18.2573C24.4888 18.2573 24.4793 18.2573 24.4698 18.2573C24.4604 18.2573 24.4509 18.2573 24.4414 18.2573C24.4319 18.2573 24.4225 18.2573 24.413 18.2573C24.4036 18.2573 24.3942 18.2573 24.3847 18.2573C24.3753 18.2573 24.3659 18.2573 24.3565 18.2573C24.3471 18.2573 24.3377 18.2573 24.3283 18.2573C24.3189 18.2573 24.3095 18.2573 24.3001 18.2573C24.2908 18.2573 24.2814 18.2573 24.272 18.2573C24.2627 18.2573 24.2534 18.2573 24.244 18.2573C24.2347 18.2573 24.2254 18.2573 24.2161 18.2573C24.2068 18.2573 24.1975 18.2573 24.1882 18.2573C24.1789 18.2573 24.1696 18.2573 24.1603 18.2573C24.1511 18.2573 24.1418 18.2573 24.1326 18.2573C24.1233 18.2573 24.1141 18.2573 24.1048 18.2573C24.0956 18.2573 24.0864 18.2573 24.0772 18.2573C24.068 18.2573 24.0588 18.2573 24.0496 18.2573C24.0404 18.2573 24.0313 18.2573 24.0221 18.2573C24.0129 18.2573 24.0038 18.2573 23.9946 18.2573C23.9855 18.2573 23.9764 18.2573 23.9673 18.2573C23.9581 18.2573 23.949 18.2573 23.9399 18.2573C23.9308 18.2573 23.9218 18.2573 23.9127 18.2573C23.9036 18.2573 23.8946 18.2573 23.8855 18.2573C23.8765 18.2573 23.8674 18.2573 23.8584 18.2573C23.8494 18.2573 23.8404 18.2573 23.8314 18.2573C23.8224 18.2573 23.8134 18.2573 23.8044 18.2573C23.7954 18.2573 23.7865 18.2573 23.7775 18.2573C23.7686 18.2573 23.7596 18.2573 23.7507 18.2573C23.7418 18.2573 23.7329 18.2573 23.724 18.2573C23.7151 18.2573 23.7062 18.2573 23.6973 18.2573C23.6884 18.2573 23.6795 18.2573 23.6707 18.2573C23.6618 18.2573 23.653 18.2573 23.6442 18.2573C23.6353 18.2573 23.6265 18.2573 23.6177 18.2573C23.6089 18.2573 23.6001 18.2573 23.5914 18.2573C23.5826 18.2573 23.5738 18.2573 23.5651 18.2573C23.5563 18.2573 23.5476 18.2573 23.5389 18.2573C23.5302 18.2573 23.5214 18.2573 23.5128 18.2573C23.5041 18.2573 23.4954 18.2573 23.4867 18.2573C23.478 18.2573 23.4694 18.2573 23.4607 18.2573C23.4521 18.2573 23.4435 18.2573 23.4349 18.2573C23.4263 18.2573 23.4177 18.2573 23.4091 18.2573C23.4005 18.2573 23.3919 18.2573 23.3834 18.2573C23.3748 18.2573 23.3663 18.2573 23.3577 18.2573C23.3492 18.2573 23.3407 18.2573 23.3322 18.2573C23.3237 18.2573 23.3152 18.2573 23.3067 18.2573C23.2982 18.2573 23.2898 18.2573 23.2813 18.2573C23.2729 18.2573 23.2645 18.2573 23.2561 18.2573C23.2477 18.2573 23.2393 18.2573 23.2309 18.2573C23.2225 18.2573 23.2141 18.2573 23.2058 18.2573C23.1974 18.2573 23.1891 18.2573 23.1807 18.2573C23.1724 18.2573 23.1641 18.2573 23.1558 18.2573C23.1475 18.2573 23.1392 18.2573 23.131 18.2573C23.1227 18.2573 23.1145 18.2573 23.1062 18.2573C23.098 18.2573 23.0898 18.2573 23.0816 18.2573C23.0734 18.2573 23.0652 18.2573 23.057 18.2573C23.0489 18.2573 23.0407 18.2573 23.0326 18.2573C23.0244 18.2573 23.0163 18.2573 23.0082 18.2573C23.0001 18.2573 22.992 18.2573 22.9839 18.2573C22.9759 18.2573 22.9678 18.2573 22.9598 18.2573C22.9517 18.2573 22.9437 18.2573 22.9357 18.2573C22.9277 18.2573 22.9197 18.2573 22.9117 18.2573C22.9037 18.2573 22.8958 18.2573 22.8878 18.2573C22.8799 18.2573 22.8719 18.2573 22.864 18.2573C22.8561 18.2573 22.8482 18.2573 22.8403 18.2573C22.8325 18.2573 22.8246 18.2573 22.8168 18.2573C22.8089 18.2573 22.8011 18.2573 22.7933 18.2573C22.7855 18.2573 22.7777 18.2573 22.7699 18.2573C22.7621 18.2573 22.7544 18.2573 22.7466 18.2573C22.7389 18.2573 22.7312 18.2573 22.7235 18.2573C22.7158 18.2573 22.7081 18.2573 22.7004 18.2573C22.6927 18.2573 22.6851 18.2573 22.6774 18.2573C22.6698 18.2573 22.6622 18.2573 22.6546 18.2573C22.647 18.2573 22.6394 18.2573 22.6318 18.2573C22.6243 18.2573 22.6167 18.2573 22.6092 18.2573C22.6017 18.2573 22.5942 18.2573 22.5867 18.2573C22.5792 18.2573 22.5717 18.2573 22.5643 18.2573C22.5568 18.2573 22.5494 18.2573 22.5419 18.2573C22.5345 18.2573 22.5271 18.2573 22.5197 18.2573C22.5124 18.2573 22.505 18.2573 22.4977 18.2573C22.4903 18.2573 22.483 18.2573 22.4757 18.2573C22.4684 18.2573 22.4611 18.2573 22.4538 18.2573C22.4465 18.2573 22.4393 18.2573 22.4321 18.2573C22.4248 18.2573 22.4176 18.2573 22.4104 18.2573C22.4032 18.2573 22.3961 18.2573 22.3889 18.2573C22.3818 18.2573 22.3746 18.2573 22.3675 18.2573C22.3604 18.2573 22.3533 18.2573 22.3462 18.2573C22.3391 18.2573 22.3321 18.2573 22.3251 18.2573C22.318 18.2573 22.311 18.2573 22.304 18.2573C22.297 18.2573 22.29 18.2573 22.2831 18.2573C22.2761 18.2573 22.2692 18.2573 22.2623 18.2573C22.2553 18.2573 22.2484 18.2573 22.2416 18.2573C22.2347 18.2573 22.2278 18.2573 22.221 18.2573C22.2142 18.2573 22.2073 18.2573 22.2005 18.2573C22.1937 18.2573 22.187 18.2573 22.1802 18.2573C22.1735 18.2573 22.1667 18.2573 22.16 18.2573C22.1533 18.2573 22.1466 18.2573 22.1399 18.2573C22.1333 18.2573 22.1266 18.2573 22.12 18.2573C22.1134 18.2573 22.1067 18.2573 22.1002 18.2573C22.0936 18.2573 22.087 18.2573 22.0805 18.2573C22.0739 18.2573 22.0674 18.2573 22.0609 18.2573C22.0544 18.2573 22.0479 18.2573 22.0414 18.2573C22.035 18.2573 22.0285 18.2573 22.0221 18.2573C22.0157 18.2573 22.0093 18.2573 22.0029 18.2573C21.9966 18.2573 21.9902 18.2573 21.9839 18.2573C21.9775 18.2573 21.9712 18.2573 21.9649 18.2573C21.9587 18.2573 21.9524 18.2573 21.9462 18.2573C21.9399 18.2573 21.9337 18.2573 21.9275 18.2573C21.9213 18.2573 21.9151 18.2573 21.909 18.2573C21.9028 18.2573 21.8967 18.2573 21.8906 18.2573C21.8845 18.2573 21.8784 18.2573 21.8723 18.2573C21.8662 18.2573 21.8602 18.2573 21.8542 18.2573C21.8482 18.2573 21.8422 18.2573 21.8362 18.2573C21.8302 18.2573 21.8243 18.2573 21.8183 18.2573C21.8124 18.2573 21.8065 18.2573 21.8006 18.2573C21.7947 18.2573 21.7889 18.2573 21.783 18.2573C21.7772 18.2573 21.7714 18.2573 21.7656 18.2573C21.7598 18.2573 21.7541 18.2573 21.7483 18.2573C21.7426 18.2573 21.7369 18.2573 21.7312 18.2573C21.7255 18.2573 21.7198 18.2573 21.7141 18.2573C21.7085 18.2573 21.7029 18.2573 21.6973 18.2573C21.6917 18.2573 21.6861 18.2573 21.6805 18.2573C21.675 18.2573 21.6695 18.2573 21.664 18.2573C21.6585 18.2573 21.653 18.2573 21.6475 18.2573C21.6421 18.2573 21.6366 18.2573 21.6312 18.2573C21.6258 18.2573 21.6204 18.2573 21.6151 18.2573C21.6097 18.2573 21.6044 18.2573 21.5991 18.2573C21.5938 18.2573 21.5885 18.2573 21.5832 18.2573C21.578 18.2573 21.5727 18.2573 21.5675 18.2573C21.5623 18.2573 21.5571 18.2573 21.552 18.2573C21.5468 18.2573 21.5417 18.2573 21.5365 18.2573C21.5314 18.2573 21.5263 18.2573 21.5213 18.2573C21.5162 18.2573 21.5112 18.2573 21.5062 18.2573C21.5012 18.2573 21.4962 18.2573 21.4912 18.2573C21.4863 18.2573 21.4813 18.2573 21.4764 18.2573C21.4715 18.2573 21.4666 18.2573 21.4618 18.2573C21.4569 18.2573 21.4521 18.2573 21.4473 18.2573C21.4425 18.2573 21.4377 18.2573 21.4329 18.2573C21.4282 18.2573 21.4235 18.2573 21.4188 18.2573C21.4141 18.2573 21.4094 18.2573 21.4047 18.2573C21.4001 18.2573 21.3955 18.2573 21.3909 18.2573C21.3863 18.2573 21.3817 18.2573 21.3771 18.2573C21.3726 18.2573 21.3681 18.2573 21.3636 18.2573C21.3591 18.2573 21.3546 18.2573 21.3502 18.2573C21.3458 18.2573 21.3413 18.2573 21.337 18.2573C21.3326 18.2573 21.3282 18.2573 21.3239 18.2573C21.3196 18.2573 21.3153 18.2573 21.311 18.2573C21.3067 18.2573 21.3025 18.2573 21.2982 18.2573C21.294 18.2573 21.2898 18.2573 21.2856 18.2573C21.2815 18.2573 21.2773 18.2573 21.2732 18.2573C21.2691 18.2573 21.265 18.2573 21.261 18.2573C21.2569 18.2573 21.2529 18.2573 21.2489 18.2573C21.2449 18.2573 21.2409 18.2573 21.237 18.2573C21.233 18.2573 21.2291 18.2573 21.2252 18.2573C21.2213 18.2573 21.2174 18.2573 21.2136 18.2573C21.2098 18.2573 21.206 18.2573 21.2022 18.2573C21.1984 18.2573 21.1947 18.2573 21.1909 18.2573C21.1872 18.2573 21.1835 18.2573 21.1798 18.2573C21.1762 18.2573 21.1725 18.2573 21.1689 18.2573C21.1653 18.2573 21.1617 18.2573 21.1582 18.2573C21.1546 18.2573 21.1511 18.2573 21.1476 18.2573C21.1441 18.2573 21.1407 18.2573 21.1372 18.2573C21.1338 18.2573 21.1304 18.2573 21.127 18.2573C21.1236 18.2573 21.1203 18.2573 21.117 18.2573C21.1136 18.2573 21.1103 18.2573 21.1071 18.2573C21.1038 18.2573 21.1006 18.2573 21.0974 18.2573C21.0942 18.2573 21.091 18.2573 21.0879 18.2573C21.0847 18.2573 21.0816 18.2573 21.0785 18.2573C21.0754 18.2573 21.0724 18.2573 21.0694 18.2573C21.0663 18.2573 21.0633 18.2573 21.0604 18.2573C21.0574 18.2573 21.0545 18.2573 21.0516 18.2573C21.0487 18.2573 21.0458 18.2573 21.043 18.2573C21.0401 18.2573 21.0373 18.2573 21.0345 18.2573C21.0317 18.2573 21.029 18.2573 21.0262 18.2573C21.0235 18.2573 21.0208 18.2573 21.0182 18.2573C21.0155 18.2573 21.0129 18.2573 21.0103 18.2573C21.0077 18.2573 21.0051 18.2573 21.0026 18.2573C21 18.2573 20.9975 18.2573 20.995 18.2573C20.9926 18.2573 20.9901 18.2573 20.9877 18.2573C20.9853 18.2573 20.9829 18.2573 20.9805 18.2573C20.9782 18.2573 20.9759 18.2573 20.9736 18.2573C20.9713 18.2573 20.969 18.2573 20.9668 18.2573C20.9646 18.2573 20.9624 18.2573 20.9602 18.2573C20.958 18.2573 20.9559 18.2573 20.9538 18.2573C20.9517 18.2573 20.9496 18.2573 20.9476 18.2573C20.9456 18.2573 20.9436 18.2573 20.9416 18.2573C20.9396 18.2573 20.9377 18.2573 20.9358 18.2573C20.9338 18.2573 20.932 18.2573 20.9301 18.2573C20.9283 18.2573 20.9265 18.2573 20.9247 18.2573C20.9229 18.2573 20.9211 18.2573 20.9194 18.2573C20.9177 18.2573 20.916 18.2573 20.9144 18.2573V19.2573ZM32.3001 19.2573C32.3917 19.2573 32.5226 19.289 32.6645 19.3618C32.8048 19.4338 32.9217 19.5287 32.9934 19.6171L33.7701 18.9873C33.5978 18.7748 33.365 18.5973 33.1211 18.4721C32.8786 18.3477 32.5907 18.2573 32.3001 18.2573V19.2573ZM33.0029 19.6285C32.9971 19.6218 33.0233 19.6566 33.0889 19.7724C33.146 19.8732 33.217 20.0063 33.2978 20.1631C33.4592 20.4761 33.6524 20.869 33.8393 21.256C34.0259 21.6423 34.2048 22.0199 34.3372 22.3011C34.4033 22.4416 34.4578 22.558 34.4957 22.6391C34.5146 22.6797 34.5294 22.7114 34.5395 22.733C34.5445 22.7438 34.5484 22.752 34.5509 22.7576C34.5522 22.7603 34.5532 22.7624 34.5538 22.7638C34.5541 22.7645 34.5544 22.765 34.5545 22.7653C34.5546 22.7655 34.5547 22.7656 34.5547 22.7657C34.5547 22.7658 34.5547 22.7658 34.5548 22.7658C34.5548 22.7658 34.5548 22.7658 35.0083 22.5553C35.4618 22.3447 35.4618 22.3447 35.4618 22.3447C35.4617 22.3446 35.4617 22.3446 35.4617 22.3445C35.4617 22.3444 35.4616 22.3443 35.4615 22.3441C35.4613 22.3437 35.4611 22.3432 35.4607 22.3425C35.46 22.341 35.459 22.3388 35.4577 22.336C35.4551 22.3303 35.4512 22.3219 35.4461 22.3109C35.4358 22.289 35.4209 22.2569 35.4017 22.2159C35.3635 22.134 35.3086 22.0168 35.242 21.8752C35.1087 21.5922 34.9283 21.2114 34.7398 20.8211C34.5516 20.4314 34.3539 20.0293 34.1867 19.7049C34.1032 19.543 34.0254 19.3968 33.9591 19.2796C33.9013 19.1776 33.8294 19.0558 33.7606 18.9759L33.0029 19.6285ZM17.3078 26.1616L17.6005 26.4543L18.3076 25.7472L18.0149 25.4545L17.3078 26.1616ZM17.6005 26.4543C18.206 27.0599 19.0161 27.3978 19.8734 27.3978V26.3978C19.2831 26.3978 18.7268 26.1664 18.3076 25.7472L17.6005 26.4543ZM19.8734 27.3978H21.4593V26.3978H19.8734V27.3978ZM16.0797 31.2243V33.3957H17.0797V31.2243H16.0797ZM16.0797 33.3957C16.0797 33.9727 16.5475 34.4406 17.1245 34.4406V33.4406C17.0998 33.4406 17.0797 33.4204 17.0797 33.3957H16.0797ZM17.1245 34.4406H20.9225V33.4406H17.1245V34.4406ZM20.9225 34.4406C21.4996 34.4406 21.9674 33.9727 21.9674 33.3957H20.9674C20.9674 33.4204 20.9473 33.4406 20.9225 33.4406V34.4406ZM21.9674 33.3957V31.7691H20.9674V33.3957H21.9674ZM28.5022 28.5615H21.4593V29.5615H28.5022V28.5615ZM32.8817 29.061C32.8817 29.6832 32.3773 30.1876 31.7552 30.1876V31.1876C32.9296 31.1876 33.8817 30.2355 33.8817 29.061H32.8817ZM31.7552 30.1876C31.133 30.1876 30.6286 29.6832 30.6286 29.061H29.6286C29.6286 30.2355 30.5807 31.1876 31.7552 31.1876V30.1876ZM30.6286 29.061C30.6286 28.4389 31.133 27.9345 31.7552 27.9345V26.9345C30.5807 26.9345 29.6286 27.8866 29.6286 29.061H30.6286ZM31.7552 27.9345C32.3773 27.9345 32.8817 28.4389 32.8817 29.061H33.8817C33.8817 27.8866 32.9296 26.9345 31.7552 26.9345V27.9345ZM36.6348 34.5227C36.0163 34.5227 35.5083 34.0146 35.5083 33.3961H34.5083C34.5083 34.5669 35.4641 35.5227 36.6348 35.5227V34.5227ZM35.5083 33.3961C35.5083 32.7777 36.0163 32.2696 36.6348 32.2696V31.2696C35.4641 31.2696 34.5083 32.2254 34.5083 33.3961H35.5083ZM36.6348 32.2696C37.2532 32.2696 37.7613 32.7777 37.7613 33.3961H38.7613C38.7613 32.2254 37.8055 31.2696 36.6348 31.2696V32.2696ZM37.7613 33.3961C37.7613 34.0227 37.2614 34.5227 36.6348 34.5227V35.5227C37.8137 35.5227 38.7613 34.575 38.7613 33.3961H37.7613ZM31.6116 35.3312L37.5728 27.7434L36.7865 27.1256L30.8253 34.7134L31.6116 35.3312ZM31.6599 9.59988C30.1377 9.18168 28.5398 8.9558 26.8837 8.9558V9.9558C28.4482 9.9558 29.957 10.1691 31.395 10.5642L31.6599 9.59988ZM26.8837 8.9558C16.9868 8.9558 8.95545 16.9787 8.95545 26.8841H9.95545C9.95545 17.5313 17.5388 9.9558 26.8837 9.9558V8.9558ZM8.95545 26.8841C8.95545 30.3972 9.96783 33.6773 11.7164 36.4467L12.562 35.9128C10.9112 33.2983 9.95545 30.2024 9.95545 26.8841H8.95545ZM22.1075 44.1685C23.6298 44.5867 25.2276 44.8126 26.8837 44.8126V43.8126C25.3193 43.8126 23.8104 43.5993 22.3724 43.2043L22.1075 44.1685ZM26.8837 44.8126C36.7806 44.8126 44.812 36.7897 44.812 26.8843H43.812C43.812 36.2371 36.2287 43.8126 26.8837 43.8126V44.8126ZM44.812 26.8843C44.812 23.3716 43.7998 20.083 42.0506 17.3212L41.2058 17.8562C42.8561 20.4619 43.812 23.5656 43.812 26.8843H44.812ZM32.845 23.1369H20.3776V24.1369H32.845V23.1369ZM17.6776 32.2695H28.5265V31.2695H17.6776V32.2695Z" fill="#00DCE6"/>
</svg>
