<svg width="65" height="65" viewBox="0 0 65 65" fill="none" xmlns="http://www.w3.org/2000/svg">
<path d="M55.2045 0H0V54.9479C6.91579 61.1956 16.0812 65 26.1351 65C46.573 65 63.3391 49.2789 65 29.2698V22.7302C64.2777 14.0293 60.6992 6.13916 55.2045 0Z" fill="#00DCE6" fill-opacity="0.1"/>
<path d="M36.4319 47.6129L36.8145 47.2911L36.813 47.2893L36.4319 47.6129ZM33.0462 47.7561L32.637 47.4688L32.5861 47.5413L32.5632 47.6268L33.0462 47.7561ZM33.0449 47.761L33.4542 48.0482L33.505 47.9758L33.5279 47.8903L33.0449 47.761ZM32.0396 47.5956L32.5188 47.4528L32.5018 47.396L32.4721 47.3447L32.0396 47.5956ZM32.036 47.5895L31.5561 47.7296L31.5731 47.7879L31.6036 47.8404L32.036 47.5895ZM28.8838 46.3548L28.627 45.9258L28.625 45.927L28.8838 46.3548ZM28.0302 45.7985L27.5473 45.6691L27.5389 45.7002L27.5346 45.7322L28.0302 45.7985ZM28.0328 45.7888L28.5158 45.9182L28.524 45.8876L28.5282 45.8562L28.0328 45.7888ZM25.6525 43.3882L25.712 43.8847L25.7146 43.8844L25.6525 43.3882ZM25.1033 42.5339L24.7299 42.2015L24.701 42.2338L24.6782 42.2707L25.1033 42.5339ZM25.1108 42.5255L25.4843 42.8579L25.513 42.8257L25.5357 42.789L25.1108 42.5255ZM23.9143 39.371L24.0592 38.8924L24.0589 38.8923L23.9143 39.371ZM23.7601 38.3677L23.511 37.9341L23.4931 37.9444L23.4761 37.9561L23.7601 38.3677ZM23.7725 38.3606L24.0215 38.7941L24.0381 38.7846L24.0539 38.7738L23.7725 38.3606ZM23.9639 34.9955L23.6364 35.3733L23.6364 35.3734L23.9639 34.9955ZM24.2314 34.0168L24.2021 33.5177L24.1702 33.5196L24.1389 33.5255L24.2314 34.0168ZM24.2473 34.0159L24.2766 34.515L24.3068 34.5133L24.3365 34.5079L24.2473 34.0159ZM25.7955 31.0248L26.2486 30.8135L26.2392 30.7932L26.228 30.7738L25.7955 31.0248ZM25.7919 31.0186L25.3385 31.2294L25.3481 31.25L25.3595 31.2696L25.7919 31.0186ZM26.4355 30.2343L26.565 29.7512L26.5547 29.7487L26.4355 30.2343ZM26.4501 30.2382L26.3207 30.7213L26.3312 30.7239L26.4501 30.2382ZM29.0864 28.1367L28.6035 28.0071L28.5853 28.0749L28.5865 28.145L29.0864 28.1367ZM29.0877 28.1318L29.5706 28.2614L29.589 28.1926L29.5876 28.1215L29.0877 28.1318ZM29.9976 27.6788L30.3287 27.3042L30.3154 27.2924L30.3012 27.2816L29.9976 27.6788ZM30.006 27.6863L29.675 28.061L29.6876 28.0722L29.701 28.0825L30.006 27.6863ZM33.2719 26.8402L33.7317 27.0367L33.7457 27.004L33.7549 26.9696L33.2719 26.8402ZM33.2745 26.8305L32.8143 26.6352L32.8006 26.6674L32.7916 26.7011L33.2745 26.8305ZM34.2893 26.7852L33.8494 27.0229L33.853 27.0296L33.8568 27.0361L34.2893 26.7852ZM34.2929 26.7914L34.7328 26.5538L34.7292 26.5471L34.7254 26.5405L34.2929 26.7914ZM37.6271 27.3468L37.9661 27.7143L37.9843 27.6976L38.0007 27.6792L37.6271 27.3468ZM37.6346 27.3384L37.2964 26.9701L37.2779 26.9872L37.2611 27.006L37.6346 27.3384ZM38.5791 27.7111L39.0621 27.8404L39.0841 27.7584L39.0778 27.6738L38.5791 27.7111ZM38.5779 27.716L38.0949 27.5866L38.073 27.6684L38.0792 27.7528L38.5779 27.716ZM41.3961 29.5735L41.5578 30.0466L41.6034 30.031L41.6453 30.007L41.3961 29.5735ZM41.4084 29.5664L41.2491 29.0924L41.2022 29.1082L41.1593 29.1329L41.4084 29.5664ZM42.1236 30.2884L41.6536 30.1179L41.6462 30.1382L41.6406 30.1591L42.1236 30.2884ZM42.1223 30.2933L42.5922 30.4642L42.5996 30.4437L42.6053 30.4226L42.1223 30.2933ZM43.9403 33.1359L44.0697 32.653L44.0286 32.642L43.9862 32.6381L43.9403 33.1359ZM43.9549 33.1399L43.8255 33.6228L43.867 33.6339L43.9098 33.6378L43.9549 33.1399ZM44.3118 34.0883L44.6716 34.4354L44.6723 34.4347L44.3118 34.0883ZM44.8132 37.4205L45.1442 37.0459L45.1037 37.0101L45.0565 36.9838L44.8132 37.4205ZM44.8216 37.428L44.4905 37.8027L44.531 37.8385L44.5782 37.8648L44.8216 37.428ZM44.7591 38.4408L44.9451 38.905L44.9473 38.904L44.7591 38.4408ZM43.8576 41.6884L43.4581 41.9891L43.4885 42.0295L43.5264 42.063L43.8576 41.6884ZM43.866 41.6959L44.2652 41.3948L44.2349 41.3546L44.1971 41.3212L43.866 41.6959ZM43.3955 42.5942L43.4147 42.0945L43.4127 42.0945L43.3955 42.5942ZM41.2468 45.1956L40.7599 45.3092L40.7769 45.3821L40.8145 45.4468L41.2468 45.1956ZM41.2504 45.2017L41.7375 45.089L41.7205 45.0156L41.6827 44.9505L41.2504 45.2017ZM40.4551 45.831L40.6745 45.3817L40.6738 45.3814L40.4551 45.831ZM37.4259 47.3333L37.9088 47.4628L37.9133 47.4461L37.9166 47.4292L37.4259 47.3333ZM37.4246 47.3382L36.9417 47.2087L36.9377 47.2234L36.9347 47.2383L37.4246 47.3382ZM33.6545 39.3104L33.3017 39.6647L33.7014 40.0627L34.0486 39.6182L33.6545 39.3104ZM5.24072 42.1489H4.74072V42.6489H5.24072V42.1489ZM5.24072 5V4.5H4.74072V5H5.24072ZM42.0242 5H42.5242V4.5H42.0242V5ZM9.01336 14.4318V13.9318H8.51336V14.4318H9.01336ZM19.3882 14.4318H19.8882V13.9318H19.3882V14.4318ZM19.3882 25.7498V26.2498H19.8882V25.7498H19.3882ZM9.01336 25.7498H8.51336V26.2498H9.01336V25.7498ZM36.813 47.2893C35.6946 45.9724 33.6295 46.0556 32.637 47.4688L33.4554 48.0435C34.0673 47.1722 35.3511 47.1127 36.0508 47.9366L36.813 47.2893ZM32.5632 47.6268L32.5619 47.6317L33.5279 47.8903L33.5292 47.8854L32.5632 47.6268ZM32.6356 47.4738C32.6255 47.4882 32.6167 47.4932 32.6099 47.4958C32.601 47.4993 32.5879 47.5014 32.5725 47.4989C32.5571 47.4964 32.545 47.4901 32.5373 47.4836C32.5312 47.4785 32.524 47.4704 32.5188 47.4528L31.5604 47.7384C31.8138 48.5886 32.9423 48.7776 33.4542 48.0482L32.6356 47.4738ZM32.4721 47.3447L32.4685 47.3385L31.6036 47.8404L31.6071 47.8466L32.4721 47.3447ZM32.516 47.4493C32.0318 45.7919 30.1078 45.0396 28.627 45.9258L29.1405 46.7839C30.0604 46.2334 31.2558 46.7017 31.5561 47.7296L32.516 47.4493ZM28.625 45.927C28.6092 45.9366 28.5986 45.9376 28.5909 45.9373C28.581 45.9369 28.568 45.9335 28.555 45.925C28.542 45.9165 28.5338 45.9061 28.5297 45.8977C28.5265 45.8912 28.5235 45.8819 28.5258 45.8648L27.5346 45.7322C27.4162 46.6174 28.3803 47.2438 29.1426 46.7826L28.625 45.927ZM28.5132 45.928L28.5158 45.9182L27.5499 45.6594L27.5473 45.6691L28.5132 45.928ZM28.5282 45.8562C28.7609 44.1449 27.3036 42.6776 25.5904 42.8921L25.7146 43.8844C26.7787 43.7511 27.6812 44.6632 27.5374 45.7215L28.5282 45.8562ZM25.593 42.8918C25.5738 42.8941 25.563 42.8905 25.556 42.887C25.547 42.8826 25.537 42.8743 25.5291 42.8621C25.5213 42.8499 25.5183 42.838 25.518 42.8293C25.5178 42.8228 25.5187 42.8128 25.5284 42.7971L24.6782 42.2707C24.2058 43.0336 24.8327 43.99 25.712 43.8847L25.593 42.8918ZM25.4768 42.8663L25.4843 42.8579L24.7373 42.1931L24.7299 42.2015L25.4768 42.8663ZM25.5357 42.789C26.4456 41.3218 25.7095 39.3923 24.0592 38.8924L23.7693 39.8495C24.7948 40.1601 25.2471 41.357 24.6859 42.262L25.5357 42.789ZM24.0589 38.8923C24.0397 38.8865 24.0318 38.8789 24.0276 38.8739C24.022 38.8672 24.0167 38.8568 24.0146 38.8433C24.0125 38.8297 24.0144 38.8176 24.0181 38.8085C24.021 38.8014 24.027 38.791 24.0441 38.7792L23.4761 37.9561C22.7446 38.4609 22.9098 39.5896 23.7696 39.8496L24.0589 38.8923ZM24.0092 38.8012L24.0215 38.7941L23.5234 37.927L23.511 37.9341L24.0092 38.8012ZM24.0539 38.7738C25.4824 37.801 25.5978 35.75 24.2914 34.6177L23.6364 35.3734C24.4489 36.0776 24.3748 37.3454 23.491 37.9473L24.0539 38.7738ZM24.2914 34.6177C24.2525 34.584 24.2663 34.519 24.3238 34.5082L24.1389 33.5255C23.2616 33.6905 22.9634 34.79 23.6364 35.3733L24.2914 34.6177ZM24.2607 34.516L24.2766 34.515L24.218 33.5168L24.2021 33.5177L24.2607 34.516ZM24.3365 34.5079C26.0371 34.1997 26.9774 32.3759 26.2486 30.8135L25.3424 31.2361C25.7944 32.2053 25.2128 33.3328 24.1581 33.5239L24.3365 34.5079ZM26.228 30.7738L26.2244 30.7677L25.3595 31.2696L25.3631 31.2758L26.228 30.7738ZM26.2454 30.8079C26.2374 30.7908 26.2375 30.7799 26.2386 30.7724C26.24 30.7629 26.2446 30.7512 26.2536 30.7402C26.2626 30.7292 26.2727 30.7228 26.281 30.7199C26.2871 30.7177 26.2974 30.7153 26.3164 30.7199L26.5547 29.7487C25.6825 29.5347 24.9648 30.4252 25.3385 31.2294L26.2454 30.8079ZM26.3061 30.7173L26.3207 30.7212L26.5795 29.7553L26.5649 29.7514L26.3061 30.7173ZM26.3312 30.7239C28.0065 31.1343 29.615 29.851 29.5863 28.1284L28.5865 28.145C28.6042 29.2115 27.6085 30.0072 26.5691 29.7526L26.3312 30.7239ZM29.5693 28.2662L29.5706 28.2614L28.6048 28.0023L28.6035 28.0071L29.5693 28.2662ZM29.5876 28.1215C29.5872 28.1039 29.5913 28.0955 29.5946 28.0904C29.599 28.0834 29.6074 28.0748 29.6206 28.0683C29.6337 28.0618 29.6468 28.0596 29.6574 28.0604C29.666 28.0611 29.6778 28.0638 29.6939 28.0761L30.3012 27.2816C29.6001 26.7456 28.5693 27.2418 28.5878 28.1421L29.5876 28.1215ZM29.6665 28.0535L29.675 28.061L30.3371 27.3116L30.3287 27.3042L29.6665 28.0535ZM29.701 28.0825C31.067 29.1343 33.0566 28.6169 33.7317 27.0367L32.8122 26.6438C32.3949 27.6204 31.1614 27.9449 30.3111 27.2901L29.701 28.0825ZM33.7549 26.9696L33.7575 26.9599L32.7916 26.7011L32.789 26.7108L33.7549 26.9696ZM33.7348 27.0258C33.7418 27.0094 33.7492 27.0031 33.7546 26.9996C33.7619 26.9947 33.7736 26.9902 33.7887 26.9895C33.8039 26.9889 33.8167 26.9924 33.8256 26.9972C33.8325 27.0009 33.8409 27.0072 33.8494 27.0229L34.7292 26.5475C34.3095 25.7709 33.1646 25.8095 32.8143 26.6352L33.7348 27.0258ZM33.8568 27.0361L33.8604 27.0422L34.7254 26.5405L34.7218 26.5344L33.8568 27.0361ZM33.8529 27.029C34.6712 28.5443 36.6999 28.8823 37.9661 27.7143L37.2881 26.9793C36.5013 27.7051 35.2408 27.4946 34.7328 26.5538L33.8529 27.029ZM38.0007 27.6792L38.0081 27.6708L37.2611 27.006L37.2536 27.0144L38.0007 27.6792ZM37.9728 27.7067C37.9866 27.694 37.9971 27.6907 38.0049 27.6894C38.0146 27.6878 38.0275 27.6886 38.041 27.6939C38.0544 27.6992 38.0638 27.707 38.0694 27.7142C38.0735 27.7196 38.0791 27.7289 38.0805 27.7484L39.0778 27.6738C39.0109 26.7805 37.9471 26.3726 37.2964 26.9701L37.9728 27.7067ZM38.0962 27.5818L38.0949 27.5866L39.0608 27.8453L39.0621 27.8404L38.0962 27.5818ZM38.0792 27.7528C38.2062 29.4703 39.9268 30.6039 41.5578 30.0466L41.2344 29.1003C40.2212 29.4465 39.155 28.7414 39.0765 27.6791L38.0792 27.7528ZM41.6453 30.007L41.6576 29.9999L41.1593 29.1329L41.1469 29.14L41.6453 30.007ZM41.5677 30.0403C41.5857 30.0343 41.5971 30.0354 41.6054 30.0376C41.6157 30.0403 41.6278 30.0467 41.6386 30.0575C41.6493 30.0684 41.6547 30.0796 41.6567 30.0877C41.6581 30.0936 41.6592 30.1023 41.6536 30.1179L42.5936 30.4589C42.8999 29.6145 42.0834 28.812 41.2491 29.0924L41.5677 30.0403ZM41.6406 30.1591L41.6393 30.1639L42.6053 30.4226L42.6066 30.4178L41.6406 30.1591ZM41.6524 30.1223C41.063 31.7427 42.1817 33.4758 43.8943 33.6338L43.9862 32.6381C42.9164 32.5393 42.2302 31.4593 42.5922 30.4642L41.6524 30.1223ZM43.8108 33.6189L43.8255 33.6228L44.0844 32.6569L44.0697 32.653L43.8108 33.6189ZM43.9098 33.6378C43.9281 33.6395 43.9372 33.6448 43.9429 33.6494C43.9504 33.6554 43.9583 33.6653 43.9635 33.679C43.9686 33.6927 43.9691 33.705 43.9675 33.7135C43.9663 33.7198 43.9635 33.7291 43.9512 33.7418L44.6723 34.4347C45.2915 33.7904 44.8827 32.7218 44 32.6419L43.9098 33.6378ZM43.9519 33.7411C42.7538 34.9828 43.0627 37.0175 44.5698 37.8573L45.0565 36.9838C44.1192 36.4614 43.9322 35.2017 44.6716 34.4354L43.9519 33.7411ZM44.4821 37.7952L44.4905 37.8027L45.1527 37.0533L45.1442 37.0459L44.4821 37.7952ZM44.5782 37.8648C44.5953 37.8743 44.6015 37.8832 44.6047 37.8895C44.6089 37.8976 44.612 37.9093 44.6111 37.9233C44.6103 37.9372 44.6058 37.9485 44.6006 37.956C44.5966 37.9618 44.5893 37.9701 44.5708 37.9776L44.9473 38.904C45.7757 38.5674 45.845 37.4259 45.065 36.9912L44.5782 37.8648ZM44.5731 37.9767C42.9673 38.6201 42.4176 40.6069 43.4581 41.9891L44.257 41.3877C43.6107 40.5291 43.9534 39.3023 44.9451 38.905L44.5731 37.9767ZM43.5264 42.063L43.5349 42.0705L44.1971 41.3212L44.1887 41.3138L43.5264 42.063ZM43.4669 41.997C43.4783 42.0122 43.4802 42.0225 43.4806 42.0292C43.4812 42.0381 43.4793 42.0499 43.4729 42.0621C43.4665 42.0744 43.4579 42.0826 43.4503 42.0873C43.4446 42.0908 43.4346 42.0953 43.4147 42.0946L43.3764 43.0938C44.2732 43.1282 44.8041 42.1092 44.2652 41.3948L43.4669 41.997ZM43.4127 42.0945C41.6848 42.0352 40.3658 43.621 40.7599 45.3092L41.7337 45.0819C41.4908 44.0412 42.3018 43.0569 43.3784 43.0939L43.4127 42.0945ZM40.8145 45.4468L40.818 45.4529L41.6827 44.9505L41.6791 44.9444L40.8145 45.4468ZM40.7632 45.3144C40.7673 45.3321 40.7649 45.3415 40.7627 45.3474C40.7597 45.3554 40.7532 45.3655 40.7419 45.3745C40.7305 45.3835 40.7187 45.3878 40.7093 45.3891C40.702 45.39 40.6913 45.3899 40.6745 45.3817L40.2357 46.2803C41.0346 46.6704 41.9399 45.9636 41.7375 45.089L40.7632 45.3144ZM40.6738 45.3814C39.1189 44.625 37.266 45.5448 36.9352 47.2374L37.9166 47.4292C38.1208 46.3845 39.2689 45.81 40.2364 46.2806L40.6738 45.3814ZM36.943 47.2038L36.9417 47.2087L37.9075 47.4676L37.9088 47.4628L36.943 47.2038ZM36.9347 47.2383C36.9285 47.2684 36.9176 47.2835 36.9098 47.2917C36.9007 47.3011 36.8889 47.3081 36.8758 47.3116C36.8626 47.3152 36.8511 47.3144 36.8431 47.312C36.8369 47.3102 36.8271 47.306 36.8145 47.2911L36.0493 47.9348C36.6361 48.6323 37.7355 48.3167 37.9145 47.438L36.9347 47.2383ZM40.7207 37.301C40.7207 40.9065 37.7849 43.8328 34.159 43.8328V44.8328C38.3332 44.8328 41.7207 41.4627 41.7207 37.301H40.7207ZM34.159 43.8328C30.5331 43.8328 27.5973 40.9065 27.5973 37.301H26.5973C26.5973 41.4627 29.9848 44.8328 34.159 44.8328V43.8328ZM27.5973 37.301C27.5973 33.6956 30.5331 30.7692 34.159 30.7692V29.7692C29.9848 29.7692 26.5973 33.1393 26.5973 37.301H27.5973ZM34.159 30.7692C37.7849 30.7692 40.7207 33.6956 40.7207 37.301H41.7207C41.7207 33.1393 38.3332 29.7692 34.159 29.7692V30.7692ZM31.2841 37.6556L33.3017 39.6647L34.0073 38.9561L31.9897 36.947L31.2841 37.6556ZM34.0486 39.6182L37.5794 35.0978L36.7913 34.4822L33.2605 39.0026L34.0486 39.6182ZM25.3066 41.6489H5.24072V42.6489H25.3066V41.6489ZM5.74072 42.1489V5H4.74072V42.1489H5.74072ZM5.24072 5.5H42.0242V4.5H5.24072V5.5ZM41.5242 5V29.7836H42.5242V5H41.5242ZM5.24072 11.159H42.0242V10.159H5.24072V11.159ZM8.07022 8.32922H9.95655V7.32922H8.07022V8.32922ZM10.8997 8.32922H12.786V7.32922H10.8997V8.32922ZM9.01336 14.9318H19.3882V13.9318H9.01336V14.9318ZM18.8882 14.4318V25.7498H19.8882V14.4318H18.8882ZM19.3882 25.2498H9.01336V26.2498H19.3882V25.2498ZM9.51336 25.7498V14.4318H8.51336V25.7498H9.51336ZM8.24154 31.0378H20.6368V30.0378H8.24154V31.0378ZM8.24154 34.9818H20.6368V33.9818H8.24154V34.9818ZM8.24154 38.3623H20.6368V37.3623H8.24154V38.3623ZM22.8905 15.8749H33.2654V14.8749H22.8905V15.8749ZM22.8905 18.6425H29.4927V17.6425H22.8905V18.6425ZM22.8905 21.4596H29.4927V20.4596H22.8905V21.4596ZM22.8905 24.2767H29.4927V23.2767H22.8905V24.2767Z" fill="#00DCE6"/>
</svg>
