<svg width="65" height="65" viewBox="0 0 65 65" fill="none" xmlns="http://www.w3.org/2000/svg">
<path d="M55.2045 0H0V54.9479C6.91579 61.1956 16.0812 65 26.1351 65C46.573 65 63.3391 49.2789 65 29.2698V22.7302C64.2777 14.0293 60.6992 6.13916 55.2045 0Z" fill="#00DCE6" fill-opacity="0.1"/>
<path d="M5.14404 20.524H4.64404V20.7695L4.8383 20.9196L5.14404 20.524ZM5.14404 11.1467L4.84029 10.7495L4.64404 10.8996V11.1467H5.14404ZM12.948 5.17822L13.2518 4.78106L12.948 4.54875L12.6443 4.78106L12.948 5.17822ZM20.752 11.1467H21.252V10.8996L21.0557 10.7495L20.752 11.1467ZM20.752 20.5208L21.0578 20.9164L21.252 20.7663V20.5208H20.752ZM12.948 26.5549L12.6423 26.9505L12.9481 27.1868L13.2539 26.9504L12.948 26.5549ZM32.614 20.524H32.114V20.7695L32.3083 20.9196L32.614 20.524ZM32.614 11.1467L32.3103 10.7495L32.114 10.8996V11.1467H32.614ZM40.418 5.17822L40.7217 4.78106L40.418 4.54875L40.1142 4.78106L40.418 5.17822ZM48.222 11.1467H48.722V10.8996L48.5257 10.7495L48.222 11.1467ZM48.222 20.5208L48.5278 20.9164L48.722 20.7663V20.5208H48.222ZM40.418 26.5549L40.1122 26.9505L40.4181 27.1868L40.7238 26.9504L40.418 26.5549ZM18.879 42.063H18.379V42.3085L18.5733 42.4586L18.879 42.063ZM18.879 32.6857L18.5754 32.2885L18.379 32.4386V32.6857H18.879ZM26.683 26.7204L26.9867 26.3231L26.683 26.091L26.3794 26.3231L26.683 26.7204ZM34.487 32.6857H34.987V32.4386L34.7906 32.2885L34.487 32.6857ZM34.487 42.0598L34.7928 42.4554L34.987 42.3053V42.0598H34.487ZM26.683 48.0939L26.3773 48.4895L26.6831 48.7258L26.9888 48.4894L26.683 48.0939ZM5.30012 25.8587L4.98552 25.4701L4.49619 25.8663L4.99283 26.2532L5.30012 25.8587ZM18.723 36.3161L19.0401 35.9293L19.0302 35.9216L18.723 36.3161ZM48.0659 25.8588L48.3777 26.2497L48.8728 25.8548L48.3737 25.4649L48.0659 25.8588ZM26.3708 10.2508L26.6708 9.8508L26.3708 9.6258L26.0708 9.8508L26.3708 10.2508ZM5.64404 20.524V11.1467H4.64404V20.524H5.64404ZM5.44779 11.5439L13.2518 5.57538L12.6443 4.78106L4.84029 10.7495L5.44779 11.5439ZM12.6443 5.57538L20.4482 11.5439L21.0557 10.7495L13.2518 4.78106L12.6443 5.57538ZM20.252 11.1467V20.5208H21.252V11.1467H20.252ZM20.4461 20.1253L12.6422 26.1593L13.2539 26.9504L21.0578 20.9164L20.4461 20.1253ZM13.2538 26.1592L5.44978 20.1283L4.8383 20.9196L12.6423 26.9505L13.2538 26.1592ZM12.448 17.0217V26.6393H13.448V17.0217H12.448ZM4.88372 11.5709L12.6471 17.421L13.2489 16.6223L5.48553 10.7723L4.88372 11.5709ZM13.2489 17.421L21.0123 11.5709L20.4105 10.7723L12.6471 16.6223L13.2489 17.421ZM33.114 20.524V11.1467H32.114V20.524H33.114ZM32.9178 11.5439L40.7217 5.57538L40.1142 4.78106L32.3103 10.7495L32.9178 11.5439ZM40.1142 5.57538L47.9182 11.5439L48.5257 10.7495L40.7217 4.78106L40.1142 5.57538ZM47.722 11.1467V20.5208H48.722V11.1467H47.722ZM47.9161 20.1253L40.1121 26.1593L40.7238 26.9504L48.5278 20.9164L47.9161 20.1253ZM40.7237 26.1592L32.9198 20.1283L32.3083 20.9196L40.1122 26.9505L40.7237 26.1592ZM39.918 17.0217V26.6393H40.918V17.0217H39.918ZM32.3537 11.5709L40.1171 17.421L40.7189 16.6223L32.9555 10.7723L32.3537 11.5709ZM40.7189 17.421L48.4823 11.5709L47.8805 10.7723L40.1171 16.6223L40.7189 17.421ZM19.379 42.063V32.6857H18.379V42.063H19.379ZM19.1827 33.083L26.9867 27.1176L26.3794 26.3231L18.5754 32.2885L19.1827 33.083ZM26.3794 27.1176L34.1833 33.083L34.7906 32.2885L26.9867 26.3231L26.3794 27.1176ZM33.987 32.6857V42.0598H34.987V32.6857H33.987ZM34.1811 41.6643L26.3772 47.6983L26.9888 48.4894L34.7928 42.4554L34.1811 41.6643ZM26.9887 47.6982L19.1848 41.6673L18.5733 42.4586L26.3773 48.4895L26.9887 47.6982ZM26.183 38.5606V48.1782H27.183V38.5606H26.183ZM18.6187 33.1099L26.3821 38.9599L26.9839 38.1613L19.2205 32.3113L18.6187 33.1099ZM26.9839 38.9599L34.7473 33.1099L34.1455 32.3113L26.3821 38.1613L26.9839 38.9599ZM8.26319 22.8168L4.98552 25.4701L5.61472 26.2474L8.89239 23.594L8.26319 22.8168ZM4.99283 26.2532L18.4157 36.7105L19.0302 35.9216L5.60741 25.4643L4.99283 26.2532ZM18.4059 36.7027L18.562 36.8307L19.1961 36.0574L19.04 35.9294L18.4059 36.7027ZM44.4023 23.6307L47.758 26.2528L48.3737 25.4649L45.018 22.8427L44.4023 23.6307ZM47.7541 25.468L34.1752 36.2999L34.7988 37.0816L48.3777 26.2497L47.7541 25.468ZM21.052 14.8649L26.6708 10.6508L26.0708 9.8508L20.452 14.0649L21.052 14.8649ZM26.0708 10.6508L32.314 15.3332L32.914 14.5332L26.6708 9.8508L26.0708 10.6508Z" fill="#00DCE6"/>
</svg>
