<svg width="65" height="65" viewBox="0 0 65 65" fill="none" xmlns="http://www.w3.org/2000/svg">
<path d="M55.2045 0H0V54.9479C6.91579 61.1956 16.0812 65 26.1351 65C46.573 65 63.3391 49.2789 65 29.2698V22.7302C64.2777 14.0293 60.6992 6.13916 55.2045 0Z" fill="#00DCE6" fill-opacity="0.1"/>
<path d="M45.7935 7.45835H46.2935V6.95835H45.7935V7.45835ZM45.7935 46.4123V46.9123H46.2935V46.4123H45.7935ZM5.66877 7.45835V6.95835H5.16877V7.45835H5.66877ZM5.66877 46.4122H5.16877V46.9122H5.66877V46.4122ZM46.4622 26.9345L46.9298 27.1116L46.9965 26.9354L46.9304 26.7589L46.4622 26.9345ZM5 26.9347L4.53241 26.7576L4.46518 26.9351L4.53269 27.1125L5 26.9347ZM46.2935 14.1745V7.45835H45.2935V14.1745H46.2935ZM45.7935 6.95835H39.1061V7.95835H45.7935V6.95835ZM45.2935 39.6961V46.4123H46.2935V39.6961H45.2935ZM45.7935 45.9123H39.1061V46.9123H45.7935V45.9123ZM6.16877 14.1745V7.45835H5.16877V14.1745H6.16877ZM5.66877 7.95835H12.3562V6.95835H5.66877V7.95835ZM5.16877 39.696V46.4122H6.16877V39.696H5.16877ZM5.66877 46.9122H12.3562V45.9122H5.66877V46.9122ZM28.5481 26.8948C28.5481 28.4514 27.2814 29.7529 25.7044 29.7529V30.7529C27.8455 30.7529 29.5481 28.9918 29.5481 26.8948H28.5481ZM25.7044 29.7529C24.1273 29.7529 22.8606 28.4514 22.8606 26.8948H21.8606C21.8606 28.9918 23.5632 30.7529 25.7044 30.7529V29.7529ZM22.8606 26.8948C22.8606 25.3382 24.1273 24.0367 25.7044 24.0367V23.0367C23.5632 23.0367 21.8606 24.7978 21.8606 26.8948H22.8606ZM25.7044 24.0367C27.2694 24.0367 28.5481 25.3395 28.5481 26.8948H29.5481C29.5481 24.7965 27.8309 23.0367 25.7044 23.0367V24.0367ZM28.2668 13.3001C36.4398 14.272 43.224 19.7221 45.994 27.11L46.9304 26.7589C44.0295 19.022 36.9305 13.3233 28.3849 12.3071L28.2668 13.3001ZM45.9946 26.7574C43.2105 34.1087 36.4641 39.5973 28.2935 40.5688L28.4116 41.5618C36.9597 40.5454 44.0162 34.8045 46.9298 27.1116L45.9946 26.7574ZM23.2087 40.5691C15.0244 39.5974 8.26462 34.1084 5.46731 26.7569L4.53269 27.1125C7.45984 34.8053 14.5298 40.5457 23.0908 41.5621L23.2087 40.5691ZM5.46759 27.1118C8.25155 19.761 15.0109 14.272 23.1953 13.3004L23.0774 12.3073C14.5165 13.3237 7.44617 19.0641 4.53241 26.7576L5.46759 27.1118ZM28.2024 17.0096C31.8223 17.9312 34.6936 20.8139 35.6119 24.4516L36.5814 24.2069C35.5738 20.215 32.4263 17.0531 28.4492 16.0405L28.2024 17.0096ZM15.8504 24.4516C16.7687 20.8139 19.6399 17.9312 23.2598 17.0096L23.0131 16.0405C19.0359 17.0531 15.8885 20.215 14.8808 24.2069L15.8504 24.4516ZM28.4492 37.8291C32.4263 36.8165 35.5738 33.6546 36.5814 29.6627L35.6119 29.418C34.6936 33.0557 31.8223 35.9384 28.2024 36.86L28.4492 37.8291ZM14.8808 29.6627C15.8885 33.6546 19.0359 36.8165 23.0131 37.8291L23.2598 36.86C19.6399 35.9384 16.7687 33.0557 15.8504 29.418L14.8808 29.6627ZM24.3569 21.9047C24.7671 21.7752 25.2232 21.713 25.7311 21.713V20.713C25.1423 20.713 24.5818 20.7851 24.0559 20.9511L24.3569 21.9047ZM25.7311 21.713C28.585 21.713 30.9422 24.0416 30.9422 26.9486H31.9422C31.9422 23.4887 29.1367 20.713 25.7311 20.713V21.713ZM30.9422 26.9486C30.9422 29.858 28.6228 32.1842 25.7311 32.1842V33.1842C29.1791 33.1842 31.9422 30.4062 31.9422 26.9486H30.9422ZM25.7311 32.1842C22.852 32.1842 20.52 29.8572 20.52 26.9486H19.52C19.52 30.407 22.2972 33.1842 25.7311 33.1842V32.1842ZM20.52 26.9486C20.52 26.4826 20.581 26.0189 20.7144 25.5558L19.7536 25.2789C19.5928 25.8366 19.52 26.3938 19.52 26.9486H20.52ZM26.2311 48.87V35.5182H25.2311V48.87H26.2311ZM26.2311 18.3518V5H25.2311V18.3518H26.2311ZM41.8747 26.4353H34.2777V27.4353H41.8747V26.4353ZM17.1979 26.4353H9.60094V27.4353H17.1979V26.4353Z" fill="#00DCE6"/>
</svg>
