<svg width="65" height="65" viewBox="0 0 65 65" fill="none" xmlns="http://www.w3.org/2000/svg">
<path d="M55.2045 0H0V54.9479C6.91579 61.1956 16.0812 65 26.1351 65C46.573 65 63.3391 49.2789 65 29.2698V22.7302C64.2777 14.0293 60.6992 6.13916 55.2045 0Z" fill="#00DCE6" fill-opacity="0.1"/>
<path d="M41.8205 8.6015V9.1015H42.3205V8.6015H41.8205ZM41.8205 5.83325L42.1741 5.4797L41.3205 4.62615V5.83325H41.8205ZM48.2798 12.2925L48.6333 12.6461L48.9869 12.2925L48.6333 11.939L48.2798 12.2925ZM41.8205 18.7518H41.3205V19.9589L42.1741 19.1053L41.8205 18.7518ZM41.8205 15.9835H42.3205V15.4835H41.8205V15.9835ZM12.2925 46.065V45.565H11.7925V46.065H12.2925ZM12.2925 48.8333L11.939 49.1868L12.7925 50.0404V48.8333H12.2925ZM5.83325 42.374L5.4797 42.0204L5.12615 42.374L5.4797 42.7276L5.83325 42.374ZM12.2925 35.9147H12.7925V34.7076L11.939 35.5612L12.2925 35.9147ZM12.2925 38.683H11.7925V39.183H12.2925V38.683ZM19.2891 14.8649V14.3649H18.7891V14.8649H19.2891ZM36.4849 14.8649H36.9849V14.3649H36.4849V14.8649ZM36.4849 39.8022V40.3022H36.9849V39.8022H36.4849ZM19.2891 39.8022H18.7891V40.3022H19.2891V39.8022ZM21.9759 16.4912V15.9912H20.7609L21.624 16.8464L21.9759 16.4912ZM23.7712 18.27L24.1446 18.6025L24.4599 18.2485L24.1231 17.9148L23.7712 18.27ZM21.9759 20.286L21.6025 19.9535L20.8612 20.786H21.9759V20.286ZM34.4385 9.1015H41.8205V8.1015H34.4385V9.1015ZM42.3205 8.6015V5.83325H41.3205V8.6015H42.3205ZM41.467 6.18681L47.9262 12.6461L48.6333 11.939L42.1741 5.4797L41.467 6.18681ZM47.9262 11.939L41.467 18.3982L42.1741 19.1053L48.6333 12.6461L47.9262 11.939ZM42.3205 18.7518V15.9835H41.3205V18.7518H42.3205ZM41.8205 15.4835H39.0523V16.4835H41.8205V15.4835ZM32.593 8.1015H27.0565V9.1015H32.593V8.1015ZM29.8248 11.7925H14.138V12.7925H29.8248V11.7925ZM19.6745 45.565H12.2925V46.565H19.6745V45.565ZM11.7925 46.065V48.8333H12.7925V46.065H11.7925ZM12.6461 48.4797L6.18681 42.0204L5.4797 42.7276L11.939 49.1868L12.6461 48.4797ZM6.18681 42.7276L12.6461 36.2683L11.939 35.5612L5.4797 42.0204L6.18681 42.7276ZM11.7925 35.9147V38.683H12.7925V35.9147H11.7925ZM12.2925 39.183H15.9835V38.183H12.2925V39.183ZM21.52 46.5654H27.0565V45.5654H21.52V46.5654ZM24.2882 42.8742H39.975V41.8742H24.2882V42.8742ZM19.2891 15.3649H36.4849V14.3649H19.2891V15.3649ZM35.9849 14.8649V39.8022H36.9849V14.8649H35.9849ZM36.4849 39.3022H19.2891V40.3022H36.4849V39.3022ZM19.7891 39.8022V14.8649H18.7891V39.8022H19.7891ZM36.4849 21.9545H19.2891V22.9545H36.4849V21.9545ZM27.387 22.4545V39.8022H28.387V22.4545H27.387ZM36.4849 30.6283H19.2891V31.6283H36.4849V30.6283ZM21.4386 27.2914H25.7375V26.2914H21.4386V27.2914ZM30.0365 34.881H34.3354V33.881H30.0365V34.881ZM30.0365 37.0495H34.3354V36.0495H30.0365V37.0495ZM31.0203 28.6776L34.0618 25.6092L33.3516 24.9052L30.3101 27.9736L31.0203 28.6776ZM30.3101 25.5171L33.3516 28.5854L34.0618 27.8815L31.0203 24.8131L30.3101 25.5171ZM21.4386 35.9653H25.7375V34.9653H21.4386V35.9653ZM23.0881 33.2968V37.6337H24.0881V33.2968H23.0881ZM23.0507 25.6651H24.1254V24.6651H23.0507V25.6651ZM23.0507 28.9178H24.1254V27.9178H23.0507V28.9178ZM25.7375 15.9912H21.9759V16.9912H25.7375V15.9912ZM21.624 16.8464L23.4193 18.6252L24.1231 17.9148L22.3279 16.136L21.624 16.8464ZM23.3978 17.9375L21.6025 19.9535L22.3493 20.6185L24.1446 18.6025L23.3978 17.9375ZM21.9759 20.786H25.7375V19.786H21.9759V20.786Z" fill="#00DCE6"/>
</svg>
