<svg width="90" height="70" viewBox="0 0 90 70" fill="none" xmlns="http://www.w3.org/2000/svg">
<path d="M4.60979e-06 0L54.7059 9.56508e-06C74.1983 1.29732e-05 90 15.6701 90 35C90 54.33 74.1983 70 54.7059 70L-7.62939e-06 70L4.60979e-06 0Z" fill="#1F2432"/>
<path fill-rule="evenodd" clip-rule="evenodd" d="M49.269 44.4648L49.2627 44.4579C48.9727 44.1431 48.3923 43.7751 47.3993 43.4027C46.3386 43.0049 45.4113 42.6073 44.622 42.2089L44.6141 42.2049C43.8027 41.785 43.0887 41.3007 42.4806 40.7476L42.4747 40.7422L42.4688 40.7367C41.8507 40.1534 41.3647 39.4699 41.0132 38.6923L41.0089 38.6829C40.6542 37.8728 40.4926 36.9451 40.4926 35.9242C40.4926 34.1139 41.0811 32.5662 42.2941 31.3568C43.3189 30.335 44.6165 29.6984 46.1425 29.4181V26.25H50.1958V29.4936C51.7313 29.8492 53.0024 30.6046 53.9605 31.7788C55.07 33.1291 55.5882 34.8459 55.5882 36.8512V37.7262H49.6898V36.8512C49.6898 35.8078 49.468 35.1985 49.1823 34.8624L49.1771 34.8563L49.1721 34.8501C48.885 34.4996 48.5153 34.3178 47.9689 34.3178C47.3626 34.3178 47.0133 34.4852 46.7913 34.7165L46.7848 34.7233C46.5571 34.9553 46.391 35.3207 46.391 35.9385C46.391 36.4836 46.5436 36.8317 46.7773 37.0753C47.0604 37.3703 47.688 37.7603 48.7999 38.2076C49.9625 38.6713 50.9376 39.1188 51.7155 39.5516C52.5114 39.9849 53.2018 40.4897 53.7753 41.0716C54.3614 41.6567 54.812 42.3334 55.1227 43.0961C55.4416 43.8692 55.5882 44.7414 55.5882 45.6932C55.5882 47.5063 55.0135 49.0517 53.8153 50.2464C52.7953 51.2633 51.4702 51.8913 49.8954 52.1723V55.125H45.8564V52.184C44.0944 51.867 42.6336 51.1368 41.5388 49.9486L41.5338 49.9431C40.2888 48.5688 39.7059 46.7795 39.7059 44.6664V43.7914H45.6043V44.6664C45.6043 45.6665 45.8394 46.3006 46.1838 46.6963C46.5206 47.0644 47.0322 47.2997 47.8544 47.2997C48.5346 47.2997 48.9637 47.1262 49.2464 46.8736C49.524 46.6169 49.6898 46.2651 49.6898 45.7217C49.6898 45.111 49.5227 44.7287 49.2755 44.4715L49.269 44.4648ZM45.523 47.2762C44.989 46.6677 44.722 45.7978 44.722 44.6664H40.5882C40.5882 44.6668 40.5882 44.6671 40.5882 44.6675C40.5883 44.9679 40.601 45.2592 40.6264 45.5414C40.7658 47.0891 41.2871 48.3614 42.1902 49.3584C43.2678 50.5278 44.7839 51.2171 46.7388 51.4263V54.25H49.013V51.412C50.7867 51.2314 52.1789 50.6371 53.1897 49.6293C54.2005 48.6215 54.7059 47.3095 54.7059 45.6932C54.7059 44.828 54.5724 44.0722 54.3054 43.4257C54.0384 42.7696 53.6522 42.1897 53.1468 41.6858C52.6414 41.1724 52.0216 40.716 51.2873 40.3167C50.5531 39.9079 49.6138 39.4753 48.4695 39.0189C47.3348 38.5626 46.5576 38.1157 46.138 37.6784C45.7184 37.241 45.5087 36.6611 45.5087 35.9385C45.5087 35.1589 45.7232 34.5504 46.1523 34.113C46.5814 33.6662 47.1869 33.4428 47.9689 33.4428C48.7603 33.4428 49.3897 33.728 49.857 34.2984C50.3337 34.8594 50.5721 35.7103 50.5721 36.8512H54.7059C54.7059 36.5504 54.6933 36.2587 54.6682 35.9762C54.5386 34.5174 54.0744 33.3021 53.2755 32.3304C52.3219 31.1609 51.0012 30.4574 49.3134 30.2197V27.125H47.0248V30.1769C45.3179 30.3481 43.9496 30.947 42.9197 31.9738C41.8899 33.0007 41.3749 34.3175 41.3749 35.9242C41.3749 36.856 41.5227 37.6593 41.8183 38.3344C42.1235 39.0094 42.543 39.5989 43.077 40.1028C43.6206 40.5972 44.269 41.0393 45.0223 41.4291C45.7757 41.8094 46.672 42.1944 47.7114 42.5843C48.7508 42.9741 49.4851 43.4019 49.9142 43.8678C50.3528 44.3241 50.5721 44.9421 50.5721 45.7217C50.5721 46.4728 50.329 47.0718 49.8426 47.5187C49.3563 47.956 48.6936 48.1747 47.8544 48.1747C46.8437 48.1747 46.0665 47.8752 45.523 47.2762Z" fill="white"/>
<path d="M49.8768 21.375H22.0349L25.4383 15.375H46.4735L49.8768 21.375Z" stroke="white"/>
<rect x="27.8529" y="26.75" width="4.29412" height="5.125" stroke="white"/>
<rect x="27.8529" y="36.375" width="4.29412" height="5.125" stroke="white"/>
<rect x="27.8529" y="46" width="4.29412" height="5.125" stroke="white"/>
<rect x="19.4118" y="26.25" width="0.882355" height="28.875" fill="white"/>
<rect x="15" y="32.375" width="0.882351" height="22.75" fill="white"/>
<mask id="path-9-inside-1" fill="white">
<path d="M24.7059 21.875H47.6471V26.25H48.5294V21H23.8235V55.125H45.8564V54.25H24.7059V21.875Z"/>
<path d="M47.6471 47.2944C47.7139 47.2979 47.783 47.2997 47.8545 47.2997C48.1141 47.2997 48.3371 47.2744 48.5294 47.2291V43.9145C48.2886 43.779 47.9967 43.6396 47.6471 43.4989V47.2944Z"/>
<path d="M47.6471 37.6783C47.8917 37.8098 48.1841 37.9495 48.5294 38.0959V34.3987C48.3654 34.345 48.1804 34.3178 47.9689 34.3178C47.8524 34.3178 47.7455 34.3239 47.6471 34.3356V37.6783Z"/>
</mask>
<path d="M24.7059 21.875H47.6471V26.25H48.5294V21H23.8235V55.125H45.8564V54.25H24.7059V21.875Z" fill="white"/>
<path d="M47.6471 47.2944C47.7139 47.2979 47.783 47.2997 47.8545 47.2997C48.1141 47.2997 48.3371 47.2744 48.5294 47.2291V43.9145C48.2886 43.779 47.9967 43.6396 47.6471 43.4989V47.2944Z" fill="white"/>
<path d="M47.6471 37.6783C47.8917 37.8098 48.1841 37.9495 48.5294 38.0959V34.3987C48.3654 34.345 48.1804 34.3178 47.9689 34.3178C47.8524 34.3178 47.7455 34.3239 47.6471 34.3356V37.6783Z" fill="white"/>
<path d="M47.6471 21.875H48.6471V20.875H47.6471V21.875ZM24.7059 21.875V20.875H23.7059V21.875H24.7059ZM47.6471 26.25H46.6471V27.25H47.6471V26.25ZM48.5294 26.25V27.25H49.5294V26.25H48.5294ZM48.5294 21H49.5294V20H48.5294V21ZM23.8235 21V20H22.8235V21H23.8235ZM23.8235 55.125H22.8235V56.125H23.8235V55.125ZM45.8564 55.125V56.125H46.8564V55.125H45.8564ZM45.8564 54.25H46.8564V53.25H45.8564V54.25ZM24.7059 54.25H23.7059V55.25H24.7059V54.25ZM47.6471 47.2944H46.6471V48.2436L47.595 48.2931L47.6471 47.2944ZM48.5294 47.2291L48.7588 48.2024L49.5294 48.0209V47.2291H48.5294ZM48.5294 43.9145H49.5294V43.3299L49.0199 43.0431L48.5294 43.9145ZM47.6471 43.4989L48.0203 42.5712L46.6471 42.0186V43.4989H47.6471ZM47.6471 37.6783H46.6471V38.2761L47.1737 38.5592L47.6471 37.6783ZM48.5294 38.0959L48.139 39.0166L49.5294 39.6062V38.0959H48.5294ZM48.5294 34.3987H49.5294V33.674L48.8407 33.4484L48.5294 34.3987ZM47.6471 34.3356L47.5298 33.3425L46.6471 33.4467V34.3356H47.6471ZM47.6471 20.875H24.7059V22.875H47.6471V20.875ZM48.6471 26.25V21.875H46.6471V26.25H48.6471ZM47.6471 27.25H48.5294V25.25H47.6471V27.25ZM49.5294 26.25V21H47.5294V26.25H49.5294ZM48.5294 20H23.8235V22H48.5294V20ZM22.8235 21V55.125H24.8235V21H22.8235ZM23.8235 56.125H45.8564V54.125H23.8235V56.125ZM46.8564 55.125V54.25H44.8564V55.125H46.8564ZM24.7059 55.25H45.8564V53.25H24.7059V55.25ZM23.7059 21.875V54.25H25.7059V21.875H23.7059ZM47.595 48.2931C47.68 48.2975 47.7665 48.2997 47.8545 48.2997V46.2997C47.7996 46.2997 47.7478 46.2983 47.6991 46.2958L47.595 48.2931ZM47.8545 48.2997C48.1783 48.2997 48.4796 48.2682 48.7588 48.2024L48.3001 46.2558C48.1947 46.2806 48.0499 46.2997 47.8545 46.2997V48.2997ZM49.5294 47.2291V43.9145H47.5294V47.2291H49.5294ZM49.0199 43.0431C48.7346 42.8825 48.4024 42.7249 48.0203 42.5712L47.2738 44.4266C47.5909 44.5542 47.8426 44.6755 48.0389 44.786L49.0199 43.0431ZM48.6471 47.2944V43.4989H46.6471V47.2944H48.6471ZM47.1737 38.5592C47.45 38.7077 47.7708 38.8604 48.139 39.0166L48.9198 37.1753C48.5974 37.0385 48.3334 36.9119 48.1205 36.7975L47.1737 38.5592ZM49.5294 38.0959V34.3987H47.5294V38.0959H49.5294ZM48.8407 33.4484C48.5589 33.3561 48.2662 33.3178 47.9689 33.3178V35.3178C48.0946 35.3178 48.1719 35.3339 48.2181 35.349L48.8407 33.4484ZM47.9689 33.3178C47.8172 33.3178 47.6709 33.3258 47.5298 33.3425L47.7643 35.3287C47.8201 35.3221 47.8876 35.3178 47.9689 35.3178V33.3178ZM48.6471 37.6783V34.3356H46.6471V37.6783H48.6471Z" fill="white" mask="url(#path-9-inside-1)"/>
</svg>
