<svg width="102" height="80" viewBox="0 0 102 80" fill="none" xmlns="http://www.w3.org/2000/svg">
<path d="M102 80H40C17.9086 80 0 62.0914 0 40C0 17.9086 17.9086 0 40 0H102V80Z" fill="#1F2432"/>
<path fill-rule="evenodd" clip-rule="evenodd" d="M75.8382 50.8169L75.8311 50.809C75.5024 50.4493 74.8447 50.0287 73.7192 49.6031C72.5171 49.1484 71.4662 48.6941 70.5717 48.2387L70.5627 48.2341C69.6431 47.7543 68.8339 47.2008 68.1447 46.5687L68.138 46.5625L68.1313 46.5562C67.4308 45.8896 66.88 45.1084 66.4816 44.2198L66.4768 44.2091C66.0748 43.2832 65.8916 42.223 65.8916 41.0563C65.8916 38.9873 66.5586 37.2186 67.9333 35.8363C69.0948 34.6686 70.5654 33.9411 72.2948 33.6207V30H76.8886V33.707C78.6289 34.1134 80.0695 34.9766 81.1552 36.3186C82.4127 37.8619 83 39.8239 83 42.1157V43.1157H76.3151V42.1157C76.3151 40.9232 76.0638 40.2269 75.7399 39.8427L75.7341 39.8357L75.7284 39.8287C75.403 39.4282 74.984 39.2203 74.3647 39.2203C73.6776 39.2203 73.2818 39.4117 73.0302 39.6759L73.0227 39.6837C72.7647 39.949 72.5765 40.3665 72.5765 41.0726C72.5765 41.6955 72.7495 42.0934 73.0143 42.3717C73.3351 42.7089 74.0465 43.1547 75.3066 43.6658C76.6241 44.1957 77.7293 44.7072 78.6109 45.2019C79.513 45.697 80.2954 46.274 80.9453 46.939C81.6096 47.6077 82.1203 48.381 82.4725 49.2527C82.8339 50.1362 83 51.133 83 52.2208C83 54.2929 82.3487 56.0591 80.9907 57.4244C79.8347 58.5867 78.3329 59.3044 76.5481 59.6255V63H71.9706V59.6388C69.9736 59.2765 68.3181 58.442 67.0774 57.0841L67.0717 57.0779C65.6607 55.5072 65 53.4623 65 51.0473V50.0473H71.6849V51.0473C71.6849 52.1903 71.9514 52.915 72.3416 53.3672C72.7234 53.7879 73.3031 54.0568 74.2351 54.0568C75.0059 54.0568 75.4922 53.8585 75.8126 53.5699C76.1272 53.2765 76.3151 52.8744 76.3151 52.2534C76.3151 51.5554 76.1257 51.1185 75.8455 50.8245L75.8382 50.8169ZM71.5927 54.03C70.9875 53.3346 70.6849 52.3403 70.6849 51.0473H66C66 51.0477 66 51.0481 66 51.0485C66 51.3919 66.0145 51.7248 66.0433 52.0473C66.2012 53.8161 66.792 55.2702 67.8156 56.4096C69.0368 57.7461 70.7552 58.5338 72.9706 58.7729V62H75.5481V58.7566C77.5583 58.5501 79.1361 57.871 80.2817 56.7192C81.4272 55.5675 82 54.068 82 52.2208C82 51.232 81.8487 50.3682 81.5461 49.6293C81.2435 48.8796 80.8058 48.2168 80.233 47.6409C79.6602 47.0542 78.9578 46.5326 78.1256 46.0762C77.2935 45.609 76.229 45.1146 74.9321 44.5931C73.6461 44.0715 72.7653 43.5608 72.2898 43.061C71.8143 42.5612 71.5765 41.8984 71.5765 41.0726C71.5765 40.1816 71.8197 39.4862 72.306 38.9863C72.7923 38.4756 73.4786 38.2203 74.3647 38.2203C75.2617 38.2203 75.975 38.5463 76.5046 39.1982C77.0449 39.8393 77.3151 40.8118 77.3151 42.1157H82C82 41.7719 81.9858 41.4386 81.9573 41.1157C81.8104 39.4484 81.2843 38.0595 80.3789 36.949C79.2982 35.6125 77.8014 34.8084 75.8886 34.5368V31H73.2948V34.4879C71.3604 34.6835 69.8095 35.368 68.6424 36.5415C67.4752 37.715 66.8916 39.2199 66.8916 41.0563C66.8916 42.1211 67.0591 43.0393 67.3941 43.8107C67.74 44.5822 68.2155 45.2559 68.8207 45.8318C69.4367 46.3968 70.1716 46.902 71.0253 47.3475C71.8791 47.7822 72.895 48.2222 74.0729 48.6677C75.2509 49.1132 76.0831 49.6022 76.5694 50.1346C77.0665 50.6562 77.3151 51.3624 77.3151 52.2534C77.3151 53.1118 77.0395 53.7964 76.4883 54.307C75.9372 54.8069 75.1861 55.0568 74.2351 55.0568C73.0895 55.0568 72.2087 54.7145 71.5927 54.03Z" fill="white"/>
<path fill-rule="evenodd" clip-rule="evenodd" d="M45 48H39V62H45V48ZM38 47V63H46V47H38Z" fill="white"/>
<path fill-rule="evenodd" clip-rule="evenodd" d="M45 48H39V62H45V48ZM38 47V63H46V47H38Z" fill="white"/>
<path fill-rule="evenodd" clip-rule="evenodd" d="M57 32H51V62H57V32ZM50 31V63H58V31H50Z" fill="white"/>
<path fill-rule="evenodd" clip-rule="evenodd" d="M57 32H51V62H57V32ZM50 31V63H58V31H50Z" fill="white"/>
<path fill-rule="evenodd" clip-rule="evenodd" d="M63 18H69V36.2076C69.3095 35.9395 69.6429 35.7017 70 35.4942V18V17H69H63H62V18V62V63H63H69H70V62V57.9934C69.6454 57.8296 69.3121 57.6423 69 57.4315V62H63V18ZM69 51.0473H70V46.7464C69.6394 46.5085 69.306 46.2569 69 45.9916V51.0473Z" fill="white"/>
<path fill-rule="evenodd" clip-rule="evenodd" d="M63 18H69V36.2076C69.3095 35.9395 69.6429 35.7017 70 35.4942V18V17H69H63H62V18V62V63H63H69H70V62V57.9934C69.6454 57.8296 69.3121 57.6423 69 57.4315V62H63V18ZM69 51.0473H70V46.7464C69.6394 46.5085 69.306 46.2569 69 45.9916V51.0473Z" fill="white"/>
</svg>
