<svg width="102" height="80" viewBox="0 0 102 80" fill="none" xmlns="http://www.w3.org/2000/svg">
<path d="M102 80H40C17.9086 80 0 62.0914 0 40C0 17.9086 17.9086 0 40 0H102V80Z" fill="#1F2432"/>
<path fill-rule="evenodd" clip-rule="evenodd" d="M39.8 19.5696V17H41.2V19.5696H44V21.2H41.2V24H39.8V21.2H37V19.5696H39.8ZM56.5 53.8V62H72.6429V53.8V43.7857H56.5V49.8571H55.5V43.7857H38V62H55.5V53.8H56.5ZM38.2571 42.7857H55.5V34.7429H56.5V42.7857H72.6429V27.5H61.9714V26.5H72.9336L81.3122 18H64.3824L56.5 26.5893V33.4286V34.4286H55.5H46.6142L38.2571 42.7857ZM46.2 33.4286H54.5H55.5V32.4286V26.2L63.9429 17H82H82.2979H83V17.7122V18V52.4857L73.8 63H73.6429H73.1429H72.6429H56.5H56H55.5H38H37V62V42.6286L46.2 33.4286ZM73.6429 61.661L82 52.11V34.2926L73.6429 43.4791V53.8V61.661ZM73.6429 41.9931L82 32.8066V18.7267L73.6429 27.205V41.9931ZM61 26.5H59.5714V27.5H61V26.5ZM55.5 50.7179V52H56.5V50.7179H55.5Z" fill="white"/>
</svg>
