<svg width="90" height="70" viewBox="0 0 90 70" fill="none" xmlns="http://www.w3.org/2000/svg">
<path d="M4.60979e-06 0L54.7059 9.56508e-06C74.1983 1.29732e-05 90 15.6701 90 35C90 54.33 74.1983 70 54.7059 70L-7.62939e-06 70L4.60979e-06 0Z" fill="#1F2432"/>
<path fill-rule="evenodd" clip-rule="evenodd" d="M15 52.9375L15 42.4375L54.7059 42.4375L54.7059 35L20.2941 35L20.2941 25.8125L46.3235 25.8125L46.3235 17.9375L28.1987 17.9375C27.9887 19.179 26.8999 20.125 25.5882 20.125C24.1263 20.125 22.9412 18.9497 22.9412 17.5C22.9412 16.0503 24.1263 14.875 25.5882 14.875C26.8999 14.875 27.9887 15.821 28.1987 17.0625L47.2059 17.0625L47.2059 26.6875L21.1765 26.6875L21.1765 34.125L55.5882 34.125L55.5882 43.3125L15.8824 43.3125L15.8824 52.0625L27.3529 52.0625L27.3529 52.9375L15 52.9375ZM27.3529 17.4974C27.3515 16.5321 26.562 15.75 25.5882 15.75C24.6136 15.75 23.8235 16.5335 23.8235 17.5C23.8235 18.4665 24.6136 19.25 25.5882 19.25C26.562 19.25 27.3515 18.4679 27.3529 17.5026L27.3529 17.4974ZM31.7647 52.5C31.7647 51.5335 30.9746 50.75 30 50.75C29.0254 50.75 28.2353 51.5335 28.2353 52.5C28.2353 53.4665 29.0254 54.25 30 54.25C30.9746 54.25 31.7647 53.4665 31.7647 52.5ZM32.6471 52.5C32.6471 51.0503 31.4619 49.875 30 49.875C28.5381 49.875 27.3529 51.0503 27.3529 52.5C27.3529 53.9497 28.5381 55.125 30 55.125C31.4619 55.125 32.6471 53.9497 32.6471 52.5Z" fill="white"/>
</svg>
