<svg width="102" height="80" viewBox="0 0 102 80" fill="none" xmlns="http://www.w3.org/2000/svg">
<path d="M102 80H40C17.9086 80 0 62.0914 0 40C0 17.9086 17.9086 0 40 0H102V80Z" fill="#1F2432"/>
<path fill-rule="evenodd" clip-rule="evenodd" d="M37 60.5L37 48.5L82 48.5L82 40L43 40L43 29.5L72.5 29.5L72.5 20.5L51.9585 20.5C51.7205 21.9189 50.4865 23 49 23C47.3431 23 46 21.6569 46 20C46 18.3431 47.3431 17 49 17C50.4865 17 51.7205 18.0811 51.9585 19.5L73.5 19.5L73.5 30.5L44 30.5L44 39L83 39L83 49.5L38 49.5L38 59.5L51 59.5L51 60L51 60.5L37 60.5ZM51 60C51 58.3431 52.3431 57 54 57C55.6569 57 57 58.3431 57 60C57 61.6569 55.6569 63 54 63C52.3431 63 51 61.6569 51 60ZM51 20C51 18.8954 50.1046 18 49 18C47.8954 18 47 18.8954 47 20C47 21.1046 47.8954 22 49 22C50.1046 22 51 21.1046 51 20ZM56 60C56 58.8954 55.1046 58 54 58C52.8954 58 52 58.8954 52 60C52 61.1046 52.8954 62 54 62C55.1046 62 56 61.1046 56 60Z" fill="white"/>
</svg>
