<svg width="90" height="70" viewBox="0 0 90 70" fill="none" xmlns="http://www.w3.org/2000/svg">
<path d="M4.60979e-06 0L54.7059 9.56508e-06C74.1983 1.29732e-05 90 15.6701 90 35C90 54.33 74.1983 70 54.7059 70L-7.62939e-06 70L4.60979e-06 0Z" fill="#1F2432"/>
<rect x="15.5" y="20.625" width="11.3529" height="4.25" stroke="white"/>
<rect x="15.5" y="44.25" width="11.3529" height="4.25" stroke="white"/>
<path d="M21.1765 25.3747L21.14 44.6296" stroke="white"/>
<path d="M47.6467 25.3747L47.6102 44.6296" stroke="white"/>
<path d="M23.8235 34.9997L45.8824 35.0058" stroke="white"/>
<rect x="41.9706" y="20.625" width="11.3529" height="4.25" stroke="white"/>
<rect x="41.9706" y="44.25" width="11.3529" height="4.25" stroke="white"/>
<path d="M23.3235 35C23.3235 36.1697 22.3662 37.125 21.1765 37.125C19.9867 37.125 19.0294 36.1697 19.0294 35C19.0294 33.8303 19.9867 32.875 21.1765 32.875C22.3662 32.875 23.3235 33.8303 23.3235 35Z" stroke="white"/>
<path d="M49.7941 35C49.7941 36.1697 48.8368 37.125 47.6471 37.125C46.4573 37.125 45.5 36.1697 45.5 35C45.5 33.8303 46.4573 32.875 47.6471 32.875C48.8368 32.875 49.7941 33.8303 49.7941 35Z" stroke="white"/>
<path fill-rule="evenodd" clip-rule="evenodd" d="M20.5699 15.75H18.6949V14.875H20.5699V15.75ZM24.3199 15.75H22.4449V14.875H24.3199V15.75ZM47.4816 15.75H45.6066V14.875H47.4816V15.75ZM51.2316 15.75H49.3566V14.875H51.2316V15.75Z" fill="white" stroke="white" stroke-dasharray="2 2"/>
<path fill-rule="evenodd" clip-rule="evenodd" d="M20.5699 55.125H18.6949V54.25H20.5699V55.125ZM24.3199 55.125H22.4449V54.25H24.3199V55.125ZM46.5993 55.125H44.7243V54.25H46.5993V55.125ZM50.3493 55.125H48.4743V54.25H50.3493V55.125Z" fill="white" stroke="white" stroke-dasharray="2 2"/>
</svg>
