<svg width="90" height="70" viewBox="0 0 90 70" fill="none" xmlns="http://www.w3.org/2000/svg">
<path d="M4.60979e-06 0L54.7059 9.56508e-06C74.1983 1.29732e-05 90 15.6701 90 35C90 54.33 74.1983 70 54.7059 70L-7.62939e-06 70L4.60979e-06 0Z" fill="#1F2432"/>
<path fill-rule="evenodd" clip-rule="evenodd" d="M17.4706 17.1234V14.875H18.7059V17.1234H21.1765V18.55H18.7059V21H17.4706V18.55H15V17.1234H17.4706ZM32.2059 47.075V54.25H46.4496V47.075V38.3125H32.2059V43.625H31.3235V38.3125H15.8824V54.25H31.3235V47.075H32.2059ZM16.1092 37.4375H31.3235V30.4H32.2059V37.4375H46.4496V24.0625H37.0336V23.1875H46.7061L54.099 15.75H39.161L32.2059 23.2656V29.25V30.125H31.3235H23.4831L16.1092 37.4375ZM23.1176 29.25H30.4412H31.3235V28.375V22.925L38.7731 14.875H54.7059H54.9688H55.5882V15.4982V15.75V45.925L47.4706 55.125H47.3319H46.8908H46.4496H32.2059H31.7647H31.3235H15.8824H15V54.25V37.3L23.1176 29.25ZM47.3319 53.9534L54.7059 45.5962V30.0061L47.3319 38.0442V47.075V53.9534ZM47.3319 36.7439L54.7059 28.7058V16.3859L47.3319 23.8044V36.7439ZM36.1765 23.1875H34.916V24.0625H36.1765V23.1875ZM31.3235 44.3782V45.5H32.2059V44.3782H31.3235Z" fill="white"/>
</svg>
