<svg width="70" height="70" viewBox="0 0 70 70" fill="none" xmlns="http://www.w3.org/2000/svg">
<circle cx="35" cy="35" r="35" fill="#00DCE6" fill-opacity="0.1"/>
<mask id="path-2-inside-1" fill="white">
<path fill-rule="evenodd" clip-rule="evenodd" d="M46.1765 35.0014L39.8235 35L38.5529 44H37V45V55H49H53V44H47.447L46.1765 35.0014ZM17 45H27.5V44H17V45Z"/>
</mask>
<path d="M39.8235 35L39.8237 34L38.9548 33.9998L38.8333 34.8602L39.8235 35ZM46.1765 35.0014L47.1666 34.8616L47.0452 34.0016L46.1767 34.0014L46.1765 35.0014ZM38.5529 44V45H39.4217L39.5431 44.1398L38.5529 44ZM37 44V43H36V44H37ZM37 55H36V56H37V55ZM53 55V56H54V55H53ZM53 44H54V43H53V44ZM47.447 44L46.4568 44.1398L46.5782 45H47.447V44ZM27.5 45V46H28.5V45H27.5ZM17 45H16V46H17V45ZM27.5 44H28.5V43H27.5V44ZM17 44V43H16V44H17ZM39.8233 36L46.1763 36.0014L46.1767 34.0014L39.8237 34L39.8233 36ZM39.5431 44.1398L40.8137 35.1398L38.8333 34.8602L37.5628 43.8602L39.5431 44.1398ZM38.5529 43H37V45H38.5529V43ZM36 44V45H38V44H36ZM36 45V55H38V45H36ZM37 56H49V54H37V56ZM49 56H53V54H49V56ZM54 55V44H52V55H54ZM53 43H47.447V45H53V43ZM45.1863 35.1412L46.4568 44.1398L48.4371 43.8602L47.1666 34.8616L45.1863 35.1412ZM27.5 44H17V46H27.5V44ZM26.5 44V45H28.5V44H26.5ZM17 45H27.5V43H17V45ZM18 45V44H16V45H18Z" fill="#00DCE6" mask="url(#path-2-inside-1)"/>
<mask id="path-4-inside-2" fill="white">
<path fill-rule="evenodd" clip-rule="evenodd" d="M31 26.002L22 26L19.5172 44H17V55H18H35H36V44H33.4827L31 26.002Z"/>
</mask>
<path d="M22 26L22.0002 25L21.1285 24.9998L21.0094 25.8634L22 26ZM31 26.002L31.9906 25.8653L31.8716 25.0022L31.0002 25.002L31 26.002ZM19.5172 44V45H20.3888L20.5079 44.1366L19.5172 44ZM17 44V43H16V44H17ZM17 55H16V56H17V55ZM36 55V56H37V55H36ZM36 44H37V43H36V44ZM33.4827 44L32.492 44.1366L32.6111 45H33.4827V44ZM21.9998 27L30.9998 27.002L31.0002 25.002L22.0002 25L21.9998 27ZM20.5079 44.1366L22.9906 26.1366L21.0094 25.8634L18.5266 43.8634L20.5079 44.1366ZM17 45H19.5172V43H17V45ZM18 55V44H16V55H18ZM18 54H17V56H18V54ZM35 54H18V56H35V54ZM36 54H35V56H36V54ZM35 44V55H37V44H35ZM33.4827 45H36V43H33.4827V45ZM30.0094 26.1386L32.492 44.1366L34.4733 43.8634L31.9906 25.8653L30.0094 26.1386Z" fill="#00DCE6" mask="url(#path-4-inside-2)"/>
<rect x="19.5" y="49.5" width="3" height="3" stroke="#00DCE6"/>
<rect x="47.5" y="49.5" width="3" height="3" stroke="#00DCE6"/>
<mask id="path-8-inside-3" fill="white">
<path fill-rule="evenodd" clip-rule="evenodd" d="M36.9999 12.6087C36.9999 14.0494 35.832 15.2174 34.3913 15.2174L34.3913 15.2178C34.3913 16.4393 33.8316 17.53 32.9547 18.2476C33.0413 18.6368 33.087 19.0414 33.087 19.4567C33.087 22.5183 30.6051 25.0002 27.5435 25.0002C24.4819 25.0002 22 22.5183 22 19.4567C22 16.6578 24.0743 14.3434 26.7694 13.9668C27.2913 12.4192 28.7546 11.3048 30.4783 11.3048C31.0114 11.3048 31.5197 11.4114 31.9828 11.6045C32.3762 10.6622 33.3064 10 34.3912 10C35.832 10 36.9999 11.168 36.9999 12.6087Z"/>
</mask>
<path d="M34.3913 15.2174L34.3913 14.2174L33.389 14.2174L33.3913 15.2197L34.3913 15.2174ZM34.3913 15.2178H35.3913L35.3913 15.2155L34.3913 15.2178ZM32.9547 18.2476L32.3214 17.4737L31.8449 17.8637L31.9786 18.4648L32.9547 18.2476ZM26.7694 13.9668L26.9078 14.9572L27.5196 14.8717L27.717 14.2863L26.7694 13.9668ZM31.9828 11.6045L31.5981 12.5275L32.5206 12.9121L32.9057 11.9897L31.9828 11.6045ZM34.3913 16.2174C36.3843 16.2173 37.9999 14.6017 37.9999 12.6087H35.9999C35.9999 13.4971 35.2797 14.2174 34.3913 14.2174L34.3913 16.2174ZM35.3913 15.2155L35.3913 15.2151L33.3913 15.2197L33.3913 15.2201L35.3913 15.2155ZM33.588 19.0215C34.6871 18.1222 35.3913 16.7518 35.3913 15.2178H33.3913C33.3913 16.1267 32.9762 16.9379 32.3214 17.4737L33.588 19.0215ZM31.9786 18.4648C32.0494 18.7832 32.087 19.115 32.087 19.4567H34.087C34.087 18.9679 34.0332 18.4905 33.9309 18.0305L31.9786 18.4648ZM32.087 19.4567C32.087 21.966 30.0528 24.0002 27.5435 24.0002V26.0002C31.1573 26.0002 34.087 23.0706 34.087 19.4567H32.087ZM27.5435 24.0002C25.0342 24.0002 23 21.966 23 19.4567H21C21 23.0706 23.9296 26.0002 27.5435 26.0002V24.0002ZM23 19.4567C23 17.1635 24.6998 15.2657 26.9078 14.9572L26.6311 12.9765C23.4488 13.4211 21 16.1521 21 19.4567H23ZM30.4783 10.3048C28.3126 10.3048 26.4766 11.7054 25.8219 13.6473L27.717 14.2863C28.1059 13.133 29.1966 12.3048 30.4783 12.3048V10.3048ZM32.3676 10.6815C31.7847 10.4385 31.1458 10.3048 30.4783 10.3048V12.3048C30.877 12.3048 31.2546 12.3843 31.5981 12.5275L32.3676 10.6815ZM34.3912 9C32.8889 9 31.6033 9.91774 31.06 11.2192L32.9057 11.9897C33.149 11.4067 33.7238 11 34.3912 11V9ZM37.9999 12.6087C37.9999 10.6157 36.3843 9 34.3912 9V11C35.2797 11 35.9999 11.7202 35.9999 12.6087H37.9999Z" fill="#00DCE6" mask="url(#path-8-inside-3)"/>
<path d="M31 19.5C31 21.433 29.433 23 27.5 23" stroke="#00DCE6"/>
<mask id="path-11-inside-4" fill="white">
<path fill-rule="evenodd" clip-rule="evenodd" d="M51 24.087C51 25.2396 50.0657 26.1739 48.9131 26.1739H48.9131V26.1742C48.9131 27.1514 48.4653 28.024 47.7638 28.5981C47.8331 28.9094 47.8696 29.2331 47.8696 29.5653C47.8696 32.0146 45.8841 34.0001 43.4348 34.0001C40.9855 34.0001 39 32.0146 39 29.5653C39 27.3262 40.6594 25.4746 42.8156 25.1734C43.233 23.9353 44.4037 23.0438 45.7826 23.0438C46.2092 23.0438 46.6158 23.1291 46.9864 23.2836C47.301 22.5298 48.0452 22 48.9131 22C50.0657 22 51 22.9344 51 24.087Z"/>
</mask>
<path d="M48.9131 26.1739V25.1739H47.9131V26.1739H48.9131ZM47.7638 28.5981L47.1305 27.8242L46.654 28.2141L46.7877 28.8152L47.7638 28.5981ZM42.8156 25.1734L42.9539 26.1638L43.5658 26.0783L43.7631 25.4929L42.8156 25.1734ZM46.9864 23.2836L46.6016 24.2066L47.5241 24.5912L47.9092 23.6688L46.9864 23.2836ZM48.9131 27.1739C50.618 27.1739 52 25.7918 52 24.087H50C50 24.6873 49.5134 25.1739 48.9131 25.1739V27.1739ZM48.9131 27.1739H48.9131V25.1739H48.9131V27.1739ZM49.9131 26.1742V26.1739H47.9131V26.1742H49.9131ZM48.3971 29.372C49.3208 28.6161 49.9131 27.4639 49.9131 26.1742H47.9131C47.9131 26.8388 47.6099 27.4319 47.1305 27.8242L48.3971 29.372ZM46.7877 28.8152C46.8412 29.0557 46.8696 29.3066 46.8696 29.5653H48.8696C48.8696 29.1596 48.825 28.7631 48.74 28.3809L46.7877 28.8152ZM46.8696 29.5653C46.8696 31.4623 45.3318 33.0001 43.4348 33.0001V35.0001C46.4364 35.0001 48.8696 32.5668 48.8696 29.5653H46.8696ZM43.4348 33.0001C41.5378 33.0001 40 31.4623 40 29.5653H38C38 32.5668 40.4332 35.0001 43.4348 35.0001V33.0001ZM40 29.5653C40 27.8319 41.2849 26.3969 42.9539 26.1638L42.6772 24.183C40.0339 24.5523 38 26.8204 38 29.5653H40ZM45.7826 22.0438C43.9617 22.0438 42.4184 23.2214 41.868 24.8539L43.7631 25.4929C44.0477 24.6491 44.8457 24.0438 45.7826 24.0438V22.0438ZM47.3712 22.3606C46.8808 22.1561 46.3436 22.0438 45.7826 22.0438V24.0438C46.0747 24.0438 46.3507 24.102 46.6016 24.2066L47.3712 22.3606ZM48.9131 21C47.6278 21 46.5282 21.7853 46.0635 22.8983L47.9092 23.6688C48.0739 23.2743 48.4626 23 48.9131 23V21ZM52 24.087C52 22.3821 50.618 21 48.9131 21V23C49.5134 23 50 23.4867 50 24.087H52Z" fill="#00DCE6" mask="url(#path-11-inside-4)"/>
</svg>
