<svg width="70" height="70" viewBox="0 0 70 70" fill="none" xmlns="http://www.w3.org/2000/svg">
<circle cx="35" cy="35" r="35" fill="#00DCE6" fill-opacity="0.1"/>
<path d="M17 30L19.9736 24.0222M32 30L28.9498 24.0222M19.9736 24.0222L24.4617 15L28.9498 24.0222M19.9736 24.0222H28.9498" stroke="#00DCE6"/>
<path d="M52 38.8232H36" stroke="#00DCE6"/>
<path d="M48.3544 42.5879C47.6599 44.7158 45.542 49.3644 42.6254 50.9357C38.9798 52.8999 37.4173 52.4089 36.3757 50.9357C35.3341 49.4626 36.3757 46.5163 40.5422 44.5521C44.8369 42.5274 52 43.57 52 48.4805C52 52.4089 47.3127 53.882 45.7503 53.882" stroke="#00DCE6"/>
<path d="M42.5879 36C42.5879 40.2353 42.5879 49.1765 42.5879 51.0588" stroke="#00DCE6"/>
<path d="M53 35.5C53 25.2827 44.7173 17 34.5 17M34.5 54C24.2827 54 16 45.7173 16 35.5" stroke="#00DCE6"/>
<path d="M50 32L53.5 36L57 32" stroke="#00DCE6"/>
<path d="M12 39L15.5 35L19 39" stroke="#00DCE6"/>
</svg>
