<svg width="70" height="70" viewBox="0 0 70 70" fill="none" xmlns="http://www.w3.org/2000/svg">
<circle cx="35" cy="35" r="35" fill="#00DCE6" fill-opacity="0.1"/>
<path d="M29 48C29.3508 47.6575 29.7016 47.1248 30.7931 47.1248C31.8846 47.1248 42.2534 47.1248 43.3448 47.1248C44.3583 47.1248 49.8156 41.7596 50.5172 40.9986C51.1799 40.2756 54.1814 35.8616 55 33.9971C54.4933 33.3122 53.09 32.7414 51.4138 33.1219C49.8156 33.4644 48.8801 34.6059 47.8276 36.6227L43.7346 38.6774" stroke="#00DCE6" stroke-miterlimit="10"/>
<path d="M33.8976 42C33.8976 42 40.3264 42 41.2448 42C44.9184 42 44.9184 37.7143 41.2448 37.7143C40.3264 37.7143 38.9288 37.7143 36.3733 37.7143C35.6146 37.7143 34.1771 36 32.9392 36C32.3802 36 29.5851 36 28.3472 36C27.1094 36 25.5521 36.9317 24.6736 37.7143C23.276 39.0186 21 41.1429 21 41.1429" stroke="#00DCE6" stroke-miterlimit="10"/>
<path d="M19.5551 39.0681L15 43.6309L25.9265 54.5759L30.4816 50.0131L19.5551 39.0681Z" stroke="#00DCE6" stroke-miterlimit="10"/>
<path d="M35.1078 17.5447L35.5 18.0404L35.8922 17.5447C36.8779 16.2985 38.4048 15.5 40.12 15.5C43.0928 15.5 45.5 17.9014 45.5 20.8605C45.5 21.9571 44.9188 23.2375 43.953 24.5852C42.9968 25.9194 41.712 27.2535 40.4121 28.4454C39.1146 29.6352 37.815 30.6715 36.8387 31.411C36.351 31.7805 35.9448 32.0752 35.6612 32.2771C35.5987 32.3216 35.5422 32.3615 35.4921 32.3968C35.4434 32.3644 35.3887 32.3278 35.3285 32.2871C35.0454 32.096 34.6398 31.8163 34.1527 31.4635C33.1775 30.7573 31.8796 29.761 30.5839 28.5987C29.2858 27.4343 28.0033 26.1152 27.049 24.7645C26.0881 23.4046 25.5 22.0689 25.5 20.8605C25.5 17.9014 27.9071 15.5 30.88 15.5C32.5952 15.5 34.1221 16.2985 35.1078 17.5447Z" stroke="#00DCE6"/>
</svg>
