<svg width="200" height="200" viewBox="0 0 200 200" fill="none" xmlns="http://www.w3.org/2000/svg">
<path fill-rule="evenodd" clip-rule="evenodd" d="M30.5557 0H200V169.444C178.77 188.446 150.734 200 120 200C53.7258 200 0 146.274 0 80C0 49.2658 11.5541 21.2303 30.5557 0Z" fill="#00DCE6" fill-opacity="0.1"/>
<path d="M118.619 135.491H121.319C127.368 135.491 123.588 138.192 132.012 138.192C133.741 138.192 156.099 138.192 156.099 138.192" stroke="#00DCE6" stroke-width="4" stroke-miterlimit="10"/>
<path d="M172.193 98.0115H164.2C161.284 98.0115 158.799 100.388 158.799 103.412C158.799 106.328 161.176 108.813 164.2 108.813H172.193C175.109 108.813 177.593 106.436 177.593 103.412C177.485 100.496 175.109 98.0115 172.193 98.0115Z" stroke="#00DCE6" stroke-width="4" stroke-miterlimit="10"/>
<path d="M177.485 119.506V124.907C177.485 127.823 175.109 130.307 172.085 130.307H164.092C161.176 130.307 158.691 127.931 158.691 124.907C158.691 121.99 161.068 119.506 164.092 119.506H166.792" stroke="#00DCE6" stroke-width="4" stroke-miterlimit="10"/>
<path d="M172.193 130.198V135.599C172.193 138.515 169.817 141 166.792 141H161.392C158.475 141 155.991 138.623 155.991 135.599C155.991 132.683 158.367 130.198 161.392 130.198H164.092" stroke="#00DCE6" stroke-width="4" stroke-miterlimit="10"/>
<path d="M118.619 92.7196H102.526V138.192H118.619V92.7196Z" stroke="#00DCE6" stroke-width="4" stroke-miterlimit="10"/>
<path d="M164.092 108.813H166.792C163.876 108.813 161.392 111.189 161.392 114.213C161.392 117.129 163.768 119.614 166.792 119.614H174.785C177.701 119.614 180.185 117.237 180.185 114.213C180.185 111.297 177.809 108.813 174.785 108.813H172.085" stroke="#00DCE6" stroke-width="4" stroke-miterlimit="10"/>
<path d="M135.469 120.586C144.434 117.238 148.106 109.677 150.698 100.712C150.698 100.712 150.698 93.9074 150.698 92.7193C150.698 91.3152 151.995 88.8309 151.995 82.6743C151.995 76.5177 150.482 74.1415 147.89 70.7931C145.19 67.3368 140.005 67.9848 140.005 71.3332V73.9254C140.005 81.3782 137.305 86.7787 132.337 92.3953L123.912 98.0119H118.511" stroke="#00DCE6" stroke-width="4" stroke-miterlimit="10"/>
<path d="M97.3862 47.7865H150.267" stroke="#00DCE6" stroke-width="2" stroke-miterlimit="10"/>
<path d="M97.3862 58.48H150.267" stroke="#00DCE6" stroke-width="2" stroke-miterlimit="10"/>
<path d="M97.3862 69.1724H128.772" stroke="#00DCE6" stroke-width="2" stroke-miterlimit="10"/>
<path d="M96.6931 138.732H76V21H158.259L171.653 34.3933V93.2592" stroke="#00DCE6" stroke-width="2" stroke-miterlimit="10"/>
<path d="M155.559 26.4005V37.0936H166.252" stroke="#00DCE6" stroke-width="2" stroke-miterlimit="10"/>
</svg>
