<svg width="200" height="200" viewBox="0 0 200 200" fill="none" xmlns="http://www.w3.org/2000/svg">
<path fill-rule="evenodd" clip-rule="evenodd" d="M30.5557 0H200V169.444C178.77 188.446 150.734 200 120 200C53.7258 200 0 146.274 0 80C0 49.2658 11.5541 21.2303 30.5557 0Z" fill="#00DCE6" fill-opacity="0.1"/>
<path d="M109.837 67.6569L150.088 43.8286L145.902 36.7446L147.941 35.4565L179.39 39.2133L167.905 68.5156L165.544 69.9109L161.251 62.8268L109.193 93.6319" stroke="#00DCE6" stroke-width="4" stroke-miterlimit="10"/>
<path d="M77.5298 44.2576L105.115 27.8354L101.143 21.1807L103.075 20L132.485 23.542L121.752 50.805L119.498 52.2004L115.634 45.5456L81.3938 65.9392" stroke="#00DCE6" stroke-width="2" stroke-miterlimit="10"/>
<path d="M115.633 108.873L152.664 86.9763L148.692 80.3216L150.732 79.1409L180.034 82.6829L169.301 110.053L167.154 111.341L163.182 104.686L119.497 130.554" stroke="#00DCE6" stroke-width="2" stroke-miterlimit="10"/>
<path d="M73.9877 46.4039L69.0503 49.302" stroke="#00DCE6" stroke-width="2" stroke-miterlimit="10"/>
<path d="M116.814 132.701L111.984 135.492" stroke="#00DCE6" stroke-width="2" stroke-miterlimit="10"/>
<path d="M105.115 70.5542L97.9233 74.7402" stroke="#00DCE6" stroke-width="4" stroke-miterlimit="10"/>
<path d="M76.8854 68.6223L61.4292 77.8531" stroke="#00DCE6" stroke-width="2" stroke-miterlimit="10" stroke-dasharray="6 6"/>
<path d="M104.47 96.5293L97.3862 100.715" stroke="#00DCE6" stroke-width="4" stroke-miterlimit="10"/>
<path d="M92.6636 103.506L85.4722 107.692" stroke="#00DCE6" stroke-width="4" stroke-miterlimit="10"/>
<path d="M80.7496 110.483L73.6655 114.776" stroke="#00DCE6" stroke-width="4" stroke-miterlimit="10"/>
<path d="M111.233 111.556L61 140" stroke="#00DCE6" stroke-width="2" stroke-miterlimit="10" stroke-dasharray="6 6"/>
</svg>
