<svg width="200" height="200" viewBox="0 0 200 200" fill="none" xmlns="http://www.w3.org/2000/svg">
<path fill-rule="evenodd" clip-rule="evenodd" d="M30.5557 0H200V169.444C178.77 188.446 150.734 200 120 200C53.7258 200 0 146.274 0 80C0 49.2658 11.5541 21.2303 30.5557 0Z" fill="#00DCE6" fill-opacity="0.1"/>
<path d="M102.978 62.5503L97.1092 56.6813L75.6245 78.166L78.559 81.1005C79.083 82.8821 80.2359 84.6638 81.4935 86.1311" stroke="#00DCE6" stroke-width="4" stroke-miterlimit="10"/>
<path d="M108.638 113.485L113.563 118.411C118.594 123.441 123.31 119.773 125.721 115.581C130.332 117.992 135.467 115.372 137.354 111.703C143.223 114.638 148.358 108.559 147.939 105.52C154.227 105.101 158.943 98.4982 154.646 92.734" stroke="#00DCE6" stroke-width="4" stroke-miterlimit="10"/>
<path d="M146.053 56.5764C146.053 56.5764 142.804 59.4061 141.022 59.7205C138.612 60.0349 128.026 55.1092 125.93 54.5851C123.834 54.0611 102.454 60.8734 100.882 63.3886C99.3102 66.0087 105.598 71.9825 111.677 71.2489C117.756 70.5153 126.769 67.2664 129.389 69.8865C133.686 74.1834 146.053 87.179 151.922 92.3144C156.847 96.6113 166.175 81.4148 168.271 79.1092L146.053 56.5764Z" stroke="#00DCE6" stroke-width="2" stroke-miterlimit="10"/>
<path d="M125.72 115.58L116.603 106.567" stroke="#00DCE6" stroke-width="4" stroke-miterlimit="10"/>
<path d="M137.353 111.807L124.043 98.4969" stroke="#00DCE6" stroke-width="4" stroke-miterlimit="10"/>
<path d="M147.834 105.624L132.323 90.0083" stroke="#00DCE6" stroke-width="4" stroke-miterlimit="10"/>
<path d="M152.806 44.0581L143.023 53.8402L170.369 81.1855L180.151 71.4035L152.806 44.0581Z" stroke="#00DCE6" stroke-width="2" stroke-miterlimit="10"/>
<path d="M90.3463 43.9673L63.001 71.3126L72.783 81.0947L100.128 53.7494L90.3463 43.9673Z" stroke="#00DCE6" stroke-width="4" stroke-miterlimit="10"/>
<path d="M107.485 140C105.389 139.476 103.293 138.952 101.301 138.218L102.035 136.122C103.921 136.751 105.913 137.38 108.009 137.799L107.485 140ZM97.8428 136.961C95.8515 136.122 93.9651 135.179 92.0786 134.236L93.1266 132.349C94.9083 133.293 96.7948 134.236 98.6812 134.97L97.8428 136.961ZM88.8297 132.245C87.048 131.092 85.2664 129.834 83.5895 128.577L84.952 126.9C86.524 128.157 88.3057 129.31 89.9825 130.463L88.8297 132.245ZM80.7598 126.166C79.1878 124.699 77.6157 123.232 76.2533 121.66L77.8253 120.192C79.1878 121.66 80.655 123.127 82.2271 124.489L80.7598 126.166ZM73.738 118.83C72.3755 117.153 71.1179 115.476 69.9651 113.59L71.8515 112.437C73.0044 114.114 74.1572 115.895 75.4148 117.467L73.738 118.83ZM68.0786 110.446C67.0306 108.559 66.0873 106.673 65.2489 104.681L67.2402 103.843C68.0786 105.729 68.917 107.616 69.9651 109.398L68.0786 110.446ZM63.8865 101.223C63.1528 99.2316 62.524 97.1355 62 95.1443L64.0961 94.6202C64.6201 96.6115 65.1441 98.6028 65.8777 100.489L63.8865 101.223Z" fill="#00DCE6"/>
<path d="M134.838 140L134.314 137.904C136.306 137.485 138.297 136.856 140.288 136.227L141.022 138.323C138.926 138.952 136.935 139.581 134.838 140ZM144.48 136.961L143.642 134.97C145.528 134.131 147.415 133.293 149.197 132.349L150.245 134.236C148.358 135.179 146.472 136.122 144.48 136.961ZM153.493 132.245L152.341 130.358C154.122 129.31 155.799 128.053 157.371 126.795L158.734 128.472C157.057 129.939 155.275 131.092 153.493 132.245ZM161.563 126.166L160.096 124.489C161.668 123.127 163.135 121.66 164.498 120.192L166.07 121.66C164.707 123.232 163.135 124.804 161.563 126.166ZM168.585 118.83L166.908 117.467C168.166 115.895 169.424 114.218 170.472 112.437L172.358 113.59C171.1 115.476 169.843 117.153 168.585 118.83ZM174.245 110.446L172.358 109.398C173.406 107.616 174.245 105.729 175.083 103.843L177.074 104.681C176.236 106.673 175.188 108.664 174.245 110.446ZM178.437 101.223L176.341 100.489C177.074 98.6028 177.598 96.6115 178.122 94.6202L180.218 95.1443C179.694 97.2403 179.066 99.2316 178.437 101.223Z" fill="#00DCE6"/>
<path d="M163.974 40.7511C162.611 39.2838 161.039 37.8166 159.572 36.4541L161.039 34.7773C162.611 36.1397 164.183 37.7118 165.651 39.179L163.974 40.7511ZM79.7117 39.3886L78.1396 37.8166C79.6069 36.3493 81.2838 34.8821 82.8558 33.5196L84.2183 35.1965C82.6462 36.559 81.1789 37.9214 79.7117 39.3886ZM156.742 34.2533C155.065 32.9956 153.389 31.8428 151.607 30.7948L152.76 28.9083C154.541 30.0611 156.323 31.214 158 32.5764L156.742 34.2533ZM87.1527 32.9956L85.8951 31.214C87.6768 29.9563 89.4584 28.8035 91.3449 27.7555L92.3929 29.6419C90.6113 30.69 88.8296 31.8428 87.1527 32.9956ZM148.568 28.9083C146.786 27.9651 144.899 27.1266 143.013 26.2882L143.851 24.2969C145.843 25.1354 147.834 25.9738 149.616 27.0218L148.568 28.9083ZM95.537 28.0699L94.5938 26.0786C96.4803 25.1354 98.4715 24.2969 100.463 23.5633L101.196 25.6594C99.31 26.393 97.4235 27.1266 95.537 28.0699ZM139.554 25.1354C137.878 24.6114 136.096 24.0873 134.314 23.6681L133.581 23.5633L134 21.4672L134.734 21.6769C136.62 22.0961 138.402 22.6201 140.183 23.2489L139.554 25.1354ZM104.655 24.5066L104.026 22.4105C106.017 21.7817 108.113 21.2576 110.21 20.9432L110.629 23.1441C108.637 23.4585 106.646 23.9825 104.655 24.5066ZM130.122 22.8297C128.131 22.5153 126.035 22.3057 123.939 22.2009L124.044 20C126.14 20.1048 128.341 20.3144 130.437 20.6288L130.122 22.8297ZM114.192 22.5153L113.982 20.3144C116.079 20.1048 118.175 20 120.375 20V22.2009C118.279 22.2009 116.183 22.3057 114.192 22.5153Z" fill="#00DCE6"/>
<path d="M81.5983 98.4974L78.035 94.9341C76.0437 92.9428 76.0437 89.7987 78.035 87.9122L81.5983 84.3489C83.5895 82.3577 86.7336 82.3577 88.6201 84.3489C90.6114 86.3402 90.6114 89.4843 88.6201 91.3707L86.8384 93.2572" stroke="#00DCE6" stroke-width="2" stroke-miterlimit="10"/>
<path d="M85.0569 109.083L81.5984 105.519C79.6072 103.528 79.6072 100.384 81.5984 98.4974L86.8386 93.2572C88.8299 91.266 91.974 91.266 93.8604 93.2572C95.8517 95.2485 95.8517 98.3926 93.8604 100.279L92.0788 102.061" stroke="#00DCE6" stroke-width="2" stroke-miterlimit="10"/>
<path d="M100.882 107.301L99.1007 109.083C101.092 107.092 101.092 103.948 99.1007 102.061C97.1094 100.07 93.9653 100.07 92.0788 102.061L86.8387 107.301C84.8474 109.293 84.8474 112.437 86.8387 114.323C88.8299 116.314 91.974 116.314 93.8605 114.323L95.6422 112.541" stroke="#00DCE6" stroke-width="2" stroke-miterlimit="10"/>
<path d="M102.664 119.563L107.904 114.323C109.895 112.332 109.895 109.188 107.904 107.301C105.913 105.31 102.769 105.31 100.882 107.301L95.6419 112.541C93.6506 114.533 93.6506 117.677 95.6419 119.563C97.5283 121.555 100.672 121.555 102.664 119.563Z" stroke="#00DCE6" stroke-width="2" stroke-miterlimit="10"/>
</svg>
