<svg width="200" height="200" viewBox="0 0 200 200" fill="none" xmlns="http://www.w3.org/2000/svg">
<path fill-rule="evenodd" clip-rule="evenodd" d="M30.5557 0H200V169.444C178.77 188.446 150.734 200 120 200C53.7258 200 0 146.274 0 80C0 49.2658 11.5541 21.2303 30.5557 0Z" fill="#00DCE6" fill-opacity="0.1"/>
<path d="M143.986 136.098L143.011 133.821C145.287 132.846 147.564 131.653 149.623 130.352L150.924 132.52C148.756 133.821 146.371 135.014 143.986 136.098ZM94.7724 135.989C92.3875 134.905 90.1111 133.713 87.8347 132.304L89.1355 130.135C91.3035 131.436 93.4715 132.629 95.748 133.604L94.7724 135.989ZM154.827 129.919L153.309 127.859C155.369 126.45 157.32 124.824 159.163 123.089L160.897 124.932C158.946 126.775 156.886 128.509 154.827 129.919ZM84.149 129.702C82.0894 128.184 80.0298 126.45 78.0786 124.715L79.813 122.873C81.6558 124.607 83.607 126.233 85.5583 127.642L84.149 129.702ZM164.041 121.789L162.198 120.054C163.932 118.211 165.45 116.26 166.967 114.201L169.027 115.718C167.509 117.886 165.883 119.837 164.041 121.789ZM74.8266 121.463C73.0921 119.512 71.4661 117.453 69.9485 115.393L72.0081 113.984C73.4173 116.043 75.0434 117.995 76.6694 119.837L74.8266 121.463ZM171.52 111.924L169.352 110.623C170.653 108.455 171.846 106.287 172.821 104.011L175.098 104.986C174.122 107.371 172.821 109.648 171.52 111.924ZM67.4553 111.599C66.1545 109.322 64.9621 107.046 63.878 104.661L66.2629 103.686C67.2385 105.962 68.4309 108.238 69.6233 110.407L67.4553 111.599ZM176.832 100.759L174.447 99.8916C175.314 97.5068 175.965 95.1219 176.507 92.6287L179 93.1707C178.35 95.7724 177.699 98.2656 176.832 100.759ZM62.252 100.325C61.3848 97.832 60.7344 95.3388 60.1924 92.7371L62.6856 92.1951C63.2276 94.6883 63.878 97.0732 64.6369 99.458L62.252 100.325ZM179.65 88.6179L177.157 88.2927C177.482 85.7995 177.699 83.3062 177.699 80.813H180.192C180.192 83.4146 179.976 86.1247 179.65 88.6179ZM59.4336 88.2927C59.2168 86.4499 59 84.607 59 82.7642C59 82.0054 59 81.355 59 80.5962L61.4932 80.4878V80.5962C61.4932 81.2466 61.4932 81.897 61.4932 82.6558C61.6016 84.3902 61.71 86.2331 61.9268 87.9675L59.4336 88.2927ZM177.482 76.477C177.266 73.9837 176.94 71.4905 176.507 68.9973L179 68.4553C179.542 70.9485 179.867 73.6585 180.084 76.2602L177.482 76.477ZM61.71 76.0434L59.2168 75.8266C59.4336 73.2249 59.7588 70.6233 60.3008 68.1301L62.794 68.6721C62.252 71.0569 61.9268 73.6585 61.71 76.0434ZM175.531 64.7696C174.881 62.3848 174.014 60 173.038 57.7236L175.423 56.748C176.398 59.1328 177.374 61.626 178.024 64.1192L175.531 64.7696ZM63.7696 64.4444L61.2764 63.6856C62.0352 61.1924 62.9024 58.6992 63.9864 56.3144L66.2629 57.29C65.3957 59.6748 64.5285 62.0596 63.7696 64.4444ZM171.087 53.7127C169.894 51.5447 168.593 49.3767 167.184 47.3171L169.244 45.9079C170.762 48.0759 172.062 50.2439 173.255 52.6287L171.087 53.7127ZM68.2141 53.3875L65.9377 52.1951C67.1301 49.9187 68.5393 47.6423 70.0569 45.5827L72.1165 47.1003C70.7073 49.0515 69.4065 51.2195 68.2141 53.3875ZM164.583 43.8482C162.957 41.897 161.331 40.0542 159.488 38.3198L161.222 36.477C163.065 38.3198 164.908 40.1626 166.534 42.2222L164.583 43.8482ZM74.8266 43.523L72.8753 41.897C74.5014 39.9458 76.3442 37.9946 78.2954 36.1518L80.0298 37.9946C78.187 39.8374 76.4526 41.6802 74.8266 43.523ZM156.127 35.5014C154.176 33.9837 152.117 32.4661 150.057 31.1653L151.358 28.9973C153.526 30.4065 155.694 31.9241 157.753 33.5501L156.127 35.5014ZM83.2818 35.2846L81.6558 33.3333C83.7154 31.7073 85.8835 30.1897 88.0515 28.8889L89.3523 31.0569C87.2927 32.2493 85.2331 33.6585 83.2818 35.2846ZM146.263 28.9973C144.095 27.8049 141.71 26.8293 139.434 25.9621L140.301 23.5772C142.794 24.4444 145.179 25.5285 147.455 26.7209L146.263 28.9973ZM93.2547 28.7805L92.0623 26.5041C94.4472 25.4201 96.832 24.336 99.3252 23.4688L100.192 25.8537C97.8076 26.7209 95.5312 27.6965 93.2547 28.7805ZM135.206 24.6612C132.821 24.0108 130.328 23.4688 127.835 23.1436L128.268 20.542C130.87 20.8672 133.472 21.4092 135.965 22.168L135.206 24.6612ZM104.312 24.5528L103.661 22.0596C106.154 21.4092 108.756 20.8672 111.358 20.542L111.683 23.0352C109.19 23.3604 106.696 23.9024 104.312 24.5528ZM123.499 22.6016C122.198 22.4932 120.897 22.4932 119.596 22.4932C118.946 22.4932 118.187 22.4932 117.537 22.4932C116.995 22.4932 116.453 22.4932 116.019 22.6016L115.911 20.1084C116.453 20.1084 116.995 20 117.537 20C118.295 20 118.946 20 119.705 20C121.005 20 122.415 20 123.715 20.1084L123.499 22.6016Z" fill="#00DCE6"/>
<path d="M131.954 91.9787C129.677 94.1468 126.317 95.3392 121.873 95.6644V102.385H118.187V95.7728C115.368 95.6644 112.658 95.1224 110.057 94.1468C107.455 93.2796 105.504 92.0871 103.986 90.6779L106.154 86.1251C107.564 87.4259 109.298 88.5099 111.466 89.2687C113.634 90.1359 115.802 90.5695 118.187 90.7863V77.2362C115.477 76.5858 113.2 75.827 111.358 75.0682C109.515 74.3094 107.997 73.117 106.805 71.5993C105.612 70.0817 104.962 68.1305 104.962 65.6373C104.962 62.6021 106.046 60.0004 108.322 57.8324C110.599 55.6644 113.851 54.472 118.187 54.1468V47.5343H121.873V54.1468C124.041 54.2552 126.209 54.5804 128.377 55.2308C130.436 55.8812 132.279 56.64 133.797 57.724L131.737 62.2768C128.593 60.3256 125.233 59.2416 121.764 59.0248V72.6834C124.583 73.3338 126.967 74.0926 128.81 74.8514C130.653 75.6102 132.171 76.6942 133.471 78.2118C134.772 79.7294 135.423 81.6806 135.423 84.1739C135.423 87.3175 134.23 89.9191 131.954 91.9787ZM112.55 69.3229C113.851 70.2985 115.694 71.0573 118.078 71.7077V59.1332C115.585 59.4584 113.742 60.2172 112.442 61.3012C111.249 62.4937 110.599 63.7945 110.599 65.5289C110.599 67.1549 111.249 68.4557 112.55 69.3229ZM127.726 88.7267C129.027 87.6427 129.677 86.2335 129.677 84.4991C129.677 82.7647 129.027 81.4638 127.618 80.5966C126.317 79.7294 124.366 78.8622 121.764 78.2118V90.7863C124.474 90.4611 126.425 89.8107 127.726 88.7267Z" fill="#00DCE6" stroke="#00DCE6" stroke-width="0.5856" stroke-miterlimit="10"/>
<path d="M151.575 31.165V91.1108H168.702L119.596 140L70.4907 91.1108H87.6181V31.165" stroke="#00DCE6" stroke-width="2.3422" stroke-miterlimit="10"/>
</svg>
