<svg width="130" height="130" viewBox="0 0 130 130" fill="none" xmlns="http://www.w3.org/2000/svg">
<path fill-rule="evenodd" clip-rule="evenodd" d="M19.591 0H130V109.896C116.168 122.391 97.8376 130 77.7297 130C36.8539 130 3.32186 98.5577 0 58.5397V45.4603C1.44451 28.0585 8.60158 12.2783 19.591 0Z" fill="#00DCE6" fill-opacity="0.1"/>
<path d="M40.2881 38.6505V21.3612L54.6766 10.3569L69.0651 21.3612V38.6447L54.6766 49.7699L40.2881 38.6505Z" stroke="#00DCE6"/>
<path d="M54.6758 32.1929V49.9252" stroke="#00DCE6"/>
<path d="M40.3623 21.4072L54.676 32.1928L68.9896 21.4072" stroke="#00DCE6"/>
<path d="M90.9355 38.6505V21.3612L105.324 10.3569L119.713 21.3612V38.6447L105.324 49.7699L90.9355 38.6505Z" stroke="#00DCE6"/>
<path d="M105.324 32.1929V49.9252" stroke="#00DCE6"/>
<path d="M91.0098 21.4072L105.323 32.1928L119.637 21.4072" stroke="#00DCE6"/>
<path d="M65.6113 78.3625V61.0733L79.9998 50.0747L94.3883 61.0733V78.3567L79.9998 89.4819L65.6113 78.3625Z" stroke="#00DCE6"/>
<path d="M80 71.9053V89.6376" stroke="#00DCE6"/>
<path d="M65.6865 61.1191L80.0002 71.9048L94.3139 61.1191" stroke="#00DCE6"/>
<path d="M46.6184 43.5942L40.5752 48.4863L65.3234 67.7669L65.6112 68.0029" stroke="#00DCE6"/>
<path d="M113.238 43.6519L119.425 48.4864L94.3887 68.4576" stroke="#00DCE6"/>
<path d="M69.0645 27.4793L79.4242 19.7095L90.935 28.3426" stroke="#00DCE6"/>
</svg>
