<svg width="130" height="130" viewBox="0 0 130 130" fill="none" xmlns="http://www.w3.org/2000/svg">
<path fill-rule="evenodd" clip-rule="evenodd" d="M19.8612 0H130V110.139C116.2 122.49 97.9772 130 78 130C34.9218 130 0 95.0782 0 52C0 32.0228 7.51019 13.7997 19.8612 0Z" fill="#00DCE6" fill-opacity="0.1"/>
<path d="M59.396 74.3545H48.1436V85.5938" stroke="#00DCE6"/>
<path d="M115.803 34.0127C118.111 39.0881 119.33 44.5438 119.344 49.9996C119.37 60.0848 115.422 70.1832 107.698 77.9078C100.091 85.5143 90.0583 89.2389 79.9993 89.3439C69.0091 89.4488 60.9567 86.0914 53.7698 79.9799C52.4977 78.8914 48.1436 74.3537 48.1436 74.3537" stroke="#00DCE6"/>
<path d="M44.1964 65.9869C41.8882 60.9114 40.6685 55.4557 40.6554 50C40.6292 39.9147 44.5767 29.8164 52.3013 22.0918C59.9079 14.4852 69.9406 10.7606 79.9997 10.6557C90.9898 10.5508 99.0423 13.9082 106.229 20.0196C107.501 21.1082 111.855 25.6459 111.855 25.6459" stroke="#00DCE6"/>
<path d="M100.603 25.6456H111.855V14.4062" stroke="#00DCE6"/>
<path d="M88.3935 19.146C85.6847 18.4019 82.842 18 79.8951 18C62.288 18 48 32.2732 48 49.8951C48 56.1461 49.8009 61.9804 52.9115 66.9068" stroke="#00DCE6"/>
<path d="M71.3965 80.6446C74.1053 81.3887 76.948 81.7906 79.8949 81.7906C97.5019 81.7906 111.79 67.5174 111.79 49.8955C111.79 43.6445 109.989 37.7953 106.878 32.8838" stroke="#00DCE6"/>
<path d="M67.958 42.124H61.6872C60.7018 42.124 59.8955 42.9333 59.8955 43.9225V45.721C59.8955 46.7101 60.7018 47.5195 61.6872 47.5195H67.0622" stroke="#00DCE6" stroke-miterlimit="10"/>
<path d="M87.6663 42.124H73.333" stroke="#00DCE6" stroke-miterlimit="10"/>
<path d="M93.9368 47.5195H99.3118C100.297 47.5195 101.104 46.7101 101.104 45.721V43.9225C101.104 42.9333 100.297 42.124 99.3118 42.124H93.041" stroke="#00DCE6" stroke-miterlimit="10"/>
<path d="M78.708 63.7058H68.3253C67.0622 63.7058 65.9782 62.8246 65.7005 61.5926L62.583 47.5195" stroke="#00DCE6" stroke-miterlimit="10"/>
<path d="M98.4163 47.5195L97.5205 52.0157" stroke="#00DCE6" stroke-miterlimit="10"/>
<path d="M76.0205 50.2168V59.2092" stroke="#00DCE6" stroke-miterlimit="10"/>
<path d="M71.541 50.2168V59.2092" stroke="#00DCE6" stroke-miterlimit="10"/>
<path d="M75.125 31.333L69.75 44.8216" stroke="#00DCE6" stroke-miterlimit="10"/>
<path d="M85.875 31.333L91.25 44.8216" stroke="#00DCE6" stroke-miterlimit="10"/>
<path d="M89.4583 69.101C94.4059 69.101 98.4167 65.075 98.4167 60.1086C98.4167 55.1422 94.4059 51.1162 89.4583 51.1162C84.5108 51.1162 80.5 55.1422 80.5 60.1086C80.5 65.075 84.5108 69.101 89.4583 69.101Z" stroke="#00DCE6" stroke-miterlimit="10"/>
<path d="M89.458 55.6123V64.6047" stroke="#00DCE6" stroke-miterlimit="10"/>
<path d="M93.9368 60.1084H84.9785" stroke="#00DCE6" stroke-miterlimit="10"/>
</svg>
