<svg width="130" height="130" viewBox="0 0 130 130" fill="none" xmlns="http://www.w3.org/2000/svg">
<path fill-rule="evenodd" clip-rule="evenodd" d="M19.591 0H130V109.896C116.168 122.391 97.8376 130 77.7297 130C36.8539 130 3.32186 98.5577 0 58.5397V45.4603C1.44451 28.0585 8.60158 12.2783 19.591 0Z" fill="#00DCE6" fill-opacity="0.1"/>
<path d="M45.6572 53.3154L68.8637 63.3113L92.0703 53.3154" stroke="#00DCE6" stroke-miterlimit="10"/>
<path d="M56.8955 58.113L80.102 48.1172" stroke="#00DCE6" stroke-miterlimit="10"/>
<path d="M68.8637 43.3193L45.6572 53.3152V78.3048L68.8637 88.3339L92.0703 78.3048V53.3152L68.8637 43.3193Z" stroke="#00DCE6" stroke-miterlimit="10"/>
<path d="M68.8633 63.3115V88.3344" stroke="#00DCE6" stroke-miterlimit="10"/>
<path d="M67.2061 39.9875V11.666H118.592V69.9751H97.043" stroke="#00DCE6" stroke-miterlimit="10"/>
<path d="M88.7547 74.9727H85.4395" stroke="#00DCE6" stroke-miterlimit="10"/>
<path d="M83.782 76.6387H80.4668" stroke="#00DCE6" stroke-miterlimit="10"/>
<path d="M98.7012 54.9813L102.016 58.3133L108.647 49.9834" stroke="#00DCE6" stroke-miterlimit="10"/>
<path d="M98.7012 39.9872L102.016 43.3191L108.647 34.9893" stroke="#00DCE6" stroke-miterlimit="10"/>
<path d="M98.7012 24.994L102.016 28.326L108.647 19.9961" stroke="#00DCE6" stroke-miterlimit="10"/>
<path d="M78.8096 24.9941H90.4128" stroke="#00DCE6" stroke-miterlimit="10"/>
<path d="M78.8096 31.6572H85.44" stroke="#00DCE6" stroke-miterlimit="10"/>
<path d="M78.8096 38.3213H90.4128" stroke="#00DCE6" stroke-miterlimit="10"/>
</svg>
