<svg width="130" height="130" viewBox="0 0 130 130" fill="none" xmlns="http://www.w3.org/2000/svg">
<path fill-rule="evenodd" clip-rule="evenodd" d="M19.591 0H130V109.896C116.168 122.391 97.8376 130 77.7297 130C36.8539 130 3.32186 98.5577 0 58.5397V45.4603C1.44451 28.0585 8.60158 12.2783 19.591 0Z" fill="#00DCE6" fill-opacity="0.1"/>
<path d="M119.516 27.0381V14.5654H107.097" stroke="#00DCE6"/>
<path d="M119.516 74.4346V86.9073H107.097" stroke="#00DCE6"/>
<path d="M45 27.0381V14.5654H57.4194" stroke="#00DCE6"/>
<path d="M45 74.4346V86.9073H57.4194" stroke="#00DCE6"/>
<path d="M82.7709 20.334C80.2734 23.828 63.6414 31.0029 57.1074 31.0029C57.1074 42.6453 57.1074 46.3127 57.1074 56.3415C57.1074 68.2506 81.3264 81.2934 82.7574 81.6668C84.1884 81.28 108.407 67.3438 108.407 57.6751C108.407 47.6463 108.407 42.6453 108.407 31.0029C101.279 31.0029 85.2684 23.828 82.7709 20.334Z" stroke="#00DCE6" stroke-miterlimit="10"/>
<path d="M67 42.2969V59.9154L82.8354 70.0996L98.6709 59.9154V42.2969" stroke="#00DCE6" stroke-linejoin="round"/>
<path d="M67 42.2669L82.8354 31.9014L98.6709 42.2669L82.8354 52.4512L67 42.2669Z" stroke="#00DCE6" stroke-linejoin="round"/>
<path d="M98.6709 59.9453L82.8354 49.6704L67 59.9453" stroke="#00DCE6" stroke-linejoin="round"/>
<path d="M82.835 70.0996V52.4509" stroke="#00DCE6" stroke-linejoin="round"/>
<path d="M82.835 49.5498V31.9011" stroke="#00DCE6" stroke-linejoin="round"/>
<path d="M82.7731 16C79.9494 19.9878 61.1452 28.1766 53.7578 28.1766C53.7578 41.4642 53.7578 45.6499 53.7578 57.0959C53.7578 70.688 81.1399 85.5738 82.7578 86C84.3757 85.5586 111.758 69.653 111.758 58.618C111.758 47.172 111.758 41.4642 111.758 28.1766C103.699 28.1766 85.5968 19.9878 82.7731 16Z" stroke="#00DCE6" stroke-miterlimit="10"/>
</svg>
