<svg width="130" height="130" viewBox="0 0 130 130" fill="none" xmlns="http://www.w3.org/2000/svg">
<path fill-rule="evenodd" clip-rule="evenodd" d="M19.591 0H130V109.896C116.168 122.391 97.8376 130 77.7297 130C36.8539 130 3.32186 98.5577 0 58.5397V45.4603C1.44451 28.0585 8.60158 12.2783 19.591 0Z" fill="#00DCE6" fill-opacity="0.1"/>
<path d="M81.6367 10C103.711 10.8982 120.885 29.5154 120.001 51.603C119.96 52.542 119.878 53.4674 119.783 54.3928" stroke="#00DCE6" stroke-miterlimit="10"/>
<path d="M63.9452 13.334C50.3906 19.2948 40.6737 32.5636 40.0341 48.3638C39.7347 55.6446 41.4222 62.5444 44.5795 68.5733" stroke="#00DCE6" stroke-miterlimit="10"/>
<path d="M56.3242 82.2234C62.53 86.7961 70.1238 89.6267 78.4118 89.967C93.2048 90.5658 106.446 83.0399 113.836 71.377" stroke="#00DCE6" stroke-miterlimit="10"/>
<path d="M81.3828 19.2344C98.4256 19.9279 111.686 34.3018 111.003 51.3551C110.971 52.0801 110.908 52.7945 110.835 53.509" stroke="#00DCE6" stroke-miterlimit="10"/>
<path d="M67.7229 21.8086C57.2577 26.4108 49.7555 36.6553 49.2616 48.8543C49.0305 54.4756 50.3334 59.8028 52.7711 64.4575" stroke="#00DCE6" stroke-miterlimit="10"/>
<path d="M61.8389 74.9954C66.6302 78.5258 72.4932 80.7113 78.8921 80.974C90.3135 81.4363 100.537 75.6258 106.243 66.6211" stroke="#00DCE6" stroke-miterlimit="10"/>
<path d="M74.841 48.3194V40.75C74.841 38.1771 77.131 36.0905 79.7039 36.0905C82.2767 36.0905 84.5667 38.1859 84.5667 40.75V48.3194H89.8716V41.0152C89.8716 35.5158 85.2033 31.042 79.7039 31.042C74.2044 31.042 69.5361 35.5158 69.5361 41.0152V48.3194H74.841Z" stroke="#00DCE6" stroke-miterlimit="10"/>
<path d="M66 50.2908V66.2055C66 67.178 66.7957 67.9738 67.7683 67.9738H91.6404C92.6129 67.9738 93.4087 67.178 93.4087 66.2055V50.2908C93.4087 49.3182 92.6129 48.5225 91.6404 48.5225H67.7683C66.7957 48.5225 66 49.3182 66 50.2908Z" stroke="#00DCE6" stroke-miterlimit="10"/>
<path d="M69.5361 51.1738V61.7836" stroke="#00DCE6" stroke-miterlimit="10"/>
<path d="M81.9146 62.6676V58.6448C82.9667 58.0347 83.6829 56.903 83.6829 55.5944C83.6829 53.3664 81.6228 51.6158 79.2975 52.1551C78.042 52.4469 77.0253 53.4548 76.7158 54.7014C76.3091 56.3725 77.0871 57.8844 78.378 58.6359V62.6588C78.378 63.6314 79.1737 64.4271 80.1463 64.4271C81.1277 64.4359 81.9146 63.6402 81.9146 62.6676Z" stroke="#00DCE6" stroke-miterlimit="10"/>
</svg>
