<svg width="65" height="65" viewBox="0 0 65 65" fill="none" xmlns="http://www.w3.org/2000/svg">
<path d="M55.0694 0H0V55.0694C6.89983 61.2449 16.0114 65 26 65C47.5391 65 65 47.5391 65 26C65 16.0114 61.2449 6.89983 55.0694 0Z" fill="#00DCE6" fill-opacity="0.1"/>
<path d="M41.8562 31.491C41.8562 30.8782 41.8562 30.3165 41.8053 29.7037C41.0919 22.5035 35.0792 17.1417 27.9965 17.1927C27.5888 17.1927 27.1812 17.1927 26.7226 17.2438C26.5188 17.2438 26.315 17.2949 26.1621 17.2949" stroke="#00DCE6" stroke-miterlimit="10"/>
<path d="M14.3408 29.5C14.2389 30.4192 14.2389 31.3894 14.3408 32.4107C15.0033 39.5599 21.0159 44.9217 27.9968 44.9217" stroke="#00DCE6" stroke-miterlimit="10"/>
<path d="M42.9261 24.0345C41.0407 20.0514 37.6777 17.0385 33.6013 15.5576" stroke="#00DCE6" stroke-miterlimit="10"/>
<path d="M12.2517 35.4736C13.4237 39.7631 16.2772 43.2866 19.9969 45.3803" stroke="#00DCE6" stroke-miterlimit="10"/>
<path d="M14.9011 26.792C14.6463 27.6601 14.4425 28.5793 14.3406 29.4985" stroke="#00DCE6" stroke-miterlimit="10"/>
<path d="M28 45.2158V34.5741L36.9999 27.8008L45.9999 34.5741V45.2123L36.9999 52.0599L28 45.2158Z" stroke="#00DCE6"/>
<path d="M36.9998 41.3281V52.0236" stroke="#00DCE6"/>
<path d="M27.9998 34.6406L36.9997 41.483L45.9996 34.6406" stroke="#00DCE6"/>
<path d="M17.6499 14.0194C17.0999 17.7775 17.1999 21.3853 17.3499 25.1434M27.3999 23.2894H17.2499M15.4999 23.2894H6M7.89999 25.6946H9.29998M12.65 25.5944H14.05M11.2 28.1499H12.6M16.1499 28.7011H17.5499M20.1999 26.4462H21.5999M24.7999 27.9494H26.1999M17.0499 19.0803C13.25 20.3831 12.85 20.2328 11.15 17.4268C10.2 15.8233 8.94998 14.8212 8.94998 14.8212C11.3 14.0194 14.35 15.0216 15.9499 16.9257C16.1999 17.2263 16.7499 18.0281 17.0499 19.0803ZM17.4499 19.6816C18.4999 15.673 21.5499 14.3702 25.5499 15.4726C25.5499 15.4726 23.0499 18.5793 21.9999 19.5814C20.6999 20.8341 19.2499 20.7339 17.4499 19.6816ZM17.4499 14.2199C16.8999 14.0695 16.6499 13.4682 16.5999 13.368C15.9499 11.6644 16.0499 9.81036 17.2999 8.25702C19.3499 5.75162 20.4999 5 20.4999 5C20.4999 5 20.9499 8.45745 20.8999 9.76026C20.9499 11.4639 19.6999 12.7166 17.4499 14.2199Z" stroke="#00DCE6" stroke-miterlimit="22.9256"/>
</svg>
