<svg width="65" height="65" viewBox="0 0 65 65" fill="none" xmlns="http://www.w3.org/2000/svg">
<path d="M55.0694 0H0V55.0694C6.89983 61.2449 16.0114 65 26 65C47.5391 65 65 47.5391 65 26C65 16.0114 61.2449 6.89983 55.0694 0Z" fill="#00DCE6" fill-opacity="0.1"/>
<g clip-path="url(#clip0)">
<path d="M25.2633 19.9181C21.8438 19.9181 19.0718 17.152 19.0718 13.7398C19.0718 10.3276 21.8438 7.56152 25.2633 7.56152C28.6828 7.56152 31.4548 10.3276 31.4548 13.7398C31.4548 17.152 28.6828 19.9181 25.2633 19.9181Z" stroke="#00DCE6" stroke-miterlimit="10"/>
<path d="M25.2631 15.4247C24.3305 15.4247 23.5745 14.6703 23.5745 13.7397C23.5745 12.8091 24.3305 12.0547 25.2631 12.0547C26.1956 12.0547 26.9517 12.8091 26.9517 13.7397C26.9517 14.6703 26.1956 15.4247 25.2631 15.4247Z" stroke="#00DCE6" stroke-miterlimit="10"/>
<path d="M7.81421 15.9865C6.57076 15.9865 5.56274 14.9806 5.56274 13.7398C5.56274 12.499 6.57076 11.4932 7.81421 11.4932C9.05766 11.4932 10.0657 12.499 10.0657 13.7398C10.0657 14.9806 9.05766 15.9865 7.81421 15.9865Z" stroke="#00DCE6" stroke-miterlimit="10"/>
<path d="M20.7604 7.56152H25.2633C28.6968 7.56152 31.4548 10.3137 31.4548 13.7398C31.4548 17.166 28.6968 19.9181 25.2633 19.9181H20.7604C17.3269 19.9181 14.5688 17.166 14.5688 13.7398C14.5688 10.3137 17.3269 7.56152 20.7604 7.56152Z" stroke="#00DCE6" stroke-miterlimit="10"/>
<path d="M7.81445 11.4932H10.0659C11.3042 11.4932 12.3174 12.5042 12.3174 13.7398C12.3174 14.9755 11.3042 15.9865 10.0659 15.9865H7.81445C6.57615 15.9865 5.56299 14.9755 5.56299 13.7398C5.56299 12.5042 6.57615 11.4932 7.81445 11.4932Z" stroke="#00DCE6" stroke-miterlimit="10"/>
<path d="M14.5688 13.1787H12.3174" stroke="#00DCE6" stroke-miterlimit="10"/>
<path d="M20.7603 19.918H6.6886" stroke="#00DCE6" stroke-miterlimit="10"/>
<path d="M15.1316 23.2158H8.3772" stroke="#00DCE6" stroke-miterlimit="10"/>
<path d="M24.9819 23.2158H16.8204" stroke="#00DCE6" stroke-miterlimit="10"/>
</g>
<path d="M24.7002 19.917C26.7679 19.9169 29.2948 19.9172 32.0519 22.7629C34.809 25.6086 34.3493 29.8739 34.3493 30.5853M32.7411 28.9287L34.3493 30.5886L35.9575 28.9287" stroke="#00DCE6"/>
<path d="M5 21.7344C4.99991 23.802 5.00024 26.329 7.84594 29.0861C10.6916 31.8432 14.9569 31.3835 15.6683 31.3835M14.0117 29.7753L15.6716 31.3835L14.0117 32.9917" stroke="#00DCE6"/>
<path d="M47.2151 47.5007C48.8032 47.5007 50.0923 46.2129 50.0923 44.6307C50.0923 43.0486 48.8032 41.7607 47.2151 41.7607C45.6269 41.7607 44.3379 43.0486 44.3379 44.6307C44.3379 46.2129 45.6269 47.5007 47.2151 47.5007Z" stroke="#00DCE6"/>
<path d="M24.7002 47.5007C26.2883 47.5007 27.5774 46.2129 27.5774 44.6307C27.5774 43.0486 26.2883 41.7607 24.7002 41.7607C23.112 41.7607 21.823 43.0486 21.823 44.6307C21.823 46.2129 23.112 47.5007 24.7002 47.5007Z" stroke="#00DCE6"/>
<path d="M48.2508 29.0107H44.5629V34.2452H46.7084H46.8665L46.9959 34.3362L49.3431 35.9864H51.2932C51.0131 34.85 50.3118 33.2331 49.634 31.8076C49.2778 31.0584 48.9353 30.3765 48.6772 29.8657C48.6472 29.8065 48.6184 29.7495 48.5907 29.6947C48.4996 29.5146 48.4214 29.3602 48.3615 29.2396C48.3225 29.1612 48.2893 29.0933 48.2645 29.0401C48.2637 29.0385 48.263 29.0368 48.2621 29.035C48.259 29.0284 48.2551 29.0202 48.2508 29.0107Z" stroke="#00DCE6"/>
<path d="M32.5176 40.6377V44.6927H38.272V40.6377H32.5176Z" stroke="#00DCE6"/>
<path d="M18.4459 27.1582V38.5148H38.272V27.1582H18.4459Z" stroke="#00DCE6"/>
<path d="M32.5806 40.4189H17.946V45.1931H21.1169" stroke="#00DCE6"/>
<path d="M28.0776 44.9131H44.1193" stroke="#00DCE6"/>
<path d="M36.8022 40.4188H40.4609V28.9047L42.1495 27.2197H49.4667L50.5925 28.3431L53.6882 36.2063V44.9121H50.311" stroke="#00DCE6"/>
<defs>
<clipPath id="clip0">
<rect width="27.0176" height="17.9732" fill="white" transform="matrix(-1 0 0 1 32.0176 7)"/>
</clipPath>
</defs>
</svg>
