<svg width="65" height="65" viewBox="0 0 65 65" fill="none" xmlns="http://www.w3.org/2000/svg">
<path d="M55.0694 0H0V55.0694C6.89983 61.2449 16.0114 65 26 65C47.5391 65 65 47.5391 65 26C65 16.0114 61.2449 6.89983 55.0694 0Z" fill="#00DCE6" fill-opacity="0.1"/>
<g clip-path="url(#clip0)">
<path d="M35.7594 18.0982V10.239C35.7594 10.1545 30.7657 5.88691 30.2622 5.42212C30.0524 5.21085 29.8425 5.21085 29.6327 5.42212C29.1292 5.84466 24.1355 10.1123 24.1355 10.239V31.408H29.3809M30.3461 31.408C30.3461 28.2813 30.3461 25.1545 30.3461 21.9855L44.0262 15.394L57.7064 21.9855C57.7064 25.1123 57.7064 28.239 57.7064 31.408H30.3461Z" stroke="#00DCE6" stroke-miterlimit="22.9256"/>
<path fill-rule="evenodd" clip-rule="evenodd" d="M42.9771 27.7324H36.2209V31.4085H42.9771V27.7324Z" stroke="#00DCE6" stroke-miterlimit="22.9256"/>
<path fill-rule="evenodd" clip-rule="evenodd" d="M42.9771 24.0566H36.2209V27.7327H42.9771V24.0566Z" stroke="#00DCE6" stroke-miterlimit="22.9256"/>
<path fill-rule="evenodd" clip-rule="evenodd" d="M49.6912 27.7324H42.9771V31.4085H49.6912V27.7324Z" stroke="#00DCE6" stroke-miterlimit="22.9256"/>
<path fill-rule="evenodd" clip-rule="evenodd" d="M49.6912 24.0566H42.9771V27.7327H49.6912V24.0566Z" stroke="#00DCE6" stroke-miterlimit="22.9256"/>
<path fill-rule="evenodd" clip-rule="evenodd" d="M49.6912 20.3809H42.9771V24.0569H49.6912V20.3809Z" stroke="#00DCE6" stroke-miterlimit="22.9256"/>
<path d="M10.8329 29.9297C10.7489 30.4367 10.665 30.9438 10.707 31.2395C10.8329 32.2114 11.6302 33.0987 12.5953 33.3522C14.2319 33.648 14.9033 32.6339 15.4908 31.3241" stroke="#00DCE6" stroke-miterlimit="22.9256"/>
<path d="M17.0437 41.8176H22.6668L24.1355 36.4092" stroke="#00DCE6" stroke-miterlimit="22.9256"/>
<path d="M14.5679 42.832H25.8561" stroke="#00DCE6" stroke-miterlimit="22.9256"/>
<path d="M5.2937 39.0566L5.32313 46.5136C5.32313 47.4865 5.6463 48.1137 6.93898 48.1137L13.2668 48.156" stroke="#00DCE6" stroke-miterlimit="22.9256"/>
<path d="M14.6265 52.8314V46.9159C14.6265 46.6624 14.5006 46.5356 14.2069 46.5356H8.77667C7.43384 46.5356 6.97224 45.437 7.05617 44.2539C7.14009 42.606 7.14009 38.5075 7.9374 36.1835C8.90256 33.437 11.6302 33.6905 12.973 34.7046C13.8543 35.4229 14.7355 36.8596 15.4069 37.7891C15.4489 37.8314 15.5328 37.8736 15.6167 37.9159L20.1488 38.9722C20.5684 39.0567 20.7783 39.6483 20.8202 39.9863C20.8622 40.1553 20.8622 40.4511 20.7363 40.5779C20.5684 40.7891 20.3586 40.8736 20.1068 40.8736L15.323 40.7891C14.9873 40.7469 14.7355 40.6624 14.4837 40.4934L11.5463 38.3807" stroke="#00DCE6" stroke-miterlimit="22.9256"/>
<path d="M12.3436 39.2256L11.7561 42.7326L12.0079 43.1552L15.9105 43.9157C16.9596 44.127 17.1274 44.8453 17.0435 45.5214V52.6762" stroke="#00DCE6" stroke-miterlimit="22.9256"/>
<path d="M8.2312 28.5771L18.4703 31.6617" stroke="#00DCE6" stroke-miterlimit="22.9256"/>
<path d="M16.0365 30.9439C15.9945 30.2679 16.4561 28.0707 15.8267 27.6059C15.6588 27.4791 14.9035 27.2256 14.1481 27.0143C13.3928 26.8031 12.6374 26.5918 12.4276 26.5918C11.6723 26.6341 10.875 28.7045 10.4553 29.2538" stroke="#00DCE6" stroke-miterlimit="22.9256"/>
<path d="M20.6523 42.9458V52.704H44.0261V43.9152V31.4082" stroke="#00DCE6" stroke-miterlimit="22.9256" stroke-dasharray="2 2"/>
<path d="M29.0872 31.3662V43.7042H44.0262" stroke="#00DCE6" stroke-miterlimit="22.9256" stroke-dasharray="2 2"/>
</g>
<defs>
<clipPath id="clip0">
<rect width="53" height="48" fill="white" transform="translate(5 5)"/>
</clipPath>
</defs>
</svg>
