<svg width="65" height="65" viewBox="0 0 65 65" fill="none" xmlns="http://www.w3.org/2000/svg">
<path d="M55.0694 0H0V55.0694C6.89983 61.2449 16.0114 65 26 65C47.5391 65 65 47.5391 65 26C65 16.0114 61.2449 6.89983 55.0694 0Z" fill="#00DCE6" fill-opacity="0.1"/>
<path d="M48.8374 37.008H46.4261M40.2687 33.9061V27.7922C40.2687 27.7922 40.2256 26.6683 41.259 26.6683H42.1202M40.3117 32.6923L37.2976 32.1978L36.0489 24.4206H25.4563L24.3798 35.1648M22.6575 36.4236C24.0784 35.2098 25.93 34.4456 27.9107 34.4456C32.3027 34.4456 35.8766 37.997 36.135 42.5375H39.8811C40.8284 40.4246 42.8522 38.9411 45.2635 38.9411C46.6414 38.9411 47.8901 39.4356 48.8805 40.2448L48.8374 36.7832C48.8374 35.2997 47.115 33.4565 45.5649 33.3217L41.1298 32.8721M21.4949 41.0989H19.8156L19.0836 39.2557H11.5784L8.43507 42.3127M21.4949 43.3916H18.1363L17.4043 41.5485H12.6979M12.6979 41.5485L10.4588 43.8412M12.6979 41.5485H12.84M12.84 41.5485C12.797 44.4705 14.1318 48.1119 17.0598 48.7413C16.0695 46.6284 16.0264 43.7962 16.4139 41.5485H12.84ZM18.9544 17.9471C16.9737 14.036 16.9737 9.45055 18.9544 5.53946M22.5714 14.6204C21.7533 12.6424 21.7102 10.7992 22.5714 8.82118M20.7629 16.2837C19.3419 13.3167 19.3419 10.1249 20.7629 7.15784M34.8863 26.3536L35.7044 32.3327H29.59V26.3536H34.8863ZM27.9107 36.0639C31.6138 36.0639 34.5849 39.2108 34.5849 43.032C34.5849 46.8531 31.5707 50 27.9107 50C24.2076 50 21.2365 46.8531 21.2365 43.032C21.2365 39.2108 24.2076 36.0639 27.9107 36.0639ZM27.9107 40.1549C29.4178 40.1549 30.6665 41.4585 30.6665 43.032C30.6665 44.6054 29.4178 45.9091 27.9107 45.9091C26.4036 45.9091 25.1549 44.6054 25.1549 43.032C25.1549 41.4585 26.4036 40.1549 27.9107 40.1549ZM45.2635 40.1099C47.8901 40.1099 50 42.3127 50 45.0549C50 47.7972 47.8901 50 45.2635 50C42.6369 50 40.527 47.7972 40.527 45.0549C40.527 42.3127 42.6369 40.1099 45.2635 40.1099ZM45.2635 43.032C46.34 43.032 47.2012 43.9311 47.2012 45.0549C47.2012 46.1788 46.34 47.0779 45.2635 47.0779C44.187 47.0779 43.3258 46.1788 43.3258 45.0549C43.3258 43.9311 44.187 43.032 45.2635 43.032ZM7.44472 42.0431C9.33932 42.0431 10.8894 43.6615 10.8894 45.6395C10.8894 47.6176 9.33932 49.2359 7.44472 49.2359C5.55013 49.2359 4 47.6176 4 45.6395C4 43.6615 5.55013 42.0431 7.44472 42.0431ZM7.44472 44.0212C8.30591 44.0212 8.99484 44.7404 8.99484 45.6395C8.99484 46.5386 8.30591 47.2579 7.44472 47.2579C6.58354 47.2579 5.89459 46.5386 5.89459 45.6395C5.89459 44.7404 6.58354 44.0212 7.44472 44.0212ZM30.3651 7.92208C32.3458 7.92208 33.982 9.63037 33.982 11.7433C33.982 13.8561 32.3458 15.5644 30.3651 15.5644C28.3843 15.5644 26.7481 13.8561 26.7481 11.7433C26.7481 9.63037 28.3413 7.92208 30.3651 7.92208ZM31.1832 21.1389L35.2307 15.969C36.2211 14.6204 36.7378 13.4965 36.7378 11.6983C36.7378 8.01199 33.8959 5 30.3651 5C26.8342 5.04496 23.9923 8.05694 23.9923 11.7433C23.9923 13.4965 24.509 14.6653 25.4994 16.014L29.5469 21.1389C30.1067 21.8132 30.6234 21.7682 31.1832 21.1389Z" stroke="#00DCE6" stroke-miterlimit="22.9256"/>
</svg>
