<svg width="65" height="65" viewBox="0 0 65 65" fill="none" xmlns="http://www.w3.org/2000/svg">
<path d="M55.0694 0H0V55.0694C6.89983 61.2449 16.0114 65 26 65C47.5391 65 65 47.5391 65 26C65 16.0114 61.2449 6.89983 55.0694 0Z" fill="#00DCE6" fill-opacity="0.1"/>
<path d="M7.97099 43.7076V28.796C7.97099 25.3603 8.95284 22.1176 10.6416 19.2223M17.868 11.656C17.868 11.656 21.7169 7.91141 29.2182 7.91141C41.3146 7.91141 50.8582 17.0605 50.8582 28.796V43.7076M17.7109 14.0494C18.0251 13.7792 18.3393 13.5862 18.6535 13.3159L16.7684 10.9611C16.6113 10.8067 16.4542 10.8067 16.3363 10.9225C13.8621 12.7369 11.5449 14.7829 9.77759 17.4851C9.69905 17.6009 9.73832 17.7168 9.81687 17.794L12.5268 19.3767C12.7231 19.1065 12.9195 18.8363 13.1159 18.566M38.0548 36.4117C40.1756 36.4117 41.8644 34.8673 41.8644 32.7827H34.2453C34.2453 34.8673 35.9341 36.4117 38.0548 36.4117ZM38.0548 36.4117V23.3962M24.8981 22.2334L25.0944 23.2371M24.8981 22.2334L25.173 21.6929L26.2334 21.4999L27.3331 20.5348L29.4146 21.3841M24.8981 22.2334L21.1486 22.3106M25.0944 23.2371L25.5265 23.6617L26.5868 23.4687M25.0944 23.2371L21.4196 24.8971M26.1941 21.4999L26.5868 23.4687M26.5868 23.4687L27.9614 23.9706L29.6109 22.465M29.6109 22.465L29.4146 21.3841M29.6109 22.465L31.6925 22.1179M29.4146 21.3841L31.5746 20.9595M15.6687 20.033L16.9255 22.8511M18.6142 18.7591L19.871 21.5771M28.6684 16.5973C29.336 18.1028 30.0037 20.7279 30.3964 22.3106L31.6925 28.796M28.6684 16.5973C28.6684 16.5973 29.768 14.5897 28.3542 13.0456C27.3921 11.9948 25.5265 11.656 25.5265 11.656C25.5265 11.656 25.2025 12.7756 25.5265 14.0494C25.9291 15.6323 27.5294 16.2498 28.6684 16.5973ZM5.77165 43.7076H53.0968M5.16895 18.5462C5.67951 17.3881 6.26862 16.3072 6.93627 15.2649C8.78215 12.3696 11.2564 9.97619 14.1234 8.0846C15.3016 7.31253 16.5191 6.61766 17.7759 6M21.1486 22.3106C21.4794 22.7292 21.6776 23.2525 21.6776 23.8162C21.6776 24.2023 21.5846 24.5695 21.4196 24.8971M21.1486 22.3106C20.6863 21.7258 19.9652 21.3455 19.1641 21.3455C17.7895 21.3455 16.6505 22.465 16.6505 23.8162C16.6505 25.1673 17.7895 26.2868 19.1641 26.2868C20.1458 26.2868 21.0074 25.7157 21.4196 24.8971M21.7169 32.7827H24.5446C24.5446 34.8673 26.2334 36.5272 28.3542 36.5272C30.475 36.5272 32.1638 34.8673 32.1638 32.7827H44.6136V43.7076H21.7169V32.7827ZM38.1334 23.4301C37.8978 23.3529 37.7407 23.0827 37.7407 23.0441C37.4265 22.272 37.1515 20.1102 37.7407 19.4153C38.6832 18.2958 40.3327 17.2921 40.3327 17.2921C40.3327 17.2921 41.3146 18.7977 40.9218 20.5348C40.6424 21.7708 39.1938 22.7739 38.1334 23.4301ZM38.1334 25.9008C38.6047 24.0864 40.7255 22.465 43.4747 23.4301C43.4747 23.4301 42.8855 25.2057 41.3146 25.9008C39.7436 26.5958 38.9581 26.4026 38.1334 25.9008ZM37.937 25.6305C36.209 26.7499 35.1921 26.2868 34.4416 25.0127C34.0096 24.2792 33.0671 23.4687 33.0671 23.4687C34.1667 23.0827 35.6199 23.0828 36.6017 23.6617C37.5836 24.2406 37.8192 25.1673 37.937 25.6305ZM29.5324 18.6433C31.2997 18.7591 32.1638 18.9521 33.0671 17.794C33.9704 16.6359 34.2453 14.9757 34.2453 14.9757C33.1456 14.8985 30.7106 14.5897 29.768 17.6009C29.6502 17.794 29.5324 18.18 29.5324 18.6433ZM29.4146 18.9521C28.5113 17.4079 26.5868 16.7517 24.5446 18.2571C24.5446 18.2571 26.8618 19.1065 27.4116 19.4153C28.1578 19.8014 28.7469 19.6083 29.4146 18.9521ZM19.1641 24.5882C19.5961 24.5882 19.9495 24.2408 19.9495 23.8162C19.9495 23.3915 19.5961 23.0441 19.1641 23.0441C18.7321 23.0441 18.3786 23.3915 18.3786 23.8162C18.3786 24.2408 18.7321 24.5882 19.1641 24.5882ZM15.9436 19.9172C17.7109 19.9172 19.1248 18.5274 19.1248 16.7903C19.1248 15.0531 17.6717 13.6634 15.9436 13.6634C14.1763 13.6634 12.7624 15.0917 12.7624 16.7903C12.7624 18.4888 14.1763 19.9172 15.9436 19.9172ZM15.9436 17.8326C16.5327 17.8326 17.0433 17.3693 17.0433 16.7517C17.0433 16.1726 16.572 15.6708 15.9436 15.6708C15.3545 15.6708 14.8439 16.134 14.8439 16.7517C14.8439 17.3693 15.3545 17.8326 15.9436 17.8326Z" stroke="#00DCE6" stroke-miterlimit="22.9256"/>
<path d="M5.46826 47H53.0968" stroke="#00DCE6"/>
</svg>
