<?xml version="1.0" encoding="utf-8"?>
<!-- Generator: Adobe Illustrator 15.0.0, SVG Export Plug-In . SVG Version: 6.00 Build 0)  -->
<!DOCTYPE svg PUBLIC "-//W3C//DTD SVG 1.1//EN" "http://www.w3.org/Graphics/SVG/1.1/DTD/svg11.dtd">
<svg version="1.1" id="图层_1" xmlns="http://www.w3.org/2000/svg" xmlns:xlink="http://www.w3.org/1999/xlink" x="0px" y="0px"
	 width="984px" height="299px" viewBox="0 0 984 299" enable-background="new 0 0 984 299" xml:space="preserve">
<path fill="#FFFFFF" d="M423.46,204.975c0,33.754-27.325,61.116-61.031,61.116s-61.031-27.362-61.031-61.116
	s27.325-61.117,61.031-61.117S423.46,171.221,423.46,204.975z"/>
<path fill="#FFFFFF" d="M553.032,232.242c0,33.754-27.324,61.117-61.031,61.117c-33.706,0-61.03-27.363-61.03-61.117
	c0-33.753,27.324-61.116,61.03-61.116C525.708,171.126,553.032,198.489,553.032,232.242z"/>
<path fill="#FFFFFF" d="M861,215.787c0,35.052-28.375,63.467-63.378,63.467s-63.378-28.415-63.378-63.467
	c0-35.053,28.375-63.467,63.378-63.467S861,180.734,861,215.787z"/>
<path fill="#FFFFFF" d="M724.855,219.079c0,44.139-35.732,79.921-79.81,79.921c-44.078,0-79.81-35.782-79.81-79.921
	c0-44.14,35.731-79.922,79.81-79.922C689.123,139.157,724.855,174.939,724.855,219.079z"/>
<path fill="#FFFFFF" d="M200.932,61.116c0,33.754-27.324,61.117-61.03,61.117c-33.707,0-61.031-27.363-61.031-61.117
	C78.871,27.363,106.195,0,139.902,0C173.608,0,200.932,27.363,200.932,61.116z"/>
<path fill="#FFFFFF" d="M430.969,71.459c0,33.754-27.324,61.116-61.029,61.116c-33.706,0-61.031-27.362-61.031-61.116
	c0-33.753,27.325-61.116,61.031-61.116C403.645,10.343,430.969,37.706,430.969,71.459z"/>
<path fill="#FFFFFF" d="M984,152.791c0,35.052-28.375,63.467-63.378,63.467s-63.378-28.415-63.378-63.467
	s28.375-63.467,63.378-63.467S984,117.739,984,152.791z"/>
<path fill="#FFFFFF" d="M516.414,118.471c0,23.368-18.917,42.312-42.252,42.312s-42.252-18.944-42.252-42.312
	s18.917-42.311,42.252-42.311S516.414,95.104,516.414,118.471z"/>
<path fill="#FFFFFF" d="M290.13,196.512c0,44.141-35.732,79.922-79.809,79.922c-44.077,0-79.809-35.781-79.809-79.922
	c0-44.139,35.732-79.921,79.809-79.921C254.398,116.591,290.13,152.373,290.13,196.512z"/>
<path fill="#FFFFFF" d="M732.365,91.205c0,23.368-18.917,42.311-42.252,42.311s-42.252-18.943-42.252-42.311
	s18.917-42.312,42.252-42.312S732.365,67.837,732.365,91.205z"/>
<path fill="#FFFFFF" d="M122.061,169.245c0,33.754-27.324,61.116-61.03,61.116C27.324,230.361,0,202.999,0,169.245
	c0-33.753,27.324-61.116,61.031-61.116C94.737,108.129,122.061,135.492,122.061,169.245z"/>
<path fill="#FFFFFF" d="M865.694,82.742c0,33.754-27.324,61.117-61.031,61.117c-33.706,0-61.03-27.363-61.03-61.117
	c0-33.753,27.324-61.116,61.03-61.116C838.37,21.626,865.694,48.989,865.694,82.742z"/>
<path fill="#FFFFFF" d="M297.643,71.459c0,23.368-18.917,42.311-42.252,42.311s-42.252-18.943-42.252-42.311
	c0-23.368,18.917-42.312,42.252-42.312S297.643,48.091,297.643,71.459z"/>
<path fill="#FFFFFF" d="M635.658,85.563c0,31.157-25.223,56.416-56.336,56.416s-56.336-25.258-56.336-56.416
	s25.223-56.415,56.336-56.415S635.658,54.405,635.658,85.563z"/>
<text transform="matrix(1 0 0 1 23.5 177)" fill="#686666" font-family="'MicrosoftYaHei'" font-size="15">媒体和娱乐</text>
<text transform="matrix(1 0 0 1 122.5 68)" fill="#686666" font-family="'MicrosoftYaHei'" font-size="15">保险</text>
<text transform="matrix(1 0 0 1 239.5 76)" fill="#686666" font-family="'MicrosoftYaHei'" font-size="15">法律</text>
<text transform="matrix(1 0 0 1 196.5 202)" fill="#686666" font-family="'MicrosoftYaHei'" font-size="15">医药</text>
<text transform="matrix(1 0 0 1 342.5 77)" fill="#686666" font-family="'MicrosoftYaHei'" font-size="15">医疗保健</text>
<text transform="matrix(1 0 0 1 309.5 210)" fill="#686666" font-family="'MicrosoftYaHei'" font-size="15">银行和金融科技</text>
<text transform="matrix(1 0 0 1 460.5 124)" fill="#686666" font-family="'MicrosoftYaHei'" font-size="15">零售</text>
<text transform="matrix(1 0 0 1 471.5 238)" fill="#686666" font-family="'MicrosoftYaHei'" font-size="15">不动产</text>
<text transform="matrix(1 0 0 1 550.5 91)" fill="#686666" font-family="'MicrosoftYaHei'" font-size="15">物流运输</text>
<text transform="matrix(1 0 0 1 610.5 222)" fill="#686666" font-family="'MicrosoftYaHei'" font-size="15">供应链管理</text>
<text transform="matrix(1 0 0 1 676.5 92)" fill="#686666" font-family="'MicrosoftYaHei'" font-size="15">旅行</text>
<text transform="matrix(1 0 0 1 775.5 91)" fill="#686666" font-family="'MicrosoftYaHei'" font-size="15">人力资源</text>
<text transform="matrix(1 0 0 1 768.5 221)" fill="#686666" font-family="'MicrosoftYaHei'" font-size="15">数字广告</text>
<text transform="matrix(1 0 0 1 902.5 157)" fill="#686666" font-family="'MicrosoftYaHei'" font-size="15">教育</text>
</svg>
