<?xml version="1.0" encoding="utf-8"?>
<!-- Generator: Adobe Illustrator 15.0.0, SVG Export Plug-In . SVG Version: 6.00 Build 0)  -->
<!DOCTYPE svg PUBLIC "-//W3C//DTD SVG 1.1//EN" "http://www.w3.org/Graphics/SVG/1.1/DTD/svg11.dtd">
<svg version="1.1" id="图层_1" xmlns="http://www.w3.org/2000/svg" xmlns:xlink="http://www.w3.org/1999/xlink" x="0px" y="0px"
	 width="289px" height="556px" viewBox="0 0 289 556" enable-background="new 0 0 289 556" xml:space="preserve">
<path fill="#FFFFFF" d="M92.214,46.096c0,25.458-20.643,46.096-46.107,46.096C20.643,92.191,0,71.554,0,46.096S20.643,0,46.107,0
	C71.571,0,92.214,20.638,92.214,46.096z"/>
<path fill="#FFFFFF" d="M190.132,46.096c0,25.458-20.644,46.096-46.107,46.096c-25.464,0-46.107-20.638-46.107-46.096
	S118.561,0,144.025,0C169.488,0,190.132,20.638,190.132,46.096z"/>
<path fill="#FFFFFF" d="M141.647,137.338c0,25.458-20.642,46.096-46.106,46.096s-46.107-20.638-46.107-46.096
	s20.643-46.096,46.107-46.096S141.647,111.88,141.647,137.338z"/>
<path fill="#FFFFFF" d="M289.001,46.096c0,25.458-20.644,46.096-46.106,46.096c-25.465,0-46.107-20.638-46.107-46.096
	S217.43,0,242.895,0C268.357,0,289.001,20.638,289.001,46.096z"/>
<path fill="#FFFFFF" d="M238.613,137.338c0,25.458-20.643,46.096-46.106,46.096S146.4,162.796,146.4,137.338
	s20.643-46.096,46.106-46.096S238.613,111.88,238.613,137.338z"/>
<path fill="#FFFFFF" d="M92.214,229.527c0,25.458-20.643,46.096-46.107,46.096C20.643,275.623,0,254.985,0,229.527
	s20.643-46.095,46.107-46.095C71.571,183.432,92.214,204.069,92.214,229.527z"/>
<path fill="none" d="M238.613,321.721c0,25.459-20.643,46.096-46.106,46.096S146.4,347.18,146.4,321.721
	c0-25.457,20.643-46.096,46.106-46.096S238.613,296.264,238.613,321.721z"/>
<path fill="#FFFFFF" d="M141.647,320.77c0,25.459-20.642,46.096-46.106,46.096s-46.107-20.637-46.107-46.096
	c0-25.457,20.643-46.096,46.107-46.096S141.647,295.313,141.647,320.77z"/>
<path fill="#FFFFFF" d="M190.132,229.527c0,25.458-20.644,46.096-46.107,46.096c-25.464,0-46.107-20.638-46.107-46.096
	s20.643-46.095,46.107-46.095C169.488,183.432,190.132,204.069,190.132,229.527z"/>
<path fill="#FFFFFF" d="M289.001,229.527c0,25.458-20.644,46.096-46.106,46.096c-25.465,0-46.107-20.638-46.107-46.096
	s20.643-46.095,46.107-46.095C268.357,183.432,289.001,204.069,289.001,229.527z"/>
<path fill="#FFFFFF" d="M289.001,417.713c0,25.458-20.644,46.096-46.106,46.096c-25.465,0-46.107-20.638-46.107-46.096
	s20.643-46.096,46.107-46.096C268.357,371.617,289.001,392.255,289.001,417.713z"/>
<path fill="#FFFFFF" d="M92.214,417.713c0,25.458-20.643,46.096-46.107,46.096C20.643,463.809,0,443.171,0,417.713
	s20.643-46.096,46.107-46.096C71.571,371.617,92.214,392.255,92.214,417.713z"/>
<path fill="#FFFFFF" d="M190.132,417.713c0,25.458-20.644,46.096-46.107,46.096c-25.464,0-46.107-20.638-46.107-46.096
	s20.643-46.096,46.107-46.096C169.488,371.617,190.132,392.255,190.132,417.713z"/>
<path fill="#FFFFFF" d="M141.647,509.904c0,25.458-20.642,46.096-46.106,46.096s-46.107-20.638-46.107-46.096
	s20.643-46.096,46.107-46.096S141.647,484.446,141.647,509.904z"/>
<text transform="matrix(1 0 0 1 17 50.5)" fill="#9B9999" font-family="'MicrosoftYaHeiLight'" font-size="12">媒体和娱乐</text>
<text transform="matrix(1 0 0 1 133 51.5)" fill="#9B9999" font-family="'MicrosoftYaHeiLight'" font-size="12">保险</text>
<text transform="matrix(1 0 0 1 231 51.5)" fill="#9B9999" font-family="'MicrosoftYaHeiLight'" font-size="12">医药</text>
<text transform="matrix(1 0 0 1 84 142.5)" fill="#9B9999" font-family="'MicrosoftYaHeiLight'" font-size="12">法律</text>
<text transform="matrix(1 0 0 1 169 142.5)" fill="#9B9999" font-family="'MicrosoftYaHeiLight'" font-size="12">医疗保健</text>
<text transform="matrix(1 0 0 1 5 234.5)" fill="#9B9999" font-family="'MicrosoftYaHeiLight'" font-size="12">银行和金融科技</text>
<text transform="matrix(1 0 0 1 131 234.5)" fill="#9B9999" font-family="'MicrosoftYaHeiLight'" font-size="12">零售</text>
<text transform="matrix(1 0 0 1 225 234.5)" fill="#9B9999" font-family="'MicrosoftYaHeiLight'" font-size="12">不动产</text>
<text transform="matrix(1 0 0 1 73 325.5)" fill="#9B9999" font-family="'MicrosoftYaHeiLight'" font-size="12">物流运输</text>
<text transform="matrix(1 0 0 1 164 324.5)" fill="#9B9999" font-family="'MicrosoftYaHeiLight'" font-size="12">供应链管理</text>
<text transform="matrix(1 0 0 1 33 422.5)" fill="#9B9999" font-family="'MicrosoftYaHeiLight'" font-size="12">旅行</text>
<text transform="matrix(1 0 0 1 120 423.5)" fill="#9B9999" font-family="'MicrosoftYaHeiLight'" font-size="12">人力资源</text>
<text transform="matrix(1 0 0 1 219 423.5)" fill="#9B9999" font-family="'MicrosoftYaHeiLight'" font-size="12">数字广告</text>
<text transform="matrix(1 0 0 1 84 516.5)" fill="#9B9999" font-family="'MicrosoftYaHeiLight'" font-size="12">教育</text>
</svg>
