<?xml version="1.0" encoding="utf-8"?>
<!-- Generator: Adobe Illustrator 15.0.0, SVG Export Plug-In . SVG Version: 6.00 Build 0)  -->
<!DOCTYPE svg PUBLIC "-//W3C//DTD SVG 1.1//EN" "http://www.w3.org/Graphics/SVG/1.1/DTD/svg11.dtd">
<svg version="1.1" id="图层_1" xmlns="http://www.w3.org/2000/svg" xmlns:xlink="http://www.w3.org/1999/xlink" x="0px" y="0px"
	 width="330px" height="585px" viewBox="0 0 330 585" enable-background="new 0 0 330 585" xml:space="preserve">
<path fill="#FFFFFF" d="M97,48.5C97,75.286,75.286,97,48.5,97S0,75.286,0,48.5S21.714,0,48.5,0S97,21.714,97,48.5z"/>
<path fill="#FFFFFF" d="M213,48.5c0,26.786-21.714,48.5-48.5,48.5S116,75.286,116,48.5S137.714,0,164.5,0S213,21.714,213,48.5z"/>
<path fill="#FFFFFF" d="M155,144.5c0,26.786-21.714,48.5-48.5,48.5C79.714,193,58,171.286,58,144.5S79.714,96,106.5,96
	C133.286,96,155,117.714,155,144.5z"/>
<path fill="#FFFFFF" d="M330,48.5c0,26.786-21.714,48.5-48.5,48.5S233,75.286,233,48.5S254.714,0,281.5,0S330,21.714,330,48.5z"/>
<path fill="#FFFFFF" d="M271,144.5c0,26.786-21.714,48.5-48.5,48.5S174,171.286,174,144.5S195.714,96,222.5,96
	S271,117.714,271,144.5z"/>
<path fill="#FFFFFF" d="M97,241.5c0,26.786-21.714,48.5-48.5,48.5S0,268.286,0,241.5S21.714,193,48.5,193S97,214.714,97,241.5z"/>
<path fill="#FFFFFF" d="M271,338.5c0,26.786-21.714,48.5-48.5,48.5S174,365.286,174,338.5s21.714-48.5,48.5-48.5
	S271,311.714,271,338.5z"/>
<path fill="#FFFFFF" d="M155,337.5c0,26.786-21.714,48.5-48.5,48.5C79.714,386,58,364.286,58,337.5S79.714,289,106.5,289
	C133.286,289,155,310.714,155,337.5z"/>
<path fill="#FFFFFF" d="M213,241.5c0,26.786-21.714,48.5-48.5,48.5S116,268.286,116,241.5s21.714-48.5,48.5-48.5
	S213,214.714,213,241.5z"/>
<path fill="#FFFFFF" d="M330,241.5c0,26.786-21.714,48.5-48.5,48.5S233,268.286,233,241.5s21.714-48.5,48.5-48.5
	S330,214.714,330,241.5z"/>
<path fill="#FFFFFF" d="M330,439.5c0,26.786-21.714,48.5-48.5,48.5S233,466.286,233,439.5s21.714-48.5,48.5-48.5
	S330,412.714,330,439.5z"/>
<path fill="#FFFFFF" d="M97,439.5c0,26.786-21.714,48.5-48.5,48.5S0,466.286,0,439.5S21.714,391,48.5,391S97,412.714,97,439.5z"/>
<path fill="#FFFFFF" d="M213,439.5c0,26.786-21.714,48.5-48.5,48.5S116,466.286,116,439.5s21.714-48.5,48.5-48.5
	S213,412.714,213,439.5z"/>
<path fill="#FFFFFF" d="M155,536.5c0,26.786-21.714,48.5-48.5,48.5C79.714,585,58,563.286,58,536.5S79.714,488,106.5,488
	C133.286,488,155,509.714,155,536.5z"/>
<text transform="matrix(1 0 0 1 19.5 53)" fill="#9B9999" font-family="'MicrosoftYaHeiLight'" font-size="12">媒体和娱乐</text>
<text transform="matrix(1 0 0 1 151.5 53)" fill="#9B9999" font-family="'MicrosoftYaHeiLight'" font-size="12">保险</text>
<text transform="matrix(1 0 0 1 271.5 53)" fill="#9B9999" font-family="'MicrosoftYaHeiLight'" font-size="12">医药</text>
<text transform="matrix(1 0 0 1 92.5 150)" fill="#9B9999" font-family="'MicrosoftYaHeiLight'" font-size="12">法律</text>
<text transform="matrix(1 0 0 1 200.5 148)" fill="#9B9999" font-family="'MicrosoftYaHeiLight'" font-size="12">医疗保健</text>
<text transform="matrix(1 0 0 1 6.5 247)" fill="#9B9999" font-family="'MicrosoftYaHeiLight'" font-size="12">银行和金融科技</text>
<text transform="matrix(1 0 0 1 151.5 248)" fill="#9B9999" font-family="'MicrosoftYaHeiLight'" font-size="12">零售</text>
<text transform="matrix(1 0 0 1 262.5 246)" fill="#9B9999" font-family="'MicrosoftYaHeiLight'" font-size="12">不动产</text>
<text transform="matrix(1 0 0 1 83.5 342)" fill="#9B9999" font-family="'MicrosoftYaHeiLight'" font-size="12">物流运输</text>
<text transform="matrix(1 0 0 1 192.5 345)" fill="#9B9999" font-family="'MicrosoftYaHeiLight'" font-size="12">供应链管理</text>
<text transform="matrix(1 0 0 1 34.5 443)" fill="#9B9999" font-family="'MicrosoftYaHeiLight'" font-size="12">旅行</text>
<text transform="matrix(1 0 0 1 140.5 443)" fill="#9B9999" font-family="'MicrosoftYaHeiLight'" font-size="12">人力资源</text>
<text transform="matrix(1 0 0 1 259.5 445)" fill="#9B9999" font-family="'MicrosoftYaHeiLight'" font-size="12">数字广告</text>
<text transform="matrix(1 0 0 1 94.5 541)" fill="#9B9999" font-family="'MicrosoftYaHeiLight'" font-size="12">教育</text>
</svg>
