<?xml version="1.0" encoding="utf-8"?>
<!-- Generator: Adobe Illustrator 15.0.0, SVG Export Plug-In . SVG Version: 6.00 Build 0)  -->
<!DOCTYPE svg PUBLIC "-//W3C//DTD SVG 1.1//EN" "http://www.w3.org/Graphics/SVG/1.1/DTD/svg11.dtd">
<svg version="1.1" id="图层_1" xmlns="http://www.w3.org/2000/svg" xmlns:xlink="http://www.w3.org/1999/xlink" x="0px" y="0px"
	 width="450px" height="798px" viewBox="0 0 450 798" enable-background="new 0 0 450 798" xml:space="preserve">
<path fill="#FFFFFF" d="M132.273,66.159c0,36.539-29.611,66.159-66.137,66.159S0,102.698,0,66.159C0,29.621,29.61,0,66.136,0
	S132.273,29.621,132.273,66.159z"/>
<path fill="#FFFFFF" d="M290.454,66.159c0,36.539-29.61,66.159-66.136,66.159s-66.136-29.62-66.136-66.159
	C158.182,29.621,187.792,0,224.318,0S290.454,29.621,290.454,66.159z"/>
<path fill="#FFFFFF" d="M211.365,197.114c0,36.539-29.611,66.159-66.137,66.159s-66.136-29.62-66.136-66.159
	c0-36.539,29.61-66.159,66.136-66.159S211.365,160.575,211.365,197.114z"/>
<path fill="#FFFFFF" d="M449.999,66.159c0,36.539-29.61,66.159-66.136,66.159c-36.526,0-66.137-29.62-66.137-66.159
	C317.727,29.621,347.337,0,383.863,0C420.389,0,449.999,29.621,449.999,66.159z"/>
<path fill="#FFFFFF" d="M369.546,197.114c0,36.539-29.61,66.159-66.136,66.159c-36.526,0-66.137-29.62-66.137-66.159
	c0-36.539,29.61-66.159,66.137-66.159C339.936,130.955,369.546,160.575,369.546,197.114z"/>
<path fill="#FFFFFF" d="M132.273,329.43c0,36.539-29.611,66.159-66.137,66.159S0,365.969,0,329.43
	c0-36.538,29.61-66.159,66.136-66.159S132.273,292.892,132.273,329.43z"/>
<path fill="#FFFFFF" d="M369.546,461.749c0,36.538-29.61,66.159-66.136,66.159c-36.526,0-66.137-29.621-66.137-66.159
	c0-36.539,29.61-66.159,66.137-66.159C339.936,395.59,369.546,425.21,369.546,461.749z"/>
<path fill="#FFFFFF" d="M211.365,460.386c0,36.538-29.611,66.159-66.137,66.159s-66.136-29.621-66.136-66.159
	c0-36.539,29.61-66.159,66.136-66.159S211.365,423.847,211.365,460.386z"/>
<path fill="#FFFFFF" d="M290.454,329.43c0,36.539-29.61,66.159-66.136,66.159s-66.136-29.62-66.136-66.159
	c0-36.538,29.61-66.159,66.136-66.159S290.454,292.892,290.454,329.43z"/>
<path fill="#FFFFFF" d="M449.999,329.43c0,36.539-29.61,66.159-66.136,66.159c-36.526,0-66.137-29.62-66.137-66.159
	c0-36.538,29.61-66.159,66.137-66.159C420.389,263.271,449.999,292.892,449.999,329.43z"/>
<path fill="#FFFFFF" d="M449.999,599.524c0,36.538-29.61,66.158-66.136,66.158c-36.526,0-66.137-29.62-66.137-66.158
	s29.61-66.159,66.137-66.159C420.389,533.365,449.999,562.986,449.999,599.524z"/>
<path fill="#FFFFFF" d="M132.273,599.524c0,36.538-29.611,66.158-66.137,66.158S0,636.063,0,599.524s29.61-66.159,66.136-66.159
	S132.273,562.986,132.273,599.524z"/>
<path fill="#FFFFFF" d="M290.454,599.524c0,36.538-29.61,66.158-66.136,66.158s-66.136-29.62-66.136-66.158
	s29.61-66.159,66.136-66.159S290.454,562.986,290.454,599.524z"/>
<path fill="#FFFFFF" d="M211.365,731.841c0,36.538-29.611,66.159-66.137,66.159s-66.136-29.621-66.136-66.159
	c0-36.539,29.61-66.159,66.136-66.159S211.365,695.302,211.365,731.841z"/>
<text transform="matrix(1 0 0 1 34.5 70.5)" fill="#9B9999" font-family="'MicrosoftYaHeiLight'" font-size="13">媒体和娱乐</text>
<text transform="matrix(1 0 0 1 211.5 68.5)" fill="#9B9999" font-family="'MicrosoftYaHeiLight'" font-size="13">保险</text>
<text transform="matrix(1 0 0 1 369.5 71.5)" fill="#9B9999" font-family="'MicrosoftYaHeiLight'" font-size="13">医药</text>
<text transform="matrix(1 0 0 1 133.5 205.5)" fill="#9B9999" font-family="'MicrosoftYaHeiLight'" font-size="13">法律</text>
<text transform="matrix(1 0 0 1 279.5 201.5)" fill="#9B9999" font-family="'MicrosoftYaHeiLight'" font-size="13">医疗保健</text>
<text transform="matrix(1 0 0 1 22.5 333.5)" fill="#9B9999" font-family="'MicrosoftYaHeiLight'" font-size="13">银行和金融科技</text>
<text transform="matrix(1 0 0 1 211.5 334.5)" fill="#9B9999" font-family="'MicrosoftYaHeiLight'" font-size="13">零售</text>
<text transform="matrix(1 0 0 1 366.5 333.5)" fill="#9B9999" font-family="'MicrosoftYaHeiLight'" font-size="13">不动产</text>
<text transform="matrix(1 0 0 1 122.5 464.5)" fill="#9B9999" font-family="'MicrosoftYaHeiLight'" font-size="13">物流运输</text>
<text transform="matrix(1 0 0 1 274.5 466.5)" fill="#9B9999" font-family="'MicrosoftYaHeiLight'" font-size="13">供应链管理</text>
<text transform="matrix(1 0 0 1 52.5 605.5)" fill="#9B9999" font-family="'MicrosoftYaHeiLight'" font-size="13">旅行</text>
<text transform="matrix(1 0 0 1 200.5 604.5)" fill="#9B9999" font-family="'MicrosoftYaHeiLight'" font-size="13">人力资源</text>
<text transform="matrix(1 0 0 1 362.5 605.5)" fill="#9B9999" font-family="'MicrosoftYaHeiLight'" font-size="13">数字广告</text>
<text transform="matrix(1 0 0 1 133.5 738.5)" fill="#9B9999" font-family="'MicrosoftYaHeiLight'" font-size="13">教育</text>
</svg>
