<?xml version="1.0" encoding="utf-8"?>
<!-- Generator: Adobe Illustrator 15.0.0, SVG Export Plug-In . SVG Version: 6.00 Build 0)  -->
<!DOCTYPE svg PUBLIC "-//W3C//DTD SVG 1.1//EN" "http://www.w3.org/Graphics/SVG/1.1/DTD/svg11.dtd">
<svg version="1.1" id="图层_1" xmlns="http://www.w3.org/2000/svg" xmlns:xlink="http://www.w3.org/1999/xlink" x="0px" y="0px"
	 width="718px" height="218px" viewBox="0 0 718 218" enable-background="new 0 0 718 218" xml:space="preserve">
<path fill="none" d="M308.987,147.499c0,24.611-19.938,44.561-44.533,44.561c-24.594,0-44.532-19.949-44.532-44.561
	c0-24.608,19.938-44.558,44.532-44.558C289.049,102.941,308.987,122.891,308.987,147.499z"/>
<path fill="#FFFFFF" d="M403.534,169.327c0,24.61-19.938,44.56-44.533,44.56c-24.594,0-44.532-19.949-44.532-44.56
	c0-24.609,19.938-44.56,44.532-44.56C383.596,124.768,403.534,144.718,403.534,169.327z"/>
<path fill="#FFFFFF" d="M628.25,157.329c0,25.556-20.704,46.274-46.245,46.274s-46.245-20.719-46.245-46.274
	s20.704-46.272,46.245-46.272S628.25,131.773,628.25,157.329z"/>
<path fill="#FFFFFF" d="M528.907,159.729c0,32.183-26.072,58.271-58.235,58.271c-32.162,0-58.234-26.089-58.234-58.271
	c0-32.181,26.072-58.27,58.234-58.27C502.835,101.459,528.907,127.548,528.907,159.729z"/>
<path fill="#FFFFFF" d="M146.614,44.56c0,24.61-19.938,44.56-44.533,44.56c-24.594,0-44.532-19.95-44.532-44.56
	C57.549,19.95,77.487,0,102.081,0C126.676,0,146.614,19.95,146.614,44.56z"/>
<path fill="none" d="M314.467,52.101c0,24.61-19.937,44.56-44.532,44.56c-24.595,0-44.533-19.95-44.533-44.56
	c0-24.609,19.938-44.56,44.533-44.56C294.53,7.541,314.467,27.491,314.467,52.101z"/>
<path fill="#FFFFFF" d="M718,111.4c0,25.557-20.704,46.273-46.245,46.273S625.51,136.957,625.51,111.4
	c0-25.556,20.704-46.273,46.245-46.273S718,85.844,718,111.4z"/>
<path fill="none" d="M376.813,86.377c0,17.038-13.803,30.849-30.829,30.849c-17.028,0-30.831-13.812-30.831-30.849
	s13.803-30.849,30.831-30.849C363.01,55.528,376.813,69.34,376.813,86.377z"/>
<path fill="#FFFFFF" d="M211.7,143.275c0,32.183-26.072,58.271-58.235,58.271c-32.162,0-58.234-26.089-58.234-58.271
	c0-32.182,26.073-58.27,58.234-58.27C185.628,85.006,211.7,111.094,211.7,143.275z"/>
<path fill="#FFFFFF" d="M534.389,66.497c0,17.038-13.803,30.849-30.83,30.849c-17.026,0-30.83-13.812-30.83-30.849
	s13.804-30.849,30.83-30.849C520.586,35.647,534.389,49.459,534.389,66.497z"/>
<path fill="#FFFFFF" d="M89.065,123.396c0,24.609-19.938,44.56-44.532,44.56C19.938,167.956,0,148.006,0,123.396
	s19.938-44.56,44.533-44.56C69.127,78.837,89.065,98.787,89.065,123.396z"/>
<path fill="#FFFFFF" d="M631.674,60.327c0,24.61-19.937,44.56-44.532,44.56c-24.595,0-44.532-19.95-44.532-44.56
	c0-24.609,19.938-44.56,44.532-44.56C611.737,15.768,631.674,35.718,631.674,60.327z"/>
<path fill="#FFFFFF" d="M217.182,52.101c0,17.038-13.803,30.849-30.83,30.849s-30.831-13.812-30.831-30.849
	s13.804-30.849,30.831-30.849S217.182,35.063,217.182,52.101z"/>
<path fill="#FFFFFF" d="M463.823,62.384c0,22.717-18.404,41.132-41.107,41.132c-22.702,0-41.106-18.416-41.106-41.132
	c0-22.716,18.404-41.132,41.106-41.132C445.419,21.252,463.823,39.667,463.823,62.384z"/>
<text transform="matrix(1 0 0 1 14.5 128.5)" fill="#9B9999" font-family="'MicrosoftYaHeiLight'" font-size="12">媒体和娱乐</text>
<text transform="matrix(1 0 0 1 85.5 49.5)" fill="#9B9999" font-family="'MicrosoftYaHeiLight'" font-size="12">保险</text>
<text transform="matrix(1 0 0 1 142.5 149.5)" fill="#9B9999" font-family="'MicrosoftYaHeiLight'" font-size="12">医药</text>
<text transform="matrix(1 0 0 1 174.5 55.5)" fill="#9B9999" font-family="'MicrosoftYaHeiLight'" font-size="12">法律</text>
<text transform="matrix(1 0 0 1 340.5 175.5)" fill="#9B9999" font-family="'MicrosoftYaHeiLight'" font-size="12">不动产</text>
<text transform="matrix(1 0 0 1 403.5 64.5)" fill="#9B9999" font-family="'MicrosoftYaHeiLight'" font-size="12">物流运输</text>
<text transform="matrix(1 0 0 1 441.5 164.5)" fill="#9B9999" font-family="'MicrosoftYaHeiLight'" font-size="12">供应链管理</text>
<text transform="matrix(1 0 0 1 491.5 70.5)" fill="#9B9999" font-family="'MicrosoftYaHeiLight'" font-size="12">旅行</text>
<text transform="matrix(1 0 0 1 563.5 65.5)" fill="#9B9999" font-family="'MicrosoftYaHeiLight'" font-size="12">人力资源</text>
<text transform="matrix(1 0 0 1 557.5 162.5)" fill="#9B9999" font-family="'MicrosoftYaHeiLight'" font-size="12">数字广告</text>
<text transform="matrix(1 0 0 1 659.5 116.5)" fill="#9B9999" font-family="'MicrosoftYaHeiLight'" font-size="12">教育</text>
<path fill="#FFFFFF" d="M308.987,149.5c0,24.609-19.938,44.56-44.532,44.56c-24.595,0-44.533-19.95-44.533-44.56
	s19.938-44.56,44.533-44.56C289.049,104.94,308.987,124.891,308.987,149.5z"/>
<text transform="matrix(1 0 0 1 223.5 152.5)" fill="#9B9999" font-family="'MicrosoftYaHeiLight'" font-size="12">银行和金融科技</text>
<path fill="#FFFFFF" d="M382.182,85.95c0,17.038-13.803,30.849-30.83,30.849s-30.831-13.811-30.831-30.849
	s13.804-30.849,30.831-30.849S382.182,68.913,382.182,85.95z"/>
<text transform="matrix(1 0 0 1 339.5 91.5)" fill="#9B9999" font-family="'MicrosoftYaHeiLight'" font-size="12">零售</text>
<path fill="#FFFFFF" d="M314.986,49.5c0,24.609-19.938,44.56-44.531,44.56c-24.595,0-44.533-19.95-44.533-44.56
	S245.86,4.94,270.455,4.94C295.049,4.94,314.986,24.891,314.986,49.5z"/>
<text transform="matrix(1 0 0 1 247.5 53.5)" fill="#9B9999" font-family="'MicrosoftYaHeiLight'" font-size="12">医疗保健</text>
</svg>
