<svg width="130" height="130" viewBox="0 0 130 130" fill="none" xmlns="http://www.w3.org/2000/svg">
<path fill-rule="evenodd" clip-rule="evenodd" d="M19.8612 0H130V110.139C116.2 122.49 97.9772 130 78 130C34.9218 130 0 95.0782 0 52C0 32.0228 7.51019 13.7997 19.8612 0Z" fill="#E6FBFC"/>
<path d="M82.4523 67.7705H62.0317V35.6245H82.4523V42.6729" stroke="#00DCE6" stroke-miterlimit="10"/>
<path d="M64.5352 40.104H65.8526" stroke="#00DCE6" stroke-miterlimit="10"/>
<path d="M64.5352 42.9355H65.8526" stroke="#00DCE6" stroke-miterlimit="10"/>
<path d="M64.5352 45.7686H65.8526" stroke="#00DCE6" stroke-miterlimit="10"/>
<path d="M64.5352 48.6006H65.8526" stroke="#00DCE6" stroke-miterlimit="10"/>
<path d="M64.5352 51.4341H65.8526" stroke="#00DCE6" stroke-miterlimit="10"/>
<path d="M64.5352 54.2002H65.8526" stroke="#00DCE6" stroke-miterlimit="10"/>
<path d="M64.5352 57.0327H65.8526" stroke="#00DCE6" stroke-miterlimit="10"/>
<path d="M64.5352 59.8652H65.8526" stroke="#00DCE6" stroke-miterlimit="10"/>
<path d="M64.5352 62.6978H65.8526" stroke="#00DCE6" stroke-miterlimit="10"/>
<path d="M68.0264 40.1035H69.4097" stroke="#00DCE6" stroke-miterlimit="10"/>
<path d="M68.0264 42.9355H69.4097" stroke="#00DCE6" stroke-miterlimit="10"/>
<path d="M68.0264 45.7686H69.4097" stroke="#00DCE6" stroke-miterlimit="10"/>
<path d="M68.0264 48.6006H69.4097" stroke="#00DCE6" stroke-miterlimit="10"/>
<path d="M68.0264 51.4341H69.4097" stroke="#00DCE6" stroke-miterlimit="10"/>
<path d="M68.0264 54.2002H69.4097" stroke="#00DCE6" stroke-miterlimit="10"/>
<path d="M68.0264 57.0327H69.4097" stroke="#00DCE6" stroke-miterlimit="10"/>
<path d="M68.0264 59.8652H69.4097" stroke="#00DCE6" stroke-miterlimit="10"/>
<path d="M68.0264 62.6978H69.4097" stroke="#00DCE6" stroke-miterlimit="10"/>
<path d="M71.5835 54.2002H72.901" stroke="#00DCE6" stroke-miterlimit="10"/>
<path d="M71.5835 57.0327H72.901" stroke="#00DCE6" stroke-miterlimit="10"/>
<path d="M71.5835 59.8652H72.901" stroke="#00DCE6" stroke-miterlimit="10"/>
<path d="M71.5835 62.6978H72.901" stroke="#00DCE6" stroke-miterlimit="10"/>
<path d="M71.5835 40.1035H72.901" stroke="#00DCE6" stroke-miterlimit="10"/>
<path d="M71.5835 42.9355H72.901" stroke="#00DCE6" stroke-miterlimit="10"/>
<path d="M71.5835 45.7686H72.901" stroke="#00DCE6" stroke-miterlimit="10"/>
<path d="M71.5835 48.6006H72.901" stroke="#00DCE6" stroke-miterlimit="10"/>
<path d="M71.5835 51.4341H72.901" stroke="#00DCE6" stroke-miterlimit="10"/>
<path d="M75.0747 40.1035H76.3922" stroke="#00DCE6" stroke-miterlimit="10"/>
<path d="M76.4576 33.187H68.0259V35.6243H76.4576V33.187Z" stroke="#00DCE6" stroke-miterlimit="10"/>
<path d="M94.3096 42.6724H75.7334V67.7699H94.3096V42.6724Z" stroke="#00DCE6" stroke-miterlimit="10"/>
<path d="M78.0391 46.4932H79.3565" stroke="#00DCE6" stroke-miterlimit="10"/>
<path d="M78.0391 49.3257H79.3565" stroke="#00DCE6" stroke-miterlimit="10"/>
<path d="M78.0391 52.1582H79.3565" stroke="#00DCE6" stroke-miterlimit="10"/>
<path d="M78.0391 54.9907H82.8478" stroke="#00DCE6" stroke-miterlimit="10"/>
<path d="M78.0391 57.8232H79.3565" stroke="#00DCE6" stroke-miterlimit="10"/>
<path d="M81.5303 46.4932H82.8477" stroke="#00DCE6" stroke-miterlimit="10"/>
<path d="M81.5303 49.3257H82.8477" stroke="#00DCE6" stroke-miterlimit="10"/>
<path d="M81.5303 52.1582H82.8477" stroke="#00DCE6" stroke-miterlimit="10"/>
<path d="M81.5303 54.9907H82.8477" stroke="#00DCE6" stroke-miterlimit="10"/>
<path d="M81.5303 57.8232H82.8477" stroke="#00DCE6" stroke-miterlimit="10"/>
<path d="M78.0391 60.6562H79.3565" stroke="#00DCE6" stroke-miterlimit="10"/>
<path d="M81.5303 60.6562H82.8477" stroke="#00DCE6" stroke-miterlimit="10"/>
<path d="M87.1953 46.4932H88.5128" stroke="#00DCE6" stroke-miterlimit="10"/>
<path d="M87.1953 49.3257H88.5128" stroke="#00DCE6" stroke-miterlimit="10"/>
<path d="M87.1953 52.1582H88.5128" stroke="#00DCE6" stroke-miterlimit="10"/>
<path d="M87.1953 54.9907H91.4112" stroke="#00DCE6" stroke-miterlimit="10"/>
<path d="M87.1953 57.8232H88.5128" stroke="#00DCE6" stroke-miterlimit="10"/>
<path d="M90.7524 46.4932H92.0699" stroke="#00DCE6" stroke-miterlimit="10"/>
<path d="M90.7524 49.3257H92.0699" stroke="#00DCE6" stroke-miterlimit="10"/>
<path d="M90.7524 52.1582H92.0699" stroke="#00DCE6" stroke-miterlimit="10"/>
<path d="M90.7524 54.9907H92.0699" stroke="#00DCE6" stroke-miterlimit="10"/>
<path d="M90.7524 57.8232H92.0699" stroke="#00DCE6" stroke-miterlimit="10"/>
<path d="M87.1953 60.6562H88.5128" stroke="#00DCE6" stroke-miterlimit="10"/>
<path d="M90.7524 60.6562H92.0699" stroke="#00DCE6" stroke-miterlimit="10"/>
<path d="M78.5 40.1035H79.8175" stroke="#00DCE6" stroke-miterlimit="10"/>
<path d="M79.7515 63.7524H90.2911" stroke="#00DCE6" stroke-miterlimit="10"/>
<path d="M85.0215 67.7705V65.6626" stroke="#00DCE6" stroke-miterlimit="10"/>
<path d="M85.0215 42.6724V60.6557" stroke="#00DCE6" stroke-miterlimit="10"/>
<path d="M78.4998 83.2505C96.0352 83.2505 110.251 69.0352 110.251 51.4998C110.251 33.9643 96.0352 19.749 78.4998 19.749C60.9643 19.749 46.749 33.9643 46.749 51.4998C46.749 69.0352 60.9643 83.2505 78.4998 83.2505Z" stroke="#00DCE6" stroke-miterlimit="10"/>
<path d="M78.5 10V26.3365" stroke="#00DCE6" stroke-miterlimit="10"/>
<path d="M78.5 76.6636V93.0001" stroke="#00DCE6" stroke-miterlimit="10"/>
<path d="M37 51.5H53.3365" stroke="#00DCE6" stroke-miterlimit="10"/>
<path d="M103.664 51.5H120" stroke="#00DCE6" stroke-miterlimit="10"/>
<path d="M115.06 45.5713C112.556 29.8936 100.106 17.4436 84.4287 14.9404" stroke="#00DCE6" stroke-miterlimit="10"/>
<path d="M84.4287 88.0591C100.106 85.556 112.556 73.106 115.06 57.4282" stroke="#00DCE6" stroke-miterlimit="10"/>
<path d="M72.5713 14.9404C56.8277 17.4436 44.4436 29.8277 41.9404 45.5713" stroke="#00DCE6" stroke-miterlimit="10"/>
<path d="M41.9404 57.4282C44.4436 73.106 56.8936 85.556 72.5713 88.0591" stroke="#00DCE6" stroke-miterlimit="10"/>
</svg>
