<svg width="130" height="130" viewBox="0 0 130 130" fill="none" xmlns="http://www.w3.org/2000/svg">
<path fill-rule="evenodd" clip-rule="evenodd" d="M19.8612 0H130V110.139C116.2 122.49 97.9772 130 78 130C34.9218 130 0 95.0782 0 52C0 32.0228 7.51019 13.7997 19.8612 0Z" fill="#E6FBFC"/>
<path d="M70.4708 14.7375C71.779 14.7375 72.8396 13.677 72.8396 12.3687C72.8396 11.0605 71.779 10 70.4708 10C69.1626 10 68.1021 11.0605 68.1021 12.3687C68.1021 13.677 69.1626 14.7375 70.4708 14.7375Z" stroke="#00DCE6" stroke-miterlimit="10"/>
<path d="M99.8654 18.9358C101.174 18.9358 102.234 17.8752 102.234 16.567C102.234 15.2588 101.174 14.1982 99.8654 14.1982C98.5571 14.1982 97.4966 15.2588 97.4966 16.567C97.4966 17.8752 98.5571 18.9358 99.8654 18.9358Z" stroke="#00DCE6" stroke-miterlimit="10"/>
<path d="M117.631 42.8401C118.939 42.8401 120 41.7796 120 40.4713C120 39.1631 118.939 38.1025 117.631 38.1025C116.323 38.1025 115.262 39.1631 115.262 40.4713C115.262 41.7796 116.323 42.8401 117.631 42.8401Z" stroke="#00DCE6" stroke-miterlimit="10"/>
<path d="M113.432 72.2346C114.74 72.2346 115.801 71.1741 115.801 69.8659C115.801 68.5576 114.74 67.4971 113.432 67.4971C112.124 67.4971 111.063 68.5576 111.063 69.8659C111.063 71.1741 112.124 72.2346 113.432 72.2346Z" stroke="#00DCE6" stroke-miterlimit="10"/>
<path d="M89.5289 89.9998C90.8372 89.9998 91.8977 88.9392 91.8977 87.631C91.8977 86.3228 90.8372 85.2622 89.5289 85.2622C88.2207 85.2622 87.1602 86.3228 87.1602 87.631C87.1602 88.9392 88.2207 89.9998 89.5289 89.9998Z" stroke="#00DCE6" stroke-miterlimit="10"/>
<path d="M60.1344 85.6926C61.4426 85.6926 62.5032 84.6321 62.5032 83.3239C62.5032 82.0156 61.4426 80.9551 60.1344 80.9551C58.8262 80.9551 57.7656 82.0156 57.7656 83.3239C57.7656 84.6321 58.8262 85.6926 60.1344 85.6926Z" stroke="#00DCE6" stroke-miterlimit="10"/>
<path d="M42.3688 61.8987C43.677 61.8987 44.7375 60.8381 44.7375 59.5299C44.7375 58.2217 43.677 57.1611 42.3688 57.1611C41.0605 57.1611 40 58.2217 40 59.5299C40 60.8381 41.0605 61.8987 42.3688 61.8987Z" stroke="#00DCE6" stroke-miterlimit="10"/>
<path d="M46.6754 32.5031C47.9836 32.5031 49.0442 31.4426 49.0442 30.1344C49.0442 28.8262 47.9836 27.7656 46.6754 27.7656C45.3672 27.7656 44.3066 28.8262 44.3066 30.1344C44.3066 31.4426 45.3672 32.5031 46.6754 32.5031Z" stroke="#00DCE6" stroke-miterlimit="10"/>
<path d="M77.5767 11.2922H77.6843C82.8526 10.9692 87.9131 11.7229 92.543 13.3379" stroke="#00DCE6" stroke-miterlimit="10"/>
<path d="M105.68 20.8753C105.714 20.8575 105.787 20.983 105.68 20.8753ZM105.68 20.8753C109.664 24.4284 112.678 28.52 114.832 32.9345" stroke="#00DCE6" stroke-miterlimit="10"/>
<path d="M118.707 47.5771V47.6849C119.03 52.8531 118.277 57.9136 116.662 62.5435" stroke="#00DCE6" stroke-miterlimit="10"/>
<path d="M109.017 75.6797C105.464 79.6635 101.373 82.6783 96.958 84.8317" stroke="#00DCE6" stroke-miterlimit="10"/>
<path d="M82.4228 88.7078H82.3152C77.147 89.0308 72.0864 88.2772 67.4565 86.6621" stroke="#00DCE6" stroke-miterlimit="10"/>
<path d="M54.32 79.0182C54.32 79.0182 54.32 78.9105 54.32 79.0182C50.3362 75.465 47.3214 71.3735 45.168 66.959" stroke="#00DCE6" stroke-miterlimit="10"/>
<path d="M41.2922 52.3145V52.2068C40.9692 47.0386 41.7229 41.978 43.3379 37.3481" stroke="#00DCE6" stroke-miterlimit="10"/>
<path d="M50.9819 24.321C50.9819 24.321 50.9819 24.2133 50.9819 24.321C54.5351 20.3372 58.6266 17.3224 63.0411 15.1689" stroke="#00DCE6" stroke-miterlimit="10"/>
<path d="M71.5479 16.6748L74.5626 27.9803" stroke="#00DCE6" stroke-miterlimit="10"/>
<path d="M97.604 20.4443L91.6821 30.5654" stroke="#00DCE6" stroke-miterlimit="10"/>
<path d="M113.325 41.5474L102.019 44.4545" stroke="#00DCE6" stroke-miterlimit="10"/>
<path d="M109.556 67.4971L99.4346 61.5752" stroke="#00DCE6" stroke-miterlimit="10"/>
<path d="M88.452 83.2166L85.5449 71.9111" stroke="#00DCE6" stroke-miterlimit="10"/>
<path d="M62.3955 79.449L68.3174 69.4355" stroke="#00DCE6" stroke-miterlimit="10"/>
<path d="M46.6758 58.3441L58.0889 55.437" stroke="#00DCE6" stroke-miterlimit="10"/>
<path d="M50.5518 32.397L60.5652 38.3189" stroke="#00DCE6" stroke-miterlimit="10"/>
<path d="M88.5485 36H71.4512V63.0584H88.5485V36Z" stroke="#00DCE6" stroke-miterlimit="10"/>
<path d="M71.4514 41.5503H67.5859V63.0335H71.4514V41.5503Z" stroke="#00DCE6" stroke-miterlimit="10"/>
<path d="M81.9328 59.4658H78.2407V63.034H81.9328V59.4658Z" stroke="#00DCE6" stroke-miterlimit="10"/>
<path d="M75.3417 39.2959H74.3506V41.5508H75.3417V39.2959Z" stroke="#00DCE6" stroke-miterlimit="10"/>
<path d="M78.8105 39.2959H77.8193V41.5508H78.8105V39.2959Z" stroke="#00DCE6" stroke-miterlimit="10"/>
<path d="M82.2797 39.2959H81.2886V41.5508H82.2797V39.2959Z" stroke="#00DCE6" stroke-miterlimit="10"/>
<path d="M85.749 39.2959H84.7578V41.5508H85.749V39.2959Z" stroke="#00DCE6" stroke-miterlimit="10"/>
<path d="M75.3417 44.0537H74.3506V46.3086H75.3417V44.0537Z" stroke="#00DCE6" stroke-miterlimit="10"/>
<path d="M78.8105 44.0537H77.8193V46.3086H78.8105V44.0537Z" stroke="#00DCE6" stroke-miterlimit="10"/>
<path d="M82.2797 44.0537H81.2886V46.3086H82.2797V44.0537Z" stroke="#00DCE6" stroke-miterlimit="10"/>
<path d="M85.749 44.0537H84.7578V46.3086H85.749V44.0537Z" stroke="#00DCE6" stroke-miterlimit="10"/>
<path d="M75.3417 48.7866H74.3506V51.0415H75.3417V48.7866Z" stroke="#00DCE6" stroke-miterlimit="10"/>
<path d="M78.8105 48.7861H77.8193V51.041H78.8105V48.7861Z" stroke="#00DCE6" stroke-miterlimit="10"/>
<path d="M82.2797 48.7861H81.2886V51.041H82.2797V48.7861Z" stroke="#00DCE6" stroke-miterlimit="10"/>
<path d="M85.749 48.7861H84.7578V51.041H85.749V48.7861Z" stroke="#00DCE6" stroke-miterlimit="10"/>
<path d="M75.3417 53.5439H74.3506V55.7988H75.3417V53.5439Z" stroke="#00DCE6" stroke-miterlimit="10"/>
<path d="M75.3417 58.2271H74.3506V60.4819H75.3417V58.2271Z" stroke="#00DCE6" stroke-miterlimit="10"/>
<path d="M85.749 58.2271H84.7578V60.4819H85.749V58.2271Z" stroke="#00DCE6" stroke-miterlimit="10"/>
<path d="M78.8105 53.5439H77.8193V55.7988H78.8105V53.5439Z" stroke="#00DCE6" stroke-miterlimit="10"/>
<path d="M82.2797 53.5439H81.2886V55.7988H82.2797V53.5439Z" stroke="#00DCE6" stroke-miterlimit="10"/>
<path d="M85.6992 53.5435H84.708V55.7983H85.6992V53.5435Z" stroke="#00DCE6" stroke-miterlimit="10"/>
<path d="M92.3645 41.5508H88.499V63.034H92.3645V41.5508Z" stroke="#00DCE6" stroke-miterlimit="10"/>
<path d="M66 63.0342H94" stroke="#00DCE6" stroke-miterlimit="10"/>
</svg>
