<svg width="130" height="130" viewBox="0 0 130 130" fill="none" xmlns="http://www.w3.org/2000/svg">
<path fill-rule="evenodd" clip-rule="evenodd" d="M19.8612 0H130V110.139C116.2 122.49 97.9772 130 78 130C34.9218 130 0 95.0782 0 52C0 32.0228 7.51019 13.7997 19.8612 0Z" fill="#E6FBFC"/>
<path d="M48.3342 56.6971C49.0966 60.6997 50.812 64.3211 52.9086 67.752L47 73.6606L56.3394 83L61.6762 77.0914C64.9164 79.188 68.3473 80.9034 72.1593 81.6658V90.0522H85.5013V81.6658C91.2193 80.9034 93.6971 79.188 96.9373 77.0914L103.037 83L112.567 73.6606L107.039 67.1802C109.136 63.9399 110.851 61.4621 111.614 55.7441H120V42.4021H111.614C110.851 38.5901 109.136 35.1593 107.039 31.7285L112.948 26.0104L103.608 16.671L98.2715 22.5796C95.0313 20.483 91.6005 18.9582 87.7885 18.0052V10H74.4465V18.1958C68.7285 18.9582 66.2507 20.6736 63.0104 22.7702L59.1958 16.718L47.5718 44.3081L75.1619 38.4961L70.4439 34.7781C70.4439 34.7781 74.2559 30.9661 79.9739 30.9661C90.4569 30.9661 99.0339 39.5431 99.0339 50.0261C99.0339 60.5091 90.4569 69.0862 79.9739 69.0862C70.0627 69.0862 62.0574 61.6527 60.9138 51.9321" stroke="#00DCE6" stroke-miterlimit="10"/>
</svg>
