<svg width="200" height="200" viewBox="0 0 200 200" fill="none" xmlns="http://www.w3.org/2000/svg">
<path fill-rule="evenodd" clip-rule="evenodd" d="M30.5557 0H200V169.444C178.77 188.446 150.734 200 120 200C53.7258 200 0 146.274 0 80C0 49.2658 11.5541 21.2303 30.5557 0Z" fill="#00DCE6" fill-opacity="0.1"/>
<path d="M73.5 136.002L165 136" stroke="#00DCE6" stroke-width="2" stroke-dasharray="2 2"/>
<path d="M179 81.842L179 105.807L179 115.87L179 118.895V119H61V118.984V118.964V118.944V118.924V118.904V118.883V118.862V118.841V118.819V118.798V118.776V118.754V118.731V118.709V118.686V118.663V118.639V118.615V118.592V118.567V118.543V118.518V118.493V118.468V118.443V118.417V118.391V118.365V118.338V118.312V118.285V118.257V118.23V118.202V118.174V118.145V118.117V118.088V118.059V118.029V117.999V117.969V117.939V117.908V117.877V117.846V117.815V117.783V117.751V117.719V117.686V117.653V117.62V117.587V117.553V117.519V117.484V117.45V117.415V117.379V117.344V117.308V117.272V117.235V117.198V117.161V117.124V117.086V117.048V117.01V116.971V116.932V116.893V116.853V116.813V116.773V116.732V116.692V116.65V116.609V116.567V116.525V116.482V116.439V116.396V116.353V116.309V116.265V116.22V116.175V116.13V116.085V116.039V115.993V115.946V115.899V115.852V115.804V115.756V115.708V115.659V115.61V115.561V115.511V115.461V115.411V115.36V115.309V115.258V115.206V115.154V115.101V115.048V114.995V114.941V114.887V114.833V114.778V114.723V114.668V114.612V114.556V114.499V114.442V114.385V114.327V114.269V114.211V114.152V114.092V114.033V113.973V113.912V113.852V113.79V113.729V113.667V113.605V113.542V113.479V113.415V113.351V113.287V113.222V113.157V113.092V113.026V112.959V112.893V112.825V112.758V112.69V112.622V112.553V112.484V112.414V112.344V112.274V112.203V112.131V112.06V111.988V111.915V111.842V111.769V111.695V111.621V111.546V111.471V111.395V111.32V111.243V111.166V111.089V111.011V110.933V110.855V110.776V110.696V110.616V110.536V110.455V110.374V110.293V110.21V110.128V110.045V109.962V109.878V109.793V109.708V109.623V109.538V109.451V109.365V109.278V109.19V109.102V109.014V108.925V108.835V108.745V108.655V108.564V108.473V108.381V108.289V108.196V108.103V108.01V107.915V107.821V107.726V107.63V107.534V107.438V107.341V107.243V107.145V107.047V106.948V106.848V106.748V106.648V106.547V106.445V106.344V106.241V106.138V106.035V105.931V105.826V105.722V105.616V105.51V105.404V105.297V105.189V105.081V104.973V104.864V104.754V104.644V104.534V104.423V104.311V104.199V104.087V103.973V103.86V103.746V103.631V103.516V103.4V103.284V103.167V103.049V102.932V102.813V102.694V102.575V102.455V102.334V102.213V102.091V101.969V101.847V101.723V101.599V101.475V101.35V101.225V101.099V100.972V100.845V100.717V100.589V100.46V100.331V100.201V100.071V99.9398V99.8082V99.6761V99.5434V99.4101V99.2763V99.1419V99.007V98.8714V98.7353V98.5987V98.4614V98.3236V98.1852V98.0462V97.9067V97.7666V97.6258V97.4846V97.3427V97.2002V97.0572V96.9136V96.7693V96.6245V96.4791V96.3332V96.1866V96.0394V95.8917V95.7433V95.5944V95.4448V95.2946V95.1439V94.9925V94.8406V94.688V94.5349V94.3811V94.2267V94.0717V93.9161V93.7599V93.6031V93.4457V93.2876V93.129V92.9697V92.8098V92.6493V92.4882V92.3264V92.164V92.0011V91.8374V91.6732V91.5083V91.3428V91.1767V91.0099V90.8425V90.6745V90.5058V90.3365V90.1666V89.996V89.8248V89.6529V89.4805V89.3073V89.1336V88.9591V88.7841V88.6083V88.432V88.255V88.0773V87.899V87.72V87.5404V87.3601V87.1792V86.9976V86.8154V86.6325V86.4489V86.2647V86.0798V85.8942V85.708V85.5211V85.3336V85.1453V84.9564V84.7669V84.5766V84.3857V84.1941V84.0019V83.8089V83.6153V83.421V83.226V83.0304V82.834V82.637V82.4393V82.2409V82.0418V81.842C61 48.2112 87.4435 21 120 21C152.557 21 179 48.2112 179 81.842Z" stroke="#00DCE6" stroke-width="2"/>
<path d="M165 77.001C165 53.805 144.853 35.001 120 35.001C95.1472 35.001 75 53.805 75 77.001" stroke="#00DCE6" stroke-width="4"/>
<path d="M141 117.82H99L99 109.675C99 98.2834 108.375 89 120 89C131.625 89 141 98.2834 141 109.675V109.703V109.731V109.759V109.787V109.816V109.844V109.872V109.9V109.928V109.956V109.984V110.012V110.04V110.069V110.097V110.125V110.153V110.181V110.209V110.238V110.266V110.294V110.322V110.351V110.379V110.407V110.435V110.464V110.492V110.52V110.548V110.577V110.605V110.633V110.662V110.69V110.718V110.746V110.775V110.803V110.831V110.86V110.888V110.916V110.945V110.973V111.001V111.03V111.058V111.086V111.115V111.143V111.171V111.2V111.228V111.256V111.285V111.313V111.341V111.37V111.398V111.426V111.455V111.483V111.511V111.54V111.568V111.596V111.624V111.653V111.681V111.709V111.738V111.766V111.794V111.822V111.851V111.879V111.907V111.935V111.963V111.992V112.02V112.048V112.076V112.104V112.133V112.161V112.189V112.217V112.245V112.273V112.301V112.329V112.358V112.386V112.414V112.442V112.47V112.498V112.526V112.554V112.582V112.61V112.638V112.666V112.694V112.721V112.749V112.777V112.805V112.833V112.861V112.889V112.916V112.944V112.972V113V113.027V113.055V113.083V113.11V113.138V113.166V113.193V113.221V113.248V113.276V113.303V113.331V113.358V113.386V113.413V113.441V113.468V113.496V113.523V113.55V113.578V113.605V113.632V113.659V113.687V113.714V113.741V113.768V113.795V113.822V113.849V113.876V113.903V113.93V113.957V113.984V114.011V114.038V114.065V114.092V114.118V114.145V114.172V114.199V114.225V114.252V114.279V114.305V114.332V114.358V114.385V114.411V114.438V114.464V114.49V114.517V114.543V114.569V114.595V114.622V114.648V114.674V114.7V114.726V114.752V114.778V114.804V114.83V114.856V114.882V114.907V114.933V114.959V114.985V115.01V115.036V115.061V115.087V115.112V115.138V115.163V115.189V115.214V115.239V115.265V115.29V115.315V115.34V115.365V115.39V115.415V115.44V115.465V115.49V115.515V115.54V115.565V115.589V115.614V115.639V115.663V115.688V115.712V115.737V115.761V115.785V115.81V115.834V115.858V115.882V115.907V115.931V115.955V115.979V116.003V116.026V116.05V116.074V116.098V116.121V116.145V116.169V116.192V116.216V116.239V116.263V116.286V116.309V116.332V116.356V116.379V116.402V116.425V116.448V116.471V116.494V116.516V116.539V116.562V116.584V116.607V116.63V116.652V116.674V116.697V116.719V116.741V116.764V116.786V116.808V116.83V116.852V116.874V116.895V116.917V116.939V116.961V116.982V117.004V117.025V117.047V117.068V117.089V117.111V117.132V117.153V117.174V117.195V117.216V117.237V117.258V117.278V117.299V117.32V117.34V117.361V117.381V117.401V117.422V117.442V117.462V117.482V117.502V117.522V117.542V117.562V117.582V117.601V117.621V117.64V117.66V117.679V117.699V117.718V117.737V117.756V117.775V117.794V117.813V117.82Z" stroke="#00DCE6" stroke-width="4"/>
<path d="M119 109L159 76" stroke="#00DCE6" stroke-width="4"/>
<path d="M75 77L75 109" stroke="#00DCE6" stroke-width="4"/>
<path d="M155 78C155 60.3269 139.33 46 120 46C100.67 46 85 60.3269 85 78" stroke="#00DCE6" stroke-linejoin="round" stroke-dasharray="2 2"/>
<path d="M85 78L85 108" stroke="#00DCE6" stroke-width="2" stroke-dasharray="2 2"/>
<path d="M165 81V100" stroke="#00DCE6" stroke-width="4"/>
<path d="M165 104L165 109" stroke="#00DCE6" stroke-width="4"/>
</svg>
