<svg width="200" height="200" viewBox="0 0 200 200" fill="none" xmlns="http://www.w3.org/2000/svg">
<path fill-rule="evenodd" clip-rule="evenodd" d="M30.5557 0H200V169.444C178.77 188.446 150.734 200 120 200C53.7258 200 0 146.274 0 80C0 49.2658 11.5541 21.2303 30.5557 0Z" fill="#00DCE6" fill-opacity="0.1"/>
<path d="M69 26C69 22.6863 71.6863 20 75 20H174C177.314 20 180 22.6863 180 26V38H69V26Z" stroke="#00DCE6" stroke-width="2"/>
<path d="M109.5 114H180V38H69V114H85" stroke="#00DCE6" stroke-width="2"/>
<path d="M75.5 29H79.5M75.5 29H79.5" stroke="#00DCE6" stroke-width="2"/>
<path d="M83 29H87M83 29H87" stroke="#00DCE6" stroke-width="2"/>
<path d="M90 29H94M90 29H94" stroke="#00DCE6" stroke-width="2"/>
<path d="M88.7264 107.856L77.0848 105.072L111.5 87.5L106.906 126.036L100.028 115.223L83.2453 139.759L71.5 131.5L88.7264 107.856Z" stroke="#00DCE6" stroke-width="4"/>
<path d="M102.643 82.3925C99.4663 72.9003 102.657 62.0462 111.225 55.8771C121.761 48.2909 136.437 50.6619 144.005 61.1727C151.573 71.6835 149.168 86.3539 138.632 93.9401C132.639 98.2551 125.307 99.3486 118.705 97.5551" stroke="#00DCE6" stroke-width="4"/>
<path d="M96.6402 84.4508C92.6236 72.4498 96.6582 58.7268 107.49 50.9272C120.811 41.336 139.366 44.3336 148.934 57.6224C158.503 70.9113 155.461 89.4592 142.141 99.0504C134.565 104.506 125.294 105.888 116.948 103.621" stroke="#00DCE6" stroke-dasharray="2 2"/>
<path d="M110.78 71.4681L122.064 84L139.78 65" stroke="#00DCE6" stroke-width="4"/>
</svg>
