<svg width="200" height="200" viewBox="0 0 200 200" fill="none" xmlns="http://www.w3.org/2000/svg">
<path fill-rule="evenodd" clip-rule="evenodd" d="M30.5557 0H200V169.444C178.77 188.446 150.734 200 120 200C53.7258 200 0 146.274 0 80C0 49.2658 11.5541 21.2303 30.5557 0Z" fill="#00DCE6" fill-opacity="0.1"/>
<path d="M99.86 25.2C99.86 28.1 97.56 30.4 94.66 30.4C91.76 30.4 89.46 28.1 89.46 25.2C89.46 22.3 91.76 20 94.66 20C97.56 20 99.86 22.3 99.86 25.2Z" stroke="#00DCE6" stroke-width="2"/>
<path d="M129.86 25.2C129.86 28.1 127.56 30.4 124.66 30.4C121.76 30.4 119.46 28.1 119.46 25.2C119.46 22.3 121.76 20 124.66 20C127.56 20 129.86 22.3 129.86 25.2Z" stroke="#00DCE6" stroke-width="2"/>
<path d="M159.86 25.2C159.86 28.1 157.56 30.4 154.66 30.4C151.76 30.4 149.46 28.1 149.46 25.2C149.46 22.3 151.76 20 154.66 20C157.56 20 159.86 22.3 159.86 25.2Z" stroke="#00DCE6" stroke-width="2"/>
<path d="M130.659 128.2H118.859V140H130.659V128.2Z" stroke="#00DCE6" stroke-width="2"/>
<path d="M154.99 90.227L160.602 99.8059L170.251 94.3164" stroke="#00DCE6" stroke-width="2"/>
<path d="M156.028 104.896C146.911 117.671 130.529 123.945 114.398 119.623C93.7271 114.084 81.4493 92.6771 86.9881 72.0062L88.8257 65.1482" stroke="#00DCE6" stroke-width="2"/>
<path d="M93.2907 59.3049C102.408 46.5293 118.79 40.2555 134.921 44.5778C155.592 50.1165 167.87 71.5237 162.331 92.1945L160.448 98.8335" stroke="#00DCE6" stroke-width="2"/>
<path d="M94.3301 73.9727L88.7439 64.2972L79.0685 69.8833" stroke="#00DCE6" stroke-width="2"/>
<path d="M136.459 82C136.459 88.6383 131.135 94 124.459 94C117.783 94 112.459 88.6383 112.459 82C112.459 75.3617 117.867 70 124.459 70C131.051 70 136.459 75.3617 136.459 82Z" stroke="#00DCE6" stroke-width="2"/>
<path d="M136.659 100.9L140.459 104.7L147.359 97.8004L143.559 94.0004L143.959 93.4004C145.059 91.6004 145.859 89.7004 146.359 87.7004L146.559 87.0004H151.959V77.3004H146.559L146.359 76.6004C145.859 74.6004 145.059 72.6004 143.959 70.9004L143.559 70.3004L147.359 66.5004L140.459 59.6004L136.659 63.3004L136.059 62.9004C134.259 61.8004 132.359 61.0004 130.359 60.5004L129.659 60.3004V54.9004H119.959V60.3004L119.259 60.5004C117.259 61.0004 115.259 61.8004 113.559 62.9004L112.659 63.3004L108.859 59.5004L101.959 66.4004L105.759 70.2004L105.359 70.8004C104.259 72.6004 103.459 74.5004 102.959 76.5004L102.759 77.2004H97.3594V86.9004H102.759L102.959 87.6004C103.459 89.6004 104.259 91.5004 105.359 93.3004L105.759 93.9004L101.959 97.7004L108.859 104.6L112.659 100.8L113.259 101.2C115.059 102.3 116.959 103.1 118.959 103.6L119.659 103.8V109.2H129.359V103.8L130.059 103.6C132.059 103.1 134.059 102.3 135.759 101.2L136.659 100.9ZM127.559 98.3004L126.659 98.4004L125.659 98.6004C125.359 98.6004 125.059 98.6004 124.659 98.6004C123.059 98.6004 121.359 98.4004 119.859 97.9004V98.0004L118.559 97.5004L117.959 97.3004C110.559 93.9004 106.659 85.7004 108.859 77.8004C111.059 70.0004 118.659 64.9004 126.759 65.9004C134.859 66.9004 140.959 73.7004 141.159 81.8004C141.359 89.8004 135.559 96.9004 127.559 98.3004Z" fill="#00DCE6"/>
<path d="M124.66 30.2002V43.2002" stroke="#00DCE6" stroke-width="2"/>
<path d="M150.46 29.2002L141.46 38.2002V46.5002" stroke="#00DCE6" stroke-width="2"/>
<path d="M98.46 29.2002L107.46 38.2002V47.0002" stroke="#00DCE6" stroke-width="2"/>
<path d="M124.859 121.2V128.2" stroke="#00DCE6" stroke-width="2"/>
<path d="M100.26 128H88.46V139.8H100.26V128Z" stroke="#00DCE6" stroke-width="2"/>
<path d="M94.46 128V120L101.46 113.5" stroke="#00DCE6" stroke-width="2"/>
<path d="M149.66 128H161.46V139.8H149.66V128Z" stroke="#00DCE6" stroke-width="2"/>
<path d="M155.46 128V120L148.46 113.5" stroke="#00DCE6" stroke-width="2"/>
<path d="M174.46 82C174.46 64.0567 165.008 48.3211 150.812 39.5M74.46 82C74.46 96.2371 80.4104 109.084 89.96 118.191" stroke="#00DCE6" stroke-width="2" stroke-miterlimit="16" stroke-dasharray="3 3"/>
</svg>
